<svg id="Layer_1" data-name="Layer 1" xmlns="http://www.w3.org/2000/svg" viewBox="0 0 720 576"><defs><style>.cls-1,.cls-2,.cls-4,.cls-6{fill:#231f20;}.cls-1,.cls-3{stroke:#231f20;}.cls-1,.cls-6{stroke-miterlimit:10;}.cls-1,.cls-2,.cls-3{stroke-width:2px;}.cls-2{stroke:#000;}.cls-2,.cls-3{stroke-linecap:round;stroke-linejoin:round;}.cls-3,.cls-5{fill:#fff;}.cls-6{stroke:#fff;}</style></defs><title>Hanoi_Tower_Set_5_Final</title><path class="cls-1" d="M684,506.49c0-.14,0-0.29,0-0.43s0-.29,0-0.43V453.84H36.2s-0.25,51.74-.25,52.22c0,2.67,2.32,5.24,6.66,7.71C57.79,522.37,98,529.87,154,535.24s127.77,8.59,206,8.59c89.44,0,170.41-4.21,229-11,29.31-3.41,53-7.46,69.44-12,8.2-2.25,14.58-4.62,18.92-7.08,3.7-2.1,5.92-4.29,6.5-6.55H684v-0.73Z"/><ellipse class="cls-2" cx="360" cy="454.92" rx="323.86" ry="37.63"/><path class="cls-3" d="M684,455c0-.14,0-0.29,0-0.43s0-.29,0-0.43V402.36H36.2s-0.25,51.74-.25,52.22c0,2.67,2.32,5.24,6.66,7.71C57.79,470.89,98,478.39,154,483.77s127.77,8.59,206,8.59c89.44,0,170.41-4.21,229-11,29.31-3.41,53-7.46,69.44-12,8.2-2.25,14.58-4.62,18.92-7.08,3.7-2.1,5.92-4.29,6.5-6.55H684V455Z"/><ellipse class="cls-3" cx="360" cy="403.44" rx="323.86" ry="37.63"/><path class="cls-4" d="M360,412.22c-16,0-29-3.75-30.2-8.61h-0.08l0-.5V8.27h60.63V403.6H390.2C389,408.47,376,412.22,360,412.22Z"/><path class="cls-5" d="M389.82,8.77V403.1h0c-0.49,4.78-13.63,8.61-29.79,8.61s-29.3-3.83-29.79-8.61h0v-0.21s0,0,0-.06,0,0,0-.06V8.77h59.63m1-1H329.19v395s0,0.07,0,.11v1.27h0.23c2,5.6,16.84,8.61,30.58,8.61s28.6-3,30.58-8.61h0.21l0-1V7.77h0Z"/><ellipse class="cls-6" cx="359.99" cy="8.89" rx="29.81" ry="8.89"/><path class="cls-4" d="M71.14,452.37v-2.53l2.7,0.43c0-2.58,0-3.86,0-6.44l-2.72-.43v-2.53l2.72,0.43v-0.64a3.88,3.88,0,0,1,.38-1.8,3,3,0,0,1,1-1.13,3.44,3.44,0,0,1,1.43-.53,5.7,5.7,0,0,1,1.68,0,11.52,11.52,0,0,1,2.6.66,7.82,7.82,0,0,1,1.68.91l-0.87,2.14a12.08,12.08,0,0,0-1.13-.63,5.45,5.45,0,0,0-1.57-.45,2,2,0,0,0-1.73.3,2.21,2.21,0,0,0-.49,1.61l4.8,0.74V445l-4.8-.74v6.44l4.83,0.74V454C77.44,453.36,75.34,453,71.14,452.37Z"/><path class="cls-4" d="M85.3,443.83a11.09,11.09,0,0,1,2.12-.4,11.79,11.79,0,0,1,2.85.12,6.89,6.89,0,0,1,2,.59,4.12,4.12,0,0,1,1.35,1,3.73,3.73,0,0,1,.74,1.37,5.91,5.91,0,0,1,.23,1.69q0,1.17-.08,2c-0.05.54-.08,1-0.08,1.46a10.11,10.11,0,0,0,0,1.09c0,0.21.05,0.43,0.07,0.63l1.49,0.22v2.53l-3.84-.56L91.91,454l-0.11,0a3.18,3.18,0,0,1-1.3,1,4,4,0,0,1-2.27.18,4.47,4.47,0,0,1-2.71-1.32,3.66,3.66,0,0,1-1-2.59,3.35,3.35,0,0,1,.35-1.61,2.38,2.38,0,0,1,1-1,4.23,4.23,0,0,1,1.61-.43,9.27,9.27,0,0,1,2.1.09q0.41,0.06.86,0.17l1.11,0.26a2.29,2.29,0,0,0,0-.45v-0.44a1.7,1.7,0,0,0-.5-1.33,2.76,2.76,0,0,0-1.48-.6,6.65,6.65,0,0,0-2.09,0,11.81,11.81,0,0,0-1.57.36Zm3.89,9a2.52,2.52,0,0,0,1.63-.16,2.18,2.18,0,0,0,.79-0.74v-1.38l-0.68-.2a8.34,8.34,0,0,0-1-.2,4.67,4.67,0,0,0-.86,0,2.57,2.57,0,0,0-.77.14,1.23,1.23,0,0,0-.54.37,1,1,0,0,0-.2.64,1.51,1.51,0,0,0,.37,1.06A2,2,0,0,0,89.19,452.85Z"/><path class="cls-4" d="M109.48,456.92a5.67,5.67,0,0,1-2.2.77,9.34,9.34,0,0,1-2.63,0,8.15,8.15,0,0,1-2.65-.81,6.54,6.54,0,0,1-1.95-1.51,6.26,6.26,0,0,1-1.2-2.09,7.68,7.68,0,0,1-.41-2.54,6,6,0,0,1,.48-2.51,4.45,4.45,0,0,1,1.34-1.72,4.88,4.88,0,0,1,2-.9,7.5,7.5,0,0,1,2.54,0,10.13,10.13,0,0,1,2.41.63,13,13,0,0,1,1.72.81v4l-2.52-.35v-2.12a6.93,6.93,0,0,0-1.42-.36,4.13,4.13,0,0,0-1.27,0,2.58,2.58,0,0,0-1.92,1.42,3.26,3.26,0,0,0-.31,1.5,3.85,3.85,0,0,0,.25,1.39,3.9,3.9,0,0,0,.71,1.18,4,4,0,0,0,1.13.88,4.47,4.47,0,0,0,1.5.48,5.1,5.1,0,0,0,2.14-.07,7.3,7.3,0,0,0,1.25-.47Z"/><path class="cls-4" d="M113.37,449.58l-2.27-.31v-2.53l2.27,0.31v-2.62l3-.45v3.47l6,0.79v2.53l-6-.79v3.29a4.38,4.38,0,0,0,.66,2.65,2.66,2.66,0,0,0,1.86,1,3.83,3.83,0,0,0,1.12,0,3.72,3.72,0,0,0,.91-0.26,4.33,4.33,0,0,0,.73-0.41l0.61-.43,1.38,2.25a3.68,3.68,0,0,1-1,.71,7,7,0,0,1-1.26.5,7.29,7.29,0,0,1-1.41.26,6.57,6.57,0,0,1-1.44,0,5.66,5.66,0,0,1-3.86-2,7.43,7.43,0,0,1-1.29-4.74v-3.29Z"/><path class="cls-4" d="M125.27,454.37a6.67,6.67,0,0,1,.44-2.52,4.44,4.44,0,0,1,1.24-1.75,4.52,4.52,0,0,1,1.91-.94,7,7,0,0,1,2.49-.09,7.8,7.8,0,0,1,2.58.76,6.32,6.32,0,0,1,1.92,1.47,6.07,6.07,0,0,1,1.18,2.06,7.8,7.8,0,0,1,.4,2.53,6.68,6.68,0,0,1-.44,2.52,4.36,4.36,0,0,1-3.15,2.71,7,7,0,0,1-2.49.09,7.74,7.74,0,0,1-2.58-.76,6.33,6.33,0,0,1-1.91-1.47,6.08,6.08,0,0,1-1.18-2.07A7.81,7.81,0,0,1,125.27,454.37Zm3.07,0.39a4.83,4.83,0,0,0,.21,1.43,4,4,0,0,0,.6,1.2,3.25,3.25,0,0,0,.94.86,3.14,3.14,0,0,0,1.26.42,2.61,2.61,0,0,0,2.17-.58,3.35,3.35,0,0,0,.84-2.59,4.41,4.41,0,0,0-.78-2.66,3.09,3.09,0,0,0-2.23-1.25,3.4,3.4,0,0,0-1.19,0,2,2,0,0,0-1,.51,2.61,2.61,0,0,0-.63,1A4.7,4.7,0,0,0,128.34,454.76Z"/><path class="cls-4" d="M139.12,459.31l2.85,0.34v-6.44l-2.85-.34v-2.53l5.16,0.61,0.34,1.56h0.09a5.14,5.14,0,0,1,1.47-1.09,3.38,3.38,0,0,1,1.93-.28,3,3,0,0,1,2.17,1.26,6,6,0,0,1,.79,3.47l-2.69-.31a2.49,2.49,0,0,0-.24-1.23,1,1,0,0,0-.77-0.47,2.09,2.09,0,0,0-1.48.29,3.89,3.89,0,0,0-1,.95V460l5,0.58v2.53c-4.33-.5-6.49-0.75-10.81-1.27v-2.53Z"/><path class="cls-4" d="M153.35,461l4,0.45V455l-4-.45V452l7,0.78v9l4.25,0.46v2.53c-4.51-.48-6.77-0.73-11.28-1.24V461Zm3.49-11.71a1.45,1.45,0,0,1,.53-1.16,1.87,1.87,0,0,1,1.47-.34,2.5,2.5,0,0,1,1.54.67,1.76,1.76,0,0,1,.57,1.28,1.33,1.33,0,0,1-.57,1.15,2.17,2.17,0,0,1-1.54.3,2.37,2.37,0,0,1-1.47-.63A1.73,1.73,0,0,1,156.85,449.26Z"/><path class="cls-4" d="M167.85,454.36a11.54,11.54,0,0,1,2.13-.49,11.9,11.9,0,0,1,2.86,0,6.72,6.72,0,0,1,2,.5,3.89,3.89,0,0,1,1.36,1,3.52,3.52,0,0,1,.75,1.34,5.78,5.78,0,0,1,.23,1.68q0,1.17-.08,2c-0.05.54-.08,1-0.08,1.46a10,10,0,0,0,0,1.09c0,0.21.05,0.43,0.07,0.63l1.49,0.15v2.53l-3.86-.38-0.3-1.6h-0.11a3.41,3.41,0,0,1-1.3,1.1,4.12,4.12,0,0,1-2.28.28,4.28,4.28,0,0,1-2.72-1.2,3.49,3.49,0,0,1-1-2.54,3.43,3.43,0,0,1,.35-1.63,2.55,2.55,0,0,1,1-1,4.43,4.43,0,0,1,1.62-.5,9.34,9.34,0,0,1,2.11,0q0.41,0,.87.14l1.12,0.21a2.31,2.31,0,0,0,0-.46v-0.44a1.62,1.62,0,0,0-.5-1.3,2.66,2.66,0,0,0-1.48-.53,6.72,6.72,0,0,0-2.1.08,12.27,12.27,0,0,0-1.57.43Zm3.91,8.84a2.58,2.58,0,0,0,1.64-.24,2.33,2.33,0,0,0,.8-0.78V460.8l-0.68-.17a8.13,8.13,0,0,0-1-.16,4.68,4.68,0,0,0-.86,0,2.66,2.66,0,0,0-.77.17,1.31,1.31,0,0,0-.55.39,1,1,0,0,0-.2.65,1.45,1.45,0,0,0,.37,1A1.93,1.93,0,0,0,171.76,463.2Z"/><path class="cls-4" d="M181.57,450.36l4.9,0.47v10.63a5.19,5.19,0,0,0,.44,2.5,1.71,1.71,0,0,0,1.4.82,3.77,3.77,0,0,0,1.17,0,4,4,0,0,0,.92-0.34l1.13,2.17c-0.26.15-.52,0.28-0.78,0.4a4.6,4.6,0,0,1-.83.29,5.31,5.31,0,0,1-1,.14,7.56,7.56,0,0,1-1.16,0,4.76,4.76,0,0,1-3.24-1.41,4.67,4.67,0,0,1-1.08-3.23v-9.66l-1.91-.18v-2.53Z"/><path class="cls-4" d="M203.83,473.36a11.57,11.57,0,0,1-3.13-1.28A10.4,10.4,0,0,1,198,469.8a10.92,10.92,0,0,1-1.87-3.3,12.49,12.49,0,0,1-.7-4.34,11.48,11.48,0,0,1,.7-4.21,8.9,8.9,0,0,1,1.87-3,8.25,8.25,0,0,1,2.69-1.86,10.64,10.64,0,0,1,3.13-.81l0.55,2.51a8.92,8.92,0,0,0-1.83.5,5.93,5.93,0,0,0-1.94,1.23,6.83,6.83,0,0,0-1.55,2.27,9.23,9.23,0,0,0,1.66,9.77,8.09,8.09,0,0,0,2,1.57,8.57,8.57,0,0,0,1.7.75Z"/><path class="cls-4" d="M209.61,466.44l3.52,0.28c0-4,0-6,0-10.05l-3,2.08-1.38-2,5.25-3.58,2,0.16c0,5.43,0,8.14,0,13.57l3.45,0.27v2.53c-3.93-.3-5.9-0.46-9.83-0.78v-2.53Z"/><path class="cls-4" d="M223.42,467.51l3.52,0.26V457.72l-3,2.1-1.38-1.94,5.25-3.62,2,0.14c0,5.43,0,8.14,0,13.57l3.45,0.24v2.53c-3.93-.27-5.9-0.41-9.83-0.7v-2.53Z"/><path class="cls-4" d="M237.56,473.4a7.44,7.44,0,0,0,1.7-.5,6.57,6.57,0,0,0,2-1.27,7.22,7.22,0,0,0,1.62-2.28,8.2,8.2,0,0,0,.67-3.52,9.64,9.64,0,0,0-.63-3.72,8.41,8.41,0,0,0-1.55-2.5,7.35,7.35,0,0,0-1.95-1.53,10.31,10.31,0,0,0-1.83-.78l0.55-2.42a12.21,12.21,0,0,1,3.13,1.29,10.25,10.25,0,0,1,2.7,2.27,10.85,10.85,0,0,1,1.88,3.28,12.35,12.35,0,0,1,.7,4.31,11.6,11.6,0,0,1-.7,4.23,9,9,0,0,1-1.88,3,8.38,8.38,0,0,1-2.7,1.88,10.15,10.15,0,0,1-3.13.81Z"/><path class="cls-4" d="M517.76,466.14a4.93,4.93,0,0,0,1.39-.31,3.66,3.66,0,0,0,1.08-.64,3,3,0,0,0,.7-0.89,2.24,2.24,0,0,0,.25-1,2,2,0,0,0-.29-1.13,1.84,1.84,0,0,0-.79-0.67,3.56,3.56,0,0,0-1.22-.28,9.76,9.76,0,0,0-1.54,0l-1.29.11v-1.65l3.87-5.05-5.82.5v-2.53l9.39-.81v2.09l-4,5,0.53,0a4.41,4.41,0,0,1,1.56.14,3.45,3.45,0,0,1,1.35.71,3.62,3.62,0,0,1,.94,1.3,4.56,4.56,0,0,1,.36,1.88,5,5,0,0,1-.54,2.35,6,6,0,0,1-1.43,1.79,6.77,6.77,0,0,1-2,1.19,8.86,8.86,0,0,1-2.37.54,11.6,11.6,0,0,1-2.07,0,9.5,9.5,0,0,1-2-.41l0.81-2.55a3.09,3.09,0,0,0,.56.18L515.9,466a8.34,8.34,0,0,0,.92.11A6.37,6.37,0,0,0,517.76,466.14Z"/><path class="cls-4" d="M527.09,456.46a6,6,0,0,1,.4-2.2,5.52,5.52,0,0,1,1.13-1.79,6,6,0,0,1,1.75-1.27,6.6,6.6,0,0,1,2.29-.62,6.53,6.53,0,0,1,2.35.17,4.33,4.33,0,0,1,1.82,1,4.58,4.58,0,0,1,1.17,1.8,7.28,7.28,0,0,1,.41,2.57,14.31,14.31,0,0,1-.69,4.67,10.75,10.75,0,0,1-1.85,3.4,9.16,9.16,0,0,1-2.7,2.24,11.52,11.52,0,0,1-3.22,1.17l-0.64-2.29a8.66,8.66,0,0,0,2.29-.83,7.82,7.82,0,0,0,1.78-1.31,6.81,6.81,0,0,0,1.24-1.66,5.7,5.7,0,0,0,.62-1.91,3.92,3.92,0,0,1-1.24.89,5.41,5.41,0,0,1-1.82.46h0a5.38,5.38,0,0,1-1.77-.13,4.27,4.27,0,0,1-1.62-.77,4.23,4.23,0,0,1-1.18-1.44A4.59,4.59,0,0,1,527.09,456.46ZM530,456a2.41,2.41,0,0,0,.24,1.11,2.2,2.2,0,0,0,.63.77,2.43,2.43,0,0,0,.91.42,3.26,3.26,0,0,0,1.07.07,4.33,4.33,0,0,0,1.63-.45,2.76,2.76,0,0,0,1-.83,6.67,6.67,0,0,0,.07-0.93,4.28,4.28,0,0,0-.18-1.25,3,3,0,0,0-.55-1.05,2.39,2.39,0,0,0-.92-0.68,2.57,2.57,0,0,0-1.26-.17A2.85,2.85,0,0,0,530,456Z"/><path class="cls-4" d="M541.44,468.85c4.08-.4,6.12-0.61,10.2-1v2.46c-4.08.43-6.12,0.63-10.2,1v-2.46Z"/><path class="cls-4" d="M554.68,453.75a6,6,0,0,1,.4-2.21,5.62,5.62,0,0,1,1.13-1.81,6.07,6.07,0,0,1,1.75-1.29,6.68,6.68,0,0,1,2.29-.65,6.49,6.49,0,0,1,2.34.13,4.25,4.25,0,0,1,1.81,1,4.49,4.49,0,0,1,1.17,1.78,7.24,7.24,0,0,1,.41,2.56,14.41,14.41,0,0,1-.69,4.68,11,11,0,0,1-1.85,3.43,9.36,9.36,0,0,1-2.7,2.28,11.67,11.67,0,0,1-3.22,1.22l-0.64-2.28a8.77,8.77,0,0,0,2.29-.87,8,8,0,0,0,1.78-1.33,7,7,0,0,0,1.24-1.68,5.78,5.78,0,0,0,.62-1.92,4,4,0,0,1-1.24.91,5.47,5.47,0,0,1-1.81.49h0a5.35,5.35,0,0,1-1.77-.11,4.2,4.2,0,0,1-1.62-.75,4.13,4.13,0,0,1-1.18-1.43A4.55,4.55,0,0,1,554.68,453.75Zm2.89-.47a2.39,2.39,0,0,0,.24,1.11,2.15,2.15,0,0,0,.63.76,2.36,2.36,0,0,0,.91.41,3.27,3.27,0,0,0,1.07.06,4.39,4.39,0,0,0,1.63-.48,2.82,2.82,0,0,0,1-.85,6.71,6.71,0,0,0,.07-0.93,4.24,4.24,0,0,0-.18-1.25,3,3,0,0,0-.55-1,2.32,2.32,0,0,0-.92-0.67,2.56,2.56,0,0,0-1.26-.15A2.9,2.9,0,0,0,557.57,453.28Z"/><path class="cls-4" d="M569.65,460.63l3.51-.4V450.17l-3,2.67-1.38-1.68,5.23-4.61,2-.24v13.57l3.44-.41V462c-3.92.47-5.88,0.7-9.8,1.15v-2.53Z"/><path class="cls-4" d="M593.52,455.28a5.53,5.53,0,0,1-.42,2.15,6.28,6.28,0,0,1-1.16,1.83,6.42,6.42,0,0,1-1.75,1.35,6.52,6.52,0,0,1-4.43.59,4.33,4.33,0,0,1-1.82-.92,4.58,4.58,0,0,1-1.24-1.76,6.73,6.73,0,0,1-.46-2.61,11.21,11.21,0,0,1,.79-4.23,13.44,13.44,0,0,1,2-3.48,12.73,12.73,0,0,1,2.77-2.55,10.63,10.63,0,0,1,3.05-1.45l0.67,2.29a10.21,10.21,0,0,0-2.27,1,9.85,9.85,0,0,0-1.88,1.49,9.09,9.09,0,0,0-1.39,1.8,6.52,6.52,0,0,0-.77,2,4.21,4.21,0,0,1,1.38-1.15,5.47,5.47,0,0,1,2-.65,5.26,5.26,0,0,1,1.93.09,3.65,3.65,0,0,1,2.58,2.19A5.11,5.11,0,0,1,593.52,455.28Zm-2.89.48a2.08,2.08,0,0,0-.75-1.79,2.71,2.71,0,0,0-2-.39,3.67,3.67,0,0,0-1.65.62,3.51,3.51,0,0,0-1.08,1.1,4.06,4.06,0,0,0-.06.57c0,0.21,0,.37,0,0.5a2.9,2.9,0,0,0,.18,1,2.12,2.12,0,0,0,1.4,1.31,2.77,2.77,0,0,0,1.17.07,3.12,3.12,0,0,0,1-.32,3.48,3.48,0,0,0,.89-0.65,3.18,3.18,0,0,0,.63-0.92A2.67,2.67,0,0,0,590.63,455.76Z"/><path class="cls-4" d="M596.54,462.58c4.07-.53,6.11-0.79,10.18-1.34v2.46c-4.07.55-6.11,0.82-10.18,1.34v-2.46Z"/><path class="cls-4" d="M609.88,454.18a4.26,4.26,0,0,1,.26-1.51,5.44,5.44,0,0,1,.69-1.29,7.08,7.08,0,0,1,1-1.09,11.34,11.34,0,0,1,1.12-.9,5.75,5.75,0,0,1-1.9-1.31,3.06,3.06,0,0,1-.76-2.18,4.06,4.06,0,0,1,.39-1.73,5,5,0,0,1,1.09-1.51,6.2,6.2,0,0,1,1.66-1.13,7.14,7.14,0,0,1,2.08-.61,6.41,6.41,0,0,1,1.94,0,4.51,4.51,0,0,1,1.59.56,2.93,2.93,0,0,1,1.47,2.62,4.54,4.54,0,0,1-.7,2.47,7.55,7.55,0,0,1-1.91,2,5.82,5.82,0,0,1,2.19,1.37,3.29,3.29,0,0,1,.81,2.37,4.31,4.31,0,0,1-.45,1.94,5.55,5.55,0,0,1-1.2,1.61,6.78,6.78,0,0,1-1.77,1.18,7.55,7.55,0,0,1-2.16.64,6.8,6.8,0,0,1-2.13,0,4.87,4.87,0,0,1-1.72-.62,3.26,3.26,0,0,1-1.15-1.18A3.37,3.37,0,0,1,609.88,454.18Zm8.16-1.52a1.47,1.47,0,0,0-.3-0.95,2.64,2.64,0,0,0-.74-0.63,5.67,5.67,0,0,0-1-.45c-0.36-.13-0.71-0.26-1-0.4a5.48,5.48,0,0,0-1.76,1.54,2.86,2.86,0,0,0-.62,1.59,1.64,1.64,0,0,0,.73,1.5,3,3,0,0,0,2,.28,3.67,3.67,0,0,0,1.92-.81A2.11,2.11,0,0,0,618,452.66Zm-4.92-7a1.54,1.54,0,0,0,.24.9,2.08,2.08,0,0,0,.62.58,4.13,4.13,0,0,0,.86.4l1,0.32a5.24,5.24,0,0,0,.72-0.56,4.81,4.81,0,0,0,.63-0.7,4.09,4.09,0,0,0,.45-0.75,1.82,1.82,0,0,0,.17-0.75,1.49,1.49,0,0,0-.21-0.81,1.66,1.66,0,0,0-.54-0.53,2,2,0,0,0-.74-0.28,2.76,2.76,0,0,0-.85,0,2.84,2.84,0,0,0-.93.29,3.17,3.17,0,0,0-.73.52,2.19,2.19,0,0,0-.48.66A1.69,1.69,0,0,0,613.11,445.64Z"/><path class="cls-4" d="M623.12,448.18a14.52,14.52,0,0,1,.44-3.73,8.93,8.93,0,0,1,1.23-2.79,6.32,6.32,0,0,1,1.9-1.83,6.44,6.44,0,0,1,2.46-.88,4.61,4.61,0,0,1,4.46,1.37q1.56,1.8,1.56,6.08a14.65,14.65,0,0,1-.44,3.76,9.11,9.11,0,0,1-1.23,2.81,6.23,6.23,0,0,1-1.91,1.85,6.48,6.48,0,0,1-2.47.88,4.46,4.46,0,0,1-4.46-1.5Q623.12,452.28,623.12,448.18Zm3-.43c0,0.23,0,.45,0,0.65s0,0.42,0,.63l5.54-5.94a2.16,2.16,0,0,0-2.56-1.6,3,3,0,0,0-2.24,1.74A10.21,10.21,0,0,0,626.1,447.75Zm6.09-.9c0-.25,0-0.48,0-0.7s0-.44,0-0.65l-5.56,5.95a2.2,2.2,0,0,0,2.57,1.72,3,3,0,0,0,2.25-1.74A10.23,10.23,0,0,0,632.18,446.86Z"/><path class="cls-4" d="M636.85,446.15a14.57,14.57,0,0,1,.44-3.73,9,9,0,0,1,1.23-2.8,6.4,6.4,0,0,1,1.89-1.84,6.47,6.47,0,0,1,2.46-.9,4.58,4.58,0,0,1,4.45,1.34q1.56,1.79,1.56,6.07a14.7,14.7,0,0,1-.44,3.76,9.21,9.21,0,0,1-1.23,2.81,6.31,6.31,0,0,1-1.9,1.86,6.51,6.51,0,0,1-2.47.9,4.43,4.43,0,0,1-4.45-1.47Q636.85,450.25,636.85,446.15Zm3-.45c0,0.23,0,.45,0,0.65s0,0.42,0,.63l5.53-6a2.14,2.14,0,0,0-2.56-1.58,3,3,0,0,0-2.23,1.76A10.25,10.25,0,0,0,639.82,445.7Zm6.08-.94c0-.25,0-0.48,0-0.7s0-.44,0-0.65l-5.56,6a2.18,2.18,0,0,0,2.56,1.7,3,3,0,0,0,2.25-1.75A10.28,10.28,0,0,0,645.91,444.76Z"/></svg>