<svg id="Layer_1" data-name="Layer 1" xmlns="http://www.w3.org/2000/svg" viewBox="0 0 720 576"><defs><style>.cls-1,.cls-2,.cls-4,.cls-6{fill:#231f20;}.cls-1,.cls-3{stroke:#231f20;}.cls-1,.cls-6{stroke-miterlimit:10;}.cls-2{stroke:#000;}.cls-2,.cls-3{stroke-linecap:round;stroke-linejoin:round;stroke-width:2px;}.cls-3,.cls-5{fill:#fff;}.cls-6{stroke:#fff;}</style></defs><title>Hanoi_Tower_Set_3</title><path class="cls-1" d="M655.27,529.72c0-.14,0-0.29,0-0.43s0-.29,0-0.43V477.06H63.44s-0.23,51.74-.23,52.22c0,2.67,2.12,5.24,6.08,7.71C83.16,545.6,119.88,553.1,171,558.47s116.73,8.59,188.22,8.59c81.71,0,155.68-4.21,209.24-11,26.78-3.41,48.45-7.46,63.44-12,7.5-2.25,13.32-4.62,17.29-7.08,3.38-2.1,5.41-4.29,5.94-6.55h0.1v-0.73Z"/><ellipse class="cls-2" cx="359.26" cy="478.15" rx="295.87" ry="37.63"/><path class="cls-3" d="M655.27,478.24c0-.14,0-0.29,0-0.43s0-.29,0-0.43V425.59H63.44s-0.23,51.74-.23,52.22c0,2.67,2.12,5.24,6.08,7.71C83.16,494.12,119.88,501.62,171,507s116.73,8.59,188.22,8.59c81.71,0,155.68-4.21,209.24-11,26.78-3.41,48.45-7.46,63.44-12,7.5-2.25,13.32-4.62,17.29-7.08,3.38-2.1,5.41-4.29,5.94-6.55h0.1v-0.73Z"/><ellipse class="cls-3" cx="359.26" cy="426.67" rx="295.87" ry="37.63"/><path class="cls-3" d="M655.27,426.76c0-.14,0-0.29,0-0.43s0-.29,0-0.43V374.11H63.44s-0.23,51.74-.23,52.22c0,2.67,2.12,5.24,6.08,7.71,13.87,8.61,50.58,16.11,101.74,21.48s116.73,8.59,188.22,8.59c81.71,0,155.68-4.21,209.24-11,26.78-3.41,48.45-7.46,63.44-12,7.5-2.25,13.32-4.62,17.29-7.08,3.38-2.1,5.41-4.29,5.94-6.55h0.1v-0.73Z"/><ellipse class="cls-3" cx="359.26" cy="375.19" rx="295.87" ry="37.63"/><path class="cls-4" d="M359.26,383.45c-16,0-29-3.75-30.2-8.61H329l0-.5V31.5h60.63V374.83h-0.12C388.23,379.7,375.23,383.45,359.26,383.45Z"/><path class="cls-5" d="M389.08,32V374.33h0c-0.49,4.78-13.63,8.61-29.79,8.61s-29.3-3.83-29.79-8.61h0v-0.21s0,0,0-.06,0,0,0-.06V32h59.63m1-1H328.45V374s0,0.07,0,.11v1.27h0.23c2,5.6,16.84,8.61,30.58,8.61s28.6-3,30.58-8.61H390l0-1V31h0Z"/><ellipse class="cls-6" cx="359.26" cy="32.11" rx="29.81" ry="8.89"/><path d="M72.89,471.39c0-.88,0-1.32,0-2.2l2.34,0.37V464l-2.37-.37c0-.88,0-1.32,0-2.2l2.37,0.37V461.2a3.37,3.37,0,0,1,.33-1.57,2.6,2.6,0,0,1,.86-1,3,3,0,0,1,1.24-.46,5,5,0,0,1,1.46,0,10,10,0,0,1,2.26.58,6.86,6.86,0,0,1,1.46.79l-0.76,1.86a10.78,10.78,0,0,0-1-.55,4.72,4.72,0,0,0-1.36-.39,1.72,1.72,0,0,0-1.5.26,1.92,1.92,0,0,0-.43,1.4L82,462.81c0,0.88,0,1.32,0,2.2l-4.18-.64V470l4.2,0.65v2.2Z"/><path d="M85.2,464a9.8,9.8,0,0,1,1.84-.34,10.27,10.27,0,0,1,2.48.11,6,6,0,0,1,1.76.51,3.61,3.61,0,0,1,1.17.88,3.26,3.26,0,0,1,.65,1.2,5.15,5.15,0,0,1,.2,1.47q0,1-.07,1.73c0,0.47-.07.9-0.07,1.27a8.78,8.78,0,0,0,0,.95c0,0.19,0,.37.06,0.55l1.29,0.19v2.2l-3.34-.49L91,472.8h-0.1a2.76,2.76,0,0,1-1.13.9,3.5,3.5,0,0,1-2,.15,3.89,3.89,0,0,1-2.35-1.15,3.18,3.18,0,0,1-.87-2.25,2.92,2.92,0,0,1,.31-1.4,2.07,2.07,0,0,1,.89-0.87,3.68,3.68,0,0,1,1.4-.37,8,8,0,0,1,1.83.08q0.36,0.05.75,0.15l1,0.22a2,2,0,0,0,0-.39v-0.38a1.48,1.48,0,0,0-.43-1.16,2.4,2.4,0,0,0-1.28-.52,5.78,5.78,0,0,0-1.82,0,10.24,10.24,0,0,0-1.36.31Zm3.39,7.85a2.19,2.19,0,0,0,1.42-.14,1.89,1.89,0,0,0,.69-0.65v-1.2l-0.59-.18a7.21,7.21,0,0,0-.85-0.18,4,4,0,0,0-.75,0,2.21,2.21,0,0,0-.67.12,1.07,1.07,0,0,0-.47.32,0.84,0.84,0,0,0-.18.55,1.31,1.31,0,0,0,.32.92A1.75,1.75,0,0,0,88.59,471.83Z"/><path d="M106.22,475.4a4.9,4.9,0,0,1-1.91.66,8.09,8.09,0,0,1-2.29,0,7.11,7.11,0,0,1-2.3-.71A5.73,5.73,0,0,1,98,474a5.48,5.48,0,0,1-1-1.82,6.69,6.69,0,0,1-.36-2.21,5.23,5.23,0,0,1,.42-2.18,3.85,3.85,0,0,1,1.16-1.49,4.22,4.22,0,0,1,1.76-.78,6.51,6.51,0,0,1,2.21,0,8.78,8.78,0,0,1,2.09.56,11.12,11.12,0,0,1,1.49.71c0,1.41,0,2.11,0,3.52l-2.19-.31v-1.84a6,6,0,0,0-1.23-.32,3.59,3.59,0,0,0-1.1,0,2.24,2.24,0,0,0-1.67,1.23,2.83,2.83,0,0,0-.27,1.3,3.36,3.36,0,0,0,.22,1.21,3.36,3.36,0,0,0,1.6,1.8,3.91,3.91,0,0,0,1.3.42,4.45,4.45,0,0,0,1.86-.06,6.34,6.34,0,0,0,1.09-.41Z"/><path d="M109.61,469l-2-.27v-2.2l2,0.27c0-.91,0-1.37,0-2.28l2.59-.38v3l5.22,0.7v2.2l-5.22-.7v2.86a3.82,3.82,0,0,0,.58,2.31,2.32,2.32,0,0,0,1.61.91,3.32,3.32,0,0,0,1,0,3.2,3.2,0,0,0,.79-0.22,3.69,3.69,0,0,0,.64-0.35l0.53-.37,1.2,2a3.15,3.15,0,0,1-.85.62,6.23,6.23,0,0,1-2.32.66,5.7,5.7,0,0,1-1.26,0,4.94,4.94,0,0,1-3.36-1.71,6.48,6.48,0,0,1-1.13-4.13V469Z"/><path d="M119.95,473.22a5.78,5.78,0,0,1,.38-2.19,3.84,3.84,0,0,1,1.08-1.52,3.9,3.9,0,0,1,1.66-.81,6.11,6.11,0,0,1,2.16-.07,6.79,6.79,0,0,1,2.24.67,5.54,5.54,0,0,1,1.67,1.28,5.31,5.31,0,0,1,1,1.8,6.82,6.82,0,0,1,.35,2.2,5.81,5.81,0,0,1-.38,2.19,3.77,3.77,0,0,1-2.74,2.34,6.07,6.07,0,0,1-2.16.07,6.75,6.75,0,0,1-2.24-.67,5.55,5.55,0,0,1-1.66-1.29,5.32,5.32,0,0,1-1-1.8A6.81,6.81,0,0,1,119.95,473.22Zm2.67,0.35a4.2,4.2,0,0,0,.18,1.24,3.49,3.49,0,0,0,.52,1,2.81,2.81,0,0,0,.82.76,2.74,2.74,0,0,0,1.1.37,2.27,2.27,0,0,0,1.88-.5,2.9,2.9,0,0,0,.73-2.25,3.85,3.85,0,0,0-.68-2.32,2.7,2.7,0,0,0-1.93-1.1,3,3,0,0,0-1,0,1.72,1.72,0,0,0-.83.44,2.28,2.28,0,0,0-.55.89A4.09,4.09,0,0,0,122.62,473.57Z"/><path d="M132,477.57l2.47,0.31v-5.6L132,472v-2.2l4.49,0.56,0.3,1.36h0.08a4.42,4.42,0,0,1,1.28-.94,2.94,2.94,0,0,1,1.68-.24,2.6,2.6,0,0,1,1.89,1.11,5.25,5.25,0,0,1,.69,3l-2.34-.28a2.16,2.16,0,0,0-.21-1.08,0.84,0.84,0,0,0-.67-0.41,1.81,1.81,0,0,0-1.29.24,3.37,3.37,0,0,0-.83.82v4.26l4.33,0.52v2.2l-9.4-1.15v-2.2Z"/><path d="M144.36,479.07l3.51,0.41c0-2.24,0-3.36,0-5.6l-3.51-.41v-2.2l6.11,0.71v7.8l3.69,0.42v2.2c-3.92-.44-5.88-0.67-9.8-1.13v-2.2Zm3-10.16a1.26,1.26,0,0,1,.46-1,1.62,1.62,0,0,1,1.28-.29,2.19,2.19,0,0,1,1.34.59,1.55,1.55,0,0,1,.5,1.12,1.15,1.15,0,0,1-.5,1,1.88,1.88,0,0,1-1.34.26,2.07,2.07,0,0,1-1.28-.56A1.51,1.51,0,0,1,147.4,468.91Z"/><path d="M157,473.4a10.1,10.1,0,0,1,1.85-.42,10.31,10.31,0,0,1,2.49,0,5.86,5.86,0,0,1,1.77.44,3.42,3.42,0,0,1,1.18.84,3.11,3.11,0,0,1,.65,1.17,5.06,5.06,0,0,1,.2,1.46q0,1-.07,1.73c0,0.47-.07.9-0.07,1.27a8.68,8.68,0,0,0,0,.94c0,0.19,0,.37.06,0.55l1.3,0.14v2.2l-3.35-.36L162.73,482h-0.1a2.93,2.93,0,0,1-1.13.95,3.57,3.57,0,0,1-2,.23,3.74,3.74,0,0,1-2.36-1.06,3.05,3.05,0,0,1-.87-2.22,3,3,0,0,1,.31-1.42,2.19,2.19,0,0,1,.89-0.9,3.83,3.83,0,0,1,1.41-.42,8.08,8.08,0,0,1,1.84,0q0.36,0,.75.12l1,0.19a2,2,0,0,0,0-.4v-0.38a1.43,1.43,0,0,0-.44-1.14,2.33,2.33,0,0,0-1.29-.47,5.84,5.84,0,0,0-1.82.06,10.63,10.63,0,0,0-1.37.37Zm3.4,7.71a2.24,2.24,0,0,0,1.42-.19,2,2,0,0,0,.69-0.68V479l-0.59-.15a7.07,7.07,0,0,0-.85-0.14,4,4,0,0,0-.75,0,2.28,2.28,0,0,0-.67.15,1.13,1.13,0,0,0-.47.34,0.86,0.86,0,0,0-.18.56,1.26,1.26,0,0,0,.33.91A1.69,1.69,0,0,0,160.36,481.11Z"/><path d="M168.88,470l4.26,0.44v9.24a4.53,4.53,0,0,0,.38,2.18,1.5,1.5,0,0,0,1.22.72,3.27,3.27,0,0,0,1,0,3.5,3.5,0,0,0,.8-0.29l1,1.9-0.68.34a4,4,0,0,1-.72.25,4.61,4.61,0,0,1-.83.12,6.51,6.51,0,0,1-1,0,4.17,4.17,0,0,1-2.82-1.25,4.09,4.09,0,0,1-.94-2.82v-8.4l-1.66-.17C168.88,471.32,168.88,470.88,168.88,470Z"/><path d="M188.23,490.16a10.15,10.15,0,0,1-2.72-1.14,9.14,9.14,0,0,1-2.34-2,9.58,9.58,0,0,1-1.63-2.88,10.91,10.91,0,0,1-.61-3.78,10,10,0,0,1,.61-3.65,7.64,7.64,0,0,1,1.63-2.59,7.08,7.08,0,0,1,2.34-1.59,9.17,9.17,0,0,1,2.72-.68l0.48,2.18a7.73,7.73,0,0,0-1.59.42,5.09,5.09,0,0,0-1.69,1.06,5.89,5.89,0,0,0-1.35,2,8.07,8.07,0,0,0,1.44,8.51,7.15,7.15,0,0,0,1.71,1.38,7.5,7.5,0,0,0,1.48.67Z"/><path d="M196.09,484.72a4,4,0,0,0,1.21-.06,2.58,2.58,0,0,0,.94-0.39,2,2,0,0,0,.61-0.66,1.73,1.73,0,0,0,.22-0.87,2,2,0,0,0-.25-1,2.05,2.05,0,0,0-.69-0.71,3.61,3.61,0,0,0-1.06-.43,8.76,8.76,0,0,0-1.34-.22l-1.12-.1v-1.44L198,475l-5.06-.45v-2.2l8.16,0.73v1.82l-3.52,3.71,0.46,0a4.18,4.18,0,0,1,1.36.36,3.83,3.83,0,0,1,1.17.82,4,4,0,0,1,.82,1.27,4.36,4.36,0,0,1,.31,1.69,3.87,3.87,0,0,1-.47,2A4,4,0,0,1,200,486.1a4.81,4.81,0,0,1-1.77.72,7.15,7.15,0,0,1-2.06.11,10.59,10.59,0,0,1-1.8-.32,9.41,9.41,0,0,1-1.74-.66l0.7-2.1a3,3,0,0,0,.49.24l0.7,0.26a8.13,8.13,0,0,0,.8.23A5.83,5.83,0,0,0,196.09,484.72Z"/><path d="M205.53,489.52a6.35,6.35,0,0,0,1.48-.41,5.58,5.58,0,0,0,1.71-1.08,6.13,6.13,0,0,0,1.41-2,7.07,7.07,0,0,0,.58-3.05,8.47,8.47,0,0,0-.55-3.24,7.49,7.49,0,0,0-1.35-2.2,6.55,6.55,0,0,0-1.69-1.36,9.16,9.16,0,0,0-1.59-.7l0.48-2.1a10.78,10.78,0,0,1,2.72,1.17,9.14,9.14,0,0,1,2.34,2,9.64,9.64,0,0,1,1.63,2.88,10.83,10.83,0,0,1,.61,3.76,10,10,0,0,1-.61,3.67,7.59,7.59,0,0,1-1.63,2.59,7.1,7.1,0,0,1-2.34,1.59,8.71,8.71,0,0,1-2.72.65Z"/><path d="M397,493.54v-2.2l2.37-.05v-5.6l-2.39.05c0-.88,0-1.32,0-2.2l2.39-.05v-0.56a3.7,3.7,0,0,1,.33-1.63,3.35,3.35,0,0,1,.87-1.14,3.68,3.68,0,0,1,1.25-.68,5.26,5.26,0,0,1,1.47-.24,9.33,9.33,0,0,1,2.28.17,5.7,5.7,0,0,1,1.47.53l-0.76,2a9,9,0,0,0-1-.38,4.34,4.34,0,0,0-1.37-.15,2,2,0,0,0-1.52.53,2.21,2.21,0,0,0-.43,1.48l4.21-.1v2.2l-4.21.1v5.6l4.23-.1v2.2Z"/><path d="M409.43,483.92a11.43,11.43,0,0,1,1.86-.67,10.71,10.71,0,0,1,2.5-.33,5.49,5.49,0,0,1,1.78.2,2.85,2.85,0,0,1,1.18.67,2.6,2.6,0,0,1,.65,1.08,4.76,4.76,0,0,1,.2,1.43c0,0.68,0,1.26-.07,1.74s-0.07.91-.07,1.28a8.66,8.66,0,0,0,0,.94c0,0.18,0,.37.06,0.54l1.3,0c0,0.88,0,1.32,0,2.2l-3.37.11-0.26-1.35h-0.1a3.6,3.6,0,0,1-1.14,1.1,3.88,3.88,0,0,1-2,.51,3.3,3.3,0,0,1-2.37-.73,2.66,2.66,0,0,1-.88-2.1,3.23,3.23,0,0,1,.31-1.46,2.69,2.69,0,0,1,.9-1,4.41,4.41,0,0,1,1.42-.62,8.35,8.35,0,0,1,1.84-.24q0.36,0,.76,0l1,0.05a2.15,2.15,0,0,0,0-.4v-0.38a1.24,1.24,0,0,0-.44-1.08,2.09,2.09,0,0,0-1.29-.29,6.14,6.14,0,0,0-1.83.31,12.1,12.1,0,0,0-1.37.56Zm3.41,7.24A2.24,2.24,0,0,0,415,490v-1.2l-0.6-.07a6.85,6.85,0,0,0-.85,0,4.14,4.14,0,0,0-.75.09,2.57,2.57,0,0,0-.67.24,1.38,1.38,0,0,0-.48.4,1,1,0,0,0-.18.59,1.11,1.11,0,0,0,.33.86A1.51,1.51,0,0,0,412.84,491.17Z"/><path d="M430.6,491.58a6,6,0,0,1-1.92,1,8.57,8.57,0,0,1-2.31.4,6.44,6.44,0,0,1-2.32-.3,4.51,4.51,0,0,1-1.7-1A4.34,4.34,0,0,1,421.3,490a6.12,6.12,0,0,1-.36-2.15,5.73,5.73,0,0,1,.42-2.25,5,5,0,0,1,1.17-1.7,5.3,5.3,0,0,1,1.77-1.09,7,7,0,0,1,2.23-.43,8.13,8.13,0,0,1,2.11.18,9.41,9.41,0,0,1,1.5.44v3.52l-2.21.08V484.8a5.58,5.58,0,0,0-1.24-.09,3.83,3.83,0,0,0-1.11.21,2.85,2.85,0,0,0-1,.58,3,3,0,0,0-.7,1,3.11,3.11,0,0,0-.27,1.35,3,3,0,0,0,.22,1.17,2.68,2.68,0,0,0,.62.92,2.71,2.71,0,0,0,1,.59,3.53,3.53,0,0,0,1.31.18,4.81,4.81,0,0,0,1.87-.39,7.73,7.73,0,0,0,1.09-.6Z"/><path d="M434,484.6l-2,.08v-2.2l2-.08v-2.28l2.61-.85v3l5.25-.23v2.2l-5.25.23v2.86a3.34,3.34,0,0,0,.58,2.21,1.92,1.92,0,0,0,1.62.62,3.54,3.54,0,0,0,1-.17,3.84,3.84,0,0,0,.79-0.37,4.74,4.74,0,0,0,.64-0.47l0.53-.46,1.2,1.75a4.11,4.11,0,0,1-.85.77,7.64,7.64,0,0,1-1.1.63,7.15,7.15,0,0,1-1.23.44,6,6,0,0,1-1.26.2,4.16,4.16,0,0,1-3.38-1.11,5.61,5.61,0,0,1-1.13-3.92V484.6Z"/><path d="M444.42,486.95a6.28,6.28,0,0,1,.38-2.26,4.82,4.82,0,0,1,2.76-2.82,6.58,6.58,0,0,1,2.17-.46,6.17,6.17,0,0,1,2.25.27,4.36,4.36,0,0,1,1.67,1,4.2,4.2,0,0,1,1,1.62,6.22,6.22,0,0,1,.35,2.14,6.33,6.33,0,0,1-.38,2.26,4.84,4.84,0,0,1-2.76,2.83,6.54,6.54,0,0,1-2.17.46,6.13,6.13,0,0,1-2.26-.27,4.37,4.37,0,0,1-1.67-1,4.22,4.22,0,0,1-1-1.62A6.23,6.23,0,0,1,444.42,486.95Zm2.69-.13a3.9,3.9,0,0,0,.18,1.21,2.82,2.82,0,0,0,.52,1,2.2,2.2,0,0,0,.82.61,2.46,2.46,0,0,0,1.1.18,2.68,2.68,0,0,0,1.89-.83,3.36,3.36,0,0,0,.73-2.38,3.32,3.32,0,0,0-.68-2.2,2.24,2.24,0,0,0-1.94-.75,3.2,3.2,0,0,0-1,.22,2.19,2.19,0,0,0-.83.59,2.86,2.86,0,0,0-.55,1A4.39,4.39,0,0,0,447.1,486.82Z"/><path d="M456.52,489.14L459,489v-5.6l-2.48.13v-2.2l4.51-.25,0.3,1.3h0.08a5.75,5.75,0,0,1,1.28-1.17,3.32,3.32,0,0,1,1.68-.54,2.15,2.15,0,0,1,1.89.77,4.64,4.64,0,0,1,.69,2.9l-2.34.14a2,2,0,0,0-.21-1,0.7,0.7,0,0,0-.67-0.29,2.09,2.09,0,0,0-1.29.47,4.37,4.37,0,0,0-.83,1v4.26l4.35-.25v2.2l-9.44.53v-2.2Z"/><path d="M468.95,488.44l3.53-.21v-5.6l-3.53.21v-2.2l6.13-.38c0,3.12,0,4.68,0,7.8l3.71-.24V490c-3.93.26-5.9,0.38-9.84,0.62v-2.2Zm3-10.7a1.51,1.51,0,0,1,.46-1.09,1.89,1.89,0,0,1,1.28-.52,1.87,1.87,0,0,1,1.34.35,1.27,1.27,0,0,1,.5,1,1.39,1.39,0,0,1-.5,1.08,2.17,2.17,0,0,1-1.34.49,1.77,1.77,0,0,1-1.28-.33A1.26,1.26,0,0,1,472,477.74Z"/><path d="M481.59,480.52a11.86,11.86,0,0,1,1.85-.75,10.88,10.88,0,0,1,2.49-.43,5.41,5.41,0,0,1,1.77.13,2.71,2.71,0,0,1,1.18.63,2.47,2.47,0,0,1,.65,1.05,4.69,4.69,0,0,1,.2,1.43q0,1-.07,1.75c0,0.48-.07.91-0.07,1.29a8.65,8.65,0,0,0,0,.94c0,0.18,0,.36.06,0.54L491,487v2.2l-3.36.24-0.26-1.34h-0.1a3.81,3.81,0,0,1-1.13,1.15,4,4,0,0,1-2,.59,3.19,3.19,0,0,1-2.37-.64,2.55,2.55,0,0,1-.88-2.06,3.31,3.31,0,0,1,.31-1.47,2.86,2.86,0,0,1,.9-1.06,4.61,4.61,0,0,1,1.41-.68,8.47,8.47,0,0,1,1.84-.32q0.36,0,.76,0h1a2.17,2.17,0,0,0,0-.4v-0.38a1.19,1.19,0,0,0-.44-1.06,2,2,0,0,0-1.29-.24,6.26,6.26,0,0,0-1.83.39,12.61,12.61,0,0,0-1.37.61Zm3.41,7.11a2.53,2.53,0,0,0,1.43-.45,2.62,2.62,0,0,0,.69-0.8v-1.2l-0.59,0a6.82,6.82,0,0,0-.85,0,4.2,4.2,0,0,0-.75.12,2.66,2.66,0,0,0-.67.27,1.46,1.46,0,0,0-.48.42,1,1,0,0,0-.18.59,1.07,1.07,0,0,0,.33.85A1.46,1.46,0,0,0,485,487.63Z"/><path d="M493.54,475l4.26-.32c0,3.7,0,5.54,0,9.24a4.11,4.11,0,0,0,.38,2.11,1.23,1.23,0,0,0,1.22.51,3.48,3.48,0,0,0,1-.21,4.27,4.27,0,0,0,.8-0.43l1,1.72-0.68.46a4.79,4.79,0,0,1-.72.38,5.19,5.19,0,0,1-.83.26,6.74,6.74,0,0,1-1,.15,3.56,3.56,0,0,1-2.82-.75,3.48,3.48,0,0,1-.94-2.65c0-3.36,0-5,0-8.4l-1.66.12V475Z"/><path d="M505.37,490.43l8.89-.73c0,0.86,0,1.28,0,2.14l-8.89.73C505.37,491.71,505.37,491.29,505.37,490.43Z"/><path d="M515.82,473.22l4-.35c0,2,0,3.07,0,5.12h0.08a3.84,3.84,0,0,1,1.28-1.13,4.63,4.63,0,0,1,1.88-.55,4.57,4.57,0,0,1,1.4.07,2.37,2.37,0,0,1,1.1.56,2.77,2.77,0,0,1,.72,1.18,6.09,6.09,0,0,1,.26,1.93v6.22l-2.6.24v-5.68a2.3,2.3,0,0,0-.52-1.71,1.67,1.67,0,0,0-1.36-.42,2.47,2.47,0,0,0-1.36.57,2.77,2.77,0,0,0-.88,1.23v6.38l-2.6.23c0-4.72,0-7.08,0-11.8l-1.44.12v-2.2Z"/><path d="M538.49,484.08a4.09,4.09,0,0,1-.67.54,7.25,7.25,0,0,1-1,.52,8.12,8.12,0,0,1-2.61.69,6.55,6.55,0,0,1-2.29-.14,3.93,3.93,0,0,1-2.78-2.45,5.88,5.88,0,0,1-.37-2.18,6.17,6.17,0,0,1,.42-2.35,5.25,5.25,0,0,1,1.15-1.76,5.44,5.44,0,0,1,1.71-1.15,7,7,0,0,1,2.12-.53,6.42,6.42,0,0,1,1.57,0,3.86,3.86,0,0,1,1.49.55,3.21,3.21,0,0,1,1.11,1.2,4.21,4.21,0,0,1,.43,2,9.79,9.79,0,0,1-.2,1.88l-7.2.69a2.16,2.16,0,0,0,.27,1.05,1.86,1.86,0,0,0,.66.66,2.59,2.59,0,0,0,.94.32,4.62,4.62,0,0,0,1.13,0,6.16,6.16,0,0,0,2-.47,4.72,4.72,0,0,0,1.25-.8Zm-4.32-6.72a3.49,3.49,0,0,0-1,.24,3.1,3.1,0,0,0-.83.5,2.61,2.61,0,0,0-.61.74,2.28,2.28,0,0,0-.28.94l4.92-.47A1.78,1.78,0,0,0,534.18,477.35Z"/><path d="M541.55,470.83l4.26-.43v9.24a4.06,4.06,0,0,0,.38,2.1,1.2,1.2,0,0,0,1.22.48,3.53,3.53,0,0,0,1-.24,4.4,4.4,0,0,0,.8-0.45l1,1.7-0.68.48a4.94,4.94,0,0,1-.72.39,5.3,5.3,0,0,1-.83.29,6.78,6.78,0,0,1-1,.17,3.48,3.48,0,0,1-2.82-.67,3.4,3.4,0,0,1-.94-2.63c0-3.36,0-5,0-8.4l-1.66.17v-2.2Z"/><path d="M551.8,473.78l3.4-.36,0.3,1.17h0.08a4.31,4.31,0,0,1,3.35-1.85,4.58,4.58,0,0,1,1.69.1,2.85,2.85,0,0,1,1.32.76,3.72,3.72,0,0,1,.85,1.47,7.16,7.16,0,0,1,.3,2.23,7.72,7.72,0,0,1-.34,2.35,5.65,5.65,0,0,1-1,1.86,4.92,4.92,0,0,1-1.56,1.27,5.86,5.86,0,0,1-2.1.61,8.1,8.1,0,0,1-1.22,0,3.13,3.13,0,0,1-1-.18c0,1.64,0,2.46,0,4.1l-2.6.28c0-4.72,0-7.08,0-11.8l-1.5.16C551.8,475.1,551.8,474.66,551.8,473.78Zm6.35,1.24a2.9,2.9,0,0,0-1.39.53,2.29,2.29,0,0,0-.87,1.23v4.16a1.91,1.91,0,0,0,.81.26,4.35,4.35,0,0,0,1.07,0,3,3,0,0,0,1-.3,2.5,2.5,0,0,0,.84-0.7,3.41,3.41,0,0,0,.56-1.12,5.46,5.46,0,0,0,.2-1.56,2.71,2.71,0,0,0-.64-2A1.87,1.87,0,0,0,558.16,475Z"/><path d="M574.45,480.18a4.22,4.22,0,0,1-.67.55,7.41,7.41,0,0,1-1,.54,8.22,8.22,0,0,1-2.6.74,6.5,6.5,0,0,1-2.29-.1,3.82,3.82,0,0,1-2.78-2.39,5.83,5.83,0,0,1-.37-2.17,6.24,6.24,0,0,1,.42-2.36,5.4,5.4,0,0,1,1.15-1.78,5.58,5.58,0,0,1,1.71-1.19,7.09,7.09,0,0,1,2.12-.57,6.41,6.41,0,0,1,1.57,0,3.79,3.79,0,0,1,1.49.52,3.11,3.11,0,0,1,1.11,1.18,4.17,4.17,0,0,1,.43,2,9.87,9.87,0,0,1-.2,1.88l-7.19.84a2.13,2.13,0,0,0,.27,1,1.8,1.8,0,0,0,.66.64,2.53,2.53,0,0,0,.94.3,4.6,4.6,0,0,0,1.13,0,6.23,6.23,0,0,0,2-.51,4.85,4.85,0,0,0,1.25-.83Zm-4.31-6.64a3.53,3.53,0,0,0-1,.26,3.19,3.19,0,0,0-.83.51,2.69,2.69,0,0,0-.61.75,2.32,2.32,0,0,0-.28.95l4.91-.57A1.74,1.74,0,0,0,570.14,473.54Z"/><path d="M576.54,478.79l2.47-.3v-5.6l-2.47.3V471l4.49-.54,0.3,1.28h0.08a6.33,6.33,0,0,1,1.28-1.26,3.5,3.5,0,0,1,1.68-.65,2,2,0,0,1,1.88.65,4.44,4.44,0,0,1,.69,2.85l-2.33.29a1.88,1.88,0,0,0-.21-1,0.65,0.65,0,0,0-.67-0.25,2.21,2.21,0,0,0-1.29.56,4.81,4.81,0,0,0-.83,1v4.26l4.33-.53v2.2l-9.4,1.15v-2.2Z"/><path d="M596.81,482.69a8.4,8.4,0,0,1-2.71-.53,6.64,6.64,0,0,1-2.33-1.48,7.15,7.15,0,0,1-1.62-2.51,9.81,9.81,0,0,1-.61-3.64,11.11,11.11,0,0,1,.61-3.79,10.26,10.26,0,0,1,1.63-3,9.77,9.77,0,0,1,2.33-2.12,11.3,11.3,0,0,1,2.71-1.29l0.48,2.08a9.57,9.57,0,0,0-1.58.78,7,7,0,0,0-1.69,1.44,8,8,0,0,0-1.35,2.26,8.7,8.7,0,0,0-.55,3.27,6.91,6.91,0,0,0,.58,3,5.74,5.74,0,0,0,1.4,1.89,5.22,5.22,0,0,0,1.7,1,6.11,6.11,0,0,0,1.48.34Z"/><path d="M601.81,475.59l3-.41v-8.74l-2.63,2.37-1.2-1.44,4.54-4.09,1.75-.24c0,4.72,0,7.08,0,11.8l3-.41v2.2l-8.51,1.16v-2.2Z"/><path d="M616,474.56a1.58,1.58,0,0,1,.45-1.14,1.89,1.89,0,0,1,1.13-.56,1.72,1.72,0,0,1,1.65.48,2.5,2.5,0,0,1,.56,1.7,4.14,4.14,0,0,1-.35,1.69,5.29,5.29,0,0,1-.91,1.41,6.05,6.05,0,0,1-1.24,1.06,5.87,5.87,0,0,1-1.36.65l-0.54-1a6.67,6.67,0,0,0,1-.48,4.7,4.7,0,0,0,.89-0.68,3.77,3.77,0,0,0,.67-0.86,2.4,2.4,0,0,0,.31-1,2.61,2.61,0,0,1-1,.17,1.32,1.32,0,0,1-.69-0.22,1.08,1.08,0,0,1-.39-0.51A1.94,1.94,0,0,1,616,474.56Z"/><path d="M628.53,472.1a4.46,4.46,0,0,0,1.2-.35,3.46,3.46,0,0,0,.94-0.62,2.86,2.86,0,0,0,.61-0.81,2,2,0,0,0,.22-0.92,1.71,1.71,0,0,0-.25-1,1.45,1.45,0,0,0-.69-0.54,3,3,0,0,0-1.05-.18,8.42,8.42,0,0,0-1.33.1l-1.11.17v-1.44l3.34-4.6-5,.75v-2.2l8.12-1.21v1.82l-3.5,4.55,0.46-.07a3.74,3.74,0,0,1,1.35,0,2.79,2.79,0,0,1,1.16.54,2.88,2.88,0,0,1,.82,1.08,3.86,3.86,0,0,1,.31,1.61,4.56,4.56,0,0,1-.47,2.07,5.68,5.68,0,0,1-1.23,1.64,6.38,6.38,0,0,1-1.76,1.14,7.94,7.94,0,0,1-2,.6,10.06,10.06,0,0,1-1.79.11,7.85,7.85,0,0,1-1.73-.25l0.7-2.26a2.37,2.37,0,0,0,.49.13l0.7,0.1a7.1,7.1,0,0,0,.8,0A5.57,5.57,0,0,0,628.53,472.1Z"/><path d="M637.92,474.66a8,8,0,0,0,1.47-.76,7.78,7.78,0,0,0,1.7-1.48,8.47,8.47,0,0,0,1.4-2.29,8.09,8.09,0,0,0,.58-3.19,7.55,7.55,0,0,0-.55-3.11,5.42,5.42,0,0,0-1.34-1.88,4.69,4.69,0,0,0-1.68-1,7.39,7.39,0,0,0-1.58-.33l0.48-2.21a8.74,8.74,0,0,1,2.7.52,6.49,6.49,0,0,1,2.33,1.46,7.07,7.07,0,0,1,1.62,2.49,9.72,9.72,0,0,1,.61,3.61,11.28,11.28,0,0,1-.61,3.82,10.37,10.37,0,0,1-1.62,3,10,10,0,0,1-2.33,2.14,10.76,10.76,0,0,1-2.7,1.3Z"/><path d="M72.89,421.89v-2.2l2.34,0.37v-5.6l-2.37-.37v-2.2l2.37,0.37V411.7a3.37,3.37,0,0,1,.33-1.57,2.6,2.6,0,0,1,.86-1,3,3,0,0,1,1.24-.46,5,5,0,0,1,1.46,0,10,10,0,0,1,2.26.58,6.86,6.86,0,0,1,1.46.79l-0.76,1.86a10.81,10.81,0,0,0-1-.55,4.73,4.73,0,0,0-1.36-.39,1.72,1.72,0,0,0-1.5.26,1.92,1.92,0,0,0-.43,1.4L82,413.31v2.2l-4.18-.64c0,2.24,0,3.36,0,5.6l4.2,0.65v2.2C78.37,422.76,76.54,422.47,72.89,421.89Z"/><path d="M85.2,414.48a9.8,9.8,0,0,1,1.84-.34,10.28,10.28,0,0,1,2.48.11,6,6,0,0,1,1.76.51,3.6,3.6,0,0,1,1.17.88,3.26,3.26,0,0,1,.65,1.2,5.15,5.15,0,0,1,.2,1.47q0,1-.07,1.73c0,0.47-.07.9-0.07,1.27a8.78,8.78,0,0,0,0,.95c0,0.19,0,.37.06,0.55L94.56,423c0,0.88,0,1.32,0,2.2l-3.34-.49L91,423.3h-0.1a2.76,2.76,0,0,1-1.13.9,3.5,3.5,0,0,1-2,.16,3.89,3.89,0,0,1-2.35-1.15,3.18,3.18,0,0,1-.87-2.25,2.92,2.92,0,0,1,.31-1.4,2.07,2.07,0,0,1,.89-0.87,3.68,3.68,0,0,1,1.4-.37,8,8,0,0,1,1.83.08q0.36,0.05.75,0.15l1,0.22a2,2,0,0,0,0-.39V418a1.48,1.48,0,0,0-.43-1.16,2.41,2.41,0,0,0-1.28-.52,5.78,5.78,0,0,0-1.82,0,10.27,10.27,0,0,0-1.36.31Zm3.39,7.85a2.19,2.19,0,0,0,1.42-.14,1.89,1.89,0,0,0,.69-0.65v-1.2l-0.59-.18a7.16,7.16,0,0,0-.85-0.18,4,4,0,0,0-.75,0,2.22,2.22,0,0,0-.67.12,1.07,1.07,0,0,0-.47.32,0.84,0.84,0,0,0-.18.55,1.31,1.31,0,0,0,.32.92A1.75,1.75,0,0,0,88.59,422.33Z"/><path d="M106.22,425.88a4.91,4.91,0,0,1-1.91.66,8.09,8.09,0,0,1-2.29,0,7.1,7.1,0,0,1-2.3-.71A5.73,5.73,0,0,1,98,424.51a5.48,5.48,0,0,1-1-1.82,6.69,6.69,0,0,1-.36-2.21A5.23,5.23,0,0,1,97,418.3a3.85,3.85,0,0,1,1.16-1.49A4.23,4.23,0,0,1,100,416a6.52,6.52,0,0,1,2.21,0,8.78,8.78,0,0,1,2.09.55,11.13,11.13,0,0,1,1.49.71v3.52l-2.19-.31v-1.84a6,6,0,0,0-1.23-.31,3.59,3.59,0,0,0-1.1,0,2.24,2.24,0,0,0-1.67,1.23,2.83,2.83,0,0,0-.27,1.3,3.35,3.35,0,0,0,.22,1.21,3.36,3.36,0,0,0,1.6,1.8,3.9,3.9,0,0,0,1.3.41,4.45,4.45,0,0,0,1.86-.06,6.34,6.34,0,0,0,1.09-.41Z"/><path d="M109.61,419.5l-2-.27V417l2,0.27V415l2.59-.39c0,1.21,0,1.81,0,3l5.22,0.7v2.2l-5.22-.7v2.86a3.82,3.82,0,0,0,.58,2.31,2.31,2.31,0,0,0,1.61.91,3.32,3.32,0,0,0,1,0,3.2,3.2,0,0,0,.79-0.23,3.71,3.71,0,0,0,.64-0.36l0.53-.37,1.2,2a3.16,3.16,0,0,1-.85.62,6.25,6.25,0,0,1-2.32.66,5.71,5.71,0,0,1-1.26,0,4.94,4.94,0,0,1-3.36-1.7,6.47,6.47,0,0,1-1.13-4.12C109.61,421.22,109.61,420.65,109.61,419.5Z"/><path d="M120,423.68a5.78,5.78,0,0,1,.38-2.19,3.85,3.85,0,0,1,1.08-1.52,3.9,3.9,0,0,1,1.66-.81,6.11,6.11,0,0,1,2.16-.07,6.78,6.78,0,0,1,2.24.66,5.53,5.53,0,0,1,1.67,1.28,5.29,5.29,0,0,1,1,1.8,6.81,6.81,0,0,1,.35,2.2,5.82,5.82,0,0,1-.38,2.19,3.78,3.78,0,0,1-2.74,2.35,6.07,6.07,0,0,1-2.16.08A6.74,6.74,0,0,1,123,429a5.53,5.53,0,0,1-1.66-1.28,5.31,5.31,0,0,1-1-1.8A6.8,6.8,0,0,1,120,423.68Zm2.67,0.35a4.19,4.19,0,0,0,.18,1.24,3.49,3.49,0,0,0,.52,1,2.82,2.82,0,0,0,.82.75,2.75,2.75,0,0,0,1.1.37,2.27,2.27,0,0,0,1.88-.5,2.9,2.9,0,0,0,.73-2.25,3.84,3.84,0,0,0-.68-2.32,2.69,2.69,0,0,0-1.93-1.09,3,3,0,0,0-1,0,1.72,1.72,0,0,0-.83.44,2.28,2.28,0,0,0-.55.89A4.09,4.09,0,0,0,122.63,424Z"/><path d="M132,428l2.47,0.3v-5.6l-2.47-.3v-2.2l4.49,0.55,0.3,1.36h0.08a4.44,4.44,0,0,1,1.28-.95,2.94,2.94,0,0,1,1.68-.24,2.59,2.59,0,0,1,1.89,1.1,5.24,5.24,0,0,1,.69,3l-2.34-.27a2.16,2.16,0,0,0-.21-1.07,0.84,0.84,0,0,0-.67-0.41,1.81,1.81,0,0,0-1.29.25,3.37,3.37,0,0,0-.83.82v4.26l4.33,0.51v2.2c-3.76-.44-5.64-0.67-9.4-1.13V428Z"/><path d="M144.37,429.48l3.51,0.4v-5.6l-3.51-.4v-2.2l6.11,0.7c0,3.12,0,4.68,0,7.8l3.69,0.41v2.2c-3.92-.43-5.88-0.65-9.8-1.1v-2.2Zm3-10.17a1.26,1.26,0,0,1,.46-1,1.62,1.62,0,0,1,1.28-.29,2.18,2.18,0,0,1,1.34.59,1.54,1.54,0,0,1,.5,1.12,1.15,1.15,0,0,1-.5,1,1.89,1.89,0,0,1-1.34.26,2.06,2.06,0,0,1-1.28-.55A1.51,1.51,0,0,1,147.41,419.31Z"/><path d="M157,423.77a10.14,10.14,0,0,1,1.85-.42,10.32,10.32,0,0,1,2.49,0,5.86,5.86,0,0,1,1.77.44,3.4,3.4,0,0,1,1.18.83,3.09,3.09,0,0,1,.65,1.17,5,5,0,0,1,.2,1.46c0,0.68,0,1.26-.07,1.73s-0.07.9-.07,1.27a8.71,8.71,0,0,0,0,.94c0,0.19,0,.37.06,0.55l1.3,0.13v2.2l-3.35-.35-0.26-1.39h-0.1a3,3,0,0,1-1.13,1,3.58,3.58,0,0,1-2,.24,3.73,3.73,0,0,1-2.36-1.05,3,3,0,0,1-.87-2.21,3,3,0,0,1,.31-1.42,2.2,2.2,0,0,1,.89-0.9,3.84,3.84,0,0,1,1.41-.43,8.09,8.09,0,0,1,1.84,0q0.36,0,.75.12l1,0.18a2,2,0,0,0,0-.4V427a1.42,1.42,0,0,0-.44-1.14,2.32,2.32,0,0,0-1.29-.47,5.84,5.84,0,0,0-1.83.07,10.68,10.68,0,0,0-1.37.37Zm3.4,7.7a2.24,2.24,0,0,0,1.42-.2,2,2,0,0,0,.69-0.68v-1.2l-0.59-.15a7.09,7.09,0,0,0-.85-0.14,4,4,0,0,0-.75,0,2.28,2.28,0,0,0-.67.15,1.14,1.14,0,0,0-.47.34,0.87,0.87,0,0,0-.18.56,1.26,1.26,0,0,0,.33.9A1.69,1.69,0,0,0,160.37,431.47Z"/><path d="M168.9,420.34l4.26,0.42c0,3.7,0,5.54,0,9.24a4.53,4.53,0,0,0,.38,2.18,1.5,1.5,0,0,0,1.22.72,3.27,3.27,0,0,0,1,0,3.51,3.51,0,0,0,.8-0.29l1,1.89-0.68.34a4,4,0,0,1-.72.25,4.62,4.62,0,0,1-.83.12,6.49,6.49,0,0,1-1,0,4.16,4.16,0,0,1-2.82-1.24,4.07,4.07,0,0,1-.94-2.81v-8.4l-1.66-.17v-2.2Z"/><path d="M180.71,437.83l8.88,0.81v2.14l-8.88-.81C180.71,439.11,180.71,438.69,180.71,437.83Z"/><path d="M191.15,422.44l4,0.35v5.12h0.08a3,3,0,0,1,1.28-.91,4.19,4.19,0,0,1,1.88-.22,4.92,4.92,0,0,1,1.4.32,3,3,0,0,1,1.1.75,3.46,3.46,0,0,1,.72,1.31,6.52,6.52,0,0,1,.26,2v6.22l-2.6-.21c0-2.27,0-3.41,0-5.68a2.65,2.65,0,0,0-.52-1.8,2,2,0,0,0-1.36-.65,2.12,2.12,0,0,0-1.36.34,2.16,2.16,0,0,0-.88,1.08v6.38l-2.6-.22v-11.8l-1.44-.13v-2.2Z"/><path d="M213.85,437.23a3.25,3.25,0,0,1-.67.42,6,6,0,0,1-1,.36,7.05,7.05,0,0,1-1.21.23,7.71,7.71,0,0,1-1.4,0,7.08,7.08,0,0,1-2.29-.54,5,5,0,0,1-2.78-2.93,6.4,6.4,0,0,1-.37-2.24,5.62,5.62,0,0,1,.42-2.28,4.14,4.14,0,0,1,1.15-1.56,4.37,4.37,0,0,1,1.71-.86,6.47,6.47,0,0,1,2.12-.17,6.86,6.86,0,0,1,1.57.32,4.7,4.7,0,0,1,1.49.8,4.11,4.11,0,0,1,1.11,1.39,4.65,4.65,0,0,1,.43,2.11,9.34,9.34,0,0,1-.2,1.85l-7.21-.55a2.44,2.44,0,0,0,.27,1.1,2.39,2.39,0,0,0,.66.77,3.13,3.13,0,0,0,.94.48,4.88,4.88,0,0,0,1.13.22,5.7,5.7,0,0,0,2-.13,3.79,3.79,0,0,0,1.25-.59Zm-4.32-7.47a3.22,3.22,0,0,0-1,.07,2.51,2.51,0,0,0-.83.35,2,2,0,0,0-.61.63,2,2,0,0,0-.28.9l4.92,0.38A2.16,2.16,0,0,0,209.52,429.76Z"/><path d="M216.91,424.51l4.26,0.31c0,3.7,0,5.54,0,9.24a4.45,4.45,0,0,0,.38,2.17,1.45,1.45,0,0,0,1.22.69,3.29,3.29,0,0,0,1-.06,3.62,3.62,0,0,0,.8-0.31l1,1.87-0.68.36a4.08,4.08,0,0,1-.72.27,4.7,4.7,0,0,1-.83.14,6.53,6.53,0,0,1-1,0,4,4,0,0,1-2.82-1.16,4,4,0,0,1-.94-2.79v-8.4l-1.66-.12C216.91,425.83,216.91,425.39,216.91,424.51Z"/><path d="M227.18,429.23l3.4,0.22,0.3,1.22H231a3.6,3.6,0,0,1,3.37-1.27,5,5,0,0,1,1.69.4,3.6,3.6,0,0,1,1.32,1,4.6,4.6,0,0,1,.85,1.61,7.64,7.64,0,0,1,.3,2.28,7.14,7.14,0,0,1-.34,2.29,4.55,4.55,0,0,1-1,1.69,3.87,3.87,0,0,1-1.56,1,5.32,5.32,0,0,1-2.1.25,8.36,8.36,0,0,1-1.22-.17,3.58,3.58,0,0,1-1-.35v4.1l-2.6-.17v-11.8l-1.5-.1v-2.2Zm6.37,2.33a2.54,2.54,0,0,0-1.39.29,1.81,1.81,0,0,0-.87,1.08v4.16a2.3,2.3,0,0,0,.81.4,4.58,4.58,0,0,0,1.07.2,2.72,2.72,0,0,0,1-.12,2,2,0,0,0,.84-0.56,2.75,2.75,0,0,0,.56-1,5.09,5.09,0,0,0,.2-1.53,3.13,3.13,0,0,0-.64-2.08A2.23,2.23,0,0,0,233.55,431.56Z"/><path d="M249.9,439.53a3.31,3.31,0,0,1-.67.43,6.09,6.09,0,0,1-1,.38,7.16,7.16,0,0,1-1.21.25,7.74,7.74,0,0,1-1.4,0,7,7,0,0,1-2.29-.49,4.86,4.86,0,0,1-2.78-2.87,6.33,6.33,0,0,1-.37-2.23,5.68,5.68,0,0,1,.42-2.28,4.27,4.27,0,0,1,1.15-1.58,4.48,4.48,0,0,1,1.71-.89,6.52,6.52,0,0,1,2.12-.21,6.79,6.79,0,0,1,1.57.29,4.59,4.59,0,0,1,1.49.77,4,4,0,0,1,1.11,1.37,4.6,4.6,0,0,1,.43,2.1,9.31,9.31,0,0,1-.2,1.85l-7.21-.4a2.4,2.4,0,0,0,.27,1.1,2.32,2.32,0,0,0,.66.76,3.06,3.06,0,0,0,.94.46,4.84,4.84,0,0,0,1.13.19,5.74,5.74,0,0,0,2-.17,3.9,3.9,0,0,0,1.25-.61Zm-4.33-7.38a3.25,3.25,0,0,0-1,.09,2.58,2.58,0,0,0-.83.37,2.11,2.11,0,0,0-.61.65,2,2,0,0,0-.28.9l4.93,0.28A2.11,2.11,0,0,0,245.57,432.16Z"/><path d="M252,438.5l2.48,0.13V433L252,432.9v-2.2l4.51,0.23,0.3,1.34h0.08a4.93,4.93,0,0,1,1.28-1,3.08,3.08,0,0,1,1.68-.36,2.4,2.4,0,0,1,1.89,1,5,5,0,0,1,.69,3l-2.35-.11a2.07,2.07,0,0,0-.21-1.06,0.78,0.78,0,0,0-.67-0.36,1.91,1.91,0,0,0-1.29.34,3.74,3.74,0,0,0-.83.88v4.26l4.35,0.21v2.2c-3.78-.18-5.66-0.27-9.44-0.47C252,439.82,252,439.38,252,438.5Z"/><path d="M272.37,445.89a9.67,9.67,0,0,1-2.73-1A8.48,8.48,0,0,1,267.3,443a9,9,0,0,1-1.63-2.79,10.6,10.6,0,0,1-.61-3.75,10.18,10.18,0,0,1,.61-3.68,8.21,8.21,0,0,1,1.63-2.68,7.65,7.65,0,0,1,2.35-1.72,9.6,9.6,0,0,1,2.73-.83l0.48,2.16a8.11,8.11,0,0,0-1.59.51,5.5,5.5,0,0,0-1.69,1.15,6.33,6.33,0,0,0-1.35,2,7.94,7.94,0,0,0-.55,3.18,7.55,7.55,0,0,0,.58,3.13,7.28,7.28,0,0,0,1.41,2.13,6.64,6.64,0,0,0,1.71,1.29,7.12,7.12,0,0,0,1.48.59Z"/><path d="M277.41,439.64l3.07,0.11V431l-2.65,1.92-1.2-1.64L281.2,428,283,428v11.8l3,0.1v2.2l-8.56-.3v-2.2Z"/><path d="M291.69,441a1.33,1.33,0,0,1,.45-1.07,1.61,1.61,0,0,1,1.13-.37,2,2,0,0,1,1.66.77,2.87,2.87,0,0,1,.56,1.8,3.71,3.71,0,0,1-.35,1.63,4.17,4.17,0,0,1-.91,1.26,4.76,4.76,0,0,1-1.25.84,5,5,0,0,1-1.37.42l-0.54-1.12a5.64,5.64,0,0,0,1-.31,3.74,3.74,0,0,0,.89-0.52,3,3,0,0,0,.67-0.75,2.07,2.07,0,0,0,.31-1,2.55,2.55,0,0,1-1,0,1.59,1.59,0,0,1-.69-0.34,1.37,1.37,0,0,1-.39-0.57A2.1,2.1,0,0,1,291.69,441Z"/><path d="M304.32,440.72a4.08,4.08,0,0,0,1.21-.14,2.81,2.81,0,0,0,.94-0.46,2.24,2.24,0,0,0,.61-0.71,1.8,1.8,0,0,0,.22-0.88,1.92,1.92,0,0,0-.25-1,1.87,1.87,0,0,0-.69-0.66,3.4,3.4,0,0,0-1.06-.36,8.6,8.6,0,0,0-1.34-.13l-1.12,0v-1.44l3.37-4-5.07-.11v-2.2l8.18,0.17v1.82l-3.53,3.95h0.46a4,4,0,0,1,1.36.27,3.49,3.49,0,0,1,1.17.74,3.65,3.65,0,0,1,.82,1.22,4.21,4.21,0,0,1,.31,1.67,4.05,4.05,0,0,1-.47,2,4.45,4.45,0,0,1-1.24,1.43,5.2,5.2,0,0,1-1.78.84,7.31,7.31,0,0,1-2.07.25,10.35,10.35,0,0,1-1.81-.2,8.88,8.88,0,0,1-1.75-.54l0.7-2.14a2.82,2.82,0,0,0,.49.21l0.7,0.22a7.7,7.7,0,0,0,.8.18A5.7,5.7,0,0,0,304.32,440.72Z"/><path d="M313.79,444.88a6.76,6.76,0,0,0,1.48-.51,6.14,6.14,0,0,0,1.72-1.2,6.72,6.72,0,0,0,1.41-2A7.32,7.32,0,0,0,319,438a8.16,8.16,0,0,0-.55-3.21,6.84,6.84,0,0,0-1.35-2.11,6,6,0,0,0-1.69-1.24,8.58,8.58,0,0,0-1.59-.6l0.48-2.13a10.1,10.1,0,0,1,2.73,1,8.29,8.29,0,0,1,2.35,1.85,8.84,8.84,0,0,1,1.63,2.77,10.47,10.47,0,0,1,.61,3.72,10.32,10.32,0,0,1-.61,3.71,8.33,8.33,0,0,1-1.63,2.7,7.83,7.83,0,0,1-2.35,1.75,9.19,9.19,0,0,1-2.73.84Z"/><path d="M610.4,417.55a4.91,4.91,0,0,1-.37,1.88,5.68,5.68,0,0,1-1,1.62,5.83,5.83,0,0,1-1.52,1.22,5.57,5.57,0,0,1-1.9.66,5.37,5.37,0,0,1-1.94,0,3.61,3.61,0,0,1-1.58-.75,3.83,3.83,0,0,1-1.07-1.5,5.78,5.78,0,0,1-.4-2.26,9.94,9.94,0,0,1,.69-3.71,12.18,12.18,0,0,1,1.76-3.08,11.52,11.52,0,0,1,2.41-2.29,9.51,9.51,0,0,1,2.64-1.34l0.58,2a9.12,9.12,0,0,0-3.6,2.3,8.22,8.22,0,0,0-1.2,1.61,5.86,5.86,0,0,0-.67,1.72,3.82,3.82,0,0,1,1.19-1,4.84,4.84,0,0,1,1.75-.62,4.53,4.53,0,0,1,1.67,0,3,3,0,0,1,2.24,1.84A4.38,4.38,0,0,1,610.4,417.55Zm-2.5.49a1.76,1.76,0,0,0-.65-1.54,2.31,2.31,0,0,0-1.74-.29,3.27,3.27,0,0,0-1.43.58,3.19,3.19,0,0,0-.93,1,3.44,3.44,0,0,0,0,.5c0,0.18,0,.32,0,0.43a2.49,2.49,0,0,0,.16.9,1.76,1.76,0,0,0,1.21,1.1,2.4,2.4,0,0,0,1,0,2.75,2.75,0,0,0,.9-0.31,3.17,3.17,0,0,0,.77-0.59,2.9,2.9,0,0,0,.55-0.82A2.36,2.36,0,0,0,607.9,418Z"/></svg>