<svg id="Layer_1" data-name="Layer 1" xmlns="http://www.w3.org/2000/svg" viewBox="0 0 720 576"><defs><style>.cls-1,.cls-2,.cls-4,.cls-6{fill:#231f20;}.cls-1,.cls-3{stroke:#231f20;}.cls-1,.cls-6{stroke-miterlimit:10;}.cls-1,.cls-2,.cls-3{stroke-width:2px;}.cls-2{stroke:#000;}.cls-2,.cls-3{stroke-linecap:round;stroke-linejoin:round;}.cls-3,.cls-5{fill:#fff;}.cls-6{stroke:#fff;}</style></defs><title>Hanoi_Tower_Set_1</title><path class="cls-1" d="M654.45,506.49c0-.14,0-0.29,0-0.43s0-.29,0-0.43V453.84H62.62s-0.23,51.74-.23,52.22c0,2.67,2.12,5.24,6.08,7.71,13.87,8.61,50.58,16.11,101.74,21.48s116.73,8.59,188.22,8.59c81.71,0,155.68-4.21,209.24-11,26.78-3.41,48.45-7.46,63.44-12,7.5-2.25,13.32-4.62,17.29-7.08,3.38-2.1,5.41-4.29,5.94-6.55h0.1v-0.73Z"/><ellipse class="cls-2" cx="358.44" cy="454.92" rx="295.87" ry="37.63"/><path class="cls-3" d="M654.45,455c0-.14,0-0.29,0-0.43s0-.29,0-0.43V402.36H62.62s-0.23,51.74-.23,52.22c0,2.67,2.12,5.24,6.08,7.71,13.87,8.61,50.58,16.11,101.74,21.48s116.73,8.59,188.22,8.59c81.71,0,155.68-4.21,209.24-11,26.78-3.41,48.45-7.46,63.44-12,7.5-2.25,13.32-4.62,17.29-7.08,3.38-2.1,5.41-4.29,5.94-6.55h0.1V455Z"/><ellipse class="cls-3" cx="358.44" cy="403.44" rx="295.87" ry="37.63"/><path class="cls-3" d="M654.45,403.53c0-.14,0-0.29,0-0.43s0-.29,0-0.43V350.88H62.62s-0.23,51.74-.23,52.22c0,2.67,2.12,5.24,6.08,7.71,13.87,8.61,50.58,16.11,101.74,21.48s116.73,8.59,188.22,8.59c81.71,0,155.68-4.21,209.24-11,26.78-3.41,48.45-7.46,63.44-12,7.5-2.25,13.32-4.62,17.29-7.08,3.38-2.1,5.41-4.29,5.94-6.55h0.1v-0.73Z"/><ellipse class="cls-3" cx="358.44" cy="351.97" rx="295.87" ry="37.63"/><path class="cls-4" d="M358.43,360.22c-16,0-29-3.75-30.2-8.61h-0.08l0-.5V8.27h60.63V351.6h-0.12C387.41,356.47,374.41,360.22,358.43,360.22Z"/><path class="cls-5" d="M388.26,8.77V351.1h0c-0.49,4.78-13.63,8.61-29.79,8.61s-29.3-3.83-29.79-8.61h0v-0.21s0,0,0-.06,0,0,0-.06V8.77h59.63m1-1H327.63v343s0,0.07,0,.11v1.27h0.23c2,5.6,16.84,8.61,30.58,8.61s28.6-3,30.58-8.61h0.21l0-1V7.77h0Z"/><ellipse class="cls-6" cx="358.43" cy="8.89" rx="29.81" ry="8.89"/><path class="cls-4" d="M122.81,407.41a5.66,5.66,0,0,1-2.2.77,9.31,9.31,0,0,1-2.63,0,8.14,8.14,0,0,1-2.64-.81,6.54,6.54,0,0,1-1.95-1.5,6.28,6.28,0,0,1-1.2-2.09,7.69,7.69,0,0,1-.41-2.54,6,6,0,0,1,.48-2.51A4.45,4.45,0,0,1,113.6,397a4.88,4.88,0,0,1,2-.9,7.52,7.52,0,0,1,2.54,0,10.12,10.12,0,0,1,2.4.63,12.89,12.89,0,0,1,1.72.81v4l-2.52-.34v-2.12a6.9,6.9,0,0,0-1.42-.36,4.14,4.14,0,0,0-1.27,0,2.58,2.58,0,0,0-1.92,1.42,3.26,3.26,0,0,0-.31,1.5,3.85,3.85,0,0,0,.25,1.39,3.89,3.89,0,0,0,.71,1.18,3.93,3.93,0,0,0,1.13.88,4.49,4.49,0,0,0,1.5.47,5.09,5.09,0,0,0,2.14-.07,7.37,7.37,0,0,0,1.25-.47Z"/><path class="cls-4" d="M124.85,403a6.65,6.65,0,0,1,.44-2.52,4.4,4.4,0,0,1,1.24-1.74,4.48,4.48,0,0,1,1.91-.93,7,7,0,0,1,2.49-.07,7.81,7.81,0,0,1,2.58.77,6.37,6.37,0,0,1,1.91,1.48,6.11,6.11,0,0,1,1.18,2.07,7.83,7.83,0,0,1,.4,2.54,6.68,6.68,0,0,1-.44,2.52,4.32,4.32,0,0,1-3.15,2.69,7,7,0,0,1-2.49.08,7.76,7.76,0,0,1-2.58-.78,6.38,6.38,0,0,1-1.91-1.49,6.14,6.14,0,0,1-1.18-2.08A7.84,7.84,0,0,1,124.85,403Zm3.07,0.41a4.85,4.85,0,0,0,.21,1.43,4,4,0,0,0,.6,1.21,3.27,3.27,0,0,0,.94.87,3.16,3.16,0,0,0,1.26.43,2.6,2.6,0,0,0,2.17-.57,3.33,3.33,0,0,0,.84-2.58,4.44,4.44,0,0,0-.78-2.67,3.11,3.11,0,0,0-2.22-1.27,3.41,3.41,0,0,0-1.19,0,2,2,0,0,0-1,.51,2.6,2.6,0,0,0-.63,1A4.7,4.7,0,0,0,127.92,403.45Z"/><path class="cls-4" d="M138.07,399l4,0.5,0.34,1.56h0.09A3.81,3.81,0,0,1,144,400a4.49,4.49,0,0,1,2.36-.26,5.8,5.8,0,0,1,1.59.42,3.57,3.57,0,0,1,1.27.91,4.29,4.29,0,0,1,.84,1.54,7.37,7.37,0,0,1,.31,2.28c0,2.86,0,4.29,0,7.15l-3-.36c0-2.61,0-3.92,0-6.53a3,3,0,0,0-.63-2.1,2.48,2.48,0,0,0-1.59-.82,2.41,2.41,0,0,0-1.55.3,2.08,2.08,0,0,0-1,1.11c0,3,0,4.47,0,7.45l-3-.37c0-3.59,0-5.38,0-9l-1.65-.21V399Z"/><path class="cls-4" d="M164.08,412.52a5.82,5.82,0,0,1-2.2.82,9.36,9.36,0,0,1-2.64.06,8,8,0,0,1-2.65-.74,6.33,6.33,0,0,1-2-1.46,6.08,6.08,0,0,1-1.2-2.06,7.58,7.58,0,0,1-.41-2.53,6.09,6.09,0,0,1,.48-2.52,4.6,4.6,0,0,1,1.34-1.75,5,5,0,0,1,2-.95,7.57,7.57,0,0,1,2.55-.11,10,10,0,0,1,2.41.57,12.59,12.59,0,0,1,1.72.77v4l-2.52-.28v-2.12a6.82,6.82,0,0,0-1.42-.32,4.17,4.17,0,0,0-1.27,0,2.72,2.72,0,0,0-1.12.49,2.76,2.76,0,0,0-.8,1,3.3,3.3,0,0,0-.31,1.51,3.74,3.74,0,0,0,2.1,3.41,4.41,4.41,0,0,0,1.5.44,5.13,5.13,0,0,0,2.15-.12,7.56,7.56,0,0,0,1.25-.5Z"/><path class="cls-4" d="M167.38,403.27a11.52,11.52,0,0,1,2.12-.48,11.86,11.86,0,0,1,2.86,0,6.73,6.73,0,0,1,2,.5,3.92,3.92,0,0,1,1.35,1,3.55,3.55,0,0,1,.75,1.34,5.8,5.8,0,0,1,.23,1.68q0,1.17-.08,2t-0.08,1.46a10,10,0,0,0,0,1.09c0,0.21.05,0.43,0.07,0.63l1.49,0.16c0,1,0,1.52,0,2.53l-3.85-.4-0.3-1.6H173.9a3.39,3.39,0,0,1-1.3,1.09,4.09,4.09,0,0,1-2.28.27,4.29,4.29,0,0,1-2.72-1.22,3.51,3.51,0,0,1-1-2.55,3.42,3.42,0,0,1,.35-1.63,2.53,2.53,0,0,1,1-1,4.4,4.4,0,0,1,1.62-.49,9.3,9.3,0,0,1,2.11,0q0.41,0,.87.14l1.12,0.21a2.3,2.3,0,0,0,0-.46V407a1.63,1.63,0,0,0-.5-1.31,2.67,2.67,0,0,0-1.48-.54,6.7,6.7,0,0,0-2.1.07,12.19,12.19,0,0,0-1.57.43Zm3.91,8.87a2.57,2.57,0,0,0,1.63-.23,2.3,2.3,0,0,0,.79-0.78v-1.38l-0.68-.18a8.14,8.14,0,0,0-1-.16,4.65,4.65,0,0,0-.86,0,2.65,2.65,0,0,0-.77.17,1.29,1.29,0,0,0-.54.39,1,1,0,0,0-.2.64,1.45,1.45,0,0,0,.37,1A1.94,1.94,0,0,0,171.29,412.13Z"/><path class="cls-4" d="M191.63,415.38a5.92,5.92,0,0,1-2.21.86,9.39,9.39,0,0,1-2.64.1,7.94,7.94,0,0,1-2.65-.7,6.19,6.19,0,0,1-2-1.43,6,6,0,0,1-1.21-2,7.52,7.52,0,0,1-.41-2.53,6.14,6.14,0,0,1,.48-2.53,4.71,4.71,0,0,1,1.34-1.77,5.14,5.14,0,0,1,2-1,7.61,7.61,0,0,1,2.55-.15,9.91,9.91,0,0,1,2.41.53,12.39,12.39,0,0,1,1.72.74v4l-2.53-.24v-2.12a6.76,6.76,0,0,0-1.42-.3,4.18,4.18,0,0,0-1.28.07,2.77,2.77,0,0,0-1.13.51,2.82,2.82,0,0,0-.8,1,3.33,3.33,0,0,0-.31,1.51,3.76,3.76,0,0,0,.25,1.38,3.69,3.69,0,0,0,.71,1.15,3.73,3.73,0,0,0,1.14.84,4.37,4.37,0,0,0,1.5.41,5.16,5.16,0,0,0,2.15-.16,7.71,7.71,0,0,0,1.25-.52Z"/><path class="cls-4" d="M195.54,407.88l-2.28-.21c0-1,0-1.52,0-2.53l2.28,0.21v-2.62l3-.57c0,1.39,0,2.08,0,3.47l6,0.54v2.53l-6-.54v3.29a4.24,4.24,0,0,0,.67,2.63,2.54,2.54,0,0,0,1.86,1,3.81,3.81,0,0,0,2-.35,4.57,4.57,0,0,0,.74-0.44l0.61-.45,1.38,2.19a3.91,3.91,0,0,1-1,.75,7.47,7.47,0,0,1-2.68.88,6.61,6.61,0,0,1-1.45,0,5.43,5.43,0,0,1-3.87-1.79,7.19,7.19,0,0,1-1.3-4.69C195.54,409.85,195.54,409.19,195.54,407.88Z"/><path class="cls-4" d="M487.35,403.59l2.62-.2-0.83,7.33-1.79.13v-7.27Zm5-.37,2.62-.2-0.83,7.33-1.79.14v-7.27Z"/><path class="cls-4" d="M502.4,409h-0.12l0.14,1.9v7.61l-3,.24v-16.1l2.76-.23,5.57,9.38h0.11l-0.21-1.92V402l3-.26v16.1l-2.76.24Z"/><path class="cls-4" d="M514,406.8a13.73,13.73,0,0,1,2.13-.9,12.61,12.61,0,0,1,2.86-.56,6.18,6.18,0,0,1,2,.1,3,3,0,0,1,1.36.69,2.74,2.74,0,0,1,.75,1.19,5.34,5.34,0,0,1,.23,1.63q0,1.17-.08,2t-0.08,1.48a9.75,9.75,0,0,0,0,1.08c0,0.21.05,0.42,0.07,0.61l1.49-.14v2.53l-3.86.36-0.3-1.54h-0.11a4.54,4.54,0,0,1-1.3,1.35,4.65,4.65,0,0,1-2.28.73,3.6,3.6,0,0,1-2.72-.67,2.88,2.88,0,0,1-1-2.35,3.87,3.87,0,0,1,.35-1.7,3.38,3.38,0,0,1,1-1.24,5.4,5.4,0,0,1,1.62-.81,9.86,9.86,0,0,1,2.11-.41c0.27,0,.56,0,0.87,0h1.12a2.44,2.44,0,0,0,0-.46V409.3a1.34,1.34,0,0,0-.5-1.21,2.31,2.31,0,0,0-1.48-.24,7.26,7.26,0,0,0-2.1.49,14.8,14.8,0,0,0-1.57.74Zm3.91,8.09a3,3,0,0,0,1.64-.55,3.1,3.1,0,0,0,.8-0.94V412l-0.68,0a7.85,7.85,0,0,0-1,0,4.9,4.9,0,0,0-.86.16,3.14,3.14,0,0,0-.77.32,1.72,1.72,0,0,0-.55.5,1.17,1.17,0,0,0-.2.69,1.2,1.2,0,0,0,.37,1A1.65,1.65,0,0,0,517.92,414.89Z"/><path class="cls-4" d="M528.4,407.21l-2.28.22V404.9l2.28-.22v-2.62l3-1.14v3.47l6-.61v2.53l-6,.61v3.29a3.68,3.68,0,0,0,.67,2.5,2.09,2.09,0,0,0,1.86.61A4.18,4.18,0,0,0,535,413a4.77,4.77,0,0,0,.91-0.47,6,6,0,0,0,.74-0.58l0.61-.57,1.38,1.93a5.16,5.16,0,0,1-1,.94,9.49,9.49,0,0,1-1.26.8,8.81,8.81,0,0,1-1.41.59,7,7,0,0,1-1.45.31,4.54,4.54,0,0,1-3.87-1.05q-1.3-1.31-1.3-4.44v-3.29Z"/><path class="cls-4" d="M539.51,399l4.64-.49v5.89h0.09a4.53,4.53,0,0,1,1.47-1.33,5.4,5.4,0,0,1,2.16-.67,5.23,5.23,0,0,1,1.61.05,2.65,2.65,0,0,1,1.26.62,3.1,3.1,0,0,1,.83,1.35,7,7,0,0,1,.3,2.21v7.15l-3,.33v-6.53a2.61,2.61,0,0,0-.6-2,1.88,1.88,0,0,0-1.56-.45,2.88,2.88,0,0,0-1.56.69,3.26,3.26,0,0,0-1,1.43v7.34l-3,.32V401.31l-1.65.17V399Z"/><path class="cls-4" d="M555.35,402.62a14,14,0,0,1,2.12-1,12.75,12.75,0,0,1,2.86-.63,6.14,6.14,0,0,1,2,.05,2.93,2.93,0,0,1,1.35.66,2.65,2.65,0,0,1,.75,1.18,5.3,5.3,0,0,1,.23,1.63q0,1.17-.08,2T564.53,408a9.73,9.73,0,0,0,0,1.08c0,0.21.05,0.42,0.07,0.61l1.49-.18v2.53l-3.85.46L562,411h-0.11a4.48,4.48,0,0,1-3.58,2.16,3.53,3.53,0,0,1-2.71-.61,2.81,2.81,0,0,1-1-2.32,3.93,3.93,0,0,1,.35-1.71,3.5,3.5,0,0,1,1-1.27,5.55,5.55,0,0,1,1.62-.85,10,10,0,0,1,2.11-.46c0.27,0,.56,0,0.87-0.05l1.12,0a2.46,2.46,0,0,0,0-.47V405a1.31,1.31,0,0,0-.5-1.2,2.27,2.27,0,0,0-1.48-.21,7.36,7.36,0,0,0-2.1.54,15.22,15.22,0,0,0-1.57.78Zm3.9,8a3,3,0,0,0,1.63-.59,3.21,3.21,0,0,0,.79-1v-1.38l-0.68,0a7.84,7.84,0,0,0-1,.06,5,5,0,0,0-.86.18,3.22,3.22,0,0,0-.77.34,1.78,1.78,0,0,0-.54.51,1.19,1.19,0,0,0-.2.69,1.18,1.18,0,0,0,.37,1A1.62,1.62,0,0,0,559.26,410.61Z"/><path class="cls-4" d="M567.33,400.44l4-.49,0.34,1.48h0.09a5.46,5.46,0,0,1,1.51-1.47,5.68,5.68,0,0,1,4-.82,2.6,2.6,0,0,1,1.27.6,3.12,3.12,0,0,1,.84,1.33,6.66,6.66,0,0,1,.31,2.2v7.15l-3,.38v-6.53a2.47,2.47,0,0,0-.63-1.94,2,2,0,0,0-1.59-.42,3.14,3.14,0,0,0-2.5,2v7.45l-3,.36v-9l-1.65.2v-2.53Z"/><path class="cls-4" d="M597.55,391.94l2.61-.36L599.34,399l-1.79.25v-7.27Zm4.95-.69,2.61-.37-0.82,7.38-1.79.25v-7.27Z"/><path class="cls-4" d="M107.42,455v-2.53l2.7,0.38v-6.44l-2.72-.39v-2.53l2.72,0.39v-0.64a3.91,3.91,0,0,1,.38-1.81,3,3,0,0,1,1-1.15,3.49,3.49,0,0,1,1.43-.55,5.74,5.74,0,0,1,1.68,0,11.44,11.44,0,0,1,2.6.62,7.75,7.75,0,0,1,1.68.88L118,443.37a12,12,0,0,0-1.13-.61,5.39,5.39,0,0,0-1.57-.42,2,2,0,0,0-1.73.32,2.24,2.24,0,0,0-.49,1.62l4.81,0.66v2.53l-4.81-.66v6.44l4.83,0.66v2.53C113.72,455.87,111.62,455.58,107.42,455Z"/><path class="cls-4" d="M127.09,446.17l4.26,0.55v9l1.74,0.22v2.53l-3.62-.47-0.53-1.77h-0.09a3.35,3.35,0,0,1-1.58,1.24,4.48,4.48,0,0,1-2.34.27,5.64,5.64,0,0,1-1.59-.44,3.43,3.43,0,0,1-1.23-.92,4.16,4.16,0,0,1-.78-1.53,8.22,8.22,0,0,1-.27-2.29V447.9l-1.31-.18v-2.53l4.28,0.57v6.53a3.85,3.85,0,0,0,.45,2.08,1.88,1.88,0,0,0,1.41.81,2.31,2.31,0,0,0,2.47-1.42v-4.9l-1.28-.17v-2.53Z"/><path class="cls-4" d="M135.27,442.62l4.88,0.61v10.63a5.28,5.28,0,0,0,.44,2.51,1.77,1.77,0,0,0,1.4.86,3.74,3.74,0,0,0,1.17,0,3.91,3.91,0,0,0,.92-0.31l1.12,2.21q-0.39.21-.78,0.38a4.46,4.46,0,0,1-.83.27,5.23,5.23,0,0,1-1,.11,7.49,7.49,0,0,1-1.16-.06,4.89,4.89,0,0,1-3.23-1.5,4.79,4.79,0,0,1-1.08-3.26v-9.66l-1.9-.24v-2.53Z"/><path class="cls-4" d="M149,444.3l4.89,0.57V455.5a5.26,5.26,0,0,0,.44,2.51,1.75,1.75,0,0,0,1.4.85,3.75,3.75,0,0,0,1.17,0,4,4,0,0,0,.92-0.32l1.12,2.2q-0.39.21-.78,0.38a4.5,4.5,0,0,1-.83.27,5.25,5.25,0,0,1-1,.12,7.49,7.49,0,0,1-1.16-.05A4.85,4.85,0,0,1,152,460a4.76,4.76,0,0,1-1.08-3.25v-9.66l-1.9-.22V444.3Z"/><path class="cls-4" d="M162.59,464.65c4.08,0.45,6.12.67,10.19,1.1v2.46c-4.08-.43-6.12-0.65-10.19-1.1v-2.46Z"/><path class="cls-4" d="M174.84,451.77l4,0.41,0.34,1.55h0.09a4,4,0,0,1,1.52-1.13,4.54,4.54,0,0,1,2.37-.32,5.73,5.73,0,0,1,1.6.39,3.47,3.47,0,0,1,1.28.88,4.17,4.17,0,0,1,.84,1.52,7.29,7.29,0,0,1,.31,2.27v7.15l-3-.29v-6.53a3,3,0,0,0-.63-2.09,2.42,2.42,0,0,0-1.6-.78,2.45,2.45,0,0,0-1.55.34,2.15,2.15,0,0,0-1,1.13v7.45l-3-.3v-9l-1.65-.17v-2.53Z"/><path class="cls-4" d="M190.42,454.09a11.66,11.66,0,0,1,2.13-.51,11.89,11.89,0,0,1,2.86,0,6.67,6.67,0,0,1,2,.47,3.84,3.84,0,0,1,1.36.94,3.48,3.48,0,0,1,.75,1.33,5.75,5.75,0,0,1,.23,1.68q0,1.17-.08,2t-0.08,1.46a10,10,0,0,0,0,1.09c0,0.21.05,0.43,0.07,0.63l1.49,0.13v2.53l-3.86-.35-0.3-1.59h-0.11a3.47,3.47,0,0,1-1.3,1.11,4.13,4.13,0,0,1-2.28.31,4.23,4.23,0,0,1-2.72-1.18,3.79,3.79,0,0,1-.65-4.17,2.59,2.59,0,0,1,1-1.05,4.46,4.46,0,0,1,1.62-.51,9.32,9.32,0,0,1,2.11,0q0.41,0,.87.13l1.12,0.19a2.31,2.31,0,0,0,0-.46v-0.44a1.61,1.61,0,0,0-.5-1.3,2.63,2.63,0,0,0-1.48-.52,6.73,6.73,0,0,0-2.1.1,12.37,12.37,0,0,0-1.57.45Zm3.91,8.81a2.6,2.6,0,0,0,1.64-.25,2.36,2.36,0,0,0,.8-0.79v-1.38l-0.68-.17a8.09,8.09,0,0,0-1-.15,4.65,4.65,0,0,0-.86,0,2.68,2.68,0,0,0-.77.18,1.32,1.32,0,0,0-.55.4,1,1,0,0,0-.2.65,1.43,1.43,0,0,0,.37,1A1.91,1.91,0,0,0,194.33,462.9Z"/><path class="cls-4" d="M207.68,466.36v-7a5.61,5.61,0,0,0-.09-1.12,2.33,2.33,0,0,0-.24-0.69,0.84,0.84,0,0,0-.37-0.35,1.36,1.36,0,0,0-.45-0.12,1.13,1.13,0,0,0-1.17.8v8.33l-2.76-.24v-11.5l2.18,0.19,0.32,1.29h0.07a2.48,2.48,0,0,1,1-1,2.69,2.69,0,0,1,1.56-.29,3.25,3.25,0,0,1,1.45.49,2.19,2.19,0,0,1,.94,1.37,2.28,2.28,0,0,1,1.06-1.14,2.8,2.8,0,0,1,1.54-.3,3.53,3.53,0,0,1,1.12.26,2.2,2.2,0,0,1,.86.68,3.29,3.29,0,0,1,.56,1.23,8,8,0,0,1,.2,1.94V467l-2.76-.22v-7.36a2.5,2.5,0,0,0-.33-1.48,1.12,1.12,0,0,0-.82-0.48,1.21,1.21,0,0,0-.71.14,0.92,0.92,0,0,0-.41.6v8.39Z"/><path class="cls-4" d="M228.23,466.77a3.69,3.69,0,0,1-.77.48,6.9,6.9,0,0,1-1.1.41,8.12,8.12,0,0,1-1.39.26,8.79,8.79,0,0,1-1.61,0,8.14,8.14,0,0,1-2.63-.62,5.76,5.76,0,0,1-3.2-3.37,7.37,7.37,0,0,1-.43-2.57,6.48,6.48,0,0,1,.48-2.62A4.76,4.76,0,0,1,218.9,457a5,5,0,0,1,2-1,7.43,7.43,0,0,1,2.44-.19,7.84,7.84,0,0,1,1.81.37,5.4,5.4,0,0,1,1.71.92,4.74,4.74,0,0,1,1.28,1.6,5.35,5.35,0,0,1,.49,2.43,10.69,10.69,0,0,1-.23,2.12l-8.28-.63a2.8,2.8,0,0,0,.31,1.27,2.74,2.74,0,0,0,.76.89,3.58,3.58,0,0,0,1.08.55,5.57,5.57,0,0,0,1.3.25,6.55,6.55,0,0,0,2.27-.15,4.38,4.38,0,0,0,1.44-.68Zm-5-8.58a3.7,3.7,0,0,0-1.13.08,2.89,2.89,0,0,0-1,.41,2.35,2.35,0,0,0-.7.73,2.28,2.28,0,0,0-.32,1l5.66,0.43A2.48,2.48,0,0,0,223.26,458.19Z"/><path class="cls-4" d="M338.55,456.54l2.63,0-0.83,7.26-1.8,0v-7.27Zm5,0,2.63,0-0.83,7.26h-1.8v-7.27Z"/><path class="cls-4" d="M353.63,463.22h-0.12l0.14,1.91v7.61h-3v-16.1h2.77L359,466.5h0.11l-0.21-1.93v-7.91h3v16.1h-2.77Z"/><path class="cls-4" d="M365.27,462a12.65,12.65,0,0,1,2.13-.72,12.2,12.2,0,0,1,2.87-.32,6.37,6.37,0,0,1,2,.27,3.38,3.38,0,0,1,1.36.81,3.06,3.06,0,0,1,.75,1.26,5.51,5.51,0,0,1,.23,1.65q0,1.17-.08,2t-0.08,1.47a9.84,9.84,0,0,0,0,1.08c0,0.21.05,0.42,0.07,0.62h1.5v2.53l-3.87,0-0.3-1.56h-0.11a4,4,0,0,1-1.31,1.24,4.38,4.38,0,0,1-2.29.53,3.87,3.87,0,0,1-2.73-.91,3.13,3.13,0,0,1-1-2.43,3.66,3.66,0,0,1,.35-1.67,3,3,0,0,1,1-1.15,4.93,4.93,0,0,1,1.63-.67,9.55,9.55,0,0,1,2.12-.23c0.27,0,.56,0,0.87,0l1.12,0.08a2.37,2.37,0,0,0,0-.46v-0.44a1.46,1.46,0,0,0-.5-1.25,2.44,2.44,0,0,0-1.49-.37,7,7,0,0,0-2.11.31,13.57,13.57,0,0,0-1.58.6Zm3.92,8.42a2.77,2.77,0,0,0,1.64-.41,2.74,2.74,0,0,0,.8-0.87v-1.38l-0.68-.1a7.92,7.92,0,0,0-1-.05,4.76,4.76,0,0,0-.87.09,2.91,2.91,0,0,0-.78.26,1.52,1.52,0,0,0-.55.45,1.09,1.09,0,0,0-.2.67,1.3,1.3,0,0,0,.38,1A1.76,1.76,0,0,0,369.2,470.44Z"/><path class="cls-4" d="M379.7,463.66l-2.28,0v-2.53l2.28,0V458.5l3-.89v3.47l6-.09v2.53l-6,.09v3.29a3.92,3.92,0,0,0,.67,2.56,2.27,2.27,0,0,0,1.87.77,4,4,0,0,0,1.13-.17,4.35,4.35,0,0,0,.91-0.39,5.34,5.34,0,0,0,.74-0.52l0.61-.52,1.38,2a4.55,4.55,0,0,1-1,.86,8.53,8.53,0,0,1-1.27.69,8.14,8.14,0,0,1-1.42.47,6.81,6.81,0,0,1-1.45.18,4.91,4.91,0,0,1-3.88-1.38,6.6,6.6,0,0,1-1.3-4.55v-3.29Z"/><path class="cls-4" d="M390.86,456.36l4.66-.09v5.89h0.09a4,4,0,0,1,1.48-1.2,5.1,5.1,0,0,1,2.17-.49,5.37,5.37,0,0,1,1.61.19,3,3,0,0,1,1.27.73,3.46,3.46,0,0,1,.83,1.42,7.17,7.17,0,0,1,.3,2.23v7.15l-3,.07v-6.53a2.79,2.79,0,0,0-.6-2,2,2,0,0,0-1.57-.59,2.66,2.66,0,0,0-1.57.55,2.89,2.89,0,0,0-1,1.34v7.34l-3,.06V458.86l-1.66,0v-2.53Z"/><path class="cls-4" d="M406.77,461.38a12.94,12.94,0,0,1,2.13-.77,12.3,12.3,0,0,1,2.87-.38,6.31,6.31,0,0,1,2,.23,3.27,3.27,0,0,1,1.36.77,3,3,0,0,1,.75,1.24,5.46,5.46,0,0,1,.23,1.65q0,1.17-.08,2T416,467.59a9.82,9.82,0,0,0,0,1.08c0,0.21.05,0.42,0.07,0.62l1.5,0v2.53l-3.87.12-0.3-1.56h-0.11a4.15,4.15,0,0,1-1.31,1.27,4.45,4.45,0,0,1-2.29.58,3.79,3.79,0,0,1-2.73-.84,3.06,3.06,0,0,1-1-2.41,3.72,3.72,0,0,1,.35-1.68,3.09,3.09,0,0,1,1-1.18,5.05,5.05,0,0,1,1.63-.71,9.63,9.63,0,0,1,2.12-.28c0.27,0,.56,0,0.87,0l1.12,0.06a2.39,2.39,0,0,0,0-.46v-0.44a1.43,1.43,0,0,0-.5-1.24,2.4,2.4,0,0,0-1.49-.33,7,7,0,0,0-2.11.36,13.91,13.91,0,0,0-1.58.64Zm3.92,8.33a2.58,2.58,0,0,0,2.44-1.34V467l-0.68-.08a7.88,7.88,0,0,0-1,0,4.79,4.79,0,0,0-.87.11,3,3,0,0,0-.78.28,1.57,1.57,0,0,0-.55.46,1.11,1.11,0,0,0-.2.67,1.28,1.28,0,0,0,.38,1A1.73,1.73,0,0,0,410.69,469.71Z"/><path class="cls-4" d="M418.8,460.23l4-.14,0.35,1.51h0.09a4.82,4.82,0,0,1,1.52-1.34,5,5,0,0,1,2.37-.64,5.37,5.37,0,0,1,1.6.17,2.9,2.9,0,0,1,1.28.71,3.49,3.49,0,0,1,.84,1.4,6.87,6.87,0,0,1,.31,2.23v7.15l-3,.12v-6.53a2.65,2.65,0,0,0-.63-2,2.12,2.12,0,0,0-1.6-.56,2.73,2.73,0,0,0-1.55.55,2.61,2.61,0,0,0-1,1.27v7.45l-3,.11v-9l-1.66.06v-2.53Z"/><path class="cls-4" d="M435.37,455l2.63-.12-0.83,7.3-1.8.08V455Zm5-.22,2.63-.12L442.14,462l-1.8.08v-7.27Z"/><path class="cls-4" d="M451.22,468.82a1.74,1.74,0,0,1,.51-1.3,2,2,0,0,1,1.34-.54,1.87,1.87,0,0,1,1.38.4,1.58,1.58,0,0,1,.51,1.25,1.79,1.79,0,0,1-.51,1.31,2,2,0,0,1-1.38.56,1.77,1.77,0,0,1-1.34-.41A1.61,1.61,0,0,1,451.22,468.82Z"/><path class="cls-4" d="M472.57,468a7.12,7.12,0,0,1-2.21,1.21,10,10,0,0,1-2.65.52,7.32,7.32,0,0,1-2.66-.28,5,5,0,0,1-2-1.11,4.83,4.83,0,0,1-1.21-1.85,7,7,0,0,1-.41-2.46,6.68,6.68,0,0,1,.48-2.6,5.89,5.89,0,0,1,1.35-2,6.3,6.3,0,0,1,2-1.31,8.15,8.15,0,0,1,2.56-.56,9.31,9.31,0,0,1,2.42.15,10.76,10.76,0,0,1,1.73.47v4l-2.53.16v-2.12a6.4,6.4,0,0,0-1.43-.07,4.47,4.47,0,0,0-1.28.27,3.38,3.38,0,0,0-1.13.69,3.55,3.55,0,0,0-.81,1.12,3.64,3.64,0,0,0-.31,1.56,3.44,3.44,0,0,0,.25,1.34,2.9,2.9,0,0,0,1.85,1.69,4,4,0,0,0,1.51.17,5.58,5.58,0,0,0,2.15-.5,9.4,9.4,0,0,0,1.26-.72Z"/><path class="cls-4" d="M474.62,463.21a7.3,7.3,0,0,1,.44-2.6,5.7,5.7,0,0,1,3.16-3.3,7.67,7.67,0,0,1,2.5-.57,7,7,0,0,1,2.59.26,4.88,4.88,0,0,1,1.92,1.09,4.7,4.7,0,0,1,1.19,1.83,7.1,7.1,0,0,1,.4,2.46,7.35,7.35,0,0,1-.44,2.61,5.72,5.72,0,0,1-3.16,3.32,7.6,7.6,0,0,1-2.5.58,7,7,0,0,1-2.59-.26,4.89,4.89,0,0,1-1.92-1.1,4.72,4.72,0,0,1-1.19-1.84A7.12,7.12,0,0,1,474.62,463.21Zm3.08-.2a4.42,4.42,0,0,0,.21,1.39,3.16,3.16,0,0,0,.6,1.09,2.44,2.44,0,0,0,.94.68,2.79,2.79,0,0,0,1.27.18,3.13,3.13,0,0,0,2.17-1,3.94,3.94,0,0,0,.84-2.75,3.76,3.76,0,0,0-.78-2.51,2.52,2.52,0,0,0-2.23-.82,3.72,3.72,0,0,0-1.2.28,2.59,2.59,0,0,0-1,.7,3.38,3.38,0,0,0-.63,1.15A5.11,5.11,0,0,0,477.7,463Z"/><path class="cls-4" d="M487.9,456.54l4-.3,0.35,1.49h0.09a5.15,5.15,0,0,1,3.89-2.14,5.3,5.3,0,0,1,1.6.11,2.76,2.76,0,0,1,1.28.66,3.32,3.32,0,0,1,.84,1.37,6.77,6.77,0,0,1,.31,2.22v7.15l-3,.24V460.8a2.57,2.57,0,0,0-.63-2,2,2,0,0,0-1.6-.5,2.83,2.83,0,0,0-1.55.61,2.75,2.75,0,0,0-1,1.3v7.45l-3,.22c0-3.59,0-5.38,0-9l-1.66.12v-2.53Z"/><path class="cls-4" d="M514,464.85a7.32,7.32,0,0,1-2.21,1.26,10.09,10.09,0,0,1-2.64.58,7.25,7.25,0,0,1-2.66-.21,4.86,4.86,0,0,1-2-1.07,4.68,4.68,0,0,1-1.21-1.82,6.88,6.88,0,0,1-.41-2.45,6.78,6.78,0,0,1,.48-2.62,6.08,6.08,0,0,1,1.35-2,6.49,6.49,0,0,1,2-1.35,8.26,8.26,0,0,1,2.55-.62,9.25,9.25,0,0,1,2.41.09,10.54,10.54,0,0,1,1.73.43v4l-2.53.22V457.2a6.36,6.36,0,0,0-1.43,0,4.52,4.52,0,0,0-1.28.3,3.48,3.48,0,0,0-1.13.72,3.58,3.58,0,0,0-1.12,2.7,3.4,3.4,0,0,0,.25,1.34,2.81,2.81,0,0,0,1.85,1.65,4,4,0,0,0,1.51.14,5.65,5.65,0,0,0,2.15-.55,9.67,9.67,0,0,0,1.25-.75Z"/><path class="cls-4" d="M517.29,454.94a13.71,13.71,0,0,1,2.13-.9,12.6,12.6,0,0,1,2.86-.56,6.18,6.18,0,0,1,2,.1,3,3,0,0,1,1.36.69,2.74,2.74,0,0,1,.75,1.19,5.34,5.34,0,0,1,.23,1.63q0,1.17-.08,2t-0.08,1.48a9.75,9.75,0,0,0,0,1.08c0,0.21.05,0.42,0.07,0.61l1.49-.14v2.53l-3.86.36-0.3-1.54h-0.11a4.55,4.55,0,0,1-1.3,1.35,4.65,4.65,0,0,1-2.28.73,3.6,3.6,0,0,1-2.72-.67,2.88,2.88,0,0,1-1-2.35,3.87,3.87,0,0,1,.35-1.7,3.38,3.38,0,0,1,1-1.24,5.4,5.4,0,0,1,1.62-.81,9.87,9.87,0,0,1,2.11-.41,8.66,8.66,0,0,1,.87,0h1.12a2.44,2.44,0,0,0,0-.46v-0.44a1.34,1.34,0,0,0-.5-1.21,2.31,2.31,0,0,0-1.48-.24,7.26,7.26,0,0,0-2.1.49,14.8,14.8,0,0,0-1.57.74ZM521.2,463a3,3,0,0,0,1.64-.55,3.1,3.1,0,0,0,.8-0.94v-1.38l-0.68,0a7.82,7.82,0,0,0-1,0,4.91,4.91,0,0,0-.86.16,3.14,3.14,0,0,0-.77.32,1.72,1.72,0,0,0-.55.5,1.17,1.17,0,0,0-.2.69,1.2,1.2,0,0,0,.37,1A1.65,1.65,0,0,0,521.2,463Z"/><path class="cls-4" d="M531.68,455.34l-2.28.22V453l2.28-.22v-2.62l3-1.15c0,1.39,0,2.08,0,3.47l6-.61v2.53l-6,.61v3.29a3.68,3.68,0,0,0,.67,2.5,2.09,2.09,0,0,0,1.86.61,4.18,4.18,0,0,0,1.13-.26,4.77,4.77,0,0,0,.91-0.47,6,6,0,0,0,.74-0.58l0.61-.57,1.38,1.93a5.15,5.15,0,0,1-1,.94,9.5,9.5,0,0,1-1.26.8,8.81,8.81,0,0,1-1.41.59,7.05,7.05,0,0,1-1.45.31,4.54,4.54,0,0,1-3.87-1.05q-1.3-1.31-1.3-4.44v-3.29Z"/><path class="cls-4" d="M553.24,466.95a9.76,9.76,0,0,1-3.12-.67,7.84,7.84,0,0,1-2.69-1.76,8.46,8.46,0,0,1-1.87-2.93,11.39,11.39,0,0,1-.7-4.2,12.63,12.63,0,0,1,.7-4.34,11.47,11.47,0,0,1,1.87-3.36,10.9,10.9,0,0,1,2.69-2.38,12.74,12.74,0,0,1,3.12-1.42l0.55,2.4a10.75,10.75,0,0,0-1.82.86,7.79,7.79,0,0,0-1.94,1.61,8.91,8.91,0,0,0-1.55,2.57,9.88,9.88,0,0,0-.63,3.75,8,8,0,0,0,.67,3.49,6.78,6.78,0,0,0,1.62,2.21,6.16,6.16,0,0,0,2,1.19,7.17,7.17,0,0,0,1.7.42Z"/><path class="cls-4" d="M559.58,445.26l2.62-.3-0.83,7.36-1.79.2v-7.27Zm5-.57,2.61-.31-0.82,7.36-1.79.21v-7.27Z"/><path class="cls-4" d="M587.09,441.92l2.61-.34L588.88,449l-1.79.23C587.09,446.28,587.09,444.83,587.09,441.92Zm4.95-.65,2.61-.35-0.82,7.38-1.79.24v-7.27Z"/><path class="cls-4" d="M600.58,458.59a9.07,9.07,0,0,0,1.69-.84,8.73,8.73,0,0,0,2-1.67,9.53,9.53,0,0,0,1.61-2.61,9.21,9.21,0,0,0,.66-3.66,8.74,8.74,0,0,0-.63-3.59,6.37,6.37,0,0,0-1.55-2.19,5.52,5.52,0,0,0-1.93-1.13,8.55,8.55,0,0,0-1.82-.41l0.55-2.54a10.2,10.2,0,0,1,3.11.65,7.64,7.64,0,0,1,2.68,1.72,8.3,8.3,0,0,1,1.87,2.9,11.25,11.25,0,0,1,.7,4.17,12.87,12.87,0,0,1-.7,4.38,11.68,11.68,0,0,1-1.87,3.39,11.15,11.15,0,0,1-2.68,2.42,12.13,12.13,0,0,1-3.11,1.44Z"/></svg>