<svg id="Layer_1" data-name="Layer 1" xmlns="http://www.w3.org/2000/svg" viewBox="0 0 720 576"><defs><style>.cls-1,.cls-2,.cls-4,.cls-6{fill:#231f20;}.cls-1,.cls-3{stroke:#231f20;}.cls-1,.cls-6{stroke-miterlimit:10;}.cls-2{stroke:#000;}.cls-2,.cls-3{stroke-linecap:round;stroke-linejoin:round;stroke-width:2px;}.cls-3,.cls-5{fill:#fff;}.cls-6{stroke:#fff;}</style></defs><title>Hanoi_Tower_Set_4</title><path class="cls-1" d="M656,506.49c0-.14,0-0.29,0-0.43s0-.29,0-0.43V453.84H64.18s-0.23,51.74-.23,52.22c0,2.67,2.12,5.24,6.08,7.71,13.87,8.61,50.58,16.11,101.74,21.48S288.5,543.84,360,543.84c81.71,0,155.68-4.21,209.24-11,26.78-3.41,48.45-7.46,63.44-12,7.5-2.25,13.32-4.62,17.29-7.08,3.38-2.1,5.41-4.29,5.94-6.55H656v-0.73Z"/><ellipse class="cls-2" cx="360" cy="454.92" rx="295.87" ry="37.63"/><path class="cls-3" d="M656,455c0-.14,0-0.29,0-0.43s0-.29,0-0.43V402.36H64.18s-0.23,51.74-.23,52.22c0,2.67,2.12,5.24,6.08,7.71,13.87,8.61,50.58,16.11,101.74,21.48S288.5,492.36,360,492.36c81.71,0,155.68-4.21,209.24-11,26.78-3.41,48.45-7.46,63.44-12,7.5-2.25,13.32-4.62,17.29-7.08,3.38-2.1,5.41-4.29,5.94-6.55H656V455Z"/><ellipse class="cls-3" cx="360" cy="403.44" rx="295.87" ry="37.63"/><path class="cls-4" d="M360,412.22c-16,0-29-3.75-30.2-8.61h-0.08l0-.5V8.27h60.63V403.6H390.2C389,408.47,376,412.22,360,412.22Z"/><path class="cls-5" d="M389.82,8.77V403.1h0c-0.49,4.78-13.63,8.61-29.79,8.61s-29.3-3.83-29.79-8.61h0v-0.21s0,0,0-.06,0,0,0-.06V8.77h59.63m1-1H329.19v395s0,0.07,0,.11v1.27h0.23c2,5.6,16.84,8.61,30.58,8.61s28.6-3,30.58-8.61h0.21l0-1V7.77h0Z"/><ellipse class="cls-6" cx="359.99" cy="8.89" rx="29.81" ry="8.89"/><path d="M76.42,448.66v-2.31l2.46,0.47v-5.88l-2.48-.47c0-.92,0-1.39,0-2.31l2.48,0.47V438a3.48,3.48,0,0,1,.34-1.64,2.6,2.6,0,0,1,.91-1,3,3,0,0,1,1.3-.44A5.19,5.19,0,0,1,83,435a10.79,10.79,0,0,1,2.36.68,7.51,7.51,0,0,1,1.53.88l-0.79,1.93a11.86,11.86,0,0,0-1-.61,5.08,5.08,0,0,0-1.43-.45,1.77,1.77,0,0,0-1.57.22,2,2,0,0,0-.45,1.46L86,439.94v2.31l-4.37-.81v5.88L86,448.14v2.31C82.15,449.74,80.24,449.39,76.42,448.66Z"/><path d="M89.31,441.27a10,10,0,0,1,1.93-.3,10.79,10.79,0,0,1,2.59.19,6.43,6.43,0,0,1,1.84.59,4,4,0,0,1,1.23,1,3.56,3.56,0,0,1,.68,1.27,5.48,5.48,0,0,1,.21,1.55q0,1.07-.07,1.81t-0.07,1.33a9.25,9.25,0,0,0,0,1c0,0.2,0,.39.06,0.58l1.35,0.24v2.31l-3.5-.62-0.27-1.48-0.1,0a2.79,2.79,0,0,1-1.18.91,3.63,3.63,0,0,1-2.07.1,4.22,4.22,0,0,1-2.46-1.29A3.44,3.44,0,0,1,88.6,448a3,3,0,0,1,.32-1.46,2.08,2.08,0,0,1,.93-0.88,3.78,3.78,0,0,1,1.47-.34,8.47,8.47,0,0,1,1.92.14c0.25,0,.51.11,0.79,0.18l1,0.26a2.08,2.08,0,0,0,0-.41v-0.4a1.6,1.6,0,0,0-.46-1.23,2.59,2.59,0,0,0-1.34-.59,6.05,6.05,0,0,0-1.9-.07,10.46,10.46,0,0,0-1.43.29Zm3.55,8.35a2.27,2.27,0,0,0,1.48-.1,1.89,1.89,0,0,0,.72-0.66V447.6l-0.62-.2a7.83,7.83,0,0,0-.89-0.21,4.27,4.27,0,0,0-.78-0.07,2.3,2.3,0,0,0-.7.1,1.08,1.08,0,0,0-.5.32,0.86,0.86,0,0,0-.19.58,1.42,1.42,0,0,0,.34,1A1.9,1.9,0,0,0,92.86,449.62Z"/><path d="M111.33,453.89a5,5,0,0,1-2,.64,8.5,8.5,0,0,1-2.4-.08,7.59,7.59,0,0,1-2.41-.81,6.21,6.21,0,0,1-1.77-1.43,6,6,0,0,1-1.1-1.94,7.13,7.13,0,0,1-.38-2.33,5.41,5.41,0,0,1,.44-2.28,3.87,3.87,0,0,1,1.22-1.53,4.3,4.3,0,0,1,1.85-.77,6.84,6.84,0,0,1,2.32,0,9.42,9.42,0,0,1,2.19.64,12.18,12.18,0,0,1,1.57.79v3.7l-2.3-.39V446.2a6.45,6.45,0,0,0-1.29-.37,3.75,3.75,0,0,0-1.16,0,2.26,2.26,0,0,0-1.75,1.24,2.92,2.92,0,0,0-.28,1.36,3.58,3.58,0,0,0,.23,1.28,3.68,3.68,0,0,0,.65,1.1,3.75,3.75,0,0,0,1,.84,4.18,4.18,0,0,0,1.37.47,4.63,4.63,0,0,0,2,0,6.47,6.47,0,0,0,1.14-.4Z"/><path d="M114.88,447.29l-2.07-.34c0-.92,0-1.39,0-2.31l2.07,0.34c0-1,0-1.44,0-2.39l2.71-.33c0,1.27,0,1.9,0,3.17l5.47,0.88c0,0.92,0,1.39,0,2.31l-5.47-.88v3a4.09,4.09,0,0,0,.61,2.44,2.5,2.5,0,0,0,1.69,1,3.48,3.48,0,0,0,1,0,3.33,3.33,0,0,0,.83-0.21,3.84,3.84,0,0,0,.67-0.36l0.55-.37,1.25,2.09a3.2,3.2,0,0,1-.89.63,6.25,6.25,0,0,1-1.15.43,6.43,6.43,0,0,1-1.28.21,6,6,0,0,1-1.32-.06,5.34,5.34,0,0,1-3.52-1.88,7,7,0,0,1-1.18-4.36v-3Z"/><path d="M125.73,452a6,6,0,0,1,.4-2.29,3.9,3.9,0,0,1,1.13-1.57,4,4,0,0,1,1.75-.81,6.41,6.41,0,0,1,2.27,0,7.24,7.24,0,0,1,2.35.76,6,6,0,0,1,1.75,1.39,5.75,5.75,0,0,1,1.08,1.92,7.22,7.22,0,0,1,.37,2.32,6,6,0,0,1-.4,2.29,3.92,3.92,0,0,1-1.13,1.57,4,4,0,0,1-1.75.82,6.36,6.36,0,0,1-2.27,0,7.19,7.19,0,0,1-2.35-.76,6,6,0,0,1-1.75-1.39,5.77,5.77,0,0,1-1.08-1.92A7.23,7.23,0,0,1,125.73,452Zm2.8,0.44a4.47,4.47,0,0,0,.19,1.31,3.79,3.79,0,0,0,.54,1.11,3.07,3.07,0,0,0,.86.81,3,3,0,0,0,1.15.42,2.34,2.34,0,0,0,2-.48,3,3,0,0,0,.76-2.34,4.12,4.12,0,0,0-.71-2.45,2.91,2.91,0,0,0-2-1.2,3.12,3.12,0,0,0-1.09,0,1.75,1.75,0,0,0-.87.44,2.33,2.33,0,0,0-.58.92A4.27,4.27,0,0,0,128.53,452.41Z"/><path d="M138.36,456.84l2.59,0.38c0-2.35,0-3.53,0-5.88l-2.59-.38c0-.92,0-1.39,0-2.31l4.71,0.69,0.31,1.43h0.08a4.49,4.49,0,0,1,1.34-1,3,3,0,0,1,1.76-.21,2.81,2.81,0,0,1,2,1.21,5.6,5.6,0,0,1,.72,3.19l-2.45-.35a2.31,2.31,0,0,0-.22-1.13,0.91,0.91,0,0,0-.7-0.45,1.88,1.88,0,0,0-1.35.23,3.44,3.44,0,0,0-.87.84v4.47l4.54,0.65v2.31c-3.94-.56-5.92-0.84-9.86-1.43v-2.31Z"/><path d="M151.33,458.7l3.69,0.51v-5.88l-3.69-.51c0-.92,0-1.39,0-2.31l6.41,0.88c0,3.28,0,4.91,0,8.19l3.88,0.52c0,0.92,0,1.39,0,2.31-4.12-.54-6.17-0.82-10.29-1.4C151.33,460.08,151.33,459.62,151.33,458.7Zm3.18-10.61a1.29,1.29,0,0,1,.48-1,1.68,1.68,0,0,1,1.34-.28,2.34,2.34,0,0,1,1.4.65,1.65,1.65,0,0,1,.52,1.18,1.18,1.18,0,0,1-.52,1,2,2,0,0,1-1.4.24,2.22,2.22,0,0,1-1.34-.61A1.62,1.62,0,0,1,154.52,448.09Z"/><path d="M164.56,453a10.44,10.44,0,0,1,1.94-.4,10.84,10.84,0,0,1,2.61.06,6.23,6.23,0,0,1,1.86.5,3.7,3.7,0,0,1,1.24.9,3.34,3.34,0,0,1,.68,1.24,5.34,5.34,0,0,1,.21,1.54q0,1.07-.07,1.82c0,0.5-.07.94-0.07,1.33a9.1,9.1,0,0,0,0,1c0,0.19,0,.39.06,0.58l1.36,0.17V464l-3.52-.44-0.28-1.46h-0.1a3,3,0,0,1-1.19,1,3.71,3.71,0,0,1-2.08.21,4,4,0,0,1-2.48-1.16,3.27,3.27,0,0,1-.92-2.35,3.09,3.09,0,0,1,.32-1.48,2.25,2.25,0,0,1,.94-0.93,4,4,0,0,1,1.48-.42,8.51,8.51,0,0,1,1.93,0c0.25,0,.51.08,0.79,0.14l1,0.21a2.1,2.1,0,0,0,0-.41v-0.4a1.52,1.52,0,0,0-.46-1.2,2.48,2.48,0,0,0-1.35-.52,6.11,6.11,0,0,0-1.91,0,10.92,10.92,0,0,0-1.44.36Zm3.57,8.17a2.33,2.33,0,0,0,1.49-.18,2,2,0,0,0,.73-0.7V459l-0.62-.17a7.57,7.57,0,0,0-.89-0.17,4.26,4.26,0,0,0-.79,0,2.38,2.38,0,0,0-.7.14,1.16,1.16,0,0,0-.5.35,0.9,0.9,0,0,0-.19.58,1.35,1.35,0,0,0,.34,1A1.81,1.81,0,0,0,168.12,461.17Z"/><path d="M177.07,449.67l4.47,0.54c0,3.88,0,5.82,0,9.7a4.81,4.81,0,0,0,.4,2.29,1.61,1.61,0,0,0,1.28.78,3.41,3.41,0,0,0,1.07,0,3.61,3.61,0,0,0,.84-0.29l1,2c-0.24.13-.48,0.24-0.71,0.35a4.09,4.09,0,0,1-.76.25,4.84,4.84,0,0,1-.87.11,6.84,6.84,0,0,1-1.06-.05,4.46,4.46,0,0,1-3-1.36,4.35,4.35,0,0,1-1-3c0-3.53,0-5.29,0-8.82l-1.74-.21C177.07,451.05,177.07,450.59,177.07,449.67Z"/><path d="M197.39,471.15a10.78,10.78,0,0,1-2.86-1.24,9.79,9.79,0,0,1-2.46-2.14,10.29,10.29,0,0,1-1.71-3,11.54,11.54,0,0,1-.64-4,10.37,10.37,0,0,1,.64-3.82,7.89,7.89,0,0,1,1.71-2.7,7.29,7.29,0,0,1,2.46-1.64,9.55,9.55,0,0,1,2.86-.68l0.5,2.3a8,8,0,0,0-1.67.42,5.26,5.26,0,0,0-1.77,1.09,6.05,6.05,0,0,0-1.42,2,8.06,8.06,0,0,0-.58,3.3,8.25,8.25,0,0,0,.61,3.32,8.34,8.34,0,0,0,1.48,2.34,7.64,7.64,0,0,0,1.79,1.48,8,8,0,0,0,1.55.72Z"/><path d="M205.65,465.55a4.19,4.19,0,0,0,1.27,0,2.67,2.67,0,0,0,1-.4,2.09,2.09,0,0,0,.64-0.69,1.8,1.8,0,0,0,.23-0.91,2.13,2.13,0,0,0-.26-1.08,2.21,2.21,0,0,0-.73-0.75,3.86,3.86,0,0,0-1.11-.47,9.29,9.29,0,0,0-1.41-.25l-1.18-.12c0-.6,0-0.9,0-1.51l3.53-3.95-5.32-.55c0-.92,0-1.39,0-2.31l8.57,0.87c0,0.76,0,1.15,0,1.91l-3.7,3.85,0.48,0a4.44,4.44,0,0,1,1.43.4,4.06,4.06,0,0,1,1.23.88,4.29,4.29,0,0,1,.86,1.35,4.61,4.61,0,0,1,.33,1.78,4,4,0,0,1-.49,2.05,4.13,4.13,0,0,1-1.3,1.39,5,5,0,0,1-1.86.74,7.49,7.49,0,0,1-2.16.08,11.13,11.13,0,0,1-1.89-.36,10,10,0,0,1-1.83-.72l0.74-2.19a3.31,3.31,0,0,0,.51.26l0.73,0.29a8.63,8.63,0,0,0,.84.25A6.08,6.08,0,0,0,205.65,465.55Z"/><path d="M215.57,470.72a6.63,6.63,0,0,0,1.56-.41,5.76,5.76,0,0,0,1.8-1.11,6.32,6.32,0,0,0,1.48-2A7.37,7.37,0,0,0,221,464a8.93,8.93,0,0,0-.58-3.41,8,8,0,0,0-1.42-2.33,7,7,0,0,0-1.78-1.45,9.73,9.73,0,0,0-1.67-.76l0.5-2.2a11.5,11.5,0,0,1,2.86,1.26,9.75,9.75,0,0,1,2.46,2.14,10.29,10.29,0,0,1,1.71,3,11.42,11.42,0,0,1,.64,4,10.44,10.44,0,0,1-.64,3.85,7.89,7.89,0,0,1-1.71,2.7,7.32,7.32,0,0,1-2.46,1.64,9,9,0,0,1-2.86.65Z"/><path d="M382.51,475.29V473l2.49,0v-5.88l-2.51,0c0-.92,0-1.39,0-2.31l2.51,0v-0.59a3.89,3.89,0,0,1,.35-1.71,3.5,3.5,0,0,1,.92-1.19,3.84,3.84,0,0,1,1.32-.71,5.51,5.51,0,0,1,1.55-.25,9.87,9.87,0,0,1,2.39.19,6,6,0,0,1,1.55.57l-0.8,2.1a9.56,9.56,0,0,0-1-.4,4.58,4.58,0,0,0-1.44-.16,2.09,2.09,0,0,0-1.59.54,2.31,2.31,0,0,0-.45,1.55l4.43-.09v2.31l-4.43.09v5.88l4.45-.09v2.31C388.32,475.2,386.38,475.24,382.51,475.29Z"/><path d="M395.57,465.26a11.87,11.87,0,0,1,2-.7,11.22,11.22,0,0,1,2.63-.34,5.79,5.79,0,0,1,1.87.21,3,3,0,0,1,1.24.71,2.73,2.73,0,0,1,.68,1.14,5,5,0,0,1,.21,1.51q0,1.07-.07,1.83T404,471a8.8,8.8,0,0,0,0,1c0,0.19,0,.38.06,0.57l1.37,0v2.31l-3.54.1-0.28-1.42h-0.1a3.78,3.78,0,0,1-1.19,1.16,4.07,4.07,0,0,1-2.1.53,3.49,3.49,0,0,1-2.49-.78,2.8,2.8,0,0,1-.92-2.21,3.37,3.37,0,0,1,.32-1.53,2.82,2.82,0,0,1,.94-1.07,4.61,4.61,0,0,1,1.49-.64,8.82,8.82,0,0,1,1.94-.25c0.25,0,.52,0,0.8,0l1,0.06a2.11,2.11,0,0,0,0-.42v-0.4a1.3,1.3,0,0,0-.46-1.13,2.2,2.2,0,0,0-1.36-.31,6.45,6.45,0,0,0-1.93.32,12.75,12.75,0,0,0-1.44.58Zm3.59,7.62a2.35,2.35,0,0,0,2.23-1.21V470.4l-0.63-.08a7.38,7.38,0,0,0-.9,0,4.41,4.41,0,0,0-.79.09,2.71,2.71,0,0,0-.71.25,1.45,1.45,0,0,0-.5.42,1,1,0,0,0-.19.61,1.17,1.17,0,0,0,.34.91A1.59,1.59,0,0,0,399.16,472.88Z"/><path d="M417.83,473.35a6.31,6.31,0,0,1-2,1.05,9,9,0,0,1-2.42.41,6.76,6.76,0,0,1-2.44-.32,4.74,4.74,0,0,1-1.79-1.06,4.57,4.57,0,0,1-1.11-1.72,6.41,6.41,0,0,1-.38-2.26,6,6,0,0,1,.44-2.37,5.17,5.17,0,0,1,1.23-1.78,5.56,5.56,0,0,1,1.87-1.14,7.38,7.38,0,0,1,2.34-.45,8.58,8.58,0,0,1,2.21.19,10,10,0,0,1,1.58.47v3.7l-2.32.09v-1.93a5.91,5.91,0,0,0-1.31-.1,4,4,0,0,0-1.17.22,3,3,0,0,0-1,.6,3.12,3.12,0,0,0-.74,1,3.27,3.27,0,0,0-.28,1.42,3.18,3.18,0,0,0,.23,1.23,2.82,2.82,0,0,0,.65,1,2.86,2.86,0,0,0,1,.63,3.72,3.72,0,0,0,1.38.19,5,5,0,0,0,2-.41,8.3,8.3,0,0,0,1.15-.63Z"/><path d="M421.42,466l-2.09.08V463.8l2.09-.08v-2.39l2.74-.89v3.17l5.52-.24v2.31l-5.52.24v3a3.5,3.5,0,0,0,.61,2.31,2,2,0,0,0,1.71.65,3.69,3.69,0,0,0,1-.18,4.1,4.1,0,0,0,.83-0.38,5.09,5.09,0,0,0,.67-0.49l0.56-.49,1.26,1.83a4.36,4.36,0,0,1-.9.81,8,8,0,0,1-1.16.66,7.62,7.62,0,0,1-1.3.47,6.33,6.33,0,0,1-1.33.21,4.38,4.38,0,0,1-3.55-1.16,5.89,5.89,0,0,1-1.19-4.12v-3Z"/><path d="M432.36,468.48a6.61,6.61,0,0,1,.4-2.37,5.13,5.13,0,0,1,1.14-1.8,5.21,5.21,0,0,1,1.76-1.17,7,7,0,0,1,2.29-.48,6.49,6.49,0,0,1,2.37.28,4.57,4.57,0,0,1,1.76,1,4.4,4.4,0,0,1,1.08,1.69,6.5,6.5,0,0,1,.37,2.25,6.64,6.64,0,0,1-.4,2.37,5.11,5.11,0,0,1-2.9,3,6.91,6.91,0,0,1-2.29.49,6.42,6.42,0,0,1-2.37-.28,4.57,4.57,0,0,1-1.76-1,4.43,4.43,0,0,1-1.08-1.7A6.52,6.52,0,0,1,432.36,468.48Zm2.82-.14a4.07,4.07,0,0,0,.19,1.27,3,3,0,0,0,.55,1,2.29,2.29,0,0,0,.86.64,2.59,2.59,0,0,0,1.16.18,2.82,2.82,0,0,0,2-.88,3.54,3.54,0,0,0,.77-2.5,3.48,3.48,0,0,0-.72-2.3,2.35,2.35,0,0,0-2-.79,3.39,3.39,0,0,0-1.1.23,2.29,2.29,0,0,0-.87.62,3,3,0,0,0-.58,1A4.62,4.62,0,0,0,435.18,468.34Z"/><path d="M445.08,470.76l2.61-.15v-5.88l-2.61.15v-2.31l4.74-.27,0.32,1.37h0.08a6.07,6.07,0,0,1,1.35-1.24,3.5,3.5,0,0,1,1.77-.57,2.25,2.25,0,0,1,2,.8,4.85,4.85,0,0,1,.73,3l-2.46.15a2,2,0,0,0-.22-1.09,0.73,0.73,0,0,0-.71-0.3,2.2,2.2,0,0,0-1.36.5,4.64,4.64,0,0,0-.87,1c0,1.79,0,2.68,0,4.47l4.57-.28v2.31c-4,.25-6,0.37-9.92.59v-2.31Z"/><path d="M458.14,470l3.71-.25v-5.88l-3.71.25v-2.31l6.44-.43v8.19l3.89-.27v2.31c-4.13.3-6.2,0.44-10.34,0.71V470Zm3.2-11.26a1.59,1.59,0,0,1,.48-1.14,2,2,0,0,1,1.35-.55,2,2,0,0,1,1.41.36,1.33,1.33,0,0,1,.53,1.08,1.47,1.47,0,0,1-.53,1.14,2.3,2.3,0,0,1-1.41.53,1.85,1.85,0,0,1-1.35-.34A1.31,1.31,0,0,1,461.34,458.71Z"/><path d="M471.43,461.57a12.46,12.46,0,0,1,1.95-.8,11.46,11.46,0,0,1,2.62-.47,5.69,5.69,0,0,1,1.86.12,2.83,2.83,0,0,1,1.24.65,2.56,2.56,0,0,1,.68,1.1,4.87,4.87,0,0,1,.21,1.49q0,1.07-.07,1.83t-0.07,1.35a8.8,8.8,0,0,0,0,1c0,0.19,0,.38.06,0.56l1.37-.11v2.31l-3.53.28-0.28-1.41h-0.1a4.06,4.06,0,0,1-1.19,1.22,4.21,4.21,0,0,1-2.09.63,3.34,3.34,0,0,1-2.49-.65,2.66,2.66,0,0,1-.92-2.16A3.48,3.48,0,0,1,471,467a3,3,0,0,1,.94-1.12,4.87,4.87,0,0,1,1.48-.72,9,9,0,0,1,1.93-.35c0.25,0,.52,0,0.79,0h1a2.14,2.14,0,0,0,0-.42v-0.4a1.24,1.24,0,0,0-.46-1.11,2.13,2.13,0,0,0-1.36-.24,6.61,6.61,0,0,0-1.92.42,13.46,13.46,0,0,0-1.44.65ZM475,469a2.67,2.67,0,0,0,1.5-.48,2.76,2.76,0,0,0,.73-0.84v-1.26l-0.62,0a7.3,7.3,0,0,0-.89,0,4.48,4.48,0,0,0-.79.13,2.83,2.83,0,0,0-.71.28,1.56,1.56,0,0,0-.5.45,1.05,1.05,0,0,0-.19.62,1.11,1.11,0,0,0,.34.89A1.53,1.53,0,0,0,475,469Z"/><path d="M484,455.67l4.48-.37V465a4.28,4.28,0,0,0,.4,2.21,1.29,1.29,0,0,0,1.28.52,3.66,3.66,0,0,0,1.07-.23,4.49,4.49,0,0,0,.84-0.46l1,1.8q-0.36.26-.71,0.49a5.13,5.13,0,0,1-.76.4,5.59,5.59,0,0,1-.87.29,7.15,7.15,0,0,1-1.06.17,3.71,3.71,0,0,1-3-.76,3.62,3.62,0,0,1-1-2.77v-8.82L484,458C484,457.06,484,456.6,484,455.67Z"/><path d="M496.42,471.76c3.73-.34,5.6-0.51,9.34-0.87v2.25c-3.73.36-5.6,0.54-9.34,0.87v-2.25Z"/><path d="M507.4,453.57l4.25-.42v5.38h0.08a4.12,4.12,0,0,1,1.34-1.21,4.91,4.91,0,0,1,2-.6,4.81,4.81,0,0,1,1.47.06,2.44,2.44,0,0,1,1.15.57,2.85,2.85,0,0,1,.76,1.23,6.35,6.35,0,0,1,.27,2v6.53l-2.73.29v-6a2.39,2.39,0,0,0-.55-1.79,1.73,1.73,0,0,0-1.43-.42,2.63,2.63,0,0,0-1.43.62,3,3,0,0,0-.92,1.3v6.7l-2.73.27c0-5,0-7.43,0-12.39l-1.51.15C507.4,455,507.4,454.49,507.4,453.57Z"/><path d="M531.22,464.63a4.4,4.4,0,0,1-.7.57,7.8,7.8,0,0,1-1,.57,8.62,8.62,0,0,1-2.74.77,6.87,6.87,0,0,1-2.4-.11,4,4,0,0,1-2.92-2.53,6.14,6.14,0,0,1-.39-2.28,6.54,6.54,0,0,1,.44-2.47,5.63,5.63,0,0,1,1.21-1.86,5.84,5.84,0,0,1,1.8-1.23,7.45,7.45,0,0,1,2.23-.59,6.75,6.75,0,0,1,1.65,0,4,4,0,0,1,1.56.55,3.3,3.3,0,0,1,1.17,1.24,4.37,4.37,0,0,1,.45,2.13,10.39,10.39,0,0,1-.21,2l-7.56.84a2.24,2.24,0,0,0,.28,1.1,1.92,1.92,0,0,0,.69.68,2.67,2.67,0,0,0,1,.32,4.87,4.87,0,0,0,1.19,0,6.52,6.52,0,0,0,2.07-.52,5.05,5.05,0,0,0,1.31-.86Zm-4.53-7a3.69,3.69,0,0,0-1,.26,3.3,3.3,0,0,0-.87.53,2.82,2.82,0,0,0-.64.79,2.42,2.42,0,0,0-.29,1l5.17-.57a2.09,2.09,0,0,0-.58-1.59A2.12,2.12,0,0,0,526.68,457.64Z"/><path d="M534.43,450.68l4.47-.53v9.7a4.21,4.21,0,0,0,.4,2.2,1.24,1.24,0,0,0,1.28.48,3.73,3.73,0,0,0,1.07-.27,4.68,4.68,0,0,0,.84-0.49l1,1.77q-0.36.28-.71,0.52a5.32,5.32,0,0,1-.76.43,5.77,5.77,0,0,1-.87.32,7.24,7.24,0,0,1-1.06.2,3.61,3.61,0,0,1-3-.66,3.51,3.51,0,0,1-1-2.74v-8.82l-1.74.2v-2.31Z"/><path d="M545.19,453.59l3.57-.44,0.31,1.22h0.08a4.63,4.63,0,0,1,3.52-2,4.79,4.79,0,0,1,1.77.08,2.91,2.91,0,0,1,1.38.78,3.81,3.81,0,0,1,.89,1.52,7.48,7.48,0,0,1,.31,2.33,8.16,8.16,0,0,1-.36,2.47,6.06,6.06,0,0,1-1,2,5.28,5.28,0,0,1-1.63,1.37,6.21,6.21,0,0,1-2.2.68,8.52,8.52,0,0,1-1.28.07,3.22,3.22,0,0,1-1-.17v4.31l-2.73.34c0-5,0-7.43,0-12.39l-1.57.19v-2.31Zm6.67,1.18a3.1,3.1,0,0,0-1.46.58,2.46,2.46,0,0,0-.91,1.31V461a2,2,0,0,0,.85.26,4.57,4.57,0,0,0,1.12,0,3.18,3.18,0,0,0,1.09-.34,2.67,2.67,0,0,0,.88-0.75A3.63,3.63,0,0,0,554,459a5.77,5.77,0,0,0,.21-1.64,2.79,2.79,0,0,0-.67-2.06A1.93,1.93,0,0,0,551.86,454.77Z"/><path d="M569,459.85a4.56,4.56,0,0,1-.7.59,8,8,0,0,1-1,.59,8.79,8.79,0,0,1-1.27.51,8.65,8.65,0,0,1-1.47.33,6.82,6.82,0,0,1-2.4-.05,3.91,3.91,0,0,1-2.91-2.46,6.08,6.08,0,0,1-.39-2.27,6.64,6.64,0,0,1,.44-2.48,5.83,5.83,0,0,1,1.2-1.89,6,6,0,0,1,1.79-1.28,7.56,7.56,0,0,1,2.22-.65,6.71,6.71,0,0,1,1.64,0,3.9,3.9,0,0,1,1.56.51,3.17,3.17,0,0,1,1.16,1.21,4.31,4.31,0,0,1,.45,2.12,10.49,10.49,0,0,1-.21,2l-7.54,1a2.2,2.2,0,0,0,.28,1.1,1.84,1.84,0,0,0,.69.66,2.6,2.6,0,0,0,1,.3,4.85,4.85,0,0,0,1.18,0,6.61,6.61,0,0,0,2.06-.58,5.21,5.21,0,0,0,1.31-.9ZM564.43,453a3.75,3.75,0,0,0-1,.29,3.41,3.41,0,0,0-.87.56,2.93,2.93,0,0,0-.64.8,2.48,2.48,0,0,0-.29,1l5.15-.7a2,2,0,0,0-.58-1.58A2.08,2.08,0,0,0,564.43,453Z"/><path d="M571.16,458.35l2.6-.37V452.1l-2.6.37v-2.31l4.71-.67,0.31,1.34h0.08a6.85,6.85,0,0,1,1.34-1.35,3.75,3.75,0,0,1,1.76-.72,2.07,2.07,0,0,1,2,.63,4.59,4.59,0,0,1,.72,3l-2.45.36a2,2,0,0,0-.22-1.07,0.67,0.67,0,0,0-.7-0.24,2.38,2.38,0,0,0-1.35.62,5.24,5.24,0,0,0-.87,1.09v4.47l4.54-.66v2.31c-3.94.58-5.91,0.87-9.86,1.42v-2.31Z"/><path d="M592.41,462a8.65,8.65,0,0,1-2.84-.48,6.72,6.72,0,0,1-2.45-1.5,7.27,7.27,0,0,1-1.71-2.6,10.19,10.19,0,0,1-.64-3.81,11.81,11.81,0,0,1,.64-4,11.09,11.09,0,0,1,1.71-3.15,10.62,10.62,0,0,1,2.45-2.28,12.21,12.21,0,0,1,2.84-1.43l0.5,2.17a10.32,10.32,0,0,0-1.66.86,7.59,7.59,0,0,0-1.77,1.55,8.61,8.61,0,0,0-1.41,2.41,9.26,9.26,0,0,0-.57,3.45,7.17,7.17,0,0,0,.61,3.16,5.8,5.8,0,0,0,1.48,1.95,5.31,5.31,0,0,0,1.79,1,6.31,6.31,0,0,0,1.55.32Z"/><path d="M600.63,454.2a4.71,4.71,0,0,0,1.26-.38,3.67,3.67,0,0,0,1-.66,3.07,3.07,0,0,0,.64-0.86,2.17,2.17,0,0,0,.23-1,1.78,1.78,0,0,0-.26-1,1.49,1.49,0,0,0-.72-0.56,3.1,3.1,0,0,0-1.11-.18,8.85,8.85,0,0,0-1.4.12l-1.17.19v-1.51l3.51-4.88-5.29.85V442c3.41-.54,5.11-0.82,8.52-1.38v1.91l-3.68,4.82,0.48-.08a3.94,3.94,0,0,1,1.42,0,2.87,2.87,0,0,1,1.22.56,3,3,0,0,1,.86,1.12,4,4,0,0,1,.32,1.69,4.81,4.81,0,0,1-.49,2.18,6,6,0,0,1-1.29,1.74,6.78,6.78,0,0,1-1.85,1.23,8.42,8.42,0,0,1-2.15.65,10.51,10.51,0,0,1-1.88.13,8.16,8.16,0,0,1-1.82-.24L597.7,454a2.56,2.56,0,0,0,.51.13l0.73,0.09a7.58,7.58,0,0,0,.84,0A5.81,5.81,0,0,0,600.63,454.2Z"/><path d="M612.53,452.9a1.7,1.7,0,0,1,.47-1.21,2,2,0,0,1,1.18-.62,1.77,1.77,0,0,1,1.73.46,2.56,2.56,0,0,1,.58,1.77,4.43,4.43,0,0,1-.37,1.79,5.76,5.76,0,0,1-.95,1.51,6.6,6.6,0,0,1-1.3,1.15,6.33,6.33,0,0,1-1.43.73l-0.56-1.06a7.29,7.29,0,0,0,1-.53,5.17,5.17,0,0,0,.93-0.74,4.13,4.13,0,0,0,.7-0.93,2.59,2.59,0,0,0,.32-1.06,2.78,2.78,0,0,1-1.06.21,1.35,1.35,0,0,1-.72-0.21,1.09,1.09,0,0,1-.41-0.52A2,2,0,0,1,612.53,452.9Z"/><path d="M631.4,450.93c-3.72.68-5.58,1-9.3,1.66v-2l0.63-.67,0.84-.94q0.47-.52,1-1.14t1-1.27q0.71-.92,1.24-1.67a13.27,13.27,0,0,0,.88-1.39,6.16,6.16,0,0,0,.51-1.23,4.3,4.3,0,0,0,.17-1.17,1.69,1.69,0,0,0-.19-0.79,1.72,1.72,0,0,0-.52-0.61,2,2,0,0,0-.8-0.34,2.75,2.75,0,0,0-1,0,4.38,4.38,0,0,0-1.36.47,6,6,0,0,0-1.28,1l-1.08-1.74a11.68,11.68,0,0,1,1.95-1.4,7.56,7.56,0,0,1,2.47-.87,5.7,5.7,0,0,1,1.72-.06,3.73,3.73,0,0,1,1.46.48,2.77,2.77,0,0,1,1,1,3.29,3.29,0,0,1,.38,1.63,6.78,6.78,0,0,1-.11,1.27,7.11,7.11,0,0,1-.35,1.22,9.84,9.84,0,0,1-.62,1.3q-0.39.68-.93,1.49-0.42.62-.91,1.27t-1,1.23q-0.48.59-.95,1.12t-0.84.89l6-1.08v2.31Z"/><path d="M635.5,452.34a8.66,8.66,0,0,0,1.54-.84,8.52,8.52,0,0,0,1.78-1.61,9.26,9.26,0,0,0,1.47-2.45,8.65,8.65,0,0,0,.6-3.37,7.81,7.81,0,0,0-.57-3.25,5.44,5.44,0,0,0-1.41-1.93,4.71,4.71,0,0,0-1.76-1,7.54,7.54,0,0,0-1.66-.29l0.5-2.34a9,9,0,0,1,2.83.46,6.52,6.52,0,0,1,2.44,1.45,7.12,7.12,0,0,1,1.7,2.57,10.06,10.06,0,0,1,.64,3.77,12.05,12.05,0,0,1-.64,4,11.35,11.35,0,0,1-1.7,3.18,10.89,10.89,0,0,1-2.44,2.33,11.63,11.63,0,0,1-2.83,1.45Z"/></svg>