<svg id="Layer_1" data-name="Layer 1" xmlns="http://www.w3.org/2000/svg" viewBox="0 0 720 576"><defs><style>.cls-1,.cls-2,.cls-4,.cls-6{fill:#231f20;}.cls-1,.cls-3{stroke:#231f20;}.cls-1,.cls-6{stroke-miterlimit:10;}.cls-1,.cls-2,.cls-3{stroke-width:2px;}.cls-2{stroke:#000;}.cls-2,.cls-3{stroke-linecap:round;stroke-linejoin:round;}.cls-3,.cls-5{fill:#fff;}.cls-6{stroke:#fff;}</style></defs><title>Hanoi_Tower_Set_5_Final</title><path class="cls-1" d="M683,506.49c0-.14,0-0.29,0-0.43s0-.29,0-0.43V453.84H37.2s-0.25,51.74-.25,52.22c0,2.67,2.32,5.24,6.64,7.71,15.13,8.61,55.2,16.11,111,21.48S282,543.84,360,543.84c89.16,0,169.88-4.21,228.32-11,29.22-3.41,52.87-7.46,69.23-12,8.18-2.25,14.54-4.62,18.86-7.08,3.69-2.1,5.91-4.29,6.48-6.55H683v-0.73Z"/><ellipse class="cls-2" cx="360" cy="454.92" rx="322.86" ry="37.63"/><path class="cls-3" d="M683,455c0-.14,0-0.29,0-0.43s0-.29,0-0.43V402.36H37.2S37,454.1,36.95,454.58c0,2.67,2.32,5.24,6.64,7.71,15.13,8.61,55.2,16.11,111,21.48S282,492.36,360,492.36c89.16,0,169.88-4.21,228.32-11,29.22-3.41,52.87-7.46,69.23-12,8.18-2.25,14.54-4.62,18.86-7.08,3.69-2.1,5.91-4.29,6.48-6.55H683V455Z"/><ellipse class="cls-3" cx="360" cy="403.44" rx="322.86" ry="37.63"/><path class="cls-3" d="M683,403.53c0-.14,0-0.29,0-0.43s0-.29,0-0.43V350.88H37.2S37,402.62,36.95,403.1c0,2.67,2.32,5.24,6.64,7.71,15.13,8.61,55.2,16.11,111,21.48S282,440.88,360,440.88c89.16,0,169.88-4.21,228.32-11,29.22-3.41,52.87-7.46,69.23-12,8.18-2.25,14.54-4.62,18.86-7.08,3.69-2.1,5.91-4.29,6.48-6.55H683v-0.73Z"/><ellipse class="cls-3" cx="360" cy="351.97" rx="322.86" ry="37.63"/><path class="cls-3" d="M683,352.06c0-.14,0-0.29,0-0.43s0-.29,0-0.43V299.4H37.2s-0.25,51.74-.25,52.22c0,2.67,2.32,5.24,6.64,7.71,15.13,8.61,55.2,16.11,111,21.48S282,389.4,360,389.4c89.16,0,169.88-4.21,228.32-11,29.22-3.41,52.87-7.46,69.23-12,8.18-2.25,14.54-4.62,18.86-7.08,3.69-2.1,5.91-4.29,6.48-6.55H683v-0.73Z"/><ellipse class="cls-3" cx="360" cy="300.49" rx="322.86" ry="37.63"/><path class="cls-3" d="M683,302.06c0-.14,0-0.29,0-0.43s0-.29,0-0.43V249.4H37.2s-0.25,51.74-.25,52.22c0,2.67,2.32,5.24,6.64,7.71,15.13,8.61,55.2,16.11,111,21.48S282,339.4,360,339.4c89.16,0,169.88-4.21,228.32-11,29.22-3.41,52.87-7.46,69.23-12,8.18-2.25,14.54-4.62,18.86-7.08,3.69-2.1,5.91-4.29,6.48-6.55H683v-0.73Z"/><ellipse class="cls-3" cx="360" cy="250.49" rx="322.86" ry="37.63"/><path class="cls-3" d="M683,251.06c0-.14,0-0.29,0-0.43s0-.29,0-0.43V198.4H37.2s-0.25,51.74-.25,52.22c0,2.67,2.32,5.24,6.64,7.71,15.13,8.61,55.2,16.11,111,21.48S282,288.4,360,288.4c89.16,0,169.88-4.21,228.32-11,29.22-3.41,52.87-7.46,69.23-12,8.18-2.25,14.54-4.62,18.86-7.08,3.69-2.1,5.91-4.29,6.48-6.55H683v-0.73Z"/><ellipse class="cls-3" cx="360" cy="199.49" rx="322.86" ry="37.63"/><path class="cls-4" d="M360,208.64c-16,0-29-3.75-30.2-8.61h-0.08l0-.5V8.27h60.63V200H390.2C389,204.89,376,208.64,360,208.64Z"/><path class="cls-5" d="M389.82,8.77V199.53h0c-0.49,4.78-13.63,8.61-29.79,8.61s-29.3-3.83-29.79-8.61h0v-0.21s0,0,0-.06,0,0,0-.06V8.77h59.63m1-1H329.19V199.15s0,0.07,0,.11v1.27h0.22c1.05,3,5.66,4.94,9.53,6.06a88,88,0,0,0,42.09,0c3.87-1.12,8.48-3.05,9.53-6.06h0.21l0-1V7.77h0Z"/><ellipse class="cls-6" cx="359.99" cy="8.89" rx="29.81" ry="8.89"/><path class="cls-4" d="M49.63,295.81v-2.2L52,294v-5.6L49.62,288v-2.2L52,286.18v-0.56a3.36,3.36,0,0,1,.33-1.57,2.59,2.59,0,0,1,.86-1,3,3,0,0,1,1.24-.46,5,5,0,0,1,1.46,0,10,10,0,0,1,2.26.58,6.87,6.87,0,0,1,1.46.79l-0.76,1.86a11,11,0,0,0-1-.55,4.72,4.72,0,0,0-1.36-.39,1.72,1.72,0,0,0-1.5.26,1.92,1.92,0,0,0-.43,1.4l4.18,0.65v2.2l-4.18-.65v5.6l4.2,0.65v2.2Z"/><path class="cls-4" d="M61.94,288.4a9.69,9.69,0,0,1,1.84-.34,10.27,10.27,0,0,1,2.48.11,6,6,0,0,1,1.76.51,3.61,3.61,0,0,1,1.17.89,3.25,3.25,0,0,1,.65,1.2,5.16,5.16,0,0,1,.2,1.47c0,0.68,0,1.26-.07,1.73s-0.07.9-.07,1.27a8.72,8.72,0,0,0,0,.95c0,0.19,0,.37.06,0.55l1.29,0.19v2.2L68,298.62l-0.26-1.4h-0.1a2.75,2.75,0,0,1-1.13.9,3.5,3.5,0,0,1-2,.15,3.9,3.9,0,0,1-2.35-1.16,3.18,3.18,0,0,1-.87-2.25,2.91,2.91,0,0,1,.3-1.4,2.07,2.07,0,0,1,.89-0.86,3.69,3.69,0,0,1,1.4-.37,8,8,0,0,1,1.83.09c0.24,0,.49.09,0.75,0.15l1,0.22a2,2,0,0,0,0-.39v-0.38a1.48,1.48,0,0,0-.43-1.15,2.4,2.4,0,0,0-1.28-.52,5.79,5.79,0,0,0-1.82,0,10.4,10.4,0,0,0-1.36.31Zm3.39,7.85a2.2,2.2,0,0,0,1.42-.14,1.89,1.89,0,0,0,.69-0.65v-1.2l-0.59-.18a7.16,7.16,0,0,0-.85-0.18,4,4,0,0,0-.75,0,2.24,2.24,0,0,0-.67.12,1.07,1.07,0,0,0-.47.32,0.84,0.84,0,0,0-.18.55,1.32,1.32,0,0,0,.32.92A1.76,1.76,0,0,0,65.33,296.25Z"/><path class="cls-4" d="M83,299.84a4.88,4.88,0,0,1-1.91.66,8.13,8.13,0,0,1-2.29,0,7.12,7.12,0,0,1-2.3-.71,5.73,5.73,0,0,1-1.69-1.32,5.49,5.49,0,0,1-1-1.82,6.69,6.69,0,0,1-.36-2.21,5.22,5.22,0,0,1,.42-2.18,3.84,3.84,0,0,1,1.16-1.49,4.22,4.22,0,0,1,1.76-.77,6.51,6.51,0,0,1,2.21,0,8.85,8.85,0,0,1,2.09.56,11.11,11.11,0,0,1,1.49.71v3.52l-2.19-.31v-1.84a6,6,0,0,0-1.23-.32,3.58,3.58,0,0,0-1.1,0,2.23,2.23,0,0,0-1.67,1.23,2.81,2.81,0,0,0-.27,1.3,3.36,3.36,0,0,0,.22,1.21,3.38,3.38,0,0,0,1.6,1.8,3.92,3.92,0,0,0,1.3.42,4.46,4.46,0,0,0,1.86-.05,6.3,6.3,0,0,0,1.08-.41Z"/><path class="cls-4" d="M86.35,293.47l-2-.28V291l2,0.28V289l2.59-.38v3l5.22,0.71v2.2l-5.22-.71v2.86a3.83,3.83,0,0,0,.58,2.31,2.32,2.32,0,0,0,1.61.91,3.35,3.35,0,0,0,1,0,3.26,3.26,0,0,0,.79-0.22,3.73,3.73,0,0,0,.64-0.35l0.53-.37,1.19,2a3.13,3.13,0,0,1-.85.62,6.15,6.15,0,0,1-1.1.43,6.26,6.26,0,0,1-1.23.22,5.76,5.76,0,0,1-1.25,0,5,5,0,0,1-3.36-1.71,6.49,6.49,0,0,1-1.13-4.13v-2.86Z"/><path class="cls-4" d="M96.68,297.68a5.8,5.8,0,0,1,.38-2.19A3.82,3.82,0,0,1,98.14,294a3.89,3.89,0,0,1,1.66-.81,6.1,6.1,0,0,1,2.16-.07,6.78,6.78,0,0,1,2.24.67,5.54,5.54,0,0,1,1.66,1.29,5.3,5.3,0,0,1,1,1.8,6.81,6.81,0,0,1,.35,2.2,5.79,5.79,0,0,1-.38,2.19,3.85,3.85,0,0,1-1.08,1.52,3.89,3.89,0,0,1-1.66.81,6.1,6.1,0,0,1-2.16.07,6.77,6.77,0,0,1-2.24-.67,5.56,5.56,0,0,1-1.66-1.29,5.35,5.35,0,0,1-1-1.81A6.81,6.81,0,0,1,96.68,297.68ZM99.35,298a4.2,4.2,0,0,0,.18,1.24,3.51,3.51,0,0,0,.52,1,2.85,2.85,0,0,0,.82.76,2.76,2.76,0,0,0,1.1.37,2.26,2.26,0,0,0,1.88-.49,2.89,2.89,0,0,0,.73-2.24,3.85,3.85,0,0,0-.68-2.32,2.7,2.7,0,0,0-1.93-1.1,3,3,0,0,0-1,0,1.72,1.72,0,0,0-.83.44,2.26,2.26,0,0,0-.55.89A4.08,4.08,0,0,0,99.35,298Z"/><path class="cls-4" d="M108.72,302.06l2.47,0.31v-5.6l-2.47-.31v-2.2l4.49,0.57,0.3,1.36h0.08a4.39,4.39,0,0,1,1.28-.94,2.93,2.93,0,0,1,1.68-.23,2.61,2.61,0,0,1,1.89,1.11,5.26,5.26,0,0,1,.69,3l-2.33-.29a2.18,2.18,0,0,0-.21-1.08,0.85,0.85,0,0,0-.67-0.41,1.81,1.81,0,0,0-1.29.24,3.36,3.36,0,0,0-.83.82v4.26l4.33,0.54v2.2l-9.39-1.18v-2.2Z"/><path class="cls-4" d="M121.09,303.6L124.6,304v-5.6l-3.51-.42v-2.2l6.11,0.73v7.8l3.69,0.43V307c-3.92-.46-5.88-0.69-9.8-1.16v-2.2Zm3-10.15a1.25,1.25,0,0,1,.46-1,1.61,1.61,0,0,1,1.28-.29,2.19,2.19,0,0,1,1.34.6,1.55,1.55,0,0,1,.5,1.12,1.14,1.14,0,0,1-.5,1,1.88,1.88,0,0,1-1.34.25,2.07,2.07,0,0,1-1.28-.56A1.52,1.52,0,0,1,124.13,293.44Z"/><path class="cls-4" d="M133.68,298a10,10,0,0,1,1.85-.41,10.35,10.35,0,0,1,2.49,0,5.87,5.87,0,0,1,1.77.45,3.44,3.44,0,0,1,1.18.84,3.11,3.11,0,0,1,.65,1.17,5,5,0,0,1,.2,1.46c0,0.68,0,1.26-.07,1.73s-0.07.9-.07,1.27a8.9,8.9,0,0,0,0,.94c0,0.19,0,.37.06,0.55l1.3,0.14v2.2l-3.35-.37-0.26-1.39h-0.1a2.92,2.92,0,0,1-1.13.94,3.56,3.56,0,0,1-2,.23,3.76,3.76,0,0,1-2.36-1.07,3.07,3.07,0,0,1-.87-2.22,3,3,0,0,1,.31-1.42,2.18,2.18,0,0,1,.89-0.9,3.81,3.81,0,0,1,1.41-.42,8,8,0,0,1,1.83,0c0.24,0,.49.07,0.75,0.12l1,0.19a1.9,1.9,0,0,0,0-.39v-0.38a1.43,1.43,0,0,0-.44-1.14,2.33,2.33,0,0,0-1.29-.48,5.83,5.83,0,0,0-1.82.05,10.8,10.8,0,0,0-1.37.36Zm3.4,7.73a2.24,2.24,0,0,0,1.42-.19,2,2,0,0,0,.69-0.67v-1.2l-0.59-.16a7.12,7.12,0,0,0-.85-0.14,4.06,4.06,0,0,0-.75,0,2.3,2.3,0,0,0-.67.14,1.12,1.12,0,0,0-.47.34,0.86,0.86,0,0,0-.18.56,1.27,1.27,0,0,0,.33.91A1.7,1.7,0,0,0,137.08,305.69Z"/><path class="cls-4" d="M145.61,294.62l4.25,0.46c0,3.7,0,5.54,0,9.24a4.53,4.53,0,0,0,.38,2.18,1.51,1.51,0,0,0,1.22.73,3.29,3.29,0,0,0,1,0,3.54,3.54,0,0,0,.8-0.29l1,1.9-0.68.34a3.85,3.85,0,0,1-.72.24,4.69,4.69,0,0,1-.83.11,6.52,6.52,0,0,1-1,0,4.2,4.2,0,0,1-2.82-1.26,4.1,4.1,0,0,1-.94-2.82V297l-1.66-.18v-2.2Z"/><path class="cls-4" d="M157.41,312.2l8.87,0.89v2.14l-8.87-.89V312.2Z"/><path class="cls-4" d="M167.85,296.91l4,0.39v5.12H172a3,3,0,0,1,1.28-.9,4.15,4.15,0,0,1,1.88-.2,5,5,0,0,1,1.4.33,3,3,0,0,1,1.1.76,3.49,3.49,0,0,1,.72,1.32,6.55,6.55,0,0,1,.26,2c0,2.49,0,3.73,0,6.22l-2.6-.24V306a2.68,2.68,0,0,0-.52-1.81,2,2,0,0,0-1.36-.67,2.17,2.17,0,0,0-2.24,1.39c0,2.55,0,3.83,0,6.38l-2.6-.25v-11.8l-1.44-.14v-2.2Z"/><path class="cls-4" d="M190.52,311.92a3.15,3.15,0,0,1-.67.41,6,6,0,0,1-1,.35,7.06,7.06,0,0,1-1.21.22,7.69,7.69,0,0,1-1.4,0,7.12,7.12,0,0,1-2.29-.56,5.09,5.09,0,0,1-2.78-3,6.43,6.43,0,0,1-.37-2.24,5.6,5.6,0,0,1,.42-2.27,4.09,4.09,0,0,1,1.15-1.55,4.31,4.31,0,0,1,1.71-.84,6.45,6.45,0,0,1,2.12-.14,6.89,6.89,0,0,1,1.57.34,4.77,4.77,0,0,1,1.49.82,4.19,4.19,0,0,1,1.11,1.41,4.68,4.68,0,0,1,.43,2.12,9.28,9.28,0,0,1-.2,1.84l-7.2-.63a2.36,2.36,0,0,0,.93,1.88,3.2,3.2,0,0,0,.94.49,4.91,4.91,0,0,0,1.13.23,5.69,5.69,0,0,0,2-.11,3.77,3.77,0,0,0,1.25-.57Zm-4.32-7.52a3.22,3.22,0,0,0-1,.06,2.47,2.47,0,0,0-.83.34,2,2,0,0,0-.61.63,2,2,0,0,0-.28.89l4.92,0.43A2.19,2.19,0,0,0,186.2,304.41Z"/><path class="cls-4" d="M193.59,299.24l4.26,0.35v9.24a4.48,4.48,0,0,0,.38,2.17,1.47,1.47,0,0,0,1.22.7,3.31,3.31,0,0,0,1,0,3.63,3.63,0,0,0,.8-0.3l1,1.88-0.68.36a3.93,3.93,0,0,1-.72.26,4.73,4.73,0,0,1-.83.13,6.52,6.52,0,0,1-1,0,4.1,4.1,0,0,1-2.82-1.19,4,4,0,0,1-.94-2.8c0-3.36,0-5,0-8.4l-1.66-.14C193.59,300.56,193.59,300.12,193.59,299.24Z"/><path class="cls-4" d="M203.85,304.08l3.4,0.27,0.3,1.22h0.08a3.56,3.56,0,0,1,3.36-1.22,5,5,0,0,1,1.69.42,3.65,3.65,0,0,1,1.32,1,4.67,4.67,0,0,1,.85,1.62,7.68,7.68,0,0,1,.3,2.28,7.09,7.09,0,0,1-.34,2.28,4.48,4.48,0,0,1-1,1.68,3.81,3.81,0,0,1-1.56,1,5.3,5.3,0,0,1-2.1.22,8.33,8.33,0,0,1-1.22-.18,3.65,3.65,0,0,1-1-.37c0,1.64,0,2.46,0,4.1l-2.6-.2c0-4.72,0-7.08,0-11.8l-1.5-.12v-2.2Zm6.36,2.41a2.53,2.53,0,0,0-1.39.27,1.77,1.77,0,0,0-.87,1.07V312a2.36,2.36,0,0,0,.81.41,4.64,4.64,0,0,0,1.07.21,2.73,2.73,0,0,0,1-.11,1.92,1.92,0,0,0,.84-0.55,2.68,2.68,0,0,0,.56-1,5.06,5.06,0,0,0,.2-1.52,3.16,3.16,0,0,0-.64-2.09A2.26,2.26,0,0,0,210.22,306.49Z"/><path class="cls-4" d="M226.56,314.68a3.24,3.24,0,0,1-.67.43,6,6,0,0,1-1,.36,7.11,7.11,0,0,1-1.21.24,7.71,7.71,0,0,1-1.4,0,7,7,0,0,1-2.29-.52,5,5,0,0,1-2.78-2.91,6.37,6.37,0,0,1-.37-2.24,5.66,5.66,0,0,1,.42-2.28,4.19,4.19,0,0,1,1.15-1.57,4.41,4.41,0,0,1,1.71-.87,6.5,6.5,0,0,1,2.12-.18,6.85,6.85,0,0,1,1.57.31,4.65,4.65,0,0,1,1.49.79,4.07,4.07,0,0,1,1.11,1.39,4.65,4.65,0,0,1,.43,2.11,9.2,9.2,0,0,1-.2,1.85l-7.21-.5a2.42,2.42,0,0,0,.27,1.1,2.38,2.38,0,0,0,.66.77,3.12,3.12,0,0,0,.94.48,4.86,4.86,0,0,0,1.13.21,5.73,5.73,0,0,0,2-.14,3.86,3.86,0,0,0,1.25-.59Zm-4.33-7.44a3.25,3.25,0,0,0-1,.07,2.53,2.53,0,0,0-.83.36,2.07,2.07,0,0,0-.61.64,2,2,0,0,0-.28.9l4.93,0.34a2.33,2.33,0,0,0-.55-1.62A2.36,2.36,0,0,0,222.23,307.25Z"/><path class="cls-4" d="M228.66,313.68l2.48,0.16v-5.6l-2.48-.16v-2.2l4.51,0.29,0.3,1.34h0.08a4.81,4.81,0,0,1,1.28-1,3,3,0,0,1,1.68-.33,2.44,2.44,0,0,1,1.89,1,5,5,0,0,1,.69,3l-2.34-.14a2.1,2.1,0,0,0-.21-1.06,0.8,0.8,0,0,0-.67-0.37,1.89,1.89,0,0,0-1.29.32,3.7,3.7,0,0,0-.83.87V314l4.35,0.27v2.2l-9.43-.6v-2.2Z"/><path class="cls-4" d="M249,321.37a9.85,9.85,0,0,1-2.73-1,8.66,8.66,0,0,1-2.34-1.92,9.18,9.18,0,0,1-1.63-2.82,10.69,10.69,0,0,1-.61-3.76,10.11,10.11,0,0,1,.61-3.67,8.05,8.05,0,0,1,1.63-2.65,7.49,7.49,0,0,1,2.34-1.68A9.48,9.48,0,0,1,249,303l0.48,2.17a8,8,0,0,0-1.59.48,5.39,5.39,0,0,0-1.69,1.12,6.2,6.2,0,0,0-1.35,2,7.87,7.87,0,0,0-.55,3.17,7.62,7.62,0,0,0,.58,3.14,7.44,7.44,0,0,0,1.41,2.15A6.77,6.77,0,0,0,248,318.6a7.11,7.11,0,0,0,1.48.61Z"/><path class="cls-4" d="M254,315.2l3.07,0.16v-8.74l-2.65,1.88-1.2-1.66,4.57-3.24,1.76,0.09c0,4.72,0,7.08,0,11.8l3,0.15v2.2L254,317.4v-2.2Z"/><path class="cls-4" d="M265,308.34a4.8,4.8,0,0,1,.35-1.86,4,4,0,0,1,1-1.42,4.3,4.3,0,0,1,1.52-.89,5.32,5.32,0,0,1,2-.26,6,6,0,0,1,2,.43,4.57,4.57,0,0,1,1.58,1.08,4.79,4.79,0,0,1,1,1.7,6.76,6.76,0,0,1,.36,2.29,11.68,11.68,0,0,1-.6,4,7.8,7.8,0,0,1-1.62,2.73,6.56,6.56,0,0,1-2.36,1.62,9,9,0,0,1-2.81.63L267,316.29a6.75,6.75,0,0,0,2-.45,5.64,5.64,0,0,0,1.55-.92,4.87,4.87,0,0,0,1.08-1.29,4.37,4.37,0,0,0,.54-1.59,2.86,2.86,0,0,1-1.08.62,4.42,4.42,0,0,1-1.58.18h0a5,5,0,0,1-1.54-.33,4.44,4.44,0,0,1-1.41-.87,4.5,4.5,0,0,1-1-1.4A4.33,4.33,0,0,1,265,308.34Zm2.53,0a2.29,2.29,0,0,0,.21,1,2.36,2.36,0,0,0,.55.74,2.51,2.51,0,0,0,.79.48,3,3,0,0,0,.93.19,3.48,3.48,0,0,0,1.42-.2,2,2,0,0,0,.88-0.6,5.44,5.44,0,0,0,.06-0.8,3.89,3.89,0,0,0-.16-1.11,3.12,3.12,0,0,0-.48-1,2.53,2.53,0,0,0-.8-0.71,2.44,2.44,0,0,0-1.1-.3A2.11,2.11,0,0,0,267.55,308.32Z"/><path class="cls-4" d="M277.53,320.86l8.9,0.35v2.14l-8.9-.35C277.53,322.14,277.53,321.72,277.53,320.86Z"/><path class="cls-4" d="M289.08,309.35a4.83,4.83,0,0,1,.35-1.87,4,4,0,0,1,1-1.44,4.38,4.38,0,0,1,1.52-.91,5.35,5.35,0,0,1,2-.28,6,6,0,0,1,2,.41,4.48,4.48,0,0,1,1.58,1.06,4.72,4.72,0,0,1,1,1.69,6.68,6.68,0,0,1,.36,2.28,11.71,11.71,0,0,1-.6,4,8,8,0,0,1-1.61,2.75,6.67,6.67,0,0,1-2.36,1.64,9.1,9.1,0,0,1-2.81.66L291,317.28a6.83,6.83,0,0,0,2-.47,5.73,5.73,0,0,0,1.55-.94,5,5,0,0,0,1.08-1.3,4.42,4.42,0,0,0,.54-1.59,2.89,2.89,0,0,1-1.08.63,4.43,4.43,0,0,1-1.58.2h0a5,5,0,0,1-1.55-.31,4.39,4.39,0,0,1-1.41-.85,4.44,4.44,0,0,1-1-1.39A4.3,4.3,0,0,1,289.08,309.35Zm2.53-.05a2.26,2.26,0,0,0,.21,1,2.3,2.3,0,0,0,.55.74,2.45,2.45,0,0,0,.79.47,3,3,0,0,0,.93.18,3.5,3.5,0,0,0,1.42-.21,2,2,0,0,0,.88-0.61,5.74,5.74,0,0,0,.06-0.8,3.92,3.92,0,0,0-.16-1.1,3.06,3.06,0,0,0-.48-1,2.5,2.5,0,0,0-.8-0.7,2.41,2.41,0,0,0-1.1-.29A2.13,2.13,0,0,0,291.61,309.3Z"/><path class="cls-4" d="M304.79,317.45a4.42,4.42,0,0,0,1.22-.13,3,3,0,0,0,1-.43,2,2,0,0,0,.64-0.72,2.21,2.21,0,0,0-.64-2.75,4.56,4.56,0,0,0-2.62-.7h-1.68c0-2.93,0-4.39,0-7.32l7.26,0.2V308l-5-.13v2.7h0.82a5.92,5.92,0,0,1,1.86.34,4.38,4.38,0,0,1,1.5.91,4.1,4.1,0,0,1,1,1.44,4.71,4.71,0,0,1,.35,1.84,4.54,4.54,0,0,1-.44,2.06,4.15,4.15,0,0,1-1.2,1.46,5.23,5.23,0,0,1-1.76.86,7.16,7.16,0,0,1-2.14.25,5.34,5.34,0,0,1-.94-0.12c-0.33-.07-0.66-0.15-1-0.25a8.89,8.89,0,0,1-.89-0.31c-0.27-.12-0.51-0.22-0.69-0.32l0.84-2.06a6.06,6.06,0,0,0,1.05.47A4.7,4.7,0,0,0,304.79,317.45Z"/><path class="cls-4" d="M313.27,316.26a3.41,3.41,0,0,1,.23-1.28,3.83,3.83,0,0,1,.6-1,4.81,4.81,0,0,1,.85-0.81,8,8,0,0,1,1-.63,6.37,6.37,0,0,1-1.67-1.41,3,3,0,0,1-.66-2,3.17,3.17,0,0,1,.34-1.45,3.48,3.48,0,0,1,1-1.16,4.44,4.44,0,0,1,1.46-.75,5.72,5.72,0,0,1,1.82-.24,5.89,5.89,0,0,1,1.7.28,4.71,4.71,0,0,1,1.39.71,3.31,3.31,0,0,1,.94,1.09,2.91,2.91,0,0,1,.34,1.4,3.46,3.46,0,0,1-.61,2,5.2,5.2,0,0,1-1.67,1.49,6.38,6.38,0,0,1,1.92,1.5,3.28,3.28,0,0,1,.71,2.17,3.35,3.35,0,0,1-.39,1.62,3.85,3.85,0,0,1-1.05,1.23,4.85,4.85,0,0,1-1.56.78,6,6,0,0,1-1.9.25,6.26,6.26,0,0,1-1.86-.31,5.05,5.05,0,0,1-1.5-.78,3.58,3.58,0,0,1-1-1.18A3.24,3.24,0,0,1,313.27,316.26Zm7.14-.18a1.45,1.45,0,0,0-.26-0.87,2.92,2.92,0,0,0-.65-0.65,6.13,6.13,0,0,0-.86-0.53l-0.91-.49a3.79,3.79,0,0,0-1.55,1.1,2.12,2.12,0,0,0-.54,1.3,1.68,1.68,0,0,0,.64,1.4,2.93,2.93,0,0,0,1.78.53,2.79,2.79,0,0,0,1.68-.44A1.54,1.54,0,0,0,320.41,316.08Zm-4.31-6.79a1.5,1.5,0,0,0,.21.82,2.3,2.3,0,0,0,.54.59,4.49,4.49,0,0,0,.75.47l0.84,0.42a3.65,3.65,0,0,0,.63-0.39,3.35,3.35,0,0,0,.55-0.52,2.91,2.91,0,0,0,.39-0.59,1.41,1.41,0,0,0,.15-0.63,1.45,1.45,0,0,0-.18-0.73,1.84,1.84,0,0,0-.47-0.54,2.14,2.14,0,0,0-.65-0.34,2.57,2.57,0,0,0-.74-0.12,2.28,2.28,0,0,0-.81.12,2.24,2.24,0,0,0-.64.35,1.53,1.53,0,0,0-.42.51A1.31,1.31,0,0,0,316.1,309.29Z"/><path class="cls-4" d="M325.67,322.28l8.91,0.13c0,0.86,0,1.28,0,2.14l-8.91-.13C325.67,323.56,325.67,323.13,325.67,322.28Z"/><path class="cls-4" d="M347.71,316.3l-2.41,0v3.9l-2.43,0v-3.9l-6.08-.06v-1.78l6.36-8.35,2.15,0v8.12l2.41,0v2.08Zm-4.84-6.55-3.49,4.41,3.49,0v-4.44Z"/><path class="cls-4" d="M348.94,313.18a11.92,11.92,0,0,1,.38-3.19,6.54,6.54,0,0,1,1.08-2.26,4.44,4.44,0,0,1,1.66-1.34,5.05,5.05,0,0,1,2.16-.44,4.66,4.66,0,0,1,3.91,1.78q1.37,1.77,1.37,5.49a12,12,0,0,1-.38,3.21A6.66,6.66,0,0,1,358,318.7a4.4,4.4,0,0,1-1.67,1.36,5.1,5.1,0,0,1-2.17.44,4.53,4.53,0,0,1-3.91-1.88A9.23,9.23,0,0,1,348.94,313.18Zm2.61,0c0,0.2,0,.39,0,0.57s0,0.36,0,.55l4.86-4.45a2.25,2.25,0,0,0-2.25-1.72,2.14,2.14,0,0,0-2,1.22A8.15,8.15,0,0,0,351.54,313.2Zm5.34,0q0-.32,0-0.61c0-.19,0-0.38,0-0.57L352,316.48a2.3,2.3,0,0,0,2.25,1.83,2.16,2.16,0,0,0,2-1.22A8.16,8.16,0,0,0,356.88,313.21Z"/><path class="cls-4" d="M361,313.22a11.93,11.93,0,0,1,.38-3.19,6.59,6.59,0,0,1,1.08-2.27,4.48,4.48,0,0,1,1.66-1.35,5.07,5.07,0,0,1,2.16-.46,4.63,4.63,0,0,1,3.91,1.76q1.37,1.76,1.37,5.48a12,12,0,0,1-.38,3.21,6.71,6.71,0,0,1-1.08,2.29,4.44,4.44,0,0,1-1.67,1.37,5.12,5.12,0,0,1-2.16.46,4.5,4.5,0,0,1-3.91-1.86A9.19,9.19,0,0,1,361,313.22Zm2.61,0c0,0.2,0,.39,0,0.57s0,0.36,0,.55l4.86-4.48a2.24,2.24,0,0,0-2.25-1.71,2.16,2.16,0,0,0-2,1.24A8.18,8.18,0,0,0,363.58,313.21Zm5.34,0c0-.21,0-0.42,0-0.61s0-.38,0-0.57L364,316.49a2.28,2.28,0,0,0,2.25,1.81,2.17,2.17,0,0,0,2-1.23A8.18,8.18,0,0,0,368.92,313.2Z"/><path class="cls-4" d="M376.62,318.88a1.38,1.38,0,0,1,.45-1.08,1.67,1.67,0,0,1,1.13-.41,2,2,0,0,1,1.67.7,2.79,2.79,0,0,1,.56,1.78,3.8,3.8,0,0,1-.35,1.64,4.4,4.4,0,0,1-.91,1.29,5,5,0,0,1-1.25.89,5.18,5.18,0,0,1-1.38.47L376,323.07a5.87,5.87,0,0,0,1-.35,4,4,0,0,0,.89-0.56,3.15,3.15,0,0,0,.67-0.78,2.16,2.16,0,0,0,.31-1,2.57,2.57,0,0,1-1,0,1.53,1.53,0,0,1-.69-0.31,1.29,1.29,0,0,1-.39-0.56A2.07,2.07,0,0,1,376.62,318.88Z"/><path class="cls-4" d="M394.78,319.93l-8.95.14v-1.94l0.6-.54,0.81-.76q0.45-.43,1-0.93c0.33-.34.66-0.69,1-1.05q0.68-.77,1.2-1.4a9.85,9.85,0,0,0,.84-1.18,4.93,4.93,0,0,0,.49-1.09,3.78,3.78,0,0,0,.16-1.09,1.78,1.78,0,0,0-.18-0.78,2.1,2.1,0,0,0-.5-0.66,2.34,2.34,0,0,0-.77-0.45,2.78,2.78,0,0,0-1-.16,3.79,3.79,0,0,0-1.31.24,4.54,4.54,0,0,0-1.23.76l-1-1.83a9.1,9.1,0,0,1,1.88-1,6.47,6.47,0,0,1,2.38-.44,5.65,5.65,0,0,1,1.66.21,4.27,4.27,0,0,1,1.4.69,3.36,3.36,0,0,1,1,1.15,3.44,3.44,0,0,1,.36,1.61,6.09,6.09,0,0,1-.11,1.19,5.88,5.88,0,0,1-.34,1.11,7.65,7.65,0,0,1-.6,1.14q-0.37.59-.89,1.27c-0.27.35-.56,0.71-0.87,1.06s-0.62.7-.93,1-0.61.63-.91,0.91-0.57.52-.81,0.71l5.78-.09v2.2Z"/><path class="cls-4" d="M398.73,321.92a6.88,6.88,0,0,0,1.48-.56,6.43,6.43,0,0,0,1.72-1.26,7.06,7.06,0,0,0,1.41-2.1,7.46,7.46,0,0,0,.58-3.11,8,8,0,0,0-.55-3.19,6.52,6.52,0,0,0-1.35-2.06,5.68,5.68,0,0,0-1.69-1.19,8.31,8.31,0,0,0-1.59-.54l0.48-2.15a9.79,9.79,0,0,1,2.73.88,7.87,7.87,0,0,1,2.35,1.77,8.44,8.44,0,0,1,1.64,2.71,10.29,10.29,0,0,1,.61,3.69,10.5,10.5,0,0,1-.61,3.73,8.76,8.76,0,0,1-1.64,2.76,8.2,8.2,0,0,1-2.35,1.83,9.54,9.54,0,0,1-2.73.94Z"/><path class="cls-4" d="M445.23,316.2l2.48-.11v-5.6l-2.48.11v-2.2l4.51-.2,0.3,1.31h0.08a5.68,5.68,0,0,1,1.28-1.16,3.29,3.29,0,0,1,1.68-.52,2.17,2.17,0,0,1,1.89.79,4.67,4.67,0,0,1,.69,2.91l-2.35.11a2,2,0,0,0-.21-1,0.7,0.7,0,0,0-.67-0.3,2.07,2.07,0,0,0-1.29.46,4.31,4.31,0,0,0-.83,1V316l4.35-.2V318l-9.44.43v-2.2Z"/><path class="cls-4" d="M467.18,316.28a3.77,3.77,0,0,1-.67.51,6.86,6.86,0,0,1-1,.48,7.8,7.8,0,0,1-1.21.38,7.94,7.94,0,0,1-1.4.19,6.67,6.67,0,0,1-2.3-.24,4.19,4.19,0,0,1-2.79-2.57,6.65,6.65,0,0,1,0-4.52,5,5,0,0,1,1.15-1.71,5.16,5.16,0,0,1,1.71-1.08,6.85,6.85,0,0,1,2.12-.44,6.54,6.54,0,0,1,1.57.12A4.07,4.07,0,0,1,466,308a3.42,3.42,0,0,1,1.11,1.25,4.3,4.3,0,0,1,.43,2.06,9.7,9.7,0,0,1-.2,1.87l-7.22.38a2.22,2.22,0,0,0,.27,1.07,2,2,0,0,0,.66.69,2.72,2.72,0,0,0,.94.36,4.68,4.68,0,0,0,1.13.07,6,6,0,0,0,2-.38,4.49,4.49,0,0,0,1.25-.75Zm-4.33-6.91a3.42,3.42,0,0,0-1,.19,2.91,2.91,0,0,0-.83.46,2.45,2.45,0,0,0-.61.71,2.22,2.22,0,0,0-.28.93l4.93-.26A1.87,1.87,0,0,0,462.85,309.37Z"/><path class="cls-4" d="M479.44,315.68a6.14,6.14,0,0,1-1.92,1,8.7,8.7,0,0,1-2.3.45,6.4,6.4,0,0,1-2.31-.25,4.38,4.38,0,0,1-1.7-1,4.21,4.21,0,0,1-1.05-1.61,6.06,6.06,0,0,1-.36-2.14,5.81,5.81,0,0,1,.42-2.26,5.09,5.09,0,0,1,1.17-1.73,5.43,5.43,0,0,1,1.77-1.13,7,7,0,0,1,2.22-.48,8.12,8.12,0,0,1,2.1.14,9.18,9.18,0,0,1,1.5.41c0,1.41,0,2.11,0,3.52l-2.2.13c0-.74,0-1.1,0-1.84a5.55,5.55,0,0,0-1.24-.07,3.87,3.87,0,0,0-1.11.23,2.93,2.93,0,0,0-1,.6,3.08,3.08,0,0,0-.7,1,3.15,3.15,0,0,0-.27,1.36,3,3,0,0,0,.22,1.17,2.54,2.54,0,0,0,1.61,1.48,3.5,3.5,0,0,0,1.31.15,4.86,4.86,0,0,0,1.87-.43,7.84,7.84,0,0,0,1.09-.63Z"/><path class="cls-4" d="M487.14,306.16l3.73-.24v7.8l1.52-.1v2.2l-3.16.21-0.46-1.45h-0.08a3.88,3.88,0,0,1-1.38,1.35,4.42,4.42,0,0,1-2,.63,4.5,4.5,0,0,1-1.39-.11,2.31,2.31,0,0,1-1.07-.59,2.84,2.84,0,0,1-.68-1.2,6.61,6.61,0,0,1-.24-1.95v-4l-1.14.07v-2.2l3.75-.23V312a2.94,2.94,0,0,0,.39,1.74,1.33,1.33,0,0,0,1.23.46,2.31,2.31,0,0,0,1.33-.53,2.58,2.58,0,0,0,.83-1.13v-4.26l-1.12.07C487.14,307.48,487.14,307,487.14,306.16Z"/><path class="cls-4" d="M493.32,313.55l2.48-.17c0-2.24,0-3.36,0-5.6l-2.48.17v-2.2l4.51-.31,0.3,1.3h0.08a5.85,5.85,0,0,1,1.28-1.19,3.36,3.36,0,0,1,1.68-.56,2.12,2.12,0,0,1,1.89.75,4.6,4.6,0,0,1,.69,2.89l-2.34.17a1.94,1.94,0,0,0-.21-1,0.69,0.69,0,0,0-.67-0.28,2.12,2.12,0,0,0-1.29.49,4.52,4.52,0,0,0-.83,1v4.26l4.35-.31v2.2l-9.43.66v-2.2Z"/><path class="cls-4" d="M513.67,318.52a8.79,8.79,0,0,1-2.72-.67,7.16,7.16,0,0,1-2.34-1.6,7.7,7.7,0,0,1-1.63-2.6,10,10,0,0,1-.61-3.68,10.79,10.79,0,0,1,.61-3.75,9.58,9.58,0,0,1,1.63-2.87,9.08,9.08,0,0,1,2.34-2,10.72,10.72,0,0,1,2.72-1.15l0.48,2.1a9,9,0,0,0-1.59.69,6.47,6.47,0,0,0-1.69,1.35,7.41,7.41,0,0,0-1.35,2.19,8.43,8.43,0,0,0-.55,3.24,7.09,7.09,0,0,0,.58,3.06,6.17,6.17,0,0,0,1.41,2,5.62,5.62,0,0,0,1.71,1.09,6.29,6.29,0,0,0,1.48.41Z"/><path class="cls-4" d="M521.53,311.73a4.26,4.26,0,0,0,1.21-.27,3.18,3.18,0,0,0,.94-0.55,2.61,2.61,0,0,0,.61-0.77,1.94,1.94,0,0,0,.22-0.9,1.79,1.79,0,0,0-.25-1,1.6,1.6,0,0,0-.69-0.59,3.09,3.09,0,0,0-1.06-.25,8.44,8.44,0,0,0-1.34,0l-1.12.09v-1.44l3.36-4.38-5.06.41c0-.88,0-1.32,0-2.2l8.16-.67v1.82L523,305.37l0.46,0a3.85,3.85,0,0,1,1.36.13,3.05,3.05,0,0,1,1.17.62,3.15,3.15,0,0,1,.82,1.13,4,4,0,0,1,.31,1.63,4.34,4.34,0,0,1-.47,2,5.17,5.17,0,0,1-1.24,1.55,5.85,5.85,0,0,1-1.77,1,7.65,7.65,0,0,1-2.06.46,10.05,10.05,0,0,1-1.8,0,8.27,8.27,0,0,1-1.74-.36l0.7-2.22a2.42,2.42,0,0,0,.49.16l0.7,0.14a7.25,7.25,0,0,0,.8.1A5.62,5.62,0,0,0,521.53,311.73Z"/><path class="cls-4" d="M529.66,303.35a5.17,5.17,0,0,1,.35-1.91,4.77,4.77,0,0,1,1-1.56,5.14,5.14,0,0,1,1.52-1.09,6.14,6.14,0,0,1,4-.37,3.81,3.81,0,0,1,1.58.87,4,4,0,0,1,1,1.57,6.32,6.32,0,0,1,.36,2.24,12.4,12.4,0,0,1-.6,4.05,9.31,9.31,0,0,1-1.61,2.94,7.91,7.91,0,0,1-2.35,1.93,10,10,0,0,1-2.8,1l-0.56-2a7.51,7.51,0,0,0,2-.71,6.75,6.75,0,0,0,1.55-1.13,5.9,5.9,0,0,0,1.08-1.44,4.93,4.93,0,0,0,.54-1.66,3.39,3.39,0,0,1-1.08.77,4.71,4.71,0,0,1-1.58.39h0a4.68,4.68,0,0,1-1.54-.12,3.68,3.68,0,0,1-2.44-1.94A4,4,0,0,1,529.66,303.35Zm2.52-.36a2.11,2.11,0,0,0,.21,1,1.94,1.94,0,0,0,.55.67,2.11,2.11,0,0,0,.79.37,2.82,2.82,0,0,0,.93.07,3.75,3.75,0,0,0,1.42-.39A2.39,2.39,0,0,0,537,304a5.89,5.89,0,0,0,.06-0.8,3.72,3.72,0,0,0-.16-1.09,2.65,2.65,0,0,0-.48-0.92,2.09,2.09,0,0,0-.8-0.6,2.24,2.24,0,0,0-1.1-.15A2.46,2.46,0,0,0,532.18,303Z"/><path class="cls-4" d="M542.14,314.2l8.88-.84v2.14l-8.88.84V314.2Z"/><path class="cls-4" d="M553.65,301.14a5.21,5.21,0,0,1,.35-1.91,4.85,4.85,0,0,1,1-1.57,5.22,5.22,0,0,1,1.52-1.11,5.75,5.75,0,0,1,2-.55,5.65,5.65,0,0,1,2,.13,3.75,3.75,0,0,1,1.58.85,4,4,0,0,1,1,1.56,6.3,6.3,0,0,1,.36,2.23,12.48,12.48,0,0,1-.6,4.06,9.46,9.46,0,0,1-1.61,3,8,8,0,0,1-2.35,2,10.11,10.11,0,0,1-2.8,1l-0.56-2a7.59,7.59,0,0,0,2-.74,6.86,6.86,0,0,0,1.55-1.15,6,6,0,0,0,1.08-1.45,5,5,0,0,0,.54-1.66,3.45,3.45,0,0,1-1.08.78,4.74,4.74,0,0,1-1.58.41h0a4.66,4.66,0,0,1-1.54-.11,3.71,3.71,0,0,1-1.41-.66,3.66,3.66,0,0,1-1-1.25A4,4,0,0,1,553.65,301.14Zm2.52-.39a2.09,2.09,0,0,0,.21,1,1.92,1.92,0,0,0,.55.66,2.1,2.1,0,0,0,.79.36,2.81,2.81,0,0,0,.93.06,3.78,3.78,0,0,0,1.42-.4,2.43,2.43,0,0,0,.88-0.73,5.92,5.92,0,0,0,.06-0.81,3.71,3.71,0,0,0-.16-1.08,2.61,2.61,0,0,0-.48-0.91,2.05,2.05,0,0,0-.8-0.59,2.23,2.23,0,0,0-1.1-.14A2.5,2.5,0,0,0,556.17,300.75Z"/><path class="cls-4" d="M566.68,307.24l3.06-.32v-8.74l-2.64,2.3L565.9,299l4.56-4,1.76-.19c0,4.72,0,7.08,0,11.8l3-.32v2.2l-8.53.91v-2.2Z"/><path class="cls-4" d="M587.45,302.81a4.78,4.78,0,0,1-.37,1.86,5.37,5.37,0,0,1-1,1.57,5.5,5.5,0,0,1-1.53,1.16,5.65,5.65,0,0,1-3.85.46,3.82,3.82,0,0,1-1.59-.81,4.05,4.05,0,0,1-1.08-1.54,5.89,5.89,0,0,1-.4-2.27,9.69,9.69,0,0,1,.69-3.68,11.51,11.51,0,0,1,1.77-3,10.88,10.88,0,0,1,2.42-2.19,9.14,9.14,0,0,1,2.66-1.23l0.58,2a8.69,8.69,0,0,0-3.61,2.15,7.77,7.77,0,0,0-1.21,1.56,5.6,5.6,0,0,0-.67,1.69,3.62,3.62,0,0,1,1.2-1,4.7,4.7,0,0,1,1.76-.55,4.59,4.59,0,0,1,1.68.1,3.23,3.23,0,0,1,2.25,1.93A4.47,4.47,0,0,1,587.45,302.81Zm-2.51.39a1.83,1.83,0,0,0-.65-1.57,2.38,2.38,0,0,0-1.75-.36,3.16,3.16,0,0,0-1.44.52,3,3,0,0,0-.94.94,3.37,3.37,0,0,0-.05.5c0,0.18,0,.32,0,0.43a2.53,2.53,0,0,0,.16.9,1.92,1.92,0,0,0,.47.72,1.9,1.9,0,0,0,.75.44,2.45,2.45,0,0,0,1,.08,2.68,2.68,0,0,0,.9-0.27,3,3,0,0,0,.78-0.56,2.72,2.72,0,0,0,.55-0.79A2.31,2.31,0,0,0,584.94,303.2Z"/><path class="cls-4" d="M590.09,309.19l8.86-1.05v2.14l-8.86,1.05v-2.14Z"/><path class="cls-4" d="M601.7,302a3.69,3.69,0,0,1,.23-1.31,4.69,4.69,0,0,1,.6-1.11,6,6,0,0,1,.85-0.93,9.77,9.77,0,0,1,1-.77,5.16,5.16,0,0,1-1.66-1.16,2.7,2.7,0,0,1-.66-1.91,3.5,3.5,0,0,1,.34-1.5,4.27,4.27,0,0,1,.95-1.3,5.31,5.31,0,0,1,1.45-1,6.17,6.17,0,0,1,1.82-.51,5.59,5.59,0,0,1,1.68,0,4,4,0,0,1,1.39.5,2.59,2.59,0,0,1,1.28,2.3,3.91,3.91,0,0,1-.61,2.14,6.43,6.43,0,0,1-1.67,1.73,5.17,5.17,0,0,1,1.9,1.22,2.9,2.9,0,0,1,.71,2.07,3.71,3.71,0,0,1-.39,1.68,4.75,4.75,0,0,1-1,1.38,5.79,5.79,0,0,1-1.55,1,6.48,6.48,0,0,1-1.88.53,6,6,0,0,1-1.86,0,4.3,4.3,0,0,1-1.5-.56,2.89,2.89,0,0,1-1-1A3,3,0,0,1,601.7,302Zm7.1-1.22a1.3,1.3,0,0,0-.26-0.83,2.33,2.33,0,0,0-.65-0.56A5.1,5.1,0,0,0,607,299l-0.91-.36a4.66,4.66,0,0,0-1.53,1.32,2.46,2.46,0,0,0-.54,1.38,1.45,1.45,0,0,0,.64,1.31,2.65,2.65,0,0,0,1.78.27,3.14,3.14,0,0,0,1.68-.68A1.81,1.81,0,0,0,608.8,300.81Zm-4.29-6.16a1.36,1.36,0,0,0,.21.78,1.82,1.82,0,0,0,.54.51,3.76,3.76,0,0,0,.75.36l0.84,0.3a4.51,4.51,0,0,0,.63-0.48,4.27,4.27,0,0,0,.55-0.6,3.49,3.49,0,0,0,.39-0.65,1.57,1.57,0,0,0,.15-0.65,1.31,1.31,0,0,0-.18-0.71,1.49,1.49,0,0,0-.47-0.47,1.79,1.79,0,0,0-.65-0.25,2.44,2.44,0,0,0-.74,0,2.48,2.48,0,0,0-.81.24,2.68,2.68,0,0,0-.64.44,1.88,1.88,0,0,0-.42.57A1.46,1.46,0,0,0,604.51,294.65Z"/><path class="cls-4" d="M613.23,297a12.58,12.58,0,0,1,.38-3.24,7.64,7.64,0,0,1,1.07-2.41,5.37,5.37,0,0,1,1.65-1.56,5.52,5.52,0,0,1,2.14-.73,4.07,4.07,0,0,1,3.88,1.26q1.36,1.59,1.36,5.31a12.67,12.67,0,0,1-.38,3.26,7.77,7.77,0,0,1-1.07,2.42,5.33,5.33,0,0,1-1.66,1.58,5.58,5.58,0,0,1-2.15.73,3.94,3.94,0,0,1-3.88-1.36Q613.23,300.55,613.23,297Zm2.59-.34c0,0.2,0,.39,0,0.57s0,0.36,0,.55l4.83-5.09a1.92,1.92,0,0,0-2.23-1.42,2.52,2.52,0,0,0-1.95,1.49A8.81,8.81,0,0,0,615.82,296.65Zm5.3-.7q0-.32,0-0.61c0-.19,0-0.38,0-0.57l-4.85,5.1a2,2,0,0,0,2.23,1.53,2.54,2.54,0,0,0,2-1.48A8.81,8.81,0,0,0,621.12,296Z"/><path class="cls-4" d="M625.19,295.41a12.61,12.61,0,0,1,.38-3.24,7.69,7.69,0,0,1,1.07-2.41,5.41,5.41,0,0,1,1.65-1.57,5.55,5.55,0,0,1,2.14-.74,4,4,0,0,1,3.88,1.23q1.36,1.58,1.36,5.3a12.69,12.69,0,0,1-.38,3.26,7.82,7.82,0,0,1-1.07,2.43,5.37,5.37,0,0,1-1.66,1.59,5.6,5.6,0,0,1-2.15.75,3.91,3.91,0,0,1-3.88-1.34Q625.19,299,625.19,295.41Zm2.59-.35c0,0.2,0,.39,0,0.57s0,0.36,0,.55l4.82-5.12a1.9,1.9,0,0,0-2.23-1.41,2.54,2.54,0,0,0-1.95,1.5A8.85,8.85,0,0,0,627.78,295.06Zm5.3-.73q0-.32,0-0.61c0-.19,0-0.38,0-0.57l-4.84,5.13a1.94,1.94,0,0,0,2.23,1.51,2.56,2.56,0,0,0,2-1.49A8.84,8.84,0,0,0,633.08,294.33Z"/><path class="cls-4" d="M640.72,299a1.59,1.59,0,0,1,.45-1.14,1.89,1.89,0,0,1,1.13-.56,1.73,1.73,0,0,1,1.65.48,2.5,2.5,0,0,1,.56,1.7,4.15,4.15,0,0,1-.35,1.69,5.29,5.29,0,0,1-.9,1.41,6.06,6.06,0,0,1-1.24,1.06,5.89,5.89,0,0,1-1.36.66l-0.54-1a6.69,6.69,0,0,0,1-.48,4.78,4.78,0,0,0,.89-0.68,3.82,3.82,0,0,0,.67-0.87,2.42,2.42,0,0,0,.31-1,2.63,2.63,0,0,1-1,.18,1.32,1.32,0,0,1-.69-0.22,1.07,1.07,0,0,1-.39-0.51A2,2,0,0,1,640.72,299Z"/><path class="cls-4" d="M650.44,296.66l3-.45v-8.74l-2.63,2.41-1.19-1.42,4.54-4.16L656,284v11.8l3-.45v2.2l-8.5,1.28v-2.2Z"/><path class="cls-4" d="M662.65,299.07a7.88,7.88,0,0,0,1.47-.76,7.8,7.8,0,0,0,1.7-1.48,8.47,8.47,0,0,0,1.4-2.29,8.09,8.09,0,0,0,.58-3.19,7.55,7.55,0,0,0-.55-3.11,5.41,5.41,0,0,0-1.34-1.88,4.68,4.68,0,0,0-1.68-1,7.38,7.38,0,0,0-1.58-.33l0.48-2.21a8.72,8.72,0,0,1,2.7.52,6.5,6.5,0,0,1,2.33,1.46,7,7,0,0,1,1.62,2.49,9.72,9.72,0,0,1,.61,3.61,11.29,11.29,0,0,1-.61,3.82,10.36,10.36,0,0,1-1.62,3,9.92,9.92,0,0,1-2.33,2.14,10.78,10.78,0,0,1-2.7,1.3Z"/><path class="cls-4" d="M49.32,244.29l2.46,0.39v-5.6l-2.46-.39v-2.2l4.47,0.7,0.3,1.37h0.08a4.21,4.21,0,0,1,1.27-.9,2.88,2.88,0,0,1,1.67-.18A2.7,2.7,0,0,1,59,238.66a5.39,5.39,0,0,1,.69,3l-2.33-.36a2.21,2.21,0,0,0-.21-1.08,0.88,0.88,0,0,0-.67-0.43,1.77,1.77,0,0,0-1.28.2,3.19,3.19,0,0,0-.83.79v4.26l4.32,0.67V248l-9.36-1.46v-2.2Z"/><path class="cls-4" d="M71.1,248.76a2.91,2.91,0,0,1-.67.37,5.53,5.53,0,0,1-1,.29,6.83,6.83,0,0,1-1.2.14,7.68,7.68,0,0,1-1.39-.09,7.39,7.39,0,0,1-2.28-.7,5.53,5.53,0,0,1-2.76-3.13,6.66,6.66,0,0,1-.37-2.27,5.45,5.45,0,0,1,.42-2.25A3.75,3.75,0,0,1,63,239.65a4,4,0,0,1,1.7-.73,6.34,6.34,0,0,1,2.11,0,7.12,7.12,0,0,1,1.56.43,5.13,5.13,0,0,1,1.48.91,4.57,4.57,0,0,1,1.1,1.47,4.88,4.88,0,0,1,.43,2.14,9.17,9.17,0,0,1-.2,1.83l-7.16-1.07a2.55,2.55,0,0,0,.27,1.12,2.68,2.68,0,0,0,.66.82,3.43,3.43,0,0,0,.94.55,5.05,5.05,0,0,0,1.12.3,5.6,5.6,0,0,0,2,0,3.51,3.51,0,0,0,1.24-.5ZM66.81,241a3.18,3.18,0,0,0-1,0,2.31,2.31,0,0,0-.83.29,1.84,1.84,0,0,0-.61.59,1.87,1.87,0,0,0-.28.87L69,243.47a2.52,2.52,0,0,0-.55-1.66A2.55,2.55,0,0,0,66.81,241Z"/><path class="cls-4" d="M83.29,250.61a4.88,4.88,0,0,1-1.91.66,8.12,8.12,0,0,1-2.29,0,7.13,7.13,0,0,1-2.3-.71,5.73,5.73,0,0,1-1.69-1.31,5.49,5.49,0,0,1-1-1.82,6.7,6.7,0,0,1-.36-2.21,5.22,5.22,0,0,1,.42-2.18,3.84,3.84,0,0,1,1.16-1.49,4.22,4.22,0,0,1,1.76-.77,6.51,6.51,0,0,1,2.21,0,8.83,8.83,0,0,1,2.09.56,11.16,11.16,0,0,1,1.49.71v3.52l-2.19-.31v-1.84A6,6,0,0,0,79.4,243a3.58,3.58,0,0,0-1.1,0,2.23,2.23,0,0,0-1.67,1.23,2.81,2.81,0,0,0-.27,1.3,3.36,3.36,0,0,0,.22,1.21,3.37,3.37,0,0,0,1.6,1.8,3.92,3.92,0,0,0,1.3.42,4.45,4.45,0,0,0,1.86-.06,6.32,6.32,0,0,0,1.09-.41Z"/><path class="cls-4" d="M90.93,242.63l3.71,0.5v7.8l1.51,0.2v2.2L93,252.92l-0.46-1.54H92.47a2.89,2.89,0,0,1-1.38,1.07,3.89,3.89,0,0,1-2,.22,4.94,4.94,0,0,1-1.39-.39,3,3,0,0,1-1.07-.81,3.65,3.65,0,0,1-.68-1.33,7.16,7.16,0,0,1-.24-2v-4l-1.13-.16v-2.2l3.72,0.52v5.68a3.36,3.36,0,0,0,.39,1.81,1.65,1.65,0,0,0,1.23.71,2,2,0,0,0,2.15-1.23V245l-1.12-.15v-2.2Z"/><path class="cls-4" d="M97.09,251.26l2.47,0.33V246l-2.47-.33c0-.88,0-1.32,0-2.2l4.48,0.59,0.3,1.36H102a4.34,4.34,0,0,1,1.28-.93,2.92,2.92,0,0,1,1.67-.22,2.63,2.63,0,0,1,1.88,1.12,5.29,5.29,0,0,1,.69,3l-2.33-.3a2.19,2.19,0,0,0-.21-1.08,0.86,0.86,0,0,0-.67-0.42,1.8,1.8,0,0,0-1.29.23,3.34,3.34,0,0,0-.83.81v4.26l4.33,0.56v2.2l-9.39-1.23C97.09,252.58,97.09,252.14,97.09,251.26Z"/><path class="cls-4" d="M117.35,260.3a10.5,10.5,0,0,1-2.71-1.22A9.51,9.51,0,0,1,112.3,257a10,10,0,0,1-1.62-2.93,11.07,11.07,0,0,1-.61-3.8,9.83,9.83,0,0,1,.61-3.63,7.36,7.36,0,0,1,1.62-2.54,6.81,6.81,0,0,1,2.33-1.53,9,9,0,0,1,2.71-.6l0.48,2.2a7.53,7.53,0,0,0-1.59.37,4.88,4.88,0,0,0-1.69,1,5.64,5.64,0,0,0-1.35,1.92,7.64,7.64,0,0,0-.55,3.13,7.93,7.93,0,0,0,.58,3.17,8.1,8.1,0,0,0,1.41,2.24,7.42,7.42,0,0,0,1.71,1.43,7.6,7.6,0,0,0,1.48.71Z"/><path class="cls-4" d="M125.19,255.09a4,4,0,0,0,1.21,0,2.49,2.49,0,0,0,.94-0.37,2,2,0,0,0,.61-0.65,1.69,1.69,0,0,0,.22-0.86,2.06,2.06,0,0,0-.25-1,2.14,2.14,0,0,0-.69-0.73,3.7,3.7,0,0,0-1.06-.46,8.85,8.85,0,0,0-1.34-.26l-1.12-.13v-1.44l3.35-3.71-5-.6v-2.2l8.14,1v1.82L126.65,249l0.46,0.05a4.27,4.27,0,0,1,1.36.4,4,4,0,0,1,1.17.86,4.15,4.15,0,0,1,.82,1.3,4.45,4.45,0,0,1,.31,1.7,3.8,3.8,0,0,1-.47,1.95,3.85,3.85,0,0,1-1.24,1.3,4.63,4.63,0,0,1-1.77.67,7.1,7.1,0,0,1-2.06,0,10.63,10.63,0,0,1-1.8-.37,9.7,9.7,0,0,1-1.74-.71l0.7-2.08a3,3,0,0,0,.49.26l0.7,0.28a8.19,8.19,0,0,0,.8.26A6,6,0,0,0,125.19,255.09Z"/><path class="cls-4" d="M133.29,248.34a4.65,4.65,0,0,1,.35-1.84,3.63,3.63,0,0,1,1-1.36,3.94,3.94,0,0,1,1.52-.79,5.18,5.18,0,0,1,2-.13,6.26,6.26,0,0,1,2,.57,5,5,0,0,1,1.58,1.19,5.24,5.24,0,0,1,1,1.77,7,7,0,0,1,.36,2.31,11.35,11.35,0,0,1-.6,3.93,7.15,7.15,0,0,1-1.61,2.62,6,6,0,0,1-2.35,1.46,8.62,8.62,0,0,1-2.8.44l-0.56-2.1a6.48,6.48,0,0,0,2-.32,5.14,5.14,0,0,0,1.55-.82,4.41,4.41,0,0,0,1.08-1.22,4.14,4.14,0,0,0,.54-1.55,2.6,2.6,0,0,1-1.08.55,4.3,4.3,0,0,1-1.58.07h0a5.18,5.18,0,0,1-1.54-.43,4.84,4.84,0,0,1-1.41-1,5,5,0,0,1-1-1.47A4.52,4.52,0,0,1,133.29,248.34Zm2.52,0.15a2.39,2.39,0,0,0,.21,1,2.6,2.6,0,0,0,.55.78,2.73,2.73,0,0,0,.79.53,3.1,3.1,0,0,0,.93.25,3.38,3.38,0,0,0,1.42-.1,1.8,1.8,0,0,0,.88-0.54,5.49,5.49,0,0,0,.06-0.79,4,4,0,0,0-.16-1.12,3.37,3.37,0,0,0-.48-1,2.8,2.8,0,0,0-.8-0.76,2.56,2.56,0,0,0-1.1-.37A1.95,1.95,0,0,0,135.81,248.49Z"/><path class="cls-4" d="M145.75,261.69l8.87,0.94v2.14l-8.87-.94v-2.14Z"/><path class="cls-4" d="M157.26,250.95a4.68,4.68,0,0,1,.35-1.84,3.69,3.69,0,0,1,1-1.37,4,4,0,0,1,1.52-.8,5.21,5.21,0,0,1,2-.15,6.21,6.21,0,0,1,2,.54,4.9,4.9,0,0,1,1.58,1.17,5.16,5.16,0,0,1,1,1.76,6.92,6.92,0,0,1,.36,2.3,11.4,11.4,0,0,1-.6,3.94,7.27,7.27,0,0,1-1.61,2.64,6.07,6.07,0,0,1-2.35,1.49,8.68,8.68,0,0,1-2.8.48l-0.56-2.1a6.54,6.54,0,0,0,2-.34,5.21,5.21,0,0,0,1.55-.83,4.49,4.49,0,0,0,1.08-1.23,4.18,4.18,0,0,0,.54-1.56,2.65,2.65,0,0,1-1.08.56,4.32,4.32,0,0,1-1.58.09h0a5.13,5.13,0,0,1-1.54-.41,4.76,4.76,0,0,1-1.41-.94,4.87,4.87,0,0,1-1-1.45A4.49,4.49,0,0,1,157.26,250.95Zm2.52,0.12a2.37,2.37,0,0,0,.21,1,2.56,2.56,0,0,0,.55.77,2.69,2.69,0,0,0,.79.52,3.07,3.07,0,0,0,.93.24,3.4,3.4,0,0,0,1.42-.12,1.83,1.83,0,0,0,.88-0.55,5.51,5.51,0,0,0,.06-0.79,4,4,0,0,0-.16-1.12,3.33,3.33,0,0,0-.48-1,2.75,2.75,0,0,0-.8-0.75,2.53,2.53,0,0,0-1.1-.36A2,2,0,0,0,159.78,251.07Z"/><path class="cls-4" d="M170.3,259.66l3.06,0.29v-8.74L170.71,253l-1.2-1.71,4.56-3,1.76,0.16v11.8l3,0.28v2.2l-8.54-.8v-2.2Z"/><path class="cls-4" d="M191.09,259.41a4.25,4.25,0,0,1-.37,1.79,4.07,4.07,0,0,1-1,1.37,4.21,4.21,0,0,1-1.53.85,4.85,4.85,0,0,1-1.91.19,6,6,0,0,1-2-.5,5,5,0,0,1-1.59-1.13,5.32,5.32,0,0,1-1.08-1.76,6.5,6.5,0,0,1-.4-2.35,8.66,8.66,0,0,1,.69-3.54,8.77,8.77,0,0,1,1.77-2.65,8.13,8.13,0,0,1,2.42-1.71,7.59,7.59,0,0,1,2.66-.7l0.58,2.11a7.23,7.23,0,0,0-2,.48,6.5,6.5,0,0,0-1.64.95,5.8,5.8,0,0,0-1.21,1.31,4.53,4.53,0,0,0-.67,1.56,2.74,2.74,0,0,1,1.2-.74,4.19,4.19,0,0,1,1.76-.19,5.06,5.06,0,0,1,1.68.44,4.34,4.34,0,0,1,1.35,1,4.42,4.42,0,0,1,.9,1.43A5,5,0,0,1,191.09,259.41Zm-2.52-.12a2.23,2.23,0,0,0-.65-1.7,2.82,2.82,0,0,0-1.75-.71,2.74,2.74,0,0,0-1.44.23,2.23,2.23,0,0,0-.94.76,3.3,3.3,0,0,0-.05.49c0,0.18,0,.32,0,0.43a2.77,2.77,0,0,0,.16.93,2.48,2.48,0,0,0,1.22,1.4,2.72,2.72,0,0,0,1,.28,2.38,2.38,0,0,0,.9-0.09,2.31,2.31,0,0,0,.78-0.4A2,2,0,0,0,188.57,259.29Z"/><path class="cls-4" d="M193.74,266.31l8.89,0.73v2.14l-8.89-.73v-2.14Z"/><path class="cls-4" d="M205.38,261.5a3.31,3.31,0,0,1,.23-1.26,3.62,3.62,0,0,1,.6-1,4.5,4.5,0,0,1,.85-0.76,7.5,7.5,0,0,1,1-.57,6.93,6.93,0,0,1-1.66-1.5,3.21,3.21,0,0,1-.66-2,3.06,3.06,0,0,1,.34-1.43,3.21,3.21,0,0,1,1-1.11,4.14,4.14,0,0,1,1.45-.67,5.6,5.6,0,0,1,1.82-.14,6,6,0,0,1,1.69.37,5,5,0,0,1,1.39.78,3.59,3.59,0,0,1,.94,1.14,3,3,0,0,1,.34,1.42,3.33,3.33,0,0,1-.61,2,4.8,4.8,0,0,1-1.67,1.4,6.89,6.89,0,0,1,1.91,1.6,3.44,3.44,0,0,1,.71,2.21,3.24,3.24,0,0,1-.39,1.6,3.54,3.54,0,0,1-1.05,1.17,4.52,4.52,0,0,1-1.55.7,5.91,5.91,0,0,1-1.89.15,6.42,6.42,0,0,1-1.86-.41,5.4,5.4,0,0,1-1.5-.87,3.86,3.86,0,0,1-1-1.24A3.37,3.37,0,0,1,205.38,261.5Zm7.13,0.2a1.53,1.53,0,0,0-.26-0.88,3.16,3.16,0,0,0-.65-0.69,6.62,6.62,0,0,0-.86-0.57l-0.91-.54a3.51,3.51,0,0,0-1.54,1,2,2,0,0,0-.54,1.27,1.79,1.79,0,0,0,.64,1.44,3.07,3.07,0,0,0,1.78.63,2.68,2.68,0,0,0,1.68-.34A1.45,1.45,0,0,0,212.51,261.7Zm-4.3-7a1.56,1.56,0,0,0,.21.83,2.46,2.46,0,0,0,.54.62,4.83,4.83,0,0,0,.75.51l0.84,0.46a3.37,3.37,0,0,0,.63-0.35,3.09,3.09,0,0,0,.55-0.49,2.65,2.65,0,0,0,.39-0.57,1.37,1.37,0,0,0,.15-0.62,1.51,1.51,0,0,0-.18-0.74,2,2,0,0,0-.47-0.56,2.28,2.28,0,0,0-.65-0.38,2.63,2.63,0,0,0-.74-0.17,2.23,2.23,0,0,0-.81.08,2.08,2.08,0,0,0-.64.31,1.41,1.41,0,0,0-.42.49A1.27,1.27,0,0,0,208.2,254.67Z"/><path class="cls-4" d="M217,258.77a11.63,11.63,0,0,1,.38-3.16,6.05,6.05,0,0,1,1.08-2.19,4,4,0,0,1,1.66-1.23,4.87,4.87,0,0,1,2.15-.3,5,5,0,0,1,3.9,2,9.4,9.4,0,0,1,1.37,5.58,11.72,11.72,0,0,1-.38,3.18,6.17,6.17,0,0,1-1.08,2.21,4,4,0,0,1-1.67,1.25,5.3,5.3,0,0,1-6.06-1.84A9.7,9.7,0,0,1,217,258.77Zm2.6,0.19c0,0.2,0,.39,0,0.57s0,0.36,0,.55l4.85-4.12a2.44,2.44,0,0,0-2.25-1.87,2,2,0,0,0-2,1.09A7.87,7.87,0,0,0,219.56,259Zm5.33,0.37c0-.21,0-0.42,0-0.61s0-.38,0-0.57L220,262.26a2.5,2.5,0,0,0,2.24,2,2,2,0,0,0,2-1.08A7.88,7.88,0,0,0,224.88,259.32Z"/><path class="cls-4" d="M229,259.6a11.68,11.68,0,0,1,.38-3.17,6.1,6.1,0,0,1,1.08-2.2,4.06,4.06,0,0,1,1.66-1.24,4.88,4.88,0,0,1,2.15-.31,5,5,0,0,1,3.9,2,9.37,9.37,0,0,1,1.37,5.57,11.77,11.77,0,0,1-.38,3.19,6.22,6.22,0,0,1-1.08,2.21,4,4,0,0,1-1.67,1.26,4.93,4.93,0,0,1-2.16.31,4.84,4.84,0,0,1-3.9-2.12A9.65,9.65,0,0,1,229,259.6Zm2.6,0.17c0,0.2,0,.39,0,0.57s0,0.36,0,.55l4.85-4.15a2.43,2.43,0,0,0-2.25-1.86,2,2,0,0,0-2,1.1A7.9,7.9,0,0,0,231.57,259.77Zm5.33,0.34c0-.21,0-0.42,0-0.61s0-.38,0-0.57L232,263.07a2.48,2.48,0,0,0,2.25,2,2,2,0,0,0,2-1.1A7.89,7.89,0,0,0,236.9,260.1Z"/><path class="cls-4" d="M244.59,266.31a1.3,1.3,0,0,1,.45-1.05,1.57,1.57,0,0,1,1.13-.33,2.11,2.11,0,0,1,1.66.81,3,3,0,0,1,.56,1.81,3.66,3.66,0,0,1-.35,1.62,4,4,0,0,1-.91,1.23,4.58,4.58,0,0,1-1.25.81,4.9,4.9,0,0,1-1.37.38L244,270.45a5.48,5.48,0,0,0,1-.29,3.66,3.66,0,0,0,.89-0.5,2.86,2.86,0,0,0,.67-0.73,2,2,0,0,0,.31-0.94,2.56,2.56,0,0,1-1,0,1.65,1.65,0,0,1-.69-0.36,1.42,1.42,0,0,1-.39-0.58A2.15,2.15,0,0,1,244.59,266.31Z"/><path class="cls-4" d="M254.37,265.93l3.07,0.16c0-3.5,0-5.24,0-8.74l-2.65,1.88-1.2-1.66,4.57-3.24,1.76,0.09c0,4.72,0,7.08,0,11.8l3,0.15v2.2l-8.56-.44v-2.2Z"/><path class="cls-4" d="M266.68,270.81a6.48,6.48,0,0,0,1.48-.46,5.86,5.86,0,0,0,1.71-1.14,6.44,6.44,0,0,0,1.41-2,7.2,7.2,0,0,0,.58-3.08,8.29,8.29,0,0,0-.55-3.22,7.12,7.12,0,0,0-1.35-2.15,6.22,6.22,0,0,0-1.69-1.3,8.89,8.89,0,0,0-1.59-.64l0.48-2.12a10.41,10.41,0,0,1,2.73,1.06,8.66,8.66,0,0,1,2.35,1.93,9.21,9.21,0,0,1,1.63,2.82,10.62,10.62,0,0,1,.61,3.74,10.17,10.17,0,0,1-.61,3.69,8,8,0,0,1-1.63,2.65,7.44,7.44,0,0,1-2.35,1.67,9,9,0,0,1-2.73.76Z"/><path class="cls-4" d="M398.5,256.57l7.92-.17c0,0.88,0,1.32,0,2.2l-5.44.12c0,5.68,0,8.52,0,14.2l5.44-.12c0,0.88,0,1.32,0,2.2l-7.92.17C398.5,267.73,398.5,264,398.5,256.57Z"/><path class="cls-4" d="M413.08,261.67a1.48,1.48,0,0,1,.44-1.12,1.68,1.68,0,0,1,1.16-.44,1.66,1.66,0,0,1,1.2.38,1.4,1.4,0,0,1,.44,1.1,1.52,1.52,0,0,1-.44,1.13,1.72,1.72,0,0,1-1.2.46,1.57,1.57,0,0,1-1.16-.39A1.43,1.43,0,0,1,413.08,261.67Zm0,7.24a1.48,1.48,0,0,1,.44-1.12,1.68,1.68,0,0,1,1.16-.44,1.66,1.66,0,0,1,1.2.38,1.4,1.4,0,0,1,.44,1.1,1.51,1.51,0,0,1-.44,1.13,1.71,1.71,0,0,1-1.2.45,1.58,1.58,0,0,1-1.16-.39A1.44,1.44,0,0,1,413.08,268.91Z"/><path class="cls-4" d="M421.5,267.79l2.49-.08v-5.6l-2.49.08c0-.88,0-1.32,0-2.2l4.51-.15,0.3,1.31h0.08a5.58,5.58,0,0,1,1.28-1.14,3.26,3.26,0,0,1,1.68-.5,2.2,2.2,0,0,1,1.89.81,4.71,4.71,0,0,1,.69,2.91l-2.35.08a2,2,0,0,0-.21-1,0.71,0.71,0,0,0-.67-0.31,2,2,0,0,0-1.29.44,4.24,4.24,0,0,0-.83.95v4.26l4.35-.15c0,0.88,0,1.32,0,2.2l-9.45.32C421.5,269.11,421.5,268.67,421.5,267.79Z"/><path class="cls-4" d="M443.46,268.13a3.69,3.69,0,0,1-.67.5,6.81,6.81,0,0,1-1,.47,7.73,7.73,0,0,1-1.21.37,7.9,7.9,0,0,1-1.4.18,6.7,6.7,0,0,1-2.3-.27,4.26,4.26,0,0,1-2.79-2.6,6.65,6.65,0,0,1,0-4.52,4.89,4.89,0,0,1,1.15-1.69A5.07,5.07,0,0,1,437,259.5a6.81,6.81,0,0,1,2.12-.41,6.56,6.56,0,0,1,1.57.14,4.12,4.12,0,0,1,1.49.63,3.48,3.48,0,0,1,1.11,1.26,4.33,4.33,0,0,1,.43,2.06,9.67,9.67,0,0,1-.2,1.87l-7.22.29a2.24,2.24,0,0,0,.27,1.07,2,2,0,0,0,.66.7,2.76,2.76,0,0,0,.94.37,4.68,4.68,0,0,0,1.13.08,6,6,0,0,0,2-.36,4.42,4.42,0,0,0,1.25-.73Zm-4.33-7a3.39,3.39,0,0,0-1,.18,2.87,2.87,0,0,0-.83.45,2.4,2.4,0,0,0-.61.71,2.2,2.2,0,0,0-.28.93l4.93-.2A1.89,1.89,0,0,0,439.13,261.16Z"/><path class="cls-4" d="M455.73,267.67a6,6,0,0,1-1.92,1,8.66,8.66,0,0,1-2.3.42,6.43,6.43,0,0,1-2.32-.27,4.44,4.44,0,0,1-1.7-1,4.29,4.29,0,0,1-1.05-1.62,6.08,6.08,0,0,1-.36-2.14,5.76,5.76,0,0,1,.42-2.26,5,5,0,0,1,1.17-1.71,5.36,5.36,0,0,1,1.77-1.11,7,7,0,0,1,2.23-.45,8.12,8.12,0,0,1,2.1.16,9.39,9.39,0,0,1,1.5.43v3.52l-2.21.1v-1.84a5.57,5.57,0,0,0-1.24-.08,3.85,3.85,0,0,0-1.11.22,2.87,2.87,0,0,0-1,.59,3,3,0,0,0-.7,1,3.14,3.14,0,0,0-.27,1.35,3,3,0,0,0,.22,1.17,2.59,2.59,0,0,0,1.61,1.5,3.53,3.53,0,0,0,1.31.17,4.84,4.84,0,0,0,1.88-.41,8,8,0,0,0,1.09-.61Z"/><path class="cls-4" d="M463.42,258.25l3.73-.2v7.8l1.52-.08V268l-3.17.17L465,266.68H465a3.81,3.81,0,0,1-1.38,1.33,4.38,4.38,0,0,1-2,.61,4.52,4.52,0,0,1-1.39-.13,2.35,2.35,0,0,1-1.07-.61,2.89,2.89,0,0,1-.68-1.21,6.64,6.64,0,0,1-.24-1.95v-4l-1.14.06v-2.2l3.75-.19v5.68a3,3,0,0,0,.39,1.74,1.35,1.35,0,0,0,1.23.48,2.29,2.29,0,0,0,1.33-.51,2.56,2.56,0,0,0,.83-1.12v-4.26l-1.12.06v-2.2Z"/><path class="cls-4" d="M469.61,265.71l2.49-.14V260l-2.49.14c0-.88,0-1.32,0-2.2l4.51-.25,0.3,1.3h0.08a5.74,5.74,0,0,1,1.28-1.18,3.32,3.32,0,0,1,1.68-.54,2.14,2.14,0,0,1,1.89.77,4.64,4.64,0,0,1,.69,2.9l-2.34.14a2,2,0,0,0-.21-1,0.7,0.7,0,0,0-.67-0.29,2.09,2.09,0,0,0-1.29.48,4.43,4.43,0,0,0-.83,1v4.26l4.35-.26v2.2l-9.44.54C469.61,267,469.61,266.59,469.61,265.71Z"/><path class="cls-4" d="M485.22,265.71a1.46,1.46,0,0,1,.45-1.11,1.75,1.75,0,0,1,1.13-.47,1.86,1.86,0,0,1,1.66.61,2.66,2.66,0,0,1,.56,1.74,3.93,3.93,0,0,1-.35,1.66,4.74,4.74,0,0,1-.91,1.34,5.59,5.59,0,0,1-2.63,1.51l-0.54-1.07a6.15,6.15,0,0,0,1-.4,4.3,4.3,0,0,0,.89-0.61,3.42,3.42,0,0,0,.67-0.81,2.26,2.26,0,0,0,.31-1,2.58,2.58,0,0,1-1,.09,1.44,1.44,0,0,1-.69-0.27,1.2,1.2,0,0,1-.39-0.54A2,2,0,0,1,485.22,265.71Z"/><path class="cls-4" d="M494.72,252.37l7.91-.55c0,0.88,0,1.32,0,2.2l-5.43.38c0,5.68,0,8.52,0,14.2l5.43-.38c0,0.88,0,1.32,0,2.2l-7.91.55C494.72,263.53,494.72,259.81,494.72,252.37Z"/><path class="cls-4" d="M509.85,263.36a4.25,4.25,0,0,0,1.21-.26,3.15,3.15,0,0,0,.94-0.55,2.57,2.57,0,0,0,.61-0.77,1.93,1.93,0,0,0,.22-0.9,1.8,1.8,0,0,0-.25-1,1.61,1.61,0,0,0-.69-0.59,3.11,3.11,0,0,0-1.06-.26,8.45,8.45,0,0,0-1.34,0l-1.12.08c0-.57,0-0.86,0-1.44l3.36-4.36-5.07.38c0-.88,0-1.32,0-2.2l8.17-.62v1.82L511.32,257l0.46,0a3.85,3.85,0,0,1,1.36.14,3.08,3.08,0,0,1,1.17.63,3.18,3.18,0,0,1,.82,1.14,4,4,0,0,1,.31,1.64,4.32,4.32,0,0,1-.47,2,5.13,5.13,0,0,1-1.24,1.55,5.82,5.82,0,0,1-1.77,1,7.62,7.62,0,0,1-2.06.45,10.06,10.06,0,0,1-1.8,0,8.27,8.27,0,0,1-1.74-.37l0.7-2.21a2.47,2.47,0,0,0,.49.16l0.7,0.15a7.3,7.3,0,0,0,.8.1A5.67,5.67,0,0,0,509.85,263.36Z"/><path class="cls-4" d="M518,255a5.15,5.15,0,0,1,.35-1.91,4.74,4.74,0,0,1,1-1.55,5.09,5.09,0,0,1,1.52-1.08,6.13,6.13,0,0,1,4-.34,3.86,3.86,0,0,1,1.58.88,4,4,0,0,1,1,1.57,6.38,6.38,0,0,1,.36,2.24,12.39,12.39,0,0,1-.6,4.05,9.19,9.19,0,0,1-1.61,2.93,7.85,7.85,0,0,1-2.35,1.92,9.92,9.92,0,0,1-2.8,1l-0.56-2a7.46,7.46,0,0,0,2-.7,6.7,6.7,0,0,0,1.55-1.12,5.86,5.86,0,0,0,1.08-1.43,4.91,4.91,0,0,0,.54-1.65,3.39,3.39,0,0,1-1.08.76,4.7,4.7,0,0,1-1.58.38h0a4.68,4.68,0,0,1-1.54-.13,3.71,3.71,0,0,1-2.44-2A4,4,0,0,1,518,255Zm2.52-.34a2.13,2.13,0,0,0,.21,1,2,2,0,0,0,.55.67,2.14,2.14,0,0,0,.79.37,2.82,2.82,0,0,0,.93.07,3.73,3.73,0,0,0,1.42-.38,2.34,2.34,0,0,0,.88-0.71,5.6,5.6,0,0,0,.06-0.8,3.69,3.69,0,0,0-.16-1.09,2.68,2.68,0,0,0-.48-0.92,2.11,2.11,0,0,0-.8-0.6,2.26,2.26,0,0,0-1.1-.16A2.44,2.44,0,0,0,520.5,254.69Z"/><path class="cls-4" d="M530.47,266l8.88-.79c0,0.86,0,1.28,0,2.14l-8.88.79C530.47,267.24,530.47,266.81,530.47,266Z"/><path class="cls-4" d="M542,253a5.2,5.2,0,0,1,.35-1.91,4.82,4.82,0,0,1,1-1.56,5.18,5.18,0,0,1,1.52-1.1,5.73,5.73,0,0,1,2-.54,5.65,5.65,0,0,1,2,.15,3.78,3.78,0,0,1,1.58.86,4,4,0,0,1,1,1.56,6.32,6.32,0,0,1,.36,2.23,12.44,12.44,0,0,1-.6,4.06,9.39,9.39,0,0,1-1.61,3,8,8,0,0,1-2.35,1.94,10,10,0,0,1-2.8,1l-0.56-2a7.56,7.56,0,0,0,2-.73,6.81,6.81,0,0,0,1.55-1.14,6,6,0,0,0,1.08-1.44,5,5,0,0,0,.54-1.66,3.43,3.43,0,0,1-1.08.77,4.73,4.73,0,0,1-1.58.4h0a4.68,4.68,0,0,1-1.54-.11,3.74,3.74,0,0,1-1.41-.67,3.69,3.69,0,0,1-1-1.25A4,4,0,0,1,542,253Zm2.52-.37a2.1,2.1,0,0,0,.21,1,1.92,1.92,0,0,0,.55.67,2.1,2.1,0,0,0,.79.37,2.81,2.81,0,0,0,.93.06,3.76,3.76,0,0,0,1.42-.39,2.41,2.41,0,0,0,.88-0.72,5.91,5.91,0,0,0,.06-0.8,3.71,3.71,0,0,0-.16-1.08,2.63,2.63,0,0,0-.48-0.92,2.07,2.07,0,0,0-.8-0.59,2.23,2.23,0,0,0-1.1-.15A2.48,2.48,0,0,0,544.51,252.59Z"/><path class="cls-4" d="M555,259.14l3.06-.3V250.1l-2.64,2.28-1.2-1.48L558.8,247l1.76-.18c0,4.72,0,7.08,0,11.8l3-.31v2.2l-8.53.86v-2.2Z"/><path class="cls-4" d="M575.8,254.84a4.76,4.76,0,0,1-.37,1.86,5.33,5.33,0,0,1-1,1.57,5.46,5.46,0,0,1-1.53,1.15A5.38,5.38,0,0,1,571,260a5.45,5.45,0,0,1-1.95-.12,3.85,3.85,0,0,1-1.59-.82,4.09,4.09,0,0,1-1.08-1.55,5.91,5.91,0,0,1-.4-2.28,9.65,9.65,0,0,1,.69-3.67,11.39,11.39,0,0,1,1.77-3,10.77,10.77,0,0,1,2.42-2.18,9.08,9.08,0,0,1,2.66-1.22l0.58,2a8.62,8.62,0,0,0-3.62,2.13,7.73,7.73,0,0,0-1.21,1.55,5.56,5.56,0,0,0-.67,1.69,3.59,3.59,0,0,1,1.2-1,4.69,4.69,0,0,1,1.76-.54,4.61,4.61,0,0,1,1.68.11,3.25,3.25,0,0,1,2.25,1.95A4.49,4.49,0,0,1,575.8,254.84Zm-2.52.37a1.84,1.84,0,0,0-.65-1.57,2.39,2.39,0,0,0-1.75-.37,3.14,3.14,0,0,0-1.44.51,3,3,0,0,0-.94.94,3.37,3.37,0,0,0-.05.5c0,0.18,0,.32,0,0.43a2.55,2.55,0,0,0,.16.9,1.94,1.94,0,0,0,.47.72,1.91,1.91,0,0,0,.75.44,2.46,2.46,0,0,0,1,.08,2.66,2.66,0,0,0,.9-0.27,3,3,0,0,0,.78-0.55,2.7,2.7,0,0,0,.55-0.79A2.3,2.3,0,0,0,573.29,255.22Z"/><path class="cls-4" d="M578.44,261.23l8.87-1v2.14l-8.87,1C578.44,262.52,578.44,262.09,578.44,261.23Z"/><path class="cls-4" d="M590.06,254.15a3.67,3.67,0,0,1,.23-1.31,4.63,4.63,0,0,1,.6-1.11,5.93,5.93,0,0,1,.85-0.93,9.71,9.71,0,0,1,1-.77,5.19,5.19,0,0,1-1.66-1.17,2.71,2.71,0,0,1-.66-1.91,3.48,3.48,0,0,1,.34-1.5,4.25,4.25,0,0,1,.95-1.29,5.29,5.29,0,0,1,1.45-.95,6.16,6.16,0,0,1,1.81-.5,5.61,5.61,0,0,1,1.69,0,4,4,0,0,1,1.39.51,2.7,2.7,0,0,1,.94,1,2.66,2.66,0,0,1,.34,1.35,3.88,3.88,0,0,1-.61,2.13,6.38,6.38,0,0,1-1.67,1.72,5.21,5.21,0,0,1,1.91,1.23,2.91,2.91,0,0,1,.71,2.07,3.7,3.7,0,0,1-.39,1.68,4.7,4.7,0,0,1-1,1.38,5.77,5.77,0,0,1-1.55,1,6.47,6.47,0,0,1-1.89.51,6,6,0,0,1-1.86,0,4.3,4.3,0,0,1-1.5-.57,2.91,2.91,0,0,1-1-1A3,3,0,0,1,590.06,254.15Zm7.1-1.18a1.3,1.3,0,0,0-.26-0.83,2.37,2.37,0,0,0-.65-0.56,5.12,5.12,0,0,0-.86-0.41l-0.91-.36a4.62,4.62,0,0,0-1.54,1.31,2.43,2.43,0,0,0-.54,1.37,1.45,1.45,0,0,0,.64,1.32,2.65,2.65,0,0,0,1.78.28,3.13,3.13,0,0,0,1.68-.67A1.8,1.8,0,0,0,597.16,253Zm-4.29-6.19a1.36,1.36,0,0,0,.21.79,1.87,1.87,0,0,0,.54.52,3.75,3.75,0,0,0,.75.36l0.84,0.3a4.46,4.46,0,0,0,.63-0.48,4.11,4.11,0,0,0,.55-0.6,3.49,3.49,0,0,0,.39-0.65,1.55,1.55,0,0,0,.15-0.65,1.33,1.33,0,0,0-.18-0.71,1.5,1.5,0,0,0-.47-0.47,1.81,1.81,0,0,0-.65-0.25,2.44,2.44,0,0,0-.74,0,2.47,2.47,0,0,0-.81.23,2.66,2.66,0,0,0-.64.44,1.86,1.86,0,0,0-.42.57A1.45,1.45,0,0,0,592.87,246.78Z"/><path class="cls-4" d="M601.59,249.17a12.54,12.54,0,0,1,.38-3.24,7.59,7.59,0,0,1,1.07-2.4A5.33,5.33,0,0,1,604.7,242a5.5,5.5,0,0,1,2.14-.72,4.09,4.09,0,0,1,3.88,1.28q1.36,1.6,1.36,5.32a12.64,12.64,0,0,1-.38,3.26,7.72,7.72,0,0,1-1.07,2.42,5.28,5.28,0,0,1-1.66,1.57,5.55,5.55,0,0,1-2.15.72,4,4,0,0,1-3.88-1.39A8.46,8.46,0,0,1,601.59,249.17Zm2.59-.32c0,0.2,0,.39,0,0.57s0,0.36,0,.55l4.83-5.07a1.93,1.93,0,0,0-2.24-1.44,2.5,2.5,0,0,0-1.95,1.47A8.78,8.78,0,0,0,604.19,248.85Zm5.31-.66q0-.32,0-0.61c0-.19,0-0.38,0-0.57l-4.85,5.07a2,2,0,0,0,2.24,1.54,2.52,2.52,0,0,0,2-1.47A8.78,8.78,0,0,0,609.49,248.19Z"/><path class="cls-4" d="M613.56,247.67a12.57,12.57,0,0,1,.38-3.24A7.63,7.63,0,0,1,615,242a5.37,5.37,0,0,1,1.65-1.56,5.53,5.53,0,0,1,2.14-.73,4.07,4.07,0,0,1,3.88,1.26q1.36,1.59,1.36,5.31a12.66,12.66,0,0,1-.38,3.26,7.77,7.77,0,0,1-1.07,2.42,5.32,5.32,0,0,1-1.66,1.58,5.58,5.58,0,0,1-2.15.73,3.94,3.94,0,0,1-3.88-1.36Q613.56,251.23,613.56,247.67Zm2.59-.34c0,0.2,0,.39,0,0.57s0,0.36,0,.55l4.83-5.09a1.92,1.92,0,0,0-2.23-1.42,2.52,2.52,0,0,0-1.95,1.49A8.81,8.81,0,0,0,616.15,247.34Zm5.3-.7q0-.32,0-0.61c0-.19,0-0.38,0-0.57l-4.84,5.1a2,2,0,0,0,2.23,1.53,2.54,2.54,0,0,0,2-1.48A8.81,8.81,0,0,0,621.45,246.64Z"/><path class="cls-4" d="M629.1,251.35a1.58,1.58,0,0,1,.45-1.14,1.88,1.88,0,0,1,1.13-.55,1.74,1.74,0,0,1,1.65.49,2.51,2.51,0,0,1,.56,1.7,4.13,4.13,0,0,1-.35,1.69,5.24,5.24,0,0,1-.9,1.41,6,6,0,0,1-1.25,1.05,5.86,5.86,0,0,1-1.37.65l-0.54-1a6.63,6.63,0,0,0,1-.47,4.73,4.73,0,0,0,.89-0.67,3.8,3.8,0,0,0,.67-0.86,2.41,2.41,0,0,0,.31-1,2.63,2.63,0,0,1-1,.17,1.33,1.33,0,0,1-.69-0.22,1.08,1.08,0,0,1-.39-0.51A2,2,0,0,1,629.1,251.35Z"/><path class="cls-4" d="M638.82,249.07l3-.43V239.9l-2.63,2.4L638,240.86l4.54-4.13,1.75-.25v11.8l3-.43V250l-8.5,1.22v-2.2Z"/><path class="cls-4" d="M658.75,252.95l-7.86,1.18v-2.2l5.39-.81v-14.2l-5.39.81v-2.2l7.86-1.18v18.6Z"/><path class="cls-4" d="M670.68,251.09l-7.85,1.23v-2.2l5.39-.84v-14.2l-5.39.84v-2.2l7.85-1.23v18.6Z"/><path class="cls-4" d="M46.37,343.38L49,343.79v-5.88l-2.59-.41v-2.31l4.7,0.74,0.31,1.43h0.08a4.41,4.41,0,0,1,1.34-.95,3,3,0,0,1,1.75-.19,2.84,2.84,0,0,1,2,1.23,5.66,5.66,0,0,1,.72,3.2l-2.44-.37a2.33,2.33,0,0,0-.22-1.14,0.92,0.92,0,0,0-.7-0.46,1.86,1.86,0,0,0-1.35.21,3.38,3.38,0,0,0-.87.83v4.47l4.53,0.7v2.31c-3.93-.6-5.9-0.91-9.83-1.53v-2.31Z"/><path class="cls-4" d="M69.24,348.06a3,3,0,0,1-.7.39,5.88,5.88,0,0,1-1,.3,7.17,7.17,0,0,1-1.26.15,8.08,8.08,0,0,1-1.46-.09,7.78,7.78,0,0,1-2.39-.74,5.81,5.81,0,0,1-2.9-3.28,7,7,0,0,1-.39-2.38,5.72,5.72,0,0,1,.44-2.36,3.92,3.92,0,0,1,1.2-1.55,4.2,4.2,0,0,1,1.79-.77,6.64,6.64,0,0,1,2.22,0,7.48,7.48,0,0,1,1.64.45,5.37,5.37,0,0,1,1.56,1,4.8,4.8,0,0,1,1.16,1.55,5.13,5.13,0,0,1,.45,2.25,9.55,9.55,0,0,1-.21,1.92l-7.52-1.12a2.69,2.69,0,0,0,.28,1.18,2.8,2.8,0,0,0,.69.86,3.55,3.55,0,0,0,1,.58,5.32,5.32,0,0,0,1.18.31,5.87,5.87,0,0,0,2.06,0,3.66,3.66,0,0,0,1.31-.52Zm-4.51-8.16a3.32,3.32,0,0,0-1,0,2.44,2.44,0,0,0-.87.31,1.92,1.92,0,0,0-.64.62,2,2,0,0,0-.29.92L67,342.51a2.64,2.64,0,0,0-.57-1.74A2.67,2.67,0,0,0,64.72,339.9Z"/><path class="cls-4" d="M82,350a5.14,5.14,0,0,1-2,.69,8.51,8.51,0,0,1-2.4,0,7.44,7.44,0,0,1-2.41-.74,6,6,0,0,1-1.78-1.38,5.76,5.76,0,0,1-1.1-1.91,7,7,0,0,1-.38-2.32,5.49,5.49,0,0,1,.44-2.29,4,4,0,0,1,1.22-1.57,4.43,4.43,0,0,1,1.85-.82,6.86,6.86,0,0,1,2.32,0,9.24,9.24,0,0,1,2.2.58,11.79,11.79,0,0,1,1.57.75v3.7l-2.3-.32v-1.93a6.37,6.37,0,0,0-1.3-.33,3.76,3.76,0,0,0-1.16,0A2.34,2.34,0,0,0,75,343.36a3,3,0,0,0-.28,1.37A3.52,3.52,0,0,0,75,346a3.54,3.54,0,0,0,1.68,1.89,4.1,4.1,0,0,0,1.37.44,4.65,4.65,0,0,0,2-.06,6.65,6.65,0,0,0,1.14-.43Z"/><path class="cls-4" d="M90.06,341.62L94,342.14c0,2.92,0,4.38,0,7.31v0.88l1.59,0.21v2.31l-3.31-.44-0.48-1.62H91.67a3,3,0,0,1-1.44,1.13,4.08,4.08,0,0,1-2.13.23,5.19,5.19,0,0,1-1.45-.41,3.15,3.15,0,0,1-1.12-.85,3.8,3.8,0,0,1-.71-1.4,7.51,7.51,0,0,1-.25-2.09v-4.22L83.37,343V340.7l3.91,0.54v6a3.53,3.53,0,0,0,.41,1.9,1.72,1.72,0,0,0,1.29.74,2.09,2.09,0,0,0,2.26-1.29v-4.47l-1.17-.16v-2.31Z"/><path class="cls-4" d="M96.53,350.68L99.12,351v-5.88l-2.59-.34v-2.31l4.71,0.62,0.31,1.43h0.08a4.58,4.58,0,0,1,1.34-1,3.06,3.06,0,0,1,1.76-.24,2.76,2.76,0,0,1,2,1.18,5.55,5.55,0,0,1,.72,3.18l-2.45-.31a2.29,2.29,0,0,0-.22-1.13,0.9,0.9,0,0,0-.7-0.44,1.89,1.89,0,0,0-1.35.25,3.52,3.52,0,0,0-.87.85v4.47l4.54,0.58v2.31L96.53,353v-2.31Z"/><path class="cls-4" d="M117.8,360.15a10.92,10.92,0,0,1-2.85-1.27,10,10,0,0,1-2.45-2.17,10.46,10.46,0,0,1-1.71-3.07,11.63,11.63,0,0,1-.64-4,10.33,10.33,0,0,1,.64-3.82,7.75,7.75,0,0,1,1.71-2.67,7.14,7.14,0,0,1,2.45-1.61,9.41,9.41,0,0,1,2.85-.64l0.5,2.31a7.93,7.93,0,0,0-1.67.4,5.15,5.15,0,0,0-1.77,1.06,6,6,0,0,0-1.41,2,8,8,0,0,0-.58,3.29,8.32,8.32,0,0,0,.61,3.33,8.52,8.52,0,0,0,1.48,2.36,7.78,7.78,0,0,0,1.79,1.5,8.11,8.11,0,0,0,1.55.75Z"/><path class="cls-4" d="M123.06,354l3.21,0.38v-9.18L123.5,347l-1.26-1.83,4.78-3.09,1.84,0.21V354.7l3.14,0.36v2.31l-8.95-1V354Z"/><path class="cls-4" d="M135.63,355.47l3.21,0.36v-9.18l-2.77,1.81-1.26-1.82,4.78-3.12,1.85,0.2v12.39l3.15,0.34v2.31l-9-1v-2.31Z"/><path class="cls-4" d="M150.57,358.06A1.3,1.3,0,0,1,151,357a1.58,1.58,0,0,1,1.19-.3,2.32,2.32,0,0,1,1.74.94,3.22,3.22,0,0,1,.59,1.93,3.73,3.73,0,0,1-.37,1.69,3.94,3.94,0,0,1-1,1.25,4.51,4.51,0,0,1-1.31.79,4.92,4.92,0,0,1-1.44.33l-0.57-1.22a5.64,5.64,0,0,0,1-.25,3.58,3.58,0,0,0,.93-0.48,2.78,2.78,0,0,0,.7-0.74,2,2,0,0,0,.33-1,2.68,2.68,0,0,1-1.07-.08,1.83,1.83,0,0,1-.72-0.41,1.58,1.58,0,0,1-.41-0.63A2.28,2.28,0,0,1,150.57,358.06Z"/><path class="cls-4" d="M160.81,358.15l3.21,0.32c0-3.67,0-5.51,0-9.18l-2.77,1.85L160,349.33l4.79-3.18,1.85,0.18c0,5,0,7.43,0,12.39l3.15,0.3v2.31l-9-.87v-2.31Z"/><path class="cls-4" d="M172,354.17a12.15,12.15,0,0,1,.4-3.31,6.2,6.2,0,0,1,1.13-2.28,4.1,4.1,0,0,1,1.74-1.26,5,5,0,0,1,2.26-.27,5.39,5.39,0,0,1,4.09,2.23,10,10,0,0,1,1.43,5.89,12.25,12.25,0,0,1-.4,3.33,6.32,6.32,0,0,1-1.13,2.29,4.05,4.05,0,0,1-1.75,1.27,5.09,5.09,0,0,1-2.27.27,5.25,5.25,0,0,1-4.09-2.34A10.35,10.35,0,0,1,172,354.17Zm2.73,0.26c0,0.21,0,.41,0,0.6s0,0.38,0,.58l5.08-4.22a2.64,2.64,0,0,0-2.35-2,2,2,0,0,0-2.05,1.1A8.17,8.17,0,0,0,174.7,354.42Zm5.59,0.51q0-.34,0-0.64c0-.2,0-0.4,0-0.6l-5.1,4.22A2.69,2.69,0,0,0,177.5,360a2,2,0,0,0,2.06-1.09A8.17,8.17,0,0,0,180.29,354.93Z"/><path class="cls-4" d="M186.3,365a6.67,6.67,0,0,0,1.55-.42,5.82,5.82,0,0,0,1.8-1.13,6.4,6.4,0,0,0,1.48-2,7.41,7.41,0,0,0,.61-3.2,8.91,8.91,0,0,0-.58-3.41,7.9,7.9,0,0,0-1.42-2.31A6.89,6.89,0,0,0,188,351a9.59,9.59,0,0,0-1.67-.74l0.5-2.2a11.36,11.36,0,0,1,2.86,1.23,9.63,9.63,0,0,1,2.46,2.12,10.19,10.19,0,0,1,1.71,3,11.4,11.4,0,0,1,.64,3.95,10.49,10.49,0,0,1-.64,3.85,8,8,0,0,1-1.71,2.71,7.39,7.39,0,0,1-2.46,1.66,9.1,9.1,0,0,1-2.86.68Z"/><path class="cls-4" d="M298.86,369.44v-2.31l2.48,0.07c0-2.35,0-3.53,0-5.88l-2.51-.07v-2.31l2.51,0.07v-0.59a3.79,3.79,0,0,1,.35-1.69,3.27,3.27,0,0,1,.92-1.15,3.64,3.64,0,0,1,1.32-.65,5.41,5.41,0,0,1,1.55-.18,10,10,0,0,1,2.39.3,6.31,6.31,0,0,1,1.55.64l-0.8,2.06a10,10,0,0,0-1-.45,4.64,4.64,0,0,0-1.44-.23,2,2,0,0,0-1.59.47,2.23,2.23,0,0,0-.45,1.53l4.42,0.12v2.31l-4.42-.12v5.88l4.44,0.12v2.31Z"/><path class="cls-4" d="M311.89,360a11.3,11.3,0,0,1,1.95-.6,11,11,0,0,1,2.62-.21,5.88,5.88,0,0,1,1.86.3,3.22,3.22,0,0,1,1.24.77,2.92,2.92,0,0,1,.68,1.17,5.09,5.09,0,0,1,.21,1.52q0,1.07-.07,1.83t-0.07,1.34a8.91,8.91,0,0,0,0,1c0,0.19,0,.39.06,0.57l1.37,0V370l-3.53-.07L318,368.51h-0.1a3.52,3.52,0,0,1-1.19,1.1,3.93,3.93,0,0,1-2.09.43,3.63,3.63,0,0,1-2.49-.9,2.94,2.94,0,0,1-.92-2.25,3.28,3.28,0,0,1,.32-1.51,2.63,2.63,0,0,1,.94-1,4.37,4.37,0,0,1,1.49-.57,8.65,8.65,0,0,1,1.94-.16q0.38,0,.8.06l1,0.11a2.09,2.09,0,0,0,0-.42V363a1.37,1.37,0,0,0-.46-1.15,2.28,2.28,0,0,0-1.36-.38,6.3,6.3,0,0,0-1.92.23,12.11,12.11,0,0,0-1.44.51Zm3.58,7.79a2.48,2.48,0,0,0,1.5-.33,2.39,2.39,0,0,0,.73-0.77v-1.26l-0.62-.11a7.38,7.38,0,0,0-.9-0.07,4.32,4.32,0,0,0-.79.06,2.58,2.58,0,0,0-.71.21,1.36,1.36,0,0,0-.5.4,1,1,0,0,0-.19.6,1.22,1.22,0,0,0,.34.92A1.65,1.65,0,0,0,315.47,367.8Z"/><path class="cls-4" d="M334.13,369.2a5.94,5.94,0,0,1-2,.95,8.84,8.84,0,0,1-2.42.29,6.92,6.92,0,0,1-2.43-.44,5.07,5.07,0,0,1-1.79-1.15,4.88,4.88,0,0,1-1.11-1.77,6.57,6.57,0,0,1-.38-2.27,5.85,5.85,0,0,1,.44-2.34,4.82,4.82,0,0,1,1.23-1.72,5.21,5.21,0,0,1,1.86-1.05,7.18,7.18,0,0,1,2.34-.33,8.71,8.71,0,0,1,2.21.3,10.47,10.47,0,0,1,1.58.55c0,1.48,0,2.22,0,3.7l-2.32,0v-1.93a6,6,0,0,0-1.31-.17,3.94,3.94,0,0,0-1.17.16,2.81,2.81,0,0,0-1,.55,2.91,2.91,0,0,0-.74,1,3.18,3.18,0,0,0-.28,1.4,3.27,3.27,0,0,0,.23,1.24,3,3,0,0,0,1.7,1.68,3.79,3.79,0,0,0,1.38.26,4.9,4.9,0,0,0,2-.31,7.76,7.76,0,0,0,1.15-.57Z"/><path class="cls-4" d="M337.71,362.06l-2.08,0v-2.31l2.08,0v-2.39l2.74-.75v3.17l5.52,0v2.31l-5.52,0v3a3.64,3.64,0,0,0,.61,2.35,2.13,2.13,0,0,0,1.71.74,3.59,3.59,0,0,0,1-.13,3.89,3.89,0,0,0,.83-0.34,4.81,4.81,0,0,0,.67-0.46l0.56-.46,1.26,1.9a4,4,0,0,1-.9.76,7.56,7.56,0,0,1-1.16.6,7.36,7.36,0,0,1-1.29.4,6.19,6.19,0,0,1-1.33.14,4.59,4.59,0,0,1-3.55-1.35,6.14,6.14,0,0,1-1.19-4.18v-3Z"/><path class="cls-4" d="M348.65,365.09a6.44,6.44,0,0,1,.4-2.35,4.77,4.77,0,0,1,1.14-1.74,4.84,4.84,0,0,1,1.76-1.07,6.75,6.75,0,0,1,2.29-.36,6.61,6.61,0,0,1,2.37.4,4.9,4.9,0,0,1,1.76,1.13,4.73,4.73,0,0,1,1.08,1.75,6.68,6.68,0,0,1,.37,2.27,6.45,6.45,0,0,1-.4,2.35,4.73,4.73,0,0,1-2.9,2.82,6.7,6.7,0,0,1-2.29.36,6.6,6.6,0,0,1-2.37-.41,4.91,4.91,0,0,1-1.76-1.13,4.76,4.76,0,0,1-1.08-1.76A6.7,6.7,0,0,1,348.65,365.09Zm2.82,0a4.16,4.16,0,0,0,.19,1.28,3.15,3.15,0,0,0,.55,1,2.47,2.47,0,0,0,.86.69,2.91,2.91,0,0,0,3.15-.53,3.38,3.38,0,0,0,.77-2.46,3.64,3.64,0,0,0-.72-2.34,2.48,2.48,0,0,0-2-.9,3.28,3.28,0,0,0-1.1.18,2.13,2.13,0,0,0-.87.57,2.8,2.8,0,0,0-.58,1A4.52,4.52,0,0,0,351.47,365.11Z"/><path class="cls-4" d="M361.37,368.06H364v-5.88h-2.61v-2.31h4.74l0.32,1.38h0.08a5.59,5.59,0,0,1,1.35-1.16,3.34,3.34,0,0,1,1.77-.47,2.38,2.38,0,0,1,2,.91,5,5,0,0,1,.73,3.08h-2.46a2.1,2.1,0,0,0-.22-1.1,0.77,0.77,0,0,0-.71-0.34,2.09,2.09,0,0,0-1.36.43,4.26,4.26,0,0,0-.87,1v4.47l4.57,0v2.31c-4,0-6,0-9.92,0v-2.31Z"/><path class="cls-4" d="M374.43,368l3.71,0V362.1l-3.71,0v-2.31l6.45-.06V368l3.9,0v2.31c-4.14.05-6.21,0.07-10.34,0.1V368Zm3.2-11.07a1.49,1.49,0,0,1,.48-1.12,1.89,1.89,0,0,1,1.35-.47,2.05,2.05,0,0,1,1.41.45,1.42,1.42,0,0,1,.53,1.11,1.38,1.38,0,0,1-.53,1.11,2.18,2.18,0,0,1-1.41.44,1.94,1.94,0,0,1-1.35-.42A1.39,1.39,0,0,1,377.63,356.94Z"/><path class="cls-4" d="M387.72,360.4a11.77,11.77,0,0,1,1.95-.68,11.12,11.12,0,0,1,2.62-.31,5.8,5.8,0,0,1,1.86.23,3.06,3.06,0,0,1,1.24.72,2.77,2.77,0,0,1,.68,1.14,5,5,0,0,1,.21,1.51q0,1.07-.07,1.83t-0.07,1.35a8.94,8.94,0,0,0,0,1c0,0.19,0,.38.06,0.57l1.37,0c0,0.92,0,1.39,0,2.31l-3.53.06-0.28-1.42h-0.1a3.72,3.72,0,0,1-1.19,1.14,4,4,0,0,1-2.09.51,3.51,3.51,0,0,1-2.49-.8,2.83,2.83,0,0,1-.92-2.21,3.36,3.36,0,0,1,.32-1.53,2.78,2.78,0,0,1,.94-1.06,4.55,4.55,0,0,1,1.49-.63,8.74,8.74,0,0,1,1.94-.23c0.25,0,.52,0,0.8,0l1,0.07a2.1,2.1,0,0,0,0-.42v-0.4a1.32,1.32,0,0,0-.46-1.14,2.22,2.22,0,0,0-1.36-.32,6.42,6.42,0,0,0-1.92.3,12.51,12.51,0,0,0-1.44.57Zm3.58,7.65a2.32,2.32,0,0,0,2.23-1.19V365.6l-0.62-.08a7.26,7.26,0,0,0-.9,0,4.37,4.37,0,0,0-.79.09,2.69,2.69,0,0,0-.71.24,1.43,1.43,0,0,0-.5.42,1,1,0,0,0-.19.61,1.18,1.18,0,0,0,.34.91A1.6,1.6,0,0,0,391.3,368.05Z"/><path class="cls-4" d="M400.29,355.27l4.49-.1c0,3.88,0,5.82,0,9.7a4.43,4.43,0,0,0,.4,2.24,1.37,1.37,0,0,0,1.28.6,3.56,3.56,0,0,0,1.07-.16,4.19,4.19,0,0,0,.84-0.41l1,1.87c-0.24.16-.48,0.31-0.72,0.45a4.75,4.75,0,0,1-.76.35,5.28,5.28,0,0,1-.87.23,7.05,7.05,0,0,1-1.06.1,3.91,3.91,0,0,1-3-.94,3.83,3.83,0,0,1-1-2.84c0-3.53,0-5.29,0-8.82l-1.75,0v-2.31Z"/><path class="cls-4" d="M412.74,372.14l9.35-.27v2.25l-9.35.27v-2.25Z"/><path class="cls-4" d="M423.73,354.66l4.25-.14c0,2.15,0,3.22,0,5.38h0.08a3.74,3.74,0,0,1,1.35-1.12,4.68,4.68,0,0,1,2-.47,4.9,4.9,0,0,1,1.47.16,2.66,2.66,0,0,1,1.16.65,3.11,3.11,0,0,1,.76,1.28,6.52,6.52,0,0,1,.27,2c0,2.61,0,3.92,0,6.53l-2.74.1c0-2.39,0-3.58,0-6a2.53,2.53,0,0,0-.55-1.83,1.84,1.84,0,0,0-1.43-.52,2.46,2.46,0,0,0-1.43.52,2.69,2.69,0,0,0-.93,1.24c0,2.68,0,4,0,6.7l-2.74.09c0-5,0-7.44,0-12.39l-1.52,0v-2.31Z"/><path class="cls-4" d="M447.61,367.35a4,4,0,0,1-.7.52,7.21,7.21,0,0,1-1,.49,8.13,8.13,0,0,1-1.27.39,8.4,8.4,0,0,1-1.47.19,7,7,0,0,1-2.41-.28,4.46,4.46,0,0,1-2.93-2.73,7,7,0,0,1,.05-4.75,5.12,5.12,0,0,1,1.21-1.78,5.32,5.32,0,0,1,1.8-1.11,7.12,7.12,0,0,1,2.23-.44,6.85,6.85,0,0,1,1.65.14,4.31,4.31,0,0,1,1.57.66,3.65,3.65,0,0,1,1.17,1.32,4.55,4.55,0,0,1,.45,2.16,10.16,10.16,0,0,1-.21,2l-7.58.32a2.35,2.35,0,0,0,.28,1.12,2.13,2.13,0,0,0,.7.73,2.86,2.86,0,0,0,1,.39,5,5,0,0,0,1.19.09,6.28,6.28,0,0,0,2.07-.38,4.62,4.62,0,0,0,1.32-.77Zm-4.55-7.3a3.55,3.55,0,0,0-1,.19,3,3,0,0,0-.87.47,2.55,2.55,0,0,0-.64.74,2.29,2.29,0,0,0-.29,1l5.18-.21A2,2,0,0,0,443.06,360Z"/><path class="cls-4" d="M450.83,353.62l4.48-.21c0,3.88,0,5.82,0,9.7a4.37,4.37,0,0,0,.4,2.23,1.34,1.34,0,0,0,1.28.57,3.62,3.62,0,0,0,1.07-.19,4.32,4.32,0,0,0,.84-0.43l1,1.84q-0.36.25-.72,0.47a4.92,4.92,0,0,1-.76.37,5.4,5.4,0,0,1-.87.25,7,7,0,0,1-1.06.13,3.82,3.82,0,0,1-3-.87,3.74,3.74,0,0,1-1-2.81c0-3.53,0-5.29,0-8.82l-1.75.08C450.83,355,450.83,354.54,450.83,353.62Z"/><path class="cls-4" d="M461.62,357.3l3.58-.19,0.32,1.24h0.08a4.26,4.26,0,0,1,3.54-1.74,4.92,4.92,0,0,1,1.78.21,3.21,3.21,0,0,1,1.39.88,4.19,4.19,0,0,1,.89,1.59,7.67,7.67,0,0,1,.32,2.36,7.88,7.88,0,0,1-.36,2.45,5.54,5.54,0,0,1-1,1.9,4.77,4.77,0,0,1-1.64,1.25,5.91,5.91,0,0,1-2.21.52,8.62,8.62,0,0,1-1.28,0,3.37,3.37,0,0,1-1.05-.25c0,1.72,0,2.58,0,4.31l-2.74.14c0-5,0-7.44,0-12.39l-1.58.08C461.62,358.68,461.62,358.22,461.62,357.3Zm6.69,1.66a2.91,2.91,0,0,0-1.46.48,2.22,2.22,0,0,0-.92,1.25c0,1.75,0,2.62,0,4.37a2.14,2.14,0,0,0,.85.32,4.66,4.66,0,0,0,1.13.08,3,3,0,0,0,1.09-.26,2.41,2.41,0,0,0,.88-0.69,3.31,3.31,0,0,0,.59-1.14,5.59,5.59,0,0,0,.21-1.63,3,3,0,0,0-.67-2.1A2.07,2.07,0,0,0,468.32,359Z"/><path class="cls-4" d="M485.48,365.33a4.11,4.11,0,0,1-.7.54,7.28,7.28,0,0,1-1,.51,8.26,8.26,0,0,1-1.27.41A8.44,8.44,0,0,1,481,367a7,7,0,0,1-2.41-.23,4.34,4.34,0,0,1-2.92-2.68,6.29,6.29,0,0,1-.39-2.3,6.36,6.36,0,0,1,.44-2.45,5.26,5.26,0,0,1,1.21-1.8,5.46,5.46,0,0,1,1.8-1.15,7.2,7.2,0,0,1,2.23-.48,6.8,6.8,0,0,1,1.65.11,4.21,4.21,0,0,1,1.57.63,3.55,3.55,0,0,1,1.17,1.3,4.51,4.51,0,0,1,.45,2.16,10.21,10.21,0,0,1-.21,2l-7.57.46a2.31,2.31,0,0,0,.28,1.12,2.06,2.06,0,0,0,.69.71,2.81,2.81,0,0,0,1,.37,4.92,4.92,0,0,0,1.19.06,6.33,6.33,0,0,0,2.07-.42,4.74,4.74,0,0,0,1.31-.8Zm-4.54-7.22a3.57,3.57,0,0,0-1,.21,3.09,3.09,0,0,0-.87.49,2.61,2.61,0,0,0-.64.75,2.32,2.32,0,0,0-.29,1l5.18-.31A1.94,1.94,0,0,0,480.94,358.11Z"/><path class="cls-4" d="M487.69,364l2.61-.17c0-2.35,0-3.53,0-5.88l-2.61.17V355.8l4.73-.31,0.32,1.36h0.08a6.13,6.13,0,0,1,1.35-1.24,3.51,3.51,0,0,1,1.77-.58,2.23,2.23,0,0,1,2,.79,4.84,4.84,0,0,1,.73,3l-2.46.17a2,2,0,0,0-.22-1.09,0.72,0.72,0,0,0-.7-0.3,2.21,2.21,0,0,0-1.36.51,4.67,4.67,0,0,0-.87,1v4.47l4.56-.31v2.31l-9.91.66V364Z"/><path class="cls-4" d="M509.05,369.28a9.17,9.17,0,0,1-2.86-.71,7.53,7.53,0,0,1-2.46-1.69,8.08,8.08,0,0,1-1.71-2.73,10.56,10.56,0,0,1-.64-3.86,11.32,11.32,0,0,1,.64-3.94,10,10,0,0,1,1.71-3,9.47,9.47,0,0,1,2.46-2.09,11.22,11.22,0,0,1,2.86-1.2l0.5,2.21a9.47,9.47,0,0,0-1.67.72,6.76,6.76,0,0,0-1.78,1.41,7.74,7.74,0,0,0-1.42,2.3,8.85,8.85,0,0,0-.58,3.4,7.46,7.46,0,0,0,.61,3.21,6.49,6.49,0,0,0,1.48,2.07,5.94,5.94,0,0,0,1.8,1.15,6.76,6.76,0,0,0,1.56.44Z"/><path class="cls-4" d="M514.33,362.12l3.22-.25v-9.18L514.77,355l-1.26-1.58,4.79-4,1.85-.15v12.39l3.15-.25v2.31l-9,.71C514.33,363.5,514.33,363,514.33,362.12Z"/><path class="cls-4" d="M525.85,353.4a5.42,5.42,0,0,1,.37-2,5,5,0,0,1,1-1.63,5.38,5.38,0,0,1,1.6-1.14,6.45,6.45,0,0,1,4.23-.37,4,4,0,0,1,1.66.92,4.24,4.24,0,0,1,1.07,1.65,6.68,6.68,0,0,1,.38,2.35,13,13,0,0,1-.63,4.26,9.72,9.72,0,0,1-1.69,3.09,8.26,8.26,0,0,1-2.47,2,10.45,10.45,0,0,1-2.94,1l-0.59-2.09a7.82,7.82,0,0,0,2.09-.74,7.07,7.07,0,0,0,1.63-1.18,6.18,6.18,0,0,0,1.13-1.5,5.18,5.18,0,0,0,.57-1.74,3.54,3.54,0,0,1-1.14.8,4.9,4.9,0,0,1-1.66.4h0a4.92,4.92,0,0,1-1.62-.14,3.88,3.88,0,0,1-2.56-2A4.21,4.21,0,0,1,525.85,353.4Zm2.65-.37a2.22,2.22,0,0,0,.22,1,2,2,0,0,0,.58.71,2.22,2.22,0,0,0,.83.39,3,3,0,0,0,1,.07,3.93,3.93,0,0,0,1.49-.4,2.48,2.48,0,0,0,.92-0.75,6.05,6.05,0,0,0,.06-0.85,3.92,3.92,0,0,0-.17-1.14,2.81,2.81,0,0,0-.5-1,2.2,2.2,0,0,0-.84-0.63,2.36,2.36,0,0,0-1.15-.16A2.57,2.57,0,0,0,528.49,353Z"/><path class="cls-4" d="M539,364.83l9.32-.86v2.25l-9.32.86v-2.25Z"/><path class="cls-4" d="M551,351.15a5.46,5.46,0,0,1,.37-2,5.07,5.07,0,0,1,1-1.64,5.47,5.47,0,0,1,1.6-1.16,6.06,6.06,0,0,1,2.09-.57,5.94,5.94,0,0,1,2.14.15,3.94,3.94,0,0,1,1.66.9,4.16,4.16,0,0,1,1.07,1.63,6.64,6.64,0,0,1,.38,2.35,13.09,13.09,0,0,1-.63,4.26,9.88,9.88,0,0,1-1.69,3.11,8.41,8.41,0,0,1-2.47,2.05,10.56,10.56,0,0,1-2.94,1.09l-0.59-2.09a7.9,7.9,0,0,0,2.09-.77,7.19,7.19,0,0,0,1.63-1.2,6.29,6.29,0,0,0,1.13-1.52,5.23,5.23,0,0,0,.57-1.75,3.6,3.6,0,0,1-1.13.82,4.94,4.94,0,0,1-1.66.43h0a4.9,4.9,0,0,1-1.62-.12,3.89,3.89,0,0,1-1.48-.7,3.84,3.84,0,0,1-1.08-1.31A4.18,4.18,0,0,1,551,351.15Zm2.65-.4a2.21,2.21,0,0,0,.22,1,2,2,0,0,0,.58.7,2.18,2.18,0,0,0,.83.38,3,3,0,0,0,1,.06,4,4,0,0,0,1.49-.42,2.52,2.52,0,0,0,.92-0.76,6.08,6.08,0,0,0,.06-0.85,3.9,3.9,0,0,0-.17-1.14,2.75,2.75,0,0,0-.5-1,2.16,2.16,0,0,0-.84-0.62,2.34,2.34,0,0,0-1.15-.15A2.61,2.61,0,0,0,553.69,350.75Z"/><path class="cls-4" d="M567.48,357.49a4.88,4.88,0,0,0,1.28-.3,3.61,3.61,0,0,0,1-.59,2.6,2.6,0,0,0,.67-0.85,2.39,2.39,0,0,0,.24-1.08,1.89,1.89,0,0,0-.91-1.72,4.4,4.4,0,0,0-2.74-.38l-0.53.07-0.58.09-0.65.09c0-3.08,0-4.61,0-7.69l7.59-.8v2.56l-5.24.55v2.83l0.34-.06,0.28,0,0.24,0a5.88,5.88,0,0,1,2,.1A3.88,3.88,0,0,1,572,351a3.57,3.57,0,0,1,1,1.37,4.64,4.64,0,0,1,.37,1.88,5.17,5.17,0,0,1-.46,2.22,5.27,5.27,0,0,1-1.26,1.7,6.45,6.45,0,0,1-1.85,1.15,8,8,0,0,1-2.24.56,5.55,5.55,0,0,1-1,0q-0.52,0-1-.12a8.28,8.28,0,0,1-.93-0.21c-0.29-.08-0.53-0.16-0.72-0.24l0.88-2.27a5.67,5.67,0,0,0,1.1.35A4.68,4.68,0,0,0,567.48,357.49Z"/><path class="cls-4" d="M576.35,355.08a3.83,3.83,0,0,1,.24-1.37,4.78,4.78,0,0,1,.63-1.16,6.2,6.2,0,0,1,.89-1,10,10,0,0,1,1-.8,5.51,5.51,0,0,1-1.74-1.25,2.86,2.86,0,0,1-.69-2,3.62,3.62,0,0,1,.36-1.57,4.39,4.39,0,0,1,1-1.35,5.47,5.47,0,0,1,1.52-1,6.43,6.43,0,0,1,1.91-.51,5.91,5.91,0,0,1,1.77.05,4.27,4.27,0,0,1,1.46.55,2.85,2.85,0,0,1,1,1,2.79,2.79,0,0,1,.36,1.42,4.05,4.05,0,0,1-.64,2.24,6.66,6.66,0,0,1-1.75,1.79,5.52,5.52,0,0,1,2,1.31,3.08,3.08,0,0,1,.74,2.18,3.86,3.86,0,0,1-.41,1.76,4.86,4.86,0,0,1-1.1,1.44,6,6,0,0,1-1.63,1,6.75,6.75,0,0,1-2,.53,6.27,6.27,0,0,1-2-.07,4.58,4.58,0,0,1-1.57-.62,3.09,3.09,0,0,1-1-1.1A3.12,3.12,0,0,1,576.35,355.08Zm7.47-1.18a1.37,1.37,0,0,0-.27-0.87,2.52,2.52,0,0,0-.68-0.6A5.58,5.58,0,0,0,582,352l-1-.39a4.78,4.78,0,0,0-1.61,1.37,2.53,2.53,0,0,0-.57,1.44,1.54,1.54,0,0,0,.67,1.39,2.8,2.8,0,0,0,1.87.31,3.26,3.26,0,0,0,1.76-.69A1.87,1.87,0,0,0,583.82,353.89Zm-4.51-6.53a1.44,1.44,0,0,0,.22.83,2,2,0,0,0,.57.55,3.9,3.9,0,0,0,.79.39l0.88,0.32a4.8,4.8,0,0,0,.66-0.49,4.3,4.3,0,0,0,.58-0.62,3.62,3.62,0,0,0,.41-0.68,1.61,1.61,0,0,0,.16-0.68,1.38,1.38,0,0,0-.19-0.74,1.59,1.59,0,0,0-.49-0.5,1.9,1.9,0,0,0-.68-0.27,2.66,2.66,0,0,0-1.63.21,2.79,2.79,0,0,0-.67.45,1.93,1.93,0,0,0-.44.59A1.5,1.5,0,0,0,579.31,347.36Z"/><path class="cls-4" d="M589.31,359.68l9.3-1.09v2.25l-9.31,1.09C589.31,361,589.31,360.58,589.31,359.68Z"/><path class="cls-4" d="M612.34,350.34l-2.51.32c0,1.64,0,2.46,0,4.1l-2.53.32V351l-6.35.78v-1.87l6.64-9.65,2.24-.28c0,3.41,0,5.11,0,8.52l2.51-.32v2.19Zm-5-6.21-3.64,5.11,3.64-.45C607.29,346.92,607.29,346,607.29,344.12Z"/><path class="cls-4" d="M613.61,346.9a13.18,13.18,0,0,1,.4-3.4,8,8,0,0,1,1.12-2.53,5.64,5.64,0,0,1,1.73-1.64,5.8,5.8,0,0,1,2.25-.76,4.28,4.28,0,0,1,4.08,1.32q1.43,1.67,1.43,5.57a13.25,13.25,0,0,1-.4,3.42,8.16,8.16,0,0,1-1.12,2.54,5.58,5.58,0,0,1-1.74,1.66,5.84,5.84,0,0,1-2.26.77,4.14,4.14,0,0,1-4.08-1.44Q613.61,350.64,613.61,346.9Zm2.72-.35q0,0.31,0,.6c0,0.19,0,.38,0,0.57l5.07-5.34a2,2,0,0,0-2.35-1.5,2.63,2.63,0,0,0-2,1.56A9.24,9.24,0,0,0,616.33,346.55Zm5.57-.73q0-.34,0-0.64c0-.2,0-0.4,0-0.59l-5.09,5.35a2,2,0,0,0,2.35,1.61,2.67,2.67,0,0,0,2.06-1.55A9.25,9.25,0,0,0,621.9,345.82Z"/><path class="cls-4" d="M626.17,345.26a13.22,13.22,0,0,1,.4-3.4,8,8,0,0,1,1.12-2.53,5.68,5.68,0,0,1,1.73-1.65,5.81,5.81,0,0,1,2.25-.78,4.25,4.25,0,0,1,4.07,1.3q1.43,1.66,1.43,5.56a13.3,13.3,0,0,1-.4,3.43,8.23,8.23,0,0,1-1.12,2.55,5.62,5.62,0,0,1-1.74,1.67,5.86,5.86,0,0,1-2.26.78,4.11,4.11,0,0,1-4.07-1.41Q626.17,349,626.17,345.26Zm2.72-.37q0,0.31,0,.6c0,0.19,0,.38,0,0.57l5.06-5.37a2,2,0,0,0-2.34-1.48,2.65,2.65,0,0,0-2,1.57A9.27,9.27,0,0,0,628.89,344.89Zm5.56-.76q0-.34,0-0.64c0-.2,0-0.4,0-0.59l-5.08,5.38a2,2,0,0,0,2.34,1.59,2.69,2.69,0,0,0,2.05-1.56A9.29,9.29,0,0,0,634.46,344.13Z"/><path class="cls-4" d="M642.49,349a1.66,1.66,0,0,1,.47-1.2,2,2,0,0,1,1.18-.59,1.81,1.81,0,0,1,1.74.51,2.62,2.62,0,0,1,.59,1.78,4.35,4.35,0,0,1-.37,1.78,5.56,5.56,0,0,1-1,1.48,6.38,6.38,0,0,1-1.31,1.11,6.15,6.15,0,0,1-1.43.69l-0.56-1.08a7.06,7.06,0,0,0,1-.5,5,5,0,0,0,.93-0.71,4,4,0,0,0,.7-0.91,2.53,2.53,0,0,0,.32-1.05,2.75,2.75,0,0,1-1.07.18,1.4,1.4,0,0,1-.72-0.23,1.13,1.13,0,0,1-.41-0.53A2,2,0,0,1,642.49,349Z"/><path class="cls-4" d="M661.4,347.59l-9.32,1.4c0-.82,0-1.22,0-2l0.63-.65,0.85-.91q0.47-.51,1-1.11t1-1.25q0.71-.9,1.24-1.63a12.8,12.8,0,0,0,.88-1.36,6,6,0,0,0,.51-1.21,4.23,4.23,0,0,0,.17-1.17,1.72,1.72,0,0,0-.19-0.79,1.8,1.8,0,0,0-.52-0.63,2.09,2.09,0,0,0-.8-0.36,2.76,2.76,0,0,0-1,0,4.27,4.27,0,0,0-1.37.44,5.72,5.72,0,0,0-1.29,1l-1.09-1.77a11.21,11.21,0,0,1,2-1.35,7.39,7.39,0,0,1,2.48-.8,5.7,5.7,0,0,1,1.72,0,3.85,3.85,0,0,1,1.46.53,2.9,2.9,0,0,1,1,1.07,3.34,3.34,0,0,1,.38,1.64,6.75,6.75,0,0,1-.11,1.27,7,7,0,0,1-.36,1.21,9.52,9.52,0,0,1-.63,1.28q-0.39.67-.93,1.46-0.42.61-.91,1.24t-1,1.21q-0.48.58-1,1.09t-0.85.86l6-.91v2.31Z"/><path class="cls-4" d="M665.51,349.12a8.43,8.43,0,0,0,1.55-.8,8.17,8.17,0,0,0,1.78-1.56,8.9,8.9,0,0,0,1.47-2.4,8.49,8.49,0,0,0,.61-3.35,7.92,7.92,0,0,0-.57-3.27,5.68,5.68,0,0,0-1.41-2,4.91,4.91,0,0,0-1.76-1,7.71,7.71,0,0,0-1.66-.34l0.5-2.32a9.17,9.17,0,0,1,2.84.55,6.81,6.81,0,0,1,2.44,1.53,7.42,7.42,0,0,1,1.7,2.62,10.19,10.19,0,0,1,.64,3.79,11.85,11.85,0,0,1-.64,4,10.92,10.92,0,0,1-1.7,3.13,10.43,10.43,0,0,1-2.44,2.25,11.26,11.26,0,0,1-2.84,1.36Z"/><path class="cls-4" d="M51.38,397.49V395l2.7,0.43v-6.44l-2.72-.43V386l2.72,0.43v-0.64a3.87,3.87,0,0,1,.38-1.8,3,3,0,0,1,1-1.13,3.42,3.42,0,0,1,1.43-.53,5.73,5.73,0,0,1,1.68,0,11.59,11.59,0,0,1,2.6.66,7.9,7.9,0,0,1,1.68.91L62,386a12.33,12.33,0,0,0-1.13-.63,5.47,5.47,0,0,0-1.57-.45,2,2,0,0,0-1.73.3,2.21,2.21,0,0,0-.49,1.61l4.8,0.74v2.53l-4.8-.74v6.44l4.82,0.74v2.53C57.67,398.48,55.58,398.15,51.38,397.49Z"/><path class="cls-4" d="M65.53,389a11.14,11.14,0,0,1,2.12-.39,11.8,11.8,0,0,1,2.85.12,6.89,6.89,0,0,1,2,.59,4.14,4.14,0,0,1,1.35,1,3.74,3.74,0,0,1,.74,1.37,5.91,5.91,0,0,1,.23,1.69q0,1.17-.08,2c-0.05.54-.08,1-0.08,1.46a10.14,10.14,0,0,0,0,1.09c0,0.21.05,0.43,0.07,0.63l1.49,0.22c0,1,0,1.52,0,2.53l-3.84-.56-0.3-1.61-0.11,0a3.19,3.19,0,0,1-1.3,1,4,4,0,0,1-2.27.18A4.47,4.47,0,0,1,65.76,399a3.65,3.65,0,0,1-1-2.59,3.35,3.35,0,0,1,.35-1.61,2.39,2.39,0,0,1,1-1,4.24,4.24,0,0,1,1.61-.42,9.27,9.27,0,0,1,2.1.09q0.41,0.06.86,0.17l1.11,0.26a2.29,2.29,0,0,0,0-.45V393a1.7,1.7,0,0,0-.5-1.33,2.76,2.76,0,0,0-1.48-.6,6.65,6.65,0,0,0-2.09,0,11.82,11.82,0,0,0-1.57.36Zm3.89,9a2.52,2.52,0,0,0,1.63-.16,2.18,2.18,0,0,0,.79-0.75V395.7l-0.68-.2a8.19,8.19,0,0,0-1-.2,4.59,4.59,0,0,0-.86,0,2.56,2.56,0,0,0-.77.14,1.21,1.21,0,0,0-.54.37,1,1,0,0,0-.2.64,1.51,1.51,0,0,0,.37,1.06A2,2,0,0,0,69.43,398Z"/><path class="cls-4" d="M89.71,402.07a5.66,5.66,0,0,1-2.2.76,9.34,9.34,0,0,1-2.63,0,8.16,8.16,0,0,1-2.65-.81,6.56,6.56,0,0,1-1.95-1.51,6.31,6.31,0,0,1-1.2-2.09,7.69,7.69,0,0,1-.41-2.54,6,6,0,0,1,.48-2.51,4.43,4.43,0,0,1,1.34-1.72,4.86,4.86,0,0,1,2-.9,7.52,7.52,0,0,1,2.54,0,10.12,10.12,0,0,1,2.41.64,12.89,12.89,0,0,1,1.72.81c0,1.62,0,2.43,0,4l-2.52-.35v-2.12a6.91,6.91,0,0,0-1.42-.36,4.14,4.14,0,0,0-1.27,0A2.57,2.57,0,0,0,82,394.81a3.25,3.25,0,0,0-.31,1.5A3.85,3.85,0,0,0,82,397.7a3.85,3.85,0,0,0,1.84,2.07,4.48,4.48,0,0,0,1.5.48,5.09,5.09,0,0,0,2.14-.07,7.32,7.32,0,0,0,1.25-.47Z"/><path class="cls-4" d="M93.6,394.74l-2.27-.31V391.9l2.27,0.31v-2.62l3-.45c0,1.39,0,2.08,0,3.47l6,0.8v2.53l-6-.8v3.29a4.39,4.39,0,0,0,.66,2.65,2.66,2.66,0,0,0,1.86,1,3.82,3.82,0,0,0,1.12,0,3.72,3.72,0,0,0,.91-0.26,4.31,4.31,0,0,0,.73-0.41l0.61-.43,1.38,2.25a3.68,3.68,0,0,1-1,.71,7.2,7.2,0,0,1-2.67.76,6.56,6.56,0,0,1-1.44,0,5.68,5.68,0,0,1-3.86-2A7.45,7.45,0,0,1,93.6,398v-3.29Z"/><path class="cls-4" d="M105.5,399.54a6.64,6.64,0,0,1,.44-2.52,4.43,4.43,0,0,1,1.24-1.75,4.51,4.51,0,0,1,1.92-.94,7,7,0,0,1,2.49-.08,7.78,7.78,0,0,1,2.58.76,6.34,6.34,0,0,1,1.92,1.47,6.07,6.07,0,0,1,1.18,2.07,7.79,7.79,0,0,1,.4,2.53,6.68,6.68,0,0,1-.44,2.52,4.45,4.45,0,0,1-1.24,1.76,4.5,4.5,0,0,1-1.91.94,7,7,0,0,1-2.49.09,7.76,7.76,0,0,1-2.58-.77,6.36,6.36,0,0,1-1.92-1.48,6.12,6.12,0,0,1-1.18-2.07A7.82,7.82,0,0,1,105.5,399.54Zm3.07,0.4a4.85,4.85,0,0,0,.21,1.43,4,4,0,0,0,.6,1.2,3.25,3.25,0,0,0,.94.87,3.16,3.16,0,0,0,1.26.43,2.61,2.61,0,0,0,2.17-.58,3.34,3.34,0,0,0,.84-2.59,4.42,4.42,0,0,0-.78-2.66,3.09,3.09,0,0,0-2.23-1.26,3.42,3.42,0,0,0-1.19,0,2,2,0,0,0-1,.51,2.61,2.61,0,0,0-.63,1A4.72,4.72,0,0,0,108.57,399.94Z"/><path class="cls-4" d="M119.35,404.51l2.85,0.35v-6.44l-2.85-.35v-2.53l5.16,0.63,0.34,1.56h0.09a5.1,5.1,0,0,1,1.47-1.09,3.39,3.39,0,0,1,1.93-.28,3,3,0,0,1,2.17,1.27,6,6,0,0,1,.79,3.47l-2.69-.32a2.49,2.49,0,0,0-.24-1.24,1,1,0,0,0-.77-0.47,2.08,2.08,0,0,0-1.48.28,3.89,3.89,0,0,0-1,.94v4.9l5,0.59v2.53c-4.32-.51-6.49-0.77-10.81-1.3v-2.53Z"/><path class="cls-4" d="M133.58,406.21l4,0.46v-6.44l-4-.46v-2.53l7,0.8v9l4.25,0.47V410c-4.51-.5-6.77-0.75-11.27-1.27v-2.53Zm3.49-11.7a1.44,1.44,0,0,1,.53-1.16,1.86,1.86,0,0,1,1.47-.34,2.5,2.5,0,0,1,1.54.68,1.76,1.76,0,0,1,.57,1.28,1.32,1.32,0,0,1-.57,1.14,2.17,2.17,0,0,1-1.54.3,2.37,2.37,0,0,1-1.47-.64A1.73,1.73,0,0,1,137.07,394.51Z"/><path class="cls-4" d="M148.07,399.64a11.52,11.52,0,0,1,2.13-.48,11.85,11.85,0,0,1,2.86,0,6.72,6.72,0,0,1,2,.5,3.9,3.9,0,0,1,1.36,1,3.54,3.54,0,0,1,.75,1.34,5.79,5.79,0,0,1,.23,1.68q0,1.17-.08,2c-0.05.54-.08,1-0.08,1.46a10,10,0,0,0,0,1.09c0,0.21.05,0.43,0.07,0.63l1.49,0.15v2.53l-3.86-.4-0.3-1.6h-0.11a3.4,3.4,0,0,1-1.3,1.09,4.11,4.11,0,0,1-2.28.28,4.29,4.29,0,0,1-2.72-1.21,3.5,3.5,0,0,1-1-2.55,3.43,3.43,0,0,1,.35-1.63,2.54,2.54,0,0,1,1-1,4.41,4.41,0,0,1,1.62-.49,9.3,9.3,0,0,1,2.11,0q0.41,0,.87.14l1.12,0.21a2.3,2.3,0,0,0,0-.46V403.4a1.63,1.63,0,0,0-.5-1.31,2.67,2.67,0,0,0-1.48-.54,6.7,6.7,0,0,0-2.1.08,12.2,12.2,0,0,0-1.57.43ZM152,408.5a2.58,2.58,0,0,0,1.64-.23,2.31,2.31,0,0,0,.8-0.78v-1.38l-0.68-.17a8.16,8.16,0,0,0-1-.16,4.64,4.64,0,0,0-.86,0,2.65,2.65,0,0,0-.77.17,1.3,1.3,0,0,0-.55.39,1,1,0,0,0-.2.65,1.45,1.45,0,0,0,.37,1A1.94,1.94,0,0,0,152,408.5Z"/><path class="cls-4" d="M161.78,395.69l4.9,0.49c0,4.25,0,6.38,0,10.63a5.2,5.2,0,0,0,.44,2.5,1.72,1.72,0,0,0,1.4.83,3.77,3.77,0,0,0,1.17,0,4,4,0,0,0,.92-0.34l1.13,2.18q-0.39.22-.78,0.4a4.54,4.54,0,0,1-.83.29,5.26,5.26,0,0,1-1,.14,7.53,7.53,0,0,1-1.16,0,4.78,4.78,0,0,1-3.24-1.42,4.68,4.68,0,0,1-1.08-3.24c0-3.86,0-5.8,0-9.66l-1.91-.19v-2.53Z"/><path class="cls-4" d="M175.37,415.81c4.08,0.38,6.13.57,10.21,0.93v2.46c-4.09-.36-6.13-0.55-10.21-0.93C175.37,417.29,175.37,416.79,175.37,415.81Z"/><path class="cls-4" d="M187.38,398.11l4.65,0.4c0,2.35,0,3.53,0,5.89h0.09a3.45,3.45,0,0,1,1.47-1,4.82,4.82,0,0,1,2.16-.26,5.63,5.63,0,0,1,1.61.36,3.41,3.41,0,0,1,1.27.86,4,4,0,0,1,.83,1.51,7.5,7.5,0,0,1,.3,2.27v7.15l-3-.25c0-2.61,0-3.92,0-6.53a3,3,0,0,0-.6-2.07,2.27,2.27,0,0,0-1.57-.75A2.44,2.44,0,0,0,193,406a2.5,2.5,0,0,0-1,1.24v7.34l-3-.26c0-5.43,0-8.14,0-13.57l-1.66-.15v-2.53Z"/><path class="cls-4" d="M213.47,415.11a3.72,3.72,0,0,1-.77.48,6.89,6.89,0,0,1-1.11.41,8.1,8.1,0,0,1-1.39.26,8.78,8.78,0,0,1-1.61,0,8.13,8.13,0,0,1-2.64-.62,5.76,5.76,0,0,1-3.2-3.37,7.35,7.35,0,0,1-.43-2.58,6.47,6.47,0,0,1,.48-2.62,4.76,4.76,0,0,1,1.32-1.79,5,5,0,0,1,2-1,7.43,7.43,0,0,1,2.44-.19,7.87,7.87,0,0,1,1.81.37,5.42,5.42,0,0,1,1.72.92,4.76,4.76,0,0,1,1.28,1.6,5.36,5.36,0,0,1,.49,2.43,10.67,10.67,0,0,1-.23,2.12l-8.29-.63a2.81,2.81,0,0,0,.31,1.27,2.75,2.75,0,0,0,.76.89,3.59,3.59,0,0,0,1.08.56,5.61,5.61,0,0,0,1.3.25,6.56,6.56,0,0,0,2.27-.15,4.39,4.39,0,0,0,1.44-.67Zm-5-8.59a3.7,3.7,0,0,0-1.13.08,2.89,2.89,0,0,0-1,.41,2.35,2.35,0,0,0-.7.73,2.27,2.27,0,0,0-.32,1l5.66,0.44A2.48,2.48,0,0,0,208.5,406.52Z"/><path class="cls-4" d="M217,400.49l4.9,0.35c0,4.25,0,6.38,0,10.63a5.11,5.11,0,0,0,.44,2.49,1.67,1.67,0,0,0,1.41.79,3.8,3.8,0,0,0,1.17-.07,4.14,4.14,0,0,0,.92-0.36l1.13,2.15q-0.39.23-.78,0.42a4.69,4.69,0,0,1-.83.31,5.39,5.39,0,0,1-1,.16,7.5,7.5,0,0,1-1.16,0A4.66,4.66,0,0,1,220,416a4.56,4.56,0,0,1-1.08-3.21c0-3.86,0-5.8,0-9.66L217,403v-2.53Z"/><path class="cls-4" d="M228.81,405.91l3.92,0.26,0.35,1.4h0.09a4.14,4.14,0,0,1,3.87-1.46,5.71,5.71,0,0,1,1.95.45,4.15,4.15,0,0,1,1.52,1.14,5.31,5.31,0,0,1,1,1.85,8.81,8.81,0,0,1,.35,2.62,8.21,8.21,0,0,1-.39,2.63,5.22,5.22,0,0,1-1.13,1.94,4.45,4.45,0,0,1-1.8,1.15,6.11,6.11,0,0,1-2.42.29,9.69,9.69,0,0,1-1.4-.19,4.09,4.09,0,0,1-1.15-.41v4.71l-3-.19c0-5.43,0-8.14,0-13.57l-1.73-.11v-2.53Zm7.33,2.68a2.92,2.92,0,0,0-1.6.34,2.08,2.08,0,0,0-1,1.25V415a2.65,2.65,0,0,0,.93.46,5.31,5.31,0,0,0,1.23.23,3.13,3.13,0,0,0,1.2-.14,2.25,2.25,0,0,0,1-.64,3.16,3.16,0,0,0,.64-1.18,5.83,5.83,0,0,0,.23-1.76,3.59,3.59,0,0,0-.74-2.39A2.56,2.56,0,0,0,236.14,408.59Z"/><path class="cls-4" d="M254.94,417.76a3.8,3.8,0,0,1-.77.5,7,7,0,0,1-1.11.44,8.21,8.21,0,0,1-1.39.29,8.82,8.82,0,0,1-1.61,0,8.06,8.06,0,0,1-2.64-.56,5.6,5.6,0,0,1-3.2-3.3,7.29,7.29,0,0,1-.43-2.57,6.54,6.54,0,0,1,.48-2.63,4.9,4.9,0,0,1,1.32-1.82,5.16,5.16,0,0,1,2-1,7.49,7.49,0,0,1,2.44-.24,7.74,7.74,0,0,1,1.81.33,5.28,5.28,0,0,1,1.72.89,4.6,4.6,0,0,1,1.28,1.58,5.28,5.28,0,0,1,.5,2.42,10.75,10.75,0,0,1-.23,2.13l-8.3-.46a2.77,2.77,0,0,0,.31,1.26,2.67,2.67,0,0,0,.76.87,3.5,3.5,0,0,0,1.08.53,5.54,5.54,0,0,0,1.3.22,6.6,6.6,0,0,0,2.27-.2,4.5,4.5,0,0,0,1.44-.7Zm-5-8.48a3.75,3.75,0,0,0-1.13.1,3,3,0,0,0-1,.43,2.41,2.41,0,0,0-.7.75,2.29,2.29,0,0,0-.32,1l5.67,0.32A2.42,2.42,0,0,0,250,409.28Z"/><path class="cls-4" d="M257.36,416.57l2.86,0.15v-6.44l-2.86-.15V407.6l5.19,0.26,0.35,1.53H263a5.68,5.68,0,0,1,1.48-1.19,3.54,3.54,0,0,1,1.94-.41,2.76,2.76,0,0,1,2.18,1.11,5.74,5.74,0,0,1,.79,3.42l-2.7-.13a2.37,2.37,0,0,0-.24-1.22,0.9,0.9,0,0,0-.77-0.42,2.2,2.2,0,0,0-1.49.39,4.32,4.32,0,0,0-1,1v4.9l5,0.24v2.53c-4.34-.2-6.51-0.31-10.86-0.54v-2.53Z"/><path class="cls-4" d="M280.78,425.06a11.06,11.06,0,0,1-3.14-1.14,9.72,9.72,0,0,1-2.7-2.16,10.31,10.31,0,0,1-1.88-3.21,12.2,12.2,0,0,1-.7-4.31,11.71,11.71,0,0,1,.7-4.24,9.44,9.44,0,0,1,1.88-3.08,8.8,8.8,0,0,1,2.7-2,11.08,11.08,0,0,1,3.14-1l0.55,2.48a9.29,9.29,0,0,0-1.83.58,6.32,6.32,0,0,0-1.95,1.32,7.28,7.28,0,0,0-1.56,2.34,9.12,9.12,0,0,0-.63,3.65A8.69,8.69,0,0,0,276,418a8.36,8.36,0,0,0,1.63,2.45,7.6,7.6,0,0,0,2,1.48,8.24,8.24,0,0,0,1.71.68Z"/><path class="cls-4" d="M286.57,417.88L290.1,418V408l-3,2.21-1.38-1.89,5.26-3.81,2,0.07v13.57l3.46,0.11v2.53l-9.85-.34C286.57,419.4,286.57,418.89,286.57,417.88Z"/><path class="cls-4" d="M303,419.48a1.53,1.53,0,0,1,.52-1.23,1.85,1.85,0,0,1,1.3-.42,2.35,2.35,0,0,1,1.91.88,3.3,3.3,0,0,1,.65,2.06,4.27,4.27,0,0,1-.4,1.88,4.79,4.79,0,0,1-1,1.44,5.44,5.44,0,0,1-1.44,1,5.71,5.71,0,0,1-1.58.48l-0.62-1.28a6.53,6.53,0,0,0,1.12-.36,4.37,4.37,0,0,0,1-.6,3.43,3.43,0,0,0,.77-0.86,2.38,2.38,0,0,0,.36-1.09,3,3,0,0,1-1.18,0,1.84,1.84,0,0,1-.8-0.39,1.57,1.57,0,0,1-.45-0.66A2.38,2.38,0,0,1,303,419.48Z"/><path class="cls-4" d="M314.24,418.72l3.53,0.08V408.74l-3,2.26-1.38-1.87,5.26-3.88,2,0v13.57l3.46,0.07v2.53c-3.94-.07-5.91-0.11-9.85-0.2v-2.53Z"/><path class="cls-4" d="M328.08,419l3.53,0.05V409l-3,2.28-1.38-1.86,5.26-3.92,2,0v13.57l3.46,0v2.53c-3.94,0-5.91-.07-9.85-0.13V419Z"/><path class="cls-4" d="M342.25,424.07a7.85,7.85,0,0,0,1.71-.59,7.13,7.13,0,0,0,2-1.39,7.81,7.81,0,0,0,1.63-2.37,8.45,8.45,0,0,0,.67-3.56,9.35,9.35,0,0,0-.63-3.68,7.79,7.79,0,0,0-1.56-2.42,6.78,6.78,0,0,0-1.95-1.42,9.75,9.75,0,0,0-1.83-.67l0.55-2.46a11.57,11.57,0,0,1,3.14,1.11,9.43,9.43,0,0,1,2.7,2.11,10.06,10.06,0,0,1,1.88,3.17,13.33,13.33,0,0,1,0,8.54,9.68,9.68,0,0,1-1.88,3.12,9.09,9.09,0,0,1-2.7,2,10.63,10.63,0,0,1-3.14,1Z"/><path class="cls-4" d="M506.39,413.81l2.85-.21v-6.44l-2.85.21v-2.53l5.18-.39,0.34,1.49H512a6.84,6.84,0,0,1,1.47-1.38,3.88,3.88,0,0,1,1.93-.66,2.42,2.42,0,0,1,2.18.84,5.27,5.27,0,0,1,.79,3.32l-2.69.21a2.21,2.21,0,0,0-.24-1.19,0.78,0.78,0,0,0-.77-0.32,2.45,2.45,0,0,0-1.48.58,5.21,5.21,0,0,0-1,1.13v4.9l5-.39v2.53c-4.34.35-6.5,0.51-10.84,0.84v-2.53Z"/><path class="cls-4" d="M531.59,413.08a4.66,4.66,0,0,1-.77.61,8.22,8.22,0,0,1-1.1.59,9.33,9.33,0,0,1-3,.76,7.57,7.57,0,0,1-2.64-.19,4.6,4.6,0,0,1-3.2-2.85,6.81,6.81,0,0,1-.43-2.51,7,7,0,0,1,.48-2.7,6,6,0,0,1,1.32-2,6.18,6.18,0,0,1,2-1.3,8,8,0,0,1,2.44-.59,7.4,7.4,0,0,1,1.81.08,4.51,4.51,0,0,1,1.71.65,3.75,3.75,0,0,1,1.28,1.4,4.85,4.85,0,0,1,.5,2.35,11.25,11.25,0,0,1-.23,2.16l-8.28.71a2.51,2.51,0,0,0,.31,1.22,2.18,2.18,0,0,0,.76.76,3,3,0,0,0,1.08.38,5.31,5.31,0,0,0,1.3,0,7,7,0,0,0,2.27-.51,5.36,5.36,0,0,0,1.44-.91Zm-5-7.78a4,4,0,0,0-1.13.26,3.48,3.48,0,0,0-1,.56,3,3,0,0,0-.7.84,2.58,2.58,0,0,0-.32,1.08l5.66-.48A2.07,2.07,0,0,0,526.62,405.3Z"/><path class="cls-4" d="M545.66,411.92a7.39,7.39,0,0,1-2.21,1.28,10.14,10.14,0,0,1-2.64.6,7.25,7.25,0,0,1-2.66-.19,4.8,4.8,0,0,1-2-1.05,4.62,4.62,0,0,1-1.21-1.81,7.39,7.39,0,0,1,.07-5.07,6.15,6.15,0,0,1,1.35-2,6.55,6.55,0,0,1,2-1.37,8.28,8.28,0,0,1,2.55-.64,9.22,9.22,0,0,1,2.41.07,10.58,10.58,0,0,1,1.73.41v4l-2.53.24v-2.12a6.36,6.36,0,0,0-1.43,0,4.54,4.54,0,0,0-1.28.31,3.51,3.51,0,0,0-1.13.72,3.6,3.6,0,0,0-1.12,2.71,3.39,3.39,0,0,0,.25,1.33,2.86,2.86,0,0,0,.71,1,2.89,2.89,0,0,0,1.14.62,4,4,0,0,0,1.51.13,5.69,5.69,0,0,0,2.15-.57,9.79,9.79,0,0,0,1.25-.76Z"/><path class="cls-4" d="M554.49,400.67l4.28-.43v9l1.75-.18c0,1,0,1.52,0,2.53l-3.63.37-0.53-1.65h-0.09a4.7,4.7,0,0,1-1.59,1.61,5.22,5.22,0,0,1-2.35.81,5.1,5.1,0,0,1-1.6-.07,2.55,2.55,0,0,1-1.23-.64,3.12,3.12,0,0,1-.78-1.35,7.49,7.49,0,0,1-.28-2.23v-4.62l-1.31.13v-2.53l4.3-.41v6.53a3.31,3.31,0,0,0,.45,2,1.48,1.48,0,0,0,1.41.48,2.74,2.74,0,0,0,1.53-.66,3.12,3.12,0,0,0,1-1.34v-4.9l-1.29.13v-2.53Z"/><path class="cls-4" d="M561.6,408.92l2.85-.29v-6.44l-2.85.29V400l5.17-.54,0.34,1.48h0.09a7.12,7.12,0,0,1,1.47-1.42,4,4,0,0,1,1.93-.71,2.35,2.35,0,0,1,2.17.78,5.17,5.17,0,0,1,.79,3.29l-2.69.29a2.17,2.17,0,0,0-.24-1.18,0.76,0.76,0,0,0-.77-0.3,2.51,2.51,0,0,0-1.48.62,5.45,5.45,0,0,0-1,1.16v4.9l5-.53c0,1,0,1.52,0,2.53-4.33.47-6.49,0.7-10.82,1.14v-2.53Z"/><path class="cls-4" d="M584.93,413.79a9.73,9.73,0,0,1-3.12-.66,7.79,7.79,0,0,1-2.69-1.74,8.41,8.41,0,0,1-1.87-2.92,11.36,11.36,0,0,1-.7-4.2,12.66,12.66,0,0,1,.7-4.34,11.53,11.53,0,0,1,1.87-3.37,11,11,0,0,1,2.69-2.4,12.79,12.79,0,0,1,3.12-1.44l0.55,2.4a10.8,10.8,0,0,0-1.82.87,7.85,7.85,0,0,0-1.94,1.62,9,9,0,0,0-1.55,2.58,9.9,9.9,0,0,0-.63,3.75,8,8,0,0,0,.67,3.49,6.73,6.73,0,0,0,1.62,2.2,6.12,6.12,0,0,0,2,1.18,7.15,7.15,0,0,0,1.7.42Z"/><path class="cls-4" d="M590.69,405.71l3.51-.42c0-4,0-6,0-10.05l-3,2.68-1.38-1.68,5.23-4.62,2-.24c0,5.43,0,8.14,0,13.57l3.44-.42v2.53c-3.92.48-5.88,0.72-9.8,1.18C590.69,407.23,590.69,406.72,590.69,405.71Z"/><path class="cls-4" d="M604.46,404l3.51-.44V393.55l-3,2.7-1.38-1.67,5.23-4.66,2-.26v13.57l3.44-.44v2.53l-9.79,1.25V404Z"/><path class="cls-4" d="M620.78,403a1.81,1.81,0,0,1,.52-1.31,2.15,2.15,0,0,1,1.3-.63,2,2,0,0,1,1.9.57,2.89,2.89,0,0,1,.64,2,4.74,4.74,0,0,1-.4,1.94,6,6,0,0,1-1,1.61,6.84,6.84,0,0,1-1.43,1.21,6.67,6.67,0,0,1-1.57.74l-0.62-1.18a7.66,7.66,0,0,0,1.11-.54,5.42,5.42,0,0,0,1-.77,4.33,4.33,0,0,0,.77-1,2.74,2.74,0,0,0,.35-1.15,3,3,0,0,1-1.17.19,1.54,1.54,0,0,1-.79-0.26,1.25,1.25,0,0,1-.45-0.58A2.21,2.21,0,0,1,620.78,403Z"/><path class="cls-4" d="M632,400.41l3.5-.49V389.87l-3,2.75L631.07,391l5.22-4.73,2-.29c0,5.43,0,8.14,0,13.57l3.43-.49c0,1,0,1.52,0,2.53-3.91.56-5.87,0.84-9.78,1.39v-2.53Z"/><path class="cls-4" d="M644.15,393.13a14.53,14.53,0,0,1,.44-3.73,8.93,8.93,0,0,1,1.23-2.79,6.33,6.33,0,0,1,1.9-1.83,6.43,6.43,0,0,1,2.46-.88,4.61,4.61,0,0,1,4.46,1.37q1.56,1.8,1.56,6.08a14.63,14.63,0,0,1-.44,3.76,9.13,9.13,0,0,1-1.23,2.81,6.27,6.27,0,0,1-1.91,1.85,6.49,6.49,0,0,1-2.47.89,4.45,4.45,0,0,1-4.46-1.49Q644.15,397.23,644.15,393.13Zm3-.44c0,0.23,0,.45,0,0.65s0,0.42,0,.63l5.54-6a2.16,2.16,0,0,0-2.56-1.59,3,3,0,0,0-2.24,1.75A10.22,10.22,0,0,0,647.12,392.7Zm6.09-.9q0-.37,0-0.7t0-.65l-5.56,6a2.19,2.19,0,0,0,2.56,1.71,3,3,0,0,0,2.25-1.74A10.25,10.25,0,0,0,653.21,391.79Z"/><path class="cls-4" d="M659.75,401.24a9.21,9.21,0,0,0,1.69-.87,8.93,8.93,0,0,0,2-1.71A9.74,9.74,0,0,0,665,396a9.3,9.3,0,0,0,.66-3.67,8.68,8.68,0,0,0-.63-3.58,6.23,6.23,0,0,0-1.54-2.16,5.4,5.4,0,0,0-1.93-1.1,8.45,8.45,0,0,0-1.82-.38l0.55-2.55a10.07,10.07,0,0,1,3.11.6,7.47,7.47,0,0,1,2.67,1.68,8.13,8.13,0,0,1,1.86,2.87,11.17,11.17,0,0,1,.7,4.16,13,13,0,0,1-.7,4.39,11.93,11.93,0,0,1-1.86,3.42,11.41,11.41,0,0,1-2.67,2.46,12.35,12.35,0,0,1-3.11,1.49Z"/><path class="cls-4" d="M51.08,449.27v-2.53l2.7,0.43v-6.44l-2.72-.43v-2.53l2.72,0.43v-0.64a3.88,3.88,0,0,1,.38-1.8,3,3,0,0,1,1-1.13,3.43,3.43,0,0,1,1.43-.53,5.72,5.72,0,0,1,1.68,0,11.54,11.54,0,0,1,2.6.66,7.89,7.89,0,0,1,1.68.91l-0.87,2.15a12.15,12.15,0,0,0-1.13-.63,5.43,5.43,0,0,0-1.57-.45,2,2,0,0,0-1.73.3,2.21,2.21,0,0,0-.49,1.61l4.8,0.74v2.53l-4.8-.74v6.44l4.83,0.74v2.53C57.37,450.26,55.27,449.93,51.08,449.27Z"/><path class="cls-4" d="M65.23,440.74a11.22,11.22,0,0,1,2.12-.39,11.81,11.81,0,0,1,2.85.13,6.9,6.9,0,0,1,2,.59,4.14,4.14,0,0,1,1.35,1,3.75,3.75,0,0,1,.74,1.37,5.93,5.93,0,0,1,.23,1.69q0,1.17-.08,2t-0.08,1.46a10.15,10.15,0,0,0,0,1.09c0,0.21.05,0.43,0.07,0.63L76,450.52v2.53l-3.84-.56-0.3-1.61-0.11,0a3.19,3.19,0,0,1-1.3,1,4,4,0,0,1-2.27.18,4.47,4.47,0,0,1-2.71-1.33,3.65,3.65,0,0,1-1-2.59,3.35,3.35,0,0,1,.35-1.61,2.38,2.38,0,0,1,1-1,4.24,4.24,0,0,1,1.61-.42,9.27,9.27,0,0,1,2.1.1q0.41,0.06.86,0.17l1.11,0.26a2.27,2.27,0,0,0,0-.45v-0.44a1.7,1.7,0,0,0-.5-1.33,2.76,2.76,0,0,0-1.48-.6,6.62,6.62,0,0,0-2.09,0,11.75,11.75,0,0,0-1.57.36Zm3.89,9a2.52,2.52,0,0,0,1.63-.16,2.17,2.17,0,0,0,.79-0.75v-1.38l-0.68-.2a8.27,8.27,0,0,0-1-.2,4.67,4.67,0,0,0-.86,0,2.58,2.58,0,0,0-.77.14,1.22,1.22,0,0,0-.54.37,1,1,0,0,0-.2.64,1.51,1.51,0,0,0,.37,1.06A2,2,0,0,0,69.13,449.76Z"/><path class="cls-4" d="M89.41,453.85a5.67,5.67,0,0,1-2.2.76,9.33,9.33,0,0,1-2.63,0,8.17,8.17,0,0,1-2.65-.81A6.56,6.56,0,0,1,80,452.28a6.29,6.29,0,0,1-1.2-2.09,7.69,7.69,0,0,1-.41-2.54,6,6,0,0,1,.48-2.51,4.43,4.43,0,0,1,1.34-1.72,4.88,4.88,0,0,1,2-.9,7.5,7.5,0,0,1,2.54,0,10.17,10.17,0,0,1,2.41.64,12.94,12.94,0,0,1,1.72.81v4l-2.52-.35v-2.12a6.9,6.9,0,0,0-1.42-.36,4.16,4.16,0,0,0-1.27,0,2.58,2.58,0,0,0-1.92,1.42,3.26,3.26,0,0,0-.31,1.5,3.85,3.85,0,0,0,.25,1.39,3.85,3.85,0,0,0,1.84,2.07A4.5,4.5,0,0,0,85,452a5.1,5.1,0,0,0,2.14-.07,7.34,7.34,0,0,0,1.25-.47Z"/><path class="cls-4" d="M93.3,446.52L91,446.21v-2.53L93.3,444v-2.62l3-.45v3.47l6,0.8v2.53l-6-.8v3.29a4.39,4.39,0,0,0,.66,2.65,2.66,2.66,0,0,0,1.86,1,3.82,3.82,0,0,0,1.12,0,3.72,3.72,0,0,0,.91-0.26,4.3,4.3,0,0,0,.73-0.41l0.61-.43,1.38,2.25a3.66,3.66,0,0,1-1,.71,7.06,7.06,0,0,1-1.26.5,7.23,7.23,0,0,1-1.41.26,6.56,6.56,0,0,1-1.44,0,5.68,5.68,0,0,1-3.86-2,7.44,7.44,0,0,1-1.29-4.74v-3.29Z"/><path class="cls-4" d="M105.2,451.32a6.66,6.66,0,0,1,.44-2.52,4.43,4.43,0,0,1,1.24-1.75,4.51,4.51,0,0,1,1.91-.94,7.05,7.05,0,0,1,2.49-.08,7.79,7.79,0,0,1,2.58.76,6.34,6.34,0,0,1,1.92,1.47,6.08,6.08,0,0,1,1.18,2.07,7.81,7.81,0,0,1,.4,2.53,6.68,6.68,0,0,1-.44,2.52,4.46,4.46,0,0,1-1.24,1.76,4.51,4.51,0,0,1-1.92.94,7,7,0,0,1-2.49.09,7.74,7.74,0,0,1-2.58-.77,6.34,6.34,0,0,1-1.91-1.48,6.11,6.11,0,0,1-1.18-2.07A7.82,7.82,0,0,1,105.2,451.32Zm3.07,0.4a4.83,4.83,0,0,0,.21,1.43,4,4,0,0,0,.6,1.2,3.24,3.24,0,0,0,.94.87,3.16,3.16,0,0,0,1.26.43,2.61,2.61,0,0,0,2.17-.58,3.34,3.34,0,0,0,.84-2.59,4.42,4.42,0,0,0-.78-2.66,3.1,3.1,0,0,0-2.22-1.26,3.41,3.41,0,0,0-1.19,0,2,2,0,0,0-1,.51,2.61,2.61,0,0,0-.63,1A4.7,4.7,0,0,0,108.27,451.72Z"/><path class="cls-4" d="M119,456.3l2.84,0.35V450.2l-2.84-.35v-2.53l5.16,0.63,0.34,1.56h0.09a5.12,5.12,0,0,1,1.47-1.09,3.38,3.38,0,0,1,1.93-.28,3,3,0,0,1,2.17,1.27,6,6,0,0,1,.79,3.47l-2.69-.32a2.49,2.49,0,0,0-.24-1.24,1,1,0,0,0-.77-0.47,2.09,2.09,0,0,0-1.48.28,3.9,3.9,0,0,0-1,.94V457l5,0.59v2.53c-4.32-.51-6.49-0.77-10.81-1.3V456.3Z"/><path class="cls-4" d="M133.28,458l4,0.46V452l-4-.46V449l7,0.8v9l4.25,0.47v2.53c-4.51-.5-6.77-0.75-11.27-1.27V458Zm3.49-11.7a1.44,1.44,0,0,1,.53-1.16,1.87,1.87,0,0,1,1.47-.34,2.5,2.5,0,0,1,1.54.68,1.77,1.77,0,0,1,.57,1.28,1.32,1.32,0,0,1-.57,1.14,2.17,2.17,0,0,1-1.54.3,2.37,2.37,0,0,1-1.47-.64A1.73,1.73,0,0,1,136.77,446.29Z"/><path class="cls-4" d="M147.77,451.42a11.56,11.56,0,0,1,2.12-.48,11.88,11.88,0,0,1,2.86,0,6.72,6.72,0,0,1,2,.5,3.91,3.91,0,0,1,1.36,1,3.55,3.55,0,0,1,.75,1.34,5.81,5.81,0,0,1,.23,1.68q0,1.17-.08,2c-0.05.55-.08,1-0.08,1.46a10,10,0,0,0,0,1.09c0,0.21.05,0.43,0.07,0.63l1.49,0.15v2.53l-3.86-.4-0.3-1.6h-0.11a3.4,3.4,0,0,1-1.3,1.09,4.1,4.1,0,0,1-2.28.28,4.29,4.29,0,0,1-2.72-1.21,3.5,3.5,0,0,1-1-2.55,3.43,3.43,0,0,1,.35-1.63,2.54,2.54,0,0,1,1-1,4.41,4.41,0,0,1,1.62-.49,9.31,9.31,0,0,1,2.11,0q0.41,0,.87.14l1.12,0.21a2.3,2.3,0,0,0,0-.46v-0.44a1.63,1.63,0,0,0-.5-1.31,2.66,2.66,0,0,0-1.48-.54,6.71,6.71,0,0,0-2.1.08,12.27,12.27,0,0,0-1.57.43Zm3.91,8.86a2.58,2.58,0,0,0,1.64-.23,2.3,2.3,0,0,0,.79-0.78V457.9l-0.68-.17a8.14,8.14,0,0,0-1-.16,4.64,4.64,0,0,0-.86,0,2.65,2.65,0,0,0-.77.17,1.3,1.3,0,0,0-.55.39,1,1,0,0,0-.2.65,1.45,1.45,0,0,0,.37,1A1.94,1.94,0,0,0,151.68,460.28Z"/><path class="cls-4" d="M161.48,447.48l4.9,0.49v10.63a5.2,5.2,0,0,0,.44,2.5,1.72,1.72,0,0,0,1.4.83,3.76,3.76,0,0,0,1.17,0,4.05,4.05,0,0,0,.92-0.34l1.13,2.18q-0.39.22-.78,0.4a4.59,4.59,0,0,1-.83.29,5.36,5.36,0,0,1-1,.14,7.52,7.52,0,0,1-1.16,0,4.78,4.78,0,0,1-3.24-1.42,4.68,4.68,0,0,1-1.08-3.24V450.2l-1.91-.19v-2.53Z"/><path class="cls-4" d="M183.74,470.57a11.6,11.6,0,0,1-3.13-1.29,10.44,10.44,0,0,1-2.69-2.29,11,11,0,0,1-1.87-3.3,12.53,12.53,0,0,1-.7-4.34,11.46,11.46,0,0,1,.7-4.2,8.85,8.85,0,0,1,1.87-3,8.21,8.21,0,0,1,2.69-1.85,10.61,10.61,0,0,1,3.13-.8l0.55,2.51a8.9,8.9,0,0,0-1.83.49,5.89,5.89,0,0,0-1.94,1.23A6.79,6.79,0,0,0,179,456a9.26,9.26,0,0,0,1.66,9.78,8.15,8.15,0,0,0,2,1.58,8.64,8.64,0,0,0,1.7.76Z"/><path class="cls-4" d="M189.51,463.68L193,464V453.93L190,456l-1.38-2,5.25-3.55,2,0.17v13.57l3.45,0.28V467l-9.83-.83v-2.53Z"/><path class="cls-4" d="M203.32,464.82l3.52,0.28V455.05l-3,2.08-1.38-2,5.25-3.59,2,0.16v13.57l3.45,0.26v2.53l-9.83-.76v-2.53Z"/><path class="cls-4" d="M217.45,470.8a7.36,7.36,0,0,0,1.7-.49,6.52,6.52,0,0,0,2-1.26,7.16,7.16,0,0,0,1.62-2.27,8.17,8.17,0,0,0,.67-3.52,9.68,9.68,0,0,0-.63-3.72,8.48,8.48,0,0,0-1.55-2.51,7.41,7.41,0,0,0-1.95-1.54,10.37,10.37,0,0,0-1.83-.79l0.55-2.42a12.29,12.29,0,0,1,3.13,1.3,10.34,10.34,0,0,1,2.69,2.28,10.92,10.92,0,0,1,1.88,3.29,12.38,12.38,0,0,1,.7,4.31,11.58,11.58,0,0,1-.7,4.23,8.9,8.9,0,0,1-1.88,3,8.28,8.28,0,0,1-2.69,1.86,10.06,10.06,0,0,1-3.13.79Z"/><path class="cls-4" d="M369.1,473.56V471h2.72v-6.44h-2.74v-2.53h2.74V461.4a4.23,4.23,0,0,1,.38-1.87,3.78,3.78,0,0,1,1-1.29,4.14,4.14,0,0,1,1.44-.76,6,6,0,0,1,1.7-.25,10.77,10.77,0,0,1,2.62.24,6.68,6.68,0,0,1,1.7.64l-0.88,2.29a10.28,10.28,0,0,0-1.14-.45,5,5,0,0,0-1.58-.19,2.26,2.26,0,0,0-1.74.58,2.51,2.51,0,0,0-.5,1.69l4.84,0v2.53l-4.84,0V471l4.87,0v2.53C375.46,473.52,373.34,473.54,369.1,473.56Z"/><path class="cls-4" d="M383.38,462.72a12.78,12.78,0,0,1,2.13-.74,12.26,12.26,0,0,1,2.87-.34,6.34,6.34,0,0,1,2,.26,3.34,3.34,0,0,1,1.36.79,3,3,0,0,1,.75,1.25,5.5,5.5,0,0,1,.23,1.65q0,1.17-.08,2t-0.08,1.47a9.86,9.86,0,0,0,0,1.08c0,0.21.05,0.42,0.07,0.62l1.5,0v2.53l-3.87.06-0.3-1.56h-0.11a4.06,4.06,0,0,1-1.31,1.25,4.41,4.41,0,0,1-2.29.55,3.84,3.84,0,0,1-2.73-.89,3.1,3.1,0,0,1-1-2.43,3.69,3.69,0,0,1,.35-1.67,3,3,0,0,1,1-1.16,5,5,0,0,1,1.63-.69,9.6,9.6,0,0,1,2.12-.25c0.27,0,.56,0,0.87,0l1.12,0.08a2.38,2.38,0,0,0,0-.46v-0.44a1.45,1.45,0,0,0-.5-1.25,2.43,2.43,0,0,0-1.49-.36,7,7,0,0,0-2.11.33,13.7,13.7,0,0,0-1.58.62Zm3.93,8.39a2.53,2.53,0,0,0,2.44-1.3v-1.38l-0.68-.09a7.91,7.91,0,0,0-1,0,4.74,4.74,0,0,0-.87.09,2.93,2.93,0,0,0-.78.26,1.54,1.54,0,0,0-.55.46,1.1,1.1,0,0,0-.2.67,1.29,1.29,0,0,0,.38,1A1.75,1.75,0,0,0,387.31,471.11Z"/><path class="cls-4" d="M407.74,471.9a6.8,6.8,0,0,1-2.21,1.12,9.81,9.81,0,0,1-2.65.42,7.44,7.44,0,0,1-2.66-.38,5.27,5.27,0,0,1-2-1.19A5.08,5.08,0,0,1,397,470a7.07,7.07,0,0,1-.42-2.48,6.53,6.53,0,0,1,.48-2.58,5.58,5.58,0,0,1,1.35-1.94,6,6,0,0,1,2-1.23,8,8,0,0,1,2.56-.46,9.43,9.43,0,0,1,2.42.24,11.1,11.1,0,0,1,1.73.53v4l-2.54.06v-2.12a6.48,6.48,0,0,0-1.43-.13,4.37,4.37,0,0,0-1.28.22,3.21,3.21,0,0,0-1.13.64,3.36,3.36,0,0,0-.81,1.09,3.56,3.56,0,0,0-.31,1.55,3.51,3.51,0,0,0,.25,1.35,3.07,3.07,0,0,0,1.86,1.77,4.08,4.08,0,0,0,1.51.23,5.48,5.48,0,0,0,2.16-.42,9,9,0,0,0,1.26-.67Z"/><path class="cls-4" d="M411.67,463.93l-2.28.06v-2.53l2.28-.06v-2.62l3-.93v3.47l6-.18v2.53l-6,.18v3.29a3.88,3.88,0,0,0,.67,2.55,2.25,2.25,0,0,0,1.87.74,4,4,0,0,0,1.13-.18,4.42,4.42,0,0,0,.91-0.41,5.47,5.47,0,0,0,.74-0.53l0.61-.52,1.38,2a4.65,4.65,0,0,1-1,.87,8.67,8.67,0,0,1-1.27.71,8.27,8.27,0,0,1-1.42.49,6.87,6.87,0,0,1-1.45.2,4.85,4.85,0,0,1-3.89-1.33q-1.3-1.4-1.3-4.53v-3.29Z"/><path class="cls-4" d="M423.63,466.8a7.18,7.18,0,0,1,.44-2.59,5.52,5.52,0,0,1,1.25-2,5.57,5.57,0,0,1,1.93-1.25,7.54,7.54,0,0,1,2.5-.49,7.13,7.13,0,0,1,2.59.34,5.1,5.1,0,0,1,1.93,1.16,4.93,4.93,0,0,1,1.19,1.88,7.82,7.82,0,0,1,0,5.06,5.46,5.46,0,0,1-3.17,3.21,7.48,7.48,0,0,1-2.5.49,7.09,7.09,0,0,1-2.59-.35,5.11,5.11,0,0,1-1.93-1.17,4.94,4.94,0,0,1-1.19-1.88A7.21,7.21,0,0,1,423.63,466.8Zm3.09-.1a4.49,4.49,0,0,0,.21,1.4,3.29,3.29,0,0,0,.6,1.11,2.57,2.57,0,0,0,.94.71,2.85,2.85,0,0,0,1.27.22,3,3,0,0,0,2.18-.93A4.66,4.66,0,0,0,432,464a2.61,2.61,0,0,0-2.24-.9,3.66,3.66,0,0,0-1.2.24,2.48,2.48,0,0,0-1,.67,3.23,3.23,0,0,0-.63,1.13A5,5,0,0,0,426.72,466.7Z"/><path class="cls-4" d="M437.56,469.53l2.86-.11V463l-2.86.11v-2.53l5.19-.21,0.35,1.5h0.09a6.51,6.51,0,0,1,1.48-1.33,3.78,3.78,0,0,1,1.94-.59,2.51,2.51,0,0,1,2.18.92,5.39,5.39,0,0,1,.79,3.34l-2.7.12a2.25,2.25,0,0,0-.24-1.2,0.81,0.81,0,0,0-.77-0.35,2.37,2.37,0,0,0-1.49.52,5,5,0,0,0-1,1.1v4.9l5-.22v2.53c-4.34.19-6.52,0.29-10.86,0.46v-2.53Z"/><path class="cls-4" d="M451.86,468.91l4.06-.19v-6.44l-4.06.19v-2.53l7.05-.34v9l4.26-.22v2.53c-4.53.24-6.79,0.35-11.32,0.56v-2.53Zm3.5-12.26a1.71,1.71,0,0,1,.53-1.24,2.15,2.15,0,0,1,1.48-.58,2.17,2.17,0,0,1,1.54.43,1.48,1.48,0,0,1,.58,1.19,1.57,1.57,0,0,1-.58,1.24,2.47,2.47,0,0,1-1.54.55,2.06,2.06,0,0,1-1.47-.4A1.46,1.46,0,0,1,455.36,456.65Z"/><path class="cls-4" d="M466.4,460a13.26,13.26,0,0,1,2.13-.83,12.43,12.43,0,0,1,2.87-.46,6.26,6.26,0,0,1,2,.17,3.16,3.16,0,0,1,1.36.74,2.87,2.87,0,0,1,.75,1.22,5.41,5.41,0,0,1,.23,1.64q0,1.17-.08,2T475.62,466a9.81,9.81,0,0,0,0,1.08c0,0.21.05,0.42,0.07,0.62l1.5-.09v2.53l-3.87.23-0.3-1.55h-0.11a4.31,4.31,0,0,1-1.31,1.3,4.54,4.54,0,0,1-2.29.65,3.71,3.71,0,0,1-2.72-.77,3,3,0,0,1-1-2.38,3.78,3.78,0,0,1,.35-1.69,3.22,3.22,0,0,1,1-1.21,5.2,5.2,0,0,1,1.63-.76,9.69,9.69,0,0,1,2.12-.34,8.57,8.57,0,0,1,.87,0l1.12,0a2.41,2.41,0,0,0,0-.46v-0.44a1.39,1.39,0,0,0-.5-1.23,2.36,2.36,0,0,0-1.49-.29,7.14,7.14,0,0,0-2.1.42,14.29,14.29,0,0,0-1.58.68Zm3.92,8.22a2.88,2.88,0,0,0,1.64-.49,3,3,0,0,0,.8-0.91v-1.38l-0.68-.06a7.87,7.87,0,0,0-1,0,4.81,4.81,0,0,0-.87.13,3,3,0,0,0-.77.3,1.64,1.64,0,0,0-.55.48,1.13,1.13,0,0,0-.2.68,1.24,1.24,0,0,0,.38,1A1.7,1.7,0,0,0,470.32,468.22Z"/><path class="cls-4" d="M480.16,453.82l4.91-.31v10.63a4.76,4.76,0,0,0,.44,2.43,1.44,1.44,0,0,0,1.41.6,4,4,0,0,0,1.17-.23,4.82,4.82,0,0,0,.92-0.49l1.13,2q-0.39.28-.78,0.52a5.43,5.43,0,0,1-.83.42,5.91,5.91,0,0,1-1,.29,7.76,7.76,0,0,1-1.16.16,4.13,4.13,0,0,1-3.25-.9,4,4,0,0,1-1.08-3.06v-9.66l-1.91.12v-2.53Z"/><path class="cls-4" d="M493.77,471.74c4.09-.28,6.14-0.42,10.22-0.72v2.46c-4.09.3-6.13,0.44-10.22,0.72C493.77,473.21,493.77,472.72,493.77,471.74Z"/><path class="cls-4" d="M505.79,452.09l4.65-.35v5.89h0.09a4.35,4.35,0,0,1,1.47-1.29,5.76,5.76,0,0,1,3.78-.5,2.77,2.77,0,0,1,1.27.66,3.22,3.22,0,0,1,.83,1.37,7,7,0,0,1,.3,2.22v7.15l-3,.24v-6.53a2.67,2.67,0,0,0-.6-2,1.94,1.94,0,0,0-1.57-.5,2.8,2.8,0,0,0-1.56.64,3.12,3.12,0,0,0-1,1.4v7.34l-3,.23V454.5l-1.66.12v-2.53Z"/><path class="cls-4" d="M531.89,464.87a4.63,4.63,0,0,1-.77.61,8.27,8.27,0,0,1-1.1.59,9.33,9.33,0,0,1-3,.76,7.57,7.57,0,0,1-2.64-.19,4.6,4.6,0,0,1-3.2-2.85,6.81,6.81,0,0,1-.43-2.51,7,7,0,0,1,.48-2.7,6,6,0,0,1,1.32-2,6.19,6.19,0,0,1,2-1.3,8,8,0,0,1,2.44-.59,7.4,7.4,0,0,1,1.81.08,4.52,4.52,0,0,1,1.71.65,3.75,3.75,0,0,1,1.28,1.4,4.85,4.85,0,0,1,.5,2.35,11.25,11.25,0,0,1-.23,2.16l-8.28.71a2.51,2.51,0,0,0,.31,1.22,2.17,2.17,0,0,0,.76.76,3,3,0,0,0,1.08.38,5.29,5.29,0,0,0,1.3,0,7,7,0,0,0,2.27-.52,5.37,5.37,0,0,0,1.44-.91Zm-5-7.78a4,4,0,0,0-1.13.26,3.48,3.48,0,0,0-1,.56,3,3,0,0,0-.7.84,2.58,2.58,0,0,0-.32,1.08l5.66-.48A2.07,2.07,0,0,0,526.92,457.08Z"/><path class="cls-4" d="M535.41,449.67l4.9-.44v10.63a4.69,4.69,0,0,0,.44,2.42,1.4,1.4,0,0,0,1.4.56,4,4,0,0,0,1.17-.26,5,5,0,0,0,.92-0.51l1.13,2q-0.39.29-.78,0.55a5.66,5.66,0,0,1-.83.45,6.08,6.08,0,0,1-1,.32,7.84,7.84,0,0,1-1.16.19,4,4,0,0,1-3.24-.81,3.94,3.94,0,0,1-1.08-3V452l-1.91.17v-2.53Z"/><path class="cls-4" d="M547.21,453.19l3.91-.38,0.34,1.35h0.09a4.9,4.9,0,0,1,3.86-2.08,5.28,5.28,0,0,1,1.94.14,3.32,3.32,0,0,1,1.52.89,4.34,4.34,0,0,1,1,1.69,8.27,8.27,0,0,1,.34,2.56,8.82,8.82,0,0,1-.39,2.7,6.39,6.39,0,0,1-1.13,2.13,5.56,5.56,0,0,1-1.79,1.45,6.68,6.68,0,0,1-2.41.68,9.32,9.32,0,0,1-1.4,0,3.62,3.62,0,0,1-1.15-.22v4.71l-3,.29V455.55l-1.72.16v-2.53Zm7.31,1.5a3.31,3.31,0,0,0-1.6.59,2.59,2.59,0,0,0-1,1.41v4.78a2.22,2.22,0,0,0,.93.31,5,5,0,0,0,1.23,0,3.42,3.42,0,0,0,1.2-.34,2.81,2.81,0,0,0,1-.8,3.86,3.86,0,0,0,.64-1.28,6.23,6.23,0,0,0,.23-1.79,3.13,3.13,0,0,0-.74-2.27A2.17,2.17,0,0,0,554.52,454.68Z"/><path class="cls-4" d="M573.27,460.81a4.8,4.8,0,0,1-.77.62,8.43,8.43,0,0,1-1.1.61,9.45,9.45,0,0,1-3,.83,7.53,7.53,0,0,1-2.63-.14,4.46,4.46,0,0,1-3.19-2.79,6.75,6.75,0,0,1-.42-2.5,7.14,7.14,0,0,1,.48-2.71,6.13,6.13,0,0,1,1.32-2,6.36,6.36,0,0,1,2-1.34,8.1,8.1,0,0,1,2.44-.64,7.37,7.37,0,0,1,1.8,0,4.41,4.41,0,0,1,1.71.61,3.63,3.63,0,0,1,1.27,1.37,4.8,4.8,0,0,1,.49,2.34,11.35,11.35,0,0,1-.23,2.16l-8.27.88a2.47,2.47,0,0,0,.31,1.21,2.1,2.1,0,0,0,.76.75,2.94,2.94,0,0,0,1.08.36,5.29,5.29,0,0,0,1.3,0,7.11,7.11,0,0,0,2.26-.56,5.52,5.52,0,0,0,1.44-.94Zm-5-7.68a4,4,0,0,0-1.13.28,3.6,3.6,0,0,0-1,.58,3,3,0,0,0-.7.86,2.63,2.63,0,0,0-.32,1.09l5.65-.6A2,2,0,0,0,568.31,453.13Z"/><path class="cls-4" d="M575.68,459.24l2.85-.31v-6.44l-2.85.31v-2.53l5.17-.57,0.34,1.48h0.09a7.2,7.2,0,0,1,1.47-1.43,4,4,0,0,1,1.93-.73,2.33,2.33,0,0,1,2.17.76,5.14,5.14,0,0,1,.79,3.29l-2.69.31a2.16,2.16,0,0,0-.24-1.18,0.75,0.75,0,0,0-.77-0.29,2.53,2.53,0,0,0-1.48.63,5.5,5.5,0,0,0-1,1.17v4.9l5-.57v2.53c-4.32.5-6.49,0.74-10.81,1.22C575.68,460.75,575.68,460.25,575.68,459.24Z"/><path class="cls-4" d="M599,463.94a9.69,9.69,0,0,1-3.12-.63,7.71,7.71,0,0,1-2.68-1.73,8.32,8.32,0,0,1-1.87-2.91,11.33,11.33,0,0,1-.7-4.2,12.71,12.71,0,0,1,.7-4.35,11.64,11.64,0,0,1,1.87-3.38,11.08,11.08,0,0,1,2.68-2.41,12.89,12.89,0,0,1,3.12-1.46l0.55,2.39a10.89,10.89,0,0,0-1.82.88,7.93,7.93,0,0,0-1.94,1.64,9.05,9.05,0,0,0-1.55,2.59,9.94,9.94,0,0,0-.63,3.75,8,8,0,0,0,.67,3.48,6.66,6.66,0,0,0,1.62,2.19,6.06,6.06,0,0,0,2,1.17,7.09,7.09,0,0,0,1.7.4Z"/><path class="cls-4" d="M604.76,455.82l3.51-.44V445.33l-3,2.7-1.38-1.67,5.23-4.66,2-.26V455l3.44-.44v2.53c-3.92.51-5.87,0.76-9.79,1.25v-2.53Z"/><path class="cls-4" d="M621.08,454.77a1.81,1.81,0,0,1,.52-1.31,2.15,2.15,0,0,1,1.29-.63,2,2,0,0,1,1.9.57,2.89,2.89,0,0,1,.64,2,4.73,4.73,0,0,1-.4,1.94,6,6,0,0,1-1,1.61,6.83,6.83,0,0,1-1.43,1.21,6.66,6.66,0,0,1-1.57.74l-0.62-1.18a7.65,7.65,0,0,0,1.11-.54,5.42,5.42,0,0,0,1-.77,4.32,4.32,0,0,0,.77-1,2.74,2.74,0,0,0,.36-1.15,3,3,0,0,1-1.17.19,1.54,1.54,0,0,1-.79-0.26,1.25,1.25,0,0,1-.45-0.58A2.21,2.21,0,0,1,621.08,454.77Z"/><path class="cls-4" d="M632.27,452.19l3.5-.49V441.65l-3,2.75-1.37-1.65,5.22-4.73,2-.29V451.3l3.43-.49v2.53c-3.91.56-5.87,0.84-9.78,1.39v-2.53Z"/><path class="cls-4" d="M646,450.23l3.5-.52V439.66l-3,2.77-1.37-1.64,5.22-4.77,2-.3v13.57l3.43-.52v2.53L646,452.76v-2.53Z"/><path class="cls-4" d="M660.05,453a9.25,9.25,0,0,0,1.69-.87,8.92,8.92,0,0,0,2-1.71,9.75,9.75,0,0,0,1.61-2.63,9.3,9.3,0,0,0,.66-3.67,8.67,8.67,0,0,0-.63-3.58,6.23,6.23,0,0,0-1.54-2.16,5.39,5.39,0,0,0-1.93-1.1,8.45,8.45,0,0,0-1.82-.38l0.55-2.55a10.11,10.11,0,0,1,3.11.6,7.47,7.47,0,0,1,2.67,1.68,8.12,8.12,0,0,1,1.86,2.87,11.18,11.18,0,0,1,.7,4.16,13,13,0,0,1-.7,4.39,11.93,11.93,0,0,1-1.86,3.42,11.42,11.42,0,0,1-2.67,2.46,12.34,12.34,0,0,1-3.11,1.49Z"/></svg>