<svg id="Layer_1" data-name="Layer 1" xmlns="http://www.w3.org/2000/svg" viewBox="0 0 720 576"><defs><style>.cls-1,.cls-2,.cls-4,.cls-6{fill:#231f20;}.cls-1,.cls-3{stroke:#231f20;}.cls-1,.cls-6{stroke-miterlimit:10;}.cls-1,.cls-2,.cls-3{stroke-width:2px;}.cls-2{stroke:#000;}.cls-2,.cls-3{stroke-linecap:round;stroke-linejoin:round;}.cls-3,.cls-5{fill:#fff;}.cls-6{stroke:#fff;}</style></defs><title>Hanoi_Tower_Set_5_Final</title><path class="cls-1" d="M680.38,506.49c0-.14,0-0.29,0-0.43s0-.29,0-0.43V453.84H34.5s-0.25,51.74-.25,52.22c0,2.67,2.32,5.24,6.64,7.71,15.13,8.61,55.2,16.11,111,21.48s127.39,8.59,205.41,8.59c89.17,0,169.9-4.21,228.35-11,29.22-3.41,52.88-7.46,69.24-12,8.18-2.25,14.54-4.62,18.86-7.08,3.69-2.1,5.91-4.29,6.48-6.55h0.11v-0.73Z"/><ellipse class="cls-2" cx="357.34" cy="454.92" rx="322.89" ry="37.63"/><path class="cls-3" d="M680.38,455c0-.14,0-0.29,0-0.43s0-.29,0-0.43V402.36H34.5s-0.25,51.74-.25,52.22c0,2.67,2.32,5.24,6.64,7.71,15.13,8.61,55.2,16.11,111,21.48s127.39,8.59,205.41,8.59c89.17,0,169.9-4.21,228.35-11,29.22-3.41,52.88-7.46,69.24-12,8.18-2.25,14.54-4.62,18.86-7.08,3.69-2.1,5.91-4.29,6.48-6.55h0.11V455Z"/><ellipse class="cls-3" cx="357.34" cy="403.44" rx="322.89" ry="37.63"/><path class="cls-3" d="M680.38,403.53c0-.14,0-0.29,0-0.43s0-.29,0-0.43V350.88H34.5s-0.25,51.74-.25,52.22c0,2.67,2.32,5.24,6.64,7.71,15.13,8.61,55.2,16.11,111,21.48s127.39,8.59,205.41,8.59c89.17,0,169.9-4.21,228.35-11,29.22-3.41,52.88-7.46,69.24-12,8.18-2.25,14.54-4.62,18.86-7.08,3.69-2.1,5.91-4.29,6.48-6.55h0.11v-0.73Z"/><ellipse class="cls-3" cx="357.34" cy="351.97" rx="322.89" ry="37.63"/><path class="cls-3" d="M680.38,352.06c0-.14,0-0.29,0-0.43s0-.29,0-0.43V299.4H34.5s-0.25,51.74-.25,52.22c0,2.67,2.32,5.24,6.64,7.71,15.13,8.61,55.2,16.11,111,21.48s127.39,8.59,205.41,8.59c89.17,0,169.9-4.21,228.35-11,29.22-3.41,52.88-7.46,69.24-12,8.18-2.25,14.54-4.62,18.86-7.08,3.69-2.1,5.91-4.29,6.48-6.55h0.11v-0.73Z"/><ellipse class="cls-3" cx="357.34" cy="300.49" rx="322.89" ry="37.63"/><path class="cls-3" d="M680.38,302.06c0-.14,0-0.29,0-0.43s0-.29,0-0.43V249.4H34.5s-0.25,51.74-.25,52.22c0,2.67,2.32,5.24,6.64,7.71,15.13,8.61,55.2,16.11,111,21.48s127.39,8.59,205.41,8.59c89.17,0,169.9-4.21,228.35-11,29.22-3.41,52.88-7.46,69.24-12,8.18-2.25,14.54-4.62,18.86-7.08,3.69-2.1,5.91-4.29,6.48-6.55h0.11v-0.73Z"/><ellipse class="cls-3" cx="357.34" cy="250.49" rx="322.89" ry="37.63"/><path class="cls-4" d="M358.37,259.78c-16,0-29-3.75-30.2-8.61h-0.08l0-.5V8.27h60.63V251.17h-0.12C387.34,256,374.34,259.78,358.37,259.78Z"/><path class="cls-5" d="M388.19,8.77v241.9h0c-0.49,4.78-13.63,8.61-29.79,8.61s-29.3-3.83-29.79-8.61h0v-0.21s0,0,0-.06,0,0,0-.06V8.77h59.63m1-1H327.56V250.29s0,0.07,0,.11v1.27h0.23c2,5.6,16.84,8.61,30.58,8.61s28.6-3,30.58-8.61h0.21l0-1V7.77h0Z"/><ellipse class="cls-6" cx="358.37" cy="8.89" rx="29.81" ry="8.89"/><path class="cls-4" d="M54.46,450.44v-2.53l2.7,0.43V441.9l-2.72-.43v-2.53l2.72,0.43v-0.64a3.87,3.87,0,0,1,.38-1.8,3,3,0,0,1,1-1.13,3.43,3.43,0,0,1,1.43-.53,5.73,5.73,0,0,1,1.68,0,11.54,11.54,0,0,1,2.6.66,7.89,7.89,0,0,1,1.68.91L65,439a12.27,12.27,0,0,0-1.13-.63,5.45,5.45,0,0,0-1.57-.45,2,2,0,0,0-1.73.3,2.21,2.21,0,0,0-.49,1.61l4.8,0.74v2.53l-4.8-.74v6.44L65,449.55v2.53C60.76,451.43,58.66,451.11,54.46,450.44Z"/><path class="cls-4" d="M68.62,441.91a11.17,11.17,0,0,1,2.12-.39,11.81,11.81,0,0,1,2.85.12,6.9,6.9,0,0,1,2,.59,4.14,4.14,0,0,1,1.35,1,3.74,3.74,0,0,1,.74,1.37,5.91,5.91,0,0,1,.23,1.69q0,1.17-.08,2t-0.08,1.46a10.11,10.11,0,0,0,0,1.09c0,0.21.05,0.43,0.07,0.63l1.49,0.22v2.53l-3.84-.56-0.3-1.61-0.11,0a3.19,3.19,0,0,1-1.3,1,4,4,0,0,1-2.27.18,4.47,4.47,0,0,1-2.71-1.33,3.65,3.65,0,0,1-1-2.59,3.35,3.35,0,0,1,.35-1.61,2.38,2.38,0,0,1,1-1,4.23,4.23,0,0,1,1.61-.42,9.26,9.26,0,0,1,2.1.09q0.41,0.06.86,0.17l1.11,0.26a2.28,2.28,0,0,0,0-.45v-0.44a1.7,1.7,0,0,0-.5-1.33A2.76,2.76,0,0,0,73,444a6.64,6.64,0,0,0-2.09,0,11.77,11.77,0,0,0-1.57.36Zm3.89,9a2.52,2.52,0,0,0,1.63-.16,2.17,2.17,0,0,0,.79-0.75v-1.38l-0.68-.2a8.27,8.27,0,0,0-1-.2,4.63,4.63,0,0,0-.86,0,2.57,2.57,0,0,0-.77.14,1.22,1.22,0,0,0-.54.37,1,1,0,0,0-.2.64,1.51,1.51,0,0,0,.37,1.06A2,2,0,0,0,72.51,450.94Z"/><path class="cls-4" d="M92.79,455a5.66,5.66,0,0,1-2.2.76,9.32,9.32,0,0,1-2.63,0,8.16,8.16,0,0,1-2.65-.81,6.56,6.56,0,0,1-1.95-1.51,6.29,6.29,0,0,1-1.2-2.09,7.69,7.69,0,0,1-.41-2.54,6,6,0,0,1,.48-2.51,4.44,4.44,0,0,1,1.34-1.72,4.88,4.88,0,0,1,2-.9,7.52,7.52,0,0,1,2.54,0,10.13,10.13,0,0,1,2.4.64,12.93,12.93,0,0,1,1.72.81v4l-2.52-.35v-2.12a6.92,6.92,0,0,0-1.42-.36,4.14,4.14,0,0,0-1.27,0,2.58,2.58,0,0,0-1.92,1.42,3.26,3.26,0,0,0-.31,1.5,3.85,3.85,0,0,0,.25,1.39,3.9,3.9,0,0,0,.71,1.18,4,4,0,0,0,1.13.88,4.49,4.49,0,0,0,1.5.48,5.09,5.09,0,0,0,2.14-.07,7.34,7.34,0,0,0,1.25-.47Z"/><path class="cls-4" d="M96.69,447.69l-2.27-.31v-2.53l2.27,0.31v-2.62l3-.45v3.47l6,0.8v2.53l-6-.8v3.29a4.39,4.39,0,0,0,.66,2.65,2.66,2.66,0,0,0,1.86,1,3.83,3.83,0,0,0,1.12,0,3.75,3.75,0,0,0,.91-0.26,4.32,4.32,0,0,0,.73-0.41l0.61-.43,1.38,2.25a3.66,3.66,0,0,1-1,.71,7.11,7.11,0,0,1-1.26.5,7.25,7.25,0,0,1-1.41.26,6.58,6.58,0,0,1-1.44,0,5.68,5.68,0,0,1-3.86-2A7.45,7.45,0,0,1,96.69,451v-3.29Z"/><path class="cls-4" d="M108.58,452.5A6.66,6.66,0,0,1,109,450a4.43,4.43,0,0,1,1.24-1.75,4.51,4.51,0,0,1,1.91-.94,7,7,0,0,1,2.49-.08,7.79,7.79,0,0,1,2.58.76,6.34,6.34,0,0,1,1.92,1.47,6.08,6.08,0,0,1,1.18,2.07,7.81,7.81,0,0,1,.4,2.53,6.68,6.68,0,0,1-.44,2.52,4.35,4.35,0,0,1-3.15,2.7,7,7,0,0,1-2.49.09,7.75,7.75,0,0,1-2.58-.77,6.35,6.35,0,0,1-1.91-1.48A6.11,6.11,0,0,1,109,455,7.82,7.82,0,0,1,108.58,452.5Zm3.07,0.4a4.83,4.83,0,0,0,.21,1.43,4,4,0,0,0,.6,1.2,3.25,3.25,0,0,0,.94.87,3.16,3.16,0,0,0,1.26.43,2.61,2.61,0,0,0,2.17-.58,3.34,3.34,0,0,0,.84-2.59,4.42,4.42,0,0,0-.78-2.66,3.1,3.1,0,0,0-2.22-1.26,3.42,3.42,0,0,0-1.19,0,2,2,0,0,0-1,.51,2.61,2.61,0,0,0-.63,1A4.7,4.7,0,0,0,111.65,452.9Z"/><path class="cls-4" d="M122.43,457.47l2.85,0.35v-6.44l-2.85-.35V448.5l5.16,0.63,0.34,1.56H128a5.12,5.12,0,0,1,1.47-1.09,3.39,3.39,0,0,1,1.93-.28,3,3,0,0,1,2.17,1.27,6,6,0,0,1,.79,3.47l-2.69-.32a2.49,2.49,0,0,0-.24-1.24,1,1,0,0,0-.77-0.47,2.09,2.09,0,0,0-1.48.28,3.9,3.9,0,0,0-1,.94v4.9l5,0.59v2.53c-4.32-.51-6.49-0.77-10.81-1.3v-2.53Z"/><path class="cls-4" d="M136.66,459.17l4,0.46v-6.44l-4-.46V450.2l7,0.8v9l4.25,0.47c0,1,0,1.52,0,2.53-4.51-.5-6.77-0.75-11.27-1.27v-2.53Zm3.49-11.7a1.44,1.44,0,0,1,.53-1.16,1.86,1.86,0,0,1,1.47-.34,2.5,2.5,0,0,1,1.54.68,1.77,1.77,0,0,1,.57,1.28,1.32,1.32,0,0,1-.57,1.14,2.17,2.17,0,0,1-1.54.3,2.37,2.37,0,0,1-1.47-.64A1.73,1.73,0,0,1,140.15,447.47Z"/><path class="cls-4" d="M151.15,452.6a11.54,11.54,0,0,1,2.12-.48,11.88,11.88,0,0,1,2.86,0,6.73,6.73,0,0,1,2,.5,3.92,3.92,0,0,1,1.36,1,3.55,3.55,0,0,1,.75,1.34,5.79,5.79,0,0,1,.23,1.68q0,1.17-.08,2t-0.08,1.46a10,10,0,0,0,0,1.09c0,0.21.05,0.43,0.07,0.63l1.49,0.15v2.53l-3.86-.4-0.3-1.6h-0.11a3.4,3.4,0,0,1-1.3,1.09,4.1,4.1,0,0,1-2.28.28,4.29,4.29,0,0,1-2.72-1.21,3.5,3.5,0,0,1-1-2.55,3.43,3.43,0,0,1,.35-1.63,2.54,2.54,0,0,1,1-1,4.41,4.41,0,0,1,1.62-.49,9.31,9.31,0,0,1,2.11,0q0.41,0,.87.14l1.12,0.21a2.3,2.3,0,0,0,0-.46v-0.44a1.63,1.63,0,0,0-.5-1.31,2.66,2.66,0,0,0-1.48-.54,6.7,6.7,0,0,0-2.1.08,12.21,12.21,0,0,0-1.57.43Zm3.91,8.86a2.58,2.58,0,0,0,1.64-.23,2.31,2.31,0,0,0,.8-0.78v-1.38l-0.68-.18a8.14,8.14,0,0,0-1-.16,4.66,4.66,0,0,0-.86,0,2.63,2.63,0,0,0-.77.17,1.29,1.29,0,0,0-.55.39,1,1,0,0,0-.2.65,1.45,1.45,0,0,0,.37,1A1.94,1.94,0,0,0,155.06,461.46Z"/><path class="cls-4" d="M164.87,448.65l4.9,0.49v10.63a5.2,5.2,0,0,0,.44,2.5,1.72,1.72,0,0,0,1.4.83,3.77,3.77,0,0,0,1.17,0,4,4,0,0,0,.92-0.34l1.13,2.18q-0.39.22-.78,0.4a4.59,4.59,0,0,1-.83.29,5.31,5.31,0,0,1-1,.14,7.49,7.49,0,0,1-1.16,0,4.78,4.78,0,0,1-3.24-1.42,4.68,4.68,0,0,1-1.08-3.24v-9.66l-1.91-.19v-2.53Z"/><path class="cls-4" d="M187.12,471.75a11.6,11.6,0,0,1-3.13-1.29,10.44,10.44,0,0,1-2.69-2.29,11,11,0,0,1-1.87-3.3,12.52,12.52,0,0,1-.7-4.34,11.46,11.46,0,0,1,.7-4.2,8.84,8.84,0,0,1,1.87-3,8.21,8.21,0,0,1,2.69-1.85,10.61,10.61,0,0,1,3.13-.8l0.55,2.51a8.89,8.89,0,0,0-1.83.49,5.89,5.89,0,0,0-1.94,1.23,6.8,6.8,0,0,0-1.55,2.26,9.26,9.26,0,0,0,1.66,9.78,8.16,8.16,0,0,0,2,1.58,8.65,8.65,0,0,0,1.7.76Z"/><path class="cls-4" d="M192.9,464.85l3.52,0.3V455.1l-3,2.06-1.38-2,5.25-3.55,2,0.17v13.57l3.45,0.28v2.53l-9.83-.83v-2.53Z"/><path class="cls-4" d="M206.71,466l3.52,0.28V456.23l-3,2.08-1.38-1.95,5.25-3.59,2,0.16V466.5l3.45,0.26v2.53l-9.83-.76V466Z"/><path class="cls-4" d="M220.84,472a7.43,7.43,0,0,0,1.7-.49,6.52,6.52,0,0,0,2-1.26,7.16,7.16,0,0,0,1.62-2.27,8.17,8.17,0,0,0,.67-3.52,9.68,9.68,0,0,0-.63-3.72,8.49,8.49,0,0,0-1.55-2.51,7.41,7.41,0,0,0-1.95-1.54,10.35,10.35,0,0,0-1.83-.79l0.55-2.42a12.28,12.28,0,0,1,3.13,1.3,10.34,10.34,0,0,1,2.69,2.28,10.93,10.93,0,0,1,1.88,3.29,12.39,12.39,0,0,1,.7,4.31,11.58,11.58,0,0,1-.7,4.23,8.89,8.89,0,0,1-1.88,3,8.28,8.28,0,0,1-2.69,1.86,10.06,10.06,0,0,1-3.13.79Z"/><path class="cls-4" d="M372.49,474.73V472.2h2.72v-6.44h-2.74v-2.53h2.74v-0.64a4.23,4.23,0,0,1,.38-1.87,3.78,3.78,0,0,1,1-1.29,4.14,4.14,0,0,1,1.44-.76,6,6,0,0,1,1.7-.25,10.78,10.78,0,0,1,2.62.24,6.65,6.65,0,0,1,1.7.64l-0.88,2.29a10.32,10.32,0,0,0-1.14-.45,5,5,0,0,0-1.58-.19,2.26,2.26,0,0,0-1.74.58,2.52,2.52,0,0,0-.5,1.69l4.84,0v2.53l-4.84,0v6.44l4.87,0v2.53C378.84,474.7,376.72,474.71,372.49,474.73Z"/><path class="cls-4" d="M386.77,463.9a12.76,12.76,0,0,1,2.13-.74,12.23,12.23,0,0,1,2.87-.34,6.35,6.35,0,0,1,2,.26,3.34,3.34,0,0,1,1.36.79,3,3,0,0,1,.75,1.25,5.49,5.49,0,0,1,.23,1.65q0,1.17-.08,2T396,470.25a9.83,9.83,0,0,0,0,1.08c0,0.21.05,0.42,0.07,0.62l1.5,0v2.53l-3.87.06-0.3-1.56h-0.11a4.06,4.06,0,0,1-1.31,1.25,4.41,4.41,0,0,1-2.29.55,3.85,3.85,0,0,1-2.73-.89,3.11,3.11,0,0,1-1-2.43,3.68,3.68,0,0,1,.35-1.67,3,3,0,0,1,1-1.16,5,5,0,0,1,1.63-.69,9.58,9.58,0,0,1,2.12-.25c0.27,0,.57,0,0.87,0l1.12,0.08a2.37,2.37,0,0,0,0-.46v-0.44a1.45,1.45,0,0,0-.5-1.25,2.43,2.43,0,0,0-1.49-.36,7,7,0,0,0-2.11.33,13.7,13.7,0,0,0-1.58.62Zm3.93,8.39a2.53,2.53,0,0,0,2.44-1.3v-1.38l-0.68-.09a7.94,7.94,0,0,0-1,0,4.77,4.77,0,0,0-.87.09,2.93,2.93,0,0,0-.78.26,1.54,1.54,0,0,0-.55.46,1.1,1.1,0,0,0-.2.67,1.29,1.29,0,0,0,.38,1A1.75,1.75,0,0,0,390.7,472.29Z"/><path class="cls-4" d="M411.13,473.07a6.8,6.8,0,0,1-2.21,1.12,9.81,9.81,0,0,1-2.65.42,7.46,7.46,0,0,1-2.66-.38,5.27,5.27,0,0,1-2-1.19,5.07,5.07,0,0,1-1.21-1.9,7.08,7.08,0,0,1-.42-2.48,6.53,6.53,0,0,1,.48-2.59,5.58,5.58,0,0,1,1.35-1.94,6,6,0,0,1,2-1.23,8,8,0,0,1,2.56-.46,9.43,9.43,0,0,1,2.42.24,11.11,11.11,0,0,1,1.73.53v4l-2.54.06v-2.12a6.48,6.48,0,0,0-1.43-.13,4.39,4.39,0,0,0-1.28.22,3.22,3.22,0,0,0-1.13.64,3.36,3.36,0,0,0-.81,1.09,3.55,3.55,0,0,0-.31,1.55,3.51,3.51,0,0,0,.25,1.35,3.07,3.07,0,0,0,1.86,1.77,4.08,4.08,0,0,0,1.51.23,5.46,5.46,0,0,0,2.16-.42,9,9,0,0,0,1.26-.67Z"/><path class="cls-4" d="M415.05,465.11l-2.28.06v-2.53l2.28-.06V460l3-.93c0,1.39,0,2.08,0,3.47l6-.18v2.53l-6,.18v3.29a3.88,3.88,0,0,0,.67,2.55,2.24,2.24,0,0,0,1.87.74,4,4,0,0,0,1.13-.18,4.41,4.41,0,0,0,.91-0.41,5.45,5.45,0,0,0,.74-0.53L424,470l1.38,2a4.65,4.65,0,0,1-1,.87,8.7,8.7,0,0,1-1.27.71,8.26,8.26,0,0,1-1.42.49,6.85,6.85,0,0,1-1.45.2,4.85,4.85,0,0,1-3.89-1.33q-1.3-1.4-1.3-4.53v-3.29Z"/><path class="cls-4" d="M427,468a7.18,7.18,0,0,1,.44-2.59,5.44,5.44,0,0,1,3.17-3.2,7.53,7.53,0,0,1,2.5-.49,7.13,7.13,0,0,1,2.59.34,5.1,5.1,0,0,1,1.93,1.16,4.92,4.92,0,0,1,1.19,1.87,7.82,7.82,0,0,1,0,5.06,5.46,5.46,0,0,1-3.17,3.21,7.47,7.47,0,0,1-2.5.49,7.09,7.09,0,0,1-2.59-.35,5.11,5.11,0,0,1-1.93-1.17,4.94,4.94,0,0,1-1.19-1.88A7.22,7.22,0,0,1,427,468Zm3.09-.1a4.48,4.48,0,0,0,.21,1.4,3.29,3.29,0,0,0,.6,1.11,2.57,2.57,0,0,0,.94.71,2.85,2.85,0,0,0,1.27.22,3,3,0,0,0,2.18-.93,4.66,4.66,0,0,0,.06-5.26,2.61,2.61,0,0,0-2.24-.9,3.66,3.66,0,0,0-1.2.24,2.48,2.48,0,0,0-1,.67,3.24,3.24,0,0,0-.63,1.13A5,5,0,0,0,430.11,467.88Z"/><path class="cls-4" d="M440.95,470.7l2.86-.11v-6.44l-2.86.11v-2.53l5.19-.21,0.35,1.5h0.09a6.51,6.51,0,0,1,1.48-1.33,3.78,3.78,0,0,1,1.94-.59,2.51,2.51,0,0,1,2.18.91,5.39,5.39,0,0,1,.79,3.34l-2.7.12a2.25,2.25,0,0,0-.24-1.2,0.81,0.81,0,0,0-.77-0.35,2.37,2.37,0,0,0-1.49.52,5,5,0,0,0-1,1.1v4.9l5-.22v2.53c-4.34.19-6.52,0.29-10.86,0.46V470.7Z"/><path class="cls-4" d="M455.24,470.09l4.06-.19c0-2.58,0-3.86,0-6.44l-4.06.19v-2.53l7.05-.34v9l4.26-.22c0,1,0,1.52,0,2.53-4.53.24-6.79,0.35-11.32,0.56v-2.53Zm3.5-12.26a1.71,1.71,0,0,1,.53-1.24,2.14,2.14,0,0,1,1.47-.58,2.17,2.17,0,0,1,1.54.43,1.48,1.48,0,0,1,.58,1.19,1.57,1.57,0,0,1-.58,1.24,2.47,2.47,0,0,1-1.54.55,2.06,2.06,0,0,1-1.47-.4A1.46,1.46,0,0,1,458.75,457.82Z"/><path class="cls-4" d="M469.79,461.17a13.27,13.27,0,0,1,2.13-.83,12.43,12.43,0,0,1,2.87-.46,6.25,6.25,0,0,1,2,.17,3.16,3.16,0,0,1,1.36.74,2.87,2.87,0,0,1,.75,1.22,5.4,5.4,0,0,1,.23,1.64q0,1.17-.08,2T479,467.13a9.74,9.74,0,0,0,0,1.08c0,0.21.05,0.42,0.07,0.62l1.5-.09v2.53l-3.87.23-0.3-1.55h-0.11a4.32,4.32,0,0,1-1.31,1.3,4.54,4.54,0,0,1-2.29.65,3.71,3.71,0,0,1-2.73-.77,3,3,0,0,1-1-2.38,3.78,3.78,0,0,1,.35-1.69,3.22,3.22,0,0,1,1-1.21,5.2,5.2,0,0,1,1.63-.76,9.73,9.73,0,0,1,2.12-.34c0.27,0,.57,0,0.87,0l1.12,0a2.4,2.4,0,0,0,0-.46V463.9a1.39,1.39,0,0,0-.5-1.23,2.36,2.36,0,0,0-1.49-.29,7.14,7.14,0,0,0-2.1.42,14.28,14.28,0,0,0-1.58.68Zm3.92,8.22a2.88,2.88,0,0,0,1.64-.49,3,3,0,0,0,.8-0.91v-1.38l-0.68-.06a7.87,7.87,0,0,0-1,0,4.85,4.85,0,0,0-.87.13,3,3,0,0,0-.77.3,1.63,1.63,0,0,0-.55.48,1.13,1.13,0,0,0-.2.68,1.24,1.24,0,0,0,.38,1A1.7,1.7,0,0,0,473.71,469.39Z"/><path class="cls-4" d="M483.54,455l4.91-.31c0,4.25,0,6.38,0,10.63a4.76,4.76,0,0,0,.44,2.43,1.44,1.44,0,0,0,1.41.6,4,4,0,0,0,1.17-.23,4.81,4.81,0,0,0,.92-0.49l1.13,2q-0.39.28-.78,0.52a5.45,5.45,0,0,1-.83.42,5.91,5.91,0,0,1-1,.29,7.74,7.74,0,0,1-1.16.16,4.13,4.13,0,0,1-3.25-.9,4,4,0,0,1-1.08-3.06v-9.66l-1.91.12V455Z"/><path class="cls-4" d="M497.16,472.91c4.09-.28,6.14-0.42,10.22-0.72v2.46c-4.09.3-6.13,0.44-10.22,0.72v-2.46Z"/><path class="cls-4" d="M509.18,453.27l4.65-.35v5.89h0.09a4.34,4.34,0,0,1,1.47-1.29,5.76,5.76,0,0,1,3.78-.5,2.76,2.76,0,0,1,1.27.66,3.22,3.22,0,0,1,.83,1.37,7,7,0,0,1,.3,2.22v7.15l-3,.24v-6.53a2.67,2.67,0,0,0-.6-2,1.94,1.94,0,0,0-1.57-.5,2.81,2.81,0,0,0-1.56.64,3.13,3.13,0,0,0-1,1.4V469l-3,.23c0-5.43,0-8.14,0-13.57l-1.66.12v-2.53Z"/><path class="cls-4" d="M535.28,466a4.62,4.62,0,0,1-.77.61,8.26,8.26,0,0,1-1.1.59,9.33,9.33,0,0,1-3,.76,7.59,7.59,0,0,1-2.64-.19,4.6,4.6,0,0,1-3.2-2.85,6.81,6.81,0,0,1-.43-2.51,7,7,0,0,1,.48-2.7,6,6,0,0,1,1.32-2,6.19,6.19,0,0,1,2-1.3,8,8,0,0,1,2.44-.59,7.39,7.39,0,0,1,1.81.08,4.52,4.52,0,0,1,1.71.65,3.75,3.75,0,0,1,1.28,1.4,4.85,4.85,0,0,1,.5,2.35,11.25,11.25,0,0,1-.23,2.16l-8.28.71a2.51,2.51,0,0,0,.31,1.22,2.18,2.18,0,0,0,.76.76,3,3,0,0,0,1.08.38,5.29,5.29,0,0,0,1.3,0,7,7,0,0,0,2.27-.52,5.36,5.36,0,0,0,1.44-.91Zm-5-7.78a4,4,0,0,0-1.13.26,3.5,3.5,0,0,0-1,.56,3,3,0,0,0-.7.84,2.58,2.58,0,0,0-.32,1.08l5.66-.48A2.07,2.07,0,0,0,530.31,458.26Z"/><path class="cls-4" d="M538.79,450.85l4.9-.44V461a4.69,4.69,0,0,0,.44,2.42,1.4,1.4,0,0,0,1.4.56,4,4,0,0,0,1.17-.26,5,5,0,0,0,.92-0.51l1.13,2q-0.39.29-.78,0.55a5.63,5.63,0,0,1-.83.45,6,6,0,0,1-1,.32,7.79,7.79,0,0,1-1.16.19,4,4,0,0,1-3.24-.81,3.94,3.94,0,0,1-1.08-3v-9.66l-1.91.17v-2.53Z"/><path class="cls-4" d="M550.59,454.36l3.91-.38,0.34,1.35h0.09a4.9,4.9,0,0,1,3.86-2.08,5.28,5.28,0,0,1,1.94.14,3.32,3.32,0,0,1,1.52.89,4.34,4.34,0,0,1,1,1.69,8.28,8.28,0,0,1,.34,2.56,8.83,8.83,0,0,1-.39,2.7,6.4,6.4,0,0,1-1.13,2.13,5.56,5.56,0,0,1-1.79,1.45,6.68,6.68,0,0,1-2.41.68,9.35,9.35,0,0,1-1.4,0,3.6,3.6,0,0,1-1.15-.22V470l-3,.29V456.73l-1.72.16v-2.53Zm7.31,1.5a3.31,3.31,0,0,0-1.6.59,2.59,2.59,0,0,0-1,1.41v4.78a2.22,2.22,0,0,0,.93.31,5,5,0,0,0,1.23,0,3.42,3.42,0,0,0,1.2-.34,2.82,2.82,0,0,0,1-.8,3.85,3.85,0,0,0,.64-1.28,6.23,6.23,0,0,0,.23-1.79,3.13,3.13,0,0,0-.74-2.27A2.17,2.17,0,0,0,557.9,455.86Z"/><path class="cls-4" d="M576.65,462a4.77,4.77,0,0,1-.77.62,8.46,8.46,0,0,1-1.1.61,9.46,9.46,0,0,1-3,.83,7.53,7.53,0,0,1-2.63-.14,4.46,4.46,0,0,1-3.19-2.79,6.75,6.75,0,0,1-.42-2.5,7.14,7.14,0,0,1,.48-2.71,6.13,6.13,0,0,1,1.32-2,6.36,6.36,0,0,1,2-1.34,8.11,8.11,0,0,1,2.44-.64,7.36,7.36,0,0,1,1.8,0,4.42,4.42,0,0,1,1.71.61,3.63,3.63,0,0,1,1.27,1.37,4.8,4.8,0,0,1,.49,2.34,11.34,11.34,0,0,1-.23,2.16l-8.27.88a2.47,2.47,0,0,0,.31,1.21,2.11,2.11,0,0,0,.76.75,3,3,0,0,0,1.08.36,5.27,5.27,0,0,0,1.3,0,7.11,7.11,0,0,0,2.26-.56,5.51,5.51,0,0,0,1.44-.94Zm-5-7.68a4,4,0,0,0-1.13.28,3.59,3.59,0,0,0-1,.58,3.05,3.05,0,0,0-.7.86,2.63,2.63,0,0,0-.32,1.09l5.65-.6A2,2,0,0,0,571.69,454.31Z"/><path class="cls-4" d="M579.07,460.41l2.85-.31v-6.44l-2.85.31v-2.53l5.17-.57,0.34,1.48h0.09a7.2,7.2,0,0,1,1.47-1.43,4,4,0,0,1,1.93-.73,2.33,2.33,0,0,1,2.17.76,5.14,5.14,0,0,1,.79,3.29l-2.69.31a2.16,2.16,0,0,0-.24-1.18,0.75,0.75,0,0,0-.77-0.29,2.53,2.53,0,0,0-1.48.63,5.49,5.49,0,0,0-1,1.17v4.9l5-.57v2.53c-4.33.5-6.49,0.74-10.82,1.22v-2.53Z"/><path class="cls-4" d="M602.39,465.11a9.69,9.69,0,0,1-3.12-.63,7.71,7.71,0,0,1-2.68-1.73,8.33,8.33,0,0,1-1.87-2.91,11.33,11.33,0,0,1-.7-4.2,12.71,12.71,0,0,1,.7-4.35,11.64,11.64,0,0,1,1.87-3.38,11.09,11.09,0,0,1,2.68-2.41,12.91,12.91,0,0,1,3.12-1.46l0.55,2.39a10.89,10.89,0,0,0-1.82.88,7.92,7.92,0,0,0-1.94,1.64,9.06,9.06,0,0,0-1.55,2.59,10,10,0,0,0-.63,3.76,8,8,0,0,0,.67,3.48,6.67,6.67,0,0,0,1.62,2.19,6.06,6.06,0,0,0,2,1.17,7.1,7.1,0,0,0,1.7.4Z"/><path class="cls-4" d="M608.15,457l3.51-.44V446.51l-3,2.7-1.38-1.67,5.23-4.66,2-.26c0,5.43,0,8.14,0,13.57l3.44-.44v2.53l-9.79,1.25V457Z"/><path class="cls-4" d="M624.47,455.95a1.81,1.81,0,0,1,.52-1.31,2.15,2.15,0,0,1,1.3-.63,2,2,0,0,1,1.9.57,2.89,2.89,0,0,1,.64,2,4.73,4.73,0,0,1-.4,1.94,6,6,0,0,1-1,1.61,6.83,6.83,0,0,1-1.43,1.21,6.65,6.65,0,0,1-1.57.74l-0.62-1.18a7.65,7.65,0,0,0,1.11-.54,5.41,5.41,0,0,0,1-.77,4.34,4.34,0,0,0,.77-1,2.75,2.75,0,0,0,.36-1.15,3,3,0,0,1-1.17.19,1.54,1.54,0,0,1-.79-0.26,1.25,1.25,0,0,1-.45-0.58A2.21,2.21,0,0,1,624.47,455.95Z"/><path class="cls-4" d="M635.65,453.37l3.5-.49V442.82l-3,2.75-1.37-1.65,5.22-4.73,2-.29v13.57l3.43-.49v2.53l-9.78,1.39v-2.53Z"/><path class="cls-4" d="M649.39,451.4l3.5-.52V440.84l-3,2.77L648.5,442l5.22-4.77,2-.3c0,5.43,0,8.14,0,13.57l3.43-.52v2.53c-3.91.59-5.86,0.88-9.77,1.45V451.4Z"/><path class="cls-4" d="M663.44,454.2a9.24,9.24,0,0,0,1.69-.87,8.94,8.94,0,0,0,2-1.71A9.74,9.74,0,0,0,668.7,449a9.3,9.3,0,0,0,.66-3.67,8.68,8.68,0,0,0-.63-3.58,6.23,6.23,0,0,0-1.54-2.16,5.39,5.39,0,0,0-1.93-1.1,8.45,8.45,0,0,0-1.82-.38l0.55-2.55a10.07,10.07,0,0,1,3.11.6,7.47,7.47,0,0,1,2.67,1.68,8.12,8.12,0,0,1,1.86,2.87,11.17,11.17,0,0,1,.7,4.16,13,13,0,0,1-.7,4.39,11.93,11.93,0,0,1-1.86,3.42,11.42,11.42,0,0,1-2.67,2.46,12.35,12.35,0,0,1-3.11,1.49Z"/><path class="cls-4" d="M48.72,398.87c0-1,0-1.52,0-2.53l2.7,0.43v-6.44l-2.72-.43c0-1,0-1.52,0-2.53l2.72,0.43v-0.64a3.87,3.87,0,0,1,.38-1.8,3,3,0,0,1,1-1.13,3.43,3.43,0,0,1,1.43-.53,5.72,5.72,0,0,1,1.68,0,11.54,11.54,0,0,1,2.6.66,7.87,7.87,0,0,1,1.68.91l-0.87,2.14a12.27,12.27,0,0,0-1.13-.63,5.45,5.45,0,0,0-1.57-.45,2,2,0,0,0-1.73.3,2.21,2.21,0,0,0-.49,1.61l4.8,0.74c0,1,0,1.52,0,2.53l-4.8-.74v6.44L59.21,398c0,1,0,1.52,0,2.53C55,399.86,52.91,399.53,48.72,398.87Z"/><path class="cls-4" d="M62.87,390.34a11.17,11.17,0,0,1,2.12-.39,11.8,11.8,0,0,1,2.85.12,6.91,6.91,0,0,1,2,.59,4.14,4.14,0,0,1,1.35,1A3.74,3.74,0,0,1,72,393a5.91,5.91,0,0,1,.23,1.69q0,1.17-.08,2c-0.05.54-.08,1-0.08,1.46a10.05,10.05,0,0,0,0,1.09c0,0.21.05,0.43,0.07,0.63l1.49,0.22c0,1,0,1.52,0,2.53l-3.84-.56-0.3-1.61-0.11,0a3.19,3.19,0,0,1-1.3,1,4,4,0,0,1-2.27.18,4.47,4.47,0,0,1-2.71-1.33,3.66,3.66,0,0,1-1-2.59,3.35,3.35,0,0,1,.35-1.61,2.39,2.39,0,0,1,1-1,4.23,4.23,0,0,1,1.61-.42,9.26,9.26,0,0,1,2.1.09q0.41,0.06.86,0.17l1.11,0.26a2.28,2.28,0,0,0,0-.45v-0.44a1.7,1.7,0,0,0-.5-1.33,2.76,2.76,0,0,0-1.48-.6,6.64,6.64,0,0,0-2.09,0,11.76,11.76,0,0,0-1.57.36Zm3.89,9a2.52,2.52,0,0,0,1.63-.16,2.17,2.17,0,0,0,.79-0.75v-1.38l-0.68-.2a8.29,8.29,0,0,0-1-.2,4.63,4.63,0,0,0-.86,0,2.56,2.56,0,0,0-.77.14,1.22,1.22,0,0,0-.54.37,1,1,0,0,0-.2.64,1.51,1.51,0,0,0,.37,1.06A2,2,0,0,0,66.76,399.36Z"/><path class="cls-4" d="M87,403.45a5.66,5.66,0,0,1-2.2.76,9.32,9.32,0,0,1-2.63,0,8.17,8.17,0,0,1-2.65-.81,6.56,6.56,0,0,1-1.95-1.51,6.3,6.3,0,0,1-1.2-2.09,7.69,7.69,0,0,1-.41-2.54,6,6,0,0,1,.48-2.51A4.43,4.43,0,0,1,77.83,393a4.87,4.87,0,0,1,2-.9,7.52,7.52,0,0,1,2.54,0,10.13,10.13,0,0,1,2.4.64,12.93,12.93,0,0,1,1.72.81c0,1.62,0,2.43,0,4L84,397.23v-2.12a6.91,6.91,0,0,0-1.42-.36,4.15,4.15,0,0,0-1.27,0,2.58,2.58,0,0,0-1.92,1.42,3.25,3.25,0,0,0-.31,1.5,3.85,3.85,0,0,0,.25,1.39,3.85,3.85,0,0,0,1.84,2.07,4.48,4.48,0,0,0,1.5.48,5.09,5.09,0,0,0,2.14-.07,7.31,7.31,0,0,0,1.25-.47Z"/><path class="cls-4" d="M90.94,396.12l-2.27-.31c0-1,0-1.52,0-2.53l2.27,0.31c0-1,0-1.57,0-2.62l3-.45c0,1.39,0,2.08,0,3.47l6,0.8c0,1,0,1.52,0,2.53l-6-.8c0,1.32,0,2,0,3.29a4.38,4.38,0,0,0,.66,2.65,2.66,2.66,0,0,0,1.86,1,3.83,3.83,0,0,0,1.12,0,3.75,3.75,0,0,0,.91-0.26,4.32,4.32,0,0,0,.73-0.41l0.61-.43,1.38,2.25a3.67,3.67,0,0,1-1,.71,7.13,7.13,0,0,1-1.26.5,7.25,7.25,0,0,1-1.41.26,6.59,6.59,0,0,1-1.44,0,5.68,5.68,0,0,1-3.86-2,7.45,7.45,0,0,1-1.29-4.74C90.94,398.09,90.94,397.43,90.94,396.12Z"/><path class="cls-4" d="M102.83,400.92a6.65,6.65,0,0,1,.44-2.52,4.43,4.43,0,0,1,1.24-1.75,4.51,4.51,0,0,1,1.91-.94,7,7,0,0,1,2.49-.08,7.79,7.79,0,0,1,2.58.76,6.34,6.34,0,0,1,1.92,1.47,6.08,6.08,0,0,1,1.18,2.07,7.8,7.8,0,0,1,.4,2.53,6.68,6.68,0,0,1-.44,2.52,4.45,4.45,0,0,1-1.24,1.76,4.5,4.5,0,0,1-1.91.95,7,7,0,0,1-2.49.09,7.75,7.75,0,0,1-2.58-.77,6.35,6.35,0,0,1-1.92-1.48,6.12,6.12,0,0,1-1.18-2.07A7.82,7.82,0,0,1,102.83,400.92Zm3.07,0.4a4.85,4.85,0,0,0,.21,1.43,4,4,0,0,0,.6,1.2,3.25,3.25,0,0,0,.94.87,3.15,3.15,0,0,0,1.26.43,2.61,2.61,0,0,0,2.17-.58,3.34,3.34,0,0,0,.84-2.59,4.42,4.42,0,0,0-.78-2.66,3.09,3.09,0,0,0-2.23-1.26,3.41,3.41,0,0,0-1.19,0,2,2,0,0,0-1,.51,2.62,2.62,0,0,0-.63,1A4.71,4.71,0,0,0,105.91,401.32Z"/><path class="cls-4" d="M116.69,405.89l2.85,0.35c0-2.58,0-3.86,0-6.44l-2.85-.35c0-1,0-1.52,0-2.53l5.16,0.63,0.34,1.56h0.09a5.1,5.1,0,0,1,1.47-1.09,3.39,3.39,0,0,1,1.93-.28,3,3,0,0,1,2.17,1.27,6,6,0,0,1,.79,3.47l-2.69-.32a2.49,2.49,0,0,0-.24-1.24,1,1,0,0,0-.77-0.47,2.08,2.08,0,0,0-1.48.28,3.9,3.9,0,0,0-1,.94c0,2,0,2.94,0,4.9l5,0.59c0,1,0,1.52,0,2.53-4.32-.51-6.49-0.77-10.81-1.3C116.69,407.41,116.69,406.9,116.69,405.89Z"/><path class="cls-4" d="M130.91,407.59l4,0.46c0-2.58,0-3.86,0-6.44l-4-.46c0-1,0-1.52,0-2.53l7,0.8c0,3.59,0,5.38,0,9l4.25,0.47c0,1,0,1.52,0,2.53-4.51-.49-6.77-0.75-11.27-1.27C130.91,409.11,130.91,408.6,130.91,407.59Zm3.49-11.7a1.44,1.44,0,0,1,.53-1.16,1.86,1.86,0,0,1,1.47-.34,2.5,2.5,0,0,1,1.54.68,1.76,1.76,0,0,1,.57,1.28,1.32,1.32,0,0,1-.57,1.14,2.17,2.17,0,0,1-1.54.3,2.37,2.37,0,0,1-1.47-.64A1.73,1.73,0,0,1,134.4,395.89Z"/><path class="cls-4" d="M145.4,401a11.54,11.54,0,0,1,2.13-.48,11.87,11.87,0,0,1,2.86,0,6.73,6.73,0,0,1,2,.5,3.91,3.91,0,0,1,1.36,1,3.55,3.55,0,0,1,.75,1.34,5.79,5.79,0,0,1,.23,1.68q0,1.17-.08,2c-0.05.55-.08,1-0.08,1.46a10,10,0,0,0,0,1.09c0,0.21.05,0.43,0.07,0.63l1.49,0.15v2.53l-3.86-.4-0.3-1.6h-0.11a3.4,3.4,0,0,1-1.3,1.09,4.1,4.1,0,0,1-2.28.28,4.29,4.29,0,0,1-2.72-1.21,3.5,3.5,0,0,1-1-2.55,3.43,3.43,0,0,1,.35-1.63,2.55,2.55,0,0,1,1-1,4.41,4.41,0,0,1,1.62-.49,9.31,9.31,0,0,1,2.11,0c0.27,0,.56.07,0.87,0.14l1.12,0.21a2.3,2.3,0,0,0,0-.46v-0.44a1.63,1.63,0,0,0-.5-1.31,2.67,2.67,0,0,0-1.48-.54,6.7,6.7,0,0,0-2.1.08,12.24,12.24,0,0,0-1.57.43Zm3.91,8.86a2.58,2.58,0,0,0,1.64-.23,2.32,2.32,0,0,0,.8-0.78v-1.38l-0.68-.18a8.18,8.18,0,0,0-1-.16,4.67,4.67,0,0,0-.86,0,2.64,2.64,0,0,0-.77.17,1.29,1.29,0,0,0-.55.39,1,1,0,0,0-.2.65,1.45,1.45,0,0,0,.37,1A1.94,1.94,0,0,0,149.31,409.88Z"/><path class="cls-4" d="M159.12,397.07l4.9,0.49c0,4.25,0,6.38,0,10.63a5.2,5.2,0,0,0,.44,2.5,1.72,1.72,0,0,0,1.4.83,3.77,3.77,0,0,0,1.17,0,4,4,0,0,0,.92-0.34l1.13,2.18q-0.39.22-.78,0.4a4.58,4.58,0,0,1-.83.29,5.3,5.3,0,0,1-1,.14,7.52,7.52,0,0,1-1.16,0,4.78,4.78,0,0,1-3.24-1.42,4.68,4.68,0,0,1-1.08-3.24c0-3.86,0-5.8,0-9.66l-1.91-.19C159.12,398.59,159.12,398.08,159.12,397.07Z"/><path class="cls-4" d="M172.71,417.19c4.08,0.38,6.13.57,10.21,0.93,0,1,0,1.48,0,2.46-4.09-.36-6.13-0.55-10.21-0.93C172.71,418.66,172.71,418.17,172.71,417.19Z"/><path class="cls-4" d="M184.71,399.49l4.65,0.4c0,2.36,0,3.53,0,5.89h0.09a3.45,3.45,0,0,1,1.47-1,4.82,4.82,0,0,1,2.16-.26,5.64,5.64,0,0,1,1.61.36,3.41,3.41,0,0,1,1.27.86,4,4,0,0,1,.83,1.51,7.5,7.5,0,0,1,.3,2.27c0,2.86,0,4.29,0,7.15l-3-.25c0-2.61,0-3.92,0-6.53a3,3,0,0,0-.6-2.07,2.27,2.27,0,0,0-1.57-.75,2.44,2.44,0,0,0-1.56.39,2.5,2.5,0,0,0-1,1.24c0,2.93,0,4.4,0,7.34l-3-.26c0-5.43,0-8.14,0-13.57l-1.66-.14C184.71,401,184.71,400.5,184.71,399.49Z"/><path class="cls-4" d="M210.81,416.49a3.72,3.72,0,0,1-.77.48,6.89,6.89,0,0,1-1.11.41,8.1,8.1,0,0,1-1.39.26,8.81,8.81,0,0,1-1.61,0,8.15,8.15,0,0,1-2.64-.62,5.77,5.77,0,0,1-3.2-3.37,7.37,7.37,0,0,1-.43-2.58,6.47,6.47,0,0,1,.48-2.62,4.76,4.76,0,0,1,1.32-1.79,5,5,0,0,1,2-1,7.42,7.42,0,0,1,2.44-.19,7.85,7.85,0,0,1,1.81.37,5.42,5.42,0,0,1,1.72.92,4.76,4.76,0,0,1,1.28,1.6,5.36,5.36,0,0,1,.49,2.43A10.69,10.69,0,0,1,211,413l-8.29-.63a2.81,2.81,0,0,0,.31,1.27,2.75,2.75,0,0,0,.76.89,3.59,3.59,0,0,0,1.08.56,5.58,5.58,0,0,0,1.3.25,6.56,6.56,0,0,0,2.27-.15,4.38,4.38,0,0,0,1.44-.67Zm-5-8.59a3.7,3.7,0,0,0-1.13.08,2.88,2.88,0,0,0-1,.41,2.35,2.35,0,0,0-.7.73,2.27,2.27,0,0,0-.32,1l5.66,0.44A2.48,2.48,0,0,0,205.84,407.9Z"/><path class="cls-4" d="M214.33,401.86l4.9,0.35c0,4.25,0,6.38,0,10.63a5.11,5.11,0,0,0,.44,2.49,1.66,1.66,0,0,0,1.41.79,3.8,3.8,0,0,0,1.17-.07,4.15,4.15,0,0,0,.92-0.36l1.13,2.15q-0.39.23-.78,0.42a4.7,4.7,0,0,1-.83.31,5.41,5.41,0,0,1-1,.16,7.55,7.55,0,0,1-1.16,0,4.66,4.66,0,0,1-3.25-1.33,4.56,4.56,0,0,1-1.08-3.21c0-3.86,0-5.8,0-9.66l-1.91-.14C214.33,403.38,214.33,402.88,214.33,401.86Z"/><path class="cls-4" d="M226.15,407.29l3.92,0.26,0.35,1.4h0.09a4.14,4.14,0,0,1,3.87-1.46,5.69,5.69,0,0,1,1.95.45,4.14,4.14,0,0,1,1.52,1.14,5.3,5.3,0,0,1,1,1.85,8.81,8.81,0,0,1,.35,2.62,8.21,8.21,0,0,1-.39,2.63,5.22,5.22,0,0,1-1.13,1.94,4.44,4.44,0,0,1-1.8,1.15,6.11,6.11,0,0,1-2.42.29,9.69,9.69,0,0,1-1.4-.19,4.1,4.1,0,0,1-1.15-.41c0,1.89,0,2.83,0,4.71l-3-.19c0-5.43,0-8.14,0-13.57l-1.73-.11v-2.53Zm7.33,2.68a2.92,2.92,0,0,0-1.6.34,2.08,2.08,0,0,0-1,1.25c0,1.91,0,2.87,0,4.78a2.65,2.65,0,0,0,.93.46A5.3,5.3,0,0,0,233,417a3.13,3.13,0,0,0,1.2-.14,2.25,2.25,0,0,0,1-.64,3.16,3.16,0,0,0,.64-1.18,5.83,5.83,0,0,0,.23-1.76,3.59,3.59,0,0,0-.74-2.39A2.56,2.56,0,0,0,233.47,410Z"/><path class="cls-4" d="M252.28,419.14a3.81,3.81,0,0,1-.77.5,7,7,0,0,1-1.11.44,8.26,8.26,0,0,1-1.39.29,8.9,8.9,0,0,1-1.61,0,8.07,8.07,0,0,1-2.64-.56,5.6,5.6,0,0,1-3.2-3.3,7.29,7.29,0,0,1-.43-2.57,6.54,6.54,0,0,1,.48-2.63,4.9,4.9,0,0,1,1.32-1.82,5.16,5.16,0,0,1,2-1,7.49,7.49,0,0,1,2.44-.24,7.76,7.76,0,0,1,1.81.33,5.29,5.29,0,0,1,1.72.89,4.6,4.6,0,0,1,1.28,1.58,5.28,5.28,0,0,1,.5,2.42,10.74,10.74,0,0,1-.23,2.13l-8.3-.46a2.77,2.77,0,0,0,.31,1.26,2.68,2.68,0,0,0,.76.87,3.51,3.51,0,0,0,1.08.53,5.53,5.53,0,0,0,1.3.22,6.6,6.6,0,0,0,2.27-.2,4.5,4.5,0,0,0,1.44-.7Zm-5-8.48a3.73,3.73,0,0,0-1.13.1,3,3,0,0,0-1,.43,2.41,2.41,0,0,0-.7.74,2.3,2.3,0,0,0-.32,1l5.67,0.32A2.42,2.42,0,0,0,247.3,410.65Z"/><path class="cls-4" d="M254.7,418l2.86,0.15v-6.44l-2.86-.15V409l5.19,0.26,0.35,1.53h0.09a5.69,5.69,0,0,1,1.48-1.19,3.54,3.54,0,0,1,1.94-.41,2.76,2.76,0,0,1,2.18,1.11,5.74,5.74,0,0,1,.79,3.42l-2.7-.13a2.38,2.38,0,0,0-.24-1.22,0.9,0.9,0,0,0-.77-0.42,2.2,2.2,0,0,0-1.49.39,4.34,4.34,0,0,0-1,1v4.9l5,0.24V421c-4.34-.2-6.51-0.31-10.86-0.54V418Z"/><path class="cls-4" d="M278.12,426.44A11.08,11.08,0,0,1,275,425.3a9.72,9.72,0,0,1-2.7-2.16,10.3,10.3,0,0,1-1.88-3.21,12.2,12.2,0,0,1-.7-4.31,11.71,11.71,0,0,1,.7-4.24,9.44,9.44,0,0,1,1.88-3.08,8.8,8.8,0,0,1,2.7-2,11.06,11.06,0,0,1,3.14-1l0.55,2.48a9.3,9.3,0,0,0-1.83.58,6.32,6.32,0,0,0-1.95,1.32,7.28,7.28,0,0,0-1.56,2.34,9.12,9.12,0,0,0-.63,3.65,8.69,8.69,0,0,0,.67,3.59,8.35,8.35,0,0,0,1.63,2.45,7.6,7.6,0,0,0,2,1.48,8.22,8.22,0,0,0,1.71.68Z"/><path class="cls-4" d="M283.9,419.26l3.53,0.13c0-4,0-6,0-10.05l-3,2.21L283,409.65l5.26-3.81,2,0.07c0,5.43,0,8.14,0,13.57l3.46,0.11v2.53l-9.85-.34v-2.53Z"/><path class="cls-4" d="M300.32,420.86a1.53,1.53,0,0,1,.52-1.23,1.85,1.85,0,0,1,1.3-.42,2.35,2.35,0,0,1,1.91.88,3.3,3.3,0,0,1,.65,2.06,4.27,4.27,0,0,1-.4,1.88,4.79,4.79,0,0,1-1,1.44,5.45,5.45,0,0,1-1.44,1,5.72,5.72,0,0,1-1.58.48l-0.62-1.28a6.54,6.54,0,0,0,1.12-.36,4.36,4.36,0,0,0,1-.6,3.43,3.43,0,0,0,.77-0.86,2.38,2.38,0,0,0,.36-1.09,2.94,2.94,0,0,1-1.18,0,1.84,1.84,0,0,1-.8-0.39,1.56,1.56,0,0,1-.45-0.66A2.38,2.38,0,0,1,300.32,420.86Z"/><path class="cls-4" d="M311.58,420.09l3.53,0.08c0-4,0-6,0-10.05l-3,2.26-1.38-1.87,5.26-3.88,2,0v13.57l3.46,0.07v2.53l-9.85-.2v-2.53Z"/><path class="cls-4" d="M325.42,420.36l3.53,0.05V410.37l-3,2.28-1.38-1.86,5.26-3.92,2,0v13.57l3.46,0V423l-9.85-.13v-2.53Z"/><path class="cls-4" d="M339.58,425.44a7.87,7.87,0,0,0,1.71-.59,7.13,7.13,0,0,0,2-1.39,7.81,7.81,0,0,0,1.63-2.37,8.45,8.45,0,0,0,.67-3.56,9.36,9.36,0,0,0-.63-3.68,7.78,7.78,0,0,0-1.56-2.41,6.78,6.78,0,0,0-1.95-1.42,9.74,9.74,0,0,0-1.83-.67l0.55-2.46a11.56,11.56,0,0,1,3.14,1.11,9.44,9.44,0,0,1,2.7,2.11,10.07,10.07,0,0,1,1.88,3.17,13.33,13.33,0,0,1,0,8.54,9.67,9.67,0,0,1-1.88,3.12,9.08,9.08,0,0,1-2.7,2,10.62,10.62,0,0,1-3.14,1Z"/><path class="cls-4" d="M503.73,415.18l2.85-.21v-6.44l-2.85.21v-2.53l5.18-.39,0.34,1.49h0.09a6.84,6.84,0,0,1,1.47-1.38,3.88,3.88,0,0,1,1.93-.66,2.42,2.42,0,0,1,2.18.84,5.26,5.26,0,0,1,.79,3.32l-2.69.21a2.2,2.2,0,0,0-.24-1.19,0.78,0.78,0,0,0-.77-0.32,2.45,2.45,0,0,0-1.48.58,5.22,5.22,0,0,0-1,1.13v4.9l5-.39v2.53c-4.34.35-6.5,0.51-10.84,0.84v-2.53Z"/><path class="cls-4" d="M528.93,414.46a4.64,4.64,0,0,1-.77.61,8.25,8.25,0,0,1-1.1.59,9.33,9.33,0,0,1-3,.76,7.59,7.59,0,0,1-2.64-.19,4.6,4.6,0,0,1-3.2-2.85,6.81,6.81,0,0,1-.43-2.51,7,7,0,0,1,.48-2.7,6,6,0,0,1,1.32-2,6.19,6.19,0,0,1,2-1.3,8,8,0,0,1,2.44-.59,7.39,7.39,0,0,1,1.81.08,4.52,4.52,0,0,1,1.71.65,3.75,3.75,0,0,1,1.28,1.4,4.86,4.86,0,0,1,.5,2.35,11.25,11.25,0,0,1-.23,2.16l-8.28.71a2.51,2.51,0,0,0,.31,1.22,2.18,2.18,0,0,0,.76.76,3,3,0,0,0,1.08.38,5.32,5.32,0,0,0,1.3,0,7,7,0,0,0,2.27-.52,5.36,5.36,0,0,0,1.44-.91Zm-5-7.78a4,4,0,0,0-1.13.26,3.49,3.49,0,0,0-1,.56,3,3,0,0,0-.7.84,2.58,2.58,0,0,0-.32,1.08l5.66-.48A2.07,2.07,0,0,0,524,406.68Z"/><path class="cls-4" d="M543,413.29a7.39,7.39,0,0,1-2.21,1.28,10.14,10.14,0,0,1-2.64.6,7.25,7.25,0,0,1-2.66-.19,4.82,4.82,0,0,1-2-1.05,4.63,4.63,0,0,1-1.21-1.81,7.39,7.39,0,0,1,.07-5.07,6.14,6.14,0,0,1,1.35-2,6.56,6.56,0,0,1,2-1.37,8.3,8.3,0,0,1,2.55-.64,9.24,9.24,0,0,1,2.41.07,10.48,10.48,0,0,1,1.73.41c0,1.62,0,2.43,0,4l-2.53.24c0-.85,0-1.27,0-2.12a6.35,6.35,0,0,0-1.43,0,4.54,4.54,0,0,0-1.28.31,3.51,3.51,0,0,0-1.13.72,3.61,3.61,0,0,0-1.12,2.71,3.39,3.39,0,0,0,.25,1.33,2.78,2.78,0,0,0,1.85,1.64,4,4,0,0,0,1.51.13,5.69,5.69,0,0,0,2.15-.57,9.77,9.77,0,0,0,1.25-.76Z"/><path class="cls-4" d="M551.83,402l4.28-.43c0,3.2,0,4.8,0,8v1l1.75-.18c0,1,0,1.52,0,2.53l-3.63.37-0.53-1.65H553.6a4.7,4.7,0,0,1-1.59,1.61,5.22,5.22,0,0,1-2.35.81,5.1,5.1,0,0,1-1.6-.07,2.55,2.55,0,0,1-1.23-.64,3.12,3.12,0,0,1-.78-1.35,7.5,7.5,0,0,1-.28-2.23v-4.62l-1.31.13v-2.53l4.3-.41c0,2.61,0,3.92,0,6.53a3.31,3.31,0,0,0,.45,2,1.48,1.48,0,0,0,1.41.48,2.74,2.74,0,0,0,1.53-.66,3.12,3.12,0,0,0,1-1.34c0-2,0-2.94,0-4.9l-1.29.13C551.83,403.56,551.83,403.06,551.83,402Z"/><path class="cls-4" d="M558.93,410.3l2.85-.29v-6.44l-2.85.29v-2.53l5.17-.54,0.34,1.48h0.09a7.13,7.13,0,0,1,1.47-1.42,4,4,0,0,1,1.93-.71,2.35,2.35,0,0,1,2.17.78,5.17,5.17,0,0,1,.79,3.29l-2.69.29a2.17,2.17,0,0,0-.24-1.18,0.76,0.76,0,0,0-.77-0.3,2.51,2.51,0,0,0-1.48.62,5.44,5.44,0,0,0-1,1.16v4.9l5-.53v2.53c-4.33.47-6.49,0.7-10.82,1.14V410.3Z"/><path class="cls-4" d="M582.27,415.17a9.74,9.74,0,0,1-3.12-.66,7.79,7.79,0,0,1-2.69-1.74,8.4,8.4,0,0,1-1.87-2.92,11.36,11.36,0,0,1-.7-4.2,12.66,12.66,0,0,1,.7-4.34,11.54,11.54,0,0,1,1.87-3.37,11,11,0,0,1,2.69-2.4,12.81,12.81,0,0,1,3.12-1.44l0.55,2.4a10.8,10.8,0,0,0-1.82.87,7.85,7.85,0,0,0-1.94,1.62,9,9,0,0,0-1.55,2.58,9.9,9.9,0,0,0-.63,3.75,8,8,0,0,0,.67,3.49,6.74,6.74,0,0,0,1.62,2.2,6.12,6.12,0,0,0,2,1.18,7.14,7.14,0,0,0,1.7.41Z"/><path class="cls-4" d="M588,407.09l3.51-.42c0-4,0-6,0-10.05l-3,2.68-1.38-1.68,5.23-4.62,2-.24c0,5.43,0,8.14,0,13.57l3.44-.42v2.53c-3.92.48-5.88,0.72-9.8,1.18C588,408.61,588,408.1,588,407.09Z"/><path class="cls-4" d="M601.8,405.42l3.51-.44c0-4,0-6,0-10.05l-3,2.7L600.9,396l5.23-4.66,2-.26c0,5.43,0,8.14,0,13.57l3.44-.44v2.53c-3.92.51-5.87,0.76-9.79,1.25C601.8,406.94,601.8,406.43,601.8,405.42Z"/><path class="cls-4" d="M618.12,404.37a1.81,1.81,0,0,1,.52-1.31,2.15,2.15,0,0,1,1.3-.63,2,2,0,0,1,1.9.57,2.89,2.89,0,0,1,.64,2,4.73,4.73,0,0,1-.4,1.94,6,6,0,0,1-1,1.61,6.83,6.83,0,0,1-1.43,1.21,6.65,6.65,0,0,1-1.57.74l-0.62-1.18a7.63,7.63,0,0,0,1.11-.54,5.41,5.41,0,0,0,1-.77,4.33,4.33,0,0,0,.77-1,2.74,2.74,0,0,0,.36-1.15,3,3,0,0,1-1.17.19,1.54,1.54,0,0,1-.79-0.26,1.25,1.25,0,0,1-.45-0.58A2.21,2.21,0,0,1,618.12,404.37Z"/><path class="cls-4" d="M629.3,401.79l3.5-.49V391.25l-3,2.75-1.37-1.65,5.22-4.73,2-.29c0,5.43,0,8.14,0,13.57l3.43-.49v2.53c-3.91.56-5.87,0.84-9.78,1.39v-2.53Z"/><path class="cls-4" d="M641.48,394.51a14.54,14.54,0,0,1,.44-3.73,8.93,8.93,0,0,1,1.23-2.79,6.32,6.32,0,0,1,1.9-1.83,6.43,6.43,0,0,1,2.46-.88,4.61,4.61,0,0,1,4.46,1.37q1.56,1.8,1.56,6.08a14.65,14.65,0,0,1-.44,3.76,9.13,9.13,0,0,1-1.23,2.81,6.26,6.26,0,0,1-1.91,1.85,6.49,6.49,0,0,1-2.47.89,4.45,4.45,0,0,1-4.46-1.49Q641.48,398.61,641.48,394.51Zm3-.44c0,0.23,0,.45,0,0.65s0,0.42,0,.63l5.54-6a2.16,2.16,0,0,0-2.56-1.59,3,3,0,0,0-2.24,1.75A10.22,10.22,0,0,0,644.46,394.08Zm6.09-.91q0-.37,0-0.7c0-.22,0-0.44,0-0.65l-5.56,6a2.2,2.2,0,0,0,2.57,1.71,3,3,0,0,0,2.25-1.74A10.25,10.25,0,0,0,650.55,393.17Z"/><path class="cls-4" d="M657.09,402.62a9.23,9.23,0,0,0,1.69-.87,8.94,8.94,0,0,0,2-1.71,9.74,9.74,0,0,0,1.61-2.63,9.3,9.3,0,0,0,.66-3.67,8.68,8.68,0,0,0-.63-3.58,6.23,6.23,0,0,0-1.54-2.16,5.4,5.4,0,0,0-1.93-1.1,8.45,8.45,0,0,0-1.82-.38l0.55-2.55a10.08,10.08,0,0,1,3.11.6,7.47,7.47,0,0,1,2.67,1.68,8.12,8.12,0,0,1,1.86,2.87,11.17,11.17,0,0,1,.7,4.16,13,13,0,0,1-.7,4.39,11.93,11.93,0,0,1-1.86,3.42,11.42,11.42,0,0,1-2.67,2.47,12.35,12.35,0,0,1-3.11,1.49Z"/><path class="cls-4" d="M48.34,347.1l2.84,0.4v-6.44l-2.84-.4v-2.53l5.15,0.73,0.34,1.57h0.09a5,5,0,0,1,1.46-1.06,3.34,3.34,0,0,1,1.92-.24,3,3,0,0,1,2.16,1.31,6.12,6.12,0,0,1,.79,3.49l-2.68-.37a2.52,2.52,0,0,0-.24-1.24,1,1,0,0,0-.77-0.49,2.05,2.05,0,0,0-1.48.26,3.78,3.78,0,0,0-1,.93v4.9l5,0.69v2.53c-4.31-.59-6.47-0.89-10.78-1.51V347.1Z"/><path class="cls-4" d="M73.41,351.83a3.44,3.44,0,0,1-.77.44,6.5,6.5,0,0,1-1.1.35,7.84,7.84,0,0,1-1.39.18,8.75,8.75,0,0,1-1.6-.07,8.42,8.42,0,0,1-2.62-.76,6.22,6.22,0,0,1-3.18-3.55,7.6,7.6,0,0,1-.42-2.6,6.31,6.31,0,0,1,.48-2.59,4.4,4.4,0,0,1,1.32-1.72,4.68,4.68,0,0,1,2-.88,7.29,7.29,0,0,1,2.43-.06,8.06,8.06,0,0,1,1.8.47,5.76,5.76,0,0,1,1.71,1,5.14,5.14,0,0,1,1.27,1.67,5.56,5.56,0,0,1,.49,2.46,10.55,10.55,0,0,1-.23,2.11l-8.25-1.09a2.93,2.93,0,0,0,.31,1.28,3,3,0,0,0,.76.93,3.82,3.82,0,0,0,1.08.62,5.73,5.73,0,0,0,1.29.32,6.45,6.45,0,0,0,2.26,0,4.09,4.09,0,0,0,1.43-.59ZM68.46,343a3.64,3.64,0,0,0-1.12,0,2.7,2.7,0,0,0-1,.35,2.13,2.13,0,0,0-1,1.7L71,345.79a2.85,2.85,0,0,0-.63-1.9A2.88,2.88,0,0,0,68.46,343Z"/><path class="cls-4" d="M87.44,353.73a5.74,5.74,0,0,1-2.2.8,9.34,9.34,0,0,1-2.64,0,8.09,8.09,0,0,1-2.65-.77A6.43,6.43,0,0,1,78,352.3a6.19,6.19,0,0,1-1.2-2.07,7.63,7.63,0,0,1-.41-2.54,6.06,6.06,0,0,1,.48-2.51,4.52,4.52,0,0,1,1.34-1.74,5,5,0,0,1,2-.93,7.53,7.53,0,0,1,2.54-.08,10,10,0,0,1,2.41.6,12.7,12.7,0,0,1,1.72.79v4l-2.52-.31v-2.12A6.85,6.85,0,0,0,83,345.1a4.15,4.15,0,0,0-1.27,0,2.68,2.68,0,0,0-1.12.48,2.71,2.71,0,0,0-.8,1,3.28,3.28,0,0,0-.31,1.5,3.83,3.83,0,0,0,1,2.56,3.86,3.86,0,0,0,1.13.87,4.43,4.43,0,0,0,1.5.45,5.11,5.11,0,0,0,2.14-.1,7.43,7.43,0,0,0,1.25-.49Z"/><path class="cls-4" d="M96.24,344.41l4.27,0.51v9l1.74,0.2v2.53l-3.62-.43-0.53-1.76H98a3.41,3.41,0,0,1-1.58,1.26,4.51,4.51,0,0,1-2.34.29,5.61,5.61,0,0,1-1.59-.42,3.39,3.39,0,0,1-1.23-.91,4.11,4.11,0,0,1-.78-1.52,8.18,8.18,0,0,1-.27-2.29v-4.62L88.9,346v-2.53L93.19,344v6.53a3.82,3.82,0,0,0,.45,2.08,1.85,1.85,0,0,0,1.41.79,2.27,2.27,0,0,0,1.52-.32,2.3,2.3,0,0,0,1-1.13v-4.9l-1.28-.15v-2.53Z"/><path class="cls-4" d="M103.33,354.22l2.85,0.33v-6.44l-2.85-.33v-2.53l5.16,0.6,0.34,1.56h0.09a5.15,5.15,0,0,1,1.47-1.1,3.39,3.39,0,0,1,1.93-.29,3,3,0,0,1,2.17,1.25,6,6,0,0,1,.79,3.47l-2.69-.3a2.48,2.48,0,0,0-.24-1.23,1,1,0,0,0-.77-0.47,2.09,2.09,0,0,0-1.48.29,3.93,3.93,0,0,0-1,1v4.9l5,0.56V358c-4.32-.48-6.49-0.73-10.81-1.23v-2.53Z"/><path class="cls-4" d="M126.65,364.22a11.77,11.77,0,0,1-3.12-1.34,10.68,10.68,0,0,1-2.69-2.34A11.21,11.21,0,0,1,119,357.2a12.64,12.64,0,0,1-.7-4.36,11.39,11.39,0,0,1,.7-4.19,8.66,8.66,0,0,1,1.87-3,8,8,0,0,1,2.69-1.8,10.45,10.45,0,0,1,3.12-.75l0.55,2.52a8.74,8.74,0,0,0-1.83.46,5.75,5.75,0,0,0-1.94,1.2,6.64,6.64,0,0,0-1.55,2.24,8.86,8.86,0,0,0-.63,3.61,8.81,8.81,0,0,0,2.28,6.19,8.33,8.33,0,0,0,2,1.61,8.78,8.78,0,0,0,1.7.79Z"/><path class="cls-4" d="M132.41,357.41l3.51,0.36V347.72l-3,2-1.38-2,5.24-3.47,2,0.2v13.57l3.45,0.34v2.53l-9.81-1v-2.53Z"/><path class="cls-4" d="M146.19,358.79l3.52,0.34V349.08l-3,2-1.38-2,5.24-3.5,2,0.19V359.4l3.45,0.32v2.53l-9.81-.93v-2.53Z"/><path class="cls-4" d="M162.56,361.37a1.44,1.44,0,0,1,.52-1.2,1.75,1.75,0,0,1,1.3-.34,2.5,2.5,0,0,1,1.91,1,3.48,3.48,0,0,1,.64,2.1,4.14,4.14,0,0,1-.4,1.85,4.4,4.4,0,0,1-1,1.38A5,5,0,0,1,164,367a5.46,5.46,0,0,1-1.57.39l-0.62-1.32a6.23,6.23,0,0,0,1.11-.29,4,4,0,0,0,1-.54,3.11,3.11,0,0,0,.77-0.82,2.25,2.25,0,0,0,.36-1.07,2.94,2.94,0,0,1-1.17-.07,2,2,0,0,1-.79-0.44,1.71,1.71,0,0,1-.45-0.68A2.48,2.48,0,0,1,162.56,361.37Z"/><path class="cls-4" d="M173.78,361.28l3.52,0.29V351.52l-3,2.07-1.38-2,5.24-3.57,2,0.17v13.57l3.45,0.28v2.53l-9.82-.8v-2.53Z"/><path class="cls-4" d="M186,356.73a13.36,13.36,0,0,1,.44-3.63,6.92,6.92,0,0,1,1.24-2.51,4.6,4.6,0,0,1,1.9-1.41,5.58,5.58,0,0,1,2.47-.33,5.79,5.79,0,0,1,4.48,2.37q1.57,2.15,1.57,6.43a13.49,13.49,0,0,1-.44,3.66,7.06,7.06,0,0,1-1.24,2.53,4.55,4.55,0,0,1-1.92,1.42,6.1,6.1,0,0,1-7-2.16A11.21,11.21,0,0,1,186,356.73Zm3,0.23q0,0.35,0,.66c0,0.21,0,.42,0,0.64l5.57-4.71a2.83,2.83,0,0,0-2.58-2.17,2.25,2.25,0,0,0-2.25,1.24A9,9,0,0,0,189,357Zm6.12,0.46q0-.37,0-0.7c0-.22,0-0.44,0-0.66l-5.59,4.71a2.89,2.89,0,0,0,2.58,2.29,2.28,2.28,0,0,0,2.26-1.23A9,9,0,0,0,195.13,357.43Z"/><path class="cls-4" d="M201.71,368.35a7.43,7.43,0,0,0,1.7-.49,6.53,6.53,0,0,0,2-1.27,7.18,7.18,0,0,0,1.62-2.27,8.18,8.18,0,0,0,.67-3.52,9.67,9.67,0,0,0-.63-3.72,8.48,8.48,0,0,0-1.55-2.51,7.4,7.4,0,0,0-1.95-1.54,10.33,10.33,0,0,0-1.83-.79l0.55-2.42a12.25,12.25,0,0,1,3.13,1.3,10.32,10.32,0,0,1,2.69,2.28,10.91,10.91,0,0,1,1.88,3.29,12.38,12.38,0,0,1,.7,4.31,11.58,11.58,0,0,1-.7,4.23,8.9,8.9,0,0,1-1.88,3,8.29,8.29,0,0,1-2.69,1.86,10.07,10.07,0,0,1-3.13.79Z"/><path class="cls-4" d="M352.66,371.5V369h2.72v-6.44h-2.74V360h2.74v-0.64a4.22,4.22,0,0,1,.38-1.86,3.74,3.74,0,0,1,1-1.29,4.11,4.11,0,0,1,1.44-.75,6,6,0,0,1,1.7-.24,10.79,10.79,0,0,1,2.62.26,6.69,6.69,0,0,1,1.69.65l-0.88,2.28a10.36,10.36,0,0,0-1.14-.46,5,5,0,0,0-1.58-.2,2.24,2.24,0,0,0-1.74.57,2.5,2.5,0,0,0-.5,1.69h4.84v2.53h-4.84c0,2.58,0,3.86,0,6.44h4.87v2.53C359,371.51,356.89,371.51,352.66,371.5Z"/><path class="cls-4" d="M366.93,360.77a12.65,12.65,0,0,1,2.13-.72,12.19,12.19,0,0,1,2.87-.32,6.36,6.36,0,0,1,2,.27,3.37,3.37,0,0,1,1.36.81,3.06,3.06,0,0,1,.75,1.26,5.52,5.52,0,0,1,.23,1.65q0,1.17-.08,2t-0.08,1.47a9.83,9.83,0,0,0,0,1.08c0,0.21.05,0.42,0.07,0.62h1.5v2.53l-3.87,0-0.3-1.56h-0.11a4,4,0,0,1-1.31,1.24,4.38,4.38,0,0,1-2.29.53,3.87,3.87,0,0,1-2.73-.91,3.13,3.13,0,0,1-1-2.43,3.67,3.67,0,0,1,.35-1.67,3,3,0,0,1,1-1.15,4.93,4.93,0,0,1,1.63-.68,9.55,9.55,0,0,1,2.12-.23c0.27,0,.56,0,0.87,0l1.12,0.08a2.37,2.37,0,0,0,0-.46v-0.44a1.46,1.46,0,0,0-.5-1.25,2.44,2.44,0,0,0-1.49-.37,7,7,0,0,0-2.11.31,13.59,13.59,0,0,0-1.58.61Zm3.92,8.42a2.77,2.77,0,0,0,1.64-.41,2.74,2.74,0,0,0,.8-0.87v-1.38l-0.68-.1a7.89,7.89,0,0,0-1-.05,4.75,4.75,0,0,0-.87.09,2.9,2.9,0,0,0-.78.26,1.52,1.52,0,0,0-.55.45,1.09,1.09,0,0,0-.2.67,1.3,1.3,0,0,0,.38,1A1.76,1.76,0,0,0,370.85,369.19Z"/><path class="cls-4" d="M391.28,370.14a6.73,6.73,0,0,1-2.21,1.1,9.77,9.77,0,0,1-2.65.39,7.47,7.47,0,0,1-2.66-.4,5.33,5.33,0,0,1-2-1.21,5.13,5.13,0,0,1-1.21-1.91,7.11,7.11,0,0,1-.42-2.48,6.51,6.51,0,0,1,.48-2.58,5.51,5.51,0,0,1,1.35-1.92,5.92,5.92,0,0,1,2-1.21,8,8,0,0,1,2.56-.43,9.44,9.44,0,0,1,2.42.27,11.2,11.2,0,0,1,1.73.55v4l-2.54,0v-2.12a6.47,6.47,0,0,0-1.43-.14,4.36,4.36,0,0,0-1.28.21,3.18,3.18,0,0,0-1.13.64,3.32,3.32,0,0,0-.81,1.08,3.87,3.87,0,0,0-.06,2.9,3.11,3.11,0,0,0,1.86,1.78,4.1,4.1,0,0,0,1.51.24,5.43,5.43,0,0,0,2.16-.4,8.86,8.86,0,0,0,1.26-.66Z"/><path class="cls-4" d="M395.2,362.21l-2.28,0v-2.53l2.28,0v-2.62l3-.9v3.47l6-.12V362l-6,.12v3.29a3.9,3.9,0,0,0,.67,2.55,2.26,2.26,0,0,0,1.87.76,4,4,0,0,0,1.13-.17,4.37,4.37,0,0,0,.91-0.4,5.37,5.37,0,0,0,.74-0.52l0.61-.52,1.38,2a4.58,4.58,0,0,1-1,.86,8.59,8.59,0,0,1-1.27.69,8.19,8.19,0,0,1-1.42.48,6.82,6.82,0,0,1-1.45.19A4.89,4.89,0,0,1,396.5,370a6.57,6.57,0,0,1-1.3-4.54v-3.29Z"/><path class="cls-4" d="M407.16,365.19a7.14,7.14,0,0,1,.44-2.59,5.37,5.37,0,0,1,3.17-3.17,7.49,7.49,0,0,1,2.5-.46,7.15,7.15,0,0,1,2.59.37,5.17,5.17,0,0,1,1.93,1.18,5,5,0,0,1,1.19,1.89,7.82,7.82,0,0,1,0,5.06,5.38,5.38,0,0,1-3.17,3.18,7.43,7.43,0,0,1-2.5.47,7.11,7.11,0,0,1-2.59-.37,5.17,5.17,0,0,1-1.93-1.18,5,5,0,0,1-1.19-1.89A7.25,7.25,0,0,1,407.16,365.19Zm3.09-.07a4.51,4.51,0,0,0,.21,1.4,3.34,3.34,0,0,0,.6,1.11,2.6,2.6,0,0,0,.94.72,2.86,2.86,0,0,0,1.27.23,3,3,0,0,0,2.18-.91,3.79,3.79,0,0,0,.84-2.71,3.89,3.89,0,0,0-.78-2.54,2.63,2.63,0,0,0-2.24-.92,3.64,3.64,0,0,0-1.2.23,2.44,2.44,0,0,0-1,.66,3.2,3.2,0,0,0-.63,1.12A5,5,0,0,0,410.25,365.12Z"/><path class="cls-4" d="M421.08,368.05l2.86-.08v-6.44l-2.86.08c0-1,0-1.52,0-2.53l5.19-.16,0.35,1.51h0.09a6.4,6.4,0,0,1,1.48-1.31,3.74,3.74,0,0,1,1.94-.57,2.53,2.53,0,0,1,2.18.94,5.43,5.43,0,0,1,.79,3.35l-2.7.09a2.27,2.27,0,0,0-.24-1.2,0.82,0.82,0,0,0-.77-0.35,2.35,2.35,0,0,0-1.49.51,4.89,4.89,0,0,0-1,1.09v4.9l5-.16v2.53c-4.34.15-6.51,0.22-10.86,0.34C421.08,369.57,421.08,369.06,421.08,368.05Z"/><path class="cls-4" d="M435.37,367.59l4.06-.15V361l-4.06.15c0-1,0-1.52,0-2.53l7.05-.26v9l4.26-.17c0,1,0,1.52,0,2.53-4.53.18-6.79,0.27-11.32,0.43v-2.53Zm3.5-12.23a1.69,1.69,0,0,1,.53-1.24,2.12,2.12,0,0,1,1.47-.56,2.19,2.19,0,0,1,1.54.45,1.5,1.5,0,0,1,.58,1.2,1.55,1.55,0,0,1-.58,1.23,2.45,2.45,0,0,1-1.54.53,2.07,2.07,0,0,1-1.47-.42A1.48,1.48,0,0,1,438.88,355.36Z"/><path class="cls-4" d="M449.92,358.83A13.11,13.11,0,0,1,452,358a12.35,12.35,0,0,1,2.87-.43,6.27,6.27,0,0,1,2,.2,3.21,3.21,0,0,1,1.36.75,2.92,2.92,0,0,1,.75,1.23,5.43,5.43,0,0,1,.23,1.65q0,1.17-.08,2t-0.08,1.48a9.82,9.82,0,0,0,0,1.08c0,0.21.05,0.42,0.07,0.62l1.5-.07c0,1,0,1.52,0,2.53l-3.87.18-0.3-1.55h-0.11a4.24,4.24,0,0,1-1.3,1.29,4.5,4.5,0,0,1-2.29.62,3.74,3.74,0,0,1-2.72-.8,3,3,0,0,1-1-2.4,3.75,3.75,0,0,1,.35-1.68,3.16,3.16,0,0,1,1-1.19,5.13,5.13,0,0,1,1.63-.74,9.67,9.67,0,0,1,2.12-.31c0.27,0,.56,0,0.87,0l1.12,0a2.4,2.4,0,0,0,0-.46v-0.44a1.41,1.41,0,0,0-.5-1.23,2.38,2.38,0,0,0-1.49-.31,7.08,7.08,0,0,0-2.1.39,14.07,14.07,0,0,0-1.58.67Zm3.92,8.27a2.85,2.85,0,0,0,1.64-.48,2.89,2.89,0,0,0,.8-0.9v-1.38l-0.68-.07a7.83,7.83,0,0,0-1,0,4.8,4.8,0,0,0-.87.12,3,3,0,0,0-.77.29,1.61,1.61,0,0,0-.55.47,1.12,1.12,0,0,0-.2.68,1.26,1.26,0,0,0,.38,1A1.71,1.71,0,0,0,453.84,367.11Z"/><path class="cls-4" d="M463.67,352.83l4.91-.24c0,4.25,0,6.38,0,10.63a4.79,4.79,0,0,0,.44,2.44,1.46,1.46,0,0,0,1.41.62,4,4,0,0,0,1.17-.21,4.74,4.74,0,0,0,.92-0.47l1.13,2q-0.39.27-.78,0.51a5.39,5.39,0,0,1-.83.41,5.85,5.85,0,0,1-1,.28,7.7,7.7,0,0,1-1.16.14,4.17,4.17,0,0,1-3.25-.94,4.09,4.09,0,0,1-1.08-3.07c0-3.86,0-5.8,0-9.66l-1.91.09v-2.53Z"/><path class="cls-4" d="M477.28,370.92l10.22-.58c0,1,0,1.48,0,2.46l-10.23.58v-2.46Z"/><path class="cls-4" d="M489.3,351.43l4.65-.29V357H494a4.26,4.26,0,0,1,1.47-1.27,5.23,5.23,0,0,1,2.16-.58,5.3,5.3,0,0,1,1.61.13,2.81,2.81,0,0,1,1.27.68,3.28,3.28,0,0,1,.83,1.38,7.06,7.06,0,0,1,.3,2.22v7.15l-3,.2v-6.53a2.7,2.7,0,0,0-.6-2,2,2,0,0,0-1.57-.52,2.77,2.77,0,0,0-1.57.62,3.07,3.07,0,0,0-1,1.39v7.34l-3,.18V353.86l-1.66.1v-2.53Z"/><path class="cls-4" d="M515.41,364.58a4.54,4.54,0,0,1-.77.6,8.12,8.12,0,0,1-1.11.57,9.07,9.07,0,0,1-1.39.47,9.18,9.18,0,0,1-1.61.25,7.62,7.62,0,0,1-2.64-.23,4.69,4.69,0,0,1-3.2-2.9,6.86,6.86,0,0,1-.43-2.51,7,7,0,0,1,.48-2.69,5.84,5.84,0,0,1,1.32-2,6.06,6.06,0,0,1,2-1.27,7.93,7.93,0,0,1,2.44-.55,7.41,7.41,0,0,1,1.81.1,4.59,4.59,0,0,1,1.71.67,3.83,3.83,0,0,1,1.28,1.42,4.9,4.9,0,0,1,.5,2.36,11.19,11.19,0,0,1-.23,2.16l-8.29.58a2.53,2.53,0,0,0,.31,1.22,2.22,2.22,0,0,0,.76.77,3.06,3.06,0,0,0,1.08.4,5.33,5.33,0,0,0,1.3.06,7,7,0,0,0,2.27-.48,5.26,5.26,0,0,0,1.44-.89Zm-5-7.86a3.94,3.94,0,0,0-1.13.24,3.43,3.43,0,0,0-1,.55,2.89,2.89,0,0,0-.7.83,2.55,2.55,0,0,0-.32,1.08L513,359A2.1,2.1,0,0,0,510.44,356.73Z"/><path class="cls-4" d="M518.93,349.45l4.9-.37c0,4.25,0,6.38,0,10.63a4.73,4.73,0,0,0,.44,2.43,1.42,1.42,0,0,0,1.4.58,4,4,0,0,0,1.17-.24,4.88,4.88,0,0,0,.92-0.5l1.13,2q-0.39.28-.78,0.53a5.54,5.54,0,0,1-.83.43,6,6,0,0,1-1,.3,7.74,7.74,0,0,1-1.16.17,4.08,4.08,0,0,1-3.24-.86,4,4,0,0,1-1.08-3v-9.66l-1.91.14C518.93,351,518.93,350.46,518.93,349.45Z"/><path class="cls-4" d="M530.73,353.14l3.91-.31,0.34,1.35h0.09a4.81,4.81,0,0,1,3.86-2,5.3,5.3,0,0,1,1.94.17,3.4,3.4,0,0,1,1.52.92,4.43,4.43,0,0,1,1,1.71,8.32,8.32,0,0,1,.34,2.57,8.76,8.76,0,0,1-.39,2.69,6.27,6.27,0,0,1-1.13,2.11,5.44,5.44,0,0,1-1.79,1.42,6.61,6.61,0,0,1-2.41.64,9.42,9.42,0,0,1-1.4,0,3.65,3.65,0,0,1-1.15-.24c0,1.89,0,2.83,0,4.71l-3,.24c0-5.43,0-8.14,0-13.57l-1.72.14v-2.53Zm7.31,1.62a3.26,3.26,0,0,0-1.6.57,2.54,2.54,0,0,0-1,1.39v4.78a2.26,2.26,0,0,0,.93.33,5,5,0,0,0,1.23,0,3.38,3.38,0,0,0,1.2-.32,2.75,2.75,0,0,0,1-.78,3.77,3.77,0,0,0,.64-1.27,6.18,6.18,0,0,0,.23-1.79,3.18,3.18,0,0,0-.74-2.28A2.2,2.2,0,0,0,538,354.76Z"/><path class="cls-4" d="M556.81,361.2a4.66,4.66,0,0,1-.77.61,8.29,8.29,0,0,1-1.1.6,9.35,9.35,0,0,1-3,.78,7.57,7.57,0,0,1-2.63-.18,4.57,4.57,0,0,1-3.2-2.84,6.8,6.8,0,0,1-.42-2.5,7.07,7.07,0,0,1,.48-2.7,6,6,0,0,1,1.32-2,6.21,6.21,0,0,1,2-1.31,8,8,0,0,1,2.44-.6,7.37,7.37,0,0,1,1.8.07,4.49,4.49,0,0,1,1.71.64,3.73,3.73,0,0,1,1.28,1.39,4.85,4.85,0,0,1,.49,2.35,11.28,11.28,0,0,1-.23,2.16l-8.28.74a2.5,2.5,0,0,0,.31,1.21,2.16,2.16,0,0,0,.76.76,3,3,0,0,0,1.08.38,5.28,5.28,0,0,0,1.3,0,7,7,0,0,0,2.26-.52,5.38,5.38,0,0,0,1.44-.91Zm-5-7.76a4,4,0,0,0-1.13.26,3.51,3.51,0,0,0-1,.56,3,3,0,0,0-.7.85,2.59,2.59,0,0,0-.32,1.08l5.66-.5A2.06,2.06,0,0,0,551.84,353.43Z"/><path class="cls-4" d="M559.22,359.66l2.85-.27c0-2.58,0-3.86,0-6.44l-2.85.27c0-1,0-1.52,0-2.53l5.17-.48,0.34,1.48h0.09a7,7,0,0,1,1.47-1.41,3.93,3.93,0,0,1,1.93-.69,2.37,2.37,0,0,1,2.17.8,5.21,5.21,0,0,1,.79,3.3l-2.69.26a2.18,2.18,0,0,0-.24-1.18,0.77,0.77,0,0,0-.77-0.31,2.48,2.48,0,0,0-1.48.6,5.36,5.36,0,0,0-1,1.15c0,2,0,2.94,0,4.9l5-.48c0,1,0,1.52,0,2.53-4.33.42-6.49,0.63-10.82,1C559.22,361.18,559.22,360.68,559.22,359.66Z"/><path class="cls-4" d="M582.56,364.79a9.82,9.82,0,0,1-3.12-.69,7.91,7.91,0,0,1-2.69-1.78,8.53,8.53,0,0,1-1.87-2.94,11.42,11.42,0,0,1-.7-4.21,12.6,12.6,0,0,1,.7-4.34,11.38,11.38,0,0,1,1.87-3.35,10.8,10.8,0,0,1,2.69-2.37,12.64,12.64,0,0,1,3.12-1.4l0.55,2.4a10.66,10.66,0,0,0-1.83.84,7.72,7.72,0,0,0-1.94,1.6,8.84,8.84,0,0,0-1.55,2.56,9.85,9.85,0,0,0-.63,3.74,8.05,8.05,0,0,0,.67,3.5,6.84,6.84,0,0,0,1.62,2.22,6.22,6.22,0,0,0,2,1.2,7.2,7.2,0,0,0,1.7.43Z"/><path class="cls-4" d="M588.33,356.78l3.51-.37c0-4,0-6,0-10.05l-3,2.65-1.38-1.69,5.23-4.56,2-.22c0,5.43,0,8.14,0,13.57l3.44-.38c0,1,0,1.52,0,2.53l-9.8,1.06C588.33,358.3,588.33,357.79,588.33,356.78Z"/><path class="cls-4" d="M602.1,355.28l3.51-.4c0-4,0-6,0-10.05l-3,2.67-1.38-1.69,5.23-4.59,2-.23c0,5.43,0,8.14,0,13.57l3.44-.4c0,1,0,1.52,0,2.53l-9.8,1.12C602.1,356.79,602.1,356.29,602.1,355.28Z"/><path class="cls-4" d="M614.31,348.33a14.38,14.38,0,0,1,.44-3.72,8.65,8.65,0,0,1,1.23-2.76,6.08,6.08,0,0,1,1.9-1.78,6.29,6.29,0,0,1,2.46-.81,4.73,4.73,0,0,1,4.47,1.49q1.56,1.84,1.56,6.12a14.47,14.47,0,0,1-.44,3.75,8.84,8.84,0,0,1-1.23,2.77,6,6,0,0,1-1.91,1.8,6.35,6.35,0,0,1-2.47.82,4.57,4.57,0,0,1-4.47-1.62Q614.31,352.42,614.31,348.33Zm3-.35c0,0.23,0,.45,0,0.65s0,0.42,0,.63l5.55-5.8a2.23,2.23,0,0,0-2.57-1.67,2.85,2.85,0,0,0-2.24,1.68A10.06,10.06,0,0,0,617.29,348Zm6.1-.74q0-.37,0-0.7c0-.22,0-0.44,0-0.65l-5.57,5.8a2.27,2.27,0,0,0,2.57,1.78,2.88,2.88,0,0,0,2.25-1.68A10.08,10.08,0,0,0,623.39,347.24Z"/><path class="cls-4" d="M632.19,352.74a1.79,1.79,0,0,1,.52-1.31,2.14,2.14,0,0,1,1.3-.62,2,2,0,0,1,1.9.59,2.91,2.91,0,0,1,.64,2,4.71,4.71,0,0,1-.4,1.94,5.94,5.94,0,0,1-1,1.61,6.76,6.76,0,0,1-1.43,1.2,6.6,6.6,0,0,1-1.57.73l-0.62-1.19a7.58,7.58,0,0,0,1.11-.53,5.37,5.37,0,0,0,1-.76,4.29,4.29,0,0,0,.77-1,2.73,2.73,0,0,0,.36-1.15,3,3,0,0,1-1.17.18,1.55,1.55,0,0,1-.79-0.27,1.26,1.26,0,0,1-.45-0.59A2.22,2.22,0,0,1,632.19,352.74Z"/><path class="cls-4" d="M642.18,341.87a6.11,6.11,0,0,1,.4-2.21,5.81,5.81,0,0,1,1.12-1.84,6.27,6.27,0,0,1,1.74-1.33,6.78,6.78,0,0,1,2.28-.71,6.43,6.43,0,0,1,2.34.08,4.11,4.11,0,0,1,1.81.92,4.35,4.35,0,0,1,1.17,1.75,7.17,7.17,0,0,1,.41,2.56,14.6,14.6,0,0,1-.69,4.69,11.29,11.29,0,0,1-1.84,3.47,9.69,9.69,0,0,1-2.69,2.34,11.93,11.93,0,0,1-3.21,1.3l-0.64-2.26a8.93,8.93,0,0,0,2.28-.92,8.27,8.27,0,0,0,1.78-1.38,7.2,7.2,0,0,0,1.24-1.71,5.9,5.9,0,0,0,.62-1.93,4.13,4.13,0,0,1-1.24.94,5.54,5.54,0,0,1-1.81.53h0a5.31,5.31,0,0,1-1.76-.06,4.08,4.08,0,0,1-1.61-.71,4,4,0,0,1-1.18-1.4A4.49,4.49,0,0,1,642.18,341.87Zm2.89-.54a2.37,2.37,0,0,0,.24,1.11,2.08,2.08,0,0,0,.63.74,2.29,2.29,0,0,0,.91.39,3.22,3.22,0,0,0,1.06,0,4.45,4.45,0,0,0,1.63-.52,2.9,2.9,0,0,0,1-.87,6.71,6.71,0,0,0,.07-0.93,4.22,4.22,0,0,0-.18-1.24,2.9,2.9,0,0,0-.55-1,2.25,2.25,0,0,0-.92-0.65,2.52,2.52,0,0,0-1.26-.12A3,3,0,0,0,645.07,341.33Z"/><path class="cls-4" d="M657.43,353.25a9.08,9.08,0,0,0,1.69-.84,8.74,8.74,0,0,0,2-1.68,9.54,9.54,0,0,0,1.61-2.61,9.21,9.21,0,0,0,.66-3.66,8.74,8.74,0,0,0-.63-3.59,6.37,6.37,0,0,0-1.55-2.19,5.51,5.51,0,0,0-1.93-1.13,8.54,8.54,0,0,0-1.82-.4l0.55-2.54a10.18,10.18,0,0,1,3.11.65,7.64,7.64,0,0,1,2.68,1.72,8.3,8.3,0,0,1,1.87,2.9,11.24,11.24,0,0,1,.7,4.17,12.87,12.87,0,0,1-.7,4.38,11.69,11.69,0,0,1-1.87,3.39,11.17,11.17,0,0,1-2.68,2.42,12.16,12.16,0,0,1-3.11,1.45Z"/><path class="cls-4" d="M48.74,297.85v-2.53l2.7,0.43c0-2.58,0-3.86,0-6.44l-2.72-.43c0-1,0-1.52,0-2.53l2.72,0.43v-0.64a3.87,3.87,0,0,1,.38-1.8,3,3,0,0,1,1-1.13,3.42,3.42,0,0,1,1.43-.53,5.72,5.72,0,0,1,1.68,0,11.55,11.55,0,0,1,2.6.66,7.88,7.88,0,0,1,1.68.91l-0.87,2.14a12.31,12.31,0,0,0-1.13-.63,5.45,5.45,0,0,0-1.57-.45,2,2,0,0,0-1.73.3,2.21,2.21,0,0,0-.49,1.61l4.8,0.74v2.53l-4.8-.74c0,2.58,0,3.86,0,6.44L59.23,297c0,1,0,1.52,0,2.53C55,298.84,52.94,298.51,48.74,297.85Z"/><path class="cls-4" d="M62.89,289.32a11.17,11.17,0,0,1,2.12-.39,11.8,11.8,0,0,1,2.85.12,6.9,6.9,0,0,1,2,.59,4.13,4.13,0,0,1,1.35,1A3.73,3.73,0,0,1,72,292a5.92,5.92,0,0,1,.23,1.69q0,1.17-.08,2T72,297.17a10.13,10.13,0,0,0,0,1.09c0,0.21.05,0.43,0.07,0.63l1.49,0.22v2.53l-3.84-.56-0.3-1.61-0.11,0a3.19,3.19,0,0,1-1.3,1,4,4,0,0,1-2.27.18,4.47,4.47,0,0,1-2.71-1.33,3.66,3.66,0,0,1-1-2.59,3.35,3.35,0,0,1,.35-1.61,2.38,2.38,0,0,1,1-1,4.23,4.23,0,0,1,1.61-.42,9.27,9.27,0,0,1,2.1.1c0.27,0,.56.1,0.86,0.17l1.11,0.26a2.28,2.28,0,0,0,0-.45v-0.44a1.7,1.7,0,0,0-.5-1.33,2.76,2.76,0,0,0-1.48-.6,6.63,6.63,0,0,0-2.09,0,11.78,11.78,0,0,0-1.57.36Zm3.89,9a2.52,2.52,0,0,0,1.63-.16,2.16,2.16,0,0,0,.79-0.75v-1.38l-0.68-.2a8.27,8.27,0,0,0-1-.2,4.64,4.64,0,0,0-.86,0,2.58,2.58,0,0,0-.77.14,1.22,1.22,0,0,0-.54.37,1,1,0,0,0-.2.64,1.51,1.51,0,0,0,.37,1.06A2,2,0,0,0,66.79,298.35Z"/><path class="cls-4" d="M87.07,302.43a5.66,5.66,0,0,1-2.2.76,9.31,9.31,0,0,1-2.63,0,8.17,8.17,0,0,1-2.65-.81,6.57,6.57,0,0,1-1.95-1.51,6.3,6.3,0,0,1-1.2-2.09,7.7,7.7,0,0,1-.41-2.54,6,6,0,0,1,.48-2.51A4.43,4.43,0,0,1,77.85,292a4.87,4.87,0,0,1,2-.9,7.52,7.52,0,0,1,2.54,0,10.13,10.13,0,0,1,2.4.64,12.91,12.91,0,0,1,1.72.81v4L84,296.21V294.1a6.92,6.92,0,0,0-1.42-.36,4.15,4.15,0,0,0-1.27,0,2.58,2.58,0,0,0-1.92,1.42,3.25,3.25,0,0,0-.31,1.5,3.85,3.85,0,0,0,.25,1.39,3.91,3.91,0,0,0,.71,1.18,4,4,0,0,0,1.13.88,4.49,4.49,0,0,0,1.5.48,5.09,5.09,0,0,0,2.14-.07,7.38,7.38,0,0,0,1.25-.47Z"/><path class="cls-4" d="M91,295.1l-2.27-.31v-2.53L91,292.57v-2.62l3-.45V293l6,0.8v2.53l-6-.8c0,1.32,0,2,0,3.29a4.39,4.39,0,0,0,.66,2.65,2.66,2.66,0,0,0,1.86,1,3.83,3.83,0,0,0,1.12,0,3.73,3.73,0,0,0,.91-0.26,4.29,4.29,0,0,0,.73-0.41l0.61-.43,1.38,2.25a3.67,3.67,0,0,1-1,.71,7.1,7.1,0,0,1-1.26.5,7.19,7.19,0,0,1-1.41.26,6.57,6.57,0,0,1-1.44,0,5.68,5.68,0,0,1-3.86-2A7.45,7.45,0,0,1,91,298.39V295.1Z"/><path class="cls-4" d="M102.86,299.9a6.65,6.65,0,0,1,.44-2.52,4.43,4.43,0,0,1,1.24-1.75,4.51,4.51,0,0,1,1.91-.94,7,7,0,0,1,2.49-.09,7.79,7.79,0,0,1,2.58.76,6.33,6.33,0,0,1,1.92,1.47,6.08,6.08,0,0,1,1.18,2.07,7.81,7.81,0,0,1,.4,2.53,6.68,6.68,0,0,1-.44,2.52,4.45,4.45,0,0,1-1.24,1.76,4.5,4.5,0,0,1-1.91.94,7,7,0,0,1-2.49.09,7.75,7.75,0,0,1-2.58-.77,6.35,6.35,0,0,1-1.91-1.48,6.11,6.11,0,0,1-1.18-2.07A7.82,7.82,0,0,1,102.86,299.9Zm3.07,0.4a4.85,4.85,0,0,0,.21,1.43,4,4,0,0,0,.6,1.2,3.23,3.23,0,0,0,.94.87,3.16,3.16,0,0,0,1.26.43,2.61,2.61,0,0,0,2.17-.58,3.34,3.34,0,0,0,.84-2.59,4.42,4.42,0,0,0-.78-2.66,3.1,3.1,0,0,0-2.23-1.26,3.42,3.42,0,0,0-1.19,0,2,2,0,0,0-1,.51,2.63,2.63,0,0,0-.63,1A4.72,4.72,0,0,0,105.93,300.3Z"/><path class="cls-4" d="M116.71,304.88l2.85,0.35v-6.44l-2.85-.35v-2.53l5.16,0.63,0.34,1.56h0.09a5.11,5.11,0,0,1,1.47-1.09,3.38,3.38,0,0,1,1.93-.28,3,3,0,0,1,2.17,1.27,6,6,0,0,1,.79,3.47l-2.68-.32a2.49,2.49,0,0,0-.24-1.24,1,1,0,0,0-.77-0.47,2.08,2.08,0,0,0-1.48.28,3.92,3.92,0,0,0-1,.94v4.9l5,0.59v2.53c-4.32-.51-6.49-0.77-10.81-1.3v-2.53Z"/><path class="cls-4" d="M130.94,306.57l4,0.46v-6.44l-4-.46c0-1,0-1.52,0-2.53l7,0.8c0,3.59,0,5.38,0,9l4.25,0.47c0,1,0,1.52,0,2.53-4.51-.49-6.77-0.75-11.27-1.27v-2.53Zm3.49-11.7a1.45,1.45,0,0,1,.53-1.16,1.87,1.87,0,0,1,1.47-.34,2.5,2.5,0,0,1,1.54.68,1.77,1.77,0,0,1,.57,1.28,1.32,1.32,0,0,1-.57,1.14,2.17,2.17,0,0,1-1.54.3,2.37,2.37,0,0,1-1.47-.64A1.73,1.73,0,0,1,134.43,294.87Z"/><path class="cls-4" d="M145.43,300a11.54,11.54,0,0,1,2.12-.48,11.87,11.87,0,0,1,2.86,0,6.73,6.73,0,0,1,2,.5,3.91,3.91,0,0,1,1.36,1,3.54,3.54,0,0,1,.75,1.34,5.79,5.79,0,0,1,.23,1.68q0,1.17-.08,2t-0.08,1.46a10.06,10.06,0,0,0,0,1.09c0,0.21.05,0.43,0.07,0.63l1.49,0.15v2.53l-3.86-.4-0.3-1.6H152a3.4,3.4,0,0,1-1.3,1.09,4.1,4.1,0,0,1-2.28.28,4.29,4.29,0,0,1-2.72-1.21,3.5,3.5,0,0,1-1-2.55,3.43,3.43,0,0,1,.35-1.63,2.54,2.54,0,0,1,1-1,4.41,4.41,0,0,1,1.62-.49,9.3,9.3,0,0,1,2.11,0c0.28,0,.56.08,0.87,0.14l1.12,0.21a2.3,2.3,0,0,0,0-.46v-0.44a1.63,1.63,0,0,0-.5-1.31,2.66,2.66,0,0,0-1.48-.54,6.71,6.71,0,0,0-2.1.08,12.24,12.24,0,0,0-1.57.43Zm3.91,8.86a2.58,2.58,0,0,0,1.64-.23,2.3,2.3,0,0,0,.8-0.78v-1.38l-0.68-.18a8.15,8.15,0,0,0-1-.16,4.66,4.66,0,0,0-.86,0,2.66,2.66,0,0,0-.77.17,1.3,1.3,0,0,0-.55.39,1,1,0,0,0-.2.65,1.45,1.45,0,0,0,.37,1A1.94,1.94,0,0,0,149.34,308.86Z"/><path class="cls-4" d="M159.14,296.05l4.9,0.49c0,4.25,0,6.38,0,10.63a5.21,5.21,0,0,0,.44,2.5,1.72,1.72,0,0,0,1.4.83,3.76,3.76,0,0,0,1.17,0,4,4,0,0,0,.92-0.34l1.13,2.18c-0.26.14-.52,0.28-0.78,0.4a4.57,4.57,0,0,1-.83.29,5.32,5.32,0,0,1-1,.14,7.52,7.52,0,0,1-1.16,0,4.78,4.78,0,0,1-3.24-1.42,4.68,4.68,0,0,1-1.08-3.24c0-3.86,0-5.8,0-9.66l-1.91-.19v-2.53Z"/><path class="cls-4" d="M172.73,316.17c4.08,0.38,6.13.57,10.21,0.93,0,1,0,1.48,0,2.46-4.09-.36-6.13-0.55-10.21-0.93C172.73,317.65,172.73,317.15,172.73,316.17Z"/><path class="cls-4" d="M184.74,298.47l4.65,0.4c0,2.36,0,3.53,0,5.89h0.09a3.45,3.45,0,0,1,1.47-1,4.82,4.82,0,0,1,2.16-.26,5.64,5.64,0,0,1,1.61.36,3.41,3.41,0,0,1,1.27.86,4,4,0,0,1,.83,1.51,7.49,7.49,0,0,1,.3,2.27c0,2.86,0,4.29,0,7.15l-3-.25c0-2.61,0-3.92,0-6.53a3,3,0,0,0-.6-2.07A2.27,2.27,0,0,0,192,306a2.44,2.44,0,0,0-1.56.39,2.49,2.49,0,0,0-1,1.24c0,2.93,0,4.4,0,7.34l-3-.26c0-5.43,0-8.14,0-13.57l-1.66-.14C184.74,300,184.74,299.48,184.74,298.47Z"/><path class="cls-4" d="M210.84,315.47a3.69,3.69,0,0,1-.77.48,6.91,6.91,0,0,1-1.1.41,8.14,8.14,0,0,1-1.39.26,8.81,8.81,0,0,1-1.61,0,8.16,8.16,0,0,1-2.64-.62,5.77,5.77,0,0,1-3.2-3.37,7.36,7.36,0,0,1-.43-2.58,6.47,6.47,0,0,1,.48-2.62,4.76,4.76,0,0,1,1.32-1.79,5,5,0,0,1,2-1,7.43,7.43,0,0,1,2.44-.19,7.86,7.86,0,0,1,1.81.37,5.41,5.41,0,0,1,1.71.92,4.73,4.73,0,0,1,1.28,1.6,5.36,5.36,0,0,1,.5,2.43,10.69,10.69,0,0,1-.23,2.12l-8.29-.63a2.79,2.79,0,0,0,.31,1.27,2.74,2.74,0,0,0,.76.89,3.6,3.6,0,0,0,1.08.56,5.57,5.57,0,0,0,1.3.25,6.55,6.55,0,0,0,2.27-.15,4.38,4.38,0,0,0,1.44-.67Zm-5-8.59a3.69,3.69,0,0,0-1.13.08,2.88,2.88,0,0,0-1,.41,2.34,2.34,0,0,0-.7.73,2.28,2.28,0,0,0-.32,1l5.66,0.44A2.48,2.48,0,0,0,205.86,306.88Z"/><path class="cls-4" d="M214.36,300.85l4.9,0.35c0,4.25,0,6.38,0,10.63a5.12,5.12,0,0,0,.44,2.49,1.67,1.67,0,0,0,1.41.79,3.79,3.79,0,0,0,1.17-.07,4.13,4.13,0,0,0,.92-0.36l1.13,2.15q-0.39.23-.78,0.42a4.75,4.75,0,0,1-.83.31,5.41,5.41,0,0,1-1,.16,7.55,7.55,0,0,1-1.16,0,4.65,4.65,0,0,1-3.25-1.33,4.56,4.56,0,0,1-1.08-3.21c0-3.86,0-5.8,0-9.66l-1.91-.14C214.36,302.36,214.36,301.86,214.36,300.85Z"/><path class="cls-4" d="M226.17,306.27l3.92,0.26,0.35,1.4h0.09a4.14,4.14,0,0,1,3.87-1.46,5.7,5.7,0,0,1,1.95.45,4.14,4.14,0,0,1,1.52,1.14,5.3,5.3,0,0,1,1,1.85,8.81,8.81,0,0,1,.35,2.62,8.21,8.21,0,0,1-.39,2.63,5.22,5.22,0,0,1-1.13,1.94,4.44,4.44,0,0,1-1.8,1.15,6.11,6.11,0,0,1-2.42.29,9.71,9.71,0,0,1-1.4-.19,4.11,4.11,0,0,1-1.15-.41c0,1.89,0,2.83,0,4.71l-3-.19c0-5.43,0-8.14,0-13.57l-1.73-.11C226.17,307.79,226.17,307.28,226.17,306.27ZM233.5,309a2.92,2.92,0,0,0-1.6.34,2.08,2.08,0,0,0-1,1.25c0,1.91,0,2.87,0,4.78a2.65,2.65,0,0,0,.93.46,5.3,5.3,0,0,0,1.23.23,3.13,3.13,0,0,0,1.2-.14,2.25,2.25,0,0,0,1-.64,3.16,3.16,0,0,0,.64-1.18,5.83,5.83,0,0,0,.23-1.76,3.59,3.59,0,0,0-.74-2.39A2.56,2.56,0,0,0,233.5,309Z"/><path class="cls-4" d="M252.3,318.12a3.8,3.8,0,0,1-.77.5,7.05,7.05,0,0,1-1.11.44,8.26,8.26,0,0,1-1.39.29,8.88,8.88,0,0,1-1.61,0,8.07,8.07,0,0,1-2.64-.56,5.6,5.6,0,0,1-3.2-3.3,7.29,7.29,0,0,1-.43-2.57,6.54,6.54,0,0,1,.48-2.63,4.9,4.9,0,0,1,1.32-1.82,5.16,5.16,0,0,1,2-1,7.49,7.49,0,0,1,2.44-.24,7.76,7.76,0,0,1,1.81.33,5.29,5.29,0,0,1,1.72.89,4.61,4.61,0,0,1,1.28,1.58,5.28,5.28,0,0,1,.5,2.42,10.75,10.75,0,0,1-.23,2.13l-8.3-.46a2.77,2.77,0,0,0,.31,1.26,2.67,2.67,0,0,0,.76.87,3.49,3.49,0,0,0,1.08.53,5.53,5.53,0,0,0,1.3.22,6.6,6.6,0,0,0,2.27-.2,4.5,4.5,0,0,0,1.44-.7Zm-5-8.48a3.74,3.74,0,0,0-1.13.1,3,3,0,0,0-1,.43,2.41,2.41,0,0,0-.7.74,2.29,2.29,0,0,0-.32,1l5.67,0.32A2.42,2.42,0,0,0,247.32,309.64Z"/><path class="cls-4" d="M254.72,316.93l2.86,0.15c0-2.58,0-3.86,0-6.44l-2.86-.15c0-1,0-1.52,0-2.53l5.19,0.26,0.35,1.53h0.09a5.68,5.68,0,0,1,1.48-1.19,3.54,3.54,0,0,1,1.94-.41,2.76,2.76,0,0,1,2.18,1.11,5.74,5.74,0,0,1,.79,3.42l-2.7-.13a2.38,2.38,0,0,0-.24-1.22,0.9,0.9,0,0,0-.77-0.42,2.2,2.2,0,0,0-1.49.39,4.34,4.34,0,0,0-1,1c0,2,0,2.94,0,4.9l5,0.24c0,1,0,1.52,0,2.53-4.34-.2-6.51-0.31-10.86-0.54v-2.53Z"/><path class="cls-4" d="M278.14,325.42a11.07,11.07,0,0,1-3.14-1.14,9.72,9.72,0,0,1-2.7-2.16,10.3,10.3,0,0,1-1.88-3.21,12.2,12.2,0,0,1-.7-4.31,11.71,11.71,0,0,1,.7-4.24,9.44,9.44,0,0,1,1.88-3.08,8.8,8.8,0,0,1,2.7-2,11.07,11.07,0,0,1,3.14-1l0.55,2.48a9.29,9.29,0,0,0-1.83.58,6.32,6.32,0,0,0-1.95,1.32,7.28,7.28,0,0,0-1.56,2.34,9.13,9.13,0,0,0-.63,3.65,8.69,8.69,0,0,0,.67,3.59,8.35,8.35,0,0,0,1.63,2.45,7.6,7.6,0,0,0,2,1.48,8.21,8.21,0,0,0,1.71.68Z"/><path class="cls-4" d="M283.93,318.24l3.53,0.13c0-4,0-6,0-10.05l-3,2.21L283,308.64l5.26-3.81,2,0.07c0,5.43,0,8.14,0,13.57l3.46,0.11v2.53l-9.85-.34C283.93,319.76,283.93,319.25,283.93,318.24Z"/><path class="cls-4" d="M297.76,318.71l3.53,0.1c0-4,0-6,0-10.05l-3,2.23-1.38-1.88,5.26-3.85,2,0.06c0,5.43,0,8.14,0,13.57l3.46,0.09c0,1,0,1.52,0,2.53l-9.85-.27v-2.53Z"/><path class="cls-4" d="M310,313.49a13.57,13.57,0,0,1,.44-3.66,7.33,7.33,0,0,1,1.24-2.58,5,5,0,0,1,1.91-1.51,5.74,5.74,0,0,1,2.48-.46,5.47,5.47,0,0,1,4.49,2.12q1.57,2.06,1.57,6.34a13.68,13.68,0,0,1-.44,3.68,7.52,7.52,0,0,1-1.24,2.6,4.92,4.92,0,0,1-1.92,1.53,5.8,5.8,0,0,1-2.49.47,5.32,5.32,0,0,1-4.49-2.25A10.77,10.77,0,0,1,310,313.49Zm3,0.07c0,0.23,0,.45,0,0.66s0,0.42,0,.63l5.58-5a2.65,2.65,0,0,0-2.58-2,2.4,2.4,0,0,0-2.25,1.37A9.27,9.27,0,0,0,313,313.56Zm6.14,0.13q0-.37,0-0.7c0-.22,0-0.44,0-0.66l-5.61,5a2.7,2.7,0,0,0,2.59,2.15,2.43,2.43,0,0,0,2.27-1.36A9.29,9.29,0,0,0,319.17,313.69Z"/><path class="cls-4" d="M328,320.45a1.55,1.55,0,0,1,.52-1.23,1.87,1.87,0,0,1,1.3-.44,2.31,2.31,0,0,1,1.92.85,3.26,3.26,0,0,1,.65,2.06,4.31,4.31,0,0,1-.4,1.88A4.89,4.89,0,0,1,331,325a5.56,5.56,0,0,1-1.44,1,5.8,5.8,0,0,1-1.58.51l-0.62-1.27a6.62,6.62,0,0,0,1.12-.37,4.44,4.44,0,0,0,1-.62,3.5,3.5,0,0,0,.77-0.87,2.41,2.41,0,0,0,.36-1.1,3,3,0,0,1-1.18,0,1.81,1.81,0,0,1-.8-0.38,1.54,1.54,0,0,1-.45-0.65A2.37,2.37,0,0,1,328,320.45Z"/><path class="cls-4" d="M338.09,311a5.63,5.63,0,0,1,.4-2.16,4.81,4.81,0,0,1,1.13-1.68,5.2,5.2,0,0,1,1.75-1.09,6.25,6.25,0,0,1,2.3-.39,6.81,6.81,0,0,1,2.35.41,5,5,0,0,1,1.82,1.17,5.24,5.24,0,0,1,1.18,1.91,7.61,7.61,0,0,1,.42,2.61,13.64,13.64,0,0,1-.69,4.6,9.45,9.45,0,0,1-1.86,3.21,8,8,0,0,1-2.71,2,10.65,10.65,0,0,1-3.23.85L340.3,320a8,8,0,0,0,2.3-.6,6.85,6.85,0,0,0,1.79-1.13,5.89,5.89,0,0,0,1.24-1.53,5.19,5.19,0,0,0,.62-1.85,3.43,3.43,0,0,1-1.25.76,5.14,5.14,0,0,1-1.82.27h0a5.62,5.62,0,0,1-1.78-.31A4.8,4.8,0,0,1,338.09,311Zm2.91-.13a2.53,2.53,0,0,0,.88,2,2.73,2.73,0,0,0,.91.51,3.39,3.39,0,0,0,1.07.18,4.09,4.09,0,0,0,1.64-.29,2.39,2.39,0,0,0,1-.73,6.49,6.49,0,0,0,.07-0.92,4.45,4.45,0,0,0-.18-1.27,3.43,3.43,0,0,0-.55-1.11,2.76,2.76,0,0,0-.92-0.78,2.73,2.73,0,0,0-1.27-.3A2.53,2.53,0,0,0,341,310.84Z"/><path class="cls-4" d="M353.45,324.5a7.91,7.91,0,0,0,1.71-.61,7.2,7.2,0,0,0,2-1.4,7.89,7.89,0,0,0,1.63-2.38,8.49,8.49,0,0,0,.67-3.57,9.32,9.32,0,0,0-.63-3.68,7.71,7.71,0,0,0-1.56-2.4,6.71,6.71,0,0,0-1.95-1.4,9.67,9.67,0,0,0-1.83-.66l0.55-2.46a11.49,11.49,0,0,1,3.14,1.08,9.35,9.35,0,0,1,2.7,2.09,10,10,0,0,1,1.88,3.16,13.33,13.33,0,0,1,0,8.55,9.76,9.76,0,0,1-1.88,3.13,9.17,9.17,0,0,1-2.7,2,10.69,10.69,0,0,1-3.14,1Z"/><path class="cls-4" d="M449.68,303.87l9.1-.45c0,1,0,1.52,0,2.53l-6.25.31c0,6.53,0,9.8,0,16.33l6.25-.31c0,1,0,1.52,0,2.53l-9.1.45C449.68,316.71,449.68,312.43,449.68,303.87Z"/><path class="cls-4" d="M466.43,309.27a1.75,1.75,0,0,1,.51-1.3,2,2,0,0,1,1.34-.55,1.86,1.86,0,0,1,1.38.39,1.57,1.57,0,0,1,.51,1.25,1.79,1.79,0,0,1-.51,1.32,2,2,0,0,1-1.38.56,1.77,1.77,0,0,1-1.34-.41A1.6,1.6,0,0,1,466.43,309.27Zm0,8.33a1.75,1.75,0,0,1,.51-1.31,2,2,0,0,1,1.34-.55,1.86,1.86,0,0,1,1.38.39,1.57,1.57,0,0,1,.51,1.25,1.79,1.79,0,0,1-.51,1.32,2,2,0,0,1-1.38.56,1.77,1.77,0,0,1-1.34-.41A1.6,1.6,0,0,1,466.43,317.6Z"/><path class="cls-4" d="M476.11,316l2.86-.17c0-2.58,0-3.86,0-6.44l-2.86.17c0-1,0-1.52,0-2.53l5.18-.32,0.35,1.5h0.09a6.71,6.71,0,0,1,1.47-1.36,3.84,3.84,0,0,1,1.93-.63,2.45,2.45,0,0,1,2.18.87,5.31,5.31,0,0,1,.79,3.33l-2.69.18a2.22,2.22,0,0,0-.24-1.19,0.79,0.79,0,0,0-.77-0.33,2.42,2.42,0,0,0-1.49.56,5.12,5.12,0,0,0-1,1.12c0,2,0,2.94,0,4.9l5-.32v2.53c-4.34.29-6.51,0.42-10.85,0.68V316Z"/><path class="cls-4" d="M501.33,315.65a4.55,4.55,0,0,1-.77.6,8.13,8.13,0,0,1-1.11.58,9.07,9.07,0,0,1-1.39.47,9.2,9.2,0,0,1-1.61.25,7.62,7.62,0,0,1-2.64-.23,4.69,4.69,0,0,1-3.2-2.9,6.86,6.86,0,0,1-.43-2.51,7,7,0,0,1,.48-2.69,5.84,5.84,0,0,1,1.32-2,6.07,6.07,0,0,1,2-1.27,7.94,7.94,0,0,1,2.44-.55,7.41,7.41,0,0,1,1.81.1,4.59,4.59,0,0,1,1.72.67,3.83,3.83,0,0,1,1.28,1.41,4.89,4.89,0,0,1,.5,2.36,11.2,11.2,0,0,1-.23,2.16l-8.29.59a2.53,2.53,0,0,0,.31,1.22,2.22,2.22,0,0,0,.76.77,3.06,3.06,0,0,0,1.08.4,5.31,5.31,0,0,0,1.3.06,7,7,0,0,0,2.27-.48,5.26,5.26,0,0,0,1.44-.89Zm-5-7.85a3.94,3.94,0,0,0-1.13.24,3.44,3.44,0,0,0-1,.55,2.9,2.9,0,0,0-.7.83,2.55,2.55,0,0,0-.32,1.08l5.67-.4A2.1,2.1,0,0,0,496.36,307.8Z"/><path class="cls-4" d="M515.42,314.69a7.27,7.27,0,0,1-2.21,1.25,10.07,10.07,0,0,1-2.65.56,7.28,7.28,0,0,1-2.66-.23,4.91,4.91,0,0,1-2-1.08,4.72,4.72,0,0,1-1.21-1.83,6.9,6.9,0,0,1-.41-2.45,6.75,6.75,0,0,1,.48-2.61,6,6,0,0,1,1.35-2,6.44,6.44,0,0,1,2-1.34,8.23,8.23,0,0,1,2.55-.6,9.27,9.27,0,0,1,2.42.11,10.61,10.61,0,0,1,1.73.44c0,1.62,0,2.43,0,4l-2.53.2V307a6.37,6.37,0,0,0-1.43,0,4.51,4.51,0,0,0-1.28.29,3.45,3.45,0,0,0-1.13.71,3.63,3.63,0,0,0-.81,1.13,3.68,3.68,0,0,0-.31,1.56,3.41,3.41,0,0,0,.25,1.34,2.84,2.84,0,0,0,1.85,1.66,4,4,0,0,0,1.51.15,5.64,5.64,0,0,0,2.15-.54,9.59,9.59,0,0,0,1.25-.74Z"/><path class="cls-4" d="M524.26,303.56l4.28-.37c0,3.2,0,4.8,0,8v1l1.75-.15v2.53l-3.63.32-0.53-1.66H526a4.6,4.6,0,0,1-1.59,1.58,5.41,5.41,0,0,1-3.95.68,2.6,2.6,0,0,1-1.23-.66,3.18,3.18,0,0,1-.78-1.36,7.53,7.53,0,0,1-.28-2.23V306.6l-1.31.11v-2.53l4.3-.35v6.53a3.34,3.34,0,0,0,.45,2,1.5,1.5,0,0,0,1.41.5,2.7,2.7,0,0,0,1.53-.64,3.06,3.06,0,0,0,1-1.32V306l-1.29.11v-2.53Z"/><path class="cls-4" d="M531.36,311.91l2.85-.25c0-2.58,0-3.86,0-6.44l-2.85.25v-2.53l5.18-.47,0.34,1.49H537a7,7,0,0,1,1.47-1.4,3.93,3.93,0,0,1,1.93-.68,2.38,2.38,0,0,1,2.17.81,5.22,5.22,0,0,1,.79,3.31l-2.69.25a2.19,2.19,0,0,0-.24-1.18,0.77,0.77,0,0,0-.77-0.31,2.48,2.48,0,0,0-1.48.6,5.32,5.32,0,0,0-1,1.15v4.9l5-.46v2.53c-4.33.41-6.5,0.61-10.83,1v-2.53Z"/><path class="cls-4" d="M549.28,311.3a1.74,1.74,0,0,1,.52-1.29,2.36,2.36,0,0,1,3.21.05,3,3,0,0,1,.64,2,4.62,4.62,0,0,1-.4,1.93,5.71,5.71,0,0,1-1,1.58,6.5,6.5,0,0,1-1.44,1.15,6.42,6.42,0,0,1-1.57.68l-0.62-1.2a7.37,7.37,0,0,0,1.11-.5,5.17,5.17,0,0,0,1-.73,4.12,4.12,0,0,0,.77-1,2.66,2.66,0,0,0,.36-1.14,3,3,0,0,1-1.17.15,1.6,1.6,0,0,1-.79-0.29,1.32,1.32,0,0,1-.45-0.6A2.26,2.26,0,0,1,549.28,311.3Z"/><path class="cls-4" d="M560.17,295.58l9.08-1v2.53l-6.23.66c0,6.53,0,9.8,0,16.33l6.23-.66V316l-9.08,1C560.17,308.41,560.17,304.14,560.17,295.58Z"/><path class="cls-4" d="M573.08,299.24a6,6,0,0,1,.4-2.21,5.65,5.65,0,0,1,1.13-1.81,6.11,6.11,0,0,1,1.75-1.3,6.69,6.69,0,0,1,2.28-.66,6.48,6.48,0,0,1,2.34.12,4.22,4.22,0,0,1,1.81,1,4.46,4.46,0,0,1,1.17,1.77,7.22,7.22,0,0,1,.41,2.56,14.45,14.45,0,0,1-.69,4.68,11,11,0,0,1-1.85,3.43,9.42,9.42,0,0,1-2.7,2.29,11.72,11.72,0,0,1-3.22,1.24L575.29,308a8.77,8.77,0,0,0,2.28-.88,8.05,8.05,0,0,0,1.78-1.34,7,7,0,0,0,1.24-1.68,5.79,5.79,0,0,0,.62-1.92,4,4,0,0,1-1.24.91,5.48,5.48,0,0,1-1.81.49h0a5.35,5.35,0,0,1-1.77-.1,4.18,4.18,0,0,1-1.62-.74,4.11,4.11,0,0,1-1.18-1.42A4.54,4.54,0,0,1,573.08,299.24Zm2.89-.48a2.39,2.39,0,0,0,.24,1.11,2.15,2.15,0,0,0,.63.76,2.35,2.35,0,0,0,.91.4,3.24,3.24,0,0,0,1.07.05,4.39,4.39,0,0,0,1.63-.48,2.82,2.82,0,0,0,1-.85,6.7,6.7,0,0,0,.07-0.93,4.25,4.25,0,0,0-.18-1.24,3,3,0,0,0-.55-1,2.32,2.32,0,0,0-.92-0.67,2.55,2.55,0,0,0-1.26-.14A2.91,2.91,0,0,0,576,298.76Z"/><path class="cls-4" d="M586.86,297.67a6.05,6.05,0,0,1,.4-2.21,5.7,5.7,0,0,1,1.12-1.82,6.16,6.16,0,0,1,1.74-1.31,6.73,6.73,0,0,1,2.28-.67,6.46,6.46,0,0,1,2.34.11,4.19,4.19,0,0,1,1.81.94,4.42,4.42,0,0,1,1.17,1.77,7.2,7.2,0,0,1,.41,2.56,14.5,14.5,0,0,1-.69,4.68,11.1,11.1,0,0,1-1.85,3.45,9.51,9.51,0,0,1-2.7,2.3,11.8,11.8,0,0,1-3.21,1.26l-0.64-2.27a8.83,8.83,0,0,0,2.28-.89,8.12,8.12,0,0,0,1.78-1.35,7.06,7.06,0,0,0,1.24-1.69,5.83,5.83,0,0,0,.62-1.93,4.06,4.06,0,0,1-1.24.92,5.5,5.5,0,0,1-1.81.51h0a5.34,5.34,0,0,1-1.77-.09,4.15,4.15,0,0,1-1.62-.73,4.07,4.07,0,0,1-1.18-1.41A4.53,4.53,0,0,1,586.86,297.67Zm2.89-.5a2.38,2.38,0,0,0,.24,1.11,2.12,2.12,0,0,0,.63.75,2.33,2.33,0,0,0,.91.4,3.23,3.23,0,0,0,1.07,0,4.41,4.41,0,0,0,1.63-.5,2.85,2.85,0,0,0,1-.86,6.71,6.71,0,0,0,.07-0.93,4.23,4.23,0,0,0-.18-1.24,3,3,0,0,0-.55-1,2.3,2.3,0,0,0-.92-0.66,2.54,2.54,0,0,0-1.26-.14A2.94,2.94,0,0,0,589.75,297.17Z"/><path class="cls-4" d="M600.26,299a14.38,14.38,0,0,1,.44-3.72,8.7,8.7,0,0,1,1.23-2.76,6.14,6.14,0,0,1,1.9-1.79,6.33,6.33,0,0,1,2.46-.83,4.7,4.7,0,0,1,4.47,1.46q1.56,1.83,1.56,6.11a14.5,14.5,0,0,1-.44,3.75,8.91,8.91,0,0,1-1.23,2.78,6.08,6.08,0,0,1-1.91,1.81,6.39,6.39,0,0,1-2.47.83,4.55,4.55,0,0,1-4.47-1.59Q600.26,303.14,600.26,299Zm3-.37c0,0.23,0,.45,0,0.65s0,0.42,0,.63l5.55-5.83a2.21,2.21,0,0,0-2.57-1.65,2.88,2.88,0,0,0-2.24,1.7A10.09,10.09,0,0,0,603.24,298.68Zm6.1-.78q0-.37,0-0.7c0-.22,0-0.44,0-0.65l-5.57,5.84a2.25,2.25,0,0,0,2.57,1.77,2.91,2.91,0,0,0,2.25-1.69A10.11,10.11,0,0,0,609.34,297.9Z"/><path class="cls-4" d="M618.14,303.35a1.81,1.81,0,0,1,.52-1.31,2.15,2.15,0,0,1,1.3-.63,2,2,0,0,1,1.9.57,2.89,2.89,0,0,1,.64,2,4.73,4.73,0,0,1-.4,1.94,6,6,0,0,1-1,1.61,6.83,6.83,0,0,1-1.43,1.21,6.66,6.66,0,0,1-1.57.74l-0.62-1.18a7.64,7.64,0,0,0,1.11-.54,5.41,5.41,0,0,0,1-.77,4.33,4.33,0,0,0,.77-1,2.74,2.74,0,0,0,.36-1.15,3,3,0,0,1-1.17.19,1.54,1.54,0,0,1-.79-0.26,1.25,1.25,0,0,1-.45-0.58A2.21,2.21,0,0,1,618.14,303.35Z"/><path class="cls-4" d="M628.27,299.51a4.26,4.26,0,0,1,.26-1.51,5.45,5.45,0,0,1,.69-1.29,7.13,7.13,0,0,1,1-1.09,11.34,11.34,0,0,1,1.12-.9,5.75,5.75,0,0,1-1.9-1.31,3.06,3.06,0,0,1-.76-2.18,4.06,4.06,0,0,1,.39-1.73,5,5,0,0,1,1.09-1.51,6.23,6.23,0,0,1,1.66-1.13,7.16,7.16,0,0,1,2.08-.62,6.42,6.42,0,0,1,1.94,0,4.51,4.51,0,0,1,1.59.55,2.93,2.93,0,0,1,1.47,2.62,4.55,4.55,0,0,1-.7,2.47,7.58,7.58,0,0,1-1.91,2,5.8,5.8,0,0,1,2.19,1.37,3.29,3.29,0,0,1,.81,2.37,4.32,4.32,0,0,1-.45,1.94,5.55,5.55,0,0,1-1.2,1.61,6.78,6.78,0,0,1-1.77,1.19,7.54,7.54,0,0,1-2.16.64,6.8,6.8,0,0,1-2.13,0,4.86,4.86,0,0,1-1.72-.62,3.24,3.24,0,0,1-1.15-1.17A3.36,3.36,0,0,1,628.27,299.51Zm8.15-1.54a1.47,1.47,0,0,0-.3-0.95,2.64,2.64,0,0,0-.74-0.63,5.77,5.77,0,0,0-1-.45q-0.54-.19-1-0.39a5.47,5.47,0,0,0-1.76,1.55,2.87,2.87,0,0,0-.62,1.59,1.63,1.63,0,0,0,.73,1.5,3,3,0,0,0,2,.28,3.67,3.67,0,0,0,1.92-.81A2.11,2.11,0,0,0,636.42,298Zm-4.92-7a1.54,1.54,0,0,0,.24.9,2.07,2.07,0,0,0,.62.58,4.1,4.1,0,0,0,.86.4l1,0.32a5.24,5.24,0,0,0,.72-0.56,4.82,4.82,0,0,0,.63-0.7,4.08,4.08,0,0,0,.45-0.75,1.82,1.82,0,0,0,.17-0.75,1.49,1.49,0,0,0-.21-0.81,1.67,1.67,0,0,0-.54-0.53,2,2,0,0,0-.74-0.27,2.79,2.79,0,0,0-.85,0,2.87,2.87,0,0,0-.93.29,3.18,3.18,0,0,0-.73.52,2.21,2.21,0,0,0-.48.67A1.69,1.69,0,0,0,631.5,291Z"/><path class="cls-4" d="M652.24,305.26l-9,1.34v-2.53l6.2-.92V286.83l-6.2.92v-2.53l9-1.34C652.24,292.43,652.24,296.7,652.24,305.26Z"/><path class="cls-4" d="M666,303.14l-9,1.41V302l6.2-1V284.72l-6.2,1v-2.53l9-1.41v21.39Z"/></svg>