<svg id="Layer_1" data-name="Layer 1" xmlns="http://www.w3.org/2000/svg" viewBox="0 0 720 576"><defs><style>.cls-1,.cls-2,.cls-4,.cls-6{fill:#231f20;}.cls-1,.cls-3{stroke:#231f20;}.cls-1,.cls-6{stroke-miterlimit:10;}.cls-1,.cls-2,.cls-3{stroke-width:2px;}.cls-2{stroke:#000;}.cls-2,.cls-3{stroke-linecap:round;stroke-linejoin:round;}.cls-3,.cls-5{fill:#fff;}.cls-6{stroke:#fff;}</style></defs><title>Hanoi_Tower_Set_5</title><path class="cls-1" d="M694.39,506.49c0-.14,0-0.29,0-0.43s0-.29,0-0.43V453.84H48.59s-0.25,51.74-.25,52.22c0,2.67,2.32,5.24,6.64,7.71,15.13,8.61,55.2,16.11,111,21.48s127.37,8.59,205.39,8.59c89.16,0,169.88-4.21,228.32-11,29.22-3.41,52.87-7.46,69.23-12,8.18-2.25,14.54-4.62,18.86-7.08,3.69-2.1,5.91-4.29,6.48-6.55h0.11v-0.73Z"/><ellipse class="cls-2" cx="371.39" cy="454.92" rx="322.86" ry="37.63"/><path class="cls-3" d="M694.39,455c0-.14,0-0.29,0-0.43s0-.29,0-0.43V402.36H48.59s-0.25,51.74-.25,52.22c0,2.67,2.32,5.24,6.64,7.71,15.13,8.61,55.2,16.11,111,21.48s127.37,8.59,205.39,8.59c89.16,0,169.88-4.21,228.32-11,29.22-3.41,52.87-7.46,69.23-12,8.18-2.25,14.54-4.62,18.86-7.08,3.69-2.1,5.91-4.29,6.48-6.55h0.11V455Z"/><ellipse class="cls-3" cx="371.39" cy="403.44" rx="322.86" ry="37.63"/><path class="cls-3" d="M694.39,403.53c0-.14,0-0.29,0-0.43s0-.29,0-0.43V350.88H48.59s-0.25,51.74-.25,52.22c0,2.67,2.32,5.24,6.64,7.71,15.13,8.61,55.2,16.11,111,21.48s127.37,8.59,205.39,8.59c89.16,0,169.88-4.21,228.32-11,29.22-3.41,52.87-7.46,69.23-12,8.18-2.25,14.54-4.62,18.86-7.08,3.69-2.1,5.91-4.29,6.48-6.55h0.11v-0.73Z"/><ellipse class="cls-3" cx="371.39" cy="351.97" rx="322.86" ry="37.63"/><path class="cls-3" d="M694.39,352.06c0-.14,0-0.29,0-0.43s0-.29,0-0.43V299.4H48.59s-0.25,51.74-.25,52.22c0,2.67,2.32,5.24,6.64,7.71,15.13,8.61,55.2,16.11,111,21.48s127.37,8.59,205.39,8.59c89.16,0,169.88-4.21,228.32-11,29.22-3.41,52.87-7.46,69.23-12,8.18-2.25,14.54-4.62,18.86-7.08,3.69-2.1,5.91-4.29,6.48-6.55h0.11v-0.73Z"/><ellipse class="cls-3" cx="371.39" cy="300.49" rx="322.86" ry="37.63"/><path class="cls-4" d="M371.38,309.88c-16,0-29-3.75-30.2-8.61H341.1l0-.5V8.27h60.63v293h-0.12C400.36,306.14,387.36,309.88,371.38,309.88Z"/><path class="cls-5" d="M401.21,8.77v292h0c-0.49,4.78-13.63,8.61-29.79,8.61s-29.3-3.83-29.79-8.61h0v-0.21s0,0,0-.06,0,0,0-.06V8.77h59.63m1-1H340.58V300.39s0,0.07,0,.11v1.27h0.23c2,5.6,16.84,8.61,30.58,8.61s28.6-3,30.58-8.61h0.21l0-1V7.77h0Z"/><ellipse class="cls-6" cx="371.38" cy="8.89" rx="29.81" ry="8.89"/><path d="M61.9,447.62V445l2.81,0.53v-6.72l-2.83-.54v-2.64l2.83,0.54v-0.67a4,4,0,0,1,.39-1.87,3,3,0,0,1,1-1.15,3.45,3.45,0,0,1,1.49-.5,5.94,5.94,0,0,1,1.75.07,12.29,12.29,0,0,1,2.7.78,8.54,8.54,0,0,1,1.75,1L72.92,436a13.32,13.32,0,0,0-1.18-.7,5.78,5.78,0,0,0-1.63-.52,2,2,0,0,0-1.8.25,2.25,2.25,0,0,0-.51,1.67l5,0.93v2.64l-5-.93v6.72l5,0.93v2.64C68.46,448.86,66.27,448.45,61.9,447.62Z"/><path d="M76.64,439.17a11.46,11.46,0,0,1,2.2-.35,12.34,12.34,0,0,1,3,.22,7.35,7.35,0,0,1,2.11.67,4.5,4.5,0,0,1,1.41,1.1,4,4,0,0,1,.77,1.46,6.26,6.26,0,0,1,.24,1.77q0,1.22-.08,2.07t-0.08,1.52a10.69,10.69,0,0,0,0,1.14c0,0.22.06,0.45,0.07,0.66l1.55,0.27v2.64l-4-.7L83.52,450l-0.12,0a3.19,3.19,0,0,1-1.35,1,4.16,4.16,0,0,1-2.37.12,4.82,4.82,0,0,1-2.82-1.47,3.93,3.93,0,0,1-1-2.73,3.43,3.43,0,0,1,.37-1.67,2.38,2.38,0,0,1,1.07-1,4.32,4.32,0,0,1,1.68-.39,9.71,9.71,0,0,1,2.19.16q0.43,0.08.9,0.21l1.16,0.3a2.34,2.34,0,0,0,0-.47v-0.46a1.83,1.83,0,0,0-.52-1.4,3,3,0,0,0-1.54-.67,6.93,6.93,0,0,0-2.18-.08,12.14,12.14,0,0,0-1.63.33Zm4.05,9.54a2.59,2.59,0,0,0,1.7-.12,2.18,2.18,0,0,0,.82-0.75V446.4l-0.71-.23a8.72,8.72,0,0,0-1-.24,4.88,4.88,0,0,0-.9-0.08,2.61,2.61,0,0,0-.8.12,1.23,1.23,0,0,0-.57.37A1,1,0,0,0,79,447a1.62,1.62,0,0,0,.39,1.11A2.17,2.17,0,0,0,80.69,448.71Z"/><path d="M101.81,453.57a5.73,5.73,0,0,1-2.29.74,9.69,9.69,0,0,1-2.74-.09A8.69,8.69,0,0,1,94,453.3a7.1,7.1,0,0,1-2-1.63,6.81,6.81,0,0,1-1.25-2.22,8.16,8.16,0,0,1-.43-2.67,6.2,6.2,0,0,1,.5-2.6,4.44,4.44,0,0,1,1.39-1.75,4.91,4.91,0,0,1,2.11-.88,7.82,7.82,0,0,1,2.65,0,10.77,10.77,0,0,1,2.5.73,13.82,13.82,0,0,1,1.79.9v4.22L98.64,447v-2.21a7.4,7.4,0,0,0-1.48-.42,4.3,4.3,0,0,0-1.32,0,2.59,2.59,0,0,0-2,1.42,3.34,3.34,0,0,0-.32,1.55,4.08,4.08,0,0,0,.26,1.46A4.18,4.18,0,0,0,95.69,451a4.77,4.77,0,0,0,1.56.54,5.3,5.3,0,0,0,2.23,0,7.36,7.36,0,0,0,1.3-.46Z"/><path d="M105.87,446l-2.36-.39V443l2.36,0.39v-2.74l3.1-.38v3.62l6.26,1v2.64l-6.26-1V450a4.67,4.67,0,0,0,.69,2.79,2.86,2.86,0,0,0,1.93,1.14,4,4,0,0,0,1.17,0,3.79,3.79,0,0,0,.94-0.25,4.35,4.35,0,0,0,.76-0.41l0.63-.43,1.43,2.38a3.67,3.67,0,0,1-1,.72,7.2,7.2,0,0,1-1.31.49,7.41,7.41,0,0,1-1.47.24,6.9,6.9,0,0,1-1.5-.07,6.1,6.1,0,0,1-4-2.15,7.93,7.93,0,0,1-1.35-5V446Z"/><path d="M118.26,451.36a6.87,6.87,0,0,1,.45-2.62A4.46,4.46,0,0,1,120,447a4.56,4.56,0,0,1,2-.93,7.33,7.33,0,0,1,2.59,0,8.29,8.29,0,0,1,2.69.86,6.83,6.83,0,0,1,2,1.58,6.54,6.54,0,0,1,1.23,2.19,8.24,8.24,0,0,1,.42,2.65,6.9,6.9,0,0,1-.45,2.62,4.5,4.5,0,0,1-1.29,1.8,4.56,4.56,0,0,1-2,.94,7.27,7.27,0,0,1-2.59,0,8.23,8.23,0,0,1-2.69-.87,6.86,6.86,0,0,1-2-1.59,6.59,6.59,0,0,1-1.23-2.19A8.27,8.27,0,0,1,118.26,451.36Zm3.2,0.49a5.1,5.1,0,0,0,.21,1.5,4.31,4.31,0,0,0,.62,1.27,3.51,3.51,0,0,0,1,.93,3.36,3.36,0,0,0,1.31.48,2.67,2.67,0,0,0,2.26-.55,3.41,3.41,0,0,0,.87-2.68,4.7,4.7,0,0,0-.81-2.8,3.32,3.32,0,0,0-2.32-1.37,3.55,3.55,0,0,0-1.24,0,2,2,0,0,0-1,.51,2.64,2.64,0,0,0-.66,1.05A4.86,4.86,0,0,0,121.47,451.86Z"/><path d="M132.7,456.9l3,0.43v-6.72l-3-.43v-2.64l5.38,0.78,0.36,1.64h0.1a5.16,5.16,0,0,1,1.53-1.1,3.5,3.5,0,0,1,2-.24,3.2,3.2,0,0,1,2.26,1.37,6.39,6.39,0,0,1,.83,3.64l-2.8-.39a2.64,2.64,0,0,0-.25-1.3,1,1,0,0,0-.8-0.51,2.15,2.15,0,0,0-1.54.26,3.9,3.9,0,0,0-1,1v5.11l5.19,0.73c0,1.06,0,1.58,0,2.64-4.51-.63-6.76-0.95-11.27-1.61V456.9Z"/><path d="M147.54,459l4.21,0.57v-6.72l-4.21-.57v-2.64l7.33,1V460l4.43,0.58v2.64c-4.71-.61-7.06-0.92-11.76-1.57V459Zm3.64-12.13a1.48,1.48,0,0,1,.55-1.2,1.92,1.92,0,0,1,1.53-.32,2.67,2.67,0,0,1,1.6.74,1.89,1.89,0,0,1,.6,1.35,1.35,1.35,0,0,1-.6,1.18,2.24,2.24,0,0,1-1.6.28,2.53,2.53,0,0,1-1.53-.7A1.85,1.85,0,0,1,151.18,446.87Z"/><path d="M162.65,452.46a11.92,11.92,0,0,1,2.22-.46,12.4,12.4,0,0,1,3,.06,7.12,7.12,0,0,1,2.12.56,4.2,4.2,0,0,1,1.41,1,3.78,3.78,0,0,1,.78,1.42,6.09,6.09,0,0,1,.24,1.76q0,1.22-.08,2.08c-0.06.57-.08,1.08-0.08,1.53a10.5,10.5,0,0,0,0,1.13c0,0.22.06,0.45,0.07,0.66l1.56,0.19V465l-4-.49-0.31-1.67h-0.12A3.45,3.45,0,0,1,168.1,464a4.26,4.26,0,0,1-2.38.24,4.57,4.57,0,0,1-2.83-1.32,3.73,3.73,0,0,1-1-2.68,3.53,3.53,0,0,1,.37-1.69,2.58,2.58,0,0,1,1.07-1.06A4.54,4.54,0,0,1,165,457a9.75,9.75,0,0,1,2.2,0q0.43,0.05.91,0.16l1.17,0.24a2.36,2.36,0,0,0,0-.47v-0.46a1.73,1.73,0,0,0-.52-1.37,2.83,2.83,0,0,0-1.55-.59,7,7,0,0,0-2.19,0,12.72,12.72,0,0,0-1.64.42Zm4.08,9.32a2.67,2.67,0,0,0,1.71-.21,2.36,2.36,0,0,0,.83-0.8v-1.44l-0.71-.2a8.53,8.53,0,0,0-1-.19,4.89,4.89,0,0,0-.9,0,2.71,2.71,0,0,0-.81.16,1.33,1.33,0,0,0-.57.4,1,1,0,0,0-.21.67,1.54,1.54,0,0,0,.39,1.09A2.06,2.06,0,0,0,166.73,461.78Z"/><path d="M177,448.61l5.11,0.6c0,4.44,0,6.65,0,11.09a5.49,5.49,0,0,0,.46,2.62,1.83,1.83,0,0,0,1.46.89,3.91,3.91,0,0,0,1.22,0,4.12,4.12,0,0,0,1-.34l1.18,2.29q-0.41.22-.82,0.4a4.64,4.64,0,0,1-.86.29,5.45,5.45,0,0,1-1,.13,7.84,7.84,0,0,1-1.21-.05,5.08,5.08,0,0,1-3.38-1.54,5,5,0,0,1-1.13-3.4V451.48l-2-.24v-2.64Z"/><path d="M200.19,473.09a12.29,12.29,0,0,1-3.27-1.4,11.15,11.15,0,0,1-2.81-2.44,11.69,11.69,0,0,1-2-3.48,13.16,13.16,0,0,1-.73-4.54,11.86,11.86,0,0,1,.73-4.37,9,9,0,0,1,2-3.09,8.38,8.38,0,0,1,2.81-1.88,11,11,0,0,1,3.27-.78l0.58,2.63a9.17,9.17,0,0,0-1.91.48,6,6,0,0,0-2,1.25,6.94,6.94,0,0,0-1.62,2.33,9.22,9.22,0,0,0-.66,3.77,9.4,9.4,0,0,0,.7,3.79,9.52,9.52,0,0,0,1.69,2.67,8.71,8.71,0,0,0,2.05,1.68,9.09,9.09,0,0,0,1.78.82Z"/><path d="M209.36,466.52a5.14,5.14,0,0,0,1.47,0A3.28,3.28,0,0,0,212,466a2.22,2.22,0,0,0,.77-0.81A2.4,2.4,0,0,0,213,464a2.7,2.7,0,0,0-1-2.18,5.8,5.8,0,0,0-3.13-1.06l-0.61,0-0.66,0-0.74-.05c0-3.51,0-5.27,0-8.78l8.7,0.85v2.93l-6-.58v3.24h0.38l0.32,0,0.28,0a7.41,7.41,0,0,1,2.23.57,5.77,5.77,0,0,1,1.8,1.22,5.41,5.41,0,0,1,1.19,1.81,5.89,5.89,0,0,1,.42,2.24,5.23,5.23,0,0,1-.53,2.43,4.49,4.49,0,0,1-1.44,1.65,5.79,5.79,0,0,1-2.11.89,8.36,8.36,0,0,1-2.57.12,6.67,6.67,0,0,1-1.13-.22q-0.6-.17-1.18-0.38a11.36,11.36,0,0,1-1.07-.46q-0.49-.24-0.83-0.44l1-2.39a8,8,0,0,0,1.26.66A5.87,5.87,0,0,0,209.36,466.52Z"/><path d="M221,472.52a7.58,7.58,0,0,0,1.78-.47,6.64,6.64,0,0,0,2.06-1.28,7.27,7.27,0,0,0,1.69-2.33,8.44,8.44,0,0,0,.7-3.66,10.19,10.19,0,0,0-.66-3.9,9.08,9.08,0,0,0-1.62-2.65,8,8,0,0,0-2-1.65,11,11,0,0,0-1.91-.86l0.58-2.52a13.09,13.09,0,0,1,3.27,1.43,11.1,11.1,0,0,1,2.81,2.43,11.69,11.69,0,0,1,2,3.47,13,13,0,0,1,.73,4.52,12,12,0,0,1-.73,4.4,9,9,0,0,1-2,3.09,8.44,8.44,0,0,1-2.81,1.89,10.37,10.37,0,0,1-3.27.76Z"/><path d="M386,477v-2.64l2.84,0V467.6l-2.87,0V465l2.87,0v-0.67a4.43,4.43,0,0,1,.4-1.95,4,4,0,0,1,1-1.35,4.35,4.35,0,0,1,1.51-.8,6.3,6.3,0,0,1,1.77-.27,11.3,11.3,0,0,1,2.74.24,6.91,6.91,0,0,1,1.77.66l-0.92,2.39a10.84,10.84,0,0,0-1.19-.46,5.23,5.23,0,0,0-1.65-.19,2.37,2.37,0,0,0-1.82.61,2.62,2.62,0,0,0-.52,1.77l5.06-.06v2.64l-5.06.07v6.72l5.09-.07v2.64C392.6,476.93,390.38,477,386,477Z"/><path d="M400.88,465.62a13.48,13.48,0,0,1,2.23-.78,12.84,12.84,0,0,1,3-.37,6.65,6.65,0,0,1,2.13.26,3.48,3.48,0,0,1,1.42.82,3.15,3.15,0,0,1,.78,1.3,5.73,5.73,0,0,1,.24,1.72q0,1.22-.08,2.09t-0.08,1.54a10.14,10.14,0,0,0,0,1.13c0,0.22.06,0.44,0.07,0.65l1.57,0v2.64l-4,.09L407.84,475h-0.12a4.27,4.27,0,0,1-1.37,1.31,4.63,4.63,0,0,1-2.4.59,4,4,0,0,1-2.85-.91,3.22,3.22,0,0,1-1.05-2.53,3.85,3.85,0,0,1,.37-1.75,3.19,3.19,0,0,1,1.08-1.22,5.25,5.25,0,0,1,1.7-.73,10.1,10.1,0,0,1,2.22-.27q0.43,0,.91,0l1.17,0.07a2.49,2.49,0,0,0,0-.48v-0.46a1.5,1.5,0,0,0-.53-1.3,2.53,2.53,0,0,0-1.56-.36,7.37,7.37,0,0,0-2.2.35,14.67,14.67,0,0,0-1.65.65Zm4.1,8.73a2.67,2.67,0,0,0,2.55-1.37v-1.44l-0.71-.09a8.24,8.24,0,0,0-1,0,5,5,0,0,0-.91.1,3.05,3.05,0,0,0-.81.28,1.64,1.64,0,0,0-.57.48,1.15,1.15,0,0,0-.21.7,1.35,1.35,0,0,0,.39,1A1.83,1.83,0,0,0,405,474.35Z"/><path d="M426.33,475a7.15,7.15,0,0,1-2.31,1.19,10.28,10.28,0,0,1-2.77.45,7.78,7.78,0,0,1-2.78-.38,5.47,5.47,0,0,1-2-1.23,5.26,5.26,0,0,1-1.27-2,7.34,7.34,0,0,1-.43-2.58,6.84,6.84,0,0,1,.51-2.7,5.86,5.86,0,0,1,1.41-2,6.3,6.3,0,0,1,2.13-1.29,8.4,8.4,0,0,1,2.68-.5,9.84,9.84,0,0,1,2.53.24,11.42,11.42,0,0,1,1.81.54c0,1.69,0,2.53,0,4.22l-2.65.08v-2.21a6.81,6.81,0,0,0-1.49-.12,4.61,4.61,0,0,0-1.34.24,3.39,3.39,0,0,0-1.18.68,3.52,3.52,0,0,0-.84,1.14,3.72,3.72,0,0,0-.33,1.62,3.65,3.65,0,0,0,.26,1.41,3.24,3.24,0,0,0,.75,1.11,3.29,3.29,0,0,0,1.19.72,4.26,4.26,0,0,0,1.58.23,5.75,5.75,0,0,0,2.25-.45,9.33,9.33,0,0,0,1.31-.71Z"/><path d="M430.42,466.69l-2.39.08v-2.64l2.39-.08v-2.74l3.13-1v3.62l6.31-.24v2.64l-6.31.24V470a4,4,0,0,0,.7,2.65,2.33,2.33,0,0,0,2,.76,4.22,4.22,0,0,0,1.18-.2,4.63,4.63,0,0,0,1-.43,5.73,5.73,0,0,0,.77-0.56l0.64-.55,1.44,2.1a4.87,4.87,0,0,1-1,.92,9.13,9.13,0,0,1-1.33.75,8.62,8.62,0,0,1-1.48.53,7.21,7.21,0,0,1-1.52.23,5,5,0,0,1-4.06-1.35q-1.36-1.45-1.36-4.72v-3.43Z"/><path d="M442.93,469.57a7.54,7.54,0,0,1,.46-2.71,5.84,5.84,0,0,1,1.3-2,5.91,5.91,0,0,1,2-1.32,7.93,7.93,0,0,1,2.61-.54,7.44,7.44,0,0,1,2.71.33,5.25,5.25,0,0,1,2,1.19,5.05,5.05,0,0,1,1.24,1.94,7.45,7.45,0,0,1,.42,2.57,7.55,7.55,0,0,1-.46,2.71,5.79,5.79,0,0,1-3.31,3.39,7.86,7.86,0,0,1-2.61.54,7.38,7.38,0,0,1-2.71-.33,5.26,5.26,0,0,1-2-1.2,5.09,5.09,0,0,1-1.24-2A7.47,7.47,0,0,1,442.93,469.57Zm3.23-.14a4.66,4.66,0,0,0,.22,1.45A3.4,3.4,0,0,0,447,472a2.65,2.65,0,0,0,1,.74,3,3,0,0,0,1.33.22,3.2,3.2,0,0,0,2.28-1,4.86,4.86,0,0,0,.06-5.49,2.7,2.7,0,0,0-2.34-.91,3.84,3.84,0,0,0-1.25.26,2.62,2.62,0,0,0-1,.71,3.41,3.41,0,0,0-.66,1.18A5.25,5.25,0,0,0,446.16,469.43Z"/><path d="M457.48,472.25l3-.15v-6.72l-3,.15v-2.64l5.42-.28,0.36,1.56h0.1a6.91,6.91,0,0,1,1.54-1.4,4,4,0,0,1,2-.64,2.59,2.59,0,0,1,2.28.93,5.56,5.56,0,0,1,.83,3.48l-2.82.16a2.33,2.33,0,0,0-.25-1.25,0.83,0.83,0,0,0-.81-0.35,2.51,2.51,0,0,0-1.55.57,5.23,5.23,0,0,0-1,1.16v5.11l5.23-.29c0,1.06,0,1.58,0,2.64-4.54.26-6.8,0.38-11.34,0.62v-2.64Z"/><path d="M472.41,471.43l4.24-.26v-6.72l-4.24.26v-2.64l7.37-.46c0,3.74,0,5.62,0,9.36l4.45-.29v2.64c-4.73.32-7.09,0.47-11.82,0.75v-2.64Zm3.66-12.85a1.81,1.81,0,0,1,.55-1.31,2.28,2.28,0,0,1,1.54-.63,2.24,2.24,0,0,1,1.61.43,1.52,1.52,0,0,1,.6,1.23,1.67,1.67,0,0,1-.6,1.3,2.61,2.61,0,0,1-1.61.6,2.13,2.13,0,0,1-1.54-.4A1.51,1.51,0,0,1,476.07,458.58Z"/><path d="M487.59,461.9a14.16,14.16,0,0,1,2.23-.9,13.09,13.09,0,0,1,3-.53,6.52,6.52,0,0,1,2.13.14,3.25,3.25,0,0,1,1.42.75,2.94,2.94,0,0,1,.78,1.26,5.62,5.62,0,0,1,.24,1.71q0,1.22-.08,2.09T497.22,468a10.14,10.14,0,0,0,0,1.12c0,0.22.06,0.44,0.07,0.64l1.56-.12v2.64l-4,.3L494.55,471h-0.12a4.61,4.61,0,0,1-1.36,1.38,4.81,4.81,0,0,1-2.39.71,3.83,3.83,0,0,1-2.85-.76,3.06,3.06,0,0,1-1.05-2.47,4,4,0,0,1,.37-1.77,3.44,3.44,0,0,1,1.08-1.27,5.55,5.55,0,0,1,1.7-.82,10.29,10.29,0,0,1,2.21-.38,9.07,9.07,0,0,1,.91,0h1.17a2.54,2.54,0,0,0,0-.48v-0.46a1.43,1.43,0,0,0-.52-1.27,2.45,2.45,0,0,0-1.55-.28,7.55,7.55,0,0,0-2.2.47,15.49,15.49,0,0,0-1.65.74Zm4.1,8.52a3,3,0,0,0,1.71-.54,3.14,3.14,0,0,0,.83-1v-1.44l-0.71-.06a8.2,8.2,0,0,0-1,0,5.13,5.13,0,0,0-.9.15,3.21,3.21,0,0,0-.81.32,1.77,1.77,0,0,0-.57.51,1.2,1.2,0,0,0-.21.71,1.28,1.28,0,0,0,.39,1A1.76,1.76,0,0,0,491.69,470.42Z"/><path d="M502,455.23l5.12-.41v11.09a4.91,4.91,0,0,0,.46,2.53,1.48,1.48,0,0,0,1.47.6,4.19,4.19,0,0,0,1.23-.26,5.13,5.13,0,0,0,1-.52l1.18,2.06q-0.41.3-.82,0.56a5.75,5.75,0,0,1-.87.46,6.26,6.26,0,0,1-1,.32,8.18,8.18,0,0,1-1.21.18,4.25,4.25,0,0,1-3.39-.88A4.15,4.15,0,0,1,504,467.8V457.72l-2,.16v-2.64Z"/><path d="M516.17,473.67c4.27-.37,6.4-0.56,10.67-1v2.57c-4.27.4-6.4,0.59-10.67,1v-2.57Z"/><path d="M528.71,452.93l4.85-.46v6.14h0.1a4.67,4.67,0,0,1,1.54-1.37,5.61,5.61,0,0,1,2.26-.68,5.48,5.48,0,0,1,1.68.07,2.81,2.81,0,0,1,1.32.66,3.28,3.28,0,0,1,.86,1.41,7.25,7.25,0,0,1,.31,2.31v7.46l-3.12.32V462a2.74,2.74,0,0,0-.62-2,2,2,0,0,0-1.63-.49,3,3,0,0,0-1.63.7,3.37,3.37,0,0,0-1.06,1.48v7.66l-3.12.3V455.41l-1.73.16v-2.64Z"/><path d="M555.94,465.67a5,5,0,0,1-.8.65A8.77,8.77,0,0,1,554,467a9.79,9.79,0,0,1-3.13.87,7.85,7.85,0,0,1-2.75-.14,4.65,4.65,0,0,1-3.34-2.9,7,7,0,0,1-.44-2.61,7.46,7.46,0,0,1,.5-2.82,6.4,6.4,0,0,1,1.38-2.12,6.66,6.66,0,0,1,2.05-1.4,8.5,8.5,0,0,1,2.54-.67,7.7,7.7,0,0,1,1.88,0,4.59,4.59,0,0,1,1.79.63,3.78,3.78,0,0,1,1.33,1.42,5,5,0,0,1,.52,2.44,11.82,11.82,0,0,1-.24,2.26l-8.64.93a2.56,2.56,0,0,0,.32,1.26,2.21,2.21,0,0,0,.79.78,3.09,3.09,0,0,0,1.13.37,5.55,5.55,0,0,0,1.36,0,7.43,7.43,0,0,0,2.36-.59,5.77,5.77,0,0,0,1.5-1Zm-5.18-8a4.24,4.24,0,0,0-1.18.3,3.75,3.75,0,0,0-1,.61,3.21,3.21,0,0,0-.73.9,2.76,2.76,0,0,0-.34,1.14l5.91-.63a2.39,2.39,0,0,0-.66-1.82A2.42,2.42,0,0,0,550.76,457.67Z"/><path d="M559.61,449.74l5.11-.59v11.09a4.82,4.82,0,0,0,.46,2.52,1.42,1.42,0,0,0,1.46.55,4.26,4.26,0,0,0,1.22-.3,5.34,5.34,0,0,0,1-.56l1.18,2q-0.41.31-.82,0.59a6,6,0,0,1-.86.49,6.42,6.42,0,0,1-1,.36,8.28,8.28,0,0,1-1.21.23,4.14,4.14,0,0,1-3.38-.76,4,4,0,0,1-1.13-3.13c0-4,0-6,0-10.08l-2,.23v-2.64Z"/><path d="M571.91,453.1l4.08-.5,0.36,1.4h0.1a5.27,5.27,0,0,1,4-2.28,5.5,5.5,0,0,1,2,.09,3.34,3.34,0,0,1,1.58.89,4.37,4.37,0,0,1,1,1.74,8.55,8.55,0,0,1,.36,2.67,9.35,9.35,0,0,1-.41,2.82,6.92,6.92,0,0,1-1.17,2.25,6,6,0,0,1-1.87,1.56,7.1,7.1,0,0,1-2.52.77,9.77,9.77,0,0,1-1.46.07,3.7,3.7,0,0,1-1.2-.2v4.92l-3.12.38V455.52l-1.8.22V453.1Zm7.62,1.37a3.54,3.54,0,0,0-1.67.66,2.81,2.81,0,0,0-1,1.5v5a2.26,2.26,0,0,0,1,.3,5.2,5.2,0,0,0,1.28,0,3.64,3.64,0,0,0,1.25-.38,3.05,3.05,0,0,0,1-.86,4.14,4.14,0,0,0,.67-1.36,6.59,6.59,0,0,0,.24-1.88,3.2,3.2,0,0,0-.77-2.35A2.21,2.21,0,0,0,579.54,454.47Z"/><path d="M599.08,460.32a5.17,5.17,0,0,1-.8.67,9,9,0,0,1-1.15.67,10.07,10.07,0,0,1-1.45.58,9.9,9.9,0,0,1-1.68.37,7.78,7.78,0,0,1-2.74-.07,4.48,4.48,0,0,1-3.33-2.81,7,7,0,0,1-.44-2.59,7.57,7.57,0,0,1,.5-2.84,6.63,6.63,0,0,1,1.38-2.16,6.89,6.89,0,0,1,2-1.46A8.64,8.64,0,0,1,594,450a7.67,7.67,0,0,1,1.88,0,4.47,4.47,0,0,1,1.78.59,3.63,3.63,0,0,1,1.33,1.39,4.92,4.92,0,0,1,.52,2.43,12,12,0,0,1-.24,2.27l-8.62,1.16a2.51,2.51,0,0,0,.32,1.25,2.12,2.12,0,0,0,.79.76,3,3,0,0,0,1.13.34,5.53,5.53,0,0,0,1.35,0,7.54,7.54,0,0,0,2.36-.65,6,6,0,0,0,1.5-1Zm-5.17-7.87a4.3,4.3,0,0,0-1.17.33,3.87,3.87,0,0,0-1,.63,3.33,3.33,0,0,0-.73.92,2.82,2.82,0,0,0-.34,1.14l5.89-.79a2.33,2.33,0,0,0-.66-1.81A2.37,2.37,0,0,0,593.91,452.46Z"/><path d="M601.59,458.61l3-.41v-6.72l-3,.41v-2.64l5.38-.76,0.36,1.53h0.1a7.85,7.85,0,0,1,1.53-1.54,4.29,4.29,0,0,1,2-.82,2.37,2.37,0,0,1,2.26.73,5.26,5.26,0,0,1,.83,3.41l-2.8.41A2.22,2.22,0,0,0,611,451a0.76,0.76,0,0,0-.8-0.28,2.72,2.72,0,0,0-1.54.7,5.94,5.94,0,0,0-1,1.25v5.11l5.19-.75v2.64c-4.51.66-6.76,1-11.27,1.6v-2.64Z"/><path d="M625.89,462.78a9.89,9.89,0,0,1-3.25-.56,7.71,7.71,0,0,1-2.8-1.71,8.33,8.33,0,0,1-1.95-3,11.65,11.65,0,0,1-.73-4.36,13.48,13.48,0,0,1,.73-4.56,12.67,12.67,0,0,1,1.95-3.59,12.11,12.11,0,0,1,2.8-2.61,13.92,13.92,0,0,1,3.25-1.63l0.57,2.48a11.72,11.72,0,0,0-1.9,1,8.67,8.67,0,0,0-2,1.77,9.83,9.83,0,0,0-1.61,2.75,10.55,10.55,0,0,0-.66,3.94,8.19,8.19,0,0,0,.69,3.62,6.65,6.65,0,0,0,1.69,2.23,6.08,6.08,0,0,0,2,1.15,7.2,7.2,0,0,0,1.77.36Z"/><path d="M631.89,454.12l3.65-.58V443.05L632.39,446,631,444.28l5.44-5,2.1-.34v14.16l3.58-.58v2.64c-4.08.67-6.12,1-10.2,1.64v-2.64Z"/><path d="M648.89,452.45a2,2,0,0,1,.54-1.39,2.33,2.33,0,0,1,1.35-.71,2,2,0,0,1,2,.53,2.93,2.93,0,0,1,.67,2,5.06,5.06,0,0,1-.42,2,6.58,6.58,0,0,1-1.08,1.72,7.53,7.53,0,0,1-1.49,1.31,7.25,7.25,0,0,1-1.63.83l-0.64-1.21a8.3,8.3,0,0,0,1.16-.6,5.92,5.92,0,0,0,1.06-.84,4.71,4.71,0,0,0,.8-1.06,3,3,0,0,0,.37-1.22,3.19,3.19,0,0,1-1.22.24,1.56,1.56,0,0,1-.82-0.24,1.24,1.24,0,0,1-.46-0.59A2.3,2.3,0,0,1,648.89,452.45Z"/><path d="M663.64,449a5.8,5.8,0,0,0,1.45-.45,4.53,4.53,0,0,0,1.16-.76,3.32,3.32,0,0,0,.76-1,2.88,2.88,0,0,0,.27-1.25,2,2,0,0,0-1-1.89,4.86,4.86,0,0,0-3.11-.2l-0.61.12-0.66.15-0.74.15v-8.78l8.62-1.54v2.93l-6,1.07v3.24l0.38-.09,0.32-.07,0.27-.06a6.63,6.63,0,0,1,2.22,0,4.07,4.07,0,0,1,1.79.72A3.66,3.66,0,0,1,670,442.7a5.08,5.08,0,0,1,.42,2.12,6.22,6.22,0,0,1-.52,2.58,6.66,6.66,0,0,1-1.43,2,8.1,8.1,0,0,1-2.1,1.47,9.53,9.53,0,0,1-2.55.83,6.27,6.27,0,0,1-1.12.09q-0.6,0-1.17-.06a9.16,9.16,0,0,1-1.06-.16,8.28,8.28,0,0,1-.82-0.22l1-2.67a6.05,6.05,0,0,0,1.25.31A5.23,5.23,0,0,0,663.64,449Z"/><path d="M675.14,451.82a9.88,9.88,0,0,0,1.76-1,9.75,9.75,0,0,0,2-1.84,10.61,10.61,0,0,0,1.68-2.8,9.88,9.88,0,0,0,.69-3.85,8.91,8.91,0,0,0-.65-3.72,6.2,6.2,0,0,0-1.61-2.21,5.4,5.4,0,0,0-2-1.09,8.62,8.62,0,0,0-1.89-.33l0.57-2.67a10.29,10.29,0,0,1,3.24.53,7.46,7.46,0,0,1,2.78,1.66,8.14,8.14,0,0,1,1.94,2.93,11.5,11.5,0,0,1,.72,4.31,13.79,13.79,0,0,1-.72,4.6,13,13,0,0,1-1.94,3.63,12.47,12.47,0,0,1-2.78,2.66,13.28,13.28,0,0,1-3.24,1.66Z"/><path d="M61.9,395.75v-2.64l2.81,0.53v-6.72l-2.83-.54v-2.64l2.83,0.54v-0.67a4,4,0,0,1,.39-1.87,3,3,0,0,1,1-1.15,3.45,3.45,0,0,1,1.49-.5,5.94,5.94,0,0,1,1.75.07,12.29,12.29,0,0,1,2.7.78,8.53,8.53,0,0,1,1.75,1l-0.9,2.21a13.35,13.35,0,0,0-1.18-.7,5.78,5.78,0,0,0-1.63-.52,2,2,0,0,0-1.8.25,2.25,2.25,0,0,0-.51,1.67l5,0.93v2.64l-5-.93v6.72l5,0.93v2.64C68.46,397,66.27,396.59,61.9,395.75Z"/><path d="M76.64,387.31a11.46,11.46,0,0,1,2.2-.35,12.34,12.34,0,0,1,3,.22,7.35,7.35,0,0,1,2.11.67,4.5,4.5,0,0,1,1.41,1.1,4,4,0,0,1,.77,1.46,6.26,6.26,0,0,1,.24,1.77q0,1.22-.08,2.07t-0.08,1.52a10.69,10.69,0,0,0,0,1.14c0,0.22.06,0.45,0.07,0.66l1.55,0.27v2.64l-4-.7-0.31-1.69-0.12,0a3.19,3.19,0,0,1-1.35,1,4.16,4.16,0,0,1-2.37.12,4.82,4.82,0,0,1-2.82-1.47,3.93,3.93,0,0,1-1-2.73,3.43,3.43,0,0,1,.37-1.67,2.38,2.38,0,0,1,1.06-1,4.32,4.32,0,0,1,1.68-.39,9.7,9.7,0,0,1,2.19.16q0.43,0.08.9,0.21l1.16,0.3a2.33,2.33,0,0,0,0-.47v-0.46a1.83,1.83,0,0,0-.52-1.4,3,3,0,0,0-1.54-.67,6.93,6.93,0,0,0-2.18-.08,12.14,12.14,0,0,0-1.63.33Zm4.05,9.54a2.59,2.59,0,0,0,1.7-.12,2.18,2.18,0,0,0,.82-0.75v-1.44l-0.71-.23a8.72,8.72,0,0,0-1-.24,4.88,4.88,0,0,0-.9-0.08,2.61,2.61,0,0,0-.8.12,1.23,1.23,0,0,0-.57.37,1,1,0,0,0-.21.66,1.62,1.62,0,0,0,.39,1.11A2.17,2.17,0,0,0,80.69,396.85Z"/><path d="M101.81,401.71a5.73,5.73,0,0,1-2.29.74,9.69,9.69,0,0,1-2.74-.09,8.69,8.69,0,0,1-2.75-.92,7.1,7.1,0,0,1-2-1.63,6.81,6.81,0,0,1-1.25-2.22,8.16,8.16,0,0,1-.43-2.67,6.2,6.2,0,0,1,.5-2.6,4.45,4.45,0,0,1,1.39-1.75,4.91,4.91,0,0,1,2.11-.88,7.82,7.82,0,0,1,2.65,0,10.77,10.77,0,0,1,2.51.73,13.82,13.82,0,0,1,1.79.9v4.22l-2.62-.44v-2.21a7.4,7.4,0,0,0-1.48-.42,4.31,4.31,0,0,0-1.32,0,2.59,2.59,0,0,0-2,1.42,3.34,3.34,0,0,0-.32,1.55,4.08,4.08,0,0,0,.26,1.46,4.18,4.18,0,0,0,1.92,2.21,4.77,4.77,0,0,0,1.56.54,5.3,5.3,0,0,0,2.23,0,7.36,7.36,0,0,0,1.3-.46Z"/><path d="M105.87,394.17l-2.36-.39v-2.64l2.36,0.39v-2.74l3.1-.38V392l6.26,1v2.64l-6.26-1v3.43a4.67,4.67,0,0,0,.69,2.79A2.86,2.86,0,0,0,111.6,402a4,4,0,0,0,1.17,0,3.79,3.79,0,0,0,.94-0.25,4.35,4.35,0,0,0,.76-0.41l0.63-.43,1.43,2.38a3.67,3.67,0,0,1-1,.72,7.21,7.21,0,0,1-1.31.49,7.38,7.38,0,0,1-1.47.24,6.88,6.88,0,0,1-1.5-.07,6.1,6.1,0,0,1-4-2.15,7.93,7.93,0,0,1-1.35-5v-3.43Z"/><path d="M118.26,399.5a6.87,6.87,0,0,1,.45-2.62,4.46,4.46,0,0,1,1.29-1.79,4.56,4.56,0,0,1,2-.93,7.33,7.33,0,0,1,2.59,0,8.29,8.29,0,0,1,2.69.86,6.83,6.83,0,0,1,2,1.58,6.55,6.55,0,0,1,1.23,2.19,8.24,8.24,0,0,1,.42,2.65,6.9,6.9,0,0,1-.45,2.62,4.5,4.5,0,0,1-1.29,1.8,4.55,4.55,0,0,1-2,.94,7.27,7.27,0,0,1-2.59,0,8.23,8.23,0,0,1-2.69-.87,6.84,6.84,0,0,1-2-1.59,6.58,6.58,0,0,1-1.23-2.19A8.27,8.27,0,0,1,118.26,399.5Zm3.2,0.49a5.1,5.1,0,0,0,.21,1.5,4.31,4.31,0,0,0,.62,1.27,3.51,3.51,0,0,0,1,.93,3.36,3.36,0,0,0,1.31.48,2.67,2.67,0,0,0,2.26-.55,3.41,3.41,0,0,0,.87-2.68,4.7,4.7,0,0,0-.81-2.8,3.32,3.32,0,0,0-2.32-1.37,3.55,3.55,0,0,0-1.24,0,2,2,0,0,0-1,.51,2.64,2.64,0,0,0-.66,1.05A4.86,4.86,0,0,0,121.46,400Z"/><path d="M132.7,405l3,0.43v-6.72l-3-.43v-2.64l5.38,0.78,0.36,1.64h0.1a5.16,5.16,0,0,1,1.53-1.1,3.5,3.5,0,0,1,2-.24,3.2,3.2,0,0,1,2.26,1.37,6.39,6.39,0,0,1,.83,3.64l-2.8-.39a2.64,2.64,0,0,0-.25-1.3,1,1,0,0,0-.8-0.51,2.15,2.15,0,0,0-1.54.26,3.91,3.91,0,0,0-1,1v5.11l5.19,0.73v2.64c-4.51-.63-6.76-0.95-11.27-1.61V405Z"/><path d="M147.54,407.14l4.21,0.57V401l-4.21-.57v-2.64l7.33,1v9.36l4.43,0.58v2.64c-4.71-.61-7.06-0.92-11.76-1.57v-2.64ZM151.17,395a1.48,1.48,0,0,1,.55-1.2,1.92,1.92,0,0,1,1.53-.32,2.67,2.67,0,0,1,1.6.74,1.89,1.89,0,0,1,.6,1.35,1.35,1.35,0,0,1-.6,1.18,2.24,2.24,0,0,1-1.6.28,2.53,2.53,0,0,1-1.53-.7A1.85,1.85,0,0,1,151.17,395Z"/><path d="M162.65,400.6a11.93,11.93,0,0,1,2.22-.46,12.4,12.4,0,0,1,3,.06,7.12,7.12,0,0,1,2.12.56,4.2,4.2,0,0,1,1.41,1,3.78,3.78,0,0,1,.78,1.42,6.09,6.09,0,0,1,.24,1.76q0,1.22-.08,2.08c-0.06.57-.08,1.08-0.08,1.53a10.5,10.5,0,0,0,0,1.13c0,0.22.06,0.45,0.07,0.66l1.56,0.19v2.64l-4-.49L169.57,411h-0.12a3.45,3.45,0,0,1-1.36,1.12,4.26,4.26,0,0,1-2.38.24,4.57,4.57,0,0,1-2.83-1.32,3.73,3.73,0,0,1-1-2.68,3.53,3.53,0,0,1,.37-1.69,2.58,2.58,0,0,1,1.07-1.06,4.54,4.54,0,0,1,1.69-.48,9.75,9.75,0,0,1,2.2,0q0.43,0.05.91,0.16l1.17,0.24a2.36,2.36,0,0,0,0-.47v-0.46a1.73,1.73,0,0,0-.52-1.37,2.83,2.83,0,0,0-1.55-.59,7,7,0,0,0-2.19,0,12.72,12.72,0,0,0-1.64.42Zm4.08,9.32a2.67,2.67,0,0,0,1.71-.21,2.36,2.36,0,0,0,.83-0.8v-1.44l-0.71-.2a8.54,8.54,0,0,0-1-.19,4.89,4.89,0,0,0-.9,0,2.71,2.71,0,0,0-.81.16,1.33,1.33,0,0,0-.57.4,1,1,0,0,0-.21.67,1.54,1.54,0,0,0,.39,1.09A2.06,2.06,0,0,0,166.73,409.92Z"/><path d="M177,396.74l5.11,0.6c0,4.44,0,6.65,0,11.09a5.49,5.49,0,0,0,.46,2.62,1.83,1.83,0,0,0,1.46.89,3.91,3.91,0,0,0,1.22,0,4.12,4.12,0,0,0,1-.34l1.18,2.29q-0.41.22-.82,0.4a4.64,4.64,0,0,1-.86.29,5.45,5.45,0,0,1-1,.13,7.84,7.84,0,0,1-1.21-.05,5.08,5.08,0,0,1-3.38-1.54,5,5,0,0,1-1.13-3.4V399.62l-2-.24v-2.64Z"/><path d="M191.14,418c4.26,0.47,6.39.7,10.66,1.14v2.57c-4.26-.44-6.4-0.67-10.66-1.14V418Z"/><path d="M203.67,399.7l4.85,0.49v6.14h0.1a3.53,3.53,0,0,1,1.54-1.07,5,5,0,0,1,2.26-.24,5.94,5.94,0,0,1,1.68.4,3.62,3.62,0,0,1,1.32.92,4.21,4.21,0,0,1,.87,1.58,7.86,7.86,0,0,1,.31,2.37v7.46l-3.12-.3v-6.82a3.21,3.21,0,0,0-.62-2.17,2.4,2.4,0,0,0-1.63-.81,2.53,2.53,0,0,0-1.63.38,2.56,2.56,0,0,0-1.06,1.28V417l-3.12-.31V402.52l-1.73-.18V399.7Z"/><path d="M230.91,417.8a3.75,3.75,0,0,1-.81.5,7,7,0,0,1-1.15.42,8.43,8.43,0,0,1-1.45.26,9.25,9.25,0,0,1-1.68,0,8.57,8.57,0,0,1-2.75-.68,6.13,6.13,0,0,1-3.34-3.56,7.73,7.73,0,0,1-.44-2.69,6.71,6.71,0,0,1,.5-2.73,4.87,4.87,0,0,1,1.38-1.85,5.18,5.18,0,0,1,2.06-1,7.76,7.76,0,0,1,2.55-.17,8.25,8.25,0,0,1,1.89.41,5.72,5.72,0,0,1,1.79,1,5,5,0,0,1,1.33,1.69,5.62,5.62,0,0,1,.52,2.54,11.13,11.13,0,0,1-.24,2.21l-8.65-.77a2.83,2.83,0,0,0,1.12,2.26,3.8,3.8,0,0,0,1.13.59,5.89,5.89,0,0,0,1.36.28,6.81,6.81,0,0,0,2.37-.13,4.51,4.51,0,0,0,1.5-.68Zm-5.19-9a3.89,3.89,0,0,0-1.18.07,3,3,0,0,0-1,.41,2.4,2.4,0,0,0-.73.75,2.34,2.34,0,0,0-.34,1.07l5.91,0.53a2.86,2.86,0,0,0-.66-2A2.89,2.89,0,0,0,225.72,408.78Z"/><path d="M234.59,402.58l5.12,0.42v11.09a5.36,5.36,0,0,0,.46,2.61,1.76,1.76,0,0,0,1.47.84,3.93,3.93,0,0,0,1.23-.06,4.27,4.27,0,0,0,1-.37l1.18,2.25q-0.41.23-.82,0.43a4.81,4.81,0,0,1-.87.32,5.6,5.6,0,0,1-1,.16,7.9,7.9,0,0,1-1.21,0,4.91,4.91,0,0,1-3.39-1.43,4.8,4.8,0,0,1-1.13-3.36V405.39l-2-.17v-2.64Z"/><path d="M246.93,408.37l4.09,0.31,0.36,1.47h0.1a4.29,4.29,0,0,1,4-1.48,6,6,0,0,1,2,.49,4.38,4.38,0,0,1,1.59,1.2,5.6,5.6,0,0,1,1,1.94,9.2,9.2,0,0,1,.36,2.74,8.55,8.55,0,0,1-.41,2.74,5.4,5.4,0,0,1-1.18,2,4.6,4.6,0,0,1-1.88,1.19,6.36,6.36,0,0,1-2.53.28,10.12,10.12,0,0,1-1.47-.21,4.3,4.3,0,0,1-1.2-.44v4.92l-3.13-.23V411.14l-1.8-.14v-2.64Zm7.65,2.87a3,3,0,0,0-1.67.34,2.14,2.14,0,0,0-1,1.29v5a2.79,2.79,0,0,0,1,.49,5.54,5.54,0,0,0,1.29.25,3.26,3.26,0,0,0,1.25-.14,2.32,2.32,0,0,0,1-.66,3.25,3.25,0,0,0,.67-1.23,6.07,6.07,0,0,0,.24-1.83,3.77,3.77,0,0,0-.77-2.5A2.7,2.7,0,0,0,254.58,411.24Z"/><path d="M274.22,421a3.92,3.92,0,0,1-.81.52,7.25,7.25,0,0,1-1.15.45,8.59,8.59,0,0,1-1.46.3,9.29,9.29,0,0,1-1.69,0,8.44,8.44,0,0,1-2.76-.61,5.91,5.91,0,0,1-3.35-3.47,7.63,7.63,0,0,1-.44-2.68,6.8,6.8,0,0,1,.51-2.74,5.06,5.06,0,0,1,1.38-1.89,5.35,5.35,0,0,1,2.06-1.05,7.83,7.83,0,0,1,2.55-.23,8.16,8.16,0,0,1,1.89.36,5.55,5.55,0,0,1,1.79.94,4.85,4.85,0,0,1,1.34,1.65,5.52,5.52,0,0,1,.52,2.53,11.17,11.17,0,0,1-.24,2.22l-8.67-.54A2.88,2.88,0,0,0,266,418a2.83,2.83,0,0,0,.79.92,3.71,3.71,0,0,0,1.13.56,5.85,5.85,0,0,0,1.36.24,6.87,6.87,0,0,0,2.37-.19,4.66,4.66,0,0,0,1.5-.72Zm-5.2-8.89a3.92,3.92,0,0,0-1.18.1,3.06,3.06,0,0,0-1,.44,2.5,2.5,0,0,0-.73.77,2.39,2.39,0,0,0-.34,1.08l5.92,0.37a2.78,2.78,0,0,0-.66-1.94A2.82,2.82,0,0,0,269,412.06Z"/><path d="M276.74,419.73l3,0.17v-6.72l-3-.17v-2.64l5.42,0.31,0.36,1.6h0.1a5.89,5.89,0,0,1,1.54-1.24,3.69,3.69,0,0,1,2-.42,2.9,2.9,0,0,1,2.28,1.17,6,6,0,0,1,.83,3.57l-2.82-.14a2.49,2.49,0,0,0-.25-1.27,0.94,0.94,0,0,0-.81-0.44,2.29,2.29,0,0,0-1.55.4,4.45,4.45,0,0,0-1,1.05v5.11l5.23,0.28V423c-4.54-.23-6.81-0.36-11.34-0.62v-2.64Z"/><path d="M301.21,428.7a11.6,11.6,0,0,1-3.28-1.2,10.21,10.21,0,0,1-2.82-2.27,10.8,10.8,0,0,1-2-3.36,12.73,12.73,0,0,1-.73-4.5,12.18,12.18,0,0,1,.73-4.42,9.82,9.82,0,0,1,2-3.21,9.15,9.15,0,0,1,2.82-2.05,11.53,11.53,0,0,1,3.28-1l0.58,2.59a9.67,9.67,0,0,0-1.92.6,6.58,6.58,0,0,0-2,1.37,7.54,7.54,0,0,0-1.63,2.43,9.49,9.49,0,0,0-.66,3.81,9.07,9.07,0,0,0,.7,3.75,8.76,8.76,0,0,0,1.7,2.56A8,8,0,0,0,300,425.4a8.56,8.56,0,0,0,1.78.71Z"/><path d="M307.26,421.22l3.69,0.14V410.88l-3.18,2.3-1.45-2,5.49-4,2.12,0.08v14.16l3.61,0.12v2.64c-4.12-.14-6.17-0.21-10.29-0.38v-2.64Z"/><path d="M324.42,422.92a1.59,1.59,0,0,1,.54-1.28,1.93,1.93,0,0,1,1.36-.44,2.45,2.45,0,0,1,2,.92,3.45,3.45,0,0,1,.67,2.15,4.46,4.46,0,0,1-.42,2,5,5,0,0,1-1.1,1.51,5.7,5.7,0,0,1-1.51,1,6,6,0,0,1-1.65.5l-0.65-1.34a6.86,6.86,0,0,0,1.17-.37,4.55,4.55,0,0,0,1.07-.63,3.55,3.55,0,0,0,.81-0.9,2.49,2.49,0,0,0,.37-1.14,3.08,3.08,0,0,1-1.23,0,1.93,1.93,0,0,1-.83-0.41,1.64,1.64,0,0,1-.47-0.69A2.51,2.51,0,0,1,324.42,422.92Z"/><path d="M339.33,422.4a5.27,5.27,0,0,0,1.47-.16,3.59,3.59,0,0,0,1.17-.53,2.44,2.44,0,0,0,1-2.07,2.47,2.47,0,0,0-1-2.1,5.47,5.47,0,0,0-3.15-.82h-0.61l-0.66,0H336.8V408l8.73,0.17v2.93l-6-.11v3.24l0.39,0h0.6a7.1,7.1,0,0,1,2.24.39,5.21,5.21,0,0,1,1.81,1.08,4.84,4.84,0,0,1,1.19,1.71,5.62,5.62,0,0,1,.42,2.2,5.47,5.47,0,0,1-.53,2.48,5,5,0,0,1-1.45,1.76,6.35,6.35,0,0,1-2.12,1.05,8.6,8.6,0,0,1-2.58.32,6.48,6.48,0,0,1-1.13-.13q-0.6-.12-1.18-0.29a10.71,10.71,0,0,1-1.07-.37q-0.49-.2-0.83-0.38l1-2.47a7.4,7.4,0,0,0,1.27.56A5.62,5.62,0,0,0,339.33,422.4Z"/><path d="M351,427.49a8.12,8.12,0,0,0,1.78-.61,7.41,7.41,0,0,0,2.06-1.44,8.12,8.12,0,0,0,1.7-2.47,8.79,8.79,0,0,0,.7-3.71,9.76,9.76,0,0,0-.66-3.85,8.15,8.15,0,0,0-1.63-2.52,7.13,7.13,0,0,0-2-1.49,10.21,10.21,0,0,0-1.92-.71l0.58-2.56a12.13,12.13,0,0,1,3.28,1.17,9.92,9.92,0,0,1,2.82,2.21,10.56,10.56,0,0,1,2,3.32,13.89,13.89,0,0,1,0,8.92,10,10,0,0,1-2,3.25,9.44,9.44,0,0,1-2.82,2.11,11,11,0,0,1-3.28,1Z"/><path d="M544.06,413.71l3-.31v-6.72l-3,.31v-2.64l5.4-.57,0.36,1.55h0.1a7.46,7.46,0,0,1,1.54-1.49,4.17,4.17,0,0,1,2-.75,2.45,2.45,0,0,1,2.27.81,5.38,5.38,0,0,1,.83,3.44l-2.81.31a2.27,2.27,0,0,0-.25-1.23,0.79,0.79,0,0,0-.8-0.31,2.63,2.63,0,0,0-1.55.65,5.64,5.64,0,0,0-1,1.21v5.11l5.21-.57v2.64c-4.52.5-6.78,0.74-11.31,1.21v-2.64Z"/><path d="M570.34,412.15a5,5,0,0,1-.8.66,8.86,8.86,0,0,1-1.15.65,9.84,9.84,0,0,1-3.13.9,7.82,7.82,0,0,1-2.75-.11,4.6,4.6,0,0,1-3.34-2.87,7,7,0,0,1-.44-2.6,7.49,7.49,0,0,1,.5-2.83,6.47,6.47,0,0,1,1.38-2.14,6.73,6.73,0,0,1,2.05-1.42,8.54,8.54,0,0,1,2.54-.69,7.69,7.69,0,0,1,1.88,0,4.55,4.55,0,0,1,1.79.62,3.73,3.73,0,0,1,1.33,1.41,5,5,0,0,1,.52,2.43,11.85,11.85,0,0,1-.24,2.26l-8.63,1a2.54,2.54,0,0,0,.32,1.26,2.18,2.18,0,0,0,.79.77,3.07,3.07,0,0,0,1.13.36,5.55,5.55,0,0,0,1.35,0,7.46,7.46,0,0,0,2.36-.61,5.83,5.83,0,0,0,1.5-1Zm-5.18-8a4.26,4.26,0,0,0-1.18.31,3.79,3.79,0,0,0-1,.62,3.25,3.25,0,0,0-.73.9,2.78,2.78,0,0,0-.34,1.14l5.9-.69a2.37,2.37,0,0,0-.66-1.82A2.4,2.4,0,0,0,565.15,404.2Z"/><path d="M585,410.45a8,8,0,0,1-2.3,1.41,10.78,10.78,0,0,1-2.76.72,7.5,7.5,0,0,1-2.77-.11,4.82,4.82,0,0,1-2-1,4.61,4.61,0,0,1-1.26-1.85,7,7,0,0,1-.43-2.54,7.24,7.24,0,0,1,.5-2.75,6.69,6.69,0,0,1,1.4-2.16,7.13,7.13,0,0,1,2.12-1.5,8.86,8.86,0,0,1,2.66-.75,9.61,9.61,0,0,1,2.52,0,10.55,10.55,0,0,1,1.8.37v4.22l-2.64.34V402.6a6.66,6.66,0,0,0-1.49,0A4.85,4.85,0,0,0,579,403a3.83,3.83,0,0,0-1.17.79A4,4,0,0,0,577,405a4,4,0,0,0-.32,1.65,3.48,3.48,0,0,0,.26,1.38,2.84,2.84,0,0,0,.74,1,2.89,2.89,0,0,0,1.19.61,4.1,4.1,0,0,0,1.57.08,6.09,6.09,0,0,0,2.24-.67,10.52,10.52,0,0,0,1.31-.84Z"/><path d="M594.2,398.4l4.45-.6v9.36l1.82-.25v2.64l-3.78.52-0.55-1.7H596a5.15,5.15,0,0,1-1.65,1.74,5.61,5.61,0,0,1-2.44.93,5.28,5.28,0,0,1-1.66,0,2.53,2.53,0,0,1-1.28-.62,3.11,3.11,0,0,1-.81-1.38,7.75,7.75,0,0,1-.29-2.31v-4.82l-1.37.18v-2.64l4.48-.59v6.82a3.37,3.37,0,0,0,.47,2,1.49,1.49,0,0,0,1.47.45,3,3,0,0,0,1.59-.74,3.41,3.41,0,0,0,1-1.43v-5.11l-1.34.18V398.4Z"/><path d="M601.6,406.75l3-.41v-6.72l-3,.41v-2.64l5.38-.76,0.36,1.53h0.1a7.85,7.85,0,0,1,1.53-1.54,4.29,4.29,0,0,1,2-.82,2.37,2.37,0,0,1,2.26.73,5.26,5.26,0,0,1,.83,3.41l-2.8.41a2.22,2.22,0,0,0-.25-1.22,0.76,0.76,0,0,0-.8-0.28,2.72,2.72,0,0,0-1.54.7,5.94,5.94,0,0,0-1,1.25v5.11l5.19-.75v2.64c-4.51.66-6.76,1-11.27,1.6v-2.64Z"/><path d="M625.89,410.92a9.89,9.89,0,0,1-3.25-.56,7.71,7.71,0,0,1-2.8-1.71,8.33,8.33,0,0,1-1.95-3,11.65,11.65,0,0,1-.73-4.36,13.48,13.48,0,0,1,.73-4.56,12.68,12.68,0,0,1,1.95-3.59,12.11,12.11,0,0,1,2.8-2.61,13.92,13.92,0,0,1,3.25-1.63l0.57,2.48a11.72,11.72,0,0,0-1.9,1,8.67,8.67,0,0,0-2,1.77,9.83,9.83,0,0,0-1.61,2.75,10.55,10.55,0,0,0-.66,3.94,8.19,8.19,0,0,0,.69,3.62,6.65,6.65,0,0,0,1.69,2.23,6.09,6.09,0,0,0,2,1.15,7.2,7.2,0,0,0,1.77.36Z"/><path d="M635,402a5.74,5.74,0,0,0,1.46-.43,4.44,4.44,0,0,0,1.16-.74,3.23,3.23,0,0,0,.76-1,2.84,2.84,0,0,0,.27-1.24,2,2,0,0,0-1-1.91,4.9,4.9,0,0,0-3.12-.26l-0.61.11-0.66.14-0.74.14V388l8.64-1.39v2.93l-6,1v3.24l0.38-.09,0.32-.06,0.27-.06a6.66,6.66,0,0,1,2.22,0,4.15,4.15,0,0,1,1.79.75,3.76,3.76,0,0,1,1.18,1.5,5.12,5.12,0,0,1,.42,2.13,6.14,6.14,0,0,1-.53,2.57,6.5,6.5,0,0,1-1.43,2,7.92,7.92,0,0,1-2.1,1.43,9.42,9.42,0,0,1-2.56.78,6.27,6.27,0,0,1-1.12.07q-0.6,0-1.17-.08a9.25,9.25,0,0,1-1.06-.18,8.4,8.4,0,0,1-.82-0.23l1-2.65a6.16,6.16,0,0,0,1.25.33A5.26,5.26,0,0,0,635,402Z"/><path d="M648.89,400.59a2,2,0,0,1,.54-1.39,2.33,2.33,0,0,1,1.35-.71,2,2,0,0,1,2,.53,2.93,2.93,0,0,1,.67,2,5.07,5.07,0,0,1-.42,2,6.58,6.58,0,0,1-1.08,1.72,7.53,7.53,0,0,1-1.49,1.31,7.22,7.22,0,0,1-1.63.83l-0.64-1.21a8.33,8.33,0,0,0,1.16-.6,5.92,5.92,0,0,0,1.06-.84,4.73,4.73,0,0,0,.8-1.06,3,3,0,0,0,.37-1.22,3.19,3.19,0,0,1-1.22.24,1.56,1.56,0,0,1-.82-0.24,1.25,1.25,0,0,1-.46-0.59A2.3,2.3,0,0,1,648.89,400.59Z"/><path d="M671.74,393.43l-2.86.52c0,1.87,0,2.81,0,4.68l-2.88.52v-4.68l-7.22,1.28v-2.14l7.55-11.44,2.55-.46c0,3.9,0,5.85,0,9.74l2.86-.52v2.5ZM666,386.65l-4.15,6.07L666,392v-5.33Z"/><path d="M675.15,400a9.88,9.88,0,0,0,1.76-1,9.75,9.75,0,0,0,2-1.84,10.61,10.61,0,0,0,1.68-2.8,9.88,9.88,0,0,0,.69-3.85,8.91,8.91,0,0,0-.65-3.72,6.2,6.2,0,0,0-1.61-2.21,5.4,5.4,0,0,0-2-1.09,8.61,8.61,0,0,0-1.89-.33l0.57-2.67A10.29,10.29,0,0,1,679,381a7.46,7.46,0,0,1,2.78,1.66,8.14,8.14,0,0,1,1.94,2.93,11.5,11.5,0,0,1,.72,4.31,13.79,13.79,0,0,1-.72,4.6,13,13,0,0,1-1.94,3.63,12.46,12.46,0,0,1-2.78,2.66,13.28,13.28,0,0,1-3.24,1.66Z"/><path d="M61.51,341.21l2.95,0.56V335l-2.95-.56v-2.64l5.35,1,0.36,1.65,0.1,0a4.83,4.83,0,0,1,1.52-1,3.42,3.42,0,0,1,2-.16,3.36,3.36,0,0,1,2.25,1.47,6.6,6.6,0,0,1,.82,3.68L71.12,338a2.72,2.72,0,0,0-.25-1.31,1.09,1.09,0,0,0-.8-0.54,2.09,2.09,0,0,0-1.54.19,3.65,3.65,0,0,0-1,.92v5.11l5.17,1v2.64c-4.49-.82-6.73-1.24-11.21-2.1v-2.64Z"/><path d="M87.58,347.33a3.32,3.32,0,0,1-.8.43,6.43,6.43,0,0,1-1.14.32,8,8,0,0,1-1.44.13,9.2,9.2,0,0,1-1.67-.15,9.05,9.05,0,0,1-2.73-.92,6.91,6.91,0,0,1-3.31-3.85,8.12,8.12,0,0,1-.44-2.73,6.45,6.45,0,0,1,.5-2.68,4.29,4.29,0,0,1,1.37-1.73,4.64,4.64,0,0,1,2-.82,7.58,7.58,0,0,1,2.53.05,8.66,8.66,0,0,1,1.87.57,6.34,6.34,0,0,1,1.78,1.14,5.7,5.7,0,0,1,1.32,1.8,6,6,0,0,1,.51,2.59,10.9,10.9,0,0,1-.24,2.19l-8.58-1.52a3.15,3.15,0,0,0,.32,1.35,3.33,3.33,0,0,0,.79,1,4.2,4.2,0,0,0,1.12.69,6.16,6.16,0,0,0,1.35.4,6.67,6.67,0,0,0,2.35.08,4.06,4.06,0,0,0,1.49-.55Zm-5.15-9.47a3.81,3.81,0,0,0-1.17,0,2.7,2.7,0,0,0-1,.33,2.11,2.11,0,0,0-.73.69,2.19,2.19,0,0,0-.33,1l5.86,1a3.1,3.1,0,0,0-.66-2A3.15,3.15,0,0,0,82.43,337.86Z"/><path d="M102.18,349.93a5.73,5.73,0,0,1-2.29.74,9.69,9.69,0,0,1-2.74-.09,8.68,8.68,0,0,1-2.76-.92,7.09,7.09,0,0,1-2-1.63,6.8,6.8,0,0,1-1.25-2.22,8.16,8.16,0,0,1-.43-2.67,6.19,6.19,0,0,1,.5-2.6,4.45,4.45,0,0,1,1.39-1.75,4.92,4.92,0,0,1,2.11-.88,7.82,7.82,0,0,1,2.65,0,10.76,10.76,0,0,1,2.51.73,13.82,13.82,0,0,1,1.79.9v4.22L99,343.36v-2.21a7.39,7.39,0,0,0-1.48-.42,4.3,4.3,0,0,0-1.32,0,2.59,2.59,0,0,0-2,1.42,3.34,3.34,0,0,0-.32,1.55,4.08,4.08,0,0,0,.26,1.46,4.18,4.18,0,0,0,1.92,2.21,4.77,4.77,0,0,0,1.56.54,5.3,5.3,0,0,0,2.23,0,7.37,7.37,0,0,0,1.3-.46Z"/><path d="M111.35,340.57l4.44,0.7v9.36l1.82,0.28v2.64l-3.77-.59-0.55-1.86-0.1,0a3.37,3.37,0,0,1-1.65,1.25,4.62,4.62,0,0,1-2.44.21,6,6,0,0,1-1.66-.51,3.72,3.72,0,0,1-1.28-1,4.48,4.48,0,0,1-.81-1.62,8.68,8.68,0,0,1-.29-2.4V342.2l-1.36-.22v-2.64l4.46,0.73v6.82a4.1,4.1,0,0,0,.47,2.19,2,2,0,0,0,1.47.88,2.31,2.31,0,0,0,1.59-.27,2.27,2.27,0,0,0,1-1.14v-5.11l-1.34-.21v-2.64Z"/><path d="M118.73,351.09l3,0.46v-6.72l-3-.46v-2.64l5.38,0.82,0.36,1.64h0.1a5.1,5.1,0,0,1,1.53-1.09,3.48,3.48,0,0,1,2-.23,3.23,3.23,0,0,1,2.26,1.39,6.43,6.43,0,0,1,.83,3.65l-2.8-.41a2.65,2.65,0,0,0-.25-1.3,1,1,0,0,0-.8-0.51,2.14,2.14,0,0,0-1.54.25,3.86,3.86,0,0,0-1,1V352l5.19,0.78c0,1.06,0,1.58,0,2.64-4.51-.67-6.76-1-11.26-1.7v-2.64Z"/><path d="M143,362.4a12.71,12.71,0,0,1-3.25-1.51,11.71,11.71,0,0,1-2.8-2.53A12.23,12.23,0,0,1,135,354.8a13.41,13.41,0,0,1-.73-4.57,11.69,11.69,0,0,1,.73-4.35,8.64,8.64,0,0,1,1.95-3,8,8,0,0,1,2.8-1.78,10.65,10.65,0,0,1,3.25-.67l0.57,2.65a8.91,8.91,0,0,0-1.9.42,5.74,5.74,0,0,0-2,1.18,6.61,6.61,0,0,0-1.62,2.28,9.08,9.08,0,0,0-.66,3.75,9.6,9.6,0,0,0,.69,3.82,10,10,0,0,0,1.69,2.72,9.14,9.14,0,0,0,2,1.75,9.42,9.42,0,0,0,1.77.88Z"/><path d="M152.17,356.14a5.1,5.1,0,0,0,1.46,0,3.16,3.16,0,0,0,1.16-.4,2.11,2.11,0,0,0,.77-0.79,2.35,2.35,0,0,0,.28-1.16,2.8,2.8,0,0,0-1-2.21,6,6,0,0,0-3.12-1.17l-0.61-.07-0.66-.05-0.74-.08c0-3.51,0-5.27,0-8.78l8.67,1.15c0,1.17,0,1.76,0,2.93l-6-.79c0,1.3,0,1.94,0,3.24l0.38,0,0.32,0,0.28,0a7.57,7.57,0,0,1,2.23.64,6,6,0,0,1,1.8,1.28,5.67,5.67,0,0,1,1.19,1.85,6,6,0,0,1,.42,2.25,5.13,5.13,0,0,1-.53,2.42,4.27,4.27,0,0,1-1.44,1.6,5.56,5.56,0,0,1-2.11.81,8.28,8.28,0,0,1-2.56,0,6.77,6.77,0,0,1-1.13-.26q-0.6-.19-1.17-0.42t-1.07-.49q-0.49-.26-0.83-0.47l1-2.36a8.37,8.37,0,0,0,1.26.7A6,6,0,0,0,152.17,356.14Z"/><path d="M166.09,358.83a1.45,1.45,0,0,1,.54-1.23,1.78,1.78,0,0,1,1.35-.31,2.72,2.72,0,0,1,2,1.11,3.74,3.74,0,0,1,.67,2.22,4.22,4.22,0,0,1-.42,1.92,4.38,4.38,0,0,1-1.09,1.4,5,5,0,0,1-1.5.87,5.55,5.55,0,0,1-1.64.35l-0.65-1.4a6.34,6.34,0,0,0,1.16-.26,4,4,0,0,0,1.07-.53,3.07,3.07,0,0,0,.8-0.82,2.29,2.29,0,0,0,.37-1.11,3.09,3.09,0,0,1-1.22-.12,2.15,2.15,0,0,1-.83-0.49,1.87,1.87,0,0,1-.47-0.73A2.63,2.63,0,0,1,166.09,358.83Z"/><path d="M189.08,358.41l-2.88-.32v4.68l-2.9-.33v-4.68L176,356.9v-2.14l7.6-9.21,2.57,0.29c0,3.9,0,5.85,0,9.74l2.88,0.32v2.5Zm-5.78-8.48-4.17,4.84,4.17,0.48v-5.33Z"/><path d="M192.52,365.94a7.47,7.47,0,0,0,1.78-.44,6.48,6.48,0,0,0,2.05-1.24,7.1,7.1,0,0,0,1.69-2.3,8.36,8.36,0,0,0,.7-3.65,10.29,10.29,0,0,0-.66-3.91,9.29,9.29,0,0,0-1.62-2.68,8.15,8.15,0,0,0-2-1.68,11.23,11.23,0,0,0-1.91-.89l0.58-2.51a13.32,13.32,0,0,1,3.26,1.48,11.38,11.38,0,0,1,2.81,2.48,12,12,0,0,1,2,3.5,13.16,13.16,0,0,1,.73,4.53,11.87,11.87,0,0,1-.73,4.39,8.84,8.84,0,0,1-2,3.06,8.22,8.22,0,0,1-2.81,1.84,10.22,10.22,0,0,1-3.26.7Z"/><path d="M386.33,373.25v-2.64l2.84,0v-6.72l-2.87,0v-2.64l2.87,0v-0.67a4.43,4.43,0,0,1,.4-1.95,4,4,0,0,1,1-1.35,4.36,4.36,0,0,1,1.51-.8,6.3,6.3,0,0,1,1.77-.27,11.3,11.3,0,0,1,2.74.24,6.91,6.91,0,0,1,1.77.66l-0.92,2.39a10.84,10.84,0,0,0-1.19-.46,5.23,5.23,0,0,0-1.65-.19,2.37,2.37,0,0,0-1.82.61,2.63,2.63,0,0,0-.52,1.77l5.06-.07v2.64l-5.06.07v6.72l5.09-.07v2.64C393,373.19,390.76,373.22,386.33,373.25Z"/><path d="M401.25,361.88a13.49,13.49,0,0,1,2.23-.78,12.84,12.84,0,0,1,3-.37,6.64,6.64,0,0,1,2.13.26,3.48,3.48,0,0,1,1.42.82,3.15,3.15,0,0,1,.78,1.3,5.73,5.73,0,0,1,.24,1.72q0,1.22-.08,2.09t-0.08,1.54a10.17,10.17,0,0,0,0,1.13c0,0.22.06,0.44,0.07,0.65l1.57,0v2.64l-4,.09-0.32-1.63H408.1a4.27,4.27,0,0,1-1.37,1.31,4.63,4.63,0,0,1-2.4.59,4,4,0,0,1-2.85-.91,3.22,3.22,0,0,1-1.05-2.53,3.85,3.85,0,0,1,.37-1.75,3.19,3.19,0,0,1,1.08-1.22,5.25,5.25,0,0,1,1.7-.73,10.09,10.09,0,0,1,2.22-.27q0.43,0,.91,0l1.17,0.07a2.49,2.49,0,0,0,0-.48V365a1.5,1.5,0,0,0-.53-1.3,2.53,2.53,0,0,0-1.56-.36,7.37,7.37,0,0,0-2.2.35,14.67,14.67,0,0,0-1.65.65Zm4.1,8.73a2.67,2.67,0,0,0,2.55-1.37v-1.44l-0.71-.09a8.24,8.24,0,0,0-1,0,5,5,0,0,0-.91.1,3.06,3.06,0,0,0-.81.28,1.64,1.64,0,0,0-.57.48,1.15,1.15,0,0,0-.21.7,1.34,1.34,0,0,0,.39,1A1.83,1.83,0,0,0,405.36,370.62Z"/><path d="M426.7,371.29a7.15,7.15,0,0,1-2.31,1.19,10.28,10.28,0,0,1-2.77.46,7.78,7.78,0,0,1-2.78-.38,5.47,5.47,0,0,1-2-1.23,5.26,5.26,0,0,1-1.27-2,7.34,7.34,0,0,1-.43-2.58,6.84,6.84,0,0,1,.51-2.7,5.86,5.86,0,0,1,1.41-2,6.3,6.3,0,0,1,2.13-1.29,8.4,8.4,0,0,1,2.68-.5,9.84,9.84,0,0,1,2.53.24,11.43,11.43,0,0,1,1.81.54v4.22l-2.65.08v-2.21A6.8,6.8,0,0,0,422,363a4.61,4.61,0,0,0-1.34.24,3.39,3.39,0,0,0-1.18.68,3.52,3.52,0,0,0-.84,1.14,3.72,3.72,0,0,0-.33,1.62,3.65,3.65,0,0,0,.26,1.41,3.24,3.24,0,0,0,.75,1.11,3.29,3.29,0,0,0,1.19.72,4.26,4.26,0,0,0,1.58.23,5.75,5.75,0,0,0,2.25-.45,9.33,9.33,0,0,0,1.31-.71Z"/><path d="M430.8,362.95l-2.39.08v-2.64l2.39-.08v-2.74l3.13-1v3.62l6.31-.24v2.64l-6.31.24v3.43a4,4,0,0,0,.7,2.65,2.33,2.33,0,0,0,2,.75,4.22,4.22,0,0,0,1.18-.2,4.64,4.64,0,0,0,1-.43,5.72,5.72,0,0,0,.77-0.56l0.64-.55,1.45,2.1a4.88,4.88,0,0,1-1,.92,9.14,9.14,0,0,1-1.33.75,8.62,8.62,0,0,1-1.48.53,7.21,7.21,0,0,1-1.52.23,5,5,0,0,1-4.06-1.35q-1.36-1.45-1.36-4.72v-3.43Z"/><path d="M443.3,365.83a7.54,7.54,0,0,1,.46-2.71,5.84,5.84,0,0,1,1.3-2,5.91,5.91,0,0,1,2-1.32,7.93,7.93,0,0,1,2.61-.54,7.43,7.43,0,0,1,2.71.33,5.25,5.25,0,0,1,2,1.19,5.05,5.05,0,0,1,1.24,1.94,7.45,7.45,0,0,1,.42,2.57,7.55,7.55,0,0,1-.46,2.71,5.79,5.79,0,0,1-3.31,3.39,7.86,7.86,0,0,1-2.61.54,7.38,7.38,0,0,1-2.71-.33,5.26,5.26,0,0,1-2-1.2,5.09,5.09,0,0,1-1.24-2A7.47,7.47,0,0,1,443.3,365.83Zm3.23-.14a4.65,4.65,0,0,0,.22,1.45,3.4,3.4,0,0,0,.63,1.15,2.64,2.64,0,0,0,1,.74,3,3,0,0,0,1.33.22,3.2,3.2,0,0,0,2.28-1,4.86,4.86,0,0,0,.06-5.49,2.7,2.7,0,0,0-2.34-.91,3.85,3.85,0,0,0-1.25.26,2.62,2.62,0,0,0-1,.71,3.41,3.41,0,0,0-.66,1.18A5.25,5.25,0,0,0,446.53,365.69Z"/><path d="M457.85,368.51l3-.16v-6.72l-3,.16v-2.64l5.42-.29,0.36,1.56h0.1a6.92,6.92,0,0,1,1.54-1.41,4,4,0,0,1,2-.64,2.59,2.59,0,0,1,2.28.93,5.56,5.56,0,0,1,.83,3.48l-2.82.16a2.33,2.33,0,0,0-.25-1.25,0.83,0.83,0,0,0-.81-0.35,2.51,2.51,0,0,0-1.55.57,5.23,5.23,0,0,0-1,1.16v5.11l5.22-.29v2.64c-4.54.26-6.8,0.39-11.34,0.62v-2.64Z"/><path d="M472.78,367.68l4.24-.26V360.7l-4.24.26v-2.64l7.37-.46c0,3.74,0,5.62,0,9.36l4.45-.29v2.64c-4.73.32-7.09,0.47-11.82,0.75v-2.64Zm3.66-12.85a1.81,1.81,0,0,1,.55-1.31,2.28,2.28,0,0,1,1.54-.63,2.24,2.24,0,0,1,1.61.43,1.52,1.52,0,0,1,.6,1.23,1.67,1.67,0,0,1-.6,1.3,2.61,2.61,0,0,1-1.61.6,2.13,2.13,0,0,1-1.54-.4A1.51,1.51,0,0,1,476.44,354.83Z"/><path d="M488,358.15a14.16,14.16,0,0,1,2.23-.9,13.09,13.09,0,0,1,3-.53,6.52,6.52,0,0,1,2.13.14,3.25,3.25,0,0,1,1.42.75,2.94,2.94,0,0,1,.78,1.26,5.62,5.62,0,0,1,.24,1.71q0,1.22-.08,2.09t-0.08,1.54a10.11,10.11,0,0,0,0,1.12c0,0.22.06,0.44,0.07,0.64l1.56-.12v2.64l-4,.3-0.32-1.61H494.8a4.61,4.61,0,0,1-1.36,1.38,4.81,4.81,0,0,1-2.39.71,3.83,3.83,0,0,1-2.85-.76,3.06,3.06,0,0,1-1.05-2.47,4,4,0,0,1,.37-1.77A3.45,3.45,0,0,1,488.6,363a5.55,5.55,0,0,1,1.7-.82,10.29,10.29,0,0,1,2.21-.39,9.06,9.06,0,0,1,.91,0h1.17a2.53,2.53,0,0,0,0-.48v-0.46a1.43,1.43,0,0,0-.52-1.27,2.44,2.44,0,0,0-1.55-.28,7.55,7.55,0,0,0-2.2.47,15.49,15.49,0,0,0-1.65.74Zm4.1,8.52a3,3,0,0,0,1.71-.54,3.14,3.14,0,0,0,.83-1v-1.44l-0.71-.06a8.2,8.2,0,0,0-1,0,5.13,5.13,0,0,0-.9.15,3.21,3.21,0,0,0-.81.32,1.77,1.77,0,0,0-.57.51,1.2,1.2,0,0,0-.21.71,1.28,1.28,0,0,0,.39,1A1.76,1.76,0,0,0,492.06,366.67Z"/><path d="M502.33,351.48l5.12-.41c0,4.44,0,6.65,0,11.09a4.9,4.9,0,0,0,.46,2.53,1.48,1.48,0,0,0,1.47.6,4.19,4.19,0,0,0,1.23-.26,5.13,5.13,0,0,0,1-.52l1.18,2.06q-0.41.3-.82,0.56a5.75,5.75,0,0,1-.87.46,6.25,6.25,0,0,1-1,.32,8.18,8.18,0,0,1-1.21.18,4.25,4.25,0,0,1-3.39-.88,4.15,4.15,0,0,1-1.13-3.17V354l-2,.16v-2.64Z"/><path d="M516.54,369.92c4.27-.37,6.4-0.56,10.67-1v2.57c-4.27.4-6.4,0.59-10.67,1v-2.57Z"/><path d="M529.08,349.18l4.85-.46v6.14H534a4.66,4.66,0,0,1,1.54-1.37,5.61,5.61,0,0,1,2.26-.68,5.48,5.48,0,0,1,1.68.07,2.81,2.81,0,0,1,1.32.66,3.28,3.28,0,0,1,.86,1.41,7.26,7.26,0,0,1,.31,2.31v7.46l-3.12.32v-6.82a2.74,2.74,0,0,0-.62-2,2,2,0,0,0-1.63-.49,3,3,0,0,0-1.63.7,3.37,3.37,0,0,0-1.06,1.48v7.66l-3.12.3c0-5.66,0-8.5,0-14.16l-1.73.16v-2.64Z"/><path d="M556.31,361.91a5,5,0,0,1-.8.65,8.77,8.77,0,0,1-1.15.64,9.79,9.79,0,0,1-3.13.87,7.85,7.85,0,0,1-2.75-.14,4.65,4.65,0,0,1-3.34-2.9,7,7,0,0,1-.44-2.61,7.45,7.45,0,0,1,.5-2.82,6.4,6.4,0,0,1,1.38-2.12,6.66,6.66,0,0,1,2.05-1.4,8.49,8.49,0,0,1,2.54-.67,7.7,7.7,0,0,1,1.88,0,4.59,4.59,0,0,1,1.79.63,3.77,3.77,0,0,1,1.33,1.42,5,5,0,0,1,.52,2.44,11.82,11.82,0,0,1-.24,2.26l-8.64.94a2.56,2.56,0,0,0,.32,1.26,2.2,2.2,0,0,0,.79.78,3.09,3.09,0,0,0,1.13.37,5.56,5.56,0,0,0,1.36,0,7.43,7.43,0,0,0,2.36-.59,5.77,5.77,0,0,0,1.5-1Zm-5.18-8a4.24,4.24,0,0,0-1.18.3,3.75,3.75,0,0,0-1,.61,3.21,3.21,0,0,0-.73.9,2.76,2.76,0,0,0-.34,1.14l5.91-.63a2.39,2.39,0,0,0-.66-1.82A2.42,2.42,0,0,0,551.13,353.91Z"/><path d="M560,346l5.11-.59v11.09a4.82,4.82,0,0,0,.46,2.52,1.42,1.42,0,0,0,1.46.55,4.26,4.26,0,0,0,1.22-.3,5.34,5.34,0,0,0,1-.56l1.18,2q-0.41.31-.82,0.59a6,6,0,0,1-.86.49,6.43,6.43,0,0,1-1,.36,8.28,8.28,0,0,1-1.21.23,4.13,4.13,0,0,1-3.38-.76,4,4,0,0,1-1.13-3.13V348.39l-2,.23V346Z"/><path d="M572.29,349.34l4.08-.5,0.36,1.4h0.1a5.27,5.27,0,0,1,4-2.28,5.5,5.5,0,0,1,2,.09,3.34,3.34,0,0,1,1.58.89,4.37,4.37,0,0,1,1,1.74,8.55,8.55,0,0,1,.36,2.67,9.35,9.35,0,0,1-.41,2.82,6.92,6.92,0,0,1-1.17,2.25,6,6,0,0,1-1.87,1.56,7.1,7.1,0,0,1-2.52.77,9.77,9.77,0,0,1-1.46.07,3.7,3.7,0,0,1-1.2-.2v4.92l-3.12.38V351.76l-1.8.22v-2.64Zm7.62,1.37a3.54,3.54,0,0,0-1.67.66,2.81,2.81,0,0,0-1,1.5v5a2.27,2.27,0,0,0,1,.3,5.23,5.23,0,0,0,1.28,0,3.64,3.64,0,0,0,1.25-.38,3.05,3.05,0,0,0,1-.86,4.13,4.13,0,0,0,.67-1.36,6.57,6.57,0,0,0,.24-1.88,3.2,3.2,0,0,0-.77-2.35A2.21,2.21,0,0,0,579.91,350.71Z"/><path d="M599.46,356.56a5.16,5.16,0,0,1-.8.67,9,9,0,0,1-1.15.67,10,10,0,0,1-1.45.58,9.86,9.86,0,0,1-1.68.37,7.78,7.78,0,0,1-2.74-.07,4.65,4.65,0,0,1-2-1,4.61,4.61,0,0,1-1.28-1.82,7,7,0,0,1-.44-2.59,7.57,7.57,0,0,1,.5-2.84,6.64,6.64,0,0,1,1.38-2.16,6.89,6.89,0,0,1,2-1.46,8.64,8.64,0,0,1,2.54-.73,7.67,7.67,0,0,1,1.88,0,4.47,4.47,0,0,1,1.78.59,3.63,3.63,0,0,1,1.33,1.39,4.92,4.92,0,0,1,.52,2.43,11.93,11.93,0,0,1-.24,2.27L591,354a2.52,2.52,0,0,0,.32,1.25,2.12,2.12,0,0,0,.79.76,3,3,0,0,0,1.13.34,5.53,5.53,0,0,0,1.35,0,7.54,7.54,0,0,0,2.36-.65,6,6,0,0,0,1.5-1Zm-5.17-7.87a4.3,4.3,0,0,0-1.17.33,3.88,3.88,0,0,0-1,.63,3.34,3.34,0,0,0-.73.92,2.83,2.83,0,0,0-.34,1.14l5.89-.79a2.33,2.33,0,0,0-.66-1.81A2.37,2.37,0,0,0,594.28,348.7Z"/><path d="M602,354.85l3-.42v-6.72l-3,.42v-2.64l5.38-.76,0.36,1.53h0.1a7.84,7.84,0,0,1,1.53-1.54,4.29,4.29,0,0,1,2-.82,2.37,2.37,0,0,1,2.26.73,5.26,5.26,0,0,1,.83,3.41l-2.8.41a2.22,2.22,0,0,0-.25-1.22,0.76,0.76,0,0,0-.8-0.28,2.72,2.72,0,0,0-1.54.7,5.93,5.93,0,0,0-1,1.25V354l5.19-.75v2.64c-4.51.66-6.76,1-11.27,1.6v-2.64Z"/><path d="M626.27,359a9.89,9.89,0,0,1-3.25-.56,7.7,7.7,0,0,1-2.8-1.71,8.34,8.34,0,0,1-1.95-3,11.65,11.65,0,0,1-.73-4.36,13.48,13.48,0,0,1,.73-4.56,12.69,12.69,0,0,1,1.95-3.59,12.12,12.12,0,0,1,2.8-2.61,13.92,13.92,0,0,1,3.25-1.63l0.57,2.48a11.73,11.73,0,0,0-1.9,1,8.67,8.67,0,0,0-2,1.77,9.83,9.83,0,0,0-1.61,2.75,10.55,10.55,0,0,0-.66,3.94,8.19,8.19,0,0,0,.69,3.62A6.65,6.65,0,0,0,623,354.8a6.09,6.09,0,0,0,2,1.15,7.2,7.2,0,0,0,1.77.36Z"/><path d="M635.39,350.07a5.75,5.75,0,0,0,1.46-.43,4.43,4.43,0,0,0,1.16-.74,3.24,3.24,0,0,0,.76-1,2.84,2.84,0,0,0,.27-1.24,2,2,0,0,0-1-1.91,4.9,4.9,0,0,0-3.12-.26l-0.61.11-0.66.14-0.74.14V336.1l8.64-1.39v2.93l-6,1v3.24l0.38-.09,0.32-.06,0.27-.06a6.66,6.66,0,0,1,2.22,0,4.16,4.16,0,0,1,1.79.75,3.76,3.76,0,0,1,1.18,1.5,5.13,5.13,0,0,1,.42,2.13,6.14,6.14,0,0,1-.53,2.57,6.5,6.5,0,0,1-1.43,2,7.92,7.92,0,0,1-2.1,1.43,9.42,9.42,0,0,1-2.56.78,6.27,6.27,0,0,1-1.12.07q-0.6,0-1.17-.08a9.27,9.27,0,0,1-1.06-.18,8.39,8.39,0,0,1-.82-0.23l1-2.65a6.15,6.15,0,0,0,1.25.33A5.26,5.26,0,0,0,635.39,350.07Z"/><path d="M649.26,348.69a2,2,0,0,1,.54-1.39,2.33,2.33,0,0,1,1.35-.71,2,2,0,0,1,2,.53,2.93,2.93,0,0,1,.67,2,5.07,5.07,0,0,1-.42,2,6.59,6.59,0,0,1-1.08,1.72,7.51,7.51,0,0,1-1.49,1.31,7.24,7.24,0,0,1-1.63.83l-0.64-1.21a8.32,8.32,0,0,0,1.16-.6,5.92,5.92,0,0,0,1.06-.84,4.71,4.71,0,0,0,.8-1.06,3,3,0,0,0,.37-1.22,3.18,3.18,0,0,1-1.22.24,1.56,1.56,0,0,1-.82-0.24,1.24,1.24,0,0,1-.46-0.59A2.3,2.3,0,0,1,649.26,348.69Z"/><path d="M672.11,341.53l-2.86.52v4.68l-2.88.52v-4.68l-7.22,1.28v-2.14l7.55-11.44,2.55-.46v9.74l2.86-.52v2.5Zm-5.74-6.79-4.15,6.07,4.15-.74v-5.33Z"/><path d="M675.52,348.06a9.88,9.88,0,0,0,1.76-1,9.75,9.75,0,0,0,2-1.84,10.61,10.61,0,0,0,1.68-2.8,9.88,9.88,0,0,0,.69-3.85,8.91,8.91,0,0,0-.65-3.72,6.2,6.2,0,0,0-1.61-2.21,5.4,5.4,0,0,0-2-1.09,8.62,8.62,0,0,0-1.89-.33l0.57-2.67a10.29,10.29,0,0,1,3.24.53,7.46,7.46,0,0,1,2.78,1.66A8.14,8.14,0,0,1,684,333.7a11.5,11.5,0,0,1,.72,4.31,13.79,13.79,0,0,1-.72,4.6,13,13,0,0,1-1.94,3.63,12.46,12.46,0,0,1-2.78,2.66,13.28,13.28,0,0,1-3.24,1.66Z"/></svg>