<svg id="Layer_1" data-name="Layer 1" xmlns="http://www.w3.org/2000/svg" viewBox="0 0 720 576"><defs><style>.cls-1,.cls-2,.cls-4,.cls-6{fill:#231f20;}.cls-1,.cls-3{stroke:#231f20;}.cls-1,.cls-6{stroke-miterlimit:10;}.cls-1,.cls-2,.cls-3{stroke-width:2px;}.cls-2{stroke:#000;}.cls-2,.cls-3{stroke-linecap:round;stroke-linejoin:round;}.cls-3,.cls-5{fill:#fff;}.cls-6{stroke:#fff;}</style></defs><title>Hanoi_Tower_Set_5_Final</title><path class="cls-1" d="M691.94,506.49c0-.14,0-0.29,0-0.43s0-.29,0-0.43V453.84H46.13s-0.25,51.74-.25,52.22c0,2.67,2.32,5.24,6.64,7.71,15.13,8.61,55.2,16.11,111,21.48s127.37,8.59,205.39,8.59c89.16,0,169.88-4.21,228.32-11,29.22-3.41,52.87-7.46,69.23-12,8.18-2.25,14.54-4.62,18.86-7.08,3.69-2.1,5.91-4.29,6.48-6.55h0.11v-0.73Z"/><ellipse class="cls-2" cx="368.93" cy="454.92" rx="322.86" ry="37.63"/><path class="cls-3" d="M691.94,455c0-.14,0-0.29,0-0.43s0-.29,0-0.43V402.36H46.13s-0.25,51.74-.25,52.22c0,2.67,2.32,5.24,6.64,7.71,15.13,8.61,55.2,16.11,111,21.48s127.37,8.59,205.39,8.59c89.16,0,169.88-4.21,228.32-11,29.22-3.41,52.87-7.46,69.23-12,8.18-2.25,14.54-4.62,18.86-7.08,3.69-2.1,5.91-4.29,6.48-6.55h0.11V455Z"/><ellipse class="cls-3" cx="368.93" cy="403.44" rx="322.86" ry="37.63"/><path class="cls-3" d="M691.94,403.53c0-.14,0-0.29,0-0.43s0-.29,0-0.43V350.88H46.13s-0.25,51.74-.25,52.22c0,2.67,2.32,5.24,6.64,7.71,15.13,8.61,55.2,16.11,111,21.48s127.37,8.59,205.39,8.59c89.16,0,169.88-4.21,228.32-11,29.22-3.41,52.87-7.46,69.23-12,8.18-2.25,14.54-4.62,18.86-7.08,3.69-2.1,5.91-4.29,6.48-6.55h0.11v-0.73Z"/><ellipse class="cls-3" cx="368.93" cy="351.97" rx="322.86" ry="37.63"/><path class="cls-3" d="M691.94,352.06c0-.14,0-0.29,0-0.43s0-.29,0-0.43V299.4H46.13s-0.25,51.74-.25,52.22c0,2.67,2.32,5.24,6.64,7.71,15.13,8.61,55.2,16.11,111,21.48s127.37,8.59,205.39,8.59c89.16,0,169.88-4.21,228.32-11,29.22-3.41,52.87-7.46,69.23-12,8.18-2.25,14.54-4.62,18.86-7.08,3.69-2.1,5.91-4.29,6.48-6.55h0.11v-0.73Z"/><ellipse class="cls-3" cx="368.93" cy="300.49" rx="322.86" ry="37.63"/><path class="cls-4" d="M368.93,309.88c-16,0-29-3.75-30.2-8.61h-0.08l0-.5V8.27h60.63v293h-0.12C397.9,306.14,384.9,309.88,368.93,309.88Z"/><path class="cls-5" d="M398.75,8.77v292h0c-0.49,4.78-13.63,8.61-29.79,8.61s-29.3-3.83-29.79-8.61h0v-0.21s0,0,0-.06,0,0,0-.06V8.77h59.63m1-1H338.12V300.39s0,0.07,0,.11v1.27h0.23c2,5.6,16.84,8.61,30.58,8.61s28.6-3,30.58-8.61h0.21l0-1V7.77h0Z"/><ellipse class="cls-6" cx="368.93" cy="8.89" rx="29.81" ry="8.89"/><path class="cls-1" d="M691.94,506.49c0-.14,0-0.29,0-0.43s0-.29,0-0.43V453.84H46.13s-0.25,51.74-.25,52.22c0,2.67,2.32,5.24,6.64,7.71,15.13,8.61,55.2,16.11,111,21.48s127.37,8.59,205.39,8.59c89.16,0,169.88-4.21,228.32-11,29.22-3.41,52.87-7.46,69.23-12,8.18-2.25,14.54-4.62,18.86-7.08,3.69-2.1,5.91-4.29,6.48-6.55h0.11v-0.73Z"/><ellipse class="cls-2" cx="368.93" cy="454.92" rx="322.86" ry="37.63"/><path class="cls-3" d="M691.94,455c0-.14,0-0.29,0-0.43s0-.29,0-0.43V402.36H46.13s-0.25,51.74-.25,52.22c0,2.67,2.32,5.24,6.64,7.71,15.13,8.61,55.2,16.11,111,21.48s127.37,8.59,205.39,8.59c89.16,0,169.88-4.21,228.32-11,29.22-3.41,52.87-7.46,69.23-12,8.18-2.25,14.54-4.62,18.86-7.08,3.69-2.1,5.91-4.29,6.48-6.55h0.11V455Z"/><ellipse class="cls-3" cx="368.93" cy="403.44" rx="322.86" ry="37.63"/><path class="cls-3" d="M691.94,403.53c0-.14,0-0.29,0-0.43s0-.29,0-0.43V350.88H46.13s-0.25,51.74-.25,52.22c0,2.67,2.32,5.24,6.64,7.71,15.13,8.61,55.2,16.11,111,21.48s127.37,8.59,205.39,8.59c89.16,0,169.88-4.21,228.32-11,29.22-3.41,52.87-7.46,69.23-12,8.18-2.25,14.54-4.62,18.86-7.08,3.69-2.1,5.91-4.29,6.48-6.55h0.11v-0.73Z"/><ellipse class="cls-3" cx="368.93" cy="351.97" rx="322.86" ry="37.63"/><path class="cls-3" d="M691.94,352.06c0-.14,0-0.29,0-0.43s0-.29,0-0.43V299.4H46.13s-0.25,51.74-.25,52.22c0,2.67,2.32,5.24,6.64,7.71,15.13,8.61,55.2,16.11,111,21.48s127.37,8.59,205.39,8.59c89.16,0,169.88-4.21,228.32-11,29.22-3.41,52.87-7.46,69.23-12,8.18-2.25,14.54-4.62,18.86-7.08,3.69-2.1,5.91-4.29,6.48-6.55h0.11v-0.73Z"/><ellipse class="cls-3" cx="368.93" cy="300.49" rx="322.86" ry="37.63"/><path class="cls-4" d="M368.93,309.88c-16,0-29-3.75-30.2-8.61h-0.08l0-.5V8.27h60.63v293h-0.12C397.9,306.14,384.9,309.88,368.93,309.88Z"/><path class="cls-5" d="M398.75,8.77v292h0c-0.49,4.78-13.63,8.61-29.79,8.61s-29.3-3.83-29.79-8.61h0v-0.21s0,0,0-.06,0,0,0-.06V8.77h59.63m1-1H338.12V300.39s0,0.07,0,.11v1.27h0.23c2,5.6,16.84,8.61,30.58,8.61s28.6-3,30.58-8.61h0.21l0-1V7.77h0Z"/><ellipse class="cls-6" cx="368.93" cy="8.89" rx="29.81" ry="8.89"/><path class="cls-4" d="M60,450.44v-2.53l2.7,0.43V441.9L60,441.47v-2.53l2.72,0.43v-0.64a3.87,3.87,0,0,1,.38-1.8,3,3,0,0,1,1-1.13,3.43,3.43,0,0,1,1.43-.53,5.73,5.73,0,0,1,1.68,0,11.54,11.54,0,0,1,2.6.66,7.89,7.89,0,0,1,1.68.91L70.6,439a12.26,12.26,0,0,0-1.13-.63,5.45,5.45,0,0,0-1.57-.45,2,2,0,0,0-1.73.3,2.21,2.21,0,0,0-.49,1.61l4.8,0.74v2.53l-4.8-.74v6.44l4.83,0.74v2.53C66.31,451.43,64.21,451.11,60,450.44Z"/><path class="cls-4" d="M74.17,441.91a11.17,11.17,0,0,1,2.12-.39,11.81,11.81,0,0,1,2.85.12,6.9,6.9,0,0,1,2,.59,4.14,4.14,0,0,1,1.35,1,3.74,3.74,0,0,1,.74,1.37,5.91,5.91,0,0,1,.23,1.69q0,1.17-.08,2t-0.08,1.46a10.11,10.11,0,0,0,0,1.09c0,0.21.05,0.43,0.07,0.63l1.49,0.22v2.53l-3.84-.56-0.3-1.61-0.11,0a3.19,3.19,0,0,1-1.3,1,4,4,0,0,1-2.27.18,4.47,4.47,0,0,1-2.71-1.33,3.65,3.65,0,0,1-1-2.59,3.35,3.35,0,0,1,.35-1.61,2.38,2.38,0,0,1,1-1,4.23,4.23,0,0,1,1.61-.42,9.26,9.26,0,0,1,2.1.09q0.41,0.06.86,0.17l1.11,0.26a2.28,2.28,0,0,0,0-.45v-0.44a1.7,1.7,0,0,0-.5-1.33,2.76,2.76,0,0,0-1.48-.6,6.64,6.64,0,0,0-2.09,0,11.76,11.76,0,0,0-1.57.36Zm3.89,9a2.52,2.52,0,0,0,1.63-.16,2.17,2.17,0,0,0,.79-0.75v-1.38l-0.68-.2a8.27,8.27,0,0,0-1-.2,4.63,4.63,0,0,0-.86,0,2.57,2.57,0,0,0-.77.14,1.22,1.22,0,0,0-.54.37,1,1,0,0,0-.2.64,1.51,1.51,0,0,0,.37,1.06A2,2,0,0,0,78.06,450.94Z"/><path class="cls-4" d="M98.34,455a5.66,5.66,0,0,1-2.2.76,9.32,9.32,0,0,1-2.63,0,8.16,8.16,0,0,1-2.65-.81,6.56,6.56,0,0,1-1.95-1.51,6.29,6.29,0,0,1-1.2-2.09,7.69,7.69,0,0,1-.41-2.54,6,6,0,0,1,.48-2.51,4.43,4.43,0,0,1,1.34-1.72,4.87,4.87,0,0,1,2-.9,7.52,7.52,0,0,1,2.54,0,10.13,10.13,0,0,1,2.4.64,12.92,12.92,0,0,1,1.72.81v4l-2.52-.35v-2.12a6.92,6.92,0,0,0-1.42-.36,4.14,4.14,0,0,0-1.27,0,2.58,2.58,0,0,0-1.92,1.42,3.26,3.26,0,0,0-.31,1.5,3.85,3.85,0,0,0,.25,1.39,3.9,3.9,0,0,0,.71,1.18,4,4,0,0,0,1.13.88,4.49,4.49,0,0,0,1.5.48,5.09,5.09,0,0,0,2.14-.07,7.33,7.33,0,0,0,1.25-.47Z"/><path class="cls-4" d="M102.23,447.69l-2.27-.31v-2.53l2.27,0.31v-2.62l3-.45v3.47l6,0.8v2.53l-6-.8v3.29a4.39,4.39,0,0,0,.66,2.65,2.66,2.66,0,0,0,1.86,1,3.83,3.83,0,0,0,1.12,0,3.75,3.75,0,0,0,.91-0.26,4.31,4.31,0,0,0,.73-0.41l0.61-.43,1.38,2.25a3.66,3.66,0,0,1-1,.71,7.08,7.08,0,0,1-1.26.5,7.21,7.21,0,0,1-1.41.26,6.58,6.58,0,0,1-1.44,0,5.68,5.68,0,0,1-3.86-2,7.45,7.45,0,0,1-1.29-4.74v-3.29Z"/><path class="cls-4" d="M114.13,452.5a6.66,6.66,0,0,1,.44-2.52,4.43,4.43,0,0,1,1.24-1.75,4.51,4.51,0,0,1,1.91-.94,7,7,0,0,1,2.49-.08,7.79,7.79,0,0,1,2.58.76,6.34,6.34,0,0,1,1.92,1.47,6.08,6.08,0,0,1,1.18,2.07,7.81,7.81,0,0,1,.4,2.53,6.68,6.68,0,0,1-.44,2.52,4.35,4.35,0,0,1-3.15,2.7,7,7,0,0,1-2.49.09,7.75,7.75,0,0,1-2.58-.77,6.35,6.35,0,0,1-1.91-1.48,6.11,6.11,0,0,1-1.18-2.07A7.82,7.82,0,0,1,114.13,452.5Zm3.07,0.4a4.83,4.83,0,0,0,.21,1.43,4,4,0,0,0,.6,1.2,3.25,3.25,0,0,0,.94.87,3.16,3.16,0,0,0,1.26.43,2.61,2.61,0,0,0,2.17-.58,3.34,3.34,0,0,0,.84-2.59,4.42,4.42,0,0,0-.78-2.66,3.1,3.1,0,0,0-2.22-1.26,3.42,3.42,0,0,0-1.19,0,2,2,0,0,0-1,.51,2.61,2.61,0,0,0-.63,1A4.7,4.7,0,0,0,117.2,452.9Z"/><path class="cls-4" d="M128,457.47l2.84,0.35v-6.44L128,451V448.5l5.16,0.63,0.34,1.56h0.09a5.12,5.12,0,0,1,1.47-1.09,3.39,3.39,0,0,1,1.93-.28,3,3,0,0,1,2.17,1.27,6,6,0,0,1,.79,3.47l-2.69-.32a2.49,2.49,0,0,0-.24-1.24,1,1,0,0,0-.77-0.47,2.09,2.09,0,0,0-1.48.28,3.89,3.89,0,0,0-1,.94v4.9l5,0.59v2.53c-4.32-.51-6.49-0.77-10.81-1.3v-2.53Z"/><path class="cls-4" d="M142.21,459.17l4,0.46v-6.44l-4-.46V450.2l7,0.8v9l4.25,0.47V463c-4.51-.5-6.77-0.75-11.27-1.27v-2.53Zm3.49-11.7a1.44,1.44,0,0,1,.53-1.16,1.86,1.86,0,0,1,1.47-.34,2.5,2.5,0,0,1,1.54.68,1.77,1.77,0,0,1,.57,1.28,1.32,1.32,0,0,1-.57,1.14,2.17,2.17,0,0,1-1.54.3,2.37,2.37,0,0,1-1.47-.64A1.73,1.73,0,0,1,145.7,447.47Z"/><path class="cls-4" d="M156.7,452.6a11.54,11.54,0,0,1,2.12-.48,11.88,11.88,0,0,1,2.86,0,6.73,6.73,0,0,1,2,.5,3.92,3.92,0,0,1,1.36,1,3.54,3.54,0,0,1,.75,1.34,5.79,5.79,0,0,1,.23,1.68q0,1.17-.08,2t-0.08,1.46a10,10,0,0,0,0,1.09c0,0.21.05,0.43,0.07,0.63l1.49,0.15v2.53l-3.86-.4-0.3-1.6h-0.11a3.4,3.4,0,0,1-1.3,1.09,4.1,4.1,0,0,1-2.28.28,4.29,4.29,0,0,1-2.72-1.21,3.5,3.5,0,0,1-1-2.55,3.43,3.43,0,0,1,.35-1.63,2.54,2.54,0,0,1,1-1,4.41,4.41,0,0,1,1.62-.49,9.31,9.31,0,0,1,2.11,0q0.41,0,.87.14l1.12,0.21a2.31,2.31,0,0,0,0-.46v-0.44a1.63,1.63,0,0,0-.5-1.31,2.66,2.66,0,0,0-1.48-.54,6.7,6.7,0,0,0-2.1.08,12.2,12.2,0,0,0-1.57.43Zm3.91,8.86a2.58,2.58,0,0,0,1.64-.23,2.31,2.31,0,0,0,.8-0.78v-1.38l-0.68-.18a8.13,8.13,0,0,0-1-.16,4.66,4.66,0,0,0-.86,0,2.65,2.65,0,0,0-.77.17,1.3,1.3,0,0,0-.55.39,1,1,0,0,0-.2.65,1.45,1.45,0,0,0,.37,1A1.94,1.94,0,0,0,160.61,461.46Z"/><path class="cls-4" d="M170.42,448.65l4.9,0.49v10.63a5.2,5.2,0,0,0,.44,2.5,1.72,1.72,0,0,0,1.4.83,3.77,3.77,0,0,0,1.17,0,4,4,0,0,0,.92-0.34l1.13,2.18q-0.39.22-.78,0.4a4.6,4.6,0,0,1-.83.29,5.31,5.31,0,0,1-1,.14,7.5,7.5,0,0,1-1.16,0,4.78,4.78,0,0,1-3.24-1.42,4.68,4.68,0,0,1-1.08-3.24v-9.66l-1.91-.19v-2.53Z"/><path class="cls-4" d="M192.67,471.75a11.6,11.6,0,0,1-3.13-1.29,10.44,10.44,0,0,1-2.69-2.29,11,11,0,0,1-1.87-3.3,12.52,12.52,0,0,1-.7-4.34,11.46,11.46,0,0,1,.7-4.2,8.84,8.84,0,0,1,1.87-3,8.2,8.2,0,0,1,2.69-1.85,10.61,10.61,0,0,1,3.13-.8l0.55,2.51a8.89,8.89,0,0,0-1.83.49,5.89,5.89,0,0,0-1.94,1.23,6.8,6.8,0,0,0-1.55,2.26,9.26,9.26,0,0,0,1.66,9.78,8.16,8.16,0,0,0,2,1.58,8.65,8.65,0,0,0,1.7.76Z"/><path class="cls-4" d="M198.45,464.85l3.52,0.3V455.1l-3,2.06-1.38-2,5.25-3.55,2,0.17v13.57l3.45,0.28v2.53l-9.83-.83v-2.53Z"/><path class="cls-4" d="M212.25,466l3.52,0.28V456.23l-3,2.08-1.38-1.95,5.25-3.59,2,0.16V466.5l3.45,0.26v2.53l-9.83-.76V466Z"/><path class="cls-4" d="M226.39,472a7.43,7.43,0,0,0,1.7-.49,6.52,6.52,0,0,0,2-1.26,7.16,7.16,0,0,0,1.62-2.27,8.17,8.17,0,0,0,.67-3.52,9.68,9.68,0,0,0-.63-3.72,8.48,8.48,0,0,0-1.55-2.51,7.41,7.41,0,0,0-1.95-1.54,10.35,10.35,0,0,0-1.83-.79l0.55-2.42a12.28,12.28,0,0,1,3.13,1.3,10.34,10.34,0,0,1,2.69,2.28,10.92,10.92,0,0,1,1.88,3.29,12.39,12.39,0,0,1,.7,4.31,11.58,11.58,0,0,1-.7,4.23,8.89,8.89,0,0,1-1.88,3,8.28,8.28,0,0,1-2.69,1.86,10.06,10.06,0,0,1-3.13.79Z"/><path class="cls-4" d="M378,474.73V472.2h2.72v-6.44H378v-2.53h2.74v-0.64a4.23,4.23,0,0,1,.38-1.87,3.78,3.78,0,0,1,1-1.29,4.14,4.14,0,0,1,1.44-.76,6,6,0,0,1,1.7-.25,10.78,10.78,0,0,1,2.62.24,6.65,6.65,0,0,1,1.7.64l-0.88,2.29a10.32,10.32,0,0,0-1.14-.45,5,5,0,0,0-1.58-.19,2.26,2.26,0,0,0-1.74.58,2.51,2.51,0,0,0-.5,1.69l4.84,0v2.53l-4.84,0v6.44l4.87,0v2.53C384.39,474.7,382.27,474.71,378,474.73Z"/><path class="cls-4" d="M392.32,463.9a12.76,12.76,0,0,1,2.13-.74,12.23,12.23,0,0,1,2.87-.34,6.35,6.35,0,0,1,2,.26,3.34,3.34,0,0,1,1.36.79,3,3,0,0,1,.75,1.25,5.49,5.49,0,0,1,.23,1.65q0,1.17-.08,2t-0.08,1.47a9.83,9.83,0,0,0,0,1.08c0,0.21.05,0.42,0.07,0.62l1.5,0v2.53l-3.87.06L399,473h-0.11a4.06,4.06,0,0,1-1.31,1.25,4.41,4.41,0,0,1-2.29.55,3.85,3.85,0,0,1-2.73-.89,3.11,3.11,0,0,1-1-2.43,3.68,3.68,0,0,1,.35-1.67,3,3,0,0,1,1-1.16,5,5,0,0,1,1.63-.69,9.58,9.58,0,0,1,2.12-.25c0.27,0,.57,0,0.87,0l1.12,0.08a2.37,2.37,0,0,0,0-.46v-0.44a1.45,1.45,0,0,0-.5-1.25,2.43,2.43,0,0,0-1.49-.36,7,7,0,0,0-2.11.33,13.7,13.7,0,0,0-1.58.62Zm3.93,8.39a2.53,2.53,0,0,0,2.44-1.3v-1.38l-0.68-.09a7.94,7.94,0,0,0-1,0,4.78,4.78,0,0,0-.87.09,2.92,2.92,0,0,0-.78.26,1.54,1.54,0,0,0-.55.46,1.1,1.1,0,0,0-.2.67,1.29,1.29,0,0,0,.38,1A1.75,1.75,0,0,0,396.24,472.29Z"/><path class="cls-4" d="M416.68,473.07a6.8,6.8,0,0,1-2.21,1.12,9.81,9.81,0,0,1-2.65.42,7.46,7.46,0,0,1-2.66-.38,5.29,5.29,0,0,1-2-1.19,5.09,5.09,0,0,1-1.21-1.9,7.08,7.08,0,0,1-.42-2.48,6.53,6.53,0,0,1,.48-2.59,5.58,5.58,0,0,1,1.35-1.94,6,6,0,0,1,2-1.23,8,8,0,0,1,2.56-.46,9.43,9.43,0,0,1,2.42.24,11.11,11.11,0,0,1,1.73.53v4l-2.54.06v-2.12a6.48,6.48,0,0,0-1.43-.13,4.39,4.39,0,0,0-1.28.22,3.22,3.22,0,0,0-1.13.64,3.36,3.36,0,0,0-.81,1.09,3.55,3.55,0,0,0-.31,1.55,3.51,3.51,0,0,0,.25,1.35,3.07,3.07,0,0,0,1.86,1.77,4.08,4.08,0,0,0,1.51.23,5.46,5.46,0,0,0,2.16-.42,9,9,0,0,0,1.26-.67Z"/><path class="cls-4" d="M420.6,465.11l-2.28.06v-2.53l2.28-.06V460l3-.93c0,1.39,0,2.08,0,3.47l6-.18v2.53l-6,.18v3.29a3.88,3.88,0,0,0,.67,2.55,2.24,2.24,0,0,0,1.87.74,4,4,0,0,0,1.13-.18,4.41,4.41,0,0,0,.91-0.41,5.45,5.45,0,0,0,.74-0.53l0.61-.52,1.38,2a4.65,4.65,0,0,1-1,.87,8.7,8.7,0,0,1-1.27.71,8.26,8.26,0,0,1-1.42.49,6.85,6.85,0,0,1-1.45.2,4.85,4.85,0,0,1-3.89-1.33q-1.3-1.4-1.3-4.53v-3.29Z"/><path class="cls-4" d="M432.57,468a7.18,7.18,0,0,1,.44-2.59,5.44,5.44,0,0,1,3.17-3.2,7.53,7.53,0,0,1,2.5-.49,7.13,7.13,0,0,1,2.59.34,5.1,5.1,0,0,1,1.93,1.16,4.92,4.92,0,0,1,1.19,1.87,7.82,7.82,0,0,1,0,5.06,5.46,5.46,0,0,1-3.17,3.21,7.47,7.47,0,0,1-2.5.49,7.09,7.09,0,0,1-2.59-.35,5.11,5.11,0,0,1-1.93-1.17,4.94,4.94,0,0,1-1.19-1.88A7.22,7.22,0,0,1,432.57,468Zm3.09-.1a4.48,4.48,0,0,0,.21,1.4,3.29,3.29,0,0,0,.6,1.11,2.57,2.57,0,0,0,.94.71,2.84,2.84,0,0,0,1.27.22,3,3,0,0,0,2.18-.93,4.66,4.66,0,0,0,.06-5.26,2.61,2.61,0,0,0-2.24-.9,3.66,3.66,0,0,0-1.2.24,2.48,2.48,0,0,0-1,.67,3.24,3.24,0,0,0-.63,1.13A5,5,0,0,0,435.66,467.88Z"/><path class="cls-4" d="M446.5,470.7l2.86-.11v-6.44l-2.86.11v-2.53l5.19-.21L452,463h0.09a6.51,6.51,0,0,1,1.48-1.33,3.78,3.78,0,0,1,1.94-.59,2.51,2.51,0,0,1,2.18.91,5.39,5.39,0,0,1,.79,3.34l-2.7.12a2.25,2.25,0,0,0-.24-1.2,0.81,0.81,0,0,0-.77-0.35,2.37,2.37,0,0,0-1.49.52,5,5,0,0,0-1,1.1v4.9l5-.22v2.53c-4.34.19-6.52,0.29-10.86,0.46V470.7Z"/><path class="cls-4" d="M460.79,470.09l4.06-.19c0-2.58,0-3.86,0-6.44l-4.06.19v-2.53l7.05-.34v9l4.26-.22c0,1,0,1.52,0,2.53-4.53.24-6.79,0.35-11.32,0.56v-2.53Zm3.5-12.26a1.71,1.71,0,0,1,.53-1.24,2.14,2.14,0,0,1,1.47-.58,2.17,2.17,0,0,1,1.54.43,1.48,1.48,0,0,1,.58,1.19,1.57,1.57,0,0,1-.58,1.24,2.47,2.47,0,0,1-1.54.55,2.06,2.06,0,0,1-1.47-.4A1.46,1.46,0,0,1,464.29,457.82Z"/><path class="cls-4" d="M475.33,461.17a13.27,13.27,0,0,1,2.13-.83,12.43,12.43,0,0,1,2.87-.46,6.25,6.25,0,0,1,2,.17,3.16,3.16,0,0,1,1.36.74,2.87,2.87,0,0,1,.75,1.22,5.4,5.4,0,0,1,.23,1.64q0,1.17-.08,2t-0.08,1.48a9.74,9.74,0,0,0,0,1.08c0,0.21.05,0.42,0.07,0.62l1.5-.09v2.53l-3.87.23L482,470h-0.11a4.32,4.32,0,0,1-1.31,1.3,4.54,4.54,0,0,1-2.29.65,3.71,3.71,0,0,1-2.73-.77,3,3,0,0,1-1-2.38,3.78,3.78,0,0,1,.35-1.69,3.21,3.21,0,0,1,1-1.21,5.2,5.2,0,0,1,1.63-.76,9.73,9.73,0,0,1,2.12-.34c0.27,0,.57,0,0.87,0l1.12,0a2.4,2.4,0,0,0,0-.46V463.9a1.39,1.39,0,0,0-.5-1.23,2.36,2.36,0,0,0-1.49-.29,7.14,7.14,0,0,0-2.1.42,14.27,14.27,0,0,0-1.58.68Zm3.92,8.22a2.88,2.88,0,0,0,1.64-.49,3,3,0,0,0,.8-0.91v-1.38l-0.68-.06a7.87,7.87,0,0,0-1,0,4.85,4.85,0,0,0-.87.13,3,3,0,0,0-.77.3,1.64,1.64,0,0,0-.55.48,1.13,1.13,0,0,0-.2.68,1.24,1.24,0,0,0,.38,1A1.7,1.7,0,0,0,479.26,469.39Z"/><path class="cls-4" d="M489.09,455l4.91-.31c0,4.25,0,6.38,0,10.63a4.76,4.76,0,0,0,.44,2.43,1.44,1.44,0,0,0,1.41.6,4,4,0,0,0,1.17-.23,4.81,4.81,0,0,0,.92-0.49l1.13,2q-0.39.28-.78,0.52a5.45,5.45,0,0,1-.83.42,5.91,5.91,0,0,1-1,.29,7.74,7.74,0,0,1-1.16.16,4.13,4.13,0,0,1-3.25-.9,4,4,0,0,1-1.08-3.06v-9.66l-1.91.12V455Z"/><path class="cls-4" d="M502.7,472.91c4.09-.28,6.14-0.42,10.22-0.72v2.46c-4.09.3-6.13,0.44-10.22,0.72v-2.46Z"/><path class="cls-4" d="M514.72,453.27l4.65-.35c0,2.36,0,3.53,0,5.89h0.09a4.34,4.34,0,0,1,1.47-1.29,5.76,5.76,0,0,1,3.78-.5,2.76,2.76,0,0,1,1.27.66,3.22,3.22,0,0,1,.83,1.37,7,7,0,0,1,.3,2.22c0,2.86,0,4.29,0,7.15l-3,.24v-6.53a2.67,2.67,0,0,0-.6-2,1.94,1.94,0,0,0-1.57-.5,2.81,2.81,0,0,0-1.56.64,3.13,3.13,0,0,0-1,1.4V469l-3,.23V455.67l-1.66.12v-2.53Z"/><path class="cls-4" d="M540.82,466a4.62,4.62,0,0,1-.77.61,8.24,8.24,0,0,1-1.1.59,9.33,9.33,0,0,1-3,.76,7.59,7.59,0,0,1-2.64-.19,4.6,4.6,0,0,1-3.2-2.85,6.81,6.81,0,0,1-.43-2.51,7.05,7.05,0,0,1,.48-2.7,6,6,0,0,1,1.32-2,6.19,6.19,0,0,1,2-1.3,8,8,0,0,1,2.44-.59,7.39,7.39,0,0,1,1.81.08,4.52,4.52,0,0,1,1.71.65,3.75,3.75,0,0,1,1.28,1.4,4.85,4.85,0,0,1,.5,2.35,11.25,11.25,0,0,1-.23,2.16l-8.28.71a2.51,2.51,0,0,0,.31,1.22,2.18,2.18,0,0,0,.76.76,3,3,0,0,0,1.08.38,5.29,5.29,0,0,0,1.3,0,7,7,0,0,0,2.27-.52,5.36,5.36,0,0,0,1.44-.91Zm-5-7.78a4,4,0,0,0-1.13.26,3.5,3.5,0,0,0-1,.56,3,3,0,0,0-.7.84,2.58,2.58,0,0,0-.32,1.08l5.66-.48A2.07,2.07,0,0,0,535.85,458.26Z"/><path class="cls-4" d="M544.34,450.85l4.9-.44V461a4.69,4.69,0,0,0,.44,2.42,1.4,1.4,0,0,0,1.4.56,4,4,0,0,0,1.17-.26,5,5,0,0,0,.92-0.51l1.13,2q-0.39.29-.78,0.55a5.63,5.63,0,0,1-.83.45,6,6,0,0,1-1,.32,7.79,7.79,0,0,1-1.16.19,4,4,0,0,1-3.24-.81,3.94,3.94,0,0,1-1.08-3v-9.66l-1.91.17v-2.53Z"/><path class="cls-4" d="M556.14,454.36L560,454l0.34,1.35h0.09a4.9,4.9,0,0,1,3.86-2.08,5.28,5.28,0,0,1,1.94.14,3.32,3.32,0,0,1,1.52.89,4.33,4.33,0,0,1,1,1.69,8.28,8.28,0,0,1,.34,2.56,8.83,8.83,0,0,1-.39,2.7,6.4,6.4,0,0,1-1.13,2.13,5.55,5.55,0,0,1-1.79,1.45,6.68,6.68,0,0,1-2.41.68,9.35,9.35,0,0,1-1.4,0,3.6,3.6,0,0,1-1.15-.22V470l-3,.29V456.73l-1.72.16v-2.53Zm7.31,1.5a3.31,3.31,0,0,0-1.6.59,2.59,2.59,0,0,0-1,1.41v4.78a2.22,2.22,0,0,0,.93.31,5,5,0,0,0,1.23,0,3.42,3.42,0,0,0,1.2-.34,2.82,2.82,0,0,0,1-.8,3.85,3.85,0,0,0,.64-1.28,6.22,6.22,0,0,0,.23-1.79,3.13,3.13,0,0,0-.74-2.27A2.17,2.17,0,0,0,563.45,455.86Z"/><path class="cls-4" d="M582.2,462a4.76,4.76,0,0,1-.77.62,8.45,8.45,0,0,1-1.1.61,9.46,9.46,0,0,1-3,.83,7.53,7.53,0,0,1-2.63-.14,4.46,4.46,0,0,1-3.19-2.79,6.75,6.75,0,0,1-.42-2.5,7.14,7.14,0,0,1,.48-2.71,6.13,6.13,0,0,1,1.32-2,6.36,6.36,0,0,1,2-1.34,8.11,8.11,0,0,1,2.44-.64,7.35,7.35,0,0,1,1.8,0,4.42,4.42,0,0,1,1.71.61,3.63,3.63,0,0,1,1.27,1.37,4.8,4.8,0,0,1,.49,2.34,11.35,11.35,0,0,1-.23,2.16l-8.27.88a2.48,2.48,0,0,0,.31,1.21,2.11,2.11,0,0,0,.76.75,3,3,0,0,0,1.08.36,5.27,5.27,0,0,0,1.3,0,7.11,7.11,0,0,0,2.26-.56,5.51,5.51,0,0,0,1.44-.94Zm-5-7.68a4,4,0,0,0-1.13.28,3.59,3.59,0,0,0-1,.58,3,3,0,0,0-.7.86,2.63,2.63,0,0,0-.32,1.09l5.65-.6A2,2,0,0,0,577.24,454.31Z"/><path class="cls-4" d="M584.61,460.41l2.85-.31v-6.44l-2.85.31v-2.53l5.17-.57,0.34,1.48h0.09a7.2,7.2,0,0,1,1.47-1.43,4,4,0,0,1,1.93-.73,2.33,2.33,0,0,1,2.17.76,5.14,5.14,0,0,1,.79,3.29l-2.69.31a2.16,2.16,0,0,0-.24-1.18,0.75,0.75,0,0,0-.77-0.29,2.53,2.53,0,0,0-1.48.63,5.49,5.49,0,0,0-1,1.17v4.9l5-.57v2.53c-4.33.5-6.49,0.74-10.82,1.22v-2.53Z"/><path class="cls-4" d="M607.94,465.11a9.69,9.69,0,0,1-3.12-.63,7.72,7.72,0,0,1-2.68-1.73,8.33,8.33,0,0,1-1.87-2.91,11.33,11.33,0,0,1-.7-4.2,12.71,12.71,0,0,1,.7-4.35,11.64,11.64,0,0,1,1.87-3.38,11.09,11.09,0,0,1,2.68-2.41,12.91,12.91,0,0,1,3.12-1.46l0.55,2.39a10.9,10.9,0,0,0-1.82.88,7.92,7.92,0,0,0-1.94,1.64,9.06,9.06,0,0,0-1.55,2.59,10,10,0,0,0-.63,3.76,8,8,0,0,0,.67,3.48,6.67,6.67,0,0,0,1.62,2.19,6.06,6.06,0,0,0,2,1.17,7.1,7.1,0,0,0,1.7.4Z"/><path class="cls-4" d="M613.69,457l3.51-.44V446.51l-3,2.7-1.38-1.67,5.23-4.66,2-.26v13.57l3.44-.44v2.53l-9.79,1.25V457Z"/><path class="cls-4" d="M630,455.95a1.81,1.81,0,0,1,.52-1.31,2.16,2.16,0,0,1,1.3-.63,2,2,0,0,1,1.9.57,2.89,2.89,0,0,1,.64,2,4.74,4.74,0,0,1-.4,1.94,6,6,0,0,1-1,1.61,6.83,6.83,0,0,1-1.43,1.21,6.65,6.65,0,0,1-1.57.74l-0.62-1.18a7.66,7.66,0,0,0,1.11-.54,5.42,5.42,0,0,0,1-.77,4.34,4.34,0,0,0,.77-1,2.75,2.75,0,0,0,.36-1.15,3,3,0,0,1-1.17.19,1.54,1.54,0,0,1-.79-0.26,1.25,1.25,0,0,1-.45-0.58A2.21,2.21,0,0,1,630,455.95Z"/><path class="cls-4" d="M641.2,453.37l3.5-.49V442.82l-3,2.75-1.37-1.65,5.22-4.73,2-.29v13.57L651,452v2.53l-9.78,1.39v-2.53Z"/><path class="cls-4" d="M654.94,451.4l3.5-.52V440.84l-3,2.77L654,442l5.22-4.77,2-.3v13.57l3.43-.52v2.53l-9.77,1.45V451.4Z"/><path class="cls-4" d="M669,454.2a9.23,9.23,0,0,0,1.69-.87,8.94,8.94,0,0,0,2-1.71,9.74,9.74,0,0,0,1.61-2.63,9.3,9.3,0,0,0,.66-3.67,8.67,8.67,0,0,0-.63-3.58,6.23,6.23,0,0,0-1.54-2.16,5.4,5.4,0,0,0-1.93-1.1,8.45,8.45,0,0,0-1.82-.38l0.55-2.55a10.07,10.07,0,0,1,3.11.6,7.47,7.47,0,0,1,2.67,1.68,8.13,8.13,0,0,1,1.86,2.87,11.17,11.17,0,0,1,.7,4.16,13,13,0,0,1-.7,4.39,11.93,11.93,0,0,1-1.86,3.42,11.42,11.42,0,0,1-2.67,2.46,12.34,12.34,0,0,1-3.11,1.49Z"/><path class="cls-4" d="M60.31,399.35v-2.53l2.7,0.43V390.8l-2.72-.43v-2.53L63,388.27v-0.64a3.87,3.87,0,0,1,.38-1.8,3,3,0,0,1,1-1.13,3.43,3.43,0,0,1,1.43-.53,5.73,5.73,0,0,1,1.68,0,11.54,11.54,0,0,1,2.6.66,7.88,7.88,0,0,1,1.68.91l-0.87,2.14a12.31,12.31,0,0,0-1.13-.63,5.45,5.45,0,0,0-1.57-.45,2,2,0,0,0-1.73.3,2.21,2.21,0,0,0-.49,1.61l4.8,0.74V392l-4.8-.74c0,2.58,0,3.86,0,6.44l4.82,0.74c0,1,0,1.52,0,2.53C66.61,400.34,64.51,400,60.31,399.35Z"/><path class="cls-4" d="M74.47,390.82a11.18,11.18,0,0,1,2.12-.39,11.81,11.81,0,0,1,2.85.12,6.9,6.9,0,0,1,2,.59,4.14,4.14,0,0,1,1.35,1,3.75,3.75,0,0,1,.74,1.37,5.91,5.91,0,0,1,.23,1.69q0,1.17-.08,2c-0.05.54-.08,1-0.08,1.46a10.07,10.07,0,0,0,0,1.09c0,0.21.05,0.43,0.07,0.63l1.49,0.22v2.53l-3.84-.56L81.08,401l-0.11,0a3.19,3.19,0,0,1-1.3,1,4,4,0,0,1-2.27.18,4.47,4.47,0,0,1-2.71-1.33,3.66,3.66,0,0,1-1-2.59,3.35,3.35,0,0,1,.35-1.61,2.39,2.39,0,0,1,1-1,4.23,4.23,0,0,1,1.61-.42,9.25,9.25,0,0,1,2.1.09q0.41,0.06.86,0.17l1.11,0.26a2.29,2.29,0,0,0,0-.45v-0.44a1.7,1.7,0,0,0-.5-1.33,2.76,2.76,0,0,0-1.48-.6,6.63,6.63,0,0,0-2.09,0,11.78,11.78,0,0,0-1.57.36Zm3.89,9a2.52,2.52,0,0,0,1.63-.16,2.18,2.18,0,0,0,.79-0.75v-1.38l-0.68-.2a8.28,8.28,0,0,0-1-.2,4.65,4.65,0,0,0-.86,0,2.55,2.55,0,0,0-.77.14,1.21,1.21,0,0,0-.54.37,1,1,0,0,0-.2.64,1.51,1.51,0,0,0,.37,1.06A2,2,0,0,0,78.36,399.84Z"/><path class="cls-4" d="M98.64,403.93a5.66,5.66,0,0,1-2.2.76,9.32,9.32,0,0,1-2.63,0,8.17,8.17,0,0,1-2.65-.81,6.56,6.56,0,0,1-1.95-1.51,6.31,6.31,0,0,1-1.2-2.09,7.69,7.69,0,0,1-.41-2.54,6,6,0,0,1,.48-2.51,4.43,4.43,0,0,1,1.34-1.72,4.87,4.87,0,0,1,2-.9,7.52,7.52,0,0,1,2.54,0,10.13,10.13,0,0,1,2.4.64,12.92,12.92,0,0,1,1.72.81v4l-2.52-.35v-2.12a6.91,6.91,0,0,0-1.42-.36,4.13,4.13,0,0,0-1.27,0A2.58,2.58,0,0,0,91,396.67a3.25,3.25,0,0,0-.31,1.5,3.85,3.85,0,0,0,.25,1.39,3.85,3.85,0,0,0,1.84,2.07,4.48,4.48,0,0,0,1.5.48,5.09,5.09,0,0,0,2.14-.07,7.3,7.3,0,0,0,1.25-.47Z"/><path class="cls-4" d="M102.54,396.6l-2.27-.31v-2.53l2.27,0.31c0-1,0-1.57,0-2.62l3-.45v3.47l6,0.8v2.53l-6-.8v3.29a4.39,4.39,0,0,0,.66,2.65,2.66,2.66,0,0,0,1.86,1,3.83,3.83,0,0,0,1.12,0,3.75,3.75,0,0,0,.91-0.26,4.34,4.34,0,0,0,.73-0.41l0.61-.43,1.38,2.25a3.67,3.67,0,0,1-1,.71,7.14,7.14,0,0,1-1.26.5,7.25,7.25,0,0,1-1.41.26,6.59,6.59,0,0,1-1.44,0,5.68,5.68,0,0,1-3.86-2,7.45,7.45,0,0,1-1.29-4.74V396.6Z"/><path class="cls-4" d="M114.43,401.4a6.65,6.65,0,0,1,.44-2.52,4.43,4.43,0,0,1,1.24-1.75,4.51,4.51,0,0,1,1.92-.94,7,7,0,0,1,2.49-.09,7.8,7.8,0,0,1,2.58.76,6.34,6.34,0,0,1,1.92,1.47,6.08,6.08,0,0,1,1.18,2.07,7.8,7.8,0,0,1,.4,2.53,6.68,6.68,0,0,1-.44,2.52,4.45,4.45,0,0,1-1.24,1.76,4.5,4.5,0,0,1-1.91.95,7,7,0,0,1-2.49.09,7.74,7.74,0,0,1-2.58-.77A6.35,6.35,0,0,1,116,406a6.11,6.11,0,0,1-1.18-2.07A7.82,7.82,0,0,1,114.43,401.4Zm3.07,0.4a4.85,4.85,0,0,0,.21,1.43,4,4,0,0,0,.6,1.2,3.25,3.25,0,0,0,.94.87,3.15,3.15,0,0,0,1.26.43,2.61,2.61,0,0,0,2.17-.58,3.34,3.34,0,0,0,.84-2.59,4.42,4.42,0,0,0-.78-2.66,3.09,3.09,0,0,0-2.23-1.26,3.42,3.42,0,0,0-1.19,0,2,2,0,0,0-1,.51,2.62,2.62,0,0,0-.63,1A4.71,4.71,0,0,0,117.5,401.8Z"/><path class="cls-4" d="M128.28,406.37l2.85,0.35v-6.44l-2.85-.35V397.4l5.16,0.63,0.34,1.56h0.09a5.1,5.1,0,0,1,1.47-1.09,3.38,3.38,0,0,1,1.93-.28,3,3,0,0,1,2.17,1.27,6,6,0,0,1,.79,3.47l-2.69-.32a2.49,2.49,0,0,0-.24-1.24,1,1,0,0,0-.77-0.47,2.08,2.08,0,0,0-1.48.28,3.9,3.9,0,0,0-1,.94v4.9l5,0.59v2.53c-4.32-.51-6.49-0.77-10.81-1.3v-2.53Z"/><path class="cls-4" d="M142.51,408.07l4,0.46v-6.44l-4-.46V399.1l7,0.8v9l4.25,0.47v2.53c-4.51-.49-6.77-0.75-11.27-1.27v-2.53Zm3.49-11.7a1.44,1.44,0,0,1,.53-1.16,1.86,1.86,0,0,1,1.47-.34,2.5,2.5,0,0,1,1.54.68,1.76,1.76,0,0,1,.57,1.28,1.32,1.32,0,0,1-.57,1.14,2.17,2.17,0,0,1-1.54.3,2.37,2.37,0,0,1-1.47-.64A1.73,1.73,0,0,1,146,396.37Z"/><path class="cls-4" d="M157,401.5a11.55,11.55,0,0,1,2.13-.48,11.87,11.87,0,0,1,2.86,0,6.73,6.73,0,0,1,2,.5,3.91,3.91,0,0,1,1.36,1,3.55,3.55,0,0,1,.75,1.34,5.8,5.8,0,0,1,.23,1.68q0,1.17-.08,2c-0.05.55-.08,1-0.08,1.46a9.93,9.93,0,0,0,0,1.09c0,0.21.05,0.43,0.07,0.63l1.49,0.15v2.53l-3.86-.4-0.3-1.6h-0.11a3.4,3.4,0,0,1-1.3,1.09,4.1,4.1,0,0,1-2.28.28,4.29,4.29,0,0,1-2.72-1.21,3.5,3.5,0,0,1-1-2.55,3.43,3.43,0,0,1,.35-1.63,2.55,2.55,0,0,1,1-1,4.41,4.41,0,0,1,1.62-.49,9.3,9.3,0,0,1,2.11,0c0.27,0,.56.07,0.87,0.14l1.12,0.21a2.31,2.31,0,0,0,0-.46v-0.44a1.63,1.63,0,0,0-.5-1.31,2.67,2.67,0,0,0-1.48-.54,6.7,6.7,0,0,0-2.1.08,12.24,12.24,0,0,0-1.57.43Zm3.91,8.86a2.58,2.58,0,0,0,1.64-.23,2.32,2.32,0,0,0,.8-0.78V408l-0.68-.18a8.13,8.13,0,0,0-1-.16,4.66,4.66,0,0,0-.86,0,2.64,2.64,0,0,0-.77.17,1.29,1.29,0,0,0-.55.39,1,1,0,0,0-.2.65,1.45,1.45,0,0,0,.37,1A1.94,1.94,0,0,0,160.91,410.36Z"/><path class="cls-4" d="M170.72,397.55l4.9,0.49c0,4.25,0,6.38,0,10.63a5.2,5.2,0,0,0,.44,2.5,1.72,1.72,0,0,0,1.4.83,3.77,3.77,0,0,0,1.17,0,4,4,0,0,0,.92-0.34l1.13,2.18q-0.39.22-.78,0.4a4.58,4.58,0,0,1-.83.29,5.3,5.3,0,0,1-1,.14,7.52,7.52,0,0,1-1.16,0,4.78,4.78,0,0,1-3.24-1.42,4.68,4.68,0,0,1-1.08-3.24c0-3.86,0-5.8,0-9.66l-1.91-.19v-2.53Z"/><path class="cls-4" d="M184.3,417.67c4.08,0.38,6.13.57,10.21,0.93,0,1,0,1.48,0,2.46-4.09-.36-6.13-0.55-10.21-0.93C184.3,419.15,184.3,418.65,184.3,417.67Z"/><path class="cls-4" d="M196.31,400l4.65,0.4c0,2.36,0,3.53,0,5.89H201a3.45,3.45,0,0,1,1.47-1,4.82,4.82,0,0,1,2.16-.26,5.64,5.64,0,0,1,1.61.36,3.41,3.41,0,0,1,1.27.86,4,4,0,0,1,.83,1.51,7.5,7.5,0,0,1,.3,2.27c0,2.86,0,4.29,0,7.15l-3-.25v-6.53a3,3,0,0,0-.6-2.07,2.27,2.27,0,0,0-1.57-.75,2.44,2.44,0,0,0-1.56.39,2.5,2.5,0,0,0-1,1.24v7.34l-3-.26c0-5.43,0-8.14,0-13.57l-1.66-.14C196.31,401.49,196.31,401,196.31,400Z"/><path class="cls-4" d="M222.41,417a3.72,3.72,0,0,1-.77.48,6.89,6.89,0,0,1-1.11.41,8.11,8.11,0,0,1-1.39.26,8.81,8.81,0,0,1-1.61,0,8.15,8.15,0,0,1-2.64-.62,5.77,5.77,0,0,1-3.2-3.37,7.37,7.37,0,0,1-.43-2.58,6.47,6.47,0,0,1,.48-2.62,4.76,4.76,0,0,1,1.32-1.79,5,5,0,0,1,2-1,7.43,7.43,0,0,1,2.44-.19,7.85,7.85,0,0,1,1.81.37,5.41,5.41,0,0,1,1.72.92,4.76,4.76,0,0,1,1.28,1.6,5.36,5.36,0,0,1,.49,2.43,10.69,10.69,0,0,1-.23,2.12l-8.29-.63a2.81,2.81,0,0,0,.31,1.27,2.74,2.74,0,0,0,.76.89,3.59,3.59,0,0,0,1.08.56,5.58,5.58,0,0,0,1.3.25,6.56,6.56,0,0,0,2.27-.15,4.38,4.38,0,0,0,1.44-.67Zm-5-8.59a3.71,3.71,0,0,0-1.13.08,2.88,2.88,0,0,0-1,.41,2.35,2.35,0,0,0-.7.73,2.27,2.27,0,0,0-.32,1l5.66,0.44A2.48,2.48,0,0,0,217.43,408.38Z"/><path class="cls-4" d="M225.93,402.35l4.9,0.35c0,4.25,0,6.38,0,10.63a5.11,5.11,0,0,0,.44,2.49,1.66,1.66,0,0,0,1.41.79,3.8,3.8,0,0,0,1.17-.07,4.16,4.16,0,0,0,.92-0.36l1.13,2.15q-0.39.23-.78,0.42a4.71,4.71,0,0,1-.83.31,5.39,5.39,0,0,1-1,.16,7.55,7.55,0,0,1-1.16,0,4.65,4.65,0,0,1-3.25-1.33,4.56,4.56,0,0,1-1.08-3.21c0-3.86,0-5.8,0-9.66l-1.91-.14C225.93,403.86,225.93,403.36,225.93,402.35Z"/><path class="cls-4" d="M237.74,407.77l3.92,0.26,0.35,1.4h0.09A4.14,4.14,0,0,1,246,408a5.69,5.69,0,0,1,1.95.45,4.15,4.15,0,0,1,1.52,1.14,5.31,5.31,0,0,1,1,1.85,8.8,8.8,0,0,1,.35,2.62,8.21,8.21,0,0,1-.39,2.63,5.22,5.22,0,0,1-1.13,1.94,4.44,4.44,0,0,1-1.8,1.15,6.11,6.11,0,0,1-2.42.29,9.64,9.64,0,0,1-1.4-.19,4.09,4.09,0,0,1-1.15-.41c0,1.89,0,2.83,0,4.71l-3-.19c0-5.43,0-8.14,0-13.57l-1.73-.11C237.74,409.29,237.74,408.78,237.74,407.77Zm7.33,2.68a2.92,2.92,0,0,0-1.6.34,2.08,2.08,0,0,0-1,1.25v4.78a2.65,2.65,0,0,0,.93.46,5.3,5.3,0,0,0,1.23.23,3.12,3.12,0,0,0,1.2-.14,2.25,2.25,0,0,0,1-.64,3.15,3.15,0,0,0,.64-1.18,5.83,5.83,0,0,0,.23-1.76,3.59,3.59,0,0,0-.74-2.39A2.56,2.56,0,0,0,245.07,410.45Z"/><path class="cls-4" d="M263.87,419.62a3.8,3.8,0,0,1-.77.5,7,7,0,0,1-1.11.44,8.21,8.21,0,0,1-1.39.29,8.84,8.84,0,0,1-1.61,0,8.07,8.07,0,0,1-2.64-.56,5.6,5.6,0,0,1-3.2-3.3,7.29,7.29,0,0,1-.43-2.57,6.54,6.54,0,0,1,.48-2.63,4.9,4.9,0,0,1,1.32-1.82,5.16,5.16,0,0,1,2-1,7.49,7.49,0,0,1,2.44-.24,7.77,7.77,0,0,1,1.81.33,5.29,5.29,0,0,1,1.72.89,4.61,4.61,0,0,1,1.28,1.58,5.28,5.28,0,0,1,.5,2.42,10.75,10.75,0,0,1-.23,2.13l-8.3-.46a2.77,2.77,0,0,0,.31,1.26,2.68,2.68,0,0,0,.76.87,3.51,3.51,0,0,0,1.08.53,5.53,5.53,0,0,0,1.3.22,6.6,6.6,0,0,0,2.27-.2,4.5,4.5,0,0,0,1.44-.7Zm-5-8.48a3.73,3.73,0,0,0-1.13.1,3,3,0,0,0-1,.43,2.41,2.41,0,0,0-.7.75,2.29,2.29,0,0,0-.32,1l5.67,0.32A2.42,2.42,0,0,0,258.89,411.13Z"/><path class="cls-4" d="M266.29,418.43l2.86,0.15c0-2.58,0-3.86,0-6.44l-2.86-.15c0-1,0-1.52,0-2.53l5.19,0.26,0.35,1.53h0.09a5.68,5.68,0,0,1,1.48-1.19,3.54,3.54,0,0,1,1.94-.41,2.76,2.76,0,0,1,2.18,1.11,5.74,5.74,0,0,1,.79,3.42l-2.7-.13a2.38,2.38,0,0,0-.24-1.22,0.9,0.9,0,0,0-.77-0.42,2.2,2.2,0,0,0-1.49.39,4.33,4.33,0,0,0-1,1v4.9l5,0.24c0,1,0,1.52,0,2.53-4.34-.2-6.51-0.31-10.86-0.54C266.29,420,266.29,419.45,266.29,418.43Z"/><path class="cls-4" d="M289.71,426.92a11.08,11.08,0,0,1-3.14-1.14,9.72,9.72,0,0,1-2.7-2.16,10.3,10.3,0,0,1-1.88-3.21,12.2,12.2,0,0,1-.7-4.31,11.71,11.71,0,0,1,.7-4.24,9.44,9.44,0,0,1,1.88-3.08,8.8,8.8,0,0,1,2.7-2,11.07,11.07,0,0,1,3.14-1l0.55,2.48a9.31,9.31,0,0,0-1.83.58,6.32,6.32,0,0,0-1.95,1.32,7.28,7.28,0,0,0-1.56,2.34,9.12,9.12,0,0,0-.63,3.65,8.69,8.69,0,0,0,.67,3.59,8.35,8.35,0,0,0,1.63,2.45,7.6,7.6,0,0,0,2,1.48,8.21,8.21,0,0,0,1.71.68Z"/><path class="cls-4" d="M295.5,419.74l3.53,0.13c0-4,0-6,0-10.05L296,412l-1.38-1.89,5.26-3.81,2,0.07c0,5.43,0,8.14,0,13.57l3.46,0.11v2.53l-9.85-.34v-2.53Z"/><path class="cls-4" d="M311.92,421.34a1.53,1.53,0,0,1,.52-1.23,1.85,1.85,0,0,1,1.3-.42,2.35,2.35,0,0,1,1.91.88,3.3,3.3,0,0,1,.65,2.06,4.27,4.27,0,0,1-.4,1.88,4.79,4.79,0,0,1-1,1.44,5.45,5.45,0,0,1-1.44,1,5.72,5.72,0,0,1-1.58.48l-0.62-1.28a6.53,6.53,0,0,0,1.12-.36,4.36,4.36,0,0,0,1-.6,3.42,3.42,0,0,0,.77-0.86,2.38,2.38,0,0,0,.36-1.09,2.94,2.94,0,0,1-1.18,0,1.84,1.84,0,0,1-.8-0.39,1.57,1.57,0,0,1-.45-0.66A2.38,2.38,0,0,1,311.92,421.34Z"/><path class="cls-4" d="M323.18,420.57l3.53,0.08V410.6l-3,2.26L322.28,411l5.26-3.88,2,0c0,5.43,0,8.14,0,13.57l3.46,0.07v2.53l-9.85-.2v-2.53Z"/><path class="cls-4" d="M337,420.85l3.53,0.05V410.85l-3,2.28-1.38-1.86,5.26-3.92,2,0v13.57l3.46,0v2.53l-9.85-.13v-2.53Z"/><path class="cls-4" d="M351.18,425.92a7.87,7.87,0,0,0,1.71-.59,7.13,7.13,0,0,0,2-1.39,7.81,7.81,0,0,0,1.63-2.37,8.45,8.45,0,0,0,.67-3.56,9.36,9.36,0,0,0-.63-3.68,7.78,7.78,0,0,0-1.56-2.41A6.78,6.78,0,0,0,353,410.5a9.73,9.73,0,0,0-1.83-.67l0.55-2.46a11.57,11.57,0,0,1,3.14,1.11,9.44,9.44,0,0,1,2.7,2.11,10.06,10.06,0,0,1,1.88,3.17,13.33,13.33,0,0,1,0,8.54,9.67,9.67,0,0,1-1.88,3.12,9.08,9.08,0,0,1-2.7,2,10.62,10.62,0,0,1-3.14,1Z"/><path class="cls-4" d="M515.32,415.67l2.85-.21V409l-2.85.21V406.7l5.18-.39,0.34,1.49h0.09a6.84,6.84,0,0,1,1.47-1.38,3.88,3.88,0,0,1,1.93-.66,2.42,2.42,0,0,1,2.18.84,5.26,5.26,0,0,1,.79,3.32l-2.69.21a2.2,2.2,0,0,0-.24-1.19,0.78,0.78,0,0,0-.77-0.32,2.45,2.45,0,0,0-1.48.58,5.22,5.22,0,0,0-1,1.13v4.9l5-.39v2.53c-4.34.35-6.5,0.51-10.84,0.84v-2.53Z"/><path class="cls-4" d="M540.52,414.94a4.62,4.62,0,0,1-.77.61,8.25,8.25,0,0,1-1.1.59,9.33,9.33,0,0,1-3,.76,7.58,7.58,0,0,1-2.64-.19,4.6,4.6,0,0,1-3.2-2.85,6.81,6.81,0,0,1-.43-2.51,7,7,0,0,1,.48-2.7,6,6,0,0,1,1.32-2,6.19,6.19,0,0,1,2-1.3,8,8,0,0,1,2.44-.59,7.4,7.4,0,0,1,1.81.08,4.52,4.52,0,0,1,1.71.65,3.75,3.75,0,0,1,1.28,1.4,4.86,4.86,0,0,1,.5,2.35,11.24,11.24,0,0,1-.23,2.16l-8.28.71a2.51,2.51,0,0,0,.31,1.22,2.18,2.18,0,0,0,.76.76,3,3,0,0,0,1.08.38,5.29,5.29,0,0,0,1.3,0,7,7,0,0,0,2.27-.52,5.36,5.36,0,0,0,1.44-.91Zm-5-7.78a4,4,0,0,0-1.13.26,3.49,3.49,0,0,0-1,.56,3,3,0,0,0-.7.84,2.58,2.58,0,0,0-.32,1.08l5.66-.48A2.07,2.07,0,0,0,535.55,407.16Z"/><path class="cls-4" d="M554.6,413.78a7.39,7.39,0,0,1-2.21,1.28,10.14,10.14,0,0,1-2.64.6,7.24,7.24,0,0,1-2.66-.19,4.82,4.82,0,0,1-2-1.05,4.63,4.63,0,0,1-1.21-1.81,7.39,7.39,0,0,1,.07-5.07,6.14,6.14,0,0,1,1.35-2,6.56,6.56,0,0,1,2-1.37,8.3,8.3,0,0,1,2.55-.64,9.23,9.23,0,0,1,2.41.07,10.48,10.48,0,0,1,1.73.41c0,1.62,0,2.43,0,4l-2.53.24c0-.85,0-1.27,0-2.12a6.35,6.35,0,0,0-1.43,0,4.55,4.55,0,0,0-1.28.31,3.51,3.51,0,0,0-1.13.72,3.61,3.61,0,0,0-1.12,2.71,3.39,3.39,0,0,0,.25,1.33,2.78,2.78,0,0,0,1.85,1.64,4,4,0,0,0,1.51.13,5.68,5.68,0,0,0,2.15-.57,9.77,9.77,0,0,0,1.25-.76Z"/><path class="cls-4" d="M563.43,402.53l4.28-.43c0,3.2,0,4.8,0,8v1l1.75-.18v2.53l-3.63.37-0.53-1.65H565.2a4.7,4.7,0,0,1-1.59,1.61,5.23,5.23,0,0,1-2.35.81,5.1,5.1,0,0,1-1.6-.07,2.55,2.55,0,0,1-1.23-.64,3.12,3.12,0,0,1-.78-1.35,7.5,7.5,0,0,1-.28-2.23v-4.62l-1.31.13v-2.53l4.3-.41c0,2.61,0,3.92,0,6.53a3.31,3.31,0,0,0,.45,2,1.48,1.48,0,0,0,1.41.48,2.74,2.74,0,0,0,1.53-.66,3.13,3.13,0,0,0,1-1.34v-4.9l-1.29.13v-2.53Z"/><path class="cls-4" d="M570.53,410.78l2.85-.29V404l-2.85.29v-2.53l5.17-.54,0.34,1.48h0.09a7.13,7.13,0,0,1,1.47-1.42,4,4,0,0,1,1.93-.71,2.35,2.35,0,0,1,2.17.78,5.17,5.17,0,0,1,.79,3.29l-2.69.29a2.17,2.17,0,0,0-.24-1.18,0.76,0.76,0,0,0-.77-0.3,2.51,2.51,0,0,0-1.48.62,5.44,5.44,0,0,0-1,1.16v4.9l5-.53v2.53c-4.33.47-6.49,0.7-10.82,1.14v-2.53Z"/><path class="cls-4" d="M593.86,415.65a9.74,9.74,0,0,1-3.12-.66,7.79,7.79,0,0,1-2.69-1.74,8.4,8.4,0,0,1-1.87-2.92,11.36,11.36,0,0,1-.7-4.2,12.66,12.66,0,0,1,.7-4.34,11.54,11.54,0,0,1,1.87-3.37,11,11,0,0,1,2.69-2.4,12.81,12.81,0,0,1,3.12-1.44l0.55,2.4a10.81,10.81,0,0,0-1.82.87,7.85,7.85,0,0,0-1.94,1.62A9,9,0,0,0,589.1,402a9.9,9.9,0,0,0-.63,3.75,8,8,0,0,0,.67,3.49,6.74,6.74,0,0,0,1.62,2.2,6.12,6.12,0,0,0,2,1.18,7.14,7.14,0,0,0,1.7.41Z"/><path class="cls-4" d="M599.63,407.57l3.51-.42V397.1l-3,2.68-1.38-1.68,5.23-4.62,2-.24c0,5.43,0,8.14,0,13.57l3.44-.42v2.53c-3.92.48-5.88,0.72-9.8,1.18v-2.53Z"/><path class="cls-4" d="M613.39,405.9l3.51-.44V395.41l-3,2.7-1.38-1.67,5.23-4.66,2-.26c0,5.43,0,8.14,0,13.57l3.44-.44c0,1,0,1.52,0,2.53l-9.79,1.25C613.39,407.42,613.39,406.91,613.39,405.9Z"/><path class="cls-4" d="M629.72,404.85a1.81,1.81,0,0,1,.52-1.31,2.15,2.15,0,0,1,1.3-.63,2,2,0,0,1,1.9.57,2.89,2.89,0,0,1,.64,2,4.73,4.73,0,0,1-.4,1.94,6,6,0,0,1-1,1.61,6.83,6.83,0,0,1-1.43,1.21,6.64,6.64,0,0,1-1.57.74L629,409.75a7.62,7.62,0,0,0,1.11-.54,5.41,5.41,0,0,0,1-.77,4.33,4.33,0,0,0,.77-1,2.75,2.75,0,0,0,.36-1.15,3,3,0,0,1-1.17.19,1.54,1.54,0,0,1-.79-0.26,1.25,1.25,0,0,1-.45-0.58A2.21,2.21,0,0,1,629.72,404.85Z"/><path class="cls-4" d="M640.9,402.27l3.5-.49V391.73l-3,2.75L640,392.83l5.22-4.73,2-.29v13.57l3.43-.49v2.53l-9.78,1.39v-2.53Z"/><path class="cls-4" d="M653.08,395a14.54,14.54,0,0,1,.44-3.73,8.93,8.93,0,0,1,1.23-2.79,6.32,6.32,0,0,1,1.9-1.83,6.43,6.43,0,0,1,2.46-.88,4.61,4.61,0,0,1,4.46,1.37q1.56,1.8,1.56,6.08a14.65,14.65,0,0,1-.44,3.76,9.14,9.14,0,0,1-1.23,2.81,6.26,6.26,0,0,1-1.91,1.85,6.49,6.49,0,0,1-2.47.89,4.45,4.45,0,0,1-4.46-1.49Q653.08,399.09,653.08,395Zm3-.44c0,0.23,0,.45,0,0.65s0,0.42,0,.63l5.54-6a2.16,2.16,0,0,0-2.56-1.59,3,3,0,0,0-2.24,1.75A10.22,10.22,0,0,0,656.06,394.56Zm6.09-.91q0-.37,0-0.7c0-.22,0-0.44,0-0.65l-5.56,6A2.2,2.2,0,0,0,659.1,400a3,3,0,0,0,2.25-1.74A10.25,10.25,0,0,0,662.14,393.65Z"/><path class="cls-4" d="M668.68,403.1a9.22,9.22,0,0,0,1.69-.87,8.94,8.94,0,0,0,2-1.71,9.74,9.74,0,0,0,1.61-2.63,9.3,9.3,0,0,0,.66-3.67,8.67,8.67,0,0,0-.63-3.58,6.23,6.23,0,0,0-1.54-2.16,5.4,5.4,0,0,0-1.93-1.1,8.45,8.45,0,0,0-1.82-.38l0.55-2.55a10.08,10.08,0,0,1,3.11.6,7.47,7.47,0,0,1,2.67,1.68,8.13,8.13,0,0,1,1.86,2.87,11.17,11.17,0,0,1,.7,4.16,13,13,0,0,1-.7,4.39,11.93,11.93,0,0,1-1.86,3.42,11.43,11.43,0,0,1-2.67,2.46,12.35,12.35,0,0,1-3.11,1.49Z"/><path class="cls-4" d="M59.93,345.32l2.84,0.4v-6.44l-2.84-.4v-2.53l5.15,0.73,0.34,1.57h0.09A5,5,0,0,1,67,337.59a3.34,3.34,0,0,1,1.92-.24,3,3,0,0,1,2.16,1.31,6.12,6.12,0,0,1,.79,3.49l-2.68-.37a2.52,2.52,0,0,0-.24-1.24,1,1,0,0,0-.77-0.49,2.05,2.05,0,0,0-1.48.26,3.78,3.78,0,0,0-1,.93v4.9l5,0.69v2.53c-4.31-.59-6.47-0.89-10.78-1.51v-2.53Z"/><path class="cls-4" d="M85,350a3.44,3.44,0,0,1-.77.44,6.49,6.49,0,0,1-1.1.35,7.84,7.84,0,0,1-1.39.18,8.75,8.75,0,0,1-1.6-.07,8.42,8.42,0,0,1-2.62-.76,6.22,6.22,0,0,1-3.18-3.55,7.6,7.6,0,0,1-.42-2.6,6.3,6.3,0,0,1,.48-2.59,4.4,4.4,0,0,1,1.32-1.72,4.68,4.68,0,0,1,2-.88,7.29,7.29,0,0,1,2.43-.06,8.06,8.06,0,0,1,1.8.47,5.77,5.77,0,0,1,1.71,1A5.14,5.14,0,0,1,84.88,342a5.56,5.56,0,0,1,.49,2.46,10.55,10.55,0,0,1-.23,2.11l-8.25-1.09a2.93,2.93,0,0,0,.31,1.28,3,3,0,0,0,.76.93,3.82,3.82,0,0,0,1.08.62,5.73,5.73,0,0,0,1.29.32,6.45,6.45,0,0,0,2.26,0A4.09,4.09,0,0,0,84,348Zm-4.95-8.86a3.64,3.64,0,0,0-1.12,0,2.7,2.7,0,0,0-1,.35,2.13,2.13,0,0,0-1,1.7L82.6,344a2.85,2.85,0,0,0-.63-1.9A2.88,2.88,0,0,0,80.06,341.19Z"/><path class="cls-4" d="M99,352a5.74,5.74,0,0,1-2.2.8,9.34,9.34,0,0,1-2.64,0,8.09,8.09,0,0,1-2.65-.77,6.43,6.43,0,0,1-1.95-1.48,6.19,6.19,0,0,1-1.2-2.07,7.63,7.63,0,0,1-.41-2.54,6.06,6.06,0,0,1,.48-2.51,4.52,4.52,0,0,1,1.34-1.74,5,5,0,0,1,2-.93,7.54,7.54,0,0,1,2.54-.08,10,10,0,0,1,2.41.6,12.72,12.72,0,0,1,1.72.79v4L96,345.77v-2.12a6.86,6.86,0,0,0-1.42-.34,4.16,4.16,0,0,0-1.27,0,2.63,2.63,0,0,0-1.92,1.45,3.28,3.28,0,0,0-.31,1.5,3.83,3.83,0,0,0,1,2.56,3.86,3.86,0,0,0,1.13.87,4.43,4.43,0,0,0,1.5.45,5.11,5.11,0,0,0,2.14-.1A7.43,7.43,0,0,0,98,349.6Z"/><path class="cls-4" d="M107.84,342.63l4.27,0.51v9l1.74,0.2v2.53l-3.63-.43-0.53-1.76H109.6A3.41,3.41,0,0,1,108,353.9a4.51,4.51,0,0,1-2.34.29,5.61,5.61,0,0,1-1.59-.42,3.39,3.39,0,0,1-1.23-.91,4.11,4.11,0,0,1-.78-1.52,8.19,8.19,0,0,1-.27-2.29v-4.62l-1.31-.16v-2.53l4.29,0.52v6.53a3.82,3.82,0,0,0,.45,2.08,1.85,1.85,0,0,0,1.41.79,2.27,2.27,0,0,0,1.53-.32,2.3,2.3,0,0,0,1-1.13v-4.9l-1.28-.15v-2.53Z"/><path class="cls-4" d="M114.92,352.44l2.85,0.33v-6.44l-2.85-.33v-2.53l5.16,0.6,0.34,1.56h0.09a5.14,5.14,0,0,1,1.47-1.1,3.39,3.39,0,0,1,1.93-.29,3,3,0,0,1,2.17,1.25,6,6,0,0,1,.79,3.47l-2.69-.3a2.48,2.48,0,0,0-.24-1.23,1,1,0,0,0-.77-0.47,2.09,2.09,0,0,0-1.48.29,3.93,3.93,0,0,0-1,1v4.9l5,0.56v2.53c-4.32-.48-6.49-0.73-10.81-1.23v-2.53Z"/><path class="cls-4" d="M138.24,362.43a11.76,11.76,0,0,1-3.12-1.34,10.68,10.68,0,0,1-2.69-2.34,11.21,11.21,0,0,1-1.87-3.33,12.64,12.64,0,0,1-.7-4.36,11.39,11.39,0,0,1,.7-4.19,8.66,8.66,0,0,1,1.87-3,8,8,0,0,1,2.69-1.8,10.45,10.45,0,0,1,3.12-.75l0.55,2.52a8.75,8.75,0,0,0-1.82.46,5.76,5.76,0,0,0-1.94,1.2,6.66,6.66,0,0,0-1.55,2.24,8.85,8.85,0,0,0-.63,3.61,8.81,8.81,0,0,0,2.28,6.19,8.34,8.34,0,0,0,2,1.61,8.79,8.79,0,0,0,1.7.79Z"/><path class="cls-4" d="M144,355.63l3.51,0.36V345.94l-3,2-1.38-2,5.24-3.47,2,0.2v13.57l3.45,0.34v2.53l-9.81-1v-2.53Z"/><path class="cls-4" d="M157.79,357l3.52,0.34V347.29l-3,2-1.38-2,5.24-3.5,2,0.19v13.57l3.45,0.32v2.53l-9.81-.93V357Z"/><path class="cls-4" d="M174.15,359.59a1.44,1.44,0,0,1,.52-1.2A1.75,1.75,0,0,1,176,358a2.5,2.5,0,0,1,1.91,1,3.48,3.48,0,0,1,.64,2.1,4.14,4.14,0,0,1-.4,1.85,4.4,4.4,0,0,1-1,1.38,5,5,0,0,1-1.44.89,5.45,5.45,0,0,1-1.57.39l-0.62-1.32a6.22,6.22,0,0,0,1.11-.29,4,4,0,0,0,1-.54,3.12,3.12,0,0,0,.77-0.82,2.25,2.25,0,0,0,.36-1.07,2.94,2.94,0,0,1-1.17-.07,2,2,0,0,1-.79-0.44,1.71,1.71,0,0,1-.45-0.68A2.48,2.48,0,0,1,174.15,359.59Z"/><path class="cls-4" d="M185.37,359.5l3.52,0.29V349.74l-3,2.07-1.38-2,5.24-3.57,2,0.16V360l3.45,0.28v2.53l-9.82-.8V359.5Z"/><path class="cls-4" d="M197.61,355a13.36,13.36,0,0,1,.44-3.63,6.92,6.92,0,0,1,1.24-2.51,4.6,4.6,0,0,1,1.9-1.41,5.58,5.58,0,0,1,2.47-.33,5.79,5.79,0,0,1,4.48,2.37q1.57,2.15,1.57,6.43a13.49,13.49,0,0,1-.44,3.66,7.06,7.06,0,0,1-1.24,2.53,4.55,4.55,0,0,1-1.92,1.42,6.1,6.1,0,0,1-7-2.16A11.21,11.21,0,0,1,197.61,355Zm3,0.23q0,0.35,0,.66c0,0.21,0,.42,0,0.64l5.57-4.71a2.83,2.83,0,0,0-2.58-2.17,2.25,2.25,0,0,0-2.25,1.24A9,9,0,0,0,200.6,355.18Zm6.12,0.46q0-.37,0-0.7c0-.22,0-0.44,0-0.66L201.08,359a2.89,2.89,0,0,0,2.58,2.29,2.28,2.28,0,0,0,2.26-1.23A9,9,0,0,0,206.72,355.65Z"/><path class="cls-4" d="M213.3,366.57a7.43,7.43,0,0,0,1.7-.49,6.53,6.53,0,0,0,2-1.27,7.17,7.17,0,0,0,1.62-2.27,8.18,8.18,0,0,0,.67-3.52,9.67,9.67,0,0,0-.63-3.72,8.48,8.48,0,0,0-1.55-2.51,7.4,7.4,0,0,0-1.95-1.54,10.33,10.33,0,0,0-1.83-.79l0.55-2.42a12.25,12.25,0,0,1,3.13,1.3,10.32,10.32,0,0,1,2.69,2.28,10.91,10.91,0,0,1,1.88,3.29,12.38,12.38,0,0,1,.7,4.31,11.58,11.58,0,0,1-.7,4.23,8.9,8.9,0,0,1-1.88,3,8.29,8.29,0,0,1-2.69,1.86,10.07,10.07,0,0,1-3.13.79Z"/><path class="cls-4" d="M364.25,369.72v-2.53H367v-6.44h-2.74v-2.53H367v-0.64a4.22,4.22,0,0,1,.38-1.86,3.74,3.74,0,0,1,1-1.29,4.11,4.11,0,0,1,1.44-.75,6,6,0,0,1,1.7-.24,10.79,10.79,0,0,1,2.62.26,6.69,6.69,0,0,1,1.69.65l-0.88,2.28a10.37,10.37,0,0,0-1.14-.46,5,5,0,0,0-1.58-.2,2.24,2.24,0,0,0-1.74.57,2.5,2.5,0,0,0-.5,1.69h4.84v2.53H370v6.44h4.87v2.53C370.6,369.73,368.49,369.73,364.25,369.72Z"/><path class="cls-4" d="M378.53,359a12.65,12.65,0,0,1,2.13-.72,12.19,12.19,0,0,1,2.87-.32,6.36,6.36,0,0,1,2,.27,3.38,3.38,0,0,1,1.36.81,3.06,3.06,0,0,1,.75,1.26,5.52,5.52,0,0,1,.23,1.65q0,1.17-.08,2t-0.08,1.47a9.83,9.83,0,0,0,0,1.08c0,0.21.05,0.42,0.07,0.62h1.5v2.53l-3.87,0-0.3-1.56h-0.11a4,4,0,0,1-1.31,1.24,4.38,4.38,0,0,1-2.29.53,3.87,3.87,0,0,1-2.73-.91,3.13,3.13,0,0,1-1-2.43,3.67,3.67,0,0,1,.35-1.67,3,3,0,0,1,1-1.15,4.93,4.93,0,0,1,1.63-.68,9.54,9.54,0,0,1,2.12-.23c0.27,0,.56,0,0.87,0l1.12,0.08a2.37,2.37,0,0,0,0-.46V362a1.46,1.46,0,0,0-.5-1.25,2.44,2.44,0,0,0-1.49-.37,7,7,0,0,0-2.11.31,13.56,13.56,0,0,0-1.58.61Zm3.92,8.42a2.77,2.77,0,0,0,1.64-.41,2.74,2.74,0,0,0,.8-0.87v-1.38l-0.68-.1a7.89,7.89,0,0,0-1-.05,4.75,4.75,0,0,0-.87.09,2.9,2.9,0,0,0-.78.26,1.52,1.52,0,0,0-.55.45,1.09,1.09,0,0,0-.2.67,1.3,1.3,0,0,0,.38,1A1.76,1.76,0,0,0,382.45,367.41Z"/><path class="cls-4" d="M402.87,368.36a6.73,6.73,0,0,1-2.21,1.1,9.77,9.77,0,0,1-2.65.39,7.48,7.48,0,0,1-2.66-.4,5.34,5.34,0,0,1-2-1.21,5.14,5.14,0,0,1-1.21-1.91,7.11,7.11,0,0,1-.42-2.48,6.51,6.51,0,0,1,.48-2.58,5.51,5.51,0,0,1,1.35-1.92,5.92,5.92,0,0,1,2-1.21,8,8,0,0,1,2.56-.43,9.44,9.44,0,0,1,2.42.27,11.19,11.19,0,0,1,1.73.55v4l-2.54,0v-2.12a6.48,6.48,0,0,0-1.43-.14,4.36,4.36,0,0,0-1.28.21,3.18,3.18,0,0,0-1.13.64,3.32,3.32,0,0,0-.81,1.08,3.87,3.87,0,0,0-.06,2.9A3.11,3.11,0,0,0,397,367a4.09,4.09,0,0,0,1.51.24,5.43,5.43,0,0,0,2.16-.4,8.85,8.85,0,0,0,1.26-.66Z"/><path class="cls-4" d="M406.79,360.43l-2.28,0v-2.53l2.28,0v-2.62l3-.9c0,1.39,0,2.08,0,3.47l6-.12c0,1,0,1.52,0,2.53l-6,.12v3.29a3.9,3.9,0,0,0,.67,2.55,2.26,2.26,0,0,0,1.87.76,4,4,0,0,0,1.13-.17,4.37,4.37,0,0,0,.91-0.4,5.36,5.36,0,0,0,.74-0.52l0.61-.52,1.38,2a4.58,4.58,0,0,1-1,.86,8.59,8.59,0,0,1-1.27.69,8.18,8.18,0,0,1-1.42.48,6.82,6.82,0,0,1-1.45.19,4.89,4.89,0,0,1-3.88-1.36,6.57,6.57,0,0,1-1.3-4.54v-3.29Z"/><path class="cls-4" d="M418.76,363.41a7.15,7.15,0,0,1,.44-2.59,5.37,5.37,0,0,1,3.17-3.17,7.49,7.49,0,0,1,2.5-.46,7.15,7.15,0,0,1,2.59.37,5.17,5.17,0,0,1,1.93,1.18,5,5,0,0,1,1.19,1.89,7.82,7.82,0,0,1,0,5.06,5.38,5.38,0,0,1-3.17,3.18,7.43,7.43,0,0,1-2.5.47,7.11,7.11,0,0,1-2.59-.37,5.18,5.18,0,0,1-1.93-1.18,5,5,0,0,1-1.19-1.89A7.25,7.25,0,0,1,418.76,363.41Zm3.09-.07a4.5,4.5,0,0,0,.21,1.4,3.33,3.33,0,0,0,.6,1.11,2.6,2.6,0,0,0,.94.72,2.86,2.86,0,0,0,1.27.23,3,3,0,0,0,2.18-.91,3.79,3.79,0,0,0,.84-2.71,3.89,3.89,0,0,0-.78-2.54,2.63,2.63,0,0,0-2.24-.92,3.64,3.64,0,0,0-1.2.23,2.44,2.44,0,0,0-1,.66,3.2,3.2,0,0,0-.63,1.12A5,5,0,0,0,421.85,363.34Z"/><path class="cls-4" d="M432.68,366.27l2.86-.08v-6.44l-2.86.08V357.3l5.19-.16,0.35,1.51h0.09a6.4,6.4,0,0,1,1.48-1.31,3.74,3.74,0,0,1,1.94-.57,2.53,2.53,0,0,1,2.18.94,5.43,5.43,0,0,1,.79,3.35l-2.7.09a2.26,2.26,0,0,0-.24-1.2,0.82,0.82,0,0,0-.77-0.35,2.35,2.35,0,0,0-1.49.51,4.88,4.88,0,0,0-1,1.09v4.9l5-.16c0,1,0,1.52,0,2.53-4.34.15-6.51,0.22-10.86,0.34v-2.53Z"/><path class="cls-4" d="M447,365.81l4.06-.15v-6.44l-4.06.15v-2.53l7.05-.26c0,3.59,0,5.38,0,9l4.26-.17v2.53c-4.53.18-6.79,0.27-11.31,0.43v-2.53Zm3.5-12.23a1.69,1.69,0,0,1,.53-1.24,2.12,2.12,0,0,1,1.47-.56,2.19,2.19,0,0,1,1.54.45,1.5,1.5,0,0,1,.58,1.2,1.55,1.55,0,0,1-.58,1.23,2.44,2.44,0,0,1-1.54.53,2.07,2.07,0,0,1-1.47-.42A1.48,1.48,0,0,1,450.47,353.58Z"/><path class="cls-4" d="M461.51,357.05a13.1,13.1,0,0,1,2.13-.8,12.35,12.35,0,0,1,2.87-.43,6.27,6.27,0,0,1,2,.2,3.21,3.21,0,0,1,1.36.75,2.92,2.92,0,0,1,.75,1.23,5.43,5.43,0,0,1,.23,1.65q0,1.17-.08,2t-0.08,1.48a9.76,9.76,0,0,0,0,1.08c0,0.21.05,0.42,0.07,0.62l1.5-.07v2.53l-3.87.18-0.3-1.55h-0.11a4.24,4.24,0,0,1-1.31,1.29,4.5,4.5,0,0,1-2.29.62,3.75,3.75,0,0,1-2.72-.8,3,3,0,0,1-1-2.4,3.75,3.75,0,0,1,.35-1.68,3.16,3.16,0,0,1,1-1.19,5.13,5.13,0,0,1,1.63-.74,9.67,9.67,0,0,1,2.12-.31c0.27,0,.56,0,0.87,0l1.12,0a2.39,2.39,0,0,0,0-.46v-0.44a1.41,1.41,0,0,0-.5-1.23,2.38,2.38,0,0,0-1.49-.31,7.08,7.08,0,0,0-2.1.39,14.08,14.08,0,0,0-1.58.67Zm3.92,8.27a2.85,2.85,0,0,0,1.64-.48,2.9,2.9,0,0,0,.8-0.9v-1.38l-0.68-.07a7.85,7.85,0,0,0-1,0,4.81,4.81,0,0,0-.87.12,3,3,0,0,0-.77.29,1.61,1.61,0,0,0-.55.47,1.12,1.12,0,0,0-.2.68,1.26,1.26,0,0,0,.38,1A1.71,1.71,0,0,0,465.43,365.32Z"/><path class="cls-4" d="M475.27,351l4.91-.24c0,4.25,0,6.38,0,10.63a4.79,4.79,0,0,0,.44,2.44,1.46,1.46,0,0,0,1.41.62,4,4,0,0,0,1.17-.21,4.74,4.74,0,0,0,.92-0.47l1.13,2q-0.39.27-.78,0.51a5.38,5.38,0,0,1-.83.41,5.84,5.84,0,0,1-1,.28,7.7,7.7,0,0,1-1.16.14,4.17,4.17,0,0,1-3.25-.94,4.09,4.09,0,0,1-1.08-3.07c0-3.86,0-5.8,0-9.66l-1.91.09C475.27,352.56,475.27,352.06,475.27,351Z"/><path class="cls-4" d="M488.88,369.14l10.23-.58V371l-10.22.58C488.88,370.61,488.88,370.12,488.88,369.14Z"/><path class="cls-4" d="M500.9,349.65l4.65-.29v5.89h0.09a4.26,4.26,0,0,1,1.47-1.27,5.23,5.23,0,0,1,2.16-.58,5.29,5.29,0,0,1,1.61.13,2.81,2.81,0,0,1,1.27.68,3.29,3.29,0,0,1,.83,1.38,7.06,7.06,0,0,1,.3,2.22V365l-3,.2v-6.53a2.7,2.7,0,0,0-.6-2,2,2,0,0,0-1.57-.52,2.77,2.77,0,0,0-1.56.62,3.07,3.07,0,0,0-1,1.39v7.34l-3,.18V352.08l-1.66.1v-2.53Z"/><path class="cls-4" d="M527,362.8a4.54,4.54,0,0,1-.77.6,8.12,8.12,0,0,1-1.11.57,9.07,9.07,0,0,1-1.39.47,9.18,9.18,0,0,1-1.61.25,7.62,7.62,0,0,1-2.64-.23,4.69,4.69,0,0,1-3.2-2.9,6.87,6.87,0,0,1-.43-2.51,7,7,0,0,1,.48-2.69,5.84,5.84,0,0,1,1.32-2,6.07,6.07,0,0,1,2-1.27,7.93,7.93,0,0,1,2.44-.55,7.41,7.41,0,0,1,1.81.1,4.59,4.59,0,0,1,1.71.67,3.83,3.83,0,0,1,1.28,1.42,4.9,4.9,0,0,1,.5,2.36,11.2,11.2,0,0,1-.23,2.16l-8.29.58a2.53,2.53,0,0,0,.31,1.22,2.22,2.22,0,0,0,.76.77,3.06,3.06,0,0,0,1.08.4,5.3,5.3,0,0,0,1.3.06,7,7,0,0,0,2.27-.48,5.26,5.26,0,0,0,1.44-.89Zm-5-7.86a3.94,3.94,0,0,0-1.13.24,3.43,3.43,0,0,0-1,.55,2.89,2.89,0,0,0-.7.83,2.55,2.55,0,0,0-.32,1.08l5.66-.4A2.1,2.1,0,0,0,522,354.95Z"/><path class="cls-4" d="M530.52,347.67l4.9-.37c0,4.25,0,6.38,0,10.63a4.73,4.73,0,0,0,.44,2.43,1.42,1.42,0,0,0,1.4.58,4,4,0,0,0,1.17-.24,4.89,4.89,0,0,0,.92-0.5l1.13,2q-0.39.28-.78,0.53a5.53,5.53,0,0,1-.83.43,6,6,0,0,1-1,.3,7.75,7.75,0,0,1-1.16.17,4.08,4.08,0,0,1-3.24-.86,4,4,0,0,1-1.08-3v-9.66l-1.91.14C530.52,349.18,530.52,348.68,530.52,347.67Z"/><path class="cls-4" d="M542.33,351.36l3.91-.31,0.34,1.35h0.09a4.81,4.81,0,0,1,3.86-2,5.3,5.3,0,0,1,1.94.17,3.4,3.4,0,0,1,1.52.92,4.43,4.43,0,0,1,1,1.71,8.32,8.32,0,0,1,.34,2.57,8.76,8.76,0,0,1-.39,2.69,6.27,6.27,0,0,1-1.13,2.11A5.44,5.44,0,0,1,552,362a6.61,6.61,0,0,1-2.42.64,9.41,9.41,0,0,1-1.4,0,3.65,3.65,0,0,1-1.15-.24c0,1.89,0,2.83,0,4.71l-3,.24c0-5.43,0-8.14,0-13.57l-1.72.14v-2.53Zm7.31,1.62a3.26,3.26,0,0,0-1.6.57,2.54,2.54,0,0,0-1,1.39v4.78a2.26,2.26,0,0,0,.93.33,5,5,0,0,0,1.23,0,3.38,3.38,0,0,0,1.2-.32,2.75,2.75,0,0,0,1-.78,3.77,3.77,0,0,0,.64-1.27,6.18,6.18,0,0,0,.23-1.79,3.18,3.18,0,0,0-.74-2.28A2.2,2.2,0,0,0,549.64,353Z"/><path class="cls-4" d="M568.4,359.42a4.65,4.65,0,0,1-.77.61,8.29,8.29,0,0,1-1.1.6,9.35,9.35,0,0,1-3,.78,7.56,7.56,0,0,1-2.63-.18,4.57,4.57,0,0,1-3.2-2.84,6.8,6.8,0,0,1-.42-2.5,7.07,7.07,0,0,1,.48-2.7,6,6,0,0,1,1.32-2,6.21,6.21,0,0,1,2-1.31,8,8,0,0,1,2.44-.6,7.37,7.37,0,0,1,1.8.07A4.49,4.49,0,0,1,567,350a3.73,3.73,0,0,1,1.28,1.39,4.85,4.85,0,0,1,.49,2.35,11.27,11.27,0,0,1-.23,2.16l-8.28.74a2.5,2.5,0,0,0,.31,1.22,2.16,2.16,0,0,0,.76.76,3,3,0,0,0,1.08.38,5.31,5.31,0,0,0,1.3,0,7,7,0,0,0,2.26-.52,5.38,5.38,0,0,0,1.44-.91Zm-5-7.76a4,4,0,0,0-1.13.26,3.52,3.52,0,0,0-1,.56,3,3,0,0,0-.7.85,2.59,2.59,0,0,0-.32,1.08l5.66-.5A2.06,2.06,0,0,0,563.44,351.65Z"/><path class="cls-4" d="M570.82,357.88l2.85-.27c0-2.58,0-3.86,0-6.44l-2.85.27v-2.53l5.17-.48,0.34,1.48h0.09a7,7,0,0,1,1.47-1.4,3.93,3.93,0,0,1,1.93-.69,2.37,2.37,0,0,1,2.17.8,5.21,5.21,0,0,1,.79,3.3l-2.69.26a2.18,2.18,0,0,0-.24-1.18,0.77,0.77,0,0,0-.77-0.31,2.48,2.48,0,0,0-1.48.6,5.35,5.35,0,0,0-1,1.15v4.9l5-.48c0,1,0,1.52,0,2.53-4.33.42-6.49,0.63-10.82,1v-2.53Z"/><path class="cls-4" d="M594.16,363a9.82,9.82,0,0,1-3.12-.69,7.92,7.92,0,0,1-2.69-1.77,8.53,8.53,0,0,1-1.87-2.94,11.42,11.42,0,0,1-.7-4.21,12.6,12.6,0,0,1,.7-4.34,11.38,11.38,0,0,1,1.87-3.35,10.8,10.8,0,0,1,2.69-2.37,12.64,12.64,0,0,1,3.12-1.4l0.55,2.4a10.67,10.67,0,0,0-1.83.84,7.72,7.72,0,0,0-1.94,1.6,8.84,8.84,0,0,0-1.55,2.56,9.85,9.85,0,0,0-.63,3.74,8.05,8.05,0,0,0,.67,3.5,6.85,6.85,0,0,0,1.62,2.22,6.21,6.21,0,0,0,2,1.2,7.21,7.21,0,0,0,1.7.43Z"/><path class="cls-4" d="M599.92,355l3.51-.37c0-4,0-6,0-10.05l-3,2.65L599,345.52l5.23-4.56,2-.22c0,5.43,0,8.14,0,13.57l3.44-.38c0,1,0,1.52,0,2.53l-9.8,1.06C599.92,356.52,599.92,356,599.92,355Z"/><path class="cls-4" d="M613.7,353.49l3.51-.4c0-4,0-6,0-10.05l-3,2.67L612.8,344l5.23-4.59,2-.23c0,5.43,0,8.14,0,13.57l3.44-.4c0,1,0,1.52,0,2.53L613.7,356v-2.53Z"/><path class="cls-4" d="M625.9,346.55a14.35,14.35,0,0,1,.44-3.72,8.64,8.64,0,0,1,1.23-2.76,6.08,6.08,0,0,1,1.9-1.78,6.29,6.29,0,0,1,2.46-.81A4.73,4.73,0,0,1,636.4,339q1.56,1.84,1.56,6.12a14.47,14.47,0,0,1-.44,3.75,8.85,8.85,0,0,1-1.23,2.77,6,6,0,0,1-1.91,1.8,6.36,6.36,0,0,1-2.47.82,4.57,4.57,0,0,1-4.47-1.62Q625.9,350.64,625.9,346.55Zm3-.35c0,0.23,0,.45,0,0.65s0,0.42,0,.63l5.55-5.8a2.23,2.23,0,0,0-2.57-1.67,2.85,2.85,0,0,0-2.24,1.68A10.06,10.06,0,0,0,628.88,346.19Zm6.1-.74q0-.37,0-0.7c0-.22,0-0.44,0-0.65l-5.57,5.8a2.27,2.27,0,0,0,2.57,1.78,2.88,2.88,0,0,0,2.25-1.68A10.08,10.08,0,0,0,635,345.46Z"/><path class="cls-4" d="M643.79,351a1.79,1.79,0,0,1,.52-1.31,2.14,2.14,0,0,1,1.3-.62,2,2,0,0,1,1.9.59,2.91,2.91,0,0,1,.64,2,4.72,4.72,0,0,1-.4,1.94,5.94,5.94,0,0,1-1,1.61,6.77,6.77,0,0,1-1.43,1.2,6.61,6.61,0,0,1-1.57.73l-0.62-1.19a7.58,7.58,0,0,0,1.11-.53,5.36,5.36,0,0,0,1-.76,4.3,4.3,0,0,0,.77-1,2.73,2.73,0,0,0,.36-1.15,3,3,0,0,1-1.17.18,1.55,1.55,0,0,1-.79-0.27,1.26,1.26,0,0,1-.45-0.59A2.22,2.22,0,0,1,643.79,351Z"/><path class="cls-4" d="M653.78,340.09a6.11,6.11,0,0,1,.4-2.21A5.81,5.81,0,0,1,655.3,336,6.27,6.27,0,0,1,657,334.7a6.78,6.78,0,0,1,2.28-.71,6.43,6.43,0,0,1,2.34.08,4.11,4.11,0,0,1,1.81.92,4.34,4.34,0,0,1,1.17,1.75,7.16,7.16,0,0,1,.41,2.56,14.61,14.61,0,0,1-.69,4.69,11.29,11.29,0,0,1-1.84,3.47,9.68,9.68,0,0,1-2.69,2.34,11.93,11.93,0,0,1-3.21,1.3L656,348.84a8.93,8.93,0,0,0,2.28-.92,8.28,8.28,0,0,0,1.78-1.38,7.21,7.21,0,0,0,1.24-1.71,5.91,5.91,0,0,0,.62-1.93,4.13,4.13,0,0,1-1.24.94,5.54,5.54,0,0,1-1.81.53h0a5.31,5.31,0,0,1-1.76-.06,4.08,4.08,0,0,1-1.61-.71,4,4,0,0,1-1.18-1.4A4.49,4.49,0,0,1,653.78,340.09Zm2.89-.54a2.36,2.36,0,0,0,.24,1.11,2.08,2.08,0,0,0,.63.74,2.29,2.29,0,0,0,.91.39,3.22,3.22,0,0,0,1.06,0,4.45,4.45,0,0,0,1.63-.52,2.9,2.9,0,0,0,1-.87,6.75,6.75,0,0,0,.07-0.93,4.22,4.22,0,0,0-.18-1.24,2.9,2.9,0,0,0-.55-1,2.25,2.25,0,0,0-.92-0.65,2.52,2.52,0,0,0-1.26-.12A3,3,0,0,0,656.66,339.55Z"/><path class="cls-4" d="M669,351.47a9.08,9.08,0,0,0,1.69-.84,8.74,8.74,0,0,0,2-1.68,9.54,9.54,0,0,0,1.61-2.61,9.21,9.21,0,0,0,.66-3.66,8.74,8.74,0,0,0-.63-3.59,6.37,6.37,0,0,0-1.55-2.19,5.51,5.51,0,0,0-1.93-1.13,8.54,8.54,0,0,0-1.82-.4l0.55-2.54a10.19,10.19,0,0,1,3.11.65,7.63,7.63,0,0,1,2.68,1.72,8.3,8.3,0,0,1,1.87,2.9,11.24,11.24,0,0,1,.7,4.17,12.87,12.87,0,0,1-.7,4.38,11.69,11.69,0,0,1-1.87,3.39,11.17,11.17,0,0,1-2.68,2.42,12.16,12.16,0,0,1-3.11,1.45Z"/></svg>