<svg id="Layer_1" data-name="Layer 1" xmlns="http://www.w3.org/2000/svg" viewBox="0 0 720 576"><defs><style>.cls-1,.cls-2,.cls-4,.cls-6{fill:#231f20;}.cls-1,.cls-3{stroke:#231f20;}.cls-1,.cls-6{stroke-miterlimit:10;}.cls-1,.cls-2,.cls-3{stroke-width:2px;}.cls-2{stroke:#000;}.cls-2,.cls-3{stroke-linecap:round;stroke-linejoin:round;}.cls-3,.cls-5{fill:#fff;}.cls-6{stroke:#fff;}</style></defs><title>Hanoi_Tower_Set_1</title><path class="cls-1" d="M656.68,506.49c0-.14,0-0.29,0-0.43s0-.29,0-0.43V453.84H64.85s-0.23,51.74-.23,52.22c0,2.67,2.12,5.24,6.08,7.71,13.87,8.61,50.58,16.11,101.74,21.48s116.73,8.59,188.22,8.59c81.71,0,155.68-4.21,209.24-11,26.78-3.41,48.45-7.46,63.44-12,7.5-2.25,13.32-4.62,17.29-7.08,3.38-2.1,5.41-4.29,5.94-6.55h0.1v-0.73Z"/><ellipse class="cls-2" cx="360.67" cy="454.92" rx="295.87" ry="37.63"/><path class="cls-3" d="M656.68,455c0-.14,0-0.29,0-0.43s0-.29,0-0.43V402.36H64.85s-0.23,51.74-.23,52.22c0,2.67,2.12,5.24,6.08,7.71,13.87,8.61,50.58,16.11,101.74,21.48s116.73,8.59,188.22,8.59c81.71,0,155.68-4.21,209.24-11,26.78-3.41,48.45-7.46,63.44-12,7.5-2.25,13.32-4.62,17.29-7.08,3.38-2.1,5.41-4.29,5.94-6.55h0.1V455Z"/><ellipse class="cls-3" cx="360.67" cy="403.44" rx="295.87" ry="37.63"/><path class="cls-4" d="M360.66,412c-16,0-29-3.75-30.2-8.61h-0.08l0-.5V8.27H391V403.35h-0.12C389.64,408.22,376.64,412,360.66,412Z"/><path class="cls-5" d="M390.49,8.77V402.85h0c-0.49,4.78-13.63,8.61-29.79,8.61s-29.3-3.83-29.79-8.61h0v-0.21s0,0,0-.06,0,0,0-.06V8.77h59.63m1-1H329.86v394.7s0,0.07,0,.11v1.27h0.23c2,5.6,16.84,8.61,30.58,8.61s28.6-3,30.58-8.61h0.21l0-1V7.77h0Z"/><ellipse class="cls-6" cx="360.67" cy="8.89" rx="29.81" ry="8.89"/><path class="cls-4" d="M109.65,456.27v-2.53l2.7,0.38v-6.44l-2.72-.39v-2.53l2.72,0.39v-0.64a3.91,3.91,0,0,1,.38-1.81,3,3,0,0,1,1-1.15,3.48,3.48,0,0,1,1.43-.55,5.74,5.74,0,0,1,1.68,0,11.43,11.43,0,0,1,2.6.62,7.74,7.74,0,0,1,1.68.88l-0.87,2.16a12,12,0,0,0-1.13-.61,5.39,5.39,0,0,0-1.57-.42,2,2,0,0,0-1.73.32,2.24,2.24,0,0,0-.49,1.62l4.81,0.66v2.53l-4.81-.66v6.44l4.83,0.66v2.53C116,457.16,113.85,456.87,109.65,456.27Z"/><path class="cls-4" d="M129.32,447.46l4.26,0.55v9l1.74,0.22v2.53l-3.62-.47-0.53-1.77h-0.09a3.35,3.35,0,0,1-1.58,1.24,4.48,4.48,0,0,1-2.34.27,5.64,5.64,0,0,1-1.59-.44,3.43,3.43,0,0,1-1.23-.92,4.15,4.15,0,0,1-.78-1.53,8.2,8.2,0,0,1-.28-2.29v-4.62L122,449v-2.53l4.28,0.57v6.53a3.85,3.85,0,0,0,.45,2.08,1.88,1.88,0,0,0,1.41.81,2.3,2.3,0,0,0,2.47-1.42v-4.9l-1.28-.17v-2.53Z"/><path class="cls-4" d="M137.5,443.91l4.88,0.61c0,4.25,0,6.38,0,10.63a5.29,5.29,0,0,0,.44,2.51,1.77,1.77,0,0,0,1.4.86,3.73,3.73,0,0,0,1.17,0,3.9,3.9,0,0,0,.92-0.31l1.12,2.21q-0.39.21-.78,0.38a4.48,4.48,0,0,1-.83.27,5.24,5.24,0,0,1-1,.11,7.49,7.49,0,0,1-1.16-.06,4.89,4.89,0,0,1-3.23-1.5,4.79,4.79,0,0,1-1.08-3.26v-9.66l-1.9-.24v-2.53Z"/><path class="cls-4" d="M151.26,445.6l4.89,0.57v10.63a5.27,5.27,0,0,0,.44,2.51,1.75,1.75,0,0,0,1.4.85,3.74,3.74,0,0,0,1.17,0,3.94,3.94,0,0,0,.92-0.32l1.12,2.2q-0.39.21-.78,0.38a4.52,4.52,0,0,1-.83.27,5.26,5.26,0,0,1-1,.12,7.49,7.49,0,0,1-1.16-.05,4.85,4.85,0,0,1-3.23-1.48,4.76,4.76,0,0,1-1.08-3.25c0-3.86,0-5.8,0-9.66l-1.9-.22V445.6Z"/><path class="cls-4" d="M164.82,465.94c4.08,0.45,6.12.67,10.19,1.1v2.46c-4.08-.43-6.12-0.65-10.19-1.1C164.82,467.42,164.82,466.92,164.82,465.94Z"/><path class="cls-4" d="M177.08,453.06l4,0.41,0.35,1.55h0.09A3.94,3.94,0,0,1,183,453.9a4.54,4.54,0,0,1,2.37-.32,5.72,5.72,0,0,1,1.6.39,3.46,3.46,0,0,1,1.28.88,4.17,4.17,0,0,1,.84,1.52,7.29,7.29,0,0,1,.31,2.27c0,2.86,0,4.29,0,7.15l-3-.29V459a3,3,0,0,0-.63-2.09,2.42,2.42,0,0,0-1.6-.78,2.45,2.45,0,0,0-1.55.34,2.15,2.15,0,0,0-1,1.13V465l-3-.3v-9l-1.65-.17v-2.53Z"/><path class="cls-4" d="M192.65,455.39a11.66,11.66,0,0,1,2.13-.51,11.9,11.9,0,0,1,2.86,0,6.67,6.67,0,0,1,2,.47,3.85,3.85,0,0,1,1.36.94,3.48,3.48,0,0,1,.75,1.33,5.76,5.76,0,0,1,.23,1.68q0,1.17-.08,2t-0.08,1.46a10,10,0,0,0,0,1.09c0,0.21.05,0.43,0.07,0.63l1.49,0.13c0,1,0,1.52,0,2.53l-3.86-.35-0.3-1.59h-0.11a3.47,3.47,0,0,1-1.3,1.11,4.12,4.12,0,0,1-2.28.31,4.23,4.23,0,0,1-2.72-1.17,3.78,3.78,0,0,1-.65-4.17,2.58,2.58,0,0,1,1-1.05,4.46,4.46,0,0,1,1.62-.51,9.33,9.33,0,0,1,2.11,0q0.41,0,.87.13L199,460a2.31,2.31,0,0,0,0-.46v-0.44a1.61,1.61,0,0,0-.5-1.3,2.63,2.63,0,0,0-1.48-.52,6.72,6.72,0,0,0-2.1.1,12.35,12.35,0,0,0-1.57.45Zm3.91,8.81a2.6,2.6,0,0,0,1.64-.25,2.35,2.35,0,0,0,.8-0.79v-1.38l-0.68-.17a8.1,8.1,0,0,0-1-.15,4.66,4.66,0,0,0-.86,0,2.68,2.68,0,0,0-.77.18,1.33,1.33,0,0,0-.55.4,1,1,0,0,0-.2.65,1.43,1.43,0,0,0,.37,1A1.91,1.91,0,0,0,196.56,464.19Z"/><path class="cls-4" d="M209.91,467.66c0-2.82,0-4.22,0-7a5.57,5.57,0,0,0-.09-1.12,2.33,2.33,0,0,0-.24-0.69,0.84,0.84,0,0,0-.37-0.35,1.36,1.36,0,0,0-.45-0.12,1.13,1.13,0,0,0-1.17.8v8.33l-2.76-.24c0-4.6,0-6.9,0-11.5l2.18,0.19,0.32,1.29h0.07a2.49,2.49,0,0,1,1-1,2.7,2.7,0,0,1,1.56-.29,3.26,3.26,0,0,1,1.45.49,2.19,2.19,0,0,1,.94,1.37,2.28,2.28,0,0,1,1.06-1.14,2.8,2.8,0,0,1,1.54-.3,3.53,3.53,0,0,1,1.12.26,2.2,2.2,0,0,1,.86.68,3.28,3.28,0,0,1,.56,1.23,8,8,0,0,1,.2,1.94v7.87l-2.76-.22c0-2.94,0-4.42,0-7.36a2.5,2.5,0,0,0-.33-1.48,1.12,1.12,0,0,0-.82-0.48,1.21,1.21,0,0,0-.71.14,0.92,0.92,0,0,0-.41.6v8.39Z"/><path class="cls-4" d="M230.46,468.06a3.67,3.67,0,0,1-.77.48,6.92,6.92,0,0,1-1.1.41,8.13,8.13,0,0,1-1.39.26,8.8,8.8,0,0,1-1.61,0,8.15,8.15,0,0,1-2.63-.62,5.76,5.76,0,0,1-3.2-3.37,7.37,7.37,0,0,1-.43-2.57,6.49,6.49,0,0,1,.48-2.62,4.75,4.75,0,0,1,1.32-1.79,5,5,0,0,1,2-1,7.43,7.43,0,0,1,2.44-.19,7.85,7.85,0,0,1,1.81.37,5.4,5.4,0,0,1,1.71.92,4.73,4.73,0,0,1,1.28,1.6,5.35,5.35,0,0,1,.5,2.43,10.69,10.69,0,0,1-.23,2.12l-8.28-.63a2.79,2.79,0,0,0,.31,1.27,2.75,2.75,0,0,0,.76.89,3.59,3.59,0,0,0,1.08.55,5.56,5.56,0,0,0,1.3.25,6.54,6.54,0,0,0,2.27-.15,4.37,4.37,0,0,0,1.44-.68Zm-5-8.58a3.7,3.7,0,0,0-1.13.08,2.89,2.89,0,0,0-1,.41,2.35,2.35,0,0,0-.7.73,2.28,2.28,0,0,0-.32,1l5.66,0.43A2.48,2.48,0,0,0,225.49,459.48Z"/><path class="cls-4" d="M340.78,457.83l2.63,0-0.83,7.26-1.8,0C340.78,462.19,340.78,460.74,340.78,457.83Zm5,0,2.63,0-0.83,7.26h-1.8C345.76,462.24,345.76,460.79,345.76,457.88Z"/><path class="cls-4" d="M355.86,464.52h-0.12l0.14,1.91c0,3,0,4.57,0,7.61h-3c0-6.44,0-9.66,0-16.1h2.77l5.58,9.85h0.11l-0.21-1.93c0-3.16,0-4.75,0-7.91h3c0,6.44,0,9.66,0,16.1h-2.77Z"/><path class="cls-4" d="M367.5,463.31a12.66,12.66,0,0,1,2.13-.72,12.2,12.2,0,0,1,2.87-.32,6.37,6.37,0,0,1,2,.27,3.37,3.37,0,0,1,1.36.81,3.06,3.06,0,0,1,.75,1.26,5.51,5.51,0,0,1,.23,1.65q0,1.17-.08,2t-0.08,1.47a9.83,9.83,0,0,0,0,1.08c0,0.21.05,0.42,0.07,0.62h1.5V474l-3.87,0-0.3-1.56H374a4,4,0,0,1-1.31,1.24,4.38,4.38,0,0,1-2.29.53,3.87,3.87,0,0,1-2.73-.91,3.13,3.13,0,0,1-1-2.43,3.66,3.66,0,0,1,.35-1.67,3,3,0,0,1,1-1.15,4.93,4.93,0,0,1,1.63-.67,9.55,9.55,0,0,1,2.12-.23c0.27,0,.56,0,0.87,0l1.12,0.08a2.37,2.37,0,0,0,0-.46v-0.44a1.46,1.46,0,0,0-.5-1.25,2.44,2.44,0,0,0-1.49-.37,7,7,0,0,0-2.11.31,13.58,13.58,0,0,0-1.58.61Zm3.92,8.42a2.77,2.77,0,0,0,1.64-.41,2.74,2.74,0,0,0,.8-0.87c0-.55,0-0.83,0-1.38l-0.68-.1a7.91,7.91,0,0,0-1-.05,4.76,4.76,0,0,0-.87.09,2.9,2.9,0,0,0-.78.26,1.52,1.52,0,0,0-.55.45,1.09,1.09,0,0,0-.2.67,1.3,1.3,0,0,0,.38,1A1.76,1.76,0,0,0,371.43,471.74Z"/><path class="cls-4" d="M381.93,464.95l-2.28,0v-2.53l2.28,0c0-1,0-1.57,0-2.62l3-.89c0,1.39,0,2.08,0,3.47l6-.09v2.53l-6,.09v3.29a3.92,3.92,0,0,0,.67,2.56,2.27,2.27,0,0,0,1.87.77,4,4,0,0,0,1.13-.17,4.35,4.35,0,0,0,.91-0.39,5.34,5.34,0,0,0,.74-0.52l0.61-.52,1.38,2a4.55,4.55,0,0,1-1,.86,8.53,8.53,0,0,1-1.27.69,8.14,8.14,0,0,1-1.42.47,6.81,6.81,0,0,1-1.45.18,4.91,4.91,0,0,1-3.88-1.38,6.6,6.6,0,0,1-1.3-4.55v-3.29Z"/><path class="cls-4" d="M393.09,457.65l4.66-.09c0,2.36,0,3.53,0,5.89h0.09a4,4,0,0,1,1.48-1.2,5.1,5.1,0,0,1,2.17-.49,5.37,5.37,0,0,1,1.61.19,3,3,0,0,1,1.27.73,3.46,3.46,0,0,1,.83,1.42,7.17,7.17,0,0,1,.3,2.23c0,2.86,0,4.29,0,7.15l-3,.07c0-2.61,0-3.92,0-6.53a2.79,2.79,0,0,0-.6-2,2,2,0,0,0-1.57-.59,2.67,2.67,0,0,0-1.57.55,2.9,2.9,0,0,0-1,1.34c0,2.93,0,4.4,0,7.34l-3,.06c0-5.43,0-8.14,0-13.57l-1.66,0C393.09,459.17,393.09,458.66,393.09,457.65Z"/><path class="cls-4" d="M409,462.67a12.94,12.94,0,0,1,2.13-.77,12.3,12.3,0,0,1,2.87-.38,6.31,6.31,0,0,1,2,.23,3.27,3.27,0,0,1,1.36.77,3,3,0,0,1,.75,1.24,5.46,5.46,0,0,1,.23,1.65q0,1.17-.08,2t-0.08,1.47a9.81,9.81,0,0,0,0,1.08c0,0.21.05,0.42,0.07,0.62l1.5,0c0,1,0,1.52,0,2.53l-3.87.12-0.3-1.56h-0.11a4.15,4.15,0,0,1-1.31,1.27,4.45,4.45,0,0,1-2.29.59,3.79,3.79,0,0,1-2.73-.84,3.06,3.06,0,0,1-1-2.41,3.72,3.72,0,0,1,.35-1.68,3.09,3.09,0,0,1,1-1.18,5,5,0,0,1,1.63-.71,9.63,9.63,0,0,1,2.12-.28c0.27,0,.56,0,0.87,0l1.12,0.06a2.38,2.38,0,0,0,0-.46v-0.44a1.43,1.43,0,0,0-.5-1.24,2.4,2.4,0,0,0-1.49-.33,7,7,0,0,0-2.11.36,13.89,13.89,0,0,0-1.58.64Zm3.92,8.33a2.58,2.58,0,0,0,2.44-1.34c0-.55,0-0.83,0-1.38l-0.68-.08a7.89,7.89,0,0,0-1,0,4.79,4.79,0,0,0-.87.11,3,3,0,0,0-.78.28,1.57,1.57,0,0,0-.55.46,1.11,1.11,0,0,0-.2.67,1.28,1.28,0,0,0,.38,1A1.73,1.73,0,0,0,412.92,471Z"/><path class="cls-4" d="M421,461.52l4-.14,0.35,1.51h0.09a4.82,4.82,0,0,1,1.52-1.34,5,5,0,0,1,2.37-.64,5.37,5.37,0,0,1,1.6.17,2.9,2.9,0,0,1,1.28.71,3.49,3.49,0,0,1,.84,1.4,6.87,6.87,0,0,1,.31,2.23c0,2.86,0,4.29,0,7.15l-3,.12c0-2.61,0-3.92,0-6.53a2.65,2.65,0,0,0-.63-2,2.12,2.12,0,0,0-1.6-.56,2.73,2.73,0,0,0-1.55.55,2.61,2.61,0,0,0-1,1.27c0,3,0,4.47,0,7.45l-3,.11c0-3.59,0-5.38,0-9l-1.66.06v-2.53Z"/><path class="cls-4" d="M437.6,456.28l2.63-.12-0.83,7.3-1.8.08C437.6,460.64,437.6,459.19,437.6,456.28Zm5-.22,2.63-.12-0.83,7.31-1.8.08C442.58,460.42,442.58,459,442.58,456.06Z"/><path class="cls-4" d="M453.45,470.11a1.74,1.74,0,0,1,.51-1.3,2,2,0,0,1,1.34-.54,1.87,1.87,0,0,1,1.38.4,1.58,1.58,0,0,1,.51,1.25,1.79,1.79,0,0,1-.51,1.31,2,2,0,0,1-1.38.56,1.77,1.77,0,0,1-1.34-.41A1.61,1.61,0,0,1,453.45,470.11Z"/><path class="cls-4" d="M474.8,469.28a7.12,7.12,0,0,1-2.21,1.21,10,10,0,0,1-2.65.52,7.32,7.32,0,0,1-2.66-.28,5,5,0,0,1-2-1.11,4.83,4.83,0,0,1-1.21-1.85,7,7,0,0,1-.41-2.46,6.68,6.68,0,0,1,.48-2.6,5.89,5.89,0,0,1,1.35-2,6.3,6.3,0,0,1,2-1.31,8.15,8.15,0,0,1,2.56-.56,9.31,9.31,0,0,1,2.42.15,10.74,10.74,0,0,1,1.73.47v4l-2.53.16v-2.12a6.39,6.39,0,0,0-1.43-.07,4.47,4.47,0,0,0-1.28.27,3.38,3.38,0,0,0-1.13.69,3.55,3.55,0,0,0-.81,1.12,3.64,3.64,0,0,0-.31,1.56,3.44,3.44,0,0,0,.25,1.34,2.9,2.9,0,0,0,1.85,1.69,4,4,0,0,0,1.51.17,5.57,5.57,0,0,0,2.15-.5,9.4,9.4,0,0,0,1.26-.72Z"/><path class="cls-4" d="M476.85,464.5a7.31,7.31,0,0,1,.44-2.6,5.7,5.7,0,0,1,3.16-3.3,7.67,7.67,0,0,1,2.5-.57,7,7,0,0,1,2.59.26,4.88,4.88,0,0,1,1.92,1.09,4.7,4.7,0,0,1,1.19,1.83,7.1,7.1,0,0,1,.4,2.46,7.35,7.35,0,0,1-.44,2.61,5.72,5.72,0,0,1-3.16,3.32,7.59,7.59,0,0,1-2.5.58,7,7,0,0,1-2.59-.26,4.89,4.89,0,0,1-1.92-1.1,4.72,4.72,0,0,1-1.19-1.84A7.12,7.12,0,0,1,476.85,464.5Zm3.08-.2a4.43,4.43,0,0,0,.21,1.39,3.16,3.16,0,0,0,.6,1.09,2.45,2.45,0,0,0,.94.68,2.79,2.79,0,0,0,1.27.18,3.13,3.13,0,0,0,2.17-1,3.94,3.94,0,0,0,.84-2.75,3.76,3.76,0,0,0-.78-2.51,2.52,2.52,0,0,0-2.23-.82,3.72,3.72,0,0,0-1.2.28,2.59,2.59,0,0,0-1,.7,3.38,3.38,0,0,0-.63,1.15A5.11,5.11,0,0,0,479.93,464.3Z"/><path class="cls-4" d="M490.13,457.84l4-.3L494.5,459h0.09a5.15,5.15,0,0,1,3.89-2.14,5.3,5.3,0,0,1,1.6.11,2.76,2.76,0,0,1,1.28.66,3.32,3.32,0,0,1,.84,1.37,6.77,6.77,0,0,1,.31,2.22c0,2.86,0,4.29,0,7.15l-3,.24c0-2.61,0-3.92,0-6.53a2.57,2.57,0,0,0-.63-2,2,2,0,0,0-1.6-.5,2.83,2.83,0,0,0-1.55.61,2.75,2.75,0,0,0-1,1.3c0,3,0,4.47,0,7.45l-3,.22c0-3.59,0-5.38,0-9l-1.66.12C490.13,459.35,490.13,458.85,490.13,457.84Z"/><path class="cls-4" d="M516.21,466.14A7.32,7.32,0,0,1,514,467.4a10.09,10.09,0,0,1-2.64.58,7.25,7.25,0,0,1-2.66-.21,4.86,4.86,0,0,1-2-1.07,4.67,4.67,0,0,1-1.21-1.82,6.88,6.88,0,0,1-.41-2.45,6.78,6.78,0,0,1,.48-2.62,6.08,6.08,0,0,1,1.35-2,6.49,6.49,0,0,1,2-1.35,8.26,8.26,0,0,1,2.55-.62,9.25,9.25,0,0,1,2.41.09,10.53,10.53,0,0,1,1.72.43v4l-2.53.22v-2.12a6.36,6.36,0,0,0-1.43,0,4.53,4.53,0,0,0-1.28.3,3.48,3.48,0,0,0-1.13.72,3.58,3.58,0,0,0-1.12,2.7,3.4,3.4,0,0,0,.25,1.34,2.81,2.81,0,0,0,1.85,1.65,4,4,0,0,0,1.51.14,5.65,5.65,0,0,0,2.15-.55,9.67,9.67,0,0,0,1.25-.75Z"/><path class="cls-4" d="M519.52,456.23a13.73,13.73,0,0,1,2.13-.9,12.61,12.61,0,0,1,2.86-.56,6.18,6.18,0,0,1,2,.1,3,3,0,0,1,1.36.69,2.74,2.74,0,0,1,.75,1.19,5.33,5.33,0,0,1,.23,1.63q0,1.17-.08,2t-0.08,1.48a9.7,9.7,0,0,0,0,1.08c0,0.21.05,0.42,0.07,0.61l1.49-.14v2.53l-3.86.36-0.3-1.54H526a4.54,4.54,0,0,1-1.3,1.35,4.65,4.65,0,0,1-2.28.73,3.6,3.6,0,0,1-2.72-.67,2.88,2.88,0,0,1-1-2.35,3.87,3.87,0,0,1,.35-1.7,3.38,3.38,0,0,1,1-1.24,5.4,5.4,0,0,1,1.62-.81,9.86,9.86,0,0,1,2.11-.41c0.27,0,.56,0,0.87,0h1.12a2.44,2.44,0,0,0,0-.46v-0.44a1.34,1.34,0,0,0-.5-1.21,2.31,2.31,0,0,0-1.48-.24,7.26,7.26,0,0,0-2.1.49,14.84,14.84,0,0,0-1.57.74Zm3.91,8.09a3,3,0,0,0,1.64-.55,3.1,3.1,0,0,0,.8-0.94v-1.38l-0.68,0a7.85,7.85,0,0,0-1,0,4.9,4.9,0,0,0-.86.16,3.14,3.14,0,0,0-.77.32,1.72,1.72,0,0,0-.55.5,1.17,1.17,0,0,0-.2.69,1.2,1.2,0,0,0,.37,1A1.65,1.65,0,0,0,523.43,464.32Z"/><path class="cls-4" d="M533.91,456.63l-2.27.22v-2.53l2.27-.22c0-1,0-1.57,0-2.62l3-1.14v3.47l6-.61v2.53l-6,.61c0,1.32,0,2,0,3.29a3.68,3.68,0,0,0,.67,2.5,2.09,2.09,0,0,0,1.86.61,4.18,4.18,0,0,0,1.13-.26,4.78,4.78,0,0,0,.91-0.47,6,6,0,0,0,.74-0.58l0.61-.57,1.38,1.93a5.16,5.16,0,0,1-1,.94,9.49,9.49,0,0,1-1.26.8,8.79,8.79,0,0,1-1.41.59,7,7,0,0,1-1.45.31,4.54,4.54,0,0,1-3.87-1.05q-1.3-1.31-1.3-4.44C533.91,458.61,533.91,457.95,533.91,456.63Z"/><path class="cls-4" d="M555.47,468.24a9.76,9.76,0,0,1-3.12-.67,7.84,7.84,0,0,1-2.69-1.76,8.46,8.46,0,0,1-1.87-2.93,11.39,11.39,0,0,1-.7-4.2,12.63,12.63,0,0,1,.7-4.34,11.46,11.46,0,0,1,1.87-3.36,10.9,10.9,0,0,1,2.69-2.38,12.75,12.75,0,0,1,3.12-1.42l0.55,2.4a10.75,10.75,0,0,0-1.82.86,7.8,7.8,0,0,0-1.94,1.61,8.91,8.91,0,0,0-1.55,2.57,9.88,9.88,0,0,0-.63,3.75,8,8,0,0,0,.67,3.49,6.78,6.78,0,0,0,1.62,2.21,6.16,6.16,0,0,0,2,1.19,7.16,7.16,0,0,0,1.7.42Z"/><path class="cls-4" d="M561.81,446.56l2.62-.3-0.83,7.36-1.79.2C561.8,450.92,561.81,449.46,561.81,446.56Zm5-.57,2.61-.31L568.55,453l-1.79.21C566.76,450.35,566.76,448.89,566.76,446Z"/><path class="cls-4" d="M589.32,443.21l2.61-.34-0.83,7.38-1.79.23C589.32,447.57,589.32,446.12,589.32,443.21Zm4.95-.65,2.61-.35-0.82,7.38-1.79.24C594.27,446.93,594.27,445.47,594.27,442.57Z"/><path class="cls-4" d="M602.81,459.88a9.07,9.07,0,0,0,1.69-.84,8.73,8.73,0,0,0,2-1.67,9.53,9.53,0,0,0,1.61-2.61,9.21,9.21,0,0,0,.66-3.66,8.74,8.74,0,0,0-.63-3.59,6.37,6.37,0,0,0-1.55-2.19,5.52,5.52,0,0,0-1.93-1.13,8.56,8.56,0,0,0-1.82-.41l0.55-2.54a10.2,10.2,0,0,1,3.11.65,7.64,7.64,0,0,1,2.68,1.72,8.3,8.3,0,0,1,1.87,2.9,11.25,11.25,0,0,1,.7,4.17,12.87,12.87,0,0,1-.7,4.38,11.69,11.69,0,0,1-1.87,3.39,11.16,11.16,0,0,1-2.68,2.42,12.13,12.13,0,0,1-3.11,1.44Z"/></svg>