<svg id="Layer_1" data-name="Layer 1" xmlns="http://www.w3.org/2000/svg" viewBox="0 0 720 576"><defs><style>.cls-1,.cls-2,.cls-4,.cls-6{fill:#231f20;}.cls-1,.cls-3{stroke:#231f20;}.cls-1,.cls-6{stroke-miterlimit:10;}.cls-1,.cls-2,.cls-3{stroke-width:2px;}.cls-2{stroke:#000;}.cls-2,.cls-3{stroke-linecap:round;stroke-linejoin:round;}.cls-3,.cls-5{fill:#fff;}.cls-6{stroke:#fff;}</style></defs><title>Hanoi_Tower_Set_5_Final</title><path class="cls-1" d="M689.9,506.49c0-.14,0-0.29,0-0.43s0-.29,0-0.43V453.84H44.1s-0.25,51.74-.25,52.22c0,2.67,2.32,5.24,6.64,7.71,15.13,8.61,55.2,16.11,111,21.48s127.37,8.59,205.39,8.59c89.16,0,169.88-4.21,228.32-11,29.22-3.41,52.87-7.46,69.23-12,8.18-2.25,14.54-4.62,18.86-7.08,3.69-2.1,5.91-4.29,6.48-6.55h0.11v-0.73Z"/><ellipse class="cls-2" cx="366.9" cy="454.92" rx="322.86" ry="37.63"/><path class="cls-3" d="M689.9,455c0-.14,0-0.29,0-0.43s0-.29,0-0.43V402.36H44.1s-0.25,51.74-.25,52.22c0,2.67,2.32,5.24,6.64,7.71,15.13,8.61,55.2,16.11,111,21.48s127.37,8.59,205.39,8.59c89.16,0,169.88-4.21,228.32-11,29.22-3.41,52.87-7.46,69.23-12,8.18-2.25,14.54-4.62,18.86-7.08,3.69-2.1,5.91-4.29,6.48-6.55h0.11V455Z"/><ellipse class="cls-3" cx="366.9" cy="403.44" rx="322.86" ry="37.63"/><path class="cls-3" d="M689.9,403.53c0-.14,0-0.29,0-0.43s0-.29,0-0.43V350.88H44.1s-0.25,51.74-.25,52.22c0,2.67,2.32,5.24,6.64,7.71,15.13,8.61,55.2,16.11,111,21.48s127.37,8.59,205.39,8.59c89.16,0,169.88-4.21,228.32-11,29.22-3.41,52.87-7.46,69.23-12,8.18-2.25,14.54-4.62,18.86-7.08,3.69-2.1,5.91-4.29,6.48-6.55h0.11v-0.73Z"/><ellipse class="cls-3" cx="366.9" cy="351.97" rx="322.86" ry="37.63"/><path class="cls-3" d="M689.9,352.06c0-.14,0-0.29,0-0.43s0-.29,0-0.43V299.4H44.1s-0.25,51.74-.25,52.22c0,2.67,2.32,5.24,6.64,7.71,15.13,8.61,55.2,16.11,111,21.48s127.37,8.59,205.39,8.59c89.16,0,169.88-4.21,228.32-11,29.22-3.41,52.87-7.46,69.23-12,8.18-2.25,14.54-4.62,18.86-7.08,3.69-2.1,5.91-4.29,6.48-6.55h0.11v-0.73Z"/><ellipse class="cls-3" cx="366.9" cy="300.49" rx="322.86" ry="37.63"/><path class="cls-4" d="M366.89,309.88c-16,0-29-3.75-30.2-8.61h-0.08l0-.5V8.27h60.63v293H397.1C395.87,306.14,382.87,309.88,366.89,309.88Z"/><path class="cls-5" d="M396.72,8.77v292h0c-0.49,4.78-13.63,8.61-29.79,8.61s-29.3-3.83-29.79-8.61h0v-0.21s0,0,0-.06,0,0,0-.06V8.77h59.63m1-1H336.09V300.39s0,0.07,0,.11v1.27h0.23c2,5.6,16.84,8.61,30.58,8.61s28.6-3,30.58-8.61h0.21l0-1V7.77h0Z"/><ellipse class="cls-6" cx="366.89" cy="8.89" rx="29.81" ry="8.89"/><path class="cls-4" d="M52.53,343.07l2.71,0.43v-6.16l-2.71-.43v-2.42l4.92,0.77,0.33,1.5h0.09a4.61,4.61,0,0,1,1.4-1,3.17,3.17,0,0,1,1.84-.2,3,3,0,0,1,2.07,1.28,5.93,5.93,0,0,1,.75,3.35l-2.56-.39a2.44,2.44,0,0,0-.23-1.19,1,1,0,0,0-.73-0.48,2,2,0,0,0-1.41.22,3.54,3.54,0,0,0-.91.87v4.69l4.75,0.73v2.42c-4.12-.63-6.18-1-10.3-1.6v-2.42Z"/><path class="cls-4" d="M76.48,348a3.18,3.18,0,0,1-.73.41,6.15,6.15,0,0,1-1.05.32,7.44,7.44,0,0,1-1.32.16,8.45,8.45,0,0,1-1.53-.09,8.14,8.14,0,0,1-2.51-.77,6.08,6.08,0,0,1-3-3.44,7.33,7.33,0,0,1-.4-2.49,6,6,0,0,1,.46-2.47A4.11,4.11,0,0,1,67.61,338a4.4,4.4,0,0,1,1.87-.81,7,7,0,0,1,2.32,0,7.81,7.81,0,0,1,1.72.47,5.61,5.61,0,0,1,1.63,1,5,5,0,0,1,1.21,1.62,5.36,5.36,0,0,1,.47,2.36,10.07,10.07,0,0,1-.22,2l-7.88-1.17a2.82,2.82,0,0,0,.3,1.23,2.91,2.91,0,0,0,.72.9,3.7,3.7,0,0,0,1,.6,5.59,5.59,0,0,0,1.24.33,6.15,6.15,0,0,0,2.16,0,3.83,3.83,0,0,0,1.37-.55Zm-4.73-8.55a3.48,3.48,0,0,0-1.07,0,2.55,2.55,0,0,0-.91.32,2,2,0,0,0-.67.65,2.05,2.05,0,0,0-.31,1l5.38,0.8a2.77,2.77,0,0,0-.6-1.83A2.8,2.8,0,0,0,71.75,339.42Z"/><path class="cls-4" d="M89.89,350a5.4,5.4,0,0,1-2.1.73,8.93,8.93,0,0,1-2.52,0,7.81,7.81,0,0,1-2.53-.78,6.28,6.28,0,0,1-1.86-1.44,6,6,0,0,1-1.15-2,7.37,7.37,0,0,1-.39-2.43,5.74,5.74,0,0,1,.46-2.4A4.22,4.22,0,0,1,81.07,340a4.65,4.65,0,0,1,1.94-.86,7.17,7.17,0,0,1,2.43,0,9.69,9.69,0,0,1,2.3.61,12.34,12.34,0,0,1,1.64.78v3.87L87,344v-2a6.64,6.64,0,0,0-1.36-.35,3.94,3.94,0,0,0-1.22,0A2.46,2.46,0,0,0,82.56,343a3.11,3.11,0,0,0-.3,1.43,3.69,3.69,0,0,0,.24,1.33,3.74,3.74,0,0,0,.68,1.13,3.78,3.78,0,0,0,1.08.85,4.31,4.31,0,0,0,1.43.46,4.87,4.87,0,0,0,2-.06,6.87,6.87,0,0,0,1.19-.45Z"/><path class="cls-4" d="M98.3,341.2l4.08,0.55v8.58l1.67,0.22V353l-3.46-.46-0.5-1.7H100A3.19,3.19,0,0,1,98.48,352a4.29,4.29,0,0,1-2.24.25,5.42,5.42,0,0,1-1.52-.43,3.31,3.31,0,0,1-1.17-.89,4,4,0,0,1-.75-1.47,7.88,7.88,0,0,1-.26-2.19c0-1.77,0-2.65,0-4.42l-1.25-.17v-2.42l4.1,0.56v6.25a3.69,3.69,0,0,0,.43,2,1.81,1.81,0,0,0,1.35.78,2.2,2.2,0,0,0,2.37-1.35v-4.69l-1.23-.17V341.2Z"/><path class="cls-4" d="M105.08,350.68l2.72,0.36v-6.16l-2.72-.36V342.1l4.93,0.64,0.33,1.49h0.09a4.81,4.81,0,0,1,1.4-1,3.22,3.22,0,0,1,1.84-.25,2.89,2.89,0,0,1,2.07,1.23,5.81,5.81,0,0,1,.76,3.33l-2.57-.32a2.4,2.4,0,0,0-.23-1.18,0.94,0.94,0,0,0-.74-0.46,2,2,0,0,0-1.41.26,3.67,3.67,0,0,0-.91.9v4.69l4.76,0.61v2.42c-4.13-.52-6.2-0.79-10.33-1.33v-2.42Z"/><path class="cls-4" d="M127.36,360.57a11.45,11.45,0,0,1-3-1.33,10.43,10.43,0,0,1-2.57-2.27,10.91,10.91,0,0,1-1.79-3.21,12.17,12.17,0,0,1-.67-4.17,10.83,10.83,0,0,1,.67-4,8.13,8.13,0,0,1,1.79-2.8,7.51,7.51,0,0,1,2.57-1.69,9.9,9.9,0,0,1,3-.67l0.53,2.42a8.26,8.26,0,0,0-1.74.42,5.41,5.41,0,0,0-1.85,1.12,6.23,6.23,0,0,0-1.48,2.12,8.42,8.42,0,0,0-.6,3.45,8.7,8.7,0,0,0,.64,3.49,8.92,8.92,0,0,0,1.55,2.47,8.16,8.16,0,0,0,1.88,1.57,8.46,8.46,0,0,0,1.62.78Z"/><path class="cls-4" d="M132.87,354.14l3.36,0.39v-9.61l-2.9,1.89L132,344.89l5-3.24,1.93,0.22v13l3.3,0.37c0,1,0,1.45,0,2.42l-9.38-1.08v-2.42Z"/><path class="cls-4" d="M146.05,355.64l3.36,0.37V346.4l-2.9,1.9-1.32-1.91,5-3.28,1.93,0.21v13l3.3,0.35v2.42l-9.38-1v-2.42Z"/><path class="cls-4" d="M161.7,358.32a1.36,1.36,0,0,1,.49-1.14,1.66,1.66,0,0,1,1.24-.31,2.43,2.43,0,0,1,1.82,1,3.36,3.36,0,0,1,.62,2,3.91,3.91,0,0,1-.38,1.76,4.13,4.13,0,0,1-1,1.31,4.7,4.7,0,0,1-1.37.83,5.17,5.17,0,0,1-1.51.35L161,362.85a5.93,5.93,0,0,0,1.07-.26,3.79,3.79,0,0,0,1-.51,2.91,2.91,0,0,0,.74-0.77,2.13,2.13,0,0,0,.34-1,2.8,2.8,0,0,1-1.12-.08,1.92,1.92,0,0,1-.76-0.43,1.67,1.67,0,0,1-.43-0.66A2.39,2.39,0,0,1,161.7,358.32Z"/><path class="cls-4" d="M172.42,358.39l3.36,0.32c0-3.85,0-5.77,0-9.61l-2.9,1.94-1.32-1.89,5-3.34,1.94,0.18c0,5.19,0,7.79,0,13l3.3,0.31v2.42l-9.39-.89v-2.42Z"/><path class="cls-4" d="M184.13,354.19a12.73,12.73,0,0,1,.42-3.47,6.5,6.5,0,0,1,1.18-2.39,4.31,4.31,0,0,1,1.82-1.32,5.3,5.3,0,0,1,2.36-.28A5.63,5.63,0,0,1,194.2,349q1.5,2.08,1.5,6.17a12.84,12.84,0,0,1-.42,3.49,6.67,6.67,0,0,1-1.18,2.41,4.28,4.28,0,0,1-1.83,1.34,5.37,5.37,0,0,1-2.37.28,5.48,5.48,0,0,1-4.28-2.44A10.82,10.82,0,0,1,184.13,354.19Zm2.86,0.26q0,0.33,0,.63c0,0.2,0,.4,0,0.61l5.32-4.43a2.75,2.75,0,0,0-2.47-2.11,2.12,2.12,0,0,0-2.15,1.16A8.57,8.57,0,0,0,187,354.45Zm5.85,0.52c0-.23,0-0.46,0-0.67s0-.42,0-0.63l-5.35,4.43a2.81,2.81,0,0,0,2.47,2.22,2.15,2.15,0,0,0,2.16-1.15A8.59,8.59,0,0,0,192.84,355Z"/><path class="cls-4" d="M199.13,365.5a7,7,0,0,0,1.63-.45,6.16,6.16,0,0,0,1.88-1.19,6.72,6.72,0,0,0,1.55-2.15,7.77,7.77,0,0,0,.64-3.36,9.32,9.32,0,0,0-.6-3.57,8.22,8.22,0,0,0-1.49-2.42,7.21,7.21,0,0,0-1.86-1.5,10,10,0,0,0-1.75-.77l0.53-2.31a11.88,11.88,0,0,1,3,1.28,10.07,10.07,0,0,1,2.58,2.21,10.62,10.62,0,0,1,1.79,3.17,11.92,11.92,0,0,1,.67,4.13,11,11,0,0,1-.67,4,8.37,8.37,0,0,1-1.79,2.85,7.81,7.81,0,0,1-2.58,1.75,9.58,9.58,0,0,1-3,.72Z"/><path class="cls-4" d="M303.84,369.29v-2.42l2.6,0.08v-6.16l-2.63-.08c0-1,0-1.45,0-2.42l2.63,0.08v-0.62a4,4,0,0,1,.36-1.77,3.42,3.42,0,0,1,1-1.2,3.79,3.79,0,0,1,1.38-.67,5.64,5.64,0,0,1,1.62-.18,10.46,10.46,0,0,1,2.5.32,6.62,6.62,0,0,1,1.62.67l-0.84,2.16a10.13,10.13,0,0,0-1.09-.47,4.87,4.87,0,0,0-1.51-.24,2.09,2.09,0,0,0-1.67.49,2.33,2.33,0,0,0-.48,1.6l4.63,0.13c0,1,0,1.45,0,2.42l-4.63-.13c0,2.46,0,3.7,0,6.16l4.66,0.13v2.42C309.91,369.48,307.89,369.42,303.84,369.29Z"/><path class="cls-4" d="M317.49,359.42a11.87,11.87,0,0,1,2-.63,11.58,11.58,0,0,1,2.75-.22,6.18,6.18,0,0,1,2,.32,3.37,3.37,0,0,1,1.3.81,3.05,3.05,0,0,1,.72,1.23,5.34,5.34,0,0,1,.22,1.59q0,1.12-.08,1.91t-0.08,1.41a9.4,9.4,0,0,0,0,1c0,0.2.05,0.4,0.07,0.59l1.43,0c0,1,0,1.45,0,2.42l-3.7-.08-0.29-1.5h-0.11a3.67,3.67,0,0,1-1.25,1.15,4.12,4.12,0,0,1-2.19.44,3.8,3.8,0,0,1-2.61-.94,3.08,3.08,0,0,1-1-2.36,3.44,3.44,0,0,1,.34-1.59,2.75,2.75,0,0,1,1-1.08,4.6,4.6,0,0,1,1.56-.6,9.1,9.1,0,0,1,2-.16q0.4,0,.83.06l1.07,0.11a2.22,2.22,0,0,0,0-.44v-0.42a1.44,1.44,0,0,0-.48-1.21,2.39,2.39,0,0,0-1.42-.4,6.6,6.6,0,0,0-2,.24,12.64,12.64,0,0,0-1.51.54Zm3.75,8.17a2.6,2.6,0,0,0,1.57-.35,2.5,2.5,0,0,0,.76-0.81v-1.32l-0.65-.11a7.61,7.61,0,0,0-.94-0.08,4.57,4.57,0,0,0-.83.06,2.71,2.71,0,0,0-.74.22,1.4,1.4,0,0,0-.52.42,1,1,0,0,0-.2.63,1.28,1.28,0,0,0,.36,1A1.73,1.73,0,0,0,321.25,367.59Z"/><path class="cls-4" d="M340.79,369.07a6.21,6.21,0,0,1-2.12,1,9.24,9.24,0,0,1-2.54.3,7.27,7.27,0,0,1-2.55-.46,5.31,5.31,0,0,1-1.88-1.21,5.12,5.12,0,0,1-1.16-1.86,6.9,6.9,0,0,1-.4-2.38,6.11,6.11,0,0,1,.46-2.46,5.06,5.06,0,0,1,1.29-1.8,5.46,5.46,0,0,1,2-1.1,7.49,7.49,0,0,1,2.45-.34,9.11,9.11,0,0,1,2.32.32,10.9,10.9,0,0,1,1.65.57c0,1.55,0,2.32,0,3.87l-2.43,0c0-.81,0-1.21,0-2a6.27,6.27,0,0,0-1.37-.18,4.1,4.1,0,0,0-1.22.17,2.94,2.94,0,0,0-1.08.58,3,3,0,0,0-.77,1,3.33,3.33,0,0,0-.3,1.47,3.43,3.43,0,0,0,.24,1.3,3.15,3.15,0,0,0,.68,1,3.19,3.19,0,0,0,1.09.71,4,4,0,0,0,1.44.28,5.13,5.13,0,0,0,2.06-.32,8.06,8.06,0,0,0,1.2-.6Z"/><path class="cls-4" d="M344.54,361.59l-2.18,0v-2.42l2.18,0v-2.51l2.87-.78c0,1.33,0,2,0,3.32l5.78,0.05c0,1,0,1.45,0,2.42l-5.78-.05c0,1.26,0,1.89,0,3.15a3.81,3.81,0,0,0,.64,2.46,2.23,2.23,0,0,0,1.79.78,3.8,3.8,0,0,0,1.08-.13,4,4,0,0,0,.87-0.35,5,5,0,0,0,.71-0.48l0.58-.48,1.32,2a4.2,4.2,0,0,1-.94.8,7.75,7.75,0,0,1-1.21.63,7.66,7.66,0,0,1-1.36.42,6.48,6.48,0,0,1-1.39.14,4.8,4.8,0,0,1-3.72-1.41,6.43,6.43,0,0,1-1.25-4.38v-3.15Z"/><path class="cls-4" d="M356,364.77a6.73,6.73,0,0,1,.42-2.46,5,5,0,0,1,1.19-1.82,5.07,5.07,0,0,1,1.84-1.12,7,7,0,0,1,2.39-.38,7,7,0,0,1,2.48.42,5.15,5.15,0,0,1,1.84,1.18,5,5,0,0,1,1.14,1.84,7,7,0,0,1,.39,2.38,6.77,6.77,0,0,1-.42,2.46,4.95,4.95,0,0,1-3,3,7,7,0,0,1-2.4.38,6.91,6.91,0,0,1-2.48-.43,5.15,5.15,0,0,1-1.84-1.19,5,5,0,0,1-1.14-1.84A7,7,0,0,1,356,364.77Zm3,0a4.36,4.36,0,0,0,.2,1.34,3.29,3.29,0,0,0,.57,1.08,2.6,2.6,0,0,0,.9.72,3.06,3.06,0,0,0,3.3-.55,3.54,3.54,0,0,0,.81-2.57,3.81,3.81,0,0,0-.75-2.45,2.59,2.59,0,0,0-2.14-.94,3.44,3.44,0,0,0-1.15.18,2.25,2.25,0,0,0-.92.6,2.94,2.94,0,0,0-.61,1.05A4.73,4.73,0,0,0,359,364.79Z"/><path class="cls-4" d="M369.33,367.89h2.74c0-2.46,0-3.7,0-6.16h-2.74c0-1,0-1.45,0-2.42h5l0.33,1.45h0.09a5.88,5.88,0,0,1,1.41-1.22A3.51,3.51,0,0,1,378,359a2.5,2.5,0,0,1,2.08,1,5.28,5.28,0,0,1,.76,3.23h-2.58a2.2,2.2,0,0,0-.23-1.15,0.81,0.81,0,0,0-.74-0.36,2.19,2.19,0,0,0-1.42.45,4.45,4.45,0,0,0-.92,1v4.69l4.79,0v2.42c-4.16,0-6.24,0-10.39,0v-2.42Z"/><path class="cls-4" d="M383,367.83l3.88,0c0-2.46,0-3.7,0-6.16l-3.88,0c0-1,0-1.45,0-2.42l6.75-.06c0,3.43,0,5.15,0,8.58l4.08,0v2.42c-4.33.06-6.5,0.08-10.83,0.11v-2.42Zm3.35-11.6a1.57,1.57,0,0,1,.51-1.17,2,2,0,0,1,1.41-.5,2.15,2.15,0,0,1,1.48.47,1.48,1.48,0,0,1,.55,1.16,1.44,1.44,0,0,1-.55,1.16,2.28,2.28,0,0,1-1.48.47,2,2,0,0,1-1.41-.44A1.46,1.46,0,0,1,386.36,356.23Z"/><path class="cls-4" d="M396.93,359.84a12.29,12.29,0,0,1,2-.71,11.72,11.72,0,0,1,2.75-.33,6.07,6.07,0,0,1,2,.24,3.2,3.2,0,0,1,1.3.76,2.9,2.9,0,0,1,.72,1.2,5.26,5.26,0,0,1,.22,1.58q0,1.12-.08,1.92t-0.08,1.41a9.39,9.39,0,0,0,0,1c0,0.2.05,0.4,0.07,0.59l1.43,0c0,1,0,1.45,0,2.42l-3.7.07-0.29-1.49H403.2a3.89,3.89,0,0,1-1.25,1.2,4.23,4.23,0,0,1-2.19.53,3.67,3.67,0,0,1-2.61-.84,3,3,0,0,1-1-2.32,3.52,3.52,0,0,1,.34-1.6,2.91,2.91,0,0,1,1-1.11,4.79,4.79,0,0,1,1.56-.66,9.2,9.2,0,0,1,2-.24q0.4,0,.83,0l1.07,0.07a2.24,2.24,0,0,0,0-.44V362.7a1.38,1.38,0,0,0-.48-1.19,2.32,2.32,0,0,0-1.42-.34,6.7,6.7,0,0,0-2,.32,13.11,13.11,0,0,0-1.51.6Zm3.76,8a2.68,2.68,0,0,0,1.57-.41,2.65,2.65,0,0,0,.76-0.84v-1.32l-0.65-.09a7.46,7.46,0,0,0-.94,0,4.59,4.59,0,0,0-.83.09,2.79,2.79,0,0,0-.74.25,1.48,1.48,0,0,0-.52.44,1.05,1.05,0,0,0-.2.64,1.24,1.24,0,0,0,.36,1A1.67,1.67,0,0,0,400.69,367.86Z"/><path class="cls-4" d="M410.1,354.46l4.7-.1c0,4.07,0,6.1,0,10.17a4.64,4.64,0,0,0,.42,2.34,1.44,1.44,0,0,0,1.35.63,3.75,3.75,0,0,0,1.13-.17,4.39,4.39,0,0,0,.88-0.43l1.08,2q-0.38.25-.75,0.47a4.91,4.91,0,0,1-.79.37,5.48,5.48,0,0,1-.92.24,7.42,7.42,0,0,1-1.11.1,4.09,4.09,0,0,1-3.11-1,4,4,0,0,1-1-3c0-3.7,0-5.54,0-9.24l-1.83,0C410.1,355.92,410.1,355.43,410.1,354.46Z"/><path class="cls-4" d="M423.14,372.12l9.8-.29c0,0.94,0,1.41,0,2.35l-9.8.29v-2.35Z"/><path class="cls-4" d="M434.66,353.8l4.46-.15c0,2.25,0,3.38,0,5.63h0.09a3.91,3.91,0,0,1,1.41-1.17,4.92,4.92,0,0,1,2.07-.49,5.12,5.12,0,0,1,1.54.16,2.78,2.78,0,0,1,1.21.68,3.25,3.25,0,0,1,.79,1.34,6.83,6.83,0,0,1,.29,2.13c0,2.74,0,4.11,0,6.84l-2.87.11c0-2.5,0-3.75,0-6.25a2.64,2.64,0,0,0-.57-1.91,1.92,1.92,0,0,0-1.5-.54,2.58,2.58,0,0,0-1.5.55,2.83,2.83,0,0,0-1,1.3c0,2.81,0,4.21,0,7l-2.87.1c0-5.19,0-7.79,0-13l-1.59.05C434.66,355.25,434.66,354.77,434.66,353.8Z"/><path class="cls-4" d="M459.67,367.05a4.14,4.14,0,0,1-.74.55,7.48,7.48,0,0,1-1.06.52,8.48,8.48,0,0,1-1.33.41,8.76,8.76,0,0,1-1.54.2,7.35,7.35,0,0,1-2.52-.29,4.66,4.66,0,0,1-3.07-2.85,7.32,7.32,0,0,1,.05-5,5.38,5.38,0,0,1,1.27-1.87,5.61,5.61,0,0,1,1.89-1.17,7.5,7.5,0,0,1,2.34-.46,7.16,7.16,0,0,1,1.73.14,4.51,4.51,0,0,1,1.64.69,3.82,3.82,0,0,1,1.22,1.39,4.76,4.76,0,0,1,.47,2.27,10.61,10.61,0,0,1-.22,2.06l-7.94.35a2.45,2.45,0,0,0,.3,1.18,2.22,2.22,0,0,0,.73.76,3,3,0,0,0,1,.41,5.14,5.14,0,0,0,1.25.09,6.57,6.57,0,0,0,2.17-.4,4.83,4.83,0,0,0,1.38-.81Zm-4.76-7.64a3.72,3.72,0,0,0-1.08.2,3.17,3.17,0,0,0-.92.5,2.68,2.68,0,0,0-.67.78,2.4,2.4,0,0,0-.31,1l5.43-.23A2.07,2.07,0,0,0,454.91,359.41Z"/><path class="cls-4" d="M463,352.66l4.7-.23c0,4.07,0,6.1,0,10.17a4.58,4.58,0,0,0,.42,2.33,1.4,1.4,0,0,0,1.35.59,3.79,3.79,0,0,0,1.12-.2,4.51,4.51,0,0,0,.88-0.45l1.08,1.92q-0.38.26-.75,0.49a5.06,5.06,0,0,1-.79.39,5.58,5.58,0,0,1-.92.27,7.47,7.47,0,0,1-1.11.13,4,4,0,0,1-3.11-.9,3.91,3.91,0,0,1-1-2.94c0-3.7,0-5.54,0-9.24l-1.83.09C463,354.11,463,353.63,463,352.66Z"/><path class="cls-4" d="M474.35,356.49l3.75-.2,0.33,1.3h0.09a4.48,4.48,0,0,1,3.7-1.83,5.15,5.15,0,0,1,1.86.21,3.36,3.36,0,0,1,1.45.92,4.37,4.37,0,0,1,.94,1.66,8,8,0,0,1,.33,2.47,8.28,8.28,0,0,1-.37,2.56,5.82,5.82,0,0,1-1.08,2,5,5,0,0,1-1.72,1.31,6.23,6.23,0,0,1-2.31.55,8.89,8.89,0,0,1-1.34,0,3.56,3.56,0,0,1-1.1-.26c0,1.8,0,2.71,0,4.51l-2.86.16c0-5.19,0-7.79,0-13l-1.65.09C474.35,357.95,474.35,357.46,474.35,356.49Zm7,1.73a3.06,3.06,0,0,0-1.53.5,2.34,2.34,0,0,0-1,1.31v4.58a2.24,2.24,0,0,0,.89.34,4.84,4.84,0,0,0,1.18.08,3.21,3.21,0,0,0,1.15-.27A2.54,2.54,0,0,0,483,364a3.49,3.49,0,0,0,.62-1.2,5.84,5.84,0,0,0,.22-1.71,3.11,3.11,0,0,0-.71-2.2A2.16,2.16,0,0,0,481.36,358.22Z"/><path class="cls-4" d="M499.35,364.85a4.24,4.24,0,0,1-.74.56,7.67,7.67,0,0,1-1.06.54,8.6,8.6,0,0,1-1.33.44,8.8,8.8,0,0,1-1.54.23,7.31,7.31,0,0,1-2.52-.24,4.53,4.53,0,0,1-3.06-2.79,6.57,6.57,0,0,1-.41-2.41,6.67,6.67,0,0,1,.46-2.57,5.53,5.53,0,0,1,1.27-1.89,5.76,5.76,0,0,1,1.88-1.2,7.58,7.58,0,0,1,2.34-.51,7.11,7.11,0,0,1,1.73.11,4.41,4.41,0,0,1,1.64.65,3.71,3.71,0,0,1,1.22,1.36,4.71,4.71,0,0,1,.47,2.26,10.69,10.69,0,0,1-.22,2.06l-7.93.5a2.42,2.42,0,0,0,.3,1.17,2.15,2.15,0,0,0,.73.75,2.92,2.92,0,0,0,1,.39,5.12,5.12,0,0,0,1.25.06,6.63,6.63,0,0,0,2.17-.45,5,5,0,0,0,1.38-.84Zm-4.76-7.55a3.75,3.75,0,0,0-1.08.22,3.25,3.25,0,0,0-.91.52,2.76,2.76,0,0,0-.67.79,2.44,2.44,0,0,0-.31,1l5.42-.34A2,2,0,0,0,494.59,357.3Z"/><path class="cls-4" d="M501.66,363.44l2.73-.18V357.1l-2.73.18c0-1,0-1.45,0-2.42l5-.34,0.33,1.43H507a6.46,6.46,0,0,1,1.41-1.31,3.69,3.69,0,0,1,1.85-.61,2.33,2.33,0,0,1,2.08.82,5.05,5.05,0,0,1,.76,3.18l-2.58.18a2.12,2.12,0,0,0-.23-1.14,0.75,0.75,0,0,0-.74-0.31,2.32,2.32,0,0,0-1.42.54,4.91,4.91,0,0,0-.91,1.08v4.69l4.78-.34c0,1,0,1.45,0,2.42-4.15.3-6.22,0.44-10.37,0.72v-2.42Z"/><path class="cls-4" d="M524,368.91a9.62,9.62,0,0,1-3-.74,7.86,7.86,0,0,1-2.58-1.76,8.44,8.44,0,0,1-1.79-2.86,11,11,0,0,1-.67-4,11.86,11.86,0,0,1,.67-4.13,10.53,10.53,0,0,1,1.79-3.16A10,10,0,0,1,521,350a11.81,11.81,0,0,1,3-1.26l0.53,2.31a9.89,9.89,0,0,0-1.75.76,7.14,7.14,0,0,0-1.86,1.48,8.15,8.15,0,0,0-1.49,2.41,9.27,9.27,0,0,0-.61,3.57,7.8,7.8,0,0,0,.64,3.36,6.77,6.77,0,0,0,1.55,2.16,6.19,6.19,0,0,0,1.88,1.2,7,7,0,0,0,1.63.46Z"/><path class="cls-4" d="M529.56,361.39l3.37-.27c0-3.85,0-5.77,0-9.61L530,354l-1.32-1.65,5-4.24,1.94-.16v13l3.3-.28V363l-9.4.78v-2.42Z"/><path class="cls-4" d="M542.15,365.33l9.77-.87v2.35l-9.77.87v-2.35Z"/><path class="cls-4" d="M565.64,355.81a5.2,5.2,0,0,1-.41,2,5.78,5.78,0,0,1-1.11,1.72,6,6,0,0,1-3.78,1.84,6,6,0,0,1-2.14-.16,4.3,4.3,0,0,1-1.75-.92,4.56,4.56,0,0,1-1.19-1.71,6.51,6.51,0,0,1-.44-2.51,10.54,10.54,0,0,1,.76-4,12.39,12.39,0,0,1,1.95-3.27,11.68,11.68,0,0,1,2.66-2.36,9.83,9.83,0,0,1,2.93-1.31l0.64,2.2a9.46,9.46,0,0,0-2.18.93,9.17,9.17,0,0,0-1.8,1.37,8.35,8.35,0,0,0-1.33,1.69,6.07,6.07,0,0,0-.74,1.85,3.87,3.87,0,0,1,1.32-1.06,5.37,5.37,0,0,1,3.78-.43,3.65,3.65,0,0,1,2.47,2.17A5,5,0,0,1,565.64,355.81Zm-2.77.38a2,2,0,0,0-.71-1.73,2.65,2.65,0,0,0-1.93-.43,3.44,3.44,0,0,0-1.58.55,3.22,3.22,0,0,0-1,1,3.85,3.85,0,0,0-.06.54c0,0.2,0,.36,0,0.47a2.8,2.8,0,0,0,.18,1,2.11,2.11,0,0,0,1.34,1.29,2.69,2.69,0,0,0,1.12.1,2.88,2.88,0,0,0,1-.28,3.22,3.22,0,0,0,.86-0.6,2.91,2.91,0,0,0,.6-0.86A2.49,2.49,0,0,0,562.87,356.19Z"/><path class="cls-4" d="M578.83,354.47a5.22,5.22,0,0,1-.41,2,5.83,5.83,0,0,1-1.11,1.72,6.15,6.15,0,0,1-5.92,1.72,4.27,4.27,0,0,1-1.75-.91,4.51,4.51,0,0,1-1.19-1.71,6.49,6.49,0,0,1-.44-2.51,10.58,10.58,0,0,1,.76-4,12.5,12.5,0,0,1,1.94-3.29,11.8,11.8,0,0,1,2.66-2.38,9.89,9.89,0,0,1,2.92-1.33l0.64,2.2a9.52,9.52,0,0,0-2.18.94,9.25,9.25,0,0,0-1.8,1.38,8.44,8.44,0,0,0-1.33,1.7,6.11,6.11,0,0,0-.74,1.86,3.91,3.91,0,0,1,1.32-1.07,5.15,5.15,0,0,1,1.93-.58,5.08,5.08,0,0,1,1.85.13,3.61,3.61,0,0,1,2.47,2.15A4.93,4.93,0,0,1,578.83,354.47Zm-2.77.4a2,2,0,0,0-.71-1.73,2.64,2.64,0,0,0-1.92-.42,3.45,3.45,0,0,0-1.58.56,3.25,3.25,0,0,0-1,1,3.86,3.86,0,0,0-.06.54c0,0.2,0,.36,0,0.47a2.79,2.79,0,0,0,.18,1,2.09,2.09,0,0,0,1.34,1.28,2.69,2.69,0,0,0,1.12.09,2.9,2.9,0,0,0,1-.29,3.25,3.25,0,0,0,.86-0.61,2.93,2.93,0,0,0,.6-0.87A2.5,2.5,0,0,0,576.06,354.86Z"/><path class="cls-4" d="M585.47,356.42a4.77,4.77,0,0,0,1.33-.33,3.61,3.61,0,0,0,1-.64,3,3,0,0,0,.67-0.86,2.18,2.18,0,0,0,.24-1,1.92,1.92,0,0,0-.27-1.08,1.69,1.69,0,0,0-.76-0.63,3.36,3.36,0,0,0-1.16-.24,9.25,9.25,0,0,0-1.47.05l-1.23.13v-1.58l3.69-4.92-5.56.6v-2.42l9-1v2l-3.87,4.85,0.51-.06a4.19,4.19,0,0,1,1.49.1,3.21,3.21,0,0,1,1.28.65,3.34,3.34,0,0,1,.9,1.22,4.31,4.31,0,0,1,.34,1.79,4.86,4.86,0,0,1-.52,2.26,5.89,5.89,0,0,1-1.36,1.75,6.68,6.68,0,0,1-1.94,1.18,8.58,8.58,0,0,1-2.26.57,11.09,11.09,0,0,1-2,0,8.77,8.77,0,0,1-1.91-.34l0.77-2.46a2.78,2.78,0,0,0,.54.16l0.77,0.14a8,8,0,0,0,.88.08A6.06,6.06,0,0,0,585.47,356.42Z"/><path class="cls-4" d="M594.91,360.06l9.75-1.13c0,0.94,0,1.41,0,2.35l-9.75,1.13v-2.35Z"/><path class="cls-4" d="M617.85,354.75l-9.79,1.2v-2.13l0.66-.66,0.89-.93q0.49-.52,1-1.14t1.08-1.28q0.75-.93,1.31-1.68a12.75,12.75,0,0,0,.92-1.4,6,6,0,0,0,.54-1.25,4.35,4.35,0,0,0,.18-1.22,1.84,1.84,0,0,0-.2-0.83,2,2,0,0,0-.55-0.67,2.26,2.26,0,0,0-.85-0.4,2.94,2.94,0,0,0-1.09-.05,4.42,4.42,0,0,0-1.44.42,5.81,5.81,0,0,0-1.35,1l-1.14-1.89a11.34,11.34,0,0,1,2.05-1.36,7.58,7.58,0,0,1,2.6-.77,6,6,0,0,1,1.81,0,4.16,4.16,0,0,1,1.54.59,3.17,3.17,0,0,1,1.06,1.15,3.56,3.56,0,0,1,.39,1.73,6.89,6.89,0,0,1-.12,1.32,7,7,0,0,1-.37,1.26,9.54,9.54,0,0,1-.66,1.32q-0.41.69-1,1.51-0.44.63-1,1.27t-1,1.24q-0.5.59-1,1.11t-0.89.88l6.32-.78v2.42Z"/><path class="cls-4" d="M620.38,346.71a13.77,13.77,0,0,1,.42-3.56A8.35,8.35,0,0,1,622,340.5a5.91,5.91,0,0,1,1.82-1.72,6.07,6.07,0,0,1,2.36-.8,4.49,4.49,0,0,1,4.27,1.39q1.5,1.75,1.5,5.84a13.87,13.87,0,0,1-.42,3.59,8.57,8.57,0,0,1-1.18,2.66,5.84,5.84,0,0,1-1.83,1.74,6.12,6.12,0,0,1-2.37.8,4.34,4.34,0,0,1-4.27-1.51Q620.38,350.63,620.38,346.71Zm2.85-.36c0,0.22,0,.43,0,0.63s0,0.4,0,.6l5.31-5.59a2.11,2.11,0,0,0-2.46-1.57A2.76,2.76,0,0,0,624,342,9.67,9.67,0,0,0,623.23,346.35Zm5.83-.75c0-.23,0-0.46,0-0.67s0-.42,0-0.62l-5.33,5.59a2.15,2.15,0,0,0,2.46,1.69A2.79,2.79,0,0,0,628.3,350,9.69,9.69,0,0,0,629.06,345.59Z"/><path class="cls-4" d="M633.53,345a13.81,13.81,0,0,1,.42-3.57,8.41,8.41,0,0,1,1.18-2.65,6,6,0,0,1,1.82-1.73,6.09,6.09,0,0,1,2.35-.81,4.46,4.46,0,0,1,4.27,1.36q1.5,1.74,1.5,5.83a13.92,13.92,0,0,1-.42,3.59,8.64,8.64,0,0,1-1.18,2.67,5.89,5.89,0,0,1-1.83,1.75,6.16,6.16,0,0,1-2.36.82,4.31,4.31,0,0,1-4.27-1.48Q633.53,348.92,633.53,345Zm2.85-.38c0,0.22,0,.43,0,0.63s0,0.4,0,.6l5.3-5.63a2.1,2.1,0,0,0-2.46-1.56,2.78,2.78,0,0,0-2.14,1.64A9.71,9.71,0,0,0,636.38,344.62Zm5.83-.79c0-.23,0-0.46,0-0.67s0-.42,0-0.62l-5.33,5.63a2.13,2.13,0,0,0,2.46,1.67,2.81,2.81,0,0,0,2.15-1.64A9.73,9.73,0,0,0,642.21,343.83Z"/><path class="cls-4" d="M650.63,349a1.74,1.74,0,0,1,.49-1.26,2.07,2.07,0,0,1,1.24-.62,1.9,1.9,0,0,1,1.82.53,2.75,2.75,0,0,1,.61,1.87,4.55,4.55,0,0,1-.38,1.86,5.8,5.8,0,0,1-1,1.55,6.59,6.59,0,0,1-1.37,1.16,6.47,6.47,0,0,1-1.5.72l-0.59-1.13a7.48,7.48,0,0,0,1.06-.52,5.24,5.24,0,0,0,1-.74,4.18,4.18,0,0,0,.73-1,2.66,2.66,0,0,0,.34-1.11,2.87,2.87,0,0,1-1.12.19,1.45,1.45,0,0,1-.76-0.24,1.18,1.18,0,0,1-.43-0.56A2.12,2.12,0,0,1,650.63,349Z"/><path class="cls-4" d="M671.62,343l-2.63.4v4.29l-2.65.4c0-1.72,0-2.57,0-4.29l-6.63,1v-2l6.94-10.29,2.34-.35c0,3.57,0,5.36,0,8.93l2.63-.4C671.62,341.63,671.62,342.09,671.62,343Zm-5.27-6.38-3.81,5.45,3.81-.57C666.35,339.56,666.35,338.58,666.35,336.63Z"/><path class="cls-4" d="M674.75,349.08a8.76,8.76,0,0,0,1.62-.83,8.56,8.56,0,0,0,1.87-1.63,9.32,9.32,0,0,0,1.54-2.52,8.9,8.9,0,0,0,.63-3.51,8.3,8.3,0,0,0-.6-3.43,6,6,0,0,0-1.48-2.07,5.17,5.17,0,0,0-1.85-1.05,8,8,0,0,0-1.74-.36l0.53-2.44a9.63,9.63,0,0,1,3,.57,7.15,7.15,0,0,1,2.56,1.6,7.79,7.79,0,0,1,1.78,2.74,10.68,10.68,0,0,1,.67,4,12.41,12.41,0,0,1-.67,4.2,11.42,11.42,0,0,1-1.78,3.27,10.93,10.93,0,0,1-2.56,2.36,11.84,11.84,0,0,1-3,1.43Z"/><path class="cls-4" d="M57.94,450.53V448l2.7,0.43V442l-2.72-.43V439l2.72,0.43v-0.64A3.87,3.87,0,0,1,61,437a3,3,0,0,1,1-1.13,3.42,3.42,0,0,1,1.43-.53,5.72,5.72,0,0,1,1.68,0,11.55,11.55,0,0,1,2.6.66,7.9,7.9,0,0,1,1.68.91l-0.87,2.14a12.23,12.23,0,0,0-1.13-.63,5.45,5.45,0,0,0-1.57-.45,2,2,0,0,0-1.73.3,2.21,2.21,0,0,0-.49,1.61l4.8,0.74v2.53l-4.8-.74v6.44l4.83,0.74v2.53C64.24,451.53,62.14,451.2,57.94,450.53Z"/><path class="cls-4" d="M72.1,442a11.17,11.17,0,0,1,2.12-.39,11.82,11.82,0,0,1,2.85.13,6.89,6.89,0,0,1,2,.59,4.14,4.14,0,0,1,1.35,1,3.75,3.75,0,0,1,.74,1.37,5.91,5.91,0,0,1,.23,1.69q0,1.17-.08,2t-0.08,1.46a10.11,10.11,0,0,0,0,1.09c0,0.21.05,0.43,0.07,0.63l1.49,0.22v2.53L79,453.75l-0.3-1.61-0.11,0a3.19,3.19,0,0,1-1.3,1,4,4,0,0,1-2.27.18A4.47,4.47,0,0,1,72.32,452a3.65,3.65,0,0,1-1-2.59,3.35,3.35,0,0,1,.35-1.61,2.38,2.38,0,0,1,1-1,4.24,4.24,0,0,1,1.61-.42,9.27,9.27,0,0,1,2.1.09q0.41,0.06.86,0.17l1.11,0.26a2.27,2.27,0,0,0,0-.45V446a1.7,1.7,0,0,0-.5-1.33,2.76,2.76,0,0,0-1.48-.6,6.64,6.64,0,0,0-2.09,0,11.74,11.74,0,0,0-1.57.36ZM76,451a2.52,2.52,0,0,0,1.63-.16,2.16,2.16,0,0,0,.79-0.75v-1.38l-0.68-.2a8.27,8.27,0,0,0-1-.2,4.63,4.63,0,0,0-.86,0,2.56,2.56,0,0,0-.77.14,1.21,1.21,0,0,0-.54.37,1,1,0,0,0-.2.64,1.51,1.51,0,0,0,.37,1.06A2,2,0,0,0,76,451Z"/><path class="cls-4" d="M96.27,455.12a5.66,5.66,0,0,1-2.2.76,9.32,9.32,0,0,1-2.63,0,8.16,8.16,0,0,1-2.65-.81,6.56,6.56,0,0,1-1.95-1.51,6.29,6.29,0,0,1-1.2-2.09,7.69,7.69,0,0,1-.41-2.54,6,6,0,0,1,.48-2.51,4.44,4.44,0,0,1,1.34-1.72,4.88,4.88,0,0,1,2-.9,7.52,7.52,0,0,1,2.54,0,10.13,10.13,0,0,1,2.4.64,12.94,12.94,0,0,1,1.72.81v4l-2.52-.35v-2.12a6.9,6.9,0,0,0-1.42-.36,4.15,4.15,0,0,0-1.27,0,2.58,2.58,0,0,0-1.92,1.42,3.26,3.26,0,0,0-.31,1.5,3.85,3.85,0,0,0,.25,1.39,3.85,3.85,0,0,0,1.84,2.07,4.48,4.48,0,0,0,1.5.48,5.09,5.09,0,0,0,2.14-.07,7.35,7.35,0,0,0,1.25-.47Z"/><path class="cls-4" d="M100.17,447.78l-2.27-.31v-2.53l2.27,0.31v-2.62l3-.45v3.47l6,0.8V449l-6-.8v3.29a4.39,4.39,0,0,0,.66,2.65,2.66,2.66,0,0,0,1.86,1,3.83,3.83,0,0,0,1.12,0,3.75,3.75,0,0,0,.91-0.26,4.31,4.31,0,0,0,.73-0.41l0.61-.43,1.38,2.25a3.66,3.66,0,0,1-1,.71,7.12,7.12,0,0,1-1.26.5,7.25,7.25,0,0,1-1.41.26,6.58,6.58,0,0,1-1.44,0,5.68,5.68,0,0,1-3.86-2,7.45,7.45,0,0,1-1.29-4.74v-3.29Z"/><path class="cls-4" d="M112.06,452.59a6.66,6.66,0,0,1,.44-2.52,4.43,4.43,0,0,1,1.24-1.75,4.51,4.51,0,0,1,1.91-.94,7,7,0,0,1,2.49-.08,7.8,7.8,0,0,1,2.58.76,6.34,6.34,0,0,1,1.92,1.47,6.08,6.08,0,0,1,1.18,2.07,7.81,7.81,0,0,1,.4,2.53,6.68,6.68,0,0,1-.44,2.52,4.35,4.35,0,0,1-3.15,2.7,7,7,0,0,1-2.49.09,7.75,7.75,0,0,1-2.58-.77,6.34,6.34,0,0,1-1.91-1.48,6.1,6.1,0,0,1-1.18-2.07A7.82,7.82,0,0,1,112.06,452.59Zm3.07,0.4a4.83,4.83,0,0,0,.21,1.43,4,4,0,0,0,.6,1.2,3.25,3.25,0,0,0,.94.87,3.16,3.16,0,0,0,1.26.43,2.61,2.61,0,0,0,2.17-.58,3.34,3.34,0,0,0,.84-2.59,4.42,4.42,0,0,0-.78-2.66,3.1,3.1,0,0,0-2.22-1.26,3.42,3.42,0,0,0-1.19,0,2,2,0,0,0-1,.51,2.61,2.61,0,0,0-.63,1A4.7,4.7,0,0,0,115.13,453Z"/><path class="cls-4" d="M125.91,457.56l2.84,0.35v-6.44l-2.84-.35v-2.53l5.16,0.63,0.34,1.56h0.09A5.13,5.13,0,0,1,133,449.7a3.39,3.39,0,0,1,1.93-.28,3,3,0,0,1,2.17,1.27,6,6,0,0,1,.79,3.47l-2.69-.32a2.49,2.49,0,0,0-.24-1.24,1,1,0,0,0-.77-0.47,2.09,2.09,0,0,0-1.48.28,3.89,3.89,0,0,0-1,.94v4.9l5,0.59v2.53c-4.32-.51-6.49-0.77-10.81-1.3v-2.53Z"/><path class="cls-4" d="M140.14,459.26l4,0.46v-6.44l-4-.46v-2.53l7,0.8v9l4.25,0.47v2.53c-4.51-.49-6.77-0.75-11.27-1.27v-2.53Zm3.49-11.7a1.44,1.44,0,0,1,.53-1.16,1.87,1.87,0,0,1,1.47-.34,2.5,2.5,0,0,1,1.54.68,1.77,1.77,0,0,1,.57,1.28,1.32,1.32,0,0,1-.57,1.14,2.17,2.17,0,0,1-1.54.3,2.37,2.37,0,0,1-1.47-.64A1.73,1.73,0,0,1,143.63,447.56Z"/><path class="cls-4" d="M154.63,452.69a11.54,11.54,0,0,1,2.12-.48,11.87,11.87,0,0,1,2.86,0,6.73,6.73,0,0,1,2,.5,3.92,3.92,0,0,1,1.36,1,3.54,3.54,0,0,1,.75,1.34,5.8,5.8,0,0,1,.23,1.68q0,1.17-.08,2t-0.08,1.46a10,10,0,0,0,0,1.09c0,0.21.05,0.43,0.07,0.63l1.49,0.15v2.53l-3.86-.4-0.3-1.6h-0.11a3.4,3.4,0,0,1-1.3,1.09,4.1,4.1,0,0,1-2.28.28,4.29,4.29,0,0,1-2.72-1.21,3.5,3.5,0,0,1-1-2.55,3.43,3.43,0,0,1,.35-1.63,2.54,2.54,0,0,1,1-1,4.41,4.41,0,0,1,1.62-.49,9.32,9.32,0,0,1,2.11,0c0.27,0,.56.07,0.87,0.14l1.12,0.21a2.31,2.31,0,0,0,0-.46v-0.44a1.63,1.63,0,0,0-.5-1.31,2.66,2.66,0,0,0-1.48-.54,6.7,6.7,0,0,0-2.1.08,12.18,12.18,0,0,0-1.57.43Zm3.91,8.86a2.58,2.58,0,0,0,1.64-.23,2.31,2.31,0,0,0,.8-0.78v-1.38l-0.68-.18a8.13,8.13,0,0,0-1-.16,4.66,4.66,0,0,0-.86,0,2.63,2.63,0,0,0-.77.17,1.29,1.29,0,0,0-.55.39,1,1,0,0,0-.2.65,1.45,1.45,0,0,0,.37,1A1.94,1.94,0,0,0,158.54,461.55Z"/><path class="cls-4" d="M168.35,448.74l4.9,0.49v10.63a5.2,5.2,0,0,0,.44,2.5,1.72,1.72,0,0,0,1.4.83,3.76,3.76,0,0,0,1.17,0,4,4,0,0,0,.92-0.34L178.3,465q-0.39.22-.78,0.4a4.58,4.58,0,0,1-.83.29,5.29,5.29,0,0,1-1,.14,7.52,7.52,0,0,1-1.16,0,4.78,4.78,0,0,1-3.24-1.42,4.68,4.68,0,0,1-1.08-3.24v-9.66l-1.91-.19v-2.53Z"/><path class="cls-4" d="M190.6,471.84a11.59,11.59,0,0,1-3.13-1.29,10.44,10.44,0,0,1-2.69-2.29,11,11,0,0,1-1.87-3.3,12.52,12.52,0,0,1-.7-4.34,11.46,11.46,0,0,1,.7-4.2,8.84,8.84,0,0,1,1.87-3,8.2,8.2,0,0,1,2.69-1.85,10.62,10.62,0,0,1,3.13-.8l0.55,2.51a8.9,8.9,0,0,0-1.83.49,5.88,5.88,0,0,0-1.94,1.23,6.8,6.8,0,0,0-1.55,2.26,9.26,9.26,0,0,0,1.66,9.78,8.16,8.16,0,0,0,2,1.58,8.63,8.63,0,0,0,1.7.76Z"/><path class="cls-4" d="M196.38,464.94l3.52,0.3V455.19l-3,2.06-1.38-2,5.25-3.55,2,0.17v13.57l3.45,0.28v2.53l-9.83-.83v-2.53Z"/><path class="cls-4" d="M210.19,466.09l3.52,0.28V456.32l-3,2.08-1.38-1.95,5.25-3.59,2,0.16v13.57l3.45,0.26v2.53c-3.93-.29-5.9-0.44-9.83-0.76v-2.53Z"/><path class="cls-4" d="M224.32,472.06a7.42,7.42,0,0,0,1.7-.49,6.52,6.52,0,0,0,2-1.26,7.16,7.16,0,0,0,1.62-2.27,8.17,8.17,0,0,0,.67-3.52,9.68,9.68,0,0,0-.63-3.72,8.48,8.48,0,0,0-1.55-2.51,7.41,7.41,0,0,0-1.95-1.54,10.35,10.35,0,0,0-1.83-.79l0.55-2.42a12.28,12.28,0,0,1,3.13,1.3,10.34,10.34,0,0,1,2.69,2.28,10.92,10.92,0,0,1,1.88,3.29,12.39,12.39,0,0,1,.7,4.31,11.58,11.58,0,0,1-.7,4.23,8.89,8.89,0,0,1-1.88,3,8.28,8.28,0,0,1-2.69,1.86,10.06,10.06,0,0,1-3.13.79Z"/><path class="cls-4" d="M376,474.82v-2.53h2.72v-6.44h-2.74v-2.53h2.74v-0.64a4.24,4.24,0,0,1,.38-1.87,3.78,3.78,0,0,1,1-1.29,4.15,4.15,0,0,1,1.44-.76,6,6,0,0,1,1.7-.25,10.78,10.78,0,0,1,2.62.24,6.65,6.65,0,0,1,1.7.64l-0.88,2.29a10.32,10.32,0,0,0-1.14-.45,5,5,0,0,0-1.58-.19,2.26,2.26,0,0,0-1.74.58,2.51,2.51,0,0,0-.5,1.69l4.84,0v2.53l-4.84,0v6.44l4.87,0v2.53C382.32,474.79,380.2,474.8,376,474.82Z"/><path class="cls-4" d="M390.25,464a12.74,12.74,0,0,1,2.13-.74,12.23,12.23,0,0,1,2.87-.34,6.36,6.36,0,0,1,2,.26,3.34,3.34,0,0,1,1.36.8,3,3,0,0,1,.75,1.25,5.49,5.49,0,0,1,.23,1.65q0,1.17-.08,2t-0.08,1.47a9.83,9.83,0,0,0,0,1.08c0,0.21.05,0.42,0.07,0.62l1.5,0v2.53l-3.87.06-0.3-1.56H396.8a4.06,4.06,0,0,1-1.31,1.25,4.41,4.41,0,0,1-2.29.55,3.85,3.85,0,0,1-2.73-.89,3.11,3.11,0,0,1-1-2.43,3.68,3.68,0,0,1,.35-1.67,3,3,0,0,1,1-1.16,5,5,0,0,1,1.63-.69,9.58,9.58,0,0,1,2.12-.25c0.27,0,.57,0,0.87,0l1.12,0.08a2.37,2.37,0,0,0,0-.46V467a1.45,1.45,0,0,0-.5-1.25,2.43,2.43,0,0,0-1.49-.36,7,7,0,0,0-2.11.33,13.72,13.72,0,0,0-1.58.62Zm3.93,8.39a2.53,2.53,0,0,0,2.44-1.3c0-.55,0-0.83,0-1.38l-0.68-.09a7.87,7.87,0,0,0-1,0,4.79,4.79,0,0,0-.87.09,2.92,2.92,0,0,0-.78.26,1.54,1.54,0,0,0-.55.46,1.1,1.1,0,0,0-.2.67,1.29,1.29,0,0,0,.38,1A1.75,1.75,0,0,0,394.18,472.38Z"/><path class="cls-4" d="M414.61,473.16a6.8,6.8,0,0,1-2.21,1.12,9.82,9.82,0,0,1-2.65.42,7.45,7.45,0,0,1-2.66-.38,5.27,5.27,0,0,1-2-1.19,5.07,5.07,0,0,1-1.21-1.9,7.08,7.08,0,0,1-.42-2.48,6.53,6.53,0,0,1,.48-2.59,5.58,5.58,0,0,1,1.35-1.94,6,6,0,0,1,2-1.23,8,8,0,0,1,2.56-.46,9.43,9.43,0,0,1,2.42.24,11.11,11.11,0,0,1,1.73.53v4l-2.54.06v-2.12a6.46,6.46,0,0,0-1.43-.13,4.39,4.39,0,0,0-1.28.22,3.22,3.22,0,0,0-1.13.64,3.36,3.36,0,0,0-.81,1.09,3.55,3.55,0,0,0-.31,1.55,3.51,3.51,0,0,0,.25,1.35,3.07,3.07,0,0,0,1.86,1.77,4.1,4.1,0,0,0,1.51.23,5.46,5.46,0,0,0,2.16-.42,9,9,0,0,0,1.26-.67Z"/><path class="cls-4" d="M418.53,465.2l-2.28.06v-2.53l2.28-.06V460l3-.93c0,1.39,0,2.08,0,3.47l6-.18v2.53l-6,.18v3.29a3.88,3.88,0,0,0,.67,2.55,2.24,2.24,0,0,0,1.87.74,4,4,0,0,0,1.13-.18,4.41,4.41,0,0,0,.91-0.41,5.44,5.44,0,0,0,.74-0.53l0.61-.52,1.38,2a4.65,4.65,0,0,1-1,.87,8.7,8.7,0,0,1-1.27.71,8.22,8.22,0,0,1-1.42.49,6.86,6.86,0,0,1-1.45.2,4.85,4.85,0,0,1-3.89-1.33q-1.3-1.4-1.3-4.53V465.2Z"/><path class="cls-4" d="M430.5,468.07a7.18,7.18,0,0,1,.44-2.59,5.44,5.44,0,0,1,3.17-3.2,7.53,7.53,0,0,1,2.5-.49,7.12,7.12,0,0,1,2.59.34,5.1,5.1,0,0,1,1.93,1.16,4.92,4.92,0,0,1,1.19,1.88,7.82,7.82,0,0,1,0,5.06,5.46,5.46,0,0,1-3.17,3.21,7.47,7.47,0,0,1-2.5.49,7.08,7.08,0,0,1-2.59-.35,5.11,5.11,0,0,1-1.93-1.17,4.94,4.94,0,0,1-1.19-1.88A7.22,7.22,0,0,1,430.5,468.07Zm3.09-.1a4.49,4.49,0,0,0,.21,1.4,3.29,3.29,0,0,0,.6,1.11,2.57,2.57,0,0,0,.94.71,2.84,2.84,0,0,0,1.27.22,3,3,0,0,0,2.18-.93,4.66,4.66,0,0,0,.06-5.26,2.61,2.61,0,0,0-2.24-.9,3.65,3.65,0,0,0-1.2.24,2.48,2.48,0,0,0-1,.67,3.24,3.24,0,0,0-.63,1.13A5,5,0,0,0,433.59,468Z"/><path class="cls-4" d="M444.43,470.79l2.86-.11v-6.44l-2.86.11v-2.53l5.19-.21,0.35,1.5h0.09a6.51,6.51,0,0,1,1.48-1.33,3.78,3.78,0,0,1,1.94-.59,2.51,2.51,0,0,1,2.18.91,5.39,5.39,0,0,1,.79,3.34l-2.7.12a2.25,2.25,0,0,0-.24-1.2,0.81,0.81,0,0,0-.77-0.35,2.37,2.37,0,0,0-1.49.52,5,5,0,0,0-1,1.1v4.9l5-.22v2.53c-4.34.19-6.52,0.29-10.86,0.46v-2.53Z"/><path class="cls-4" d="M458.72,470.18l4.06-.19c0-2.58,0-3.86,0-6.44l-4.06.19v-2.53l7.05-.34v9l4.26-.22c0,1,0,1.52,0,2.53-4.53.24-6.79,0.35-11.32,0.56v-2.53Zm3.5-12.26a1.71,1.71,0,0,1,.53-1.24,2.15,2.15,0,0,1,1.47-.58,2.17,2.17,0,0,1,1.54.43,1.48,1.48,0,0,1,.58,1.19,1.57,1.57,0,0,1-.58,1.24,2.47,2.47,0,0,1-1.54.55,2.06,2.06,0,0,1-1.47-.4A1.47,1.47,0,0,1,462.23,457.91Z"/><path class="cls-4" d="M473.27,461.26a13.29,13.29,0,0,1,2.13-.83,12.43,12.43,0,0,1,2.87-.46,6.25,6.25,0,0,1,2,.17,3.16,3.16,0,0,1,1.36.74,2.87,2.87,0,0,1,.75,1.22,5.4,5.4,0,0,1,.23,1.64q0,1.17-.08,2t-0.08,1.48a9.74,9.74,0,0,0,0,1.08c0,0.21.05,0.42,0.07,0.62l1.5-.09v2.53l-3.87.23-0.3-1.55h-0.11a4.32,4.32,0,0,1-1.31,1.3,4.54,4.54,0,0,1-2.29.65,3.71,3.71,0,0,1-2.73-.77,3,3,0,0,1-1-2.38,3.78,3.78,0,0,1,.35-1.69,3.21,3.21,0,0,1,1-1.21,5.2,5.2,0,0,1,1.63-.76,9.72,9.72,0,0,1,2.12-.34c0.27,0,.56,0,0.87,0l1.12,0a2.4,2.4,0,0,0,0-.46V464a1.39,1.39,0,0,0-.5-1.23,2.36,2.36,0,0,0-1.49-.29,7.13,7.13,0,0,0-2.1.42,14.27,14.27,0,0,0-1.58.68Zm3.92,8.22a2.88,2.88,0,0,0,1.64-.49,2.94,2.94,0,0,0,.8-0.91V466.7l-0.68-.06a7.91,7.91,0,0,0-1,0,4.85,4.85,0,0,0-.87.13,3,3,0,0,0-.77.3,1.64,1.64,0,0,0-.55.48,1.13,1.13,0,0,0-.2.68,1.24,1.24,0,0,0,.38,1A1.7,1.7,0,0,0,477.19,469.48Z"/><path class="cls-4" d="M487,455.09l4.91-.31c0,4.25,0,6.38,0,10.63a4.76,4.76,0,0,0,.44,2.43,1.44,1.44,0,0,0,1.41.6,4,4,0,0,0,1.17-.23,4.83,4.83,0,0,0,.92-0.49l1.13,2q-0.39.28-.78,0.52a5.46,5.46,0,0,1-.83.42,5.89,5.89,0,0,1-1,.29,7.73,7.73,0,0,1-1.16.16,4.13,4.13,0,0,1-3.25-.9,4,4,0,0,1-1.08-3.06V457.5l-1.91.12v-2.53Z"/><path class="cls-4" d="M500.64,473c4.09-.28,6.14-0.42,10.22-0.72v2.46c-4.09.3-6.13,0.44-10.22,0.72V473Z"/><path class="cls-4" d="M512.66,453.36l4.65-.35c0,2.36,0,3.53,0,5.89h0.09a4.34,4.34,0,0,1,1.47-1.29,5.76,5.76,0,0,1,3.78-.5,2.76,2.76,0,0,1,1.27.66,3.22,3.22,0,0,1,.83,1.37,7,7,0,0,1,.3,2.22c0,2.86,0,4.29,0,7.15l-3,.24v-6.53a2.67,2.67,0,0,0-.6-2,1.94,1.94,0,0,0-1.57-.5,2.8,2.8,0,0,0-1.56.64,3.12,3.12,0,0,0-1,1.4c0,2.93,0,4.4,0,7.34l-3,.23V455.76l-1.66.12v-2.53Z"/><path class="cls-4" d="M538.76,466.13a4.62,4.62,0,0,1-.77.61,8.26,8.26,0,0,1-1.1.59,9.34,9.34,0,0,1-3,.76,7.59,7.59,0,0,1-2.64-.19A4.6,4.6,0,0,1,528,465a6.82,6.82,0,0,1-.43-2.51,7.05,7.05,0,0,1,.48-2.7,6,6,0,0,1,1.32-2,6.19,6.19,0,0,1,2-1.3,8,8,0,0,1,2.44-.59,7.4,7.4,0,0,1,1.81.08,4.52,4.52,0,0,1,1.71.65,3.75,3.75,0,0,1,1.28,1.4,4.85,4.85,0,0,1,.5,2.35,11.26,11.26,0,0,1-.23,2.16l-8.28.71a2.51,2.51,0,0,0,.31,1.22,2.17,2.17,0,0,0,.76.76,3,3,0,0,0,1.08.38,5.31,5.31,0,0,0,1.3,0,7,7,0,0,0,2.27-.52,5.37,5.37,0,0,0,1.44-.91Zm-5-7.78a4,4,0,0,0-1.13.26,3.5,3.5,0,0,0-1,.56,3,3,0,0,0-.7.84,2.58,2.58,0,0,0-.32,1.08l5.66-.48A2.07,2.07,0,0,0,533.79,458.35Z"/><path class="cls-4" d="M542.27,450.94l4.9-.44v10.63a4.69,4.69,0,0,0,.44,2.42,1.4,1.4,0,0,0,1.4.56,4,4,0,0,0,1.17-.26,5,5,0,0,0,.92-0.51l1.13,2q-0.39.29-.78,0.55a5.63,5.63,0,0,1-.83.45,6,6,0,0,1-1,.32,7.8,7.8,0,0,1-1.16.19,4,4,0,0,1-3.24-.81,3.94,3.94,0,0,1-1.08-3V453.3l-1.91.17v-2.53Z"/><path class="cls-4" d="M554.07,454.45l3.91-.38,0.34,1.35h0.09a4.9,4.9,0,0,1,3.86-2.08,5.28,5.28,0,0,1,1.94.14,3.32,3.32,0,0,1,1.52.89,4.34,4.34,0,0,1,1,1.69,8.28,8.28,0,0,1,.34,2.56,8.83,8.83,0,0,1-.39,2.7,6.4,6.4,0,0,1-1.13,2.13,5.56,5.56,0,0,1-1.79,1.45,6.68,6.68,0,0,1-2.41.68,9.42,9.42,0,0,1-1.4,0,3.61,3.61,0,0,1-1.15-.22v4.71l-3,.29V456.82l-1.72.17v-2.53Zm7.31,1.5a3.3,3.3,0,0,0-1.6.59,2.59,2.59,0,0,0-1,1.41v4.78a2.23,2.23,0,0,0,.93.31,5,5,0,0,0,1.23,0,3.41,3.41,0,0,0,1.2-.34,2.82,2.82,0,0,0,1-.8,3.85,3.85,0,0,0,.64-1.28,6.22,6.22,0,0,0,.23-1.79,3.13,3.13,0,0,0-.74-2.27A2.17,2.17,0,0,0,561.38,456Z"/><path class="cls-4" d="M580.13,462.08a4.76,4.76,0,0,1-.77.62,8.46,8.46,0,0,1-1.1.61,9.45,9.45,0,0,1-3,.83,7.53,7.53,0,0,1-2.63-.14,4.46,4.46,0,0,1-3.19-2.79,6.75,6.75,0,0,1-.42-2.5,7.13,7.13,0,0,1,.48-2.71,6.13,6.13,0,0,1,1.32-2,6.36,6.36,0,0,1,2-1.34,8.1,8.1,0,0,1,2.44-.64,7.35,7.35,0,0,1,1.8,0,4.42,4.42,0,0,1,1.71.61A3.63,3.63,0,0,1,580,454a4.8,4.8,0,0,1,.49,2.34,11.35,11.35,0,0,1-.23,2.16l-8.27.88a2.47,2.47,0,0,0,.31,1.21,2.1,2.1,0,0,0,.76.75,3,3,0,0,0,1.08.36,5.28,5.28,0,0,0,1.3,0,7.11,7.11,0,0,0,2.26-.56,5.51,5.51,0,0,0,1.44-.94Zm-5-7.68a4,4,0,0,0-1.13.28,3.59,3.59,0,0,0-1,.58,3,3,0,0,0-.7.86,2.63,2.63,0,0,0-.32,1.09l5.65-.6A2,2,0,0,0,575.17,454.4Z"/><path class="cls-4" d="M582.55,460.5l2.85-.31v-6.44l-2.85.31v-2.53l5.17-.57,0.34,1.48h0.09a7.2,7.2,0,0,1,1.47-1.43,4,4,0,0,1,1.93-.73,2.33,2.33,0,0,1,2.17.76,5.14,5.14,0,0,1,.79,3.29l-2.69.31a2.16,2.16,0,0,0-.24-1.18,0.75,0.75,0,0,0-.77-0.29,2.53,2.53,0,0,0-1.48.63,5.5,5.5,0,0,0-1,1.17v4.9l5-.57v2.53c-4.33.5-6.49,0.74-10.82,1.22V460.5Z"/><path class="cls-4" d="M605.87,465.21a9.68,9.68,0,0,1-3.12-.63,7.72,7.72,0,0,1-2.68-1.73,8.33,8.33,0,0,1-1.87-2.91,11.33,11.33,0,0,1-.7-4.2,12.71,12.71,0,0,1,.7-4.35,11.65,11.65,0,0,1,1.87-3.38,11.09,11.09,0,0,1,2.68-2.42,12.91,12.91,0,0,1,3.12-1.46l0.55,2.39a10.9,10.9,0,0,0-1.82.88,7.92,7.92,0,0,0-1.94,1.64,9.05,9.05,0,0,0-1.55,2.59,9.94,9.94,0,0,0-.63,3.76,8,8,0,0,0,.67,3.49,6.67,6.67,0,0,0,1.62,2.19,6.06,6.06,0,0,0,2,1.17,7.1,7.1,0,0,0,1.7.4Z"/><path class="cls-4" d="M611.63,457.09l3.51-.44V446.6l-3,2.7-1.38-1.67L616,443l2-.26v13.57l3.44-.44v2.53c-3.92.51-5.87,0.76-9.79,1.25v-2.53Z"/><path class="cls-4" d="M627.95,456a1.81,1.81,0,0,1,.52-1.31,2.15,2.15,0,0,1,1.3-.63,2,2,0,0,1,1.9.57,2.89,2.89,0,0,1,.64,2,4.74,4.74,0,0,1-.4,1.94,6,6,0,0,1-1,1.61,6.82,6.82,0,0,1-1.43,1.21,6.65,6.65,0,0,1-1.57.74l-0.62-1.18a7.66,7.66,0,0,0,1.11-.54,5.42,5.42,0,0,0,1-.77,4.34,4.34,0,0,0,.77-1,2.75,2.75,0,0,0,.36-1.15,3,3,0,0,1-1.17.19,1.54,1.54,0,0,1-.79-0.26,1.25,1.25,0,0,1-.45-0.58A2.21,2.21,0,0,1,627.95,456Z"/><path class="cls-4" d="M639.13,453.46l3.5-.49V442.92l-3,2.75L638.24,444l5.22-4.73,2-.29v13.57l3.43-.49v2.53c-3.91.56-5.87,0.84-9.78,1.39v-2.53Z"/><path class="cls-4" d="M652.87,451.5l3.5-.52V440.93l-3,2.77L652,442.06l5.22-4.77,2-.3v13.57l3.43-.52v2.53c-3.91.59-5.86,0.88-9.77,1.45V451.5Z"/><path class="cls-4" d="M666.92,454.29a9.23,9.23,0,0,0,1.69-.87,8.94,8.94,0,0,0,2-1.71,9.74,9.74,0,0,0,1.61-2.63,9.3,9.3,0,0,0,.66-3.67,8.67,8.67,0,0,0-.63-3.58,6.23,6.23,0,0,0-1.54-2.16,5.39,5.39,0,0,0-1.93-1.1,8.46,8.46,0,0,0-1.82-.38l0.55-2.55a10.08,10.08,0,0,1,3.11.6,7.47,7.47,0,0,1,2.67,1.68,8.13,8.13,0,0,1,1.86,2.87,11.17,11.17,0,0,1,.7,4.16,13,13,0,0,1-.7,4.39,11.93,11.93,0,0,1-1.86,3.42,11.41,11.41,0,0,1-2.67,2.47,12.34,12.34,0,0,1-3.11,1.49Z"/><path class="cls-4" d="M58.24,398.2v-2.53l2.7,0.43v-6.44l-2.72-.43v-2.53l2.72,0.43v-0.64a3.87,3.87,0,0,1,.38-1.8,3,3,0,0,1,1-1.13,3.42,3.42,0,0,1,1.43-.53,5.72,5.72,0,0,1,1.68,0,11.54,11.54,0,0,1,2.6.66,7.87,7.87,0,0,1,1.68.91l-0.87,2.14a12.31,12.31,0,0,0-1.13-.63,5.46,5.46,0,0,0-1.57-.45,2,2,0,0,0-1.73.3,2.21,2.21,0,0,0-.49,1.61l4.8,0.74v2.53l-4.8-.74c0,2.58,0,3.86,0,6.44l4.82,0.74v2.53C64.54,399.19,62.44,398.86,58.24,398.2Z"/><path class="cls-4" d="M72.4,389.67a11.2,11.2,0,0,1,2.12-.39,11.82,11.82,0,0,1,2.85.13,6.9,6.9,0,0,1,2,.59,4.14,4.14,0,0,1,1.35,1,3.74,3.74,0,0,1,.74,1.37,5.91,5.91,0,0,1,.23,1.69q0,1.17-.08,2c-0.05.54-.08,1-0.08,1.46a10.07,10.07,0,0,0,0,1.09c0,0.21.05,0.43,0.07,0.63l1.49,0.22V402l-3.84-.56L79,399.81l-0.11,0a3.19,3.19,0,0,1-1.3,1,4,4,0,0,1-2.27.18,4.47,4.47,0,0,1-2.71-1.33,3.66,3.66,0,0,1-1-2.59,3.35,3.35,0,0,1,.35-1.61,2.39,2.39,0,0,1,1-1,4.23,4.23,0,0,1,1.61-.42,9.24,9.24,0,0,1,2.1.09c0.27,0,.56.1,0.86,0.17l1.11,0.26a2.29,2.29,0,0,0,0-.45V393.7a1.7,1.7,0,0,0-.5-1.33,2.76,2.76,0,0,0-1.48-.6,6.62,6.62,0,0,0-2.09,0,11.76,11.76,0,0,0-1.57.36Zm3.89,9a2.52,2.52,0,0,0,1.63-.16,2.17,2.17,0,0,0,.79-0.75v-1.38L78,396.2a8.24,8.24,0,0,0-1-.2,4.65,4.65,0,0,0-.86,0,2.54,2.54,0,0,0-.77.14,1.22,1.22,0,0,0-.54.37,1,1,0,0,0-.2.64,1.51,1.51,0,0,0,.37,1.06A2,2,0,0,0,76.29,398.69Z"/><path class="cls-4" d="M96.57,402.78a5.66,5.66,0,0,1-2.2.76,9.31,9.31,0,0,1-2.63,0,8.16,8.16,0,0,1-2.65-.81,6.56,6.56,0,0,1-1.95-1.51,6.31,6.31,0,0,1-1.2-2.09,7.69,7.69,0,0,1-.41-2.54,6,6,0,0,1,.48-2.51,4.43,4.43,0,0,1,1.34-1.72,4.87,4.87,0,0,1,2-.9,7.52,7.52,0,0,1,2.54,0,10.14,10.14,0,0,1,2.4.64,12.92,12.92,0,0,1,1.72.81v4l-2.52-.35v-2.12a6.92,6.92,0,0,0-1.42-.36,4.13,4.13,0,0,0-1.27,0,2.58,2.58,0,0,0-1.92,1.42,3.25,3.25,0,0,0-.31,1.5,3.85,3.85,0,0,0,.25,1.39,3.85,3.85,0,0,0,1.84,2.07,4.48,4.48,0,0,0,1.5.48,5.09,5.09,0,0,0,2.14-.07,7.33,7.33,0,0,0,1.25-.47Z"/><path class="cls-4" d="M100.47,395.45l-2.27-.31v-2.53l2.27,0.31c0-1,0-1.57,0-2.62l3-.45v3.47l6,0.8c0,1,0,1.52,0,2.53l-6-.8v3.29a4.39,4.39,0,0,0,.66,2.65,2.66,2.66,0,0,0,1.86,1,3.83,3.83,0,0,0,1.12,0,3.77,3.77,0,0,0,.91-0.26,4.35,4.35,0,0,0,.73-0.41l0.61-.43,1.38,2.25a3.68,3.68,0,0,1-1,.71,7.13,7.13,0,0,1-1.26.5,7.24,7.24,0,0,1-1.41.26,6.58,6.58,0,0,1-1.44,0,5.68,5.68,0,0,1-3.86-2,7.45,7.45,0,0,1-1.29-4.74v-3.29Z"/><path class="cls-4" d="M112.36,400.25a6.65,6.65,0,0,1,.44-2.52A4.43,4.43,0,0,1,114,396,4.5,4.5,0,0,1,116,395a7,7,0,0,1,2.49-.09,7.8,7.8,0,0,1,2.58.76,6.34,6.34,0,0,1,1.92,1.47,6.08,6.08,0,0,1,1.18,2.07,7.8,7.8,0,0,1,.4,2.53,6.68,6.68,0,0,1-.44,2.52,4.45,4.45,0,0,1-1.24,1.76,4.5,4.5,0,0,1-1.91.95,7,7,0,0,1-2.49.09,7.74,7.74,0,0,1-2.58-.77,6.35,6.35,0,0,1-1.91-1.48,6.11,6.11,0,0,1-1.18-2.07A7.82,7.82,0,0,1,112.36,400.25Zm3.07,0.4a4.85,4.85,0,0,0,.21,1.43,4,4,0,0,0,.6,1.2,3.25,3.25,0,0,0,.94.87,3.15,3.15,0,0,0,1.26.43,2.61,2.61,0,0,0,2.17-.58,3.34,3.34,0,0,0,.84-2.59,4.42,4.42,0,0,0-.78-2.66,3.1,3.1,0,0,0-2.23-1.26,3.42,3.42,0,0,0-1.19,0,2,2,0,0,0-1,.51,2.61,2.61,0,0,0-.63,1A4.71,4.71,0,0,0,115.43,400.65Z"/><path class="cls-4" d="M126.21,405.22l2.85,0.35v-6.44l-2.85-.35v-2.53l5.16,0.63,0.34,1.56h0.09a5.1,5.1,0,0,1,1.47-1.09,3.38,3.38,0,0,1,1.93-.28,3,3,0,0,1,2.17,1.27,6,6,0,0,1,.79,3.47l-2.69-.32a2.49,2.49,0,0,0-.24-1.24,1,1,0,0,0-.77-0.47,2.08,2.08,0,0,0-1.48.28,3.89,3.89,0,0,0-1,.94v4.9l5,0.59v2.53c-4.32-.51-6.49-0.77-10.81-1.3v-2.53Z"/><path class="cls-4" d="M140.44,406.92l4,0.46v-6.44l-4-.46V398l7,0.8v9l4.25,0.47v2.53c-4.51-.49-6.77-0.75-11.27-1.27v-2.53Zm3.49-11.7a1.45,1.45,0,0,1,.53-1.16,1.86,1.86,0,0,1,1.47-.34,2.5,2.5,0,0,1,1.54.68,1.76,1.76,0,0,1,.57,1.28,1.32,1.32,0,0,1-.57,1.14,2.17,2.17,0,0,1-1.54.3,2.37,2.37,0,0,1-1.47-.64A1.73,1.73,0,0,1,143.93,395.22Z"/><path class="cls-4" d="M154.93,400.35a11.55,11.55,0,0,1,2.13-.48,11.87,11.87,0,0,1,2.86,0,6.74,6.74,0,0,1,2,.5,3.92,3.92,0,0,1,1.36,1,3.55,3.55,0,0,1,.75,1.34,5.8,5.8,0,0,1,.23,1.68q0,1.17-.08,2c-0.05.55-.08,1-0.08,1.46a10,10,0,0,0,0,1.09c0,0.21.05,0.43,0.07,0.63l1.49,0.15v2.53l-3.86-.4-0.3-1.6h-0.11a3.4,3.4,0,0,1-1.3,1.09,4.1,4.1,0,0,1-2.28.28,4.29,4.29,0,0,1-2.72-1.21,3.5,3.5,0,0,1-1-2.55,3.43,3.43,0,0,1,.35-1.63,2.55,2.55,0,0,1,1-1,4.41,4.41,0,0,1,1.62-.49,9.3,9.3,0,0,1,2.11,0q0.41,0,.87.14l1.12,0.21a2.3,2.3,0,0,0,0-.46v-0.44a1.63,1.63,0,0,0-.5-1.31,2.67,2.67,0,0,0-1.48-.54,6.7,6.7,0,0,0-2.1.08,12.24,12.24,0,0,0-1.57.43Zm3.91,8.86a2.58,2.58,0,0,0,1.64-.23,2.32,2.32,0,0,0,.8-0.78v-1.38l-0.68-.18a8.15,8.15,0,0,0-1-.16,4.64,4.64,0,0,0-.86,0,2.64,2.64,0,0,0-.77.17,1.29,1.29,0,0,0-.55.39,1,1,0,0,0-.2.65,1.45,1.45,0,0,0,.37,1A1.94,1.94,0,0,0,158.84,409.21Z"/><path class="cls-4" d="M168.65,396.4l4.9,0.49c0,4.25,0,6.38,0,10.63A5.2,5.2,0,0,0,174,410a1.72,1.72,0,0,0,1.4.83,3.77,3.77,0,0,0,1.17,0,4,4,0,0,0,.92-0.34l1.13,2.18q-0.39.22-.78,0.4a4.58,4.58,0,0,1-.83.29,5.3,5.3,0,0,1-1,.14,7.5,7.5,0,0,1-1.16,0,4.78,4.78,0,0,1-3.24-1.42,4.68,4.68,0,0,1-1.08-3.24c0-3.86,0-5.8,0-9.66l-1.91-.19C168.65,397.92,168.65,397.42,168.65,396.4Z"/><path class="cls-4" d="M182.24,416.52c4.08,0.38,6.13.57,10.21,0.93v2.46c-4.09-.36-6.13-0.55-10.21-0.93C182.24,418,182.24,417.5,182.24,416.52Z"/><path class="cls-4" d="M194.24,398.82l4.65,0.4c0,2.35,0,3.53,0,5.89H199a3.45,3.45,0,0,1,1.47-1,4.81,4.81,0,0,1,2.16-.26,5.64,5.64,0,0,1,1.61.36,3.41,3.41,0,0,1,1.27.86,4,4,0,0,1,.83,1.51,7.5,7.5,0,0,1,.3,2.27c0,2.86,0,4.29,0,7.15l-3-.25v-6.53a3,3,0,0,0-.6-2.07,2.27,2.27,0,0,0-1.57-.75,2.44,2.44,0,0,0-1.56.39,2.49,2.49,0,0,0-1,1.24v7.34l-3-.26c0-5.43,0-8.14,0-13.57l-1.66-.14C194.24,400.34,194.24,399.83,194.24,398.82Z"/><path class="cls-4" d="M220.34,415.82a3.73,3.73,0,0,1-.77.48,6.89,6.89,0,0,1-1.11.41,8.12,8.12,0,0,1-1.39.26,8.81,8.81,0,0,1-1.61,0,8.16,8.16,0,0,1-2.64-.62,5.77,5.77,0,0,1-3.2-3.37,7.37,7.37,0,0,1-.43-2.58,6.47,6.47,0,0,1,.48-2.62A4.76,4.76,0,0,1,211,406a5,5,0,0,1,2-1,7.43,7.43,0,0,1,2.44-.19,7.84,7.84,0,0,1,1.81.37,5.41,5.41,0,0,1,1.72.92,4.75,4.75,0,0,1,1.28,1.6,5.36,5.36,0,0,1,.49,2.43,10.69,10.69,0,0,1-.23,2.12l-8.29-.63a2.81,2.81,0,0,0,.31,1.27,2.75,2.75,0,0,0,.76.89,3.59,3.59,0,0,0,1.08.56,5.58,5.58,0,0,0,1.3.25,6.56,6.56,0,0,0,2.27-.15,4.38,4.38,0,0,0,1.44-.67Zm-5-8.59a3.7,3.7,0,0,0-1.13.08,2.89,2.89,0,0,0-1,.41,2.35,2.35,0,0,0-.7.73,2.27,2.27,0,0,0-.32,1l5.66,0.44A2.48,2.48,0,0,0,215.37,407.23Z"/><path class="cls-4" d="M223.86,401.2l4.9,0.35c0,4.25,0,6.38,0,10.63a5.11,5.11,0,0,0,.44,2.49,1.66,1.66,0,0,0,1.41.79,3.8,3.8,0,0,0,1.17-.07,4.16,4.16,0,0,0,.92-0.36l1.13,2.15q-0.39.23-.78,0.42a4.71,4.71,0,0,1-.83.31,5.39,5.39,0,0,1-1,.16,7.56,7.56,0,0,1-1.16,0,4.66,4.66,0,0,1-3.25-1.33,4.56,4.56,0,0,1-1.08-3.21c0-3.86,0-5.8,0-9.66l-1.91-.14C223.86,402.71,223.86,402.21,223.86,401.2Z"/><path class="cls-4" d="M235.68,406.62l3.92,0.26,0.35,1.4H240a4.14,4.14,0,0,1,3.87-1.46,5.7,5.7,0,0,1,1.95.45,4.14,4.14,0,0,1,1.52,1.14,5.3,5.3,0,0,1,1,1.85,8.8,8.8,0,0,1,.35,2.62,8.21,8.21,0,0,1-.39,2.63,5.22,5.22,0,0,1-1.13,1.94,4.45,4.45,0,0,1-1.8,1.15,6.11,6.11,0,0,1-2.42.29,9.69,9.69,0,0,1-1.4-.19,4.11,4.11,0,0,1-1.15-.41c0,1.89,0,2.83,0,4.71l-3-.19c0-5.43,0-8.14,0-13.57l-1.73-.11C235.68,408.14,235.68,407.63,235.68,406.62ZM243,409.3a2.92,2.92,0,0,0-1.6.34,2.08,2.08,0,0,0-1,1.25v4.78a2.65,2.65,0,0,0,.93.46,5.3,5.3,0,0,0,1.23.23,3.13,3.13,0,0,0,1.2-.14,2.25,2.25,0,0,0,1-.64,3.15,3.15,0,0,0,.64-1.18,5.83,5.83,0,0,0,.23-1.76,3.59,3.59,0,0,0-.74-2.39A2.56,2.56,0,0,0,243,409.3Z"/><path class="cls-4" d="M261.8,418.47a3.81,3.81,0,0,1-.77.5,7.06,7.06,0,0,1-1.11.44,8.21,8.21,0,0,1-1.39.29,8.82,8.82,0,0,1-1.61,0,8.07,8.07,0,0,1-2.64-.56,5.6,5.6,0,0,1-3.2-3.3,7.3,7.3,0,0,1-.43-2.57,6.53,6.53,0,0,1,.48-2.63,4.9,4.9,0,0,1,1.32-1.82,5.16,5.16,0,0,1,2-1,7.49,7.49,0,0,1,2.44-.24,7.78,7.78,0,0,1,1.81.33,5.29,5.29,0,0,1,1.72.89,4.6,4.6,0,0,1,1.28,1.58,5.28,5.28,0,0,1,.5,2.42,10.76,10.76,0,0,1-.23,2.13l-8.3-.46a2.77,2.77,0,0,0,.31,1.26,2.67,2.67,0,0,0,.76.87,3.49,3.49,0,0,0,1.08.53,5.53,5.53,0,0,0,1.3.22,6.61,6.61,0,0,0,2.27-.2,4.49,4.49,0,0,0,1.44-.7Zm-5-8.48a3.73,3.73,0,0,0-1.13.1,3,3,0,0,0-1,.43,2.41,2.41,0,0,0-.7.75,2.29,2.29,0,0,0-.32,1l5.67,0.32A2.42,2.42,0,0,0,256.83,410Z"/><path class="cls-4" d="M264.22,417.28l2.86,0.15c0-2.58,0-3.86,0-6.44l-2.86-.15c0-1,0-1.52,0-2.53l5.19,0.26,0.35,1.53h0.09a5.68,5.68,0,0,1,1.48-1.19,3.54,3.54,0,0,1,1.94-.41,2.76,2.76,0,0,1,2.18,1.11,5.74,5.74,0,0,1,.79,3.42l-2.7-.13a2.38,2.38,0,0,0-.24-1.22,0.9,0.9,0,0,0-.77-0.42,2.2,2.2,0,0,0-1.49.39,4.33,4.33,0,0,0-1,1v4.9l5,0.24c0,1,0,1.52,0,2.53-4.34-.2-6.51-0.31-10.86-0.54C264.22,418.8,264.22,418.3,264.22,417.28Z"/><path class="cls-4" d="M287.64,425.77a11.07,11.07,0,0,1-3.14-1.14,9.72,9.72,0,0,1-2.7-2.16,10.3,10.3,0,0,1-1.88-3.21,12.2,12.2,0,0,1-.7-4.31,11.71,11.71,0,0,1,.7-4.24,9.44,9.44,0,0,1,1.88-3.08,8.8,8.8,0,0,1,2.7-2,11.07,11.07,0,0,1,3.14-1l0.55,2.48a9.3,9.3,0,0,0-1.83.58,6.32,6.32,0,0,0-1.95,1.32,7.28,7.28,0,0,0-1.56,2.34,9.12,9.12,0,0,0-.63,3.65,8.69,8.69,0,0,0,.67,3.59,8.35,8.35,0,0,0,1.63,2.45,7.6,7.6,0,0,0,2,1.48,8.21,8.21,0,0,0,1.71.68Z"/><path class="cls-4" d="M293.43,418.59l3.53,0.13c0-4,0-6,0-10.05l-3,2.21L292.53,409l5.26-3.81,2,0.07c0,5.43,0,8.14,0,13.57l3.46,0.11c0,1,0,1.52,0,2.53l-9.85-.34v-2.53Z"/><path class="cls-4" d="M309.85,420.19a1.53,1.53,0,0,1,.52-1.23,1.85,1.85,0,0,1,1.3-.42,2.35,2.35,0,0,1,1.91.88,3.3,3.3,0,0,1,.65,2.06,4.27,4.27,0,0,1-.4,1.87,4.79,4.79,0,0,1-1,1.44,5.45,5.45,0,0,1-1.44,1,5.72,5.72,0,0,1-1.58.48L309.14,425a6.51,6.51,0,0,0,1.12-.36,4.34,4.34,0,0,0,1-.6,3.41,3.41,0,0,0,.77-0.86,2.38,2.38,0,0,0,.36-1.09,2.94,2.94,0,0,1-1.18,0,1.84,1.84,0,0,1-.8-0.39A1.56,1.56,0,0,1,310,421,2.38,2.38,0,0,1,309.85,420.19Z"/><path class="cls-4" d="M321.11,419.42l3.53,0.08V409.45l-3,2.26-1.38-1.87,5.26-3.88,2,0c0,5.43,0,8.14,0,13.57l3.46,0.07v2.53l-9.85-.2v-2.53Z"/><path class="cls-4" d="M334.95,419.7l3.53,0.05V409.7l-3,2.28L334,410.11l5.26-3.92,2,0v13.57l3.46,0v2.53l-9.85-.13V419.7Z"/><path class="cls-4" d="M349.11,424.77a7.86,7.86,0,0,0,1.71-.59,7.13,7.13,0,0,0,2-1.39,7.81,7.81,0,0,0,1.63-2.37,8.45,8.45,0,0,0,.67-3.56,9.36,9.36,0,0,0-.63-3.68,7.78,7.78,0,0,0-1.56-2.41,6.78,6.78,0,0,0-1.95-1.42,9.75,9.75,0,0,0-1.83-.67l0.55-2.46a11.57,11.57,0,0,1,3.14,1.11,9.45,9.45,0,0,1,2.7,2.11,10.07,10.07,0,0,1,1.88,3.17,13.33,13.33,0,0,1,0,8.54,9.67,9.67,0,0,1-1.88,3.12,9.08,9.08,0,0,1-2.7,2,10.61,10.61,0,0,1-3.14,1Z"/><path class="cls-4" d="M513.25,414.52l2.85-.21v-6.44l-2.85.21v-2.53l5.18-.39,0.34,1.49h0.09a6.83,6.83,0,0,1,1.47-1.38,3.88,3.88,0,0,1,1.93-.66,2.42,2.42,0,0,1,2.18.84,5.26,5.26,0,0,1,.79,3.32l-2.69.21a2.2,2.2,0,0,0-.24-1.19,0.78,0.78,0,0,0-.77-0.32,2.45,2.45,0,0,0-1.48.58,5.23,5.23,0,0,0-1,1.13v4.9l5-.39v2.53c-4.34.35-6.5,0.51-10.84,0.84v-2.53Z"/><path class="cls-4" d="M538.45,413.79a4.62,4.62,0,0,1-.77.61,8.25,8.25,0,0,1-1.1.59,9.33,9.33,0,0,1-3,.76,7.59,7.59,0,0,1-2.64-.19,4.6,4.6,0,0,1-3.2-2.85,6.81,6.81,0,0,1-.43-2.51,7,7,0,0,1,.48-2.7,6,6,0,0,1,1.32-2,6.19,6.19,0,0,1,2-1.3,8,8,0,0,1,2.44-.59,7.38,7.38,0,0,1,1.81.08,4.52,4.52,0,0,1,1.71.65,3.75,3.75,0,0,1,1.28,1.4,4.86,4.86,0,0,1,.5,2.35,11.23,11.23,0,0,1-.23,2.16l-8.28.71a2.51,2.51,0,0,0,.31,1.22,2.18,2.18,0,0,0,.76.76,3,3,0,0,0,1.08.38,5.29,5.29,0,0,0,1.3,0,7,7,0,0,0,2.27-.52,5.36,5.36,0,0,0,1.44-.91Zm-5-7.78a4,4,0,0,0-1.13.26,3.5,3.5,0,0,0-1,.56,3,3,0,0,0-.7.84,2.58,2.58,0,0,0-.32,1.08l5.66-.48A2.07,2.07,0,0,0,533.48,406Z"/><path class="cls-4" d="M552.53,412.63a7.39,7.39,0,0,1-2.21,1.28,10.15,10.15,0,0,1-2.64.6,7.24,7.24,0,0,1-2.66-.19,4.8,4.8,0,0,1-2-1.05,4.62,4.62,0,0,1-1.21-1.81,7.39,7.39,0,0,1,.07-5.07,6.15,6.15,0,0,1,1.35-2,6.56,6.56,0,0,1,2-1.37,8.3,8.3,0,0,1,2.55-.64,9.24,9.24,0,0,1,2.41.07,10.47,10.47,0,0,1,1.73.41c0,1.62,0,2.43,0,4l-2.53.24c0-.85,0-1.27,0-2.12a6.36,6.36,0,0,0-1.43,0,4.55,4.55,0,0,0-1.28.31,3.51,3.51,0,0,0-1.13.72,3.61,3.61,0,0,0-1.12,2.71,3.39,3.39,0,0,0,.25,1.33,2.78,2.78,0,0,0,1.85,1.64,4,4,0,0,0,1.51.13,5.69,5.69,0,0,0,2.15-.57,9.78,9.78,0,0,0,1.25-.76Z"/><path class="cls-4" d="M561.36,401.38l4.28-.43c0,3.2,0,4.8,0,8v1l1.75-.18v2.53l-3.63.37L563.22,411h-0.09a4.7,4.7,0,0,1-1.59,1.61,5.23,5.23,0,0,1-2.35.81,5.11,5.11,0,0,1-1.6-.07,2.55,2.55,0,0,1-1.23-.64,3.12,3.12,0,0,1-.78-1.35,7.5,7.5,0,0,1-.28-2.23V404.5l-1.31.13v-2.53l4.3-.41c0,2.61,0,3.92,0,6.53a3.31,3.31,0,0,0,.45,2,1.48,1.48,0,0,0,1.41.48,2.74,2.74,0,0,0,1.53-.66,3.13,3.13,0,0,0,1-1.34v-4.9l-1.29.13v-2.53Z"/><path class="cls-4" d="M568.46,409.63l2.85-.29V402.9l-2.85.29v-2.53l5.17-.54L574,401.6h0.09a7.13,7.13,0,0,1,1.47-1.42,4,4,0,0,1,1.93-.71,2.35,2.35,0,0,1,2.17.78,5.17,5.17,0,0,1,.79,3.29l-2.69.29a2.17,2.17,0,0,0-.24-1.18,0.76,0.76,0,0,0-.77-0.3,2.51,2.51,0,0,0-1.48.62,5.44,5.44,0,0,0-1,1.16V409l5-.53V411c-4.33.47-6.49,0.7-10.82,1.14v-2.53Z"/><path class="cls-4" d="M591.8,414.5a9.74,9.74,0,0,1-3.12-.66A7.79,7.79,0,0,1,586,412.1a8.4,8.4,0,0,1-1.87-2.92,11.36,11.36,0,0,1-.7-4.2,12.66,12.66,0,0,1,.7-4.34,11.54,11.54,0,0,1,1.87-3.37,11,11,0,0,1,2.69-2.4,12.82,12.82,0,0,1,3.12-1.44l0.55,2.4a10.8,10.8,0,0,0-1.82.87,7.85,7.85,0,0,0-1.94,1.62,9,9,0,0,0-1.55,2.58,9.9,9.9,0,0,0-.63,3.75,8,8,0,0,0,.67,3.49,6.74,6.74,0,0,0,1.62,2.2,6.13,6.13,0,0,0,2,1.18,7.14,7.14,0,0,0,1.7.41Z"/><path class="cls-4" d="M597.56,406.42l3.51-.42V396l-3,2.68L596.66,397l5.23-4.62,2-.24c0,5.43,0,8.14,0,13.57l3.44-.42v2.53l-9.8,1.18v-2.53Z"/><path class="cls-4" d="M611.33,404.75l3.51-.44V394.26l-3,2.7-1.38-1.67,5.23-4.66,2-.26c0,5.43,0,8.14,0,13.57l3.44-.44V406c-3.92.51-5.87,0.76-9.79,1.25C611.32,406.27,611.33,405.76,611.33,404.75Z"/><path class="cls-4" d="M627.65,403.7a1.81,1.81,0,0,1,.52-1.31,2.15,2.15,0,0,1,1.3-.63,2,2,0,0,1,1.9.57,2.89,2.89,0,0,1,.64,2,4.73,4.73,0,0,1-.4,1.94,6,6,0,0,1-1,1.61,6.84,6.84,0,0,1-1.43,1.21,6.65,6.65,0,0,1-1.57.74l-0.62-1.18a7.65,7.65,0,0,0,1.11-.54,5.4,5.4,0,0,0,1-.77,4.33,4.33,0,0,0,.77-1,2.74,2.74,0,0,0,.36-1.15,3,3,0,0,1-1.17.19,1.54,1.54,0,0,1-.79-0.26,1.25,1.25,0,0,1-.45-0.58A2.21,2.21,0,0,1,627.65,403.7Z"/><path class="cls-4" d="M638.83,401.12l3.5-.49V390.58l-3,2.75-1.37-1.65,5.22-4.73,2-.29v13.57l3.43-.49v2.53l-9.78,1.39v-2.53Z"/><path class="cls-4" d="M651,393.84a14.54,14.54,0,0,1,.44-3.73,8.93,8.93,0,0,1,1.23-2.79,6.32,6.32,0,0,1,1.9-1.83,6.43,6.43,0,0,1,2.46-.88,4.61,4.61,0,0,1,4.46,1.37q1.56,1.8,1.56,6.08a14.65,14.65,0,0,1-.44,3.76,9.14,9.14,0,0,1-1.23,2.81,6.26,6.26,0,0,1-1.91,1.85,6.5,6.5,0,0,1-2.47.89,4.45,4.45,0,0,1-4.46-1.49Q651,397.94,651,393.84Zm3-.44c0,0.23,0,.45,0,0.65s0,0.42,0,.63l5.54-6a2.16,2.16,0,0,0-2.56-1.59,3,3,0,0,0-2.24,1.75A10.22,10.22,0,0,0,654,393.41Zm6.09-.91q0-.37,0-0.7c0-.22,0-0.44,0-0.65l-5.56,6a2.2,2.2,0,0,0,2.57,1.71,3,3,0,0,0,2.25-1.74A10.25,10.25,0,0,0,660.07,392.5Z"/><path class="cls-4" d="M666.62,402a9.25,9.25,0,0,0,1.69-.87,8.94,8.94,0,0,0,2-1.71,9.74,9.74,0,0,0,1.61-2.63,9.3,9.3,0,0,0,.66-3.67,8.67,8.67,0,0,0-.63-3.58,6.23,6.23,0,0,0-1.54-2.16,5.39,5.39,0,0,0-1.93-1.1,8.46,8.46,0,0,0-1.82-.38l0.55-2.55a10.07,10.07,0,0,1,3.11.6,7.47,7.47,0,0,1,2.67,1.68,8.13,8.13,0,0,1,1.86,2.87,11.17,11.17,0,0,1,.7,4.16,13,13,0,0,1-.7,4.39,11.93,11.93,0,0,1-1.86,3.42,11.42,11.42,0,0,1-2.67,2.47,12.35,12.35,0,0,1-3.11,1.49Z"/></svg>