<svg id="Layer_1" data-name="Layer 1" xmlns="http://www.w3.org/2000/svg" viewBox="0 0 720 576"><defs><style>.cls-1,.cls-2,.cls-4,.cls-6{fill:#231f20;}.cls-1,.cls-3{stroke:#231f20;}.cls-1,.cls-6{stroke-miterlimit:10;}.cls-1,.cls-2,.cls-3{stroke-width:2px;}.cls-2{stroke:#000;}.cls-2,.cls-3{stroke-linecap:round;stroke-linejoin:round;}.cls-3,.cls-5{fill:#fff;}.cls-6{stroke:#fff;}</style></defs><title>Hanoi_Tower_Set_5</title><path class="cls-1" d="M686.81,506.49c0-.14,0-0.29,0-0.43s0-.29,0-0.43V453.84H40.93s-0.25,51.74-.25,52.22c0,2.67,2.32,5.24,6.64,7.71,15.13,8.61,55.2,16.11,111,21.48s127.39,8.59,205.41,8.59c89.17,0,169.9-4.21,228.35-11,29.22-3.41,52.88-7.46,69.24-12,8.18-2.25,14.54-4.62,18.86-7.08,3.69-2.1,5.91-4.29,6.48-6.55h0.11v-0.73Z"/><ellipse class="cls-2" cx="363.77" cy="454.92" rx="322.89" ry="37.63"/><path class="cls-3" d="M686.81,455c0-.14,0-0.29,0-0.43s0-.29,0-0.43V402.36H40.93s-0.25,51.74-.25,52.22c0,2.67,2.32,5.24,6.64,7.71,15.13,8.61,55.2,16.11,111,21.48s127.39,8.59,205.41,8.59c89.17,0,169.9-4.21,228.35-11,29.22-3.41,52.88-7.46,69.24-12,8.18-2.25,14.54-4.62,18.86-7.08,3.69-2.1,5.91-4.29,6.48-6.55h0.11V455Z"/><ellipse class="cls-3" cx="363.77" cy="403.44" rx="322.89" ry="37.63"/><path class="cls-3" d="M686.81,403.53c0-.14,0-0.29,0-0.43s0-.29,0-0.43V350.88H40.93s-0.25,51.74-.25,52.22c0,2.67,2.32,5.24,6.64,7.71,15.13,8.61,55.2,16.11,111,21.48s127.39,8.59,205.41,8.59c89.17,0,169.9-4.21,228.35-11,29.22-3.41,52.88-7.46,69.24-12,8.18-2.25,14.54-4.62,18.86-7.08,3.69-2.1,5.91-4.29,6.48-6.55h0.11v-0.73Z"/><ellipse class="cls-3" cx="363.77" cy="351.97" rx="322.89" ry="37.63"/><path class="cls-3" d="M686.81,352.06c0-.14,0-0.29,0-0.43s0-.29,0-0.43V299.4H40.93s-0.25,51.74-.25,52.22c0,2.67,2.32,5.24,6.64,7.71,15.13,8.61,55.2,16.11,111,21.48s127.39,8.59,205.41,8.59c89.17,0,169.9-4.21,228.35-11,29.22-3.41,52.88-7.46,69.24-12,8.18-2.25,14.54-4.62,18.86-7.08,3.69-2.1,5.91-4.29,6.48-6.55h0.11v-0.73Z"/><ellipse class="cls-3" cx="363.77" cy="300.49" rx="322.89" ry="37.63"/><path class="cls-3" d="M686.81,302.06c0-.14,0-0.29,0-0.43s0-.29,0-0.43V249.4H40.93s-0.25,51.74-.25,52.22c0,2.67,2.32,5.24,6.64,7.71,15.13,8.61,55.2,16.11,111,21.48s127.39,8.59,205.41,8.59c89.17,0,169.9-4.21,228.35-11,29.22-3.41,52.88-7.46,69.24-12,8.18-2.25,14.54-4.62,18.86-7.08,3.69-2.1,5.91-4.29,6.48-6.55h0.11v-0.73Z"/><ellipse class="cls-3" cx="363.77" cy="250.49" rx="322.89" ry="37.63"/><path class="cls-4" d="M364.8,259.78c-16,0-29-3.75-30.2-8.61h-0.08l0-.5V8.27h60.63V251.17H395C393.77,256,380.77,259.78,364.8,259.78Z"/><path class="cls-5" d="M394.62,8.77v241.9h0c-0.49,4.78-13.63,8.61-29.79,8.61s-29.3-3.83-29.79-8.61h0v-0.21s0,0,0-.06,0,0,0-.06V8.77h59.63m1-1H334V250.29s0,0.07,0,.11v1.27h0.23c2,5.6,16.84,8.61,30.58,8.61s28.6-3,30.58-8.61h0.21l0-1V7.77h0Z"/><ellipse class="cls-6" cx="364.8" cy="8.89" rx="29.81" ry="8.89"/><path d="M52.13,342.55l2.95,0.56c0-2.69,0-4,0-6.72l-2.95-.56c0-1.06,0-1.58,0-2.64l5.35,1,0.36,1.65,0.09,0a4.84,4.84,0,0,1,1.52-1,3.42,3.42,0,0,1,2-.16,3.36,3.36,0,0,1,2.25,1.47,6.61,6.61,0,0,1,.82,3.68l-2.79-.51A2.72,2.72,0,0,0,61.5,338a1.09,1.09,0,0,0-.8-0.54,2.09,2.09,0,0,0-1.54.19,3.64,3.64,0,0,0-1,.92c0,2,0,3.07,0,5.11l5.17,1c0,1.06,0,1.58,0,2.64-4.49-.82-6.73-1.24-11.21-2.1C52.13,344.13,52.13,343.6,52.13,342.55Z"/><path d="M78.21,348.67a3.31,3.31,0,0,1-.8.43,6.46,6.46,0,0,1-1.14.32,8.05,8.05,0,0,1-1.44.13,9.2,9.2,0,0,1-1.67-.15,9.05,9.05,0,0,1-2.73-.92,6.91,6.91,0,0,1-3.31-3.85,8.14,8.14,0,0,1-.44-2.73,6.45,6.45,0,0,1,.5-2.68,4.29,4.29,0,0,1,1.37-1.73,4.64,4.64,0,0,1,2-.82,7.58,7.58,0,0,1,2.53.05,8.65,8.65,0,0,1,1.87.57,6.34,6.34,0,0,1,1.78,1.14,5.69,5.69,0,0,1,1.32,1.8,6,6,0,0,1,.51,2.59,10.94,10.94,0,0,1-.24,2.19l-8.58-1.52a3.15,3.15,0,0,0,.32,1.35,3.33,3.33,0,0,0,.79,1,4.21,4.21,0,0,0,1.12.69,6.16,6.16,0,0,0,1.35.4,6.67,6.67,0,0,0,2.35.08,4.07,4.07,0,0,0,1.49-.55Zm-5.15-9.47a3.81,3.81,0,0,0-1.17,0,2.71,2.71,0,0,0-1,.33,2.11,2.11,0,0,0-.73.69,2.19,2.19,0,0,0-.33,1l5.86,1a3.1,3.1,0,0,0-.66-2A3.15,3.15,0,0,0,73.06,339.2Z"/><path d="M92.8,351.27a5.73,5.73,0,0,1-2.29.74,9.69,9.69,0,0,1-2.74-.09A8.69,8.69,0,0,1,85,351a7.09,7.09,0,0,1-2-1.63,6.8,6.8,0,0,1-1.25-2.22,8.17,8.17,0,0,1-.43-2.67,6.2,6.2,0,0,1,.5-2.6,4.45,4.45,0,0,1,1.4-1.75,4.91,4.91,0,0,1,2.11-.88,7.82,7.82,0,0,1,2.65,0,10.76,10.76,0,0,1,2.5.73,13.79,13.79,0,0,1,1.79.9c0,1.69,0,2.53,0,4.22l-2.62-.44v-2.21a7.4,7.4,0,0,0-1.48-.42,4.31,4.31,0,0,0-1.32,0,2.59,2.59,0,0,0-2,1.42A3.34,3.34,0,0,0,84.5,345a4.07,4.07,0,0,0,.26,1.46,4.18,4.18,0,0,0,1.92,2.21,4.77,4.77,0,0,0,1.56.54,5.3,5.3,0,0,0,2.23,0,7.41,7.41,0,0,0,1.3-.46Z"/><path d="M102,341.91l4.44,0.7c0,3.34,0,5,0,8.35v1l1.82,0.28c0,1.06,0,1.58,0,2.64l-3.77-.59-0.55-1.86-0.1,0a3.36,3.36,0,0,1-1.65,1.25,4.62,4.62,0,0,1-2.43.21,6,6,0,0,1-1.66-.51,3.72,3.72,0,0,1-1.28-1,4.48,4.48,0,0,1-.81-1.62,8.7,8.7,0,0,1-.29-2.4v-4.82l-1.36-.22c0-1.06,0-1.58,0-2.64l4.46,0.73v6.82a4.1,4.1,0,0,0,.47,2.19,2,2,0,0,0,1.47.88,2.31,2.31,0,0,0,1.59-.27,2.27,2.27,0,0,0,1-1.14v-5.11l-1.34-.21v-2.64Z"/><path d="M109.35,352.43l3,0.46c0-2.69,0-4,0-6.72l-3-.46v-2.64l5.38,0.82,0.36,1.64h0.1a5.11,5.11,0,0,1,1.53-1.09,3.48,3.48,0,0,1,2-.23,3.23,3.23,0,0,1,2.26,1.39,6.43,6.43,0,0,1,.83,3.65l-2.8-.41a2.65,2.65,0,0,0-.25-1.3A1,1,0,0,0,118,347a2.14,2.14,0,0,0-1.54.25,3.85,3.85,0,0,0-1,1v5.11l5.19,0.78v2.64c-4.5-.67-6.76-1-11.26-1.7v-2.64Z"/><path d="M133.65,363.73a12.71,12.71,0,0,1-3.26-1.51,11.7,11.7,0,0,1-2.8-2.53,12.23,12.23,0,0,1-1.95-3.55,13.41,13.41,0,0,1-.73-4.57,11.7,11.7,0,0,1,.73-4.35,8.65,8.65,0,0,1,1.95-3,8,8,0,0,1,2.8-1.78,10.66,10.66,0,0,1,3.26-.67l0.57,2.65a8.9,8.9,0,0,0-1.9.42,5.74,5.74,0,0,0-2,1.18,6.62,6.62,0,0,0-1.62,2.28A9.08,9.08,0,0,0,128,352a9.61,9.61,0,0,0,.69,3.82,10,10,0,0,0,1.69,2.72,9.14,9.14,0,0,0,2,1.75,9.42,9.42,0,0,0,1.77.88Z"/><path d="M142.79,357.47a5.11,5.11,0,0,0,1.46,0,3.17,3.17,0,0,0,1.16-.4,2.11,2.11,0,0,0,.77-0.79,2.35,2.35,0,0,0,.28-1.16,2.8,2.8,0,0,0-1-2.21,6,6,0,0,0-3.13-1.17l-0.61-.07-0.66-.05-0.74-.08c0-3.51,0-5.27,0-8.78l8.67,1.15v2.93l-6-.79v3.24l0.38,0,0.32,0,0.27,0a7.56,7.56,0,0,1,2.23.64,6,6,0,0,1,1.8,1.28,5.67,5.67,0,0,1,1.19,1.85,6,6,0,0,1,.42,2.25,5.13,5.13,0,0,1-.53,2.42,4.26,4.26,0,0,1-1.44,1.6,5.55,5.55,0,0,1-2.11.81,8.29,8.29,0,0,1-2.56,0,6.75,6.75,0,0,1-1.13-.26q-0.6-.19-1.17-0.42t-1.07-.49q-0.49-.26-0.83-0.47l1-2.36a8.33,8.33,0,0,0,1.26.7A6,6,0,0,0,142.79,357.47Z"/><path d="M156.71,360.17a1.45,1.45,0,0,1,.54-1.23,1.78,1.78,0,0,1,1.35-.31,2.72,2.72,0,0,1,2,1.11,3.74,3.74,0,0,1,.67,2.22,4.22,4.22,0,0,1-.42,1.92,4.37,4.37,0,0,1-1.09,1.4,5,5,0,0,1-1.5.87,5.55,5.55,0,0,1-1.64.35l-0.65-1.4a6.32,6.32,0,0,0,1.16-.26,4,4,0,0,0,1.07-.53,3.07,3.07,0,0,0,.8-0.82,2.28,2.28,0,0,0,.37-1.11,3.09,3.09,0,0,1-1.22-.12,2.16,2.16,0,0,1-.83-0.49,1.87,1.87,0,0,1-.47-0.73A2.62,2.62,0,0,1,156.71,360.17Z"/><path d="M179.71,359.75l-2.88-.32v4.68l-2.9-.33v-4.68l-7.27-.85V356.1l7.6-9.21,2.57,0.29c0,3.9,0,5.85,0,9.74l2.88,0.32v2.5Zm-5.78-8.48-4.17,4.84,4.17,0.48v-5.33Z"/><path d="M183.14,367.28a7.48,7.48,0,0,0,1.78-.44,6.47,6.47,0,0,0,2.05-1.24,7.09,7.09,0,0,0,1.69-2.3,8.36,8.36,0,0,0,.7-3.65,10.28,10.28,0,0,0-.66-3.91,9.29,9.29,0,0,0-1.62-2.68,8.14,8.14,0,0,0-2-1.68,11.26,11.26,0,0,0-1.91-.89l0.58-2.51a13.32,13.32,0,0,1,3.26,1.48,11.37,11.37,0,0,1,2.81,2.48,12,12,0,0,1,2,3.5,13.15,13.15,0,0,1,.73,4.53,11.86,11.86,0,0,1-.73,4.39,8.84,8.84,0,0,1-2,3.06,8.22,8.22,0,0,1-2.81,1.84,10.22,10.22,0,0,1-3.26.7Z"/><path d="M362.49,374.64V372h2.84v-6.72h-2.87c0-1.06,0-1.58,0-2.64h2.87V362a4.4,4.4,0,0,1,.4-1.94,3.92,3.92,0,0,1,1-1.35,4.31,4.31,0,0,1,1.51-.78,6.28,6.28,0,0,1,1.77-.26,11.33,11.33,0,0,1,2.74.26,7,7,0,0,1,1.77.67L373.65,361a11,11,0,0,0-1.19-.47,5.25,5.25,0,0,0-1.65-.21,2.35,2.35,0,0,0-1.82.59,2.61,2.61,0,0,0-.52,1.77l5.06,0c0,1.06,0,1.58,0,2.64l-5.06,0V372l5.09,0v2.64C369.13,374.64,366.92,374.65,362.49,374.64Z"/><path d="M377.41,363.4a13.38,13.38,0,0,1,2.23-.76,12.8,12.8,0,0,1,3-.34,6.67,6.67,0,0,1,2.13.27,3.52,3.52,0,0,1,1.42.83,3.19,3.19,0,0,1,.78,1.31,5.75,5.75,0,0,1,.24,1.72q0,1.22-.08,2.09t-0.08,1.54a10.15,10.15,0,0,0,0,1.13c0,0.22.06,0.44,0.07,0.65l1.57,0v2.64l-4,.06-0.32-1.63h-0.12a4.22,4.22,0,0,1-1.37,1.3,4.61,4.61,0,0,1-2.4.57,4,4,0,0,1-2.85-.93,3.25,3.25,0,0,1-1.05-2.54,3.83,3.83,0,0,1,.37-1.74,3.15,3.15,0,0,1,1.08-1.21,5.19,5.19,0,0,1,1.7-.71,10.07,10.07,0,0,1,2.22-.25q0.43,0,.91,0l1.17,0.08a2.48,2.48,0,0,0,0-.48v-0.46a1.52,1.52,0,0,0-.53-1.3,2.55,2.55,0,0,0-1.56-.38,7.34,7.34,0,0,0-2.2.33,14.51,14.51,0,0,0-1.65.64Zm4.1,8.77a2.91,2.91,0,0,0,1.72-.44,2.87,2.87,0,0,0,.83-0.91v-1.44l-0.72-.1a8.27,8.27,0,0,0-1,0,5,5,0,0,0-.91.09,3,3,0,0,0-.81.27,1.62,1.62,0,0,0-.57.47,1.14,1.14,0,0,0-.21.7,1.36,1.36,0,0,0,.39,1A1.84,1.84,0,0,0,381.52,372.17Z"/><path d="M402.87,373a7.07,7.07,0,0,1-2.31,1.17,10.24,10.24,0,0,1-2.77.43,7.81,7.81,0,0,1-2.78-.4,5.53,5.53,0,0,1-2-1.25,5.32,5.32,0,0,1-1.27-2,7.37,7.37,0,0,1-.43-2.58,6.81,6.81,0,0,1,.51-2.7,5.79,5.79,0,0,1,1.41-2,6.23,6.23,0,0,1,2.13-1.28A8.36,8.36,0,0,1,398,362a9.87,9.87,0,0,1,2.53.26,11.51,11.51,0,0,1,1.81.56c0,1.69,0,2.53,0,4.22l-2.65.06v-2.21a6.82,6.82,0,0,0-1.49-.14,4.59,4.59,0,0,0-1.34.23,3.35,3.35,0,0,0-1.18.67,3.47,3.47,0,0,0-.84,1.13,4,4,0,0,0-.06,3,3.28,3.28,0,0,0,.75,1.11,3.32,3.32,0,0,0,1.19.73,4.28,4.28,0,0,0,1.58.24,5.72,5.72,0,0,0,2.25-.43,9.22,9.22,0,0,0,1.31-.7Z"/><path d="M407,364.72l-2.39.06v-2.64l2.39-.06v-2.74l3.13-1c0,1.45,0,2.17,0,3.62l6.31-.19c0,1.06,0,1.58,0,2.64l-6.31.19v3.43a4,4,0,0,0,.7,2.66,2.35,2.35,0,0,0,2,.77,4.2,4.2,0,0,0,1.18-.19,4.6,4.6,0,0,0,1-.42,5.67,5.67,0,0,0,.77-0.55l0.64-.55,1.45,2.11a4.81,4.81,0,0,1-1,.91,9,9,0,0,1-1.33.74,8.56,8.56,0,0,1-1.48.51,7.18,7.18,0,0,1-1.52.21,5.07,5.07,0,0,1-4.06-1.39q-1.36-1.46-1.36-4.73v-3.43Z"/><path d="M419.47,367.71a7.5,7.5,0,0,1,.46-2.7,5.78,5.78,0,0,1,1.3-2,5.84,5.84,0,0,1,2-1.31,7.89,7.89,0,0,1,2.61-.52,7.46,7.46,0,0,1,2.71.35,5.31,5.31,0,0,1,2,1.2,5.11,5.11,0,0,1,1.24,2,8.16,8.16,0,0,1,0,5.28,5.73,5.73,0,0,1-3.31,3.36,7.82,7.82,0,0,1-2.61.52,7.4,7.4,0,0,1-2.71-.36,5.32,5.32,0,0,1-2-1.21,5.15,5.15,0,0,1-1.24-2A7.5,7.5,0,0,1,419.47,367.71Zm3.23-.11a4.67,4.67,0,0,0,.22,1.46,3.43,3.43,0,0,0,.63,1.15,2.68,2.68,0,0,0,1,.74,3,3,0,0,0,1.33.23,3.18,3.18,0,0,0,2.28-1,4.86,4.86,0,0,0,.06-5.49,2.72,2.72,0,0,0-2.34-.93,3.83,3.83,0,0,0-1.25.25,2.59,2.59,0,0,0-1,.7,3.38,3.38,0,0,0-.66,1.18A5.23,5.23,0,0,0,422.7,367.6Z"/><path d="M434,370.52l3-.13c0-2.69,0-4,0-6.72l-3,.13v-2.64l5.42-.24,0.36,1.57h0.1a6.83,6.83,0,0,1,1.54-1.39,4,4,0,0,1,2-.62,2.61,2.61,0,0,1,2.28.94,5.6,5.6,0,0,1,.83,3.49l-2.82.14a2.35,2.35,0,0,0-.25-1.25,0.84,0.84,0,0,0-.81-0.36,2.49,2.49,0,0,0-1.55.55,5.17,5.17,0,0,0-1,1.15v5.11l5.23-.25c0,1.06,0,1.58,0,2.64-4.54.22-6.81,0.33-11.35,0.52v-2.64Z"/><path d="M449,369.82l4.24-.22v-6.72l-4.24.22c0-1.06,0-1.58,0-2.64l7.37-.39c0,3.74,0,5.62,0,9.36l4.45-.25v2.64c-4.73.28-7.09,0.41-11.82,0.65C449,371.4,449,370.88,449,369.82ZM452.62,357a1.79,1.79,0,0,1,.55-1.3,2.63,2.63,0,0,1,3.15-.17,1.54,1.54,0,0,1,.6,1.24,1.65,1.65,0,0,1-.6,1.29,2.59,2.59,0,0,1-1.61.58,2.14,2.14,0,0,1-1.54-.41A1.52,1.52,0,0,1,452.62,357Z"/><path d="M464.15,360.43a14,14,0,0,1,2.23-.88,13,13,0,0,1,3-.5,6.54,6.54,0,0,1,2.13.16,3.29,3.29,0,0,1,1.42.76,3,3,0,0,1,.78,1.27,5.64,5.64,0,0,1,.24,1.71q0,1.22-.08,2.09t-0.08,1.54a10.12,10.12,0,0,0,0,1.12c0,0.22.06,0.44,0.07,0.64l1.56-.1v2.64l-4,.27-0.32-1.61H471a4.55,4.55,0,0,1-1.36,1.37,4.78,4.78,0,0,1-2.39.69,3.86,3.86,0,0,1-2.85-.78,3.08,3.08,0,0,1-1.05-2.48,4,4,0,0,1,.37-1.76,3.39,3.39,0,0,1,1.08-1.27,5.48,5.48,0,0,1,1.7-.8,10.26,10.26,0,0,1,2.21-.37,9.07,9.07,0,0,1,.91,0l1.17,0a2.52,2.52,0,0,0,0-.48v-0.46a1.44,1.44,0,0,0-.52-1.27,2.46,2.46,0,0,0-1.55-.3,7.52,7.52,0,0,0-2.2.45,15.32,15.32,0,0,0-1.65.73Zm4.1,8.55a3,3,0,0,0,1.71-.53,3.1,3.1,0,0,0,.83-1v-1.44l-0.71-.06a8.2,8.2,0,0,0-1,0,5.12,5.12,0,0,0-.91.14,3.18,3.18,0,0,0-.81.31,1.75,1.75,0,0,0-.57.5,1.19,1.19,0,0,0-.21.71,1.29,1.29,0,0,0,.39,1A1.77,1.77,0,0,0,468.25,369Z"/><path d="M478.52,353.88l5.13-.36c0,4.43,0,6.65,0,11.09a4.93,4.93,0,0,0,.46,2.54,1.49,1.49,0,0,0,1.47.61,4.17,4.17,0,0,0,1.23-.25,5.07,5.07,0,0,0,1-.52l1.18,2.07q-0.41.3-.82,0.55a5.7,5.7,0,0,1-.87.45,6.21,6.21,0,0,1-1,.31,8.15,8.15,0,0,1-1.21.17,4.28,4.28,0,0,1-3.39-.91,4.18,4.18,0,0,1-1.13-3.18c0-4,0-6,0-10.08l-2,.14v-2.64Z"/><path d="M492.74,372.44c4.27-.33,6.41-0.51,10.68-0.87v2.57c-4.27.36-6.41,0.53-10.68,0.87C492.74,374,492.74,373.47,492.74,372.44Z"/><path d="M505.29,351.81l4.86-.42v6.14h0.1a4.61,4.61,0,0,1,1.54-1.36,5.58,5.58,0,0,1,2.26-.66,5.49,5.49,0,0,1,1.68.09,2.84,2.84,0,0,1,1.32.67,3.32,3.32,0,0,1,.86,1.42,7.27,7.27,0,0,1,.31,2.31v7.46l-3.12.29v-6.82a2.76,2.76,0,0,0-.62-2.05,2,2,0,0,0-1.63-.5,3,3,0,0,0-1.63.69,3.33,3.33,0,0,0-1.06,1.47v7.66l-3.13.27V354.3l-1.73.15v-2.64Z"/><path d="M532.54,364.78a4.91,4.91,0,0,1-.81.65,8.7,8.7,0,0,1-1.15.63,9.74,9.74,0,0,1-3.14.84,7.87,7.87,0,0,1-2.75-.16,4.71,4.71,0,0,1-3.34-2.93,7.06,7.06,0,0,1-.44-2.61,7.42,7.42,0,0,1,.5-2.82,6.32,6.32,0,0,1,1.38-2.11,6.58,6.58,0,0,1,2.05-1.39,8.45,8.45,0,0,1,2.55-.65,7.72,7.72,0,0,1,1.89.05,4.64,4.64,0,0,1,1.79.65,3.83,3.83,0,0,1,1.33,1.44,5,5,0,0,1,.52,2.44,11.77,11.77,0,0,1-.24,2.26l-8.65.86a2.57,2.57,0,0,0,.32,1.26,2.23,2.23,0,0,0,.79.79,3.12,3.12,0,0,0,1.13.38,5.57,5.57,0,0,0,1.36,0,7.4,7.4,0,0,0,2.37-.57,5.71,5.71,0,0,0,1.5-1Zm-5.19-8a4.22,4.22,0,0,0-1.18.29,3.71,3.71,0,0,0-1,.6,3.16,3.16,0,0,0-.73.89,2.74,2.74,0,0,0-.34,1.13l5.91-.58a2.41,2.41,0,0,0-.66-1.83A2.44,2.44,0,0,0,527.35,356.74Z"/><path d="M536.21,348.88l5.11-.54v11.09a4.84,4.84,0,0,0,.46,2.52,1.44,1.44,0,0,0,1.46.56,4.24,4.24,0,0,0,1.22-.29,5.29,5.29,0,0,0,1-.55l1.18,2q-0.41.31-.82,0.58a5.93,5.93,0,0,1-.86.48,6.38,6.38,0,0,1-1,.35,8.24,8.24,0,0,1-1.21.22,4.16,4.16,0,0,1-3.38-.79,4.06,4.06,0,0,1-1.13-3.14V351.31l-2,.21v-2.64Z"/><path d="M548.52,352.35l4.08-.46,0.36,1.4h0.1a5.22,5.22,0,0,1,4-2.24,5.51,5.51,0,0,1,2,.11,3.38,3.38,0,0,1,1.58.9,4.42,4.42,0,0,1,1,1.75,8.56,8.56,0,0,1,.36,2.67,9.3,9.3,0,0,1-.41,2.82,6.84,6.84,0,0,1-1.18,2.24,6,6,0,0,1-1.87,1.54,7.06,7.06,0,0,1-2.52.75,9.71,9.71,0,0,1-1.46.06,3.7,3.7,0,0,1-1.2-.21c0,2,0,3,0,4.92l-3.12.36c0-5.66,0-8.5,0-14.16l-1.8.2C548.52,353.93,548.52,353.4,548.52,352.35Zm7.63,1.43a3.51,3.51,0,0,0-1.67.65,2.77,2.77,0,0,0-1,1.49v5a2.29,2.29,0,0,0,1,.31,5.24,5.24,0,0,0,1.28,0,3.62,3.62,0,0,0,1.25-.37,3,3,0,0,0,1-.85,4.1,4.1,0,0,0,.67-1.35,6.55,6.55,0,0,0,.24-1.88,3.22,3.22,0,0,0-.77-2.36A2.23,2.23,0,0,0,556.15,353.78Z"/><path d="M575.71,359.81a5.09,5.09,0,0,1-.8.67,8.93,8.93,0,0,1-1.15.66,9.93,9.93,0,0,1-1.45.57,9.81,9.81,0,0,1-1.68.35,7.8,7.8,0,0,1-2.74-.09,4.54,4.54,0,0,1-3.33-2.84,7,7,0,0,1-.44-2.6,7.53,7.53,0,0,1,.5-2.83,6.56,6.56,0,0,1,1.38-2.15,6.81,6.81,0,0,1,2-1.44,8.59,8.59,0,0,1,2.54-.71,7.68,7.68,0,0,1,1.88,0,4.51,4.51,0,0,1,1.78.6,3.68,3.68,0,0,1,1.33,1.4,5,5,0,0,1,.52,2.43,11.9,11.9,0,0,1-.24,2.26l-8.63,1.09a2.53,2.53,0,0,0,.32,1.26,2.15,2.15,0,0,0,.79.77,3,3,0,0,0,1.13.35,5.54,5.54,0,0,0,1.35,0,7.5,7.5,0,0,0,2.36-.63,5.9,5.9,0,0,0,1.5-1Zm-5.18-7.91a4.28,4.28,0,0,0-1.17.32,3.83,3.83,0,0,0-1,.63,3.28,3.28,0,0,0-.73.91,2.81,2.81,0,0,0-.34,1.14l5.9-.74a2.35,2.35,0,0,0-.66-1.81A2.39,2.39,0,0,0,570.54,351.9Z"/><path d="M578.23,358.12l3-.39V351l-3,.39c0-1.06,0-1.58,0-2.64l5.39-.71,0.36,1.54h0.1A7.75,7.75,0,0,1,585.6,348a4.26,4.26,0,0,1,2-.8,2.39,2.39,0,0,1,2.26.75,5.29,5.29,0,0,1,.83,3.41l-2.8.38a2.24,2.24,0,0,0-.25-1.23,0.77,0.77,0,0,0-.8-0.29,2.7,2.7,0,0,0-1.54.69,5.87,5.87,0,0,0-1,1.24c0,2,0,3.07,0,5.11l5.2-.7v2.64c-4.51.62-6.77,0.92-11.28,1.51v-2.64Z"/><path d="M602.55,362.5a10,10,0,0,1-3.25-.59,7.8,7.8,0,0,1-2.8-1.74,8.43,8.43,0,0,1-2-3,11.69,11.69,0,0,1-.73-4.36,13.41,13.41,0,0,1,.73-4.55,12.53,12.53,0,0,1,2-3.57,12,12,0,0,1,2.8-2.58,13.79,13.79,0,0,1,3.25-1.6l0.57,2.48a11.62,11.62,0,0,0-1.9,1,8.56,8.56,0,0,0-2,1.75,9.72,9.72,0,0,0-1.61,2.74,10.5,10.5,0,0,0-.66,3.93,8.22,8.22,0,0,0,.69,3.62,6.73,6.73,0,0,0,1.69,2.24,6.16,6.16,0,0,0,2,1.17,7.25,7.25,0,0,0,1.77.38Z"/><path d="M618.52,355c-4.26.66-6.39,1-10.66,1.62V354.3c0.19-.19.43-0.44,0.72-0.74l1-1q0.54-.58,1.14-1.27t1.17-1.42q0.81-1,1.42-1.87a14.43,14.43,0,0,0,1-1.56,6.81,6.81,0,0,0,.59-1.39,4.82,4.82,0,0,0,.19-1.34,2,2,0,0,0-.21-0.9,2.06,2.06,0,0,0-.6-0.71,2.37,2.37,0,0,0-.92-0.41,3.18,3.18,0,0,0-1.18,0,4.93,4.93,0,0,0-1.57.5,6.57,6.57,0,0,0-1.47,1.11l-1.24-2a12.84,12.84,0,0,1,2.24-1.55,8.47,8.47,0,0,1,2.83-.92,6.53,6.53,0,0,1,2,0,4.39,4.39,0,0,1,1.67.6,3.3,3.3,0,0,1,1.16,1.23,3.81,3.81,0,0,1,.43,1.88,7.64,7.64,0,0,1-.13,1.45,7.92,7.92,0,0,1-.41,1.38,10.87,10.87,0,0,1-.72,1.47q-0.44.76-1.06,1.68c-0.32.46-.67,0.94-1,1.42s-0.74.94-1.11,1.38-0.73.85-1.09,1.24-0.68.72-1,1l6.88-1.05C618.52,353.43,618.52,354,618.52,355Z"/><path d="M621.26,346.16a15.24,15.24,0,0,1,.45-3.9,9.46,9.46,0,0,1,1.28-2.93,6.72,6.72,0,0,1,2-1.93,6.8,6.8,0,0,1,2.56-.95,4.76,4.76,0,0,1,4.65,1.37q1.63,1.86,1.63,6.32a15.36,15.36,0,0,1-.46,3.93,9.65,9.65,0,0,1-1.28,2.95,6.65,6.65,0,0,1-2,2,6.83,6.83,0,0,1-2.58,1,4.6,4.6,0,0,1-4.65-1.5Q621.26,350.44,621.26,346.16Zm3.11-.49q0,0.36,0,.68c0,0.21,0,.43,0,0.65l5.78-6.28a2.22,2.22,0,0,0-2.68-1.63,3.13,3.13,0,0,0-2.33,1.85A10.74,10.74,0,0,0,624.37,345.67Zm6.35-1q0-.38,0-0.73c0-.23,0-0.46,0-0.68l-5.8,6.28a2.26,2.26,0,0,0,2.68,1.76,3.16,3.16,0,0,0,2.35-1.84A10.77,10.77,0,0,0,630.72,344.65Z"/><path d="M639.88,350a2,2,0,0,1,.54-1.39,2.33,2.33,0,0,1,1.35-.71,2,2,0,0,1,2,.53,2.93,2.93,0,0,1,.67,2,5.06,5.06,0,0,1-.42,2,6.58,6.58,0,0,1-1.09,1.72,7.53,7.53,0,0,1-1.49,1.31,7.26,7.26,0,0,1-1.63.83l-0.64-1.21a8.39,8.39,0,0,0,1.16-.6,6,6,0,0,0,1.06-.84,4.71,4.71,0,0,0,.8-1.06,3,3,0,0,0,.37-1.22,3.19,3.19,0,0,1-1.22.24,1.56,1.56,0,0,1-.82-0.24,1.24,1.24,0,0,1-.46-0.59A2.3,2.3,0,0,1,639.88,350Z"/><path d="M654.9,346.66a5.42,5.42,0,0,0,1.44-.46,4.3,4.3,0,0,0,1.12-.77,3.59,3.59,0,0,0,.73-1,2.51,2.51,0,0,0,.26-1.11,2,2,0,0,0-.3-1.15,1.66,1.66,0,0,0-.82-0.63,3.51,3.51,0,0,0-1.26-.18,10.21,10.21,0,0,0-1.6.17l-1.33.24V340l4-5.64-6,1.07c0-1.06,0-1.58,0-2.64,3.89-.68,5.83-1,9.72-1.73,0,0.87,0,1.31,0,2.18l-4.19,5.58,0.55-.1a4.46,4.46,0,0,1,1.62,0,3.22,3.22,0,0,1,1.39.61,3.3,3.3,0,0,1,1,1.26,4.56,4.56,0,0,1,.37,1.93,5.58,5.58,0,0,1-.56,2.5,7.08,7.08,0,0,1-1.48,2,7.94,7.94,0,0,1-2.11,1.44,9.74,9.74,0,0,1-2.45.79,12.05,12.05,0,0,1-2.14.19,9.2,9.2,0,0,1-2.07-.24l0.83-2.74a2.87,2.87,0,0,0,.58.14l0.83,0.09a8.52,8.52,0,0,0,1,0A6.62,6.62,0,0,0,654.9,346.66Z"/><path d="M666.14,349.4a9.87,9.87,0,0,0,1.76-1,9.75,9.75,0,0,0,2-1.84,10.61,10.61,0,0,0,1.68-2.8,9.89,9.89,0,0,0,.69-3.85,8.92,8.92,0,0,0-.65-3.72A6.2,6.2,0,0,0,670,334a5.4,5.4,0,0,0-2-1.09,8.62,8.62,0,0,0-1.89-.33l0.57-2.67a10.29,10.29,0,0,1,3.24.53,7.46,7.46,0,0,1,2.78,1.66,8.14,8.14,0,0,1,1.94,2.93,11.5,11.5,0,0,1,.72,4.31,13.79,13.79,0,0,1-.72,4.6,13,13,0,0,1-1.94,3.63,12.46,12.46,0,0,1-2.78,2.66,13.28,13.28,0,0,1-3.24,1.66Z"/><path d="M56.15,294.12v-2.64L59,292V285.3l-2.83-.54v-2.64L59,282.66V282a4,4,0,0,1,.39-1.87,3,3,0,0,1,1-1.15,3.45,3.45,0,0,1,1.49-.5,5.93,5.93,0,0,1,1.75.07,12.29,12.29,0,0,1,2.7.78,8.55,8.55,0,0,1,1.75,1l-0.9,2.21a13.37,13.37,0,0,0-1.18-.7,5.78,5.78,0,0,0-1.63-.52,2,2,0,0,0-1.8.25,2.25,2.25,0,0,0-.51,1.67l5,0.93v2.64l-5-.93v6.72l5,0.93v2.64C62.7,295.36,60.52,295,56.15,294.12Z"/><path d="M70.88,285.68a11.47,11.47,0,0,1,2.2-.35,12.34,12.34,0,0,1,3,.22,7.35,7.35,0,0,1,2.11.67,4.5,4.5,0,0,1,1.41,1.1,4.05,4.05,0,0,1,.77,1.46,6.24,6.24,0,0,1,.24,1.77q0,1.22-.08,2.07t-0.08,1.52a10.55,10.55,0,0,0,0,1.14c0,0.22.06,0.45,0.07,0.66l1.55,0.27v2.64l-4-.7-0.31-1.69-0.12,0a3.19,3.19,0,0,1-1.35,1,4.15,4.15,0,0,1-2.37.12,4.82,4.82,0,0,1-2.82-1.47,3.93,3.93,0,0,1-1-2.73,3.44,3.44,0,0,1,.37-1.67,2.38,2.38,0,0,1,1.07-1,4.31,4.31,0,0,1,1.68-.39,9.7,9.7,0,0,1,2.19.16q0.43,0.08.9,0.21l1.16,0.3a2.31,2.31,0,0,0,0-.47v-0.46a1.83,1.83,0,0,0-.52-1.4,3,3,0,0,0-1.54-.67,6.93,6.93,0,0,0-2.18-.08,12.14,12.14,0,0,0-1.63.33Zm4.05,9.54a2.59,2.59,0,0,0,1.7-.12,2.18,2.18,0,0,0,.83-0.75v-1.44l-0.71-.23a8.69,8.69,0,0,0-1-.24,4.87,4.87,0,0,0-.89-0.08,2.61,2.61,0,0,0-.8.12,1.23,1.23,0,0,0-.57.37,1,1,0,0,0-.21.66,1.63,1.63,0,0,0,.39,1.11A2.17,2.17,0,0,0,74.94,295.22Z"/><path d="M96.06,300.07a5.73,5.73,0,0,1-2.29.74,9.69,9.69,0,0,1-2.74-.09,8.68,8.68,0,0,1-2.75-.92,7.09,7.09,0,0,1-2-1.63A6.8,6.8,0,0,1,85,295.95a8.17,8.17,0,0,1-.43-2.67,6.19,6.19,0,0,1,.5-2.6,4.45,4.45,0,0,1,1.4-1.75,4.91,4.91,0,0,1,2.11-.88,7.82,7.82,0,0,1,2.65,0,10.78,10.78,0,0,1,2.5.73,13.79,13.79,0,0,1,1.79.9v4.22l-2.62-.44v-2.21a7.41,7.41,0,0,0-1.48-.42,4.31,4.31,0,0,0-1.32,0,2.59,2.59,0,0,0-2,1.42,3.34,3.34,0,0,0-.32,1.55,4.07,4.07,0,0,0,.26,1.46,4.18,4.18,0,0,0,1.92,2.21,4.77,4.77,0,0,0,1.56.54,5.3,5.3,0,0,0,2.23,0,7.4,7.4,0,0,0,1.3-.46Z"/><path d="M100.11,292.53l-2.36-.39v-2.64l2.36,0.39v-2.74l3.1-.39c0,1.45,0,2.17,0,3.62l6.26,1V294l-6.26-1v3.43a4.66,4.66,0,0,0,.69,2.79,2.86,2.86,0,0,0,1.93,1.14,4,4,0,0,0,1.17,0,3.78,3.78,0,0,0,.94-0.25,4.36,4.36,0,0,0,.76-0.41l0.63-.43,1.43,2.38a3.66,3.66,0,0,1-1,.72,7.21,7.21,0,0,1-1.31.49,7.37,7.37,0,0,1-1.47.24,6.88,6.88,0,0,1-1.5-.07,6.09,6.09,0,0,1-4-2.15,7.93,7.93,0,0,1-1.35-5v-3.43Z"/><path d="M112.51,297.86a6.86,6.86,0,0,1,.45-2.62,4.46,4.46,0,0,1,1.29-1.79,4.56,4.56,0,0,1,2-.93,7.33,7.33,0,0,1,2.59,0,8.29,8.29,0,0,1,2.69.86,6.83,6.83,0,0,1,2,1.58,6.54,6.54,0,0,1,1.23,2.19,8.22,8.22,0,0,1,.42,2.65,6.9,6.9,0,0,1-.45,2.62,4.5,4.5,0,0,1-1.29,1.8,4.56,4.56,0,0,1-2,.94,7.27,7.27,0,0,1-2.59,0,8.23,8.23,0,0,1-2.69-.86,6.86,6.86,0,0,1-2-1.59,6.59,6.59,0,0,1-1.23-2.19A8.27,8.27,0,0,1,112.51,297.86Zm3.2,0.49a5.11,5.11,0,0,0,.21,1.5,4.32,4.32,0,0,0,.62,1.27,3.51,3.51,0,0,0,1,.93,3.36,3.36,0,0,0,1.31.48,2.67,2.67,0,0,0,2.26-.55,3.41,3.41,0,0,0,.87-2.68,4.7,4.7,0,0,0-.81-2.8,3.32,3.32,0,0,0-2.32-1.37,3.55,3.55,0,0,0-1.24,0,2,2,0,0,0-1,.51,2.64,2.64,0,0,0-.66,1.05A4.86,4.86,0,0,0,115.71,298.35Z"/><path d="M126.95,303.39l3,0.43c0-2.69,0-4,0-6.72l-3-.43V294l5.38,0.78,0.36,1.64h0.1a5.17,5.17,0,0,1,1.53-1.1,3.5,3.5,0,0,1,2-.24,3.19,3.19,0,0,1,2.26,1.37,6.39,6.39,0,0,1,.83,3.64l-2.8-.39a2.64,2.64,0,0,0-.25-1.3,1,1,0,0,0-.8-0.51,2.15,2.15,0,0,0-1.54.26,3.9,3.9,0,0,0-1,1v5.11l5.19,0.73c0,1.06,0,1.58,0,2.64-4.51-.63-6.76-0.95-11.27-1.6v-2.64Z"/><path d="M141.78,305.48l4.21,0.57c0-2.69,0-4,0-6.72l-4.21-.57v-2.64l7.33,1v9.36l4.43,0.58v2.64c-4.71-.61-7.06-0.92-11.76-1.56v-2.64Zm3.64-12.13a1.48,1.48,0,0,1,.55-1.2,1.92,1.92,0,0,1,1.53-.32,2.67,2.67,0,0,1,1.6.74,1.88,1.88,0,0,1,.6,1.35,1.35,1.35,0,0,1-.6,1.18,2.23,2.23,0,0,1-1.6.28,2.53,2.53,0,0,1-1.53-.7A1.85,1.85,0,0,1,145.42,293.35Z"/><path d="M156.9,298.93a11.93,11.93,0,0,1,2.22-.46,12.4,12.4,0,0,1,3,.06,7.12,7.12,0,0,1,2.12.56,4.2,4.2,0,0,1,1.41,1,3.79,3.79,0,0,1,.78,1.41,6.07,6.07,0,0,1,.24,1.76q0,1.22-.08,2.08c-0.06.57-.08,1.08-0.08,1.53a10.44,10.44,0,0,0,0,1.13c0,0.22.06,0.45,0.07,0.66l1.56,0.19v2.64l-4-.49-0.32-1.67h-0.12a3.46,3.46,0,0,1-1.36,1.12,4.26,4.26,0,0,1-2.38.24,4.57,4.57,0,0,1-2.83-1.32,3.72,3.72,0,0,1-1-2.68,3.54,3.54,0,0,1,.37-1.69,2.58,2.58,0,0,1,1.07-1.06,4.53,4.53,0,0,1,1.69-.48,9.76,9.76,0,0,1,2.2,0q0.43,0.05.91,0.16l1.17,0.24a2.33,2.33,0,0,0,0-.47V303a1.73,1.73,0,0,0-.52-1.37,2.83,2.83,0,0,0-1.55-.59,7,7,0,0,0-2.19,0,12.73,12.73,0,0,0-1.64.42Zm4.08,9.32a2.67,2.67,0,0,0,1.71-.21,2.36,2.36,0,0,0,.83-0.8V305.8l-0.71-.2a8.53,8.53,0,0,0-1-.19,4.9,4.9,0,0,0-.9,0,2.71,2.71,0,0,0-.81.16,1.33,1.33,0,0,0-.57.4,1,1,0,0,0-.21.67,1.54,1.54,0,0,0,.39,1.09A2.06,2.06,0,0,0,161,308.25Z"/><path d="M171.21,295.07l5.11,0.6c0,4.44,0,6.65,0,11.09a5.48,5.48,0,0,0,.46,2.62,1.83,1.83,0,0,0,1.46.89,3.91,3.91,0,0,0,1.22,0,4.14,4.14,0,0,0,1-.34l1.18,2.29q-0.41.22-.82,0.4a4.69,4.69,0,0,1-.86.29,5.51,5.51,0,0,1-1,.13,7.84,7.84,0,0,1-1.21-.05,5.07,5.07,0,0,1-3.38-1.54A5,5,0,0,1,173.2,308c0-4,0-6,0-10.08l-2-.23C171.21,296.65,171.21,296.12,171.21,295.07Z"/><path d="M185.39,316.29c4.26,0.47,6.39.69,10.66,1.13,0,1,0,1.54,0,2.57-4.26-.44-6.4-0.66-10.66-1.13C185.39,317.83,185.39,317.31,185.39,316.29Z"/><path d="M197.92,298l4.85,0.49c0,2.46,0,3.69,0,6.14h0.1a3.53,3.53,0,0,1,1.54-1.07,5,5,0,0,1,2.26-.24,5.94,5.94,0,0,1,1.68.4,3.62,3.62,0,0,1,1.32.92,4.2,4.2,0,0,1,.87,1.58,7.88,7.88,0,0,1,.31,2.37c0,3,0,4.48,0,7.46l-3.12-.3c0-2.73,0-4.09,0-6.82a3.21,3.21,0,0,0-.62-2.17,2.4,2.4,0,0,0-1.63-.81,2.61,2.61,0,0,0-2.69,1.66c0,3.06,0,4.59,0,7.66l-3.12-.31c0-5.66,0-8.5,0-14.16l-1.73-.17C197.92,299.58,197.92,299.06,197.92,298Z"/><path d="M225.17,316.07a3.78,3.78,0,0,1-.81.5,7.07,7.07,0,0,1-1.15.42,8.48,8.48,0,0,1-1.45.26,9.28,9.28,0,0,1-1.68,0,8.56,8.56,0,0,1-2.75-.68A6.12,6.12,0,0,1,214,313a7.71,7.71,0,0,1-.44-2.69,6.71,6.71,0,0,1,.5-2.73,4.88,4.88,0,0,1,1.38-1.85,5.19,5.19,0,0,1,2.06-1,7.76,7.76,0,0,1,2.55-.17,8.26,8.26,0,0,1,1.89.4,5.72,5.72,0,0,1,1.79,1,5,5,0,0,1,1.33,1.68,5.62,5.62,0,0,1,.52,2.54,11.09,11.09,0,0,1-.24,2.21l-8.65-.76a2.82,2.82,0,0,0,1.12,2.26,3.8,3.8,0,0,0,1.13.59,5.92,5.92,0,0,0,1.36.28,6.82,6.82,0,0,0,2.37-.13,4.51,4.51,0,0,0,1.5-.69Zm-5.19-9a3.89,3.89,0,0,0-1.18.07,3,3,0,0,0-1,.41,2.4,2.4,0,0,0-.73.75,2.33,2.33,0,0,0-.34,1.07l5.91,0.52a2.85,2.85,0,0,0-.66-2A2.89,2.89,0,0,0,220,307.05Z"/><path d="M228.85,300.85l5.12,0.41c0,4.44,0,6.65,0,11.09a5.36,5.36,0,0,0,.46,2.6,1.76,1.76,0,0,0,1.47.84,3.93,3.93,0,0,0,1.23-.06,4.28,4.28,0,0,0,1-.37l1.18,2.25c-0.27.16-.55,0.3-0.82,0.43a4.82,4.82,0,0,1-.87.32,5.6,5.6,0,0,1-1,.16,7.86,7.86,0,0,1-1.22,0,4.9,4.9,0,0,1-3.39-1.42,4.79,4.79,0,0,1-1.13-3.35c0-4,0-6,0-10.08l-2-.16C228.85,302.43,228.85,301.9,228.85,300.85Z"/><path d="M241.18,306.62l4.09,0.3,0.36,1.47h0.1a4.3,4.3,0,0,1,4-1.49,6,6,0,0,1,2,.49,4.37,4.37,0,0,1,1.59,1.2,5.59,5.59,0,0,1,1,1.94,9.2,9.2,0,0,1,.36,2.74,8.55,8.55,0,0,1-.41,2.74,5.4,5.4,0,0,1-1.18,2,4.59,4.59,0,0,1-1.88,1.19,6.37,6.37,0,0,1-2.53.28,10.12,10.12,0,0,1-1.47-.21,4.29,4.29,0,0,1-1.2-.43c0,2,0,3,0,4.92l-3.13-.23c0-5.66,0-8.5,0-14.16l-1.8-.13C241.18,308.2,241.18,307.67,241.18,306.62Zm7.65,2.86a3,3,0,0,0-1.67.34,2.15,2.15,0,0,0-1,1.29c0,2,0,3,0,5a2.79,2.79,0,0,0,1,.49,5.54,5.54,0,0,0,1.29.25,3.26,3.26,0,0,0,1.25-.14,2.32,2.32,0,0,0,1-.66,3.26,3.26,0,0,0,.67-1.23,6.07,6.07,0,0,0,.24-1.83,3.77,3.77,0,0,0-.77-2.5A2.7,2.7,0,0,0,248.83,309.48Z"/><path d="M268.48,319.16a3.93,3.93,0,0,1-.81.52,7.24,7.24,0,0,1-1.16.45,8.58,8.58,0,0,1-1.46.3,9.29,9.29,0,0,1-1.69,0,8.43,8.43,0,0,1-2.76-.6,5.9,5.9,0,0,1-3.35-3.47,7.63,7.63,0,0,1-.44-2.68,6.8,6.8,0,0,1,.51-2.74,5.07,5.07,0,0,1,1.38-1.89,5.36,5.36,0,0,1,2.06-1.06,7.84,7.84,0,0,1,2.55-.24,8.16,8.16,0,0,1,1.89.36,5.54,5.54,0,0,1,1.79.93,4.83,4.83,0,0,1,1.34,1.65,5.52,5.52,0,0,1,.52,2.53,11.17,11.17,0,0,1-.24,2.22l-8.67-.53a2.88,2.88,0,0,0,.32,1.32,2.83,2.83,0,0,0,.79.91,3.7,3.7,0,0,0,1.13.56,5.85,5.85,0,0,0,1.36.24,6.88,6.88,0,0,0,2.37-.19,4.67,4.67,0,0,0,1.5-.73Zm-5.2-8.88a3.92,3.92,0,0,0-1.18.1,3.07,3.07,0,0,0-1,.44,2.51,2.51,0,0,0-.73.77,2.4,2.4,0,0,0-.34,1.08l5.92,0.36a2.78,2.78,0,0,0-.66-1.93A2.81,2.81,0,0,0,263.27,310.28Z"/><path d="M271,317.94l3,0.17c0-2.69,0-4,0-6.72l-3-.17c0-1.06,0-1.58,0-2.64l5.42,0.3,0.36,1.6h0.1a5.91,5.91,0,0,1,1.54-1.24,3.7,3.7,0,0,1,2-.42,2.9,2.9,0,0,1,2.28,1.17,6,6,0,0,1,.83,3.57l-2.82-.14a2.49,2.49,0,0,0-.25-1.27,0.94,0.94,0,0,0-.81-0.44,2.3,2.3,0,0,0-1.55.4,4.46,4.46,0,0,0-1,1.05v5.11l5.23,0.27c0,1.06,0,1.58,0,2.64-4.54-.23-6.81-0.35-11.34-0.6C271,319.52,271,319,271,317.94Z"/><path d="M295.47,326.87a11.59,11.59,0,0,1-3.28-1.2,10.19,10.19,0,0,1-2.82-2.26,10.78,10.78,0,0,1-2-3.35,12.73,12.73,0,0,1-.73-4.5,12.19,12.19,0,0,1,.73-4.42,9.85,9.85,0,0,1,2-3.21,9.17,9.17,0,0,1,2.82-2.06,11.54,11.54,0,0,1,3.28-1l0.58,2.59a9.69,9.69,0,0,0-1.92.6,6.6,6.6,0,0,0-2,1.38,7.57,7.57,0,0,0-1.63,2.44,9.5,9.5,0,0,0-.66,3.81,9.06,9.06,0,0,0,.7,3.75,8.73,8.73,0,0,0,1.7,2.56,8,8,0,0,0,2.06,1.55,8.55,8.55,0,0,0,1.78.71Z"/><path d="M311.57,322.37c-4.3-.14-6.45-0.21-10.75-0.38v-2.33c0.19-.15.43-0.36,0.72-0.61l1-.86q0.54-.48,1.14-1.06t1.18-1.21q0.82-.88,1.43-1.61a11.12,11.12,0,0,0,1-1.37,5.53,5.53,0,0,0,.59-1.28,4.42,4.42,0,0,0,.19-1.3,2.21,2.21,0,0,0-.22-0.94,2.69,2.69,0,0,0-.6-0.82,3,3,0,0,0-.93-0.58,3.44,3.44,0,0,0-1.19-.25,4.45,4.45,0,0,0-1.58.21,5.15,5.15,0,0,0-1.48.83l-1.25-2.26a10.16,10.16,0,0,1,2.25-1.13,7.62,7.62,0,0,1,2.86-.39,7,7,0,0,1,2,.36,5.45,5.45,0,0,1,1.69.91,4.34,4.34,0,0,1,1.17,1.44,4.26,4.26,0,0,1,.43,2,7.2,7.2,0,0,1-.13,1.42,6.73,6.73,0,0,1-.41,1.31,8.63,8.63,0,0,1-.72,1.33c-0.3.45-.65,0.95-1.07,1.48s-0.67.81-1,1.22-0.75.8-1.12,1.17-0.74.72-1.1,1-0.69.59-1,.81l6.94,0.24v2.64Z"/><path d="M314.34,314a14.15,14.15,0,0,1,.46-3.81,7.63,7.63,0,0,1,1.29-2.69,5.16,5.16,0,0,1,2-1.56,6,6,0,0,1,2.59-.47,5.75,5.75,0,0,1,4.69,2.24q1.64,2.16,1.65,6.63a14.24,14.24,0,0,1-.46,3.84,7.8,7.8,0,0,1-1.29,2.71,5.12,5.12,0,0,1-2,1.58,6,6,0,0,1-2.6.47,5.59,5.59,0,0,1-4.69-2.37A11.28,11.28,0,0,1,314.34,314Zm3.13,0.09q0,0.36,0,.68c0,0.22,0,.44,0,0.66l5.83-5.2a2.79,2.79,0,0,0-2.7-2.13,2.5,2.5,0,0,0-2.35,1.41A9.64,9.64,0,0,0,317.47,314.12Zm6.41,0.17q0-.38,0-0.73c0-.23,0-0.46,0-0.68l-5.86,5.2a2.84,2.84,0,0,0,2.7,2.26,2.53,2.53,0,0,0,2.37-1.4A9.66,9.66,0,0,0,323.88,314.29Z"/><path d="M333.14,321.38a1.61,1.61,0,0,1,.54-1.29,2,2,0,0,1,1.36-.46,2.43,2.43,0,0,1,2,.9,3.41,3.41,0,0,1,.67,2.15,4.49,4.49,0,0,1-.42,2,5.1,5.1,0,0,1-1.1,1.52,5.8,5.8,0,0,1-1.51,1,6.06,6.06,0,0,1-1.65.52l-0.65-1.33a6.94,6.94,0,0,0,1.17-.39,4.61,4.61,0,0,0,1.07-.64,3.6,3.6,0,0,0,.81-0.91,2.51,2.51,0,0,0,.37-1.15,3.08,3.08,0,0,1-1.23,0,1.91,1.91,0,0,1-.83-0.4,1.62,1.62,0,0,1-.47-0.68A2.5,2.5,0,0,1,333.14,321.38Z"/><path d="M348.33,320.82a4.92,4.92,0,0,0,1.46-.19,3.42,3.42,0,0,0,1.13-.56,2.74,2.74,0,0,0,.73-0.85,2.19,2.19,0,0,0,.27-1.06,2.27,2.27,0,0,0-.3-1.21,2.19,2.19,0,0,0-.83-0.78,4.05,4.05,0,0,0-1.28-.42,10.4,10.4,0,0,0-1.62-.13h-1.35v-1.72l4-4.89-6.1-.06c0-1.06,0-1.58,0-2.64,3.93,0,5.9.06,9.84,0.09,0,0.87,0,1.31,0,2.18l-4.24,4.79h0.55a4.8,4.8,0,0,1,1.64.3,4.1,4.1,0,0,1,1.41.87,4.29,4.29,0,0,1,1,1.45,5,5,0,0,1,.37,2,4.89,4.89,0,0,1-.57,2.4,5.43,5.43,0,0,1-1.49,1.73,6.34,6.34,0,0,1-2.13,1,8.85,8.85,0,0,1-2.48.33,12.38,12.38,0,0,1-2.17-.21,10.49,10.49,0,0,1-2.1-.62L345,320a3.47,3.47,0,0,0,.59.25l0.84,0.25a9.3,9.3,0,0,0,1,.2A6.76,6.76,0,0,0,348.33,320.82Z"/><path d="M359.7,325.67a8.2,8.2,0,0,0,1.78-.63,7.53,7.53,0,0,0,2.06-1.46,8.24,8.24,0,0,0,1.7-2.48,8.84,8.84,0,0,0,.7-3.72,9.7,9.7,0,0,0-.66-3.84,8,8,0,0,0-1.63-2.51,7,7,0,0,0-2-1.47,10.1,10.1,0,0,0-1.92-.69l0.58-2.57a12,12,0,0,1,3.28,1.13,9.77,9.77,0,0,1,2.82,2.18,10.42,10.42,0,0,1,2,3.3,13.89,13.89,0,0,1,0,8.92,10.19,10.19,0,0,1-2,3.27,9.58,9.58,0,0,1-2.82,2.14,11.15,11.15,0,0,1-3.28,1.05Z"/><path d="M489.11,301.61c3.8-.29,5.7-0.44,9.5-0.76,0,1.06,0,1.58,0,2.64l-6.52.52c0,6.82,0,10.22,0,17l6.52-.52c0,1.06,0,1.58,0,2.64-3.8.31-5.7,0.46-9.5,0.76C489.11,315,489.11,310.54,489.11,301.61Z"/><path d="M506.59,306.7a1.88,1.88,0,0,1,.53-1.38,2.14,2.14,0,0,1,1.39-.61,1.9,1.9,0,0,1,1.44.36,1.58,1.58,0,0,1,.53,1.28,1.93,1.93,0,0,1-.53,1.39,2.19,2.19,0,0,1-1.44.63,1.8,1.8,0,0,1-1.39-.38A1.62,1.62,0,0,1,506.59,306.7Zm0,8.69a1.88,1.88,0,0,1,.53-1.38,2.14,2.14,0,0,1,1.39-.61,1.9,1.9,0,0,1,1.44.36,1.59,1.59,0,0,1,.53,1.28,1.93,1.93,0,0,1-.53,1.39,2.19,2.19,0,0,1-1.44.63,1.8,1.8,0,0,1-1.39-.38A1.62,1.62,0,0,1,506.59,315.39Z"/><path d="M516.69,313.42l3-.28c0-2.69,0-4,0-6.72l-3,.28v-2.64l5.41-.51,0.36,1.55h0.1a7.36,7.36,0,0,1,1.54-1.47,4.13,4.13,0,0,1,2-.73,2.48,2.48,0,0,1,2.27.83,5.41,5.41,0,0,1,.83,3.44l-2.81.28a2.28,2.28,0,0,0-.25-1.24,0.8,0.8,0,0,0-.8-0.32,2.61,2.61,0,0,0-1.55.63,5.57,5.57,0,0,0-1,1.2c0,2,0,3.07,0,5.11l5.21-.52c0,1.06,0,1.58,0,2.64-4.52.45-6.79,0.67-11.32,1.1v-2.64Z"/><path d="M543,312.12a5,5,0,0,1-.8.65,8.76,8.76,0,0,1-1.15.64,9.78,9.78,0,0,1-3.13.87,7.84,7.84,0,0,1-2.75-.14,4.66,4.66,0,0,1-3.34-2.9,7,7,0,0,1-.44-2.61,7.45,7.45,0,0,1,.5-2.82,6.39,6.39,0,0,1,1.38-2.12,6.65,6.65,0,0,1,2.05-1.4,8.49,8.49,0,0,1,2.54-.66,7.71,7.71,0,0,1,1.89,0,4.6,4.6,0,0,1,1.79.63,3.78,3.78,0,0,1,1.33,1.43,5,5,0,0,1,.52,2.44,11.82,11.82,0,0,1-.24,2.26l-8.64.93a2.56,2.56,0,0,0,.32,1.26,2.21,2.21,0,0,0,.79.78,3.09,3.09,0,0,0,1.13.37,5.56,5.56,0,0,0,1.36,0,7.42,7.42,0,0,0,2.36-.59,5.76,5.76,0,0,0,1.5-1Zm-5.18-8a4.24,4.24,0,0,0-1.18.3,3.75,3.75,0,0,0-1,.61,3.2,3.2,0,0,0-.73.9,2.76,2.76,0,0,0-.34,1.14l5.91-.63a2.39,2.39,0,0,0-.66-1.82A2.42,2.42,0,0,0,537.8,304.11Z"/><path d="M557.66,310.56a7.93,7.93,0,0,1-2.3,1.39,10.72,10.72,0,0,1-2.76.69,7.52,7.52,0,0,1-2.77-.14,4.88,4.88,0,0,1-2-1.05,4.68,4.68,0,0,1-1.26-1.86,7.06,7.06,0,0,1-.43-2.54,7.2,7.2,0,0,1,.5-2.74,6.6,6.6,0,0,1,1.4-2.15,7,7,0,0,1,2.12-1.48,8.81,8.81,0,0,1,2.66-.73,9.62,9.62,0,0,1,2.52,0,10.64,10.64,0,0,1,1.8.39c0,1.69,0,2.53,0,4.22l-2.64.31v-2.21a6.67,6.67,0,0,0-1.49,0,4.83,4.83,0,0,0-1.33.36,3.78,3.78,0,0,0-1.18.78,4,4,0,0,0-.84,1.21,3.93,3.93,0,0,0-.32,1.65,3.5,3.5,0,0,0,.26,1.39,2.88,2.88,0,0,0,.74,1,2.93,2.93,0,0,0,1.19.62,4.11,4.11,0,0,0,1.57.09,6.05,6.05,0,0,0,2.24-.65,10.4,10.4,0,0,0,1.31-.83Z"/><path d="M566.87,298.59l4.46-.56c0,3.34,0,5,0,8.35v1l1.82-.23c0,1.06,0,1.58,0,2.64l-3.79.48-0.55-1.71h-0.1a5.09,5.09,0,0,1-1.65,1.72,5.56,5.56,0,0,1-2.45.9,5.29,5.29,0,0,1-1.67,0,2.56,2.56,0,0,1-1.28-.64,3.15,3.15,0,0,1-.81-1.39,7.76,7.76,0,0,1-.29-2.32c0-1.93,0-2.89,0-4.82l-1.37.16c0-1.06,0-1.58,0-2.64l4.48-.54c0,2.73,0,4.09,0,6.82a3.39,3.39,0,0,0,.47,2.05,1.51,1.51,0,0,0,1.47.47,2.93,2.93,0,0,0,1.59-.73,3.37,3.37,0,0,0,1-1.42v-5.11l-1.34.17v-2.64Z"/><path d="M574.27,307l3-.39V299.9l-3,.39v-2.64l5.39-.71,0.36,1.54h0.1a7.75,7.75,0,0,1,1.53-1.52,4.26,4.26,0,0,1,2-.8,2.39,2.39,0,0,1,2.26.75,5.29,5.29,0,0,1,.83,3.42l-2.8.38a2.24,2.24,0,0,0-.25-1.23,0.77,0.77,0,0,0-.8-0.29,2.69,2.69,0,0,0-1.54.69,5.86,5.86,0,0,0-1,1.24v5.11l5.2-.7v2.64c-4.51.61-6.77,0.91-11.28,1.5C574.27,308.59,574.27,308.06,574.27,307Z"/><path d="M592.93,305.59a1.9,1.9,0,0,1,.54-1.37,2.26,2.26,0,0,1,1.35-.67,2.07,2.07,0,0,1,2,.58,3,3,0,0,1,.67,2,5,5,0,0,1-.42,2,6.35,6.35,0,0,1-1.09,1.69,7.24,7.24,0,0,1-1.5,1.27,7,7,0,0,1-1.64.78l-0.65-1.23a8.08,8.08,0,0,0,1.16-.57,5.71,5.71,0,0,0,1.06-.81,4.54,4.54,0,0,0,.8-1,2.89,2.89,0,0,0,.37-1.21,3.16,3.16,0,0,1-1.22.21,1.6,1.6,0,0,1-.83-0.27,1.29,1.29,0,0,1-.47-0.61A2.33,2.33,0,0,1,592.93,305.59Z"/><path d="M615.12,298.64a5.87,5.87,0,0,1-.44,2.25,6.78,6.78,0,0,1-1.21,1.94,7,7,0,0,1-1.83,1.46,6.69,6.69,0,0,1-2.28.78,6.46,6.46,0,0,1-2.33,0,4.38,4.38,0,0,1-1.9-.9,4.62,4.62,0,0,1-1.29-1.8,7,7,0,0,1-.48-2.71,11.87,11.87,0,0,1,.83-4.44,14.5,14.5,0,0,1,2.12-3.69,13.78,13.78,0,0,1,2.89-2.74,11.4,11.4,0,0,1,3.18-1.6l0.69,2.37a10.94,10.94,0,0,0-4.33,2.75,9.82,9.82,0,0,0-1.45,1.92,7,7,0,0,0-.8,2.06,4.57,4.57,0,0,1,1.43-1.24,5.83,5.83,0,0,1,2.1-.74,5.46,5.46,0,0,1,2,0,3.68,3.68,0,0,1,2.69,2.21A5.26,5.26,0,0,1,615.12,298.64Zm-3,.58a2.11,2.11,0,0,0-.78-1.85,2.78,2.78,0,0,0-2.09-.35,3.92,3.92,0,0,0-1.72.69,3.8,3.8,0,0,0-1.12,1.18,4.33,4.33,0,0,0-.06.6c0,0.22,0,.39,0,0.52a3,3,0,0,0,.19,1.08A2.13,2.13,0,0,0,608,302.4a2.88,2.88,0,0,0,1.22,0,3.3,3.3,0,0,0,1.08-.37,3.77,3.77,0,0,0,.93-0.71,3.43,3.43,0,0,0,.66-1A2.82,2.82,0,0,0,612.11,299.22Z"/><path d="M617.31,295.08a15.24,15.24,0,0,1,.45-3.9,9.45,9.45,0,0,1,1.28-2.93,6.71,6.71,0,0,1,2-1.93,6.78,6.78,0,0,1,2.56-.95,4.76,4.76,0,0,1,4.65,1.37q1.63,1.86,1.63,6.32a15.36,15.36,0,0,1-.46,3.93,9.66,9.66,0,0,1-1.28,2.95,6.67,6.67,0,0,1-2,2,6.83,6.83,0,0,1-2.58,1,4.6,4.6,0,0,1-4.65-1.51Q617.31,299.35,617.31,295.08Zm3.11-.49q0,0.36,0,.68c0,0.21,0,.43,0,0.65l5.78-6.28a2.22,2.22,0,0,0-2.68-1.63,3.13,3.13,0,0,0-2.33,1.85A10.74,10.74,0,0,0,620.42,294.59Zm6.35-1q0-.38,0-0.73c0-.23,0-0.46,0-0.68l-5.8,6.28a2.26,2.26,0,0,0,2.68,1.76,3.16,3.16,0,0,0,2.35-1.84A10.77,10.77,0,0,0,626.77,293.57Z"/><path d="M635.94,298.95a2,2,0,0,1,.54-1.39,2.33,2.33,0,0,1,1.35-.71,2,2,0,0,1,2,.53,2.93,2.93,0,0,1,.67,2,5.06,5.06,0,0,1-.42,2,6.58,6.58,0,0,1-1.08,1.72,7.53,7.53,0,0,1-1.49,1.31,7.25,7.25,0,0,1-1.63.83l-0.64-1.21a8.32,8.32,0,0,0,1.16-.6,5.92,5.92,0,0,0,1.06-.84,4.71,4.71,0,0,0,.8-1.06,3,3,0,0,0,.37-1.22,3.18,3.18,0,0,1-1.22.24,1.56,1.56,0,0,1-.82-0.24,1.25,1.25,0,0,1-.46-0.59A2.3,2.3,0,0,1,635.94,298.95Z"/><path d="M657.51,296.71c-4.25.77-6.37,1.15-10.63,1.9v-2.33c0.19-.19.43-0.45,0.72-0.76l1-1.07q0.54-.6,1.13-1.3t1.17-1.46q0.81-1.06,1.42-1.91a15,15,0,0,0,1-1.58,7,7,0,0,0,.58-1.4,4.89,4.89,0,0,0,.19-1.34,1.94,1.94,0,0,0-.21-0.9,2,2,0,0,0-.6-0.7,2.29,2.29,0,0,0-.92-0.39,3.16,3.16,0,0,0-1.18,0,5,5,0,0,0-1.56.54,6.81,6.81,0,0,0-1.47,1.15l-1.24-2a13.3,13.3,0,0,1,2.23-1.6,8.63,8.63,0,0,1,2.82-1,6.51,6.51,0,0,1,2-.06,4.27,4.27,0,0,1,1.67.55,3.17,3.17,0,0,1,1.16,1.2,3.75,3.75,0,0,1,.43,1.87,7.72,7.72,0,0,1-.13,1.45,8.08,8.08,0,0,1-.4,1.39,11.21,11.21,0,0,1-.72,1.49q-0.44.78-1.06,1.7c-0.32.47-.66,1-1,1.45s-0.74,1-1.11,1.41-0.73.87-1.08,1.27-0.68.74-1,1l6.86-1.23v2.64Z"/><path d="M671.4,299.64c-3.76.72-5.64,1.07-9.4,1.76v-2.64l6.45-1.2v-17l-6.45,1.2v-2.64c3.76-.69,5.64-1,9.4-1.76v22.32Z"/><path d="M52.53,447.61V445l2.81,0.53v-6.72l-2.83-.54v-2.64l2.83,0.54v-0.67a4,4,0,0,1,.39-1.87,3,3,0,0,1,1-1.15,3.45,3.45,0,0,1,1.49-.5A5.94,5.94,0,0,1,60,432a12.29,12.29,0,0,1,2.7.78,8.54,8.54,0,0,1,1.75,1L63.55,436a13.35,13.35,0,0,0-1.18-.7,5.79,5.79,0,0,0-1.63-.52,2,2,0,0,0-1.8.25,2.25,2.25,0,0,0-.51,1.67l5,0.93v2.64l-5-.93v6.72l5,0.93v2.64C59.08,448.86,56.9,448.45,52.53,447.61Z"/><path d="M67.26,439.17a11.47,11.47,0,0,1,2.2-.35,12.34,12.34,0,0,1,3,.22,7.37,7.37,0,0,1,2.11.67,4.51,4.51,0,0,1,1.41,1.1,4,4,0,0,1,.77,1.46A6.26,6.26,0,0,1,77,444q0,1.22-.08,2.07t-0.08,1.52a10.69,10.69,0,0,0,0,1.14c0,0.22.06,0.45,0.07,0.66l1.55,0.27v2.64l-4-.7L74.15,450l-0.12,0a3.19,3.19,0,0,1-1.35,1,4.16,4.16,0,0,1-2.37.12,4.82,4.82,0,0,1-2.82-1.47,3.93,3.93,0,0,1-1-2.73,3.43,3.43,0,0,1,.37-1.67,2.37,2.37,0,0,1,1.07-1,4.31,4.31,0,0,1,1.68-.39,9.71,9.71,0,0,1,2.19.16q0.43,0.08.9,0.21l1.16,0.3a2.34,2.34,0,0,0,0-.47v-0.46a1.83,1.83,0,0,0-.52-1.4,3,3,0,0,0-1.54-.67,6.93,6.93,0,0,0-2.18-.08,12.15,12.15,0,0,0-1.63.33Zm4.05,9.54a2.59,2.59,0,0,0,1.7-.12,2.18,2.18,0,0,0,.82-0.75V446.4l-0.71-.23a8.71,8.71,0,0,0-1-.24,4.87,4.87,0,0,0-.9-0.08,2.61,2.61,0,0,0-.8.12,1.23,1.23,0,0,0-.57.37,1,1,0,0,0-.21.66,1.62,1.62,0,0,0,.39,1.11A2.17,2.17,0,0,0,71.32,448.71Z"/><path d="M92.44,453.57a5.72,5.72,0,0,1-2.29.74,9.69,9.69,0,0,1-2.74-.09,8.68,8.68,0,0,1-2.75-.92,7.1,7.1,0,0,1-2-1.63,6.81,6.81,0,0,1-1.25-2.22,8.16,8.16,0,0,1-.43-2.67,6.19,6.19,0,0,1,.5-2.6,4.45,4.45,0,0,1,1.39-1.75,4.92,4.92,0,0,1,2.11-.88,7.82,7.82,0,0,1,2.65,0,10.76,10.76,0,0,1,2.5.73,13.81,13.81,0,0,1,1.79.9v4.22L89.26,447v-2.21a7.4,7.4,0,0,0-1.48-.42,4.31,4.31,0,0,0-1.32,0,2.59,2.59,0,0,0-2,1.42,3.34,3.34,0,0,0-.32,1.55,4.08,4.08,0,0,0,.26,1.46A4.18,4.18,0,0,0,86.32,451a4.77,4.77,0,0,0,1.56.54,5.3,5.3,0,0,0,2.23,0,7.36,7.36,0,0,0,1.3-.46Z"/><path d="M96.49,446l-2.36-.39V443l2.36,0.39v-2.74l3.1-.38v3.62l6.26,1v2.64l-6.26-1V450a4.67,4.67,0,0,0,.69,2.79,2.86,2.86,0,0,0,1.93,1.14,4,4,0,0,0,1.17,0,3.79,3.79,0,0,0,.94-0.25,4.35,4.35,0,0,0,.76-0.41l0.63-.43,1.43,2.39a3.67,3.67,0,0,1-1,.72,7.21,7.21,0,0,1-1.31.49,7.41,7.41,0,0,1-1.47.24,6.91,6.91,0,0,1-1.5-.07,6.1,6.1,0,0,1-4-2.15,7.93,7.93,0,0,1-1.35-5V446Z"/><path d="M108.89,451.36a6.87,6.87,0,0,1,.45-2.62,4.46,4.46,0,0,1,1.29-1.79,4.56,4.56,0,0,1,2-.93,7.33,7.33,0,0,1,2.59,0,8.29,8.29,0,0,1,2.69.86,6.83,6.83,0,0,1,2,1.58,6.54,6.54,0,0,1,1.23,2.19,8.24,8.24,0,0,1,.42,2.65,6.9,6.9,0,0,1-.45,2.62,4.5,4.5,0,0,1-1.29,1.8,4.55,4.55,0,0,1-2,.94,7.27,7.27,0,0,1-2.59,0,8.22,8.22,0,0,1-2.69-.87,6.84,6.84,0,0,1-2-1.59,6.58,6.58,0,0,1-1.23-2.19A8.27,8.27,0,0,1,108.89,451.36Zm3.2,0.49a5.1,5.1,0,0,0,.21,1.5,4.31,4.31,0,0,0,.62,1.27,3.51,3.51,0,0,0,1,.93,3.36,3.36,0,0,0,1.31.48,2.67,2.67,0,0,0,2.26-.55,3.41,3.41,0,0,0,.87-2.68,4.7,4.7,0,0,0-.81-2.8,3.32,3.32,0,0,0-2.32-1.37,3.55,3.55,0,0,0-1.24,0,2,2,0,0,0-1,.51,2.64,2.64,0,0,0-.66,1.05A4.86,4.86,0,0,0,112.09,451.85Z"/><path d="M123.33,456.9l3,0.43v-6.72l-3-.43v-2.64l5.38,0.78,0.36,1.64h0.1a5.16,5.16,0,0,1,1.53-1.1,3.5,3.5,0,0,1,2-.24A3.2,3.2,0,0,1,135,450a6.39,6.39,0,0,1,.83,3.64l-2.8-.39a2.64,2.64,0,0,0-.25-1.3,1,1,0,0,0-.8-0.51,2.15,2.15,0,0,0-1.54.26,3.91,3.91,0,0,0-1,1v5.11l5.19,0.73c0,1.06,0,1.58,0,2.64-4.51-.63-6.76-0.95-11.27-1.61V456.9Z"/><path d="M138.16,459l4.21,0.57v-6.72l-4.21-.57v-2.64l7.33,1V460l4.43,0.58v2.64c-4.71-.61-7.06-0.92-11.76-1.57V459Zm3.64-12.13a1.48,1.48,0,0,1,.55-1.2,1.92,1.92,0,0,1,1.53-.32,2.67,2.67,0,0,1,1.6.74,1.89,1.89,0,0,1,.6,1.35,1.35,1.35,0,0,1-.6,1.18,2.24,2.24,0,0,1-1.6.28,2.53,2.53,0,0,1-1.53-.7A1.85,1.85,0,0,1,141.8,446.87Z"/><path d="M153.27,452.46a11.91,11.91,0,0,1,2.22-.46,12.4,12.4,0,0,1,3,.06,7.12,7.12,0,0,1,2.12.56,4.2,4.2,0,0,1,1.41,1,3.78,3.78,0,0,1,.78,1.42,6.09,6.09,0,0,1,.24,1.76q0,1.22-.08,2.08t-0.08,1.53a10.52,10.52,0,0,0,0,1.13c0,0.22.06,0.45,0.07,0.66l1.56,0.19V465l-4-.49-0.31-1.67h-0.12a3.45,3.45,0,0,1-1.36,1.12,4.26,4.26,0,0,1-2.38.24,4.57,4.57,0,0,1-2.83-1.32,3.73,3.73,0,0,1-1-2.68,3.53,3.53,0,0,1,.37-1.69,2.57,2.57,0,0,1,1.07-1.06,4.52,4.52,0,0,1,1.69-.48,9.75,9.75,0,0,1,2.2,0q0.43,0.05.91,0.16l1.17,0.24a2.37,2.37,0,0,0,0-.47v-0.46a1.73,1.73,0,0,0-.52-1.37,2.83,2.83,0,0,0-1.55-.59,7,7,0,0,0-2.19,0A12.7,12.7,0,0,0,154,455Zm4.08,9.32a2.67,2.67,0,0,0,1.71-.21,2.36,2.36,0,0,0,.83-0.8v-1.44l-0.71-.2a8.54,8.54,0,0,0-1-.19,4.89,4.89,0,0,0-.9,0,2.71,2.71,0,0,0-.81.16,1.33,1.33,0,0,0-.57.4,1,1,0,0,0-.21.67,1.54,1.54,0,0,0,.39,1.09A2.06,2.06,0,0,0,157.35,461.78Z"/><path d="M167.58,448.61l5.11,0.6c0,4.44,0,6.65,0,11.09a5.49,5.49,0,0,0,.46,2.62,1.83,1.83,0,0,0,1.46.89,3.9,3.9,0,0,0,1.22,0,4.12,4.12,0,0,0,1-.34l1.18,2.29q-0.41.22-.82,0.4a4.67,4.67,0,0,1-.86.29,5.51,5.51,0,0,1-1,.13,7.84,7.84,0,0,1-1.21-.05A5.08,5.08,0,0,1,170.7,465a5,5,0,0,1-1.13-3.4V451.48l-2-.24v-2.64Z"/><path d="M190.81,473.09a12.29,12.29,0,0,1-3.27-1.4,11.15,11.15,0,0,1-2.81-2.44,11.69,11.69,0,0,1-2-3.48,13.16,13.16,0,0,1-.73-4.54,11.86,11.86,0,0,1,.73-4.37,9,9,0,0,1,2-3.09,8.37,8.37,0,0,1,2.81-1.88,11,11,0,0,1,3.27-.78l0.58,2.63a9.15,9.15,0,0,0-1.91.48,6,6,0,0,0-2,1.25,6.94,6.94,0,0,0-1.62,2.33,9.22,9.22,0,0,0-.66,3.77,9.4,9.4,0,0,0,.7,3.79,9.51,9.51,0,0,0,1.69,2.67,8.71,8.71,0,0,0,2.05,1.68,9.09,9.09,0,0,0,1.78.82Z"/><path d="M200,466.51a5.17,5.17,0,0,0,1.47,0,3.29,3.29,0,0,0,1.17-.44,2.23,2.23,0,0,0,.77-0.81,2.4,2.4,0,0,0,.28-1.17,2.7,2.7,0,0,0-1-2.18,5.8,5.8,0,0,0-3.13-1.06l-0.61,0-0.66,0-0.74-.05c0-3.51,0-5.27,0-8.78l8.7,0.85c0,1.17,0,1.76,0,2.93l-6-.58v3.24h0.38l0.32,0,0.28,0a7.41,7.41,0,0,1,2.23.57,5.77,5.77,0,0,1,1.8,1.22,5.4,5.4,0,0,1,1.19,1.81,5.89,5.89,0,0,1,.42,2.24,5.22,5.22,0,0,1-.53,2.43,4.49,4.49,0,0,1-1.44,1.65,5.79,5.79,0,0,1-2.11.89,8.36,8.36,0,0,1-2.57.12,6.66,6.66,0,0,1-1.13-.22q-0.6-.17-1.18-0.38a11.39,11.39,0,0,1-1.07-.46q-0.49-.24-0.83-0.44l1-2.39a8,8,0,0,0,1.26.66A5.86,5.86,0,0,0,200,466.51Z"/><path d="M211.59,472.52a7.58,7.58,0,0,0,1.78-.47,6.64,6.64,0,0,0,2.06-1.28,7.27,7.27,0,0,0,1.69-2.33,8.44,8.44,0,0,0,.7-3.66,10.19,10.19,0,0,0-.66-3.9,9.08,9.08,0,0,0-1.62-2.65,8,8,0,0,0-2-1.65,11,11,0,0,0-1.91-.86l0.58-2.52a13.1,13.1,0,0,1,3.27,1.43,11.1,11.1,0,0,1,2.81,2.43,11.69,11.69,0,0,1,2,3.47,13,13,0,0,1,.73,4.52,12,12,0,0,1-.73,4.4,9,9,0,0,1-2,3.09,8.43,8.43,0,0,1-2.81,1.89,10.37,10.37,0,0,1-3.27.76Z"/><path d="M376.58,477v-2.64l2.84,0V467.6l-2.87,0V465l2.87,0v-0.67a4.43,4.43,0,0,1,.4-1.95,4,4,0,0,1,1-1.35,4.36,4.36,0,0,1,1.51-.8,6.3,6.3,0,0,1,1.77-.27,11.3,11.3,0,0,1,2.74.24,6.91,6.91,0,0,1,1.77.66l-0.92,2.39a10.83,10.83,0,0,0-1.19-.46,5.23,5.23,0,0,0-1.65-.19,2.37,2.37,0,0,0-1.82.61,2.62,2.62,0,0,0-.52,1.77l5.06-.06v2.64l-5.06.07v6.72l5.09-.07v2.64C383.22,476.92,381,476.95,376.58,477Z"/><path d="M391.5,465.62a13.48,13.48,0,0,1,2.23-.78,12.85,12.85,0,0,1,3-.37,6.65,6.65,0,0,1,2.13.26,3.48,3.48,0,0,1,1.42.82,3.15,3.15,0,0,1,.78,1.3,5.73,5.73,0,0,1,.24,1.72q0,1.22-.08,2.09t-0.08,1.54a10.14,10.14,0,0,0,0,1.13c0,0.22.06,0.44,0.07,0.65l1.57,0v2.64l-4,.09L398.47,475h-0.12a4.27,4.27,0,0,1-1.37,1.31,4.64,4.64,0,0,1-2.4.59,4,4,0,0,1-2.85-.91,3.22,3.22,0,0,1-1.05-2.53,3.85,3.85,0,0,1,.37-1.75,3.19,3.19,0,0,1,1.08-1.22,5.25,5.25,0,0,1,1.7-.73,10.1,10.1,0,0,1,2.22-.27q0.43,0,.91,0l1.17,0.07a2.49,2.49,0,0,0,0-.48v-0.46a1.5,1.5,0,0,0-.53-1.3,2.53,2.53,0,0,0-1.56-.36,7.37,7.37,0,0,0-2.2.35,14.67,14.67,0,0,0-1.65.65Zm4.1,8.73a2.67,2.67,0,0,0,2.55-1.37v-1.44l-0.71-.09a8.24,8.24,0,0,0-1,0,5,5,0,0,0-.91.1,3,3,0,0,0-.81.28,1.64,1.64,0,0,0-.57.48,1.15,1.15,0,0,0-.21.7,1.34,1.34,0,0,0,.39,1A1.83,1.83,0,0,0,395.61,474.35Z"/><path d="M417,475a7.15,7.15,0,0,1-2.31,1.19,10.28,10.28,0,0,1-2.77.45,7.78,7.78,0,0,1-2.78-.38,5.47,5.47,0,0,1-2-1.23,5.26,5.26,0,0,1-1.27-2,7.34,7.34,0,0,1-.43-2.58,6.84,6.84,0,0,1,.51-2.7,5.86,5.86,0,0,1,1.41-2,6.29,6.29,0,0,1,2.13-1.29,8.4,8.4,0,0,1,2.68-.5,9.85,9.85,0,0,1,2.53.24,11.43,11.43,0,0,1,1.81.54V469l-2.65.08v-2.21a6.81,6.81,0,0,0-1.49-.12,4.61,4.61,0,0,0-1.34.24,3.39,3.39,0,0,0-1.18.68,3.52,3.52,0,0,0-.84,1.14,3.72,3.72,0,0,0-.33,1.62,3.65,3.65,0,0,0,.26,1.41,3.24,3.24,0,0,0,.75,1.11,3.29,3.29,0,0,0,1.19.72,4.26,4.26,0,0,0,1.58.23,5.75,5.75,0,0,0,2.25-.45,9.33,9.33,0,0,0,1.31-.71Z"/><path d="M421,466.68l-2.39.08v-2.64L421,464v-2.74l3.13-1v3.62l6.31-.24v2.64l-6.31.24V470a4,4,0,0,0,.7,2.65,2.33,2.33,0,0,0,2,.76,4.22,4.22,0,0,0,1.18-.2,4.63,4.63,0,0,0,1-.43,5.72,5.72,0,0,0,.77-0.56l0.64-.55,1.44,2.1a4.87,4.87,0,0,1-1,.92,9.15,9.15,0,0,1-1.33.75A8.62,8.62,0,0,1,428,476a7.21,7.21,0,0,1-1.52.23,5,5,0,0,1-4.06-1.35q-1.36-1.45-1.36-4.72v-3.43Z"/><path d="M433.55,469.56a7.54,7.54,0,0,1,.46-2.71,5.85,5.85,0,0,1,1.3-2,5.91,5.91,0,0,1,2-1.32,7.93,7.93,0,0,1,2.61-.54,7.43,7.43,0,0,1,2.71.33,5.25,5.25,0,0,1,2,1.19,5.05,5.05,0,0,1,1.24,1.94,7.45,7.45,0,0,1,.42,2.57,7.54,7.54,0,0,1-.46,2.71,5.79,5.79,0,0,1-3.31,3.39,7.86,7.86,0,0,1-2.61.54,7.38,7.38,0,0,1-2.71-.33,5.26,5.26,0,0,1-2-1.2,5.09,5.09,0,0,1-1.24-2A7.47,7.47,0,0,1,433.55,469.56Zm3.23-.14a4.66,4.66,0,0,0,.22,1.45,3.39,3.39,0,0,0,.63,1.15,2.65,2.65,0,0,0,1,.74,3,3,0,0,0,1.33.22,3.2,3.2,0,0,0,2.28-1,4.86,4.86,0,0,0,.06-5.49,2.7,2.7,0,0,0-2.34-.91,3.85,3.85,0,0,0-1.25.26,2.62,2.62,0,0,0-1,.7,3.41,3.41,0,0,0-.66,1.18A5.25,5.25,0,0,0,436.78,469.43Z"/><path d="M448.1,472.25l3-.15v-6.72l-3,.15v-2.64l5.42-.28,0.36,1.56H454a6.91,6.91,0,0,1,1.54-1.4,4,4,0,0,1,2-.64,2.59,2.59,0,0,1,2.28.93,5.56,5.56,0,0,1,.83,3.48l-2.82.16a2.34,2.34,0,0,0-.25-1.25,0.84,0.84,0,0,0-.81-0.35,2.51,2.51,0,0,0-1.55.57,5.23,5.23,0,0,0-1,1.16v5.11l5.23-.29v2.64c-4.54.26-6.8,0.38-11.34,0.62v-2.64Z"/><path d="M463,471.42l4.24-.26v-6.72l-4.24.26v-2.64l7.37-.46V471l4.45-.29v2.64c-4.73.32-7.09,0.47-11.82,0.75v-2.64Zm3.66-12.85a1.81,1.81,0,0,1,.55-1.31,2.28,2.28,0,0,1,1.54-.63,2.24,2.24,0,0,1,1.61.43,1.53,1.53,0,0,1,.6,1.23,1.67,1.67,0,0,1-.6,1.3,2.61,2.61,0,0,1-1.61.6,2.13,2.13,0,0,1-1.54-.4A1.51,1.51,0,0,1,466.69,458.58Z"/><path d="M478.22,461.9a14.16,14.16,0,0,1,2.23-.9,13.09,13.09,0,0,1,3-.53,6.52,6.52,0,0,1,2.13.14,3.25,3.25,0,0,1,1.42.75,2.94,2.94,0,0,1,.78,1.26,5.62,5.62,0,0,1,.24,1.71q0,1.22-.08,2.09T487.84,468a10.14,10.14,0,0,0,0,1.12c0,0.22.06,0.44,0.07,0.64l1.56-.12v2.64l-4,.3L485.17,471h-0.12a4.61,4.61,0,0,1-1.36,1.38,4.81,4.81,0,0,1-2.39.71,3.83,3.83,0,0,1-2.85-.76,3.06,3.06,0,0,1-1.05-2.47,4,4,0,0,1,.37-1.77,3.44,3.44,0,0,1,1.08-1.27,5.55,5.55,0,0,1,1.7-.82,10.29,10.29,0,0,1,2.21-.38,9.05,9.05,0,0,1,.91,0h1.17a2.54,2.54,0,0,0,0-.48v-0.46a1.43,1.43,0,0,0-.52-1.27,2.45,2.45,0,0,0-1.55-.28,7.55,7.55,0,0,0-2.2.47,15.46,15.46,0,0,0-1.65.74Zm4.1,8.52a3,3,0,0,0,1.71-.54,3.14,3.14,0,0,0,.83-1v-1.44l-0.71-.06a8.2,8.2,0,0,0-1,0,5.12,5.12,0,0,0-.9.15,3.21,3.21,0,0,0-.81.32,1.77,1.77,0,0,0-.57.51,1.2,1.2,0,0,0-.21.71,1.28,1.28,0,0,0,.39,1A1.76,1.76,0,0,0,482.31,470.42Z"/><path d="M492.58,455.23l5.12-.41c0,4.44,0,6.65,0,11.09a4.9,4.9,0,0,0,.46,2.53,1.48,1.48,0,0,0,1.47.6,4.19,4.19,0,0,0,1.23-.26,5.13,5.13,0,0,0,1-.52l1.18,2.06q-0.41.3-.82,0.56a5.74,5.74,0,0,1-.87.46,6.24,6.24,0,0,1-1,.32,8.17,8.17,0,0,1-1.21.18,4.25,4.25,0,0,1-3.39-.88,4.15,4.15,0,0,1-1.13-3.17V457.71l-2,.16C492.58,456.81,492.58,456.29,492.58,455.23Z"/><path d="M506.79,473.67c4.27-.37,6.4-0.56,10.67-1v2.57c-4.27.4-6.4,0.59-10.67,1v-2.57Z"/><path d="M519.34,452.93l4.85-.46c0,2.46,0,3.69,0,6.14h0.1a4.67,4.67,0,0,1,1.54-1.37,5.61,5.61,0,0,1,2.26-.68,5.48,5.48,0,0,1,1.68.07,2.81,2.81,0,0,1,1.32.66,3.28,3.28,0,0,1,.86,1.41,7.25,7.25,0,0,1,.31,2.31v7.46l-3.12.32V462a2.74,2.74,0,0,0-.62-2,2,2,0,0,0-1.63-.49,3,3,0,0,0-1.63.7,3.37,3.37,0,0,0-1.06,1.48v7.66l-3.12.3V455.41l-1.73.16v-2.64Z"/><path d="M546.57,465.67a5,5,0,0,1-.8.65,8.77,8.77,0,0,1-1.15.64,9.79,9.79,0,0,1-3.13.87,7.84,7.84,0,0,1-2.75-.14,4.65,4.65,0,0,1-3.34-2.9,7,7,0,0,1-.44-2.61,7.45,7.45,0,0,1,.5-2.82,6.4,6.4,0,0,1,1.38-2.12,6.66,6.66,0,0,1,2.05-1.4,8.5,8.5,0,0,1,2.54-.67,7.71,7.71,0,0,1,1.89,0,4.59,4.59,0,0,1,1.79.63,3.78,3.78,0,0,1,1.33,1.42,5,5,0,0,1,.52,2.44,11.81,11.81,0,0,1-.24,2.26l-8.64.93a2.56,2.56,0,0,0,.32,1.26,2.21,2.21,0,0,0,.79.78,3.09,3.09,0,0,0,1.13.37,5.56,5.56,0,0,0,1.36,0,7.43,7.43,0,0,0,2.36-.59,5.77,5.77,0,0,0,1.5-1Zm-5.18-8a4.24,4.24,0,0,0-1.18.3,3.75,3.75,0,0,0-1,.61,3.22,3.22,0,0,0-.73.9,2.77,2.77,0,0,0-.34,1.14L544,460a2.39,2.39,0,0,0-.66-1.82A2.42,2.42,0,0,0,541.38,457.67Z"/><path d="M550.24,449.73l5.11-.59v11.09a4.82,4.82,0,0,0,.46,2.52,1.42,1.42,0,0,0,1.46.55,4.27,4.27,0,0,0,1.22-.3,5.35,5.35,0,0,0,1-.56l1.18,2q-0.41.31-.82,0.59a6,6,0,0,1-.86.49,6.42,6.42,0,0,1-1,.36,8.28,8.28,0,0,1-1.21.23,4.13,4.13,0,0,1-3.38-.76,4,4,0,0,1-1.13-3.13V452.15l-2,.23v-2.64Z"/><path d="M562.54,453.1l4.08-.5L567,454h0.1a5.27,5.27,0,0,1,4-2.28,5.5,5.5,0,0,1,2,.09,3.34,3.34,0,0,1,1.58.89,4.37,4.37,0,0,1,1,1.74,8.55,8.55,0,0,1,.36,2.67,9.35,9.35,0,0,1-.41,2.82,6.92,6.92,0,0,1-1.17,2.25,6,6,0,0,1-1.87,1.56,7.1,7.1,0,0,1-2.52.77,9.69,9.69,0,0,1-1.46.07,3.68,3.68,0,0,1-1.2-.2v4.92l-3.12.38V455.52l-1.8.22V453.1Zm7.62,1.37a3.54,3.54,0,0,0-1.67.66,2.81,2.81,0,0,0-1,1.5v5a2.26,2.26,0,0,0,1,.3,5.2,5.2,0,0,0,1.28,0,3.64,3.64,0,0,0,1.25-.38,3,3,0,0,0,1-.86,4.14,4.14,0,0,0,.67-1.36,6.58,6.58,0,0,0,.24-1.88,3.2,3.2,0,0,0-.77-2.35A2.21,2.21,0,0,0,570.16,454.46Z"/><path d="M589.71,460.32a5.17,5.17,0,0,1-.8.67,9,9,0,0,1-1.15.67,10.06,10.06,0,0,1-1.45.58,9.91,9.91,0,0,1-1.68.37,7.78,7.78,0,0,1-2.74-.07,4.48,4.48,0,0,1-3.33-2.81,7,7,0,0,1-.44-2.59,7.57,7.57,0,0,1,.5-2.84,6.63,6.63,0,0,1,1.38-2.16,6.89,6.89,0,0,1,2-1.46,8.63,8.63,0,0,1,2.54-.73,7.67,7.67,0,0,1,1.88,0,4.47,4.47,0,0,1,1.78.59,3.63,3.63,0,0,1,1.33,1.39,4.92,4.92,0,0,1,.52,2.43,11.94,11.94,0,0,1-.24,2.27l-8.62,1.16a2.52,2.52,0,0,0,.32,1.25,2.12,2.12,0,0,0,.79.76,3,3,0,0,0,1.13.34,5.53,5.53,0,0,0,1.35,0,7.54,7.54,0,0,0,2.36-.65,6,6,0,0,0,1.5-1Zm-5.17-7.87a4.3,4.3,0,0,0-1.17.33,3.87,3.87,0,0,0-1,.63,3.34,3.34,0,0,0-.73.92,2.83,2.83,0,0,0-.34,1.14l5.89-.79a2.33,2.33,0,0,0-.66-1.81A2.37,2.37,0,0,0,584.54,452.46Z"/><path d="M592.22,458.61l3-.41v-6.72l-3,.41c0-1.06,0-1.58,0-2.64l5.38-.76L598,450h0.1a7.85,7.85,0,0,1,1.53-1.54,4.29,4.29,0,0,1,2-.82,2.37,2.37,0,0,1,2.26.73,5.26,5.26,0,0,1,.83,3.41l-2.8.41a2.22,2.22,0,0,0-.25-1.22,0.76,0.76,0,0,0-.8-0.28,2.72,2.72,0,0,0-1.54.7,5.94,5.94,0,0,0-1,1.25v5.11l5.19-.75v2.64c-4.51.66-6.76,1-11.27,1.6C592.22,460.19,592.22,459.66,592.22,458.61Z"/><path d="M616.52,462.78a9.89,9.89,0,0,1-3.25-.56,7.71,7.71,0,0,1-2.8-1.71,8.34,8.34,0,0,1-1.95-3,11.65,11.65,0,0,1-.73-4.36,13.48,13.48,0,0,1,.73-4.56,12.68,12.68,0,0,1,1.95-3.59,12.11,12.11,0,0,1,2.8-2.61,13.92,13.92,0,0,1,3.25-1.63l0.57,2.48a11.73,11.73,0,0,0-1.9,1,8.67,8.67,0,0,0-2,1.77,9.83,9.83,0,0,0-1.61,2.75,10.55,10.55,0,0,0-.66,3.94,8.19,8.19,0,0,0,.69,3.62,6.65,6.65,0,0,0,1.69,2.23,6.08,6.08,0,0,0,2,1.15,7.2,7.2,0,0,0,1.77.36Z"/><path d="M622.51,454.12l3.65-.58V443L623,446l-1.43-1.69,5.44-5,2.1-.34v14.16l3.58-.58v2.64c-4.08.67-6.12,1-10.2,1.64v-2.64Z"/><path d="M639.51,452.45a2,2,0,0,1,.54-1.39,2.33,2.33,0,0,1,1.35-.71,2,2,0,0,1,2,.53,2.93,2.93,0,0,1,.67,2,5.06,5.06,0,0,1-.42,2,6.58,6.58,0,0,1-1.08,1.72A7.54,7.54,0,0,1,641,458a7.25,7.25,0,0,1-1.63.83l-0.64-1.21a8.39,8.39,0,0,0,1.16-.6,6,6,0,0,0,1.06-.84,4.71,4.71,0,0,0,.8-1.06,3,3,0,0,0,.37-1.22,3.19,3.19,0,0,1-1.22.24,1.56,1.56,0,0,1-.82-0.24,1.24,1.24,0,0,1-.46-0.59A2.3,2.3,0,0,1,639.51,452.45Z"/><path d="M654.27,449a5.81,5.81,0,0,0,1.45-.45,4.53,4.53,0,0,0,1.16-.76,3.31,3.31,0,0,0,.76-1,2.88,2.88,0,0,0,.27-1.25,2,2,0,0,0-1-1.89,4.86,4.86,0,0,0-3.11-.2l-0.61.12-0.66.15-0.74.15v-8.78l8.62-1.54v2.93l-6,1.07v3.24l0.38-.09,0.32-.07,0.27-.06a6.63,6.63,0,0,1,2.22,0,4.07,4.07,0,0,1,1.79.72,3.66,3.66,0,0,1,1.18,1.48,5.08,5.08,0,0,1,.42,2.12,6.22,6.22,0,0,1-.52,2.58,6.66,6.66,0,0,1-1.43,2,8.1,8.1,0,0,1-2.1,1.47,9.53,9.53,0,0,1-2.55.83,6.27,6.27,0,0,1-1.12.09c-0.4,0-.79,0-1.17-0.06a9.18,9.18,0,0,1-1.06-.16,8.23,8.23,0,0,1-.82-0.22l1-2.67a6,6,0,0,0,1.25.31A5.24,5.24,0,0,0,654.27,449Z"/><path d="M665.77,451.82a9.88,9.88,0,0,0,1.76-1,9.75,9.75,0,0,0,2-1.84,10.62,10.62,0,0,0,1.68-2.8,9.88,9.88,0,0,0,.69-3.85,8.92,8.92,0,0,0-.65-3.72,6.2,6.2,0,0,0-1.61-2.21,5.4,5.4,0,0,0-2-1.09,8.63,8.63,0,0,0-1.89-.33l0.57-2.67a10.29,10.29,0,0,1,3.24.53,7.45,7.45,0,0,1,2.78,1.66,8.14,8.14,0,0,1,1.94,2.93,11.5,11.5,0,0,1,.72,4.31,13.79,13.79,0,0,1-.72,4.6,13,13,0,0,1-1.94,3.63,12.46,12.46,0,0,1-2.78,2.66,13.28,13.28,0,0,1-3.24,1.66Z"/><path d="M52.53,396.42v-2.64l2.81,0.53v-6.72l-2.83-.54v-2.64L55.34,385v-0.67a4,4,0,0,1,.39-1.87,3,3,0,0,1,1-1.15,3.45,3.45,0,0,1,1.49-.5,5.94,5.94,0,0,1,1.75.07,12.29,12.29,0,0,1,2.7.78,8.54,8.54,0,0,1,1.75,1l-0.9,2.21a13.35,13.35,0,0,0-1.18-.7,5.78,5.78,0,0,0-1.63-.52,2,2,0,0,0-1.8.25,2.25,2.25,0,0,0-.51,1.67l5,0.93v2.64l-5-.93v6.72l5,0.93v2.64C59.08,397.66,56.9,397.25,52.53,396.42Z"/><path d="M67.26,388a11.45,11.45,0,0,1,2.2-.35,12.34,12.34,0,0,1,3,.22,7.36,7.36,0,0,1,2.11.67,4.5,4.5,0,0,1,1.41,1.1,4,4,0,0,1,.77,1.46,6.26,6.26,0,0,1,.24,1.77q0,1.22-.08,2.07t-0.08,1.52a10.66,10.66,0,0,0,0,1.14c0,0.22.06,0.45,0.07,0.66l1.55,0.27v2.64l-4-.7-0.31-1.69-0.12,0a3.19,3.19,0,0,1-1.35,1,4.16,4.16,0,0,1-2.37.12,4.82,4.82,0,0,1-2.82-1.47,3.93,3.93,0,0,1-1-2.73,3.43,3.43,0,0,1,.37-1.67,2.38,2.38,0,0,1,1.07-1,4.32,4.32,0,0,1,1.68-.39,9.71,9.71,0,0,1,2.19.16q0.43,0.08.9,0.21l1.16,0.3a2.34,2.34,0,0,0,0-.47v-0.46a1.83,1.83,0,0,0-.52-1.4,3,3,0,0,0-1.54-.67,6.93,6.93,0,0,0-2.18-.08,12.15,12.15,0,0,0-1.63.33Zm4.05,9.54a2.59,2.59,0,0,0,1.7-.12,2.18,2.18,0,0,0,.82-0.75V395.2L73.13,395a8.71,8.71,0,0,0-1-.24,4.89,4.89,0,0,0-.9-0.08,2.61,2.61,0,0,0-.8.12,1.23,1.23,0,0,0-.57.37,1,1,0,0,0-.21.66,1.62,1.62,0,0,0,.39,1.11A2.17,2.17,0,0,0,71.32,397.52Z"/><path d="M92.44,402.38a5.73,5.73,0,0,1-2.29.74A9.69,9.69,0,0,1,87.4,403a8.68,8.68,0,0,1-2.75-.92,7.1,7.1,0,0,1-2-1.63,6.81,6.81,0,0,1-1.25-2.22,8.16,8.16,0,0,1-.43-2.67,6.2,6.2,0,0,1,.5-2.6,4.45,4.45,0,0,1,1.39-1.75,4.91,4.91,0,0,1,2.11-.88,7.82,7.82,0,0,1,2.65,0,10.77,10.77,0,0,1,2.5.73,13.82,13.82,0,0,1,1.79.9v4.22l-2.62-.44v-2.21a7.4,7.4,0,0,0-1.48-.42,4.3,4.3,0,0,0-1.32,0,2.59,2.59,0,0,0-2,1.42,3.34,3.34,0,0,0-.32,1.55,4.08,4.08,0,0,0,.26,1.46,4.18,4.18,0,0,0,1.92,2.21,4.77,4.77,0,0,0,1.56.54,5.3,5.3,0,0,0,2.23,0,7.36,7.36,0,0,0,1.3-.46Z"/><path d="M96.49,394.83l-2.36-.39v-2.64l2.36,0.39v-2.74l3.1-.38v3.62l6.26,1v2.64l-6.26-1v3.43a4.67,4.67,0,0,0,.69,2.79,2.86,2.86,0,0,0,1.93,1.14,4,4,0,0,0,1.17,0,3.79,3.79,0,0,0,.94-0.25,4.35,4.35,0,0,0,.76-0.41l0.63-.43,1.43,2.38a3.66,3.66,0,0,1-1,.72,7.2,7.2,0,0,1-1.31.49,7.42,7.42,0,0,1-1.47.24,6.91,6.91,0,0,1-1.5-.07,6.1,6.1,0,0,1-4-2.15,7.93,7.93,0,0,1-1.35-5v-3.43Z"/><path d="M108.89,400.17a6.87,6.87,0,0,1,.45-2.62,4.46,4.46,0,0,1,1.29-1.79,4.56,4.56,0,0,1,2-.93,7.32,7.32,0,0,1,2.59,0,8.29,8.29,0,0,1,2.69.86,6.83,6.83,0,0,1,2,1.58,6.54,6.54,0,0,1,1.23,2.19,8.24,8.24,0,0,1,.42,2.65,6.9,6.9,0,0,1-.45,2.62,4.5,4.5,0,0,1-1.29,1.8,4.55,4.55,0,0,1-2,.94,7.27,7.27,0,0,1-2.59,0,8.23,8.23,0,0,1-2.69-.87,6.84,6.84,0,0,1-2-1.59,6.58,6.58,0,0,1-1.23-2.19A8.27,8.27,0,0,1,108.89,400.17Zm3.2,0.49a5.1,5.1,0,0,0,.21,1.5,4.31,4.31,0,0,0,.62,1.27,3.51,3.51,0,0,0,1,.93,3.36,3.36,0,0,0,1.31.48,2.67,2.67,0,0,0,2.26-.55,3.41,3.41,0,0,0,.87-2.68,4.7,4.7,0,0,0-.81-2.8,3.32,3.32,0,0,0-2.32-1.37,3.55,3.55,0,0,0-1.24,0,2,2,0,0,0-1,.51,2.64,2.64,0,0,0-.66,1.05A4.86,4.86,0,0,0,112.09,400.66Z"/><path d="M123.33,405.7l3,0.43v-6.72l-3-.43v-2.64l5.38,0.78,0.36,1.64h0.1a5.16,5.16,0,0,1,1.53-1.1,3.5,3.5,0,0,1,2-.24A3.2,3.2,0,0,1,135,398.8a6.39,6.39,0,0,1,.83,3.64L133,402a2.64,2.64,0,0,0-.25-1.3,1,1,0,0,0-.8-0.51,2.15,2.15,0,0,0-1.54.26,3.91,3.91,0,0,0-1,1v5.11l5.19,0.73V410c-4.51-.63-6.76-0.95-11.27-1.61V405.7Z"/><path d="M138.16,407.81l4.21,0.57v-6.72l-4.21-.57v-2.64l7.33,1v9.36l4.43,0.58V412c-4.71-.61-7.06-0.92-11.76-1.57v-2.64Zm3.64-12.13a1.48,1.48,0,0,1,.55-1.2,1.92,1.92,0,0,1,1.53-.32,2.67,2.67,0,0,1,1.6.74,1.89,1.89,0,0,1,.6,1.35,1.35,1.35,0,0,1-.6,1.18,2.24,2.24,0,0,1-1.6.28,2.53,2.53,0,0,1-1.53-.7A1.85,1.85,0,0,1,141.8,395.68Z"/><path d="M153.27,401.26a11.92,11.92,0,0,1,2.22-.46,12.41,12.41,0,0,1,3,.06,7.12,7.12,0,0,1,2.12.56,4.2,4.2,0,0,1,1.41,1,3.79,3.79,0,0,1,.78,1.42,6.09,6.09,0,0,1,.24,1.76q0,1.22-.08,2.08t-0.08,1.53a10.52,10.52,0,0,0,0,1.13c0,0.22.06,0.45,0.07,0.66l1.56,0.19v2.64l-4-.49-0.31-1.67h-0.12a3.45,3.45,0,0,1-1.36,1.12,4.26,4.26,0,0,1-2.38.24,4.57,4.57,0,0,1-2.83-1.32,3.73,3.73,0,0,1-1-2.68,3.53,3.53,0,0,1,.37-1.69,2.58,2.58,0,0,1,1.07-1.06,4.54,4.54,0,0,1,1.69-.48,9.75,9.75,0,0,1,2.2,0q0.43,0.05.91,0.16l1.17,0.24a2.37,2.37,0,0,0,0-.47v-0.46a1.73,1.73,0,0,0-.52-1.37,2.83,2.83,0,0,0-1.55-.59,7,7,0,0,0-2.19,0,12.72,12.72,0,0,0-1.64.42Zm4.08,9.32a2.67,2.67,0,0,0,1.71-.21,2.36,2.36,0,0,0,.83-0.8v-1.44l-0.71-.2a8.54,8.54,0,0,0-1-.19,4.89,4.89,0,0,0-.9,0,2.71,2.71,0,0,0-.81.16,1.33,1.33,0,0,0-.57.4,1,1,0,0,0-.21.67,1.54,1.54,0,0,0,.39,1.09A2.06,2.06,0,0,0,157.35,410.59Z"/><path d="M167.58,397.41l5.11,0.6V409.1a5.49,5.49,0,0,0,.46,2.62,1.83,1.83,0,0,0,1.46.89,3.9,3.9,0,0,0,1.22,0,4.12,4.12,0,0,0,1-.34l1.18,2.29q-0.41.22-.82,0.4a4.64,4.64,0,0,1-.86.29,5.5,5.5,0,0,1-1,.13,7.91,7.91,0,0,1-1.21-.05,5.08,5.08,0,0,1-3.38-1.54,5,5,0,0,1-1.13-3.4V400.29l-2-.24v-2.64Z"/><path d="M181.76,418.64c4.26,0.47,6.39.7,10.66,1.14,0,1,0,1.54,0,2.57-4.26-.44-6.4-0.67-10.66-1.14v-2.57Z"/><path d="M194.29,400.37l4.85,0.49V407h0.1a3.53,3.53,0,0,1,1.54-1.07,5,5,0,0,1,2.26-.23,5.94,5.94,0,0,1,1.68.4A3.62,3.62,0,0,1,206,407a4.21,4.21,0,0,1,.87,1.58,7.86,7.86,0,0,1,.31,2.37v7.46l-3.12-.3v-6.82a3.21,3.21,0,0,0-.62-2.17,2.4,2.4,0,0,0-1.63-.81,2.53,2.53,0,0,0-1.63.38,2.56,2.56,0,0,0-1.06,1.28v7.66l-3.12-.31V403.19l-1.73-.18v-2.64Z"/><path d="M221.54,418.46a3.75,3.75,0,0,1-.81.5,7,7,0,0,1-1.15.42,8.46,8.46,0,0,1-1.45.26,9.29,9.29,0,0,1-1.68,0,8.57,8.57,0,0,1-2.75-.68,6.13,6.13,0,0,1-3.34-3.56,7.73,7.73,0,0,1-.44-2.69,6.71,6.71,0,0,1,.5-2.73,4.87,4.87,0,0,1,1.38-1.85,5.18,5.18,0,0,1,2.05-1,7.76,7.76,0,0,1,2.55-.17,8.25,8.25,0,0,1,1.89.41,5.72,5.72,0,0,1,1.79,1,5,5,0,0,1,1.33,1.69,5.63,5.63,0,0,1,.52,2.54,11.13,11.13,0,0,1-.24,2.21L213,414a2.83,2.83,0,0,0,1.12,2.26,3.8,3.8,0,0,0,1.13.59,5.89,5.89,0,0,0,1.36.28A6.81,6.81,0,0,0,219,417a4.51,4.51,0,0,0,1.5-.68Zm-5.19-9a3.88,3.88,0,0,0-1.18.07,3,3,0,0,0-1,.41,2.4,2.4,0,0,0-.73.75,2.34,2.34,0,0,0-.34,1.07l5.91,0.53a2.86,2.86,0,0,0-.66-2A2.89,2.89,0,0,0,216.35,409.44Z"/><path d="M225.22,403.25l5.12,0.42v11.09a5.36,5.36,0,0,0,.46,2.61,1.76,1.76,0,0,0,1.47.84,4,4,0,0,0,1.23-.06,4.3,4.3,0,0,0,1-.37l1.18,2.25q-0.41.23-.82,0.43a4.85,4.85,0,0,1-.87.32,5.66,5.66,0,0,1-1,.16,7.89,7.89,0,0,1-1.21,0,4.91,4.91,0,0,1-3.39-1.43,4.8,4.8,0,0,1-1.13-3.36V406.05l-2-.17v-2.64Z"/><path d="M237.55,409l4.09,0.31,0.36,1.47h0.1a4.29,4.29,0,0,1,4-1.48,6,6,0,0,1,2,.49,4.37,4.37,0,0,1,1.59,1.2,5.6,5.6,0,0,1,1,1.94,9.21,9.21,0,0,1,.36,2.74,8.55,8.55,0,0,1-.41,2.74,5.4,5.4,0,0,1-1.18,2,4.59,4.59,0,0,1-1.88,1.19,6.36,6.36,0,0,1-2.53.28,10.11,10.11,0,0,1-1.47-.21,4.3,4.3,0,0,1-1.2-.44v4.92l-3.13-.23c0-5.66,0-8.5,0-14.16l-1.8-.14V409Zm7.65,2.87a3,3,0,0,0-1.67.34,2.14,2.14,0,0,0-1,1.29v5a2.79,2.79,0,0,0,1,.49,5.54,5.54,0,0,0,1.29.25,3.26,3.26,0,0,0,1.25-.14,2.32,2.32,0,0,0,1-.66,3.25,3.25,0,0,0,.67-1.23,6.07,6.07,0,0,0,.24-1.83,3.77,3.77,0,0,0-.77-2.5A2.7,2.7,0,0,0,245.2,411.9Z"/><path d="M264.84,421.62a3.92,3.92,0,0,1-.81.52,7.24,7.24,0,0,1-1.15.45,8.59,8.59,0,0,1-1.46.3,9.29,9.29,0,0,1-1.69,0,8.44,8.44,0,0,1-2.76-.61,5.91,5.91,0,0,1-3.35-3.47,7.64,7.64,0,0,1-.44-2.68,6.8,6.8,0,0,1,.51-2.74,5.06,5.06,0,0,1,1.38-1.89,5.35,5.35,0,0,1,2.06-1.05,7.83,7.83,0,0,1,2.55-.23,8.16,8.16,0,0,1,1.89.36,5.55,5.55,0,0,1,1.79.94,4.85,4.85,0,0,1,1.34,1.65,5.52,5.52,0,0,1,.52,2.53,11.17,11.17,0,0,1-.24,2.22l-8.67-.54a2.88,2.88,0,0,0,.32,1.32,2.83,2.83,0,0,0,.79.92,3.71,3.71,0,0,0,1.13.56,5.85,5.85,0,0,0,1.36.24,6.87,6.87,0,0,0,2.37-.19,4.66,4.66,0,0,0,1.5-.72Zm-5.2-8.89a3.93,3.93,0,0,0-1.18.1,3.06,3.06,0,0,0-1,.44,2.5,2.5,0,0,0-.73.77,2.4,2.4,0,0,0-.34,1.08l5.92,0.37a2.78,2.78,0,0,0-.66-1.94A2.82,2.82,0,0,0,259.64,412.73Z"/><path d="M267.37,420.4l3,0.17v-6.72l-3-.17V411l5.42,0.31,0.36,1.6h0.1a5.89,5.89,0,0,1,1.54-1.24,3.69,3.69,0,0,1,2-.42,2.9,2.9,0,0,1,2.28,1.17,6,6,0,0,1,.83,3.57l-2.82-.14a2.49,2.49,0,0,0-.25-1.27,0.94,0.94,0,0,0-.81-0.44,2.29,2.29,0,0,0-1.55.4,4.46,4.46,0,0,0-1,1.05v5.11l5.23,0.28v2.64c-4.54-.23-6.81-0.36-11.34-0.62V420.4Z"/><path d="M291.84,429.37a11.6,11.6,0,0,1-3.28-1.2,10.21,10.21,0,0,1-2.82-2.27,10.8,10.8,0,0,1-2-3.36A12.74,12.74,0,0,1,283,418a12.19,12.19,0,0,1,.73-4.42,9.83,9.83,0,0,1,2-3.21,9.15,9.15,0,0,1,2.82-2.05,11.53,11.53,0,0,1,3.28-1l0.58,2.59a9.67,9.67,0,0,0-1.92.6,6.58,6.58,0,0,0-2,1.37,7.54,7.54,0,0,0-1.63,2.43,9.49,9.49,0,0,0-.66,3.81,9.07,9.07,0,0,0,.7,3.75,8.76,8.76,0,0,0,1.7,2.56,8,8,0,0,0,2.06,1.56,8.57,8.57,0,0,0,1.78.71Z"/><path d="M297.88,421.89l3.69,0.14V411.54l-3.18,2.3-1.44-2,5.49-4,2.12,0.08c0,5.66,0,8.5,0,14.16l3.61,0.12v2.64c-4.12-.14-6.17-0.21-10.29-0.38v-2.64Z"/><path d="M315,423.59a1.6,1.6,0,0,1,.54-1.28,1.93,1.93,0,0,1,1.36-.44,2.45,2.45,0,0,1,2,.92,3.45,3.45,0,0,1,.67,2.15,4.46,4.46,0,0,1-.42,2,5,5,0,0,1-1.1,1.51,5.72,5.72,0,0,1-1.51,1,6,6,0,0,1-1.65.5l-0.65-1.34a6.87,6.87,0,0,0,1.17-.37,4.55,4.55,0,0,0,1.07-.63,3.55,3.55,0,0,0,.81-0.9,2.49,2.49,0,0,0,.37-1.14,3.08,3.08,0,0,1-1.23,0,1.93,1.93,0,0,1-.83-0.41,1.64,1.64,0,0,1-.47-0.69A2.51,2.51,0,0,1,315,423.59Z"/><path d="M330,423.07a5.27,5.27,0,0,0,1.47-.16,3.59,3.59,0,0,0,1.17-.53,2.44,2.44,0,0,0,1-2.07,2.47,2.47,0,0,0-1-2.1,5.47,5.47,0,0,0-3.15-.82h-0.61l-0.66,0h-0.75v-8.78l8.73,0.17v2.93l-6-.11v3.24l0.39,0h0.6a7.1,7.1,0,0,1,2.24.39,5.21,5.21,0,0,1,1.81,1.08,4.84,4.84,0,0,1,1.19,1.71,5.62,5.62,0,0,1,.42,2.2,5.47,5.47,0,0,1-.53,2.48,5,5,0,0,1-1.45,1.76,6.35,6.35,0,0,1-2.12,1.05,8.59,8.59,0,0,1-2.58.32,6.47,6.47,0,0,1-1.13-.13q-0.6-.12-1.18-0.29a10.57,10.57,0,0,1-1.07-.37q-0.49-.2-0.83-0.38l1-2.47a7.39,7.39,0,0,0,1.27.56A5.62,5.62,0,0,0,330,423.07Z"/><path d="M341.6,428.16a8.12,8.12,0,0,0,1.78-.61,7.41,7.41,0,0,0,2.06-1.44,8.12,8.12,0,0,0,1.7-2.47,8.79,8.79,0,0,0,.7-3.71,9.76,9.76,0,0,0-.66-3.85,8.15,8.15,0,0,0-1.63-2.52,7.13,7.13,0,0,0-2-1.49,10.21,10.21,0,0,0-1.92-.71l0.58-2.56a12.12,12.12,0,0,1,3.28,1.17,9.92,9.92,0,0,1,2.82,2.21,10.56,10.56,0,0,1,2,3.32,13.89,13.89,0,0,1,0,8.92,10,10,0,0,1-2,3.25,9.43,9.43,0,0,1-2.82,2.11,11,11,0,0,1-3.28,1Z"/><path d="M534.68,414.38l3-.31v-6.72l-3,.31V405l5.4-.57,0.36,1.55h0.1a7.46,7.46,0,0,1,1.54-1.49,4.17,4.17,0,0,1,2-.75,2.45,2.45,0,0,1,2.27.81,5.38,5.38,0,0,1,.83,3.44l-2.81.31a2.27,2.27,0,0,0-.25-1.23,0.79,0.79,0,0,0-.8-0.31,2.63,2.63,0,0,0-1.55.65,5.65,5.65,0,0,0-1,1.21v5.11l5.21-.57v2.64c-4.52.5-6.78,0.74-11.31,1.21v-2.64Z"/><path d="M561,412.82a5,5,0,0,1-.8.66,8.86,8.86,0,0,1-1.15.65,9.85,9.85,0,0,1-3.13.9,7.82,7.82,0,0,1-2.75-.11,4.6,4.6,0,0,1-3.34-2.87,7,7,0,0,1-.44-2.6,7.49,7.49,0,0,1,.5-2.83,6.48,6.48,0,0,1,1.38-2.14,6.73,6.73,0,0,1,2.05-1.42,8.54,8.54,0,0,1,2.54-.69,7.69,7.69,0,0,1,1.88,0,4.55,4.55,0,0,1,1.79.62,3.73,3.73,0,0,1,1.33,1.41,5,5,0,0,1,.52,2.43,11.86,11.86,0,0,1-.24,2.26l-8.63,1a2.54,2.54,0,0,0,.32,1.26,2.18,2.18,0,0,0,.79.77,3.06,3.06,0,0,0,1.13.36,5.55,5.55,0,0,0,1.35,0,7.46,7.46,0,0,0,2.36-.61,5.83,5.83,0,0,0,1.5-1Zm-5.18-8a4.26,4.26,0,0,0-1.18.31,3.79,3.79,0,0,0-1,.62,3.26,3.26,0,0,0-.73.9,2.79,2.79,0,0,0-.34,1.14l5.9-.69a2.37,2.37,0,0,0-.66-1.82A2.4,2.4,0,0,0,555.78,404.86Z"/><path d="M575.63,411.12a8,8,0,0,1-2.3,1.41,10.78,10.78,0,0,1-2.76.72,7.5,7.5,0,0,1-2.77-.11,4.82,4.82,0,0,1-2-1,4.62,4.62,0,0,1-1.26-1.85,7,7,0,0,1-.43-2.54,7.24,7.24,0,0,1,.5-2.75,6.69,6.69,0,0,1,1.4-2.16,7.14,7.14,0,0,1,2.12-1.5,8.86,8.86,0,0,1,2.66-.75,9.61,9.61,0,0,1,2.52,0,10.54,10.54,0,0,1,1.8.37v4.22l-2.64.34v-2.21a6.66,6.66,0,0,0-1.49,0,4.85,4.85,0,0,0-1.33.37,3.83,3.83,0,0,0-1.17.79,4,4,0,0,0-.84,1.22,4,4,0,0,0-.32,1.65,3.48,3.48,0,0,0,.26,1.38,2.84,2.84,0,0,0,.74,1,2.89,2.89,0,0,0,1.19.61,4.1,4.1,0,0,0,1.57.08,6.09,6.09,0,0,0,2.24-.67,10.51,10.51,0,0,0,1.31-.84Z"/><path d="M584.82,399.06l4.45-.6v9.36l1.82-.25v2.64l-3.78.52-0.55-1.7h-0.1a5.16,5.16,0,0,1-1.65,1.74,5.61,5.61,0,0,1-2.44.93,5.29,5.29,0,0,1-1.66,0,2.54,2.54,0,0,1-1.28-.62,3.11,3.11,0,0,1-.81-1.38,7.74,7.74,0,0,1-.29-2.31v-4.82l-1.37.18c0-1.06,0-1.58,0-2.64l4.48-.59v6.82a3.38,3.38,0,0,0,.47,2,1.5,1.5,0,0,0,1.47.45,3,3,0,0,0,1.59-.74,3.41,3.41,0,0,0,1-1.43v-5.11l-1.34.18v-2.64Z"/><path d="M592.22,407.41l3-.41v-6.72l-3,.41v-2.64l5.38-.76,0.36,1.53h0.1a7.85,7.85,0,0,1,1.53-1.54,4.29,4.29,0,0,1,2-.82,2.37,2.37,0,0,1,2.26.73,5.26,5.26,0,0,1,.83,3.41l-2.8.41a2.22,2.22,0,0,0-.25-1.22,0.76,0.76,0,0,0-.8-0.28,2.72,2.72,0,0,0-1.54.7,5.94,5.94,0,0,0-1,1.25c0,2,0,3.07,0,5.11l5.19-.75v2.64c-4.51.66-6.76,1-11.27,1.6v-2.64Z"/><path d="M616.52,411.58a9.89,9.89,0,0,1-3.25-.56,7.71,7.71,0,0,1-2.8-1.71,8.33,8.33,0,0,1-1.95-3,11.65,11.65,0,0,1-.73-4.36,13.48,13.48,0,0,1,.73-4.56,12.68,12.68,0,0,1,1.95-3.59,12.11,12.11,0,0,1,2.8-2.61,13.92,13.92,0,0,1,3.25-1.63l0.57,2.48a11.74,11.74,0,0,0-1.9,1,8.67,8.67,0,0,0-2,1.77,9.83,9.83,0,0,0-1.61,2.75,10.55,10.55,0,0,0-.66,3.94,8.19,8.19,0,0,0,.69,3.62,6.65,6.65,0,0,0,1.69,2.23,6.09,6.09,0,0,0,2,1.15,7.19,7.19,0,0,0,1.77.36Z"/><path d="M625.64,402.64a5.74,5.74,0,0,0,1.46-.43,4.43,4.43,0,0,0,1.16-.74,3.24,3.24,0,0,0,.76-1,2.84,2.84,0,0,0,.27-1.24,2,2,0,0,0-1-1.91,4.9,4.9,0,0,0-3.12-.26l-0.61.11-0.66.14-0.74.14c0-3.51,0-5.27,0-8.78l8.64-1.39v2.93l-6,1v3.24l0.38-.09,0.32-.06,0.27-.06a6.66,6.66,0,0,1,2.22,0,4.16,4.16,0,0,1,1.79.75,3.76,3.76,0,0,1,1.18,1.5,5.13,5.13,0,0,1,.42,2.13,6.14,6.14,0,0,1-.53,2.57,6.5,6.5,0,0,1-1.43,2,7.92,7.92,0,0,1-2.1,1.43,9.42,9.42,0,0,1-2.56.78,6.28,6.28,0,0,1-1.12.07c-0.4,0-.79,0-1.17-0.08a9.24,9.24,0,0,1-1.06-.18,8.42,8.42,0,0,1-.82-0.23l1-2.65a6.15,6.15,0,0,0,1.25.33A5.25,5.25,0,0,0,625.64,402.64Z"/><path d="M639.51,401.25a2,2,0,0,1,.54-1.39,2.33,2.33,0,0,1,1.35-.71,2,2,0,0,1,2,.53,2.93,2.93,0,0,1,.67,2,5.06,5.06,0,0,1-.42,2,6.59,6.59,0,0,1-1.08,1.72,7.54,7.54,0,0,1-1.49,1.31,7.25,7.25,0,0,1-1.63.83l-0.64-1.21a8.4,8.4,0,0,0,1.16-.6A6,6,0,0,0,641,405a4.72,4.72,0,0,0,.8-1.06,3,3,0,0,0,.37-1.22,3.19,3.19,0,0,1-1.22.24,1.56,1.56,0,0,1-.82-0.24,1.24,1.24,0,0,1-.46-0.59A2.3,2.3,0,0,1,639.51,401.25Z"/><path d="M662.37,394.1l-2.86.52v4.68l-2.88.52v-4.68l-7.22,1.28v-2.14L657,382.84l2.55-.46c0,3.9,0,5.85,0,9.74l2.86-.52v2.5Zm-5.74-6.79-4.15,6.07,4.15-.74v-5.33Z"/><path d="M665.77,400.62a9.88,9.88,0,0,0,1.76-1,9.74,9.74,0,0,0,2-1.84,10.62,10.62,0,0,0,1.68-2.8,9.89,9.89,0,0,0,.69-3.85,8.92,8.92,0,0,0-.65-3.72,6.21,6.21,0,0,0-1.61-2.21,5.4,5.4,0,0,0-2-1.09,8.62,8.62,0,0,0-1.89-.33l0.57-2.67a10.29,10.29,0,0,1,3.24.53,7.46,7.46,0,0,1,2.78,1.66,8.14,8.14,0,0,1,1.94,2.93,11.51,11.51,0,0,1,.72,4.31,13.79,13.79,0,0,1-.72,4.6,13,13,0,0,1-1.94,3.63,12.46,12.46,0,0,1-2.78,2.66,13.27,13.27,0,0,1-3.24,1.66Z"/></svg>