<svg id="Layer_1" data-name="Layer 1" xmlns="http://www.w3.org/2000/svg" viewBox="0 0 720 576"><defs><style>.cls-1,.cls-2,.cls-4,.cls-6{fill:#231f20;}.cls-1,.cls-3{stroke:#231f20;}.cls-1,.cls-6{stroke-miterlimit:10;}.cls-2{stroke:#000;}.cls-2,.cls-3{stroke-linecap:round;stroke-linejoin:round;stroke-width:2px;}.cls-3,.cls-5{fill:#fff;}.cls-6{stroke:#fff;}</style></defs><title>Hanoi_Tower_Set_3</title><path class="cls-1" d="M659.89,529.72c0-.14,0-0.29,0-0.43s0-.29,0-0.43V477.06H68.06s-0.23,51.74-.23,52.22c0,2.67,2.12,5.24,6.08,7.71,13.87,8.61,50.58,16.11,101.74,21.48s116.73,8.59,188.22,8.59c81.71,0,155.68-4.21,209.24-11,26.78-3.41,48.45-7.46,63.44-12,7.5-2.25,13.32-4.62,17.29-7.08,3.38-2.1,5.41-4.29,5.94-6.55h0.1v-0.73Z"/><ellipse class="cls-2" cx="363.88" cy="478.15" rx="295.87" ry="37.63"/><path class="cls-3" d="M659.89,478.24c0-.14,0-0.29,0-0.43s0-.29,0-0.43V425.59H68.06s-0.23,51.74-.23,52.22c0,2.67,2.12,5.24,6.08,7.71,13.87,8.61,50.58,16.11,101.74,21.48s116.73,8.59,188.22,8.59c81.71,0,155.68-4.21,209.24-11,26.78-3.41,48.45-7.46,63.44-12,7.5-2.25,13.32-4.62,17.29-7.08,3.38-2.1,5.41-4.29,5.94-6.55h0.1v-0.73Z"/><ellipse class="cls-3" cx="363.88" cy="426.67" rx="295.87" ry="37.63"/><path class="cls-3" d="M659.89,426.76c0-.14,0-0.29,0-0.43s0-.29,0-0.43V374.11H68.06s-0.23,51.74-.23,52.22c0,2.67,2.12,5.24,6.08,7.71,13.87,8.61,50.58,16.11,101.74,21.48s116.73,8.59,188.22,8.59c81.71,0,155.68-4.21,209.24-11,26.78-3.41,48.45-7.46,63.44-12,7.5-2.25,13.32-4.62,17.29-7.08,3.38-2.1,5.41-4.29,5.94-6.55h0.1v-0.73Z"/><ellipse class="cls-3" cx="363.88" cy="375.19" rx="295.87" ry="37.63"/><path class="cls-3" d="M659.89,375.28c0-.14,0-0.29,0-0.43s0-.29,0-0.43V322.63H68.06s-0.23,51.74-.23,52.22c0,2.67,2.12,5.24,6.08,7.71,13.87,8.61,50.58,16.11,101.74,21.48s116.73,8.59,188.22,8.59c81.71,0,155.68-4.21,209.24-11,26.78-3.41,48.45-7.46,63.44-12,7.5-2.25,13.32-4.62,17.29-7.08,3.38-2.1,5.41-4.29,5.94-6.55h0.1v-0.73Z"/><ellipse class="cls-3" cx="363.88" cy="323.72" rx="295.87" ry="37.63"/><path class="cls-3" d="M659.89,325.28c0-.14,0-0.29,0-0.43s0-.29,0-0.43V272.63H68.06s-0.23,51.74-.23,52.22c0,2.67,2.12,5.24,6.08,7.71,13.87,8.61,50.58,16.11,101.74,21.48s116.73,8.59,188.22,8.59c81.71,0,155.68-4.21,209.24-11,26.78-3.41,48.45-7.46,63.44-12,7.5-2.25,13.32-4.62,17.29-7.08,3.38-2.1,5.41-4.29,5.94-6.55h0.1v-0.73Z"/><ellipse class="cls-3" cx="363.88" cy="273.72" rx="295.87" ry="37.63"/><path class="cls-4" d="M363.87,283.05c-16,0-29-3.75-30.2-8.61h-0.08l0-.5V31.5H394.2V274.44h-0.12C392.85,279.3,379.85,283.05,363.87,283.05Z"/><path class="cls-5" d="M393.7,32V273.94h0c-0.49,4.78-13.63,8.61-29.79,8.61s-29.3-3.83-29.79-8.61h0v-0.21s0,0,0-.06,0,0,0-.06V32H393.7m1-1H333.07V273.56s0,0.07,0,.11v1.27h0.23c2,5.6,16.84,8.61,30.58,8.61s28.6-3,30.58-8.61h0.21l0-1V31h0Z"/><ellipse class="cls-6" cx="363.87" cy="32.11" rx="29.81" ry="8.89"/><path d="M77.51,471.39v-2.2l2.34,0.37c0-2.24,0-3.36,0-5.6l-2.37-.37v-2.2l2.37,0.37V461.2a3.37,3.37,0,0,1,.33-1.57,2.6,2.6,0,0,1,.86-1,3,3,0,0,1,1.24-.46,5,5,0,0,1,1.46,0,10,10,0,0,1,2.26.58,6.86,6.86,0,0,1,1.46.79l-0.76,1.86a10.78,10.78,0,0,0-1-.55,4.73,4.73,0,0,0-1.36-.39,1.72,1.72,0,0,0-1.5.26,1.92,1.92,0,0,0-.43,1.4l4.18,0.64V465l-4.18-.64c0,2.24,0,3.36,0,5.6l4.2,0.65v2.2Z"/><path d="M89.82,464a9.8,9.8,0,0,1,1.84-.34,10.26,10.26,0,0,1,2.48.11,6,6,0,0,1,1.76.51,3.61,3.61,0,0,1,1.17.88,3.26,3.26,0,0,1,.65,1.2,5.15,5.15,0,0,1,.2,1.47q0,1-.07,1.73c0,0.47-.07.9-0.07,1.27a8.81,8.81,0,0,0,0,.95c0,0.19,0,.37.06,0.55l1.29,0.19v2.2l-3.34-.49-0.26-1.4h-0.1a2.76,2.76,0,0,1-1.13.9,3.5,3.5,0,0,1-2,.15A3.89,3.89,0,0,1,90,472.69a3.18,3.18,0,0,1-.87-2.25,2.92,2.92,0,0,1,.31-1.4,2.07,2.07,0,0,1,.89-0.87,3.68,3.68,0,0,1,1.4-.37,8,8,0,0,1,1.83.08q0.36,0.05.75,0.15l1,0.22a2,2,0,0,0,0-.39v-0.38a1.48,1.48,0,0,0-.43-1.16,2.41,2.41,0,0,0-1.28-.52,5.78,5.78,0,0,0-1.82,0,10.24,10.24,0,0,0-1.36.31Zm3.39,7.85a2.19,2.19,0,0,0,1.42-.14,1.89,1.89,0,0,0,.69-0.65v-1.2l-0.59-.18a7.21,7.21,0,0,0-.85-0.18,4,4,0,0,0-.75,0,2.21,2.21,0,0,0-.67.12,1.07,1.07,0,0,0-.47.32,0.84,0.84,0,0,0-.18.55,1.31,1.31,0,0,0,.32.92A1.75,1.75,0,0,0,93.2,471.83Z"/><path d="M110.84,475.4a4.9,4.9,0,0,1-1.91.66,8.09,8.09,0,0,1-2.29,0,7.11,7.11,0,0,1-2.3-.71,5.73,5.73,0,0,1-1.69-1.31,5.48,5.48,0,0,1-1-1.82,6.69,6.69,0,0,1-.36-2.21,5.23,5.23,0,0,1,.42-2.18,3.85,3.85,0,0,1,1.16-1.49,4.22,4.22,0,0,1,1.76-.78,6.51,6.51,0,0,1,2.21,0,8.78,8.78,0,0,1,2.09.56,11.12,11.12,0,0,1,1.49.71c0,1.41,0,2.11,0,3.52l-2.19-.31v-1.84a6,6,0,0,0-1.23-.32,3.59,3.59,0,0,0-1.1,0,2.24,2.24,0,0,0-1.67,1.23,2.83,2.83,0,0,0-.27,1.3,3.35,3.35,0,0,0,.22,1.21,3.36,3.36,0,0,0,1.6,1.8,3.91,3.91,0,0,0,1.3.42,4.45,4.45,0,0,0,1.86-.06,6.33,6.33,0,0,0,1.09-.41Z"/><path d="M114.22,469l-2-.27v-2.2l2,0.27v-2.28l2.59-.38c0,1.21,0,1.81,0,3l5.22,0.7v2.2l-5.22-.7c0,1.14,0,1.72,0,2.86a3.82,3.82,0,0,0,.58,2.31,2.32,2.32,0,0,0,1.61.91,3.32,3.32,0,0,0,1,0,3.2,3.2,0,0,0,.79-0.22,3.69,3.69,0,0,0,.64-0.35l0.53-.37,1.2,2a3.15,3.15,0,0,1-.85.62,6.23,6.23,0,0,1-2.32.66,5.7,5.7,0,0,1-1.26,0,4.94,4.94,0,0,1-3.36-1.71,6.48,6.48,0,0,1-1.13-4.13V469Z"/><path d="M124.57,473.22a5.78,5.78,0,0,1,.38-2.19,3.84,3.84,0,0,1,1.08-1.52,3.9,3.9,0,0,1,1.66-.81,6.11,6.11,0,0,1,2.16-.07,6.79,6.79,0,0,1,2.24.67,5.54,5.54,0,0,1,1.67,1.28,5.31,5.31,0,0,1,1,1.8,6.82,6.82,0,0,1,.35,2.2,5.81,5.81,0,0,1-.38,2.19,3.77,3.77,0,0,1-2.74,2.34,6.07,6.07,0,0,1-2.16.07,6.75,6.75,0,0,1-2.24-.67,5.55,5.55,0,0,1-1.66-1.29,5.32,5.32,0,0,1-1-1.8A6.81,6.81,0,0,1,124.57,473.22Zm2.67,0.35a4.2,4.2,0,0,0,.18,1.24,3.49,3.49,0,0,0,.52,1,2.82,2.82,0,0,0,.82.76,2.74,2.74,0,0,0,1.1.37,2.26,2.26,0,0,0,1.88-.5,2.9,2.9,0,0,0,.73-2.25,3.85,3.85,0,0,0-.68-2.32,2.7,2.7,0,0,0-1.93-1.1,3,3,0,0,0-1,0,1.72,1.72,0,0,0-.83.44,2.28,2.28,0,0,0-.55.89A4.09,4.09,0,0,0,127.24,473.57Z"/><path d="M136.61,477.57l2.47,0.31c0-2.24,0-3.36,0-5.6l-2.47-.31c0-.88,0-1.32,0-2.2l4.49,0.56,0.3,1.36h0.08a4.42,4.42,0,0,1,1.28-.94,2.94,2.94,0,0,1,1.68-.24,2.6,2.6,0,0,1,1.89,1.11,5.25,5.25,0,0,1,.69,3l-2.34-.28a2.16,2.16,0,0,0-.21-1.08,0.84,0.84,0,0,0-.67-0.41,1.81,1.81,0,0,0-1.29.24,3.36,3.36,0,0,0-.83.82c0,1.7,0,2.56,0,4.26l4.33,0.52c0,0.88,0,1.32,0,2.2l-9.4-1.15C136.61,478.89,136.61,478.45,136.61,477.57Z"/><path d="M149,479.07l3.51,0.41v-5.6l-3.51-.41v-2.2l6.11,0.71c0,3.12,0,4.68,0,7.8l3.69,0.42v2.2c-3.92-.44-5.88-0.67-9.8-1.13v-2.2Zm3-10.16a1.26,1.26,0,0,1,.46-1,1.62,1.62,0,0,1,1.28-.29,2.19,2.19,0,0,1,1.34.59,1.55,1.55,0,0,1,.5,1.12,1.15,1.15,0,0,1-.5,1,1.88,1.88,0,0,1-1.34.26,2.07,2.07,0,0,1-1.28-.56A1.51,1.51,0,0,1,152,468.91Z"/><path d="M161.58,473.4a10.1,10.1,0,0,1,1.85-.42,10.31,10.31,0,0,1,2.49,0,5.86,5.86,0,0,1,1.77.44,3.42,3.42,0,0,1,1.18.84,3.1,3.1,0,0,1,.65,1.17,5.05,5.05,0,0,1,.2,1.46q0,1-.07,1.73c0,0.47-.07.9-0.07,1.27a8.72,8.72,0,0,0,0,.94c0,0.19,0,.37.06,0.55l1.3,0.14v2.2l-3.35-.36L167.35,482h-0.1a2.93,2.93,0,0,1-1.13.95,3.57,3.57,0,0,1-2,.23,3.74,3.74,0,0,1-2.36-1.06,3.06,3.06,0,0,1-.87-2.22,3,3,0,0,1,.31-1.42,2.19,2.19,0,0,1,.89-0.9,3.83,3.83,0,0,1,1.41-.42,8.08,8.08,0,0,1,1.84,0q0.36,0,.75.12l1,0.19a2,2,0,0,0,0-.4v-0.38a1.43,1.43,0,0,0-.44-1.14,2.33,2.33,0,0,0-1.29-.47,5.84,5.84,0,0,0-1.82.06,10.63,10.63,0,0,0-1.37.37Zm3.4,7.71a2.24,2.24,0,0,0,1.42-.19,2,2,0,0,0,.69-0.68V479l-0.59-.15a7.07,7.07,0,0,0-.85-0.14,4,4,0,0,0-.75,0,2.28,2.28,0,0,0-.67.15,1.13,1.13,0,0,0-.47.34,0.86,0.86,0,0,0-.18.56,1.26,1.26,0,0,0,.33.91A1.69,1.69,0,0,0,165,481.11Z"/><path d="M173.5,470l4.26,0.44c0,3.7,0,5.54,0,9.24a4.54,4.54,0,0,0,.38,2.18,1.5,1.5,0,0,0,1.22.72,3.27,3.27,0,0,0,1,0,3.5,3.5,0,0,0,.8-0.29l1,1.9-0.68.34a4,4,0,0,1-.72.25,4.61,4.61,0,0,1-.83.12,6.51,6.51,0,0,1-1,0,4.17,4.17,0,0,1-2.82-1.25,4.09,4.09,0,0,1-.94-2.82c0-3.36,0-5,0-8.4l-1.66-.17V470Z"/><path d="M192.85,490.16a10.15,10.15,0,0,1-2.72-1.14,9.14,9.14,0,0,1-2.34-2,9.58,9.58,0,0,1-1.63-2.88,10.91,10.91,0,0,1-.61-3.78,9.94,9.94,0,0,1,.61-3.65,7.64,7.64,0,0,1,1.63-2.59,7.08,7.08,0,0,1,2.34-1.59,9.17,9.17,0,0,1,2.72-.68l0.48,2.18a7.73,7.73,0,0,0-1.59.42,5.09,5.09,0,0,0-1.69,1.06,5.89,5.89,0,0,0-1.35,2,8.07,8.07,0,0,0,1.44,8.51,7.15,7.15,0,0,0,1.71,1.38,7.51,7.51,0,0,0,1.48.67Z"/><path d="M200.71,484.72a4,4,0,0,0,1.21-.06,2.58,2.58,0,0,0,.94-0.39,2,2,0,0,0,.61-0.66,1.73,1.73,0,0,0,.22-0.87,2,2,0,0,0-.25-1,2.05,2.05,0,0,0-.69-0.71,3.61,3.61,0,0,0-1.06-.43,8.76,8.76,0,0,0-1.34-.22l-1.12-.1v-1.44l3.36-3.8-5.06-.45c0-.88,0-1.32,0-2.2l8.16,0.73v1.82l-3.52,3.71,0.46,0A4.18,4.18,0,0,1,204,479a3.83,3.83,0,0,1,1.17.82,4,4,0,0,1,.82,1.27,4.36,4.36,0,0,1,.31,1.69,3.87,3.87,0,0,1-.47,2,4,4,0,0,1-1.24,1.34,4.81,4.81,0,0,1-1.77.72,7.15,7.15,0,0,1-2.06.11,10.59,10.59,0,0,1-1.8-.32,9.41,9.41,0,0,1-1.74-.66l0.7-2.1a3,3,0,0,0,.49.24l0.7,0.26a8.13,8.13,0,0,0,.8.23A5.84,5.84,0,0,0,200.71,484.72Z"/><path d="M210.15,489.52a6.35,6.35,0,0,0,1.48-.41,5.58,5.58,0,0,0,1.71-1.08,6.12,6.12,0,0,0,1.41-2,7.06,7.06,0,0,0,.58-3.05,8.47,8.47,0,0,0-.55-3.24,7.49,7.49,0,0,0-1.35-2.2,6.55,6.55,0,0,0-1.69-1.36,9.16,9.16,0,0,0-1.59-.7l0.48-2.1a10.78,10.78,0,0,1,2.72,1.17,9.14,9.14,0,0,1,2.34,2,9.64,9.64,0,0,1,1.63,2.88,10.83,10.83,0,0,1,.61,3.76,10,10,0,0,1-.61,3.67,7.59,7.59,0,0,1-1.63,2.59,7.1,7.1,0,0,1-2.34,1.59,8.71,8.71,0,0,1-2.72.65Z"/><path d="M401.63,493.54c0-.88,0-1.32,0-2.2l2.37-.05c0-2.24,0-3.36,0-5.6l-2.39.05c0-.88,0-1.32,0-2.2l2.39-.05v-0.56a3.7,3.7,0,0,1,.33-1.63,3.35,3.35,0,0,1,.87-1.14,3.68,3.68,0,0,1,1.25-.68,5.26,5.26,0,0,1,1.47-.24,9.33,9.33,0,0,1,2.28.17,5.7,5.7,0,0,1,1.47.53l-0.76,2a9,9,0,0,0-1-.38,4.34,4.34,0,0,0-1.37-.15A2,2,0,0,0,407,482a2.21,2.21,0,0,0-.43,1.48l4.21-.1c0,0.88,0,1.32,0,2.2l-4.21.1v5.6l4.23-.1c0,0.88,0,1.32,0,2.2Z"/><path d="M414,483.92a11.43,11.43,0,0,1,1.86-.67,10.71,10.71,0,0,1,2.5-.33,5.49,5.49,0,0,1,1.78.2,2.85,2.85,0,0,1,1.18.67,2.6,2.6,0,0,1,.65,1.08,4.76,4.76,0,0,1,.2,1.43c0,0.68,0,1.26-.07,1.74s-0.07.91-.07,1.28a8.65,8.65,0,0,0,0,.94c0,0.18,0,.37.06,0.54l1.3,0c0,0.88,0,1.32,0,2.2l-3.37.11-0.26-1.35h-0.1a3.6,3.6,0,0,1-1.14,1.1,3.88,3.88,0,0,1-2,.51,3.3,3.3,0,0,1-2.37-.73,2.66,2.66,0,0,1-.88-2.1,3.23,3.23,0,0,1,.31-1.46,2.7,2.7,0,0,1,.9-1,4.41,4.41,0,0,1,1.42-.62,8.35,8.35,0,0,1,1.84-.24q0.36,0,.76,0l1,0.05a2.14,2.14,0,0,0,0-.4v-0.38a1.24,1.24,0,0,0-.44-1.08,2.09,2.09,0,0,0-1.29-.29,6.14,6.14,0,0,0-1.83.31,12.1,12.1,0,0,0-1.37.56Zm3.41,7.24a2.24,2.24,0,0,0,2.12-1.16c0-.48,0-0.72,0-1.2l-0.6-.07a6.85,6.85,0,0,0-.85,0,4.14,4.14,0,0,0-.75.09,2.57,2.57,0,0,0-.67.24,1.38,1.38,0,0,0-.48.4,1,1,0,0,0-.18.59,1.11,1.11,0,0,0,.33.86A1.51,1.51,0,0,0,417.46,491.17Z"/><path d="M435.22,491.58a6,6,0,0,1-1.92,1,8.57,8.57,0,0,1-2.31.4,6.44,6.44,0,0,1-2.32-.3,4.51,4.51,0,0,1-1.7-1,4.34,4.34,0,0,1-1.05-1.63,6.12,6.12,0,0,1-.36-2.15,5.73,5.73,0,0,1,.42-2.25,5,5,0,0,1,1.17-1.7,5.3,5.3,0,0,1,1.77-1.09,7,7,0,0,1,2.23-.43,8.13,8.13,0,0,1,2.11.18,9.41,9.41,0,0,1,1.5.44c0,1.41,0,2.11,0,3.52l-2.21.08V484.8a5.58,5.58,0,0,0-1.24-.09,3.83,3.83,0,0,0-1.11.21,2.85,2.85,0,0,0-1,.58,3,3,0,0,0-.7,1,3.11,3.11,0,0,0-.27,1.35,3,3,0,0,0,.22,1.17,2.68,2.68,0,0,0,.62.92,2.71,2.71,0,0,0,1,.59,3.53,3.53,0,0,0,1.31.18,4.81,4.81,0,0,0,1.87-.39,7.73,7.73,0,0,0,1.09-.6Z"/><path d="M438.63,484.6l-2,.08c0-.88,0-1.32,0-2.2l2-.08c0-.91,0-1.37,0-2.28l2.61-.85v3l5.25-.23c0,0.88,0,1.32,0,2.2l-5.25.23v2.86a3.34,3.34,0,0,0,.58,2.21,1.92,1.92,0,0,0,1.62.62,3.54,3.54,0,0,0,1-.17,3.85,3.85,0,0,0,.79-0.37,4.75,4.75,0,0,0,.64-0.47l0.53-.46,1.2,1.75a4.11,4.11,0,0,1-.85.77,7.64,7.64,0,0,1-1.1.63,7.15,7.15,0,0,1-1.23.44,6,6,0,0,1-1.26.2,4.16,4.16,0,0,1-3.38-1.11,5.61,5.61,0,0,1-1.13-3.92C438.63,486.32,438.63,485.75,438.63,484.6Z"/><path d="M449,486.95a6.29,6.29,0,0,1,.38-2.26,4.82,4.82,0,0,1,2.76-2.82,6.58,6.58,0,0,1,2.17-.46,6.17,6.17,0,0,1,2.25.27,4.36,4.36,0,0,1,1.67,1,4.2,4.2,0,0,1,1,1.62,6.22,6.22,0,0,1,.35,2.14,6.32,6.32,0,0,1-.38,2.26,4.84,4.84,0,0,1-2.76,2.83,6.54,6.54,0,0,1-2.17.46,6.13,6.13,0,0,1-2.25-.27,4.37,4.37,0,0,1-1.67-1,4.22,4.22,0,0,1-1-1.62A6.23,6.23,0,0,1,449,486.95Zm2.69-.13a3.9,3.9,0,0,0,.18,1.21,2.82,2.82,0,0,0,.52,1,2.2,2.2,0,0,0,.82.61,2.46,2.46,0,0,0,1.1.18,2.68,2.68,0,0,0,1.89-.83,3.36,3.36,0,0,0,.73-2.38,3.32,3.32,0,0,0-.68-2.2,2.24,2.24,0,0,0-1.94-.75,3.2,3.2,0,0,0-1,.22,2.19,2.19,0,0,0-.83.59,2.86,2.86,0,0,0-.55,1A4.39,4.39,0,0,0,451.72,486.82Z"/><path d="M461.14,489.14l2.48-.13v-5.6l-2.48.13c0-.88,0-1.32,0-2.2l4.51-.25,0.3,1.3H466a5.75,5.75,0,0,1,1.28-1.17,3.32,3.32,0,0,1,1.68-.54,2.15,2.15,0,0,1,1.89.77,4.64,4.64,0,0,1,.69,2.9l-2.34.14a2,2,0,0,0-.21-1,0.7,0.7,0,0,0-.67-0.29,2.09,2.09,0,0,0-1.29.47,4.36,4.36,0,0,0-.83,1v4.26l4.35-.25c0,0.88,0,1.32,0,2.2l-9.44.53C461.14,490.46,461.14,490,461.14,489.14Z"/><path d="M473.56,488.44l3.53-.21v-5.6l-3.53.21c0-.88,0-1.32,0-2.2l6.13-.38c0,3.12,0,4.68,0,7.8l3.71-.24c0,0.88,0,1.32,0,2.2-3.93.26-5.9,0.38-9.84,0.62C473.56,489.76,473.56,489.32,473.56,488.44Zm3-10.7a1.51,1.51,0,0,1,.46-1.09,1.89,1.89,0,0,1,1.28-.52,1.87,1.87,0,0,1,1.34.35,1.27,1.27,0,0,1,.5,1,1.39,1.39,0,0,1-.5,1.08,2.17,2.17,0,0,1-1.34.49,1.77,1.77,0,0,1-1.28-.33A1.26,1.26,0,0,1,476.61,477.74Z"/><path d="M486.2,480.52a11.86,11.86,0,0,1,1.85-.75,10.88,10.88,0,0,1,2.49-.43,5.41,5.41,0,0,1,1.77.13,2.71,2.71,0,0,1,1.18.63,2.47,2.47,0,0,1,.65,1.05,4.69,4.69,0,0,1,.2,1.43q0,1-.07,1.75c0,0.48-.07.91-0.07,1.29a8.6,8.6,0,0,0,0,.94c0,0.18,0,.36.06,0.54l1.3-.09c0,0.88,0,1.32,0,2.2l-3.36.24L492,488.08h-0.1a3.81,3.81,0,0,1-1.13,1.15,4,4,0,0,1-2,.59,3.19,3.19,0,0,1-2.37-.64,2.56,2.56,0,0,1-.88-2.06,3.31,3.31,0,0,1,.31-1.47,2.86,2.86,0,0,1,.9-1.06,4.61,4.61,0,0,1,1.41-.68,8.47,8.47,0,0,1,1.84-.32q0.36,0,.76,0h1a2.17,2.17,0,0,0,0-.4v-0.38a1.2,1.2,0,0,0-.44-1.06,2,2,0,0,0-1.29-.24,6.26,6.26,0,0,0-1.83.39,12.61,12.61,0,0,0-1.37.61Zm3.41,7.11a2.53,2.53,0,0,0,1.43-.45,2.62,2.62,0,0,0,.69-0.8v-1.2l-0.59,0a6.82,6.82,0,0,0-.85,0,4.2,4.2,0,0,0-.75.12,2.66,2.66,0,0,0-.67.27,1.46,1.46,0,0,0-.48.42,1,1,0,0,0-.18.59,1.07,1.07,0,0,0,.33.85A1.46,1.46,0,0,0,489.61,487.63Z"/><path d="M498.16,475l4.26-.32c0,3.7,0,5.54,0,9.24a4.11,4.11,0,0,0,.38,2.11,1.23,1.23,0,0,0,1.22.51,3.48,3.48,0,0,0,1-.21,4.28,4.28,0,0,0,.8-0.43l1,1.72-0.68.46a4.79,4.79,0,0,1-.72.38,5.19,5.19,0,0,1-.83.26,6.74,6.74,0,0,1-1,.15,3.56,3.56,0,0,1-2.82-.75,3.48,3.48,0,0,1-.94-2.65c0-3.36,0-5,0-8.4l-1.66.12V475Z"/><path d="M510,490.43l8.89-.73c0,0.86,0,1.28,0,2.14l-8.89.73C510,491.71,510,491.29,510,490.43Z"/><path d="M520.43,473.22l4-.35c0,2,0,3.07,0,5.12h0.08a3.84,3.84,0,0,1,1.28-1.13,4.63,4.63,0,0,1,1.88-.55,4.57,4.57,0,0,1,1.4.07,2.37,2.37,0,0,1,1.1.56,2.77,2.77,0,0,1,.72,1.18,6.09,6.09,0,0,1,.26,1.93c0,2.49,0,3.73,0,6.22l-2.6.24c0-2.27,0-3.41,0-5.68a2.3,2.3,0,0,0-.52-1.71,1.67,1.67,0,0,0-1.36-.42,2.47,2.47,0,0,0-1.36.57,2.77,2.77,0,0,0-.88,1.23c0,2.55,0,3.83,0,6.38l-2.6.23c0-4.72,0-7.08,0-11.8l-1.44.12C520.43,474.54,520.43,474.1,520.43,473.22Z"/><path d="M543.11,484.08a4.1,4.1,0,0,1-.67.54,7.33,7.33,0,0,1-1,.52,8.12,8.12,0,0,1-2.61.69,6.55,6.55,0,0,1-2.29-.14,3.93,3.93,0,0,1-2.78-2.45,5.88,5.88,0,0,1-.37-2.18,6.17,6.17,0,0,1,.42-2.35A5.25,5.25,0,0,1,535,477a5.44,5.44,0,0,1,1.71-1.15,7,7,0,0,1,2.12-.53,6.42,6.42,0,0,1,1.57,0,3.86,3.86,0,0,1,1.49.55,3.2,3.2,0,0,1,1.11,1.2,4.21,4.21,0,0,1,.43,2,9.8,9.8,0,0,1-.2,1.88l-7.2.69a2.16,2.16,0,0,0,.27,1.05,1.86,1.86,0,0,0,.66.66,2.59,2.59,0,0,0,.94.32,4.62,4.62,0,0,0,1.13,0,6.16,6.16,0,0,0,2-.47,4.73,4.73,0,0,0,1.25-.8Zm-4.32-6.72a3.49,3.49,0,0,0-1,.24,3.1,3.1,0,0,0-.83.5,2.61,2.61,0,0,0-.61.74,2.28,2.28,0,0,0-.28.94l4.92-.47A1.78,1.78,0,0,0,538.79,477.35Z"/><path d="M546.17,470.83l4.26-.43c0,3.7,0,5.54,0,9.24a4.06,4.06,0,0,0,.38,2.1,1.2,1.2,0,0,0,1.22.48,3.53,3.53,0,0,0,1-.24,4.4,4.4,0,0,0,.8-0.45l1,1.7-0.68.48a4.94,4.94,0,0,1-.72.39,5.3,5.3,0,0,1-.83.29,6.78,6.78,0,0,1-1,.17,3.48,3.48,0,0,1-2.82-.67,3.4,3.4,0,0,1-.94-2.63c0-3.36,0-5,0-8.4l-1.66.17C546.17,472.15,546.17,471.71,546.17,470.83Z"/><path d="M556.42,473.78l3.4-.36,0.3,1.17h0.08a4.31,4.31,0,0,1,3.35-1.85,4.58,4.58,0,0,1,1.69.1,2.85,2.85,0,0,1,1.32.76,3.72,3.72,0,0,1,.85,1.47,7.16,7.16,0,0,1,.3,2.23,7.72,7.72,0,0,1-.34,2.35,5.65,5.65,0,0,1-1,1.86,4.92,4.92,0,0,1-1.56,1.27,5.85,5.85,0,0,1-2.1.61,8.1,8.1,0,0,1-1.22,0,3.13,3.13,0,0,1-1-.18c0,1.64,0,2.46,0,4.1l-2.6.28c0-4.72,0-7.08,0-11.8l-1.5.16C556.42,475.1,556.42,474.66,556.42,473.78Zm6.35,1.24a2.9,2.9,0,0,0-1.39.53,2.29,2.29,0,0,0-.87,1.23v4.16a1.91,1.91,0,0,0,.81.26,4.35,4.35,0,0,0,1.07,0,3,3,0,0,0,1-.3,2.49,2.49,0,0,0,.84-0.7,3.4,3.4,0,0,0,.56-1.12,5.45,5.45,0,0,0,.2-1.56,2.71,2.71,0,0,0-.64-2A1.87,1.87,0,0,0,562.77,475Z"/><path d="M579.06,480.18a4.21,4.21,0,0,1-.67.55,7.4,7.4,0,0,1-1,.54,8.22,8.22,0,0,1-2.6.74,6.51,6.51,0,0,1-2.29-.1,3.82,3.82,0,0,1-2.78-2.39,5.83,5.83,0,0,1-.37-2.17,6.24,6.24,0,0,1,.42-2.36,5.4,5.4,0,0,1,1.15-1.78,5.58,5.58,0,0,1,1.71-1.19,7.09,7.09,0,0,1,2.12-.57,6.41,6.41,0,0,1,1.57,0,3.79,3.79,0,0,1,1.49.52,3.11,3.11,0,0,1,1.11,1.18,4.16,4.16,0,0,1,.43,2,9.87,9.87,0,0,1-.2,1.88l-7.19.84a2.13,2.13,0,0,0,.27,1,1.8,1.8,0,0,0,.66.64,2.54,2.54,0,0,0,.94.3,4.6,4.6,0,0,0,1.13,0,6.23,6.23,0,0,0,2-.51,4.85,4.85,0,0,0,1.25-.83Zm-4.31-6.64a3.53,3.53,0,0,0-1,.26,3.19,3.19,0,0,0-.83.51,2.69,2.69,0,0,0-.61.75,2.32,2.32,0,0,0-.28.95l4.91-.57a2,2,0,0,0-.55-1.51A2,2,0,0,0,574.75,473.54Z"/><path d="M581.16,478.79l2.47-.3c0-2.24,0-3.36,0-5.6l-2.47.3c0-.88,0-1.32,0-2.2l4.49-.54,0.3,1.28H586a6.33,6.33,0,0,1,1.28-1.26,3.5,3.5,0,0,1,1.68-.65,2,2,0,0,1,1.88.65,4.44,4.44,0,0,1,.69,2.85l-2.33.29a1.88,1.88,0,0,0-.21-1,0.65,0.65,0,0,0-.67-0.25,2.21,2.21,0,0,0-1.29.56,4.8,4.8,0,0,0-.83,1v4.26l4.33-.53v2.2l-9.4,1.15C581.16,480.11,581.16,479.67,581.16,478.79Z"/><path d="M601.42,482.69a8.4,8.4,0,0,1-2.71-.53,6.64,6.64,0,0,1-2.33-1.48,7.15,7.15,0,0,1-1.62-2.51,9.8,9.8,0,0,1-.61-3.64,11.1,11.1,0,0,1,.61-3.79,10.25,10.25,0,0,1,1.62-3,9.76,9.76,0,0,1,2.33-2.12,11.3,11.3,0,0,1,2.71-1.29l0.48,2.08a9.56,9.56,0,0,0-1.58.78,7,7,0,0,0-1.69,1.44,8,8,0,0,0-1.35,2.26,8.7,8.7,0,0,0-.55,3.27,6.91,6.91,0,0,0,.58,3,5.74,5.74,0,0,0,1.4,1.89,5.23,5.23,0,0,0,1.7,1,6.11,6.11,0,0,0,1.48.34Z"/><path d="M606.43,475.59l3-.41c0-3.5,0-5.24,0-8.74l-2.63,2.37-1.2-1.44,4.54-4.09,1.75-.24c0,4.72,0,7.08,0,11.8l3-.41c0,0.88,0,1.32,0,2.2l-8.51,1.16v-2.2Z"/><path d="M620.61,474.56a1.58,1.58,0,0,1,.45-1.14,1.89,1.89,0,0,1,1.13-.56,1.72,1.72,0,0,1,1.65.48,2.5,2.5,0,0,1,.56,1.7,4.14,4.14,0,0,1-.35,1.69,5.27,5.27,0,0,1-.91,1.41,6,6,0,0,1-1.24,1.06,5.87,5.87,0,0,1-1.36.65l-0.54-1a6.65,6.65,0,0,0,1-.48,4.69,4.69,0,0,0,.89-0.68,3.78,3.78,0,0,0,.67-0.86,2.4,2.4,0,0,0,.31-1,2.61,2.61,0,0,1-1,.17,1.32,1.32,0,0,1-.69-0.22,1.08,1.08,0,0,1-.39-0.51A1.94,1.94,0,0,1,620.61,474.56Z"/><path d="M633.15,472.1a4.46,4.46,0,0,0,1.2-.35,3.46,3.46,0,0,0,.94-0.62,2.86,2.86,0,0,0,.61-0.81,2,2,0,0,0,.22-0.92,1.71,1.71,0,0,0-.25-1,1.45,1.45,0,0,0-.69-0.54,3,3,0,0,0-1.05-.18,8.42,8.42,0,0,0-1.33.1l-1.11.17v-1.44l3.34-4.6-5,.75c0-.88,0-1.32,0-2.2l8.12-1.21c0,0.73,0,1.09,0,1.82l-3.5,4.55,0.46-.07a3.74,3.74,0,0,1,1.35,0,2.8,2.8,0,0,1,1.16.54,2.88,2.88,0,0,1,.82,1.08,3.86,3.86,0,0,1,.31,1.61,4.56,4.56,0,0,1-.47,2.07,5.68,5.68,0,0,1-1.23,1.64,6.38,6.38,0,0,1-1.76,1.14,7.94,7.94,0,0,1-2,.6,10.06,10.06,0,0,1-1.79.11,7.85,7.85,0,0,1-1.73-.25l0.7-2.26a2.37,2.37,0,0,0,.49.13l0.7,0.1a7.13,7.13,0,0,0,.8,0A5.57,5.57,0,0,0,633.15,472.1Z"/><path d="M642.54,474.66a8,8,0,0,0,1.47-.76,7.78,7.78,0,0,0,1.7-1.48,8.47,8.47,0,0,0,1.4-2.29,8.09,8.09,0,0,0,.58-3.19,7.55,7.55,0,0,0-.55-3.11,5.42,5.42,0,0,0-1.34-1.88,4.69,4.69,0,0,0-1.68-1,7.39,7.39,0,0,0-1.58-.33l0.48-2.21a8.74,8.74,0,0,1,2.7.52,6.48,6.48,0,0,1,2.33,1.46,7.07,7.07,0,0,1,1.62,2.49,9.71,9.71,0,0,1,.61,3.61,11.29,11.29,0,0,1-.61,3.82,10.36,10.36,0,0,1-1.62,3,9.94,9.94,0,0,1-2.33,2.14,10.76,10.76,0,0,1-2.7,1.3Z"/><path d="M77.51,422.89v-2.2l2.34,0.37c0-2.24,0-3.36,0-5.6l-2.37-.37v-2.2l2.37,0.37V412.7a3.37,3.37,0,0,1,.33-1.57,2.6,2.6,0,0,1,.86-1,3,3,0,0,1,1.24-.46,5,5,0,0,1,1.46,0,10,10,0,0,1,2.26.58,6.86,6.86,0,0,1,1.46.79l-0.76,1.86a10.78,10.78,0,0,0-1-.55,4.73,4.73,0,0,0-1.36-.39,1.72,1.72,0,0,0-1.5.26,1.92,1.92,0,0,0-.43,1.4l4.18,0.64v2.2l-4.18-.64c0,2.24,0,3.36,0,5.6l4.2,0.65v2.2Z"/><path d="M89.82,415.48a9.79,9.79,0,0,1,1.84-.34,10.26,10.26,0,0,1,2.48.11,6,6,0,0,1,1.76.51,3.6,3.6,0,0,1,1.17.88,3.27,3.27,0,0,1,.65,1.2,5.15,5.15,0,0,1,.2,1.47q0,1-.07,1.73c0,0.47-.07.9-0.07,1.27a8.8,8.8,0,0,0,0,.95c0,0.19,0,.37.06,0.55L99.17,424v2.2l-3.34-.49-0.26-1.4h-0.1a2.76,2.76,0,0,1-1.13.9,3.5,3.5,0,0,1-2,.15A3.89,3.89,0,0,1,90,424.19a3.18,3.18,0,0,1-.87-2.25,2.92,2.92,0,0,1,.31-1.4,2.07,2.07,0,0,1,.89-0.87,3.69,3.69,0,0,1,1.4-.37,8,8,0,0,1,1.83.08q0.36,0.05.75,0.15l1,0.22a2,2,0,0,0,0-.39V419a1.48,1.48,0,0,0-.43-1.16,2.41,2.41,0,0,0-1.28-.52,5.78,5.78,0,0,0-1.82,0,10.26,10.26,0,0,0-1.36.31Zm3.39,7.85a2.19,2.19,0,0,0,1.42-.14,1.89,1.89,0,0,0,.69-0.65v-1.2l-0.59-.18a7.18,7.18,0,0,0-.85-0.18,4,4,0,0,0-.75,0,2.21,2.21,0,0,0-.67.12,1.06,1.06,0,0,0-.47.32,0.84,0.84,0,0,0-.18.55,1.31,1.31,0,0,0,.32.92A1.75,1.75,0,0,0,93.2,423.33Z"/><path d="M110.84,426.9a4.9,4.9,0,0,1-1.91.66,8.09,8.09,0,0,1-2.29,0,7.11,7.11,0,0,1-2.3-.71,5.73,5.73,0,0,1-1.69-1.31,5.49,5.49,0,0,1-1-1.82,6.69,6.69,0,0,1-.36-2.21,5.23,5.23,0,0,1,.42-2.18,3.85,3.85,0,0,1,1.16-1.49,4.22,4.22,0,0,1,1.76-.78,6.51,6.51,0,0,1,2.21,0,8.78,8.78,0,0,1,2.09.56,11.15,11.15,0,0,1,1.49.71v3.52l-2.19-.31v-1.84a6,6,0,0,0-1.23-.32,3.59,3.59,0,0,0-1.1,0,2.24,2.24,0,0,0-1.67,1.23,2.83,2.83,0,0,0-.27,1.3,3.35,3.35,0,0,0,.22,1.21,3.36,3.36,0,0,0,1.6,1.8,3.91,3.91,0,0,0,1.3.42,4.45,4.45,0,0,0,1.86-.06,6.32,6.32,0,0,0,1.09-.41Z"/><path d="M114.22,420.52l-2-.27v-2.2l2,0.27V416l2.59-.38c0,1.21,0,1.81,0,3l5.22,0.7v2.2l-5.22-.7v2.86a3.82,3.82,0,0,0,.58,2.31A2.32,2.32,0,0,0,119,427a3.32,3.32,0,0,0,1,0,3.2,3.2,0,0,0,.79-0.22,3.69,3.69,0,0,0,.64-0.35l0.53-.37,1.2,2a3.16,3.16,0,0,1-.85.62,6.24,6.24,0,0,1-2.32.66,5.7,5.7,0,0,1-1.26,0,4.94,4.94,0,0,1-3.36-1.71,6.48,6.48,0,0,1-1.13-4.13v-2.86Z"/><path d="M124.56,424.72a5.78,5.78,0,0,1,.38-2.19A3.84,3.84,0,0,1,126,421a3.89,3.89,0,0,1,1.66-.81,6.11,6.11,0,0,1,2.16-.07,6.79,6.79,0,0,1,2.24.67,5.54,5.54,0,0,1,1.67,1.28,5.31,5.31,0,0,1,1,1.8,6.82,6.82,0,0,1,.35,2.2,5.81,5.81,0,0,1-.38,2.19,3.77,3.77,0,0,1-2.74,2.34,6.07,6.07,0,0,1-2.16.07,6.75,6.75,0,0,1-2.24-.67,5.55,5.55,0,0,1-1.66-1.29,5.32,5.32,0,0,1-1-1.8A6.81,6.81,0,0,1,124.56,424.72Zm2.67,0.35a4.2,4.2,0,0,0,.18,1.24,3.49,3.49,0,0,0,.52,1,2.81,2.81,0,0,0,.82.76,2.74,2.74,0,0,0,1.1.37,2.27,2.27,0,0,0,1.88-.5,2.9,2.9,0,0,0,.73-2.25,3.85,3.85,0,0,0-.68-2.32,2.7,2.7,0,0,0-1.93-1.1,3,3,0,0,0-1,0,1.72,1.72,0,0,0-.83.44,2.28,2.28,0,0,0-.55.89A4.09,4.09,0,0,0,127.24,425.07Z"/><path d="M136.61,429.07l2.47,0.31c0-2.24,0-3.36,0-5.6l-2.47-.31c0-.88,0-1.32,0-2.2l4.49,0.56,0.3,1.36h0.08a4.42,4.42,0,0,1,1.28-.94,2.94,2.94,0,0,1,1.68-.24,2.6,2.6,0,0,1,1.89,1.11,5.25,5.25,0,0,1,.69,3l-2.34-.28a2.16,2.16,0,0,0-.21-1.08,0.84,0.84,0,0,0-.67-0.41,1.81,1.81,0,0,0-1.29.24,3.37,3.37,0,0,0-.83.82v4.26l4.33,0.52v2.2l-9.4-1.15C136.61,430.39,136.61,429.95,136.61,429.07Z"/><path d="M149,430.57l3.51,0.41v-5.6L149,425c0-.88,0-1.32,0-2.2l6.11,0.71c0,3.12,0,4.68,0,7.8l3.69,0.42v2.2c-3.92-.44-5.88-0.67-9.8-1.13v-2.2Zm3-10.16a1.26,1.26,0,0,1,.46-1,1.62,1.62,0,0,1,1.28-.29,2.19,2.19,0,0,1,1.34.59,1.55,1.55,0,0,1,.5,1.12,1.15,1.15,0,0,1-.5,1,1.88,1.88,0,0,1-1.34.26,2.07,2.07,0,0,1-1.28-.56A1.51,1.51,0,0,1,152,420.41Z"/><path d="M161.57,424.89a10.1,10.1,0,0,1,1.85-.42,10.32,10.32,0,0,1,2.49,0,5.86,5.86,0,0,1,1.77.44,3.42,3.42,0,0,1,1.18.84,3.1,3.1,0,0,1,.65,1.17,5.06,5.06,0,0,1,.2,1.46q0,1-.07,1.73c0,0.47-.07.9-0.07,1.27a8.72,8.72,0,0,0,0,.94c0,0.19,0,.37.06,0.55L171,433v2.2l-3.35-.36-0.26-1.39h-0.1a2.93,2.93,0,0,1-1.13.95,3.57,3.57,0,0,1-2,.23,3.74,3.74,0,0,1-2.36-1.06,3.05,3.05,0,0,1-.87-2.22,3,3,0,0,1,.31-1.42,2.19,2.19,0,0,1,.89-0.9,3.83,3.83,0,0,1,1.41-.42,8.07,8.07,0,0,1,1.84,0q0.36,0,.75.12l1,0.19a2,2,0,0,0,0-.4v-0.38a1.43,1.43,0,0,0-.44-1.14,2.33,2.33,0,0,0-1.29-.47,5.84,5.84,0,0,0-1.82.06,10.61,10.61,0,0,0-1.37.37Zm3.4,7.72a2.24,2.24,0,0,0,1.42-.19,2,2,0,0,0,.69-0.68v-1.2l-0.59-.15a7.09,7.09,0,0,0-.85-0.14,4,4,0,0,0-.75,0,2.28,2.28,0,0,0-.67.15,1.13,1.13,0,0,0-.47.34,0.86,0.86,0,0,0-.18.56,1.26,1.26,0,0,0,.33.91A1.69,1.69,0,0,0,165,432.61Z"/><path d="M173.5,421.5l4.26,0.44c0,3.7,0,5.54,0,9.24a4.54,4.54,0,0,0,.38,2.18,1.5,1.5,0,0,0,1.22.72,3.27,3.27,0,0,0,1,0,3.51,3.51,0,0,0,.8-0.29l1,1.9-0.68.34a3.94,3.94,0,0,1-.72.25,4.61,4.61,0,0,1-.83.12,6.51,6.51,0,0,1-1,0,4.17,4.17,0,0,1-2.82-1.25,4.09,4.09,0,0,1-.94-2.82c0-3.36,0-5,0-8.4l-1.66-.17v-2.2Z"/><path d="M185.31,439l8.88,0.85V442l-8.88-.85V439Z"/><path d="M195.75,423.69l4,0.37c0,2,0,3.07,0,5.12h0.08a3,3,0,0,1,1.28-.91,4.18,4.18,0,0,1,1.88-.21,4.93,4.93,0,0,1,1.4.32,3,3,0,0,1,1.1.76,3.48,3.48,0,0,1,.72,1.31,6.54,6.54,0,0,1,.26,2v6.22l-2.6-.23c0-2.27,0-3.41,0-5.68a2.66,2.66,0,0,0-.52-1.81,2,2,0,0,0-1.36-.66,2.12,2.12,0,0,0-1.36.33,2.15,2.15,0,0,0-.88,1.07v6.38l-2.6-.24c0-4.72,0-7.08,0-11.8l-1.44-.13C195.75,425,195.75,424.57,195.75,423.69Z"/><path d="M218.43,438.58a3.22,3.22,0,0,1-.67.42,6,6,0,0,1-1,.35,7,7,0,0,1-1.21.22,7.72,7.72,0,0,1-1.4,0,7.1,7.1,0,0,1-2.29-.55,5,5,0,0,1-2.78-2.94,6.42,6.42,0,0,1-.37-2.24,5.61,5.61,0,0,1,.42-2.27,4.11,4.11,0,0,1,1.15-1.55,4.34,4.34,0,0,1,1.71-.85,6.46,6.46,0,0,1,2.12-.15,6.87,6.87,0,0,1,1.57.33,4.74,4.74,0,0,1,1.49.81,4.14,4.14,0,0,1,1.11,1.4,4.67,4.67,0,0,1,.43,2.11,9.33,9.33,0,0,1-.2,1.84l-7.2-.59a2.45,2.45,0,0,0,.27,1.1,2.41,2.41,0,0,0,.66.77,3.16,3.16,0,0,0,.94.49,4.9,4.9,0,0,0,1.13.22,5.69,5.69,0,0,0,2-.12,3.76,3.76,0,0,0,1.25-.58Zm-4.32-7.49a3.21,3.21,0,0,0-1,.06,2.49,2.49,0,0,0-.83.35,2,2,0,0,0-.61.63,2,2,0,0,0-.28.89l4.92,0.4A2.17,2.17,0,0,0,214.11,431.09Z"/><path d="M221.5,425.88l4.26,0.33c0,3.7,0,5.54,0,9.24a4.47,4.47,0,0,0,.38,2.17,1.46,1.46,0,0,0,1.22.69,3.29,3.29,0,0,0,1-.05,3.6,3.6,0,0,0,.8-0.31l1,1.87-0.68.36a4.05,4.05,0,0,1-.72.27,4.68,4.68,0,0,1-.83.14,6.53,6.53,0,0,1-1,0,4.07,4.07,0,0,1-2.82-1.17,4,4,0,0,1-.94-2.79v-8.4l-1.66-.13v-2.2Z"/><path d="M231.77,430.65l3.4,0.24,0.3,1.22h0.08a3.58,3.58,0,0,1,3.36-1.25,5,5,0,0,1,1.69.41,3.62,3.62,0,0,1,1.32,1,4.63,4.63,0,0,1,.85,1.62,7.66,7.66,0,0,1,.3,2.28,7.12,7.12,0,0,1-.34,2.29,4.51,4.51,0,0,1-1,1.68,3.84,3.84,0,0,1-1.56,1,5.31,5.31,0,0,1-2.1.24,8.38,8.38,0,0,1-1.22-.17,3.6,3.6,0,0,1-1-.36c0,1.64,0,2.46,0,4.1l-2.6-.18c0-4.72,0-7.08,0-11.8l-1.5-.11v-2.2Zm6.37,2.37a2.53,2.53,0,0,0-1.39.28,1.79,1.79,0,0,0-.87,1.08v4.16a2.31,2.31,0,0,0,.81.41,4.6,4.6,0,0,0,1.07.2,2.73,2.73,0,0,0,1-.12,1.94,1.94,0,0,0,.84-0.55,2.73,2.73,0,0,0,.56-1,5.07,5.07,0,0,0,.2-1.53,3.14,3.14,0,0,0-.64-2.08A2.24,2.24,0,0,0,238.13,433Z"/><path d="M254.48,441.1a3.28,3.28,0,0,1-.67.43,6.05,6.05,0,0,1-1,.37,7.11,7.11,0,0,1-1.21.25,7.73,7.73,0,0,1-1.4,0,7,7,0,0,1-2.29-.5,4.91,4.91,0,0,1-2.78-2.89,6.35,6.35,0,0,1-.37-2.23,5.66,5.66,0,0,1,.42-2.28,4.23,4.23,0,0,1,1.15-1.58,4.45,4.45,0,0,1,1.71-.88,6.5,6.5,0,0,1,2.12-.2,6.81,6.81,0,0,1,1.57.3,4.62,4.62,0,0,1,1.49.78,4,4,0,0,1,1.11,1.38,4.62,4.62,0,0,1,.43,2.11,9.3,9.3,0,0,1-.2,1.85l-7.21-.45a2.41,2.41,0,0,0,.27,1.1,2.34,2.34,0,0,0,.66.76,3.08,3.08,0,0,0,.94.47,4.85,4.85,0,0,0,1.13.2,5.72,5.72,0,0,0,2-.16,3.87,3.87,0,0,0,1.25-.6Zm-4.33-7.41a3.25,3.25,0,0,0-1,.08,2.56,2.56,0,0,0-.83.37,2.09,2.09,0,0,0-.61.64,2,2,0,0,0-.28.9l4.93,0.31A2.12,2.12,0,0,0,250.15,433.69Z"/><path d="M256.58,440.08l2.48,0.14v-5.6l-2.48-.14v-2.2l4.51,0.26,0.3,1.34h0.08a4.88,4.88,0,0,1,1.28-1,3.06,3.06,0,0,1,1.68-.35,2.42,2.42,0,0,1,1.89,1,5,5,0,0,1,.69,3l-2.34-.13a2.08,2.08,0,0,0-.21-1.06,0.79,0.79,0,0,0-.67-0.37,1.9,1.9,0,0,0-1.29.33,3.7,3.7,0,0,0-.83.87v4.26l4.35,0.24v2.2l-9.44-.53v-2.2Z"/><path d="M276.94,447.6a9.73,9.73,0,0,1-2.73-1,8.56,8.56,0,0,1-2.34-1.9,9,9,0,0,1-1.63-2.8,10.64,10.64,0,0,1-.61-3.75,10.15,10.15,0,0,1,.61-3.68,8.14,8.14,0,0,1,1.63-2.67,7.57,7.57,0,0,1,2.34-1.7,9.55,9.55,0,0,1,2.73-.81l0.48,2.16a8,8,0,0,0-1.59.49,5.44,5.44,0,0,0-1.69,1.14,6.27,6.27,0,0,0-1.35,2,7.91,7.91,0,0,0-.55,3.17,7.58,7.58,0,0,0,.58,3.13,7.35,7.35,0,0,0,1.41,2.14,6.71,6.71,0,0,0,1.71,1.3,7.17,7.17,0,0,0,1.48.6Z"/><path d="M282,441.39l3.07,0.13c0-3.5,0-5.24,0-8.74l-2.65,1.9-1.2-1.65,4.57-3.28,1.76,0.07c0,4.72,0,7.08,0,11.8l3,0.12c0,0.88,0,1.32,0,2.2l-8.56-.36v-2.2Z"/><path d="M296.25,442.9a1.32,1.32,0,0,1,.45-1.06,1.6,1.6,0,0,1,1.13-.36,2.06,2.06,0,0,1,1.66.78,2.89,2.89,0,0,1,.56,1.8,3.7,3.7,0,0,1-.35,1.63,4.13,4.13,0,0,1-.91,1.25,4.72,4.72,0,0,1-1.25.83,5,5,0,0,1-1.37.41l-0.54-1.12a5.62,5.62,0,0,0,1-.3,3.71,3.71,0,0,0,.89-0.52,2.92,2.92,0,0,0,.67-0.75,2.05,2.05,0,0,0,.31-0.95,2.55,2.55,0,0,1-1,0,1.61,1.61,0,0,1-.69-0.34,1.38,1.38,0,0,1-.39-0.57A2.11,2.11,0,0,1,296.25,442.9Z"/><path d="M308.89,442.68a4.07,4.07,0,0,0,1.21-.13,2.77,2.77,0,0,0,.94-0.45,2.2,2.2,0,0,0,.61-0.7,1.8,1.8,0,0,0,.22-0.88,1.93,1.93,0,0,0-.25-1,1.89,1.89,0,0,0-.69-0.67,3.42,3.42,0,0,0-1.06-.37,8.64,8.64,0,0,0-1.34-.14l-1.12,0v-1.44l3.37-4-5.07-.15v-2.2l8.18,0.24v1.82l-3.53,3.92h0.46a4,4,0,0,1,1.36.28,3.53,3.53,0,0,1,1.17.75,3.69,3.69,0,0,1,.82,1.22,4.23,4.23,0,0,1,.31,1.67,4,4,0,0,1-.47,2,4.39,4.39,0,0,1-1.24,1.42,5.15,5.15,0,0,1-1.78.83,7.28,7.28,0,0,1-2.07.23,10.38,10.38,0,0,1-1.8-.22,8.94,8.94,0,0,1-1.74-.55l0.7-2.14a2.84,2.84,0,0,0,.49.22l0.7,0.22a7.6,7.6,0,0,0,.8.18A5.64,5.64,0,0,0,308.89,442.68Z"/><path d="M318.35,446.92a6.72,6.72,0,0,0,1.48-.49,6.06,6.06,0,0,0,1.71-1.18,6.64,6.64,0,0,0,1.41-2,7.28,7.28,0,0,0,.58-3.09,8.21,8.21,0,0,0-.55-3.21,6.92,6.92,0,0,0-1.35-2.12,6,6,0,0,0-1.69-1.26,8.65,8.65,0,0,0-1.59-.61l0.48-2.13a10.17,10.17,0,0,1,2.73,1,8.39,8.39,0,0,1,2.35,1.87,8.94,8.94,0,0,1,1.63,2.79,10.51,10.51,0,0,1,.61,3.72,10.28,10.28,0,0,1-.61,3.71,8.22,8.22,0,0,1-1.63,2.68,7.72,7.72,0,0,1-2.35,1.73,9.13,9.13,0,0,1-2.73.81Z"/><path d="M401.63,445v-2.2l2.37-.05v-5.6l-2.39.05V435L404,435v-0.56a3.71,3.71,0,0,1,.33-1.63,3.35,3.35,0,0,1,.87-1.14,3.68,3.68,0,0,1,1.25-.68,5.26,5.26,0,0,1,1.47-.24,9.32,9.32,0,0,1,2.28.17,5.69,5.69,0,0,1,1.47.53l-0.76,2a9,9,0,0,0-1-.38,4.34,4.34,0,0,0-1.37-.15,2,2,0,0,0-1.52.53,2.21,2.21,0,0,0-.43,1.48l4.21-.1V437l-4.21.1v5.6l4.23-.1v2.2Z"/><path d="M414,435.42a11.42,11.42,0,0,1,1.86-.67,10.71,10.71,0,0,1,2.5-.33,5.49,5.49,0,0,1,1.78.2,2.85,2.85,0,0,1,1.18.67,2.6,2.6,0,0,1,.65,1.08,4.76,4.76,0,0,1,.2,1.43q0,1-.07,1.74c0,0.48-.07.91-0.07,1.28a8.65,8.65,0,0,0,0,.94c0,0.18,0,.37.06,0.54l1.3,0c0,0.88,0,1.32,0,2.2l-3.37.11-0.26-1.35h-0.1a3.6,3.6,0,0,1-1.14,1.1,3.88,3.88,0,0,1-2,.51,3.3,3.3,0,0,1-2.37-.73,2.66,2.66,0,0,1-.88-2.1,3.23,3.23,0,0,1,.31-1.46,2.7,2.7,0,0,1,.9-1,4.41,4.41,0,0,1,1.42-.62,8.35,8.35,0,0,1,1.84-.24q0.36,0,.76,0l1,0.05a2.14,2.14,0,0,0,0-.4v-0.38a1.24,1.24,0,0,0-.44-1.08,2.09,2.09,0,0,0-1.29-.29,6.14,6.14,0,0,0-1.83.31,12.13,12.13,0,0,0-1.37.56Zm3.41,7.24a2.24,2.24,0,0,0,2.12-1.16v-1.2l-0.6-.07a6.85,6.85,0,0,0-.85,0,4.14,4.14,0,0,0-.75.09,2.57,2.57,0,0,0-.67.24,1.38,1.38,0,0,0-.48.4,1,1,0,0,0-.18.59,1.11,1.11,0,0,0,.33.86A1.51,1.51,0,0,0,417.46,442.66Z"/><path d="M435.22,443.08a6,6,0,0,1-1.92,1,8.57,8.57,0,0,1-2.31.4,6.44,6.44,0,0,1-2.32-.3,4.51,4.51,0,0,1-1.7-1,4.34,4.34,0,0,1-1.05-1.63,6.12,6.12,0,0,1-.36-2.15,5.73,5.73,0,0,1,.42-2.25,5,5,0,0,1,1.17-1.7,5.3,5.3,0,0,1,1.77-1.09,7,7,0,0,1,2.23-.43,8.13,8.13,0,0,1,2.11.18,9.41,9.41,0,0,1,1.5.44c0,1.41,0,2.11,0,3.52l-2.21.08V436.3a5.57,5.57,0,0,0-1.24-.09,3.83,3.83,0,0,0-1.11.21,2.85,2.85,0,0,0-1,.58,3,3,0,0,0-.7,1,3.11,3.11,0,0,0-.27,1.35,3,3,0,0,0,.22,1.17,2.68,2.68,0,0,0,.62.92,2.71,2.71,0,0,0,1,.59,3.53,3.53,0,0,0,1.31.18,4.8,4.8,0,0,0,1.87-.39,7.73,7.73,0,0,0,1.09-.6Z"/><path d="M438.63,436.1l-2,.08c0-.88,0-1.32,0-2.2l2-.08c0-.91,0-1.37,0-2.28l2.61-.85c0,1.21,0,1.81,0,3l5.25-.23v2.2l-5.25.23v2.86a3.34,3.34,0,0,0,.58,2.21,1.92,1.92,0,0,0,1.62.62,3.54,3.54,0,0,0,1-.17,3.86,3.86,0,0,0,.79-0.37,4.75,4.75,0,0,0,.64-0.47l0.53-.46,1.2,1.75a4.11,4.11,0,0,1-.85.77,7.63,7.63,0,0,1-1.1.63,7.14,7.14,0,0,1-1.23.44,6,6,0,0,1-1.26.2,4.16,4.16,0,0,1-3.38-1.11,5.61,5.61,0,0,1-1.13-3.92V436.1Z"/><path d="M449,438.45a6.28,6.28,0,0,1,.38-2.26,4.82,4.82,0,0,1,2.76-2.82,6.58,6.58,0,0,1,2.17-.46,6.17,6.17,0,0,1,2.25.27,4.36,4.36,0,0,1,1.67,1,4.2,4.2,0,0,1,1,1.62,6.22,6.22,0,0,1,.35,2.14,6.32,6.32,0,0,1-.38,2.26,4.84,4.84,0,0,1-2.76,2.83,6.54,6.54,0,0,1-2.17.46,6.13,6.13,0,0,1-2.25-.27,4.37,4.37,0,0,1-1.67-1,4.22,4.22,0,0,1-1-1.62A6.23,6.23,0,0,1,449,438.45Zm2.69-.13a3.9,3.9,0,0,0,.18,1.21,2.83,2.83,0,0,0,.52,1,2.2,2.2,0,0,0,.82.61,2.46,2.46,0,0,0,1.1.18,2.68,2.68,0,0,0,1.89-.83,3.36,3.36,0,0,0,.73-2.38,3.32,3.32,0,0,0-.68-2.2,2.24,2.24,0,0,0-1.94-.75,3.2,3.2,0,0,0-1,.22,2.19,2.19,0,0,0-.83.59,2.86,2.86,0,0,0-.55,1A4.39,4.39,0,0,0,451.72,438.32Z"/><path d="M461.14,440.64l2.48-.13c0-2.24,0-3.36,0-5.6l-2.48.13c0-.88,0-1.32,0-2.2l4.51-.25,0.3,1.3H466a5.75,5.75,0,0,1,1.28-1.17,3.32,3.32,0,0,1,1.68-.54,2.15,2.15,0,0,1,1.89.77,4.64,4.64,0,0,1,.69,2.9l-2.34.14a2,2,0,0,0-.21-1,0.7,0.7,0,0,0-.67-0.29,2.08,2.08,0,0,0-1.29.47,4.37,4.37,0,0,0-.83,1c0,1.7,0,2.56,0,4.26l4.35-.25v2.2l-9.44.53C461.14,442,461.14,441.52,461.14,440.64Z"/><path d="M473.56,439.94l3.53-.22v-5.6l-3.53.22c0-.88,0-1.32,0-2.2l6.13-.38c0,3.12,0,4.68,0,7.8l3.71-.24c0,0.88,0,1.32,0,2.2-3.93.26-5.9,0.38-9.84,0.62C473.56,441.26,473.56,440.82,473.56,439.94Zm3-10.71a1.51,1.51,0,0,1,.46-1.09,1.89,1.89,0,0,1,1.28-.52,1.87,1.87,0,0,1,1.34.35,1.28,1.28,0,0,1,.5,1,1.39,1.39,0,0,1-.5,1.08,2.17,2.17,0,0,1-1.34.49,1.77,1.77,0,0,1-1.28-.33A1.26,1.26,0,0,1,476.61,429.23Z"/><path d="M486.2,432a11.87,11.87,0,0,1,1.85-.75,10.87,10.87,0,0,1,2.49-.43,5.41,5.41,0,0,1,1.77.13,2.71,2.71,0,0,1,1.18.63,2.47,2.47,0,0,1,.65,1.05,4.69,4.69,0,0,1,.2,1.43q0,1-.07,1.75c0,0.48-.07.91-0.07,1.29a8.59,8.59,0,0,0,0,.94c0,0.18,0,.36.06,0.54l1.3-.09c0,0.88,0,1.32,0,2.2l-3.36.24L492,439.58h-0.1a3.81,3.81,0,0,1-1.13,1.15,4,4,0,0,1-2,.59,3.19,3.19,0,0,1-2.37-.64,2.55,2.55,0,0,1-.88-2.06,3.31,3.31,0,0,1,.31-1.47,2.85,2.85,0,0,1,.9-1.06,4.61,4.61,0,0,1,1.41-.68,8.48,8.48,0,0,1,1.84-.32q0.36,0,.76,0h1a2.17,2.17,0,0,0,0-.4v-0.38a1.2,1.2,0,0,0-.44-1.06A2,2,0,0,0,490,433a6.26,6.26,0,0,0-1.83.39,12.61,12.61,0,0,0-1.37.61Zm3.41,7.11a2.53,2.53,0,0,0,1.43-.45,2.62,2.62,0,0,0,.69-0.8v-1.2l-0.59,0a6.82,6.82,0,0,0-.85,0,4.19,4.19,0,0,0-.75.12,2.66,2.66,0,0,0-.67.27,1.46,1.46,0,0,0-.48.42,1,1,0,0,0-.18.59,1.07,1.07,0,0,0,.33.85A1.46,1.46,0,0,0,489.61,439.12Z"/><path d="M498.16,426.5l4.26-.32c0,3.7,0,5.54,0,9.24a4.11,4.11,0,0,0,.38,2.11A1.23,1.23,0,0,0,504,438a3.48,3.48,0,0,0,1-.21,4.27,4.27,0,0,0,.8-0.43l1,1.72-0.68.46a4.79,4.79,0,0,1-.72.38,5.19,5.19,0,0,1-.83.26,6.72,6.72,0,0,1-1,.15,3.56,3.56,0,0,1-2.82-.75,3.48,3.48,0,0,1-.94-2.65c0-3.36,0-5,0-8.4l-1.66.12C498.16,427.82,498.16,427.38,498.16,426.5Z"/><path d="M510,441.93l8.89-.73v2.14l-8.89.73C510,443.21,510,442.78,510,441.93Z"/><path d="M520.43,424.72l4-.35c0,2,0,3.07,0,5.12h0.08a3.84,3.84,0,0,1,1.28-1.13,4.63,4.63,0,0,1,1.88-.55,4.58,4.58,0,0,1,1.4.07,2.38,2.38,0,0,1,1.1.56,2.77,2.77,0,0,1,.72,1.18,6.09,6.09,0,0,1,.26,1.93v6.22l-2.6.24c0-2.27,0-3.41,0-5.68a2.3,2.3,0,0,0-.52-1.71,1.67,1.67,0,0,0-1.36-.42,2.47,2.47,0,0,0-1.36.57,2.77,2.77,0,0,0-.88,1.23v6.38l-2.6.23V426.8l-1.44.12v-2.2Z"/><path d="M543.11,435.57a4.09,4.09,0,0,1-.67.54,7.34,7.34,0,0,1-1,.52,8.11,8.11,0,0,1-2.61.69,6.55,6.55,0,0,1-2.29-.14,3.93,3.93,0,0,1-2.78-2.45,5.88,5.88,0,0,1-.37-2.18,6.17,6.17,0,0,1,.42-2.35,5.25,5.25,0,0,1,1.15-1.76,5.44,5.44,0,0,1,1.71-1.15,7,7,0,0,1,2.12-.53,6.44,6.44,0,0,1,1.57,0,3.87,3.87,0,0,1,1.49.55,3.21,3.21,0,0,1,1.11,1.2,4.21,4.21,0,0,1,.43,2,9.8,9.8,0,0,1-.2,1.88l-7.2.69a2.16,2.16,0,0,0,.27,1.05,1.85,1.85,0,0,0,.66.66,2.59,2.59,0,0,0,.94.32,4.62,4.62,0,0,0,1.13,0,6.16,6.16,0,0,0,2-.47,4.73,4.73,0,0,0,1.25-.8Zm-4.32-6.72a3.48,3.48,0,0,0-1,.24,3.1,3.1,0,0,0-.83.5,2.61,2.61,0,0,0-.61.74,2.28,2.28,0,0,0-.28.94l4.92-.47A1.78,1.78,0,0,0,538.79,428.85Z"/><path d="M546.17,422.33l4.26-.43c0,3.7,0,5.54,0,9.24a4.06,4.06,0,0,0,.38,2.1,1.2,1.2,0,0,0,1.22.48,3.53,3.53,0,0,0,1-.24,4.41,4.41,0,0,0,.8-0.45l1,1.7-0.68.48a5,5,0,0,1-.72.39,5.32,5.32,0,0,1-.83.29,6.8,6.8,0,0,1-1,.17,3.48,3.48,0,0,1-2.82-.67,3.4,3.4,0,0,1-.94-2.63c0-3.36,0-5,0-8.4l-1.66.17C546.17,423.65,546.17,423.21,546.17,422.33Z"/><path d="M556.42,425.27l3.4-.36,0.3,1.17h0.08a4.31,4.31,0,0,1,3.35-1.85,4.58,4.58,0,0,1,1.69.1,2.85,2.85,0,0,1,1.32.76,3.72,3.72,0,0,1,.85,1.47,7.16,7.16,0,0,1,.3,2.23,7.72,7.72,0,0,1-.34,2.35,5.65,5.65,0,0,1-1,1.86,4.92,4.92,0,0,1-1.56,1.27,5.85,5.85,0,0,1-2.1.61,8.14,8.14,0,0,1-1.22,0,3.14,3.14,0,0,1-1-.18c0,1.64,0,2.46,0,4.1l-2.6.28c0-4.72,0-7.08,0-11.8l-1.5.16v-2.2Zm6.35,1.24a2.91,2.91,0,0,0-1.39.53,2.29,2.29,0,0,0-.87,1.23v4.16a1.91,1.91,0,0,0,.81.26,4.35,4.35,0,0,0,1.07,0,3,3,0,0,0,1-.3,2.5,2.5,0,0,0,.84-0.7,3.41,3.41,0,0,0,.56-1.12A5.45,5.45,0,0,0,565,429a2.71,2.71,0,0,0-.64-2A1.87,1.87,0,0,0,562.77,426.51Z"/><path d="M579.06,431.68a4.21,4.21,0,0,1-.67.55,7.49,7.49,0,0,1-1,.54,8.22,8.22,0,0,1-2.6.74,6.51,6.51,0,0,1-2.29-.1,3.82,3.82,0,0,1-2.78-2.39,5.83,5.83,0,0,1-.37-2.17,6.24,6.24,0,0,1,.42-2.36,5.4,5.4,0,0,1,1.15-1.78,5.58,5.58,0,0,1,1.71-1.19,7.09,7.09,0,0,1,2.12-.57,6.42,6.42,0,0,1,1.57,0,3.79,3.79,0,0,1,1.49.52,3.11,3.11,0,0,1,1.11,1.18,4.16,4.16,0,0,1,.43,2,9.87,9.87,0,0,1-.2,1.88l-7.19.84a2.13,2.13,0,0,0,.27,1,1.8,1.8,0,0,0,.66.64,2.54,2.54,0,0,0,.94.3,4.6,4.6,0,0,0,1.13,0,6.23,6.23,0,0,0,2-.51,4.85,4.85,0,0,0,1.25-.83ZM574.75,425a3.52,3.52,0,0,0-1,.26,3.19,3.19,0,0,0-.83.51,2.69,2.69,0,0,0-.61.75,2.31,2.31,0,0,0-.28.95l4.91-.57a2,2,0,0,0-.55-1.52A2,2,0,0,0,574.75,425Z"/><path d="M581.16,430.29l2.47-.3v-5.6l-2.47.3v-2.2l4.49-.54,0.3,1.28H586A6.33,6.33,0,0,1,587.3,422a3.5,3.5,0,0,1,1.68-.65,2,2,0,0,1,1.88.65,4.44,4.44,0,0,1,.69,2.85l-2.33.29a1.88,1.88,0,0,0-.21-1,0.65,0.65,0,0,0-.67-0.25,2.21,2.21,0,0,0-1.29.56,4.8,4.8,0,0,0-.83,1v4.26l4.33-.53v2.2l-9.4,1.15C581.16,431.61,581.16,431.17,581.16,430.29Z"/><path d="M601.42,434.19a8.4,8.4,0,0,1-2.71-.53,6.63,6.63,0,0,1-2.33-1.48,7.15,7.15,0,0,1-1.63-2.51,9.81,9.81,0,0,1-.61-3.64,11.1,11.1,0,0,1,.61-3.79,10.26,10.26,0,0,1,1.63-3,9.76,9.76,0,0,1,2.33-2.12,11.29,11.29,0,0,1,2.71-1.29l0.48,2.08a9.56,9.56,0,0,0-1.58.78,7,7,0,0,0-1.69,1.44,8,8,0,0,0-1.35,2.26,8.7,8.7,0,0,0-.55,3.27,6.91,6.91,0,0,0,.58,3,5.74,5.74,0,0,0,1.4,1.89,5.22,5.22,0,0,0,1.7,1,6.11,6.11,0,0,0,1.48.34Z"/><path d="M609.26,427a4.41,4.41,0,0,0,1.21-.33,3.4,3.4,0,0,0,.94-0.61,2.81,2.81,0,0,0,.61-0.8,2,2,0,0,0,.22-0.92,1.73,1.73,0,0,0-.25-1,1.48,1.48,0,0,0-.69-0.55,3,3,0,0,0-1.06-.19,8.42,8.42,0,0,0-1.34.08l-1.12.15v-1.44l3.35-4.56-5,.68v-2.2l8.13-1.1v1.82l-3.51,4.5,0.46-.06a3.76,3.76,0,0,1,1.36.06,2.84,2.84,0,0,1,1.17.56,2.93,2.93,0,0,1,.82,1.09,3.89,3.89,0,0,1,.31,1.62,4.52,4.52,0,0,1-.47,2.06,5.57,5.57,0,0,1-1.24,1.62,6.27,6.27,0,0,1-1.76,1.12,7.88,7.88,0,0,1-2.05.57,10.06,10.06,0,0,1-1.79.08,7.92,7.92,0,0,1-1.73-.27l0.7-2.25a2.41,2.41,0,0,0,.49.13l0.7,0.11a7.15,7.15,0,0,0,.8.05A5.58,5.58,0,0,0,609.26,427Z"/><path d="M620.61,426.06a1.58,1.58,0,0,1,.45-1.14,1.89,1.89,0,0,1,1.13-.56,1.72,1.72,0,0,1,1.65.48,2.5,2.5,0,0,1,.56,1.7,4.14,4.14,0,0,1-.35,1.69,5.27,5.27,0,0,1-.91,1.41,6,6,0,0,1-1.24,1.06,5.87,5.87,0,0,1-1.36.65l-0.54-1a6.66,6.66,0,0,0,1-.48,4.69,4.69,0,0,0,.89-0.68,3.78,3.78,0,0,0,.67-0.86,2.4,2.4,0,0,0,.31-1,2.61,2.61,0,0,1-1,.17,1.32,1.32,0,0,1-.69-0.22,1.08,1.08,0,0,1-.39-0.51A1.94,1.94,0,0,1,620.61,426.06Z"/><path d="M638.62,424.7L629.75,426v-1.94l0.6-.62,0.81-.87,0.95-1.06q0.5-.57,1-1.18,0.68-.86,1.18-1.56a12,12,0,0,0,.84-1.3,5.7,5.7,0,0,0,.49-1.15,4,4,0,0,0,.16-1.11,1.64,1.64,0,0,0-.18-0.75,1.71,1.71,0,0,0-.5-0.6,2,2,0,0,0-.77-0.35,2.64,2.64,0,0,0-1,0,4.1,4.1,0,0,0-1.3.41,5.45,5.45,0,0,0-1.22.92l-1-1.69a10.68,10.68,0,0,1,1.86-1.28,7,7,0,0,1,2.36-.76,5.42,5.42,0,0,1,1.64,0,3.66,3.66,0,0,1,1.39.5,2.77,2.77,0,0,1,1,1,3.18,3.18,0,0,1,.36,1.57,6.38,6.38,0,0,1-.11,1.21,6.58,6.58,0,0,1-.34,1.15,9,9,0,0,1-.6,1.22q-0.37.64-.89,1.39-0.4.58-.87,1.18t-0.92,1.15q-0.46.55-.91,1t-0.81.82l5.73-.86v2.2Z"/><path d="M642.54,426.16a8,8,0,0,0,1.47-.76,7.78,7.78,0,0,0,1.7-1.48,8.47,8.47,0,0,0,1.4-2.29,8.08,8.08,0,0,0,.58-3.19,7.55,7.55,0,0,0-.55-3.11,5.42,5.42,0,0,0-1.34-1.88,4.69,4.69,0,0,0-1.68-1,7.39,7.39,0,0,0-1.58-.33l0.48-2.21a8.73,8.73,0,0,1,2.7.52,6.48,6.48,0,0,1,2.33,1.46,7.07,7.07,0,0,1,1.62,2.49,9.71,9.71,0,0,1,.61,3.61,11.28,11.28,0,0,1-.61,3.82,10.38,10.38,0,0,1-1.62,3,10,10,0,0,1-2.33,2.14,10.75,10.75,0,0,1-2.7,1.3Z"/><path d="M77.51,371.88v-2.2l2.34,0.37c0-2.24,0-3.36,0-5.6l-2.37-.37v-2.2l2.37,0.37v-0.56a3.37,3.37,0,0,1,.33-1.57,2.6,2.6,0,0,1,.86-1,3,3,0,0,1,1.24-.46,5,5,0,0,1,1.46,0,10,10,0,0,1,2.26.58,6.86,6.86,0,0,1,1.46.79l-0.76,1.86a10.77,10.77,0,0,0-1-.55,4.72,4.72,0,0,0-1.36-.39,1.72,1.72,0,0,0-1.5.26,1.92,1.92,0,0,0-.43,1.4l4.18,0.64v2.2l-4.18-.64c0,2.24,0,3.36,0,5.6l4.2,0.65v2.2Z"/><path d="M89.82,364.47a9.8,9.8,0,0,1,1.84-.34,10.26,10.26,0,0,1,2.48.11,6,6,0,0,1,1.76.51,3.6,3.6,0,0,1,1.17.88,3.26,3.26,0,0,1,.65,1.2,5.15,5.15,0,0,1,.2,1.47q0,1-.07,1.73c0,0.47-.07.9-0.07,1.27a8.8,8.8,0,0,0,0,.95c0,0.19,0,.37.06,0.55L99.17,373v2.2l-3.34-.49-0.26-1.4h-0.1a2.76,2.76,0,0,1-1.13.9,3.5,3.5,0,0,1-2,.15A3.89,3.89,0,0,1,90,373.18a3.18,3.18,0,0,1-.87-2.25,2.92,2.92,0,0,1,.31-1.4,2.07,2.07,0,0,1,.89-0.87,3.69,3.69,0,0,1,1.4-.37,8,8,0,0,1,1.83.08q0.36,0.05.75,0.15l1,0.22a2,2,0,0,0,0-.39V368a1.48,1.48,0,0,0-.43-1.16,2.41,2.41,0,0,0-1.28-.52,5.78,5.78,0,0,0-1.82,0,10.26,10.26,0,0,0-1.36.31Zm3.39,7.85a2.19,2.19,0,0,0,1.42-.14,1.89,1.89,0,0,0,.69-0.65v-1.2l-0.59-.18a7.19,7.19,0,0,0-.85-0.18,4,4,0,0,0-.75,0,2.21,2.21,0,0,0-.67.12,1.07,1.07,0,0,0-.47.32,0.84,0.84,0,0,0-.18.55,1.31,1.31,0,0,0,.32.92A1.75,1.75,0,0,0,93.2,372.32Z"/><path d="M110.84,375.89a4.9,4.9,0,0,1-1.91.66,8.09,8.09,0,0,1-2.29,0,7.11,7.11,0,0,1-2.3-.71,5.73,5.73,0,0,1-1.69-1.31,5.48,5.48,0,0,1-1-1.82,6.69,6.69,0,0,1-.36-2.21,5.23,5.23,0,0,1,.42-2.18,3.85,3.85,0,0,1,1.16-1.49,4.22,4.22,0,0,1,1.76-.78,6.51,6.51,0,0,1,2.21,0,8.78,8.78,0,0,1,2.09.56,11.13,11.13,0,0,1,1.49.71v3.52l-2.19-.31v-1.84a6,6,0,0,0-1.23-.32,3.58,3.58,0,0,0-1.1,0,2.24,2.24,0,0,0-1.67,1.23,2.83,2.83,0,0,0-.27,1.3,3.35,3.35,0,0,0,.22,1.21,3.36,3.36,0,0,0,1.6,1.8,3.91,3.91,0,0,0,1.3.42,4.45,4.45,0,0,0,1.86-.06,6.33,6.33,0,0,0,1.09-.41Z"/><path d="M114.22,369.52l-2-.27V367l2,0.27V365l2.59-.38c0,1.21,0,1.81,0,3l5.22,0.7v2.2l-5.22-.7v2.86a3.82,3.82,0,0,0,.58,2.31,2.32,2.32,0,0,0,1.61.91,3.32,3.32,0,0,0,1,0,3.2,3.2,0,0,0,.79-0.22,3.7,3.7,0,0,0,.64-0.35l0.53-.37,1.2,2a3.15,3.15,0,0,1-.85.62,6.24,6.24,0,0,1-2.32.66,5.71,5.71,0,0,1-1.26,0,4.94,4.94,0,0,1-3.36-1.71,6.48,6.48,0,0,1-1.13-4.13v-2.86Z"/><path d="M124.56,373.71a5.78,5.78,0,0,1,.38-2.19A3.84,3.84,0,0,1,126,370a3.9,3.9,0,0,1,1.66-.81,6.1,6.1,0,0,1,2.16-.07,6.79,6.79,0,0,1,2.24.67,5.54,5.54,0,0,1,1.67,1.28,5.31,5.31,0,0,1,1,1.8,6.81,6.81,0,0,1,.35,2.2,5.81,5.81,0,0,1-.38,2.19,3.77,3.77,0,0,1-2.74,2.34,6.07,6.07,0,0,1-2.16.07,6.75,6.75,0,0,1-2.24-.67,5.55,5.55,0,0,1-1.66-1.29,5.32,5.32,0,0,1-1-1.8A6.8,6.8,0,0,1,124.56,373.71Zm2.67,0.35a4.2,4.2,0,0,0,.18,1.24,3.49,3.49,0,0,0,.52,1,2.83,2.83,0,0,0,.82.76,2.75,2.75,0,0,0,1.1.37,2.27,2.27,0,0,0,1.88-.5,2.9,2.9,0,0,0,.73-2.25,3.85,3.85,0,0,0-.68-2.32,2.7,2.7,0,0,0-1.93-1.1,3,3,0,0,0-1,0,1.72,1.72,0,0,0-.83.44,2.28,2.28,0,0,0-.55.89A4.09,4.09,0,0,0,127.24,374.06Z"/><path d="M136.61,378.06l2.47,0.31c0-2.24,0-3.36,0-5.6l-2.47-.31c0-.88,0-1.32,0-2.2l4.49,0.56,0.3,1.36h0.08a4.42,4.42,0,0,1,1.28-.94,2.94,2.94,0,0,1,1.68-.24,2.6,2.6,0,0,1,1.89,1.11,5.25,5.25,0,0,1,.69,3l-2.34-.28a2.16,2.16,0,0,0-.21-1.08,0.85,0.85,0,0,0-.67-0.41,1.81,1.81,0,0,0-1.29.24,3.37,3.37,0,0,0-.83.82v4.26l4.33,0.52v2.2l-9.4-1.15C136.61,379.38,136.61,378.94,136.61,378.06Z"/><path d="M149,379.56l3.51,0.41v-5.6L149,374c0-.88,0-1.32,0-2.2l6.11,0.71c0,3.12,0,4.68,0,7.8l3.69,0.42v2.2c-3.92-.44-5.88-0.67-9.8-1.13v-2.2Zm3-10.16a1.26,1.26,0,0,1,.46-1,1.62,1.62,0,0,1,1.28-.29,2.18,2.18,0,0,1,1.34.59,1.55,1.55,0,0,1,.5,1.12,1.15,1.15,0,0,1-.5,1,1.88,1.88,0,0,1-1.34.26,2.07,2.07,0,0,1-1.28-.56A1.51,1.51,0,0,1,152,369.4Z"/><path d="M161.57,373.89a10.11,10.11,0,0,1,1.85-.42,10.31,10.31,0,0,1,2.49,0,5.86,5.86,0,0,1,1.77.44,3.42,3.42,0,0,1,1.18.84,3.1,3.1,0,0,1,.65,1.17,5.05,5.05,0,0,1,.2,1.46q0,1-.07,1.73c0,0.47-.07.9-0.07,1.27a8.72,8.72,0,0,0,0,.94c0,0.19,0,.37.06,0.55L171,382v2.2l-3.35-.36-0.26-1.39h-0.1a2.93,2.93,0,0,1-1.13.95,3.57,3.57,0,0,1-2,.23,3.74,3.74,0,0,1-2.36-1.06,3.05,3.05,0,0,1-.87-2.22,3,3,0,0,1,.31-1.42,2.19,2.19,0,0,1,.89-0.9,3.83,3.83,0,0,1,1.41-.42,8.07,8.07,0,0,1,1.84,0q0.36,0,.75.12l1,0.19a2,2,0,0,0,0-.4v-0.38a1.43,1.43,0,0,0-.44-1.14,2.33,2.33,0,0,0-1.29-.47,5.84,5.84,0,0,0-1.82.06,10.62,10.62,0,0,0-1.37.37Zm3.4,7.71a2.24,2.24,0,0,0,1.42-.19,2,2,0,0,0,.69-0.68v-1.2l-0.59-.15a7.09,7.09,0,0,0-.85-0.14,4,4,0,0,0-.75,0,2.28,2.28,0,0,0-.67.15,1.13,1.13,0,0,0-.47.34,0.86,0.86,0,0,0-.18.56,1.26,1.26,0,0,0,.33.91A1.69,1.69,0,0,0,165,381.6Z"/><path d="M173.5,370.49l4.26,0.44c0,3.7,0,5.54,0,9.24a4.54,4.54,0,0,0,.38,2.18,1.5,1.5,0,0,0,1.22.72,3.27,3.27,0,0,0,1,0,3.5,3.5,0,0,0,.8-0.29l1,1.9-0.68.34a3.94,3.94,0,0,1-.72.25,4.61,4.61,0,0,1-.83.12,6.51,6.51,0,0,1-1,0,4.17,4.17,0,0,1-2.82-1.25,4.09,4.09,0,0,1-.94-2.82c0-3.36,0-5,0-8.4l-1.66-.17v-2.2Z"/><path d="M185.31,388l8.88,0.85V391l-8.88-.85V388Z"/><path d="M195.75,372.68l4,0.37c0,2,0,3.07,0,5.12h0.08a3,3,0,0,1,1.28-.91,4.18,4.18,0,0,1,1.88-.21,4.94,4.94,0,0,1,1.4.32,3,3,0,0,1,1.1.76,3.48,3.48,0,0,1,.72,1.31,6.54,6.54,0,0,1,.26,2v6.22l-2.6-.23c0-2.27,0-3.41,0-5.68a2.66,2.66,0,0,0-.52-1.81,2,2,0,0,0-1.36-.66,2.12,2.12,0,0,0-1.36.33,2.15,2.15,0,0,0-.88,1.07V387l-2.6-.24c0-4.72,0-7.08,0-11.8l-1.44-.13C195.75,374,195.75,373.56,195.75,372.68Z"/><path d="M218.43,387.57a3.22,3.22,0,0,1-.67.42,6,6,0,0,1-1,.35,7,7,0,0,1-1.21.22,7.72,7.72,0,0,1-1.4,0,7.1,7.1,0,0,1-2.29-.55,5,5,0,0,1-2.78-2.94,6.41,6.41,0,0,1-.37-2.24,5.61,5.61,0,0,1,.42-2.27,4.11,4.11,0,0,1,1.15-1.55,4.34,4.34,0,0,1,1.71-.85,6.46,6.46,0,0,1,2.12-.15,6.87,6.87,0,0,1,1.57.33,4.74,4.74,0,0,1,1.49.81,4.14,4.14,0,0,1,1.11,1.4,4.67,4.67,0,0,1,.43,2.11,9.32,9.32,0,0,1-.2,1.84l-7.2-.59a2.45,2.45,0,0,0,.27,1.1,2.41,2.41,0,0,0,.66.77,3.15,3.15,0,0,0,.94.49,4.9,4.9,0,0,0,1.13.22,5.69,5.69,0,0,0,2-.12,3.76,3.76,0,0,0,1.25-.58Zm-4.32-7.49a3.23,3.23,0,0,0-1,.06,2.5,2.5,0,0,0-.83.35,2,2,0,0,0-.61.63,2,2,0,0,0-.28.89l4.92,0.4A2.17,2.17,0,0,0,214.11,380.08Z"/><path d="M221.5,374.87l4.26,0.33c0,3.7,0,5.54,0,9.24a4.47,4.47,0,0,0,.38,2.17,1.46,1.46,0,0,0,1.22.69,3.29,3.29,0,0,0,1-.05,3.6,3.6,0,0,0,.8-0.31l1,1.87-0.68.36a4.06,4.06,0,0,1-.72.27,4.68,4.68,0,0,1-.83.14,6.52,6.52,0,0,1-1,0,4.07,4.07,0,0,1-2.82-1.17,4,4,0,0,1-.94-2.79v-8.4l-1.66-.13v-2.2Z"/><path d="M231.77,379.65l3.4,0.24,0.3,1.22h0.08a3.58,3.58,0,0,1,3.36-1.25,5,5,0,0,1,1.69.41,3.62,3.62,0,0,1,1.32,1,4.63,4.63,0,0,1,.85,1.62,7.66,7.66,0,0,1,.3,2.28,7.12,7.12,0,0,1-.34,2.29,4.51,4.51,0,0,1-1,1.68,3.84,3.84,0,0,1-1.56,1,5.31,5.31,0,0,1-2.1.24,8.37,8.37,0,0,1-1.22-.17,3.6,3.6,0,0,1-1-.36c0,1.64,0,2.46,0,4.1l-2.6-.18c0-4.72,0-7.08,0-11.8l-1.5-.11v-2.2Zm6.37,2.37a2.53,2.53,0,0,0-1.39.28,1.79,1.79,0,0,0-.87,1.08v4.16a2.31,2.31,0,0,0,.81.41,4.6,4.6,0,0,0,1.07.2,2.73,2.73,0,0,0,1-.12,1.94,1.94,0,0,0,.84-0.55,2.73,2.73,0,0,0,.56-1,5.07,5.07,0,0,0,.2-1.53,3.14,3.14,0,0,0-.64-2.08A2.24,2.24,0,0,0,238.13,382Z"/><path d="M254.48,390.09a3.28,3.28,0,0,1-.67.43,6.05,6.05,0,0,1-1,.37,7.12,7.12,0,0,1-1.21.25,7.73,7.73,0,0,1-1.4,0,7,7,0,0,1-2.29-.5,4.91,4.91,0,0,1-2.78-2.89,6.35,6.35,0,0,1-.37-2.23,5.66,5.66,0,0,1,.42-2.28,4.23,4.23,0,0,1,1.15-1.58,4.45,4.45,0,0,1,1.71-.88,6.5,6.5,0,0,1,2.12-.2,6.8,6.8,0,0,1,1.57.3,4.62,4.62,0,0,1,1.49.78,4,4,0,0,1,1.11,1.38,4.62,4.62,0,0,1,.43,2.11,9.3,9.3,0,0,1-.2,1.85l-7.21-.45a2.41,2.41,0,0,0,.27,1.1,2.34,2.34,0,0,0,.66.76,3.08,3.08,0,0,0,.94.47,4.85,4.85,0,0,0,1.13.2,5.73,5.73,0,0,0,2-.16,3.87,3.87,0,0,0,1.25-.6Zm-4.33-7.4a3.25,3.25,0,0,0-1,.08,2.56,2.56,0,0,0-.83.37,2.09,2.09,0,0,0-.61.64,2,2,0,0,0-.28.9l4.93,0.31A2.12,2.12,0,0,0,250.15,382.68Z"/><path d="M256.58,389.07l2.48,0.14v-5.6l-2.48-.14v-2.2l4.51,0.26,0.3,1.34h0.08a4.88,4.88,0,0,1,1.28-1,3.06,3.06,0,0,1,1.68-.35,2.42,2.42,0,0,1,1.89,1,5,5,0,0,1,.69,3l-2.34-.13a2.08,2.08,0,0,0-.21-1.06,0.79,0.79,0,0,0-.67-0.37,1.9,1.9,0,0,0-1.29.33,3.7,3.7,0,0,0-.83.87v4.26L266,389.6v2.2l-9.44-.53v-2.2Z"/><path d="M276.94,396.59a9.73,9.73,0,0,1-2.73-1,8.56,8.56,0,0,1-2.34-1.9,9,9,0,0,1-1.63-2.8,10.64,10.64,0,0,1-.61-3.75,10.15,10.15,0,0,1,.61-3.68,8.14,8.14,0,0,1,1.63-2.67,7.57,7.57,0,0,1,2.34-1.7,9.54,9.54,0,0,1,2.73-.81l0.48,2.16a8,8,0,0,0-1.59.49,5.44,5.44,0,0,0-1.69,1.14,6.27,6.27,0,0,0-1.35,2,7.91,7.91,0,0,0-.55,3.17,7.58,7.58,0,0,0,.58,3.13,7.36,7.36,0,0,0,1.41,2.14,6.71,6.71,0,0,0,1.71,1.3,7.17,7.17,0,0,0,1.48.6Z"/><path d="M284.82,390.79a4,4,0,0,0,1.21-.12,2.73,2.73,0,0,0,.94-0.44,2.16,2.16,0,0,0,.61-0.69,1.78,1.78,0,0,0,.22-0.88,2,2,0,0,0-.25-1,1.93,1.93,0,0,0-.69-0.68,3.46,3.46,0,0,0-1.06-.38,8.66,8.66,0,0,0-1.34-.16l-1.12,0V385l3.37-4-5.07-.22c0-.88,0-1.32,0-2.2l8.18,0.35c0,0.73,0,1.09,0,1.82l-3.53,3.87,0.46,0a4.07,4.07,0,0,1,1.36.3,3.59,3.59,0,0,1,1.17.77,3.76,3.76,0,0,1,.82,1.23,4.26,4.26,0,0,1,.31,1.67,4,4,0,0,1-.47,2,4.31,4.31,0,0,1-1.24,1.4,5.07,5.07,0,0,1-1.77.81,7.25,7.25,0,0,1-2.06.2,10.42,10.42,0,0,1-1.8-.24,9,9,0,0,1-1.74-.58L282,390a2.88,2.88,0,0,0,.49.22l0.7,0.23a7.82,7.82,0,0,0,.8.19A5.73,5.73,0,0,0,284.82,390.79Z"/><path d="M296.25,391.89a1.32,1.32,0,0,1,.45-1.06,1.6,1.6,0,0,1,1.13-.36,2.06,2.06,0,0,1,1.66.78,2.89,2.89,0,0,1,.56,1.8,3.7,3.7,0,0,1-.35,1.63,4.12,4.12,0,0,1-.91,1.25,4.71,4.71,0,0,1-1.25.83,5,5,0,0,1-1.37.41L295.63,396a5.6,5.6,0,0,0,1-.3,3.7,3.7,0,0,0,.89-0.52,2.92,2.92,0,0,0,.67-0.75,2.05,2.05,0,0,0,.31-0.95,2.55,2.55,0,0,1-1,0,1.61,1.61,0,0,1-.69-0.34,1.38,1.38,0,0,1-.39-0.57A2.11,2.11,0,0,1,296.25,391.89Z"/><path d="M314.4,393.75l-8.94-.26c0-.78,0-1.16,0-1.94l0.6-.51,0.81-.72q0.45-.41,1-0.89t1-1q0.68-.74,1.19-1.34a9.34,9.34,0,0,0,.84-1.15,4.67,4.67,0,0,0,.49-1.06,3.69,3.69,0,0,0,.16-1.09,1.83,1.83,0,0,0-.18-0.78,2.22,2.22,0,0,0-.5-0.68,2.49,2.49,0,0,0-.77-0.48,2.85,2.85,0,0,0-1-.2,3.71,3.71,0,0,0-1.31.18,4.31,4.31,0,0,0-1.23.7l-1-1.87a8.53,8.53,0,0,1,1.88-1,6.34,6.34,0,0,1,2.38-.34,5.76,5.76,0,0,1,1.65.29,4.51,4.51,0,0,1,1.4.75,3.6,3.6,0,0,1,1,1.2,3.54,3.54,0,0,1,.36,1.63,6,6,0,0,1-.11,1.19,5.64,5.64,0,0,1-.34,1.09,7.23,7.23,0,0,1-.6,1.11q-0.37.57-.89,1.23-0.4.51-.87,1t-0.93,1q-0.46.47-.91,0.87t-0.81.68l5.78,0.17v2.2Z"/><path d="M318.35,395.91a6.71,6.71,0,0,0,1.48-.49,6.06,6.06,0,0,0,1.71-1.18,6.64,6.64,0,0,0,1.41-2,7.28,7.28,0,0,0,.58-3.09,8.21,8.21,0,0,0-.55-3.21,6.93,6.93,0,0,0-1.35-2.12,6,6,0,0,0-1.69-1.26,8.65,8.65,0,0,0-1.59-.61l0.48-2.13a10.18,10.18,0,0,1,2.73,1,8.39,8.39,0,0,1,2.35,1.87,8.94,8.94,0,0,1,1.63,2.78,10.51,10.51,0,0,1,.61,3.72,10.28,10.28,0,0,1-.61,3.71,8.22,8.22,0,0,1-1.63,2.68,7.72,7.72,0,0,1-2.35,1.73,9.13,9.13,0,0,1-2.73.81Z"/><path d="M401.63,394v-2.2l2.37-.05v-5.6l-2.39.05V384L404,384v-0.56a3.71,3.71,0,0,1,.33-1.63,3.35,3.35,0,0,1,.87-1.14,3.68,3.68,0,0,1,1.25-.68,5.26,5.26,0,0,1,1.47-.24,9.32,9.32,0,0,1,2.28.17,5.7,5.7,0,0,1,1.47.53l-0.76,2a9,9,0,0,0-1-.38,4.34,4.34,0,0,0-1.37-.15,2,2,0,0,0-1.52.53,2.21,2.21,0,0,0-.43,1.48l4.21-.1V386l-4.21.1v5.6l4.23-.1v2.2Z"/><path d="M414,384.41a11.43,11.43,0,0,1,1.86-.67,10.7,10.7,0,0,1,2.5-.33,5.49,5.49,0,0,1,1.78.2,2.85,2.85,0,0,1,1.18.67,2.6,2.6,0,0,1,.65,1.08,4.76,4.76,0,0,1,.2,1.43q0,1-.07,1.74c0,0.48-.07.91-0.07,1.28a8.64,8.64,0,0,0,0,.94c0,0.18,0,.37.06,0.54l1.3,0c0,0.88,0,1.32,0,2.2l-3.37.11-0.26-1.35h-0.1a3.6,3.6,0,0,1-1.14,1.1,3.88,3.88,0,0,1-2,.51,3.3,3.3,0,0,1-2.37-.73,2.66,2.66,0,0,1-.88-2.1,3.23,3.23,0,0,1,.31-1.46,2.7,2.7,0,0,1,.9-1,4.41,4.41,0,0,1,1.42-.62,8.35,8.35,0,0,1,1.84-.24q0.36,0,.76,0l1,0.05a2.14,2.14,0,0,0,0-.4v-0.38a1.24,1.24,0,0,0-.44-1.08,2.09,2.09,0,0,0-1.29-.29,6.14,6.14,0,0,0-1.83.31,12.11,12.11,0,0,0-1.37.56Zm3.41,7.24a2.24,2.24,0,0,0,2.12-1.16v-1.2l-0.6-.07a6.85,6.85,0,0,0-.85,0,4.14,4.14,0,0,0-.75.09,2.57,2.57,0,0,0-.67.24,1.38,1.38,0,0,0-.48.4,1,1,0,0,0-.18.59,1.11,1.11,0,0,0,.33.86A1.51,1.51,0,0,0,417.46,391.65Z"/><path d="M435.22,392.07a6,6,0,0,1-1.92,1,8.57,8.57,0,0,1-2.31.4,6.44,6.44,0,0,1-2.32-.3,4.51,4.51,0,0,1-1.7-1,4.34,4.34,0,0,1-1.05-1.63,6.12,6.12,0,0,1-.36-2.15,5.73,5.73,0,0,1,.42-2.25,5,5,0,0,1,1.17-1.7,5.3,5.3,0,0,1,1.77-1.09,7,7,0,0,1,2.23-.43,8.12,8.12,0,0,1,2.11.18,9.4,9.4,0,0,1,1.5.44c0,1.41,0,2.11,0,3.52l-2.21.08v-1.84a5.57,5.57,0,0,0-1.24-.09,3.83,3.83,0,0,0-1.11.21,2.85,2.85,0,0,0-1,.58,3,3,0,0,0-.7,1,3.11,3.11,0,0,0-.27,1.35,3,3,0,0,0,.22,1.17,2.68,2.68,0,0,0,.62.92,2.71,2.71,0,0,0,1,.59,3.53,3.53,0,0,0,1.31.18,4.8,4.8,0,0,0,1.87-.39,7.73,7.73,0,0,0,1.09-.6Z"/><path d="M438.63,385.09l-2,.08c0-.88,0-1.32,0-2.2l2-.08c0-.91,0-1.37,0-2.28l2.61-.85c0,1.21,0,1.81,0,3l5.25-.23v2.2l-5.25.23v2.86a3.34,3.34,0,0,0,.58,2.21,1.92,1.92,0,0,0,1.62.62,3.54,3.54,0,0,0,1-.17,3.85,3.85,0,0,0,.79-0.37,4.75,4.75,0,0,0,.64-0.47l0.53-.46,1.2,1.75a4.11,4.11,0,0,1-.85.77,7.63,7.63,0,0,1-1.1.63,7.14,7.14,0,0,1-1.23.44,6,6,0,0,1-1.26.2,4.16,4.16,0,0,1-3.38-1.11,5.61,5.61,0,0,1-1.13-3.92v-2.86Z"/><path d="M449,387.44a6.28,6.28,0,0,1,.38-2.26,4.82,4.82,0,0,1,2.76-2.82,6.58,6.58,0,0,1,2.17-.46,6.17,6.17,0,0,1,2.25.27,4.36,4.36,0,0,1,1.67,1,4.2,4.2,0,0,1,1,1.62,6.22,6.22,0,0,1,.35,2.14,6.32,6.32,0,0,1-.38,2.26,4.84,4.84,0,0,1-2.76,2.83,6.54,6.54,0,0,1-2.17.46,6.13,6.13,0,0,1-2.25-.27,4.37,4.37,0,0,1-1.67-1,4.22,4.22,0,0,1-1-1.62A6.23,6.23,0,0,1,449,387.44Zm2.69-.13a3.9,3.9,0,0,0,.18,1.21,2.82,2.82,0,0,0,.52,1,2.2,2.2,0,0,0,.82.61,2.46,2.46,0,0,0,1.1.18,2.68,2.68,0,0,0,1.89-.83,3.36,3.36,0,0,0,.73-2.38,3.32,3.32,0,0,0-.68-2.2,2.24,2.24,0,0,0-1.94-.75,3.2,3.2,0,0,0-1,.22,2.19,2.19,0,0,0-.83.59,2.86,2.86,0,0,0-.55,1A4.39,4.39,0,0,0,451.72,387.31Z"/><path d="M461.14,389.63l2.48-.13c0-2.24,0-3.36,0-5.6l-2.48.13c0-.88,0-1.32,0-2.2l4.51-.25,0.3,1.3H466a5.75,5.75,0,0,1,1.28-1.17,3.32,3.32,0,0,1,1.68-.54,2.15,2.15,0,0,1,1.89.77,4.64,4.64,0,0,1,.69,2.9l-2.34.14a2,2,0,0,0-.21-1,0.7,0.7,0,0,0-.67-0.29,2.09,2.09,0,0,0-1.29.47,4.37,4.37,0,0,0-.83,1c0,1.7,0,2.56,0,4.26l4.35-.25v2.2l-9.44.53C461.14,391,461.14,390.51,461.14,389.63Z"/><path d="M473.56,388.93l3.53-.22v-5.6l-3.53.22c0-.88,0-1.32,0-2.2l6.13-.38c0,3.12,0,4.68,0,7.8l3.71-.24c0,0.88,0,1.32,0,2.2-3.93.26-5.9,0.38-9.84,0.62C473.56,390.25,473.56,389.81,473.56,388.93Zm3-10.7a1.51,1.51,0,0,1,.46-1.09,1.89,1.89,0,0,1,1.28-.52,1.87,1.87,0,0,1,1.34.35,1.28,1.28,0,0,1,.5,1,1.39,1.39,0,0,1-.5,1.08,2.17,2.17,0,0,1-1.34.49,1.77,1.77,0,0,1-1.28-.33A1.26,1.26,0,0,1,476.61,378.23Z"/><path d="M486.2,381a11.85,11.85,0,0,1,1.85-.75,10.87,10.87,0,0,1,2.49-.43,5.41,5.41,0,0,1,1.77.13,2.71,2.71,0,0,1,1.18.63,2.47,2.47,0,0,1,.65,1.05,4.69,4.69,0,0,1,.2,1.43q0,1-.07,1.75c0,0.48-.07.91-0.07,1.29a8.6,8.6,0,0,0,0,.94c0,0.18,0,.36.06,0.54l1.3-.09c0,0.88,0,1.32,0,2.2l-3.36.24L492,388.57h-0.1a3.81,3.81,0,0,1-1.13,1.15,4,4,0,0,1-2,.59,3.19,3.19,0,0,1-2.37-.64,2.55,2.55,0,0,1-.88-2.06,3.31,3.31,0,0,1,.31-1.47,2.85,2.85,0,0,1,.9-1.06,4.61,4.61,0,0,1,1.41-.68,8.47,8.47,0,0,1,1.84-.32q0.36,0,.76,0h1a2.17,2.17,0,0,0,0-.4v-0.38a1.19,1.19,0,0,0-.44-1.06A2,2,0,0,0,490,382a6.26,6.26,0,0,0-1.83.39,12.62,12.62,0,0,0-1.37.61Zm3.41,7.11a2.53,2.53,0,0,0,1.43-.45,2.62,2.62,0,0,0,.69-0.8v-1.2l-0.59,0a6.84,6.84,0,0,0-.85,0,4.2,4.2,0,0,0-.75.12,2.66,2.66,0,0,0-.67.27,1.46,1.46,0,0,0-.48.42,1,1,0,0,0-.18.59,1.07,1.07,0,0,0,.33.85A1.46,1.46,0,0,0,489.61,388.12Z"/><path d="M498.16,375.49l4.26-.32c0,3.7,0,5.54,0,9.24a4.11,4.11,0,0,0,.38,2.11A1.23,1.23,0,0,0,504,387a3.48,3.48,0,0,0,1-.21,4.27,4.27,0,0,0,.8-0.43l1,1.72-0.68.46a4.79,4.79,0,0,1-.72.38,5.19,5.19,0,0,1-.83.26,6.74,6.74,0,0,1-1,.15,3.56,3.56,0,0,1-2.82-.75,3.48,3.48,0,0,1-.94-2.65c0-3.36,0-5,0-8.4l-1.66.12C498.16,376.81,498.16,376.37,498.16,375.49Z"/><path d="M510,390.92l8.89-.73v2.14l-8.89.73C510,392.2,510,391.77,510,390.92Z"/><path d="M520.43,373.71l4-.35c0,2,0,3.07,0,5.12h0.08a3.84,3.84,0,0,1,1.28-1.13,4.63,4.63,0,0,1,1.88-.55,4.58,4.58,0,0,1,1.4.07,2.38,2.38,0,0,1,1.1.56,2.77,2.77,0,0,1,.72,1.18,6.09,6.09,0,0,1,.26,1.93v6.22l-2.6.24c0-2.27,0-3.41,0-5.68a2.3,2.3,0,0,0-.52-1.71,1.67,1.67,0,0,0-1.36-.42,2.47,2.47,0,0,0-1.36.57,2.77,2.77,0,0,0-.88,1.23v6.38l-2.6.23v-11.8l-1.44.12v-2.2Z"/><path d="M543.11,384.56a4.1,4.1,0,0,1-.67.54,7.32,7.32,0,0,1-1,.52,8.12,8.12,0,0,1-2.61.69,6.55,6.55,0,0,1-2.29-.14,3.93,3.93,0,0,1-2.78-2.45,5.88,5.88,0,0,1-.37-2.18,6.16,6.16,0,0,1,.42-2.35,5.25,5.25,0,0,1,1.15-1.76,5.44,5.44,0,0,1,1.71-1.15,7,7,0,0,1,2.12-.53,6.42,6.42,0,0,1,1.57,0,3.87,3.87,0,0,1,1.49.55,3.21,3.21,0,0,1,1.11,1.2,4.21,4.21,0,0,1,.43,2,9.79,9.79,0,0,1-.2,1.88l-7.2.69a2.16,2.16,0,0,0,.27,1.05,1.85,1.85,0,0,0,.66.66,2.59,2.59,0,0,0,.94.32,4.62,4.62,0,0,0,1.13,0,6.16,6.16,0,0,0,2-.47,4.73,4.73,0,0,0,1.25-.8Zm-4.32-6.72a3.49,3.49,0,0,0-1,.24,3.11,3.11,0,0,0-.83.5,2.61,2.61,0,0,0-.61.74,2.28,2.28,0,0,0-.28.94l4.92-.47A1.78,1.78,0,0,0,538.79,377.84Z"/><path d="M546.17,371.32l4.26-.43c0,3.7,0,5.54,0,9.24a4.05,4.05,0,0,0,.38,2.1,1.2,1.2,0,0,0,1.22.48,3.53,3.53,0,0,0,1-.24,4.41,4.41,0,0,0,.8-0.45l1,1.7-0.68.48a5,5,0,0,1-.72.39,5.3,5.3,0,0,1-.83.29,6.79,6.79,0,0,1-1,.17,3.48,3.48,0,0,1-2.82-.67,3.4,3.4,0,0,1-.94-2.63c0-3.36,0-5,0-8.4l-1.66.17C546.17,372.64,546.17,372.2,546.17,371.32Z"/><path d="M556.42,374.27l3.4-.36,0.3,1.17h0.08a4.31,4.31,0,0,1,3.35-1.85,4.58,4.58,0,0,1,1.69.1,2.85,2.85,0,0,1,1.32.76,3.72,3.72,0,0,1,.85,1.47,7.15,7.15,0,0,1,.3,2.23,7.72,7.72,0,0,1-.34,2.35,5.65,5.65,0,0,1-1,1.86,4.92,4.92,0,0,1-1.56,1.27,5.85,5.85,0,0,1-2.1.61,8.1,8.1,0,0,1-1.22,0,3.13,3.13,0,0,1-1-.18c0,1.64,0,2.46,0,4.1l-2.6.28c0-4.72,0-7.08,0-11.8l-1.5.16v-2.2Zm6.35,1.24a2.9,2.9,0,0,0-1.39.53,2.29,2.29,0,0,0-.87,1.23v4.16a1.91,1.91,0,0,0,.81.26,4.34,4.34,0,0,0,1.07,0,3,3,0,0,0,1-.3,2.5,2.5,0,0,0,.84-0.7,3.41,3.41,0,0,0,.56-1.12A5.45,5.45,0,0,0,565,378a2.71,2.71,0,0,0-.64-2A1.87,1.87,0,0,0,562.77,375.5Z"/><path d="M579.06,380.67a4.21,4.21,0,0,1-.67.55,7.5,7.5,0,0,1-1,.54,8.22,8.22,0,0,1-2.6.74,6.51,6.51,0,0,1-2.29-.1,3.82,3.82,0,0,1-2.78-2.39,5.83,5.83,0,0,1-.37-2.17,6.24,6.24,0,0,1,.42-2.36,5.4,5.4,0,0,1,1.15-1.78,5.58,5.58,0,0,1,1.71-1.19,7.09,7.09,0,0,1,2.12-.57,6.41,6.41,0,0,1,1.57,0,3.79,3.79,0,0,1,1.49.52,3.11,3.11,0,0,1,1.11,1.18,4.16,4.16,0,0,1,.43,2,9.87,9.87,0,0,1-.2,1.88l-7.19.84a2.13,2.13,0,0,0,.27,1,1.8,1.8,0,0,0,.66.64,2.54,2.54,0,0,0,.94.3,4.6,4.6,0,0,0,1.13,0,6.23,6.23,0,0,0,2-.51,4.85,4.85,0,0,0,1.25-.83ZM574.75,374a3.53,3.53,0,0,0-1,.26,3.18,3.18,0,0,0-.83.51,2.69,2.69,0,0,0-.61.75,2.31,2.31,0,0,0-.28.95l4.91-.57a2,2,0,0,0-.55-1.51A2,2,0,0,0,574.75,374Z"/><path d="M581.16,379.28l2.47-.3v-5.6l-2.47.3v-2.2l4.49-.54,0.3,1.28H586A6.33,6.33,0,0,1,587.3,371a3.5,3.5,0,0,1,1.68-.65,2,2,0,0,1,1.88.65,4.44,4.44,0,0,1,.69,2.85l-2.33.29a1.88,1.88,0,0,0-.21-1,0.65,0.65,0,0,0-.67-0.25,2.21,2.21,0,0,0-1.29.56,4.8,4.8,0,0,0-.83,1v4.26l4.33-.53v2.2l-9.4,1.15C581.16,380.6,581.16,380.16,581.16,379.28Z"/><path d="M601.42,383.18a8.4,8.4,0,0,1-2.71-.53,6.64,6.64,0,0,1-2.33-1.48,7.15,7.15,0,0,1-1.63-2.51,9.8,9.8,0,0,1-.61-3.64,11.1,11.1,0,0,1,.61-3.79,10.26,10.26,0,0,1,1.63-3,9.77,9.77,0,0,1,2.33-2.12,11.3,11.3,0,0,1,2.71-1.29l0.48,2.08a9.56,9.56,0,0,0-1.58.78,7,7,0,0,0-1.69,1.44,8,8,0,0,0-1.35,2.26,8.69,8.69,0,0,0-.55,3.27,6.9,6.9,0,0,0,.58,3,5.74,5.74,0,0,0,1.4,1.89,5.23,5.23,0,0,0,1.7,1,6.12,6.12,0,0,0,1.48.34Z"/><path d="M615.19,372.75a4.84,4.84,0,0,1-.37,1.87,5.54,5.54,0,0,1-1,1.6,5.68,5.68,0,0,1-1.52,1.19,5.5,5.5,0,0,1-1.9.62,5.4,5.4,0,0,1-1.94-.07,3.7,3.7,0,0,1-1.59-.78,3.93,3.93,0,0,1-1.08-1.52,5.83,5.83,0,0,1-.4-2.27,9.81,9.81,0,0,1,.69-3.69,11.88,11.88,0,0,1,1.76-3,11.21,11.21,0,0,1,2.41-2.25,9.32,9.32,0,0,1,2.65-1.29l0.58,2a8.91,8.91,0,0,0-3.61,2.23,8,8,0,0,0-1.21,1.58,5.76,5.76,0,0,0-.67,1.71,3.72,3.72,0,0,1,1.2-1,4.77,4.77,0,0,1,1.75-.59,4.56,4.56,0,0,1,1.67.06,3.13,3.13,0,0,1,2.24,1.88A4.42,4.42,0,0,1,615.19,372.75Zm-2.51.45a1.79,1.79,0,0,0-.65-1.55,2.34,2.34,0,0,0-1.74-.32,3.22,3.22,0,0,0-1.44.55,3.1,3.1,0,0,0-.94,1,3.51,3.51,0,0,0,0,.5c0,0.18,0,.32,0,0.43a2.5,2.5,0,0,0,.16.9,1.81,1.81,0,0,0,1.22,1.13,2.42,2.42,0,0,0,1,.05,2.71,2.71,0,0,0,.9-0.29,3.09,3.09,0,0,0,.78-0.58,2.82,2.82,0,0,0,.55-0.81A2.33,2.33,0,0,0,612.68,373.19Z"/><path d="M620.61,375a1.58,1.58,0,0,1,.45-1.14,1.89,1.89,0,0,1,1.13-.56,1.72,1.72,0,0,1,1.65.48,2.5,2.5,0,0,1,.56,1.7,4.14,4.14,0,0,1-.35,1.69,5.29,5.29,0,0,1-.91,1.41,6.05,6.05,0,0,1-1.24,1.06,5.87,5.87,0,0,1-1.36.65l-0.54-1a6.66,6.66,0,0,0,1-.48,4.7,4.7,0,0,0,.89-0.68,3.78,3.78,0,0,0,.67-0.86,2.4,2.4,0,0,0,.31-1,2.61,2.61,0,0,1-1,.17,1.32,1.32,0,0,1-.69-0.22,1.08,1.08,0,0,1-.39-0.51A1.94,1.94,0,0,1,620.61,375Z"/><path d="M630.32,372.73l3-.45c0-3.5,0-5.24,0-8.74l-2.63,2.41-1.19-1.42,4.54-4.15,1.75-.26c0,4.72,0,7.08,0,11.8l3-.45v2.2l-8.5,1.27v-2.2Z"/><path d="M642.54,375.15a8,8,0,0,0,1.47-.76,7.78,7.78,0,0,0,1.7-1.48,8.47,8.47,0,0,0,1.4-2.29,8.08,8.08,0,0,0,.58-3.19,7.54,7.54,0,0,0-.55-3.11,5.42,5.42,0,0,0-1.34-1.88,4.69,4.69,0,0,0-1.68-1,7.39,7.39,0,0,0-1.58-.33l0.48-2.21a8.73,8.73,0,0,1,2.7.52,6.48,6.48,0,0,1,2.33,1.46,7.07,7.07,0,0,1,1.62,2.49,9.71,9.71,0,0,1,.61,3.61,11.28,11.28,0,0,1-.61,3.82,10.36,10.36,0,0,1-1.62,3,9.94,9.94,0,0,1-2.33,2.14,10.76,10.76,0,0,1-2.7,1.3Z"/><path d="M77.51,319.9v-2.2l2.34,0.37c0-2.24,0-3.36,0-5.6l-2.37-.37v-2.2l2.37,0.37v-0.56a3.37,3.37,0,0,1,.33-1.57,2.6,2.6,0,0,1,.86-1,3,3,0,0,1,1.24-.46,5,5,0,0,1,1.46,0,10,10,0,0,1,2.26.58,6.86,6.86,0,0,1,1.46.79l-0.76,1.87a10.8,10.8,0,0,0-1-.55,4.73,4.73,0,0,0-1.36-.39,1.72,1.72,0,0,0-1.5.26,1.92,1.92,0,0,0-.43,1.4l4.18,0.64c0,0.88,0,1.32,0,2.2l-4.18-.64c0,2.24,0,3.36,0,5.6l4.2,0.65v2.2C83,320.76,81.16,320.47,77.51,319.9Z"/><path d="M89.82,312.48a9.81,9.81,0,0,1,1.84-.34,10.27,10.27,0,0,1,2.48.11,6,6,0,0,1,1.76.51,3.6,3.6,0,0,1,1.17.88,3.26,3.26,0,0,1,.65,1.2,5.15,5.15,0,0,1,.2,1.47q0,1-.07,1.73c0,0.47-.07.9-0.07,1.27a8.8,8.8,0,0,0,0,.95c0,0.19,0,.37.06,0.55L99.17,321v2.2l-3.34-.49-0.26-1.4h-0.1a2.77,2.77,0,0,1-1.13.9,3.5,3.5,0,0,1-2,.16A3.89,3.89,0,0,1,90,321.19a3.18,3.18,0,0,1-.87-2.25,2.92,2.92,0,0,1,.31-1.4,2.07,2.07,0,0,1,.89-0.87,3.69,3.69,0,0,1,1.4-.37,8,8,0,0,1,1.83.08q0.36,0.05.75,0.15l1,0.22a2,2,0,0,0,0-.39V316a1.48,1.48,0,0,0-.43-1.16,2.41,2.41,0,0,0-1.28-.52,5.79,5.79,0,0,0-1.82,0,10.27,10.27,0,0,0-1.36.31Zm3.39,7.85a2.19,2.19,0,0,0,1.42-.14,1.89,1.89,0,0,0,.69-0.65v-1.2l-0.59-.18a7.19,7.19,0,0,0-.85-0.18,4,4,0,0,0-.75,0,2.21,2.21,0,0,0-.67.12,1.07,1.07,0,0,0-.47.32,0.84,0.84,0,0,0-.18.55,1.31,1.31,0,0,0,.32.92A1.75,1.75,0,0,0,93.2,320.33Z"/><path d="M110.84,323.88a4.91,4.91,0,0,1-1.91.66,8.09,8.09,0,0,1-2.29,0,7.1,7.1,0,0,1-2.3-.71,5.73,5.73,0,0,1-1.69-1.31,5.48,5.48,0,0,1-1-1.82,6.69,6.69,0,0,1-.36-2.21,5.23,5.23,0,0,1,.42-2.18,3.85,3.85,0,0,1,1.16-1.49,4.23,4.23,0,0,1,1.76-.78,6.52,6.52,0,0,1,2.21,0,8.78,8.78,0,0,1,2.09.55,11.12,11.12,0,0,1,1.49.71c0,1.41,0,2.11,0,3.52l-2.19-.31v-1.84a6,6,0,0,0-1.24-.31,3.59,3.59,0,0,0-1.1,0,2.24,2.24,0,0,0-1.67,1.23,2.83,2.83,0,0,0-.27,1.3,3.35,3.35,0,0,0,.22,1.21,3.35,3.35,0,0,0,1.6,1.8,3.9,3.9,0,0,0,1.3.41,4.45,4.45,0,0,0,1.86-.06,6.33,6.33,0,0,0,1.09-.41Z"/><path d="M114.22,317.51l-2-.27V315l2,0.27V313l2.59-.39c0,1.21,0,1.81,0,3l5.22,0.7v2.2l-5.22-.7c0,1.14,0,1.72,0,2.86a3.82,3.82,0,0,0,.58,2.31,2.31,2.31,0,0,0,1.61.91,3.34,3.34,0,0,0,1,0,3.23,3.23,0,0,0,.79-0.23,3.71,3.71,0,0,0,.64-0.36l0.53-.37,1.2,2a3.16,3.16,0,0,1-.85.62,6.25,6.25,0,0,1-2.32.66,5.71,5.71,0,0,1-1.26,0,4.94,4.94,0,0,1-3.36-1.7,6.47,6.47,0,0,1-1.13-4.12C114.22,319.22,114.22,318.65,114.22,317.51Z"/><path d="M124.57,321.68a5.78,5.78,0,0,1,.38-2.19A3.85,3.85,0,0,1,126,318a3.9,3.9,0,0,1,1.66-.81,6.11,6.11,0,0,1,2.16-.07,6.78,6.78,0,0,1,2.24.66,5.53,5.53,0,0,1,1.67,1.28,5.29,5.29,0,0,1,1,1.8,6.81,6.81,0,0,1,.35,2.2,5.82,5.82,0,0,1-.38,2.19,3.78,3.78,0,0,1-2.74,2.35,6.07,6.07,0,0,1-2.16.08,6.74,6.74,0,0,1-2.24-.67,5.53,5.53,0,0,1-1.66-1.28,5.31,5.31,0,0,1-1-1.8A6.8,6.8,0,0,1,124.57,321.68Zm2.67,0.35a4.19,4.19,0,0,0,.18,1.24,3.48,3.48,0,0,0,.52,1,2.82,2.82,0,0,0,.82.75,2.75,2.75,0,0,0,1.1.37,2.27,2.27,0,0,0,1.88-.5,2.9,2.9,0,0,0,.73-2.25,3.84,3.84,0,0,0-.68-2.32,2.69,2.69,0,0,0-1.93-1.09,3,3,0,0,0-1,0,1.73,1.73,0,0,0-.83.44,2.28,2.28,0,0,0-.55.89A4.09,4.09,0,0,0,127.24,322Z"/><path d="M136.61,326l2.47,0.3c0-2.24,0-3.36,0-5.6l-2.47-.3c0-.88,0-1.32,0-2.2l4.49,0.55,0.3,1.36h0.08a4.44,4.44,0,0,1,1.28-.95,2.94,2.94,0,0,1,1.68-.24,2.59,2.59,0,0,1,1.89,1.1,5.24,5.24,0,0,1,.69,3l-2.34-.27a2.16,2.16,0,0,0-.21-1.07,0.84,0.84,0,0,0-.67-0.41,1.81,1.81,0,0,0-1.29.25,3.38,3.38,0,0,0-.83.82c0,1.7,0,2.56,0,4.26l4.33,0.51c0,0.88,0,1.32,0,2.2-3.76-.44-5.64-0.67-9.4-1.13C136.61,327.33,136.61,326.89,136.61,326Z"/><path d="M149,327.48l3.51,0.4c0-2.24,0-3.36,0-5.6l-3.51-.4c0-.88,0-1.32,0-2.2l6.11,0.7c0,3.12,0,4.68,0,7.8l3.69,0.41c0,0.88,0,1.32,0,2.2-3.92-.43-5.88-0.65-9.8-1.1v-2.2Zm3-10.17a1.26,1.26,0,0,1,.46-1,1.63,1.63,0,0,1,1.28-.29,2.18,2.18,0,0,1,1.34.59,1.54,1.54,0,0,1,.5,1.12,1.15,1.15,0,0,1-.5,1,1.89,1.89,0,0,1-1.34.26,2.06,2.06,0,0,1-1.28-.55A1.51,1.51,0,0,1,152,317.31Z"/><path d="M161.59,321.77a10.14,10.14,0,0,1,1.85-.42,10.32,10.32,0,0,1,2.49,0,5.85,5.85,0,0,1,1.77.44,3.4,3.4,0,0,1,1.18.83,3.09,3.09,0,0,1,.65,1.17,5,5,0,0,1,.2,1.46q0,1-.07,1.73c0,0.47-.07.9-0.07,1.27a8.71,8.71,0,0,0,0,.94c0,0.19,0,.37.06,0.55l1.3,0.13v2.2l-3.35-.35-0.26-1.39h-0.1a3,3,0,0,1-1.13,1,3.58,3.58,0,0,1-2,.24,3.73,3.73,0,0,1-2.36-1.05,3,3,0,0,1-.87-2.21,3,3,0,0,1,.31-1.42,2.2,2.2,0,0,1,.89-0.9,3.84,3.84,0,0,1,1.41-.43,8.08,8.08,0,0,1,1.84,0q0.36,0,.75.12l1,0.18a2,2,0,0,0,0-.4V325a1.42,1.42,0,0,0-.44-1.14,2.32,2.32,0,0,0-1.29-.47,5.84,5.84,0,0,0-1.83.07,10.65,10.65,0,0,0-1.37.37Zm3.4,7.7a2.25,2.25,0,0,0,1.42-.2,2,2,0,0,0,.69-0.68v-1.2l-0.59-.15a7.09,7.09,0,0,0-.85-0.14,4,4,0,0,0-.75,0,2.29,2.29,0,0,0-.67.15,1.14,1.14,0,0,0-.47.34,0.86,0.86,0,0,0-.18.56,1.26,1.26,0,0,0,.33.9A1.69,1.69,0,0,0,165,329.48Z"/><path d="M173.52,318.34l4.26,0.42c0,3.7,0,5.54,0,9.24a4.53,4.53,0,0,0,.38,2.18,1.5,1.5,0,0,0,1.22.72,3.27,3.27,0,0,0,1,0,3.51,3.51,0,0,0,.8-0.29l1,1.89-0.68.34a4,4,0,0,1-.72.25,4.62,4.62,0,0,1-.83.12,6.51,6.51,0,0,1-1,0,4.16,4.16,0,0,1-2.82-1.24,4.07,4.07,0,0,1-.94-2.81c0-3.36,0-5,0-8.4l-1.66-.17v-2.2Z"/><path d="M185.33,335.83l8.88,0.81v2.14l-8.88-.81C185.33,337.12,185.33,336.69,185.33,335.83Z"/><path d="M195.77,320.44l4,0.35c0,2,0,3.07,0,5.12h0.08a3,3,0,0,1,1.28-.91,4.19,4.19,0,0,1,1.88-.22,4.93,4.93,0,0,1,1.4.32,3,3,0,0,1,1.1.75,3.46,3.46,0,0,1,.72,1.31,6.52,6.52,0,0,1,.26,2c0,2.49,0,3.73,0,6.22l-2.6-.21c0-2.27,0-3.41,0-5.68a2.65,2.65,0,0,0-.52-1.8,2,2,0,0,0-1.36-.65,2.13,2.13,0,0,0-1.36.34,2.16,2.16,0,0,0-.88,1.08c0,2.55,0,3.83,0,6.38l-2.6-.22c0-4.72,0-7.08,0-11.8l-1.44-.13v-2.2Z"/><path d="M218.46,335.23a3.24,3.24,0,0,1-.67.42,6,6,0,0,1-1,.36,7.05,7.05,0,0,1-1.21.23,7.72,7.72,0,0,1-1.4,0,7.08,7.08,0,0,1-2.29-.54,5,5,0,0,1-2.78-2.93,6.4,6.4,0,0,1-.37-2.24,5.62,5.62,0,0,1,.42-2.28,4.14,4.14,0,0,1,1.15-1.56,4.36,4.36,0,0,1,1.71-.86,6.47,6.47,0,0,1,2.12-.17,6.85,6.85,0,0,1,1.57.32,4.71,4.71,0,0,1,1.49.8,4.11,4.11,0,0,1,1.11,1.39,4.65,4.65,0,0,1,.43,2.11,9.34,9.34,0,0,1-.2,1.85l-7.21-.55a2.44,2.44,0,0,0,.27,1.1,2.39,2.39,0,0,0,.66.77,3.14,3.14,0,0,0,.94.48,4.88,4.88,0,0,0,1.13.22,5.7,5.7,0,0,0,2-.13,3.79,3.79,0,0,0,1.25-.59Zm-4.32-7.47a3.23,3.23,0,0,0-1,.07,2.52,2.52,0,0,0-.83.35,2,2,0,0,0-.61.63,2,2,0,0,0-.28.9l4.92,0.38A2.16,2.16,0,0,0,214.14,327.76Z"/><path d="M221.53,322.51l4.26,0.31c0,3.7,0,5.54,0,9.24a4.45,4.45,0,0,0,.38,2.17,1.45,1.45,0,0,0,1.22.69,3.29,3.29,0,0,0,1-.06,3.62,3.62,0,0,0,.8-0.31l1,1.87-0.68.36a4.08,4.08,0,0,1-.72.27,4.7,4.7,0,0,1-.83.14,6.52,6.52,0,0,1-1,0,4,4,0,0,1-2.82-1.16,4,4,0,0,1-.94-2.79c0-3.36,0-5,0-8.4l-1.66-.12v-2.2Z"/><path d="M231.8,327.23l3.4,0.22,0.3,1.22h0.08a3.6,3.6,0,0,1,3.37-1.27,5,5,0,0,1,1.69.4,3.6,3.6,0,0,1,1.32,1,4.6,4.6,0,0,1,.85,1.61,7.64,7.64,0,0,1,.3,2.28,7.14,7.14,0,0,1-.34,2.29,4.55,4.55,0,0,1-1,1.69,3.87,3.87,0,0,1-1.56,1,5.32,5.32,0,0,1-2.1.25,8.36,8.36,0,0,1-1.22-.17,3.58,3.58,0,0,1-1-.35c0,1.64,0,2.46,0,4.1l-2.6-.17c0-4.72,0-7.08,0-11.8l-1.5-.1v-2.2Zm6.37,2.33a2.54,2.54,0,0,0-1.39.29,1.81,1.81,0,0,0-.87,1.08v4.16a2.3,2.3,0,0,0,.81.4,4.59,4.59,0,0,0,1.07.2,2.74,2.74,0,0,0,1-.12,2,2,0,0,0,.84-0.56,2.75,2.75,0,0,0,.56-1,5.08,5.08,0,0,0,.2-1.53,3.13,3.13,0,0,0-.64-2.08A2.23,2.23,0,0,0,238.17,329.56Z"/><path d="M254.52,337.54a3.31,3.31,0,0,1-.67.43,6.09,6.09,0,0,1-1,.38,7.15,7.15,0,0,1-1.21.25,7.74,7.74,0,0,1-1.4,0,7,7,0,0,1-2.29-.49,4.86,4.86,0,0,1-2.78-2.87,6.33,6.33,0,0,1-.37-2.23,5.68,5.68,0,0,1,.42-2.28,4.27,4.27,0,0,1,1.15-1.58,4.48,4.48,0,0,1,1.71-.89,6.52,6.52,0,0,1,2.12-.21,6.79,6.79,0,0,1,1.57.29,4.59,4.59,0,0,1,1.49.77,4,4,0,0,1,1.11,1.37,4.6,4.6,0,0,1,.43,2.1,9.32,9.32,0,0,1-.2,1.85l-7.21-.4a2.4,2.4,0,0,0,.27,1.1,2.32,2.32,0,0,0,.66.76,3.06,3.06,0,0,0,.94.46,4.84,4.84,0,0,0,1.13.19,5.74,5.74,0,0,0,2-.17,3.9,3.9,0,0,0,1.25-.61Zm-4.33-7.38a3.25,3.25,0,0,0-1,.09,2.58,2.58,0,0,0-.83.37,2.11,2.11,0,0,0-.61.65,2,2,0,0,0-.28.9l4.93,0.28A2.11,2.11,0,0,0,250.19,330.16Z"/><path d="M256.62,336.51l2.48,0.13V331l-2.48-.13v-2.2l4.51,0.23,0.3,1.34h0.08a4.93,4.93,0,0,1,1.28-1,3.08,3.08,0,0,1,1.68-.36,2.4,2.4,0,0,1,1.89,1,5,5,0,0,1,.69,3l-2.35-.11a2.07,2.07,0,0,0-.21-1.06,0.78,0.78,0,0,0-.67-0.36,1.91,1.91,0,0,0-1.29.34,3.74,3.74,0,0,0-.83.88v4.26l4.35,0.21v2.2c-3.78-.18-5.66-0.27-9.44-0.47v-2.2Z"/><path d="M277,343.89a9.67,9.67,0,0,1-2.73-1,8.48,8.48,0,0,1-2.35-1.88,9,9,0,0,1-1.63-2.79,10.6,10.6,0,0,1-.61-3.75,10.18,10.18,0,0,1,.61-3.68,8.22,8.22,0,0,1,1.63-2.68,7.65,7.65,0,0,1,2.35-1.72,9.61,9.61,0,0,1,2.73-.83l0.48,2.16a8.1,8.1,0,0,0-1.59.51,5.49,5.49,0,0,0-1.69,1.15,6.34,6.34,0,0,0-1.35,2,7.94,7.94,0,0,0-.55,3.18,7.55,7.55,0,0,0,.58,3.13,7.28,7.28,0,0,0,1.41,2.13,6.64,6.64,0,0,0,1.71,1.29,7.12,7.12,0,0,0,1.48.59Z"/><path d="M290.85,335.81a4.37,4.37,0,0,1-1.38,3.23,4.52,4.52,0,0,1-1.53.93,5,5,0,0,1-1.92.29,5.8,5.8,0,0,1-2-.4,4.63,4.63,0,0,1-1.59-1,5,5,0,0,1-1.08-1.7,6.32,6.32,0,0,1-.4-2.33,8.89,8.89,0,0,1,.69-3.57,9.47,9.47,0,0,1,1.78-2.74,8.78,8.78,0,0,1,2.43-1.83,7.92,7.92,0,0,1,2.67-.84l0.58,2.08a7.58,7.58,0,0,0-2,.58,7,7,0,0,0-1.64,1,6.27,6.27,0,0,0-1.21,1.38,4.82,4.82,0,0,0-.67,1.59,2.94,2.94,0,0,1,1.2-.81,4.29,4.29,0,0,1,1.76-.29,4.91,4.91,0,0,1,1.68.35,4,4,0,0,1,1.35.89,4.1,4.1,0,0,1,.9,1.38A4.81,4.81,0,0,1,290.85,335.81Zm-2.53,0a2.11,2.11,0,0,0-.65-1.66,2.69,2.69,0,0,0-1.75-.62,2.84,2.84,0,0,0-1.44.31,2.42,2.42,0,0,0-.94.81,3.3,3.3,0,0,0,0,.49c0,0.18,0,.32,0,0.43a2.72,2.72,0,0,0,.16.93,2.31,2.31,0,0,0,.47.79,2.34,2.34,0,0,0,.75.55,2.62,2.62,0,0,0,1,.23,2.51,2.51,0,0,0,1.68-.58,2.22,2.22,0,0,0,.55-0.71A2.09,2.09,0,0,0,288.32,335.83Z"/><path d="M296.3,339a1.33,1.33,0,0,1,.45-1.07,1.61,1.61,0,0,1,1.13-.37,2,2,0,0,1,1.66.77,2.87,2.87,0,0,1,.56,1.8,3.71,3.71,0,0,1-.35,1.63,4.18,4.18,0,0,1-.91,1.26,4.77,4.77,0,0,1-1.25.84,5,5,0,0,1-1.37.42l-0.54-1.12a5.65,5.65,0,0,0,1-.31,3.74,3.74,0,0,0,.89-0.52,3,3,0,0,0,.67-0.75,2.07,2.07,0,0,0,.31-1,2.55,2.55,0,0,1-1,0,1.59,1.59,0,0,1-.69-0.34,1.37,1.37,0,0,1-.39-0.57A2.1,2.1,0,0,1,296.3,339Z"/><path d="M306.09,338.38l3.07,0.07c0-3.5,0-5.24,0-8.74l-2.65,2-1.2-1.63,4.57-3.38,1.76,0c0,4.72,0,7.08,0,11.8l3,0.06c0,0.88,0,1.32,0,2.2l-8.57-.18v-2.2Z"/><path d="M318.4,342.88a6.77,6.77,0,0,0,1.48-.51,6.14,6.14,0,0,0,1.72-1.2,6.72,6.72,0,0,0,1.41-2,7.32,7.32,0,0,0,.58-3.09,8.17,8.17,0,0,0-.55-3.21,6.84,6.84,0,0,0-1.35-2.11,6,6,0,0,0-1.69-1.24,8.59,8.59,0,0,0-1.59-.6l0.48-2.13a10.09,10.09,0,0,1,2.73,1,8.3,8.3,0,0,1,2.35,1.85,8.85,8.85,0,0,1,1.63,2.77,10.47,10.47,0,0,1,.61,3.72,10.32,10.32,0,0,1-.61,3.71,8.32,8.32,0,0,1-1.63,2.7,7.82,7.82,0,0,1-2.35,1.75,9.19,9.19,0,0,1-2.73.84Z"/><path d="M615,315.55a4.91,4.91,0,0,1-.37,1.88,5.68,5.68,0,0,1-1,1.62,5.83,5.83,0,0,1-1.52,1.22,5.57,5.57,0,0,1-1.9.66,5.36,5.36,0,0,1-1.94,0,3.61,3.61,0,0,1-1.58-.75,3.83,3.83,0,0,1-1.07-1.5,5.78,5.78,0,0,1-.4-2.26,9.93,9.93,0,0,1,.69-3.71,12.19,12.19,0,0,1,1.76-3.08,11.53,11.53,0,0,1,2.41-2.29,9.51,9.51,0,0,1,2.64-1.34l0.58,2a9.12,9.12,0,0,0-3.6,2.3,8.26,8.26,0,0,0-1.2,1.61,5.88,5.88,0,0,0-.67,1.72,3.83,3.83,0,0,1,1.19-1,4.84,4.84,0,0,1,1.75-.62,4.53,4.53,0,0,1,1.67,0,3,3,0,0,1,2.24,1.84A4.38,4.38,0,0,1,615,315.55Zm-2.5.49a1.75,1.75,0,0,0-.65-1.54,2.31,2.31,0,0,0-1.74-.29,3.27,3.27,0,0,0-1.43.58,3.19,3.19,0,0,0-.93,1,3.54,3.54,0,0,0,0,.5c0,0.18,0,.32,0,0.43a2.49,2.49,0,0,0,.16.9,1.76,1.76,0,0,0,1.21,1.1,2.4,2.4,0,0,0,1,0,2.75,2.75,0,0,0,.9-0.31,3.17,3.17,0,0,0,.77-0.59,2.9,2.9,0,0,0,.55-0.82A2.37,2.37,0,0,0,612.51,316Z"/></svg>