<svg id="Layer_1" data-name="Layer 1" xmlns="http://www.w3.org/2000/svg" viewBox="0 0 720 576"><defs><style>.cls-1,.cls-2,.cls-4,.cls-6{fill:#231f20;}.cls-1,.cls-3{stroke:#231f20;}.cls-1,.cls-6{stroke-miterlimit:10;}.cls-1,.cls-2,.cls-3{stroke-width:2px;}.cls-2{stroke:#000;}.cls-2,.cls-3{stroke-linecap:round;stroke-linejoin:round;}.cls-3,.cls-5{fill:#fff;}.cls-6{stroke:#fff;}</style></defs><title>Hanoi_Tower_Set_5</title><path class="cls-1" d="M686.43,506.49c0-.14,0-0.29,0-0.43s0-.29,0-0.43V453.84H40.55s-0.25,51.74-.25,52.22c0,2.67,2.32,5.24,6.64,7.71,15.13,8.61,55.2,16.11,111,21.48s127.39,8.59,205.41,8.59c89.17,0,169.9-4.21,228.35-11,29.22-3.41,52.88-7.46,69.24-12,8.18-2.25,14.54-4.62,18.86-7.08,3.69-2.1,5.91-4.29,6.48-6.55h0.11v-0.73Z"/><ellipse class="cls-2" cx="363.39" cy="454.92" rx="322.89" ry="37.63"/><path class="cls-3" d="M686.43,455c0-.14,0-0.29,0-0.43s0-.29,0-0.43V402.36H40.55s-0.25,51.74-.25,52.22c0,2.67,2.32,5.24,6.64,7.71,15.13,8.61,55.2,16.11,111,21.48s127.39,8.59,205.41,8.59c89.17,0,169.9-4.21,228.35-11,29.22-3.41,52.88-7.46,69.24-12,8.18-2.25,14.54-4.62,18.86-7.08,3.69-2.1,5.91-4.29,6.48-6.55h0.11V455Z"/><ellipse class="cls-3" cx="363.39" cy="403.44" rx="322.89" ry="37.63"/><path class="cls-4" d="M364.42,412.22c-16,0-29-3.75-30.2-8.61h-0.08l0-.5V8.27h60.63V403.6h-0.12C393.39,408.47,380.4,412.22,364.42,412.22Z"/><path class="cls-5" d="M394.24,8.77V403.1h0c-0.49,4.78-13.63,8.61-29.79,8.61s-29.3-3.83-29.79-8.61h0v-0.21s0,0,0-.06,0,0,0-.06V8.77h59.63m1-1H333.62v395s0,0.07,0,.11v1.27h0.23c2,5.6,16.84,8.61,30.58,8.61s28.6-3,30.58-8.61h0.21l0-1V7.77h0Z"/><ellipse class="cls-6" cx="364.42" cy="8.89" rx="29.81" ry="8.89"/><path d="M58.69,450.14V447.5L61.5,448v-6.72l-2.83-.54v-2.64l2.83,0.54V438a4,4,0,0,1,.39-1.87,3,3,0,0,1,1-1.15,3.46,3.46,0,0,1,1.49-.5,5.94,5.94,0,0,1,1.75.07,12.28,12.28,0,0,1,2.7.78,8.53,8.53,0,0,1,1.75,1l-0.9,2.21a13.32,13.32,0,0,0-1.18-.7,5.82,5.82,0,0,0-1.63-.52,2,2,0,0,0-1.8.25,2.25,2.25,0,0,0-.51,1.67l5,0.93v2.64l-5-.93v6.72l5,0.93v2.64C65.25,451.39,63.06,451,58.69,450.14Z"/><path d="M73.43,441.7a11.55,11.55,0,0,1,2.2-.35,12.35,12.35,0,0,1,3,.22,7.37,7.37,0,0,1,2.11.67,4.5,4.5,0,0,1,1.41,1.1,4.06,4.06,0,0,1,.77,1.46,6.27,6.27,0,0,1,.24,1.77q0,1.22-.08,2.07T83,450.17a10.82,10.82,0,0,0,0,1.14c0,0.22.06,0.45,0.07,0.66l1.55,0.27v2.64l-4-.7-0.31-1.69-0.12,0a3.17,3.17,0,0,1-1.35,1,4.15,4.15,0,0,1-2.37.12,4.81,4.81,0,0,1-2.82-1.47,3.93,3.93,0,0,1-1-2.73,3.42,3.42,0,0,1,.37-1.67,2.38,2.38,0,0,1,1.07-1,4.31,4.31,0,0,1,1.68-.39,9.64,9.64,0,0,1,2.19.16c0.28,0.05.59,0.12,0.9,0.21L80,447a2.38,2.38,0,0,0,0-.47V446.1a1.83,1.83,0,0,0-.52-1.4A3,3,0,0,0,78,444a6.94,6.94,0,0,0-2.18-.08,12,12,0,0,0-1.63.33Zm4.05,9.54a2.6,2.6,0,0,0,1.7-.12,2.17,2.17,0,0,0,.82-0.75v-1.44l-0.71-.23a8.74,8.74,0,0,0-1-.24,4.9,4.9,0,0,0-.9-0.08,2.62,2.62,0,0,0-.8.12,1.23,1.23,0,0,0-.57.37,1,1,0,0,0-.21.66,1.62,1.62,0,0,0,.39,1.11A2.17,2.17,0,0,0,77.48,451.24Z"/><path d="M98.6,456.09a5.73,5.73,0,0,1-2.29.74,9.69,9.69,0,0,1-2.74-.09,8.69,8.69,0,0,1-2.76-.92,7.1,7.1,0,0,1-2-1.63A6.79,6.79,0,0,1,87.53,452a8.14,8.14,0,0,1-.43-2.67,6.19,6.19,0,0,1,.5-2.6A4.45,4.45,0,0,1,89,444.95a4.93,4.93,0,0,1,2.11-.88,7.8,7.8,0,0,1,2.65,0,10.77,10.77,0,0,1,2.51.73,14,14,0,0,1,1.79.9V450l-2.62-.44v-2.21a7.38,7.38,0,0,0-1.48-.42,4.3,4.3,0,0,0-1.32,0,2.59,2.59,0,0,0-2,1.42,3.33,3.33,0,0,0-.32,1.55,4.09,4.09,0,0,0,.26,1.46,4.18,4.18,0,0,0,1.92,2.21,4.79,4.79,0,0,0,1.56.54,5.3,5.3,0,0,0,2.23,0,7.22,7.22,0,0,0,1.3-.46Z"/><path d="M102.66,448.55l-2.36-.39v-2.64l2.36,0.39v-2.74l3.1-.39c0,1.45,0,2.17,0,3.62l6.26,1V450l-6.26-1v3.43a4.67,4.67,0,0,0,.69,2.79,2.86,2.86,0,0,0,1.93,1.14,4,4,0,0,0,1.17,0,3.84,3.84,0,0,0,.94-0.25,4.32,4.32,0,0,0,.76-0.41l0.63-.43,1.43,2.38a3.66,3.66,0,0,1-1,.72,7.21,7.21,0,0,1-1.31.49,7.34,7.34,0,0,1-1.47.24,6.9,6.9,0,0,1-1.5-.07,6.09,6.09,0,0,1-4-2.15,7.93,7.93,0,0,1-1.35-5C102.66,450.61,102.66,449.92,102.66,448.55Z"/><path d="M115.06,453.87a6.85,6.85,0,0,1,.45-2.62,4.47,4.47,0,0,1,1.29-1.79,4.57,4.57,0,0,1,2-.93,7.31,7.31,0,0,1,2.59,0,8.28,8.28,0,0,1,2.69.86,6.82,6.82,0,0,1,2,1.58,6.55,6.55,0,0,1,1.23,2.19,8.23,8.23,0,0,1,.42,2.65,6.91,6.91,0,0,1-.45,2.62,4.5,4.5,0,0,1-1.29,1.8,4.56,4.56,0,0,1-2,.94,7.27,7.27,0,0,1-2.59,0,8.23,8.23,0,0,1-2.69-.86,6.87,6.87,0,0,1-2-1.59,6.58,6.58,0,0,1-1.23-2.19A8.27,8.27,0,0,1,115.06,453.87Zm3.2,0.49a5.11,5.11,0,0,0,.21,1.5,4.33,4.33,0,0,0,.62,1.27,3.52,3.52,0,0,0,1,.93,3.36,3.36,0,0,0,1.31.48,2.67,2.67,0,0,0,2.26-.55,3.42,3.42,0,0,0,.87-2.68,4.7,4.7,0,0,0-.81-2.8,3.32,3.32,0,0,0-2.32-1.37,3.56,3.56,0,0,0-1.24,0,2,2,0,0,0-1,.51,2.65,2.65,0,0,0-.66,1.05A4.87,4.87,0,0,0,118.26,454.36Z"/><path d="M129.5,459.4l3,0.43V453.1l-3-.43V450l5.38,0.77,0.36,1.64h0.1a5.2,5.2,0,0,1,1.53-1.1,3.49,3.49,0,0,1,2-.25,3.19,3.19,0,0,1,2.26,1.37,6.38,6.38,0,0,1,.83,3.64l-2.8-.39a2.63,2.63,0,0,0-.25-1.29,1,1,0,0,0-.8-0.51,2.15,2.15,0,0,0-1.54.26,3.9,3.9,0,0,0-1,1v5.11l5.19,0.73v2.64c-4.51-.62-6.76-0.94-11.27-1.6V459.4Z"/><path d="M144.33,461.48l4.21,0.57v-6.72l-4.21-.57v-2.64l7.33,1v9.36l4.43,0.58c0,1.06,0,1.58,0,2.64-4.71-.6-7.06-0.92-11.76-1.55v-2.64ZM148,449.35a1.48,1.48,0,0,1,.55-1.2,1.92,1.92,0,0,1,1.53-.33,2.67,2.67,0,0,1,1.61.74,1.88,1.88,0,0,1,.6,1.35,1.35,1.35,0,0,1-.6,1.18,2.24,2.24,0,0,1-1.61.28,2.52,2.52,0,0,1-1.53-.7A1.85,1.85,0,0,1,148,449.35Z"/><path d="M159.45,454.92a12,12,0,0,1,2.22-.47,12.42,12.42,0,0,1,3,.06,7.13,7.13,0,0,1,2.12.56,4.18,4.18,0,0,1,1.41,1,3.78,3.78,0,0,1,.78,1.41,6.11,6.11,0,0,1,.24,1.76q0,1.22-.08,2.08T169,462.87a10.7,10.7,0,0,0,0,1.13c0,0.22.06,0.45,0.07,0.66l1.56,0.19v2.64l-4-.49-0.31-1.67h-0.12a3.44,3.44,0,0,1-1.36,1.12,4.26,4.26,0,0,1-2.38.25,4.56,4.56,0,0,1-2.83-1.32,3.72,3.72,0,0,1-1-2.68A3.52,3.52,0,0,1,159,461a2.58,2.58,0,0,1,1.07-1.07,4.53,4.53,0,0,1,1.69-.48,9.69,9.69,0,0,1,2.2,0c0.29,0,.59.09,0.91,0.16l1.17,0.24a2.42,2.42,0,0,0,0-.47V459a1.73,1.73,0,0,0-.52-1.37A2.83,2.83,0,0,0,164,457a7,7,0,0,0-2.19,0,12.58,12.58,0,0,0-1.64.42Zm4.08,9.32a2.67,2.67,0,0,0,1.71-.21,2.36,2.36,0,0,0,.83-0.8v-1.44l-0.71-.2a8.53,8.53,0,0,0-1-.18,4.88,4.88,0,0,0-.9,0,2.72,2.72,0,0,0-.81.16,1.33,1.33,0,0,0-.57.4,1,1,0,0,0-.21.67,1.54,1.54,0,0,0,.39,1.09A2.06,2.06,0,0,0,163.53,464.24Z"/><path d="M173.76,451l5.11,0.59c0,4.44,0,6.65,0,11.09a5.48,5.48,0,0,0,.45,2.62,1.83,1.83,0,0,0,1.46.89,3.91,3.91,0,0,0,1.22,0,4.21,4.21,0,0,0,1-.34l1.18,2.29q-0.41.22-.82,0.4a4.73,4.73,0,0,1-.86.29,5.5,5.5,0,0,1-1,.13,7.79,7.79,0,0,1-1.21-.05,5.07,5.07,0,0,1-3.38-1.54,5,5,0,0,1-1.13-3.39c0-4,0-6,0-10.08l-2-.23C173.76,452.63,173.76,452.1,173.76,451Z"/><path d="M197,475.5a12.22,12.22,0,0,1-3.27-1.39,11.1,11.1,0,0,1-2.81-2.43,11.65,11.65,0,0,1-2-3.47,13.15,13.15,0,0,1-.73-4.54,11.86,11.86,0,0,1,.73-4.37,9.06,9.06,0,0,1,2-3.09,8.39,8.39,0,0,1,2.81-1.89,11,11,0,0,1,3.27-.79l0.58,2.63a9.23,9.23,0,0,0-1.91.49,6,6,0,0,0-2,1.25,7,7,0,0,0-1.62,2.34,9.24,9.24,0,0,0-.66,3.77,9.38,9.38,0,0,0,.7,3.79,9.51,9.51,0,0,0,1.69,2.66,8.71,8.71,0,0,0,2.05,1.68,9.1,9.1,0,0,0,1.78.82Z"/><path d="M206.16,468.9a5.14,5.14,0,0,0,1.47,0,3.31,3.31,0,0,0,1.17-.44,2.22,2.22,0,0,0,.77-0.81,2.4,2.4,0,0,0,.28-1.18,2.69,2.69,0,0,0-1-2.18,5.79,5.79,0,0,0-3.13-1.06l-0.61,0-0.66,0-0.74-.05c0-3.51,0-5.27,0-8.78l8.7,0.83c0,1.17,0,1.76,0,2.93l-6-.57v3.24h0.39l0.32,0h0.28a7.39,7.39,0,0,1,2.23.56,5.74,5.74,0,0,1,1.8,1.22,5.37,5.37,0,0,1,1.19,1.8,5.88,5.88,0,0,1,.42,2.23,5.23,5.23,0,0,1-.53,2.44,4.5,4.5,0,0,1-1.44,1.65,5.82,5.82,0,0,1-2.11.89,8.36,8.36,0,0,1-2.57.12,6.61,6.61,0,0,1-1.13-.22q-0.6-.17-1.18-0.38a11.32,11.32,0,0,1-1.07-.45q-0.49-.24-0.83-0.44l1-2.4a8.07,8.07,0,0,0,1.26.65A5.86,5.86,0,0,0,206.16,468.9Z"/><path d="M217.77,474.88a7.59,7.59,0,0,0,1.78-.48,6.66,6.66,0,0,0,2.05-1.28,7.3,7.3,0,0,0,1.7-2.34,8.45,8.45,0,0,0,.7-3.66,10.18,10.18,0,0,0-.66-3.9,9.05,9.05,0,0,0-1.62-2.65,7.93,7.93,0,0,0-2-1.64,11.08,11.08,0,0,0-1.91-.86l0.58-2.52a13.07,13.07,0,0,1,3.27,1.42,11.07,11.07,0,0,1,2.81,2.43,11.66,11.66,0,0,1,2,3.47,13,13,0,0,1,.73,4.51,12,12,0,0,1-.73,4.4,9.08,9.08,0,0,1-2,3.1,8.45,8.45,0,0,1-2.81,1.89,10.36,10.36,0,0,1-3.27.77Z"/><path d="M628.61,454.53l3.65-.61c0-4.2,0-6.29,0-10.49l-3.15,2.95-1.43-1.68,5.44-5.08,2.1-.35c0,5.66,0,8.5,0,14.16l3.58-.61v2.64c-4.07.7-6.11,1-10.19,1.72v-2.64Z"/><path d="M652.85,453c-4.25.77-6.37,1.15-10.63,1.89v-2.33c0.19-.19.43-0.45,0.72-0.76l1-1.07q0.54-.6,1.13-1.3t1.17-1.45q0.81-1.06,1.42-1.91a15,15,0,0,0,1-1.58,7,7,0,0,0,.58-1.4,4.87,4.87,0,0,0,.19-1.34,1.94,1.94,0,0,0-.21-0.9,2,2,0,0,0-.6-0.7,2.28,2.28,0,0,0-.92-0.39,3.17,3.17,0,0,0-1.18,0,5,5,0,0,0-1.56.54,6.78,6.78,0,0,0-1.47,1.15l-1.24-2a13.27,13.27,0,0,1,2.23-1.6,8.62,8.62,0,0,1,2.82-1,6.51,6.51,0,0,1,2-.06,4.26,4.26,0,0,1,1.67.55,3.17,3.17,0,0,1,1.16,1.2,3.76,3.76,0,0,1,.43,1.87,7.72,7.72,0,0,1-.13,1.45,8.11,8.11,0,0,1-.4,1.39,11.2,11.2,0,0,1-.72,1.49c-0.29.52-.65,1.08-1.06,1.7s-0.66,1-1,1.45-0.74,1-1.11,1.41-0.73.87-1.08,1.27-0.68.74-1,1l6.86-1.23V453Z"/><path d="M655.59,444.05a15.44,15.44,0,0,1,.45-3.91,9.72,9.72,0,0,1,1.28-3,6.8,6.8,0,0,1,4.53-3,4.65,4.65,0,0,1,4.63,1.25q1.62,1.82,1.62,6.28a15.54,15.54,0,0,1-.45,3.94,9.94,9.94,0,0,1-1.28,3,6.8,6.8,0,0,1-4.55,3,4.49,4.49,0,0,1-4.64-1.39Q655.59,448.32,655.59,444.05Zm3.1-.57c0,0.24,0,.47,0,0.68s0,0.43,0,.65l5.76-6.43a2.16,2.16,0,0,0-2.67-1.56,3.23,3.23,0,0,0-2.33,1.91A10.91,10.91,0,0,0,658.69,443.48ZM665,442.3q0-.38,0-0.73c0-.23,0-0.46,0-0.68l-5.78,6.43a2.19,2.19,0,0,0,2.67,1.69,3.27,3.27,0,0,0,2.34-1.9A11,11,0,0,0,665,442.3Z"/></svg>