<svg id="Layer_1" data-name="Layer 1" xmlns="http://www.w3.org/2000/svg" viewBox="0 0 720 576"><defs><style>.cls-1,.cls-2,.cls-4,.cls-6{fill:#231f20;}.cls-1,.cls-3{stroke:#231f20;}.cls-1,.cls-6{stroke-miterlimit:10;}.cls-1,.cls-2,.cls-3{stroke-width:2px;}.cls-2{stroke:#000;}.cls-2,.cls-3{stroke-linecap:round;stroke-linejoin:round;}.cls-3,.cls-5{fill:#fff;}.cls-6{stroke:#fff;}</style></defs><title>Hanoi_Tower_Set_5_Final</title><path class="cls-1" d="M684.88,506.49c0-.14,0-0.29,0-0.43s0-.29,0-0.43V453.84H39s-0.25,51.74-.25,52.22c0,2.67,2.32,5.24,6.64,7.71,15.13,8.61,55.2,16.11,111,21.48s127.39,8.59,205.41,8.59c89.17,0,169.9-4.21,228.35-11,29.22-3.41,52.88-7.46,69.24-12,8.18-2.25,14.54-4.62,18.86-7.08,3.69-2.1,5.91-4.29,6.48-6.55h0.11v-0.73Z"/><ellipse class="cls-2" cx="361.84" cy="454.92" rx="322.89" ry="37.63"/><path class="cls-3" d="M684.88,455c0-.14,0-0.29,0-0.43s0-.29,0-0.43V402.36H39s-0.25,51.74-.25,52.22c0,2.67,2.32,5.24,6.64,7.71,15.13,8.61,55.2,16.11,111,21.48s127.39,8.59,205.41,8.59c89.17,0,169.9-4.21,228.35-11,29.22-3.41,52.88-7.46,69.24-12,8.18-2.25,14.54-4.62,18.86-7.08,3.69-2.1,5.91-4.29,6.48-6.55h0.11V455Z"/><ellipse class="cls-3" cx="361.84" cy="403.44" rx="322.89" ry="37.63"/><path class="cls-3" d="M684.88,403.53c0-.14,0-0.29,0-0.43s0-.29,0-0.43V350.88H39s-0.25,51.74-.25,52.22c0,2.67,2.32,5.24,6.64,7.71,15.13,8.61,55.2,16.11,111,21.48s127.39,8.59,205.41,8.59c89.17,0,169.9-4.21,228.35-11,29.22-3.41,52.88-7.46,69.24-12,8.18-2.25,14.54-4.62,18.86-7.08,3.69-2.1,5.91-4.29,6.48-6.55h0.11v-0.73Z"/><ellipse class="cls-3" cx="361.84" cy="351.97" rx="322.89" ry="37.63"/><path class="cls-3" d="M684.88,352.06c0-.14,0-0.29,0-0.43s0-.29,0-0.43V299.4H39s-0.25,51.74-.25,52.22c0,2.67,2.32,5.24,6.64,7.71,15.13,8.61,55.2,16.11,111,21.48s127.39,8.59,205.41,8.59c89.17,0,169.9-4.21,228.35-11,29.22-3.41,52.88-7.46,69.24-12,8.18-2.25,14.54-4.62,18.86-7.08,3.69-2.1,5.91-4.29,6.48-6.55h0.11v-0.73Z"/><ellipse class="cls-3" cx="361.84" cy="300.49" rx="322.89" ry="37.63"/><path class="cls-3" d="M684.88,302.06c0-.14,0-0.29,0-0.43s0-.29,0-0.43V249.4H39s-0.25,51.74-.25,52.22c0,2.67,2.32,5.24,6.64,7.71,15.13,8.61,55.2,16.11,111,21.48s127.39,8.59,205.41,8.59c89.17,0,169.9-4.21,228.35-11,29.22-3.41,52.88-7.46,69.24-12,8.18-2.25,14.54-4.62,18.86-7.08,3.69-2.1,5.91-4.29,6.48-6.55h0.11v-0.73Z"/><ellipse class="cls-3" cx="361.84" cy="250.49" rx="322.89" ry="37.63"/><path class="cls-3" d="M684.88,251.06c0-.14,0-0.29,0-0.43s0-.29,0-0.43V198.4H39s-0.25,51.74-.25,52.22c0,2.67,2.32,5.24,6.64,7.71,15.13,8.61,55.2,16.11,111,21.48s127.39,8.59,205.41,8.59c89.17,0,169.9-4.21,228.35-11,29.22-3.41,52.88-7.46,69.24-12,8.18-2.25,14.54-4.62,18.86-7.08,3.69-2.1,5.91-4.29,6.48-6.55h0.11v-0.73Z"/><ellipse class="cls-3" cx="361.84" cy="199.49" rx="322.89" ry="37.63"/><path class="cls-4" d="M362.87,208.64c-16,0-29-3.75-30.2-8.61h-0.08l0-.5V8.27h60.63V200h-0.12C391.84,204.89,378.85,208.64,362.87,208.64Z"/><path class="cls-5" d="M392.69,8.77V199.53h0c-0.49,4.78-13.63,8.61-29.79,8.61s-29.3-3.83-29.79-8.61h0v-0.21s0,0,0-.06,0,0,0-.06V8.77h59.63m1-1H332.06V199.15s0,0.07,0,.11v1.27h0.22c1.05,3,5.66,4.94,9.53,6.06a88,88,0,0,0,42.09,0c3.87-1.12,8.48-3.05,9.53-6.06h0.21l0-1V7.77h0Z"/><ellipse class="cls-6" cx="362.87" cy="8.89" rx="29.81" ry="8.89"/><path class="cls-4" d="M52.38,450.44v-2.53l2.7,0.43V441.9l-2.72-.43v-2.53l2.72,0.43v-0.64a3.87,3.87,0,0,1,.38-1.8,3,3,0,0,1,1-1.13,3.43,3.43,0,0,1,1.43-.53,5.73,5.73,0,0,1,1.68,0,11.54,11.54,0,0,1,2.6.66,7.89,7.89,0,0,1,1.68.91L63,439a12.27,12.27,0,0,0-1.13-.63,5.45,5.45,0,0,0-1.57-.45,2,2,0,0,0-1.73.3,2.21,2.21,0,0,0-.49,1.61l4.8,0.74v2.53l-4.8-.74c0,2.58,0,3.86,0,6.44l4.83,0.74v2.53C58.68,451.43,56.58,451.11,52.38,450.44Z"/><path class="cls-4" d="M66.54,441.91a11.17,11.17,0,0,1,2.12-.39,11.81,11.81,0,0,1,2.85.12,6.9,6.9,0,0,1,2,.59,4.14,4.14,0,0,1,1.35,1,3.74,3.74,0,0,1,.74,1.37,5.91,5.91,0,0,1,.23,1.69q0,1.17-.08,2t-0.08,1.46a10.1,10.1,0,0,0,0,1.09c0,0.21.05,0.43,0.07,0.63l1.49,0.22v2.53l-3.84-.56-0.3-1.61L73,452a3.19,3.19,0,0,1-1.3,1,4,4,0,0,1-2.27.18,4.47,4.47,0,0,1-2.71-1.33,3.65,3.65,0,0,1-1-2.59,3.35,3.35,0,0,1,.35-1.61,2.38,2.38,0,0,1,1-1,4.23,4.23,0,0,1,1.61-.42,9.26,9.26,0,0,1,2.1.09q0.41,0.06.86,0.17l1.11,0.26a2.28,2.28,0,0,0,0-.45v-0.44a1.7,1.7,0,0,0-.5-1.33,2.76,2.76,0,0,0-1.48-.6,6.64,6.64,0,0,0-2.09,0,11.77,11.77,0,0,0-1.57.36Zm3.89,9a2.52,2.52,0,0,0,1.63-.16,2.17,2.17,0,0,0,.79-0.75v-1.38l-0.68-.2a8.27,8.27,0,0,0-1-.2,4.63,4.63,0,0,0-.86,0,2.57,2.57,0,0,0-.77.14,1.22,1.22,0,0,0-.54.37,1,1,0,0,0-.2.64,1.51,1.51,0,0,0,.37,1.06A2,2,0,0,0,70.43,450.94Z"/><path class="cls-4" d="M90.71,455a5.66,5.66,0,0,1-2.2.76,9.32,9.32,0,0,1-2.63,0,8.16,8.16,0,0,1-2.65-.81,6.56,6.56,0,0,1-1.95-1.51,6.29,6.29,0,0,1-1.2-2.09,7.69,7.69,0,0,1-.41-2.54,6,6,0,0,1,.48-2.51,4.44,4.44,0,0,1,1.34-1.72,4.88,4.88,0,0,1,2-.9,7.52,7.52,0,0,1,2.54,0,10.13,10.13,0,0,1,2.4.64,12.93,12.93,0,0,1,1.72.81v4l-2.52-.35v-2.12a6.92,6.92,0,0,0-1.42-.36,4.14,4.14,0,0,0-1.27,0,2.58,2.58,0,0,0-1.92,1.42,3.26,3.26,0,0,0-.31,1.5,3.85,3.85,0,0,0,.25,1.39,3.9,3.9,0,0,0,.71,1.18,4,4,0,0,0,1.13.88,4.49,4.49,0,0,0,1.5.48,5.09,5.09,0,0,0,2.14-.07,7.34,7.34,0,0,0,1.25-.47Z"/><path class="cls-4" d="M94.61,447.69l-2.27-.31v-2.53l2.27,0.31v-2.62l3-.45v3.47l6,0.8v2.53l-6-.8v3.29a4.39,4.39,0,0,0,.66,2.65,2.66,2.66,0,0,0,1.86,1,3.83,3.83,0,0,0,1.12,0,3.75,3.75,0,0,0,.91-0.26,4.32,4.32,0,0,0,.73-0.41l0.61-.43,1.38,2.25a3.66,3.66,0,0,1-1,.71,7.11,7.11,0,0,1-1.26.5,7.25,7.25,0,0,1-1.41.26,6.58,6.58,0,0,1-1.44,0,5.68,5.68,0,0,1-3.86-2A7.45,7.45,0,0,1,94.61,451v-3.29Z"/><path class="cls-4" d="M106.5,452.5a6.66,6.66,0,0,1,.44-2.52,4.43,4.43,0,0,1,1.24-1.75,4.51,4.51,0,0,1,1.91-.94,7,7,0,0,1,2.49-.08,7.79,7.79,0,0,1,2.58.76,6.34,6.34,0,0,1,1.92,1.47,6.08,6.08,0,0,1,1.18,2.07,7.81,7.81,0,0,1,.4,2.53,6.68,6.68,0,0,1-.44,2.52,4.35,4.35,0,0,1-3.15,2.7,7,7,0,0,1-2.49.09,7.75,7.75,0,0,1-2.58-.77,6.35,6.35,0,0,1-1.91-1.48A6.11,6.11,0,0,1,106.9,455,7.82,7.82,0,0,1,106.5,452.5Zm3.07,0.4a4.83,4.83,0,0,0,.21,1.43,4,4,0,0,0,.6,1.2,3.25,3.25,0,0,0,.94.87,3.16,3.16,0,0,0,1.26.43,2.61,2.61,0,0,0,2.17-.58,3.34,3.34,0,0,0,.84-2.59,4.42,4.42,0,0,0-.78-2.66,3.1,3.1,0,0,0-2.22-1.26,3.42,3.42,0,0,0-1.19,0,2,2,0,0,0-1,.51,2.61,2.61,0,0,0-.63,1A4.7,4.7,0,0,0,109.58,452.9Z"/><path class="cls-4" d="M120.36,457.47l2.84,0.35v-6.44l-2.84-.35V448.5l5.16,0.63,0.34,1.56H126a5.12,5.12,0,0,1,1.47-1.09,3.39,3.39,0,0,1,1.93-.28,3,3,0,0,1,2.17,1.27,6,6,0,0,1,.79,3.47l-2.69-.32a2.49,2.49,0,0,0-.24-1.24,1,1,0,0,0-.77-0.47,2.09,2.09,0,0,0-1.48.28,3.89,3.89,0,0,0-1,.94v4.9l5,0.59v2.53c-4.32-.51-6.49-0.77-10.81-1.3v-2.53Z"/><path class="cls-4" d="M134.58,459.17l4,0.46v-6.44l-4-.46V450.2l7,0.8v9l4.25,0.47V463c-4.51-.5-6.77-0.75-11.27-1.27v-2.53Zm3.49-11.7a1.44,1.44,0,0,1,.53-1.16,1.86,1.86,0,0,1,1.47-.34,2.5,2.5,0,0,1,1.54.68,1.77,1.77,0,0,1,.57,1.28,1.32,1.32,0,0,1-.57,1.14,2.17,2.17,0,0,1-1.54.3,2.37,2.37,0,0,1-1.47-.64A1.73,1.73,0,0,1,138.07,447.47Z"/><path class="cls-4" d="M149.07,452.6a11.54,11.54,0,0,1,2.12-.48,11.88,11.88,0,0,1,2.86,0,6.73,6.73,0,0,1,2,.5,3.92,3.92,0,0,1,1.36,1,3.55,3.55,0,0,1,.75,1.34,5.79,5.79,0,0,1,.23,1.68q0,1.17-.08,2t-0.08,1.46a10,10,0,0,0,0,1.09c0,0.21.05,0.43,0.07,0.63l1.49,0.15v2.53l-3.86-.4-0.3-1.6H155.6a3.4,3.4,0,0,1-1.3,1.09,4.1,4.1,0,0,1-2.28.28,4.29,4.29,0,0,1-2.72-1.21,3.5,3.5,0,0,1-1-2.55,3.43,3.43,0,0,1,.35-1.63,2.54,2.54,0,0,1,1-1,4.41,4.41,0,0,1,1.62-.49,9.31,9.31,0,0,1,2.11,0q0.41,0,.87.14l1.12,0.21a2.3,2.3,0,0,0,0-.46v-0.44a1.63,1.63,0,0,0-.5-1.31,2.66,2.66,0,0,0-1.48-.54,6.7,6.7,0,0,0-2.1.08,12.21,12.21,0,0,0-1.57.43Zm3.91,8.86a2.58,2.58,0,0,0,1.64-.23,2.31,2.31,0,0,0,.8-0.78v-1.38l-0.68-.18a8.14,8.14,0,0,0-1-.16,4.66,4.66,0,0,0-.86,0,2.63,2.63,0,0,0-.77.17,1.29,1.29,0,0,0-.55.39,1,1,0,0,0-.2.65,1.45,1.45,0,0,0,.37,1A1.94,1.94,0,0,0,153,461.46Z"/><path class="cls-4" d="M162.79,448.65l4.9,0.49v10.63a5.2,5.2,0,0,0,.44,2.5,1.72,1.72,0,0,0,1.4.83,3.77,3.77,0,0,0,1.17,0,4,4,0,0,0,.92-0.34l1.13,2.18q-0.39.22-.78,0.4a4.59,4.59,0,0,1-.83.29,5.31,5.31,0,0,1-1,.14,7.49,7.49,0,0,1-1.16,0,4.78,4.78,0,0,1-3.24-1.42A4.68,4.68,0,0,1,164.7,461v-9.66l-1.91-.19v-2.53Z"/><path class="cls-4" d="M185,471.75a11.6,11.6,0,0,1-3.13-1.29,10.44,10.44,0,0,1-2.69-2.29,11,11,0,0,1-1.87-3.3,12.52,12.52,0,0,1-.7-4.34,11.46,11.46,0,0,1,.7-4.2,8.84,8.84,0,0,1,1.87-3,8.21,8.21,0,0,1,2.69-1.85,10.61,10.61,0,0,1,3.13-.8l0.55,2.51a8.89,8.89,0,0,0-1.83.49,5.89,5.89,0,0,0-1.94,1.23,6.8,6.8,0,0,0-1.55,2.26,9.26,9.26,0,0,0,1.66,9.78,8.16,8.16,0,0,0,2,1.58,8.65,8.65,0,0,0,1.7.76Z"/><path class="cls-4" d="M190.82,464.85l3.52,0.3V455.1l-3,2.06-1.38-2,5.25-3.55,2,0.17v13.57l3.45,0.28v2.53l-9.83-.83v-2.53Z"/><path class="cls-4" d="M204.63,466l3.52,0.28V456.23l-3,2.08-1.38-1.95,5.25-3.59,2,0.16V466.5l3.45,0.26v2.53l-9.83-.76V466Z"/><path class="cls-4" d="M218.76,472a7.43,7.43,0,0,0,1.7-.49,6.52,6.52,0,0,0,2-1.26,7.16,7.16,0,0,0,1.62-2.27,8.17,8.17,0,0,0,.67-3.52,9.68,9.68,0,0,0-.63-3.72,8.48,8.48,0,0,0-1.55-2.51,7.41,7.41,0,0,0-1.95-1.54,10.35,10.35,0,0,0-1.83-.79l0.55-2.42a12.28,12.28,0,0,1,3.13,1.3,10.34,10.34,0,0,1,2.69,2.28,10.92,10.92,0,0,1,1.88,3.29,12.39,12.39,0,0,1,.7,4.31,11.58,11.58,0,0,1-.7,4.23,8.89,8.89,0,0,1-1.88,3,8.28,8.28,0,0,1-2.69,1.86,10.06,10.06,0,0,1-3.13.79Z"/><path class="cls-4" d="M370.41,474.73V472.2h2.72v-6.44h-2.74c0-1,0-1.52,0-2.53h2.74v-0.64a4.24,4.24,0,0,1,.38-1.87,3.78,3.78,0,0,1,1-1.29,4.14,4.14,0,0,1,1.44-.76,6,6,0,0,1,1.7-.25,10.78,10.78,0,0,1,2.62.24,6.65,6.65,0,0,1,1.7.64l-0.88,2.29a10.32,10.32,0,0,0-1.14-.45,5,5,0,0,0-1.58-.19,2.26,2.26,0,0,0-1.74.58,2.51,2.51,0,0,0-.5,1.69l4.84,0v2.53l-4.84,0c0,2.58,0,3.86,0,6.44l4.87,0c0,1,0,1.52,0,2.53C376.77,474.7,374.65,474.71,370.41,474.73Z"/><path class="cls-4" d="M384.69,463.9a12.76,12.76,0,0,1,2.13-.74,12.23,12.23,0,0,1,2.87-.34,6.35,6.35,0,0,1,2,.26,3.34,3.34,0,0,1,1.36.79,3,3,0,0,1,.75,1.25,5.49,5.49,0,0,1,.23,1.65q0,1.17-.08,2t-0.08,1.47a9.83,9.83,0,0,0,0,1.08c0,0.21.05,0.42,0.07,0.62l1.5,0v2.53l-3.87.06-0.3-1.56h-0.11a4.06,4.06,0,0,1-1.31,1.25,4.41,4.41,0,0,1-2.29.55,3.85,3.85,0,0,1-2.73-.89,3.11,3.11,0,0,1-1-2.43,3.68,3.68,0,0,1,.35-1.67,3,3,0,0,1,1-1.16,5,5,0,0,1,1.63-.69,9.58,9.58,0,0,1,2.12-.25c0.27,0,.57,0,0.87,0l1.12,0.08a2.37,2.37,0,0,0,0-.46v-0.44a1.45,1.45,0,0,0-.5-1.25,2.43,2.43,0,0,0-1.49-.36,7,7,0,0,0-2.11.33,13.71,13.71,0,0,0-1.58.62Zm3.93,8.39a2.53,2.53,0,0,0,2.44-1.3v-1.38l-0.68-.09a7.94,7.94,0,0,0-1,0,4.78,4.78,0,0,0-.87.09,2.93,2.93,0,0,0-.78.26,1.54,1.54,0,0,0-.55.46,1.09,1.09,0,0,0-.2.67,1.29,1.29,0,0,0,.38,1A1.75,1.75,0,0,0,388.62,472.29Z"/><path class="cls-4" d="M409.05,473.07a6.8,6.8,0,0,1-2.21,1.12,9.81,9.81,0,0,1-2.65.42,7.46,7.46,0,0,1-2.66-.38,5.27,5.27,0,0,1-2-1.19,5.07,5.07,0,0,1-1.21-1.9,7.08,7.08,0,0,1-.42-2.48,6.53,6.53,0,0,1,.48-2.59,5.58,5.58,0,0,1,1.35-1.94,6,6,0,0,1,2-1.23,8,8,0,0,1,2.56-.46,9.43,9.43,0,0,1,2.42.24,11.11,11.11,0,0,1,1.73.53c0,1.62,0,2.43,0,4l-2.54.06v-2.12a6.48,6.48,0,0,0-1.43-.13,4.39,4.39,0,0,0-1.28.22,3.22,3.22,0,0,0-1.13.64,3.36,3.36,0,0,0-.81,1.09,3.55,3.55,0,0,0-.31,1.55,3.51,3.51,0,0,0,.25,1.35,3.07,3.07,0,0,0,1.86,1.77,4.08,4.08,0,0,0,1.51.23,5.46,5.46,0,0,0,2.16-.42,9,9,0,0,0,1.26-.67Z"/><path class="cls-4" d="M413,465.11l-2.28.06v-2.53l2.28-.06V460l3-.93c0,1.39,0,2.08,0,3.47l6-.18c0,1,0,1.52,0,2.53l-6,.18v3.29a3.88,3.88,0,0,0,.67,2.55,2.25,2.25,0,0,0,1.87.74,4,4,0,0,0,1.13-.18,4.41,4.41,0,0,0,.91-0.41,5.45,5.45,0,0,0,.74-0.53l0.61-.52,1.38,2a4.65,4.65,0,0,1-1,.87,8.7,8.7,0,0,1-1.27.71,8.26,8.26,0,0,1-1.42.49,6.85,6.85,0,0,1-1.45.2,4.85,4.85,0,0,1-3.89-1.33q-1.3-1.4-1.3-4.53v-3.29Z"/><path class="cls-4" d="M424.94,468a7.17,7.17,0,0,1,.44-2.59,5.44,5.44,0,0,1,3.17-3.2,7.53,7.53,0,0,1,2.5-.49,7.13,7.13,0,0,1,2.59.34,5.1,5.1,0,0,1,1.93,1.16,4.92,4.92,0,0,1,1.19,1.87,7.82,7.82,0,0,1,0,5.06,5.46,5.46,0,0,1-3.17,3.21,7.47,7.47,0,0,1-2.5.49,7.09,7.09,0,0,1-2.59-.35,5.11,5.11,0,0,1-1.93-1.17,4.94,4.94,0,0,1-1.19-1.88A7.22,7.22,0,0,1,424.94,468Zm3.09-.1a4.48,4.48,0,0,0,.21,1.4,3.29,3.29,0,0,0,.6,1.11,2.57,2.57,0,0,0,.94.71,2.84,2.84,0,0,0,1.27.22,3,3,0,0,0,2.18-.93,4.66,4.66,0,0,0,.06-5.26,2.61,2.61,0,0,0-2.24-.9,3.66,3.66,0,0,0-1.2.24,2.48,2.48,0,0,0-1,.67,3.24,3.24,0,0,0-.63,1.13A5,5,0,0,0,428,467.88Z"/><path class="cls-4" d="M438.87,470.7l2.86-.11v-6.44l-2.86.11c0-1,0-1.52,0-2.53l5.19-.21,0.35,1.5h0.09a6.5,6.5,0,0,1,1.48-1.33,3.78,3.78,0,0,1,1.94-.59,2.51,2.51,0,0,1,2.18.91,5.39,5.39,0,0,1,.79,3.34l-2.7.12a2.25,2.25,0,0,0-.24-1.2,0.81,0.81,0,0,0-.77-0.35,2.37,2.37,0,0,0-1.49.52,5,5,0,0,0-1,1.1v4.9l5-.22v2.53c-4.34.19-6.52,0.29-10.86,0.46V470.7Z"/><path class="cls-4" d="M453.17,470.09l4.06-.19c0-2.58,0-3.86,0-6.44l-4.06.19v-2.53l7.05-.34v9l4.26-.22c0,1,0,1.52,0,2.53-4.53.24-6.79,0.35-11.32,0.56C453.17,471.6,453.17,471.1,453.17,470.09Zm3.5-12.26a1.71,1.71,0,0,1,.53-1.24,2.52,2.52,0,0,1,3-.15,1.48,1.48,0,0,1,.58,1.19,1.57,1.57,0,0,1-.58,1.24,2.47,2.47,0,0,1-1.54.55,2.06,2.06,0,0,1-1.47-.4A1.46,1.46,0,0,1,456.67,457.82Z"/><path class="cls-4" d="M467.71,461.17a13.26,13.26,0,0,1,2.13-.83,12.43,12.43,0,0,1,2.87-.46,6.25,6.25,0,0,1,2,.17,3.16,3.16,0,0,1,1.36.74,2.87,2.87,0,0,1,.75,1.22,5.41,5.41,0,0,1,.23,1.64q0,1.17-.08,2t-0.08,1.48a9.78,9.78,0,0,0,0,1.08c0,0.21.05,0.42,0.07,0.62l1.5-.09v2.53l-3.87.23-0.3-1.55h-0.11a4.32,4.32,0,0,1-1.31,1.3,4.54,4.54,0,0,1-2.29.65,3.71,3.71,0,0,1-2.73-.77,3,3,0,0,1-1-2.38,3.78,3.78,0,0,1,.35-1.69,3.22,3.22,0,0,1,1-1.21,5.2,5.2,0,0,1,1.63-.76,9.73,9.73,0,0,1,2.12-.34c0.27,0,.57,0,0.87,0l1.12,0a2.4,2.4,0,0,0,0-.46V463.9a1.39,1.39,0,0,0-.5-1.23,2.36,2.36,0,0,0-1.49-.29,7.14,7.14,0,0,0-2.1.42,14.28,14.28,0,0,0-1.58.68Zm3.92,8.22a2.88,2.88,0,0,0,1.64-.49,3,3,0,0,0,.8-0.91v-1.38l-0.68-.06a7.87,7.87,0,0,0-1,0,4.85,4.85,0,0,0-.87.13,3,3,0,0,0-.77.3,1.63,1.63,0,0,0-.55.48,1.13,1.13,0,0,0-.2.68,1.24,1.24,0,0,0,.38,1A1.7,1.7,0,0,0,471.63,469.39Z"/><path class="cls-4" d="M481.47,455l4.91-.31c0,4.25,0,6.38,0,10.63a4.76,4.76,0,0,0,.44,2.43,1.44,1.44,0,0,0,1.41.6,4,4,0,0,0,1.17-.23,4.81,4.81,0,0,0,.92-0.49l1.13,2q-0.39.28-.78,0.52a5.45,5.45,0,0,1-.83.42,5.91,5.91,0,0,1-1,.29,7.74,7.74,0,0,1-1.16.16,4.13,4.13,0,0,1-3.25-.9,4,4,0,0,1-1.08-3.06c0-3.86,0-5.8,0-9.66l-1.91.12C481.47,456.51,481.47,456,481.47,455Z"/><path class="cls-4" d="M495.08,472.91c4.09-.28,6.14-0.42,10.22-0.72v2.46c-4.09.3-6.13,0.44-10.22,0.72C495.08,474.39,495.08,473.89,495.08,472.91Z"/><path class="cls-4" d="M507.1,453.27l4.65-.35c0,2.36,0,3.53,0,5.89h0.09a4.34,4.34,0,0,1,1.47-1.29,5.76,5.76,0,0,1,3.78-.5,2.76,2.76,0,0,1,1.27.66,3.22,3.22,0,0,1,.83,1.37,7,7,0,0,1,.3,2.22v7.15l-3,.24c0-2.61,0-3.92,0-6.53a2.67,2.67,0,0,0-.6-2,1.94,1.94,0,0,0-1.57-.5,2.81,2.81,0,0,0-1.56.64,3.13,3.13,0,0,0-1,1.4c0,2.93,0,4.4,0,7.34l-3,.23c0-5.43,0-8.14,0-13.57l-1.66.12C507.1,454.78,507.1,454.28,507.1,453.27Z"/><path class="cls-4" d="M533.2,466a4.63,4.63,0,0,1-.77.61,8.26,8.26,0,0,1-1.1.59,9.33,9.33,0,0,1-3,.76,7.59,7.59,0,0,1-2.63-.19,4.6,4.6,0,0,1-3.2-2.85,6.81,6.81,0,0,1-.43-2.51,7,7,0,0,1,.48-2.7,6,6,0,0,1,1.32-2,6.19,6.19,0,0,1,2-1.3,8,8,0,0,1,2.44-.59,7.39,7.39,0,0,1,1.81.08,4.52,4.52,0,0,1,1.71.65,3.75,3.75,0,0,1,1.28,1.4,4.85,4.85,0,0,1,.5,2.35,11.25,11.25,0,0,1-.23,2.16l-8.28.71a2.51,2.51,0,0,0,.31,1.22,2.18,2.18,0,0,0,.76.76,3,3,0,0,0,1.08.38,5.29,5.29,0,0,0,1.3,0,7,7,0,0,0,2.27-.52,5.36,5.36,0,0,0,1.44-.91Zm-5-7.78a4,4,0,0,0-1.13.26,3.5,3.5,0,0,0-1,.56,3,3,0,0,0-.7.84,2.58,2.58,0,0,0-.32,1.08l5.66-.48A2.07,2.07,0,0,0,528.23,458.26Z"/><path class="cls-4" d="M536.72,450.85l4.9-.44c0,4.25,0,6.38,0,10.63a4.69,4.69,0,0,0,.44,2.42,1.4,1.4,0,0,0,1.4.56,4,4,0,0,0,1.17-.26,5,5,0,0,0,.92-0.51l1.13,2q-0.39.29-.78,0.55a5.63,5.63,0,0,1-.83.45,6,6,0,0,1-1,.32,7.79,7.79,0,0,1-1.16.19,4,4,0,0,1-3.24-.81,3.94,3.94,0,0,1-1.08-3c0-3.86,0-5.8,0-9.66l-1.91.17v-2.53Z"/><path class="cls-4" d="M548.51,454.36l3.91-.38,0.34,1.35h0.09a4.9,4.9,0,0,1,3.86-2.08,5.28,5.28,0,0,1,1.94.14,3.32,3.32,0,0,1,1.52.89,4.34,4.34,0,0,1,1,1.69,8.28,8.28,0,0,1,.34,2.56,8.82,8.82,0,0,1-.39,2.7,6.4,6.4,0,0,1-1.13,2.13,5.56,5.56,0,0,1-1.79,1.45,6.68,6.68,0,0,1-2.41.68,9.35,9.35,0,0,1-1.4,0,3.6,3.6,0,0,1-1.15-.22V470l-3,.29c0-5.43,0-8.14,0-13.57l-1.72.16v-2.53Zm7.31,1.5a3.31,3.31,0,0,0-1.6.59,2.59,2.59,0,0,0-1,1.41v4.78a2.22,2.22,0,0,0,.93.31,5,5,0,0,0,1.23,0,3.42,3.42,0,0,0,1.2-.34,2.82,2.82,0,0,0,1-.8,3.85,3.85,0,0,0,.64-1.28,6.23,6.23,0,0,0,.23-1.79,3.13,3.13,0,0,0-.74-2.27A2.17,2.17,0,0,0,555.83,455.86Z"/><path class="cls-4" d="M574.58,462a4.77,4.77,0,0,1-.77.62,8.46,8.46,0,0,1-1.1.61,9.46,9.46,0,0,1-3,.83,7.53,7.53,0,0,1-2.63-.14,4.46,4.46,0,0,1-3.19-2.79,6.75,6.75,0,0,1-.42-2.5,7.14,7.14,0,0,1,.48-2.71,6.13,6.13,0,0,1,1.32-2,6.36,6.36,0,0,1,2-1.34,8.11,8.11,0,0,1,2.44-.64,7.36,7.36,0,0,1,1.8,0,4.42,4.42,0,0,1,1.71.61,3.63,3.63,0,0,1,1.27,1.37,4.8,4.8,0,0,1,.49,2.34,11.34,11.34,0,0,1-.23,2.16l-8.27.88a2.48,2.48,0,0,0,.31,1.21,2.11,2.11,0,0,0,.76.75,3,3,0,0,0,1.08.36,5.27,5.27,0,0,0,1.3,0,7.11,7.11,0,0,0,2.26-.56,5.51,5.51,0,0,0,1.44-.94Zm-5-7.68a4,4,0,0,0-1.13.28,3.59,3.59,0,0,0-1,.58,3,3,0,0,0-.7.86,2.63,2.63,0,0,0-.32,1.09l5.65-.6A2,2,0,0,0,569.61,454.31Z"/><path class="cls-4" d="M577,460.41l2.85-.31v-6.44L577,454v-2.53l5.17-.57,0.34,1.48h0.09a7.2,7.2,0,0,1,1.47-1.43,4,4,0,0,1,1.93-.73,2.33,2.33,0,0,1,2.17.76,5.14,5.14,0,0,1,.79,3.29l-2.69.31a2.16,2.16,0,0,0-.24-1.18,0.75,0.75,0,0,0-.77-0.29,2.53,2.53,0,0,0-1.48.63,5.49,5.49,0,0,0-1,1.17v4.9l5-.57v2.53c-4.33.5-6.49,0.74-10.82,1.22v-2.53Z"/><path class="cls-4" d="M600.31,465.11a9.69,9.69,0,0,1-3.12-.63,7.71,7.71,0,0,1-2.68-1.73,8.33,8.33,0,0,1-1.87-2.91,11.33,11.33,0,0,1-.7-4.2,12.71,12.71,0,0,1,.7-4.35,11.64,11.64,0,0,1,1.87-3.38,11.09,11.09,0,0,1,2.68-2.41,12.91,12.91,0,0,1,3.12-1.46l0.55,2.39a10.89,10.89,0,0,0-1.82.88A7.92,7.92,0,0,0,597.1,449a9.05,9.05,0,0,0-1.55,2.59,9.94,9.94,0,0,0-.63,3.76,8,8,0,0,0,.67,3.48A6.67,6.67,0,0,0,597.2,461a6.06,6.06,0,0,0,2,1.17,7.1,7.1,0,0,0,1.7.4Z"/><path class="cls-4" d="M606.07,457l3.51-.44V446.51l-3,2.7-1.38-1.67,5.23-4.66,2-.26v13.57l3.44-.44v2.53l-9.79,1.25V457Z"/><path class="cls-4" d="M622.39,455.95a1.81,1.81,0,0,1,.52-1.31,2.15,2.15,0,0,1,1.3-.63,2,2,0,0,1,1.9.57,2.89,2.89,0,0,1,.64,2,4.73,4.73,0,0,1-.4,1.94,6,6,0,0,1-1,1.61,6.83,6.83,0,0,1-1.43,1.21,6.65,6.65,0,0,1-1.57.74l-0.62-1.18a7.65,7.65,0,0,0,1.11-.54,5.41,5.41,0,0,0,1-.77,4.34,4.34,0,0,0,.77-1,2.74,2.74,0,0,0,.36-1.15,3,3,0,0,1-1.17.19,1.54,1.54,0,0,1-.79-0.26,1.25,1.25,0,0,1-.45-0.58A2.21,2.21,0,0,1,622.39,455.95Z"/><path class="cls-4" d="M633.57,453.37l3.5-.49V442.82l-3,2.75-1.37-1.65,5.22-4.73,2-.29v13.57l3.43-.49v2.53l-9.78,1.39v-2.53Z"/><path class="cls-4" d="M647.31,451.4l3.5-.52V440.84l-3,2.77L646.42,442l5.22-4.77,2-.3v13.57l3.43-.52v2.53l-9.77,1.45V451.4Z"/><path class="cls-4" d="M661.36,454.2a9.24,9.24,0,0,0,1.69-.87,8.94,8.94,0,0,0,2-1.71,9.74,9.74,0,0,0,1.61-2.63,9.3,9.3,0,0,0,.66-3.67,8.68,8.68,0,0,0-.63-3.58,6.23,6.23,0,0,0-1.54-2.16,5.39,5.39,0,0,0-1.93-1.1,8.45,8.45,0,0,0-1.82-.38l0.55-2.55a10.07,10.07,0,0,1,3.11.6,7.47,7.47,0,0,1,2.67,1.68,8.12,8.12,0,0,1,1.86,2.87,11.17,11.17,0,0,1,.7,4.16,13,13,0,0,1-.7,4.39,11.93,11.93,0,0,1-1.86,3.42,11.42,11.42,0,0,1-2.67,2.46,12.35,12.35,0,0,1-3.11,1.49Z"/><path class="cls-4" d="M53.22,398.66v-2.53l2.7,0.43c0-2.58,0-3.86,0-6.44l-2.72-.43v-2.53l2.72,0.43v-0.64a3.87,3.87,0,0,1,.38-1.8,3,3,0,0,1,1-1.13,3.43,3.43,0,0,1,1.43-.53,5.72,5.72,0,0,1,1.68,0,11.54,11.54,0,0,1,2.6.66,7.87,7.87,0,0,1,1.68.91l-0.87,2.14a12.3,12.3,0,0,0-1.13-.63,5.46,5.46,0,0,0-1.57-.45,2,2,0,0,0-1.73.3,2.21,2.21,0,0,0-.49,1.61l4.8,0.74v2.53l-4.8-.74c0,2.58,0,3.86,0,6.44l4.82,0.74v2.53C59.51,399.65,57.41,399.33,53.22,398.66Z"/><path class="cls-4" d="M67.37,390.13a11.17,11.17,0,0,1,2.12-.39,11.8,11.8,0,0,1,2.85.12,6.91,6.91,0,0,1,2,.59,4.14,4.14,0,0,1,1.35,1,3.74,3.74,0,0,1,.74,1.37,5.91,5.91,0,0,1,.23,1.69q0,1.17-.08,2c-0.05.54-.08,1-0.08,1.46a10.07,10.07,0,0,0,0,1.09c0,0.21.05,0.43,0.07,0.63l1.49,0.22v2.53l-3.84-.56L74,400.27l-0.11,0a3.19,3.19,0,0,1-1.3,1,4,4,0,0,1-2.27.18,4.47,4.47,0,0,1-2.71-1.33,3.66,3.66,0,0,1-1-2.59,3.35,3.35,0,0,1,.35-1.61,2.39,2.39,0,0,1,1-1,4.23,4.23,0,0,1,1.61-.42,9.25,9.25,0,0,1,2.1.09q0.41,0.06.86,0.17l1.11,0.26a2.28,2.28,0,0,0,0-.45v-0.44a1.7,1.7,0,0,0-.5-1.33,2.76,2.76,0,0,0-1.48-.6,6.64,6.64,0,0,0-2.09,0,11.78,11.78,0,0,0-1.57.36Zm3.89,9A2.52,2.52,0,0,0,72.9,399a2.17,2.17,0,0,0,.79-0.75v-1.38l-0.68-.2a8.29,8.29,0,0,0-1-.2,4.64,4.64,0,0,0-.86,0,2.55,2.55,0,0,0-.77.14,1.21,1.21,0,0,0-.54.37,1,1,0,0,0-.2.64,1.51,1.51,0,0,0,.37,1.06A2,2,0,0,0,71.27,399.16Z"/><path class="cls-4" d="M91.55,403.24a5.66,5.66,0,0,1-2.2.76,9.32,9.32,0,0,1-2.63,0,8.17,8.17,0,0,1-2.65-.81,6.56,6.56,0,0,1-1.95-1.51,6.31,6.31,0,0,1-1.2-2.09,7.69,7.69,0,0,1-.41-2.54,6,6,0,0,1,.48-2.51,4.43,4.43,0,0,1,1.34-1.72,4.87,4.87,0,0,1,2-.9,7.52,7.52,0,0,1,2.54,0,10.13,10.13,0,0,1,2.4.64,12.91,12.91,0,0,1,1.72.81c0,1.62,0,2.43,0,4L88.5,397v-2.12a6.91,6.91,0,0,0-1.42-.36,4.15,4.15,0,0,0-1.27,0A2.58,2.58,0,0,0,83.89,396a3.25,3.25,0,0,0-.31,1.5,3.85,3.85,0,0,0,.25,1.39,3.85,3.85,0,0,0,1.84,2.07,4.48,4.48,0,0,0,1.5.48,5.09,5.09,0,0,0,2.14-.07,7.31,7.31,0,0,0,1.25-.47Z"/><path class="cls-4" d="M95.44,395.91l-2.27-.31v-2.53l2.27,0.31v-2.62l3-.45v3.47l6,0.8v2.53l-6-.8c0,1.32,0,2,0,3.29a4.39,4.39,0,0,0,.66,2.65,2.66,2.66,0,0,0,1.86,1,3.83,3.83,0,0,0,1.12,0A3.75,3.75,0,0,0,103,403a4.33,4.33,0,0,0,.73-0.41l0.61-.43,1.38,2.25a3.67,3.67,0,0,1-1,.71,7.14,7.14,0,0,1-1.26.5,7.25,7.25,0,0,1-1.41.26,6.59,6.59,0,0,1-1.44,0,5.68,5.68,0,0,1-3.86-2,7.45,7.45,0,0,1-1.29-4.74C95.44,397.89,95.44,397.23,95.44,395.91Z"/><path class="cls-4" d="M107.34,400.72a6.65,6.65,0,0,1,.44-2.52,4.42,4.42,0,0,1,1.24-1.75,4.51,4.51,0,0,1,1.92-.94,7,7,0,0,1,2.49-.08,7.79,7.79,0,0,1,2.58.76,6.34,6.34,0,0,1,1.92,1.47,6.08,6.08,0,0,1,1.18,2.07,7.8,7.8,0,0,1,.4,2.53,6.68,6.68,0,0,1-.44,2.52,4.45,4.45,0,0,1-1.24,1.76,4.5,4.5,0,0,1-1.91.94,7,7,0,0,1-2.49.09,7.75,7.75,0,0,1-2.58-.77,6.35,6.35,0,0,1-1.92-1.48,6.11,6.11,0,0,1-1.18-2.07A7.82,7.82,0,0,1,107.34,400.72Zm3.07,0.4a4.85,4.85,0,0,0,.21,1.43,4,4,0,0,0,.6,1.2,3.25,3.25,0,0,0,.94.87,3.15,3.15,0,0,0,1.26.43,2.61,2.61,0,0,0,2.17-.58,3.34,3.34,0,0,0,.84-2.59,4.42,4.42,0,0,0-.78-2.66,3.09,3.09,0,0,0-2.23-1.26,3.42,3.42,0,0,0-1.19,0,2,2,0,0,0-1,.51,2.62,2.62,0,0,0-.63,1A4.71,4.71,0,0,0,110.41,401.11Z"/><path class="cls-4" d="M121.19,405.69L124,406c0-2.58,0-3.86,0-6.44l-2.85-.35v-2.53l5.16,0.63,0.34,1.56h0.09a5.1,5.1,0,0,1,1.47-1.09,3.38,3.38,0,0,1,1.93-.28,3,3,0,0,1,2.17,1.27,6,6,0,0,1,.79,3.47l-2.69-.32a2.49,2.49,0,0,0-.24-1.24,1,1,0,0,0-.77-0.47,2.08,2.08,0,0,0-1.48.28,3.9,3.9,0,0,0-1,.94c0,2,0,2.94,0,4.9l5,0.59c0,1,0,1.52,0,2.53-4.32-.51-6.49-0.77-10.81-1.3v-2.53Z"/><path class="cls-4" d="M135.42,407.38l4,0.46c0-2.58,0-3.86,0-6.44l-4-.46c0-1,0-1.52,0-2.53l7,0.8c0,3.59,0,5.38,0,9l4.25,0.47c0,1,0,1.52,0,2.53-4.51-.49-6.77-0.75-11.27-1.27v-2.53Zm3.49-11.7a1.44,1.44,0,0,1,.53-1.16,1.86,1.86,0,0,1,1.47-.34,2.5,2.5,0,0,1,1.54.68,1.76,1.76,0,0,1,.57,1.28,1.32,1.32,0,0,1-.57,1.14,2.17,2.17,0,0,1-1.54.3,2.37,2.37,0,0,1-1.47-.64A1.73,1.73,0,0,1,138.91,395.69Z"/><path class="cls-4" d="M149.91,400.82a11.54,11.54,0,0,1,2.13-.48,11.87,11.87,0,0,1,2.86,0,6.73,6.73,0,0,1,2,.5,3.91,3.91,0,0,1,1.36,1,3.55,3.55,0,0,1,.75,1.34,5.79,5.79,0,0,1,.23,1.68q0,1.17-.08,2c-0.05.55-.08,1-0.08,1.46a10,10,0,0,0,0,1.09c0,0.21.05,0.43,0.07,0.63l1.49,0.15c0,1,0,1.52,0,2.53l-3.86-.4-0.3-1.6h-0.11a3.4,3.4,0,0,1-1.3,1.09,4.1,4.1,0,0,1-2.28.28,4.29,4.29,0,0,1-2.72-1.21,3.5,3.5,0,0,1-1-2.55,3.43,3.43,0,0,1,.35-1.63,2.55,2.55,0,0,1,1-1,4.41,4.41,0,0,1,1.62-.49,9.31,9.31,0,0,1,2.11,0c0.27,0,.56.07,0.87,0.14l1.12,0.21a2.3,2.3,0,0,0,0-.46v-0.44a1.63,1.63,0,0,0-.5-1.31,2.67,2.67,0,0,0-1.48-.54,6.7,6.7,0,0,0-2.1.08,12.24,12.24,0,0,0-1.57.43Zm3.91,8.86a2.58,2.58,0,0,0,1.64-.23,2.32,2.32,0,0,0,.8-0.78v-1.38l-0.68-.18a8.18,8.18,0,0,0-1-.16,4.67,4.67,0,0,0-.86,0,2.64,2.64,0,0,0-.77.17,1.29,1.29,0,0,0-.55.39,1,1,0,0,0-.2.65,1.45,1.45,0,0,0,.37,1A1.94,1.94,0,0,0,153.82,409.67Z"/><path class="cls-4" d="M163.62,396.87l4.9,0.49c0,4.25,0,6.38,0,10.63a5.2,5.2,0,0,0,.44,2.5,1.72,1.72,0,0,0,1.4.83,3.77,3.77,0,0,0,1.17,0,4,4,0,0,0,.92-0.34l1.13,2.18q-0.39.22-.78,0.4a4.57,4.57,0,0,1-.83.29,5.3,5.3,0,0,1-1,.14,7.52,7.52,0,0,1-1.16,0,4.78,4.78,0,0,1-3.24-1.42,4.68,4.68,0,0,1-1.08-3.24c0-3.86,0-5.8,0-9.66l-1.91-.19v-2.53Z"/><path class="cls-4" d="M177.21,417c4.08,0.38,6.13.57,10.21,0.93,0,1,0,1.48,0,2.46-4.09-.36-6.13-0.55-10.21-0.93V417Z"/><path class="cls-4" d="M189.22,399.28l4.65,0.4c0,2.36,0,3.53,0,5.89H194a3.45,3.45,0,0,1,1.47-1,4.82,4.82,0,0,1,2.16-.26,5.64,5.64,0,0,1,1.61.36,3.41,3.41,0,0,1,1.27.86,4,4,0,0,1,.83,1.51,7.5,7.5,0,0,1,.3,2.27c0,2.86,0,4.29,0,7.15l-3-.25c0-2.61,0-3.92,0-6.53a3,3,0,0,0-.6-2.07,2.27,2.27,0,0,0-1.57-.75,2.44,2.44,0,0,0-1.56.39,2.5,2.5,0,0,0-1,1.24c0,2.93,0,4.4,0,7.34l-3-.26c0-5.43,0-8.14,0-13.57l-1.66-.14C189.22,400.8,189.22,400.3,189.22,399.28Z"/><path class="cls-4" d="M215.31,416.28a3.72,3.72,0,0,1-.77.48,6.89,6.89,0,0,1-1.11.41,8.11,8.11,0,0,1-1.39.26,8.81,8.81,0,0,1-1.61,0,8.15,8.15,0,0,1-2.64-.62,5.77,5.77,0,0,1-3.2-3.37,7.37,7.37,0,0,1-.43-2.58,6.47,6.47,0,0,1,.48-2.62,4.76,4.76,0,0,1,1.32-1.79,5,5,0,0,1,2-1,7.42,7.42,0,0,1,2.44-.19,7.84,7.84,0,0,1,1.81.37,5.42,5.42,0,0,1,1.72.92,4.76,4.76,0,0,1,1.28,1.6,5.36,5.36,0,0,1,.49,2.43,10.68,10.68,0,0,1-.23,2.12l-8.29-.63a2.81,2.81,0,0,0,.31,1.27,2.75,2.75,0,0,0,.76.89,3.59,3.59,0,0,0,1.08.56,5.58,5.58,0,0,0,1.3.25,6.55,6.55,0,0,0,2.27-.15,4.38,4.38,0,0,0,1.44-.67Zm-5-8.59a3.7,3.7,0,0,0-1.13.08,2.88,2.88,0,0,0-1,.41,2.35,2.35,0,0,0-.7.73,2.27,2.27,0,0,0-.32,1l5.66,0.44A2.48,2.48,0,0,0,210.34,407.69Z"/><path class="cls-4" d="M218.84,401.66l4.9,0.35c0,4.25,0,6.38,0,10.63a5.11,5.11,0,0,0,.44,2.49,1.66,1.66,0,0,0,1.41.79,3.8,3.8,0,0,0,1.17-.07,4.16,4.16,0,0,0,.92-0.36l1.13,2.15q-0.39.23-.78,0.42a4.71,4.71,0,0,1-.83.31,5.4,5.4,0,0,1-1,.16,7.53,7.53,0,0,1-1.16,0,4.66,4.66,0,0,1-3.25-1.33,4.56,4.56,0,0,1-1.08-3.21c0-3.86,0-5.8,0-9.66l-1.91-.14v-2.53Z"/><path class="cls-4" d="M230.65,407.08l3.92,0.26,0.35,1.4H235a4.14,4.14,0,0,1,3.87-1.46,5.69,5.69,0,0,1,1.95.45,4.14,4.14,0,0,1,1.52,1.14,5.3,5.3,0,0,1,1,1.85,8.81,8.81,0,0,1,.35,2.62,8.21,8.21,0,0,1-.39,2.63,5.22,5.22,0,0,1-1.13,1.94,4.44,4.44,0,0,1-1.8,1.15,6.11,6.11,0,0,1-2.42.29,9.69,9.69,0,0,1-1.4-.19,4.1,4.1,0,0,1-1.15-.41c0,1.89,0,2.83,0,4.71l-3-.19c0-5.43,0-8.14,0-13.57l-1.73-.11C230.65,408.6,230.65,408.1,230.65,407.08Zm7.33,2.68a2.92,2.92,0,0,0-1.6.34,2.08,2.08,0,0,0-1,1.25c0,1.91,0,2.87,0,4.78a2.65,2.65,0,0,0,.93.46,5.3,5.3,0,0,0,1.23.23,3.13,3.13,0,0,0,1.2-.14,2.25,2.25,0,0,0,1-.64,3.16,3.16,0,0,0,.64-1.18,5.83,5.83,0,0,0,.23-1.76,3.59,3.59,0,0,0-.74-2.39A2.56,2.56,0,0,0,238,409.77Z"/><path class="cls-4" d="M256.78,418.93a3.81,3.81,0,0,1-.77.5,7.06,7.06,0,0,1-1.11.44,8.26,8.26,0,0,1-1.39.29,8.9,8.9,0,0,1-1.61,0,8.07,8.07,0,0,1-2.64-.56,5.6,5.6,0,0,1-3.2-3.3,7.29,7.29,0,0,1-.43-2.57,6.54,6.54,0,0,1,.48-2.63,4.9,4.9,0,0,1,1.32-1.82,5.16,5.16,0,0,1,2-1,7.49,7.49,0,0,1,2.44-.24,7.76,7.76,0,0,1,1.81.33,5.29,5.29,0,0,1,1.72.89,4.61,4.61,0,0,1,1.28,1.58,5.28,5.28,0,0,1,.5,2.42,10.75,10.75,0,0,1-.23,2.13l-8.3-.46a2.77,2.77,0,0,0,.31,1.26,2.68,2.68,0,0,0,.76.87,3.51,3.51,0,0,0,1.08.53,5.54,5.54,0,0,0,1.3.22,6.6,6.6,0,0,0,2.27-.2,4.5,4.5,0,0,0,1.44-.7Zm-5-8.48a3.73,3.73,0,0,0-1.13.1,3,3,0,0,0-1,.43,2.41,2.41,0,0,0-.7.74,2.29,2.29,0,0,0-.32,1l5.67,0.32A2.42,2.42,0,0,0,251.8,410.45Z"/><path class="cls-4" d="M259.2,417.75l2.86,0.15c0-2.58,0-3.86,0-6.44l-2.86-.15c0-1,0-1.52,0-2.53l5.19,0.26,0.35,1.53h0.09a5.69,5.69,0,0,1,1.48-1.19,3.54,3.54,0,0,1,1.94-.41,2.76,2.76,0,0,1,2.18,1.11,5.74,5.74,0,0,1,.79,3.42l-2.7-.13a2.38,2.38,0,0,0-.24-1.22,0.9,0.9,0,0,0-.77-0.42,2.2,2.2,0,0,0-1.49.39,4.34,4.34,0,0,0-1,1V418l5,0.24c0,1,0,1.52,0,2.53-4.34-.2-6.51-0.31-10.86-0.54C259.2,419.27,259.2,418.76,259.2,417.75Z"/><path class="cls-4" d="M282.62,426.23a11.08,11.08,0,0,1-3.14-1.14,9.72,9.72,0,0,1-2.7-2.16,10.3,10.3,0,0,1-1.88-3.21,12.2,12.2,0,0,1-.7-4.31,11.71,11.71,0,0,1,.7-4.24,9.44,9.44,0,0,1,1.88-3.08,8.8,8.8,0,0,1,2.7-2,11.06,11.06,0,0,1,3.14-1l0.55,2.48a9.3,9.3,0,0,0-1.83.58,6.32,6.32,0,0,0-1.95,1.32,7.28,7.28,0,0,0-1.56,2.34,9.12,9.12,0,0,0-.63,3.65,8.69,8.69,0,0,0,.67,3.59,8.35,8.35,0,0,0,1.63,2.45,7.6,7.6,0,0,0,2,1.48,8.22,8.22,0,0,0,1.71.68Z"/><path class="cls-4" d="M288.41,419.05l3.53,0.13c0-4,0-6,0-10.05l-3,2.21-1.38-1.89,5.26-3.81,2,0.07c0,5.43,0,8.14,0,13.57l3.46,0.11v2.53l-9.85-.34C288.41,420.57,288.41,420.06,288.41,419.05Z"/><path class="cls-4" d="M304.82,420.65a1.53,1.53,0,0,1,.52-1.23,1.85,1.85,0,0,1,1.3-.42,2.35,2.35,0,0,1,1.91.88,3.3,3.3,0,0,1,.65,2.06,4.27,4.27,0,0,1-.4,1.88,4.79,4.79,0,0,1-1,1.44,5.45,5.45,0,0,1-1.44,1,5.72,5.72,0,0,1-1.58.48l-0.62-1.28a6.54,6.54,0,0,0,1.12-.36,4.36,4.36,0,0,0,1-.6,3.43,3.43,0,0,0,.77-0.86,2.38,2.38,0,0,0,.36-1.09,2.94,2.94,0,0,1-1.18,0,1.84,1.84,0,0,1-.8-0.39,1.56,1.56,0,0,1-.45-0.66A2.38,2.38,0,0,1,304.82,420.65Z"/><path class="cls-4" d="M316.08,419.89l3.53,0.08V409.92l-3,2.26-1.38-1.87,5.26-3.88,2,0c0,5.43,0,8.14,0,13.57l3.46,0.07v2.53l-9.85-.2C316.08,421.41,316.08,420.9,316.08,419.89Z"/><path class="cls-4" d="M329.92,420.16l3.53,0.05V410.16l-3,2.28L329,410.58l5.26-3.92,2,0v13.57l3.46,0v2.53l-9.85-.13v-2.53Z"/><path class="cls-4" d="M344.09,425.24a7.87,7.87,0,0,0,1.71-.59,7.13,7.13,0,0,0,2-1.39,7.81,7.81,0,0,0,1.63-2.37,8.45,8.45,0,0,0,.67-3.56,9.36,9.36,0,0,0-.63-3.68,7.78,7.78,0,0,0-1.56-2.41,6.78,6.78,0,0,0-1.95-1.42,9.74,9.74,0,0,0-1.83-.67l0.55-2.46a11.56,11.56,0,0,1,3.14,1.11,9.44,9.44,0,0,1,2.7,2.11,10.06,10.06,0,0,1,1.88,3.17,13.33,13.33,0,0,1,0,8.54,9.67,9.67,0,0,1-1.88,3.12,9.08,9.08,0,0,1-2.7,2,10.62,10.62,0,0,1-3.14,1Z"/><path class="cls-4" d="M508.23,415l2.85-.21c0-2.58,0-3.86,0-6.44l-2.85.21V406l5.18-.39,0.35,1.49h0.09a6.84,6.84,0,0,1,1.47-1.38,3.88,3.88,0,0,1,1.93-.66,2.42,2.42,0,0,1,2.18.84,5.26,5.26,0,0,1,.79,3.32l-2.69.21a2.2,2.2,0,0,0-.24-1.19,0.78,0.78,0,0,0-.77-0.32,2.45,2.45,0,0,0-1.48.58,5.22,5.22,0,0,0-1,1.13c0,2,0,2.94,0,4.9l5-.39c0,1,0,1.52,0,2.53-4.34.35-6.5,0.51-10.84,0.84V415Z"/><path class="cls-4" d="M533.43,414.26a4.64,4.64,0,0,1-.77.61,8.26,8.26,0,0,1-1.1.59,9.33,9.33,0,0,1-3,.76,7.59,7.59,0,0,1-2.63-.19,4.6,4.6,0,0,1-3.2-2.85,6.81,6.81,0,0,1-.43-2.51,7,7,0,0,1,.48-2.7,6,6,0,0,1,1.32-2,6.19,6.19,0,0,1,2-1.3,8,8,0,0,1,2.44-.59,7.39,7.39,0,0,1,1.81.08,4.52,4.52,0,0,1,1.71.65,3.75,3.75,0,0,1,1.28,1.4,4.85,4.85,0,0,1,.5,2.35,11.25,11.25,0,0,1-.23,2.16l-8.28.71a2.51,2.51,0,0,0,.31,1.22,2.18,2.18,0,0,0,.76.76,3,3,0,0,0,1.08.38,5.31,5.31,0,0,0,1.3,0,7,7,0,0,0,2.27-.52,5.36,5.36,0,0,0,1.44-.91Zm-5-7.78a4,4,0,0,0-1.13.26,3.5,3.5,0,0,0-1,.56,3,3,0,0,0-.7.84,2.58,2.58,0,0,0-.32,1.08l5.66-.48A2.07,2.07,0,0,0,528.46,406.47Z"/><path class="cls-4" d="M547.5,413.09a7.39,7.39,0,0,1-2.21,1.28,10.15,10.15,0,0,1-2.64.6,7.24,7.24,0,0,1-2.66-.19,4.82,4.82,0,0,1-2-1.05,4.63,4.63,0,0,1-1.21-1.81,7.39,7.39,0,0,1,.07-5.07,6.14,6.14,0,0,1,1.35-2,6.56,6.56,0,0,1,2-1.37,8.3,8.3,0,0,1,2.55-.64,9.24,9.24,0,0,1,2.41.07,10.48,10.48,0,0,1,1.73.41c0,1.62,0,2.43,0,4l-2.53.24v-2.12a6.36,6.36,0,0,0-1.43,0,4.54,4.54,0,0,0-1.28.31,3.51,3.51,0,0,0-1.13.72,3.61,3.61,0,0,0-1.12,2.71,3.39,3.39,0,0,0,.25,1.33,2.78,2.78,0,0,0,1.85,1.64,4,4,0,0,0,1.51.13,5.69,5.69,0,0,0,2.15-.57,9.77,9.77,0,0,0,1.25-.76Z"/><path class="cls-4" d="M556.33,401.84l4.28-.43c0,3.2,0,4.8,0,8v1l1.75-.18c0,1,0,1.52,0,2.53l-3.63.37-0.53-1.65H558.1a4.7,4.7,0,0,1-1.59,1.61,5.22,5.22,0,0,1-2.35.81,5.1,5.1,0,0,1-1.6-.07,2.55,2.55,0,0,1-1.23-.64,3.12,3.12,0,0,1-.78-1.35,7.5,7.5,0,0,1-.28-2.23V405l-1.31.13c0-1,0-1.52,0-2.53l4.3-.41c0,2.61,0,3.92,0,6.53a3.31,3.31,0,0,0,.45,2,1.48,1.48,0,0,0,1.41.48,2.74,2.74,0,0,0,1.53-.66,3.13,3.13,0,0,0,1-1.34c0-2,0-2.94,0-4.9l-1.29.13C556.33,403.36,556.33,402.85,556.33,401.84Z"/><path class="cls-4" d="M563.43,410.09l2.85-.29c0-2.58,0-3.86,0-6.44l-2.85.29c0-1,0-1.52,0-2.53l5.17-.54,0.34,1.48H569a7.13,7.13,0,0,1,1.47-1.42,4,4,0,0,1,1.93-.71,2.35,2.35,0,0,1,2.17.78,5.17,5.17,0,0,1,.79,3.29l-2.69.29a2.17,2.17,0,0,0-.24-1.18,0.76,0.76,0,0,0-.77-0.3,2.51,2.51,0,0,0-1.48.62,5.44,5.44,0,0,0-1,1.16c0,2,0,2.94,0,4.9l5-.53v2.53c-4.33.47-6.49,0.7-10.82,1.14C563.43,411.61,563.43,411.1,563.43,410.09Z"/><path class="cls-4" d="M586.77,415a9.74,9.74,0,0,1-3.12-.66,7.79,7.79,0,0,1-2.69-1.74,8.4,8.4,0,0,1-1.87-2.92,11.36,11.36,0,0,1-.7-4.2,12.66,12.66,0,0,1,.7-4.34,11.54,11.54,0,0,1,1.87-3.37,11,11,0,0,1,2.69-2.4,12.81,12.81,0,0,1,3.12-1.44l0.55,2.4a10.81,10.81,0,0,0-1.82.87,7.85,7.85,0,0,0-1.94,1.62,9,9,0,0,0-1.55,2.58,9.9,9.9,0,0,0-.63,3.75,8,8,0,0,0,.67,3.49,6.74,6.74,0,0,0,1.62,2.2,6.12,6.12,0,0,0,2,1.18,7.15,7.15,0,0,0,1.7.41Z"/><path class="cls-4" d="M592.53,406.89l3.51-.42c0-4,0-6,0-10.05l-3,2.68-1.38-1.68,5.23-4.62,2-.24c0,5.43,0,8.14,0,13.57l3.44-.42v2.53l-9.8,1.18C592.53,408.4,592.53,407.9,592.53,406.89Z"/><path class="cls-4" d="M606.3,405.22l3.51-.44c0-4,0-6,0-10.05l-3,2.7-1.38-1.67,5.23-4.66,2-.26c0,5.43,0,8.14,0,13.57l3.44-.44v2.53c-3.92.51-5.87,0.76-9.79,1.25C606.3,406.73,606.3,406.23,606.3,405.22Z"/><path class="cls-4" d="M622.62,404.17a1.81,1.81,0,0,1,.52-1.31,2.15,2.15,0,0,1,1.3-.63,2,2,0,0,1,1.9.57,2.89,2.89,0,0,1,.64,2,4.73,4.73,0,0,1-.4,1.94,6,6,0,0,1-1,1.61,6.83,6.83,0,0,1-1.43,1.21,6.65,6.65,0,0,1-1.57.74l-0.62-1.18a7.63,7.63,0,0,0,1.11-.54,5.41,5.41,0,0,0,1-.77,4.33,4.33,0,0,0,.77-1,2.74,2.74,0,0,0,.36-1.15,3,3,0,0,1-1.17.19,1.54,1.54,0,0,1-.79-0.26,1.25,1.25,0,0,1-.45-0.58A2.21,2.21,0,0,1,622.62,404.17Z"/><path class="cls-4" d="M633.8,401.58l3.5-.49c0-4,0-6,0-10.05l-3,2.75-1.37-1.65,5.22-4.73,2-.29c0,5.43,0,8.14,0,13.57l3.43-.49v2.53c-3.91.56-5.87,0.84-9.78,1.39v-2.53Z"/><path class="cls-4" d="M646,394.31a14.54,14.54,0,0,1,.44-3.73,8.93,8.93,0,0,1,1.23-2.79,6.32,6.32,0,0,1,1.9-1.83,6.43,6.43,0,0,1,2.46-.88,4.61,4.61,0,0,1,4.46,1.37q1.56,1.8,1.56,6.08a14.65,14.65,0,0,1-.44,3.76,9.13,9.13,0,0,1-1.23,2.81,6.26,6.26,0,0,1-1.91,1.85,6.49,6.49,0,0,1-2.47.89,4.45,4.45,0,0,1-4.46-1.49Q646,398.4,646,394.31Zm3-.44c0,0.23,0,.45,0,0.65s0,0.42,0,.63l5.54-6a2.16,2.16,0,0,0-2.56-1.59,3,3,0,0,0-2.24,1.75A10.22,10.22,0,0,0,649,393.87ZM655,393q0-.37,0-0.7c0-.22,0-0.44,0-0.65l-5.56,6a2.2,2.2,0,0,0,2.57,1.71,3,3,0,0,0,2.25-1.74A10.25,10.25,0,0,0,655,393Z"/><path class="cls-4" d="M661.59,402.42a9.23,9.23,0,0,0,1.69-.87,8.94,8.94,0,0,0,2-1.71,9.74,9.74,0,0,0,1.61-2.63,9.3,9.3,0,0,0,.66-3.67,8.68,8.68,0,0,0-.63-3.58,6.23,6.23,0,0,0-1.54-2.16,5.4,5.4,0,0,0-1.93-1.1,8.45,8.45,0,0,0-1.82-.38l0.55-2.55a10.08,10.08,0,0,1,3.11.6,7.47,7.47,0,0,1,2.67,1.68,8.12,8.12,0,0,1,1.86,2.87,11.17,11.17,0,0,1,.7,4.16,13,13,0,0,1-.7,4.39,11.93,11.93,0,0,1-1.86,3.42,11.42,11.42,0,0,1-2.67,2.47,12.35,12.35,0,0,1-3.11,1.49Z"/><path class="cls-4" d="M52.31,346.69l2.84,0.4v-6.44l-2.84-.4v-2.53l5.15,0.73L57.8,340h0.09A5,5,0,0,1,59.36,339a3.34,3.34,0,0,1,1.92-.24A3,3,0,0,1,63.44,340a6.12,6.12,0,0,1,.79,3.49l-2.68-.37a2.52,2.52,0,0,0-.24-1.24,1,1,0,0,0-.77-0.49,2.05,2.05,0,0,0-1.48.26,3.78,3.78,0,0,0-1,.93v4.9l5,0.69v2.53c-4.31-.59-6.47-0.89-10.78-1.51v-2.53Z"/><path class="cls-4" d="M77.38,351.42a3.44,3.44,0,0,1-.77.44,6.5,6.5,0,0,1-1.1.35,7.9,7.9,0,0,1-1.39.18,8.79,8.79,0,0,1-1.6-.07,8.42,8.42,0,0,1-2.62-.76A6.22,6.22,0,0,1,66.72,348a7.6,7.6,0,0,1-.42-2.6,6.31,6.31,0,0,1,.48-2.59,4.4,4.4,0,0,1,1.32-1.72,4.68,4.68,0,0,1,2-.88,7.29,7.29,0,0,1,2.43-.06,8.06,8.06,0,0,1,1.8.47,5.76,5.76,0,0,1,1.71,1,5.14,5.14,0,0,1,1.27,1.67,5.56,5.56,0,0,1,.49,2.46,10.55,10.55,0,0,1-.23,2.11l-8.25-1.09a2.93,2.93,0,0,0,.31,1.28,3,3,0,0,0,.76.93,3.82,3.82,0,0,0,1.08.62,5.73,5.73,0,0,0,1.29.32,6.44,6.44,0,0,0,2.26,0,4.09,4.09,0,0,0,1.43-.59Zm-4.95-8.86a3.64,3.64,0,0,0-1.12,0,2.7,2.7,0,0,0-1,.35,2.13,2.13,0,0,0-1,1.7L75,345.38a2.85,2.85,0,0,0-.63-1.9A2.88,2.88,0,0,0,72.43,342.56Z"/><path class="cls-4" d="M91.41,353.32a5.74,5.74,0,0,1-2.2.8,9.34,9.34,0,0,1-2.64,0,8.08,8.08,0,0,1-2.65-.77A6.43,6.43,0,0,1,82,351.89a6.18,6.18,0,0,1-1.2-2.07,7.63,7.63,0,0,1-.41-2.54,6.06,6.06,0,0,1,.48-2.51A4.52,4.52,0,0,1,82.18,343a5,5,0,0,1,2-.93,7.53,7.53,0,0,1,2.54-.08,10,10,0,0,1,2.41.6,12.7,12.7,0,0,1,1.72.79v4l-2.52-.31V345a6.84,6.84,0,0,0-1.42-.34,4.14,4.14,0,0,0-1.27,0,2.68,2.68,0,0,0-1.12.48,2.71,2.71,0,0,0-.8,1,3.28,3.28,0,0,0-.31,1.5,3.83,3.83,0,0,0,1,2.56,3.86,3.86,0,0,0,1.13.87,4.43,4.43,0,0,0,1.5.45,5.11,5.11,0,0,0,2.14-.1,7.43,7.43,0,0,0,1.25-.49Z"/><path class="cls-4" d="M100.21,344l4.27,0.51v9l1.74,0.2v2.53l-3.63-.43L102.07,354H102a3.41,3.41,0,0,1-1.58,1.26,4.51,4.51,0,0,1-2.34.29,5.61,5.61,0,0,1-1.59-.42,3.39,3.39,0,0,1-1.23-.91,4.11,4.11,0,0,1-.78-1.52,8.18,8.18,0,0,1-.27-2.29V345.8l-1.31-.16v-2.53l4.29,0.52v6.53a3.82,3.82,0,0,0,.45,2.08A1.85,1.85,0,0,0,99,353a2.27,2.27,0,0,0,1.52-.32,2.3,2.3,0,0,0,1-1.13v-4.9l-1.28-.15V344Z"/><path class="cls-4" d="M107.3,353.81l2.85,0.33V347.7l-2.85-.33v-2.53l5.16,0.6,0.34,1.56h0.09a5.14,5.14,0,0,1,1.47-1.1,3.39,3.39,0,0,1,1.93-.29,3,3,0,0,1,2.17,1.25,6,6,0,0,1,.79,3.47l-2.69-.3a2.48,2.48,0,0,0-.24-1.23,1,1,0,0,0-.77-0.47,2.09,2.09,0,0,0-1.48.29,3.93,3.93,0,0,0-1,1v4.9l5,0.56v2.53c-4.32-.48-6.49-0.73-10.81-1.23v-2.53Z"/><path class="cls-4" d="M130.62,363.81a11.77,11.77,0,0,1-3.12-1.34,10.67,10.67,0,0,1-2.69-2.34,11.21,11.21,0,0,1-1.87-3.33,12.64,12.64,0,0,1-.7-4.36,11.39,11.39,0,0,1,.7-4.19,8.66,8.66,0,0,1,1.87-3,8,8,0,0,1,2.69-1.8,10.45,10.45,0,0,1,3.12-.75l0.55,2.52a8.74,8.74,0,0,0-1.83.46,5.75,5.75,0,0,0-1.94,1.2,6.64,6.64,0,0,0-1.55,2.24,8.86,8.86,0,0,0-.63,3.61,8.81,8.81,0,0,0,2.28,6.19,8.34,8.34,0,0,0,2,1.61,8.78,8.78,0,0,0,1.7.79Z"/><path class="cls-4" d="M136.38,357l3.51,0.36V347.31l-3,2-1.38-2,5.24-3.47,2,0.2v13.57l3.45,0.34v2.53l-9.81-1V357Z"/><path class="cls-4" d="M150.16,358.38l3.52,0.34V348.67l-3,2-1.38-2,5.24-3.5,2,0.19V359l3.45,0.32v2.53l-9.81-.93v-2.53Z"/><path class="cls-4" d="M166.53,361a1.44,1.44,0,0,1,.52-1.2,1.75,1.75,0,0,1,1.3-.34,2.5,2.5,0,0,1,1.91,1,3.48,3.48,0,0,1,.64,2.1,4.14,4.14,0,0,1-.4,1.85,4.4,4.4,0,0,1-1,1.38,5,5,0,0,1-1.44.89,5.46,5.46,0,0,1-1.57.39l-0.62-1.32a6.22,6.22,0,0,0,1.11-.29,4,4,0,0,0,1-.54,3.11,3.11,0,0,0,.77-0.82,2.25,2.25,0,0,0,.36-1.07,2.94,2.94,0,0,1-1.17-.07,2,2,0,0,1-.79-0.44,1.71,1.71,0,0,1-.45-0.68A2.48,2.48,0,0,1,166.53,361Z"/><path class="cls-4" d="M177.75,360.87l3.52,0.29V351.12l-3,2.07-1.38-2,5.24-3.57,2,0.16V361.4l3.45,0.28v2.53l-9.82-.8v-2.53Z"/><path class="cls-4" d="M190,356.32a13.36,13.36,0,0,1,.44-3.63,6.92,6.92,0,0,1,1.24-2.51,4.6,4.6,0,0,1,1.9-1.41,5.58,5.58,0,0,1,2.47-.33,5.79,5.79,0,0,1,4.48,2.37q1.57,2.15,1.57,6.43a13.49,13.49,0,0,1-.44,3.66,7.06,7.06,0,0,1-1.24,2.53,4.55,4.55,0,0,1-1.92,1.42,6.1,6.1,0,0,1-7-2.16A11.21,11.21,0,0,1,190,356.32Zm3,0.23q0,0.35,0,.66c0,0.21,0,.42,0,0.64l5.57-4.71A2.83,2.83,0,0,0,196,351a2.25,2.25,0,0,0-2.25,1.24A9,9,0,0,0,193,356.56ZM199.1,357q0-.37,0-0.7c0-.22,0-0.44,0-0.66l-5.59,4.71a2.89,2.89,0,0,0,2.58,2.29,2.28,2.28,0,0,0,2.26-1.23A9,9,0,0,0,199.1,357Z"/><path class="cls-4" d="M205.68,367.94a7.43,7.43,0,0,0,1.7-.49,6.53,6.53,0,0,0,2-1.27,7.18,7.18,0,0,0,1.62-2.27,8.18,8.18,0,0,0,.67-3.52,9.67,9.67,0,0,0-.63-3.72,8.47,8.47,0,0,0-1.55-2.51,7.38,7.38,0,0,0-1.95-1.54,10.33,10.33,0,0,0-1.83-.79l0.55-2.42a12.25,12.25,0,0,1,3.13,1.3,10.32,10.32,0,0,1,2.69,2.28,10.91,10.91,0,0,1,1.88,3.29,12.38,12.38,0,0,1,.7,4.31,11.58,11.58,0,0,1-.7,4.23,8.9,8.9,0,0,1-1.88,3,8.29,8.29,0,0,1-2.69,1.86,10.07,10.07,0,0,1-3.13.79Z"/><path class="cls-4" d="M356.63,371.09v-2.53h2.72c0-2.58,0-3.86,0-6.44H356.6v-2.53h2.74V359a4.22,4.22,0,0,1,.38-1.86,3.74,3.74,0,0,1,1-1.29,4.11,4.11,0,0,1,1.44-.75,6,6,0,0,1,1.7-.24,10.79,10.79,0,0,1,2.62.26,6.69,6.69,0,0,1,1.69.65L367.3,358a10.36,10.36,0,0,0-1.14-.46,5,5,0,0,0-1.58-.2,2.24,2.24,0,0,0-1.74.57,2.5,2.5,0,0,0-.5,1.69h4.84c0,1,0,1.52,0,2.53h-4.84c0,2.58,0,3.86,0,6.44h4.87c0,1,0,1.52,0,2.53C363,371.1,360.86,371.1,356.63,371.09Z"/><path class="cls-4" d="M370.9,360.36a12.65,12.65,0,0,1,2.13-.72,12.19,12.19,0,0,1,2.87-.32,6.36,6.36,0,0,1,2,.27,3.37,3.37,0,0,1,1.36.81,3.06,3.06,0,0,1,.75,1.26,5.52,5.52,0,0,1,.23,1.65q0,1.17-.08,2t-0.08,1.47a9.85,9.85,0,0,0,0,1.08c0,0.21.05,0.42,0.07,0.62h1.5c0,1,0,1.52,0,2.53l-3.87,0-0.3-1.56h-0.11a4,4,0,0,1-1.31,1.24,4.38,4.38,0,0,1-2.29.53,3.87,3.87,0,0,1-2.73-.91,3.13,3.13,0,0,1-1-2.43,3.67,3.67,0,0,1,.35-1.67,3,3,0,0,1,1-1.15,4.93,4.93,0,0,1,1.63-.68,9.55,9.55,0,0,1,2.12-.23c0.27,0,.56,0,0.87,0l1.12,0.08a2.37,2.37,0,0,0,0-.46v-0.44a1.46,1.46,0,0,0-.5-1.25,2.44,2.44,0,0,0-1.49-.37,7,7,0,0,0-2.11.31,13.58,13.58,0,0,0-1.58.61Zm3.92,8.42a2.77,2.77,0,0,0,1.64-.41,2.74,2.74,0,0,0,.8-0.87v-1.38l-0.68-.1a7.92,7.92,0,0,0-1-.05,4.76,4.76,0,0,0-.87.09,2.9,2.9,0,0,0-.78.26,1.52,1.52,0,0,0-.55.45,1.09,1.09,0,0,0-.2.67,1.3,1.3,0,0,0,.38,1A1.76,1.76,0,0,0,374.82,368.78Z"/><path class="cls-4" d="M395.25,369.73a6.73,6.73,0,0,1-2.21,1.1,9.77,9.77,0,0,1-2.65.39,7.48,7.48,0,0,1-2.66-.4,5.33,5.33,0,0,1-2-1.21,5.13,5.13,0,0,1-1.21-1.91,7.11,7.11,0,0,1-.42-2.48,6.51,6.51,0,0,1,.48-2.58,5.51,5.51,0,0,1,1.35-1.92,5.92,5.92,0,0,1,2-1.21,8,8,0,0,1,2.56-.43,9.44,9.44,0,0,1,2.42.27,11.2,11.2,0,0,1,1.73.55c0,1.62,0,2.43,0,4l-2.54,0v-2.12a6.48,6.48,0,0,0-1.43-.14,4.37,4.37,0,0,0-1.28.21,3.18,3.18,0,0,0-1.13.64,3.32,3.32,0,0,0-.81,1.08,3.87,3.87,0,0,0-.06,2.9,3.11,3.11,0,0,0,1.86,1.78,4.1,4.1,0,0,0,1.51.24,5.43,5.43,0,0,0,2.16-.4,8.86,8.86,0,0,0,1.26-.66Z"/><path class="cls-4" d="M399.17,361.8l-2.28,0c0-1,0-1.52,0-2.53l2.28,0c0-1,0-1.57,0-2.62l3-.9c0,1.39,0,2.08,0,3.47l6-.12c0,1,0,1.52,0,2.53l-6,.12c0,1.32,0,2,0,3.29a3.9,3.9,0,0,0,.67,2.55,2.26,2.26,0,0,0,1.87.76,4,4,0,0,0,1.13-.17,4.36,4.36,0,0,0,.91-0.4,5.36,5.36,0,0,0,.74-0.52l0.61-.52,1.38,2a4.58,4.58,0,0,1-1,.86,8.58,8.58,0,0,1-1.27.69,8.18,8.18,0,0,1-1.42.48,6.82,6.82,0,0,1-1.45.19,4.89,4.89,0,0,1-3.88-1.36,6.57,6.57,0,0,1-1.3-4.54V361.8Z"/><path class="cls-4" d="M411.13,364.78a7.14,7.14,0,0,1,.44-2.59,5.37,5.37,0,0,1,3.17-3.17,7.49,7.49,0,0,1,2.5-.46,7.15,7.15,0,0,1,2.59.37,5.17,5.17,0,0,1,1.93,1.18,5,5,0,0,1,1.19,1.89,7.82,7.82,0,0,1,0,5.06,5.38,5.38,0,0,1-3.17,3.18,7.43,7.43,0,0,1-2.5.47,7.11,7.11,0,0,1-2.59-.37,5.17,5.17,0,0,1-1.93-1.18,5,5,0,0,1-1.19-1.89A7.25,7.25,0,0,1,411.13,364.78Zm3.09-.07a4.5,4.5,0,0,0,.21,1.4,3.34,3.34,0,0,0,.6,1.11,2.6,2.6,0,0,0,.94.72,2.86,2.86,0,0,0,1.27.23,3,3,0,0,0,2.18-.91,3.79,3.79,0,0,0,.84-2.71,3.89,3.89,0,0,0-.78-2.54,2.63,2.63,0,0,0-2.24-.92,3.64,3.64,0,0,0-1.2.23,2.44,2.44,0,0,0-1,.66,3.2,3.2,0,0,0-.63,1.12A5,5,0,0,0,414.22,364.71Z"/><path class="cls-4" d="M425.05,367.64l2.86-.08c0-2.58,0-3.86,0-6.44l-2.86.09c0-1,0-1.52,0-2.53l5.19-.16,0.35,1.51h0.09a6.4,6.4,0,0,1,1.48-1.31,3.74,3.74,0,0,1,1.94-.57,2.53,2.53,0,0,1,2.18.94,5.43,5.43,0,0,1,.79,3.35l-2.7.09a2.26,2.26,0,0,0-.24-1.2,0.82,0.82,0,0,0-.77-0.35,2.35,2.35,0,0,0-1.49.51,4.89,4.89,0,0,0-1,1.09c0,2,0,2.94,0,4.9l5-.16c0,1,0,1.52,0,2.53-4.34.15-6.51,0.22-10.86,0.34C425.05,369.16,425.05,368.65,425.05,367.64Z"/><path class="cls-4" d="M439.34,367.18l4.06-.15c0-2.58,0-3.86,0-6.44l-4.06.15c0-1,0-1.52,0-2.53l7.05-.26c0,3.59,0,5.38,0,9l4.26-.17c0,1,0,1.52,0,2.53-4.53.18-6.79,0.27-11.31,0.43C439.34,368.7,439.34,368.19,439.34,367.18Zm3.5-12.23a1.69,1.69,0,0,1,.53-1.24,2.12,2.12,0,0,1,1.47-.56,2.19,2.19,0,0,1,1.54.45,1.5,1.5,0,0,1,.58,1.2,1.55,1.55,0,0,1-.58,1.23,2.44,2.44,0,0,1-1.54.53,2.07,2.07,0,0,1-1.47-.42A1.48,1.48,0,0,1,442.85,355Z"/><path class="cls-4" d="M453.89,358.43a13.1,13.1,0,0,1,2.13-.8,12.35,12.35,0,0,1,2.87-.43,6.27,6.27,0,0,1,2,.2,3.21,3.21,0,0,1,1.36.75,2.92,2.92,0,0,1,.75,1.23,5.43,5.43,0,0,1,.23,1.65q0,1.17-.08,2t-0.08,1.48a9.8,9.8,0,0,0,0,1.08c0,0.21.05,0.42,0.07,0.62l1.5-.07c0,1,0,1.52,0,2.53l-3.87.18-0.3-1.55h-0.11a4.24,4.24,0,0,1-1.3,1.29,4.5,4.5,0,0,1-2.29.62,3.74,3.74,0,0,1-2.72-.8,3,3,0,0,1-1-2.4,3.75,3.75,0,0,1,.35-1.68,3.16,3.16,0,0,1,1-1.19,5.13,5.13,0,0,1,1.63-.74,9.67,9.67,0,0,1,2.12-.31c0.27,0,.57,0,0.87,0l1.12,0a2.4,2.4,0,0,0,0-.46v-0.44a1.41,1.41,0,0,0-.5-1.23,2.38,2.38,0,0,0-1.49-.31,7.08,7.08,0,0,0-2.1.39,14.08,14.08,0,0,0-1.58.67Zm3.92,8.27a2.85,2.85,0,0,0,1.64-.48,2.89,2.89,0,0,0,.8-0.9v-1.38l-0.68-.07a7.88,7.88,0,0,0-1,0,4.81,4.81,0,0,0-.87.12,3,3,0,0,0-.77.29,1.61,1.61,0,0,0-.55.47,1.12,1.12,0,0,0-.2.68,1.26,1.26,0,0,0,.38,1A1.71,1.71,0,0,0,457.81,366.7Z"/><path class="cls-4" d="M467.64,352.42l4.91-.24c0,4.25,0,6.38,0,10.63a4.79,4.79,0,0,0,.44,2.44,1.46,1.46,0,0,0,1.41.62,4,4,0,0,0,1.17-.21,4.74,4.74,0,0,0,.92-0.47l1.13,2q-0.39.27-.78,0.51a5.37,5.37,0,0,1-.83.41,5.84,5.84,0,0,1-1,.28,7.7,7.7,0,0,1-1.16.14,4.17,4.17,0,0,1-3.25-.94,4.09,4.09,0,0,1-1.08-3.07c0-3.86,0-5.8,0-9.66l-1.91.09C467.64,353.94,467.64,353.43,467.64,352.42Z"/><path class="cls-4" d="M481.25,370.51l10.23-.58c0,1,0,1.48,0,2.46l-10.23.58C481.25,372,481.25,371.49,481.25,370.51Z"/><path class="cls-4" d="M493.27,351l4.65-.29v5.89H498a4.26,4.26,0,0,1,1.47-1.27,5.23,5.23,0,0,1,2.16-.58,5.3,5.3,0,0,1,1.61.13,2.81,2.81,0,0,1,1.27.68,3.28,3.28,0,0,1,.83,1.38,7.06,7.06,0,0,1,.3,2.22v7.15l-3,.2V360a2.7,2.7,0,0,0-.6-2,2,2,0,0,0-1.57-.52,2.77,2.77,0,0,0-1.57.62,3.07,3.07,0,0,0-1,1.39v7.34l-3,.18V353.45l-1.66.1V351Z"/><path class="cls-4" d="M519.38,364.18a4.53,4.53,0,0,1-.77.6,8.1,8.1,0,0,1-1.11.57,9,9,0,0,1-1.39.47,9.13,9.13,0,0,1-1.61.25,7.62,7.62,0,0,1-2.64-.23,4.69,4.69,0,0,1-3.2-2.9,6.86,6.86,0,0,1-.43-2.51,7,7,0,0,1,.48-2.69,5.84,5.84,0,0,1,1.32-2,6.06,6.06,0,0,1,2-1.27,7.93,7.93,0,0,1,2.44-.55,7.41,7.41,0,0,1,1.81.1,4.59,4.59,0,0,1,1.71.67,3.83,3.83,0,0,1,1.28,1.42,4.9,4.9,0,0,1,.5,2.36,11.19,11.19,0,0,1-.23,2.16l-8.29.58a2.53,2.53,0,0,0,.31,1.22,2.23,2.23,0,0,0,.76.77,3.07,3.07,0,0,0,1.08.4,5.33,5.33,0,0,0,1.3.06,7,7,0,0,0,2.27-.48,5.26,5.26,0,0,0,1.44-.89Zm-5-7.86a3.94,3.94,0,0,0-1.13.24,3.43,3.43,0,0,0-1,.55,2.9,2.9,0,0,0-.7.83,2.55,2.55,0,0,0-.32,1.08l5.66-.4A2.1,2.1,0,0,0,514.41,356.32Z"/><path class="cls-4" d="M522.9,349l4.9-.37c0,4.25,0,6.38,0,10.63a4.73,4.73,0,0,0,.44,2.43,1.42,1.42,0,0,0,1.4.58,4,4,0,0,0,1.17-.24,4.88,4.88,0,0,0,.92-0.5l1.13,2q-0.39.28-.78,0.53a5.53,5.53,0,0,1-.83.43,5.94,5.94,0,0,1-1,.3,7.74,7.74,0,0,1-1.16.17,4.08,4.08,0,0,1-3.24-.86,4,4,0,0,1-1.08-3c0-3.86,0-5.8,0-9.66l-1.91.14V349Z"/><path class="cls-4" d="M534.7,352.73l3.91-.31,0.34,1.35H539a4.81,4.81,0,0,1,3.86-2,5.3,5.3,0,0,1,1.94.17,3.39,3.39,0,0,1,1.52.92,4.42,4.42,0,0,1,1,1.71,8.33,8.33,0,0,1,.34,2.57,8.76,8.76,0,0,1-.39,2.69,6.27,6.27,0,0,1-1.13,2.11,5.43,5.43,0,0,1-1.79,1.42A6.61,6.61,0,0,1,542,364a9.42,9.42,0,0,1-1.4,0,3.65,3.65,0,0,1-1.15-.24c0,1.89,0,2.83,0,4.71l-3,.24c0-5.43,0-8.14,0-13.57l-1.72.14C534.7,354.25,534.7,353.75,534.7,352.73Zm7.31,1.62a3.26,3.26,0,0,0-1.6.57,2.54,2.54,0,0,0-1,1.39v4.78a2.26,2.26,0,0,0,.93.33,5,5,0,0,0,1.23,0,3.38,3.38,0,0,0,1.2-.32,2.75,2.75,0,0,0,1-.78,3.77,3.77,0,0,0,.64-1.27,6.18,6.18,0,0,0,.23-1.79,3.18,3.18,0,0,0-.74-2.28A2.2,2.2,0,0,0,542,354.35Z"/><path class="cls-4" d="M560.78,360.79a4.66,4.66,0,0,1-.77.61,8.3,8.3,0,0,1-1.1.6,9.35,9.35,0,0,1-3,.78,7.57,7.57,0,0,1-2.63-.18,4.57,4.57,0,0,1-3.2-2.84,6.8,6.8,0,0,1-.42-2.5,7.07,7.07,0,0,1,.48-2.7,6,6,0,0,1,1.32-2,6.22,6.22,0,0,1,2-1.31,8,8,0,0,1,2.44-.6,7.37,7.37,0,0,1,1.8.07,4.49,4.49,0,0,1,1.71.64,3.73,3.73,0,0,1,1.28,1.39,4.85,4.85,0,0,1,.49,2.35,11.28,11.28,0,0,1-.23,2.16l-8.28.74a2.5,2.5,0,0,0,.31,1.21,2.16,2.16,0,0,0,.76.76,3,3,0,0,0,1.08.38,5.28,5.28,0,0,0,1.3,0,7,7,0,0,0,2.26-.52,5.39,5.39,0,0,0,1.44-.91Zm-5-7.76a4,4,0,0,0-1.13.26,3.51,3.51,0,0,0-1,.56,3,3,0,0,0-.7.85,2.59,2.59,0,0,0-.32,1.08l5.66-.5A2.06,2.06,0,0,0,555.81,353Z"/><path class="cls-4" d="M563.19,359.26L566,359c0-2.58,0-3.86,0-6.44l-2.85.27c0-1,0-1.52,0-2.53l5.17-.48,0.34,1.48h0.09a7,7,0,0,1,1.47-1.41,3.93,3.93,0,0,1,1.93-.69,2.37,2.37,0,0,1,2.17.8,5.21,5.21,0,0,1,.79,3.3l-2.69.26a2.18,2.18,0,0,0-.24-1.18,0.77,0.77,0,0,0-.77-0.31,2.48,2.48,0,0,0-1.48.6,5.35,5.35,0,0,0-1,1.15c0,2,0,2.94,0,4.9l5-.48c0,1,0,1.52,0,2.53-4.33.42-6.49,0.63-10.82,1C563.19,360.78,563.19,360.27,563.19,359.26Z"/><path class="cls-4" d="M586.53,364.38a9.82,9.82,0,0,1-3.12-.69,7.92,7.92,0,0,1-2.69-1.78,8.53,8.53,0,0,1-1.87-2.94,11.42,11.42,0,0,1-.7-4.21,12.59,12.59,0,0,1,.7-4.34,11.38,11.38,0,0,1,1.87-3.35,10.8,10.8,0,0,1,2.69-2.37,12.65,12.65,0,0,1,3.12-1.4l0.55,2.4a10.67,10.67,0,0,0-1.83.84,7.72,7.72,0,0,0-1.94,1.6,8.84,8.84,0,0,0-1.55,2.56,9.85,9.85,0,0,0-.63,3.74,8.05,8.05,0,0,0,.67,3.5,6.84,6.84,0,0,0,1.62,2.22,6.22,6.22,0,0,0,2,1.2,7.21,7.21,0,0,0,1.7.43Z"/><path class="cls-4" d="M592.3,356.37l3.51-.37c0-4,0-6,0-10.05l-3,2.65-1.38-1.69,5.23-4.56,2-.22c0,5.43,0,8.14,0,13.57l3.44-.38c0,1,0,1.52,0,2.53l-9.8,1.06C592.3,357.89,592.3,357.38,592.3,356.37Z"/><path class="cls-4" d="M606.07,354.87l3.51-.4c0-4,0-6,0-10.05l-3,2.67-1.38-1.69,5.23-4.59,2-.23c0,5.43,0,8.14,0,13.57l3.44-.4c0,1,0,1.52,0,2.53l-9.8,1.12C606.07,356.39,606.07,355.88,606.07,354.87Z"/><path class="cls-4" d="M618.28,347.92a14.37,14.37,0,0,1,.44-3.72,8.65,8.65,0,0,1,1.23-2.76,6.08,6.08,0,0,1,1.9-1.78,6.29,6.29,0,0,1,2.46-.81,4.73,4.73,0,0,1,4.47,1.49q1.56,1.84,1.56,6.12a14.47,14.47,0,0,1-.44,3.75,8.85,8.85,0,0,1-1.23,2.77,6,6,0,0,1-1.91,1.8,6.35,6.35,0,0,1-2.47.82,4.57,4.57,0,0,1-4.47-1.62Q618.28,352,618.28,347.92Zm3-.35c0,0.23,0,.45,0,0.65s0,0.42,0,.63l5.55-5.8a2.23,2.23,0,0,0-2.57-1.67,2.85,2.85,0,0,0-2.24,1.68A10.06,10.06,0,0,0,621.26,347.57Zm6.1-.74q0-.37,0-0.7c0-.22,0-0.44,0-0.65l-5.57,5.8a2.27,2.27,0,0,0,2.57,1.78,2.88,2.88,0,0,0,2.25-1.68A10.08,10.08,0,0,0,627.36,346.83Z"/><path class="cls-4" d="M636.16,352.34a1.79,1.79,0,0,1,.52-1.31,2.14,2.14,0,0,1,1.3-.62,2,2,0,0,1,1.9.59,2.91,2.91,0,0,1,.64,2,4.71,4.71,0,0,1-.4,1.94,5.94,5.94,0,0,1-1,1.61,6.76,6.76,0,0,1-1.43,1.2,6.6,6.6,0,0,1-1.57.73l-0.62-1.19a7.6,7.6,0,0,0,1.11-.53,5.37,5.37,0,0,0,1-.76,4.29,4.29,0,0,0,.77-1,2.73,2.73,0,0,0,.36-1.15,3,3,0,0,1-1.17.18,1.55,1.55,0,0,1-.79-0.27,1.26,1.26,0,0,1-.45-0.59A2.22,2.22,0,0,1,636.16,352.34Z"/><path class="cls-4" d="M646.15,341.46a6.1,6.1,0,0,1,.4-2.21,5.81,5.81,0,0,1,1.12-1.84,6.27,6.27,0,0,1,1.74-1.33,6.78,6.78,0,0,1,2.28-.71,6.43,6.43,0,0,1,2.34.08,4.11,4.11,0,0,1,1.81.92,4.35,4.35,0,0,1,1.17,1.75,7.17,7.17,0,0,1,.41,2.56,14.61,14.61,0,0,1-.69,4.69,11.29,11.29,0,0,1-1.84,3.47,9.69,9.69,0,0,1-2.69,2.34,11.93,11.93,0,0,1-3.21,1.3l-0.64-2.26a8.93,8.93,0,0,0,2.28-.92,8.27,8.27,0,0,0,1.78-1.38,7.2,7.2,0,0,0,1.24-1.71,5.9,5.9,0,0,0,.62-1.93,4.13,4.13,0,0,1-1.24.94,5.54,5.54,0,0,1-1.81.53h0a5.31,5.31,0,0,1-1.76-.06,4.08,4.08,0,0,1-1.61-.71,4,4,0,0,1-1.18-1.4A4.49,4.49,0,0,1,646.15,341.46Zm2.89-.54a2.37,2.37,0,0,0,.24,1.11,2.08,2.08,0,0,0,.63.74,2.29,2.29,0,0,0,.91.39,3.22,3.22,0,0,0,1.06,0,4.45,4.45,0,0,0,1.63-.52,2.9,2.9,0,0,0,1-.87,6.74,6.74,0,0,0,.07-0.93,4.22,4.22,0,0,0-.18-1.24,2.9,2.9,0,0,0-.55-1,2.25,2.25,0,0,0-.92-0.65,2.52,2.52,0,0,0-1.26-.12A3,3,0,0,0,649,340.92Z"/><path class="cls-4" d="M661.4,352.84a9.08,9.08,0,0,0,1.69-.84,8.74,8.74,0,0,0,2-1.68,9.54,9.54,0,0,0,1.61-2.61,9.21,9.21,0,0,0,.66-3.66,8.74,8.74,0,0,0-.63-3.59,6.37,6.37,0,0,0-1.55-2.19,5.51,5.51,0,0,0-1.93-1.13,8.55,8.55,0,0,0-1.82-.4L662,334.2a10.18,10.18,0,0,1,3.11.65,7.64,7.64,0,0,1,2.68,1.72,8.3,8.3,0,0,1,1.87,2.9,11.24,11.24,0,0,1,.7,4.17,12.87,12.87,0,0,1-.7,4.38,11.69,11.69,0,0,1-1.87,3.39,11.17,11.17,0,0,1-2.68,2.42,12.15,12.15,0,0,1-3.11,1.44Z"/><path class="cls-4" d="M53.22,297.37c0-1,0-1.52,0-2.53l2.7,0.43c0-2.58,0-3.86,0-6.44l-2.72-.43v-2.53l2.72,0.43v-0.64a3.87,3.87,0,0,1,.38-1.8,3,3,0,0,1,1-1.13,3.42,3.42,0,0,1,1.43-.53,5.72,5.72,0,0,1,1.68,0,11.54,11.54,0,0,1,2.6.66,7.85,7.85,0,0,1,1.68.91l-0.87,2.14a12.3,12.3,0,0,0-1.13-.63,5.45,5.45,0,0,0-1.57-.45,2,2,0,0,0-1.73.3,2.21,2.21,0,0,0-.49,1.61l4.8,0.74c0,1,0,1.52,0,2.53l-4.8-.74c0,2.58,0,3.86,0,6.44l4.83,0.74c0,1,0,1.52,0,2.53C59.51,298.37,57.41,298,53.22,297.37Z"/><path class="cls-4" d="M67.37,288.85a11.17,11.17,0,0,1,2.12-.39,11.81,11.81,0,0,1,2.85.12,6.9,6.9,0,0,1,2,.59,4.14,4.14,0,0,1,1.35,1,3.73,3.73,0,0,1,.74,1.37,5.91,5.91,0,0,1,.23,1.69q0,1.17-.08,2t-0.08,1.46a10.16,10.16,0,0,0,0,1.09c0,0.21.05,0.43,0.07,0.63l1.49,0.22v2.53l-3.84-.56L74,299l-0.11,0a3.19,3.19,0,0,1-1.3,1,4,4,0,0,1-2.27.18,4.47,4.47,0,0,1-2.71-1.33,3.66,3.66,0,0,1-1-2.59,3.35,3.35,0,0,1,.35-1.61,2.38,2.38,0,0,1,1-1,4.24,4.24,0,0,1,1.61-.42,9.26,9.26,0,0,1,2.1.09c0.27,0,.56.1,0.86,0.17l1.11,0.26a2.28,2.28,0,0,0,0-.45v-0.44a1.7,1.7,0,0,0-.5-1.33,2.76,2.76,0,0,0-1.48-.6,6.63,6.63,0,0,0-2.09,0,11.78,11.78,0,0,0-1.57.36Zm3.89,9a2.52,2.52,0,0,0,1.63-.16,2.16,2.16,0,0,0,.79-0.75v-1.38l-0.68-.2a8.27,8.27,0,0,0-1-.2,4.63,4.63,0,0,0-.86,0,2.58,2.58,0,0,0-.77.14,1.22,1.22,0,0,0-.54.37,1,1,0,0,0-.2.64,1.51,1.51,0,0,0,.37,1.06A2,2,0,0,0,71.27,297.87Z"/><path class="cls-4" d="M91.55,302a5.66,5.66,0,0,1-2.2.76,9.31,9.31,0,0,1-2.63,0,8.17,8.17,0,0,1-2.65-.81,6.57,6.57,0,0,1-1.95-1.51,6.3,6.3,0,0,1-1.2-2.09,7.7,7.7,0,0,1-.41-2.54,6,6,0,0,1,.48-2.51,4.43,4.43,0,0,1,1.34-1.72,4.87,4.87,0,0,1,2-.9,7.52,7.52,0,0,1,2.54,0,10.13,10.13,0,0,1,2.4.64A12.88,12.88,0,0,1,91,292c0,1.62,0,2.43,0,4l-2.52-.35v-2.12a6.92,6.92,0,0,0-1.42-.36,4.14,4.14,0,0,0-1.27,0,2.58,2.58,0,0,0-1.92,1.42,3.25,3.25,0,0,0-.31,1.5,3.86,3.86,0,0,0,.25,1.39,3.91,3.91,0,0,0,.71,1.18,4,4,0,0,0,1.13.88,4.49,4.49,0,0,0,1.5.48,5.09,5.09,0,0,0,2.14-.07,7.39,7.39,0,0,0,1.25-.47Z"/><path class="cls-4" d="M95.44,294.62l-2.27-.31c0-1,0-1.52,0-2.53l2.27,0.31c0-1,0-1.57,0-2.62l3-.45c0,1.39,0,2.08,0,3.47l6,0.8c0,1,0,1.52,0,2.53l-6-.8c0,1.32,0,2,0,3.29a4.39,4.39,0,0,0,.66,2.65,2.66,2.66,0,0,0,1.86,1,3.83,3.83,0,0,0,1.12,0,3.74,3.74,0,0,0,.91-0.26,4.29,4.29,0,0,0,.73-0.41l0.61-.43,1.38,2.25a3.67,3.67,0,0,1-1,.71,7.11,7.11,0,0,1-1.26.5,7.19,7.19,0,0,1-1.41.26,6.57,6.57,0,0,1-1.44,0,5.68,5.68,0,0,1-3.86-2,7.45,7.45,0,0,1-1.29-4.74C95.44,296.6,95.44,295.94,95.44,294.62Z"/><path class="cls-4" d="M107.34,299.43a6.65,6.65,0,0,1,.44-2.52,4.43,4.43,0,0,1,1.24-1.75,4.52,4.52,0,0,1,1.92-.94,7,7,0,0,1,2.49-.08,7.79,7.79,0,0,1,2.58.76,6.33,6.33,0,0,1,1.92,1.47,6.08,6.08,0,0,1,1.18,2.07,7.81,7.81,0,0,1,.4,2.53,6.68,6.68,0,0,1-.44,2.52,4.45,4.45,0,0,1-1.24,1.76,4.5,4.5,0,0,1-1.91.94,7,7,0,0,1-2.49.09,7.75,7.75,0,0,1-2.58-.77,6.35,6.35,0,0,1-1.92-1.48,6.11,6.11,0,0,1-1.18-2.07A7.82,7.82,0,0,1,107.34,299.43Zm3.07,0.4a4.85,4.85,0,0,0,.21,1.43,4,4,0,0,0,.6,1.2,3.23,3.23,0,0,0,.94.87,3.16,3.16,0,0,0,1.26.43,2.61,2.61,0,0,0,2.17-.58,3.34,3.34,0,0,0,.84-2.59,4.42,4.42,0,0,0-.78-2.66,3.09,3.09,0,0,0-2.23-1.26,3.42,3.42,0,0,0-1.19,0,2,2,0,0,0-1,.51,2.63,2.63,0,0,0-.63,1A4.72,4.72,0,0,0,110.41,299.83Z"/><path class="cls-4" d="M121.19,304.4l2.85,0.35c0-2.58,0-3.86,0-6.44l-2.85-.35v-2.53l5.16,0.63,0.34,1.56h0.09a5.11,5.11,0,0,1,1.47-1.09,3.38,3.38,0,0,1,1.93-.28,3,3,0,0,1,2.17,1.27,6,6,0,0,1,.79,3.47l-2.68-.32a2.49,2.49,0,0,0-.24-1.24,1,1,0,0,0-.77-0.47,2.08,2.08,0,0,0-1.48.28,3.92,3.92,0,0,0-1,.94c0,2,0,2.94,0,4.9l5,0.59c0,1,0,1.52,0,2.53-4.32-.51-6.49-0.77-10.81-1.3V304.4Z"/><path class="cls-4" d="M135.42,306.1l4,0.46c0-2.58,0-3.86,0-6.44l-4-.46v-2.53l7,0.8c0,3.59,0,5.38,0,9l4.25,0.47c0,1,0,1.52,0,2.53-4.51-.49-6.77-0.75-11.27-1.27V306.1Zm3.49-11.7a1.45,1.45,0,0,1,.53-1.16,1.87,1.87,0,0,1,1.47-.34,2.5,2.5,0,0,1,1.54.68,1.77,1.77,0,0,1,.57,1.28,1.32,1.32,0,0,1-.57,1.14,2.17,2.17,0,0,1-1.54.3,2.37,2.37,0,0,1-1.47-.64A1.73,1.73,0,0,1,138.91,294.4Z"/><path class="cls-4" d="M149.91,299.53A11.54,11.54,0,0,1,152,299a11.87,11.87,0,0,1,2.86,0,6.73,6.73,0,0,1,2,.5,3.91,3.91,0,0,1,1.36,1,3.54,3.54,0,0,1,.75,1.34,5.79,5.79,0,0,1,.23,1.68q0,1.17-.08,2T159.1,307a10.05,10.05,0,0,0,0,1.09c0,0.21.05,0.43,0.07,0.63l1.49,0.15v2.53l-3.86-.4-0.3-1.6h-0.11a3.4,3.4,0,0,1-1.3,1.09,4.1,4.1,0,0,1-2.28.28,4.29,4.29,0,0,1-2.72-1.21,3.5,3.5,0,0,1-1-2.55,3.43,3.43,0,0,1,.35-1.63,2.54,2.54,0,0,1,1-1,4.41,4.41,0,0,1,1.62-.49,9.31,9.31,0,0,1,2.11,0c0.28,0,.56.08,0.87,0.14l1.12,0.21a2.3,2.3,0,0,0,0-.46v-0.44a1.63,1.63,0,0,0-.5-1.31,2.66,2.66,0,0,0-1.48-.54,6.7,6.7,0,0,0-2.1.08,12.22,12.22,0,0,0-1.57.43Zm3.91,8.86a2.58,2.58,0,0,0,1.64-.23,2.3,2.3,0,0,0,.8-0.78V306l-0.68-.18a8.18,8.18,0,0,0-1-.16,4.65,4.65,0,0,0-.86,0,2.66,2.66,0,0,0-.77.17,1.3,1.3,0,0,0-.55.39,1,1,0,0,0-.2.65,1.45,1.45,0,0,0,.37,1A1.94,1.94,0,0,0,153.82,308.39Z"/><path class="cls-4" d="M163.62,295.58l4.9,0.49c0,4.25,0,6.38,0,10.63a5.21,5.21,0,0,0,.44,2.5,1.72,1.72,0,0,0,1.4.83,3.76,3.76,0,0,0,1.17,0,4,4,0,0,0,.92-0.34l1.13,2.18c-0.26.14-.52,0.28-0.78,0.4a4.57,4.57,0,0,1-.83.29,5.32,5.32,0,0,1-1,.14,7.52,7.52,0,0,1-1.16,0,4.78,4.78,0,0,1-3.24-1.42,4.68,4.68,0,0,1-1.08-3.24c0-3.86,0-5.8,0-9.66l-1.91-.19v-2.53Z"/><path class="cls-4" d="M177.21,315.7c4.08,0.38,6.13.57,10.21,0.93v2.46c-4.09-.36-6.13-0.55-10.21-0.93V315.7Z"/><path class="cls-4" d="M189.22,298l4.65,0.4c0,2.36,0,3.53,0,5.89H194a3.46,3.46,0,0,1,1.47-1,4.82,4.82,0,0,1,2.16-.26,5.64,5.64,0,0,1,1.61.36,3.41,3.41,0,0,1,1.27.86,4,4,0,0,1,.83,1.51,7.49,7.49,0,0,1,.3,2.27c0,2.86,0,4.29,0,7.15l-3-.25c0-2.61,0-3.92,0-6.53a3,3,0,0,0-.6-2.07,2.27,2.27,0,0,0-1.57-.75,2.44,2.44,0,0,0-1.56.39,2.49,2.49,0,0,0-1,1.24c0,2.93,0,4.4,0,7.34l-3-.26c0-5.43,0-8.14,0-13.57l-1.66-.14V298Z"/><path class="cls-4" d="M215.31,315a3.69,3.69,0,0,1-.77.48,6.91,6.91,0,0,1-1.1.41,8.14,8.14,0,0,1-1.39.26,8.81,8.81,0,0,1-1.61,0,8.16,8.16,0,0,1-2.64-.62,5.77,5.77,0,0,1-3.2-3.37,7.36,7.36,0,0,1-.43-2.58,6.47,6.47,0,0,1,.48-2.62,4.76,4.76,0,0,1,1.32-1.79,5,5,0,0,1,2-1,7.43,7.43,0,0,1,2.44-.19,7.85,7.85,0,0,1,1.81.37,5.41,5.41,0,0,1,1.71.92,4.73,4.73,0,0,1,1.28,1.6,5.36,5.36,0,0,1,.5,2.43,10.69,10.69,0,0,1-.23,2.12l-8.29-.63a2.79,2.79,0,0,0,.31,1.27,2.74,2.74,0,0,0,.76.89,3.6,3.6,0,0,0,1.08.56,5.57,5.57,0,0,0,1.3.25,6.55,6.55,0,0,0,2.27-.15,4.38,4.38,0,0,0,1.44-.67Zm-5-8.59a3.69,3.69,0,0,0-1.13.08,2.88,2.88,0,0,0-1,.41,2.34,2.34,0,0,0-.7.73,2.28,2.28,0,0,0-.32,1l5.66,0.44A2.48,2.48,0,0,0,210.34,306.41Z"/><path class="cls-4" d="M218.84,300.37l4.9,0.35c0,4.25,0,6.38,0,10.63a5.12,5.12,0,0,0,.44,2.49,1.67,1.67,0,0,0,1.41.79,3.79,3.79,0,0,0,1.17-.07,4.15,4.15,0,0,0,.92-0.36l1.13,2.15q-0.39.23-.78,0.42a4.75,4.75,0,0,1-.83.31,5.41,5.41,0,0,1-1,.16,7.55,7.55,0,0,1-1.16,0,4.65,4.65,0,0,1-3.25-1.33,4.56,4.56,0,0,1-1.08-3.21c0-3.86,0-5.8,0-9.66l-1.91-.14C218.84,301.89,218.84,301.38,218.84,300.37Z"/><path class="cls-4" d="M230.65,305.79l3.92,0.26,0.35,1.4H235a4.14,4.14,0,0,1,3.87-1.46,5.7,5.7,0,0,1,1.95.45,4.15,4.15,0,0,1,1.52,1.14,5.31,5.31,0,0,1,1,1.85,8.81,8.81,0,0,1,.35,2.62,8.21,8.21,0,0,1-.39,2.63,5.22,5.22,0,0,1-1.13,1.94,4.44,4.44,0,0,1-1.8,1.15,6.11,6.11,0,0,1-2.42.29,9.71,9.71,0,0,1-1.4-.19,4.1,4.1,0,0,1-1.15-.41v4.71l-3-.19c0-5.43,0-8.14,0-13.57l-1.73-.11C230.65,307.31,230.65,306.81,230.65,305.79Zm7.33,2.68a2.92,2.92,0,0,0-1.6.34,2.08,2.08,0,0,0-1,1.25c0,1.91,0,2.87,0,4.78a2.65,2.65,0,0,0,.93.46,5.3,5.3,0,0,0,1.23.23,3.13,3.13,0,0,0,1.2-.14,2.25,2.25,0,0,0,1-.64,3.15,3.15,0,0,0,.64-1.18,5.83,5.83,0,0,0,.23-1.76,3.59,3.59,0,0,0-.74-2.39A2.56,2.56,0,0,0,238,308.48Z"/><path class="cls-4" d="M256.78,317.64a3.8,3.8,0,0,1-.77.5,7,7,0,0,1-1.11.44,8.21,8.21,0,0,1-1.39.29,8.84,8.84,0,0,1-1.61,0,8.07,8.07,0,0,1-2.64-.56,5.6,5.6,0,0,1-3.2-3.3,7.29,7.29,0,0,1-.43-2.57,6.54,6.54,0,0,1,.48-2.63,4.9,4.9,0,0,1,1.32-1.82,5.16,5.16,0,0,1,2-1,7.49,7.49,0,0,1,2.44-.24,7.77,7.77,0,0,1,1.81.33,5.29,5.29,0,0,1,1.72.89,4.61,4.61,0,0,1,1.28,1.58,5.28,5.28,0,0,1,.5,2.42,10.75,10.75,0,0,1-.23,2.13l-8.3-.46a2.77,2.77,0,0,0,.31,1.26,2.67,2.67,0,0,0,.76.87,3.49,3.49,0,0,0,1.08.53,5.53,5.53,0,0,0,1.3.22,6.6,6.6,0,0,0,2.27-.2,4.5,4.5,0,0,0,1.44-.7Zm-5-8.48a3.73,3.73,0,0,0-1.13.1,3,3,0,0,0-1,.43,2.41,2.41,0,0,0-.7.75,2.29,2.29,0,0,0-.32,1l5.67,0.32A2.42,2.42,0,0,0,251.8,309.16Z"/><path class="cls-4" d="M259.2,316.46l2.86,0.15v-6.44L259.2,310v-2.53l5.19,0.26,0.35,1.53h0.09a5.68,5.68,0,0,1,1.48-1.19,3.54,3.54,0,0,1,1.94-.41,2.76,2.76,0,0,1,2.18,1.11,5.74,5.74,0,0,1,.79,3.42l-2.7-.13a2.38,2.38,0,0,0-.24-1.22,0.9,0.9,0,0,0-.77-0.42,2.2,2.2,0,0,0-1.49.39,4.33,4.33,0,0,0-1,1v4.9l5,0.24v2.53c-4.34-.2-6.51-0.31-10.86-0.54v-2.53Z"/><path class="cls-4" d="M282.62,324.95a11.08,11.08,0,0,1-3.14-1.14,9.72,9.72,0,0,1-2.7-2.16,10.3,10.3,0,0,1-1.88-3.21,12.2,12.2,0,0,1-.7-4.31,11.71,11.71,0,0,1,.7-4.24,9.44,9.44,0,0,1,1.88-3.08,8.8,8.8,0,0,1,2.7-2,11.07,11.07,0,0,1,3.14-1l0.55,2.48a9.3,9.3,0,0,0-1.83.58,6.32,6.32,0,0,0-1.95,1.32,7.28,7.28,0,0,0-1.56,2.34,9.12,9.12,0,0,0-.63,3.65,8.69,8.69,0,0,0,.67,3.59,8.35,8.35,0,0,0,1.63,2.45,7.61,7.61,0,0,0,2,1.48,8.21,8.21,0,0,0,1.71.68Z"/><path class="cls-4" d="M288.41,317.76l3.53,0.13V307.84l-3,2.21-1.38-1.89,5.26-3.81,2,0.07c0,5.43,0,8.14,0,13.57l3.46,0.11v2.53l-9.85-.34C288.41,319.28,288.41,318.78,288.41,317.76Z"/><path class="cls-4" d="M302.24,318.23l3.53,0.1V308.28l-3,2.23-1.38-1.88,5.26-3.85,2,0.06c0,5.43,0,8.14,0,13.57l3.46,0.09V321l-9.85-.27C302.24,319.75,302.24,319.24,302.24,318.23Z"/><path class="cls-4" d="M314.51,313a13.59,13.59,0,0,1,.44-3.66,7.35,7.35,0,0,1,1.24-2.58,5,5,0,0,1,1.91-1.51,5.74,5.74,0,0,1,2.48-.46,5.47,5.47,0,0,1,4.49,2.12q1.57,2.06,1.57,6.34a13.69,13.69,0,0,1-.44,3.68,7.52,7.52,0,0,1-1.24,2.6,4.92,4.92,0,0,1-1.92,1.53,5.8,5.8,0,0,1-2.49.47,5.32,5.32,0,0,1-4.49-2.25A10.77,10.77,0,0,1,314.51,313Zm3,0.07c0,0.23,0,.45,0,0.66s0,0.42,0,.63l5.58-5a2.65,2.65,0,0,0-2.58-2,2.4,2.4,0,0,0-2.25,1.37A9.27,9.27,0,0,0,317.51,313.09Zm6.14,0.13q0-.37,0-0.7c0-.22,0-0.44,0-0.66l-5.61,5a2.7,2.7,0,0,0,2.59,2.15,2.43,2.43,0,0,0,2.27-1.36A9.29,9.29,0,0,0,323.65,313.22Z"/><path class="cls-4" d="M332.5,320a1.55,1.55,0,0,1,.52-1.23,1.87,1.87,0,0,1,1.3-.44,2.31,2.31,0,0,1,1.91.85,3.26,3.26,0,0,1,.65,2.06,4.31,4.31,0,0,1-.4,1.88,4.89,4.89,0,0,1-1.05,1.46,5.56,5.56,0,0,1-1.44,1,5.79,5.79,0,0,1-1.58.51l-0.62-1.27a6.61,6.61,0,0,0,1.12-.37,4.44,4.44,0,0,0,1-.62,3.5,3.5,0,0,0,.77-0.87,2.41,2.41,0,0,0,.36-1.1,2.94,2.94,0,0,1-1.18,0,1.81,1.81,0,0,1-.8-0.38,1.53,1.53,0,0,1-.45-0.65A2.36,2.36,0,0,1,332.5,320Z"/><path class="cls-4" d="M342.56,310.5a5.63,5.63,0,0,1,.4-2.16,4.81,4.81,0,0,1,1.13-1.68,5.2,5.2,0,0,1,1.75-1.09,6.25,6.25,0,0,1,2.3-.39,6.81,6.81,0,0,1,2.35.41,5,5,0,0,1,1.82,1.17,5.24,5.24,0,0,1,1.18,1.91,7.61,7.61,0,0,1,.42,2.61,13.64,13.64,0,0,1-.69,4.6,9.45,9.45,0,0,1-1.86,3.21,8,8,0,0,1-2.71,2,10.65,10.65,0,0,1-3.23.85l-0.65-2.35a8,8,0,0,0,2.3-.6,6.85,6.85,0,0,0,1.79-1.13,5.89,5.89,0,0,0,1.25-1.53,5.19,5.19,0,0,0,.62-1.85,3.43,3.43,0,0,1-1.25.76,5.14,5.14,0,0,1-1.82.27h0a5.62,5.62,0,0,1-1.78-.31A4.8,4.8,0,0,1,342.56,310.5Zm2.91-.13a2.53,2.53,0,0,0,.88,2,2.73,2.73,0,0,0,.91.51,3.4,3.4,0,0,0,1.07.18,4.09,4.09,0,0,0,1.64-.29,2.39,2.39,0,0,0,1-.73,6.49,6.49,0,0,0,.07-0.92,4.45,4.45,0,0,0-.18-1.27,3.43,3.43,0,0,0-.55-1.11,2.76,2.76,0,0,0-.92-0.78,2.73,2.73,0,0,0-1.27-.3A2.53,2.53,0,0,0,345.47,310.37Z"/><path class="cls-4" d="M357.93,324a7.91,7.91,0,0,0,1.71-.61,7.2,7.2,0,0,0,2-1.4,7.89,7.89,0,0,0,1.63-2.38,8.49,8.49,0,0,0,.67-3.57,9.32,9.32,0,0,0-.63-3.68,7.71,7.71,0,0,0-1.56-2.4,6.71,6.71,0,0,0-1.95-1.4,9.68,9.68,0,0,0-1.83-.66l0.55-2.46a11.49,11.49,0,0,1,3.14,1.08,9.35,9.35,0,0,1,2.7,2.09,10,10,0,0,1,1.88,3.16,13.33,13.33,0,0,1,0,8.55,9.76,9.76,0,0,1-1.88,3.13,9.17,9.17,0,0,1-2.7,2,10.69,10.69,0,0,1-3.14,1Z"/><path class="cls-4" d="M508.23,313.69l2.85-.21c0-2.58,0-3.86,0-6.44l-2.85.21c0-1,0-1.52,0-2.53l5.18-.39,0.35,1.49h0.09a6.84,6.84,0,0,1,1.47-1.38,3.88,3.88,0,0,1,1.93-.66,2.42,2.42,0,0,1,2.18.84,5.26,5.26,0,0,1,.79,3.32l-2.69.21a2.2,2.2,0,0,0-.24-1.19,0.78,0.78,0,0,0-.77-0.32,2.45,2.45,0,0,0-1.48.58,5.22,5.22,0,0,0-1,1.13v4.9l5-.39v2.53c-4.34.35-6.5,0.51-10.84,0.84C508.23,315.21,508.23,314.71,508.23,313.69Z"/><path class="cls-4" d="M533.43,313a4.63,4.63,0,0,1-.77.61,8.26,8.26,0,0,1-1.1.59,9.33,9.33,0,0,1-3,.76,7.59,7.59,0,0,1-2.63-.19,4.6,4.6,0,0,1-3.2-2.85,6.81,6.81,0,0,1-.43-2.51,7,7,0,0,1,.48-2.7,6,6,0,0,1,1.32-2,6.19,6.19,0,0,1,2-1.3,8,8,0,0,1,2.44-.59,7.4,7.4,0,0,1,1.81.08,4.52,4.52,0,0,1,1.71.65,3.75,3.75,0,0,1,1.28,1.4,4.85,4.85,0,0,1,.5,2.35,11.25,11.25,0,0,1-.23,2.16l-8.28.71a2.51,2.51,0,0,0,.31,1.22,2.18,2.18,0,0,0,.76.76,3,3,0,0,0,1.08.38,5.32,5.32,0,0,0,1.3,0A7,7,0,0,0,531,312a5.36,5.36,0,0,0,1.44-.91Zm-5-7.78a4,4,0,0,0-1.13.26,3.5,3.5,0,0,0-1,.56,3,3,0,0,0-.7.84,2.58,2.58,0,0,0-.32,1.08l5.66-.48A2.07,2.07,0,0,0,528.46,305.18Z"/><path class="cls-4" d="M547.5,311.8a7.39,7.39,0,0,1-2.21,1.28,10.14,10.14,0,0,1-2.64.6,7.24,7.24,0,0,1-2.66-.19,4.82,4.82,0,0,1-2-1.05,4.63,4.63,0,0,1-1.21-1.81,7.39,7.39,0,0,1,.07-5.07,6.14,6.14,0,0,1,1.35-2,6.56,6.56,0,0,1,2-1.37,8.3,8.3,0,0,1,2.55-.64,9.23,9.23,0,0,1,2.41.07A10.5,10.5,0,0,1,547,302c0,1.62,0,2.43,0,4l-2.53.24v-2.12a6.36,6.36,0,0,0-1.43,0,4.55,4.55,0,0,0-1.28.31,3.51,3.51,0,0,0-1.13.72,3.61,3.61,0,0,0-1.12,2.71,3.39,3.39,0,0,0,.25,1.33,2.78,2.78,0,0,0,1.85,1.64,4,4,0,0,0,1.51.13,5.69,5.69,0,0,0,2.15-.57,9.77,9.77,0,0,0,1.25-.76Z"/><path class="cls-4" d="M556.33,300.55l4.28-.43c0,3.2,0,4.8,0,8v1l1.75-.18v2.53l-3.63.37-0.53-1.65H558.1a4.7,4.7,0,0,1-1.59,1.61,5.22,5.22,0,0,1-2.35.81,5.1,5.1,0,0,1-1.6-.07,2.55,2.55,0,0,1-1.23-.64,3.12,3.12,0,0,1-.78-1.35,7.5,7.5,0,0,1-.28-2.23c0-1.85,0-2.77,0-4.62l-1.31.13v-2.53l4.3-.41v6.53a3.31,3.31,0,0,0,.45,2,1.48,1.48,0,0,0,1.41.48,2.74,2.74,0,0,0,1.53-.66,3.12,3.12,0,0,0,1-1.34c0-2,0-2.94,0-4.9l-1.29.13v-2.53Z"/><path class="cls-4" d="M563.43,308.81l2.85-.29v-6.44l-2.85.29c0-1,0-1.52,0-2.53l5.17-.54,0.34,1.48H569a7.13,7.13,0,0,1,1.47-1.42,4,4,0,0,1,1.93-.71,2.35,2.35,0,0,1,2.17.78,5.17,5.17,0,0,1,.79,3.29l-2.69.29a2.17,2.17,0,0,0-.24-1.18,0.76,0.76,0,0,0-.77-0.3,2.51,2.51,0,0,0-1.48.62,5.44,5.44,0,0,0-1,1.16v4.9l5-.53v2.53c-4.33.47-6.49,0.7-10.82,1.14C563.43,310.32,563.43,309.82,563.43,308.81Z"/><path class="cls-4" d="M586.77,313.67a9.74,9.74,0,0,1-3.12-.66,7.79,7.79,0,0,1-2.69-1.74,8.4,8.4,0,0,1-1.87-2.92,11.36,11.36,0,0,1-.7-4.2,12.66,12.66,0,0,1,.7-4.34,11.54,11.54,0,0,1,1.87-3.37,11,11,0,0,1,2.69-2.4,12.81,12.81,0,0,1,3.12-1.44l0.55,2.4a10.8,10.8,0,0,0-1.82.87,7.85,7.85,0,0,0-1.94,1.62,9,9,0,0,0-1.55,2.58,9.9,9.9,0,0,0-.63,3.75,8,8,0,0,0,.67,3.49,6.74,6.74,0,0,0,1.62,2.2,6.12,6.12,0,0,0,2,1.18,7.14,7.14,0,0,0,1.7.41Z"/><path class="cls-4" d="M591.34,297.2a6.05,6.05,0,0,1,.4-2.21,5.7,5.7,0,0,1,1.12-1.82,6.16,6.16,0,0,1,1.74-1.31,6.73,6.73,0,0,1,2.28-.67,6.46,6.46,0,0,1,2.34.11,4.19,4.19,0,0,1,1.81.94,4.42,4.42,0,0,1,1.17,1.77,7.2,7.2,0,0,1,.41,2.56,14.5,14.5,0,0,1-.69,4.68,11.1,11.1,0,0,1-1.85,3.45,9.51,9.51,0,0,1-2.7,2.3,11.8,11.8,0,0,1-3.21,1.26L593.54,306a8.82,8.82,0,0,0,2.28-.89,8.12,8.12,0,0,0,1.78-1.35,7.07,7.07,0,0,0,1.24-1.69,5.83,5.83,0,0,0,.62-1.93,4.06,4.06,0,0,1-1.24.92,5.5,5.5,0,0,1-1.81.51h0a5.34,5.34,0,0,1-1.77-.09,4.15,4.15,0,0,1-1.62-.73,4.07,4.07,0,0,1-1.18-1.41A4.52,4.52,0,0,1,591.34,297.2Zm2.89-.5a2.38,2.38,0,0,0,.24,1.11,2.12,2.12,0,0,0,.63.75,2.33,2.33,0,0,0,.91.4,3.23,3.23,0,0,0,1.07,0,4.41,4.41,0,0,0,1.63-.5,2.85,2.85,0,0,0,1-.86,6.7,6.7,0,0,0,.07-0.93,4.24,4.24,0,0,0-.18-1.24,3,3,0,0,0-.55-1,2.3,2.3,0,0,0-.92-0.66,2.54,2.54,0,0,0-1.26-.14A2.94,2.94,0,0,0,594.23,296.7Z"/><path class="cls-4" d="M605.1,295.54a6.08,6.08,0,0,1,.4-2.21,5.76,5.76,0,0,1,1.12-1.83,6.22,6.22,0,0,1,1.74-1.32,6.76,6.76,0,0,1,2.28-.69,6.45,6.45,0,0,1,2.34.09,4.15,4.15,0,0,1,1.81.93,4.38,4.38,0,0,1,1.17,1.76,7.18,7.18,0,0,1,.41,2.56,14.55,14.55,0,0,1-.69,4.69,11.2,11.2,0,0,1-1.85,3.46,9.6,9.6,0,0,1-2.69,2.32,11.86,11.86,0,0,1-3.21,1.28l-0.64-2.27a8.89,8.89,0,0,0,2.28-.91,8.21,8.21,0,0,0,1.78-1.36,7.13,7.13,0,0,0,1.24-1.7,5.87,5.87,0,0,0,.62-1.93,4.1,4.1,0,0,1-1.24.93,5.53,5.53,0,0,1-1.81.52h0a5.33,5.33,0,0,1-1.77-.08,4.11,4.11,0,0,1-1.62-.72,4,4,0,0,1-1.18-1.41A4.51,4.51,0,0,1,605.1,295.54ZM608,295a2.37,2.37,0,0,0,.24,1.11,2.1,2.1,0,0,0,.63.75,2.31,2.31,0,0,0,.91.39,3.23,3.23,0,0,0,1.07,0,4.43,4.43,0,0,0,1.63-.51,2.88,2.88,0,0,0,1-.87,6.71,6.71,0,0,0,.07-0.93,4.23,4.23,0,0,0-.18-1.24,2.92,2.92,0,0,0-.55-1,2.27,2.27,0,0,0-.92-0.65,2.53,2.53,0,0,0-1.26-.13A3,3,0,0,0,608,295Z"/><path class="cls-4" d="M618.5,296.82a14.45,14.45,0,0,1,.44-3.73,8.78,8.78,0,0,1,1.23-2.77,6.2,6.2,0,0,1,1.9-1.8,6.36,6.36,0,0,1,2.46-.85A4.67,4.67,0,0,1,629,289.1q1.56,1.82,1.56,6.1a14.55,14.55,0,0,1-.44,3.75,9,9,0,0,1-1.23,2.79,6.14,6.14,0,0,1-1.91,1.82,6.42,6.42,0,0,1-2.47.85,4.52,4.52,0,0,1-4.46-1.56Q618.5,300.92,618.5,296.82Zm3-.39c0,0.23,0,.45,0,0.65s0,0.42,0,.63l5.55-5.87a2.19,2.19,0,0,0-2.57-1.63,2.9,2.9,0,0,0-2.24,1.71A10.13,10.13,0,0,0,621.48,296.43Zm6.1-.82q0-.37,0-0.7c0-.22,0-0.44,0-0.65L622,300.14a2.23,2.23,0,0,0,2.57,1.75,2.93,2.93,0,0,0,2.25-1.71A10.16,10.16,0,0,0,627.57,295.61Z"/><path class="cls-4" d="M636.37,301a1.82,1.82,0,0,1,.52-1.31,2.17,2.17,0,0,1,1.29-.64,2,2,0,0,1,1.9.56,2.88,2.88,0,0,1,.64,2,4.76,4.76,0,0,1-.4,1.94,6.06,6.06,0,0,1-1,1.62,6.9,6.9,0,0,1-1.43,1.22,6.71,6.71,0,0,1-1.57.75l-0.62-1.18a7.69,7.69,0,0,0,1.11-.55,5.47,5.47,0,0,0,1-.78,4.38,4.38,0,0,0,.77-1,2.76,2.76,0,0,0,.35-1.15,3,3,0,0,1-1.17.2,1.53,1.53,0,0,1-.79-0.26,1.24,1.24,0,0,1-.45-0.58A2.2,2.2,0,0,1,636.37,301Z"/><path class="cls-4" d="M646.49,297.09a4.28,4.28,0,0,1,.26-1.51,5.5,5.5,0,0,1,.69-1.3,7.2,7.2,0,0,1,1-1.1,11.45,11.45,0,0,1,1.12-.91,5.69,5.69,0,0,1-1.9-1.3,3,3,0,0,1-.76-2.18,4.08,4.08,0,0,1,.39-1.74,5.08,5.08,0,0,1,1.09-1.52A6.28,6.28,0,0,1,650,284.4a7.19,7.19,0,0,1,2.08-.63,6.41,6.41,0,0,1,1.93,0,4.48,4.48,0,0,1,1.59.54,3,3,0,0,1,1.08,1.07,3,3,0,0,1,.39,1.54,4.58,4.58,0,0,1-.7,2.47,7.66,7.66,0,0,1-1.91,2,5.74,5.74,0,0,1,2.18,1.35,3.27,3.27,0,0,1,.81,2.36,4.34,4.34,0,0,1-.45,1.94,5.61,5.61,0,0,1-1.2,1.62,6.84,6.84,0,0,1-1.77,1.2,7.57,7.57,0,0,1-2.16.66,6.79,6.79,0,0,1-2.13,0,4.82,4.82,0,0,1-1.72-.61,3.21,3.21,0,0,1-1.14-1.17A3.34,3.34,0,0,1,646.49,297.09Zm8.15-1.6a1.46,1.46,0,0,0-.3-0.94,2.61,2.61,0,0,0-.74-0.62,5.71,5.71,0,0,0-1-.44q-0.54-.18-1-0.39a5.53,5.53,0,0,0-1.76,1.56,2.89,2.89,0,0,0-.62,1.6,1.62,1.62,0,0,0,.73,1.49,3,3,0,0,0,2,.26,3.69,3.69,0,0,0,1.92-.83A2.13,2.13,0,0,0,654.64,295.49Zm-4.92-7a1.53,1.53,0,0,0,.24.9,2.05,2.05,0,0,0,.62.58,4.06,4.06,0,0,0,.86.39l1,0.32a5.28,5.28,0,0,0,.72-0.57,4.91,4.91,0,0,0,.63-0.7,4.16,4.16,0,0,0,.45-0.76,1.83,1.83,0,0,0,.17-0.75,1.49,1.49,0,0,0-.21-0.81,1.65,1.65,0,0,0-.54-0.53,2,2,0,0,0-.74-0.27,2.79,2.79,0,0,0-.85,0,2.89,2.89,0,0,0-.93.3,3.21,3.21,0,0,0-.73.52,2.23,2.23,0,0,0-.48.67A1.7,1.7,0,0,0,649.72,288.52Z"/><path class="cls-4" d="M661.59,301.13a9.23,9.23,0,0,0,1.69-.87,8.94,8.94,0,0,0,2-1.71,9.74,9.74,0,0,0,1.61-2.63,9.3,9.3,0,0,0,.66-3.67,8.68,8.68,0,0,0-.63-3.58,6.23,6.23,0,0,0-1.54-2.16,5.39,5.39,0,0,0-1.93-1.1,8.44,8.44,0,0,0-1.82-.38l0.55-2.55a10.08,10.08,0,0,1,3.11.6,7.47,7.47,0,0,1,2.67,1.68,8.13,8.13,0,0,1,1.86,2.87,11.17,11.17,0,0,1,.7,4.16,13,13,0,0,1-.7,4.39,11.93,11.93,0,0,1-1.86,3.42,11.42,11.42,0,0,1-2.67,2.46,12.35,12.35,0,0,1-3.11,1.49Z"/><path class="cls-4" d="M54.95,242.83l2.83,0.45v-6.44l-2.83-.45v-2.53l5.14,0.81,0.34,1.57h0.09a4.85,4.85,0,0,1,1.46-1,3.32,3.32,0,0,1,1.92-.21,3.1,3.1,0,0,1,2.16,1.34,6.19,6.19,0,0,1,.79,3.5l-2.68-.41a2.55,2.55,0,0,0-.24-1.24,1,1,0,0,0-.77-0.5,2,2,0,0,0-1.47.23,3.69,3.69,0,0,0-.95.91v4.9l5,0.76V247c-4.31-.66-6.46-1-10.77-1.68v-2.53Z"/><path class="cls-4" d="M80,247.94a3.35,3.35,0,0,1-.77.43,6.4,6.4,0,0,1-1.1.33,7.78,7.78,0,0,1-1.38.16,8.75,8.75,0,0,1-1.6-.1,8.51,8.51,0,0,1-2.62-.8,6.35,6.35,0,0,1-3.18-3.59,7.67,7.67,0,0,1-.42-2.6,6.27,6.27,0,0,1,.48-2.58,4.3,4.3,0,0,1,1.32-1.7,4.6,4.6,0,0,1,2-.85,7.28,7.28,0,0,1,2.43,0,8.15,8.15,0,0,1,1.8.5,5.88,5.88,0,0,1,1.71,1,5.24,5.24,0,0,1,1.27,1.69,5.61,5.61,0,0,1,.49,2.46,10.51,10.51,0,0,1-.23,2.11l-8.24-1.21a3,3,0,0,0,.31,1.29,3,3,0,0,0,.75.94,3.88,3.88,0,0,0,1.08.63,5.77,5.77,0,0,0,1.29.34,6.43,6.43,0,0,0,2.25,0,4,4,0,0,0,1.43-.57ZM75.05,239a3.63,3.63,0,0,0-1.12,0,2.66,2.66,0,0,0-.95.34,2.11,2.11,0,0,0-.7.68,2.15,2.15,0,0,0-.32,1l5.63,0.83A2.89,2.89,0,0,0,77,240,2.93,2.93,0,0,0,75.05,239Z"/><path class="cls-4" d="M94,250a5.66,5.66,0,0,1-2.2.76,9.31,9.31,0,0,1-2.63,0,8.16,8.16,0,0,1-2.65-.81,6.55,6.55,0,0,1-1.95-1.51,6.29,6.29,0,0,1-1.2-2.09,7.69,7.69,0,0,1-.41-2.54,6,6,0,0,1,.48-2.51,4.44,4.44,0,0,1,1.34-1.72,4.87,4.87,0,0,1,2-.9,7.51,7.51,0,0,1,2.54,0,10.13,10.13,0,0,1,2.4.64,12.92,12.92,0,0,1,1.72.81v4L91,243.82v-2.12a6.91,6.91,0,0,0-1.42-.36,4.15,4.15,0,0,0-1.27,0,2.58,2.58,0,0,0-1.92,1.42,3.26,3.26,0,0,0-.31,1.5,3.85,3.85,0,0,0,.25,1.39,3.9,3.9,0,0,0,.71,1.18,4,4,0,0,0,1.13.88,4.49,4.49,0,0,0,1.5.48,5.09,5.09,0,0,0,2.14-.07,7.36,7.36,0,0,0,1.25-.47Z"/><path class="cls-4" d="M102.81,240.84l4.26,0.56v9l1.74,0.23v2.53l-3.62-.48-0.53-1.77h-0.09a3.34,3.34,0,0,1-1.58,1.24,4.48,4.48,0,0,1-2.34.26,5.66,5.66,0,0,1-1.59-.45,3.44,3.44,0,0,1-1.23-.93,4.17,4.17,0,0,1-.78-1.53,8.22,8.22,0,0,1-.27-2.29v-4.62l-1.31-.18v-2.53l4.28,0.58V247a3.86,3.86,0,0,0,.45,2.08,1.88,1.88,0,0,0,1.41.81,2.3,2.3,0,0,0,2.48-1.42v-4.9l-1.28-.17v-2.53Z"/><path class="cls-4" d="M109.89,250.74l2.84,0.37v-6.44l-2.84-.37v-2.53l5.16,0.66L115.4,244h0.09a5.06,5.06,0,0,1,1.47-1.08,3.37,3.37,0,0,1,1.93-.26,3,3,0,0,1,2.17,1.28,6.06,6.06,0,0,1,.79,3.48l-2.68-.33a2.5,2.5,0,0,0-.24-1.24,1,1,0,0,0-.77-0.48,2.07,2.07,0,0,0-1.48.27,3.86,3.86,0,0,0-1,.94v4.9l5,0.62v2.53c-4.32-.54-6.48-0.81-10.8-1.37v-2.53Z"/><path class="cls-4" d="M133.2,261a11.91,11.91,0,0,1-3.12-1.38,10.86,10.86,0,0,1-2.68-2.37,11.38,11.38,0,0,1-1.87-3.35,12.72,12.72,0,0,1-.7-4.36,11.33,11.33,0,0,1,.7-4.18,8.52,8.52,0,0,1,1.87-2.94,7.88,7.88,0,0,1,2.68-1.77,10.37,10.37,0,0,1,3.12-.71l0.55,2.53a8.69,8.69,0,0,0-1.82.44A5.66,5.66,0,0,0,130,244.1a6.54,6.54,0,0,0-1.55,2.22,8.8,8.8,0,0,0-.63,3.6,9.09,9.09,0,0,0,.67,3.64,9.26,9.26,0,0,0,1.62,2.57,8.48,8.48,0,0,0,2,1.64,8.9,8.9,0,0,0,1.7.81Z"/><path class="cls-4" d="M137.77,245.62a5.34,5.34,0,0,1,.4-2.11,4.17,4.17,0,0,1,1.12-1.56A4.52,4.52,0,0,1,141,241a6,6,0,0,1,2.28-.14,7.22,7.22,0,0,1,2.34.65,5.72,5.72,0,0,1,1.81,1.36,6,6,0,0,1,1.17,2,8,8,0,0,1,.41,2.66,13.06,13.06,0,0,1-.69,4.52,8.25,8.25,0,0,1-1.85,3,6.86,6.86,0,0,1-2.7,1.68,9.91,9.91,0,0,1-3.21.51L140,254.91a7.41,7.41,0,0,0,2.28-.36,5.93,5.93,0,0,0,1.78-.94,5.07,5.07,0,0,0,1.24-1.4,4.74,4.74,0,0,0,.62-1.78,3,3,0,0,1-1.24.63,4.94,4.94,0,0,1-1.81.08h0a6,6,0,0,1-1.77-.5,5.57,5.57,0,0,1-1.62-1.1,5.67,5.67,0,0,1-1.18-1.69A5.2,5.2,0,0,1,137.77,245.62Zm2.89,0.17a2.75,2.75,0,0,0,.24,1.17,3,3,0,0,0,.63.9,3.1,3.1,0,0,0,.91.61,3.58,3.58,0,0,0,1.07.29,3.9,3.9,0,0,0,1.63-.12,2.07,2.07,0,0,0,1-.62,6.36,6.36,0,0,0,.07-0.91,4.65,4.65,0,0,0-.18-1.29,3.89,3.89,0,0,0-.55-1.17,3.22,3.22,0,0,0-.92-0.87,2.94,2.94,0,0,0-1.26-.43A2.24,2.24,0,0,0,140.66,245.79Z"/><path class="cls-4" d="M151.55,247.16a5.36,5.36,0,0,1,.4-2.12,4.21,4.21,0,0,1,1.13-1.57,4.56,4.56,0,0,1,1.75-.92,6,6,0,0,1,2.29-.16,7.18,7.18,0,0,1,2.34.64,5.66,5.66,0,0,1,1.82,1.35,6,6,0,0,1,1.17,2,8,8,0,0,1,.41,2.65,13.1,13.1,0,0,1-.69,4.53,8.33,8.33,0,0,1-1.85,3,6.93,6.93,0,0,1-2.7,1.7,10,10,0,0,1-3.22.53l-0.64-2.42a7.44,7.44,0,0,0,2.29-.38,6,6,0,0,0,1.78-1,5.12,5.12,0,0,0,1.24-1.41,4.77,4.77,0,0,0,.62-1.79,3,3,0,0,1-1.24.64,5,5,0,0,1-1.82.1h0a5.93,5.93,0,0,1-1.77-.49,5.52,5.52,0,0,1-1.62-1.09,5.61,5.61,0,0,1-1.18-1.68A5.18,5.18,0,0,1,151.55,247.16Zm2.89,0.15a2.74,2.74,0,0,0,.24,1.16,2.92,2.92,0,0,0,.63.9,3.07,3.07,0,0,0,.91.6,3.56,3.56,0,0,0,1.07.29,3.91,3.91,0,0,0,1.63-.13,2.09,2.09,0,0,0,1-.63,6.37,6.37,0,0,0,.07-0.91,4.64,4.64,0,0,0-.18-1.28,3.85,3.85,0,0,0-.55-1.16,3.19,3.19,0,0,0-.92-0.87,2.92,2.92,0,0,0-1.26-.42A2.26,2.26,0,0,0,154.44,247.31Z"/><path class="cls-4" d="M165,251.55a13.25,13.25,0,0,1,.44-3.62,6.71,6.71,0,0,1,1.23-2.49,4.44,4.44,0,0,1,1.9-1.36,5.52,5.52,0,0,1,2.47-.27,5.94,5.94,0,0,1,4.48,2.47q1.57,2.19,1.57,6.46a13.37,13.37,0,0,1-.44,3.65,6.87,6.87,0,0,1-1.23,2.5,4.4,4.4,0,0,1-1.92,1.38,5.57,5.57,0,0,1-2.48.28,5.79,5.79,0,0,1-4.48-2.59A11.4,11.4,0,0,1,165,251.55Zm3,0.3q0,0.35,0,.66t0,0.64l5.56-4.58a2.91,2.91,0,0,0-2.58-2.23,2.19,2.19,0,0,0-2.25,1.19A8.93,8.93,0,0,0,168,251.85Zm6.12,0.6q0-.37,0-0.7c0-.22,0-0.44,0-0.66l-5.59,4.58A3,3,0,0,0,171,258a2.22,2.22,0,0,0,2.26-1.18A8.93,8.93,0,0,0,174.07,252.45Z"/><path class="cls-4" d="M182.9,259.89a1.44,1.44,0,0,1,.52-1.19,1.75,1.75,0,0,1,1.3-.34,2.51,2.51,0,0,1,1.91,1,3.49,3.49,0,0,1,.64,2.1,4.13,4.13,0,0,1-.4,1.85,4.39,4.39,0,0,1-1,1.38,5,5,0,0,1-1.44.88,5.44,5.44,0,0,1-1.58.38l-0.62-1.32a6.18,6.18,0,0,0,1.12-.29,4,4,0,0,0,1-.54,3.1,3.1,0,0,0,.77-0.82,2.25,2.25,0,0,0,.36-1.07,2.94,2.94,0,0,1-1.17-.07,2,2,0,0,1-.79-0.44,1.71,1.71,0,0,1-.45-0.68A2.49,2.49,0,0,1,182.9,259.89Z"/><path class="cls-4" d="M193.06,258.34a3.79,3.79,0,0,1,.26-1.45,4.11,4.11,0,0,1,.69-1.14,5.1,5.1,0,0,1,1-.87,8.35,8.35,0,0,1,1.13-.65,8,8,0,0,1-1.91-1.74,3.71,3.71,0,0,1-.76-2.35,3.49,3.49,0,0,1,.39-1.64,3.64,3.64,0,0,1,1.09-1.26,4.71,4.71,0,0,1,1.67-.75,6.42,6.42,0,0,1,2.09-.15,7,7,0,0,1,1.94.44,5.87,5.87,0,0,1,1.6.91,4.16,4.16,0,0,1,1.08,1.32,3.5,3.5,0,0,1,.39,1.63,3.8,3.8,0,0,1-.7,2.31,5.46,5.46,0,0,1-1.92,1.59,8,8,0,0,1,2.2,1.86,4,4,0,0,1,.82,2.55,3.7,3.7,0,0,1-.45,1.84,4,4,0,0,1-1.21,1.34,5.16,5.16,0,0,1-1.78.78,6.76,6.76,0,0,1-2.17.15,7.42,7.42,0,0,1-2.14-.49,6.34,6.34,0,0,1-1.73-1,4.51,4.51,0,0,1-1.15-1.43A3.9,3.9,0,0,1,193.06,258.34Zm8.19,0.3a1.76,1.76,0,0,0-.3-1,3.71,3.71,0,0,0-.75-0.8,7.67,7.67,0,0,0-1-.67l-1-.63a4,4,0,0,0-1.77,1.15,2.29,2.29,0,0,0-.62,1.45,2.07,2.07,0,0,0,.74,1.66,3.54,3.54,0,0,0,2,.74,3.07,3.07,0,0,0,1.93-.38A1.66,1.66,0,0,0,201.25,258.64Zm-4.95-8.12a1.81,1.81,0,0,0,.24,1,2.9,2.9,0,0,0,.62.72,5.48,5.48,0,0,0,.86.59l1,0.54a3.88,3.88,0,0,0,.72-0.4,3.5,3.5,0,0,0,.63-0.56,3,3,0,0,0,.45-0.65A1.56,1.56,0,0,0,201,251a1.74,1.74,0,0,0-.21-0.86,2.33,2.33,0,0,0-.54-0.65,2.64,2.64,0,0,0-.75-0.44,3.05,3.05,0,0,0-.85-0.2,2.55,2.55,0,0,0-.93.08,2.39,2.39,0,0,0-.74.35,1.6,1.6,0,0,0-.48.56A1.44,1.44,0,0,0,196.31,250.52Z"/><path class="cls-4" d="M208.25,265.9a7.38,7.38,0,0,0,1.7-.48,6.46,6.46,0,0,0,2-1.25,7.09,7.09,0,0,0,1.62-2.26,8.14,8.14,0,0,0,.67-3.51,9.72,9.72,0,0,0-.63-3.73,8.56,8.56,0,0,0-1.55-2.52,7.48,7.48,0,0,0-1.95-1.55,10.42,10.42,0,0,0-1.83-.8l0.55-2.42a12.36,12.36,0,0,1,3.13,1.33,10.44,10.44,0,0,1,2.69,2.3,11,11,0,0,1,1.88,3.3,12.42,12.42,0,0,1,.7,4.32,11.53,11.53,0,0,1-.7,4.23,8.81,8.81,0,0,1-1.88,3,8.2,8.2,0,0,1-2.69,1.84,10,10,0,0,1-3.13.77Z"/><path class="cls-4" d="M456.62,251.4l9.1-.45v2.53l-6.25.31c0,6.53,0,9.8,0,16.33l6.25-.31c0,1,0,1.52,0,2.53l-9.1.45C456.62,264.23,456.62,260,456.62,251.4Z"/><path class="cls-4" d="M473.38,256.79a1.75,1.75,0,0,1,.51-1.3,2,2,0,0,1,1.34-.55,1.86,1.86,0,0,1,1.38.39,1.57,1.57,0,0,1,.51,1.25,1.79,1.79,0,0,1-.51,1.32,2,2,0,0,1-1.38.56,1.77,1.77,0,0,1-1.34-.41A1.6,1.6,0,0,1,473.38,256.79Zm0,8.33a1.75,1.75,0,0,1,.51-1.31,2,2,0,0,1,1.34-.55,1.86,1.86,0,0,1,1.38.39,1.57,1.57,0,0,1,.51,1.25,1.79,1.79,0,0,1-.51,1.32,2,2,0,0,1-1.38.56,1.77,1.77,0,0,1-1.34-.41A1.61,1.61,0,0,1,473.38,265.12Z"/><path class="cls-4" d="M483.06,263.55l2.86-.17c0-2.58,0-3.86,0-6.44l-2.86.17c0-1,0-1.52,0-2.53l5.18-.32,0.35,1.5h0.09a6.71,6.71,0,0,1,1.47-1.36,3.84,3.84,0,0,1,1.93-.63,2.45,2.45,0,0,1,2.18.87,5.31,5.31,0,0,1,.79,3.33l-2.69.18a2.22,2.22,0,0,0-.24-1.19,0.79,0.79,0,0,0-.77-0.33,2.42,2.42,0,0,0-1.49.56,5.12,5.12,0,0,0-1,1.12c0,2,0,2.94,0,4.9l5-.32c0,1,0,1.52,0,2.53-4.34.29-6.51,0.42-10.85,0.69C483.06,265.07,483.06,264.56,483.06,263.55Z"/><path class="cls-4" d="M508.28,263.17a4.54,4.54,0,0,1-.77.6,8.13,8.13,0,0,1-1.11.58,9,9,0,0,1-1.39.47,9.14,9.14,0,0,1-1.61.25,7.62,7.62,0,0,1-2.64-.23,4.69,4.69,0,0,1-3.2-2.9,6.86,6.86,0,0,1-.43-2.51,7,7,0,0,1,.48-2.69,5.84,5.84,0,0,1,1.32-2,6.07,6.07,0,0,1,2-1.27,7.94,7.94,0,0,1,2.44-.55,7.43,7.43,0,0,1,1.81.1,4.59,4.59,0,0,1,1.72.67,3.83,3.83,0,0,1,1.28,1.41,4.89,4.89,0,0,1,.5,2.36,11.2,11.2,0,0,1-.23,2.16l-8.29.59a2.53,2.53,0,0,0,.31,1.22,2.22,2.22,0,0,0,.76.77,3.06,3.06,0,0,0,1.08.4,5.3,5.3,0,0,0,1.3.06,7,7,0,0,0,2.27-.48,5.27,5.27,0,0,0,1.44-.89Zm-5-7.85a4,4,0,0,0-1.13.24,3.44,3.44,0,0,0-1,.55,2.9,2.9,0,0,0-.7.83,2.55,2.55,0,0,0-.32,1.08l5.67-.4A2.1,2.1,0,0,0,503.3,255.32Z"/><path class="cls-4" d="M522.36,262.21a7.27,7.27,0,0,1-2.21,1.25,10.07,10.07,0,0,1-2.65.56,7.28,7.28,0,0,1-2.66-.23,4.89,4.89,0,0,1-2-1.08,4.71,4.71,0,0,1-1.21-1.83,6.9,6.9,0,0,1-.41-2.45,6.75,6.75,0,0,1,.48-2.61,6,6,0,0,1,1.35-2,6.44,6.44,0,0,1,2-1.34,8.23,8.23,0,0,1,2.55-.6,9.27,9.27,0,0,1,2.42.11,10.61,10.61,0,0,1,1.73.44c0,1.62,0,2.43,0,4l-2.53.2v-2.12a6.38,6.38,0,0,0-1.43,0,4.51,4.51,0,0,0-1.28.29,3.45,3.45,0,0,0-1.13.71,3.63,3.63,0,0,0-.81,1.13,3.68,3.68,0,0,0-.31,1.56,3.41,3.41,0,0,0,.25,1.34,2.84,2.84,0,0,0,1.85,1.66,4,4,0,0,0,1.51.15,5.64,5.64,0,0,0,2.15-.54,9.6,9.6,0,0,0,1.25-.74Z"/><path class="cls-4" d="M531.2,251.08l4.28-.37v9l1.75-.15v2.53l-3.63.32-0.53-1.66H533a4.6,4.6,0,0,1-1.59,1.58,5.41,5.41,0,0,1-3.95.68,2.6,2.6,0,0,1-1.23-.66,3.18,3.18,0,0,1-.78-1.36,7.53,7.53,0,0,1-.28-2.23v-4.62l-1.31.11v-2.53l4.3-.35v6.53a3.34,3.34,0,0,0,.45,2,1.5,1.5,0,0,0,1.41.5,2.7,2.7,0,0,0,1.53-.64,3.06,3.06,0,0,0,1-1.32c0-2,0-2.94,0-4.9l-1.29.11v-2.53Z"/><path class="cls-4" d="M538.31,259.43l2.85-.25v-6.44l-2.85.25v-2.53l5.18-.47,0.34,1.49h0.09a7,7,0,0,1,1.47-1.4,3.93,3.93,0,0,1,1.93-.69,2.38,2.38,0,0,1,2.17.81,5.22,5.22,0,0,1,.79,3.31l-2.69.25a2.19,2.19,0,0,0-.24-1.18,0.77,0.77,0,0,0-.77-0.31,2.48,2.48,0,0,0-1.48.6,5.33,5.33,0,0,0-1,1.15v4.9l5-.46V261c-4.33.41-6.5,0.61-10.83,1v-2.53Z"/><path class="cls-4" d="M556.22,258.82a1.74,1.74,0,0,1,.52-1.29,2.36,2.36,0,0,1,3.21.05,3,3,0,0,1,.64,2,4.62,4.62,0,0,1-.4,1.93,5.71,5.71,0,0,1-1,1.58,6.5,6.5,0,0,1-1.44,1.15,6.43,6.43,0,0,1-1.57.68l-0.62-1.2a7.38,7.38,0,0,0,1.11-.5,5.17,5.17,0,0,0,1-.73,4.12,4.12,0,0,0,.77-1,2.66,2.66,0,0,0,.36-1.14,3,3,0,0,1-1.17.15,1.6,1.6,0,0,1-.79-0.29,1.31,1.31,0,0,1-.45-0.6A2.24,2.24,0,0,1,556.22,258.82Z"/><path class="cls-4" d="M567.12,243.09l9.08-1c0,1,0,1.52,0,2.53l-6.23.66c0,6.53,0,9.8,0,16.33l6.23-.66v2.53l-9.08,1C567.12,255.93,567.12,251.65,567.12,243.09Z"/><path class="cls-4" d="M580,246.75a6,6,0,0,1,.4-2.21,5.65,5.65,0,0,1,1.13-1.81,6.11,6.11,0,0,1,1.75-1.3,6.69,6.69,0,0,1,2.28-.66,6.48,6.48,0,0,1,2.34.12,4.23,4.23,0,0,1,1.81,1,4.47,4.47,0,0,1,1.17,1.77,7.22,7.22,0,0,1,.41,2.56,14.45,14.45,0,0,1-.69,4.68,11,11,0,0,1-1.85,3.43,9.41,9.41,0,0,1-2.7,2.29,11.72,11.72,0,0,1-3.22,1.24l-0.64-2.28a8.77,8.77,0,0,0,2.28-.88,8,8,0,0,0,1.78-1.34,7,7,0,0,0,1.24-1.68,5.79,5.79,0,0,0,.62-1.92,4,4,0,0,1-1.24.91,5.47,5.47,0,0,1-1.81.49h0a5.35,5.35,0,0,1-1.77-.1,4.18,4.18,0,0,1-1.62-.74,4.11,4.11,0,0,1-1.18-1.42A4.54,4.54,0,0,1,580,246.75Zm2.89-.48a2.39,2.39,0,0,0,.24,1.11,2.15,2.15,0,0,0,.63.76,2.35,2.35,0,0,0,.91.4,3.24,3.24,0,0,0,1.07.05,4.39,4.39,0,0,0,1.63-.48,2.82,2.82,0,0,0,1-.85,6.69,6.69,0,0,0,.07-0.93,4.25,4.25,0,0,0-.18-1.24,3,3,0,0,0-.55-1,2.32,2.32,0,0,0-.92-0.67,2.55,2.55,0,0,0-1.26-.14A2.91,2.91,0,0,0,582.92,246.27Z"/><path class="cls-4" d="M593.8,245.19a6.05,6.05,0,0,1,.4-2.21,5.71,5.71,0,0,1,1.12-1.82,6.16,6.16,0,0,1,1.74-1.31,6.73,6.73,0,0,1,2.28-.68,6.47,6.47,0,0,1,2.34.11,4.19,4.19,0,0,1,1.81.94,4.42,4.42,0,0,1,1.17,1.76,7.2,7.2,0,0,1,.41,2.56,14.5,14.5,0,0,1-.69,4.68,11.11,11.11,0,0,1-1.85,3.45,9.51,9.51,0,0,1-2.7,2.3,11.79,11.79,0,0,1-3.21,1.26L596,254a8.83,8.83,0,0,0,2.28-.89,8.13,8.13,0,0,0,1.78-1.35,7.06,7.06,0,0,0,1.24-1.69,5.83,5.83,0,0,0,.62-1.93,4.06,4.06,0,0,1-1.24.92,5.5,5.5,0,0,1-1.81.51h0a5.34,5.34,0,0,1-1.77-.09,4.15,4.15,0,0,1-1.62-.73,4.07,4.07,0,0,1-1.18-1.41A4.52,4.52,0,0,1,593.8,245.19Zm2.89-.5a2.38,2.38,0,0,0,.24,1.11,2.13,2.13,0,0,0,.63.75,2.33,2.33,0,0,0,.91.4,3.23,3.23,0,0,0,1.07,0,4.41,4.41,0,0,0,1.63-.5,2.85,2.85,0,0,0,1-.86,6.7,6.7,0,0,0,.07-0.93,4.24,4.24,0,0,0-.18-1.24,3,3,0,0,0-.55-1,2.3,2.3,0,0,0-.92-0.66,2.54,2.54,0,0,0-1.26-.14A2.94,2.94,0,0,0,596.7,244.69Z"/><path class="cls-4" d="M607.21,246.56a14.4,14.4,0,0,1,.44-3.72,8.71,8.71,0,0,1,1.23-2.76,6.14,6.14,0,0,1,1.9-1.79,6.33,6.33,0,0,1,2.46-.83,4.7,4.7,0,0,1,4.47,1.46q1.56,1.83,1.56,6.11a14.51,14.51,0,0,1-.44,3.75,8.91,8.91,0,0,1-1.23,2.78,6.08,6.08,0,0,1-1.91,1.81,6.39,6.39,0,0,1-2.47.83,4.55,4.55,0,0,1-4.47-1.59Q607.21,250.66,607.21,246.56Zm3-.37c0,0.23,0,.45,0,0.65s0,0.42,0,.63l5.55-5.83a2.21,2.21,0,0,0-2.57-1.65,2.88,2.88,0,0,0-2.24,1.7A10.09,10.09,0,0,0,610.19,246.19Zm6.1-.78q0-.37,0-0.7c0-.22,0-0.44,0-0.65l-5.57,5.84a2.25,2.25,0,0,0,2.57,1.77,2.91,2.91,0,0,0,2.25-1.69A10.11,10.11,0,0,0,616.29,245.41Z"/><path class="cls-4" d="M625.09,250.86a1.81,1.81,0,0,1,.52-1.31,2.15,2.15,0,0,1,1.3-.63,2,2,0,0,1,1.9.57,2.89,2.89,0,0,1,.64,2,4.73,4.73,0,0,1-.4,1.94,6,6,0,0,1-1,1.61,6.83,6.83,0,0,1-1.43,1.21,6.65,6.65,0,0,1-1.57.74l-0.62-1.18a7.65,7.65,0,0,0,1.11-.54,5.41,5.41,0,0,0,1-.77,4.34,4.34,0,0,0,.77-1,2.74,2.74,0,0,0,.36-1.15,3,3,0,0,1-1.17.19,1.54,1.54,0,0,1-.79-0.26,1.25,1.25,0,0,1-.45-0.58A2.21,2.21,0,0,1,625.09,250.86Z"/><path class="cls-4" d="M635.22,247a4.26,4.26,0,0,1,.26-1.51,5.45,5.45,0,0,1,.69-1.29,7.13,7.13,0,0,1,1-1.09,11.34,11.34,0,0,1,1.12-.9,5.75,5.75,0,0,1-1.9-1.31,3.06,3.06,0,0,1-.76-2.18A4.06,4.06,0,0,1,636,237a5,5,0,0,1,1.09-1.51,6.23,6.23,0,0,1,1.66-1.13,7.16,7.16,0,0,1,2.08-.62,6.43,6.43,0,0,1,1.94,0,4.51,4.51,0,0,1,1.59.55,2.93,2.93,0,0,1,1.47,2.62,4.55,4.55,0,0,1-.7,2.47,7.58,7.58,0,0,1-1.91,2,5.8,5.8,0,0,1,2.19,1.37,3.29,3.29,0,0,1,.81,2.37,4.32,4.32,0,0,1-.45,1.94,5.55,5.55,0,0,1-1.2,1.61,6.78,6.78,0,0,1-1.77,1.19,7.53,7.53,0,0,1-2.16.64,6.8,6.8,0,0,1-2.13,0,4.86,4.86,0,0,1-1.72-.62,3.24,3.24,0,0,1-1.15-1.17A3.36,3.36,0,0,1,635.22,247Zm8.15-1.54a1.47,1.47,0,0,0-.3-0.95,2.64,2.64,0,0,0-.74-0.63,5.77,5.77,0,0,0-1-.45q-0.54-.19-1-0.39a5.47,5.47,0,0,0-1.76,1.55,2.87,2.87,0,0,0-.62,1.59,1.63,1.63,0,0,0,.73,1.5,3,3,0,0,0,2,.28,3.67,3.67,0,0,0,1.92-.81A2.11,2.11,0,0,0,643.37,245.48Zm-4.92-7a1.54,1.54,0,0,0,.24.9,2.07,2.07,0,0,0,.62.58,4.11,4.11,0,0,0,.86.4l1,0.32a5.23,5.23,0,0,0,.72-0.56,4.81,4.81,0,0,0,.63-0.7,4.07,4.07,0,0,0,.45-0.75,1.82,1.82,0,0,0,.17-0.75,1.49,1.49,0,0,0-.21-0.81,1.67,1.67,0,0,0-.54-0.53,2,2,0,0,0-.74-0.27,2.79,2.79,0,0,0-.85,0,2.87,2.87,0,0,0-.93.29,3.18,3.18,0,0,0-.73.52,2.21,2.21,0,0,0-.48.67A1.69,1.69,0,0,0,638.45,238.47Z"/><path class="cls-4" d="M659.18,252.77l-9,1.35v-2.53l6.2-.92c0-6.53,0-9.8,0-16.33l-6.2.92c0-1,0-1.52,0-2.53l9-1.35v21.39Z"/><path class="cls-4" d="M672.9,250.65l-9,1.41v-2.53l6.2-1V232.23l-6.2,1v-2.53l9-1.41v21.39Z"/></svg>