<svg id="Layer_1" data-name="Layer 1" xmlns="http://www.w3.org/2000/svg" viewBox="0 0 720 576"><defs><style>.cls-1,.cls-2,.cls-4,.cls-6{fill:#231f20;}.cls-1,.cls-3{stroke:#231f20;}.cls-1,.cls-6{stroke-miterlimit:10;}.cls-1{stroke-width:1.1px;}.cls-2{stroke:#000;}.cls-2,.cls-3{stroke-linecap:round;stroke-linejoin:round;stroke-width:2px;}.cls-3,.cls-5{fill:#fff;}.cls-6{stroke:#fff;}</style></defs><title>Hanoi_Tower_Set_4</title><path class="cls-1" d="M656,506.49c0-.14,0-0.29,0-0.43s0-.29,0-0.43V453.84H64.18s-0.23,51.74-.23,52.22c0,2.67,2.12,5.24,6.08,7.71,13.87,8.61,50.58,16.11,101.74,21.48S288.5,543.84,360,543.84c81.71,0,155.68-4.21,209.24-11,26.78-3.41,48.45-7.46,63.44-12,7.5-2.25,13.32-4.62,17.29-7.08,3.38-2.1,5.41-4.29,5.94-6.55H656v-0.73Z"/><ellipse class="cls-2" cx="360" cy="454.92" rx="295.87" ry="37.63"/><path class="cls-3" d="M656,455c0-.14,0-0.29,0-0.43s0-.29,0-0.43V402.36H64.18s-0.23,51.74-.23,52.22c0,2.67,2.12,5.24,6.08,7.71,13.87,8.61,50.58,16.11,101.74,21.48S288.5,492.36,360,492.36c81.71,0,155.68-4.21,209.24-11,26.78-3.41,48.45-7.46,63.44-12,7.5-2.25,13.32-4.62,17.29-7.08,3.38-2.1,5.41-4.29,5.94-6.55H656V455Z"/><ellipse class="cls-3" cx="360" cy="403.44" rx="295.87" ry="37.63"/><path class="cls-4" d="M360,412.22c-16,0-29-3.75-30.2-8.61h-0.08l0-.5V8.27h60.63V403.6H390.2C389,408.47,376,412.22,360,412.22Z"/><path class="cls-5" d="M389.82,8.77V403.1h0c-0.49,4.78-13.63,8.61-29.79,8.61s-29.3-3.83-29.79-8.61h0v-0.21s0,0,0-.06,0,0,0-.06V8.77h59.63m1-1H329.19v395s0,0.07,0,.11v1.27h0.23c2,5.6,16.84,8.61,30.58,8.61s28.6-3,30.58-8.61h0.21l0-1V7.77h0Z"/><ellipse class="cls-6" cx="359.99" cy="8.89" rx="29.81" ry="8.89"/><path d="M120.13,453.78v-2.31l2.46,0.47v-5.88l-2.48-.47v-2.31l2.48,0.47v-0.59a3.48,3.48,0,0,1,.34-1.64,2.6,2.6,0,0,1,.91-1,3,3,0,0,1,1.3-.44,5.2,5.2,0,0,1,1.53.06,10.8,10.8,0,0,1,2.36.68,7.5,7.5,0,0,1,1.53.88l-0.79,1.93a11.84,11.84,0,0,0-1-.61,5.08,5.08,0,0,0-1.43-.45,1.77,1.77,0,0,0-1.57.22,2,2,0,0,0-.45,1.46l4.37,0.81v2.31l-4.37-.81v5.88l4.39,0.81v2.31C125.86,454.87,123.95,454.51,120.13,453.78Z"/><path d="M133,446.39a10.07,10.07,0,0,1,1.93-.3,10.8,10.8,0,0,1,2.6.19,6.42,6.42,0,0,1,1.85.59,3.94,3.94,0,0,1,1.23,1,3.55,3.55,0,0,1,.68,1.27,5.48,5.48,0,0,1,.21,1.55q0,1.07-.07,1.81t-0.07,1.33a9.19,9.19,0,0,0,0,1c0,0.2,0,.39.06,0.58l1.36,0.23v2.31l-3.5-.61L139,455.82l-0.1,0a2.79,2.79,0,0,1-1.18.92,3.63,3.63,0,0,1-2.07.11,4.21,4.21,0,0,1-2.47-1.28,3.44,3.44,0,0,1-.91-2.39,3,3,0,0,1,.32-1.46,2.09,2.09,0,0,1,.93-0.88,3.79,3.79,0,0,1,1.47-.35,8.47,8.47,0,0,1,1.92.14c0.25,0,.51.1,0.79,0.18l1,0.26a2.08,2.08,0,0,0,0-.41v-0.4a1.59,1.59,0,0,0-.46-1.22,2.58,2.58,0,0,0-1.34-.58,6.06,6.06,0,0,0-1.9-.07,10.46,10.46,0,0,0-1.43.29Zm3.55,8.34a2.27,2.27,0,0,0,1.48-.11,1.9,1.9,0,0,0,.72-0.66V452.7l-0.62-.2a7.84,7.84,0,0,0-.89-0.21,4.28,4.28,0,0,0-.78-0.07,2.3,2.3,0,0,0-.7.11,1.08,1.08,0,0,0-.5.32,0.86,0.86,0,0,0-.19.58,1.42,1.42,0,0,0,.34,1A1.89,1.89,0,0,0,136.57,454.73Z"/><path d="M155.05,458.94a5,5,0,0,1-2,.65,8.5,8.5,0,0,1-2.4-.07,7.57,7.57,0,0,1-2.41-.8,6.18,6.18,0,0,1-1.77-1.42,5.94,5.94,0,0,1-1.1-1.94A7.12,7.12,0,0,1,145,453a5.42,5.42,0,0,1,.44-2.28,3.89,3.89,0,0,1,1.22-1.54,4.32,4.32,0,0,1,1.85-.77,6.85,6.85,0,0,1,2.32,0,9.42,9.42,0,0,1,2.19.63,12.23,12.23,0,0,1,1.57.78v3.7l-2.3-.38v-1.93a6.44,6.44,0,0,0-1.29-.36,3.75,3.75,0,0,0-1.16,0,2.27,2.27,0,0,0-1.75,1.25,2.93,2.93,0,0,0-.28,1.36,3.57,3.57,0,0,0,.23,1.28,3.66,3.66,0,0,0,.65,1.09,3.74,3.74,0,0,0,1,.83,4.17,4.17,0,0,0,1.37.47,4.63,4.63,0,0,0,2,0,6.5,6.5,0,0,0,1.14-.4Z"/><path d="M158.61,452.32l-2.07-.33v-2.31l2.07,0.33v-2.39l2.72-.35v3.17l5.48,0.85v2.31l-5.48-.85v3a4.07,4.07,0,0,0,.61,2.44,2.49,2.49,0,0,0,1.69,1,3.48,3.48,0,0,0,1,0,3.35,3.35,0,0,0,.83-0.22,3.89,3.89,0,0,0,.67-0.36l0.55-.38,1.25,2.08a3.23,3.23,0,0,1-.89.63,6.27,6.27,0,0,1-1.15.43,6.47,6.47,0,0,1-1.29.21,6,6,0,0,1-1.32-.06,5.31,5.31,0,0,1-3.52-1.86,6.92,6.92,0,0,1-1.18-4.36v-3Z"/><path d="M169.46,456.94a6,6,0,0,1,.4-2.29,3.93,3.93,0,0,1,1.13-1.57,4,4,0,0,1,1.75-.82,6.43,6.43,0,0,1,2.27,0,7.22,7.22,0,0,1,2.36.74,5.94,5.94,0,0,1,1.75,1.37,5.69,5.69,0,0,1,1.08,1.91,7.2,7.2,0,0,1,.37,2.32,6,6,0,0,1-.4,2.3,4,4,0,0,1-1.13,1.58,4,4,0,0,1-1.75.83,6.36,6.36,0,0,1-2.27,0,7.15,7.15,0,0,1-2.35-.75,6,6,0,0,1-1.75-1.38,5.73,5.73,0,0,1-1.08-1.92A7.21,7.21,0,0,1,169.46,456.94Zm2.8,0.42a4.45,4.45,0,0,0,.19,1.31,3.75,3.75,0,0,0,.54,1.11,3,3,0,0,0,.86.81A2.93,2.93,0,0,0,175,461a2.35,2.35,0,0,0,2-.49,3,3,0,0,0,.76-2.35,4.09,4.09,0,0,0-.71-2.44,2.89,2.89,0,0,0-2-1.19,3.13,3.13,0,0,0-1.09,0,1.77,1.77,0,0,0-.87.45,2.34,2.34,0,0,0-.58.92A4.27,4.27,0,0,0,172.26,457.36Z"/><path d="M182.1,461.72l2.6,0.36V456.2l-2.6-.36v-2.31l4.71,0.65,0.31,1.43h0.08a4.55,4.55,0,0,1,1.34-1,3.06,3.06,0,0,1,1.76-.23,2.78,2.78,0,0,1,2,1.19,5.57,5.57,0,0,1,.72,3.18l-2.45-.32a2.3,2.3,0,0,0-.22-1.13,0.9,0.9,0,0,0-.7-0.44,1.89,1.89,0,0,0-1.35.24,3.48,3.48,0,0,0-.87.85v4.47l4.55,0.61c0,0.92,0,1.39,0,2.31-3.95-.52-5.92-0.79-9.87-1.35v-2.31Z"/><path d="M195.08,463.48l3.69,0.47v-5.88l-3.69-.47v-2.31l6.42,0.82c0,3.28,0,4.91,0,8.19l3.88,0.48v2.31c-4.12-.5-6.18-0.76-10.3-1.3v-2.31Zm3.19-10.64a1.3,1.3,0,0,1,.48-1.05,1.69,1.69,0,0,1,1.34-.29,2.32,2.32,0,0,1,1.41.64,1.64,1.64,0,0,1,.52,1.18,1.19,1.19,0,0,1-.52,1,2,2,0,0,1-1.41.25,2.2,2.2,0,0,1-1.34-.6A1.6,1.6,0,0,1,198.27,452.84Z"/><path d="M208.32,457.65a10.54,10.54,0,0,1,1.94-.42,10.88,10.88,0,0,1,2.61,0,6.2,6.2,0,0,1,1.86.48,3.64,3.64,0,0,1,1.24.89,3.28,3.28,0,0,1,.68,1.23,5.31,5.31,0,0,1,.21,1.54q0,1.07-.07,1.82t-0.07,1.34a9.09,9.09,0,0,0,0,1c0,0.19,0,.39.06,0.57l1.36,0.15v2.31l-3.52-.4-0.28-1.46h-0.1a3.06,3.06,0,0,1-1.19,1,3.73,3.73,0,0,1-2.09.23,4,4,0,0,1-2.48-1.13,3.23,3.23,0,0,1-.92-2.34,3.11,3.11,0,0,1,.32-1.48,2.29,2.29,0,0,1,.94-0.94,4,4,0,0,1,1.48-.43,8.52,8.52,0,0,1,1.93,0c0.25,0,.52.07,0.79,0.13l1,0.2a2.11,2.11,0,0,0,0-.42v-0.4a1.5,1.5,0,0,0-.46-1.2,2.46,2.46,0,0,0-1.35-.5,6.14,6.14,0,0,0-1.92,0,11,11,0,0,0-1.44.38Zm3.57,8.13a2.34,2.34,0,0,0,1.49-.19,2.08,2.08,0,0,0,.73-0.7v-1.26l-0.62-.17a7.66,7.66,0,0,0-.89-0.16,4.28,4.28,0,0,0-.79,0,2.41,2.41,0,0,0-.7.15,1.18,1.18,0,0,0-.5.35,0.9,0.9,0,0,0-.19.59,1.34,1.34,0,0,0,.34,1A1.79,1.79,0,0,0,211.89,465.78Z"/><path d="M220.85,454.17l4.47,0.48c0,3.88,0,5.82,0,9.7a4.77,4.77,0,0,0,.4,2.29,1.58,1.58,0,0,0,1.28.76,3.43,3.43,0,0,0,1.07,0,3.66,3.66,0,0,0,.84-0.3l1,2c-0.24.13-.48,0.25-0.71,0.36a4.15,4.15,0,0,1-.76.26,4.88,4.88,0,0,1-.87.12,6.84,6.84,0,0,1-1.06,0,4.4,4.4,0,0,1-3-1.32,4.3,4.3,0,0,1-1-3v-8.82l-1.74-.19v-2.31Z"/><path d="M241.19,475.38a10.62,10.62,0,0,1-2.86-1.19,9.59,9.59,0,0,1-2.46-2.11,10.11,10.11,0,0,1-1.71-3,11.45,11.45,0,0,1-.64-4,10.43,10.43,0,0,1,.64-3.83,8,8,0,0,1,1.71-2.72,7.45,7.45,0,0,1,2.46-1.67,9.68,9.68,0,0,1,2.86-.72l0.5,2.29a8.14,8.14,0,0,0-1.67.44,5.38,5.38,0,0,0-1.78,1.11,6.18,6.18,0,0,0-1.42,2.06,8.47,8.47,0,0,0,1.51,8.93,7.48,7.48,0,0,0,1.8,1.45,7.89,7.89,0,0,0,1.56.7Z"/><path d="M249.45,469.66a4.21,4.21,0,0,0,1.27-.07,2.72,2.72,0,0,0,1-.42,2.14,2.14,0,0,0,.64-0.7,1.82,1.82,0,0,0,.23-0.91,2.1,2.1,0,0,0-.26-1.08,2.16,2.16,0,0,0-.73-0.74,3.81,3.81,0,0,0-1.12-.45,9.24,9.24,0,0,0-1.41-.23l-1.18-.1v-1.51l3.53-4-5.32-.46c0-.92,0-1.39,0-2.31,3.43,0.31,5.15.45,8.58,0.74v1.91l-3.7,3.91,0.48,0a4.4,4.4,0,0,1,1.43.37,4,4,0,0,1,1.23.86,4.19,4.19,0,0,1,.86,1.33,4.57,4.57,0,0,1,.33,1.77,4.08,4.08,0,0,1-.49,2.06,4.24,4.24,0,0,1-1.31,1.41,5.06,5.06,0,0,1-1.86.77,7.52,7.52,0,0,1-2.17.12,11.07,11.07,0,0,1-1.89-.33,9.82,9.82,0,0,1-1.83-.69l0.74-2.2a3.25,3.25,0,0,0,.52.26l0.74,0.27a8.5,8.5,0,0,0,.84.24A6.07,6.07,0,0,0,249.45,469.66Z"/><path d="M259.38,474.66a6.72,6.72,0,0,0,1.56-.43,5.9,5.9,0,0,0,1.8-1.14,6.48,6.48,0,0,0,1.48-2.06,7.44,7.44,0,0,0,.61-3.21,8.85,8.85,0,0,0-.58-3.4,7.78,7.78,0,0,0-1.42-2.3,6.82,6.82,0,0,0-1.78-1.42,9.55,9.55,0,0,0-1.67-.73l0.51-2.21a11.32,11.32,0,0,1,2.86,1.21,9.52,9.52,0,0,1,2.46,2.1,10.06,10.06,0,0,1,1.72,3,11.32,11.32,0,0,1,.64,3.94,10.53,10.53,0,0,1-.64,3.86,8.07,8.07,0,0,1-1.72,2.73,7.5,7.5,0,0,1-2.46,1.68,9.15,9.15,0,0,1-2.86.7Z"/><path d="M599.89,449.22a5.26,5.26,0,0,1-.39,2,6.19,6.19,0,0,1-1.05,1.73,6.37,6.37,0,0,1-1.59,1.33,6,6,0,0,1-2,.75,5.58,5.58,0,0,1-2,0,3.65,3.65,0,0,1-1.66-.73,3.84,3.84,0,0,1-1.13-1.54,6,6,0,0,1-.42-2.36,10.62,10.62,0,0,1,.72-3.91,13.32,13.32,0,0,1,1.84-3.29,12.72,12.72,0,0,1,2.52-2.48,10.37,10.37,0,0,1,2.77-1.5l0.6,2a10,10,0,0,0-3.77,2.53,9,9,0,0,0-1.26,1.73,6.34,6.34,0,0,0-.7,1.83,4.2,4.2,0,0,1,1.25-1.12,5.23,5.23,0,0,1,1.83-.71,4.74,4.74,0,0,1,1.75,0,3.05,3.05,0,0,1,2.34,1.86A4.52,4.52,0,0,1,599.89,449.22Zm-2.62.6a1.79,1.79,0,0,0-.68-1.59,2.38,2.38,0,0,0-1.82-.25,3.54,3.54,0,0,0-1.5.66,3.49,3.49,0,0,0-1,1.06,4,4,0,0,0-.05.52c0,0.19,0,.34,0,0.45a2.58,2.58,0,0,0,.17.94,1.77,1.77,0,0,0,1.27,1.12,2.49,2.49,0,0,0,1.06,0,3,3,0,0,0,.94-0.35,3.45,3.45,0,0,0,.81-0.65,3.16,3.16,0,0,0,.57-0.87A2.54,2.54,0,0,0,597.27,449.82Z"/></svg>