<svg id="Layer_1" data-name="Layer 1" xmlns="http://www.w3.org/2000/svg" viewBox="0 0 720 576"><defs><style>.cls-1,.cls-2,.cls-4,.cls-6{fill:#231f20;}.cls-1,.cls-3{stroke:#231f20;}.cls-1,.cls-6{stroke-miterlimit:10;}.cls-2{stroke:#000;}.cls-2,.cls-3{stroke-linecap:round;stroke-linejoin:round;stroke-width:2px;}.cls-3,.cls-5{fill:#fff;}.cls-6{stroke:#fff;}</style></defs><title>Hanoi_Tower_Set_3</title><path class="cls-1" d="M652.65,529.72c0-.14,0-0.29,0-0.43s0-.29,0-0.43V477.06H60.82s-0.23,51.74-.23,52.22c0,2.67,2.12,5.24,6.08,7.71,13.87,8.61,50.58,16.11,101.74,21.48s116.73,8.59,188.22,8.59c81.71,0,155.68-4.21,209.24-11,26.78-3.41,48.45-7.46,63.44-12,7.5-2.25,13.32-4.62,17.29-7.08,3.38-2.1,5.41-4.29,5.94-6.55h0.1v-0.73Z"/><ellipse class="cls-2" cx="356.65" cy="478.15" rx="295.87" ry="37.63"/><path class="cls-3" d="M652.65,478.24c0-.14,0-0.29,0-0.43s0-.29,0-0.43V425.59H60.82s-0.23,51.74-.23,52.22c0,2.67,2.12,5.24,6.08,7.71,13.87,8.61,50.58,16.11,101.74,21.48s116.73,8.59,188.22,8.59c81.71,0,155.68-4.21,209.24-11,26.78-3.41,48.45-7.46,63.44-12,7.5-2.25,13.32-4.62,17.29-7.08,3.38-2.1,5.41-4.29,5.94-6.55h0.1v-0.73Z"/><ellipse class="cls-3" cx="356.65" cy="426.67" rx="295.87" ry="37.63"/><path class="cls-4" d="M356.64,435.44c-16,0-29-3.75-30.2-8.61h-0.08l0-.5V31.5H387V426.83h-0.12C385.61,431.7,372.62,435.44,356.64,435.44Z"/><path class="cls-5" d="M386.46,32V426.33h0c-0.49,4.78-13.63,8.61-29.79,8.61s-29.3-3.83-29.79-8.61h0v-0.21s0,0,0-.06,0,0,0-.06V32h59.63m1-1H325.83V426s0,0.07,0,.11v1.27h0.23c2,5.6,16.84,8.61,30.58,8.61s28.6-3,30.58-8.61h0.21l0-1V31h0Z"/><ellipse class="cls-6" cx="356.64" cy="32.11" rx="29.81" ry="8.89"/><path d="M87.9,476.33v-2.2l2.34,0.37c0-2.24,0-3.36,0-5.6l-2.37-.37v-2.2l2.37,0.37v-0.56a3.37,3.37,0,0,1,.33-1.57,2.6,2.6,0,0,1,.86-1,3,3,0,0,1,1.24-.46,5,5,0,0,1,1.46,0,10,10,0,0,1,2.26.58,6.86,6.86,0,0,1,1.46.79l-0.76,1.87a10.78,10.78,0,0,0-1-.55,4.73,4.73,0,0,0-1.36-.39,1.72,1.72,0,0,0-1.5.26,1.92,1.92,0,0,0-.43,1.4L97,467.75v2.2l-4.18-.64c0,2.24,0,3.36,0,5.6l4.2,0.65v2.2C93.37,477.19,91.55,476.91,87.9,476.33Z"/><path d="M100.21,468.91a9.81,9.81,0,0,1,1.84-.34,10.27,10.27,0,0,1,2.48.11,6,6,0,0,1,1.76.51,3.6,3.6,0,0,1,1.17.88,3.26,3.26,0,0,1,.65,1.2,5.15,5.15,0,0,1,.2,1.47q0,1-.07,1.73c0,0.47-.07.9-0.07,1.27a8.8,8.8,0,0,0,0,.95c0,0.19,0,.37.06,0.55l1.29,0.19v2.2l-3.34-.49-0.26-1.4h-0.1a2.76,2.76,0,0,1-1.13.9,3.5,3.5,0,0,1-2,.16,3.89,3.89,0,0,1-2.35-1.15,3.18,3.18,0,0,1-.87-2.25,2.92,2.92,0,0,1,.31-1.4,2.07,2.07,0,0,1,.89-0.87,3.69,3.69,0,0,1,1.4-.37,8,8,0,0,1,1.83.08q0.36,0.05.75,0.15l1,0.22a2,2,0,0,0,0-.39v-0.38a1.48,1.48,0,0,0-.43-1.16,2.41,2.41,0,0,0-1.28-.52,5.78,5.78,0,0,0-1.82,0,10.27,10.27,0,0,0-1.36.31Zm3.39,7.85a2.19,2.19,0,0,0,1.42-.14,1.89,1.89,0,0,0,.69-0.65v-1.2l-0.59-.18a7.21,7.21,0,0,0-.85-0.18,4,4,0,0,0-.75,0,2.21,2.21,0,0,0-.67.12,1.07,1.07,0,0,0-.47.32,0.84,0.84,0,0,0-.18.55,1.31,1.31,0,0,0,.32.92A1.75,1.75,0,0,0,103.59,476.76Z"/><path d="M121.23,480.31a4.9,4.9,0,0,1-1.91.66,8.09,8.09,0,0,1-2.29,0,7.1,7.1,0,0,1-2.3-.71A5.72,5.72,0,0,1,113,479a5.48,5.48,0,0,1-1-1.82,6.69,6.69,0,0,1-.36-2.21,5.23,5.23,0,0,1,.42-2.18,3.85,3.85,0,0,1,1.16-1.49,4.23,4.23,0,0,1,1.76-.78,6.52,6.52,0,0,1,2.21,0,8.78,8.78,0,0,1,2.09.55,11.12,11.12,0,0,1,1.49.71c0,1.41,0,2.11,0,3.52l-2.19-.31v-1.84a6,6,0,0,0-1.23-.31,3.59,3.59,0,0,0-1.1,0,2.24,2.24,0,0,0-1.67,1.23,2.83,2.83,0,0,0-.27,1.3,3.35,3.35,0,0,0,.22,1.21,3.35,3.35,0,0,0,1.6,1.8,3.91,3.91,0,0,0,1.3.41,4.45,4.45,0,0,0,1.86-.06,6.33,6.33,0,0,0,1.09-.41Z"/><path d="M124.61,473.94l-2-.27v-2.2l2,0.27v-2.28l2.59-.39v3l5.22,0.7c0,0.88,0,1.32,0,2.2l-5.22-.7c0,1.14,0,1.72,0,2.86a3.82,3.82,0,0,0,.58,2.31,2.31,2.31,0,0,0,1.61.91,3.32,3.32,0,0,0,1,0,3.2,3.2,0,0,0,.79-0.23,3.71,3.71,0,0,0,.64-0.36l0.53-.37,1.2,2a3.16,3.16,0,0,1-.85.62,6.25,6.25,0,0,1-2.32.66,5.71,5.71,0,0,1-1.26,0,4.94,4.94,0,0,1-3.36-1.7,6.47,6.47,0,0,1-1.13-4.12C124.61,475.65,124.61,475.08,124.61,473.94Z"/><path d="M135,478.12a5.78,5.78,0,0,1,.38-2.19,3.85,3.85,0,0,1,1.08-1.52,3.9,3.9,0,0,1,1.66-.81,6.11,6.11,0,0,1,2.16-.07,6.78,6.78,0,0,1,2.24.66,5.53,5.53,0,0,1,1.67,1.28,5.29,5.29,0,0,1,1,1.8,6.81,6.81,0,0,1,.35,2.2,5.82,5.82,0,0,1-.38,2.19,3.78,3.78,0,0,1-2.74,2.35,6.07,6.07,0,0,1-2.16.08,6.74,6.74,0,0,1-2.24-.67,5.54,5.54,0,0,1-1.66-1.28,5.31,5.31,0,0,1-1-1.8A6.8,6.8,0,0,1,135,478.12Zm2.67,0.35a4.19,4.19,0,0,0,.18,1.24,3.48,3.48,0,0,0,.52,1,2.82,2.82,0,0,0,.82.75,2.75,2.75,0,0,0,1.1.37,2.27,2.27,0,0,0,1.88-.5,2.9,2.9,0,0,0,.73-2.25,3.84,3.84,0,0,0-.68-2.32,2.69,2.69,0,0,0-1.93-1.09,3,3,0,0,0-1,0,1.73,1.73,0,0,0-.83.44,2.28,2.28,0,0,0-.55.89A4.09,4.09,0,0,0,137.63,478.46Z"/><path d="M147,482.44l2.47,0.3c0-2.24,0-3.36,0-5.6l-2.47-.3c0-.88,0-1.32,0-2.2l4.49,0.55,0.3,1.36h0.08a4.44,4.44,0,0,1,1.28-.95,2.94,2.94,0,0,1,1.68-.24,2.59,2.59,0,0,1,1.89,1.1,5.24,5.24,0,0,1,.69,3l-2.34-.27a2.16,2.16,0,0,0-.21-1.07,0.84,0.84,0,0,0-.67-0.41,1.81,1.81,0,0,0-1.29.25,3.38,3.38,0,0,0-.83.82c0,1.7,0,2.56,0,4.26l4.33,0.51v2.2c-3.76-.44-5.64-0.67-9.4-1.13C147,483.76,147,483.32,147,482.44Z"/><path d="M159.38,483.92l3.51,0.4c0-2.24,0-3.36,0-5.6l-3.51-.4v-2.2l6.11,0.7c0,3.12,0,4.68,0,7.8l3.69,0.41c0,0.88,0,1.32,0,2.2-3.92-.43-5.88-0.65-9.8-1.1v-2.2Zm3-10.17a1.26,1.26,0,0,1,.46-1,1.63,1.63,0,0,1,1.28-.29,2.18,2.18,0,0,1,1.34.59,1.54,1.54,0,0,1,.5,1.12,1.15,1.15,0,0,1-.5,1,1.89,1.89,0,0,1-1.34.26,2.06,2.06,0,0,1-1.28-.55A1.51,1.51,0,0,1,162.41,473.74Z"/><path d="M172,478.21a10.12,10.12,0,0,1,1.85-.42,10.33,10.33,0,0,1,2.49,0,5.85,5.85,0,0,1,1.77.44,3.4,3.4,0,0,1,1.18.83,3.09,3.09,0,0,1,.65,1.17,5,5,0,0,1,.2,1.46q0,1-.07,1.73c0,0.47-.07.9-0.07,1.27a8.71,8.71,0,0,0,0,.94c0,0.19,0,.37.06,0.55l1.3,0.13c0,0.88,0,1.32,0,2.2l-3.35-.35-0.26-1.39h-0.1a3,3,0,0,1-1.13,1,3.58,3.58,0,0,1-2,.24,3.73,3.73,0,0,1-2.36-1.05,3,3,0,0,1-.87-2.21,3,3,0,0,1,.31-1.42,2.2,2.2,0,0,1,.89-0.9,3.84,3.84,0,0,1,1.41-.43,8.07,8.07,0,0,1,1.84,0q0.36,0,.75.12l1,0.18a2,2,0,0,0,0-.4v-0.38a1.42,1.42,0,0,0-.44-1.14,2.32,2.32,0,0,0-1.29-.47,5.84,5.84,0,0,0-1.83.07,10.65,10.65,0,0,0-1.37.37Zm3.4,7.7a2.24,2.24,0,0,0,1.42-.2,2,2,0,0,0,.69-0.68v-1.2l-0.59-.15a7.06,7.06,0,0,0-.85-0.14,4,4,0,0,0-.75,0,2.29,2.29,0,0,0-.67.15,1.13,1.13,0,0,0-.47.34,0.86,0.86,0,0,0-.18.56,1.26,1.26,0,0,0,.33.91A1.69,1.69,0,0,0,175.38,485.91Z"/><path d="M183.9,474.77l4.26,0.42c0,3.7,0,5.54,0,9.24a4.53,4.53,0,0,0,.38,2.18,1.5,1.5,0,0,0,1.22.72,3.27,3.27,0,0,0,1,0,3.51,3.51,0,0,0,.8-0.29l1,1.89-0.68.34a4,4,0,0,1-.72.25,4.63,4.63,0,0,1-.83.12,6.51,6.51,0,0,1-1,0,4.16,4.16,0,0,1-2.82-1.24,4.07,4.07,0,0,1-.94-2.81c0-3.36,0-5,0-8.4L183.9,477C183.9,476.09,183.9,475.65,183.9,474.77Z"/><path d="M203.26,494.86a10.1,10.1,0,0,1-2.72-1.13,9.09,9.09,0,0,1-2.34-2,9.53,9.53,0,0,1-1.63-2.87,10.88,10.88,0,0,1-.61-3.78,10,10,0,0,1,.61-3.65,7.68,7.68,0,0,1,1.63-2.6,7.12,7.12,0,0,1,2.34-1.6,9.19,9.19,0,0,1,2.72-.69l0.48,2.18a7.76,7.76,0,0,0-1.59.43,5.13,5.13,0,0,0-1.69,1.07,5.92,5.92,0,0,0-1.35,2,8,8,0,0,0,1.44,8.5,7.11,7.11,0,0,0,1.71,1.38,7.47,7.47,0,0,0,1.48.66Z"/><path d="M211.12,489.39a4,4,0,0,0,1.21-.07,2.6,2.6,0,0,0,.94-0.4,2,2,0,0,0,.61-0.67,1.73,1.73,0,0,0,.22-0.87,2,2,0,0,0-.25-1,2,2,0,0,0-.69-0.71,3.6,3.6,0,0,0-1.06-.43,8.76,8.76,0,0,0-1.34-.21l-1.12-.1v-1.44l3.36-3.82-5.06-.43V477l8.16,0.69v1.82l-3.52,3.73,0.46,0a4.17,4.17,0,0,1,1.36.35,3.8,3.8,0,0,1,1.17.82,4,4,0,0,1,.82,1.27,4.35,4.35,0,0,1,.31,1.69,3.88,3.88,0,0,1-.47,2,4.05,4.05,0,0,1-1.24,1.35,4.83,4.83,0,0,1-1.77.73,7.16,7.16,0,0,1-2.06.12,10.57,10.57,0,0,1-1.8-.31,9.36,9.36,0,0,1-1.74-.65l0.7-2.1a3,3,0,0,0,.49.24l0.7,0.26a8,8,0,0,0,.8.23A5.76,5.76,0,0,0,211.12,489.39Z"/><path d="M220.57,494.14a6.38,6.38,0,0,0,1.48-.41,5.62,5.62,0,0,0,1.71-1.09,6.17,6.17,0,0,0,1.41-2,7.08,7.08,0,0,0,.58-3.06,8.45,8.45,0,0,0-.55-3.24,7.45,7.45,0,0,0-1.35-2.2,6.51,6.51,0,0,0-1.69-1.35,9.12,9.12,0,0,0-1.59-.7L221,478a10.73,10.73,0,0,1,2.72,1.15,9.07,9.07,0,0,1,2.34,2,9.58,9.58,0,0,1,1.63,2.87,10.8,10.8,0,0,1,.61,3.76,10,10,0,0,1-.61,3.67,7.64,7.64,0,0,1-1.63,2.6,7.15,7.15,0,0,1-2.34,1.6,8.74,8.74,0,0,1-2.72.67Z"/><path d="M625.41,472a4.91,4.91,0,0,1-.37,1.88,5.68,5.68,0,0,1-1,1.62,5.83,5.83,0,0,1-1.52,1.22,5.57,5.57,0,0,1-1.9.66,5.36,5.36,0,0,1-1.94,0,3.61,3.61,0,0,1-1.58-.75,3.83,3.83,0,0,1-1.07-1.5,5.78,5.78,0,0,1-.4-2.26,9.93,9.93,0,0,1,.69-3.71,12.19,12.19,0,0,1,1.76-3.08,11.52,11.52,0,0,1,2.41-2.29,9.51,9.51,0,0,1,2.64-1.34l0.58,2a9.12,9.12,0,0,0-3.6,2.3,8.26,8.26,0,0,0-1.2,1.61,5.88,5.88,0,0,0-.67,1.72,3.82,3.82,0,0,1,1.19-1,4.84,4.84,0,0,1,1.75-.62,4.53,4.53,0,0,1,1.67,0,3,3,0,0,1,2.24,1.84A4.38,4.38,0,0,1,625.41,472Zm-2.5.49a1.76,1.76,0,0,0-.65-1.54,2.31,2.31,0,0,0-1.74-.29,3.27,3.27,0,0,0-1.43.58,3.19,3.19,0,0,0-.93,1,3.54,3.54,0,0,0,0,.5c0,0.18,0,.32,0,0.43a2.49,2.49,0,0,0,.16.9,1.76,1.76,0,0,0,1.21,1.1,2.4,2.4,0,0,0,1,0,2.75,2.75,0,0,0,.9-0.31,3.17,3.17,0,0,0,.77-0.59,2.9,2.9,0,0,0,.55-0.82A2.37,2.37,0,0,0,622.91,472.48Z"/></svg>