<svg id="Layer_1" data-name="Layer 1" xmlns="http://www.w3.org/2000/svg" viewBox="0 0 720 576"><defs><style>.cls-1,.cls-2,.cls-4,.cls-6{fill:#231f20;}.cls-1,.cls-3{stroke:#231f20;}.cls-1,.cls-6{stroke-miterlimit:10;}.cls-1,.cls-2,.cls-3{stroke-width:2px;}.cls-2{stroke:#000;}.cls-2,.cls-3{stroke-linecap:round;stroke-linejoin:round;}.cls-3,.cls-5{fill:#fff;}.cls-6{stroke:#fff;}</style></defs><title>Hanoi_Tower_Set_1</title><path class="cls-1" d="M655.56,506.49c0-.14,0-0.29,0-0.43s0-.29,0-0.43V453.84H63.73s-0.23,51.74-.23,52.22c0,2.67,2.12,5.24,6.08,7.71,13.87,8.61,50.58,16.11,101.74,21.48s116.73,8.59,188.22,8.59c81.71,0,155.68-4.21,209.24-11,26.78-3.41,48.45-7.46,63.44-12,7.5-2.25,13.32-4.62,17.29-7.08,3.38-2.1,5.41-4.29,5.94-6.55h0.1v-0.73Z"/><ellipse class="cls-2" cx="359.55" cy="454.92" rx="295.87" ry="37.63"/><path class="cls-3" d="M655.56,455c0-.14,0-0.29,0-0.43s0-.29,0-0.43V402.36H63.73s-0.23,51.74-.23,52.22c0,2.67,2.12,5.24,6.08,7.71,13.87,8.61,50.58,16.11,101.74,21.48s116.73,8.59,188.22,8.59c81.71,0,155.68-4.21,209.24-11,26.78-3.41,48.45-7.46,63.44-12,7.5-2.25,13.32-4.62,17.29-7.08,3.38-2.1,5.41-4.29,5.94-6.55h0.1V455Z"/><ellipse class="cls-3" cx="359.55" cy="403.44" rx="295.87" ry="37.63"/><path class="cls-4" d="M359.54,412.22c-16,0-29-3.75-30.2-8.61h-0.08l0-.5V8.27h60.63V403.6h-0.12C388.52,408.47,375.52,412.22,359.54,412.22Z"/><path class="cls-5" d="M389.37,8.77V403.1h0c-0.49,4.78-13.63,8.61-29.79,8.61s-29.3-3.83-29.79-8.61h0v-0.21s0,0,0-.06,0,0,0-.06V8.77h59.63m1-1H328.74v395s0,0.07,0,.11v1.27H329c2,5.6,16.84,8.61,30.58,8.61s28.6-3,30.58-8.61h0.21l0-1V7.77h0Z"/><ellipse class="cls-6" cx="359.54" cy="8.89" rx="29.81" ry="8.89"/><path class="cls-4" d="M112,456.27v-2.53l2.7,0.38v-6.44l-2.72-.39v-2.53l2.72,0.39v-0.64a3.91,3.91,0,0,1,.38-1.81,3,3,0,0,1,1-1.15,3.49,3.49,0,0,1,1.43-.55,5.74,5.74,0,0,1,1.68,0,11.45,11.45,0,0,1,2.6.62,7.75,7.75,0,0,1,1.68.88l-0.87,2.16a12,12,0,0,0-1.13-.61,5.39,5.39,0,0,0-1.57-.42,2,2,0,0,0-1.73.32,2.24,2.24,0,0,0-.49,1.62l4.81,0.66v2.53l-4.81-.66c0,2.58,0,3.86,0,6.44l4.83,0.66v2.53C118.26,457.16,116.15,456.87,112,456.27Z"/><path class="cls-4" d="M131.62,447.46l4.26,0.55c0,3.2,0,4.8,0,8v1l1.74,0.22v2.53l-3.62-.46-0.53-1.77h-0.09a3.35,3.35,0,0,1-1.58,1.24,4.48,4.48,0,0,1-2.34.27,5.64,5.64,0,0,1-1.59-.44,3.43,3.43,0,0,1-1.23-.92,4.16,4.16,0,0,1-.78-1.53,8.22,8.22,0,0,1-.27-2.29c0-1.85,0-2.77,0-4.62l-1.31-.18v-2.53l4.28,0.57c0,2.61,0,3.92,0,6.53a3.85,3.85,0,0,0,.45,2.08,1.88,1.88,0,0,0,1.41.81,2.31,2.31,0,0,0,2.47-1.42v-4.9l-1.28-.17v-2.53Z"/><path class="cls-4" d="M139.8,443.91l4.88,0.61c0,4.25,0,6.38,0,10.63a5.28,5.28,0,0,0,.44,2.51,1.77,1.77,0,0,0,1.4.86,3.74,3.74,0,0,0,1.17,0,3.92,3.92,0,0,0,.92-0.31l1.12,2.21q-0.39.21-.78,0.38a4.47,4.47,0,0,1-.83.27,5.23,5.23,0,0,1-1,.11,7.49,7.49,0,0,1-1.16-.06,4.89,4.89,0,0,1-3.23-1.5,4.79,4.79,0,0,1-1.08-3.26c0-3.86,0-5.8,0-9.66l-1.9-.24v-2.53Z"/><path class="cls-4" d="M153.56,445.59l4.89,0.57c0,4.25,0,6.38,0,10.63a5.26,5.26,0,0,0,.44,2.51,1.75,1.75,0,0,0,1.4.85,3.75,3.75,0,0,0,1.17,0,4,4,0,0,0,.92-0.32l1.12,2.2q-0.39.21-.78,0.38a4.5,4.5,0,0,1-.83.27,5.26,5.26,0,0,1-1,.12,7.49,7.49,0,0,1-1.16-.05,4.85,4.85,0,0,1-3.23-1.48,4.75,4.75,0,0,1-1.08-3.25c0-3.86,0-5.8,0-9.66l-1.9-.22C153.56,447.11,153.56,446.6,153.56,445.59Z"/><path class="cls-4" d="M167.12,465.93c4.08,0.45,6.12.67,10.19,1.09v2.46c-4.08-.43-6.12-0.64-10.19-1.09C167.12,467.4,167.12,466.91,167.12,465.93Z"/><path class="cls-4" d="M179.38,453l4,0.41,0.34,1.55h0.09a4,4,0,0,1,1.52-1.14,4.54,4.54,0,0,1,2.37-.32,5.72,5.72,0,0,1,1.6.39,3.46,3.46,0,0,1,1.28.88,4.16,4.16,0,0,1,.84,1.52,7.29,7.29,0,0,1,.31,2.27v7.15l-3-.29c0-2.61,0-3.92,0-6.53a3,3,0,0,0-.63-2.09,2.42,2.42,0,0,0-1.6-.78,2.45,2.45,0,0,0-1.55.34,2.15,2.15,0,0,0-1,1.14V465l-3-.3c0-3.59,0-5.38,0-9l-1.65-.17V453Z"/><path class="cls-4" d="M195,455.36a11.67,11.67,0,0,1,2.13-.51,11.9,11.9,0,0,1,2.86,0,6.67,6.67,0,0,1,2,.47,3.84,3.84,0,0,1,1.36.94,3.48,3.48,0,0,1,.75,1.33,5.75,5.75,0,0,1,.23,1.68q0,1.17-.08,2t-0.08,1.46a10,10,0,0,0,0,1.09c0,0.21.05,0.43,0.07,0.63l1.49,0.13v2.53l-3.86-.34-0.3-1.59h-0.11a3.47,3.47,0,0,1-1.3,1.11,4.13,4.13,0,0,1-2.28.31,4.23,4.23,0,0,1-2.72-1.17,3.79,3.79,0,0,1-.65-4.17,2.59,2.59,0,0,1,1-1.05,4.47,4.47,0,0,1,1.62-.52,9.33,9.33,0,0,1,2.11,0q0.41,0,.87.13l1.12,0.19a2.31,2.31,0,0,0,0-.46V459a1.61,1.61,0,0,0-.5-1.3,2.63,2.63,0,0,0-1.48-.51,6.73,6.73,0,0,0-2.1.11,12.37,12.37,0,0,0-1.57.45Zm3.91,8.8a2.6,2.6,0,0,0,1.64-.25,2.36,2.36,0,0,0,.8-0.79v-1.38l-0.68-.17a8.1,8.1,0,0,0-1-.15,4.66,4.66,0,0,0-.86,0,2.68,2.68,0,0,0-.77.18,1.32,1.32,0,0,0-.55.4,1,1,0,0,0-.2.65,1.43,1.43,0,0,0,.37,1A1.91,1.91,0,0,0,198.87,464.16Z"/><path class="cls-4" d="M212.22,467.62v-7a5.61,5.61,0,0,0-.09-1.12,2.33,2.33,0,0,0-.24-0.69,0.83,0.83,0,0,0-.37-0.35,1.36,1.36,0,0,0-.45-0.12,1.13,1.13,0,0,0-1.17.8v8.33l-2.76-.24v-11.5l2.18,0.19,0.32,1.29h0.07a2.49,2.49,0,0,1,1-1,2.69,2.69,0,0,1,1.56-.29,3.25,3.25,0,0,1,1.45.49,2.19,2.19,0,0,1,.94,1.37,2.28,2.28,0,0,1,1.06-1.14,2.8,2.8,0,0,1,1.54-.3,3.53,3.53,0,0,1,1.12.26,2.2,2.2,0,0,1,.86.68,3.28,3.28,0,0,1,.56,1.23,8,8,0,0,1,.2,1.94v7.87l-2.76-.22c0-2.94,0-4.42,0-7.36a2.5,2.5,0,0,0-.33-1.48,1.11,1.11,0,0,0-.82-0.48,1.21,1.21,0,0,0-.71.14,0.92,0.92,0,0,0-.41.6v8.39Z"/><path class="cls-4" d="M232.77,468a3.7,3.7,0,0,1-.77.48,6.91,6.91,0,0,1-1.1.41,8.12,8.12,0,0,1-1.39.26,8.8,8.8,0,0,1-1.61,0,8.14,8.14,0,0,1-2.63-.61,5.75,5.75,0,0,1-3.2-3.37,7.37,7.37,0,0,1-.43-2.57,6.48,6.48,0,0,1,.48-2.62,4.76,4.76,0,0,1,1.32-1.79,5,5,0,0,1,2-1,7.43,7.43,0,0,1,2.44-.19,7.84,7.84,0,0,1,1.81.37,5.4,5.4,0,0,1,1.71.92,4.73,4.73,0,0,1,1.28,1.6,5.35,5.35,0,0,1,.49,2.43,10.7,10.7,0,0,1-.23,2.12l-8.28-.62a2.8,2.8,0,0,0,.31,1.27,2.74,2.74,0,0,0,.76.89,3.58,3.58,0,0,0,1.08.55,5.56,5.56,0,0,0,1.3.25,6.55,6.55,0,0,0,2.27-.15,4.38,4.38,0,0,0,1.44-.68Zm-5-8.58a3.7,3.7,0,0,0-1.13.08,2.89,2.89,0,0,0-1,.41,2.35,2.35,0,0,0-.7.73,2.28,2.28,0,0,0-.32,1l5.66,0.43A2.48,2.48,0,0,0,227.8,459.43Z"/><path class="cls-4" d="M472.18,470.19c0-1,0-1.52,0-2.53l2.72-.18V461l-2.74.18v-2.53l2.74-.18v-0.64a4.39,4.39,0,0,1,.38-1.89,4.11,4.11,0,0,1,1-1.35,4.46,4.46,0,0,1,1.44-.84,6.19,6.19,0,0,1,1.69-.36,10.62,10.62,0,0,1,2.61.08,6.26,6.26,0,0,1,1.69.54l-0.87,2.34a9.69,9.69,0,0,0-1.14-.38,4.92,4.92,0,0,0-1.58-.1,2.38,2.38,0,0,0-1.74.68,2.64,2.64,0,0,0-.49,1.72l4.83-.33v2.53l-4.83.33v6.44l4.86-.33v2.53C478.52,469.78,476.4,469.92,472.18,470.19Z"/><path class="cls-4" d="M485.71,466.74l4-.3V460l-4,.3v-2.53l7-.52v9l4.26-.33c0,1,0,1.52,0,2.53-4.52.35-6.78,0.52-11.3,0.85v-2.53Zm3.5-12.35a1.75,1.75,0,0,1,.53-1.26,2.2,2.2,0,0,1,1.47-.62,2.12,2.12,0,0,1,1.54.39,1.44,1.44,0,0,1,.58,1.17,1.61,1.61,0,0,1-.58,1.25,2.52,2.52,0,0,1-1.54.59,2,2,0,0,1-1.47-.36A1.43,1.43,0,0,1,489.21,454.38Z"/><path class="cls-4" d="M499.06,465.73l2.85-.23v-6.44l-2.85.23c0-1,0-1.52,0-2.53l5.17-.42,0.34,1.49h0.09a6.9,6.9,0,0,1,1.47-1.39,3.9,3.9,0,0,1,1.93-.67,2.4,2.4,0,0,1,2.17.83,5.25,5.25,0,0,1,.79,3.31l-2.69.23a2.2,2.2,0,0,0-.24-1.19,0.78,0.78,0,0,0-.77-0.31,2.46,2.46,0,0,0-1.48.58,5.26,5.26,0,0,0-1,1.14c0,2,0,2.94,0,4.9l5-.42v2.53c-4.33.37-6.5,0.55-10.83,0.9C499.06,467.24,499.06,466.74,499.06,465.73Z"/><path class="cls-4" d="M521.2,463.18a0.74,0.74,0,0,0-.56-0.68,7.56,7.56,0,0,0-1.39-.38l-1.82-.31a7.55,7.55,0,0,1-1.82-.5,4,4,0,0,1-1.39-1,2.32,2.32,0,0,1-.56-1.64,3.07,3.07,0,0,1,.38-1.53,3.91,3.91,0,0,1,1-1.18,5.37,5.37,0,0,1,1.56-.82,8.37,8.37,0,0,1,2-.41,10.68,10.68,0,0,1,2,0,9.09,9.09,0,0,1,1.48.25,5,5,0,0,1,1.08.42l0.77,0.45L522.65,458q-0.35-.17-0.79-0.35a9.59,9.59,0,0,0-.94-0.32,6.92,6.92,0,0,0-1-.2,5.05,5.05,0,0,0-1.07,0,4.29,4.29,0,0,0-1.56.39,0.93,0.93,0,0,0-.6.84,0.69,0.69,0,0,0,.56.62,8.53,8.53,0,0,0,1.39.34l1.82,0.31a8.92,8.92,0,0,1,1.82.49,3.82,3.82,0,0,1,1.39.92,2.23,2.23,0,0,1,.56,1.6,3.65,3.65,0,0,1-1.28,2.87,6.52,6.52,0,0,1-3.78,1.35,8.66,8.66,0,0,1-3.41-.28,7.07,7.07,0,0,1-2.31-1.16l1.38-2.28a6.24,6.24,0,0,0,.79.49,6.54,6.54,0,0,0,1.12.46,8.84,8.84,0,0,0,1.32.31,5.7,5.7,0,0,0,1.39,0,3.09,3.09,0,0,0,1.26-.37A1,1,0,0,0,521.2,463.18Z"/><path class="cls-4" d="M528.41,456.7l-2.28.22v-2.53l2.28-.22c0-1,0-1.57,0-2.62l3-1.14c0,1.39,0,2.08,0,3.47l6-.6v2.53l-6,.6v3.29a3.69,3.69,0,0,0,.67,2.5,2.09,2.09,0,0,0,1.86.61,4.18,4.18,0,0,0,1.13-.26,4.76,4.76,0,0,0,.91-0.47,6,6,0,0,0,.74-0.58l0.61-.57,1.38,1.93a5.15,5.15,0,0,1-1,.94,9.48,9.48,0,0,1-1.26.8,8.79,8.79,0,0,1-1.41.59,7,7,0,0,1-1.45.31,4.55,4.55,0,0,1-3.87-1.06q-1.3-1.31-1.3-4.44V456.7Z"/><path class="cls-4" d="M541.32,467.07c4.08-.42,6.12-0.64,10.19-1.09,0,1,0,1.48,0,2.46-4.08.45-6.12,0.67-10.19,1.09v-2.46Z"/><path class="cls-4" d="M553.58,451.56l4-.45,0.34,1.48H558a5.39,5.39,0,0,1,1.51-1.46,5.67,5.67,0,0,1,4-.78,2.63,2.63,0,0,1,1.27.61,3.16,3.16,0,0,1,.84,1.34,6.68,6.68,0,0,1,.31,2.21v7.15l-3,.35v-6.53a2.49,2.49,0,0,0-.63-1.95,2,2,0,0,0-1.59-.44,2.93,2.93,0,0,0-1.55.67,2.9,2.9,0,0,0-1,1.34v7.45l-3,.34v-9l-1.65.18v-2.53Z"/><path class="cls-4" d="M569.14,450.54a14.14,14.14,0,0,1,2.12-1,12.79,12.79,0,0,1,2.85-.65,6.13,6.13,0,0,1,2,0,2.9,2.9,0,0,1,1.35.65,2.63,2.63,0,0,1,.75,1.17,5.28,5.28,0,0,1,.23,1.63q0,1.17-.08,2t-0.08,1.48a9.73,9.73,0,0,0,0,1.08c0,0.21.05,0.42,0.07,0.61l1.49-.19v2.53l-3.85.48-0.3-1.53h-0.11a4.51,4.51,0,0,1-3.58,2.19,3.51,3.51,0,0,1-2.71-.59,2.79,2.79,0,0,1-1-2.32,4,4,0,0,1,.35-1.71,3.53,3.53,0,0,1,1-1.27,5.59,5.59,0,0,1,1.62-.86,10,10,0,0,1,2.11-.48c0.27,0,.56-0.05.87-0.06l1.12,0a2.46,2.46,0,0,0,0-.47v-0.44a1.3,1.3,0,0,0-.5-1.19,2.26,2.26,0,0,0-1.48-.2,7.39,7.39,0,0,0-2.09.55,15.32,15.32,0,0,0-1.57.79Zm3.9,8a3,3,0,0,0,1.63-.6,3.24,3.24,0,0,0,.79-1v-1.38l-0.68,0a7.84,7.84,0,0,0-1,.06,5,5,0,0,0-.86.19,3.23,3.23,0,0,0-.77.35,1.8,1.8,0,0,0-.54.51,1.2,1.2,0,0,0-.2.69,1.17,1.17,0,0,0,.37,1A1.62,1.62,0,0,0,573,458.51Z"/><path class="cls-4" d="M586.35,459.1v-7a5.36,5.36,0,0,0-.09-1.1,1.9,1.9,0,0,0-.24-0.64,0.61,0.61,0,0,0-.37-0.27,1.23,1.23,0,0,0-.45,0,1.33,1.33,0,0,0-.72.35,1.46,1.46,0,0,0-.45.7v8.33l-2.75.35v-11.5l2.18-.28,0.32,1.22h0.07a3.39,3.39,0,0,1,1-1.22,3.17,3.17,0,0,1,1.56-.63,2.82,2.82,0,0,1,1.44.18,1.63,1.63,0,0,1,.94,1.16,3.1,3.1,0,0,1,1.05-1.37,3.3,3.3,0,0,1,1.53-.63,3.24,3.24,0,0,1,1.11,0,1.64,1.64,0,0,1,.86.49,2.57,2.57,0,0,1,.56,1.11,7.51,7.51,0,0,1,.19,1.89v7.87l-2.75.37v-7.36a2.17,2.17,0,0,0-.33-1.4,0.88,0.88,0,0,0-.81-0.31,1.43,1.43,0,0,0-.71.29,1.22,1.22,0,0,0-.41.69v8.39Z"/><path class="cls-4" d="M606.8,455.1a5,5,0,0,1-.77.65,8.78,8.78,0,0,1-1.1.65,9.6,9.6,0,0,1-1.38.56,9.43,9.43,0,0,1-1.6.36,7.45,7.45,0,0,1-2.62-.05,4.26,4.26,0,0,1-3.18-2.68,6.66,6.66,0,0,1-.42-2.48,7.28,7.28,0,0,1,.48-2.72,6.4,6.4,0,0,1,1.32-2.08,6.63,6.63,0,0,1,2-1.41,8.26,8.26,0,0,1,2.43-.72,7.3,7.3,0,0,1,1.8,0,4.26,4.26,0,0,1,1.71.55,3.46,3.46,0,0,1,1.27,1.33,4.72,4.72,0,0,1,.49,2.32,11.5,11.5,0,0,1-.23,2.17l-8.24,1.15a2.42,2.42,0,0,0,.31,1.2,2,2,0,0,0,.76.72,2.86,2.86,0,0,0,1.08.32,5.26,5.26,0,0,0,1.29,0,7.24,7.24,0,0,0,2.25-.64,5.74,5.74,0,0,0,1.43-1Zm-4.94-7.52a4.09,4.09,0,0,0-1.12.32,3.73,3.73,0,0,0-.95.61,3.19,3.19,0,0,0-.7.88,2.7,2.7,0,0,0-.32,1.1l5.63-.78a2.23,2.23,0,0,0-.63-1.73A2.26,2.26,0,0,0,601.86,447.59Z"/></svg>