<svg id="Layer_1" data-name="Layer 1" xmlns="http://www.w3.org/2000/svg" viewBox="0 0 720 576"><defs><style>.cls-1,.cls-2,.cls-4,.cls-6{fill:#231f20;}.cls-1,.cls-3{stroke:#231f20;}.cls-1,.cls-6{stroke-miterlimit:10;}.cls-1,.cls-2,.cls-3{stroke-width:2px;}.cls-2{stroke:#000;}.cls-2,.cls-3{stroke-linecap:round;stroke-linejoin:round;}.cls-3,.cls-5{fill:#fff;}.cls-6{stroke:#fff;}</style></defs><title>Hanoi_Tower_Set_4</title><path class="cls-1" d="M656,506.49c0-.14,0-0.29,0-0.43s0-.29,0-0.43V453.84H64.18s-0.23,51.74-.23,52.22c0,2.67,2.12,5.24,6.08,7.71,13.87,8.61,50.58,16.11,101.74,21.48S288.5,543.84,360,543.84c81.71,0,155.68-4.21,209.24-11,26.78-3.41,48.45-7.46,63.44-12,7.5-2.25,13.32-4.62,17.29-7.08,3.38-2.1,5.41-4.29,5.94-6.55H656v-0.73Z"/><ellipse class="cls-2" cx="360" cy="454.92" rx="295.87" ry="37.63"/><path class="cls-3" d="M656,455c0-.14,0-0.29,0-0.43s0-.29,0-0.43V402.36H64.18s-0.23,51.74-.23,52.22c0,2.67,2.12,5.24,6.08,7.71,13.87,8.61,50.58,16.11,101.74,21.48S288.5,492.36,360,492.36c81.71,0,155.68-4.21,209.24-11,26.78-3.41,48.45-7.46,63.44-12,7.5-2.25,13.32-4.62,17.29-7.08,3.38-2.1,5.41-4.29,5.94-6.55H656V455Z"/><ellipse class="cls-3" cx="360" cy="403.44" rx="295.87" ry="37.63"/><path class="cls-3" d="M656,403.53c0-.14,0-0.29,0-0.43s0-.29,0-0.43V350.88H64.18s-0.23,51.74-.23,52.22c0,2.67,2.12,5.24,6.08,7.71,13.87,8.61,50.58,16.11,101.74,21.48S288.5,440.88,360,440.88c81.71,0,155.68-4.21,209.24-11,26.78-3.41,48.45-7.46,63.44-12,7.5-2.25,13.32-4.62,17.29-7.08,3.38-2.1,5.41-4.29,5.94-6.55H656v-0.73Z"/><ellipse class="cls-3" cx="360" cy="351.97" rx="295.87" ry="37.63"/><path class="cls-4" d="M360,360.22c-16,0-29-3.75-30.2-8.61h-0.08l0-.5V8.27h60.63V351.6H390.2C389,356.47,376,360.22,360,360.22Z"/><path class="cls-5" d="M389.82,8.77V351.1h0c-0.49,4.78-13.63,8.61-29.79,8.61s-29.3-3.83-29.79-8.61h0v-0.21s0,0,0-.06,0,0,0-.06V8.77h59.63m1-1H329.19v343s0,0.07,0,.11v1.27h0.23c2,5.6,16.84,8.61,30.58,8.61s28.6-3,30.58-8.61h0.21l0-1V7.77h0Z"/><ellipse class="cls-6" cx="359.99" cy="8.89" rx="29.81" ry="8.89"/><path d="M72.82,397.78v-2.31l2.46,0.47v-5.88l-2.48-.47v-2.31l2.48,0.47v-0.59a3.47,3.47,0,0,1,.34-1.64,2.59,2.59,0,0,1,.91-1,3,3,0,0,1,1.3-.44,5.18,5.18,0,0,1,1.53.07,10.78,10.78,0,0,1,2.36.68,7.51,7.51,0,0,1,1.53.88l-0.79,1.93a11.9,11.9,0,0,0-1-.61,5.07,5.07,0,0,0-1.43-.45,1.77,1.77,0,0,0-1.57.22,2,2,0,0,0-.45,1.46l4.37,0.81v2.31L78,390.56v5.88l4.39,0.82v2.31C78.55,398.87,76.64,398.51,72.82,397.78Z"/><path d="M85.71,390.39a10,10,0,0,1,1.93-.3,10.76,10.76,0,0,1,2.59.19,6.44,6.44,0,0,1,1.85.59,3.94,3.94,0,0,1,1.23,1,3.53,3.53,0,0,1,.68,1.27,5.48,5.48,0,0,1,.21,1.55q0,1.07-.07,1.81T94,397.81a9.42,9.42,0,0,0,0,1c0,0.2,0,.39.06,0.58l1.36,0.24v2.31l-3.5-.62-0.27-1.48-0.1,0a2.78,2.78,0,0,1-1.18.91,3.63,3.63,0,0,1-2.07.1,4.22,4.22,0,0,1-2.47-1.29,3.44,3.44,0,0,1-.91-2.39,3,3,0,0,1,.32-1.46,2.08,2.08,0,0,1,.93-0.88,3.77,3.77,0,0,1,1.47-.34,8.47,8.47,0,0,1,1.92.14c0.25,0,.51.11,0.79,0.18l1,0.26a2.08,2.08,0,0,0,0-.41v-0.4A1.6,1.6,0,0,0,91,393a2.59,2.59,0,0,0-1.35-.59,6,6,0,0,0-1.9-.07,10.5,10.5,0,0,0-1.43.29Zm3.55,8.35a2.27,2.27,0,0,0,1.48-.1,1.9,1.9,0,0,0,.72-0.66v-1.26l-0.62-.2a7.8,7.8,0,0,0-.89-0.21,4.25,4.25,0,0,0-.78-0.07,2.29,2.29,0,0,0-.7.1,1.07,1.07,0,0,0-.49.32,0.86,0.86,0,0,0-.19.57,1.42,1.42,0,0,0,.34,1A1.9,1.9,0,0,0,89.25,398.74Z"/><path d="M107.73,403a5,5,0,0,1-2,.64,8.5,8.5,0,0,1-2.4-.08,7.59,7.59,0,0,1-2.41-.81,6.23,6.23,0,0,1-1.77-1.43,6,6,0,0,1-1.1-1.94,7.14,7.14,0,0,1-.38-2.33,5.41,5.41,0,0,1,.44-2.28,3.87,3.87,0,0,1,1.22-1.53,4.29,4.29,0,0,1,1.85-.76,6.84,6.84,0,0,1,2.32,0,9.43,9.43,0,0,1,2.19.64,12.16,12.16,0,0,1,1.56.79v3.7l-2.3-.39v-1.93a6.46,6.46,0,0,0-1.29-.37,3.75,3.75,0,0,0-1.16,0,2.26,2.26,0,0,0-1.75,1.24,2.92,2.92,0,0,0-.28,1.36,3.57,3.57,0,0,0,.23,1.28,3.68,3.68,0,0,0,1.68,1.94,4.19,4.19,0,0,0,1.37.47,4.62,4.62,0,0,0,2,0,6.46,6.46,0,0,0,1.14-.4Z"/><path d="M111.28,396.42l-2.07-.34v-2.31l2.07,0.34v-2.39l2.72-.33v3.17l5.47,0.88v2.31l-5.47-.88v3a4.09,4.09,0,0,0,.61,2.44,2.5,2.5,0,0,0,1.69,1,3.47,3.47,0,0,0,1,0,3.34,3.34,0,0,0,.82-0.21,3.85,3.85,0,0,0,.67-0.36l0.55-.37,1.25,2.09a3.2,3.2,0,0,1-.89.63,6.23,6.23,0,0,1-1.15.43,6.46,6.46,0,0,1-1.29.2,6,6,0,0,1-1.32-.07,5.34,5.34,0,0,1-3.52-1.88,7,7,0,0,1-1.18-4.36v-3Z"/><path d="M122.12,401.1a6,6,0,0,1,.4-2.29,3.89,3.89,0,0,1,1.13-1.57,4,4,0,0,1,1.75-.81,6.41,6.41,0,0,1,2.27,0,7.26,7.26,0,0,1,2.35.76,6,6,0,0,1,1.75,1.39,5.75,5.75,0,0,1,1.08,1.92,7.2,7.2,0,0,1,.37,2.32,6,6,0,0,1-.4,2.29,3.93,3.93,0,0,1-1.13,1.57,4,4,0,0,1-1.75.82,6.36,6.36,0,0,1-2.27,0,7.2,7.2,0,0,1-2.35-.76,6,6,0,0,1-1.75-1.39,5.77,5.77,0,0,1-1.08-1.92A7.24,7.24,0,0,1,122.12,401.1Zm2.8,0.44a4.47,4.47,0,0,0,.19,1.31,3.79,3.79,0,0,0,.54,1.11,3.06,3.06,0,0,0,.86.81,3,3,0,0,0,1.15.42,2.33,2.33,0,0,0,2-.48,3,3,0,0,0,.76-2.34,4.12,4.12,0,0,0-.71-2.45,2.92,2.92,0,0,0-2-1.2,3.12,3.12,0,0,0-1.09,0,1.75,1.75,0,0,0-.87.44,2.3,2.3,0,0,0-.57.92A4.24,4.24,0,0,0,124.93,401.54Z"/><path d="M134.75,406l2.6,0.38v-5.88l-2.6-.38v-2.31l4.71,0.69,0.31,1.43h0.08a4.51,4.51,0,0,1,1.34-1,3,3,0,0,1,1.76-.21,2.81,2.81,0,0,1,2,1.21,5.6,5.6,0,0,1,.72,3.19l-2.45-.35a2.31,2.31,0,0,0-.22-1.13,0.91,0.91,0,0,0-.7-0.45,1.87,1.87,0,0,0-1.35.23,3.42,3.42,0,0,0-.87.84v4.47l4.54,0.65v2.31c-3.94-.56-5.92-0.85-9.86-1.43V406Z"/><path d="M147.73,407.84l3.69,0.51c0-2.35,0-3.53,0-5.88l-3.69-.51v-2.31l6.41,0.88v8.19l3.88,0.52v2.31c-4.12-.55-6.17-0.83-10.29-1.4v-2.31Zm3.18-10.6a1.29,1.29,0,0,1,.48-1,1.68,1.68,0,0,1,1.34-.28,2.35,2.35,0,0,1,1.4.65,1.65,1.65,0,0,1,.52,1.18,1.18,1.18,0,0,1-.52,1,2,2,0,0,1-1.4.24,2.22,2.22,0,0,1-1.34-.61A1.62,1.62,0,0,1,150.91,397.24Z"/><path d="M161,402.16a10.4,10.4,0,0,1,1.94-.4,10.81,10.81,0,0,1,2.61.06,6.24,6.24,0,0,1,1.86.5,3.69,3.69,0,0,1,1.24.9,3.32,3.32,0,0,1,.68,1.24,5.35,5.35,0,0,1,.21,1.54q0,1.07-.07,1.82t-0.07,1.33a9.3,9.3,0,0,0,0,1c0,0.19,0,.39.06,0.58l1.36,0.17c0,0.92,0,1.39,0,2.31l-3.52-.44L167,411.3h-0.1a3,3,0,0,1-1.19,1,3.71,3.71,0,0,1-2.08.2,4,4,0,0,1-2.48-1.16,3.27,3.27,0,0,1-.92-2.35,3.09,3.09,0,0,1,.32-1.48,2.24,2.24,0,0,1,.94-0.93,4,4,0,0,1,1.48-.42,8.5,8.5,0,0,1,1.93,0c0.25,0,.51.08,0.79,0.14l1,0.21a2.11,2.11,0,0,0,0-.41v-0.4a1.52,1.52,0,0,0-.46-1.2,2.48,2.48,0,0,0-1.35-.52,6.11,6.11,0,0,0-1.91,0,11,11,0,0,0-1.44.36Zm3.57,8.17a2.33,2.33,0,0,0,1.49-.18,2,2,0,0,0,.73-0.7V408.2l-0.62-.17a7.65,7.65,0,0,0-.89-0.17,4.26,4.26,0,0,0-.79,0,2.38,2.38,0,0,0-.7.14,1.15,1.15,0,0,0-.5.35,0.89,0.89,0,0,0-.19.58,1.35,1.35,0,0,0,.34,1A1.81,1.81,0,0,0,164.52,410.33Z"/><path d="M173.47,398.83l4.47,0.54v9.7a4.8,4.8,0,0,0,.4,2.29,1.61,1.61,0,0,0,1.28.78,3.4,3.4,0,0,0,1.07,0,3.56,3.56,0,0,0,.84-0.29l1,2q-0.36.19-.71,0.35a4.1,4.1,0,0,1-.76.25,4.9,4.9,0,0,1-.87.11,6.89,6.89,0,0,1-1.06-.05,4.46,4.46,0,0,1-3-1.36,4.36,4.36,0,0,1-1-3v-8.82l-1.74-.21v-2.31Z"/><path d="M185.87,417.46c3.73,0.43,5.59.63,9.32,1v2.25c-3.73-.4-5.59-0.61-9.32-1v-2.25Z"/><path d="M196.83,401.51l4.24,0.45v5.38h0.08a3.07,3.07,0,0,1,1.34-.93,4.37,4.37,0,0,1,2-.2,5.22,5.22,0,0,1,1.47.36,3.18,3.18,0,0,1,1.16.81,3.69,3.69,0,0,1,.76,1.39,6.89,6.89,0,0,1,.27,2.07v6.53l-2.73-.27v-6a2.82,2.82,0,0,0-.55-1.9,2.11,2.11,0,0,0-1.43-.71,2.27,2.27,0,0,0-2.35,1.44v6.7l-2.73-.29V404l-1.51-.16v-2.31Z"/><path d="M220.66,417.46a3.33,3.33,0,0,1-.7.43,6.2,6.2,0,0,1-1,.36,7.37,7.37,0,0,1-1.27.22,8.1,8.1,0,0,1-1.47,0,7.52,7.52,0,0,1-2.41-.61,5.39,5.39,0,0,1-2.92-3.13,6.79,6.79,0,0,1-.39-2.36,5.84,5.84,0,0,1,.44-2.38,4.24,4.24,0,0,1,1.21-1.61,4.5,4.5,0,0,1,1.8-.87,6.77,6.77,0,0,1,2.23-.14,7.27,7.27,0,0,1,1.65.36,5,5,0,0,1,1.57.87,4.45,4.45,0,0,1,1.17,1.48,4.94,4.94,0,0,1,.45,2.23,9.74,9.74,0,0,1-.21,1.93l-7.57-.71a2.49,2.49,0,0,0,1,2,3.34,3.34,0,0,0,1,.52,5.2,5.2,0,0,0,1.19.25,6,6,0,0,0,2.07-.1,3.91,3.91,0,0,0,1.31-.59Zm-4.54-7.92a3.39,3.39,0,0,0-1,.05,2.58,2.58,0,0,0-.87.36,2.08,2.08,0,0,0-.64.66,2,2,0,0,0-.29.93l5.17,0.49a2.51,2.51,0,0,0-.58-1.71A2.54,2.54,0,0,0,216.12,409.55Z"/><path d="M223.88,404.17l4.48,0.39v9.7a4.7,4.7,0,0,0,.4,2.28,1.55,1.55,0,0,0,1.28.74,3.43,3.43,0,0,0,1.07,0,3.7,3.7,0,0,0,.84-0.32l1,2q-0.36.2-.72,0.37a4.24,4.24,0,0,1-.76.27,5,5,0,0,1-.87.14,6.91,6.91,0,0,1-1.06,0,4.32,4.32,0,0,1-3-1.26,4.22,4.22,0,0,1-1-2.94v-8.82l-1.74-.15v-2.31Z"/><path d="M234.67,409.29l3.58,0.29,0.32,1.28h0.08a3.73,3.73,0,0,1,3.54-1.28A5.27,5.27,0,0,1,244,410a3.86,3.86,0,0,1,1.39,1.06,4.93,4.93,0,0,1,.89,1.7,8.08,8.08,0,0,1,.32,2.4,7.44,7.44,0,0,1-.36,2.4,4.68,4.68,0,0,1-1,1.76,4,4,0,0,1-1.64,1,5.55,5.55,0,0,1-2.21.23,8.77,8.77,0,0,1-1.28-.2A3.76,3.76,0,0,1,239,420v4.31l-2.73-.22V411.73l-1.58-.13v-2.31Zm6.69,2.55a2.65,2.65,0,0,0-1.46.29,1.85,1.85,0,0,0-.92,1.13v4.37a2.48,2.48,0,0,0,.85.43,4.89,4.89,0,0,0,1.13.22,2.84,2.84,0,0,0,1.1-.12,2,2,0,0,0,.88-0.57,2.84,2.84,0,0,0,.59-1.07,5.31,5.31,0,0,0,.21-1.6,3.32,3.32,0,0,0-.67-2.19A2.38,2.38,0,0,0,241.36,411.84Z"/><path d="M258.54,420.45a3.42,3.42,0,0,1-.71.45,6.36,6.36,0,0,1-1,.38,7.52,7.52,0,0,1-1.27.25,8.15,8.15,0,0,1-1.47,0,7.42,7.42,0,0,1-2.41-.55,5.21,5.21,0,0,1-2.93-3.06,6.7,6.7,0,0,1-.39-2.35,5.93,5.93,0,0,1,.44-2.39,4.39,4.39,0,0,1,1.21-1.64,4.64,4.64,0,0,1,1.8-.91,6.83,6.83,0,0,1,2.23-.19,7.18,7.18,0,0,1,1.65.32,4.89,4.89,0,0,1,1.57.83,4.28,4.28,0,0,1,1.17,1.45,4.86,4.86,0,0,1,.45,2.21,9.8,9.8,0,0,1-.21,1.94l-7.58-.52a2.54,2.54,0,0,0,.28,1.15,2.5,2.5,0,0,0,.7.81,3.24,3.24,0,0,0,1,.5,5.14,5.14,0,0,0,1.19.22,6,6,0,0,0,2.07-.15,4,4,0,0,0,1.32-.63ZM254,412.64a3.4,3.4,0,0,0-1,.08,2.66,2.66,0,0,0-.87.38,2.17,2.17,0,0,0-.64.67,2.08,2.08,0,0,0-.29.94l5.18,0.36a2.45,2.45,0,0,0-.58-1.7A2.48,2.48,0,0,0,254,412.64Z"/><path d="M260.75,419.4l2.61,0.17v-5.88l-2.61-.17v-2.31l4.74,0.3,0.32,1.41h0.08a5.08,5.08,0,0,1,1.35-1.07,3.21,3.21,0,0,1,1.77-.36,2.56,2.56,0,0,1,2,1,5.27,5.27,0,0,1,.73,3.13l-2.46-.14a2.19,2.19,0,0,0-.22-1.12,0.83,0.83,0,0,0-.71-0.39,2,2,0,0,0-1.36.34,3.88,3.88,0,0,0-.87.91v4.47l4.57,0.27v2.31c-4-.23-6-0.35-9.92-0.61V419.4Z"/><path d="M282.15,427.4a10.23,10.23,0,0,1-2.87-1.07,9,9,0,0,1-2.47-2,9.54,9.54,0,0,1-1.72-3,11.2,11.2,0,0,1-.64-3.94,10.63,10.63,0,0,1,.64-3.86,8.49,8.49,0,0,1,1.72-2.79,7.92,7.92,0,0,1,2.47-1.78,10,10,0,0,1,2.87-.84l0.51,2.27a8.43,8.43,0,0,0-1.67.51,5.7,5.7,0,0,0-1.78,1.19,6.54,6.54,0,0,0-1.42,2.12,8.29,8.29,0,0,0-.58,3.33,8,8,0,0,0,.61,3.29,7.74,7.74,0,0,0,1.49,2.25,7.08,7.08,0,0,0,1.8,1.38,7.58,7.58,0,0,0,1.56.64Z"/><path d="M290.44,421.33a4.27,4.27,0,0,0,1.28-.12,2.85,2.85,0,0,0,1-.46,2.28,2.28,0,0,0,.64-0.72,1.87,1.87,0,0,0,.23-0.92,1.93,1.93,0,0,0-1-1.78,3.66,3.66,0,0,0-1.12-.41,9.11,9.11,0,0,0-1.41-.17l-1.18-.05c0-.6,0-0.9,0-1.51l3.54-4.15-5.33-.24v-2.31l8.6,0.39v1.91L292,414.85l0.48,0a4.29,4.29,0,0,1,1.43.31,3.76,3.76,0,0,1,1.23.81,4,4,0,0,1,.86,1.3,4.46,4.46,0,0,1,.33,1.76,4.18,4.18,0,0,1-.5,2.08,4.5,4.5,0,0,1-1.31,1.47,5.3,5.3,0,0,1-1.87.84,7.62,7.62,0,0,1-2.17.21,10.91,10.91,0,0,1-1.9-.26,9.49,9.49,0,0,1-1.83-.61l0.74-2.23a3.14,3.14,0,0,0,.52.23l0.74,0.24a8.42,8.42,0,0,0,.84.21A6,6,0,0,0,290.44,421.33Z"/><path d="M302.45,422.5a1.39,1.39,0,0,1,.47-1.12,1.68,1.68,0,0,1,1.19-.38,2.17,2.17,0,0,1,1.75.82,3,3,0,0,1,.59,1.89,3.88,3.88,0,0,1-.37,1.71,4.33,4.33,0,0,1-1,1.31,5,5,0,0,1-1.32.88,5.21,5.21,0,0,1-1.44.43l-0.57-1.18a6,6,0,0,0,1-.32,3.92,3.92,0,0,0,.94-0.54,3.07,3.07,0,0,0,.71-0.78,2.16,2.16,0,0,0,.33-1,2.68,2.68,0,0,1-1.08,0,1.69,1.69,0,0,1-.73-0.36,1.45,1.45,0,0,1-.41-0.6A2.19,2.19,0,0,1,302.45,422.5Z"/><path d="M321.53,424.44c-3.76-.09-5.64-0.15-9.41-0.26v-2l0.63-.54,0.85-.76q0.47-.43,1-0.94t1-1.06q0.72-.78,1.25-1.41a10,10,0,0,0,.89-1.2,4.9,4.9,0,0,0,.52-1.12,3.89,3.89,0,0,0,.17-1.14,1.92,1.92,0,0,0-.19-0.82,2.32,2.32,0,0,0-.53-0.72,2.63,2.63,0,0,0-.81-0.51,3,3,0,0,0-1-.21,3.89,3.89,0,0,0-1.38.19,4.55,4.55,0,0,0-1.3.74l-1.1-2a9,9,0,0,1,2-1,6.68,6.68,0,0,1,2.5-.36,6.08,6.08,0,0,1,1.74.3,4.74,4.74,0,0,1,1.48.79,3.76,3.76,0,0,1,1,1.26,3.71,3.71,0,0,1,.38,1.71,6.36,6.36,0,0,1-.12,1.25,6,6,0,0,1-.36,1.15,7.63,7.63,0,0,1-.63,1.17q-0.39.6-.94,1.3-0.42.54-.92,1.08t-1,1q-0.49.49-1,.92t-0.85.71l6.07,0.16v2.31Z"/><path d="M325.69,426.7a7.06,7.06,0,0,0,1.56-.52,6.4,6.4,0,0,0,1.8-1.24,7,7,0,0,0,1.49-2.14,7.65,7.65,0,0,0,.61-3.24,8.58,8.58,0,0,0-.58-3.37,7.23,7.23,0,0,0-1.42-2.22,6.3,6.3,0,0,0-1.78-1.32,9,9,0,0,0-1.68-.64l0.51-2.24a10.71,10.71,0,0,1,2.87,1,8.79,8.79,0,0,1,2.47,2,9.36,9.36,0,0,1,1.72,2.92,11,11,0,0,1,.64,3.91,10.8,10.8,0,0,1-.64,3.89,8.69,8.69,0,0,1-1.72,2.83,8.14,8.14,0,0,1-2.47,1.82,9.59,9.59,0,0,1-2.87.86Z"/><path d="M386.13,424.7c0-.92,0-1.39,0-2.31l2.49,0c0-2.35,0-3.53,0-5.88l-2.51,0V414.2l2.51,0v-0.59a3.89,3.89,0,0,1,.35-1.71,3.51,3.51,0,0,1,.92-1.19,3.85,3.85,0,0,1,1.32-.71,5.51,5.51,0,0,1,1.55-.25,9.86,9.86,0,0,1,2.39.19,6,6,0,0,1,1.55.56l-0.8,2.1a9.56,9.56,0,0,0-1-.4,4.58,4.58,0,0,0-1.44-.16,2.09,2.09,0,0,0-1.59.55,2.32,2.32,0,0,0-.45,1.55l4.43-.1v2.31l-4.43.1v5.88l4.45-.1v2.31C391.94,424.6,390,424.64,386.13,424.7Z"/><path d="M399.18,414.64a11.92,11.92,0,0,1,2-.7,11.24,11.24,0,0,1,2.63-.35,5.78,5.78,0,0,1,1.87.21,3,3,0,0,1,1.24.71,2.72,2.72,0,0,1,.68,1.13,5,5,0,0,1,.21,1.51q0,1.07-.07,1.83t-0.07,1.35a8.83,8.83,0,0,0,0,1c0,0.19,0,.38.06,0.57l1.37,0v2.31l-3.54.11-0.28-1.42h-0.1A3.79,3.79,0,0,1,404,424a4.07,4.07,0,0,1-2.1.53,3.48,3.48,0,0,1-2.49-.77,2.79,2.79,0,0,1-.92-2.2,3.38,3.38,0,0,1,.32-1.53,2.82,2.82,0,0,1,.94-1.07,4.62,4.62,0,0,1,1.49-.65,8.82,8.82,0,0,1,1.94-.25c0.25,0,.52,0,0.8,0l1,0.05a2.11,2.11,0,0,0,0-.42v-0.4a1.3,1.3,0,0,0-.46-1.13,2.2,2.2,0,0,0-1.36-.31,6.44,6.44,0,0,0-1.93.33,12.67,12.67,0,0,0-1.44.59Zm3.59,7.61A2.35,2.35,0,0,0,405,421v-1.26l-0.63-.08a7.36,7.36,0,0,0-.9,0,4.41,4.41,0,0,0-.79.1,2.71,2.71,0,0,0-.71.25,1.45,1.45,0,0,0-.5.42,1,1,0,0,0-.19.61,1.17,1.17,0,0,0,.34.9A1.59,1.59,0,0,0,402.77,422.25Z"/><path d="M421.45,422.68a6.32,6.32,0,0,1-2,1.06,9,9,0,0,1-2.42.42,6.76,6.76,0,0,1-2.44-.31,4.73,4.73,0,0,1-1.79-1.06,4.56,4.56,0,0,1-1.11-1.72,6.4,6.4,0,0,1-.38-2.25,6,6,0,0,1,.44-2.37,5.18,5.18,0,0,1,1.23-1.79,5.58,5.58,0,0,1,1.87-1.15,7.39,7.39,0,0,1,2.34-.45,8.58,8.58,0,0,1,2.21.19,10,10,0,0,1,1.58.46v3.7l-2.32.09v-1.93a5.92,5.92,0,0,0-1.31-.1,4,4,0,0,0-1.17.22,3,3,0,0,0-1,.6,3.13,3.13,0,0,0-.74,1,3.27,3.27,0,0,0-.28,1.42,3.17,3.17,0,0,0,.23,1.23,2.81,2.81,0,0,0,.65,1,2.84,2.84,0,0,0,1,.62,3.72,3.72,0,0,0,1.38.19,5,5,0,0,0,2-.41,8.33,8.33,0,0,0,1.15-.63Z"/><path d="M425,415.35l-2.09.09v-2.31L425,413v-2.39l2.74-.9c0,1.27,0,1.9,0,3.17l5.52-.25V415l-5.52.25v3a3.49,3.49,0,0,0,.61,2.31,2,2,0,0,0,1.71.65,3.69,3.69,0,0,0,1-.18,4.1,4.1,0,0,0,.83-0.38,5.12,5.12,0,0,0,.67-0.49l0.56-.49,1.26,1.83a4.35,4.35,0,0,1-.9.81,8,8,0,0,1-1.16.66,7.6,7.6,0,0,1-1.3.47,6.31,6.31,0,0,1-1.33.21,4.37,4.37,0,0,1-3.55-1.15,5.88,5.88,0,0,1-1.19-4.12v-3Z"/><path d="M436,417.79a6.62,6.62,0,0,1,.4-2.37,5.15,5.15,0,0,1,1.14-1.8,5.22,5.22,0,0,1,1.76-1.17,7,7,0,0,1,2.29-.49,6.48,6.48,0,0,1,2.37.27,4.56,4.56,0,0,1,1.76,1,4.39,4.39,0,0,1,1.08,1.69,6.49,6.49,0,0,1,.37,2.25,6.64,6.64,0,0,1-.4,2.37,5.12,5.12,0,0,1-2.9,3,6.91,6.91,0,0,1-2.29.49,6.42,6.42,0,0,1-2.37-.27,4.56,4.56,0,0,1-1.76-1,4.42,4.42,0,0,1-1.08-1.7A6.52,6.52,0,0,1,436,417.79Zm2.82-.14a4.06,4.06,0,0,0,.19,1.27,2.94,2.94,0,0,0,.55,1,2.28,2.28,0,0,0,.86.64,2.58,2.58,0,0,0,1.16.18,2.82,2.82,0,0,0,2-.88,3.54,3.54,0,0,0,.77-2.5,3.47,3.47,0,0,0-.72-2.3,2.34,2.34,0,0,0-2-.78,3.4,3.4,0,0,0-1.1.24,2.3,2.3,0,0,0-.87.62,3,3,0,0,0-.58,1A4.63,4.63,0,0,0,438.79,417.65Z"/><path d="M448.7,420l2.61-.15c0-2.35,0-3.53,0-5.88l-2.61.15v-2.31l4.74-.28,0.32,1.37h0.08a6.09,6.09,0,0,1,1.35-1.24,3.5,3.5,0,0,1,1.77-.57,2.24,2.24,0,0,1,2,.8,4.84,4.84,0,0,1,.73,3l-2.46.16A2,2,0,0,0,457,414a0.73,0.73,0,0,0-.71-0.3,2.21,2.21,0,0,0-1.36.5,4.65,4.65,0,0,0-.87,1c0,1.79,0,2.68,0,4.47l4.57-.29v2.31c-4,.26-6,0.38-9.92.61V420Z"/><path d="M461.76,419.23l3.71-.25c0-2.35,0-3.53,0-5.88l-3.71.25V411l6.44-.44c0,3.28,0,4.91,0,8.19l3.89-.28v2.31c-4.13.3-6.2,0.45-10.34,0.72v-2.31ZM465,408a1.59,1.59,0,0,1,.48-1.15,2,2,0,0,1,1.35-.56,2,2,0,0,1,1.41.36,1.32,1.32,0,0,1,.53,1.07,1.47,1.47,0,0,1-.53,1.14,2.3,2.3,0,0,1-1.41.53,1.85,1.85,0,0,1-1.35-.34A1.31,1.31,0,0,1,465,408Z"/><path d="M475,410.81A12.49,12.49,0,0,1,477,410a11.46,11.46,0,0,1,2.62-.48,5.69,5.69,0,0,1,1.86.12,2.82,2.82,0,0,1,1.24.65,2.55,2.55,0,0,1,.68,1.1,4.87,4.87,0,0,1,.21,1.49q0,1.07-.07,1.83t-0.07,1.35a8.77,8.77,0,0,0,0,1c0,0.19,0,.38.06,0.56l1.37-.11v2.31l-3.53.28-0.28-1.41H481a4.07,4.07,0,0,1-1.19,1.22,4.22,4.22,0,0,1-2.09.64,3.34,3.34,0,0,1-2.49-.65,2.66,2.66,0,0,1-.92-2.16,3.49,3.49,0,0,1,.32-1.55,3,3,0,0,1,.94-1.12,4.88,4.88,0,0,1,1.48-.72A9,9,0,0,1,479,414c0.25,0,.52,0,0.79,0h1a2.15,2.15,0,0,0,0-.42v-0.4a1.24,1.24,0,0,0-.46-1.11,2.13,2.13,0,0,0-1.36-.24,6.6,6.6,0,0,0-1.92.42,13.36,13.36,0,0,0-1.44.66Zm3.58,7.43a2.68,2.68,0,0,0,1.5-.48,2.77,2.77,0,0,0,.73-0.85v-1.26l-0.62,0a7.32,7.32,0,0,0-.89,0,4.49,4.49,0,0,0-.79.13,2.84,2.84,0,0,0-.71.29,1.56,1.56,0,0,0-.5.45,1.05,1.05,0,0,0-.19.62,1.11,1.11,0,0,0,.34.89A1.53,1.53,0,0,0,478.62,418.25Z"/><path d="M487.6,404.9l4.48-.38c0,3.88,0,5.82,0,9.7a4.28,4.28,0,0,0,.4,2.21,1.28,1.28,0,0,0,1.28.52,3.66,3.66,0,0,0,1.07-.23,4.49,4.49,0,0,0,.84-0.46l1,1.8q-0.36.26-.71,0.49a5.12,5.12,0,0,1-.76.4,5.61,5.61,0,0,1-.87.29,7.15,7.15,0,0,1-1.06.17,3.71,3.71,0,0,1-3-.75,3.62,3.62,0,0,1-1-2.77v-8.82l-1.75.15V404.9Z"/><path d="M500,421c3.73-.34,5.6-0.52,9.33-0.89v2.25c-3.73.37-5.6,0.54-9.33,0.89V421Z"/><path d="M511,402.77l4.25-.43c0,2.15,0,3.23,0,5.38h0.08a4.12,4.12,0,0,1,1.34-1.21,4.91,4.91,0,0,1,2-.6,4.8,4.8,0,0,1,1.47.06,2.44,2.44,0,0,1,1.15.57,2.85,2.85,0,0,1,.76,1.23,6.35,6.35,0,0,1,.27,2c0,2.61,0,3.92,0,6.53l-2.73.29c0-2.39,0-3.58,0-6a2.39,2.39,0,0,0-.55-1.79,1.73,1.73,0,0,0-1.43-.42,2.63,2.63,0,0,0-1.43.62,3,3,0,0,0-.92,1.3V417l-2.73.28c0-5,0-7.43,0-12.39l-1.51.15v-2.31Z"/><path d="M534.82,413.81a4.4,4.4,0,0,1-.7.57,7.79,7.79,0,0,1-1,.57,8.63,8.63,0,0,1-2.74.77,6.86,6.86,0,0,1-2.4-.11,4,4,0,0,1-2.92-2.53,6.14,6.14,0,0,1-.39-2.28,6.54,6.54,0,0,1,.44-2.47,5.64,5.64,0,0,1,1.21-1.86,5.85,5.85,0,0,1,1.8-1.24,7.45,7.45,0,0,1,2.23-.59,6.75,6.75,0,0,1,1.65,0,4,4,0,0,1,1.56.55,3.29,3.29,0,0,1,1.17,1.24,4.37,4.37,0,0,1,.45,2.13,10.41,10.41,0,0,1-.21,2l-7.56.85a2.23,2.23,0,0,0,.28,1.1,1.91,1.91,0,0,0,.69.68,2.66,2.66,0,0,0,1,.32,4.86,4.86,0,0,0,1.19,0,6.52,6.52,0,0,0,2.07-.53,5.06,5.06,0,0,0,1.31-.86Zm-4.53-7a3.69,3.69,0,0,0-1,.26,3.31,3.31,0,0,0-.87.54,2.82,2.82,0,0,0-.64.79,2.42,2.42,0,0,0-.29,1l5.17-.58a2.09,2.09,0,0,0-.58-1.59A2.12,2.12,0,0,0,530.29,406.82Z"/><path d="M538,399.85l4.47-.53V409a4.21,4.21,0,0,0,.4,2.2,1.24,1.24,0,0,0,1.28.48,3.73,3.73,0,0,0,1.07-.27,4.67,4.67,0,0,0,.84-0.49l1,1.76c-0.24.18-.47,0.36-0.71,0.52a5.33,5.33,0,0,1-.76.43,5.75,5.75,0,0,1-.87.32,7.24,7.24,0,0,1-1.06.2,3.61,3.61,0,0,1-3-.65,3.51,3.51,0,0,1-1-2.74c0-3.53,0-5.29,0-8.82l-1.74.2v-2.31Z"/><path d="M548.8,402.75l3.57-.45,0.31,1.22h0.08a4.63,4.63,0,0,1,3.52-2,4.79,4.79,0,0,1,1.77.07,2.91,2.91,0,0,1,1.38.77,3.81,3.81,0,0,1,.89,1.52,7.47,7.47,0,0,1,.31,2.33,8.17,8.17,0,0,1-.36,2.47,6.08,6.08,0,0,1-1,2,5.29,5.29,0,0,1-1.63,1.37,6.21,6.21,0,0,1-2.2.68,8.52,8.52,0,0,1-1.28.07,3.22,3.22,0,0,1-1-.17c0,1.72,0,2.58,0,4.31l-2.73.34V404.87l-1.57.2v-2.31Zm6.67,1.17a3.1,3.1,0,0,0-1.46.59,2.46,2.46,0,0,0-.91,1.31v4.37a2,2,0,0,0,.85.26,4.58,4.58,0,0,0,1.12,0,3.18,3.18,0,0,0,1.09-.34,2.67,2.67,0,0,0,.88-0.75,3.63,3.63,0,0,0,.59-1.19,5.77,5.77,0,0,0,.21-1.64,2.79,2.79,0,0,0-.67-2.05A1.93,1.93,0,0,0,555.46,403.92Z"/><path d="M572.56,409a4.56,4.56,0,0,1-.7.59,8,8,0,0,1-1,.59,8.82,8.82,0,0,1-1.27.51,8.67,8.67,0,0,1-1.47.33,6.82,6.82,0,0,1-2.4-.05,3.9,3.9,0,0,1-2.91-2.45,6.07,6.07,0,0,1-.39-2.27,6.64,6.64,0,0,1,.44-2.48,5.84,5.84,0,0,1,1.2-1.89,6,6,0,0,1,1.79-1.28,7.56,7.56,0,0,1,2.22-.65,6.71,6.71,0,0,1,1.64,0,3.89,3.89,0,0,1,1.56.51,3.17,3.17,0,0,1,1.16,1.21,4.31,4.31,0,0,1,.45,2.12,10.51,10.51,0,0,1-.21,2l-7.54,1a2.2,2.2,0,0,0,.28,1.1,1.84,1.84,0,0,0,.69.66,2.6,2.6,0,0,0,1,.3,4.84,4.84,0,0,0,1.18,0,6.61,6.61,0,0,0,2.06-.58,5.22,5.22,0,0,0,1.31-.9ZM568,402.13a3.74,3.74,0,0,0-1,.29,3.41,3.41,0,0,0-.87.56,2.93,2.93,0,0,0-.64.8,2.48,2.48,0,0,0-.29,1l5.15-.71a2,2,0,0,0-.58-1.58A2.07,2.07,0,0,0,568,402.13Z"/><path d="M574.76,407.49l2.6-.37v-5.88l-2.6.37V399.3l4.71-.67,0.31,1.34h0.08a6.86,6.86,0,0,1,1.34-1.35,3.75,3.75,0,0,1,1.76-.72,2.06,2.06,0,0,1,2,.63,4.59,4.59,0,0,1,.72,3l-2.45.36a1.94,1.94,0,0,0-.22-1.07,0.67,0.67,0,0,0-.7-0.24,2.38,2.38,0,0,0-1.35.62,5.25,5.25,0,0,0-.87,1.09v4.47l4.54-.67v2.31c-3.94.58-5.91,0.87-9.86,1.43v-2.31Z"/><path d="M596,411.1a8.65,8.65,0,0,1-2.84-.48,6.72,6.72,0,0,1-2.45-1.49,7.27,7.27,0,0,1-1.7-2.6,10.19,10.19,0,0,1-.64-3.81,11.81,11.81,0,0,1,.64-4,11.1,11.1,0,0,1,1.7-3.15,10.63,10.63,0,0,1,2.45-2.29,12.21,12.21,0,0,1,2.84-1.43l0.5,2.17a10.32,10.32,0,0,0-1.66.86,7.59,7.59,0,0,0-1.77,1.55,8.61,8.61,0,0,0-1.41,2.41,9.26,9.26,0,0,0-.57,3.45,7.16,7.16,0,0,0,.61,3.16,5.81,5.81,0,0,0,1.48,1.95,5.31,5.31,0,0,0,1.79,1,6.31,6.31,0,0,0,1.55.32Z"/><path d="M610.45,399.77a5.18,5.18,0,0,1-.39,2,6,6,0,0,1-1.05,1.71,6.17,6.17,0,0,1-1.6,1.29,5.9,5.9,0,0,1-2,.7,5.62,5.62,0,0,1-2,0,3.77,3.77,0,0,1-1.66-.77,4,4,0,0,1-1.13-1.56,6,6,0,0,1-.42-2.37,10.47,10.47,0,0,1,.72-3.89,12.92,12.92,0,0,1,1.85-3.25,12.3,12.3,0,0,1,2.53-2.42,10.11,10.11,0,0,1,2.78-1.43l0.61,2.06a9.63,9.63,0,0,0-2.07,1,9.52,9.52,0,0,0-1.71,1.42,8.74,8.74,0,0,0-1.26,1.7,6.18,6.18,0,0,0-.7,1.81,4.06,4.06,0,0,1,1.25-1.09A5.13,5.13,0,0,1,606,396a4.76,4.76,0,0,1,1.75,0,3.16,3.16,0,0,1,2.35,1.91A4.56,4.56,0,0,1,610.45,399.77Zm-2.63.54a1.83,1.83,0,0,0-.68-1.61,2.42,2.42,0,0,0-1.83-.29,3.47,3.47,0,0,0-1.5.62,3.37,3.37,0,0,0-1,1,3.84,3.84,0,0,0-.05.52c0,0.19,0,.34,0,0.45a2.59,2.59,0,0,0,.17.94,1.83,1.83,0,0,0,1.27,1.15,2.51,2.51,0,0,0,1.07,0,2.9,2.9,0,0,0,.94-0.33,3.35,3.35,0,0,0,.81-0.63,3.07,3.07,0,0,0,.57-0.86A2.49,2.49,0,0,0,607.82,400.3Z"/><path d="M616.13,402a1.71,1.71,0,0,1,.47-1.21,2,2,0,0,1,1.18-.62,1.77,1.77,0,0,1,1.73.46,2.56,2.56,0,0,1,.58,1.77,4.43,4.43,0,0,1-.37,1.79,5.77,5.77,0,0,1-.95,1.51,6.62,6.62,0,0,1-1.3,1.15,6.34,6.34,0,0,1-1.43.73l-0.56-1.06a7.31,7.31,0,0,0,1-.53,5.17,5.17,0,0,0,.93-0.74,4.14,4.14,0,0,0,.7-0.93,2.59,2.59,0,0,0,.32-1.06,2.78,2.78,0,0,1-1.06.21,1.35,1.35,0,0,1-.72-0.21,1.09,1.09,0,0,1-.41-0.52A2,2,0,0,1,616.13,402Z"/><path d="M626.31,399.3l3.19-.57v-9.18l-2.75,2.61-1.25-1.46,4.75-4.5,1.83-.33c0,5,0,7.43,0,12.39l3.13-.57V400c-3.56.65-5.34,1-8.9,1.6V399.3Z"/><path d="M639.1,401.46a8.66,8.66,0,0,0,1.54-.84,8.52,8.52,0,0,0,1.78-1.61,9.27,9.27,0,0,0,1.47-2.45,8.65,8.65,0,0,0,.6-3.37,7.81,7.81,0,0,0-.57-3.25,5.44,5.44,0,0,0-1.41-1.93,4.71,4.71,0,0,0-1.76-1,7.55,7.55,0,0,0-1.66-.29l0.5-2.34a9,9,0,0,1,2.83.46,6.52,6.52,0,0,1,2.44,1.45,7.12,7.12,0,0,1,1.7,2.57,10.05,10.05,0,0,1,.64,3.77,12.06,12.06,0,0,1-.64,4,11.36,11.36,0,0,1-1.7,3.18,10.89,10.89,0,0,1-2.44,2.33,11.63,11.63,0,0,1-2.83,1.45Z"/><path d="M76.42,447.78v-2.31l2.46,0.47v-5.88l-2.48-.47v-2.31l2.48,0.47v-0.59a3.48,3.48,0,0,1,.34-1.64,2.6,2.6,0,0,1,.91-1,3,3,0,0,1,1.3-.44,5.19,5.19,0,0,1,1.53.06,10.79,10.79,0,0,1,2.36.68,7.51,7.51,0,0,1,1.53.88l-0.79,1.93a11.86,11.86,0,0,0-1-.61,5.08,5.08,0,0,0-1.43-.45,1.77,1.77,0,0,0-1.57.22,2,2,0,0,0-.45,1.46L86,439.07v2.31l-4.37-.81v5.88L86,447.26c0,0.92,0,1.39,0,2.31C82.15,448.87,80.24,448.51,76.42,447.78Z"/><path d="M89.31,440.4a10,10,0,0,1,1.93-.3,10.79,10.79,0,0,1,2.59.19,6.43,6.43,0,0,1,1.84.59,4,4,0,0,1,1.23,1,3.56,3.56,0,0,1,.68,1.27,5.48,5.48,0,0,1,.21,1.55q0,1.07-.07,1.81t-0.07,1.33a9.22,9.22,0,0,0,0,1c0,0.2,0,.39.06,0.58l1.35,0.24v2.31l-3.5-.62-0.27-1.48-0.1,0a2.79,2.79,0,0,1-1.18.91,3.63,3.63,0,0,1-2.07.1,4.22,4.22,0,0,1-2.46-1.29,3.44,3.44,0,0,1-.91-2.39,3,3,0,0,1,.32-1.46,2.08,2.08,0,0,1,.93-0.88,3.78,3.78,0,0,1,1.47-.34,8.47,8.47,0,0,1,1.92.14c0.25,0,.51.11,0.79,0.18l1,0.26a2.08,2.08,0,0,0,0-.41v-0.4a1.6,1.6,0,0,0-.46-1.23,2.59,2.59,0,0,0-1.34-.59,6,6,0,0,0-1.9-.07,10.45,10.45,0,0,0-1.43.29Zm3.55,8.35a2.27,2.27,0,0,0,1.48-.1,1.89,1.89,0,0,0,.72-0.66v-1.26l-0.62-.2a7.83,7.83,0,0,0-.89-0.21,4.26,4.26,0,0,0-.78-0.07,2.3,2.3,0,0,0-.7.1,1.08,1.08,0,0,0-.5.32,0.86,0.86,0,0,0-.19.58,1.42,1.42,0,0,0,.34,1A1.9,1.9,0,0,0,92.86,448.74Z"/><path d="M111.33,453a5,5,0,0,1-2,.64,8.5,8.5,0,0,1-2.4-.08,7.59,7.59,0,0,1-2.41-.81,6.21,6.21,0,0,1-1.77-1.43,6,6,0,0,1-1.1-1.94,7.14,7.14,0,0,1-.38-2.33,5.41,5.41,0,0,1,.44-2.28,3.87,3.87,0,0,1,1.22-1.53,4.3,4.3,0,0,1,1.85-.76,6.85,6.85,0,0,1,2.32,0,9.42,9.42,0,0,1,2.19.64,12.17,12.17,0,0,1,1.57.79v3.7l-2.3-.39v-1.93a6.45,6.45,0,0,0-1.29-.37,3.75,3.75,0,0,0-1.16,0,2.26,2.26,0,0,0-1.75,1.24,2.92,2.92,0,0,0-.28,1.36,3.57,3.57,0,0,0,.23,1.28,3.68,3.68,0,0,0,.65,1.1,3.76,3.76,0,0,0,1,.84,4.18,4.18,0,0,0,1.37.47,4.63,4.63,0,0,0,2,0,6.47,6.47,0,0,0,1.14-.4Z"/><path d="M114.88,446.42l-2.07-.34c0-.92,0-1.39,0-2.31l2.07,0.34c0-1,0-1.44,0-2.39l2.71-.33c0,1.27,0,1.9,0,3.17l5.47,0.88v2.31l-5.47-.88v3a4.09,4.09,0,0,0,.61,2.44,2.5,2.5,0,0,0,1.69,1,3.48,3.48,0,0,0,1,0,3.34,3.34,0,0,0,.83-0.21,3.85,3.85,0,0,0,.67-0.36l0.55-.37,1.25,2.09a3.2,3.2,0,0,1-.89.63,6.24,6.24,0,0,1-1.15.43,6.46,6.46,0,0,1-1.28.21,6,6,0,0,1-1.32-.06,5.34,5.34,0,0,1-3.52-1.88,7,7,0,0,1-1.18-4.36v-3Z"/><path d="M125.73,451.09a6,6,0,0,1,.4-2.29,3.9,3.9,0,0,1,1.13-1.57,4,4,0,0,1,1.75-.81,6.41,6.41,0,0,1,2.27,0,7.24,7.24,0,0,1,2.35.76,6,6,0,0,1,1.75,1.39,5.75,5.75,0,0,1,1.08,1.92,7.23,7.23,0,0,1,.37,2.32,6,6,0,0,1-.4,2.29,3.92,3.92,0,0,1-1.13,1.57,4,4,0,0,1-1.75.82,6.35,6.35,0,0,1-2.27,0,7.19,7.19,0,0,1-2.35-.76,6,6,0,0,1-1.75-1.39,5.77,5.77,0,0,1-1.08-1.92A7.23,7.23,0,0,1,125.73,451.09Zm2.8,0.44a4.47,4.47,0,0,0,.19,1.31,3.79,3.79,0,0,0,.54,1.11,3.07,3.07,0,0,0,.86.81,3,3,0,0,0,1.15.42,2.33,2.33,0,0,0,2-.48,3,3,0,0,0,.76-2.34,4.12,4.12,0,0,0-.71-2.45,2.91,2.91,0,0,0-2-1.2,3.12,3.12,0,0,0-1.09,0,1.75,1.75,0,0,0-.87.44,2.33,2.33,0,0,0-.58.92A4.27,4.27,0,0,0,128.53,451.53Z"/><path d="M138.36,456l2.59,0.38c0-2.35,0-3.53,0-5.88l-2.59-.38v-2.31l4.71,0.69,0.31,1.43h0.08a4.49,4.49,0,0,1,1.34-1,3,3,0,0,1,1.76-.21,2.81,2.81,0,0,1,2,1.21,5.6,5.6,0,0,1,.72,3.19l-2.45-.35a2.31,2.31,0,0,0-.22-1.13,0.91,0.91,0,0,0-.7-0.45,1.88,1.88,0,0,0-1.35.23,3.44,3.44,0,0,0-.87.84c0,1.79,0,2.68,0,4.47l4.54,0.65v2.31c-3.94-.56-5.92-0.84-9.86-1.43V456Z"/><path d="M151.33,457.82l3.69,0.51c0-2.35,0-3.53,0-5.88l-3.69-.51c0-.92,0-1.39,0-2.31l6.41,0.88c0,3.28,0,4.91,0,8.19l3.88,0.52c0,0.92,0,1.39,0,2.31-4.12-.54-6.17-0.82-10.29-1.4C151.33,459.21,151.33,458.75,151.33,457.82Zm3.18-10.61a1.29,1.29,0,0,1,.48-1,1.68,1.68,0,0,1,1.34-.28,2.34,2.34,0,0,1,1.4.65,1.65,1.65,0,0,1,.52,1.18,1.18,1.18,0,0,1-.52,1,2,2,0,0,1-1.4.24,2.22,2.22,0,0,1-1.34-.61A1.62,1.62,0,0,1,154.52,447.22Z"/><path d="M164.56,452.13a10.43,10.43,0,0,1,1.94-.4,10.84,10.84,0,0,1,2.61.06,6.23,6.23,0,0,1,1.86.5,3.69,3.69,0,0,1,1.24.9,3.33,3.33,0,0,1,.68,1.24,5.34,5.34,0,0,1,.21,1.54q0,1.07-.07,1.82c0,0.5-.07.94-0.07,1.33a9.1,9.1,0,0,0,0,1c0,0.19,0,.39.06,0.58l1.36,0.17v2.31l-3.52-.44-0.28-1.46h-0.1a3,3,0,0,1-1.19,1,3.71,3.71,0,0,1-2.08.21,4,4,0,0,1-2.48-1.16,3.27,3.27,0,0,1-.92-2.35,3.09,3.09,0,0,1,.32-1.48,2.25,2.25,0,0,1,.94-0.93,4,4,0,0,1,1.48-.42,8.51,8.51,0,0,1,1.93,0c0.25,0,.52.08,0.79,0.14l1,0.21a2.1,2.1,0,0,0,0-.41v-0.4a1.52,1.52,0,0,0-.46-1.2,2.48,2.48,0,0,0-1.35-.52,6.11,6.11,0,0,0-1.91,0,10.91,10.91,0,0,0-1.44.36Zm3.57,8.17a2.33,2.33,0,0,0,1.49-.18,2,2,0,0,0,.73-0.7v-1.26l-0.62-.17a7.57,7.57,0,0,0-.89-0.17,4.27,4.27,0,0,0-.79,0,2.38,2.38,0,0,0-.7.14,1.16,1.16,0,0,0-.5.35,0.9,0.9,0,0,0-.19.58,1.35,1.35,0,0,0,.34,1A1.81,1.81,0,0,0,168.12,460.3Z"/><path d="M177.07,448.79l4.47,0.54c0,3.88,0,5.82,0,9.7a4.81,4.81,0,0,0,.4,2.29,1.61,1.61,0,0,0,1.28.78,3.42,3.42,0,0,0,1.07,0,3.61,3.61,0,0,0,.84-0.29l1,2c-0.24.13-.48,0.24-0.71,0.35a4.1,4.1,0,0,1-.76.25,4.84,4.84,0,0,1-.87.11,6.84,6.84,0,0,1-1.06-.05,4.46,4.46,0,0,1-3-1.36,4.35,4.35,0,0,1-1-3c0-3.53,0-5.29,0-8.82l-1.74-.21C177.07,450.18,177.07,449.71,177.07,448.79Z"/><path d="M197.39,470.28a10.78,10.78,0,0,1-2.86-1.24,9.78,9.78,0,0,1-2.46-2.14,10.29,10.29,0,0,1-1.71-3,11.54,11.54,0,0,1-.64-4,10.37,10.37,0,0,1,.64-3.82,7.89,7.89,0,0,1,1.71-2.7,7.29,7.29,0,0,1,2.46-1.64,9.55,9.55,0,0,1,2.86-.68l0.5,2.3a8,8,0,0,0-1.67.42,5.26,5.26,0,0,0-1.77,1.09,6.05,6.05,0,0,0-1.42,2,8.06,8.06,0,0,0-.58,3.3,8.25,8.25,0,0,0,.61,3.32,8.35,8.35,0,0,0,1.48,2.34,7.63,7.63,0,0,0,1.79,1.48,8,8,0,0,0,1.55.72Z"/><path d="M205.65,464.68a4.19,4.19,0,0,0,1.27,0,2.67,2.67,0,0,0,1-.4,2.09,2.09,0,0,0,.64-0.69,1.8,1.8,0,0,0,.23-0.91,2.13,2.13,0,0,0-.26-1.08,2.2,2.2,0,0,0-.73-0.75,3.86,3.86,0,0,0-1.11-.47,9.29,9.29,0,0,0-1.41-.25l-1.18-.12c0-.6,0-0.9,0-1.51l3.53-3.95-5.32-.55c0-.92,0-1.39,0-2.31l8.57,0.87c0,0.76,0,1.15,0,1.91l-3.7,3.85,0.48,0a4.44,4.44,0,0,1,1.43.4,4.06,4.06,0,0,1,1.23.88,4.29,4.29,0,0,1,.86,1.35,4.61,4.61,0,0,1,.33,1.78,4,4,0,0,1-.49,2.05,4.14,4.14,0,0,1-1.3,1.39,5,5,0,0,1-1.86.74,7.49,7.49,0,0,1-2.16.08,11.14,11.14,0,0,1-1.89-.36,10,10,0,0,1-1.83-.72l0.74-2.19a3.31,3.31,0,0,0,.51.26l0.73,0.29a8.61,8.61,0,0,0,.84.25A6.08,6.08,0,0,0,205.65,464.68Z"/><path d="M215.57,469.84a6.63,6.63,0,0,0,1.56-.41,5.76,5.76,0,0,0,1.8-1.11,6.32,6.32,0,0,0,1.48-2,7.37,7.37,0,0,0,.61-3.2,8.93,8.93,0,0,0-.58-3.41,8,8,0,0,0-1.42-2.33,7,7,0,0,0-1.78-1.45,9.72,9.72,0,0,0-1.67-.76l0.5-2.2a11.5,11.5,0,0,1,2.86,1.26,9.75,9.75,0,0,1,2.46,2.14,10.29,10.29,0,0,1,1.71,3,11.43,11.43,0,0,1,.64,4,10.44,10.44,0,0,1-.64,3.85,7.89,7.89,0,0,1-1.71,2.7,7.32,7.32,0,0,1-2.46,1.64,9,9,0,0,1-2.86.65Z"/><path d="M382.51,474.42v-2.31l2.49,0v-5.88l-2.51,0c0-.92,0-1.39,0-2.31l2.51,0v-0.59a3.89,3.89,0,0,1,.35-1.71,3.5,3.5,0,0,1,.92-1.19,3.84,3.84,0,0,1,1.32-.71,5.51,5.51,0,0,1,1.55-.25,9.87,9.87,0,0,1,2.39.19,6,6,0,0,1,1.55.57l-0.8,2.1a9.59,9.59,0,0,0-1-.4,4.58,4.58,0,0,0-1.44-.16,2.09,2.09,0,0,0-1.59.54,2.31,2.31,0,0,0-.45,1.55l4.43-.09v2.31l-4.43.09V472l4.45-.09v2.31C388.32,474.33,386.38,474.36,382.51,474.42Z"/><path d="M395.57,464.38a11.89,11.89,0,0,1,2-.7,11.23,11.23,0,0,1,2.63-.34,5.79,5.79,0,0,1,1.87.21,3,3,0,0,1,1.24.71,2.73,2.73,0,0,1,.68,1.14,5,5,0,0,1,.21,1.51q0,1.07-.07,1.83T404,470.08a8.86,8.86,0,0,0,0,1c0,0.19,0,.38.06,0.57l1.37,0v2.31l-3.54.1-0.28-1.42h-0.1a3.78,3.78,0,0,1-1.19,1.16,4.07,4.07,0,0,1-2.1.53,3.49,3.49,0,0,1-2.49-.78,2.8,2.8,0,0,1-.92-2.21,3.38,3.38,0,0,1,.32-1.53,2.82,2.82,0,0,1,.94-1.07,4.61,4.61,0,0,1,1.49-.64,8.82,8.82,0,0,1,1.94-.25c0.25,0,.52,0,0.8,0l1,0.06a2.11,2.11,0,0,0,0-.42V467a1.3,1.3,0,0,0-.46-1.13,2.2,2.2,0,0,0-1.36-.31,6.44,6.44,0,0,0-1.93.32,12.66,12.66,0,0,0-1.44.58Zm3.59,7.62a2.35,2.35,0,0,0,2.23-1.21v-1.26l-0.63-.08a7.36,7.36,0,0,0-.9,0,4.41,4.41,0,0,0-.79.09,2.7,2.7,0,0,0-.71.25,1.45,1.45,0,0,0-.5.42,1,1,0,0,0-.19.61,1.17,1.17,0,0,0,.34.91A1.59,1.59,0,0,0,399.16,472Z"/><path d="M417.83,472.47a6.31,6.31,0,0,1-2,1.05,9,9,0,0,1-2.42.41,6.77,6.77,0,0,1-2.44-.32,4.74,4.74,0,0,1-1.79-1.06,4.57,4.57,0,0,1-1.11-1.72,6.41,6.41,0,0,1-.38-2.26,6,6,0,0,1,.44-2.37,5.17,5.17,0,0,1,1.23-1.78,5.56,5.56,0,0,1,1.87-1.14,7.38,7.38,0,0,1,2.34-.45,8.58,8.58,0,0,1,2.21.19,10,10,0,0,1,1.58.47v3.7l-2.32.09v-1.93a5.92,5.92,0,0,0-1.31-.1,4,4,0,0,0-1.17.22,3,3,0,0,0-1,.6,3.12,3.12,0,0,0-.74,1,3.27,3.27,0,0,0-.28,1.42,3.18,3.18,0,0,0,.23,1.23,2.82,2.82,0,0,0,.65,1,2.85,2.85,0,0,0,1,.63,3.72,3.72,0,0,0,1.38.19,5,5,0,0,0,2-.41,8.32,8.32,0,0,0,1.15-.63Z"/><path d="M421.42,465.15l-2.09.08v-2.31l2.09-.08v-2.39l2.74-.89v3.17l5.52-.24v2.31l-5.52.24v3a3.5,3.5,0,0,0,.61,2.31,2,2,0,0,0,1.71.65,3.69,3.69,0,0,0,1-.18,4.09,4.09,0,0,0,.83-0.38,5.12,5.12,0,0,0,.67-0.49l0.56-.49,1.26,1.83a4.34,4.34,0,0,1-.9.81,8,8,0,0,1-1.16.66,7.58,7.58,0,0,1-1.3.47,6.3,6.3,0,0,1-1.33.21,4.38,4.38,0,0,1-3.55-1.16,5.89,5.89,0,0,1-1.19-4.12v-3Z"/><path d="M432.36,467.61a6.61,6.61,0,0,1,.4-2.37,5.13,5.13,0,0,1,1.14-1.8,5.21,5.21,0,0,1,1.76-1.17,7,7,0,0,1,2.29-.48,6.48,6.48,0,0,1,2.37.28,4.57,4.57,0,0,1,1.76,1,4.4,4.4,0,0,1,1.08,1.69,6.5,6.5,0,0,1,.37,2.25,6.64,6.64,0,0,1-.4,2.37,5.11,5.11,0,0,1-2.9,3,6.91,6.91,0,0,1-2.29.49,6.42,6.42,0,0,1-2.37-.28,4.57,4.57,0,0,1-1.76-1,4.43,4.43,0,0,1-1.08-1.7A6.52,6.52,0,0,1,432.36,467.61Zm2.82-.14a4.06,4.06,0,0,0,.19,1.27,3,3,0,0,0,.55,1,2.29,2.29,0,0,0,.86.64,2.59,2.59,0,0,0,1.16.18,2.82,2.82,0,0,0,2-.88,3.54,3.54,0,0,0,.77-2.5,3.48,3.48,0,0,0-.72-2.3,2.35,2.35,0,0,0-2-.79,3.39,3.39,0,0,0-1.1.23,2.29,2.29,0,0,0-.87.62,3,3,0,0,0-.58,1A4.62,4.62,0,0,0,435.18,467.47Z"/><path d="M445.08,469.88l2.61-.15v-5.88l-2.61.15v-2.31l4.74-.27,0.32,1.37h0.08a6.07,6.07,0,0,1,1.35-1.24,3.5,3.5,0,0,1,1.77-.57,2.25,2.25,0,0,1,2,.8,4.85,4.85,0,0,1,.73,3l-2.46.15a2,2,0,0,0-.22-1.09,0.73,0.73,0,0,0-.71-0.3,2.2,2.2,0,0,0-1.36.5,4.64,4.64,0,0,0-.87,1v4.47l4.57-.28v2.31c-4,.25-6,0.37-9.92.59v-2.31Z"/><path d="M458.14,469.09l3.71-.25V463l-3.71.25V460.9l6.44-.43v8.19l3.89-.27c0,0.92,0,1.39,0,2.31-4.13.3-6.2,0.44-10.34,0.71v-2.31Zm3.2-11.26a1.59,1.59,0,0,1,.48-1.14,2,2,0,0,1,1.35-.55,2,2,0,0,1,1.41.36,1.33,1.33,0,0,1,.53,1.08,1.47,1.47,0,0,1-.53,1.14,2.3,2.3,0,0,1-1.41.53,1.85,1.85,0,0,1-1.35-.34A1.31,1.31,0,0,1,461.34,457.83Z"/><path d="M471.43,460.69a12.46,12.46,0,0,1,1.95-.8,11.45,11.45,0,0,1,2.62-.47,5.69,5.69,0,0,1,1.86.12,2.83,2.83,0,0,1,1.24.65,2.55,2.55,0,0,1,.68,1.1,4.87,4.87,0,0,1,.21,1.49q0,1.07-.07,1.83T479.85,466a8.78,8.78,0,0,0,0,1c0,0.19,0,.38.06,0.56l1.37-.11v2.31l-3.53.28-0.28-1.41h-0.1a4.06,4.06,0,0,1-1.19,1.22,4.21,4.21,0,0,1-2.09.63,3.34,3.34,0,0,1-2.49-.65,2.66,2.66,0,0,1-.92-2.16,3.49,3.49,0,0,1,.32-1.55A3,3,0,0,1,472,465a4.87,4.87,0,0,1,1.48-.72,9,9,0,0,1,1.93-.35c0.25,0,.52,0,0.79,0h1a2.14,2.14,0,0,0,0-.42v-0.4a1.24,1.24,0,0,0-.46-1.11,2.13,2.13,0,0,0-1.36-.24,6.6,6.6,0,0,0-1.92.42,13.34,13.34,0,0,0-1.44.65Zm3.58,7.44a2.67,2.67,0,0,0,1.5-.48,2.76,2.76,0,0,0,.73-0.84v-1.26l-0.62,0a7.32,7.32,0,0,0-.89,0,4.48,4.48,0,0,0-.79.13,2.84,2.84,0,0,0-.71.28,1.56,1.56,0,0,0-.5.45,1.05,1.05,0,0,0-.19.62,1.11,1.11,0,0,0,.34.89A1.53,1.53,0,0,0,475,468.13Z"/><path d="M484,454.8l4.48-.37c0,3.88,0,5.82,0,9.7a4.28,4.28,0,0,0,.4,2.21,1.29,1.29,0,0,0,1.28.52,3.66,3.66,0,0,0,1.07-.23,4.49,4.49,0,0,0,.84-0.46l1,1.8q-0.36.26-.71,0.49a5.12,5.12,0,0,1-.76.4,5.6,5.6,0,0,1-.87.29,7.15,7.15,0,0,1-1.06.17,3.71,3.71,0,0,1-3-.76,3.62,3.62,0,0,1-1-2.77V457l-1.75.14C484,456.18,484,455.72,484,454.8Z"/><path d="M496.42,470.88c3.73-.34,5.6-0.51,9.34-0.87,0,0.9,0,1.35,0,2.25-3.73.36-5.6,0.54-9.34,0.87v-2.25Z"/><path d="M507.4,452.69l4.25-.42v5.38h0.08a4.12,4.12,0,0,1,1.34-1.21,4.91,4.91,0,0,1,2-.6,4.81,4.81,0,0,1,1.47.06,2.44,2.44,0,0,1,1.15.57,2.85,2.85,0,0,1,.76,1.23,6.35,6.35,0,0,1,.27,2v6.53l-2.73.29v-6a2.39,2.39,0,0,0-.55-1.79,1.73,1.73,0,0,0-1.43-.42,2.63,2.63,0,0,0-1.43.62,3,3,0,0,0-.92,1.3V467l-2.73.27c0-5,0-7.43,0-12.39l-1.51.15v-2.31Z"/><path d="M531.22,463.76a4.41,4.41,0,0,1-.7.57,7.8,7.8,0,0,1-1,.57,8.63,8.63,0,0,1-2.74.77,6.87,6.87,0,0,1-2.4-.11,4,4,0,0,1-2.92-2.53,6.14,6.14,0,0,1-.39-2.28,6.54,6.54,0,0,1,.44-2.47,5.63,5.63,0,0,1,1.21-1.86,5.84,5.84,0,0,1,1.8-1.23,7.45,7.45,0,0,1,2.23-.59,6.75,6.75,0,0,1,1.65,0,4,4,0,0,1,1.56.55,3.29,3.29,0,0,1,1.17,1.24,4.37,4.37,0,0,1,.45,2.13,10.39,10.39,0,0,1-.21,2l-7.56.84a2.24,2.24,0,0,0,.28,1.1,1.91,1.91,0,0,0,.69.68,2.67,2.67,0,0,0,1,.32,4.86,4.86,0,0,0,1.19,0,6.51,6.51,0,0,0,2.07-.52,5.06,5.06,0,0,0,1.31-.86Zm-4.54-7a3.69,3.69,0,0,0-1,.26,3.3,3.3,0,0,0-.87.53,2.82,2.82,0,0,0-.64.79,2.42,2.42,0,0,0-.29,1l5.17-.57a2.09,2.09,0,0,0-.58-1.59A2.12,2.12,0,0,0,526.68,456.77Z"/><path d="M534.43,449.8l4.47-.53c0,3.88,0,5.82,0,9.7a4.21,4.21,0,0,0,.4,2.2,1.24,1.24,0,0,0,1.28.48,3.73,3.73,0,0,0,1.07-.27,4.67,4.67,0,0,0,.84-0.49l1,1.77q-0.36.28-.71,0.52a5.34,5.34,0,0,1-.75.43,5.75,5.75,0,0,1-.87.32,7.24,7.24,0,0,1-1.06.2,3.61,3.61,0,0,1-3-.66,3.51,3.51,0,0,1-1-2.74v-8.82l-1.74.2V449.8Z"/><path d="M545.19,452.71l3.57-.44,0.31,1.22h0.08a4.63,4.63,0,0,1,3.52-2,4.79,4.79,0,0,1,1.77.08,2.91,2.91,0,0,1,1.38.78,3.82,3.82,0,0,1,.89,1.52,7.48,7.48,0,0,1,.31,2.33,8.17,8.17,0,0,1-.36,2.47,6.06,6.06,0,0,1-1,2A5.28,5.28,0,0,1,554,462a6.21,6.21,0,0,1-2.2.68,8.53,8.53,0,0,1-1.28.07,3.22,3.22,0,0,1-1-.17c0,1.72,0,2.58,0,4.31l-2.73.34V454.83l-1.57.19v-2.31Zm6.67,1.18a3.1,3.1,0,0,0-1.46.58,2.46,2.46,0,0,0-.91,1.31v4.37a2,2,0,0,0,.85.26,4.58,4.58,0,0,0,1.12,0,3.18,3.18,0,0,0,1.09-.34,2.67,2.67,0,0,0,.88-0.75,3.62,3.62,0,0,0,.59-1.19,5.77,5.77,0,0,0,.21-1.64,2.79,2.79,0,0,0-.67-2.05A1.93,1.93,0,0,0,551.86,453.89Z"/><path d="M569,459a4.55,4.55,0,0,1-.7.59,8,8,0,0,1-1,.59,8.8,8.8,0,0,1-1.27.51,8.66,8.66,0,0,1-1.47.33,6.82,6.82,0,0,1-2.4-.05,3.91,3.91,0,0,1-2.91-2.46,6.08,6.08,0,0,1-.39-2.27,6.63,6.63,0,0,1,.44-2.48,5.82,5.82,0,0,1,1.2-1.89,6,6,0,0,1,1.79-1.28,7.54,7.54,0,0,1,2.22-.65,6.71,6.71,0,0,1,1.64,0,3.9,3.9,0,0,1,1.56.51,3.17,3.17,0,0,1,1.16,1.21,4.31,4.31,0,0,1,.45,2.12,10.51,10.51,0,0,1-.21,2l-7.54,1a2.2,2.2,0,0,0,.28,1.1,1.84,1.84,0,0,0,.69.66,2.6,2.6,0,0,0,1,.3,4.84,4.84,0,0,0,1.18,0,6.61,6.61,0,0,0,2.06-.58,5.22,5.22,0,0,0,1.31-.9Zm-4.52-6.87a3.75,3.75,0,0,0-1,.29,3.4,3.4,0,0,0-.87.56,2.92,2.92,0,0,0-.64.8,2.48,2.48,0,0,0-.29,1l5.15-.7a2,2,0,0,0-.58-1.58A2.07,2.07,0,0,0,564.43,452.11Z"/><path d="M571.16,457.47l2.6-.37v-5.88l-2.6.37v-2.31l4.71-.67,0.31,1.34h0.08a6.86,6.86,0,0,1,1.34-1.35,3.75,3.75,0,0,1,1.76-.72,2.07,2.07,0,0,1,2,.63,4.59,4.59,0,0,1,.72,3l-2.45.36a2,2,0,0,0-.22-1.07,0.67,0.67,0,0,0-.7-0.24,2.38,2.38,0,0,0-1.35.62,5.23,5.23,0,0,0-.87,1.09v4.47l4.54-.66v2.31c-3.94.58-5.91,0.87-9.86,1.42v-2.31Z"/><path d="M592.41,461.09a8.65,8.65,0,0,1-2.84-.48,6.73,6.73,0,0,1-2.45-1.5,7.27,7.27,0,0,1-1.71-2.6,10.19,10.19,0,0,1-.64-3.81,11.81,11.81,0,0,1,.64-4,11.09,11.09,0,0,1,1.71-3.15,10.62,10.62,0,0,1,2.45-2.28,12.2,12.2,0,0,1,2.84-1.43l0.5,2.17a10.31,10.31,0,0,0-1.66.86,7.58,7.58,0,0,0-1.77,1.55,8.6,8.6,0,0,0-1.41,2.41,9.25,9.25,0,0,0-.57,3.45,7.17,7.17,0,0,0,.61,3.16,5.81,5.81,0,0,0,1.48,1.95,5.31,5.31,0,0,0,1.79,1,6.32,6.32,0,0,0,1.55.32Z"/><path d="M600.63,453.32a4.72,4.72,0,0,0,1.26-.38,3.66,3.66,0,0,0,1-.66,3.06,3.06,0,0,0,.64-0.86,2.17,2.17,0,0,0,.23-1,1.78,1.78,0,0,0-.26-1,1.49,1.49,0,0,0-.72-0.56,3.1,3.1,0,0,0-1.11-.18,8.86,8.86,0,0,0-1.4.12l-1.17.19V447.5l3.51-4.88-5.29.85v-2.31l8.52-1.38v1.91l-3.68,4.82,0.48-.08a3.93,3.93,0,0,1,1.42,0,2.87,2.87,0,0,1,1.22.56,3,3,0,0,1,.86,1.12,4,4,0,0,1,.32,1.69A4.82,4.82,0,0,1,606,452a6.05,6.05,0,0,1-1.29,1.74,6.78,6.78,0,0,1-1.85,1.23,8.42,8.42,0,0,1-2.15.65,10.52,10.52,0,0,1-1.88.13,8.17,8.17,0,0,1-1.82-.24l0.73-2.38a2.55,2.55,0,0,0,.51.13l0.73,0.09a7.59,7.59,0,0,0,.84,0A5.8,5.8,0,0,0,600.63,453.32Z"/><path d="M612.53,452a1.7,1.7,0,0,1,.47-1.21,2,2,0,0,1,1.18-.62,1.77,1.77,0,0,1,1.73.46,2.56,2.56,0,0,1,.58,1.77,4.43,4.43,0,0,1-.37,1.79,5.77,5.77,0,0,1-.95,1.51,6.61,6.61,0,0,1-1.3,1.15,6.33,6.33,0,0,1-1.43.73l-0.56-1.06a7.3,7.3,0,0,0,1-.53,5.17,5.17,0,0,0,.93-0.74,4.13,4.13,0,0,0,.7-0.93,2.59,2.59,0,0,0,.32-1.06,2.78,2.78,0,0,1-1.06.21,1.35,1.35,0,0,1-.72-0.21,1.09,1.09,0,0,1-.41-0.52A2,2,0,0,1,612.53,452Z"/><path d="M631.4,450.05c-3.72.68-5.58,1-9.3,1.66v-2l0.63-.67,0.84-.94q0.47-.52,1-1.14t1-1.27q0.71-.92,1.24-1.67a13.32,13.32,0,0,0,.88-1.39,6.18,6.18,0,0,0,.51-1.23,4.29,4.29,0,0,0,.17-1.17,1.69,1.69,0,0,0-.19-0.79,1.72,1.72,0,0,0-.52-0.61,2,2,0,0,0-.8-0.34,2.75,2.75,0,0,0-1,0,4.38,4.38,0,0,0-1.36.47,6,6,0,0,0-1.28,1l-1.08-1.74a11.67,11.67,0,0,1,1.95-1.4,7.56,7.56,0,0,1,2.47-.87,5.69,5.69,0,0,1,1.72-.06,3.73,3.73,0,0,1,1.46.48,2.78,2.78,0,0,1,1,1,3.28,3.28,0,0,1,.38,1.63,6.81,6.81,0,0,1-.11,1.27,7.12,7.12,0,0,1-.35,1.22,9.81,9.81,0,0,1-.62,1.3q-0.39.68-.93,1.49-0.42.62-.91,1.27t-1,1.23q-0.48.59-.95,1.12t-0.84.89l6-1.08v2.31Z"/><path d="M635.5,451.46a8.66,8.66,0,0,0,1.54-.84,8.53,8.53,0,0,0,1.78-1.61,9.28,9.28,0,0,0,1.47-2.45,8.65,8.65,0,0,0,.6-3.37,7.8,7.8,0,0,0-.57-3.25,5.44,5.44,0,0,0-1.41-1.93,4.71,4.71,0,0,0-1.76-1,7.55,7.55,0,0,0-1.66-.29l0.5-2.34a9,9,0,0,1,2.83.46,6.52,6.52,0,0,1,2.44,1.45,7.12,7.12,0,0,1,1.7,2.57,10.05,10.05,0,0,1,.64,3.77,12.06,12.06,0,0,1-.64,4,11.36,11.36,0,0,1-1.7,3.18,10.89,10.89,0,0,1-2.44,2.33,11.63,11.63,0,0,1-2.83,1.45Z"/></svg>