<svg id="Layer_1" data-name="Layer 1" xmlns="http://www.w3.org/2000/svg" viewBox="0 0 720 576"><defs><style>.cls-1,.cls-2,.cls-4,.cls-6{fill:#231f20;}.cls-1,.cls-3{stroke:#231f20;}.cls-1,.cls-6{stroke-miterlimit:10;}.cls-1,.cls-2,.cls-3{stroke-width:2px;}.cls-2{stroke:#000;}.cls-2,.cls-3{stroke-linecap:round;stroke-linejoin:round;}.cls-3,.cls-5{fill:#fff;}.cls-6{stroke:#fff;}</style></defs><title>Hanoi_Tower_Set_5</title><path class="cls-1" d="M687.09,506.49c0-.14,0-0.29,0-0.43s0-.29,0-0.43V453.84H41.21S41,505.57,41,506.06c0,2.67,2.32,5.24,6.64,7.71,15.13,8.61,55.2,16.11,111,21.48S286,543.84,364,543.84c89.17,0,169.9-4.21,228.35-11,29.22-3.41,52.88-7.46,69.24-12,8.18-2.25,14.54-4.62,18.86-7.08,3.69-2.1,5.91-4.29,6.48-6.55h0.11v-0.73Z"/><ellipse class="cls-2" cx="364.05" cy="454.92" rx="322.89" ry="37.63"/><path class="cls-3" d="M687.09,455c0-.14,0-0.29,0-0.43s0-.29,0-0.43V402.36H41.21S41,454.1,41,454.58c0,2.67,2.32,5.24,6.64,7.71,15.13,8.61,55.2,16.11,111,21.48S286,492.36,364,492.36c89.17,0,169.9-4.21,228.35-11,29.22-3.41,52.88-7.46,69.24-12,8.18-2.25,14.54-4.62,18.86-7.08,3.69-2.1,5.91-4.29,6.48-6.55h0.11V455Z"/><ellipse class="cls-3" cx="364.05" cy="403.44" rx="322.89" ry="37.63"/><path class="cls-3" d="M687.09,403.53c0-.14,0-0.29,0-0.43s0-.29,0-0.43V350.88H41.21S41,402.62,41,403.1c0,2.67,2.32,5.24,6.64,7.71,15.13,8.61,55.2,16.11,111,21.48S286,440.88,364,440.88c89.17,0,169.9-4.21,228.35-11,29.22-3.41,52.88-7.46,69.24-12,8.18-2.25,14.54-4.62,18.86-7.08,3.69-2.1,5.91-4.29,6.48-6.55h0.11v-0.73Z"/><ellipse class="cls-3" cx="364.05" cy="351.97" rx="322.89" ry="37.63"/><path class="cls-3" d="M687.09,352.06c0-.14,0-0.29,0-0.43s0-.29,0-0.43V299.4H41.21S41,351.14,41,351.62c0,2.67,2.32,5.24,6.64,7.71,15.13,8.61,55.2,16.11,111,21.48S286,389.4,364,389.4c89.17,0,169.9-4.21,228.35-11,29.22-3.41,52.88-7.46,69.24-12,8.18-2.25,14.54-4.62,18.86-7.08,3.69-2.1,5.91-4.29,6.48-6.55h0.11v-0.73Z"/><ellipse class="cls-3" cx="364.05" cy="300.49" rx="322.89" ry="37.63"/><path class="cls-3" d="M687.09,302.06c0-.14,0-0.29,0-0.43s0-.29,0-0.43V249.4H41.21S41,301.14,41,301.62c0,2.67,2.32,5.24,6.64,7.71,15.13,8.61,55.2,16.11,111,21.48S286,339.4,364,339.4c89.17,0,169.9-4.21,228.35-11,29.22-3.41,52.88-7.46,69.24-12,8.18-2.25,14.54-4.62,18.86-7.08,3.69-2.1,5.91-4.29,6.48-6.55h0.11v-0.73Z"/><ellipse class="cls-3" cx="364.05" cy="250.49" rx="322.89" ry="37.63"/><path class="cls-4" d="M365.08,259.78c-16,0-29-3.75-30.2-8.61h-0.08l0-.5V8.27H395.4V251.17h-0.12C394.05,256,381.05,259.78,365.08,259.78Z"/><path class="cls-5" d="M394.9,8.77v241.9h0c-0.49,4.78-13.63,8.61-29.79,8.61s-29.3-3.83-29.79-8.61h0v-0.21s0,0,0-.06,0,0,0-.06V8.77H394.9m1-1H334.27V250.29s0,0.07,0,.11v1.27h0.23c2,5.6,16.84,8.61,30.58,8.61s28.6-3,30.58-8.61h0.21l0-1V7.77h0Z"/><ellipse class="cls-6" cx="365.08" cy="8.89" rx="29.81" ry="8.89"/><path d="M52.42,343.49l3,0.56v-6.72l-3-.56v-2.64l5.35,1,0.36,1.65,0.09,0a4.87,4.87,0,0,1,1.52-1,3.42,3.42,0,0,1,2-.16A3.36,3.36,0,0,1,64,337.09a6.6,6.6,0,0,1,.82,3.68L62,340.26a2.71,2.71,0,0,0-.25-1.31,1.09,1.09,0,0,0-.8-0.54,2.09,2.09,0,0,0-1.54.2,3.64,3.64,0,0,0-1,.92v5.11l5.17,1v2.64c-4.49-.82-6.73-1.24-11.21-2.1v-2.64Z"/><path d="M78.49,349.62a3.34,3.34,0,0,1-.8.43,6.65,6.65,0,0,1-1.14.32,8.07,8.07,0,0,1-1.44.13,9.17,9.17,0,0,1-1.67-.15,9.05,9.05,0,0,1-2.73-.92,6.91,6.91,0,0,1-3.31-3.85,8.14,8.14,0,0,1-.44-2.73,6.44,6.44,0,0,1,.5-2.68,4.29,4.29,0,0,1,1.37-1.73,4.64,4.64,0,0,1,2-.82,7.58,7.58,0,0,1,2.53.05,8.64,8.64,0,0,1,1.87.57A6.36,6.36,0,0,1,77,339.37a5.72,5.72,0,0,1,1.32,1.8,6,6,0,0,1,.51,2.59,10.88,10.88,0,0,1-.24,2.19l-8.58-1.52a3.16,3.16,0,0,0,.32,1.35,3.34,3.34,0,0,0,.79,1,4.25,4.25,0,0,0,1.12.69,6.16,6.16,0,0,0,1.35.4A6.7,6.7,0,0,0,76,348a4.09,4.09,0,0,0,1.49-.55Zm-5.15-9.47a3.8,3.8,0,0,0-1.17,0,2.69,2.69,0,0,0-1,.33,2.1,2.1,0,0,0-.73.69,2.2,2.2,0,0,0-.33,1l5.86,1a3.1,3.1,0,0,0-.66-2A3.15,3.15,0,0,0,73.34,340.15Z"/><path d="M93.09,352.22a5.74,5.74,0,0,1-2.29.74,9.71,9.71,0,0,1-2.74-.09,8.69,8.69,0,0,1-2.76-.92,7.13,7.13,0,0,1-2-1.63A6.8,6.8,0,0,1,82,348.09a8.17,8.17,0,0,1-.43-2.67,6.19,6.19,0,0,1,.5-2.6,4.45,4.45,0,0,1,1.39-1.75,4.92,4.92,0,0,1,2.11-.88,7.81,7.81,0,0,1,2.65,0,10.76,10.76,0,0,1,2.5.73,14,14,0,0,1,1.79.9v4.22l-2.63-.44v-2.21a7.4,7.4,0,0,0-1.48-.42,4.31,4.31,0,0,0-1.32,0,2.59,2.59,0,0,0-2,1.42,3.34,3.34,0,0,0-.32,1.55,4.07,4.07,0,0,0,.26,1.46A4.17,4.17,0,0,0,87,349.65a4.79,4.79,0,0,0,1.56.54,5.3,5.3,0,0,0,2.23,0,7.27,7.27,0,0,0,1.3-.46Z"/><path d="M102.25,342.86l4.44,0.7v9.36l1.82,0.28v2.64l-3.77-.59-0.55-1.86-0.1,0a3.36,3.36,0,0,1-1.65,1.25,4.61,4.61,0,0,1-2.43.21,6,6,0,0,1-1.66-.51,3.73,3.73,0,0,1-1.28-1,4.48,4.48,0,0,1-.81-1.62,8.69,8.69,0,0,1-.29-2.4c0-1.93,0-2.89,0-4.82l-1.36-.22v-2.64l4.46,0.73c0,2.73,0,4.09,0,6.82a4.1,4.1,0,0,0,.46,2.19,2,2,0,0,0,1.47.88,2.31,2.31,0,0,0,1.59-.27,2.26,2.26,0,0,0,1-1.14v-5.11l-1.34-.21v-2.64Z"/><path d="M109.63,353.38l3,0.46c0-2.69,0-4,0-6.72l-3-.46V344l5.38,0.82,0.36,1.64h0.1A5.14,5.14,0,0,1,117,345.4a3.48,3.48,0,0,1,2-.23,3.23,3.23,0,0,1,2.26,1.39,6.43,6.43,0,0,1,.83,3.65l-2.8-.41a2.65,2.65,0,0,0-.25-1.3,1,1,0,0,0-.8-0.52,2.14,2.14,0,0,0-1.54.25,3.84,3.84,0,0,0-1,1v5.11l5.19,0.78v2.64c-4.51-.67-6.76-1-11.26-1.7v-2.64Z"/><path d="M133.93,364.68a12.66,12.66,0,0,1-3.25-1.51,11.69,11.69,0,0,1-2.8-2.54,12.24,12.24,0,0,1-2-3.54,13.42,13.42,0,0,1-.73-4.57,11.69,11.69,0,0,1,.73-4.35,8.64,8.64,0,0,1,2-3,8,8,0,0,1,2.8-1.78,10.64,10.64,0,0,1,3.25-.67l0.57,2.65a9,9,0,0,0-1.9.42,5.75,5.75,0,0,0-2,1.18,6.62,6.62,0,0,0-1.61,2.28,9.07,9.07,0,0,0-.66,3.75,9.61,9.61,0,0,0,.69,3.82,10,10,0,0,0,1.69,2.72,9.16,9.16,0,0,0,2,1.75,9.46,9.46,0,0,0,1.77.88Z"/><path d="M143.07,358.42a5.1,5.1,0,0,0,1.46,0,3.18,3.18,0,0,0,1.16-.4,2.1,2.1,0,0,0,.77-0.79,2.35,2.35,0,0,0,.28-1.16,2.8,2.8,0,0,0-1-2.21,6,6,0,0,0-3.12-1.17l-0.61-.07-0.66-.05-0.74-.08c0-3.51,0-5.27,0-8.78l8.67,1.15c0,1.17,0,1.76,0,2.93l-6-.79c0,1.3,0,1.94,0,3.24l0.38,0,0.32,0,0.27,0a7.55,7.55,0,0,1,2.23.64,6,6,0,0,1,1.8,1.28,5.65,5.65,0,0,1,1.19,1.85,6,6,0,0,1,.42,2.25,5.12,5.12,0,0,1-.53,2.42,4.26,4.26,0,0,1-1.44,1.6,5.57,5.57,0,0,1-2.11.81,8.3,8.3,0,0,1-2.56,0,6.71,6.71,0,0,1-1.12-.26q-0.6-.19-1.17-0.42c-0.38-.16-0.74-0.32-1.06-0.49s-0.6-.33-0.83-0.47l1-2.36a8.34,8.34,0,0,0,1.26.7A6,6,0,0,0,143.07,358.42Z"/><path d="M157,361.12a1.45,1.45,0,0,1,.54-1.23,1.78,1.78,0,0,1,1.35-.31,2.72,2.72,0,0,1,2,1.11,3.73,3.73,0,0,1,.67,2.22,4.21,4.21,0,0,1-.42,1.92,4.39,4.39,0,0,1-1.09,1.4,5,5,0,0,1-1.5.87,5.54,5.54,0,0,1-1.64.35l-0.65-1.4a6.31,6.31,0,0,0,1.16-.26,4,4,0,0,0,1.07-.53,3.09,3.09,0,0,0,.8-0.82,2.3,2.3,0,0,0,.37-1.11,3.09,3.09,0,0,1-1.22-.11,2.16,2.16,0,0,1-.83-0.49,1.87,1.87,0,0,1-.47-0.73A2.61,2.61,0,0,1,157,361.12Z"/><path d="M180,360.69l-2.88-.32c0,1.87,0,2.81,0,4.68l-2.9-.33c0-1.87,0-2.81,0-4.68l-7.27-.85v-2.14l7.6-9.21,2.57,0.29c0,3.9,0,5.85,0,9.74L180,358.2v2.5Zm-5.78-8.48L170,357.06l4.17,0.48C174.21,355.41,174.21,354.35,174.21,352.22Z"/><path d="M183.42,368.23a7.45,7.45,0,0,0,1.78-.44,6.47,6.47,0,0,0,2.05-1.24,7.09,7.09,0,0,0,1.69-2.3,8.35,8.35,0,0,0,.7-3.65,10.29,10.29,0,0,0-.66-3.91,9.27,9.27,0,0,0-1.62-2.68,8.14,8.14,0,0,0-2-1.68,11.31,11.31,0,0,0-1.91-.89l0.58-2.51a13.35,13.35,0,0,1,3.26,1.48,11.39,11.39,0,0,1,2.81,2.48,12,12,0,0,1,2,3.51,13.14,13.14,0,0,1,.73,4.53,11.86,11.86,0,0,1-.73,4.39,8.84,8.84,0,0,1-2,3.06,8.22,8.22,0,0,1-2.81,1.84,10.2,10.2,0,0,1-3.26.7Z"/><path d="M348.31,375.52c0-1.06,0-1.58,0-2.64l2.84,0v-6.72l-2.87,0v-2.64l2.87,0c0-.27,0-0.4,0-0.67a4.37,4.37,0,0,1,.4-1.94,3.85,3.85,0,0,1,1-1.34,4.29,4.29,0,0,1,1.51-.77,6.26,6.26,0,0,1,1.77-.24,11.35,11.35,0,0,1,2.73.29,7,7,0,0,1,1.77.69l-0.91,2.37a11.12,11.12,0,0,0-1.19-.48,5.28,5.28,0,0,0-1.65-.22,2.33,2.33,0,0,0-1.82.58,2.59,2.59,0,0,0-.52,1.76l5.06,0c0,1.06,0,1.58,0,2.64l-5.06,0v6.72l5.08,0v2.64C354.95,375.57,352.74,375.56,348.31,375.52Z"/><path d="M363.23,364.41a13.41,13.41,0,0,1,2.23-.74,12.76,12.76,0,0,1,3-.32,6.68,6.68,0,0,1,2.13.29,3.55,3.55,0,0,1,1.42.85,3.23,3.23,0,0,1,.78,1.32,5.78,5.78,0,0,1,.24,1.73q0,1.22-.08,2.09c-0.06.58-.08,1.09-0.08,1.54a10.3,10.3,0,0,0,0,1.13c0,0.22.06,0.44,0.07,0.65h1.57c0,1.06,0,1.58,0,2.64l-4,0-0.32-1.63h-0.12a4.15,4.15,0,0,1-1.37,1.29,4.58,4.58,0,0,1-2.4.55,4.06,4.06,0,0,1-2.85-1,3.27,3.27,0,0,1-1.06-2.54,3.8,3.8,0,0,1,.37-1.74,3.13,3.13,0,0,1,1.08-1.2,5.14,5.14,0,0,1,1.7-.7,10,10,0,0,1,2.22-.23,9,9,0,0,1,.91,0l1.18,0.09a2.48,2.48,0,0,0,0-.48v-0.46a1.53,1.53,0,0,0-.53-1.31,2.57,2.57,0,0,0-1.56-.39,7.32,7.32,0,0,0-2.2.32,14.28,14.28,0,0,0-1.65.62Zm4.1,8.81a2.89,2.89,0,0,0,1.71-.42,2.84,2.84,0,0,0,.84-0.9v-1.44l-0.72-.11a8.28,8.28,0,0,0-1-.06,5,5,0,0,0-.91.09,3,3,0,0,0-.81.27,1.6,1.6,0,0,0-.57.47,1.14,1.14,0,0,0-.21.7,1.37,1.37,0,0,0,.39,1A1.86,1.86,0,0,0,367.34,373.21Z"/><path d="M388.69,374.26a7,7,0,0,1-2.31,1.15,10.19,10.19,0,0,1-2.77.41,7.85,7.85,0,0,1-2.78-.42,5.6,5.6,0,0,1-2.05-1.27,5.39,5.39,0,0,1-1.27-2,7.42,7.42,0,0,1-.43-2.59,6.77,6.77,0,0,1,.51-2.69,5.75,5.75,0,0,1,1.41-2,6.19,6.19,0,0,1,2.13-1.26,8.31,8.31,0,0,1,2.68-.45,9.91,9.91,0,0,1,2.53.28,11.72,11.72,0,0,1,1.81.57c0,1.69,0,2.53,0,4.22l-2.65,0V366a6.84,6.84,0,0,0-1.49-.15,4.58,4.58,0,0,0-1.34.22,3.33,3.33,0,0,0-1.18.66,3.44,3.44,0,0,0-.84,1.12,4,4,0,0,0-.06,3,3.26,3.26,0,0,0,1.94,1.86,4.31,4.31,0,0,0,1.58.26,5.7,5.7,0,0,0,2.25-.41,9.06,9.06,0,0,0,1.31-.69Z"/><path d="M392.79,366l-2.39,0v-2.64l2.39,0c0-1.09,0-1.64,0-2.74l3.13-.94v3.62l6.32-.13c0,1.06,0,1.58,0,2.64l-6.32.13v3.43a4.07,4.07,0,0,0,.7,2.66,2.37,2.37,0,0,0,2,.79,4.19,4.19,0,0,0,1.18-.18,4.57,4.57,0,0,0,1-.42,5.58,5.58,0,0,0,.77-0.55l0.64-.54,1.45,2.13a4.75,4.75,0,0,1-1,.9,9,9,0,0,1-1.33.73,8.48,8.48,0,0,1-1.48.5,7.21,7.21,0,0,1-1.52.2,5.11,5.11,0,0,1-4.06-1.42q-1.36-1.48-1.36-4.74C392.79,368,392.79,367.36,392.79,366Z"/><path d="M405.3,369.08a7.46,7.46,0,0,1,.46-2.7,5.71,5.71,0,0,1,1.3-2,5.79,5.79,0,0,1,2-1.29,7.85,7.85,0,0,1,2.61-.49,7.49,7.49,0,0,1,2.71.38,5.38,5.38,0,0,1,2,1.22,5.19,5.19,0,0,1,1.24,2,8.16,8.16,0,0,1,0,5.28,5.66,5.66,0,0,1-3.31,3.33,7.78,7.78,0,0,1-2.61.5,7.44,7.44,0,0,1-2.71-.38,5.4,5.4,0,0,1-2-1.23,5.22,5.22,0,0,1-1.24-2A7.54,7.54,0,0,1,405.3,369.08Zm3.23-.08a4.67,4.67,0,0,0,.22,1.46,3.48,3.48,0,0,0,.63,1.16,2.73,2.73,0,0,0,1,.75,3,3,0,0,0,1.33.24,3.15,3.15,0,0,0,2.28-1,4,4,0,0,0,.88-2.84,4,4,0,0,0-.82-2.65,2.75,2.75,0,0,0-2.34-1,3.82,3.82,0,0,0-1.25.24,2.57,2.57,0,0,0-1,.69,3.37,3.37,0,0,0-.66,1.17A5.22,5.22,0,0,0,408.52,369Z"/><path d="M419.85,372l3-.1c0-2.69,0-4,0-6.72l-3,.1v-2.64l5.42-.19,0.36,1.57h0.1a6.74,6.74,0,0,1,1.54-1.38,3.94,3.94,0,0,1,2-.61,2.63,2.63,0,0,1,2.28,1,5.63,5.63,0,0,1,.83,3.49l-2.82.11a2.35,2.35,0,0,0-.25-1.25,0.85,0.85,0,0,0-.81-0.36,2.46,2.46,0,0,0-1.55.54,5.1,5.1,0,0,0-1,1.14v5.11l5.23-.2v2.64c-4.54.18-6.81,0.27-11.35,0.42C419.85,373.6,419.85,373.07,419.85,372Z"/><path d="M434.79,371.45l4.24-.19v-6.72l-4.24.19v-2.64l7.37-.33c0,3.74,0,5.62,0,9.36l4.46-.22v2.64c-4.73.24-7.1,0.34-11.83,0.55v-2.64Zm3.66-12.78a1.77,1.77,0,0,1,.55-1.3,2.24,2.24,0,0,1,1.54-.6,2.28,2.28,0,0,1,1.61.45,1.55,1.55,0,0,1,.6,1.24,1.63,1.63,0,0,1-.6,1.29,2.57,2.57,0,0,1-1.61.57,2.16,2.16,0,0,1-1.54-.42A1.54,1.54,0,0,1,438.45,358.66Z"/><path d="M450,362.18a14.08,14.08,0,0,1,2.23-.86,13,13,0,0,1,3-.47,6.55,6.55,0,0,1,2.13.18,3.31,3.31,0,0,1,1.42.77,3,3,0,0,1,.78,1.28,5.66,5.66,0,0,1,.24,1.71q0,1.22-.08,2.09c-0.06.58-.08,1.09-0.08,1.54a10.24,10.24,0,0,0,0,1.13c0,0.22.06,0.44,0.07,0.64l1.57-.09v2.64l-4,.23-0.32-1.61h-0.12a4.48,4.48,0,0,1-1.36,1.36,4.75,4.75,0,0,1-2.39.67,3.88,3.88,0,0,1-2.85-.81,3.11,3.11,0,0,1-1.05-2.49,3.92,3.92,0,0,1,.37-1.76,3.37,3.37,0,0,1,1.08-1.26,5.42,5.42,0,0,1,1.7-.78,10.13,10.13,0,0,1,2.21-.35q0.43,0,.91,0l1.17,0a2.53,2.53,0,0,0,0-.48V365a1.45,1.45,0,0,0-.53-1.28,2.48,2.48,0,0,0-1.55-.31,7.49,7.49,0,0,0-2.2.43,15.13,15.13,0,0,0-1.65.71Zm4.1,8.59a3,3,0,0,0,1.71-.51,3.07,3.07,0,0,0,.83-0.95v-1.44l-0.72-.07a8.23,8.23,0,0,0-1,0,5.11,5.11,0,0,0-.91.13,3.18,3.18,0,0,0-.81.31,1.73,1.73,0,0,0-.57.5,1.19,1.19,0,0,0-.21.71,1.3,1.3,0,0,0,.39,1A1.78,1.78,0,0,0,454.09,370.78Z"/><path d="M464.36,355.76l5.13-.32c0,4.43,0,6.65,0,11.09a4.94,4.94,0,0,0,.46,2.54,1.5,1.5,0,0,0,1.47.62,4.16,4.16,0,0,0,1.23-.24,5.13,5.13,0,0,0,1-.51l1.18,2.08q-0.41.29-.82,0.55a5.79,5.79,0,0,1-.87.44,6.17,6.17,0,0,1-1,.31,8,8,0,0,1-1.21.16,4.31,4.31,0,0,1-3.39-.94,4.22,4.22,0,0,1-1.13-3.19c0-4,0-6,0-10.08l-2,.12v-2.64Z"/><path d="M478.59,374.45c4.27-.3,6.41-0.45,10.68-0.77,0,1,0,1.54,0,2.57-4.27.32-6.41,0.48-10.68,0.77v-2.57Z"/><path d="M491.14,353.93l4.86-.38c0,2.46,0,3.69,0,6.14h0.1a4.57,4.57,0,0,1,1.54-1.35,6,6,0,0,1,3.94-.54,2.87,2.87,0,0,1,1.32.68,3.35,3.35,0,0,1,.86,1.43,7.3,7.3,0,0,1,.31,2.31v7.46l-3.13.26c0-2.73,0-4.09,0-6.82a2.78,2.78,0,0,0-.62-2.06,2,2,0,0,0-1.64-.51,2.94,2.94,0,0,0-1.63.67,3.3,3.3,0,0,0-1.06,1.46v7.66l-3.13.25c0-5.66,0-8.5,0-14.16l-1.73.13C491.14,355.51,491.14,355,491.14,353.93Z"/><path d="M518.41,367.14a4.91,4.91,0,0,1-.81.64,8.81,8.81,0,0,1-1.15.62,9.75,9.75,0,0,1-1.46.52,9.63,9.63,0,0,1-1.68.29,7.91,7.91,0,0,1-2.75-.19,4.76,4.76,0,0,1-3.34-3,7.1,7.1,0,0,1-.44-2.61,7.37,7.37,0,0,1,.5-2.81,6.25,6.25,0,0,1,1.38-2.1,6.49,6.49,0,0,1,2.06-1.37,8.41,8.41,0,0,1,2.55-.62,7.74,7.74,0,0,1,1.89.07,4.66,4.66,0,0,1,1.79.66,3.88,3.88,0,0,1,1.33,1.45,5,5,0,0,1,.52,2.45,11.75,11.75,0,0,1-.24,2.25l-8.65.78a2.58,2.58,0,0,0,.32,1.27,2.26,2.26,0,0,0,.79.8,3.16,3.16,0,0,0,1.13.39,5.57,5.57,0,0,0,1.36,0,7.37,7.37,0,0,0,2.37-.55,5.68,5.68,0,0,0,1.5-1ZM513.22,359a4.19,4.19,0,0,0-1.18.28,3.66,3.66,0,0,0-1,.59,3.12,3.12,0,0,0-.73.88,2.71,2.71,0,0,0-.34,1.13l5.91-.53a2.43,2.43,0,0,0-.66-1.83A2.46,2.46,0,0,0,513.22,359Z"/><path d="M522.08,351.27l5.12-.5c0,4.44,0,6.65,0,11.09a4.86,4.86,0,0,0,.46,2.52,1.45,1.45,0,0,0,1.46.57,4.22,4.22,0,0,0,1.23-.28,5.36,5.36,0,0,0,1-.54l1.18,2q-0.41.31-.82,0.58a6,6,0,0,1-.87.47,6.34,6.34,0,0,1-1,.34,8.1,8.1,0,0,1-1.21.21,4.19,4.19,0,0,1-3.39-.82,4.09,4.09,0,0,1-1.13-3.15c0-4,0-6,0-10.08l-2,.19v-2.64Z"/><path d="M534.4,354.84l4.08-.43,0.36,1.4h0.1a5.17,5.17,0,0,1,4-2.21,5.53,5.53,0,0,1,2,.13,3.42,3.42,0,0,1,1.58.92,4.46,4.46,0,0,1,1,1.76,8.59,8.59,0,0,1,.36,2.67,9.26,9.26,0,0,1-.41,2.82,6.76,6.76,0,0,1-1.18,2.23,5.89,5.89,0,0,1-1.87,1.53,7,7,0,0,1-2.52.73,9.69,9.69,0,0,1-1.46,0,3.76,3.76,0,0,1-1.2-.22c0,2,0,3,0,4.92l-3.12.33c0-5.66,0-8.5,0-14.16l-1.8.19v-2.64Zm7.64,1.5a3.48,3.48,0,0,0-1.67.63,2.75,2.75,0,0,0-1,1.48c0,2,0,3,0,5a2.31,2.31,0,0,0,1,.32,5.27,5.27,0,0,0,1.28,0,3.58,3.58,0,0,0,1.25-.36,3,3,0,0,0,1-.84,4,4,0,0,0,.67-1.34,6.55,6.55,0,0,0,.24-1.87A3.25,3.25,0,0,0,544,357,2.25,2.25,0,0,0,542,356.34Z"/><path d="M561.61,362.54a5.09,5.09,0,0,1-.8.66,9.11,9.11,0,0,1-1.15.65,9.89,9.89,0,0,1-1.45.56,9.77,9.77,0,0,1-1.68.34,7.82,7.82,0,0,1-2.74-.11,4.6,4.6,0,0,1-3.34-2.87,7,7,0,0,1-.44-2.6,7.49,7.49,0,0,1,.5-2.83,6.48,6.48,0,0,1,1.38-2.14,6.73,6.73,0,0,1,2.05-1.42,8.56,8.56,0,0,1,2.54-.69,7.71,7.71,0,0,1,1.88,0,4.57,4.57,0,0,1,1.79.62,3.74,3.74,0,0,1,1.33,1.41,5,5,0,0,1,.52,2.43,11.86,11.86,0,0,1-.24,2.26l-8.63,1a2.55,2.55,0,0,0,.32,1.26,2.17,2.17,0,0,0,.79.77,3.08,3.08,0,0,0,1.13.36,5.52,5.52,0,0,0,1.35,0,7.48,7.48,0,0,0,2.36-.61,5.85,5.85,0,0,0,1.5-1Zm-5.18-8a4.27,4.27,0,0,0-1.18.31,3.8,3.8,0,0,0-1,.62,3.25,3.25,0,0,0-.73.9,2.8,2.8,0,0,0-.34,1.14l5.9-.69a2.37,2.37,0,0,0-.66-1.82A2.4,2.4,0,0,0,556.43,354.59Z"/><path d="M564.13,360.87l3-.36v-6.72l-3,.36c0-1.06,0-1.58,0-2.64l5.39-.66,0.36,1.54H570a7.65,7.65,0,0,1,1.53-1.51,4.23,4.23,0,0,1,2-.78,2.41,2.41,0,0,1,2.27.77,5.32,5.32,0,0,1,.83,3.42l-2.8.36a2.24,2.24,0,0,0-.25-1.23,0.78,0.78,0,0,0-.8-0.29,2.67,2.67,0,0,0-1.54.68,5.78,5.78,0,0,0-1,1.23v5.11l5.2-.66c0,1.06,0,1.58,0,2.64-4.51.58-6.77,0.86-11.29,1.41C564.13,362.46,564.13,361.93,564.13,360.87Z"/><path d="M588.47,365.47a10,10,0,0,1-3.26-.61,7.92,7.92,0,0,1-2.8-1.76,8.53,8.53,0,0,1-2-3,11.73,11.73,0,0,1-.73-4.37,13.33,13.33,0,0,1,.73-4.55,12.38,12.38,0,0,1,2-3.56,11.84,11.84,0,0,1,2.8-2.56,13.69,13.69,0,0,1,3.26-1.57L589,346a11.59,11.59,0,0,0-1.9.94,8.44,8.44,0,0,0-2,1.74,9.64,9.64,0,0,0-1.62,2.72,10.47,10.47,0,0,0-.66,3.93,8.26,8.26,0,0,0,.69,3.63,6.83,6.83,0,0,0,1.69,2.26,6.24,6.24,0,0,0,2,1.19,7.34,7.34,0,0,0,1.77.4Z"/><path d="M594.48,356.91l3.66-.52c0-4.2,0-6.29,0-10.49L595,348.78l-1.44-1.72,5.45-4.95,2.11-.3c0,5.66,0,8.5,0,14.16l3.59-.52v2.64c-4.08.6-6.13,0.89-10.22,1.46C594.48,358.49,594.48,358,594.48,356.91Z"/><path d="M618.8,356c-4.26.66-6.39,1-10.66,1.62v-2.33c0.19-.19.43-0.43,0.72-0.74l1-1q0.54-.58,1.14-1.27c0.4-.46.79-0.93,1.17-1.42q0.81-1,1.42-1.87a14.52,14.52,0,0,0,1-1.56,6.8,6.8,0,0,0,.59-1.39,4.83,4.83,0,0,0,.19-1.34,2,2,0,0,0-.22-0.9,2.07,2.07,0,0,0-.6-0.71,2.37,2.37,0,0,0-.92-0.41,3.18,3.18,0,0,0-1.18,0,4.92,4.92,0,0,0-1.56.5,6.54,6.54,0,0,0-1.47,1.11l-1.24-2a12.86,12.86,0,0,1,2.24-1.54,8.47,8.47,0,0,1,2.83-.92,6.56,6.56,0,0,1,2,0,4.4,4.4,0,0,1,1.67.6,3.3,3.3,0,0,1,1.16,1.23,3.82,3.82,0,0,1,.43,1.88,7.66,7.66,0,0,1-.13,1.45,7.92,7.92,0,0,1-.4,1.38,10.89,10.89,0,0,1-.72,1.47c-0.29.51-.65,1.07-1.06,1.68s-0.67.94-1,1.42-0.74.94-1.11,1.38-0.73.85-1.09,1.24-0.68.72-1,1l6.88-1.05V356Z"/><path d="M621.54,347.11a15.21,15.21,0,0,1,.45-3.9,9.47,9.47,0,0,1,1.28-2.92,6.71,6.71,0,0,1,2-1.93,6.8,6.8,0,0,1,2.56-.95,4.76,4.76,0,0,1,4.65,1.37q1.63,1.86,1.63,6.32a15.36,15.36,0,0,1-.46,3.93,9.68,9.68,0,0,1-1.28,2.95,6.68,6.68,0,0,1-2,2,6.84,6.84,0,0,1-2.58,1,4.6,4.6,0,0,1-4.65-1.5Q621.55,351.38,621.54,347.11Zm3.11-.49c0,0.24,0,.47,0,0.68s0,0.43,0,.65l5.78-6.28A2.22,2.22,0,0,0,627.8,340a3.13,3.13,0,0,0-2.33,1.85A10.75,10.75,0,0,0,624.65,346.62Zm6.35-1q0-.38,0-0.73c0-.23,0-0.46,0-0.68l-5.8,6.28a2.26,2.26,0,0,0,2.68,1.76,3.17,3.17,0,0,0,2.35-1.84A10.77,10.77,0,0,0,631,345.6Z"/><path d="M640.16,351a2,2,0,0,1,.54-1.39,2.33,2.33,0,0,1,1.35-.71,2,2,0,0,1,2,.53,2.93,2.93,0,0,1,.67,2,5.06,5.06,0,0,1-.42,2,6.59,6.59,0,0,1-1.08,1.72,7.42,7.42,0,0,1-1.49,1.31,7.24,7.24,0,0,1-1.63.83l-0.64-1.21a8.32,8.32,0,0,0,1.16-.6,5.93,5.93,0,0,0,1.06-.84,4.73,4.73,0,0,0,.8-1.06,3,3,0,0,0,.37-1.22,3.19,3.19,0,0,1-1.22.24,1.56,1.56,0,0,1-.82-0.25,1.24,1.24,0,0,1-.47-0.59A2.29,2.29,0,0,1,640.16,351Z"/><path d="M651.8,347.87l3.65-.64c0-4.2,0-6.29,0-10.49l-3.15,3L650.87,338l5.43-5.14,2.1-.38c0,5.66,0,8.5,0,14.16L662,346v2.64c-4.07.74-6.1,1.1-10.17,1.82C651.8,349.45,651.8,348.92,651.8,347.87Z"/><path d="M666.42,350.34a9.92,9.92,0,0,0,1.76-1,9.78,9.78,0,0,0,2-1.84,10.62,10.62,0,0,0,1.68-2.8,9.89,9.89,0,0,0,.69-3.85,8.94,8.94,0,0,0-.65-3.72,6.22,6.22,0,0,0-1.61-2.21,5.39,5.39,0,0,0-2-1.09,8.65,8.65,0,0,0-1.89-.33l0.57-2.67a10.3,10.3,0,0,1,3.24.53,7.47,7.47,0,0,1,2.78,1.66A8.12,8.12,0,0,1,675,336a11.51,11.51,0,0,1,.72,4.31,13.79,13.79,0,0,1-.72,4.6,12.93,12.93,0,0,1-1.94,3.63,12.48,12.48,0,0,1-2.78,2.66,13.26,13.26,0,0,1-3.24,1.66Z"/><path d="M55.75,295.12c0-1.06,0-1.58,0-2.64L58.56,293V286.3l-2.83-.54c0-1.06,0-1.58,0-2.64l2.83,0.54V283a4,4,0,0,1,.39-1.87A3,3,0,0,1,60,280a3.46,3.46,0,0,1,1.49-.5,5.94,5.94,0,0,1,1.75.07,12.27,12.27,0,0,1,2.7.78,8.51,8.51,0,0,1,1.75,1l-0.9,2.21a13.43,13.43,0,0,0-1.18-.7,5.79,5.79,0,0,0-1.63-.52,2,2,0,0,0-1.8.25,2.25,2.25,0,0,0-.51,1.67l5,0.93v2.64l-5-.93v6.72l5,0.93c0,1.06,0,1.58,0,2.64C62.3,296.37,60.12,296,55.75,295.12Z"/><path d="M70.48,286.68a11.44,11.44,0,0,1,2.2-.35,12.34,12.34,0,0,1,3,.22,7.36,7.36,0,0,1,2.11.67,4.5,4.5,0,0,1,1.41,1.1,4,4,0,0,1,.77,1.46,6.27,6.27,0,0,1,.24,1.77q0,1.22-.08,2.07c-0.06.57-.08,1.07-0.08,1.52a10.63,10.63,0,0,0,0,1.14c0,0.22.06,0.45,0.07,0.66l1.55,0.27v2.64l-4-.7-0.31-1.69-0.12,0a3.18,3.18,0,0,1-1.35,1,4.16,4.16,0,0,1-2.37.12,4.82,4.82,0,0,1-2.82-1.47,3.93,3.93,0,0,1-1-2.73,3.43,3.43,0,0,1,.37-1.67,2.37,2.37,0,0,1,1.06-1,4.31,4.31,0,0,1,1.68-.39,9.72,9.72,0,0,1,2.19.16c0.28,0.05.58,0.12,0.9,0.21L77,292a2.38,2.38,0,0,0,0-.47v-0.46a1.83,1.83,0,0,0-.52-1.4A3,3,0,0,0,75,289a6.94,6.94,0,0,0-2.18-.08,12.1,12.1,0,0,0-1.63.33Zm4.05,9.54a2.6,2.6,0,0,0,1.7-.12,2.17,2.17,0,0,0,.82-0.75v-1.44l-0.71-.23a8.73,8.73,0,0,0-1-.24,4.87,4.87,0,0,0-.9-0.08,2.61,2.61,0,0,0-.8.12,1.23,1.23,0,0,0-.56.37,1,1,0,0,0-.21.66,1.62,1.62,0,0,0,.39,1.11A2.16,2.16,0,0,0,74.54,296.22Z"/><path d="M95.66,301.08a5.73,5.73,0,0,1-2.29.74,9.71,9.71,0,0,1-2.74-.09,8.69,8.69,0,0,1-2.76-.92,7.11,7.11,0,0,1-2-1.63A6.78,6.78,0,0,1,84.59,297a8.15,8.15,0,0,1-.43-2.67,6.2,6.2,0,0,1,.5-2.6,4.45,4.45,0,0,1,1.39-1.75,4.91,4.91,0,0,1,2.11-.88,7.82,7.82,0,0,1,2.65,0,10.75,10.75,0,0,1,2.5.73,13.85,13.85,0,0,1,1.79.9c0,1.69,0,2.53,0,4.22l-2.63-.44v-2.21a7.4,7.4,0,0,0-1.48-.42,4.32,4.32,0,0,0-1.32,0,2.59,2.59,0,0,0-2,1.42,3.34,3.34,0,0,0-.32,1.55,4.07,4.07,0,0,0,.26,1.46,4.24,4.24,0,0,0,.74,1.25,4.29,4.29,0,0,0,1.18,1,4.79,4.79,0,0,0,1.56.54,5.3,5.3,0,0,0,2.23,0,7.36,7.36,0,0,0,1.3-.46Z"/><path d="M99.71,293.53l-2.36-.39c0-1.06,0-1.58,0-2.64l2.36,0.39c0-1.09,0-1.64,0-2.74l3.1-.39c0,1.45,0,2.17,0,3.62l6.26,1c0,1.06,0,1.58,0,2.64l-6.26-1v3.43a4.66,4.66,0,0,0,.69,2.79,2.86,2.86,0,0,0,1.93,1.14,4,4,0,0,0,1.17,0,3.81,3.81,0,0,0,.94-0.25,4.4,4.4,0,0,0,.76-0.41l0.63-.43,1.43,2.38a3.68,3.68,0,0,1-1,.72,7.26,7.26,0,0,1-1.31.49,7.42,7.42,0,0,1-1.47.24,6.88,6.88,0,0,1-1.5-.07,6.09,6.09,0,0,1-4-2.15,7.93,7.93,0,0,1-1.35-5v-3.43Z"/><path d="M112.11,298.86a6.86,6.86,0,0,1,.45-2.62,4.47,4.47,0,0,1,1.29-1.79,4.56,4.56,0,0,1,2-.93,7.33,7.33,0,0,1,2.59,0,8.28,8.28,0,0,1,2.69.86,6.83,6.83,0,0,1,2,1.58,6.53,6.53,0,0,1,1.23,2.19,8.22,8.22,0,0,1,.42,2.65,6.9,6.9,0,0,1-.45,2.62,4.5,4.5,0,0,1-1.29,1.8,4.57,4.57,0,0,1-2,.94,7.25,7.25,0,0,1-2.59,0,8.22,8.22,0,0,1-2.69-.86,6.84,6.84,0,0,1-2-1.59,6.59,6.59,0,0,1-1.23-2.19A8.25,8.25,0,0,1,112.11,298.86Zm3.2,0.49a5.08,5.08,0,0,0,.22,1.5,4.32,4.32,0,0,0,.62,1.27,3.52,3.52,0,0,0,1,.93,3.37,3.37,0,0,0,1.31.48,2.67,2.67,0,0,0,2.26-.55,3.41,3.41,0,0,0,.87-2.68,4.7,4.7,0,0,0-.81-2.8,3.33,3.33,0,0,0-2.32-1.37,3.55,3.55,0,0,0-1.24,0,2,2,0,0,0-1,.51,2.65,2.65,0,0,0-.66,1.05A4.86,4.86,0,0,0,115.31,299.36Z"/><path d="M126.55,304.39l3,0.43c0-2.69,0-4,0-6.72l-3-.43V295l5.38,0.78,0.36,1.64h0.1a5.15,5.15,0,0,1,1.53-1.1,3.5,3.5,0,0,1,2-.24,3.2,3.2,0,0,1,2.26,1.37,6.39,6.39,0,0,1,.83,3.64l-2.8-.39a2.64,2.64,0,0,0-.25-1.3,1,1,0,0,0-.8-0.51,2.15,2.15,0,0,0-1.54.26,3.91,3.91,0,0,0-1,1v5.11l5.19,0.73v2.64c-4.51-.63-6.76-0.95-11.27-1.6v-2.64Z"/><path d="M141.38,306.49l4.21,0.57v-6.72l-4.21-.57v-2.64l7.33,1c0,3.74,0,5.62,0,9.36l4.43,0.58v2.64c-4.71-.61-7.06-0.92-11.76-1.56v-2.64ZM145,294.36a1.48,1.48,0,0,1,.55-1.2,1.92,1.92,0,0,1,1.53-.32,2.67,2.67,0,0,1,1.6.74,1.89,1.89,0,0,1,.6,1.35,1.35,1.35,0,0,1-.6,1.18,2.24,2.24,0,0,1-1.6.28,2.53,2.53,0,0,1-1.53-.7A1.85,1.85,0,0,1,145,294.36Z"/><path d="M156.5,299.94a11.91,11.91,0,0,1,2.22-.46,12.4,12.4,0,0,1,3,.06,7.11,7.11,0,0,1,2.12.56,4.19,4.19,0,0,1,1.41,1,3.78,3.78,0,0,1,.78,1.41,6.11,6.11,0,0,1,.24,1.76q0,1.22-.08,2.08c-0.06.57-.08,1.08-0.08,1.53a10.57,10.57,0,0,0,0,1.13c0,0.22.06,0.45,0.07,0.66l1.56,0.19c0,1.06,0,1.58,0,2.64l-4-.49-0.31-1.67H163.3a3.45,3.45,0,0,1-1.36,1.12,4.26,4.26,0,0,1-2.38.24,4.57,4.57,0,0,1-2.83-1.32,3.72,3.72,0,0,1-1-2.68,3.53,3.53,0,0,1,.37-1.69,2.57,2.57,0,0,1,1.07-1.06,4.52,4.52,0,0,1,1.69-.48,9.75,9.75,0,0,1,2.2,0q0.43,0.05.91,0.16l1.17,0.24a2.4,2.4,0,0,0,0-.47V304a1.73,1.73,0,0,0-.52-1.37,2.84,2.84,0,0,0-1.55-.59,7,7,0,0,0-2.19,0,12.65,12.65,0,0,0-1.64.42Zm4.08,9.32a2.67,2.67,0,0,0,1.71-.21,2.36,2.36,0,0,0,.83-0.8v-1.44l-0.71-.2a8.5,8.5,0,0,0-1-.19,4.88,4.88,0,0,0-.9,0,2.71,2.71,0,0,0-.81.16,1.33,1.33,0,0,0-.57.4,1,1,0,0,0-.21.67,1.54,1.54,0,0,0,.39,1.09A2.06,2.06,0,0,0,160.57,309.26Z"/><path d="M170.81,296.08l5.11,0.6c0,4.43,0,6.65,0,11.09a5.48,5.48,0,0,0,.45,2.62,1.83,1.83,0,0,0,1.46.89,3.91,3.91,0,0,0,1.22,0,4.15,4.15,0,0,0,1-.34l1.18,2.29q-0.41.22-.82,0.4a4.67,4.67,0,0,1-.86.29,5.54,5.54,0,0,1-1,.13,7.88,7.88,0,0,1-1.21-.05,5.07,5.07,0,0,1-3.38-1.54,5,5,0,0,1-1.13-3.4c0-4,0-6,0-10.08l-2-.23v-2.64Z"/><path d="M185,317.3c4.26,0.47,6.39.69,10.66,1.13V321c-4.26-.44-6.4-0.67-10.66-1.13V317.3Z"/><path d="M197.52,299l4.85,0.49v6.14h0.1a3.54,3.54,0,0,1,1.54-1.07,5,5,0,0,1,2.26-.24,5.94,5.94,0,0,1,1.68.4,3.61,3.61,0,0,1,1.32.92,4.2,4.2,0,0,1,.87,1.58,7.87,7.87,0,0,1,.31,2.37v7.46l-3.12-.3V310a3.21,3.21,0,0,0-.62-2.17,2.4,2.4,0,0,0-1.63-.81,2.61,2.61,0,0,0-2.69,1.66c0,3.06,0,4.59,0,7.66l-3.12-.31c0-5.66,0-8.5,0-14.16l-1.73-.17V299Z"/><path d="M224.76,317.09a3.79,3.79,0,0,1-.81.5,7,7,0,0,1-1.15.42,8.5,8.5,0,0,1-1.45.26,9.29,9.29,0,0,1-1.68,0,8.56,8.56,0,0,1-2.75-.68,6.12,6.12,0,0,1-3.34-3.56,7.72,7.72,0,0,1-.44-2.69,6.71,6.71,0,0,1,.5-2.73,4.88,4.88,0,0,1,1.38-1.85,5.19,5.19,0,0,1,2.06-1,7.76,7.76,0,0,1,2.55-.17,8.25,8.25,0,0,1,1.89.41,5.71,5.71,0,0,1,1.79,1,5,5,0,0,1,1.33,1.69,5.61,5.61,0,0,1,.52,2.54,11.17,11.17,0,0,1-.24,2.21l-8.65-.76a2.82,2.82,0,0,0,1.12,2.26,3.8,3.8,0,0,0,1.13.59,5.89,5.89,0,0,0,1.36.28,6.82,6.82,0,0,0,2.37-.13,4.53,4.53,0,0,0,1.5-.69Zm-5.19-9a3.88,3.88,0,0,0-1.18.07,3,3,0,0,0-1,.41,2.41,2.41,0,0,0-.73.75,2.34,2.34,0,0,0-.34,1.07l5.91,0.52a2.85,2.85,0,0,0-.66-2A2.89,2.89,0,0,0,219.57,308.07Z"/><path d="M228.44,301.87l5.12,0.42c0,4.43,0,6.65,0,11.09A5.36,5.36,0,0,0,234,316a1.76,1.76,0,0,0,1.47.84,3.93,3.93,0,0,0,1.23-.06,4.28,4.28,0,0,0,1-.37l1.18,2.25c-0.27.16-.55,0.3-0.82,0.43a4.82,4.82,0,0,1-.87.32,5.65,5.65,0,0,1-1,.16,7.91,7.91,0,0,1-1.22,0,4.91,4.91,0,0,1-3.39-1.42,4.8,4.8,0,0,1-1.13-3.36V304.67l-2-.16v-2.64Z"/><path d="M240.78,307.64l4.09,0.3,0.36,1.47h0.1a4.3,4.3,0,0,1,4-1.49,6,6,0,0,1,2,.49,4.37,4.37,0,0,1,1.59,1.2,5.6,5.6,0,0,1,1,1.94,9.2,9.2,0,0,1,.36,2.74A8.53,8.53,0,0,1,254,317a5.41,5.41,0,0,1-1.18,2,4.6,4.6,0,0,1-1.88,1.19,6.37,6.37,0,0,1-2.53.28,10.07,10.07,0,0,1-1.47-.21,4.27,4.27,0,0,1-1.2-.43v4.92l-3.13-.23V310.41l-1.8-.13C240.78,309.22,240.78,308.7,240.78,307.64Zm7.65,2.86a3,3,0,0,0-1.67.34,2.14,2.14,0,0,0-1,1.29v5a2.78,2.78,0,0,0,1,.49,5.55,5.55,0,0,0,1.29.25,3.27,3.27,0,0,0,1.25-.14,2.34,2.34,0,0,0,1-.66,3.28,3.28,0,0,0,.67-1.23,6,6,0,0,0,.24-1.83,3.77,3.77,0,0,0-.77-2.5A2.7,2.7,0,0,0,248.43,310.5Z"/><path d="M268.07,320.19a3.92,3.92,0,0,1-.81.52,7.22,7.22,0,0,1-1.15.45,8.69,8.69,0,0,1-1.46.3,9.31,9.31,0,0,1-1.68,0,8.44,8.44,0,0,1-2.76-.6,5.89,5.89,0,0,1-3.35-3.47,7.64,7.64,0,0,1-.44-2.68,6.8,6.8,0,0,1,.51-2.74,5.06,5.06,0,0,1,1.38-1.89,5.35,5.35,0,0,1,2.06-1.06,7.82,7.82,0,0,1,2.55-.24,8.15,8.15,0,0,1,1.89.36,5.55,5.55,0,0,1,1.79.94,4.85,4.85,0,0,1,1.34,1.65,5.51,5.51,0,0,1,.52,2.53,11.17,11.17,0,0,1-.24,2.22l-8.67-.53a2.88,2.88,0,0,0,.33,1.32,2.83,2.83,0,0,0,.79.91,3.71,3.71,0,0,0,1.13.56,5.85,5.85,0,0,0,1.36.24,6.88,6.88,0,0,0,2.37-.19,4.68,4.68,0,0,0,1.5-.73Zm-5.2-8.88a3.92,3.92,0,0,0-1.18.1,3.06,3.06,0,0,0-1,.44,2.51,2.51,0,0,0-.73.77,2.39,2.39,0,0,0-.34,1.08l5.92,0.37a2.79,2.79,0,0,0-.66-1.93A2.81,2.81,0,0,0,262.87,311.31Z"/><path d="M270.6,319l3,0.17v-6.72l-3-.17v-2.64l5.42,0.3,0.36,1.6h0.1a5.88,5.88,0,0,1,1.54-1.24,3.7,3.7,0,0,1,2-.42,2.9,2.9,0,0,1,2.28,1.17,6,6,0,0,1,.83,3.57l-2.82-.14a2.49,2.49,0,0,0-.25-1.27,0.94,0.94,0,0,0-.81-0.44,2.29,2.29,0,0,0-1.55.4,4.46,4.46,0,0,0-1,1.05v5.11l5.22,0.27v2.64c-4.54-.23-6.81-0.35-11.34-0.61V319Z"/><path d="M295.07,327.91a11.57,11.57,0,0,1-3.28-1.2,10.21,10.21,0,0,1-2.82-2.26,10.78,10.78,0,0,1-2-3.36,12.73,12.73,0,0,1-.73-4.5,12.19,12.19,0,0,1,.73-4.42,9.82,9.82,0,0,1,2-3.21,9.17,9.17,0,0,1,2.82-2.06,11.53,11.53,0,0,1,3.28-1l0.58,2.59a9.67,9.67,0,0,0-1.92.6,6.59,6.59,0,0,0-2,1.38,7.58,7.58,0,0,0-1.62,2.44,9.51,9.51,0,0,0-.66,3.81,9.07,9.07,0,0,0,.7,3.75,8.75,8.75,0,0,0,1.7,2.56,8,8,0,0,0,2.06,1.55,8.57,8.57,0,0,0,1.78.71Z"/><path d="M301.12,320.42l3.69,0.14V310.07l-3.18,2.31-1.45-2,5.49-4,2.12,0.07v14.16l3.61,0.12c0,1.06,0,1.58,0,2.64-4.12-.13-6.17-0.2-10.29-0.36v-2.64Z"/><path d="M325.62,323.82c-4.3-.1-6.45-0.16-10.75-0.29,0-.93,0-1.4,0-2.33,0.19-.15.44-0.36,0.72-0.61l1-.87c0.36-.32.74-0.68,1.14-1.07s0.8-.79,1.18-1.22q0.82-.89,1.43-1.62a11.23,11.23,0,0,0,1-1.38,5.58,5.58,0,0,0,.59-1.28,4.44,4.44,0,0,0,.19-1.3,2.2,2.2,0,0,0-.22-0.94,2.66,2.66,0,0,0-.6-0.82,3,3,0,0,0-.93-0.58,3.42,3.42,0,0,0-1.19-.24,4.47,4.47,0,0,0-1.58.22,5.21,5.21,0,0,0-1.48.85l-1.25-2.24a10.27,10.27,0,0,1,2.25-1.15,7.65,7.65,0,0,1,2.86-.41,6.94,6.94,0,0,1,2,.34,5.41,5.41,0,0,1,1.69.89,4.3,4.3,0,0,1,1.17,1.43,4.24,4.24,0,0,1,.44,2,7.23,7.23,0,0,1-.13,1.43,6.78,6.78,0,0,1-.41,1.31,8.64,8.64,0,0,1-.72,1.34c-0.3.46-.65,1-1.07,1.49s-0.67.82-1,1.23-0.75.81-1.12,1.18-0.74.72-1.1,1.05-0.69.6-1,.81l6.94,0.18v2.64Z"/><path d="M328.4,315.45a14.19,14.19,0,0,1,.46-3.82,7.68,7.68,0,0,1,1.29-2.7,5.22,5.22,0,0,1,2-1.58,6,6,0,0,1,2.59-.49,5.7,5.7,0,0,1,4.69,2.2q1.64,2.15,1.65,6.61a14.3,14.3,0,0,1-.46,3.85,7.87,7.87,0,0,1-1.29,2.72,5.17,5.17,0,0,1-2,1.6,6.07,6.07,0,0,1-2.6.5A5.54,5.54,0,0,1,330,322,11.21,11.21,0,0,1,328.4,315.45Zm3.13,0.06c0,0.24,0,.47,0,0.68s0,0.44,0,.66l5.83-5.25a2.76,2.76,0,0,0-2.7-2.11,2.52,2.52,0,0,0-2.35,1.43A9.68,9.68,0,0,0,331.53,315.52Zm6.41,0.11q0-.38,0-0.73c0-.23,0-0.46,0-0.68L332,319.46a2.81,2.81,0,0,0,2.7,2.23,2.55,2.55,0,0,0,2.37-1.42A9.72,9.72,0,0,0,337.94,315.63Z"/><path d="M347.2,322.64a1.63,1.63,0,0,1,.54-1.29,2,2,0,0,1,1.36-.47,2.4,2.4,0,0,1,2,.88,3.39,3.39,0,0,1,.67,2.14,4.52,4.52,0,0,1-.42,2,5.15,5.15,0,0,1-1.1,1.53,5.86,5.86,0,0,1-1.51,1,6.11,6.11,0,0,1-1.65.54l-0.65-1.33a7,7,0,0,0,1.17-.4,4.67,4.67,0,0,0,1.07-.65,3.66,3.66,0,0,0,.81-0.92,2.53,2.53,0,0,0,.37-1.15,3.08,3.08,0,0,1-1.23,0,1.88,1.88,0,0,1-.83-0.39,1.59,1.59,0,0,1-.47-0.68A2.48,2.48,0,0,1,347.2,322.64Z"/><path d="M359,321.62h3.69c0-4.2,0-6.29,0-10.49l-3.18,2.42L358,311.63l5.5-4.17h2.12c0,5.66,0,8.5,0,14.16h3.62v2.64c-4.12,0-6.18,0-10.29,0v-2.64Z"/><path d="M373.76,326.71a8.3,8.3,0,0,0,1.79-.65,7.62,7.62,0,0,0,2.06-1.48,8.34,8.34,0,0,0,1.7-2.5,8.9,8.9,0,0,0,.7-3.73,9.68,9.68,0,0,0-.66-3.83,8,8,0,0,0-1.63-2.49,6.93,6.93,0,0,0-2-1.45,10,10,0,0,0-1.92-.67l0.58-2.57a11.89,11.89,0,0,1,3.28,1.11,9.65,9.65,0,0,1,2.82,2.16,10.28,10.28,0,0,1,2,3.28,13.91,13.91,0,0,1,0,8.92,10.27,10.27,0,0,1-2,3.29,9.7,9.7,0,0,1-2.82,2.16,11.21,11.21,0,0,1-3.28,1.08Z"/><path d="M632.87,299.52l3.65-.61c0-4.2,0-6.29,0-10.49l-3.15,2.95-1.43-1.68,5.44-5.08,2.1-.36c0,5.66,0,8.5,0,14.16l3.58-.61v2.64c-4.07.7-6.11,1-10.19,1.72C632.87,301.1,632.87,300.57,632.87,299.52Z"/><path d="M657.11,298c-4.25.77-6.37,1.15-10.63,1.89,0-.93,0-1.4,0-2.33l0.72-.76,1-1.07c0.36-.4.74-0.83,1.13-1.3s0.79-1,1.17-1.45q0.81-1.06,1.42-1.91a14.94,14.94,0,0,0,1-1.58,7,7,0,0,0,.58-1.4,4.9,4.9,0,0,0,.19-1.34,1.93,1.93,0,0,0-.22-0.9,2,2,0,0,0-.6-0.7,2.3,2.3,0,0,0-.92-0.39,3.16,3.16,0,0,0-1.18,0,5,5,0,0,0-1.56.54,6.8,6.8,0,0,0-1.47,1.15l-1.24-2a13.27,13.27,0,0,1,2.23-1.6,8.62,8.62,0,0,1,2.82-1,6.5,6.5,0,0,1,2-.06,4.27,4.27,0,0,1,1.67.55,3.18,3.18,0,0,1,1.16,1.2,3.76,3.76,0,0,1,.43,1.87,7.73,7.73,0,0,1-.13,1.45,8.07,8.07,0,0,1-.4,1.39,11.35,11.35,0,0,1-.72,1.49q-0.44.77-1.06,1.7-0.48.71-1,1.45t-1.11,1.41c-0.36.45-.73,0.87-1.08,1.27s-0.68.74-1,1l6.86-1.23C657.11,296.37,657.11,296.9,657.11,298Z"/><path d="M659.85,289a15.43,15.43,0,0,1,.45-3.91,9.7,9.7,0,0,1,1.28-3,6.81,6.81,0,0,1,4.53-3,4.65,4.65,0,0,1,4.63,1.25q1.62,1.82,1.62,6.28a15.56,15.56,0,0,1-.45,3.94,9.94,9.94,0,0,1-1.28,3,6.9,6.9,0,0,1-2,2,7,7,0,0,1-2.57,1,4.49,4.49,0,0,1-4.64-1.39Q659.85,293.31,659.85,289Zm3.09-.57q0,0.36,0,.68c0,0.21,0,.43,0,0.65l5.76-6.43a2.15,2.15,0,0,0-2.67-1.56,3.23,3.23,0,0,0-2.32,1.91A10.91,10.91,0,0,0,662.95,288.46Zm6.33-1.18q0-.38,0-0.73c0-.23,0-0.46,0-0.68l-5.78,6.43a2.19,2.19,0,0,0,2.67,1.69,3.27,3.27,0,0,0,2.34-1.9A11,11,0,0,0,669.28,287.28Z"/><path d="M52.81,448.61V446l2.81,0.53v-6.72l-2.83-.54v-2.64l2.83,0.54v-0.67A4,4,0,0,1,56,434.6a3,3,0,0,1,1-1.15,3.45,3.45,0,0,1,1.49-.5,6,6,0,0,1,1.75.07,12.3,12.3,0,0,1,2.7.78,8.53,8.53,0,0,1,1.75,1L63.83,437a13.29,13.29,0,0,0-1.18-.7,5.78,5.78,0,0,0-1.63-.52,2,2,0,0,0-1.8.25,2.25,2.25,0,0,0-.51,1.67l5,0.93v2.64l-5-.93v6.72l5,0.93v2.64C59.36,449.86,57.18,449.45,52.81,448.61Z"/><path d="M67.54,440.17a11.46,11.46,0,0,1,2.2-.35,12.35,12.35,0,0,1,3,.22,7.37,7.37,0,0,1,2.11.67,4.51,4.51,0,0,1,1.41,1.1,4,4,0,0,1,.77,1.46,6.27,6.27,0,0,1,.24,1.77q0,1.22-.08,2.07t-0.08,1.52a10.88,10.88,0,0,0,0,1.14c0,0.22.06,0.45,0.07,0.66l1.55,0.27v2.64l-4-.7L74.43,451l-0.12,0A3.18,3.18,0,0,1,73,452a4.16,4.16,0,0,1-2.37.12,4.82,4.82,0,0,1-2.82-1.47,3.93,3.93,0,0,1-1-2.73,3.43,3.43,0,0,1,.37-1.67,2.38,2.38,0,0,1,1.06-1,4.32,4.32,0,0,1,1.68-.39A9.69,9.69,0,0,1,72,445c0.28,0.05.58,0.12,0.9,0.21l1.16,0.3a2.38,2.38,0,0,0,0-.47v-0.46a1.83,1.83,0,0,0-.52-1.4,3,3,0,0,0-1.54-.67,6.94,6.94,0,0,0-2.18-.08,12.12,12.12,0,0,0-1.63.33Zm4.05,9.54a2.59,2.59,0,0,0,1.7-.12,2.17,2.17,0,0,0,.82-0.75V447.4l-0.71-.23a8.68,8.68,0,0,0-1-.24,4.89,4.89,0,0,0-.9-0.08,2.61,2.61,0,0,0-.8.12,1.23,1.23,0,0,0-.57.37,1,1,0,0,0-.21.66,1.62,1.62,0,0,0,.39,1.11A2.17,2.17,0,0,0,71.6,449.71Z"/><path d="M92.72,454.57a5.72,5.72,0,0,1-2.29.74,9.69,9.69,0,0,1-2.74-.09,8.69,8.69,0,0,1-2.76-.92,7.1,7.1,0,0,1-2-1.63,6.81,6.81,0,0,1-1.25-2.22,8.15,8.15,0,0,1-.43-2.67,6.2,6.2,0,0,1,.5-2.6,4.44,4.44,0,0,1,1.39-1.75,4.92,4.92,0,0,1,2.11-.88,7.82,7.82,0,0,1,2.65,0,10.77,10.77,0,0,1,2.51.73,13.82,13.82,0,0,1,1.79.9v4.22L89.54,448v-2.21a7.4,7.4,0,0,0-1.48-.42,4.3,4.3,0,0,0-1.32,0,2.59,2.59,0,0,0-2,1.42,3.33,3.33,0,0,0-.32,1.55,4.09,4.09,0,0,0,.26,1.46,4.23,4.23,0,0,0,.74,1.25,4.28,4.28,0,0,0,1.18,1,4.78,4.78,0,0,0,1.56.54,5.3,5.3,0,0,0,2.23,0,7.32,7.32,0,0,0,1.3-.46Z"/><path d="M96.78,447l-2.36-.39V444l2.36,0.39v-2.74l3.1-.38v3.62l6.26,1v2.64l-6.26-1V451a4.66,4.66,0,0,0,.69,2.79,2.86,2.86,0,0,0,1.93,1.14,4,4,0,0,0,1.17,0,3.78,3.78,0,0,0,.94-0.25,4.35,4.35,0,0,0,.76-0.41l0.63-.43,1.43,2.39a3.66,3.66,0,0,1-1,.72,7.21,7.21,0,0,1-1.31.49,7.36,7.36,0,0,1-1.47.24,6.89,6.89,0,0,1-1.5-.07,6.09,6.09,0,0,1-4-2.15,7.94,7.94,0,0,1-1.35-5V447Z"/><path d="M109.17,452.36a6.86,6.86,0,0,1,.45-2.62,4.45,4.45,0,0,1,1.29-1.79,4.56,4.56,0,0,1,2-.93,7.32,7.32,0,0,1,2.59,0,8.29,8.29,0,0,1,2.69.86,6.83,6.83,0,0,1,2,1.58,6.55,6.55,0,0,1,1.23,2.19,8.22,8.22,0,0,1,.42,2.65,6.9,6.9,0,0,1-.45,2.62,4.5,4.5,0,0,1-1.29,1.8,4.55,4.55,0,0,1-2,.94,7.27,7.27,0,0,1-2.59,0,8.23,8.23,0,0,1-2.69-.87,6.86,6.86,0,0,1-2-1.59,6.58,6.58,0,0,1-1.23-2.19A8.26,8.26,0,0,1,109.17,452.36Zm3.2,0.49a5.11,5.11,0,0,0,.21,1.5,4.32,4.32,0,0,0,.62,1.27,3.51,3.51,0,0,0,1,.93,3.36,3.36,0,0,0,1.31.48,2.67,2.67,0,0,0,2.26-.55,3.41,3.41,0,0,0,.87-2.68,4.7,4.7,0,0,0-.81-2.8,3.32,3.32,0,0,0-2.32-1.37,3.55,3.55,0,0,0-1.24,0,2,2,0,0,0-1,.51,2.64,2.64,0,0,0-.66,1.05A4.86,4.86,0,0,0,112.37,452.86Z"/><path d="M123.61,457.9l3,0.43v-6.72l-3-.43v-2.64l5.38,0.78,0.36,1.64h0.1a5.17,5.17,0,0,1,1.53-1.1,3.5,3.5,0,0,1,2-.24,3.2,3.2,0,0,1,2.26,1.37,6.39,6.39,0,0,1,.83,3.64l-2.8-.39a2.64,2.64,0,0,0-.25-1.3,1,1,0,0,0-.8-0.51,2.15,2.15,0,0,0-1.54.26,3.9,3.9,0,0,0-1,1v5.11l5.19,0.73v2.64c-4.51-.63-6.76-0.95-11.27-1.61V457.9Z"/><path d="M138.44,460l4.21,0.57v-6.72l-4.21-.57v-2.64l7.33,1V461l4.43,0.58v2.64c-4.71-.61-7.06-0.92-11.76-1.57V460Zm3.64-12.13a1.47,1.47,0,0,1,.55-1.2,1.92,1.92,0,0,1,1.53-.32,2.67,2.67,0,0,1,1.6.74,1.89,1.89,0,0,1,.6,1.35,1.35,1.35,0,0,1-.6,1.18,2.24,2.24,0,0,1-1.6.28,2.53,2.53,0,0,1-1.53-.7A1.85,1.85,0,0,1,142.08,447.87Z"/><path d="M153.56,453.46a11.92,11.92,0,0,1,2.22-.46,12.4,12.4,0,0,1,3,.06,7.13,7.13,0,0,1,2.12.56,4.2,4.2,0,0,1,1.41,1,3.77,3.77,0,0,1,.78,1.42,6.11,6.11,0,0,1,.24,1.76q0,1.22-.08,2.08t-0.08,1.53a10.67,10.67,0,0,0,0,1.13c0,0.22.06,0.45,0.07,0.66l1.56,0.19V466l-4-.49-0.31-1.67h-0.12A3.44,3.44,0,0,1,159,465a4.26,4.26,0,0,1-2.38.24,4.57,4.57,0,0,1-2.83-1.32,3.72,3.72,0,0,1-1-2.68,3.52,3.52,0,0,1,.37-1.69,2.57,2.57,0,0,1,1.07-1.06,4.54,4.54,0,0,1,1.69-.48,9.74,9.74,0,0,1,2.2,0c0.29,0,.59.09,0.91,0.16l1.17,0.24a2.4,2.4,0,0,0,0-.47v-0.46a1.73,1.73,0,0,0-.52-1.37,2.83,2.83,0,0,0-1.55-.59,7,7,0,0,0-2.19,0,12.71,12.71,0,0,0-1.64.42Zm4.08,9.32a2.67,2.67,0,0,0,1.71-.21,2.36,2.36,0,0,0,.83-0.8v-1.44l-0.71-.2a8.51,8.51,0,0,0-1-.19,4.88,4.88,0,0,0-.9,0,2.71,2.71,0,0,0-.81.16,1.33,1.33,0,0,0-.57.4,1,1,0,0,0-.21.67,1.54,1.54,0,0,0,.39,1.09A2.06,2.06,0,0,0,157.63,462.78Z"/><path d="M167.87,449.61l5.11,0.6v11.09a5.49,5.49,0,0,0,.45,2.62,1.83,1.83,0,0,0,1.46.89,3.91,3.91,0,0,0,1.22,0,4.12,4.12,0,0,0,1-.34l1.18,2.29q-0.41.22-.82,0.4a4.63,4.63,0,0,1-.86.29,5.46,5.46,0,0,1-1,.13,7.82,7.82,0,0,1-1.21-.05A5.08,5.08,0,0,1,171,466a5,5,0,0,1-1.13-3.4V452.48l-2-.24v-2.64Z"/><path d="M191.09,474.09a12.28,12.28,0,0,1-3.26-1.4,11.14,11.14,0,0,1-2.81-2.44,11.68,11.68,0,0,1-2-3.48,13.18,13.18,0,0,1-.73-4.54,11.86,11.86,0,0,1,.73-4.37,9,9,0,0,1,2-3.09,8.36,8.36,0,0,1,2.81-1.88,11,11,0,0,1,3.26-.78l0.58,2.63a9.16,9.16,0,0,0-1.91.48,6,6,0,0,0-2,1.25,6.93,6.93,0,0,0-1.62,2.33,9.22,9.22,0,0,0-.66,3.77,9.39,9.39,0,0,0,.7,3.79,9.52,9.52,0,0,0,1.69,2.67,8.72,8.72,0,0,0,2.05,1.68,9.1,9.1,0,0,0,1.78.82Z"/><path d="M200.27,467.51a5.16,5.16,0,0,0,1.47,0,3.3,3.3,0,0,0,1.17-.44,2.22,2.22,0,0,0,.77-0.81,2.4,2.4,0,0,0,.28-1.17,2.7,2.7,0,0,0-1-2.18,5.8,5.8,0,0,0-3.13-1.06l-0.61,0-0.66,0-0.74-.05v-8.78l8.7,0.85v2.93l-6-.58v3.24h0.39l0.32,0,0.28,0a7.4,7.4,0,0,1,2.23.57,5.77,5.77,0,0,1,1.8,1.22,5.4,5.4,0,0,1,1.19,1.81,5.88,5.88,0,0,1,.42,2.24,5.22,5.22,0,0,1-.53,2.43,4.5,4.5,0,0,1-1.44,1.65,5.79,5.79,0,0,1-2.11.89,8.35,8.35,0,0,1-2.57.12,6.66,6.66,0,0,1-1.13-.22q-0.6-.17-1.18-0.38a11.31,11.31,0,0,1-1.07-.46q-0.49-.24-0.83-0.44l1-2.39a8.08,8.08,0,0,0,1.26.66A5.87,5.87,0,0,0,200.27,467.51Z"/><path d="M211.87,473.52a7.57,7.57,0,0,0,1.78-.47,6.63,6.63,0,0,0,2.05-1.28,7.28,7.28,0,0,0,1.69-2.33,8.44,8.44,0,0,0,.7-3.66,10.2,10.2,0,0,0-.66-3.9,9.08,9.08,0,0,0-1.62-2.65,8,8,0,0,0-2-1.65,11,11,0,0,0-1.91-.86l0.58-2.52a13.1,13.1,0,0,1,3.27,1.43,11.11,11.11,0,0,1,2.81,2.43,11.69,11.69,0,0,1,2,3.47,13.05,13.05,0,0,1,.73,4.52,12,12,0,0,1-.73,4.4,9,9,0,0,1-2,3.09,8.43,8.43,0,0,1-2.81,1.89,10.34,10.34,0,0,1-3.27.76Z"/><path d="M376.87,478v-2.64l2.84,0V468.6l-2.87,0V466l2.87,0v-0.67a4.43,4.43,0,0,1,.4-1.95,4,4,0,0,1,1-1.35,4.36,4.36,0,0,1,1.51-.8,6.29,6.29,0,0,1,1.77-.27,11.3,11.3,0,0,1,2.74.24,6.92,6.92,0,0,1,1.77.66L388,464.2a10.9,10.9,0,0,0-1.19-.46,5.23,5.23,0,0,0-1.65-.19,2.37,2.37,0,0,0-1.82.61,2.62,2.62,0,0,0-.52,1.77l5.06-.06v2.64l-5.06.07v6.72l5.09-.07v2.64C383.5,477.92,381.29,477.95,376.87,478Z"/><path d="M391.79,466.62a13.48,13.48,0,0,1,2.23-.78,12.84,12.84,0,0,1,3-.37,6.65,6.65,0,0,1,2.13.26,3.48,3.48,0,0,1,1.42.82,3.15,3.15,0,0,1,.78,1.3,5.73,5.73,0,0,1,.24,1.72q0,1.22-.08,2.09t-0.08,1.54a10,10,0,0,0,0,1.13c0,0.22.06,0.44,0.07,0.65l1.57,0v2.64l-4,.09L398.75,476h-0.12a4.27,4.27,0,0,1-1.37,1.31,4.64,4.64,0,0,1-2.4.59A4,4,0,0,1,392,477,3.22,3.22,0,0,1,391,474.5a3.85,3.85,0,0,1,.37-1.75,3.19,3.19,0,0,1,1.08-1.22,5.23,5.23,0,0,1,1.7-.73,10.08,10.08,0,0,1,2.22-.27,9.09,9.09,0,0,1,.91,0l1.17,0.07a2.48,2.48,0,0,0,0-.48v-0.46a1.5,1.5,0,0,0-.53-1.3,2.54,2.54,0,0,0-1.56-.36,7.36,7.36,0,0,0-2.2.35,14.65,14.65,0,0,0-1.65.65Zm4.1,8.73a2.67,2.67,0,0,0,2.55-1.37v-1.44l-0.72-.09a8.29,8.29,0,0,0-1,0,5,5,0,0,0-.91.1,3,3,0,0,0-.81.28,1.64,1.64,0,0,0-.57.48,1.15,1.15,0,0,0-.21.7,1.35,1.35,0,0,0,.39,1A1.83,1.83,0,0,0,395.89,475.35Z"/><path d="M417.24,476a7.14,7.14,0,0,1-2.31,1.19,10.27,10.27,0,0,1-2.77.45,7.78,7.78,0,0,1-2.78-.38,5.47,5.47,0,0,1-2-1.23,5.26,5.26,0,0,1-1.27-2,7.34,7.34,0,0,1-.43-2.58,6.84,6.84,0,0,1,.51-2.7,5.86,5.86,0,0,1,1.41-2,6.29,6.29,0,0,1,2.13-1.29,8.4,8.4,0,0,1,2.68-.5,9.83,9.83,0,0,1,2.53.24,11.43,11.43,0,0,1,1.81.54V470l-2.65.08v-2.21a6.81,6.81,0,0,0-1.49-.12,4.61,4.61,0,0,0-1.34.24,3.39,3.39,0,0,0-1.18.68,3.52,3.52,0,0,0-.84,1.14,3.72,3.72,0,0,0-.33,1.62,3.65,3.65,0,0,0,.26,1.41,3.24,3.24,0,0,0,.75,1.11,3.28,3.28,0,0,0,1.19.72,4.27,4.27,0,0,0,1.58.23,5.75,5.75,0,0,0,2.25-.45,9.28,9.28,0,0,0,1.31-.71Z"/><path d="M421.33,467.68l-2.39.08v-2.64l2.39-.08v-2.74l3.13-1v3.62l6.31-.24v2.64l-6.31.24V471a4,4,0,0,0,.7,2.65,2.33,2.33,0,0,0,2,.76,4.21,4.21,0,0,0,1.18-.2,4.65,4.65,0,0,0,1-.43,5.75,5.75,0,0,0,.77-0.56l0.64-.55,1.45,2.1a4.88,4.88,0,0,1-1,.92,9.15,9.15,0,0,1-1.33.75,8.61,8.61,0,0,1-1.48.53,7.23,7.23,0,0,1-1.52.23,5,5,0,0,1-4.06-1.35q-1.36-1.45-1.36-4.72v-3.43Z"/><path d="M433.84,470.57a7.53,7.53,0,0,1,.46-2.71,5.84,5.84,0,0,1,1.3-2,5.91,5.91,0,0,1,2-1.32,7.93,7.93,0,0,1,2.61-.54,7.44,7.44,0,0,1,2.71.33,5.25,5.25,0,0,1,2,1.19,5.06,5.06,0,0,1,1.24,1.94,7.45,7.45,0,0,1,.42,2.57,7.55,7.55,0,0,1-.46,2.71,5.79,5.79,0,0,1-3.31,3.39,7.86,7.86,0,0,1-2.61.54,7.37,7.37,0,0,1-2.71-.33,5.26,5.26,0,0,1-2-1.2,5.09,5.09,0,0,1-1.24-2A7.47,7.47,0,0,1,433.84,470.57Zm3.23-.14a4.63,4.63,0,0,0,.22,1.45,3.38,3.38,0,0,0,.63,1.15,2.65,2.65,0,0,0,1,.74,3,3,0,0,0,1.33.22,3.2,3.2,0,0,0,2.28-1,4.86,4.86,0,0,0,.06-5.49,2.7,2.7,0,0,0-2.34-.91,3.84,3.84,0,0,0-1.25.26,2.62,2.62,0,0,0-1,.71,3.41,3.41,0,0,0-.66,1.18A5.25,5.25,0,0,0,437.06,470.43Z"/><path d="M448.38,473.25l3-.15v-6.72l-3,.15v-2.64l5.42-.28,0.36,1.56h0.1a6.92,6.92,0,0,1,1.54-1.4,4,4,0,0,1,2-.64,2.59,2.59,0,0,1,2.28.93,5.56,5.56,0,0,1,.83,3.48l-2.82.16a2.34,2.34,0,0,0-.25-1.25,0.84,0.84,0,0,0-.81-0.35,2.51,2.51,0,0,0-1.55.57,5.24,5.24,0,0,0-1,1.16v5.11l5.23-.29v2.64c-4.54.26-6.8,0.38-11.34,0.62v-2.64Z"/><path d="M463.31,472.42l4.24-.26v-6.72l-4.24.26v-2.64l7.37-.46V472l4.45-.29v2.64c-4.73.32-7.09,0.47-11.82,0.75v-2.64ZM467,459.58a1.81,1.81,0,0,1,.55-1.31,2.28,2.28,0,0,1,1.54-.62,2.24,2.24,0,0,1,1.61.43,1.53,1.53,0,0,1,.6,1.23,1.67,1.67,0,0,1-.6,1.3,2.61,2.61,0,0,1-1.61.6,2.13,2.13,0,0,1-1.54-.4A1.51,1.51,0,0,1,467,459.58Z"/><path d="M478.5,462.9a14.14,14.14,0,0,1,2.23-.9,13.09,13.09,0,0,1,3-.53,6.52,6.52,0,0,1,2.13.14,3.25,3.25,0,0,1,1.42.75,2.94,2.94,0,0,1,.78,1.26,5.62,5.62,0,0,1,.24,1.71q0,1.22-.08,2.09T488.12,469a10.11,10.11,0,0,0,0,1.12c0,0.22.06,0.44,0.07,0.64l1.56-.12v2.64l-4,.3L485.45,472h-0.12a4.61,4.61,0,0,1-1.36,1.38,4.81,4.81,0,0,1-2.39.71,3.83,3.83,0,0,1-2.85-.76,3.06,3.06,0,0,1-1.05-2.47,4,4,0,0,1,.37-1.77,3.44,3.44,0,0,1,1.08-1.27,5.55,5.55,0,0,1,1.7-.81,10.29,10.29,0,0,1,2.21-.39,9.05,9.05,0,0,1,.91,0h1.17a2.54,2.54,0,0,0,0-.48v-0.46a1.43,1.43,0,0,0-.52-1.27,2.45,2.45,0,0,0-1.55-.28,7.56,7.56,0,0,0-2.2.47,15.47,15.47,0,0,0-1.65.74Zm4.1,8.52a3,3,0,0,0,1.71-.54,3.14,3.14,0,0,0,.83-1v-1.44l-0.71-.06a8.15,8.15,0,0,0-1,0,5.13,5.13,0,0,0-.9.15,3.2,3.2,0,0,0-.81.32,1.77,1.77,0,0,0-.57.51,1.2,1.2,0,0,0-.21.71,1.28,1.28,0,0,0,.39,1A1.76,1.76,0,0,0,482.59,471.42Z"/><path d="M492.86,456.23l5.12-.41v11.09a4.9,4.9,0,0,0,.46,2.53,1.48,1.48,0,0,0,1.47.6,4.19,4.19,0,0,0,1.23-.26,5.14,5.14,0,0,0,1-.52l1.18,2.06q-0.41.3-.82,0.56a5.75,5.75,0,0,1-.87.46,6.24,6.24,0,0,1-1,.32,8.18,8.18,0,0,1-1.21.18A4.25,4.25,0,0,1,496,472a4.15,4.15,0,0,1-1.13-3.17V458.71l-2,.16v-2.64Z"/><path d="M507.07,474.67c4.27-.37,6.4-0.56,10.67-1,0,1,0,1.54,0,2.57-4.27.4-6.4,0.59-10.67,1v-2.57Z"/><path d="M519.62,453.93l4.85-.46v6.14h0.1a4.66,4.66,0,0,1,1.54-1.37,5.61,5.61,0,0,1,2.26-.68,5.48,5.48,0,0,1,1.68.07,2.81,2.81,0,0,1,1.32.66,3.28,3.28,0,0,1,.86,1.41,7.25,7.25,0,0,1,.31,2.31v7.46l-3.12.32V463a2.74,2.74,0,0,0-.62-2,2,2,0,0,0-1.63-.49,3,3,0,0,0-1.63.7,3.37,3.37,0,0,0-1.06,1.48v7.66l-3.12.3V456.41l-1.73.16C519.62,455.52,519.62,455,519.62,453.93Z"/><path d="M546.85,466.67a5,5,0,0,1-.8.65,8.79,8.79,0,0,1-1.15.64,9.79,9.79,0,0,1-3.13.87,7.84,7.84,0,0,1-2.75-.14,4.65,4.65,0,0,1-3.34-2.9,7,7,0,0,1-.44-2.61,7.46,7.46,0,0,1,.5-2.82,6.4,6.4,0,0,1,1.38-2.12,6.66,6.66,0,0,1,2.05-1.4,8.5,8.5,0,0,1,2.54-.67,7.71,7.71,0,0,1,1.89,0,4.58,4.58,0,0,1,1.79.63,3.78,3.78,0,0,1,1.33,1.42,5,5,0,0,1,.52,2.44A11.84,11.84,0,0,1,547,463l-8.64.93a2.56,2.56,0,0,0,.32,1.26,2.21,2.21,0,0,0,.79.78,3.09,3.09,0,0,0,1.13.37,5.56,5.56,0,0,0,1.36,0,7.43,7.43,0,0,0,2.36-.59,5.77,5.77,0,0,0,1.5-1Zm-5.18-8a4.24,4.24,0,0,0-1.18.3,3.75,3.75,0,0,0-1,.61,3.21,3.21,0,0,0-.73.9,2.76,2.76,0,0,0-.34,1.14l5.91-.63a2.39,2.39,0,0,0-.66-1.82A2.42,2.42,0,0,0,541.66,458.67Z"/><path d="M550.52,450.73l5.11-.59c0,4.43,0,6.65,0,11.09a4.82,4.82,0,0,0,.46,2.52,1.42,1.42,0,0,0,1.46.55,4.26,4.26,0,0,0,1.22-.3,5.35,5.35,0,0,0,1-.56l1.18,2q-0.41.31-.82,0.59a6,6,0,0,1-.86.49,6.44,6.44,0,0,1-1,.36,8.3,8.3,0,0,1-1.21.23,4.13,4.13,0,0,1-3.38-.76,4,4,0,0,1-1.13-3.13c0-4,0-6,0-10.08l-2,.23v-2.64Z"/><path d="M562.82,454.1l4.08-.5,0.36,1.4h0.1a5.27,5.27,0,0,1,4-2.28,5.5,5.5,0,0,1,2,.09,3.34,3.34,0,0,1,1.58.89,4.37,4.37,0,0,1,1,1.74,8.55,8.55,0,0,1,.36,2.67,9.35,9.35,0,0,1-.41,2.82,6.92,6.92,0,0,1-1.17,2.25,6,6,0,0,1-1.87,1.56,7.1,7.1,0,0,1-2.52.77,9.69,9.69,0,0,1-1.46.07,3.68,3.68,0,0,1-1.2-.2c0,2,0,3,0,4.92l-3.12.38V456.52l-1.8.22V454.1Zm7.62,1.37a3.53,3.53,0,0,0-1.67.66,2.81,2.81,0,0,0-1,1.5v5a2.26,2.26,0,0,0,1,.3,5.21,5.21,0,0,0,1.28,0,3.64,3.64,0,0,0,1.25-.38,3,3,0,0,0,1-.86,4.14,4.14,0,0,0,.67-1.36,6.58,6.58,0,0,0,.24-1.88,3.2,3.2,0,0,0-.77-2.35A2.21,2.21,0,0,0,570.44,455.46Z"/><path d="M590,461.32a5.17,5.17,0,0,1-.8.67,9,9,0,0,1-1.15.67,10.06,10.06,0,0,1-1.45.58,9.89,9.89,0,0,1-1.68.37,7.78,7.78,0,0,1-2.74-.07,4.48,4.48,0,0,1-3.33-2.81,7,7,0,0,1-.44-2.59,7.57,7.57,0,0,1,.5-2.84,6.63,6.63,0,0,1,1.38-2.16,6.89,6.89,0,0,1,2-1.46,8.64,8.64,0,0,1,2.54-.73,7.67,7.67,0,0,1,1.88,0,4.47,4.47,0,0,1,1.78.59,3.63,3.63,0,0,1,1.33,1.39,4.92,4.92,0,0,1,.52,2.43,11.93,11.93,0,0,1-.24,2.27l-8.62,1.16a2.51,2.51,0,0,0,.32,1.25,2.12,2.12,0,0,0,.79.76,3,3,0,0,0,1.13.34,5.53,5.53,0,0,0,1.35,0,7.54,7.54,0,0,0,2.36-.65,6,6,0,0,0,1.5-1Zm-5.17-7.87a4.3,4.3,0,0,0-1.17.33,3.88,3.88,0,0,0-1,.63,3.32,3.32,0,0,0-.73.92,2.83,2.83,0,0,0-.34,1.15l5.89-.79a2.33,2.33,0,0,0-.66-1.81A2.37,2.37,0,0,0,584.82,453.46Z"/><path d="M592.5,459.61l3-.41v-6.72l-3,.42v-2.64l5.38-.76,0.36,1.53h0.1a7.85,7.85,0,0,1,1.53-1.54,4.29,4.29,0,0,1,2-.82,2.37,2.37,0,0,1,2.26.73,5.26,5.26,0,0,1,.83,3.41l-2.8.41a2.22,2.22,0,0,0-.25-1.22,0.76,0.76,0,0,0-.8-0.28,2.72,2.72,0,0,0-1.54.7,6,6,0,0,0-1,1.25v5.11l5.19-.75v2.64c-4.51.66-6.76,1-11.27,1.6v-2.64Z"/><path d="M616.8,463.78a9.88,9.88,0,0,1-3.25-.56,7.71,7.71,0,0,1-2.8-1.71,8.33,8.33,0,0,1-1.95-3,11.65,11.65,0,0,1-.73-4.36,13.47,13.47,0,0,1,.73-4.56,12.67,12.67,0,0,1,1.95-3.59,12.12,12.12,0,0,1,2.8-2.61,13.93,13.93,0,0,1,3.25-1.63l0.57,2.48a11.71,11.71,0,0,0-1.9,1,8.67,8.67,0,0,0-2,1.77,9.83,9.83,0,0,0-1.61,2.75,10.55,10.55,0,0,0-.66,3.94,8.19,8.19,0,0,0,.69,3.62,6.65,6.65,0,0,0,1.69,2.23,6.09,6.09,0,0,0,2,1.15,7.2,7.2,0,0,0,1.77.36Z"/><path d="M622.79,455.12l3.65-.58c0-4.2,0-6.29,0-10.49L623.3,447l-1.43-1.69,5.45-5,2.1-.34c0,5.66,0,8.5,0,14.16l3.58-.58v2.64c-4.08.67-6.12,1-10.2,1.64v-2.64Z"/><path d="M639.79,453.45a2,2,0,0,1,.54-1.39,2.33,2.33,0,0,1,1.35-.71,2,2,0,0,1,2,.53,2.93,2.93,0,0,1,.67,2,5.07,5.07,0,0,1-.42,2,6.6,6.6,0,0,1-1.08,1.72,7.54,7.54,0,0,1-1.49,1.31,7.25,7.25,0,0,1-1.63.83l-0.64-1.21a8.33,8.33,0,0,0,1.16-.6,5.9,5.9,0,0,0,1.06-.84,4.72,4.72,0,0,0,.8-1.06,3,3,0,0,0,.37-1.22,3.18,3.18,0,0,1-1.22.24,1.56,1.56,0,0,1-.82-0.24,1.25,1.25,0,0,1-.47-0.59A2.3,2.3,0,0,1,639.79,453.45Z"/><path d="M654.55,450a5.8,5.8,0,0,0,1.45-.45,4.52,4.52,0,0,0,1.16-.76,3.32,3.32,0,0,0,.76-1,2.88,2.88,0,0,0,.27-1.25,2,2,0,0,0-1-1.89,4.86,4.86,0,0,0-3.11-.2l-0.61.12-0.66.15-0.74.15c0-3.51,0-5.27,0-8.78l8.62-1.54c0,1.17,0,1.76,0,2.93l-6,1.07v3.24l0.38-.09,0.32-.07,0.27-.06a6.63,6.63,0,0,1,2.22,0,4.06,4.06,0,0,1,1.79.72,3.66,3.66,0,0,1,1.18,1.48,5.08,5.08,0,0,1,.42,2.12,6.22,6.22,0,0,1-.52,2.58,6.67,6.67,0,0,1-1.43,2,8.1,8.1,0,0,1-2.1,1.47,9.53,9.53,0,0,1-2.55.83,6.29,6.29,0,0,1-1.12.09c-0.4,0-.79,0-1.17-0.06a9.17,9.17,0,0,1-1.06-.16,8.2,8.2,0,0,1-.82-0.22l1-2.67a6.05,6.05,0,0,0,1.25.31A5.24,5.24,0,0,0,654.55,450Z"/><path d="M666.05,452.82a9.88,9.88,0,0,0,1.76-1,9.74,9.74,0,0,0,2-1.84,10.61,10.61,0,0,0,1.68-2.8,9.88,9.88,0,0,0,.69-3.85,8.92,8.92,0,0,0-.65-3.72,6.21,6.21,0,0,0-1.61-2.21,5.4,5.4,0,0,0-2-1.09,8.63,8.63,0,0,0-1.89-.33l0.57-2.67a10.29,10.29,0,0,1,3.24.53,7.46,7.46,0,0,1,2.78,1.66,8.14,8.14,0,0,1,1.94,2.93,11.51,11.51,0,0,1,.72,4.31,13.79,13.79,0,0,1-.72,4.6,13,13,0,0,1-1.94,3.63,12.45,12.45,0,0,1-2.78,2.66,13.28,13.28,0,0,1-3.24,1.66Z"/><path d="M52.81,397.39v-2.64l2.81,0.53v-6.72L52.79,388v-2.64l2.83,0.54v-0.67a4,4,0,0,1,.39-1.87,3,3,0,0,1,1-1.15,3.45,3.45,0,0,1,1.49-.5,5.94,5.94,0,0,1,1.75.07,12.29,12.29,0,0,1,2.7.78,8.52,8.52,0,0,1,1.75,1l-0.9,2.21a13.35,13.35,0,0,0-1.18-.7,5.78,5.78,0,0,0-1.63-.52,2,2,0,0,0-1.8.25,2.25,2.25,0,0,0-.51,1.67l5,0.93v2.64l-5-.93v6.72l5,0.93v2.64C59.36,398.64,57.18,398.23,52.81,397.39Z"/><path d="M67.54,389a11.46,11.46,0,0,1,2.2-.35,12.34,12.34,0,0,1,3,.22,7.37,7.37,0,0,1,2.11.67,4.5,4.5,0,0,1,1.41,1.1,4,4,0,0,1,.77,1.46,6.27,6.27,0,0,1,.24,1.77q0,1.22-.08,2.07c-0.06.57-.08,1.07-0.08,1.52a10.88,10.88,0,0,0,0,1.14c0,0.22.06,0.45,0.07,0.66l1.55,0.27v2.64l-4-.7-0.31-1.69-0.12,0a3.18,3.18,0,0,1-1.35,1,4.15,4.15,0,0,1-2.37.12,4.82,4.82,0,0,1-2.82-1.47,3.93,3.93,0,0,1-1-2.73A3.43,3.43,0,0,1,67.1,395a2.37,2.37,0,0,1,1.06-1,4.32,4.32,0,0,1,1.68-.39,9.69,9.69,0,0,1,2.19.16c0.28,0.05.58,0.12,0.9,0.21l1.16,0.3a2.38,2.38,0,0,0,0-.47v-0.46a1.83,1.83,0,0,0-.52-1.4,3,3,0,0,0-1.54-.67,6.92,6.92,0,0,0-2.18-.08,12.1,12.1,0,0,0-1.63.33Zm4.05,9.54a2.6,2.6,0,0,0,1.7-.12,2.17,2.17,0,0,0,.82-0.75v-1.44l-0.71-.23a8.74,8.74,0,0,0-1-.24,4.87,4.87,0,0,0-.9-0.08,2.6,2.6,0,0,0-.8.12,1.23,1.23,0,0,0-.57.37,1,1,0,0,0-.21.66,1.62,1.62,0,0,0,.39,1.11A2.17,2.17,0,0,0,71.6,398.49Z"/><path d="M92.72,403.35a5.72,5.72,0,0,1-2.29.74,9.68,9.68,0,0,1-2.74-.09,8.68,8.68,0,0,1-2.76-.92,7.11,7.11,0,0,1-2-1.63,6.82,6.82,0,0,1-1.25-2.22,8.15,8.15,0,0,1-.43-2.67,6.2,6.2,0,0,1,.5-2.6,4.44,4.44,0,0,1,1.39-1.75,4.92,4.92,0,0,1,2.11-.88,7.82,7.82,0,0,1,2.65,0,10.77,10.77,0,0,1,2.51.73,13.86,13.86,0,0,1,1.79.9c0,1.69,0,2.53,0,4.22l-2.62-.44v-2.21a7.4,7.4,0,0,0-1.48-.42,4.3,4.3,0,0,0-1.32,0,2.59,2.59,0,0,0-2,1.42,3.33,3.33,0,0,0-.32,1.55,4.09,4.09,0,0,0,.26,1.46,4.23,4.23,0,0,0,.74,1.25,4.27,4.27,0,0,0,1.18,1,4.77,4.77,0,0,0,1.56.54,5.29,5.29,0,0,0,2.23,0,7.32,7.32,0,0,0,1.3-.46Z"/><path d="M96.77,395.81l-2.36-.39v-2.64l2.36,0.39v-2.74l3.1-.38c0,1.45,0,2.17,0,3.62l6.26,1v2.64l-6.26-1v3.43a4.67,4.67,0,0,0,.69,2.79,2.86,2.86,0,0,0,1.93,1.14,4,4,0,0,0,1.17,0,3.8,3.8,0,0,0,.94-0.25,4.37,4.37,0,0,0,.76-0.41l0.63-.43,1.43,2.39a3.66,3.66,0,0,1-1,.72,7.2,7.2,0,0,1-1.31.49,7.36,7.36,0,0,1-1.47.24,6.89,6.89,0,0,1-1.5-.07,6.1,6.1,0,0,1-4-2.15,7.94,7.94,0,0,1-1.35-5v-3.43Z"/><path d="M109.17,401.14a6.86,6.86,0,0,1,.45-2.62,4.46,4.46,0,0,1,1.29-1.79,4.56,4.56,0,0,1,2-.93,7.33,7.33,0,0,1,2.59,0,8.28,8.28,0,0,1,2.69.86,6.83,6.83,0,0,1,2,1.58,6.54,6.54,0,0,1,1.23,2.19,8.22,8.22,0,0,1,.42,2.65,6.9,6.9,0,0,1-.45,2.62,4.5,4.5,0,0,1-1.29,1.8,4.55,4.55,0,0,1-2,.94,7.26,7.26,0,0,1-2.59,0,8.23,8.23,0,0,1-2.69-.87,6.86,6.86,0,0,1-2-1.59,6.6,6.6,0,0,1-1.23-2.19A8.27,8.27,0,0,1,109.17,401.14Zm3.2,0.49a5.11,5.11,0,0,0,.21,1.5,4.32,4.32,0,0,0,.62,1.27,3.51,3.51,0,0,0,1,.93,3.36,3.36,0,0,0,1.31.48,2.67,2.67,0,0,0,2.26-.55,3.41,3.41,0,0,0,.87-2.68,4.7,4.7,0,0,0-.81-2.8,3.32,3.32,0,0,0-2.32-1.37,3.55,3.55,0,0,0-1.24,0,2,2,0,0,0-1,.51,2.64,2.64,0,0,0-.66,1.05A4.86,4.86,0,0,0,112.37,401.64Z"/><path d="M123.61,406.68l3,0.43c0-2.69,0-4,0-6.72l-3-.43v-2.64L129,398.1l0.36,1.64h0.1a5.17,5.17,0,0,1,1.53-1.1,3.5,3.5,0,0,1,2-.24,3.2,3.2,0,0,1,2.26,1.37,6.39,6.39,0,0,1,.83,3.64l-2.8-.39a2.64,2.64,0,0,0-.25-1.3,1,1,0,0,0-.8-0.51,2.15,2.15,0,0,0-1.54.26,3.9,3.9,0,0,0-1,1c0,2,0,3.07,0,5.11l5.19,0.73v2.64c-4.51-.63-6.76-0.95-11.27-1.61v-2.64Z"/><path d="M138.44,408.78l4.21,0.57v-6.72l-4.21-.57v-2.64l7.33,1c0,3.74,0,5.62,0,9.36l4.43,0.58c0,1.06,0,1.58,0,2.64-4.71-.61-7.06-0.92-11.76-1.57v-2.64Zm3.64-12.13a1.47,1.47,0,0,1,.55-1.2,1.92,1.92,0,0,1,1.53-.32,2.68,2.68,0,0,1,1.6.74,1.89,1.89,0,0,1,.6,1.35,1.35,1.35,0,0,1-.6,1.18,2.24,2.24,0,0,1-1.6.28,2.53,2.53,0,0,1-1.53-.7A1.85,1.85,0,0,1,142.08,396.65Z"/><path d="M153.55,402.24a11.92,11.92,0,0,1,2.22-.46,12.41,12.41,0,0,1,3,.06,7.13,7.13,0,0,1,2.12.56,4.2,4.2,0,0,1,1.41,1,3.78,3.78,0,0,1,.78,1.42,6.11,6.11,0,0,1,.24,1.76q0,1.22-.08,2.08c-0.06.57-.08,1.08-0.08,1.53a10.61,10.61,0,0,0,0,1.13c0,0.22.06,0.45,0.07,0.66l1.56,0.19v2.64l-4-.49-0.31-1.67h-0.12a3.45,3.45,0,0,1-1.36,1.12,4.26,4.26,0,0,1-2.38.24,4.57,4.57,0,0,1-2.83-1.32,3.72,3.72,0,0,1-1-2.68,3.52,3.52,0,0,1,.37-1.69,2.57,2.57,0,0,1,1.07-1.06,4.55,4.55,0,0,1,1.69-.48,9.76,9.76,0,0,1,2.2,0q0.43,0.05.91,0.16l1.17,0.24a2.4,2.4,0,0,0,0-.47v-0.46a1.73,1.73,0,0,0-.52-1.37,2.84,2.84,0,0,0-1.55-.59,7,7,0,0,0-2.19,0,12.6,12.6,0,0,0-1.64.42Zm4.08,9.32a2.67,2.67,0,0,0,1.71-.21,2.35,2.35,0,0,0,.83-0.8v-1.44l-0.71-.2a8.55,8.55,0,0,0-1-.19,4.9,4.9,0,0,0-.9,0,2.71,2.71,0,0,0-.81.16,1.33,1.33,0,0,0-.57.4,1,1,0,0,0-.21.67,1.54,1.54,0,0,0,.39,1.09A2.06,2.06,0,0,0,157.63,411.56Z"/><path d="M167.86,398.39L173,399c0,4.44,0,6.65,0,11.09a5.48,5.48,0,0,0,.45,2.62,1.84,1.84,0,0,0,1.46.89,3.9,3.9,0,0,0,1.22,0,4.11,4.11,0,0,0,1-.34l1.18,2.29q-0.41.22-.81,0.4a4.65,4.65,0,0,1-.86.29,5.44,5.44,0,0,1-1,.13,7.87,7.87,0,0,1-1.21-.05,5.08,5.08,0,0,1-3.38-1.54,5,5,0,0,1-1.13-3.4c0-4,0-6,0-10.08l-2-.24C167.86,400,167.86,399.44,167.86,398.39Z"/><path d="M182,419.62c4.26,0.47,6.39.7,10.66,1.14,0,1,0,1.54,0,2.57-4.26-.44-6.4-0.67-10.66-1.14v-2.57Z"/><path d="M194.57,401.34l4.85,0.49c0,2.46,0,3.69,0,6.14h0.1a3.53,3.53,0,0,1,1.54-1.07,5,5,0,0,1,2.26-.24,6,6,0,0,1,1.68.4,3.62,3.62,0,0,1,1.32.92,4.21,4.21,0,0,1,.86,1.58,7.85,7.85,0,0,1,.31,2.37c0,3,0,4.48,0,7.46l-3.12-.3c0-2.73,0-4.09,0-6.82a3.21,3.21,0,0,0-.62-2.17,2.4,2.4,0,0,0-1.63-.81,2.53,2.53,0,0,0-1.63.38,2.56,2.56,0,0,0-1.06,1.28c0,3.06,0,4.59,0,7.66l-3.12-.31c0-5.66,0-8.5,0-14.16l-1.73-.18C194.57,402.93,194.57,402.4,194.57,401.34Z"/><path d="M221.82,419.44a3.77,3.77,0,0,1-.81.5,7.07,7.07,0,0,1-1.15.42,8.46,8.46,0,0,1-1.45.26,9.25,9.25,0,0,1-1.68,0,8.56,8.56,0,0,1-2.75-.68,6.13,6.13,0,0,1-3.34-3.56,7.72,7.72,0,0,1-.44-2.69,6.71,6.71,0,0,1,.5-2.73,4.87,4.87,0,0,1,1.38-1.85,5.18,5.18,0,0,1,2.06-1,7.76,7.76,0,0,1,2.55-.17,8.26,8.26,0,0,1,1.89.41,5.73,5.73,0,0,1,1.79,1,5,5,0,0,1,1.33,1.69,5.62,5.62,0,0,1,.52,2.54,11.09,11.09,0,0,1-.24,2.21l-8.65-.77a2.83,2.83,0,0,0,1.12,2.26,3.79,3.79,0,0,0,1.13.59,5.89,5.89,0,0,0,1.36.28,6.81,6.81,0,0,0,2.37-.13,4.5,4.5,0,0,0,1.5-.68Zm-5.19-9a3.88,3.88,0,0,0-1.18.07,3,3,0,0,0-1,.41,2.39,2.39,0,0,0-.73.75,2.33,2.33,0,0,0-.34,1.07l5.91,0.53a2.86,2.86,0,0,0-.66-2A2.89,2.89,0,0,0,216.63,410.42Z"/><path d="M225.5,404.22l5.12,0.42c0,4.44,0,6.65,0,11.09a5.36,5.36,0,0,0,.46,2.6,1.76,1.76,0,0,0,1.47.84,3.94,3.94,0,0,0,1.23-.06,4.27,4.27,0,0,0,1-.37l1.18,2.25q-0.41.23-.82,0.43a4.82,4.82,0,0,1-.87.32,5.61,5.61,0,0,1-1,.16,7.91,7.91,0,0,1-1.21,0,4.91,4.91,0,0,1-3.39-1.43,4.8,4.8,0,0,1-1.13-3.36c0-4,0-6,0-10.08l-2-.17C225.5,405.81,225.5,405.28,225.5,404.22Z"/><path d="M237.83,410l4.09,0.31,0.36,1.47h0.1a4.29,4.29,0,0,1,4-1.48,6,6,0,0,1,2,.49A4.38,4.38,0,0,1,250,412a5.6,5.6,0,0,1,1,1.94,9.21,9.21,0,0,1,.36,2.74,8.55,8.55,0,0,1-.41,2.74,5.39,5.39,0,0,1-1.18,2,4.58,4.58,0,0,1-1.88,1.19,6.37,6.37,0,0,1-2.53.28,10.09,10.09,0,0,1-1.47-.21,4.31,4.31,0,0,1-1.2-.44c0,2,0,3,0,4.92l-3.13-.23c0-5.66,0-8.5,0-14.16l-1.8-.14C237.83,411.59,237.83,411.07,237.83,410Zm7.65,2.87a3,3,0,0,0-1.67.34,2.14,2.14,0,0,0-1,1.29v5a2.79,2.79,0,0,0,1,.49,5.53,5.53,0,0,0,1.29.25,3.26,3.26,0,0,0,1.25-.14,2.32,2.32,0,0,0,1-.66,3.25,3.25,0,0,0,.67-1.23,6.08,6.08,0,0,0,.24-1.83,3.77,3.77,0,0,0-.77-2.5A2.7,2.7,0,0,0,245.48,412.88Z"/><path d="M265.12,422.59a3.92,3.92,0,0,1-.81.52,7.24,7.24,0,0,1-1.15.45,8.61,8.61,0,0,1-1.46.3,9.26,9.26,0,0,1-1.69,0,8.44,8.44,0,0,1-2.76-.61,5.91,5.91,0,0,1-3.35-3.47,7.63,7.63,0,0,1-.44-2.68,6.79,6.79,0,0,1,.51-2.74,5.05,5.05,0,0,1,1.38-1.89,5.35,5.35,0,0,1,2.06-1.05,7.83,7.83,0,0,1,2.55-.23,8.15,8.15,0,0,1,1.89.36,5.55,5.55,0,0,1,1.79.94,4.84,4.84,0,0,1,1.34,1.65,5.52,5.52,0,0,1,.52,2.53,11.19,11.19,0,0,1-.24,2.22l-8.67-.54a2.88,2.88,0,0,0,.32,1.32,2.83,2.83,0,0,0,.79.92,3.71,3.71,0,0,0,1.13.56,5.85,5.85,0,0,0,1.36.24,6.87,6.87,0,0,0,2.37-.19,4.67,4.67,0,0,0,1.5-.72Zm-5.2-8.89a3.92,3.92,0,0,0-1.18.1,3.06,3.06,0,0,0-1,.44,2.5,2.5,0,0,0-.73.77,2.39,2.39,0,0,0-.34,1.08l5.92,0.37a2.78,2.78,0,0,0-.66-1.94A2.82,2.82,0,0,0,259.92,413.71Z"/><path d="M267.65,421.37l3,0.17c0-2.69,0-4,0-6.72l-3-.17V412l5.42,0.31,0.36,1.6h0.1a5.9,5.9,0,0,1,1.54-1.24,3.69,3.69,0,0,1,2-.42,2.9,2.9,0,0,1,2.28,1.17,6,6,0,0,1,.83,3.57l-2.82-.14a2.5,2.5,0,0,0-.25-1.27,0.94,0.94,0,0,0-.81-0.44,2.29,2.29,0,0,0-1.55.4,4.45,4.45,0,0,0-1,1.05v5.11L279,422c0,1.06,0,1.58,0,2.64-4.54-.23-6.81-0.36-11.34-0.62v-2.64Z"/><path d="M292.12,430.34a11.59,11.59,0,0,1-3.28-1.2,10.22,10.22,0,0,1-2.82-2.27,10.81,10.81,0,0,1-2-3.36,12.73,12.73,0,0,1-.73-4.5,12.18,12.18,0,0,1,.73-4.42,9.82,9.82,0,0,1,2-3.21,9.15,9.15,0,0,1,2.82-2.05,11.53,11.53,0,0,1,3.28-1L292.7,411a9.67,9.67,0,0,0-1.92.6,6.59,6.59,0,0,0-2,1.37,7.55,7.55,0,0,0-1.63,2.43,9.49,9.49,0,0,0-.66,3.81,9.07,9.07,0,0,0,.7,3.75,8.76,8.76,0,0,0,1.7,2.56,8,8,0,0,0,2.06,1.56,8.57,8.57,0,0,0,1.78.71Z"/><path d="M298.17,422.87l3.69,0.14c0-4.2,0-6.29,0-10.49l-3.18,2.3-1.44-2,5.49-4,2.12,0.08c0,5.66,0,8.5,0,14.16l3.61,0.13c0,1.06,0,1.58,0,2.64-4.12-.14-6.17-0.21-10.29-0.38v-2.64Z"/><path d="M315.32,424.56a1.59,1.59,0,0,1,.54-1.28,1.93,1.93,0,0,1,1.36-.44,2.45,2.45,0,0,1,2,.92,3.45,3.45,0,0,1,.67,2.15,4.46,4.46,0,0,1-.42,2,5,5,0,0,1-1.1,1.51,5.71,5.71,0,0,1-1.51,1,6,6,0,0,1-1.65.5l-0.65-1.34a6.88,6.88,0,0,0,1.17-.37,4.54,4.54,0,0,0,1.07-.63,3.54,3.54,0,0,0,.81-0.9,2.49,2.49,0,0,0,.37-1.14,3.08,3.08,0,0,1-1.23,0,1.93,1.93,0,0,1-.83-0.41,1.64,1.64,0,0,1-.47-0.69A2.51,2.51,0,0,1,315.32,424.56Z"/><path d="M330.24,424a5.27,5.27,0,0,0,1.47-.16,3.59,3.59,0,0,0,1.17-.53,2.44,2.44,0,0,0,1-2.07,2.47,2.47,0,0,0-1-2.1,5.47,5.47,0,0,0-3.15-.82h-0.61l-0.66,0h-0.75c0-3.51,0-5.27,0-8.78l8.73,0.17c0,1.17,0,1.76,0,2.93l-6-.11c0,1.3,0,1.94,0,3.24l0.39,0h0.6a7.12,7.12,0,0,1,2.24.39,5.21,5.21,0,0,1,1.81,1.08,4.84,4.84,0,0,1,1.19,1.71,5.62,5.62,0,0,1,.42,2.2,5.47,5.47,0,0,1-.53,2.48,5,5,0,0,1-1.45,1.76,6.35,6.35,0,0,1-2.12,1.05,8.59,8.59,0,0,1-2.58.32,6.42,6.42,0,0,1-1.13-.13q-0.6-.12-1.18-0.29A10.6,10.6,0,0,1,327,426q-0.49-.2-0.83-0.38l1-2.47a7.39,7.39,0,0,0,1.27.56A5.62,5.62,0,0,0,330.24,424Z"/><path d="M341.88,429.14a8.11,8.11,0,0,0,1.78-.61,7.41,7.41,0,0,0,2.06-1.44,8.12,8.12,0,0,0,1.7-2.47,8.79,8.79,0,0,0,.7-3.71,9.76,9.76,0,0,0-.66-3.85,8.15,8.15,0,0,0-1.63-2.52,7.12,7.12,0,0,0-2-1.49,10.22,10.22,0,0,0-1.92-.71l0.58-2.56a12.13,12.13,0,0,1,3.28,1.17,9.93,9.93,0,0,1,2.82,2.21,10.58,10.58,0,0,1,2,3.32,12.53,12.53,0,0,1,.73,4.46,12.4,12.4,0,0,1-.73,4.46,10,10,0,0,1-2,3.25,9.44,9.44,0,0,1-2.82,2.11,11,11,0,0,1-3.28,1Z"/><path d="M535,415.36l3-.31v-6.72l-3,.31V406l5.4-.57,0.36,1.55h0.1a7.47,7.47,0,0,1,1.54-1.49,4.16,4.16,0,0,1,2-.75,2.45,2.45,0,0,1,2.27.81,5.38,5.38,0,0,1,.83,3.44l-2.81.31a2.27,2.27,0,0,0-.25-1.23,0.79,0.79,0,0,0-.8-0.31,2.63,2.63,0,0,0-1.55.65,5.65,5.65,0,0,0-1,1.21v5.11l5.21-.57v2.64c-4.52.5-6.78,0.74-11.31,1.21v-2.64Z"/><path d="M561.24,413.79a5,5,0,0,1-.8.66,8.86,8.86,0,0,1-1.15.65,9.94,9.94,0,0,1-1.45.56,9.83,9.83,0,0,1-1.68.34,7.82,7.82,0,0,1-2.75-.11,4.6,4.6,0,0,1-3.34-2.87,7,7,0,0,1-.44-2.6,7.49,7.49,0,0,1,.5-2.83,6.47,6.47,0,0,1,1.38-2.14,6.73,6.73,0,0,1,2.05-1.42,8.55,8.55,0,0,1,2.54-.69,7.69,7.69,0,0,1,1.88,0,4.55,4.55,0,0,1,1.79.62,3.73,3.73,0,0,1,1.33,1.41,5,5,0,0,1,.52,2.43,11.84,11.84,0,0,1-.24,2.26l-8.63,1a2.55,2.55,0,0,0,.32,1.26,2.17,2.17,0,0,0,.79.77,3.07,3.07,0,0,0,1.13.36,5.55,5.55,0,0,0,1.35,0,7.47,7.47,0,0,0,2.36-.61,5.83,5.83,0,0,0,1.5-1Zm-5.18-8a4.25,4.25,0,0,0-1.18.31,3.79,3.79,0,0,0-1,.62,3.25,3.25,0,0,0-.73.9,2.78,2.78,0,0,0-.34,1.14l5.9-.69a2.37,2.37,0,0,0-.66-1.82A2.4,2.4,0,0,0,556.06,405.84Z"/><path d="M575.91,412.09a8,8,0,0,1-2.3,1.41,10.78,10.78,0,0,1-2.76.72,7.5,7.5,0,0,1-2.77-.11,4.82,4.82,0,0,1-2-1,4.62,4.62,0,0,1-1.26-1.85,7,7,0,0,1-.43-2.54,7.24,7.24,0,0,1,.5-2.75,6.69,6.69,0,0,1,1.4-2.16,7.14,7.14,0,0,1,2.12-1.5,8.85,8.85,0,0,1,2.66-.75,9.61,9.61,0,0,1,2.52,0,10.55,10.55,0,0,1,1.8.37v4.22l-2.64.34v-2.21a6.66,6.66,0,0,0-1.49,0,4.85,4.85,0,0,0-1.33.37,3.83,3.83,0,0,0-1.17.79,4,4,0,0,0-.84,1.22,4,4,0,0,0-.32,1.65,3.48,3.48,0,0,0,.26,1.38,2.84,2.84,0,0,0,.74,1,2.9,2.9,0,0,0,1.19.61,4.1,4.1,0,0,0,1.57.08,6.09,6.09,0,0,0,2.24-.67,10.52,10.52,0,0,0,1.31-.84Z"/><path d="M585.11,400l4.45-.6v9.36l1.82-.25v2.64l-3.78.52L587,410H587a5.16,5.16,0,0,1-1.65,1.74,5.61,5.61,0,0,1-2.44.93,5.28,5.28,0,0,1-1.66,0,2.53,2.53,0,0,1-1.28-.62,3.11,3.11,0,0,1-.81-1.38,7.77,7.77,0,0,1-.29-2.31v-4.82l-1.37.18V401l4.48-.59c0,2.73,0,4.09,0,6.82a3.37,3.37,0,0,0,.47,2,1.49,1.49,0,0,0,1.47.45,3,3,0,0,0,1.59-.74,3.41,3.41,0,0,0,1-1.43V402.5l-1.34.18V400Z"/><path d="M592.5,408.39l3-.41v-6.72l-3,.41c0-1.06,0-1.58,0-2.64l5.38-.76,0.36,1.53h0.1a7.85,7.85,0,0,1,1.53-1.54,4.29,4.29,0,0,1,2-.82,2.37,2.37,0,0,1,2.26.73,5.26,5.26,0,0,1,.83,3.41l-2.8.41a2.22,2.22,0,0,0-.25-1.22,0.76,0.76,0,0,0-.8-0.28,2.72,2.72,0,0,0-1.54.7,5.94,5.94,0,0,0-1,1.25c0,2,0,3.07,0,5.11l5.19-.75c0,1.06,0,1.58,0,2.64-4.51.66-6.76,1-11.27,1.6C592.5,410,592.5,409.44,592.5,408.39Z"/><path d="M616.8,412.56a9.89,9.89,0,0,1-3.25-.56,7.71,7.71,0,0,1-2.8-1.71,8.34,8.34,0,0,1-1.95-3,11.65,11.65,0,0,1-.73-4.36,13.48,13.48,0,0,1,.73-4.56,12.68,12.68,0,0,1,1.95-3.59,12.11,12.11,0,0,1,2.8-2.61,13.92,13.92,0,0,1,3.25-1.63l0.57,2.48a11.75,11.75,0,0,0-1.9,1,8.67,8.67,0,0,0-2,1.77,9.83,9.83,0,0,0-1.61,2.75,10.55,10.55,0,0,0-.66,3.94,8.19,8.19,0,0,0,.69,3.62,6.65,6.65,0,0,0,1.69,2.23,6.09,6.09,0,0,0,2,1.15,7.2,7.2,0,0,0,1.77.36Z"/><path d="M625.93,403.62a5.74,5.74,0,0,0,1.46-.43,4.43,4.43,0,0,0,1.16-.74,3.24,3.24,0,0,0,.76-1,2.85,2.85,0,0,0,.27-1.24,2,2,0,0,0-1-1.91,4.9,4.9,0,0,0-3.12-.26l-0.61.11-0.66.14-0.74.14v-8.78l8.64-1.39v2.93l-6,1v3.24l0.38-.09,0.32-.06,0.27-.06a6.67,6.67,0,0,1,2.22,0,4.16,4.16,0,0,1,1.79.75,3.76,3.76,0,0,1,1.18,1.5,5.12,5.12,0,0,1,.42,2.13,6.14,6.14,0,0,1-.53,2.57,6.5,6.5,0,0,1-1.43,2,7.91,7.91,0,0,1-2.1,1.43,9.43,9.43,0,0,1-2.56.78,6.21,6.21,0,0,1-1.12.07q-0.6,0-1.17-.08a9.28,9.28,0,0,1-1.06-.18,8.44,8.44,0,0,1-.82-0.23l1-2.65a6.16,6.16,0,0,0,1.25.33A5.26,5.26,0,0,0,625.93,403.62Z"/><path d="M639.79,402.23a2,2,0,0,1,.54-1.39,2.33,2.33,0,0,1,1.35-.71,2,2,0,0,1,2,.53,2.93,2.93,0,0,1,.67,2,5.07,5.07,0,0,1-.42,2,6.6,6.6,0,0,1-1.08,1.72,7.53,7.53,0,0,1-1.49,1.31,7.24,7.24,0,0,1-1.63.83l-0.64-1.21a8.39,8.39,0,0,0,1.16-.6,5.93,5.93,0,0,0,1.06-.84,4.72,4.72,0,0,0,.8-1.06,3,3,0,0,0,.37-1.22,3.19,3.19,0,0,1-1.22.24,1.55,1.55,0,0,1-.82-0.24,1.25,1.25,0,0,1-.47-0.59A2.3,2.3,0,0,1,639.79,402.23Z"/><path d="M662.65,395.07l-2.86.52v4.68l-2.88.52v-4.68l-7.22,1.28v-2.14l7.55-11.44,2.55-.46v9.74l2.86-.52v2.5Zm-5.74-6.79-4.15,6.07,4.15-.74v-5.33Z"/><path d="M666.05,401.6a9.88,9.88,0,0,0,1.76-1,9.75,9.75,0,0,0,2-1.84,10.62,10.62,0,0,0,1.68-2.8,9.89,9.89,0,0,0,.69-3.85,8.91,8.91,0,0,0-.65-3.72,6.2,6.2,0,0,0-1.61-2.21,5.4,5.4,0,0,0-2-1.09,8.62,8.62,0,0,0-1.89-.33l0.57-2.67a10.29,10.29,0,0,1,3.24.53,7.46,7.46,0,0,1,2.78,1.66,8.14,8.14,0,0,1,1.94,2.93,11.5,11.5,0,0,1,.73,4.31,13.79,13.79,0,0,1-.73,4.6,13,13,0,0,1-1.94,3.63,12.43,12.43,0,0,1-2.78,2.66,13.28,13.28,0,0,1-3.24,1.66Z"/></svg>