<svg id="Layer_1" data-name="Layer 1" xmlns="http://www.w3.org/2000/svg" viewBox="0 0 720 576"><defs><style>.cls-1,.cls-2,.cls-4,.cls-6{fill:#231f20;}.cls-1,.cls-3{stroke:#231f20;}.cls-1,.cls-6{stroke-miterlimit:10;}.cls-1,.cls-2,.cls-3{stroke-width:2px;}.cls-2{stroke:#000;}.cls-2,.cls-3{stroke-linecap:round;stroke-linejoin:round;}.cls-3,.cls-5{fill:#fff;}.cls-6{stroke:#fff;}</style></defs><title>Hanoi_Tower_Set_4</title><path class="cls-1" d="M654.31,506.49c0-.14,0-0.29,0-0.43s0-.29,0-0.43V453.84H62.48s-0.23,51.74-.23,52.22c0,2.67,2.12,5.24,6.08,7.71,13.87,8.61,50.58,16.11,101.74,21.48s116.73,8.59,188.22,8.59c81.71,0,155.68-4.21,209.24-11,26.78-3.41,48.45-7.46,63.44-12,7.5-2.25,13.32-4.62,17.29-7.08,3.38-2.1,5.41-4.29,5.94-6.55h0.1v-0.73Z"/><ellipse class="cls-2" cx="358.3" cy="454.92" rx="295.87" ry="37.63"/><path class="cls-3" d="M654.31,455c0-.14,0-0.29,0-0.43s0-.29,0-0.43V402.36H62.48s-0.23,51.74-.23,52.22c0,2.67,2.12,5.24,6.08,7.71,13.87,8.61,50.58,16.11,101.74,21.48s116.73,8.59,188.22,8.59c81.71,0,155.68-4.21,209.24-11,26.78-3.41,48.45-7.46,63.44-12,7.5-2.25,13.32-4.62,17.29-7.08,3.38-2.1,5.41-4.29,5.94-6.55h0.1V455Z"/><ellipse class="cls-3" cx="358.3" cy="403.44" rx="295.87" ry="37.63"/><path class="cls-4" d="M358.29,412.22c-16,0-29-3.75-30.2-8.61H328l0-.5V8.27h60.63V403.6H388.5C387.27,408.47,374.27,412.22,358.29,412.22Z"/><path class="cls-5" d="M388.12,8.77V403.1h0c-0.49,4.78-13.63,8.61-29.79,8.61s-29.3-3.83-29.79-8.61h0v-0.21s0,0,0-.06,0,0,0-.06V8.77h59.63m1-1H327.49v395s0,0.07,0,.11v1.27h0.23c2,5.6,16.84,8.61,30.58,8.61s28.6-3,30.58-8.61h0.21l0-1V7.77h0Z"/><ellipse class="cls-6" cx="358.29" cy="8.89" rx="29.81" ry="8.89"/><path d="M69.6,445.78v-2.31l2.46,0.47v-5.88l-2.48-.47v-2.31l2.48,0.47v-0.59a3.48,3.48,0,0,1,.34-1.64,2.6,2.6,0,0,1,.91-1,3,3,0,0,1,1.3-.44,5.2,5.2,0,0,1,1.53.07,10.78,10.78,0,0,1,2.36.68,7.5,7.5,0,0,1,1.53.88l-0.79,1.93a11.88,11.88,0,0,0-1-.61,5.08,5.08,0,0,0-1.43-.45,1.77,1.77,0,0,0-1.57.22,2,2,0,0,0-.45,1.46l4.37,0.81v2.31l-4.37-.81v5.88l4.39,0.82v2.31C75.34,446.87,73.43,446.51,69.6,445.78Z"/><path d="M82.49,438.4a10,10,0,0,1,1.93-.3,10.76,10.76,0,0,1,2.59.19,6.43,6.43,0,0,1,1.85.59,4,4,0,0,1,1.23,1,3.55,3.55,0,0,1,.68,1.27,5.48,5.48,0,0,1,.21,1.55q0,1.07-.07,1.81t-0.07,1.33a9.31,9.31,0,0,0,0,1c0,0.2,0,.39.06,0.58l1.36,0.24v2.31l-3.5-.62-0.27-1.48-0.1,0a2.78,2.78,0,0,1-1.18.91,3.63,3.63,0,0,1-2.07.1,4.22,4.22,0,0,1-2.46-1.29,3.44,3.44,0,0,1-.91-2.39,3,3,0,0,1,.32-1.46,2.08,2.08,0,0,1,.93-0.88,3.77,3.77,0,0,1,1.47-.34,8.47,8.47,0,0,1,1.92.14c0.25,0,.51.11,0.79,0.18l1,0.27a2.08,2.08,0,0,0,0-.41v-0.4a1.6,1.6,0,0,0-.46-1.23,2.59,2.59,0,0,0-1.35-.59,6,6,0,0,0-1.9-.07,10.47,10.47,0,0,0-1.43.29ZM86,446.74a2.27,2.27,0,0,0,1.48-.1,1.9,1.9,0,0,0,.72-0.66v-1.26l-0.62-.2a7.8,7.8,0,0,0-.89-0.21,4.26,4.26,0,0,0-.78-0.07,2.3,2.3,0,0,0-.7.1,1.07,1.07,0,0,0-.49.32,0.86,0.86,0,0,0-.19.57,1.42,1.42,0,0,0,.34,1A1.9,1.9,0,0,0,86,446.74Z"/><path d="M104.52,451a5,5,0,0,1-2,.64,8.5,8.5,0,0,1-2.4-.08,7.59,7.59,0,0,1-2.41-.81,6.22,6.22,0,0,1-1.77-1.43,6,6,0,0,1-1.1-1.94,7.14,7.14,0,0,1-.38-2.33,5.41,5.41,0,0,1,.44-2.28,3.87,3.87,0,0,1,1.22-1.53,4.29,4.29,0,0,1,1.85-.76,6.84,6.84,0,0,1,2.32,0,9.42,9.42,0,0,1,2.19.64,12.17,12.17,0,0,1,1.57.79v3.7l-2.3-.39v-1.93a6.46,6.46,0,0,0-1.29-.37,3.75,3.75,0,0,0-1.16,0,2.26,2.26,0,0,0-1.75,1.24,2.92,2.92,0,0,0-.28,1.36,3.58,3.58,0,0,0,.23,1.28,3.7,3.7,0,0,0,.65,1.1,3.75,3.75,0,0,0,1,.84,4.19,4.19,0,0,0,1.37.47,4.62,4.62,0,0,0,2,0,6.46,6.46,0,0,0,1.14-.4Z"/><path d="M108.07,444.42l-2.07-.34v-2.31l2.07,0.34v-2.39l2.72-.33v3.17l5.47,0.88v2.31l-5.47-.88v3a4.09,4.09,0,0,0,.61,2.44,2.5,2.5,0,0,0,1.69,1,3.46,3.46,0,0,0,1,0,3.31,3.31,0,0,0,.83-0.21,3.84,3.84,0,0,0,.67-0.36l0.55-.37,1.25,2.09a3.21,3.21,0,0,1-.89.63,6.26,6.26,0,0,1-1.15.43,6.43,6.43,0,0,1-1.28.2,6,6,0,0,1-1.32-.07,5.34,5.34,0,0,1-3.52-1.89,7,7,0,0,1-1.18-4.36v-3Z"/><path d="M118.91,449.11a6,6,0,0,1,.4-2.29,3.89,3.89,0,0,1,1.13-1.57,4,4,0,0,1,1.75-.81,6.41,6.41,0,0,1,2.27,0,7.24,7.24,0,0,1,2.35.76,6,6,0,0,1,1.75,1.39,5.75,5.75,0,0,1,1.08,1.92,7.22,7.22,0,0,1,.37,2.32,6,6,0,0,1-.4,2.29,3.92,3.92,0,0,1-1.13,1.57,4,4,0,0,1-1.75.82,6.35,6.35,0,0,1-2.27,0,7.19,7.19,0,0,1-2.35-.76,6,6,0,0,1-1.75-1.4,5.78,5.78,0,0,1-1.08-1.92A7.23,7.23,0,0,1,118.91,449.11Zm2.8,0.44a4.47,4.47,0,0,0,.19,1.31,3.79,3.79,0,0,0,.54,1.11,3.07,3.07,0,0,0,.86.82,3,3,0,0,0,1.15.42,2.33,2.33,0,0,0,2-.47,3,3,0,0,0,.76-2.34,4.12,4.12,0,0,0-.71-2.45,2.92,2.92,0,0,0-2-1.2,3.12,3.12,0,0,0-1.09,0,1.75,1.75,0,0,0-.87.44,2.3,2.3,0,0,0-.58.92A4.25,4.25,0,0,0,121.71,449.55Z"/><path d="M131.54,454l2.59,0.38v-5.88l-2.59-.38V445.8l4.71,0.69,0.31,1.43h0.08a4.49,4.49,0,0,1,1.34-1,3,3,0,0,1,1.76-.21,2.81,2.81,0,0,1,2,1.21,5.6,5.6,0,0,1,.72,3.19l-2.45-.35a2.31,2.31,0,0,0-.22-1.13,0.91,0.91,0,0,0-.7-0.45,1.87,1.87,0,0,0-1.35.23,3.42,3.42,0,0,0-.87.84v4.47l4.54,0.65v2.31c-3.94-.56-5.92-0.85-9.86-1.44V454Z"/><path d="M144.52,455.86l3.69,0.51v-5.88l-3.69-.51v-2.31l6.41,0.89c0,3.28,0,4.91,0,8.19l3.88,0.52v2.31c-4.12-.55-6.17-0.83-10.29-1.41v-2.31Zm3.18-10.6a1.28,1.28,0,0,1,.48-1,1.68,1.68,0,0,1,1.34-.28,2.35,2.35,0,0,1,1.4.65,1.66,1.66,0,0,1,.52,1.18,1.17,1.17,0,0,1-.52,1,2,2,0,0,1-1.4.24,2.22,2.22,0,0,1-1.34-.61A1.62,1.62,0,0,1,147.7,445.26Z"/><path d="M157.73,450.18a10.38,10.38,0,0,1,1.94-.4,10.81,10.81,0,0,1,2.61.06,6.24,6.24,0,0,1,1.86.5,3.7,3.7,0,0,1,1.24.9,3.33,3.33,0,0,1,.68,1.24,5.35,5.35,0,0,1,.21,1.54q0,1.07-.07,1.82t-0.07,1.33a9.2,9.2,0,0,0,0,1c0,0.19,0,.39.06,0.58l1.36,0.17v2.31l-3.52-.44-0.28-1.46h-0.1a3,3,0,0,1-1.19,1,3.71,3.71,0,0,1-2.08.2,4,4,0,0,1-2.48-1.16A3.27,3.27,0,0,1,157,457a3.09,3.09,0,0,1,.32-1.48,2.24,2.24,0,0,1,.94-0.93,4,4,0,0,1,1.48-.42,8.5,8.5,0,0,1,1.93,0c0.25,0,.51.08,0.79,0.14l1,0.21a2.1,2.1,0,0,0,0-.41v-0.4a1.52,1.52,0,0,0-.46-1.2,2.48,2.48,0,0,0-1.35-.52,6.11,6.11,0,0,0-1.91,0,10.93,10.93,0,0,0-1.44.36Zm3.57,8.17a2.33,2.33,0,0,0,1.49-.18,2,2,0,0,0,.73-0.7v-1.26l-0.62-.17a7.66,7.66,0,0,0-.89-0.17,4.26,4.26,0,0,0-.79,0,2.38,2.38,0,0,0-.7.14,1.15,1.15,0,0,0-.5.35,0.89,0.89,0,0,0-.19.58,1.35,1.35,0,0,0,.34,1A1.81,1.81,0,0,0,161.3,458.36Z"/><path d="M170.25,446.86l4.47,0.54c0,3.88,0,5.82,0,9.7a4.81,4.81,0,0,0,.4,2.3,1.61,1.61,0,0,0,1.28.78,3.42,3.42,0,0,0,1.07,0,3.6,3.6,0,0,0,.84-0.29l1,2q-0.36.19-.71,0.35a4.09,4.09,0,0,1-.76.25,4.89,4.89,0,0,1-.87.11,6.9,6.9,0,0,1-1.06-.05,4.46,4.46,0,0,1-3-1.36,4.36,4.36,0,0,1-1-3c0-3.53,0-5.29,0-8.82l-1.74-.21C170.25,448.25,170.25,447.79,170.25,446.86Z"/><path d="M190.57,468.38a10.8,10.8,0,0,1-2.86-1.24,9.8,9.8,0,0,1-2.46-2.15,10.29,10.29,0,0,1-1.71-3.05,11.55,11.55,0,0,1-.64-4,10.36,10.36,0,0,1,.64-3.82,7.86,7.86,0,0,1,1.71-2.69,7.27,7.27,0,0,1,2.46-1.63,9.54,9.54,0,0,1,2.86-.67l0.5,2.3a8,8,0,0,0-1.67.41,5.25,5.25,0,0,0-1.77,1.08,6,6,0,0,0-1.42,2,8.06,8.06,0,0,0-.58,3.3,8.25,8.25,0,0,0,.61,3.32,8.37,8.37,0,0,0,1.48,2.34,7.66,7.66,0,0,0,1.8,1.48,8,8,0,0,0,1.55.73Z"/><path d="M198.82,462.8a4.19,4.19,0,0,0,1.27,0,2.66,2.66,0,0,0,1-.4,2.08,2.08,0,0,0,.64-0.69,1.8,1.8,0,0,0,.23-0.91,2.13,2.13,0,0,0-.26-1.08,2.21,2.21,0,0,0-.72-0.75,3.89,3.89,0,0,0-1.11-.47,9.34,9.34,0,0,0-1.41-.25l-1.18-.12v-1.51l3.53-3.94-5.31-.56c0-.92,0-1.39,0-2.31l8.57,0.89v1.91l-3.7,3.84,0.48,0a4.44,4.44,0,0,1,1.43.4,4.06,4.06,0,0,1,1.23.88,4.29,4.29,0,0,1,.86,1.35,4.62,4.62,0,0,1,.33,1.78,4,4,0,0,1-.49,2,4.13,4.13,0,0,1-1.3,1.39A5,5,0,0,1,201,465a7.49,7.49,0,0,1-2.16.08,11.16,11.16,0,0,1-1.89-.37,10,10,0,0,1-1.83-.72l0.74-2.19a3.33,3.33,0,0,0,.51.26l0.74,0.29a8.59,8.59,0,0,0,.84.26A6.07,6.07,0,0,0,198.82,462.8Z"/><path d="M208.74,468a6.62,6.62,0,0,0,1.56-.41,5.75,5.75,0,0,0,1.8-1.11,6.31,6.31,0,0,0,1.48-2,7.37,7.37,0,0,0,.61-3.2,8.94,8.94,0,0,0-.58-3.42,8,8,0,0,0-1.42-2.33,7,7,0,0,0-1.78-1.45,9.73,9.73,0,0,0-1.67-.76l0.5-2.2a11.51,11.51,0,0,1,2.86,1.26,9.79,9.79,0,0,1,2.46,2.14,10.31,10.31,0,0,1,1.71,3,11.43,11.43,0,0,1,.64,4,10.43,10.43,0,0,1-.64,3.85,7.86,7.86,0,0,1-1.71,2.7,7.3,7.3,0,0,1-2.46,1.64,9,9,0,0,1-2.86.65Z"/><path d="M388.33,472.91V470.6l2.49,0v-5.88l-2.51,0v-2.31l2.51,0v-0.59a3.9,3.9,0,0,1,.35-1.71,3.52,3.52,0,0,1,.92-1.19,3.86,3.86,0,0,1,1.32-.71,5.52,5.52,0,0,1,1.55-.26,9.86,9.86,0,0,1,2.39.18,6,6,0,0,1,1.55.56l-0.8,2.1a9.54,9.54,0,0,0-1-.39,4.57,4.57,0,0,0-1.44-.15,2.09,2.09,0,0,0-1.59.55,2.32,2.32,0,0,0-.45,1.55l4.43-.1c0,0.92,0,1.39,0,2.31l-4.43.1v5.88l4.45-.1v2.31C394.13,472.8,392.2,472.84,388.33,472.91Z"/><path d="M401.38,462.83a11.93,11.93,0,0,1,2-.7,11.24,11.24,0,0,1,2.63-.35,5.78,5.78,0,0,1,1.87.21,3,3,0,0,1,1.24.71,2.71,2.71,0,0,1,.68,1.13,5,5,0,0,1,.21,1.5q0,1.07-.07,1.83t-0.07,1.35a8.82,8.82,0,0,0,0,1c0,0.19,0,.38.06,0.57l1.37,0v2.31l-3.54.11L407.47,471h-0.1a3.8,3.8,0,0,1-1.19,1.16,4.08,4.08,0,0,1-2.1.53,3.48,3.48,0,0,1-2.49-.77,2.79,2.79,0,0,1-.92-2.2,3.38,3.38,0,0,1,.32-1.53,2.83,2.83,0,0,1,.94-1.08,4.63,4.63,0,0,1,1.49-.65,8.83,8.83,0,0,1,1.94-.26q0.38,0,.8,0l1,0.05a2.12,2.12,0,0,0,0-.42v-0.4a1.3,1.3,0,0,0-.46-1.13,2.2,2.2,0,0,0-1.36-.31,6.45,6.45,0,0,0-1.93.33A12.7,12.7,0,0,0,402,465Zm3.59,7.61a2.36,2.36,0,0,0,2.23-1.22v-1.26l-0.63-.08a7.35,7.35,0,0,0-.9,0,4.41,4.41,0,0,0-.79.1,2.71,2.71,0,0,0-.71.25,1.46,1.46,0,0,0-.5.42,1,1,0,0,0-.19.61,1.16,1.16,0,0,0,.34.9A1.58,1.58,0,0,0,405,470.43Z"/><path d="M423.64,470.84a6.33,6.33,0,0,1-2,1.06,9,9,0,0,1-2.42.42,6.76,6.76,0,0,1-2.44-.31A4.72,4.72,0,0,1,415,471a4.55,4.55,0,0,1-1.11-1.71,6.39,6.39,0,0,1-.38-2.25,6,6,0,0,1,.44-2.37,5.19,5.19,0,0,1,1.23-1.79,5.59,5.59,0,0,1,1.87-1.15,7.39,7.39,0,0,1,2.34-.46,8.57,8.57,0,0,1,2.21.19,10,10,0,0,1,1.58.46v3.7l-2.32.09v-1.93a5.91,5.91,0,0,0-1.31-.1,4,4,0,0,0-1.17.22,3,3,0,0,0-1,.61,3.13,3.13,0,0,0-.74,1,3.28,3.28,0,0,0-.28,1.42,3.17,3.17,0,0,0,.23,1.23,2.8,2.8,0,0,0,.65,1,2.84,2.84,0,0,0,1,.62,3.71,3.71,0,0,0,1.38.19,5,5,0,0,0,2-.41,8.34,8.34,0,0,0,1.15-.63Z"/><path d="M427.23,463.51l-2.09.09v-2.31l2.09-.09V458.8l2.74-.9c0,1.27,0,1.9,0,3.17l5.52-.26v2.31l-5.52.26v3a3.49,3.49,0,0,0,.61,2.31,2,2,0,0,0,1.71.65,3.69,3.69,0,0,0,1-.19,4.1,4.1,0,0,0,.83-0.39,5.14,5.14,0,0,0,.67-0.5l0.56-.49,1.26,1.83a4.36,4.36,0,0,1-.9.81,8,8,0,0,1-1.16.67,7.61,7.61,0,0,1-1.3.47,6.31,6.31,0,0,1-1.33.21,4.36,4.36,0,0,1-3.55-1.15,5.87,5.87,0,0,1-1.19-4.12v-3Z"/><path d="M438.17,465.93a6.62,6.62,0,0,1,.4-2.37,5.15,5.15,0,0,1,1.14-1.8,5.23,5.23,0,0,1,1.76-1.17,7,7,0,0,1,2.29-.49,6.47,6.47,0,0,1,2.37.27,4.55,4.55,0,0,1,1.76,1,4.38,4.38,0,0,1,1.08,1.69,6.49,6.49,0,0,1,.37,2.25,6.65,6.65,0,0,1-.4,2.37,5.13,5.13,0,0,1-2.9,3,6.92,6.92,0,0,1-2.29.49,6.41,6.41,0,0,1-2.37-.27,4.55,4.55,0,0,1-1.76-1,4.41,4.41,0,0,1-1.08-1.7A6.51,6.51,0,0,1,438.17,465.93Zm2.82-.15a4.06,4.06,0,0,0,.19,1.27,2.94,2.94,0,0,0,.55,1,2.28,2.28,0,0,0,.86.64,2.58,2.58,0,0,0,1.16.18,2.83,2.83,0,0,0,2-.89,3.55,3.55,0,0,0,.77-2.5,3.47,3.47,0,0,0-.72-2.3,2.34,2.34,0,0,0-2-.78,3.4,3.4,0,0,0-1.1.24,2.31,2.31,0,0,0-.87.62,3,3,0,0,0-.58,1A4.63,4.63,0,0,0,441,465.78Z"/><path d="M450.89,468.17l2.61-.16v-5.88l-2.61.16V460l4.74-.29,0.32,1.37H456a6.1,6.1,0,0,1,1.35-1.24,3.51,3.51,0,0,1,1.77-.58,2.24,2.24,0,0,1,2,.8,4.84,4.84,0,0,1,.73,3l-2.46.16a2,2,0,0,0-.22-1.09,0.72,0.72,0,0,0-.71-0.3,2.21,2.21,0,0,0-1.36.51,4.66,4.66,0,0,0-.87,1v4.47l4.57-.29v2.31c-4,.26-6,0.38-9.92.62v-2.31Z"/><path d="M463.95,467.34l3.71-.26V461.2l-3.71.26v-2.31l6.44-.45v8.19l3.89-.28v2.31c-4.13.31-6.2,0.45-10.34,0.73v-2.31Zm3.2-11.27a1.59,1.59,0,0,1,.48-1.15,2,2,0,0,1,1.35-.56,2,2,0,0,1,1.41.36,1.32,1.32,0,0,1,.53,1.07,1.47,1.47,0,0,1-.53,1.14,2.3,2.3,0,0,1-1.41.53,1.85,1.85,0,0,1-1.35-.34A1.31,1.31,0,0,1,467.15,456.07Z"/><path d="M477.23,458.91a12.5,12.5,0,0,1,1.95-.8,11.46,11.46,0,0,1,2.62-.48,5.68,5.68,0,0,1,1.86.11,2.82,2.82,0,0,1,1.24.64,2.54,2.54,0,0,1,.68,1.1,4.86,4.86,0,0,1,.21,1.49q0,1.07-.07,1.83t-0.07,1.35a8.79,8.79,0,0,0,0,1c0,0.19,0,.38.06,0.56l1.37-.11v2.31l-3.53.29-0.28-1.41h-0.1A4.08,4.08,0,0,1,482,468a4.22,4.22,0,0,1-2.09.64,3.34,3.34,0,0,1-2.49-.65,2.65,2.65,0,0,1-.92-2.16,3.49,3.49,0,0,1,.32-1.55,3,3,0,0,1,.94-1.12,4.88,4.88,0,0,1,1.48-.72,9,9,0,0,1,1.93-.35c0.25,0,.52,0,0.79,0h1a2.15,2.15,0,0,0,0-.42v-0.4a1.24,1.24,0,0,0-.46-1.11,2.13,2.13,0,0,0-1.36-.24,6.61,6.61,0,0,0-1.92.42,13.36,13.36,0,0,0-1.44.66Zm3.58,7.43a2.68,2.68,0,0,0,1.5-.49A2.77,2.77,0,0,0,483,465v-1.26l-0.62,0a7.32,7.32,0,0,0-.89,0,4.49,4.49,0,0,0-.79.14,2.84,2.84,0,0,0-.71.29,1.56,1.56,0,0,0-.5.45,1.05,1.05,0,0,0-.19.62,1.11,1.11,0,0,0,.34.89A1.53,1.53,0,0,0,480.81,466.34Z"/><path d="M489.8,453l4.48-.39c0,3.88,0,5.82,0,9.7a4.27,4.27,0,0,0,.4,2.21A1.28,1.28,0,0,0,496,465a3.67,3.67,0,0,0,1.07-.23,4.5,4.5,0,0,0,.84-0.46l1,1.8q-0.36.26-.71,0.5a5.13,5.13,0,0,1-.76.4,5.61,5.61,0,0,1-.87.29,7.16,7.16,0,0,1-1.06.17,3.71,3.71,0,0,1-3-.75,3.61,3.61,0,0,1-1-2.77v-8.82l-1.75.15V453Z"/><path d="M502.22,469c3.73-.35,5.6-0.52,9.33-0.89,0,0.9,0,1.35,0,2.25-3.73.37-5.6,0.55-9.33,0.89C502.22,470.39,502.22,469.94,502.22,469Z"/><path d="M513.2,450.83l4.24-.43v5.38h0.08a4.13,4.13,0,0,1,1.34-1.21,4.91,4.91,0,0,1,2-.61,4.8,4.8,0,0,1,1.47.05,2.43,2.43,0,0,1,1.15.57,2.84,2.84,0,0,1,.76,1.23,6.35,6.35,0,0,1,.27,2c0,2.61,0,3.92,0,6.53l-2.73.29c0-2.39,0-3.58,0-6a2.39,2.39,0,0,0-.55-1.79,1.73,1.73,0,0,0-1.43-.42,2.64,2.64,0,0,0-1.43.62,3,3,0,0,0-.92,1.3v6.7l-2.73.28V453l-1.51.15v-2.31Z"/><path d="M537,461.85a4.41,4.41,0,0,1-.7.58,7.8,7.8,0,0,1-1,.57,8.64,8.64,0,0,1-2.74.77,6.86,6.86,0,0,1-2.4-.11,4,4,0,0,1-2.92-2.52,6.14,6.14,0,0,1-.39-2.28,6.54,6.54,0,0,1,.44-2.47,5.64,5.64,0,0,1,1.21-1.86,5.86,5.86,0,0,1,1.8-1.24,7.45,7.45,0,0,1,2.23-.6,6.74,6.74,0,0,1,1.65,0,4,4,0,0,1,1.56.55,3.28,3.28,0,0,1,1.17,1.24,4.37,4.37,0,0,1,.45,2.13,10.4,10.4,0,0,1-.21,2l-7.56.85a2.23,2.23,0,0,0,.28,1.1,1.91,1.91,0,0,0,.69.68,2.66,2.66,0,0,0,1,.32,4.86,4.86,0,0,0,1.19,0,6.52,6.52,0,0,0,2.07-.53,5.06,5.06,0,0,0,1.31-.87Zm-4.53-7a3.69,3.69,0,0,0-1,.27,3.31,3.31,0,0,0-.87.54,2.83,2.83,0,0,0-.64.79,2.43,2.43,0,0,0-.29,1l5.16-.58a2.08,2.08,0,0,0-.58-1.59A2.11,2.11,0,0,0,532.48,454.87Z"/><path d="M540.22,447.89l4.47-.53c0,3.88,0,5.82,0,9.7a4.2,4.2,0,0,0,.4,2.2,1.24,1.24,0,0,0,1.28.47,3.73,3.73,0,0,0,1.07-.27,4.67,4.67,0,0,0,.84-0.49l1,1.76q-0.36.28-.71,0.52a5.33,5.33,0,0,1-.75.43,5.76,5.76,0,0,1-.87.32,7.24,7.24,0,0,1-1.06.2,3.61,3.61,0,0,1-3-.65,3.51,3.51,0,0,1-1-2.74V450l-1.74.21C540.22,449.27,540.22,448.81,540.22,447.89Z"/><path d="M551,450.78l3.57-.45,0.31,1.22h0.08a4.63,4.63,0,0,1,3.52-2,4.79,4.79,0,0,1,1.77.07,2.91,2.91,0,0,1,1.38.77,3.81,3.81,0,0,1,.89,1.52,7.47,7.47,0,0,1,.31,2.33,8.17,8.17,0,0,1-.36,2.47,6.07,6.07,0,0,1-1,2,5.29,5.29,0,0,1-1.63,1.37,6.22,6.22,0,0,1-2.2.69,8.53,8.53,0,0,1-1.28.07,3.22,3.22,0,0,1-1-.17v4.31l-2.73.35c0-5,0-7.43,0-12.39l-1.57.2v-2.31Zm6.67,1.17a3.1,3.1,0,0,0-1.46.59,2.46,2.46,0,0,0-.91,1.31c0,1.75,0,2.62,0,4.37a2,2,0,0,0,.85.26,4.58,4.58,0,0,0,1.12,0,3.18,3.18,0,0,0,1.09-.34,2.67,2.67,0,0,0,.88-0.75,3.63,3.63,0,0,0,.59-1.19,5.77,5.77,0,0,0,.21-1.64,2.79,2.79,0,0,0-.67-2.05A1.92,1.92,0,0,0,557.65,452Z"/><path d="M574.75,457a4.56,4.56,0,0,1-.7.59,8,8,0,0,1-1,.59,8.82,8.82,0,0,1-1.27.51,8.67,8.67,0,0,1-1.47.33,6.81,6.81,0,0,1-2.4,0,3.9,3.9,0,0,1-2.91-2.45,6.07,6.07,0,0,1-.39-2.27,6.64,6.64,0,0,1,.44-2.48,5.84,5.84,0,0,1,1.2-1.89,6,6,0,0,1,1.79-1.28,7.56,7.56,0,0,1,2.22-.65,6.71,6.71,0,0,1,1.64,0,3.89,3.89,0,0,1,1.56.51,3.16,3.16,0,0,1,1.16,1.21,4.31,4.31,0,0,1,.45,2.12,10.51,10.51,0,0,1-.21,2l-7.54,1a2.2,2.2,0,0,0,.28,1.1,1.84,1.84,0,0,0,.69.66,2.6,2.6,0,0,0,1,.3,4.84,4.84,0,0,0,1.18,0,6.62,6.62,0,0,0,2.06-.58,5.23,5.23,0,0,0,1.31-.9Zm-4.52-6.87a3.75,3.75,0,0,0-1,.29,3.41,3.41,0,0,0-.87.56,2.93,2.93,0,0,0-.64.8,2.48,2.48,0,0,0-.29,1l5.15-.71a2,2,0,0,0-.58-1.58A2.07,2.07,0,0,0,570.22,450.15Z"/><path d="M576.95,455.51l2.6-.37v-5.88l-2.6.37v-2.31l4.71-.68L582,448h0.08a6.87,6.87,0,0,1,1.34-1.35,3.75,3.75,0,0,1,1.76-.72,2.06,2.06,0,0,1,2,.63,4.59,4.59,0,0,1,.72,3l-2.45.36a1.94,1.94,0,0,0-.22-1.07,0.67,0.67,0,0,0-.7-0.24,2.38,2.38,0,0,0-1.35.62,5.24,5.24,0,0,0-.87,1.09c0,1.79,0,2.68,0,4.47l4.54-.67c0,0.92,0,1.39,0,2.31-3.94.59-5.91,0.87-9.86,1.43v-2.31Z"/><path d="M598.2,459.1a8.65,8.65,0,0,1-2.84-.48,6.72,6.72,0,0,1-2.45-1.49,7.26,7.26,0,0,1-1.7-2.6,10.19,10.19,0,0,1-.64-3.81,11.81,11.81,0,0,1,.64-4,11.1,11.1,0,0,1,1.7-3.15,10.63,10.63,0,0,1,2.45-2.29,12.21,12.21,0,0,1,2.84-1.43l0.5,2.17a10.31,10.31,0,0,0-1.66.86,7.59,7.59,0,0,0-1.77,1.55,8.62,8.62,0,0,0-1.41,2.41,9.26,9.26,0,0,0-.57,3.45,7.16,7.16,0,0,0,.61,3.16,5.8,5.8,0,0,0,1.48,1.95,5.31,5.31,0,0,0,1.79,1,6.31,6.31,0,0,0,1.55.32Z"/><path d="M603.45,451.51l3.2-.51c0-3.67,0-5.51,0-9.18l-2.76,2.56-1.25-1.48,4.76-4.42,1.84-.3c0,5,0,7.43,0,12.39l3.13-.52c0,0.92,0,1.39,0,2.31-3.57.59-5.35,0.88-8.92,1.45v-2.31Z"/><path d="M618.31,450a1.71,1.71,0,0,1,.47-1.21,2,2,0,0,1,1.18-.62,1.77,1.77,0,0,1,1.73.46,2.56,2.56,0,0,1,.58,1.77,4.43,4.43,0,0,1-.37,1.79,5.77,5.77,0,0,1-.95,1.51,6.61,6.61,0,0,1-1.3,1.15,6.34,6.34,0,0,1-1.43.73l-0.56-1.06a7.3,7.3,0,0,0,1-.53,5.16,5.16,0,0,0,.93-0.74,4.14,4.14,0,0,0,.7-0.93,2.59,2.59,0,0,0,.32-1.06,2.78,2.78,0,0,1-1.06.21,1.35,1.35,0,0,1-.72-0.21,1.09,1.09,0,0,1-.41-0.52A2,2,0,0,1,618.31,450Z"/><path d="M631.45,447.07a4.77,4.77,0,0,0,1.26-.4,3.75,3.75,0,0,0,1-.68,3.14,3.14,0,0,0,.64-0.87,2.2,2.2,0,0,0,.23-1,1.76,1.76,0,0,0-.26-1,1.45,1.45,0,0,0-.72-0.55,3.06,3.06,0,0,0-1.1-.16,8.87,8.87,0,0,0-1.4.15l-1.17.21c0-.6,0-0.9,0-1.51l3.5-4.94-5.27.94c0-.92,0-1.39,0-2.31l8.5-1.52v1.91L633,440.25l0.48-.09a3.92,3.92,0,0,1,1.42,0,2.81,2.81,0,0,1,1.22.54,2.89,2.89,0,0,1,.85,1.1,4,4,0,0,1,.32,1.68,4.88,4.88,0,0,1-.49,2.19,6.2,6.2,0,0,1-1.29,1.76,6.93,6.93,0,0,1-1.84,1.26,8.51,8.51,0,0,1-2.15.69,10.52,10.52,0,0,1-1.88.17,8.08,8.08,0,0,1-1.81-.2l0.73-2.4a2.51,2.51,0,0,0,.51.12l0.73,0.08a7.55,7.55,0,0,0,.83,0A5.8,5.8,0,0,0,631.45,447.07Z"/><path d="M641.29,449.46a8.66,8.66,0,0,0,1.54-.84,8.52,8.52,0,0,0,1.78-1.61,9.27,9.27,0,0,0,1.47-2.45,8.65,8.65,0,0,0,.6-3.37,7.81,7.81,0,0,0-.57-3.25A5.44,5.44,0,0,0,644.7,436a4.71,4.71,0,0,0-1.76-1,7.55,7.55,0,0,0-1.66-.29l0.5-2.34a9,9,0,0,1,2.83.46,6.52,6.52,0,0,1,2.44,1.45,7.12,7.12,0,0,1,1.7,2.57,10.06,10.06,0,0,1,.63,3.77,12.05,12.05,0,0,1-.63,4,11.35,11.35,0,0,1-1.7,3.18,10.89,10.89,0,0,1-2.44,2.33,11.63,11.63,0,0,1-2.83,1.45Z"/></svg>