<svg id="Layer_1" data-name="Layer 1" xmlns="http://www.w3.org/2000/svg" viewBox="0 0 720 576"><defs><style>.cls-1,.cls-2,.cls-4,.cls-6{fill:#231f20;}.cls-1,.cls-3{stroke:#231f20;}.cls-1,.cls-6{stroke-miterlimit:10;}.cls-1,.cls-2,.cls-3{stroke-width:2px;}.cls-2{stroke:#000;}.cls-2,.cls-3{stroke-linecap:round;stroke-linejoin:round;}.cls-3,.cls-5{fill:#fff;}.cls-6{stroke:#fff;}</style></defs><title>Hanoi_Tower_Set_5</title><path class="cls-1" d="M687.77,506.49c0-.14,0-0.29,0-0.43s0-.29,0-0.43V453.84H40s-0.25,51.74-.25,52.22c0,2.67,2.32,5.24,6.66,7.71,15.18,8.61,55.37,16.11,111.37,21.48s127.77,8.59,206,8.59c89.44,0,170.41-4.21,229-11,29.31-3.41,53-7.46,69.44-12,8.2-2.25,14.58-4.62,18.92-7.08,3.7-2.1,5.92-4.29,6.5-6.55h0.11v-0.73Z"/><ellipse class="cls-2" cx="363.77" cy="454.92" rx="323.86" ry="37.63"/><path class="cls-3" d="M687.77,455c0-.14,0-0.29,0-0.43s0-.29,0-0.43V402.36H40s-0.25,51.74-.25,52.22c0,2.67,2.32,5.24,6.66,7.71,15.18,8.61,55.37,16.11,111.37,21.48s127.77,8.59,206,8.59c89.44,0,170.41-4.21,229-11,29.31-3.41,53-7.46,69.44-12,8.2-2.25,14.58-4.62,18.92-7.08,3.7-2.1,5.92-4.29,6.5-6.55h0.11V455Z"/><ellipse class="cls-3" cx="363.77" cy="403.44" rx="323.86" ry="37.63"/><path class="cls-3" d="M687.77,403.53c0-.14,0-0.29,0-0.43s0-.29,0-0.43V350.88H40s-0.25,51.74-.25,52.22c0,2.67,2.32,5.24,6.66,7.71,15.18,8.61,55.37,16.11,111.37,21.48s127.77,8.59,206,8.59c89.44,0,170.41-4.21,229-11,29.31-3.41,53-7.46,69.44-12,8.2-2.25,14.58-4.62,18.92-7.08,3.7-2.1,5.92-4.29,6.5-6.55h0.11v-0.73Z"/><ellipse class="cls-3" cx="363.77" cy="351.97" rx="323.86" ry="37.63"/><path class="cls-4" d="M363.76,360.22c-16,0-29-3.75-30.2-8.61h-0.08l0-.5V8.27h60.63V351.6H394C392.73,356.47,379.74,360.22,363.76,360.22Z"/><path class="cls-5" d="M393.58,8.77V351.1h0c-0.49,4.78-13.63,8.61-29.79,8.61s-29.3-3.83-29.79-8.61h0v-0.21s0,0,0-.06,0,0,0-.06V8.77h59.63m1-1H333v343s0,0.07,0,.11v1.27h0.23c2,5.6,16.84,8.61,30.58,8.61s28.6-3,30.58-8.61h0.21l0-1V7.77h0Z"/><ellipse class="cls-6" cx="363.76" cy="8.89" rx="29.81" ry="8.89"/><path d="M59.07,397.64V395l2.81,0.53c0-2.69,0-4,0-6.72L59,388.28c0-1.06,0-1.58,0-2.64l2.83,0.54V385.5a4,4,0,0,1,.39-1.87,3,3,0,0,1,1-1.15,3.45,3.45,0,0,1,1.49-.5,5.94,5.94,0,0,1,1.75.07,12.3,12.3,0,0,1,2.7.78,8.56,8.56,0,0,1,1.75,1L70.09,386a13.36,13.36,0,0,0-1.18-.7,5.79,5.79,0,0,0-1.63-.52,2,2,0,0,0-1.8.25,2.25,2.25,0,0,0-.51,1.67l5,0.93c0,1.06,0,1.58,0,2.64l-5-.93v6.72L70,397v2.64C65.62,398.88,63.43,398.47,59.07,397.64Z"/><path d="M73.8,389.2a11.46,11.46,0,0,1,2.2-.35,12.32,12.32,0,0,1,3,.22,7.35,7.35,0,0,1,2.11.67,4.5,4.5,0,0,1,1.41,1.1,4.05,4.05,0,0,1,.77,1.46,6.24,6.24,0,0,1,.24,1.77q0,1.22-.08,2.07t-0.08,1.52a10.58,10.58,0,0,0,0,1.14c0,0.22.06,0.45,0.07,0.66L85,399.73v2.64l-4-.7L80.69,400l-0.12,0a3.19,3.19,0,0,1-1.35,1,4.15,4.15,0,0,1-2.37.12A4.82,4.82,0,0,1,74,399.66a3.93,3.93,0,0,1-1-2.73,3.44,3.44,0,0,1,.37-1.67,2.38,2.38,0,0,1,1.07-1,4.31,4.31,0,0,1,1.68-.39,9.7,9.7,0,0,1,2.19.16q0.43,0.08.9,0.21l1.16,0.3a2.3,2.3,0,0,0,0-.47V393.6a1.83,1.83,0,0,0-.52-1.4,3,3,0,0,0-1.54-.67,6.93,6.93,0,0,0-2.18-.08,12.14,12.14,0,0,0-1.63.33Zm4.05,9.54a2.59,2.59,0,0,0,1.7-.12,2.18,2.18,0,0,0,.83-0.75v-1.44l-0.71-.23a8.74,8.74,0,0,0-1-.24,4.87,4.87,0,0,0-.89-0.08,2.61,2.61,0,0,0-.8.12,1.23,1.23,0,0,0-.57.37,1,1,0,0,0-.21.66,1.63,1.63,0,0,0,.39,1.11A2.17,2.17,0,0,0,77.86,398.74Z"/><path d="M99,403.59a5.73,5.73,0,0,1-2.29.74,9.69,9.69,0,0,1-2.74-.09,8.68,8.68,0,0,1-2.75-.92,7.09,7.09,0,0,1-2-1.63,6.8,6.8,0,0,1-1.25-2.22,8.17,8.17,0,0,1-.43-2.67,6.19,6.19,0,0,1,.5-2.6,4.45,4.45,0,0,1,1.4-1.75,4.91,4.91,0,0,1,2.11-.88,7.81,7.81,0,0,1,2.65,0,10.77,10.77,0,0,1,2.5.73,13.77,13.77,0,0,1,1.79.9v4.22L95.8,397c0-.88,0-1.32,0-2.21a7.4,7.4,0,0,0-1.48-.42,4.31,4.31,0,0,0-1.32,0,2.59,2.59,0,0,0-2,1.42,3.34,3.34,0,0,0-.32,1.55,4.07,4.07,0,0,0,.26,1.46A4.18,4.18,0,0,0,92.86,401a4.77,4.77,0,0,0,1.56.54,5.3,5.3,0,0,0,2.23,0,7.41,7.41,0,0,0,1.3-.46Z"/><path d="M103,396l-2.36-.39c0-1.06,0-1.58,0-2.64L103,393.4c0-1.09,0-1.64,0-2.74l3.1-.39c0,1.45,0,2.17,0,3.62l6.26,1c0,1.06,0,1.58,0,2.64l-6.26-1c0,1.37,0,2.06,0,3.43a4.67,4.67,0,0,0,.69,2.79,2.86,2.86,0,0,0,1.93,1.14,4,4,0,0,0,1.17,0,3.8,3.8,0,0,0,.94-0.25,4.36,4.36,0,0,0,.76-0.41l0.63-.43,1.43,2.38a3.68,3.68,0,0,1-1,.72,7.23,7.23,0,0,1-1.31.49,7.41,7.41,0,0,1-1.47.24,6.89,6.89,0,0,1-1.5-.07,6.09,6.09,0,0,1-4-2.15,7.93,7.93,0,0,1-1.35-5C103,398.1,103,397.42,103,396Z"/><path d="M115.43,401.37a6.88,6.88,0,0,1,.45-2.62,4.47,4.47,0,0,1,1.29-1.79,4.57,4.57,0,0,1,2-.93,7.32,7.32,0,0,1,2.59,0,8.29,8.29,0,0,1,2.69.86,6.83,6.83,0,0,1,2,1.58,6.54,6.54,0,0,1,1.23,2.19,8.25,8.25,0,0,1,.42,2.65,6.89,6.89,0,0,1-.45,2.62,4.5,4.5,0,0,1-1.29,1.8,4.56,4.56,0,0,1-2,.94,7.27,7.27,0,0,1-2.59,0,8.22,8.22,0,0,1-2.69-.86,6.84,6.84,0,0,1-2-1.59,6.58,6.58,0,0,1-1.23-2.19A8.28,8.28,0,0,1,115.43,401.37Zm3.2,0.49a5.1,5.1,0,0,0,.21,1.5,4.32,4.32,0,0,0,.62,1.27,3.49,3.49,0,0,0,1,.93,3.36,3.36,0,0,0,1.32.47,2.67,2.67,0,0,0,2.26-.55,3.41,3.41,0,0,0,.87-2.68,4.7,4.7,0,0,0-.81-2.8,3.32,3.32,0,0,0-2.32-1.37,3.55,3.55,0,0,0-1.24,0,2,2,0,0,0-1,.51,2.65,2.65,0,0,0-.66,1.05A4.86,4.86,0,0,0,118.63,401.86Z"/><path d="M129.87,406.89l3,0.43c0-2.69,0-4,0-6.72l-3-.43v-2.64l5.38,0.77,0.36,1.64h0.1a5.16,5.16,0,0,1,1.53-1.1,3.5,3.5,0,0,1,2-.25,3.19,3.19,0,0,1,2.26,1.37,6.38,6.38,0,0,1,.83,3.64l-2.8-.39a2.64,2.64,0,0,0-.25-1.3,1,1,0,0,0-.8-0.51,2.15,2.15,0,0,0-1.54.26,3.91,3.91,0,0,0-1,1v5.11l5.19,0.73c0,1.06,0,1.58,0,2.64-4.51-.62-6.76-0.94-11.27-1.6v-2.64Z"/><path d="M144.7,409l4.21,0.57v-6.72l-4.21-.57c0-1.06,0-1.58,0-2.64l7.33,1c0,3.74,0,5.62,0,9.36l4.43,0.58v2.64c-4.71-.6-7.06-0.92-11.76-1.55C144.7,410.56,144.7,410,144.7,409Zm3.64-12.13a1.48,1.48,0,0,1,.55-1.2,1.93,1.93,0,0,1,1.53-.32,2.67,2.67,0,0,1,1.6.74,1.88,1.88,0,0,1,.6,1.35,1.35,1.35,0,0,1-.6,1.18,2.23,2.23,0,0,1-1.6.28,2.53,2.53,0,0,1-1.53-.7A1.85,1.85,0,0,1,148.34,396.85Z"/><path d="M159.82,402.42A12,12,0,0,1,162,402a12.41,12.41,0,0,1,3,.06,7.12,7.12,0,0,1,2.12.56,4.19,4.19,0,0,1,1.41,1,3.78,3.78,0,0,1,.78,1.41,6.07,6.07,0,0,1,.24,1.76q0,1.22-.08,2.08c-0.06.57-.08,1.08-0.08,1.53a10.44,10.44,0,0,0,0,1.13c0,0.22.06,0.45,0.07,0.66l1.56,0.19V415l-4-.49-0.32-1.67h-0.12a3.46,3.46,0,0,1-1.36,1.12,4.26,4.26,0,0,1-2.38.25,4.57,4.57,0,0,1-2.83-1.32,3.72,3.72,0,0,1-1-2.68,3.54,3.54,0,0,1,.37-1.69,2.58,2.58,0,0,1,1.07-1.06,4.52,4.52,0,0,1,1.69-.48,9.76,9.76,0,0,1,2.2,0q0.43,0.05.91,0.16l1.17,0.24a2.33,2.33,0,0,0,0-.47v-0.46a1.73,1.73,0,0,0-.52-1.37,2.83,2.83,0,0,0-1.55-.59,7,7,0,0,0-2.19,0,12.74,12.74,0,0,0-1.64.42Zm4.08,9.32a2.67,2.67,0,0,0,1.71-.21,2.36,2.36,0,0,0,.83-0.8v-1.44l-0.71-.2a8.53,8.53,0,0,0-1-.19,4.91,4.91,0,0,0-.9,0,2.71,2.71,0,0,0-.81.16,1.33,1.33,0,0,0-.57.4,1,1,0,0,0-.21.67,1.54,1.54,0,0,0,.39,1.09A2.06,2.06,0,0,0,163.9,411.74Z"/><path d="M174.13,398.55l5.11,0.59c0,4.44,0,6.65,0,11.09a5.48,5.48,0,0,0,.46,2.62,1.83,1.83,0,0,0,1.46.89,3.91,3.91,0,0,0,1.22,0,4.13,4.13,0,0,0,1-.34l1.18,2.29q-0.41.22-.82,0.4a4.65,4.65,0,0,1-.86.29,5.51,5.51,0,0,1-1,.13,7.9,7.9,0,0,1-1.21-.05,5.07,5.07,0,0,1-3.38-1.54,5,5,0,0,1-1.13-3.39c0-4,0-6,0-10.08l-2-.23v-2.64Z"/><path d="M188.31,419.76c4.26,0.46,6.39.69,10.66,1.12v2.57c-4.26-.43-6.4-0.66-10.66-1.12v-2.57Z"/><path d="M200.84,401.46l4.85,0.48c0,2.46,0,3.69,0,6.14h0.1a3.53,3.53,0,0,1,1.54-1.07,5,5,0,0,1,2.26-.24,5.93,5.93,0,0,1,1.68.4,3.62,3.62,0,0,1,1.32.92,4.2,4.2,0,0,1,.87,1.58,7.87,7.87,0,0,1,.31,2.37v7.46l-3.12-.29V412.4a3.21,3.21,0,0,0-.62-2.17,2.4,2.4,0,0,0-1.63-.8,2.53,2.53,0,0,0-1.63.38,2.56,2.56,0,0,0-1.06,1.28v7.66l-3.12-.31c0-5.66,0-8.5,0-14.16l-1.73-.17v-2.64Z"/><path d="M228.09,419.5a3.75,3.75,0,0,1-.81.5,7.06,7.06,0,0,1-1.15.42,8.49,8.49,0,0,1-1.45.26,9.3,9.3,0,0,1-1.68,0,8.57,8.57,0,0,1-2.75-.67,6.11,6.11,0,0,1-3.34-3.55,7.73,7.73,0,0,1-.44-2.69A6.72,6.72,0,0,1,217,411a4.88,4.88,0,0,1,1.38-1.85,5.19,5.19,0,0,1,2.05-1,7.76,7.76,0,0,1,2.55-.17,8.24,8.24,0,0,1,1.89.4,5.7,5.7,0,0,1,1.79,1,5,5,0,0,1,1.33,1.68,5.62,5.62,0,0,1,.52,2.54,11.17,11.17,0,0,1-.24,2.21l-8.66-.75a2.82,2.82,0,0,0,1.12,2.26,3.79,3.79,0,0,0,1.13.59,5.89,5.89,0,0,0,1.36.27,6.82,6.82,0,0,0,2.37-.13,4.54,4.54,0,0,0,1.5-.69Zm-5.19-9a3.89,3.89,0,0,0-1.18.07,3,3,0,0,0-1,.41,2.41,2.41,0,0,0-.73.75,2.35,2.35,0,0,0-.34,1.07l5.91,0.52a2.85,2.85,0,0,0-.66-2A2.88,2.88,0,0,0,222.9,410.49Z"/><path d="M231.77,404.28l5.12,0.41c0,4.44,0,6.65,0,11.09a5.35,5.35,0,0,0,.46,2.6,1.76,1.76,0,0,0,1.47.83,3.93,3.93,0,0,0,1.23-.06,4.28,4.28,0,0,0,1-.37l1.18,2.25q-0.41.23-.82,0.43a4.83,4.83,0,0,1-.87.32,5.58,5.58,0,0,1-1,.16,7.83,7.83,0,0,1-1.21,0,4.9,4.9,0,0,1-3.39-1.42,4.79,4.79,0,0,1-1.13-3.35V407.08l-2-.16v-2.64Z"/><path d="M244.11,410l4.09,0.3,0.36,1.47h0.1a4.3,4.3,0,0,1,4-1.49,6,6,0,0,1,2,.49,4.36,4.36,0,0,1,1.59,1.2,5.58,5.58,0,0,1,1,1.94,9.19,9.19,0,0,1,.36,2.74,8.56,8.56,0,0,1-.41,2.74,5.4,5.4,0,0,1-1.18,2,4.6,4.6,0,0,1-1.88,1.19,6.37,6.37,0,0,1-2.53.28,10,10,0,0,1-1.47-.21,4.28,4.28,0,0,1-1.2-.43v4.92l-3.13-.22V412.81l-1.8-.13V410Zm7.65,2.85a3,3,0,0,0-1.67.34,2.15,2.15,0,0,0-1,1.29v5a2.78,2.78,0,0,0,1,.49,5.53,5.53,0,0,0,1.29.25,3.27,3.27,0,0,0,1.25-.14,2.33,2.33,0,0,0,1-.66,3.26,3.26,0,0,0,.67-1.23,6.08,6.08,0,0,0,.24-1.83,3.76,3.76,0,0,0-.77-2.5A2.7,2.7,0,0,0,251.76,412.88Z"/><path d="M271.4,422.55a3.94,3.94,0,0,1-.81.52,7.28,7.28,0,0,1-1.16.45,8.66,8.66,0,0,1-1.46.3,9.33,9.33,0,0,1-1.69,0,8.43,8.43,0,0,1-2.76-.6,5.89,5.89,0,0,1-3.35-3.46,7.62,7.62,0,0,1-.44-2.68,6.81,6.81,0,0,1,.51-2.74,5.08,5.08,0,0,1,1.38-1.89,5.36,5.36,0,0,1,2.06-1.06,7.84,7.84,0,0,1,2.55-.24,8.16,8.16,0,0,1,1.89.35,5.54,5.54,0,0,1,1.79.93,4.83,4.83,0,0,1,1.34,1.65,5.51,5.51,0,0,1,.52,2.53,11.18,11.18,0,0,1-.24,2.22l-8.67-.52a2.88,2.88,0,0,0,.32,1.32,2.82,2.82,0,0,0,.79.91,3.7,3.7,0,0,0,1.13.56,5.85,5.85,0,0,0,1.36.24,6.87,6.87,0,0,0,2.37-.2,4.68,4.68,0,0,0,1.5-.73Zm-5.2-8.87a3.93,3.93,0,0,0-1.18.1,3.07,3.07,0,0,0-1,.44,2.52,2.52,0,0,0-.73.77,2.41,2.41,0,0,0-.34,1.08l5.92,0.36a2.78,2.78,0,0,0-.66-1.93A2.81,2.81,0,0,0,266.2,413.67Z"/><path d="M273.93,421.32l3,0.16v-6.72l-3-.16V412l5.42,0.29,0.36,1.6h0.1a5.92,5.92,0,0,1,1.54-1.24,3.7,3.7,0,0,1,2-.43,2.89,2.89,0,0,1,2.28,1.17,6,6,0,0,1,.83,3.57l-2.82-.14a2.49,2.49,0,0,0-.25-1.27,0.94,0.94,0,0,0-.81-0.44,2.3,2.3,0,0,0-1.55.4,4.47,4.47,0,0,0-1,1.05v5.11l5.23,0.26v2.64c-4.54-.22-6.81-0.34-11.34-0.59v-2.64Z"/><path d="M298.4,430.22a11.58,11.58,0,0,1-3.28-1.19,10.18,10.18,0,0,1-2.82-2.26,10.77,10.77,0,0,1-2-3.35,12.72,12.72,0,0,1-.73-4.5,12.2,12.2,0,0,1,.73-4.42,9.86,9.86,0,0,1,2-3.21,9.19,9.19,0,0,1,2.82-2.06,11.57,11.57,0,0,1,3.28-1l0.58,2.59a9.69,9.69,0,0,0-1.92.61,6.61,6.61,0,0,0-2,1.38,7.58,7.58,0,0,0-1.63,2.44,9.5,9.5,0,0,0-.66,3.81,9.06,9.06,0,0,0,.7,3.75,8.72,8.72,0,0,0,1.7,2.56,8,8,0,0,0,2.06,1.55,8.52,8.52,0,0,0,1.78.71Z"/><path d="M304.45,422.72l3.69,0.13V412.36L305,414.67l-1.45-2,5.49-4,2.12,0.07c0,5.66,0,8.5,0,14.16l3.61,0.11v2.64c-4.12-.12-6.17-0.19-10.29-0.34v-2.64Z"/><path d="M321.61,424.36a1.6,1.6,0,0,1,.54-1.28,1.93,1.93,0,0,1,1.36-.45,2.45,2.45,0,0,1,2,.91,3.44,3.44,0,0,1,.67,2.15,4.47,4.47,0,0,1-.42,2,5,5,0,0,1-1.1,1.51,5.73,5.73,0,0,1-1.51,1,6,6,0,0,1-1.65.51l-0.65-1.34A6.87,6.87,0,0,0,322,429a4.57,4.57,0,0,0,1.07-.63,3.56,3.56,0,0,0,.81-0.9,2.5,2.5,0,0,0,.37-1.14,3.08,3.08,0,0,1-1.23,0,1.92,1.92,0,0,1-.83-0.41,1.63,1.63,0,0,1-.47-0.68A2.51,2.51,0,0,1,321.61,424.36Z"/><path d="M336.53,423.79a5.27,5.27,0,0,0,1.47-.17,3.6,3.6,0,0,0,1.17-.53,2.45,2.45,0,0,0,1-2.07,2.46,2.46,0,0,0-1-2.09,5.46,5.46,0,0,0-3.15-.81h-0.61l-0.66,0H334v-8.78l8.73,0.14c0,1.17,0,1.76,0,2.93l-6-.09v3.24l0.39,0h0.6a7.09,7.09,0,0,1,2.24.38,5.19,5.19,0,0,1,1.81,1.07,4.82,4.82,0,0,1,1.19,1.71,5.61,5.61,0,0,1,.42,2.2,5.48,5.48,0,0,1-.53,2.48,5.07,5.07,0,0,1-1.45,1.77,6.38,6.38,0,0,1-2.12,1.06,8.6,8.6,0,0,1-2.58.33,6.48,6.48,0,0,1-1.13-.13c-0.4-.08-0.8-0.17-1.18-0.28a10.63,10.63,0,0,1-1.07-.37q-0.49-.2-0.83-0.38l1-2.48a7.37,7.37,0,0,0,1.27.55A5.61,5.61,0,0,0,336.53,423.79Z"/><path d="M348.17,428.84a8.14,8.14,0,0,0,1.78-.62,7.45,7.45,0,0,0,2.06-1.45,8.16,8.16,0,0,0,1.7-2.47,8.81,8.81,0,0,0,.7-3.72,9.74,9.74,0,0,0-.66-3.84,8.11,8.11,0,0,0-1.63-2.52,7.09,7.09,0,0,0-2-1.48,10.17,10.17,0,0,0-1.92-.7l0.58-2.56a12.09,12.09,0,0,1,3.28,1.16,9.86,9.86,0,0,1,2.82,2.2,10.52,10.52,0,0,1,2,3.31,13.89,13.89,0,0,1,0,8.92,10.09,10.09,0,0,1-2,3.26,9.48,9.48,0,0,1-2.82,2.12,11.08,11.08,0,0,1-3.28,1Z"/><path d="M629,402l3.65-.61c0-4.2,0-6.29,0-10.49l-3.15,2.95-1.43-1.68,5.44-5.08,2.1-.35c0,5.66,0,8.5,0,14.16l3.58-.61V403c-4.07.7-6.11,1-10.19,1.72C629,403.61,629,403.08,629,402Z"/><path d="M653.23,400.47c-4.25.77-6.37,1.15-10.63,1.89V400c0.19-.19.43-0.45,0.72-0.76l1-1.07q0.54-.6,1.13-1.3t1.17-1.45q0.81-1.06,1.42-1.91a14.91,14.91,0,0,0,1-1.58,7,7,0,0,0,.58-1.4,4.88,4.88,0,0,0,.19-1.34,1.94,1.94,0,0,0-.21-0.9,2,2,0,0,0-.6-0.7,2.3,2.3,0,0,0-.92-0.39,3.16,3.16,0,0,0-1.18,0,5,5,0,0,0-1.56.54,6.8,6.8,0,0,0-1.47,1.15l-1.24-2a13.29,13.29,0,0,1,2.23-1.6,8.63,8.63,0,0,1,2.82-1,6.5,6.5,0,0,1,2-.06,4.27,4.27,0,0,1,1.67.55,3.17,3.17,0,0,1,1.16,1.2,3.75,3.75,0,0,1,.43,1.87,7.71,7.71,0,0,1-.13,1.45,8.08,8.08,0,0,1-.4,1.39,11.22,11.22,0,0,1-.72,1.49c-0.29.52-.65,1.09-1.06,1.7s-0.66,1-1,1.45-0.74,1-1.11,1.41-0.73.87-1.08,1.27-0.68.74-1,1l6.86-1.23v2.64Z"/><path d="M656,391.55a15.43,15.43,0,0,1,.45-3.91,9.74,9.74,0,0,1,1.28-3,6.81,6.81,0,0,1,4.53-3,4.65,4.65,0,0,1,4.63,1.25q1.62,1.82,1.62,6.28a15.54,15.54,0,0,1-.45,3.94,9.94,9.94,0,0,1-1.28,3,6.9,6.9,0,0,1-2,2,7,7,0,0,1-2.57,1,4.48,4.48,0,0,1-4.64-1.39Q656,395.82,656,391.55Zm3.1-.57q0,0.36,0,.68c0,0.21,0,.43,0,0.65l5.76-6.43a2.16,2.16,0,0,0-2.67-1.56,3.23,3.23,0,0,0-2.33,1.91A10.92,10.92,0,0,0,659.06,391Zm6.33-1.18q0-.38,0-0.73c0-.23,0-0.46,0-0.68l-5.78,6.43a2.19,2.19,0,0,0,2.67,1.69,3.27,3.27,0,0,0,2.34-1.9A11,11,0,0,0,665.39,389.8Z"/><path d="M52.53,445.61V443l2.81,0.53v-6.72l-2.83-.54V433.6l2.83,0.54v-0.67a4,4,0,0,1,.39-1.87,3,3,0,0,1,1-1.15,3.45,3.45,0,0,1,1.49-.5A5.94,5.94,0,0,1,60,430a12.29,12.29,0,0,1,2.7.78,8.53,8.53,0,0,1,1.75,1L63.55,434a13.35,13.35,0,0,0-1.18-.7,5.79,5.79,0,0,0-1.63-.52,2,2,0,0,0-1.8.25,2.25,2.25,0,0,0-.51,1.67l5,0.93v2.64l-5-.93v6.72l5,0.93v2.64C59.08,446.85,56.9,446.44,52.53,445.61Z"/><path d="M67.26,437.16a11.46,11.46,0,0,1,2.2-.35,12.34,12.34,0,0,1,3,.22,7.35,7.35,0,0,1,2.11.67,4.5,4.5,0,0,1,1.41,1.1,4,4,0,0,1,.77,1.46A6.26,6.26,0,0,1,77,442q0,1.22-.08,2.07c-0.06.57-.08,1.07-0.08,1.52a10.69,10.69,0,0,0,0,1.14c0,0.22.06,0.45,0.07,0.66l1.55,0.27v2.64l-4-.7-0.31-1.69-0.12,0a3.19,3.19,0,0,1-1.35,1,4.16,4.16,0,0,1-2.37.12,4.82,4.82,0,0,1-2.82-1.47,3.93,3.93,0,0,1-1-2.73,3.43,3.43,0,0,1,.37-1.67,2.37,2.37,0,0,1,1.07-1,4.31,4.31,0,0,1,1.68-.39,9.7,9.7,0,0,1,2.19.16q0.43,0.08.9,0.21l1.16,0.3a2.34,2.34,0,0,0,0-.47v-0.46a1.83,1.83,0,0,0-.52-1.4,3,3,0,0,0-1.54-.67,6.93,6.93,0,0,0-2.18-.08,12.13,12.13,0,0,0-1.63.33Zm4.05,9.54a2.59,2.59,0,0,0,1.7-.12,2.18,2.18,0,0,0,.82-0.75v-1.44l-0.71-.23a8.71,8.71,0,0,0-1-.24,4.86,4.86,0,0,0-.9-0.08,2.61,2.61,0,0,0-.8.12,1.23,1.23,0,0,0-.57.37,1,1,0,0,0-.21.66A1.62,1.62,0,0,0,70,446.1,2.17,2.17,0,0,0,71.32,446.7Z"/><path d="M92.44,451.56a5.72,5.72,0,0,1-2.29.74,9.69,9.69,0,0,1-2.74-.09,8.69,8.69,0,0,1-2.75-.92,7.1,7.1,0,0,1-2-1.63,6.81,6.81,0,0,1-1.25-2.22,8.16,8.16,0,0,1-.43-2.67,6.2,6.2,0,0,1,.5-2.6,4.45,4.45,0,0,1,1.39-1.75,4.91,4.91,0,0,1,2.11-.88,7.82,7.82,0,0,1,2.65,0,10.77,10.77,0,0,1,2.5.73,13.79,13.79,0,0,1,1.79.9v4.22L89.26,445v-2.21a7.38,7.38,0,0,0-1.48-.42,4.3,4.3,0,0,0-1.32,0,2.59,2.59,0,0,0-2,1.42,3.34,3.34,0,0,0-.32,1.55,4.08,4.08,0,0,0,.26,1.46,4.24,4.24,0,0,0,.74,1.25,4.29,4.29,0,0,0,1.18,1,4.78,4.78,0,0,0,1.56.54,5.3,5.3,0,0,0,2.23,0,7.38,7.38,0,0,0,1.3-.46Z"/><path d="M96.49,444l-2.36-.39V441l2.36,0.39v-2.74l3.1-.38v3.62l6.26,1v2.64l-6.26-1V448a4.67,4.67,0,0,0,.69,2.79,2.86,2.86,0,0,0,1.93,1.14,4,4,0,0,0,1.17,0,3.78,3.78,0,0,0,.94-0.25,4.34,4.34,0,0,0,.76-0.41l0.63-.43,1.43,2.39a3.67,3.67,0,0,1-1,.72,7.21,7.21,0,0,1-1.31.49,7.38,7.38,0,0,1-1.47.24,6.89,6.89,0,0,1-1.5-.07,6.1,6.1,0,0,1-4-2.15,7.93,7.93,0,0,1-1.35-5V444Z"/><path d="M108.89,449.35a6.87,6.87,0,0,1,.45-2.62,4.46,4.46,0,0,1,1.29-1.79,4.56,4.56,0,0,1,2-.93,7.33,7.33,0,0,1,2.59,0,8.29,8.29,0,0,1,2.69.86,6.83,6.83,0,0,1,2,1.58,6.54,6.54,0,0,1,1.23,2.19,8.24,8.24,0,0,1,.42,2.65,6.9,6.9,0,0,1-.45,2.62,4.5,4.5,0,0,1-1.29,1.8,4.55,4.55,0,0,1-2,.94,7.26,7.26,0,0,1-2.59,0,8.23,8.23,0,0,1-2.69-.87,6.86,6.86,0,0,1-2-1.59,6.59,6.59,0,0,1-1.23-2.19A8.27,8.27,0,0,1,108.89,449.35Zm3.2,0.49a5.1,5.1,0,0,0,.21,1.5,4.31,4.31,0,0,0,.62,1.27,3.51,3.51,0,0,0,1,.93,3.36,3.36,0,0,0,1.31.48,2.67,2.67,0,0,0,2.26-.55,3.41,3.41,0,0,0,.87-2.68,4.7,4.7,0,0,0-.81-2.8,3.32,3.32,0,0,0-2.32-1.37,3.55,3.55,0,0,0-1.24,0,2,2,0,0,0-1,.51,2.64,2.64,0,0,0-.66,1.05A4.86,4.86,0,0,0,112.09,449.85Z"/><path d="M123.33,454.89l3,0.43V448.6l-3-.43v-2.64l5.38,0.78,0.36,1.64h0.1a5.16,5.16,0,0,1,1.53-1.1,3.5,3.5,0,0,1,2-.24A3.2,3.2,0,0,1,135,448a6.39,6.39,0,0,1,.83,3.64l-2.8-.39a2.64,2.64,0,0,0-.25-1.3,1,1,0,0,0-.8-0.51,2.15,2.15,0,0,0-1.54.26,3.91,3.91,0,0,0-1,1v5.11l5.19,0.73c0,1.06,0,1.58,0,2.64-4.51-.63-6.76-0.95-11.27-1.61v-2.64Z"/><path d="M138.16,457l4.21,0.57v-6.72l-4.21-.57v-2.64l7.33,1V458l4.43,0.58v2.64c-4.71-.61-7.06-0.92-11.76-1.57V457Zm3.64-12.13a1.48,1.48,0,0,1,.55-1.2,1.92,1.92,0,0,1,1.53-.32,2.67,2.67,0,0,1,1.6.74,1.89,1.89,0,0,1,.6,1.35,1.35,1.35,0,0,1-.6,1.18,2.23,2.23,0,0,1-1.6.28,2.53,2.53,0,0,1-1.53-.7A1.85,1.85,0,0,1,141.8,444.86Z"/><path d="M153.27,450.45a11.92,11.92,0,0,1,2.22-.46,12.41,12.41,0,0,1,3,.06,7.12,7.12,0,0,1,2.12.56,4.2,4.2,0,0,1,1.41,1,3.78,3.78,0,0,1,.78,1.42,6.09,6.09,0,0,1,.24,1.76q0,1.22-.08,2.08t-0.08,1.53a10.52,10.52,0,0,0,0,1.13c0,0.22.06,0.45,0.07,0.66l1.56,0.19V463l-4-.49-0.31-1.67h-0.12a3.46,3.46,0,0,1-1.36,1.12,4.26,4.26,0,0,1-2.38.24,4.57,4.57,0,0,1-2.83-1.32,3.73,3.73,0,0,1-1-2.68,3.53,3.53,0,0,1,.37-1.69,2.57,2.57,0,0,1,1.07-1.06,4.52,4.52,0,0,1,1.69-.48,9.75,9.75,0,0,1,2.2,0q0.43,0.05.91,0.16l1.17,0.24a2.37,2.37,0,0,0,0-.47V454.5a1.73,1.73,0,0,0-.52-1.37,2.83,2.83,0,0,0-1.55-.59,7,7,0,0,0-2.19,0A12.72,12.72,0,0,0,154,453Zm4.08,9.32a2.67,2.67,0,0,0,1.71-.21,2.36,2.36,0,0,0,.83-0.8v-1.44l-0.71-.2a8.59,8.59,0,0,0-1-.19,4.89,4.89,0,0,0-.9,0,2.71,2.71,0,0,0-.81.16,1.33,1.33,0,0,0-.57.4,1,1,0,0,0-.21.67,1.54,1.54,0,0,0,.39,1.09A2.06,2.06,0,0,0,157.35,459.77Z"/><path d="M167.58,446.6l5.11,0.6c0,4.44,0,6.65,0,11.09a5.49,5.49,0,0,0,.46,2.62,1.83,1.83,0,0,0,1.46.89,3.91,3.91,0,0,0,1.22,0,4.12,4.12,0,0,0,1-.34l1.18,2.29q-0.41.22-.82,0.4a4.64,4.64,0,0,1-.86.29,5.5,5.5,0,0,1-1,.13,7.91,7.91,0,0,1-1.21-.05,5.08,5.08,0,0,1-3.38-1.54,5,5,0,0,1-1.13-3.4V449.47l-2-.24V446.6Z"/><path d="M190.81,471.08a12.29,12.29,0,0,1-3.27-1.4,11.14,11.14,0,0,1-2.81-2.44,11.69,11.69,0,0,1-2-3.48,13.16,13.16,0,0,1-.73-4.54,11.86,11.86,0,0,1,.73-4.37,9,9,0,0,1,2-3.09,8.37,8.37,0,0,1,2.81-1.88,11,11,0,0,1,3.27-.78l0.58,2.63a9.15,9.15,0,0,0-1.91.48,6,6,0,0,0-2,1.25,6.94,6.94,0,0,0-1.62,2.33,9.22,9.22,0,0,0-.66,3.77,9.4,9.4,0,0,0,.7,3.79,9.51,9.51,0,0,0,1.69,2.67,8.71,8.71,0,0,0,2.05,1.68,9.09,9.09,0,0,0,1.78.82Z"/><path d="M200,464.51a5.18,5.18,0,0,0,1.47,0,3.29,3.29,0,0,0,1.17-.44,2.23,2.23,0,0,0,.77-0.81,2.4,2.4,0,0,0,.28-1.17,2.7,2.7,0,0,0-1-2.18,5.8,5.8,0,0,0-3.13-1.06l-0.61,0-0.66,0-0.74-.05c0-3.51,0-5.27,0-8.78l8.7,0.85c0,1.17,0,1.76,0,2.93l-6-.58v3.24h0.38l0.32,0,0.28,0a7.41,7.41,0,0,1,2.23.57,5.77,5.77,0,0,1,1.8,1.22,5.4,5.4,0,0,1,1.19,1.81,5.89,5.89,0,0,1,.42,2.24,5.23,5.23,0,0,1-.53,2.43,4.49,4.49,0,0,1-1.44,1.65,5.79,5.79,0,0,1-2.11.89,8.36,8.36,0,0,1-2.57.12,6.62,6.62,0,0,1-1.13-.22q-0.6-.17-1.18-0.38a11.43,11.43,0,0,1-1.07-.46q-0.49-.24-0.83-0.44l1-2.39a8,8,0,0,0,1.26.66A5.86,5.86,0,0,0,200,464.51Z"/><path d="M211.59,470.51a7.58,7.58,0,0,0,1.78-.47,6.64,6.64,0,0,0,2.06-1.28,7.27,7.27,0,0,0,1.69-2.33,8.44,8.44,0,0,0,.7-3.66,10.19,10.19,0,0,0-.66-3.9,9.08,9.08,0,0,0-1.62-2.65,8,8,0,0,0-2-1.65,11.06,11.06,0,0,0-1.91-.86l0.58-2.52a13.1,13.1,0,0,1,3.27,1.43,11.1,11.1,0,0,1,2.81,2.43,11.69,11.69,0,0,1,2,3.47,13,13,0,0,1,.73,4.52,12,12,0,0,1-.73,4.4,9,9,0,0,1-2,3.09,8.43,8.43,0,0,1-2.81,1.89,10.37,10.37,0,0,1-3.27.76Z"/><path d="M376.58,475v-2.64l2.84,0v-6.72l-2.87,0V463l2.87,0v-0.67a4.43,4.43,0,0,1,.4-1.95,4,4,0,0,1,1-1.35,4.36,4.36,0,0,1,1.51-.8,6.3,6.3,0,0,1,1.77-.27,11.3,11.3,0,0,1,2.74.24,6.91,6.91,0,0,1,1.77.66l-0.92,2.39a10.8,10.8,0,0,0-1.19-.46,5.23,5.23,0,0,0-1.65-.19,2.37,2.37,0,0,0-1.82.61,2.62,2.62,0,0,0-.52,1.77l5.06-.06v2.64l-5.06.06v6.72l5.09-.07v2.64C383.22,474.92,381,474.94,376.58,475Z"/><path d="M391.5,463.61a13.49,13.49,0,0,1,2.23-.78,12.85,12.85,0,0,1,3-.37,6.65,6.65,0,0,1,2.13.26,3.48,3.48,0,0,1,1.42.82,3.15,3.15,0,0,1,.78,1.3,5.73,5.73,0,0,1,.24,1.72q0,1.22-.08,2.09t-0.08,1.54a10.14,10.14,0,0,0,0,1.13c0,0.22.06,0.44,0.07,0.65l1.57,0v2.64l-4,.09L398.47,473h-0.12a4.27,4.27,0,0,1-1.37,1.31,4.64,4.64,0,0,1-2.4.59,4,4,0,0,1-2.85-.91,3.22,3.22,0,0,1-1.05-2.53,3.85,3.85,0,0,1,.37-1.75,3.19,3.19,0,0,1,1.08-1.22,5.25,5.25,0,0,1,1.7-.73,10.1,10.1,0,0,1,2.22-.27q0.43,0,.91,0l1.17,0.07a2.49,2.49,0,0,0,0-.48V466.7a1.5,1.5,0,0,0-.53-1.3,2.53,2.53,0,0,0-1.56-.36,7.37,7.37,0,0,0-2.2.35,14.64,14.64,0,0,0-1.65.65Zm4.1,8.73a2.67,2.67,0,0,0,2.55-1.37v-1.44l-0.71-.09a8.2,8.2,0,0,0-1,0,5,5,0,0,0-.91.1,3,3,0,0,0-.81.28,1.64,1.64,0,0,0-.57.48,1.15,1.15,0,0,0-.21.7,1.34,1.34,0,0,0,.39,1A1.83,1.83,0,0,0,395.61,472.34Z"/><path d="M417,473a7.14,7.14,0,0,1-2.31,1.19,10.28,10.28,0,0,1-2.77.45,7.77,7.77,0,0,1-2.78-.38,5.47,5.47,0,0,1-2-1.23,5.26,5.26,0,0,1-1.27-2,7.34,7.34,0,0,1-.43-2.58,6.84,6.84,0,0,1,.51-2.7,5.86,5.86,0,0,1,1.41-2,6.29,6.29,0,0,1,2.13-1.29,8.4,8.4,0,0,1,2.68-.5,9.85,9.85,0,0,1,2.53.24,11.44,11.44,0,0,1,1.81.54V467l-2.65.08v-2.21a6.81,6.81,0,0,0-1.49-.12,4.61,4.61,0,0,0-1.34.24,3.39,3.39,0,0,0-1.18.68,3.52,3.52,0,0,0-.84,1.14,3.72,3.72,0,0,0-.33,1.62,3.65,3.65,0,0,0,.26,1.41,3.24,3.24,0,0,0,.75,1.11,3.29,3.29,0,0,0,1.19.72,4.26,4.26,0,0,0,1.58.23,5.75,5.75,0,0,0,2.25-.45,9.34,9.34,0,0,0,1.31-.71Z"/><path d="M421,464.68l-2.39.08v-2.64L421,462V459.3l3.13-1v3.62l6.31-.24v2.64l-6.31.24V468a4,4,0,0,0,.7,2.65,2.33,2.33,0,0,0,2,.76,4.22,4.22,0,0,0,1.18-.2,4.63,4.63,0,0,0,1-.43,5.72,5.72,0,0,0,.77-0.56l0.64-.55,1.44,2.1a4.87,4.87,0,0,1-1,.92,9.16,9.16,0,0,1-1.33.75,8.67,8.67,0,0,1-1.48.53,7.23,7.23,0,0,1-1.52.23,5,5,0,0,1-4.06-1.35q-1.36-1.45-1.36-4.72v-3.43Z"/><path d="M433.55,467.56a7.54,7.54,0,0,1,.46-2.71,5.76,5.76,0,0,1,3.31-3.37,7.93,7.93,0,0,1,2.61-.54,7.43,7.43,0,0,1,2.71.33,5.25,5.25,0,0,1,2,1.19,5.06,5.06,0,0,1,1.24,1.94,7.45,7.45,0,0,1,.42,2.57,7.54,7.54,0,0,1-.46,2.71,5.79,5.79,0,0,1-3.31,3.39,7.86,7.86,0,0,1-2.61.54,7.38,7.38,0,0,1-2.71-.33,5.26,5.26,0,0,1-2-1.2,5.1,5.1,0,0,1-1.24-2A7.47,7.47,0,0,1,433.55,467.56Zm3.23-.14a4.65,4.65,0,0,0,.22,1.45,3.39,3.39,0,0,0,.63,1.15,2.65,2.65,0,0,0,1,.74,3,3,0,0,0,1.33.22,3.2,3.2,0,0,0,2.28-1,4.86,4.86,0,0,0,.06-5.49,2.7,2.7,0,0,0-2.34-.91,3.84,3.84,0,0,0-1.25.26,2.63,2.63,0,0,0-1,.71,3.41,3.41,0,0,0-.66,1.18A5.25,5.25,0,0,0,436.78,467.42Z"/><path d="M448.1,470.24l3-.15v-6.72l-3,.15v-2.64l5.42-.28,0.36,1.56H454a6.92,6.92,0,0,1,1.54-1.4,4,4,0,0,1,2-.64,2.59,2.59,0,0,1,2.28.93,5.56,5.56,0,0,1,.83,3.48l-2.82.16a2.34,2.34,0,0,0-.25-1.25,0.84,0.84,0,0,0-.81-0.35,2.51,2.51,0,0,0-1.55.57,5.23,5.23,0,0,0-1,1.16v5.11l5.23-.29v2.64c-4.54.26-6.8,0.38-11.34,0.62v-2.64Z"/><path d="M463,469.42l4.24-.26v-6.72l-4.24.26v-2.64l7.37-.46V469l4.45-.29v2.64c-4.73.32-7.09,0.47-11.82,0.75v-2.64Zm3.66-12.85a1.81,1.81,0,0,1,.55-1.31,2.28,2.28,0,0,1,1.54-.63,2.24,2.24,0,0,1,1.61.43,1.53,1.53,0,0,1,.6,1.23,1.67,1.67,0,0,1-.6,1.3,2.61,2.61,0,0,1-1.61.6,2.13,2.13,0,0,1-1.54-.4A1.51,1.51,0,0,1,466.69,456.57Z"/><path d="M478.22,459.89a14.17,14.17,0,0,1,2.23-.9,13.09,13.09,0,0,1,3-.53,6.52,6.52,0,0,1,2.13.14,3.25,3.25,0,0,1,1.42.75,2.94,2.94,0,0,1,.78,1.26,5.62,5.62,0,0,1,.24,1.71q0,1.22-.08,2.09T487.84,466a10.11,10.11,0,0,0,0,1.12c0,0.22.06,0.44,0.07,0.64l1.56-.12v2.64l-4,.3-0.32-1.61h-0.12a4.61,4.61,0,0,1-1.36,1.38,4.81,4.81,0,0,1-2.39.71,3.83,3.83,0,0,1-2.85-.76,3.06,3.06,0,0,1-1.05-2.47,4,4,0,0,1,.37-1.77,3.43,3.43,0,0,1,1.08-1.27,5.53,5.53,0,0,1,1.7-.81,10.29,10.29,0,0,1,2.21-.39q0.43,0,.91,0h1.17a2.54,2.54,0,0,0,0-.48v-0.46a1.43,1.43,0,0,0-.52-1.27,2.45,2.45,0,0,0-1.55-.28,7.56,7.56,0,0,0-2.2.47,15.49,15.49,0,0,0-1.65.74Zm4.1,8.52a3,3,0,0,0,1.71-.54,3.14,3.14,0,0,0,.83-1v-1.44l-0.71-.06a8.25,8.25,0,0,0-1,0,5.13,5.13,0,0,0-.9.15,3.2,3.2,0,0,0-.81.32,1.77,1.77,0,0,0-.57.51,1.2,1.2,0,0,0-.21.71,1.28,1.28,0,0,0,.39,1A1.76,1.76,0,0,0,482.31,468.41Z"/><path d="M492.58,453.22l5.12-.41c0,4.44,0,6.65,0,11.09a4.91,4.91,0,0,0,.46,2.53,1.48,1.48,0,0,0,1.47.6,4.19,4.19,0,0,0,1.23-.26,5.12,5.12,0,0,0,1-.52l1.18,2.06q-0.41.3-.82,0.56a5.74,5.74,0,0,1-.87.46,6.24,6.24,0,0,1-1,.32,8.15,8.15,0,0,1-1.21.18,4.25,4.25,0,0,1-3.39-.88,4.15,4.15,0,0,1-1.13-3.17V455.7l-2,.16C492.58,454.81,492.58,454.28,492.58,453.22Z"/><path d="M506.79,471.66c4.27-.37,6.4-0.56,10.67-1v2.57c-4.27.4-6.4,0.59-10.67,1v-2.57Z"/><path d="M519.34,450.92l4.85-.46c0,2.46,0,3.69,0,6.14h0.1a4.67,4.67,0,0,1,1.54-1.37,5.61,5.61,0,0,1,2.26-.68,5.48,5.48,0,0,1,1.68.07,2.81,2.81,0,0,1,1.32.66,3.28,3.28,0,0,1,.86,1.41,7.25,7.25,0,0,1,.31,2.31v7.46l-3.12.32V460a2.74,2.74,0,0,0-.62-2,2,2,0,0,0-1.63-.49,3,3,0,0,0-1.63.7,3.37,3.37,0,0,0-1.06,1.48v7.66l-3.12.3V453.4l-1.73.16v-2.64Z"/><path d="M546.57,463.66a5,5,0,0,1-.8.65,8.77,8.77,0,0,1-1.15.64,9.79,9.79,0,0,1-3.13.87,7.84,7.84,0,0,1-2.75-.14,4.65,4.65,0,0,1-3.34-2.9,7,7,0,0,1-.44-2.61,7.45,7.45,0,0,1,.5-2.82,6.4,6.4,0,0,1,1.38-2.12,6.66,6.66,0,0,1,2.05-1.4,8.5,8.5,0,0,1,2.54-.67,7.71,7.71,0,0,1,1.89,0,4.59,4.59,0,0,1,1.79.63,3.78,3.78,0,0,1,1.33,1.42,5,5,0,0,1,.52,2.44,11.81,11.81,0,0,1-.24,2.26l-8.64.93a2.56,2.56,0,0,0,.32,1.26,2.21,2.21,0,0,0,.79.78,3.1,3.1,0,0,0,1.13.37,5.55,5.55,0,0,0,1.36,0,7.43,7.43,0,0,0,2.36-.59,5.77,5.77,0,0,0,1.5-1Zm-5.18-8a4.24,4.24,0,0,0-1.18.3,3.75,3.75,0,0,0-1,.61,3.21,3.21,0,0,0-.73.9,2.77,2.77,0,0,0-.34,1.14L544,458a2.39,2.39,0,0,0-.66-1.82A2.42,2.42,0,0,0,541.38,455.66Z"/><path d="M550.24,447.72l5.11-.59v11.09a4.82,4.82,0,0,0,.46,2.52,1.42,1.42,0,0,0,1.46.55,4.26,4.26,0,0,0,1.22-.3,5.34,5.34,0,0,0,1-.56l1.18,2q-0.41.31-.82,0.59a6,6,0,0,1-.86.49,6.44,6.44,0,0,1-1,.36,8.29,8.29,0,0,1-1.21.23,4.13,4.13,0,0,1-3.38-.76,4,4,0,0,1-1.13-3.13V450.14l-2,.23v-2.64Z"/><path d="M562.54,451.09l4.08-.5L567,452h0.1a5.27,5.27,0,0,1,4-2.28,5.5,5.5,0,0,1,2,.09,3.34,3.34,0,0,1,1.58.89,4.37,4.37,0,0,1,1,1.74,8.55,8.55,0,0,1,.36,2.67,9.35,9.35,0,0,1-.41,2.82,6.9,6.9,0,0,1-1.17,2.25,6,6,0,0,1-1.87,1.56,7.1,7.1,0,0,1-2.52.77,9.69,9.69,0,0,1-1.46.07,3.68,3.68,0,0,1-1.2-.2v4.92l-3.12.38V453.51l-1.8.22v-2.64Zm7.62,1.37a3.53,3.53,0,0,0-1.67.66,2.81,2.81,0,0,0-1,1.5v5a2.26,2.26,0,0,0,1,.3,5.21,5.21,0,0,0,1.28,0,3.64,3.64,0,0,0,1.25-.38,3,3,0,0,0,1-.86,4.12,4.12,0,0,0,.67-1.36,6.56,6.56,0,0,0,.24-1.88,3.2,3.2,0,0,0-.77-2.35A2.21,2.21,0,0,0,570.16,452.46Z"/><path d="M589.71,458.31a5.16,5.16,0,0,1-.8.67,9,9,0,0,1-1.15.67,10.06,10.06,0,0,1-1.45.58,9.92,9.92,0,0,1-1.68.37,7.79,7.79,0,0,1-2.74-.07,4.66,4.66,0,0,1-2-1,4.61,4.61,0,0,1-1.28-1.82,7,7,0,0,1-.44-2.59,7.57,7.57,0,0,1,.5-2.84,6.63,6.63,0,0,1,1.38-2.16,6.88,6.88,0,0,1,2-1.46,8.63,8.63,0,0,1,2.54-.73,7.67,7.67,0,0,1,1.88,0,4.47,4.47,0,0,1,1.78.59,3.63,3.63,0,0,1,1.33,1.39,4.92,4.92,0,0,1,.52,2.43,11.94,11.94,0,0,1-.24,2.27l-8.62,1.16a2.52,2.52,0,0,0,.32,1.25,2.12,2.12,0,0,0,.79.76,3,3,0,0,0,1.13.34,5.53,5.53,0,0,0,1.35,0,7.54,7.54,0,0,0,2.36-.65,6,6,0,0,0,1.5-1Zm-5.17-7.87a4.3,4.3,0,0,0-1.17.33,3.87,3.87,0,0,0-1,.63,3.33,3.33,0,0,0-.73.92,2.83,2.83,0,0,0-.34,1.15l5.89-.79a2.33,2.33,0,0,0-.66-1.81A2.37,2.37,0,0,0,584.54,450.45Z"/><path d="M592.22,456.6l3-.42v-6.72l-3,.41c0-1.06,0-1.58,0-2.64l5.38-.76L598,448h0.1a7.85,7.85,0,0,1,1.53-1.54,4.29,4.29,0,0,1,2-.82,2.37,2.37,0,0,1,2.26.73,5.26,5.26,0,0,1,.83,3.41l-2.8.41a2.22,2.22,0,0,0-.25-1.22,0.76,0.76,0,0,0-.8-0.28,2.72,2.72,0,0,0-1.54.7,5.94,5.94,0,0,0-1,1.25v5.11l5.19-.75v2.64c-4.51.66-6.76,1-11.27,1.6C592.22,458.18,592.22,457.66,592.22,456.6Z"/><path d="M616.52,460.77a9.89,9.89,0,0,1-3.25-.56,7.71,7.71,0,0,1-2.8-1.71,8.33,8.33,0,0,1-1.95-3,11.65,11.65,0,0,1-.73-4.36,13.48,13.48,0,0,1,.73-4.56,12.68,12.68,0,0,1,1.95-3.59,12.11,12.11,0,0,1,2.8-2.61,13.92,13.92,0,0,1,3.25-1.63l0.57,2.48a11.73,11.73,0,0,0-1.9,1,8.67,8.67,0,0,0-2,1.77,9.83,9.83,0,0,0-1.61,2.75,10.55,10.55,0,0,0-.66,3.94,8.19,8.19,0,0,0,.69,3.62,6.65,6.65,0,0,0,1.69,2.23,6.09,6.09,0,0,0,2,1.15,7.2,7.2,0,0,0,1.77.36Z"/><path d="M622.51,452.11l3.65-.58V441L623,444l-1.43-1.69,5.44-5,2.1-.34v14.16l3.58-.58v2.64c-4.08.67-6.12,1-10.2,1.64v-2.64Z"/><path d="M639.51,450.44a2,2,0,0,1,.54-1.39,2.33,2.33,0,0,1,1.35-.71,2,2,0,0,1,2,.53,2.93,2.93,0,0,1,.67,2,5.06,5.06,0,0,1-.42,2,6.58,6.58,0,0,1-1.08,1.72A7.53,7.53,0,0,1,641,456a7.25,7.25,0,0,1-1.63.83l-0.64-1.21a8.39,8.39,0,0,0,1.16-.6,6,6,0,0,0,1.06-.84,4.72,4.72,0,0,0,.8-1.06,3,3,0,0,0,.37-1.22,3.19,3.19,0,0,1-1.22.24,1.56,1.56,0,0,1-.82-0.24,1.24,1.24,0,0,1-.46-0.59A2.3,2.3,0,0,1,639.51,450.44Z"/><path d="M654.27,447a5.81,5.81,0,0,0,1.45-.45,4.53,4.53,0,0,0,1.16-.76,3.32,3.32,0,0,0,.76-1,2.88,2.88,0,0,0,.27-1.25,2,2,0,0,0-1-1.89,4.86,4.86,0,0,0-3.11-.2l-0.61.12-0.66.15-0.74.15v-8.78l8.62-1.54v2.93l-6,1.07v3.24l0.38-.09,0.32-.07,0.27-.06a6.63,6.63,0,0,1,2.22,0,4.07,4.07,0,0,1,1.79.72,3.66,3.66,0,0,1,1.18,1.48,5.08,5.08,0,0,1,.42,2.12,6.22,6.22,0,0,1-.52,2.58,6.66,6.66,0,0,1-1.43,2,8.1,8.1,0,0,1-2.1,1.47,9.53,9.53,0,0,1-2.55.83,6.27,6.27,0,0,1-1.12.09c-0.4,0-.79,0-1.17-0.06a9.22,9.22,0,0,1-1.06-.16,8.26,8.26,0,0,1-.82-0.22l1-2.67a6,6,0,0,0,1.25.31A5.24,5.24,0,0,0,654.27,447Z"/><path d="M665.77,449.81a9.88,9.88,0,0,0,1.76-1,9.75,9.75,0,0,0,2-1.84,10.62,10.62,0,0,0,1.68-2.8,9.88,9.88,0,0,0,.69-3.85,8.92,8.92,0,0,0-.65-3.72,6.2,6.2,0,0,0-1.61-2.21,5.4,5.4,0,0,0-2-1.09,8.63,8.63,0,0,0-1.89-.33l0.57-2.67a10.29,10.29,0,0,1,3.24.53,7.45,7.45,0,0,1,2.78,1.66,8.14,8.14,0,0,1,1.94,2.93,11.5,11.5,0,0,1,.72,4.31,13.79,13.79,0,0,1-.72,4.6,13,13,0,0,1-1.94,3.63,12.46,12.46,0,0,1-2.78,2.66,13.28,13.28,0,0,1-3.24,1.66Z"/></svg>