<svg id="Layer_1" data-name="Layer 1" xmlns="http://www.w3.org/2000/svg" viewBox="0 0 720 576"><defs><style>.cls-1,.cls-2,.cls-4,.cls-6{fill:#231f20;}.cls-1,.cls-3{stroke:#231f20;}.cls-1,.cls-6{stroke-miterlimit:10;}.cls-2{stroke:#000;}.cls-2,.cls-3{stroke-linecap:round;stroke-linejoin:round;stroke-width:2px;}.cls-3,.cls-5{fill:#fff;}.cls-6{stroke:#fff;}</style></defs><title>Hanoi_Tower_Set_2</title><path class="cls-1" d="M659.37,523.53c0-.14,0-0.29,0-0.43s0-.29,0-0.43V470.88H67.54s-0.23,51.74-.23,52.22c0,2.67,2.12,5.24,6.08,7.71,13.87,8.61,50.58,16.11,101.74,21.48s116.73,8.59,188.22,8.59c81.71,0,155.68-4.21,209.24-11,26.78-3.41,48.45-7.46,63.44-12,7.5-2.25,13.32-4.62,17.29-7.08,3.38-2.1,5.41-4.29,5.94-6.55h0.1v-0.73Z"/><ellipse class="cls-2" cx="363.36" cy="471.96" rx="295.87" ry="37.63"/><path class="cls-3" d="M659.37,472.05c0-.14,0-0.29,0-0.43s0-.29,0-0.43V419.4H67.54s-0.23,51.74-.23,52.22c0,2.67,2.12,5.24,6.08,7.71,13.87,8.61,50.58,16.11,101.74,21.48s116.73,8.59,188.22,8.59c81.71,0,155.68-4.21,209.24-11,26.78-3.41,48.45-7.46,63.44-12,7.5-2.25,13.32-4.62,17.29-7.08,3.38-2.1,5.41-4.29,5.94-6.55h0.1v-0.73Z"/><ellipse class="cls-3" cx="363.36" cy="420.49" rx="295.87" ry="37.63"/><path class="cls-4" d="M363.35,429.26c-16,0-29-3.75-30.2-8.61h-0.08l0-.5V25.32h60.63V420.65h-0.12C392.33,425.51,379.33,429.26,363.35,429.26Z"/><path class="cls-5" d="M393.17,25.82V420.15h0c-0.49,4.78-13.63,8.61-29.79,8.61s-29.3-3.83-29.79-8.61h0v-0.21s0,0,0-.06,0,0,0-.06v-394h59.63m1-1H332.55v395s0,0.07,0,.11v1.27h0.23c2,5.6,16.84,8.61,30.58,8.61s28.6-3,30.58-8.61h0.21l0-1V24.82h0Z"/><ellipse class="cls-6" cx="363.35" cy="25.93" rx="29.81" ry="8.89"/><path d="M117.74,475.81V473l3.05,0.43v-7.28l-3.08-.44v-2.86l3.08,0.44v-0.73a4.42,4.42,0,0,1,.43-2,3.45,3.45,0,0,1,1.13-1.3,3.94,3.94,0,0,1,1.62-.62,6.47,6.47,0,0,1,1.9,0,12.94,12.94,0,0,1,2.94.7,8.76,8.76,0,0,1,1.9,1l-1,2.44a13.78,13.78,0,0,0-1.28-.69,6.11,6.11,0,0,0-1.77-.48,2.26,2.26,0,0,0-2,.37,2.53,2.53,0,0,0-.56,1.83l5.44,0.74v2.86l-5.44-.74v7.28l5.46,0.75v2.86C124.86,476.82,122.49,476.49,117.74,475.81Z"/><path d="M133.76,465.9a12.91,12.91,0,0,1,2.4-.49,13.38,13.38,0,0,1,3.23.08,7.69,7.69,0,0,1,2.29.62,4.57,4.57,0,0,1,1.53,1.12,4.12,4.12,0,0,1,.84,1.54,6.63,6.63,0,0,1,.26,1.9q0,1.33-.09,2.25t-0.09,1.65a11.24,11.24,0,0,0,.05,1.23c0,0.24.06,0.48,0.08,0.71l1.68,0.21v2.86l-4.35-.55-0.34-1.81-0.13,0a3.7,3.7,0,0,1-1.47,1.2,4.59,4.59,0,0,1-2.57.25,5,5,0,0,1-3.06-1.44,4.06,4.06,0,0,1-1.13-2.91,3.83,3.83,0,0,1,.4-1.83,2.77,2.77,0,0,1,1.16-1.15,4.88,4.88,0,0,1,1.83-.51,10.51,10.51,0,0,1,2.38.06q0.46,0.06,1,.18l1.26,0.27a2.59,2.59,0,0,0,.05-0.51v-0.49a1.89,1.89,0,0,0-.57-1.49,3.07,3.07,0,0,0-1.67-.64,7.51,7.51,0,0,0-2.37,0,13.49,13.49,0,0,0-1.77.44ZM138.16,476a2.87,2.87,0,0,0,1.84-.22,2.53,2.53,0,0,0,.9-0.86v-1.56l-0.77-.21A9.33,9.33,0,0,0,139,473a5.21,5.21,0,0,0-1,0,3,3,0,0,0-.87.17,1.42,1.42,0,0,0-.61.43,1.1,1.1,0,0,0-.23.72,1.68,1.68,0,0,0,.42,1.19A2.24,2.24,0,0,0,138.16,476Z"/><path d="M161.12,480.17a6.52,6.52,0,0,1-2.49.92,10.56,10.56,0,0,1-3,.05,9.08,9.08,0,0,1-3-.85,7.21,7.21,0,0,1-2.2-1.66,6.94,6.94,0,0,1-1.36-2.34,8.61,8.61,0,0,1-.47-2.87,6.88,6.88,0,0,1,.54-2.84,5.16,5.16,0,0,1,1.52-2,5.64,5.64,0,0,1,2.29-1.06,8.53,8.53,0,0,1,2.88-.11,11.33,11.33,0,0,1,2.72.66,14.25,14.25,0,0,1,1.95.88c0,1.83,0,2.75,0,4.58l-2.85-.33v-2.39a7.75,7.75,0,0,0-1.61-.37,4.71,4.71,0,0,0-1.44,0,3.06,3.06,0,0,0-1.27.55,3.09,3.09,0,0,0-.91,1.1,3.72,3.72,0,0,0-.35,1.7,4.26,4.26,0,0,0,2.37,3.86,5,5,0,0,0,1.7.5,5.8,5.8,0,0,0,2.42-.13,8.47,8.47,0,0,0,1.41-.56Z"/><path d="M165.53,471.78l-2.57-.29v-2.86l2.57,0.29c0-1.19,0-1.78,0-3l3.37-.58v3.93l6.8,0.74v2.86l-6.8-.74v3.72a4.87,4.87,0,0,0,.75,3,2.92,2.92,0,0,0,2.1,1.13,4.25,4.25,0,0,0,2.3-.35,5.1,5.1,0,0,0,.83-0.48l0.69-.5,1.56,2.51a4.25,4.25,0,0,1-1.1.83,8.29,8.29,0,0,1-3,.93,7.47,7.47,0,0,1-1.63,0,6.26,6.26,0,0,1-4.37-2.11,8.26,8.26,0,0,1-1.47-5.33v-3.72Z"/><path d="M179,476.89a7.62,7.62,0,0,1,.49-2.86,5.18,5.18,0,0,1,1.4-2,5.26,5.26,0,0,1,2.17-1.11,8,8,0,0,1,2.82-.17,8.67,8.67,0,0,1,2.92.79,6.92,6.92,0,0,1,2.17,1.61,6.65,6.65,0,0,1,1.34,2.3,8.7,8.7,0,0,1,.45,2.85,7.65,7.65,0,0,1-.49,2.86,5.1,5.1,0,0,1-3.57,3.15,8,8,0,0,1-2.82.17,8.6,8.6,0,0,1-2.92-.79,6.93,6.93,0,0,1-2.17-1.62,6.7,6.7,0,0,1-1.34-2.31A8.73,8.73,0,0,1,179,476.89Zm3.48,0.36a5.42,5.42,0,0,0,.23,1.61,4.42,4.42,0,0,0,.68,1.34,3.43,3.43,0,0,0,2.49,1.4,3,3,0,0,0,2.45-.72,3.85,3.85,0,0,0,.95-2.95,4.88,4.88,0,0,0-.88-3,3.4,3.4,0,0,0-2.52-1.36,3.91,3.91,0,0,0-1.35.08,2.32,2.32,0,0,0-1.08.6,3.06,3.06,0,0,0-.71,1.17A5.37,5.37,0,0,0,182.48,477.25Z"/><path d="M194.68,482.11l3.22,0.31v-7.28l-3.22-.31c0-1.14,0-1.72,0-2.86l5.84,0.55,0.39,1.75H201a6,6,0,0,1,1.66-1.28,3.89,3.89,0,0,1,2.18-.38,3.27,3.27,0,0,1,2.46,1.36,6.67,6.67,0,0,1,.9,3.9l-3-.27a2.76,2.76,0,0,0-.27-1.39,1.06,1.06,0,0,0-.87-0.51,2.4,2.4,0,0,0-1.68.37,4.58,4.58,0,0,0-1.08,1.1v5.54l5.64,0.51v2.86c-4.9-.43-7.34-0.66-12.24-1.13C194.68,483.82,194.68,483.25,194.68,482.11Z"/><path d="M210.79,483.57l4.58,0.39v-7.28l-4.58-.39v-2.86l8,0.67v10.14l4.81,0.38v2.86c-5.11-.4-7.66-0.61-12.77-1v-2.86Zm4-13.34a1.69,1.69,0,0,1,.6-1.33,2.16,2.16,0,0,1,1.66-.43,2.75,2.75,0,0,1,1.74.71,1.94,1.94,0,0,1,.65,1.43,1.55,1.55,0,0,1-.65,1.31,2.5,2.5,0,0,1-1.74.39,2.6,2.6,0,0,1-1.66-.67A1.9,1.9,0,0,1,214.74,470.23Z"/><path d="M227.2,475.65a12.85,12.85,0,0,1,5.64-.72,7.45,7.45,0,0,1,2.3.49,4.25,4.25,0,0,1,1.54,1,3.83,3.83,0,0,1,.85,1.49,6.46,6.46,0,0,1,.26,1.89q0,1.33-.09,2.26t-0.09,1.66a11.11,11.11,0,0,0,.05,1.23c0,0.24.06,0.48,0.08,0.71l1.69,0.12c0,1.14,0,1.72,0,2.86l-4.37-.31-0.34-1.79h-0.13a4,4,0,0,1-1.47,1.28,5.54,5.54,0,0,1-5.66-.88,3.84,3.84,0,0,1-1.14-2.84,3.94,3.94,0,0,1,.4-1.85,3,3,0,0,1,1.16-1.21,5.15,5.15,0,0,1,1.83-.62,10.61,10.61,0,0,1,2.39-.07c0.31,0,.64.06,1,0.12l1.27,0.2a2.62,2.62,0,0,0,.05-0.52v-0.49a1.79,1.79,0,0,0-.57-1.46,2.93,2.93,0,0,0-1.68-.55,7.64,7.64,0,0,0-2.38.16,14.2,14.2,0,0,0-1.78.54Zm4.43,9.87a3,3,0,0,0,1.85-.32,2.75,2.75,0,0,0,.9-0.91v-1.56l-0.77-.17a9.17,9.17,0,0,0-1.11-.15,5.26,5.26,0,0,0-1,0,3.08,3.08,0,0,0-.87.22,1.54,1.54,0,0,0-.62.46,1.15,1.15,0,0,0-.23.74,1.59,1.59,0,0,0,.42,1.16A2.13,2.13,0,0,0,231.63,485.52Z"/><path d="M242.73,470.67l5.54,0.36c0,4.8,0,7.21,0,12a5.77,5.77,0,0,0,.49,2.81,1.87,1.87,0,0,0,1.59.88,4.27,4.27,0,0,0,1.33-.09,4.73,4.73,0,0,0,1-.42l1.28,2.42q-0.44.26-.88,0.48a5.34,5.34,0,0,1-.94.36,6.11,6.11,0,0,1-1.08.19,8.52,8.52,0,0,1-1.31,0,5.22,5.22,0,0,1-3.67-1.48,5.13,5.13,0,0,1-1.22-3.62c0-4.37,0-6.55,0-10.92l-2.16-.14C242.73,472.39,242.73,471.82,242.73,470.67Z"/><path d="M267.93,495.88a12.61,12.61,0,0,1-3.54-1.33,11.2,11.2,0,0,1-3-2.48,11.84,11.84,0,0,1-2.12-3.66,13.9,13.9,0,0,1-.79-4.88,13.18,13.18,0,0,1,.79-4.78,10.51,10.51,0,0,1,2.12-3.46,9.78,9.78,0,0,1,3-2.2,12.34,12.34,0,0,1,3.54-1l0.62,2.81a10.49,10.49,0,0,0-2.07.63,7,7,0,0,0-2.2,1.47,8.09,8.09,0,0,0-1.76,2.62,10.24,10.24,0,0,0-.72,4.12,9.89,9.89,0,0,0,.75,4.07,9.59,9.59,0,0,0,1.84,2.79,8.75,8.75,0,0,0,2.23,1.7,9.38,9.38,0,0,0,1.93.79Z"/><path d="M278.16,488.38a5.26,5.26,0,0,0,1.58-.15,3.51,3.51,0,0,0,1.22-.57,2.81,2.81,0,0,0,.79-0.9,2.32,2.32,0,0,0,.29-1.14,2.53,2.53,0,0,0-.33-1.32,2.5,2.5,0,0,0-.9-0.88,4.52,4.52,0,0,0-1.38-.5,11.26,11.26,0,0,0-1.75-.21l-1.46-.07v-1.87l4.38-5.14-6.59-.31c0-1.14,0-1.72,0-2.86,4.25,0.21,6.38.3,10.63,0.48v2.37l-4.58,5,0.6,0a5.29,5.29,0,0,1,1.77.39,4.66,4.66,0,0,1,1.52,1,4.9,4.9,0,0,1,1.07,1.61,5.53,5.53,0,0,1,.4,2.18,5.18,5.18,0,0,1-.61,2.57,5.57,5.57,0,0,1-1.61,1.82,6.56,6.56,0,0,1-2.3,1,9.42,9.42,0,0,1-2.68.26,13.44,13.44,0,0,1-2.34-.32,11.71,11.71,0,0,1-2.27-.76l0.91-2.76a3.85,3.85,0,0,0,.64.29q0.4,0.15.91,0.3a10.2,10.2,0,0,0,1,.26A7.37,7.37,0,0,0,278.16,488.38Z"/><path d="M290.45,494.07a8.6,8.6,0,0,0,1.93-.62,7.71,7.71,0,0,0,2.23-1.5,8.48,8.48,0,0,0,1.84-2.63,9.41,9.41,0,0,0,.76-4,10.74,10.74,0,0,0-.72-4.18,9.14,9.14,0,0,0-1.76-2.78,8,8,0,0,0-2.2-1.67,11.41,11.41,0,0,0-2.07-.82l0.63-2.76a13.41,13.41,0,0,1,3.54,1.35,11.14,11.14,0,0,1,3,2.47,11.83,11.83,0,0,1,2.12,3.65,13.76,13.76,0,0,1,.79,4.85,13.3,13.3,0,0,1-.79,4.81,10.52,10.52,0,0,1-2.12,3.46,9.84,9.84,0,0,1-3,2.21,11.66,11.66,0,0,1-3.54,1Z"/><path d="M593.28,470.17a6.32,6.32,0,0,1-.48,2.43,7.22,7.22,0,0,1-1.31,2.08,7.43,7.43,0,0,1-2,1.55A7.16,7.16,0,0,1,587,477a7,7,0,0,1-2.52-.08,4.8,4.8,0,0,1-2.06-1,5.08,5.08,0,0,1-1.4-2,7.58,7.58,0,0,1-.52-2.95,12.78,12.78,0,0,1,.89-4.8,15.47,15.47,0,0,1,2.29-4,14.67,14.67,0,0,1,3.13-2.93,12.17,12.17,0,0,1,3.44-1.69l0.75,2.57a11.6,11.6,0,0,0-2.56,1.2,11.45,11.45,0,0,0-2.12,1.71,10.46,10.46,0,0,0-1.57,2.06,7.51,7.51,0,0,0-.87,2.23,4.87,4.87,0,0,1,1.55-1.32,6.24,6.24,0,0,1,2.28-.77,5.93,5.93,0,0,1,2.17.07,4.05,4.05,0,0,1,2.91,2.44A5.73,5.73,0,0,1,593.28,470.17Zm-3.26.59a2.32,2.32,0,0,0-.84-2,3,3,0,0,0-2.26-.41,4.2,4.2,0,0,0-1.86.72,4,4,0,0,0-1.22,1.26,4.65,4.65,0,0,0-.07.65c0,0.23,0,.42,0,0.56a3.25,3.25,0,0,0,.21,1.17,2.35,2.35,0,0,0,1.58,1.46,3.12,3.12,0,0,0,1.32.06,3.52,3.52,0,0,0,1.16-.38,4,4,0,0,0,1-.75,3.66,3.66,0,0,0,.71-1A3,3,0,0,0,590,470.76Z"/></svg>