<svg id="Layer_1" data-name="Layer 1" xmlns="http://www.w3.org/2000/svg" viewBox="0 0 720 576"><defs><style>.cls-1,.cls-2,.cls-4,.cls-6{fill:#231f20;}.cls-1,.cls-3{stroke:#231f20;}.cls-1,.cls-6{stroke-miterlimit:10;}.cls-1,.cls-2,.cls-3{stroke-width:2px;}.cls-2{stroke:#000;}.cls-2,.cls-3{stroke-linecap:round;stroke-linejoin:round;}.cls-3,.cls-5{fill:#fff;}.cls-6{stroke:#fff;}</style></defs><title>Hanoi_Tower_Set_5_Final</title><path class="cls-1" d="M687.41,506.49c0-.14,0-0.29,0-0.43s0-.29,0-0.43V453.84H41.6s-0.25,51.74-.25,52.22c0,2.67,2.32,5.24,6.64,7.71,15.13,8.61,55.2,16.11,111,21.48s127.37,8.59,205.39,8.59c89.16,0,169.88-4.21,228.32-11,29.22-3.41,52.87-7.46,69.23-12,8.18-2.25,14.54-4.62,18.86-7.08,3.69-2.1,5.91-4.29,6.48-6.55h0.11v-0.73Z"/><ellipse class="cls-2" cx="364.4" cy="454.92" rx="322.86" ry="37.63"/><path class="cls-3" d="M687.41,455c0-.14,0-0.29,0-0.43s0-.29,0-0.43V402.36H41.6s-0.25,51.74-.25,52.22c0,2.67,2.32,5.24,6.64,7.71,15.13,8.61,55.2,16.11,111,21.48s127.37,8.59,205.39,8.59c89.16,0,169.88-4.21,228.32-11,29.22-3.41,52.87-7.46,69.23-12,8.18-2.25,14.54-4.62,18.86-7.08,3.69-2.1,5.91-4.29,6.48-6.55h0.11V455Z"/><ellipse class="cls-3" cx="364.4" cy="403.44" rx="322.86" ry="37.63"/><path class="cls-3" d="M687.41,403.53c0-.14,0-0.29,0-0.43s0-.29,0-0.43V350.88H41.6s-0.25,51.74-.25,52.22c0,2.67,2.32,5.24,6.64,7.71,15.13,8.61,55.2,16.11,111,21.48s127.37,8.59,205.39,8.59c89.16,0,169.88-4.21,228.32-11,29.22-3.41,52.87-7.46,69.23-12,8.18-2.25,14.54-4.62,18.86-7.08,3.69-2.1,5.91-4.29,6.48-6.55h0.11v-0.73Z"/><ellipse class="cls-3" cx="364.4" cy="351.97" rx="322.86" ry="37.63"/><path class="cls-3" d="M687.41,352.06c0-.14,0-0.29,0-0.43s0-.29,0-0.43V299.4H41.6s-0.25,51.74-.25,52.22c0,2.67,2.32,5.24,6.64,7.71,15.13,8.61,55.2,16.11,111,21.48s127.37,8.59,205.39,8.59c89.16,0,169.88-4.21,228.32-11,29.22-3.41,52.87-7.46,69.23-12,8.18-2.25,14.54-4.62,18.86-7.08,3.69-2.1,5.91-4.29,6.48-6.55h0.11v-0.73Z"/><ellipse class="cls-3" cx="364.4" cy="300.49" rx="322.86" ry="37.63"/><path class="cls-3" d="M687.41,302.06c0-.14,0-0.29,0-0.43s0-.29,0-0.43V249.4H41.6s-0.25,51.74-.25,52.22c0,2.67,2.32,5.24,6.64,7.71,15.13,8.61,55.2,16.11,111,21.48s127.37,8.59,205.39,8.59c89.16,0,169.88-4.21,228.32-11,29.22-3.41,52.87-7.46,69.23-12,8.18-2.25,14.54-4.62,18.86-7.08,3.69-2.1,5.91-4.29,6.48-6.55h0.11v-0.73Z"/><ellipse class="cls-3" cx="364.4" cy="250.49" rx="322.86" ry="37.63"/><path class="cls-3" d="M687.41,251.06c0-.14,0-0.29,0-0.43s0-.29,0-0.43V198.4H41.6s-0.25,51.74-.25,52.22c0,2.67,2.32,5.24,6.64,7.71,15.13,8.61,55.2,16.11,111,21.48s127.37,8.59,205.39,8.59c89.16,0,169.88-4.21,228.32-11,29.22-3.41,52.87-7.46,69.23-12,8.18-2.25,14.54-4.62,18.86-7.08,3.69-2.1,5.91-4.29,6.48-6.55h0.11v-0.73Z"/><ellipse class="cls-3" cx="364.4" cy="199.49" rx="322.86" ry="37.63"/><path class="cls-4" d="M364.4,208.64c-16,0-29-3.75-30.2-8.61h-0.08l0-.5V8.27h60.63V200H394.6C393.37,204.89,380.37,208.64,364.4,208.64Z"/><path class="cls-5" d="M394.22,8.77V199.53h0c-0.49,4.78-13.63,8.61-29.79,8.61s-29.3-3.83-29.79-8.61h0v-0.21s0,0,0-.06,0,0,0-.06V8.77h59.63m1-1H333.59V199.15s0,0.07,0,.11v1.27h0.22c1.05,3,5.66,4.94,9.53,6.06a88,88,0,0,0,42.09,0c3.87-1.12,8.48-3.05,9.53-6.06h0.21l0-1V7.77h0Z"/><ellipse class="cls-6" cx="364.4" cy="8.89" rx="29.81" ry="8.89"/><path class="cls-4" d="M55.43,243.21l2.83,0.45c0-2.58,0-3.86,0-6.44l-2.83-.45v-2.53l5.14,0.81,0.34,1.57H61a4.86,4.86,0,0,1,1.46-1,3.32,3.32,0,0,1,1.92-.21,3.1,3.1,0,0,1,2.16,1.34,6.19,6.19,0,0,1,.79,3.5l-2.68-.41a2.55,2.55,0,0,0-.24-1.24,1,1,0,0,0-.77-0.5,2,2,0,0,0-1.47.23,3.69,3.69,0,0,0-.95.91v4.9l5,0.76v2.53c-4.31-.66-6.46-1-10.77-1.68v-2.53Z"/><path class="cls-4" d="M80.47,248.33a3.34,3.34,0,0,1-.77.43,6.4,6.4,0,0,1-1.1.33,7.79,7.79,0,0,1-1.38.16,8.74,8.74,0,0,1-1.6-.1,8.51,8.51,0,0,1-2.62-.8,6.35,6.35,0,0,1-3.18-3.59,7.67,7.67,0,0,1-.42-2.6,6.27,6.27,0,0,1,.48-2.58,4.3,4.3,0,0,1,1.32-1.7,4.6,4.6,0,0,1,2-.85,7.28,7.28,0,0,1,2.43,0,8.15,8.15,0,0,1,1.8.5,5.88,5.88,0,0,1,1.71,1,5.24,5.24,0,0,1,1.27,1.69,5.61,5.61,0,0,1,.49,2.46,10.51,10.51,0,0,1-.23,2.11l-8.24-1.21a3,3,0,0,0,.31,1.29,3,3,0,0,0,.75.94,3.89,3.89,0,0,0,1.08.63,5.77,5.77,0,0,0,1.29.34,6.42,6.42,0,0,0,2.25,0,4,4,0,0,0,1.43-.57Zm-4.94-8.94a3.63,3.63,0,0,0-1.12,0,2.67,2.67,0,0,0-.95.34,2.11,2.11,0,0,0-.7.68,2.15,2.15,0,0,0-.32,1l5.63,0.83a2.89,2.89,0,0,0-.63-1.91A2.92,2.92,0,0,0,75.53,239.39Z"/><path class="cls-4" d="M94.49,250.43a5.66,5.66,0,0,1-2.2.76,9.31,9.31,0,0,1-2.63,0,8.16,8.16,0,0,1-2.65-.81,6.55,6.55,0,0,1-1.95-1.51,6.29,6.29,0,0,1-1.2-2.09,7.69,7.69,0,0,1-.41-2.54,6,6,0,0,1,.48-2.51A4.44,4.44,0,0,1,85.27,240a4.88,4.88,0,0,1,2-.9,7.52,7.52,0,0,1,2.54,0,10.13,10.13,0,0,1,2.4.63,12.89,12.89,0,0,1,1.72.81v4l-2.52-.35v-2.12a6.92,6.92,0,0,0-1.42-.36,4.14,4.14,0,0,0-1.27,0,2.58,2.58,0,0,0-1.92,1.42,3.26,3.26,0,0,0-.31,1.5,3.85,3.85,0,0,0,.25,1.39,3.9,3.9,0,0,0,.71,1.18,4,4,0,0,0,1.13.88,4.5,4.5,0,0,0,1.5.48,5.09,5.09,0,0,0,2.14-.07,7.35,7.35,0,0,0,1.25-.47Z"/><path class="cls-4" d="M103.29,241.22l4.26,0.56v9l1.74,0.23v2.53l-3.62-.48-0.53-1.77h-0.09a3.34,3.34,0,0,1-1.58,1.24,4.48,4.48,0,0,1-2.34.26,5.66,5.66,0,0,1-1.59-.45,3.45,3.45,0,0,1-1.23-.93,4.17,4.17,0,0,1-.78-1.53,8.22,8.22,0,0,1-.27-2.29c0-1.85,0-2.77,0-4.62L96,242.76v-2.53l4.28,0.58v6.53a3.86,3.86,0,0,0,.45,2.08,1.88,1.88,0,0,0,1.41.81,2.3,2.3,0,0,0,2.48-1.42v-4.9l-1.28-.17v-2.53Z"/><path class="cls-4" d="M110.37,251.13l2.84,0.37c0-2.58,0-3.86,0-6.44l-2.84-.37v-2.53l5.16,0.66,0.34,1.56H116a5.07,5.07,0,0,1,1.47-1.08,3.37,3.37,0,0,1,1.93-.26,3,3,0,0,1,2.17,1.28,6.06,6.06,0,0,1,.79,3.48l-2.68-.33a2.5,2.5,0,0,0-.24-1.24,1,1,0,0,0-.77-0.48,2.08,2.08,0,0,0-1.48.27,3.86,3.86,0,0,0-1,.94c0,2,0,2.94,0,4.9l5,0.62V255c-4.32-.54-6.48-0.81-10.8-1.37v-2.53Z"/><path class="cls-4" d="M133.68,261.41a11.91,11.91,0,0,1-3.12-1.38,10.86,10.86,0,0,1-2.68-2.37,11.39,11.39,0,0,1-1.87-3.35,12.72,12.72,0,0,1-.7-4.36,11.33,11.33,0,0,1,.7-4.18,8.52,8.52,0,0,1,1.87-2.94,7.88,7.88,0,0,1,2.68-1.77,10.37,10.37,0,0,1,3.12-.71l0.55,2.53a8.67,8.67,0,0,0-1.82.44,5.66,5.66,0,0,0-1.94,1.17,6.54,6.54,0,0,0-1.55,2.22,8.8,8.8,0,0,0-.63,3.6,9.08,9.08,0,0,0,.67,3.64,9.26,9.26,0,0,0,1.62,2.57,8.48,8.48,0,0,0,2,1.64,8.9,8.9,0,0,0,1.7.81Z"/><path class="cls-4" d="M142.45,255.23a4.93,4.93,0,0,0,1.4,0,3.1,3.1,0,0,0,1.11-.4,2.08,2.08,0,0,0,.73-0.77,2.28,2.28,0,0,0,.26-1.12,2.63,2.63,0,0,0-1-2.1,5.6,5.6,0,0,0-3-1.06l-0.59-.05-0.63,0-0.71-.06c0-3.37,0-5.05,0-8.42l8.31,0.93c0,1.12,0,1.68,0,2.81l-5.74-.64v3.1l0.37,0,0.31,0,0.26,0a7.14,7.14,0,0,1,2.14.57,5.62,5.62,0,0,1,1.72,1.19,5.28,5.28,0,0,1,1.14,1.75,5.71,5.71,0,0,1,.4,2.15,5,5,0,0,1-.51,2.32,4.21,4.21,0,0,1-1.38,1.56,5.44,5.44,0,0,1-2,.82,8,8,0,0,1-2.46.08,6.46,6.46,0,0,1-1.08-.23q-0.57-.17-1.12-0.38a11.08,11.08,0,0,1-1-.45q-0.47-.24-0.79-0.44l1-2.28a7.77,7.77,0,0,0,1.21.64A5.68,5.68,0,0,0,142.45,255.23Z"/><path class="cls-4" d="M156.23,256.74a4.93,4.93,0,0,0,1.4,0,3.12,3.12,0,0,0,1.11-.41,2.1,2.1,0,0,0,.74-0.77,2.29,2.29,0,0,0,.26-1.12,2.61,2.61,0,0,0-1-2.09,5.57,5.57,0,0,0-3-1l-0.59-.05-0.63,0-0.71-.05c0-3.37,0-5.05,0-8.42l8.32,0.87c0,1.12,0,1.68,0,2.81l-5.74-.6v3.1l0.37,0,0.31,0,0.26,0a7.09,7.09,0,0,1,2.14.56,5.57,5.57,0,0,1,1.72,1.18,5.24,5.24,0,0,1,1.14,1.74,5.68,5.68,0,0,1,.4,2.15,5,5,0,0,1-.51,2.33,4.25,4.25,0,0,1-1.38,1.57,5.49,5.49,0,0,1-2,.84,8,8,0,0,1-2.46.1,6.43,6.43,0,0,1-1.08-.22q-0.57-.17-1.13-0.37a11,11,0,0,1-1-.44q-0.47-.23-0.79-0.43l1-2.29a7.71,7.71,0,0,0,1.21.64A5.66,5.66,0,0,0,156.23,256.74Z"/><path class="cls-4" d="M177.83,256.74l-2.76-.26V261l-2.78-.27c0-1.79,0-2.69,0-4.49l-7-.69v-2l7.29-9,2.46,0.24c0,3.74,0,5.6,0,9.34l2.76,0.26v2.39Zm-5.54-8-4,4.71,4,0.4C172.29,251.78,172.29,250.76,172.29,248.71Z"/><path class="cls-4" d="M191.63,258l-2.76-.24c0,1.79,0,2.69,0,4.49l-2.78-.25c0-1.79,0-2.69,0-4.49l-7-.64v-2l7.29-9,2.46,0.22c0,3.74,0,5.6,0,9.34l2.76,0.24V258Zm-5.54-8-4,4.74,4,0.37V250Z"/><path class="cls-4" d="M193,254.54a13.31,13.31,0,0,1,.44-3.63,6.82,6.82,0,0,1,1.24-2.5,4.54,4.54,0,0,1,1.91-1.39,5.56,5.56,0,0,1,2.47-.31,5.85,5.85,0,0,1,4.48,2.41q1.57,2.16,1.57,6.44a13.43,13.43,0,0,1-.44,3.66,7,7,0,0,1-1.24,2.52,4.49,4.49,0,0,1-1.92,1.41,5.61,5.61,0,0,1-2.48.31,5.7,5.7,0,0,1-4.48-2.53A11.28,11.28,0,0,1,193,254.54Zm3,0.26c0,0.23,0,.45,0,0.66s0,0.42,0,.64l5.57-4.66a2.86,2.86,0,0,0-2.58-2.19,2.23,2.23,0,0,0-2.25,1.22A9,9,0,0,0,196,254.8Zm6.12,0.51c0-.25,0-0.48,0-0.7s0-.44,0-0.66l-5.59,4.66a2.92,2.92,0,0,0,2.58,2.31,2.26,2.26,0,0,0,2.26-1.21A9,9,0,0,0,202.14,255.31Z"/><path class="cls-4" d="M211,262.62a1.46,1.46,0,0,1,.52-1.2,1.77,1.77,0,0,1,1.3-.36,2.47,2.47,0,0,1,1.91,1,3.44,3.44,0,0,1,.64,2.1A4.16,4.16,0,0,1,215,266a4.48,4.48,0,0,1-1,1.39,5.12,5.12,0,0,1-1.44.9,5.51,5.51,0,0,1-1.58.41l-0.62-1.31a6.3,6.3,0,0,0,1.12-.3,4.07,4.07,0,0,0,1-.55,3.17,3.17,0,0,0,.77-0.83,2.28,2.28,0,0,0,.36-1.08,2.94,2.94,0,0,1-1.17-.06,1.94,1.94,0,0,1-.79-0.43,1.68,1.68,0,0,1-.45-0.68A2.47,2.47,0,0,1,211,262.62Z"/><path class="cls-4" d="M232.35,260.65a4.93,4.93,0,0,1-.43,2.06,4.82,4.82,0,0,1-1.16,1.6,5,5,0,0,1-1.76,1,5.63,5.63,0,0,1-2.2.26,6.8,6.8,0,0,1-2.25-.54,5.6,5.6,0,0,1-1.83-1.27,6,6,0,0,1-1.24-2,7.41,7.41,0,0,1-.46-2.7,10,10,0,0,1,.79-4.08,10.36,10.36,0,0,1,2-3.09,9.61,9.61,0,0,1,2.79-2,8.83,8.83,0,0,1,3.06-.86l0.67,2.41a8.49,8.49,0,0,0-2.28.59,7.59,7.59,0,0,0-1.89,1.12,6.82,6.82,0,0,0-1.39,1.53,5.33,5.33,0,0,0-.77,1.81,3.22,3.22,0,0,1,1.38-.88,4.85,4.85,0,0,1,2-.26,5.77,5.77,0,0,1,1.93.47,4.89,4.89,0,0,1,1.55,1.07,5,5,0,0,1,1,1.62A5.64,5.64,0,0,1,232.35,260.65Zm-2.9-.08a2.51,2.51,0,0,0-.75-1.94,3.55,3.55,0,0,0-3.67-.49,2.64,2.64,0,0,0-1.08.89,3.91,3.91,0,0,0-.06.56c0,0.21,0,.37,0,0.49a3.18,3.18,0,0,0,.18,1.07,2.79,2.79,0,0,0,.54.92,2.84,2.84,0,0,0,.86.66,3.07,3.07,0,0,0,1.17.3,2.78,2.78,0,0,0,1-.12,2.7,2.7,0,0,0,.9-0.48,2.41,2.41,0,0,0,.63-0.8A2.35,2.35,0,0,0,229.45,260.57Z"/><path class="cls-4" d="M236.36,268.28a7.48,7.48,0,0,0,1.7-.5,6.59,6.59,0,0,0,2-1.28,7.22,7.22,0,0,0,1.62-2.28,8.2,8.2,0,0,0,.67-3.52,9.64,9.64,0,0,0-.63-3.72,8.39,8.39,0,0,0-1.56-2.5,7.33,7.33,0,0,0-1.95-1.53,10.29,10.29,0,0,0-1.83-.77l0.55-2.43A12.2,12.2,0,0,1,240,251a10.23,10.23,0,0,1,2.69,2.26,10.83,10.83,0,0,1,1.88,3.28,12.34,12.34,0,0,1,.7,4.31,11.61,11.61,0,0,1-.7,4.24,9,9,0,0,1-1.88,3A8.38,8.38,0,0,1,240,270a10.14,10.14,0,0,1-3.13.81Z"/><path class="cls-4" d="M429.43,252.89l9.11-.32c0,1,0,1.52,0,2.53l-6.25.22c0,6.53,0,9.8,0,16.33l6.25-.22V274l-9.11.32C429.43,265.73,429.43,261.45,429.43,252.89Z"/><path class="cls-4" d="M446.2,258.52a1.72,1.72,0,0,1,.51-1.3,2,2,0,0,1,1.34-.53,1.88,1.88,0,0,1,1.38.41,1.59,1.59,0,0,1,.51,1.25,1.77,1.77,0,0,1-.51,1.31,2,2,0,0,1-1.38.54,1.79,1.79,0,0,1-1.34-.43A1.63,1.63,0,0,1,446.2,258.52Zm0,8.33a1.73,1.73,0,0,1,.51-1.3A2,2,0,0,1,448,265a1.88,1.88,0,0,1,1.38.41,1.59,1.59,0,0,1,.51,1.26,1.77,1.77,0,0,1-.51,1.31,2,2,0,0,1-1.38.54,1.79,1.79,0,0,1-1.34-.43A1.62,1.62,0,0,1,446.2,266.85Z"/><path class="cls-4" d="M455.88,265.41l2.86-.13v-6.44l-2.86.13c0-1,0-1.52,0-2.53l5.19-.25,0.35,1.5h0.09a6.57,6.57,0,0,1,1.48-1.34,3.8,3.8,0,0,1,1.94-.6,2.49,2.49,0,0,1,2.18.9,5.36,5.36,0,0,1,.79,3.34l-2.7.14a2.24,2.24,0,0,0-.24-1.19,0.8,0.8,0,0,0-.77-0.34,2.39,2.39,0,0,0-1.49.53,5,5,0,0,0-1,1.11v4.9l5-.25v2.53c-4.34.23-6.51,0.33-10.86,0.53C455.88,266.93,455.88,266.42,455.88,265.41Z"/><path class="cls-4" d="M481.11,265.39a4.46,4.46,0,0,1-.77.59,8,8,0,0,1-1.11.56,8.92,8.92,0,0,1-1.39.45,9.1,9.1,0,0,1-1.61.23,7.67,7.67,0,0,1-2.64-.27,4.78,4.78,0,0,1-3.2-2.94,7.67,7.67,0,0,1,.06-5.2,5.73,5.73,0,0,1,1.32-2,6,6,0,0,1,2-1.25,7.88,7.88,0,0,1,2.44-.52,7.43,7.43,0,0,1,1.81.13,4.66,4.66,0,0,1,1.72.69,3.91,3.91,0,0,1,1.28,1.43,4.93,4.93,0,0,1,.5,2.36,11.14,11.14,0,0,1-.23,2.15l-8.3.47a2.56,2.56,0,0,0,.31,1.23,2.27,2.27,0,0,0,.76.78,3.11,3.11,0,0,0,1.08.41,5.32,5.32,0,0,0,1.3.08,6.93,6.93,0,0,0,2.27-.45,5.18,5.18,0,0,0,1.44-.87Zm-5-7.92a3.92,3.92,0,0,0-1.13.23,3.38,3.38,0,0,0-1,.53,2.84,2.84,0,0,0-.7.82,2.52,2.52,0,0,0-.32,1.07l5.67-.32A2.14,2.14,0,0,0,476.14,257.47Z"/><path class="cls-4" d="M495.21,264.62a7.15,7.15,0,0,1-2.21,1.21,10,10,0,0,1-2.65.53,7.33,7.33,0,0,1-2.66-.27,5,5,0,0,1-2-1.11,4.81,4.81,0,0,1-1.21-1.85,6.94,6.94,0,0,1-.41-2.46,6.69,6.69,0,0,1,.48-2.61,5.92,5.92,0,0,1,1.35-2,6.32,6.32,0,0,1,2-1.31,8.17,8.17,0,0,1,2.56-.56,9.29,9.29,0,0,1,2.42.14,10.73,10.73,0,0,1,1.73.46v4l-2.53.17c0-.85,0-1.27,0-2.12a6.39,6.39,0,0,0-1.43-.07,4.48,4.48,0,0,0-1.28.28,3.39,3.39,0,0,0-1.13.69,3.56,3.56,0,0,0-.81,1.12,3.65,3.65,0,0,0-.31,1.56,3.43,3.43,0,0,0,.25,1.34,2.89,2.89,0,0,0,1.85,1.69,4,4,0,0,0,1.51.17,5.59,5.59,0,0,0,2.15-.51,9.43,9.43,0,0,0,1.26-.73Z"/><path class="cls-4" d="M504.06,253.62l4.28-.31c0,3.2,0,4.8,0,8v1l1.75-.13v2.53l-3.64.27-0.53-1.66h-0.09a4.51,4.51,0,0,1-1.59,1.56,5.39,5.39,0,0,1-4,.62,2.64,2.64,0,0,1-1.23-.67,3.23,3.23,0,0,1-.78-1.37,7.57,7.57,0,0,1-.28-2.24c0-1.85,0-2.77,0-4.62l-1.31.09v-2.53l4.31-.29v6.53a3.37,3.37,0,0,0,.45,2,1.52,1.52,0,0,0,1.42.52,2.67,2.67,0,0,0,1.53-.61,3,3,0,0,0,1-1.31c0-2,0-2.94,0-4.9l-1.29.09v-2.53Z"/><path class="cls-4" d="M511.17,262.07l2.85-.21c0-2.58,0-3.86,0-6.44l-2.85.21V253.1l5.18-.39,0.35,1.49h0.09a6.85,6.85,0,0,1,1.47-1.38,3.88,3.88,0,0,1,1.93-.66,2.42,2.42,0,0,1,2.18.84,5.26,5.26,0,0,1,.79,3.32l-2.69.22a2.2,2.2,0,0,0-.24-1.19,0.78,0.78,0,0,0-.77-0.32,2.45,2.45,0,0,0-1.48.58,5.22,5.22,0,0,0-1,1.13c0,2,0,2.94,0,4.9l5-.39v2.53c-4.34.35-6.5,0.51-10.84,0.84C511.17,263.59,511.17,263.08,511.17,262.07Z"/><path class="cls-4" d="M529.1,261.71a1.72,1.72,0,0,1,.52-1.29,2.05,2.05,0,0,1,1.3-.57,2.09,2.09,0,0,1,1.91.67,3,3,0,0,1,.64,2,4.58,4.58,0,0,1-.4,1.92,5.61,5.61,0,0,1-1,1.56,6.56,6.56,0,0,1-3,1.8l-0.62-1.21a7.3,7.3,0,0,0,1.12-.48,5.08,5.08,0,0,0,1-.72,4,4,0,0,0,.77-1,2.63,2.63,0,0,0,.36-1.13,3,3,0,0,1-1.17.13,1.62,1.62,0,0,1-.79-0.3,1.34,1.34,0,0,1-.45-0.61A2.26,2.26,0,0,1,529.1,261.71Z"/><path class="cls-4" d="M540,246.14l9.08-.83v2.53l-6.23.58c0,6.53,0,9.8,0,16.33l6.23-.58c0,1,0,1.52,0,2.53l-9.08.83C540,259,540,254.7,540,246.14Z"/><path class="cls-4" d="M557.14,258.31a5.31,5.31,0,0,0,1.4-.32,3.94,3.94,0,0,0,1.12-.64,2.83,2.83,0,0,0,.73-0.92,2.6,2.6,0,0,0,.26-1.18,2.08,2.08,0,0,0-1-1.89,4.84,4.84,0,0,0-3-.43l-0.59.07-0.63.1-0.71.09c0-3.37,0-5.05,0-8.42l8.32-.82c0,1.12,0,1.68,0,2.81l-5.75.57v3.1l0.37-.06,0.31,0,0.26,0a6.46,6.46,0,0,1,2.14.12,4.29,4.29,0,0,1,1.72.83,4,4,0,0,1,1.14,1.51,5.09,5.09,0,0,1,.4,2.06,5.65,5.65,0,0,1-.51,2.43,5.72,5.72,0,0,1-1.38,1.85,7,7,0,0,1-2,1.25,8.7,8.7,0,0,1-2.46.6,6.06,6.06,0,0,1-1.08,0q-0.57,0-1.13-.14a9.3,9.3,0,0,1-1-.24c-0.31-.09-0.58-0.18-0.79-0.27l1-2.49a6.18,6.18,0,0,0,1.21.39A5.13,5.13,0,0,0,557.14,258.31Z"/><path class="cls-4" d="M570.93,256.91a5.34,5.34,0,0,0,1.4-.33,4,4,0,0,0,1.11-.65,2.86,2.86,0,0,0,.73-0.93,2.62,2.62,0,0,0,.26-1.18,2.06,2.06,0,0,0-1-1.88,4.82,4.82,0,0,0-3-.41l-0.59.07-0.63.1-0.71.1c0-3.37,0-5.05,0-8.42l8.32-.88c0,1.12,0,1.68,0,2.81l-5.74.61V249l0.37-.06,0.31,0,0.26,0a6.44,6.44,0,0,1,2.14.11,4.25,4.25,0,0,1,1.72.82,3.9,3.9,0,0,1,1.14,1.5,5.07,5.07,0,0,1,.4,2.06,5.68,5.68,0,0,1-.51,2.43,5.78,5.78,0,0,1-1.38,1.86,7.09,7.09,0,0,1-2,1.26,8.73,8.73,0,0,1-2.46.62,6.07,6.07,0,0,1-1.08,0q-0.57,0-1.13-.14a9.08,9.08,0,0,1-1-.23q-0.47-.13-0.79-0.26l1-2.49a6.14,6.14,0,0,0,1.21.38A5.13,5.13,0,0,0,570.93,256.91Z"/><path class="cls-4" d="M592.51,252.36l-2.76.32c0,1.79,0,2.69,0,4.49l-2.78.32c0-1.79,0-2.69,0-4.49l-7,.78c0-.82,0-1.23,0-2l7.28-10.5,2.46-.28c0,3.74,0,5.6,0,9.34l2.76-.32C592.52,250.92,592.52,251.4,592.51,252.36ZM587,245.5l-4,5.56,4-.45C587,248.56,587,247.54,587,245.5Z"/><path class="cls-4" d="M606.28,250.71l-2.75.34c0,1.79,0,2.69,0,4.49l-2.78.34c0-1.79,0-2.69,0-4.49l-7,.83v-2l7.28-10.55,2.46-.3c0,3.74,0,5.6,0,9.34l2.75-.34v2.39Zm-5.53-6.82-4,5.58,4-.48v-5.11Z"/><path class="cls-4" d="M607.68,246.95a14.41,14.41,0,0,1,.44-3.72,8.71,8.71,0,0,1,1.23-2.76,6.13,6.13,0,0,1,1.9-1.79,6.33,6.33,0,0,1,2.46-.83,4.7,4.7,0,0,1,4.47,1.46q1.56,1.83,1.56,6.11a14.51,14.51,0,0,1-.44,3.75,8.91,8.91,0,0,1-1.23,2.78,6.08,6.08,0,0,1-1.91,1.81,6.38,6.38,0,0,1-2.47.83,4.55,4.55,0,0,1-4.47-1.59Q607.68,251,607.68,246.95Zm3-.37c0,0.23,0,.45,0,0.65s0,0.42,0,.63l5.55-5.83a2.21,2.21,0,0,0-2.57-1.65,2.88,2.88,0,0,0-2.24,1.7A10.09,10.09,0,0,0,610.66,246.58Zm6.1-.78q0-.37,0-0.7c0-.22,0-0.44,0-0.65l-5.57,5.84a2.25,2.25,0,0,0,2.57,1.77,2.91,2.91,0,0,0,2.25-1.69A10.12,10.12,0,0,0,616.76,245.8Z"/><path class="cls-4" d="M625.57,251.25a1.81,1.81,0,0,1,.52-1.31,2.16,2.16,0,0,1,1.3-.63,2,2,0,0,1,1.9.57,2.89,2.89,0,0,1,.64,2,4.73,4.73,0,0,1-.4,1.94,6,6,0,0,1-1,1.61,6.82,6.82,0,0,1-1.43,1.21,6.65,6.65,0,0,1-1.57.74l-0.62-1.18a7.63,7.63,0,0,0,1.11-.54,5.41,5.41,0,0,0,1-.77,4.34,4.34,0,0,0,.77-1,2.74,2.74,0,0,0,.36-1.15,3,3,0,0,1-1.17.19,1.54,1.54,0,0,1-.79-0.26,1.25,1.25,0,0,1-.45-0.58A2.21,2.21,0,0,1,625.57,251.25Z"/><path class="cls-4" d="M646.82,244.77a5.6,5.6,0,0,1-.42,2.15,6.41,6.41,0,0,1-1.16,1.85,6.57,6.57,0,0,1-1.75,1.38,6.37,6.37,0,0,1-2.19.73,6.2,6.2,0,0,1-2.23-.06,4.23,4.23,0,0,1-1.82-.88,4.47,4.47,0,0,1-1.24-1.74,6.68,6.68,0,0,1-.46-2.6,11.34,11.34,0,0,1,.79-4.25,13.74,13.74,0,0,1,2-3.51,13,13,0,0,1,2.77-2.6,10.79,10.79,0,0,1,3-1.5l0.66,2.27a10.3,10.3,0,0,0-2.27,1.07,10.14,10.14,0,0,0-1.88,1.52,9.3,9.3,0,0,0-1.39,1.83,6.64,6.64,0,0,0-.77,2,4.32,4.32,0,0,1,1.37-1.17,5.52,5.52,0,0,1,2-.69,5.25,5.25,0,0,1,1.92.06,3.57,3.57,0,0,1,2.58,2.15A5.07,5.07,0,0,1,646.82,244.77Zm-2.88.53a2,2,0,0,0-.74-1.78,2.68,2.68,0,0,0-2-.36,3.73,3.73,0,0,0-1.65.65,3.59,3.59,0,0,0-1.08,1.12,4.11,4.11,0,0,0-.06.57q0,0.31,0,.5a2.88,2.88,0,0,0,.18,1,2.06,2.06,0,0,0,1.4,1.29,2.76,2.76,0,0,0,1.17.05,3.13,3.13,0,0,0,1-.34,3.54,3.54,0,0,0,.89-0.67,3.24,3.24,0,0,0,.63-0.93A2.71,2.71,0,0,0,643.94,245.3Z"/><path class="cls-4" d="M659.66,253.16l-9,1.35c0-1,0-1.52,0-2.53l6.2-.92c0-6.53,0-9.8,0-16.33l-6.2.92c0-1,0-1.52,0-2.53l9-1.34C659.66,240.32,659.66,244.6,659.66,253.16Z"/><path class="cls-4" d="M673.38,251l-9,1.41c0-1,0-1.52,0-2.53l6.2-1c0-6.53,0-9.8,0-16.33l-6.2,1c0-1,0-1.52,0-2.53l9-1.41C673.38,238.2,673.38,242.48,673.38,251Z"/><path class="cls-4" d="M55.78,298.68v-2.53l2.7,0.43c0-2.58,0-3.86,0-6.44l-2.72-.43v-2.53l2.72,0.43V287a3.87,3.87,0,0,1,.38-1.8,3,3,0,0,1,1-1.13,3.42,3.42,0,0,1,1.43-.53,5.72,5.72,0,0,1,1.68,0,11.54,11.54,0,0,1,2.6.66,7.87,7.87,0,0,1,1.68.91l-0.87,2.14a12.3,12.3,0,0,0-1.13-.63,5.45,5.45,0,0,0-1.57-.45,2,2,0,0,0-1.73.3,2.21,2.21,0,0,0-.49,1.61l4.8,0.74v2.53l-4.8-.74c0,2.58,0,3.86,0,6.44l4.82,0.74v2.53C62.08,299.67,60,299.35,55.78,298.68Z"/><path class="cls-4" d="M69.94,290.15a11.2,11.2,0,0,1,2.12-.39,11.8,11.8,0,0,1,2.85.13,6.9,6.9,0,0,1,2,.59,4.14,4.14,0,0,1,1.35,1,3.74,3.74,0,0,1,.74,1.37,5.92,5.92,0,0,1,.23,1.69q0,1.17-.08,2c-0.05.54-.08,1-0.08,1.46a10.06,10.06,0,0,0,0,1.09c0,0.21.05,0.43,0.07,0.63l1.49,0.22v2.53l-3.84-.56-0.3-1.61-0.11,0a3.19,3.19,0,0,1-1.3,1,4,4,0,0,1-2.27.18,4.47,4.47,0,0,1-2.71-1.33,3.65,3.65,0,0,1-1-2.59,3.35,3.35,0,0,1,.35-1.61,2.39,2.39,0,0,1,1-1,4.23,4.23,0,0,1,1.61-.42,9.24,9.24,0,0,1,2.1.09q0.41,0.06.86,0.17l1.11,0.26a2.28,2.28,0,0,0,0-.45v-0.44a1.7,1.7,0,0,0-.5-1.33,2.76,2.76,0,0,0-1.48-.6,6.62,6.62,0,0,0-2.09,0,11.76,11.76,0,0,0-1.57.36Zm3.89,9a2.52,2.52,0,0,0,1.63-.16,2.17,2.17,0,0,0,.79-0.75v-1.38l-0.68-.2a8.29,8.29,0,0,0-1-.2,4.63,4.63,0,0,0-.86,0,2.55,2.55,0,0,0-.77.14,1.21,1.21,0,0,0-.54.37,1,1,0,0,0-.2.64,1.51,1.51,0,0,0,.37,1.06A2,2,0,0,0,73.83,299.18Z"/><path class="cls-4" d="M94.11,303.26a5.66,5.66,0,0,1-2.2.76,9.31,9.31,0,0,1-2.63,0,8.16,8.16,0,0,1-2.65-.81,6.56,6.56,0,0,1-1.95-1.51,6.3,6.3,0,0,1-1.2-2.09,7.69,7.69,0,0,1-.41-2.54,6,6,0,0,1,.48-2.51,4.43,4.43,0,0,1,1.34-1.72,4.87,4.87,0,0,1,2-.9,7.52,7.52,0,0,1,2.54,0,10.14,10.14,0,0,1,2.4.64,13,13,0,0,1,1.72.81c0,1.62,0,2.43,0,4L91.06,297v-2.12a6.9,6.9,0,0,0-1.42-.36,4.15,4.15,0,0,0-1.27,0A2.58,2.58,0,0,0,86.45,296a3.25,3.25,0,0,0-.31,1.5,3.85,3.85,0,0,0,.25,1.39A3.85,3.85,0,0,0,88.24,301a4.48,4.48,0,0,0,1.5.48,5.09,5.09,0,0,0,2.14-.07,7.32,7.32,0,0,0,1.25-.47Z"/><path class="cls-4" d="M98,295.93l-2.27-.31v-2.53L98,293.4v-2.62l3-.45v3.47l6,0.8v2.53l-6-.8v3.29a4.39,4.39,0,0,0,.66,2.65,2.66,2.66,0,0,0,1.86,1,3.83,3.83,0,0,0,1.12,0,3.75,3.75,0,0,0,.91-0.26,4.34,4.34,0,0,0,.73-0.41l0.61-.43,1.38,2.25a3.67,3.67,0,0,1-1,.71,7.13,7.13,0,0,1-1.26.5,7.24,7.24,0,0,1-1.41.26,6.58,6.58,0,0,1-1.44,0,5.68,5.68,0,0,1-3.86-2A7.45,7.45,0,0,1,98,299.22C98,297.91,98,297.25,98,295.93Z"/><path class="cls-4" d="M109.9,300.74a6.65,6.65,0,0,1,.44-2.52,4.42,4.42,0,0,1,1.24-1.75,4.51,4.51,0,0,1,1.92-.94,7,7,0,0,1,2.49-.08,7.79,7.79,0,0,1,2.58.76,6.35,6.35,0,0,1,1.92,1.47,6.08,6.08,0,0,1,1.18,2.07,7.8,7.8,0,0,1,.4,2.53,6.68,6.68,0,0,1-.44,2.52,4.45,4.45,0,0,1-1.24,1.76,4.5,4.5,0,0,1-1.91.94,7,7,0,0,1-2.49.09,7.74,7.74,0,0,1-2.58-.77,6.36,6.36,0,0,1-1.91-1.48,6.11,6.11,0,0,1-1.18-2.07A7.82,7.82,0,0,1,109.9,300.74Zm3.07,0.4a4.85,4.85,0,0,0,.21,1.43,4,4,0,0,0,.6,1.2,3.25,3.25,0,0,0,.94.87,3.16,3.16,0,0,0,1.26.43,2.61,2.61,0,0,0,2.17-.58,3.34,3.34,0,0,0,.84-2.59,4.42,4.42,0,0,0-.78-2.66A3.1,3.1,0,0,0,116,298a3.42,3.42,0,0,0-1.19,0,2,2,0,0,0-1,.51,2.61,2.61,0,0,0-.63,1A4.71,4.71,0,0,0,113,301.13Z"/><path class="cls-4" d="M123.75,305.71l2.85,0.35c0-2.58,0-3.86,0-6.44l-2.85-.35v-2.53l5.16,0.63,0.34,1.56h0.09a5.1,5.1,0,0,1,1.47-1.09,3.39,3.39,0,0,1,1.93-.28,3,3,0,0,1,2.17,1.27,6,6,0,0,1,.79,3.47L133,302a2.49,2.49,0,0,0-.24-1.24,1,1,0,0,0-.77-0.47,2.08,2.08,0,0,0-1.48.28,3.9,3.9,0,0,0-1,.94c0,2,0,2.94,0,4.9l5,0.59v2.53c-4.32-.51-6.49-0.77-10.81-1.3v-2.53Z"/><path class="cls-4" d="M138,307.4l4,0.46c0-2.58,0-3.86,0-6.44l-4-.46c0-1,0-1.52,0-2.53l7,0.8c0,3.59,0,5.38,0,9l4.25,0.47v2.53c-4.51-.49-6.77-0.75-11.27-1.27C138,308.92,138,308.42,138,307.4Zm3.49-11.7a1.44,1.44,0,0,1,.53-1.16,1.86,1.86,0,0,1,1.47-.34,2.5,2.5,0,0,1,1.54.68,1.76,1.76,0,0,1,.57,1.28,1.32,1.32,0,0,1-.57,1.14,2.17,2.17,0,0,1-1.54.3A2.37,2.37,0,0,1,142,297,1.73,1.73,0,0,1,141.47,295.71Z"/><path class="cls-4" d="M152.47,300.84a11.55,11.55,0,0,1,2.13-.48,11.87,11.87,0,0,1,2.86,0,6.74,6.74,0,0,1,2,.5,3.91,3.91,0,0,1,1.36,1,3.55,3.55,0,0,1,.75,1.34,5.79,5.79,0,0,1,.23,1.68q0,1.17-.08,2c-0.05.54-.08,1-0.08,1.46a10,10,0,0,0,0,1.09c0,0.21.05,0.43,0.07,0.63l1.49,0.15v2.53l-3.86-.4-0.3-1.6H159a3.4,3.4,0,0,1-1.3,1.09,4.1,4.1,0,0,1-2.28.28,4.29,4.29,0,0,1-2.72-1.21,3.5,3.5,0,0,1-1-2.55,3.43,3.43,0,0,1,.35-1.63,2.55,2.55,0,0,1,1-1,4.41,4.41,0,0,1,1.62-.49,9.29,9.29,0,0,1,2.11,0c0.27,0,.56.08,0.87,0.14l1.12,0.21a2.3,2.3,0,0,0,0-.46V304.6a1.63,1.63,0,0,0-.5-1.31,2.67,2.67,0,0,0-1.48-.54,6.7,6.7,0,0,0-2.1.08,12.24,12.24,0,0,0-1.57.43Zm3.91,8.86a2.58,2.58,0,0,0,1.64-.23,2.32,2.32,0,0,0,.8-0.78v-1.38l-0.68-.18a8.11,8.11,0,0,0-1-.16,4.64,4.64,0,0,0-.86,0,2.64,2.64,0,0,0-.77.17,1.29,1.29,0,0,0-.55.39,1,1,0,0,0-.2.65,1.45,1.45,0,0,0,.37,1A1.94,1.94,0,0,0,156.38,309.69Z"/><path class="cls-4" d="M166.19,296.89l4.9,0.49c0,4.25,0,6.38,0,10.63a5.19,5.19,0,0,0,.44,2.5,1.72,1.72,0,0,0,1.4.83,3.77,3.77,0,0,0,1.17,0A4,4,0,0,0,175,311l1.13,2.18q-0.39.22-.78,0.4a4.58,4.58,0,0,1-.83.29,5.33,5.33,0,0,1-1,.14,7.53,7.53,0,0,1-1.16,0,4.78,4.78,0,0,1-3.24-1.42,4.68,4.68,0,0,1-1.08-3.24v-9.66l-1.91-.19C166.19,298.41,166.19,297.9,166.19,296.89Z"/><path class="cls-4" d="M179.77,317c4.08,0.38,6.13.57,10.21,0.93,0,1,0,1.48,0,2.46-4.09-.36-6.13-0.55-10.21-0.93V317Z"/><path class="cls-4" d="M191.78,299.3l4.65,0.4c0,2.36,0,3.53,0,5.89h0.09a3.45,3.45,0,0,1,1.47-1,4.82,4.82,0,0,1,2.16-.26,5.64,5.64,0,0,1,1.61.36,3.41,3.41,0,0,1,1.27.86,4,4,0,0,1,.83,1.51,7.5,7.5,0,0,1,.3,2.27c0,2.86,0,4.29,0,7.15l-3-.25c0-2.61,0-3.92,0-6.53a3,3,0,0,0-.6-2.07,2.27,2.27,0,0,0-1.57-.75,2.44,2.44,0,0,0-1.56.39,2.5,2.5,0,0,0-1,1.24c0,2.93,0,4.4,0,7.34l-3-.26c0-5.43,0-8.14,0-13.57l-1.66-.14V299.3Z"/><path class="cls-4" d="M217.88,316.3a3.72,3.72,0,0,1-.77.48,6.89,6.89,0,0,1-1.11.41,8.1,8.1,0,0,1-1.39.26,8.81,8.81,0,0,1-1.61,0,8.15,8.15,0,0,1-2.64-.62,5.77,5.77,0,0,1-3.2-3.37,7.37,7.37,0,0,1-.43-2.58,6.47,6.47,0,0,1,.48-2.62,4.76,4.76,0,0,1,1.32-1.79,5,5,0,0,1,2-1,7.43,7.43,0,0,1,2.44-.19,7.86,7.86,0,0,1,1.81.37,5.42,5.42,0,0,1,1.72.92,4.76,4.76,0,0,1,1.28,1.6,5.36,5.36,0,0,1,.49,2.43,10.68,10.68,0,0,1-.23,2.12l-8.29-.63a2.81,2.81,0,0,0,.31,1.27,2.75,2.75,0,0,0,.76.89,3.59,3.59,0,0,0,1.08.56,5.58,5.58,0,0,0,1.3.25,6.56,6.56,0,0,0,2.27-.15,4.38,4.38,0,0,0,1.44-.67Zm-5-8.59a3.7,3.7,0,0,0-1.13.08,2.88,2.88,0,0,0-1,.41,2.35,2.35,0,0,0-.7.73,2.27,2.27,0,0,0-.32,1l5.66,0.44A2.48,2.48,0,0,0,212.91,307.71Z"/><path class="cls-4" d="M221.4,301.68l4.9,0.35c0,4.25,0,6.38,0,10.63a5.11,5.11,0,0,0,.44,2.49,1.66,1.66,0,0,0,1.41.79,3.8,3.8,0,0,0,1.17-.07,4.16,4.16,0,0,0,.92-0.36l1.13,2.15q-0.39.23-.78,0.42a4.71,4.71,0,0,1-.83.31,5.39,5.39,0,0,1-1,.16,7.53,7.53,0,0,1-1.16,0,4.65,4.65,0,0,1-3.25-1.33,4.56,4.56,0,0,1-1.08-3.21c0-3.86,0-5.8,0-9.66l-1.91-.14C221.4,303.2,221.4,302.69,221.4,301.68Z"/><path class="cls-4" d="M233.21,307.1l3.92,0.26,0.35,1.4h0.09a4.14,4.14,0,0,1,3.87-1.46,5.69,5.69,0,0,1,1.95.45,4.14,4.14,0,0,1,1.52,1.14,5.31,5.31,0,0,1,1,1.85,8.81,8.81,0,0,1,.35,2.62,8.21,8.21,0,0,1-.39,2.63,5.22,5.22,0,0,1-1.13,1.94,4.45,4.45,0,0,1-1.8,1.15,6.11,6.11,0,0,1-2.42.29,9.72,9.72,0,0,1-1.4-.19,4.1,4.1,0,0,1-1.15-.41c0,1.89,0,2.83,0,4.71l-3-.19c0-5.43,0-8.14,0-13.57l-1.73-.11C233.22,308.62,233.22,308.12,233.21,307.1Zm7.33,2.68a2.92,2.92,0,0,0-1.6.34,2.08,2.08,0,0,0-1,1.25c0,1.91,0,2.87,0,4.78a2.64,2.64,0,0,0,.93.46,5.3,5.3,0,0,0,1.23.23,3.14,3.14,0,0,0,1.2-.14,2.26,2.26,0,0,0,1-.64,3.15,3.15,0,0,0,.64-1.18,5.83,5.83,0,0,0,.23-1.76,3.59,3.59,0,0,0-.74-2.39A2.56,2.56,0,0,0,240.54,309.79Z"/><path class="cls-4" d="M259.34,319a3.8,3.8,0,0,1-.77.5,7.06,7.06,0,0,1-1.11.44,8.21,8.21,0,0,1-1.39.29,8.86,8.86,0,0,1-1.61,0,8.07,8.07,0,0,1-2.64-.56,5.6,5.6,0,0,1-3.2-3.3,7.29,7.29,0,0,1-.43-2.57,6.54,6.54,0,0,1,.48-2.63,4.9,4.9,0,0,1,1.32-1.82,5.16,5.16,0,0,1,2-1,7.49,7.49,0,0,1,2.44-.24,7.77,7.77,0,0,1,1.81.33,5.29,5.29,0,0,1,1.72.89,4.6,4.6,0,0,1,1.28,1.58,5.28,5.28,0,0,1,.5,2.42,10.75,10.75,0,0,1-.23,2.13l-8.3-.46a2.77,2.77,0,0,0,.31,1.26,2.68,2.68,0,0,0,.76.87,3.51,3.51,0,0,0,1.08.53,5.53,5.53,0,0,0,1.3.22,6.6,6.6,0,0,0,2.27-.2,4.49,4.49,0,0,0,1.44-.7Zm-5-8.48a3.74,3.74,0,0,0-1.13.1,3,3,0,0,0-1,.43,2.41,2.41,0,0,0-.7.74,2.3,2.3,0,0,0-.32,1l5.67,0.32A2.42,2.42,0,0,0,254.36,310.47Z"/><path class="cls-4" d="M261.76,317.77l2.86,0.15v-6.44l-2.86-.15c0-1,0-1.52,0-2.53l5.19,0.26,0.35,1.53h0.09a5.68,5.68,0,0,1,1.48-1.19,3.53,3.53,0,0,1,1.94-.41,2.76,2.76,0,0,1,2.18,1.11,5.74,5.74,0,0,1,.79,3.42l-2.7-.13a2.38,2.38,0,0,0-.24-1.22,0.9,0.9,0,0,0-.77-0.42,2.2,2.2,0,0,0-1.49.39,4.33,4.33,0,0,0-1,1c0,2,0,2.94,0,4.9l5,0.24v2.53c-4.34-.2-6.51-0.31-10.86-0.54C261.76,319.29,261.76,318.78,261.76,317.77Z"/><path class="cls-4" d="M285.18,326.25a11.08,11.08,0,0,1-3.14-1.14,9.72,9.72,0,0,1-2.7-2.16,10.3,10.3,0,0,1-1.88-3.21,12.2,12.2,0,0,1-.7-4.31,11.71,11.71,0,0,1,.7-4.24,9.44,9.44,0,0,1,1.88-3.08,8.8,8.8,0,0,1,2.7-2,11.06,11.06,0,0,1,3.14-1l0.55,2.48a9.29,9.29,0,0,0-1.83.58,6.32,6.32,0,0,0-1.95,1.32,7.28,7.28,0,0,0-1.56,2.34,9.12,9.12,0,0,0-.63,3.65,8.69,8.69,0,0,0,.67,3.59,8.36,8.36,0,0,0,1.63,2.45,7.6,7.6,0,0,0,2,1.48,8.22,8.22,0,0,0,1.71.68Z"/><path class="cls-4" d="M290.88,321.6l6.64-13.15-7.52-.27v-2.71c4.21,0.16,6.31.23,10.52,0.37,0,0.9,0,1.35,0,2.25l-6.71,13.62Z"/><path class="cls-4" d="M303.61,311a5.57,5.57,0,0,1,.4-2.15,4.67,4.67,0,0,1,1.13-1.66,5.05,5.05,0,0,1,1.75-1.05,6.18,6.18,0,0,1,2.29-.34,6.88,6.88,0,0,1,2.35.46,5.1,5.1,0,0,1,1.82,1.21,5.39,5.39,0,0,1,1.18,1.94A7.69,7.69,0,0,1,315,312a13.52,13.52,0,0,1-.69,4.58,9.2,9.2,0,0,1-1.86,3.17,7.73,7.73,0,0,1-2.71,1.91,10.49,10.49,0,0,1-3.23.78l-0.65-2.37a7.85,7.85,0,0,0,2.29-.55,6.66,6.66,0,0,0,1.79-1.09,5.72,5.72,0,0,0,1.24-1.51,5.1,5.1,0,0,0,.62-1.83,3.34,3.34,0,0,1-1.25.74,5.09,5.09,0,0,1-1.82.24h0a5.68,5.68,0,0,1-1.78-.35,5,5,0,0,1-2.81-2.56A4.93,4.93,0,0,1,303.61,311Zm2.91-.07a2.6,2.6,0,0,0,.24,1.15,2.63,2.63,0,0,0,.63.85,2.79,2.79,0,0,0,.91.53,3.42,3.42,0,0,0,1.07.2,4,4,0,0,0,1.64-.25,2.32,2.32,0,0,0,1-.71,6.46,6.46,0,0,0,.07-0.92,4.49,4.49,0,0,0-.18-1.27,3.52,3.52,0,0,0-.55-1.12,2.85,2.85,0,0,0-.92-0.8,2.77,2.77,0,0,0-1.27-.32A2.47,2.47,0,0,0,306.51,310.9Z"/><path class="cls-4" d="M328.27,322.64c-4.12-.08-6.17-0.12-10.29-0.22v-2.23c0.18-.15.41-0.35,0.69-0.59l0.93-.84q0.52-.47,1.1-1t1.13-1.17q0.78-.86,1.37-1.56a11,11,0,0,0,1-1.33,5.41,5.41,0,0,0,.57-1.23,4.24,4.24,0,0,0,.19-1.25,2.1,2.1,0,0,0-.21-0.9,2.53,2.53,0,0,0-.58-0.78,2.84,2.84,0,0,0-.89-0.55,3.24,3.24,0,0,0-1.14-.22,4.28,4.28,0,0,0-1.51.22,5,5,0,0,0-1.42.82l-1.2-2.14a9.89,9.89,0,0,1,2.16-1.11,7.31,7.31,0,0,1,2.73-.41,6.63,6.63,0,0,1,1.9.31,5.15,5.15,0,0,1,1.61.85,4,4,0,0,1,1.53,3.24,6.94,6.94,0,0,1-.13,1.37,6.57,6.57,0,0,1-.39,1.26,8.33,8.33,0,0,1-.69,1.29q-0.43.66-1,1.43-0.46.59-1,1.19t-1.07,1.14q-0.53.54-1,1t-0.93.78l6.64,0.13C328.27,321.12,328.27,321.63,328.27,322.64Z"/><path class="cls-4" d="M330.92,314.61a13.63,13.63,0,0,1,.44-3.66,7.41,7.41,0,0,1,1.24-2.59,5,5,0,0,1,1.91-1.52,5.76,5.76,0,0,1,2.48-.48,5.43,5.43,0,0,1,4.49,2.09q1.57,2.05,1.57,6.33a13.72,13.72,0,0,1-.44,3.69,7.58,7.58,0,0,1-1.24,2.61,5,5,0,0,1-1.92,1.54,5.82,5.82,0,0,1-2.49.48,5.28,5.28,0,0,1-4.49-2.22A10.72,10.72,0,0,1,330.92,314.61Zm3,0c0,0.23,0,.45,0,0.66s0,0.42,0,.63l5.58-5.05a2.63,2.63,0,0,0-2.58-2,2.42,2.42,0,0,0-2.25,1.38A9.31,9.31,0,0,0,333.92,314.66Zm6.14,0.09q0-.37,0-0.7c0-.22,0-0.44,0-0.66l-5.61,5.05a2.68,2.68,0,0,0,2.59,2.13,2.45,2.45,0,0,0,2.27-1.37A9.32,9.32,0,0,0,340.05,314.75Z"/><path class="cls-4" d="M348.91,321.44a1.56,1.56,0,0,1,.52-1.24,1.88,1.88,0,0,1,1.3-.45,2.3,2.3,0,0,1,1.92.84,3.25,3.25,0,0,1,.65,2.05,4.33,4.33,0,0,1-.4,1.88,4.94,4.94,0,0,1-1.05,1.47,5.62,5.62,0,0,1-1.44,1,5.83,5.83,0,0,1-1.58.52l-0.62-1.27a6.68,6.68,0,0,0,1.12-.38,4.48,4.48,0,0,0,1-.62,3.54,3.54,0,0,0,.77-0.88,2.42,2.42,0,0,0,.36-1.1,3,3,0,0,1-1.18,0,1.8,1.8,0,0,1-.8-0.37,1.52,1.52,0,0,1-.45-0.65A2.36,2.36,0,0,1,348.91,321.44Z"/><path class="cls-4" d="M360.08,323l6.64-13.38H359.2c0-1.09,0-1.63,0-2.71,4.21,0,6.31,0,10.52,0,0,0.9,0,1.35,0,2.25L363,323h-2.93Z"/><path class="cls-4" d="M374.34,325.31a8,8,0,0,0,1.71-.62,7.27,7.27,0,0,0,2-1.42,8,8,0,0,0,1.63-2.39,8.52,8.52,0,0,0,.67-3.57,9.29,9.29,0,0,0-.63-3.68,7.64,7.64,0,0,0-1.56-2.39,6.64,6.64,0,0,0-1.95-1.39,9.6,9.6,0,0,0-1.83-.65l0.55-2.46a11.42,11.42,0,0,1,3.14,1.06,9.26,9.26,0,0,1,2.7,2.07,9.88,9.88,0,0,1,1.88,3.15,13.33,13.33,0,0,1,0,8.55,9.85,9.85,0,0,1-1.88,3.14,9.26,9.26,0,0,1-2.7,2.07,10.76,10.76,0,0,1-3.14,1Z"/><path class="cls-4" d="M483.15,316.86l2.86-.17v-6.44l-2.86.17v-2.53l5.18-.32,0.35,1.5h0.09a6.7,6.7,0,0,1,1.48-1.36,3.84,3.84,0,0,1,1.93-.63,2.45,2.45,0,0,1,2.18.87,5.31,5.31,0,0,1,.79,3.33l-2.69.18a2.22,2.22,0,0,0-.24-1.19,0.79,0.79,0,0,0-.77-0.33,2.42,2.42,0,0,0-1.49.56,5.11,5.11,0,0,0-1,1.12v4.9l5-.32v2.53c-4.34.29-6.51,0.42-10.85,0.68v-2.53Z"/><path class="cls-4" d="M508.37,316.49a4.53,4.53,0,0,1-.77.6,8.11,8.11,0,0,1-1.11.58,9.11,9.11,0,0,1-1.39.47,9.22,9.22,0,0,1-1.61.25,7.62,7.62,0,0,1-2.64-.23,4.69,4.69,0,0,1-3.2-2.9,6.86,6.86,0,0,1-.43-2.51,7,7,0,0,1,.48-2.69,5.84,5.84,0,0,1,1.32-2,6.07,6.07,0,0,1,2-1.27,8,8,0,0,1,2.44-.55,7.43,7.43,0,0,1,1.81.1A4.59,4.59,0,0,1,507,307a3.83,3.83,0,0,1,1.28,1.41,4.89,4.89,0,0,1,.5,2.36,11.2,11.2,0,0,1-.23,2.16l-8.29.59a2.53,2.53,0,0,0,.31,1.22,2.21,2.21,0,0,0,.76.77,3,3,0,0,0,1.08.4,5.31,5.31,0,0,0,1.3.06,7,7,0,0,0,2.27-.48,5.27,5.27,0,0,0,1.44-.89Zm-5-7.85a4,4,0,0,0-1.13.24,3.43,3.43,0,0,0-1,.55,2.9,2.9,0,0,0-.7.83,2.55,2.55,0,0,0-.32,1.08l5.67-.4A2.1,2.1,0,0,0,503.4,308.64Z"/><path class="cls-4" d="M522.46,315.52a7.27,7.27,0,0,1-2.21,1.25,10.07,10.07,0,0,1-2.65.56,7.29,7.29,0,0,1-2.66-.23,4.91,4.91,0,0,1-2-1.08,4.72,4.72,0,0,1-1.21-1.83,6.9,6.9,0,0,1-.41-2.45,6.75,6.75,0,0,1,.48-2.61,6,6,0,0,1,1.35-2,6.44,6.44,0,0,1,2-1.34,8.23,8.23,0,0,1,2.55-.6,9.27,9.27,0,0,1,2.42.11,10.58,10.58,0,0,1,1.73.44v4l-2.53.2v-2.12a6.39,6.39,0,0,0-1.43,0,4.52,4.52,0,0,0-1.28.29,3.45,3.45,0,0,0-1.13.71,3.63,3.63,0,0,0-.81,1.13,3.68,3.68,0,0,0-.31,1.56,3.41,3.41,0,0,0,.25,1.34,2.92,2.92,0,0,0,.71,1,3,3,0,0,0,1.14.64,4,4,0,0,0,1.51.15,5.63,5.63,0,0,0,2.15-.54,9.59,9.59,0,0,0,1.25-.74Z"/><path class="cls-4" d="M531.3,304.4l4.28-.37v9l1.75-.15v2.53l-3.63.32L533.16,314h-0.09a4.61,4.61,0,0,1-1.59,1.58,5.42,5.42,0,0,1-3.95.68,2.6,2.6,0,0,1-1.23-.66,3.18,3.18,0,0,1-.78-1.36,7.54,7.54,0,0,1-.28-2.23v-4.62l-1.31.11V305l4.3-.35v6.53a3.34,3.34,0,0,0,.45,2,1.5,1.5,0,0,0,1.41.5,2.7,2.7,0,0,0,1.53-.64,3.06,3.06,0,0,0,1-1.32v-4.9l-1.29.11V304.4Z"/><path class="cls-4" d="M538.41,312.75l2.85-.25v-6.44l-2.85.25v-2.53l5.18-.47,0.34,1.49H544a7,7,0,0,1,1.47-1.4,3.93,3.93,0,0,1,1.93-.68,2.38,2.38,0,0,1,2.17.81,5.22,5.22,0,0,1,.79,3.31l-2.69.25a2.19,2.19,0,0,0-.24-1.18,0.77,0.77,0,0,0-.77-0.31,2.48,2.48,0,0,0-1.48.6,5.33,5.33,0,0,0-1,1.15v4.9l5-.46v2.53c-4.33.41-6.5,0.61-10.83,1v-2.53Z"/><path class="cls-4" d="M561.77,317.95a9.84,9.84,0,0,1-3.13-.7,8,8,0,0,1-2.69-1.78,8.57,8.57,0,0,1-1.87-2.95,11.43,11.43,0,0,1-.7-4.21,12.57,12.57,0,0,1,.7-4.33,11.33,11.33,0,0,1,1.87-3.34,10.76,10.76,0,0,1,2.69-2.36,12.63,12.63,0,0,1,3.13-1.39l0.55,2.41a10.65,10.65,0,0,0-1.83.84,7.7,7.7,0,0,0-1.94,1.6,8.8,8.8,0,0,0-1.55,2.56,9.83,9.83,0,0,0-.63,3.74,8.06,8.06,0,0,0,.67,3.5,6.87,6.87,0,0,0,1.62,2.22,6.24,6.24,0,0,0,2,1.21,7.22,7.22,0,0,0,1.7.44Z"/><path class="cls-4" d="M570.55,309.85a5.34,5.34,0,0,0,1.4-.33,4,4,0,0,0,1.11-.65,2.86,2.86,0,0,0,.73-0.93,2.61,2.61,0,0,0,.26-1.18,2.06,2.06,0,0,0-1-1.88,4.81,4.81,0,0,0-3-.41l-0.59.07-0.63.1-0.71.1v-8.42l8.32-.88v2.81l-5.74.61V302l0.37-.06,0.31,0,0.26,0a6.45,6.45,0,0,1,2.14.11,4.26,4.26,0,0,1,1.72.82,3.91,3.91,0,0,1,1.14,1.5,5.07,5.07,0,0,1,.4,2.06,5.67,5.67,0,0,1-.51,2.43,5.78,5.78,0,0,1-1.38,1.86,7.09,7.09,0,0,1-2,1.26,8.74,8.74,0,0,1-2.46.62,6.07,6.07,0,0,1-1.08,0q-0.57,0-1.13-.14a9.08,9.08,0,0,1-1-.23,8.32,8.32,0,0,1-.79-0.26l1-2.49a6.15,6.15,0,0,0,1.21.38A5.13,5.13,0,0,0,570.55,309.85Z"/><path class="cls-4" d="M584.33,308.35a5.36,5.36,0,0,0,1.4-.34,4,4,0,0,0,1.11-.66,2.89,2.89,0,0,0,.73-0.93,2.63,2.63,0,0,0,.26-1.18,2,2,0,0,0-1-1.88,4.8,4.8,0,0,0-3-.39l-0.58.08-0.63.1-0.71.1v-8.42l8.31-.94v2.81l-5.74.65v3.1l0.37-.06,0.31,0,0.26,0a6.43,6.43,0,0,1,2.14.09,4.21,4.21,0,0,1,1.72.8,3.86,3.86,0,0,1,1.14,1.49,5.05,5.05,0,0,1,.4,2.06,5.7,5.7,0,0,1-.5,2.44,5.83,5.83,0,0,1-1.38,1.87,7.15,7.15,0,0,1-2,1.28,8.77,8.77,0,0,1-2.46.63,6.06,6.06,0,0,1-1.08,0q-0.57,0-1.13-.13a9.12,9.12,0,0,1-1-.22q-0.47-.13-0.79-0.26l1-2.5a6.06,6.06,0,0,0,1.21.37A5.11,5.11,0,0,0,584.33,308.35Z"/><path class="cls-4" d="M605.9,303.65l-2.75.34v4.49l-2.78.34v-4.49l-7,.83v-2l7.28-10.55,2.46-.3v9.34l2.75-.34v2.39Zm-5.53-6.82-4,5.58,4-.48v-5.11Z"/><path class="cls-4" d="M619.66,301.9l-2.75.36v4.49l-2.77.36v-4.49l-6.95.87v-2l7.27-10.6,2.45-.32v9.34l2.75-.36v2.39Zm-5.53-6.78-4,5.61,4-.51v-5.11Z"/><path class="cls-4" d="M621.06,298.13a14.45,14.45,0,0,1,.44-3.73,8.78,8.78,0,0,1,1.23-2.77,6.2,6.2,0,0,1,1.9-1.8,6.36,6.36,0,0,1,2.46-.85,4.67,4.67,0,0,1,4.46,1.43q1.56,1.82,1.56,6.1a14.55,14.55,0,0,1-.44,3.75,9,9,0,0,1-1.23,2.79,6.14,6.14,0,0,1-1.91,1.82,6.42,6.42,0,0,1-2.47.85,4.52,4.52,0,0,1-4.46-1.56Q621.06,302.23,621.06,298.13Zm3-.39c0,0.23,0,.45,0,0.65s0,0.42,0,.63l5.55-5.87a2.19,2.19,0,0,0-2.57-1.63,2.9,2.9,0,0,0-2.24,1.71A10.13,10.13,0,0,0,624,297.74Zm6.1-.82q0-.37,0-0.7c0-.22,0-0.44,0-0.65l-5.57,5.88a2.23,2.23,0,0,0,2.57,1.75,2.93,2.93,0,0,0,2.25-1.71A10.16,10.16,0,0,0,630.14,296.92Z"/><path class="cls-4" d="M638.93,302.3a1.82,1.82,0,0,1,.52-1.31,2.17,2.17,0,0,1,1.29-.64,2,2,0,0,1,1.9.56,2.88,2.88,0,0,1,.64,2,4.76,4.76,0,0,1-.4,1.94,6.05,6.05,0,0,1-1,1.62,6.9,6.9,0,0,1-1.43,1.22,6.69,6.69,0,0,1-1.57.75l-0.62-1.18a7.72,7.72,0,0,0,1.11-.55,5.47,5.47,0,0,0,1-.78,4.38,4.38,0,0,0,.77-1,2.76,2.76,0,0,0,.35-1.15,3,3,0,0,1-1.17.2,1.53,1.53,0,0,1-.79-0.26,1.24,1.24,0,0,1-.45-0.58A2.22,2.22,0,0,1,638.93,302.3Z"/><path class="cls-4" d="M660.17,295.68a5.62,5.62,0,0,1-.42,2.16,6.47,6.47,0,0,1-1.16,1.85,6.64,6.64,0,0,1-1.75,1.39,6.4,6.4,0,0,1-2.19.74,6.18,6.18,0,0,1-2.23,0,4.19,4.19,0,0,1-1.82-.87,4.42,4.42,0,0,1-1.24-1.73,6.66,6.66,0,0,1-.46-2.6,11.39,11.39,0,0,1,.79-4.25,13.87,13.87,0,0,1,2-3.53,13.15,13.15,0,0,1,2.77-2.62,10.87,10.87,0,0,1,3-1.52l0.66,2.27a10.39,10.39,0,0,0-2.27,1.09,10.24,10.24,0,0,0-1.88,1.53,9.39,9.39,0,0,0-1.38,1.84,6.69,6.69,0,0,0-.77,2,4.36,4.36,0,0,1,1.37-1.18,5.54,5.54,0,0,1,2-.7,5.24,5.24,0,0,1,1.92,0,3.53,3.53,0,0,1,2.57,2.13A5,5,0,0,1,660.17,295.68Zm-2.88.55a2,2,0,0,0-.74-1.77,2.66,2.66,0,0,0-2-.35,3.75,3.75,0,0,0-1.65.66,3.62,3.62,0,0,0-1.08,1.12,4.13,4.13,0,0,0-.06.57q0,0.31,0,.5a2.87,2.87,0,0,0,.18,1,2,2,0,0,0,1.4,1.28,2.75,2.75,0,0,0,1.17,0,3.14,3.14,0,0,0,1-.35,3.58,3.58,0,0,0,.89-0.67,3.27,3.27,0,0,0,.63-0.93A2.72,2.72,0,0,0,657.29,296.23Z"/><path class="cls-4" d="M664.15,302.44a9.23,9.23,0,0,0,1.69-.87,8.94,8.94,0,0,0,2-1.71,9.74,9.74,0,0,0,1.61-2.63,9.3,9.3,0,0,0,.66-3.67,8.67,8.67,0,0,0-.63-3.58,6.23,6.23,0,0,0-1.54-2.16,5.39,5.39,0,0,0-1.93-1.1,8.46,8.46,0,0,0-1.82-.38l0.55-2.55a10.09,10.09,0,0,1,3.11.6,7.47,7.47,0,0,1,2.67,1.68,8.13,8.13,0,0,1,1.86,2.87,11.17,11.17,0,0,1,.7,4.16,13,13,0,0,1-.7,4.39,11.93,11.93,0,0,1-1.86,3.42,11.42,11.42,0,0,1-2.67,2.46,12.34,12.34,0,0,1-3.11,1.49Z"/><path class="cls-4" d="M55.4,346.84l2.84,0.45v-6.44l-2.84-.45v-2.53l5.14,0.81,0.34,1.57H61a4.85,4.85,0,0,1,1.46-1,3.32,3.32,0,0,1,1.92-.21,3.1,3.1,0,0,1,2.16,1.34,6.19,6.19,0,0,1,.79,3.5l-2.68-.41a2.54,2.54,0,0,0-.24-1.24,1,1,0,0,0-.77-0.5,2,2,0,0,0-1.47.23,3.71,3.71,0,0,0-.95.91v4.9l5,0.76V351c-4.31-.66-6.46-1-10.77-1.68v-2.53Z"/><path class="cls-4" d="M80.45,352a3.35,3.35,0,0,1-.77.43,6.41,6.41,0,0,1-1.1.33,7.77,7.77,0,0,1-1.38.16,8.77,8.77,0,0,1-1.6-.1A8.51,8.51,0,0,1,73,352a6.35,6.35,0,0,1-3.18-3.59,7.67,7.67,0,0,1-.42-2.6,6.28,6.28,0,0,1,.48-2.58,4.3,4.3,0,0,1,1.32-1.7,4.59,4.59,0,0,1,2-.85,7.27,7.27,0,0,1,2.43,0,8.13,8.13,0,0,1,1.8.5,5.88,5.88,0,0,1,1.71,1,5.25,5.25,0,0,1,1.27,1.69,5.6,5.6,0,0,1,.49,2.46,10.51,10.51,0,0,1-.23,2.11l-8.24-1.21a3,3,0,0,0,.31,1.29,3,3,0,0,0,.76.94,3.88,3.88,0,0,0,1.07.63,5.79,5.79,0,0,0,1.29.34,6.43,6.43,0,0,0,2.25,0,4,4,0,0,0,1.43-.57ZM75.51,343a3.64,3.64,0,0,0-1.12,0,2.67,2.67,0,0,0-.95.34,2.11,2.11,0,0,0-.7.68,2.14,2.14,0,0,0-.32,1L78,345.87a2.89,2.89,0,0,0-.63-1.91A2.93,2.93,0,0,0,75.51,343Z"/><path class="cls-4" d="M94.47,354.05a5.66,5.66,0,0,1-2.2.76,9.34,9.34,0,0,1-2.63,0A8.15,8.15,0,0,1,87,354,6.54,6.54,0,0,1,85,352.49a6.29,6.29,0,0,1-1.2-2.09,7.69,7.69,0,0,1-.41-2.54,6,6,0,0,1,.48-2.51,4.44,4.44,0,0,1,1.34-1.72,4.86,4.86,0,0,1,2-.9,7.51,7.51,0,0,1,2.54,0,10.13,10.13,0,0,1,2.41.64,13,13,0,0,1,1.72.81v4l-2.52-.35v-2.12a6.92,6.92,0,0,0-1.42-.36,4.14,4.14,0,0,0-1.27,0,2.58,2.58,0,0,0-1.92,1.42,3.26,3.26,0,0,0-.31,1.5,3.87,3.87,0,0,0,.25,1.39,3.85,3.85,0,0,0,1.84,2.07,4.49,4.49,0,0,0,1.5.48,5.1,5.1,0,0,0,2.14-.07,7.32,7.32,0,0,0,1.25-.47Z"/><path class="cls-4" d="M103.26,344.85l4.26,0.56c0,3.2,0,4.8,0,8v1l1.74,0.23v2.53l-3.62-.48-0.53-1.77H105a3.33,3.33,0,0,1-1.58,1.24,4.48,4.48,0,0,1-2.34.26,5.65,5.65,0,0,1-1.59-.45,3.45,3.45,0,0,1-1.23-.93,4.17,4.17,0,0,1-.78-1.53,8.2,8.2,0,0,1-.28-2.29c0-1.85,0-2.77,0-4.62l-1.31-.18v-2.53l4.28,0.58c0,2.61,0,3.92,0,6.53a3.86,3.86,0,0,0,.45,2.08,1.88,1.88,0,0,0,1.41.81,2.3,2.3,0,0,0,2.48-1.42c0-2,0-2.94,0-4.9l-1.28-.17v-2.53Z"/><path class="cls-4" d="M110.35,354.75l2.84,0.37c0-2.58,0-3.86,0-6.44l-2.84-.37v-2.53l5.16,0.66,0.34,1.56h0.09a5.06,5.06,0,0,1,1.47-1.08,3.37,3.37,0,0,1,1.93-.26A3,3,0,0,1,121.5,348a6.06,6.06,0,0,1,.79,3.48l-2.68-.33a2.5,2.5,0,0,0-.24-1.24,1,1,0,0,0-.77-0.48,2.08,2.08,0,0,0-1.48.27,3.88,3.88,0,0,0-1,.94c0,2,0,2.94,0,4.9l5,0.62v2.53c-4.32-.54-6.48-0.81-10.8-1.37v-2.53Z"/><path class="cls-4" d="M133.65,365a11.9,11.9,0,0,1-3.12-1.38,10.85,10.85,0,0,1-2.69-2.37,11.38,11.38,0,0,1-1.87-3.35,12.72,12.72,0,0,1-.7-4.36,11.33,11.33,0,0,1,.7-4.18,8.53,8.53,0,0,1,1.87-2.94,7.88,7.88,0,0,1,2.69-1.77,10.37,10.37,0,0,1,3.12-.71l0.55,2.53a8.67,8.67,0,0,0-1.82.44,5.67,5.67,0,0,0-1.94,1.17,6.55,6.55,0,0,0-1.55,2.22,8.8,8.8,0,0,0-.63,3.6,9.1,9.1,0,0,0,.67,3.64,9.27,9.27,0,0,0,1.62,2.57,8.47,8.47,0,0,0,2,1.64,8.9,8.9,0,0,0,1.7.81Z"/><path class="cls-4" d="M139.41,358.3l3.51,0.4c0-4,0-6,0-10.05l-3,2-1.38-2,5.23-3.41,2,0.23c0,5.43,0,8.14,0,13.57l3.45,0.38c0,1,0,1.52,0,2.53l-9.81-1.1C139.41,359.82,139.41,359.31,139.41,358.3Z"/><path class="cls-4" d="M153.19,359.83l3.51,0.37c0-4,0-6,0-10.05l-3,2-1.38-2,5.24-3.44,2,0.21c0,5.43,0,8.14,0,13.57l3.45,0.36v2.53l-9.81-1v-2.53Z"/><path class="cls-4" d="M169.55,362.58a1.43,1.43,0,0,1,.52-1.19,1.74,1.74,0,0,1,1.3-.33,2.53,2.53,0,0,1,1.91,1,3.51,3.51,0,0,1,.64,2.11,4.1,4.1,0,0,1-.4,1.85,4.35,4.35,0,0,1-1,1.37,5,5,0,0,1-1.44.87,5.42,5.42,0,0,1-1.58.37l-0.62-1.33A6.15,6.15,0,0,0,170,367a4,4,0,0,0,1-.53,3.07,3.07,0,0,0,.77-0.81,2.23,2.23,0,0,0,.36-1.07,2.94,2.94,0,0,1-1.17-.08,2,2,0,0,1-.79-0.45,1.72,1.72,0,0,1-.45-0.69A2.5,2.5,0,0,1,169.55,362.58Z"/><path class="cls-4" d="M180.77,362.6l3.52,0.33c0-4,0-6,0-10.05l-3,2-1.38-2,5.24-3.52,2,0.18c0,5.43,0,8.14,0,13.57l3.45,0.31V366l-9.82-.89V362.6Z"/><path class="cls-4" d="M193,358.16a13.29,13.29,0,0,1,.44-3.63,6.84,6.84,0,0,1,1.24-2.5,4.53,4.53,0,0,1,1.91-1.39,5.55,5.55,0,0,1,2.47-.31,5.85,5.85,0,0,1,4.48,2.41q1.57,2.16,1.57,6.44a13.4,13.4,0,0,1-.44,3.66,7,7,0,0,1-1.24,2.52,4.49,4.49,0,0,1-1.92,1.41,5.61,5.61,0,0,1-2.48.31,5.7,5.7,0,0,1-4.48-2.53A11.27,11.27,0,0,1,193,358.16Zm3,0.26q0,0.35,0,.66t0,0.64l5.57-4.66a2.86,2.86,0,0,0-2.58-2.19,2.23,2.23,0,0,0-2.25,1.22A9,9,0,0,0,196,358.42Zm6.12,0.51c0-.25,0-0.48,0-0.7s0-.44,0-0.66l-5.59,4.66a2.92,2.92,0,0,0,2.58,2.31,2.26,2.26,0,0,0,2.26-1.21A9,9,0,0,0,202.12,358.94Z"/><path class="cls-4" d="M208.7,369.91a7.37,7.37,0,0,0,1.7-.48,6.46,6.46,0,0,0,2-1.25,7.09,7.09,0,0,0,1.62-2.26,8.13,8.13,0,0,0,.67-3.51,9.72,9.72,0,0,0-.63-3.73,8.55,8.55,0,0,0-1.55-2.52,7.48,7.48,0,0,0-1.95-1.55,10.46,10.46,0,0,0-1.83-.8l0.55-2.42a12.35,12.35,0,0,1,3.13,1.33,10.45,10.45,0,0,1,2.69,2.3,11,11,0,0,1,1.88,3.3,12.42,12.42,0,0,1,.7,4.32,11.54,11.54,0,0,1-.7,4.23,8.81,8.81,0,0,1-1.88,3,8.21,8.21,0,0,1-2.69,1.84,10,10,0,0,1-3.13.77Z"/><path class="cls-4" d="M345.88,373.6c0-1,0-1.52,0-2.53l2.72,0c0-2.58,0-3.86,0-6.44l-2.74,0V362.1l2.74,0v-0.64a4.2,4.2,0,0,1,.38-1.86,3.71,3.71,0,0,1,1-1.28,4.07,4.07,0,0,1,1.44-.74,6,6,0,0,1,1.7-.23,10.83,10.83,0,0,1,2.62.28,6.73,6.73,0,0,1,1.7.66l-0.88,2.27a10.47,10.47,0,0,0-1.14-.46,5.05,5.05,0,0,0-1.58-.21,2.23,2.23,0,0,0-1.74.55,2.49,2.49,0,0,0-.5,1.69l4.84,0c0,1,0,1.52,0,2.53l-4.84,0c0,2.58,0,3.86,0,6.44l4.87,0v2.53C352.23,373.65,350.11,373.64,345.88,373.6Z"/><path class="cls-4" d="M360.16,363a12.62,12.62,0,0,1,2.13-.71,12.19,12.19,0,0,1,2.87-.3,6.39,6.39,0,0,1,2,.29,3.4,3.4,0,0,1,1.36.81,3.09,3.09,0,0,1,.75,1.26,5.52,5.52,0,0,1,.23,1.66q0,1.17-.08,2t-0.08,1.47a9.86,9.86,0,0,0,0,1.08c0,0.21.05,0.42,0.07,0.62H371c0,1,0,1.52,0,2.53h-3.87l-0.3-1.56h-0.11a4,4,0,0,1-1.31,1.23,4.37,4.37,0,0,1-2.29.52,3.89,3.89,0,0,1-2.73-.92,3.15,3.15,0,0,1-1-2.44,3.65,3.65,0,0,1,.35-1.67,3,3,0,0,1,1-1.15,4.9,4.9,0,0,1,1.63-.66,9.54,9.54,0,0,1,2.12-.22c0.27,0,.57,0,0.87,0l1.12,0.09a2.37,2.37,0,0,0,0-.46V366a1.47,1.47,0,0,0-.5-1.25,2.45,2.45,0,0,0-1.49-.38,7,7,0,0,0-2.11.3,13.48,13.48,0,0,0-1.58.6Zm3.93,8.45a2.76,2.76,0,0,0,1.64-.4,2.72,2.72,0,0,0,.8-0.86v-1.38l-0.68-.1a8,8,0,0,0-1-.06,4.75,4.75,0,0,0-.87.08,2.88,2.88,0,0,0-.78.25,1.51,1.51,0,0,0-.55.45,1.08,1.08,0,0,0-.2.67,1.31,1.31,0,0,0,.38,1A1.77,1.77,0,0,0,364.09,371.41Z"/><path class="cls-4" d="M384.52,372.48a6.68,6.68,0,0,1-2.21,1.09,9.75,9.75,0,0,1-2.65.38,7.5,7.5,0,0,1-2.66-.42,5.37,5.37,0,0,1-2-1.22,5.17,5.17,0,0,1-1.21-1.91,7.12,7.12,0,0,1-.42-2.48,6.48,6.48,0,0,1,.48-2.58,5.47,5.47,0,0,1,1.35-1.92,5.88,5.88,0,0,1,2-1.2,7.94,7.94,0,0,1,2.56-.42,9.47,9.47,0,0,1,2.42.28,11.25,11.25,0,0,1,1.73.56v4l-2.54,0V364.6a6.49,6.49,0,0,0-1.43-.15,4.35,4.35,0,0,0-1.28.21,3.16,3.16,0,0,0-1.13.63,3.29,3.29,0,0,0-.81,1.07,3.87,3.87,0,0,0-.06,2.9A3.13,3.13,0,0,0,378.6,371a4.11,4.11,0,0,0,1.51.25,5.42,5.42,0,0,0,2.16-.39,8.81,8.81,0,0,0,1.26-.66Z"/><path class="cls-4" d="M388.44,364.57l-2.28,0v-2.53l2.28,0v-2.62l3-.89V362l6-.09v2.53l-6,.09v3.29a3.92,3.92,0,0,0,.67,2.56,2.28,2.28,0,0,0,1.87.77,4,4,0,0,0,1.13-.17,4.35,4.35,0,0,0,.91-0.39,5.34,5.34,0,0,0,.74-0.52l0.61-.52,1.38,2a4.55,4.55,0,0,1-1,.86,8.54,8.54,0,0,1-1.27.69,8.15,8.15,0,0,1-1.42.47,6.81,6.81,0,0,1-1.45.18,4.91,4.91,0,0,1-3.89-1.38,6.6,6.6,0,0,1-1.3-4.55v-3.29Z"/><path class="cls-4" d="M400.42,367.61a7.13,7.13,0,0,1,.44-2.58,5.41,5.41,0,0,1,1.25-1.93,5.47,5.47,0,0,1,1.93-1.22,7.48,7.48,0,0,1,2.5-.45,7.18,7.18,0,0,1,2.59.38,5.2,5.2,0,0,1,1.93,1.19,5,5,0,0,1,1.19,1.89,7.25,7.25,0,0,1,.4,2.47,7.16,7.16,0,0,1-.44,2.59A5.35,5.35,0,0,1,409,373.1a7.42,7.42,0,0,1-2.5.46,7.13,7.13,0,0,1-2.6-.38A5.21,5.21,0,0,1,402,372a5,5,0,0,1-1.19-1.9A7.26,7.26,0,0,1,400.42,367.61Zm3.09-.06a4.51,4.51,0,0,0,.21,1.4,3.35,3.35,0,0,0,.6,1.11,2.62,2.62,0,0,0,.95.73,2.87,2.87,0,0,0,1.27.24,3,3,0,0,0,2.18-.9,3.78,3.78,0,0,0,.84-2.71,3.9,3.9,0,0,0-.78-2.55,2.65,2.65,0,0,0-2.24-.93,3.63,3.63,0,0,0-1.2.22,2.43,2.43,0,0,0-1,.65,3.18,3.18,0,0,0-.63,1.12A5,5,0,0,0,403.51,367.55Z"/><path class="cls-4" d="M414.35,370.52l2.86-.07c0-2.58,0-3.86,0-6.44l-2.86.07v-2.53l5.19-.14,0.35,1.51H420a6.37,6.37,0,0,1,1.48-1.31,3.74,3.74,0,0,1,1.94-.56,2.54,2.54,0,0,1,2.18.95,5.44,5.44,0,0,1,.8,3.36l-2.7.08a2.27,2.27,0,0,0-.24-1.2,0.82,0.82,0,0,0-.77-0.36,2.34,2.34,0,0,0-1.49.5,4.87,4.87,0,0,0-1,1.09v4.9l5-.15v2.53c-4.35.13-6.52,0.19-10.86,0.3v-2.53Z"/><path class="cls-4" d="M428.65,370.11l4.06-.14v-6.44l-4.06.14v-2.53l7.06-.24c0,3.59,0,5.38,0,9l4.27-.16v2.53c-4.53.17-6.79,0.25-11.32,0.4C428.65,371.63,428.65,371.12,428.65,370.11Zm3.5-12.22a1.68,1.68,0,0,1,.53-1.24,2.12,2.12,0,0,1,1.48-.56,2.19,2.19,0,0,1,1.55.45,1.5,1.5,0,0,1,.58,1.2,1.55,1.55,0,0,1-.58,1.23,2.43,2.43,0,0,1-1.55.53,2.08,2.08,0,0,1-1.48-.42A1.49,1.49,0,0,1,432.15,357.9Z"/><path class="cls-4" d="M443.2,361.4a13.09,13.09,0,0,1,2.13-.8,12.35,12.35,0,0,1,2.87-.42,6.28,6.28,0,0,1,2,.2,3.22,3.22,0,0,1,1.36.76,2.92,2.92,0,0,1,.75,1.23,5.43,5.43,0,0,1,.23,1.65q0,1.17-.08,2t-0.08,1.48a9.79,9.79,0,0,0,0,1.08c0,0.21.05,0.42,0.07,0.62l1.5-.07c0,1,0,1.52,0,2.53l-3.87.17-0.3-1.55h-0.11a4.23,4.23,0,0,1-1.31,1.29,4.49,4.49,0,0,1-2.29.61,3.75,3.75,0,0,1-2.73-.81,3,3,0,0,1-1-2.4,3.75,3.75,0,0,1,.35-1.68,3.15,3.15,0,0,1,1-1.19,5.13,5.13,0,0,1,1.63-.73,9.69,9.69,0,0,1,2.12-.31c0.27,0,.57,0,0.87,0l1.12,0a2.39,2.39,0,0,0,0-.46v-0.44a1.41,1.41,0,0,0-.5-1.23,2.39,2.39,0,0,0-1.49-.32,7.08,7.08,0,0,0-2.11.39,14.1,14.1,0,0,0-1.58.66Zm3.92,8.28a2.85,2.85,0,0,0,1.64-.47,2.88,2.88,0,0,0,.8-0.9v-1.38l-0.68-.07a7.85,7.85,0,0,0-1,0,4.83,4.83,0,0,0-.87.12,3,3,0,0,0-.78.29,1.6,1.6,0,0,0-.55.47,1.12,1.12,0,0,0-.2.68,1.26,1.26,0,0,0,.38,1A1.72,1.72,0,0,0,447.12,369.68Z"/><path class="cls-4" d="M457,355.42l4.91-.24c0,4.25,0,6.38,0,10.63a4.79,4.79,0,0,0,.44,2.44,1.46,1.46,0,0,0,1.41.62,4,4,0,0,0,1.18-.21,4.73,4.73,0,0,0,.92-0.47l1.13,2q-0.39.27-.78,0.51a5.35,5.35,0,0,1-.83.41,5.83,5.83,0,0,1-1,.28,7.69,7.69,0,0,1-1.16.14,4.18,4.18,0,0,1-3.25-.94,4.09,4.09,0,0,1-1.08-3.08c0-3.86,0-5.8,0-9.66l-1.91.09C457,356.93,457,356.43,457,355.42Z"/><path class="cls-4" d="M470.58,373.52c4.09-.22,6.14-0.34,10.23-0.58,0,1,0,1.48,0,2.46-4.09.24-6.14,0.36-10.23,0.58v-2.46Z"/><path class="cls-4" d="M482.61,354l4.65-.28c0,2.36,0,3.53,0,5.89h0.09a4.26,4.26,0,0,1,1.47-1.27,5.24,5.24,0,0,1,2.17-.58,5.29,5.29,0,0,1,1.61.13,2.81,2.81,0,0,1,1.27.68,3.28,3.28,0,0,1,.83,1.38,7.05,7.05,0,0,1,.3,2.22c0,2.86,0,4.29,0,7.15l-3,.2c0-2.61,0-3.92,0-6.53a2.7,2.7,0,0,0-.6-2,2,2,0,0,0-1.57-.52,2.77,2.77,0,0,0-1.57.62,3.07,3.07,0,0,0-1,1.39c0,2.93,0,4.4,0,7.34l-3,.18c0-5.43,0-8.14,0-13.57l-1.66.1C482.61,355.56,482.61,355.06,482.61,354Z"/><path class="cls-4" d="M508.73,367.19a4.55,4.55,0,0,1-.77.6,8.11,8.11,0,0,1-1.11.58,9.07,9.07,0,0,1-1.39.47,9.22,9.22,0,0,1-1.61.25,7.62,7.62,0,0,1-2.64-.23A4.69,4.69,0,0,1,498,366a6.85,6.85,0,0,1-.43-2.51,7,7,0,0,1,.48-2.69,5.84,5.84,0,0,1,1.32-2,6.08,6.08,0,0,1,2-1.27,7.94,7.94,0,0,1,2.44-.55,7.41,7.41,0,0,1,1.81.1,4.58,4.58,0,0,1,1.72.67,3.83,3.83,0,0,1,1.28,1.41,4.89,4.89,0,0,1,.5,2.36,11.2,11.2,0,0,1-.23,2.16l-8.29.59a2.53,2.53,0,0,0,.31,1.22,2.22,2.22,0,0,0,.76.77,3.06,3.06,0,0,0,1.08.4,5.31,5.31,0,0,0,1.3.06,7,7,0,0,0,2.27-.48,5.27,5.27,0,0,0,1.44-.89Zm-5-7.85a4,4,0,0,0-1.13.24,3.44,3.44,0,0,0-1,.55,2.9,2.9,0,0,0-.7.83,2.55,2.55,0,0,0-.32,1.08l5.67-.4A2.1,2.1,0,0,0,503.76,359.33Z"/><path class="cls-4" d="M512.25,352l4.9-.37c0,4.25,0,6.38,0,10.63a4.72,4.72,0,0,0,.44,2.43,1.42,1.42,0,0,0,1.4.58,4,4,0,0,0,1.17-.24,4.89,4.89,0,0,0,.92-0.5l1.13,2q-0.39.28-.78,0.53a5.56,5.56,0,0,1-.83.43,6,6,0,0,1-1,.3,7.8,7.8,0,0,1-1.16.17,4.08,4.08,0,0,1-3.25-.85,4,4,0,0,1-1.08-3c0-3.86,0-5.8,0-9.66l-1.91.14C512.25,353.56,512.25,353.06,512.25,352Z"/><path class="cls-4" d="M524.06,355.72l3.91-.32,0.34,1.35h0.09a4.83,4.83,0,0,1,3.87-2,5.31,5.31,0,0,1,1.94.17,3.39,3.39,0,0,1,1.52.91,4.42,4.42,0,0,1,1,1.71,8.31,8.31,0,0,1,.34,2.57,8.76,8.76,0,0,1-.39,2.69,6.29,6.29,0,0,1-1.13,2.11,5.45,5.45,0,0,1-1.79,1.42,6.61,6.61,0,0,1-2.42.64,9.33,9.33,0,0,1-1.4,0,3.64,3.64,0,0,1-1.15-.24c0,1.89,0,2.83,0,4.71l-3,.25c0-5.43,0-8.14,0-13.57l-1.73.14C524.06,357.24,524.06,356.74,524.06,355.72Zm7.32,1.6a3.27,3.27,0,0,0-1.6.57,2.55,2.55,0,0,0-1,1.4c0,1.91,0,2.87,0,4.78a2.26,2.26,0,0,0,.93.32,5,5,0,0,0,1.23,0,3.39,3.39,0,0,0,1.2-.32,2.76,2.76,0,0,0,1-.78,3.78,3.78,0,0,0,.64-1.27,6.19,6.19,0,0,0,.23-1.79,3.17,3.17,0,0,0-.74-2.28A2.2,2.2,0,0,0,531.38,357.32Z"/><path class="cls-4" d="M550.15,363.71a4.68,4.68,0,0,1-.77.61,8.33,8.33,0,0,1-1.1.6,9.36,9.36,0,0,1-3,.78,7.56,7.56,0,0,1-2.63-.17,4.55,4.55,0,0,1-3.2-2.83,6.79,6.79,0,0,1-.42-2.5,7.08,7.08,0,0,1,.48-2.7,6,6,0,0,1,1.32-2,6.24,6.24,0,0,1,2-1.32,8,8,0,0,1,2.44-.6,7.38,7.38,0,0,1,1.8.06,4.48,4.48,0,0,1,1.71.63,3.71,3.71,0,0,1,1.28,1.39,4.83,4.83,0,0,1,.49,2.34,11.28,11.28,0,0,1-.23,2.16l-8.28.77a2.5,2.5,0,0,0,.31,1.21,2.16,2.16,0,0,0,.76.76,3,3,0,0,0,1.08.37,5.28,5.28,0,0,0,1.3,0,7.05,7.05,0,0,0,2.27-.53,5.41,5.41,0,0,0,1.44-.92Zm-5-7.75a4,4,0,0,0-1.13.27,3.53,3.53,0,0,0-1,.57,3,3,0,0,0-.7.85,2.6,2.6,0,0,0-.32,1.08l5.66-.52A2.05,2.05,0,0,0,545.18,356Z"/><path class="cls-4" d="M552.56,362.17l2.85-.27v-6.44l-2.85.27V353.2l5.17-.5,0.34,1.48h0.09a7.06,7.06,0,0,1,1.47-1.41,4,4,0,0,1,1.93-.7,2.36,2.36,0,0,1,2.17.79,5.19,5.19,0,0,1,.79,3.3l-2.69.27a2.18,2.18,0,0,0-.24-1.18,0.76,0.76,0,0,0-.77-0.3,2.5,2.5,0,0,0-1.48.61,5.39,5.39,0,0,0-1,1.15v4.9l5-.5c0,1,0,1.52,0,2.53-4.33.44-6.5,0.65-10.83,1.07v-2.53Z"/><path class="cls-4" d="M575.91,367.2a9.79,9.79,0,0,1-3.12-.68,7.87,7.87,0,0,1-2.69-1.76,8.48,8.48,0,0,1-1.87-2.93,11.39,11.39,0,0,1-.7-4.21,12.61,12.61,0,0,1,.7-4.34,11.43,11.43,0,0,1,1.87-3.36,10.87,10.87,0,0,1,2.69-2.38,12.72,12.72,0,0,1,3.12-1.42l0.55,2.4a10.74,10.74,0,0,0-1.83.85A7.77,7.77,0,0,0,572.7,351a8.89,8.89,0,0,0-1.55,2.57,9.86,9.86,0,0,0-.63,3.75,8,8,0,0,0,.67,3.49A6.8,6.8,0,0,0,572.8,363a6.18,6.18,0,0,0,2,1.19,7.2,7.2,0,0,0,1.7.43Z"/><path class="cls-4" d="M581.58,361.71l6.61-14.13-7.49.84c0-1.09,0-1.63,0-2.71,4.19-.46,6.28-0.7,10.47-1.18,0,0.9,0,1.35,0,2.25l-6.68,14.61Z"/><path class="cls-4" d="M594.26,349.2a6.05,6.05,0,0,1,.4-2.21,5.71,5.71,0,0,1,1.12-1.82,6.17,6.17,0,0,1,1.74-1.31,6.73,6.73,0,0,1,2.28-.68,6.46,6.46,0,0,1,2.34.11,4.19,4.19,0,0,1,1.81.94,4.42,4.42,0,0,1,1.17,1.76,7.2,7.2,0,0,1,.41,2.56,14.5,14.5,0,0,1-.69,4.68,11.1,11.1,0,0,1-1.85,3.45,9.51,9.51,0,0,1-2.7,2.3,11.79,11.79,0,0,1-3.21,1.26L596.46,358a8.82,8.82,0,0,0,2.28-.89,8.13,8.13,0,0,0,1.78-1.35,7.07,7.07,0,0,0,1.24-1.69,5.83,5.83,0,0,0,.62-1.93,4.06,4.06,0,0,1-1.24.92,5.5,5.5,0,0,1-1.81.51h0a5.34,5.34,0,0,1-1.77-.09,4.15,4.15,0,0,1-1.62-.73,4.07,4.07,0,0,1-1.18-1.41A4.53,4.53,0,0,1,594.26,349.2Zm2.89-.5a2.38,2.38,0,0,0,.24,1.11,2.12,2.12,0,0,0,.63.75,2.33,2.33,0,0,0,.91.4,3.24,3.24,0,0,0,1.07,0,4.41,4.41,0,0,0,1.63-.5,2.85,2.85,0,0,0,1-.86,6.71,6.71,0,0,0,.07-0.93,4.24,4.24,0,0,0-.18-1.24,3,3,0,0,0-.55-1,2.3,2.3,0,0,0-.92-0.66,2.54,2.54,0,0,0-1.26-.14A2.94,2.94,0,0,0,597.15,348.7Z"/><path class="cls-4" d="M618.78,357.24c-4.09.53-6.14,0.79-10.23,1.3,0-.89,0-1.34,0-2.23,0.18-.18.41-0.41,0.69-0.7l0.93-1q0.52-.55,1.09-1.19t1.12-1.34q0.78-1,1.36-1.76a13.52,13.52,0,0,0,1-1.47,6.38,6.38,0,0,0,.56-1.31,4.54,4.54,0,0,0,.18-1.28,1.91,1.91,0,0,0-.21-0.87,2,2,0,0,0-.57-0.7,2.36,2.36,0,0,0-.88-0.42,3.06,3.06,0,0,0-1.14-.05,4.65,4.65,0,0,0-1.5.44,6.09,6.09,0,0,0-1.41,1l-1.19-2a11.93,11.93,0,0,1,2.14-1.43,8,8,0,0,1,2.72-.82,6.28,6.28,0,0,1,1.89,0,4.32,4.32,0,0,1,1.6.61,3.28,3.28,0,0,1,1.11,1.2,3.71,3.71,0,0,1,.41,1.81,7.27,7.27,0,0,1-.13,1.38,7.46,7.46,0,0,1-.39,1.32,10,10,0,0,1-.69,1.39q-0.42.72-1,1.58-0.46.66-1,1.34t-1.07,1.3q-0.53.62-1,1.17t-0.93.92l6.6-.85C618.78,355.72,618.78,356.23,618.78,357.24Z"/><path class="cls-4" d="M621.42,348.82a14.42,14.42,0,0,1,.44-3.73,8.77,8.77,0,0,1,1.23-2.77,6.2,6.2,0,0,1,1.9-1.8,6.36,6.36,0,0,1,2.46-.85,4.67,4.67,0,0,1,4.46,1.43q1.56,1.82,1.56,6.1A14.55,14.55,0,0,1,633,351a9,9,0,0,1-1.23,2.79,6.14,6.14,0,0,1-1.91,1.82,6.43,6.43,0,0,1-2.47.85,4.52,4.52,0,0,1-4.46-1.56Q621.42,352.92,621.42,348.82Zm3-.39c0,0.23,0,.45,0,0.65s0,0.42,0,.63l5.55-5.87a2.19,2.19,0,0,0-2.57-1.63,2.9,2.9,0,0,0-2.24,1.71A10.13,10.13,0,0,0,624.4,348.43Zm6.1-.82q0-.37,0-0.7c0-.22,0-0.44,0-0.65l-5.57,5.88a2.23,2.23,0,0,0,2.57,1.75,2.93,2.93,0,0,0,2.25-1.71A10.16,10.16,0,0,0,630.49,347.61Z"/><path class="cls-4" d="M639.29,353a1.82,1.82,0,0,1,.52-1.31,2.17,2.17,0,0,1,1.29-.64,2,2,0,0,1,1.9.56,2.88,2.88,0,0,1,.64,2,4.76,4.76,0,0,1-.4,1.94,6.05,6.05,0,0,1-1,1.62,6.89,6.89,0,0,1-1.43,1.22,6.71,6.71,0,0,1-1.57.75l-0.62-1.18a7.69,7.69,0,0,0,1.11-.55,5.47,5.47,0,0,0,1-.78,4.38,4.38,0,0,0,.77-1,2.76,2.76,0,0,0,.35-1.15,3,3,0,0,1-1.17.2,1.53,1.53,0,0,1-.79-0.26,1.24,1.24,0,0,1-.45-0.58A2.2,2.2,0,0,1,639.29,353Z"/><path class="cls-4" d="M650.37,352.88L657,338.51l-7.46,1.1c0-1.09,0-1.63,0-2.71,4.18-.61,6.26-0.92,10.43-1.55,0,0.9,0,1.35,0,2.25l-6.66,14.84Z"/><path class="cls-4" d="M664.51,353.12a9.23,9.23,0,0,0,1.69-.87,8.93,8.93,0,0,0,2-1.71,9.73,9.73,0,0,0,1.61-2.63,9.3,9.3,0,0,0,.66-3.67,8.68,8.68,0,0,0-.63-3.58,6.23,6.23,0,0,0-1.54-2.16,5.39,5.39,0,0,0-1.93-1.1,8.46,8.46,0,0,0-1.82-.38l0.55-2.55a10.07,10.07,0,0,1,3.11.6,7.47,7.47,0,0,1,2.67,1.68,8.12,8.12,0,0,1,1.86,2.87,11.17,11.17,0,0,1,.7,4.16,13,13,0,0,1-.7,4.39,11.93,11.93,0,0,1-1.86,3.42,11.42,11.42,0,0,1-2.67,2.46,12.34,12.34,0,0,1-3.11,1.49Z"/><path class="cls-4" d="M55.48,450.71v-2.53l2.7,0.43v-6.44l-2.72-.43V439.2l2.72,0.43V439a3.87,3.87,0,0,1,.38-1.8,3,3,0,0,1,1-1.13,3.43,3.43,0,0,1,1.43-.53,5.72,5.72,0,0,1,1.68,0,11.56,11.56,0,0,1,2.6.66,7.9,7.9,0,0,1,1.68.91l-0.87,2.14a12.3,12.3,0,0,0-1.13-.63,5.46,5.46,0,0,0-1.57-.45,2,2,0,0,0-1.73.3,2.21,2.21,0,0,0-.49,1.61l4.8,0.74v2.53l-4.8-.74v6.44L66,449.81v2.53C61.78,451.7,59.68,451.37,55.48,450.71Z"/><path class="cls-4" d="M69.64,442.18a11.15,11.15,0,0,1,2.12-.39,11.8,11.8,0,0,1,2.85.13,6.89,6.89,0,0,1,2,.59,4.14,4.14,0,0,1,1.35,1,3.74,3.74,0,0,1,.74,1.37,5.91,5.91,0,0,1,.23,1.69q0,1.17-.08,2c-0.05.54-.08,1-0.08,1.46a10.09,10.09,0,0,0,0,1.09c0,0.21.05,0.43,0.07,0.63L80.39,452v2.53l-3.84-.56-0.3-1.61-0.11,0a3.19,3.19,0,0,1-1.3,1,4,4,0,0,1-2.27.18,4.47,4.47,0,0,1-2.71-1.33,3.65,3.65,0,0,1-1-2.59,3.35,3.35,0,0,1,.35-1.61,2.38,2.38,0,0,1,1-1,4.24,4.24,0,0,1,1.61-.42,9.26,9.26,0,0,1,2.1.1q0.41,0.06.86,0.17l1.11,0.26a2.28,2.28,0,0,0,0-.45v-0.44a1.7,1.7,0,0,0-.5-1.33,2.76,2.76,0,0,0-1.48-.6,6.63,6.63,0,0,0-2.09,0,11.79,11.79,0,0,0-1.57.36Zm3.89,9a2.52,2.52,0,0,0,1.63-.16A2.17,2.17,0,0,0,76,450.3v-1.38l-0.68-.2a8.27,8.27,0,0,0-1-.2,4.65,4.65,0,0,0-.86,0,2.58,2.58,0,0,0-.77.14,1.22,1.22,0,0,0-.54.37,1,1,0,0,0-.2.64,1.51,1.51,0,0,0,.37,1.06A2,2,0,0,0,73.53,451.2Z"/><path class="cls-4" d="M93.81,455.29a5.66,5.66,0,0,1-2.2.76A9.34,9.34,0,0,1,89,456a8.17,8.17,0,0,1-2.65-.81,6.56,6.56,0,0,1-1.95-1.51,6.29,6.29,0,0,1-1.2-2.09,7.69,7.69,0,0,1-.41-2.54,6,6,0,0,1,.48-2.51,4.43,4.43,0,0,1,1.34-1.72,4.87,4.87,0,0,1,2-.9,7.52,7.52,0,0,1,2.54,0,10.12,10.12,0,0,1,2.4.64,13,13,0,0,1,1.72.81v4l-2.52-.35V447a6.93,6.93,0,0,0-1.42-.36,4.15,4.15,0,0,0-1.27,0A2.58,2.58,0,0,0,86.15,448a3.26,3.26,0,0,0-.31,1.5,3.85,3.85,0,0,0,.25,1.39A3.85,3.85,0,0,0,87.94,453a4.48,4.48,0,0,0,1.5.48,5.09,5.09,0,0,0,2.14-.07,7.33,7.33,0,0,0,1.25-.47Z"/><path class="cls-4" d="M97.7,448l-2.27-.31v-2.53l2.27,0.31V442.8l3-.45v3.47l6,0.8v2.53l-6-.8v3.29a4.39,4.39,0,0,0,.66,2.65,2.66,2.66,0,0,0,1.86,1,3.83,3.83,0,0,0,1.12,0,3.75,3.75,0,0,0,.91-0.26,4.33,4.33,0,0,0,.73-0.41l0.61-.43,1.38,2.25a3.66,3.66,0,0,1-1,.71,7.11,7.11,0,0,1-1.26.5,7.25,7.25,0,0,1-1.41.26,6.58,6.58,0,0,1-1.44,0A5.68,5.68,0,0,1,99,456a7.45,7.45,0,0,1-1.29-4.74V448Z"/><path class="cls-4" d="M109.6,452.76a6.66,6.66,0,0,1,.44-2.52,4.43,4.43,0,0,1,1.24-1.75,4.51,4.51,0,0,1,1.91-.94,7,7,0,0,1,2.49-.08,7.8,7.8,0,0,1,2.58.76,6.34,6.34,0,0,1,1.92,1.47,6.08,6.08,0,0,1,1.18,2.07,7.81,7.81,0,0,1,.4,2.53,6.68,6.68,0,0,1-.44,2.52,4.35,4.35,0,0,1-3.15,2.7,7,7,0,0,1-2.49.09,7.75,7.75,0,0,1-2.58-.77,6.34,6.34,0,0,1-1.91-1.48A6.11,6.11,0,0,1,110,455.3,7.82,7.82,0,0,1,109.6,452.76Zm3.07,0.4a4.83,4.83,0,0,0,.21,1.43,4,4,0,0,0,.6,1.2,3.25,3.25,0,0,0,.94.87,3.16,3.16,0,0,0,1.26.43,2.61,2.61,0,0,0,2.17-.58,3.34,3.34,0,0,0,.84-2.59,4.42,4.42,0,0,0-.78-2.66,3.1,3.1,0,0,0-2.22-1.26,3.42,3.42,0,0,0-1.19,0,2,2,0,0,0-1,.51,2.61,2.61,0,0,0-.63,1A4.7,4.7,0,0,0,112.67,453.16Z"/><path class="cls-4" d="M123.45,457.73l2.84,0.35v-6.44l-2.84-.35v-2.53l5.16,0.63,0.34,1.56H129a5.13,5.13,0,0,1,1.47-1.09,3.39,3.39,0,0,1,1.93-.28,3,3,0,0,1,2.17,1.27,6,6,0,0,1,.79,3.47l-2.69-.32a2.49,2.49,0,0,0-.24-1.24,1,1,0,0,0-.77-0.47,2.08,2.08,0,0,0-1.48.28,3.9,3.9,0,0,0-1,.94v4.9l5,0.59v2.53c-4.32-.51-6.49-0.77-10.81-1.3v-2.53Z"/><path class="cls-4" d="M137.68,459.43l4,0.46v-6.44l-4-.46v-2.53l7,0.8v9L149,460.7v2.53c-4.51-.5-6.77-0.75-11.27-1.27v-2.53Zm3.49-11.7a1.44,1.44,0,0,1,.53-1.16,1.86,1.86,0,0,1,1.47-.34,2.5,2.5,0,0,1,1.54.68,1.77,1.77,0,0,1,.57,1.28,1.32,1.32,0,0,1-.57,1.14,2.17,2.17,0,0,1-1.54.3,2.37,2.37,0,0,1-1.47-.64A1.73,1.73,0,0,1,141.17,447.73Z"/><path class="cls-4" d="M152.17,452.86a11.54,11.54,0,0,1,2.12-.48,11.88,11.88,0,0,1,2.86,0,6.72,6.72,0,0,1,2,.5,3.92,3.92,0,0,1,1.36,1,3.55,3.55,0,0,1,.75,1.34,5.79,5.79,0,0,1,.23,1.68q0,1.17-.08,2t-0.08,1.46a10,10,0,0,0,0,1.09c0,0.21.05,0.43,0.07,0.63l1.49,0.15v2.53l-3.86-.4-0.3-1.6h-0.11a3.4,3.4,0,0,1-1.3,1.09,4.1,4.1,0,0,1-2.28.28,4.29,4.29,0,0,1-2.72-1.21,3.5,3.5,0,0,1-1-2.55,3.42,3.42,0,0,1,.35-1.63,2.54,2.54,0,0,1,1-1,4.41,4.41,0,0,1,1.62-.49,9.32,9.32,0,0,1,2.11,0q0.41,0,.87.14l1.12,0.21a2.3,2.3,0,0,0,0-.46v-0.44a1.63,1.63,0,0,0-.5-1.31,2.66,2.66,0,0,0-1.48-.54,6.7,6.7,0,0,0-2.1.08,12.19,12.19,0,0,0-1.57.43Zm3.91,8.86a2.58,2.58,0,0,0,1.64-.23,2.31,2.31,0,0,0,.8-0.78v-1.38l-0.68-.18a8.14,8.14,0,0,0-1-.16,4.64,4.64,0,0,0-.86,0,2.64,2.64,0,0,0-.77.17,1.29,1.29,0,0,0-.55.39,1,1,0,0,0-.2.65,1.45,1.45,0,0,0,.37,1A1.94,1.94,0,0,0,156.08,461.72Z"/><path class="cls-4" d="M165.89,448.91l4.9,0.49V460a5.2,5.2,0,0,0,.44,2.5,1.72,1.72,0,0,0,1.4.83,3.76,3.76,0,0,0,1.17,0,4,4,0,0,0,.92-0.34l1.13,2.18q-0.39.22-.78,0.4a4.59,4.59,0,0,1-.83.29,5.33,5.33,0,0,1-1,.14,7.53,7.53,0,0,1-1.16,0,4.78,4.78,0,0,1-3.24-1.42,4.68,4.68,0,0,1-1.08-3.24v-9.66l-1.91-.19v-2.53Z"/><path class="cls-4" d="M188.14,472a11.6,11.6,0,0,1-3.13-1.29,10.44,10.44,0,0,1-2.69-2.29,11,11,0,0,1-1.87-3.3,12.52,12.52,0,0,1-.7-4.34,11.46,11.46,0,0,1,.7-4.2,8.84,8.84,0,0,1,1.87-3,8.2,8.2,0,0,1,2.69-1.85,10.6,10.6,0,0,1,3.13-.8l0.55,2.51a8.9,8.9,0,0,0-1.83.49,5.88,5.88,0,0,0-1.94,1.23,6.8,6.8,0,0,0-1.55,2.26,9.26,9.26,0,0,0,1.66,9.78,8.16,8.16,0,0,0,2,1.58,8.65,8.65,0,0,0,1.7.76Z"/><path class="cls-4" d="M193.92,465.11l3.52,0.3V455.37l-3,2.06-1.38-2,5.25-3.55,2,0.17v13.57l3.45,0.28v2.53l-9.83-.83v-2.53Z"/><path class="cls-4" d="M207.72,466.26l3.52,0.28V456.49l-3,2.08-1.38-1.95,5.25-3.59,2,0.16v13.57l3.45,0.26v2.53l-9.83-.76v-2.53Z"/><path class="cls-4" d="M221.86,472.23a7.42,7.42,0,0,0,1.7-.49,6.52,6.52,0,0,0,2-1.26,7.16,7.16,0,0,0,1.62-2.27,8.17,8.17,0,0,0,.67-3.52,9.68,9.68,0,0,0-.63-3.72,8.48,8.48,0,0,0-1.55-2.51,7.41,7.41,0,0,0-1.95-1.54,10.35,10.35,0,0,0-1.83-.79l0.55-2.42a12.29,12.29,0,0,1,3.13,1.3,10.34,10.34,0,0,1,2.69,2.28,10.93,10.93,0,0,1,1.88,3.29,12.39,12.39,0,0,1,.7,4.31,11.58,11.58,0,0,1-.7,4.23,8.89,8.89,0,0,1-1.88,3,8.28,8.28,0,0,1-2.69,1.86,10.06,10.06,0,0,1-3.13.79Z"/><path class="cls-4" d="M373.51,475v-2.53h2.72V466h-2.74V463.5h2.74v-0.64a4.24,4.24,0,0,1,.38-1.87,3.78,3.78,0,0,1,1-1.29,4.14,4.14,0,0,1,1.44-.76,6,6,0,0,1,1.7-.25,10.78,10.78,0,0,1,2.62.24,6.63,6.63,0,0,1,1.7.64l-0.88,2.29a10.32,10.32,0,0,0-1.14-.45,5,5,0,0,0-1.58-.19,2.26,2.26,0,0,0-1.74.58,2.51,2.51,0,0,0-.5,1.69l4.84,0v2.53l-4.84,0v6.44l4.87,0v2.53C379.86,475,377.74,475,373.51,475Z"/><path class="cls-4" d="M387.79,464.16a12.76,12.76,0,0,1,2.13-.74,12.23,12.23,0,0,1,2.87-.34,6.35,6.35,0,0,1,2,.26,3.34,3.34,0,0,1,1.36.79,3,3,0,0,1,.75,1.25,5.49,5.49,0,0,1,.23,1.65q0,1.17-.08,2T397,470.52a9.83,9.83,0,0,0,0,1.08c0,0.21.05,0.42,0.07,0.62l1.5,0v2.53l-3.87.06-0.3-1.56h-0.11a4.06,4.06,0,0,1-1.31,1.25,4.41,4.41,0,0,1-2.29.55,3.85,3.85,0,0,1-2.73-.89,3.11,3.11,0,0,1-1-2.43,3.68,3.68,0,0,1,.35-1.67,3,3,0,0,1,1-1.16,5,5,0,0,1,1.63-.69,9.58,9.58,0,0,1,2.12-.25c0.27,0,.57,0,0.87,0l1.12,0.08a2.37,2.37,0,0,0,0-.46v-0.44a1.45,1.45,0,0,0-.5-1.25,2.43,2.43,0,0,0-1.49-.36,7,7,0,0,0-2.11.33,13.69,13.69,0,0,0-1.58.62Zm3.93,8.39a2.53,2.53,0,0,0,2.44-1.3v-1.38l-0.68-.09a7.91,7.91,0,0,0-1,0,4.76,4.76,0,0,0-.87.09,2.92,2.92,0,0,0-.78.26,1.54,1.54,0,0,0-.55.46,1.09,1.09,0,0,0-.2.67,1.29,1.29,0,0,0,.38,1A1.75,1.75,0,0,0,391.71,472.55Z"/><path class="cls-4" d="M412.15,473.34a6.8,6.8,0,0,1-2.21,1.12,9.81,9.81,0,0,1-2.65.42,7.46,7.46,0,0,1-2.66-.38,5.28,5.28,0,0,1-2-1.19,5.07,5.07,0,0,1-1.21-1.9,7.08,7.08,0,0,1-.42-2.48,6.53,6.53,0,0,1,.48-2.59,5.58,5.58,0,0,1,1.35-1.94,6,6,0,0,1,2-1.23,8,8,0,0,1,2.56-.46,9.43,9.43,0,0,1,2.42.24,11.09,11.09,0,0,1,1.73.53v4l-2.54.06V465.5a6.48,6.48,0,0,0-1.43-.13,4.39,4.39,0,0,0-1.28.22,3.21,3.21,0,0,0-1.13.64,3.36,3.36,0,0,0-.81,1.09,3.55,3.55,0,0,0-.31,1.55,3.51,3.51,0,0,0,.25,1.35,3.07,3.07,0,0,0,1.86,1.77,4.08,4.08,0,0,0,1.51.23,5.46,5.46,0,0,0,2.16-.42,9,9,0,0,0,1.26-.67Z"/><path class="cls-4" d="M416.07,465.37l-2.28.06c0-1,0-1.52,0-2.53l2.28-.06c0-1,0-1.57,0-2.62l3-.93c0,1.39,0,2.08,0,3.47l6-.18v2.53l-6,.18c0,1.32,0,2,0,3.29a3.87,3.87,0,0,0,.67,2.55,2.24,2.24,0,0,0,1.87.74,4,4,0,0,0,1.13-.18,4.42,4.42,0,0,0,.91-0.41,5.44,5.44,0,0,0,.74-0.53l0.61-.52,1.38,2a4.65,4.65,0,0,1-1,.87,8.7,8.7,0,0,1-1.27.71,8.25,8.25,0,0,1-1.42.49,6.84,6.84,0,0,1-1.45.2,4.85,4.85,0,0,1-3.89-1.33q-1.3-1.4-1.3-4.53v-3.29Z"/><path class="cls-4" d="M428,468.24a7.17,7.17,0,0,1,.44-2.59,5.44,5.44,0,0,1,3.17-3.2,7.53,7.53,0,0,1,2.5-.49,7.13,7.13,0,0,1,2.59.34,5.1,5.1,0,0,1,1.93,1.16,4.92,4.92,0,0,1,1.19,1.87,7.82,7.82,0,0,1,0,5.06,5.46,5.46,0,0,1-3.17,3.21,7.47,7.47,0,0,1-2.5.49,7.08,7.08,0,0,1-2.59-.35,5.11,5.11,0,0,1-1.93-1.17,4.94,4.94,0,0,1-1.19-1.88A7.22,7.22,0,0,1,428,468.24Zm3.09-.1a4.48,4.48,0,0,0,.21,1.4,3.29,3.29,0,0,0,.6,1.11,2.57,2.57,0,0,0,.94.71,2.85,2.85,0,0,0,1.27.22,3,3,0,0,0,2.18-.93,4.66,4.66,0,0,0,.06-5.26,2.61,2.61,0,0,0-2.24-.9,3.66,3.66,0,0,0-1.2.24,2.48,2.48,0,0,0-1,.67,3.24,3.24,0,0,0-.63,1.13A5,5,0,0,0,431.13,468.14Z"/><path class="cls-4" d="M442,471l2.86-.11v-6.44l-2.86.11V462l5.19-.21,0.35,1.5h0.09a6.51,6.51,0,0,1,1.48-1.33,3.78,3.78,0,0,1,1.94-.59,2.51,2.51,0,0,1,2.18.91,5.39,5.39,0,0,1,.79,3.34l-2.7.12a2.25,2.25,0,0,0-.24-1.2,0.81,0.81,0,0,0-.77-0.35,2.37,2.37,0,0,0-1.49.52,5,5,0,0,0-1,1.1c0,2,0,2.94,0,4.9l5-.22c0,1,0,1.52,0,2.53-4.34.19-6.52,0.29-10.86,0.46C442,472.48,442,472,442,471Z"/><path class="cls-4" d="M456.26,470.35l4.06-.19c0-2.58,0-3.86,0-6.44l-4.06.19v-2.53l7.05-.34c0,3.59,0,5.38,0,9l4.26-.22c0,1,0,1.52,0,2.53-4.53.24-6.79,0.35-11.32,0.56v-2.53Zm3.5-12.26a1.71,1.71,0,0,1,.53-1.24,2.52,2.52,0,0,1,3-.15,1.48,1.48,0,0,1,.58,1.19,1.57,1.57,0,0,1-.58,1.24,2.46,2.46,0,0,1-1.54.55,2.06,2.06,0,0,1-1.47-.4A1.47,1.47,0,0,1,459.76,458.09Z"/><path class="cls-4" d="M470.8,461.43a13.27,13.27,0,0,1,2.13-.83,12.43,12.43,0,0,1,2.87-.46,6.25,6.25,0,0,1,2,.17,3.16,3.16,0,0,1,1.36.74,2.87,2.87,0,0,1,.75,1.22,5.41,5.41,0,0,1,.23,1.64q0,1.17-.08,2T480,467.4a9.78,9.78,0,0,0,0,1.08c0,0.21.05,0.42,0.07,0.62l1.5-.09c0,1,0,1.52,0,2.53l-3.87.23-0.3-1.55h-0.11a4.32,4.32,0,0,1-1.31,1.3,4.54,4.54,0,0,1-2.29.65,3.71,3.71,0,0,1-2.73-.77,3,3,0,0,1-1-2.38,3.78,3.78,0,0,1,.35-1.69,3.22,3.22,0,0,1,1-1.21,5.2,5.2,0,0,1,1.63-.76,9.74,9.74,0,0,1,2.12-.34c0.27,0,.56,0,0.87,0l1.12,0a2.41,2.41,0,0,0,0-.46v-0.44a1.39,1.39,0,0,0-.5-1.23,2.36,2.36,0,0,0-1.49-.29,7.13,7.13,0,0,0-2.1.42,14.33,14.33,0,0,0-1.58.68Zm3.92,8.22a2.88,2.88,0,0,0,1.64-.49,3,3,0,0,0,.8-0.91v-1.38l-0.68-.06a7.91,7.91,0,0,0-1,0,4.85,4.85,0,0,0-.87.13,3,3,0,0,0-.77.3,1.64,1.64,0,0,0-.55.48,1.13,1.13,0,0,0-.2.68,1.24,1.24,0,0,0,.38,1A1.69,1.69,0,0,0,474.73,469.66Z"/><path class="cls-4" d="M484.56,455.26l4.91-.31c0,4.25,0,6.38,0,10.63a4.76,4.76,0,0,0,.44,2.43,1.44,1.44,0,0,0,1.41.6,4,4,0,0,0,1.17-.23,4.82,4.82,0,0,0,.92-0.49l1.13,2q-0.39.28-.78,0.52a5.47,5.47,0,0,1-.83.42,5.91,5.91,0,0,1-1,.29,7.73,7.73,0,0,1-1.16.16,4.13,4.13,0,0,1-3.25-.9,4,4,0,0,1-1.08-3.06c0-3.86,0-5.8,0-9.66l-1.91.12C484.56,456.78,484.56,456.27,484.56,455.26Z"/><path class="cls-4" d="M498.17,473.17c4.09-.28,6.14-0.42,10.22-0.72,0,1,0,1.48,0,2.46-4.09.3-6.13,0.44-10.22,0.72C498.17,474.65,498.17,474.16,498.17,473.17Z"/><path class="cls-4" d="M510.19,453.53l4.65-.35c0,2.36,0,3.53,0,5.89h0.09a4.34,4.34,0,0,1,1.47-1.29,5.76,5.76,0,0,1,3.78-.5,2.76,2.76,0,0,1,1.27.66,3.22,3.22,0,0,1,.83,1.37,7,7,0,0,1,.3,2.22v7.15l-3,.24v-6.53a2.67,2.67,0,0,0-.6-2,1.94,1.94,0,0,0-1.57-.5,2.81,2.81,0,0,0-1.56.64,3.13,3.13,0,0,0-1,1.4v7.34l-3,.23c0-5.43,0-8.14,0-13.57l-1.66.12C510.19,455,510.19,454.54,510.19,453.53Z"/><path class="cls-4" d="M536.29,466.3a4.63,4.63,0,0,1-.77.61,8.27,8.27,0,0,1-1.1.59,9.34,9.34,0,0,1-3,.76,7.59,7.59,0,0,1-2.63-.19,4.6,4.6,0,0,1-3.2-2.85,6.81,6.81,0,0,1-.43-2.51,7,7,0,0,1,.48-2.7,6,6,0,0,1,1.32-2,6.19,6.19,0,0,1,2-1.3,8,8,0,0,1,2.44-.59,7.38,7.38,0,0,1,1.81.08,4.52,4.52,0,0,1,1.71.65,3.75,3.75,0,0,1,1.28,1.4,4.85,4.85,0,0,1,.5,2.35,11.25,11.25,0,0,1-.23,2.16l-8.28.71a2.51,2.51,0,0,0,.31,1.22,2.18,2.18,0,0,0,.76.76,3,3,0,0,0,1.08.38,5.3,5.3,0,0,0,1.3,0,7,7,0,0,0,2.27-.52,5.36,5.36,0,0,0,1.44-.91Zm-5-7.78a4,4,0,0,0-1.13.26,3.5,3.5,0,0,0-1,.56,3,3,0,0,0-.7.84,2.58,2.58,0,0,0-.32,1.08l5.66-.48A2.07,2.07,0,0,0,531.32,458.52Z"/><path class="cls-4" d="M539.81,451.11l4.9-.44c0,4.25,0,6.38,0,10.63a4.69,4.69,0,0,0,.44,2.42,1.4,1.4,0,0,0,1.4.56,4,4,0,0,0,1.17-.26,5,5,0,0,0,.92-0.51l1.13,2q-0.39.29-.78,0.55a5.66,5.66,0,0,1-.83.45,6,6,0,0,1-1,.32A7.84,7.84,0,0,1,546,467a4,4,0,0,1-3.24-.81,3.94,3.94,0,0,1-1.08-3c0-3.86,0-5.8,0-9.66l-1.91.17C539.81,452.63,539.81,452.12,539.81,451.11Z"/><path class="cls-4" d="M551.61,454.62l3.91-.38,0.34,1.35H556a4.9,4.9,0,0,1,3.86-2.08,5.28,5.28,0,0,1,1.94.14,3.32,3.32,0,0,1,1.52.89,4.33,4.33,0,0,1,1,1.69,8.28,8.28,0,0,1,.34,2.56,8.83,8.83,0,0,1-.39,2.7,6.4,6.4,0,0,1-1.13,2.13,5.56,5.56,0,0,1-1.79,1.45,6.68,6.68,0,0,1-2.41.68,9.41,9.41,0,0,1-1.4,0,3.61,3.61,0,0,1-1.15-.22v4.71l-3,.29c0-5.43,0-8.14,0-13.57l-1.72.17v-2.53Zm7.31,1.5a3.3,3.3,0,0,0-1.6.59,2.59,2.59,0,0,0-1,1.41v4.78a2.22,2.22,0,0,0,.93.31,5,5,0,0,0,1.23,0,3.41,3.41,0,0,0,1.2-.34,2.82,2.82,0,0,0,1-.8,3.85,3.85,0,0,0,.64-1.28,6.23,6.23,0,0,0,.23-1.79,3.13,3.13,0,0,0-.74-2.27A2.17,2.17,0,0,0,558.92,456.12Z"/><path class="cls-4" d="M577.67,462.25a4.77,4.77,0,0,1-.77.62,8.44,8.44,0,0,1-1.1.61,9.45,9.45,0,0,1-3,.83,7.53,7.53,0,0,1-2.63-.14,4.46,4.46,0,0,1-3.19-2.79,6.75,6.75,0,0,1-.42-2.5,7.14,7.14,0,0,1,.48-2.71,6.13,6.13,0,0,1,1.32-2,6.36,6.36,0,0,1,2-1.34,8.1,8.1,0,0,1,2.44-.64,7.36,7.36,0,0,1,1.8,0,4.42,4.42,0,0,1,1.71.61,3.63,3.63,0,0,1,1.27,1.37,4.8,4.8,0,0,1,.49,2.34,11.35,11.35,0,0,1-.23,2.16l-8.27.88a2.47,2.47,0,0,0,.31,1.21,2.11,2.11,0,0,0,.76.75,3,3,0,0,0,1.08.36,5.27,5.27,0,0,0,1.3,0,7.12,7.12,0,0,0,2.26-.56,5.51,5.51,0,0,0,1.44-.94Zm-5-7.68a4,4,0,0,0-1.13.28,3.59,3.59,0,0,0-1,.58,3,3,0,0,0-.7.86,2.63,2.63,0,0,0-.32,1.09l5.65-.6A2,2,0,0,0,572.71,454.57Z"/><path class="cls-4" d="M580.08,460.67l2.85-.31v-6.44l-2.85.31V451.7l5.17-.57,0.34,1.48h0.09a7.21,7.21,0,0,1,1.47-1.43,4,4,0,0,1,1.93-.73,2.33,2.33,0,0,1,2.17.76,5.15,5.15,0,0,1,.79,3.29l-2.69.31a2.16,2.16,0,0,0-.24-1.18,0.75,0.75,0,0,0-.77-0.29,2.53,2.53,0,0,0-1.48.63,5.5,5.5,0,0,0-1,1.17V460l5-.57c0,1,0,1.52,0,2.53-4.33.5-6.49,0.74-10.82,1.22v-2.53Z"/><path class="cls-4" d="M603.41,465.38a9.68,9.68,0,0,1-3.12-.63A7.71,7.71,0,0,1,597.6,463a8.33,8.33,0,0,1-1.87-2.91,11.33,11.33,0,0,1-.7-4.2,12.71,12.71,0,0,1,.7-4.35,11.64,11.64,0,0,1,1.87-3.38,11.09,11.09,0,0,1,2.68-2.41,12.89,12.89,0,0,1,3.12-1.46L604,446.7a10.87,10.87,0,0,0-1.82.88,7.92,7.92,0,0,0-1.94,1.64,9.05,9.05,0,0,0-1.55,2.59,9.94,9.94,0,0,0-.63,3.75,8,8,0,0,0,.67,3.49,6.67,6.67,0,0,0,1.62,2.19,6.06,6.06,0,0,0,2,1.17,7.1,7.1,0,0,0,1.7.4Z"/><path class="cls-4" d="M609.16,457.26l3.51-.44V446.77l-3,2.7-1.38-1.67,5.23-4.66,2-.26v13.57L619,456v2.53l-9.79,1.25v-2.53Z"/><path class="cls-4" d="M625.49,456.21a1.81,1.81,0,0,1,.52-1.31,2.15,2.15,0,0,1,1.3-.63,2,2,0,0,1,1.9.57,2.89,2.89,0,0,1,.64,2,4.73,4.73,0,0,1-.4,1.94,6,6,0,0,1-1,1.61,6.83,6.83,0,0,1-1.43,1.21,6.65,6.65,0,0,1-1.57.74l-0.62-1.18a7.63,7.63,0,0,0,1.11-.54,5.42,5.42,0,0,0,1-.77,4.34,4.34,0,0,0,.77-1,2.74,2.74,0,0,0,.36-1.15,3,3,0,0,1-1.17.19,1.54,1.54,0,0,1-.79-0.26,1.25,1.25,0,0,1-.45-0.58A2.21,2.21,0,0,1,625.49,456.21Z"/><path class="cls-4" d="M636.67,453.63l3.5-.49V443.09l-3,2.75-1.37-1.65,5.22-4.73,2-.29v13.57l3.43-.49v2.53l-9.78,1.39v-2.53Z"/><path class="cls-4" d="M650.41,451.67l3.5-.52V441.1l-3,2.77-1.37-1.64,5.22-4.77,2-.3v13.57l3.43-.52v2.53c-3.91.59-5.86,0.88-9.77,1.45v-2.53Z"/><path class="cls-4" d="M664.45,454.46a9.23,9.23,0,0,0,1.69-.87,8.94,8.94,0,0,0,2-1.71,9.74,9.74,0,0,0,1.61-2.63,9.3,9.3,0,0,0,.66-3.67,8.67,8.67,0,0,0-.63-3.58,6.23,6.23,0,0,0-1.54-2.16,5.39,5.39,0,0,0-1.93-1.1,8.46,8.46,0,0,0-1.82-.38l0.55-2.55a10.08,10.08,0,0,1,3.11.6,7.47,7.47,0,0,1,2.67,1.68,8.13,8.13,0,0,1,1.86,2.87,11.17,11.17,0,0,1,.7,4.16,13,13,0,0,1-.7,4.39,11.93,11.93,0,0,1-1.86,3.42,11.42,11.42,0,0,1-2.67,2.46,12.34,12.34,0,0,1-3.11,1.49Z"/><path class="cls-4" d="M55.78,400.09v-2.53l2.7,0.43c0-2.58,0-3.86,0-6.44l-2.72-.43v-2.53L58.48,389v-0.64a3.87,3.87,0,0,1,.38-1.8,3,3,0,0,1,1-1.13,3.43,3.43,0,0,1,1.43-.53,5.72,5.72,0,0,1,1.68,0,11.54,11.54,0,0,1,2.6.66,7.88,7.88,0,0,1,1.68.91l-0.87,2.15a12.25,12.25,0,0,0-1.13-.63,5.45,5.45,0,0,0-1.57-.45,2,2,0,0,0-1.73.3,2.21,2.21,0,0,0-.49,1.61l4.8,0.74v2.53l-4.8-.74c0,2.58,0,3.86,0,6.44l4.82,0.74v2.53C62.08,401.08,60,400.75,55.78,400.09Z"/><path class="cls-4" d="M69.94,391.56a11.16,11.16,0,0,1,2.12-.39,11.8,11.8,0,0,1,2.85.12,6.9,6.9,0,0,1,2,.59,4.13,4.13,0,0,1,1.35,1,3.74,3.74,0,0,1,.74,1.37,5.92,5.92,0,0,1,.23,1.69q0,1.17-.08,2c-0.05.54-.08,1-0.08,1.46a10.06,10.06,0,0,0,0,1.09c0,0.21.05,0.43,0.07,0.63l1.49,0.22v2.53l-3.84-.56-0.3-1.61-0.11,0a3.19,3.19,0,0,1-1.3,1,4,4,0,0,1-2.27.18,4.47,4.47,0,0,1-2.71-1.33,3.66,3.66,0,0,1-1-2.59,3.35,3.35,0,0,1,.35-1.61,2.39,2.39,0,0,1,1-1,4.23,4.23,0,0,1,1.61-.42,9.25,9.25,0,0,1,2.1.09q0.41,0.06.86,0.17l1.11,0.26a2.28,2.28,0,0,0,0-.45v-0.44a1.7,1.7,0,0,0-.5-1.33,2.76,2.76,0,0,0-1.48-.6,6.64,6.64,0,0,0-2.09,0,11.76,11.76,0,0,0-1.57.36Zm3.89,9a2.52,2.52,0,0,0,1.63-.16,2.18,2.18,0,0,0,.79-0.75V398.3l-0.68-.2a8.29,8.29,0,0,0-1-.2,4.63,4.63,0,0,0-.86,0A2.55,2.55,0,0,0,73,398a1.21,1.21,0,0,0-.54.37,1,1,0,0,0-.2.64A1.51,1.51,0,0,0,72.6,400,2,2,0,0,0,73.83,400.58Z"/><path class="cls-4" d="M94.11,404.67a5.66,5.66,0,0,1-2.2.76,9.34,9.34,0,0,1-2.63,0,8.17,8.17,0,0,1-2.65-.81,6.55,6.55,0,0,1-1.95-1.51,6.3,6.3,0,0,1-1.2-2.09,7.69,7.69,0,0,1-.41-2.54,6,6,0,0,1,.48-2.51,4.43,4.43,0,0,1,1.34-1.72,4.87,4.87,0,0,1,2-.9,7.52,7.52,0,0,1,2.54,0,10.14,10.14,0,0,1,2.4.64,12.91,12.91,0,0,1,1.72.81c0,1.62,0,2.43,0,4l-2.52-.35v-2.12a6.9,6.9,0,0,0-1.42-.36,4.15,4.15,0,0,0-1.27,0,2.58,2.58,0,0,0-1.92,1.42,3.25,3.25,0,0,0-.31,1.5,3.85,3.85,0,0,0,.25,1.39,3.85,3.85,0,0,0,1.84,2.07,4.48,4.48,0,0,0,1.5.48,5.09,5.09,0,0,0,2.14-.07,7.32,7.32,0,0,0,1.25-.47Z"/><path class="cls-4" d="M98,397.34L95.74,397V394.5L98,394.81v-2.62l3-.45c0,1.39,0,2.08,0,3.47l6,0.8v2.53l-6-.8c0,1.32,0,2,0,3.29a4.39,4.39,0,0,0,.66,2.65,2.66,2.66,0,0,0,1.86,1,3.83,3.83,0,0,0,1.12,0,3.75,3.75,0,0,0,.91-0.26,4.34,4.34,0,0,0,.73-0.41l0.61-.43,1.38,2.25a3.67,3.67,0,0,1-1,.71,7.13,7.13,0,0,1-1.26.5,7.26,7.26,0,0,1-1.41.26,6.61,6.61,0,0,1-1.44,0,5.68,5.68,0,0,1-3.86-2A7.45,7.45,0,0,1,98,400.63C98,399.31,98,398.65,98,397.34Z"/><path class="cls-4" d="M109.9,402.14a6.65,6.65,0,0,1,.44-2.52,4.43,4.43,0,0,1,1.24-1.75,4.51,4.51,0,0,1,1.92-.94,7,7,0,0,1,2.49-.08,7.79,7.79,0,0,1,2.58.76,6.34,6.34,0,0,1,1.92,1.47,6.07,6.07,0,0,1,1.18,2.07,7.8,7.8,0,0,1,.4,2.53,6.68,6.68,0,0,1-.44,2.52,4.45,4.45,0,0,1-1.24,1.76,4.5,4.5,0,0,1-1.91.95A7,7,0,0,1,116,409a7.75,7.75,0,0,1-2.58-.77,6.36,6.36,0,0,1-1.92-1.48,6.11,6.11,0,0,1-1.18-2.07A7.82,7.82,0,0,1,109.9,402.14Zm3.07,0.4a4.85,4.85,0,0,0,.21,1.43,4,4,0,0,0,.6,1.2,3.25,3.25,0,0,0,.94.87,3.16,3.16,0,0,0,1.26.43,2.61,2.61,0,0,0,2.17-.58,3.34,3.34,0,0,0,.84-2.59,4.42,4.42,0,0,0-.78-2.66,3.09,3.09,0,0,0-2.23-1.26,3.41,3.41,0,0,0-1.19,0,2,2,0,0,0-1,.51,2.62,2.62,0,0,0-.63,1A4.71,4.71,0,0,0,113,402.54Z"/><path class="cls-4" d="M123.75,407.11l2.85,0.35c0-2.58,0-3.86,0-6.44l-2.85-.35v-2.53l5.16,0.63,0.34,1.56h0.09a5.1,5.1,0,0,1,1.47-1.09,3.38,3.38,0,0,1,1.93-.28,3,3,0,0,1,2.17,1.27,6,6,0,0,1,.79,3.47L133,403.4a2.49,2.49,0,0,0-.24-1.24,1,1,0,0,0-.77-0.47,2.08,2.08,0,0,0-1.48.28,3.9,3.9,0,0,0-1,.94c0,2,0,2.94,0,4.9l5,0.59v2.53c-4.32-.51-6.49-0.77-10.81-1.3v-2.53Z"/><path class="cls-4" d="M138,408.81l4,0.46c0-2.58,0-3.86,0-6.44l-4-.46c0-1,0-1.52,0-2.53l7,0.8c0,3.59,0,5.38,0,9l4.25,0.47c0,1,0,1.52,0,2.53-4.51-.49-6.77-0.75-11.27-1.27v-2.53Zm3.49-11.7A1.45,1.45,0,0,1,142,396a1.86,1.86,0,0,1,1.47-.34,2.5,2.5,0,0,1,1.54.68,1.76,1.76,0,0,1,.57,1.28,1.32,1.32,0,0,1-.57,1.14,2.17,2.17,0,0,1-1.54.3,2.37,2.37,0,0,1-1.47-.64A1.73,1.73,0,0,1,141.47,397.11Z"/><path class="cls-4" d="M152.47,402.24a11.55,11.55,0,0,1,2.13-.48,11.87,11.87,0,0,1,2.86,0,6.73,6.73,0,0,1,2,.5,3.91,3.91,0,0,1,1.36,1,3.55,3.55,0,0,1,.75,1.34,5.79,5.79,0,0,1,.23,1.68q0,1.17-.08,2c-0.05.55-.08,1-0.08,1.46a10,10,0,0,0,0,1.09c0,0.21.05,0.43,0.07,0.63l1.49,0.15c0,1,0,1.52,0,2.53l-3.86-.4-0.3-1.6H159a3.4,3.4,0,0,1-1.3,1.09,4.1,4.1,0,0,1-2.28.28,4.29,4.29,0,0,1-2.72-1.21,3.5,3.5,0,0,1-1-2.55,3.43,3.43,0,0,1,.35-1.63,2.55,2.55,0,0,1,1-1,4.41,4.41,0,0,1,1.62-.49,9.3,9.3,0,0,1,2.11,0q0.41,0,.87.14l1.12,0.21a2.3,2.3,0,0,0,0-.46V406a1.63,1.63,0,0,0-.5-1.31,2.67,2.67,0,0,0-1.48-.54,6.7,6.7,0,0,0-2.1.08,12.24,12.24,0,0,0-1.57.43Zm3.91,8.86a2.58,2.58,0,0,0,1.64-.23,2.32,2.32,0,0,0,.8-0.78v-1.38l-0.68-.18a8.11,8.11,0,0,0-1-.16,4.64,4.64,0,0,0-.86,0,2.64,2.64,0,0,0-.77.17,1.29,1.29,0,0,0-.55.39,1,1,0,0,0-.2.65,1.45,1.45,0,0,0,.37,1A1.94,1.94,0,0,0,156.38,411.1Z"/><path class="cls-4" d="M166.19,398.29l4.9,0.49c0,4.25,0,6.38,0,10.63a5.19,5.19,0,0,0,.44,2.5,1.72,1.72,0,0,0,1.4.83,3.77,3.77,0,0,0,1.17,0,4,4,0,0,0,.92-0.34l1.13,2.18q-0.39.22-.78,0.4a4.58,4.58,0,0,1-.83.29,5.28,5.28,0,0,1-1,.14,7.5,7.5,0,0,1-1.16,0,4.78,4.78,0,0,1-3.24-1.42,4.68,4.68,0,0,1-1.08-3.24c0-3.86,0-5.8,0-9.66l-1.91-.19v-2.53Z"/><path class="cls-4" d="M179.77,418.41c4.08,0.38,6.13.57,10.21,0.93,0,1,0,1.48,0,2.46-4.09-.36-6.13-0.55-10.21-0.93v-2.46Z"/><path class="cls-4" d="M191.78,400.71l4.65,0.4c0,2.35,0,3.53,0,5.89h0.09a3.45,3.45,0,0,1,1.47-1,4.82,4.82,0,0,1,2.16-.26,5.64,5.64,0,0,1,1.61.36,3.41,3.41,0,0,1,1.27.86,4,4,0,0,1,.83,1.51,7.5,7.5,0,0,1,.3,2.27c0,2.86,0,4.29,0,7.15l-3-.25c0-2.61,0-3.92,0-6.53a3,3,0,0,0-.6-2.07,2.27,2.27,0,0,0-1.57-.75,2.44,2.44,0,0,0-1.56.39,2.5,2.5,0,0,0-1,1.24c0,2.93,0,4.4,0,7.34l-3-.26c0-5.43,0-8.14,0-13.57l-1.66-.14v-2.53Z"/><path class="cls-4" d="M217.88,417.71a3.71,3.71,0,0,1-.77.48,6.86,6.86,0,0,1-1.11.41,8.1,8.1,0,0,1-1.39.26,8.81,8.81,0,0,1-1.61,0,8.15,8.15,0,0,1-2.64-.62,5.76,5.76,0,0,1-3.2-3.37,7.37,7.37,0,0,1-.43-2.58,6.47,6.47,0,0,1,.48-2.62,4.76,4.76,0,0,1,1.32-1.79,5,5,0,0,1,2-1,7.43,7.43,0,0,1,2.44-.19,7.86,7.86,0,0,1,1.81.37,5.42,5.42,0,0,1,1.72.92,4.76,4.76,0,0,1,1.28,1.6,5.36,5.36,0,0,1,.49,2.43,10.68,10.68,0,0,1-.23,2.12l-8.29-.63a2.81,2.81,0,0,0,.31,1.27,2.74,2.74,0,0,0,.76.89,3.59,3.59,0,0,0,1.08.56,5.58,5.58,0,0,0,1.3.25,6.55,6.55,0,0,0,2.27-.15,4.38,4.38,0,0,0,1.44-.67Zm-5-8.59a3.7,3.7,0,0,0-1.13.08,2.88,2.88,0,0,0-1,.41,2.35,2.35,0,0,0-.7.73,2.27,2.27,0,0,0-.32,1l5.66,0.44A2.48,2.48,0,0,0,212.91,409.12Z"/><path class="cls-4" d="M221.4,403.09l4.9,0.35c0,4.25,0,6.38,0,10.63a5.11,5.11,0,0,0,.44,2.49,1.66,1.66,0,0,0,1.41.79,3.8,3.8,0,0,0,1.17-.07,4.16,4.16,0,0,0,.92-0.36l1.13,2.15q-0.39.23-.78,0.42a4.71,4.71,0,0,1-.83.31,5.41,5.41,0,0,1-1,.16,7.53,7.53,0,0,1-1.16,0,4.65,4.65,0,0,1-3.25-1.33,4.56,4.56,0,0,1-1.08-3.21c0-3.86,0-5.8,0-9.66l-1.91-.14v-2.53Z"/><path class="cls-4" d="M233.21,408.51l3.92,0.26,0.35,1.4h0.09a4.14,4.14,0,0,1,3.87-1.46,5.7,5.7,0,0,1,1.95.45,4.15,4.15,0,0,1,1.52,1.14,5.31,5.31,0,0,1,1,1.85,8.81,8.81,0,0,1,.35,2.62,8.21,8.21,0,0,1-.39,2.63,5.22,5.22,0,0,1-1.13,1.94,4.45,4.45,0,0,1-1.8,1.15,6.11,6.11,0,0,1-2.42.29,9.64,9.64,0,0,1-1.4-.19,4.08,4.08,0,0,1-1.15-.41c0,1.89,0,2.83,0,4.71l-3-.19c0-5.43,0-8.14,0-13.57l-1.73-.11C233.21,410,233.21,409.52,233.21,408.51Zm7.33,2.68a2.92,2.92,0,0,0-1.6.33,2.08,2.08,0,0,0-1,1.25c0,1.91,0,2.87,0,4.78a2.65,2.65,0,0,0,.93.46,5.3,5.3,0,0,0,1.23.23,3.13,3.13,0,0,0,1.2-.14,2.25,2.25,0,0,0,1-.64,3.16,3.16,0,0,0,.64-1.18,5.83,5.83,0,0,0,.23-1.76,3.59,3.59,0,0,0-.74-2.39A2.56,2.56,0,0,0,240.54,411.19Z"/><path class="cls-4" d="M259.34,420.36a3.8,3.8,0,0,1-.77.5,7,7,0,0,1-1.11.44,8.21,8.21,0,0,1-1.39.29,8.82,8.82,0,0,1-1.61,0,8.08,8.08,0,0,1-2.64-.56,5.6,5.6,0,0,1-3.2-3.3,7.29,7.29,0,0,1-.43-2.57,6.54,6.54,0,0,1,.48-2.63,4.9,4.9,0,0,1,1.32-1.82,5.16,5.16,0,0,1,2-1,7.49,7.49,0,0,1,2.44-.24,7.76,7.76,0,0,1,1.81.33,5.29,5.29,0,0,1,1.72.89,4.61,4.61,0,0,1,1.28,1.58,5.28,5.28,0,0,1,.5,2.42,10.75,10.75,0,0,1-.23,2.13l-8.3-.46a2.77,2.77,0,0,0,.31,1.26,2.66,2.66,0,0,0,.76.87,3.49,3.49,0,0,0,1.08.53,5.53,5.53,0,0,0,1.3.22,6.6,6.6,0,0,0,2.27-.2,4.5,4.5,0,0,0,1.44-.7Zm-5-8.48a3.74,3.74,0,0,0-1.13.1,3,3,0,0,0-1,.43,2.41,2.41,0,0,0-.7.75,2.29,2.29,0,0,0-.32,1l5.67,0.32A2.42,2.42,0,0,0,254.36,411.87Z"/><path class="cls-4" d="M261.76,419.17l2.86,0.15c0-2.58,0-3.86,0-6.44l-2.86-.15c0-1,0-1.52,0-2.53l5.19,0.26,0.35,1.53h0.09a5.68,5.68,0,0,1,1.48-1.19,3.54,3.54,0,0,1,1.94-.41,2.76,2.76,0,0,1,2.18,1.11,5.74,5.74,0,0,1,.79,3.42l-2.7-.13a2.38,2.38,0,0,0-.24-1.22,0.9,0.9,0,0,0-.77-0.42,2.2,2.2,0,0,0-1.49.39,4.34,4.34,0,0,0-1,1c0,2,0,2.94,0,4.9l5,0.24c0,1,0,1.52,0,2.53-4.34-.2-6.51-0.31-10.86-0.54C261.76,420.69,261.76,420.18,261.76,419.17Z"/><path class="cls-4" d="M285.18,427.66a11.07,11.07,0,0,1-3.14-1.14,9.71,9.71,0,0,1-2.7-2.16,10.3,10.3,0,0,1-1.88-3.21,12.2,12.2,0,0,1-.7-4.31,11.71,11.71,0,0,1,.7-4.24,9.44,9.44,0,0,1,1.88-3.08,8.8,8.8,0,0,1,2.7-2,11.07,11.07,0,0,1,3.14-1l0.55,2.48a9.31,9.31,0,0,0-1.83.58A6.32,6.32,0,0,0,282,411a7.28,7.28,0,0,0-1.56,2.34,9.12,9.12,0,0,0-.63,3.65,8.69,8.69,0,0,0,.67,3.59,8.35,8.35,0,0,0,1.63,2.45,7.61,7.61,0,0,0,2,1.48,8.22,8.22,0,0,0,1.71.68Z"/><path class="cls-4" d="M291,420.48l3.53,0.13c0-4,0-6,0-10.05l-3,2.21-1.38-1.89,5.26-3.81,2,0.07c0,5.43,0,8.14,0,13.57l3.46,0.11v2.53L291,423C291,422,291,421.49,291,420.48Z"/><path class="cls-4" d="M307.39,422.08a1.53,1.53,0,0,1,.52-1.23,1.85,1.85,0,0,1,1.3-.42,2.35,2.35,0,0,1,1.91.88,3.3,3.3,0,0,1,.65,2.06,4.27,4.27,0,0,1-.4,1.88,4.79,4.79,0,0,1-1,1.44,5.45,5.45,0,0,1-1.44,1,5.72,5.72,0,0,1-1.58.48l-0.62-1.28a6.56,6.56,0,0,0,1.12-.36,4.36,4.36,0,0,0,1-.6,3.43,3.43,0,0,0,.77-0.86,2.38,2.38,0,0,0,.36-1.09,2.94,2.94,0,0,1-1.18,0,1.84,1.84,0,0,1-.8-0.39,1.56,1.56,0,0,1-.45-0.66A2.38,2.38,0,0,1,307.39,422.08Z"/><path class="cls-4" d="M318.65,421.31l3.53,0.08V411.34l-3,2.26-1.38-1.87,5.26-3.88,2,0c0,5.43,0,8.14,0,13.57l3.46,0.07V424l-9.85-.2C318.65,422.83,318.65,422.33,318.65,421.31Z"/><path class="cls-4" d="M332.49,421.59l3.53,0.05V411.59l-3,2.28L331.59,412l5.26-3.92,2,0v13.57l3.46,0v2.53l-9.85-.13v-2.53Z"/><path class="cls-4" d="M346.65,426.66a7.87,7.87,0,0,0,1.71-.59,7.13,7.13,0,0,0,2-1.39,7.81,7.81,0,0,0,1.63-2.37,8.45,8.45,0,0,0,.67-3.56,9.36,9.36,0,0,0-.63-3.68,7.78,7.78,0,0,0-1.56-2.41,6.78,6.78,0,0,0-1.95-1.42,9.72,9.72,0,0,0-1.83-.67l0.55-2.46a11.56,11.56,0,0,1,3.14,1.11,9.44,9.44,0,0,1,2.7,2.11,10.06,10.06,0,0,1,1.88,3.17,13.33,13.33,0,0,1,0,8.54,9.67,9.67,0,0,1-1.88,3.12,9.08,9.08,0,0,1-2.7,2,10.63,10.63,0,0,1-3.14,1Z"/><path class="cls-4" d="M510.79,416.41l2.85-.21c0-2.58,0-3.86,0-6.44l-2.85.21v-2.53L516,407l0.35,1.49h0.09a6.84,6.84,0,0,1,1.47-1.38,3.88,3.88,0,0,1,1.93-.66,2.42,2.42,0,0,1,2.18.84,5.26,5.26,0,0,1,.79,3.32l-2.69.21a2.2,2.2,0,0,0-.24-1.19,0.78,0.78,0,0,0-.77-0.32,2.45,2.45,0,0,0-1.48.58,5.22,5.22,0,0,0-1,1.13V416l5-.39c0,1,0,1.52,0,2.53-4.34.35-6.5,0.51-10.84,0.84v-2.53Z"/><path class="cls-4" d="M536,415.68a4.64,4.64,0,0,1-.77.61,8.27,8.27,0,0,1-1.1.59,9.33,9.33,0,0,1-3,.76,7.59,7.59,0,0,1-2.63-.19,4.6,4.6,0,0,1-3.2-2.85,6.82,6.82,0,0,1-.43-2.51,7.05,7.05,0,0,1,.48-2.7,6,6,0,0,1,1.32-2,6.19,6.19,0,0,1,2-1.3,8,8,0,0,1,2.44-.59,7.4,7.4,0,0,1,1.81.08,4.52,4.52,0,0,1,1.71.65,3.75,3.75,0,0,1,1.28,1.4,4.85,4.85,0,0,1,.5,2.35,11.26,11.26,0,0,1-.23,2.16l-8.28.71a2.51,2.51,0,0,0,.31,1.22,2.18,2.18,0,0,0,.76.76,3,3,0,0,0,1.08.38,5.3,5.3,0,0,0,1.3,0,7,7,0,0,0,2.27-.51,5.36,5.36,0,0,0,1.44-.91Zm-5-7.78a4,4,0,0,0-1.13.26,3.49,3.49,0,0,0-1,.56,3,3,0,0,0-.7.84,2.58,2.58,0,0,0-.32,1.08l5.66-.48A2.07,2.07,0,0,0,531,407.9Z"/><path class="cls-4" d="M550.07,414.52a7.39,7.39,0,0,1-2.21,1.28,10.13,10.13,0,0,1-2.64.6,7.24,7.24,0,0,1-2.66-.19,4.82,4.82,0,0,1-2-1.05,4.63,4.63,0,0,1-1.21-1.81,7.39,7.39,0,0,1,.07-5.07,6.15,6.15,0,0,1,1.35-2,6.56,6.56,0,0,1,2-1.37,8.31,8.31,0,0,1,2.55-.64,9.25,9.25,0,0,1,2.41.07,10.47,10.47,0,0,1,1.73.41c0,1.62,0,2.43,0,4L547,409v-2.12a6.35,6.35,0,0,0-1.43,0,4.54,4.54,0,0,0-1.28.31,3.51,3.51,0,0,0-1.13.72,3.61,3.61,0,0,0-1.12,2.71,3.39,3.39,0,0,0,.25,1.33,2.78,2.78,0,0,0,1.85,1.64,4,4,0,0,0,1.51.13,5.68,5.68,0,0,0,2.15-.57,9.75,9.75,0,0,0,1.25-.76Z"/><path class="cls-4" d="M558.9,403.26l4.28-.43c0,3.2,0,4.8,0,8v1l1.75-.18v2.53l-3.63.37-0.53-1.65h-0.09a4.7,4.7,0,0,1-1.59,1.61,5.23,5.23,0,0,1-2.35.81,5.11,5.11,0,0,1-1.6-.07,2.55,2.55,0,0,1-1.23-.64,3.12,3.12,0,0,1-.78-1.35,7.5,7.5,0,0,1-.28-2.23v-4.62l-1.31.13c0-1,0-1.52,0-2.53l4.3-.41c0,2.61,0,3.92,0,6.53a3.31,3.31,0,0,0,.45,2,1.48,1.48,0,0,0,1.41.48,2.74,2.74,0,0,0,1.53-.66,3.12,3.12,0,0,0,1-1.34v-4.9l-1.29.13C558.9,404.78,558.9,404.28,558.9,403.26Z"/><path class="cls-4" d="M566,411.52l2.85-.29v-6.44l-2.85.29v-2.53l5.17-.54,0.34,1.48h0.09a7.13,7.13,0,0,1,1.47-1.42,4,4,0,0,1,1.93-.71,2.35,2.35,0,0,1,2.17.78,5.17,5.17,0,0,1,.79,3.29l-2.69.29a2.17,2.17,0,0,0-.24-1.18,0.76,0.76,0,0,0-.77-0.3,2.51,2.51,0,0,0-1.48.62,5.44,5.44,0,0,0-1,1.16v4.9l5-.53c0,1,0,1.52,0,2.53-4.33.47-6.49,0.7-10.82,1.14v-2.53Z"/><path class="cls-4" d="M589.33,416.39a9.74,9.74,0,0,1-3.12-.66,7.79,7.79,0,0,1-2.69-1.74,8.4,8.4,0,0,1-1.87-2.92,11.36,11.36,0,0,1-.7-4.2,12.66,12.66,0,0,1,.7-4.34,11.54,11.54,0,0,1,1.87-3.37,11,11,0,0,1,2.69-2.4,12.82,12.82,0,0,1,3.12-1.44l0.55,2.4a10.8,10.8,0,0,0-1.82.87,7.85,7.85,0,0,0-1.94,1.62,9,9,0,0,0-1.55,2.58,9.9,9.9,0,0,0-.63,3.75,8,8,0,0,0,.67,3.49,6.74,6.74,0,0,0,1.62,2.2,6.12,6.12,0,0,0,2,1.18,7.15,7.15,0,0,0,1.7.41Z"/><path class="cls-4" d="M595.1,408.31l3.51-.42c0-4,0-6,0-10.05l-3,2.68-1.38-1.68,5.23-4.62,2-.24c0,5.43,0,8.14,0,13.57l3.44-.42c0,1,0,1.52,0,2.53-3.92.48-5.88,0.72-9.8,1.18v-2.53Z"/><path class="cls-4" d="M608.86,406.64l3.51-.44c0-4,0-6,0-10.05l-3,2.7L608,397.19l5.23-4.66,2-.26c0,5.43,0,8.14,0,13.57l3.44-.44c0,1,0,1.52,0,2.53l-9.79,1.25v-2.53Z"/><path class="cls-4" d="M625.19,405.59a1.81,1.81,0,0,1,.52-1.31,2.16,2.16,0,0,1,1.3-.63,2,2,0,0,1,1.9.57,2.89,2.89,0,0,1,.64,2,4.73,4.73,0,0,1-.4,1.94,6,6,0,0,1-1,1.61,6.83,6.83,0,0,1-1.43,1.21,6.65,6.65,0,0,1-1.57.74l-0.62-1.18a7.63,7.63,0,0,0,1.11-.54,5.42,5.42,0,0,0,1-.77,4.34,4.34,0,0,0,.77-1,2.74,2.74,0,0,0,.36-1.15,3,3,0,0,1-1.17.19,1.54,1.54,0,0,1-.79-0.26,1.25,1.25,0,0,1-.45-0.58A2.21,2.21,0,0,1,625.19,405.59Z"/><path class="cls-4" d="M636.37,403l3.5-.49c0-4,0-6,0-10.05l-3,2.75-1.37-1.65,5.22-4.73,2-.29c0,5.43,0,8.14,0,13.57l3.43-.49v2.53c-3.91.56-5.87,0.84-9.78,1.39C636.37,404.53,636.37,404,636.37,403Z"/><path class="cls-4" d="M648.55,395.73A14.54,14.54,0,0,1,649,392a8.93,8.93,0,0,1,1.23-2.79,6.32,6.32,0,0,1,1.9-1.83,6.43,6.43,0,0,1,2.46-.88,4.61,4.61,0,0,1,4.46,1.37q1.56,1.8,1.56,6.08a14.65,14.65,0,0,1-.44,3.76,9.13,9.13,0,0,1-1.23,2.81,6.26,6.26,0,0,1-1.91,1.85,6.49,6.49,0,0,1-2.47.89,4.45,4.45,0,0,1-4.46-1.49Q648.55,399.83,648.55,395.73Zm3-.44c0,0.23,0,.45,0,0.65s0,0.42,0,.63l5.54-6a2.16,2.16,0,0,0-2.56-1.59,3,3,0,0,0-2.24,1.75A10.22,10.22,0,0,0,651.53,395.3Zm6.09-.91q0-.37,0-0.7c0-.22,0-0.44,0-0.65L652,399a2.2,2.2,0,0,0,2.57,1.71,3,3,0,0,0,2.25-1.74A10.25,10.25,0,0,0,657.61,394.39Z"/><path class="cls-4" d="M664.15,403.84a9.23,9.23,0,0,0,1.69-.87,8.93,8.93,0,0,0,2-1.71,9.74,9.74,0,0,0,1.61-2.63,9.3,9.3,0,0,0,.66-3.67,8.67,8.67,0,0,0-.63-3.58,6.23,6.23,0,0,0-1.54-2.16,5.4,5.4,0,0,0-1.93-1.1,8.44,8.44,0,0,0-1.82-.38l0.55-2.55a10.08,10.08,0,0,1,3.11.6,7.47,7.47,0,0,1,2.67,1.68,8.12,8.12,0,0,1,1.86,2.87,11.17,11.17,0,0,1,.7,4.16,13,13,0,0,1-.7,4.39,11.92,11.92,0,0,1-1.86,3.42,11.41,11.41,0,0,1-2.67,2.47,12.34,12.34,0,0,1-3.11,1.49Z"/></svg>