<svg id="Layer_1" data-name="Layer 1" xmlns="http://www.w3.org/2000/svg" viewBox="0 0 720 576"><defs><style>.cls-1,.cls-2,.cls-4,.cls-6{fill:#231f20;}.cls-1,.cls-3{stroke:#231f20;}.cls-1,.cls-6{stroke-miterlimit:10;}.cls-2{stroke:#000;}.cls-2,.cls-3{stroke-linecap:round;stroke-linejoin:round;stroke-width:2px;}.cls-3,.cls-5{fill:#fff;}.cls-6{stroke:#fff;}</style></defs><title>Hanoi_Tower_Set_2</title><path class="cls-1" d="M655.52,523.53c0-.14,0-0.29,0-0.43s0-.29,0-0.43V470.88H63.69s-0.23,51.74-.23,52.22c0,2.67,2.12,5.24,6.08,7.71,13.87,8.61,50.58,16.11,101.74,21.48s116.73,8.59,188.22,8.59c81.71,0,155.68-4.21,209.24-11,26.78-3.41,48.45-7.46,63.44-12,7.5-2.25,13.32-4.62,17.29-7.08,3.38-2.1,5.41-4.29,5.94-6.55h0.1v-0.73Z"/><ellipse class="cls-2" cx="359.51" cy="471.96" rx="295.87" ry="37.63"/><path class="cls-3" d="M655.52,472.05c0-.14,0-0.29,0-0.43s0-.29,0-0.43V419.4H63.69s-0.23,51.74-.23,52.22c0,2.67,2.12,5.24,6.08,7.71,13.87,8.61,50.58,16.11,101.74,21.48S288,509.4,359.51,509.4c81.71,0,155.68-4.21,209.24-11,26.78-3.41,48.45-7.46,63.44-12,7.5-2.25,13.32-4.62,17.29-7.08,3.38-2.1,5.41-4.29,5.94-6.55h0.1v-0.73Z"/><ellipse class="cls-3" cx="359.51" cy="420.49" rx="295.87" ry="37.63"/><path class="cls-3" d="M655.52,420.58c0-.14,0-0.29,0-0.43s0-.29,0-0.43V367.93H63.69s-0.23,51.74-.23,52.22c0,2.67,2.12,5.24,6.08,7.71,13.87,8.61,50.58,16.11,101.74,21.48s116.73,8.59,188.22,8.59c81.71,0,155.68-4.21,209.24-11,26.78-3.41,48.45-7.46,63.44-12,7.5-2.25,13.32-4.62,17.29-7.08,3.38-2.1,5.41-4.29,5.94-6.55h0.1v-0.73Z"/><ellipse class="cls-3" cx="359.51" cy="369.01" rx="295.87" ry="37.63"/><path class="cls-4" d="M359.5,377.26c-16,0-29-3.75-30.2-8.61h-0.08l0-.5V25.32h60.63V368.65h-0.12C388.48,373.51,375.48,377.26,359.5,377.26Z"/><path class="cls-5" d="M389.33,25.82V368.15h0c-0.49,4.78-13.63,8.61-29.79,8.61s-29.3-3.83-29.79-8.61h0v-0.21s0,0,0-.06,0,0,0-.06v-342h59.63m1-1H328.7v343s0,0.07,0,.11v1.27h0.23c2,5.6,16.84,8.61,30.58,8.61s28.6-3,30.58-8.61h0.21l0-1V24.82h0Z"/><ellipse class="cls-6" cx="359.5" cy="25.93" rx="29.81" ry="8.89"/><path d="M113.89,475.79v-2.86l3.05,0.43c0-2.91,0-4.37,0-7.28l-3.08-.44v-2.86l3.08,0.44v-0.73a4.42,4.42,0,0,1,.43-2,3.46,3.46,0,0,1,1.13-1.3,3.94,3.94,0,0,1,1.62-.62,6.47,6.47,0,0,1,1.9,0,12.94,12.94,0,0,1,2.94.7,8.77,8.77,0,0,1,1.9,1l-1,2.44a13.85,13.85,0,0,0-1.28-.69,6.11,6.11,0,0,0-1.77-.48,2.26,2.26,0,0,0-2,.37,2.53,2.53,0,0,0-.56,1.83l5.44,0.74v2.86l-5.44-.74c0,2.91,0,4.37,0,7.28l5.46,0.75v2.86C121,476.79,118.64,476.47,113.89,475.79Z"/><path d="M129.91,465.88a12.91,12.91,0,0,1,2.4-.49,13.36,13.36,0,0,1,3.22.08,7.69,7.69,0,0,1,2.29.62,4.57,4.57,0,0,1,1.53,1.12,4.12,4.12,0,0,1,.84,1.54,6.63,6.63,0,0,1,.26,1.9q0,1.33-.09,2.25t-0.09,1.65a11.32,11.32,0,0,0,.05,1.23c0,0.24.06,0.48,0.08,0.71l1.68,0.21c0,1.14,0,1.72,0,2.86l-4.35-.55-0.34-1.81-0.13,0a3.71,3.71,0,0,1-1.47,1.2,4.59,4.59,0,0,1-2.57.25,5,5,0,0,1-3.06-1.44,4.06,4.06,0,0,1-1.13-2.91,3.82,3.82,0,0,1,.4-1.83,2.77,2.77,0,0,1,1.16-1.15,4.87,4.87,0,0,1,1.83-.51,10.51,10.51,0,0,1,2.38.06q0.46,0.06,1,.18l1.26,0.27a2.59,2.59,0,0,0,.05-0.51V470.3a1.89,1.89,0,0,0-.57-1.49,3.07,3.07,0,0,0-1.67-.65,7.52,7.52,0,0,0-2.37,0,13.56,13.56,0,0,0-1.77.44ZM134.31,476a2.87,2.87,0,0,0,1.84-.22,2.52,2.52,0,0,0,.9-0.86v-1.56l-0.77-.22a9.31,9.31,0,0,0-1.1-.21,5.25,5.25,0,0,0-1,0,3,3,0,0,0-.87.17,1.42,1.42,0,0,0-.61.43,1.1,1.1,0,0,0-.23.72,1.68,1.68,0,0,0,.42,1.19A2.24,2.24,0,0,0,134.31,476Z"/><path d="M157.27,480.16a6.52,6.52,0,0,1-2.49.92,10.56,10.56,0,0,1-3,0,9.08,9.08,0,0,1-3-.86,7.2,7.2,0,0,1-2.2-1.66,6.93,6.93,0,0,1-1.36-2.34,8.6,8.6,0,0,1-.47-2.87,6.87,6.87,0,0,1,.54-2.84,5.17,5.17,0,0,1,1.52-2,5.64,5.64,0,0,1,2.29-1.06,8.54,8.54,0,0,1,2.88-.11,11.35,11.35,0,0,1,2.72.66,14.32,14.32,0,0,1,1.94.88v4.58l-2.85-.34v-2.39a7.74,7.74,0,0,0-1.61-.37,4.71,4.71,0,0,0-1.44,0,3,3,0,0,0-2.18,1.65,3.71,3.71,0,0,0-.35,1.7,4.26,4.26,0,0,0,2.37,3.86,5,5,0,0,0,1.7.5,5.8,5.8,0,0,0,2.42-.13,8.51,8.51,0,0,0,1.41-.56Z"/><path d="M161.68,471.78l-2.57-.3v-2.86l2.57,0.3v-3l3.37-.58v3.93l6.8,0.75v2.86l-6.8-.75v3.72a4.87,4.87,0,0,0,.75,3,2.93,2.93,0,0,0,2.1,1.13,4.25,4.25,0,0,0,2.3-.35,5.06,5.06,0,0,0,.83-0.48l0.69-.5,1.56,2.51a4.25,4.25,0,0,1-1.1.83,8.28,8.28,0,0,1-3,.93,7.46,7.46,0,0,1-1.63,0,6.27,6.27,0,0,1-4.37-2.12,8.27,8.27,0,0,1-1.47-5.33C161.68,474,161.68,473.27,161.68,471.78Z"/><path d="M175.15,476.91a7.62,7.62,0,0,1,.49-2.86,5.18,5.18,0,0,1,1.4-2,5.25,5.25,0,0,1,2.17-1.11,8,8,0,0,1,2.82-.16,8.68,8.68,0,0,1,2.92.79,6.94,6.94,0,0,1,2.17,1.61,6.66,6.66,0,0,1,1.34,2.3,8.71,8.71,0,0,1,.45,2.85,7.64,7.64,0,0,1-.49,2.86,5.09,5.09,0,0,1-3.57,3.14,8,8,0,0,1-2.82.17,8.61,8.61,0,0,1-2.92-.8,6.94,6.94,0,0,1-2.17-1.62,6.71,6.71,0,0,1-1.34-2.31A8.74,8.74,0,0,1,175.15,476.91Zm3.48,0.37a5.42,5.42,0,0,0,.23,1.61,4.43,4.43,0,0,0,.68,1.34,3.44,3.44,0,0,0,2.49,1.4,3,3,0,0,0,2.45-.71,3.85,3.85,0,0,0,.95-2.95,4.89,4.89,0,0,0-.88-3,3.4,3.4,0,0,0-2.52-1.36,3.9,3.9,0,0,0-1.35.08,2.31,2.31,0,0,0-1.08.6,3.06,3.06,0,0,0-.71,1.17A5.36,5.36,0,0,0,178.63,477.27Z"/><path d="M190.83,482.14l3.22,0.31v-7.28l-3.22-.31c0-1.14,0-1.72,0-2.86l5.84,0.56,0.39,1.75h0.1a6,6,0,0,1,1.66-1.27,3.89,3.89,0,0,1,2.18-.37,3.27,3.27,0,0,1,2.46,1.37,6.68,6.68,0,0,1,.9,3.9l-3-.27a2.77,2.77,0,0,0-.27-1.39,1.06,1.06,0,0,0-.87-0.51,2.4,2.4,0,0,0-1.68.37,4.57,4.57,0,0,0-1.08,1.09v5.54l5.64,0.52v2.86c-4.9-.44-7.34-0.67-12.24-1.15C190.83,483.86,190.83,483.29,190.83,482.14Z"/><path d="M206.94,483.64l4.57,0.4v-7.28l-4.57-.4V473.5l8,0.68c0,4.06,0,6.08,0,10.14l4.81,0.39c0,1.14,0,1.72,0,2.86-5.11-.41-7.66-0.63-12.76-1.08v-2.86Zm4-13.33a1.68,1.68,0,0,1,.6-1.33,2.16,2.16,0,0,1,1.66-.43,2.76,2.76,0,0,1,1.74.72,1.94,1.94,0,0,1,.65,1.43,1.54,1.54,0,0,1-.65,1.31,2.5,2.5,0,0,1-1.74.39,2.61,2.61,0,0,1-1.66-.67A1.91,1.91,0,0,1,210.89,470.3Z"/><path d="M223.34,475.75A12.83,12.83,0,0,1,229,475a7.46,7.46,0,0,1,2.3.5,4.26,4.26,0,0,1,1.53,1,3.85,3.85,0,0,1,.85,1.49,6.47,6.47,0,0,1,.26,1.89q0,1.33-.09,2.26t-0.09,1.66a11.09,11.09,0,0,0,.05,1.23c0,0.24.06,0.48,0.08,0.71l1.69,0.12v2.86l-4.37-.32-0.34-1.79h-0.13a4,4,0,0,1-1.47,1.28,5.54,5.54,0,0,1-5.66-.89,3.84,3.84,0,0,1-1.14-2.85,3.94,3.94,0,0,1,.4-1.85,3,3,0,0,1,1.16-1.21,5.13,5.13,0,0,1,1.83-.61,10.58,10.58,0,0,1,2.39-.06q0.46,0,1,.13l1.27,0.2a2.62,2.62,0,0,0,.05-0.52v-0.49a1.79,1.79,0,0,0-.57-1.46,2.94,2.94,0,0,0-1.68-.55,7.63,7.63,0,0,0-2.38.16,14.18,14.18,0,0,0-1.78.54Zm4.43,9.88a3,3,0,0,0,1.85-.32,2.74,2.74,0,0,0,.9-0.91v-1.56l-0.77-.17a9.15,9.15,0,0,0-1.11-.15,5.25,5.25,0,0,0-1,0,3.08,3.08,0,0,0-.87.22,1.54,1.54,0,0,0-.62.46,1.15,1.15,0,0,0-.23.74,1.6,1.6,0,0,0,.42,1.16A2.14,2.14,0,0,0,227.77,485.63Z"/><path d="M238.87,470.81l5.54,0.38c0,4.8,0,7.21,0,12a5.78,5.78,0,0,0,.49,2.82,1.87,1.87,0,0,0,1.59.88,4.27,4.27,0,0,0,1.33-.08,4.71,4.71,0,0,0,1-.41l1.28,2.42q-0.44.26-.88,0.48a5.31,5.31,0,0,1-.94.36,6.1,6.1,0,0,1-1.08.19,8.52,8.52,0,0,1-1.31,0,5.23,5.23,0,0,1-3.67-1.49,5.14,5.14,0,0,1-1.22-3.62c0-4.37,0-6.55,0-10.92l-2.16-.15v-2.86Z"/><path d="M264.06,496.09a12.65,12.65,0,0,1-3.54-1.34,11.25,11.25,0,0,1-3-2.49,11.88,11.88,0,0,1-2.12-3.66,13.92,13.92,0,0,1-.79-4.88,13.16,13.16,0,0,1,.79-4.77,10.47,10.47,0,0,1,2.12-3.45,9.74,9.74,0,0,1,3-2.19,12.31,12.31,0,0,1,3.54-1l0.62,2.82a10.46,10.46,0,0,0-2.07.63,7,7,0,0,0-2.2,1.46,8.06,8.06,0,0,0-1.76,2.62,10.23,10.23,0,0,0-.72,4.12,9.91,9.91,0,0,0,.75,4.07,9.63,9.63,0,0,0,1.84,2.8,8.78,8.78,0,0,0,2.23,1.71,9.4,9.4,0,0,0,1.93.79Z"/><path d="M274.3,488.62a5.25,5.25,0,0,0,1.58-.14,3.49,3.49,0,0,0,1.22-.56,2.8,2.8,0,0,0,.79-0.89,2.31,2.31,0,0,0,.29-1.14,2.4,2.4,0,0,0-1.22-2.21,4.54,4.54,0,0,0-1.38-.51,11.26,11.26,0,0,0-1.74-.21l-1.46-.07V481l4.38-5.12-6.59-.33c0-1.14,0-1.72,0-2.86,4.25,0.22,6.37.32,10.62,0.52v2.37l-4.58,5,0.6,0a5.3,5.3,0,0,1,1.77.4,4.68,4.68,0,0,1,1.52,1,4.92,4.92,0,0,1,1.07,1.61,5.54,5.54,0,0,1,.4,2.18,5.17,5.17,0,0,1-.61,2.57,5.54,5.54,0,0,1-1.61,1.81,6.54,6.54,0,0,1-2.3,1,9.41,9.41,0,0,1-2.68.25,13.5,13.5,0,0,1-2.34-.32,11.77,11.77,0,0,1-2.27-.77l0.91-2.76a3.86,3.86,0,0,0,.64.29q0.4,0.15.91,0.31a10.18,10.18,0,0,0,1,.26A7.38,7.38,0,0,0,274.3,488.62Z"/><path d="M286.59,494.35a8.57,8.57,0,0,0,1.93-.61,7.67,7.67,0,0,0,2.23-1.5,8.44,8.44,0,0,0,1.84-2.62,9.39,9.39,0,0,0,.76-4,10.76,10.76,0,0,0-.72-4.19,9.19,9.19,0,0,0-1.76-2.79,8,8,0,0,0-2.2-1.67,11.44,11.44,0,0,0-2.07-.83l0.63-2.76a13.44,13.44,0,0,1,3.54,1.37,11.18,11.18,0,0,1,3,2.48,11.89,11.89,0,0,1,2.12,3.65,13.79,13.79,0,0,1,.79,4.85,13.27,13.27,0,0,1-.79,4.81A10.47,10.47,0,0,1,293.8,494a9.79,9.79,0,0,1-3,2.2,11.62,11.62,0,0,1-3.54,1Z"/><path d="M365.7,490.72a5.36,5.36,0,0,0,1.58-.23,3.73,3.73,0,0,0,1.22-.63,3,3,0,0,0,.79-0.94,2.39,2.39,0,0,0,.29-1.15,2.44,2.44,0,0,0-.33-1.3,2.32,2.32,0,0,0-.9-0.84,4.34,4.34,0,0,0-1.38-.43,11.16,11.16,0,0,0-1.75-.12h-1.46v-1.87l4.38-5.35-6.59,0V475c4.25,0,6.38,0,10.63,0v2.37l-4.59,5.25h0.6a5.16,5.16,0,0,1,1.77.3,4.37,4.37,0,0,1,1.53.93,4.58,4.58,0,0,1,1.07,1.55,5.89,5.89,0,0,1-.21,4.76,6,6,0,0,1-1.62,1.9,7,7,0,0,1-2.31,1.16,9.58,9.58,0,0,1-2.68.39,13.26,13.26,0,0,1-2.35-.2,11.24,11.24,0,0,1-2.27-.65l0.91-2.81a3.66,3.66,0,0,0,.64.26c0.27,0.09.57,0.17,0.91,0.26a9.89,9.89,0,0,0,1,.21A7.31,7.31,0,0,0,365.7,490.72Z"/><path d="M396,486.15l-4.54-6.2,4-.08,2.94,4.28,3.08-4.41,3.67-.09L400.75,486l4.72,6.64-3.93.1L398.23,488l-3.36,4.85-3.7.07Z"/><path d="M423.63,492.07v-2.86l3.07-.11v-7.28l-3.1.12v-2.86l3.1-.12v-0.73a4.88,4.88,0,0,1,.43-2.12,4.47,4.47,0,0,1,1.13-1.5,4.86,4.86,0,0,1,1.63-.91,6.86,6.86,0,0,1,1.91-.35,12.1,12.1,0,0,1,3,.18,7.28,7.28,0,0,1,1.91.66l-1,2.62a11.41,11.41,0,0,0-1.29-.47,5.62,5.62,0,0,0-1.78-.16,2.63,2.63,0,0,0-2,.72,2.92,2.92,0,0,0-.56,1.93l5.47-.23v2.86l-5.47.23V489l5.5-.23v2.86C430.81,491.8,428.41,491.9,423.63,492.07Z"/><path d="M439.75,479.3a15,15,0,0,1,2.41-.92,14,14,0,0,1,3.24-.49,7.07,7.07,0,0,1,2.3.21,3.62,3.62,0,0,1,1.54.85,3.29,3.29,0,0,1,.85,1.39,6.14,6.14,0,0,1,.26,1.86q0,1.33-.09,2.27t-0.09,1.67a11.07,11.07,0,0,0,.05,1.22c0,0.23.06,0.47,0.08,0.7L452,488v2.86l-4.37.22-0.34-1.75h-0.13a4.83,4.83,0,0,1-1.47,1.46,5.1,5.1,0,0,1-2.59.71,4.22,4.22,0,0,1-3.08-.9,3.39,3.39,0,0,1-1.14-2.7,4.24,4.24,0,0,1,.4-1.9,3.61,3.61,0,0,1,1.16-1.35,5.84,5.84,0,0,1,1.84-.84,11,11,0,0,1,2.39-.36q0.47,0,1,0l1.27,0a2.71,2.71,0,0,0,.05-0.52v-0.49a1.58,1.58,0,0,0-.57-1.39,2.68,2.68,0,0,0-1.68-.35,8,8,0,0,0-2.38.45,16,16,0,0,0-1.78.76Zm4.43,9.33a3.23,3.23,0,0,0,1.85-.55,3.28,3.28,0,0,0,.9-1v-1.56l-0.77-.08a8.94,8.94,0,0,0-1.11,0,5.46,5.46,0,0,0-1,.14,3.43,3.43,0,0,0-.88.33,1.84,1.84,0,0,0-.62.54,1.28,1.28,0,0,0-.23.76,1.42,1.42,0,0,0,.42,1.11A1.93,1.93,0,0,0,444.19,488.63Z"/><path d="M467.25,488.69a8,8,0,0,1-2.5,1.36,11.25,11.25,0,0,1-3,.58,8.28,8.28,0,0,1-3-.32,5.67,5.67,0,0,1-2.21-1.27,5.48,5.48,0,0,1-1.37-2.1,7.87,7.87,0,0,1-.47-2.78,7.54,7.54,0,0,1,.55-2.94,6.63,6.63,0,0,1,1.52-2.24,7.08,7.08,0,0,1,2.3-1.47,9.2,9.2,0,0,1,2.89-.62,10.54,10.54,0,0,1,2.73.18,12,12,0,0,1,2,.53v4.58l-2.86.17V480a7.26,7.26,0,0,0-1.61-.09,5.07,5.07,0,0,0-1.45.3,3.81,3.81,0,0,0-1.28.78,4,4,0,0,0-.91,1.26,4.1,4.1,0,0,0-.35,1.76,3.91,3.91,0,0,0,.29,1.52,3.31,3.31,0,0,0,2.1,1.92,4.54,4.54,0,0,0,1.71.2,6.3,6.3,0,0,0,2.43-.56,10.53,10.53,0,0,0,1.42-.81Z"/><path d="M471.67,479.52l-2.58.16v-2.86l2.58-.16c0-1.19,0-1.78,0-3l3.38-1.18c0,1.57,0,2.36,0,3.93l6.82-.46v2.86l-6.82.46V483a4.27,4.27,0,0,0,.75,2.85,2.44,2.44,0,0,0,2.11.76,4.62,4.62,0,0,0,1.28-.26,5.18,5.18,0,0,0,1-.5,6.45,6.45,0,0,0,.83-0.63l0.69-.62,1.56,2.23a5.54,5.54,0,0,1-1.11,1,10.15,10.15,0,0,1-1.43.85,9.56,9.56,0,0,1-1.6.62,7.87,7.87,0,0,1-1.64.29,5.29,5.29,0,0,1-4.38-1.34q-1.47-1.53-1.47-5.07v-3.72Z"/><path d="M485.18,482.25a8.28,8.28,0,0,1,.49-2.95,6.49,6.49,0,0,1,3.58-3.76,8.69,8.69,0,0,1,2.82-.67,7.92,7.92,0,0,1,2.93.27,5.46,5.46,0,0,1,2.17,1.22,5.27,5.27,0,0,1,1.34,2.07,8,8,0,0,1,.46,2.77,8.34,8.34,0,0,1-.49,3,6.53,6.53,0,0,1-3.58,3.78,8.62,8.62,0,0,1-2.82.67,7.86,7.86,0,0,1-2.93-.28A5.47,5.47,0,0,1,487,487.1a5.31,5.31,0,0,1-1.34-2.07A8,8,0,0,1,485.18,482.25Zm3.49-.25a5,5,0,0,0,.23,1.57,3.56,3.56,0,0,0,.68,1.22,2.76,2.76,0,0,0,1.07.77,3.15,3.15,0,0,0,1.43.19,3.57,3.57,0,0,0,2.46-1.15,4.47,4.47,0,0,0,.95-3.12,4.22,4.22,0,0,0-.88-2.83,2.83,2.83,0,0,0-2.52-.91,4.23,4.23,0,0,0-1.35.32,2.94,2.94,0,0,0-1.08.8,3.84,3.84,0,0,0-.72,1.3A5.78,5.78,0,0,0,488.66,482Z"/><path d="M500.89,484.69l3.22-.26c0-2.91,0-4.37,0-7.28l-3.22.26c0-1.14,0-1.72,0-2.86l5.85-.48,0.39,1.68h0.1a7.76,7.76,0,0,1,1.66-1.57,4.42,4.42,0,0,1,2.18-.76,2.71,2.71,0,0,1,2.46.93,5.92,5.92,0,0,1,.9,3.74l-3,.27a2.49,2.49,0,0,0-.27-1.34,0.87,0.87,0,0,0-.87-0.35,2.78,2.78,0,0,0-1.68.66,5.92,5.92,0,0,0-1.08,1.29c0,2.22,0,3.32,0,5.54l5.64-.49v2.86c-4.9.43-7.35,0.64-12.24,1C500.89,486.41,500.89,485.84,500.89,484.69Z"/><path d="M517,483.31l4.57-.42c0-2.91,0-4.37,0-7.28L517,476c0-1.14,0-1.72,0-2.86l8-.73c0,4.06,0,6.08,0,10.14l4.81-.46V485c-5.1.5-7.65,0.74-12.76,1.2C517,485,517,484.46,517,483.31Zm3.95-14a2,2,0,0,1,.6-1.43,2.53,2.53,0,0,1,1.66-.73,2.37,2.37,0,0,1,1.74.41,1.6,1.6,0,0,1,.65,1.32,1.87,1.87,0,0,1-.65,1.43,2.9,2.9,0,0,1-1.74.7,2.24,2.24,0,0,1-1.66-.38A1.59,1.59,0,0,1,521,469.28Z"/><path d="M533.39,472.5a15.83,15.83,0,0,1,2.4-1,14.31,14.31,0,0,1,3.23-.67,7,7,0,0,1,2.3.09,3.38,3.38,0,0,1,1.53.76,3.06,3.06,0,0,1,.84,1.34,6,6,0,0,1,.26,1.84q0,1.33-.09,2.27t-0.09,1.67a11,11,0,0,0,.05,1.22c0,0.23.06,0.47,0.08,0.69l1.69-.18c0,1.14,0,1.72,0,2.86l-4.36.46-0.34-1.73h-0.13a5.23,5.23,0,0,1-1.47,1.54,5.31,5.31,0,0,1-2.58.85,4,4,0,0,1-3.07-.73,3.22,3.22,0,0,1-1.14-2.64,4.39,4.39,0,0,1,.4-1.92,3.9,3.9,0,0,1,1.16-1.42,6.19,6.19,0,0,1,1.83-.94,11.23,11.23,0,0,1,2.39-.49c0.31,0,.64,0,1,0l1.26,0a2.77,2.77,0,0,0,.05-0.52v-0.49a1.5,1.5,0,0,0-.57-1.36,2.59,2.59,0,0,0-1.68-.26,8.25,8.25,0,0,0-2.37.58,17,17,0,0,0-1.78.85Zm4.42,9.1a3.36,3.36,0,0,0,1.85-.64,3.55,3.55,0,0,0,.9-1.07c0-.62,0-0.94,0-1.56l-0.77,0a8.88,8.88,0,0,0-1.1,0,5.57,5.57,0,0,0-1,.19,3.61,3.61,0,0,0-.87.38,2,2,0,0,0-.62.57,1.53,1.53,0,0,0,.19,1.87A1.86,1.86,0,0,0,537.81,481.6Z"/><path d="M548.89,464.81l5.53-.61c0,4.8,0,7.21,0,12a5.25,5.25,0,0,0,.49,2.73,1.54,1.54,0,0,0,1.58.6,4.6,4.6,0,0,0,1.32-.32,5.77,5.77,0,0,0,1-.6l1.27,2.2q-0.44.34-.88,0.63a6.42,6.42,0,0,1-.93.52,7,7,0,0,1-1.08.38,8.89,8.89,0,0,1-1.31.24,4.48,4.48,0,0,1-3.66-.84,4.39,4.39,0,0,1-1.22-3.4c0-4.37,0-6.55,0-10.92l-2.15.24C548.89,466.52,548.89,466,548.89,464.81Z"/><path d="M574,485.61a10.9,10.9,0,0,1-3.53-.71,8.71,8.71,0,0,1-3-1.95,9.39,9.39,0,0,1-2.11-3.29,12.81,12.81,0,0,1-.79-4.74,14.39,14.39,0,0,1,.79-4.92,13.18,13.18,0,0,1,2.11-3.83,12.55,12.55,0,0,1,3-2.73,14.54,14.54,0,0,1,3.53-1.65l0.62,2.7a12.45,12.45,0,0,0-2.06,1,9,9,0,0,0-2.19,1.85,10.24,10.24,0,0,0-1.75,2.93,11.25,11.25,0,0,0-.71,4.24,9,9,0,0,0,.75,3.94,7.55,7.55,0,0,0,1.83,2.47,6.85,6.85,0,0,0,2.22,1.32,8,8,0,0,0,1.92.45Z"/><path d="M591.3,477.88c-4.62.62-6.93,0.92-11.55,1.5,0-1,0-1.51,0-2.52q0.31-.3.78-0.79l1-1.11q0.58-.62,1.23-1.35t1.27-1.52q0.88-1.1,1.54-2a15.37,15.37,0,0,0,1.09-1.66,7.26,7.26,0,0,0,.63-1.49,5.17,5.17,0,0,0,.21-1.44,2.15,2.15,0,0,0-.23-1,2.29,2.29,0,0,0-.65-0.79,2.65,2.65,0,0,0-1-.47,3.45,3.45,0,0,0-1.28-.06,5.25,5.25,0,0,0-1.7.5,6.93,6.93,0,0,0-1.59,1.17l-1.35-2.22a13.54,13.54,0,0,1,2.42-1.62,9,9,0,0,1,3.07-.93,7.09,7.09,0,0,1,2.14,0,4.85,4.85,0,0,1,1.81.68,3.69,3.69,0,0,1,1.26,1.35,4.19,4.19,0,0,1,.47,2,8.26,8.26,0,0,1-.14,1.57,8.45,8.45,0,0,1-.44,1.49,11.46,11.46,0,0,1-.78,1.57q-0.48.82-1.15,1.79-0.52.75-1.13,1.51t-1.2,1.47q-0.6.7-1.18,1.32t-1,1l7.46-1C591.3,476.16,591.3,476.73,591.3,477.88Z"/><path d="M596.4,479.87a10.21,10.21,0,0,0,1.92-1,9.83,9.83,0,0,0,2.21-1.89,10.77,10.77,0,0,0,1.82-2.95,10.4,10.4,0,0,0,.75-4.14,9.88,9.88,0,0,0-.71-4.06,7.2,7.2,0,0,0-1.75-2.47,6.24,6.24,0,0,0-2.19-1.28,9.76,9.76,0,0,0-2.06-.46L597,458.8a11.5,11.5,0,0,1,3.52.74,8.65,8.65,0,0,1,3,1.94,9.4,9.4,0,0,1,2.11,3.28,12.72,12.72,0,0,1,.79,4.71,14.55,14.55,0,0,1-.79,4.95,13.2,13.2,0,0,1-2.11,3.83,12.6,12.6,0,0,1-3,2.74,13.66,13.66,0,0,1-3.52,1.63Z"/><path d="M113.81,422.12v-2.86l3.05,0.43c0-2.91,0-4.37,0-7.28l-3.08-.44c0-1.14,0-1.72,0-2.86l3.08,0.44v-0.73a4.42,4.42,0,0,1,.43-2,3.45,3.45,0,0,1,1.13-1.3,3.94,3.94,0,0,1,1.62-.62,6.46,6.46,0,0,1,1.9,0,12.94,12.94,0,0,1,2.94.7,8.76,8.76,0,0,1,1.9,1l-1,2.44a13.64,13.64,0,0,0-1.28-.69,6.1,6.1,0,0,0-1.77-.48,2.26,2.26,0,0,0-2,.37,2.53,2.53,0,0,0-.56,1.83l5.44,0.74v2.86l-5.44-.74c0,2.91,0,4.37,0,7.28l5.46,0.75c0,1.14,0,1.72,0,2.86C120.94,423.13,118.56,422.8,113.81,422.12Z"/><path d="M129.83,412.21a12.91,12.91,0,0,1,2.4-.49,13.38,13.38,0,0,1,3.23.08,7.69,7.69,0,0,1,2.29.62,4.57,4.57,0,0,1,1.53,1.12,4.12,4.12,0,0,1,.84,1.54,6.63,6.63,0,0,1,.26,1.9q0,1.33-.09,2.25t-0.09,1.65a11.22,11.22,0,0,0,.05,1.23c0,0.24.06,0.48,0.08,0.71L142,423v2.86l-4.35-.55-0.34-1.81-0.13,0a3.7,3.7,0,0,1-1.47,1.2,4.58,4.58,0,0,1-2.57.25,5,5,0,0,1-3.06-1.44,4.06,4.06,0,0,1-1.13-2.91,3.82,3.82,0,0,1,.4-1.83,2.77,2.77,0,0,1,1.16-1.15,4.87,4.87,0,0,1,1.83-.51,10.52,10.52,0,0,1,2.38.06q0.46,0.06,1,.18l1.26,0.27a2.59,2.59,0,0,0,.05-0.51v-0.49a1.89,1.89,0,0,0-.57-1.49,3.07,3.07,0,0,0-1.67-.64,7.52,7.52,0,0,0-2.37,0,13.49,13.49,0,0,0-1.77.44Zm4.41,10.12a2.87,2.87,0,0,0,1.84-.22,2.53,2.53,0,0,0,.9-0.86v-1.56l-0.77-.21a9.31,9.31,0,0,0-1.1-.21,5.22,5.22,0,0,0-1,0,3,3,0,0,0-.87.17,1.42,1.42,0,0,0-.61.43,1.1,1.1,0,0,0-.23.72,1.68,1.68,0,0,0,.42,1.19A2.24,2.24,0,0,0,134.24,422.33Z"/><path d="M157.2,426.48a6.52,6.52,0,0,1-2.49.92,10.57,10.57,0,0,1-3,.05,9.08,9.08,0,0,1-3-.85,7.2,7.2,0,0,1-2.2-1.66,6.93,6.93,0,0,1-1.36-2.34,8.61,8.61,0,0,1-.47-2.87,6.88,6.88,0,0,1,.54-2.84,5.16,5.16,0,0,1,1.52-2,5.64,5.64,0,0,1,2.29-1.06,8.54,8.54,0,0,1,2.88-.11,11.33,11.33,0,0,1,2.72.66,14.27,14.27,0,0,1,1.95.88c0,1.83,0,2.75,0,4.58l-2.85-.33c0-1,0-1.44,0-2.39a7.75,7.75,0,0,0-1.61-.37,4.71,4.71,0,0,0-1.44,0,3.06,3.06,0,0,0-1.27.55,3.1,3.1,0,0,0-.91,1.1,3.72,3.72,0,0,0-.35,1.7,4.26,4.26,0,0,0,2.37,3.86,5,5,0,0,0,1.7.5,5.8,5.8,0,0,0,2.42-.13,8.46,8.46,0,0,0,1.41-.56Z"/><path d="M161.61,418.09L159,417.8v-2.86l2.57,0.29v-3l3.37-.58v3.93l6.8,0.74v2.86l-6.8-.74c0,1.49,0,2.23,0,3.72a4.87,4.87,0,0,0,.75,3,2.92,2.92,0,0,0,2.1,1.13,4.25,4.25,0,0,0,2.3-.35,5.1,5.1,0,0,0,.83-0.48l0.69-.5,1.56,2.51a4.25,4.25,0,0,1-1.1.83,8.29,8.29,0,0,1-3,.93,7.47,7.47,0,0,1-1.63,0,6.26,6.26,0,0,1-4.37-2.11,8.26,8.26,0,0,1-1.47-5.33C161.61,420.32,161.61,419.58,161.61,418.09Z"/><path d="M175.08,423.2a7.62,7.62,0,0,1,.49-2.86,5.18,5.18,0,0,1,1.4-2,5.26,5.26,0,0,1,2.17-1.11A8,8,0,0,1,182,417a8.67,8.67,0,0,1,2.92.79,6.92,6.92,0,0,1,2.17,1.61,6.65,6.65,0,0,1,1.34,2.3,8.7,8.7,0,0,1,.45,2.85,7.65,7.65,0,0,1-.49,2.86,5.1,5.1,0,0,1-3.57,3.15,8,8,0,0,1-2.82.17A8.6,8.6,0,0,1,179,430a6.93,6.93,0,0,1-2.17-1.62,6.7,6.7,0,0,1-1.34-2.31A8.73,8.73,0,0,1,175.08,423.2Zm3.48,0.36a5.42,5.42,0,0,0,.23,1.61,4.42,4.42,0,0,0,.68,1.34,3.43,3.43,0,0,0,2.49,1.4,3,3,0,0,0,2.45-.72,3.85,3.85,0,0,0,.95-2.95,4.88,4.88,0,0,0-.88-3A3.4,3.4,0,0,0,182,419.9a3.91,3.91,0,0,0-1.35.08,2.32,2.32,0,0,0-1.08.6,3.06,3.06,0,0,0-.71,1.17A5.37,5.37,0,0,0,178.55,423.56Z"/><path d="M190.76,428.41l3.22,0.3c0-2.91,0-4.37,0-7.28l-3.22-.31v-2.86l5.84,0.55,0.39,1.75h0.1a6,6,0,0,1,1.66-1.28,3.89,3.89,0,0,1,2.18-.38,3.27,3.27,0,0,1,2.46,1.36,6.67,6.67,0,0,1,.9,3.9l-3-.27a2.76,2.76,0,0,0-.27-1.39,1.06,1.06,0,0,0-.87-0.51,2.4,2.4,0,0,0-1.68.37,4.58,4.58,0,0,0-1.08,1.1V429l5.64,0.51c0,1.14,0,1.72,0,2.86-4.9-.43-7.34-0.66-12.24-1.13v-2.86Z"/><path d="M206.87,429.88l4.58,0.39c0-2.91,0-4.37,0-7.28l-4.58-.39c0-1.14,0-1.72,0-2.86l8,0.67c0,4.06,0,6.08,0,10.14l4.81,0.38c0,1.14,0,1.72,0,2.86-5.11-.4-7.66-0.61-12.77-1C206.87,431.59,206.87,431,206.87,429.88Zm4-13.34a1.69,1.69,0,0,1,.6-1.33,2.16,2.16,0,0,1,1.66-.43,2.75,2.75,0,0,1,1.74.71,1.94,1.94,0,0,1,.65,1.43,1.55,1.55,0,0,1-.65,1.31,2.5,2.5,0,0,1-1.74.39,2.6,2.6,0,0,1-1.66-.67A1.9,1.9,0,0,1,210.82,416.54Z"/><path d="M223.28,422a12.85,12.85,0,0,1,5.64-.72,7.45,7.45,0,0,1,2.3.49,4.25,4.25,0,0,1,1.54,1,3.83,3.83,0,0,1,.85,1.49,6.46,6.46,0,0,1,.26,1.89q0,1.33-.09,2.26T233.68,430a11.09,11.09,0,0,0,.05,1.23c0,0.24.06,0.48,0.08,0.71l1.69,0.12V435l-4.37-.31-0.34-1.79h-0.13a4,4,0,0,1-1.47,1.28,5.54,5.54,0,0,1-5.66-.88,3.84,3.84,0,0,1-1.14-2.84,4,4,0,0,1,.4-1.85,3,3,0,0,1,1.16-1.21,5.15,5.15,0,0,1,1.83-.62,10.61,10.61,0,0,1,2.39-.07q0.46,0,1,.12l1.27,0.2a2.62,2.62,0,0,0,.05-0.52V426a1.79,1.79,0,0,0-.57-1.46,2.93,2.93,0,0,0-1.68-.55,7.64,7.64,0,0,0-2.38.16,14.2,14.2,0,0,0-1.78.54Zm4.43,9.87a3,3,0,0,0,1.85-.32,2.75,2.75,0,0,0,.9-0.91V429l-0.77-.17a9.14,9.14,0,0,0-1.11-.15,5.26,5.26,0,0,0-1,0,3.08,3.08,0,0,0-.87.22,1.54,1.54,0,0,0-.62.46,1.15,1.15,0,0,0-.23.74,1.59,1.59,0,0,0,.42,1.16A2.13,2.13,0,0,0,227.7,431.82Z"/><path d="M238.81,417l5.54,0.36c0,4.8,0,7.21,0,12a5.77,5.77,0,0,0,.49,2.81,1.87,1.87,0,0,0,1.59.88,4.27,4.27,0,0,0,1.33-.09,4.73,4.73,0,0,0,1-.42l1.28,2.42q-0.44.26-.88,0.48a5.32,5.32,0,0,1-.94.36,6.11,6.11,0,0,1-1.08.19,8.52,8.52,0,0,1-1.31,0,5.22,5.22,0,0,1-3.67-1.48A5.13,5.13,0,0,1,241,430.9c0-4.37,0-6.55,0-10.92l-2.16-.14C238.81,418.69,238.81,418.12,238.81,417Z"/><path d="M264,442.18a12.61,12.61,0,0,1-3.54-1.33,11.2,11.2,0,0,1-3-2.48,11.84,11.84,0,0,1-2.12-3.66,13.9,13.9,0,0,1-.79-4.88,13.18,13.18,0,0,1,.79-4.78,10.52,10.52,0,0,1,2.12-3.46,9.79,9.79,0,0,1,3-2.2,12.35,12.35,0,0,1,3.54-1l0.62,2.81a10.48,10.48,0,0,0-2.07.63,7,7,0,0,0-2.2,1.47,8.09,8.09,0,0,0-1.76,2.62,10.24,10.24,0,0,0-.72,4.12,9.89,9.89,0,0,0,.75,4.07,9.59,9.59,0,0,0,1.84,2.79,8.75,8.75,0,0,0,2.23,1.7,9.38,9.38,0,0,0,1.93.79Z"/><path d="M281.4,437.48c-4.65-.19-7-0.3-11.62-0.52v-2.52q0.31-.24.78-0.65l1.05-.92q0.59-.52,1.24-1.14t1.28-1.29q0.88-.95,1.55-1.72a12,12,0,0,0,1.09-1.47,5.92,5.92,0,0,0,.64-1.38,4.78,4.78,0,0,0,.21-1.41,2.42,2.42,0,0,0-.23-1,3,3,0,0,0-.65-0.9,3.32,3.32,0,0,0-1-.64,3.73,3.73,0,0,0-1.29-.28,4.78,4.78,0,0,0-1.71.21,5.5,5.5,0,0,0-1.6.89l-1.35-2.46a10.85,10.85,0,0,1,2.44-1.2,8.19,8.19,0,0,1,3.09-.39,7.56,7.56,0,0,1,2.15.41,6,6,0,0,1,1.82,1,4.77,4.77,0,0,1,1.26,1.58,4.66,4.66,0,0,1,.47,2.13,7.83,7.83,0,0,1-.14,1.54,7.28,7.28,0,0,1-.44,1.41,9.16,9.16,0,0,1-.78,1.44c-0.32.49-.71,1-1.16,1.59s-0.73.88-1.13,1.32-0.81.86-1.21,1.26-0.79.77-1.19,1.12-0.74.63-1.05,0.86l7.5,0.33v2.86Z"/><path d="M286.53,440.37a8.59,8.59,0,0,0,1.93-.62,7.71,7.71,0,0,0,2.23-1.5,8.49,8.49,0,0,0,1.84-2.63,9.41,9.41,0,0,0,.76-4,10.74,10.74,0,0,0-.72-4.18,9.14,9.14,0,0,0-1.76-2.78,8,8,0,0,0-2.2-1.67,11.39,11.39,0,0,0-2.07-.82l0.63-2.76a13.4,13.4,0,0,1,3.54,1.35,11.12,11.12,0,0,1,3,2.47,11.83,11.83,0,0,1,2.12,3.65,13.76,13.76,0,0,1,.79,4.85,13.3,13.3,0,0,1-.79,4.81,10.52,10.52,0,0,1-2.12,3.46,9.84,9.84,0,0,1-3,2.21,11.66,11.66,0,0,1-3.54,1Z"/><path d="M588.76,422.12c-4.62.66-6.92,1-11.54,1.6,0-1,0-1.51,0-2.52q0.31-.3.78-0.79l1-1.12q0.58-.63,1.23-1.36t1.27-1.53q0.88-1.11,1.54-2a15.56,15.56,0,0,0,1.09-1.67,7.33,7.33,0,0,0,.63-1.49,5.19,5.19,0,0,0,.21-1.45,2.14,2.14,0,0,0-.23-1,2.26,2.26,0,0,0-.65-0.78,2.62,2.62,0,0,0-1-.46,3.44,3.44,0,0,0-1.28,0,5.28,5.28,0,0,0-1.7.52,7,7,0,0,0-1.59,1.18L577.22,407a13.69,13.69,0,0,1,2.42-1.64,9.09,9.09,0,0,1,3.07-1,7.08,7.08,0,0,1,2.14,0,4.81,4.81,0,0,1,1.81.67,3.65,3.65,0,0,1,1.26,1.34,4.17,4.17,0,0,1,.47,2,8.29,8.29,0,0,1-.14,1.57,8.52,8.52,0,0,1-.44,1.49,11.59,11.59,0,0,1-.78,1.58q-0.48.82-1.15,1.8-0.52.75-1.13,1.52t-1.2,1.48q-0.59.71-1.18,1.33t-1,1.05l7.45-1C588.76,420.4,588.76,421,588.76,422.12Z"/></svg>