<svg id="Layer_1" data-name="Layer 1" xmlns="http://www.w3.org/2000/svg" viewBox="0 0 720 576"><defs><style>.cls-1,.cls-2,.cls-4,.cls-6{fill:#231f20;}.cls-1,.cls-3{stroke:#231f20;}.cls-1,.cls-6{stroke-miterlimit:10;}.cls-1,.cls-2,.cls-3{stroke-width:2px;}.cls-2{stroke:#000;}.cls-2,.cls-3{stroke-linecap:round;stroke-linejoin:round;}.cls-3,.cls-5{fill:#fff;}.cls-6{stroke:#fff;}</style></defs><title>Hanoi_Tower_Set_5_Final</title><path class="cls-1" d="M689.9,506.49c0-.14,0-0.29,0-0.43s0-.29,0-0.43V453.84H44.1s-0.25,51.74-.25,52.22c0,2.67,2.32,5.24,6.64,7.71,15.13,8.61,55.2,16.11,111,21.48s127.37,8.59,205.39,8.59c89.16,0,169.88-4.21,228.32-11,29.22-3.41,52.87-7.46,69.23-12,8.18-2.25,14.54-4.62,18.86-7.08,3.69-2.1,5.91-4.29,6.48-6.55h0.11v-0.73Z"/><ellipse class="cls-2" cx="366.9" cy="454.92" rx="322.86" ry="37.63"/><path class="cls-3" d="M689.9,455c0-.14,0-0.29,0-0.43s0-.29,0-0.43V402.36H44.1s-0.25,51.74-.25,52.22c0,2.67,2.32,5.24,6.64,7.71,15.13,8.61,55.2,16.11,111,21.48s127.37,8.59,205.39,8.59c89.16,0,169.88-4.21,228.32-11,29.22-3.41,52.87-7.46,69.23-12,8.18-2.25,14.54-4.62,18.86-7.08,3.69-2.1,5.91-4.29,6.48-6.55h0.11V455Z"/><ellipse class="cls-3" cx="366.9" cy="403.44" rx="322.86" ry="37.63"/><path class="cls-3" d="M689.9,403.53c0-.14,0-0.29,0-0.43s0-.29,0-0.43V350.88H44.1s-0.25,51.74-.25,52.22c0,2.67,2.32,5.24,6.64,7.71,15.13,8.61,55.2,16.11,111,21.48s127.37,8.59,205.39,8.59c89.16,0,169.88-4.21,228.32-11,29.22-3.41,52.87-7.46,69.23-12,8.18-2.25,14.54-4.62,18.86-7.08,3.69-2.1,5.91-4.29,6.48-6.55h0.11v-0.73Z"/><ellipse class="cls-3" cx="366.9" cy="351.97" rx="322.86" ry="37.63"/><path class="cls-3" d="M689.9,352.06c0-.14,0-0.29,0-0.43s0-.29,0-0.43V299.4H44.1s-0.25,51.74-.25,52.22c0,2.67,2.32,5.24,6.64,7.71,15.13,8.61,55.2,16.11,111,21.48s127.37,8.59,205.39,8.59c89.16,0,169.88-4.21,228.32-11,29.22-3.41,52.87-7.46,69.23-12,8.18-2.25,14.54-4.62,18.86-7.08,3.69-2.1,5.91-4.29,6.48-6.55h0.11v-0.73Z"/><ellipse class="cls-3" cx="366.9" cy="300.49" rx="322.86" ry="37.63"/><path class="cls-4" d="M366.89,309.88c-16,0-29-3.75-30.2-8.61h-0.08l0-.5V8.27h60.63v293H397.1C395.87,306.14,382.87,309.88,366.89,309.88Z"/><path class="cls-5" d="M396.72,8.77v292h0c-0.49,4.78-13.63,8.61-29.79,8.61s-29.3-3.83-29.79-8.61h0v-0.21s0,0,0-.06,0,0,0-.06V8.77h59.63m1-1H336.09V300.39s0,0.07,0,.11v1.27h0.23c2,5.6,16.84,8.61,30.58,8.61s28.6-3,30.58-8.61h0.21l0-1V7.77h0Z"/><ellipse class="cls-6" cx="366.89" cy="8.89" rx="29.81" ry="8.89"/><path class="cls-4" d="M63.06,344.45l2.84,0.45c0-2.58,0-3.86,0-6.44L63.06,338c0-1,0-1.52,0-2.53l5.14,0.81,0.34,1.57h0.09a4.84,4.84,0,0,1,1.46-1,3.32,3.32,0,0,1,1.92-.21A3.1,3.1,0,0,1,74.19,338a6.19,6.19,0,0,1,.79,3.5l-2.68-.41a2.55,2.55,0,0,0-.24-1.24,1,1,0,0,0-.77-0.5,2,2,0,0,0-1.47.23,3.7,3.7,0,0,0-.95.91v4.9l5,0.76v2.53c-4.31-.66-6.46-1-10.77-1.68C63.06,346,63.06,345.46,63.06,344.45Z"/><path class="cls-4" d="M88.11,349.56a3.36,3.36,0,0,1-.77.43,6.37,6.37,0,0,1-1.1.33,7.76,7.76,0,0,1-1.38.16,8.76,8.76,0,0,1-1.6-.1,8.51,8.51,0,0,1-2.62-.8A6.35,6.35,0,0,1,77.46,346a7.66,7.66,0,0,1-.42-2.6,6.26,6.26,0,0,1,.48-2.58,4.3,4.3,0,0,1,1.32-1.7,4.6,4.6,0,0,1,2-.85,7.28,7.28,0,0,1,2.43,0,8.15,8.15,0,0,1,1.8.5,5.89,5.89,0,0,1,1.71,1A5.26,5.26,0,0,1,88,341.47a5.61,5.61,0,0,1,.49,2.46,10.5,10.5,0,0,1-.23,2.11L80,344.83a3,3,0,0,0,.31,1.29,3,3,0,0,0,.75.94,3.89,3.89,0,0,0,1.08.63,5.79,5.79,0,0,0,1.29.34,6.43,6.43,0,0,0,2.25,0,4,4,0,0,0,1.43-.57Zm-4.94-8.94a3.64,3.64,0,0,0-1.12,0,2.66,2.66,0,0,0-.95.34,2.11,2.11,0,0,0-.7.68,2.14,2.14,0,0,0-.32,1l5.63,0.83a2.89,2.89,0,0,0-.63-1.91A2.93,2.93,0,0,0,83.17,340.63Z"/><path class="cls-4" d="M102.13,351.66a5.66,5.66,0,0,1-2.2.76,9.31,9.31,0,0,1-2.63,0,8.16,8.16,0,0,1-2.65-.81,6.55,6.55,0,0,1-1.95-1.51A6.3,6.3,0,0,1,91.5,348a7.69,7.69,0,0,1-.41-2.54,6,6,0,0,1,.48-2.51,4.43,4.43,0,0,1,1.34-1.72,4.87,4.87,0,0,1,2-.9,7.52,7.52,0,0,1,2.54,0,10.14,10.14,0,0,1,2.41.64,12.94,12.94,0,0,1,1.72.81v4l-2.52-.35v-2.12a6.91,6.91,0,0,0-1.42-.36,4.13,4.13,0,0,0-1.27,0,2.58,2.58,0,0,0-1.92,1.42,3.25,3.25,0,0,0-.31,1.5,3.85,3.85,0,0,0,.25,1.39,3.85,3.85,0,0,0,1.84,2.07,4.48,4.48,0,0,0,1.5.48,5.1,5.1,0,0,0,2.14-.07,7.34,7.34,0,0,0,1.25-.47Z"/><path class="cls-4" d="M110.92,342.46l4.26,0.56c0,3.2,0,4.8,0,8v1l1.74,0.23v2.53l-3.62-.48-0.53-1.77h-0.09a3.34,3.34,0,0,1-1.58,1.24,4.48,4.48,0,0,1-2.34.26,5.66,5.66,0,0,1-1.59-.45,3.45,3.45,0,0,1-1.23-.93,4.17,4.17,0,0,1-.78-1.53,8.22,8.22,0,0,1-.27-2.29v-4.62l-1.31-.18c0-1,0-1.52,0-2.53l4.28,0.58c0,2.61,0,3.92,0,6.53a3.86,3.86,0,0,0,.45,2.08,1.88,1.88,0,0,0,1.41.81,2.3,2.3,0,0,0,2.48-1.42v-4.9l-1.28-.17C110.92,344,110.92,343.47,110.92,342.46Z"/><path class="cls-4" d="M118,352.36l2.84,0.37c0-2.58,0-3.86,0-6.44l-2.84-.37c0-1,0-1.52,0-2.53l5.16,0.66,0.34,1.56h0.09a5.05,5.05,0,0,1,1.47-1.08,3.37,3.37,0,0,1,1.93-.26,3,3,0,0,1,2.17,1.28A6.06,6.06,0,0,1,130,349l-2.68-.33a2.5,2.5,0,0,0-.24-1.24,1,1,0,0,0-.77-0.48,2.07,2.07,0,0,0-1.48.27,3.86,3.86,0,0,0-1,.94v4.9l5,0.62c0,1,0,1.52,0,2.53-4.32-.54-6.48-0.81-10.8-1.37C118,353.88,118,353.37,118,352.36Z"/><path class="cls-4" d="M141.31,362.65a11.9,11.9,0,0,1-3.12-1.38,10.86,10.86,0,0,1-2.69-2.37,11.38,11.38,0,0,1-1.87-3.35,12.72,12.72,0,0,1-.7-4.36,11.32,11.32,0,0,1,.7-4.18,8.52,8.52,0,0,1,1.87-2.94,7.88,7.88,0,0,1,2.69-1.77,10.37,10.37,0,0,1,3.12-.71l0.55,2.53a8.69,8.69,0,0,0-1.82.44,5.68,5.68,0,0,0-1.94,1.17,6.55,6.55,0,0,0-1.55,2.22,8.8,8.8,0,0,0-.63,3.6,9.09,9.09,0,0,0,.67,3.64,9.26,9.26,0,0,0,1.62,2.57,8.48,8.48,0,0,0,2,1.64,8.89,8.89,0,0,0,1.7.81Z"/><path class="cls-4" d="M147.08,355.91l3.51,0.4c0-4,0-6,0-10.05l-3,2-1.38-2,5.24-3.41,2,0.23c0,5.43,0,8.14,0,13.57l3.45,0.38c0,1,0,1.52,0,2.53-3.92-.43-5.88-0.65-9.81-1.1C147.08,357.43,147.08,356.92,147.08,355.91Z"/><path class="cls-4" d="M160.85,357.44l3.52,0.37c0-4,0-6,0-10.05l-3,2-1.38-2,5.24-3.44,2,0.21c0,5.43,0,8.14,0,13.57l3.45,0.36c0,1,0,1.52,0,2.53-3.93-.4-5.89-0.61-9.81-1v-2.53Z"/><path class="cls-4" d="M177.22,360.19a1.43,1.43,0,0,1,.52-1.19,1.74,1.74,0,0,1,1.3-.33,2.53,2.53,0,0,1,1.91,1,3.51,3.51,0,0,1,.64,2.11,4.12,4.12,0,0,1-.4,1.85,4.34,4.34,0,0,1-1,1.37,5,5,0,0,1-1.44.87,5.42,5.42,0,0,1-1.57.37l-0.62-1.33a6.17,6.17,0,0,0,1.11-.28,4,4,0,0,0,1-.53,3.08,3.08,0,0,0,.77-0.81,2.23,2.23,0,0,0,.36-1.07,3,3,0,0,1-1.17-.08,2,2,0,0,1-.79-0.45,1.73,1.73,0,0,1-.45-0.69A2.5,2.5,0,0,1,177.22,360.19Z"/><path class="cls-4" d="M188.43,360.21l3.52,0.33c0-4,0-6,0-10.05l-3,2-1.38-2,5.24-3.52,2,0.18c0,5.43,0,8.14,0,13.57l3.45,0.31v2.53l-9.82-.89v-2.53Z"/><path class="cls-4" d="M200.67,355.77a13.31,13.31,0,0,1,.44-3.63,6.84,6.84,0,0,1,1.24-2.5,4.54,4.54,0,0,1,1.91-1.39,5.56,5.56,0,0,1,2.47-.31,5.85,5.85,0,0,1,4.48,2.41q1.57,2.16,1.57,6.44a13.45,13.45,0,0,1-.44,3.66A7,7,0,0,1,211.1,363a4.49,4.49,0,0,1-1.92,1.41,5.61,5.61,0,0,1-2.48.31,5.7,5.7,0,0,1-4.48-2.53A11.27,11.27,0,0,1,200.67,355.77Zm3,0.26q0,0.35,0,.66c0,0.21,0,.42,0,0.64l5.57-4.66a2.86,2.86,0,0,0-2.58-2.19,2.23,2.23,0,0,0-2.25,1.22A9,9,0,0,0,203.66,356Zm6.12,0.51c0-.25,0-0.48,0-0.7s0-.44,0-0.66l-5.59,4.66a2.92,2.92,0,0,0,2.58,2.31,2.26,2.26,0,0,0,2.26-1.21A9,9,0,0,0,209.78,356.55Z"/><path class="cls-4" d="M216.36,367.52a7.38,7.38,0,0,0,1.7-.48,6.47,6.47,0,0,0,2-1.25,7.1,7.1,0,0,0,1.62-2.26,8.15,8.15,0,0,0,.67-3.51,9.71,9.71,0,0,0-.63-3.73,8.56,8.56,0,0,0-1.55-2.52,7.47,7.47,0,0,0-1.95-1.55,10.43,10.43,0,0,0-1.83-.8l0.55-2.42a12.37,12.37,0,0,1,3.13,1.33,10.44,10.44,0,0,1,2.69,2.3,11,11,0,0,1,1.88,3.3,12.42,12.42,0,0,1,.7,4.32,11.53,11.53,0,0,1-.7,4.23,8.81,8.81,0,0,1-1.88,3A8.2,8.2,0,0,1,220,369.3a10,10,0,0,1-3.13.77Z"/><path class="cls-4" d="M339.7,371V368.5l2.72,0v-6.44l-2.74,0v-2.53l2.74,0v-0.64a4.18,4.18,0,0,1,.38-1.86,3.67,3.67,0,0,1,1-1.27,4,4,0,0,1,1.44-.73,6,6,0,0,1,1.7-.22,10.86,10.86,0,0,1,2.62.3,6.77,6.77,0,0,1,1.7.67l-0.88,2.27a10.57,10.57,0,0,0-1.14-.47,5.07,5.07,0,0,0-1.58-.23,2.22,2.22,0,0,0-1.74.54,2.47,2.47,0,0,0-.5,1.68l4.84,0.06v2.53l-4.84-.06v6.44l4.87,0.06v2.53C346.05,371.13,343.93,371.1,339.7,371Z"/><path class="cls-4" d="M354,360.5a12.53,12.53,0,0,1,2.13-.69,12.16,12.16,0,0,1,2.87-.28,6.41,6.41,0,0,1,2,.3,3.44,3.44,0,0,1,1.36.82,3.11,3.11,0,0,1,.75,1.27,5.54,5.54,0,0,1,.23,1.66q0,1.17-.08,2T363.21,367a9.88,9.88,0,0,0,0,1.08c0,0.21.05,0.42,0.07,0.62h1.5v2.53l-3.87,0-0.3-1.57h-0.11a3.94,3.94,0,0,1-1.31,1.22,4.35,4.35,0,0,1-2.29.5,3.92,3.92,0,0,1-2.73-.94,3.17,3.17,0,0,1-1-2.45,3.63,3.63,0,0,1,.35-1.66,2.93,2.93,0,0,1,1-1.14,4.86,4.86,0,0,1,1.63-.65,9.53,9.53,0,0,1,2.12-.2c0.27,0,.57,0,0.87.05l1.12,0.1a2.37,2.37,0,0,0,0-.46v-0.44a1.48,1.48,0,0,0-.5-1.26,2.47,2.47,0,0,0-1.49-.39,6.93,6.93,0,0,0-2.11.28,13.36,13.36,0,0,0-1.58.58ZM357.9,369a2.75,2.75,0,0,0,1.64-.39,2.68,2.68,0,0,0,.8-0.86v-1.38l-0.68-.11a7.94,7.94,0,0,0-1-.06,4.76,4.76,0,0,0-.87.07,2.86,2.86,0,0,0-.78.25,1.49,1.49,0,0,0-.55.44,1.08,1.08,0,0,0-.2.67,1.32,1.32,0,0,0,.38,1A1.78,1.78,0,0,0,357.9,369Z"/><path class="cls-4" d="M378.34,370.18a6.63,6.63,0,0,1-2.21,1.07,9.72,9.72,0,0,1-2.65.36,7.53,7.53,0,0,1-2.66-.44,5.43,5.43,0,0,1-2-1.23,5.22,5.22,0,0,1-1.21-1.92,7.15,7.15,0,0,1-.42-2.49,6.46,6.46,0,0,1,.48-2.57,5.42,5.42,0,0,1,1.35-1.91,5.83,5.83,0,0,1,2-1.18,7.92,7.92,0,0,1,2.56-.4,9.5,9.5,0,0,1,2.42.3,11.32,11.32,0,0,1,1.73.57v4h-2.54c0-.85,0-1.27,0-2.12a6.52,6.52,0,0,0-1.43-.16,4.35,4.35,0,0,0-1.28.2,3.14,3.14,0,0,0-1.13.62,3.26,3.26,0,0,0-.81,1.07,3.51,3.51,0,0,0-.31,1.54,3.55,3.55,0,0,0,.25,1.36,3.16,3.16,0,0,0,1.86,1.81,4.13,4.13,0,0,0,1.51.26,5.4,5.4,0,0,0,2.16-.37,8.73,8.73,0,0,0,1.26-.65Z"/><path class="cls-4" d="M382.26,362.3H380c0-1,0-1.52,0-2.53h2.28v-2.62l3-.87v3.47l6,0c0,1,0,1.52,0,2.53l-6,0v3.29a3.94,3.94,0,0,0,.67,2.56,2.29,2.29,0,0,0,1.87.78,4,4,0,0,0,1.13-.16,4.32,4.32,0,0,0,.91-0.39,5.27,5.27,0,0,0,.74-0.51l0.61-.51,1.38,2.06a4.5,4.5,0,0,1-1,.85,8.46,8.46,0,0,1-1.27.68,8.1,8.1,0,0,1-1.42.46,6.8,6.8,0,0,1-1.45.17,4.94,4.94,0,0,1-3.89-1.41,6.63,6.63,0,0,1-1.3-4.56V362.3Z"/><path class="cls-4" d="M394.24,365.42a7.1,7.1,0,0,1,.44-2.58,5.36,5.36,0,0,1,1.25-1.92,5.42,5.42,0,0,1,1.93-1.21,7.46,7.46,0,0,1,2.5-.44,7.19,7.19,0,0,1,2.59.4,5.25,5.25,0,0,1,1.93,1.2,5.05,5.05,0,0,1,1.19,1.9,7.27,7.27,0,0,1,.4,2.48,7.14,7.14,0,0,1-.44,2.58,5.3,5.3,0,0,1-3.17,3.15,7.39,7.39,0,0,1-2.5.44,7.15,7.15,0,0,1-2.6-.4,5.26,5.26,0,0,1-1.93-1.21,5.08,5.08,0,0,1-1.19-1.91A7.29,7.29,0,0,1,394.24,365.42Zm3.09,0a4.52,4.52,0,0,0,.21,1.4,3.38,3.38,0,0,0,.6,1.12,2.64,2.64,0,0,0,.95.73,2.88,2.88,0,0,0,1.27.25,3,3,0,0,0,2.18-.88,3.75,3.75,0,0,0,.84-2.7,3.92,3.92,0,0,0-.78-2.55,2.66,2.66,0,0,0-2.24-.94,3.62,3.62,0,0,0-1.2.21,2.41,2.41,0,0,0-1,.65,3.15,3.15,0,0,0-.63,1.11A5,5,0,0,0,397.33,365.39Z"/><path class="cls-4" d="M408.17,368.44l2.86-.05v-6.44l-2.86.05v-2.53l5.19-.1,0.35,1.51h0.09a6.31,6.31,0,0,1,1.48-1.3,3.72,3.72,0,0,1,1.94-.55,2.56,2.56,0,0,1,2.18,1,5.46,5.46,0,0,1,.8,3.36l-2.7.06a2.28,2.28,0,0,0-.24-1.2,0.83,0.83,0,0,0-.77-0.36,2.33,2.33,0,0,0-1.49.49,4.81,4.81,0,0,0-1,1.08v4.9l5-.11v2.53c-4.35.1-6.52,0.15-10.86,0.23v-2.53Z"/><path class="cls-4" d="M422.47,368.12l4.06-.11v-6.44l-4.06.11v-2.53l7.06-.19v9l4.27-.13v2.53c-4.53.14-6.79,0.21-11.32,0.32C422.47,369.64,422.47,369.14,422.47,368.12ZM426,355.93a1.67,1.67,0,0,1,.53-1.23,2.1,2.1,0,0,1,1.48-.55,2.2,2.2,0,0,1,1.55.46,1.52,1.52,0,0,1,.58,1.2,1.53,1.53,0,0,1-.58,1.22,2.42,2.42,0,0,1-1.55.52,2.09,2.09,0,0,1-1.48-.43A1.5,1.5,0,0,1,426,355.93Z"/><path class="cls-4" d="M437,359.51a13,13,0,0,1,2.13-.78,12.33,12.33,0,0,1,2.87-.4,6.3,6.3,0,0,1,2,.21,3.25,3.25,0,0,1,1.36.77,3,3,0,0,1,.75,1.24,5.45,5.45,0,0,1,.23,1.65q0,1.17-.08,2t-0.08,1.47a9.8,9.8,0,0,0,0,1.08c0,0.21.05,0.42,0.07,0.62l1.5-.06v2.53L444,370l-0.3-1.55h-0.11a4.19,4.19,0,0,1-1.31,1.28,4.47,4.47,0,0,1-2.29.6,3.78,3.78,0,0,1-2.73-.83,3,3,0,0,1-1-2.4,3.73,3.73,0,0,1,.35-1.68,3.12,3.12,0,0,1,1-1.18,5.09,5.09,0,0,1,1.63-.72,9.66,9.66,0,0,1,2.12-.29c0.27,0,.56,0,0.87,0l1.12,0.05a2.39,2.39,0,0,0,0-.46v-0.44a1.42,1.42,0,0,0-.5-1.24,2.4,2.4,0,0,0-1.49-.33,7.06,7.06,0,0,0-2.11.37,14,14,0,0,0-1.58.65Zm3.92,8.31a2.6,2.6,0,0,0,2.44-1.35v-1.38L442.7,365a7.89,7.89,0,0,0-1,0,4.79,4.79,0,0,0-.87.11,3,3,0,0,0-.78.28,1.58,1.58,0,0,0-.55.47,1.11,1.11,0,0,0-.2.67,1.27,1.27,0,0,0,.38,1A1.73,1.73,0,0,0,440.95,367.82Z"/><path class="cls-4" d="M450.79,353.63l4.91-.2v10.63a4.81,4.81,0,0,0,.44,2.44,1.47,1.47,0,0,0,1.41.63,4,4,0,0,0,1.18-.2,4.69,4.69,0,0,0,.92-0.47l1.13,2q-0.39.27-.78,0.51a5.33,5.33,0,0,1-.83.41,5.81,5.81,0,0,1-1,.27,7.69,7.69,0,0,1-1.16.13,4.2,4.2,0,0,1-3.25-1,4.12,4.12,0,0,1-1.08-3.08v-9.66l-1.91.08v-2.53Z"/><path class="cls-4" d="M464.42,371.83c4.09-.19,6.14-0.29,10.23-0.51v2.46c-4.09.21-6.14,0.31-10.23,0.51v-2.46Z"/><path class="cls-4" d="M476.45,352.44l4.66-.25v5.89h0.09a4.22,4.22,0,0,1,1.47-1.26,5.21,5.21,0,0,1,2.17-.56,5.31,5.31,0,0,1,1.61.14,2.84,2.84,0,0,1,1.27.69,3.31,3.31,0,0,1,.83,1.39,7.07,7.07,0,0,1,.3,2.22v7.15l-3,.18v-6.53a2.72,2.72,0,0,0-.6-2,2,2,0,0,0-1.57-.53,2.75,2.75,0,0,0-1.57.61,3,3,0,0,0-1,1.38v7.34l-3,.16V354.88l-1.66.09v-2.53Z"/><path class="cls-4" d="M502.57,365.76a4.49,4.49,0,0,1-.77.59,8.06,8.06,0,0,1-1.11.57,9,9,0,0,1-1.39.46,9.13,9.13,0,0,1-1.61.24,7.64,7.64,0,0,1-2.64-.25,4.74,4.74,0,0,1-3.2-2.92,6.88,6.88,0,0,1-.43-2.52,7,7,0,0,1,.48-2.69,5.78,5.78,0,0,1,1.32-2,6,6,0,0,1,2-1.26,7.91,7.91,0,0,1,2.44-.53,7.43,7.43,0,0,1,1.81.11,4.62,4.62,0,0,1,1.72.68,3.87,3.87,0,0,1,1.28,1.42,4.91,4.91,0,0,1,.5,2.36,11.17,11.17,0,0,1-.23,2.16l-8.29.53a2.54,2.54,0,0,0,.31,1.22,2.25,2.25,0,0,0,.76.78,3.1,3.1,0,0,0,1.08.4,5.35,5.35,0,0,0,1.3.07,7,7,0,0,0,2.27-.47,5.22,5.22,0,0,0,1.44-.88Zm-5-7.89a3.93,3.93,0,0,0-1.13.24,3.41,3.41,0,0,0-1,.54,2.87,2.87,0,0,0-.7.83,2.54,2.54,0,0,0-.32,1.07l5.67-.36A2.12,2.12,0,0,0,497.6,357.88Z"/><path class="cls-4" d="M506.1,350.65l4.91-.34v10.63a4.74,4.74,0,0,0,.44,2.43,1.43,1.43,0,0,0,1.41.59,4,4,0,0,0,1.17-.23,4.86,4.86,0,0,0,.92-0.49l1.13,2q-0.39.28-.78,0.53a5.52,5.52,0,0,1-.83.43,5.93,5.93,0,0,1-1,.3,7.72,7.72,0,0,1-1.16.16,4.11,4.11,0,0,1-3.25-.88,4,4,0,0,1-1.08-3.05V353l-1.91.13v-2.53Z"/><path class="cls-4" d="M517.91,354.41l3.91-.29,0.34,1.35h0.09a4.79,4.79,0,0,1,3.87-2,5.32,5.32,0,0,1,1.94.18,3.42,3.42,0,0,1,1.52.92,4.45,4.45,0,0,1,1,1.72,8.34,8.34,0,0,1,.34,2.57,8.73,8.73,0,0,1-.39,2.69,6.23,6.23,0,0,1-1.13,2.1,5.4,5.4,0,0,1-1.8,1.41,6.59,6.59,0,0,1-2.42.63,9.42,9.42,0,0,1-1.4,0,3.67,3.67,0,0,1-1.15-.25v4.71l-3,.23V356.81l-1.73.13v-2.53Zm7.32,1.65a3.25,3.25,0,0,0-1.6.56,2.52,2.52,0,0,0-1,1.39v4.78a2.27,2.27,0,0,0,.93.33,5.06,5.06,0,0,0,1.23.05,3.37,3.37,0,0,0,1.2-.31,2.74,2.74,0,0,0,1-.78,3.75,3.75,0,0,0,.64-1.27,6.17,6.17,0,0,0,.23-1.79,3.19,3.19,0,0,0-.74-2.29A2.21,2.21,0,0,0,525.23,356.06Z"/><path class="cls-4" d="M544,362.58a4.64,4.64,0,0,1-.77.61,8.25,8.25,0,0,1-1.1.59,9.32,9.32,0,0,1-3,.76,7.58,7.58,0,0,1-2.63-.19,4.6,4.6,0,0,1-3.2-2.85,6.81,6.81,0,0,1-.43-2.51,7,7,0,0,1,.48-2.7,6,6,0,0,1,1.32-2,6.18,6.18,0,0,1,2-1.3,8,8,0,0,1,2.44-.59,7.38,7.38,0,0,1,1.81.08,4.52,4.52,0,0,1,1.71.65,3.75,3.75,0,0,1,1.28,1.4,4.86,4.86,0,0,1,.5,2.35,11.25,11.25,0,0,1-.23,2.16l-8.28.71a2.51,2.51,0,0,0,.31,1.22,2.18,2.18,0,0,0,.76.76,3,3,0,0,0,1.08.38,5.32,5.32,0,0,0,1.3,0,7,7,0,0,0,2.27-.52,5.36,5.36,0,0,0,1.44-.91Zm-5-7.78a4,4,0,0,0-1.13.26,3.49,3.49,0,0,0-1,.56,3,3,0,0,0-.7.84,2.58,2.58,0,0,0-.32,1.08l5.66-.48A2.07,2.07,0,0,0,539,354.8Z"/><path class="cls-4" d="M546.43,361.06l2.85-.25v-6.44l-2.85.25v-2.53l5.18-.47,0.34,1.49H552a7,7,0,0,1,1.47-1.4,3.93,3.93,0,0,1,1.93-.68,2.38,2.38,0,0,1,2.17.81,5.21,5.21,0,0,1,.79,3.31l-2.69.25a2.19,2.19,0,0,0-.24-1.18,0.77,0.77,0,0,0-.77-0.31,2.48,2.48,0,0,0-1.48.6,5.32,5.32,0,0,0-1,1.15c0,2,0,2.94,0,4.9l5-.46c0,1,0,1.52,0,2.53-4.33.41-6.5,0.61-10.83,1v-2.53Z"/><path class="cls-4" d="M569.79,366.25a9.84,9.84,0,0,1-3.13-.7,8,8,0,0,1-2.69-1.78,8.56,8.56,0,0,1-1.87-2.95,11.43,11.43,0,0,1-.7-4.21,12.57,12.57,0,0,1,.7-4.33,11.33,11.33,0,0,1,1.87-3.34,10.76,10.76,0,0,1,2.69-2.36,12.63,12.63,0,0,1,3.13-1.39l0.55,2.41a10.64,10.64,0,0,0-1.83.84,7.69,7.69,0,0,0-1.94,1.6,8.8,8.8,0,0,0-1.55,2.56,9.82,9.82,0,0,0-.63,3.74,8.06,8.06,0,0,0,.67,3.5,6.87,6.87,0,0,0,1.62,2.22,6.24,6.24,0,0,0,2,1.21,7.23,7.23,0,0,0,1.7.44Z"/><path class="cls-4" d="M578.56,358.15a5.34,5.34,0,0,0,1.4-.33,4,4,0,0,0,1.11-.65,2.86,2.86,0,0,0,.73-0.93,2.61,2.61,0,0,0,.26-1.18,2.06,2.06,0,0,0-1-1.88,4.82,4.82,0,0,0-3-.41l-0.59.07-0.63.1-0.71.1v-8.42l8.32-.88v2.81l-5.74.61v3.1l0.37-.06,0.31,0,0.26,0a6.45,6.45,0,0,1,2.14.11,4.25,4.25,0,0,1,1.72.82,3.91,3.91,0,0,1,1.14,1.5,5.07,5.07,0,0,1,.4,2.06,5.67,5.67,0,0,1-.51,2.43,5.77,5.77,0,0,1-1.38,1.86,7.09,7.09,0,0,1-2,1.26,8.73,8.73,0,0,1-2.46.62,6.07,6.07,0,0,1-1.08,0q-0.57,0-1.13-.14a9.07,9.07,0,0,1-1-.23q-0.47-.13-0.79-0.26l1-2.49a6.14,6.14,0,0,0,1.21.38A5.13,5.13,0,0,0,578.56,358.15Z"/><path class="cls-4" d="M592.35,356.65a5.36,5.36,0,0,0,1.4-.34,4,4,0,0,0,1.11-.66,2.88,2.88,0,0,0,.73-0.93,2.63,2.63,0,0,0,.26-1.18,2,2,0,0,0-1-1.88,4.8,4.8,0,0,0-3-.39l-0.58.08-0.63.1-0.71.1c0-3.37,0-5.05,0-8.42l8.31-.94c0,1.12,0,1.68,0,2.81l-5.74.65v3.1l0.37-.06,0.31,0,0.26,0a6.44,6.44,0,0,1,2.14.09,4.21,4.21,0,0,1,1.72.8,3.87,3.87,0,0,1,1.14,1.49,5.05,5.05,0,0,1,.4,2.06,5.7,5.7,0,0,1-.5,2.44,5.83,5.83,0,0,1-1.38,1.87,7.15,7.15,0,0,1-2,1.28,8.78,8.78,0,0,1-2.46.63,6.08,6.08,0,0,1-1.08,0q-0.57,0-1.13-.13a9.07,9.07,0,0,1-1-.22,8.27,8.27,0,0,1-.79-0.26l1-2.5a6.1,6.1,0,0,0,1.21.37A5.11,5.11,0,0,0,592.35,356.65Z"/><path class="cls-4" d="M613.92,351.95l-2.75.34v4.49l-2.78.34c0-1.79,0-2.69,0-4.49l-7,.83v-2l7.28-10.55,2.46-.3v9.34l2.75-.34v2.39Zm-5.53-6.82-4,5.58,4-.48C608.39,348.19,608.39,347.17,608.39,345.13Z"/><path class="cls-4" d="M627.68,350.2l-2.75.36V355l-2.77.36v-4.49l-6.95.87v-2l7.27-10.6,2.45-.32v9.34l2.75-.36v2.39Zm-5.53-6.78-4,5.61,4-.51v-5.11Z"/><path class="cls-4" d="M629.08,346.43a14.42,14.42,0,0,1,.44-3.73,8.76,8.76,0,0,1,1.23-2.77,6.19,6.19,0,0,1,1.9-1.8,6.36,6.36,0,0,1,2.46-.85,4.67,4.67,0,0,1,4.46,1.43q1.56,1.82,1.56,6.1a14.56,14.56,0,0,1-.44,3.75,9,9,0,0,1-1.23,2.79,6.14,6.14,0,0,1-1.91,1.82,6.43,6.43,0,0,1-2.47.85,4.52,4.52,0,0,1-4.46-1.56Q629.08,350.53,629.08,346.43Zm3-.39c0,0.23,0,.45,0,0.65s0,0.42,0,.63l5.55-5.87a2.19,2.19,0,0,0-2.57-1.63,2.9,2.9,0,0,0-2.24,1.71A10.13,10.13,0,0,0,632.06,346Zm6.1-.82q0-.37,0-0.7c0-.22,0-0.44,0-0.65l-5.57,5.88a2.23,2.23,0,0,0,2.57,1.75,2.93,2.93,0,0,0,2.25-1.71A10.15,10.15,0,0,0,638.15,345.22Z"/><path class="cls-4" d="M647,350.61a1.82,1.82,0,0,1,.52-1.31,2.17,2.17,0,0,1,1.29-.64,2,2,0,0,1,1.9.56,2.87,2.87,0,0,1,.64,2,4.76,4.76,0,0,1-.4,1.94,6.05,6.05,0,0,1-1,1.62,6.9,6.9,0,0,1-1.43,1.22,6.69,6.69,0,0,1-1.57.75l-0.62-1.18a7.72,7.72,0,0,0,1.11-.55,5.48,5.48,0,0,0,1-.78,4.38,4.38,0,0,0,.77-1,2.76,2.76,0,0,0,.35-1.15,3,3,0,0,1-1.17.2,1.52,1.52,0,0,1-.79-0.26,1.24,1.24,0,0,1-.45-0.58A2.2,2.2,0,0,1,647,350.61Z"/><path class="cls-4" d="M668.19,344a5.62,5.62,0,0,1-.42,2.16,6.47,6.47,0,0,1-1.16,1.85,6.64,6.64,0,0,1-1.75,1.39,6.41,6.41,0,0,1-2.19.74,6.18,6.18,0,0,1-2.23,0,4.19,4.19,0,0,1-1.82-.87,4.43,4.43,0,0,1-1.24-1.73,6.66,6.66,0,0,1-.46-2.6,11.39,11.39,0,0,1,.79-4.25,13.86,13.86,0,0,1,2-3.53,13.15,13.15,0,0,1,2.77-2.62,10.87,10.87,0,0,1,3-1.52l0.66,2.27a10.38,10.38,0,0,0-2.27,1.09,10.24,10.24,0,0,0-1.88,1.53,9.4,9.4,0,0,0-1.38,1.84,6.68,6.68,0,0,0-.77,2,4.36,4.36,0,0,1,1.37-1.18,5.55,5.55,0,0,1,2-.7,5.23,5.23,0,0,1,1.92,0,3.53,3.53,0,0,1,2.57,2.13A5,5,0,0,1,668.19,344Zm-2.88.55a2,2,0,0,0-.74-1.77,2.66,2.66,0,0,0-2-.35,3.75,3.75,0,0,0-1.65.66,3.63,3.63,0,0,0-1.08,1.12,4.11,4.11,0,0,0-.06.57q0,0.31,0,.5a2.85,2.85,0,0,0,.18,1,2,2,0,0,0,1.4,1.28,2.75,2.75,0,0,0,1.17,0,3.14,3.14,0,0,0,1-.35,3.58,3.58,0,0,0,.89-0.67,3.27,3.27,0,0,0,.63-0.93A2.72,2.72,0,0,0,665.31,344.53Z"/><path class="cls-4" d="M672.17,350.74a9.23,9.23,0,0,0,1.69-.87,8.93,8.93,0,0,0,2-1.71,9.74,9.74,0,0,0,1.61-2.63,9.29,9.29,0,0,0,.66-3.67,8.68,8.68,0,0,0-.63-3.58,6.23,6.23,0,0,0-1.54-2.16A5.4,5.4,0,0,0,674,335a8.46,8.46,0,0,0-1.82-.38l0.55-2.55a10.08,10.08,0,0,1,3.11.6,7.47,7.47,0,0,1,2.67,1.68,8.13,8.13,0,0,1,1.86,2.87,11.17,11.17,0,0,1,.7,4.16,13,13,0,0,1-.7,4.39,11.93,11.93,0,0,1-1.86,3.42,11.42,11.42,0,0,1-2.67,2.46,12.34,12.34,0,0,1-3.11,1.49Z"/><path class="cls-4" d="M62.4,447.21v-2.53l2.7,0.43v-6.44l-2.72-.43V435.7l2.72,0.43v-0.64a3.87,3.87,0,0,1,.38-1.8,3,3,0,0,1,1-1.13A3.43,3.43,0,0,1,67.9,432a5.73,5.73,0,0,1,1.68,0,11.56,11.56,0,0,1,2.6.66,7.89,7.89,0,0,1,1.68.91L73,435.77a12.25,12.25,0,0,0-1.13-.63,5.46,5.46,0,0,0-1.57-.45,2,2,0,0,0-1.73.3,2.21,2.21,0,0,0-.49,1.61l4.8,0.74v2.53l-4.8-.74v6.44l4.83,0.74v2.53C68.7,448.2,66.6,447.87,62.4,447.21Z"/><path class="cls-4" d="M76.56,438.68a11.16,11.16,0,0,1,2.12-.39,11.8,11.8,0,0,1,2.85.13,6.89,6.89,0,0,1,2,.59,4.14,4.14,0,0,1,1.35,1,3.74,3.74,0,0,1,.74,1.37,5.91,5.91,0,0,1,.23,1.69q0,1.17-.08,2t-0.08,1.46a10.11,10.11,0,0,0,0,1.09c0,0.21.05,0.43,0.07,0.63l1.49,0.22V451l-3.84-.56-0.3-1.61-0.11,0a3.19,3.19,0,0,1-1.3,1,4,4,0,0,1-2.27.18,4.47,4.47,0,0,1-2.71-1.33,3.65,3.65,0,0,1-1-2.59,3.35,3.35,0,0,1,.35-1.61,2.38,2.38,0,0,1,1-1,4.24,4.24,0,0,1,1.61-.42,9.26,9.26,0,0,1,2.1.1q0.41,0.06.86,0.17l1.11,0.26a2.28,2.28,0,0,0,0-.45v-0.44a1.7,1.7,0,0,0-.5-1.33,2.76,2.76,0,0,0-1.48-.6,6.64,6.64,0,0,0-2.09,0,11.78,11.78,0,0,0-1.57.36Zm3.89,9a2.52,2.52,0,0,0,1.63-.16,2.17,2.17,0,0,0,.79-0.75v-1.38l-0.68-.2a8.27,8.27,0,0,0-1-.2,4.65,4.65,0,0,0-.86,0,2.57,2.57,0,0,0-.77.14,1.22,1.22,0,0,0-.54.37,1,1,0,0,0-.2.64,1.51,1.51,0,0,0,.37,1.06A2,2,0,0,0,80.45,447.7Z"/><path class="cls-4" d="M100.73,451.79a5.66,5.66,0,0,1-2.2.76,9.33,9.33,0,0,1-2.63,0,8.17,8.17,0,0,1-2.65-.81,6.56,6.56,0,0,1-1.95-1.51,6.29,6.29,0,0,1-1.2-2.09,7.69,7.69,0,0,1-.41-2.54,6,6,0,0,1,.48-2.51,4.43,4.43,0,0,1,1.34-1.72,4.87,4.87,0,0,1,2-.9,7.51,7.51,0,0,1,2.54,0,10.14,10.14,0,0,1,2.4.64,13,13,0,0,1,1.72.81v4l-2.52-.35v-2.12a6.93,6.93,0,0,0-1.42-.36,4.15,4.15,0,0,0-1.27,0,2.58,2.58,0,0,0-1.92,1.42,3.26,3.26,0,0,0-.31,1.5,3.85,3.85,0,0,0,.25,1.39,3.85,3.85,0,0,0,1.84,2.07,4.48,4.48,0,0,0,1.5.48,5.09,5.09,0,0,0,2.14-.07,7.32,7.32,0,0,0,1.25-.47Z"/><path class="cls-4" d="M104.63,444.46l-2.27-.31v-2.53l2.27,0.31V439.3l3-.45v3.47l6,0.8v2.53l-6-.8v3.29a4.38,4.38,0,0,0,.66,2.65,2.66,2.66,0,0,0,1.86,1,3.83,3.83,0,0,0,1.12,0,3.74,3.74,0,0,0,.91-0.26,4.31,4.31,0,0,0,.73-0.41l0.61-.43,1.38,2.25a3.66,3.66,0,0,1-1,.71,7.11,7.11,0,0,1-1.26.5,7.25,7.25,0,0,1-1.41.26,6.58,6.58,0,0,1-1.44,0,5.68,5.68,0,0,1-3.86-2,7.45,7.45,0,0,1-1.29-4.74v-3.29Z"/><path class="cls-4" d="M116.52,449.26a6.66,6.66,0,0,1,.44-2.52A4.43,4.43,0,0,1,118.2,445a4.51,4.51,0,0,1,1.91-.94,7,7,0,0,1,2.49-.08,7.8,7.8,0,0,1,2.58.76,6.34,6.34,0,0,1,1.92,1.47,6.08,6.08,0,0,1,1.18,2.07,7.81,7.81,0,0,1,.4,2.53,6.68,6.68,0,0,1-.44,2.52,4.46,4.46,0,0,1-1.24,1.76,4.51,4.51,0,0,1-1.92.94,7,7,0,0,1-2.49.09,7.75,7.75,0,0,1-2.58-.77,6.34,6.34,0,0,1-1.91-1.48,6.1,6.1,0,0,1-1.18-2.07A7.82,7.82,0,0,1,116.52,449.26Zm3.07,0.4a4.84,4.84,0,0,0,.21,1.43,4,4,0,0,0,.6,1.2,3.25,3.25,0,0,0,.94.87,3.16,3.16,0,0,0,1.26.43,2.61,2.61,0,0,0,2.17-.58,3.34,3.34,0,0,0,.84-2.59,4.42,4.42,0,0,0-.78-2.66,3.1,3.1,0,0,0-2.22-1.26,3.42,3.42,0,0,0-1.19,0,2,2,0,0,0-1,.51,2.61,2.61,0,0,0-.63,1A4.7,4.7,0,0,0,119.59,449.66Z"/><path class="cls-4" d="M130.37,454.23l2.84,0.35v-6.44l-2.84-.35v-2.53l5.16,0.63,0.34,1.56H136a5.11,5.11,0,0,1,1.47-1.09,3.38,3.38,0,0,1,1.93-.28,3,3,0,0,1,2.17,1.27,6,6,0,0,1,.79,3.47l-2.69-.32a2.49,2.49,0,0,0-.24-1.24,1,1,0,0,0-.77-0.47,2.08,2.08,0,0,0-1.48.28,3.9,3.9,0,0,0-1,.94v4.9l5,0.59v2.53c-4.32-.51-6.49-0.77-10.81-1.3v-2.53Z"/><path class="cls-4" d="M144.6,455.93l4,0.46V450l-4-.46V447l7,0.8v9l4.25,0.47v2.53c-4.51-.5-6.77-0.75-11.27-1.27v-2.53Zm3.49-11.7a1.44,1.44,0,0,1,.53-1.16,1.86,1.86,0,0,1,1.47-.34,2.5,2.5,0,0,1,1.54.68,1.77,1.77,0,0,1,.57,1.28,1.32,1.32,0,0,1-.57,1.14,2.17,2.17,0,0,1-1.54.3,2.37,2.37,0,0,1-1.47-.64A1.73,1.73,0,0,1,148.09,444.23Z"/><path class="cls-4" d="M159.09,449.36a11.54,11.54,0,0,1,2.12-.48,11.89,11.89,0,0,1,2.86,0,6.72,6.72,0,0,1,2,.5,3.91,3.91,0,0,1,1.36,1,3.54,3.54,0,0,1,.75,1.34,5.79,5.79,0,0,1,.23,1.68q0,1.17-.08,2t-0.08,1.46a10,10,0,0,0,0,1.09c0,0.21.05,0.43,0.07,0.63l1.49,0.15v2.53l-3.86-.4-0.3-1.6h-0.11a3.4,3.4,0,0,1-1.3,1.09,4.1,4.1,0,0,1-2.28.28,4.29,4.29,0,0,1-2.72-1.21,3.5,3.5,0,0,1-1-2.55,3.43,3.43,0,0,1,.35-1.63,2.54,2.54,0,0,1,1-1,4.42,4.42,0,0,1,1.62-.49,9.32,9.32,0,0,1,2.11,0q0.41,0,.87.14l1.12,0.21a2.3,2.3,0,0,0,0-.46v-0.44a1.63,1.63,0,0,0-.5-1.31,2.66,2.66,0,0,0-1.48-.54,6.71,6.71,0,0,0-2.1.08,12.19,12.19,0,0,0-1.57.43Zm3.91,8.86a2.58,2.58,0,0,0,1.64-.23,2.31,2.31,0,0,0,.8-0.78v-1.38l-0.68-.18a8.14,8.14,0,0,0-1-.16,4.64,4.64,0,0,0-.86,0,2.66,2.66,0,0,0-.77.17,1.3,1.3,0,0,0-.55.39,1,1,0,0,0-.2.65,1.45,1.45,0,0,0,.37,1A1.94,1.94,0,0,0,163,458.22Z"/><path class="cls-4" d="M172.81,445.41l4.9,0.49v10.63a5.2,5.2,0,0,0,.44,2.5,1.72,1.72,0,0,0,1.4.83,3.76,3.76,0,0,0,1.17,0,4,4,0,0,0,.92-0.34l1.13,2.18q-0.39.22-.78,0.4a4.59,4.59,0,0,1-.83.29,5.33,5.33,0,0,1-1,.14,7.53,7.53,0,0,1-1.16,0A4.78,4.78,0,0,1,175.8,461a4.68,4.68,0,0,1-1.08-3.24v-9.66l-1.91-.19v-2.53Z"/><path class="cls-4" d="M195.07,468.51a11.6,11.6,0,0,1-3.13-1.29,10.44,10.44,0,0,1-2.69-2.29,11,11,0,0,1-1.87-3.3,12.53,12.53,0,0,1-.7-4.34,11.46,11.46,0,0,1,.7-4.2,8.84,8.84,0,0,1,1.87-3,8.2,8.2,0,0,1,2.69-1.85,10.61,10.61,0,0,1,3.13-.8l0.55,2.51a8.9,8.9,0,0,0-1.83.49,5.88,5.88,0,0,0-1.94,1.23,6.8,6.8,0,0,0-1.55,2.26,9.26,9.26,0,0,0,1.66,9.78,8.16,8.16,0,0,0,2,1.58,8.65,8.65,0,0,0,1.7.76Z"/><path class="cls-4" d="M200.84,461.61l3.52,0.3V451.86l-3,2.06-1.38-2,5.25-3.55,2,0.17v13.57l3.45,0.28V465l-9.83-.83v-2.53Z"/><path class="cls-4" d="M214.65,462.76l3.52,0.28V453l-3,2.08-1.38-1.95,5.25-3.59,2,0.16v13.57l3.45,0.26V466l-9.83-.76v-2.53Z"/><path class="cls-4" d="M228.78,468.73a7.42,7.42,0,0,0,1.7-.49,6.52,6.52,0,0,0,2-1.26,7.16,7.16,0,0,0,1.62-2.27,8.17,8.17,0,0,0,.67-3.52,9.68,9.68,0,0,0-.63-3.72,8.48,8.48,0,0,0-1.55-2.51,7.41,7.41,0,0,0-1.95-1.54,10.37,10.37,0,0,0-1.83-.79l0.55-2.42a12.28,12.28,0,0,1,3.13,1.3,10.34,10.34,0,0,1,2.69,2.28,10.92,10.92,0,0,1,1.88,3.29,12.39,12.39,0,0,1,.7,4.31,11.58,11.58,0,0,1-.7,4.23,8.89,8.89,0,0,1-1.88,3,8.28,8.28,0,0,1-2.69,1.86,10.06,10.06,0,0,1-3.13.79Z"/><path class="cls-4" d="M380.43,471.5V469h2.72v-6.44h-2.74V460h2.74v-0.64a4.24,4.24,0,0,1,.38-1.87,3.78,3.78,0,0,1,1-1.29,4.14,4.14,0,0,1,1.44-.76,6,6,0,0,1,1.7-.25,10.78,10.78,0,0,1,2.62.24,6.64,6.64,0,0,1,1.7.64l-0.88,2.29a10.31,10.31,0,0,0-1.14-.45,5,5,0,0,0-1.58-.19,2.26,2.26,0,0,0-1.74.58,2.51,2.51,0,0,0-.5,1.69l4.84,0v2.53l-4.84,0v6.44l4.87,0v2.53C386.78,471.46,384.67,471.48,380.43,471.5Z"/><path class="cls-4" d="M394.71,460.66a12.76,12.76,0,0,1,2.13-.74,12.23,12.23,0,0,1,2.87-.34,6.35,6.35,0,0,1,2,.26,3.34,3.34,0,0,1,1.36.79,3,3,0,0,1,.75,1.25,5.49,5.49,0,0,1,.23,1.65q0,1.17-.08,2T403.94,467a9.83,9.83,0,0,0,0,1.08c0,0.21.05,0.42,0.07,0.62l1.5,0v2.53l-3.87.06-0.3-1.56h-0.11A4.06,4.06,0,0,1,400,471a4.41,4.41,0,0,1-2.29.55,3.85,3.85,0,0,1-2.73-.89,3.11,3.11,0,0,1-1-2.43,3.68,3.68,0,0,1,.35-1.67,3,3,0,0,1,1-1.16,5,5,0,0,1,1.63-.69,9.57,9.57,0,0,1,2.12-.25c0.27,0,.57,0,0.87,0l1.12,0.08a2.38,2.38,0,0,0,0-.46v-0.44a1.45,1.45,0,0,0-.5-1.25,2.43,2.43,0,0,0-1.49-.36,7,7,0,0,0-2.11.33,13.68,13.68,0,0,0-1.58.62Zm3.93,8.39a2.53,2.53,0,0,0,2.44-1.3v-1.38l-0.68-.09a7.91,7.91,0,0,0-1,0,4.79,4.79,0,0,0-.87.09,2.91,2.91,0,0,0-.78.26,1.54,1.54,0,0,0-.55.46,1.09,1.09,0,0,0-.2.67,1.29,1.29,0,0,0,.38,1A1.75,1.75,0,0,0,398.64,469.05Z"/><path class="cls-4" d="M419.07,469.84a6.8,6.8,0,0,1-2.21,1.12,9.81,9.81,0,0,1-2.65.42,7.46,7.46,0,0,1-2.66-.38,5.28,5.28,0,0,1-2-1.19,5.09,5.09,0,0,1-1.21-1.9,7.08,7.08,0,0,1-.42-2.48,6.53,6.53,0,0,1,.48-2.59,5.58,5.58,0,0,1,1.35-1.94,6,6,0,0,1,2-1.23,8,8,0,0,1,2.56-.46,9.42,9.42,0,0,1,2.42.24,11.12,11.12,0,0,1,1.73.53v4l-2.54.06V462a6.46,6.46,0,0,0-1.43-.13,4.38,4.38,0,0,0-1.28.22,3.21,3.21,0,0,0-1.13.64,3.36,3.36,0,0,0-.81,1.09,3.55,3.55,0,0,0-.31,1.55,3.51,3.51,0,0,0,.25,1.35,3.07,3.07,0,0,0,1.86,1.77,4.08,4.08,0,0,0,1.51.23,5.46,5.46,0,0,0,2.16-.42,9,9,0,0,0,1.26-.67Z"/><path class="cls-4" d="M423,461.87l-2.28.06V459.4l2.28-.06v-2.62l3-.93v3.47l6-.18v2.53l-6,.18v3.29a3.88,3.88,0,0,0,.67,2.55,2.25,2.25,0,0,0,1.87.74,4,4,0,0,0,1.13-.18,4.42,4.42,0,0,0,.91-0.41,5.44,5.44,0,0,0,.74-0.53l0.61-.52,1.38,2a4.65,4.65,0,0,1-1,.87,8.68,8.68,0,0,1-1.27.71,8.25,8.25,0,0,1-1.42.49,6.84,6.84,0,0,1-1.45.2,4.85,4.85,0,0,1-3.89-1.33q-1.3-1.4-1.3-4.53v-3.29Z"/><path class="cls-4" d="M435,464.74a7.17,7.17,0,0,1,.44-2.59,5.44,5.44,0,0,1,3.17-3.2,7.53,7.53,0,0,1,2.5-.49,7.13,7.13,0,0,1,2.59.34,5.1,5.1,0,0,1,1.93,1.16,4.92,4.92,0,0,1,1.19,1.87,7.82,7.82,0,0,1,0,5.06,5.46,5.46,0,0,1-3.17,3.21,7.47,7.47,0,0,1-2.5.49,7.09,7.09,0,0,1-2.59-.35,5.11,5.11,0,0,1-1.93-1.17,4.94,4.94,0,0,1-1.19-1.88A7.22,7.22,0,0,1,435,464.74Zm3.09-.1a4.48,4.48,0,0,0,.21,1.4,3.29,3.29,0,0,0,.6,1.11,2.57,2.57,0,0,0,.94.71,2.85,2.85,0,0,0,1.27.22,3,3,0,0,0,2.18-.93,4.66,4.66,0,0,0,.06-5.26,2.61,2.61,0,0,0-2.24-.9,3.66,3.66,0,0,0-1.2.24,2.48,2.48,0,0,0-1,.67,3.24,3.24,0,0,0-.63,1.13A5,5,0,0,0,438.05,464.64Z"/><path class="cls-4" d="M448.89,467.46l2.86-.11v-6.44l-2.86.11c0-1,0-1.52,0-2.53l5.19-.21,0.35,1.5h0.09a6.51,6.51,0,0,1,1.48-1.33,3.78,3.78,0,0,1,1.94-.59,2.51,2.51,0,0,1,2.18.91,5.39,5.39,0,0,1,.79,3.34l-2.7.12A2.25,2.25,0,0,0,458,461a0.81,0.81,0,0,0-.77-0.35,2.37,2.37,0,0,0-1.49.52,5,5,0,0,0-1,1.1v4.9l5-.22v2.53c-4.34.19-6.52,0.29-10.86,0.46v-2.53Z"/><path class="cls-4" d="M463.18,466.85l4.06-.19v-6.44l-4.06.19v-2.53l7.05-.34v9l4.26-.22v2.53c-4.53.24-6.79,0.35-11.32,0.56v-2.53Zm3.5-12.26a1.71,1.71,0,0,1,.53-1.24,2.52,2.52,0,0,1,3-.15,1.48,1.48,0,0,1,.58,1.19,1.57,1.57,0,0,1-.58,1.24,2.46,2.46,0,0,1-1.54.55,2.06,2.06,0,0,1-1.47-.4A1.47,1.47,0,0,1,466.69,454.58Z"/><path class="cls-4" d="M477.73,457.93a13.29,13.29,0,0,1,2.13-.83,12.43,12.43,0,0,1,2.87-.46,6.25,6.25,0,0,1,2,.17,3.16,3.16,0,0,1,1.36.74,2.87,2.87,0,0,1,.75,1.22,5.4,5.4,0,0,1,.23,1.64q0,1.17-.08,2t-0.08,1.48a9.81,9.81,0,0,0,0,1.08c0,0.21.05,0.42,0.07,0.62l1.5-.09V468l-3.87.23-0.3-1.55h-0.11A4.32,4.32,0,0,1,483,468a4.54,4.54,0,0,1-2.29.65,3.71,3.71,0,0,1-2.73-.77,3,3,0,0,1-1-2.38,3.78,3.78,0,0,1,.35-1.69,3.21,3.21,0,0,1,1-1.21,5.2,5.2,0,0,1,1.63-.76,9.74,9.74,0,0,1,2.12-.34c0.27,0,.56,0,0.87,0l1.12,0a2.41,2.41,0,0,0,0-.46v-0.44a1.39,1.39,0,0,0-.5-1.23,2.36,2.36,0,0,0-1.49-.29,7.13,7.13,0,0,0-2.1.42,14.33,14.33,0,0,0-1.58.68Zm3.92,8.23a2.88,2.88,0,0,0,1.64-.49,3,3,0,0,0,.8-0.91v-1.38l-0.68-.06a7.91,7.91,0,0,0-1,0,4.85,4.85,0,0,0-.87.13,3,3,0,0,0-.77.3,1.64,1.64,0,0,0-.55.48,1.13,1.13,0,0,0-.2.68,1.24,1.24,0,0,0,.38,1A1.7,1.7,0,0,0,481.65,466.16Z"/><path class="cls-4" d="M491.48,451.76l4.91-.31c0,4.25,0,6.38,0,10.63a4.76,4.76,0,0,0,.44,2.43,1.44,1.44,0,0,0,1.41.6,4,4,0,0,0,1.17-.23,4.82,4.82,0,0,0,.92-0.49l1.13,2q-0.39.28-.78,0.52a5.47,5.47,0,0,1-.83.42,5.91,5.91,0,0,1-1,.29,7.73,7.73,0,0,1-1.16.16,4.13,4.13,0,0,1-3.25-.9,4,4,0,0,1-1.08-3.06c0-3.86,0-5.8,0-9.66l-1.91.12C491.48,453.28,491.48,452.77,491.48,451.76Z"/><path class="cls-4" d="M505.1,469.67c4.09-.28,6.14-0.42,10.22-0.72v2.46c-4.09.3-6.13,0.44-10.22,0.72v-2.46Z"/><path class="cls-4" d="M517.12,450l4.65-.35v5.89h0.09a4.34,4.34,0,0,1,1.47-1.29,5.76,5.76,0,0,1,3.78-.5,2.76,2.76,0,0,1,1.27.66,3.23,3.23,0,0,1,.83,1.37,7,7,0,0,1,.3,2.22v7.15l-3,.24v-6.53a2.67,2.67,0,0,0-.6-2,1.94,1.94,0,0,0-1.57-.5,2.81,2.81,0,0,0-1.56.64,3.13,3.13,0,0,0-1,1.4v7.34l-3,.23V452.43l-1.66.12C517.12,451.55,517.12,451,517.12,450Z"/><path class="cls-4" d="M543.22,462.8a4.64,4.64,0,0,1-.77.61,8.25,8.25,0,0,1-1.1.59,9.34,9.34,0,0,1-3,.76,7.59,7.59,0,0,1-2.63-.19,4.6,4.6,0,0,1-3.2-2.85,6.81,6.81,0,0,1-.43-2.51,7,7,0,0,1,.48-2.7,6,6,0,0,1,1.32-2,6.19,6.19,0,0,1,2-1.3,8,8,0,0,1,2.44-.59,7.38,7.38,0,0,1,1.81.08,4.52,4.52,0,0,1,1.71.65,3.75,3.75,0,0,1,1.28,1.4,4.85,4.85,0,0,1,.5,2.35,11.25,11.25,0,0,1-.23,2.16l-8.28.71a2.51,2.51,0,0,0,.31,1.22,2.17,2.17,0,0,0,.76.76,3,3,0,0,0,1.08.38,5.3,5.3,0,0,0,1.3,0,7,7,0,0,0,2.27-.52,5.36,5.36,0,0,0,1.44-.91Zm-5-7.78a4,4,0,0,0-1.13.26,3.5,3.5,0,0,0-1,.56,3,3,0,0,0-.7.84,2.58,2.58,0,0,0-.32,1.08l5.66-.48A2.07,2.07,0,0,0,538.25,455Z"/><path class="cls-4" d="M546.74,447.61l4.9-.44v10.63a4.69,4.69,0,0,0,.44,2.42,1.4,1.4,0,0,0,1.4.56,4,4,0,0,0,1.17-.26,5,5,0,0,0,.92-0.51l1.13,2q-0.39.29-.78,0.55a5.66,5.66,0,0,1-.83.45,6,6,0,0,1-1,.32,7.84,7.84,0,0,1-1.16.19,4,4,0,0,1-3.24-.81,3.94,3.94,0,0,1-1.08-3V450l-1.91.17v-2.53Z"/><path class="cls-4" d="M558.53,451.12l3.91-.38,0.34,1.35h0.09a4.9,4.9,0,0,1,3.86-2.08,5.28,5.28,0,0,1,1.94.14,3.32,3.32,0,0,1,1.52.89,4.33,4.33,0,0,1,1,1.69,8.28,8.28,0,0,1,.34,2.56,8.83,8.83,0,0,1-.39,2.7,6.4,6.4,0,0,1-1.13,2.13,5.56,5.56,0,0,1-1.79,1.45,6.68,6.68,0,0,1-2.41.68,9.42,9.42,0,0,1-1.4,0,3.61,3.61,0,0,1-1.15-.22v4.71l-3,.29c0-5.43,0-8.14,0-13.57l-1.72.17v-2.53Zm7.31,1.5a3.3,3.3,0,0,0-1.6.59,2.6,2.6,0,0,0-1,1.41v4.78a2.22,2.22,0,0,0,.93.31,5,5,0,0,0,1.23,0,3.41,3.41,0,0,0,1.2-.34,2.82,2.82,0,0,0,1-.8,3.85,3.85,0,0,0,.64-1.28,6.23,6.23,0,0,0,.23-1.79,3.13,3.13,0,0,0-.74-2.27A2.17,2.17,0,0,0,565.84,452.62Z"/><path class="cls-4" d="M584.59,458.75a4.79,4.79,0,0,1-.77.62,8.48,8.48,0,0,1-1.1.61,9.45,9.45,0,0,1-3,.83,7.53,7.53,0,0,1-2.63-.14,4.46,4.46,0,0,1-3.19-2.79,6.75,6.75,0,0,1-.42-2.5,7.14,7.14,0,0,1,.48-2.71,6.13,6.13,0,0,1,1.32-2,6.36,6.36,0,0,1,2-1.34,8.11,8.11,0,0,1,2.44-.64,7.36,7.36,0,0,1,1.8,0,4.41,4.41,0,0,1,1.71.61,3.63,3.63,0,0,1,1.27,1.37A4.8,4.8,0,0,1,585,453a11.35,11.35,0,0,1-.23,2.16l-8.27.88a2.47,2.47,0,0,0,.31,1.21,2.11,2.11,0,0,0,.76.75,3,3,0,0,0,1.08.36,5.27,5.27,0,0,0,1.3,0,7.12,7.12,0,0,0,2.26-.56,5.51,5.51,0,0,0,1.44-.94Zm-5-7.68a4,4,0,0,0-1.13.28,3.59,3.59,0,0,0-1,.58,3.05,3.05,0,0,0-.7.86,2.63,2.63,0,0,0-.32,1.09l5.65-.6A2,2,0,0,0,579.63,451.07Z"/><path class="cls-4" d="M587,457.17l2.85-.31v-6.44l-2.85.31V448.2l5.17-.57,0.34,1.48h0.09a7.2,7.2,0,0,1,1.47-1.43,4,4,0,0,1,1.93-.73,2.33,2.33,0,0,1,2.17.76A5.15,5.15,0,0,1,599,451l-2.69.31a2.16,2.16,0,0,0-.24-1.18,0.75,0.75,0,0,0-.77-0.29,2.53,2.53,0,0,0-1.48.63,5.5,5.5,0,0,0-1,1.17v4.9l5-.57v2.53c-4.32.5-6.49,0.74-10.82,1.22v-2.53Z"/><path class="cls-4" d="M610.33,461.88a9.68,9.68,0,0,1-3.12-.63,7.71,7.71,0,0,1-2.68-1.73,8.32,8.32,0,0,1-1.87-2.91,11.33,11.33,0,0,1-.7-4.2,12.71,12.71,0,0,1,.7-4.35,11.64,11.64,0,0,1,1.87-3.38,11.08,11.08,0,0,1,2.68-2.41,12.89,12.89,0,0,1,3.12-1.46l0.55,2.39a10.86,10.86,0,0,0-1.82.88,7.93,7.93,0,0,0-1.94,1.64,9,9,0,0,0-1.55,2.59,9.94,9.94,0,0,0-.63,3.75,8,8,0,0,0,.67,3.49,6.67,6.67,0,0,0,1.62,2.19,6.06,6.06,0,0,0,2,1.17,7.11,7.11,0,0,0,1.7.4Z"/><path class="cls-4" d="M616.09,453.76l3.51-.44V443.27l-3,2.7-1.38-1.67,5.23-4.66,2-.26V453l3.44-.44V455l-9.79,1.25v-2.53Z"/><path class="cls-4" d="M632.41,452.71a1.81,1.81,0,0,1,.52-1.31,2.15,2.15,0,0,1,1.3-.63,2,2,0,0,1,1.9.57,2.89,2.89,0,0,1,.64,2,4.73,4.73,0,0,1-.4,1.94,6,6,0,0,1-1,1.61,6.84,6.84,0,0,1-1.43,1.21,6.64,6.64,0,0,1-1.57.74l-0.62-1.18a7.62,7.62,0,0,0,1.11-.54,5.41,5.41,0,0,0,1-.77,4.34,4.34,0,0,0,.77-1,2.74,2.74,0,0,0,.35-1.15,3,3,0,0,1-1.17.19,1.54,1.54,0,0,1-.79-0.26,1.25,1.25,0,0,1-.45-0.58A2.21,2.21,0,0,1,632.41,452.71Z"/><path class="cls-4" d="M643.59,450.13l3.5-.49V439.59l-3,2.75-1.37-1.65,5.22-4.73,2-.29v13.57l3.43-.49v2.53l-9.78,1.39v-2.53Z"/><path class="cls-4" d="M657.33,448.17l3.5-.52V437.6l-3,2.77-1.37-1.64,5.22-4.77,2-.3v13.57l3.43-.52v2.53l-9.77,1.46v-2.53Z"/><path class="cls-4" d="M671.38,451a9.23,9.23,0,0,0,1.69-.87,8.94,8.94,0,0,0,2-1.71,9.74,9.74,0,0,0,1.61-2.63,9.3,9.3,0,0,0,.66-3.67,8.67,8.67,0,0,0-.63-3.58,6.23,6.23,0,0,0-1.54-2.16,5.4,5.4,0,0,0-1.93-1.1,8.44,8.44,0,0,0-1.82-.38l0.55-2.55a10.08,10.08,0,0,1,3.11.6,7.47,7.47,0,0,1,2.67,1.68,8.12,8.12,0,0,1,1.86,2.87,11.17,11.17,0,0,1,.7,4.16,13,13,0,0,1-.7,4.39,11.93,11.93,0,0,1-1.86,3.42,11.42,11.42,0,0,1-2.67,2.46,12.34,12.34,0,0,1-3.11,1.49Z"/><path class="cls-4" d="M62.7,397.14v-2.53L65.4,395V388.6l-2.72-.43v-2.53l2.72,0.43v-0.64a3.87,3.87,0,0,1,.38-1.8,3,3,0,0,1,1-1.13A3.42,3.42,0,0,1,68.2,382a5.72,5.72,0,0,1,1.68,0,11.54,11.54,0,0,1,2.6.66,7.88,7.88,0,0,1,1.68.91l-0.87,2.14a12.31,12.31,0,0,0-1.13-.63,5.46,5.46,0,0,0-1.57-.45,2,2,0,0,0-1.73.3,2.21,2.21,0,0,0-.49,1.61l4.8,0.74c0,1,0,1.52,0,2.53l-4.8-.74v6.44l4.82,0.74c0,1,0,1.52,0,2.53C69,398.13,66.9,397.81,62.7,397.14Z"/><path class="cls-4" d="M76.86,388.61a11.2,11.2,0,0,1,2.12-.39,11.82,11.82,0,0,1,2.85.13,6.9,6.9,0,0,1,2,.59,4.14,4.14,0,0,1,1.35,1,3.74,3.74,0,0,1,.74,1.37,5.91,5.91,0,0,1,.23,1.69q0,1.17-.08,2c-0.05.54-.08,1-0.08,1.46a10.07,10.07,0,0,0,0,1.09c0,0.21.05,0.43,0.07,0.63l1.49,0.22v2.53l-3.84-.56-0.3-1.61-0.11,0a3.19,3.19,0,0,1-1.3,1,4,4,0,0,1-2.27.18,4.47,4.47,0,0,1-2.71-1.33,3.66,3.66,0,0,1-1-2.59,3.35,3.35,0,0,1,.35-1.61,2.39,2.39,0,0,1,1-1,4.23,4.23,0,0,1,1.61-.42,9.24,9.24,0,0,1,2.1.09c0.27,0,.56.1,0.86,0.17l1.11,0.26a2.28,2.28,0,0,0,0-.45v-0.44a1.7,1.7,0,0,0-.5-1.33,2.76,2.76,0,0,0-1.48-.6,6.62,6.62,0,0,0-2.09,0,11.76,11.76,0,0,0-1.57.36Zm3.89,9a2.52,2.52,0,0,0,1.63-.16,2.17,2.17,0,0,0,.79-0.75v-1.38l-0.68-.2a8.24,8.24,0,0,0-1-.2,4.65,4.65,0,0,0-.86,0,2.54,2.54,0,0,0-.77.14,1.21,1.21,0,0,0-.54.37,1,1,0,0,0-.2.64,1.51,1.51,0,0,0,.37,1.06A2,2,0,0,0,80.75,397.64Z"/><path class="cls-4" d="M101,401.72a5.66,5.66,0,0,1-2.2.76,9.31,9.31,0,0,1-2.63,0,8.16,8.16,0,0,1-2.65-.81,6.56,6.56,0,0,1-1.95-1.51,6.31,6.31,0,0,1-1.2-2.09,7.69,7.69,0,0,1-.41-2.54,6,6,0,0,1,.48-2.51,4.43,4.43,0,0,1,1.34-1.72,4.87,4.87,0,0,1,2-.9,7.52,7.52,0,0,1,2.54,0,10.14,10.14,0,0,1,2.4.64,12.92,12.92,0,0,1,1.72.81c0,1.62,0,2.43,0,4L98,395.5v-2.12a6.92,6.92,0,0,0-1.42-.36,4.13,4.13,0,0,0-1.27,0,2.58,2.58,0,0,0-1.92,1.42,3.25,3.25,0,0,0-.31,1.5,3.85,3.85,0,0,0,.25,1.39,3.85,3.85,0,0,0,1.84,2.07,4.48,4.48,0,0,0,1.5.48,5.09,5.09,0,0,0,2.14-.07,7.33,7.33,0,0,0,1.25-.47Z"/><path class="cls-4" d="M104.93,394.39l-2.27-.31v-2.53l2.27,0.31v-2.62l3-.45c0,1.39,0,2.08,0,3.47l6,0.8v2.53l-6-.8v3.29a4.39,4.39,0,0,0,.66,2.65,2.66,2.66,0,0,0,1.86,1,3.83,3.83,0,0,0,1.12,0,3.77,3.77,0,0,0,.91-0.26,4.35,4.35,0,0,0,.73-0.41l0.61-.43,1.38,2.25a3.68,3.68,0,0,1-1,.71,7.13,7.13,0,0,1-1.26.5,7.24,7.24,0,0,1-1.41.26,6.58,6.58,0,0,1-1.44,0,5.68,5.68,0,0,1-3.86-2,7.45,7.45,0,0,1-1.29-4.74C104.93,396.37,104.93,395.71,104.93,394.39Z"/><path class="cls-4" d="M116.82,399.2a6.65,6.65,0,0,1,.44-2.52,4.43,4.43,0,0,1,1.24-1.75,4.51,4.51,0,0,1,1.92-.94,7,7,0,0,1,2.49-.09,7.8,7.8,0,0,1,2.58.76,6.35,6.35,0,0,1,1.92,1.47,6.08,6.08,0,0,1,1.18,2.07,7.8,7.8,0,0,1,.4,2.53,6.68,6.68,0,0,1-.44,2.52A4.45,4.45,0,0,1,127.3,405a4.5,4.5,0,0,1-1.91.95,7,7,0,0,1-2.49.09,7.74,7.74,0,0,1-2.58-.77,6.35,6.35,0,0,1-1.92-1.48,6.11,6.11,0,0,1-1.18-2.07A7.82,7.82,0,0,1,116.82,399.2Zm3.07,0.4a4.85,4.85,0,0,0,.21,1.43,4,4,0,0,0,.6,1.2,3.25,3.25,0,0,0,.94.87,3.15,3.15,0,0,0,1.26.43,2.61,2.61,0,0,0,2.17-.58,3.34,3.34,0,0,0,.84-2.59,4.42,4.42,0,0,0-.78-2.66,3.1,3.1,0,0,0-2.23-1.26,3.42,3.42,0,0,0-1.19,0,2,2,0,0,0-1,.51,2.61,2.61,0,0,0-.63,1A4.71,4.71,0,0,0,119.9,399.59Z"/><path class="cls-4" d="M130.67,404.17l2.85,0.35v-6.44l-2.85-.35V395.2l5.16,0.63,0.34,1.56h0.09a5.11,5.11,0,0,1,1.47-1.09,3.38,3.38,0,0,1,1.93-.28,3,3,0,0,1,2.17,1.27,6,6,0,0,1,.79,3.47l-2.69-.32a2.49,2.49,0,0,0-.24-1.24,1,1,0,0,0-.77-0.47,2.09,2.09,0,0,0-1.48.28,3.9,3.9,0,0,0-1,.94v4.9l5,0.59V408c-4.32-.51-6.49-0.77-10.81-1.3v-2.53Z"/><path class="cls-4" d="M144.9,405.86l4,0.46v-6.44l-4-.46v-2.53l7,0.8v9l4.25,0.47v2.53c-4.51-.49-6.77-0.75-11.27-1.27v-2.53Zm3.49-11.7a1.44,1.44,0,0,1,.53-1.16,1.86,1.86,0,0,1,1.47-.34,2.5,2.5,0,0,1,1.54.68,1.76,1.76,0,0,1,.57,1.28,1.32,1.32,0,0,1-.57,1.14,2.17,2.17,0,0,1-1.54.3,2.37,2.37,0,0,1-1.47-.64A1.73,1.73,0,0,1,148.39,394.17Z"/><path class="cls-4" d="M159.39,399.3a11.55,11.55,0,0,1,2.13-.48,11.87,11.87,0,0,1,2.86,0,6.74,6.74,0,0,1,2,.5,3.91,3.91,0,0,1,1.36,1,3.55,3.55,0,0,1,.75,1.34,5.79,5.79,0,0,1,.23,1.68q0,1.17-.08,2c-0.05.55-.08,1-0.08,1.46a10,10,0,0,0,0,1.09c0,0.21.05,0.43,0.07,0.63l1.49,0.15v2.53l-3.86-.4-0.3-1.6h-0.11a3.4,3.4,0,0,1-1.3,1.09,4.1,4.1,0,0,1-2.28.28,4.29,4.29,0,0,1-2.72-1.21,3.5,3.5,0,0,1-1-2.55,3.42,3.42,0,0,1,.35-1.63,2.54,2.54,0,0,1,1-1,4.41,4.41,0,0,1,1.62-.49,9.3,9.3,0,0,1,2.11,0q0.41,0,.87.14l1.12,0.21a2.3,2.3,0,0,0,0-.46v-0.44a1.63,1.63,0,0,0-.5-1.31,2.67,2.67,0,0,0-1.48-.54,6.7,6.7,0,0,0-2.1.08,12.24,12.24,0,0,0-1.57.43Zm3.91,8.86a2.58,2.58,0,0,0,1.64-.23,2.32,2.32,0,0,0,.8-0.78v-1.38l-0.68-.18a8.15,8.15,0,0,0-1-.16,4.64,4.64,0,0,0-.86,0,2.64,2.64,0,0,0-.77.17,1.29,1.29,0,0,0-.55.39,1,1,0,0,0-.2.65,1.45,1.45,0,0,0,.37,1A1.94,1.94,0,0,0,163.3,408.16Z"/><path class="cls-4" d="M173.11,395.35l4.9,0.49c0,4.25,0,6.38,0,10.63a5.2,5.2,0,0,0,.44,2.5,1.72,1.72,0,0,0,1.4.83,3.77,3.77,0,0,0,1.17,0,4,4,0,0,0,.92-0.34l1.13,2.18q-0.39.22-.78,0.4a4.58,4.58,0,0,1-.83.29,5.3,5.3,0,0,1-1,.14,7.5,7.5,0,0,1-1.16,0A4.78,4.78,0,0,1,176.1,411a4.68,4.68,0,0,1-1.08-3.24c0-3.86,0-5.8,0-9.66l-1.91-.19v-2.53Z"/><path class="cls-4" d="M186.7,415.46c4.08,0.38,6.13.57,10.21,0.93,0,1,0,1.48,0,2.46-4.09-.36-6.13-0.55-10.21-0.93C186.7,416.94,186.7,416.45,186.7,415.46Z"/><path class="cls-4" d="M198.7,397.76l4.65,0.4c0,2.35,0,3.53,0,5.89h0.09a3.45,3.45,0,0,1,1.47-1,4.81,4.81,0,0,1,2.16-.26,5.64,5.64,0,0,1,1.61.36A3.41,3.41,0,0,1,210,404a4,4,0,0,1,.83,1.51,7.5,7.5,0,0,1,.3,2.27c0,2.86,0,4.29,0,7.15l-3-.25c0-2.61,0-3.92,0-6.53a3,3,0,0,0-.6-2.07,2.27,2.27,0,0,0-1.57-.75,2.44,2.44,0,0,0-1.56.39,2.5,2.5,0,0,0-1,1.24v7.34l-3-.26c0-5.43,0-8.14,0-13.57l-1.66-.14v-2.53Z"/><path class="cls-4" d="M224.8,414.76a3.72,3.72,0,0,1-.77.48,6.88,6.88,0,0,1-1.11.41,8.13,8.13,0,0,1-1.39.26,8.81,8.81,0,0,1-1.61,0,8.16,8.16,0,0,1-2.64-.62,5.77,5.77,0,0,1-3.2-3.37,7.37,7.37,0,0,1-.43-2.58,6.47,6.47,0,0,1,.48-2.62,4.76,4.76,0,0,1,1.32-1.79,5,5,0,0,1,2-1,7.43,7.43,0,0,1,2.44-.19,7.84,7.84,0,0,1,1.81.37,5.41,5.41,0,0,1,1.72.92,4.75,4.75,0,0,1,1.28,1.6,5.36,5.36,0,0,1,.49,2.43,10.68,10.68,0,0,1-.23,2.12l-8.29-.63a2.81,2.81,0,0,0,.31,1.27,2.75,2.75,0,0,0,.76.89,3.59,3.59,0,0,0,1.08.56,5.58,5.58,0,0,0,1.3.25,6.56,6.56,0,0,0,2.27-.15,4.38,4.38,0,0,0,1.44-.67Zm-5-8.59a3.7,3.7,0,0,0-1.13.08,2.89,2.89,0,0,0-1,.41,2.35,2.35,0,0,0-.7.73,2.27,2.27,0,0,0-.32,1l5.66,0.44A2.48,2.48,0,0,0,219.83,406.18Z"/><path class="cls-4" d="M228.32,400.14l4.9,0.35c0,4.25,0,6.38,0,10.63a5.11,5.11,0,0,0,.44,2.49,1.66,1.66,0,0,0,1.41.79,3.8,3.8,0,0,0,1.17-.07,4.16,4.16,0,0,0,.92-0.36l1.13,2.15q-0.39.23-.78,0.42a4.7,4.7,0,0,1-.83.31,5.39,5.39,0,0,1-1,.16,7.56,7.56,0,0,1-1.16,0,4.66,4.66,0,0,1-3.25-1.33,4.56,4.56,0,0,1-1.08-3.21c0-3.86,0-5.8,0-9.66l-1.91-.14v-2.53Z"/><path class="cls-4" d="M240.14,405.56l3.92,0.26,0.35,1.4h0.09a4.14,4.14,0,0,1,3.87-1.46,5.7,5.7,0,0,1,1.95.45,4.14,4.14,0,0,1,1.52,1.14,5.31,5.31,0,0,1,1,1.85,8.81,8.81,0,0,1,.35,2.62,8.21,8.21,0,0,1-.39,2.63,5.22,5.22,0,0,1-1.13,1.94,4.45,4.45,0,0,1-1.8,1.15,6.11,6.11,0,0,1-2.42.29,9.69,9.69,0,0,1-1.4-.19,4.1,4.1,0,0,1-1.15-.41c0,1.89,0,2.83,0,4.72l-3-.19c0-5.43,0-8.14,0-13.57l-1.73-.11v-2.53Zm7.33,2.68a2.92,2.92,0,0,0-1.6.34,2.08,2.08,0,0,0-1,1.25c0,1.91,0,2.87,0,4.78a2.64,2.64,0,0,0,.93.46,5.3,5.3,0,0,0,1.23.23,3.13,3.13,0,0,0,1.2-.14,2.25,2.25,0,0,0,1-.64,3.15,3.15,0,0,0,.64-1.18,5.83,5.83,0,0,0,.23-1.76,3.59,3.59,0,0,0-.74-2.39A2.56,2.56,0,0,0,247.46,408.25Z"/><path class="cls-4" d="M266.26,417.41a3.81,3.81,0,0,1-.77.5,7.06,7.06,0,0,1-1.11.44,8.21,8.21,0,0,1-1.39.29,8.82,8.82,0,0,1-1.61,0,8.07,8.07,0,0,1-2.64-.56,5.6,5.6,0,0,1-3.2-3.3,7.29,7.29,0,0,1-.43-2.57,6.53,6.53,0,0,1,.48-2.63,4.9,4.9,0,0,1,1.32-1.82,5.16,5.16,0,0,1,2-1,7.49,7.49,0,0,1,2.44-.24,7.78,7.78,0,0,1,1.81.33,5.29,5.29,0,0,1,1.72.89,4.6,4.6,0,0,1,1.28,1.58,5.28,5.28,0,0,1,.5,2.42,10.76,10.76,0,0,1-.23,2.13l-8.3-.46a2.77,2.77,0,0,0,.31,1.26,2.67,2.67,0,0,0,.76.87,3.49,3.49,0,0,0,1.08.53,5.53,5.53,0,0,0,1.3.22,6.61,6.61,0,0,0,2.27-.2,4.49,4.49,0,0,0,1.44-.7Zm-5-8.48a3.73,3.73,0,0,0-1.13.1,3,3,0,0,0-1,.43,2.41,2.41,0,0,0-.7.75,2.29,2.29,0,0,0-.32,1l5.67,0.32A2.42,2.42,0,0,0,261.29,408.93Z"/><path class="cls-4" d="M268.68,416.23l2.86,0.15v-6.44l-2.86-.15v-2.53l5.19,0.26,0.35,1.53h0.09a5.69,5.69,0,0,1,1.48-1.19,3.54,3.54,0,0,1,1.94-.41,2.76,2.76,0,0,1,2.18,1.11,5.74,5.74,0,0,1,.79,3.42l-2.7-.13a2.38,2.38,0,0,0-.24-1.22,0.9,0.9,0,0,0-.77-0.42,2.2,2.2,0,0,0-1.49.39,4.33,4.33,0,0,0-1,1c0,2,0,2.94,0,4.9l5,0.24v2.53c-4.34-.2-6.51-0.31-10.86-0.54v-2.53Z"/><path class="cls-4" d="M292.11,424.71a11.07,11.07,0,0,1-3.14-1.14,9.73,9.73,0,0,1-2.7-2.16,10.31,10.31,0,0,1-1.88-3.21,12.2,12.2,0,0,1-.7-4.31,11.71,11.71,0,0,1,.7-4.24,9.44,9.44,0,0,1,1.88-3.08,8.8,8.8,0,0,1,2.7-2,11.07,11.07,0,0,1,3.14-1l0.55,2.48a9.29,9.29,0,0,0-1.83.58,6.32,6.32,0,0,0-1.95,1.32,7.28,7.28,0,0,0-1.56,2.34,9.12,9.12,0,0,0-.63,3.65,8.69,8.69,0,0,0,.67,3.59,8.35,8.35,0,0,0,1.63,2.45,7.6,7.6,0,0,0,2,1.48,8.21,8.21,0,0,0,1.71.68Z"/><path class="cls-4" d="M297.89,417.53l3.53,0.13c0-4,0-6,0-10.05l-3,2.21L297,407.93l5.26-3.81,2,0.07c0,5.43,0,8.14,0,13.57l3.46,0.11v2.53l-9.85-.34v-2.53Z"/><path class="cls-4" d="M314.31,419.13a1.53,1.53,0,0,1,.52-1.23,1.85,1.85,0,0,1,1.3-.42,2.35,2.35,0,0,1,1.91.88,3.3,3.3,0,0,1,.65,2.06,4.27,4.27,0,0,1-.4,1.87,4.79,4.79,0,0,1-1,1.44,5.45,5.45,0,0,1-1.44,1,5.72,5.72,0,0,1-1.58.48l-0.62-1.28a6.51,6.51,0,0,0,1.12-.36,4.34,4.34,0,0,0,1-.6,3.41,3.41,0,0,0,.77-0.86,2.38,2.38,0,0,0,.36-1.09,2.94,2.94,0,0,1-1.18,0,1.84,1.84,0,0,1-.8-0.39,1.56,1.56,0,0,1-.45-0.66A2.38,2.38,0,0,1,314.31,419.13Z"/><path class="cls-4" d="M325.57,418.37l3.53,0.08V408.4l-3,2.26-1.38-1.87,5.26-3.88,2,0c0,5.43,0,8.14,0,13.57l3.46,0.07v2.53l-9.85-.2v-2.53Z"/><path class="cls-4" d="M339.41,418.64l3.53,0.05V408.64l-3,2.28-1.38-1.86,5.26-3.92,2,0v13.57l3.46,0v2.53l-9.85-.13v-2.53Z"/><path class="cls-4" d="M353.57,423.72a7.86,7.86,0,0,0,1.71-.59,7.13,7.13,0,0,0,2-1.39,7.81,7.81,0,0,0,1.63-2.37,8.45,8.45,0,0,0,.67-3.56,9.36,9.36,0,0,0-.63-3.68,7.79,7.79,0,0,0-1.56-2.41,6.78,6.78,0,0,0-1.95-1.42,9.75,9.75,0,0,0-1.83-.67l0.55-2.46a11.57,11.57,0,0,1,3.14,1.11,9.44,9.44,0,0,1,2.7,2.11,10.07,10.07,0,0,1,1.88,3.17,13.33,13.33,0,0,1,0,8.54,9.67,9.67,0,0,1-1.88,3.12,9.08,9.08,0,0,1-2.7,2,10.62,10.62,0,0,1-3.14,1Z"/><path class="cls-4" d="M517.71,413.46l2.85-.21v-6.44l-2.85.21v-2.53l5.18-.39,0.34,1.49h0.09a6.84,6.84,0,0,1,1.47-1.38,3.88,3.88,0,0,1,1.93-.66,2.42,2.42,0,0,1,2.18.84,5.26,5.26,0,0,1,.79,3.32l-2.69.21a2.2,2.2,0,0,0-.24-1.19,0.78,0.78,0,0,0-.77-0.32,2.45,2.45,0,0,0-1.48.58,5.22,5.22,0,0,0-1,1.13V413l5-.39v2.53c-4.34.35-6.5,0.51-10.84,0.84v-2.53Z"/><path class="cls-4" d="M542.92,412.74a4.64,4.64,0,0,1-.77.61,8.25,8.25,0,0,1-1.1.59,9.1,9.1,0,0,1-1.39.49,9.19,9.19,0,0,1-1.61.28,7.57,7.57,0,0,1-2.64-.19,4.6,4.6,0,0,1-3.2-2.85,6.82,6.82,0,0,1-.43-2.51,7,7,0,0,1,.48-2.7,6,6,0,0,1,1.32-2,6.18,6.18,0,0,1,2-1.3,8,8,0,0,1,2.44-.59,7.38,7.38,0,0,1,1.81.08,4.51,4.51,0,0,1,1.71.65,3.75,3.75,0,0,1,1.28,1.4,4.85,4.85,0,0,1,.5,2.35,11.25,11.25,0,0,1-.23,2.16l-8.28.71a2.51,2.51,0,0,0,.31,1.22,2.17,2.17,0,0,0,.76.76,3,3,0,0,0,1.08.38,5.29,5.29,0,0,0,1.3,0,7,7,0,0,0,2.27-.52,5.36,5.36,0,0,0,1.44-.91Zm-5-7.78a4,4,0,0,0-1.13.26,3.5,3.5,0,0,0-1,.56,3,3,0,0,0-.7.84,2.58,2.58,0,0,0-.32,1.08l5.66-.48A2.07,2.07,0,0,0,537.95,405Z"/><path class="cls-4" d="M557,411.57a7.39,7.39,0,0,1-2.21,1.28,10.15,10.15,0,0,1-2.64.6,7.24,7.24,0,0,1-2.66-.19,4.82,4.82,0,0,1-2-1.05,4.63,4.63,0,0,1-1.21-1.81,7.39,7.39,0,0,1,.07-5.07,6.14,6.14,0,0,1,1.35-2,6.56,6.56,0,0,1,2-1.37,8.3,8.3,0,0,1,2.55-.64,9.24,9.24,0,0,1,2.41.07,10.47,10.47,0,0,1,1.73.41v4l-2.53.24v-2.12a6.36,6.36,0,0,0-1.43,0,4.55,4.55,0,0,0-1.28.31,3.51,3.51,0,0,0-1.13.72,3.61,3.61,0,0,0-1.12,2.71,3.39,3.39,0,0,0,.25,1.33,2.78,2.78,0,0,0,1.85,1.64,4,4,0,0,0,1.51.13,5.69,5.69,0,0,0,2.15-.57,9.76,9.76,0,0,0,1.25-.76Z"/><path class="cls-4" d="M565.82,400.32l4.28-.43v9l1.75-.18v2.53l-3.63.37-0.53-1.65h-0.09a4.7,4.7,0,0,1-1.59,1.61,5.22,5.22,0,0,1-2.35.81,5.11,5.11,0,0,1-1.6-.07,2.55,2.55,0,0,1-1.23-.64,3.12,3.12,0,0,1-.78-1.35,7.5,7.5,0,0,1-.28-2.23v-4.62l-1.31.13V401l4.3-.41v6.53a3.31,3.31,0,0,0,.45,2,1.48,1.48,0,0,0,1.41.48,2.74,2.74,0,0,0,1.53-.66,3.12,3.12,0,0,0,1-1.34v-4.9l-1.29.13v-2.53Z"/><path class="cls-4" d="M572.92,408.57l2.85-.29v-6.44l-2.85.29V399.6l5.17-.54,0.34,1.48h0.09a7.12,7.12,0,0,1,1.47-1.42,4,4,0,0,1,1.93-.71,2.35,2.35,0,0,1,2.17.78,5.17,5.17,0,0,1,.79,3.29l-2.69.29a2.17,2.17,0,0,0-.24-1.18,0.76,0.76,0,0,0-.77-0.3,2.51,2.51,0,0,0-1.48.62,5.44,5.44,0,0,0-1,1.16V408l5-.53V410c-4.33.47-6.49,0.7-10.82,1.14v-2.53Z"/><path class="cls-4" d="M596.26,413.44a9.74,9.74,0,0,1-3.12-.66,7.79,7.79,0,0,1-2.69-1.74,8.4,8.4,0,0,1-1.87-2.92,11.36,11.36,0,0,1-.7-4.2,12.66,12.66,0,0,1,.7-4.34,11.54,11.54,0,0,1,1.87-3.37,11,11,0,0,1,2.69-2.4,12.81,12.81,0,0,1,3.12-1.44l0.55,2.4a10.8,10.8,0,0,0-1.82.87,7.85,7.85,0,0,0-1.94,1.62,9,9,0,0,0-1.55,2.58,9.9,9.9,0,0,0-.63,3.75,8,8,0,0,0,.67,3.49,6.73,6.73,0,0,0,1.62,2.2,6.13,6.13,0,0,0,2,1.18,7.14,7.14,0,0,0,1.7.41Z"/><path class="cls-4" d="M602,405.37l3.51-.42V394.9l-3,2.68-1.38-1.68,5.23-4.62,2-.24c0,5.43,0,8.14,0,13.57l3.44-.42v2.53L602,407.9v-2.53Z"/><path class="cls-4" d="M615.79,403.7l3.51-.44c0-4,0-6,0-10.05l-3,2.7-1.38-1.67,5.23-4.66,2-.26v13.57l3.44-.44V405c-3.92.51-5.87,0.76-9.79,1.25V403.7Z"/><path class="cls-4" d="M632.11,402.65a1.81,1.81,0,0,1,.52-1.31,2.15,2.15,0,0,1,1.3-.63,2,2,0,0,1,1.9.57,2.89,2.89,0,0,1,.64,2,4.73,4.73,0,0,1-.4,1.94,6,6,0,0,1-1,1.61,6.84,6.84,0,0,1-1.43,1.21,6.66,6.66,0,0,1-1.57.74l-0.62-1.18a7.67,7.67,0,0,0,1.11-.54,5.42,5.42,0,0,0,1-.77,4.34,4.34,0,0,0,.77-1,2.74,2.74,0,0,0,.36-1.15,3,3,0,0,1-1.17.19,1.54,1.54,0,0,1-.79-0.26,1.25,1.25,0,0,1-.45-0.58A2.21,2.21,0,0,1,632.11,402.65Z"/><path class="cls-4" d="M643.29,400.07l3.5-.49V389.52l-3,2.75-1.37-1.65,5.22-4.73,2-.29c0,5.43,0,8.14,0,13.57l3.43-.49v2.53l-9.78,1.39v-2.53Z"/><path class="cls-4" d="M655.47,392.79a14.55,14.55,0,0,1,.44-3.73,8.92,8.92,0,0,1,1.23-2.79,6.33,6.33,0,0,1,1.9-1.83,6.43,6.43,0,0,1,2.46-.88,4.61,4.61,0,0,1,4.46,1.37q1.56,1.8,1.56,6.08a14.64,14.64,0,0,1-.44,3.76,9.12,9.12,0,0,1-1.23,2.81,6.26,6.26,0,0,1-1.91,1.85,6.49,6.49,0,0,1-2.47.89,4.45,4.45,0,0,1-4.46-1.49Q655.47,396.88,655.47,392.79Zm3-.44c0,0.23,0,.45,0,0.65s0,0.42,0,.63l5.54-6a2.16,2.16,0,0,0-2.56-1.59,3,3,0,0,0-2.24,1.75A10.22,10.22,0,0,0,658.45,392.35Zm6.09-.91q0-.37,0-0.7c0-.22,0-0.44,0-0.65l-5.56,6a2.2,2.2,0,0,0,2.56,1.71,3,3,0,0,0,2.25-1.74A10.25,10.25,0,0,0,664.54,391.45Z"/><path class="cls-4" d="M671.08,400.9a9.24,9.24,0,0,0,1.69-.87,8.93,8.93,0,0,0,2-1.71,9.74,9.74,0,0,0,1.61-2.63A9.3,9.3,0,0,0,677,392a8.67,8.67,0,0,0-.63-3.58,6.23,6.23,0,0,0-1.54-2.16,5.39,5.39,0,0,0-1.93-1.1,8.45,8.45,0,0,0-1.82-.38l0.55-2.55a10.07,10.07,0,0,1,3.11.6,7.46,7.46,0,0,1,2.67,1.68,8.13,8.13,0,0,1,1.86,2.87,11.17,11.17,0,0,1,.7,4.16,13,13,0,0,1-.7,4.39,11.92,11.92,0,0,1-1.86,3.42,11.41,11.41,0,0,1-2.67,2.47,12.35,12.35,0,0,1-3.11,1.49Z"/></svg>