<svg id="Layer_1" data-name="Layer 1" xmlns="http://www.w3.org/2000/svg" viewBox="0 0 720 576"><defs><style>.cls-1,.cls-2,.cls-4,.cls-6{fill:#231f20;}.cls-1,.cls-3{stroke:#231f20;}.cls-1,.cls-6{stroke-miterlimit:10;}.cls-1,.cls-2,.cls-3{stroke-width:2px;}.cls-2{stroke:#000;}.cls-2,.cls-3{stroke-linecap:round;stroke-linejoin:round;}.cls-3,.cls-5{fill:#fff;}.cls-6{stroke:#fff;}</style></defs><title>Hanoi_Tower_Set_5_Final</title><path class="cls-1" d="M686.71,506.49c0-.14,0-0.29,0-0.43s0-.29,0-0.43V453.84H40.83s-0.25,51.74-.25,52.22c0,2.67,2.32,5.24,6.64,7.71,15.13,8.61,55.2,16.11,111,21.48s127.39,8.59,205.41,8.59c89.17,0,169.9-4.21,228.35-11,29.22-3.41,52.88-7.46,69.24-12,8.18-2.25,14.54-4.62,18.86-7.08,3.69-2.1,5.91-4.29,6.48-6.55h0.11v-0.73Z"/><ellipse class="cls-2" cx="363.67" cy="454.92" rx="322.89" ry="37.63"/><path class="cls-3" d="M686.71,455c0-.14,0-0.29,0-0.43s0-.29,0-0.43V402.36H40.83s-0.25,51.74-.25,52.22c0,2.67,2.32,5.24,6.64,7.71,15.13,8.61,55.2,16.11,111,21.48s127.39,8.59,205.41,8.59c89.17,0,169.9-4.21,228.35-11,29.22-3.41,52.88-7.46,69.24-12,8.18-2.25,14.54-4.62,18.86-7.08,3.69-2.1,5.91-4.29,6.48-6.55h0.11V455Z"/><ellipse class="cls-3" cx="363.67" cy="403.44" rx="322.89" ry="37.63"/><path class="cls-3" d="M686.71,403.53c0-.14,0-0.29,0-0.43s0-.29,0-0.43V350.88H40.83s-0.25,51.74-.25,52.22c0,2.67,2.32,5.24,6.64,7.71,15.13,8.61,55.2,16.11,111,21.48s127.39,8.59,205.41,8.59c89.17,0,169.9-4.21,228.35-11,29.22-3.41,52.88-7.46,69.24-12,8.18-2.25,14.54-4.62,18.86-7.08,3.69-2.1,5.91-4.29,6.48-6.55h0.11v-0.73Z"/><ellipse class="cls-3" cx="363.67" cy="351.97" rx="322.89" ry="37.63"/><path class="cls-3" d="M686.71,352.06c0-.14,0-0.29,0-0.43s0-.29,0-0.43V299.4H40.83s-0.25,51.74-.25,52.22c0,2.67,2.32,5.24,6.64,7.71,15.13,8.61,55.2,16.11,111,21.48s127.39,8.59,205.41,8.59c89.17,0,169.9-4.21,228.35-11,29.22-3.41,52.88-7.46,69.24-12,8.18-2.25,14.54-4.62,18.86-7.08,3.69-2.1,5.91-4.29,6.48-6.55h0.11v-0.73Z"/><ellipse class="cls-3" cx="363.67" cy="300.49" rx="322.89" ry="37.63"/><path class="cls-3" d="M686.71,302.06c0-.14,0-0.29,0-0.43s0-.29,0-0.43V249.4H40.83s-0.25,51.74-.25,52.22c0,2.67,2.32,5.24,6.64,7.71,15.13,8.61,55.2,16.11,111,21.48s127.39,8.59,205.41,8.59c89.17,0,169.9-4.21,228.35-11,29.22-3.41,52.88-7.46,69.24-12,8.18-2.25,14.54-4.62,18.86-7.08,3.69-2.1,5.91-4.29,6.48-6.55h0.11v-0.73Z"/><ellipse class="cls-3" cx="363.67" cy="250.49" rx="322.89" ry="37.63"/><path class="cls-4" d="M364.7,259.78c-16,0-29-3.75-30.2-8.61h-0.08l0-.5V8.27H395v242.9h-0.12C393.67,256,380.68,259.78,364.7,259.78Z"/><path class="cls-5" d="M394.52,8.77v241.9h0c-0.49,4.78-13.63,8.61-29.79,8.61s-29.3-3.83-29.79-8.61h0v-0.21s0,0,0-.06,0,0,0-.06V8.77h59.63m1-1H333.9V250.29s0,0.07,0,.11v1.27h0.23c2,5.6,16.84,8.61,30.58,8.61s28.6-3,30.58-8.61h0.21l0-1V7.77h0Z"/><ellipse class="cls-6" cx="364.7" cy="8.89" rx="29.81" ry="8.89"/><path class="cls-4" d="M54.75,450.38v-2.53l2.7,0.43v-6.44l-2.72-.43v-2.53l2.72,0.43v-0.64a3.88,3.88,0,0,1,.38-1.8,3,3,0,0,1,1-1.13,3.42,3.42,0,0,1,1.43-.53,5.73,5.73,0,0,1,1.68,0,11.55,11.55,0,0,1,2.6.66,7.9,7.9,0,0,1,1.68.91l-0.87,2.14a12.23,12.23,0,0,0-1.13-.63,5.45,5.45,0,0,0-1.57-.45,2,2,0,0,0-1.73.3,2.21,2.21,0,0,0-.49,1.61l4.8,0.74V443l-4.8-.74v6.44l4.83,0.74V452C61,451.37,58.94,451,54.75,450.38Z"/><path class="cls-4" d="M68.9,441.85a11.17,11.17,0,0,1,2.12-.39,11.81,11.81,0,0,1,2.85.12,6.9,6.9,0,0,1,2,.59,4.14,4.14,0,0,1,1.35,1,3.75,3.75,0,0,1,.74,1.37,5.93,5.93,0,0,1,.23,1.69q0,1.17-.08,2c-0.05.54-.08,1-0.08,1.46a10.14,10.14,0,0,0,0,1.09c0,0.21.05,0.43,0.07,0.63l1.49,0.22v2.53l-3.84-.56L75.51,452l-0.11,0a3.19,3.19,0,0,1-1.3,1,4,4,0,0,1-2.27.18,4.47,4.47,0,0,1-2.71-1.33,3.65,3.65,0,0,1-1-2.59,3.35,3.35,0,0,1,.35-1.61,2.38,2.38,0,0,1,1-1,4.23,4.23,0,0,1,1.61-.42,9.26,9.26,0,0,1,2.1.1q0.41,0.06.86,0.17l1.11,0.26a2.29,2.29,0,0,0,0-.45v-0.44a1.7,1.7,0,0,0-.5-1.33,2.76,2.76,0,0,0-1.48-.6,6.63,6.63,0,0,0-2.09,0,11.75,11.75,0,0,0-1.57.36Zm3.89,9a2.52,2.52,0,0,0,1.63-.16,2.17,2.17,0,0,0,.79-0.75v-1.38l-0.68-.2a8.28,8.28,0,0,0-1-.2,4.64,4.64,0,0,0-.86,0,2.57,2.57,0,0,0-.77.14,1.22,1.22,0,0,0-.54.37,1,1,0,0,0-.2.64,1.51,1.51,0,0,0,.37,1.06A2,2,0,0,0,72.8,450.88Z"/><path class="cls-4" d="M93.08,455a5.66,5.66,0,0,1-2.2.76,9.32,9.32,0,0,1-2.63,0,8.17,8.17,0,0,1-2.65-.81,6.56,6.56,0,0,1-1.95-1.51,6.29,6.29,0,0,1-1.2-2.09,7.69,7.69,0,0,1-.41-2.54,6,6,0,0,1,.48-2.51,4.43,4.43,0,0,1,1.34-1.72,4.86,4.86,0,0,1,2-.9,7.51,7.51,0,0,1,2.54,0,10.13,10.13,0,0,1,2.4.64,12.91,12.91,0,0,1,1.72.81v4L90,448.74v-2.12a6.92,6.92,0,0,0-1.42-.36,4.15,4.15,0,0,0-1.27,0,2.58,2.58,0,0,0-1.92,1.42,3.26,3.26,0,0,0-.31,1.5,3.85,3.85,0,0,0,.25,1.39,3.9,3.9,0,0,0,.71,1.18,4,4,0,0,0,1.13.88,4.49,4.49,0,0,0,1.5.48,5.09,5.09,0,0,0,2.14-.07,7.34,7.34,0,0,0,1.25-.47Z"/><path class="cls-4" d="M97,447.63l-2.27-.31v-2.53L97,445.1v-2.62l3-.45v3.47l6,0.8v2.53l-6-.8v3.29a4.39,4.39,0,0,0,.66,2.65,2.66,2.66,0,0,0,1.86,1,3.83,3.83,0,0,0,1.12,0,3.74,3.74,0,0,0,.91-0.26,4.32,4.32,0,0,0,.73-0.41l0.61-.43,1.38,2.25a3.66,3.66,0,0,1-1,.71,7.08,7.08,0,0,1-1.26.5,7.21,7.21,0,0,1-1.41.26,6.58,6.58,0,0,1-1.44,0,5.68,5.68,0,0,1-3.86-2A7.45,7.45,0,0,1,97,450.92v-3.29Z"/><path class="cls-4" d="M108.87,452.44a6.66,6.66,0,0,1,.44-2.52,4.43,4.43,0,0,1,1.24-1.75,4.51,4.51,0,0,1,1.91-.94,7,7,0,0,1,2.49-.08,7.8,7.8,0,0,1,2.58.76,6.34,6.34,0,0,1,1.92,1.47,6.08,6.08,0,0,1,1.18,2.07A7.81,7.81,0,0,1,121,454a6.69,6.69,0,0,1-.44,2.52,4.35,4.35,0,0,1-3.15,2.7,7,7,0,0,1-2.49.09,7.75,7.75,0,0,1-2.58-.77,6.35,6.35,0,0,1-1.91-1.48,6.1,6.1,0,0,1-1.18-2.07A7.82,7.82,0,0,1,108.87,452.44Zm3.07,0.4a4.84,4.84,0,0,0,.21,1.43,4,4,0,0,0,.6,1.2,3.25,3.25,0,0,0,.94.87,3.16,3.16,0,0,0,1.26.43,2.61,2.61,0,0,0,2.17-.58,3.34,3.34,0,0,0,.84-2.59,4.42,4.42,0,0,0-.78-2.66,3.1,3.1,0,0,0-2.22-1.26,3.42,3.42,0,0,0-1.19,0,2,2,0,0,0-1,.51,2.61,2.61,0,0,0-.63,1A4.7,4.7,0,0,0,111.94,452.83Z"/><path class="cls-4" d="M122.72,457.41l2.84,0.35v-6.44l-2.84-.35v-2.53l5.16,0.63,0.34,1.56h0.09a5.11,5.11,0,0,1,1.47-1.09,3.38,3.38,0,0,1,1.93-.28,3,3,0,0,1,2.17,1.27,6,6,0,0,1,.79,3.47l-2.69-.32a2.49,2.49,0,0,0-.24-1.24A1,1,0,0,0,131,452a2.08,2.08,0,0,0-1.48.28,3.9,3.9,0,0,0-1,.94v4.9l5,0.59v2.53c-4.32-.51-6.49-0.77-10.81-1.3v-2.53Z"/><path class="cls-4" d="M136.95,459.1l4,0.46v-6.44l-4-.46v-2.53l7,0.8v9l4.25,0.47v2.53c-4.51-.5-6.77-0.75-11.27-1.27V459.1Zm3.49-11.7a1.44,1.44,0,0,1,.53-1.16,1.86,1.86,0,0,1,1.47-.34,2.5,2.5,0,0,1,1.54.68,1.77,1.77,0,0,1,.57,1.28A1.32,1.32,0,0,1,144,449a2.17,2.17,0,0,1-1.54.3,2.37,2.37,0,0,1-1.47-.64A1.73,1.73,0,0,1,140.44,447.41Z"/><path class="cls-4" d="M151.44,452.54a11.54,11.54,0,0,1,2.12-.48,11.88,11.88,0,0,1,2.86,0,6.73,6.73,0,0,1,2,.5,3.92,3.92,0,0,1,1.36,1,3.55,3.55,0,0,1,.75,1.34,5.8,5.8,0,0,1,.23,1.68q0,1.17-.08,2c-0.05.55-.08,1-0.08,1.46a10,10,0,0,0,0,1.09c0,0.21.05,0.43,0.07,0.63l1.49,0.15v2.53l-3.86-.4-0.3-1.6H158a3.4,3.4,0,0,1-1.3,1.09,4.1,4.1,0,0,1-2.28.28,4.29,4.29,0,0,1-2.72-1.21,3.5,3.5,0,0,1-1-2.55,3.42,3.42,0,0,1,.35-1.63,2.54,2.54,0,0,1,1-1,4.41,4.41,0,0,1,1.62-.49,9.31,9.31,0,0,1,2.11,0q0.41,0,.87.14l1.12,0.21a2.3,2.3,0,0,0,0-.46V456.3a1.63,1.63,0,0,0-.5-1.31,2.66,2.66,0,0,0-1.48-.54,6.7,6.7,0,0,0-2.1.08,12.22,12.22,0,0,0-1.57.43Zm3.91,8.86a2.58,2.58,0,0,0,1.64-.23,2.31,2.31,0,0,0,.8-0.78V459l-0.68-.18a8.15,8.15,0,0,0-1-.16,4.65,4.65,0,0,0-.86,0,2.66,2.66,0,0,0-.77.17,1.3,1.3,0,0,0-.55.39,1,1,0,0,0-.2.65,1.45,1.45,0,0,0,.37,1A1.94,1.94,0,0,0,155.35,461.4Z"/><path class="cls-4" d="M165.15,448.59l4.9,0.49V459.7a5.2,5.2,0,0,0,.44,2.5,1.72,1.72,0,0,0,1.4.83,3.77,3.77,0,0,0,1.17,0,4,4,0,0,0,.92-0.34l1.13,2.18q-0.39.22-.78,0.4a4.59,4.59,0,0,1-.83.29,5.31,5.31,0,0,1-1,.14,7.52,7.52,0,0,1-1.16,0,4.78,4.78,0,0,1-3.24-1.42,4.68,4.68,0,0,1-1.08-3.24v-9.66l-1.91-.19v-2.53Z"/><path class="cls-4" d="M187.41,471.69a11.6,11.6,0,0,1-3.13-1.29,10.44,10.44,0,0,1-2.69-2.29,11,11,0,0,1-1.87-3.3,12.52,12.52,0,0,1-.7-4.34,11.46,11.46,0,0,1,.7-4.2,8.84,8.84,0,0,1,1.87-3,8.2,8.2,0,0,1,2.69-1.85,10.6,10.6,0,0,1,3.13-.8l0.55,2.51a8.89,8.89,0,0,0-1.83.49,5.89,5.89,0,0,0-1.94,1.23,6.8,6.8,0,0,0-1.55,2.26,9.26,9.26,0,0,0,1.66,9.78,8.16,8.16,0,0,0,2,1.58,8.64,8.64,0,0,0,1.7.76Z"/><path class="cls-4" d="M193.18,464.79l3.52,0.3V455l-3,2.06-1.38-2,5.25-3.55,2,0.17v13.57l3.45,0.28v2.53l-9.82-.83v-2.53Z"/><path class="cls-4" d="M207,465.94l3.52,0.28V456.16l-3,2.08-1.38-1.95,5.25-3.59,2,0.16v13.57l3.45,0.26v2.53l-9.83-.76v-2.53Z"/><path class="cls-4" d="M221.13,471.91a7.42,7.42,0,0,0,1.7-.49,6.52,6.52,0,0,0,2-1.26,7.16,7.16,0,0,0,1.62-2.27,8.17,8.17,0,0,0,.67-3.52,9.68,9.68,0,0,0-.63-3.72,8.48,8.48,0,0,0-1.55-2.51A7.41,7.41,0,0,0,223,456.6a10.36,10.36,0,0,0-1.83-.79l0.55-2.42a12.29,12.29,0,0,1,3.13,1.3A10.34,10.34,0,0,1,227.5,457a10.92,10.92,0,0,1,1.88,3.29,12.39,12.39,0,0,1,.7,4.31,11.58,11.58,0,0,1-.7,4.23,8.89,8.89,0,0,1-1.88,3,8.28,8.28,0,0,1-2.69,1.86,10.07,10.07,0,0,1-3.13.79Z"/><path class="cls-4" d="M372.77,474.67v-2.53h2.72v-6.44h-2.74v-2.53h2.74v-0.64a4.23,4.23,0,0,1,.38-1.87,3.78,3.78,0,0,1,1-1.29,4.14,4.14,0,0,1,1.44-.76,6,6,0,0,1,1.7-.25,10.78,10.78,0,0,1,2.62.24,6.65,6.65,0,0,1,1.7.64l-0.88,2.29a10.33,10.33,0,0,0-1.14-.45,5,5,0,0,0-1.58-.19,2.26,2.26,0,0,0-1.74.58,2.51,2.51,0,0,0-.5,1.69l4.84,0v2.53l-4.84,0v6.44l4.87,0v2.53C379.13,474.64,377,474.65,372.77,474.67Z"/><path class="cls-4" d="M387.05,463.84a12.76,12.76,0,0,1,2.13-.74,12.24,12.24,0,0,1,2.87-.34,6.35,6.35,0,0,1,2,.26,3.34,3.34,0,0,1,1.36.79,3,3,0,0,1,.75,1.25,5.49,5.49,0,0,1,.23,1.65q0,1.17-.08,2t-0.08,1.47a9.8,9.8,0,0,0,0,1.08c0,0.21.05,0.42,0.07,0.62l1.5,0v2.53l-3.87.06-0.3-1.56h-0.11a4.06,4.06,0,0,1-1.31,1.25,4.41,4.41,0,0,1-2.29.55,3.85,3.85,0,0,1-2.73-.89,3.1,3.1,0,0,1-1-2.43,3.68,3.68,0,0,1,.35-1.67,3,3,0,0,1,1-1.16,5,5,0,0,1,1.63-.69,9.58,9.58,0,0,1,2.12-.25c0.27,0,.57,0,0.87,0l1.12,0.08a2.38,2.38,0,0,0,0-.46v-0.44a1.45,1.45,0,0,0-.5-1.25,2.43,2.43,0,0,0-1.49-.36,7,7,0,0,0-2.11.33,13.68,13.68,0,0,0-1.58.62Zm3.93,8.39a2.53,2.53,0,0,0,2.44-1.3v-1.38l-0.68-.09a7.91,7.91,0,0,0-1,0,4.77,4.77,0,0,0-.87.09,2.93,2.93,0,0,0-.78.26,1.54,1.54,0,0,0-.55.46,1.09,1.09,0,0,0-.2.67,1.29,1.29,0,0,0,.38,1A1.75,1.75,0,0,0,391,472.23Z"/><path class="cls-4" d="M411.41,473a6.8,6.8,0,0,1-2.21,1.12,9.82,9.82,0,0,1-2.65.42,7.46,7.46,0,0,1-2.66-.38,5.29,5.29,0,0,1-2-1.19,5.08,5.08,0,0,1-1.21-1.9,7.08,7.08,0,0,1-.42-2.48,6.53,6.53,0,0,1,.48-2.59,5.58,5.58,0,0,1,1.35-1.93,6,6,0,0,1,2-1.23,8,8,0,0,1,2.56-.46,9.42,9.42,0,0,1,2.42.24,11.12,11.12,0,0,1,1.73.53v4l-2.54.06v-2.12a6.47,6.47,0,0,0-1.43-.13,4.39,4.39,0,0,0-1.28.22,3.21,3.21,0,0,0-1.13.64,3.36,3.36,0,0,0-.81,1.09,3.55,3.55,0,0,0-.31,1.55,3.51,3.51,0,0,0,.25,1.35,3.07,3.07,0,0,0,1.86,1.77,4.08,4.08,0,0,0,1.51.23,5.46,5.46,0,0,0,2.16-.42,9,9,0,0,0,1.26-.67Z"/><path class="cls-4" d="M415.34,465l-2.28.06v-2.53l2.28-.06v-2.62l3-.93v3.47l6-.18v2.53l-6,.18v3.29a3.88,3.88,0,0,0,.67,2.55,2.24,2.24,0,0,0,1.87.74,4,4,0,0,0,1.13-.18,4.41,4.41,0,0,0,.91-0.41,5.44,5.44,0,0,0,.74-0.53l0.61-.52,1.38,2a4.65,4.65,0,0,1-1,.87,8.69,8.69,0,0,1-1.27.71A8.26,8.26,0,0,1,422,474a6.86,6.86,0,0,1-1.45.2,4.85,4.85,0,0,1-3.89-1.33q-1.3-1.4-1.3-4.53V465Z"/><path class="cls-4" d="M427.31,467.92a7.18,7.18,0,0,1,.44-2.59,5.44,5.44,0,0,1,3.17-3.2,7.53,7.53,0,0,1,2.5-.49A7.13,7.13,0,0,1,436,462a5.1,5.1,0,0,1,1.93,1.16,4.92,4.92,0,0,1,1.19,1.87,7.82,7.82,0,0,1,0,5.06,5.45,5.45,0,0,1-3.17,3.21,7.47,7.47,0,0,1-2.5.49,7.09,7.09,0,0,1-2.59-.35,5.11,5.11,0,0,1-1.93-1.17,4.94,4.94,0,0,1-1.19-1.88A7.22,7.22,0,0,1,427.31,467.92Zm3.09-.1a4.48,4.48,0,0,0,.21,1.4,3.29,3.29,0,0,0,.6,1.11,2.56,2.56,0,0,0,.94.71,2.84,2.84,0,0,0,1.27.22,3,3,0,0,0,2.18-.93,4.66,4.66,0,0,0,.06-5.26,2.61,2.61,0,0,0-2.24-.9,3.66,3.66,0,0,0-1.2.24,2.48,2.48,0,0,0-1,.67,3.24,3.24,0,0,0-.63,1.13A5,5,0,0,0,430.4,467.81Z"/><path class="cls-4" d="M441.23,470.64l2.86-.11v-6.44l-2.86.11v-2.53l5.19-.21,0.35,1.5h0.09a6.51,6.51,0,0,1,1.48-1.33,3.78,3.78,0,0,1,1.94-.59,2.51,2.51,0,0,1,2.18.91,5.39,5.39,0,0,1,.79,3.34l-2.7.12a2.25,2.25,0,0,0-.24-1.2,0.81,0.81,0,0,0-.77-0.35,2.37,2.37,0,0,0-1.49.52,5,5,0,0,0-1,1.1v4.9l5-.22c0,1,0,1.52,0,2.53-4.34.19-6.52,0.29-10.86,0.46v-2.53Z"/><path class="cls-4" d="M455.53,470l4.06-.19v-6.44l-4.06.19v-2.53l7.05-.34v9l4.26-.22V472c-4.53.24-6.79,0.35-11.32,0.56V470Zm3.5-12.26a1.71,1.71,0,0,1,.53-1.24,2.14,2.14,0,0,1,1.47-.58,2.17,2.17,0,0,1,1.54.43,1.48,1.48,0,0,1,.58,1.19,1.57,1.57,0,0,1-.58,1.24,2.47,2.47,0,0,1-1.54.55,2.06,2.06,0,0,1-1.47-.4A1.47,1.47,0,0,1,459,457.76Z"/><path class="cls-4" d="M470.07,461.11a13.27,13.27,0,0,1,2.13-.83,12.43,12.43,0,0,1,2.87-.46,6.25,6.25,0,0,1,2,.17,3.17,3.17,0,0,1,1.36.74,2.87,2.87,0,0,1,.75,1.22,5.41,5.41,0,0,1,.23,1.64q0,1.17-.08,2t-0.08,1.48a9.81,9.81,0,0,0,0,1.08c0,0.21.05,0.42,0.07,0.62l1.5-.09v2.53l-3.87.23-0.3-1.55h-0.11a4.32,4.32,0,0,1-1.31,1.3,4.54,4.54,0,0,1-2.29.65,3.71,3.71,0,0,1-2.73-.77,3,3,0,0,1-1-2.38,3.78,3.78,0,0,1,.35-1.69,3.22,3.22,0,0,1,1-1.21,5.2,5.2,0,0,1,1.63-.76,9.73,9.73,0,0,1,2.12-.34c0.27,0,.56,0,0.87,0l1.12,0a2.39,2.39,0,0,0,0-.46v-0.44a1.39,1.39,0,0,0-.5-1.23,2.36,2.36,0,0,0-1.49-.29,7.13,7.13,0,0,0-2.1.42,14.31,14.31,0,0,0-1.58.68Zm3.92,8.22a2.88,2.88,0,0,0,1.64-.49,3,3,0,0,0,.8-0.91v-1.38l-0.68-.06a7.87,7.87,0,0,0-1,0,4.84,4.84,0,0,0-.87.13,3,3,0,0,0-.77.3,1.63,1.63,0,0,0-.55.48,1.13,1.13,0,0,0-.2.68,1.24,1.24,0,0,0,.38,1A1.7,1.7,0,0,0,474,469.33Z"/><path class="cls-4" d="M483.83,454.93l4.91-.31c0,4.25,0,6.38,0,10.63a4.76,4.76,0,0,0,.44,2.43,1.44,1.44,0,0,0,1.41.6,4,4,0,0,0,1.17-.23,4.82,4.82,0,0,0,.92-0.49l1.13,2q-0.39.28-.78,0.52a5.45,5.45,0,0,1-.83.42,5.89,5.89,0,0,1-1,.29,7.73,7.73,0,0,1-1.16.16,4.13,4.13,0,0,1-3.25-.9,4,4,0,0,1-1.08-3.06v-9.66l-1.91.12v-2.53Z"/><path class="cls-4" d="M497.44,472.85c4.09-.28,6.14-0.42,10.22-0.72v2.46c-4.09.3-6.13,0.44-10.22,0.72v-2.46Z"/><path class="cls-4" d="M509.46,453.2l4.65-.35v5.89h0.09a4.34,4.34,0,0,1,1.47-1.29,5.76,5.76,0,0,1,3.78-.5,2.76,2.76,0,0,1,1.27.66,3.22,3.22,0,0,1,.83,1.37,7,7,0,0,1,.3,2.22v7.15l-3,.24v-6.53a2.67,2.67,0,0,0-.6-2,1.94,1.94,0,0,0-1.57-.5,2.8,2.8,0,0,0-1.56.64,3.12,3.12,0,0,0-1,1.4V469l-3,.23V455.61l-1.66.12V453.2Z"/><path class="cls-4" d="M535.56,466a4.65,4.65,0,0,1-.77.61,8.25,8.25,0,0,1-1.1.59,9.33,9.33,0,0,1-3,.76,7.58,7.58,0,0,1-2.63-.19,4.6,4.6,0,0,1-3.2-2.85,6.82,6.82,0,0,1-.43-2.51,7,7,0,0,1,.48-2.7,6,6,0,0,1,1.32-2,6.18,6.18,0,0,1,2-1.3,8,8,0,0,1,2.44-.59,7.39,7.39,0,0,1,1.81.08,4.52,4.52,0,0,1,1.71.65,3.75,3.75,0,0,1,1.28,1.4,4.85,4.85,0,0,1,.5,2.35,11.26,11.26,0,0,1-.23,2.16l-8.28.71a2.51,2.51,0,0,0,.31,1.22,2.18,2.18,0,0,0,.76.76,3,3,0,0,0,1.08.38,5.29,5.29,0,0,0,1.3,0,7,7,0,0,0,2.27-.52,5.36,5.36,0,0,0,1.44-.91Zm-5-7.78a4,4,0,0,0-1.13.26,3.5,3.5,0,0,0-1,.56,3,3,0,0,0-.7.84,2.58,2.58,0,0,0-.32,1.08l5.66-.48A2.07,2.07,0,0,0,530.59,458.2Z"/><path class="cls-4" d="M539.08,450.79l4.9-.44V461a4.69,4.69,0,0,0,.44,2.42,1.4,1.4,0,0,0,1.4.56,4,4,0,0,0,1.17-.26,5,5,0,0,0,.92-0.51l1.13,2q-0.39.29-.78,0.55a5.62,5.62,0,0,1-.83.45,6,6,0,0,1-1,.32,7.81,7.81,0,0,1-1.16.19,4,4,0,0,1-3.24-.81,3.94,3.94,0,0,1-1.08-3v-9.66l-1.91.17v-2.53Z"/><path class="cls-4" d="M550.88,454.3l3.91-.38,0.34,1.35h0.09a4.9,4.9,0,0,1,3.86-2.08,5.28,5.28,0,0,1,1.94.14,3.32,3.32,0,0,1,1.52.89,4.33,4.33,0,0,1,1,1.69,8.28,8.28,0,0,1,.34,2.56,8.83,8.83,0,0,1-.39,2.7,6.4,6.4,0,0,1-1.13,2.13,5.56,5.56,0,0,1-1.79,1.45,6.68,6.68,0,0,1-2.41.68,9.4,9.4,0,0,1-1.4,0,3.61,3.61,0,0,1-1.15-.22v4.71l-3,.29V456.66l-1.72.16V454.3Zm7.31,1.5a3.3,3.3,0,0,0-1.6.59,2.6,2.6,0,0,0-1,1.41v4.78a2.22,2.22,0,0,0,.93.31,5,5,0,0,0,1.23,0,3.41,3.41,0,0,0,1.2-.34,2.82,2.82,0,0,0,1-.8,3.85,3.85,0,0,0,.64-1.28,6.23,6.23,0,0,0,.23-1.79,3.13,3.13,0,0,0-.74-2.27A2.17,2.17,0,0,0,558.19,455.8Z"/><path class="cls-4" d="M576.94,461.92a4.78,4.78,0,0,1-.77.62,8.48,8.48,0,0,1-1.1.61,9.46,9.46,0,0,1-3,.83,7.53,7.53,0,0,1-2.63-.14,4.46,4.46,0,0,1-3.19-2.79,6.75,6.75,0,0,1-.42-2.5,7.14,7.14,0,0,1,.48-2.71,6.12,6.12,0,0,1,1.32-2,6.35,6.35,0,0,1,2-1.34,8.1,8.1,0,0,1,2.44-.64,7.35,7.35,0,0,1,1.8,0,4.42,4.42,0,0,1,1.71.61,3.63,3.63,0,0,1,1.27,1.37,4.8,4.8,0,0,1,.49,2.34,11.35,11.35,0,0,1-.23,2.16l-8.27.88a2.47,2.47,0,0,0,.31,1.21,2.11,2.11,0,0,0,.76.75,3,3,0,0,0,1.08.36,5.26,5.26,0,0,0,1.3,0,7.11,7.11,0,0,0,2.26-.56,5.51,5.51,0,0,0,1.44-.94Zm-5-7.68a4,4,0,0,0-1.13.28,3.59,3.59,0,0,0-1,.58,3.06,3.06,0,0,0-.7.86,2.63,2.63,0,0,0-.32,1.09l5.65-.6A2,2,0,0,0,572,454.25Z"/><path class="cls-4" d="M579.35,460.35l2.85-.31v-6.44l-2.85.31v-2.53l5.17-.57,0.34,1.48H585a7.2,7.2,0,0,1,1.47-1.43,4,4,0,0,1,1.93-.73,2.33,2.33,0,0,1,2.17.76,5.14,5.14,0,0,1,.79,3.29l-2.69.31a2.16,2.16,0,0,0-.24-1.18,0.75,0.75,0,0,0-.77-0.29,2.53,2.53,0,0,0-1.48.63,5.5,5.5,0,0,0-1,1.17v4.9l5-.57v2.53c-4.32.5-6.49,0.74-10.82,1.22v-2.53Z"/><path class="cls-4" d="M602.67,465.05a9.69,9.69,0,0,1-3.12-.63,7.71,7.71,0,0,1-2.68-1.73,8.32,8.32,0,0,1-1.87-2.91,11.33,11.33,0,0,1-.7-4.2,12.71,12.71,0,0,1,.7-4.35,11.65,11.65,0,0,1,1.87-3.38,11.09,11.09,0,0,1,2.68-2.41,12.9,12.9,0,0,1,3.12-1.46l0.55,2.39a10.88,10.88,0,0,0-1.82.88,7.93,7.93,0,0,0-1.94,1.64,9.06,9.06,0,0,0-1.55,2.59,9.94,9.94,0,0,0-.63,3.76,8,8,0,0,0,.67,3.49,6.66,6.66,0,0,0,1.62,2.19,6.06,6.06,0,0,0,2,1.17,7.1,7.1,0,0,0,1.7.4Z"/><path class="cls-4" d="M608.43,456.94l3.51-.44V446.44l-3,2.7-1.38-1.67,5.23-4.66,2-.26v13.57l3.44-.44v2.53l-9.79,1.25v-2.53Z"/><path class="cls-4" d="M624.76,455.89a1.81,1.81,0,0,1,.52-1.31,2.15,2.15,0,0,1,1.3-.63,2,2,0,0,1,1.9.57,2.89,2.89,0,0,1,.64,2,4.73,4.73,0,0,1-.4,1.94,6,6,0,0,1-1,1.61,6.83,6.83,0,0,1-1.43,1.21,6.65,6.65,0,0,1-1.57.74L624,460.79a7.65,7.65,0,0,0,1.11-.54,5.41,5.41,0,0,0,1-.77,4.34,4.34,0,0,0,.77-1,2.74,2.74,0,0,0,.35-1.15,3,3,0,0,1-1.17.19,1.54,1.54,0,0,1-.79-0.26,1.25,1.25,0,0,1-.45-0.58A2.23,2.23,0,0,1,624.76,455.89Z"/><path class="cls-4" d="M635.94,453.3l3.5-.49V442.76l-3,2.75L635,443.86l5.22-4.73,2-.29v13.57l3.43-.49v2.53c-3.91.56-5.87,0.84-9.78,1.39V453.3Z"/><path class="cls-4" d="M649.68,451.34l3.5-.52V440.78l-3,2.77-1.37-1.64,5.22-4.77,2-.3V450.4l3.43-.52v2.53c-3.91.59-5.86,0.88-9.77,1.45v-2.53Z"/><path class="cls-4" d="M663.72,454.13a9.23,9.23,0,0,0,1.69-.87,8.94,8.94,0,0,0,2-1.71,9.74,9.74,0,0,0,1.61-2.63,9.3,9.3,0,0,0,.66-3.67,8.68,8.68,0,0,0-.63-3.58,6.23,6.23,0,0,0-1.54-2.16,5.4,5.4,0,0,0-1.93-1.1,8.45,8.45,0,0,0-1.82-.38l0.55-2.55a10.08,10.08,0,0,1,3.11.6,7.47,7.47,0,0,1,2.67,1.68,8.12,8.12,0,0,1,1.86,2.87,11.17,11.17,0,0,1,.7,4.16,13,13,0,0,1-.7,4.39,11.93,11.93,0,0,1-1.86,3.42,11.42,11.42,0,0,1-2.67,2.46,12.35,12.35,0,0,1-3.11,1.49Z"/><path class="cls-4" d="M55,398.38v-2.53l2.7,0.43v-6.44L55,389.41v-2.53l2.72,0.43c0-.26,0-0.39,0-0.64a3.88,3.88,0,0,1,.38-1.8,3,3,0,0,1,1-1.13,3.43,3.43,0,0,1,1.43-.53,5.73,5.73,0,0,1,1.68,0,11.54,11.54,0,0,1,2.6.66,7.87,7.87,0,0,1,1.68.91l-0.87,2.14a12.29,12.29,0,0,0-1.13-.63,5.45,5.45,0,0,0-1.57-.45,2,2,0,0,0-1.73.3,2.21,2.21,0,0,0-.49,1.61l4.8,0.74V391l-4.8-.74c0,2.58,0,3.86,0,6.44l4.82,0.74V400C61.34,399.37,59.25,399,55,398.38Z"/><path class="cls-4" d="M69.2,389.85a11.17,11.17,0,0,1,2.12-.39,11.8,11.8,0,0,1,2.85.12,6.9,6.9,0,0,1,2,.59,4.14,4.14,0,0,1,1.35,1,3.75,3.75,0,0,1,.74,1.37,5.91,5.91,0,0,1,.23,1.69q0,1.17-.08,2c-0.05.54-.08,1-0.08,1.46a10,10,0,0,0,0,1.09c0,0.21.05,0.43,0.07,0.63L80,399.64v2.53l-3.84-.56L75.82,400l-0.11,0a3.19,3.19,0,0,1-1.3,1,4,4,0,0,1-2.27.18,4.47,4.47,0,0,1-2.71-1.33,3.66,3.66,0,0,1-1-2.59,3.35,3.35,0,0,1,.35-1.61,2.39,2.39,0,0,1,1-1,4.23,4.23,0,0,1,1.61-.42,9.26,9.26,0,0,1,2.1.09q0.41,0.06.86,0.17l1.11,0.26a2.29,2.29,0,0,0,0-.45v-0.44a1.7,1.7,0,0,0-.5-1.33,2.76,2.76,0,0,0-1.48-.6,6.63,6.63,0,0,0-2.09,0,11.79,11.79,0,0,0-1.57.36Zm3.89,9a2.52,2.52,0,0,0,1.63-.16,2.17,2.17,0,0,0,.79-0.75v-1.38l-0.68-.2a8.29,8.29,0,0,0-1-.2,4.64,4.64,0,0,0-.86,0,2.55,2.55,0,0,0-.77.14,1.22,1.22,0,0,0-.54.37,1,1,0,0,0-.2.64,1.51,1.51,0,0,0,.37,1.06A2,2,0,0,0,73.1,398.88Z"/><path class="cls-4" d="M93.38,403a5.66,5.66,0,0,1-2.2.76,9.32,9.32,0,0,1-2.63,0,8.17,8.17,0,0,1-2.65-.81A6.56,6.56,0,0,1,84,401.4a6.31,6.31,0,0,1-1.2-2.09,7.7,7.7,0,0,1-.41-2.54,6,6,0,0,1,.48-2.51,4.43,4.43,0,0,1,1.34-1.72,4.87,4.87,0,0,1,2-.9,7.52,7.52,0,0,1,2.54,0,10.13,10.13,0,0,1,2.4.64,12.91,12.91,0,0,1,1.72.81v4l-2.52-.35v-2.12a6.92,6.92,0,0,0-1.42-.36,4.15,4.15,0,0,0-1.27,0,2.58,2.58,0,0,0-1.92,1.42,3.25,3.25,0,0,0-.31,1.5,3.86,3.86,0,0,0,.25,1.39,3.85,3.85,0,0,0,1.84,2.07,4.48,4.48,0,0,0,1.5.48,5.09,5.09,0,0,0,2.14-.07,7.32,7.32,0,0,0,1.25-.47Z"/><path class="cls-4" d="M97.27,395.63L95,395.32v-2.53l2.27,0.31v-2.62l3-.45v3.47l6,0.8c0,1,0,1.52,0,2.53l-6-.8v3.29a4.39,4.39,0,0,0,.66,2.65,2.66,2.66,0,0,0,1.86,1,3.83,3.83,0,0,0,1.12,0,3.75,3.75,0,0,0,.91-0.26,4.33,4.33,0,0,0,.73-0.41l0.61-.43,1.38,2.25a3.67,3.67,0,0,1-1,.71,7.14,7.14,0,0,1-1.26.5,7.25,7.25,0,0,1-1.41.26,6.59,6.59,0,0,1-1.44,0,5.68,5.68,0,0,1-3.86-2,7.45,7.45,0,0,1-1.29-4.74v-3.29Z"/><path class="cls-4" d="M109.17,400.44a6.65,6.65,0,0,1,.44-2.52,4.43,4.43,0,0,1,1.24-1.75,4.51,4.51,0,0,1,1.92-.94,7,7,0,0,1,2.49-.08,7.8,7.8,0,0,1,2.58.76,6.34,6.34,0,0,1,1.92,1.47,6.08,6.08,0,0,1,1.18,2.07,7.8,7.8,0,0,1,.4,2.53,6.69,6.69,0,0,1-.44,2.52,4.45,4.45,0,0,1-1.24,1.76,4.5,4.5,0,0,1-1.91.94,7,7,0,0,1-2.49.09,7.74,7.74,0,0,1-2.58-.77,6.35,6.35,0,0,1-1.91-1.48,6.11,6.11,0,0,1-1.18-2.07A7.82,7.82,0,0,1,109.17,400.44Zm3.07,0.4a4.85,4.85,0,0,0,.21,1.43,4,4,0,0,0,.6,1.2,3.25,3.25,0,0,0,.94.87,3.15,3.15,0,0,0,1.26.43,2.61,2.61,0,0,0,2.17-.58,3.34,3.34,0,0,0,.84-2.59,4.42,4.42,0,0,0-.78-2.66,3.1,3.1,0,0,0-2.23-1.26,3.42,3.42,0,0,0-1.19,0,2,2,0,0,0-1,.51,2.61,2.61,0,0,0-.63,1A4.71,4.71,0,0,0,112.24,400.83Z"/><path class="cls-4" d="M123,405.41l2.85,0.35v-6.44L123,399v-2.53l5.16,0.63,0.34,1.56h0.09a5.1,5.1,0,0,1,1.47-1.09,3.38,3.38,0,0,1,1.93-.28,3,3,0,0,1,2.17,1.27A6,6,0,0,1,135,402l-2.69-.32a2.49,2.49,0,0,0-.24-1.24,1,1,0,0,0-.77-0.47,2.08,2.08,0,0,0-1.48.28,3.9,3.9,0,0,0-1,.94v4.9l5,0.59c0,1,0,1.52,0,2.53-4.32-.51-6.49-0.77-10.81-1.3v-2.53Z"/><path class="cls-4" d="M137.25,407.1l4,0.46v-6.44l-4-.46v-2.53l7,0.8v9l4.25,0.47v2.53c-4.51-.49-6.77-0.75-11.27-1.27V407.1Zm3.49-11.7a1.44,1.44,0,0,1,.53-1.16,1.86,1.86,0,0,1,1.47-.34,2.5,2.5,0,0,1,1.54.68,1.77,1.77,0,0,1,.57,1.28,1.32,1.32,0,0,1-.57,1.14,2.17,2.17,0,0,1-1.54.3,2.37,2.37,0,0,1-1.47-.64A1.73,1.73,0,0,1,140.74,395.41Z"/><path class="cls-4" d="M151.74,400.54a11.56,11.56,0,0,1,2.13-.48,11.87,11.87,0,0,1,2.86,0,6.73,6.73,0,0,1,2,.5,3.91,3.91,0,0,1,1.36,1,3.55,3.55,0,0,1,.75,1.34,5.8,5.8,0,0,1,.23,1.68q0,1.17-.08,2c-0.05.55-.08,1-0.08,1.46a10,10,0,0,0,0,1.09c0,0.21.05,0.43,0.07,0.63l1.49,0.15v2.53l-3.86-.4-0.3-1.6h-0.11a3.4,3.4,0,0,1-1.3,1.09,4.1,4.1,0,0,1-2.28.28,4.29,4.29,0,0,1-2.72-1.21,3.5,3.5,0,0,1-1-2.55,3.43,3.43,0,0,1,.35-1.63,2.55,2.55,0,0,1,1-1,4.41,4.41,0,0,1,1.62-.49,9.31,9.31,0,0,1,2.11,0q0.41,0,.87.14l1.12,0.21a2.32,2.32,0,0,0,0-.46V404.3a1.63,1.63,0,0,0-.5-1.31,2.67,2.67,0,0,0-1.48-.54,6.7,6.7,0,0,0-2.1.08,12.22,12.22,0,0,0-1.57.43Zm3.91,8.86a2.58,2.58,0,0,0,1.64-.23,2.32,2.32,0,0,0,.8-0.78V407l-0.68-.18a8.15,8.15,0,0,0-1-.16,4.66,4.66,0,0,0-.86,0,2.64,2.64,0,0,0-.77.17,1.29,1.29,0,0,0-.55.39,1,1,0,0,0-.2.65,1.45,1.45,0,0,0,.37,1A1.94,1.94,0,0,0,155.65,409.4Z"/><path class="cls-4" d="M165.46,396.59l4.9,0.49V407.7a5.19,5.19,0,0,0,.44,2.5,1.72,1.72,0,0,0,1.4.83,3.77,3.77,0,0,0,1.17,0,4,4,0,0,0,.92-0.34l1.13,2.18q-0.39.22-.78,0.4a4.57,4.57,0,0,1-.83.29,5.3,5.3,0,0,1-1,.14,7.52,7.52,0,0,1-1.16,0,4.78,4.78,0,0,1-3.24-1.42,4.68,4.68,0,0,1-1.08-3.24v-9.66l-1.91-.19v-2.53Z"/><path class="cls-4" d="M179,416.7c4.08,0.38,6.13.57,10.21,0.93v2.46c-4.09-.36-6.13-0.55-10.21-0.93V416.7Z"/><path class="cls-4" d="M191,399l4.65,0.4v5.89h0.09a3.45,3.45,0,0,1,1.47-1,4.82,4.82,0,0,1,2.16-.26,5.64,5.64,0,0,1,1.61.36,3.41,3.41,0,0,1,1.27.86,4,4,0,0,1,.83,1.51,7.5,7.5,0,0,1,.3,2.27v7.15l-3-.25v-6.53a3,3,0,0,0-.6-2.07,2.27,2.27,0,0,0-1.57-.75,2.44,2.44,0,0,0-1.56.39,2.5,2.5,0,0,0-1,1.24v7.34l-3-.26V401.68l-1.66-.14V399Z"/><path class="cls-4" d="M217.15,416a3.72,3.72,0,0,1-.77.48,6.89,6.89,0,0,1-1.11.41,8.11,8.11,0,0,1-1.39.26,8.8,8.8,0,0,1-1.61,0,8.15,8.15,0,0,1-2.64-.62,5.77,5.77,0,0,1-3.2-3.37,7.37,7.37,0,0,1-.43-2.58,6.47,6.47,0,0,1,.48-2.62,4.76,4.76,0,0,1,1.32-1.79,5,5,0,0,1,2-1,7.43,7.43,0,0,1,2.44-.19,7.84,7.84,0,0,1,1.81.37,5.4,5.4,0,0,1,1.72.92,4.75,4.75,0,0,1,1.28,1.6,5.36,5.36,0,0,1,.49,2.43,10.68,10.68,0,0,1-.23,2.12l-8.29-.63a2.81,2.81,0,0,0,.31,1.27,2.74,2.74,0,0,0,.76.89,3.59,3.59,0,0,0,1.08.56,5.58,5.58,0,0,0,1.3.25,6.56,6.56,0,0,0,2.27-.15,4.38,4.38,0,0,0,1.44-.67Zm-5-8.59a3.7,3.7,0,0,0-1.13.08,2.88,2.88,0,0,0-1,.41,2.35,2.35,0,0,0-.7.73,2.27,2.27,0,0,0-.32,1l5.66,0.44A2.48,2.48,0,0,0,212.17,407.42Z"/><path class="cls-4" d="M220.67,401.38l4.9,0.35v10.63a5.11,5.11,0,0,0,.44,2.49,1.66,1.66,0,0,0,1.41.79,3.8,3.8,0,0,0,1.17-.07,4.17,4.17,0,0,0,.92-0.36l1.13,2.15q-0.39.23-.78,0.42a4.71,4.71,0,0,1-.83.31,5.39,5.39,0,0,1-1,.16,7.53,7.53,0,0,1-1.16,0,4.65,4.65,0,0,1-3.25-1.33,4.56,4.56,0,0,1-1.08-3.21V404l-1.91-.14C220.67,402.9,220.67,402.39,220.67,401.38Z"/><path class="cls-4" d="M232.48,406.8l3.92,0.26,0.35,1.4h0.09a4.14,4.14,0,0,1,3.87-1.46,5.7,5.7,0,0,1,1.95.45,4.15,4.15,0,0,1,1.52,1.14,5.31,5.31,0,0,1,1,1.85,8.8,8.8,0,0,1,.35,2.62,8.21,8.21,0,0,1-.39,2.63,5.22,5.22,0,0,1-1.13,1.94,4.44,4.44,0,0,1-1.8,1.15,6.11,6.11,0,0,1-2.42.29,9.71,9.71,0,0,1-1.4-.19,4.11,4.11,0,0,1-1.15-.41c0,1.89,0,2.83,0,4.71l-3-.19c0-5.43,0-8.14,0-13.57l-1.73-.11C232.48,408.32,232.48,407.82,232.48,406.8Zm7.33,2.68a2.92,2.92,0,0,0-1.6.34,2.08,2.08,0,0,0-1,1.25v4.78a2.65,2.65,0,0,0,.93.46,5.3,5.3,0,0,0,1.23.23,3.12,3.12,0,0,0,1.2-.14,2.25,2.25,0,0,0,1-.64,3.15,3.15,0,0,0,.64-1.18,5.83,5.83,0,0,0,.23-1.76,3.59,3.59,0,0,0-.74-2.39A2.56,2.56,0,0,0,239.81,409.49Z"/><path class="cls-4" d="M258.61,418.65a3.8,3.8,0,0,1-.77.5,7.06,7.06,0,0,1-1.11.44,8.27,8.27,0,0,1-1.39.29,8.89,8.89,0,0,1-1.61,0,8.07,8.07,0,0,1-2.64-.56,5.6,5.6,0,0,1-3.2-3.3,7.29,7.29,0,0,1-.43-2.57,6.53,6.53,0,0,1,.48-2.63,4.9,4.9,0,0,1,1.32-1.82,5.16,5.16,0,0,1,2-1,7.49,7.49,0,0,1,2.44-.24,7.76,7.76,0,0,1,1.81.33,5.29,5.29,0,0,1,1.72.89,4.61,4.61,0,0,1,1.28,1.58A5.28,5.28,0,0,1,259,413a10.74,10.74,0,0,1-.23,2.13l-8.3-.46a2.77,2.77,0,0,0,.31,1.26,2.68,2.68,0,0,0,.76.87,3.51,3.51,0,0,0,1.08.53,5.53,5.53,0,0,0,1.3.22,6.6,6.6,0,0,0,2.27-.2,4.49,4.49,0,0,0,1.44-.7Zm-5-8.48a3.73,3.73,0,0,0-1.13.1,3,3,0,0,0-1,.43,2.41,2.41,0,0,0-.7.75,2.29,2.29,0,0,0-.32,1l5.67,0.32A2.42,2.42,0,0,0,253.63,410.17Z"/><path class="cls-4" d="M261,417.47l2.86,0.15v-6.44L261,411c0-1,0-1.52,0-2.53l5.19,0.26,0.35,1.53h0.09a5.69,5.69,0,0,1,1.48-1.19,3.54,3.54,0,0,1,1.94-.41,2.76,2.76,0,0,1,2.18,1.11,5.74,5.74,0,0,1,.79,3.42l-2.7-.13a2.38,2.38,0,0,0-.24-1.22,0.9,0.9,0,0,0-.77-0.42,2.2,2.2,0,0,0-1.49.39,4.33,4.33,0,0,0-1,1v4.9l5,0.24c0,1,0,1.52,0,2.53-4.34-.2-6.51-0.31-10.86-0.54C261,419,261,418.48,261,417.47Z"/><path class="cls-4" d="M284.45,426a11.08,11.08,0,0,1-3.14-1.14,9.72,9.72,0,0,1-2.7-2.16,10.3,10.3,0,0,1-1.88-3.21,12.2,12.2,0,0,1-.7-4.31,11.71,11.71,0,0,1,.7-4.24,9.43,9.43,0,0,1,1.88-3.08,8.8,8.8,0,0,1,2.7-2,11.07,11.07,0,0,1,3.14-1l0.55,2.48a9.31,9.31,0,0,0-1.83.58,6.32,6.32,0,0,0-1.95,1.32,7.28,7.28,0,0,0-1.56,2.34,9.12,9.12,0,0,0-.63,3.65,8.68,8.68,0,0,0,.67,3.59,8.35,8.35,0,0,0,1.63,2.45,7.6,7.6,0,0,0,2,1.48,8.21,8.21,0,0,0,1.71.68Z"/><path class="cls-4" d="M290.24,418.77l3.53,0.13V408.85l-3,2.21-1.38-1.89,5.26-3.81,2,0.07c0,5.43,0,8.14,0,13.57l3.46,0.11c0,1,0,1.52,0,2.53l-9.85-.34v-2.53Z"/><path class="cls-4" d="M306.66,420.37a1.53,1.53,0,0,1,.52-1.23,1.85,1.85,0,0,1,1.3-.42,2.35,2.35,0,0,1,1.91.88,3.3,3.3,0,0,1,.65,2.06,4.27,4.27,0,0,1-.4,1.87,4.79,4.79,0,0,1-1,1.44,5.45,5.45,0,0,1-1.44,1,5.72,5.72,0,0,1-1.58.48l-0.62-1.28a6.54,6.54,0,0,0,1.12-.36,4.34,4.34,0,0,0,1-.6,3.41,3.41,0,0,0,.77-0.86,2.38,2.38,0,0,0,.36-1.09,2.94,2.94,0,0,1-1.18,0,1.84,1.84,0,0,1-.8-0.39,1.57,1.57,0,0,1-.45-0.66A2.38,2.38,0,0,1,306.66,420.37Z"/><path class="cls-4" d="M317.91,419.61l3.53,0.08V409.64l-3,2.26L317,410l5.26-3.88,2,0v13.57l3.46,0.07v2.53l-9.85-.2v-2.53Z"/><path class="cls-4" d="M331.75,419.88l3.53,0.05V409.89l-3,2.28-1.38-1.86,5.26-3.92,2,0V420l3.46,0v2.53l-9.85-.13v-2.53Z"/><path class="cls-4" d="M345.92,425a7.86,7.86,0,0,0,1.71-.59,7.13,7.13,0,0,0,2-1.39,7.81,7.81,0,0,0,1.63-2.37,8.45,8.45,0,0,0,.67-3.56,9.36,9.36,0,0,0-.63-3.68,7.79,7.79,0,0,0-1.56-2.41,6.78,6.78,0,0,0-1.95-1.42,9.74,9.74,0,0,0-1.83-.67l0.55-2.46a11.57,11.57,0,0,1,3.14,1.11,9.44,9.44,0,0,1,2.7,2.11,10.06,10.06,0,0,1,1.88,3.17,13.33,13.33,0,0,1,0,8.54,9.67,9.67,0,0,1-1.88,3.12,9.08,9.08,0,0,1-2.7,2,10.62,10.62,0,0,1-3.14,1Z"/><path class="cls-4" d="M510.06,414.7l2.85-.21V408l-2.85.21c0-1,0-1.52,0-2.53l5.18-.39,0.35,1.49h0.09a6.85,6.85,0,0,1,1.47-1.38,3.88,3.88,0,0,1,1.93-.66,2.42,2.42,0,0,1,2.18.84,5.26,5.26,0,0,1,.79,3.32l-2.69.21a2.2,2.2,0,0,0-.24-1.19,0.78,0.78,0,0,0-.77-0.32,2.45,2.45,0,0,0-1.48.58,5.22,5.22,0,0,0-1,1.13v4.9l5-.39v2.53c-4.34.35-6.5,0.51-10.84,0.84C510.06,416.22,510.06,415.71,510.06,414.7Z"/><path class="cls-4" d="M535.26,414a4.63,4.63,0,0,1-.77.61,8.26,8.26,0,0,1-1.1.59,9.33,9.33,0,0,1-3,.76,7.58,7.58,0,0,1-2.64-.19,4.6,4.6,0,0,1-3.2-2.85,6.82,6.82,0,0,1-.43-2.51,7.05,7.05,0,0,1,.48-2.7,6,6,0,0,1,1.32-2,6.19,6.19,0,0,1,2-1.3,8,8,0,0,1,2.44-.59,7.39,7.39,0,0,1,1.81.08,4.52,4.52,0,0,1,1.71.65,3.75,3.75,0,0,1,1.28,1.4,4.85,4.85,0,0,1,.5,2.35,11.26,11.26,0,0,1-.23,2.16l-8.28.71a2.51,2.51,0,0,0,.31,1.22,2.18,2.18,0,0,0,.76.76,3,3,0,0,0,1.08.38,5.29,5.29,0,0,0,1.3,0,7,7,0,0,0,2.27-.52,5.36,5.36,0,0,0,1.44-.91Zm-5-7.78a4,4,0,0,0-1.13.26,3.5,3.5,0,0,0-1,.56,3,3,0,0,0-.7.84,2.58,2.58,0,0,0-.32,1.08l5.66-.48A2.07,2.07,0,0,0,530.29,406.19Z"/><path class="cls-4" d="M549.33,412.81a7.39,7.39,0,0,1-2.21,1.28,10.14,10.14,0,0,1-2.64.6,7.24,7.24,0,0,1-2.66-.19,4.81,4.81,0,0,1-2-1.05,4.62,4.62,0,0,1-1.21-1.81,7.39,7.39,0,0,1,.07-5.07,6.14,6.14,0,0,1,1.35-2,6.56,6.56,0,0,1,2-1.37,8.3,8.3,0,0,1,2.55-.64,9.24,9.24,0,0,1,2.41.07,10.48,10.48,0,0,1,1.73.41v4l-2.53.24v-2.12a6.36,6.36,0,0,0-1.43,0,4.55,4.55,0,0,0-1.28.31,3.51,3.51,0,0,0-1.13.72,3.61,3.61,0,0,0-1.12,2.71,3.39,3.39,0,0,0,.25,1.33,2.78,2.78,0,0,0,1.85,1.64,4,4,0,0,0,1.51.13,5.68,5.68,0,0,0,2.15-.57,9.75,9.75,0,0,0,1.25-.76Z"/><path class="cls-4" d="M558.16,401.56l4.28-.43v9l1.75-.18v2.53l-3.63.37L560,411.17h-0.09a4.7,4.7,0,0,1-1.59,1.61,5.22,5.22,0,0,1-2.35.81,5.1,5.1,0,0,1-1.6-.07,2.55,2.55,0,0,1-1.23-.64,3.12,3.12,0,0,1-.78-1.35,7.51,7.51,0,0,1-.28-2.23v-4.62l-1.31.13c0-1,0-1.52,0-2.53l4.3-.41v6.53a3.31,3.31,0,0,0,.45,2,1.48,1.48,0,0,0,1.41.48,2.74,2.74,0,0,0,1.53-.66,3.12,3.12,0,0,0,1-1.34V404l-1.29.13v-2.53Z"/><path class="cls-4" d="M565.27,409.81l2.85-.29v-6.44l-2.85.29c0-1,0-1.52,0-2.53l5.17-.54,0.34,1.48h0.09a7.13,7.13,0,0,1,1.47-1.42,4,4,0,0,1,1.93-.71,2.35,2.35,0,0,1,2.17.78,5.17,5.17,0,0,1,.79,3.29l-2.69.29a2.17,2.17,0,0,0-.24-1.18,0.76,0.76,0,0,0-.77-0.3,2.51,2.51,0,0,0-1.48.62,5.44,5.44,0,0,0-1,1.16c0,2,0,2.94,0,4.9l5-.53v2.53c-4.33.47-6.49,0.7-10.82,1.14C565.27,411.33,565.27,410.83,565.27,409.81Z"/><path class="cls-4" d="M588.6,414.68a9.74,9.74,0,0,1-3.12-.66,7.79,7.79,0,0,1-2.69-1.74,8.4,8.4,0,0,1-1.87-2.92,11.36,11.36,0,0,1-.7-4.2,12.66,12.66,0,0,1,.7-4.34,11.54,11.54,0,0,1,1.87-3.37,11,11,0,0,1,2.69-2.4,12.81,12.81,0,0,1,3.12-1.44l0.55,2.4a10.81,10.81,0,0,0-1.82.87,7.85,7.85,0,0,0-1.94,1.62,9,9,0,0,0-1.55,2.58,9.9,9.9,0,0,0-.63,3.75,8,8,0,0,0,.67,3.49,6.73,6.73,0,0,0,1.62,2.2,6.12,6.12,0,0,0,2,1.18,7.14,7.14,0,0,0,1.7.41Z"/><path class="cls-4" d="M594.36,406.61l3.51-.42V396.14l-3,2.68-1.38-1.68,5.23-4.62,2-.24v13.57l3.44-.42V408l-9.8,1.18v-2.53Z"/><path class="cls-4" d="M608.13,404.94l3.51-.44c0-4,0-6,0-10.05l-3,2.7-1.38-1.67,5.23-4.66,2-.26c0,5.43,0,8.14,0,13.57l3.44-.44v2.53l-9.79,1.25v-2.53Z"/><path class="cls-4" d="M624.45,403.89a1.81,1.81,0,0,1,.52-1.31,2.15,2.15,0,0,1,1.3-.63,2,2,0,0,1,1.9.57,2.89,2.89,0,0,1,.64,2,4.74,4.74,0,0,1-.4,1.94,6,6,0,0,1-1,1.61,6.83,6.83,0,0,1-1.43,1.21,6.66,6.66,0,0,1-1.57.74l-0.62-1.18a7.66,7.66,0,0,0,1.11-.54,5.42,5.42,0,0,0,1-.77,4.34,4.34,0,0,0,.77-1,2.74,2.74,0,0,0,.36-1.15,3,3,0,0,1-1.17.19,1.54,1.54,0,0,1-.79-0.26,1.25,1.25,0,0,1-.45-0.58A2.23,2.23,0,0,1,624.45,403.89Z"/><path class="cls-4" d="M635.64,401.31l3.5-.49c0-4,0-6,0-10.05l-3,2.75-1.37-1.65,5.22-4.73,2-.29c0,5.43,0,8.14,0,13.57l3.43-.49v2.53l-9.78,1.39v-2.53Z"/><path class="cls-4" d="M647.82,394a14.53,14.53,0,0,1,.44-3.73,8.93,8.93,0,0,1,1.23-2.79,6.33,6.33,0,0,1,1.9-1.83,6.43,6.43,0,0,1,2.46-.88,4.61,4.61,0,0,1,4.46,1.37q1.56,1.8,1.56,6.08a14.65,14.65,0,0,1-.44,3.76,9.12,9.12,0,0,1-1.23,2.81,6.26,6.26,0,0,1-1.91,1.85,6.49,6.49,0,0,1-2.47.89,4.45,4.45,0,0,1-4.46-1.49Q647.82,398.12,647.82,394Zm3-.44c0,0.23,0,.45,0,0.65s0,0.42,0,.63l5.54-6a2.16,2.16,0,0,0-2.56-1.59,3,3,0,0,0-2.24,1.75A10.22,10.22,0,0,0,650.79,393.59Zm6.09-.91q0-.37,0-0.7c0-.22,0-0.44,0-0.65l-5.56,6a2.2,2.2,0,0,0,2.57,1.71,3,3,0,0,0,2.25-1.74A10.25,10.25,0,0,0,656.88,392.69Z"/><path class="cls-4" d="M663.42,402.14a9.22,9.22,0,0,0,1.69-.87,8.93,8.93,0,0,0,2-1.71,9.74,9.74,0,0,0,1.61-2.63,9.3,9.3,0,0,0,.66-3.67,8.67,8.67,0,0,0-.63-3.58,6.23,6.23,0,0,0-1.54-2.16,5.4,5.4,0,0,0-1.93-1.1,8.45,8.45,0,0,0-1.82-.38l0.55-2.55a10.08,10.08,0,0,1,3.11.6,7.47,7.47,0,0,1,2.67,1.68,8.12,8.12,0,0,1,1.86,2.87,11.17,11.17,0,0,1,.7,4.16,13,13,0,0,1-.7,4.39,11.93,11.93,0,0,1-1.86,3.42,11.41,11.41,0,0,1-2.67,2.47,12.35,12.35,0,0,1-3.11,1.49Z"/><path class="cls-4" d="M54.67,346.36l2.84,0.45v-6.44l-2.84-.45v-2.53l5.14,0.81,0.34,1.57h0.09a4.85,4.85,0,0,1,1.46-1,3.32,3.32,0,0,1,1.92-.21,3.1,3.1,0,0,1,2.16,1.34,6.19,6.19,0,0,1,.79,3.5L63.91,343a2.55,2.55,0,0,0-.24-1.24,1,1,0,0,0-.77-0.5,2,2,0,0,0-1.48.23,3.69,3.69,0,0,0-.95.91v4.9l5,0.76c0,1,0,1.52,0,2.53-4.31-.66-6.46-1-10.77-1.68v-2.53Z"/><path class="cls-4" d="M79.72,351.47a3.34,3.34,0,0,1-.77.43,6.43,6.43,0,0,1-1.1.33,7.8,7.8,0,0,1-1.38.16,8.74,8.74,0,0,1-1.6-.1,8.5,8.5,0,0,1-2.62-.8,6.35,6.35,0,0,1-3.18-3.59,7.67,7.67,0,0,1-.42-2.6,6.26,6.26,0,0,1,.48-2.58,4.3,4.3,0,0,1,1.32-1.7,4.6,4.6,0,0,1,2-.85,7.27,7.27,0,0,1,2.43,0,8.14,8.14,0,0,1,1.8.5,5.89,5.89,0,0,1,1.71,1,5.24,5.24,0,0,1,1.27,1.69,5.6,5.6,0,0,1,.49,2.46,10.58,10.58,0,0,1-.23,2.11l-8.24-1.21a2.94,2.94,0,0,0,.31,1.29,3,3,0,0,0,.75.94,3.89,3.89,0,0,0,1.08.63,5.78,5.78,0,0,0,1.29.34,6.43,6.43,0,0,0,2.25,0,4,4,0,0,0,1.43-.57Zm-4.94-8.94a3.63,3.63,0,0,0-1.12,0,2.66,2.66,0,0,0-.95.34,2.11,2.11,0,0,0-.7.68,2.14,2.14,0,0,0-.32,1l5.63,0.83a2.89,2.89,0,0,0-.63-1.91A2.93,2.93,0,0,0,74.77,342.54Z"/><path class="cls-4" d="M93.73,353.57a5.66,5.66,0,0,1-2.2.76,9.32,9.32,0,0,1-2.63,0,8.16,8.16,0,0,1-2.64-.81A6.55,6.55,0,0,1,84.31,352a6.27,6.27,0,0,1-1.2-2.09,7.69,7.69,0,0,1-.41-2.54,6,6,0,0,1,.48-2.51,4.44,4.44,0,0,1,1.34-1.72,4.86,4.86,0,0,1,2-.9,7.51,7.51,0,0,1,2.54,0,10.12,10.12,0,0,1,2.4.63,12.9,12.9,0,0,1,1.72.81v4l-2.52-.35v-2.12a6.92,6.92,0,0,0-1.42-.36,4.15,4.15,0,0,0-1.27,0,2.58,2.58,0,0,0-1.92,1.42,3.25,3.25,0,0,0-.31,1.5A3.85,3.85,0,0,0,86,349.2a3.85,3.85,0,0,0,1.84,2.07,4.48,4.48,0,0,0,1.5.48,5.1,5.1,0,0,0,2.14-.07,7.41,7.41,0,0,0,1.25-.47Z"/><path class="cls-4" d="M102.53,344.37l4.26,0.56v9l1.74,0.23c0,1,0,1.52,0,2.53l-3.62-.48-0.53-1.77H104.3a3.34,3.34,0,0,1-1.58,1.24,4.48,4.48,0,0,1-2.34.26,5.66,5.66,0,0,1-1.59-.45,3.44,3.44,0,0,1-1.23-.93,4.17,4.17,0,0,1-.78-1.53,8.24,8.24,0,0,1-.27-2.29v-4.62l-1.31-.18c0-1,0-1.52,0-2.53L99.48,344v6.53a3.86,3.86,0,0,0,.45,2.08,1.89,1.89,0,0,0,1.41.81,2.3,2.3,0,0,0,2.47-1.42v-4.9l-1.28-.17C102.53,345.89,102.53,345.38,102.53,344.37Z"/><path class="cls-4" d="M109.61,354.27l2.84,0.37c0-2.58,0-3.86,0-6.44l-2.84-.37V345.3l5.16,0.66,0.34,1.56h0.09a5.06,5.06,0,0,1,1.47-1.08,3.37,3.37,0,0,1,1.93-.26,3,3,0,0,1,2.17,1.28,6.06,6.06,0,0,1,.79,3.48l-2.68-.33a2.5,2.5,0,0,0-.24-1.24,1,1,0,0,0-.77-0.48,2.08,2.08,0,0,0-1.48.27,3.86,3.86,0,0,0-1,.94V355l5,0.62c0,1,0,1.52,0,2.53-4.32-.54-6.48-0.81-10.8-1.37C109.61,355.79,109.61,355.28,109.61,354.27Z"/><path class="cls-4" d="M132.92,364.56a11.91,11.91,0,0,1-3.12-1.38,10.86,10.86,0,0,1-2.68-2.37,11.4,11.4,0,0,1-1.87-3.35,12.72,12.72,0,0,1-.7-4.36,11.33,11.33,0,0,1,.7-4.18,8.52,8.52,0,0,1,1.87-2.94,7.87,7.87,0,0,1,2.68-1.77,10.36,10.36,0,0,1,3.12-.71l0.55,2.53a8.7,8.7,0,0,0-1.83.44,5.68,5.68,0,0,0-1.94,1.17,6.55,6.55,0,0,0-1.55,2.22,8.81,8.81,0,0,0-.63,3.6,9.09,9.09,0,0,0,.67,3.64,9.28,9.28,0,0,0,1.62,2.57,8.49,8.49,0,0,0,2,1.64,8.89,8.89,0,0,0,1.7.81Z"/><path class="cls-4" d="M138.68,357.82l3.51,0.4c0-4,0-6,0-10.05l-3,2-1.38-2,5.23-3.41,2,0.23c0,5.43,0,8.14,0,13.57l3.45,0.38v2.53l-9.81-1.1C138.68,359.34,138.68,358.84,138.68,357.82Z"/><path class="cls-4" d="M152.46,359.35l3.52,0.37c0-4,0-6,0-10.05l-3,2-1.38-2,5.24-3.44,2,0.21c0,5.43,0,8.14,0,13.57l3.45,0.36v2.53l-9.81-1C152.46,360.87,152.46,360.37,152.46,359.35Z"/><path class="cls-4" d="M168.82,362.1a1.43,1.43,0,0,1,.52-1.19,1.74,1.74,0,0,1,1.3-.33,2.53,2.53,0,0,1,1.91,1,3.5,3.5,0,0,1,.64,2.11,4.11,4.11,0,0,1-.4,1.85,4.33,4.33,0,0,1-1,1.37,5,5,0,0,1-1.44.87,5.41,5.41,0,0,1-1.58.37l-0.62-1.33a6.16,6.16,0,0,0,1.12-.28,4,4,0,0,0,1-.53,3.07,3.07,0,0,0,.77-0.81,2.23,2.23,0,0,0,.36-1.07,2.94,2.94,0,0,1-1.17-.08,2,2,0,0,1-.79-0.45,1.73,1.73,0,0,1-.45-0.69A2.5,2.5,0,0,1,168.82,362.1Z"/><path class="cls-4" d="M180,362.12l3.52,0.33c0-4,0-6,0-10.05l-3,2-1.38-2,5.24-3.52,2,0.18c0,5.43,0,8.14,0,13.57l3.45,0.31v2.53l-9.82-.89v-2.53Z"/><path class="cls-4" d="M192.28,357.69a13.33,13.33,0,0,1,.44-3.63,6.84,6.84,0,0,1,1.24-2.5,4.53,4.53,0,0,1,1.9-1.39,5.56,5.56,0,0,1,2.47-.31,5.85,5.85,0,0,1,4.48,2.41q1.57,2.16,1.57,6.44a13.41,13.41,0,0,1-.44,3.66,7,7,0,0,1-1.24,2.52,4.49,4.49,0,0,1-1.92,1.41,5.61,5.61,0,0,1-2.48.31,5.7,5.7,0,0,1-4.48-2.53A11.27,11.27,0,0,1,192.28,357.69Zm3,0.26q0,0.35,0,.66t0,0.64l5.57-4.66a2.86,2.86,0,0,0-2.58-2.19,2.23,2.23,0,0,0-2.25,1.22A9,9,0,0,0,195.27,357.94Zm6.12,0.51q0-.37,0-0.7c0-.22,0-0.44,0-0.66l-5.59,4.66a2.92,2.92,0,0,0,2.58,2.31,2.26,2.26,0,0,0,2.26-1.21A9,9,0,0,0,201.39,358.46Z"/><path class="cls-4" d="M208,369.43a7.36,7.36,0,0,0,1.7-.48,6.45,6.45,0,0,0,2-1.25,7.08,7.08,0,0,0,1.62-2.26,8.14,8.14,0,0,0,.67-3.51,9.71,9.71,0,0,0-.63-3.73,8.56,8.56,0,0,0-1.55-2.52,7.48,7.48,0,0,0-1.95-1.55,10.44,10.44,0,0,0-1.83-.8l0.55-2.42a12.36,12.36,0,0,1,3.13,1.33,10.45,10.45,0,0,1,2.69,2.3,11,11,0,0,1,1.88,3.3,12.42,12.42,0,0,1,.7,4.32,11.53,11.53,0,0,1-.7,4.23,8.82,8.82,0,0,1-1.88,3,8.21,8.21,0,0,1-2.69,1.84,10,10,0,0,1-3.13.77Z"/><path class="cls-4" d="M359,373.2v-2.53h2.72v-6.44H359V361.7h2.74v-0.64a4.22,4.22,0,0,1,.38-1.86,3.75,3.75,0,0,1,1-1.29,4.11,4.11,0,0,1,1.44-.75,6,6,0,0,1,1.7-.24,10.81,10.81,0,0,1,2.62.26,6.68,6.68,0,0,1,1.69.65l-0.88,2.28a10.38,10.38,0,0,0-1.14-.46,5,5,0,0,0-1.58-.2,2.24,2.24,0,0,0-1.74.57,2.5,2.5,0,0,0-.5,1.69h4.85v2.53h-4.85c0,2.58,0,3.86,0,6.44h4.87v2.53C365.34,373.21,363.22,373.21,359,373.2Z"/><path class="cls-4" d="M373.27,362.47a12.65,12.65,0,0,1,2.13-.72,12.2,12.2,0,0,1,2.87-.32,6.37,6.37,0,0,1,2,.27,3.38,3.38,0,0,1,1.36.8,3.06,3.06,0,0,1,.75,1.26,5.52,5.52,0,0,1,.23,1.65q0,1.17-.08,2c-0.05.55-.08,1-0.08,1.47a10.2,10.2,0,0,0,0,1.08c0,0.21.05,0.42,0.07,0.62h1.5c0,1,0,1.52,0,2.53l-3.87,0-0.3-1.56h-0.12a4,4,0,0,1-1.31,1.24,4.39,4.39,0,0,1-2.29.53,3.87,3.87,0,0,1-2.73-.9,3.13,3.13,0,0,1-1-2.43,3.67,3.67,0,0,1,.35-1.67,3,3,0,0,1,1-1.15,4.94,4.94,0,0,1,1.63-.68,9.55,9.55,0,0,1,2.12-.23c0.27,0,.57,0,0.87,0l1.12,0.08a2.29,2.29,0,0,0,0-.46v-0.44a1.46,1.46,0,0,0-.51-1.25,2.44,2.44,0,0,0-1.49-.37,7,7,0,0,0-2.11.31,13.55,13.55,0,0,0-1.58.61Zm3.93,8.42a2.52,2.52,0,0,0,2.44-1.28v-1.38l-0.69-.1a7.91,7.91,0,0,0-1-.05,4.76,4.76,0,0,0-.87.09,2.93,2.93,0,0,0-.78.26,1.53,1.53,0,0,0-.55.45,1.09,1.09,0,0,0-.21.67,1.3,1.3,0,0,0,.38,1A1.76,1.76,0,0,0,377.2,370.89Z"/><path class="cls-4" d="M397.63,371.81a6.75,6.75,0,0,1-2.22,1.11,9.78,9.78,0,0,1-2.65.4,7.48,7.48,0,0,1-2.66-.4,5.34,5.34,0,0,1-2-1.21,5.11,5.11,0,0,1-1.21-1.91,7.11,7.11,0,0,1-.42-2.48,6.51,6.51,0,0,1,.48-2.58,5.52,5.52,0,0,1,1.35-1.93,5.92,5.92,0,0,1,2-1.21,8,8,0,0,1,2.56-.44,9.45,9.45,0,0,1,2.42.26,11.16,11.16,0,0,1,1.73.55v4l-2.54,0V364a6.49,6.49,0,0,0-1.43-.14,4.38,4.38,0,0,0-1.28.21,3.19,3.19,0,0,0-1.13.64,3.32,3.32,0,0,0-.81,1.08,3.88,3.88,0,0,0-.06,2.9,3.1,3.1,0,0,0,1.86,1.78,4.1,4.1,0,0,0,1.51.24,5.45,5.45,0,0,0,2.16-.4,9,9,0,0,0,1.26-.66Z"/><path class="cls-4" d="M401.55,363.88l-2.28,0v-2.53l2.28,0v-2.62l3-.91v3.47l6-.13v2.53l-6,.13v3.29a3.9,3.9,0,0,0,.67,2.55,2.26,2.26,0,0,0,1.87.75,4,4,0,0,0,1.13-.17,4.33,4.33,0,0,0,.91-0.4,5.38,5.38,0,0,0,.74-0.52l0.61-.52,1.39,2a4.63,4.63,0,0,1-1,.86,8.53,8.53,0,0,1-1.27.7,8.17,8.17,0,0,1-1.42.48,6.82,6.82,0,0,1-1.45.19,4.88,4.88,0,0,1-3.89-1.36q-1.3-1.41-1.3-4.54v-3.29Z"/><path class="cls-4" d="M413.52,366.83a7.17,7.17,0,0,1,.44-2.59,5.46,5.46,0,0,1,1.25-1.94,5.53,5.53,0,0,1,1.93-1.24,7.51,7.51,0,0,1,2.5-.47,7.16,7.16,0,0,1,2.6.36,5.16,5.16,0,0,1,1.93,1.17,5,5,0,0,1,1.19,1.88,7.82,7.82,0,0,1,0,5.06,5.41,5.41,0,0,1-3.17,3.19,7.45,7.45,0,0,1-2.5.47,7.11,7.11,0,0,1-2.59-.37,5.16,5.16,0,0,1-1.93-1.18,5,5,0,0,1-1.19-1.89A7.23,7.23,0,0,1,413.52,366.83Zm3.09-.08a4.52,4.52,0,0,0,.21,1.4,3.32,3.32,0,0,0,.6,1.11,2.6,2.6,0,0,0,.94.72,2.86,2.86,0,0,0,1.27.23,3,3,0,0,0,2.18-.91,3.81,3.81,0,0,0,.84-2.72,3.88,3.88,0,0,0-.79-2.54,2.63,2.63,0,0,0-2.24-.91,3.64,3.64,0,0,0-1.2.23,2.44,2.44,0,0,0-1,.66,3.21,3.21,0,0,0-.63,1.12A5,5,0,0,0,416.61,366.75Z"/><path class="cls-4" d="M427.45,369.65l2.86-.09v-6.44l-2.86.09v-2.53l5.19-.17L433,362h0.09a6.44,6.44,0,0,1,1.48-1.32,3.76,3.76,0,0,1,1.94-.58,2.52,2.52,0,0,1,2.18.93,5.41,5.41,0,0,1,.79,3.35l-2.7.1a2.26,2.26,0,0,0-.24-1.2,0.82,0.82,0,0,0-.77-0.35,2.35,2.35,0,0,0-1.49.51,4.92,4.92,0,0,0-1,1.09c0,2,0,2.94,0,4.9l5-.18v2.53c-4.34.16-6.52,0.24-10.86,0.38v-2.53Z"/><path class="cls-4" d="M441.75,369.13l4.06-.16v-6.44l-4.06.16v-2.53l7.05-.29v9l4.27-.19v2.53c-4.53.21-6.79,0.3-11.32,0.48v-2.53Zm3.5-12.24a1.7,1.7,0,0,1,.53-1.24,2.13,2.13,0,0,1,1.47-.57,2.18,2.18,0,0,1,1.54.44,1.5,1.5,0,0,1,.58,1.19,1.56,1.56,0,0,1-.58,1.23,2.46,2.46,0,0,1-1.54.54,2.07,2.07,0,0,1-1.47-.41A1.48,1.48,0,0,1,445.26,356.9Z"/><path class="cls-4" d="M456.3,360.32a13.15,13.15,0,0,1,2.13-.81,12.39,12.39,0,0,1,2.87-.44,6.27,6.27,0,0,1,2,.19,3.2,3.2,0,0,1,1.36.75,2.9,2.9,0,0,1,.75,1.23,5.42,5.42,0,0,1,.23,1.64q0,1.17-.08,2c-0.05.55-.08,1-0.08,1.48a9.94,9.94,0,0,0,0,1.08c0,0.21.05,0.42,0.07,0.62l1.5-.08c0,1,0,1.52,0,2.53l-3.87.2-0.3-1.55h-0.12a4.26,4.26,0,0,1-1.31,1.3,4.51,4.51,0,0,1-2.29.63,3.73,3.73,0,0,1-2.73-.79,3,3,0,0,1-1-2.39,3.77,3.77,0,0,1,.35-1.68,3.19,3.19,0,0,1,1-1.2,5.17,5.17,0,0,1,1.63-.74,9.69,9.69,0,0,1,2.12-.32c0.27,0,.57,0,0.87,0l1.12,0a2.33,2.33,0,0,0,0-.46v-0.44a1.4,1.4,0,0,0-.5-1.23,2.37,2.37,0,0,0-1.49-.31,7.1,7.1,0,0,0-2.1.4,14.13,14.13,0,0,0-1.58.67Zm3.92,8.25a2.86,2.86,0,0,0,1.64-.48,2.93,2.93,0,0,0,.8-0.9V365.8l-0.69-.07a7.87,7.87,0,0,0-1,0,4.83,4.83,0,0,0-.87.12,3,3,0,0,0-.78.29,1.62,1.62,0,0,0-.55.47,1.13,1.13,0,0,0-.21.68,1.25,1.25,0,0,0,.38,1A1.71,1.71,0,0,0,460.22,368.57Z"/><path class="cls-4" d="M470.06,354.24L475,354V364.6a4.77,4.77,0,0,0,.44,2.44,1.45,1.45,0,0,0,1.41.61,4,4,0,0,0,1.18-.22,4.77,4.77,0,0,0,.92-0.48l1.13,2c-0.26.18-.52,0.36-0.78,0.52a5.37,5.37,0,0,1-.83.42,5.88,5.88,0,0,1-1,.28,7.73,7.73,0,0,1-1.16.15,4.15,4.15,0,0,1-3.25-.92,4.07,4.07,0,0,1-1.08-3.07v-9.66l-1.91.1v-2.53Z"/><path class="cls-4" d="M483.68,372.25c4.09-.25,6.14-0.38,10.23-0.65v2.46c-4.09.27-6.14,0.4-10.23,0.65C483.68,373.73,483.68,373.24,483.68,372.25Z"/><path class="cls-4" d="M495.7,352.69l4.65-.32v5.89h0.09a4.31,4.31,0,0,1,1.47-1.28,5.75,5.75,0,0,1,3.78-.48,2.79,2.79,0,0,1,1.27.67,3.26,3.26,0,0,1,.83,1.38,7,7,0,0,1,.3,2.22v7.15l-3,.22v-6.53a2.69,2.69,0,0,0-.6-2,2,2,0,0,0-1.57-.51,2.78,2.78,0,0,0-1.57.63,3.11,3.11,0,0,0-1,1.39v7.34l-3,.21c0-5.43,0-8.14,0-13.57l-1.66.11v-2.53Z"/><path class="cls-4" d="M521.81,365.65a4.62,4.62,0,0,1-.77.6,8.2,8.2,0,0,1-1.11.58,9.28,9.28,0,0,1-3,.74,7.59,7.59,0,0,1-2.64-.21,4.64,4.64,0,0,1-3.2-2.88,6.82,6.82,0,0,1-.42-2.51,7,7,0,0,1,.48-2.69,5.89,5.89,0,0,1,1.32-2,6.11,6.11,0,0,1,2-1.29,8,8,0,0,1,2.44-.57,7.4,7.4,0,0,1,1.81.09,4.56,4.56,0,0,1,1.72.66,3.79,3.79,0,0,1,1.28,1.4,4.87,4.87,0,0,1,.5,2.35,11.29,11.29,0,0,1-.23,2.16l-8.29.65A2.52,2.52,0,0,0,514,364a2.19,2.19,0,0,0,.76.77,3,3,0,0,0,1.08.39,5.3,5.3,0,0,0,1.3,0,7,7,0,0,0,2.27-.5,5.33,5.33,0,0,0,1.44-.9Zm-5-7.82a4,4,0,0,0-1.13.25,3.48,3.48,0,0,0-1,.55,2.93,2.93,0,0,0-.7.84,2.55,2.55,0,0,0-.32,1.08l5.66-.44A2.09,2.09,0,0,0,516.84,357.83Z"/><path class="cls-4" d="M525.33,350.48l4.9-.41V360.7a4.7,4.7,0,0,0,.44,2.42,1.41,1.41,0,0,0,1.4.57,4,4,0,0,0,1.17-.25,4.94,4.94,0,0,0,.92-0.51l1.13,2c-0.26.19-.52,0.37-0.78,0.54a5.55,5.55,0,0,1-.83.44,6,6,0,0,1-1,.31,7.8,7.8,0,0,1-1.16.18,4.06,4.06,0,0,1-3.24-.83,4,4,0,0,1-1.08-3v-9.66l-1.91.16v-2.53Z"/><path class="cls-4" d="M537.13,354.08l3.91-.35,0.34,1.35h0.09a4.87,4.87,0,0,1,3.87-2.06,5.29,5.29,0,0,1,1.94.15,3.35,3.35,0,0,1,1.52.9,4.36,4.36,0,0,1,1,1.7,8.32,8.32,0,0,1,.34,2.57,8.8,8.8,0,0,1-.39,2.69,6.37,6.37,0,0,1-1.13,2.12,5.51,5.51,0,0,1-1.79,1.43,6.65,6.65,0,0,1-2.41.66,9.4,9.4,0,0,1-1.4,0,3.63,3.63,0,0,1-1.15-.23v4.71l-3,.27V356.45l-1.73.15v-2.53Zm7.31,1.55a3.29,3.29,0,0,0-1.6.58,2.57,2.57,0,0,0-1,1.4v4.78a2.24,2.24,0,0,0,.93.32,5,5,0,0,0,1.23,0,3.42,3.42,0,0,0,1.2-.33,2.8,2.8,0,0,0,1-.79,3.82,3.82,0,0,0,.64-1.28,6.2,6.2,0,0,0,.23-1.79,3.15,3.15,0,0,0-.74-2.28A2.18,2.18,0,0,0,544.45,355.63Z"/><path class="cls-4" d="M563.21,361.89a4.7,4.7,0,0,1-.77.62,8.38,8.38,0,0,1-1.1.61,9.43,9.43,0,0,1-3,.81,7.54,7.54,0,0,1-2.63-.16,4.51,4.51,0,0,1-3.2-2.81,6.77,6.77,0,0,1-.43-2.5,7.11,7.11,0,0,1,.48-2.7,6.09,6.09,0,0,1,1.32-2,6.32,6.32,0,0,1,2-1.33,8.08,8.08,0,0,1,2.44-.62,7.37,7.37,0,0,1,1.8.05,4.45,4.45,0,0,1,1.71.62,3.67,3.67,0,0,1,1.28,1.38,4.82,4.82,0,0,1,.49,2.34,11.25,11.25,0,0,1-.23,2.16l-8.27.82a2.48,2.48,0,0,0,.31,1.21,2.14,2.14,0,0,0,.76.75,3,3,0,0,0,1.08.37,5.27,5.27,0,0,0,1.3,0,7.08,7.08,0,0,0,2.26-.55,5.44,5.44,0,0,0,1.44-.93Zm-5-7.71a4,4,0,0,0-1.13.28,3.55,3.55,0,0,0-1,.57,3,3,0,0,0-.7.85,2.64,2.64,0,0,0-.32,1.09l5.66-.56A2,2,0,0,0,558.24,354.17Z"/><path class="cls-4" d="M565.62,360.33l2.85-.29v-6.44l-2.85.29v-2.53l5.17-.54,0.34,1.48h0.09a7.13,7.13,0,0,1,1.47-1.42,4,4,0,0,1,1.93-.71,2.35,2.35,0,0,1,2.17.78,5.16,5.16,0,0,1,.79,3.29l-2.69.29a2.17,2.17,0,0,0-.24-1.18,0.76,0.76,0,0,0-.77-0.3,2.5,2.5,0,0,0-1.48.62,5.44,5.44,0,0,0-1,1.16v4.9l5-.53v2.53c-4.33.47-6.49,0.7-10.82,1.14v-2.53Z"/><path class="cls-4" d="M589,365.2a9.74,9.74,0,0,1-3.12-.66,7.79,7.79,0,0,1-2.69-1.74,8.42,8.42,0,0,1-1.87-2.92,11.36,11.36,0,0,1-.7-4.2,12.67,12.67,0,0,1,.7-4.34,11.56,11.56,0,0,1,1.87-3.37,11,11,0,0,1,2.69-2.4,12.82,12.82,0,0,1,3.12-1.44l0.55,2.4a10.79,10.79,0,0,0-1.82.87,7.83,7.83,0,0,0-1.94,1.62,9,9,0,0,0-1.55,2.58,9.9,9.9,0,0,0-.63,3.75,8,8,0,0,0,.66,3.49,6.73,6.73,0,0,0,1.62,2.2,6.11,6.11,0,0,0,2,1.18,7.13,7.13,0,0,0,1.7.41Z"/><path class="cls-4" d="M594.72,357.12l3.51-.42V346.65l-3,2.68-1.38-1.68,5.23-4.62,2-.24c0,5.43,0,8.14,0,13.57l3.44-.42v2.53l-9.8,1.18v-2.53Z"/><path class="cls-4" d="M608.49,355.45L612,355c0-4,0-6,0-10.05l-3,2.7L607.59,346l5.23-4.66,2-.26v13.57l3.44-.44v2.53L608.49,358v-2.53Z"/><path class="cls-4" d="M624.81,354.4a1.8,1.8,0,0,1,.52-1.31,2.15,2.15,0,0,1,1.29-.63,2,2,0,0,1,1.9.57,2.9,2.9,0,0,1,.64,2,4.74,4.74,0,0,1-.4,1.94,6,6,0,0,1-1,1.61,6.81,6.81,0,0,1-1.43,1.21,6.64,6.64,0,0,1-1.57.74l-0.62-1.18a7.69,7.69,0,0,0,1.11-.54,5.42,5.42,0,0,0,1-.77,4.32,4.32,0,0,0,.77-1,2.74,2.74,0,0,0,.35-1.15,3,3,0,0,1-1.17.19,1.54,1.54,0,0,1-.79-0.26,1.26,1.26,0,0,1-.45-0.58A2.22,2.22,0,0,1,624.81,354.4Z"/><path class="cls-4" d="M636,351.82l3.5-.49c0-4,0-6,0-10.05l-3,2.75-1.38-1.65,5.22-4.73,2-.29c0,5.43,0,8.14,0,13.57l3.44-.49V353L636,354.35v-2.53Z"/><path class="cls-4" d="M648.17,344.54a14.56,14.56,0,0,1,.44-3.73,8.92,8.92,0,0,1,1.23-2.79,6.32,6.32,0,0,1,1.9-1.83,6.42,6.42,0,0,1,2.46-.88,4.61,4.61,0,0,1,4.46,1.37q1.56,1.8,1.56,6.08a14.65,14.65,0,0,1-.44,3.76,9.14,9.14,0,0,1-1.23,2.81,6.26,6.26,0,0,1-1.91,1.85,6.49,6.49,0,0,1-2.47.89,4.45,4.45,0,0,1-4.46-1.49Q648.17,348.63,648.17,344.54Zm3-.44q0,0.35,0,.65c0,0.21,0,.42,0,0.63l5.54-6a2.16,2.16,0,0,0-2.56-1.59,3,3,0,0,0-2.24,1.75A10.22,10.22,0,0,0,651.15,344.1Zm6.09-.91q0-.37,0-0.7c0-.22,0-0.44,0-0.65l-5.56,6a2.2,2.2,0,0,0,2.57,1.71,3,3,0,0,0,2.25-1.74A10.26,10.26,0,0,0,657.24,343.2Z"/><path class="cls-4" d="M663.78,352.65a9.19,9.19,0,0,0,1.69-.87,8.93,8.93,0,0,0,2-1.71,9.77,9.77,0,0,0,1.61-2.63,9.3,9.3,0,0,0,.66-3.67,8.68,8.68,0,0,0-.63-3.58,6.23,6.23,0,0,0-1.54-2.16,5.4,5.4,0,0,0-1.93-1.1,8.48,8.48,0,0,0-1.82-.38l0.55-2.55a10.09,10.09,0,0,1,3.11.6,7.47,7.47,0,0,1,2.67,1.68,8.12,8.12,0,0,1,1.86,2.87,11.17,11.17,0,0,1,.7,4.16,13,13,0,0,1-.7,4.39,11.9,11.9,0,0,1-1.86,3.42,11.4,11.4,0,0,1-2.67,2.46,12.37,12.37,0,0,1-3.11,1.49Z"/><path class="cls-4" d="M55,299.38v-2.53l2.7,0.38c0-2.58,0-3.86,0-6.44L55,290.41v-2.53l2.72,0.39v-0.64a3.91,3.91,0,0,1,.38-1.81,3,3,0,0,1,1-1.15,3.49,3.49,0,0,1,1.43-.55,5.74,5.74,0,0,1,1.68,0,11.43,11.43,0,0,1,2.6.62,7.74,7.74,0,0,1,1.68.89l-0.87,2.16a12,12,0,0,0-1.13-.62,5.4,5.4,0,0,0-1.57-.42,2,2,0,0,0-1.73.32,2.24,2.24,0,0,0-.49,1.62l4.81,0.67c0,1,0,1.52,0,2.53l-4.81-.67v6.44l4.83,0.67v2.53C61.35,300.27,59.25,300,55,299.38Z"/><path class="cls-4" d="M69.22,290.63a11.29,11.29,0,0,1,2.12-.43,11.8,11.8,0,0,1,2.85.08,6.83,6.83,0,0,1,2,.56,4.05,4.05,0,0,1,1.35,1,3.67,3.67,0,0,1,.75,1.36,5.87,5.87,0,0,1,.23,1.69q0,1.17-.08,2c-0.05.54-.08,1-0.08,1.46a10.12,10.12,0,0,0,0,1.09c0,0.21.05,0.43,0.07,0.63l1.49,0.2v2.53l-3.85-.51-0.3-1.6-0.11,0a3.26,3.26,0,0,1-1.3,1.06,4,4,0,0,1-2.28.21,4.4,4.4,0,0,1-2.71-1.29,3.6,3.6,0,0,1-1-2.57,3.38,3.38,0,0,1,.35-1.62,2.44,2.44,0,0,1,1-1,4.29,4.29,0,0,1,1.62-.45,9.26,9.26,0,0,1,2.1.06q0.41,0.05.87,0.16l1.12,0.24a2.28,2.28,0,0,0,0-.45v-0.44a1.68,1.68,0,0,0-.5-1.32,2.73,2.73,0,0,0-1.48-.58,6.65,6.65,0,0,0-2.09,0,11.91,11.91,0,0,0-1.57.39Zm3.9,9a2.54,2.54,0,0,0,1.63-.18,2.22,2.22,0,0,0,.79-0.76v-1.38l-0.68-.19a8.22,8.22,0,0,0-1-.19,4.64,4.64,0,0,0-.86,0,2.58,2.58,0,0,0-.77.15,1.24,1.24,0,0,0-.54.38,1,1,0,0,0-.2.64,1.49,1.49,0,0,0,.37,1.05A2,2,0,0,0,73.12,299.6Z"/><path class="cls-4" d="M93.41,303.39a5.74,5.74,0,0,1-2.2.79,9.34,9.34,0,0,1-2.64,0,8.09,8.09,0,0,1-2.65-.77A6.43,6.43,0,0,1,84,302a6.2,6.2,0,0,1-1.2-2.08,7.63,7.63,0,0,1-.41-2.54,6.06,6.06,0,0,1,.48-2.51,4.52,4.52,0,0,1,1.34-1.74,5,5,0,0,1,2-.92,7.54,7.54,0,0,1,2.54-.08,10,10,0,0,1,2.41.6,12.69,12.69,0,0,1,1.72.79v4l-2.52-.32V295.1a6.86,6.86,0,0,0-1.42-.34,4.16,4.16,0,0,0-1.27,0,2.63,2.63,0,0,0-1.92,1.45,3.28,3.28,0,0,0-.31,1.5,3.83,3.83,0,0,0,1,2.56,3.86,3.86,0,0,0,1.13.87,4.44,4.44,0,0,0,1.5.45,5.11,5.11,0,0,0,2.14-.1,7.44,7.44,0,0,0,1.25-.49Z"/><path class="cls-4" d="M97.31,296L95,295.73V293.2l2.27,0.28v-2.62l3-.49v3.47l6,0.72v2.53l-6-.72v3.29a4.34,4.34,0,0,0,.67,2.64,2.62,2.62,0,0,0,1.86,1,3.84,3.84,0,0,0,1.12,0,3.79,3.79,0,0,0,.91-0.27,4.41,4.41,0,0,0,.73-0.42l0.61-.43,1.38,2.23a3.75,3.75,0,0,1-1,.73,7.28,7.28,0,0,1-2.67.8,6.59,6.59,0,0,1-1.45,0A5.6,5.6,0,0,1,98.61,304a7.37,7.37,0,0,1-1.29-4.72V296Z"/><path class="cls-4" d="M109.21,300.65a6.69,6.69,0,0,1,.44-2.53,4.51,4.51,0,0,1,1.24-1.77,4.58,4.58,0,0,1,1.92-1,7.06,7.06,0,0,1,2.49-.12,7.72,7.72,0,0,1,2.58.73,6.23,6.23,0,0,1,1.92,1.45,6,6,0,0,1,1.18,2.05,7.75,7.75,0,0,1,.4,2.53,6.72,6.72,0,0,1-.44,2.53,4.42,4.42,0,0,1-3.16,2.74,7,7,0,0,1-2.49.12,7.68,7.68,0,0,1-2.58-.73,6.24,6.24,0,0,1-1.92-1.45,6,6,0,0,1-1.18-2.06A7.77,7.77,0,0,1,109.21,300.65Zm3.07,0.36a4.82,4.82,0,0,0,.21,1.43,4,4,0,0,0,.6,1.2,3.19,3.19,0,0,0,.94.86,3.12,3.12,0,0,0,1.26.41,2.64,2.64,0,0,0,2.17-.6,3.38,3.38,0,0,0,.84-2.6,4.38,4.38,0,0,0-.78-2.65,3.05,3.05,0,0,0-2.23-1.23,3.43,3.43,0,0,0-1.19.06,2,2,0,0,0-1,.52,2.66,2.66,0,0,0-.63,1A4.74,4.74,0,0,0,112.29,301Z"/><path class="cls-4" d="M123.07,305.45l2.85,0.31v-6.44l-2.85-.31v-2.53l5.16,0.56,0.34,1.55h0.09a5.19,5.19,0,0,1,1.47-1.11,3.41,3.41,0,0,1,1.93-.3,2.94,2.94,0,0,1,2.17,1.24,6,6,0,0,1,.79,3.46l-2.69-.28a2.47,2.47,0,0,0-.24-1.23,1,1,0,0,0-.77-0.46,2.1,2.1,0,0,0-1.48.3,4,4,0,0,0-1,1v4.9l5,0.53v2.53c-4.33-.46-6.49-0.69-10.81-1.17v-2.53Z"/><path class="cls-4" d="M137.31,307l4,0.42v-6.44l-4-.42V298l7,0.72v9l4.25,0.42v2.53c-4.51-.45-6.77-0.67-11.28-1.14V307Zm3.49-11.74a1.46,1.46,0,0,1,.53-1.16,1.88,1.88,0,0,1,1.47-.36,2.47,2.47,0,0,1,1.54.66,1.74,1.74,0,0,1,.57,1.28,1.34,1.34,0,0,1-.57,1.15,2.19,2.19,0,0,1-1.54.32,2.34,2.34,0,0,1-1.47-.62A1.71,1.71,0,0,1,140.8,295.23Z"/><path class="cls-4" d="M151.8,300.24a11.64,11.64,0,0,1,2.13-.51,11.87,11.87,0,0,1,2.86,0,6.68,6.68,0,0,1,2,.48,3.86,3.86,0,0,1,1.36.94,3.5,3.5,0,0,1,.75,1.33,5.77,5.77,0,0,1,.23,1.68q0,1.17-.08,2c-0.05.55-.08,1-0.08,1.46a10,10,0,0,0,0,1.09c0,0.21.05,0.43,0.07,0.63l1.49,0.14V312l-3.86-.36-0.3-1.59h-0.11a3.45,3.45,0,0,1-1.3,1.11,4.12,4.12,0,0,1-2.28.3,4.24,4.24,0,0,1-2.72-1.18,3.79,3.79,0,0,1-.65-4.17,2.59,2.59,0,0,1,1-1,4.45,4.45,0,0,1,1.62-.51,9.31,9.31,0,0,1,2.11,0q0.41,0,.87.13l1.12,0.2a2.3,2.3,0,0,0,0-.46v-0.44a1.61,1.61,0,0,0-.5-1.3,2.64,2.64,0,0,0-1.48-.52,6.71,6.71,0,0,0-2.1.1,12.31,12.31,0,0,0-1.57.45Zm3.91,8.82a2.59,2.59,0,0,0,1.64-.25,2.36,2.36,0,0,0,.8-0.79v-1.38l-0.68-.17a8.12,8.12,0,0,0-1-.15,4.66,4.66,0,0,0-.86,0,2.66,2.66,0,0,0-.77.18,1.31,1.31,0,0,0-.55.4,1,1,0,0,0-.2.65,1.44,1.44,0,0,0,.37,1A1.92,1.92,0,0,0,155.71,309.06Z"/><path class="cls-4" d="M165.52,296.15l4.9,0.44v10.63a5.17,5.17,0,0,0,.44,2.5,1.7,1.7,0,0,0,1.4.81,3.78,3.78,0,0,0,1.17,0,4.08,4.08,0,0,0,.92-0.35l1.13,2.17q-0.39.22-.78,0.4a4.61,4.61,0,0,1-.83.3,5.33,5.33,0,0,1-1,.15,7.52,7.52,0,0,1-1.16,0,4.73,4.73,0,0,1-3.24-1.39,4.64,4.64,0,0,1-1.08-3.23c0-3.86,0-5.8,0-9.66l-1.91-.17C165.52,297.67,165.52,297.16,165.52,296.15Z"/><path class="cls-4" d="M179.11,316.13L189.32,317v2.46l-10.21-.84v-2.46Z"/><path class="cls-4" d="M191.12,298.32l4.65,0.36c0,2.36,0,3.53,0,5.89h0.09a3.49,3.49,0,0,1,1.47-1.06,4.83,4.83,0,0,1,2.16-.27,5.6,5.6,0,0,1,1.61.35,3.37,3.37,0,0,1,1.27.85,3.93,3.93,0,0,1,.83,1.5,7.47,7.47,0,0,1,.3,2.26v7.15l-3-.22v-6.53a3,3,0,0,0-.6-2.07,2.25,2.25,0,0,0-1.56-.74,2.46,2.46,0,0,0-1.56.4,2.53,2.53,0,0,0-1,1.24c0,2.93,0,4.4,0,7.34l-3-.23c0-5.43,0-8.14,0-13.57l-1.66-.13v-2.53Z"/><path class="cls-4" d="M217.21,315.11a3.76,3.76,0,0,1-.77.49,6.94,6.94,0,0,1-1.11.42,8.15,8.15,0,0,1-1.39.27,8.81,8.81,0,0,1-1.61,0,8.11,8.11,0,0,1-2.63-.6,5.7,5.7,0,0,1-3.2-3.35,7.33,7.33,0,0,1-.43-2.57,6.5,6.5,0,0,1,.48-2.62,4.81,4.81,0,0,1,1.32-1.8,5.07,5.07,0,0,1,2-1,7.44,7.44,0,0,1,2.44-.21,7.81,7.81,0,0,1,1.81.35,5.35,5.35,0,0,1,1.72.91,4.7,4.7,0,0,1,1.28,1.59,5.34,5.34,0,0,1,.49,2.42,10.7,10.7,0,0,1-.23,2.12l-8.29-.57a2.8,2.8,0,0,0,.31,1.26,2.72,2.72,0,0,0,.76.88,3.56,3.56,0,0,0,1.08.55,5.56,5.56,0,0,0,1.3.24,6.57,6.57,0,0,0,2.27-.17,4.42,4.42,0,0,0,1.44-.68Zm-5-8.55a3.71,3.71,0,0,0-1.13.09,2.9,2.9,0,0,0-1,.41,2.37,2.37,0,0,0-.7.74,2.28,2.28,0,0,0-.32,1l5.66,0.39A2.46,2.46,0,0,0,212.24,306.56Z"/><path class="cls-4" d="M220.73,300.46l4.9,0.32c0,4.25,0,6.38,0,10.63a5.09,5.09,0,0,0,.44,2.49,1.65,1.65,0,0,0,1.4.78,3.8,3.8,0,0,0,1.17-.08,4.19,4.19,0,0,0,.92-0.37l1.13,2.14q-0.39.23-.78,0.42a4.75,4.75,0,0,1-.83.32,5.41,5.41,0,0,1-1,.17,7.54,7.54,0,0,1-1.16,0,4.62,4.62,0,0,1-3.25-1.31,4.54,4.54,0,0,1-1.08-3.2c0-3.86,0-5.8,0-9.66l-1.91-.12C220.73,302,220.73,301.47,220.73,300.46Z"/><path class="cls-4" d="M232.54,305.8l3.91,0.23,0.35,1.4h0.09a4.16,4.16,0,0,1,3.87-1.48,5.67,5.67,0,0,1,1.95.44,4.1,4.1,0,0,1,1.52,1.13,5.26,5.26,0,0,1,1,1.85,8.79,8.79,0,0,1,.35,2.62,8.24,8.24,0,0,1-.39,2.64,5.26,5.26,0,0,1-1.13,2,4.48,4.48,0,0,1-1.8,1.17,6.13,6.13,0,0,1-2.42.3,9.61,9.61,0,0,1-1.4-.18,4.07,4.07,0,0,1-1.15-.4c0,1.89,0,2.83,0,4.71l-3-.18c0-5.43,0-8.14,0-13.57l-1.73-.1C232.54,307.32,232.54,306.81,232.54,305.8Zm7.32,2.63a2.93,2.93,0,0,0-1.6.35,2.09,2.09,0,0,0-1,1.25v4.78a2.62,2.62,0,0,0,.93.46,5.28,5.28,0,0,0,1.23.22,3.13,3.13,0,0,0,1.2-.15,2.27,2.27,0,0,0,1-.65,3.18,3.18,0,0,0,.64-1.18,5.85,5.85,0,0,0,.23-1.76,3.57,3.57,0,0,0-.74-2.39A2.54,2.54,0,0,0,239.87,308.44Z"/><path class="cls-4" d="M258.66,317.49a3.83,3.83,0,0,1-.77.5,7.08,7.08,0,0,1-1.11.44,8.29,8.29,0,0,1-1.39.3,8.89,8.89,0,0,1-1.61.06,8,8,0,0,1-2.64-.55,5.55,5.55,0,0,1-3.2-3.28,7.27,7.27,0,0,1-.43-2.56,6.56,6.56,0,0,1,.48-2.63,4.94,4.94,0,0,1,1.32-1.83,5.2,5.2,0,0,1,2-1,7.5,7.5,0,0,1,2.44-.26,7.73,7.73,0,0,1,1.81.32,5.25,5.25,0,0,1,1.72.88,4.57,4.57,0,0,1,1.28,1.57,5.26,5.26,0,0,1,.5,2.42,10.77,10.77,0,0,1-.23,2.13l-8.29-.41a2.76,2.76,0,0,0,.31,1.26,2.66,2.66,0,0,0,.76.87,3.48,3.48,0,0,0,1.08.53,5.51,5.51,0,0,0,1.3.22,6.61,6.61,0,0,0,2.27-.21,4.52,4.52,0,0,0,1.44-.71Zm-5-8.46a3.74,3.74,0,0,0-1.13.11,3,3,0,0,0-1,.43,2.43,2.43,0,0,0-.7.75,2.31,2.31,0,0,0-.32,1l5.67,0.29A2.41,2.41,0,0,0,253.69,309Z"/><path class="cls-4" d="M261.08,316.3l2.86,0.13c0-2.58,0-3.86,0-6.44l-2.86-.13v-2.53l5.18,0.24,0.35,1.53h0.09a5.72,5.72,0,0,1,1.48-1.2,3.54,3.54,0,0,1,1.94-.42,2.74,2.74,0,0,1,2.18,1.1,5.72,5.72,0,0,1,.79,3.41l-2.7-.11a2.37,2.37,0,0,0-.24-1.22,0.89,0.89,0,0,0-.77-0.41,2.21,2.21,0,0,0-1.49.4,4.36,4.36,0,0,0-1,1v4.9l5,0.22c0,1,0,1.52,0,2.53-4.34-.18-6.51-0.28-10.85-0.48V316.3Z"/><path class="cls-4" d="M284.49,324.68a11,11,0,0,1-3.13-1.13,9.66,9.66,0,0,1-2.7-2.15,10.25,10.25,0,0,1-1.88-3.2,12.19,12.19,0,0,1-.7-4.31,11.74,11.74,0,0,1,.7-4.24,9.5,9.5,0,0,1,1.88-3.09,8.85,8.85,0,0,1,2.7-2,11.09,11.09,0,0,1,3.13-1l0.55,2.48a9.33,9.33,0,0,0-1.83.59,6.35,6.35,0,0,0-1.95,1.33,7.32,7.32,0,0,0-1.56,2.35,9.15,9.15,0,0,0-.63,3.66,8.67,8.67,0,0,0,.67,3.59,8.3,8.3,0,0,0,1.63,2.44,7.55,7.55,0,0,0,2,1.48,8.18,8.18,0,0,0,1.7.67Z"/><path class="cls-4" d="M290.28,317.47l3.53,0.12c0-4,0-6,0-10.05l-3,2.22-1.38-1.89,5.26-3.83,2,0.06c0,5.43,0,8.14,0,13.57l3.46,0.1c0,1,0,1.52,0,2.53l-9.84-.31C290.28,319,290.28,318.48,290.28,317.47Z"/><path class="cls-4" d="M304.11,317.89l3.53,0.09c0-4,0-6,0-10.05l-3,2.24-1.38-1.88,5.26-3.86,2,0.05c0,5.43,0,8.14,0,13.57l3.46,0.08c0,1,0,1.52,0,2.53l-9.84-.25C304.11,319.41,304.11,318.9,304.11,317.89Z"/><path class="cls-4" d="M320.52,319.33a1.55,1.55,0,0,1,.52-1.23,1.86,1.86,0,0,1,1.3-.43,2.32,2.32,0,0,1,1.91.86,3.28,3.28,0,0,1,.65,2.06,4.3,4.3,0,0,1-.4,1.88,4.85,4.85,0,0,1-1,1.45,5.52,5.52,0,0,1-1.44,1,5.76,5.76,0,0,1-1.58.5l-0.62-1.28a6.58,6.58,0,0,0,1.12-.37,4.41,4.41,0,0,0,1-.61,3.47,3.47,0,0,0,.77-0.87,2.4,2.4,0,0,0,.36-1.1,2.94,2.94,0,0,1-1.18,0,1.82,1.82,0,0,1-.79-0.38,1.55,1.55,0,0,1-.45-0.65A2.37,2.37,0,0,1,320.52,319.33Z"/><path class="cls-4" d="M331.77,318.47l3.53,0c0-4,0-6,0-10.05l-3,2.28-1.38-1.86,5.26-3.93,2,0c0,5.43,0,8.14,0,13.57l3.46,0c0,1,0,1.52,0,2.53l-9.84-.12C331.77,320,331.77,319.48,331.77,318.47Z"/><path class="cls-4" d="M344,313.07a13.67,13.67,0,0,1,.44-3.66,7.48,7.48,0,0,1,1.24-2.6,5.07,5.07,0,0,1,1.91-1.54,5.78,5.78,0,0,1,2.48-.5,5.38,5.38,0,0,1,4.49,2.06q1.57,2,1.57,6.32a13.76,13.76,0,0,1-.44,3.69,7.65,7.65,0,0,1-1.24,2.62,5,5,0,0,1-1.92,1.56,5.85,5.85,0,0,1-2.49.5,5.23,5.23,0,0,1-4.49-2.18A10.66,10.66,0,0,1,344,313.07Zm3,0c0,0.23,0,.45,0,0.66s0,0.42,0,.63l5.58-5.09a2.6,2.6,0,0,0-2.58-2,2.44,2.44,0,0,0-2.25,1.4A9.35,9.35,0,0,0,347,313.09Zm6.13,0q0-.37,0-0.7c0-.22,0-0.44,0-0.66l-5.6,5.09A2.65,2.65,0,0,0,350.1,319a2.47,2.47,0,0,0,2.26-1.39A9.37,9.37,0,0,0,353.17,313.13Z"/><path class="cls-4" d="M359.76,323.6a7.92,7.92,0,0,0,1.71-.61,7.2,7.2,0,0,0,2-1.4,7.89,7.89,0,0,0,1.63-2.38,8.49,8.49,0,0,0,.67-3.56,9.33,9.33,0,0,0-.63-3.68,7.71,7.71,0,0,0-1.56-2.4,6.71,6.71,0,0,0-1.95-1.4,9.66,9.66,0,0,0-1.83-.66l0.55-2.46a11.47,11.47,0,0,1,3.14,1.08,9.34,9.34,0,0,1,2.7,2.09,10,10,0,0,1,1.88,3.16,13.34,13.34,0,0,1,0,8.55,9.76,9.76,0,0,1-1.88,3.13,9.17,9.17,0,0,1-2.7,2,10.68,10.68,0,0,1-3.14,1Z"/><path class="cls-4" d="M510,313.81l2.85-.19v-6.44l-2.85.19v-2.53l5.18-.35,0.34,1.49h0.09a6.77,6.77,0,0,1,1.47-1.37A3.85,3.85,0,0,1,519,304a2.43,2.43,0,0,1,2.18.86,5.29,5.29,0,0,1,.79,3.32l-2.69.19a2.22,2.22,0,0,0-.24-1.19,0.79,0.79,0,0,0-.77-0.33,2.43,2.43,0,0,0-1.48.56,5.16,5.16,0,0,0-1,1.13v4.9l5-.35c0,1,0,1.52,0,2.53-4.34.31-6.5,0.46-10.84,0.75v-2.53Z"/><path class="cls-4" d="M535.19,313.29a4.58,4.58,0,0,1-.77.6,8.18,8.18,0,0,1-1.1.58,9.28,9.28,0,0,1-3,.74,7.6,7.6,0,0,1-2.63-.21,4.65,4.65,0,0,1-3.2-2.88,6.85,6.85,0,0,1-.43-2.51,7,7,0,0,1,.48-2.69,5.89,5.89,0,0,1,1.32-2,6.11,6.11,0,0,1,2-1.29,8,8,0,0,1,2.44-.56,7.4,7.4,0,0,1,1.81.09,4.56,4.56,0,0,1,1.71.66,3.8,3.8,0,0,1,1.28,1.41,4.88,4.88,0,0,1,.5,2.35,11.22,11.22,0,0,1-.23,2.16l-8.28.64a2.53,2.53,0,0,0,.31,1.22,2.21,2.21,0,0,0,.76.77,3,3,0,0,0,1.08.39,5.29,5.29,0,0,0,1.3.05,7,7,0,0,0,2.27-.5,5.3,5.3,0,0,0,1.44-.89Zm-5-7.83a4,4,0,0,0-1.13.25,3.46,3.46,0,0,0-1,.55,2.93,2.93,0,0,0-.7.84,2.56,2.56,0,0,0-.32,1.08l5.66-.43A2.09,2.09,0,0,0,530.22,305.46Z"/><path class="cls-4" d="M549.26,312.25a7.3,7.3,0,0,1-2.21,1.26,10.09,10.09,0,0,1-2.64.58,7.26,7.26,0,0,1-2.66-.22,4.86,4.86,0,0,1-2-1.07,4.68,4.68,0,0,1-1.21-1.82,6.88,6.88,0,0,1-.41-2.45,6.77,6.77,0,0,1,.48-2.61,6.07,6.07,0,0,1,1.35-2,6.47,6.47,0,0,1,2-1.35,8.24,8.24,0,0,1,2.55-.61,9.24,9.24,0,0,1,2.41.1,10.54,10.54,0,0,1,1.73.43c0,1.62,0,2.43,0,4l-2.53.21V304.6a6.36,6.36,0,0,0-1.43,0,4.52,4.52,0,0,0-1.28.3,3.47,3.47,0,0,0-1.13.71,3.57,3.57,0,0,0-1.12,2.7,3.4,3.4,0,0,0,.25,1.34,2.81,2.81,0,0,0,1.85,1.65,4,4,0,0,0,1.51.14,5.65,5.65,0,0,0,2.15-.55,9.65,9.65,0,0,0,1.25-.75Z"/><path class="cls-4" d="M558.09,301.08l4.28-.39v9l1.75-.16V312l-3.63.33L560,310.72h-0.09a4.63,4.63,0,0,1-1.59,1.59,5.18,5.18,0,0,1-2.35.78,5.11,5.11,0,0,1-1.6-.09,2.58,2.58,0,0,1-1.23-.65,3.16,3.16,0,0,1-.78-1.36,7.53,7.53,0,0,1-.28-2.23c0-1.85,0-2.77,0-4.62l-1.31.11v-2.53l4.3-.37c0,2.61,0,3.92,0,6.53a3.33,3.33,0,0,0,.45,2,1.49,1.49,0,0,0,1.41.5,2.71,2.71,0,0,0,1.53-.64,3.08,3.08,0,0,0,1-1.33v-4.9l-1.29.12v-2.53Z"/><path class="cls-4" d="M565.2,309.41l2.85-.27v-6.44l-2.85.27v-2.53l5.17-.48,0.34,1.48h0.09a7,7,0,0,1,1.47-1.4,3.93,3.93,0,0,1,1.93-.69,2.37,2.37,0,0,1,2.17.8,5.21,5.21,0,0,1,.79,3.3l-2.69.26a2.18,2.18,0,0,0-.24-1.18,0.77,0.77,0,0,0-.77-0.31,2.48,2.48,0,0,0-1.48.6,5.36,5.36,0,0,0-1,1.15v4.9l5-.48v2.53c-4.33.42-6.49,0.63-10.82,1v-2.53Z"/><path class="cls-4" d="M588.54,314.53a9.82,9.82,0,0,1-3.12-.69,7.92,7.92,0,0,1-2.69-1.78,8.53,8.53,0,0,1-1.87-2.94,11.42,11.42,0,0,1-.7-4.21,12.58,12.58,0,0,1,.7-4.34,11.37,11.37,0,0,1,1.87-3.35,10.8,10.8,0,0,1,2.69-2.37,12.64,12.64,0,0,1,3.12-1.4l0.55,2.4a10.66,10.66,0,0,0-1.83.84,7.72,7.72,0,0,0-1.94,1.6,8.83,8.83,0,0,0-1.55,2.56,9.84,9.84,0,0,0-.63,3.74,8,8,0,0,0,.67,3.5,6.84,6.84,0,0,0,1.62,2.22,6.21,6.21,0,0,0,2,1.2,7.21,7.21,0,0,0,1.7.43Z"/><path class="cls-4" d="M594.3,306.52l3.51-.37c0-4,0-6,0-10.05l-3,2.65-1.38-1.69,5.23-4.56,2-.22c0,5.43,0,8.14,0,13.57l3.44-.38c0,1,0,1.52,0,2.53l-9.8,1.06C594.3,308,594.3,307.54,594.3,306.52Z"/><path class="cls-4" d="M608.08,305l3.51-.4c0-4,0-6,0-10.05l-3,2.67-1.38-1.69,5.23-4.59,2-.23c0,5.43,0,8.14,0,13.57l3.44-.4c0,1,0,1.52,0,2.53l-9.8,1.12V305Z"/><path class="cls-4" d="M620.28,298.07a14.35,14.35,0,0,1,.44-3.72A8.64,8.64,0,0,1,622,291.6a6.08,6.08,0,0,1,1.9-1.78,6.29,6.29,0,0,1,2.46-.81,4.73,4.73,0,0,1,4.47,1.49q1.56,1.84,1.56,6.12a14.47,14.47,0,0,1-.44,3.75,8.85,8.85,0,0,1-1.23,2.77,6,6,0,0,1-1.91,1.8,6.36,6.36,0,0,1-2.47.82,4.57,4.57,0,0,1-4.47-1.62Q620.28,302.17,620.28,298.07Zm3-.35c0,0.23,0,.45,0,0.65s0,0.42,0,.63l5.55-5.8a2.23,2.23,0,0,0-2.57-1.67,2.85,2.85,0,0,0-2.24,1.68A10.06,10.06,0,0,0,623.26,297.72Zm6.1-.74q0-.37,0-0.7c0-.22,0-0.44,0-0.65l-5.57,5.8a2.27,2.27,0,0,0,2.57,1.78,2.88,2.88,0,0,0,2.25-1.68A10.08,10.08,0,0,0,629.36,297Z"/><path class="cls-4" d="M638.17,302.49a1.79,1.79,0,0,1,.52-1.31,2.14,2.14,0,0,1,1.3-.62,2,2,0,0,1,1.9.59,2.91,2.91,0,0,1,.64,2,4.71,4.71,0,0,1-.4,1.94,5.94,5.94,0,0,1-1,1.61,6.76,6.76,0,0,1-1.43,1.2,6.6,6.6,0,0,1-1.57.73l-0.62-1.19a7.58,7.58,0,0,0,1.11-.53,5.36,5.36,0,0,0,1-.76,4.29,4.29,0,0,0,.77-1,2.73,2.73,0,0,0,.36-1.15,3,3,0,0,1-1.17.18,1.55,1.55,0,0,1-.79-0.27,1.26,1.26,0,0,1-.45-0.59A2.22,2.22,0,0,1,638.17,302.49Z"/><path class="cls-4" d="M648.16,291.61a6.1,6.1,0,0,1,.4-2.21,5.81,5.81,0,0,1,1.12-1.84,6.27,6.27,0,0,1,1.74-1.33,6.78,6.78,0,0,1,2.28-.71,6.43,6.43,0,0,1,2.34.08,4.11,4.11,0,0,1,1.81.92,4.35,4.35,0,0,1,1.17,1.75,7.17,7.17,0,0,1,.41,2.56,14.61,14.61,0,0,1-.69,4.69A11.29,11.29,0,0,1,656.9,299a9.69,9.69,0,0,1-2.69,2.34,11.93,11.93,0,0,1-3.21,1.3l-0.64-2.26a8.93,8.93,0,0,0,2.28-.92,8.27,8.27,0,0,0,1.78-1.38,7.19,7.19,0,0,0,1.24-1.71,5.9,5.9,0,0,0,.62-1.93,4.13,4.13,0,0,1-1.24.94,5.55,5.55,0,0,1-1.81.53h0a5.31,5.31,0,0,1-1.76-.06,4.08,4.08,0,0,1-1.61-.71,4,4,0,0,1-1.18-1.4A4.49,4.49,0,0,1,648.16,291.61Zm2.89-.54a2.37,2.37,0,0,0,.24,1.11,2.08,2.08,0,0,0,.63.74,2.29,2.29,0,0,0,.91.39,3.22,3.22,0,0,0,1.06,0,4.45,4.45,0,0,0,1.63-.52,2.91,2.91,0,0,0,1-.87,6.75,6.75,0,0,0,.07-0.93,4.22,4.22,0,0,0-.18-1.24,2.9,2.9,0,0,0-.55-1,2.25,2.25,0,0,0-.92-0.65,2.52,2.52,0,0,0-1.26-.12A3,3,0,0,0,651,291.07Z"/><path class="cls-4" d="M663.41,303a9.08,9.08,0,0,0,1.69-.84,8.75,8.75,0,0,0,2-1.68,9.54,9.54,0,0,0,1.61-2.61,9.21,9.21,0,0,0,.66-3.66,8.74,8.74,0,0,0-.63-3.59,6.37,6.37,0,0,0-1.55-2.19,5.51,5.51,0,0,0-1.93-1.13,8.54,8.54,0,0,0-1.82-.4l0.55-2.54a10.18,10.18,0,0,1,3.11.65,7.64,7.64,0,0,1,2.68,1.72,8.3,8.3,0,0,1,1.87,2.9,11.24,11.24,0,0,1,.7,4.17,12.87,12.87,0,0,1-.7,4.38,11.7,11.7,0,0,1-1.87,3.39,11.17,11.17,0,0,1-2.68,2.42,12.16,12.16,0,0,1-3.11,1.44Z"/></svg>