<svg id="Layer_1" data-name="Layer 1" xmlns="http://www.w3.org/2000/svg" viewBox="0 0 720 576"><defs><style>.cls-1,.cls-2,.cls-4,.cls-6{fill:#231f20;}.cls-1,.cls-3{stroke:#231f20;}.cls-1,.cls-6{stroke-miterlimit:10;}.cls-1,.cls-2,.cls-3{stroke-width:2px;}.cls-2{stroke:#000;}.cls-2,.cls-3{stroke-linecap:round;stroke-linejoin:round;}.cls-3,.cls-5{fill:#fff;}.cls-6{stroke:#fff;}</style></defs><title>Hanoi_Tower_Set_1</title><path class="cls-1" d="M658.06,506.49c0-.14,0-0.29,0-0.43s0-.29,0-0.43V453.84H66.23S66,505.57,66,506.06c0,2.67,2.12,5.24,6.08,7.71,13.87,8.61,50.58,16.11,101.74,21.48s116.73,8.59,188.22,8.59c81.71,0,155.68-4.21,209.24-11,26.78-3.41,48.45-7.46,63.44-12,7.5-2.25,13.32-4.62,17.29-7.08,3.38-2.1,5.41-4.29,5.94-6.55h0.1v-0.73Z"/><ellipse class="cls-2" cx="362.06" cy="454.92" rx="295.87" ry="37.63"/><path class="cls-3" d="M658.06,455c0-.14,0-0.29,0-0.43s0-.29,0-0.43V402.36H66.23S66,454.1,66,454.58c0,2.67,2.12,5.24,6.08,7.71,13.87,8.61,50.58,16.11,101.74,21.48s116.73,8.59,188.22,8.59c81.71,0,155.68-4.21,209.24-11,26.78-3.41,48.45-7.46,63.44-12,7.5-2.25,13.32-4.62,17.29-7.08,3.38-2.1,5.41-4.29,5.94-6.55h0.1V455Z"/><ellipse class="cls-3" cx="362.06" cy="403.44" rx="295.87" ry="37.63"/><path class="cls-3" d="M658.06,403.53c0-.14,0-0.29,0-0.43s0-.29,0-0.43V350.88H66.23S66,402.62,66,403.1c0,2.67,2.12,5.24,6.08,7.71,13.87,8.61,50.58,16.11,101.74,21.48s116.73,8.59,188.22,8.59c81.71,0,155.68-4.21,209.24-11,26.78-3.41,48.45-7.46,63.44-12,7.5-2.25,13.32-4.62,17.29-7.08,3.38-2.1,5.41-4.29,5.94-6.55h0.1v-0.73Z"/><ellipse class="cls-3" cx="362.06" cy="351.97" rx="295.87" ry="37.63"/><path class="cls-4" d="M362,360.22c-16,0-29-3.75-30.2-8.61h-0.08l0-.5V8.27h60.63V351.6h-0.12C391,356.47,378,360.22,362,360.22Z"/><path class="cls-5" d="M391.87,8.77V351.1h0c-0.49,4.78-13.63,8.61-29.79,8.61s-29.3-3.83-29.79-8.61h0v-0.21s0,0,0-.06,0,0,0-.06V8.77h59.63m1-1H331.24v343s0,0.07,0,.11v1.27h0.23c2,5.6,16.84,8.61,30.58,8.61s28.6-3,30.58-8.61h0.21l0-1V7.77h0Z"/><ellipse class="cls-6" cx="362.05" cy="8.89" rx="29.81" ry="8.89"/><path class="cls-4" d="M111.28,408.27v-2.53l2.7,0.38v-6.44l-2.72-.39v-2.53l2.72,0.39v-0.64a3.91,3.91,0,0,1,.38-1.81,3,3,0,0,1,1-1.15,3.49,3.49,0,0,1,1.43-.55,5.74,5.74,0,0,1,1.68,0,11.44,11.44,0,0,1,2.6.62,7.73,7.73,0,0,1,1.68.88l-0.87,2.16a12.06,12.06,0,0,0-1.13-.61,5.4,5.4,0,0,0-1.57-.42,2,2,0,0,0-1.73.32,2.24,2.24,0,0,0-.49,1.62l4.81,0.66c0,1,0,1.52,0,2.53L117,400.1v6.44l4.83,0.66v2.53C117.59,409.16,115.48,408.87,111.28,408.27Z"/><path class="cls-4" d="M124.74,407.61l4,0.54v-6.44l-4-.54v-2.53l7,0.93v9l4.24,0.55v2.53c-4.5-.58-6.75-0.87-11.25-1.48v-2.53ZM128.23,396a1.42,1.42,0,0,1,.53-1.15,1.83,1.83,0,0,1,1.47-.31,2.54,2.54,0,0,1,1.54.71,1.8,1.8,0,0,1,.57,1.29,1.29,1.29,0,0,1-.57,1.13,2.14,2.14,0,0,1-1.54.27,2.41,2.41,0,0,1-1.47-.66A1.77,1.77,0,0,1,128.23,396Z"/><path class="cls-4" d="M138,409.34l2.84,0.36c0-2.58,0-3.86,0-6.44L138,402.9c0-1,0-1.52,0-2.53l5.16,0.65,0.34,1.56h0.09a5.07,5.07,0,0,1,1.47-1.08,3.37,3.37,0,0,1,1.93-.27,3,3,0,0,1,2.17,1.27A6,6,0,0,1,150,406l-2.68-.32a2.49,2.49,0,0,0-.24-1.24,1,1,0,0,0-.77-0.47,2.08,2.08,0,0,0-1.48.28,3.88,3.88,0,0,0-1,.94v4.9l5,0.61c0,1,0,1.52,0,2.53-4.32-.52-6.48-0.79-10.8-1.34C138,410.86,138,410.36,138,409.34Z"/><path class="cls-4" d="M160.12,411.36a1,1,0,0,0-.56-0.8,9.25,9.25,0,0,0-1.39-.67l-1.81-.68a9.28,9.28,0,0,1-1.81-.88,5.37,5.37,0,0,1-1.39-1.24,2.77,2.77,0,0,1-.56-1.76,2.66,2.66,0,0,1,.38-1.45,2.88,2.88,0,0,1,1-1,4.3,4.3,0,0,1,1.56-.5,7.82,7.82,0,0,1,2,0,11.28,11.28,0,0,1,2,.39,10.65,10.65,0,0,1,1.48.56,6.29,6.29,0,0,1,1.08.64l0.77,0.6-1.26,1.9q-0.34-.25-0.79-0.51t-0.94-.51a8.21,8.21,0,0,0-1-.42,5.44,5.44,0,0,0-1.07-.24,3.9,3.9,0,0,0-1.56.07,0.72,0.72,0,0,0-.6.71,0.89,0.89,0,0,0,.56.73,10.3,10.3,0,0,0,1.39.63l1.81,0.68a10.89,10.89,0,0,1,1.81.86,5.13,5.13,0,0,1,1.39,1.2,2.68,2.68,0,0,1,.56,1.72,2.92,2.92,0,0,1-1.27,2.6,5.61,5.61,0,0,1-3.77.57,9.64,9.64,0,0,1-3.41-1,9.26,9.26,0,0,1-2.31-1.64l1.38-2a8.25,8.25,0,0,0,.79.66,8.42,8.42,0,0,0,1.11.69,10.62,10.62,0,0,0,1.32.58,6.16,6.16,0,0,0,1.39.33,2.75,2.75,0,0,0,1.26-.11A0.76,0.76,0,0,0,160.12,411.36Z"/><path class="cls-4" d="M167.32,406.37l-2.27-.25v-2.53l2.27,0.25c0-1,0-1.57,0-2.62l3-.52v3.47l6,0.64v2.53l-6-.64V410a4.3,4.3,0,0,0,.67,2.64,2.58,2.58,0,0,0,1.86,1,3.78,3.78,0,0,0,2-.31,4.49,4.49,0,0,0,.73-0.43l0.61-.44,1.38,2.21a3.82,3.82,0,0,1-1,.74,7.37,7.37,0,0,1-2.68.83,6.6,6.6,0,0,1-1.45,0,5.52,5.52,0,0,1-3.87-1.86,7.29,7.29,0,0,1-1.3-4.71v-3.29Z"/><path class="cls-4" d="M180.23,419.41c4.08,0.42,6.12.62,10.2,1v2.46c-4.08-.4-6.12-0.6-10.2-1v-2.46Z"/><path class="cls-4" d="M192.49,406.43l4,0.38,0.34,1.55H197a4,4,0,0,1,1.52-1.15,4.56,4.56,0,0,1,2.37-.34,5.7,5.7,0,0,1,1.6.38,3.43,3.43,0,0,1,1.28.87,4.12,4.12,0,0,1,.84,1.51,7.26,7.26,0,0,1,.31,2.27c0,2.86,0,4.29,0,7.15l-3-.27v-6.53a3,3,0,0,0-.63-2.08,2.41,2.41,0,0,0-1.6-.77,2.47,2.47,0,0,0-1.55.35,2.17,2.17,0,0,0-1,1.14v7.45l-3-.28v-9l-1.65-.16v-2.53Z"/><path class="cls-4" d="M208.08,408.64a11.74,11.74,0,0,1,2.13-.53,11.91,11.91,0,0,1,2.86-.06,6.65,6.65,0,0,1,2,.46,3.8,3.8,0,0,1,1.36.93,3.45,3.45,0,0,1,.75,1.33,5.74,5.74,0,0,1,.23,1.67q0,1.17-.08,2c-0.05.55-.08,1-0.08,1.47a9.94,9.94,0,0,0,0,1.08c0,0.21.05,0.43,0.07,0.63l1.5,0.12v2.53l-3.86-.32-0.3-1.59h-0.11a3.51,3.51,0,0,1-1.3,1.12,4.15,4.15,0,0,1-2.29.32,4.2,4.2,0,0,1-2.72-1.15,3.43,3.43,0,0,1-1-2.52,3.47,3.47,0,0,1,.35-1.64,2.63,2.63,0,0,1,1-1.06,4.5,4.5,0,0,1,1.62-.53,9.33,9.33,0,0,1,2.11,0q0.41,0,.87.12l1.12,0.19a2.31,2.31,0,0,0,0-.46v-0.44a1.6,1.6,0,0,0-.5-1.3,2.62,2.62,0,0,0-1.48-.5,6.74,6.74,0,0,0-2.1.12,12.46,12.46,0,0,0-1.58.46Zm3.91,8.78a2.61,2.61,0,0,0,1.64-.26,2.39,2.39,0,0,0,.8-0.8V415l-0.68-.16a8.09,8.09,0,0,0-1-.14,4.66,4.66,0,0,0-.86,0,2.68,2.68,0,0,0-.77.19,1.33,1.33,0,0,0-.55.4,1,1,0,0,0-.2.65,1.42,1.42,0,0,0,.37,1A1.9,1.9,0,0,0,212,417.41Z"/><path class="cls-4" d="M225.35,420.77v-7a5.63,5.63,0,0,0-.09-1.12,2.31,2.31,0,0,0-.24-0.69,0.82,0.82,0,0,0-.37-0.35,1.35,1.35,0,0,0-.45-0.11,1.14,1.14,0,0,0-1.17.8v8.33l-2.76-.22v-11.5l2.18,0.17,0.32,1.29h0.07a2.51,2.51,0,0,1,1-1,2.71,2.71,0,0,1,1.56-.3,3.23,3.23,0,0,1,1.45.48,2.17,2.17,0,0,1,.94,1.36,2.3,2.3,0,0,1,1.06-1.15,2.82,2.82,0,0,1,1.54-.31,3.53,3.53,0,0,1,1.12.26,2.19,2.19,0,0,1,.86.67,3.26,3.26,0,0,1,.56,1.23,8,8,0,0,1,.2,1.93c0,3.15,0,4.72,0,7.87l-2.76-.2v-7.36a2.48,2.48,0,0,0-.33-1.47,1.1,1.1,0,0,0-.82-0.47,1.22,1.22,0,0,0-.71.14,0.93,0.93,0,0,0-.41.6V421Z"/><path class="cls-4" d="M245.9,421a3.77,3.77,0,0,1-.77.49,6.94,6.94,0,0,1-1.11.42,8.2,8.2,0,0,1-1.39.27,8.85,8.85,0,0,1-1.61,0,8.1,8.1,0,0,1-2.63-.6,5.7,5.7,0,0,1-3.2-3.34,7.34,7.34,0,0,1-.43-2.57,6.5,6.5,0,0,1,.48-2.62,4.82,4.82,0,0,1,1.32-1.8,5.07,5.07,0,0,1,2-1,7.44,7.44,0,0,1,2.44-.21,7.81,7.81,0,0,1,1.81.35,5.35,5.35,0,0,1,1.72.91,4.69,4.69,0,0,1,1.28,1.59,5.33,5.33,0,0,1,.49,2.42,10.72,10.72,0,0,1-.23,2.12l-8.29-.56a2.8,2.8,0,0,0,.31,1.26,2.71,2.71,0,0,0,.76.88,3.55,3.55,0,0,0,1.08.55,5.55,5.55,0,0,0,1.3.24,6.56,6.56,0,0,0,2.27-.17,4.42,4.42,0,0,0,1.44-.69Zm-5-8.54a3.71,3.71,0,0,0-1.13.09,2.91,2.91,0,0,0-1,.41,2.38,2.38,0,0,0-.7.74,2.28,2.28,0,0,0-.32,1l5.66,0.39A2.46,2.46,0,0,0,240.93,412.47Z"/><path class="cls-4" d="M508.9,403.86l2.62-.22L510.7,411l-1.79.15v-7.27Zm5-.42,2.62-.23-0.83,7.34-1.79.15v-7.27Z"/><path class="cls-4" d="M523.94,409.13h-0.12L524,411c0,3,0,4.57,0,7.61l-3,.27v-16.1l2.76-.25,5.56,9.33h0.11L529.21,410v-7.91l3-.28c0,6.44,0,9.66,0,16.1l-2.76.26Z"/><path class="cls-4" d="M535.55,406.84a13.84,13.84,0,0,1,2.12-.92,12.66,12.66,0,0,1,2.86-.59,6.16,6.16,0,0,1,2,.08,3,3,0,0,1,1.35.68,2.71,2.71,0,0,1,.75,1.19,5.32,5.32,0,0,1,.23,1.63q0,1.17-.08,2t-0.08,1.48a9.72,9.72,0,0,0,0,1.08c0,0.21.05,0.42,0.07,0.61l1.49-.15v2.53l-3.85.4-0.3-1.53h-0.11a4.6,4.6,0,0,1-1.3,1.36,4.68,4.68,0,0,1-2.28.75,3.58,3.58,0,0,1-2.72-.65,2.85,2.85,0,0,1-1-2.34,3.89,3.89,0,0,1,.35-1.7,3.43,3.43,0,0,1,1-1.25,5.45,5.45,0,0,1,1.62-.83,9.91,9.91,0,0,1,2.11-.43c0.27,0,.56,0,0.87,0l1.12,0a2.44,2.44,0,0,0,0-.46v-0.44a1.33,1.33,0,0,0-.5-1.2,2.29,2.29,0,0,0-1.48-.23,7.29,7.29,0,0,0-2.1.51,15,15,0,0,0-1.57.75Zm3.91,8.05a3,3,0,0,0,1.64-.57,3.14,3.14,0,0,0,.79-0.94V412l-0.68,0a7.84,7.84,0,0,0-1,0,4.92,4.92,0,0,0-.86.17,3.17,3.17,0,0,0-.77.33,1.74,1.74,0,0,0-.55.5,1.18,1.18,0,0,0-.2.69,1.19,1.19,0,0,0,.37,1A1.64,1.64,0,0,0,539.46,414.89Z"/><path class="cls-4" d="M549.92,407.12l-2.27.24v-2.53l2.27-.24V402l3-1.17v3.47l6-.66v2.53l-6,.66v3.29a3.66,3.66,0,0,0,.67,2.49,2.07,2.07,0,0,0,1.86.59,4.2,4.2,0,0,0,1.12-.27,4.82,4.82,0,0,0,.91-0.48,6.08,6.08,0,0,0,.73-0.59l0.61-.57,1.38,1.92a5.22,5.22,0,0,1-1,.95,9.6,9.6,0,0,1-1.26.81,8.88,8.88,0,0,1-1.41.6,7.08,7.08,0,0,1-1.45.32,4.51,4.51,0,0,1-3.87-1q-1.3-1.3-1.3-4.43v-3.29Z"/><path class="cls-4" d="M561,398.77l4.64-.53v5.89h0.09a4.59,4.59,0,0,1,1.47-1.34,5.43,5.43,0,0,1,2.16-.69,5.21,5.21,0,0,1,1.61,0,2.63,2.63,0,0,1,1.26.61,3.07,3.07,0,0,1,.83,1.34,6.93,6.93,0,0,1,.3,2.21v7.15l-3,.35v-6.53a2.59,2.59,0,0,0-.6-2,1.87,1.87,0,0,0-1.56-.44,2.9,2.9,0,0,0-1.56.7,3.29,3.29,0,0,0-1,1.44c0,2.93,0,4.4,0,7.34l-3,.34c0-5.43,0-8.14,0-13.57l-1.65.19v-2.53Z"/><path class="cls-4" d="M576.86,402.3a14.17,14.17,0,0,1,2.12-1,12.8,12.8,0,0,1,2.85-.65,6.12,6.12,0,0,1,2,0,2.9,2.9,0,0,1,1.35.65,2.63,2.63,0,0,1,.75,1.17,5.28,5.28,0,0,1,.23,1.63q0,1.17-.08,2T586,407.65a9.7,9.7,0,0,0,0,1.08c0,0.21.05,0.42,0.07,0.61l1.49-.19v2.53l-3.85.49-0.3-1.53h-0.11a4.52,4.52,0,0,1-3.58,2.19,3.51,3.51,0,0,1-2.71-.59,2.79,2.79,0,0,1-1-2.32,4,4,0,0,1,.35-1.71,3.54,3.54,0,0,1,1-1.27,5.6,5.6,0,0,1,1.62-.86,10,10,0,0,1,2.11-.48c0.27,0,.56-0.05.87-0.06l1.12,0a2.47,2.47,0,0,0,0-.47V404.6a1.3,1.3,0,0,0-.5-1.19,2.26,2.26,0,0,0-1.48-.19,7.39,7.39,0,0,0-2.09.56,15.34,15.34,0,0,0-1.57.79Zm3.9,8a3,3,0,0,0,1.63-.61,3.25,3.25,0,0,0,.79-1v-1.38l-0.68,0a7.84,7.84,0,0,0-1,.06,5,5,0,0,0-.86.19,3.24,3.24,0,0,0-.77.35,1.8,1.8,0,0,0-.54.52,1.2,1.2,0,0,0-.2.69,1.17,1.17,0,0,0,.37,1A1.62,1.62,0,0,0,580.76,410.26Z"/><path class="cls-4" d="M588.83,400l4-.52,0.34,1.47h0.09a5.52,5.52,0,0,1,1.51-1.49,5.31,5.31,0,0,1,2.36-.87,5.22,5.22,0,0,1,1.59,0,2.57,2.57,0,0,1,1.27.59,3.09,3.09,0,0,1,.84,1.32,6.64,6.64,0,0,1,.31,2.2v7.15l-3,.4v-6.53a2.46,2.46,0,0,0-.63-1.94,2,2,0,0,0-1.59-.41,3.17,3.17,0,0,0-2.5,2.05v7.45l-3,.39v-9l-1.65.21V400Z"/><path class="cls-4" d="M605.3,393.23l2.61-.36-0.82,7.38-1.79.25v-7.27Zm4.95-.69,2.61-.37L612,399.56l-1.79.25v-7.27Z"/><path class="cls-4" d="M114.46,456.27v-2.53l2.7,0.38v-6.44l-2.72-.39v-2.53l2.72,0.39v-0.64a3.91,3.91,0,0,1,.38-1.81,3,3,0,0,1,1-1.15A3.49,3.49,0,0,1,120,441a5.74,5.74,0,0,1,1.68,0,11.44,11.44,0,0,1,2.6.62,7.73,7.73,0,0,1,1.68.88l-0.87,2.16a12.07,12.07,0,0,0-1.13-.61,5.4,5.4,0,0,0-1.57-.42,2,2,0,0,0-1.73.32,2.24,2.24,0,0,0-.49,1.62l4.81,0.66v2.53l-4.81-.66v6.44l4.83,0.66v2.53C120.76,457.16,118.66,456.87,114.46,456.27Z"/><path class="cls-4" d="M134.13,447.46l4.26,0.55c0,3.2,0,4.8,0,8v1l1.74,0.22v2.53l-3.62-.46L136,457.5h-0.09a3.35,3.35,0,0,1-1.58,1.24A4.48,4.48,0,0,1,132,459a5.64,5.64,0,0,1-1.59-.44,3.44,3.44,0,0,1-1.23-.92,4.16,4.16,0,0,1-.78-1.53,8.22,8.22,0,0,1-.27-2.29c0-1.85,0-2.77,0-4.62L126.8,449c0-1,0-1.52,0-2.53l4.28,0.57c0,2.61,0,3.92,0,6.53a3.85,3.85,0,0,0,.45,2.08,1.88,1.88,0,0,0,1.41.81,2.31,2.31,0,0,0,2.47-1.42c0-2,0-2.94,0-4.9l-1.28-.17v-2.53Z"/><path class="cls-4" d="M142.31,443.91l4.88,0.61c0,4.25,0,6.38,0,10.63a5.28,5.28,0,0,0,.44,2.51,1.76,1.76,0,0,0,1.4.86,3.74,3.74,0,0,0,1.17,0,3.93,3.93,0,0,0,.92-0.31l1.12,2.21q-0.39.21-.78,0.38a4.45,4.45,0,0,1-.83.27,5.23,5.23,0,0,1-1,.11,7.5,7.5,0,0,1-1.16-.06,4.89,4.89,0,0,1-3.23-1.5,4.79,4.79,0,0,1-1.08-3.26c0-3.86,0-5.8,0-9.66l-1.9-.24v-2.53Z"/><path class="cls-4" d="M156.07,445.59l4.89,0.57c0,4.25,0,6.38,0,10.63a5.25,5.25,0,0,0,.44,2.51,1.75,1.75,0,0,0,1.4.85,3.75,3.75,0,0,0,1.17,0,4,4,0,0,0,.92-0.32L166,462q-0.39.21-.78,0.38a4.49,4.49,0,0,1-.83.27,5.25,5.25,0,0,1-1,.12,7.5,7.5,0,0,1-1.16-.05,4.85,4.85,0,0,1-3.23-1.48A4.76,4.76,0,0,1,158,458c0-3.86,0-5.8,0-9.66l-1.9-.22v-2.53Z"/><path class="cls-4" d="M169.63,465.93c4.08,0.45,6.12.67,10.19,1.09,0,1,0,1.48,0,2.46-4.08-.43-6.12-0.64-10.19-1.09C169.63,467.4,169.63,466.91,169.63,465.93Z"/><path class="cls-4" d="M181.89,453l4,0.41,0.34,1.55h0.09a4,4,0,0,1,1.52-1.14,4.54,4.54,0,0,1,2.37-.32,5.72,5.72,0,0,1,1.6.39,3.47,3.47,0,0,1,1.28.88,4.16,4.16,0,0,1,.84,1.52,7.29,7.29,0,0,1,.31,2.27c0,2.86,0,4.29,0,7.15l-3-.29c0-2.61,0-3.92,0-6.53a3,3,0,0,0-.63-2.09,2.42,2.42,0,0,0-1.6-.78,2.45,2.45,0,0,0-1.55.34,2.15,2.15,0,0,0-1,1.14c0,3,0,4.47,0,7.45l-3-.3c0-3.59,0-5.38,0-9l-1.65-.17V453Z"/><path class="cls-4" d="M197.46,455.36a11.67,11.67,0,0,1,2.13-.51,11.9,11.9,0,0,1,2.86,0,6.68,6.68,0,0,1,2,.47,3.84,3.84,0,0,1,1.36.94,3.48,3.48,0,0,1,.75,1.33,5.76,5.76,0,0,1,.23,1.68q0,1.17-.08,2c-0.05.55-.08,1-0.08,1.46a9.94,9.94,0,0,0,0,1.09c0,0.21.05,0.43,0.07,0.63l1.49,0.13v2.53l-3.86-.34-0.3-1.59H204a3.47,3.47,0,0,1-1.3,1.11,4.13,4.13,0,0,1-2.28.31,4.23,4.23,0,0,1-2.72-1.17,3.79,3.79,0,0,1-.65-4.17,2.6,2.6,0,0,1,1-1.05,4.47,4.47,0,0,1,1.62-.52,9.32,9.32,0,0,1,2.11,0q0.41,0,.87.13l1.12,0.19a2.31,2.31,0,0,0,0-.46V459a1.61,1.61,0,0,0-.5-1.3,2.63,2.63,0,0,0-1.48-.51,6.73,6.73,0,0,0-2.1.11,12.39,12.39,0,0,0-1.58.45Zm3.91,8.8a2.6,2.6,0,0,0,1.64-.25,2.37,2.37,0,0,0,.8-0.79v-1.38l-0.68-.17a8.11,8.11,0,0,0-1-.15,4.66,4.66,0,0,0-.86,0,2.66,2.66,0,0,0-.77.18,1.32,1.32,0,0,0-.55.4,1,1,0,0,0-.2.65,1.43,1.43,0,0,0,.37,1A1.91,1.91,0,0,0,201.38,464.16Z"/><path class="cls-4" d="M214.73,467.62c0-2.82,0-4.22,0-7a5.64,5.64,0,0,0-.09-1.12,2.33,2.33,0,0,0-.24-0.69,0.83,0.83,0,0,0-.37-0.35,1.35,1.35,0,0,0-.45-0.12,1.13,1.13,0,0,0-1.17.8c0,3.33,0,5,0,8.33l-2.76-.24c0-4.6,0-6.9,0-11.5l2.18,0.19,0.32,1.29h0.07a2.49,2.49,0,0,1,1-1,2.7,2.7,0,0,1,1.56-.29,3.25,3.25,0,0,1,1.45.49,2.19,2.19,0,0,1,.94,1.37,2.27,2.27,0,0,1,1.06-1.14,2.8,2.8,0,0,1,1.54-.3,3.55,3.55,0,0,1,1.12.26,2.21,2.21,0,0,1,.86.68,3.29,3.29,0,0,1,.56,1.23,8,8,0,0,1,.2,1.94v7.87l-2.76-.22c0-2.94,0-4.42,0-7.36a2.49,2.49,0,0,0-.33-1.48,1.11,1.11,0,0,0-.82-0.48,1.21,1.21,0,0,0-.71.14,0.92,0.92,0,0,0-.41.6c0,3.36,0,5,0,8.39Z"/><path class="cls-4" d="M235.27,468a3.73,3.73,0,0,1-.77.48,6.89,6.89,0,0,1-1.11.41,8.12,8.12,0,0,1-1.39.26,8.79,8.79,0,0,1-1.61,0,8.13,8.13,0,0,1-2.63-.61,5.75,5.75,0,0,1-3.2-3.37,7.37,7.37,0,0,1-.43-2.57,6.48,6.48,0,0,1,.48-2.62,4.77,4.77,0,0,1,1.32-1.79,5,5,0,0,1,2-1,7.43,7.43,0,0,1,2.44-.19,7.84,7.84,0,0,1,1.81.37,5.39,5.39,0,0,1,1.71.92,4.73,4.73,0,0,1,1.28,1.6,5.35,5.35,0,0,1,.49,2.43,10.69,10.69,0,0,1-.23,2.12l-8.28-.62a2.81,2.81,0,0,0,.31,1.27,2.74,2.74,0,0,0,.76.89,3.58,3.58,0,0,0,1.08.55,5.57,5.57,0,0,0,1.3.25,6.55,6.55,0,0,0,2.27-.15,4.39,4.39,0,0,0,1.44-.68Zm-5-8.58a3.7,3.7,0,0,0-1.13.08,2.89,2.89,0,0,0-1,.41,2.35,2.35,0,0,0-.7.73,2.27,2.27,0,0,0-.32,1l5.66,0.43A2.48,2.48,0,0,0,230.3,459.43Z"/><path class="cls-4" d="M474.68,470.19v-2.53l2.72-.18V461l-2.74.18v-2.53l2.74-.18v-0.64a4.4,4.4,0,0,1,.38-1.89,4.11,4.11,0,0,1,1-1.35,4.46,4.46,0,0,1,1.44-.84,6.19,6.19,0,0,1,1.69-.36,10.62,10.62,0,0,1,2.61.08,6.26,6.26,0,0,1,1.69.54l-0.87,2.34a9.7,9.7,0,0,0-1.14-.38,4.92,4.92,0,0,0-1.58-.1,2.38,2.38,0,0,0-1.74.68,2.64,2.64,0,0,0-.49,1.72l4.83-.33v2.53l-4.83.33v6.44l4.86-.33v2.53C481,469.78,478.91,469.92,474.68,470.19Z"/><path class="cls-4" d="M488.22,466.74l4-.3c0-2.58,0-3.86,0-6.44l-4,.3c0-1,0-1.52,0-2.53l7-.52v9l4.26-.33v2.53c-4.52.35-6.78,0.52-11.3,0.85v-2.53Zm3.5-12.35a1.75,1.75,0,0,1,.53-1.26,2.19,2.19,0,0,1,1.47-.62,2.12,2.12,0,0,1,1.54.39,1.44,1.44,0,0,1,.58,1.17,1.62,1.62,0,0,1-.58,1.25,2.52,2.52,0,0,1-1.54.59,2,2,0,0,1-1.47-.36A1.43,1.43,0,0,1,491.71,454.38Z"/><path class="cls-4" d="M501.56,465.73l2.85-.23v-6.44l-2.85.23v-2.53l5.17-.42,0.34,1.49h0.09a6.9,6.9,0,0,1,1.47-1.39,3.9,3.9,0,0,1,1.93-.67,2.4,2.4,0,0,1,2.17.83,5.25,5.25,0,0,1,.79,3.31l-2.69.23a2.2,2.2,0,0,0-.24-1.19,0.78,0.78,0,0,0-.77-0.31,2.46,2.46,0,0,0-1.48.58,5.27,5.27,0,0,0-1,1.14v4.9l5-.42v2.53c-4.33.37-6.5,0.55-10.83,0.9v-2.53Z"/><path class="cls-4" d="M523.7,463.18a0.74,0.74,0,0,0-.56-0.68,7.57,7.57,0,0,0-1.39-.38l-1.82-.31a7.55,7.55,0,0,1-1.82-.5,4,4,0,0,1-1.39-1,2.32,2.32,0,0,1-.56-1.64,3.07,3.07,0,0,1,.38-1.53,3.91,3.91,0,0,1,1-1.18,5.37,5.37,0,0,1,1.56-.82,8.37,8.37,0,0,1,2-.41,10.68,10.68,0,0,1,2,0,9.1,9.1,0,0,1,1.48.25,5,5,0,0,1,1.08.42l0.77,0.45L525.15,458q-0.35-.17-0.79-0.35a9.59,9.59,0,0,0-.94-0.32,6.91,6.91,0,0,0-1-.2,5,5,0,0,0-1.07,0,4.29,4.29,0,0,0-1.56.39,0.93,0.93,0,0,0-.6.84,0.69,0.69,0,0,0,.56.62,8.53,8.53,0,0,0,1.39.34l1.82,0.31a8.92,8.92,0,0,1,1.82.49,3.82,3.82,0,0,1,1.39.92,2.23,2.23,0,0,1,.56,1.6,3.65,3.65,0,0,1-1.28,2.87,6.52,6.52,0,0,1-3.78,1.35,8.66,8.66,0,0,1-3.41-.28,7.07,7.07,0,0,1-2.31-1.16l1.38-2.28a6.24,6.24,0,0,0,.79.49,6.53,6.53,0,0,0,1.12.46,8.83,8.83,0,0,0,1.32.31,5.7,5.7,0,0,0,1.39,0,3.09,3.09,0,0,0,1.26-.37A1,1,0,0,0,523.7,463.18Z"/><path class="cls-4" d="M530.92,456.7l-2.28.22v-2.53l2.28-.22c0-1,0-1.57,0-2.62l3-1.14v3.47l6-.6v2.53l-6,.6v3.29a3.69,3.69,0,0,0,.67,2.5,2.09,2.09,0,0,0,1.86.61,4.18,4.18,0,0,0,1.13-.26,4.76,4.76,0,0,0,.91-0.47,6,6,0,0,0,.74-0.58l0.61-.57,1.38,1.93a5.15,5.15,0,0,1-1,.94,9.48,9.48,0,0,1-1.26.8,8.8,8.8,0,0,1-1.41.59,7,7,0,0,1-1.45.31,4.55,4.55,0,0,1-3.87-1.06q-1.3-1.31-1.3-4.44V456.7Z"/><path class="cls-4" d="M543.83,467.07c4.08-.42,6.12-0.64,10.19-1.09v2.46c-4.08.45-6.12,0.67-10.19,1.09v-2.46Z"/><path class="cls-4" d="M556.09,451.56l4-.45,0.34,1.48h0.09a5.39,5.39,0,0,1,1.51-1.46,5.67,5.67,0,0,1,4-.78,2.63,2.63,0,0,1,1.27.61,3.16,3.16,0,0,1,.84,1.34,6.68,6.68,0,0,1,.31,2.21v7.15l-3,.35v-6.53a2.49,2.49,0,0,0-.63-2,2,2,0,0,0-1.59-.44,2.93,2.93,0,0,0-1.55.67,2.9,2.9,0,0,0-1,1.34v7.45l-3,.34v-9l-1.65.18v-2.53Z"/><path class="cls-4" d="M571.64,450.54a14.15,14.15,0,0,1,2.12-1,12.79,12.79,0,0,1,2.85-.65,6.13,6.13,0,0,1,2,0,2.91,2.91,0,0,1,1.35.65,2.63,2.63,0,0,1,.75,1.17,5.28,5.28,0,0,1,.23,1.63q0,1.17-.08,2t-0.08,1.48a9.73,9.73,0,0,0,0,1.08c0,0.21.05,0.42,0.07,0.61l1.49-.19v2.53l-3.85.48-0.3-1.53h-0.11a4.51,4.51,0,0,1-3.58,2.19,3.51,3.51,0,0,1-2.71-.59,2.79,2.79,0,0,1-1-2.32,4,4,0,0,1,.35-1.71,3.53,3.53,0,0,1,1-1.27,5.59,5.59,0,0,1,1.62-.86,10,10,0,0,1,2.11-.48c0.27,0,.56-0.05.87-0.06l1.12,0a2.47,2.47,0,0,0,0-.47v-0.44a1.3,1.3,0,0,0-.5-1.19,2.26,2.26,0,0,0-1.48-.2,7.39,7.39,0,0,0-2.09.55,15.34,15.34,0,0,0-1.57.79Zm3.9,8a3,3,0,0,0,1.63-.6,3.24,3.24,0,0,0,.79-1v-1.38l-0.68,0a7.84,7.84,0,0,0-1,.06,5,5,0,0,0-.86.19,3.24,3.24,0,0,0-.77.35,1.79,1.79,0,0,0-.54.51,1.2,1.2,0,0,0-.2.69,1.17,1.17,0,0,0,.37,1A1.62,1.62,0,0,0,575.55,458.51Z"/><path class="cls-4" d="M588.86,459.1v-7a5.36,5.36,0,0,0-.09-1.1,1.9,1.9,0,0,0-.24-0.64,0.61,0.61,0,0,0-.37-0.27,1.23,1.23,0,0,0-.45,0,1.33,1.33,0,0,0-.72.35,1.46,1.46,0,0,0-.45.7v8.33l-2.75.35v-11.5L586,448l0.32,1.22h0.07a3.39,3.39,0,0,1,1-1.22,3.17,3.17,0,0,1,1.56-.63,2.82,2.82,0,0,1,1.44.18,1.63,1.63,0,0,1,.94,1.16,3.1,3.1,0,0,1,1.05-1.37,3.31,3.31,0,0,1,1.53-.63,3.23,3.23,0,0,1,1.11,0,1.64,1.64,0,0,1,.86.49,2.57,2.57,0,0,1,.56,1.11,7.51,7.51,0,0,1,.19,1.89c0,3.15,0,4.72,0,7.87l-2.75.37v-7.36a2.16,2.16,0,0,0-.33-1.4,0.88,0.88,0,0,0-.81-0.31,1.43,1.43,0,0,0-.71.29,1.22,1.22,0,0,0-.41.69v8.39Z"/><path class="cls-4" d="M609.31,455.1a5,5,0,0,1-.77.65,8.78,8.78,0,0,1-1.1.65,9.61,9.61,0,0,1-1.38.56,9.43,9.43,0,0,1-1.6.36,7.45,7.45,0,0,1-2.62-.05,4.26,4.26,0,0,1-3.18-2.68,6.66,6.66,0,0,1-.42-2.48,7.28,7.28,0,0,1,.48-2.72,6.4,6.4,0,0,1,1.32-2.08,6.63,6.63,0,0,1,2-1.41,8.26,8.26,0,0,1,2.43-.72,7.3,7.3,0,0,1,1.8,0,4.26,4.26,0,0,1,1.71.55,3.46,3.46,0,0,1,1.27,1.33,4.72,4.72,0,0,1,.49,2.32,11.5,11.5,0,0,1-.23,2.17l-8.24,1.15a2.42,2.42,0,0,0,.31,1.2,2,2,0,0,0,.76.72,2.85,2.85,0,0,0,1.08.32,5.23,5.23,0,0,0,1.29,0,7.24,7.24,0,0,0,2.25-.64,5.74,5.74,0,0,0,1.43-1Zm-4.94-7.52a4.1,4.1,0,0,0-1.12.32,3.73,3.73,0,0,0-.95.61,3.2,3.2,0,0,0-.7.88,2.7,2.7,0,0,0-.32,1.1l5.63-.78a2.23,2.23,0,0,0-.63-1.73A2.26,2.26,0,0,0,604.36,447.59Z"/></svg>