<svg id="Layer_1" data-name="Layer 1" xmlns="http://www.w3.org/2000/svg" viewBox="0 0 720 576"><defs><style>.cls-1,.cls-2,.cls-4,.cls-6{fill:#231f20;}.cls-1,.cls-3{stroke:#231f20;}.cls-1,.cls-6{stroke-miterlimit:10;}.cls-1,.cls-2,.cls-3{stroke-width:2px;}.cls-2{stroke:#000;}.cls-2,.cls-3{stroke-linecap:round;stroke-linejoin:round;}.cls-3,.cls-5{fill:#fff;}.cls-6{stroke:#fff;}</style></defs><title>Hanoi_Tower_Set_5_Final</title><path class="cls-1" d="M687.7,506.49c0-.14,0-0.29,0-0.43s0-.29,0-0.43V453.84H41.9s-0.25,51.74-.25,52.22c0,2.67,2.32,5.24,6.64,7.71,15.13,8.61,55.2,16.11,111,21.48s127.37,8.59,205.39,8.59c89.16,0,169.88-4.21,228.32-11,29.22-3.41,52.87-7.46,69.23-12,8.18-2.25,14.54-4.62,18.86-7.08,3.69-2.1,5.91-4.29,6.48-6.55h0.11v-0.73Z"/><ellipse class="cls-2" cx="364.7" cy="454.92" rx="322.86" ry="37.63"/><path class="cls-3" d="M687.7,455c0-.14,0-0.29,0-0.43s0-.29,0-0.43V402.36H41.9s-0.25,51.74-.25,52.22c0,2.67,2.32,5.24,6.64,7.71,15.13,8.61,55.2,16.11,111,21.48s127.37,8.59,205.39,8.59c89.16,0,169.88-4.21,228.32-11,29.22-3.41,52.87-7.46,69.23-12,8.18-2.25,14.54-4.62,18.86-7.08,3.69-2.1,5.91-4.29,6.48-6.55h0.11V455Z"/><ellipse class="cls-3" cx="364.7" cy="403.44" rx="322.86" ry="37.63"/><path class="cls-3" d="M687.7,403.53c0-.14,0-0.29,0-0.43s0-.29,0-0.43V350.88H41.9s-0.25,51.74-.25,52.22c0,2.67,2.32,5.24,6.64,7.71,15.13,8.61,55.2,16.11,111,21.48s127.37,8.59,205.39,8.59c89.16,0,169.88-4.21,228.32-11,29.22-3.41,52.87-7.46,69.23-12,8.18-2.25,14.54-4.62,18.86-7.08,3.69-2.1,5.91-4.29,6.48-6.55h0.11v-0.73Z"/><ellipse class="cls-3" cx="364.7" cy="351.97" rx="322.86" ry="37.63"/><path class="cls-3" d="M687.7,352.06c0-.14,0-0.29,0-0.43s0-.29,0-0.43V299.4H41.9s-0.25,51.74-.25,52.22c0,2.67,2.32,5.24,6.64,7.71,15.13,8.61,55.2,16.11,111,21.48s127.37,8.59,205.39,8.59c89.16,0,169.88-4.21,228.32-11,29.22-3.41,52.87-7.46,69.23-12,8.18-2.25,14.54-4.62,18.86-7.08,3.69-2.1,5.91-4.29,6.48-6.55h0.11v-0.73Z"/><ellipse class="cls-3" cx="364.7" cy="300.49" rx="322.86" ry="37.63"/><path class="cls-4" d="M364.69,309.88c-16,0-29-3.75-30.2-8.61H334.4l0-.5V8.27H395v293h-0.12C393.66,306.14,380.67,309.88,364.69,309.88Z"/><path class="cls-5" d="M394.51,8.77v292h0c-0.49,4.78-13.63,8.61-29.79,8.61s-29.3-3.83-29.79-8.61h0v-0.21s0,0,0-.06,0,0,0-.06V8.77h59.63m1-1H333.89V300.39s0,0.07,0,.11v1.27h0.23c2,5.6,16.84,8.61,30.58,8.61s28.6-3,30.58-8.61h0.21l0-1V7.77h0Z"/><ellipse class="cls-6" cx="364.69" cy="8.89" rx="29.81" ry="8.89"/><path class="cls-4" d="M51.07,344.17l2.59,0.41V338.7l-2.59-.41V336l4.7,0.74,0.31,1.43h0.08a4.42,4.42,0,0,1,1.34-.95,3,3,0,0,1,1.75-.19,2.84,2.84,0,0,1,2,1.23,5.66,5.66,0,0,1,.72,3.2l-2.44-.37a2.33,2.33,0,0,0-.22-1.14,0.92,0.92,0,0,0-.7-0.45,1.86,1.86,0,0,0-1.35.21,3.38,3.38,0,0,0-.87.83V345l4.53,0.7V348c-3.93-.6-5.9-0.91-9.83-1.53v-2.31Z"/><path class="cls-4" d="M73.93,348.85a3,3,0,0,1-.7.39,5.78,5.78,0,0,1-1,.3,7.17,7.17,0,0,1-1.26.15,8.08,8.08,0,0,1-1.46-.09,7.76,7.76,0,0,1-2.39-.74,5.81,5.81,0,0,1-2.9-3.28,7,7,0,0,1-.39-2.38,5.72,5.72,0,0,1,.44-2.36,3.92,3.92,0,0,1,1.2-1.55,4.19,4.19,0,0,1,1.79-.77,6.64,6.64,0,0,1,2.21,0,7.46,7.46,0,0,1,1.64.45,5.37,5.37,0,0,1,1.56,1,4.8,4.8,0,0,1,1.16,1.54,5.13,5.13,0,0,1,.45,2.25,9.55,9.55,0,0,1-.21,1.92l-7.52-1.12a2.69,2.69,0,0,0,.28,1.18,2.8,2.8,0,0,0,.69.86,3.56,3.56,0,0,0,1,.58,5.32,5.32,0,0,0,1.18.31,5.86,5.86,0,0,0,2.06,0,3.67,3.67,0,0,0,1.31-.52Zm-4.51-8.16a3.33,3.33,0,0,0-1,0,2.45,2.45,0,0,0-.87.31,1.92,1.92,0,0,0-.64.62,2,2,0,0,0-.29.92l5.14,0.77a2.64,2.64,0,0,0-.57-1.74A2.68,2.68,0,0,0,69.42,340.69Z"/><path class="cls-4" d="M86.73,350.79a5.14,5.14,0,0,1-2,.69,8.53,8.53,0,0,1-2.4,0,7.44,7.44,0,0,1-2.41-.74,6,6,0,0,1-1.78-1.38,5.75,5.75,0,0,1-1.1-1.91,7,7,0,0,1-.38-2.32,5.49,5.49,0,0,1,.44-2.29,4,4,0,0,1,1.22-1.57,4.43,4.43,0,0,1,1.85-.82,6.86,6.86,0,0,1,2.32,0,9.25,9.25,0,0,1,2.2.58,11.86,11.86,0,0,1,1.57.75v3.7l-2.3-.32v-1.93a6.33,6.33,0,0,0-1.3-.33,3.76,3.76,0,0,0-1.16,0,2.34,2.34,0,0,0-1.76,1.29,3,3,0,0,0-.28,1.37,3.51,3.51,0,0,0,.23,1.27,3.54,3.54,0,0,0,1.68,1.89,4.11,4.11,0,0,0,1.37.44,4.65,4.65,0,0,0,2-.06,6.7,6.7,0,0,0,1.14-.43Z"/><path class="cls-4" d="M94.76,342.41l3.89,0.52v8.19l1.59,0.21v2.31l-3.31-.44-0.48-1.62H96.37a3,3,0,0,1-1.44,1.13,4.07,4.07,0,0,1-2.13.23,5.19,5.19,0,0,1-1.45-.41,3.16,3.16,0,0,1-1.12-.85,3.81,3.81,0,0,1-.71-1.4,7.52,7.52,0,0,1-.25-2.09V344l-1.19-.17v-2.31L92,342v6a3.53,3.53,0,0,0,.41,1.9,1.72,1.72,0,0,0,1.29.74,2.09,2.09,0,0,0,2.26-1.29v-4.47l-1.17-.16v-2.31Z"/><path class="cls-4" d="M101.22,351.47l2.59,0.34c0-2.35,0-3.53,0-5.88l-2.59-.34v-2.31l4.71,0.62,0.31,1.43h0.08a4.58,4.58,0,0,1,1.34-1,3.06,3.06,0,0,1,1.76-.24,2.76,2.76,0,0,1,2,1.18,5.55,5.55,0,0,1,.72,3.18l-2.45-.31a2.29,2.29,0,0,0-.22-1.13,0.9,0.9,0,0,0-.7-0.44,1.89,1.89,0,0,0-1.35.25,3.51,3.51,0,0,0-.87.85v4.47l4.54,0.58v2.31c-3.94-.5-5.92-0.76-9.86-1.28v-2.31Z"/><path class="cls-4" d="M122.5,360.94a10.89,10.89,0,0,1-2.85-1.27,10,10,0,0,1-2.45-2.17,10.47,10.47,0,0,1-1.71-3.07,11.64,11.64,0,0,1-.64-4,10.33,10.33,0,0,1,.64-3.81,7.76,7.76,0,0,1,1.71-2.67,7.15,7.15,0,0,1,2.45-1.61,9.42,9.42,0,0,1,2.85-.64L123,344a7.91,7.91,0,0,0-1.67.4,5.14,5.14,0,0,0-1.77,1.06,5.93,5.93,0,0,0-1.41,2,8,8,0,0,0-.58,3.29,8.32,8.32,0,0,0,.61,3.33,8.49,8.49,0,0,0,1.48,2.36,7.77,7.77,0,0,0,1.79,1.5,8.11,8.11,0,0,0,1.55.75Z"/><path class="cls-4" d="M127.76,354.81l3.21,0.38V346l-2.77,1.79L126.94,346l4.78-3.09,1.84,0.21c0,5,0,7.43,0,12.39l3.14,0.36v2.31l-8.95-1C127.76,356.19,127.76,355.73,127.76,354.81Z"/><path class="cls-4" d="M140.33,356.26l3.21,0.36c0-3.67,0-5.51,0-9.18l-2.77,1.81-1.26-1.82,4.78-3.12,1.85,0.2c0,5,0,7.43,0,12.39l3.15,0.34v2.31l-9-1v-2.31Z"/><path class="cls-4" d="M155.26,358.85a1.3,1.3,0,0,1,.47-1.08,1.58,1.58,0,0,1,1.19-.3,2.32,2.32,0,0,1,1.74.94,3.22,3.22,0,0,1,.59,1.93,3.74,3.74,0,0,1-.37,1.69,3.94,3.94,0,0,1-1,1.25,4.51,4.51,0,0,1-1.31.79,4.92,4.92,0,0,1-1.44.33l-0.57-1.22a5.61,5.61,0,0,0,1-.25,3.57,3.57,0,0,0,.93-0.48,2.78,2.78,0,0,0,.7-0.74,2,2,0,0,0,.33-1,2.68,2.68,0,0,1-1.07-.08,1.83,1.83,0,0,1-.72-0.41,1.57,1.57,0,0,1-.41-0.63A2.28,2.28,0,0,1,155.26,358.85Z"/><path class="cls-4" d="M165.5,358.94l3.21,0.32c0-3.67,0-5.51,0-9.18l-2.77,1.85-1.26-1.81,4.79-3.18,1.85,0.18c0,5,0,7.43,0,12.39l3.15,0.3c0,0.92,0,1.39,0,2.31l-9-.87v-2.31Z"/><path class="cls-4" d="M176.67,355a12.14,12.14,0,0,1,.4-3.31,6.2,6.2,0,0,1,1.13-2.28,4.1,4.1,0,0,1,1.74-1.26,5.05,5.05,0,0,1,2.26-.27,5.39,5.39,0,0,1,4.09,2.23,10,10,0,0,1,1.43,5.89,12.23,12.23,0,0,1-.4,3.33,6.33,6.33,0,0,1-1.13,2.29,4.06,4.06,0,0,1-1.75,1.27,5.1,5.1,0,0,1-2.27.27,5.25,5.25,0,0,1-4.09-2.34A10.36,10.36,0,0,1,176.67,355Zm2.73,0.26q0,0.31,0,.6c0,0.19,0,.38,0,0.58l5.08-4.22a2.64,2.64,0,0,0-2.35-2,2,2,0,0,0-2.05,1.1A8.17,8.17,0,0,0,179.4,355.21Zm5.59,0.51c0-.22,0-0.44,0-0.64s0-.4,0-0.6l-5.1,4.22a2.69,2.69,0,0,0,2.35,2.13,2,2,0,0,0,2.06-1.09A8.18,8.18,0,0,0,185,355.72Z"/><path class="cls-4" d="M191,365.79a6.66,6.66,0,0,0,1.55-.42,5.84,5.84,0,0,0,1.8-1.13,6.4,6.4,0,0,0,1.48-2,7.42,7.42,0,0,0,.61-3.2,8.9,8.9,0,0,0-.58-3.41,7.88,7.88,0,0,0-1.42-2.31,6.89,6.89,0,0,0-1.78-1.43,9.59,9.59,0,0,0-1.67-.74l0.5-2.2a11.36,11.36,0,0,1,2.86,1.23,9.62,9.62,0,0,1,2.46,2.12,10.19,10.19,0,0,1,1.71,3,11.39,11.39,0,0,1,.64,3.95,10.5,10.5,0,0,1-.64,3.85,8,8,0,0,1-1.71,2.71,7.39,7.39,0,0,1-2.46,1.66,9.09,9.09,0,0,1-2.86.68Z"/><path class="cls-4" d="M303.55,370.23v-2.31L306,368v-5.88l-2.51-.08c0-.92,0-1.39,0-2.31l2.51,0.07v-0.59a3.78,3.78,0,0,1,.35-1.69,3.27,3.27,0,0,1,.92-1.15,3.63,3.63,0,0,1,1.32-.65,5.39,5.39,0,0,1,1.55-.18,10,10,0,0,1,2.39.3,6.32,6.32,0,0,1,1.55.64l-0.8,2.06a10.05,10.05,0,0,0-1-.45,4.65,4.65,0,0,0-1.44-.23,2,2,0,0,0-1.59.47,2.23,2.23,0,0,0-.45,1.53L313.2,360v2.31l-4.42-.12v5.88l4.44,0.12c0,0.92,0,1.39,0,2.31Z"/><path class="cls-4" d="M316.59,360.8a11.39,11.39,0,0,1,1.95-.6,11,11,0,0,1,2.62-.21,5.88,5.88,0,0,1,1.86.3,3.21,3.21,0,0,1,1.24.77,2.92,2.92,0,0,1,.68,1.17,5.08,5.08,0,0,1,.21,1.52q0,1.07-.07,1.83T325,366.91a9,9,0,0,0,0,1c0,0.19,0,.39.06,0.57l1.37,0v2.31l-3.53-.07-0.28-1.43h-0.1a3.52,3.52,0,0,1-1.19,1.1,3.93,3.93,0,0,1-2.09.43,3.63,3.63,0,0,1-2.49-.9,2.94,2.94,0,0,1-.92-2.25,3.29,3.29,0,0,1,.32-1.52,2.63,2.63,0,0,1,.94-1,4.38,4.38,0,0,1,1.49-.57,8.68,8.68,0,0,1,1.94-.16c0.25,0,.52,0,0.8.06l1,0.11a2.08,2.08,0,0,0,0-.42v-0.4a1.37,1.37,0,0,0-.46-1.15,2.27,2.27,0,0,0-1.36-.38,6.31,6.31,0,0,0-1.92.23,12.13,12.13,0,0,0-1.44.51Zm3.58,7.79a2.49,2.49,0,0,0,1.5-.33,2.39,2.39,0,0,0,.73-0.77v-1.26l-0.62-.11a7.48,7.48,0,0,0-.9-0.07,4.32,4.32,0,0,0-.79.06,2.61,2.61,0,0,0-.71.21,1.36,1.36,0,0,0-.5.4,1,1,0,0,0-.19.6,1.22,1.22,0,0,0,.34.92A1.65,1.65,0,0,0,320.17,368.59Z"/><path class="cls-4" d="M338.83,370a5.93,5.93,0,0,1-2,.95,8.84,8.84,0,0,1-2.42.29,6.92,6.92,0,0,1-2.43-.44,5.07,5.07,0,0,1-1.79-1.15,4.88,4.88,0,0,1-1.11-1.77,6.57,6.57,0,0,1-.38-2.27,5.85,5.85,0,0,1,.44-2.34,4.82,4.82,0,0,1,1.23-1.72,5.21,5.21,0,0,1,1.86-1.05,7.18,7.18,0,0,1,2.34-.33,8.71,8.71,0,0,1,2.21.3,10.49,10.49,0,0,1,1.58.55v3.7l-2.32,0v-1.93a6,6,0,0,0-1.31-.17,3.93,3.93,0,0,0-1.17.16,2.81,2.81,0,0,0-1,.55,2.9,2.9,0,0,0-.74,1,3.18,3.18,0,0,0-.28,1.4,3.27,3.27,0,0,0,.23,1.24,3,3,0,0,0,.65,1,3,3,0,0,0,1,.68,3.8,3.8,0,0,0,1.38.26,4.89,4.89,0,0,0,2-.31,7.78,7.78,0,0,0,1.15-.57Z"/><path class="cls-4" d="M342.41,362.85l-2.08,0v-2.31l2.08,0v-2.39l2.74-.75v3.17l5.52,0v2.31l-5.52,0v3a3.64,3.64,0,0,0,.61,2.35,2.13,2.13,0,0,0,1.71.74,3.61,3.61,0,0,0,1-.13,3.9,3.9,0,0,0,.83-0.34A4.81,4.81,0,0,0,350,368l0.56-.46,1.26,1.9a4,4,0,0,1-.9.76,7.53,7.53,0,0,1-1.16.6,7.22,7.22,0,0,1-1.3.4,6.18,6.18,0,0,1-1.33.14A4.58,4.58,0,0,1,343.6,370a6.14,6.14,0,0,1-1.19-4.18v-3Z"/><path class="cls-4" d="M353.34,365.88a6.44,6.44,0,0,1,.4-2.35,4.77,4.77,0,0,1,1.14-1.74,4.84,4.84,0,0,1,1.76-1.07,6.74,6.74,0,0,1,2.29-.36,6.61,6.61,0,0,1,2.37.4,4.91,4.91,0,0,1,1.76,1.13,4.73,4.73,0,0,1,1.08,1.75,6.68,6.68,0,0,1,.37,2.27,6.46,6.46,0,0,1-.4,2.35,4.73,4.73,0,0,1-2.9,2.82,6.71,6.71,0,0,1-2.29.36,6.57,6.57,0,0,1-2.37-.41,4.91,4.91,0,0,1-1.76-1.13,4.76,4.76,0,0,1-1.08-1.76A6.69,6.69,0,0,1,353.34,365.88Zm2.82,0a4.16,4.16,0,0,0,.19,1.28,3.15,3.15,0,0,0,.55,1,2.47,2.47,0,0,0,.86.69,2.92,2.92,0,0,0,3.15-.53,3.38,3.38,0,0,0,.77-2.46,3.64,3.64,0,0,0-.72-2.34,2.48,2.48,0,0,0-2-.9,3.28,3.28,0,0,0-1.1.18,2.13,2.13,0,0,0-.87.58,2.79,2.79,0,0,0-.58,1A4.52,4.52,0,0,0,356.16,365.9Z"/><path class="cls-4" d="M366.06,368.85h2.61V363h-2.61v-2.31h4.74l0.32,1.38h0.08a5.58,5.58,0,0,1,1.35-1.16,3.34,3.34,0,0,1,1.77-.47,2.38,2.38,0,0,1,2,.91,5,5,0,0,1,.73,3.08h-2.46a2.11,2.11,0,0,0-.22-1.1,0.77,0.77,0,0,0-.71-0.34,2.09,2.09,0,0,0-1.36.43,4.27,4.27,0,0,0-.87,1v4.47l4.57,0c0,0.92,0,1.39,0,2.31-4,0-6,0-9.92,0v-2.31Z"/><path class="cls-4" d="M379.12,368.8l3.71,0v-5.88l-3.71,0v-2.31l6.45-.06c0,3.28,0,4.91,0,8.19l3.9,0V371c-4.14.05-6.21,0.07-10.34,0.1V368.8Zm3.2-11.07a1.49,1.49,0,0,1,.48-1.12,1.89,1.89,0,0,1,1.35-.47,2.05,2.05,0,0,1,1.41.45,1.41,1.41,0,0,1,.53,1.11,1.38,1.38,0,0,1-.53,1.11,2.18,2.18,0,0,1-1.41.44,1.94,1.94,0,0,1-1.35-.42A1.39,1.39,0,0,1,382.33,357.73Z"/><path class="cls-4" d="M392.42,361.19a11.76,11.76,0,0,1,1.95-.68,11.17,11.17,0,0,1,2.62-.31,5.79,5.79,0,0,1,1.86.23,3.06,3.06,0,0,1,1.24.72,2.77,2.77,0,0,1,.68,1.14,5,5,0,0,1,.21,1.51q0,1.07-.07,1.83T400.84,367a8.83,8.83,0,0,0,0,1c0,0.19,0,.38.06,0.57l1.37,0v2.31l-3.53.06-0.28-1.42h-0.1a3.72,3.72,0,0,1-1.19,1.14,4,4,0,0,1-2.09.51,3.51,3.51,0,0,1-2.49-.8,2.83,2.83,0,0,1-.92-2.21,3.36,3.36,0,0,1,.32-1.53,2.77,2.77,0,0,1,.94-1.06,4.56,4.56,0,0,1,1.49-.63,8.77,8.77,0,0,1,1.94-.23c0.25,0,.52,0,0.8,0l1,0.07a2.11,2.11,0,0,0,0-.42v-0.4a1.32,1.32,0,0,0-.46-1.14,2.22,2.22,0,0,0-1.36-.32,6.39,6.39,0,0,0-1.92.3,12.51,12.51,0,0,0-1.44.57Zm3.59,7.65a2.55,2.55,0,0,0,1.5-.39,2.53,2.53,0,0,0,.73-0.8v-1.26l-0.62-.08a7.35,7.35,0,0,0-.9,0,4.41,4.41,0,0,0-.79.09,2.66,2.66,0,0,0-.71.24,1.43,1.43,0,0,0-.5.42,1,1,0,0,0-.19.61,1.18,1.18,0,0,0,.34.91A1.6,1.6,0,0,0,396,368.84Z"/><path class="cls-4" d="M405,356.06l4.49-.1c0,3.88,0,5.82,0,9.7a4.43,4.43,0,0,0,.4,2.24,1.37,1.37,0,0,0,1.29.6,3.55,3.55,0,0,0,1.07-.16,4.17,4.17,0,0,0,.84-0.41l1,1.87q-0.36.24-.72,0.45a4.75,4.75,0,0,1-.76.35,5.31,5.31,0,0,1-.87.23,6.92,6.92,0,0,1-1.06.1,3.91,3.91,0,0,1-3-.94,3.83,3.83,0,0,1-1-2.84c0-3.53,0-5.29,0-8.82l-1.75,0v-2.31Z"/><path class="cls-4" d="M417.44,372.93l9.35-.27v2.25l-9.35.27v-2.25Z"/><path class="cls-4" d="M428.43,355.45l4.25-.14c0,2.15,0,3.22,0,5.37h0.08a3.74,3.74,0,0,1,1.35-1.12,4.68,4.68,0,0,1,2-.47,4.9,4.9,0,0,1,1.47.16,2.65,2.65,0,0,1,1.16.65,3.11,3.11,0,0,1,.76,1.28,6.52,6.52,0,0,1,.27,2c0,2.61,0,3.92,0,6.53l-2.74.1c0-2.39,0-3.58,0-6a2.53,2.53,0,0,0-.55-1.83,1.84,1.84,0,0,0-1.43-.52,2.47,2.47,0,0,0-1.43.52,2.7,2.7,0,0,0-.93,1.24c0,2.68,0,4,0,6.7l-2.74.09c0-5,0-7.44,0-12.39l-1.52,0C428.43,356.84,428.43,356.38,428.43,355.45Z"/><path class="cls-4" d="M452.3,368.14a4,4,0,0,1-.7.52,7.16,7.16,0,0,1-1,.5,8.13,8.13,0,0,1-1.27.39,8.35,8.35,0,0,1-1.47.19,7,7,0,0,1-2.41-.28,4.46,4.46,0,0,1-2.93-2.73,7,7,0,0,1,.05-4.75,5.13,5.13,0,0,1,1.21-1.78,5.33,5.33,0,0,1,1.8-1.11,7.12,7.12,0,0,1,2.23-.44,6.82,6.82,0,0,1,1.65.14,4.3,4.3,0,0,1,1.57.66,3.65,3.65,0,0,1,1.17,1.32,4.55,4.55,0,0,1,.45,2.17,10.15,10.15,0,0,1-.21,2l-7.58.32a2.35,2.35,0,0,0,.28,1.12,2.12,2.12,0,0,0,.7.73,2.86,2.86,0,0,0,1,.39,4.92,4.92,0,0,0,1.19.09,6.25,6.25,0,0,0,2.07-.38,4.63,4.63,0,0,0,1.32-.77Zm-4.55-7.3a3.55,3.55,0,0,0-1,.19,3,3,0,0,0-.87.47,2.55,2.55,0,0,0-.64.74,2.29,2.29,0,0,0-.29,1l5.18-.21A2,2,0,0,0,447.76,360.83Z"/><path class="cls-4" d="M455.52,354.41l4.48-.21c0,3.88,0,5.82,0,9.7a4.38,4.38,0,0,0,.4,2.23,1.34,1.34,0,0,0,1.28.57,3.59,3.59,0,0,0,1.07-.19,4.26,4.26,0,0,0,.84-0.43l1,1.84c-0.24.17-.48,0.32-0.72,0.47a4.91,4.91,0,0,1-.76.37,5.45,5.45,0,0,1-.87.25,7,7,0,0,1-1.06.13,3.82,3.82,0,0,1-3-.87,3.75,3.75,0,0,1-1-2.81c0-3.53,0-5.29,0-8.82l-1.75.08C455.52,355.79,455.52,355.33,455.52,354.41Z"/><path class="cls-4" d="M466.32,358.09l3.58-.18,0.32,1.24h0.08a4.27,4.27,0,0,1,3.54-1.74,4.92,4.92,0,0,1,1.78.21,3.22,3.22,0,0,1,1.39.88,4.19,4.19,0,0,1,.89,1.59,7.68,7.68,0,0,1,.32,2.36,7.89,7.89,0,0,1-.36,2.45,5.53,5.53,0,0,1-1,1.9,4.76,4.76,0,0,1-1.64,1.25,5.92,5.92,0,0,1-2.21.52,8.49,8.49,0,0,1-1.28,0,3.38,3.38,0,0,1-1.05-.25c0,1.72,0,2.58,0,4.31l-2.74.14c0-5,0-7.44,0-12.39l-1.58.08v-2.31Zm6.69,1.66a2.91,2.91,0,0,0-1.46.48,2.23,2.23,0,0,0-.92,1.25v4.37a2.13,2.13,0,0,0,.85.32,4.63,4.63,0,0,0,1.13.08,3,3,0,0,0,1.09-.26,2.4,2.4,0,0,0,.88-0.69,3.31,3.31,0,0,0,.59-1.15,5.59,5.59,0,0,0,.21-1.63,3,3,0,0,0-.67-2.1A2.07,2.07,0,0,0,473,359.75Z"/><path class="cls-4" d="M490.18,366.12a4.09,4.09,0,0,1-.7.54,7.38,7.38,0,0,1-1,.51,8.25,8.25,0,0,1-1.27.41,8.4,8.4,0,0,1-1.47.22,7,7,0,0,1-2.41-.23,4.34,4.34,0,0,1-2.92-2.67,6.29,6.29,0,0,1-.39-2.3,6.36,6.36,0,0,1,.44-2.45,5.26,5.26,0,0,1,1.21-1.8,5.46,5.46,0,0,1,1.8-1.15,7.2,7.2,0,0,1,2.23-.48,6.8,6.8,0,0,1,1.65.11,4.21,4.21,0,0,1,1.57.63,3.54,3.54,0,0,1,1.17,1.3,4.5,4.5,0,0,1,.45,2.16,10.21,10.21,0,0,1-.21,2l-7.57.46a2.32,2.32,0,0,0,.28,1.12,2.06,2.06,0,0,0,.69.71,2.8,2.8,0,0,0,1,.37,4.89,4.89,0,0,0,1.19.07,6.33,6.33,0,0,0,2.07-.42,4.73,4.73,0,0,0,1.31-.8Zm-4.54-7.22a3.59,3.59,0,0,0-1,.21,3.11,3.11,0,0,0-.87.49,2.63,2.63,0,0,0-.64.75,2.33,2.33,0,0,0-.29,1L488,361A1.94,1.94,0,0,0,485.64,358.9Z"/><path class="cls-4" d="M492.39,364.79l2.61-.17v-5.88l-2.61.17c0-.92,0-1.39,0-2.31l4.73-.31,0.32,1.36h0.08a6.12,6.12,0,0,1,1.35-1.24,3.5,3.5,0,0,1,1.77-.58,2.23,2.23,0,0,1,2,.79,4.83,4.83,0,0,1,.73,3l-2.46.17a2,2,0,0,0-.22-1.09,0.72,0.72,0,0,0-.7-0.3,2.21,2.21,0,0,0-1.36.51,4.68,4.68,0,0,0-.87,1v4.47l4.56-.31v2.31l-9.9.66v-2.31Z"/><path class="cls-4" d="M513.75,370.07a9.17,9.17,0,0,1-2.86-.71,7.54,7.54,0,0,1-2.46-1.69,8.08,8.08,0,0,1-1.71-2.73,10.55,10.55,0,0,1-.64-3.86,11.33,11.33,0,0,1,.64-3.94,10,10,0,0,1,1.71-3,9.48,9.48,0,0,1,2.46-2.09,11.21,11.21,0,0,1,2.86-1.2l0.5,2.21a9.48,9.48,0,0,0-1.67.72,6.77,6.77,0,0,0-1.78,1.41,7.74,7.74,0,0,0-1.42,2.3,8.85,8.85,0,0,0-.58,3.4,7.46,7.46,0,0,0,.61,3.21,6.5,6.5,0,0,0,1.48,2.07,5.94,5.94,0,0,0,1.8,1.15,6.76,6.76,0,0,0,1.56.44Z"/><path class="cls-4" d="M519,362.91l3.22-.25v-9.18l-2.77,2.34-1.26-1.58,4.79-4,1.85-.15v12.39l3.15-.26c0,0.92,0,1.39,0,2.31l-9,.71C519,364.29,519,363.83,519,362.91Z"/><path class="cls-4" d="M530.54,354.19a5.42,5.42,0,0,1,.37-2,5,5,0,0,1,1-1.63,5.38,5.38,0,0,1,1.6-1.14,6,6,0,0,1,2.09-.54,6,6,0,0,1,2.14.17,4,4,0,0,1,1.66.92,4.24,4.24,0,0,1,1.07,1.65,6.67,6.67,0,0,1,.38,2.35,13,13,0,0,1-.63,4.26,9.72,9.72,0,0,1-1.69,3.09,8.27,8.27,0,0,1-2.47,2,10.45,10.45,0,0,1-2.94,1l-0.59-2.09a7.85,7.85,0,0,0,2.09-.74,7.07,7.07,0,0,0,1.63-1.18,6.17,6.17,0,0,0,1.13-1.51,5.17,5.17,0,0,0,.57-1.74,3.56,3.56,0,0,1-1.14.8,4.92,4.92,0,0,1-1.66.41h0a4.92,4.92,0,0,1-1.62-.14,4,4,0,0,1-1.48-.72,3.91,3.91,0,0,1-1.08-1.33A4.2,4.2,0,0,1,530.54,354.19Zm2.65-.37a2.22,2.22,0,0,0,.22,1,2.05,2.05,0,0,0,.58.71,2.23,2.23,0,0,0,.83.39,3,3,0,0,0,1,.07,3.93,3.93,0,0,0,1.49-.4,2.49,2.49,0,0,0,.92-0.75,6.06,6.06,0,0,0,.06-0.85,3.9,3.9,0,0,0-.17-1.14,2.8,2.8,0,0,0-.5-1,2.2,2.2,0,0,0-.84-0.63,2.36,2.36,0,0,0-1.15-.16A2.57,2.57,0,0,0,533.19,353.82Z"/><path class="cls-4" d="M543.65,365.62l9.32-.86V367l-9.32.86v-2.25Z"/><path class="cls-4" d="M555.75,351.94a5.46,5.46,0,0,1,.37-2,5.07,5.07,0,0,1,1-1.64,5.47,5.47,0,0,1,1.6-1.16,6.06,6.06,0,0,1,2.09-.57,5.94,5.94,0,0,1,2.14.15,3.94,3.94,0,0,1,1.66.9,4.16,4.16,0,0,1,1.07,1.63,6.64,6.64,0,0,1,.38,2.35,13.1,13.1,0,0,1-.63,4.26,9.88,9.88,0,0,1-1.69,3.11,8.42,8.42,0,0,1-2.47,2.05,10.56,10.56,0,0,1-2.94,1.09L557.76,360a7.9,7.9,0,0,0,2.09-.77,7.2,7.2,0,0,0,1.63-1.2,6.29,6.29,0,0,0,1.13-1.52,5.23,5.23,0,0,0,.57-1.75,3.6,3.6,0,0,1-1.13.82,4.94,4.94,0,0,1-1.66.43h0a4.89,4.89,0,0,1-1.62-.12,3.89,3.89,0,0,1-1.48-.7,3.84,3.84,0,0,1-1.08-1.31A4.18,4.18,0,0,1,555.75,351.94Zm2.65-.4a2.21,2.21,0,0,0,.22,1,2,2,0,0,0,.58.7,2.19,2.19,0,0,0,.83.38,3,3,0,0,0,1,.06,4,4,0,0,0,1.49-.42,2.53,2.53,0,0,0,.92-0.76,6.08,6.08,0,0,0,.06-0.85,3.89,3.89,0,0,0-.17-1.14,2.75,2.75,0,0,0-.5-1A2.16,2.16,0,0,0,562,349a2.34,2.34,0,0,0-1.15-.15A2.61,2.61,0,0,0,558.39,351.54Z"/><path class="cls-4" d="M572.18,358.28a4.88,4.88,0,0,0,1.28-.3,3.61,3.61,0,0,0,1-.59,2.6,2.6,0,0,0,.67-0.85,2.39,2.39,0,0,0,.24-1.08,1.89,1.89,0,0,0-.91-1.72,4.4,4.4,0,0,0-2.74-.38l-0.53.07-0.58.09-0.65.09c0-3.08,0-4.61,0-7.69l7.59-.8v2.56l-5.24.55v2.83l0.34-.06,0.28,0,0.24,0a5.9,5.9,0,0,1,2,.1,3.88,3.88,0,0,1,1.57.75,3.56,3.56,0,0,1,1,1.37,4.64,4.64,0,0,1,.37,1.88,5.18,5.18,0,0,1-.46,2.22,5.27,5.27,0,0,1-1.26,1.7,6.45,6.45,0,0,1-1.85,1.15,8,8,0,0,1-2.24.56,5.41,5.41,0,0,1-1,0q-0.53,0-1-.12a8.28,8.28,0,0,1-.93-0.21c-0.29-.08-0.53-0.16-0.72-0.24l0.88-2.27a5.67,5.67,0,0,0,1.1.35A4.68,4.68,0,0,0,572.18,358.28Z"/><path class="cls-4" d="M581.05,355.87a3.83,3.83,0,0,1,.24-1.37,4.77,4.77,0,0,1,.63-1.16,6.2,6.2,0,0,1,.89-1,10,10,0,0,1,1-.8,5.52,5.52,0,0,1-1.74-1.25,2.86,2.86,0,0,1-.69-2,3.62,3.62,0,0,1,.36-1.57,4.39,4.39,0,0,1,1-1.35,5.49,5.49,0,0,1,1.52-1,6.44,6.44,0,0,1,1.91-.5A5.91,5.91,0,0,1,588,344a4.26,4.26,0,0,1,1.46.55,2.85,2.85,0,0,1,1,1,2.79,2.79,0,0,1,.36,1.42,4,4,0,0,1-.64,2.24,6.64,6.64,0,0,1-1.75,1.79,5.53,5.53,0,0,1,2,1.31,3.08,3.08,0,0,1,.74,2.18,3.86,3.86,0,0,1-.41,1.76,4.86,4.86,0,0,1-1.1,1.44,6,6,0,0,1-1.63,1,6.75,6.75,0,0,1-2,.53,6.27,6.27,0,0,1-2-.07,4.59,4.59,0,0,1-1.57-.62A3,3,0,0,1,581.05,355.87Zm7.47-1.18a1.37,1.37,0,0,0-.27-0.87,2.52,2.52,0,0,0-.68-0.6,5.5,5.5,0,0,0-.9-0.43l-1-.39a4.78,4.78,0,0,0-1.61,1.37,2.53,2.53,0,0,0-.57,1.44,1.54,1.54,0,0,0,.67,1.39,2.8,2.8,0,0,0,1.87.31,3.26,3.26,0,0,0,1.76-.69A1.87,1.87,0,0,0,588.52,354.68ZM584,348.15a1.44,1.44,0,0,0,.22.83,2,2,0,0,0,.57.55,3.9,3.9,0,0,0,.79.39l0.88,0.32a4.76,4.76,0,0,0,.66-0.49,4.25,4.25,0,0,0,.58-0.62,3.6,3.6,0,0,0,.41-0.68,1.61,1.61,0,0,0,.16-0.68,1.39,1.39,0,0,0-.19-0.74,1.6,1.6,0,0,0-.49-0.5,1.92,1.92,0,0,0-.68-0.27,2.66,2.66,0,0,0-1.63.21,2.79,2.79,0,0,0-.67.45,1.93,1.93,0,0,0-.44.59A1.5,1.5,0,0,0,584,348.15Z"/><path class="cls-4" d="M594,360.47l9.3-1.09v2.25L594,362.71C594,361.82,594,361.37,594,360.47Z"/><path class="cls-4" d="M617,351.13l-2.51.32c0,1.64,0,2.46,0,4.1l-2.53.32v-4.1l-6.35.78v-1.87l6.64-9.65,2.24-.28c0,3.41,0,5.11,0,8.52l2.51-.32v2.18Zm-5-6.21L608.34,350l3.64-.45C612,347.71,612,346.78,612,344.91Z"/><path class="cls-4" d="M618.31,347.69a13.18,13.18,0,0,1,.4-3.4,8,8,0,0,1,1.12-2.53,5.64,5.64,0,0,1,1.73-1.64,5.78,5.78,0,0,1,2.25-.76,4.28,4.28,0,0,1,4.08,1.32q1.43,1.67,1.43,5.57a13.25,13.25,0,0,1-.4,3.42,8.16,8.16,0,0,1-1.12,2.54,5.58,5.58,0,0,1-1.74,1.66,5.84,5.84,0,0,1-2.26.77,4.14,4.14,0,0,1-4.08-1.44Q618.31,351.43,618.31,347.69Zm2.72-.35q0,0.31,0,.6c0,0.19,0,.38,0,0.57l5.07-5.34a2,2,0,0,0-2.35-1.5,2.64,2.64,0,0,0-2,1.56A9.23,9.23,0,0,0,621,347.34Zm5.57-.73q0-.34,0-0.64c0-.2,0-0.4,0-0.59l-5.09,5.35a2,2,0,0,0,2.35,1.61,2.67,2.67,0,0,0,2.06-1.55A9.25,9.25,0,0,0,626.6,346.61Z"/><path class="cls-4" d="M630.87,346a13.22,13.22,0,0,1,.4-3.4,8,8,0,0,1,1.12-2.53,5.68,5.68,0,0,1,1.73-1.65,5.81,5.81,0,0,1,2.25-.78,4.25,4.25,0,0,1,4.07,1.3q1.43,1.66,1.43,5.56a13.3,13.3,0,0,1-.4,3.43,8.23,8.23,0,0,1-1.12,2.55,5.63,5.63,0,0,1-1.74,1.67,5.87,5.87,0,0,1-2.26.78,4.11,4.11,0,0,1-4.07-1.41Q630.87,349.79,630.87,346Zm2.72-.37q0,0.31,0,.6c0,0.19,0,.38,0,0.57l5.06-5.37a2,2,0,0,0-2.34-1.48,2.66,2.66,0,0,0-2,1.57A9.28,9.28,0,0,0,633.59,345.68Zm5.56-.76q0-.34,0-0.64c0-.2,0-0.4,0-0.59L634,349.06a2,2,0,0,0,2.34,1.59,2.69,2.69,0,0,0,2.05-1.56A9.29,9.29,0,0,0,639.15,344.92Z"/><path class="cls-4" d="M647.18,349.82a1.66,1.66,0,0,1,.47-1.2,2,2,0,0,1,1.18-.59,1.81,1.81,0,0,1,1.74.51,2.62,2.62,0,0,1,.59,1.78,4.35,4.35,0,0,1-.37,1.78,5.55,5.55,0,0,1-1,1.48,6.37,6.37,0,0,1-1.31,1.11,6.14,6.14,0,0,1-1.43.69l-0.56-1.08a7.11,7.11,0,0,0,1-.5,5,5,0,0,0,.93-0.71,4,4,0,0,0,.7-0.91,2.53,2.53,0,0,0,.32-1.05,2.75,2.75,0,0,1-1.07.18,1.39,1.39,0,0,1-.72-0.23,1.13,1.13,0,0,1-.41-0.53A2,2,0,0,1,647.18,349.82Z"/><path class="cls-4" d="M666.09,348.38l-9.32,1.39c0-.81,0-1.22,0-2l0.63-.65,0.85-.91q0.47-.51,1-1.11t1-1.25q0.71-.9,1.24-1.63a12.75,12.75,0,0,0,.88-1.36,6,6,0,0,0,.51-1.21,4.23,4.23,0,0,0,.17-1.17,1.72,1.72,0,0,0-.19-0.79,1.79,1.79,0,0,0-.52-0.63,2.08,2.08,0,0,0-.8-0.36,2.77,2.77,0,0,0-1,0,4.3,4.3,0,0,0-1.37.44,5.72,5.72,0,0,0-1.29,1l-1.09-1.77a11.23,11.23,0,0,1,2-1.35,7.38,7.38,0,0,1,2.48-.8,5.72,5.72,0,0,1,1.72,0,3.83,3.83,0,0,1,1.46.53,2.9,2.9,0,0,1,1,1.07,3.34,3.34,0,0,1,.38,1.64,6.71,6.71,0,0,1-.11,1.27,6.94,6.94,0,0,1-.36,1.21,9.52,9.52,0,0,1-.63,1.28q-0.39.67-.93,1.46-0.42.61-.91,1.24t-1,1.21q-0.48.58-1,1.09t-0.85.86l6-.91v2.31Z"/><path class="cls-4" d="M670.21,349.91a8.37,8.37,0,0,0,1.55-.8,8.16,8.16,0,0,0,1.78-1.56,8.89,8.89,0,0,0,1.47-2.4,8.49,8.49,0,0,0,.61-3.35,7.91,7.91,0,0,0-.57-3.27,5.69,5.69,0,0,0-1.41-2,4.91,4.91,0,0,0-1.76-1,7.71,7.71,0,0,0-1.66-.34l0.5-2.32a9.19,9.19,0,0,1,2.84.55A6.82,6.82,0,0,1,676,335a7.43,7.43,0,0,1,1.7,2.62,10.2,10.2,0,0,1,.64,3.79,11.85,11.85,0,0,1-.64,4,10.92,10.92,0,0,1-1.7,3.13,10.43,10.43,0,0,1-2.44,2.25,11.28,11.28,0,0,1-2.84,1.36Z"/><path class="cls-4" d="M56.08,399.81v-2.53l2.7,0.43v-6.44l-2.72-.43c0-1,0-1.52,0-2.53l2.72,0.43V388.1a3.87,3.87,0,0,1,.38-1.8,3,3,0,0,1,1-1.13,3.42,3.42,0,0,1,1.43-.52,5.73,5.73,0,0,1,1.68,0,11.55,11.55,0,0,1,2.6.66,7.87,7.87,0,0,1,1.68.91l-0.87,2.15a12.29,12.29,0,0,0-1.13-.63,5.47,5.47,0,0,0-1.57-.45,2,2,0,0,0-1.73.3,2.21,2.21,0,0,0-.49,1.61l4.8,0.74v2.53l-4.8-.74v6.44l4.82,0.74v2.53C62.37,400.81,60.27,400.48,56.08,399.81Z"/><path class="cls-4" d="M70.23,391.29a11.18,11.18,0,0,1,2.12-.4,11.83,11.83,0,0,1,2.85.13,6.91,6.91,0,0,1,2,.59,4.14,4.14,0,0,1,1.35,1,3.74,3.74,0,0,1,.74,1.37,5.91,5.91,0,0,1,.23,1.69q0,1.17-.08,2c-0.05.54-.08,1-0.08,1.46a10.07,10.07,0,0,0,0,1.09c0,0.21.05,0.43,0.07,0.63L81,401.07v2.53L77.14,403l-0.3-1.61-0.11,0a3.19,3.19,0,0,1-1.3,1,4,4,0,0,1-2.27.18,4.47,4.47,0,0,1-2.71-1.33,3.66,3.66,0,0,1-1-2.59,3.35,3.35,0,0,1,.35-1.61,2.39,2.39,0,0,1,1-1,4.24,4.24,0,0,1,1.61-.42,9.24,9.24,0,0,1,2.1.09q0.41,0.06.86,0.17l1.11,0.26a2.28,2.28,0,0,0,0-.45v-0.44a1.7,1.7,0,0,0-.5-1.33,2.76,2.76,0,0,0-1.48-.6,6.65,6.65,0,0,0-2.09,0,11.76,11.76,0,0,0-1.57.36Zm3.89,9a2.52,2.52,0,0,0,1.63-.16,2.18,2.18,0,0,0,.79-0.75V398l-0.68-.2a8.19,8.19,0,0,0-1-.2,4.63,4.63,0,0,0-.86,0,2.59,2.59,0,0,0-.77.14,1.22,1.22,0,0,0-.54.37,1,1,0,0,0-.2.64,1.51,1.51,0,0,0,.37,1.06A2,2,0,0,0,74.12,400.31Z"/><path class="cls-4" d="M94.4,404.4a5.66,5.66,0,0,1-2.2.76,9.34,9.34,0,0,1-2.63,0,8.16,8.16,0,0,1-2.65-.81A6.55,6.55,0,0,1,85,402.83a6.3,6.3,0,0,1-1.2-2.09,7.69,7.69,0,0,1-.41-2.54,6,6,0,0,1,.48-2.51A4.43,4.43,0,0,1,85.19,394a4.87,4.87,0,0,1,2-.9,7.51,7.51,0,0,1,2.54,0,10.15,10.15,0,0,1,2.4.64,13,13,0,0,1,1.72.81v4l-2.52-.35v-2.12a6.9,6.9,0,0,0-1.42-.36,4.14,4.14,0,0,0-1.27,0,2.57,2.57,0,0,0-1.92,1.42,3.25,3.25,0,0,0-.31,1.5,3.85,3.85,0,0,0,.25,1.39,3.85,3.85,0,0,0,1.84,2.07,4.48,4.48,0,0,0,1.5.48,5.09,5.09,0,0,0,2.14-.07,7.33,7.33,0,0,0,1.25-.47Z"/><path class="cls-4" d="M98.3,397.06L96,396.75c0-1,0-1.52,0-2.53l2.27,0.31c0-1,0-1.57,0-2.62l3-.45v3.47l6,0.8c0,1,0,1.52,0,2.53l-6-.8v3.29a4.38,4.38,0,0,0,.66,2.65,2.66,2.66,0,0,0,1.86,1,3.82,3.82,0,0,0,1.12,0,3.74,3.74,0,0,0,.91-0.26,4.34,4.34,0,0,0,.73-0.41l0.61-.43,1.38,2.25a3.66,3.66,0,0,1-1,.71,7.14,7.14,0,0,1-1.26.5,7.24,7.24,0,0,1-1.41.26,6.59,6.59,0,0,1-1.44,0,5.68,5.68,0,0,1-3.86-2,7.45,7.45,0,0,1-1.29-4.74v-3.29Z"/><path class="cls-4" d="M110.19,401.87a6.65,6.65,0,0,1,.44-2.52,4.43,4.43,0,0,1,1.24-1.75,4.52,4.52,0,0,1,1.91-.94,7,7,0,0,1,2.49-.08,7.78,7.78,0,0,1,2.58.76,6.34,6.34,0,0,1,1.92,1.47,6.07,6.07,0,0,1,1.18,2.07,7.8,7.8,0,0,1,.4,2.53,6.68,6.68,0,0,1-.44,2.52,4.45,4.45,0,0,1-1.24,1.76,4.51,4.51,0,0,1-1.91.94,7,7,0,0,1-2.49.09,7.76,7.76,0,0,1-2.58-.77,6.36,6.36,0,0,1-1.92-1.48,6.12,6.12,0,0,1-1.18-2.07A7.82,7.82,0,0,1,110.19,401.87Zm3.07,0.4a4.85,4.85,0,0,0,.21,1.43,4,4,0,0,0,.6,1.2,3.25,3.25,0,0,0,.94.87,3.16,3.16,0,0,0,1.26.43,2.61,2.61,0,0,0,2.17-.58,3.34,3.34,0,0,0,.84-2.59,4.42,4.42,0,0,0-.78-2.66,3.09,3.09,0,0,0-2.23-1.26,3.41,3.41,0,0,0-1.19,0,2,2,0,0,0-1,.51,2.62,2.62,0,0,0-.63,1A4.71,4.71,0,0,0,113.27,402.26Z"/><path class="cls-4" d="M124,406.84l2.85,0.35c0-2.58,0-3.86,0-6.44L124,400.4c0-1,0-1.52,0-2.53l5.16,0.63,0.34,1.56h0.09a5.11,5.11,0,0,1,1.47-1.09,3.39,3.39,0,0,1,1.93-.28,3,3,0,0,1,2.17,1.27,6,6,0,0,1,.79,3.47l-2.69-.32a2.49,2.49,0,0,0-.24-1.24,1,1,0,0,0-.77-0.47,2.08,2.08,0,0,0-1.48.28,3.9,3.9,0,0,0-1,.94v4.9l5,0.59c0,1,0,1.52,0,2.53-4.32-.51-6.49-0.77-10.81-1.3C124,408.36,124,407.85,124,406.84Z"/><path class="cls-4" d="M138.27,408.54l4,0.46c0-2.58,0-3.86,0-6.44l-4-.46c0-1,0-1.52,0-2.53l7,0.8c0,3.59,0,5.38,0,9l4.25,0.47c0,1,0,1.52,0,2.53-4.51-.49-6.77-0.75-11.27-1.27C138.27,410.05,138.27,409.55,138.27,408.54Zm3.49-11.7a1.45,1.45,0,0,1,.53-1.16,1.86,1.86,0,0,1,1.47-.34,2.5,2.5,0,0,1,1.54.68,1.77,1.77,0,0,1,.57,1.28,1.32,1.32,0,0,1-.57,1.14,2.17,2.17,0,0,1-1.54.3,2.37,2.37,0,0,1-1.47-.64A1.73,1.73,0,0,1,141.76,396.84Z"/><path class="cls-4" d="M152.76,402a11.57,11.57,0,0,1,2.13-.48,11.87,11.87,0,0,1,2.86,0,6.73,6.73,0,0,1,2,.5,3.91,3.91,0,0,1,1.36,1,3.55,3.55,0,0,1,.75,1.34,5.79,5.79,0,0,1,.23,1.68c0,0.78,0,1.45-.08,2s-0.08,1-.08,1.46a9.93,9.93,0,0,0,0,1.09c0,0.21.05,0.43,0.07,0.63l1.49,0.15v2.53l-3.86-.4-0.3-1.6h-0.11a3.4,3.4,0,0,1-1.3,1.09,4.11,4.11,0,0,1-2.28.28A4.29,4.29,0,0,1,153,412a3.5,3.5,0,0,1-1-2.55,3.42,3.42,0,0,1,.35-1.63,2.54,2.54,0,0,1,1-1,4.41,4.41,0,0,1,1.62-.49,9.3,9.3,0,0,1,2.11,0q0.41,0,.87.14l1.12,0.21a2.29,2.29,0,0,0,0-.46c0-.17,0-0.26,0-0.44a1.63,1.63,0,0,0-.5-1.31,2.67,2.67,0,0,0-1.48-.54,6.71,6.71,0,0,0-2.1.08,12.27,12.27,0,0,0-1.57.43Zm3.91,8.86a2.58,2.58,0,0,0,1.64-.23,2.32,2.32,0,0,0,.8-0.78v-1.38l-0.68-.17a8.05,8.05,0,0,0-1-.16,4.68,4.68,0,0,0-.86,0,2.66,2.66,0,0,0-.77.17,1.29,1.29,0,0,0-.55.39,1,1,0,0,0-.2.65,1.45,1.45,0,0,0,.37,1A1.94,1.94,0,0,0,156.67,410.83Z"/><path class="cls-4" d="M166.48,398l4.9,0.49c0,4.25,0,6.38,0,10.63a5.2,5.2,0,0,0,.44,2.5,1.72,1.72,0,0,0,1.4.83,3.77,3.77,0,0,0,1.17,0,4,4,0,0,0,.92-0.34l1.13,2.18q-0.39.22-.78,0.4a4.58,4.58,0,0,1-.83.29,5.3,5.3,0,0,1-1,.14,7.53,7.53,0,0,1-1.16,0,4.78,4.78,0,0,1-3.24-1.42,4.68,4.68,0,0,1-1.08-3.24v-9.66l-1.91-.19C166.48,399.54,166.48,399,166.48,398Z"/><path class="cls-4" d="M180.07,418.13c4.08,0.38,6.13.57,10.21,0.93v2.46c-4.09-.36-6.13-0.55-10.21-0.93v-2.46Z"/><path class="cls-4" d="M192.07,400.44l4.65,0.4c0,2.35,0,3.53,0,5.89h0.09a3.45,3.45,0,0,1,1.47-1,4.82,4.82,0,0,1,2.16-.26,5.63,5.63,0,0,1,1.61.36,3.41,3.41,0,0,1,1.27.86,4,4,0,0,1,.83,1.5,7.49,7.49,0,0,1,.3,2.27v7.15l-3-.25V410.8a3,3,0,0,0-.6-2.07,2.27,2.27,0,0,0-1.57-.75,2.44,2.44,0,0,0-1.56.39,2.49,2.49,0,0,0-1,1.24c0,2.93,0,4.4,0,7.34l-3-.26c0-5.43,0-8.14,0-13.57l-1.66-.14C192.07,402,192.07,401.45,192.07,400.44Z"/><path class="cls-4" d="M218.17,417.43a3.71,3.71,0,0,1-.77.48,6.89,6.89,0,0,1-1.11.41,8.1,8.1,0,0,1-1.39.26,8.78,8.78,0,0,1-1.61,0,8.16,8.16,0,0,1-2.64-.62,5.76,5.76,0,0,1-3.2-3.37A7.37,7.37,0,0,1,207,412a6.47,6.47,0,0,1,.48-2.62,4.76,4.76,0,0,1,1.32-1.79,5,5,0,0,1,2-1,7.43,7.43,0,0,1,2.44-.19,7.84,7.84,0,0,1,1.81.37,5.42,5.42,0,0,1,1.72.92,4.75,4.75,0,0,1,1.28,1.6,5.36,5.36,0,0,1,.49,2.43,10.68,10.68,0,0,1-.23,2.12l-8.29-.63a2.81,2.81,0,0,0,.31,1.27,2.75,2.75,0,0,0,.76.89,3.59,3.59,0,0,0,1.08.56,5.58,5.58,0,0,0,1.3.25,6.56,6.56,0,0,0,2.27-.15,4.39,4.39,0,0,0,1.44-.67Zm-5-8.59a3.7,3.7,0,0,0-1.13.08,2.88,2.88,0,0,0-1,.41,2.35,2.35,0,0,0-.7.73,2.27,2.27,0,0,0-.32,1l5.66,0.44A2.48,2.48,0,0,0,213.2,408.85Z"/><path class="cls-4" d="M221.69,402.81l4.9,0.35c0,4.25,0,6.38,0,10.63a5.11,5.11,0,0,0,.44,2.49,1.66,1.66,0,0,0,1.41.79,3.79,3.79,0,0,0,1.17-.07,4.17,4.17,0,0,0,.92-0.36l1.13,2.15q-0.39.23-.78,0.42a4.73,4.73,0,0,1-.83.31,5.39,5.39,0,0,1-1,.16,7.5,7.5,0,0,1-1.16,0,4.66,4.66,0,0,1-3.25-1.33,4.56,4.56,0,0,1-1.08-3.21c0-3.86,0-5.8,0-9.66l-1.91-.14C221.69,404.33,221.69,403.82,221.69,402.81Z"/><path class="cls-4" d="M233.51,408.23l3.92,0.26,0.35,1.4h0.09a4.14,4.14,0,0,1,3.87-1.46,5.71,5.71,0,0,1,1.95.45A4.15,4.15,0,0,1,245.2,410a5.31,5.31,0,0,1,1,1.85,8.81,8.81,0,0,1,.35,2.62,8.21,8.21,0,0,1-.39,2.63,5.22,5.22,0,0,1-1.13,1.94,4.45,4.45,0,0,1-1.8,1.15,6.12,6.12,0,0,1-2.42.29,9.69,9.69,0,0,1-1.4-.19,4.11,4.11,0,0,1-1.15-.41c0,1.89,0,2.83,0,4.71l-3-.19c0-5.43,0-8.14,0-13.57l-1.73-.11v-2.53Zm7.33,2.68a2.92,2.92,0,0,0-1.6.33,2.08,2.08,0,0,0-1,1.25v4.78a2.65,2.65,0,0,0,.93.46,5.29,5.29,0,0,0,1.23.23,3.14,3.14,0,0,0,1.2-.14,2.25,2.25,0,0,0,1-.64,3.16,3.16,0,0,0,.64-1.18,5.83,5.83,0,0,0,.23-1.76,3.59,3.59,0,0,0-.74-2.39A2.56,2.56,0,0,0,240.83,410.92Z"/><path class="cls-4" d="M259.64,420.08a3.8,3.8,0,0,1-.77.5,7.06,7.06,0,0,1-1.11.44,8.21,8.21,0,0,1-1.39.29,8.82,8.82,0,0,1-1.61,0,8.07,8.07,0,0,1-2.64-.56,5.6,5.6,0,0,1-3.2-3.3,7.29,7.29,0,0,1-.43-2.57,6.54,6.54,0,0,1,.48-2.63,4.9,4.9,0,0,1,1.32-1.82,5.16,5.16,0,0,1,2-1,7.48,7.48,0,0,1,2.44-.24,7.74,7.74,0,0,1,1.81.33,5.28,5.28,0,0,1,1.72.89,4.61,4.61,0,0,1,1.28,1.58,5.28,5.28,0,0,1,.5,2.42,10.74,10.74,0,0,1-.23,2.13l-8.3-.46a2.77,2.77,0,0,0,.31,1.26,2.67,2.67,0,0,0,.76.87,3.5,3.5,0,0,0,1.08.53,5.54,5.54,0,0,0,1.3.22,6.6,6.6,0,0,0,2.27-.2,4.5,4.5,0,0,0,1.44-.7Zm-5-8.48a3.73,3.73,0,0,0-1.13.1,3,3,0,0,0-1,.43,2.41,2.41,0,0,0-.7.75,2.3,2.3,0,0,0-.32,1l5.67,0.32A2.42,2.42,0,0,0,254.66,411.6Z"/><path class="cls-4" d="M262.06,418.9l2.86,0.15v-6.44l-2.86-.15v-2.53l5.19,0.26,0.35,1.53h0.09a5.69,5.69,0,0,1,1.48-1.19,3.54,3.54,0,0,1,1.94-.41,2.76,2.76,0,0,1,2.18,1.11,5.74,5.74,0,0,1,.79,3.42l-2.7-.13a2.37,2.37,0,0,0-.24-1.22,0.9,0.9,0,0,0-.77-0.42,2.2,2.2,0,0,0-1.49.39,4.34,4.34,0,0,0-1,1v4.9l5,0.24V422c-4.34-.2-6.51-0.31-10.86-0.54V418.9Z"/><path class="cls-4" d="M285.48,427.39a11.08,11.08,0,0,1-3.14-1.14,9.71,9.71,0,0,1-2.7-2.16,10.3,10.3,0,0,1-1.88-3.21,12.2,12.2,0,0,1-.7-4.31,11.72,11.72,0,0,1,.7-4.24,9.44,9.44,0,0,1,1.88-3.08,8.79,8.79,0,0,1,2.7-2,11.06,11.06,0,0,1,3.14-1L286,408.8a9.29,9.29,0,0,0-1.83.58,6.32,6.32,0,0,0-1.95,1.32,7.28,7.28,0,0,0-1.56,2.34,9.13,9.13,0,0,0-.63,3.65,8.68,8.68,0,0,0,.67,3.59,8.36,8.36,0,0,0,1.63,2.45,7.6,7.6,0,0,0,2,1.48,8.18,8.18,0,0,0,1.71.68Z"/><path class="cls-4" d="M291.26,420.2l3.53,0.13V410.28l-3,2.21-1.38-1.89,5.26-3.81,2,0.07c0,5.43,0,8.14,0,13.57l3.46,0.11v2.53l-9.85-.34V420.2Z"/><path class="cls-4" d="M307.68,421.81a1.53,1.53,0,0,1,.52-1.23,1.85,1.85,0,0,1,1.3-.42,2.35,2.35,0,0,1,1.91.88,3.3,3.3,0,0,1,.65,2.06,4.27,4.27,0,0,1-.4,1.88,4.79,4.79,0,0,1-1,1.44,5.44,5.44,0,0,1-1.44,1,5.71,5.71,0,0,1-1.58.48L307,426.59a6.54,6.54,0,0,0,1.12-.36,4.35,4.35,0,0,0,1-.6,3.41,3.41,0,0,0,.77-0.86,2.38,2.38,0,0,0,.36-1.09,2.94,2.94,0,0,1-1.18,0,1.84,1.84,0,0,1-.8-0.39,1.56,1.56,0,0,1-.45-0.66A2.38,2.38,0,0,1,307.68,421.81Z"/><path class="cls-4" d="M318.94,421l3.53,0.08V411.07l-3,2.26L318,411.45l5.26-3.88,2,0v13.57l3.46,0.07v2.53l-9.85-.2V421Z"/><path class="cls-4" d="M332.78,421.31l3.53,0.05V411.32l-3,2.28-1.38-1.86,5.26-3.92,2,0v13.57l3.46,0V424l-9.85-.13v-2.53Z"/><path class="cls-4" d="M346.94,426.39a7.85,7.85,0,0,0,1.71-.59,7.14,7.14,0,0,0,2-1.39,7.81,7.81,0,0,0,1.63-2.37,8.45,8.45,0,0,0,.67-3.56,9.36,9.36,0,0,0-.63-3.68,7.79,7.79,0,0,0-1.56-2.42,6.78,6.78,0,0,0-1.95-1.42,9.75,9.75,0,0,0-1.83-.67l0.55-2.46a11.58,11.58,0,0,1,3.14,1.11,9.45,9.45,0,0,1,2.7,2.11,10.06,10.06,0,0,1,1.88,3.17,13.33,13.33,0,0,1,0,8.54,9.67,9.67,0,0,1-1.88,3.12,9.08,9.08,0,0,1-2.7,2,10.63,10.63,0,0,1-3.14,1Z"/><path class="cls-4" d="M511.09,416.13l2.85-.21v-6.44l-2.85.21v-2.53l5.18-.39,0.34,1.49h0.09a6.85,6.85,0,0,1,1.47-1.38,3.88,3.88,0,0,1,1.93-.66,2.42,2.42,0,0,1,2.18.84,5.26,5.26,0,0,1,.79,3.32l-2.69.21a2.21,2.21,0,0,0-.24-1.19,0.78,0.78,0,0,0-.77-0.32,2.44,2.44,0,0,0-1.48.58,5.22,5.22,0,0,0-1,1.13v4.9l5-.39v2.53c-4.34.35-6.5,0.51-10.84,0.84v-2.53Z"/><path class="cls-4" d="M536.29,415.41a4.66,4.66,0,0,1-.77.61,8.27,8.27,0,0,1-1.1.59,9.33,9.33,0,0,1-3,.76,7.57,7.57,0,0,1-2.64-.19,4.6,4.6,0,0,1-3.2-2.85,6.81,6.81,0,0,1-.43-2.51,7,7,0,0,1,.48-2.7,6,6,0,0,1,1.32-2,6.18,6.18,0,0,1,2-1.3,8,8,0,0,1,2.44-.59,7.4,7.4,0,0,1,1.81.08,4.51,4.51,0,0,1,1.71.65,3.75,3.75,0,0,1,1.28,1.4,4.86,4.86,0,0,1,.5,2.35,11.25,11.25,0,0,1-.23,2.16l-8.28.71a2.51,2.51,0,0,0,.31,1.22,2.17,2.17,0,0,0,.76.76,3,3,0,0,0,1.08.38,5.31,5.31,0,0,0,1.3,0,7,7,0,0,0,2.27-.51,5.37,5.37,0,0,0,1.44-.91Zm-5-7.78a4,4,0,0,0-1.13.26,3.51,3.51,0,0,0-1,.56,3,3,0,0,0-.7.84,2.58,2.58,0,0,0-.32,1.08l5.66-.48A2.07,2.07,0,0,0,531.32,407.62Z"/><path class="cls-4" d="M550.36,414.24a7.4,7.4,0,0,1-2.21,1.28,10.14,10.14,0,0,1-2.64.6,7.25,7.25,0,0,1-2.66-.19,4.8,4.8,0,0,1-2-1.05,4.61,4.61,0,0,1-1.21-1.81,7.39,7.39,0,0,1,.07-5.07,6.15,6.15,0,0,1,1.35-2,6.55,6.55,0,0,1,2-1.37,8.3,8.3,0,0,1,2.55-.64,9.26,9.26,0,0,1,2.41.08,10.47,10.47,0,0,1,1.73.41v4l-2.53.24v-2.12a6.36,6.36,0,0,0-1.43,0,4.54,4.54,0,0,0-1.28.31,3.51,3.51,0,0,0-1.13.72,3.61,3.61,0,0,0-1.12,2.71,3.39,3.39,0,0,0,.25,1.33,2.78,2.78,0,0,0,1.85,1.64,4,4,0,0,0,1.51.13,5.68,5.68,0,0,0,2.15-.57,9.8,9.8,0,0,0,1.25-.76Z"/><path class="cls-4" d="M559.19,403l4.28-.43v9l1.75-.18c0,1,0,1.52,0,2.53l-3.63.37-0.53-1.65H561a4.7,4.7,0,0,1-1.59,1.61A5.22,5.22,0,0,1,557,415a5.1,5.1,0,0,1-1.6-.07,2.55,2.55,0,0,1-1.23-.64,3.12,3.12,0,0,1-.78-1.35,7.5,7.5,0,0,1-.28-2.23v-4.62l-1.31.13v-2.53l4.3-.41v6.53a3.31,3.31,0,0,0,.45,2,1.48,1.48,0,0,0,1.41.48,2.74,2.74,0,0,0,1.53-.66,3.12,3.12,0,0,0,1-1.34v-4.9l-1.29.13V403Z"/><path class="cls-4" d="M566.29,411.24l2.85-.29v-6.44l-2.85.29v-2.53l5.17-.54,0.34,1.48h0.09a7.12,7.12,0,0,1,1.47-1.42,4,4,0,0,1,1.93-.71,2.35,2.35,0,0,1,2.17.78,5.17,5.17,0,0,1,.79,3.29l-2.69.29a2.17,2.17,0,0,0-.24-1.18,0.76,0.76,0,0,0-.77-0.3,2.51,2.51,0,0,0-1.48.62,5.45,5.45,0,0,0-1,1.16v4.9l5-.53c0,1,0,1.52,0,2.53-4.33.47-6.49,0.7-10.82,1.14v-2.53Z"/><path class="cls-4" d="M589.63,416.11a9.73,9.73,0,0,1-3.12-.66,7.79,7.79,0,0,1-2.69-1.75,8.4,8.4,0,0,1-1.87-2.92,11.36,11.36,0,0,1-.7-4.2,12.66,12.66,0,0,1,.7-4.34,11.53,11.53,0,0,1,1.87-3.37,11,11,0,0,1,2.69-2.4,12.81,12.81,0,0,1,3.12-1.44l0.55,2.4a10.8,10.8,0,0,0-1.82.87,7.84,7.84,0,0,0-1.94,1.62,9,9,0,0,0-1.55,2.58,9.9,9.9,0,0,0-.63,3.75,8,8,0,0,0,.67,3.49,6.73,6.73,0,0,0,1.62,2.2,6.12,6.12,0,0,0,2,1.18,7.15,7.15,0,0,0,1.7.42Z"/><path class="cls-4" d="M595.39,408l3.51-.42c0-4,0-6,0-10.05l-3,2.68-1.38-1.68,5.23-4.62,2-.24c0,5.43,0,8.14,0,13.57l3.44-.42v2.53c-3.92.48-5.88,0.72-9.8,1.18V408Z"/><path class="cls-4" d="M609.16,406.37l3.51-.44V395.88l-3,2.7-1.38-1.67,5.23-4.66,2-.26v13.57l3.44-.44v2.53l-9.79,1.25v-2.53Z"/><path class="cls-4" d="M625.48,405.32A1.81,1.81,0,0,1,626,404a2.16,2.16,0,0,1,1.3-.63,2,2,0,0,1,1.9.57,2.89,2.89,0,0,1,.64,2,4.73,4.73,0,0,1-.4,1.94,6,6,0,0,1-1,1.61,6.84,6.84,0,0,1-1.43,1.21,6.65,6.65,0,0,1-1.57.74l-0.62-1.18a7.66,7.66,0,0,0,1.11-.54,5.44,5.44,0,0,0,1-.77,4.34,4.34,0,0,0,.77-1,2.74,2.74,0,0,0,.35-1.15,3,3,0,0,1-1.17.19,1.54,1.54,0,0,1-.79-0.26,1.25,1.25,0,0,1-.45-0.58A2.21,2.21,0,0,1,625.48,405.32Z"/><path class="cls-4" d="M636.66,402.74l3.5-.49V392.19l-3,2.75-1.37-1.65,5.22-4.73,2-.29c0,5.43,0,8.14,0,13.57l3.43-.49c0,1,0,1.52,0,2.53-3.91.56-5.87,0.84-9.78,1.39C636.66,404.25,636.66,403.75,636.66,402.74Z"/><path class="cls-4" d="M648.84,395.46a14.53,14.53,0,0,1,.44-3.73,8.92,8.92,0,0,1,1.23-2.79,6.32,6.32,0,0,1,1.9-1.83,6.43,6.43,0,0,1,2.46-.88,4.61,4.61,0,0,1,4.46,1.37q1.56,1.8,1.56,6.08a14.64,14.64,0,0,1-.44,3.76,9.13,9.13,0,0,1-1.23,2.81,6.27,6.27,0,0,1-1.91,1.85,6.49,6.49,0,0,1-2.47.89,4.45,4.45,0,0,1-4.46-1.49Q648.84,399.55,648.84,395.46Zm3-.44c0,0.23,0,.45,0,0.65s0,0.42,0,.63l5.54-6a2.16,2.16,0,0,0-2.56-1.59,3,3,0,0,0-2.24,1.75A10.22,10.22,0,0,0,651.82,395Zm6.09-.9q0-.37,0-0.7t0-.65l-5.56,6a2.19,2.19,0,0,0,2.56,1.71,3,3,0,0,0,2.25-1.74A10.25,10.25,0,0,0,657.91,394.12Z"/><path class="cls-4" d="M664.45,403.57a9.21,9.21,0,0,0,1.69-.87,8.93,8.93,0,0,0,2-1.71,9.75,9.75,0,0,0,1.61-2.63,9.3,9.3,0,0,0,.66-3.67,8.68,8.68,0,0,0-.63-3.58,6.22,6.22,0,0,0-1.54-2.16,5.4,5.4,0,0,0-1.93-1.1,8.46,8.46,0,0,0-1.82-.38l0.55-2.54a10.07,10.07,0,0,1,3.11.6,7.47,7.47,0,0,1,2.67,1.68,8.13,8.13,0,0,1,1.86,2.87,11.17,11.17,0,0,1,.7,4.16,13,13,0,0,1-.7,4.39,11.93,11.93,0,0,1-1.86,3.42,11.41,11.41,0,0,1-2.67,2.46A12.35,12.35,0,0,1,665,406Z"/><path class="cls-4" d="M55.77,448.27v-2.53l2.7,0.43v-6.44l-2.72-.43v-2.53l2.72,0.43v-0.64a3.87,3.87,0,0,1,.38-1.8,3,3,0,0,1,1-1.13,3.42,3.42,0,0,1,1.43-.52,5.73,5.73,0,0,1,1.68,0,11.54,11.54,0,0,1,2.6.66,7.87,7.87,0,0,1,1.68.91l-0.87,2.15a12.24,12.24,0,0,0-1.13-.63,5.46,5.46,0,0,0-1.57-.45,2,2,0,0,0-1.73.3,2.21,2.21,0,0,0-.49,1.61l4.8,0.74v2.53l-4.8-.74v6.44l4.83,0.74v2.53C62.07,449.26,60,448.93,55.77,448.27Z"/><path class="cls-4" d="M69.93,439.74a11.13,11.13,0,0,1,2.12-.39,11.78,11.78,0,0,1,2.85.13,6.88,6.88,0,0,1,2,.59,4.14,4.14,0,0,1,1.35,1,3.74,3.74,0,0,1,.74,1.37,5.91,5.91,0,0,1,.23,1.69q0,1.17-.08,2c-0.05.54-.08,1-0.08,1.46a10.07,10.07,0,0,0,0,1.09c0,0.21.05,0.43,0.07,0.63l1.49,0.22v2.53l-3.84-.56-0.3-1.61-0.11,0a3.19,3.19,0,0,1-1.3,1,4,4,0,0,1-2.27.18,4.47,4.47,0,0,1-2.71-1.33,3.65,3.65,0,0,1-1-2.59,3.35,3.35,0,0,1,.35-1.61,2.38,2.38,0,0,1,1-1,4.24,4.24,0,0,1,1.61-.42,9.24,9.24,0,0,1,2.1.1q0.41,0.06.86,0.17l1.11,0.26a2.29,2.29,0,0,0,0-.45v-0.44a1.7,1.7,0,0,0-.5-1.33,2.76,2.76,0,0,0-1.48-.6,6.65,6.65,0,0,0-2.09,0,11.82,11.82,0,0,0-1.57.36Zm3.89,9a2.52,2.52,0,0,0,1.63-.16,2.16,2.16,0,0,0,.79-0.75v-1.38l-0.68-.2a8.27,8.27,0,0,0-1-.2,4.67,4.67,0,0,0-.86,0,2.54,2.54,0,0,0-.77.14,1.21,1.21,0,0,0-.54.37,1,1,0,0,0-.2.64,1.51,1.51,0,0,0,.37,1.06A2,2,0,0,0,73.82,448.76Z"/><path class="cls-4" d="M94.1,452.85a5.66,5.66,0,0,1-2.2.76,9.34,9.34,0,0,1-2.63,0,8.17,8.17,0,0,1-2.65-.81,6.56,6.56,0,0,1-1.95-1.51,6.29,6.29,0,0,1-1.2-2.09,7.69,7.69,0,0,1-.41-2.54,6,6,0,0,1,.48-2.51,4.43,4.43,0,0,1,1.34-1.72,4.87,4.87,0,0,1,2-.9,7.5,7.5,0,0,1,2.54,0,10.12,10.12,0,0,1,2.4.64,12.9,12.9,0,0,1,1.72.81v4l-2.52-.35v-2.12a7,7,0,0,0-1.42-.36,4.14,4.14,0,0,0-1.27,0,2.58,2.58,0,0,0-1.92,1.42,3.26,3.26,0,0,0-.31,1.5,3.85,3.85,0,0,0,.25,1.39,3.85,3.85,0,0,0,1.84,2.07,4.49,4.49,0,0,0,1.5.48,5.09,5.09,0,0,0,2.14-.07,7.35,7.35,0,0,0,1.25-.47Z"/><path class="cls-4" d="M98,445.52l-2.27-.31v-2.53L98,443v-2.62l3-.45v3.47l6,0.8v2.53l-6-.8v3.29a4.39,4.39,0,0,0,.66,2.65,2.66,2.66,0,0,0,1.86,1,3.84,3.84,0,0,0,1.12,0,3.76,3.76,0,0,0,.91-0.26,4.33,4.33,0,0,0,.73-0.41l0.61-.43,1.38,2.25a3.66,3.66,0,0,1-1,.71,7.11,7.11,0,0,1-1.26.5,7.25,7.25,0,0,1-1.41.26,6.57,6.57,0,0,1-1.44,0,5.68,5.68,0,0,1-3.86-2A7.45,7.45,0,0,1,98,448.81v-3.29Z"/><path class="cls-4" d="M109.89,450.32a6.66,6.66,0,0,1,.44-2.52,4.42,4.42,0,0,1,1.24-1.75,4.51,4.51,0,0,1,1.91-.94A7,7,0,0,1,116,445a7.78,7.78,0,0,1,2.58.76,6.34,6.34,0,0,1,1.92,1.47,6.08,6.08,0,0,1,1.18,2.07,7.81,7.81,0,0,1,.4,2.53,6.69,6.69,0,0,1-.44,2.52,4.35,4.35,0,0,1-3.15,2.7,7,7,0,0,1-2.49.09,7.75,7.75,0,0,1-2.58-.77,6.34,6.34,0,0,1-1.91-1.48,6.1,6.1,0,0,1-1.18-2.07A7.82,7.82,0,0,1,109.89,450.32Zm3.07,0.4a4.83,4.83,0,0,0,.21,1.43,4,4,0,0,0,.6,1.2,3.25,3.25,0,0,0,.94.87,3.16,3.16,0,0,0,1.26.43,2.61,2.61,0,0,0,2.17-.58,3.34,3.34,0,0,0,.84-2.59,4.42,4.42,0,0,0-.78-2.66,3.09,3.09,0,0,0-2.22-1.26,3.42,3.42,0,0,0-1.19,0,2,2,0,0,0-1,.51,2.61,2.61,0,0,0-.63,1A4.7,4.7,0,0,0,113,450.72Z"/><path class="cls-4" d="M123.74,455.29l2.85,0.35V449.2l-2.85-.35v-2.53l5.16,0.63,0.34,1.56h0.09a5.12,5.12,0,0,1,1.47-1.09,3.38,3.38,0,0,1,1.93-.28,3,3,0,0,1,2.17,1.27,6,6,0,0,1,.79,3.47l-2.69-.31a2.49,2.49,0,0,0-.24-1.24,1,1,0,0,0-.77-0.47,2.08,2.08,0,0,0-1.48.28,3.89,3.89,0,0,0-1,.94V456l5,0.59v2.53c-4.32-.51-6.49-0.77-10.81-1.3v-2.53Z"/><path class="cls-4" d="M138,457l4,0.46V451l-4-.46V448l7,0.8v9l4.25,0.47v2.53c-4.51-.5-6.77-0.75-11.27-1.27V457Zm3.49-11.7a1.44,1.44,0,0,1,.53-1.16,1.87,1.87,0,0,1,1.47-.34,2.5,2.5,0,0,1,1.54.68,1.77,1.77,0,0,1,.57,1.28,1.32,1.32,0,0,1-.57,1.14,2.17,2.17,0,0,1-1.54.3,2.37,2.37,0,0,1-1.47-.64A1.73,1.73,0,0,1,141.46,445.29Z"/><path class="cls-4" d="M152.46,450.42a11.57,11.57,0,0,1,2.12-.48,11.88,11.88,0,0,1,2.86,0,6.72,6.72,0,0,1,2,.5,3.92,3.92,0,0,1,1.36,1,3.55,3.55,0,0,1,.75,1.34,5.8,5.8,0,0,1,.23,1.68q0,1.17-.08,2c-0.05.55-.08,1-0.08,1.46a10,10,0,0,0,0,1.09c0,0.21.05,0.43,0.07,0.63l1.49,0.15v2.53l-3.86-.4-0.3-1.6H159a3.39,3.39,0,0,1-1.3,1.09,4.1,4.1,0,0,1-2.28.28,4.29,4.29,0,0,1-2.72-1.21,3.5,3.5,0,0,1-1-2.55,3.42,3.42,0,0,1,.35-1.63,2.54,2.54,0,0,1,1-1,4.41,4.41,0,0,1,1.62-.49,9.34,9.34,0,0,1,2.11,0q0.41,0,.87.14l1.12,0.21a2.3,2.3,0,0,0,0-.46v-0.44a1.63,1.63,0,0,0-.5-1.31,2.66,2.66,0,0,0-1.48-.54,6.7,6.7,0,0,0-2.1.08,12.18,12.18,0,0,0-1.57.43Zm3.91,8.86a2.58,2.58,0,0,0,1.64-.23,2.31,2.31,0,0,0,.8-0.78V456.9l-0.68-.18a8.23,8.23,0,0,0-1-.16,4.68,4.68,0,0,0-.86,0,2.63,2.63,0,0,0-.77.17,1.3,1.3,0,0,0-.55.39,1,1,0,0,0-.2.65,1.45,1.45,0,0,0,.37,1A1.94,1.94,0,0,0,156.37,459.28Z"/><path class="cls-4" d="M166.18,446.48l4.9,0.49v10.63a5.2,5.2,0,0,0,.44,2.5,1.72,1.72,0,0,0,1.4.83,3.77,3.77,0,0,0,1.17,0,4,4,0,0,0,.92-0.34l1.13,2.18q-0.39.22-.78,0.4a4.59,4.59,0,0,1-.83.29,5.31,5.31,0,0,1-1,.14,7.53,7.53,0,0,1-1.16,0,4.78,4.78,0,0,1-3.24-1.42,4.68,4.68,0,0,1-1.08-3.24V449.2l-1.91-.19v-2.53Z"/><path class="cls-4" d="M188.44,469.57a11.6,11.6,0,0,1-3.13-1.29,10.44,10.44,0,0,1-2.69-2.29,11,11,0,0,1-1.87-3.3,12.52,12.52,0,0,1-.7-4.34,11.46,11.46,0,0,1,.7-4.2,8.84,8.84,0,0,1,1.87-3,8.2,8.2,0,0,1,2.69-1.85,10.61,10.61,0,0,1,3.13-.8L189,451a8.9,8.9,0,0,0-1.83.49,5.88,5.88,0,0,0-1.94,1.23,6.79,6.79,0,0,0-1.55,2.26,9.26,9.26,0,0,0,1.66,9.78,8.16,8.16,0,0,0,2,1.58,8.65,8.65,0,0,0,1.7.76Z"/><path class="cls-4" d="M194.21,462.68l3.52,0.3V452.93l-3,2.06-1.38-2,5.25-3.55,2,0.17v13.57L204,463.5V466c-3.93-.32-5.9-0.49-9.83-0.83v-2.53Z"/><path class="cls-4" d="M208,463.82l3.52,0.28V454l-3,2.08-1.38-1.95,5.25-3.59,2,0.16v13.57l3.45,0.26c0,1,0,1.52,0,2.53-3.93-.29-5.9-0.44-9.83-0.76v-2.53Z"/><path class="cls-4" d="M222.15,469.8a7.43,7.43,0,0,0,1.7-.49,6.52,6.52,0,0,0,2-1.26,7.15,7.15,0,0,0,1.62-2.27,8.17,8.17,0,0,0,.67-3.52,9.68,9.68,0,0,0-.63-3.72,8.49,8.49,0,0,0-1.55-2.51,7.42,7.42,0,0,0-1.95-1.54,10.33,10.33,0,0,0-1.83-.79l0.55-2.42a12.28,12.28,0,0,1,3.13,1.3,10.33,10.33,0,0,1,2.69,2.28,10.92,10.92,0,0,1,1.88,3.29,12.39,12.39,0,0,1,.7,4.31,11.58,11.58,0,0,1-.7,4.23,8.89,8.89,0,0,1-1.88,3,8.29,8.29,0,0,1-2.69,1.86,10.07,10.07,0,0,1-3.13.79Z"/><path class="cls-4" d="M373.8,472.56V470h2.72v-6.44h-2.74v-2.53h2.74V460.4a4.23,4.23,0,0,1,.38-1.87,3.78,3.78,0,0,1,1-1.29,4.15,4.15,0,0,1,1.44-.76,6,6,0,0,1,1.7-.25,10.8,10.8,0,0,1,2.62.24,6.64,6.64,0,0,1,1.7.64l-0.88,2.29a10.37,10.37,0,0,0-1.14-.45,5,5,0,0,0-1.58-.19,2.26,2.26,0,0,0-1.74.58,2.51,2.51,0,0,0-.5,1.69l4.84,0v2.53l-4.84,0c0,2.58,0,3.86,0,6.44l4.87,0c0,1,0,1.52,0,2.53C380.15,472.52,378,472.54,373.8,472.56Z"/><path class="cls-4" d="M388.08,461.72a12.74,12.74,0,0,1,2.13-.74,12.23,12.23,0,0,1,2.87-.34,6.36,6.36,0,0,1,2,.26,3.35,3.35,0,0,1,1.36.79,3,3,0,0,1,.75,1.25,5.49,5.49,0,0,1,.23,1.65q0,1.17-.08,2t-0.08,1.47a9.82,9.82,0,0,0,0,1.08c0,0.21.05,0.42,0.07,0.62l1.5,0v2.53l-3.87.06-0.3-1.56h-0.11a4.06,4.06,0,0,1-1.31,1.25,4.41,4.41,0,0,1-2.29.55,3.85,3.85,0,0,1-2.73-.89,3.11,3.11,0,0,1-1-2.43,3.68,3.68,0,0,1,.35-1.67,3,3,0,0,1,1-1.16,5,5,0,0,1,1.63-.69,9.59,9.59,0,0,1,2.12-.25c0.27,0,.57,0,0.87,0l1.12,0.08a2.37,2.37,0,0,0,0-.46v-0.44a1.45,1.45,0,0,0-.5-1.25,2.43,2.43,0,0,0-1.49-.36,7,7,0,0,0-2.11.33,13.7,13.7,0,0,0-1.58.62Zm3.93,8.39a2.53,2.53,0,0,0,2.44-1.3v-1.38l-0.68-.09a7.91,7.91,0,0,0-1,0,4.79,4.79,0,0,0-.87.09,2.92,2.92,0,0,0-.78.26,1.54,1.54,0,0,0-.55.46,1.09,1.09,0,0,0-.2.67,1.29,1.29,0,0,0,.38,1A1.75,1.75,0,0,0,392,470.11Z"/><path class="cls-4" d="M412.44,470.9a6.8,6.8,0,0,1-2.21,1.12,9.81,9.81,0,0,1-2.65.42,7.47,7.47,0,0,1-2.66-.38,5.28,5.28,0,0,1-2-1.19,5.07,5.07,0,0,1-1.21-1.9,7.08,7.08,0,0,1-.42-2.48,6.54,6.54,0,0,1,.48-2.59,5.58,5.58,0,0,1,1.35-1.94,6,6,0,0,1,2-1.23,8,8,0,0,1,2.56-.46,9.41,9.41,0,0,1,2.42.24,11.09,11.09,0,0,1,1.73.53c0,1.62,0,2.43,0,4l-2.54.06v-2.12a6.48,6.48,0,0,0-1.43-.13,4.4,4.4,0,0,0-1.28.22,3.21,3.21,0,0,0-1.13.65,3.36,3.36,0,0,0-.81,1.09,3.55,3.55,0,0,0-.31,1.55,3.51,3.51,0,0,0,.25,1.35,3.07,3.07,0,0,0,1.86,1.77,4.08,4.08,0,0,0,1.51.23,5.46,5.46,0,0,0,2.16-.42,9,9,0,0,0,1.26-.67Z"/><path class="cls-4" d="M416.36,462.93l-2.28.06v-2.53l2.28-.06c0-1,0-1.57,0-2.62l3-.93v3.47l6-.18c0,1,0,1.52,0,2.53l-6,.18v3.29a3.87,3.87,0,0,0,.67,2.55,2.24,2.24,0,0,0,1.87.74,4,4,0,0,0,1.13-.18,4.42,4.42,0,0,0,.91-0.41,5.42,5.42,0,0,0,.74-0.53l0.61-.52,1.38,2a4.65,4.65,0,0,1-1,.87,8.72,8.72,0,0,1-1.27.71,8.27,8.27,0,0,1-1.42.49,6.84,6.84,0,0,1-1.45.2,4.85,4.85,0,0,1-3.89-1.33q-1.3-1.4-1.3-4.53v-3.29Z"/><path class="cls-4" d="M428.33,465.8a7.18,7.18,0,0,1,.44-2.59,5.44,5.44,0,0,1,3.17-3.2,7.54,7.54,0,0,1,2.5-.49,7.13,7.13,0,0,1,2.59.34A5.11,5.11,0,0,1,439,461a4.92,4.92,0,0,1,1.19,1.88,7.82,7.82,0,0,1,0,5.06,5.46,5.46,0,0,1-3.17,3.21,7.48,7.48,0,0,1-2.5.49,7.09,7.09,0,0,1-2.59-.35,5.11,5.11,0,0,1-1.93-1.17,4.94,4.94,0,0,1-1.19-1.88A7.22,7.22,0,0,1,428.33,465.8Zm3.09-.1a4.49,4.49,0,0,0,.21,1.4,3.3,3.3,0,0,0,.6,1.11,2.57,2.57,0,0,0,.94.71,2.84,2.84,0,0,0,1.27.22,3,3,0,0,0,2.18-.93,4.66,4.66,0,0,0,.06-5.26,2.61,2.61,0,0,0-2.24-.9,3.64,3.64,0,0,0-1.2.24,2.48,2.48,0,0,0-1,.67,3.24,3.24,0,0,0-.63,1.13A5,5,0,0,0,431.42,465.7Z"/><path class="cls-4" d="M442.26,468.52l2.86-.11V462l-2.86.11v-2.53l5.19-.21,0.35,1.5h0.09a6.51,6.51,0,0,1,1.48-1.33,3.77,3.77,0,0,1,1.94-.59,2.51,2.51,0,0,1,2.18.91,5.39,5.39,0,0,1,.79,3.35l-2.7.12a2.25,2.25,0,0,0-.24-1.2,0.81,0.81,0,0,0-.77-0.35,2.37,2.37,0,0,0-1.49.52,5,5,0,0,0-1,1.1v4.9l5-.22v2.53c-4.34.19-6.52,0.29-10.86,0.46v-2.53Z"/><path class="cls-4" d="M456.55,467.91l4.06-.19v-6.44l-4.06.19v-2.53l7.05-.34v9l4.26-.22v2.53c-4.53.24-6.79,0.35-11.32,0.56C456.55,469.43,456.55,468.92,456.55,467.91Zm3.5-12.26a1.71,1.71,0,0,1,.53-1.24,2.14,2.14,0,0,1,1.47-.58,2.16,2.16,0,0,1,1.54.43,1.48,1.48,0,0,1,.58,1.19,1.57,1.57,0,0,1-.58,1.24,2.47,2.47,0,0,1-1.54.55,2.06,2.06,0,0,1-1.47-.4A1.47,1.47,0,0,1,460.06,455.65Z"/><path class="cls-4" d="M471.1,459a13.26,13.26,0,0,1,2.13-.83,12.43,12.43,0,0,1,2.87-.46,6.26,6.26,0,0,1,2,.17,3.17,3.17,0,0,1,1.36.74,2.87,2.87,0,0,1,.75,1.22,5.41,5.41,0,0,1,.23,1.64q0,1.17-.08,2T480.32,465a9.78,9.78,0,0,0,0,1.08c0,0.21.05,0.42,0.07,0.62l1.5-.09v2.53l-3.87.23-0.3-1.55h-0.11a4.32,4.32,0,0,1-1.31,1.31,4.54,4.54,0,0,1-2.29.65,3.71,3.71,0,0,1-2.73-.77,3,3,0,0,1-1-2.38,3.78,3.78,0,0,1,.35-1.69,3.22,3.22,0,0,1,1-1.21,5.21,5.21,0,0,1,1.63-.76,9.75,9.75,0,0,1,2.12-.34,8.57,8.57,0,0,1,.87,0l1.12,0a2.41,2.41,0,0,0,0-.46v-0.44a1.39,1.39,0,0,0-.5-1.23,2.36,2.36,0,0,0-1.49-.29,7.13,7.13,0,0,0-2.1.42,14.37,14.37,0,0,0-1.58.68Zm3.92,8.22a2.87,2.87,0,0,0,1.64-.49,2.94,2.94,0,0,0,.8-0.91v-1.38l-0.68-.06a7.86,7.86,0,0,0-1,0,4.85,4.85,0,0,0-.87.13,3,3,0,0,0-.78.3,1.64,1.64,0,0,0-.55.48,1.13,1.13,0,0,0-.2.68,1.24,1.24,0,0,0,.38,1A1.69,1.69,0,0,0,475,467.22Z"/><path class="cls-4" d="M484.85,452.82l4.91-.31c0,4.25,0,6.38,0,10.63a4.76,4.76,0,0,0,.44,2.43,1.44,1.44,0,0,0,1.41.6,4,4,0,0,0,1.17-.23,4.82,4.82,0,0,0,.92-0.49l1.13,2q-0.39.28-.78,0.52a5.46,5.46,0,0,1-.83.42,5.91,5.91,0,0,1-1,.29,7.7,7.7,0,0,1-1.16.16,4.13,4.13,0,0,1-3.25-.9,4,4,0,0,1-1.08-3.06v-9.66l-1.91.12v-2.53Z"/><path class="cls-4" d="M498.47,470.73c4.09-.28,6.14-0.42,10.22-0.72v2.46c-4.09.3-6.13,0.44-10.22,0.72v-2.46Z"/><path class="cls-4" d="M510.49,451.09l4.65-.35v5.89h0.09a4.35,4.35,0,0,1,1.47-1.29,5.76,5.76,0,0,1,3.78-.5,2.76,2.76,0,0,1,1.27.66,3.22,3.22,0,0,1,.83,1.37,7,7,0,0,1,.3,2.22v7.15l-3,.24v-6.53a2.67,2.67,0,0,0-.6-2,1.94,1.94,0,0,0-1.57-.5,2.8,2.8,0,0,0-1.56.64,3.12,3.12,0,0,0-1,1.4v7.34l-3,.23c0-5.43,0-8.14,0-13.57l-1.66.12v-2.53Z"/><path class="cls-4" d="M536.59,463.87a4.63,4.63,0,0,1-.77.61,8.27,8.27,0,0,1-1.1.59,9.11,9.11,0,0,1-1.39.49,9.2,9.2,0,0,1-1.61.28,7.6,7.6,0,0,1-2.64-.19,4.6,4.6,0,0,1-3.2-2.85,6.81,6.81,0,0,1-.43-2.51,7,7,0,0,1,.48-2.7,6,6,0,0,1,1.32-2,6.2,6.2,0,0,1,2-1.3,8,8,0,0,1,2.44-.58,7.37,7.37,0,0,1,1.81.08,4.51,4.51,0,0,1,1.71.65,3.75,3.75,0,0,1,1.28,1.4,4.85,4.85,0,0,1,.5,2.35,11.26,11.26,0,0,1-.23,2.16l-8.28.71a2.51,2.51,0,0,0,.31,1.22,2.18,2.18,0,0,0,.76.76,3,3,0,0,0,1.08.38,5.28,5.28,0,0,0,1.3,0,7,7,0,0,0,2.27-.52,5.37,5.37,0,0,0,1.44-.91Zm-5-7.78a4,4,0,0,0-1.13.26,3.51,3.51,0,0,0-1,.56,3,3,0,0,0-.7.84,2.58,2.58,0,0,0-.32,1.08l5.66-.48A2.07,2.07,0,0,0,531.62,456.08Z"/><path class="cls-4" d="M540.11,448.67l4.9-.44v10.63a4.69,4.69,0,0,0,.44,2.42,1.4,1.4,0,0,0,1.4.56,4.06,4.06,0,0,0,1.17-.26,5,5,0,0,0,.92-0.51l1.13,2q-0.39.29-.78,0.54a5.66,5.66,0,0,1-.83.45,6,6,0,0,1-1,.32,7.78,7.78,0,0,1-1.16.19,4,4,0,0,1-3.24-.81,3.94,3.94,0,0,1-1.08-3V451l-1.91.17v-2.53Z"/><path class="cls-4" d="M551.9,452.19l3.91-.38,0.34,1.35h0.09a4.9,4.9,0,0,1,3.86-2.08,5.27,5.27,0,0,1,1.94.14,3.32,3.32,0,0,1,1.52.89,4.35,4.35,0,0,1,1,1.69,8.27,8.27,0,0,1,.34,2.56,8.82,8.82,0,0,1-.39,2.7,6.4,6.4,0,0,1-1.13,2.13,5.56,5.56,0,0,1-1.79,1.44,6.67,6.67,0,0,1-2.41.68,9.38,9.38,0,0,1-1.4,0,3.6,3.6,0,0,1-1.15-.22v4.71l-3,.29V454.55l-1.72.17v-2.53Zm7.31,1.5a3.3,3.3,0,0,0-1.6.59,2.59,2.59,0,0,0-1,1.41v4.78a2.22,2.22,0,0,0,.93.31,5,5,0,0,0,1.23,0,3.41,3.41,0,0,0,1.2-.34,2.82,2.82,0,0,0,1-.8,3.85,3.85,0,0,0,.64-1.28,6.22,6.22,0,0,0,.23-1.79,3.13,3.13,0,0,0-.74-2.27A2.17,2.17,0,0,0,559.22,453.68Z"/><path class="cls-4" d="M578,459.81a4.77,4.77,0,0,1-.77.62,8.43,8.43,0,0,1-1.1.61,9.46,9.46,0,0,1-3,.83,7.53,7.53,0,0,1-2.63-.14,4.46,4.46,0,0,1-3.19-2.79,6.75,6.75,0,0,1-.42-2.5,7.14,7.14,0,0,1,.48-2.71,6.13,6.13,0,0,1,1.32-2,6.36,6.36,0,0,1,2-1.34,8.09,8.09,0,0,1,2.44-.64,7.34,7.34,0,0,1,1.8,0,4.42,4.42,0,0,1,1.71.61,3.63,3.63,0,0,1,1.27,1.37,4.8,4.8,0,0,1,.49,2.34,11.35,11.35,0,0,1-.23,2.16l-8.27.88a2.47,2.47,0,0,0,.31,1.21,2.11,2.11,0,0,0,.76.75,3,3,0,0,0,1.08.36,5.27,5.27,0,0,0,1.3,0,7.11,7.11,0,0,0,2.26-.56A5.49,5.49,0,0,0,577,458Zm-5-7.68a4,4,0,0,0-1.13.28,3.58,3.58,0,0,0-1,.58,3.05,3.05,0,0,0-.7.86,2.64,2.64,0,0,0-.32,1.09l5.65-.6A2,2,0,0,0,573,452.13Z"/><path class="cls-4" d="M580.38,458.24l2.85-.31v-6.44l-2.85.31v-2.53l5.17-.57,0.34,1.48H586a7.21,7.21,0,0,1,1.47-1.43,4,4,0,0,1,1.93-.73,2.33,2.33,0,0,1,2.17.76,5.14,5.14,0,0,1,.79,3.29l-2.69.31a2.16,2.16,0,0,0-.24-1.18,0.75,0.75,0,0,0-.77-0.29,2.53,2.53,0,0,0-1.48.63,5.51,5.51,0,0,0-1,1.17v4.9l5-.57v2.53c-4.32.5-6.49,0.74-10.81,1.22C580.38,459.75,580.38,459.25,580.38,458.24Z"/><path class="cls-4" d="M603.7,462.94a9.67,9.67,0,0,1-3.12-.63,7.71,7.71,0,0,1-2.68-1.73,8.33,8.33,0,0,1-1.87-2.91,11.33,11.33,0,0,1-.7-4.2,12.71,12.71,0,0,1,.7-4.35,11.65,11.65,0,0,1,1.87-3.38,11.09,11.09,0,0,1,2.68-2.42,12.89,12.89,0,0,1,3.12-1.46l0.55,2.39a10.89,10.89,0,0,0-1.82.88,7.92,7.92,0,0,0-1.94,1.64,9.05,9.05,0,0,0-1.55,2.59,9.94,9.94,0,0,0-.63,3.75,8,8,0,0,0,.67,3.49,6.67,6.67,0,0,0,1.62,2.19,6.06,6.06,0,0,0,2,1.17,7.1,7.1,0,0,0,1.7.4Z"/><path class="cls-4" d="M609.46,454.82l3.51-.44V444.33l-3,2.7-1.38-1.67,5.23-4.66,2-.26V454l3.44-.44v2.53l-9.79,1.25v-2.53Z"/><path class="cls-4" d="M625.78,453.77a1.81,1.81,0,0,1,.52-1.31,2.16,2.16,0,0,1,1.3-.63,2,2,0,0,1,1.9.57,2.89,2.89,0,0,1,.64,2,4.74,4.74,0,0,1-.4,1.94,6,6,0,0,1-1,1.61,6.83,6.83,0,0,1-1.43,1.21,6.64,6.64,0,0,1-1.57.74l-0.62-1.18a7.6,7.6,0,0,0,1.11-.54,5.4,5.4,0,0,0,1-.77,4.34,4.34,0,0,0,.77-1,2.74,2.74,0,0,0,.36-1.15,3,3,0,0,1-1.17.19,1.54,1.54,0,0,1-.79-0.26,1.25,1.25,0,0,1-.45-0.58A2.21,2.21,0,0,1,625.78,453.77Z"/><path class="cls-4" d="M637,451.19l3.5-.49V440.65l-3,2.75-1.37-1.65,5.22-4.73,2-.29V450.3l3.43-.49v2.53L637,453.72v-2.53Z"/><path class="cls-4" d="M650.7,449.23l3.5-.52V438.66l-3,2.77-1.37-1.64L655,435l2-.3v13.57l3.43-.52v2.53l-9.77,1.46v-2.53Z"/><path class="cls-4" d="M664.75,452a9.22,9.22,0,0,0,1.69-.87,8.92,8.92,0,0,0,2-1.71,9.73,9.73,0,0,0,1.61-2.63,9.3,9.3,0,0,0,.66-3.67,8.67,8.67,0,0,0-.63-3.58,6.23,6.23,0,0,0-1.54-2.16,5.4,5.4,0,0,0-1.93-1.1,8.45,8.45,0,0,0-1.82-.38l0.55-2.54a10.07,10.07,0,0,1,3.11.6,7.47,7.47,0,0,1,2.67,1.68,8.12,8.12,0,0,1,1.86,2.87,11.17,11.17,0,0,1,.7,4.16,13,13,0,0,1-.7,4.39,11.92,11.92,0,0,1-1.86,3.42,11.41,11.41,0,0,1-2.67,2.46,12.35,12.35,0,0,1-3.11,1.49Z"/></svg>