<svg id="Layer_1" data-name="Layer 1" xmlns="http://www.w3.org/2000/svg" viewBox="0 0 720 576"><defs><style>.cls-1,.cls-2,.cls-4,.cls-6{fill:#231f20;}.cls-1,.cls-3{stroke:#231f20;}.cls-1,.cls-6{stroke-miterlimit:10;}.cls-1,.cls-2,.cls-3{stroke-width:2px;}.cls-2{stroke:#000;}.cls-2,.cls-3{stroke-linecap:round;stroke-linejoin:round;}.cls-3,.cls-5{fill:#fff;}.cls-6{stroke:#fff;}</style></defs><title>Hanoi_Tower_Set_5_Final</title><path class="cls-1" d="M689.9,506.49c0-.14,0-0.29,0-0.43s0-.29,0-0.43V453.84H44.1s-0.25,51.74-.25,52.22c0,2.67,2.32,5.24,6.64,7.71,15.13,8.61,55.2,16.11,111,21.48s127.37,8.59,205.39,8.59c89.16,0,169.88-4.21,228.32-11,29.22-3.41,52.87-7.46,69.23-12,8.18-2.25,14.54-4.62,18.86-7.08,3.69-2.1,5.91-4.29,6.48-6.55h0.11v-0.73Z"/><ellipse class="cls-2" cx="366.9" cy="454.92" rx="322.86" ry="37.63"/><path class="cls-3" d="M689.9,455c0-.14,0-0.29,0-0.43s0-.29,0-0.43V402.36H44.1s-0.25,51.74-.25,52.22c0,2.67,2.32,5.24,6.64,7.71,15.13,8.61,55.2,16.11,111,21.48s127.37,8.59,205.39,8.59c89.16,0,169.88-4.21,228.32-11,29.22-3.41,52.87-7.46,69.23-12,8.18-2.25,14.54-4.62,18.86-7.08,3.69-2.1,5.91-4.29,6.48-6.55h0.11V455Z"/><ellipse class="cls-3" cx="366.9" cy="403.44" rx="322.86" ry="37.63"/><path class="cls-3" d="M689.9,403.53c0-.14,0-0.29,0-0.43s0-.29,0-0.43V350.88H44.1s-0.25,51.74-.25,52.22c0,2.67,2.32,5.24,6.64,7.71,15.13,8.61,55.2,16.11,111,21.48s127.37,8.59,205.39,8.59c89.16,0,169.88-4.21,228.32-11,29.22-3.41,52.87-7.46,69.23-12,8.18-2.25,14.54-4.62,18.86-7.08,3.69-2.1,5.91-4.29,6.48-6.55h0.11v-0.73Z"/><ellipse class="cls-3" cx="366.9" cy="351.97" rx="322.86" ry="37.63"/><path class="cls-3" d="M689.9,352.06c0-.14,0-0.29,0-0.43s0-.29,0-0.43V299.4H44.1s-0.25,51.74-.25,52.22c0,2.67,2.32,5.24,6.64,7.71,15.13,8.61,55.2,16.11,111,21.48s127.37,8.59,205.39,8.59c89.16,0,169.88-4.21,228.32-11,29.22-3.41,52.87-7.46,69.23-12,8.18-2.25,14.54-4.62,18.86-7.08,3.69-2.1,5.91-4.29,6.48-6.55h0.11v-0.73Z"/><ellipse class="cls-3" cx="366.9" cy="300.49" rx="322.86" ry="37.63"/><path class="cls-4" d="M366.89,309.88c-16,0-29-3.75-30.2-8.61h-0.08l0-.5V8.27h60.63v293H397.1C395.87,306.14,382.87,309.88,366.89,309.88Z"/><path class="cls-5" d="M396.72,8.77v292h0c-0.49,4.78-13.63,8.61-29.79,8.61s-29.3-3.83-29.79-8.61h0v-0.21s0,0,0-.06,0,0,0-.06V8.77h59.63m1-1H336.09V300.39s0,0.07,0,.11v1.27h0.23c2,5.6,16.84,8.61,30.58,8.61s28.6-3,30.58-8.61h0.21l0-1V7.77h0Z"/><ellipse class="cls-6" cx="366.89" cy="8.89" rx="29.81" ry="8.89"/><path class="cls-4" d="M62.56,343l2.83,0.45V337l-2.83-.45V334l5.14,0.81,0.34,1.57h0.09a4.86,4.86,0,0,1,1.46-1,3.32,3.32,0,0,1,1.92-.21,3.1,3.1,0,0,1,2.16,1.34,6.19,6.19,0,0,1,.79,3.5l-2.68-.41a2.54,2.54,0,0,0-.24-1.24,1,1,0,0,0-.77-0.5,2,2,0,0,0-1.47.23,3.69,3.69,0,0,0-.95.91c0,2,0,2.94,0,4.9l5,0.76v2.53c-4.31-.66-6.46-1-10.77-1.68V343Z"/><path class="cls-4" d="M87.61,348.07a3.36,3.36,0,0,1-.77.43,6.42,6.42,0,0,1-1.1.33,7.79,7.79,0,0,1-1.38.16,8.74,8.74,0,0,1-1.6-.1,8.51,8.51,0,0,1-2.62-.8A6.35,6.35,0,0,1,77,344.5a7.67,7.67,0,0,1-.42-2.6,6.27,6.27,0,0,1,.48-2.58,4.3,4.3,0,0,1,1.32-1.7,4.6,4.6,0,0,1,2-.85,7.27,7.27,0,0,1,2.43,0,8.15,8.15,0,0,1,1.8.5,5.88,5.88,0,0,1,1.71,1A5.24,5.24,0,0,1,87.49,340a5.61,5.61,0,0,1,.49,2.46,10.51,10.51,0,0,1-.23,2.11l-8.24-1.21a3,3,0,0,0,.31,1.29,3,3,0,0,0,.75.94,3.89,3.89,0,0,0,1.08.63,5.77,5.77,0,0,0,1.29.34,6.42,6.42,0,0,0,2.25,0,4,4,0,0,0,1.43-.57Zm-4.94-8.94a3.63,3.63,0,0,0-1.12,0,2.67,2.67,0,0,0-.95.34,2.11,2.11,0,0,0-.7.68,2.15,2.15,0,0,0-.32,1L85.21,342a2.89,2.89,0,0,0-.63-1.91A2.92,2.92,0,0,0,82.67,339.13Z"/><path class="cls-4" d="M101.63,350.17a5.66,5.66,0,0,1-2.2.76,9.32,9.32,0,0,1-2.63,0,8.17,8.17,0,0,1-2.65-.81,6.56,6.56,0,0,1-1.95-1.51,6.29,6.29,0,0,1-1.2-2.09,7.69,7.69,0,0,1-.41-2.54,6,6,0,0,1,.48-2.51,4.44,4.44,0,0,1,1.34-1.72,4.88,4.88,0,0,1,2-.9,7.52,7.52,0,0,1,2.54,0,10.13,10.13,0,0,1,2.4.63,12.93,12.93,0,0,1,1.72.81v4l-2.52-.35v-2.11a6.92,6.92,0,0,0-1.42-.36,4.16,4.16,0,0,0-1.27,0A2.58,2.58,0,0,0,94,342.91a3.26,3.26,0,0,0-.31,1.5,3.85,3.85,0,0,0,.25,1.39,3.9,3.9,0,0,0,.71,1.18,4,4,0,0,0,1.13.88,4.49,4.49,0,0,0,1.5.48,5.09,5.09,0,0,0,2.14-.07,7.35,7.35,0,0,0,1.25-.47Z"/><path class="cls-4" d="M110.42,341l4.26,0.56v9l1.74,0.23v2.53l-3.62-.48L112.28,351h-0.09a3.34,3.34,0,0,1-1.58,1.24,4.48,4.48,0,0,1-2.34.26,5.65,5.65,0,0,1-1.59-.45,3.44,3.44,0,0,1-1.23-.93,4.17,4.17,0,0,1-.78-1.53,8.22,8.22,0,0,1-.27-2.29v-4.62l-1.31-.18V340l4.28,0.58v6.53a3.86,3.86,0,0,0,.45,2.08,1.88,1.88,0,0,0,1.41.81,2.3,2.3,0,0,0,2.48-1.42v-4.9l-1.28-.17V341Z"/><path class="cls-4" d="M117.51,350.87l2.84,0.37v-6.44l-2.84-.37V341.9l5.16,0.66,0.34,1.56h0.09a5.07,5.07,0,0,1,1.47-1.08,3.37,3.37,0,0,1,1.93-.26,3,3,0,0,1,2.17,1.28,6.06,6.06,0,0,1,.79,3.48l-2.68-.33a2.5,2.5,0,0,0-.24-1.24,1,1,0,0,0-.77-0.48,2.07,2.07,0,0,0-1.48.27,3.86,3.86,0,0,0-1,.94v4.9l5,0.62v2.53c-4.32-.54-6.48-0.81-10.8-1.37v-2.53Z"/><path class="cls-4" d="M140.81,361.15a11.9,11.9,0,0,1-3.12-1.38A10.86,10.86,0,0,1,135,357.4a11.39,11.39,0,0,1-1.87-3.35,12.71,12.71,0,0,1-.7-4.36,11.32,11.32,0,0,1,.7-4.18,8.52,8.52,0,0,1,1.87-2.94,7.88,7.88,0,0,1,2.68-1.77,10.37,10.37,0,0,1,3.12-.71l0.55,2.53a8.69,8.69,0,0,0-1.82.44,5.66,5.66,0,0,0-1.94,1.17,6.54,6.54,0,0,0-1.55,2.22,8.8,8.8,0,0,0-.63,3.6,9.09,9.09,0,0,0,.67,3.64,9.27,9.27,0,0,0,1.62,2.57,8.48,8.48,0,0,0,2,1.64,8.9,8.9,0,0,0,1.7.81Z"/><path class="cls-4" d="M146.58,354.42l3.51,0.4V344.77l-3,2-1.38-2,5.24-3.41,2,0.23v13.57l3.44,0.38V358l-9.81-1.1v-2.53Z"/><path class="cls-4" d="M160.36,355.95l3.51,0.38V346.27l-3,2-1.38-2,5.24-3.44,2,0.21v13.57l3.45,0.36v2.53l-9.81-1v-2.53Z"/><path class="cls-4" d="M176.72,358.7a1.43,1.43,0,0,1,.52-1.19,1.74,1.74,0,0,1,1.3-.33,2.53,2.53,0,0,1,1.91,1,3.51,3.51,0,0,1,.64,2.11,4.11,4.11,0,0,1-.4,1.85,4.34,4.34,0,0,1-1,1.37,5,5,0,0,1-1.44.87,5.41,5.41,0,0,1-1.57.37L176,363.43a6.16,6.16,0,0,0,1.12-.28,3.94,3.94,0,0,0,1-.53,3.07,3.07,0,0,0,.77-0.81,2.24,2.24,0,0,0,.36-1.07,2.94,2.94,0,0,1-1.17-.08,2,2,0,0,1-.79-0.45,1.73,1.73,0,0,1-.45-0.69A2.49,2.49,0,0,1,176.72,358.7Z"/><path class="cls-4" d="M187.94,358.72l3.52,0.33V349l-3,2-1.38-2,5.24-3.52,2,0.18V359.3l3.45,0.31v2.53l-9.82-.89v-2.53Z"/><path class="cls-4" d="M200.17,354.28a13.31,13.31,0,0,1,.44-3.63,6.83,6.83,0,0,1,1.24-2.5,4.54,4.54,0,0,1,1.91-1.39,5.56,5.56,0,0,1,2.47-.31,5.85,5.85,0,0,1,4.48,2.41q1.57,2.16,1.57,6.44a13.42,13.42,0,0,1-.44,3.66,7,7,0,0,1-1.24,2.52,4.49,4.49,0,0,1-1.92,1.41,5.61,5.61,0,0,1-2.48.31,5.7,5.7,0,0,1-4.48-2.53A11.28,11.28,0,0,1,200.17,354.28Zm3,0.26q0,0.35,0,.66t0,0.64l5.57-4.66A2.86,2.86,0,0,0,206.2,349,2.23,2.23,0,0,0,204,350.2,9,9,0,0,0,203.16,354.54Zm6.12,0.51c0-.25,0-0.48,0-0.7s0-.44,0-0.66l-5.59,4.66a2.92,2.92,0,0,0,2.58,2.31,2.26,2.26,0,0,0,2.26-1.21A9,9,0,0,0,209.28,355.05Z"/><path class="cls-4" d="M215.87,366a7.39,7.39,0,0,0,1.7-.48,6.47,6.47,0,0,0,2-1.25,7.09,7.09,0,0,0,1.62-2.26,8.14,8.14,0,0,0,.67-3.51,9.71,9.71,0,0,0-.63-3.73,8.56,8.56,0,0,0-1.55-2.52,7.48,7.48,0,0,0-1.95-1.55,10.42,10.42,0,0,0-1.83-.8l0.55-2.42a12.35,12.35,0,0,1,3.13,1.33,10.44,10.44,0,0,1,2.69,2.3,11,11,0,0,1,1.88,3.3,12.42,12.42,0,0,1,.7,4.32,11.53,11.53,0,0,1-.7,4.23,8.81,8.81,0,0,1-1.88,3,8.21,8.21,0,0,1-2.69,1.84,10,10,0,0,1-3.13.77Z"/><path class="cls-4" d="M325.36,369.26v-2.53l2.72,0.06v-6.44l-2.74-.06v-2.53l2.74,0.06v-0.64a4.17,4.17,0,0,1,.38-1.85,3.63,3.63,0,0,1,1-1.27,4,4,0,0,1,1.44-.72,6,6,0,0,1,1.7-.21,10.88,10.88,0,0,1,2.62.31,6.82,6.82,0,0,1,1.7.69L336,356.4a10.63,10.63,0,0,0-1.14-.48,5.09,5.09,0,0,0-1.58-.24,2.2,2.2,0,0,0-1.74.53,2.46,2.46,0,0,0-.5,1.68l4.84,0.09v2.53l-4.84-.09v6.44l4.87,0.09v2.53C331.71,369.4,329.59,369.36,325.36,369.26Z"/><path class="cls-4" d="M339.64,358.83a12.42,12.42,0,0,1,2.13-.68,12.13,12.13,0,0,1,2.87-.26,6.43,6.43,0,0,1,2,.31A3.47,3.47,0,0,1,348,359a3.14,3.14,0,0,1,.75,1.27A5.56,5.56,0,0,1,349,362q0,1.17-.08,2t-0.08,1.47a9.86,9.86,0,0,0,0,1.08c0,0.21.05,0.42,0.07,0.62l1.5,0v2.53l-3.87,0-0.3-1.57h-0.11a3.9,3.9,0,0,1-1.31,1.21,4.33,4.33,0,0,1-2.29.49,3.94,3.94,0,0,1-2.73-1,3.19,3.19,0,0,1-1-2.45,3.62,3.62,0,0,1,.35-1.66,2.9,2.9,0,0,1,1-1.13,4.83,4.83,0,0,1,1.63-.64,9.49,9.49,0,0,1,2.12-.19c0.27,0,.57,0,0.87.06L346,362.9a2.35,2.35,0,0,0,0-.46V362a1.49,1.49,0,0,0-.5-1.26,2.48,2.48,0,0,0-1.49-.4,6.91,6.91,0,0,0-2.11.27,13.26,13.26,0,0,0-1.58.57Zm3.93,8.5a2.74,2.74,0,0,0,1.64-.38,2.66,2.66,0,0,0,.8-0.85v-1.38l-0.68-.11a7.94,7.94,0,0,0-1-.07,4.75,4.75,0,0,0-.87.07,2.84,2.84,0,0,0-.78.24,1.48,1.48,0,0,0-.55.44,1.07,1.07,0,0,0-.2.66,1.33,1.33,0,0,0,.38,1A1.79,1.79,0,0,0,343.56,367.33Z"/><path class="cls-4" d="M364,368.68a6.58,6.58,0,0,1-2.21,1.06,9.72,9.72,0,0,1-2.65.34,7.56,7.56,0,0,1-2.66-.46,5.48,5.48,0,0,1-2-1.25,5.27,5.27,0,0,1-1.21-1.93,7.17,7.17,0,0,1-.42-2.49,6.43,6.43,0,0,1,.48-2.57,5.36,5.36,0,0,1,1.35-1.9,5.77,5.77,0,0,1,2-1.17,7.89,7.89,0,0,1,2.56-.38,9.51,9.51,0,0,1,2.42.31,11.41,11.41,0,0,1,1.73.58v4h-2.54v-2.11a6.52,6.52,0,0,0-1.43-.17,4.32,4.32,0,0,0-1.28.19,3.1,3.1,0,0,0-1.13.61,3.22,3.22,0,0,0-.81,1.06A3.49,3.49,0,0,0,356,364a3.56,3.56,0,0,0,.25,1.36,3.2,3.2,0,0,0,1.86,1.82,4.14,4.14,0,0,0,1.51.27,5.38,5.38,0,0,0,2.16-.36,8.67,8.67,0,0,0,1.26-.64Z"/><path class="cls-4" d="M367.92,360.83h-2.28v-2.53h2.28v-2.62l3-.85v3.47h6v2.53h-6v3.29a4,4,0,0,0,.67,2.56,2.31,2.31,0,0,0,1.87.79,4,4,0,0,0,1.13-.15,4.29,4.29,0,0,0,.91-0.38,5.21,5.21,0,0,0,.74-0.51l0.61-.51,1.38,2.07a4.46,4.46,0,0,1-1,.84,8.4,8.4,0,0,1-1.27.67,8.06,8.06,0,0,1-1.42.45,6.78,6.78,0,0,1-1.45.16,5,5,0,0,1-3.89-1.44,6.67,6.67,0,0,1-1.3-4.57v-3.29Z"/><path class="cls-4" d="M379.89,364a7.07,7.07,0,0,1,.44-2.58,5.31,5.31,0,0,1,1.25-1.92,5.37,5.37,0,0,1,1.93-1.2,7.43,7.43,0,0,1,2.5-.42,7.22,7.22,0,0,1,2.59.42,5.3,5.3,0,0,1,1.93,1.21,5.11,5.11,0,0,1,1.19,1.91,7.29,7.29,0,0,1,.4,2.48,7.11,7.11,0,0,1-.44,2.58,5.25,5.25,0,0,1-3.17,3.12,7.37,7.37,0,0,1-2.5.42,7.18,7.18,0,0,1-2.6-.42,5.31,5.31,0,0,1-1.93-1.22,5.12,5.12,0,0,1-1.19-1.91A7.31,7.31,0,0,1,379.89,364Zm3.09,0a4.53,4.53,0,0,0,.21,1.4,3.41,3.41,0,0,0,.6,1.12,2.67,2.67,0,0,0,.95.74,2.89,2.89,0,0,0,1.27.26,3,3,0,0,0,2.18-.87A3.73,3.73,0,0,0,389,364a4,4,0,0,0-.78-2.56,2.68,2.68,0,0,0-2.24-1,3.61,3.61,0,0,0-1.2.2,2.39,2.39,0,0,0-1,.64,3.12,3.12,0,0,0-.63,1.11A5,5,0,0,0,383,364Z"/><path class="cls-4" d="M393.83,367.15l2.86,0v-6.44l-2.86,0v-2.53l5.19-.07,0.35,1.51h0.09a6.24,6.24,0,0,1,1.48-1.29,3.7,3.7,0,0,1,1.94-.54,2.58,2.58,0,0,1,2.18,1,5.49,5.49,0,0,1,.8,3.37l-2.7,0a2.29,2.29,0,0,0-.24-1.2,0.83,0.83,0,0,0-.77-0.37,2.32,2.32,0,0,0-1.49.48,4.76,4.76,0,0,0-1,1.07v4.9l5-.08v2.53c-4.35.07-6.52,0.1-10.87,0.15v-2.53Z"/><path class="cls-4" d="M408.13,366.93l4.06-.08v-6.44l-4.06.08V358l7.06-.14v9l4.27-.1v2.53c-4.53.11-6.8,0.16-11.33,0.24v-2.53Zm3.51-12.17a1.66,1.66,0,0,1,.53-1.23,2.09,2.09,0,0,1,1.48-.54,2.22,2.22,0,0,1,1.55.47,1.56,1.56,0,0,1,0,2.43,2.41,2.41,0,0,1-1.55.51,2.11,2.11,0,0,1-1.48-.44A1.51,1.51,0,0,1,411.64,354.77Z"/><path class="cls-4" d="M422.69,358.42a12.92,12.92,0,0,1,2.13-.77,12.3,12.3,0,0,1,2.87-.38,6.32,6.32,0,0,1,2,.23,3.28,3.28,0,0,1,1.36.78,3,3,0,0,1,.75,1.24,5.46,5.46,0,0,1,.23,1.65q0,1.17-.08,2t-0.08,1.47a9.82,9.82,0,0,0,0,1.08c0,0.21.05,0.42,0.07,0.62l1.5,0v2.53l-3.87.12-0.3-1.56h-0.11a4.14,4.14,0,0,1-1.31,1.27,4.45,4.45,0,0,1-2.29.58,3.8,3.8,0,0,1-2.73-.85,3.06,3.06,0,0,1-1-2.41,3.71,3.71,0,0,1,.35-1.68,3.09,3.09,0,0,1,1-1.18,5,5,0,0,1,1.63-.71,9.64,9.64,0,0,1,2.12-.28c0.27,0,.57,0,0.87,0l1.12,0.06a2.38,2.38,0,0,0,0-.46v-0.44a1.43,1.43,0,0,0-.5-1.24,2.41,2.41,0,0,0-1.49-.34,7,7,0,0,0-2.11.36,14,14,0,0,0-1.58.64Zm3.93,8.33a2.58,2.58,0,0,0,2.44-1.33V364l-0.68-.08a7.88,7.88,0,0,0-1,0,4.78,4.78,0,0,0-.87.1,3,3,0,0,0-.78.28,1.57,1.57,0,0,0-.55.46,1.11,1.11,0,0,0-.2.67,1.28,1.28,0,0,0,.38,1A1.73,1.73,0,0,0,426.61,366.76Z"/><path class="cls-4" d="M436.46,352.64l4.91-.17v10.63a4.83,4.83,0,0,0,.44,2.45,1.48,1.48,0,0,0,1.41.64,4,4,0,0,0,1.18-.19,4.67,4.67,0,0,0,.92-0.46l1.13,2q-0.39.27-.78,0.5a5.31,5.31,0,0,1-.83.4,5.8,5.8,0,0,1-1,.26,7.66,7.66,0,0,1-1.16.12,4.23,4.23,0,0,1-3.25-1,4.14,4.14,0,0,1-1.08-3.09V355.1l-1.91.06v-2.53Z"/><path class="cls-4" d="M450.08,370.93c4.1-.16,6.14-0.25,10.24-0.43V373c-4.09.18-6.14,0.27-10.24,0.43v-2.46Z"/><path class="cls-4" d="M462.12,351.63l4.66-.22v5.89h0.09a4.17,4.17,0,0,1,1.47-1.24,5.19,5.19,0,0,1,2.17-.55,5.33,5.33,0,0,1,1.61.15,2.87,2.87,0,0,1,1.27.69,3.34,3.34,0,0,1,.83,1.39,7.09,7.09,0,0,1,.3,2.23v7.15l-3,.15v-6.53a2.73,2.73,0,0,0-.6-2,2,2,0,0,0-1.57-.54,2.73,2.73,0,0,0-1.57.59,3,3,0,0,0-1,1.37v7.34l-3,.14V354.08l-1.66.08v-2.53Z"/><path class="cls-4" d="M488.25,365.13a4.45,4.45,0,0,1-.77.59,8,8,0,0,1-1.11.56,8.92,8.92,0,0,1-1.39.45,9.1,9.1,0,0,1-1.61.23,7.67,7.67,0,0,1-2.64-.27,4.78,4.78,0,0,1-3.2-2.94,7.67,7.67,0,0,1,.06-5.2,5.73,5.73,0,0,1,1.32-2,6,6,0,0,1,2-1.25,7.88,7.88,0,0,1,2.44-.52,7.46,7.46,0,0,1,1.81.13,4.66,4.66,0,0,1,1.72.69,3.91,3.91,0,0,1,1.28,1.43,4.93,4.93,0,0,1,.5,2.36,11.14,11.14,0,0,1-.23,2.15l-8.3.47a2.56,2.56,0,0,0,.31,1.22,2.27,2.27,0,0,0,.76.78,3.11,3.11,0,0,0,1.08.41,5.33,5.33,0,0,0,1.3.08,6.93,6.93,0,0,0,2.27-.45,5.18,5.18,0,0,0,1.44-.87Zm-5-7.92a3.92,3.92,0,0,0-1.13.23,3.38,3.38,0,0,0-1,.53,2.84,2.84,0,0,0-.7.82,2.52,2.52,0,0,0-.32,1.07l5.67-.32A2.14,2.14,0,0,0,483.28,357.21Z"/><path class="cls-4" d="M491.78,350l4.91-.31v10.63a4.76,4.76,0,0,0,.44,2.43,1.44,1.44,0,0,0,1.41.6,4,4,0,0,0,1.17-.23,4.82,4.82,0,0,0,.92-0.49l1.13,2q-0.39.28-.78,0.52a5.47,5.47,0,0,1-.83.42,5.89,5.89,0,0,1-1,.29,7.73,7.73,0,0,1-1.16.16,4.13,4.13,0,0,1-3.25-.9,4,4,0,0,1-1.08-3.06v-9.66l-1.91.12V350Z"/><path class="cls-4" d="M503.6,353.89l3.92-.27,0.35,1.36h0.09a4.76,4.76,0,0,1,3.87-2,5.34,5.34,0,0,1,1.95.19,3.45,3.45,0,0,1,1.52.94,4.49,4.49,0,0,1,1,1.72,8.35,8.35,0,0,1,.35,2.57,8.7,8.7,0,0,1-.39,2.68,6.18,6.18,0,0,1-1.13,2.09,5.35,5.35,0,0,1-1.8,1.39,6.56,6.56,0,0,1-2.42.61,9.42,9.42,0,0,1-1.4,0,3.69,3.69,0,0,1-1.15-.25v4.72l-3,.21V356.3l-1.73.12v-2.53Zm7.32,1.7a3.23,3.23,0,0,0-1.6.55,2.5,2.5,0,0,0-1,1.38v4.78a2.29,2.29,0,0,0,.93.34,5,5,0,0,0,1.23.06,3.36,3.36,0,0,0,1.2-.3,2.71,2.71,0,0,0,1-.77,3.71,3.71,0,0,0,.64-1.26,6.15,6.15,0,0,0,.23-1.79,3.21,3.21,0,0,0-.74-2.29A2.23,2.23,0,0,0,510.92,355.59Z"/><path class="cls-4" d="M529.7,362.24a4.57,4.57,0,0,1-.77.6,8.18,8.18,0,0,1-1.11.58,9.3,9.3,0,0,1-3,.74,7.59,7.59,0,0,1-2.64-.21,4.64,4.64,0,0,1-3.2-2.87,6.83,6.83,0,0,1-.43-2.51,7,7,0,0,1,.48-2.69,5.9,5.9,0,0,1,1.32-2,6.13,6.13,0,0,1,2-1.29,8,8,0,0,1,2.44-.57,7.4,7.4,0,0,1,1.81.09,4.55,4.55,0,0,1,1.72.66,3.79,3.79,0,0,1,1.28,1.4,4.87,4.87,0,0,1,.5,2.35,11.22,11.22,0,0,1-.23,2.16l-8.29.65a2.52,2.52,0,0,0,.31,1.22,2.2,2.2,0,0,0,.76.77,3,3,0,0,0,1.08.39,5.3,5.3,0,0,0,1.3,0,7,7,0,0,0,2.27-.5,5.32,5.32,0,0,0,1.44-.9Zm-5-7.82a4,4,0,0,0-1.13.25,3.47,3.47,0,0,0-1,.55,2.93,2.93,0,0,0-.7.84,2.56,2.56,0,0,0-.32,1.08l5.66-.44A2.09,2.09,0,0,0,524.73,354.43Z"/><path class="cls-4" d="M532.12,360.74l2.85-.23v-6.44l-2.85.23v-2.53l5.18-.43,0.34,1.49h0.09a6.92,6.92,0,0,1,1.47-1.39,3.9,3.9,0,0,1,1.93-.67,2.4,2.4,0,0,1,2.17.82,5.24,5.24,0,0,1,.79,3.31l-2.69.23a2.19,2.19,0,0,0-.24-1.19,0.78,0.78,0,0,0-.77-0.31,2.46,2.46,0,0,0-1.48.59,5.28,5.28,0,0,0-1,1.14v4.9l5-.43v2.53c-4.33.38-6.5,0.56-10.84,0.91v-2.53Z"/><path class="cls-4" d="M555.49,366.1a9.9,9.9,0,0,1-3.13-.72,8,8,0,0,1-2.69-1.8,8.64,8.64,0,0,1-1.88-3,11.46,11.46,0,0,1-.7-4.22,12.52,12.52,0,0,1,.7-4.33,11.23,11.23,0,0,1,1.88-3.33,10.66,10.66,0,0,1,2.69-2.34,12.53,12.53,0,0,1,3.13-1.37l0.55,2.41a10.59,10.59,0,0,0-1.83.83,7.62,7.62,0,0,0-1.94,1.58,8.72,8.72,0,0,0-1.55,2.55,9.79,9.79,0,0,0-.63,3.74,8.09,8.09,0,0,0,.67,3.5,6.94,6.94,0,0,0,1.62,2.23,6.3,6.3,0,0,0,2,1.22,7.28,7.28,0,0,0,1.7.45Z"/><path class="cls-4" d="M564.53,358.15a5,5,0,0,0,1.39-.33,3.72,3.72,0,0,0,1.08-.66,3.06,3.06,0,0,0,.7-0.89,2.26,2.26,0,0,0,.25-1,2,2,0,0,0-.29-1.13,1.8,1.8,0,0,0-.79-0.67,3.53,3.53,0,0,0-1.22-.27,9.72,9.72,0,0,0-1.54,0l-1.29.13v-1.65l3.86-5.1-5.82.57v-2.53l9.38-.93v2.09l-4,5,0.53-.05a4.39,4.39,0,0,1,1.56.12,3.41,3.41,0,0,1,1.34.69,3.54,3.54,0,0,1,.94,1.28,4.53,4.53,0,0,1,.36,1.87,5,5,0,0,1-.54,2.35,6.06,6.06,0,0,1-1.42,1.81,6.88,6.88,0,0,1-2,1.22,8.88,8.88,0,0,1-2.37.57,11.56,11.56,0,0,1-2.07,0,9.32,9.32,0,0,1-2-.38l0.81-2.56a2.93,2.93,0,0,0,.56.18l0.8,0.15a8.29,8.29,0,0,0,.92.09A6.39,6.39,0,0,0,564.53,358.15Z"/><path class="cls-4" d="M578.32,356.74a5,5,0,0,0,1.39-.34,3.76,3.76,0,0,0,1.08-.66,3.09,3.09,0,0,0,.7-0.9,2.27,2.27,0,0,0,.25-1,2,2,0,0,0-.29-1.13,1.78,1.78,0,0,0-.79-0.66,3.51,3.51,0,0,0-1.22-.26,9.72,9.72,0,0,0-1.54,0l-1.29.13v-1.65l3.86-5.13-5.81.61v-2.53l9.37-1v2.09l-4,5.06,0.53-.06a4.38,4.38,0,0,1,1.56.11,3.38,3.38,0,0,1,1.34.68,3.51,3.51,0,0,1,.94,1.28,4.52,4.52,0,0,1,.36,1.87,5.07,5.07,0,0,1-.54,2.36,6.12,6.12,0,0,1-1.42,1.82,6.94,6.94,0,0,1-2,1.23,8.91,8.91,0,0,1-2.37.58,11.55,11.55,0,0,1-2.07,0,9.3,9.3,0,0,1-2-.37l0.8-2.57a2.9,2.9,0,0,0,.56.17l0.8,0.15a8.29,8.29,0,0,0,.92.09A6.38,6.38,0,0,0,578.32,356.74Z"/><path class="cls-4" d="M598.41,356.73c-4.1.47-6.14,0.7-10.24,1.16v-2.23l0.69-.69,0.93-1q0.52-.54,1.09-1.18t1.13-1.32q0.78-1,1.37-1.74a13.24,13.24,0,0,0,1-1.45,6.28,6.28,0,0,0,.56-1.31,4.51,4.51,0,0,0,.18-1.27,1.93,1.93,0,0,0-.21-0.87,2.09,2.09,0,0,0-.57-0.71,2.4,2.4,0,0,0-.88-0.43,3.07,3.07,0,0,0-1.14-.07,4.6,4.6,0,0,0-1.5.42,6,6,0,0,0-1.41,1l-1.19-2a11.7,11.7,0,0,1,2.15-1.4,7.88,7.88,0,0,1,2.72-.78,6.31,6.31,0,0,1,1.89.06,4.39,4.39,0,0,1,1.61.63,3.35,3.35,0,0,1,1.11,1.22,3.74,3.74,0,0,1,.41,1.82,7.24,7.24,0,0,1-.13,1.38,7.37,7.37,0,0,1-.39,1.31,9.83,9.83,0,0,1-.69,1.38q-0.43.72-1,1.57-0.46.65-1,1.32t-1.07,1.28q-0.53.61-1,1.15t-0.93.91l6.61-.75v2.53Z"/><path class="cls-4" d="M612.71,350a5.52,5.52,0,0,1-.42,2.14,6.22,6.22,0,0,1-1.16,1.82,6.37,6.37,0,0,1-1.75,1.34,6.5,6.5,0,0,1-4.43.57,4.35,4.35,0,0,1-1.82-.92,4.6,4.6,0,0,1-1.24-1.76,6.74,6.74,0,0,1-.46-2.61,11.18,11.18,0,0,1,.79-4.23,13.36,13.36,0,0,1,2-3.47,12.62,12.62,0,0,1,2.78-2.54,10.56,10.56,0,0,1,3.05-1.44l0.67,2.29a10.1,10.1,0,0,0-2.27,1,9.86,9.86,0,0,0-1.88,1.48,9,9,0,0,0-1.39,1.8,6.49,6.49,0,0,0-.77,2,4.19,4.19,0,0,1,1.38-1.14,5.43,5.43,0,0,1,2-.64,5.28,5.28,0,0,1,1.93.1,3.68,3.68,0,0,1,2.58,2.2A5.11,5.11,0,0,1,612.71,350Zm-2.89.47a2.09,2.09,0,0,0-.75-1.8,2.72,2.72,0,0,0-2-.4,3.66,3.66,0,0,0-1.65.61,3.48,3.48,0,0,0-1.08,1.09,4.08,4.08,0,0,0-.06.57q0,0.31,0,.5a2.9,2.9,0,0,0,.18,1,2.13,2.13,0,0,0,1.4,1.32,2.78,2.78,0,0,0,1.17.08,3.09,3.09,0,0,0,1-.32,3.44,3.44,0,0,0,.9-0.65,3.14,3.14,0,0,0,.63-0.92A2.67,2.67,0,0,0,609.82,350.5Z"/><path class="cls-4" d="M627.18,348.71l-2.75.36v4.49l-2.77.36v-4.49l-6.95.87v-2l7.27-10.6,2.45-.32v9.34l2.75-.36v2.39Zm-5.53-6.78-4,5.61,4-.51v-5.11Z"/><path class="cls-4" d="M628.58,344.94a14.45,14.45,0,0,1,.44-3.73,8.78,8.78,0,0,1,1.23-2.77,6.2,6.2,0,0,1,1.9-1.8,6.36,6.36,0,0,1,2.46-.85,4.67,4.67,0,0,1,4.46,1.43q1.56,1.82,1.56,6.1a14.55,14.55,0,0,1-.44,3.75,9,9,0,0,1-1.23,2.79,6.14,6.14,0,0,1-1.91,1.82,6.42,6.42,0,0,1-2.47.85,4.52,4.52,0,0,1-4.46-1.56Q628.58,349,628.58,344.94Zm3-.39c0,0.23,0,.45,0,0.65s0,0.42,0,.63l5.55-5.87a2.19,2.19,0,0,0-2.57-1.63,2.9,2.9,0,0,0-2.24,1.71A10.13,10.13,0,0,0,631.56,344.54Zm6.1-.82q0-.37,0-0.7c0-.22,0-0.44,0-0.65L632,348.25a2.23,2.23,0,0,0,2.57,1.75,2.93,2.93,0,0,0,2.25-1.71A10.16,10.16,0,0,0,637.66,343.72Z"/><path class="cls-4" d="M646.45,349.11a1.82,1.82,0,0,1,.52-1.31,2.17,2.17,0,0,1,1.29-.64,2,2,0,0,1,1.9.56,2.88,2.88,0,0,1,.64,2,4.76,4.76,0,0,1-.4,1.94,6.06,6.06,0,0,1-1,1.62,6.9,6.9,0,0,1-1.43,1.22,6.71,6.71,0,0,1-1.57.75L645.74,354a7.72,7.72,0,0,0,1.11-.55,5.47,5.47,0,0,0,1-.78,4.38,4.38,0,0,0,.77-1,2.76,2.76,0,0,0,.35-1.15,3,3,0,0,1-1.17.2,1.53,1.53,0,0,1-.79-0.26,1.24,1.24,0,0,1-.45-0.58A2.2,2.2,0,0,1,646.45,349.11Z"/><path class="cls-4" d="M660.62,346.21a5.46,5.46,0,0,0,1.4-.39,4.18,4.18,0,0,0,1.11-.69,3,3,0,0,0,.73-1,2.69,2.69,0,0,0,.26-1.19,2,2,0,0,0-1-1.84,4.71,4.71,0,0,0-3-.28l-0.58.1-0.63.13-0.71.13v-8.42l8.28-1.23v2.81l-5.72.86v3.1l0.37-.08,0.31-.06,0.26-.05a6.35,6.35,0,0,1,2.13,0,4,4,0,0,1,1.72.74,3.67,3.67,0,0,1,1.13,1.45,5,5,0,0,1,.4,2,5.84,5.84,0,0,1-.5,2.46,6.13,6.13,0,0,1-1.37,1.92,7.47,7.47,0,0,1-2,1.35,9,9,0,0,1-2.45.72,6,6,0,0,1-1.08.06q-0.57,0-1.12-.09a8.86,8.86,0,0,1-1-.18,7.93,7.93,0,0,1-.79-0.23l1-2.53a5.9,5.9,0,0,0,1.2.33A5.06,5.06,0,0,0,660.62,346.21Z"/><path class="cls-4" d="M671.67,349.24a9.23,9.23,0,0,0,1.69-.87,8.93,8.93,0,0,0,2-1.71,9.74,9.74,0,0,0,1.61-2.63,9.3,9.3,0,0,0,.66-3.67,8.67,8.67,0,0,0-.63-3.58,6.23,6.23,0,0,0-1.54-2.16,5.39,5.39,0,0,0-1.93-1.1,8.45,8.45,0,0,0-1.82-.38l0.55-2.55a10.08,10.08,0,0,1,3.11.6,7.47,7.47,0,0,1,2.67,1.68,8.12,8.12,0,0,1,1.86,2.87,11.17,11.17,0,0,1,.7,4.16,13,13,0,0,1-.7,4.39A11.93,11.93,0,0,1,678,347.7a11.43,11.43,0,0,1-2.67,2.47,12.34,12.34,0,0,1-3.11,1.49Z"/><path class="cls-4" d="M61,448.27v-2.53l2.7,0.43v-6.44L61,439.29v-2.53l2.72,0.43v-0.64a3.88,3.88,0,0,1,.38-1.8,3,3,0,0,1,1-1.13,3.42,3.42,0,0,1,1.43-.53,5.72,5.72,0,0,1,1.68,0,11.56,11.56,0,0,1,2.6.66,7.9,7.9,0,0,1,1.68.91l-0.87,2.14a12.24,12.24,0,0,0-1.13-.63,5.45,5.45,0,0,0-1.57-.45,2,2,0,0,0-1.73.3,2.21,2.21,0,0,0-.49,1.61l4.8,0.74v2.53l-4.8-.74v6.44l4.83,0.74v2.53C67.3,449.26,65.2,448.93,61,448.27Z"/><path class="cls-4" d="M75.16,439.74a11.17,11.17,0,0,1,2.12-.39,11.82,11.82,0,0,1,2.85.13,6.9,6.9,0,0,1,2,.59,4.14,4.14,0,0,1,1.35,1,3.74,3.74,0,0,1,.74,1.37,5.91,5.91,0,0,1,.23,1.69q0,1.17-.08,2t-0.08,1.46a10.1,10.1,0,0,0,0,1.09c0,0.21.05,0.43,0.07,0.63l1.49,0.22v2.53l-3.84-.56-0.3-1.61-0.11,0a3.19,3.19,0,0,1-1.3,1,4,4,0,0,1-2.27.18,4.47,4.47,0,0,1-2.71-1.33,3.65,3.65,0,0,1-1-2.59,3.35,3.35,0,0,1,.35-1.61,2.38,2.38,0,0,1,1-1,4.23,4.23,0,0,1,1.61-.42,9.26,9.26,0,0,1,2.1.09q0.41,0.06.86,0.17l1.11,0.26a2.28,2.28,0,0,0,0-.45v-0.44a1.7,1.7,0,0,0-.5-1.33,2.76,2.76,0,0,0-1.48-.6,6.63,6.63,0,0,0-2.09,0,11.75,11.75,0,0,0-1.57.36Zm3.89,9a2.52,2.52,0,0,0,1.63-.16,2.17,2.17,0,0,0,.79-0.75v-1.38l-0.68-.2a8.27,8.27,0,0,0-1-.2,4.63,4.63,0,0,0-.86,0,2.55,2.55,0,0,0-.77.14,1.21,1.21,0,0,0-.54.37,1,1,0,0,0-.2.64,1.51,1.51,0,0,0,.37,1.06A2,2,0,0,0,79.05,448.76Z"/><path class="cls-4" d="M99.33,452.85a5.66,5.66,0,0,1-2.2.76,9.32,9.32,0,0,1-2.63,0,8.17,8.17,0,0,1-2.65-.81,6.56,6.56,0,0,1-1.95-1.51,6.29,6.29,0,0,1-1.2-2.09,7.69,7.69,0,0,1-.41-2.54,6,6,0,0,1,.48-2.51,4.44,4.44,0,0,1,1.34-1.72,4.88,4.88,0,0,1,2-.9,7.52,7.52,0,0,1,2.54,0,10.14,10.14,0,0,1,2.4.64,12.91,12.91,0,0,1,1.72.81v4l-2.52-.35v-2.12a6.9,6.9,0,0,0-1.42-.36,4.14,4.14,0,0,0-1.27,0,2.58,2.58,0,0,0-1.92,1.42,3.26,3.26,0,0,0-.31,1.5,3.85,3.85,0,0,0,.25,1.39,3.9,3.9,0,0,0,.71,1.18,4,4,0,0,0,1.13.88A4.49,4.49,0,0,0,95,451,5.09,5.09,0,0,0,97.1,451a7.35,7.35,0,0,0,1.25-.47Z"/><path class="cls-4" d="M103.22,445.52l-2.27-.31v-2.53l2.27,0.31v-2.62l3-.45v3.47l6,0.8v2.53l-6-.8v3.29a4.39,4.39,0,0,0,.66,2.65,2.66,2.66,0,0,0,1.86,1,3.84,3.84,0,0,0,1.12,0,3.74,3.74,0,0,0,.91-0.26,4.31,4.31,0,0,0,.73-0.41l0.61-.43,1.38,2.25a3.66,3.66,0,0,1-1,.71,7.09,7.09,0,0,1-1.26.5,7.25,7.25,0,0,1-1.41.26,6.58,6.58,0,0,1-1.44,0,5.68,5.68,0,0,1-3.86-2,7.45,7.45,0,0,1-1.29-4.74v-3.29Z"/><path class="cls-4" d="M115.12,450.32a6.66,6.66,0,0,1,.44-2.52,4.43,4.43,0,0,1,1.24-1.75,4.51,4.51,0,0,1,1.91-.94,7,7,0,0,1,2.49-.08,7.79,7.79,0,0,1,2.58.76,6.34,6.34,0,0,1,1.92,1.47,6.08,6.08,0,0,1,1.18,2.07,7.81,7.81,0,0,1,.4,2.53,6.68,6.68,0,0,1-.44,2.52,4.46,4.46,0,0,1-1.24,1.76,4.51,4.51,0,0,1-1.92.94,7,7,0,0,1-2.49.09,7.75,7.75,0,0,1-2.58-.77,6.35,6.35,0,0,1-1.91-1.48,6.11,6.11,0,0,1-1.18-2.07A7.82,7.82,0,0,1,115.12,450.32Zm3.07,0.4a4.83,4.83,0,0,0,.21,1.43,4,4,0,0,0,.6,1.2,3.25,3.25,0,0,0,.94.87,3.15,3.15,0,0,0,1.26.43,2.61,2.61,0,0,0,2.17-.58,3.34,3.34,0,0,0,.84-2.59,4.42,4.42,0,0,0-.78-2.66,3.1,3.1,0,0,0-2.22-1.26,3.42,3.42,0,0,0-1.19,0,2,2,0,0,0-1,.51,2.61,2.61,0,0,0-.63,1A4.7,4.7,0,0,0,118.19,450.72Z"/><path class="cls-4" d="M129,455.29l2.85,0.35V449.2l-2.85-.35v-2.53l5.16,0.63,0.34,1.56h0.09a5.12,5.12,0,0,1,1.47-1.09,3.39,3.39,0,0,1,1.93-.28,3,3,0,0,1,2.17,1.27,6,6,0,0,1,.79,3.47l-2.69-.32a2.49,2.49,0,0,0-.24-1.24,1,1,0,0,0-.77-0.47,2.09,2.09,0,0,0-1.48.28,3.89,3.89,0,0,0-1,.94V456l5,0.59v2.53c-4.32-.51-6.49-0.77-10.81-1.3v-2.53Z"/><path class="cls-4" d="M143.2,457l4,0.46V451l-4-.46V448l7,0.8c0,3.59,0,5.38,0,9l4.25,0.47v2.53c-4.51-.5-6.77-0.75-11.27-1.27V457Zm3.49-11.7a1.44,1.44,0,0,1,.53-1.16,1.87,1.87,0,0,1,1.47-.34,2.5,2.5,0,0,1,1.54.68,1.77,1.77,0,0,1,.57,1.28,1.32,1.32,0,0,1-.57,1.14,2.17,2.17,0,0,1-1.54.3,2.37,2.37,0,0,1-1.47-.64A1.73,1.73,0,0,1,146.69,445.29Z"/><path class="cls-4" d="M157.69,450.42a11.52,11.52,0,0,1,2.12-.48,11.87,11.87,0,0,1,2.86,0,6.73,6.73,0,0,1,2,.5,3.92,3.92,0,0,1,1.36,1,3.55,3.55,0,0,1,.75,1.34,5.79,5.79,0,0,1,.23,1.68q0,1.17-.08,2t-0.08,1.46a10,10,0,0,0,0,1.09c0,0.21.05,0.43,0.07,0.63l1.49,0.15v2.53l-3.86-.4-0.3-1.6h-0.11a3.4,3.4,0,0,1-1.3,1.09,4.1,4.1,0,0,1-2.28.28,4.29,4.29,0,0,1-2.72-1.21,3.5,3.5,0,0,1-1-2.55,3.43,3.43,0,0,1,.35-1.63,2.54,2.54,0,0,1,1-1,4.41,4.41,0,0,1,1.62-.49,9.29,9.29,0,0,1,2.11,0c0.27,0,.56.07,0.87,0.14l1.12,0.21a2.3,2.3,0,0,0,0-.46v-0.44a1.63,1.63,0,0,0-.5-1.31,2.67,2.67,0,0,0-1.48-.54,6.71,6.71,0,0,0-2.1.08,12.23,12.23,0,0,0-1.57.43Zm3.91,8.86a2.58,2.58,0,0,0,1.64-.23,2.31,2.31,0,0,0,.8-0.78V456.9l-0.68-.18a8.14,8.14,0,0,0-1-.16,4.64,4.64,0,0,0-.86,0,2.64,2.64,0,0,0-.77.17,1.29,1.29,0,0,0-.55.39,1,1,0,0,0-.2.65,1.45,1.45,0,0,0,.37,1A1.94,1.94,0,0,0,161.6,459.28Z"/><path class="cls-4" d="M171.41,446.48l4.9,0.49v10.63a5.2,5.2,0,0,0,.44,2.5,1.72,1.72,0,0,0,1.4.83,3.76,3.76,0,0,0,1.17,0,4,4,0,0,0,.92-0.34l1.13,2.18q-0.39.22-.78,0.4a4.59,4.59,0,0,1-.83.29,5.31,5.31,0,0,1-1,.14,7.5,7.5,0,0,1-1.16,0,4.78,4.78,0,0,1-3.24-1.42,4.68,4.68,0,0,1-1.08-3.24V449.2l-1.91-.19v-2.53Z"/><path class="cls-4" d="M193.66,469.57a11.6,11.6,0,0,1-3.13-1.29,10.44,10.44,0,0,1-2.69-2.29,11,11,0,0,1-1.87-3.3,12.52,12.52,0,0,1-.7-4.34,11.46,11.46,0,0,1,.7-4.2,8.84,8.84,0,0,1,1.87-3,8.21,8.21,0,0,1,2.69-1.85,10.61,10.61,0,0,1,3.13-.8l0.55,2.51a8.88,8.88,0,0,0-1.83.49,5.89,5.89,0,0,0-1.94,1.23,6.79,6.79,0,0,0-1.55,2.26,9.26,9.26,0,0,0,1.66,9.78,8.16,8.16,0,0,0,2,1.58,8.65,8.65,0,0,0,1.7.76Z"/><path class="cls-4" d="M199.44,462.68L203,463V452.93l-3,2.06-1.38-2,5.25-3.55,2,0.17v13.57l3.45,0.28V466l-9.83-.83v-2.53Z"/><path class="cls-4" d="M213.24,463.82l3.52,0.28V454l-3,2.08-1.38-1.95,5.25-3.59,2,0.16v13.57l3.45,0.26v2.53c-3.93-.29-5.9-0.44-9.83-0.76v-2.53Z"/><path class="cls-4" d="M227.38,469.8a7.43,7.43,0,0,0,1.7-.49,6.52,6.52,0,0,0,2-1.26,7.16,7.16,0,0,0,1.62-2.27,8.17,8.17,0,0,0,.67-3.52,9.68,9.68,0,0,0-.63-3.72,8.49,8.49,0,0,0-1.55-2.51,7.41,7.41,0,0,0-1.95-1.54,10.35,10.35,0,0,0-1.83-.79l0.55-2.42a12.28,12.28,0,0,1,3.13,1.3,10.34,10.34,0,0,1,2.69,2.28,10.92,10.92,0,0,1,1.88,3.29,12.39,12.39,0,0,1,.7,4.31,11.58,11.58,0,0,1-.7,4.23,8.89,8.89,0,0,1-1.88,3,8.29,8.29,0,0,1-2.69,1.86,10.07,10.07,0,0,1-3.13.79Z"/><path class="cls-4" d="M379,472.56V470h2.72v-6.44H379v-2.53h2.74V460.4a4.23,4.23,0,0,1,.38-1.87,3.78,3.78,0,0,1,1-1.29,4.15,4.15,0,0,1,1.44-.76,6,6,0,0,1,1.7-.25,10.78,10.78,0,0,1,2.62.24,6.65,6.65,0,0,1,1.7.64l-0.88,2.29a10.28,10.28,0,0,0-1.14-.45,5,5,0,0,0-1.58-.19,2.26,2.26,0,0,0-1.74.58,2.52,2.52,0,0,0-.5,1.69l4.84,0v2.53l-4.84,0V470l4.87,0v2.53C385.38,472.52,383.26,472.54,379,472.56Z"/><path class="cls-4" d="M393.31,461.72a12.76,12.76,0,0,1,2.13-.74,12.25,12.25,0,0,1,2.87-.34,6.36,6.36,0,0,1,2,.26,3.34,3.34,0,0,1,1.36.79,3,3,0,0,1,.75,1.25,5.5,5.5,0,0,1,.23,1.65q0,1.17-.08,2t-0.08,1.47a9.82,9.82,0,0,0,0,1.08c0,0.21.05,0.42,0.07,0.62l1.5,0v2.53l-3.87.06-0.3-1.56h-0.11a4.06,4.06,0,0,1-1.31,1.25,4.41,4.41,0,0,1-2.29.55,3.85,3.85,0,0,1-2.73-.89,3.11,3.11,0,0,1-1-2.43,3.68,3.68,0,0,1,.35-1.67,3,3,0,0,1,1-1.16,5,5,0,0,1,1.63-.69,9.6,9.6,0,0,1,2.12-.25c0.27,0,.57,0,0.87,0l1.12,0.08a2.37,2.37,0,0,0,0-.46v-0.44a1.45,1.45,0,0,0-.5-1.25,2.43,2.43,0,0,0-1.49-.36,7,7,0,0,0-2.11.33,13.65,13.65,0,0,0-1.58.62Zm3.93,8.39a2.53,2.53,0,0,0,2.44-1.3v-1.38l-0.68-.09a8,8,0,0,0-1,0,4.79,4.79,0,0,0-.87.09,2.92,2.92,0,0,0-.78.26,1.54,1.54,0,0,0-.55.46,1.09,1.09,0,0,0-.2.67,1.29,1.29,0,0,0,.38,1A1.75,1.75,0,0,0,397.23,470.11Z"/><path class="cls-4" d="M417.67,470.9a6.8,6.8,0,0,1-2.21,1.12,9.81,9.81,0,0,1-2.65.42,7.46,7.46,0,0,1-2.66-.38,5.27,5.27,0,0,1-2-1.19A5.08,5.08,0,0,1,407,469a7.08,7.08,0,0,1-.42-2.48,6.53,6.53,0,0,1,.48-2.59,5.58,5.58,0,0,1,1.35-1.93,6,6,0,0,1,2-1.23,8,8,0,0,1,2.56-.46,9.43,9.43,0,0,1,2.42.24,11.11,11.11,0,0,1,1.73.53v4l-2.54.06v-2.12a6.48,6.48,0,0,0-1.43-.13,4.39,4.39,0,0,0-1.28.22,3.22,3.22,0,0,0-1.13.64,3.36,3.36,0,0,0-.81,1.09,3.55,3.55,0,0,0-.31,1.55,3.51,3.51,0,0,0,.25,1.35,3.07,3.07,0,0,0,1.86,1.77,4.08,4.08,0,0,0,1.51.23,5.46,5.46,0,0,0,2.16-.42,9,9,0,0,0,1.26-.67Z"/><path class="cls-4" d="M421.59,462.93l-2.28.06c0-1,0-1.52,0-2.53l2.28-.06c0-1,0-1.57,0-2.62l3-.93c0,1.39,0,2.08,0,3.47l6-.18v2.53l-6,.18c0,1.32,0,2,0,3.29a3.88,3.88,0,0,0,.67,2.55,2.25,2.25,0,0,0,1.87.74,4.05,4.05,0,0,0,1.13-.18,4.42,4.42,0,0,0,.91-0.41,5.44,5.44,0,0,0,.74-0.53l0.61-.52,1.38,2a4.64,4.64,0,0,1-1,.87,8.68,8.68,0,0,1-1.27.71,8.27,8.27,0,0,1-1.42.49,6.86,6.86,0,0,1-1.45.2,4.85,4.85,0,0,1-3.89-1.33q-1.3-1.4-1.3-4.53v-3.29Z"/><path class="cls-4" d="M433.56,465.8a7.17,7.17,0,0,1,.44-2.59,5.44,5.44,0,0,1,3.17-3.2,7.54,7.54,0,0,1,2.5-.49,7.13,7.13,0,0,1,2.59.34,5.1,5.1,0,0,1,1.93,1.16,4.92,4.92,0,0,1,1.19,1.87,7.82,7.82,0,0,1,0,5.06,5.46,5.46,0,0,1-3.17,3.21,7.48,7.48,0,0,1-2.5.49,7.09,7.09,0,0,1-2.59-.35,5.11,5.11,0,0,1-1.93-1.17,4.94,4.94,0,0,1-1.19-1.88A7.22,7.22,0,0,1,433.56,465.8Zm3.09-.1a4.48,4.48,0,0,0,.21,1.4,3.3,3.3,0,0,0,.6,1.11,2.57,2.57,0,0,0,.94.71,2.84,2.84,0,0,0,1.27.22,3,3,0,0,0,2.18-.93,4.66,4.66,0,0,0,.06-5.26,2.61,2.61,0,0,0-2.24-.9,3.66,3.66,0,0,0-1.2.24,2.48,2.48,0,0,0-1,.67,3.24,3.24,0,0,0-.63,1.13A5,5,0,0,0,436.65,465.7Z"/><path class="cls-4" d="M447.49,468.52l2.86-.11V462l-2.86.11v-2.53l5.19-.21,0.35,1.5h0.09a6.5,6.5,0,0,1,1.48-1.33,3.78,3.78,0,0,1,1.94-.59,2.51,2.51,0,0,1,2.18.92,5.39,5.39,0,0,1,.79,3.34l-2.7.12a2.25,2.25,0,0,0-.24-1.2,0.81,0.81,0,0,0-.77-0.35,2.37,2.37,0,0,0-1.49.52,5,5,0,0,0-1,1.1c0,2,0,2.94,0,4.9l5-.22c0,1,0,1.52,0,2.53-4.34.19-6.52,0.29-10.86,0.46C447.49,470,447.49,469.54,447.49,468.52Z"/><path class="cls-4" d="M461.78,467.91l4.06-.19c0-2.58,0-3.86,0-6.44l-4.06.19v-2.53l7.05-.34c0,3.59,0,5.38,0,9l4.26-.22c0,1,0,1.52,0,2.53-4.53.24-6.79,0.35-11.32,0.56v-2.53Zm3.5-12.26a1.71,1.71,0,0,1,.53-1.24,2.15,2.15,0,0,1,1.47-.58,2.17,2.17,0,0,1,1.54.43,1.48,1.48,0,0,1,.58,1.19,1.57,1.57,0,0,1-.58,1.24,2.47,2.47,0,0,1-1.54.55,2.06,2.06,0,0,1-1.47-.4A1.46,1.46,0,0,1,465.28,455.65Z"/><path class="cls-4" d="M476.33,459a13.27,13.27,0,0,1,2.13-.83,12.43,12.43,0,0,1,2.87-.46,6.26,6.26,0,0,1,2,.17,3.17,3.17,0,0,1,1.36.74,2.87,2.87,0,0,1,.75,1.22,5.41,5.41,0,0,1,.23,1.64q0,1.17-.08,2T485.54,465a9.79,9.79,0,0,0,0,1.08c0,0.21.05,0.42,0.07,0.62l1.5-.09c0,1,0,1.52,0,2.53l-3.87.23-0.3-1.55h-0.11a4.32,4.32,0,0,1-1.31,1.3,4.54,4.54,0,0,1-2.29.65,3.71,3.71,0,0,1-2.73-.77,3,3,0,0,1-1-2.38,3.78,3.78,0,0,1,.35-1.69,3.22,3.22,0,0,1,1-1.21,5.2,5.2,0,0,1,1.63-.76,9.72,9.72,0,0,1,2.12-.34c0.27,0,.56,0,0.87,0l1.12,0a2.4,2.4,0,0,0,0-.46v-0.44a1.39,1.39,0,0,0-.5-1.23,2.36,2.36,0,0,0-1.49-.29,7.13,7.13,0,0,0-2.1.42,14.28,14.28,0,0,0-1.58.68Zm3.92,8.22a2.88,2.88,0,0,0,1.64-.49,3,3,0,0,0,.8-0.91v-1.38l-0.68-.06a7.82,7.82,0,0,0-1,0,4.82,4.82,0,0,0-.87.13,3,3,0,0,0-.77.3,1.64,1.64,0,0,0-.55.48,1.13,1.13,0,0,0-.2.68,1.24,1.24,0,0,0,.38,1A1.7,1.7,0,0,0,480.25,467.22Z"/><path class="cls-4" d="M490.08,452.82l4.91-.31c0,4.25,0,6.38,0,10.63a4.76,4.76,0,0,0,.44,2.43,1.44,1.44,0,0,0,1.41.6,4,4,0,0,0,1.17-.23,4.79,4.79,0,0,0,.92-0.49l1.13,2q-0.39.28-.78,0.52a5.44,5.44,0,0,1-.83.42,5.91,5.91,0,0,1-1,.29,7.73,7.73,0,0,1-1.16.16,4.13,4.13,0,0,1-3.25-.9,4,4,0,0,1-1.08-3.06c0-3.86,0-5.8,0-9.66l-1.91.12C490.08,454.34,490.08,453.83,490.08,452.82Z"/><path class="cls-4" d="M503.69,470.73c4.09-.28,6.14-0.42,10.22-0.72v2.46c-4.09.3-6.13,0.44-10.22,0.72C503.69,472.21,503.69,471.72,503.69,470.73Z"/><path class="cls-4" d="M515.72,451.09l4.65-.35c0,2.35,0,3.53,0,5.89h0.09a4.35,4.35,0,0,1,1.47-1.29,5.76,5.76,0,0,1,3.78-.5,2.76,2.76,0,0,1,1.27.66,3.22,3.22,0,0,1,.83,1.37,7,7,0,0,1,.3,2.22v7.15l-3,.24v-6.53a2.67,2.67,0,0,0-.6-2,1.94,1.94,0,0,0-1.57-.5,2.8,2.8,0,0,0-1.56.64,3.13,3.13,0,0,0-1,1.4v7.34l-3,.23c0-5.43,0-8.14,0-13.57l-1.66.12C515.72,452.61,515.72,452.1,515.72,451.09Z"/><path class="cls-4" d="M541.81,463.87a4.64,4.64,0,0,1-.77.61,8.24,8.24,0,0,1-1.1.59,9.32,9.32,0,0,1-3,.76,7.58,7.58,0,0,1-2.63-.19,4.6,4.6,0,0,1-3.2-2.85,6.81,6.81,0,0,1-.43-2.51,7.05,7.05,0,0,1,.48-2.7,6,6,0,0,1,1.32-2,6.18,6.18,0,0,1,2-1.3,8,8,0,0,1,2.44-.59,7.4,7.4,0,0,1,1.81.08,4.52,4.52,0,0,1,1.71.65,3.75,3.75,0,0,1,1.28,1.4,4.85,4.85,0,0,1,.5,2.35,11.25,11.25,0,0,1-.23,2.16l-8.28.71a2.51,2.51,0,0,0,.31,1.22,2.18,2.18,0,0,0,.76.76,3,3,0,0,0,1.08.38,5.3,5.3,0,0,0,1.3,0,7,7,0,0,0,2.27-.52,5.36,5.36,0,0,0,1.44-.91Zm-5-7.78a4,4,0,0,0-1.13.26,3.5,3.5,0,0,0-1,.56,3,3,0,0,0-.7.84,2.58,2.58,0,0,0-.32,1.08l5.66-.48A2.07,2.07,0,0,0,536.84,456.08Z"/><path class="cls-4" d="M545.33,448.67l4.9-.44c0,4.25,0,6.38,0,10.63a4.69,4.69,0,0,0,.44,2.42,1.4,1.4,0,0,0,1.4.56,4,4,0,0,0,1.17-.26,5,5,0,0,0,.92-0.51l1.13,2q-0.39.29-.78,0.55a5.63,5.63,0,0,1-.83.45,6,6,0,0,1-1,.32,7.78,7.78,0,0,1-1.16.19,4,4,0,0,1-3.24-.81,3.94,3.94,0,0,1-1.08-3c0-3.86,0-5.8,0-9.66l-1.91.17C545.33,450.19,545.33,449.69,545.33,448.67Z"/><path class="cls-4" d="M557.13,452.19l3.91-.38,0.34,1.35h0.09a4.9,4.9,0,0,1,3.86-2.08,5.28,5.28,0,0,1,1.94.14,3.33,3.33,0,0,1,1.52.89,4.34,4.34,0,0,1,1,1.69,8.27,8.27,0,0,1,.34,2.56,8.83,8.83,0,0,1-.39,2.7,6.4,6.4,0,0,1-1.13,2.13,5.56,5.56,0,0,1-1.79,1.45,6.68,6.68,0,0,1-2.41.68,9.41,9.41,0,0,1-1.4,0,3.62,3.62,0,0,1-1.15-.22v4.71l-3,.29c0-5.43,0-8.14,0-13.57l-1.72.16v-2.53Zm7.31,1.5a3.3,3.3,0,0,0-1.6.59,2.59,2.59,0,0,0-1,1.41v4.78a2.22,2.22,0,0,0,.93.31,5,5,0,0,0,1.23,0,3.42,3.42,0,0,0,1.2-.34,2.82,2.82,0,0,0,1-.8,3.85,3.85,0,0,0,.64-1.28,6.23,6.23,0,0,0,.23-1.79,3.13,3.13,0,0,0-.74-2.27A2.17,2.17,0,0,0,564.44,453.68Z"/><path class="cls-4" d="M583.19,459.81a4.77,4.77,0,0,1-.77.62,8.47,8.47,0,0,1-1.1.61,9.46,9.46,0,0,1-3,.83,7.53,7.53,0,0,1-2.63-.14A4.46,4.46,0,0,1,572.5,459a6.75,6.75,0,0,1-.42-2.5,7.14,7.14,0,0,1,.48-2.71,6.13,6.13,0,0,1,1.32-2,6.36,6.36,0,0,1,2-1.34,8.1,8.1,0,0,1,2.44-.64,7.34,7.34,0,0,1,1.8,0,4.42,4.42,0,0,1,1.71.61,3.64,3.64,0,0,1,1.27,1.37,4.8,4.8,0,0,1,.49,2.34,11.35,11.35,0,0,1-.23,2.16l-8.27.88a2.47,2.47,0,0,0,.31,1.21,2.11,2.11,0,0,0,.76.75,3,3,0,0,0,1.08.36,5.28,5.28,0,0,0,1.3,0,7.11,7.11,0,0,0,2.26-.56,5.51,5.51,0,0,0,1.44-.94Zm-5-7.68a4,4,0,0,0-1.13.28,3.59,3.59,0,0,0-1,.58,3,3,0,0,0-.7.86,2.63,2.63,0,0,0-.32,1.09l5.65-.6A2,2,0,0,0,578.23,452.13Z"/><path class="cls-4" d="M585.6,458.24l2.85-.31v-6.44l-2.85.31v-2.53l5.17-.57,0.34,1.48h0.09a7.2,7.2,0,0,1,1.47-1.43,4,4,0,0,1,1.93-.73,2.33,2.33,0,0,1,2.17.76,5.14,5.14,0,0,1,.79,3.29l-2.69.31a2.16,2.16,0,0,0-.24-1.18,0.75,0.75,0,0,0-.77-0.29,2.53,2.53,0,0,0-1.48.63,5.49,5.49,0,0,0-1,1.17v4.9l5-.57c0,1,0,1.52,0,2.53-4.33.5-6.49,0.74-10.82,1.22v-2.53Z"/><path class="cls-4" d="M608.93,462.94a9.7,9.7,0,0,1-3.12-.63,7.71,7.71,0,0,1-2.68-1.73,8.32,8.32,0,0,1-1.87-2.91,11.33,11.33,0,0,1-.7-4.2,12.71,12.71,0,0,1,.7-4.35,11.64,11.64,0,0,1,1.87-3.38,11.09,11.09,0,0,1,2.68-2.41,12.91,12.91,0,0,1,3.12-1.46l0.55,2.39a10.91,10.91,0,0,0-1.82.88,7.93,7.93,0,0,0-1.94,1.64,9.06,9.06,0,0,0-1.55,2.59,10,10,0,0,0-.63,3.76,8,8,0,0,0,.67,3.49,6.67,6.67,0,0,0,1.62,2.19,6.06,6.06,0,0,0,2,1.17,7.11,7.11,0,0,0,1.7.4Z"/><path class="cls-4" d="M614.68,454.82l3.51-.44V444.33l-3,2.7-1.38-1.67,5.23-4.66,2-.26V454l3.44-.44v2.53c-3.92.51-5.87,0.76-9.79,1.25v-2.53Z"/><path class="cls-4" d="M631,453.77a1.81,1.81,0,0,1,.52-1.31,2.15,2.15,0,0,1,1.3-.63,2,2,0,0,1,1.9.57,2.89,2.89,0,0,1,.64,2,4.73,4.73,0,0,1-.4,1.94,6,6,0,0,1-1,1.61,6.83,6.83,0,0,1-1.43,1.21,6.66,6.66,0,0,1-1.57.74l-0.62-1.18a7.63,7.63,0,0,0,1.11-.54,5.42,5.42,0,0,0,1-.77,4.34,4.34,0,0,0,.77-1,2.74,2.74,0,0,0,.36-1.15,3,3,0,0,1-1.17.19,1.54,1.54,0,0,1-.79-0.26,1.25,1.25,0,0,1-.45-0.58A2.21,2.21,0,0,1,631,453.77Z"/><path class="cls-4" d="M642.19,451.19l3.5-.49V440.65l-3,2.75-1.37-1.65,5.22-4.73,2-.29V450.3l3.43-.49v2.53c-3.91.56-5.87,0.84-9.78,1.39v-2.53Z"/><path class="cls-4" d="M655.93,449.23l3.5-.52V438.66l-3,2.77L655,439.79l5.22-4.77,2-.3v13.57l3.43-.52v2.53c-3.91.59-5.86,0.88-9.77,1.45v-2.53Z"/><path class="cls-4" d="M670,452a9.25,9.25,0,0,0,1.69-.87,8.93,8.93,0,0,0,2-1.71,9.74,9.74,0,0,0,1.61-2.63,9.3,9.3,0,0,0,.66-3.67,8.67,8.67,0,0,0-.63-3.58,6.23,6.23,0,0,0-1.54-2.16,5.4,5.4,0,0,0-1.93-1.1,8.45,8.45,0,0,0-1.82-.38l0.55-2.55a10.08,10.08,0,0,1,3.11.6,7.47,7.47,0,0,1,2.67,1.68,8.12,8.12,0,0,1,1.86,2.87,11.17,11.17,0,0,1,.7,4.16,13,13,0,0,1-.7,4.39,11.93,11.93,0,0,1-1.86,3.42,11.42,11.42,0,0,1-2.67,2.47,12.35,12.35,0,0,1-3.11,1.49Z"/><path class="cls-4" d="M61.3,397.81v-2.53l2.7,0.43c0-2.58,0-3.86,0-6.44l-2.72-.43v-2.53L64,386.74v-0.64a3.87,3.87,0,0,1,.38-1.8,3,3,0,0,1,1-1.13,3.43,3.43,0,0,1,1.43-.53,5.72,5.72,0,0,1,1.68,0,11.54,11.54,0,0,1,2.6.66,7.87,7.87,0,0,1,1.68.91l-0.87,2.15a12.25,12.25,0,0,0-1.13-.63,5.46,5.46,0,0,0-1.57-.45,2,2,0,0,0-1.73.3A2.21,2.21,0,0,0,67,387.2l4.8,0.74v2.53l-4.8-.74c0,2.58,0,3.86,0,6.44l4.82,0.74v2.53C67.6,398.8,65.5,398.48,61.3,397.81Z"/><path class="cls-4" d="M75.46,389.28a11.18,11.18,0,0,1,2.12-.39,11.82,11.82,0,0,1,2.85.13,6.91,6.91,0,0,1,2,.59,4.14,4.14,0,0,1,1.35,1,3.74,3.74,0,0,1,.74,1.37,5.92,5.92,0,0,1,.23,1.69q0,1.17-.08,2c-0.05.54-.08,1-0.08,1.46a10.06,10.06,0,0,0,0,1.09c0,0.21.05,0.43,0.07,0.63l1.49,0.22v2.53L82.37,401l-0.3-1.61-0.11,0a3.19,3.19,0,0,1-1.3,1,4,4,0,0,1-2.27.18,4.47,4.47,0,0,1-2.71-1.33,3.66,3.66,0,0,1-1-2.59,3.35,3.35,0,0,1,.35-1.61,2.39,2.39,0,0,1,1-1,4.24,4.24,0,0,1,1.61-.42,9.24,9.24,0,0,1,2.1.09q0.41,0.06.86,0.17l1.11,0.26a2.28,2.28,0,0,0,0-.45v-0.44a1.7,1.7,0,0,0-.5-1.33,2.76,2.76,0,0,0-1.48-.6,6.63,6.63,0,0,0-2.09,0,11.76,11.76,0,0,0-1.57.36Zm3.89,9a2.52,2.52,0,0,0,1.63-.16,2.17,2.17,0,0,0,.79-0.75V396l-0.68-.2a8.29,8.29,0,0,0-1-.2,4.63,4.63,0,0,0-.86,0,2.55,2.55,0,0,0-.77.14,1.21,1.21,0,0,0-.54.37,1,1,0,0,0-.2.64,1.51,1.51,0,0,0,.37,1.06A2,2,0,0,0,79.35,398.31Z"/><path class="cls-4" d="M99.63,402.39a5.66,5.66,0,0,1-2.2.76,9.34,9.34,0,0,1-2.63,0,8.17,8.17,0,0,1-2.65-.81,6.56,6.56,0,0,1-1.95-1.51,6.3,6.3,0,0,1-1.2-2.09,7.69,7.69,0,0,1-.41-2.54,6,6,0,0,1,.48-2.51A4.43,4.43,0,0,1,90.41,392a4.87,4.87,0,0,1,2-.9A7.52,7.52,0,0,1,95,391a10.14,10.14,0,0,1,2.4.64,12.91,12.91,0,0,1,1.72.81c0,1.62,0,2.43,0,4l-2.52-.35v-2.12a6.9,6.9,0,0,0-1.42-.36,4.14,4.14,0,0,0-1.27,0A2.58,2.58,0,0,0,92,395.13a3.25,3.25,0,0,0-.31,1.5,3.85,3.85,0,0,0,.25,1.39,3.85,3.85,0,0,0,1.84,2.07,4.48,4.48,0,0,0,1.5.48,5.09,5.09,0,0,0,2.14-.07,7.32,7.32,0,0,0,1.25-.47Z"/><path class="cls-4" d="M103.53,395.06l-2.27-.31v-2.53l2.27,0.31v-2.62l3-.45c0,1.39,0,2.08,0,3.47l6,0.8v2.53l-6-.8c0,1.32,0,2,0,3.29a4.39,4.39,0,0,0,.66,2.65,2.66,2.66,0,0,0,1.86,1,3.83,3.83,0,0,0,1.12,0,3.75,3.75,0,0,0,.91-0.26,4.34,4.34,0,0,0,.73-0.41l0.61-.43,1.38,2.25a3.67,3.67,0,0,1-1,.71,7.13,7.13,0,0,1-1.26.5,7.24,7.24,0,0,1-1.41.26,6.59,6.59,0,0,1-1.44,0,5.68,5.68,0,0,1-3.86-2,7.45,7.45,0,0,1-1.29-4.74C103.53,397,103.53,396.38,103.53,395.06Z"/><path class="cls-4" d="M115.42,399.87a6.65,6.65,0,0,1,.44-2.52,4.43,4.43,0,0,1,1.24-1.75,4.51,4.51,0,0,1,1.92-.94,7,7,0,0,1,2.49-.08,7.79,7.79,0,0,1,2.58.76,6.34,6.34,0,0,1,1.92,1.47,6.07,6.07,0,0,1,1.18,2.07,7.8,7.8,0,0,1,.4,2.53,6.68,6.68,0,0,1-.44,2.52,4.45,4.45,0,0,1-1.24,1.76,4.5,4.5,0,0,1-1.91.95,7,7,0,0,1-2.49.09,7.75,7.75,0,0,1-2.58-.77,6.36,6.36,0,0,1-1.92-1.48,6.12,6.12,0,0,1-1.18-2.07A7.82,7.82,0,0,1,115.42,399.87Zm3.07,0.4a4.85,4.85,0,0,0,.21,1.43,4,4,0,0,0,.6,1.2,3.25,3.25,0,0,0,.94.87,3.16,3.16,0,0,0,1.26.43,2.61,2.61,0,0,0,2.17-.58,3.34,3.34,0,0,0,.84-2.59,4.42,4.42,0,0,0-.78-2.66,3.1,3.1,0,0,0-2.23-1.26,3.42,3.42,0,0,0-1.19,0,2,2,0,0,0-1,.51,2.62,2.62,0,0,0-.63,1A4.71,4.71,0,0,0,118.49,400.26Z"/><path class="cls-4" d="M129.27,404.84l2.85,0.35c0-2.58,0-3.86,0-6.44l-2.85-.35v-2.53l5.16,0.63,0.34,1.56h0.09a5.1,5.1,0,0,1,1.47-1.09,3.38,3.38,0,0,1,1.93-.28,3,3,0,0,1,2.17,1.27,6,6,0,0,1,.79,3.47l-2.69-.32a2.49,2.49,0,0,0-.24-1.24,1,1,0,0,0-.77-0.47,2.08,2.08,0,0,0-1.48.28,3.9,3.9,0,0,0-1,.94c0,2,0,2.94,0,4.9l5,0.59v2.53c-4.32-.51-6.49-0.77-10.81-1.3v-2.53Z"/><path class="cls-4" d="M143.5,406.53l4,0.46c0-2.58,0-3.86,0-6.44l-4-.46v-2.53l7,0.8c0,3.59,0,5.38,0,9l4.25,0.47c0,1,0,1.52,0,2.53-4.51-.49-6.77-0.75-11.27-1.27v-2.53Zm3.49-11.7a1.45,1.45,0,0,1,.53-1.16,1.86,1.86,0,0,1,1.47-.34,2.5,2.5,0,0,1,1.54.68,1.76,1.76,0,0,1,.57,1.28,1.32,1.32,0,0,1-.57,1.14,2.17,2.17,0,0,1-1.54.3,2.37,2.37,0,0,1-1.47-.64A1.73,1.73,0,0,1,147,394.84Z"/><path class="cls-4" d="M158,400a11.55,11.55,0,0,1,2.13-.48,11.87,11.87,0,0,1,2.86,0,6.73,6.73,0,0,1,2,.5,3.91,3.91,0,0,1,1.36,1,3.55,3.55,0,0,1,.75,1.34,5.79,5.79,0,0,1,.23,1.68q0,1.17-.08,2c-0.05.55-.08,1-0.08,1.46a10,10,0,0,0,0,1.09c0,0.21.05,0.43,0.07,0.63l1.49,0.15v2.53l-3.86-.4-0.3-1.6h-0.11a3.4,3.4,0,0,1-1.3,1.09,4.1,4.1,0,0,1-2.28.28,4.29,4.29,0,0,1-2.72-1.21,3.5,3.5,0,0,1-1-2.55,3.43,3.43,0,0,1,.35-1.63,2.55,2.55,0,0,1,1-1,4.41,4.41,0,0,1,1.62-.49,9.3,9.3,0,0,1,2.11,0q0.41,0,.87.14l1.12,0.21a2.3,2.3,0,0,0,0-.46v-0.44a1.63,1.63,0,0,0-.5-1.31,2.67,2.67,0,0,0-1.48-.54,6.7,6.7,0,0,0-2.1.08,12.24,12.24,0,0,0-1.57.43Zm3.91,8.86a2.58,2.58,0,0,0,1.64-.23,2.32,2.32,0,0,0,.8-0.78v-1.38l-0.68-.18a8.15,8.15,0,0,0-1-.16,4.64,4.64,0,0,0-.86,0,2.64,2.64,0,0,0-.77.17,1.29,1.29,0,0,0-.55.39,1,1,0,0,0-.2.65,1.45,1.45,0,0,0,.37,1A1.94,1.94,0,0,0,161.9,408.82Z"/><path class="cls-4" d="M171.71,396l4.9,0.49c0,4.25,0,6.38,0,10.63a5.2,5.2,0,0,0,.44,2.5,1.72,1.72,0,0,0,1.4.83,3.77,3.77,0,0,0,1.17,0,4,4,0,0,0,.92-0.34l1.13,2.18q-0.39.22-.78,0.4a4.58,4.58,0,0,1-.83.29,5.3,5.3,0,0,1-1,.14,7.5,7.5,0,0,1-1.16,0,4.78,4.78,0,0,1-3.24-1.42,4.68,4.68,0,0,1-1.08-3.24c0-3.86,0-5.8,0-9.66l-1.91-.19V396Z"/><path class="cls-4" d="M185.29,416.13c4.08,0.38,6.13.57,10.21,0.93,0,1,0,1.48,0,2.46-4.09-.36-6.13-0.55-10.21-0.93v-2.46Z"/><path class="cls-4" d="M197.3,398.43l4.65,0.4c0,2.35,0,3.53,0,5.89H202a3.45,3.45,0,0,1,1.47-1,4.82,4.82,0,0,1,2.16-.26,5.64,5.64,0,0,1,1.61.36,3.41,3.41,0,0,1,1.27.86,4,4,0,0,1,.83,1.51,7.5,7.5,0,0,1,.3,2.27c0,2.86,0,4.29,0,7.15l-3-.25c0-2.61,0-3.92,0-6.53a3,3,0,0,0-.6-2.07,2.27,2.27,0,0,0-1.57-.75,2.44,2.44,0,0,0-1.56.39,2.5,2.5,0,0,0-1,1.24c0,2.93,0,4.4,0,7.34l-3-.26c0-5.43,0-8.14,0-13.57L197.3,401v-2.53Z"/><path class="cls-4" d="M223.4,415.43a3.72,3.72,0,0,1-.77.48,6.89,6.89,0,0,1-1.11.41,8.15,8.15,0,0,1-1.39.26,8.81,8.81,0,0,1-1.61,0,8.16,8.16,0,0,1-2.64-.62,5.76,5.76,0,0,1-3.2-3.37,7.37,7.37,0,0,1-.43-2.58,6.47,6.47,0,0,1,.48-2.62,4.76,4.76,0,0,1,1.32-1.79,5,5,0,0,1,2-1,7.43,7.43,0,0,1,2.44-.19,7.84,7.84,0,0,1,1.81.37,5.42,5.42,0,0,1,1.72.92,4.75,4.75,0,0,1,1.28,1.6,5.36,5.36,0,0,1,.49,2.43,10.68,10.68,0,0,1-.23,2.12l-8.29-.63a2.81,2.81,0,0,0,.31,1.27,2.75,2.75,0,0,0,.76.89,3.59,3.59,0,0,0,1.08.56,5.58,5.58,0,0,0,1.3.25,6.55,6.55,0,0,0,2.27-.15,4.38,4.38,0,0,0,1.44-.67Zm-5-8.59a3.7,3.7,0,0,0-1.13.08,2.88,2.88,0,0,0-1,.41,2.35,2.35,0,0,0-.7.73,2.27,2.27,0,0,0-.32,1l5.66,0.44A2.48,2.48,0,0,0,218.43,406.84Z"/><path class="cls-4" d="M226.92,400.81l4.9,0.35c0,4.25,0,6.38,0,10.63a5.11,5.11,0,0,0,.44,2.49,1.66,1.66,0,0,0,1.41.79,3.8,3.8,0,0,0,1.17-.07,4.16,4.16,0,0,0,.92-0.36l1.13,2.15q-0.39.23-.78,0.42a4.73,4.73,0,0,1-.83.31,5.41,5.41,0,0,1-1,.16,7.53,7.53,0,0,1-1.16,0,4.66,4.66,0,0,1-3.25-1.33,4.56,4.56,0,0,1-1.08-3.21c0-3.86,0-5.8,0-9.66l-1.91-.14v-2.53Z"/><path class="cls-4" d="M238.73,406.23l3.92,0.26,0.35,1.4h0.09a4.14,4.14,0,0,1,3.87-1.46,5.7,5.7,0,0,1,1.95.45,4.14,4.14,0,0,1,1.52,1.14,5.3,5.3,0,0,1,1,1.85,8.81,8.81,0,0,1,.35,2.62,8.21,8.21,0,0,1-.39,2.63,5.22,5.22,0,0,1-1.13,1.94,4.45,4.45,0,0,1-1.8,1.15,6.11,6.11,0,0,1-2.42.29,9.69,9.69,0,0,1-1.4-.19,4.11,4.11,0,0,1-1.15-.41c0,1.89,0,2.83,0,4.71l-3-.19c0-5.43,0-8.14,0-13.57l-1.73-.11C238.73,407.75,238.73,407.25,238.73,406.23Zm7.33,2.68a2.92,2.92,0,0,0-1.6.33,2.08,2.08,0,0,0-1,1.25c0,1.91,0,2.87,0,4.78a2.65,2.65,0,0,0,.93.46,5.3,5.3,0,0,0,1.23.23,3.13,3.13,0,0,0,1.2-.14,2.25,2.25,0,0,0,1-.64,3.16,3.16,0,0,0,.64-1.18,5.83,5.83,0,0,0,.23-1.76,3.59,3.59,0,0,0-.74-2.39A2.56,2.56,0,0,0,246.06,408.92Z"/><path class="cls-4" d="M264.86,418.08a3.81,3.81,0,0,1-.77.5A7.06,7.06,0,0,1,263,419a8.21,8.21,0,0,1-1.39.29,8.82,8.82,0,0,1-1.61,0,8.07,8.07,0,0,1-2.64-.56,5.6,5.6,0,0,1-3.2-3.3,7.29,7.29,0,0,1-.43-2.57,6.54,6.54,0,0,1,.48-2.63,4.9,4.9,0,0,1,1.32-1.82,5.17,5.17,0,0,1,2-1,7.49,7.49,0,0,1,2.44-.24,7.77,7.77,0,0,1,1.81.33,5.29,5.29,0,0,1,1.72.89,4.6,4.6,0,0,1,1.28,1.58,5.28,5.28,0,0,1,.5,2.42,10.75,10.75,0,0,1-.23,2.13l-8.3-.46a2.77,2.77,0,0,0,.31,1.26,2.67,2.67,0,0,0,.76.87,3.49,3.49,0,0,0,1.08.53,5.53,5.53,0,0,0,1.3.22,6.61,6.61,0,0,0,2.27-.2,4.49,4.49,0,0,0,1.44-.7Zm-5-8.48a3.73,3.73,0,0,0-1.13.1,3,3,0,0,0-1,.43,2.41,2.41,0,0,0-.7.75,2.29,2.29,0,0,0-.32,1l5.67,0.32A2.42,2.42,0,0,0,259.88,409.6Z"/><path class="cls-4" d="M267.28,416.9l2.86,0.15c0-2.58,0-3.86,0-6.44l-2.86-.15c0-1,0-1.52,0-2.53l5.19,0.26,0.35,1.53h0.09a5.69,5.69,0,0,1,1.48-1.19,3.54,3.54,0,0,1,1.94-.41,2.76,2.76,0,0,1,2.18,1.11,5.74,5.74,0,0,1,.79,3.42l-2.7-.13a2.38,2.38,0,0,0-.24-1.22,0.9,0.9,0,0,0-.77-0.42,2.2,2.2,0,0,0-1.49.39,4.33,4.33,0,0,0-1,1c0,2,0,2.94,0,4.9l5,0.24c0,1,0,1.52,0,2.53-4.34-.2-6.51-0.31-10.86-0.54C267.28,418.42,267.28,417.91,267.28,416.9Z"/><path class="cls-4" d="M290.7,425.38a11.07,11.07,0,0,1-3.14-1.14,9.72,9.72,0,0,1-2.7-2.16,10.3,10.3,0,0,1-1.88-3.21,12.2,12.2,0,0,1-.7-4.31,11.71,11.71,0,0,1,.7-4.24,9.44,9.44,0,0,1,1.88-3.08,8.8,8.8,0,0,1,2.7-2,11.07,11.07,0,0,1,3.14-1l0.55,2.48a9.29,9.29,0,0,0-1.83.58,6.32,6.32,0,0,0-1.95,1.32,7.28,7.28,0,0,0-1.56,2.34,9.12,9.12,0,0,0-.63,3.65,8.69,8.69,0,0,0,.67,3.59,8.35,8.35,0,0,0,1.63,2.45,7.6,7.6,0,0,0,2,1.48,8.21,8.21,0,0,0,1.71.68Z"/><path class="cls-4" d="M296.49,418.2l3.53,0.13c0-4,0-6,0-10.05l-3,2.21-1.38-1.89,5.26-3.81,2,0.07c0,5.43,0,8.14,0,13.57l3.46,0.11v2.53l-9.85-.34C296.49,419.72,296.49,419.21,296.49,418.2Z"/><path class="cls-4" d="M312.91,419.8a1.53,1.53,0,0,1,.52-1.23,1.85,1.85,0,0,1,1.3-.42,2.35,2.35,0,0,1,1.91.88,3.3,3.3,0,0,1,.65,2.06,4.27,4.27,0,0,1-.4,1.87,4.79,4.79,0,0,1-1,1.44,5.46,5.46,0,0,1-1.44,1,5.72,5.72,0,0,1-1.58.48l-0.62-1.28a6.54,6.54,0,0,0,1.12-.36,4.34,4.34,0,0,0,1-.6,3.42,3.42,0,0,0,.77-0.86,2.38,2.38,0,0,0,.36-1.09,2.94,2.94,0,0,1-1.18,0,1.84,1.84,0,0,1-.8-0.39,1.56,1.56,0,0,1-.45-0.66A2.38,2.38,0,0,1,312.91,419.8Z"/><path class="cls-4" d="M324.17,419l3.53,0.08V409.07l-3,2.26-1.38-1.87,5.26-3.88,2,0c0,5.43,0,8.14,0,13.57l3.46,0.07v2.53l-9.85-.2C324.17,420.56,324.17,420.05,324.17,419Z"/><path class="cls-4" d="M338,419.31l3.53,0.05V409.31l-3,2.28-1.38-1.86,5.26-3.92,2,0V419.4l3.46,0V422l-9.85-.13v-2.53Z"/><path class="cls-4" d="M352.17,424.39a7.86,7.86,0,0,0,1.71-.59,7.13,7.13,0,0,0,2-1.39,7.81,7.81,0,0,0,1.63-2.37,8.45,8.45,0,0,0,.67-3.56,9.36,9.36,0,0,0-.63-3.68,7.78,7.78,0,0,0-1.56-2.41A6.78,6.78,0,0,0,354,409a9.74,9.74,0,0,0-1.83-.67l0.55-2.46a11.57,11.57,0,0,1,3.14,1.11,9.44,9.44,0,0,1,2.7,2.11,10.06,10.06,0,0,1,1.88,3.17,13.33,13.33,0,0,1,0,8.54,9.67,9.67,0,0,1-1.88,3.12,9.08,9.08,0,0,1-2.7,2,10.62,10.62,0,0,1-3.14,1Z"/><path class="cls-4" d="M516.31,414.13l2.85-.21c0-2.58,0-3.86,0-6.44l-2.85.21v-2.53l5.18-.39,0.35,1.49h0.09a6.84,6.84,0,0,1,1.47-1.38,3.88,3.88,0,0,1,1.93-.66,2.42,2.42,0,0,1,2.18.84,5.26,5.26,0,0,1,.79,3.32l-2.69.21a2.2,2.2,0,0,0-.24-1.19,0.78,0.78,0,0,0-.77-0.32,2.45,2.45,0,0,0-1.48.58,5.22,5.22,0,0,0-1,1.13v4.9l5-.39c0,1,0,1.52,0,2.53-4.34.35-6.5,0.51-10.84,0.84v-2.53Z"/><path class="cls-4" d="M541.51,413.41a4.64,4.64,0,0,1-.77.61,8.27,8.27,0,0,1-1.1.59,9.33,9.33,0,0,1-3,.76,7.59,7.59,0,0,1-2.63-.19,4.6,4.6,0,0,1-3.2-2.85,6.81,6.81,0,0,1-.43-2.51,7,7,0,0,1,.48-2.7,6,6,0,0,1,1.32-2,6.19,6.19,0,0,1,2-1.3,8,8,0,0,1,2.44-.59,7.38,7.38,0,0,1,1.81.08,4.52,4.52,0,0,1,1.71.65,3.75,3.75,0,0,1,1.28,1.4,4.85,4.85,0,0,1,.5,2.35,11.25,11.25,0,0,1-.23,2.16l-8.28.71a2.51,2.51,0,0,0,.31,1.22,2.18,2.18,0,0,0,.76.76,3,3,0,0,0,1.08.38,5.31,5.31,0,0,0,1.3,0,7,7,0,0,0,2.27-.52,5.36,5.36,0,0,0,1.44-.91Zm-5-7.78a4,4,0,0,0-1.13.26,3.5,3.5,0,0,0-1,.56,3,3,0,0,0-.7.84,2.58,2.58,0,0,0-.32,1.08l5.66-.48A2.07,2.07,0,0,0,536.54,405.62Z"/><path class="cls-4" d="M555.59,412.24a7.39,7.39,0,0,1-2.21,1.28,10.15,10.15,0,0,1-2.64.6,7.24,7.24,0,0,1-2.66-.19,4.82,4.82,0,0,1-2-1.05,4.63,4.63,0,0,1-1.21-1.81A7.39,7.39,0,0,1,545,406a6.15,6.15,0,0,1,1.35-2,6.56,6.56,0,0,1,2-1.37,8.3,8.3,0,0,1,2.55-.64,9.24,9.24,0,0,1,2.41.07,10.47,10.47,0,0,1,1.73.41c0,1.62,0,2.43,0,4l-2.53.24v-2.12a6.35,6.35,0,0,0-1.43,0,4.54,4.54,0,0,0-1.28.31,3.51,3.51,0,0,0-1.13.72,3.61,3.61,0,0,0-1.12,2.71,3.39,3.39,0,0,0,.25,1.33,2.78,2.78,0,0,0,1.85,1.64,4,4,0,0,0,1.51.13,5.69,5.69,0,0,0,2.15-.57,9.75,9.75,0,0,0,1.25-.76Z"/><path class="cls-4" d="M564.42,401l4.28-.43c0,3.2,0,4.8,0,8v1l1.75-.18v2.53l-3.63.37-0.53-1.65h-0.09a4.7,4.7,0,0,1-1.59,1.61,5.22,5.22,0,0,1-2.35.81,5.1,5.1,0,0,1-1.6-.07,2.55,2.55,0,0,1-1.23-.64,3.12,3.12,0,0,1-.78-1.35,7.5,7.5,0,0,1-.28-2.23v-4.62l-1.31.13c0-1,0-1.52,0-2.53l4.3-.41c0,2.61,0,3.92,0,6.53a3.31,3.31,0,0,0,.45,2,1.48,1.48,0,0,0,1.41.48,2.74,2.74,0,0,0,1.53-.66,3.12,3.12,0,0,0,1-1.34v-4.9l-1.29.13C564.42,402.51,564.42,402,564.42,401Z"/><path class="cls-4" d="M571.52,409.24l2.85-.29v-6.44l-2.85.29v-2.53l5.17-.54,0.34,1.48h0.09a7.13,7.13,0,0,1,1.47-1.42,4,4,0,0,1,1.93-.71,2.35,2.35,0,0,1,2.17.78,5.17,5.17,0,0,1,.79,3.29l-2.69.29a2.17,2.17,0,0,0-.24-1.18,0.76,0.76,0,0,0-.77-0.3,2.51,2.51,0,0,0-1.48.62,5.44,5.44,0,0,0-1,1.16v4.9l5-.53c0,1,0,1.52,0,2.53-4.33.47-6.49,0.7-10.82,1.14v-2.53Z"/><path class="cls-4" d="M594.85,414.11a9.74,9.74,0,0,1-3.12-.66,7.79,7.79,0,0,1-2.69-1.74,8.4,8.4,0,0,1-1.87-2.92,11.36,11.36,0,0,1-.7-4.2,12.66,12.66,0,0,1,.7-4.34,11.54,11.54,0,0,1,1.87-3.37,11,11,0,0,1,2.69-2.4,12.81,12.81,0,0,1,3.12-1.44l0.55,2.4a10.8,10.8,0,0,0-1.82.87,7.85,7.85,0,0,0-1.94,1.62,9,9,0,0,0-1.55,2.58,9.9,9.9,0,0,0-.63,3.75,8,8,0,0,0,.67,3.49,6.74,6.74,0,0,0,1.62,2.2,6.12,6.12,0,0,0,2,1.18,7.15,7.15,0,0,0,1.7.41Z"/><path class="cls-4" d="M600.62,406l3.51-.42c0-4,0-6,0-10.05l-3,2.68-1.38-1.68L605,392l2-.24c0,5.43,0,8.14,0,13.57l3.44-.42v2.53c-3.92.48-5.88,0.72-9.8,1.18V406Z"/><path class="cls-4" d="M614.38,404.37l3.51-.44c0-4,0-6,0-10.05l-3,2.7-1.38-1.67,5.23-4.66,2-.26c0,5.43,0,8.14,0,13.57l3.44-.44c0,1,0,1.52,0,2.53-3.92.51-5.87,0.76-9.79,1.25v-2.53Z"/><path class="cls-4" d="M630.71,403.32a1.81,1.81,0,0,1,.52-1.31,2.15,2.15,0,0,1,1.3-.63,2,2,0,0,1,1.9.57,2.89,2.89,0,0,1,.64,2,4.73,4.73,0,0,1-.4,1.94,6,6,0,0,1-1,1.61,6.83,6.83,0,0,1-1.43,1.21,6.65,6.65,0,0,1-1.57.74L630,408.22a7.63,7.63,0,0,0,1.11-.54,5.42,5.42,0,0,0,1-.77,4.34,4.34,0,0,0,.77-1,2.74,2.74,0,0,0,.36-1.15,3,3,0,0,1-1.17.19,1.54,1.54,0,0,1-.79-0.26,1.25,1.25,0,0,1-.45-0.58A2.21,2.21,0,0,1,630.71,403.32Z"/><path class="cls-4" d="M641.89,400.73l3.5-.49c0-4,0-6,0-10.05l-3,2.75L641,391.29l5.22-4.73,2-.29c0,5.43,0,8.14,0,13.57l3.43-.49v2.53l-9.78,1.39C641.89,402.25,641.89,401.75,641.89,400.73Z"/><path class="cls-4" d="M654.07,393.46a14.54,14.54,0,0,1,.44-3.73,8.93,8.93,0,0,1,1.23-2.79,6.33,6.33,0,0,1,1.9-1.83,6.43,6.43,0,0,1,2.46-.88,4.61,4.61,0,0,1,4.46,1.37q1.56,1.8,1.56,6.08a14.65,14.65,0,0,1-.44,3.76,9.13,9.13,0,0,1-1.23,2.81,6.26,6.26,0,0,1-1.91,1.85,6.49,6.49,0,0,1-2.47.89,4.45,4.45,0,0,1-4.46-1.49Q654.07,397.55,654.07,393.46Zm3-.44c0,0.23,0,.45,0,0.65s0,0.42,0,.63l5.54-6a2.16,2.16,0,0,0-2.56-1.59,3,3,0,0,0-2.24,1.75A10.22,10.22,0,0,0,657,393Zm6.09-.91q0-.37,0-0.7c0-.22,0-0.44,0-0.65l-5.56,6a2.2,2.2,0,0,0,2.57,1.71,3,3,0,0,0,2.25-1.74A10.25,10.25,0,0,0,663.13,392.12Z"/><path class="cls-4" d="M669.67,401.57a9.24,9.24,0,0,0,1.69-.87,8.93,8.93,0,0,0,2-1.71,9.74,9.74,0,0,0,1.61-2.63,9.3,9.3,0,0,0,.66-3.67,8.68,8.68,0,0,0-.63-3.58,6.23,6.23,0,0,0-1.54-2.16,5.39,5.39,0,0,0-1.93-1.1,8.45,8.45,0,0,0-1.82-.38l0.55-2.55a10.08,10.08,0,0,1,3.11.6,7.47,7.47,0,0,1,2.67,1.68,8.12,8.12,0,0,1,1.86,2.87,11.17,11.17,0,0,1,.7,4.16,13,13,0,0,1-.7,4.39A11.93,11.93,0,0,1,676,400a11.42,11.42,0,0,1-2.67,2.47,12.34,12.34,0,0,1-3.11,1.49Z"/></svg>