<svg id="Layer_1" data-name="Layer 1" xmlns="http://www.w3.org/2000/svg" viewBox="0 0 720 576"><defs><style>.cls-1,.cls-2,.cls-4,.cls-6{fill:#231f20;}.cls-1,.cls-3{stroke:#231f20;}.cls-1,.cls-6{stroke-miterlimit:10;}.cls-1,.cls-2,.cls-3{stroke-width:2px;}.cls-2{stroke:#000;}.cls-2,.cls-3{stroke-linecap:round;stroke-linejoin:round;}.cls-3,.cls-5{fill:#fff;}.cls-6{stroke:#fff;}</style></defs><title>Hanoi_Tower_Set_5_Final</title><path class="cls-1" d="M685.65,506.49c0-.14,0-0.29,0-0.43s0-.29,0-0.43V453.84H39.85s-0.25,51.74-.25,52.22c0,2.67,2.32,5.24,6.64,7.71,15.13,8.61,55.2,16.11,111,21.48s127.37,8.59,205.39,8.59c89.16,0,169.88-4.21,228.32-11,29.22-3.41,52.87-7.46,69.23-12,8.18-2.25,14.54-4.62,18.86-7.08,3.69-2.1,5.91-4.29,6.48-6.55h0.11v-0.73Z"/><ellipse class="cls-2" cx="362.65" cy="454.92" rx="322.86" ry="37.63"/><path class="cls-3" d="M685.65,455c0-.14,0-0.29,0-0.43s0-.29,0-0.43V402.36H39.85s-0.25,51.74-.25,52.22c0,2.67,2.32,5.24,6.64,7.71,15.13,8.61,55.2,16.11,111,21.48s127.37,8.59,205.39,8.59c89.16,0,169.88-4.21,228.32-11,29.22-3.41,52.87-7.46,69.23-12,8.18-2.25,14.54-4.62,18.86-7.08,3.69-2.1,5.91-4.29,6.48-6.55h0.11V455Z"/><ellipse class="cls-3" cx="362.65" cy="403.44" rx="322.86" ry="37.63"/><path class="cls-3" d="M685.65,403.53c0-.14,0-0.29,0-0.43s0-.29,0-0.43V350.88H39.85s-0.25,51.74-.25,52.22c0,2.67,2.32,5.24,6.64,7.71,15.13,8.61,55.2,16.11,111,21.48s127.37,8.59,205.39,8.59c89.16,0,169.88-4.21,228.32-11,29.22-3.41,52.87-7.46,69.23-12,8.18-2.25,14.54-4.62,18.86-7.08,3.69-2.1,5.91-4.29,6.48-6.55h0.11v-0.73Z"/><ellipse class="cls-3" cx="362.65" cy="351.97" rx="322.86" ry="37.63"/><path class="cls-3" d="M685.65,352.06c0-.14,0-0.29,0-0.43s0-.29,0-0.43V299.4H39.85s-0.25,51.74-.25,52.22c0,2.67,2.32,5.24,6.64,7.71,15.13,8.61,55.2,16.11,111,21.48s127.37,8.59,205.39,8.59c89.16,0,169.88-4.21,228.32-11,29.22-3.41,52.87-7.46,69.23-12,8.18-2.25,14.54-4.62,18.86-7.08,3.69-2.1,5.91-4.29,6.48-6.55h0.11v-0.73Z"/><ellipse class="cls-3" cx="362.65" cy="300.49" rx="322.86" ry="37.63"/><path class="cls-4" d="M362.64,309.88c-16,0-29-3.75-30.2-8.61h-0.08l0-.5V8.27H393v293h-0.12C391.62,306.14,378.62,309.88,362.64,309.88Z"/><path class="cls-5" d="M392.47,8.77v292h0c-0.49,4.78-13.63,8.61-29.79,8.61s-29.3-3.83-29.79-8.61h0v-0.21s0,0,0-.06,0,0,0-.06V8.77h59.63m1-1H331.84V300.39s0,0.07,0,.11v1.27h0.23c2,5.6,16.84,8.61,30.58,8.61s28.6-3,30.58-8.61h0.21l0-1V7.77h0Z"/><ellipse class="cls-6" cx="362.64" cy="8.89" rx="29.81" ry="8.89"/><path class="cls-4" d="M53.65,345.38l2.84,0.45v-6.44l-2.84-.45v-2.53l5.14,0.81,0.34,1.57h0.09a4.84,4.84,0,0,1,1.46-1,3.32,3.32,0,0,1,1.92-.21,3.1,3.1,0,0,1,2.16,1.34,6.19,6.19,0,0,1,.79,3.5L62.89,342a2.55,2.55,0,0,0-.24-1.24,1,1,0,0,0-.77-0.5,2,2,0,0,0-1.47.23,3.71,3.71,0,0,0-.95.91v4.9l5,0.76v2.53c-4.31-.66-6.46-1-10.77-1.68v-2.53Z"/><path class="cls-4" d="M78.7,350.49a3.34,3.34,0,0,1-.77.43,6.37,6.37,0,0,1-1.1.33,7.75,7.75,0,0,1-1.38.16,8.75,8.75,0,0,1-1.6-.1,8.51,8.51,0,0,1-2.62-.8A6.35,6.35,0,0,1,68,346.92a7.67,7.67,0,0,1-.42-2.6,6.28,6.28,0,0,1,.48-2.58,4.3,4.3,0,0,1,1.32-1.7,4.6,4.6,0,0,1,2-.85,7.28,7.28,0,0,1,2.43,0,8.14,8.14,0,0,1,1.8.49,5.88,5.88,0,0,1,1.71,1,5.25,5.25,0,0,1,1.27,1.69,5.6,5.6,0,0,1,.49,2.46,10.51,10.51,0,0,1-.23,2.11l-8.24-1.21a3,3,0,0,0,.31,1.29,3,3,0,0,0,.76.94,3.87,3.87,0,0,0,1.07.63A5.77,5.77,0,0,0,74,349a6.43,6.43,0,0,0,2.25,0,4,4,0,0,0,1.43-.57Zm-4.94-8.94a3.64,3.64,0,0,0-1.12,0,2.68,2.68,0,0,0-.95.34,2.11,2.11,0,0,0-.7.68,2.14,2.14,0,0,0-.32,1l5.63,0.83a2.89,2.89,0,0,0-.63-1.91A2.92,2.92,0,0,0,73.75,341.55Z"/><path class="cls-4" d="M92.71,352.59a5.66,5.66,0,0,1-2.2.76,9.34,9.34,0,0,1-2.63,0,8.16,8.16,0,0,1-2.64-.81A6.55,6.55,0,0,1,83.29,351a6.29,6.29,0,0,1-1.2-2.09,7.69,7.69,0,0,1-.41-2.54,6,6,0,0,1,.48-2.51,4.44,4.44,0,0,1,1.34-1.72,4.87,4.87,0,0,1,2-.9,7.51,7.51,0,0,1,2.54,0,10.13,10.13,0,0,1,2.41.64,13,13,0,0,1,1.72.81v4l-2.52-.35v-2.12a6.92,6.92,0,0,0-1.42-.36,4.13,4.13,0,0,0-1.27,0,2.63,2.63,0,0,0-1.12.46,2.66,2.66,0,0,0-.8,1,3.26,3.26,0,0,0-.31,1.5,3.87,3.87,0,0,0,.25,1.39,3.85,3.85,0,0,0,1.84,2.07,4.48,4.48,0,0,0,1.5.48,5.09,5.09,0,0,0,2.14-.07,7.34,7.34,0,0,0,1.25-.47Z"/><path class="cls-4" d="M101.51,343.39l4.26,0.56v9l1.74,0.23v2.53l-3.62-.48-0.53-1.77h-0.09a3.34,3.34,0,0,1-1.58,1.24,4.48,4.48,0,0,1-2.34.26,5.66,5.66,0,0,1-1.59-.45,3.45,3.45,0,0,1-1.23-.93,4.17,4.17,0,0,1-.78-1.53,8.2,8.2,0,0,1-.28-2.29V345.1l-1.31-.18v-2.53L98.46,343v6.53a3.86,3.86,0,0,0,.45,2.08,1.88,1.88,0,0,0,1.41.81,2.3,2.3,0,0,0,2.48-1.42v-4.9l-1.28-.17v-2.53Z"/><path class="cls-4" d="M108.59,353.29l2.84,0.37v-6.44l-2.84-.37v-2.53l5.16,0.66,0.34,1.56h0.09a5.06,5.06,0,0,1,1.47-1.08,3.37,3.37,0,0,1,1.93-.26,3,3,0,0,1,2.17,1.28,6.06,6.06,0,0,1,.79,3.48l-2.68-.33a2.5,2.5,0,0,0-.24-1.24,1,1,0,0,0-.77-0.48,2.07,2.07,0,0,0-1.48.27,3.88,3.88,0,0,0-1,.94V354l5,0.62v2.53c-4.32-.54-6.48-0.81-10.8-1.37v-2.53Z"/><path class="cls-4" d="M131.9,363.58a11.9,11.9,0,0,1-3.12-1.38,10.86,10.86,0,0,1-2.69-2.37,11.38,11.38,0,0,1-1.87-3.35,12.72,12.72,0,0,1-.7-4.36,11.33,11.33,0,0,1,.7-4.18,8.53,8.53,0,0,1,1.87-2.94,7.88,7.88,0,0,1,2.69-1.77,10.37,10.37,0,0,1,3.12-.71l0.55,2.53a8.67,8.67,0,0,0-1.82.44,5.67,5.67,0,0,0-1.94,1.17,6.55,6.55,0,0,0-1.55,2.22,8.8,8.8,0,0,0-.63,3.6,9.1,9.1,0,0,0,.67,3.64,9.27,9.27,0,0,0,1.62,2.57,8.47,8.47,0,0,0,2,1.64,8.92,8.92,0,0,0,1.7.81Z"/><path class="cls-4" d="M137.66,356.84l3.51,0.4V347.19l-3,2-1.38-2,5.23-3.41,2,0.23c0,5.43,0,8.14,0,13.57l3.45,0.38v2.53l-9.81-1.1v-2.53Z"/><path class="cls-4" d="M151.44,358.37l3.51,0.37V348.69l-3,2-1.38-2,5.24-3.44,2,0.21c0,5.43,0,8.14,0,13.57l3.45,0.36v2.53c-3.92-.4-5.89-0.61-9.81-1v-2.53Z"/><path class="cls-4" d="M167.8,361.12a1.43,1.43,0,0,1,.52-1.19,1.74,1.74,0,0,1,1.3-.33,2.53,2.53,0,0,1,1.91,1,3.51,3.51,0,0,1,.64,2.11,4.1,4.1,0,0,1-.4,1.85,4.35,4.35,0,0,1-1,1.37,5,5,0,0,1-1.44.87,5.41,5.41,0,0,1-1.58.37l-0.62-1.33a6.15,6.15,0,0,0,1.11-.28,4,4,0,0,0,1-.53,3.07,3.07,0,0,0,.77-0.81,2.23,2.23,0,0,0,.36-1.07,2.94,2.94,0,0,1-1.17-.08,2,2,0,0,1-.79-0.45,1.72,1.72,0,0,1-.45-0.69A2.5,2.5,0,0,1,167.8,361.12Z"/><path class="cls-4" d="M179,361.14l3.52,0.33V351.42l-3,2-1.38-2,5.24-3.52,2,0.18c0,5.43,0,8.14,0,13.57l3.45,0.31v2.53l-9.82-.89v-2.53Z"/><path class="cls-4" d="M191.26,356.7a13.29,13.29,0,0,1,.44-3.63,6.85,6.85,0,0,1,1.24-2.5,4.54,4.54,0,0,1,1.91-1.39,5.56,5.56,0,0,1,2.47-.31,5.85,5.85,0,0,1,4.48,2.41q1.57,2.16,1.57,6.44a13.41,13.41,0,0,1-.44,3.66,7,7,0,0,1-1.24,2.52,4.49,4.49,0,0,1-1.92,1.41,5.61,5.61,0,0,1-2.48.31,5.7,5.7,0,0,1-4.48-2.53A11.27,11.27,0,0,1,191.26,356.7Zm3,0.26q0,0.35,0,.66t0,0.64l5.57-4.66a2.86,2.86,0,0,0-2.58-2.19,2.23,2.23,0,0,0-2.25,1.22A9,9,0,0,0,194.25,357Zm6.12,0.51c0-.25,0-0.48,0-0.7s0-.44,0-0.66l-5.59,4.66a2.92,2.92,0,0,0,2.58,2.31,2.26,2.26,0,0,0,2.26-1.21A9,9,0,0,0,200.37,357.47Z"/><path class="cls-4" d="M207,368.45a7.39,7.39,0,0,0,1.7-.48,6.46,6.46,0,0,0,2-1.25,7.1,7.1,0,0,0,1.62-2.26,8.13,8.13,0,0,0,.67-3.51,9.72,9.72,0,0,0-.63-3.73,8.55,8.55,0,0,0-1.55-2.52,7.48,7.48,0,0,0-1.94-1.55,10.46,10.46,0,0,0-1.83-.8l0.55-2.42a12.36,12.36,0,0,1,3.13,1.33,10.46,10.46,0,0,1,2.69,2.3,11,11,0,0,1,1.88,3.3,12.42,12.42,0,0,1,.7,4.32,11.53,11.53,0,0,1-.7,4.23,8.81,8.81,0,0,1-1.88,3,8.21,8.21,0,0,1-2.69,1.84,10,10,0,0,1-3.13.77Z"/><path class="cls-4" d="M344.13,372.14v-2.53l2.72,0v-6.44l-2.74,0c0-1,0-1.52,0-2.53l2.74,0V360a4.2,4.2,0,0,1,.38-1.86,3.7,3.7,0,0,1,1-1.28,4.07,4.07,0,0,1,1.44-.74,6,6,0,0,1,1.7-.23,10.84,10.84,0,0,1,2.62.28,6.75,6.75,0,0,1,1.7.66l-0.88,2.27a10.47,10.47,0,0,0-1.14-.46,5.05,5.05,0,0,0-1.58-.21,2.23,2.23,0,0,0-1.74.55,2.49,2.49,0,0,0-.5,1.69l4.85,0v2.53l-4.84,0c0,2.58,0,3.86,0,6.44l4.87,0v2.53C350.48,372.19,348.36,372.18,344.13,372.14Z"/><path class="cls-4" d="M358.41,361.5a12.62,12.62,0,0,1,2.13-.71,12.19,12.19,0,0,1,2.87-.3,6.39,6.39,0,0,1,2,.29,3.4,3.4,0,0,1,1.36.81,3.09,3.09,0,0,1,.75,1.26,5.53,5.53,0,0,1,.23,1.66q0,1.17-.08,2T367.63,368a9.84,9.84,0,0,0,0,1.08c0,0.21.05,0.42,0.07,0.62h1.5v2.53h-3.87l-0.3-1.56H365a4,4,0,0,1-1.31,1.23,4.37,4.37,0,0,1-2.29.52,3.9,3.9,0,0,1-2.73-.92,3.15,3.15,0,0,1-1-2.44,3.65,3.65,0,0,1,.35-1.67,3,3,0,0,1,1-1.15,4.9,4.9,0,0,1,1.63-.66,9.53,9.53,0,0,1,2.12-.22c0.27,0,.57,0,0.87,0l1.12,0.09a2.37,2.37,0,0,0,0-.46v-0.44a1.47,1.47,0,0,0-.5-1.25,2.46,2.46,0,0,0-1.49-.38,7,7,0,0,0-2.11.3,13.47,13.47,0,0,0-1.58.6Zm3.93,8.45a2.76,2.76,0,0,0,1.64-.4,2.71,2.71,0,0,0,.8-0.86V367.3l-0.68-.1a8,8,0,0,0-1-.06,4.75,4.75,0,0,0-.87.08,2.88,2.88,0,0,0-.78.25,1.51,1.51,0,0,0-.55.45,1.08,1.08,0,0,0-.2.67,1.31,1.31,0,0,0,.38,1A1.77,1.77,0,0,0,362.33,369.95Z"/><path class="cls-4" d="M382.77,371a6.69,6.69,0,0,1-2.21,1.09,9.75,9.75,0,0,1-2.65.38,7.5,7.5,0,0,1-2.66-.42,5.37,5.37,0,0,1-2-1.22,5.17,5.17,0,0,1-1.21-1.91,7.12,7.12,0,0,1-.42-2.48,6.48,6.48,0,0,1,.48-2.58,5.47,5.47,0,0,1,1.35-1.92,5.88,5.88,0,0,1,2-1.2,7.94,7.94,0,0,1,2.56-.42,9.47,9.47,0,0,1,2.42.28,11.25,11.25,0,0,1,1.73.56v4l-2.54,0v-2.12a6.49,6.49,0,0,0-1.43-.15,4.36,4.36,0,0,0-1.28.2,3.16,3.16,0,0,0-1.13.63,3.29,3.29,0,0,0-.81,1.07,3.87,3.87,0,0,0-.06,2.9,3.13,3.13,0,0,0,1.86,1.79,4.11,4.11,0,0,0,1.51.25,5.42,5.42,0,0,0,2.16-.39,8.81,8.81,0,0,0,1.26-.66Z"/><path class="cls-4" d="M386.69,363.11l-2.28,0v-2.53l2.28,0V358l3-.89v3.47l6-.09V363l-6,.09v3.29a3.92,3.92,0,0,0,.67,2.56,2.28,2.28,0,0,0,1.87.77,4,4,0,0,0,1.13-.17,4.34,4.34,0,0,0,.91-0.39,5.32,5.32,0,0,0,.74-0.52l0.61-.52,1.38,2a4.55,4.55,0,0,1-1,.86,8.54,8.54,0,0,1-1.27.69,8.15,8.15,0,0,1-1.42.47,6.81,6.81,0,0,1-1.45.18,4.91,4.91,0,0,1-3.89-1.38,6.6,6.6,0,0,1-1.3-4.55v-3.29Z"/><path class="cls-4" d="M398.66,366.15a7.12,7.12,0,0,1,.44-2.58,5.34,5.34,0,0,1,3.17-3.16,7.48,7.48,0,0,1,2.5-.45,7.17,7.17,0,0,1,2.59.38,5.2,5.2,0,0,1,1.93,1.19,5,5,0,0,1,1.19,1.89,7.25,7.25,0,0,1,.4,2.47,7.16,7.16,0,0,1-.44,2.59,5.35,5.35,0,0,1-3.17,3.17,7.41,7.41,0,0,1-2.5.46,7.13,7.13,0,0,1-2.6-.38,5.21,5.21,0,0,1-1.93-1.19,5,5,0,0,1-1.19-1.9A7.26,7.26,0,0,1,398.66,366.15Zm3.09-.06a4.51,4.51,0,0,0,.21,1.4,3.35,3.35,0,0,0,.6,1.11,2.62,2.62,0,0,0,.95.73,2.87,2.87,0,0,0,1.27.24,3,3,0,0,0,2.18-.9,3.78,3.78,0,0,0,.84-2.71,3.9,3.9,0,0,0-.78-2.55,2.65,2.65,0,0,0-2.24-.93,3.63,3.63,0,0,0-1.2.22,2.43,2.43,0,0,0-1,.65,3.18,3.18,0,0,0-.63,1.12A5,5,0,0,0,401.75,366.09Z"/><path class="cls-4" d="M412.6,369.06l2.86-.07c0-2.58,0-3.86,0-6.44l-2.86.07v-2.53l5.19-.14,0.35,1.51h0.09a6.37,6.37,0,0,1,1.48-1.31,3.74,3.74,0,0,1,1.94-.56,2.54,2.54,0,0,1,2.18.95,5.44,5.44,0,0,1,.8,3.36l-2.7.08a2.27,2.27,0,0,0-.24-1.2,0.82,0.82,0,0,0-.77-0.36,2.35,2.35,0,0,0-1.49.5,4.86,4.86,0,0,0-1,1.09v4.9l5-.15v2.53c-4.35.13-6.52,0.19-10.86,0.3v-2.53Z"/><path class="cls-4" d="M426.9,368.65l4.06-.14v-6.44l-4.06.14v-2.53l7.06-.24v9l4.27-.16c0,1,0,1.52,0,2.53-4.53.17-6.79,0.25-11.32,0.4v-2.53Zm3.5-12.22a1.68,1.68,0,0,1,.53-1.24,2.12,2.12,0,0,1,1.48-.56,2.19,2.19,0,0,1,1.55.45,1.5,1.5,0,0,1,.58,1.2,1.55,1.55,0,0,1-.58,1.23,2.43,2.43,0,0,1-1.55.53,2.08,2.08,0,0,1-1.48-.42A1.49,1.49,0,0,1,430.4,356.43Z"/><path class="cls-4" d="M441.45,359.94a13.12,13.12,0,0,1,2.13-.8,12.37,12.37,0,0,1,2.87-.42,6.28,6.28,0,0,1,2,.2,3.22,3.22,0,0,1,1.36.76,2.92,2.92,0,0,1,.75,1.23,5.43,5.43,0,0,1,.23,1.65q0,1.17-.08,2T450.67,366a9.76,9.76,0,0,0,0,1.08c0,0.21.05,0.42,0.07,0.62l1.5-.07v2.53l-3.87.17-0.3-1.55H448a4.23,4.23,0,0,1-1.31,1.29,4.49,4.49,0,0,1-2.29.61,3.76,3.76,0,0,1-2.73-.81,3,3,0,0,1-1-2.4,3.74,3.74,0,0,1,.35-1.68,3.15,3.15,0,0,1,1-1.19,5.13,5.13,0,0,1,1.63-.73,9.69,9.69,0,0,1,2.12-.31c0.27,0,.57,0,0.87,0l1.12,0a2.4,2.4,0,0,0,0-.46v-0.44a1.41,1.41,0,0,0-.5-1.23,2.39,2.39,0,0,0-1.49-.32,7.09,7.09,0,0,0-2.11.39,14.1,14.1,0,0,0-1.58.66Zm3.92,8.28a2.85,2.85,0,0,0,1.64-.47,2.88,2.88,0,0,0,.8-0.9v-1.38l-0.68-.07a7.9,7.9,0,0,0-1,0,4.83,4.83,0,0,0-.87.12,3,3,0,0,0-.78.29,1.6,1.6,0,0,0-.55.47,1.12,1.12,0,0,0-.2.68,1.26,1.26,0,0,0,.38,1A1.72,1.72,0,0,0,445.37,368.22Z"/><path class="cls-4" d="M455.21,354l4.91-.24v10.63a4.79,4.79,0,0,0,.44,2.44,1.46,1.46,0,0,0,1.41.62,4,4,0,0,0,1.18-.21,4.73,4.73,0,0,0,.92-0.47l1.13,2q-0.39.27-.78,0.51a5.36,5.36,0,0,1-.83.41,5.85,5.85,0,0,1-1,.28,7.69,7.69,0,0,1-1.16.14,4.18,4.18,0,0,1-3.25-.94,4.09,4.09,0,0,1-1.08-3.08v-9.66l-1.91.09V354Z"/><path class="cls-4" d="M468.83,372.06c4.09-.22,6.14-0.34,10.23-0.58v2.46c-4.09.24-6.14,0.36-10.23,0.58C468.83,373.54,468.83,373,468.83,372.06Z"/><path class="cls-4" d="M480.86,352.58l4.65-.28c0,2.36,0,3.53,0,5.89h0.09a4.26,4.26,0,0,1,1.47-1.27,5.24,5.24,0,0,1,2.17-.58,5.29,5.29,0,0,1,1.61.13,2.81,2.81,0,0,1,1.27.68,3.28,3.28,0,0,1,.83,1.38,7.05,7.05,0,0,1,.3,2.22c0,2.86,0,4.29,0,7.15l-3,.2v-6.53a2.7,2.7,0,0,0-.6-2,2,2,0,0,0-1.57-.52,2.76,2.76,0,0,0-1.57.62,3.06,3.06,0,0,0-1,1.39v7.34l-3,.18c0-5.43,0-8.14,0-13.57l-1.66.1C480.86,354.1,480.86,353.6,480.86,352.58Z"/><path class="cls-4" d="M507,365.73a4.55,4.55,0,0,1-.77.6,8.12,8.12,0,0,1-1.11.58,9,9,0,0,1-1.39.47,9.16,9.16,0,0,1-1.61.25,7.62,7.62,0,0,1-2.64-.23,4.69,4.69,0,0,1-3.2-2.9,6.86,6.86,0,0,1-.43-2.51,7,7,0,0,1,.48-2.69,5.84,5.84,0,0,1,1.32-2,6.08,6.08,0,0,1,2-1.27,7.94,7.94,0,0,1,2.44-.55,7.41,7.41,0,0,1,1.81.1,4.58,4.58,0,0,1,1.72.67,3.83,3.83,0,0,1,1.28,1.41,4.89,4.89,0,0,1,.5,2.36,11.21,11.21,0,0,1-.23,2.16l-8.29.59a2.53,2.53,0,0,0,.31,1.22,2.22,2.22,0,0,0,.76.77,3.06,3.06,0,0,0,1.08.4,5.3,5.3,0,0,0,1.3.06,7,7,0,0,0,2.27-.48,5.27,5.27,0,0,0,1.44-.89Zm-5-7.85a4,4,0,0,0-1.13.24,3.44,3.44,0,0,0-1,.55,2.9,2.9,0,0,0-.7.83,2.55,2.55,0,0,0-.32,1.08l5.67-.4A2.1,2.1,0,0,0,502,357.87Z"/><path class="cls-4" d="M510.5,350.58l4.9-.37c0,4.25,0,6.38,0,10.63a4.72,4.72,0,0,0,.44,2.43,1.42,1.42,0,0,0,1.4.58,4,4,0,0,0,1.17-.24,4.89,4.89,0,0,0,.92-0.5l1.13,2q-0.39.28-.78,0.53a5.54,5.54,0,0,1-.83.43,6,6,0,0,1-1,.31,7.8,7.8,0,0,1-1.16.17,4.08,4.08,0,0,1-3.25-.85,4,4,0,0,1-1.08-3c0-3.86,0-5.8,0-9.66l-1.91.14v-2.53Z"/><path class="cls-4" d="M522.31,354.26l3.91-.32,0.34,1.35h0.09a4.83,4.83,0,0,1,3.87-2,5.31,5.31,0,0,1,1.94.17,3.38,3.38,0,0,1,1.52.91,4.41,4.41,0,0,1,1,1.71,8.32,8.32,0,0,1,.34,2.57,8.76,8.76,0,0,1-.39,2.69,6.29,6.29,0,0,1-1.13,2.11,5.46,5.46,0,0,1-1.79,1.42,6.62,6.62,0,0,1-2.42.64,9.37,9.37,0,0,1-1.4,0,3.64,3.64,0,0,1-1.15-.24c0,1.89,0,2.83,0,4.71l-3,.25V356.65l-1.73.14v-2.53Zm7.32,1.6a3.27,3.27,0,0,0-1.6.57,2.55,2.55,0,0,0-1,1.4v4.78a2.26,2.26,0,0,0,.93.32,5,5,0,0,0,1.23,0,3.38,3.38,0,0,0,1.2-.32,2.76,2.76,0,0,0,1-.78,3.78,3.78,0,0,0,.64-1.27,6.18,6.18,0,0,0,.23-1.79,3.17,3.17,0,0,0-.74-2.28A2.2,2.2,0,0,0,529.63,355.86Z"/><path class="cls-4" d="M548.4,362.25a4.68,4.68,0,0,1-.77.61,8.35,8.35,0,0,1-1.1.6,9.38,9.38,0,0,1-3,.78,7.56,7.56,0,0,1-2.63-.17,4.55,4.55,0,0,1-3.2-2.83,6.79,6.79,0,0,1-.43-2.5,7.07,7.07,0,0,1,.48-2.7,6,6,0,0,1,1.32-2,6.24,6.24,0,0,1,2-1.32,8,8,0,0,1,2.44-.6,7.38,7.38,0,0,1,1.8.06,4.49,4.49,0,0,1,1.71.63,3.71,3.71,0,0,1,1.28,1.39,4.83,4.83,0,0,1,.5,2.34,11.28,11.28,0,0,1-.23,2.16l-8.28.77a2.5,2.5,0,0,0,.31,1.21,2.15,2.15,0,0,0,.76.76,3,3,0,0,0,1.08.37,5.28,5.28,0,0,0,1.3,0,7.05,7.05,0,0,0,2.27-.53,5.41,5.41,0,0,0,1.44-.92Zm-5-7.75a4,4,0,0,0-1.13.27,3.52,3.52,0,0,0-1,.57,3,3,0,0,0-.7.85,2.6,2.6,0,0,0-.32,1.08l5.66-.52A2.05,2.05,0,0,0,543.43,354.51Z"/><path class="cls-4" d="M550.81,360.71l2.85-.27c0-2.58,0-3.86,0-6.44l-2.85.27v-2.53l5.17-.5,0.34,1.48h0.09a7.05,7.05,0,0,1,1.47-1.41,4,4,0,0,1,1.93-.7,2.36,2.36,0,0,1,2.17.79,5.19,5.19,0,0,1,.79,3.3l-2.69.27a2.18,2.18,0,0,0-.24-1.18,0.76,0.76,0,0,0-.77-0.3,2.5,2.5,0,0,0-1.48.61,5.39,5.39,0,0,0-1,1.15v4.9l5-.5v2.53c-4.33.44-6.5,0.65-10.83,1.07v-2.53Z"/><path class="cls-4" d="M574.16,365.74a9.8,9.8,0,0,1-3.12-.68,7.87,7.87,0,0,1-2.69-1.76,8.48,8.48,0,0,1-1.87-2.93,11.39,11.39,0,0,1-.7-4.21,12.61,12.61,0,0,1,.7-4.34,11.43,11.43,0,0,1,1.87-3.36,10.87,10.87,0,0,1,2.69-2.38,12.73,12.73,0,0,1,3.12-1.42l0.55,2.4a10.73,10.73,0,0,0-1.83.85,7.77,7.77,0,0,0-1.94,1.61,8.89,8.89,0,0,0-1.55,2.57,9.87,9.87,0,0,0-.63,3.75,8,8,0,0,0,.67,3.49,6.8,6.8,0,0,0,1.62,2.21,6.18,6.18,0,0,0,2,1.19,7.2,7.2,0,0,0,1.7.43Z"/><path class="cls-4" d="M579.83,360.25l6.61-14.13L579,347c0-1.09,0-1.63,0-2.71,4.19-.46,6.28-0.7,10.47-1.18v2.25l-6.68,14.61Z"/><path class="cls-4" d="M592.51,347.74a6,6,0,0,1,.4-2.21,5.71,5.71,0,0,1,1.12-1.82,6.17,6.17,0,0,1,1.74-1.31,6.73,6.73,0,0,1,2.28-.68,6.46,6.46,0,0,1,2.34.11,4.19,4.19,0,0,1,1.81.94,4.42,4.42,0,0,1,1.17,1.76,7.2,7.2,0,0,1,.41,2.56,14.5,14.5,0,0,1-.69,4.68,11.11,11.11,0,0,1-1.85,3.45,9.51,9.51,0,0,1-2.7,2.3,11.8,11.8,0,0,1-3.21,1.26l-0.64-2.27a8.82,8.82,0,0,0,2.28-.89,8.12,8.12,0,0,0,1.78-1.35,7.06,7.06,0,0,0,1.24-1.69,5.83,5.83,0,0,0,.62-1.93,4.06,4.06,0,0,1-1.24.92,5.5,5.5,0,0,1-1.81.51h0a5.34,5.34,0,0,1-1.77-.09,4.15,4.15,0,0,1-1.62-.73,4.07,4.07,0,0,1-1.18-1.41A4.52,4.52,0,0,1,592.51,347.74Zm2.89-.5a2.38,2.38,0,0,0,.24,1.11,2.12,2.12,0,0,0,.63.75,2.33,2.33,0,0,0,.91.4,3.23,3.23,0,0,0,1.07,0,4.41,4.41,0,0,0,1.63-.5,2.85,2.85,0,0,0,1-.86,6.69,6.69,0,0,0,.07-0.93,4.23,4.23,0,0,0-.18-1.24,2.94,2.94,0,0,0-.55-1,2.3,2.3,0,0,0-.92-0.66,2.54,2.54,0,0,0-1.26-.14A2.94,2.94,0,0,0,595.4,347.24Z"/><path class="cls-4" d="M617,355.78c-4.09.53-6.14,0.79-10.23,1.3,0-.89,0-1.34,0-2.23,0.18-.18.41-0.41,0.69-0.7l0.93-1q0.52-.55,1.09-1.19t1.12-1.34q0.78-1,1.36-1.76a13.54,13.54,0,0,0,1-1.47,6.4,6.4,0,0,0,.56-1.31,4.55,4.55,0,0,0,.18-1.28,1.92,1.92,0,0,0-.21-0.87,2,2,0,0,0-.57-0.7,2.35,2.35,0,0,0-.88-0.42,3,3,0,0,0-1.14-.05,4.65,4.65,0,0,0-1.5.44,6.11,6.11,0,0,0-1.41,1l-1.19-2a11.91,11.91,0,0,1,2.14-1.43,8,8,0,0,1,2.72-.82,6.28,6.28,0,0,1,1.89,0,4.32,4.32,0,0,1,1.6.61,3.28,3.28,0,0,1,1.11,1.2,3.71,3.71,0,0,1,.41,1.81,7.27,7.27,0,0,1-.13,1.38,7.45,7.45,0,0,1-.39,1.32,10,10,0,0,1-.69,1.39q-0.43.72-1,1.58-0.46.66-1,1.34T612.4,352q-0.53.62-1,1.17t-0.93.92l6.6-.85v2.53Z"/><path class="cls-4" d="M619.67,347.36a14.42,14.42,0,0,1,.44-3.73,8.77,8.77,0,0,1,1.23-2.77,6.2,6.2,0,0,1,1.9-1.8,6.36,6.36,0,0,1,2.46-.85,4.67,4.67,0,0,1,4.46,1.43q1.56,1.82,1.56,6.1a14.56,14.56,0,0,1-.44,3.75,9,9,0,0,1-1.23,2.79,6.14,6.14,0,0,1-1.91,1.82,6.43,6.43,0,0,1-2.47.85,4.52,4.52,0,0,1-4.46-1.56Q619.67,351.45,619.67,347.36Zm3-.39c0,0.23,0,.45,0,0.65s0,0.42,0,.63l5.55-5.87a2.19,2.19,0,0,0-2.57-1.63,2.9,2.9,0,0,0-2.24,1.71A10.13,10.13,0,0,0,622.65,347Zm6.1-.82q0-.37,0-0.7c0-.22,0-0.44,0-0.65l-5.57,5.88a2.23,2.23,0,0,0,2.57,1.75,2.93,2.93,0,0,0,2.25-1.71A10.16,10.16,0,0,0,628.74,346.15Z"/><path class="cls-4" d="M637.54,351.53a1.82,1.82,0,0,1,.52-1.31,2.17,2.17,0,0,1,1.29-.64,2,2,0,0,1,1.9.56,2.88,2.88,0,0,1,.64,2,4.76,4.76,0,0,1-.4,1.94,6.05,6.05,0,0,1-1,1.62,6.9,6.9,0,0,1-1.43,1.22,6.71,6.71,0,0,1-1.57.75l-0.62-1.18a7.67,7.67,0,0,0,1.11-.55,5.46,5.46,0,0,0,1-.78,4.38,4.38,0,0,0,.77-1,2.76,2.76,0,0,0,.35-1.15,3,3,0,0,1-1.17.2,1.53,1.53,0,0,1-.79-0.26,1.24,1.24,0,0,1-.45-0.58A2.2,2.2,0,0,1,637.54,351.53Z"/><path class="cls-4" d="M648.62,351.41l6.59-14.36-7.46,1.1v-2.71c4.18-.61,6.26-0.92,10.43-1.55v2.25L651.53,351Z"/><path class="cls-4" d="M662.76,351.66a9.25,9.25,0,0,0,1.69-.87,8.94,8.94,0,0,0,2-1.71,9.74,9.74,0,0,0,1.61-2.63,9.3,9.3,0,0,0,.66-3.67,8.67,8.67,0,0,0-.63-3.58,6.24,6.24,0,0,0-1.54-2.16,5.4,5.4,0,0,0-1.93-1.1,8.46,8.46,0,0,0-1.82-.38l0.55-2.55a10.07,10.07,0,0,1,3.11.6,7.47,7.47,0,0,1,2.67,1.68,8.13,8.13,0,0,1,1.86,2.87,11.17,11.17,0,0,1,.7,4.16,13,13,0,0,1-.7,4.39,11.93,11.93,0,0,1-1.86,3.42,11.42,11.42,0,0,1-2.67,2.47,12.34,12.34,0,0,1-3.11,1.49Z"/><path class="cls-4" d="M53.73,449.93V447.4l2.7,0.43v-6.44L53.71,441v-2.53l2.72,0.43v-0.64a3.87,3.87,0,0,1,.38-1.8,3,3,0,0,1,1-1.13,3.43,3.43,0,0,1,1.43-.53,5.72,5.72,0,0,1,1.68,0,11.55,11.55,0,0,1,2.6.66,7.9,7.9,0,0,1,1.68.91l-0.87,2.14a12.29,12.29,0,0,0-1.13-.63,5.46,5.46,0,0,0-1.57-.45,2,2,0,0,0-1.73.3,2.21,2.21,0,0,0-.49,1.61l4.8,0.74v2.53l-4.8-.74v6.44L64.22,449v2.53C60,450.93,57.93,450.6,53.73,449.93Z"/><path class="cls-4" d="M67.88,441.41A11.15,11.15,0,0,1,70,441a11.81,11.81,0,0,1,2.85.12,6.9,6.9,0,0,1,2,.59,4.14,4.14,0,0,1,1.35,1,3.74,3.74,0,0,1,.74,1.37,5.91,5.91,0,0,1,.23,1.69q0,1.17-.08,2c-0.05.54-.08,1-0.08,1.46a10.11,10.11,0,0,0,0,1.09c0,0.21.05,0.43,0.07,0.63l1.49,0.22v2.53l-3.84-.56-0.3-1.61-0.11,0a3.19,3.19,0,0,1-1.3,1,4,4,0,0,1-2.27.18,4.47,4.47,0,0,1-2.71-1.33,3.65,3.65,0,0,1-1-2.59,3.35,3.35,0,0,1,.35-1.61,2.38,2.38,0,0,1,1-1,4.24,4.24,0,0,1,1.61-.42,9.26,9.26,0,0,1,2.1.1q0.41,0.06.86,0.17l1.11,0.26a2.27,2.27,0,0,0,0-.45v-0.44a1.7,1.7,0,0,0-.5-1.33,2.76,2.76,0,0,0-1.48-.6,6.64,6.64,0,0,0-2.09,0,11.74,11.74,0,0,0-1.57.36Zm3.89,9a2.52,2.52,0,0,0,1.63-.16,2.16,2.16,0,0,0,.79-0.75v-1.38l-0.68-.2a8.27,8.27,0,0,0-1-.2,4.65,4.65,0,0,0-.86,0,2.57,2.57,0,0,0-.77.14,1.22,1.22,0,0,0-.54.37,1,1,0,0,0-.2.64,1.51,1.51,0,0,0,.37,1.06A2,2,0,0,0,71.78,450.43Z"/><path class="cls-4" d="M92.06,454.52a5.66,5.66,0,0,1-2.2.76,9.31,9.31,0,0,1-2.63,0,8.17,8.17,0,0,1-2.65-.81,6.56,6.56,0,0,1-1.95-1.51,6.29,6.29,0,0,1-1.2-2.09,7.69,7.69,0,0,1-.41-2.54,6,6,0,0,1,.48-2.51,4.43,4.43,0,0,1,1.34-1.72,4.87,4.87,0,0,1,2-.9,7.52,7.52,0,0,1,2.54,0,10.12,10.12,0,0,1,2.4.64,12.91,12.91,0,0,1,1.72.81v4L89,448.3v-2.12a6.93,6.93,0,0,0-1.42-.36,4.15,4.15,0,0,0-1.27,0,2.58,2.58,0,0,0-1.92,1.42,3.26,3.26,0,0,0-.31,1.5,3.85,3.85,0,0,0,.25,1.39,3.85,3.85,0,0,0,1.84,2.07,4.48,4.48,0,0,0,1.5.48,5.09,5.09,0,0,0,2.14-.07,7.33,7.33,0,0,0,1.25-.47Z"/><path class="cls-4" d="M96,447.19l-2.27-.31v-2.53L96,444.65V442l3-.45v3.47l6,0.8v2.53l-6-.8v3.29a4.39,4.39,0,0,0,.66,2.65,2.66,2.66,0,0,0,1.86,1,3.83,3.83,0,0,0,1.12,0,3.76,3.76,0,0,0,.91-0.26,4.33,4.33,0,0,0,.73-0.41l0.61-.43,1.38,2.25a3.66,3.66,0,0,1-1,.71,7.12,7.12,0,0,1-1.26.5,7.25,7.25,0,0,1-1.41.26,6.58,6.58,0,0,1-1.44,0,5.68,5.68,0,0,1-3.86-2A7.45,7.45,0,0,1,96,450.47v-3.29Z"/><path class="cls-4" d="M107.85,452a6.66,6.66,0,0,1,.44-2.52,4.43,4.43,0,0,1,1.24-1.75,4.51,4.51,0,0,1,1.91-.94,7,7,0,0,1,2.49-.08,7.8,7.8,0,0,1,2.58.76,6.34,6.34,0,0,1,1.92,1.47A6.08,6.08,0,0,1,119.6,451a7.81,7.81,0,0,1,.4,2.53,6.68,6.68,0,0,1-.44,2.52,4.35,4.35,0,0,1-3.15,2.7,7,7,0,0,1-2.49.09,7.75,7.75,0,0,1-2.58-.77,6.34,6.34,0,0,1-1.91-1.48,6.1,6.1,0,0,1-1.18-2.07A7.82,7.82,0,0,1,107.85,452Zm3.07,0.4a4.83,4.83,0,0,0,.21,1.43,4,4,0,0,0,.6,1.2,3.25,3.25,0,0,0,.94.87,3.16,3.16,0,0,0,1.26.43,2.61,2.61,0,0,0,2.17-.58,3.34,3.34,0,0,0,.84-2.59,4.42,4.42,0,0,0-.78-2.66,3.1,3.1,0,0,0-2.22-1.26,3.42,3.42,0,0,0-1.19,0,2,2,0,0,0-1,.51,2.61,2.61,0,0,0-.63,1A4.7,4.7,0,0,0,110.92,452.39Z"/><path class="cls-4" d="M121.7,457l2.84,0.35v-6.44l-2.84-.35V448l5.16,0.63,0.34,1.56h0.09a5.13,5.13,0,0,1,1.47-1.09,3.39,3.39,0,0,1,1.93-.28,3,3,0,0,1,2.17,1.27,6,6,0,0,1,.79,3.47l-2.69-.32a2.49,2.49,0,0,0-.24-1.24,1,1,0,0,0-.77-0.47,2.08,2.08,0,0,0-1.48.28,3.9,3.9,0,0,0-1,.94v4.9l5,0.59v2.53c-4.32-.51-6.49-0.77-10.81-1.3V457Z"/><path class="cls-4" d="M135.93,458.66l4,0.46v-6.44l-4-.46v-2.53l7,0.8v9l4.25,0.47v2.53c-4.51-.5-6.77-0.75-11.27-1.27v-2.53Zm3.49-11.7a1.44,1.44,0,0,1,.53-1.16,1.86,1.86,0,0,1,1.47-.34,2.5,2.5,0,0,1,1.54.68,1.77,1.77,0,0,1,.57,1.28,1.32,1.32,0,0,1-.57,1.14,2.17,2.17,0,0,1-1.54.3,2.37,2.37,0,0,1-1.47-.64A1.73,1.73,0,0,1,139.42,447Z"/><path class="cls-4" d="M150.42,452.09a11.54,11.54,0,0,1,2.12-.48,11.87,11.87,0,0,1,2.86,0,6.72,6.72,0,0,1,2,.5,3.91,3.91,0,0,1,1.36,1,3.54,3.54,0,0,1,.75,1.34,5.79,5.79,0,0,1,.23,1.68q0,1.17-.08,2t-0.08,1.46a10,10,0,0,0,0,1.09c0,0.21.05,0.43,0.07,0.63l1.49,0.15v2.53l-3.86-.4-0.3-1.6h-0.11a3.4,3.4,0,0,1-1.3,1.09,4.1,4.1,0,0,1-2.28.28,4.29,4.29,0,0,1-2.72-1.21,3.5,3.5,0,0,1-1-2.55,3.43,3.43,0,0,1,.35-1.63,2.54,2.54,0,0,1,1-1,4.41,4.41,0,0,1,1.62-.49,9.32,9.32,0,0,1,2.11,0q0.41,0,.87.14l1.12,0.21a2.31,2.31,0,0,0,0-.46v-0.44a1.63,1.63,0,0,0-.5-1.31,2.66,2.66,0,0,0-1.48-.54,6.7,6.7,0,0,0-2.1.08,12.22,12.22,0,0,0-1.57.43Zm3.91,8.86a2.58,2.58,0,0,0,1.64-.23,2.31,2.31,0,0,0,.8-0.78v-1.38l-0.68-.18a8.13,8.13,0,0,0-1-.16,4.66,4.66,0,0,0-.86,0,2.63,2.63,0,0,0-.77.17,1.29,1.29,0,0,0-.55.39,1,1,0,0,0-.2.65,1.45,1.45,0,0,0,.37,1A1.94,1.94,0,0,0,154.33,460.95Z"/><path class="cls-4" d="M164.13,448.14l4.9,0.49v10.63a5.2,5.2,0,0,0,.44,2.5,1.72,1.72,0,0,0,1.4.83,3.76,3.76,0,0,0,1.17,0,4,4,0,0,0,.92-0.34l1.13,2.18q-0.39.22-.78,0.4a4.6,4.6,0,0,1-.83.29,5.31,5.31,0,0,1-1,.14,7.49,7.49,0,0,1-1.16,0,4.78,4.78,0,0,1-3.24-1.42,4.68,4.68,0,0,1-1.08-3.24v-9.66l-1.91-.19v-2.53Z"/><path class="cls-4" d="M186.39,471.24a11.6,11.6,0,0,1-3.13-1.29,10.44,10.44,0,0,1-2.69-2.29,11,11,0,0,1-1.87-3.3A12.52,12.52,0,0,1,178,460a11.46,11.46,0,0,1,.7-4.2,8.84,8.84,0,0,1,1.87-3,8.19,8.19,0,0,1,2.69-1.85,10.6,10.6,0,0,1,3.13-.8l0.55,2.51a8.9,8.9,0,0,0-1.83.49,5.88,5.88,0,0,0-1.94,1.23,6.8,6.8,0,0,0-1.55,2.26,9.26,9.26,0,0,0,1.66,9.78,8.15,8.15,0,0,0,2,1.58,8.63,8.63,0,0,0,1.7.76Z"/><path class="cls-4" d="M192.16,464.34l3.52,0.3V454.59l-3,2.06-1.38-2,5.25-3.55,2,0.17v13.57l3.45,0.28v2.53l-9.83-.83v-2.53Z"/><path class="cls-4" d="M206,465.49l3.52,0.28V455.72l-3,2.08-1.38-1.95,5.25-3.59,2,0.16V466l3.45,0.26v2.53L206,468v-2.53Z"/><path class="cls-4" d="M220.11,471.46a7.42,7.42,0,0,0,1.7-.49,6.52,6.52,0,0,0,2-1.26,7.16,7.16,0,0,0,1.62-2.27,8.17,8.17,0,0,0,.67-3.52,9.68,9.68,0,0,0-.63-3.72,8.48,8.48,0,0,0-1.55-2.51,7.41,7.41,0,0,0-1.95-1.54,10.35,10.35,0,0,0-1.83-.79l0.55-2.42a12.28,12.28,0,0,1,3.13,1.3,10.34,10.34,0,0,1,2.69,2.28,10.92,10.92,0,0,1,1.88,3.29,12.39,12.39,0,0,1,.7,4.31,11.58,11.58,0,0,1-.7,4.23,8.89,8.89,0,0,1-1.88,3,8.28,8.28,0,0,1-2.69,1.86,10.06,10.06,0,0,1-3.13.79Z"/><path class="cls-4" d="M371.75,474.22v-2.53h2.72v-6.44h-2.74v-2.53h2.74v-0.64a4.24,4.24,0,0,1,.38-1.87,3.78,3.78,0,0,1,1-1.29,4.14,4.14,0,0,1,1.44-.76,6,6,0,0,1,1.7-.25,10.8,10.8,0,0,1,2.62.24,6.67,6.67,0,0,1,1.7.64l-0.88,2.29a10.37,10.37,0,0,0-1.14-.45,5,5,0,0,0-1.58-.19A2.26,2.26,0,0,0,378,461a2.51,2.51,0,0,0-.5,1.69l4.84,0v2.53l-4.84,0v6.44l4.87,0v2.53C378.11,474.19,376,474.21,371.75,474.22Z"/><path class="cls-4" d="M386,463.39a12.74,12.74,0,0,1,2.13-.74,12.23,12.23,0,0,1,2.87-.34,6.35,6.35,0,0,1,2,.26,3.34,3.34,0,0,1,1.36.79,3,3,0,0,1,.75,1.25,5.49,5.49,0,0,1,.23,1.65q0,1.17-.08,2t-0.08,1.47a9.83,9.83,0,0,0,0,1.08c0,0.21.05,0.42,0.07,0.62l1.5,0v2.53L393,474l-0.3-1.56h-0.11a4.06,4.06,0,0,1-1.31,1.25,4.41,4.41,0,0,1-2.29.55,3.85,3.85,0,0,1-2.73-.89,3.11,3.11,0,0,1-1-2.43,3.68,3.68,0,0,1,.35-1.67,3,3,0,0,1,1-1.16,5,5,0,0,1,1.63-.69,9.58,9.58,0,0,1,2.12-.25c0.27,0,.57,0,0.87,0l1.12,0.08a2.37,2.37,0,0,0,0-.46v-0.44a1.45,1.45,0,0,0-.5-1.25,2.43,2.43,0,0,0-1.49-.36,7,7,0,0,0-2.11.33,13.72,13.72,0,0,0-1.58.62Zm3.93,8.39a2.53,2.53,0,0,0,2.44-1.3V469.1l-0.68-.09a7.91,7.91,0,0,0-1,0,4.79,4.79,0,0,0-.87.09,2.91,2.91,0,0,0-.78.26,1.54,1.54,0,0,0-.55.46,1.09,1.09,0,0,0-.2.67,1.29,1.29,0,0,0,.38,1A1.75,1.75,0,0,0,390,471.78Z"/><path class="cls-4" d="M410.4,472.56a6.8,6.8,0,0,1-2.21,1.12,9.81,9.81,0,0,1-2.65.42,7.46,7.46,0,0,1-2.66-.38,5.28,5.28,0,0,1-2-1.19,5.07,5.07,0,0,1-1.21-1.9,7.08,7.08,0,0,1-.42-2.48,6.53,6.53,0,0,1,.48-2.59,5.58,5.58,0,0,1,1.35-1.94,6,6,0,0,1,2-1.23,8,8,0,0,1,2.56-.46,9.42,9.42,0,0,1,2.42.24,11.14,11.14,0,0,1,1.73.53v4l-2.54.06v-2.12a6.48,6.48,0,0,0-1.43-.13,4.39,4.39,0,0,0-1.28.22,3.22,3.22,0,0,0-1.13.65,3.36,3.36,0,0,0-.81,1.09,3.55,3.55,0,0,0-.31,1.55,3.51,3.51,0,0,0,.25,1.35,3.07,3.07,0,0,0,1.86,1.77,4.09,4.09,0,0,0,1.51.23,5.46,5.46,0,0,0,2.16-.42,9,9,0,0,0,1.26-.67Z"/><path class="cls-4" d="M414.32,464.6l-2.28.06v-2.53l2.28-.06v-2.62l3-.93c0,1.39,0,2.08,0,3.47l6-.18v2.53l-6,.18v3.29a3.87,3.87,0,0,0,.67,2.55,2.24,2.24,0,0,0,1.87.74,4,4,0,0,0,1.13-.18,4.4,4.4,0,0,0,.91-0.41,5.42,5.42,0,0,0,.74-0.53l0.61-.52,1.38,2a4.65,4.65,0,0,1-1,.87,8.72,8.72,0,0,1-1.27.71,8.24,8.24,0,0,1-1.42.49,6.84,6.84,0,0,1-1.45.2,4.85,4.85,0,0,1-3.89-1.33q-1.3-1.4-1.3-4.53V464.6Z"/><path class="cls-4" d="M426.29,467.47a7.18,7.18,0,0,1,.44-2.59,5.44,5.44,0,0,1,3.17-3.2,7.53,7.53,0,0,1,2.5-.49,7.13,7.13,0,0,1,2.59.34,5.1,5.1,0,0,1,1.93,1.16,4.92,4.92,0,0,1,1.19,1.88,7.82,7.82,0,0,1,0,5.06,5.46,5.46,0,0,1-3.17,3.21,7.46,7.46,0,0,1-2.5.49,7.08,7.08,0,0,1-2.59-.35,5.11,5.11,0,0,1-1.93-1.17,4.94,4.94,0,0,1-1.19-1.88A7.22,7.22,0,0,1,426.29,467.47Zm3.09-.1a4.48,4.48,0,0,0,.21,1.4,3.29,3.29,0,0,0,.6,1.11,2.57,2.57,0,0,0,.94.71,2.85,2.85,0,0,0,1.27.22,3,3,0,0,0,2.18-.93,4.66,4.66,0,0,0,.06-5.26,2.61,2.61,0,0,0-2.24-.9,3.65,3.65,0,0,0-1.2.24,2.48,2.48,0,0,0-1,.67,3.24,3.24,0,0,0-.63,1.13A5,5,0,0,0,429.38,467.37Z"/><path class="cls-4" d="M440.21,470.19l2.86-.11v-6.44l-2.86.11v-2.53l5.19-.21,0.35,1.5h0.09a6.51,6.51,0,0,1,1.48-1.33,3.78,3.78,0,0,1,1.94-.59,2.51,2.51,0,0,1,2.18.91,5.39,5.39,0,0,1,.79,3.34l-2.7.12a2.25,2.25,0,0,0-.24-1.2,0.81,0.81,0,0,0-.77-0.35A2.37,2.37,0,0,0,447,464a5,5,0,0,0-1,1.1V470l5-.22v2.53c-4.34.19-6.52,0.29-10.86,0.46v-2.53Z"/><path class="cls-4" d="M454.51,469.58l4.06-.19c0-2.58,0-3.86,0-6.44l-4.06.19v-2.53l7.05-.34v9l4.26-.22c0,1,0,1.52,0,2.53-4.53.24-6.79,0.35-11.32,0.56v-2.53Zm3.5-12.26a1.71,1.71,0,0,1,.53-1.24,2.14,2.14,0,0,1,1.47-.58,2.17,2.17,0,0,1,1.54.43,1.49,1.49,0,0,1,.58,1.19,1.57,1.57,0,0,1-.58,1.24,2.47,2.47,0,0,1-1.54.55,2.06,2.06,0,0,1-1.47-.4A1.47,1.47,0,0,1,458,457.31Z"/><path class="cls-4" d="M469.05,460.66a13.27,13.27,0,0,1,2.13-.83,12.43,12.43,0,0,1,2.87-.46,6.25,6.25,0,0,1,2,.17,3.16,3.16,0,0,1,1.36.74,2.87,2.87,0,0,1,.75,1.22,5.4,5.4,0,0,1,.23,1.64q0,1.17-.08,2t-0.08,1.48a9.74,9.74,0,0,0,0,1.08c0,0.21.05,0.42,0.07,0.62l1.5-.09v2.53L476,471l-0.3-1.55H475.6a4.31,4.31,0,0,1-1.31,1.3,4.54,4.54,0,0,1-2.29.65,3.71,3.71,0,0,1-2.73-.77,3,3,0,0,1-1-2.38,3.78,3.78,0,0,1,.35-1.69,3.21,3.21,0,0,1,1-1.21,5.2,5.2,0,0,1,1.63-.76,9.72,9.72,0,0,1,2.12-.34,8.65,8.65,0,0,1,.87,0l1.12,0a2.4,2.4,0,0,0,0-.46v-0.44a1.39,1.39,0,0,0-.5-1.23,2.36,2.36,0,0,0-1.49-.29,7.13,7.13,0,0,0-2.1.42,14.27,14.27,0,0,0-1.58.68Zm3.92,8.22a2.88,2.88,0,0,0,1.64-.49,3,3,0,0,0,.8-0.91V466.1l-0.68-.06a7.91,7.91,0,0,0-1,0,4.85,4.85,0,0,0-.87.13,3,3,0,0,0-.77.3,1.64,1.64,0,0,0-.55.48,1.13,1.13,0,0,0-.2.68,1.24,1.24,0,0,0,.38,1A1.69,1.69,0,0,0,473,468.88Z"/><path class="cls-4" d="M482.81,454.49l4.91-.31c0,4.25,0,6.38,0,10.63a4.76,4.76,0,0,0,.44,2.43,1.44,1.44,0,0,0,1.41.6,4,4,0,0,0,1.17-.23,4.83,4.83,0,0,0,.92-0.49l1.13,2q-0.39.28-.78,0.52a5.46,5.46,0,0,1-.83.42,5.89,5.89,0,0,1-1,.29,7.69,7.69,0,0,1-1.16.16,4.13,4.13,0,0,1-3.25-.9,4,4,0,0,1-1.08-3.06V456.9l-1.91.12v-2.53Z"/><path class="cls-4" d="M496.42,472.4c4.09-.28,6.14-0.42,10.22-0.72v2.46c-4.09.3-6.13,0.44-10.22,0.72V472.4Z"/><path class="cls-4" d="M508.44,452.76l4.65-.35c0,2.36,0,3.53,0,5.89h0.09a4.34,4.34,0,0,1,1.47-1.29,5.76,5.76,0,0,1,3.78-.5,2.76,2.76,0,0,1,1.27.66,3.22,3.22,0,0,1,.83,1.37,7,7,0,0,1,.3,2.22c0,2.86,0,4.29,0,7.15l-3,.24v-6.53a2.67,2.67,0,0,0-.6-2,1.94,1.94,0,0,0-1.57-.5,2.8,2.8,0,0,0-1.56.64,3.12,3.12,0,0,0-1,1.4c0,2.93,0,4.4,0,7.34l-3,.23V455.16l-1.66.12v-2.53Z"/><path class="cls-4" d="M534.54,465.53a4.61,4.61,0,0,1-.77.61,8.26,8.26,0,0,1-1.1.59,9.34,9.34,0,0,1-3,.76,7.59,7.59,0,0,1-2.64-.19,4.6,4.6,0,0,1-3.2-2.85,6.82,6.82,0,0,1-.43-2.51,7.05,7.05,0,0,1,.48-2.7,6,6,0,0,1,1.32-2,6.19,6.19,0,0,1,2-1.3,8,8,0,0,1,2.44-.59,7.38,7.38,0,0,1,1.81.08,4.52,4.52,0,0,1,1.71.65,3.75,3.75,0,0,1,1.28,1.4,4.85,4.85,0,0,1,.5,2.35,11.26,11.26,0,0,1-.23,2.16l-8.28.71a2.51,2.51,0,0,0,.31,1.22,2.17,2.17,0,0,0,.76.76,3,3,0,0,0,1.08.38,5.3,5.3,0,0,0,1.3,0,7,7,0,0,0,2.27-.52,5.36,5.36,0,0,0,1.44-.91Zm-5-7.78a4,4,0,0,0-1.13.26,3.5,3.5,0,0,0-1,.56,3,3,0,0,0-.7.84,2.58,2.58,0,0,0-.32,1.08l5.66-.48A2.07,2.07,0,0,0,529.57,457.75Z"/><path class="cls-4" d="M538.06,450.34l4.9-.44v10.63a4.69,4.69,0,0,0,.44,2.42,1.4,1.4,0,0,0,1.4.56,4,4,0,0,0,1.17-.26,5,5,0,0,0,.92-0.51l1.13,2q-0.39.29-.78,0.55a5.66,5.66,0,0,1-.83.45,6,6,0,0,1-1,.32,7.8,7.8,0,0,1-1.16.19,4,4,0,0,1-3.24-.81,3.94,3.94,0,0,1-1.08-3V452.7l-1.91.17v-2.53Z"/><path class="cls-4" d="M549.86,453.85l3.91-.38,0.34,1.35h0.09a4.9,4.9,0,0,1,3.86-2.08,5.28,5.28,0,0,1,1.94.14,3.32,3.32,0,0,1,1.52.89,4.34,4.34,0,0,1,1,1.69,8.27,8.27,0,0,1,.34,2.56,8.83,8.83,0,0,1-.39,2.7,6.4,6.4,0,0,1-1.13,2.13,5.55,5.55,0,0,1-1.79,1.45,6.68,6.68,0,0,1-2.41.68,9.42,9.42,0,0,1-1.4,0,3.61,3.61,0,0,1-1.15-.22v4.71l-3,.29V456.22l-1.72.17v-2.53Zm7.31,1.5a3.3,3.3,0,0,0-1.6.59,2.59,2.59,0,0,0-1,1.41v4.78a2.23,2.23,0,0,0,.93.31,5,5,0,0,0,1.23,0,3.41,3.41,0,0,0,1.2-.34,2.82,2.82,0,0,0,1-.8,3.84,3.84,0,0,0,.64-1.28,6.22,6.22,0,0,0,.23-1.79A3.13,3.13,0,0,0,559,456,2.17,2.17,0,0,0,557.17,455.35Z"/><path class="cls-4" d="M575.92,461.48a4.76,4.76,0,0,1-.77.62,8.43,8.43,0,0,1-1.1.61,9.45,9.45,0,0,1-3,.83,7.53,7.53,0,0,1-2.63-.14,4.46,4.46,0,0,1-3.19-2.79,6.75,6.75,0,0,1-.42-2.5,7.13,7.13,0,0,1,.48-2.71,6.13,6.13,0,0,1,1.32-2,6.36,6.36,0,0,1,2-1.34,8.1,8.1,0,0,1,2.44-.64,7.35,7.35,0,0,1,1.8,0,4.42,4.42,0,0,1,1.71.61,3.63,3.63,0,0,1,1.27,1.37,4.8,4.8,0,0,1,.49,2.34,11.35,11.35,0,0,1-.23,2.16l-8.27.88a2.47,2.47,0,0,0,.31,1.21,2.1,2.1,0,0,0,.76.75,2.94,2.94,0,0,0,1.08.36,5.28,5.28,0,0,0,1.3,0,7.12,7.12,0,0,0,2.26-.56,5.51,5.51,0,0,0,1.44-.94Zm-5-7.68a4,4,0,0,0-1.13.28,3.59,3.59,0,0,0-1,.58,3,3,0,0,0-.7.86,2.63,2.63,0,0,0-.32,1.09l5.65-.6A2,2,0,0,0,571,453.8Z"/><path class="cls-4" d="M578.33,459.9l2.85-.31v-6.44l-2.85.31v-2.53l5.17-.57,0.34,1.48h0.09a7.21,7.21,0,0,1,1.47-1.43,4,4,0,0,1,1.93-.73,2.33,2.33,0,0,1,2.17.76,5.15,5.15,0,0,1,.79,3.29l-2.69.31a2.16,2.16,0,0,0-.24-1.18,0.75,0.75,0,0,0-.77-0.29,2.53,2.53,0,0,0-1.48.63,5.49,5.49,0,0,0-1,1.17v4.9l5-.57v2.53c-4.33.5-6.49,0.74-10.82,1.22V459.9Z"/><path class="cls-4" d="M601.65,464.61a9.68,9.68,0,0,1-3.12-.63,7.71,7.71,0,0,1-2.68-1.73,8.33,8.33,0,0,1-1.87-2.91,11.33,11.33,0,0,1-.7-4.2,12.71,12.71,0,0,1,.7-4.35,11.65,11.65,0,0,1,1.87-3.38,11.09,11.09,0,0,1,2.68-2.42,12.91,12.91,0,0,1,3.12-1.46l0.55,2.39a10.9,10.9,0,0,0-1.82.88,7.92,7.92,0,0,0-1.94,1.64,9.05,9.05,0,0,0-1.55,2.59,9.94,9.94,0,0,0-.63,3.76,8,8,0,0,0,.67,3.49,6.67,6.67,0,0,0,1.62,2.19,6.06,6.06,0,0,0,2,1.17,7.1,7.1,0,0,0,1.7.4Z"/><path class="cls-4" d="M607.41,456.49l3.51-.44V446l-3,2.7L606.52,447l5.23-4.66,2-.26v13.57l3.44-.44v2.53L607.41,459v-2.53Z"/><path class="cls-4" d="M623.74,455.44a1.81,1.81,0,0,1,.52-1.31,2.16,2.16,0,0,1,1.3-.63,2,2,0,0,1,1.9.57,2.89,2.89,0,0,1,.64,2,4.74,4.74,0,0,1-.4,1.94,6,6,0,0,1-1,1.61,6.82,6.82,0,0,1-1.43,1.21,6.65,6.65,0,0,1-1.57.74L623,460.34a7.64,7.64,0,0,0,1.11-.54,5.43,5.43,0,0,0,1-.77,4.34,4.34,0,0,0,.77-1,2.74,2.74,0,0,0,.36-1.15,3,3,0,0,1-1.17.19,1.54,1.54,0,0,1-.79-0.26,1.25,1.25,0,0,1-.45-0.58A2.21,2.21,0,0,1,623.74,455.44Z"/><path class="cls-4" d="M634.92,452.86l3.5-.49V442.32l-3,2.75L634,443.41l5.22-4.73,2-.29V452l3.43-.49V454l-9.78,1.39v-2.53Z"/><path class="cls-4" d="M648.66,450.9l3.5-.52V440.33l-3,2.77-1.37-1.64,5.22-4.77,2-.3V450l3.43-.52V452c-3.91.59-5.86,0.88-9.77,1.45V450.9Z"/><path class="cls-4" d="M662.7,453.69a9.23,9.23,0,0,0,1.69-.87,8.94,8.94,0,0,0,2-1.71,9.74,9.74,0,0,0,1.61-2.63,9.3,9.3,0,0,0,.66-3.67,8.67,8.67,0,0,0-.63-3.58,6.23,6.23,0,0,0-1.54-2.16,5.39,5.39,0,0,0-1.93-1.1,8.46,8.46,0,0,0-1.82-.38l0.55-2.55a10.08,10.08,0,0,1,3.11.6,7.47,7.47,0,0,1,2.67,1.68,8.12,8.12,0,0,1,1.86,2.87,11.17,11.17,0,0,1,.7,4.16,13,13,0,0,1-.7,4.39,11.93,11.93,0,0,1-1.86,3.42,11.42,11.42,0,0,1-2.67,2.46,12.34,12.34,0,0,1-3.11,1.49Z"/><path class="cls-4" d="M54,399v-2.53l2.7,0.43v-6.44L54,390v-2.53l2.72,0.43v-0.64a3.87,3.87,0,0,1,.38-1.8,3,3,0,0,1,1-1.13,3.43,3.43,0,0,1,1.43-.53,5.73,5.73,0,0,1,1.68,0,11.54,11.54,0,0,1,2.6.66,7.87,7.87,0,0,1,1.68.91l-0.87,2.15a12.31,12.31,0,0,0-1.13-.63,5.46,5.46,0,0,0-1.57-.45,2,2,0,0,0-1.73.3,2.21,2.21,0,0,0-.49,1.61l4.8,0.74v2.53l-4.8-.74c0,2.58,0,3.86,0,6.44l4.82,0.74v2.53C60.33,400,58.23,399.64,54,399Z"/><path class="cls-4" d="M68.18,390.44A11.18,11.18,0,0,1,70.3,390a11.82,11.82,0,0,1,2.85.13,6.91,6.91,0,0,1,2,.59,4.14,4.14,0,0,1,1.35,1,3.75,3.75,0,0,1,.74,1.37,5.91,5.91,0,0,1,.23,1.69q0,1.17-.08,2c-0.05.54-.08,1-0.08,1.46a10.07,10.07,0,0,0,0,1.09c0,0.21.05,0.43,0.07,0.63l1.49,0.22v2.53l-3.84-.56-0.3-1.61-0.11,0a3.19,3.19,0,0,1-1.3,1,4,4,0,0,1-2.27.18,4.47,4.47,0,0,1-2.71-1.33,3.66,3.66,0,0,1-1-2.59,3.35,3.35,0,0,1,.35-1.61,2.39,2.39,0,0,1,1-1,4.24,4.24,0,0,1,1.61-.42,9.24,9.24,0,0,1,2.1.09q0.41,0.06.86,0.17l1.11,0.26a2.29,2.29,0,0,0,0-.45v-0.44a1.7,1.7,0,0,0-.5-1.33,2.76,2.76,0,0,0-1.48-.6,6.64,6.64,0,0,0-2.09,0,11.76,11.76,0,0,0-1.57.36Zm3.89,9a2.52,2.52,0,0,0,1.63-.16,2.17,2.17,0,0,0,.79-0.75v-1.38l-0.68-.2a8.29,8.29,0,0,0-1-.2,4.63,4.63,0,0,0-.86,0,2.55,2.55,0,0,0-.77.14,1.22,1.22,0,0,0-.54.37,1,1,0,0,0-.2.64,1.51,1.51,0,0,0,.37,1.06A2,2,0,0,0,72.08,399.47Z"/><path class="cls-4" d="M92.36,403.55a5.66,5.66,0,0,1-2.2.76,9.34,9.34,0,0,1-2.63,0,8.17,8.17,0,0,1-2.65-.81A6.56,6.56,0,0,1,82.93,402a6.31,6.31,0,0,1-1.2-2.09,7.69,7.69,0,0,1-.41-2.54,6,6,0,0,1,.48-2.51,4.43,4.43,0,0,1,1.34-1.72,4.87,4.87,0,0,1,2-.9,7.52,7.52,0,0,1,2.54,0,10.14,10.14,0,0,1,2.4.64,12.92,12.92,0,0,1,1.72.81v4l-2.52-.35v-2.12a6.9,6.9,0,0,0-1.42-.36,4.15,4.15,0,0,0-1.27,0,2.58,2.58,0,0,0-1.92,1.42,3.25,3.25,0,0,0-.31,1.5,3.85,3.85,0,0,0,.25,1.39,3.85,3.85,0,0,0,1.84,2.07,4.48,4.48,0,0,0,1.5.48,5.09,5.09,0,0,0,2.14-.07,7.33,7.33,0,0,0,1.25-.47Z"/><path class="cls-4" d="M96.25,396.22L94,395.91v-2.53l2.27,0.31c0-1,0-1.57,0-2.62l3-.45v3.47l6,0.8c0,1,0,1.52,0,2.53l-6-.8v3.29a4.39,4.39,0,0,0,.66,2.65,2.66,2.66,0,0,0,1.86,1,3.83,3.83,0,0,0,1.12,0,3.75,3.75,0,0,0,.91-0.26,4.35,4.35,0,0,0,.73-0.41l0.61-.43,1.38,2.25a3.66,3.66,0,0,1-1,.71,7.13,7.13,0,0,1-1.26.5,7.26,7.26,0,0,1-1.41.26,6.61,6.61,0,0,1-1.44,0,5.68,5.68,0,0,1-3.86-2,7.45,7.45,0,0,1-1.29-4.74v-3.29Z"/><path class="cls-4" d="M108.15,401a6.65,6.65,0,0,1,.44-2.52,4.43,4.43,0,0,1,1.24-1.75,4.51,4.51,0,0,1,1.92-.94,7,7,0,0,1,2.49-.08,7.8,7.8,0,0,1,2.58.76,6.34,6.34,0,0,1,1.92,1.47A6.07,6.07,0,0,1,119.9,400a7.8,7.8,0,0,1,.4,2.53,6.68,6.68,0,0,1-.44,2.52,4.45,4.45,0,0,1-1.24,1.76,4.5,4.5,0,0,1-1.91.95,7,7,0,0,1-2.49.09,7.75,7.75,0,0,1-2.58-.77,6.36,6.36,0,0,1-1.91-1.48,6.12,6.12,0,0,1-1.18-2.07A7.82,7.82,0,0,1,108.15,401Zm3.07,0.4a4.85,4.85,0,0,0,.21,1.43,4,4,0,0,0,.6,1.2,3.25,3.25,0,0,0,.94.87,3.16,3.16,0,0,0,1.26.43,2.61,2.61,0,0,0,2.17-.58,3.34,3.34,0,0,0,.84-2.59,4.42,4.42,0,0,0-.78-2.66,3.1,3.1,0,0,0-2.23-1.26,3.42,3.42,0,0,0-1.19,0,2,2,0,0,0-1,.51,2.62,2.62,0,0,0-.63,1A4.71,4.71,0,0,0,111.22,401.42Z"/><path class="cls-4" d="M122,406l2.85,0.35V399.9l-2.85-.35V397l5.16,0.63,0.34,1.56h0.09a5.1,5.1,0,0,1,1.47-1.09,3.38,3.38,0,0,1,1.93-.28,3,3,0,0,1,2.17,1.27,6,6,0,0,1,.79,3.47l-2.69-.32A2.49,2.49,0,0,0,131,401a1,1,0,0,0-.77-0.47,2.08,2.08,0,0,0-1.48.28,3.9,3.9,0,0,0-1,.94v4.9l5,0.59v2.53c-4.32-.51-6.49-0.77-10.81-1.3V406Z"/><path class="cls-4" d="M136.23,407.69l4,0.46v-6.44l-4-.46v-2.53l7,0.8v9L147.5,409v2.53c-4.51-.49-6.77-0.75-11.27-1.27v-2.53Zm3.49-11.7a1.45,1.45,0,0,1,.53-1.16,1.86,1.86,0,0,1,1.47-.34,2.5,2.5,0,0,1,1.54.68,1.76,1.76,0,0,1,.57,1.28,1.32,1.32,0,0,1-.57,1.14,2.17,2.17,0,0,1-1.54.3,2.37,2.37,0,0,1-1.47-.64A1.73,1.73,0,0,1,139.72,396Z"/><path class="cls-4" d="M150.72,401.12a11.55,11.55,0,0,1,2.13-.48,11.87,11.87,0,0,1,2.86,0,6.73,6.73,0,0,1,2,.5,3.91,3.91,0,0,1,1.36,1,3.55,3.55,0,0,1,.75,1.34,5.79,5.79,0,0,1,.23,1.68c0,0.78,0,1.45-.08,2s-0.08,1-.08,1.46a10,10,0,0,0,0,1.09c0,0.21.05,0.43,0.07,0.63l1.49,0.15V413l-3.86-.4-0.3-1.6h-0.11a3.4,3.4,0,0,1-1.3,1.09,4.1,4.1,0,0,1-2.28.28,4.29,4.29,0,0,1-2.72-1.21,3.5,3.5,0,0,1-1-2.55,3.43,3.43,0,0,1,.35-1.63,2.55,2.55,0,0,1,1-1,4.41,4.41,0,0,1,1.62-.49,9.3,9.3,0,0,1,2.11,0q0.41,0,.87.14l1.12,0.21a2.3,2.3,0,0,0,0-.46v-0.44a1.63,1.63,0,0,0-.5-1.31,2.67,2.67,0,0,0-1.48-.54,6.7,6.7,0,0,0-2.1.08,12.24,12.24,0,0,0-1.57.43Zm3.91,8.86a2.58,2.58,0,0,0,1.64-.23,2.32,2.32,0,0,0,.8-0.78V407.6l-0.68-.18a8.15,8.15,0,0,0-1-.16,4.66,4.66,0,0,0-.86,0,2.64,2.64,0,0,0-.77.17,1.29,1.29,0,0,0-.55.39,1,1,0,0,0-.2.65,1.45,1.45,0,0,0,.37,1A1.94,1.94,0,0,0,154.63,410Z"/><path class="cls-4" d="M164.44,397.18l4.9,0.49c0,4.25,0,6.38,0,10.63a5.2,5.2,0,0,0,.44,2.5,1.72,1.72,0,0,0,1.4.83,3.76,3.76,0,0,0,1.17,0,4,4,0,0,0,.92-0.34l1.13,2.18q-0.39.22-.78,0.4a4.58,4.58,0,0,1-.83.29,5.3,5.3,0,0,1-1,.14,7.5,7.5,0,0,1-1.16,0,4.78,4.78,0,0,1-3.24-1.42,4.68,4.68,0,0,1-1.08-3.24c0-3.86,0-5.8,0-9.66l-1.91-.19C164.44,398.69,164.44,398.19,164.44,397.18Z"/><path class="cls-4" d="M178,417.29c4.08,0.38,6.13.57,10.21,0.93v2.46c-4.09-.36-6.13-0.55-10.21-0.93C178,418.77,178,418.28,178,417.29Z"/><path class="cls-4" d="M190,399.59l4.65,0.4c0,2.35,0,3.53,0,5.89h0.09a3.45,3.45,0,0,1,1.47-1,4.82,4.82,0,0,1,2.16-.26A5.64,5.64,0,0,1,200,405a3.41,3.41,0,0,1,1.27.86,4,4,0,0,1,.83,1.51,7.5,7.5,0,0,1,.3,2.27c0,2.86,0,4.29,0,7.15l-3-.25V410a3,3,0,0,0-.6-2.07,2.27,2.27,0,0,0-1.57-.75,2.44,2.44,0,0,0-1.56.39,2.49,2.49,0,0,0-1,1.24v7.34l-3-.26c0-5.43,0-8.14,0-13.57l-1.66-.14C190,401.11,190,400.6,190,399.59Z"/><path class="cls-4" d="M216.13,416.59a3.73,3.73,0,0,1-.77.48,6.89,6.89,0,0,1-1.11.41,8.15,8.15,0,0,1-1.39.26,8.81,8.81,0,0,1-1.61,0,8.16,8.16,0,0,1-2.64-.62,5.77,5.77,0,0,1-3.2-3.37,7.37,7.37,0,0,1-.43-2.58,6.47,6.47,0,0,1,.48-2.62,4.76,4.76,0,0,1,1.32-1.79,5,5,0,0,1,2-1,7.43,7.43,0,0,1,2.44-.19A7.84,7.84,0,0,1,213,406a5.42,5.42,0,0,1,1.72.92,4.76,4.76,0,0,1,1.28,1.6,5.36,5.36,0,0,1,.49,2.43,10.69,10.69,0,0,1-.23,2.12l-8.29-.63a2.81,2.81,0,0,0,.31,1.27,2.75,2.75,0,0,0,.76.89,3.59,3.59,0,0,0,1.08.56,5.58,5.58,0,0,0,1.3.25,6.55,6.55,0,0,0,2.27-.15,4.38,4.38,0,0,0,1.44-.67Zm-5-8.59a3.7,3.7,0,0,0-1.13.08,2.88,2.88,0,0,0-1,.41,2.35,2.35,0,0,0-.7.73,2.27,2.27,0,0,0-.32,1l5.66,0.44A2.48,2.48,0,0,0,211.15,408Z"/><path class="cls-4" d="M219.65,402l4.9,0.35c0,4.25,0,6.38,0,10.63a5.11,5.11,0,0,0,.44,2.49,1.66,1.66,0,0,0,1.41.79,3.8,3.8,0,0,0,1.17-.07,4.17,4.17,0,0,0,.92-0.36l1.13,2.15q-0.39.23-.78,0.42a4.73,4.73,0,0,1-.83.31,5.41,5.41,0,0,1-1,.16,7.53,7.53,0,0,1-1.16,0,4.66,4.66,0,0,1-3.25-1.33,4.56,4.56,0,0,1-1.08-3.21c0-3.86,0-5.8,0-9.66l-1.91-.14C219.65,403.49,219.65,403,219.65,402Z"/><path class="cls-4" d="M231.46,407.39l3.92,0.26,0.35,1.4h0.09a4.14,4.14,0,0,1,3.87-1.46,5.7,5.7,0,0,1,1.95.45,4.15,4.15,0,0,1,1.52,1.14,5.31,5.31,0,0,1,1,1.85,8.8,8.8,0,0,1,.35,2.62,8.21,8.21,0,0,1-.39,2.63,5.22,5.22,0,0,1-1.13,1.94,4.45,4.45,0,0,1-1.8,1.15,6.12,6.12,0,0,1-2.42.29,9.69,9.69,0,0,1-1.4-.19,4.11,4.11,0,0,1-1.15-.41c0,1.89,0,2.83,0,4.71l-3-.19c0-5.43,0-8.14,0-13.57l-1.73-.11C231.46,408.91,231.46,408.4,231.46,407.39Zm7.33,2.68a2.92,2.92,0,0,0-1.6.33,2.08,2.08,0,0,0-1,1.25v4.78a2.65,2.65,0,0,0,.93.46,5.3,5.3,0,0,0,1.23.23,3.12,3.12,0,0,0,1.2-.14,2.25,2.25,0,0,0,1-.64,3.16,3.16,0,0,0,.64-1.18,5.83,5.83,0,0,0,.23-1.76,3.59,3.59,0,0,0-.74-2.39A2.56,2.56,0,0,0,238.79,410.07Z"/><path class="cls-4" d="M257.59,419.24a3.81,3.81,0,0,1-.77.5,7.06,7.06,0,0,1-1.11.44,8.21,8.21,0,0,1-1.39.29,8.82,8.82,0,0,1-1.61,0,8.08,8.08,0,0,1-2.64-.56,5.6,5.6,0,0,1-3.2-3.3,7.29,7.29,0,0,1-.43-2.57,6.53,6.53,0,0,1,.48-2.63,4.9,4.9,0,0,1,1.32-1.82,5.16,5.16,0,0,1,2-1,7.49,7.49,0,0,1,2.44-.24,7.77,7.77,0,0,1,1.81.33,5.29,5.29,0,0,1,1.72.89,4.6,4.6,0,0,1,1.28,1.58,5.28,5.28,0,0,1,.5,2.42,10.75,10.75,0,0,1-.23,2.13l-8.3-.46a2.77,2.77,0,0,0,.31,1.26,2.67,2.67,0,0,0,.76.87,3.49,3.49,0,0,0,1.08.53,5.53,5.53,0,0,0,1.3.22,6.61,6.61,0,0,0,2.27-.2,4.49,4.49,0,0,0,1.44-.7Zm-5-8.48a3.73,3.73,0,0,0-1.13.1,3,3,0,0,0-1,.43,2.41,2.41,0,0,0-.7.75,2.29,2.29,0,0,0-.32,1l5.67,0.32A2.42,2.42,0,0,0,252.61,410.76Z"/><path class="cls-4" d="M260,418.06l2.86,0.15c0-2.58,0-3.86,0-6.44l-2.86-.15c0-1,0-1.52,0-2.53l5.19,0.26,0.35,1.53h0.09a5.68,5.68,0,0,1,1.48-1.19,3.54,3.54,0,0,1,1.94-.41,2.76,2.76,0,0,1,2.18,1.11,5.74,5.74,0,0,1,.79,3.42l-2.7-.13a2.38,2.38,0,0,0-.24-1.22,0.9,0.9,0,0,0-.77-0.42,2.2,2.2,0,0,0-1.49.39,4.33,4.33,0,0,0-1,1v4.9l5,0.24c0,1,0,1.52,0,2.53-4.34-.2-6.51-0.31-10.86-0.54C260,419.57,260,419.07,260,418.06Z"/><path class="cls-4" d="M283.43,426.54a11.08,11.08,0,0,1-3.14-1.14,9.71,9.71,0,0,1-2.7-2.16,10.3,10.3,0,0,1-1.88-3.21,12.2,12.2,0,0,1-.7-4.31,11.71,11.71,0,0,1,.7-4.24,9.44,9.44,0,0,1,1.88-3.08,8.8,8.8,0,0,1,2.7-2,11.07,11.07,0,0,1,3.14-1L284,408a9.3,9.3,0,0,0-1.83.58,6.32,6.32,0,0,0-1.95,1.32,7.28,7.28,0,0,0-1.56,2.34,9.12,9.12,0,0,0-.63,3.65,8.69,8.69,0,0,0,.67,3.59,8.35,8.35,0,0,0,1.63,2.45,7.6,7.6,0,0,0,2,1.48,8.21,8.21,0,0,0,1.71.68Z"/><path class="cls-4" d="M289.22,419.36l3.53,0.13V409.44l-3,2.21-1.38-1.89,5.26-3.81,2,0.07c0,5.43,0,8.14,0,13.57l3.46,0.11c0,1,0,1.52,0,2.53l-9.85-.34v-2.53Z"/><path class="cls-4" d="M305.64,421a1.53,1.53,0,0,1,.52-1.23,1.85,1.85,0,0,1,1.3-.42,2.35,2.35,0,0,1,1.91.88,3.3,3.3,0,0,1,.65,2.06,4.27,4.27,0,0,1-.4,1.87,4.79,4.79,0,0,1-1,1.44,5.46,5.46,0,0,1-1.44,1,5.72,5.72,0,0,1-1.58.48l-0.62-1.28a6.54,6.54,0,0,0,1.12-.36,4.34,4.34,0,0,0,1-.6,3.41,3.41,0,0,0,.77-0.86,2.38,2.38,0,0,0,.36-1.09,2.94,2.94,0,0,1-1.18,0,1.84,1.84,0,0,1-.8-0.39,1.56,1.56,0,0,1-.45-0.66A2.38,2.38,0,0,1,305.64,421Z"/><path class="cls-4" d="M316.89,420.2l3.53,0.08V410.22l-3,2.26L316,410.61l5.26-3.88,2,0c0,5.43,0,8.14,0,13.57l3.46,0.07v2.53l-9.85-.2V420.2Z"/><path class="cls-4" d="M330.73,420.47l3.53,0.05V410.47l-3,2.28-1.38-1.86,5.26-3.92,2,0v13.57l3.46,0v2.53l-9.85-.13v-2.53Z"/><path class="cls-4" d="M344.9,425.55a7.86,7.86,0,0,0,1.71-.59,7.13,7.13,0,0,0,2-1.39,7.81,7.81,0,0,0,1.63-2.37,8.45,8.45,0,0,0,.67-3.56,9.36,9.36,0,0,0-.63-3.68,7.78,7.78,0,0,0-1.56-2.41,6.77,6.77,0,0,0-1.95-1.42,9.74,9.74,0,0,0-1.83-.67l0.55-2.46a11.58,11.58,0,0,1,3.14,1.11,9.44,9.44,0,0,1,2.7,2.11,10.06,10.06,0,0,1,1.88,3.17,13.33,13.33,0,0,1,0,8.54,9.67,9.67,0,0,1-1.88,3.12,9.08,9.08,0,0,1-2.7,2,10.62,10.62,0,0,1-3.14,1Z"/><path class="cls-4" d="M509,415.29l2.85-.21v-6.44l-2.85.21v-2.53l5.18-.39,0.34,1.49h0.09a6.83,6.83,0,0,1,1.47-1.38,3.88,3.88,0,0,1,1.93-.66,2.42,2.42,0,0,1,2.18.84,5.26,5.26,0,0,1,.79,3.32l-2.69.21a2.2,2.2,0,0,0-.24-1.19,0.78,0.78,0,0,0-.77-0.32,2.45,2.45,0,0,0-1.48.58,5.23,5.23,0,0,0-1,1.13v4.9l5-.39V417c-4.34.35-6.5,0.51-10.84,0.84v-2.53Z"/><path class="cls-4" d="M534.24,414.56a4.63,4.63,0,0,1-.77.61,8.27,8.27,0,0,1-1.1.59,9.33,9.33,0,0,1-3,.76,7.59,7.59,0,0,1-2.64-.19,4.6,4.6,0,0,1-3.2-2.85,6.81,6.81,0,0,1-.43-2.51,7,7,0,0,1,.48-2.7,6,6,0,0,1,1.32-2,6.19,6.19,0,0,1,2-1.3,8,8,0,0,1,2.44-.59,7.4,7.4,0,0,1,1.81.08,4.52,4.52,0,0,1,1.71.65,3.75,3.75,0,0,1,1.28,1.4,4.86,4.86,0,0,1,.5,2.35,11.24,11.24,0,0,1-.23,2.16l-8.28.71a2.51,2.51,0,0,0,.31,1.22,2.18,2.18,0,0,0,.76.76,3,3,0,0,0,1.08.38,5.31,5.31,0,0,0,1.3,0,7,7,0,0,0,2.27-.51,5.37,5.37,0,0,0,1.44-.91Zm-5-7.78a4,4,0,0,0-1.13.26,3.5,3.5,0,0,0-1,.56,3,3,0,0,0-.7.84,2.58,2.58,0,0,0-.32,1.08l5.66-.48A2.07,2.07,0,0,0,529.27,406.78Z"/><path class="cls-4" d="M548.32,413.4a7.39,7.39,0,0,1-2.21,1.28,10.14,10.14,0,0,1-2.64.6,7.24,7.24,0,0,1-2.66-.19,4.82,4.82,0,0,1-2-1.05,4.63,4.63,0,0,1-1.21-1.81,7.39,7.39,0,0,1,.07-5.07,6.15,6.15,0,0,1,1.35-2,6.56,6.56,0,0,1,2-1.37,8.3,8.3,0,0,1,2.55-.64,9.24,9.24,0,0,1,2.41.07,10.47,10.47,0,0,1,1.73.41c0,1.62,0,2.43,0,4l-2.53.24c0-.85,0-1.27,0-2.12a6.35,6.35,0,0,0-1.43,0,4.54,4.54,0,0,0-1.28.31,3.51,3.51,0,0,0-1.13.72,3.61,3.61,0,0,0-1.12,2.71,3.39,3.39,0,0,0,.25,1.33,2.78,2.78,0,0,0,1.85,1.64,4,4,0,0,0,1.51.13,5.69,5.69,0,0,0,2.15-.57,9.75,9.75,0,0,0,1.25-.76Z"/><path class="cls-4" d="M557.14,402.15l4.28-.43c0,3.2,0,4.8,0,8v1l1.75-.18V413l-3.63.37L559,411.76h-0.09a4.7,4.7,0,0,1-1.59,1.61,5.23,5.23,0,0,1-2.35.81,5.1,5.1,0,0,1-1.6-.07,2.55,2.55,0,0,1-1.23-.64,3.12,3.12,0,0,1-.78-1.35,7.5,7.5,0,0,1-.28-2.23v-4.62l-1.31.13v-2.53l4.3-.41c0,2.61,0,3.92,0,6.53a3.31,3.31,0,0,0,.45,2,1.48,1.48,0,0,0,1.41.48,2.74,2.74,0,0,0,1.53-.66,3.13,3.13,0,0,0,1-1.34v-4.9l-1.29.13v-2.53Z"/><path class="cls-4" d="M564.25,410.4l2.85-.29v-6.44l-2.85.29v-2.53l5.17-.54,0.34,1.48h0.09a7.13,7.13,0,0,1,1.47-1.42,4,4,0,0,1,1.93-.71,2.35,2.35,0,0,1,2.17.78,5.17,5.17,0,0,1,.79,3.29l-2.69.29a2.17,2.17,0,0,0-.24-1.18,0.76,0.76,0,0,0-.77-0.3,2.51,2.51,0,0,0-1.48.62,5.44,5.44,0,0,0-1,1.16v4.9l5-.53v2.53c-4.33.47-6.49,0.7-10.82,1.14V410.4Z"/><path class="cls-4" d="M587.58,415.27a9.74,9.74,0,0,1-3.12-.66,7.79,7.79,0,0,1-2.69-1.74A8.4,8.4,0,0,1,579.9,410a11.36,11.36,0,0,1-.7-4.2,12.66,12.66,0,0,1,.7-4.34,11.54,11.54,0,0,1,1.87-3.37,11,11,0,0,1,2.69-2.4,12.81,12.81,0,0,1,3.12-1.44l0.55,2.4a10.8,10.8,0,0,0-1.82.87,7.85,7.85,0,0,0-1.94,1.62,9,9,0,0,0-1.55,2.58,9.9,9.9,0,0,0-.63,3.75,8,8,0,0,0,.67,3.49,6.74,6.74,0,0,0,1.62,2.2,6.12,6.12,0,0,0,2,1.18,7.15,7.15,0,0,0,1.7.41Z"/><path class="cls-4" d="M593.34,407.19l3.51-.42V396.73l-3,2.68-1.38-1.68,5.23-4.62,2-.24c0,5.43,0,8.14,0,13.57l3.44-.42v2.53c-3.92.48-5.88,0.72-9.8,1.18v-2.53Z"/><path class="cls-4" d="M607.11,405.52l3.51-.44V395l-3,2.7-1.38-1.67,5.23-4.66,2-.26c0,5.43,0,8.14,0,13.57l3.44-.44v2.53l-9.79,1.25C607.11,407,607.11,406.54,607.11,405.52Z"/><path class="cls-4" d="M623.44,404.48a1.81,1.81,0,0,1,.52-1.31,2.15,2.15,0,0,1,1.3-.63,2,2,0,0,1,1.9.57,2.89,2.89,0,0,1,.64,2,4.73,4.73,0,0,1-.4,1.94,6,6,0,0,1-1,1.61,6.83,6.83,0,0,1-1.43,1.21,6.64,6.64,0,0,1-1.57.74l-0.62-1.18a7.62,7.62,0,0,0,1.11-.54,5.41,5.41,0,0,0,1-.77,4.34,4.34,0,0,0,.77-1,2.74,2.74,0,0,0,.36-1.15,3,3,0,0,1-1.17.19,1.54,1.54,0,0,1-.79-0.26,1.25,1.25,0,0,1-.45-0.58A2.21,2.21,0,0,1,623.44,404.48Z"/><path class="cls-4" d="M634.62,401.89l3.5-.49V391.35l-3,2.75-1.37-1.65,5.22-4.73,2-.29V401l3.43-.49V403l-9.78,1.39v-2.53Z"/><path class="cls-4" d="M646.8,394.62a14.54,14.54,0,0,1,.44-3.73,8.93,8.93,0,0,1,1.23-2.79,6.32,6.32,0,0,1,1.9-1.83,6.43,6.43,0,0,1,2.46-.88,4.61,4.61,0,0,1,4.46,1.37q1.56,1.8,1.56,6.08a14.65,14.65,0,0,1-.44,3.76,9.13,9.13,0,0,1-1.23,2.81,6.26,6.26,0,0,1-1.91,1.85,6.5,6.5,0,0,1-2.47.89,4.45,4.45,0,0,1-4.46-1.49Q646.8,398.71,646.8,394.62Zm3-.44c0,0.23,0,.45,0,0.65s0,0.42,0,.63l5.54-6a2.16,2.16,0,0,0-2.56-1.59,3,3,0,0,0-2.24,1.75A10.22,10.22,0,0,0,649.77,394.18Zm6.09-.91q0-.37,0-0.7c0-.22,0-0.44,0-0.65l-5.56,6a2.2,2.2,0,0,0,2.57,1.71,3,3,0,0,0,2.25-1.74A10.25,10.25,0,0,0,655.86,393.28Z"/><path class="cls-4" d="M662.4,402.72a9.23,9.23,0,0,0,1.69-.87,8.94,8.94,0,0,0,2-1.71,9.74,9.74,0,0,0,1.61-2.63,9.3,9.3,0,0,0,.66-3.67,8.67,8.67,0,0,0-.63-3.58,6.23,6.23,0,0,0-1.54-2.16,5.4,5.4,0,0,0-1.93-1.1,8.46,8.46,0,0,0-1.82-.38l0.55-2.55a10.08,10.08,0,0,1,3.11.6,7.47,7.47,0,0,1,2.67,1.68,8.12,8.12,0,0,1,1.86,2.87,11.17,11.17,0,0,1,.7,4.16,13,13,0,0,1-.7,4.39,11.93,11.93,0,0,1-1.86,3.42,11.42,11.42,0,0,1-2.67,2.47,12.34,12.34,0,0,1-3.11,1.49Z"/></svg>