<svg id="Layer_1" data-name="Layer 1" xmlns="http://www.w3.org/2000/svg" viewBox="0 0 720 576"><defs><style>.cls-1,.cls-2,.cls-4,.cls-6{fill:#231f20;}.cls-1,.cls-3{stroke:#231f20;}.cls-1,.cls-6{stroke-miterlimit:10;}.cls-1,.cls-2,.cls-3{stroke-width:2px;}.cls-2{stroke:#000;}.cls-2,.cls-3{stroke-linecap:round;stroke-linejoin:round;}.cls-3,.cls-5{fill:#fff;}.cls-6{stroke:#fff;}</style></defs><title>Hanoi_Tower_Set_5_Final</title><path class="cls-1" d="M689.9,506.49c0-.14,0-0.29,0-0.43s0-.29,0-0.43V453.84H44.1s-0.25,51.74-.25,52.22c0,2.67,2.32,5.24,6.64,7.71,15.13,8.61,55.2,16.11,111,21.48s127.37,8.59,205.39,8.59c89.16,0,169.88-4.21,228.32-11,29.22-3.41,52.87-7.46,69.23-12,8.18-2.25,14.54-4.62,18.86-7.08,3.69-2.1,5.91-4.29,6.48-6.55h0.11v-0.73Z"/><ellipse class="cls-2" cx="366.9" cy="454.92" rx="322.86" ry="37.63"/><path class="cls-3" d="M689.9,455c0-.14,0-0.29,0-0.43s0-.29,0-0.43V402.36H44.1s-0.25,51.74-.25,52.22c0,2.67,2.32,5.24,6.64,7.71,15.13,8.61,55.2,16.11,111,21.48s127.37,8.59,205.39,8.59c89.16,0,169.88-4.21,228.32-11,29.22-3.41,52.87-7.46,69.23-12,8.18-2.25,14.54-4.62,18.86-7.08,3.69-2.1,5.91-4.29,6.48-6.55h0.11V455Z"/><ellipse class="cls-3" cx="366.9" cy="403.44" rx="322.86" ry="37.63"/><path class="cls-3" d="M689.9,403.53c0-.14,0-0.29,0-0.43s0-.29,0-0.43V350.88H44.1s-0.25,51.74-.25,52.22c0,2.67,2.32,5.24,6.64,7.71,15.13,8.61,55.2,16.11,111,21.48s127.37,8.59,205.39,8.59c89.16,0,169.88-4.21,228.32-11,29.22-3.41,52.87-7.46,69.23-12,8.18-2.25,14.54-4.62,18.86-7.08,3.69-2.1,5.91-4.29,6.48-6.55h0.11v-0.73Z"/><ellipse class="cls-3" cx="366.9" cy="351.97" rx="322.86" ry="37.63"/><path class="cls-3" d="M689.9,352.06c0-.14,0-0.29,0-0.43s0-.29,0-0.43V299.4H44.1s-0.25,51.74-.25,52.22c0,2.67,2.32,5.24,6.64,7.71,15.13,8.61,55.2,16.11,111,21.48s127.37,8.59,205.39,8.59c89.16,0,169.88-4.21,228.32-11,29.22-3.41,52.87-7.46,69.23-12,8.18-2.25,14.54-4.62,18.86-7.08,3.69-2.1,5.91-4.29,6.48-6.55h0.11v-0.73Z"/><ellipse class="cls-3" cx="366.9" cy="300.49" rx="322.86" ry="37.63"/><path class="cls-4" d="M366.89,309.88c-16,0-29-3.75-30.2-8.61h-0.08l0-.5V8.27h60.63v293H397.1C395.87,306.14,382.87,309.88,366.89,309.88Z"/><path class="cls-5" d="M396.72,8.77v292h0c-0.49,4.78-13.63,8.61-29.79,8.61s-29.3-3.83-29.79-8.61h0v-0.21s0,0,0-.06,0,0,0-.06V8.77h59.63m1-1H336.09V300.39s0,0.07,0,.11v1.27h0.23c2,5.6,16.84,8.61,30.58,8.61s28.6-3,30.58-8.61h0.21l0-1V7.77h0Z"/><ellipse class="cls-6" cx="366.89" cy="8.89" rx="29.81" ry="8.89"/><path class="cls-4" d="M53.49,346.17l2.59,0.41v-5.88l-2.59-.41V338l4.7,0.74,0.31,1.43h0.08a4.42,4.42,0,0,1,1.34-.95,3,3,0,0,1,1.75-.19,2.84,2.84,0,0,1,2,1.23,5.66,5.66,0,0,1,.72,3.2l-2.44-.37a2.33,2.33,0,0,0-.22-1.14,0.92,0.92,0,0,0-.7-0.45,1.86,1.86,0,0,0-1.35.21,3.38,3.38,0,0,0-.87.83V347l4.53,0.7V350c-3.93-.6-5.9-0.91-9.83-1.53v-2.31Z"/><path class="cls-4" d="M76.35,350.85a3.06,3.06,0,0,1-.7.39,5.83,5.83,0,0,1-1,.3,7.12,7.12,0,0,1-1.26.15,8,8,0,0,1-1.46-.09,7.76,7.76,0,0,1-2.39-.74,5.8,5.8,0,0,1-2.9-3.28,7,7,0,0,1-.39-2.38,5.71,5.71,0,0,1,.44-2.36,3.92,3.92,0,0,1,1.2-1.55,4.19,4.19,0,0,1,1.79-.77,6.63,6.63,0,0,1,2.21,0,7.42,7.42,0,0,1,1.64.45,5.37,5.37,0,0,1,1.56,1,4.8,4.8,0,0,1,1.16,1.55,5.13,5.13,0,0,1,.45,2.25,9.59,9.59,0,0,1-.21,1.92L69,346.52a2.69,2.69,0,0,0,.28,1.18,2.8,2.8,0,0,0,.69.86,3.56,3.56,0,0,0,1,.58,5.34,5.34,0,0,0,1.18.31,5.87,5.87,0,0,0,2.06,0,3.67,3.67,0,0,0,1.31-.52Zm-4.51-8.16a3.32,3.32,0,0,0-1,0,2.43,2.43,0,0,0-.87.31,1.92,1.92,0,0,0-.64.62,2,2,0,0,0-.29.92l5.14,0.77a2.64,2.64,0,0,0-.57-1.74A2.67,2.67,0,0,0,71.84,342.69Z"/><path class="cls-4" d="M89.15,352.79a5.15,5.15,0,0,1-2,.69,8.53,8.53,0,0,1-2.4,0,7.44,7.44,0,0,1-2.41-.74,6,6,0,0,1-1.78-1.38,5.75,5.75,0,0,1-1.1-1.91,7,7,0,0,1-.38-2.32,5.49,5.49,0,0,1,.44-2.29,4,4,0,0,1,1.22-1.57,4.44,4.44,0,0,1,1.85-.82,6.86,6.86,0,0,1,2.32,0,9.24,9.24,0,0,1,2.2.58,11.77,11.77,0,0,1,1.57.75v3.7l-2.3-.32v-1.93a6.33,6.33,0,0,0-1.3-.33,3.76,3.76,0,0,0-1.16,0,2.34,2.34,0,0,0-1.76,1.29,3,3,0,0,0-.28,1.37,3.52,3.52,0,0,0,.23,1.27,3.56,3.56,0,0,0,.65,1.08,3.62,3.62,0,0,0,1,.81,4.1,4.1,0,0,0,1.37.44,4.65,4.65,0,0,0,2-.06,6.65,6.65,0,0,0,1.14-.43Z"/><path class="cls-4" d="M97.18,344.4l3.89,0.52v8.19l1.59,0.21v2.31l-3.31-.44-0.48-1.62H98.79a3,3,0,0,1-1.44,1.13,4.08,4.08,0,0,1-2.13.23,5.18,5.18,0,0,1-1.45-.41,3.14,3.14,0,0,1-1.12-.85,3.81,3.81,0,0,1-.71-1.4,7.51,7.51,0,0,1-.25-2.09V346l-1.19-.17v-2.31L94.4,344v6a3.53,3.53,0,0,0,.41,1.9,1.72,1.72,0,0,0,1.29.74,2.09,2.09,0,0,0,2.26-1.29v-4.47l-1.17-.16V344.4Z"/><path class="cls-4" d="M103.64,353.46l2.6,0.34v-5.88l-2.6-.34v-2.31l4.71,0.62,0.31,1.43h0.08a4.59,4.59,0,0,1,1.34-1,3.06,3.06,0,0,1,1.76-.24,2.76,2.76,0,0,1,2,1.18,5.55,5.55,0,0,1,.72,3.18l-2.45-.31a2.29,2.29,0,0,0-.22-1.13,0.89,0.89,0,0,0-.7-0.44,1.89,1.89,0,0,0-1.35.25,3.5,3.5,0,0,0-.87.85v4.47l4.54,0.58v2.31c-3.94-.5-5.92-0.76-9.86-1.28v-2.31Z"/><path class="cls-4" d="M124.92,362.93a10.92,10.92,0,0,1-2.85-1.27,10,10,0,0,1-2.45-2.17,10.44,10.44,0,0,1-1.71-3.07,11.63,11.63,0,0,1-.64-4,10.33,10.33,0,0,1,.64-3.82,7.75,7.75,0,0,1,1.71-2.67,7.14,7.14,0,0,1,2.45-1.61,9.4,9.4,0,0,1,2.85-.64l0.5,2.31a7.89,7.89,0,0,0-1.67.4,5.16,5.16,0,0,0-1.77,1.06,6,6,0,0,0-1.41,2,8,8,0,0,0-.58,3.29,8.32,8.32,0,0,0,.61,3.33,8.5,8.5,0,0,0,1.48,2.35,7.78,7.78,0,0,0,1.79,1.5,8.11,8.11,0,0,0,1.55.75Z"/><path class="cls-4" d="M130.18,356.8l3.21,0.38V348l-2.77,1.79L129.36,348l4.78-3.09,1.84,0.22v12.39l3.14,0.36v2.31l-8.95-1V356.8Z"/><path class="cls-4" d="M142.75,358.26l3.21,0.36v-9.18l-2.77,1.81-1.26-1.82,4.78-3.12,1.85,0.2V358.9l3.15,0.34v2.31l-9-1v-2.31Z"/><path class="cls-4" d="M157.68,360.85a1.3,1.3,0,0,1,.47-1.08,1.58,1.58,0,0,1,1.19-.3,2.32,2.32,0,0,1,1.74.94,3.22,3.22,0,0,1,.59,1.93,3.74,3.74,0,0,1-.37,1.68,3.93,3.93,0,0,1-1,1.25A4.49,4.49,0,0,1,159,366a4.9,4.9,0,0,1-1.44.33L157,365.17a5.58,5.58,0,0,0,1-.25,3.57,3.57,0,0,0,.93-0.48,2.78,2.78,0,0,0,.7-0.74,2,2,0,0,0,.33-1,2.68,2.68,0,0,1-1.07-.08,1.83,1.83,0,0,1-.72-0.41,1.58,1.58,0,0,1-.41-0.63A2.28,2.28,0,0,1,157.68,360.85Z"/><path class="cls-4" d="M167.92,360.93l3.21,0.32v-9.18l-2.77,1.85-1.26-1.81,4.78-3.18,1.85,0.18V361.5l3.15,0.3v2.31l-9-.87v-2.31Z"/><path class="cls-4" d="M179.09,357a12.13,12.13,0,0,1,.4-3.31,6.19,6.19,0,0,1,1.13-2.28,4.1,4.1,0,0,1,1.74-1.26,5,5,0,0,1,2.26-.27,5.39,5.39,0,0,1,4.09,2.23,10,10,0,0,1,1.43,5.89,12.22,12.22,0,0,1-.4,3.33,6.32,6.32,0,0,1-1.13,2.29,4.06,4.06,0,0,1-1.75,1.27,5.09,5.09,0,0,1-2.27.27,5.24,5.24,0,0,1-4.09-2.34A10.35,10.35,0,0,1,179.09,357Zm2.73,0.26q0,0.31,0,.6c0,0.19,0,.38,0,0.58l5.08-4.22a2.64,2.64,0,0,0-2.35-2,2,2,0,0,0-2.05,1.1A8.17,8.17,0,0,0,181.82,357.21Zm5.59,0.51c0-.22,0-0.44,0-0.64s0-.4,0-0.6l-5.1,4.22a2.69,2.69,0,0,0,2.35,2.13,2,2,0,0,0,2.06-1.09A8.18,8.18,0,0,0,187.41,357.72Z"/><path class="cls-4" d="M193.41,367.78a6.67,6.67,0,0,0,1.55-.42,5.82,5.82,0,0,0,1.8-1.13,6.39,6.39,0,0,0,1.48-2,7.41,7.41,0,0,0,.61-3.2,8.9,8.9,0,0,0-.58-3.41,7.89,7.89,0,0,0-1.42-2.31,6.89,6.89,0,0,0-1.78-1.43,9.62,9.62,0,0,0-1.67-.74l0.5-2.2a11.36,11.36,0,0,1,2.86,1.23,9.63,9.63,0,0,1,2.46,2.12,10.18,10.18,0,0,1,1.71,3,11.39,11.39,0,0,1,.64,3.95,10.48,10.48,0,0,1-.64,3.85,8,8,0,0,1-1.71,2.71,7.41,7.41,0,0,1-2.46,1.66,9.08,9.08,0,0,1-2.86.68Z"/><path class="cls-4" d="M318.61,372.57v-2.31l2.48,0.06v-5.88l-2.51-.06v-2.31l2.51,0.06v-0.59a3.8,3.8,0,0,1,.35-1.69,3.3,3.3,0,0,1,.92-1.15,3.65,3.65,0,0,1,1.32-.65,5.41,5.41,0,0,1,1.55-.19,10,10,0,0,1,2.39.29,6.28,6.28,0,0,1,1.55.63l-0.8,2.06a9.93,9.93,0,0,0-1-.44,4.64,4.64,0,0,0-1.44-.22,2,2,0,0,0-1.59.48,2.24,2.24,0,0,0-.45,1.53l4.42,0.09v2.31l-4.42-.09v5.88l4.44,0.09v2.31Z"/><path class="cls-4" d="M331.64,363.06a11.45,11.45,0,0,1,1.95-.62,11,11,0,0,1,2.62-.23,5.87,5.87,0,0,1,1.86.29,3.18,3.18,0,0,1,1.24.76,2.88,2.88,0,0,1,.68,1.16,5.06,5.06,0,0,1,.21,1.51q0,1.07-.07,1.83t-0.07,1.34a8.88,8.88,0,0,0,0,1c0,0.19,0,.39.06,0.57l1.37,0V373l-3.54,0-0.28-1.43h-0.1a3.55,3.55,0,0,1-1.19,1.1,4,4,0,0,1-2.09.44,3.61,3.61,0,0,1-2.49-.88,2.92,2.92,0,0,1-.92-2.24,3.3,3.3,0,0,1,.32-1.52,2.65,2.65,0,0,1,.94-1,4.42,4.42,0,0,1,1.49-.58,8.67,8.67,0,0,1,1.94-.17c0.25,0,.52,0,0.8.05l1,0.1a2.09,2.09,0,0,0,0-.42V366a1.36,1.36,0,0,0-.46-1.15,2.27,2.27,0,0,0-1.36-.37,6.31,6.31,0,0,0-1.92.24,12.18,12.18,0,0,0-1.44.52Zm3.58,7.77a2.5,2.5,0,0,0,1.5-.34,2.41,2.41,0,0,0,.73-0.78v-1.26l-0.62-.1a7.32,7.32,0,0,0-.9-0.07,4.33,4.33,0,0,0-.79.06,2.63,2.63,0,0,0-.71.22,1.37,1.37,0,0,0-.5.4,1,1,0,0,0-.19.6,1.22,1.22,0,0,0,.34.92A1.64,1.64,0,0,0,335.23,370.83Z"/><path class="cls-4" d="M353.89,372.11a6,6,0,0,1-2,1,8.86,8.86,0,0,1-2.42.31A6.89,6.89,0,0,1,347,373a5,5,0,0,1-1.79-1.14,4.84,4.84,0,0,1-1.11-1.77,6.55,6.55,0,0,1-.38-2.27,5.87,5.87,0,0,1,.44-2.35,4.87,4.87,0,0,1,1.23-1.73,5.25,5.25,0,0,1,1.86-1.06,7.18,7.18,0,0,1,2.34-.35,8.7,8.7,0,0,1,2.21.29,10.42,10.42,0,0,1,1.58.54c0,1.48,0,2.22,0,3.7l-2.32,0v-1.93a6,6,0,0,0-1.31-.16,3.94,3.94,0,0,0-1.17.17,2.83,2.83,0,0,0-1,.56,2.93,2.93,0,0,0-.74,1,3.19,3.19,0,0,0-.28,1.4,3.26,3.26,0,0,0,.23,1.24,3,3,0,0,0,.65,1,3,3,0,0,0,1,.67,3.79,3.79,0,0,0,1.38.25,4.92,4.92,0,0,0,2-.32,7.87,7.87,0,0,0,1.15-.58Z"/><path class="cls-4" d="M357.47,364.95h-2.08v-2.31h2.08c0-1,0-1.44,0-2.39l2.74-.77c0,1.27,0,1.9,0,3.17h5.52V365h-5.52v3a3.62,3.62,0,0,0,.61,2.34,2.11,2.11,0,0,0,1.71.73,3.6,3.6,0,0,0,1-.13,3.9,3.9,0,0,0,.83-0.34,4.82,4.82,0,0,0,.67-0.46l0.56-.46,1.26,1.89a4.06,4.06,0,0,1-.9.77,7.55,7.55,0,0,1-1.16.61,7.3,7.3,0,0,1-1.3.41,6.21,6.21,0,0,1-1.33.14,4.56,4.56,0,0,1-3.55-1.32,6.11,6.11,0,0,1-1.19-4.17v-3Z"/><path class="cls-4" d="M368.4,367.91a6.46,6.46,0,0,1,.4-2.35,4.81,4.81,0,0,1,1.14-1.74,4.89,4.89,0,0,1,1.76-1.09,6.77,6.77,0,0,1,2.29-.37,6.59,6.59,0,0,1,2.37.39,4.88,4.88,0,0,1,1.76,1.11,4.69,4.69,0,0,1,1.08,1.75,6.65,6.65,0,0,1,.37,2.27,6.48,6.48,0,0,1-.4,2.35,4.77,4.77,0,0,1-2.9,2.84,6.72,6.72,0,0,1-2.29.38,6.56,6.56,0,0,1-2.37-.39,4.87,4.87,0,0,1-1.76-1.12,4.72,4.72,0,0,1-1.08-1.75A6.67,6.67,0,0,1,368.4,367.91Zm2.82,0a4.15,4.15,0,0,0,.19,1.28,3.13,3.13,0,0,0,.55,1,2.45,2.45,0,0,0,.86.68,2.65,2.65,0,0,0,1.16.24,2.68,2.68,0,0,0,2-.79,3.39,3.39,0,0,0,.77-2.46,3.62,3.62,0,0,0-.72-2.34,2.46,2.46,0,0,0-2-.88,3.3,3.3,0,0,0-1.1.18,2.15,2.15,0,0,0-.87.58,2.84,2.84,0,0,0-.58,1A4.53,4.53,0,0,0,371.22,367.91Z"/><path class="cls-4" d="M381.13,370.8l2.61,0V364.9l-2.61,0c0-.92,0-1.39,0-2.31l4.74,0,0.32,1.38h0.08a5.62,5.62,0,0,1,1.35-1.17,3.35,3.35,0,0,1,1.77-.48,2.37,2.37,0,0,1,2,.9,5,5,0,0,1,.73,3.08l-2.46,0a2.1,2.1,0,0,0-.22-1.1,0.77,0.77,0,0,0-.71-0.34,2.1,2.1,0,0,0-1.36.43,4.31,4.31,0,0,0-.87,1v4.47l4.57,0c0,0.92,0,1.39,0,2.31l-9.92.09C381.13,372.19,381.13,371.73,381.13,370.8Z"/><path class="cls-4" d="M394.18,370.67l3.71-.05v-5.88l-3.71.05c0-.92,0-1.39,0-2.31l6.45-.1c0,3.28,0,4.91,0,8.19l3.9-.07v2.31c-4.14.08-6.2,0.11-10.34,0.17C394.18,372.05,394.18,371.59,394.18,370.67Zm3.2-11.09a1.5,1.5,0,0,1,.48-1.12,1.9,1.9,0,0,1,1.35-.48,2,2,0,0,1,1.41.44,1.4,1.4,0,0,1,.53,1.1,1.39,1.39,0,0,1-.53,1.11,2.19,2.19,0,0,1-1.41.45,1.93,1.93,0,0,1-1.35-.41A1.38,1.38,0,0,1,397.39,359.58Z"/><path class="cls-4" d="M407.47,363a11.82,11.82,0,0,1,1.95-.69,11.15,11.15,0,0,1,2.62-.33,5.78,5.78,0,0,1,1.86.22,3,3,0,0,1,1.24.72,2.74,2.74,0,0,1,.68,1.14,5,5,0,0,1,.21,1.51q0,1.07-.07,1.83t-0.07,1.35a8.86,8.86,0,0,0,0,1c0,0.19,0,.38.06,0.57l1.37,0c0,0.92,0,1.39,0,2.31l-3.53.09-0.28-1.42h-0.1a3.75,3.75,0,0,1-1.19,1.15,4,4,0,0,1-2.09.52,3.49,3.49,0,0,1-2.49-.79,2.81,2.81,0,0,1-.92-2.21,3.37,3.37,0,0,1,.32-1.53,2.8,2.8,0,0,1,.94-1.07,4.59,4.59,0,0,1,1.49-.64,8.74,8.74,0,0,1,1.94-.24,7.81,7.81,0,0,1,.8,0l1,0.06a2.12,2.12,0,0,0,0-.42v-0.4a1.31,1.31,0,0,0-.46-1.13,2.21,2.21,0,0,0-1.36-.32,6.41,6.41,0,0,0-1.92.31,12.49,12.49,0,0,0-1.44.58Zm3.58,7.63a2.33,2.33,0,0,0,2.23-1.21c0-.5,0-0.76,0-1.26l-0.62-.08a7.3,7.3,0,0,0-.9,0,4.38,4.38,0,0,0-.79.09,2.72,2.72,0,0,0-.71.25,1.45,1.45,0,0,0-.5.42,1,1,0,0,0-.19.61,1.17,1.17,0,0,0,.34.91A1.59,1.59,0,0,0,411.06,370.6Z"/><path class="cls-4" d="M420,357.76l4.49-.12c0,3.88,0,5.82,0,9.7a4.41,4.41,0,0,0,.4,2.24,1.36,1.36,0,0,0,1.28.59,3.57,3.57,0,0,0,1.07-.17,4.23,4.23,0,0,0,.84-0.41l1,1.86c-0.24.16-.48,0.31-0.72,0.45a4.77,4.77,0,0,1-.76.36,5.32,5.32,0,0,1-.87.24,7.06,7.06,0,0,1-1.06.1,3.89,3.89,0,0,1-3-.92,3.81,3.81,0,0,1-1-2.83c0-3.53,0-5.29,0-8.82l-1.75,0v-2.31Z"/><path class="cls-4" d="M432.49,374.55l9.35-.33c0,0.9,0,1.35,0,2.25l-9.35.33v-2.25Z"/><path class="cls-4" d="M443.48,357l4.25-.17c0,2.15,0,3.23,0,5.38h0.08a3.77,3.77,0,0,1,1.35-1.12,4.69,4.69,0,0,1,2-.48,4.88,4.88,0,0,1,1.47.15,2.63,2.63,0,0,1,1.16.64,3.09,3.09,0,0,1,.76,1.28,6.5,6.5,0,0,1,.27,2c0,2.61,0,3.92,0,6.53l-2.74.12c0-2.39,0-3.58,0-6a2.51,2.51,0,0,0-.55-1.82,1.83,1.83,0,0,0-1.43-.51,2.48,2.48,0,0,0-1.43.53,2.73,2.73,0,0,0-.93,1.24c0,2.68,0,4,0,6.7l-2.74.11c0-5,0-7.43,0-12.39l-1.52.06C443.48,358.39,443.48,357.93,443.48,357Z"/><path class="cls-4" d="M467.35,369.54a4,4,0,0,1-.7.53,7.25,7.25,0,0,1-1,.5,8.17,8.17,0,0,1-1.27.4,8.38,8.38,0,0,1-1.47.2,7,7,0,0,1-2.41-.26,4.42,4.42,0,0,1-2.93-2.71,7,7,0,0,1,.05-4.75,5.17,5.17,0,0,1,1.21-1.79,5.37,5.37,0,0,1,1.8-1.12,7.17,7.17,0,0,1,2.23-.45,6.8,6.8,0,0,1,1.65.13,4.27,4.27,0,0,1,1.57.65,3.62,3.62,0,0,1,1.17,1.32,4.53,4.53,0,0,1,.45,2.16,10.17,10.17,0,0,1-.21,2l-7.58.37a2.33,2.33,0,0,0,.28,1.12,2.1,2.1,0,0,0,.69.72,2.85,2.85,0,0,0,1,.38,4.93,4.93,0,0,0,1.19.08,6.3,6.3,0,0,0,2.07-.39,4.65,4.65,0,0,0,1.32-.78Zm-4.55-7.27a3.55,3.55,0,0,0-1,.2,3,3,0,0,0-.87.48,2.58,2.58,0,0,0-.64.75,2.3,2.3,0,0,0-.29,1l5.18-.25A2,2,0,0,0,462.81,362.26Z"/><path class="cls-4" d="M470.57,355.79l4.48-.24c0,3.88,0,5.82,0,9.7a4.36,4.36,0,0,0,.4,2.23,1.33,1.33,0,0,0,1.28.56,3.6,3.6,0,0,0,1.07-.2,4.32,4.32,0,0,0,.84-0.44l1,1.83q-0.36.25-.72,0.47a4.93,4.93,0,0,1-.76.38,5.4,5.4,0,0,1-.87.26,7,7,0,0,1-1.06.13,3.8,3.8,0,0,1-3-.85,3.72,3.72,0,0,1-1-2.8c0-3.53,0-5.29,0-8.82l-1.75.09C470.57,357.17,470.57,356.71,470.57,355.79Z"/><path class="cls-4" d="M481.37,359.4l3.58-.21,0.32,1.24h0.08a4.29,4.29,0,0,1,3.53-1.77,4.89,4.89,0,0,1,1.78.2,3.18,3.18,0,0,1,1.39.87,4.16,4.16,0,0,1,.89,1.58,7.66,7.66,0,0,1,.32,2.35,7.9,7.9,0,0,1-.36,2.45,5.57,5.57,0,0,1-1,1.9,4.81,4.81,0,0,1-1.64,1.26,6,6,0,0,1-2.21.53,8.5,8.5,0,0,1-1.28,0,3.36,3.36,0,0,1-1.05-.24c0,1.72,0,2.58,0,4.31l-2.73.16c0-5,0-7.43,0-12.39l-1.58.09C481.37,360.79,481.37,360.33,481.37,359.4Zm6.69,1.62a2.92,2.92,0,0,0-1.46.49,2.24,2.24,0,0,0-.92,1.25c0,1.75,0,2.62,0,4.37a2.12,2.12,0,0,0,.85.32,4.63,4.63,0,0,0,1.13.07,3,3,0,0,0,1.09-.27,2.43,2.43,0,0,0,.88-0.69,3.34,3.34,0,0,0,.59-1.15,5.6,5.6,0,0,0,.21-1.63,3,3,0,0,0-.67-2.1A2.05,2.05,0,0,0,488.06,361Z"/><path class="cls-4" d="M505.22,367.28a4.14,4.14,0,0,1-.7.54,7.36,7.36,0,0,1-1,.52,8.3,8.3,0,0,1-1.27.42,8.43,8.43,0,0,1-1.47.23,7,7,0,0,1-2.41-.22,4.3,4.3,0,0,1-2.92-2.66,6.27,6.27,0,0,1-.39-2.3,6.38,6.38,0,0,1,.44-2.45,5.31,5.31,0,0,1,1.21-1.81,5.49,5.49,0,0,1,1.8-1.16,7.22,7.22,0,0,1,2.23-.49,6.78,6.78,0,0,1,1.65.1,4.19,4.19,0,0,1,1.57.62,3.52,3.52,0,0,1,1.17,1.29,4.48,4.48,0,0,1,.45,2.15,10.23,10.23,0,0,1-.21,2l-7.57.51a2.3,2.3,0,0,0,.28,1.12,2,2,0,0,0,.69.71,2.79,2.79,0,0,0,1,.37,4.88,4.88,0,0,0,1.19.06,6.35,6.35,0,0,0,2.07-.43,4.76,4.76,0,0,0,1.31-.8Zm-4.54-7.19a3.59,3.59,0,0,0-1,.22,3.11,3.11,0,0,0-.87.5,2.64,2.64,0,0,0-.64.76,2.33,2.33,0,0,0-.29,1l5.17-.34A1.93,1.93,0,0,0,500.68,360.1Z"/><path class="cls-4" d="M507.43,365.93l2.61-.18c0-2.35,0-3.53,0-5.88l-2.61.18c0-.92,0-1.39,0-2.31l4.73-.34,0.32,1.36h0.08a6.16,6.16,0,0,1,1.35-1.25,3.52,3.52,0,0,1,1.77-.59,2.22,2.22,0,0,1,2,.78,4.81,4.81,0,0,1,.73,3l-2.46.18a2,2,0,0,0-.22-1.09,0.72,0.72,0,0,0-.7-0.29,2.22,2.22,0,0,0-1.36.52,4.72,4.72,0,0,0-.87,1c0,1.79,0,2.68,0,4.47l4.56-.34c0,0.92,0,1.39,0,2.31l-9.9.72C507.43,367.32,507.43,366.86,507.43,365.93Z"/><path class="cls-4" d="M528.78,371.08a9.14,9.14,0,0,1-2.86-.69,7.47,7.47,0,0,1-2.46-1.68,8,8,0,0,1-1.71-2.72,10.52,10.52,0,0,1-.64-3.86,11.36,11.36,0,0,1,.64-3.94,10.09,10.09,0,0,1,1.71-3,9.57,9.57,0,0,1,2.46-2.1,11.29,11.29,0,0,1,2.86-1.22l0.5,2.21a9.56,9.56,0,0,0-1.67.73,6.86,6.86,0,0,0-1.78,1.42,7.82,7.82,0,0,0-1.42,2.31,8.88,8.88,0,0,0-.58,3.41,7.44,7.44,0,0,0,.61,3.21,6.44,6.44,0,0,0,1.48,2.06,5.88,5.88,0,0,0,1.8,1.14,6.69,6.69,0,0,0,1.55.43Z"/><path class="cls-4" d="M543.3,360.85a4.93,4.93,0,0,1-.39,1.94,5.4,5.4,0,0,1-1.06,1.63,5.67,5.67,0,0,1-3.61,1.72,5.74,5.74,0,0,1-2-.17,4.16,4.16,0,0,1-1.67-.9,4.41,4.41,0,0,1-1.14-1.65A6.25,6.25,0,0,1,533,361a10,10,0,0,1,.72-3.84,11.69,11.69,0,0,1,1.86-3.11,11,11,0,0,1,2.54-2.23,9.32,9.32,0,0,1,2.79-1.22l0.61,2.11a9,9,0,0,0-2.08.86,8.57,8.57,0,0,0-1.72,1.29,7.84,7.84,0,0,0-1.27,1.6,5.71,5.71,0,0,0-.7,1.76,3.65,3.65,0,0,1,1.26-1,5.11,5.11,0,0,1,3.61-.37A3.52,3.52,0,0,1,543,359,4.74,4.74,0,0,1,543.3,360.85Zm-2.65.34a2,2,0,0,0-.68-1.66,2.56,2.56,0,0,0-1.84-.43,3.25,3.25,0,0,0-1.51.51,3,3,0,0,0-1,1,3.82,3.82,0,0,0-.05.52c0,0.19,0,.34,0,0.45a2.69,2.69,0,0,0,.17,1,2,2,0,0,0,1.28,1.25,2.57,2.57,0,0,0,1.07.11,2.75,2.75,0,0,0,.95-0.26,3,3,0,0,0,.82-0.56,2.75,2.75,0,0,0,.58-0.82A2.37,2.37,0,0,0,540.65,361.18Z"/><path class="cls-4" d="M546.07,367.61l9.32-.86c0,0.9,0,1.35,0,2.25l-9.32.86C546.07,369,546.07,368.51,546.07,367.61Z"/><path class="cls-4" d="M568.49,358.47a5,5,0,0,1-.39,1.95,5.49,5.49,0,0,1-1.06,1.64,5.74,5.74,0,0,1-3.61,1.77,5.74,5.74,0,0,1-2-.15,4.09,4.09,0,0,1-1.67-.88,4.33,4.33,0,0,1-1.13-1.63,6.21,6.21,0,0,1-.42-2.4,10.08,10.08,0,0,1,.72-3.85,11.89,11.89,0,0,1,1.86-3.13,11.22,11.22,0,0,1,2.54-2.26,9.46,9.46,0,0,1,2.79-1.25l0.61,2.1a9,9,0,0,0-2.08.89,8.7,8.7,0,0,0-1.72,1.31,8,8,0,0,0-1.27,1.62,5.78,5.78,0,0,0-.7,1.77,3.72,3.72,0,0,1,1.26-1,5.12,5.12,0,0,1,3.61-.42,3.46,3.46,0,0,1,2.36,2.06A4.7,4.7,0,0,1,568.49,358.47Zm-2.64.37a2,2,0,0,0-.68-1.65,2.53,2.53,0,0,0-1.84-.41,3.28,3.28,0,0,0-1.51.53,3.08,3.08,0,0,0-1,1,3.83,3.83,0,0,0-.05.52c0,0.19,0,.34,0,0.45a2.68,2.68,0,0,0,.17.95,2,2,0,0,0,1.28,1.23,2.55,2.55,0,0,0,1.07.1,2.78,2.78,0,0,0,.94-0.27,3.08,3.08,0,0,0,.82-0.58,2.8,2.8,0,0,0,.58-0.82A2.39,2.39,0,0,0,565.85,358.83Z"/><path class="cls-4" d="M574.6,360.27a4.88,4.88,0,0,0,1.28-.3,3.63,3.63,0,0,0,1-.59,2.61,2.61,0,0,0,.67-0.85,2.39,2.39,0,0,0,.24-1.08,1.88,1.88,0,0,0-.91-1.72,4.4,4.4,0,0,0-2.74-.38l-0.53.07-0.58.09-0.65.09c0-3.07,0-4.61,0-7.69l7.59-.8v2.56l-5.24.55v2.83l0.34-.06,0.28,0,0.24,0a5.88,5.88,0,0,1,2,.1,3.88,3.88,0,0,1,1.57.75,3.56,3.56,0,0,1,1,1.37,4.63,4.63,0,0,1,.37,1.88,5.17,5.17,0,0,1-.46,2.22,5.27,5.27,0,0,1-1.26,1.7,6.44,6.44,0,0,1-1.85,1.15,8,8,0,0,1-2.24.56,5.41,5.41,0,0,1-1,0q-0.53,0-1-.12a8.39,8.39,0,0,1-.93-0.21q-0.43-.12-0.72-0.24l0.88-2.27a5.67,5.67,0,0,0,1.1.35A4.68,4.68,0,0,0,574.6,360.27Z"/><path class="cls-4" d="M593.18,360.38l-9.35,1v-2l0.63-.62,0.85-.88q0.47-.49,1-1.08t1-1.21q0.71-.88,1.25-1.59a12.15,12.15,0,0,0,.88-1.33,5.74,5.74,0,0,0,.51-1.19,4.14,4.14,0,0,0,.17-1.16,1.76,1.76,0,0,0-.19-0.8,1.9,1.9,0,0,0-.52-0.65,2.19,2.19,0,0,0-.81-0.39,2.8,2.8,0,0,0-1-.06,4.17,4.17,0,0,0-1.37.38,5.44,5.44,0,0,0-1.29.92l-1.09-1.81a10.69,10.69,0,0,1,2-1.27,7.2,7.2,0,0,1,2.49-.71A5.76,5.76,0,0,1,590,346a4,4,0,0,1,1.47.58,3.07,3.07,0,0,1,1,1.11,3.41,3.41,0,0,1,.38,1.66,6.32,6.32,0,0,1-.47,2.46,9.05,9.05,0,0,1-.63,1.26q-0.39.65-.93,1.43-0.42.59-.91,1.2t-1,1.17q-0.48.56-1,1.05t-0.85.83l6-.68v2.31Z"/><path class="cls-4" d="M596.43,362.46l9.3-1.09v2.25l-9.3,1.09v-2.25Z"/><path class="cls-4" d="M608.62,355a3.85,3.85,0,0,1,.24-1.37,4.86,4.86,0,0,1,.63-1.17,6.34,6.34,0,0,1,.89-1,10.09,10.09,0,0,1,1-.81,5.42,5.42,0,0,1-1.74-1.23,2.83,2.83,0,0,1-.69-2,3.65,3.65,0,0,1,.36-1.58,4.47,4.47,0,0,1,1-1.36,5.56,5.56,0,0,1,1.52-1,6.48,6.48,0,0,1,1.91-.53,5.89,5.89,0,0,1,1.77,0,4.2,4.2,0,0,1,1.46.53,2.8,2.8,0,0,1,1,1,2.77,2.77,0,0,1,.36,1.41,4.09,4.09,0,0,1-.64,2.24,6.76,6.76,0,0,1-1.75,1.82,5.43,5.43,0,0,1,2,1.28,3,3,0,0,1,.74,2.17,3.9,3.9,0,0,1-.41,1.76,4.94,4.94,0,0,1-1.1,1.45,6.08,6.08,0,0,1-1.62,1.05,6.83,6.83,0,0,1-2,.55,6.24,6.24,0,0,1-1.95,0,4.51,4.51,0,0,1-1.57-.6,3,3,0,0,1-1-1.09A3.1,3.1,0,0,1,608.62,355Zm7.46-1.28a1.36,1.36,0,0,0-.27-0.87,2.47,2.47,0,0,0-.68-0.59,5.43,5.43,0,0,0-.9-0.42l-1-.37a4.87,4.87,0,0,0-1.61,1.39,2.56,2.56,0,0,0-.57,1.44,1.52,1.52,0,0,0,.67,1.38,2.77,2.77,0,0,0,1.86.28,3.3,3.3,0,0,0,1.76-.71A1.89,1.89,0,0,0,616.08,353.69Zm-4.5-6.48a1.43,1.43,0,0,0,.22.82,1.93,1.93,0,0,0,.57.54,3.83,3.83,0,0,0,.79.38l0.88,0.31a4.87,4.87,0,0,0,.66-0.5,4.36,4.36,0,0,0,.58-0.63,3.68,3.68,0,0,0,.41-0.68,1.63,1.63,0,0,0,.16-0.68,1.37,1.37,0,0,0-.19-0.74,1.56,1.56,0,0,0-.49-0.5,1.88,1.88,0,0,0-.68-0.26,2.54,2.54,0,0,0-.78,0,2.58,2.58,0,0,0-.85.25,2.86,2.86,0,0,0-.67.46,2,2,0,0,0-.44.6A1.51,1.51,0,0,0,611.58,347.22Z"/><path class="cls-4" d="M620.73,349.68a13.19,13.19,0,0,1,.4-3.4,8,8,0,0,1,1.12-2.53,5.63,5.63,0,0,1,1.73-1.64,5.79,5.79,0,0,1,2.25-.76,4.28,4.28,0,0,1,4.08,1.32q1.43,1.67,1.43,5.58a13.25,13.25,0,0,1-.4,3.42,8.15,8.15,0,0,1-1.12,2.54,5.57,5.57,0,0,1-1.74,1.66,5.85,5.85,0,0,1-2.26.77,4.14,4.14,0,0,1-4.08-1.44Q620.73,353.42,620.73,349.68Zm2.72-.35c0,0.21,0,.41,0,0.6s0,0.38,0,.57l5.07-5.34a2,2,0,0,0-2.35-1.5,2.63,2.63,0,0,0-2,1.56A9.23,9.23,0,0,0,623.45,349.34Zm5.57-.73q0-.34,0-0.64c0-.2,0-0.4,0-0.59l-5.09,5.35a2,2,0,0,0,2.35,1.61,2.67,2.67,0,0,0,2.06-1.55A9.25,9.25,0,0,0,629,348.61Z"/><path class="cls-4" d="M633.29,348a13.23,13.23,0,0,1,.4-3.4,8.05,8.05,0,0,1,1.12-2.53,5.69,5.69,0,0,1,1.73-1.65,5.81,5.81,0,0,1,2.25-.78,4.25,4.25,0,0,1,4.07,1.3q1.43,1.66,1.43,5.57a13.29,13.29,0,0,1-.4,3.43,8.22,8.22,0,0,1-1.12,2.55,5.62,5.62,0,0,1-1.74,1.67,5.87,5.87,0,0,1-2.26.78,4.11,4.11,0,0,1-4.07-1.41Q633.29,351.78,633.29,348Zm2.72-.37c0,0.21,0,.41,0,0.6s0,0.38,0,.57l5.06-5.37a2,2,0,0,0-2.34-1.48,2.66,2.66,0,0,0-2,1.57A9.27,9.27,0,0,0,636,347.68Zm5.56-.76q0-.34,0-0.64c0-.2,0-0.4,0-0.59l-5.08,5.38a2,2,0,0,0,2.34,1.59,2.69,2.69,0,0,0,2.05-1.56A9.28,9.28,0,0,0,641.57,346.92Z"/><path class="cls-4" d="M649.6,351.82a1.66,1.66,0,0,1,.47-1.2,2,2,0,0,1,1.18-.59,1.81,1.81,0,0,1,1.74.51,2.62,2.62,0,0,1,.59,1.78,4.35,4.35,0,0,1-.37,1.78,5.56,5.56,0,0,1-1,1.48,6.37,6.37,0,0,1-1.31,1.11,6.17,6.17,0,0,1-1.43.69L649,356.3a7.05,7.05,0,0,0,1-.5,5,5,0,0,0,.93-0.71,4,4,0,0,0,.7-0.91,2.53,2.53,0,0,0,.32-1.05,2.75,2.75,0,0,1-1.07.18,1.39,1.39,0,0,1-.72-0.23,1.13,1.13,0,0,1-.41-0.53A2,2,0,0,1,649.6,351.82Z"/><path class="cls-4" d="M662.77,349.23a4.67,4.67,0,0,0,1.26-.37,3.61,3.61,0,0,0,1-.65,3,3,0,0,0,.64-0.85,2.15,2.15,0,0,0,.23-1,1.79,1.79,0,0,0-.26-1,1.52,1.52,0,0,0-.72-0.57,3.12,3.12,0,0,0-1.11-.19,8.85,8.85,0,0,0-1.4.1l-1.17.17v-1.51l3.51-4.83-5.29.79V337l8.52-1.27v1.91l-3.68,4.78,0.48-.07a3.94,3.94,0,0,1,1.42,0,2.91,2.91,0,0,1,1.22.57,3,3,0,0,1,.86,1.13,4,4,0,0,1,.32,1.69,4.77,4.77,0,0,1-.49,2.17,5.94,5.94,0,0,1-1.29,1.72,6.67,6.67,0,0,1-1.85,1.2,8.34,8.34,0,0,1-2.15.63,10.48,10.48,0,0,1-1.88.11,8.24,8.24,0,0,1-1.82-.26l0.73-2.38a2.52,2.52,0,0,0,.51.13l0.73,0.1a7.53,7.53,0,0,0,.84,0A5.74,5.74,0,0,0,662.77,349.23Z"/><path class="cls-4" d="M672.63,351.91a8.39,8.39,0,0,0,1.55-.8,8.17,8.17,0,0,0,1.78-1.56,8.89,8.89,0,0,0,1.47-2.4,8.48,8.48,0,0,0,.61-3.35,7.92,7.92,0,0,0-.57-3.27,5.69,5.69,0,0,0-1.41-2,4.91,4.91,0,0,0-1.76-1,7.71,7.71,0,0,0-1.66-.34l0.5-2.32a9.18,9.18,0,0,1,2.84.55,6.81,6.81,0,0,1,2.44,1.53,7.43,7.43,0,0,1,1.7,2.62,10.2,10.2,0,0,1,.64,3.79,11.85,11.85,0,0,1-.64,4,10.9,10.9,0,0,1-1.7,3.12,10.42,10.42,0,0,1-2.44,2.25,11.27,11.27,0,0,1-2.84,1.36Z"/><path class="cls-4" d="M61,446.27v-2.53l2.7,0.43v-6.44L61,437.29v-2.53l2.72,0.43v-0.64a3.87,3.87,0,0,1,.38-1.8,3,3,0,0,1,1-1.13,3.42,3.42,0,0,1,1.43-.52,5.73,5.73,0,0,1,1.68,0,11.53,11.53,0,0,1,2.6.66,7.84,7.84,0,0,1,1.68.91l-0.87,2.15a12.24,12.24,0,0,0-1.13-.63,5.46,5.46,0,0,0-1.57-.45,2,2,0,0,0-1.73.3,2.21,2.21,0,0,0-.49,1.61l4.8,0.74v2.53l-4.8-.74v6.44l4.83,0.74v2.53C67.3,447.26,65.2,446.93,61,446.27Z"/><path class="cls-4" d="M75.16,437.74a11.13,11.13,0,0,1,2.12-.39,11.78,11.78,0,0,1,2.85.13,6.89,6.89,0,0,1,2,.59,4.14,4.14,0,0,1,1.35,1,3.74,3.74,0,0,1,.74,1.37,5.91,5.91,0,0,1,.23,1.69q0,1.17-.08,2c-0.05.54-.08,1-0.08,1.46a10.09,10.09,0,0,0,0,1.09c0,0.21.05,0.43,0.07,0.63l1.49,0.22v2.53l-3.84-.56-0.3-1.61-0.11,0a3.19,3.19,0,0,1-1.3,1,4,4,0,0,1-2.27.18,4.47,4.47,0,0,1-2.71-1.33,3.65,3.65,0,0,1-1-2.59,3.35,3.35,0,0,1,.35-1.61,2.38,2.38,0,0,1,1-1,4.24,4.24,0,0,1,1.61-.42,9.24,9.24,0,0,1,2.1.1q0.41,0.06.86,0.17l1.11,0.26a2.28,2.28,0,0,0,0-.45v-0.44a1.7,1.7,0,0,0-.5-1.33,2.76,2.76,0,0,0-1.48-.6,6.65,6.65,0,0,0-2.09,0,11.82,11.82,0,0,0-1.57.36Zm3.89,9a2.52,2.52,0,0,0,1.63-.16,2.16,2.16,0,0,0,.79-0.75v-1.38l-0.68-.2a8.27,8.27,0,0,0-1-.2,4.67,4.67,0,0,0-.86,0,2.54,2.54,0,0,0-.77.14,1.22,1.22,0,0,0-.54.37,1,1,0,0,0-.2.64,1.51,1.51,0,0,0,.37,1.06A2,2,0,0,0,79.05,446.76Z"/><path class="cls-4" d="M99.33,450.85a5.66,5.66,0,0,1-2.2.76,9.34,9.34,0,0,1-2.63,0,8.17,8.17,0,0,1-2.65-.81,6.56,6.56,0,0,1-1.95-1.51,6.29,6.29,0,0,1-1.2-2.09,7.69,7.69,0,0,1-.41-2.54,6,6,0,0,1,.48-2.51,4.43,4.43,0,0,1,1.34-1.72,4.87,4.87,0,0,1,2-.9,7.5,7.5,0,0,1,2.54,0,10.12,10.12,0,0,1,2.4.64,12.91,12.91,0,0,1,1.72.81v4l-2.52-.35v-2.12a7,7,0,0,0-1.42-.36,4.14,4.14,0,0,0-1.27,0,2.58,2.58,0,0,0-1.92,1.42,3.26,3.26,0,0,0-.31,1.5,3.85,3.85,0,0,0,.25,1.39,3.9,3.9,0,0,0,.71,1.18,3.94,3.94,0,0,0,1.13.88A4.49,4.49,0,0,0,95,449,5.09,5.09,0,0,0,97.1,449a7.35,7.35,0,0,0,1.25-.47Z"/><path class="cls-4" d="M103.22,443.52l-2.27-.31v-2.53l2.27,0.31v-2.62l3-.45v3.47l6,0.8v2.53l-6-.8v3.29a4.39,4.39,0,0,0,.66,2.65,2.66,2.66,0,0,0,1.86,1,3.84,3.84,0,0,0,1.12,0,3.76,3.76,0,0,0,.91-0.26,4.33,4.33,0,0,0,.73-0.41l0.61-.43,1.38,2.25a3.66,3.66,0,0,1-1,.71,7.11,7.11,0,0,1-1.26.5,7.25,7.25,0,0,1-1.41.26,6.56,6.56,0,0,1-1.44,0,5.68,5.68,0,0,1-3.86-2,7.45,7.45,0,0,1-1.29-4.74v-3.29Z"/><path class="cls-4" d="M115.12,448.32a6.66,6.66,0,0,1,.44-2.52,4.42,4.42,0,0,1,1.24-1.75,4.51,4.51,0,0,1,1.91-.94,7,7,0,0,1,2.49-.08,7.78,7.78,0,0,1,2.58.76,6.34,6.34,0,0,1,1.92,1.47,6.08,6.08,0,0,1,1.18,2.07,7.81,7.81,0,0,1,.4,2.53,6.68,6.68,0,0,1-.44,2.52,4.35,4.35,0,0,1-3.15,2.7,7,7,0,0,1-2.49.09,7.75,7.75,0,0,1-2.58-.77,6.34,6.34,0,0,1-1.91-1.48,6.1,6.1,0,0,1-1.18-2.07A7.82,7.82,0,0,1,115.12,448.32Zm3.07,0.4a4.83,4.83,0,0,0,.21,1.43,4,4,0,0,0,.6,1.2,3.25,3.25,0,0,0,.94.87,3.16,3.16,0,0,0,1.26.43,2.61,2.61,0,0,0,2.17-.58,3.34,3.34,0,0,0,.84-2.59,4.42,4.42,0,0,0-.78-2.66,3.09,3.09,0,0,0-2.22-1.26,3.42,3.42,0,0,0-1.19,0,2,2,0,0,0-1,.51,2.61,2.61,0,0,0-.63,1A4.7,4.7,0,0,0,118.19,448.72Z"/><path class="cls-4" d="M129,453.29l2.85,0.35V447.2l-2.85-.35v-2.53l5.16,0.63,0.34,1.56h0.09a5.12,5.12,0,0,1,1.47-1.09,3.38,3.38,0,0,1,1.93-.28,3,3,0,0,1,2.17,1.27,6,6,0,0,1,.79,3.47l-2.69-.31a2.49,2.49,0,0,0-.24-1.24,1,1,0,0,0-.77-0.47,2.08,2.08,0,0,0-1.48.28,3.89,3.89,0,0,0-1,.94V454l5,0.59v2.53c-4.32-.51-6.49-0.77-10.81-1.3v-2.53Z"/><path class="cls-4" d="M143.2,455l4,0.46V449l-4-.46V446l7,0.8c0,3.59,0,5.38,0,9l4.25,0.47v2.53c-4.51-.5-6.77-0.75-11.27-1.27V455Zm3.49-11.7a1.44,1.44,0,0,1,.53-1.16,1.87,1.87,0,0,1,1.47-.34,2.5,2.5,0,0,1,1.54.68,1.77,1.77,0,0,1,.57,1.28,1.32,1.32,0,0,1-.57,1.14,2.17,2.17,0,0,1-1.54.3,2.37,2.37,0,0,1-1.47-.64A1.73,1.73,0,0,1,146.69,443.29Z"/><path class="cls-4" d="M157.69,448.42a11.56,11.56,0,0,1,2.12-.48,11.88,11.88,0,0,1,2.86,0,6.72,6.72,0,0,1,2,.5,3.92,3.92,0,0,1,1.36,1,3.55,3.55,0,0,1,.75,1.34,5.79,5.79,0,0,1,.23,1.68q0,1.17-.08,2t-0.08,1.46a10,10,0,0,0,0,1.09c0,0.21.05,0.43,0.07,0.63l1.49,0.15v2.53l-3.86-.4-0.3-1.6h-0.11a3.4,3.4,0,0,1-1.3,1.09,4.1,4.1,0,0,1-2.28.28,4.29,4.29,0,0,1-2.72-1.21,3.5,3.5,0,0,1-1-2.55,3.42,3.42,0,0,1,.35-1.63,2.54,2.54,0,0,1,1-1,4.41,4.41,0,0,1,1.62-.49,9.34,9.34,0,0,1,2.11,0q0.41,0,.87.14l1.12,0.21a2.3,2.3,0,0,0,0-.46v-0.44a1.63,1.63,0,0,0-.5-1.31,2.66,2.66,0,0,0-1.48-.54,6.7,6.7,0,0,0-2.1.08,12.19,12.19,0,0,0-1.57.43Zm3.91,8.86a2.58,2.58,0,0,0,1.64-.23,2.31,2.31,0,0,0,.8-0.78V454.9l-0.68-.18a8.24,8.24,0,0,0-1-.16,4.68,4.68,0,0,0-.86,0,2.63,2.63,0,0,0-.77.17,1.3,1.3,0,0,0-.55.39,1,1,0,0,0-.2.65,1.45,1.45,0,0,0,.37,1A1.94,1.94,0,0,0,161.6,457.28Z"/><path class="cls-4" d="M171.41,444.48l4.9,0.49v10.63a5.2,5.2,0,0,0,.44,2.5,1.72,1.72,0,0,0,1.4.83,3.76,3.76,0,0,0,1.17,0,4,4,0,0,0,.92-0.34l1.13,2.18q-0.39.22-.78,0.4a4.59,4.59,0,0,1-.83.29,5.31,5.31,0,0,1-1,.14,7.53,7.53,0,0,1-1.16,0,4.78,4.78,0,0,1-3.24-1.42,4.68,4.68,0,0,1-1.08-3.24V447.2l-1.91-.19v-2.53Z"/><path class="cls-4" d="M193.66,467.57a11.6,11.6,0,0,1-3.13-1.29,10.44,10.44,0,0,1-2.69-2.29,11,11,0,0,1-1.87-3.3,12.52,12.52,0,0,1-.7-4.34,11.46,11.46,0,0,1,.7-4.2,8.84,8.84,0,0,1,1.87-3,8.2,8.2,0,0,1,2.69-1.85,10.61,10.61,0,0,1,3.13-.8l0.55,2.51a8.9,8.9,0,0,0-1.83.49,5.89,5.89,0,0,0-1.94,1.23,6.79,6.79,0,0,0-1.55,2.26,9.26,9.26,0,0,0,1.66,9.78,8.16,8.16,0,0,0,2,1.58,8.66,8.66,0,0,0,1.7.76Z"/><path class="cls-4" d="M199.44,460.68L203,461V450.93l-3,2.06-1.38-2,5.25-3.55,2,0.17v13.57l3.45,0.28V464c-3.93-.32-5.9-0.49-9.83-0.83v-2.53Z"/><path class="cls-4" d="M213.24,461.82l3.52,0.28V452l-3,2.08-1.38-1.95,5.25-3.59,2,0.16v13.57l3.45,0.26v2.53c-3.93-.29-5.9-0.44-9.83-0.76v-2.53Z"/><path class="cls-4" d="M227.38,467.8a7.43,7.43,0,0,0,1.7-.49,6.52,6.52,0,0,0,2-1.26,7.15,7.15,0,0,0,1.62-2.27,8.17,8.17,0,0,0,.67-3.52,9.68,9.68,0,0,0-.63-3.72,8.49,8.49,0,0,0-1.55-2.51,7.42,7.42,0,0,0-1.95-1.54,10.33,10.33,0,0,0-1.83-.79l0.55-2.42a12.28,12.28,0,0,1,3.13,1.3,10.33,10.33,0,0,1,2.69,2.28,10.92,10.92,0,0,1,1.88,3.29,12.39,12.39,0,0,1,.7,4.31,11.58,11.58,0,0,1-.7,4.23,8.89,8.89,0,0,1-1.88,3,8.29,8.29,0,0,1-2.69,1.86,10.07,10.07,0,0,1-3.13.79Z"/><path class="cls-4" d="M379,470.56V468h2.72v-6.44H379v-2.53h2.74V458.4a4.24,4.24,0,0,1,.38-1.87,3.78,3.78,0,0,1,1-1.29,4.15,4.15,0,0,1,1.44-.76,6,6,0,0,1,1.7-.25,10.8,10.8,0,0,1,2.62.24,6.65,6.65,0,0,1,1.7.64l-0.88,2.29a10.37,10.37,0,0,0-1.14-.45,5,5,0,0,0-1.58-.19,2.26,2.26,0,0,0-1.74.58,2.51,2.51,0,0,0-.5,1.69l4.84,0v2.53l-4.84,0V468l4.87,0v2.53C385.38,470.52,383.26,470.54,379,470.56Z"/><path class="cls-4" d="M393.31,459.72a12.74,12.74,0,0,1,2.13-.74,12.23,12.23,0,0,1,2.87-.34,6.36,6.36,0,0,1,2,.26,3.34,3.34,0,0,1,1.36.79,3,3,0,0,1,.75,1.25,5.49,5.49,0,0,1,.23,1.65q0,1.17-.08,2t-0.08,1.47a9.82,9.82,0,0,0,0,1.08c0,0.21.05,0.42,0.07,0.62l1.5,0v2.53l-3.87.06-0.3-1.56h-0.11a4.06,4.06,0,0,1-1.31,1.25,4.41,4.41,0,0,1-2.29.55,3.85,3.85,0,0,1-2.73-.89,3.11,3.11,0,0,1-1-2.43,3.68,3.68,0,0,1,.35-1.67,3,3,0,0,1,1-1.16,5,5,0,0,1,1.63-.69,9.59,9.59,0,0,1,2.12-.25c0.27,0,.57,0,0.87,0l1.12,0.08a2.37,2.37,0,0,0,0-.46v-0.44a1.45,1.45,0,0,0-.5-1.25,2.43,2.43,0,0,0-1.49-.36,7,7,0,0,0-2.11.33,13.7,13.7,0,0,0-1.58.62Zm3.93,8.39a2.53,2.53,0,0,0,2.44-1.3v-1.38l-0.68-.09a7.91,7.91,0,0,0-1,0,4.79,4.79,0,0,0-.87.09,2.92,2.92,0,0,0-.78.26,1.54,1.54,0,0,0-.55.46,1.09,1.09,0,0,0-.2.67,1.29,1.29,0,0,0,.38,1A1.75,1.75,0,0,0,397.23,468.11Z"/><path class="cls-4" d="M417.67,468.9a6.8,6.8,0,0,1-2.21,1.12,9.81,9.81,0,0,1-2.65.42,7.47,7.47,0,0,1-2.66-.38,5.28,5.28,0,0,1-2-1.19A5.07,5.07,0,0,1,407,467a7.08,7.08,0,0,1-.42-2.48,6.54,6.54,0,0,1,.48-2.59,5.58,5.58,0,0,1,1.35-1.94,6,6,0,0,1,2-1.23,8,8,0,0,1,2.56-.46,9.41,9.41,0,0,1,2.42.24,11.09,11.09,0,0,1,1.73.53v4l-2.54.06v-2.12a6.48,6.48,0,0,0-1.43-.13,4.4,4.4,0,0,0-1.28.22,3.21,3.21,0,0,0-1.13.65,3.36,3.36,0,0,0-.81,1.09,3.55,3.55,0,0,0-.31,1.55,3.51,3.51,0,0,0,.25,1.35,3.07,3.07,0,0,0,1.86,1.77,4.08,4.08,0,0,0,1.51.23,5.46,5.46,0,0,0,2.16-.42,9,9,0,0,0,1.26-.67Z"/><path class="cls-4" d="M421.59,460.93l-2.28.06c0-1,0-1.52,0-2.53l2.28-.06c0-1,0-1.57,0-2.62l3-.93c0,1.39,0,2.08,0,3.47l6-.18v2.53l-6,.18c0,1.32,0,2,0,3.29a3.87,3.87,0,0,0,.67,2.55,2.24,2.24,0,0,0,1.87.74,4,4,0,0,0,1.13-.18,4.42,4.42,0,0,0,.91-0.41,5.42,5.42,0,0,0,.74-0.53l0.61-.52,1.38,2a4.65,4.65,0,0,1-1,.87,8.72,8.72,0,0,1-1.27.71,8.27,8.27,0,0,1-1.42.49,6.84,6.84,0,0,1-1.45.2,4.85,4.85,0,0,1-3.89-1.33q-1.3-1.4-1.3-4.53v-3.29Z"/><path class="cls-4" d="M433.56,463.8a7.18,7.18,0,0,1,.44-2.59,5.44,5.44,0,0,1,3.17-3.2,7.54,7.54,0,0,1,2.5-.49,7.13,7.13,0,0,1,2.59.34,5.11,5.11,0,0,1,1.93,1.16,4.92,4.92,0,0,1,1.19,1.88,7.82,7.82,0,0,1,0,5.06,5.46,5.46,0,0,1-3.17,3.21,7.48,7.48,0,0,1-2.5.49,7.09,7.09,0,0,1-2.59-.35,5.12,5.12,0,0,1-1.93-1.17,4.94,4.94,0,0,1-1.19-1.88A7.22,7.22,0,0,1,433.56,463.8Zm3.09-.1a4.48,4.48,0,0,0,.21,1.4,3.3,3.3,0,0,0,.6,1.11,2.57,2.57,0,0,0,.94.71,2.84,2.84,0,0,0,1.27.22,3,3,0,0,0,2.18-.93,4.66,4.66,0,0,0,.06-5.26,2.61,2.61,0,0,0-2.24-.9,3.64,3.64,0,0,0-1.2.24,2.48,2.48,0,0,0-1,.67,3.24,3.24,0,0,0-.63,1.13A5,5,0,0,0,436.65,463.7Z"/><path class="cls-4" d="M447.49,466.52l2.86-.11V460l-2.86.11v-2.53l5.19-.21,0.35,1.5h0.09a6.51,6.51,0,0,1,1.48-1.33,3.77,3.77,0,0,1,1.94-.59,2.51,2.51,0,0,1,2.18.91,5.39,5.39,0,0,1,.79,3.35l-2.7.12a2.25,2.25,0,0,0-.24-1.2,0.81,0.81,0,0,0-.77-0.35,2.37,2.37,0,0,0-1.49.52,5,5,0,0,0-1,1.1c0,2,0,2.94,0,4.9l5-.22c0,1,0,1.52,0,2.53-4.34.19-6.52,0.29-10.86,0.46C447.49,468,447.49,467.54,447.49,466.52Z"/><path class="cls-4" d="M461.78,465.91l4.06-.19c0-2.58,0-3.86,0-6.44l-4.06.19v-2.53l7.05-.34c0,3.59,0,5.38,0,9l4.26-.22c0,1,0,1.52,0,2.53-4.53.24-6.79,0.35-11.32,0.56v-2.53Zm3.5-12.26a1.71,1.71,0,0,1,.53-1.24,2.14,2.14,0,0,1,1.47-.58,2.16,2.16,0,0,1,1.54.43,1.48,1.48,0,0,1,.58,1.19,1.57,1.57,0,0,1-.58,1.24,2.47,2.47,0,0,1-1.54.55,2.06,2.06,0,0,1-1.47-.4A1.47,1.47,0,0,1,465.28,453.65Z"/><path class="cls-4" d="M476.33,457a13.27,13.27,0,0,1,2.13-.83,12.43,12.43,0,0,1,2.87-.46,6.26,6.26,0,0,1,2,.17,3.16,3.16,0,0,1,1.36.74,2.87,2.87,0,0,1,.75,1.22,5.41,5.41,0,0,1,.23,1.64q0,1.17-.08,2T485.54,463a9.77,9.77,0,0,0,0,1.08c0,0.21.05,0.42,0.07,0.62l1.5-.09c0,1,0,1.52,0,2.53l-3.87.23-0.3-1.55h-0.11a4.32,4.32,0,0,1-1.31,1.31,4.54,4.54,0,0,1-2.29.65,3.71,3.71,0,0,1-2.73-.77,3,3,0,0,1-1-2.38,3.78,3.78,0,0,1,.35-1.69,3.22,3.22,0,0,1,1-1.21,5.21,5.21,0,0,1,1.63-.76,9.75,9.75,0,0,1,2.12-.34,8.57,8.57,0,0,1,.87,0l1.12,0a2.41,2.41,0,0,0,0-.46v-0.44a1.39,1.39,0,0,0-.5-1.23,2.36,2.36,0,0,0-1.49-.29,7.13,7.13,0,0,0-2.1.42,14.37,14.37,0,0,0-1.58.68Zm3.92,8.22a2.87,2.87,0,0,0,1.64-.49,2.94,2.94,0,0,0,.8-0.91v-1.38l-0.68-.06a7.87,7.87,0,0,0-1,0,4.85,4.85,0,0,0-.87.13,3,3,0,0,0-.77.3,1.64,1.64,0,0,0-.55.48,1.13,1.13,0,0,0-.2.68,1.24,1.24,0,0,0,.38,1A1.69,1.69,0,0,0,480.25,465.22Z"/><path class="cls-4" d="M490.08,450.82l4.91-.31c0,4.25,0,6.38,0,10.63a4.76,4.76,0,0,0,.44,2.43,1.44,1.44,0,0,0,1.41.6,4,4,0,0,0,1.17-.23,4.82,4.82,0,0,0,.92-0.49l1.13,2q-0.39.28-.78,0.52a5.47,5.47,0,0,1-.83.42,5.91,5.91,0,0,1-1,.29,7.7,7.7,0,0,1-1.16.16,4.13,4.13,0,0,1-3.25-.9,4,4,0,0,1-1.08-3.06c0-3.86,0-5.8,0-9.66l-1.91.12C490.08,452.34,490.08,451.83,490.08,450.82Z"/><path class="cls-4" d="M503.69,468.73c4.09-.28,6.14-0.42,10.22-0.72v2.46c-4.09.3-6.13,0.44-10.22,0.72C503.69,470.21,503.69,469.72,503.69,468.73Z"/><path class="cls-4" d="M515.72,449.09l4.65-.35c0,2.35,0,3.53,0,5.89h0.09a4.34,4.34,0,0,1,1.47-1.29,5.76,5.76,0,0,1,3.78-.5,2.76,2.76,0,0,1,1.27.66,3.22,3.22,0,0,1,.83,1.37,7,7,0,0,1,.3,2.22v7.15l-3,.24v-6.53a2.67,2.67,0,0,0-.6-2,1.94,1.94,0,0,0-1.57-.5,2.8,2.8,0,0,0-1.56.64,3.12,3.12,0,0,0-1,1.4v7.34l-3,.23c0-5.43,0-8.14,0-13.57l-1.66.12C515.72,450.61,515.72,450.1,515.72,449.09Z"/><path class="cls-4" d="M541.81,461.87a4.63,4.63,0,0,1-.77.61,8.27,8.27,0,0,1-1.1.59,9.35,9.35,0,0,1-3,.76,7.6,7.6,0,0,1-2.63-.19,4.6,4.6,0,0,1-3.2-2.85,6.81,6.81,0,0,1-.43-2.51,7,7,0,0,1,.48-2.7,6,6,0,0,1,1.32-2,6.19,6.19,0,0,1,2-1.3,8,8,0,0,1,2.44-.58,7.37,7.37,0,0,1,1.81.08,4.51,4.51,0,0,1,1.71.65,3.75,3.75,0,0,1,1.28,1.4,4.85,4.85,0,0,1,.5,2.35,11.26,11.26,0,0,1-.23,2.16l-8.28.71a2.51,2.51,0,0,0,.31,1.22,2.17,2.17,0,0,0,.76.76,3,3,0,0,0,1.08.38,5.29,5.29,0,0,0,1.3,0,7,7,0,0,0,2.27-.52,5.37,5.37,0,0,0,1.44-.91Zm-5-7.78a4,4,0,0,0-1.13.26,3.51,3.51,0,0,0-1,.56,3,3,0,0,0-.7.84,2.58,2.58,0,0,0-.32,1.08l5.66-.48A2.07,2.07,0,0,0,536.84,454.08Z"/><path class="cls-4" d="M545.33,446.67l4.9-.44c0,4.25,0,6.38,0,10.63a4.69,4.69,0,0,0,.44,2.42,1.4,1.4,0,0,0,1.4.56,4.06,4.06,0,0,0,1.17-.26,5,5,0,0,0,.92-0.51l1.13,2q-0.39.29-.78,0.54a5.66,5.66,0,0,1-.83.45,6,6,0,0,1-1,.32,7.78,7.78,0,0,1-1.16.19,4,4,0,0,1-3.24-.81,3.94,3.94,0,0,1-1.08-3c0-3.86,0-5.8,0-9.66l-1.91.17C545.33,448.19,545.33,447.69,545.33,446.67Z"/><path class="cls-4" d="M557.13,450.19l3.91-.38,0.34,1.35h0.09a4.9,4.9,0,0,1,3.86-2.08,5.27,5.27,0,0,1,1.94.14,3.32,3.32,0,0,1,1.52.89,4.34,4.34,0,0,1,1,1.69,8.27,8.27,0,0,1,.34,2.56,8.83,8.83,0,0,1-.39,2.7,6.4,6.4,0,0,1-1.13,2.13,5.56,5.56,0,0,1-1.79,1.44,6.67,6.67,0,0,1-2.41.68,9.38,9.38,0,0,1-1.4,0,3.6,3.6,0,0,1-1.15-.22v4.71l-3,.29c0-5.43,0-8.14,0-13.57l-1.72.17v-2.53Zm7.31,1.5a3.3,3.3,0,0,0-1.6.59,2.59,2.59,0,0,0-1,1.41v4.78a2.22,2.22,0,0,0,.93.31,5,5,0,0,0,1.23,0,3.41,3.41,0,0,0,1.2-.34,2.82,2.82,0,0,0,1-.8,3.85,3.85,0,0,0,.64-1.28,6.23,6.23,0,0,0,.23-1.79,3.13,3.13,0,0,0-.74-2.27A2.17,2.17,0,0,0,564.44,451.68Z"/><path class="cls-4" d="M583.19,457.81a4.77,4.77,0,0,1-.77.62,8.44,8.44,0,0,1-1.1.61,9.46,9.46,0,0,1-3,.83,7.53,7.53,0,0,1-2.63-.14A4.46,4.46,0,0,1,572.5,457a6.75,6.75,0,0,1-.42-2.5,7.14,7.14,0,0,1,.48-2.71,6.13,6.13,0,0,1,1.32-2,6.36,6.36,0,0,1,2-1.34,8.09,8.09,0,0,1,2.44-.64,7.34,7.34,0,0,1,1.8,0,4.42,4.42,0,0,1,1.71.61,3.63,3.63,0,0,1,1.27,1.37,4.8,4.8,0,0,1,.49,2.34,11.35,11.35,0,0,1-.23,2.16l-8.27.88a2.47,2.47,0,0,0,.31,1.21,2.11,2.11,0,0,0,.76.75,3,3,0,0,0,1.08.36,5.27,5.27,0,0,0,1.3,0,7.11,7.11,0,0,0,2.26-.56,5.5,5.5,0,0,0,1.44-.94Zm-5-7.68a4,4,0,0,0-1.13.28,3.59,3.59,0,0,0-1,.58,3,3,0,0,0-.7.86,2.62,2.62,0,0,0-.32,1.09l5.65-.6A2,2,0,0,0,578.23,450.13Z"/><path class="cls-4" d="M585.6,456.24l2.85-.31v-6.44l-2.85.31v-2.53l5.17-.57,0.34,1.48h0.09a7.21,7.21,0,0,1,1.47-1.43,4,4,0,0,1,1.93-.73,2.33,2.33,0,0,1,2.17.76,5.14,5.14,0,0,1,.79,3.29l-2.69.31a2.16,2.16,0,0,0-.24-1.18,0.75,0.75,0,0,0-.77-0.29,2.53,2.53,0,0,0-1.48.63,5.51,5.51,0,0,0-1,1.17v4.9l5-.57c0,1,0,1.52,0,2.53-4.33.5-6.49,0.74-10.82,1.22v-2.53Z"/><path class="cls-4" d="M608.93,460.94a9.67,9.67,0,0,1-3.12-.63,7.71,7.71,0,0,1-2.68-1.73,8.33,8.33,0,0,1-1.87-2.91,11.33,11.33,0,0,1-.7-4.2,12.71,12.71,0,0,1,.7-4.35,11.65,11.65,0,0,1,1.87-3.38,11.09,11.09,0,0,1,2.68-2.42,12.89,12.89,0,0,1,3.12-1.46l0.55,2.39a10.89,10.89,0,0,0-1.82.88,7.92,7.92,0,0,0-1.94,1.64,9.05,9.05,0,0,0-1.55,2.59,9.94,9.94,0,0,0-.63,3.75,8,8,0,0,0,.67,3.49,6.67,6.67,0,0,0,1.62,2.19,6.06,6.06,0,0,0,2,1.17,7.1,7.1,0,0,0,1.7.4Z"/><path class="cls-4" d="M614.68,452.82l3.51-.44V442.33l-3,2.7-1.38-1.67,5.23-4.66,2-.26V452l3.44-.44v2.53l-9.79,1.25v-2.53Z"/><path class="cls-4" d="M631,451.77a1.81,1.81,0,0,1,.52-1.31,2.16,2.16,0,0,1,1.3-.63,2,2,0,0,1,1.9.57,2.89,2.89,0,0,1,.64,2,4.74,4.74,0,0,1-.4,1.94,6,6,0,0,1-1,1.61,6.83,6.83,0,0,1-1.43,1.21,6.65,6.65,0,0,1-1.57.74l-0.62-1.18a7.61,7.61,0,0,0,1.11-.54,5.41,5.41,0,0,0,1-.77,4.34,4.34,0,0,0,.77-1,2.74,2.74,0,0,0,.36-1.15,3,3,0,0,1-1.17.19,1.54,1.54,0,0,1-.79-0.26,1.25,1.25,0,0,1-.45-0.58A2.21,2.21,0,0,1,631,451.77Z"/><path class="cls-4" d="M642.19,449.19l3.5-.49V438.65l-3,2.75-1.37-1.65,5.22-4.73,2-.29V448.3l3.43-.49v2.53c-3.91.56-5.87,0.84-9.78,1.39v-2.53Z"/><path class="cls-4" d="M655.93,447.23l3.5-.52V436.66l-3,2.77L655,437.79l5.22-4.77,2-.3v13.57l3.43-.52v2.53l-9.77,1.46v-2.53Z"/><path class="cls-4" d="M670,450a9.22,9.22,0,0,0,1.69-.87,8.93,8.93,0,0,0,2-1.71,9.73,9.73,0,0,0,1.61-2.63,9.3,9.3,0,0,0,.66-3.67,8.67,8.67,0,0,0-.63-3.58,6.23,6.23,0,0,0-1.54-2.16,5.4,5.4,0,0,0-1.93-1.1,8.46,8.46,0,0,0-1.82-.38l0.55-2.54a10.07,10.07,0,0,1,3.11.6,7.46,7.46,0,0,1,2.67,1.68,8.12,8.12,0,0,1,1.86,2.87,11.17,11.17,0,0,1,.7,4.16,13,13,0,0,1-.7,4.39,11.93,11.93,0,0,1-1.86,3.42,11.41,11.41,0,0,1-2.67,2.46,12.35,12.35,0,0,1-3.11,1.49Z"/><path class="cls-4" d="M61.3,397.81v-2.53l2.7,0.43c0-2.58,0-3.86,0-6.44l-2.72-.43v-2.53L64,386.74V386.1a3.87,3.87,0,0,1,.38-1.8,3,3,0,0,1,1-1.13,3.42,3.42,0,0,1,1.43-.52,5.73,5.73,0,0,1,1.68,0,11.56,11.56,0,0,1,2.6.66,7.87,7.87,0,0,1,1.68.91l-0.87,2.15a12.3,12.3,0,0,0-1.13-.63,5.47,5.47,0,0,0-1.57-.45,2,2,0,0,0-1.73.3A2.21,2.21,0,0,0,67,387.2l4.8,0.74v2.53l-4.8-.74c0,2.58,0,3.86,0,6.44l4.82,0.74v2.53C67.6,398.81,65.5,398.48,61.3,397.81Z"/><path class="cls-4" d="M75.46,389.29a11.18,11.18,0,0,1,2.12-.4,11.83,11.83,0,0,1,2.85.13,6.91,6.91,0,0,1,2,.59,4.14,4.14,0,0,1,1.35,1,3.74,3.74,0,0,1,.74,1.37,5.91,5.91,0,0,1,.23,1.69q0,1.17-.08,2c-0.05.54-.08,1-0.08,1.46a10,10,0,0,0,0,1.09c0,0.21.05,0.43,0.07,0.63l1.49,0.22v2.53L82.37,401l-0.3-1.61-0.11,0a3.19,3.19,0,0,1-1.3,1,4,4,0,0,1-2.27.18,4.47,4.47,0,0,1-2.71-1.33,3.66,3.66,0,0,1-1-2.59A3.35,3.35,0,0,1,75,395.1a2.39,2.39,0,0,1,1-1,4.24,4.24,0,0,1,1.61-.42,9.24,9.24,0,0,1,2.1.09q0.41,0.06.86,0.17l1.11,0.26a2.28,2.28,0,0,0,0-.45v-0.44a1.7,1.7,0,0,0-.5-1.33,2.76,2.76,0,0,0-1.48-.6,6.65,6.65,0,0,0-2.09,0,11.76,11.76,0,0,0-1.57.36Zm3.89,9a2.52,2.52,0,0,0,1.63-.16,2.18,2.18,0,0,0,.79-0.75V396l-0.68-.2a8.19,8.19,0,0,0-1-.2,4.63,4.63,0,0,0-.86,0,2.59,2.59,0,0,0-.77.14,1.22,1.22,0,0,0-.54.37,1,1,0,0,0-.2.64,1.51,1.51,0,0,0,.37,1.06A2,2,0,0,0,79.35,398.31Z"/><path class="cls-4" d="M99.63,402.4a5.66,5.66,0,0,1-2.2.76,9.34,9.34,0,0,1-2.63,0,8.16,8.16,0,0,1-2.65-.81,6.55,6.55,0,0,1-1.95-1.51,6.3,6.3,0,0,1-1.2-2.09,7.69,7.69,0,0,1-.41-2.54,6,6,0,0,1,.48-2.51A4.43,4.43,0,0,1,90.41,392a4.87,4.87,0,0,1,2-.9A7.51,7.51,0,0,1,95,391a10.12,10.12,0,0,1,2.4.64,12.87,12.87,0,0,1,1.72.81c0,1.62,0,2.43,0,4l-2.52-.35v-2.12a6.9,6.9,0,0,0-1.42-.36,4.14,4.14,0,0,0-1.27,0A2.57,2.57,0,0,0,92,395.13a3.25,3.25,0,0,0-.31,1.5,3.85,3.85,0,0,0,.25,1.39,3.85,3.85,0,0,0,1.84,2.07,4.48,4.48,0,0,0,1.5.48,5.09,5.09,0,0,0,2.14-.07,7.33,7.33,0,0,0,1.25-.47Z"/><path class="cls-4" d="M103.53,395.06l-2.27-.31v-2.53l2.27,0.31v-2.62l3-.45c0,1.39,0,2.08,0,3.47l6,0.8v2.53l-6-.8c0,1.32,0,2,0,3.29a4.39,4.39,0,0,0,.66,2.65,2.66,2.66,0,0,0,1.86,1,3.82,3.82,0,0,0,1.12,0,3.74,3.74,0,0,0,.91-0.26,4.34,4.34,0,0,0,.73-0.41l0.61-.43,1.38,2.25a3.66,3.66,0,0,1-1,.71,7.13,7.13,0,0,1-1.26.5,7.24,7.24,0,0,1-1.41.26,6.59,6.59,0,0,1-1.44,0,5.68,5.68,0,0,1-3.86-2,7.45,7.45,0,0,1-1.29-4.74C103.53,397,103.53,396.38,103.53,395.06Z"/><path class="cls-4" d="M115.42,399.87a6.65,6.65,0,0,1,.44-2.52,4.43,4.43,0,0,1,1.24-1.75,4.52,4.52,0,0,1,1.92-.94,7,7,0,0,1,2.49-.08,7.78,7.78,0,0,1,2.58.76,6.34,6.34,0,0,1,1.92,1.47,6.07,6.07,0,0,1,1.18,2.07,7.8,7.8,0,0,1,.4,2.53,6.68,6.68,0,0,1-.44,2.52,4.45,4.45,0,0,1-1.24,1.76,4.51,4.51,0,0,1-1.91.94,7,7,0,0,1-2.49.09,7.76,7.76,0,0,1-2.58-.77,6.36,6.36,0,0,1-1.92-1.48,6.12,6.12,0,0,1-1.18-2.07A7.82,7.82,0,0,1,115.42,399.87Zm3.07,0.4a4.85,4.85,0,0,0,.21,1.43,4,4,0,0,0,.6,1.2,3.25,3.25,0,0,0,.94.87,3.16,3.16,0,0,0,1.26.43,2.61,2.61,0,0,0,2.17-.58,3.34,3.34,0,0,0,.84-2.59,4.42,4.42,0,0,0-.78-2.66,3.09,3.09,0,0,0-2.23-1.26,3.41,3.41,0,0,0-1.19,0,2,2,0,0,0-1,.51,2.62,2.62,0,0,0-.63,1A4.71,4.71,0,0,0,118.49,400.26Z"/><path class="cls-4" d="M129.27,404.84l2.85,0.35c0-2.58,0-3.86,0-6.44l-2.85-.35v-2.53l5.16,0.63,0.34,1.56h0.09a5.11,5.11,0,0,1,1.47-1.09,3.39,3.39,0,0,1,1.93-.28,3,3,0,0,1,2.17,1.27,6,6,0,0,1,.79,3.47l-2.69-.32a2.49,2.49,0,0,0-.24-1.24,1,1,0,0,0-.77-0.47,2.08,2.08,0,0,0-1.48.28,3.9,3.9,0,0,0-1,.94c0,2,0,2.94,0,4.9l5,0.59v2.53c-4.32-.51-6.49-0.77-10.81-1.3v-2.53Z"/><path class="cls-4" d="M143.5,406.54l4,0.46c0-2.58,0-3.86,0-6.44l-4-.46v-2.53l7,0.8c0,3.59,0,5.38,0,9l4.25,0.47c0,1,0,1.52,0,2.53-4.51-.49-6.77-0.75-11.27-1.27v-2.53Zm3.49-11.7a1.45,1.45,0,0,1,.53-1.16,1.86,1.86,0,0,1,1.47-.34,2.5,2.5,0,0,1,1.54.68,1.77,1.77,0,0,1,.57,1.28,1.32,1.32,0,0,1-.57,1.14,2.17,2.17,0,0,1-1.54.3,2.37,2.37,0,0,1-1.47-.64A1.73,1.73,0,0,1,147,394.84Z"/><path class="cls-4" d="M158,400a11.57,11.57,0,0,1,2.13-.48,11.87,11.87,0,0,1,2.86,0,6.73,6.73,0,0,1,2,.5,3.91,3.91,0,0,1,1.36,1,3.55,3.55,0,0,1,.75,1.34,5.8,5.8,0,0,1,.23,1.68c0,0.78,0,1.45-.08,2s-0.08,1-.08,1.46a10,10,0,0,0,0,1.09c0,0.21.05,0.43,0.07,0.63l1.49,0.15v2.53l-3.86-.4-0.3-1.6h-0.11a3.4,3.4,0,0,1-1.3,1.09,4.11,4.11,0,0,1-2.28.28,4.29,4.29,0,0,1-2.72-1.21,3.5,3.5,0,0,1-1-2.55,3.42,3.42,0,0,1,.35-1.63,2.54,2.54,0,0,1,1-1,4.41,4.41,0,0,1,1.62-.49,9.3,9.3,0,0,1,2.11,0q0.41,0,.87.14l1.12,0.21a2.3,2.3,0,0,0,0-.46v-0.44a1.63,1.63,0,0,0-.5-1.31,2.67,2.67,0,0,0-1.48-.54,6.71,6.71,0,0,0-2.1.08,12.27,12.27,0,0,0-1.57.43Zm3.91,8.86a2.58,2.58,0,0,0,1.64-.23,2.32,2.32,0,0,0,.8-0.78v-1.38l-0.68-.17a8.06,8.06,0,0,0-1-.16,4.68,4.68,0,0,0-.86,0,2.67,2.67,0,0,0-.77.17,1.29,1.29,0,0,0-.55.39,1,1,0,0,0-.2.65,1.45,1.45,0,0,0,.37,1A1.94,1.94,0,0,0,161.9,408.83Z"/><path class="cls-4" d="M171.71,396l4.9,0.49c0,4.25,0,6.38,0,10.63a5.2,5.2,0,0,0,.44,2.5,1.72,1.72,0,0,0,1.4.83,3.77,3.77,0,0,0,1.17,0,4,4,0,0,0,.92-0.34l1.13,2.18q-0.39.22-.78,0.4a4.58,4.58,0,0,1-.83.29,5.3,5.3,0,0,1-1,.14,7.53,7.53,0,0,1-1.16,0,4.78,4.78,0,0,1-3.24-1.42,4.68,4.68,0,0,1-1.08-3.24c0-3.86,0-5.8,0-9.66l-1.91-.19V396Z"/><path class="cls-4" d="M185.29,416.13c4.08,0.38,6.13.57,10.21,0.93,0,1,0,1.48,0,2.46-4.09-.36-6.13-0.55-10.21-0.93v-2.46Z"/><path class="cls-4" d="M197.3,398.44l4.65,0.4c0,2.35,0,3.53,0,5.89H202a3.45,3.45,0,0,1,1.47-1,4.82,4.82,0,0,1,2.16-.26,5.63,5.63,0,0,1,1.61.36,3.4,3.4,0,0,1,1.27.86,4,4,0,0,1,.83,1.5,7.49,7.49,0,0,1,.3,2.27c0,2.86,0,4.29,0,7.15l-3-.25c0-2.61,0-3.92,0-6.53a3,3,0,0,0-.6-2.07,2.27,2.27,0,0,0-1.57-.75,2.44,2.44,0,0,0-1.56.39,2.49,2.49,0,0,0-1,1.24c0,2.93,0,4.4,0,7.34l-3-.26c0-5.43,0-8.14,0-13.57L197.3,401v-2.53Z"/><path class="cls-4" d="M223.4,415.43a3.71,3.71,0,0,1-.77.48,6.89,6.89,0,0,1-1.11.41,8.1,8.1,0,0,1-1.39.26,8.78,8.78,0,0,1-1.61,0,8.16,8.16,0,0,1-2.64-.62,5.76,5.76,0,0,1-3.2-3.37,7.37,7.37,0,0,1-.43-2.58,6.47,6.47,0,0,1,.48-2.62,4.76,4.76,0,0,1,1.32-1.79,5,5,0,0,1,2-1,7.43,7.43,0,0,1,2.44-.19,7.84,7.84,0,0,1,1.81.37,5.42,5.42,0,0,1,1.72.92,4.75,4.75,0,0,1,1.28,1.6,5.36,5.36,0,0,1,.49,2.43,10.68,10.68,0,0,1-.23,2.12l-8.29-.63a2.81,2.81,0,0,0,.31,1.27,2.75,2.75,0,0,0,.76.89,3.59,3.59,0,0,0,1.08.56,5.58,5.58,0,0,0,1.3.25,6.56,6.56,0,0,0,2.27-.15,4.39,4.39,0,0,0,1.44-.67Zm-5-8.59a3.7,3.7,0,0,0-1.13.08,2.88,2.88,0,0,0-1,.41,2.35,2.35,0,0,0-.7.73,2.27,2.27,0,0,0-.32,1l5.66,0.44A2.48,2.48,0,0,0,218.43,406.85Z"/><path class="cls-4" d="M226.92,400.81l4.9,0.35c0,4.25,0,6.38,0,10.63a5.11,5.11,0,0,0,.44,2.49,1.66,1.66,0,0,0,1.41.79,3.79,3.79,0,0,0,1.17-.07,4.16,4.16,0,0,0,.92-0.36l1.13,2.15q-0.39.23-.78,0.42a4.73,4.73,0,0,1-.83.31,5.39,5.39,0,0,1-1,.16,7.5,7.5,0,0,1-1.16,0,4.66,4.66,0,0,1-3.25-1.33,4.56,4.56,0,0,1-1.08-3.21c0-3.86,0-5.8,0-9.66l-1.91-.14v-2.53Z"/><path class="cls-4" d="M238.73,406.23l3.92,0.26,0.35,1.4h0.09a4.14,4.14,0,0,1,3.87-1.46,5.71,5.71,0,0,1,1.95.45,4.15,4.15,0,0,1,1.52,1.14,5.31,5.31,0,0,1,1,1.85,8.81,8.81,0,0,1,.35,2.62,8.21,8.21,0,0,1-.39,2.63,5.22,5.22,0,0,1-1.13,1.94,4.44,4.44,0,0,1-1.8,1.15,6.12,6.12,0,0,1-2.42.29,9.69,9.69,0,0,1-1.4-.19,4.11,4.11,0,0,1-1.15-.41c0,1.89,0,2.83,0,4.71l-3-.19c0-5.43,0-8.14,0-13.57l-1.73-.11C238.73,407.75,238.73,407.25,238.73,406.23Zm7.33,2.68a2.92,2.92,0,0,0-1.6.33,2.08,2.08,0,0,0-1,1.25c0,1.91,0,2.87,0,4.78a2.65,2.65,0,0,0,.93.46,5.29,5.29,0,0,0,1.23.23,3.14,3.14,0,0,0,1.2-.14,2.25,2.25,0,0,0,1-.64,3.16,3.16,0,0,0,.64-1.18,5.83,5.83,0,0,0,.23-1.76,3.59,3.59,0,0,0-.74-2.39A2.56,2.56,0,0,0,246.06,408.92Z"/><path class="cls-4" d="M264.86,418.08a3.8,3.8,0,0,1-.77.5A7.06,7.06,0,0,1,263,419a8.21,8.21,0,0,1-1.39.29,8.82,8.82,0,0,1-1.61,0,8.07,8.07,0,0,1-2.64-.56,5.6,5.6,0,0,1-3.2-3.3,7.29,7.29,0,0,1-.43-2.57,6.54,6.54,0,0,1,.48-2.63,4.9,4.9,0,0,1,1.32-1.82,5.16,5.16,0,0,1,2-1,7.48,7.48,0,0,1,2.44-.24,7.74,7.74,0,0,1,1.81.33,5.28,5.28,0,0,1,1.72.89,4.61,4.61,0,0,1,1.28,1.58,5.28,5.28,0,0,1,.5,2.42,10.75,10.75,0,0,1-.23,2.13l-8.3-.46a2.77,2.77,0,0,0,.31,1.26,2.67,2.67,0,0,0,.76.87,3.5,3.5,0,0,0,1.08.53,5.54,5.54,0,0,0,1.3.22,6.6,6.6,0,0,0,2.27-.2,4.5,4.5,0,0,0,1.44-.7Zm-5-8.48a3.73,3.73,0,0,0-1.13.1,3,3,0,0,0-1,.43,2.41,2.41,0,0,0-.7.75,2.29,2.29,0,0,0-.32,1l5.67,0.32A2.42,2.42,0,0,0,259.88,409.6Z"/><path class="cls-4" d="M267.28,416.9l2.86,0.15c0-2.58,0-3.86,0-6.44l-2.86-.15c0-1,0-1.52,0-2.53l5.19,0.26,0.35,1.53h0.09a5.69,5.69,0,0,1,1.48-1.19,3.54,3.54,0,0,1,1.94-.41,2.76,2.76,0,0,1,2.18,1.11,5.74,5.74,0,0,1,.79,3.42l-2.7-.13a2.37,2.37,0,0,0-.24-1.22,0.9,0.9,0,0,0-.77-0.42,2.2,2.2,0,0,0-1.49.39,4.34,4.34,0,0,0-1,1c0,2,0,2.94,0,4.9l5,0.24c0,1,0,1.52,0,2.53-4.34-.2-6.51-0.31-10.86-0.54C267.28,418.42,267.28,417.91,267.28,416.9Z"/><path class="cls-4" d="M290.7,425.39a11.08,11.08,0,0,1-3.14-1.14,9.72,9.72,0,0,1-2.7-2.16,10.3,10.3,0,0,1-1.88-3.21,12.2,12.2,0,0,1-.7-4.31,11.71,11.71,0,0,1,.7-4.24,9.44,9.44,0,0,1,1.88-3.08,8.79,8.79,0,0,1,2.7-2,11.06,11.06,0,0,1,3.14-1l0.55,2.48a9.3,9.3,0,0,0-1.83.58,6.32,6.32,0,0,0-1.95,1.32,7.28,7.28,0,0,0-1.56,2.34,9.12,9.12,0,0,0-.63,3.65,8.68,8.68,0,0,0,.67,3.59,8.36,8.36,0,0,0,1.63,2.45,7.6,7.6,0,0,0,2,1.48,8.18,8.18,0,0,0,1.71.68Z"/><path class="cls-4" d="M296.49,418.2l3.53,0.13c0-4,0-6,0-10.05l-3,2.21-1.38-1.89,5.26-3.81,2,0.07c0,5.43,0,8.14,0,13.57l3.46,0.11v2.53l-9.85-.34C296.49,419.72,296.49,419.22,296.49,418.2Z"/><path class="cls-4" d="M312.91,419.81a1.53,1.53,0,0,1,.52-1.23,1.85,1.85,0,0,1,1.3-.42,2.35,2.35,0,0,1,1.91.88,3.3,3.3,0,0,1,.65,2.06,4.27,4.27,0,0,1-.4,1.88,4.79,4.79,0,0,1-1,1.44,5.44,5.44,0,0,1-1.44,1,5.71,5.71,0,0,1-1.58.48l-0.62-1.28a6.54,6.54,0,0,0,1.12-.36,4.35,4.35,0,0,0,1-.6,3.41,3.41,0,0,0,.77-0.86,2.38,2.38,0,0,0,.36-1.09,2.94,2.94,0,0,1-1.18,0,1.84,1.84,0,0,1-.8-0.39,1.57,1.57,0,0,1-.45-0.66A2.39,2.39,0,0,1,312.91,419.81Z"/><path class="cls-4" d="M324.17,419l3.53,0.08V409.07l-3,2.26-1.38-1.87,5.26-3.88,2,0c0,5.43,0,8.14,0,13.57l3.46,0.07v2.53l-9.85-.2C324.17,420.56,324.17,420.05,324.17,419Z"/><path class="cls-4" d="M338,419.31l3.53,0.05V409.32l-3,2.28-1.38-1.86,5.26-3.92,2,0v13.57l3.46,0V422l-9.85-.13v-2.53Z"/><path class="cls-4" d="M352.17,424.39a7.84,7.84,0,0,0,1.71-.59,7.14,7.14,0,0,0,2-1.39,7.81,7.81,0,0,0,1.63-2.37,8.45,8.45,0,0,0,.67-3.56,9.36,9.36,0,0,0-.63-3.68,7.79,7.79,0,0,0-1.56-2.42A6.78,6.78,0,0,0,354,409a9.75,9.75,0,0,0-1.83-.67l0.55-2.46a11.58,11.58,0,0,1,3.14,1.11,9.45,9.45,0,0,1,2.7,2.11,10.06,10.06,0,0,1,1.88,3.17,13.33,13.33,0,0,1,0,8.54,9.67,9.67,0,0,1-1.88,3.12,9.08,9.08,0,0,1-2.7,2,10.63,10.63,0,0,1-3.14,1Z"/><path class="cls-4" d="M516.31,414.13l2.85-.21c0-2.58,0-3.86,0-6.44l-2.85.21v-2.53l5.18-.39,0.35,1.49h0.09a6.84,6.84,0,0,1,1.47-1.38,3.88,3.88,0,0,1,1.93-.66,2.42,2.42,0,0,1,2.18.84,5.26,5.26,0,0,1,.79,3.32l-2.69.21a2.2,2.2,0,0,0-.24-1.19,0.78,0.78,0,0,0-.77-0.32,2.44,2.44,0,0,0-1.48.58,5.22,5.22,0,0,0-1,1.13v4.9l5-.39c0,1,0,1.52,0,2.53-4.34.35-6.5,0.51-10.84,0.84v-2.53Z"/><path class="cls-4" d="M541.51,413.41a4.65,4.65,0,0,1-.77.61,8.27,8.27,0,0,1-1.1.59,9.33,9.33,0,0,1-3,.76,7.57,7.57,0,0,1-2.63-.19,4.6,4.6,0,0,1-3.2-2.85,6.82,6.82,0,0,1-.43-2.51,7,7,0,0,1,.48-2.7,6,6,0,0,1,1.32-2,6.18,6.18,0,0,1,2-1.3,8,8,0,0,1,2.44-.59,7.4,7.4,0,0,1,1.81.08,4.51,4.51,0,0,1,1.71.65,3.75,3.75,0,0,1,1.28,1.4,4.86,4.86,0,0,1,.5,2.35,11.25,11.25,0,0,1-.23,2.16l-8.28.71a2.51,2.51,0,0,0,.31,1.22,2.16,2.16,0,0,0,.76.76,3,3,0,0,0,1.08.38,5.31,5.31,0,0,0,1.3,0,7,7,0,0,0,2.27-.51,5.37,5.37,0,0,0,1.44-.91Zm-5-7.78a4,4,0,0,0-1.13.26,3.51,3.51,0,0,0-1,.56,3,3,0,0,0-.7.84,2.58,2.58,0,0,0-.32,1.08l5.66-.48A2.07,2.07,0,0,0,536.54,405.62Z"/><path class="cls-4" d="M555.59,412.24a7.39,7.39,0,0,1-2.21,1.28,10.14,10.14,0,0,1-2.64.6,7.25,7.25,0,0,1-2.66-.19,4.8,4.8,0,0,1-2-1.05,4.62,4.62,0,0,1-1.21-1.81A7.39,7.39,0,0,1,545,406a6.15,6.15,0,0,1,1.35-2,6.55,6.55,0,0,1,2-1.37,8.3,8.3,0,0,1,2.55-.64,9.26,9.26,0,0,1,2.41.08,10.47,10.47,0,0,1,1.73.41c0,1.62,0,2.43,0,4l-2.53.24v-2.12a6.36,6.36,0,0,0-1.43,0,4.54,4.54,0,0,0-1.28.31,3.51,3.51,0,0,0-1.13.72,3.61,3.61,0,0,0-1.12,2.71,3.39,3.39,0,0,0,.25,1.33,2.78,2.78,0,0,0,1.85,1.64,4,4,0,0,0,1.51.13,5.68,5.68,0,0,0,2.15-.57,9.78,9.78,0,0,0,1.25-.76Z"/><path class="cls-4" d="M564.42,401l4.28-.43c0,3.2,0,4.8,0,8v1l1.75-.18v2.53l-3.63.37-0.53-1.65h-0.09a4.7,4.7,0,0,1-1.59,1.61,5.22,5.22,0,0,1-2.35.81,5.1,5.1,0,0,1-1.6-.07,2.55,2.55,0,0,1-1.23-.64,3.12,3.12,0,0,1-.78-1.35,7.5,7.5,0,0,1-.28-2.23v-4.62l-1.31.13c0-1,0-1.52,0-2.53l4.3-.41c0,2.61,0,3.92,0,6.53a3.31,3.31,0,0,0,.45,2,1.48,1.48,0,0,0,1.41.48,2.74,2.74,0,0,0,1.53-.66,3.12,3.12,0,0,0,1-1.34v-4.9l-1.29.13C564.42,402.51,564.42,402,564.42,401Z"/><path class="cls-4" d="M571.52,409.24l2.85-.29v-6.44l-2.85.29v-2.53l5.17-.54,0.34,1.48h0.09a7.12,7.12,0,0,1,1.47-1.42,4,4,0,0,1,1.93-.71,2.35,2.35,0,0,1,2.17.78,5.17,5.17,0,0,1,.79,3.29l-2.69.29a2.17,2.17,0,0,0-.24-1.18,0.76,0.76,0,0,0-.77-0.3,2.51,2.51,0,0,0-1.48.62,5.45,5.45,0,0,0-1,1.16v4.9l5-.53c0,1,0,1.52,0,2.53-4.33.47-6.49,0.7-10.82,1.14v-2.53Z"/><path class="cls-4" d="M594.85,414.11a9.73,9.73,0,0,1-3.12-.66,7.79,7.79,0,0,1-2.69-1.75,8.4,8.4,0,0,1-1.87-2.92,11.36,11.36,0,0,1-.7-4.2,12.66,12.66,0,0,1,.7-4.34,11.53,11.53,0,0,1,1.87-3.37,11,11,0,0,1,2.69-2.4,12.82,12.82,0,0,1,3.12-1.44l0.55,2.4a10.8,10.8,0,0,0-1.82.87,7.84,7.84,0,0,0-1.94,1.62,9,9,0,0,0-1.55,2.58,9.9,9.9,0,0,0-.63,3.75,8,8,0,0,0,.67,3.49,6.74,6.74,0,0,0,1.62,2.2,6.12,6.12,0,0,0,2,1.18,7.14,7.14,0,0,0,1.7.42Z"/><path class="cls-4" d="M600.62,406l3.51-.42c0-4,0-6,0-10.05l-3,2.68-1.38-1.68L605,392l2-.24c0,5.43,0,8.14,0,13.57l3.44-.42v2.53c-3.92.48-5.88,0.72-9.8,1.18V406Z"/><path class="cls-4" d="M614.38,404.37l3.51-.44c0-4,0-6,0-10.05l-3,2.7-1.38-1.67,5.23-4.66,2-.26c0,5.43,0,8.14,0,13.57l3.44-.44c0,1,0,1.52,0,2.53l-9.79,1.25v-2.53Z"/><path class="cls-4" d="M630.71,403.32a1.81,1.81,0,0,1,.52-1.31,2.16,2.16,0,0,1,1.3-.63,2,2,0,0,1,1.9.57,2.89,2.89,0,0,1,.64,2,4.73,4.73,0,0,1-.4,1.94,6,6,0,0,1-1,1.61,6.83,6.83,0,0,1-1.43,1.21,6.64,6.64,0,0,1-1.57.74L630,408.22a7.66,7.66,0,0,0,1.11-.54,5.43,5.43,0,0,0,1-.77,4.34,4.34,0,0,0,.77-1,2.74,2.74,0,0,0,.36-1.15,3,3,0,0,1-1.17.19,1.54,1.54,0,0,1-.79-0.26,1.25,1.25,0,0,1-.45-0.58A2.21,2.21,0,0,1,630.71,403.32Z"/><path class="cls-4" d="M641.89,400.74l3.5-.49c0-4,0-6,0-10.05l-3,2.75L641,391.29l5.22-4.73,2-.29c0,5.43,0,8.14,0,13.57l3.43-.49v2.53c-3.91.56-5.87,0.84-9.78,1.39C641.89,402.25,641.89,401.75,641.89,400.74Z"/><path class="cls-4" d="M654.07,393.46a14.54,14.54,0,0,1,.44-3.73,8.93,8.93,0,0,1,1.23-2.79,6.32,6.32,0,0,1,1.9-1.83,6.43,6.43,0,0,1,2.46-.88,4.61,4.61,0,0,1,4.46,1.37q1.56,1.8,1.56,6.08a14.64,14.64,0,0,1-.44,3.76,9.13,9.13,0,0,1-1.23,2.81,6.26,6.26,0,0,1-1.91,1.85,6.49,6.49,0,0,1-2.47.89,4.45,4.45,0,0,1-4.46-1.49Q654.07,397.55,654.07,393.46Zm3-.44c0,0.23,0,.45,0,0.65s0,0.42,0,.63l5.54-6a2.16,2.16,0,0,0-2.56-1.59,3,3,0,0,0-2.24,1.75A10.22,10.22,0,0,0,657,393Zm6.09-.9q0-.37,0-0.7t0-.65l-5.56,6a2.2,2.2,0,0,0,2.57,1.71,3,3,0,0,0,2.25-1.74A10.25,10.25,0,0,0,663.13,392.12Z"/><path class="cls-4" d="M669.67,401.57a9.21,9.21,0,0,0,1.69-.87,8.92,8.92,0,0,0,2-1.71,9.75,9.75,0,0,0,1.61-2.63,9.3,9.3,0,0,0,.66-3.67,8.67,8.67,0,0,0-.63-3.58,6.23,6.23,0,0,0-1.54-2.16,5.41,5.41,0,0,0-1.93-1.1,8.45,8.45,0,0,0-1.82-.38l0.55-2.54a10.07,10.07,0,0,1,3.11.6A7.46,7.46,0,0,1,676,385.2a8.13,8.13,0,0,1,1.86,2.87,11.17,11.17,0,0,1,.7,4.16,13,13,0,0,1-.7,4.39A11.93,11.93,0,0,1,676,400a11.41,11.41,0,0,1-2.67,2.46,12.35,12.35,0,0,1-3.11,1.49Z"/></svg>