<svg id="Layer_1" data-name="Layer 1" xmlns="http://www.w3.org/2000/svg" viewBox="0 0 720 576"><defs><style>.cls-1,.cls-2,.cls-4,.cls-6{fill:#231f20;}.cls-1,.cls-3{stroke:#231f20;}.cls-1,.cls-6{stroke-miterlimit:10;}.cls-1,.cls-2,.cls-3{stroke-width:2px;}.cls-2{stroke:#000;}.cls-2,.cls-3{stroke-linecap:round;stroke-linejoin:round;}.cls-3,.cls-5{fill:#fff;}.cls-6{stroke:#fff;}</style></defs><title>Hanoi_Tower_Set_4</title><path class="cls-1" d="M656,506.49c0-.14,0-0.29,0-0.43s0-.29,0-0.43V453.84H64.18s-0.23,51.74-.23,52.22c0,2.67,2.12,5.24,6.08,7.71,13.87,8.61,50.58,16.11,101.74,21.48S288.5,543.84,360,543.84c81.71,0,155.68-4.21,209.24-11,26.78-3.41,48.45-7.46,63.44-12,7.5-2.25,13.32-4.62,17.29-7.08,3.38-2.1,5.41-4.29,5.94-6.55H656v-0.73Z"/><ellipse class="cls-2" cx="360" cy="454.92" rx="295.87" ry="37.63"/><path class="cls-3" d="M656,455c0-.14,0-0.29,0-0.43s0-.29,0-0.43V402.36H64.18s-0.23,51.74-.23,52.22c0,2.67,2.12,5.24,6.08,7.71,13.87,8.61,50.58,16.11,101.74,21.48S288.5,492.36,360,492.36c81.71,0,155.68-4.21,209.24-11,26.78-3.41,48.45-7.46,63.44-12,7.5-2.25,13.32-4.62,17.29-7.08,3.38-2.1,5.41-4.29,5.94-6.55H656V455Z"/><ellipse class="cls-3" cx="360" cy="403.44" rx="295.87" ry="37.63"/><path class="cls-3" d="M656,403.53c0-.14,0-0.29,0-0.43s0-.29,0-0.43V350.88H64.18s-0.23,51.74-.23,52.22c0,2.67,2.12,5.24,6.08,7.71,13.87,8.61,50.58,16.11,101.74,21.48S288.5,440.88,360,440.88c81.71,0,155.68-4.21,209.24-11,26.78-3.41,48.45-7.46,63.44-12,7.5-2.25,13.32-4.62,17.29-7.08,3.38-2.1,5.41-4.29,5.94-6.55H656v-0.73Z"/><ellipse class="cls-3" cx="360" cy="351.97" rx="295.87" ry="37.63"/><path class="cls-4" d="M360,360.83c-16,0-29-3.75-30.2-8.61h-0.08l0-.5V8.27h60.63V352.21H390.2C389,357.08,376,360.83,360,360.83Z"/><path class="cls-5" d="M389.82,8.77V351.71h0c-0.49,4.78-13.63,8.61-29.79,8.61s-29.3-3.83-29.79-8.61h0V351.5s0,0,0-.06,0,0,0-.06V8.77h59.63m1-1H329.19V351.33s0,0.07,0,.11v1.27h0.23c2,5.6,16.84,8.61,30.58,8.61s28.6-3,30.58-8.61h0.21l0-1V7.77h0Z"/><ellipse class="cls-6" cx="359.99" cy="8.89" rx="29.81" ry="8.89"/><path d="M103,401.78v-2.31l2.46,0.47v-5.88l-2.48-.47v-2.31l2.48,0.47v-0.59a3.48,3.48,0,0,1,.34-1.64,2.6,2.6,0,0,1,.91-1,3,3,0,0,1,1.3-.44,5.2,5.2,0,0,1,1.53.06,10.78,10.78,0,0,1,2.36.68,7.5,7.5,0,0,1,1.53.88l-0.79,1.93a11.89,11.89,0,0,0-1-.61,5.08,5.08,0,0,0-1.43-.45,1.77,1.77,0,0,0-1.57.22,2,2,0,0,0-.45,1.46l4.37,0.81v2.31l-4.37-.81v5.88l4.39,0.81v2.31C108.76,402.86,106.85,402.51,103,401.78Z"/><path d="M115.92,394.39a10,10,0,0,1,1.93-.3,10.77,10.77,0,0,1,2.6.19,6.43,6.43,0,0,1,1.85.59,3.94,3.94,0,0,1,1.23,1,3.54,3.54,0,0,1,.68,1.27,5.48,5.48,0,0,1,.21,1.55q0,1.07-.07,1.81t-0.07,1.33a9.31,9.31,0,0,0,0,1c0,0.2,0,.39.06,0.58l1.36,0.24v2.31l-3.5-.61-0.27-1.48-0.1,0a2.79,2.79,0,0,1-1.18.91,3.63,3.63,0,0,1-2.07.1,4.22,4.22,0,0,1-2.47-1.28,3.44,3.44,0,0,1-.91-2.39,3,3,0,0,1,.32-1.46,2.09,2.09,0,0,1,.93-0.88,3.78,3.78,0,0,1,1.47-.34,8.47,8.47,0,0,1,1.92.14c0.25,0,.51.11,0.79,0.18l1,0.26a2.08,2.08,0,0,0,0-.41v-0.4a1.6,1.6,0,0,0-.46-1.23,2.59,2.59,0,0,0-1.35-.59,6.05,6.05,0,0,0-1.9-.07,10.49,10.49,0,0,0-1.43.29Zm3.55,8.34a2.27,2.27,0,0,0,1.48-.1,1.9,1.9,0,0,0,.72-0.66v-1.26l-0.62-.2a7.81,7.81,0,0,0-.89-0.21,4.26,4.26,0,0,0-.78-0.07,2.3,2.3,0,0,0-.7.11,1.08,1.08,0,0,0-.49.32,0.86,0.86,0,0,0-.19.58,1.42,1.42,0,0,0,.34,1A1.9,1.9,0,0,0,119.47,402.73Z"/><path d="M137.95,407a5,5,0,0,1-2,.65,8.49,8.49,0,0,1-2.4-.07,7.57,7.57,0,0,1-2.41-.81,6.2,6.2,0,0,1-1.77-1.42,6,6,0,0,1-1.1-1.94,7.13,7.13,0,0,1-.38-2.33,5.42,5.42,0,0,1,.44-2.28,3.88,3.88,0,0,1,1.22-1.53,4.31,4.31,0,0,1,1.85-.77,6.85,6.85,0,0,1,2.32,0,9.41,9.41,0,0,1,2.19.64,12.14,12.14,0,0,1,1.57.78v3.7l-2.3-.38v-1.93a6.45,6.45,0,0,0-1.29-.36,3.75,3.75,0,0,0-1.16,0,2.26,2.26,0,0,0-1.75,1.25,2.93,2.93,0,0,0-.28,1.36,3.57,3.57,0,0,0,.23,1.28,3.68,3.68,0,0,0,.65,1.1,3.74,3.74,0,0,0,1,.84,4.18,4.18,0,0,0,1.37.47,4.62,4.62,0,0,0,2,0,6.49,6.49,0,0,0,1.14-.4Z"/><path d="M141.5,400.36l-2.07-.34v-2.31L141.5,398v-2.39l2.72-.34v3.17l5.48,0.86v2.31l-5.48-.86c0,1.2,0,1.8,0,3a4.08,4.08,0,0,0,.61,2.44,2.49,2.49,0,0,0,1.69,1,3.46,3.46,0,0,0,1,0,3.32,3.32,0,0,0,.83-0.22,3.86,3.86,0,0,0,.67-0.36l0.55-.38,1.25,2.08a3.23,3.23,0,0,1-.89.63,6.28,6.28,0,0,1-1.15.43,6.47,6.47,0,0,1-1.29.21,6,6,0,0,1-1.32-.06,5.32,5.32,0,0,1-3.52-1.87,6.93,6.93,0,0,1-1.18-4.36v-3Z"/><path d="M152.35,405a6,6,0,0,1,.4-2.29,3.91,3.91,0,0,1,1.13-1.57,4,4,0,0,1,1.75-.82,6.42,6.42,0,0,1,2.27,0,7.22,7.22,0,0,1,2.35.75,6,6,0,0,1,1.75,1.38,5.72,5.72,0,0,1,1.08,1.91,7.2,7.2,0,0,1,.37,2.32A6,6,0,0,1,163,409a4,4,0,0,1-1.13,1.58,4,4,0,0,1-1.75.83,6.37,6.37,0,0,1-2.27,0,7.17,7.17,0,0,1-2.35-.75,6,6,0,0,1-1.75-1.39,5.75,5.75,0,0,1-1.08-1.92A7.22,7.22,0,0,1,152.35,405Zm2.8,0.43a4.46,4.46,0,0,0,.19,1.31,3.77,3.77,0,0,0,.54,1.11,3,3,0,0,0,.86.81,2.94,2.94,0,0,0,1.15.41,2.34,2.34,0,0,0,2-.48,3,3,0,0,0,.76-2.34,4.11,4.11,0,0,0-.71-2.45,2.9,2.9,0,0,0-2-1.19,3.12,3.12,0,0,0-1.09,0,1.76,1.76,0,0,0-.87.45,2.32,2.32,0,0,0-.58.92A4.26,4.26,0,0,0,155.15,405.43Z"/><path d="M165,409.82l2.6,0.37v-5.88l-2.6-.37v-2.31l4.71,0.67,0.31,1.43h0.08a4.53,4.53,0,0,1,1.34-1,3.06,3.06,0,0,1,1.76-.22,2.79,2.79,0,0,1,2,1.2,5.58,5.58,0,0,1,.72,3.18l-2.45-.33a2.3,2.3,0,0,0-.22-1.13,0.91,0.91,0,0,0-.7-0.44,1.88,1.88,0,0,0-1.35.23,3.46,3.46,0,0,0-.87.84v4.47l4.55,0.63v2.31c-3.95-.54-5.92-0.81-9.86-1.38v-2.31Z"/><path d="M178,411.62l3.69,0.49v-5.88l-3.69-.49v-2.31l6.41,0.84v8.19l3.88,0.5v2.31c-4.12-.52-6.18-0.79-10.29-1.34v-2.31ZM181.15,401a1.29,1.29,0,0,1,.48-1,1.69,1.69,0,0,1,1.34-.29,2.33,2.33,0,0,1,1.4.64,1.64,1.64,0,0,1,.52,1.18,1.18,1.18,0,0,1-.52,1,2,2,0,0,1-1.4.25,2.2,2.2,0,0,1-1.34-.61A1.61,1.61,0,0,1,181.15,401Z"/><path d="M191.2,405.85a10.45,10.45,0,0,1,1.94-.41,10.83,10.83,0,0,1,2.61,0,6.21,6.21,0,0,1,1.86.49,3.66,3.66,0,0,1,1.24.89,3.3,3.3,0,0,1,.68,1.24,5.33,5.33,0,0,1,.21,1.54q0,1.07-.07,1.82t-0.07,1.34a9.18,9.18,0,0,0,0,1c0,0.19,0,.39.06,0.57l1.36,0.16v2.31l-3.52-.42-0.28-1.46h-0.1a3,3,0,0,1-1.19,1,3.73,3.73,0,0,1-2.08.22A4,4,0,0,1,191.4,415a3.25,3.25,0,0,1-.92-2.34,3.1,3.1,0,0,1,.32-1.48,2.27,2.27,0,0,1,.94-0.93,4,4,0,0,1,1.48-.43,8.52,8.52,0,0,1,1.93,0c0.25,0,.51.08,0.79,0.14l1,0.21a2.1,2.1,0,0,0,0-.41v-0.4a1.51,1.51,0,0,0-.46-1.2,2.47,2.47,0,0,0-1.35-.51,6.12,6.12,0,0,0-1.92,0,11,11,0,0,0-1.44.37Zm3.57,8.15a2.34,2.34,0,0,0,1.49-.19,2.07,2.07,0,0,0,.73-0.7v-1.26l-0.62-.17a7.63,7.63,0,0,0-.89-0.16,4.27,4.27,0,0,0-.79,0,2.39,2.39,0,0,0-.7.14,1.17,1.17,0,0,0-.5.35,0.9,0.9,0,0,0-.19.59,1.34,1.34,0,0,0,.34,1A1.8,1.8,0,0,0,194.77,414Z"/><path d="M203.72,402.43l4.47,0.51v9.7a4.78,4.78,0,0,0,.4,2.29,1.59,1.59,0,0,0,1.28.77,3.43,3.43,0,0,0,1.07,0,3.63,3.63,0,0,0,.84-0.3l1,2q-0.36.19-.71,0.35a4.13,4.13,0,0,1-.76.25,4.91,4.91,0,0,1-.87.11,6.9,6.9,0,0,1-1.06,0,4.43,4.43,0,0,1-3-1.34,4.32,4.32,0,0,1-1-3v-8.82l-1.74-.2v-2.31Z"/><path d="M216.13,421c3.73,0.39,5.6.58,9.33,1v2.25c-3.73-.37-5.6-0.56-9.33-1V421Z"/><path d="M227.1,404.91l4.25,0.41v5.38h0.08a3.11,3.11,0,0,1,1.35-.94,4.38,4.38,0,0,1,2-.22,5.2,5.2,0,0,1,1.47.34,3.14,3.14,0,0,1,1.16.8,3.66,3.66,0,0,1,.76,1.38,6.86,6.86,0,0,1,.27,2.07v6.53l-2.73-.25v-6a2.8,2.8,0,0,0-.55-1.9,2.09,2.09,0,0,0-1.43-.7,2.22,2.22,0,0,0-1.43.34,2.25,2.25,0,0,0-.92,1.12V420l-2.73-.26V407.37l-1.51-.15v-2.31Z"/><path d="M250.95,420.61a3.35,3.35,0,0,1-.7.44,6.27,6.27,0,0,1-1,.37,7.43,7.43,0,0,1-1.27.23,8.12,8.12,0,0,1-1.47,0,7.48,7.48,0,0,1-2.41-.58,5.31,5.31,0,0,1-2.92-3.1,6.74,6.74,0,0,1-.39-2.35,5.88,5.88,0,0,1,.44-2.39,4.3,4.3,0,0,1,1.21-1.63,4.55,4.55,0,0,1,1.8-.89,6.78,6.78,0,0,1,2.23-.16,7.24,7.24,0,0,1,1.65.35,5,5,0,0,1,1.57.85,4.38,4.38,0,0,1,1.17,1.47,4.91,4.91,0,0,1,.45,2.22,9.73,9.73,0,0,1-.21,1.94l-7.57-.62a2.46,2.46,0,0,0,1,2,3.3,3.3,0,0,0,1,.51,5.16,5.16,0,0,0,1.19.24,6,6,0,0,0,2.07-.12,4,4,0,0,0,1.32-.61Zm-4.54-7.87a3.4,3.4,0,0,0-1,.06,2.62,2.62,0,0,0-.87.36,2.12,2.12,0,0,0-.64.66,2.06,2.06,0,0,0-.29.94l5.18,0.43a2.49,2.49,0,0,0-.58-1.71A2.52,2.52,0,0,0,246.4,412.74Z"/><path d="M254.17,407.28l4.48,0.34v9.7a4.68,4.68,0,0,0,.4,2.28,1.53,1.53,0,0,0,1.28.72,3.46,3.46,0,0,0,1.07-.06,3.77,3.77,0,0,0,.84-0.33l1,2q-0.36.21-.72,0.38a4.28,4.28,0,0,1-.76.28,5,5,0,0,1-.87.15,6.92,6.92,0,0,1-1.06,0,4.27,4.27,0,0,1-3-1.23,4.18,4.18,0,0,1-1-2.93v-8.82l-1.75-.13v-2.31Z"/><path d="M265,412.27l3.58,0.24,0.32,1.28h0.08a3.78,3.78,0,0,1,3.54-1.32,5.23,5.23,0,0,1,1.78.42,3.8,3.8,0,0,1,1.39,1,4.85,4.85,0,0,1,.89,1.69,8,8,0,0,1,.32,2.39,7.48,7.48,0,0,1-.36,2.4,4.76,4.76,0,0,1-1,1.77,4.06,4.06,0,0,1-1.64,1.05,5.57,5.57,0,0,1-2.21.26,8.74,8.74,0,0,1-1.28-.18,3.71,3.71,0,0,1-1.05-.37v4.31l-2.74-.18V414.69l-1.58-.11v-2.31Zm6.7,2.46a2.68,2.68,0,0,0-1.46.3,1.89,1.89,0,0,0-.92,1.14v4.37a2.43,2.43,0,0,0,.85.42,4.86,4.86,0,0,0,1.13.21,2.85,2.85,0,0,0,1.1-.13,2,2,0,0,0,.88-0.58,2.87,2.87,0,0,0,.59-1.08,5.31,5.31,0,0,0,.21-1.6,3.28,3.28,0,0,0-.67-2.18A2.35,2.35,0,0,0,271.66,414.73Z"/><path d="M288.85,423.11a3.49,3.49,0,0,1-.71.46,6.45,6.45,0,0,1-1,.4,7.59,7.59,0,0,1-1.27.27,8.16,8.16,0,0,1-1.48,0,7.36,7.36,0,0,1-2.41-.51,5.11,5.11,0,0,1-2.93-3,6.65,6.65,0,0,1-.39-2.34,6,6,0,0,1,.44-2.4,4.48,4.48,0,0,1,1.21-1.66,4.72,4.72,0,0,1,1.8-.94,6.87,6.87,0,0,1,2.23-.22,7.14,7.14,0,0,1,1.65.3,4.81,4.81,0,0,1,1.57.81,4.2,4.2,0,0,1,1.17,1.44,4.81,4.81,0,0,1,.45,2.21,9.84,9.84,0,0,1-.21,1.94l-7.58-.41a2.51,2.51,0,0,0,.28,1.15,2.45,2.45,0,0,0,.7.8,3.19,3.19,0,0,0,1,.49,5.11,5.11,0,0,0,1.19.2,6,6,0,0,0,2.08-.18,4.11,4.11,0,0,0,1.32-.64Zm-4.55-7.74a3.42,3.42,0,0,0-1,.09,2.7,2.7,0,0,0-.87.39,2.21,2.21,0,0,0-.64.68,2.11,2.11,0,0,0-.29.95l5.18,0.29a2.42,2.42,0,0,0-.58-1.69A2.45,2.45,0,0,0,284.3,415.37Z"/><path d="M291.07,422l2.61,0.13v-5.88l-2.61-.13v-2.31l4.74,0.23,0.32,1.4h0.08a5.2,5.2,0,0,1,1.35-1.09,3.24,3.24,0,0,1,1.77-.38,2.52,2.52,0,0,1,2,1,5.21,5.21,0,0,1,.73,3.12l-2.47-.11a2.17,2.17,0,0,0-.22-1.11,0.82,0.82,0,0,0-.71-0.38,2,2,0,0,0-1.36.36,4,4,0,0,0-.87.93v4.47l4.57,0.2c0,0.92,0,1.39,0,2.31-4-.17-6-0.26-9.93-0.46V422Z"/><path d="M312.48,429.7a10.07,10.07,0,0,1-2.87-1,8.82,8.82,0,0,1-2.47-2,9.34,9.34,0,0,1-1.72-2.92,11.11,11.11,0,0,1-.64-3.93,10.71,10.71,0,0,1,.64-3.87,8.67,8.67,0,0,1,1.72-2.82,8.11,8.11,0,0,1,2.47-1.82,10.18,10.18,0,0,1,2.87-.88l0.51,2.26a8.56,8.56,0,0,0-1.68.54,5.84,5.84,0,0,0-1.78,1.22,6.69,6.69,0,0,0-1.42,2.14,8.35,8.35,0,0,0-.58,3.34,7.91,7.91,0,0,0,.61,3.28,7.57,7.57,0,0,0,1.49,2.23,6.93,6.93,0,0,0,1.8,1.35,7.45,7.45,0,0,0,1.56.61Z"/><path d="M327.05,421.11a4.62,4.62,0,0,1-1.46,3.41,4.78,4.78,0,0,1-1.61,1,5.25,5.25,0,0,1-2,.32,6.06,6.06,0,0,1-2.06-.41,4.83,4.83,0,0,1-1.68-1.09,5.15,5.15,0,0,1-1.14-1.78,6.6,6.6,0,0,1-.42-2.45,9.36,9.36,0,0,1,.73-3.76,10,10,0,0,1,1.87-2.89,9.36,9.36,0,0,1,2.55-1.94,8.42,8.42,0,0,1,2.8-.9l0.61,2.18a8.09,8.09,0,0,0-2.09.63,7.37,7.37,0,0,0-1.73,1.1,6.64,6.64,0,0,0-1.28,1.45,5.06,5.06,0,0,0-.71,1.68,3.12,3.12,0,0,1,1.26-.86,4.55,4.55,0,0,1,1.86-.32,5.15,5.15,0,0,1,1.77.35,4.23,4.23,0,0,1,1.42.92,4.28,4.28,0,0,1,.95,1.44A5,5,0,0,1,327.05,421.11Zm-2.66,0a2.2,2.2,0,0,0-.69-1.74,2.81,2.81,0,0,0-1.85-.64,3,3,0,0,0-1.52.33,2.57,2.57,0,0,0-1,.85,3.67,3.67,0,0,0-.05.51c0,0.19,0,.34,0,0.45a2.85,2.85,0,0,0,.17,1,2.4,2.4,0,0,0,1.29,1.39,2.73,2.73,0,0,0,1.08.23,2.66,2.66,0,0,0,1.77-.62,2.35,2.35,0,0,0,.58-0.75A2.2,2.2,0,0,0,324.4,421.15Z"/><path d="M332.79,424.45a1.41,1.41,0,0,1,.47-1.12,1.71,1.71,0,0,1,1.19-.4,2.13,2.13,0,0,1,1.75.79,3,3,0,0,1,.59,1.88,3.92,3.92,0,0,1-.37,1.72,4.45,4.45,0,0,1-1,1.33,5.09,5.09,0,0,1-1.32.9,5.29,5.29,0,0,1-1.44.46l-0.57-1.17a6.06,6.06,0,0,0,1-.34,4,4,0,0,0,.94-0.56,3.15,3.15,0,0,0,.71-0.8,2.19,2.19,0,0,0,.33-1,2.68,2.68,0,0,1-1.08,0,1.66,1.66,0,0,1-.73-0.35,1.41,1.41,0,0,1-.41-0.6A2.18,2.18,0,0,1,332.79,424.45Z"/><path d="M343.08,423.65l3.23,0c0-3.67,0-5.51,0-9.18l-2.78,2.09-1.27-1.7,4.81-3.6,1.86,0c0,5,0,7.43,0,12.39l3.16,0V426c-3.6,0-5.4,0-9-.08v-2.31Z"/><path d="M356,428.22a7.18,7.18,0,0,0,1.56-.55,6.57,6.57,0,0,0,1.8-1.28,7.19,7.19,0,0,0,1.49-2.17,7.73,7.73,0,0,0,.61-3.26,8.5,8.5,0,0,0-.58-3.36,7,7,0,0,0-1.42-2.19,6.13,6.13,0,0,0-1.78-1.28,8.85,8.85,0,0,0-1.68-.6l0.51-2.25a10.52,10.52,0,0,1,2.87,1,8.55,8.55,0,0,1,2.47,1.91,9.12,9.12,0,0,1,1.72,2.88,12.14,12.14,0,0,1,0,7.8,8.92,8.92,0,0,1-1.72,2.86,8.37,8.37,0,0,1-2.47,1.87,9.75,9.75,0,0,1-2.87.92Z"/><path d="M617,397.22a5.26,5.26,0,0,1-.39,2,6.19,6.19,0,0,1-1.05,1.73,6.37,6.37,0,0,1-1.59,1.33,6,6,0,0,1-2,.75,5.59,5.59,0,0,1-2,0,3.65,3.65,0,0,1-1.66-.73,3.84,3.84,0,0,1-1.13-1.54,6,6,0,0,1-.42-2.36,10.63,10.63,0,0,1,.72-3.91,13.33,13.33,0,0,1,1.84-3.29,12.73,12.73,0,0,1,2.52-2.48,10.37,10.37,0,0,1,2.77-1.5l0.6,2a10,10,0,0,0-3.77,2.54,9,9,0,0,0-1.26,1.73,6.34,6.34,0,0,0-.7,1.83,4.2,4.2,0,0,1,1.25-1.12,5.23,5.23,0,0,1,1.83-.71,4.73,4.73,0,0,1,1.75,0,3.05,3.05,0,0,1,2.34,1.86A4.52,4.52,0,0,1,617,397.22Zm-2.62.6a1.79,1.79,0,0,0-.68-1.59,2.38,2.38,0,0,0-1.82-.25,3.54,3.54,0,0,0-1.5.66,3.49,3.49,0,0,0-1,1.06,4,4,0,0,0-.05.52c0,0.19,0,.34,0,0.45a2.58,2.58,0,0,0,.17.93,1.77,1.77,0,0,0,1.27,1.12,2.49,2.49,0,0,0,1.06,0,3,3,0,0,0,.94-0.35,3.45,3.45,0,0,0,.81-0.65,3.17,3.17,0,0,0,.57-0.87A2.54,2.54,0,0,0,614.37,397.82Z"/><path d="M95.32,450.78v-2.31l2.46,0.47v-5.88l-2.48-.47v-2.31l2.48,0.47v-0.59a3.48,3.48,0,0,1,.34-1.64,2.6,2.6,0,0,1,.91-1,3,3,0,0,1,1.3-.44,5.18,5.18,0,0,1,1.53.06,10.79,10.79,0,0,1,2.36.68,7.5,7.5,0,0,1,1.53.88L105,440.64a11.84,11.84,0,0,0-1-.61,5.07,5.07,0,0,0-1.43-.45,1.77,1.77,0,0,0-1.57.22,2,2,0,0,0-.45,1.46l4.37,0.81v2.31l-4.37-.81v5.88l4.39,0.81v2.31C101,451.87,99.14,451.51,95.32,450.78Z"/><path d="M108.21,443.39a10,10,0,0,1,1.93-.3,10.76,10.76,0,0,1,2.6.19,6.43,6.43,0,0,1,1.85.59,3.94,3.94,0,0,1,1.23,1,3.54,3.54,0,0,1,.68,1.27,5.48,5.48,0,0,1,.21,1.55q0,1.07-.07,1.81t-0.07,1.33a9.31,9.31,0,0,0,0,1c0,0.2,0,.39.06,0.58l1.36,0.24v2.31l-3.5-.61-0.27-1.48-0.1,0a2.79,2.79,0,0,1-1.18.91,3.63,3.63,0,0,1-2.07.1,4.22,4.22,0,0,1-2.47-1.28,3.44,3.44,0,0,1-.91-2.39,3,3,0,0,1,.32-1.46,2.08,2.08,0,0,1,.93-0.88,3.78,3.78,0,0,1,1.47-.34,8.47,8.47,0,0,1,1.92.14c0.25,0,.51.11,0.79,0.18l1,0.26a2.08,2.08,0,0,0,0-.41v-0.4a1.6,1.6,0,0,0-.46-1.23,2.59,2.59,0,0,0-1.35-.59,6.05,6.05,0,0,0-1.9-.07,10.49,10.49,0,0,0-1.43.29Zm3.55,8.35a2.27,2.27,0,0,0,1.48-.1A1.9,1.9,0,0,0,114,451v-1.26l-0.62-.2a7.82,7.82,0,0,0-.89-0.21,4.25,4.25,0,0,0-.78-0.07,2.3,2.3,0,0,0-.7.11,1.07,1.07,0,0,0-.49.32,0.86,0.86,0,0,0-.19.58,1.42,1.42,0,0,0,.34,1A1.9,1.9,0,0,0,111.76,451.74Z"/><path d="M130.24,456a5,5,0,0,1-2,.64,8.49,8.49,0,0,1-2.4-.08,7.58,7.58,0,0,1-2.41-.81,6.21,6.21,0,0,1-1.77-1.43,6,6,0,0,1-1.1-1.94,7.13,7.13,0,0,1-.38-2.33,5.42,5.42,0,0,1,.44-2.28,3.88,3.88,0,0,1,1.22-1.53,4.3,4.3,0,0,1,1.85-.77,6.85,6.85,0,0,1,2.32,0,9.41,9.41,0,0,1,2.19.64,12.16,12.16,0,0,1,1.57.78c0,1.48,0,2.22,0,3.7l-2.3-.38V448.3a6.45,6.45,0,0,0-1.29-.36,3.75,3.75,0,0,0-1.16,0,2.26,2.26,0,0,0-1.75,1.25,2.93,2.93,0,0,0-.28,1.36,3.57,3.57,0,0,0,.23,1.28,3.69,3.69,0,0,0,.65,1.1,3.74,3.74,0,0,0,1,.84,4.18,4.18,0,0,0,1.37.47,4.62,4.62,0,0,0,2,0,6.47,6.47,0,0,0,1.14-.4Z"/><path d="M133.79,449.38l-2.07-.34v-2.31l2.07,0.34v-2.39l2.72-.34v3.17l5.48,0.87v2.31l-5.48-.87v3a4.08,4.08,0,0,0,.61,2.44,2.5,2.5,0,0,0,1.69,1,3.48,3.48,0,0,0,1,0,3.35,3.35,0,0,0,.83-0.22,3.84,3.84,0,0,0,.67-0.36l0.55-.38,1.25,2.09a3.22,3.22,0,0,1-.89.63,6.28,6.28,0,0,1-1.15.43,6.46,6.46,0,0,1-1.29.21,6,6,0,0,1-1.32-.06,5.33,5.33,0,0,1-3.52-1.88,6.94,6.94,0,0,1-1.18-4.36v-3Z"/><path d="M144.63,454a6,6,0,0,1,.4-2.29,3.9,3.9,0,0,1,1.13-1.57,4,4,0,0,1,1.75-.82,6.42,6.42,0,0,1,2.27,0,7.23,7.23,0,0,1,2.35.75,6,6,0,0,1,1.75,1.38,5.72,5.72,0,0,1,1.08,1.91,7.2,7.2,0,0,1,.37,2.32,6,6,0,0,1-.4,2.29,3.94,3.94,0,0,1-1.13,1.58,4,4,0,0,1-1.75.82,6.36,6.36,0,0,1-2.27,0,7.17,7.17,0,0,1-2.35-.75,6,6,0,0,1-1.75-1.39,5.75,5.75,0,0,1-1.08-1.92A7.22,7.22,0,0,1,144.63,454Zm2.8,0.43a4.46,4.46,0,0,0,.19,1.31,3.78,3.78,0,0,0,.54,1.11,3.05,3.05,0,0,0,.86.81,2.94,2.94,0,0,0,1.15.42,2.34,2.34,0,0,0,2-.48,3,3,0,0,0,.76-2.34,4.11,4.11,0,0,0-.71-2.45,2.9,2.9,0,0,0-2-1.2,3.12,3.12,0,0,0-1.09,0,1.75,1.75,0,0,0-.87.45,2.31,2.31,0,0,0-.58.92A4.26,4.26,0,0,0,147.44,454.47Z"/><path d="M157.27,458.87l2.6,0.37v-5.88l-2.6-.37v-2.31l4.71,0.67,0.31,1.43h0.08a4.52,4.52,0,0,1,1.34-1,3.05,3.05,0,0,1,1.76-.22,2.79,2.79,0,0,1,2,1.2,5.58,5.58,0,0,1,.72,3.19l-2.45-.34a2.3,2.3,0,0,0-.22-1.13,0.91,0.91,0,0,0-.7-0.44,1.88,1.88,0,0,0-1.35.23,3.45,3.45,0,0,0-.87.84v4.47l4.54,0.63v2.31c-3.95-.54-5.92-0.82-9.86-1.39v-2.31Z"/><path d="M170.25,460.69l3.69,0.49V455.3l-3.69-.49V452.5l6.41,0.85c0,3.28,0,4.91,0,8.19l3.88,0.5v2.31c-4.12-.53-6.18-0.8-10.29-1.36v-2.31Zm3.19-10.62a1.29,1.29,0,0,1,.48-1,1.68,1.68,0,0,1,1.34-.28,2.34,2.34,0,0,1,1.4.65,1.65,1.65,0,0,1,.52,1.18,1.18,1.18,0,0,1-.52,1,2,2,0,0,1-1.4.25,2.21,2.21,0,0,1-1.34-.61A1.61,1.61,0,0,1,173.43,450.07Z"/><path d="M183.48,454.94a10.42,10.42,0,0,1,1.94-.41,10.82,10.82,0,0,1,2.61,0,6.22,6.22,0,0,1,1.86.49,3.67,3.67,0,0,1,1.24.89,3.31,3.31,0,0,1,.68,1.24,5.33,5.33,0,0,1,.21,1.54q0,1.07-.07,1.82t-0.07,1.34a9.19,9.19,0,0,0,0,1c0,0.19,0,.39.06,0.57l1.36,0.16v2.31l-3.52-.42L189.54,464h-0.1a3,3,0,0,1-1.19,1,3.72,3.72,0,0,1-2.08.22,4,4,0,0,1-2.48-1.15,3.25,3.25,0,0,1-.92-2.34,3.1,3.1,0,0,1,.32-1.48,2.26,2.26,0,0,1,.94-0.93,4,4,0,0,1,1.48-.42,8.51,8.51,0,0,1,1.93,0c0.25,0,.51.08,0.79,0.14l1,0.21a2.1,2.1,0,0,0,0-.41v-0.4a1.51,1.51,0,0,0-.46-1.2,2.47,2.47,0,0,0-1.35-.51,6.12,6.12,0,0,0-1.92,0,11,11,0,0,0-1.44.37Zm3.57,8.15a2.34,2.34,0,0,0,1.49-.18,2.06,2.06,0,0,0,.73-0.7v-1.26l-0.62-.17a7.64,7.64,0,0,0-.89-0.16,4.27,4.27,0,0,0-.79,0,2.39,2.39,0,0,0-.7.14,1.16,1.16,0,0,0-.5.35,0.9,0.9,0,0,0-.19.59,1.35,1.35,0,0,0,.34,1A1.8,1.8,0,0,0,187,463.09Z"/><path d="M196,451.55l4.47,0.52c0,3.88,0,5.82,0,9.7a4.79,4.79,0,0,0,.4,2.29,1.6,1.6,0,0,0,1.28.77,3.41,3.41,0,0,0,1.07,0,3.59,3.59,0,0,0,.84-0.3l1,2q-0.36.19-.71,0.35a4.11,4.11,0,0,1-.76.25,4.89,4.89,0,0,1-.87.11,6.91,6.91,0,0,1-1.06,0,4.44,4.44,0,0,1-3-1.34,4.33,4.33,0,0,1-1-3c0-3.53,0-5.29,0-8.82l-1.74-.2C196,452.93,196,452.47,196,451.55Z"/><path d="M216.33,472.93a10.72,10.72,0,0,1-2.86-1.22,9.7,9.7,0,0,1-2.46-2.13,10.2,10.2,0,0,1-1.71-3,11.51,11.51,0,0,1-.64-4,10.39,10.39,0,0,1,.64-3.83A7.93,7.93,0,0,1,211,456a7.35,7.35,0,0,1,2.46-1.65,9.6,9.6,0,0,1,2.86-.69l0.5,2.3a8.06,8.06,0,0,0-1.67.43,5.29,5.29,0,0,0-1.78,1.1,6.09,6.09,0,0,0-1.42,2,8.09,8.09,0,0,0-.58,3.3,8,8,0,0,0,2.09,5.65,7.58,7.58,0,0,0,1.8,1.47,8,8,0,0,0,1.56.72Z"/><path d="M224.58,467.28a4.2,4.2,0,0,0,1.27-.06,2.68,2.68,0,0,0,1-.41,2.11,2.11,0,0,0,.64-0.69,1.8,1.8,0,0,0,.23-0.91,2.12,2.12,0,0,0-.26-1.08,2.19,2.19,0,0,0-.73-0.75,3.85,3.85,0,0,0-1.11-.46,9.32,9.32,0,0,0-1.41-.24l-1.18-.11v-1.51l3.53-4-5.32-.51c0-.92,0-1.39,0-2.31,3.43,0.34,5.15.5,8.58,0.82V457l-3.7,3.87,0.48,0a4.42,4.42,0,0,1,1.43.39,4,4,0,0,1,1.23.87,4.24,4.24,0,0,1,.86,1.34,4.59,4.59,0,0,1,.33,1.77,4,4,0,0,1-.49,2.05,4.18,4.18,0,0,1-1.3,1.4,5,5,0,0,1-1.86.75,7.5,7.5,0,0,1-2.17.1,11.12,11.12,0,0,1-1.89-.35,9.9,9.9,0,0,1-1.83-.71l0.74-2.19a3.31,3.31,0,0,0,.52.26l0.74,0.28a8.51,8.51,0,0,0,.84.25A6.07,6.07,0,0,0,224.58,467.28Z"/><path d="M234.51,472.38a6.67,6.67,0,0,0,1.56-.42,5.82,5.82,0,0,0,1.8-1.12,6.38,6.38,0,0,0,1.48-2,7.4,7.4,0,0,0,.61-3.2,8.9,8.9,0,0,0-.58-3.41,7.9,7.9,0,0,0-1.42-2.32,6.92,6.92,0,0,0-1.78-1.44,9.65,9.65,0,0,0-1.67-.75l0.5-2.2a11.42,11.42,0,0,1,2.86,1.24,9.67,9.67,0,0,1,2.46,2.12,10.19,10.19,0,0,1,1.71,3,11.38,11.38,0,0,1,.64,3.95,10.47,10.47,0,0,1-.64,3.85,8,8,0,0,1-1.71,2.71,7.39,7.39,0,0,1-2.46,1.66,9.08,9.08,0,0,1-2.86.67Z"/><path d="M363.53,475.8v-2.31H366c0-2.35,0-3.53,0-5.88h-2.51V465.3H366V464.7a3.86,3.86,0,0,1,.35-1.7,3.44,3.44,0,0,1,.92-1.18,3.79,3.79,0,0,1,1.32-.69,5.48,5.48,0,0,1,1.55-.23,9.91,9.91,0,0,1,2.39.22,6.1,6.1,0,0,1,1.55.58l-0.8,2.09a9.69,9.69,0,0,0-1-.41,4.6,4.6,0,0,0-1.44-.18,2.06,2.06,0,0,0-1.59.53,2.29,2.29,0,0,0-.45,1.55l4.43,0v2.31l-4.43,0c0,2.35,0,3.53,0,5.88l4.45,0c0,0.92,0,1.39,0,2.31C369.34,475.77,367.4,475.79,363.53,475.8Z"/><path d="M376.58,465.92a11.77,11.77,0,0,1,2-.67,11.19,11.19,0,0,1,2.63-.31,5.81,5.81,0,0,1,1.87.23,3.06,3.06,0,0,1,1.24.72A2.76,2.76,0,0,1,385,467a5,5,0,0,1,.21,1.51q0,1.07-.07,1.83T385,471.71a8.86,8.86,0,0,0,0,1c0,0.19,0,.38.06,0.57l1.37,0c0,0.92,0,1.39,0,2.31l-3.54.06-0.28-1.42h-0.1a3.71,3.71,0,0,1-1.19,1.14,4,4,0,0,1-2.1.5,3.52,3.52,0,0,1-2.5-.81,2.83,2.83,0,0,1-.92-2.22,3.35,3.35,0,0,1,.32-1.53,2.77,2.77,0,0,1,.94-1.06,4.56,4.56,0,0,1,1.49-.63,8.79,8.79,0,0,1,1.94-.23q0.38,0,.8,0l1,0.07a2.11,2.11,0,0,0,0-.42v-0.4a1.32,1.32,0,0,0-.46-1.14,2.22,2.22,0,0,0-1.36-.33,6.41,6.41,0,0,0-1.93.3,12.48,12.48,0,0,0-1.44.57Zm3.59,7.66a2.55,2.55,0,0,0,1.5-.39,2.52,2.52,0,0,0,.73-0.8v-1.26l-0.63-.08a7.41,7.41,0,0,0-.9,0,4.39,4.39,0,0,0-.79.08,2.68,2.68,0,0,0-.71.24,1.43,1.43,0,0,0-.5.42,1,1,0,0,0-.19.61,1.18,1.18,0,0,0,.34.91A1.6,1.6,0,0,0,380.17,473.58Z"/><path d="M398.86,474.26a6.23,6.23,0,0,1-2,1,9,9,0,0,1-2.43.39,6.8,6.8,0,0,1-2.44-.34,4.81,4.81,0,0,1-1.79-1.08,4.64,4.64,0,0,1-1.11-1.73,6.44,6.44,0,0,1-.38-2.26,6,6,0,0,1,.44-2.36,5.09,5.09,0,0,1,1.23-1.77,5.48,5.48,0,0,1,1.87-1.12,7.34,7.34,0,0,1,2.34-.42,8.61,8.61,0,0,1,2.21.22,10.12,10.12,0,0,1,1.58.48V469l-2.32.06v-1.93a5.94,5.94,0,0,0-1.31-.11,4,4,0,0,0-1.17.21,3,3,0,0,0-1,.59,3.07,3.07,0,0,0-.74,1,3.25,3.25,0,0,0-.28,1.41,3.2,3.2,0,0,0,.23,1.23,2.86,2.86,0,0,0,.65,1,2.89,2.89,0,0,0,1,.64,3.74,3.74,0,0,0,1.38.21,5,5,0,0,0,2-.39,8.2,8.2,0,0,0,1.15-.62Z"/><path d="M402.44,467l-2.09.06v-2.31l2.09-.06v-2.39l2.74-.86v3.17l5.52-.19v2.31l-5.52.19v3a3.53,3.53,0,0,0,.61,2.32,2,2,0,0,0,1.71.67,3.67,3.67,0,0,0,1-.17,4,4,0,0,0,.83-0.37,5,5,0,0,0,.67-0.49l0.56-.48,1.26,1.84a4.27,4.27,0,0,1-.9.8,7.87,7.87,0,0,1-1.16.65,7.51,7.51,0,0,1-1.3.46,6.27,6.27,0,0,1-1.33.19,4.42,4.42,0,0,1-3.55-1.2,5.94,5.94,0,0,1-1.19-4.13v-3Z"/><path d="M413.38,469.54a6.58,6.58,0,0,1,.4-2.37,5.06,5.06,0,0,1,1.14-1.79,5.14,5.14,0,0,1,1.76-1.15,6.93,6.93,0,0,1,2.29-.46,6.51,6.51,0,0,1,2.37.3,4.63,4.63,0,0,1,1.76,1,4.45,4.45,0,0,1,1.09,1.7,6.53,6.53,0,0,1,.37,2.25,6.6,6.6,0,0,1-.4,2.37,5,5,0,0,1-2.9,3,6.87,6.87,0,0,1-2.29.46,6.45,6.45,0,0,1-2.37-.3,4.63,4.63,0,0,1-1.76-1.05,4.49,4.49,0,0,1-1.09-1.71A6.55,6.55,0,0,1,413.38,469.54Zm2.82-.11a4.08,4.08,0,0,0,.19,1.27,3,3,0,0,0,.55,1,2.32,2.32,0,0,0,.86.65,2.6,2.6,0,0,0,1.16.19,2.79,2.79,0,0,0,2-.86,4.25,4.25,0,0,0,.05-4.8,2.37,2.37,0,0,0-2-.81,3.37,3.37,0,0,0-1.1.22,2.28,2.28,0,0,0-.87.61,3,3,0,0,0-.58,1A4.6,4.6,0,0,0,416.21,469.43Z"/><path d="M426.12,471.94l2.61-.12v-5.88l-2.61.12v-2.31l4.74-.23,0.32,1.37h0.08a6,6,0,0,1,1.35-1.22,3.48,3.48,0,0,1,1.77-.56,2.27,2.27,0,0,1,2,.82,4.88,4.88,0,0,1,.73,3l-2.47.13a2,2,0,0,0-.22-1.09,0.73,0.73,0,0,0-.71-0.31,2.19,2.19,0,0,0-1.36.49,4.57,4.57,0,0,0-.87,1c0,1.79,0,2.68,0,4.47l4.57-.24v2.31c-4,.21-6,0.31-9.93.5v-2.31Z"/><path d="M439.18,471.27l3.71-.21c0-2.35,0-3.53,0-5.88l-3.71.21v-2.31l6.45-.38c0,3.28,0,4.91,0,8.19l3.9-.24V473c-4.14.26-6.2,0.39-10.34,0.62v-2.31Zm3.2-11.23a1.57,1.57,0,0,1,.48-1.14,2.3,2.3,0,0,1,2.76-.16,1.34,1.34,0,0,1,.53,1.08,1.45,1.45,0,0,1-.53,1.13,2.28,2.28,0,0,1-1.41.52,1.87,1.87,0,0,1-1.35-.35A1.32,1.32,0,0,1,442.38,460Z"/><path d="M452.47,463a12.39,12.39,0,0,1,1.95-.78,11.42,11.42,0,0,1,2.62-.45,5.71,5.71,0,0,1,1.86.13,2.86,2.86,0,0,1,1.24.66,2.58,2.58,0,0,1,.68,1.11,4.88,4.88,0,0,1,.21,1.5q0,1.07-.07,1.83t-0.07,1.35a8.8,8.8,0,0,0,0,1c0,0.19,0,.38.06,0.56l1.37-.1v2.31l-3.53.25-0.28-1.41h-0.1a4,4,0,0,1-1.19,1.21,4.19,4.19,0,0,1-2.09.62,3.36,3.36,0,0,1-2.49-.67,2.68,2.68,0,0,1-.92-2.17,3.47,3.47,0,0,1,.32-1.54,3,3,0,0,1,.94-1.11,4.83,4.83,0,0,1,1.49-.71,9,9,0,0,1,1.93-.33c0.25,0,.52,0,0.8,0h1a2.14,2.14,0,0,0,0-.42v-0.4a1.25,1.25,0,0,0-.46-1.11,2.14,2.14,0,0,0-1.36-.25,6.57,6.57,0,0,0-1.92.4,13.23,13.23,0,0,0-1.44.64Zm3.58,7.47a2.66,2.66,0,0,0,1.5-.47,2.73,2.73,0,0,0,.73-0.84c0-.5,0-0.76,0-1.26l-0.62-.05a7.33,7.33,0,0,0-.89,0,4.48,4.48,0,0,0-.79.13,2.81,2.81,0,0,0-.71.28,1.54,1.54,0,0,0-.5.44,1,1,0,0,0-.19.62,1.12,1.12,0,0,0,.34.89A1.54,1.54,0,0,0,456.05,470.45Z"/><path d="M465,457.19l4.48-.34c0,3.88,0,5.82,0,9.7a4.3,4.3,0,0,0,.4,2.22,1.3,1.3,0,0,0,1.28.53,3.65,3.65,0,0,0,1.07-.22,4.45,4.45,0,0,0,.84-0.46l1,1.81q-0.36.26-.72,0.49a5.09,5.09,0,0,1-.76.4,5.56,5.56,0,0,1-.87.28,7.12,7.12,0,0,1-1.06.16,3.73,3.73,0,0,1-3-.78,3.64,3.64,0,0,1-1-2.78c0-3.53,0-5.29,0-8.82l-1.75.13C465,458.57,465,458.11,465,457.19Z"/><path d="M477.48,473.36c3.74-.31,5.6-0.47,9.34-0.81v2.25c-3.73.34-5.6,0.5-9.34,0.81C477.48,474.71,477.48,474.26,477.48,473.36Z"/><path d="M488.46,455.25l4.25-.39c0,2.15,0,3.23,0,5.38h0.08a4.08,4.08,0,0,1,1.35-1.2,4.89,4.89,0,0,1,2-.59,4.81,4.81,0,0,1,1.47.07,2.46,2.46,0,0,1,1.16.58,2.87,2.87,0,0,1,.76,1.24,6.36,6.36,0,0,1,.27,2v6.53l-2.73.27v-6a2.4,2.4,0,0,0-.55-1.79,1.74,1.74,0,0,0-1.43-.43,2.62,2.62,0,0,0-1.43.61,2.94,2.94,0,0,0-.92,1.29c0,2.68,0,4,0,6.7l-2.73.26c0-5,0-7.43,0-12.39l-1.51.14v-2.31Z"/><path d="M512.29,466.45a4.36,4.36,0,0,1-.7.57,7.73,7.73,0,0,1-1,.56,8.59,8.59,0,0,1-2.74.75,6.88,6.88,0,0,1-2.41-.13,4.08,4.08,0,0,1-2.92-2.55,6.16,6.16,0,0,1-.39-2.28,6.51,6.51,0,0,1,.44-2.47,5.59,5.59,0,0,1,1.21-1.86,5.8,5.8,0,0,1,1.8-1.22,7.42,7.42,0,0,1,2.23-.58,6.75,6.75,0,0,1,1.65,0,4,4,0,0,1,1.56.56,3.32,3.32,0,0,1,1.17,1.25,4.38,4.38,0,0,1,.45,2.14,10.38,10.38,0,0,1-.21,2l-7.56.8a2.25,2.25,0,0,0,.28,1.1,1.93,1.93,0,0,0,.69.68,2.68,2.68,0,0,0,1,.33,4.87,4.87,0,0,0,1.19,0,6.5,6.5,0,0,0,2.07-.51,5,5,0,0,0,1.31-.86Zm-4.54-7a3.68,3.68,0,0,0-1,.26,3.28,3.28,0,0,0-.87.53,2.8,2.8,0,0,0-.64.78,2.41,2.41,0,0,0-.29,1l5.17-.54a2.1,2.1,0,0,0-.58-1.6A2.13,2.13,0,0,0,507.75,459.44Z"/><path d="M515.5,452.51L520,452c0,3.88,0,5.82,0,9.7a4.22,4.22,0,0,0,.4,2.2,1.25,1.25,0,0,0,1.28.48,3.72,3.72,0,0,0,1.07-.26,4.64,4.64,0,0,0,.84-0.49l1,1.77q-0.36.27-.71,0.51a5.3,5.3,0,0,1-.76.42,5.73,5.73,0,0,1-.87.31,7.23,7.23,0,0,1-1.06.2,3.63,3.63,0,0,1-3-.67,3.53,3.53,0,0,1-1-2.75c0-3.53,0-5.29,0-8.82l-1.74.19v-2.31Z"/><path d="M526.27,455.48l3.57-.43,0.31,1.22h0.08a4.61,4.61,0,0,1,3.52-2,4.8,4.8,0,0,1,1.77.08,2.93,2.93,0,0,1,1.38.78,3.84,3.84,0,0,1,.89,1.53,7.48,7.48,0,0,1,.31,2.33,8.15,8.15,0,0,1-.36,2.47,6,6,0,0,1-1,2,5.25,5.25,0,0,1-1.64,1.36,6.19,6.19,0,0,1-2.2.67,8.46,8.46,0,0,1-1.28.06,3.21,3.21,0,0,1-1-.18c0,1.72,0,2.58,0,4.31l-2.73.33c0-5,0-7.43,0-12.39l-1.57.19v-2.31Zm6.67,1.21a3.09,3.09,0,0,0-1.46.58,2.44,2.44,0,0,0-.91,1.31v4.37a2,2,0,0,0,.85.26,4.59,4.59,0,0,0,1.12,0,3.17,3.17,0,0,0,1.09-.33,2.66,2.66,0,0,0,.88-0.75,3.61,3.61,0,0,0,.59-1.19,5.76,5.76,0,0,0,.21-1.64,2.8,2.8,0,0,0-.67-2.06A1.94,1.94,0,0,0,532.94,456.69Z"/><path d="M550,461.84a4.54,4.54,0,0,1-.7.59,8,8,0,0,1-1,.59,8.77,8.77,0,0,1-1.27.51,8.64,8.64,0,0,1-1.47.32,6.82,6.82,0,0,1-2.4-.06,3.93,3.93,0,0,1-2.91-2.47,6.09,6.09,0,0,1-.39-2.27,6.62,6.62,0,0,1,.44-2.48,5.8,5.8,0,0,1,1.2-1.89,6,6,0,0,1,1.79-1.27,7.52,7.52,0,0,1,2.22-.64,6.73,6.73,0,0,1,1.64,0,3.91,3.91,0,0,1,1.56.52,3.19,3.19,0,0,1,1.16,1.22,4.32,4.32,0,0,1,.45,2.12,10.49,10.49,0,0,1-.21,2l-7.54,1a2.2,2.2,0,0,0,.28,1.1,1.85,1.85,0,0,0,.69.67,2.61,2.61,0,0,0,1,.3,4.84,4.84,0,0,0,1.18,0,6.59,6.59,0,0,0,2.06-.57,5.2,5.2,0,0,0,1.31-.89ZM545.52,455a3.74,3.74,0,0,0-1,.29,3.39,3.39,0,0,0-.87.55,2.91,2.91,0,0,0-.64.8,2.47,2.47,0,0,0-.29,1l5.16-.68a2,2,0,0,0-.58-1.58A2.08,2.08,0,0,0,545.52,455Z"/><path d="M552.24,460.35l2.6-.36v-5.88l-2.6.36v-2.31l4.71-.66,0.31,1.34h0.08a6.83,6.83,0,0,1,1.34-1.34,3.74,3.74,0,0,1,1.76-.71,2.07,2.07,0,0,1,2,.64,4.6,4.6,0,0,1,.72,3l-2.45.35a2,2,0,0,0-.22-1.07,0.67,0.67,0,0,0-.7-0.25,2.37,2.37,0,0,0-1.35.61,5.21,5.21,0,0,0-.87,1.09v4.47l4.54-.65c0,0.92,0,1.39,0,2.31-3.94.57-5.92,0.85-9.86,1.39v-2.31Z"/><path d="M573.51,464a8.67,8.67,0,0,1-2.84-.49,6.75,6.75,0,0,1-2.45-1.5,7.3,7.3,0,0,1-1.71-2.6,10.21,10.21,0,0,1-.64-3.81,11.79,11.79,0,0,1,.64-4,11,11,0,0,1,1.71-3.14,10.59,10.59,0,0,1,2.45-2.28,12.19,12.19,0,0,1,2.84-1.42L574,447a10.28,10.28,0,0,0-1.66.85,7.58,7.58,0,0,0-1.77,1.55,8.6,8.6,0,0,0-1.41,2.41,9.24,9.24,0,0,0-.57,3.45,7.18,7.18,0,0,0,.61,3.16,5.83,5.83,0,0,0,1.48,2,5.33,5.33,0,0,0,1.79,1,6.32,6.32,0,0,0,1.55.32Z"/><path d="M587.95,452.73a5.17,5.17,0,0,1-.39,2,6,6,0,0,1-1.05,1.7,6.15,6.15,0,0,1-1.6,1.29,5.89,5.89,0,0,1-2,.7,5.62,5.62,0,0,1-2,0,3.78,3.78,0,0,1-1.66-.78,4,4,0,0,1-1.13-1.57,6,6,0,0,1-.42-2.37,10.45,10.45,0,0,1,.72-3.89,12.87,12.87,0,0,1,1.85-3.24,12.25,12.25,0,0,1,2.53-2.42,10.09,10.09,0,0,1,2.78-1.42l0.61,2.06a9.61,9.61,0,0,0-2.07,1,9.48,9.48,0,0,0-1.71,1.42,8.71,8.71,0,0,0-1.26,1.69,6.16,6.16,0,0,0-.7,1.81,4,4,0,0,1,1.25-1.09,5.13,5.13,0,0,1,1.84-.66,4.77,4.77,0,0,1,1.75,0,3.17,3.17,0,0,1,2.35,1.92A4.57,4.57,0,0,1,587.95,452.73Zm-2.63.53a1.84,1.84,0,0,0-.68-1.61,2.43,2.43,0,0,0-1.83-.29,3.46,3.46,0,0,0-1.5.62,3.36,3.36,0,0,0-1,1,3.91,3.91,0,0,0-.05.52c0,0.19,0,.34,0,0.45a2.61,2.61,0,0,0,.17.94,1.84,1.84,0,0,0,1.27,1.15,2.51,2.51,0,0,0,1.07,0,2.9,2.9,0,0,0,.94-0.33,3.33,3.33,0,0,0,.82-0.63,3.05,3.05,0,0,0,.57-0.86A2.49,2.49,0,0,0,585.31,453.26Z"/><path d="M593.62,455a1.7,1.7,0,0,1,.47-1.21,2,2,0,0,1,1.18-.62,1.77,1.77,0,0,1,1.73.46,2.57,2.57,0,0,1,.58,1.77,4.42,4.42,0,0,1-.37,1.79,5.75,5.75,0,0,1-.95,1.51,6.59,6.59,0,0,1-1.3,1.14,6.32,6.32,0,0,1-1.43.72L593,459.5a7.29,7.29,0,0,0,1-.53,5.15,5.15,0,0,0,.93-0.73,4.13,4.13,0,0,0,.7-0.93,2.58,2.58,0,0,0,.32-1.06,2.78,2.78,0,0,1-1.06.21,1.36,1.36,0,0,1-.72-0.21,1.09,1.09,0,0,1-.41-0.52A2,2,0,0,1,593.62,455Z"/><path d="M603.81,452.29l3.19-.56c0-3.67,0-5.51,0-9.18l-2.75,2.61L603,443.7l4.75-4.49,1.83-.33c0,5,0,7.43,0,12.39l3.13-.56V453c-3.56.65-5.34,1-8.9,1.59C603.81,453.68,603.81,453.22,603.81,452.29Z"/><path d="M616.6,454.46a8.66,8.66,0,0,0,1.54-.84,8.52,8.52,0,0,0,1.78-1.61,9.27,9.27,0,0,0,1.47-2.45,8.65,8.65,0,0,0,.6-3.37,7.81,7.81,0,0,0-.57-3.25A5.44,5.44,0,0,0,620,441a4.71,4.71,0,0,0-1.76-1,7.55,7.55,0,0,0-1.66-.29l0.5-2.34a9,9,0,0,1,2.83.46,6.53,6.53,0,0,1,2.44,1.45,7.12,7.12,0,0,1,1.7,2.57,10.06,10.06,0,0,1,.63,3.77,12.05,12.05,0,0,1-.63,4,11.35,11.35,0,0,1-1.7,3.18,10.89,10.89,0,0,1-2.44,2.33,11.62,11.62,0,0,1-2.83,1.45Z"/></svg>