<svg id="Layer_1" data-name="Layer 1" xmlns="http://www.w3.org/2000/svg" viewBox="0 0 720 576"><defs><style>.cls-1,.cls-2,.cls-4,.cls-6{fill:#231f20;}.cls-1,.cls-3{stroke:#231f20;}.cls-1,.cls-6{stroke-miterlimit:10;}.cls-1,.cls-2,.cls-3{stroke-width:2px;}.cls-2{stroke:#000;}.cls-2,.cls-3{stroke-linecap:round;stroke-linejoin:round;}.cls-3,.cls-5{fill:#fff;}.cls-6{stroke:#fff;}</style></defs><title>Hanoi_Tower_Set_1</title><path class="cls-1" d="M660.07,506.49c0-.14,0-0.29,0-0.43s0-.29,0-0.43V453.84H68.24S68,505.57,68,506.06c0,2.67,2.12,5.24,6.08,7.71,13.87,8.61,50.58,16.11,101.74,21.48s116.73,8.59,188.22,8.59c81.71,0,155.68-4.21,209.24-11,26.78-3.41,48.45-7.46,63.44-12,7.5-2.25,13.32-4.62,17.29-7.08,3.38-2.1,5.41-4.29,5.94-6.55h0.1v-0.73Z"/><ellipse class="cls-2" cx="364.06" cy="454.92" rx="295.87" ry="37.63"/><path class="cls-3" d="M660.07,455c0-.14,0-0.29,0-0.43s0-.29,0-0.43V402.36H68.24S68,454.1,68,454.58c0,2.67,2.12,5.24,6.08,7.71,13.87,8.61,50.58,16.11,101.74,21.48s116.73,8.59,188.22,8.59c81.71,0,155.68-4.21,209.24-11,26.78-3.41,48.45-7.46,63.44-12,7.5-2.25,13.32-4.62,17.29-7.08,3.38-2.1,5.41-4.29,5.94-6.55h0.1V455Z"/><ellipse class="cls-3" cx="364.06" cy="403.44" rx="295.87" ry="37.63"/><path class="cls-4" d="M364.05,412c-16,0-29-3.75-30.2-8.61h-0.08l0-.5V8.27h60.63V403.35h-0.12C393,408.22,380,412,364.05,412Z"/><path class="cls-5" d="M393.87,8.77V402.85h0c-0.49,4.78-13.63,8.61-29.79,8.61s-29.3-3.83-29.79-8.61h0v-0.21s0,0,0-.06,0,0,0-.06V8.77h59.63m1-1H333.25v394.7s0,0.07,0,.11v1.27h0.23c2,5.6,16.84,8.61,30.58,8.61s28.6-3,30.58-8.61h0.21l0-1V7.77h0Z"/><ellipse class="cls-6" cx="364.05" cy="8.89" rx="29.81" ry="8.89"/><path class="cls-4" d="M105.19,455.83V453.3l2.7,0.38v-6.44l-2.72-.39v-2.53l2.72,0.39v-0.64a3.91,3.91,0,0,1,.38-1.81,3,3,0,0,1,1-1.15,3.5,3.5,0,0,1,1.43-.55,5.71,5.71,0,0,1,1.68,0,11.4,11.4,0,0,1,2.6.62,7.69,7.69,0,0,1,1.68.89l-0.87,2.16a11.83,11.83,0,0,0-1.13-.62,5.4,5.4,0,0,0-1.57-.42,2,2,0,0,0-1.73.33,2.24,2.24,0,0,0-.49,1.62l4.81,0.66v2.53l-4.81-.66c0,2.58,0,3.86,0,6.44l4.83,0.67v2.53C111.49,456.72,109.39,456.43,105.19,455.83Z"/><path class="cls-4" d="M124.86,447l4.26,0.55c0,3.2,0,4.8,0,8v1l1.74,0.22c0,1,0,1.52,0,2.53l-3.62-.47-0.53-1.77h-0.09a3.36,3.36,0,0,1-1.58,1.24,4.48,4.48,0,0,1-2.34.27,5.64,5.64,0,0,1-1.59-.44,3.44,3.44,0,0,1-1.23-.92,4.16,4.16,0,0,1-.78-1.53,8.22,8.22,0,0,1-.27-2.29v-4.62l-1.31-.18V446l4.28,0.57v6.53a3.85,3.85,0,0,0,.45,2.08,1.88,1.88,0,0,0,1.41.81,2.25,2.25,0,0,0,1.52-.31,2.27,2.27,0,0,0,1-1.12v-4.9l-1.28-.17V447Z"/><path class="cls-4" d="M133,443.47l4.88,0.61c0,4.25,0,6.38,0,10.63a5.28,5.28,0,0,0,.44,2.51,1.77,1.77,0,0,0,1.4.86,3.74,3.74,0,0,0,1.17,0,3.87,3.87,0,0,0,.92-0.31L143,460q-0.39.21-.78,0.38a4.47,4.47,0,0,1-.83.27,5.22,5.22,0,0,1-1,.11,7.52,7.52,0,0,1-1.16-.06,4.89,4.89,0,0,1-3.23-1.5,4.79,4.79,0,0,1-1.08-3.26v-9.66L133,446v-2.53Z"/><path class="cls-4" d="M146.79,445.16l4.89,0.58c0,4.25,0,6.38,0,10.63a5.26,5.26,0,0,0,.44,2.51,1.75,1.75,0,0,0,1.4.85,3.74,3.74,0,0,0,1.17,0,3.91,3.91,0,0,0,.92-0.32l1.12,2.2q-0.39.21-.78,0.38a4.5,4.5,0,0,1-.83.27,5.25,5.25,0,0,1-1,.12,7.52,7.52,0,0,1-1.16-.05,4.85,4.85,0,0,1-3.23-1.48,4.76,4.76,0,0,1-1.08-3.26c0-3.86,0-5.8,0-9.66l-1.9-.23v-2.53Z"/><path class="cls-4" d="M160.35,465.52c4.08,0.45,6.11.68,10.19,1.11,0,1,0,1.48,0,2.46-4.08-.43-6.12-0.65-10.19-1.11C160.35,467,160.35,466.5,160.35,465.52Z"/><path class="cls-4" d="M172.61,452.65l4,0.42,0.34,1.55h0.09a3.94,3.94,0,0,1,1.52-1.13,4.55,4.55,0,0,1,2.37-.31,5.73,5.73,0,0,1,1.6.39,3.46,3.46,0,0,1,1.27.89,4.16,4.16,0,0,1,.84,1.52,7.29,7.29,0,0,1,.31,2.27c0,2.86,0,4.29,0,7.15l-3-.29v-6.53a3,3,0,0,0-.63-2.09,2.56,2.56,0,0,0-3.15-.44,2.14,2.14,0,0,0-1,1.13c0,3,0,4.47,0,7.45l-3-.31c0-3.59,0-5.38,0-9l-1.65-.17v-2.53Z"/><path class="cls-4" d="M188.19,455a11.57,11.57,0,0,1,2.13-.51,11.88,11.88,0,0,1,2.86,0,6.68,6.68,0,0,1,2,.48,3.83,3.83,0,0,1,1.36.94,3.48,3.48,0,0,1,.75,1.33,5.77,5.77,0,0,1,.23,1.68q0,1.17-.08,2c-0.05.54-.08,1-0.08,1.46a10,10,0,0,0,0,1.09c0,0.21.05,0.43,0.07,0.63L199,464.2v2.53l-3.86-.35-0.3-1.59h-0.11a3.45,3.45,0,0,1-1.3,1.11,4.13,4.13,0,0,1-2.28.3,4.24,4.24,0,0,1-2.72-1.18,3.79,3.79,0,0,1-.65-4.17,2.59,2.59,0,0,1,1-1,4.46,4.46,0,0,1,1.62-.51,9.34,9.34,0,0,1,2.11,0q0.41,0,.87.13l1.12,0.2a2.31,2.31,0,0,0,0-.46v-0.44a1.61,1.61,0,0,0-.5-1.3,2.64,2.64,0,0,0-1.48-.52,6.72,6.72,0,0,0-2.1.1,12.37,12.37,0,0,0-1.57.45Zm3.91,8.81a2.59,2.59,0,0,0,1.64-.25,2.36,2.36,0,0,0,.8-0.79V461.4l-0.68-.17a8.17,8.17,0,0,0-1-.15,4.67,4.67,0,0,0-.86,0,2.69,2.69,0,0,0-.77.18,1.33,1.33,0,0,0-.55.4,1,1,0,0,0-.2.65,1.44,1.44,0,0,0,.37,1A1.91,1.91,0,0,0,192.1,463.81Z"/><path class="cls-4" d="M205.45,467.3c0-2.81,0-4.22,0-7a5.64,5.64,0,0,0-.09-1.12,2.34,2.34,0,0,0-.24-0.69,0.84,0.84,0,0,0-.37-0.35,1.36,1.36,0,0,0-.45-0.12,1.13,1.13,0,0,0-1.17.79v8.33l-2.76-.24c0-4.6,0-6.9,0-11.5l2.18,0.19,0.32,1.29h0.07a2.47,2.47,0,0,1,1-1,2.69,2.69,0,0,1,1.56-.29A3.26,3.26,0,0,1,207,456a2.2,2.2,0,0,1,.94,1.37,2.27,2.27,0,0,1,1.06-1.14,2.8,2.8,0,0,1,1.54-.3,3.54,3.54,0,0,1,1.12.27,2.22,2.22,0,0,1,.86.68,3.3,3.3,0,0,1,.56,1.23,8,8,0,0,1,.2,1.94c0,3.15,0,4.72,0,7.87l-2.76-.23c0-2.94,0-4.42,0-7.36a2.5,2.5,0,0,0-.33-1.48,1.12,1.12,0,0,0-.82-0.48,1.21,1.21,0,0,0-.71.13,0.92,0.92,0,0,0-.41.6c0,3.36,0,5,0,8.39Z"/><path class="cls-4" d="M226,467.74a3.71,3.71,0,0,1-.77.48,7,7,0,0,1-1.1.41,8.2,8.2,0,0,1-1.39.26,8.8,8.8,0,0,1-1.61,0,8.15,8.15,0,0,1-2.63-.62,5.77,5.77,0,0,1-3.2-3.37,7.38,7.38,0,0,1-.43-2.58,6.47,6.47,0,0,1,.48-2.62,4.75,4.75,0,0,1,1.32-1.79,5,5,0,0,1,2-1,7.43,7.43,0,0,1,2.44-.19,7.85,7.85,0,0,1,1.81.37,5.4,5.4,0,0,1,1.71.92,4.77,4.77,0,0,1,1.28,1.6,5.36,5.36,0,0,1,.49,2.43,10.71,10.71,0,0,1-.23,2.12l-8.28-.64a2.82,2.82,0,0,0,.31,1.27,2.76,2.76,0,0,0,.76.89,3.62,3.62,0,0,0,1.08.56,5.63,5.63,0,0,0,1.3.25,6.55,6.55,0,0,0,2.27-.15,4.37,4.37,0,0,0,1.44-.67Zm-5-8.59a3.7,3.7,0,0,0-1.13.08,2.88,2.88,0,0,0-1,.41,2.34,2.34,0,0,0-.7.73,2.27,2.27,0,0,0-.32,1l5.66,0.44A2.48,2.48,0,0,0,221,459.15Z"/><path class="cls-4" d="M408.47,457.52l2.63-.07-0.83,7.29-1.8,0C408.47,461.88,408.47,460.42,408.47,457.52Zm5-.13,2.63-.07-0.83,7.29-1.8,0C413.45,461.75,413.45,460.3,413.45,457.39Z"/><path class="cls-4" d="M423.55,463.67h-0.12l0.14,1.9c0,3,0,4.57,0,7.61l-3,.09c0-6.44,0-9.66,0-16.1l2.77-.09,5.58,9.66H429l-0.21-1.92c0-3.16,0-4.75,0-7.91l3-.11c0,6.44,0,9.66,0,16.1l-2.77.1Z"/><path class="cls-4" d="M435.19,462.06a13,13,0,0,1,2.13-.8,12.34,12.34,0,0,1,2.87-.42,6.28,6.28,0,0,1,2,.2,3.23,3.23,0,0,1,1.36.76,2.93,2.93,0,0,1,.75,1.23,5.44,5.44,0,0,1,.23,1.65c0,0.78,0,1.45-.08,2s-0.08,1-.08,1.47a9.81,9.81,0,0,0,0,1.08c0,0.21.05,0.42,0.07,0.62l1.5-.07c0,1,0,1.52,0,2.53l-3.87.17-0.3-1.55h-0.11a4.2,4.2,0,0,1-1.31,1.29,4.49,4.49,0,0,1-2.29.61,3.76,3.76,0,0,1-2.72-.81,3,3,0,0,1-1-2.4,3.74,3.74,0,0,1,.35-1.68,3.14,3.14,0,0,1,1-1.19,5.12,5.12,0,0,1,1.63-.73,9.69,9.69,0,0,1,2.12-.3,8.58,8.58,0,0,1,.87,0l1.12,0a2.41,2.41,0,0,0,0-.46v-0.44a1.41,1.41,0,0,0-.5-1.23,2.38,2.38,0,0,0-1.49-.32,7.08,7.08,0,0,0-2.1.38,14.07,14.07,0,0,0-1.58.66Zm3.92,8.28a2.84,2.84,0,0,0,1.64-.47,2.88,2.88,0,0,0,.8-0.89V467.6l-0.68-.07a7.91,7.91,0,0,0-1,0,4.82,4.82,0,0,0-.87.12,3,3,0,0,0-.77.29,1.61,1.61,0,0,0-.55.47,1.12,1.12,0,0,0-.2.68,1.26,1.26,0,0,0,.38,1A1.71,1.71,0,0,0,439.11,470.34Z"/><path class="cls-4" d="M449.61,463.19l-2.28.1c0-1,0-1.52,0-2.53l2.28-.1c0-1,0-1.57,0-2.62l3-1c0,1.39,0,2.08,0,3.47l6-.3c0,1,0,1.52,0,2.53l-6,.3c0,1.32,0,2,0,3.29a3.82,3.82,0,0,0,.67,2.53,2.2,2.2,0,0,0,1.87.7,4.07,4.07,0,0,0,1.13-.21,4.46,4.46,0,0,0,.91-0.42,5.61,5.61,0,0,0,.74-0.54l0.61-.54,1.38,2a4.78,4.78,0,0,1-1,.89,8.79,8.79,0,0,1-1.27.73,8.4,8.4,0,0,1-1.42.52,6.89,6.89,0,0,1-1.45.23,4.76,4.76,0,0,1-3.88-1.25q-1.3-1.37-1.3-4.5v-3.29Z"/><path class="cls-4" d="M460.76,455.51l4.65-.25c0,2.36,0,3.53,0,5.89h0.09a4.22,4.22,0,0,1,1.47-1.26,5.21,5.21,0,0,1,2.16-.56,5.31,5.31,0,0,1,1.61.14,2.83,2.83,0,0,1,1.27.69,3.31,3.31,0,0,1,.83,1.39,7.08,7.08,0,0,1,.3,2.22c0,2.86,0,4.29,0,7.15l-3,.18c0-2.61,0-3.92,0-6.53a2.72,2.72,0,0,0-.6-2A2,2,0,0,0,468,462a2.75,2.75,0,0,0-1.57.61,3,3,0,0,0-1,1.38c0,2.93,0,4.4,0,7.34l-3,.16c0-5.43,0-8.14,0-13.57l-1.66.09C460.76,457,460.76,456.52,460.76,455.51Z"/><path class="cls-4" d="M476.65,460a13.25,13.25,0,0,1,2.13-.84,12.45,12.45,0,0,1,2.87-.48,6.23,6.23,0,0,1,2,.16,3.14,3.14,0,0,1,1.36.73,2.85,2.85,0,0,1,.75,1.21,5.4,5.4,0,0,1,.23,1.64c0,0.78,0,1.45-.08,2s-0.08,1-.08,1.48a9.82,9.82,0,0,0,0,1.08c0,0.21.05,0.42,0.07,0.62l1.5-.1c0,1,0,1.52,0,2.53l-3.86.26-0.3-1.54h-0.11a4.34,4.34,0,0,1-1.3,1.31,4.56,4.56,0,0,1-2.29.66,3.68,3.68,0,0,1-2.72-.75,3,3,0,0,1-1-2.38,3.8,3.8,0,0,1,.35-1.69,3.25,3.25,0,0,1,1-1.21,5.25,5.25,0,0,1,1.62-.77,9.77,9.77,0,0,1,2.12-.35,8.54,8.54,0,0,1,.87,0l1.12,0a2.43,2.43,0,0,0,0-.46v-0.44a1.38,1.38,0,0,0-.5-1.22,2.35,2.35,0,0,0-1.49-.28,7.16,7.16,0,0,0-2.1.43,14.37,14.37,0,0,0-1.58.7Zm3.92,8.19a2.89,2.89,0,0,0,1.64-.51,3,3,0,0,0,.8-0.91v-1.38l-0.68-.06a7.88,7.88,0,0,0-1,0,4.85,4.85,0,0,0-.87.14,3.09,3.09,0,0,0-.77.3,1.66,1.66,0,0,0-.55.48,1.14,1.14,0,0,0-.2.68,1.24,1.24,0,0,0,.38,1A1.69,1.69,0,0,0,480.57,468.18Z"/><path class="cls-4" d="M488.67,458.42l4-.28,0.35,1.49h0.09a5.12,5.12,0,0,1,3.89-2.12,5.31,5.31,0,0,1,1.6.11,2.78,2.78,0,0,1,1.28.67,3.35,3.35,0,0,1,.84,1.38,6.78,6.78,0,0,1,.31,2.22c0,2.86,0,4.29,0,7.15l-3,.22c0-2.61,0-3.92,0-6.53a2.58,2.58,0,0,0-.63-2,2.05,2.05,0,0,0-1.6-.51,2.81,2.81,0,0,0-1.55.61,2.73,2.73,0,0,0-1,1.3c0,3,0,4.47,0,7.45l-3,.21c0-3.59,0-5.38,0-9l-1.66.11C488.67,459.94,488.67,459.44,488.67,458.42Z"/><path class="cls-4" d="M525.5,460.31l-5.2.45c0,2.7,0,4,0,6.74l-3.15.27c0-6.44,0-9.66,0-16.1l3.15-.27c0,2.62,0,3.93,0,6.55l5.2-.45c0-2.62,0-3.93,0-6.55l3.15-.28c0,6.44,0,9.66,0,16.1l-3.15.28C525.5,464.35,525.5,463,525.5,460.31Z"/><path class="cls-4" d="M542.07,464.29a4.69,4.69,0,0,1-.77.62,8.45,8.45,0,0,1-1.1.6,9.37,9.37,0,0,1-3,.79,7.55,7.55,0,0,1-2.63-.17,4.53,4.53,0,0,1-3.2-2.82,6.79,6.79,0,0,1-.42-2.5,7.1,7.1,0,0,1,.48-2.7,6,6,0,0,1,1.32-2,6.26,6.26,0,0,1,2-1.32,8,8,0,0,1,2.44-.61,7.37,7.37,0,0,1,1.8.06,4.46,4.46,0,0,1,1.71.63,3.7,3.7,0,0,1,1.28,1.38,4.83,4.83,0,0,1,.49,2.34,11.31,11.31,0,0,1-.23,2.16l-8.27.79a2.5,2.5,0,0,0,.31,1.21,2.15,2.15,0,0,0,.76.76,3,3,0,0,0,1.08.37,5.31,5.31,0,0,0,1.3,0,7.06,7.06,0,0,0,2.26-.54,5.42,5.42,0,0,0,1.44-.92Zm-5-7.73a4,4,0,0,0-1.13.27,3.54,3.54,0,0,0-1,.57,3,3,0,0,0-.7.85,2.6,2.6,0,0,0-.32,1.08l5.65-.53A2,2,0,0,0,537.11,456.56Z"/><path class="cls-4" d="M552.82,461.26a0.73,0.73,0,0,0-.56-0.68,7.47,7.47,0,0,0-1.39-.36c-0.55-.1-1.16-0.19-1.81-0.29a7.48,7.48,0,0,1-1.81-.49,4,4,0,0,1-1.39-.94,2.29,2.29,0,0,1-.56-1.64,3.1,3.1,0,0,1,.38-1.53,4,4,0,0,1,1-1.19,5.42,5.42,0,0,1,1.56-.84,8.43,8.43,0,0,1,2-.43,10.66,10.66,0,0,1,2,0,9.06,9.06,0,0,1,1.48.24,4.89,4.89,0,0,1,1.08.41l0.77,0.44-1.26,2.18q-0.35-.17-0.79-0.34a9.73,9.73,0,0,0-.94-0.31,6.81,6.81,0,0,0-1-.19,5.08,5.08,0,0,0-1.07,0,4.32,4.32,0,0,0-1.56.41,0.94,0.94,0,0,0-.6.84,0.68,0.68,0,0,0,.56.61,8.41,8.41,0,0,0,1.39.33l1.81,0.29a8.88,8.88,0,0,1,1.81.47,3.75,3.75,0,0,1,1.39.9,2.21,2.21,0,0,1,.56,1.6,3.69,3.69,0,0,1-1.27,2.88,6.59,6.59,0,0,1-3.78,1.39,8.64,8.64,0,0,1-3.41-.24,7,7,0,0,1-2.31-1.14l1.38-2.3a6,6,0,0,0,.79.49,6.46,6.46,0,0,0,1.11.45,8.77,8.77,0,0,0,1.32.29,5.64,5.64,0,0,0,1.39,0,3.12,3.12,0,0,0,1.26-.38A1,1,0,0,0,552.82,461.26Z"/><path class="cls-4" d="M566.59,459.78a0.72,0.72,0,0,0-.56-0.67,7.4,7.4,0,0,0-1.39-.35c-0.55-.09-1.16-0.18-1.81-0.27A7.43,7.43,0,0,1,561,458a3.91,3.91,0,0,1-1.39-.93,2.28,2.28,0,0,1-.56-1.63,3.12,3.12,0,0,1,.38-1.53,4,4,0,0,1,1-1.2,5.47,5.47,0,0,1,1.56-.85,8.46,8.46,0,0,1,2-.44,10.64,10.64,0,0,1,2-.06,9,9,0,0,1,1.48.23,4.85,4.85,0,0,1,1.08.4l0.77,0.43L568,454.61q-0.34-.17-0.79-0.34a9.71,9.71,0,0,0-.94-0.3,6.77,6.77,0,0,0-1-.18,5.06,5.06,0,0,0-1.07,0,4.34,4.34,0,0,0-1.56.42,1,1,0,0,0-.6.85,0.67,0.67,0,0,0,.56.61A8.36,8.36,0,0,0,564,456l1.81,0.27a8.84,8.84,0,0,1,1.81.45,3.71,3.71,0,0,1,1.39.89,2.2,2.2,0,0,1,.56,1.59,3.72,3.72,0,0,1-1.27,2.89,6.63,6.63,0,0,1-3.78,1.42,8.61,8.61,0,0,1-3.41-.22,6.89,6.89,0,0,1-2.31-1.12l1.38-2.31a6,6,0,0,0,.79.48,6.42,6.42,0,0,0,1.11.44,8.71,8.71,0,0,0,1.32.28,5.64,5.64,0,0,0,1.39,0,3.14,3.14,0,0,0,1.26-.39A1,1,0,0,0,566.59,459.78Z"/><path class="cls-4" d="M573.14,446.12l4.89-.57v10.63a4.64,4.64,0,0,0,.44,2.41,1.36,1.36,0,0,0,1.4.52,4.1,4.1,0,0,0,1.17-.29,5.06,5.06,0,0,0,.92-0.54l1.12,1.94q-0.39.3-.78,0.57a5.82,5.82,0,0,1-.83.47,6.16,6.16,0,0,1-1,.34,7.89,7.89,0,0,1-1.16.22,4,4,0,0,1-3.23-.72,3.86,3.86,0,0,1-1.08-3v-9.66l-1.9.22C573.14,447.64,573.14,447.13,573.14,446.12Z"/><path class="cls-4" d="M597.14,458.09a4.89,4.89,0,0,1-.77.64,8.77,8.77,0,0,1-1.1.63,9.55,9.55,0,0,1-1.39.54,9.31,9.31,0,0,1-1.6.34,7.48,7.48,0,0,1-2.63-.09,4.34,4.34,0,0,1-3.19-2.73,6.7,6.7,0,0,1-.42-2.49,7.22,7.22,0,0,1,.48-2.71,6.29,6.29,0,0,1,1.32-2.06,6.51,6.51,0,0,1,2-1.38,8.19,8.19,0,0,1,2.43-.68,7.33,7.33,0,0,1,1.8,0,4.32,4.32,0,0,1,1.71.58A3.53,3.53,0,0,1,597,450a4.75,4.75,0,0,1,.49,2.33,11.45,11.45,0,0,1-.23,2.17l-8.25,1a2.45,2.45,0,0,0,.31,1.2,2.05,2.05,0,0,0,.76.73,2.9,2.9,0,0,0,1.08.34,5.29,5.29,0,0,0,1.3,0,7.18,7.18,0,0,0,2.26-.6,5.64,5.64,0,0,0,1.43-1Zm-5-7.58a4.06,4.06,0,0,0-1.12.3,3.67,3.67,0,0,0-1,.6,3.14,3.14,0,0,0-.7.87,2.67,2.67,0,0,0-.32,1.09l5.64-.7A2,2,0,0,0,592.19,450.51Z"/><path class="cls-4" d="M599.55,456.47l2.84-.37v-6.44l-2.84.37V447.5l5.16-.67L605,448.3h0.09a7.4,7.4,0,0,1,1.47-1.46,4,4,0,0,1,1.92-.76,2.28,2.28,0,0,1,2.16.72,5.08,5.08,0,0,1,.79,3.27l-2.68.36a2.14,2.14,0,0,0-.24-1.17,0.74,0.74,0,0,0-.77-0.28,2.57,2.57,0,0,0-1.48.66,5.63,5.63,0,0,0-1,1.18v4.9l5-.67v2.53c-4.31.58-6.47,0.87-10.79,1.43v-2.53Z"/><path class="cls-4" d="M615.4,440.78l2.61-.36-0.82,7.38-1.79.25v-7.27Zm4.95-.69,2.61-.37-0.82,7.38-1.79.25C620.35,444.45,620.35,443,620.35,440.09Z"/></svg>