<svg id="Layer_1" data-name="Layer 1" xmlns="http://www.w3.org/2000/svg" viewBox="0 0 720 576"><defs><style>.cls-1,.cls-2,.cls-4,.cls-6{fill:#231f20;}.cls-1,.cls-3{stroke:#231f20;}.cls-1,.cls-6{stroke-miterlimit:10;}.cls-1,.cls-2,.cls-3{stroke-width:2px;}.cls-2{stroke:#000;}.cls-2,.cls-3{stroke-linecap:round;stroke-linejoin:round;}.cls-3,.cls-5{fill:#fff;}.cls-6{stroke:#fff;}</style></defs><title>Hanoi_Tower_Set_5_Final</title><path class="cls-1" d="M682.52,506.49c0-.14,0-0.29,0-0.43s0-.29,0-0.43V453.84H36.64s-0.25,51.74-.25,52.22c0,2.67,2.32,5.24,6.64,7.71,15.13,8.61,55.2,16.11,111,21.48s127.39,8.59,205.41,8.59c89.17,0,169.9-4.21,228.35-11,29.22-3.41,52.88-7.46,69.24-12,8.18-2.25,14.54-4.62,18.86-7.08,3.69-2.1,5.91-4.29,6.48-6.55h0.11v-0.73Z"/><ellipse class="cls-2" cx="359.48" cy="454.92" rx="322.89" ry="37.63"/><path class="cls-3" d="M682.52,455c0-.14,0-0.29,0-0.43s0-.29,0-0.43V402.36H36.64s-0.25,51.74-.25,52.22c0,2.67,2.32,5.24,6.64,7.71,15.13,8.61,55.2,16.11,111,21.48s127.39,8.59,205.41,8.59c89.17,0,169.9-4.21,228.35-11,29.22-3.41,52.88-7.46,69.24-12,8.18-2.25,14.54-4.62,18.86-7.08,3.69-2.1,5.91-4.29,6.48-6.55h0.11V455Z"/><ellipse class="cls-3" cx="359.48" cy="403.44" rx="322.89" ry="37.63"/><path class="cls-3" d="M682.52,403.53c0-.14,0-0.29,0-0.43s0-.29,0-0.43V350.88H36.64s-0.25,51.74-.25,52.22c0,2.67,2.32,5.24,6.64,7.71,15.13,8.61,55.2,16.11,111,21.48s127.39,8.59,205.41,8.59c89.17,0,169.9-4.21,228.35-11,29.22-3.41,52.88-7.46,69.24-12,8.18-2.25,14.54-4.62,18.86-7.08,3.69-2.1,5.91-4.29,6.48-6.55h0.11v-0.73Z"/><ellipse class="cls-3" cx="359.48" cy="351.97" rx="322.89" ry="37.63"/><path class="cls-3" d="M682.52,352.06c0-.14,0-0.29,0-0.43s0-.29,0-0.43V299.4H36.64s-0.25,51.74-.25,52.22c0,2.67,2.32,5.24,6.64,7.71,15.13,8.61,55.2,16.11,111,21.48s127.39,8.59,205.41,8.59c89.17,0,169.9-4.21,228.35-11,29.22-3.41,52.88-7.46,69.24-12,8.18-2.25,14.54-4.62,18.86-7.08,3.69-2.1,5.91-4.29,6.48-6.55h0.11v-0.73Z"/><ellipse class="cls-3" cx="359.48" cy="300.49" rx="322.89" ry="37.63"/><path class="cls-3" d="M682.52,302.06c0-.14,0-0.29,0-0.43s0-.29,0-0.43V249.4H36.64s-0.25,51.74-.25,52.22c0,2.67,2.32,5.24,6.64,7.71,15.13,8.61,55.2,16.11,111,21.48s127.39,8.59,205.41,8.59c89.17,0,169.9-4.21,228.35-11,29.22-3.41,52.88-7.46,69.24-12,8.18-2.25,14.54-4.62,18.86-7.08,3.69-2.1,5.91-4.29,6.48-6.55h0.11v-0.73Z"/><ellipse class="cls-3" cx="359.48" cy="250.49" rx="322.89" ry="37.63"/><path class="cls-4" d="M360.51,259.78c-16,0-29-3.75-30.2-8.61h-0.08l0-.5V8.27h60.63V251.17h-0.12C389.48,256,376.48,259.78,360.51,259.78Z"/><path class="cls-5" d="M390.33,8.77v241.9h0c-0.49,4.78-13.63,8.61-29.79,8.61s-29.3-3.83-29.79-8.61h0v-0.21s0,0,0-.06,0,0,0-.06V8.77h59.63m1-1H329.7V250.29s0,0.07,0,.11v1.27h0.23c2,5.6,16.84,8.61,30.58,8.61s28.6-3,30.58-8.61h0.21l0-1V7.77h0Z"/><ellipse class="cls-6" cx="360.51" cy="8.89" rx="29.81" ry="8.89"/><path class="cls-4" d="M50.85,296.35v-2.53l2.7,0.43v-6.44l-2.72-.43v-2.53l2.72,0.43v-0.64a3.87,3.87,0,0,1,.38-1.8,3,3,0,0,1,1-1.13,3.42,3.42,0,0,1,1.43-.53,5.73,5.73,0,0,1,1.68,0,11.53,11.53,0,0,1,2.6.66,7.88,7.88,0,0,1,1.68.91l-0.87,2.14a12.2,12.2,0,0,0-1.13-.63,5.45,5.45,0,0,0-1.57-.45,2,2,0,0,0-1.73.3,2.21,2.21,0,0,0-.49,1.61l4.8,0.74V289l-4.8-.74v6.44l4.83,0.74V298C57.15,297.34,55.05,297,50.85,296.35Z"/><path class="cls-4" d="M65,287.82a11.15,11.15,0,0,1,2.12-.39,11.81,11.81,0,0,1,2.85.13,6.89,6.89,0,0,1,2,.59,4.15,4.15,0,0,1,1.35,1,3.74,3.74,0,0,1,.74,1.37,5.91,5.91,0,0,1,.23,1.69q0,1.17-.08,2t-0.08,1.46a10.08,10.08,0,0,0,0,1.09c0,0.21.05,0.43,0.07,0.63l1.49,0.22v2.53l-3.84-.56L71.62,298l-0.11,0a3.19,3.19,0,0,1-1.3,1,4,4,0,0,1-2.27.18,4.48,4.48,0,0,1-2.71-1.33,3.66,3.66,0,0,1-1-2.59,3.35,3.35,0,0,1,.35-1.61,2.38,2.38,0,0,1,1-1,4.24,4.24,0,0,1,1.61-.42,9.27,9.27,0,0,1,2.1.1q0.41,0.06.86,0.17l1.11,0.26a2.27,2.27,0,0,0,0-.45v-0.44a1.7,1.7,0,0,0-.5-1.33,2.76,2.76,0,0,0-1.48-.6,6.64,6.64,0,0,0-2.09,0,11.76,11.76,0,0,0-1.57.36Zm3.89,9a2.52,2.52,0,0,0,1.63-.16,2.16,2.16,0,0,0,.79-0.75v-1.38l-0.68-.2a8.27,8.27,0,0,0-1-.2,4.64,4.64,0,0,0-.86,0,2.57,2.57,0,0,0-.77.14,1.23,1.23,0,0,0-.54.37,1,1,0,0,0-.2.64,1.51,1.51,0,0,0,.37,1.06A2,2,0,0,0,68.9,296.85Z"/><path class="cls-4" d="M89.18,300.93a5.66,5.66,0,0,1-2.2.76,9.32,9.32,0,0,1-2.63,0,8.16,8.16,0,0,1-2.64-.81,6.56,6.56,0,0,1-1.95-1.51,6.28,6.28,0,0,1-1.2-2.09,7.69,7.69,0,0,1-.41-2.54,6,6,0,0,1,.48-2.51A4.44,4.44,0,0,1,80,290.5a4.87,4.87,0,0,1,2-.9,7.51,7.51,0,0,1,2.54,0,10.13,10.13,0,0,1,2.4.64,12.92,12.92,0,0,1,1.72.81v4l-2.52-.35V292.6a6.93,6.93,0,0,0-1.42-.36,4.14,4.14,0,0,0-1.27,0,2.58,2.58,0,0,0-1.92,1.42,3.26,3.26,0,0,0-.31,1.5,3.88,3.88,0,0,0,1,2.58,4,4,0,0,0,1.13.88,4.49,4.49,0,0,0,1.5.48,5.09,5.09,0,0,0,2.14-.07,7.38,7.38,0,0,0,1.25-.47Z"/><path class="cls-4" d="M93.08,293.6l-2.27-.31v-2.53l2.27,0.31v-2.62l3-.45v3.47l6,0.8v2.53l-6-.8v3.29a4.39,4.39,0,0,0,.66,2.65,2.66,2.66,0,0,0,1.86,1,3.83,3.83,0,0,0,1.12,0,3.74,3.74,0,0,0,.91-0.26,4.29,4.29,0,0,0,.73-0.41l0.61-.43,1.38,2.25a3.65,3.65,0,0,1-1,.71,7,7,0,0,1-1.26.5,7.21,7.21,0,0,1-1.41.26,6.57,6.57,0,0,1-1.44,0,5.68,5.68,0,0,1-3.86-2,7.45,7.45,0,0,1-1.29-4.74V293.6Z"/><path class="cls-4" d="M105,298.4a6.67,6.67,0,0,1,.44-2.52,4.42,4.42,0,0,1,1.24-1.75,4.5,4.5,0,0,1,1.91-.94,7,7,0,0,1,2.49-.08,7.79,7.79,0,0,1,2.58.76,6.34,6.34,0,0,1,1.92,1.47,6.07,6.07,0,0,1,1.18,2.07,7.81,7.81,0,0,1,.4,2.53,6.68,6.68,0,0,1-.44,2.52,4.35,4.35,0,0,1-3.15,2.7,7,7,0,0,1-2.49.09,7.75,7.75,0,0,1-2.58-.77,6.34,6.34,0,0,1-1.91-1.48,6.1,6.1,0,0,1-1.18-2.07A7.82,7.82,0,0,1,105,298.4Zm3.07,0.4a4.81,4.81,0,0,0,.21,1.43,4,4,0,0,0,.6,1.2,3.25,3.25,0,0,0,.94.87,3.16,3.16,0,0,0,1.26.43,2.61,2.61,0,0,0,2.17-.58,3.34,3.34,0,0,0,.84-2.59,4.42,4.42,0,0,0-.78-2.66,3.09,3.09,0,0,0-2.22-1.26,3.42,3.42,0,0,0-1.19,0,2,2,0,0,0-1,.51,2.62,2.62,0,0,0-.63,1A4.72,4.72,0,0,0,108,298.8Z"/><path class="cls-4" d="M118.82,303.38l2.84,0.35v-6.44l-2.84-.35v-2.53L124,295l0.34,1.56h0.09a5.13,5.13,0,0,1,1.47-1.09,3.38,3.38,0,0,1,1.93-.28,3,3,0,0,1,2.17,1.27,6,6,0,0,1,.79,3.47l-2.68-.32a2.49,2.49,0,0,0-.24-1.24,1,1,0,0,0-.77-0.47,2.09,2.09,0,0,0-1.48.28,3.89,3.89,0,0,0-1,.94v4.9l5,0.59c0,1,0,1.52,0,2.53-4.32-.51-6.49-0.77-10.81-1.3v-2.53Z"/><path class="cls-4" d="M133.05,305.07l4,0.46V299.1l-4-.46V296.1l7,0.8v9l4.25,0.47v2.53c-4.51-.49-6.77-0.75-11.27-1.27v-2.53Zm3.49-11.7a1.44,1.44,0,0,1,.53-1.16,1.87,1.87,0,0,1,1.47-.34,2.5,2.5,0,0,1,1.54.68,1.77,1.77,0,0,1,.57,1.28,1.32,1.32,0,0,1-.57,1.14,2.17,2.17,0,0,1-1.54.3,2.37,2.37,0,0,1-1.47-.64A1.73,1.73,0,0,1,136.54,293.38Z"/><path class="cls-4" d="M147.54,298.5a11.54,11.54,0,0,1,2.12-.48,11.88,11.88,0,0,1,2.86,0,6.72,6.72,0,0,1,2,.5,3.92,3.92,0,0,1,1.36,1,3.55,3.55,0,0,1,.75,1.34,5.79,5.79,0,0,1,.23,1.68q0,1.17-.08,2T156.73,306a10,10,0,0,0,0,1.09c0,0.21.05,0.43,0.07,0.63l1.49,0.15v2.53l-3.86-.4-0.3-1.6h-0.11a3.4,3.4,0,0,1-1.3,1.09,4.1,4.1,0,0,1-2.28.28,4.29,4.29,0,0,1-2.72-1.21,3.5,3.5,0,0,1-1-2.55,3.43,3.43,0,0,1,.35-1.63,2.53,2.53,0,0,1,1-1,4.41,4.41,0,0,1,1.62-.49,9.32,9.32,0,0,1,2.11,0q0.41,0,.87.14l1.12,0.21a2.31,2.31,0,0,0,0-.46v-0.44a1.63,1.63,0,0,0-.5-1.31,2.66,2.66,0,0,0-1.48-.54,6.71,6.71,0,0,0-2.1.08,12.22,12.22,0,0,0-1.57.43Zm3.91,8.86a2.58,2.58,0,0,0,1.64-.23,2.3,2.3,0,0,0,.79-0.78V305l-0.68-.18a8.12,8.12,0,0,0-1-.16,4.66,4.66,0,0,0-.86,0,2.65,2.65,0,0,0-.77.17,1.31,1.31,0,0,0-.55.39,1,1,0,0,0-.2.65,1.45,1.45,0,0,0,.37,1A1.94,1.94,0,0,0,151.45,307.36Z"/><path class="cls-4" d="M161.26,294.56l4.9,0.49c0,4.25,0,6.38,0,10.63a5.21,5.21,0,0,0,.44,2.5,1.72,1.72,0,0,0,1.4.83,3.76,3.76,0,0,0,1.17,0,4,4,0,0,0,.92-0.34l1.13,2.18q-0.39.22-.78,0.4a4.56,4.56,0,0,1-.83.29,5.31,5.31,0,0,1-1,.14,7.5,7.5,0,0,1-1.16,0,4.78,4.78,0,0,1-3.24-1.42,4.68,4.68,0,0,1-1.08-3.24v-9.66l-1.91-.19v-2.53Z"/><path class="cls-4" d="M174.85,314.67c4.08,0.38,6.13.57,10.21,0.93v2.46c-4.09-.36-6.13-0.55-10.21-0.93v-2.46Z"/><path class="cls-4" d="M186.85,297l4.65,0.4v5.89h0.09a3.45,3.45,0,0,1,1.47-1,4.82,4.82,0,0,1,2.16-.26,5.65,5.65,0,0,1,1.61.36,3.41,3.41,0,0,1,1.27.86,4,4,0,0,1,.83,1.51,7.5,7.5,0,0,1,.3,2.27c0,2.86,0,4.29,0,7.15l-3-.25c0-2.61,0-3.92,0-6.53a3,3,0,0,0-.6-2.07,2.27,2.27,0,0,0-1.56-.75,2.44,2.44,0,0,0-1.56.39,2.49,2.49,0,0,0-1,1.24v7.34l-3-.26V299.65l-1.66-.14V297Z"/><path class="cls-4" d="M213,314a3.66,3.66,0,0,1-.77.48,6.92,6.92,0,0,1-1.1.41,8.15,8.15,0,0,1-1.39.26,8.82,8.82,0,0,1-1.61,0,8.16,8.16,0,0,1-2.64-.62,5.77,5.77,0,0,1-3.2-3.37,7.37,7.37,0,0,1-.43-2.58,6.48,6.48,0,0,1,.48-2.62,4.75,4.75,0,0,1,1.32-1.79,5,5,0,0,1,2-1A7.43,7.43,0,0,1,208,303a7.86,7.86,0,0,1,1.81.37,5.41,5.41,0,0,1,1.71.92,4.73,4.73,0,0,1,1.28,1.6,5.35,5.35,0,0,1,.5,2.43,10.68,10.68,0,0,1-.23,2.12l-8.29-.63a2.79,2.79,0,0,0,.31,1.27,2.75,2.75,0,0,0,.76.89,3.58,3.58,0,0,0,1.08.56,5.57,5.57,0,0,0,1.3.25,6.55,6.55,0,0,0,2.27-.15,4.37,4.37,0,0,0,1.44-.67Zm-5-8.59a3.7,3.7,0,0,0-1.13.08,2.89,2.89,0,0,0-1,.41,2.34,2.34,0,0,0-.7.73,2.28,2.28,0,0,0-.32,1l5.66,0.44A2.48,2.48,0,0,0,208,305.38Z"/><path class="cls-4" d="M216.47,299.35l4.91,0.35c0,4.25,0,6.38,0,10.63a5.12,5.12,0,0,0,.44,2.49,1.67,1.67,0,0,0,1.41.79,3.79,3.79,0,0,0,1.17-.07,4.13,4.13,0,0,0,.92-0.36l1.13,2.15q-0.39.23-.78,0.42a4.75,4.75,0,0,1-.83.31,5.41,5.41,0,0,1-1,.16,7.53,7.53,0,0,1-1.16,0,4.65,4.65,0,0,1-3.25-1.33,4.56,4.56,0,0,1-1.08-3.21V302l-1.91-.14v-2.53Z"/><path class="cls-4" d="M228.29,304.77L232.2,305l0.35,1.4h0.09a4.14,4.14,0,0,1,3.87-1.46,5.7,5.7,0,0,1,1.95.45,4.15,4.15,0,0,1,1.52,1.14,5.31,5.31,0,0,1,1,1.85,8.8,8.8,0,0,1,.35,2.62,8.21,8.21,0,0,1-.39,2.63,5.22,5.22,0,0,1-1.13,1.94,4.44,4.44,0,0,1-1.8,1.15,6.11,6.11,0,0,1-2.42.29,9.63,9.63,0,0,1-1.4-.19,4.09,4.09,0,0,1-1.15-.41v4.71l-3-.19c0-5.43,0-8.14,0-13.57l-1.73-.11v-2.53Zm7.33,2.68a2.92,2.92,0,0,0-1.6.34,2.08,2.08,0,0,0-1,1.25v4.78a2.65,2.65,0,0,0,.93.46,5.3,5.3,0,0,0,1.23.23,3.13,3.13,0,0,0,1.2-.14,2.25,2.25,0,0,0,1-.64,3.15,3.15,0,0,0,.64-1.18,5.83,5.83,0,0,0,.23-1.76,3.59,3.59,0,0,0-.74-2.39A2.56,2.56,0,0,0,235.61,307.45Z"/><path class="cls-4" d="M254.41,316.62a3.8,3.8,0,0,1-.77.5,7,7,0,0,1-1.11.44,8.24,8.24,0,0,1-1.39.29,8.91,8.91,0,0,1-1.61,0,8.07,8.07,0,0,1-2.64-.56,5.6,5.6,0,0,1-3.2-3.3,7.29,7.29,0,0,1-.43-2.57,6.54,6.54,0,0,1,.48-2.63,4.9,4.9,0,0,1,1.32-1.82,5.16,5.16,0,0,1,2-1,7.49,7.49,0,0,1,2.44-.24,7.76,7.76,0,0,1,1.81.33A5.28,5.28,0,0,1,253,307a4.61,4.61,0,0,1,1.28,1.58,5.28,5.28,0,0,1,.5,2.42,10.75,10.75,0,0,1-.23,2.13l-8.3-.46a2.77,2.77,0,0,0,.31,1.26,2.68,2.68,0,0,0,.76.87,3.51,3.51,0,0,0,1.08.53,5.53,5.53,0,0,0,1.3.22,6.6,6.6,0,0,0,2.27-.2,4.49,4.49,0,0,0,1.44-.7Zm-5-8.48a3.73,3.73,0,0,0-1.13.1,3,3,0,0,0-1,.43,2.41,2.41,0,0,0-.7.74,2.29,2.29,0,0,0-.32,1l5.67,0.32A2.42,2.42,0,0,0,249.44,308.14Z"/><path class="cls-4" d="M256.83,315.44l2.86,0.15v-6.44l-2.86-.15v-2.53l5.19,0.26,0.35,1.53h0.09a5.68,5.68,0,0,1,1.48-1.19,3.54,3.54,0,0,1,1.94-.41,2.76,2.76,0,0,1,2.18,1.11,5.74,5.74,0,0,1,.79,3.42l-2.7-.13a2.38,2.38,0,0,0-.24-1.22,0.9,0.9,0,0,0-.77-0.42,2.2,2.2,0,0,0-1.49.39,4.33,4.33,0,0,0-1,1v4.9l5,0.24v2.53c-4.34-.2-6.51-0.31-10.86-0.54v-2.53Z"/><path class="cls-4" d="M280.26,323.92a11.08,11.08,0,0,1-3.14-1.14,9.72,9.72,0,0,1-2.7-2.16,10.3,10.3,0,0,1-1.88-3.21,12.2,12.2,0,0,1-.7-4.31,11.71,11.71,0,0,1,.7-4.24,9.43,9.43,0,0,1,1.88-3.08,8.79,8.79,0,0,1,2.7-2,11.07,11.07,0,0,1,3.14-1l0.55,2.48a9.3,9.3,0,0,0-1.83.58,6.32,6.32,0,0,0-1.95,1.32,7.28,7.28,0,0,0-1.56,2.34,9.13,9.13,0,0,0-.63,3.65,8.69,8.69,0,0,0,.67,3.59,8.36,8.36,0,0,0,1.63,2.45,7.6,7.6,0,0,0,2,1.48,8.22,8.22,0,0,0,1.71.68Z"/><path class="cls-4" d="M284.84,308.16a5.55,5.55,0,0,1,.4-2.15,4.63,4.63,0,0,1,1.13-1.65,5,5,0,0,1,1.75-1,6.17,6.17,0,0,1,2.29-.32,6.91,6.91,0,0,1,2.35.47,5.14,5.14,0,0,1,1.82,1.22,5.43,5.43,0,0,1,1.18,1.95,7.71,7.71,0,0,1,.42,2.62,13.48,13.48,0,0,1-.69,4.58,9.11,9.11,0,0,1-1.86,3.16,7.65,7.65,0,0,1-2.71,1.89,10.44,10.44,0,0,1-3.23.76l-0.65-2.37a7.81,7.81,0,0,0,2.29-.54,6.59,6.59,0,0,0,1.79-1.08,5.66,5.66,0,0,0,1.24-1.5,5.06,5.06,0,0,0,.62-1.83,3.3,3.3,0,0,1-1.25.73,5.08,5.08,0,0,1-1.82.22h0a5.7,5.7,0,0,1-1.78-.36,5,5,0,0,1-2.81-2.58A5,5,0,0,1,284.84,308.16Zm2.91-.05a2.61,2.61,0,0,0,.24,1.15,2.65,2.65,0,0,0,.63.85,2.82,2.82,0,0,0,.91.54,3.45,3.45,0,0,0,1.07.21,4,4,0,0,0,1.64-.24,2.3,2.3,0,0,0,1-.7,6.47,6.47,0,0,0,.07-0.92,4.5,4.5,0,0,0-.18-1.27,3.54,3.54,0,0,0-.55-1.12,2.88,2.88,0,0,0-.92-0.8,2.78,2.78,0,0,0-1.27-.33A2.45,2.45,0,0,0,287.75,308.11Z"/><path class="cls-4" d="M298.68,308.64a5.57,5.57,0,0,1,.4-2.15,4.67,4.67,0,0,1,1.13-1.66,5.06,5.06,0,0,1,1.75-1.05,6.19,6.19,0,0,1,2.29-.34,6.88,6.88,0,0,1,2.35.46,5.1,5.1,0,0,1,1.82,1.21,5.38,5.38,0,0,1,1.18,1.94,7.68,7.68,0,0,1,.42,2.62,13.51,13.51,0,0,1-.69,4.58,9.19,9.19,0,0,1-1.86,3.17,7.73,7.73,0,0,1-2.71,1.91,10.49,10.49,0,0,1-3.23.78l-0.65-2.37a7.85,7.85,0,0,0,2.29-.55A6.66,6.66,0,0,0,305,316.1a5.71,5.71,0,0,0,1.24-1.51,5.09,5.09,0,0,0,.62-1.83,3.34,3.34,0,0,1-1.25.74,5.09,5.09,0,0,1-1.82.24h0a5.68,5.68,0,0,1-1.78-.35,5,5,0,0,1-2.81-2.56A4.93,4.93,0,0,1,298.68,308.64Zm2.91-.07a2.6,2.6,0,0,0,.24,1.14,2.63,2.63,0,0,0,.63.85,2.8,2.8,0,0,0,.91.53,3.43,3.43,0,0,0,1.07.2,4,4,0,0,0,1.64-.25,2.32,2.32,0,0,0,1-.71,6.44,6.44,0,0,0,.07-0.92,4.49,4.49,0,0,0-.18-1.27,3.52,3.52,0,0,0-.55-1.12,2.85,2.85,0,0,0-.92-0.8,2.77,2.77,0,0,0-1.27-.32A2.47,2.47,0,0,0,301.59,308.56Z"/><path class="cls-4" d="M312.15,312a13.57,13.57,0,0,1,.44-3.66,7.34,7.34,0,0,1,1.24-2.58,5,5,0,0,1,1.91-1.51,5.74,5.74,0,0,1,2.48-.46,5.47,5.47,0,0,1,4.49,2.12q1.57,2.07,1.57,6.34a13.67,13.67,0,0,1-.44,3.68,7.51,7.51,0,0,1-1.24,2.6,4.92,4.92,0,0,1-1.92,1.53,5.8,5.8,0,0,1-2.49.47,5.32,5.32,0,0,1-4.49-2.25A10.77,10.77,0,0,1,312.15,312Zm3,0.07c0,0.23,0,.45,0,0.66s0,0.42,0,.63l5.58-5a2.65,2.65,0,0,0-2.58-2,2.4,2.4,0,0,0-2.25,1.37A9.27,9.27,0,0,0,315.15,312.07Zm6.14,0.13q0-.37,0-0.7c0-.22,0-0.44,0-0.66l-5.61,5a2.7,2.7,0,0,0,2.59,2.15,2.43,2.43,0,0,0,2.27-1.36A9.29,9.29,0,0,0,321.28,312.19Z"/><path class="cls-4" d="M330.14,318.95a1.55,1.55,0,0,1,.52-1.23,1.87,1.87,0,0,1,1.3-.44,2.31,2.31,0,0,1,1.91.85,3.26,3.26,0,0,1,.65,2.06,4.31,4.31,0,0,1-.4,1.88,4.89,4.89,0,0,1-1.05,1.46,5.56,5.56,0,0,1-1.44,1,5.79,5.79,0,0,1-1.58.51l-0.62-1.27a6.63,6.63,0,0,0,1.12-.37,4.45,4.45,0,0,0,1-.62,3.5,3.5,0,0,0,.77-0.87,2.41,2.41,0,0,0,.36-1.1,3,3,0,0,1-1.18,0,1.81,1.81,0,0,1-.8-0.38,1.54,1.54,0,0,1-.45-0.65A2.37,2.37,0,0,1,330.14,318.95Z"/><path class="cls-4" d="M340.34,316.61a3.93,3.93,0,0,1,.27-1.47,4.51,4.51,0,0,1,.69-1.19,5.73,5.73,0,0,1,1-.95,9.23,9.23,0,0,1,1.13-.74,7.15,7.15,0,0,1-1.92-1.59,3.47,3.47,0,0,1-.76-2.3,3.67,3.67,0,0,1,.39-1.68,4.07,4.07,0,0,1,1.1-1.35,5.17,5.17,0,0,1,1.67-.88,6.62,6.62,0,0,1,2.1-.31,6.74,6.74,0,0,1,2,.29,5.34,5.34,0,0,1,1.6.79,3.73,3.73,0,0,1,1.08,1.24,3.32,3.32,0,0,1,.39,1.6,4,4,0,0,1-.7,2.37,6.12,6.12,0,0,1-1.93,1.74,7.19,7.19,0,0,1,2.2,1.69,3.73,3.73,0,0,1,.82,2.49,3.89,3.89,0,0,1-.45,1.87,4.49,4.49,0,0,1-1.21,1.43,5.65,5.65,0,0,1-1.79.92,7,7,0,0,1-2.18.32,7.14,7.14,0,0,1-2.15-.33,5.77,5.77,0,0,1-1.73-.88,4,4,0,0,1-1.15-1.34A3.69,3.69,0,0,1,340.34,316.61Zm8.21-.33a1.65,1.65,0,0,0-.3-1,3.3,3.3,0,0,0-.75-0.74,7,7,0,0,0-1-.59q-0.54-.27-1-0.55a4.45,4.45,0,0,0-1.78,1.29,2.47,2.47,0,0,0-.62,1.5,1.91,1.91,0,0,0,.74,1.6,3.33,3.33,0,0,0,2.05.58,3.25,3.25,0,0,0,1.94-.53A1.8,1.8,0,0,0,348.55,316.28Zm-5-7.74a1.71,1.71,0,0,0,.24.93,2.59,2.59,0,0,0,.62.67,5,5,0,0,0,.86.52l1,0.47a4.29,4.29,0,0,0,.73-0.46,3.91,3.91,0,0,0,.63-0.61,3.35,3.35,0,0,0,.45-0.69,1.7,1.7,0,0,0,0-1.56,2.08,2.08,0,0,0-.54-0.61,2.41,2.41,0,0,0-.75-0.38,2.93,2.93,0,0,0-.85-0.13,2.63,2.63,0,0,0-1.67.56,1.78,1.78,0,0,0-.48.59A1.52,1.52,0,0,0,343.59,308.54Z"/><path class="cls-4" d="M355.57,323a7.92,7.92,0,0,0,1.71-.61,7.21,7.21,0,0,0,2-1.4,7.89,7.89,0,0,0,1.63-2.38,8.48,8.48,0,0,0,.67-3.57,9.32,9.32,0,0,0-.63-3.68,7.71,7.71,0,0,0-1.56-2.4,6.71,6.71,0,0,0-1.95-1.4,9.68,9.68,0,0,0-1.83-.66l0.55-2.46a11.49,11.49,0,0,1,3.14,1.08,9.35,9.35,0,0,1,2.7,2.09,10,10,0,0,1,1.88,3.16,13.33,13.33,0,0,1,0,8.55,9.76,9.76,0,0,1-1.88,3.13,9.17,9.17,0,0,1-2.7,2,10.68,10.68,0,0,1-3.14,1Z"/><path class="cls-4" d="M492,313.65l2.86-.19V307l-2.86.19v-2.53l5.18-.36,0.35,1.49h0.09a6.77,6.77,0,0,1,1.47-1.37,3.86,3.86,0,0,1,1.93-.64,2.43,2.43,0,0,1,2.18.85A5.29,5.29,0,0,1,504,308l-2.69.2a2.21,2.21,0,0,0-.24-1.19,0.79,0.79,0,0,0-.77-0.32,2.43,2.43,0,0,0-1.49.57,5.16,5.16,0,0,0-1,1.13v4.9l5-.36v2.53c-4.34.32-6.51,0.47-10.85,0.76v-2.53Z"/><path class="cls-4" d="M517.26,313.1a4.58,4.58,0,0,1-.77.6,8.18,8.18,0,0,1-1.11.58,9.08,9.08,0,0,1-1.39.48,9.17,9.17,0,0,1-1.61.26,7.6,7.6,0,0,1-2.64-.21,4.64,4.64,0,0,1-3.2-2.88,6.84,6.84,0,0,1-.43-2.51,7,7,0,0,1,.48-2.69,5.9,5.9,0,0,1,1.32-2,6.13,6.13,0,0,1,2-1.29,8,8,0,0,1,2.44-.57,7.4,7.4,0,0,1,1.81.09,4.55,4.55,0,0,1,1.72.66,3.79,3.79,0,0,1,1.28,1.4,4.87,4.87,0,0,1,.5,2.35,11.23,11.23,0,0,1-.23,2.16l-8.29.65a2.52,2.52,0,0,0,.31,1.22,2.2,2.2,0,0,0,.76.77,3,3,0,0,0,1.08.39,5.3,5.3,0,0,0,1.3,0,7,7,0,0,0,2.27-.5,5.31,5.31,0,0,0,1.44-.9Zm-5-7.82a4,4,0,0,0-1.13.25,3.47,3.47,0,0,0-1,.55,2.93,2.93,0,0,0-.7.84,2.57,2.57,0,0,0-.32,1.08l5.66-.44A2.09,2.09,0,0,0,512.29,305.28Z"/><path class="cls-4" d="M531.34,312a7.33,7.33,0,0,1-2.21,1.26,10.1,10.1,0,0,1-2.65.58,7.26,7.26,0,0,1-2.66-.21,4.86,4.86,0,0,1-2-1.07,4.67,4.67,0,0,1-1.21-1.82,6.87,6.87,0,0,1-.41-2.45,6.78,6.78,0,0,1,.48-2.62,6.09,6.09,0,0,1,1.35-2,6.5,6.5,0,0,1,2-1.35,8.27,8.27,0,0,1,2.55-.62,9.26,9.26,0,0,1,2.42.09,10.52,10.52,0,0,1,1.73.43v4l-2.53.22v-2.12a6.37,6.37,0,0,0-1.43,0,4.53,4.53,0,0,0-1.28.3,3.48,3.48,0,0,0-1.13.72,3.58,3.58,0,0,0-1.12,2.7,3.4,3.4,0,0,0,.25,1.34,2.81,2.81,0,0,0,1.85,1.65,4,4,0,0,0,1.51.14,5.66,5.66,0,0,0,2.15-.55,9.7,9.7,0,0,0,1.25-.75Z"/><path class="cls-4" d="M540.17,300.85l4.28-.4v9l1.75-.17v2.53l-3.63.34L542,310.47h-0.09a4.65,4.65,0,0,1-1.59,1.6,5.2,5.2,0,0,1-2.35.79,5.11,5.11,0,0,1-1.6-.09,2.57,2.57,0,0,1-1.23-.65,3.15,3.15,0,0,1-.78-1.36,7.51,7.51,0,0,1-.28-2.23c0-1.85,0-2.77,0-4.62l-1.31.12v-2.53l4.3-.38v6.53a3.32,3.32,0,0,0,.45,2,1.49,1.49,0,0,0,1.41.49,2.72,2.72,0,0,0,1.53-.65,3.09,3.09,0,0,0,1-1.33v-4.9l-1.29.12v-2.53Z"/><path class="cls-4" d="M547.28,309.15l2.85-.27v-6.44l-2.85.27v-2.53l5.17-.5,0.34,1.48h0.09a7.06,7.06,0,0,1,1.47-1.41,4,4,0,0,1,1.93-.7,2.36,2.36,0,0,1,2.17.79,5.19,5.19,0,0,1,.79,3.3l-2.69.27a2.18,2.18,0,0,0-.24-1.18,0.76,0.76,0,0,0-.77-0.3,2.49,2.49,0,0,0-1.48.61,5.38,5.38,0,0,0-1,1.15v4.9l5-.5c0,1,0,1.52,0,2.53-4.33.44-6.5,0.65-10.83,1.07v-2.53Z"/><path class="cls-4" d="M570.63,314.18a9.79,9.79,0,0,1-3.12-.68,7.87,7.87,0,0,1-2.69-1.76,8.48,8.48,0,0,1-1.87-2.93,11.39,11.39,0,0,1-.7-4.21,12.61,12.61,0,0,1,.7-4.34,11.43,11.43,0,0,1,1.87-3.36,10.87,10.87,0,0,1,2.69-2.38,12.72,12.72,0,0,1,3.12-1.41l0.55,2.4a10.74,10.74,0,0,0-1.83.85,7.77,7.77,0,0,0-1.94,1.61,8.89,8.89,0,0,0-1.55,2.57,9.86,9.86,0,0,0-.63,3.75,8,8,0,0,0,.67,3.49,6.8,6.8,0,0,0,1.62,2.21,6.18,6.18,0,0,0,2,1.19,7.18,7.18,0,0,0,1.7.43Z"/><path class="cls-4" d="M576.3,308.69l6.61-14.13-7.49.84v-2.71c4.19-.46,6.28-0.7,10.47-1.18v2.25l-6.68,14.61Z"/><path class="cls-4" d="M589,296.18a6.05,6.05,0,0,1,.4-2.21,5.71,5.71,0,0,1,1.12-1.82,6.16,6.16,0,0,1,1.74-1.31,6.73,6.73,0,0,1,2.28-.67,6.47,6.47,0,0,1,2.34.11,4.19,4.19,0,0,1,1.81.94,4.43,4.43,0,0,1,1.17,1.77,7.2,7.2,0,0,1,.41,2.56,14.5,14.5,0,0,1-.69,4.68,11.1,11.1,0,0,1-1.85,3.45A9.51,9.51,0,0,1,595,306a11.8,11.8,0,0,1-3.21,1.26L591.18,305a8.83,8.83,0,0,0,2.28-.89,8.13,8.13,0,0,0,1.78-1.35,7.07,7.07,0,0,0,1.24-1.69,5.83,5.83,0,0,0,.62-1.93,4.06,4.06,0,0,1-1.24.92,5.5,5.5,0,0,1-1.81.5h0a5.34,5.34,0,0,1-1.77-.09,4.15,4.15,0,0,1-1.62-.73,4.07,4.07,0,0,1-1.18-1.41A4.53,4.53,0,0,1,589,296.18Zm2.89-.5a2.38,2.38,0,0,0,.24,1.11,2.13,2.13,0,0,0,.63.75,2.33,2.33,0,0,0,.91.4,3.23,3.23,0,0,0,1.07,0,4.41,4.41,0,0,0,1.63-.5,2.85,2.85,0,0,0,1-.86,6.69,6.69,0,0,0,.07-0.93,4.24,4.24,0,0,0-.18-1.24,3,3,0,0,0-.55-1,2.3,2.3,0,0,0-.92-0.66,2.54,2.54,0,0,0-1.26-.14A2.94,2.94,0,0,0,591.87,295.68Z"/><path class="cls-4" d="M613.5,304.22c-4.09.53-6.14,0.79-10.23,1.3v-2.23l0.69-.7,0.93-1q0.52-.55,1.09-1.19t1.12-1.34q0.78-1,1.36-1.76a13.5,13.5,0,0,0,1-1.47,6.4,6.4,0,0,0,.56-1.31,4.55,4.55,0,0,0,.18-1.28,1.91,1.91,0,0,0-.21-0.87,2,2,0,0,0-.57-0.7,2.35,2.35,0,0,0-.88-0.42,3,3,0,0,0-1.14-.05,4.65,4.65,0,0,0-1.5.44,6.1,6.1,0,0,0-1.41,1l-1.19-2a11.92,11.92,0,0,1,2.14-1.43,8,8,0,0,1,2.72-.82,6.28,6.28,0,0,1,1.89,0,4.32,4.32,0,0,1,1.6.61,3.28,3.28,0,0,1,1.11,1.2,3.71,3.71,0,0,1,.41,1.81,7.27,7.27,0,0,1-.13,1.38,7.46,7.46,0,0,1-.39,1.32,10,10,0,0,1-.69,1.39q-0.42.72-1,1.58-0.46.66-1,1.34t-1.07,1.3q-0.53.62-1,1.17t-0.93.92l6.6-.85v2.53Z"/><path class="cls-4" d="M616.13,295.8a14.43,14.43,0,0,1,.44-3.73,8.77,8.77,0,0,1,1.23-2.77,6.2,6.2,0,0,1,1.9-1.8,6.36,6.36,0,0,1,2.46-.85,4.67,4.67,0,0,1,4.46,1.43q1.56,1.82,1.56,6.1a14.55,14.55,0,0,1-.44,3.75,9,9,0,0,1-1.23,2.79,6.14,6.14,0,0,1-1.91,1.82,6.43,6.43,0,0,1-2.47.85,4.52,4.52,0,0,1-4.46-1.56Q616.13,299.9,616.13,295.8Zm3-.39c0,0.23,0,.45,0,0.65s0,0.42,0,.63l5.55-5.87a2.19,2.19,0,0,0-2.57-1.63,2.9,2.9,0,0,0-2.24,1.71A10.13,10.13,0,0,0,619.11,295.41Zm6.1-.82c0-.25,0-0.48,0-0.7s0-.44,0-0.65l-5.57,5.88a2.23,2.23,0,0,0,2.57,1.75,2.93,2.93,0,0,0,2.25-1.71A10.16,10.16,0,0,0,625.21,294.59Z"/><path class="cls-4" d="M634,300a1.82,1.82,0,0,1,.52-1.31,2.17,2.17,0,0,1,1.29-.64,2,2,0,0,1,1.9.56,2.88,2.88,0,0,1,.64,2,4.76,4.76,0,0,1-.4,1.94,6.05,6.05,0,0,1-1,1.62,6.9,6.9,0,0,1-1.43,1.22,6.7,6.7,0,0,1-1.57.75l-0.62-1.18a7.7,7.7,0,0,0,1.11-.55,5.46,5.46,0,0,0,1-.78,4.38,4.38,0,0,0,.77-1,2.76,2.76,0,0,0,.35-1.15,3,3,0,0,1-1.17.2,1.53,1.53,0,0,1-.79-0.26,1.24,1.24,0,0,1-.45-0.58A2.2,2.2,0,0,1,634,300Z"/><path class="cls-4" d="M645.09,299.86l6.59-14.36-7.46,1.1c0-1.09,0-1.63,0-2.71,4.18-.61,6.26-0.92,10.44-1.55v2.25L648,299.43Z"/><path class="cls-4" d="M659.23,300.1a9.24,9.24,0,0,0,1.69-.87,8.93,8.93,0,0,0,2-1.71,9.74,9.74,0,0,0,1.61-2.63,9.3,9.3,0,0,0,.66-3.67,8.67,8.67,0,0,0-.63-3.58,6.23,6.23,0,0,0-1.54-2.16,5.4,5.4,0,0,0-1.93-1.1,8.45,8.45,0,0,0-1.82-.38l0.55-2.55a10.08,10.08,0,0,1,3.11.6,7.47,7.47,0,0,1,2.67,1.68,8.13,8.13,0,0,1,1.86,2.87,11.17,11.17,0,0,1,.7,4.16,13,13,0,0,1-.7,4.39,11.93,11.93,0,0,1-1.86,3.42,11.42,11.42,0,0,1-2.67,2.46,12.34,12.34,0,0,1-3.11,1.49Z"/><path class="cls-4" d="M50.55,450.44v-2.53l2.7,0.43V441.9l-2.72-.43v-2.53l2.72,0.43v-0.64a3.87,3.87,0,0,1,.38-1.8,3,3,0,0,1,1-1.13,3.43,3.43,0,0,1,1.43-.53,5.73,5.73,0,0,1,1.68,0,11.55,11.55,0,0,1,2.6.66,7.89,7.89,0,0,1,1.68.91L61.14,439a12.26,12.26,0,0,0-1.13-.63,5.45,5.45,0,0,0-1.57-.45,2,2,0,0,0-1.73.3,2.21,2.21,0,0,0-.49,1.61l4.8,0.74v2.53l-4.8-.74v6.44L61,449.55v2.53C56.85,451.43,54.75,451.11,50.55,450.44Z"/><path class="cls-4" d="M64.71,441.91a11.17,11.17,0,0,1,2.12-.39,11.81,11.81,0,0,1,2.85.12,6.9,6.9,0,0,1,2,.59,4.14,4.14,0,0,1,1.35,1,3.75,3.75,0,0,1,.74,1.37,5.93,5.93,0,0,1,.23,1.69q0,1.17-.08,2t-0.08,1.46a10.08,10.08,0,0,0,0,1.09c0,0.21.05,0.43,0.07,0.63l1.49,0.22v2.53l-3.84-.56-0.3-1.61-0.11,0a3.19,3.19,0,0,1-1.3,1,4,4,0,0,1-2.27.18,4.47,4.47,0,0,1-2.71-1.33,3.65,3.65,0,0,1-1-2.59,3.35,3.35,0,0,1,.35-1.61,2.38,2.38,0,0,1,1-1,4.23,4.23,0,0,1,1.61-.42,9.26,9.26,0,0,1,2.1.09q0.41,0.06.86,0.17L71,446.83a2.29,2.29,0,0,0,0-.45v-0.44a1.7,1.7,0,0,0-.5-1.33,2.76,2.76,0,0,0-1.48-.6A6.64,6.64,0,0,0,67,444a11.78,11.78,0,0,0-1.57.36Zm3.89,9a2.52,2.52,0,0,0,1.63-.16A2.16,2.16,0,0,0,71,450v-1.38l-0.68-.2a8.27,8.27,0,0,0-1-.2,4.63,4.63,0,0,0-.86,0,2.57,2.57,0,0,0-.77.14,1.22,1.22,0,0,0-.54.37,1,1,0,0,0-.2.64,1.51,1.51,0,0,0,.37,1.06A2,2,0,0,0,68.6,450.94Z"/><path class="cls-4" d="M88.88,455a5.66,5.66,0,0,1-2.2.76,9.32,9.32,0,0,1-2.63,0A8.16,8.16,0,0,1,81.4,455a6.56,6.56,0,0,1-1.95-1.51,6.29,6.29,0,0,1-1.2-2.09,7.7,7.7,0,0,1-.41-2.54,6,6,0,0,1,.48-2.51,4.44,4.44,0,0,1,1.34-1.72,4.88,4.88,0,0,1,2-.9,7.52,7.52,0,0,1,2.54,0,10.12,10.12,0,0,1,2.41.64,12.92,12.92,0,0,1,1.72.81v4l-2.52-.35v-2.12a6.92,6.92,0,0,0-1.42-.36,4.14,4.14,0,0,0-1.27,0,2.58,2.58,0,0,0-1.92,1.42,3.26,3.26,0,0,0-.31,1.5,3.85,3.85,0,0,0,.25,1.39,3.9,3.9,0,0,0,.71,1.18,4,4,0,0,0,1.13.88,4.49,4.49,0,0,0,1.5.48,5.09,5.09,0,0,0,2.14-.07,7.35,7.35,0,0,0,1.25-.47Z"/><path class="cls-4" d="M92.78,447.69l-2.27-.31v-2.53l2.27,0.31v-2.62l3-.45v3.47l6,0.8v2.53l-6-.8v3.29a4.38,4.38,0,0,0,.66,2.65,2.66,2.66,0,0,0,1.86,1,3.83,3.83,0,0,0,1.12,0,3.75,3.75,0,0,0,.91-0.26,4.31,4.31,0,0,0,.73-0.41l0.61-.43,1.38,2.25a3.66,3.66,0,0,1-1,.71,7.06,7.06,0,0,1-1.26.5,7.21,7.21,0,0,1-1.41.26,6.58,6.58,0,0,1-1.44,0,5.68,5.68,0,0,1-3.86-2A7.45,7.45,0,0,1,92.78,451v-3.29Z"/><path class="cls-4" d="M104.67,452.5a6.66,6.66,0,0,1,.44-2.52,4.43,4.43,0,0,1,1.24-1.75,4.51,4.51,0,0,1,1.91-.94,7,7,0,0,1,2.49-.08,7.79,7.79,0,0,1,2.58.76,6.34,6.34,0,0,1,1.92,1.47,6.08,6.08,0,0,1,1.18,2.07,7.81,7.81,0,0,1,.4,2.53,6.68,6.68,0,0,1-.44,2.52,4.35,4.35,0,0,1-3.15,2.7,7,7,0,0,1-2.49.09,7.75,7.75,0,0,1-2.58-.77,6.35,6.35,0,0,1-1.91-1.48,6.1,6.1,0,0,1-1.18-2.07A7.82,7.82,0,0,1,104.67,452.5Zm3.07,0.4a4.83,4.83,0,0,0,.21,1.43,4,4,0,0,0,.6,1.2,3.25,3.25,0,0,0,.94.87,3.16,3.16,0,0,0,1.26.43,2.61,2.61,0,0,0,2.17-.58,3.34,3.34,0,0,0,.84-2.59A4.42,4.42,0,0,0,113,451a3.1,3.1,0,0,0-2.22-1.26,3.42,3.42,0,0,0-1.19,0,2,2,0,0,0-1,.51,2.61,2.61,0,0,0-.63,1A4.7,4.7,0,0,0,107.74,452.9Z"/><path class="cls-4" d="M118.52,457.47l2.85,0.35v-6.44l-2.85-.35V448.5l5.16,0.63,0.34,1.56h0.09a5.12,5.12,0,0,1,1.47-1.09,3.39,3.39,0,0,1,1.93-.28,3,3,0,0,1,2.17,1.27,6,6,0,0,1,.79,3.47l-2.69-.32a2.49,2.49,0,0,0-.24-1.24,1,1,0,0,0-.77-0.47,2.09,2.09,0,0,0-1.48.28,3.89,3.89,0,0,0-1,.94v4.9l5,0.59v2.53c-4.32-.51-6.49-0.77-10.81-1.3v-2.53Z"/><path class="cls-4" d="M132.75,459.17l4,0.46v-6.44l-4-.46V450.2l7,0.8v9l4.25,0.47V463c-4.51-.5-6.77-0.75-11.27-1.27v-2.53Zm3.49-11.7a1.44,1.44,0,0,1,.53-1.16,1.87,1.87,0,0,1,1.47-.34,2.5,2.5,0,0,1,1.54.68,1.77,1.77,0,0,1,.57,1.28,1.32,1.32,0,0,1-.57,1.14,2.17,2.17,0,0,1-1.54.3,2.37,2.37,0,0,1-1.47-.64A1.73,1.73,0,0,1,136.24,447.47Z"/><path class="cls-4" d="M147.24,452.6a11.55,11.55,0,0,1,2.13-.48,11.88,11.88,0,0,1,2.86,0,6.73,6.73,0,0,1,2,.5,3.91,3.91,0,0,1,1.36,1,3.54,3.54,0,0,1,.75,1.34,5.79,5.79,0,0,1,.23,1.68q0,1.17-.08,2t-0.08,1.46a10,10,0,0,0,0,1.09c0,0.21.05,0.43,0.07,0.63l1.49,0.15v2.53l-3.86-.4-0.3-1.6h-0.11a3.4,3.4,0,0,1-1.3,1.09,4.1,4.1,0,0,1-2.28.28,4.29,4.29,0,0,1-2.72-1.21,3.5,3.5,0,0,1-1-2.55,3.42,3.42,0,0,1,.35-1.63,2.54,2.54,0,0,1,1-1,4.41,4.41,0,0,1,1.62-.49,9.31,9.31,0,0,1,2.11,0q0.41,0,.87.14l1.12,0.21a2.3,2.3,0,0,0,0-.46v-0.44a1.63,1.63,0,0,0-.5-1.31,2.67,2.67,0,0,0-1.48-.54,6.7,6.7,0,0,0-2.1.08,12.2,12.2,0,0,0-1.57.43Zm3.91,8.86a2.58,2.58,0,0,0,1.64-.23,2.31,2.31,0,0,0,.8-0.78v-1.38l-0.68-.18a8.13,8.13,0,0,0-1-.16,4.66,4.66,0,0,0-.86,0,2.63,2.63,0,0,0-.77.17,1.29,1.29,0,0,0-.55.39,1,1,0,0,0-.2.65,1.45,1.45,0,0,0,.37,1A1.94,1.94,0,0,0,151.15,461.46Z"/><path class="cls-4" d="M161,448.65l4.9,0.49v10.63a5.2,5.2,0,0,0,.44,2.5,1.72,1.72,0,0,0,1.4.83,3.77,3.77,0,0,0,1.17,0,4,4,0,0,0,.92-0.34l1.13,2.18q-0.39.22-.78,0.4a4.6,4.6,0,0,1-.83.29,5.31,5.31,0,0,1-1,.14,7.49,7.49,0,0,1-1.16,0,4.78,4.78,0,0,1-3.24-1.42,4.68,4.68,0,0,1-1.08-3.24v-9.66l-1.91-.19v-2.53Z"/><path class="cls-4" d="M183.22,471.75a11.59,11.59,0,0,1-3.13-1.29,10.44,10.44,0,0,1-2.69-2.29,11,11,0,0,1-1.87-3.3,12.53,12.53,0,0,1-.7-4.34,11.46,11.46,0,0,1,.7-4.2,8.85,8.85,0,0,1,1.87-3,8.21,8.21,0,0,1,2.69-1.85,10.61,10.61,0,0,1,3.13-.8l0.55,2.51a8.89,8.89,0,0,0-1.83.49,5.88,5.88,0,0,0-1.94,1.23,6.8,6.8,0,0,0-1.55,2.26,9.26,9.26,0,0,0,1.66,9.78,8.15,8.15,0,0,0,2,1.58,8.65,8.65,0,0,0,1.7.76Z"/><path class="cls-4" d="M189,464.85l3.52,0.3V455.1l-3,2.06-1.38-2,5.25-3.55,2,0.17v13.57l3.45,0.28v2.53l-9.83-.83v-2.53Z"/><path class="cls-4" d="M202.8,466l3.52,0.28V456.23l-3,2.08-1.38-1.95,5.25-3.59,2,0.16V466.5l3.45,0.26v2.53l-9.83-.76V466Z"/><path class="cls-4" d="M216.93,472a7.42,7.42,0,0,0,1.7-.49,6.52,6.52,0,0,0,2-1.26,7.16,7.16,0,0,0,1.62-2.27,8.16,8.16,0,0,0,.67-3.52,9.68,9.68,0,0,0-.63-3.72,8.49,8.49,0,0,0-1.55-2.51,7.42,7.42,0,0,0-1.95-1.54,10.34,10.34,0,0,0-1.83-.79l0.55-2.42a12.28,12.28,0,0,1,3.13,1.3,10.34,10.34,0,0,1,2.69,2.28,10.92,10.92,0,0,1,1.88,3.29,12.39,12.39,0,0,1,.7,4.31,11.58,11.58,0,0,1-.7,4.23,8.89,8.89,0,0,1-1.88,3,8.28,8.28,0,0,1-2.69,1.86,10.06,10.06,0,0,1-3.13.79Z"/><path class="cls-4" d="M368.58,474.73V472.2h2.72v-6.44h-2.74v-2.53h2.74v-0.64a4.24,4.24,0,0,1,.38-1.87,3.78,3.78,0,0,1,1-1.29,4.14,4.14,0,0,1,1.44-.76,6,6,0,0,1,1.7-.25,10.78,10.78,0,0,1,2.62.24,6.65,6.65,0,0,1,1.7.64l-0.88,2.29a10.31,10.31,0,0,0-1.14-.45,5,5,0,0,0-1.58-.19,2.26,2.26,0,0,0-1.74.58,2.52,2.52,0,0,0-.5,1.69l4.84,0v2.53l-4.84,0v6.44l4.87,0v2.53C374.93,474.7,372.82,474.71,368.58,474.73Z"/><path class="cls-4" d="M382.86,463.9a12.76,12.76,0,0,1,2.13-.74,12.23,12.23,0,0,1,2.87-.34,6.35,6.35,0,0,1,2,.26,3.34,3.34,0,0,1,1.36.79,3,3,0,0,1,.75,1.25,5.49,5.49,0,0,1,.23,1.65q0,1.17-.08,2t-0.08,1.47a9.85,9.85,0,0,0,0,1.08c0,0.21.05,0.42,0.07,0.62l1.5,0v2.53l-3.87.06-0.3-1.56h-0.11a4.06,4.06,0,0,1-1.31,1.25,4.41,4.41,0,0,1-2.29.55,3.85,3.85,0,0,1-2.73-.89,3.11,3.11,0,0,1-1-2.43,3.68,3.68,0,0,1,.35-1.67,3,3,0,0,1,1-1.16,5,5,0,0,1,1.63-.69,9.58,9.58,0,0,1,2.12-.25c0.27,0,.57,0,0.87,0l1.12,0.08a2.36,2.36,0,0,0,0-.46v-0.44a1.45,1.45,0,0,0-.5-1.25,2.43,2.43,0,0,0-1.49-.36,7,7,0,0,0-2.11.33,13.72,13.72,0,0,0-1.58.62Zm3.93,8.39a2.53,2.53,0,0,0,2.44-1.3v-1.38l-0.68-.09a7.94,7.94,0,0,0-1,0,4.78,4.78,0,0,0-.87.09,2.92,2.92,0,0,0-.78.26,1.54,1.54,0,0,0-.55.46,1.09,1.09,0,0,0-.2.67,1.29,1.29,0,0,0,.38,1A1.75,1.75,0,0,0,386.79,472.29Z"/><path class="cls-4" d="M407.22,473.07a6.8,6.8,0,0,1-2.21,1.12,9.81,9.81,0,0,1-2.65.42,7.46,7.46,0,0,1-2.66-.38,5.28,5.28,0,0,1-2-1.19,5.08,5.08,0,0,1-1.21-1.9,7.08,7.08,0,0,1-.42-2.48,6.53,6.53,0,0,1,.48-2.59,5.58,5.58,0,0,1,1.35-1.94,6,6,0,0,1,2-1.23,8,8,0,0,1,2.56-.46,9.43,9.43,0,0,1,2.42.24,11.11,11.11,0,0,1,1.73.53v4l-2.54.06v-2.12a6.48,6.48,0,0,0-1.43-.13,4.39,4.39,0,0,0-1.28.22,3.22,3.22,0,0,0-1.13.64,3.35,3.35,0,0,0-.81,1.09,3.55,3.55,0,0,0-.31,1.55,3.51,3.51,0,0,0,.25,1.35,3.07,3.07,0,0,0,1.86,1.77,4.08,4.08,0,0,0,1.51.23,5.46,5.46,0,0,0,2.16-.42,9,9,0,0,0,1.26-.67Z"/><path class="cls-4" d="M411.14,465.11l-2.28.06v-2.53l2.28-.06V460l3-.93v3.47l6-.18v2.53l-6,.18v3.29a3.88,3.88,0,0,0,.67,2.55,2.25,2.25,0,0,0,1.87.74,4,4,0,0,0,1.13-.18,4.41,4.41,0,0,0,.91-0.41,5.46,5.46,0,0,0,.74-0.53l0.61-.52,1.38,2a4.64,4.64,0,0,1-1,.87,8.69,8.69,0,0,1-1.27.71,8.26,8.26,0,0,1-1.42.49,6.85,6.85,0,0,1-1.45.2,4.85,4.85,0,0,1-3.89-1.33q-1.3-1.4-1.3-4.53v-3.29Z"/><path class="cls-4" d="M423.11,468a7.18,7.18,0,0,1,.44-2.59,5.44,5.44,0,0,1,3.17-3.2,7.53,7.53,0,0,1,2.5-.49,7.13,7.13,0,0,1,2.59.34,5.1,5.1,0,0,1,1.93,1.16,4.92,4.92,0,0,1,1.19,1.87,7.82,7.82,0,0,1,0,5.06,5.46,5.46,0,0,1-3.17,3.21,7.47,7.47,0,0,1-2.5.49,7.09,7.09,0,0,1-2.59-.35,5.11,5.11,0,0,1-1.93-1.17,4.94,4.94,0,0,1-1.19-1.88A7.22,7.22,0,0,1,423.11,468Zm3.09-.1a4.49,4.49,0,0,0,.21,1.4,3.3,3.3,0,0,0,.6,1.11,2.57,2.57,0,0,0,.94.71,2.85,2.85,0,0,0,1.27.22,3,3,0,0,0,2.18-.93,4.66,4.66,0,0,0,.06-5.26,2.61,2.61,0,0,0-2.24-.9,3.66,3.66,0,0,0-1.2.24,2.48,2.48,0,0,0-1,.67,3.24,3.24,0,0,0-.63,1.13A5,5,0,0,0,426.2,467.88Z"/><path class="cls-4" d="M437,470.7l2.86-.11v-6.44l-2.86.11v-2.53l5.19-.21,0.35,1.5h0.09a6.5,6.5,0,0,1,1.48-1.33,3.78,3.78,0,0,1,1.94-.59,2.51,2.51,0,0,1,2.18.91,5.39,5.39,0,0,1,.79,3.34l-2.7.12a2.25,2.25,0,0,0-.24-1.2,0.81,0.81,0,0,0-.77-0.35,2.37,2.37,0,0,0-1.49.52,5,5,0,0,0-1,1.1v4.9l5-.22v2.53c-4.34.19-6.52,0.29-10.86,0.46V470.7Z"/><path class="cls-4" d="M451.33,470.09l4.06-.19v-6.44l-4.06.19v-2.53l7.05-.34v9l4.26-.22v2.53c-4.53.24-6.79,0.35-11.32,0.56C451.33,471.6,451.33,471.1,451.33,470.09Zm3.5-12.26a1.71,1.71,0,0,1,.53-1.24,2.14,2.14,0,0,1,1.47-.58,2.17,2.17,0,0,1,1.54.43,1.48,1.48,0,0,1,.58,1.19,1.57,1.57,0,0,1-.58,1.24,2.47,2.47,0,0,1-1.54.55,2.06,2.06,0,0,1-1.47-.4A1.46,1.46,0,0,1,454.84,457.82Z"/><path class="cls-4" d="M465.88,461.17a13.27,13.27,0,0,1,2.13-.83,12.43,12.43,0,0,1,2.87-.46,6.25,6.25,0,0,1,2,.17,3.17,3.17,0,0,1,1.36.74A2.87,2.87,0,0,1,475,462a5.41,5.41,0,0,1,.23,1.64q0,1.17-.08,2t-0.08,1.48a9.87,9.87,0,0,0,0,1.08c0,0.21.05,0.42,0.07,0.62l1.5-.09v2.53l-3.87.23-0.3-1.55h-0.11a4.32,4.32,0,0,1-1.31,1.3,4.54,4.54,0,0,1-2.29.65,3.71,3.71,0,0,1-2.73-.77,3,3,0,0,1-1-2.38,3.78,3.78,0,0,1,.35-1.69,3.22,3.22,0,0,1,1-1.21,5.2,5.2,0,0,1,1.63-.76,9.73,9.73,0,0,1,2.12-.34c0.27,0,.56,0,0.87,0l1.12,0a2.41,2.41,0,0,0,0-.46V463.9a1.39,1.39,0,0,0-.5-1.23,2.36,2.36,0,0,0-1.49-.29,7.14,7.14,0,0,0-2.1.42,14.27,14.27,0,0,0-1.58.68Zm3.92,8.22a2.88,2.88,0,0,0,1.64-.49,2.94,2.94,0,0,0,.8-0.91v-1.38l-0.68-.06a7.87,7.87,0,0,0-1,0,4.85,4.85,0,0,0-.87.13,3,3,0,0,0-.78.3,1.63,1.63,0,0,0-.55.48,1.13,1.13,0,0,0-.2.68,1.24,1.24,0,0,0,.38,1A1.7,1.7,0,0,0,469.8,469.39Z"/><path class="cls-4" d="M479.63,455l4.91-.31v10.63a4.76,4.76,0,0,0,.44,2.43,1.44,1.44,0,0,0,1.41.6,4,4,0,0,0,1.17-.23,4.81,4.81,0,0,0,.92-0.49l1.13,2q-0.39.28-.78,0.52a5.46,5.46,0,0,1-.83.42,5.91,5.91,0,0,1-1,.29,7.74,7.74,0,0,1-1.16.16,4.13,4.13,0,0,1-3.25-.9,4,4,0,0,1-1.08-3.06v-9.66l-1.91.12V455Z"/><path class="cls-4" d="M493.25,472.91c4.09-.28,6.14-0.42,10.22-0.72v2.46c-4.09.3-6.13,0.44-10.22,0.72v-2.46Z"/><path class="cls-4" d="M505.27,453.27l4.65-.35v5.89H510a4.34,4.34,0,0,1,1.47-1.29,5.76,5.76,0,0,1,3.78-.5,2.76,2.76,0,0,1,1.27.66,3.22,3.22,0,0,1,.83,1.37,7,7,0,0,1,.3,2.22v7.15l-3,.24v-6.53a2.67,2.67,0,0,0-.6-2,1.94,1.94,0,0,0-1.57-.5,2.81,2.81,0,0,0-1.56.64,3.13,3.13,0,0,0-1,1.4V469l-3,.23V455.67l-1.66.12v-2.53Z"/><path class="cls-4" d="M531.37,466a4.62,4.62,0,0,1-.77.61,8.24,8.24,0,0,1-1.1.59,9.33,9.33,0,0,1-3,.76,7.59,7.59,0,0,1-2.64-.19,4.6,4.6,0,0,1-3.2-2.85,6.81,6.81,0,0,1-.43-2.51,7,7,0,0,1,.48-2.7,6,6,0,0,1,1.32-2,6.19,6.19,0,0,1,2-1.3,8,8,0,0,1,2.44-.59,7.39,7.39,0,0,1,1.81.08,4.52,4.52,0,0,1,1.71.65,3.75,3.75,0,0,1,1.28,1.4,4.85,4.85,0,0,1,.5,2.35,11.25,11.25,0,0,1-.23,2.16l-8.28.71a2.51,2.51,0,0,0,.31,1.22,2.18,2.18,0,0,0,.76.76,3,3,0,0,0,1.08.38,5.29,5.29,0,0,0,1.3,0,7,7,0,0,0,2.27-.52,5.36,5.36,0,0,0,1.44-.91Zm-5-7.78a4,4,0,0,0-1.13.26,3.5,3.5,0,0,0-1,.56,3,3,0,0,0-.7.84,2.58,2.58,0,0,0-.32,1.08l5.66-.48A2.07,2.07,0,0,0,526.4,458.26Z"/><path class="cls-4" d="M534.89,450.85l4.9-.44V461a4.69,4.69,0,0,0,.44,2.42,1.4,1.4,0,0,0,1.4.56,4,4,0,0,0,1.17-.26,5,5,0,0,0,.92-0.51l1.13,2q-0.39.29-.78,0.55a5.65,5.65,0,0,1-.83.45,6,6,0,0,1-1,.32,7.79,7.79,0,0,1-1.16.19,4,4,0,0,1-3.24-.81,3.94,3.94,0,0,1-1.08-3v-9.66l-1.91.17v-2.53Z"/><path class="cls-4" d="M546.68,454.36l3.91-.38,0.34,1.35H551a4.9,4.9,0,0,1,3.86-2.08,5.28,5.28,0,0,1,1.94.14,3.32,3.32,0,0,1,1.52.89,4.34,4.34,0,0,1,1,1.69,8.27,8.27,0,0,1,.34,2.56,8.83,8.83,0,0,1-.39,2.7,6.4,6.4,0,0,1-1.13,2.13,5.56,5.56,0,0,1-1.79,1.45,6.68,6.68,0,0,1-2.41.68,9.35,9.35,0,0,1-1.4,0,3.6,3.6,0,0,1-1.15-.22V470l-3,.29V456.73l-1.72.16v-2.53Zm7.31,1.5a3.31,3.31,0,0,0-1.6.59,2.59,2.59,0,0,0-1,1.41v4.78a2.22,2.22,0,0,0,.93.31,5,5,0,0,0,1.23,0,3.42,3.42,0,0,0,1.2-.34,2.81,2.81,0,0,0,1-.8,3.85,3.85,0,0,0,.64-1.28,6.22,6.22,0,0,0,.23-1.79,3.13,3.13,0,0,0-.74-2.27A2.17,2.17,0,0,0,554,455.86Z"/><path class="cls-4" d="M572.74,462a4.76,4.76,0,0,1-.77.62,8.45,8.45,0,0,1-1.1.61,9.46,9.46,0,0,1-3,.83,7.53,7.53,0,0,1-2.63-.14,4.46,4.46,0,0,1-3.19-2.79,6.75,6.75,0,0,1-.42-2.5,7.14,7.14,0,0,1,.48-2.71,6.13,6.13,0,0,1,1.32-2,6.36,6.36,0,0,1,2-1.34,8.11,8.11,0,0,1,2.44-.64,7.35,7.35,0,0,1,1.8,0,4.42,4.42,0,0,1,1.71.61,3.63,3.63,0,0,1,1.27,1.37,4.8,4.8,0,0,1,.49,2.34,11.33,11.33,0,0,1-.23,2.16l-8.27.88a2.47,2.47,0,0,0,.31,1.21,2.11,2.11,0,0,0,.76.75,3,3,0,0,0,1.08.36,5.27,5.27,0,0,0,1.3,0,7.11,7.11,0,0,0,2.26-.56,5.51,5.51,0,0,0,1.44-.94Zm-5-7.68a4,4,0,0,0-1.13.28,3.58,3.58,0,0,0-1,.58,3,3,0,0,0-.7.86,2.63,2.63,0,0,0-.32,1.09l5.65-.6A2,2,0,0,0,567.78,454.31Z"/><path class="cls-4" d="M575.16,460.41l2.85-.31c0-2.58,0-3.86,0-6.44l-2.85.31v-2.53l5.17-.57,0.34,1.48h0.09a7.21,7.21,0,0,1,1.47-1.43,4,4,0,0,1,1.93-.73,2.33,2.33,0,0,1,2.17.76,5.14,5.14,0,0,1,.79,3.29l-2.69.31a2.16,2.16,0,0,0-.24-1.18,0.75,0.75,0,0,0-.77-0.29,2.53,2.53,0,0,0-1.48.63,5.49,5.49,0,0,0-1,1.17v4.9l5-.57v2.53c-4.33.5-6.49,0.74-10.82,1.22v-2.53Z"/><path class="cls-4" d="M598.48,465.11a9.69,9.69,0,0,1-3.12-.63,7.72,7.72,0,0,1-2.68-1.73,8.33,8.33,0,0,1-1.87-2.91,11.33,11.33,0,0,1-.7-4.2,12.71,12.71,0,0,1,.7-4.35,11.64,11.64,0,0,1,1.87-3.38,11.09,11.09,0,0,1,2.68-2.41,12.91,12.91,0,0,1,3.12-1.46l0.55,2.39a10.9,10.9,0,0,0-1.82.88,7.92,7.92,0,0,0-1.94,1.64,9.06,9.06,0,0,0-1.55,2.59,10,10,0,0,0-.63,3.76,8,8,0,0,0,.67,3.48,6.67,6.67,0,0,0,1.62,2.19,6.06,6.06,0,0,0,2,1.17,7.1,7.1,0,0,0,1.7.4Z"/><path class="cls-4" d="M604.24,457l3.51-.44V446.51l-3,2.7-1.38-1.67,5.23-4.66,2-.26v13.57l3.44-.44v2.53l-9.79,1.25V457Z"/><path class="cls-4" d="M620.56,455.95a1.81,1.81,0,0,1,.52-1.31,2.15,2.15,0,0,1,1.3-.63,2,2,0,0,1,1.9.57,2.89,2.89,0,0,1,.64,2,4.73,4.73,0,0,1-.4,1.94,6,6,0,0,1-1,1.61,6.83,6.83,0,0,1-1.43,1.21,6.65,6.65,0,0,1-1.57.74l-0.62-1.18a7.66,7.66,0,0,0,1.11-.54,5.42,5.42,0,0,0,1-.77,4.34,4.34,0,0,0,.77-1,2.75,2.75,0,0,0,.36-1.15,3,3,0,0,1-1.17.19,1.54,1.54,0,0,1-.79-0.26,1.25,1.25,0,0,1-.45-0.58A2.21,2.21,0,0,1,620.56,455.95Z"/><path class="cls-4" d="M631.74,453.37l3.5-.49V442.82l-3,2.75-1.37-1.65,5.22-4.73,2-.29v13.57l3.43-.49v2.53l-9.78,1.39v-2.53Z"/><path class="cls-4" d="M645.48,451.4l3.5-.52V440.84l-3,2.77L644.59,442l5.22-4.77,2-.3v13.57l3.43-.52v2.53l-9.77,1.45V451.4Z"/><path class="cls-4" d="M659.53,454.2a9.23,9.23,0,0,0,1.69-.87,8.93,8.93,0,0,0,2-1.71,9.74,9.74,0,0,0,1.61-2.63,9.3,9.3,0,0,0,.66-3.67,8.67,8.67,0,0,0-.63-3.58,6.23,6.23,0,0,0-1.54-2.16,5.39,5.39,0,0,0-1.93-1.1,8.45,8.45,0,0,0-1.82-.38l0.55-2.55a10.07,10.07,0,0,1,3.11.6,7.47,7.47,0,0,1,2.67,1.68,8.12,8.12,0,0,1,1.86,2.87,11.17,11.17,0,0,1,.7,4.16,13,13,0,0,1-.7,4.39,11.94,11.94,0,0,1-1.86,3.42,11.42,11.42,0,0,1-2.67,2.46,12.35,12.35,0,0,1-3.11,1.49Z"/><path class="cls-4" d="M50.86,398.87v-2.53l2.7,0.43v-6.44l-2.72-.43c0-1,0-1.52,0-2.53l2.72,0.43v-0.64a3.87,3.87,0,0,1,.38-1.8,3,3,0,0,1,1-1.13,3.43,3.43,0,0,1,1.43-.53,5.73,5.73,0,0,1,1.68,0,11.54,11.54,0,0,1,2.6.66,7.87,7.87,0,0,1,1.68.91l-0.87,2.14a12.27,12.27,0,0,0-1.13-.63,5.45,5.45,0,0,0-1.57-.45,2,2,0,0,0-1.73.3,2.21,2.21,0,0,0-.49,1.61l4.8,0.74v2.53l-4.8-.74v6.44L61.35,398v2.53C57.15,399.86,55.05,399.53,50.86,398.87Z"/><path class="cls-4" d="M65,390.34a11.17,11.17,0,0,1,2.12-.39,11.8,11.8,0,0,1,2.85.12,6.91,6.91,0,0,1,2,.59,4.14,4.14,0,0,1,1.35,1,3.75,3.75,0,0,1,.74,1.37,5.91,5.91,0,0,1,.23,1.69q0,1.17-.08,2c-0.05.54-.08,1-0.08,1.46a10.13,10.13,0,0,0,0,1.09c0,0.21.05,0.43,0.07,0.63l1.49,0.22v2.53l-3.84-.56-0.3-1.61-0.11,0a3.19,3.19,0,0,1-1.3,1,4,4,0,0,1-2.27.18,4.47,4.47,0,0,1-2.71-1.33,3.66,3.66,0,0,1-1-2.59,3.35,3.35,0,0,1,.35-1.61,2.39,2.39,0,0,1,1-1,4.23,4.23,0,0,1,1.61-.42,9.26,9.26,0,0,1,2.1.09q0.41,0.06.86,0.17l1.11,0.26a2.27,2.27,0,0,0,0-.45v-0.44a1.7,1.7,0,0,0-.5-1.33,2.76,2.76,0,0,0-1.48-.6,6.64,6.64,0,0,0-2.09,0,11.76,11.76,0,0,0-1.57.36Zm3.89,9a2.52,2.52,0,0,0,1.63-.16,2.17,2.17,0,0,0,.79-0.75v-1.38l-0.68-.2a8.29,8.29,0,0,0-1-.2,4.63,4.63,0,0,0-.86,0,2.56,2.56,0,0,0-.77.14,1.21,1.21,0,0,0-.54.37,1,1,0,0,0-.2.64,1.51,1.51,0,0,0,.37,1.06A2,2,0,0,0,68.9,399.36Z"/><path class="cls-4" d="M89.18,403.45a5.66,5.66,0,0,1-2.2.76,9.32,9.32,0,0,1-2.63,0,8.17,8.17,0,0,1-2.65-.81,6.55,6.55,0,0,1-1.95-1.51,6.3,6.3,0,0,1-1.2-2.09,7.69,7.69,0,0,1-.41-2.54,6,6,0,0,1,.48-2.51A4.43,4.43,0,0,1,80,393a4.87,4.87,0,0,1,2-.9,7.52,7.52,0,0,1,2.54,0,10.13,10.13,0,0,1,2.41.64,12.94,12.94,0,0,1,1.72.81v4l-2.52-.35v-2.12a6.91,6.91,0,0,0-1.42-.36,4.15,4.15,0,0,0-1.27,0,2.57,2.57,0,0,0-1.92,1.42,3.25,3.25,0,0,0-.31,1.5,3.85,3.85,0,0,0,.25,1.39,3.85,3.85,0,0,0,1.84,2.07,4.48,4.48,0,0,0,1.5.48,5.09,5.09,0,0,0,2.14-.07,7.31,7.31,0,0,0,1.25-.47Z"/><path class="cls-4" d="M93.08,396.12l-2.27-.31c0-1,0-1.52,0-2.53l2.27,0.31c0-1,0-1.57,0-2.62l3-.45V394l6,0.8v2.53l-6-.8v3.29a4.38,4.38,0,0,0,.66,2.65,2.66,2.66,0,0,0,1.86,1,3.83,3.83,0,0,0,1.12,0,3.75,3.75,0,0,0,.91-0.26,4.33,4.33,0,0,0,.73-0.41l0.61-.43,1.38,2.25a3.67,3.67,0,0,1-1,.71,7.14,7.14,0,0,1-1.26.5,7.25,7.25,0,0,1-1.41.26,6.6,6.6,0,0,1-1.44,0,5.68,5.68,0,0,1-3.86-2,7.45,7.45,0,0,1-1.29-4.74v-3.29Z"/><path class="cls-4" d="M105,400.92a6.65,6.65,0,0,1,.44-2.52,4.42,4.42,0,0,1,1.24-1.75,4.51,4.51,0,0,1,1.92-.94,7,7,0,0,1,2.49-.08,7.79,7.79,0,0,1,2.58.76,6.34,6.34,0,0,1,1.92,1.47,6.08,6.08,0,0,1,1.18,2.07,7.8,7.8,0,0,1,.4,2.53,6.68,6.68,0,0,1-.44,2.52,4.45,4.45,0,0,1-1.24,1.76,4.5,4.5,0,0,1-1.91.95,7,7,0,0,1-2.49.09,7.75,7.75,0,0,1-2.58-.77,6.36,6.36,0,0,1-1.92-1.48,6.12,6.12,0,0,1-1.18-2.07A7.82,7.82,0,0,1,105,400.92Zm3.07,0.4a4.84,4.84,0,0,0,.21,1.43,4,4,0,0,0,.6,1.2,3.25,3.25,0,0,0,.94.87,3.15,3.15,0,0,0,1.26.43,2.61,2.61,0,0,0,2.17-.58,3.34,3.34,0,0,0,.84-2.59,4.42,4.42,0,0,0-.78-2.66,3.1,3.1,0,0,0-2.23-1.26,3.41,3.41,0,0,0-1.19,0,2,2,0,0,0-1,.51,2.62,2.62,0,0,0-.63,1A4.71,4.71,0,0,0,108,401.32Z"/><path class="cls-4" d="M118.82,405.89l2.85,0.35c0-2.58,0-3.86,0-6.44l-2.85-.35c0-1,0-1.52,0-2.53l5.16,0.63,0.34,1.56h0.09a5.1,5.1,0,0,1,1.47-1.09,3.39,3.39,0,0,1,1.93-.28A3,3,0,0,1,130,399a6,6,0,0,1,.79,3.47l-2.69-.32a2.49,2.49,0,0,0-.24-1.24,1,1,0,0,0-.77-0.47,2.08,2.08,0,0,0-1.48.28,3.9,3.9,0,0,0-1,.94v4.9l5,0.59v2.53c-4.32-.51-6.49-0.77-10.81-1.3C118.83,407.41,118.82,406.9,118.82,405.89Z"/><path class="cls-4" d="M133.05,407.59l4,0.46c0-2.58,0-3.86,0-6.44l-4-.46c0-1,0-1.52,0-2.53l7,0.8c0,3.59,0,5.38,0,9l4.25,0.47c0,1,0,1.52,0,2.53-4.51-.49-6.77-0.75-11.27-1.27C133.05,409.11,133.05,408.6,133.05,407.59Zm3.49-11.7a1.45,1.45,0,0,1,.53-1.16,1.86,1.86,0,0,1,1.47-.34,2.5,2.5,0,0,1,1.54.68,1.76,1.76,0,0,1,.57,1.28,1.32,1.32,0,0,1-.57,1.14,2.17,2.17,0,0,1-1.54.3,2.37,2.37,0,0,1-1.47-.64A1.73,1.73,0,0,1,136.54,395.89Z"/><path class="cls-4" d="M147.54,401a11.54,11.54,0,0,1,2.13-.48,11.87,11.87,0,0,1,2.86,0,6.73,6.73,0,0,1,2,.5,3.91,3.91,0,0,1,1.35,1,3.55,3.55,0,0,1,.75,1.34,5.79,5.79,0,0,1,.23,1.68c0,0.78,0,1.45-.08,2s-0.08,1-.08,1.46a10,10,0,0,0,0,1.09c0,0.21.05,0.43,0.07,0.63l1.49,0.15v2.53l-3.86-.4-0.3-1.6h-0.11a3.4,3.4,0,0,1-1.3,1.09,4.11,4.11,0,0,1-2.28.28,4.29,4.29,0,0,1-2.72-1.21,3.5,3.5,0,0,1-1-2.55,3.43,3.43,0,0,1,.35-1.63,2.55,2.55,0,0,1,1-1,4.41,4.41,0,0,1,1.62-.49,9.31,9.31,0,0,1,2.11,0c0.27,0,.56.07,0.87,0.14l1.12,0.21a2.3,2.3,0,0,0,0-.46v-0.44a1.63,1.63,0,0,0-.5-1.31,2.66,2.66,0,0,0-1.48-.54,6.71,6.71,0,0,0-2.1.08,12.24,12.24,0,0,0-1.57.43Zm3.91,8.86a2.58,2.58,0,0,0,1.64-.23,2.32,2.32,0,0,0,.8-0.78v-1.38l-0.68-.18a8.18,8.18,0,0,0-1-.16,4.67,4.67,0,0,0-.86,0,2.64,2.64,0,0,0-.77.17,1.29,1.29,0,0,0-.55.39,1,1,0,0,0-.2.65,1.45,1.45,0,0,0,.37,1A1.94,1.94,0,0,0,151.45,409.88Z"/><path class="cls-4" d="M161.26,397.07l4.9,0.49c0,4.25,0,6.38,0,10.63a5.2,5.2,0,0,0,.44,2.5,1.72,1.72,0,0,0,1.4.83,3.77,3.77,0,0,0,1.17,0,4,4,0,0,0,.92-0.34l1.13,2.18q-0.39.22-.78,0.4a4.59,4.59,0,0,1-.83.29,5.31,5.31,0,0,1-1,.14,7.52,7.52,0,0,1-1.16,0,4.78,4.78,0,0,1-3.24-1.42,4.68,4.68,0,0,1-1.08-3.24v-9.66l-1.91-.19C161.26,398.59,161.26,398.08,161.26,397.07Z"/><path class="cls-4" d="M174.85,417.19c4.08,0.38,6.13.57,10.21,0.93v2.46c-4.09-.36-6.13-0.55-10.21-0.93v-2.46Z"/><path class="cls-4" d="M186.85,399.49l4.65,0.4c0,2.36,0,3.53,0,5.89h0.09a3.45,3.45,0,0,1,1.47-1,4.82,4.82,0,0,1,2.16-.26,5.64,5.64,0,0,1,1.61.36,3.41,3.41,0,0,1,1.27.86,4,4,0,0,1,.83,1.51,7.5,7.5,0,0,1,.3,2.27v7.15l-3-.25v-6.53a3.05,3.05,0,0,0-.6-2.07,2.27,2.27,0,0,0-1.57-.75,2.45,2.45,0,0,0-1.56.39,2.5,2.5,0,0,0-1,1.24c0,2.93,0,4.4,0,7.34l-3-.26c0-5.43,0-8.14,0-13.57l-1.66-.14C186.85,401,186.85,400.5,186.85,399.49Z"/><path class="cls-4" d="M213,416.49a3.72,3.72,0,0,1-.77.48,6.89,6.89,0,0,1-1.11.41,8.1,8.1,0,0,1-1.39.26,8.8,8.8,0,0,1-1.61,0,8.15,8.15,0,0,1-2.64-.62,5.76,5.76,0,0,1-3.2-3.37,7.37,7.37,0,0,1-.43-2.58,6.47,6.47,0,0,1,.48-2.62,4.76,4.76,0,0,1,1.32-1.79,5,5,0,0,1,2-1,7.42,7.42,0,0,1,2.44-.19,7.85,7.85,0,0,1,1.81.37,5.42,5.42,0,0,1,1.72.92,4.76,4.76,0,0,1,1.28,1.6,5.36,5.36,0,0,1,.49,2.43,10.7,10.7,0,0,1-.23,2.12l-8.29-.63a2.81,2.81,0,0,0,.31,1.27,2.75,2.75,0,0,0,.76.89A3.59,3.59,0,0,0,207,415a5.58,5.58,0,0,0,1.3.25,6.55,6.55,0,0,0,2.27-.15,4.38,4.38,0,0,0,1.44-.67Zm-5-8.59a3.7,3.7,0,0,0-1.13.08,2.88,2.88,0,0,0-1,.41,2.34,2.34,0,0,0-.7.73,2.27,2.27,0,0,0-.32,1l5.66,0.44A2.48,2.48,0,0,0,208,407.9Z"/><path class="cls-4" d="M216.47,401.86l4.9,0.35c0,4.25,0,6.38,0,10.63a5.11,5.11,0,0,0,.44,2.49,1.66,1.66,0,0,0,1.41.79,3.8,3.8,0,0,0,1.17-.07,4.15,4.15,0,0,0,.92-0.36l1.13,2.15q-0.39.23-.78,0.42a4.71,4.71,0,0,1-.83.31,5.41,5.41,0,0,1-1,.16,7.54,7.54,0,0,1-1.16,0,4.66,4.66,0,0,1-3.25-1.33,4.56,4.56,0,0,1-1.08-3.21c0-3.86,0-5.8,0-9.66l-1.91-.14v-2.53Z"/><path class="cls-4" d="M228.29,407.29l3.92,0.26,0.35,1.4h0.09a4.14,4.14,0,0,1,3.87-1.46,5.7,5.7,0,0,1,1.95.45,4.15,4.15,0,0,1,1.52,1.14,5.31,5.31,0,0,1,1,1.85,8.8,8.8,0,0,1,.35,2.62,8.21,8.21,0,0,1-.39,2.63,5.22,5.22,0,0,1-1.13,1.94,4.45,4.45,0,0,1-1.8,1.15,6.12,6.12,0,0,1-2.42.29,9.69,9.69,0,0,1-1.4-.19A4.1,4.1,0,0,1,233,419v4.71l-3-.19c0-5.43,0-8.14,0-13.57l-1.73-.11v-2.53Zm7.33,2.68a2.92,2.92,0,0,0-1.6.34,2.08,2.08,0,0,0-1,1.25v4.78a2.65,2.65,0,0,0,.93.46,5.3,5.3,0,0,0,1.23.23,3.13,3.13,0,0,0,1.2-.14,2.25,2.25,0,0,0,1-.64,3.15,3.15,0,0,0,.64-1.18,5.83,5.83,0,0,0,.23-1.76,3.59,3.59,0,0,0-.74-2.39A2.56,2.56,0,0,0,235.61,410Z"/><path class="cls-4" d="M254.42,419.14a3.81,3.81,0,0,1-.77.5,7,7,0,0,1-1.11.44,8.26,8.26,0,0,1-1.39.29,8.9,8.9,0,0,1-1.61,0,8.07,8.07,0,0,1-2.64-.56,5.6,5.6,0,0,1-3.2-3.3,7.29,7.29,0,0,1-.43-2.57,6.54,6.54,0,0,1,.48-2.63,4.9,4.9,0,0,1,1.32-1.82,5.16,5.16,0,0,1,2-1,7.49,7.49,0,0,1,2.44-.24,7.75,7.75,0,0,1,1.81.33,5.29,5.29,0,0,1,1.72.89,4.6,4.6,0,0,1,1.28,1.58,5.28,5.28,0,0,1,.5,2.42,10.75,10.75,0,0,1-.23,2.13l-8.3-.46a2.77,2.77,0,0,0,.31,1.26,2.67,2.67,0,0,0,.76.87,3.49,3.49,0,0,0,1.08.53,5.53,5.53,0,0,0,1.3.22,6.61,6.61,0,0,0,2.27-.2,4.5,4.5,0,0,0,1.44-.7Zm-5-8.48a3.73,3.73,0,0,0-1.13.1,3,3,0,0,0-1,.43,2.41,2.41,0,0,0-.7.74,2.3,2.3,0,0,0-.32,1l5.67,0.32A2.42,2.42,0,0,0,249.44,410.65Z"/><path class="cls-4" d="M256.83,418l2.86,0.15v-6.44l-2.86-.15V409l5.19,0.26,0.35,1.53h0.09a5.69,5.69,0,0,1,1.48-1.19,3.54,3.54,0,0,1,1.94-.41,2.76,2.76,0,0,1,2.18,1.11,5.74,5.74,0,0,1,.79,3.42l-2.7-.13a2.37,2.37,0,0,0-.24-1.22,0.9,0.9,0,0,0-.77-0.42,2.2,2.2,0,0,0-1.49.39,4.34,4.34,0,0,0-1,1v4.9l5,0.24V421c-4.34-.2-6.51-0.31-10.86-0.54V418Z"/><path class="cls-4" d="M280.26,426.44a11.08,11.08,0,0,1-3.14-1.14,9.71,9.71,0,0,1-2.7-2.16,10.3,10.3,0,0,1-1.88-3.21,12.21,12.21,0,0,1-.7-4.31,11.72,11.72,0,0,1,.7-4.24,9.44,9.44,0,0,1,1.88-3.08,8.8,8.8,0,0,1,2.7-2,11.06,11.06,0,0,1,3.14-1l0.55,2.48a9.3,9.3,0,0,0-1.83.58,6.32,6.32,0,0,0-1.95,1.32,7.28,7.28,0,0,0-1.56,2.34,9.12,9.12,0,0,0-.63,3.65,8.69,8.69,0,0,0,.67,3.59,8.36,8.36,0,0,0,1.63,2.45,7.61,7.61,0,0,0,2,1.48,8.22,8.22,0,0,0,1.71.68Z"/><path class="cls-4" d="M286,419.26l3.53,0.13V409.33l-3,2.21-1.38-1.89,5.26-3.81,2,0.07v13.57l3.46,0.11v2.53l-9.85-.34v-2.53Z"/><path class="cls-4" d="M302.46,420.86a1.53,1.53,0,0,1,.52-1.23,1.85,1.85,0,0,1,1.3-.42,2.35,2.35,0,0,1,1.91.88,3.3,3.3,0,0,1,.65,2.06,4.27,4.27,0,0,1-.4,1.88,4.79,4.79,0,0,1-1,1.44,5.45,5.45,0,0,1-1.44,1,5.72,5.72,0,0,1-1.58.48l-0.62-1.28a6.54,6.54,0,0,0,1.12-.36,4.36,4.36,0,0,0,1-.6,3.42,3.42,0,0,0,.77-0.86,2.38,2.38,0,0,0,.36-1.09,2.94,2.94,0,0,1-1.18,0,1.84,1.84,0,0,1-.8-0.39,1.56,1.56,0,0,1-.45-0.66A2.38,2.38,0,0,1,302.46,420.86Z"/><path class="cls-4" d="M313.72,420.09l3.53,0.08V410.12l-3,2.26-1.38-1.87,5.26-3.88,2,0v13.57l3.46,0.07v2.53l-9.85-.2v-2.53Z"/><path class="cls-4" d="M327.56,420.36l3.53,0.05V410.37l-3,2.28-1.38-1.86,5.26-3.92,2,0v13.57l3.46,0V423l-9.85-.13v-2.53Z"/><path class="cls-4" d="M341.72,425.44a7.87,7.87,0,0,0,1.71-.59,7.13,7.13,0,0,0,2-1.39,7.81,7.81,0,0,0,1.63-2.37,8.45,8.45,0,0,0,.67-3.56,9.36,9.36,0,0,0-.63-3.68,7.78,7.78,0,0,0-1.56-2.41,6.78,6.78,0,0,0-1.95-1.42,9.75,9.75,0,0,0-1.83-.67l0.55-2.46a11.56,11.56,0,0,1,3.14,1.11,9.44,9.44,0,0,1,2.7,2.11,10.06,10.06,0,0,1,1.88,3.17,13.33,13.33,0,0,1,0,8.54,9.66,9.66,0,0,1-1.88,3.12,9.08,9.08,0,0,1-2.7,2,10.62,10.62,0,0,1-3.14,1Z"/><path class="cls-4" d="M505.86,415.18l2.85-.21v-6.44l-2.85.21v-2.53l5.18-.39,0.34,1.49h0.09a6.84,6.84,0,0,1,1.47-1.38,3.88,3.88,0,0,1,1.93-.66,2.42,2.42,0,0,1,2.18.84,5.26,5.26,0,0,1,.79,3.32l-2.69.21a2.2,2.2,0,0,0-.24-1.19,0.78,0.78,0,0,0-.77-0.32,2.45,2.45,0,0,0-1.48.58,5.22,5.22,0,0,0-1,1.13v4.9l5-.39v2.53c-4.34.35-6.5,0.51-10.84,0.84v-2.53Z"/><path class="cls-4" d="M531.07,414.46a4.63,4.63,0,0,1-.77.61,8.26,8.26,0,0,1-1.1.59,9.33,9.33,0,0,1-3,.76,7.58,7.58,0,0,1-2.63-.19,4.6,4.6,0,0,1-3.2-2.85,6.81,6.81,0,0,1-.43-2.51,7,7,0,0,1,.48-2.7,6,6,0,0,1,1.32-2,6.19,6.19,0,0,1,2-1.3,8,8,0,0,1,2.44-.59,7.39,7.39,0,0,1,1.81.08,4.52,4.52,0,0,1,1.71.65,3.75,3.75,0,0,1,1.28,1.4,4.86,4.86,0,0,1,.5,2.35,11.26,11.26,0,0,1-.23,2.16l-8.28.71a2.51,2.51,0,0,0,.31,1.22,2.18,2.18,0,0,0,.76.76,3,3,0,0,0,1.08.38,5.31,5.31,0,0,0,1.3,0,7,7,0,0,0,2.27-.52,5.36,5.36,0,0,0,1.44-.91Zm-5-7.78a4,4,0,0,0-1.13.26,3.49,3.49,0,0,0-1,.56,3,3,0,0,0-.7.84,2.58,2.58,0,0,0-.32,1.08l5.66-.48A2.07,2.07,0,0,0,526.1,406.68Z"/><path class="cls-4" d="M545.14,413.29a7.39,7.39,0,0,1-2.21,1.28,10.14,10.14,0,0,1-2.64.6,7.24,7.24,0,0,1-2.66-.19,4.82,4.82,0,0,1-2-1.05,4.63,4.63,0,0,1-1.21-1.81,7.38,7.38,0,0,1,.07-5.07,6.14,6.14,0,0,1,1.35-2,6.56,6.56,0,0,1,2-1.37,8.3,8.3,0,0,1,2.55-.64,9.24,9.24,0,0,1,2.41.07,10.48,10.48,0,0,1,1.73.41v4l-2.53.24v-2.12a6.35,6.35,0,0,0-1.43,0,4.55,4.55,0,0,0-1.28.31,3.51,3.51,0,0,0-1.13.72,3.61,3.61,0,0,0-1.12,2.71,3.39,3.39,0,0,0,.25,1.33,2.78,2.78,0,0,0,1.85,1.64,4,4,0,0,0,1.51.13,5.69,5.69,0,0,0,2.15-.57,9.78,9.78,0,0,0,1.25-.76Z"/><path class="cls-4" d="M554,402l4.28-.43c0,3.2,0,4.8,0,8v1l1.75-.18v2.53l-3.63.37-0.53-1.65h-0.09a4.7,4.7,0,0,1-1.59,1.61,5.22,5.22,0,0,1-2.35.81,5.1,5.1,0,0,1-1.6-.07,2.55,2.55,0,0,1-1.23-.64,3.12,3.12,0,0,1-.78-1.35,7.5,7.5,0,0,1-.28-2.23c0-1.85,0-2.77,0-4.62l-1.31.13v-2.53l4.3-.41c0,2.61,0,3.92,0,6.53a3.31,3.31,0,0,0,.45,2,1.48,1.48,0,0,0,1.41.48,2.74,2.74,0,0,0,1.53-.66,3.13,3.13,0,0,0,1-1.34v-4.9l-1.29.13V402Z"/><path class="cls-4" d="M561.07,410.3l2.85-.29v-6.44l-2.85.29v-2.53l5.17-.54,0.34,1.48h0.09a7.13,7.13,0,0,1,1.47-1.42,4,4,0,0,1,1.93-.71,2.35,2.35,0,0,1,2.17.78,5.17,5.17,0,0,1,.79,3.29l-2.69.29a2.17,2.17,0,0,0-.24-1.18,0.76,0.76,0,0,0-.77-0.3,2.51,2.51,0,0,0-1.48.62,5.43,5.43,0,0,0-1,1.16v4.9l5-.53v2.53c-4.33.47-6.49,0.7-10.82,1.14V410.3Z"/><path class="cls-4" d="M584.41,415.17a9.74,9.74,0,0,1-3.12-.66,7.79,7.79,0,0,1-2.69-1.74,8.4,8.4,0,0,1-1.87-2.92,11.36,11.36,0,0,1-.7-4.2,12.66,12.66,0,0,1,.7-4.34,11.54,11.54,0,0,1,1.87-3.37,11,11,0,0,1,2.69-2.4,12.81,12.81,0,0,1,3.12-1.44l0.55,2.4a10.8,10.8,0,0,0-1.82.87,7.85,7.85,0,0,0-1.94,1.62,9,9,0,0,0-1.55,2.58,9.9,9.9,0,0,0-.63,3.75,8,8,0,0,0,.67,3.49,6.74,6.74,0,0,0,1.62,2.2,6.12,6.12,0,0,0,2,1.18,7.14,7.14,0,0,0,1.7.41Z"/><path class="cls-4" d="M590.17,407.09l3.51-.42V396.62l-3,2.68-1.38-1.68,5.23-4.62,2-.24c0,5.43,0,8.14,0,13.57l3.44-.42v2.53c-3.92.48-5.88,0.72-9.8,1.18v-2.53Z"/><path class="cls-4" d="M603.94,405.42l3.51-.44V394.93l-3,2.7L603,396l5.23-4.66,2-.26c0,5.43,0,8.14,0,13.57l3.44-.44v2.53c-3.92.51-5.87,0.76-9.79,1.25v-2.53Z"/><path class="cls-4" d="M620.26,404.37a1.81,1.81,0,0,1,.52-1.31,2.15,2.15,0,0,1,1.3-.63,2,2,0,0,1,1.9.57,2.89,2.89,0,0,1,.64,2,4.73,4.73,0,0,1-.4,1.94,6,6,0,0,1-1,1.61,6.83,6.83,0,0,1-1.43,1.21,6.65,6.65,0,0,1-1.57.74l-0.62-1.18a7.62,7.62,0,0,0,1.11-.54,5.41,5.41,0,0,0,1-.77,4.33,4.33,0,0,0,.77-1,2.74,2.74,0,0,0,.36-1.15,3,3,0,0,1-1.17.19,1.54,1.54,0,0,1-.79-0.26,1.25,1.25,0,0,1-.45-0.58A2.21,2.21,0,0,1,620.26,404.37Z"/><path class="cls-4" d="M631.44,401.79l3.5-.49V391.25l-3,2.75-1.37-1.65,5.22-4.73,2-.29V400.9l3.43-.49v2.53l-9.78,1.39v-2.53Z"/><path class="cls-4" d="M643.62,394.51a14.53,14.53,0,0,1,.44-3.73,8.93,8.93,0,0,1,1.23-2.79,6.32,6.32,0,0,1,1.9-1.83,6.43,6.43,0,0,1,2.46-.88,4.61,4.61,0,0,1,4.46,1.37q1.56,1.8,1.56,6.08a14.65,14.65,0,0,1-.44,3.76,9.14,9.14,0,0,1-1.23,2.81,6.26,6.26,0,0,1-1.91,1.85,6.49,6.49,0,0,1-2.47.89,4.45,4.45,0,0,1-4.46-1.49Q643.62,398.61,643.62,394.51Zm3-.44c0,0.23,0,.45,0,0.65s0,0.42,0,.63l5.54-6a2.16,2.16,0,0,0-2.56-1.59,3,3,0,0,0-2.24,1.75A10.22,10.22,0,0,0,646.6,394.08Zm6.09-.91q0-.37,0-0.7c0-.22,0-0.44,0-0.65l-5.56,6a2.2,2.2,0,0,0,2.57,1.71,3,3,0,0,0,2.25-1.74A10.25,10.25,0,0,0,652.69,393.17Z"/><path class="cls-4" d="M659.23,402.62a9.23,9.23,0,0,0,1.69-.87,8.94,8.94,0,0,0,2-1.71,9.74,9.74,0,0,0,1.61-2.63,9.3,9.3,0,0,0,.66-3.67,8.67,8.67,0,0,0-.63-3.58A6.23,6.23,0,0,0,663,388a5.4,5.4,0,0,0-1.93-1.1,8.45,8.45,0,0,0-1.82-.38l0.55-2.55a10.08,10.08,0,0,1,3.11.6,7.47,7.47,0,0,1,2.67,1.68,8.13,8.13,0,0,1,1.86,2.87,11.17,11.17,0,0,1,.7,4.16,13,13,0,0,1-.7,4.39,11.92,11.92,0,0,1-1.86,3.42,11.42,11.42,0,0,1-2.67,2.47,12.35,12.35,0,0,1-3.11,1.49Z"/><path class="cls-4" d="M50.48,343.81l2.83,0.45v-6.44l-2.83-.45v-2.53l5.14,0.81L56,337.22h0.09a4.86,4.86,0,0,1,1.46-1,3.32,3.32,0,0,1,1.92-.21,3.11,3.11,0,0,1,2.16,1.34,6.19,6.19,0,0,1,.79,3.5l-2.68-.41a2.55,2.55,0,0,0-.24-1.24,1,1,0,0,0-.77-0.5,2,2,0,0,0-1.47.23,3.67,3.67,0,0,0-.95.91c0,2,0,2.94,0,4.9l5,0.76V348c-4.31-.66-6.46-1-10.77-1.68v-2.53Z"/><path class="cls-4" d="M75.52,348.93a3.34,3.34,0,0,1-.77.43,6.42,6.42,0,0,1-1.1.33,7.81,7.81,0,0,1-1.39.16,8.74,8.74,0,0,1-1.6-.1,8.51,8.51,0,0,1-2.62-.8,6.36,6.36,0,0,1-3.18-3.59,7.65,7.65,0,0,1-.42-2.6,6.26,6.26,0,0,1,.48-2.58,4.3,4.3,0,0,1,1.32-1.7,4.6,4.6,0,0,1,2-.85,7.27,7.27,0,0,1,2.43,0,8.16,8.16,0,0,1,1.8.5,5.88,5.88,0,0,1,1.7,1,5.23,5.23,0,0,1,1.27,1.69,5.61,5.61,0,0,1,.49,2.46,10.51,10.51,0,0,1-.23,2.11l-8.24-1.21a2.94,2.94,0,0,0,.31,1.29,3,3,0,0,0,.75.94,3.9,3.9,0,0,0,1.08.63,5.76,5.76,0,0,0,1.29.34,6.42,6.42,0,0,0,2.25,0,4,4,0,0,0,1.43-.57ZM70.58,340a3.63,3.63,0,0,0-1.12,0,2.66,2.66,0,0,0-1,.34,2.11,2.11,0,0,0-.7.68,2.16,2.16,0,0,0-.32,1l5.63,0.83a2.89,2.89,0,0,0-.63-1.91A2.93,2.93,0,0,0,70.58,340Z"/><path class="cls-4" d="M89.54,351a5.66,5.66,0,0,1-2.2.76,9.32,9.32,0,0,1-2.63,0,8.17,8.17,0,0,1-2.65-.81,6.57,6.57,0,0,1-1.95-1.51,6.29,6.29,0,0,1-1.2-2.09,7.7,7.7,0,0,1-.41-2.54,6,6,0,0,1,.48-2.51,4.43,4.43,0,0,1,1.34-1.72,4.87,4.87,0,0,1,2-.9,7.52,7.52,0,0,1,2.54,0,10.14,10.14,0,0,1,2.4.63,12.89,12.89,0,0,1,1.72.81v4l-2.52-.35v-2.12a6.91,6.91,0,0,0-1.42-.36,4.15,4.15,0,0,0-1.27,0,2.58,2.58,0,0,0-1.92,1.42,3.25,3.25,0,0,0-.31,1.5,3.85,3.85,0,0,0,.25,1.39,3.85,3.85,0,0,0,1.84,2.07,4.49,4.49,0,0,0,1.5.48,5.1,5.1,0,0,0,2.14-.07,7.37,7.37,0,0,0,1.25-.47Z"/><path class="cls-4" d="M98.34,341.82l4.26,0.56c0,3.2,0,4.8,0,8v1l1.74,0.23v2.53l-3.62-.48-0.53-1.77H100.1a3.35,3.35,0,0,1-1.58,1.24,4.48,4.48,0,0,1-2.34.26,5.65,5.65,0,0,1-1.59-.45,3.44,3.44,0,0,1-1.23-.93,4.17,4.17,0,0,1-.78-1.53,8.24,8.24,0,0,1-.27-2.29v-4.62L91,343.36c0-1,0-1.52,0-2.53l4.28,0.58c0,2.61,0,3.92,0,6.53a3.86,3.86,0,0,0,.45,2.08,1.88,1.88,0,0,0,1.41.81,2.3,2.3,0,0,0,2.47-1.42v-4.9l-1.28-.17C98.34,343.34,98.34,342.84,98.34,341.82Z"/><path class="cls-4" d="M105.42,351.72l2.84,0.37c0-2.58,0-3.86,0-6.44l-2.84-.37v-2.53l5.16,0.66,0.34,1.56H111a5.07,5.07,0,0,1,1.47-1.08,3.37,3.37,0,0,1,1.93-.26,3,3,0,0,1,2.17,1.28,6.06,6.06,0,0,1,.79,3.48l-2.68-.33a2.5,2.5,0,0,0-.24-1.24,1,1,0,0,0-.77-0.48,2.08,2.08,0,0,0-1.48.27,3.84,3.84,0,0,0-1,.94v4.9l5,0.62v2.53c-4.32-.54-6.48-0.81-10.8-1.37v-2.53Z"/><path class="cls-4" d="M128.73,362a11.92,11.92,0,0,1-3.12-1.38,10.84,10.84,0,0,1-2.68-2.37,11.36,11.36,0,0,1-1.87-3.35,12.71,12.71,0,0,1-.7-4.36,11.32,11.32,0,0,1,.7-4.18,8.5,8.5,0,0,1,1.87-2.94,7.86,7.86,0,0,1,2.68-1.77,10.36,10.36,0,0,1,3.12-.71l0.55,2.53a8.7,8.7,0,0,0-1.83.44,5.67,5.67,0,0,0-1.94,1.17A6.55,6.55,0,0,0,124,347.3a8.8,8.8,0,0,0-.63,3.6,9.09,9.09,0,0,0,.66,3.64,9.28,9.28,0,0,0,1.62,2.57,8.46,8.46,0,0,0,2,1.64,8.86,8.86,0,0,0,1.7.81Z"/><path class="cls-4" d="M134.49,355.28l3.51,0.4c0-4,0-6,0-10.05l-3,2-1.38-2,5.24-3.41,2,0.23c0,5.43,0,8.14,0,13.57l3.44,0.38v2.53l-9.8-1.1C134.49,356.79,134.49,356.29,134.49,355.28Z"/><path class="cls-4" d="M148.27,356.81l3.52,0.38c0-4,0-6,0-10.05l-3,2-1.38-2,5.24-3.44,2,0.21c0,5.43,0,8.14,0,13.57l3.45,0.36c0,1,0,1.52,0,2.53l-9.81-1v-2.53Z"/><path class="cls-4" d="M164.63,359.56a1.43,1.43,0,0,1,.52-1.19,1.74,1.74,0,0,1,1.3-.33,2.53,2.53,0,0,1,1.91,1,3.51,3.51,0,0,1,.64,2.11,4.12,4.12,0,0,1-.4,1.85,4.34,4.34,0,0,1-1,1.37,5,5,0,0,1-1.44.87,5.41,5.41,0,0,1-1.57.37l-0.62-1.33A6.15,6.15,0,0,0,165,364a3.94,3.94,0,0,0,1-.53,3.06,3.06,0,0,0,.77-0.81,2.24,2.24,0,0,0,.36-1.07,3,3,0,0,1-1.17-.08,2,2,0,0,1-.79-0.45,1.73,1.73,0,0,1-.45-0.69A2.5,2.5,0,0,1,164.63,359.56Z"/><path class="cls-4" d="M175.85,359.58l3.52,0.33V349.85l-3,2-1.38-2,5.24-3.52,2,0.18c0,5.43,0,8.14,0,13.57l3.45,0.31V363l-9.82-.89v-2.53Z"/><path class="cls-4" d="M188.08,355.14a13.32,13.32,0,0,1,.44-3.63,6.82,6.82,0,0,1,1.24-2.5,4.54,4.54,0,0,1,1.91-1.39,5.56,5.56,0,0,1,2.47-.31,5.85,5.85,0,0,1,4.48,2.41q1.57,2.16,1.57,6.44a13.44,13.44,0,0,1-.44,3.66,7,7,0,0,1-1.24,2.52,4.49,4.49,0,0,1-1.92,1.41,5.61,5.61,0,0,1-2.48.31,5.7,5.7,0,0,1-4.48-2.53A11.28,11.28,0,0,1,188.08,355.14Zm3,0.26c0,0.23,0,.45,0,0.66s0,0.42,0,.64l5.57-4.66a2.86,2.86,0,0,0-2.58-2.19,2.23,2.23,0,0,0-2.25,1.22A9,9,0,0,0,191.07,355.4Zm6.12,0.51q0-.37,0-0.7c0-.22,0-0.44,0-0.66l-5.59,4.66a2.92,2.92,0,0,0,2.58,2.31,2.26,2.26,0,0,0,2.26-1.21A9,9,0,0,0,197.19,355.91Z"/><path class="cls-4" d="M203.78,366.88a7.37,7.37,0,0,0,1.7-.48,6.46,6.46,0,0,0,2-1.25,7.09,7.09,0,0,0,1.62-2.26,8.15,8.15,0,0,0,.67-3.51,9.7,9.7,0,0,0-.63-3.73,8.55,8.55,0,0,0-1.55-2.52,7.47,7.47,0,0,0-1.95-1.55,10.41,10.41,0,0,0-1.83-.8l0.55-2.42a12.37,12.37,0,0,1,3.13,1.33,10.42,10.42,0,0,1,2.69,2.3,11,11,0,0,1,1.88,3.3,12.43,12.43,0,0,1,.7,4.32,11.54,11.54,0,0,1-.7,4.23,8.81,8.81,0,0,1-1.88,3,8.19,8.19,0,0,1-2.69,1.84,10,10,0,0,1-3.13.77Z"/><path class="cls-4" d="M354.79,370.66v-2.53h2.72v-6.44h-2.74c0-1,0-1.52,0-2.53h2.74v-0.64a4.22,4.22,0,0,1,.38-1.86,3.74,3.74,0,0,1,1-1.29,4.11,4.11,0,0,1,1.44-.75,6,6,0,0,1,1.7-.24,10.81,10.81,0,0,1,2.62.26,6.69,6.69,0,0,1,1.7.65l-0.88,2.28a10.41,10.41,0,0,0-1.14-.46,5,5,0,0,0-1.58-.2,2.24,2.24,0,0,0-1.74.57,2.5,2.5,0,0,0-.5,1.69h4.85v2.53h-4.85v6.44h4.87v2.53C361.15,370.66,359,370.67,354.79,370.66Z"/><path class="cls-4" d="M369.08,359.92a12.67,12.67,0,0,1,2.13-.72,12.21,12.21,0,0,1,2.87-.32,6.37,6.37,0,0,1,2,.27,3.37,3.37,0,0,1,1.36.8,3.06,3.06,0,0,1,.75,1.26,5.51,5.51,0,0,1,.23,1.65q0,1.17-.08,2t-0.08,1.47a9.86,9.86,0,0,0,0,1.08c0,0.21.05,0.42,0.07,0.62l1.5,0v2.53l-3.87,0-0.3-1.56h-0.11a4,4,0,0,1-1.31,1.24,4.39,4.39,0,0,1-2.29.53,3.87,3.87,0,0,1-2.73-.9,3.13,3.13,0,0,1-1-2.43,3.67,3.67,0,0,1,.35-1.67,3,3,0,0,1,1-1.15,4.94,4.94,0,0,1,1.63-.68,9.57,9.57,0,0,1,2.12-.23c0.27,0,.57,0,0.87,0l1.12,0.08a2.38,2.38,0,0,0,0-.46V363a1.46,1.46,0,0,0-.5-1.25,2.44,2.44,0,0,0-1.49-.37,7,7,0,0,0-2.11.31,13.57,13.57,0,0,0-1.58.61Zm3.93,8.42a2.78,2.78,0,0,0,1.64-.41,2.74,2.74,0,0,0,.8-0.87v-1.38l-0.68-.1a7.91,7.91,0,0,0-1-.05,4.77,4.77,0,0,0-.87.09,2.9,2.9,0,0,0-.78.26,1.52,1.52,0,0,0-.55.45,1.09,1.09,0,0,0-.2.67,1.3,1.3,0,0,0,.38,1A1.76,1.76,0,0,0,373,368.34Z"/><path class="cls-4" d="M393.44,369.27a6.75,6.75,0,0,1-2.21,1.11,9.79,9.79,0,0,1-2.65.4,7.48,7.48,0,0,1-2.66-.4,5.34,5.34,0,0,1-2-1.21,5.13,5.13,0,0,1-1.21-1.91,7.1,7.1,0,0,1-.42-2.48,6.51,6.51,0,0,1,.48-2.58,5.52,5.52,0,0,1,1.35-1.93,5.93,5.93,0,0,1,2-1.21,8,8,0,0,1,2.56-.44,9.45,9.45,0,0,1,2.42.26,11.19,11.19,0,0,1,1.73.55v4l-2.54,0V361.4a6.48,6.48,0,0,0-1.43-.14,4.37,4.37,0,0,0-1.28.21,3.19,3.19,0,0,0-1.13.64,3.32,3.32,0,0,0-.81,1.08,3.87,3.87,0,0,0-.06,2.9,3.1,3.1,0,0,0,1.86,1.78,4.1,4.1,0,0,0,1.51.24,5.44,5.44,0,0,0,2.16-.4,8.89,8.89,0,0,0,1.26-.66Z"/><path class="cls-4" d="M397.36,361.33l-2.28,0v-2.53l2.28,0v-2.62l3-.91v3.47l6-.13v2.53l-6,.13v3.29a3.89,3.89,0,0,0,.67,2.55,2.26,2.26,0,0,0,1.87.75,4,4,0,0,0,1.13-.17,4.38,4.38,0,0,0,.91-0.4,5.39,5.39,0,0,0,.74-0.52l0.61-.52,1.38,2a4.6,4.6,0,0,1-1,.86,8.62,8.62,0,0,1-1.27.7,8.19,8.19,0,0,1-1.42.48,6.83,6.83,0,0,1-1.45.19,4.88,4.88,0,0,1-3.89-1.36,6.56,6.56,0,0,1-1.3-4.54C397.36,363.3,397.36,362.64,397.36,361.33Z"/><path class="cls-4" d="M409.33,364.28a7.15,7.15,0,0,1,.44-2.59,5.39,5.39,0,0,1,3.17-3.18,7.5,7.5,0,0,1,2.5-.47,7.15,7.15,0,0,1,2.59.36,5.15,5.15,0,0,1,1.93,1.17,5,5,0,0,1,1.19,1.88,7.82,7.82,0,0,1,0,5.06,5.4,5.4,0,0,1-3.17,3.19,7.44,7.44,0,0,1-2.5.47,7.11,7.11,0,0,1-2.6-.37,5.16,5.16,0,0,1-1.93-1.18,5,5,0,0,1-1.19-1.89A7.24,7.24,0,0,1,409.33,364.28Zm3.09-.08a4.51,4.51,0,0,0,.21,1.4,3.33,3.33,0,0,0,.6,1.11,2.59,2.59,0,0,0,.94.72,2.85,2.85,0,0,0,1.27.23,3,3,0,0,0,2.18-.91,3.8,3.8,0,0,0,.84-2.72,3.88,3.88,0,0,0-.78-2.54,2.63,2.63,0,0,0-2.24-.91,3.65,3.65,0,0,0-1.2.23,2.45,2.45,0,0,0-1,.66,3.21,3.21,0,0,0-.63,1.12A5,5,0,0,0,412.42,364.2Z"/><path class="cls-4" d="M423.26,367.1l2.86-.09v-6.44l-2.86.09v-2.53l5.19-.17,0.35,1.51h0.09a6.44,6.44,0,0,1,1.48-1.32,3.76,3.76,0,0,1,1.94-.58,2.52,2.52,0,0,1,2.18.93,5.41,5.41,0,0,1,.8,3.35l-2.7.1a2.26,2.26,0,0,0-.24-1.2,0.82,0.82,0,0,0-.77-0.35,2.36,2.36,0,0,0-1.49.51,4.91,4.91,0,0,0-1,1.09v4.9l5-.18v2.53c-4.34.16-6.52,0.24-10.86,0.38V367.1Z"/><path class="cls-4" d="M437.56,366.59l4.06-.16V360l-4.06.16v-2.53l7.05-.29v9l4.27-.19v2.53c-4.53.21-6.79,0.3-11.32,0.48v-2.53Zm3.5-12.24a1.69,1.69,0,0,1,.53-1.24,2.13,2.13,0,0,1,1.48-.57,2.18,2.18,0,0,1,1.54.44,1.5,1.5,0,0,1,.58,1.19,1.56,1.56,0,0,1-.58,1.23,2.45,2.45,0,0,1-1.54.54,2.07,2.07,0,0,1-1.48-.41A1.48,1.48,0,0,1,441.06,354.35Z"/><path class="cls-4" d="M452.1,357.77a13.18,13.18,0,0,1,2.13-.81,12.4,12.4,0,0,1,2.87-.44,6.27,6.27,0,0,1,2,.19,3.19,3.19,0,0,1,1.36.75,2.9,2.9,0,0,1,.75,1.23,5.41,5.41,0,0,1,.23,1.64q0,1.17-.08,2t-0.08,1.48a9.81,9.81,0,0,0,0,1.08c0,0.21.05,0.42,0.07,0.62l1.5-.08v2.53l-3.87.2-0.3-1.55h-0.11a4.27,4.27,0,0,1-1.31,1.3,4.52,4.52,0,0,1-2.29.63,3.73,3.73,0,0,1-2.73-.79,3,3,0,0,1-1-2.39,3.76,3.76,0,0,1,.35-1.68,3.18,3.18,0,0,1,1-1.2,5.16,5.16,0,0,1,1.63-.74,9.71,9.71,0,0,1,2.12-.32c0.27,0,.56,0,0.87,0l1.12,0a2.39,2.39,0,0,0,0-.46v-0.44a1.4,1.4,0,0,0-.5-1.23,2.37,2.37,0,0,0-1.49-.31,7.1,7.1,0,0,0-2.1.4,14.18,14.18,0,0,0-1.58.67ZM456,366a2.86,2.86,0,0,0,1.64-.48,2.92,2.92,0,0,0,.8-0.9v-1.38l-0.68-.07a7.86,7.86,0,0,0-1,0,4.82,4.82,0,0,0-.87.12,3,3,0,0,0-.77.29,1.62,1.62,0,0,0-.55.47,1.13,1.13,0,0,0-.2.68,1.25,1.25,0,0,0,.38,1A1.71,1.71,0,0,0,456,366Z"/><path class="cls-4" d="M465.86,351.69l4.91-.27V362a4.78,4.78,0,0,0,.44,2.44,1.45,1.45,0,0,0,1.41.61,4,4,0,0,0,1.18-.22,4.78,4.78,0,0,0,.92-0.48l1.13,2q-0.39.28-.78,0.52a5.4,5.4,0,0,1-.83.42,5.88,5.88,0,0,1-1,.28,7.72,7.72,0,0,1-1.16.15,4.15,4.15,0,0,1-3.25-.92,4.07,4.07,0,0,1-1.08-3.07v-9.66l-1.91.1v-2.53Z"/><path class="cls-4" d="M479.48,369.7c4.09-.25,6.14-0.38,10.23-0.65v2.46c-4.09.27-6.14,0.4-10.23,0.65V369.7Z"/><path class="cls-4" d="M491.51,350.14l4.65-.32c0,2.35,0,3.53,0,5.89h0.09a4.3,4.3,0,0,1,1.47-1.28,5.75,5.75,0,0,1,3.78-.48,2.79,2.79,0,0,1,1.27.67,3.25,3.25,0,0,1,.83,1.38,7,7,0,0,1,.3,2.22v7.15l-3,.22v-6.53a2.69,2.69,0,0,0-.6-2,2,2,0,0,0-1.57-.51,2.79,2.79,0,0,0-1.57.63,3.1,3.1,0,0,0-1,1.39c0,2.93,0,4.4,0,7.34l-3,.21c0-5.43,0-8.14,0-13.57l-1.66.11v-2.53Z"/><path class="cls-4" d="M517.62,363.1a4.58,4.58,0,0,1-.77.6,8.17,8.17,0,0,1-1.11.58,9.29,9.29,0,0,1-3,.74,7.6,7.6,0,0,1-2.64-.21,4.64,4.64,0,0,1-3.2-2.87,6.84,6.84,0,0,1-.43-2.51,7,7,0,0,1,.48-2.69,5.9,5.9,0,0,1,1.32-2,6.13,6.13,0,0,1,2-1.29,8,8,0,0,1,2.44-.57,7.41,7.41,0,0,1,1.81.09,4.55,4.55,0,0,1,1.72.66,3.79,3.79,0,0,1,1.28,1.4,4.88,4.88,0,0,1,.5,2.35,11.21,11.21,0,0,1-.23,2.16l-8.29.65a2.52,2.52,0,0,0,.31,1.22,2.2,2.2,0,0,0,.76.77,3,3,0,0,0,1.08.39,5.29,5.29,0,0,0,1.3,0,7,7,0,0,0,2.27-.5,5.31,5.31,0,0,0,1.44-.9Zm-5-7.82a4,4,0,0,0-1.13.25,3.47,3.47,0,0,0-1,.55,2.93,2.93,0,0,0-.7.84,2.56,2.56,0,0,0-.32,1.08l5.66-.44A2.09,2.09,0,0,0,512.64,355.28Z"/><path class="cls-4" d="M521.14,347.94l4.9-.41c0,4.25,0,6.38,0,10.63a4.71,4.71,0,0,0,.44,2.42,1.41,1.41,0,0,0,1.4.57,4,4,0,0,0,1.17-.25,4.93,4.93,0,0,0,.92-0.51l1.13,2q-0.39.29-.78,0.54a5.6,5.6,0,0,1-.83.44,6,6,0,0,1-1,.31,7.78,7.78,0,0,1-1.16.18,4.06,4.06,0,0,1-3.24-.83,4,4,0,0,1-1.08-3v-9.66l-1.91.16v-2.53Z"/><path class="cls-4" d="M532.94,351.53l3.91-.35,0.34,1.35h0.09a4.86,4.86,0,0,1,3.86-2.06,5.29,5.29,0,0,1,1.94.15,3.35,3.35,0,0,1,1.52.9,4.38,4.38,0,0,1,1,1.7,8.29,8.29,0,0,1,.34,2.57,8.79,8.79,0,0,1-.39,2.69,6.34,6.34,0,0,1-1.13,2.12,5.5,5.5,0,0,1-1.79,1.43,6.65,6.65,0,0,1-2.41.66,9.41,9.41,0,0,1-1.4,0,3.63,3.63,0,0,1-1.15-.23v4.71l-3,.27V353.91l-1.72.15v-2.53Zm7.31,1.55a3.29,3.29,0,0,0-1.6.58,2.57,2.57,0,0,0-1,1.4v4.78a2.24,2.24,0,0,0,.93.32,5,5,0,0,0,1.23,0,3.4,3.4,0,0,0,1.2-.33,2.79,2.79,0,0,0,1-.79,3.81,3.81,0,0,0,.64-1.28,6.2,6.2,0,0,0,.23-1.79,3.15,3.15,0,0,0-.74-2.28A2.18,2.18,0,0,0,540.25,353.08Z"/><path class="cls-4" d="M559,359.34a4.71,4.71,0,0,1-.77.62,8.37,8.37,0,0,1-1.1.61,9.41,9.41,0,0,1-3,.81,7.55,7.55,0,0,1-2.63-.16,4.51,4.51,0,0,1-3.2-2.81,6.77,6.77,0,0,1-.42-2.5,7.1,7.1,0,0,1,.48-2.7,6.07,6.07,0,0,1,1.32-2,6.3,6.3,0,0,1,2-1.33,8.07,8.07,0,0,1,2.44-.62,7.36,7.36,0,0,1,1.8.05,4.45,4.45,0,0,1,1.71.62,3.67,3.67,0,0,1,1.28,1.38,4.82,4.82,0,0,1,.49,2.34,11.3,11.3,0,0,1-.23,2.16l-8.28.82a2.48,2.48,0,0,0,.31,1.21,2.13,2.13,0,0,0,.76.75,3,3,0,0,0,1.08.37,5.31,5.31,0,0,0,1.3,0,7.09,7.09,0,0,0,2.26-.55,5.46,5.46,0,0,0,1.44-.93Zm-5-7.71a4,4,0,0,0-1.13.28,3.56,3.56,0,0,0-1,.57,3,3,0,0,0-.7.85,2.61,2.61,0,0,0-.32,1.09l5.66-.56A2,2,0,0,0,554,351.62Z"/><path class="cls-4" d="M561.43,357.78l2.85-.29V351l-2.85.29v-2.53l5.17-.54,0.34,1.48H567a7.13,7.13,0,0,1,1.47-1.42,4,4,0,0,1,1.93-.71,2.35,2.35,0,0,1,2.17.78,5.17,5.17,0,0,1,.79,3.29l-2.69.29a2.17,2.17,0,0,0-.24-1.18,0.76,0.76,0,0,0-.77-0.3,2.51,2.51,0,0,0-1.48.62,5.44,5.44,0,0,0-1,1.16v4.9l5-.53v2.53c-4.33.47-6.49,0.7-10.82,1.14v-2.53Z"/><path class="cls-4" d="M584.76,362.65a9.74,9.74,0,0,1-3.12-.66,7.79,7.79,0,0,1-2.69-1.74,8.4,8.4,0,0,1-1.87-2.92,11.35,11.35,0,0,1-.7-4.2,12.66,12.66,0,0,1,.7-4.34,11.54,11.54,0,0,1,1.87-3.37,11,11,0,0,1,2.69-2.4,12.81,12.81,0,0,1,3.12-1.44l0.55,2.4a10.8,10.8,0,0,0-1.82.87,7.85,7.85,0,0,0-1.94,1.62A9,9,0,0,0,580,349a9.9,9.9,0,0,0-.63,3.75,8,8,0,0,0,.67,3.49,6.73,6.73,0,0,0,1.62,2.2,6.12,6.12,0,0,0,2,1.18,7.15,7.15,0,0,0,1.7.41Z"/><path class="cls-4" d="M589.33,346.18a6,6,0,0,1,.4-2.21,5.71,5.71,0,0,1,1.12-1.82,6.16,6.16,0,0,1,1.74-1.31,6.73,6.73,0,0,1,2.28-.68,6.47,6.47,0,0,1,2.34.11,4.19,4.19,0,0,1,1.81.94,4.42,4.42,0,0,1,1.17,1.76,7.2,7.2,0,0,1,.41,2.56,14.5,14.5,0,0,1-.69,4.68,11.1,11.1,0,0,1-1.85,3.45,9.51,9.51,0,0,1-2.7,2.3,11.8,11.8,0,0,1-3.21,1.26L591.54,355a8.83,8.83,0,0,0,2.28-.89,8.13,8.13,0,0,0,1.78-1.35,7.07,7.07,0,0,0,1.24-1.69,5.83,5.83,0,0,0,.62-1.93,4.06,4.06,0,0,1-1.24.92,5.5,5.5,0,0,1-1.81.51h0a5.34,5.34,0,0,1-1.77-.09,4.15,4.15,0,0,1-1.62-.73,4.07,4.07,0,0,1-1.18-1.41A4.52,4.52,0,0,1,589.33,346.18Zm2.89-.5a2.38,2.38,0,0,0,.24,1.11,2.12,2.12,0,0,0,.63.75,2.33,2.33,0,0,0,.91.4,3.24,3.24,0,0,0,1.07,0,4.41,4.41,0,0,0,1.63-.5,2.85,2.85,0,0,0,1-.86,6.69,6.69,0,0,0,.07-0.93,4.23,4.23,0,0,0-.18-1.24,3,3,0,0,0-.55-1,2.3,2.3,0,0,0-.92-0.66,2.54,2.54,0,0,0-1.26-.14A2.94,2.94,0,0,0,592.22,345.68Z"/><path class="cls-4" d="M603.1,344.52a6.08,6.08,0,0,1,.4-2.21,5.76,5.76,0,0,1,1.12-1.83,6.23,6.23,0,0,1,1.74-1.32,6.76,6.76,0,0,1,2.28-.69,6.45,6.45,0,0,1,2.34.09,4.15,4.15,0,0,1,1.81.93,4.38,4.38,0,0,1,1.17,1.76,7.18,7.18,0,0,1,.41,2.56,14.55,14.55,0,0,1-.69,4.69,11.2,11.2,0,0,1-1.85,3.46,9.6,9.6,0,0,1-2.69,2.32,11.86,11.86,0,0,1-3.21,1.28l-0.64-2.27a8.88,8.88,0,0,0,2.28-.91,8.21,8.21,0,0,0,1.78-1.36,7.14,7.14,0,0,0,1.24-1.7,5.87,5.87,0,0,0,.62-1.93,4.1,4.1,0,0,1-1.24.93,5.53,5.53,0,0,1-1.81.52h0a5.33,5.33,0,0,1-1.77-.08,4.11,4.11,0,0,1-1.62-.72,4,4,0,0,1-1.18-1.41A4.51,4.51,0,0,1,603.1,344.52ZM606,344a2.37,2.37,0,0,0,.24,1.11,2.1,2.1,0,0,0,.63.75,2.31,2.31,0,0,0,.91.39,3.22,3.22,0,0,0,1.07,0,4.44,4.44,0,0,0,1.63-.51,2.88,2.88,0,0,0,1-.87,6.74,6.74,0,0,0,.07-0.93,4.22,4.22,0,0,0-.18-1.24,2.92,2.92,0,0,0-.55-1,2.27,2.27,0,0,0-.92-0.65,2.53,2.53,0,0,0-1.26-.13A3,3,0,0,0,606,344Z"/><path class="cls-4" d="M616.49,345.8a14.45,14.45,0,0,1,.44-3.73,8.79,8.79,0,0,1,1.23-2.77,6.2,6.2,0,0,1,1.9-1.8,6.36,6.36,0,0,1,2.46-.85,4.67,4.67,0,0,1,4.46,1.43q1.56,1.82,1.56,6.1a14.56,14.56,0,0,1-.44,3.75,9,9,0,0,1-1.23,2.79,6.14,6.14,0,0,1-1.91,1.82,6.42,6.42,0,0,1-2.47.85,4.52,4.52,0,0,1-4.46-1.56Q616.49,349.89,616.49,345.8Zm3-.39c0,0.23,0,.45,0,0.65s0,0.42,0,.63l5.55-5.87a2.19,2.19,0,0,0-2.57-1.63,2.9,2.9,0,0,0-2.24,1.71A10.13,10.13,0,0,0,619.47,345.4Zm6.1-.82c0-.25,0-0.48,0-0.7s0-.44,0-0.65L620,349.11a2.23,2.23,0,0,0,2.57,1.75,2.93,2.93,0,0,0,2.25-1.71A10.16,10.16,0,0,0,625.57,344.58Z"/><path class="cls-4" d="M634.36,350a1.82,1.82,0,0,1,.52-1.31,2.17,2.17,0,0,1,1.29-.64,2,2,0,0,1,1.9.56,2.88,2.88,0,0,1,.64,2,4.76,4.76,0,0,1-.4,1.94,6,6,0,0,1-1,1.62,6.9,6.9,0,0,1-1.43,1.22,6.7,6.7,0,0,1-1.57.75l-0.62-1.18a7.7,7.7,0,0,0,1.11-.55,5.47,5.47,0,0,0,1-.78,4.37,4.37,0,0,0,.77-1,2.76,2.76,0,0,0,.35-1.15,3,3,0,0,1-1.17.2,1.53,1.53,0,0,1-.79-0.26,1.24,1.24,0,0,1-.45-0.58A2.22,2.22,0,0,1,634.36,350Z"/><path class="cls-4" d="M644.48,346.06a4.28,4.28,0,0,1,.26-1.51,5.5,5.5,0,0,1,.69-1.3,7.21,7.21,0,0,1,1-1.1,11.44,11.44,0,0,1,1.12-.91,5.69,5.69,0,0,1-1.9-1.3,3,3,0,0,1-.76-2.18,4.08,4.08,0,0,1,.39-1.74,5.08,5.08,0,0,1,1.09-1.52,6.28,6.28,0,0,1,1.66-1.14,7.19,7.19,0,0,1,2.08-.63,6.41,6.41,0,0,1,1.93,0,4.48,4.48,0,0,1,1.59.54,3,3,0,0,1,1.08,1.07,3,3,0,0,1,.39,1.54,4.58,4.58,0,0,1-.7,2.47,7.66,7.66,0,0,1-1.91,2,5.75,5.75,0,0,1,2.18,1.35,3.27,3.27,0,0,1,.81,2.36A4.34,4.34,0,0,1,655,346a5.61,5.61,0,0,1-1.2,1.62,6.84,6.84,0,0,1-1.77,1.2,7.57,7.57,0,0,1-2.16.66,6.78,6.78,0,0,1-2.13,0,4.82,4.82,0,0,1-1.72-.61,3.21,3.21,0,0,1-1.14-1.17A3.34,3.34,0,0,1,644.48,346.06Zm8.15-1.6a1.46,1.46,0,0,0-.3-0.94,2.61,2.61,0,0,0-.74-0.62,5.67,5.67,0,0,0-1-.44l-1-.39a5.53,5.53,0,0,0-1.76,1.56,2.88,2.88,0,0,0-.62,1.6,1.62,1.62,0,0,0,.73,1.49,3,3,0,0,0,2,.26,3.69,3.69,0,0,0,1.92-.83A2.13,2.13,0,0,0,652.63,344.46Zm-4.92-7a1.53,1.53,0,0,0,.24.9,2.05,2.05,0,0,0,.62.58,4.07,4.07,0,0,0,.86.39l1,0.32a5.29,5.29,0,0,0,.72-0.57,4.87,4.87,0,0,0,.63-0.7,4.08,4.08,0,0,0,.45-0.76,1.82,1.82,0,0,0,.17-0.75,1.49,1.49,0,0,0-.21-0.81,1.65,1.65,0,0,0-.54-0.53,2,2,0,0,0-.74-0.27,2.79,2.79,0,0,0-.85,0,2.89,2.89,0,0,0-.93.3,3.21,3.21,0,0,0-.73.52,2.22,2.22,0,0,0-.48.67A1.7,1.7,0,0,0,647.71,337.49Z"/><path class="cls-4" d="M659.58,350.1a9.22,9.22,0,0,0,1.69-.87,8.93,8.93,0,0,0,2-1.71,9.73,9.73,0,0,0,1.61-2.63,9.3,9.3,0,0,0,.66-3.67,8.68,8.68,0,0,0-.63-3.58,6.23,6.23,0,0,0-1.54-2.16,5.4,5.4,0,0,0-1.93-1.1,8.46,8.46,0,0,0-1.82-.38l0.55-2.55a10.08,10.08,0,0,1,3.11.6,7.47,7.47,0,0,1,2.67,1.68,8.12,8.12,0,0,1,1.86,2.87,11.17,11.17,0,0,1,.7,4.16,13,13,0,0,1-.7,4.39,11.93,11.93,0,0,1-1.86,3.42,11.42,11.42,0,0,1-2.67,2.46,12.34,12.34,0,0,1-3.11,1.49Z"/></svg>