<svg id="Layer_1" data-name="Layer 1" xmlns="http://www.w3.org/2000/svg" viewBox="0 0 720 576"><defs><style>.cls-1,.cls-2,.cls-4,.cls-6{fill:#231f20;}.cls-1,.cls-3{stroke:#231f20;}.cls-1,.cls-6{stroke-miterlimit:10;}.cls-1,.cls-2,.cls-3{stroke-width:2px;}.cls-2{stroke:#000;}.cls-2,.cls-3{stroke-linecap:round;stroke-linejoin:round;}.cls-3,.cls-5{fill:#fff;}.cls-6{stroke:#fff;}</style></defs><title>Hanoi_Tower_Set_1</title><path class="cls-1" d="M655.67,506.49c0-.14,0-0.29,0-0.43s0-.29,0-0.43V453.84H63.84s-0.23,51.74-.23,52.22c0,2.67,2.12,5.24,6.08,7.71,13.87,8.61,50.58,16.11,101.74,21.48s116.73,8.59,188.22,8.59c81.71,0,155.68-4.21,209.24-11,26.78-3.41,48.45-7.46,63.44-12,7.5-2.25,13.32-4.62,17.29-7.08,3.38-2.1,5.41-4.29,5.94-6.55h0.1v-0.73Z"/><ellipse class="cls-2" cx="359.66" cy="454.92" rx="295.87" ry="37.63"/><path class="cls-3" d="M655.67,455c0-.14,0-0.29,0-0.43s0-.29,0-0.43V402.36H63.84s-0.23,51.74-.23,52.22c0,2.67,2.12,5.24,6.08,7.71,13.87,8.61,50.58,16.11,101.74,21.48s116.73,8.59,188.22,8.59c81.71,0,155.68-4.21,209.24-11,26.78-3.41,48.45-7.46,63.44-12,7.5-2.25,13.32-4.62,17.29-7.08,3.38-2.1,5.41-4.29,5.94-6.55h0.1V455Z"/><ellipse class="cls-3" cx="359.66" cy="403.44" rx="295.87" ry="37.63"/><path class="cls-3" d="M655.67,403.53c0-.14,0-0.29,0-0.43s0-.29,0-0.43V350.88H63.84s-0.23,51.74-.23,52.22c0,2.67,2.12,5.24,6.08,7.71,13.87,8.61,50.58,16.11,101.74,21.48s116.73,8.59,188.22,8.59c81.71,0,155.68-4.21,209.24-11,26.78-3.41,48.45-7.46,63.44-12,7.5-2.25,13.32-4.62,17.29-7.08,3.38-2.1,5.41-4.29,5.94-6.55h0.1v-0.73Z"/><ellipse class="cls-3" cx="359.66" cy="351.97" rx="295.87" ry="37.63"/><path class="cls-4" d="M359.66,360.22c-16,0-29-3.75-30.2-8.61h-0.08l0-.5V8.27H390V351.6h-0.12C388.63,356.47,375.63,360.22,359.66,360.22Z"/><path class="cls-5" d="M389.48,8.77V351.1h0c-0.49,4.78-13.63,8.61-29.79,8.61s-29.3-3.83-29.79-8.61h0v-0.21s0,0,0-.06,0,0,0-.06V8.77h59.63m1-1H328.85v343s0,0.07,0,.11v1.27h0.23c2,5.6,16.84,8.61,30.58,8.61s28.6-3,30.58-8.61h0.21l0-1V7.77h0Z"/><ellipse class="cls-6" cx="359.66" cy="8.89" rx="29.81" ry="8.89"/><path class="cls-4" d="M85.24,451.94v-2.53l2.7,0.38v-6.44L85.22,443v-2.53l2.72,0.39v-0.64a3.91,3.91,0,0,1,.38-1.81,3,3,0,0,1,1-1.15,3.49,3.49,0,0,1,1.43-.55,5.74,5.74,0,0,1,1.68,0,11.44,11.44,0,0,1,2.6.62,7.73,7.73,0,0,1,1.68.89l-0.87,2.16a12.09,12.09,0,0,0-1.13-.62,5.4,5.4,0,0,0-1.57-.42,2,2,0,0,0-1.73.32,2.24,2.24,0,0,0-.49,1.62l4.81,0.66c0,1,0,1.52,0,2.53l-4.81-.66c0,2.58,0,3.86,0,6.44l4.83,0.67v2.53C91.54,452.83,89.44,452.54,85.24,451.94Z"/><path class="cls-4" d="M104.91,443.14l4.26,0.56v9l1.74,0.23c0,1,0,1.52,0,2.53l-3.62-.47-0.53-1.77h-0.09a3.35,3.35,0,0,1-1.58,1.24,4.47,4.47,0,0,1-2.34.27,5.65,5.65,0,0,1-1.59-.44,3.44,3.44,0,0,1-1.23-.92,4.17,4.17,0,0,1-.78-1.53,8.23,8.23,0,0,1-.27-2.29v-4.62l-1.31-.18v-2.53l4.28,0.58v6.53a3.86,3.86,0,0,0,.45,2.08,1.88,1.88,0,0,0,1.41.81,2.3,2.3,0,0,0,2.47-1.42c0-2,0-2.94,0-4.9l-1.28-.17C104.91,444.66,104.91,444.15,104.91,443.14Z"/><path class="cls-4" d="M113.09,439.6l4.88,0.62c0,4.25,0,6.38,0,10.63a5.28,5.28,0,0,0,.44,2.52,1.77,1.77,0,0,0,1.4.86,3.74,3.74,0,0,0,1.17,0,3.92,3.92,0,0,0,.92-0.31l1.12,2.21q-0.39.21-.78,0.38a4.45,4.45,0,0,1-.83.27,5.23,5.23,0,0,1-1,.11,7.5,7.5,0,0,1-1.16-.06,4.9,4.9,0,0,1-3.23-1.51A4.8,4.8,0,0,1,115,452v-9.66l-1.9-.24C113.09,441.12,113.09,440.61,113.09,439.6Z"/><path class="cls-4" d="M126.85,441.31l4.88,0.58c0,4.25,0,6.38,0,10.63a5.26,5.26,0,0,0,.44,2.51,1.75,1.75,0,0,0,1.4.85,3.75,3.75,0,0,0,1.17,0,4,4,0,0,0,.92-0.32l1.12,2.2q-0.39.21-.78,0.38a4.47,4.47,0,0,1-.83.27,5.24,5.24,0,0,1-1,.12,7.5,7.5,0,0,1-1.16-.05,4.87,4.87,0,0,1-3.23-1.49,4.77,4.77,0,0,1-1.08-3.26c0-3.86,0-5.8,0-9.66l-1.9-.23C126.85,442.82,126.85,442.32,126.85,441.31Z"/><path class="cls-4" d="M140.4,461.68c4.08,0.46,6.11.69,10.19,1.13,0,1,0,1.48,0,2.46-4.08-.44-6.12-0.67-10.19-1.13C140.4,463.16,140.4,462.67,140.4,461.68Z"/><path class="cls-4" d="M152.66,448.84l4,0.43,0.34,1.55h0.09a3.93,3.93,0,0,1,1.52-1.13,4.53,4.53,0,0,1,2.37-.31,5.74,5.74,0,0,1,1.6.39,3.49,3.49,0,0,1,1.27.89,4.19,4.19,0,0,1,.84,1.52,7.31,7.31,0,0,1,.31,2.27v7.15l-3-.3c0-2.61,0-3.92,0-6.53a3,3,0,0,0-.63-2.09,2.56,2.56,0,0,0-3.15-.45,2.14,2.14,0,0,0-1,1.13c0,3,0,4.47,0,7.45l-3-.31c0-3.59,0-5.38,0-9l-1.65-.18C152.66,450.36,152.66,449.85,152.66,448.84Z"/><path class="cls-4" d="M168.23,451.22a11.63,11.63,0,0,1,2.13-.5,11.87,11.87,0,0,1,2.86,0,6.69,6.69,0,0,1,2,.48,3.86,3.86,0,0,1,1.36.94,3.51,3.51,0,0,1,.75,1.34,5.77,5.77,0,0,1,.23,1.68q0,1.17-.08,2c-0.05.55-.08,1-0.08,1.46a9.92,9.92,0,0,0,0,1.09c0,0.21.05,0.43,0.07,0.63l1.49,0.14c0,1,0,1.52,0,2.53l-3.86-.36-0.3-1.59h-0.11a3.44,3.44,0,0,1-1.3,1.11,4.12,4.12,0,0,1-2.28.3,4.25,4.25,0,0,1-2.72-1.19,3.79,3.79,0,0,1-.65-4.17,2.58,2.58,0,0,1,1-1,4.45,4.45,0,0,1,1.62-.51,9.31,9.31,0,0,1,2.11,0q0.41,0,.87.13l1.12,0.2a2.31,2.31,0,0,0,0-.46v-0.44a1.61,1.61,0,0,0-.5-1.3,2.64,2.64,0,0,0-1.48-.52,6.71,6.71,0,0,0-2.1.1,12.33,12.33,0,0,0-1.57.44Zm3.91,8.82a2.59,2.59,0,0,0,1.64-.24,2.35,2.35,0,0,0,.8-0.79v-1.38l-0.68-.17a8.11,8.11,0,0,0-1-.15,4.66,4.66,0,0,0-.86,0,2.65,2.65,0,0,0-.77.18,1.31,1.31,0,0,0-.55.4,1,1,0,0,0-.2.65,1.44,1.44,0,0,0,.37,1A1.92,1.92,0,0,0,172.14,460Z"/><path class="cls-4" d="M185.49,463.57c0-2.82,0-4.22,0-7a5.65,5.65,0,0,0-.09-1.12,2.34,2.34,0,0,0-.24-0.69,0.84,0.84,0,0,0-.37-0.36,1.36,1.36,0,0,0-.45-0.12,1.13,1.13,0,0,0-1.17.79c0,3.33,0,5,0,8.33l-2.76-.25c0-4.6,0-6.9,0-11.5l2.18,0.2,0.32,1.29H183a2.47,2.47,0,0,1,1-1,2.69,2.69,0,0,1,1.56-.28,3.27,3.27,0,0,1,1.45.5,2.21,2.21,0,0,1,.94,1.37,2.25,2.25,0,0,1,1.06-1.14,2.79,2.79,0,0,1,1.54-.29,3.56,3.56,0,0,1,1.11.27,2.23,2.23,0,0,1,.86.68,3.32,3.32,0,0,1,.56,1.23,8,8,0,0,1,.2,1.94c0,3.15,0,4.72,0,7.87l-2.76-.24v-7.36a2.51,2.51,0,0,0-.33-1.48,1.12,1.12,0,0,0-.82-0.49,1.21,1.21,0,0,0-.71.13,0.91,0.91,0,0,0-.41.6c0,3.36,0,5,0,8.39Z"/><path class="cls-4" d="M206,464.08a3.7,3.7,0,0,1-.77.48,6.86,6.86,0,0,1-1.1.41,8.08,8.08,0,0,1-1.39.26,8.78,8.78,0,0,1-1.61,0,8.16,8.16,0,0,1-2.63-.63,5.8,5.8,0,0,1-3.2-3.39,7.38,7.38,0,0,1-.43-2.58,6.46,6.46,0,0,1,.48-2.62,4.73,4.73,0,0,1,1.32-1.79,5,5,0,0,1,2-1,7.41,7.41,0,0,1,2.44-.18,7.86,7.86,0,0,1,1.81.38,5.43,5.43,0,0,1,1.71.93A4.78,4.78,0,0,1,205.9,456a5.38,5.38,0,0,1,.49,2.43,10.67,10.67,0,0,1-.23,2.12l-8.28-.67a2.82,2.82,0,0,0,.31,1.27,2.76,2.76,0,0,0,.76.89,3.61,3.61,0,0,0,1.08.56,5.58,5.58,0,0,0,1.3.26,6.54,6.54,0,0,0,2.27-.14A4.35,4.35,0,0,0,205,462Zm-5-8.61a3.69,3.69,0,0,0-1.13.07,2.87,2.87,0,0,0-1,.4,2.33,2.33,0,0,0-.7.73,2.26,2.26,0,0,0-.32,1l5.66,0.46A2.49,2.49,0,0,0,201.06,455.47Z"/><path class="cls-4" d="M266.42,453l2.63,0.12-0.83,7.23-1.8-.09C266.42,457.4,266.42,455.94,266.42,453Zm5,0.23,2.63,0.12-0.83,7.23-1.8-.08C271.39,457.63,271.39,456.18,271.39,453.27Z"/><path class="cls-4" d="M281.48,460.28h-0.12l0.14,1.91c0,3,0,4.57,0,7.61l-3-.12c0-6.44,0-9.66,0-16.1l2.76,0.11,5.58,10.06H287l-0.21-1.94c0-3.16,0-4.75,0-7.91l3,0.11c0,6.44,0,9.66,0,16.1L287,470Z"/><path class="cls-4" d="M293.12,459.52a12.23,12.23,0,0,1,2.13-.64,12.05,12.05,0,0,1,2.87-.21,6.47,6.47,0,0,1,2,.35,3.55,3.55,0,0,1,1.36.86,3.22,3.22,0,0,1,.75,1.29,5.6,5.6,0,0,1,.23,1.66q0,1.17-.08,2t-0.08,1.47a9.91,9.91,0,0,0,0,1.08c0,0.21.05,0.42,0.07,0.62l1.5,0v2.53l-3.87-.11-0.3-1.57h-0.11a3.79,3.79,0,0,1-1.31,1.19,4.28,4.28,0,0,1-2.29.44,4,4,0,0,1-2.73-1,3.25,3.25,0,0,1-1-2.47,3.58,3.58,0,0,1,.35-1.66,2.83,2.83,0,0,1,1-1.11,4.73,4.73,0,0,1,1.63-.61,9.45,9.45,0,0,1,2.12-.15c0.27,0,.56,0,0.87.07l1.12,0.13a2.35,2.35,0,0,0,0-.46v-0.44a1.52,1.52,0,0,0-.5-1.27,2.51,2.51,0,0,0-1.49-.43,6.86,6.86,0,0,0-2.1.23,13.06,13.06,0,0,0-1.58.54Zm3.92,8.57a2.7,2.7,0,0,0,1.64-.35,2.59,2.59,0,0,0,.8-0.84v-1.38l-0.68-.12a8,8,0,0,0-1-.09,4.71,4.71,0,0,0-.87.05,2.81,2.81,0,0,0-.78.23,1.44,1.44,0,0,0-.55.43,1.05,1.05,0,0,0-.2.66,1.35,1.35,0,0,0,.38,1A1.82,1.82,0,0,0,297,468.09Z"/><path class="cls-4" d="M307.55,461.7l-2.28-.06c0-1,0-1.52,0-2.53l2.28,0.06c0-1,0-1.57,0-2.62l3-.77c0,1.39,0,2.08,0,3.47l6,0.14c0,1,0,1.52,0,2.53l-6-.14c0,1.32,0,2,0,3.29a4,4,0,0,0,.67,2.58,2.37,2.37,0,0,0,1.87.84,4,4,0,0,0,1.13-.12,4.16,4.16,0,0,0,.91-0.36,5,5,0,0,0,.74-0.49l0.61-.49,1.38,2.1a4.3,4.3,0,0,1-1,.82,8.13,8.13,0,0,1-1.27.64,7.88,7.88,0,0,1-1.42.42,6.73,6.73,0,0,1-1.45.13,5.09,5.09,0,0,1-3.88-1.53,6.81,6.81,0,0,1-1.3-4.6V461.7Z"/><path class="cls-4" d="M318.71,454.84l4.66,0.09c0,2.36,0,3.53,0,5.89h0.09a3.79,3.79,0,0,1,1.48-1.15,5,5,0,0,1,2.17-.4,5.46,5.46,0,0,1,1.61.26,3.12,3.12,0,0,1,1.27.78,3.64,3.64,0,0,1,.83,1.45,7.28,7.28,0,0,1,.3,2.25c0,2.86,0,4.29,0,7.15l-3,0c0-2.61,0-3.92,0-6.53a2.89,2.89,0,0,0-.6-2,2.12,2.12,0,0,0-1.57-.65,2.58,2.58,0,0,0-1.57.49,2.74,2.74,0,0,0-1,1.3c0,2.93,0,4.4,0,7.34l-3-.06c0-5.43,0-8.14,0-13.57l-1.66,0C318.71,456.36,318.71,455.85,318.71,454.84Z"/><path class="cls-4" d="M334.62,460.49a12.47,12.47,0,0,1,2.13-.69,12.13,12.13,0,0,1,2.87-.27,6.41,6.41,0,0,1,2,.31,3.45,3.45,0,0,1,1.36.83,3.13,3.13,0,0,1,.75,1.27,5.56,5.56,0,0,1,.23,1.66q0,1.17-.08,2t-0.08,1.47a9.89,9.89,0,0,0,0,1.08c0,0.21.05,0.42,0.07,0.62h1.5c0,1,0,1.52,0,2.53l-3.87,0-0.3-1.57h-0.11a3.91,3.91,0,0,1-1.31,1.22,4.33,4.33,0,0,1-2.29.49,3.93,3.93,0,0,1-2.73-1,3.19,3.19,0,0,1-1-2.45,3.63,3.63,0,0,1,.35-1.66,2.92,2.92,0,0,1,1-1.14,4.84,4.84,0,0,1,1.63-.65,9.5,9.5,0,0,1,2.12-.2c0.27,0,.57,0,0.87.05l1.12,0.1a2.35,2.35,0,0,0,0-.46v-0.44a1.48,1.48,0,0,0-.5-1.26A2.47,2.47,0,0,0,339,462a6.91,6.91,0,0,0-2.11.28,13.34,13.34,0,0,0-1.58.58Zm3.92,8.49a2.74,2.74,0,0,0,1.64-.39,2.67,2.67,0,0,0,.8-0.85c0-.55,0-0.83,0-1.38l-0.68-.11a7.93,7.93,0,0,0-1-.07,4.73,4.73,0,0,0-.87.07,2.85,2.85,0,0,0-.78.25,1.48,1.48,0,0,0-.55.44,1.07,1.07,0,0,0-.2.66,1.32,1.32,0,0,0,.38,1A1.78,1.78,0,0,0,338.54,469Z"/><path class="cls-4" d="M346.65,459.83l4,0,0.35,1.52h0.09a4.54,4.54,0,0,1,1.52-1.28,4.81,4.81,0,0,1,2.38-.55,5.45,5.45,0,0,1,1.6.23,3.05,3.05,0,0,1,1.28.76,3.68,3.68,0,0,1,.84,1.44,7,7,0,0,1,.31,2.24v7.15h-3c0-2.61,0-3.92,0-6.53a2.75,2.75,0,0,0-.63-2,2.2,2.2,0,0,0-1.6-.63,2.64,2.64,0,0,0-1.56.49,2.46,2.46,0,0,0-1,1.23v7.45l-3,0c0-3.59,0-5.38,0-9h-1.66C346.65,461.35,346.65,460.84,346.65,459.83Z"/><path class="cls-4" d="M377.06,455.19l2.63,0-0.83,7.28-1.8,0C377.06,459.55,377.06,458.1,377.06,455.19Zm5-.05,2.63,0-0.83,7.28-1.8,0C382,459.5,382,458,382,455.14Z"/><path class="cls-4" d="M392.93,469.57a1.69,1.69,0,0,1,.51-1.29,2.2,2.2,0,0,1,2.72,0,1.63,1.63,0,0,1,.51,1.27,1.73,1.73,0,0,1-.51,1.3,2,2,0,0,1-1.38.51,1.83,1.83,0,0,1-1.34-.46A1.67,1.67,0,0,1,392.93,469.57Z"/><path class="cls-4" d="M414.3,469.5a6.82,6.82,0,0,1-2.21,1.13,9.82,9.82,0,0,1-2.65.43,7.43,7.43,0,0,1-2.66-.37,5.26,5.26,0,0,1-2-1.18,5.06,5.06,0,0,1-1.21-1.89,7.06,7.06,0,0,1-.41-2.48,6.55,6.55,0,0,1,.48-2.59,5.61,5.61,0,0,1,1.35-1.94,6,6,0,0,1,2-1.23,8,8,0,0,1,2.56-.47,9.41,9.41,0,0,1,2.42.24,11.06,11.06,0,0,1,1.73.53v4l-2.54.07v-2.12a6.45,6.45,0,0,0-1.43-.12,4.39,4.39,0,0,0-1.28.23,3.23,3.23,0,0,0-1.13.65,3.38,3.38,0,0,0-.81,1.09,3.56,3.56,0,0,0-.31,1.55,3.5,3.5,0,0,0,.25,1.35,3.05,3.05,0,0,0,1.86,1.76,4.07,4.07,0,0,0,1.51.23A5.46,5.46,0,0,0,412,468a9,9,0,0,0,1.26-.68Z"/><path class="cls-4" d="M416.35,464.8a7.17,7.17,0,0,1,.44-2.59A5.42,5.42,0,0,1,420,459a7.51,7.51,0,0,1,2.5-.48,7.13,7.13,0,0,1,2.59.35,5.12,5.12,0,0,1,1.92,1.16,4.94,4.94,0,0,1,1.19,1.88,7.83,7.83,0,0,1,0,5.06,5.43,5.43,0,0,1-3.17,3.2,7.45,7.45,0,0,1-2.5.48,7.09,7.09,0,0,1-2.59-.36,5.13,5.13,0,0,1-1.93-1.17,5,5,0,0,1-1.19-1.88A7.23,7.23,0,0,1,416.35,464.8Zm3.09-.09a4.49,4.49,0,0,0,.21,1.4,3.31,3.31,0,0,0,.6,1.11,2.58,2.58,0,0,0,.94.72,2.85,2.85,0,0,0,1.27.22,3,3,0,0,0,2.18-.92,3.81,3.81,0,0,0,.84-2.72,3.87,3.87,0,0,0-.78-2.54,2.61,2.61,0,0,0-2.24-.9,3.65,3.65,0,0,0-1.2.23,2.47,2.47,0,0,0-1,.66,3.22,3.22,0,0,0-.63,1.12A5,5,0,0,0,419.44,464.7Z"/><path class="cls-4" d="M429.65,458.61l4-.15L434,460h0.09a4.83,4.83,0,0,1,1.52-1.35A5,5,0,0,1,438,458a5.36,5.36,0,0,1,1.6.17,2.89,2.89,0,0,1,1.28.71,3.49,3.49,0,0,1,.84,1.4,6.87,6.87,0,0,1,.31,2.23v7.15l-3,.12v-6.53a2.65,2.65,0,0,0-.63-2,2.12,2.12,0,0,0-1.6-.56,2.74,2.74,0,0,0-1.55.56,2.61,2.61,0,0,0-1,1.27v7.45l-3,.11v-9l-1.66.06v-2.53Z"/><path class="cls-4" d="M455.78,467.89a7,7,0,0,1-2.21,1.18,9.91,9.91,0,0,1-2.65.48,7.36,7.36,0,0,1-2.66-.31,5.11,5.11,0,0,1-2-1.14,4.92,4.92,0,0,1-1.21-1.87,7,7,0,0,1-.41-2.47,6.63,6.63,0,0,1,.48-2.6,5.78,5.78,0,0,1,1.35-2,6.18,6.18,0,0,1,2-1.28,8.09,8.09,0,0,1,2.56-.52,9.34,9.34,0,0,1,2.42.18,10.88,10.88,0,0,1,1.73.49v4l-2.53.12v-2.12a6.42,6.42,0,0,0-1.43-.09,4.44,4.44,0,0,0-1.28.26,3.32,3.32,0,0,0-1.13.67,3.48,3.48,0,0,0-.81,1.11,3.61,3.61,0,0,0-.31,1.56A3.47,3.47,0,0,0,448,465a3,3,0,0,0,1.85,1.72,4,4,0,0,0,1.51.19,5.53,5.53,0,0,0,2.15-.47,9.23,9.23,0,0,0,1.26-.7Z"/><path class="cls-4" d="M459.09,458.11a13.22,13.22,0,0,1,2.13-.82,12.4,12.4,0,0,1,2.87-.45,6.25,6.25,0,0,1,2,.18,3.17,3.17,0,0,1,1.36.74,2.88,2.88,0,0,1,.75,1.22,5.41,5.41,0,0,1,.23,1.64q0,1.17-.08,2t-0.08,1.48a9.78,9.78,0,0,0,0,1.08c0,0.21.05,0.42,0.07,0.62l1.5-.08v2.53l-3.87.22-0.3-1.55h-0.11a4.3,4.3,0,0,1-1.3,1.3,4.52,4.52,0,0,1-2.29.64,3.72,3.72,0,0,1-2.72-.78,3,3,0,0,1-1-2.39,3.77,3.77,0,0,1,.35-1.69,3.2,3.2,0,0,1,1-1.2,5.18,5.18,0,0,1,1.62-.75,9.7,9.7,0,0,1,2.12-.33c0.27,0,.56,0,0.87,0l1.12,0a2.41,2.41,0,0,0,0-.46v-0.44a1.39,1.39,0,0,0-.5-1.23,2.36,2.36,0,0,0-1.49-.3,7.12,7.12,0,0,0-2.1.41,14.23,14.23,0,0,0-1.58.68Zm3.92,8.24a2.87,2.87,0,0,0,1.64-.49,2.93,2.93,0,0,0,.8-0.91v-1.38l-0.68-.07a7.84,7.84,0,0,0-1,0,4.82,4.82,0,0,0-.87.13,3,3,0,0,0-.77.29,1.63,1.63,0,0,0-.55.48,1.13,1.13,0,0,0-.2.68,1.25,1.25,0,0,0,.38,1A1.7,1.7,0,0,0,463,466.35Z"/><path class="cls-4" d="M473.51,459.07l-2.28.13v-2.53l2.28-.13c0-1,0-1.57,0-2.62l3-1v3.47l6-.37v2.53l-6,.37v3.29a3.79,3.79,0,0,0,.67,2.52,2.17,2.17,0,0,0,1.87.68,4.1,4.1,0,0,0,1.13-.22,4.57,4.57,0,0,0,.91-0.44,5.69,5.69,0,0,0,.74-0.55l0.61-.54,1.38,2a4.87,4.87,0,0,1-1,.9,9.05,9.05,0,0,1-1.27.75,8.51,8.51,0,0,1-1.42.54,6.94,6.94,0,0,1-1.45.25,4.7,4.7,0,0,1-3.88-1.2q-1.3-1.36-1.3-4.49v-3.29Z"/><path class="cls-4" d="M495.13,471.53a10.07,10.07,0,0,1-3.13-.8,8.31,8.31,0,0,1-2.69-1.87,8.92,8.92,0,0,1-1.88-3,11.59,11.59,0,0,1-.7-4.23,12.37,12.37,0,0,1,.7-4.31A10.89,10.89,0,0,1,489.3,454a10.29,10.29,0,0,1,2.69-2.28,12.24,12.24,0,0,1,3.13-1.3l0.55,2.42a10.31,10.31,0,0,0-1.83.78,7.36,7.36,0,0,0-1.94,1.54,8.45,8.45,0,0,0-1.55,2.51,9.66,9.66,0,0,0-.63,3.72,8.19,8.19,0,0,0,.67,3.52,7.18,7.18,0,0,0,1.62,2.27,6.51,6.51,0,0,0,2,1.27,7.42,7.42,0,0,0,1.7.49Z"/><path class="cls-4" d="M500.47,450.17l4.9-.36c0,4.25,0,6.38,0,10.63a4.73,4.73,0,0,0,.44,2.43,1.42,1.42,0,0,0,1.4.58,4,4,0,0,0,1.17-.24,4.87,4.87,0,0,0,.92-0.5l1.13,2q-0.39.28-.78,0.53a5.53,5.53,0,0,1-.83.43,5.94,5.94,0,0,1-1,.3,7.75,7.75,0,0,1-1.16.17,4.09,4.09,0,0,1-3.24-.86,4,4,0,0,1-1.08-3v-9.66l-1.91.14v-2.53Z"/><path class="cls-4" d="M514.34,454.5a13.6,13.6,0,0,1,2.13-.88,12.54,12.54,0,0,1,2.86-.53,6.19,6.19,0,0,1,2,.12,3.06,3.06,0,0,1,1.36.7,2.77,2.77,0,0,1,.75,1.2,5.36,5.36,0,0,1,.23,1.64q0,1.17-.08,2t-0.08,1.48a9.75,9.75,0,0,0,0,1.08c0,0.21.05,0.42,0.07,0.62l1.49-.13v2.53l-3.86.33-0.3-1.54h-0.11a4.48,4.48,0,0,1-1.3,1.34,4.62,4.62,0,0,1-2.29.7,3.63,3.63,0,0,1-2.72-.7,2.9,2.9,0,0,1-1-2.36,3.84,3.84,0,0,1,.35-1.7,3.34,3.34,0,0,1,1-1.23,5.34,5.34,0,0,1,1.62-.8,9.82,9.82,0,0,1,2.11-.39c0.27,0,.56,0,0.87,0h1.12a2.43,2.43,0,0,0,0-.46v-0.44a1.35,1.35,0,0,0-.5-1.21,2.32,2.32,0,0,0-1.48-.26,7.22,7.22,0,0,0-2.1.47,14.66,14.66,0,0,0-1.58.72Zm3.91,8.12a2.93,2.93,0,0,0,1.64-.54,3.06,3.06,0,0,0,.8-0.93v-1.38l-0.68,0a7.86,7.86,0,0,0-1,0,4.89,4.89,0,0,0-.86.15,3.11,3.11,0,0,0-.77.32,1.7,1.7,0,0,0-.55.49,1.16,1.16,0,0,0-.2.68,1.21,1.21,0,0,0,.38,1A1.66,1.66,0,0,0,518.25,462.63Z"/><path class="cls-4" d="M535.31,460.26a0.74,0.74,0,0,0-.56-0.69,7.58,7.58,0,0,0-1.39-.38l-1.82-.31a7.57,7.57,0,0,1-1.82-.51,4,4,0,0,1-1.39-1,2.31,2.31,0,0,1-.56-1.64,3.07,3.07,0,0,1,.38-1.53,3.9,3.9,0,0,1,1-1.18,5.36,5.36,0,0,1,1.56-.82,8.36,8.36,0,0,1,2-.4,10.67,10.67,0,0,1,2,0,9.11,9.11,0,0,1,1.48.26,5,5,0,0,1,1.08.42L538,453l-1.26,2.16q-0.35-.18-0.79-0.35a9.62,9.62,0,0,0-.94-0.32,6.91,6.91,0,0,0-1-.21,5.06,5.06,0,0,0-1.07,0,4.29,4.29,0,0,0-1.56.39,0.93,0.93,0,0,0-.6.84,0.69,0.69,0,0,0,.56.62,8.52,8.52,0,0,0,1.39.35l1.82,0.31a8.94,8.94,0,0,1,1.82.49,3.83,3.83,0,0,1,1.39.92,2.23,2.23,0,0,1,.56,1.6A3.64,3.64,0,0,1,537,462.6a6.52,6.52,0,0,1-3.78,1.34,8.68,8.68,0,0,1-3.41-.28,7.09,7.09,0,0,1-2.31-1.17l1.38-2.28a6.27,6.27,0,0,0,.79.49,6.55,6.55,0,0,0,1.12.47,8.85,8.85,0,0,0,1.32.31,5.7,5.7,0,0,0,1.39,0,3.09,3.09,0,0,0,1.26-.37A1,1,0,0,0,535.31,460.26Z"/><path class="cls-4" d="M542.53,453.8l-2.28.21v-2.53l2.28-.21v-2.62l3-1.13V451l6-.59v2.53l-6,.59v3.29a3.69,3.69,0,0,0,.67,2.5,2.1,2.1,0,0,0,1.86.61,4.17,4.17,0,0,0,1.13-.26,4.76,4.76,0,0,0,.91-0.47,6,6,0,0,0,.74-0.58l0.61-.57L552.8,460a5.13,5.13,0,0,1-1,.94,9.45,9.45,0,0,1-1.26.79,8.78,8.78,0,0,1-1.41.59,7,7,0,0,1-1.45.3,4.56,4.56,0,0,1-3.87-1.07q-1.3-1.31-1.3-4.44V453.8Z"/><path class="cls-4" d="M555.44,464.2c4.08-.41,6.12-0.62,10.2-1.06v2.46c-4.08.43-6.12,0.65-10.2,1.06V464.2Z"/><path class="cls-4" d="M567.7,448.73l4-.44,0.34,1.48h0.09a5.36,5.36,0,0,1,1.51-1.45,5.66,5.66,0,0,1,4-.76,2.64,2.64,0,0,1,1.27.61,3.18,3.18,0,0,1,.84,1.34,6.69,6.69,0,0,1,.31,2.21v7.15l-3,.34v-6.53a2.5,2.5,0,0,0-.63-2,2,2,0,0,0-1.6-.44,2.92,2.92,0,0,0-1.55.67,2.88,2.88,0,0,0-1,1.34v7.45l-3,.33v-9l-1.65.18v-2.53Z"/><path class="cls-4" d="M583.26,447.78a14.08,14.08,0,0,1,2.12-1,12.75,12.75,0,0,1,2.86-.64,6.13,6.13,0,0,1,2,0,2.92,2.92,0,0,1,1.35.65,2.65,2.65,0,0,1,.75,1.18,5.29,5.29,0,0,1,.23,1.63q0,1.17-.08,2t-0.08,1.48a9.74,9.74,0,0,0,0,1.08c0,0.21.05,0.42,0.07,0.61l1.49-.18v2.53l-3.85.46-0.3-1.53h-0.11a4.49,4.49,0,0,1-3.58,2.17,3.53,3.53,0,0,1-2.71-.6,2.8,2.8,0,0,1-1-2.32,3.94,3.94,0,0,1,.35-1.71,3.51,3.51,0,0,1,1-1.27,5.56,5.56,0,0,1,1.62-.86,10,10,0,0,1,2.11-.47c0.27,0,.56-0.05.87-0.06l1.12,0a2.47,2.47,0,0,0,0-.47v-0.44a1.31,1.31,0,0,0-.5-1.19,2.27,2.27,0,0,0-1.48-.2,7.36,7.36,0,0,0-2.09.54A15.23,15.23,0,0,0,584,450Zm3.9,8a3,3,0,0,0,1.63-.6,3.22,3.22,0,0,0,.79-1v-1.38l-0.68,0a7.83,7.83,0,0,0-1,.06,5,5,0,0,0-.86.18,3.23,3.23,0,0,0-.77.34,1.79,1.79,0,0,0-.54.51,1.2,1.2,0,0,0-.2.69,1.17,1.17,0,0,0,.37,1A1.62,1.62,0,0,0,587.17,455.76Z"/><path class="cls-4" d="M600.49,456.43v-7a5.37,5.37,0,0,0-.09-1.1,1.91,1.91,0,0,0-.24-0.64,0.62,0.62,0,0,0-.37-0.28,1.23,1.23,0,0,0-.45,0,1.32,1.32,0,0,0-.72.34,1.45,1.45,0,0,0-.45.7v8.33l-2.75.34v-11.5l2.18-.27,0.32,1.23H598a3.36,3.36,0,0,1,1-1.22,3.15,3.15,0,0,1,1.56-.62,2.82,2.82,0,0,1,1.44.19,1.65,1.65,0,0,1,.94,1.17,3.07,3.07,0,0,1,1.05-1.36,3.29,3.29,0,0,1,1.54-.62,3.24,3.24,0,0,1,1.11,0,1.65,1.65,0,0,1,.86.5,2.58,2.58,0,0,1,.56,1.11,7.5,7.5,0,0,1,.19,1.89v7.87l-2.75.35v-7.36a2.17,2.17,0,0,0-.33-1.41,0.88,0.88,0,0,0-.81-0.31,1.42,1.42,0,0,0-.71.29,1.21,1.21,0,0,0-.41.68v8.39Z"/><path class="cls-4" d="M620.95,452.55a4.94,4.94,0,0,1-.77.64,8.73,8.73,0,0,1-1.1.64,9.56,9.56,0,0,1-1.39.55,9.42,9.42,0,0,1-1.6.35,7.46,7.46,0,0,1-2.62-.07,4.3,4.3,0,0,1-3.19-2.7,6.68,6.68,0,0,1-.42-2.49,7.25,7.25,0,0,1,.48-2.72,6.35,6.35,0,0,1,1.32-2.07,6.57,6.57,0,0,1,2-1.4,8.23,8.23,0,0,1,2.43-.7,7.31,7.31,0,0,1,1.8,0,4.29,4.29,0,0,1,1.71.56,3.49,3.49,0,0,1,1.27,1.34,4.73,4.73,0,0,1,.49,2.32,11.48,11.48,0,0,1-.23,2.17l-8.25,1.1a2.43,2.43,0,0,0,.31,1.2,2,2,0,0,0,.76.73,2.88,2.88,0,0,0,1.08.33,5.26,5.26,0,0,0,1.29,0,7.21,7.21,0,0,0,2.26-.62,5.69,5.69,0,0,0,1.43-1ZM616,445a4.08,4.08,0,0,0-1.12.31,3.71,3.71,0,0,0-1,.61,3.17,3.17,0,0,0-.7.88,2.69,2.69,0,0,0-.32,1.1l5.64-.75a2.25,2.25,0,0,0-.63-1.73A2.27,2.27,0,0,0,616,445Z"/><path class="cls-4" d="M625.21,455.55a9.07,9.07,0,0,0,1.69-.84,8.73,8.73,0,0,0,2-1.68,9.53,9.53,0,0,0,1.61-2.61,9.21,9.21,0,0,0,.66-3.66,8.74,8.74,0,0,0-.63-3.59A6.37,6.37,0,0,0,629,441a5.52,5.52,0,0,0-1.93-1.13,8.56,8.56,0,0,0-1.82-.4l0.55-2.54a10.19,10.19,0,0,1,3.11.65,7.64,7.64,0,0,1,2.68,1.72,8.3,8.3,0,0,1,1.87,2.9,11.24,11.24,0,0,1,.7,4.17,12.87,12.87,0,0,1-.7,4.38,11.69,11.69,0,0,1-1.87,3.39,11.16,11.16,0,0,1-2.68,2.42,12.14,12.14,0,0,1-3.11,1.44Z"/><path class="cls-4" d="M88.36,386.85l4.87,0.69c0,4.25,0,6.38,0,10.63a5.33,5.33,0,0,0,.44,2.52,1.8,1.8,0,0,0,1.4.88,3.73,3.73,0,0,0,1.17,0,3.86,3.86,0,0,0,.92-0.3l1.12,2.22q-0.39.2-.78,0.36a4.38,4.38,0,0,1-.82.25,5.18,5.18,0,0,1-.95.1,7.5,7.5,0,0,1-1.16-.08,5,5,0,0,1-3.23-1.56,4.86,4.86,0,0,1-1.08-3.28c0-3.86,0-5.8,0-9.66l-1.9-.27C88.37,388.37,88.36,387.86,88.36,386.85Z"/><path class="cls-4" d="M102.17,394.15a11.29,11.29,0,0,1,2.12-.43,11.81,11.81,0,0,1,2.85.08,6.83,6.83,0,0,1,2,.56,4,4,0,0,1,1.35,1,3.67,3.67,0,0,1,.75,1.36,5.88,5.88,0,0,1,.23,1.69q0,1.17-.08,2c-0.05.54-.08,1-0.08,1.46a10.05,10.05,0,0,0,0,1.09c0,0.21.05,0.43,0.07,0.63l1.49,0.19v2.53l-3.85-.5-0.3-1.6h-0.11a3.27,3.27,0,0,1-1.3,1.06,4,4,0,0,1-2.28.22,4.4,4.4,0,0,1-2.71-1.28,3.6,3.6,0,0,1-1-2.57,3.38,3.38,0,0,1,.35-1.62,2.45,2.45,0,0,1,1-1,4.29,4.29,0,0,1,1.62-.45,9.26,9.26,0,0,1,2.1.06c0.27,0,.56.09,0.87,0.16l1.12,0.24a2.29,2.29,0,0,0,0-.45v-0.44a1.67,1.67,0,0,0-.5-1.32,2.72,2.72,0,0,0-1.48-.57,6.65,6.65,0,0,0-2.09,0,11.94,11.94,0,0,0-1.57.39Zm3.9,9a2.54,2.54,0,0,0,1.63-.19,2.23,2.23,0,0,0,.79-0.76v-1.38l-0.68-.19a8.22,8.22,0,0,0-1-.19,4.65,4.65,0,0,0-.86,0,2.58,2.58,0,0,0-.77.15,1.24,1.24,0,0,0-.54.38,1,1,0,0,0-.2.64,1.49,1.49,0,0,0,.37,1A2,2,0,0,0,106.07,403.11Z"/><path class="cls-4" d="M123.07,404.39a1,1,0,0,0-.56-0.81,9.34,9.34,0,0,0-1.39-.68l-1.81-.7a9.37,9.37,0,0,1-1.81-.9,5.46,5.46,0,0,1-1.39-1.26,2.8,2.8,0,0,1-.56-1.76,2.65,2.65,0,0,1,.38-1.45,2.84,2.84,0,0,1,1-1,4.26,4.26,0,0,1,1.56-.48,7.81,7.81,0,0,1,2,0,11.33,11.33,0,0,1,2,.41,10.73,10.73,0,0,1,1.48.57,6.36,6.36,0,0,1,1.08.65l0.77,0.61-1.26,1.89q-0.34-.25-0.79-0.52t-0.94-.52a8.27,8.27,0,0,0-1-.43,5.47,5.47,0,0,0-1.07-.25,3.89,3.89,0,0,0-1.56.06,0.71,0.71,0,0,0-.6.71,0.9,0.9,0,0,0,.56.74,10.42,10.42,0,0,0,1.39.64l1.81,0.7a11,11,0,0,1,1.81.88,5.2,5.2,0,0,1,1.39,1.22,2.7,2.7,0,0,1,.56,1.72,2.89,2.89,0,0,1-1.27,2.59,5.57,5.57,0,0,1-3.77.53,9.7,9.7,0,0,1-3.4-1,9.37,9.37,0,0,1-2.3-1.66l1.38-2a8.35,8.35,0,0,0,.79.66,8.51,8.51,0,0,0,1.11.7,10.72,10.72,0,0,0,1.32.59,6.19,6.19,0,0,0,1.39.35,2.74,2.74,0,0,0,1.26-.1A0.75,0.75,0,0,0,123.07,404.39Z"/><path class="cls-4" d="M130.27,399.48L128,399.2c0-1,0-1.52,0-2.53l2.27,0.27c0-1,0-1.57,0-2.62l3-.5c0,1.39,0,2.08,0,3.47l6,0.7c0,1,0,1.52,0,2.53l-6-.7c0,1.32,0,2,0,3.29a4.33,4.33,0,0,0,.67,2.64,2.61,2.61,0,0,0,1.86,1,3.75,3.75,0,0,0,2-.29,4.43,4.43,0,0,0,.73-0.42l0.61-.44,1.38,2.23a3.76,3.76,0,0,1-1,.73,7.29,7.29,0,0,1-2.67.81,6.6,6.6,0,0,1-1.45,0,5.58,5.58,0,0,1-3.87-1.89,7.35,7.35,0,0,1-1.3-4.72v-3.29Z"/><path class="cls-4" d="M143.16,412.64c4.08,0.46,6.11.69,10.19,1.13,0,1,0,1.48,0,2.46-4.08-.44-6.12-0.66-10.19-1.13C143.16,414.12,143.16,413.62,143.16,412.64Z"/><path class="cls-4" d="M155.42,399.8l4,0.42,0.34,1.55h0.09a3.93,3.93,0,0,1,1.52-1.13,4.53,4.53,0,0,1,2.37-.31,5.74,5.74,0,0,1,1.6.39,3.49,3.49,0,0,1,1.27.89,4.18,4.18,0,0,1,.84,1.52,7.3,7.3,0,0,1,.31,2.27v7.15l-3-.3v-6.53a3,3,0,0,0-.63-2.09,2.56,2.56,0,0,0-3.15-.45,2.14,2.14,0,0,0-1,1.13v7.45l-3-.31c0-3.59,0-5.38,0-9l-1.65-.18C155.42,401.31,155.42,400.81,155.42,399.8Z"/><path class="cls-4" d="M171,402.18a11.63,11.63,0,0,1,2.13-.5,11.88,11.88,0,0,1,2.86,0,6.69,6.69,0,0,1,2,.48,3.86,3.86,0,0,1,1.36.94,3.5,3.5,0,0,1,.75,1.33,5.77,5.77,0,0,1,.23,1.68q0,1.17-.08,2c-0.05.55-.08,1-0.08,1.46a9.92,9.92,0,0,0,0,1.09c0,0.21.05,0.43,0.07,0.63l1.49,0.14v2.53l-3.86-.36-0.3-1.59h-0.11a3.45,3.45,0,0,1-1.3,1.11,4.12,4.12,0,0,1-2.28.3,4.25,4.25,0,0,1-2.72-1.19,3.79,3.79,0,0,1-.65-4.17,2.58,2.58,0,0,1,1-1,4.45,4.45,0,0,1,1.62-.51,9.31,9.31,0,0,1,2.11,0q0.41,0,.87.13l1.12,0.2a2.31,2.31,0,0,0,0-.46v-0.44a1.62,1.62,0,0,0-.5-1.3,2.64,2.64,0,0,0-1.48-.52,6.71,6.71,0,0,0-2.1.1,12.32,12.32,0,0,0-1.57.44ZM174.9,411a2.59,2.59,0,0,0,1.64-.25,2.35,2.35,0,0,0,.8-0.79v-1.38l-0.68-.17a8.11,8.11,0,0,0-1-.15,4.66,4.66,0,0,0-.86,0,2.66,2.66,0,0,0-.77.18,1.31,1.31,0,0,0-.55.4,1,1,0,0,0-.2.65,1.44,1.44,0,0,0,.37,1A1.92,1.92,0,0,0,174.9,411Z"/><path class="cls-4" d="M188.25,414.51v-7a5.65,5.65,0,0,0-.09-1.12,2.33,2.33,0,0,0-.24-0.69,0.84,0.84,0,0,0-.37-0.36,1.36,1.36,0,0,0-.45-0.12,1.13,1.13,0,0,0-1.17.79c0,3.33,0,5,0,8.33l-2.76-.25c0-4.6,0-6.9,0-11.5l2.18,0.2,0.32,1.29h0.07a2.47,2.47,0,0,1,1-1,2.69,2.69,0,0,1,1.56-.29,3.26,3.26,0,0,1,1.45.5,2.21,2.21,0,0,1,.94,1.37,2.25,2.25,0,0,1,1.06-1.14,2.79,2.79,0,0,1,1.54-.29,3.56,3.56,0,0,1,1.11.27,2.23,2.23,0,0,1,.86.68,3.31,3.31,0,0,1,.56,1.23,8,8,0,0,1,.2,1.94c0,3.15,0,4.72,0,7.87l-2.76-.24c0-2.94,0-4.42,0-7.36a2.5,2.5,0,0,0-.33-1.48,1.12,1.12,0,0,0-.82-0.49,1.21,1.21,0,0,0-.71.13,0.91,0.91,0,0,0-.41.6v8.39Z"/><path class="cls-4" d="M208.78,415a3.69,3.69,0,0,1-.77.48,6.84,6.84,0,0,1-1.1.41,8.08,8.08,0,0,1-1.39.26,8.79,8.79,0,0,1-1.61,0,8.16,8.16,0,0,1-2.63-.63,5.8,5.8,0,0,1-3.2-3.38,7.39,7.39,0,0,1-.43-2.58,6.46,6.46,0,0,1,.48-2.62,4.73,4.73,0,0,1,1.32-1.79,5,5,0,0,1,2-1,7.41,7.41,0,0,1,2.44-.18,7.85,7.85,0,0,1,1.81.38,5.43,5.43,0,0,1,1.71.93,4.77,4.77,0,0,1,1.28,1.61,5.38,5.38,0,0,1,.49,2.43,10.68,10.68,0,0,1-.23,2.12l-8.28-.67a2.82,2.82,0,0,0,.31,1.27,2.76,2.76,0,0,0,.76.89,3.6,3.6,0,0,0,1.08.56,5.58,5.58,0,0,0,1.3.26,6.54,6.54,0,0,0,2.27-.14,4.35,4.35,0,0,0,1.44-.67Zm-5-8.61a3.69,3.69,0,0,0-1.13.07,2.87,2.87,0,0,0-1,.4,2.33,2.33,0,0,0-.7.73,2.26,2.26,0,0,0-.32,1l5.66,0.46A2.49,2.49,0,0,0,203.81,406.41Z"/><path class="cls-4" d="M513.24,399.93l2.62-.21L515,407l-1.79.14C513.24,404.29,513.24,402.83,513.24,399.93Zm5-.4,2.62-.22L520,406.64l-1.79.15C518.21,403.88,518.21,402.43,518.21,399.52Z"/><path class="cls-4" d="M533.52,407.56l-5.2.46c0,2.7,0,4,0,6.74l-3.15.27c0-6.44,0-9.66,0-16.1l3.15-.27c0,2.62,0,3.93,0,6.55l5.2-.46v-6.55l3.15-.29V414l-3.15.29v-6.74Z"/><path class="cls-4" d="M550.09,411.5a4.71,4.71,0,0,1-.77.62,8.36,8.36,0,0,1-1.1.6,9.39,9.39,0,0,1-3,.8,7.54,7.54,0,0,1-2.63-.16,4.52,4.52,0,0,1-3.19-2.81A6.78,6.78,0,0,1,539,408a7.1,7.1,0,0,1,.48-2.7,6.05,6.05,0,0,1,1.32-2,6.28,6.28,0,0,1,2-1.33,8,8,0,0,1,2.44-.61,7.36,7.36,0,0,1,1.8.06,4.46,4.46,0,0,1,1.71.62,3.68,3.68,0,0,1,1.27,1.38,4.82,4.82,0,0,1,.49,2.34,11.32,11.32,0,0,1-.23,2.16l-8.27.8a2.49,2.49,0,0,0,.31,1.21,2.14,2.14,0,0,0,.76.75,3,3,0,0,0,1.08.37,5.27,5.27,0,0,0,1.3,0,7.06,7.06,0,0,0,2.26-.54,5.45,5.45,0,0,0,1.44-.92Zm-5-7.72A4,4,0,0,0,544,404a3.55,3.55,0,0,0-1,.57,3,3,0,0,0-.7.85,2.61,2.61,0,0,0-.32,1.08l5.65-.55A2,2,0,0,0,545.13,403.78Z"/><path class="cls-4" d="M560.84,408.45a0.73,0.73,0,0,0-.56-0.68,7.48,7.48,0,0,0-1.39-.36l-1.81-.28a7.47,7.47,0,0,1-1.81-.48,3.92,3.92,0,0,1-1.39-.94,2.29,2.29,0,0,1-.56-1.63,3.1,3.1,0,0,1,.38-1.53,4,4,0,0,1,1-1.2,5.45,5.45,0,0,1,1.56-.84,8.42,8.42,0,0,1,2-.43,10.66,10.66,0,0,1,2,0,9,9,0,0,1,1.48.24,4.89,4.89,0,0,1,1.08.4l0.77,0.44-1.26,2.18q-0.34-.17-0.79-0.34a9.48,9.48,0,0,0-.94-0.3,6.88,6.88,0,0,0-1-.19,5,5,0,0,0-1.07,0,4.32,4.32,0,0,0-1.56.41,0.94,0.94,0,0,0-.6.84,0.67,0.67,0,0,0,.56.61,8.44,8.44,0,0,0,1.39.33l1.81,0.28a8.79,8.79,0,0,1,1.81.46,3.76,3.76,0,0,1,1.39.9,2.21,2.21,0,0,1,.56,1.6,3.69,3.69,0,0,1-1.27,2.88,6.59,6.59,0,0,1-3.78,1.4,8.63,8.63,0,0,1-3.41-.24,7,7,0,0,1-2.31-1.13l1.38-2.3a6.15,6.15,0,0,0,.79.48,6.45,6.45,0,0,0,1.11.45,8.75,8.75,0,0,0,1.32.29,5.68,5.68,0,0,0,1.39,0,3.11,3.11,0,0,0,1.26-.38A1,1,0,0,0,560.84,408.45Z"/><path class="cls-4" d="M574.61,407a0.72,0.72,0,0,0-.56-0.67,7.42,7.42,0,0,0-1.39-.35l-1.81-.27a7.42,7.42,0,0,1-1.81-.47,3.88,3.88,0,0,1-1.39-.93,2.27,2.27,0,0,1-.56-1.63,3.12,3.12,0,0,1,.38-1.54,4,4,0,0,1,1-1.2,5.5,5.5,0,0,1,1.56-.85,8.45,8.45,0,0,1,2-.45,10.65,10.65,0,0,1,2-.06,9,9,0,0,1,1.48.23,4.84,4.84,0,0,1,1.08.39l0.77,0.43-1.26,2.19q-0.34-.17-0.79-0.34a9.37,9.37,0,0,0-.94-0.3,6.82,6.82,0,0,0-1-.18,5,5,0,0,0-1.07,0,4.34,4.34,0,0,0-1.56.43,1,1,0,0,0-.6.85,0.67,0.67,0,0,0,.56.6,8.39,8.39,0,0,0,1.39.32l1.81,0.27a8.78,8.78,0,0,1,1.81.45,3.71,3.71,0,0,1,1.39.89,2.19,2.19,0,0,1,.56,1.59,3.72,3.72,0,0,1-1.27,2.89,6.64,6.64,0,0,1-3.78,1.42,8.6,8.6,0,0,1-3.41-.21,6.9,6.9,0,0,1-2.31-1.12l1.38-2.31a6.1,6.1,0,0,0,.79.48,6.38,6.38,0,0,0,1.11.44,8.63,8.63,0,0,0,1.32.28,5.67,5.67,0,0,0,1.39,0,3.13,3.13,0,0,0,1.26-.39A1,1,0,0,0,574.61,407Z"/><path class="cls-4" d="M581.15,393.28l4.89-.57c0,4.25,0,6.38,0,10.63a4.63,4.63,0,0,0,.44,2.41,1.36,1.36,0,0,0,1.4.52A4.1,4.1,0,0,0,589,406a5.13,5.13,0,0,0,.92-0.54l1.12,1.93q-0.39.3-.78,0.57a5.79,5.79,0,0,1-.83.47,6.15,6.15,0,0,1-1,.34,7.87,7.87,0,0,1-1.16.22,4,4,0,0,1-3.23-.72,3.85,3.85,0,0,1-1.08-3v-9.66l-1.9.22v-2.53Z"/><path class="cls-4" d="M605.16,405.23a4.91,4.91,0,0,1-.77.64,8.65,8.65,0,0,1-1.1.64,9.5,9.5,0,0,1-1.39.54,9.38,9.38,0,0,1-1.6.34,7.48,7.48,0,0,1-2.62-.09,4.34,4.34,0,0,1-3.19-2.72,6.7,6.7,0,0,1-.42-2.49,7.22,7.22,0,0,1,.48-2.72,6.29,6.29,0,0,1,1.32-2.06,6.52,6.52,0,0,1,2-1.38,8.19,8.19,0,0,1,2.43-.68,7.32,7.32,0,0,1,1.8,0,4.32,4.32,0,0,1,1.71.58,3.53,3.53,0,0,1,1.27,1.34,4.75,4.75,0,0,1,.49,2.33,11.43,11.43,0,0,1-.23,2.17l-8.25,1a2.44,2.44,0,0,0,.31,1.2,2,2,0,0,0,.76.73,2.89,2.89,0,0,0,1.08.34,5.24,5.24,0,0,0,1.3,0,7.19,7.19,0,0,0,2.26-.61,5.65,5.65,0,0,0,1.43-1Zm-5-7.58a4.06,4.06,0,0,0-1.12.31,3.68,3.68,0,0,0-1,.6,3.13,3.13,0,0,0-.7.87,2.67,2.67,0,0,0-.32,1.09l5.64-.71A2,2,0,0,0,600.21,397.65Z"/><path class="cls-4" d="M607.56,403.6l2.84-.37v-6.44l-2.84.37c0-1,0-1.52,0-2.53l5.15-.68,0.34,1.47h0.09a7.4,7.4,0,0,1,1.47-1.46,4.06,4.06,0,0,1,1.92-.76,2.28,2.28,0,0,1,2.16.72,5.08,5.08,0,0,1,.79,3.27l-2.68.36a2.14,2.14,0,0,0-.24-1.17,0.74,0.74,0,0,0-.77-0.28,2.57,2.57,0,0,0-1.48.66,5.65,5.65,0,0,0-1,1.19v4.9l5-.67v2.53c-4.31.58-6.47,0.87-10.79,1.43V403.6Z"/><path class="cls-4" d="M623.41,387.91l2.61-.36-0.82,7.38-1.79.25v-7.27Zm4.95-.69,2.61-.37-0.82,7.38-1.79.25v-7.27Z"/></svg>