<svg id="Layer_1" data-name="Layer 1" xmlns="http://www.w3.org/2000/svg" viewBox="0 0 720 576"><defs><style>.cls-1,.cls-2,.cls-4,.cls-6{fill:#231f20;}.cls-1,.cls-3{stroke:#231f20;}.cls-1,.cls-6{stroke-miterlimit:10;}.cls-2{stroke:#000;}.cls-2,.cls-3{stroke-linecap:round;stroke-linejoin:round;stroke-width:2px;}.cls-3,.cls-5{fill:#fff;}.cls-6{stroke:#fff;}</style></defs><title>Hanoi_Tower_Set_3</title><path class="cls-1" d="M654.31,529.72c0-.14,0-0.29,0-0.43s0-.29,0-0.43V477.06H62.48s-0.23,51.74-.23,52.22c0,2.67,2.12,5.24,6.08,7.71,13.87,8.61,50.58,16.11,101.74,21.48s116.73,8.59,188.22,8.59c81.71,0,155.68-4.21,209.24-11,26.78-3.41,48.45-7.46,63.44-12,7.5-2.25,13.32-4.62,17.29-7.08,3.38-2.1,5.41-4.29,5.94-6.55h0.1v-0.73Z"/><ellipse class="cls-2" cx="358.3" cy="478.15" rx="295.87" ry="37.63"/><path class="cls-3" d="M654.31,478.24c0-.14,0-0.29,0-0.43s0-.29,0-0.43V425.59H62.48s-0.23,51.74-.23,52.22c0,2.67,2.12,5.24,6.08,7.71,13.87,8.61,50.58,16.11,101.74,21.48s116.73,8.59,188.22,8.59c81.71,0,155.68-4.21,209.24-11,26.78-3.41,48.45-7.46,63.44-12,7.5-2.25,13.32-4.62,17.29-7.08,3.38-2.1,5.41-4.29,5.94-6.55h0.1v-0.73Z"/><ellipse class="cls-3" cx="358.3" cy="426.67" rx="295.87" ry="37.63"/><path class="cls-4" d="M358.29,435.45c-16,0-29-3.75-30.2-8.61H328l0-.5V31.5h60.63V426.83H388.5C387.27,431.7,374.27,435.45,358.29,435.45Z"/><path class="cls-5" d="M388.12,32V426.33h0c-0.49,4.78-13.63,8.61-29.79,8.61s-29.3-3.83-29.79-8.61h0v-0.21s0,0,0-.06,0,0,0-.06V32h59.63m1-1H327.49V426s0,0.07,0,.11v1.27h0.23c2,5.6,16.84,8.61,30.58,8.61s28.6-3,30.58-8.61h0.21l0-1V31h0Z"/><ellipse class="cls-6" cx="358.29" cy="32.11" rx="29.81" ry="8.89"/><path d="M71.93,469.45v-2.2l2.34,0.37c0-2.24,0-3.36,0-5.6l-2.37-.37v-2.2l2.37,0.37v-0.56a3.37,3.37,0,0,1,.33-1.57,2.6,2.6,0,0,1,.86-1,3,3,0,0,1,1.24-.46,5,5,0,0,1,1.46,0,10,10,0,0,1,2.26.58,6.86,6.86,0,0,1,1.46.79l-0.76,1.86a10.79,10.79,0,0,0-1-.55,4.72,4.72,0,0,0-1.36-.39,1.72,1.72,0,0,0-1.5.26,1.92,1.92,0,0,0-.43,1.4L81,460.87v2.2l-4.18-.64c0,2.24,0,3.36,0,5.6l4.2,0.65v2.2Z"/><path d="M84.24,462a9.8,9.8,0,0,1,1.84-.34,10.26,10.26,0,0,1,2.48.11,6,6,0,0,1,1.76.51,3.6,3.6,0,0,1,1.17.88,3.27,3.27,0,0,1,.65,1.2,5.15,5.15,0,0,1,.2,1.47q0,1-.07,1.73c0,0.47-.07.9-0.07,1.27a8.8,8.8,0,0,0,0,.95c0,0.19,0,.37.06,0.55l1.29,0.19v2.2l-3.34-.49L90,470.86h-0.1a2.76,2.76,0,0,1-1.13.9,3.5,3.5,0,0,1-2,.15,3.89,3.89,0,0,1-2.35-1.15,3.18,3.18,0,0,1-.87-2.25,2.92,2.92,0,0,1,.31-1.4,2.07,2.07,0,0,1,.89-0.87,3.69,3.69,0,0,1,1.4-.37,8,8,0,0,1,1.83.08q0.36,0.05.75,0.15l1,0.22a2,2,0,0,0,0-.39v-0.38a1.48,1.48,0,0,0-.43-1.16,2.41,2.41,0,0,0-1.28-.52,5.78,5.78,0,0,0-1.82,0,10.25,10.25,0,0,0-1.36.31Zm3.39,7.85a2.19,2.19,0,0,0,1.42-.14,1.89,1.89,0,0,0,.69-0.65v-1.2l-0.59-.18a7.19,7.19,0,0,0-.85-0.18,4,4,0,0,0-.75,0,2.21,2.21,0,0,0-.67.12,1.07,1.07,0,0,0-.47.32,0.84,0.84,0,0,0-.18.55,1.31,1.31,0,0,0,.32.92A1.75,1.75,0,0,0,87.62,469.89Z"/><path d="M105.26,473.46a4.9,4.9,0,0,1-1.91.66,8.09,8.09,0,0,1-2.29,0,7.11,7.11,0,0,1-2.3-.71,5.73,5.73,0,0,1-1.69-1.31,5.49,5.49,0,0,1-1-1.82,6.69,6.69,0,0,1-.36-2.21,5.23,5.23,0,0,1,.42-2.18,3.85,3.85,0,0,1,1.16-1.49A4.22,4.22,0,0,1,99,463.6a6.51,6.51,0,0,1,2.21,0,8.78,8.78,0,0,1,2.09.56,11.13,11.13,0,0,1,1.49.71v3.52l-2.19-.31V466.2a6,6,0,0,0-1.23-.32,3.59,3.59,0,0,0-1.1,0,2.24,2.24,0,0,0-1.67,1.23,2.83,2.83,0,0,0-.27,1.3,3.35,3.35,0,0,0,.22,1.21,3.36,3.36,0,0,0,1.6,1.8,3.91,3.91,0,0,0,1.3.42,4.45,4.45,0,0,0,1.86-.06,6.33,6.33,0,0,0,1.09-.41Z"/><path d="M108.64,467.09l-2-.27v-2.2l2,0.27V462.6l2.59-.38v3l5.22,0.7v2.2l-5.22-.7v2.86a3.82,3.82,0,0,0,.58,2.31,2.32,2.32,0,0,0,1.61.91,3.32,3.32,0,0,0,1,0,3.2,3.2,0,0,0,.79-0.22,3.7,3.7,0,0,0,.64-0.35l0.53-.37,1.2,2a3.15,3.15,0,0,1-.85.62,6.24,6.24,0,0,1-2.32.66,5.71,5.71,0,0,1-1.26,0,4.94,4.94,0,0,1-3.36-1.71,6.48,6.48,0,0,1-1.13-4.13v-2.86Z"/><path d="M119,471.28a5.78,5.78,0,0,1,.38-2.19,3.84,3.84,0,0,1,1.08-1.52,3.89,3.89,0,0,1,1.66-.81,6.1,6.1,0,0,1,2.16-.07,6.79,6.79,0,0,1,2.24.67,5.54,5.54,0,0,1,1.67,1.28,5.31,5.31,0,0,1,1,1.8,6.82,6.82,0,0,1,.35,2.2,5.81,5.81,0,0,1-.38,2.19,3.77,3.77,0,0,1-2.74,2.34,6.07,6.07,0,0,1-2.16.07,6.75,6.75,0,0,1-2.24-.67,5.55,5.55,0,0,1-1.66-1.29,5.32,5.32,0,0,1-1-1.8A6.81,6.81,0,0,1,119,471.28Zm2.67,0.35a4.2,4.2,0,0,0,.18,1.24,3.49,3.49,0,0,0,.52,1,2.83,2.83,0,0,0,.82.76,2.75,2.75,0,0,0,1.1.37,2.27,2.27,0,0,0,1.88-.5,2.9,2.9,0,0,0,.73-2.25,3.85,3.85,0,0,0-.68-2.32,2.7,2.7,0,0,0-1.93-1.1,3,3,0,0,0-1,0,1.72,1.72,0,0,0-.83.44,2.28,2.28,0,0,0-.55.89A4.09,4.09,0,0,0,121.66,471.63Z"/><path d="M131,475.63l2.47,0.31c0-2.24,0-3.36,0-5.6L131,470c0-.88,0-1.32,0-2.2l4.49,0.56,0.3,1.36h0.08a4.42,4.42,0,0,1,1.28-.94,2.94,2.94,0,0,1,1.68-.24,2.6,2.6,0,0,1,1.89,1.11,5.25,5.25,0,0,1,.69,3l-2.34-.28a2.16,2.16,0,0,0-.21-1.08,0.84,0.84,0,0,0-.67-0.41,1.81,1.81,0,0,0-1.29.24,3.37,3.37,0,0,0-.83.82v4.26l4.33,0.52c0,0.88,0,1.32,0,2.2l-9.4-1.15C131,476.95,131,476.51,131,475.63Z"/><path d="M143.4,477.13l3.51,0.41c0-2.24,0-3.36,0-5.6l-3.51-.41c0-.88,0-1.32,0-2.2l6.11,0.71c0,3.12,0,4.68,0,7.8l3.69,0.42c0,0.88,0,1.32,0,2.2-3.92-.44-5.88-0.67-9.8-1.13C143.4,478.45,143.4,478,143.4,477.13Zm3-10.16a1.26,1.26,0,0,1,.46-1,1.62,1.62,0,0,1,1.28-.29,2.19,2.19,0,0,1,1.34.59,1.54,1.54,0,0,1,.5,1.12,1.15,1.15,0,0,1-.5,1,1.88,1.88,0,0,1-1.34.26,2.07,2.07,0,0,1-1.28-.56A1.51,1.51,0,0,1,146.43,467Z"/><path d="M156,471.46a10.11,10.11,0,0,1,1.85-.42,10.32,10.32,0,0,1,2.49,0,5.86,5.86,0,0,1,1.77.44,3.42,3.42,0,0,1,1.18.84,3.1,3.1,0,0,1,.65,1.17,5.05,5.05,0,0,1,.2,1.46q0,1-.07,1.73c0,0.47-.07.9-0.07,1.27a8.72,8.72,0,0,0,0,.94c0,0.19,0,.37.06,0.55l1.3,0.14c0,0.88,0,1.32,0,2.2l-3.35-.36L161.77,480h-0.1a2.93,2.93,0,0,1-1.13.95,3.57,3.57,0,0,1-2,.23,3.74,3.74,0,0,1-2.36-1.06,3.05,3.05,0,0,1-.87-2.22,3,3,0,0,1,.31-1.42,2.19,2.19,0,0,1,.89-0.9,3.83,3.83,0,0,1,1.41-.42,8.07,8.07,0,0,1,1.84,0q0.36,0,.75.12l1,0.19a2,2,0,0,0,0-.4v-0.38a1.43,1.43,0,0,0-.44-1.14,2.33,2.33,0,0,0-1.29-.47,5.84,5.84,0,0,0-1.82.06,10.62,10.62,0,0,0-1.37.37Zm3.4,7.71a2.24,2.24,0,0,0,1.42-.19,2,2,0,0,0,.69-0.68v-1.2l-0.59-.15a7.09,7.09,0,0,0-.85-0.14,4,4,0,0,0-.75,0,2.28,2.28,0,0,0-.67.15,1.13,1.13,0,0,0-.47.34,0.86,0.86,0,0,0-.18.56,1.26,1.26,0,0,0,.33.91A1.69,1.69,0,0,0,159.4,479.17Z"/><path d="M167.92,468.06l4.26,0.44c0,3.7,0,5.54,0,9.24a4.54,4.54,0,0,0,.38,2.18,1.5,1.5,0,0,0,1.22.72,3.26,3.26,0,0,0,1,0,3.5,3.5,0,0,0,.8-0.29l1,1.9-0.68.34a3.94,3.94,0,0,1-.72.25,4.61,4.61,0,0,1-.83.12,6.51,6.51,0,0,1-1,0,4.17,4.17,0,0,1-2.82-1.25,4.09,4.09,0,0,1-.94-2.82v-8.4l-1.66-.17v-2.2Z"/><path d="M187.27,488.22a10.15,10.15,0,0,1-2.72-1.14,9.14,9.14,0,0,1-2.34-2,9.58,9.58,0,0,1-1.63-2.88,10.91,10.91,0,0,1-.61-3.78,9.94,9.94,0,0,1,.61-3.65,7.64,7.64,0,0,1,1.63-2.59,7.08,7.08,0,0,1,2.34-1.59,9.16,9.16,0,0,1,2.72-.68l0.48,2.18a7.72,7.72,0,0,0-1.59.42,5.1,5.1,0,0,0-1.69,1.06,5.89,5.89,0,0,0-1.35,2,8.07,8.07,0,0,0,1.44,8.51,7.15,7.15,0,0,0,1.71,1.38,7.51,7.51,0,0,0,1.48.67Z"/><path d="M195.13,482.78a4,4,0,0,0,1.21-.06,2.58,2.58,0,0,0,.94-0.39,2,2,0,0,0,.61-0.66,1.73,1.73,0,0,0,.22-0.87,2,2,0,0,0-.25-1,2,2,0,0,0-.69-0.71,3.61,3.61,0,0,0-1.06-.43,8.76,8.76,0,0,0-1.34-.22l-1.12-.1v-1.44l3.36-3.8-5.06-.45c0-.88,0-1.32,0-2.2l8.16,0.73V473l-3.52,3.71,0.46,0a4.18,4.18,0,0,1,1.36.36,3.83,3.83,0,0,1,1.17.82,4,4,0,0,1,.82,1.27,4.36,4.36,0,0,1,.31,1.69,3.87,3.87,0,0,1-.47,2,4,4,0,0,1-1.24,1.34,4.81,4.81,0,0,1-1.77.72,7.15,7.15,0,0,1-2.06.11,10.59,10.59,0,0,1-1.8-.32,9.4,9.4,0,0,1-1.74-.66l0.7-2.1a3,3,0,0,0,.49.24l0.7,0.26a8,8,0,0,0,.8.23A5.76,5.76,0,0,0,195.13,482.78Z"/><path d="M204.57,487.58a6.36,6.36,0,0,0,1.48-.41,5.58,5.58,0,0,0,1.71-1.08,6.12,6.12,0,0,0,1.41-2,7.06,7.06,0,0,0,.58-3.05,8.47,8.47,0,0,0-.55-3.24,7.49,7.49,0,0,0-1.35-2.2,6.55,6.55,0,0,0-1.69-1.36,9.16,9.16,0,0,0-1.59-.7l0.48-2.1a10.79,10.79,0,0,1,2.72,1.17,9.14,9.14,0,0,1,2.34,2,9.64,9.64,0,0,1,1.63,2.88,10.83,10.83,0,0,1,.61,3.76,10,10,0,0,1-.61,3.67,7.59,7.59,0,0,1-1.63,2.59,7.1,7.1,0,0,1-2.34,1.59,8.71,8.71,0,0,1-2.72.65Z"/><path d="M396,491.6v-2.2l2.37-.05c0-2.24,0-3.36,0-5.6l-2.39.05c0-.88,0-1.32,0-2.2l2.39-.05V481a3.7,3.7,0,0,1,.33-1.63,3.35,3.35,0,0,1,.87-1.14,3.68,3.68,0,0,1,1.25-.68,5.26,5.26,0,0,1,1.47-.24,9.32,9.32,0,0,1,2.28.17,5.7,5.7,0,0,1,1.47.53l-0.76,2a9,9,0,0,0-1-.38,4.34,4.34,0,0,0-1.37-.15,2,2,0,0,0-1.52.53,2.21,2.21,0,0,0-.43,1.48l4.21-.1c0,0.88,0,1.32,0,2.2l-4.21.1c0,2.24,0,3.36,0,5.6l4.23-.1c0,0.88,0,1.32,0,2.2Z"/><path d="M408.46,482a11.43,11.43,0,0,1,1.86-.67,10.7,10.7,0,0,1,2.5-.33,5.49,5.49,0,0,1,1.78.2,2.85,2.85,0,0,1,1.18.67,2.6,2.6,0,0,1,.65,1.08,4.76,4.76,0,0,1,.2,1.43q0,1-.07,1.74c0,0.48-.07.91-0.07,1.28a8.65,8.65,0,0,0,0,.94c0,0.18,0,.37.06,0.54l1.3,0c0,0.88,0,1.32,0,2.2l-3.37.11-0.26-1.35h-0.1a3.6,3.6,0,0,1-1.14,1.1,3.88,3.88,0,0,1-2,.51,3.3,3.3,0,0,1-2.37-.73,2.66,2.66,0,0,1-.88-2.1,3.23,3.23,0,0,1,.31-1.46,2.7,2.7,0,0,1,.9-1,4.41,4.41,0,0,1,1.42-.62,8.34,8.34,0,0,1,1.84-.24q0.36,0,.76,0l1,0.05a2.14,2.14,0,0,0,0-.4V484.5a1.24,1.24,0,0,0-.44-1.08,2.09,2.09,0,0,0-1.29-.29,6.14,6.14,0,0,0-1.83.31,12.11,12.11,0,0,0-1.37.56Zm3.41,7.24a2.24,2.24,0,0,0,2.12-1.16v-1.2l-0.6-.07a6.85,6.85,0,0,0-.85,0,4.14,4.14,0,0,0-.75.09,2.57,2.57,0,0,0-.67.24,1.38,1.38,0,0,0-.48.4,1,1,0,0,0-.18.59,1.11,1.11,0,0,0,.33.86A1.51,1.51,0,0,0,411.88,489.22Z"/><path d="M429.64,489.64a6,6,0,0,1-1.92,1,8.57,8.57,0,0,1-2.31.4,6.44,6.44,0,0,1-2.32-.3,4.51,4.51,0,0,1-1.7-1,4.34,4.34,0,0,1-1.05-1.63,6.12,6.12,0,0,1-.36-2.15,5.73,5.73,0,0,1,.42-2.25,5,5,0,0,1,1.17-1.7,5.3,5.3,0,0,1,1.77-1.09,7,7,0,0,1,2.23-.43,8.12,8.12,0,0,1,2.11.18,9.41,9.41,0,0,1,1.5.44c0,1.41,0,2.11,0,3.52l-2.21.08c0-.74,0-1.1,0-1.84a5.57,5.57,0,0,0-1.24-.09,3.83,3.83,0,0,0-1.11.21,2.85,2.85,0,0,0-1,.58,3,3,0,0,0-.7,1,3.11,3.11,0,0,0-.27,1.35,3,3,0,0,0,.22,1.17,2.68,2.68,0,0,0,.62.92,2.71,2.71,0,0,0,1,.59,3.53,3.53,0,0,0,1.31.18,4.8,4.8,0,0,0,1.87-.39,7.73,7.73,0,0,0,1.09-.6Z"/><path d="M433,482.66l-2,.08v-2.2l2-.08v-2.28l2.61-.85c0,1.21,0,1.81,0,3l5.25-.23c0,0.88,0,1.32,0,2.2l-5.25.23c0,1.14,0,1.72,0,2.86a3.34,3.34,0,0,0,.58,2.21,1.92,1.92,0,0,0,1.62.62,3.54,3.54,0,0,0,1-.17,3.86,3.86,0,0,0,.79-0.37,4.75,4.75,0,0,0,.64-0.47l0.53-.46,1.2,1.75a4.11,4.11,0,0,1-.85.77,7.63,7.63,0,0,1-1.1.63,7.15,7.15,0,0,1-1.23.44,6,6,0,0,1-1.26.2,4.16,4.16,0,0,1-3.38-1.11,5.61,5.61,0,0,1-1.13-3.92v-2.86Z"/><path d="M443.45,485a6.28,6.28,0,0,1,.38-2.26,4.82,4.82,0,0,1,2.76-2.82,6.58,6.58,0,0,1,2.17-.46,6.17,6.17,0,0,1,2.25.27,4.36,4.36,0,0,1,1.67,1,4.2,4.2,0,0,1,1,1.62,6.22,6.22,0,0,1,.35,2.14,6.32,6.32,0,0,1-.38,2.26,4.84,4.84,0,0,1-2.76,2.83,6.54,6.54,0,0,1-2.17.46,6.13,6.13,0,0,1-2.25-.27,4.37,4.37,0,0,1-1.67-1,4.23,4.23,0,0,1-1-1.62A6.23,6.23,0,0,1,443.45,485Zm2.69-.13a3.9,3.9,0,0,0,.18,1.21,2.82,2.82,0,0,0,.52,1,2.2,2.2,0,0,0,.82.61,2.46,2.46,0,0,0,1.1.18,2.68,2.68,0,0,0,1.89-.83,3.36,3.36,0,0,0,.73-2.38,3.32,3.32,0,0,0-.68-2.2,2.24,2.24,0,0,0-1.94-.75,3.2,3.2,0,0,0-1,.22,2.19,2.19,0,0,0-.83.59,2.86,2.86,0,0,0-.55,1A4.39,4.39,0,0,0,446.14,484.88Z"/><path d="M455.56,487.2l2.48-.13c0-2.24,0-3.36,0-5.6l-2.48.13c0-.88,0-1.32,0-2.2l4.51-.25,0.3,1.3h0.08a5.75,5.75,0,0,1,1.28-1.17,3.32,3.32,0,0,1,1.68-.54,2.15,2.15,0,0,1,1.89.77,4.64,4.64,0,0,1,.69,2.9l-2.34.14a2,2,0,0,0-.21-1,0.7,0.7,0,0,0-.67-0.29,2.08,2.08,0,0,0-1.29.47,4.36,4.36,0,0,0-.83,1v4.26l4.35-.25c0,0.88,0,1.32,0,2.2l-9.44.53C455.56,488.52,455.56,488.08,455.56,487.2Z"/><path d="M468,486.5l3.53-.22c0-2.24,0-3.36,0-5.6l-3.53.21c0-.88,0-1.32,0-2.2l6.13-.38c0,3.12,0,4.68,0,7.8l3.71-.24c0,0.88,0,1.32,0,2.2-3.93.26-5.9,0.38-9.84,0.62C468,487.82,468,487.38,468,486.5Zm3-10.7a1.51,1.51,0,0,1,.46-1.09,1.89,1.89,0,0,1,1.28-.52,1.87,1.87,0,0,1,1.34.35,1.28,1.28,0,0,1,.5,1,1.39,1.39,0,0,1-.5,1.08,2.17,2.17,0,0,1-1.34.49,1.77,1.77,0,0,1-1.28-.33A1.26,1.26,0,0,1,471,475.8Z"/><path d="M480.62,478.58a11.86,11.86,0,0,1,1.85-.75,10.87,10.87,0,0,1,2.49-.43,5.41,5.41,0,0,1,1.77.13,2.71,2.71,0,0,1,1.18.63,2.47,2.47,0,0,1,.65,1.05,4.69,4.69,0,0,1,.2,1.43q0,1-.07,1.75c0,0.48-.07.91-0.07,1.29a8.6,8.6,0,0,0,0,.94c0,0.18,0,.36.06,0.54L490,485c0,0.88,0,1.32,0,2.2l-3.36.24-0.26-1.34h-0.1a3.81,3.81,0,0,1-1.13,1.15,4,4,0,0,1-2,.59,3.19,3.19,0,0,1-2.37-.64,2.56,2.56,0,0,1-.88-2.06,3.31,3.31,0,0,1,.31-1.47,2.85,2.85,0,0,1,.9-1.06,4.61,4.61,0,0,1,1.41-.68,8.47,8.47,0,0,1,1.84-.32q0.36,0,.76,0h1a2.17,2.17,0,0,0,0-.4v-0.38a1.19,1.19,0,0,0-.44-1.06,2,2,0,0,0-1.29-.24,6.26,6.26,0,0,0-1.83.39,12.62,12.62,0,0,0-1.37.61Zm3.41,7.11a2.53,2.53,0,0,0,1.43-.45,2.62,2.62,0,0,0,.69-0.8c0-.48,0-0.72,0-1.2l-0.59,0a6.83,6.83,0,0,0-.85,0,4.2,4.2,0,0,0-.75.12,2.66,2.66,0,0,0-.67.27,1.46,1.46,0,0,0-.48.42,1,1,0,0,0-.18.59,1.07,1.07,0,0,0,.33.85A1.46,1.46,0,0,0,484,485.69Z"/><path d="M492.58,473.06l4.26-.32c0,3.7,0,5.54,0,9.24a4.11,4.11,0,0,0,.38,2.11,1.23,1.23,0,0,0,1.22.51,3.48,3.48,0,0,0,1-.21,4.28,4.28,0,0,0,.8-0.43l1,1.72-0.68.46a4.79,4.79,0,0,1-.72.38,5.19,5.19,0,0,1-.83.26,6.73,6.73,0,0,1-1,.15,3.56,3.56,0,0,1-2.82-.75,3.48,3.48,0,0,1-.94-2.65c0-3.36,0-5,0-8.4l-1.66.12C492.58,474.38,492.58,473.94,492.58,473.06Z"/><path d="M504.41,488.49l8.89-.73c0,0.86,0,1.28,0,2.14l-8.89.73C504.41,489.77,504.41,489.35,504.41,488.49Z"/><path d="M514.85,471.28l4-.35c0,2,0,3.07,0,5.12H519a3.84,3.84,0,0,1,1.28-1.13,4.63,4.63,0,0,1,1.88-.55,4.58,4.58,0,0,1,1.4.07,2.38,2.38,0,0,1,1.1.56,2.77,2.77,0,0,1,.72,1.18,6.09,6.09,0,0,1,.26,1.93c0,2.49,0,3.73,0,6.22l-2.6.24c0-2.27,0-3.41,0-5.68a2.3,2.3,0,0,0-.52-1.71,1.67,1.67,0,0,0-1.36-.42,2.47,2.47,0,0,0-1.36.57,2.77,2.77,0,0,0-.88,1.23c0,2.55,0,3.83,0,6.38l-2.6.23c0-4.72,0-7.08,0-11.8l-1.44.12C514.85,472.6,514.85,472.16,514.85,471.28Z"/><path d="M537.53,482.13a4.09,4.09,0,0,1-.67.54,7.32,7.32,0,0,1-1,.52,8.12,8.12,0,0,1-2.61.69,6.55,6.55,0,0,1-2.29-.14,3.93,3.93,0,0,1-2.78-2.45,5.88,5.88,0,0,1-.37-2.18,6.17,6.17,0,0,1,.42-2.35,5.25,5.25,0,0,1,1.15-1.76,5.44,5.44,0,0,1,1.71-1.15,7,7,0,0,1,2.12-.53,6.44,6.44,0,0,1,1.57,0,3.87,3.87,0,0,1,1.49.55,3.2,3.2,0,0,1,1.11,1.2,4.21,4.21,0,0,1,.43,2,9.8,9.8,0,0,1-.2,1.88l-7.2.69a2.16,2.16,0,0,0,.27,1.05,1.85,1.85,0,0,0,.66.66,2.59,2.59,0,0,0,.94.32,4.62,4.62,0,0,0,1.13,0,6.16,6.16,0,0,0,2-.47,4.73,4.73,0,0,0,1.25-.8Zm-4.32-6.72a3.49,3.49,0,0,0-1,.24,3.11,3.11,0,0,0-.83.5,2.61,2.61,0,0,0-.61.74,2.28,2.28,0,0,0-.28.94l4.92-.47A1.78,1.78,0,0,0,533.21,475.41Z"/><path d="M540.59,468.89l4.26-.43c0,3.7,0,5.54,0,9.24a4.06,4.06,0,0,0,.38,2.1,1.2,1.2,0,0,0,1.22.48,3.53,3.53,0,0,0,1-.24,4.41,4.41,0,0,0,.8-0.45l1,1.7-0.68.48a4.94,4.94,0,0,1-.72.39,5.3,5.3,0,0,1-.83.29,6.79,6.79,0,0,1-1,.17,3.48,3.48,0,0,1-2.82-.67,3.4,3.4,0,0,1-.94-2.63c0-3.36,0-5,0-8.4l-1.66.17C540.59,470.21,540.59,469.77,540.59,468.89Z"/><path d="M550.84,471.84l3.4-.36,0.3,1.17h0.08a4.31,4.31,0,0,1,3.35-1.85,4.58,4.58,0,0,1,1.69.1,2.85,2.85,0,0,1,1.32.76,3.72,3.72,0,0,1,.85,1.47,7.16,7.16,0,0,1,.3,2.23,7.72,7.72,0,0,1-.34,2.35,5.65,5.65,0,0,1-1,1.86,4.92,4.92,0,0,1-1.56,1.27,5.85,5.85,0,0,1-2.1.61,8.1,8.1,0,0,1-1.22,0,3.13,3.13,0,0,1-1-.18c0,1.64,0,2.46,0,4.1l-2.6.28c0-4.72,0-7.08,0-11.8l-1.5.16v-2.2Zm6.35,1.24a2.9,2.9,0,0,0-1.39.53,2.29,2.29,0,0,0-.87,1.23c0,1.66,0,2.5,0,4.16a1.91,1.91,0,0,0,.81.26,4.34,4.34,0,0,0,1.07,0,3,3,0,0,0,1-.3,2.5,2.5,0,0,0,.84-0.7,3.41,3.41,0,0,0,.56-1.12,5.45,5.45,0,0,0,.2-1.56,2.71,2.71,0,0,0-.64-2A1.87,1.87,0,0,0,557.19,473.07Z"/><path d="M573.48,478.24a4.21,4.21,0,0,1-.67.55,7.49,7.49,0,0,1-1,.54,8.22,8.22,0,0,1-2.6.74A6.51,6.51,0,0,1,567,480a3.82,3.82,0,0,1-2.78-2.39,5.83,5.83,0,0,1-.37-2.17,6.24,6.24,0,0,1,.42-2.36,5.4,5.4,0,0,1,1.15-1.78,5.58,5.58,0,0,1,1.71-1.19,7.09,7.09,0,0,1,2.12-.57,6.41,6.41,0,0,1,1.57,0,3.79,3.79,0,0,1,1.49.52,3.11,3.11,0,0,1,1.11,1.18,4.16,4.16,0,0,1,.43,2,9.87,9.87,0,0,1-.2,1.88l-7.19.84a2.13,2.13,0,0,0,.27,1,1.8,1.8,0,0,0,.66.64,2.54,2.54,0,0,0,.94.3,4.6,4.6,0,0,0,1.13,0,6.23,6.23,0,0,0,2-.51,4.85,4.85,0,0,0,1.25-.83Zm-4.31-6.64a3.52,3.52,0,0,0-1,.26,3.18,3.18,0,0,0-.83.51,2.69,2.69,0,0,0-.61.75,2.32,2.32,0,0,0-.28.95l4.91-.57a2,2,0,0,0-.55-1.51A2,2,0,0,0,569.17,471.6Z"/><path d="M575.58,476.85l2.47-.3V471l-2.47.3V469l4.49-.54,0.3,1.28h0.08a6.33,6.33,0,0,1,1.28-1.26,3.5,3.5,0,0,1,1.68-.65,2,2,0,0,1,1.88.65,4.44,4.44,0,0,1,.69,2.85l-2.33.29a1.88,1.88,0,0,0-.21-1,0.65,0.65,0,0,0-.67-0.25,2.21,2.21,0,0,0-1.29.56,4.8,4.8,0,0,0-.83,1v4.26l4.33-.53v2.2l-9.4,1.15v-2.2Z"/><path d="M595.84,480.75a8.4,8.4,0,0,1-2.71-.53,6.64,6.64,0,0,1-2.33-1.48,7.15,7.15,0,0,1-1.62-2.51,9.81,9.81,0,0,1-.61-3.64,11.11,11.11,0,0,1,.61-3.79,10.26,10.26,0,0,1,1.63-3,9.76,9.76,0,0,1,2.33-2.12,11.3,11.3,0,0,1,2.71-1.29l0.48,2.08a9.57,9.57,0,0,0-1.58.78,7,7,0,0,0-1.68,1.44,8,8,0,0,0-1.35,2.26,8.7,8.7,0,0,0-.55,3.27,6.91,6.91,0,0,0,.58,3,5.74,5.74,0,0,0,1.4,1.89,5.23,5.23,0,0,0,1.7,1,6.11,6.11,0,0,0,1.48.34Z"/><path d="M600.85,473.65l3-.41c0-3.5,0-5.24,0-8.74l-2.63,2.37-1.2-1.44,4.54-4.09,1.75-.24c0,4.72,0,7.08,0,11.8l3-.41c0,0.88,0,1.32,0,2.2l-8.51,1.16v-2.2Z"/><path d="M615,472.62a1.58,1.58,0,0,1,.45-1.14,1.89,1.89,0,0,1,1.13-.56,1.72,1.72,0,0,1,1.65.48,2.5,2.5,0,0,1,.56,1.7,4.14,4.14,0,0,1-.35,1.69,5.29,5.29,0,0,1-.91,1.41,6.05,6.05,0,0,1-1.24,1.06,5.87,5.87,0,0,1-1.36.65l-0.54-1a6.66,6.66,0,0,0,1-.48,4.7,4.7,0,0,0,.89-0.68,3.78,3.78,0,0,0,.67-0.86,2.4,2.4,0,0,0,.31-1,2.61,2.61,0,0,1-1,.17,1.32,1.32,0,0,1-.69-0.22,1.08,1.08,0,0,1-.39-0.51A1.94,1.94,0,0,1,615,472.62Z"/><path d="M627.57,470.16a4.44,4.44,0,0,0,1.2-.35,3.45,3.45,0,0,0,.94-0.62,2.86,2.86,0,0,0,.61-0.81,2,2,0,0,0,.22-0.92,1.71,1.71,0,0,0-.25-1,1.45,1.45,0,0,0-.69-0.54,3,3,0,0,0-1.05-.18,8.42,8.42,0,0,0-1.33.1l-1.11.17c0-.57,0-0.86,0-1.44l3.34-4.6-5,.75c0-.88,0-1.32,0-2.2l8.12-1.21c0,0.73,0,1.09,0,1.82L629,463.7l0.46-.07a3.75,3.75,0,0,1,1.35,0,2.79,2.79,0,0,1,1.16.54,2.88,2.88,0,0,1,.82,1.08,3.86,3.86,0,0,1,.31,1.61,4.56,4.56,0,0,1-.47,2.07,5.68,5.68,0,0,1-1.23,1.64,6.38,6.38,0,0,1-1.76,1.14,7.94,7.94,0,0,1-2,.6,10.06,10.06,0,0,1-1.79.11,7.86,7.86,0,0,1-1.73-.25l0.7-2.26a2.37,2.37,0,0,0,.49.13l0.7,0.1a7.1,7.1,0,0,0,.8,0A5.58,5.58,0,0,0,627.57,470.16Z"/><path d="M637,472.72a8,8,0,0,0,1.47-.76,7.77,7.77,0,0,0,1.7-1.48,8.47,8.47,0,0,0,1.4-2.29,8.09,8.09,0,0,0,.58-3.19,7.55,7.55,0,0,0-.55-3.11,5.42,5.42,0,0,0-1.34-1.88,4.69,4.69,0,0,0-1.68-1,7.39,7.39,0,0,0-1.58-.33l0.48-2.21a8.74,8.74,0,0,1,2.7.52,6.48,6.48,0,0,1,2.33,1.46,7.07,7.07,0,0,1,1.62,2.49,9.72,9.72,0,0,1,.61,3.61,11.29,11.29,0,0,1-.61,3.82,10.36,10.36,0,0,1-1.62,3,9.93,9.93,0,0,1-2.33,2.14,10.76,10.76,0,0,1-2.7,1.3Z"/></svg>