<svg id="Layer_1" data-name="Layer 1" xmlns="http://www.w3.org/2000/svg" viewBox="0 0 720 576"><defs><style>.cls-1,.cls-2,.cls-4,.cls-6{fill:#231f20;}.cls-1,.cls-3{stroke:#231f20;}.cls-1,.cls-6{stroke-miterlimit:10;}.cls-1,.cls-2,.cls-3{stroke-width:2px;}.cls-2{stroke:#000;}.cls-2,.cls-3{stroke-linecap:round;stroke-linejoin:round;}.cls-3,.cls-5{fill:#fff;}.cls-6{stroke:#fff;}</style></defs><title>Hanoi_Tower_Set_5_Final</title><path class="cls-1" d="M691.64,506.49c0-.14,0-0.29,0-0.43s0-.29,0-0.43V453.84H45.84s-0.25,51.74-.25,52.22c0,2.67,2.32,5.24,6.64,7.71,15.13,8.61,55.2,16.11,111,21.48s127.37,8.59,205.39,8.59c89.16,0,169.88-4.21,228.32-11,29.22-3.41,52.87-7.46,69.23-12,8.18-2.25,14.54-4.62,18.86-7.08,3.69-2.1,5.91-4.29,6.48-6.55h0.11v-0.73Z"/><ellipse class="cls-2" cx="368.64" cy="454.92" rx="322.86" ry="37.63"/><path class="cls-3" d="M691.64,455c0-.14,0-0.29,0-0.43s0-.29,0-0.43V402.36H45.84s-0.25,51.74-.25,52.22c0,2.67,2.32,5.24,6.64,7.71,15.13,8.61,55.2,16.11,111,21.48s127.37,8.59,205.39,8.59c89.16,0,169.88-4.21,228.32-11,29.22-3.41,52.87-7.46,69.23-12,8.18-2.25,14.54-4.62,18.86-7.08,3.69-2.1,5.91-4.29,6.48-6.55h0.11V455Z"/><ellipse class="cls-3" cx="368.64" cy="403.44" rx="322.86" ry="37.63"/><path class="cls-3" d="M691.64,403.53c0-.14,0-0.29,0-0.43s0-.29,0-0.43V350.88H45.84s-0.25,51.74-.25,52.22c0,2.67,2.32,5.24,6.64,7.71,15.13,8.61,55.2,16.11,111,21.48s127.37,8.59,205.39,8.59c89.16,0,169.88-4.21,228.32-11,29.22-3.41,52.87-7.46,69.23-12,8.18-2.25,14.54-4.62,18.86-7.08,3.69-2.1,5.91-4.29,6.48-6.55h0.11v-0.73Z"/><ellipse class="cls-3" cx="368.64" cy="351.97" rx="322.86" ry="37.63"/><path class="cls-3" d="M691.64,352.06c0-.14,0-0.29,0-0.43s0-.29,0-0.43V299.4H45.84s-0.25,51.74-.25,52.22c0,2.67,2.32,5.24,6.64,7.71,15.13,8.61,55.2,16.11,111,21.48s127.37,8.59,205.39,8.59c89.16,0,169.88-4.21,228.32-11,29.22-3.41,52.87-7.46,69.23-12,8.18-2.25,14.54-4.62,18.86-7.08,3.69-2.1,5.91-4.29,6.48-6.55h0.11v-0.73Z"/><ellipse class="cls-3" cx="368.64" cy="300.49" rx="322.86" ry="37.63"/><path class="cls-4" d="M368.63,309.88c-16,0-29-3.75-30.2-8.61h-0.08l0-.5V8.27H399v293h-0.12C397.61,306.14,384.61,309.88,368.63,309.88Z"/><path class="cls-5" d="M398.46,8.77v292h0c-0.49,4.78-13.63,8.61-29.79,8.61s-29.3-3.83-29.79-8.61h0v-0.21s0,0,0-.06,0,0,0-.06V8.77h59.63m1-1H337.83V300.39s0,0.07,0,.11v1.27h0.23c2,5.6,16.84,8.61,30.58,8.61s28.6-3,30.58-8.61h0.21l0-1V7.77h0Z"/><ellipse class="cls-6" cx="368.63" cy="8.89" rx="29.81" ry="8.89"/><path class="cls-4" d="M52.31,341.16l2.59,0.41c0-2.35,0-3.53,0-5.88l-2.59-.41V333l4.7,0.74,0.31,1.43H57.4a4.42,4.42,0,0,1,1.34-.95,3,3,0,0,1,1.75-.19,2.84,2.84,0,0,1,2,1.23,5.65,5.65,0,0,1,.72,3.2l-2.44-.37a2.33,2.33,0,0,0-.22-1.14,0.92,0.92,0,0,0-.7-0.45,1.86,1.86,0,0,0-1.35.21,3.38,3.38,0,0,0-.87.83c0,1.79,0,2.68,0,4.47l4.53,0.7V345c-3.93-.6-5.9-0.91-9.83-1.53v-2.31Z"/><path class="cls-4" d="M75.18,345.85a3.06,3.06,0,0,1-.7.39,5.87,5.87,0,0,1-1,.3,7.12,7.12,0,0,1-1.26.15,8,8,0,0,1-1.46-.09,7.77,7.77,0,0,1-2.39-.74,5.81,5.81,0,0,1-2.9-3.28,7,7,0,0,1-.39-2.38,5.71,5.71,0,0,1,.44-2.36,3.92,3.92,0,0,1,1.2-1.55,4.18,4.18,0,0,1,1.79-.77,6.63,6.63,0,0,1,2.21,0,7.45,7.45,0,0,1,1.64.45,5.36,5.36,0,0,1,1.56,1,4.81,4.81,0,0,1,1.16,1.55,5.13,5.13,0,0,1,.45,2.25,9.59,9.59,0,0,1-.21,1.92l-7.52-1.12a2.69,2.69,0,0,0,.28,1.18,2.79,2.79,0,0,0,.69.86,3.55,3.55,0,0,0,1,.58,5.34,5.34,0,0,0,1.18.31,5.86,5.86,0,0,0,2.06,0,3.66,3.66,0,0,0,1.31-.52Zm-4.51-8.16a3.33,3.33,0,0,0-1,0,2.43,2.43,0,0,0-.87.31,1.92,1.92,0,0,0-.64.62,2,2,0,0,0-.29.92L73,340.3a2.64,2.64,0,0,0-.57-1.74A2.67,2.67,0,0,0,70.67,337.68Z"/><path class="cls-4" d="M88,347.79a5.14,5.14,0,0,1-2,.69,8.53,8.53,0,0,1-2.4,0,7.44,7.44,0,0,1-2.41-.74,6,6,0,0,1-1.78-1.38,5.75,5.75,0,0,1-1.1-1.91,7,7,0,0,1-.38-2.32,5.49,5.49,0,0,1,.44-2.29,4,4,0,0,1,1.22-1.57,4.43,4.43,0,0,1,1.85-.82,6.86,6.86,0,0,1,2.32,0,9.25,9.25,0,0,1,2.2.58,11.87,11.87,0,0,1,1.57.75v3.7l-2.3-.32v-1.93a6.33,6.33,0,0,0-1.3-.33,3.76,3.76,0,0,0-1.16,0A2.34,2.34,0,0,0,81,341.15a3,3,0,0,0-.28,1.37,3.52,3.52,0,0,0,.23,1.27,3.56,3.56,0,0,0,.65,1.08,3.61,3.61,0,0,0,1,.81,4.1,4.1,0,0,0,1.37.44,4.65,4.65,0,0,0,2-.06,6.7,6.7,0,0,0,1.14-.43Z"/><path class="cls-4" d="M96,339.41l3.89,0.53c0,2.92,0,4.38,0,7.31v0.88l1.59,0.21v2.31l-3.31-.44-0.48-1.62H97.61a3,3,0,0,1-1.44,1.13,4.08,4.08,0,0,1-2.13.23,5.18,5.18,0,0,1-1.45-.41,3.15,3.15,0,0,1-1.12-.85,3.81,3.81,0,0,1-.71-1.4,7.51,7.51,0,0,1-.25-2.09V341l-1.19-.17v-2.31L93.22,339c0,2.39,0,3.58,0,6a3.53,3.53,0,0,0,.41,1.9,1.72,1.72,0,0,0,1.29.74,2.09,2.09,0,0,0,2.26-1.29v-4.47L96,341.71v-2.31Z"/><path class="cls-4" d="M102.47,348.46l2.6,0.34c0-2.35,0-3.53,0-5.88l-2.6-.34v-2.31l4.71,0.62,0.31,1.43h0.08a4.59,4.59,0,0,1,1.34-1,3.07,3.07,0,0,1,1.76-.24,2.76,2.76,0,0,1,2,1.18,5.55,5.55,0,0,1,.72,3.18l-2.45-.31a2.29,2.29,0,0,0-.22-1.13,0.89,0.89,0,0,0-.7-0.44,1.89,1.89,0,0,0-1.35.25,3.52,3.52,0,0,0-.87.85c0,1.79,0,2.68,0,4.47l4.54,0.59v2.31l-9.86-1.28v-2.31Z"/><path class="cls-4" d="M123.74,357.94a10.91,10.91,0,0,1-2.85-1.27,10,10,0,0,1-2.45-2.17,10.45,10.45,0,0,1-1.71-3.07,11.64,11.64,0,0,1-.64-4,10.33,10.33,0,0,1,.64-3.82,7.74,7.74,0,0,1,1.71-2.67,7.14,7.14,0,0,1,2.45-1.61,9.4,9.4,0,0,1,2.85-.64l0.5,2.31a7.89,7.89,0,0,0-1.67.4,5.16,5.16,0,0,0-1.77,1.06,5.94,5.94,0,0,0-1.41,2,8,8,0,0,0-.58,3.29,8.32,8.32,0,0,0,.61,3.33,8.5,8.5,0,0,0,1.48,2.36,7.77,7.77,0,0,0,1.79,1.5,8.09,8.09,0,0,0,1.55.75Z"/><path class="cls-4" d="M129,351.81l3.21,0.38c0-3.67,0-5.51,0-9.18l-2.77,1.79L128.18,343l4.78-3.09,1.84,0.22c0,5,0,7.43,0,12.39l3.14,0.36v2.31l-8.95-1v-2.31Z"/><path class="cls-4" d="M141.58,353.27l3.21,0.36c0-3.67,0-5.51,0-9.18L142,346.26l-1.26-1.82,4.78-3.12,1.85,0.2c0,5,0,7.43,0,12.39l3.15,0.34v2.31l-9-1C141.58,354.66,141.58,354.19,141.58,353.27Z"/><path class="cls-4" d="M156.51,355.87a1.29,1.29,0,0,1,.47-1.08,1.58,1.58,0,0,1,1.19-.3,2.32,2.32,0,0,1,1.74.94,3.22,3.22,0,0,1,.59,1.93,3.74,3.74,0,0,1-.37,1.68,3.94,3.94,0,0,1-1,1.24,4.49,4.49,0,0,1-1.31.79,4.92,4.92,0,0,1-1.44.33l-0.57-1.21a5.62,5.62,0,0,0,1-.25,3.57,3.57,0,0,0,.93-0.48,2.77,2.77,0,0,0,.7-0.73,2,2,0,0,0,.33-1,2.69,2.69,0,0,1-1.07-.08,1.83,1.83,0,0,1-.72-0.41,1.58,1.58,0,0,1-.41-0.63A2.28,2.28,0,0,1,156.51,355.87Z"/><path class="cls-4" d="M166.75,356l3.21,0.32c0-3.67,0-5.51,0-9.18l-2.77,1.85-1.26-1.81,4.78-3.18,1.85,0.18c0,5,0,7.43,0,12.39l3.15,0.3c0,0.92,0,1.39,0,2.31l-9-.88C166.75,357.34,166.75,356.88,166.75,356Z"/><path class="cls-4" d="M177.91,352a12.13,12.13,0,0,1,.4-3.31,6.18,6.18,0,0,1,1.13-2.28,4.09,4.09,0,0,1,1.74-1.25,5,5,0,0,1,2.26-.26,5.39,5.39,0,0,1,4.09,2.23A10,10,0,0,1,189,353a12.23,12.23,0,0,1-.4,3.33,6.31,6.31,0,0,1-1.13,2.29,4.05,4.05,0,0,1-1.75,1.27,5.09,5.09,0,0,1-2.27.27,5.25,5.25,0,0,1-4.09-2.34A10.35,10.35,0,0,1,177.91,352Zm2.73,0.26c0,0.21,0,.41,0,0.6s0,0.38,0,.58l5.08-4.21a2.64,2.64,0,0,0-2.35-2,2,2,0,0,0-2.05,1.1A8.17,8.17,0,0,0,180.64,352.24Zm5.59,0.51c0-.22,0-0.44,0-0.64s0-.4,0-0.6l-5.1,4.21a2.7,2.7,0,0,0,2.35,2.13,2,2,0,0,0,2.06-1.09A8.18,8.18,0,0,0,186.23,352.75Z"/><path class="cls-4" d="M192.23,362.82a6.66,6.66,0,0,0,1.55-.42,5.82,5.82,0,0,0,1.8-1.13,6.39,6.39,0,0,0,1.48-2,7.41,7.41,0,0,0,.61-3.2,8.91,8.91,0,0,0-.58-3.41,7.9,7.9,0,0,0-1.42-2.32,6.9,6.9,0,0,0-1.77-1.43,9.59,9.59,0,0,0-1.67-.74l0.5-2.2a11.36,11.36,0,0,1,2.86,1.23,9.64,9.64,0,0,1,2.46,2.12,10.18,10.18,0,0,1,1.71,3,11.39,11.39,0,0,1,.64,3.95,10.48,10.48,0,0,1-.64,3.85,8,8,0,0,1-1.71,2.71,7.39,7.39,0,0,1-2.46,1.66,9.08,9.08,0,0,1-2.86.68Z"/><path class="cls-4" d="M317.42,367.72c0-.92,0-1.39,0-2.31l2.48,0.06v-5.88l-2.51-.06c0-.92,0-1.39,0-2.31l2.51,0.06v-0.59a3.8,3.8,0,0,1,.35-1.69,3.3,3.3,0,0,1,.92-1.15,3.65,3.65,0,0,1,1.32-.65A5.39,5.39,0,0,1,324,353a10,10,0,0,1,2.39.29,6.26,6.26,0,0,1,1.55.63l-0.8,2.06a9.93,9.93,0,0,0-1-.44,4.65,4.65,0,0,0-1.44-.22,2,2,0,0,0-1.59.48,2.24,2.24,0,0,0-.45,1.53l4.42,0.1v2.31l-4.42-.1c0,2.35,0,3.53,0,5.88l4.44,0.1v2.31Z"/><path class="cls-4" d="M330.46,358.22a11.41,11.41,0,0,1,1.95-.61,11.06,11.06,0,0,1,2.62-.23,5.87,5.87,0,0,1,1.86.29,3.18,3.18,0,0,1,1.24.76,2.88,2.88,0,0,1,.68,1.17,5.06,5.06,0,0,1,.21,1.52q0,1.07-.07,1.83t-0.07,1.34a8.91,8.91,0,0,0,0,1c0,0.19,0,.39.06,0.57l1.37,0c0,0.92,0,1.39,0,2.31l-3.54-.05-0.28-1.43h-0.1a3.55,3.55,0,0,1-1.19,1.1,4,4,0,0,1-2.09.44,3.61,3.61,0,0,1-2.49-.89,2.92,2.92,0,0,1-.92-2.24,3.3,3.3,0,0,1,.32-1.52,2.65,2.65,0,0,1,.94-1,4.41,4.41,0,0,1,1.49-.58,8.65,8.65,0,0,1,1.94-.17c0.25,0,.52,0,0.8.06l1,0.1a2.09,2.09,0,0,0,0-.42v-0.4a1.36,1.36,0,0,0-.46-1.15,2.26,2.26,0,0,0-1.36-.37,6.33,6.33,0,0,0-1.92.24,12.2,12.2,0,0,0-1.44.52ZM334,366a2.49,2.49,0,0,0,1.5-.34,2.41,2.41,0,0,0,.73-0.78v-1.26l-0.62-.1a7.31,7.31,0,0,0-.9-0.07,4.33,4.33,0,0,0-.79.06,2.61,2.61,0,0,0-.71.22,1.36,1.36,0,0,0-.5.4,1,1,0,0,0-.19.6,1.22,1.22,0,0,0,.34.92A1.64,1.64,0,0,0,334,366Z"/><path class="cls-4" d="M352.7,367.3a6,6,0,0,1-2,1,8.86,8.86,0,0,1-2.42.3,6.91,6.91,0,0,1-2.43-.43A5,5,0,0,1,344,367a4.85,4.85,0,0,1-1.11-1.77,6.55,6.55,0,0,1-.38-2.27,5.86,5.86,0,0,1,.44-2.35,4.85,4.85,0,0,1,1.23-1.73,5.23,5.23,0,0,1,1.86-1.06,7.19,7.19,0,0,1,2.34-.34,8.71,8.71,0,0,1,2.21.29,10.46,10.46,0,0,1,1.58.54c0,1.48,0,2.22,0,3.7l-2.32,0v-1.93a6,6,0,0,0-1.31-.16,3.93,3.93,0,0,0-1.17.17,2.82,2.82,0,0,0-1,.56,2.93,2.93,0,0,0-.74,1,3.19,3.19,0,0,0-.28,1.4,3.26,3.26,0,0,0,.23,1.24,3,3,0,0,0,.65,1,3,3,0,0,0,1,.67,3.8,3.8,0,0,0,1.38.26,4.91,4.91,0,0,0,2-.32,7.85,7.85,0,0,0,1.15-.58Z"/><path class="cls-4" d="M356.28,360.14H354.2c0-.92,0-1.39,0-2.31h2.08c0-1,0-1.44,0-2.39l2.74-.76c0,1.27,0,1.9,0,3.17l5.52,0v2.31l-5.52,0v3a3.63,3.63,0,0,0,.61,2.34,2.12,2.12,0,0,0,1.71.73,3.61,3.61,0,0,0,1-.13,4,4,0,0,0,.83-0.34,4.82,4.82,0,0,0,.67-0.46l0.56-.46,1.26,1.89a4.07,4.07,0,0,1-.9.77,7.55,7.55,0,0,1-1.16.61,7.3,7.3,0,0,1-1.3.41,6.24,6.24,0,0,1-1.33.14,4.56,4.56,0,0,1-3.55-1.33,6.12,6.12,0,0,1-1.19-4.18v-3Z"/><path class="cls-4" d="M367.22,363.12a6.46,6.46,0,0,1,.4-2.35,4.81,4.81,0,0,1,1.14-1.74,4.87,4.87,0,0,1,1.76-1.08,6.75,6.75,0,0,1,2.29-.37,6.59,6.59,0,0,1,2.37.39,4.88,4.88,0,0,1,1.76,1.12,4.7,4.7,0,0,1,1.08,1.75,6.66,6.66,0,0,1,.37,2.27,6.47,6.47,0,0,1-.4,2.35,4.76,4.76,0,0,1-2.9,2.84,6.72,6.72,0,0,1-2.29.37,6.56,6.56,0,0,1-2.37-.4,4.88,4.88,0,0,1-1.76-1.12,4.73,4.73,0,0,1-1.08-1.75A6.68,6.68,0,0,1,367.22,363.12Zm2.82,0a4.15,4.15,0,0,0,.19,1.28,3.14,3.14,0,0,0,.55,1,2.46,2.46,0,0,0,.86.68,2.92,2.92,0,0,0,3.15-.54,3.39,3.39,0,0,0,.77-2.46,3.62,3.62,0,0,0-.72-2.34,2.46,2.46,0,0,0-2-.89,3.29,3.29,0,0,0-1.1.18,2.15,2.15,0,0,0-.87.58,2.81,2.81,0,0,0-.58,1A4.53,4.53,0,0,0,370,363.12Z"/><path class="cls-4" d="M379.94,366l2.61,0c0-2.35,0-3.53,0-5.88l-2.61,0v-2.31l4.74,0,0.32,1.38h0.08a5.62,5.62,0,0,1,1.35-1.17,3.35,3.35,0,0,1,1.77-.48,2.37,2.37,0,0,1,2,.9,5,5,0,0,1,.73,3.08l-2.46,0a2.09,2.09,0,0,0-.22-1.1,0.77,0.77,0,0,0-.71-0.34,2.1,2.1,0,0,0-1.36.43,4.3,4.3,0,0,0-.87,1V366l4.57,0v2.31l-9.92.08C379.94,367.42,379.94,367,379.94,366Z"/><path class="cls-4" d="M393,365.91l3.71,0V360L393,360v-2.31l6.45-.09v8.19l3.9-.06v2.31c-4.14.07-6.2,0.1-10.34,0.15v-2.31Zm3.2-11.09a1.5,1.5,0,0,1,.48-1.12,1.9,1.9,0,0,1,1.35-.48,2,2,0,0,1,1.41.44,1.41,1.41,0,0,1,.53,1.1,1.38,1.38,0,0,1-.53,1.11,2.19,2.19,0,0,1-1.41.45,1.93,1.93,0,0,1-1.35-.41A1.39,1.39,0,0,1,396.2,354.83Z"/><path class="cls-4" d="M406.29,358.23a11.83,11.83,0,0,1,1.95-.69,11.19,11.19,0,0,1,2.62-.33,5.79,5.79,0,0,1,1.86.22,3,3,0,0,1,1.24.72,2.75,2.75,0,0,1,.68,1.14,5,5,0,0,1,.21,1.51q0,1.07-.07,1.83T414.72,364a8.87,8.87,0,0,0,0,1c0,0.19,0,.38.06,0.57l1.37,0v2.31l-3.53.08-0.28-1.42h-0.1a3.74,3.74,0,0,1-1.19,1.15,4,4,0,0,1-2.09.52,3.5,3.5,0,0,1-2.49-.79,2.81,2.81,0,0,1-.92-2.21,3.37,3.37,0,0,1,.32-1.53,2.8,2.8,0,0,1,.94-1.07,4.57,4.57,0,0,1,1.49-.64,8.74,8.74,0,0,1,1.94-.24c0.25,0,.52,0,0.8,0l1,0.06a2.11,2.11,0,0,0,0-.42v-0.4a1.31,1.31,0,0,0-.46-1.13,2.2,2.2,0,0,0-1.36-.32,6.42,6.42,0,0,0-1.92.31,12.68,12.68,0,0,0-1.44.57Zm3.58,7.64a2.33,2.33,0,0,0,2.23-1.2v-1.26l-0.62-.08a7.29,7.29,0,0,0-.9,0,4.38,4.38,0,0,0-.79.09,2.7,2.7,0,0,0-.71.25,1.44,1.44,0,0,0-.5.42,1,1,0,0,0-.19.61,1.18,1.18,0,0,0,.34.91A1.59,1.59,0,0,0,409.88,365.87Z"/><path class="cls-4" d="M418.87,353l4.49-.12v9.7a4.42,4.42,0,0,0,.4,2.24,1.37,1.37,0,0,0,1.28.59,3.56,3.56,0,0,0,1.07-.17,4.19,4.19,0,0,0,.84-0.41l1,1.86q-0.36.24-.72,0.45a4.81,4.81,0,0,1-.76.36,5.38,5.38,0,0,1-.87.23,7,7,0,0,1-1.06.1,3.89,3.89,0,0,1-3-.93,3.81,3.81,0,0,1-1-2.83c0-3.53,0-5.29,0-8.82l-1.75,0V353Z"/><path class="cls-4" d="M431.31,369.86l9.35-.31v2.25l-9.35.31v-2.25Z"/><path class="cls-4" d="M442.3,352.33l4.25-.16v5.38h0.08a3.76,3.76,0,0,1,1.35-1.12,4.69,4.69,0,0,1,2-.48,4.89,4.89,0,0,1,1.47.15,2.64,2.64,0,0,1,1.16.65,3.09,3.09,0,0,1,.76,1.28,6.5,6.5,0,0,1,.27,2c0,2.61,0,3.92,0,6.53l-2.74.11v-6a2.52,2.52,0,0,0-.55-1.83,1.83,1.83,0,0,0-1.43-.51,2.48,2.48,0,0,0-1.43.53,2.71,2.71,0,0,0-.93,1.24v6.7l-2.74.1V354.58l-1.52.06v-2.31Z"/><path class="cls-4" d="M466.17,364.9a4,4,0,0,1-.7.53,7.25,7.25,0,0,1-1,.5,8.23,8.23,0,0,1-1.27.4,8.38,8.38,0,0,1-1.47.19,7,7,0,0,1-2.41-.27,4.43,4.43,0,0,1-2.93-2.72,7,7,0,0,1,.05-4.75,5.16,5.16,0,0,1,1.21-1.79,5.35,5.35,0,0,1,1.8-1.12,7.15,7.15,0,0,1,2.23-.45,6.86,6.86,0,0,1,1.65.13,4.28,4.28,0,0,1,1.57.65,3.62,3.62,0,0,1,1.17,1.32,4.54,4.54,0,0,1,.45,2.16,10.16,10.16,0,0,1-.21,2l-7.58.35a2.34,2.34,0,0,0,.28,1.12,2.11,2.11,0,0,0,.69.72,2.85,2.85,0,0,0,1,.39,4.93,4.93,0,0,0,1.19.08,6.28,6.28,0,0,0,2.07-.39,4.65,4.65,0,0,0,1.32-.78Zm-4.55-7.28a3.55,3.55,0,0,0-1,.2,3.06,3.06,0,0,0-.87.48,2.57,2.57,0,0,0-.64.75,2.3,2.3,0,0,0-.29,1l5.18-.24A2,2,0,0,0,461.63,357.62Z"/><path class="cls-4" d="M469.39,351.16l4.48-.23c0,3.88,0,5.82,0,9.7a4.36,4.36,0,0,0,.4,2.23,1.33,1.33,0,0,0,1.28.56,3.63,3.63,0,0,0,1.07-.19,4.31,4.31,0,0,0,.84-0.43l1,1.83q-0.36.25-.72,0.47a4.89,4.89,0,0,1-.76.38,5.5,5.5,0,0,1-.87.26,7.12,7.12,0,0,1-1.06.13,3.81,3.81,0,0,1-3-.85,3.73,3.73,0,0,1-1-2.81v-8.82l-1.75.09v-2.31Z"/><path class="cls-4" d="M480.19,354.79l3.58-.2,0.32,1.24h0.08a4.29,4.29,0,0,1,3.53-1.76,4.9,4.9,0,0,1,1.78.2,3.19,3.19,0,0,1,1.39.87,4.17,4.17,0,0,1,.89,1.58,7.66,7.66,0,0,1,.32,2.35,7.9,7.9,0,0,1-.36,2.45,5.56,5.56,0,0,1-1,1.9,4.79,4.79,0,0,1-1.64,1.25,5.94,5.94,0,0,1-2.21.53,8.49,8.49,0,0,1-1.28,0,3.36,3.36,0,0,1-1.05-.24v4.3l-2.73.16c0-5,0-7.43,0-12.39l-1.58.09v-2.31Zm6.69,1.64a2.92,2.92,0,0,0-1.46.48,2.24,2.24,0,0,0-.92,1.25v4.37a2.13,2.13,0,0,0,.85.32,4.65,4.65,0,0,0,1.13.07,3,3,0,0,0,1.09-.26,2.43,2.43,0,0,0,.88-0.69,3.33,3.33,0,0,0,.59-1.15,5.6,5.6,0,0,0,.21-1.63,3,3,0,0,0-.67-2.1A2.06,2.06,0,0,0,486.88,356.43Z"/><path class="cls-4" d="M504,362.72a4.11,4.11,0,0,1-.7.54,7.32,7.32,0,0,1-1,.52,8.3,8.3,0,0,1-1.27.42,8.43,8.43,0,0,1-1.47.22,7,7,0,0,1-2.41-.22,4.31,4.31,0,0,1-2.92-2.66,6.28,6.28,0,0,1-.39-2.3,6.38,6.38,0,0,1,.44-2.45,5.3,5.3,0,0,1,1.21-1.81,5.5,5.5,0,0,1,1.8-1.15,7.23,7.23,0,0,1,2.23-.49,6.81,6.81,0,0,1,1.65.1,4.2,4.2,0,0,1,1.57.62,3.52,3.52,0,0,1,1.17,1.3,4.49,4.49,0,0,1,.45,2.15,10.23,10.23,0,0,1-.21,2l-7.57.49a2.31,2.31,0,0,0,.28,1.12,2,2,0,0,0,.69.71,2.79,2.79,0,0,0,1,.37,4.9,4.9,0,0,0,1.19.06,6.35,6.35,0,0,0,2.07-.43,4.76,4.76,0,0,0,1.31-.8Zm-4.54-7.2a3.59,3.59,0,0,0-1,.22,3.12,3.12,0,0,0-.87.49,2.64,2.64,0,0,0-.64.76,2.33,2.33,0,0,0-.29,1l5.17-.33A1.93,1.93,0,0,0,499.5,355.52Z"/><path class="cls-4" d="M506.25,361.37l2.61-.18v-5.88l-2.61.18v-2.31l4.73-.33,0.32,1.36h0.08a6.16,6.16,0,0,1,1.35-1.25,3.52,3.52,0,0,1,1.77-.59,2.22,2.22,0,0,1,2,.78,4.82,4.82,0,0,1,.73,3l-2.46.18a2,2,0,0,0-.22-1.09,0.72,0.72,0,0,0-.7-0.3,2.22,2.22,0,0,0-1.36.52,4.72,4.72,0,0,0-.87,1V361l4.56-.33V363c-4,.29-5.94.43-9.9,0.7v-2.31Z"/><path class="cls-4" d="M527.61,366.56a9.13,9.13,0,0,1-2.86-.7,7.49,7.49,0,0,1-2.46-1.68,8,8,0,0,1-1.71-2.73,10.53,10.53,0,0,1-.64-3.86,11.35,11.35,0,0,1,.64-3.94,10.07,10.07,0,0,1,1.71-3,9.53,9.53,0,0,1,2.46-2.1,11.26,11.26,0,0,1,2.86-1.21l0.5,2.21a9.52,9.52,0,0,0-1.67.73,6.82,6.82,0,0,0-1.78,1.42,7.79,7.79,0,0,0-1.42,2.3,8.88,8.88,0,0,0-.58,3.41,7.45,7.45,0,0,0,.61,3.21,6.46,6.46,0,0,0,1.48,2.06,5.91,5.91,0,0,0,1.8,1.14,6.71,6.71,0,0,0,1.55.43Z"/><path class="cls-4" d="M535.62,359.54a4.3,4.3,0,0,0,1.21-.27,3.19,3.19,0,0,0,.94-0.56,2.61,2.61,0,0,0,.61-0.77,2,2,0,0,0,.22-0.9,1.79,1.79,0,0,0-.25-1,1.6,1.6,0,0,0-.69-0.59,3.12,3.12,0,0,0-1.06-.25,8.49,8.49,0,0,0-1.34,0l-1.12.09v-1.44l3.36-4.38-5.06.42v-2.2l8.16-.68v1.82l-3.52,4.32,0.46,0a3.83,3.83,0,0,1,1.36.13,3,3,0,0,1,1.17.62,3.16,3.16,0,0,1,.82,1.13,4,4,0,0,1,.31,1.63,4.35,4.35,0,0,1-.47,2,5.17,5.17,0,0,1-1.24,1.56,5.88,5.88,0,0,1-1.77,1,7.65,7.65,0,0,1-2.06.46,10.08,10.08,0,0,1-1.8,0,8.2,8.2,0,0,1-1.74-.36l0.7-2.22a2.52,2.52,0,0,0,.49.16l0.7,0.14a7.08,7.08,0,0,0,.8.09A5.53,5.53,0,0,0,535.62,359.54Z"/><path class="cls-4" d="M543.74,351.15a5.18,5.18,0,0,1,.35-1.91,4.78,4.78,0,0,1,1-1.56,5.14,5.14,0,0,1,1.52-1.09,5.73,5.73,0,0,1,2-.53,5.67,5.67,0,0,1,2,.16,3.8,3.8,0,0,1,1.58.87,4,4,0,0,1,1,1.57,6.34,6.34,0,0,1,.36,2.24,12.43,12.43,0,0,1-.6,4.06,9.3,9.3,0,0,1-1.61,2.95,7.92,7.92,0,0,1-2.35,1.93,10,10,0,0,1-2.8,1l-0.56-2a7.55,7.55,0,0,0,2-.72A6.78,6.78,0,0,0,549.2,357a5.91,5.91,0,0,0,1.08-1.44,4.93,4.93,0,0,0,.54-1.66,3.39,3.39,0,0,1-1.08.77,4.69,4.69,0,0,1-1.58.39h0a4.67,4.67,0,0,1-1.54-.12,3.66,3.66,0,0,1-2.44-1.94A4,4,0,0,1,543.74,351.15Zm2.52-.36a2.11,2.11,0,0,0,.21,1,1.94,1.94,0,0,0,.55.67,2.1,2.1,0,0,0,.79.37,2.82,2.82,0,0,0,.93.07,3.77,3.77,0,0,0,1.42-.39,2.38,2.38,0,0,0,.88-0.72,5.76,5.76,0,0,0,.06-0.81,3.71,3.71,0,0,0-.16-1.09,2.66,2.66,0,0,0-.48-0.92,2.08,2.08,0,0,0-.8-0.6,2.24,2.24,0,0,0-1.1-.15A2.46,2.46,0,0,0,546.26,350.79Z"/><path class="cls-4" d="M556.22,362l8.88-.85v2.14l-8.88.85V362Z"/><path class="cls-4" d="M567.74,348.92a5.21,5.21,0,0,1,.35-1.91,4.85,4.85,0,0,1,1-1.57,5.22,5.22,0,0,1,1.52-1.11,5.77,5.77,0,0,1,2-.55,5.65,5.65,0,0,1,2,.13,3.74,3.74,0,0,1,1.58.85,3.94,3.94,0,0,1,1,1.55,6.32,6.32,0,0,1,.36,2.23,12.51,12.51,0,0,1-.6,4.06,9.45,9.45,0,0,1-1.61,3,8.06,8.06,0,0,1-2.35,2,10.11,10.11,0,0,1-2.8,1l-0.56-2a7.6,7.6,0,0,0,2-.74,6.89,6.89,0,0,0,1.55-1.15,6,6,0,0,0,1.08-1.45,5,5,0,0,0,.54-1.67,3.44,3.44,0,0,1-1.08.78,4.72,4.72,0,0,1-1.58.41h0a4.66,4.66,0,0,1-1.54-.1,3.69,3.69,0,0,1-1.41-.66,3.65,3.65,0,0,1-1-1.25A4,4,0,0,1,567.74,348.92Zm2.52-.39a2.1,2.1,0,0,0,.21,1,1.9,1.9,0,0,0,.55.66,2.07,2.07,0,0,0,.79.36,2.82,2.82,0,0,0,.93.06,3.8,3.8,0,0,0,1.42-.4,2.42,2.42,0,0,0,.88-0.73,5.78,5.78,0,0,0,.06-0.81,3.7,3.7,0,0,0-.16-1.08,2.62,2.62,0,0,0-.48-0.91,2,2,0,0,0-.8-0.59,2.22,2.22,0,0,0-1.1-.14A2.5,2.5,0,0,0,570.26,348.53Z"/><path class="cls-4" d="M580.77,355l3.06-.32v-8.74l-2.64,2.3-1.2-1.47,4.56-4,1.76-.19v11.8l3-.33v2.2l-8.53.92V355Z"/><path class="cls-4" d="M601.53,350.57a4.78,4.78,0,0,1-.37,1.86,5.37,5.37,0,0,1-1,1.58,5.51,5.51,0,0,1-1.53,1.16,5.65,5.65,0,0,1-3.85.47,3.81,3.81,0,0,1-1.59-.81,4.05,4.05,0,0,1-1.08-1.54,5.89,5.89,0,0,1-.4-2.28,9.68,9.68,0,0,1,.69-3.68,11.54,11.54,0,0,1,1.77-3,10.86,10.86,0,0,1,2.42-2.19,9.11,9.11,0,0,1,2.66-1.23l0.58,2a8.68,8.68,0,0,0-2,.88A8.56,8.56,0,0,0,596.2,345,7.75,7.75,0,0,0,595,346.6a5.61,5.61,0,0,0-.67,1.69,3.61,3.61,0,0,1,1.2-1,4.7,4.7,0,0,1,1.76-.55,4.6,4.6,0,0,1,1.68.1,3.23,3.23,0,0,1,2.25,1.93A4.47,4.47,0,0,1,601.53,350.57ZM599,351a1.83,1.83,0,0,0-.65-1.57,2.38,2.38,0,0,0-1.75-.36,3.17,3.17,0,0,0-1.44.52,3,3,0,0,0-.94.95,3.41,3.41,0,0,0,0,.5c0,0.18,0,.32,0,0.43a2.53,2.53,0,0,0,.16.9,1.87,1.87,0,0,0,1.22,1.15,2.43,2.43,0,0,0,1,.08,2.68,2.68,0,0,0,.9-0.27,3,3,0,0,0,.78-0.56,2.73,2.73,0,0,0,.55-0.79A2.3,2.3,0,0,0,599,351Z"/><path class="cls-4" d="M604.17,356.95l8.86-1.06V358l-8.86,1.06v-2.14Z"/><path class="cls-4" d="M615.78,349.79a3.68,3.68,0,0,1,.23-1.31,4.66,4.66,0,0,1,.6-1.11,6,6,0,0,1,.85-0.94,9.63,9.63,0,0,1,1-.77,5.14,5.14,0,0,1-1.66-1.16,2.69,2.69,0,0,1-.66-1.91,3.49,3.49,0,0,1,.34-1.5,4.27,4.27,0,0,1,.95-1.3,5.3,5.3,0,0,1,1.45-1,6.18,6.18,0,0,1,1.81-.51,5.6,5.6,0,0,1,1.69,0,4,4,0,0,1,1.39.5,2.59,2.59,0,0,1,1.28,2.3,3.9,3.9,0,0,1-.61,2.14,6.42,6.42,0,0,1-1.66,1.73,5.16,5.16,0,0,1,1.9,1.22,2.89,2.89,0,0,1,.71,2.07A3.71,3.71,0,0,1,625,350a4.73,4.73,0,0,1-1,1.38,5.8,5.8,0,0,1-1.55,1,6.48,6.48,0,0,1-1.88.53,5.92,5.92,0,0,1-1.86,0,4.28,4.28,0,0,1-1.5-.56,2.88,2.88,0,0,1-1-1A3,3,0,0,1,615.78,349.79Zm7.1-1.23a1.29,1.29,0,0,0-.26-0.83,2.34,2.34,0,0,0-.65-0.56,5.08,5.08,0,0,0-.86-0.4l-0.91-.36a4.67,4.67,0,0,0-1.54,1.32,2.45,2.45,0,0,0-.54,1.38,1.44,1.44,0,0,0,.64,1.31,2.64,2.64,0,0,0,1.78.27,3.15,3.15,0,0,0,1.67-.68A1.81,1.81,0,0,0,622.88,348.56Zm-4.29-6.16a1.35,1.35,0,0,0,.21.78,1.84,1.84,0,0,0,.54.51,3.66,3.66,0,0,0,.75.36l0.84,0.29a4.51,4.51,0,0,0,.63-0.48,4.2,4.2,0,0,0,.55-0.6,3.44,3.44,0,0,0,.39-0.65,1.55,1.55,0,0,0,.15-0.65,1.31,1.31,0,0,0-.18-0.71,1.48,1.48,0,0,0-.47-0.47,1.8,1.8,0,0,0-.65-0.25,2.54,2.54,0,0,0-1.55.22,2.71,2.71,0,0,0-.64.44,1.88,1.88,0,0,0-.42.57A1.45,1.45,0,0,0,618.59,342.4Z"/><path class="cls-4" d="M627.31,344.74a12.52,12.52,0,0,1,.38-3.24,7.63,7.63,0,0,1,1.07-2.41,5.38,5.38,0,0,1,1.65-1.56,5.52,5.52,0,0,1,2.14-.73,4.07,4.07,0,0,1,3.88,1.26q1.36,1.59,1.36,5.31a12.68,12.68,0,0,1-.38,3.26,7.77,7.77,0,0,1-1.07,2.42,5.31,5.31,0,0,1-1.66,1.58,5.58,5.58,0,0,1-2.15.73,3.94,3.94,0,0,1-3.88-1.36Q627.31,348.3,627.31,344.74Zm2.59-.34c0,0.2,0,.39,0,0.57s0,0.36,0,.55l4.82-5.09a1.92,1.92,0,0,0-2.23-1.42,2.52,2.52,0,0,0-1.95,1.49A8.81,8.81,0,0,0,629.9,344.4Zm5.3-.7c0-.21,0-0.42,0-0.61s0-.38,0-0.57l-4.84,5.1a2,2,0,0,0,2.23,1.53,2.54,2.54,0,0,0,2-1.48A8.82,8.82,0,0,0,635.2,343.7Z"/><path class="cls-4" d="M639.27,343.16a12.55,12.55,0,0,1,.38-3.24,7.68,7.68,0,0,1,1.07-2.42,5.42,5.42,0,0,1,1.65-1.57,5.54,5.54,0,0,1,2.14-.74,4,4,0,0,1,3.88,1.23q1.36,1.58,1.36,5.3a12.72,12.72,0,0,1-.38,3.26,7.82,7.82,0,0,1-1.07,2.43,5.35,5.35,0,0,1-1.66,1.59,5.59,5.59,0,0,1-2.15.75,3.91,3.91,0,0,1-3.88-1.34Q639.27,346.72,639.27,343.16Zm2.59-.35c0,0.2,0,.39,0,0.57s0,0.36,0,.55l4.82-5.12a1.9,1.9,0,0,0-2.23-1.41,2.54,2.54,0,0,0-1.95,1.5A8.84,8.84,0,0,0,641.86,342.81Zm5.3-.73q0-.32,0-0.61c0-.19,0-0.38,0-0.57L642.28,346a1.93,1.93,0,0,0,2.23,1.51,2.56,2.56,0,0,0,2-1.49A8.85,8.85,0,0,0,647.16,342.08Z"/><path class="cls-4" d="M654.81,346.74a1.58,1.58,0,0,1,.45-1.14,1.89,1.89,0,0,1,1.13-.56,1.72,1.72,0,0,1,1.65.48,2.5,2.5,0,0,1,.56,1.7,4.14,4.14,0,0,1-.35,1.69,5.29,5.29,0,0,1-.9,1.41,6.07,6.07,0,0,1-1.24,1.06,5.87,5.87,0,0,1-1.36.66l-0.54-1a6.7,6.7,0,0,0,1-.48,4.7,4.7,0,0,0,.89-0.68,3.78,3.78,0,0,0,.67-0.87,2.4,2.4,0,0,0,.31-1,2.61,2.61,0,0,1-1,.18,1.32,1.32,0,0,1-.69-0.22,1.08,1.08,0,0,1-.39-0.51A1.94,1.94,0,0,1,654.81,346.74Z"/><path class="cls-4" d="M664.52,344.41l3-.45v-8.74l-2.63,2.41-1.19-1.42,4.54-4.15,1.75-.26v11.8l3-.45v2.2l-8.5,1.27v-2.2Z"/><path class="cls-4" d="M676.85,346.91a8.39,8.39,0,0,0,1.55-.8,8.17,8.17,0,0,0,1.78-1.56,8.89,8.89,0,0,0,1.47-2.4,8.49,8.49,0,0,0,.61-3.35,7.92,7.92,0,0,0-.57-3.27,5.69,5.69,0,0,0-1.41-2,4.91,4.91,0,0,0-1.76-1,7.68,7.68,0,0,0-1.66-.34l0.5-2.32a9.18,9.18,0,0,1,2.84.55,6.82,6.82,0,0,1,2.44,1.53,7.43,7.43,0,0,1,1.7,2.62,10.2,10.2,0,0,1,.64,3.79,11.85,11.85,0,0,1-.64,4,10.9,10.9,0,0,1-1.7,3.13,10.41,10.41,0,0,1-2.44,2.25,11.26,11.26,0,0,1-2.84,1.36Z"/><path class="cls-4" d="M59.72,451.29v-2.53l2.7,0.43v-6.44l-2.72-.43v-2.53l2.72,0.43v-0.64a3.88,3.88,0,0,1,.38-1.8,3,3,0,0,1,1-1.13,3.42,3.42,0,0,1,1.43-.53,5.72,5.72,0,0,1,1.68,0,11.54,11.54,0,0,1,2.6.66,7.9,7.9,0,0,1,1.68.91l-0.87,2.15a12.24,12.24,0,0,0-1.13-.63,5.45,5.45,0,0,0-1.57-.45,2,2,0,0,0-1.73.3,2.21,2.21,0,0,0-.49,1.61l4.8,0.74V444l-4.8-.74v6.44l4.83,0.74v2.53C66,452.28,63.92,452,59.72,451.29Z"/><path class="cls-4" d="M73.87,442.76a11.17,11.17,0,0,1,2.12-.4,11.83,11.83,0,0,1,2.85.13,6.89,6.89,0,0,1,2,.59,4.14,4.14,0,0,1,1.35,1,3.75,3.75,0,0,1,.74,1.37,5.91,5.91,0,0,1,.23,1.69q0,1.17-.08,2T83,450.61a10.1,10.1,0,0,0,0,1.09c0,0.21.05,0.43,0.07,0.63l1.49,0.22v2.53l-3.84-.56-0.3-1.61-0.11,0a3.19,3.19,0,0,1-1.3,1,4,4,0,0,1-2.27.18,4.47,4.47,0,0,1-2.71-1.33,3.65,3.65,0,0,1-1-2.59,3.35,3.35,0,0,1,.35-1.61,2.38,2.38,0,0,1,1-1,4.24,4.24,0,0,1,1.61-.42,9.27,9.27,0,0,1,2.1.09q0.41,0.06.86,0.17l1.11,0.26a2.28,2.28,0,0,0,0-.45v-0.44a1.7,1.7,0,0,0-.5-1.33,2.76,2.76,0,0,0-1.48-.6,6.65,6.65,0,0,0-2.09,0,11.82,11.82,0,0,0-1.57.36Zm3.89,9a2.52,2.52,0,0,0,1.63-.16,2.16,2.16,0,0,0,.79-0.75V449.5l-0.68-.2a8.27,8.27,0,0,0-1-.2,4.62,4.62,0,0,0-.86,0,2.54,2.54,0,0,0-.77.14,1.21,1.21,0,0,0-.54.37,1,1,0,0,0-.2.64,1.51,1.51,0,0,0,.37,1.06A2,2,0,0,0,77.77,451.79Z"/><path class="cls-4" d="M98,455.87a5.66,5.66,0,0,1-2.2.76,9.32,9.32,0,0,1-2.63,0,8.18,8.18,0,0,1-2.65-.81,6.56,6.56,0,0,1-1.95-1.51,6.29,6.29,0,0,1-1.2-2.09,7.69,7.69,0,0,1-.41-2.54,6,6,0,0,1,.48-2.51,4.44,4.44,0,0,1,1.34-1.72,4.88,4.88,0,0,1,2-.9,7.5,7.5,0,0,1,2.54,0,10.14,10.14,0,0,1,2.4.64,12.91,12.91,0,0,1,1.72.81v4L95,449.65v-2.12a6.9,6.9,0,0,0-1.42-.36,4.14,4.14,0,0,0-1.27,0,2.58,2.58,0,0,0-1.92,1.42,3.26,3.26,0,0,0-.31,1.5,3.85,3.85,0,0,0,.25,1.39,3.9,3.9,0,0,0,.71,1.18,3.94,3.94,0,0,0,1.13.88,4.49,4.49,0,0,0,1.5.48,5.1,5.1,0,0,0,2.14-.07,7.39,7.39,0,0,0,1.25-.47Z"/><path class="cls-4" d="M101.94,448.54l-2.27-.31V445.7l2.27,0.31v-2.62l3-.45v3.47l6,0.8v2.53l-6-.8v3.29a4.39,4.39,0,0,0,.66,2.65,2.66,2.66,0,0,0,1.86,1,3.82,3.82,0,0,0,1.12,0,3.72,3.72,0,0,0,.91-0.26,4.29,4.29,0,0,0,.73-0.41l0.61-.43,1.38,2.25a3.66,3.66,0,0,1-1,.71,7.11,7.11,0,0,1-1.26.5,7.25,7.25,0,0,1-1.41.26,6.56,6.56,0,0,1-1.44,0,5.68,5.68,0,0,1-3.86-2,7.45,7.45,0,0,1-1.29-4.74v-3.29Z"/><path class="cls-4" d="M113.84,453.34a6.66,6.66,0,0,1,.44-2.52,4.42,4.42,0,0,1,1.24-1.75,4.51,4.51,0,0,1,1.91-.94,7,7,0,0,1,2.49-.08,7.78,7.78,0,0,1,2.58.76,6.34,6.34,0,0,1,1.92,1.47,6.07,6.07,0,0,1,1.18,2.07,7.81,7.81,0,0,1,.4,2.53,6.69,6.69,0,0,1-.44,2.52,4.35,4.35,0,0,1-3.15,2.7,7,7,0,0,1-2.49.09,7.75,7.75,0,0,1-2.58-.77,6.34,6.34,0,0,1-1.91-1.48,6.1,6.1,0,0,1-1.18-2.07A7.82,7.82,0,0,1,113.84,453.34Zm3.07,0.4a4.83,4.83,0,0,0,.21,1.43,4,4,0,0,0,.6,1.2,3.25,3.25,0,0,0,.94.87,3.16,3.16,0,0,0,1.26.43,2.61,2.61,0,0,0,2.17-.58,3.34,3.34,0,0,0,.84-2.59,4.42,4.42,0,0,0-.78-2.66,3.09,3.09,0,0,0-2.22-1.26,3.42,3.42,0,0,0-1.19,0,2,2,0,0,0-1,.51,2.61,2.61,0,0,0-.63,1A4.7,4.7,0,0,0,116.91,453.74Z"/><path class="cls-4" d="M127.69,458.32l2.85,0.35v-6.44l-2.85-.35v-2.53l5.16,0.63,0.34,1.56h0.09a5.12,5.12,0,0,1,1.47-1.09,3.38,3.38,0,0,1,1.93-.28,3,3,0,0,1,2.17,1.27,6,6,0,0,1,.79,3.47L137,454.6a2.49,2.49,0,0,0-.24-1.24,1,1,0,0,0-.77-0.47,2.09,2.09,0,0,0-1.48.28,3.89,3.89,0,0,0-1,.94V459l5,0.59v2.53c-4.32-.51-6.49-0.77-10.81-1.3v-2.53Z"/><path class="cls-4" d="M141.92,460l4,0.46V454l-4-.46V451l7,0.8v9l4.25,0.47v2.53c-4.51-.5-6.77-0.75-11.27-1.27V460Zm3.49-11.7a1.44,1.44,0,0,1,.53-1.16,1.87,1.87,0,0,1,1.47-.34,2.51,2.51,0,0,1,1.54.68,1.77,1.77,0,0,1,.57,1.28,1.32,1.32,0,0,1-.57,1.14,2.17,2.17,0,0,1-1.54.3,2.37,2.37,0,0,1-1.47-.64A1.73,1.73,0,0,1,145.41,448.32Z"/><path class="cls-4" d="M156.41,453.45a11.56,11.56,0,0,1,2.12-.48,11.85,11.85,0,0,1,2.86,0,6.72,6.72,0,0,1,2,.5,3.92,3.92,0,0,1,1.36,1,3.55,3.55,0,0,1,.75,1.34,5.79,5.79,0,0,1,.23,1.68q0,1.17-.08,2t-0.08,1.46a10,10,0,0,0,0,1.09c0,0.21.05,0.43,0.07,0.63l1.49,0.15v2.53l-3.86-.4-0.3-1.6h-0.11a3.4,3.4,0,0,1-1.3,1.09,4.1,4.1,0,0,1-2.28.28,4.29,4.29,0,0,1-2.72-1.21,3.5,3.5,0,0,1-1-2.55,3.42,3.42,0,0,1,.35-1.63,2.54,2.54,0,0,1,1-1,4.41,4.41,0,0,1,1.62-.49,9.31,9.31,0,0,1,2.11,0q0.41,0,.87.14l1.12,0.21a2.3,2.3,0,0,0,0-.46v-0.44a1.63,1.63,0,0,0-.5-1.31,2.66,2.66,0,0,0-1.48-.54,6.7,6.7,0,0,0-2.1.08,12.27,12.27,0,0,0-1.57.43Zm3.91,8.86a2.58,2.58,0,0,0,1.64-.23,2.31,2.31,0,0,0,.8-0.78v-1.38l-0.68-.18a8.24,8.24,0,0,0-1-.16,4.68,4.68,0,0,0-.86,0,2.63,2.63,0,0,0-.77.17,1.3,1.3,0,0,0-.55.39,1,1,0,0,0-.2.65,1.45,1.45,0,0,0,.37,1A1.94,1.94,0,0,0,160.32,462.31Z"/><path class="cls-4" d="M170.12,449.5L175,450v10.63a5.2,5.2,0,0,0,.44,2.5,1.72,1.72,0,0,0,1.4.83,3.76,3.76,0,0,0,1.17,0,4,4,0,0,0,.92-0.34l1.13,2.18q-0.39.22-.78,0.4a4.55,4.55,0,0,1-.83.29,5.27,5.27,0,0,1-1,.14,7.53,7.53,0,0,1-1.16,0,4.78,4.78,0,0,1-3.24-1.42,4.68,4.68,0,0,1-1.08-3.24c0-3.86,0-5.8,0-9.66l-1.91-.19V449.5Z"/><path class="cls-4" d="M192.38,472.6a11.6,11.6,0,0,1-3.13-1.29,10.44,10.44,0,0,1-2.69-2.29,11,11,0,0,1-1.87-3.3,12.52,12.52,0,0,1-.7-4.34,11.46,11.46,0,0,1,.7-4.2,8.84,8.84,0,0,1,1.87-3,8.2,8.2,0,0,1,2.69-1.85,10.61,10.61,0,0,1,3.13-.8l0.55,2.51a8.9,8.9,0,0,0-1.83.49,5.89,5.89,0,0,0-1.94,1.23,6.8,6.8,0,0,0-1.55,2.26,9.26,9.26,0,0,0,1.66,9.78,8.15,8.15,0,0,0,2,1.58,8.63,8.63,0,0,0,1.7.76Z"/><path class="cls-4" d="M198.15,465.7l3.52,0.3V455.95l-3,2.06-1.38-2,5.25-3.55,2,0.17v13.57l3.45,0.28v2.53c-3.93-.32-5.9-0.49-9.83-0.83V465.7Z"/><path class="cls-4" d="M212,466.85l3.52,0.28V457.07l-3,2.08-1.38-1.95,5.25-3.59,2,0.16v13.57l3.45,0.26v2.53l-9.83-.76v-2.53Z"/><path class="cls-4" d="M226.1,472.82a7.43,7.43,0,0,0,1.7-.49,6.52,6.52,0,0,0,2-1.26,7.15,7.15,0,0,0,1.62-2.27,8.17,8.17,0,0,0,.67-3.52,9.68,9.68,0,0,0-.63-3.72,8.49,8.49,0,0,0-1.55-2.51,7.41,7.41,0,0,0-1.95-1.54,10.33,10.33,0,0,0-1.83-.79l0.55-2.42a12.28,12.28,0,0,1,3.13,1.3,10.33,10.33,0,0,1,2.69,2.28,10.92,10.92,0,0,1,1.88,3.29,12.39,12.39,0,0,1,.7,4.31,11.58,11.58,0,0,1-.7,4.23,8.89,8.89,0,0,1-1.88,3,8.29,8.29,0,0,1-2.69,1.86,10.07,10.07,0,0,1-3.13.79Z"/><path class="cls-4" d="M377.74,475.58V473h2.72V466.6h-2.74c0-1,0-1.52,0-2.53h2.74v-0.64a4.24,4.24,0,0,1,.38-1.87,3.78,3.78,0,0,1,1-1.29,4.15,4.15,0,0,1,1.44-.76,6,6,0,0,1,1.7-.25,10.77,10.77,0,0,1,2.62.24,6.65,6.65,0,0,1,1.7.64l-0.88,2.29a10.27,10.27,0,0,0-1.14-.45,5,5,0,0,0-1.58-.19,2.26,2.26,0,0,0-1.74.58,2.52,2.52,0,0,0-.5,1.69l4.84,0v2.53l-4.84,0V473l4.87,0v2.53C384.1,475.54,382,475.56,377.74,475.58Z"/><path class="cls-4" d="M392,464.75a12.74,12.74,0,0,1,2.13-.74,12.23,12.23,0,0,1,2.87-.34,6.36,6.36,0,0,1,2,.26,3.34,3.34,0,0,1,1.36.79,3,3,0,0,1,.75,1.25,5.49,5.49,0,0,1,.23,1.65q0,1.17-.08,2t-0.08,1.47a9.82,9.82,0,0,0,0,1.08c0,0.21.05,0.42,0.07,0.62l1.5,0v2.53l-3.87.06-0.3-1.56h-0.11a4.06,4.06,0,0,1-1.31,1.25,4.41,4.41,0,0,1-2.29.55,3.85,3.85,0,0,1-2.73-.89,3.11,3.11,0,0,1-1-2.43,3.68,3.68,0,0,1,.35-1.67,3,3,0,0,1,1-1.16,5,5,0,0,1,1.63-.69,9.59,9.59,0,0,1,2.12-.25c0.27,0,.57,0,0.87,0l1.12,0.08a2.38,2.38,0,0,0,0-.46v-0.44a1.45,1.45,0,0,0-.5-1.25,2.43,2.43,0,0,0-1.49-.36,7,7,0,0,0-2.11.33,13.69,13.69,0,0,0-1.58.62Zm3.93,8.39a2.53,2.53,0,0,0,2.44-1.3v-1.38l-0.68-.09a7.91,7.91,0,0,0-1,0,4.79,4.79,0,0,0-.87.09,2.92,2.92,0,0,0-.78.26,1.54,1.54,0,0,0-.55.46,1.1,1.1,0,0,0-.2.67,1.29,1.29,0,0,0,.38,1A1.75,1.75,0,0,0,396,473.13Z"/><path class="cls-4" d="M416.38,473.92a6.8,6.8,0,0,1-2.21,1.12,9.81,9.81,0,0,1-2.65.42,7.46,7.46,0,0,1-2.66-.38,5.27,5.27,0,0,1-2-1.19,5.07,5.07,0,0,1-1.21-1.9,7.08,7.08,0,0,1-.42-2.48,6.53,6.53,0,0,1,.48-2.59A5.58,5.58,0,0,1,407.1,465a6,6,0,0,1,2-1.23,8,8,0,0,1,2.56-.46,9.41,9.41,0,0,1,2.42.24,11.09,11.09,0,0,1,1.73.53c0,1.62,0,2.43,0,4l-2.54.06v-2.12a6.48,6.48,0,0,0-1.43-.13,4.4,4.4,0,0,0-1.28.22,3.21,3.21,0,0,0-1.13.64,3.36,3.36,0,0,0-.81,1.09,3.55,3.55,0,0,0-.31,1.55,3.51,3.51,0,0,0,.25,1.35,3.07,3.07,0,0,0,1.86,1.77,4.08,4.08,0,0,0,1.51.23,5.46,5.46,0,0,0,2.16-.42,9,9,0,0,0,1.26-.67Z"/><path class="cls-4" d="M420.31,466L418,466v-2.53l2.28-.06V460.8l3-.93c0,1.39,0,2.08,0,3.47l6-.18c0,1,0,1.52,0,2.53l-6,.18v3.29a3.88,3.88,0,0,0,.67,2.55,2.24,2.24,0,0,0,1.87.74,4,4,0,0,0,1.13-.18,4.42,4.42,0,0,0,.91-0.41,5.46,5.46,0,0,0,.74-0.53l0.61-.52,1.38,2a4.65,4.65,0,0,1-1,.87,8.72,8.72,0,0,1-1.27.71,8.27,8.27,0,0,1-1.42.49,6.87,6.87,0,0,1-1.45.2,4.85,4.85,0,0,1-3.89-1.33q-1.3-1.4-1.3-4.53V466Z"/><path class="cls-4" d="M432.28,468.83a7.17,7.17,0,0,1,.44-2.59,5.44,5.44,0,0,1,3.17-3.2,7.54,7.54,0,0,1,2.5-.49,7.13,7.13,0,0,1,2.59.34,5.11,5.11,0,0,1,1.93,1.16,4.92,4.92,0,0,1,1.19,1.88,7.82,7.82,0,0,1,0,5.06,5.46,5.46,0,0,1-3.17,3.21,7.49,7.49,0,0,1-2.5.49,7.09,7.09,0,0,1-2.59-.35,5.11,5.11,0,0,1-1.93-1.17,4.94,4.94,0,0,1-1.19-1.88A7.22,7.22,0,0,1,432.28,468.83Zm3.09-.1a4.48,4.48,0,0,0,.21,1.4,3.3,3.3,0,0,0,.6,1.11,2.57,2.57,0,0,0,.94.71,2.85,2.85,0,0,0,1.27.22,3,3,0,0,0,2.18-.93,4.66,4.66,0,0,0,.06-5.26,2.61,2.61,0,0,0-2.24-.9,3.66,3.66,0,0,0-1.2.24,2.48,2.48,0,0,0-1,.67,3.24,3.24,0,0,0-.63,1.13A5,5,0,0,0,435.37,468.72Z"/><path class="cls-4" d="M446.2,471.55l2.86-.11V465l-2.86.11c0-1,0-1.52,0-2.53l5.19-.21,0.35,1.5h0.09a6.5,6.5,0,0,1,1.48-1.33,3.77,3.77,0,0,1,1.94-.59,2.51,2.51,0,0,1,2.18.91,5.39,5.39,0,0,1,.79,3.35l-2.7.12a2.25,2.25,0,0,0-.24-1.2,0.81,0.81,0,0,0-.77-0.35,2.37,2.37,0,0,0-1.49.52,5,5,0,0,0-1,1.1v4.9l5-.22v2.53c-4.34.19-6.52,0.29-10.86,0.46v-2.53Z"/><path class="cls-4" d="M460.5,470.93l4.06-.19c0-2.58,0-3.86,0-6.44l-4.06.19V462l7.05-.34v9l4.26-.22c0,1,0,1.52,0,2.53-4.53.24-6.79,0.35-11.32,0.56C460.5,472.45,460.5,471.95,460.5,470.93Zm3.5-12.26a1.71,1.71,0,0,1,.53-1.24,2.52,2.52,0,0,1,3-.15,1.48,1.48,0,0,1,.58,1.19,1.57,1.57,0,0,1-.58,1.24,2.47,2.47,0,0,1-1.54.55,2.06,2.06,0,0,1-1.47-.4A1.47,1.47,0,0,1,464,458.67Z"/><path class="cls-4" d="M475,462a13.26,13.26,0,0,1,2.13-.83,12.43,12.43,0,0,1,2.87-.46,6.26,6.26,0,0,1,2,.17,3.16,3.16,0,0,1,1.36.74,2.87,2.87,0,0,1,.75,1.22,5.41,5.41,0,0,1,.23,1.64q0,1.17-.08,2T484.26,468a9.78,9.78,0,0,0,0,1.08c0,0.21.05,0.42,0.07,0.62l1.5-.09v2.53l-3.87.23-0.3-1.55h-0.11a4.31,4.31,0,0,1-1.31,1.3,4.54,4.54,0,0,1-2.29.65,3.71,3.71,0,0,1-2.73-.77,3,3,0,0,1-1-2.38,3.78,3.78,0,0,1,.35-1.69,3.22,3.22,0,0,1,1-1.21,5.21,5.21,0,0,1,1.63-.76,9.72,9.72,0,0,1,2.12-.34,8.57,8.57,0,0,1,.87,0l1.12,0a2.41,2.41,0,0,0,0-.46v-0.44a1.39,1.39,0,0,0-.5-1.23,2.36,2.36,0,0,0-1.49-.29,7.15,7.15,0,0,0-2.1.42,14.37,14.37,0,0,0-1.58.68Zm3.92,8.22a2.88,2.88,0,0,0,1.64-.49,3,3,0,0,0,.8-0.91v-1.38l-0.68-.06a7.87,7.87,0,0,0-1,0,4.85,4.85,0,0,0-.87.13,3,3,0,0,0-.77.3,1.64,1.64,0,0,0-.55.48,1.13,1.13,0,0,0-.2.68,1.24,1.24,0,0,0,.38,1A1.7,1.7,0,0,0,479,470.24Z"/><path class="cls-4" d="M488.8,455.84l4.91-.31c0,4.25,0,6.38,0,10.63a4.76,4.76,0,0,0,.44,2.43,1.44,1.44,0,0,0,1.41.6,4,4,0,0,0,1.17-.23,4.82,4.82,0,0,0,.92-0.49l1.13,2q-0.39.28-.78,0.52a5.47,5.47,0,0,1-.83.42,5.91,5.91,0,0,1-1,.29,7.7,7.7,0,0,1-1.16.16,4.13,4.13,0,0,1-3.25-.9,4,4,0,0,1-1.08-3.06c0-3.86,0-5.8,0-9.66l-1.91.12C488.8,457.36,488.8,456.85,488.8,455.84Z"/><path class="cls-4" d="M502.41,473.76c4.09-.28,6.14-0.42,10.22-0.72,0,1,0,1.48,0,2.46-4.09.3-6.13,0.44-10.22,0.72C502.41,475.23,502.41,474.74,502.41,473.76Z"/><path class="cls-4" d="M514.43,454.11l4.65-.35c0,2.35,0,3.53,0,5.89h0.09a4.34,4.34,0,0,1,1.47-1.29,5.76,5.76,0,0,1,3.78-.5,2.77,2.77,0,0,1,1.27.66,3.22,3.22,0,0,1,.83,1.37,7,7,0,0,1,.3,2.22v7.15l-3,.24V463a2.67,2.67,0,0,0-.6-2,1.94,1.94,0,0,0-1.57-.5,2.8,2.8,0,0,0-1.56.64,3.12,3.12,0,0,0-1,1.4v7.34l-3,.23c0-5.43,0-8.14,0-13.57l-1.66.12C514.43,455.63,514.43,455.12,514.43,454.11Z"/><path class="cls-4" d="M540.53,466.89a4.63,4.63,0,0,1-.77.61,8.27,8.27,0,0,1-1.1.59,9.1,9.1,0,0,1-1.39.49,9.2,9.2,0,0,1-1.61.28,7.58,7.58,0,0,1-2.63-.19,4.6,4.6,0,0,1-3.2-2.85,6.81,6.81,0,0,1-.43-2.51,7,7,0,0,1,.48-2.7,6,6,0,0,1,1.32-2,6.19,6.19,0,0,1,2-1.3,8,8,0,0,1,2.44-.59,7.4,7.4,0,0,1,1.81.08,4.52,4.52,0,0,1,1.71.65,3.75,3.75,0,0,1,1.28,1.4,4.85,4.85,0,0,1,.5,2.35,11.26,11.26,0,0,1-.23,2.16l-8.28.71a2.51,2.51,0,0,0,.31,1.22,2.17,2.17,0,0,0,.76.76,3,3,0,0,0,1.08.38,5.29,5.29,0,0,0,1.3,0,7,7,0,0,0,2.27-.52,5.38,5.38,0,0,0,1.44-.91Zm-5-7.78a4,4,0,0,0-1.13.26,3.49,3.49,0,0,0-1,.56,3,3,0,0,0-.7.84,2.58,2.58,0,0,0-.32,1.08l5.66-.48A2.07,2.07,0,0,0,535.56,459.1Z"/><path class="cls-4" d="M544.05,451.7l4.9-.44v10.63a4.69,4.69,0,0,0,.44,2.42,1.4,1.4,0,0,0,1.4.56,4,4,0,0,0,1.17-.26,5,5,0,0,0,.92-0.51l1.13,2q-0.39.29-.78,0.55a5.66,5.66,0,0,1-.83.45,6,6,0,0,1-1,.32,7.78,7.78,0,0,1-1.16.19,4,4,0,0,1-3.24-.81,3.94,3.94,0,0,1-1.08-3v-9.66l-1.91.17C544.05,453.21,544.05,452.71,544.05,451.7Z"/><path class="cls-4" d="M555.85,455.21l3.91-.38,0.34,1.35h0.09a4.9,4.9,0,0,1,3.86-2.08,5.27,5.27,0,0,1,1.94.14,3.32,3.32,0,0,1,1.52.89,4.34,4.34,0,0,1,1,1.69,8.27,8.27,0,0,1,.34,2.56,8.83,8.83,0,0,1-.39,2.7,6.4,6.4,0,0,1-1.13,2.13,5.56,5.56,0,0,1-1.79,1.45,6.67,6.67,0,0,1-2.41.68,9.38,9.38,0,0,1-1.4,0,3.6,3.6,0,0,1-1.15-.22c0,1.89,0,2.83,0,4.71l-3,.29c0-5.43,0-8.14,0-13.57l-1.72.17v-2.53Zm7.31,1.5a3.3,3.3,0,0,0-1.6.59,2.59,2.59,0,0,0-1,1.41v4.78a2.22,2.22,0,0,0,.93.31,5,5,0,0,0,1.23,0,3.41,3.41,0,0,0,1.2-.34,2.82,2.82,0,0,0,1-.8,3.85,3.85,0,0,0,.64-1.28,6.23,6.23,0,0,0,.23-1.79,3.13,3.13,0,0,0-.74-2.27A2.17,2.17,0,0,0,563.16,456.71Z"/><path class="cls-4" d="M581.91,462.83a4.79,4.79,0,0,1-.77.62,8.49,8.49,0,0,1-1.1.61,9.46,9.46,0,0,1-3,.83,7.53,7.53,0,0,1-2.63-.14,4.46,4.46,0,0,1-3.19-2.79,6.75,6.75,0,0,1-.42-2.5,7.13,7.13,0,0,1,.48-2.71,6.13,6.13,0,0,1,1.32-2,6.36,6.36,0,0,1,2-1.34,8.1,8.1,0,0,1,2.44-.64,7.34,7.34,0,0,1,1.8,0,4.42,4.42,0,0,1,1.71.61,3.63,3.63,0,0,1,1.27,1.37,4.8,4.8,0,0,1,.49,2.34,11.35,11.35,0,0,1-.23,2.16l-8.27.88a2.47,2.47,0,0,0,.31,1.21,2.11,2.11,0,0,0,.76.75,3,3,0,0,0,1.08.36,5.29,5.29,0,0,0,1.3,0,7.11,7.11,0,0,0,2.26-.56,5.51,5.51,0,0,0,1.44-.94Zm-5-7.68a4,4,0,0,0-1.13.28,3.58,3.58,0,0,0-1,.58,3,3,0,0,0-.7.86,2.62,2.62,0,0,0-.32,1.09l5.65-.6A2,2,0,0,0,576.95,455.16Z"/><path class="cls-4" d="M584.32,461.26l2.85-.31V454.5l-2.85.31v-2.53l5.17-.57,0.34,1.48h0.09a7.21,7.21,0,0,1,1.47-1.43,4,4,0,0,1,1.93-.73,2.33,2.33,0,0,1,2.17.76,5.14,5.14,0,0,1,.79,3.29l-2.69.31a2.16,2.16,0,0,0-.24-1.18,0.75,0.75,0,0,0-.77-0.29,2.53,2.53,0,0,0-1.48.63,5.5,5.5,0,0,0-1,1.17c0,2,0,2.94,0,4.9l5-.57v2.53c-4.33.5-6.49,0.74-10.82,1.22v-2.53Z"/><path class="cls-4" d="M607.64,466a9.67,9.67,0,0,1-3.12-.63,7.71,7.71,0,0,1-2.68-1.73A8.33,8.33,0,0,1,600,460.7a11.33,11.33,0,0,1-.7-4.2,12.71,12.71,0,0,1,.7-4.35,11.66,11.66,0,0,1,1.87-3.38,11.1,11.1,0,0,1,2.68-2.41,12.89,12.89,0,0,1,3.12-1.46l0.55,2.39a10.89,10.89,0,0,0-1.82.88,7.92,7.92,0,0,0-1.94,1.64,9.05,9.05,0,0,0-1.55,2.59,9.94,9.94,0,0,0-.63,3.75,8,8,0,0,0,.67,3.49,6.67,6.67,0,0,0,1.62,2.19,6.06,6.06,0,0,0,2,1.17,7.12,7.12,0,0,0,1.7.4Z"/><path class="cls-4" d="M613.4,457.85l3.51-.44c0-4,0-6,0-10.05l-3,2.7-1.38-1.67,5.23-4.66,2-.26V457l3.44-.44v2.53c-3.92.51-5.87,0.76-9.79,1.25v-2.53Z"/><path class="cls-4" d="M629.73,456.8a1.81,1.81,0,0,1,.52-1.31,2.15,2.15,0,0,1,1.3-.63,2,2,0,0,1,1.9.57,2.89,2.89,0,0,1,.64,2,4.74,4.74,0,0,1-.4,1.94,6,6,0,0,1-1,1.61,6.83,6.83,0,0,1-1.43,1.21,6.65,6.65,0,0,1-1.57.74L629,461.7a7.66,7.66,0,0,0,1.11-.54,5.39,5.39,0,0,0,1-.77,4.33,4.33,0,0,0,.77-1,2.74,2.74,0,0,0,.36-1.15,3,3,0,0,1-1.17.19,1.54,1.54,0,0,1-.79-0.26,1.25,1.25,0,0,1-.45-0.58A2.21,2.21,0,0,1,629.73,456.8Z"/><path class="cls-4" d="M640.91,454.21l3.5-.49V443.67l-3,2.75L640,444.77l5.22-4.73,2-.29v13.57l3.43-.49v2.53c-3.91.56-5.87,0.84-9.78,1.39v-2.53Z"/><path class="cls-4" d="M654.65,452.25l3.5-.52V441.69l-3,2.77-1.37-1.64L659,438l2-.3v13.57l3.43-.52v2.53l-9.77,1.46v-2.53Z"/><path class="cls-4" d="M668.69,455a9.22,9.22,0,0,0,1.69-.87,8.92,8.92,0,0,0,2-1.71,9.73,9.73,0,0,0,1.61-2.63,9.3,9.3,0,0,0,.66-3.67,8.67,8.67,0,0,0-.63-3.58,6.23,6.23,0,0,0-1.54-2.16,5.39,5.39,0,0,0-1.93-1.1,8.46,8.46,0,0,0-1.82-.38l0.55-2.55a10.09,10.09,0,0,1,3.11.6,7.47,7.47,0,0,1,2.67,1.68,8.12,8.12,0,0,1,1.86,2.87,11.17,11.17,0,0,1,.7,4.16,13,13,0,0,1-.7,4.39,11.93,11.93,0,0,1-1.86,3.42,11.41,11.41,0,0,1-2.67,2.46,12.35,12.35,0,0,1-3.11,1.49Z"/><path class="cls-4" d="M60,397.5V395l2.7,0.43c0-2.58,0-3.86,0-6.44L60,388.52V386l2.72,0.43v-0.64a3.87,3.87,0,0,1,.38-1.8,3,3,0,0,1,1-1.13,3.42,3.42,0,0,1,1.43-.53,5.73,5.73,0,0,1,1.68,0,11.55,11.55,0,0,1,2.6.66,7.87,7.87,0,0,1,1.68.91l-0.87,2.14a12.3,12.3,0,0,0-1.13-.63,5.45,5.45,0,0,0-1.57-.45,2,2,0,0,0-1.73.3,2.21,2.21,0,0,0-.49,1.61l4.8,0.74v2.53l-4.8-.74c0,2.58,0,3.86,0,6.44l4.82,0.74v2.53C66.32,398.49,64.22,398.16,60,397.5Z"/><path class="cls-4" d="M74.17,389a11.14,11.14,0,0,1,2.12-.39,11.8,11.8,0,0,1,2.85.12,6.91,6.91,0,0,1,2,.59,4.14,4.14,0,0,1,1.35,1,3.74,3.74,0,0,1,.74,1.37,5.91,5.91,0,0,1,.23,1.69q0,1.17-.08,2c-0.05.54-.08,1-0.08,1.46a10,10,0,0,0,0,1.09c0,0.21.05,0.43,0.07,0.63l1.49,0.22v2.53l-3.84-.56-0.3-1.61-0.11,0a3.19,3.19,0,0,1-1.3,1,4,4,0,0,1-2.27.18A4.47,4.47,0,0,1,74.4,399a3.66,3.66,0,0,1-1-2.59,3.35,3.35,0,0,1,.35-1.61,2.39,2.39,0,0,1,1-1,4.24,4.24,0,0,1,1.61-.42,9.27,9.27,0,0,1,2.1.09q0.41,0.06.86,0.17l1.11,0.26a2.28,2.28,0,0,0,0-.45V393a1.7,1.7,0,0,0-.5-1.33,2.76,2.76,0,0,0-1.48-.6,6.65,6.65,0,0,0-2.09,0,11.83,11.83,0,0,0-1.57.36Zm3.89,9a2.52,2.52,0,0,0,1.63-.16,2.17,2.17,0,0,0,.79-0.75v-1.38l-0.68-.2a8.29,8.29,0,0,0-1-.2,4.63,4.63,0,0,0-.86,0,2.54,2.54,0,0,0-.77.14,1.21,1.21,0,0,0-.54.37,1,1,0,0,0-.2.64,1.51,1.51,0,0,0,.37,1.06A2,2,0,0,0,78.07,398Z"/><path class="cls-4" d="M98.35,402.08a5.67,5.67,0,0,1-2.2.76,9.32,9.32,0,0,1-2.63,0,8.17,8.17,0,0,1-2.65-.81,6.57,6.57,0,0,1-1.95-1.51,6.31,6.31,0,0,1-1.2-2.09,7.69,7.69,0,0,1-.41-2.54,6,6,0,0,1,.48-2.51,4.43,4.43,0,0,1,1.34-1.72,4.87,4.87,0,0,1,2-.9,7.5,7.5,0,0,1,2.54,0,10.13,10.13,0,0,1,2.4.64,13,13,0,0,1,1.72.81c0,1.62,0,2.43,0,4l-2.52-.35v-2.12a6.9,6.9,0,0,0-1.42-.36,4.14,4.14,0,0,0-1.27,0,2.57,2.57,0,0,0-1.92,1.42,3.25,3.25,0,0,0-.31,1.5,3.85,3.85,0,0,0,.25,1.39,3.85,3.85,0,0,0,1.84,2.07,4.48,4.48,0,0,0,1.5.48,5.09,5.09,0,0,0,2.14-.07,7.29,7.29,0,0,0,1.25-.47Z"/><path class="cls-4" d="M102.24,394.75l-2.27-.31v-2.53l2.27,0.31c0-1,0-1.57,0-2.62l3-.45c0,1.39,0,2.08,0,3.47l6,0.8v2.53l-6-.8c0,1.32,0,2,0,3.29a4.39,4.39,0,0,0,.66,2.65,2.66,2.66,0,0,0,1.86,1,3.82,3.82,0,0,0,1.12,0,3.72,3.72,0,0,0,.91-0.26,4.31,4.31,0,0,0,.73-0.41l0.61-.43,1.38,2.25a3.67,3.67,0,0,1-1,.71,7.13,7.13,0,0,1-1.26.5,7.24,7.24,0,0,1-1.41.26,6.56,6.56,0,0,1-1.44,0,5.68,5.68,0,0,1-3.86-2,7.45,7.45,0,0,1-1.29-4.74C102.24,396.72,102.24,396.06,102.24,394.75Z"/><path class="cls-4" d="M114.14,399.55a6.65,6.65,0,0,1,.44-2.52,4.42,4.42,0,0,1,1.24-1.75,4.51,4.51,0,0,1,1.92-.94,7,7,0,0,1,2.49-.08,7.78,7.78,0,0,1,2.58.76,6.34,6.34,0,0,1,1.92,1.47,6.08,6.08,0,0,1,1.18,2.07,7.8,7.8,0,0,1,.4,2.53,6.69,6.69,0,0,1-.44,2.52,4.45,4.45,0,0,1-1.24,1.75,4.5,4.5,0,0,1-1.91.95,7,7,0,0,1-2.49.09,7.74,7.74,0,0,1-2.58-.77,6.36,6.36,0,0,1-1.91-1.48,6.12,6.12,0,0,1-1.18-2.07A7.82,7.82,0,0,1,114.14,399.55Zm3.07,0.4a4.85,4.85,0,0,0,.21,1.43,4,4,0,0,0,.6,1.2,3.25,3.25,0,0,0,.94.87,3.15,3.15,0,0,0,1.26.43,2.61,2.61,0,0,0,2.17-.58,3.34,3.34,0,0,0,.84-2.59,4.42,4.42,0,0,0-.78-2.66,3.09,3.09,0,0,0-2.23-1.26,3.42,3.42,0,0,0-1.19,0,2,2,0,0,0-1,.51,2.62,2.62,0,0,0-.63,1A4.71,4.71,0,0,0,117.21,399.95Z"/><path class="cls-4" d="M128,404.52l2.85,0.35c0-2.58,0-3.86,0-6.44l-2.85-.35v-2.53l5.16,0.63,0.34,1.56h0.09a5.1,5.1,0,0,1,1.47-1.09,3.38,3.38,0,0,1,1.93-.28,3,3,0,0,1,2.17,1.27,6,6,0,0,1,.79,3.47l-2.69-.32a2.49,2.49,0,0,0-.24-1.24,1,1,0,0,0-.77-0.47,2.08,2.08,0,0,0-1.48.28,3.89,3.89,0,0,0-1,.94c0,2,0,2.94,0,4.9l5,0.59v2.53c-4.32-.51-6.49-0.77-10.81-1.3v-2.53Z"/><path class="cls-4" d="M142.22,406.22l4,0.46c0-2.58,0-3.86,0-6.44l-4-.46v-2.53l7,0.8c0,3.59,0,5.38,0,9l4.25,0.47c0,1,0,1.52,0,2.53-4.51-.5-6.77-0.75-11.27-1.27C142.22,407.74,142.22,407.23,142.22,406.22Zm3.49-11.7a1.44,1.44,0,0,1,.53-1.16,1.86,1.86,0,0,1,1.47-.34,2.5,2.5,0,0,1,1.54.68,1.77,1.77,0,0,1,.57,1.28,1.32,1.32,0,0,1-.57,1.14,2.17,2.17,0,0,1-1.54.3,2.37,2.37,0,0,1-1.47-.64A1.73,1.73,0,0,1,145.71,394.52Z"/><path class="cls-4" d="M156.71,399.65a11.49,11.49,0,0,1,2.13-.48,11.87,11.87,0,0,1,2.86,0,6.73,6.73,0,0,1,2,.5,3.91,3.91,0,0,1,1.36,1,3.55,3.55,0,0,1,.75,1.34,5.8,5.8,0,0,1,.23,1.68q0,1.17-.08,2c-0.05.54-.08,1-0.08,1.46a10,10,0,0,0,0,1.09c0,0.21.05,0.43,0.07,0.63l1.49,0.15v2.53l-3.86-.4-0.3-1.6h-0.11a3.4,3.4,0,0,1-1.3,1.09,4.1,4.1,0,0,1-2.28.28,4.29,4.29,0,0,1-2.72-1.21,3.5,3.5,0,0,1-1-2.55,3.43,3.43,0,0,1,.35-1.63,2.54,2.54,0,0,1,1-1,4.41,4.41,0,0,1,1.62-.49,9.33,9.33,0,0,1,2.11,0q0.41,0,.87.14L163,404.3a2.3,2.3,0,0,0,0-.46v-0.44a1.63,1.63,0,0,0-.5-1.31,2.66,2.66,0,0,0-1.48-.54,6.7,6.7,0,0,0-2.1.08,12.2,12.2,0,0,0-1.57.43Zm3.91,8.86a2.58,2.58,0,0,0,1.64-.23,2.32,2.32,0,0,0,.8-0.78v-1.38l-0.68-.18a8.25,8.25,0,0,0-1-.16,4.68,4.68,0,0,0-.86,0,2.64,2.64,0,0,0-.77.17,1.29,1.29,0,0,0-.55.39,1,1,0,0,0-.2.65,1.45,1.45,0,0,0,.37,1A1.94,1.94,0,0,0,160.62,408.51Z"/><path class="cls-4" d="M170.43,395.7l4.9,0.49c0,4.25,0,6.38,0,10.63a5.19,5.19,0,0,0,.44,2.5,1.72,1.72,0,0,0,1.4.83,3.78,3.78,0,0,0,1.17,0,4,4,0,0,0,.92-0.34l1.13,2.18q-0.39.22-.78,0.4a4.58,4.58,0,0,1-.83.29,5.31,5.31,0,0,1-1,.14,7.53,7.53,0,0,1-1.16,0,4.78,4.78,0,0,1-3.24-1.42,4.68,4.68,0,0,1-1.08-3.24c0-3.86,0-5.8,0-9.66l-1.91-.19C170.43,397.22,170.43,396.71,170.43,395.7Z"/><path class="cls-4" d="M184,415.82c4.08,0.38,6.13.57,10.21,0.93v2.46c-4.09-.36-6.13-0.55-10.21-0.93v-2.46Z"/><path class="cls-4" d="M196,398.12l4.65,0.4c0,2.35,0,3.53,0,5.89h0.09a3.45,3.45,0,0,1,1.47-1,4.82,4.82,0,0,1,2.16-.26,5.64,5.64,0,0,1,1.61.36,3.4,3.4,0,0,1,1.27.86,4,4,0,0,1,.83,1.51,7.5,7.5,0,0,1,.3,2.27c0,2.86,0,4.29,0,7.15l-3-.25c0-2.61,0-3.92,0-6.53a3,3,0,0,0-.6-2.07,2.27,2.27,0,0,0-1.57-.75,2.44,2.44,0,0,0-1.56.39,2.5,2.5,0,0,0-1,1.24c0,2.93,0,4.4,0,7.34l-3-.26c0-5.43,0-8.14,0-13.57l-1.66-.15v-2.53Z"/><path class="cls-4" d="M222.12,415.12a3.73,3.73,0,0,1-.77.48,6.93,6.93,0,0,1-1.11.41,8.15,8.15,0,0,1-1.39.26,8.83,8.83,0,0,1-1.61,0,8.16,8.16,0,0,1-2.64-.62,5.77,5.77,0,0,1-3.2-3.37,7.37,7.37,0,0,1-.43-2.58,6.47,6.47,0,0,1,.48-2.62,4.76,4.76,0,0,1,1.32-1.79,5,5,0,0,1,2-1,7.42,7.42,0,0,1,2.44-.19,7.84,7.84,0,0,1,1.81.37,5.4,5.4,0,0,1,1.72.92A4.75,4.75,0,0,1,222,407a5.36,5.36,0,0,1,.49,2.43,10.68,10.68,0,0,1-.23,2.12L214,411a2.81,2.81,0,0,0,.31,1.27,2.75,2.75,0,0,0,.76.89,3.6,3.6,0,0,0,1.08.56,5.58,5.58,0,0,0,1.3.25,6.56,6.56,0,0,0,2.27-.15,4.38,4.38,0,0,0,1.44-.67Zm-5-8.59a3.7,3.7,0,0,0-1.13.08,2.88,2.88,0,0,0-1,.41,2.35,2.35,0,0,0-.7.73,2.27,2.27,0,0,0-.32,1l5.66,0.44A2.48,2.48,0,0,0,217.14,406.53Z"/><path class="cls-4" d="M225.64,400.49l4.9,0.35c0,4.25,0,6.38,0,10.63A5.11,5.11,0,0,0,231,414a1.66,1.66,0,0,0,1.41.79,3.8,3.8,0,0,0,1.17-.07,4.14,4.14,0,0,0,.92-0.36l1.13,2.15q-0.39.23-.78,0.42a4.73,4.73,0,0,1-.83.31,5.43,5.43,0,0,1-1,.16,7.56,7.56,0,0,1-1.16,0,4.66,4.66,0,0,1-3.25-1.33,4.56,4.56,0,0,1-1.08-3.21c0-3.86,0-5.8,0-9.66l-1.91-.14C225.64,402,225.64,401.51,225.64,400.49Z"/><path class="cls-4" d="M237.45,405.92l3.92,0.26,0.35,1.4h0.09a4.14,4.14,0,0,1,3.87-1.46,5.69,5.69,0,0,1,1.95.45,4.14,4.14,0,0,1,1.52,1.14,5.31,5.31,0,0,1,1,1.85,8.81,8.81,0,0,1,.35,2.62,8.21,8.21,0,0,1-.39,2.63,5.21,5.21,0,0,1-1.13,1.94,4.45,4.45,0,0,1-1.8,1.15,6.11,6.11,0,0,1-2.42.29,9.69,9.69,0,0,1-1.4-.19,4.09,4.09,0,0,1-1.15-.41c0,1.89,0,2.83,0,4.71l-3-.19c0-5.43,0-8.14,0-13.57l-1.73-.11v-2.53Zm7.33,2.68a2.92,2.92,0,0,0-1.6.34,2.08,2.08,0,0,0-1,1.25c0,1.91,0,2.87,0,4.78a2.64,2.64,0,0,0,.93.46,5.31,5.31,0,0,0,1.23.23,3.13,3.13,0,0,0,1.2-.14,2.25,2.25,0,0,0,1-.64,3.15,3.15,0,0,0,.64-1.18,5.83,5.83,0,0,0,.23-1.76,3.59,3.59,0,0,0-.74-2.39A2.56,2.56,0,0,0,244.78,408.6Z"/><path class="cls-4" d="M263.58,417.77a3.8,3.8,0,0,1-.77.5,7,7,0,0,1-1.11.44,8.21,8.21,0,0,1-1.39.29,8.82,8.82,0,0,1-1.61,0,8.06,8.06,0,0,1-2.64-.56,5.6,5.6,0,0,1-3.2-3.3,7.29,7.29,0,0,1-.43-2.57,6.54,6.54,0,0,1,.48-2.63,4.9,4.9,0,0,1,1.32-1.82,5.17,5.17,0,0,1,2-1,7.49,7.49,0,0,1,2.44-.24,7.74,7.74,0,0,1,1.81.33,5.29,5.29,0,0,1,1.72.89,4.61,4.61,0,0,1,1.28,1.58,5.28,5.28,0,0,1,.5,2.42,10.75,10.75,0,0,1-.23,2.13l-8.3-.46a2.77,2.77,0,0,0,.31,1.26,2.67,2.67,0,0,0,.76.87,3.49,3.49,0,0,0,1.08.53,5.54,5.54,0,0,0,1.3.22,6.6,6.6,0,0,0,2.27-.2,4.49,4.49,0,0,0,1.44-.7Zm-5-8.48a3.72,3.72,0,0,0-1.13.1,3,3,0,0,0-1,.43,2.4,2.4,0,0,0-.7.74,2.3,2.3,0,0,0-.32,1l5.67,0.32A2.42,2.42,0,0,0,258.6,409.28Z"/><path class="cls-4" d="M266,416.58l2.86,0.15c0-2.58,0-3.86,0-6.44l-2.86-.15c0-1,0-1.52,0-2.53l5.19,0.26,0.35,1.53h0.09a5.68,5.68,0,0,1,1.48-1.19,3.54,3.54,0,0,1,1.94-.41,2.76,2.76,0,0,1,2.18,1.11,5.74,5.74,0,0,1,.79,3.42l-2.7-.13a2.38,2.38,0,0,0-.24-1.22,0.89,0.89,0,0,0-.77-0.42,2.2,2.2,0,0,0-1.49.39,4.32,4.32,0,0,0-1,1v4.9l5,0.24c0,1,0,1.52,0,2.53-4.34-.2-6.51-0.31-10.86-0.54C266,418.1,266,417.59,266,416.58Z"/><path class="cls-4" d="M289.42,425.07a11.06,11.06,0,0,1-3.14-1.14,9.72,9.72,0,0,1-2.7-2.16,10.31,10.31,0,0,1-1.88-3.21,12.21,12.21,0,0,1-.7-4.31,11.71,11.71,0,0,1,.7-4.24,9.43,9.43,0,0,1,1.88-3.08,8.8,8.8,0,0,1,2.7-2,11.08,11.08,0,0,1,3.14-1l0.55,2.48a9.29,9.29,0,0,0-1.83.58,6.32,6.32,0,0,0-1.95,1.32,7.29,7.29,0,0,0-1.56,2.34,9.12,9.12,0,0,0-.63,3.65,8.69,8.69,0,0,0,.67,3.59,8.35,8.35,0,0,0,1.63,2.45,7.6,7.6,0,0,0,2,1.48,8.23,8.23,0,0,0,1.71.68Z"/><path class="cls-4" d="M295.21,417.89l3.53,0.13c0-4,0-6,0-10.05l-3,2.21-1.38-1.89,5.26-3.81,2,0.07c0,5.43,0,8.14,0,13.57l3.46,0.11c0,1,0,1.52,0,2.53-3.94-.13-5.91-0.2-9.85-0.34v-2.53Z"/><path class="cls-4" d="M311.63,419.49a1.53,1.53,0,0,1,.52-1.23,1.85,1.85,0,0,1,1.3-.42,2.35,2.35,0,0,1,1.91.88,3.3,3.3,0,0,1,.65,2.06,4.27,4.27,0,0,1-.4,1.88,4.78,4.78,0,0,1-1,1.44,5.44,5.44,0,0,1-1.44,1,5.71,5.71,0,0,1-1.58.48l-0.62-1.28a6.54,6.54,0,0,0,1.12-.36,4.37,4.37,0,0,0,1-.6,3.42,3.42,0,0,0,.77-0.86,2.38,2.38,0,0,0,.36-1.09,2.94,2.94,0,0,1-1.18,0,1.84,1.84,0,0,1-.8-0.39,1.56,1.56,0,0,1-.45-0.66A2.38,2.38,0,0,1,311.63,419.49Z"/><path class="cls-4" d="M322.88,418.72l3.53,0.08c0-4,0-6,0-10.05l-3,2.26L322,409.13l5.26-3.88,2,0c0,5.43,0,8.14,0,13.57l3.46,0.07v2.53l-9.85-.2v-2.53Z"/><path class="cls-4" d="M336.72,419l3.53,0.05c0-4,0-6,0-10.05l-3,2.28-1.38-1.86,5.26-3.92,2,0v13.57l3.46,0v2.53c-3.94,0-5.91-.07-9.85-0.13C336.72,420.51,336.72,420,336.72,419Z"/><path class="cls-4" d="M350.89,424.07a7.85,7.85,0,0,0,1.71-.59,7.12,7.12,0,0,0,2-1.39,7.81,7.81,0,0,0,1.63-2.37,8.45,8.45,0,0,0,.67-3.56,9.36,9.36,0,0,0-.63-3.68,7.78,7.78,0,0,0-1.56-2.41,6.79,6.79,0,0,0-1.95-1.42,9.75,9.75,0,0,0-1.83-.67l0.55-2.46a11.59,11.59,0,0,1,3.14,1.11,9.46,9.46,0,0,1,2.7,2.11,10.06,10.06,0,0,1,1.88,3.17,13.33,13.33,0,0,1,0,8.54,9.67,9.67,0,0,1-1.88,3.12,9.07,9.07,0,0,1-2.7,2,10.61,10.61,0,0,1-3.14,1Z"/><path class="cls-4" d="M515,413.81l2.85-.21c0-2.58,0-3.86,0-6.44l-2.85.21c0-1,0-1.52,0-2.53l5.18-.39,0.35,1.49h0.09a6.84,6.84,0,0,1,1.47-1.38,3.88,3.88,0,0,1,1.93-.66,2.42,2.42,0,0,1,2.18.84,5.26,5.26,0,0,1,.79,3.32l-2.69.21a2.2,2.2,0,0,0-.24-1.19,0.78,0.78,0,0,0-.77-0.32,2.45,2.45,0,0,0-1.48.58,5.21,5.21,0,0,0-1,1.13v4.9l5-.39c0,1,0,1.52,0,2.53-4.34.35-6.5,0.51-10.84,0.84C515,415.33,515,414.83,515,413.81Z"/><path class="cls-4" d="M540.23,413.09a4.6,4.6,0,0,1-.77.61,8.22,8.22,0,0,1-1.1.59,9.13,9.13,0,0,1-1.39.49,9.23,9.23,0,0,1-1.61.28,7.57,7.57,0,0,1-2.63-.19,4.6,4.6,0,0,1-3.2-2.85,6.81,6.81,0,0,1-.43-2.51,7,7,0,0,1,.48-2.7,6,6,0,0,1,1.32-2,6.19,6.19,0,0,1,2-1.3,8,8,0,0,1,2.44-.58,7.37,7.37,0,0,1,1.81.08,4.52,4.52,0,0,1,1.71.65,3.75,3.75,0,0,1,1.28,1.4,4.85,4.85,0,0,1,.5,2.35,11.25,11.25,0,0,1-.23,2.16l-8.28.71a2.51,2.51,0,0,0,.31,1.22,2.17,2.17,0,0,0,.76.76,3,3,0,0,0,1.08.38,5.29,5.29,0,0,0,1.3,0,7,7,0,0,0,2.27-.52,5.36,5.36,0,0,0,1.44-.91Zm-5-7.78a4,4,0,0,0-1.13.26,3.49,3.49,0,0,0-1,.56,3,3,0,0,0-.7.84,2.58,2.58,0,0,0-.32,1.08l5.66-.48A2.07,2.07,0,0,0,535.26,405.31Z"/><path class="cls-4" d="M554.31,411.92a7.38,7.38,0,0,1-2.21,1.28,10.14,10.14,0,0,1-2.64.6,7.25,7.25,0,0,1-2.66-.19,4.8,4.8,0,0,1-2-1.05,4.62,4.62,0,0,1-1.21-1.81,7.39,7.39,0,0,1,.07-5.07,6.15,6.15,0,0,1,1.35-2,6.55,6.55,0,0,1,2-1.37,8.28,8.28,0,0,1,2.55-.64,9.24,9.24,0,0,1,2.41.07,10.47,10.47,0,0,1,1.73.41c0,1.62,0,2.43,0,4l-2.53.24c0-.85,0-1.27,0-2.11a6.33,6.33,0,0,0-1.43,0,4.54,4.54,0,0,0-1.28.31,3.51,3.51,0,0,0-1.13.72A3.6,3.6,0,0,0,546.3,408a3.39,3.39,0,0,0,.25,1.33,2.78,2.78,0,0,0,1.85,1.64,4,4,0,0,0,1.51.13,5.68,5.68,0,0,0,2.15-.57,9.78,9.78,0,0,0,1.25-.76Z"/><path class="cls-4" d="M563.13,400.67l4.28-.43c0,3.2,0,4.8,0,8v1l1.75-.18v2.53l-3.63.37L565,410.29H564.9a4.7,4.7,0,0,1-1.59,1.61,5.22,5.22,0,0,1-2.35.81,5.1,5.1,0,0,1-1.6-.07,2.55,2.55,0,0,1-1.23-.64,3.12,3.12,0,0,1-.78-1.35,7.5,7.5,0,0,1-.28-2.23v-4.62l-1.31.13c0-1,0-1.52,0-2.53l4.3-.41c0,2.61,0,3.92,0,6.53a3.31,3.31,0,0,0,.45,2,1.48,1.48,0,0,0,1.41.48,2.74,2.74,0,0,0,1.53-.66,3.12,3.12,0,0,0,1-1.34v-4.9l-1.29.13C563.13,402.19,563.13,401.69,563.13,400.67Z"/><path class="cls-4" d="M570.24,408.93l2.85-.29c0-2.58,0-3.86,0-6.44l-2.85.29c0-1,0-1.52,0-2.53l5.17-.54,0.34,1.48h0.09a7.12,7.12,0,0,1,1.47-1.42,4,4,0,0,1,1.93-.71,2.35,2.35,0,0,1,2.17.78,5.17,5.17,0,0,1,.79,3.29l-2.69.29a2.17,2.17,0,0,0-.24-1.18,0.76,0.76,0,0,0-.77-0.3,2.51,2.51,0,0,0-1.48.62,5.43,5.43,0,0,0-1,1.16v4.9l5-.53c0,1,0,1.52,0,2.53-4.33.47-6.49,0.7-10.82,1.14C570.24,410.45,570.24,409.94,570.24,408.93Z"/><path class="cls-4" d="M593.57,413.8a9.74,9.74,0,0,1-3.12-.66,7.79,7.79,0,0,1-2.69-1.74,8.41,8.41,0,0,1-1.87-2.92,11.36,11.36,0,0,1-.7-4.2,12.66,12.66,0,0,1,.7-4.34,11.54,11.54,0,0,1,1.87-3.37,11,11,0,0,1,2.69-2.4,12.8,12.8,0,0,1,3.12-1.44l0.55,2.4a10.81,10.81,0,0,0-1.82.87,7.85,7.85,0,0,0-1.94,1.62,9,9,0,0,0-1.55,2.58,9.9,9.9,0,0,0-.63,3.75,8,8,0,0,0,.67,3.49,6.73,6.73,0,0,0,1.62,2.2,6.12,6.12,0,0,0,2,1.18,7.14,7.14,0,0,0,1.7.42Z"/><path class="cls-4" d="M599.33,405.72l3.51-.42c0-4,0-6,0-10.05l-3,2.68-1.38-1.68,5.23-4.62,2-.24c0,5.43,0,8.14,0,13.57l3.44-.42c0,1,0,1.52,0,2.53-3.92.48-5.88,0.72-9.8,1.18v-2.53Z"/><path class="cls-4" d="M613.1,404.05l3.51-.44c0-4,0-6,0-10.05l-3,2.7-1.38-1.67,5.23-4.66,2-.26c0,5.43,0,8.14,0,13.57l3.44-.44c0,1,0,1.52,0,2.53l-9.79,1.25C613.1,405.57,613.1,405.06,613.1,404.05Z"/><path class="cls-4" d="M629.43,403a1.81,1.81,0,0,1,.52-1.31,2.15,2.15,0,0,1,1.3-.63,2,2,0,0,1,1.9.57,2.89,2.89,0,0,1,.64,2,4.74,4.74,0,0,1-.4,1.94,6,6,0,0,1-1,1.61,6.83,6.83,0,0,1-1.43,1.21,6.67,6.67,0,0,1-1.57.74l-0.62-1.18a7.61,7.61,0,0,0,1.11-.54,5.39,5.39,0,0,0,1-.77,4.33,4.33,0,0,0,.77-1,2.74,2.74,0,0,0,.36-1.15,3,3,0,0,1-1.17.19,1.54,1.54,0,0,1-.79-0.26,1.25,1.25,0,0,1-.45-0.58A2.21,2.21,0,0,1,629.43,403Z"/><path class="cls-4" d="M640.61,400.42l3.5-.49c0-4,0-6,0-10.05l-3,2.75L639.71,391l5.22-4.73,2-.29c0,5.43,0,8.14,0,13.57l3.43-.49v2.53c-3.91.56-5.87,0.84-9.78,1.39v-2.53Z"/><path class="cls-4" d="M652.79,393.14a14.54,14.54,0,0,1,.44-3.73,8.93,8.93,0,0,1,1.23-2.79,6.33,6.33,0,0,1,1.9-1.83,6.43,6.43,0,0,1,2.46-.88,4.6,4.6,0,0,1,4.46,1.37q1.56,1.8,1.56,6.08a14.65,14.65,0,0,1-.44,3.76,9.13,9.13,0,0,1-1.23,2.81,6.26,6.26,0,0,1-1.91,1.85,6.49,6.49,0,0,1-2.47.89,4.45,4.45,0,0,1-4.46-1.49Q652.79,397.24,652.79,393.14Zm3-.44c0,0.23,0,.45,0,0.65s0,0.42,0,.63l5.54-6a2.16,2.16,0,0,0-2.56-1.59,3,3,0,0,0-2.24,1.75A10.22,10.22,0,0,0,655.76,392.71Zm6.09-.9q0-.37,0-0.7t0-.65l-5.56,6a2.2,2.2,0,0,0,2.57,1.71,3,3,0,0,0,2.25-1.74A10.25,10.25,0,0,0,661.85,391.8Z"/><path class="cls-4" d="M668.39,401.25a9.22,9.22,0,0,0,1.69-.87,8.93,8.93,0,0,0,2-1.71,9.73,9.73,0,0,0,1.61-2.63,9.3,9.3,0,0,0,.66-3.67,8.67,8.67,0,0,0-.63-3.58,6.23,6.23,0,0,0-1.54-2.16,5.41,5.41,0,0,0-1.93-1.1,8.45,8.45,0,0,0-1.82-.38l0.55-2.55a10.08,10.08,0,0,1,3.11.6,7.47,7.47,0,0,1,2.67,1.68,8.13,8.13,0,0,1,1.86,2.87,11.17,11.17,0,0,1,.7,4.16,13,13,0,0,1-.7,4.39,11.93,11.93,0,0,1-1.86,3.42,11.43,11.43,0,0,1-2.67,2.47,12.37,12.37,0,0,1-3.11,1.49Z"/></svg>