<svg id="Layer_1" data-name="Layer 1" xmlns="http://www.w3.org/2000/svg" viewBox="0 0 720 576"><defs><style>.cls-1,.cls-2,.cls-4,.cls-6{fill:#231f20;}.cls-1,.cls-3{stroke:#231f20;}.cls-1,.cls-6{stroke-miterlimit:10;}.cls-1,.cls-2,.cls-3{stroke-width:2px;}.cls-2{stroke:#000;}.cls-2,.cls-3{stroke-linecap:round;stroke-linejoin:round;}.cls-3,.cls-5{fill:#fff;}.cls-6{stroke:#fff;}</style></defs><title>Hanoi_Tower_Set_1</title><path class="cls-1" d="M655.67,506.49c0-.14,0-0.29,0-0.43s0-.29,0-0.43V453.84H63.84s-0.23,51.74-.23,52.22c0,2.67,2.12,5.24,6.08,7.71,13.87,8.61,50.58,16.11,101.74,21.48s116.73,8.59,188.22,8.59c81.71,0,155.68-4.21,209.24-11,26.78-3.41,48.45-7.46,63.44-12,7.5-2.25,13.32-4.62,17.29-7.08,3.38-2.1,5.41-4.29,5.94-6.55h0.1v-0.73Z"/><ellipse class="cls-2" cx="359.66" cy="454.92" rx="295.87" ry="37.63"/><path class="cls-3" d="M655.67,455c0-.14,0-0.29,0-0.43s0-.29,0-0.43V402.36H63.84s-0.23,51.74-.23,52.22c0,2.67,2.12,5.24,6.08,7.71,13.87,8.61,50.58,16.11,101.74,21.48s116.73,8.59,188.22,8.59c81.71,0,155.68-4.21,209.24-11,26.78-3.41,48.45-7.46,63.44-12,7.5-2.25,13.32-4.62,17.29-7.08,3.38-2.1,5.41-4.29,5.94-6.55h0.1V455Z"/><ellipse class="cls-3" cx="359.66" cy="403.44" rx="295.87" ry="37.63"/><path class="cls-4" d="M359.65,412.22c-16,0-29-3.75-30.2-8.61h-0.08l0-.5V8.27H390V403.6h-0.12C388.63,408.47,375.63,412.22,359.65,412.22Z"/><path class="cls-5" d="M389.48,8.77V403.1h0c-0.49,4.78-13.63,8.61-29.79,8.61s-29.3-3.83-29.79-8.61h0v-0.21s0,0,0-.06,0,0,0-.06V8.77h59.63m1-1H328.85v395s0,0.07,0,.11v1.27h0.23c2,5.6,16.84,8.61,30.58,8.61s28.6-3,30.58-8.61h0.21l0-1V7.77h0Z"/><ellipse class="cls-6" cx="359.65" cy="8.89" rx="29.81" ry="8.89"/><path class="cls-4" d="M78.34,451.82v-2.53l2.7,0.38v-6.44l-2.72-.39v-2.53L81,440.71v-0.64a3.91,3.91,0,0,1,.38-1.81,3,3,0,0,1,1-1.15,3.5,3.5,0,0,1,1.43-.55,5.71,5.71,0,0,1,1.68,0,11.4,11.4,0,0,1,2.6.62,7.7,7.7,0,0,1,1.68.89l-0.87,2.16a11.81,11.81,0,0,0-1.13-.62,5.4,5.4,0,0,0-1.57-.42,2,2,0,0,0-1.73.32,2.24,2.24,0,0,0-.49,1.62l4.81,0.66v2.53L84,443.66v6.44l4.83,0.67v2.53C84.64,452.72,82.54,452.42,78.34,451.82Z"/><path class="cls-4" d="M98,443l4.26,0.56c0,3.2,0,4.8,0,8v1l1.74,0.23v2.53l-3.62-.47-0.53-1.77H99.77a3.35,3.35,0,0,1-1.58,1.24,4.48,4.48,0,0,1-2.34.26,5.65,5.65,0,0,1-1.59-.44,3.45,3.45,0,0,1-1.23-.92,4.18,4.18,0,0,1-.78-1.53,8.22,8.22,0,0,1-.27-2.29v-4.62l-1.31-.18V442L95,442.62c0,2.61,0,3.92,0,6.53a3.86,3.86,0,0,0,.45,2.08,1.88,1.88,0,0,0,1.41.81,2.25,2.25,0,0,0,1.52-.3,2.27,2.27,0,0,0,1-1.12v-4.9L98,445.55V443Z"/><path class="cls-4" d="M106.19,439.49l4.88,0.62c0,4.25,0,6.38,0,10.63a5.29,5.29,0,0,0,.44,2.52,1.77,1.77,0,0,0,1.4.86,3.74,3.74,0,0,0,1.17,0,3.88,3.88,0,0,0,.92-0.31l1.12,2.21q-0.39.21-.78,0.38a4.45,4.45,0,0,1-.83.27,5.22,5.22,0,0,1-1,.11,7.54,7.54,0,0,1-1.16-.06,4.9,4.9,0,0,1-3.23-1.51,4.8,4.8,0,0,1-1.08-3.27c0-3.86,0-5.8,0-9.66l-1.9-.24v-2.53Z"/><path class="cls-4" d="M119.94,441.2l4.88,0.58c0,4.25,0,6.38,0,10.63a5.27,5.27,0,0,0,.44,2.51,1.76,1.76,0,0,0,1.4.85,3.74,3.74,0,0,0,1.17,0,3.9,3.9,0,0,0,.92-0.32l1.12,2.2q-0.39.21-.78,0.38a4.47,4.47,0,0,1-.83.27,5.25,5.25,0,0,1-1,.12,7.51,7.51,0,0,1-1.16-.06,4.86,4.86,0,0,1-3.23-1.49,4.77,4.77,0,0,1-1.08-3.26c0-3.86,0-5.8,0-9.66l-1.9-.23V441.2Z"/><path class="cls-4" d="M133.5,461.58c4.08,0.46,6.11.69,10.19,1.14,0,1,0,1.48,0,2.46-4.08-.44-6.11-0.67-10.19-1.14C133.5,463.06,133.5,462.57,133.5,461.58Z"/><path class="cls-4" d="M145.75,448.75l4,0.43,0.34,1.55h0.09a3.92,3.92,0,0,1,1.52-1.13,4.54,4.54,0,0,1,2.37-.31,5.74,5.74,0,0,1,1.6.4,3.48,3.48,0,0,1,1.27.89,4.18,4.18,0,0,1,.84,1.52,7.31,7.31,0,0,1,.31,2.27c0,2.86,0,4.29,0,7.15l-3-.31v-6.53a3,3,0,0,0-.63-2.09,2.56,2.56,0,0,0-3.15-.45,2.13,2.13,0,0,0-1,1.13c0,3,0,4.47,0,7.45l-3-.32c0-3.59,0-5.38,0-9l-1.65-.18v-2.53Z"/><path class="cls-4" d="M161.32,451.15a11.54,11.54,0,0,1,2.13-.5,11.87,11.87,0,0,1,2.86,0,6.69,6.69,0,0,1,2,.49,3.87,3.87,0,0,1,1.36.95,3.51,3.51,0,0,1,.75,1.33,5.77,5.77,0,0,1,.23,1.68q0,1.17-.08,2c-0.05.54-.08,1-0.08,1.46a10,10,0,0,0,0,1.09c0,0.21.05,0.43,0.07,0.63l1.49,0.14v2.53l-3.86-.37L168,461h-0.11a3.43,3.43,0,0,1-1.3,1.1,4.13,4.13,0,0,1-2.28.29,4.25,4.25,0,0,1-2.72-1.19,3.8,3.8,0,0,1-.65-4.17,2.57,2.57,0,0,1,1-1,4.44,4.44,0,0,1,1.62-.51,9.32,9.32,0,0,1,2.11,0q0.41,0,.87.13l1.12,0.2a2.31,2.31,0,0,0,0-.46v-0.44a1.62,1.62,0,0,0-.5-1.3,2.65,2.65,0,0,0-1.48-.52,6.71,6.71,0,0,0-2.1.09,12.29,12.29,0,0,0-1.57.44Zm3.91,8.83a2.58,2.58,0,0,0,1.64-.24,2.34,2.34,0,0,0,.8-0.78v-1.38L167,457.4a8.17,8.17,0,0,0-1-.15,4.67,4.67,0,0,0-.86,0,2.69,2.69,0,0,0-.77.18,1.32,1.32,0,0,0-.55.39,1,1,0,0,0-.2.65,1.44,1.44,0,0,0,.37,1A1.92,1.92,0,0,0,165.23,460Z"/><path class="cls-4" d="M178.58,463.51v-7a5.64,5.64,0,0,0-.09-1.12,2.35,2.35,0,0,0-.24-0.69,0.85,0.85,0,0,0-.37-0.36,1.36,1.36,0,0,0-.45-0.12,1.13,1.13,0,0,0-1.17.79c0,3.33,0,5,0,8.33L173.5,463c0-4.6,0-6.9,0-11.5l2.18,0.2L176,453h0.07a2.46,2.46,0,0,1,1-1,2.68,2.68,0,0,1,1.56-.28,3.27,3.27,0,0,1,1.45.5,2.21,2.21,0,0,1,.94,1.37,2.26,2.26,0,0,1,1.06-1.14,2.79,2.79,0,0,1,1.54-.29,3.54,3.54,0,0,1,1.11.27,2.23,2.23,0,0,1,.86.69,3.32,3.32,0,0,1,.56,1.23,8,8,0,0,1,.2,1.94c0,3.15,0,4.72,0,7.86l-2.76-.24c0-2.94,0-4.42,0-7.36a2.51,2.51,0,0,0-.33-1.48,1.13,1.13,0,0,0-.82-0.49,1.21,1.21,0,0,0-.71.13,0.91,0.91,0,0,0-.41.6c0,3.36,0,5,0,8.39Z"/><path class="cls-4" d="M199.12,464.06a3.68,3.68,0,0,1-.77.48,7,7,0,0,1-1.1.4,8.18,8.18,0,0,1-1.39.25,8.79,8.79,0,0,1-1.61,0,8.17,8.17,0,0,1-2.63-.63,5.81,5.81,0,0,1-3.2-3.39,7.4,7.4,0,0,1-.43-2.58,6.46,6.46,0,0,1,.48-2.61,4.72,4.72,0,0,1,1.32-1.78,5,5,0,0,1,2-1,7.41,7.41,0,0,1,2.44-.18,7.87,7.87,0,0,1,1.81.38,5.44,5.44,0,0,1,1.71.93A4.8,4.8,0,0,1,199,456a5.38,5.38,0,0,1,.49,2.43,10.69,10.69,0,0,1-.23,2.12l-8.28-.68a2.83,2.83,0,0,0,.31,1.27,2.78,2.78,0,0,0,.76.89,3.64,3.64,0,0,0,1.08.56,5.64,5.64,0,0,0,1.3.26,6.54,6.54,0,0,0,2.27-.13,4.35,4.35,0,0,0,1.44-.67Zm-5-8.62a3.69,3.69,0,0,0-1.13.07,2.86,2.86,0,0,0-1,.4,2.32,2.32,0,0,0-.7.73,2.26,2.26,0,0,0-.32,1l5.66,0.47A2.5,2.5,0,0,0,194.15,455.44Z"/><path class="cls-4" d="M273.32,453.77l2.63,0.11-0.83,7.23-1.8-.08C273.32,458.14,273.32,456.68,273.32,453.77Zm5,0.21,2.63,0.11-0.83,7.24-1.8-.07C278.3,458.34,278.3,456.89,278.3,454Z"/><path class="cls-4" d="M288.39,460.95h-0.12l0.14,1.91c0,3,0,4.57,0,7.61l-3-.11c0-6.44,0-9.66,0-16.1l2.77,0.1,5.58,10h0.11l-0.21-1.94c0-3.16,0-4.75,0-7.91l3,0.1c0,6.44,0,9.66,0,16.1l-2.77-.09Z"/><path class="cls-4" d="M300,460.13a12.18,12.18,0,0,1,2.13-.65,12.06,12.06,0,0,1,2.87-.22,6.46,6.46,0,0,1,2,.34,3.53,3.53,0,0,1,1.36.85,3.21,3.21,0,0,1,.75,1.28,5.6,5.6,0,0,1,.23,1.66c0,0.78,0,1.45-.08,2s-0.08,1-.08,1.47a9.93,9.93,0,0,0,0,1.08c0,0.21.05,0.42,0.07,0.62l1.5,0c0,1,0,1.52,0,2.53L307,471l-0.3-1.57h-0.11a3.81,3.81,0,0,1-1.31,1.2,4.3,4.3,0,0,1-2.29.45,4,4,0,0,1-2.73-1,3.24,3.24,0,0,1-1-2.47,3.59,3.59,0,0,1,.35-1.66,2.84,2.84,0,0,1,1-1.12,4.76,4.76,0,0,1,1.63-.62,9.47,9.47,0,0,1,2.12-.16,8.69,8.69,0,0,1,.87.07l1.12,0.12a2.36,2.36,0,0,0,0-.46V463.4a1.51,1.51,0,0,0-.5-1.27,2.5,2.5,0,0,0-1.49-.42,6.87,6.87,0,0,0-2.11.24,13.12,13.12,0,0,0-1.58.55Zm3.92,8.55a2.7,2.7,0,0,0,1.64-.36,2.6,2.6,0,0,0,.8-0.84v-1.38l-0.68-.12a8,8,0,0,0-1-.08,4.71,4.71,0,0,0-.87.06,2.86,2.86,0,0,0-.78.23,1.46,1.46,0,0,0-.55.43,1.06,1.06,0,0,0-.2.66,1.35,1.35,0,0,0,.38,1A1.81,1.81,0,0,0,304,468.69Z"/><path class="cls-4" d="M314.46,462.26l-2.28-.05c0-1,0-1.52,0-2.53l2.28,0.05v-2.62l3-.79c0,1.39,0,2.08,0,3.47l6,0.12c0,1,0,1.52,0,2.53l-6-.12v3.29a4,4,0,0,0,.67,2.58A2.36,2.36,0,0,0,320,469a4,4,0,0,0,1.13-.13,4.18,4.18,0,0,0,.91-0.36,5.14,5.14,0,0,0,.74-0.49l0.61-.49,1.38,2.09a4.31,4.31,0,0,1-1,.82,8.09,8.09,0,0,1-1.27.64,7.9,7.9,0,0,1-1.42.42,6.74,6.74,0,0,1-1.45.13,5.07,5.07,0,0,1-3.88-1.52,6.79,6.79,0,0,1-1.3-4.59v-3.29Z"/><path class="cls-4" d="M325.62,455.35l4.66,0.07c0,2.36,0,3.53,0,5.89h0.09a3.82,3.82,0,0,1,1.48-1.15,5,5,0,0,1,2.17-.41,5.45,5.45,0,0,1,1.61.25,3.1,3.1,0,0,1,1.27.77,3.62,3.62,0,0,1,.83,1.45,7.27,7.27,0,0,1,.3,2.25v7.15l-3,0c0-2.61,0-3.92,0-6.53a2.88,2.88,0,0,0-.6-2,2.11,2.11,0,0,0-1.57-.64,2.59,2.59,0,0,0-1.57.5,2.75,2.75,0,0,0-1,1.31c0,2.93,0,4.4,0,7.34l-3,0c0-5.43,0-8.14,0-13.57l-1.66,0C325.62,456.87,325.62,456.36,325.62,455.35Z"/><path class="cls-4" d="M341.53,460.94a12.42,12.42,0,0,1,2.13-.69,12.13,12.13,0,0,1,2.87-.28,6.4,6.4,0,0,1,2,.3,3.44,3.44,0,0,1,1.36.82,3.12,3.12,0,0,1,.75,1.27,5.55,5.55,0,0,1,.23,1.66c0,0.78,0,1.45-.08,2s-0.08,1-.08,1.47a9.88,9.88,0,0,0,0,1.08c0,0.21.05,0.42,0.07,0.62h1.5v2.53l-3.87,0-0.3-1.57h-0.11a3.91,3.91,0,0,1-1.31,1.22,4.34,4.34,0,0,1-2.29.5,3.92,3.92,0,0,1-2.73-.94,3.17,3.17,0,0,1-1-2.45,3.64,3.64,0,0,1,.35-1.66,2.93,2.93,0,0,1,1-1.14,4.86,4.86,0,0,1,1.63-.65,9.52,9.52,0,0,1,2.12-.2,8.61,8.61,0,0,1,.87.05l1.12,0.1a2.37,2.37,0,0,0,0-.46v-0.44a1.48,1.48,0,0,0-.5-1.26,2.47,2.47,0,0,0-1.49-.39,6.93,6.93,0,0,0-2.11.28,13.39,13.39,0,0,0-1.58.58Zm3.92,8.47a2.74,2.74,0,0,0,1.64-.39,2.68,2.68,0,0,0,.8-0.86v-1.38l-0.68-.11a8,8,0,0,0-1-.06,4.74,4.74,0,0,0-.87.07,2.91,2.91,0,0,0-.78.25,1.5,1.5,0,0,0-.55.44,1.08,1.08,0,0,0-.2.67,1.32,1.32,0,0,0,.38,1A1.78,1.78,0,0,0,345.45,469.41Z"/><path class="cls-4" d="M353.57,460.23h4l0.35,1.52H358a4.57,4.57,0,0,1,1.52-1.29,4.83,4.83,0,0,1,2.38-.55,5.44,5.44,0,0,1,1.6.23,3,3,0,0,1,1.28.76,3.66,3.66,0,0,1,.84,1.44,7,7,0,0,1,.31,2.24c0,2.86,0,4.29,0,7.15h-3v-6.53a2.74,2.74,0,0,0-.63-2,2.2,2.2,0,0,0-1.6-.62,2.64,2.64,0,0,0-1.56.49,2.47,2.47,0,0,0-1,1.23v7.45h-3v-9h-1.66v-2.53Z"/><path class="cls-4" d="M384,455.49l2.63,0-0.83,7.28-1.8,0C384,459.85,384,458.4,384,455.49Zm5-.07,2.63,0-0.83,7.28-1.8,0C389,459.79,389,458.33,389,455.43Z"/><path class="cls-4" d="M399.84,469.82a1.69,1.69,0,0,1,.51-1.29,2.2,2.2,0,0,1,2.72-.06,1.62,1.62,0,0,1,.51,1.27,1.73,1.73,0,0,1-.51,1.3,2,2,0,0,1-1.38.51,1.83,1.83,0,0,1-1.34-.46A1.66,1.66,0,0,1,399.84,469.82Z"/><path class="cls-4" d="M421.21,469.69a6.84,6.84,0,0,1-2.21,1.14,9.84,9.84,0,0,1-2.65.43,7.42,7.42,0,0,1-2.66-.36,5.24,5.24,0,0,1-2-1.18,5,5,0,0,1-1.21-1.89,7.07,7.07,0,0,1-.41-2.47,6.57,6.57,0,0,1,.48-2.59,5.63,5.63,0,0,1,1.35-1.94,6,6,0,0,1,2-1.24,8,8,0,0,1,2.56-.47,9.4,9.4,0,0,1,2.42.23,11,11,0,0,1,1.73.52v4l-2.54.08v-2.12a6.46,6.46,0,0,0-1.43-.12,4.37,4.37,0,0,0-1.28.23,3.24,3.24,0,0,0-1.13.65,3.41,3.41,0,0,0-.81,1.09,3.57,3.57,0,0,0-.31,1.55,3.5,3.5,0,0,0,.25,1.35,3,3,0,0,0,1.86,1.75,4.07,4.07,0,0,0,1.51.22,5.49,5.49,0,0,0,2.16-.43,9.05,9.05,0,0,0,1.26-.68Z"/><path class="cls-4" d="M423.26,465a7.18,7.18,0,0,1,.44-2.59,5.44,5.44,0,0,1,3.17-3.2,7.5,7.5,0,0,1,2.5-.49A7.12,7.12,0,0,1,432,459a5.1,5.1,0,0,1,1.92,1.16,4.94,4.94,0,0,1,1.19,1.88,7.83,7.83,0,0,1,0,5.06,5.44,5.44,0,0,1-3.17,3.21,7.47,7.47,0,0,1-2.5.49,7.08,7.08,0,0,1-2.59-.35,5.11,5.11,0,0,1-1.92-1.17,4.93,4.93,0,0,1-1.19-1.88A7.23,7.23,0,0,1,423.26,465Zm3.09-.1a4.49,4.49,0,0,0,.21,1.4,3.3,3.3,0,0,0,.6,1.11,2.59,2.59,0,0,0,.94.71,2.84,2.84,0,0,0,1.27.22,3,3,0,0,0,2.18-.93,3.82,3.82,0,0,0,.84-2.72,3.86,3.86,0,0,0-.78-2.54,2.61,2.61,0,0,0-2.24-.9,3.63,3.63,0,0,0-1.2.24,2.47,2.47,0,0,0-1,.67,3.23,3.23,0,0,0-.63,1.12A5,5,0,0,0,426.35,464.88Z"/><path class="cls-4" d="M436.56,458.76l4-.16,0.35,1.5H441a4.85,4.85,0,0,1,1.52-1.35,5,5,0,0,1,2.37-.65,5.35,5.35,0,0,1,1.6.16,2.88,2.88,0,0,1,1.28.7,3.47,3.47,0,0,1,.84,1.4,6.86,6.86,0,0,1,.31,2.23v7.15l-3,.13v-6.53a2.64,2.64,0,0,0-.63-2,2.11,2.11,0,0,0-1.6-.55,2.74,2.74,0,0,0-1.55.56,2.62,2.62,0,0,0-1,1.27v7.45l-3,.12v-9l-1.66.06v-2.53Z"/><path class="cls-4" d="M462.68,468a7,7,0,0,1-2.21,1.18,9.94,9.94,0,0,1-2.65.49,7.36,7.36,0,0,1-2.66-.31,5.1,5.1,0,0,1-2-1.14,4.9,4.9,0,0,1-1.21-1.86,7,7,0,0,1-.41-2.47,6.64,6.64,0,0,1,.48-2.6,5.8,5.8,0,0,1,1.35-2,6.19,6.19,0,0,1,2-1.28,8.07,8.07,0,0,1,2.56-.53,9.33,9.33,0,0,1,2.42.18,10.84,10.84,0,0,1,1.73.49v4l-2.53.13v-2.12a6.41,6.41,0,0,0-1.43-.09,4.41,4.41,0,0,0-1.28.26,3.34,3.34,0,0,0-1.13.68,3.51,3.51,0,0,0-.81,1.11,3.62,3.62,0,0,0-.31,1.56,3.46,3.46,0,0,0,.25,1.35,2.95,2.95,0,0,0,1.85,1.72,4,4,0,0,0,1.51.19,5.55,5.55,0,0,0,2.15-.48,9.3,9.3,0,0,0,1.26-.71Z"/><path class="cls-4" d="M466,458.19a13.17,13.17,0,0,1,2.13-.83,12.41,12.41,0,0,1,2.87-.46,6.24,6.24,0,0,1,2,.17,3.17,3.17,0,0,1,1.36.74,2.88,2.88,0,0,1,.75,1.22,5.41,5.41,0,0,1,.23,1.64c0,0.78,0,1.45-.08,2s-0.08,1-.08,1.48a9.81,9.81,0,0,0,0,1.08c0,0.21.05,0.42,0.07,0.62l1.5-.09v2.53l-3.87.22-0.3-1.55h-0.11a4.29,4.29,0,0,1-1.3,1.3,4.53,4.53,0,0,1-2.29.64,3.71,3.71,0,0,1-2.72-.77,3,3,0,0,1-1-2.38,3.78,3.78,0,0,1,.35-1.69,3.21,3.21,0,0,1,1-1.2,5.2,5.2,0,0,1,1.62-.76,9.73,9.73,0,0,1,2.12-.34,8.58,8.58,0,0,1,.87,0l1.12,0a2.42,2.42,0,0,0,0-.46v-0.44a1.39,1.39,0,0,0-.5-1.23,2.36,2.36,0,0,0-1.49-.3,7.12,7.12,0,0,0-2.1.41,14.26,14.26,0,0,0-1.58.68Zm3.92,8.23a2.87,2.87,0,0,0,1.64-.49,2.94,2.94,0,0,0,.8-0.91v-1.38l-0.68-.07a7.91,7.91,0,0,0-1,0,4.83,4.83,0,0,0-.87.13,3.08,3.08,0,0,0-.77.3,1.65,1.65,0,0,0-.55.48,1.13,1.13,0,0,0-.2.68,1.25,1.25,0,0,0,.38,1A1.7,1.7,0,0,0,469.92,466.42Z"/><path class="cls-4" d="M480.42,459.12l-2.28.14v-2.53l2.28-.14V454l3-1c0,1.39,0,2.08,0,3.47l6-.38v2.53l-6,.38v3.29a3.78,3.78,0,0,0,.67,2.52,2.17,2.17,0,0,0,1.87.68,4.11,4.11,0,0,0,1.13-.22,4.53,4.53,0,0,0,.91-0.44,5.71,5.71,0,0,0,.74-0.55l0.61-.55,1.38,2a4.87,4.87,0,0,1-1,.9,8.94,8.94,0,0,1-1.27.75,8.51,8.51,0,0,1-1.42.54,6.93,6.93,0,0,1-1.45.25,4.7,4.7,0,0,1-3.88-1.2q-1.3-1.36-1.3-4.49v-3.29Z"/><path class="cls-4" d="M502,471.54a10.09,10.09,0,0,1-3.13-.79,8.3,8.3,0,0,1-2.69-1.86,8.9,8.9,0,0,1-1.88-3,11.57,11.57,0,0,1-.7-4.23,12.38,12.38,0,0,1,.7-4.32,10.93,10.93,0,0,1,1.88-3.29,10.33,10.33,0,0,1,2.69-2.28,12.23,12.23,0,0,1,3.13-1.3l0.55,2.42a10.33,10.33,0,0,0-1.83.79,7.38,7.38,0,0,0-1.94,1.54,8.46,8.46,0,0,0-1.55,2.51,9.67,9.67,0,0,0-.63,3.72,8.19,8.19,0,0,0,.67,3.52,7.16,7.16,0,0,0,1.62,2.27,6.49,6.49,0,0,0,2,1.26,7.35,7.35,0,0,0,1.7.49Z"/><path class="cls-4" d="M508.38,450.09l2.62-.2-0.83,7.33-1.79.13C508.38,454.46,508.38,453,508.38,450.09Zm5-.38,2.62-.2-0.83,7.33-1.79.14C513.35,454.08,513.35,452.62,513.35,449.72Z"/><path class="cls-4" d="M528.67,457.84l-5.2.43V465l-3.15.26c0-6.44,0-9.66,0-16.1l3.15-.26v6.56l5.2-.43v-6.56l3.15-.27c0,6.44,0,9.66,0,16.1l-3.15.27v-6.74Z"/><path class="cls-4" d="M545.25,461.88a4.67,4.67,0,0,1-.77.61,8.46,8.46,0,0,1-1.1.6,9.36,9.36,0,0,1-3,.78,7.56,7.56,0,0,1-2.63-.18,4.55,4.55,0,0,1-3.2-2.83,6.79,6.79,0,0,1-.42-2.5,7.08,7.08,0,0,1,.48-2.7,6,6,0,0,1,1.32-2,6.24,6.24,0,0,1,2-1.31,8,8,0,0,1,2.44-.6,7.39,7.39,0,0,1,1.8.07,4.48,4.48,0,0,1,1.71.64,3.72,3.72,0,0,1,1.28,1.39,4.84,4.84,0,0,1,.49,2.34,11.3,11.3,0,0,1-.23,2.16l-8.28.76a2.5,2.5,0,0,0,.31,1.21,2.16,2.16,0,0,0,.76.76,3,3,0,0,0,1.08.38,5.32,5.32,0,0,0,1.3,0,7,7,0,0,0,2.26-.53,5.4,5.4,0,0,0,1.44-.92Zm-5-7.75a4,4,0,0,0-1.13.27,3.52,3.52,0,0,0-1,.57,3,3,0,0,0-.7.85,2.59,2.59,0,0,0-.32,1.08l5.65-.51A2.06,2.06,0,0,0,540.28,454.13Z"/><path class="cls-4" d="M556,458.89a0.74,0.74,0,0,0-.56-0.68,7.51,7.51,0,0,0-1.39-.37c-0.55-.1-1.16-0.2-1.82-0.29a7.52,7.52,0,0,1-1.81-.49,4,4,0,0,1-1.39-.95,2.3,2.3,0,0,1-.56-1.64,3.09,3.09,0,0,1,.38-1.53,4,4,0,0,1,1-1.19,5.4,5.4,0,0,1,1.56-.83,8.4,8.4,0,0,1,2-.42,10.65,10.65,0,0,1,2,0,9.07,9.07,0,0,1,1.48.24,4.92,4.92,0,0,1,1.08.41l0.77,0.44-1.26,2.17q-0.35-.17-0.79-0.35a9.82,9.82,0,0,0-.94-0.31,6.83,6.83,0,0,0-1-.2,5.08,5.08,0,0,0-1.07,0,4.31,4.31,0,0,0-1.56.41,0.94,0.94,0,0,0-.6.84,0.68,0.68,0,0,0,.56.61,8.44,8.44,0,0,0,1.39.34l1.81,0.29a8.92,8.92,0,0,1,1.82.48,3.78,3.78,0,0,1,1.39.91,2.22,2.22,0,0,1,.56,1.6,3.67,3.67,0,0,1-1.27,2.88,6.56,6.56,0,0,1-3.78,1.37,8.65,8.65,0,0,1-3.41-.26,7,7,0,0,1-2.31-1.15l1.38-2.29a6.06,6.06,0,0,0,.79.49,6.49,6.49,0,0,0,1.12.46,8.79,8.79,0,0,0,1.32.3,5.64,5.64,0,0,0,1.39,0,3.12,3.12,0,0,0,1.26-.38A1,1,0,0,0,556,458.89Z"/><path class="cls-4" d="M569.78,457.48a0.73,0.73,0,0,0-.56-0.68,7.44,7.44,0,0,0-1.39-.36c-0.55-.1-1.16-0.19-1.81-0.28a7.48,7.48,0,0,1-1.81-.48,3.93,3.93,0,0,1-1.39-.94,2.29,2.29,0,0,1-.56-1.63,3.11,3.11,0,0,1,.38-1.53,4,4,0,0,1,1-1.2,5.44,5.44,0,0,1,1.56-.84,8.44,8.44,0,0,1,2-.43,10.65,10.65,0,0,1,2,0,9,9,0,0,1,1.48.23,4.88,4.88,0,0,1,1.08.4l0.77,0.44-1.26,2.18q-0.35-.17-0.79-0.34a9.74,9.74,0,0,0-.94-0.3,6.77,6.77,0,0,0-1-.19,5.06,5.06,0,0,0-1.07,0,4.33,4.33,0,0,0-1.56.42,1,1,0,0,0-.6.84,0.67,0.67,0,0,0,.56.61,8.39,8.39,0,0,0,1.39.33L569,454a8.87,8.87,0,0,1,1.81.46,3.74,3.74,0,0,1,1.39.9,2.21,2.21,0,0,1,.56,1.6,3.7,3.7,0,0,1-1.27,2.88,6.6,6.6,0,0,1-3.78,1.4,8.63,8.63,0,0,1-3.41-.23,6.93,6.93,0,0,1-2.31-1.13l1.38-2.3a6,6,0,0,0,.79.48,6.44,6.44,0,0,0,1.11.45,8.75,8.75,0,0,0,1.32.29,5.63,5.63,0,0,0,1.39,0,3.13,3.13,0,0,0,1.26-.38A1,1,0,0,0,569.78,457.48Z"/><path class="cls-4" d="M576.32,443.85l4.89-.54c0,4.25,0,6.38,0,10.63a4.65,4.65,0,0,0,.44,2.41,1.37,1.37,0,0,0,1.4.53,4.08,4.08,0,0,0,1.17-.28,5,5,0,0,0,.92-0.53l1.12,1.94q-0.39.3-.78,0.56a5.76,5.76,0,0,1-.83.46,6.13,6.13,0,0,1-1,.34,7.85,7.85,0,0,1-1.16.21,4,4,0,0,1-3.24-.74,3.88,3.88,0,0,1-1.08-3v-9.66l-1.91.21C576.32,445.37,576.32,444.86,576.32,443.85Z"/><path class="cls-4" d="M600.35,456a4.86,4.86,0,0,1-.77.63,8.7,8.7,0,0,1-1.1.63,9.52,9.52,0,0,1-1.39.53,9.31,9.31,0,0,1-1.6.33,7.49,7.49,0,0,1-2.63-.1,4.38,4.38,0,0,1-3.19-2.74,6.71,6.71,0,0,1-.42-2.49,7.2,7.2,0,0,1,.48-2.71,6.24,6.24,0,0,1,1.32-2,6.46,6.46,0,0,1,2-1.37,8.16,8.16,0,0,1,2.43-.67,7.33,7.33,0,0,1,1.8,0,4.35,4.35,0,0,1,1.71.59,3.57,3.57,0,0,1,1.27,1.35,4.77,4.77,0,0,1,.49,2.33,11.42,11.42,0,0,1-.23,2.17l-8.26,1a2.45,2.45,0,0,0,.31,1.21,2.07,2.07,0,0,0,.76.74,2.92,2.92,0,0,0,1.08.35,5.3,5.3,0,0,0,1.3,0,7.16,7.16,0,0,0,2.26-.59,5.59,5.59,0,0,0,1.43-1Zm-5-7.62a4,4,0,0,0-1.12.3,3.65,3.65,0,0,0-1,.59,3.11,3.11,0,0,0-.7.87,2.66,2.66,0,0,0-.32,1.09l5.64-.67A2,2,0,0,0,595.39,448.35Z"/><path class="cls-4" d="M602.75,454.36l2.84-.35c0-2.58,0-3.86,0-6.44l-2.84.35v-2.53l5.16-.64,0.34,1.47h0.09a7.32,7.32,0,0,1,1.47-1.45,4,4,0,0,1,1.92-.75,2.3,2.3,0,0,1,2.17.73,5.1,5.1,0,0,1,.79,3.28l-2.68.34a2.14,2.14,0,0,0-.24-1.18,0.74,0.74,0,0,0-.77-0.28,2.55,2.55,0,0,0-1.48.65,5.57,5.57,0,0,0-1,1.18v4.9l5-.63v2.53c-4.32.55-6.48,0.82-10.8,1.35v-2.53Z"/><path class="cls-4" d="M618.61,438.78l2.61-.34-0.82,7.38-1.79.23C618.61,443.14,618.61,441.69,618.61,438.78Zm4.95-.65,2.61-.35-0.82,7.38-1.79.24C623.56,442.49,623.56,441,623.56,438.13Z"/><path class="cls-4" d="M632.1,455.44a9,9,0,0,0,1.69-.84,8.73,8.73,0,0,0,2-1.67,9.54,9.54,0,0,0,1.61-2.61,9.22,9.22,0,0,0,.66-3.66,8.74,8.74,0,0,0-.63-3.59,6.37,6.37,0,0,0-1.55-2.19,5.52,5.52,0,0,0-1.93-1.13,8.55,8.55,0,0,0-1.82-.4l0.55-2.54a10.17,10.17,0,0,1,3.11.65,7.65,7.65,0,0,1,2.68,1.72,8.31,8.31,0,0,1,1.87,2.9,11.25,11.25,0,0,1,.7,4.17,12.86,12.86,0,0,1-.7,4.38,11.69,11.69,0,0,1-1.87,3.39,11.18,11.18,0,0,1-2.68,2.42,12.17,12.17,0,0,1-3.11,1.44Z"/></svg>