<svg id="Layer_1" data-name="Layer 1" xmlns="http://www.w3.org/2000/svg" viewBox="0 0 720 576"><defs><style>.cls-1,.cls-2,.cls-4,.cls-6{fill:#231f20;}.cls-1,.cls-3{stroke:#231f20;}.cls-1,.cls-6{stroke-miterlimit:10;}.cls-1,.cls-2,.cls-3{stroke-width:2px;}.cls-2{stroke:#000;}.cls-2,.cls-3{stroke-linecap:round;stroke-linejoin:round;}.cls-3,.cls-5{fill:#fff;}.cls-6{stroke:#fff;}</style></defs><title>Hanoi_Tower_Set_1</title><path class="cls-1" d="M655.36,506.49c0-.14,0-0.29,0-0.43s0-.29,0-0.43V453.84H63.53s-0.23,51.74-.23,52.22c0,2.67,2.12,5.24,6.08,7.71,13.87,8.61,50.58,16.11,101.74,21.48s116.73,8.59,188.22,8.59c81.71,0,155.68-4.21,209.24-11,26.78-3.41,48.45-7.46,63.44-12,7.5-2.25,13.32-4.62,17.29-7.08,3.38-2.1,5.41-4.29,5.94-6.55h0.1v-0.73Z"/><ellipse class="cls-2" cx="359.35" cy="454.92" rx="295.87" ry="37.63"/><path class="cls-3" d="M655.36,455c0-.14,0-0.29,0-0.43s0-.29,0-0.43V402.36H63.53s-0.23,51.74-.23,52.22c0,2.67,2.12,5.24,6.08,7.71,13.87,8.61,50.58,16.11,101.74,21.48s116.73,8.59,188.22,8.59c81.71,0,155.68-4.21,209.24-11,26.78-3.41,48.45-7.46,63.44-12,7.5-2.25,13.32-4.62,17.29-7.08,3.38-2.1,5.41-4.29,5.94-6.55h0.1V455Z"/><ellipse class="cls-3" cx="359.35" cy="403.44" rx="295.87" ry="37.63"/><path class="cls-3" d="M655.36,403.53c0-.14,0-0.29,0-0.43s0-.29,0-0.43V350.88H63.53s-0.23,51.74-.23,52.22c0,2.67,2.12,5.24,6.08,7.71,13.87,8.61,50.58,16.11,101.74,21.48s116.73,8.59,188.22,8.59c81.71,0,155.68-4.21,209.24-11,26.78-3.41,48.45-7.46,63.44-12,7.5-2.25,13.32-4.62,17.29-7.08,3.38-2.1,5.41-4.29,5.94-6.55h0.1v-0.73Z"/><ellipse class="cls-3" cx="359.35" cy="351.97" rx="295.87" ry="37.63"/><path class="cls-4" d="M359.35,360.22c-16,0-29-3.75-30.2-8.61h-0.08l0-.5V8.27h60.63V351.6h-0.12C388.32,356.47,375.32,360.22,359.35,360.22Z"/><path class="cls-5" d="M389.17,8.77V351.1h0c-0.49,4.78-13.63,8.61-29.79,8.61s-29.3-3.83-29.79-8.61h0v-0.21s0,0,0-.06,0,0,0-.06V8.77h59.63m1-1H328.54v343s0,0.07,0,.11v1.27h0.23c2,5.6,16.84,8.61,30.58,8.61s28.6-3,30.58-8.61h0.21l0-1V7.77h0Z"/><ellipse class="cls-6" cx="359.35" cy="8.89" rx="29.81" ry="8.89"/><path class="cls-4" d="M86.53,399.27a5.66,5.66,0,0,1-2.2.77,9.32,9.32,0,0,1-2.63,0,8.14,8.14,0,0,1-2.64-.81,6.53,6.53,0,0,1-1.95-1.5,6.28,6.28,0,0,1-1.2-2.09,7.68,7.68,0,0,1-.41-2.54,6,6,0,0,1,.48-2.51,4.45,4.45,0,0,1,1.34-1.72,4.87,4.87,0,0,1,2-.9,7.5,7.5,0,0,1,2.54,0,10.11,10.11,0,0,1,2.4.63,12.93,12.93,0,0,1,1.72.81v4l-2.52-.35v-2.12a6.9,6.9,0,0,0-1.42-.36,4.14,4.14,0,0,0-1.27,0A2.58,2.58,0,0,0,78.87,392a3.26,3.26,0,0,0-.31,1.5,3.87,3.87,0,0,0,.25,1.39A3.84,3.84,0,0,0,80.65,397a4.47,4.47,0,0,0,1.5.47,5.09,5.09,0,0,0,2.14-.07,7.32,7.32,0,0,0,1.25-.47Z"/><path class="cls-4" d="M88.56,394.9a6.64,6.64,0,0,1,.43-2.52,4.39,4.39,0,0,1,1.24-1.74,4.48,4.48,0,0,1,1.91-.93,7,7,0,0,1,2.48-.07,7.81,7.81,0,0,1,2.58.78,6.38,6.38,0,0,1,1.91,1.48A6.13,6.13,0,0,1,100.3,394a7.84,7.84,0,0,1,.4,2.54,6.67,6.67,0,0,1-.44,2.52A4.42,4.42,0,0,1,99,400.77a4.47,4.47,0,0,1-1.91.93,7,7,0,0,1-2.49.07,7.77,7.77,0,0,1-2.58-.78,6.4,6.4,0,0,1-1.91-1.49A6.16,6.16,0,0,1,89,397.44,7.84,7.84,0,0,1,88.56,394.9Zm3.07,0.41a4.86,4.86,0,0,0,.21,1.43,4,4,0,0,0,.6,1.21,3.26,3.26,0,0,0,.94.87,3.17,3.17,0,0,0,1.26.43,2.59,2.59,0,0,0,2.17-.56,3.33,3.33,0,0,0,.84-2.58,4.44,4.44,0,0,0-.78-2.67,3.11,3.11,0,0,0-2.22-1.27,3.41,3.41,0,0,0-1.19,0,2,2,0,0,0-1,.51,2.61,2.61,0,0,0-.63,1A4.71,4.71,0,0,0,91.63,395.31Z"/><path class="cls-4" d="M101.78,390.9l4,0.51,0.34,1.56h0.09a3.79,3.79,0,0,1,1.51-1.1,4.48,4.48,0,0,1,2.36-.26,5.81,5.81,0,0,1,1.59.43A3.59,3.59,0,0,1,113,393a4.31,4.31,0,0,1,.84,1.54,7.38,7.38,0,0,1,.31,2.28c0,2.86,0,4.29,0,7.15l-3-.37c0-2.61,0-3.92,0-6.53a3.05,3.05,0,0,0-.63-2.1,2.49,2.49,0,0,0-1.59-.82,2.4,2.4,0,0,0-1.55.3,2.07,2.07,0,0,0-1,1.11c0,3,0,4.47,0,7.45l-3-.38c0-3.59,0-5.38,0-9l-1.65-.21V390.9Z"/><path class="cls-4" d="M127.78,404.47a5.8,5.8,0,0,1-2.2.81,9.35,9.35,0,0,1-2.64,0,8,8,0,0,1-2.65-.75,6.37,6.37,0,0,1-1.95-1.46,6.11,6.11,0,0,1-1.2-2.07,7.61,7.61,0,0,1-.41-2.53,6.08,6.08,0,0,1,.48-2.52,4.57,4.57,0,0,1,1.34-1.75,5,5,0,0,1,2-.94,7.56,7.56,0,0,1,2.55-.1,10,10,0,0,1,2.41.58,12.59,12.59,0,0,1,1.72.78v4l-2.52-.29V396.2a6.83,6.83,0,0,0-1.42-.33,4.17,4.17,0,0,0-1.27,0,2.71,2.71,0,0,0-1.12.49,2.75,2.75,0,0,0-.8,1,3.29,3.29,0,0,0-.31,1.5,3.76,3.76,0,0,0,2.1,3.41,4.42,4.42,0,0,0,1.5.44,5.13,5.13,0,0,0,2.14-.12,7.58,7.58,0,0,0,1.25-.5Z"/><path class="cls-4" d="M131.09,395.24a11.48,11.48,0,0,1,2.12-.47,11.84,11.84,0,0,1,2.86,0,6.75,6.75,0,0,1,2,.51,3.94,3.94,0,0,1,1.35,1,3.56,3.56,0,0,1,.75,1.35,5.81,5.81,0,0,1,.23,1.68q0,1.17-.08,2t-0.08,1.46a10.08,10.08,0,0,0,0,1.09c0,0.21.05,0.43,0.07,0.63l1.49,0.16v2.53l-3.85-.42-0.3-1.6H137.6a3.37,3.37,0,0,1-1.3,1.09,4.08,4.08,0,0,1-2.28.26,4.31,4.31,0,0,1-2.71-1.23,3.52,3.52,0,0,1-1-2.55,3.42,3.42,0,0,1,.35-1.63,2.51,2.51,0,0,1,1-1,4.38,4.38,0,0,1,1.62-.48,9.29,9.29,0,0,1,2.11,0q0.41,0,.87.14l1.12,0.22a2.3,2.3,0,0,0,0-.45V399a1.64,1.64,0,0,0-.5-1.31,2.67,2.67,0,0,0-1.48-.54,6.68,6.68,0,0,0-2.1.06,12.15,12.15,0,0,0-1.57.42Zm3.91,8.88a2.57,2.57,0,0,0,1.63-.22,2.28,2.28,0,0,0,.79-0.77v-1.38l-0.68-.18a8.16,8.16,0,0,0-1-.17,4.64,4.64,0,0,0-.86,0,2.65,2.65,0,0,0-.77.17,1.29,1.29,0,0,0-.55.39,1,1,0,0,0-.2.64,1.46,1.46,0,0,0,.37,1A2,2,0,0,0,135,404.12Z"/><path class="cls-4" d="M155.33,407.47a5.88,5.88,0,0,1-2.2.84,9.38,9.38,0,0,1-2.64.08,8,8,0,0,1-2.65-.72,6.25,6.25,0,0,1-2-1.44,6,6,0,0,1-1.2-2,7.55,7.55,0,0,1-.41-2.53,6.12,6.12,0,0,1,.48-2.52,4.66,4.66,0,0,1,1.34-1.77,5.09,5.09,0,0,1,2-1,7.58,7.58,0,0,1,2.55-.14,9.93,9.93,0,0,1,2.41.55,12.43,12.43,0,0,1,1.72.75v4l-2.53-.26v-2.12a6.78,6.78,0,0,0-1.42-.31,4.18,4.18,0,0,0-1.28.06,2.76,2.76,0,0,0-1.13.5,2.8,2.8,0,0,0-.8,1,3.31,3.31,0,0,0-.31,1.51,3.77,3.77,0,0,0,.25,1.38,3.66,3.66,0,0,0,1.85,2,4.38,4.38,0,0,0,1.5.42,5.15,5.15,0,0,0,2.15-.15,7.69,7.69,0,0,0,1.25-.52Z"/><path class="cls-4" d="M159.23,400l-2.27-.23v-2.53l2.27,0.23v-2.62l3-.55v3.47l6,0.58c0,1,0,1.52,0,2.53l-6-.58c0,1.32,0,2,0,3.29a4.26,4.26,0,0,0,.67,2.63,2.55,2.55,0,0,0,1.86,1,3.8,3.8,0,0,0,2-.33,4.5,4.5,0,0,0,.73-0.44l0.61-.45,1.38,2.2a3.87,3.87,0,0,1-1,.75,7.42,7.42,0,0,1-2.68.86,6.61,6.61,0,0,1-1.45,0,5.47,5.47,0,0,1-3.87-1.82,7.23,7.23,0,0,1-1.3-4.69V400Z"/><path class="cls-4" d="M428.79,401.63l2.63-.09-0.83,7.3-1.8.06v-7.27Zm5-.18,2.63-.1-0.83,7.3-1.8.07C433.77,405.81,433.77,404.36,433.77,401.45Z"/><path class="cls-4" d="M443.87,407.63h-0.12l0.14,1.9v7.61l-3,.12c0-6.44,0-9.66,0-16.1l2.76-.11,5.58,9.6h0.11l-0.21-1.92v-7.91l3-.14c0,6.44,0,9.66,0,16.1l-2.76.13Z"/><path class="cls-4" d="M455.5,405.92a13.18,13.18,0,0,1,2.13-.82,12.39,12.39,0,0,1,2.87-.44,6.26,6.26,0,0,1,2,.18,3.19,3.19,0,0,1,1.36.75,2.89,2.89,0,0,1,.75,1.23,5.42,5.42,0,0,1,.23,1.64q0,1.17-.08,2t-0.08,1.48a9.82,9.82,0,0,0,0,1.08c0,0.21.05,0.42,0.07,0.62l1.5-.08v2.53l-3.87.2-0.3-1.55H462a4.28,4.28,0,0,1-1.3,1.3,4.51,4.51,0,0,1-2.29.63,3.73,3.73,0,0,1-2.72-.79,3,3,0,0,1-1-2.39,3.77,3.77,0,0,1,.35-1.68,3.19,3.19,0,0,1,1-1.2,5.16,5.16,0,0,1,1.62-.75,9.69,9.69,0,0,1,2.12-.32c0.27,0,.56,0,0.87,0l1.12,0a2.41,2.41,0,0,0,0-.46v-0.44a1.4,1.4,0,0,0-.5-1.23,2.37,2.37,0,0,0-1.49-.3,7.1,7.1,0,0,0-2.1.4,14.18,14.18,0,0,0-1.58.67Zm3.92,8.25a2.86,2.86,0,0,0,1.64-.48,2.92,2.92,0,0,0,.8-0.9V411.4l-0.68-.07a7.88,7.88,0,0,0-1,0,4.84,4.84,0,0,0-.87.12,3,3,0,0,0-.77.29,1.62,1.62,0,0,0-.55.48,1.13,1.13,0,0,0-.2.68,1.25,1.25,0,0,0,.38,1A1.7,1.7,0,0,0,459.42,414.16Z"/><path class="cls-4" d="M469.92,406.92l-2.28.12v-2.53l2.28-.12v-2.62l3-1c0,1.39,0,2.08,0,3.47l6-.35v2.53l-6,.35V410a3.8,3.8,0,0,0,.67,2.53,2.18,2.18,0,0,0,1.87.69,4.09,4.09,0,0,0,1.13-.21,4.55,4.55,0,0,0,.91-0.43,5.67,5.67,0,0,0,.74-0.55l0.61-.54,1.38,2a4.85,4.85,0,0,1-1,.9,9,9,0,0,1-1.27.74,8.45,8.45,0,0,1-1.42.53,6.92,6.92,0,0,1-1.45.25,4.72,4.72,0,0,1-3.88-1.22q-1.3-1.36-1.3-4.49v-3.29Z"/><path class="cls-4" d="M481.07,399.15l4.65-.29v5.89h0.09a4.26,4.26,0,0,1,1.47-1.27,5.73,5.73,0,0,1,3.78-.45,2.81,2.81,0,0,1,1.27.68,3.28,3.28,0,0,1,.83,1.38,7.06,7.06,0,0,1,.3,2.22v7.15l-3,.2v-6.53a2.7,2.7,0,0,0-.6-2,2,2,0,0,0-1.57-.52,2.76,2.76,0,0,0-1.57.62,3.06,3.06,0,0,0-1,1.39V415l-3,.19V401.58l-1.66.1v-2.53Z"/><path class="cls-4" d="M497,403.51a13.45,13.45,0,0,1,2.13-.86,12.49,12.49,0,0,1,2.87-.5,6.22,6.22,0,0,1,2,.14,3.11,3.11,0,0,1,1.36.72,2.82,2.82,0,0,1,.75,1.21,5.38,5.38,0,0,1,.23,1.64q0,1.17-.08,2t-0.08,1.48a9.79,9.79,0,0,0,0,1.08c0,0.21.05,0.42,0.07,0.62l1.5-.11v2.53l-3.86.28-0.3-1.54h-0.11a4.41,4.41,0,0,1-1.3,1.32,4.58,4.58,0,0,1-2.29.68,3.66,3.66,0,0,1-2.72-.73,2.94,2.94,0,0,1-1-2.37,3.82,3.82,0,0,1,.35-1.69,3.28,3.28,0,0,1,1-1.22,5.28,5.28,0,0,1,1.62-.78,9.78,9.78,0,0,1,2.12-.37c0.27,0,.56,0,0.87,0h1.12a2.42,2.42,0,0,0,0-.46v-0.44a1.37,1.37,0,0,0-.5-1.22,2.34,2.34,0,0,0-1.49-.27,7.17,7.17,0,0,0-2.1.45,14.49,14.49,0,0,0-1.58.71Zm3.92,8.17a2.91,2.91,0,0,0,1.64-.52,3,3,0,0,0,.8-0.92v-1.38l-0.68-.05a7.84,7.84,0,0,0-1,0,4.87,4.87,0,0,0-.86.14,3.07,3.07,0,0,0-.77.31,1.67,1.67,0,0,0-.55.49,1.15,1.15,0,0,0-.2.68,1.23,1.23,0,0,0,.38,1A1.68,1.68,0,0,0,500.87,411.68Z"/><path class="cls-4" d="M509,401.87l4-.3,0.35,1.49h0.09a5.16,5.16,0,0,1,3.89-2.14,5.3,5.3,0,0,1,1.6.1,2.75,2.75,0,0,1,1.28.66A3.32,3.32,0,0,1,521,403a6.77,6.77,0,0,1,.31,2.22c0,2.86,0,4.29,0,7.15l-3,.24v-6.53a2.57,2.57,0,0,0-.63-2,2,2,0,0,0-1.6-.5,2.83,2.83,0,0,0-1.55.61,2.76,2.76,0,0,0-1,1.3V413l-3,.23v-9l-1.66.12v-2.53Z"/><path class="cls-4" d="M545.78,403.55l-5.19.48c0,2.7,0,4,0,6.74l-3.15.28v-16.1l3.15-.28c0,2.62,0,3.93,0,6.55l5.19-.48c0-2.62,0-3.93,0-6.55l3.15-.3c0,6.44,0,9.66,0,16.1l-3.15.3C545.78,407.59,545.78,406.24,545.78,403.55Z"/><path class="cls-4" d="M562.35,407.46a4.73,4.73,0,0,1-.77.62,8.37,8.37,0,0,1-1.1.61,9.4,9.4,0,0,1-3,.8,7.54,7.54,0,0,1-2.63-.16,4.51,4.51,0,0,1-3.19-2.81,6.77,6.77,0,0,1-.42-2.5,7.11,7.11,0,0,1,.48-2.7,6.07,6.07,0,0,1,1.32-2,6.3,6.3,0,0,1,2-1.33,8.06,8.06,0,0,1,2.44-.62,7.36,7.36,0,0,1,1.8.05,4.45,4.45,0,0,1,1.71.62,3.67,3.67,0,0,1,1.27,1.38,4.82,4.82,0,0,1,.49,2.34,11.31,11.31,0,0,1-.23,2.16l-8.27.82a2.49,2.49,0,0,0,.31,1.21,2.13,2.13,0,0,0,.76.75,3,3,0,0,0,1.08.37,5.27,5.27,0,0,0,1.3,0,7.08,7.08,0,0,0,2.26-.55,5.45,5.45,0,0,0,1.44-.93Zm-5-7.71a4,4,0,0,0-1.13.28,3.56,3.56,0,0,0-1,.57,3,3,0,0,0-.7.85,2.61,2.61,0,0,0-.32,1.08l5.65-.56A2,2,0,0,0,557.39,399.74Z"/><path class="cls-4" d="M573.1,404.38a0.73,0.73,0,0,0-.56-0.68,7.47,7.47,0,0,0-1.39-.36l-1.81-.28a7.46,7.46,0,0,1-1.81-.48,3.93,3.93,0,0,1-1.39-.94,2.29,2.29,0,0,1-.56-1.63,3.1,3.1,0,0,1,.38-1.53,4,4,0,0,1,1-1.2,5.46,5.46,0,0,1,1.56-.84,8.43,8.43,0,0,1,2-.44,10.65,10.65,0,0,1,2,0,9,9,0,0,1,1.48.23,4.87,4.87,0,0,1,1.08.4L575.8,397l-1.26,2.18q-0.35-.17-0.79-0.34a9.42,9.42,0,0,0-.94-0.3,6.86,6.86,0,0,0-1-.19,5,5,0,0,0-1.07,0,4.33,4.33,0,0,0-1.56.42,1,1,0,0,0-.6.84,0.67,0.67,0,0,0,.56.61,8.43,8.43,0,0,0,1.39.32l1.81,0.28a8.81,8.81,0,0,1,1.81.46,3.75,3.75,0,0,1,1.39.9,2.21,2.21,0,0,1,.56,1.6,3.7,3.7,0,0,1-1.27,2.89,6.6,6.6,0,0,1-3.78,1.4,8.62,8.62,0,0,1-3.41-.23,6.94,6.94,0,0,1-2.31-1.13l1.38-2.3a6.12,6.12,0,0,0,.79.48,6.44,6.44,0,0,0,1.11.45,8.75,8.75,0,0,0,1.32.29,5.69,5.69,0,0,0,1.39,0,3.12,3.12,0,0,0,1.26-.39A1,1,0,0,0,573.1,404.38Z"/><path class="cls-4" d="M586.87,402.87a0.72,0.72,0,0,0-.56-0.67,7.42,7.42,0,0,0-1.39-.35l-1.81-.27a7.42,7.42,0,0,1-1.81-.47,3.89,3.89,0,0,1-1.39-.93,2.27,2.27,0,0,1-.56-1.63,3.12,3.12,0,0,1,.38-1.54,4,4,0,0,1,1-1.21,5.5,5.5,0,0,1,1.56-.85,8.46,8.46,0,0,1,2-.45,10.66,10.66,0,0,1,2-.06,9,9,0,0,1,1.48.22,4.83,4.83,0,0,1,1.08.39l0.77,0.43-1.26,2.19q-0.34-.17-0.79-0.33a9.34,9.34,0,0,0-.94-0.3,6.81,6.81,0,0,0-1-.18,5,5,0,0,0-1.07,0,4.34,4.34,0,0,0-1.56.43,1,1,0,0,0-.6.85,0.67,0.67,0,0,0,.56.6,8.39,8.39,0,0,0,1.39.32l1.81,0.27a8.73,8.73,0,0,1,1.81.45,3.71,3.71,0,0,1,1.39.89,2.19,2.19,0,0,1,.56,1.59,3.73,3.73,0,0,1-1.27,2.89,6.64,6.64,0,0,1-3.78,1.43,8.6,8.6,0,0,1-3.41-.21,6.88,6.88,0,0,1-2.31-1.11l1.38-2.31a6.06,6.06,0,0,0,.79.48,6.38,6.38,0,0,0,1.11.44,8.63,8.63,0,0,0,1.32.28,5.66,5.66,0,0,0,1.39,0,3.13,3.13,0,0,0,1.26-.4A1,1,0,0,0,586.87,402.87Z"/><path class="cls-4" d="M593.41,389.19l4.89-.58c0,4.25,0,6.38,0,10.63a4.63,4.63,0,0,0,.44,2.41,1.36,1.36,0,0,0,1.4.52,4.1,4.1,0,0,0,1.17-.29,5.14,5.14,0,0,0,.92-0.54l1.12,1.93q-0.39.3-.78,0.57a5.82,5.82,0,0,1-.83.47,6.17,6.17,0,0,1-1,.34,7.9,7.9,0,0,1-1.16.22,3.94,3.94,0,0,1-3.23-.72,3.85,3.85,0,0,1-1.08-3c0-3.86,0-5.8,0-9.66l-1.9.22C593.41,390.71,593.41,390.2,593.41,389.19Z"/><path class="cls-4" d="M617.41,401.11a4.91,4.91,0,0,1-.77.64,8.66,8.66,0,0,1-1.1.64,9.51,9.51,0,0,1-1.39.54,9.39,9.39,0,0,1-1.6.34,7.47,7.47,0,0,1-2.62-.08,4.33,4.33,0,0,1-3.19-2.72,6.7,6.7,0,0,1-.42-2.49,7.23,7.23,0,0,1,.48-2.72,6.3,6.3,0,0,1,1.32-2.06,6.52,6.52,0,0,1,2-1.38,8.2,8.2,0,0,1,2.43-.69,7.31,7.31,0,0,1,1.8,0,4.32,4.32,0,0,1,1.71.57,3.52,3.52,0,0,1,1.27,1.34,4.75,4.75,0,0,1,.49,2.33,11.44,11.44,0,0,1-.23,2.17l-8.25,1a2.44,2.44,0,0,0,.31,1.2,2,2,0,0,0,.76.73,2.89,2.89,0,0,0,1.08.34,5.25,5.25,0,0,0,1.3,0,7.19,7.19,0,0,0,2.26-.61,5.65,5.65,0,0,0,1.43-1Zm-5-7.58a4.07,4.07,0,0,0-1.12.31,3.68,3.68,0,0,0-1,.6,3.14,3.14,0,0,0-.7.87,2.67,2.67,0,0,0-.32,1.09l5.64-.71A2,2,0,0,0,612.46,393.54Z"/><path class="cls-4" d="M619.82,399.49l2.84-.37c0-2.58,0-3.86,0-6.44l-2.84.37v-2.53l5.15-.68,0.34,1.47h0.09a7.41,7.41,0,0,1,1.47-1.46,4.06,4.06,0,0,1,1.92-.76,2.28,2.28,0,0,1,2.16.72,5.08,5.08,0,0,1,.79,3.27l-2.68.36a2.14,2.14,0,0,0-.24-1.17,0.74,0.74,0,0,0-.77-0.28,2.57,2.57,0,0,0-1.48.66,5.66,5.66,0,0,0-1,1.19c0,2,0,2.94,0,4.9l5-.67c0,1,0,1.52,0,2.53-4.31.59-6.47,0.87-10.79,1.44C619.82,401,619.82,400.5,619.82,399.49Z"/><path class="cls-4" d="M635.66,383.79l2.61-.36-0.82,7.38-1.79.25C635.66,388.15,635.66,386.7,635.66,383.79Zm4.95-.69,2.61-.37-0.82,7.38-1.79.25C640.61,387.46,640.61,386,640.61,383.1Z"/><path class="cls-4" d="M78,449.83V447.3l2.7,0.38v-6.44L78,440.85c0-1,0-1.52,0-2.53l2.72,0.39v-0.64a3.91,3.91,0,0,1,.38-1.81,3,3,0,0,1,1-1.15,3.49,3.49,0,0,1,1.43-.55,5.71,5.71,0,0,1,1.68,0,11.4,11.4,0,0,1,2.6.62,7.7,7.7,0,0,1,1.68.89l-0.87,2.16a11.83,11.83,0,0,0-1.13-.62,5.4,5.4,0,0,0-1.57-.42,2,2,0,0,0-1.73.32,2.24,2.24,0,0,0-.49,1.62l4.81,0.66v2.53l-4.81-.66v6.44l4.83,0.67v2.53C84.33,450.72,82.23,450.42,78,449.83Z"/><path class="cls-4" d="M97.7,441l4.26,0.56c0,3.2,0,4.8,0,8v1l1.74,0.23c0,1,0,1.52,0,2.53l-3.62-.47-0.53-1.77H99.46a3.35,3.35,0,0,1-1.58,1.24,4.48,4.48,0,0,1-2.34.26,5.64,5.64,0,0,1-1.59-.44,3.45,3.45,0,0,1-1.23-.92,4.18,4.18,0,0,1-.78-1.53,8.22,8.22,0,0,1-.27-2.29v-4.62l-1.31-.18V440l4.28,0.58v6.53a3.86,3.86,0,0,0,.45,2.08,1.88,1.88,0,0,0,1.41.81,2.25,2.25,0,0,0,1.52-.3,2.27,2.27,0,0,0,1-1.12v-4.9l-1.28-.17V441Z"/><path class="cls-4" d="M105.88,437.49l4.88,0.62c0,4.25,0,6.38,0,10.63a5.29,5.29,0,0,0,.44,2.52,1.77,1.77,0,0,0,1.4.86,3.74,3.74,0,0,0,1.17,0,3.87,3.87,0,0,0,.92-0.31l1.12,2.21q-0.39.21-.78,0.38a4.44,4.44,0,0,1-.83.27,5.23,5.23,0,0,1-1,.11,7.52,7.52,0,0,1-1.16-.06,4.9,4.9,0,0,1-3.23-1.51,4.8,4.8,0,0,1-1.08-3.27v-9.66l-1.9-.24C105.88,439,105.88,438.5,105.88,437.49Z"/><path class="cls-4" d="M119.63,439.2l4.88,0.58v10.63a5.27,5.27,0,0,0,.44,2.51,1.76,1.76,0,0,0,1.4.85,3.75,3.75,0,0,0,1.17,0,3.9,3.9,0,0,0,.92-0.32l1.12,2.2q-0.39.21-.78,0.38a4.48,4.48,0,0,1-.83.27,5.24,5.24,0,0,1-1,.12,7.52,7.52,0,0,1-1.16-.06,4.86,4.86,0,0,1-3.23-1.49,4.77,4.77,0,0,1-1.08-3.26V442l-1.9-.23V439.2Z"/><path class="cls-4" d="M133.19,459.58c4.08,0.46,6.11.69,10.19,1.14v2.46c-4.08-.44-6.11-0.67-10.19-1.14v-2.46Z"/><path class="cls-4" d="M145.45,446.75l4,0.43,0.34,1.55h0.09a3.92,3.92,0,0,1,1.52-1.13,4.54,4.54,0,0,1,2.37-.31,5.74,5.74,0,0,1,1.6.4,3.48,3.48,0,0,1,1.27.89,4.18,4.18,0,0,1,.84,1.52,7.31,7.31,0,0,1,.31,2.27v7.15l-3-.31v-6.53a3,3,0,0,0-.63-2.09,2.56,2.56,0,0,0-3.15-.45,2.13,2.13,0,0,0-1,1.13v7.45l-3-.32c0-3.59,0-5.38,0-9l-1.65-.18v-2.53Z"/><path class="cls-4" d="M161,449.15a11.54,11.54,0,0,1,2.13-.5,11.86,11.86,0,0,1,2.86,0,6.7,6.7,0,0,1,2,.49,3.85,3.85,0,0,1,1.36.95,3.5,3.5,0,0,1,.75,1.33,5.77,5.77,0,0,1,.23,1.68q0,1.17-.08,2c-0.05.54-.08,1-0.08,1.46a10,10,0,0,0,0,1.09c0,0.21.05,0.43,0.07,0.63l1.49,0.14c0,1,0,1.52,0,2.53l-3.86-.37-0.3-1.59h-0.11a3.43,3.43,0,0,1-1.3,1.1,4.12,4.12,0,0,1-2.28.29,4.25,4.25,0,0,1-2.72-1.19,3.8,3.8,0,0,1-.65-4.17,2.57,2.57,0,0,1,1-1,4.44,4.44,0,0,1,1.62-.51,9.32,9.32,0,0,1,2.11,0q0.41,0,.87.13l1.12,0.2a2.32,2.32,0,0,0,0-.46v-0.44a1.62,1.62,0,0,0-.5-1.3,2.65,2.65,0,0,0-1.48-.52,6.71,6.71,0,0,0-2.1.09,12.31,12.31,0,0,0-1.57.44Zm3.91,8.83a2.58,2.58,0,0,0,1.64-.24,2.34,2.34,0,0,0,.8-0.78v-1.38l-0.68-.17a8.14,8.14,0,0,0-1-.15,4.67,4.67,0,0,0-.86,0,2.68,2.68,0,0,0-.77.18,1.32,1.32,0,0,0-.55.39,1,1,0,0,0-.2.65,1.44,1.44,0,0,0,.37,1A1.92,1.92,0,0,0,164.93,458Z"/><path class="cls-4" d="M178.27,461.52c0-2.81,0-4.22,0-7a5.64,5.64,0,0,0-.09-1.12,2.35,2.35,0,0,0-.24-0.69,0.85,0.85,0,0,0-.37-0.36,1.37,1.37,0,0,0-.45-0.12A1.13,1.13,0,0,0,176,453v8.33L173.2,461c0-4.6,0-6.9,0-11.5l2.18,0.2,0.32,1.3h0.07a2.46,2.46,0,0,1,1-1,2.68,2.68,0,0,1,1.56-.28,3.27,3.27,0,0,1,1.45.5,2.21,2.21,0,0,1,.94,1.37,2.26,2.26,0,0,1,1.06-1.14,2.79,2.79,0,0,1,1.54-.29,3.54,3.54,0,0,1,1.11.27,2.23,2.23,0,0,1,.86.69,3.32,3.32,0,0,1,.56,1.23,8,8,0,0,1,.2,1.94v7.86l-2.76-.24c0-2.94,0-4.42,0-7.36a2.51,2.51,0,0,0-.33-1.48,1.13,1.13,0,0,0-.82-0.49,1.21,1.21,0,0,0-.71.13,0.91,0.91,0,0,0-.41.6c0,3.36,0,5,0,8.39Z"/><path class="cls-4" d="M198.81,462.06a3.69,3.69,0,0,1-.77.48,6.94,6.94,0,0,1-1.1.4,8.19,8.19,0,0,1-1.39.25,8.8,8.8,0,0,1-1.61,0,8.18,8.18,0,0,1-2.63-.63,5.81,5.81,0,0,1-3.2-3.39,7.4,7.4,0,0,1-.43-2.58,6.45,6.45,0,0,1,.48-2.61,4.72,4.72,0,0,1,1.32-1.78,5,5,0,0,1,2-1,7.41,7.41,0,0,1,2.44-.18,7.87,7.87,0,0,1,1.81.38,5.44,5.44,0,0,1,1.71.93,4.8,4.8,0,0,1,1.28,1.61,5.38,5.38,0,0,1,.49,2.43,10.69,10.69,0,0,1-.23,2.12l-8.28-.68a2.82,2.82,0,0,0,.31,1.27,2.78,2.78,0,0,0,.76.89,3.64,3.64,0,0,0,1.08.56,5.64,5.64,0,0,0,1.3.26,6.54,6.54,0,0,0,2.27-.13,4.35,4.35,0,0,0,1.44-.67Zm-5-8.62a3.69,3.69,0,0,0-1.13.07,2.86,2.86,0,0,0-1,.4,2.32,2.32,0,0,0-.7.73,2.26,2.26,0,0,0-.32,1l5.66,0.47A2.5,2.5,0,0,0,193.84,453.44Z"/><path class="cls-4" d="M273,451.78l2.63,0.11-0.83,7.23L273,459C273,456.14,273,454.68,273,451.78Zm5,0.21,2.63,0.11-0.83,7.24-1.8-.07C278,456.35,278,454.89,278,452Z"/><path class="cls-4" d="M288.09,458.95H288l0.14,1.91c0,3,0,4.57,0,7.61l-3-.11c0-6.44,0-9.66,0-16.1l2.77,0.1,5.58,10h0.11l-0.21-1.94c0-3.16,0-4.75,0-7.91l3,0.1c0,6.44,0,9.66,0,16.1l-2.77-.09Z"/><path class="cls-4" d="M299.73,458.14a12.19,12.19,0,0,1,2.13-.65,12.06,12.06,0,0,1,2.87-.22,6.46,6.46,0,0,1,2,.34,3.53,3.53,0,0,1,1.36.85,3.21,3.21,0,0,1,.75,1.28,5.6,5.6,0,0,1,.23,1.66c0,0.78,0,1.45-.08,2s-0.08,1-.08,1.47a9.92,9.92,0,0,0,0,1.08c0,0.21.05,0.42,0.07,0.62l1.5,0v2.53l-3.87-.1-0.3-1.57h-0.11a3.8,3.8,0,0,1-1.31,1.2,4.29,4.29,0,0,1-2.29.45,4,4,0,0,1-2.73-1,3.24,3.24,0,0,1-1-2.47,3.59,3.59,0,0,1,.35-1.66,2.84,2.84,0,0,1,1-1.12,4.76,4.76,0,0,1,1.63-.62,9.46,9.46,0,0,1,2.12-.16,8.66,8.66,0,0,1,.87.07l1.12,0.12a2.35,2.35,0,0,0,0-.46V461.4a1.51,1.51,0,0,0-.5-1.27,2.5,2.5,0,0,0-1.49-.42A6.87,6.87,0,0,0,302,460a13.12,13.12,0,0,0-1.58.55Zm3.92,8.55a2.7,2.7,0,0,0,1.64-.36,2.6,2.6,0,0,0,.8-0.84v-1.38L305.4,464a8,8,0,0,0-1-.08,4.71,4.71,0,0,0-.87.06,2.85,2.85,0,0,0-.78.23,1.46,1.46,0,0,0-.55.43,1.06,1.06,0,0,0-.2.66,1.35,1.35,0,0,0,.38,1A1.81,1.81,0,0,0,303.65,466.69Z"/><path class="cls-4" d="M314.16,460.26l-2.28-.05v-2.53l2.28,0.05c0-1,0-1.57,0-2.62l3-.79c0,1.39,0,2.08,0,3.47l6,0.12v2.53l-6-.12v3.29a4,4,0,0,0,.67,2.58,2.36,2.36,0,0,0,1.87.83,4,4,0,0,0,1.13-.13,4.18,4.18,0,0,0,.91-0.36,5.14,5.14,0,0,0,.74-0.49l0.61-.49,1.38,2.09a4.32,4.32,0,0,1-1,.82,8.07,8.07,0,0,1-1.27.64,7.91,7.91,0,0,1-1.42.42,6.74,6.74,0,0,1-1.45.13,5.07,5.07,0,0,1-3.88-1.52,6.79,6.79,0,0,1-1.3-4.59v-3.29Z"/><path class="cls-4" d="M325.31,453.35l4.66,0.07v5.89h0.09a3.82,3.82,0,0,1,1.48-1.15,5,5,0,0,1,2.17-.41,5.45,5.45,0,0,1,1.61.25,3.1,3.1,0,0,1,1.27.77,3.62,3.62,0,0,1,.83,1.45,7.27,7.27,0,0,1,.3,2.25v7.15l-3,0v-6.53a2.88,2.88,0,0,0-.6-2,2.11,2.11,0,0,0-1.57-.64,2.59,2.59,0,0,0-1.57.5,2.75,2.75,0,0,0-1,1.31c0,2.93,0,4.4,0,7.34l-3,0c0-5.43,0-8.14,0-13.57l-1.66,0v-2.53Z"/><path class="cls-4" d="M341.22,458.94a12.42,12.42,0,0,1,2.13-.69,12.13,12.13,0,0,1,2.87-.28,6.4,6.4,0,0,1,2,.3,3.44,3.44,0,0,1,1.36.82,3.12,3.12,0,0,1,.75,1.27,5.55,5.55,0,0,1,.23,1.66c0,0.78,0,1.45-.08,2s-0.08,1-.08,1.47a9.87,9.87,0,0,0,0,1.08c0,0.21.05,0.42,0.07,0.62h1.5v2.53l-3.87,0-0.3-1.57h-0.11a3.92,3.92,0,0,1-1.31,1.22,4.35,4.35,0,0,1-2.29.5,3.91,3.91,0,0,1-2.73-.94,3.17,3.17,0,0,1-1-2.45,3.64,3.64,0,0,1,.35-1.66,2.93,2.93,0,0,1,1-1.14,4.87,4.87,0,0,1,1.63-.65,9.52,9.52,0,0,1,2.12-.2,8.58,8.58,0,0,1,.87.05l1.12,0.1a2.37,2.37,0,0,0,0-.46v-0.44a1.48,1.48,0,0,0-.5-1.26,2.47,2.47,0,0,0-1.49-.39,6.93,6.93,0,0,0-2.11.28,13.4,13.4,0,0,0-1.58.58Zm3.92,8.47a2.74,2.74,0,0,0,1.64-.39,2.68,2.68,0,0,0,.8-0.86v-1.38l-0.68-.11a8,8,0,0,0-1-.06,4.74,4.74,0,0,0-.87.07,2.9,2.9,0,0,0-.78.25,1.5,1.5,0,0,0-.55.44,1.08,1.08,0,0,0-.2.67,1.32,1.32,0,0,0,.38,1A1.78,1.78,0,0,0,345.15,467.42Z"/><path class="cls-4" d="M353.26,458.23h4l0.35,1.52h0.09a4.57,4.57,0,0,1,1.52-1.29,4.83,4.83,0,0,1,2.38-.55,5.45,5.45,0,0,1,1.6.23,3,3,0,0,1,1.28.76,3.66,3.66,0,0,1,.84,1.44,7,7,0,0,1,.31,2.24v7.15h-3v-6.53a2.74,2.74,0,0,0-.63-2,2.2,2.2,0,0,0-1.6-.62,2.64,2.64,0,0,0-1.56.49,2.47,2.47,0,0,0-1,1.23v7.45h-3v-9h-1.66v-2.53Z"/><path class="cls-4" d="M383.67,453.5l2.63,0-0.83,7.28-1.8,0V453.5Zm5-.07,2.63,0-0.83,7.28-1.8,0v-7.27Z"/><path class="cls-4" d="M399.53,467.82a1.69,1.69,0,0,1,.51-1.29,2.2,2.2,0,0,1,2.72-.06,1.62,1.62,0,0,1,.51,1.27,1.73,1.73,0,0,1-.51,1.3,2,2,0,0,1-1.38.51,1.83,1.83,0,0,1-1.34-.46A1.66,1.66,0,0,1,399.53,467.82Z"/><path class="cls-4" d="M420.9,467.69a6.84,6.84,0,0,1-2.21,1.14,9.84,9.84,0,0,1-2.65.43,7.42,7.42,0,0,1-2.66-.36,5.24,5.24,0,0,1-2-1.18,5,5,0,0,1-1.21-1.89,7.06,7.06,0,0,1-.41-2.47,6.57,6.57,0,0,1,.48-2.59,5.63,5.63,0,0,1,1.35-1.94,6,6,0,0,1,2-1.24,8,8,0,0,1,2.56-.47,9.41,9.41,0,0,1,2.42.23,11,11,0,0,1,1.73.52v4l-2.54.08v-2.12a6.46,6.46,0,0,0-1.43-.12,4.37,4.37,0,0,0-1.28.23,3.25,3.25,0,0,0-1.13.65,3.41,3.41,0,0,0-.81,1.09,3.57,3.57,0,0,0-.31,1.55,3.5,3.5,0,0,0,.25,1.35,3,3,0,0,0,1.86,1.75,4.07,4.07,0,0,0,1.51.22,5.49,5.49,0,0,0,2.16-.43,9.05,9.05,0,0,0,1.26-.68Z"/><path class="cls-4" d="M423,463a7.18,7.18,0,0,1,.44-2.59,5.44,5.44,0,0,1,3.17-3.2,7.51,7.51,0,0,1,2.5-.49,7.12,7.12,0,0,1,2.59.35,5.1,5.1,0,0,1,1.92,1.16,4.94,4.94,0,0,1,1.19,1.88,7.83,7.83,0,0,1,0,5.06,5.44,5.44,0,0,1-3.17,3.21,7.47,7.47,0,0,1-2.5.49,7.08,7.08,0,0,1-2.59-.35,5.11,5.11,0,0,1-1.92-1.17,4.93,4.93,0,0,1-1.19-1.88A7.23,7.23,0,0,1,423,463Zm3.09-.1a4.49,4.49,0,0,0,.21,1.4,3.31,3.31,0,0,0,.6,1.11,2.59,2.59,0,0,0,.94.71,2.84,2.84,0,0,0,1.27.22,3,3,0,0,0,2.18-.93,3.82,3.82,0,0,0,.84-2.72,3.86,3.86,0,0,0-.78-2.54,2.61,2.61,0,0,0-2.23-.9,3.63,3.63,0,0,0-1.2.24,2.48,2.48,0,0,0-1,.67,3.23,3.23,0,0,0-.63,1.12A5,5,0,0,0,426,462.88Z"/><path class="cls-4" d="M436.25,456.76l4-.16,0.35,1.5h0.09a4.85,4.85,0,0,1,1.52-1.35,5,5,0,0,1,2.37-.65,5.36,5.36,0,0,1,1.6.16,2.87,2.87,0,0,1,1.28.7,3.47,3.47,0,0,1,.84,1.4,6.86,6.86,0,0,1,.31,2.23v7.15l-3,.13v-6.53a2.64,2.64,0,0,0-.63-2,2.11,2.11,0,0,0-1.6-.55,2.74,2.74,0,0,0-1.55.56,2.62,2.62,0,0,0-1,1.27c0,3,0,4.47,0,7.45l-3,.12v-9l-1.66.06v-2.53Z"/><path class="cls-4" d="M462.38,466a7,7,0,0,1-2.21,1.18,9.94,9.94,0,0,1-2.65.49,7.36,7.36,0,0,1-2.66-.31,5.1,5.1,0,0,1-2-1.14,4.9,4.9,0,0,1-1.21-1.86,7,7,0,0,1-.41-2.47,6.64,6.64,0,0,1,.48-2.6,5.8,5.8,0,0,1,1.35-2,6.19,6.19,0,0,1,2-1.28,8.07,8.07,0,0,1,2.56-.53,9.34,9.34,0,0,1,2.42.18,10.85,10.85,0,0,1,1.73.49v4l-2.53.13v-2.12a6.41,6.41,0,0,0-1.43-.09,4.41,4.41,0,0,0-1.28.26,3.33,3.33,0,0,0-1.13.68,3.51,3.51,0,0,0-.81,1.11,3.61,3.61,0,0,0-.31,1.56,3.46,3.46,0,0,0,.25,1.35,2.95,2.95,0,0,0,1.85,1.72A4,4,0,0,0,458,465a5.56,5.56,0,0,0,2.15-.48,9.27,9.27,0,0,0,1.26-.71Z"/><path class="cls-4" d="M465.69,456.19a13.17,13.17,0,0,1,2.13-.83,12.41,12.41,0,0,1,2.87-.46,6.25,6.25,0,0,1,2,.17,3.17,3.17,0,0,1,1.36.74,2.88,2.88,0,0,1,.75,1.22,5.42,5.42,0,0,1,.23,1.64c0,0.78,0,1.45-.08,2s-0.08,1-.08,1.48a9.76,9.76,0,0,0,0,1.08c0,0.21.05,0.42,0.07,0.62l1.5-.09v2.53l-3.87.22-0.3-1.55h-0.11a4.29,4.29,0,0,1-1.3,1.3,4.53,4.53,0,0,1-2.29.64,3.71,3.71,0,0,1-2.72-.77,3,3,0,0,1-1-2.38,3.78,3.78,0,0,1,.35-1.69,3.21,3.21,0,0,1,1-1.2,5.2,5.2,0,0,1,1.62-.76,9.73,9.73,0,0,1,2.12-.34,8.51,8.51,0,0,1,.87,0l1.12,0a2.41,2.41,0,0,0,0-.46v-0.44a1.39,1.39,0,0,0-.5-1.23,2.36,2.36,0,0,0-1.49-.3,7.12,7.12,0,0,0-2.1.41,14.26,14.26,0,0,0-1.58.68Zm3.92,8.23a2.87,2.87,0,0,0,1.64-.49,2.94,2.94,0,0,0,.8-0.91v-1.38l-0.68-.07a7.91,7.91,0,0,0-1,0,4.84,4.84,0,0,0-.87.13,3.08,3.08,0,0,0-.77.3,1.64,1.64,0,0,0-.55.48,1.13,1.13,0,0,0-.2.68,1.25,1.25,0,0,0,.38,1A1.69,1.69,0,0,0,469.61,464.42Z"/><path class="cls-4" d="M480.11,457.12l-2.28.14v-2.53l2.28-.14V452l3-1c0,1.39,0,2.08,0,3.47l6-.38v2.53l-6,.38v3.29a3.78,3.78,0,0,0,.67,2.52,2.17,2.17,0,0,0,1.87.68,4.11,4.11,0,0,0,1.13-.22,4.53,4.53,0,0,0,.91-0.44,5.72,5.72,0,0,0,.74-0.55l0.61-.55,1.38,2a4.87,4.87,0,0,1-1,.9,8.94,8.94,0,0,1-1.27.75,8.5,8.5,0,0,1-1.42.54,6.93,6.93,0,0,1-1.45.25,4.7,4.7,0,0,1-3.88-1.2q-1.3-1.36-1.3-4.49v-3.29Z"/><path class="cls-4" d="M501.73,469.54a10.09,10.09,0,0,1-3.13-.79,8.3,8.3,0,0,1-2.69-1.86,8.91,8.91,0,0,1-1.88-3,11.57,11.57,0,0,1-.7-4.23,12.38,12.38,0,0,1,.7-4.32,10.93,10.93,0,0,1,1.88-3.29,10.33,10.33,0,0,1,2.69-2.28,12.23,12.23,0,0,1,3.13-1.3l0.55,2.42a10.34,10.34,0,0,0-1.83.79,7.39,7.39,0,0,0-1.94,1.54,8.45,8.45,0,0,0-1.55,2.51,9.66,9.66,0,0,0-.63,3.72A8.19,8.19,0,0,0,497,463a7.16,7.16,0,0,0,1.62,2.27,6.49,6.49,0,0,0,2,1.26,7.35,7.35,0,0,0,1.7.49Z"/><path class="cls-4" d="M508.08,448.1l2.62-.2-0.83,7.33-1.79.13C508.08,452.46,508.08,451,508.08,448.1Zm5-.38,2.62-.2-0.83,7.33L513,455C513,452.08,513,450.63,513,447.72Z"/><path class="cls-4" d="M528.36,455.84l-5.2.43V463l-3.15.26c0-6.44,0-9.66,0-16.1l3.15-.26c0,2.62,0,3.93,0,6.56l5.2-.43c0-2.62,0-3.93,0-6.56l3.15-.27c0,6.44,0,9.66,0,16.1l-3.15.27C528.36,459.88,528.36,458.53,528.36,455.84Z"/><path class="cls-4" d="M544.94,459.88a4.68,4.68,0,0,1-.77.61,8.42,8.42,0,0,1-1.1.6,9.31,9.31,0,0,1-1.39.5,9.19,9.19,0,0,1-1.61.29,7.56,7.56,0,0,1-2.63-.18,4.55,4.55,0,0,1-3.2-2.83,6.8,6.8,0,0,1-.42-2.5,7.08,7.08,0,0,1,.48-2.7,6,6,0,0,1,1.32-2,6.24,6.24,0,0,1,2-1.31,8,8,0,0,1,2.44-.6,7.38,7.38,0,0,1,1.8.07,4.48,4.48,0,0,1,1.71.64,3.72,3.72,0,0,1,1.28,1.39,4.84,4.84,0,0,1,.49,2.34,11.3,11.3,0,0,1-.23,2.16l-8.28.76a2.5,2.5,0,0,0,.31,1.21,2.16,2.16,0,0,0,.76.76,3,3,0,0,0,1.08.38,5.32,5.32,0,0,0,1.3,0,7,7,0,0,0,2.26-.53A5.4,5.4,0,0,0,544,458Zm-5-7.75a4,4,0,0,0-1.13.27,3.52,3.52,0,0,0-1,.57,3,3,0,0,0-.7.85,2.59,2.59,0,0,0-.32,1.08l5.65-.51A2.06,2.06,0,0,0,540,452.13Z"/><path class="cls-4" d="M555.69,456.89a0.74,0.74,0,0,0-.56-0.68,7.48,7.48,0,0,0-1.39-.37c-0.55-.1-1.16-0.2-1.82-0.29a7.52,7.52,0,0,1-1.81-.49,4,4,0,0,1-1.39-.95,2.3,2.3,0,0,1-.56-1.64,3.09,3.09,0,0,1,.38-1.53,4,4,0,0,1,1-1.19,5.39,5.39,0,0,1,1.56-.83,8.41,8.41,0,0,1,2-.42,10.66,10.66,0,0,1,2,0,9.07,9.07,0,0,1,1.48.24,4.92,4.92,0,0,1,1.08.41l0.77,0.44-1.26,2.17q-0.35-.17-0.79-0.35a9.81,9.81,0,0,0-.94-0.31,6.83,6.83,0,0,0-1-.2,5.08,5.08,0,0,0-1.07,0,4.31,4.31,0,0,0-1.56.41,0.94,0.94,0,0,0-.6.84,0.68,0.68,0,0,0,.56.61,8.45,8.45,0,0,0,1.39.34l1.81,0.29a8.91,8.91,0,0,1,1.82.48,3.78,3.78,0,0,1,1.39.91,2.22,2.22,0,0,1,.56,1.6,3.67,3.67,0,0,1-1.27,2.88,6.56,6.56,0,0,1-3.78,1.37,8.65,8.65,0,0,1-3.41-.26,7,7,0,0,1-2.31-1.15l1.38-2.29a6.07,6.07,0,0,0,.79.49,6.49,6.49,0,0,0,1.12.46,8.8,8.8,0,0,0,1.32.3,5.64,5.64,0,0,0,1.39,0,3.11,3.11,0,0,0,1.26-.38A1,1,0,0,0,555.69,456.89Z"/><path class="cls-4" d="M569.47,455.48a0.73,0.73,0,0,0-.56-0.68,7.45,7.45,0,0,0-1.39-.36c-0.55-.1-1.16-0.19-1.81-0.28a7.48,7.48,0,0,1-1.81-.48,3.93,3.93,0,0,1-1.39-.94,2.29,2.29,0,0,1-.56-1.63,3.11,3.11,0,0,1,.38-1.53,4,4,0,0,1,1-1.2,5.44,5.44,0,0,1,1.56-.84,8.44,8.44,0,0,1,2-.43,10.66,10.66,0,0,1,2,0,9,9,0,0,1,1.48.23,4.88,4.88,0,0,1,1.08.4l0.77,0.44-1.26,2.18q-0.35-.17-0.79-0.34a9.74,9.74,0,0,0-.94-0.3,6.81,6.81,0,0,0-1-.19,5.06,5.06,0,0,0-1.07,0,4.33,4.33,0,0,0-1.56.42,1,1,0,0,0-.6.84,0.67,0.67,0,0,0,.56.61,8.41,8.41,0,0,0,1.39.33l1.81,0.28a8.86,8.86,0,0,1,1.81.46,3.74,3.74,0,0,1,1.39.9,2.21,2.21,0,0,1,.56,1.6,3.7,3.7,0,0,1-1.27,2.88,6.6,6.6,0,0,1-3.78,1.4A8.63,8.63,0,0,1,564,459a6.94,6.94,0,0,1-2.31-1.13l1.38-2.3a6,6,0,0,0,.79.48,6.44,6.44,0,0,0,1.11.45,8.76,8.76,0,0,0,1.32.29,5.65,5.65,0,0,0,1.39,0,3.13,3.13,0,0,0,1.26-.38A1,1,0,0,0,569.47,455.48Z"/><path class="cls-4" d="M576,441.85l4.89-.54c0,4.25,0,6.38,0,10.63a4.65,4.65,0,0,0,.44,2.41,1.37,1.37,0,0,0,1.4.53,4.08,4.08,0,0,0,1.17-.28,5,5,0,0,0,.92-0.53L586,456q-0.39.3-.78,0.56a5.79,5.79,0,0,1-.83.46,6.13,6.13,0,0,1-1,.34,7.85,7.85,0,0,1-1.16.21,4,4,0,0,1-3.24-.74,3.88,3.88,0,0,1-1.08-3c0-3.86,0-5.8,0-9.66l-1.91.21C576,443.37,576,442.87,576,441.85Z"/><path class="cls-4" d="M600,454a4.85,4.85,0,0,1-.77.63,8.73,8.73,0,0,1-1.1.63,9.48,9.48,0,0,1-1.39.53,9.32,9.32,0,0,1-1.6.33,7.49,7.49,0,0,1-2.63-.1,4.38,4.38,0,0,1-3.19-2.74,6.71,6.71,0,0,1-.42-2.49,7.2,7.2,0,0,1,.48-2.71,6.24,6.24,0,0,1,1.32-2,6.46,6.46,0,0,1,2-1.37,8.16,8.16,0,0,1,2.43-.67,7.34,7.34,0,0,1,1.8,0,4.35,4.35,0,0,1,1.71.59,3.57,3.57,0,0,1,1.27,1.35,4.77,4.77,0,0,1,.49,2.33,11.43,11.43,0,0,1-.23,2.17l-8.26,1a2.45,2.45,0,0,0,.31,1.21,2.07,2.07,0,0,0,.76.74,2.92,2.92,0,0,0,1.08.35,5.29,5.29,0,0,0,1.3,0,7.16,7.16,0,0,0,2.26-.59,5.59,5.59,0,0,0,1.43-1Zm-5-7.62a4,4,0,0,0-1.12.3,3.65,3.65,0,0,0-1,.59,3.11,3.11,0,0,0-.7.87,2.66,2.66,0,0,0-.32,1.09l5.64-.67A2,2,0,0,0,595.08,446.35Z"/><path class="cls-4" d="M602.45,452.36l2.84-.35c0-2.58,0-3.86,0-6.44l-2.84.35c0-1,0-1.52,0-2.53l5.16-.64,0.34,1.47H608a7.33,7.33,0,0,1,1.47-1.45,4,4,0,0,1,1.92-.75,2.3,2.3,0,0,1,2.17.73,5.1,5.1,0,0,1,.79,3.28l-2.68.34a2.14,2.14,0,0,0-.24-1.18,0.74,0.74,0,0,0-.77-0.28,2.55,2.55,0,0,0-1.48.65,5.57,5.57,0,0,0-1,1.18c0,2,0,2.94,0,4.9l5-.63c0,1,0,1.52,0,2.53-4.32.55-6.48,0.82-10.8,1.35C602.45,453.88,602.45,453.37,602.45,452.36Z"/><path class="cls-4" d="M618.31,436.78l2.61-.34-0.83,7.38-1.79.23C618.31,441.14,618.31,439.69,618.31,436.78Zm4.95-.65,2.61-.35L625,443.16l-1.79.24C623.26,440.49,623.26,439,623.26,436.13Z"/><path class="cls-4" d="M631.8,453.44a9,9,0,0,0,1.69-.84,8.73,8.73,0,0,0,2-1.67,9.53,9.53,0,0,0,1.61-2.61,9.22,9.22,0,0,0,.66-3.66,8.74,8.74,0,0,0-.63-3.59,6.37,6.37,0,0,0-1.55-2.19,5.52,5.52,0,0,0-1.93-1.13,8.55,8.55,0,0,0-1.82-.4l0.55-2.54a10.17,10.17,0,0,1,3.11.65,7.64,7.64,0,0,1,2.68,1.72,8.3,8.3,0,0,1,1.87,2.9,11.25,11.25,0,0,1,.7,4.17,12.87,12.87,0,0,1-.7,4.38,11.7,11.7,0,0,1-1.87,3.39,11.18,11.18,0,0,1-2.68,2.42,12.17,12.17,0,0,1-3.11,1.44Z"/></svg>