<svg id="Layer_1" data-name="Layer 1" xmlns="http://www.w3.org/2000/svg" viewBox="0 0 720 576"><defs><style>.cls-1,.cls-2,.cls-4,.cls-6{fill:#231f20;}.cls-1,.cls-3{stroke:#231f20;}.cls-1,.cls-6{stroke-miterlimit:10;}.cls-1,.cls-2,.cls-3{stroke-width:2px;}.cls-2{stroke:#000;}.cls-2,.cls-3{stroke-linecap:round;stroke-linejoin:round;}.cls-3,.cls-5{fill:#fff;}.cls-6{stroke:#fff;}</style></defs><title>Hanoi_Tower_Set_5</title><path class="cls-1" d="M686.81,506.49c0-.14,0-0.29,0-0.43s0-.29,0-0.43V453.84H40.93s-0.25,51.74-.25,52.22c0,2.67,2.32,5.24,6.64,7.71,15.13,8.61,55.2,16.11,111,21.48s127.39,8.59,205.41,8.59c89.17,0,169.9-4.21,228.35-11,29.22-3.41,52.88-7.46,69.24-12,8.18-2.25,14.54-4.62,18.86-7.08,3.69-2.1,5.91-4.29,6.48-6.55h0.11v-0.73Z"/><ellipse class="cls-2" cx="363.77" cy="454.92" rx="322.89" ry="37.63"/><path class="cls-3" d="M686.81,455c0-.14,0-0.29,0-0.43s0-.29,0-0.43V402.36H40.93s-0.25,51.74-.25,52.22c0,2.67,2.32,5.24,6.64,7.71,15.13,8.61,55.2,16.11,111,21.48s127.39,8.59,205.41,8.59c89.17,0,169.9-4.21,228.35-11,29.22-3.41,52.88-7.46,69.24-12,8.18-2.25,14.54-4.62,18.86-7.08,3.69-2.1,5.91-4.29,6.48-6.55h0.11V455Z"/><ellipse class="cls-3" cx="363.77" cy="403.44" rx="322.89" ry="37.63"/><path class="cls-3" d="M686.81,403.53c0-.14,0-0.29,0-0.43s0-.29,0-0.43V350.88H40.93s-0.25,51.74-.25,52.22c0,2.67,2.32,5.24,6.64,7.71,15.13,8.61,55.2,16.11,111,21.48s127.39,8.59,205.41,8.59c89.17,0,169.9-4.21,228.35-11,29.22-3.41,52.88-7.46,69.24-12,8.18-2.25,14.54-4.62,18.86-7.08,3.69-2.1,5.91-4.29,6.48-6.55h0.11v-0.73Z"/><ellipse class="cls-3" cx="363.77" cy="351.97" rx="322.89" ry="37.63"/><path class="cls-3" d="M686.81,352.06c0-.14,0-0.29,0-0.43s0-.29,0-0.43V299.4H40.93s-0.25,51.74-.25,52.22c0,2.67,2.32,5.24,6.64,7.71,15.13,8.61,55.2,16.11,111,21.48s127.39,8.59,205.41,8.59c89.17,0,169.9-4.21,228.35-11,29.22-3.41,52.88-7.46,69.24-12,8.18-2.25,14.54-4.62,18.86-7.08,3.69-2.1,5.91-4.29,6.48-6.55h0.11v-0.73Z"/><ellipse class="cls-3" cx="363.77" cy="300.49" rx="322.89" ry="37.63"/><path class="cls-3" d="M686.81,302.06c0-.14,0-0.29,0-0.43s0-.29,0-0.43V249.4H40.93s-0.25,51.74-.25,52.22c0,2.67,2.32,5.24,6.64,7.71,15.13,8.61,55.2,16.11,111,21.48s127.39,8.59,205.41,8.59c89.17,0,169.9-4.21,228.35-11,29.22-3.41,52.88-7.46,69.24-12,8.18-2.25,14.54-4.62,18.86-7.08,3.69-2.1,5.91-4.29,6.48-6.55h0.11v-0.73Z"/><ellipse class="cls-3" cx="363.77" cy="250.49" rx="322.89" ry="37.63"/><path class="cls-4" d="M364.8,259.78c-16,0-29-3.75-30.2-8.61h-0.08l0-.5V8.27h60.63V251.17H395C393.77,256,380.77,259.78,364.8,259.78Z"/><path class="cls-5" d="M394.62,8.77v241.9h0c-0.49,4.78-13.63,8.61-29.79,8.61s-29.3-3.83-29.79-8.61h0v-0.21s0,0,0-.06,0,0,0-.06V8.77h59.63m1-1H334V250.29s0,0.07,0,.11v1.27h0.23c2,5.6,16.84,8.61,30.58,8.61s28.6-3,30.58-8.61h0.21l0-1V7.77h0Z"/><ellipse class="cls-6" cx="364.8" cy="8.89" rx="29.81" ry="8.89"/><path d="M56.15,295.63V293L59,293.52V286.8l-2.83-.54v-2.64L59,284.16v-0.67a4,4,0,0,1,.39-1.87,3,3,0,0,1,1-1.15,3.45,3.45,0,0,1,1.49-.5,5.94,5.94,0,0,1,1.75.07,12.29,12.29,0,0,1,2.7.78,8.52,8.52,0,0,1,1.75,1L67.17,284a13.53,13.53,0,0,0-1.18-.7,5.78,5.78,0,0,0-1.63-.52,2,2,0,0,0-1.8.25,2.25,2.25,0,0,0-.51,1.67l5,0.93v2.64l-5-.93v6.72l5,0.93v2.64C62.7,296.87,60.52,296.46,56.15,295.63Z"/><path d="M70.88,287.19a11.4,11.4,0,0,1,2.2-.35,12.33,12.33,0,0,1,3,.22,7.35,7.35,0,0,1,2.11.67,4.49,4.49,0,0,1,1.41,1.1,4,4,0,0,1,.77,1.46,6.27,6.27,0,0,1,.24,1.77q0,1.22-.08,2.07c-0.06.57-.08,1.08-0.08,1.52a10.76,10.76,0,0,0,0,1.14c0,0.22.06,0.45,0.07,0.66l1.55,0.27v2.64l-4-.7L77.77,298l-0.12,0a3.19,3.19,0,0,1-1.35,1,4.16,4.16,0,0,1-2.37.12,4.82,4.82,0,0,1-2.82-1.47,3.93,3.93,0,0,1-1-2.73,3.43,3.43,0,0,1,.37-1.67,2.37,2.37,0,0,1,1.07-1,4.32,4.32,0,0,1,1.68-.39,9.72,9.72,0,0,1,2.19.17c0.28,0.05.59,0.12,0.9,0.21l1.16,0.3a2.36,2.36,0,0,0,0-.47v-0.46a1.83,1.83,0,0,0-.52-1.4,3,3,0,0,0-1.54-.67,6.92,6.92,0,0,0-2.18-.08,12.13,12.13,0,0,0-1.63.33Zm4.05,9.54a2.59,2.59,0,0,0,1.7-.12,2.17,2.17,0,0,0,.82-0.75v-1.44l-0.71-.23a8.71,8.71,0,0,0-1-.24,4.9,4.9,0,0,0-.9-0.08,2.61,2.61,0,0,0-.8.12,1.24,1.24,0,0,0-.57.37,1,1,0,0,0-.21.66,1.62,1.62,0,0,0,.39,1.11A2.17,2.17,0,0,0,74.94,296.72Z"/><path d="M96.06,301.58a5.72,5.72,0,0,1-2.29.74,9.69,9.69,0,0,1-2.74-.09,8.69,8.69,0,0,1-2.76-.92,7.11,7.11,0,0,1-2-1.63A6.83,6.83,0,0,1,85,297.46a8.15,8.15,0,0,1-.43-2.67,6.2,6.2,0,0,1,.5-2.6,4.44,4.44,0,0,1,1.39-1.75,4.9,4.9,0,0,1,2.11-.88,7.82,7.82,0,0,1,2.65,0,10.77,10.77,0,0,1,2.51.73,13.66,13.66,0,0,1,1.79.9v4.22L92.88,295V292.8a7.4,7.4,0,0,0-1.48-.42,4.31,4.31,0,0,0-1.32,0,2.59,2.59,0,0,0-2,1.42,3.33,3.33,0,0,0-.32,1.55A4.09,4.09,0,0,0,88,296.8a4.23,4.23,0,0,0,.74,1.25,4.31,4.31,0,0,0,1.18,1,4.77,4.77,0,0,0,1.56.54,5.3,5.3,0,0,0,2.23,0,7.43,7.43,0,0,0,1.3-.46Z"/><path d="M100.12,294l-2.36-.39V291l2.36,0.39c0-1.09,0-1.64,0-2.74l3.1-.39v3.63l6.26,1v2.64l-6.26-1V298a4.67,4.67,0,0,0,.69,2.79,2.86,2.86,0,0,0,1.93,1.14,4,4,0,0,0,1.17,0,3.8,3.8,0,0,0,.94-0.25,4.43,4.43,0,0,0,.76-0.41l0.63-.43,1.43,2.38a3.67,3.67,0,0,1-1,.72,7.18,7.18,0,0,1-1.31.49,7.42,7.42,0,0,1-1.47.24,6.85,6.85,0,0,1-1.5-.07,6.09,6.09,0,0,1-4-2.15,7.93,7.93,0,0,1-1.35-5V294Z"/><path d="M112.51,299.36a6.89,6.89,0,0,1,.45-2.62,4.46,4.46,0,0,1,1.29-1.79,4.55,4.55,0,0,1,2-.93,7.32,7.32,0,0,1,2.59,0,8.29,8.29,0,0,1,2.69.86,6.84,6.84,0,0,1,2,1.58,6.52,6.52,0,0,1,1.23,2.19,8.24,8.24,0,0,1,.42,2.65,6.89,6.89,0,0,1-.45,2.62,4.51,4.51,0,0,1-1.29,1.8,4.56,4.56,0,0,1-2,.94,7.27,7.27,0,0,1-2.59,0,8.23,8.23,0,0,1-2.69-.86,6.85,6.85,0,0,1-2-1.59,6.61,6.61,0,0,1-1.23-2.19A8.28,8.28,0,0,1,112.51,299.36Zm3.2,0.49a5.11,5.11,0,0,0,.21,1.5,4.31,4.31,0,0,0,.62,1.27,3.5,3.5,0,0,0,1,.93,3.38,3.38,0,0,0,1.31.47,2.67,2.67,0,0,0,2.26-.55,3.41,3.41,0,0,0,.87-2.68,4.7,4.7,0,0,0-.81-2.8,3.32,3.32,0,0,0-2.32-1.37,3.52,3.52,0,0,0-1.24,0,2,2,0,0,0-1,.51,2.63,2.63,0,0,0-.66,1.05A4.86,4.86,0,0,0,115.71,299.86Z"/><path d="M126.95,304.89l3,0.43V298.6l-3-.43c0-1.06,0-1.58,0-2.64l5.38,0.78,0.36,1.64h0.1a5.12,5.12,0,0,1,1.53-1.1,3.5,3.5,0,0,1,2-.24,3.2,3.2,0,0,1,2.26,1.37,6.39,6.39,0,0,1,.83,3.64l-2.8-.39a2.64,2.64,0,0,0-.25-1.3,1,1,0,0,0-.8-0.51,2.15,2.15,0,0,0-1.54.26,3.9,3.9,0,0,0-1,1v5.11l5.19,0.73v2.64c-4.51-.63-6.76-0.95-11.27-1.6C126.95,306.48,126.95,306,126.95,304.89Z"/><path d="M141.78,307l4.21,0.57c0-2.69,0-4,0-6.72l-4.21-.57c0-1.06,0-1.58,0-2.64l7.33,1V308l4.43,0.58c0,1.06,0,1.58,0,2.64-4.71-.61-7.06-0.92-11.76-1.56V307Zm3.64-12.13a1.48,1.48,0,0,1,.55-1.2,1.92,1.92,0,0,1,1.53-.32,2.67,2.67,0,0,1,1.61.74,1.89,1.89,0,0,1,.6,1.35,1.35,1.35,0,0,1-.6,1.18,2.24,2.24,0,0,1-1.61.28,2.52,2.52,0,0,1-1.53-.7A1.85,1.85,0,0,1,145.42,294.86Z"/><path d="M156.9,300.44a11.87,11.87,0,0,1,2.22-.46,12.4,12.4,0,0,1,3,.06,7.11,7.11,0,0,1,2.12.56,4.18,4.18,0,0,1,1.41,1,3.76,3.76,0,0,1,.78,1.42,6.1,6.1,0,0,1,.24,1.76q0,1.22-.08,2.08c-0.06.57-.08,1.08-0.08,1.53a10.64,10.64,0,0,0,0,1.13c0,0.22.06,0.45,0.07,0.66l1.56,0.19V313l-4-.49-0.31-1.67H163.7a3.46,3.46,0,0,1-1.36,1.12,4.26,4.26,0,0,1-2.38.24,4.57,4.57,0,0,1-2.83-1.32,3.72,3.72,0,0,1-1-2.68,3.53,3.53,0,0,1,.37-1.69,2.57,2.57,0,0,1,1.07-1.06,4.55,4.55,0,0,1,1.69-.48,9.77,9.77,0,0,1,2.2,0c0.29,0,.59.09,0.91,0.16l1.17,0.24a2.39,2.39,0,0,0,0-.47v-0.46a1.73,1.73,0,0,0-.52-1.37,2.83,2.83,0,0,0-1.55-.59,7,7,0,0,0-2.19,0,12.67,12.67,0,0,0-1.64.42Zm4.08,9.32a2.66,2.66,0,0,0,1.71-.21,2.35,2.35,0,0,0,.83-0.8v-1.44l-0.71-.2a8.59,8.59,0,0,0-1-.19,4.91,4.91,0,0,0-.9,0,2.72,2.72,0,0,0-.81.16,1.33,1.33,0,0,0-.57.4,1,1,0,0,0-.21.67,1.54,1.54,0,0,0,.39,1.09A2.06,2.06,0,0,0,161,309.76Z"/><path d="M171.21,296.57l5.11,0.6c0,4.44,0,6.65,0,11.09a5.49,5.49,0,0,0,.45,2.62,1.83,1.83,0,0,0,1.46.89,3.93,3.93,0,0,0,1.22,0,4.06,4.06,0,0,0,1-.34l1.18,2.29q-0.41.22-.82,0.4a4.66,4.66,0,0,1-.86.29,5.5,5.5,0,0,1-1,.13,7.93,7.93,0,0,1-1.21-.05,5.08,5.08,0,0,1-3.38-1.54,5,5,0,0,1-1.13-3.39c0-4,0-6,0-10.08l-2-.23C171.21,298.16,171.21,297.63,171.21,296.57Z"/><path d="M185.39,317.79c4.26,0.47,6.39.69,10.66,1.13,0,1,0,1.54,0,2.57-4.26-.44-6.4-0.66-10.66-1.13C185.39,319.33,185.39,318.82,185.39,317.79Z"/><path d="M197.92,299.51l4.85,0.49c0,2.46,0,3.69,0,6.15h0.1a3.54,3.54,0,0,1,1.54-1.07,5,5,0,0,1,2.26-.24,6,6,0,0,1,1.68.4,3.62,3.62,0,0,1,1.32.92,4.21,4.21,0,0,1,.87,1.58,7.85,7.85,0,0,1,.31,2.37c0,3,0,4.48,0,7.46l-3.12-.3c0-2.73,0-4.09,0-6.82a3.21,3.21,0,0,0-.62-2.17,2.4,2.4,0,0,0-1.63-.81,2.53,2.53,0,0,0-1.63.38,2.56,2.56,0,0,0-1.06,1.28c0,3.06,0,4.59,0,7.66l-3.12-.31c0-5.66,0-8.5,0-14.16l-1.73-.17C197.92,301.09,197.92,300.56,197.92,299.51Z"/><path d="M225.17,317.57a3.75,3.75,0,0,1-.81.5,7.06,7.06,0,0,1-1.15.42,8.48,8.48,0,0,1-1.45.26,9.3,9.3,0,0,1-1.68,0,8.57,8.57,0,0,1-2.75-.68,6.13,6.13,0,0,1-3.34-3.55,7.74,7.74,0,0,1-.44-2.69,6.72,6.72,0,0,1,.5-2.73,4.89,4.89,0,0,1,1.38-1.85,5.19,5.19,0,0,1,2.05-1,7.74,7.74,0,0,1,2.55-.17,8.23,8.23,0,0,1,1.89.41,5.72,5.72,0,0,1,1.79,1,5,5,0,0,1,1.33,1.68,5.62,5.62,0,0,1,.52,2.54,11.15,11.15,0,0,1-.24,2.21l-8.65-.76a2.82,2.82,0,0,0,1.12,2.26,3.78,3.78,0,0,0,1.13.59,5.94,5.94,0,0,0,1.36.28,6.82,6.82,0,0,0,2.37-.13,4.53,4.53,0,0,0,1.5-.69Zm-5.19-9a3.88,3.88,0,0,0-1.18.07,3,3,0,0,0-1,.41,2.41,2.41,0,0,0-.73.75,2.35,2.35,0,0,0-.34,1.07l5.91,0.52a2.85,2.85,0,0,0-.66-2A2.88,2.88,0,0,0,220,308.56Z"/><path d="M228.85,302.35l5.12,0.41c0,4.44,0,6.65,0,11.09a5.36,5.36,0,0,0,.46,2.6,1.76,1.76,0,0,0,1.47.84,4,4,0,0,0,1.23-.06,4.25,4.25,0,0,0,1-.37l1.18,2.25c-0.27.16-.55,0.3-0.82,0.43a4.88,4.88,0,0,1-.87.32,5.67,5.67,0,0,1-1,.16,7.88,7.88,0,0,1-1.22,0,4.91,4.91,0,0,1-3.39-1.42,4.79,4.79,0,0,1-1.13-3.36c0-4,0-6,0-10.08l-2-.16C228.85,303.94,228.85,303.41,228.85,302.35Z"/><path d="M241.18,308.12l4.09,0.3,0.36,1.47h0.1a4.3,4.3,0,0,1,4-1.49,6,6,0,0,1,2,.49,4.36,4.36,0,0,1,1.59,1.2,5.57,5.57,0,0,1,1,1.94,9.19,9.19,0,0,1,.36,2.74,8.55,8.55,0,0,1-.41,2.74,5.41,5.41,0,0,1-1.18,2,4.62,4.62,0,0,1-1.88,1.19,6.37,6.37,0,0,1-2.53.28,10.18,10.18,0,0,1-1.47-.21,4.28,4.28,0,0,1-1.2-.43c0,2,0,3,0,4.92l-3.13-.23c0-5.66,0-8.5,0-14.16l-1.8-.13v-2.64Zm7.65,2.86a3,3,0,0,0-1.67.34,2.14,2.14,0,0,0-1,1.29c0,2,0,3,0,5a2.8,2.8,0,0,0,1,.49,5.54,5.54,0,0,0,1.29.25,3.28,3.28,0,0,0,1.25-.14,2.32,2.32,0,0,0,1-.66,3.26,3.26,0,0,0,.67-1.23,6.08,6.08,0,0,0,.24-1.83,3.77,3.77,0,0,0-.77-2.5A2.7,2.7,0,0,0,248.83,311Z"/><path d="M268.48,320.66a3.93,3.93,0,0,1-.81.52,7.24,7.24,0,0,1-1.16.45,8.67,8.67,0,0,1-1.46.3,9.34,9.34,0,0,1-1.69,0,8.45,8.45,0,0,1-2.76-.6,5.9,5.9,0,0,1-3.35-3.47,7.63,7.63,0,0,1-.44-2.68,6.8,6.8,0,0,1,.51-2.74,5.07,5.07,0,0,1,1.38-1.89,5.36,5.36,0,0,1,2.06-1.06,7.82,7.82,0,0,1,2.55-.24,8.15,8.15,0,0,1,1.89.35,5.56,5.56,0,0,1,1.79.94,4.85,4.85,0,0,1,1.34,1.65,5.51,5.51,0,0,1,.52,2.53,11.16,11.16,0,0,1-.24,2.22l-8.67-.53a2.88,2.88,0,0,0,.32,1.32,2.82,2.82,0,0,0,.79.91,3.66,3.66,0,0,0,1.13.56,5.85,5.85,0,0,0,1.36.24,6.88,6.88,0,0,0,2.37-.19,4.67,4.67,0,0,0,1.5-.73Zm-5.2-8.88a3.9,3.9,0,0,0-1.18.1,3.07,3.07,0,0,0-1,.44,2.52,2.52,0,0,0-.73.77,2.4,2.4,0,0,0-.34,1.08l5.92,0.36a2.78,2.78,0,0,0-.66-1.93A2.81,2.81,0,0,0,263.27,311.79Z"/><path d="M271,319.44l3,0.17c0-2.69,0-4,0-6.72l-3-.17c0-1.06,0-1.58,0-2.64l5.42,0.3,0.36,1.6h0.1a5.87,5.87,0,0,1,1.54-1.24,3.69,3.69,0,0,1,2-.42,2.9,2.9,0,0,1,2.28,1.17,6,6,0,0,1,.83,3.57l-2.82-.14a2.5,2.5,0,0,0-.25-1.27,0.94,0.94,0,0,0-.81-0.44,2.3,2.3,0,0,0-1.55.4,4.47,4.47,0,0,0-1,1.05v5.11l5.23,0.27v2.64c-4.54-.23-6.81-0.35-11.34-0.6C271,321,271,320.5,271,319.44Z"/><path d="M295.47,328.37a11.57,11.57,0,0,1-3.28-1.2,10.18,10.18,0,0,1-2.82-2.26,10.77,10.77,0,0,1-2-3.36,12.72,12.72,0,0,1-.73-4.5,12.2,12.2,0,0,1,.73-4.42,9.84,9.84,0,0,1,2-3.21,9.18,9.18,0,0,1,2.82-2.06,11.56,11.56,0,0,1,3.28-1l0.58,2.59a9.61,9.61,0,0,0-1.92.6,6.6,6.6,0,0,0-2,1.38,7.55,7.55,0,0,0-1.63,2.44,9.49,9.49,0,0,0-.66,3.81,9.06,9.06,0,0,0,.7,3.75,8.72,8.72,0,0,0,1.7,2.56,8,8,0,0,0,2.06,1.55,8.54,8.54,0,0,0,1.78.71Z"/><path d="M312.12,318.68a5.23,5.23,0,0,1-1.66,3.88,5.42,5.42,0,0,1-1.84,1.12,6,6,0,0,1-2.3.35,7,7,0,0,1-2.35-.48,5.58,5.58,0,0,1-1.92-1.26,6,6,0,0,1-1.3-2,7.58,7.58,0,0,1-.48-2.8,10.64,10.64,0,0,1,.83-4.29,11.33,11.33,0,0,1,2.13-3.29,10.57,10.57,0,0,1,2.92-2.2,9.54,9.54,0,0,1,3.2-1l0.7,2.5a9.16,9.16,0,0,0-2.39.7,8.33,8.33,0,0,0-2,1.24,7.51,7.51,0,0,0-1.46,1.65,5.76,5.76,0,0,0-.81,1.92,3.53,3.53,0,0,1,1.45-1,5.17,5.17,0,0,1,2.12-.35,5.93,5.93,0,0,1,2,.42,4.85,4.85,0,0,1,1.63,1.06,4.92,4.92,0,0,1,1.08,1.65A5.76,5.76,0,0,1,312.12,318.68Zm-3,0a2.54,2.54,0,0,0-.78-2,3.23,3.23,0,0,0-2.11-.74,3.42,3.42,0,0,0-1.74.37,2.92,2.92,0,0,0-1.13,1,4.1,4.1,0,0,0-.06.59c0,0.22,0,.39,0,0.52a3.25,3.25,0,0,0,.19,1.11,2.79,2.79,0,0,0,.57.94,2.82,2.82,0,0,0,.9.66,3.16,3.16,0,0,0,1.23.27,3,3,0,0,0,2-.7,2.64,2.64,0,0,0,.66-0.85A2.49,2.49,0,0,0,309.09,318.71Z"/><path d="M314.34,315.54a14.14,14.14,0,0,1,.46-3.81,7.64,7.64,0,0,1,1.29-2.69,5.16,5.16,0,0,1,2-1.56,6,6,0,0,1,2.59-.47,5.75,5.75,0,0,1,4.69,2.24q1.64,2.16,1.65,6.63a14.25,14.25,0,0,1-.46,3.84,7.81,7.81,0,0,1-1.29,2.71,5.1,5.1,0,0,1-2,1.58,6,6,0,0,1-2.6.47A5.59,5.59,0,0,1,316,322.1,11.27,11.27,0,0,1,314.34,315.54Zm3.13,0.09c0,0.24,0,.47,0,0.68s0,0.44,0,.66l5.83-5.2a2.78,2.78,0,0,0-2.7-2.13,2.5,2.5,0,0,0-2.35,1.41A9.65,9.65,0,0,0,317.47,315.63Zm6.41,0.17q0-.38,0-0.73c0-.23,0-0.46,0-0.68l-5.86,5.2a2.84,2.84,0,0,0,2.7,2.26,2.53,2.53,0,0,0,2.37-1.4A9.67,9.67,0,0,0,323.88,315.8Z"/><path d="M333.14,322.88a1.61,1.61,0,0,1,.54-1.28,2,2,0,0,1,1.36-.46,2.43,2.43,0,0,1,2,.9,3.42,3.42,0,0,1,.67,2.15,4.49,4.49,0,0,1-.42,2,5.07,5.07,0,0,1-1.1,1.52,5.82,5.82,0,0,1-1.51,1,6,6,0,0,1-1.65.52l-0.65-1.33a7,7,0,0,0,1.17-.39,4.62,4.62,0,0,0,1.07-.64,3.6,3.6,0,0,0,.81-0.91,2.51,2.51,0,0,0,.37-1.15,3.08,3.08,0,0,1-1.23,0,1.91,1.91,0,0,1-.83-0.4,1.62,1.62,0,0,1-.47-0.68A2.5,2.5,0,0,1,333.14,322.88Z"/><path d="M355,324.68c-4.3,0-6.45,0-10.75-.09v-2.33l0.72-.63,1-.89q0.54-.5,1.14-1.09t1.18-1.24q0.82-.9,1.43-1.64a11.47,11.47,0,0,0,1-1.4,5.71,5.71,0,0,0,.59-1.29,4.47,4.47,0,0,0,.19-1.31,2.17,2.17,0,0,0-.22-0.94,2.59,2.59,0,0,0-.6-0.81,2.94,2.94,0,0,0-.93-0.56,3.39,3.39,0,0,0-1.19-.22,4.49,4.49,0,0,0-1.58.25,5.34,5.34,0,0,0-1.48.87l-1.25-2.22a10.51,10.51,0,0,1,2.25-1.19,7.71,7.71,0,0,1,2.86-.46,6.87,6.87,0,0,1,2,.31,5.3,5.3,0,0,1,1.69.86,4.09,4.09,0,0,1,1.6,3.36,7.24,7.24,0,0,1-.13,1.43,6.87,6.87,0,0,1-.41,1.32,8.91,8.91,0,0,1-.72,1.35q-0.45.69-1.07,1.5c-0.32.41-.67,0.83-1,1.25s-0.75.82-1.12,1.2-0.74.74-1.1,1.07-0.69.61-1,.83L355,322v2.64Z"/><path d="M359.7,327.17a8.18,8.18,0,0,0,1.78-.63,7.5,7.5,0,0,0,2.06-1.46,8.23,8.23,0,0,0,1.7-2.48,8.84,8.84,0,0,0,.7-3.72,9.7,9.7,0,0,0-.66-3.84,8,8,0,0,0-1.63-2.51,7,7,0,0,0-2-1.47,10,10,0,0,0-1.92-.69l0.58-2.57a12,12,0,0,1,3.28,1.13,9.78,9.78,0,0,1,2.82,2.18,10.41,10.41,0,0,1,2,3.29,13.89,13.89,0,0,1,0,8.92,10.17,10.17,0,0,1-2,3.27,9.56,9.56,0,0,1-2.82,2.14,11.14,11.14,0,0,1-3.28,1.05Z"/><path d="M474.68,304.15c3.8-.26,5.7-0.39,9.51-0.67,0,1.06,0,1.58,0,2.64l-6.52.47v17l6.52-.47c0,1.06,0,1.58,0,2.64-3.8.28-5.7,0.41-9.51,0.67V304.15Z"/><path d="M492.17,309.4a1.86,1.86,0,0,1,.53-1.37,2.13,2.13,0,0,1,1.39-.6,1.91,1.91,0,0,1,1.44.38,1.6,1.6,0,0,1,.53,1.29,1.92,1.92,0,0,1-.53,1.39,2.17,2.17,0,0,1-1.44.62,1.81,1.81,0,0,1-1.39-.39A1.64,1.64,0,0,1,492.17,309.4Zm0,8.69a1.86,1.86,0,0,1,.53-1.37,2.13,2.13,0,0,1,1.39-.6,1.91,1.91,0,0,1,1.44.38,1.6,1.6,0,0,1,.53,1.29,1.91,1.91,0,0,1-.53,1.39,2.17,2.17,0,0,1-1.44.62,1.81,1.81,0,0,1-1.39-.39A1.63,1.63,0,0,1,492.17,318.09Z"/><path d="M502.27,316.21l3-.26v-6.72l-3,.26v-2.64l5.41-.47,0.36,1.55h0.1a7.22,7.22,0,0,1,1.54-1.46,4.1,4.1,0,0,1,2-.71,2.5,2.5,0,0,1,2.27.85,5.44,5.44,0,0,1,.83,3.45l-2.81.26a2.3,2.3,0,0,0-.25-1.24,0.81,0.81,0,0,0-.8-0.32,2.59,2.59,0,0,0-1.55.62,5.5,5.5,0,0,0-1,1.19v5.11l5.22-.47v2.64c-4.53.41-6.79,0.61-11.32,1v-2.64Z"/><path d="M528.58,315.14a4.93,4.93,0,0,1-.81.65,8.71,8.71,0,0,1-1.15.63,9.77,9.77,0,0,1-3.14.84,7.87,7.87,0,0,1-2.75-.17,4.72,4.72,0,0,1-3.34-2.93,7.06,7.06,0,0,1-.44-2.61,7.41,7.41,0,0,1,.5-2.82,6.32,6.32,0,0,1,1.38-2.11,6.58,6.58,0,0,1,2.05-1.39,8.43,8.43,0,0,1,2.55-.64,7.71,7.71,0,0,1,1.89.05,4.66,4.66,0,0,1,1.79.65,3.84,3.84,0,0,1,1.33,1.44,5,5,0,0,1,.52,2.44,11.75,11.75,0,0,1-.24,2.26l-8.65.85a2.58,2.58,0,0,0,.32,1.27,2.23,2.23,0,0,0,.79.79,3.09,3.09,0,0,0,1.13.38,5.56,5.56,0,0,0,1.36,0,7.39,7.39,0,0,0,2.37-.57,5.7,5.7,0,0,0,1.5-1Zm-5.19-8.05a4.19,4.19,0,0,0-1.18.28,3.71,3.71,0,0,0-1,.6,3.19,3.19,0,0,0-.73.89,2.74,2.74,0,0,0-.34,1.13l5.91-.58a2.41,2.41,0,0,0-.66-1.83A2.44,2.44,0,0,0,523.39,307.09Z"/><path d="M543.27,313.71a7.84,7.84,0,0,1-2.3,1.37,10.67,10.67,0,0,1-2.76.67,7.54,7.54,0,0,1-2.77-.16,4.94,4.94,0,0,1-2-1.07,4.75,4.75,0,0,1-1.26-1.87,7.09,7.09,0,0,1-.43-2.55,7.16,7.16,0,0,1,.5-2.74,6.53,6.53,0,0,1,1.41-2.14,7,7,0,0,1,2.12-1.46,8.76,8.76,0,0,1,2.66-.7,9.66,9.66,0,0,1,2.52,0,10.58,10.58,0,0,1,1.8.41c0,1.69,0,2.53,0,4.22l-2.64.29V305.8a6.68,6.68,0,0,0-1.49,0,4.82,4.82,0,0,0-1.33.35,3.76,3.76,0,0,0-1.18.77,3.82,3.82,0,0,0-1.16,2.85,3.52,3.52,0,0,0,.26,1.39,2.92,2.92,0,0,0,.74,1,3,3,0,0,0,1.19.63,4.11,4.11,0,0,0,1.57.11,6,6,0,0,0,2.24-.63,10.4,10.4,0,0,0,1.31-.81Z"/><path d="M552.49,301.82l4.46-.52c0,3.34,0,5,0,8.35v1l1.82-.22v2.64l-3.79.45-0.55-1.71h-0.1a5,5,0,0,1-1.65,1.71,5.53,5.53,0,0,1-2.45.88,5.3,5.3,0,0,1-1.67-.05,2.61,2.61,0,0,1-1.28-.65,3.19,3.19,0,0,1-.82-1.39,7.8,7.8,0,0,1-.29-2.32v-4.82l-1.37.15v-2.64l4.49-.5V309a3.41,3.41,0,0,0,.47,2.06,1.52,1.52,0,0,0,1.47.48,2.91,2.91,0,0,0,1.59-.71,3.34,3.34,0,0,0,1-1.41V304.3l-1.34.16v-2.64Z"/><path d="M559.89,310.31l3-.36v-6.72l-3,.36v-2.64l5.39-.66,0.36,1.54h0.1a7.6,7.6,0,0,1,1.53-1.51,4.23,4.23,0,0,1,2-.78,2.41,2.41,0,0,1,2.27.77,5.32,5.32,0,0,1,.83,3.42l-2.8.36a2.25,2.25,0,0,0-.25-1.23,0.78,0.78,0,0,0-.8-0.29,2.68,2.68,0,0,0-1.55.67,5.79,5.79,0,0,0-1,1.23c0,2,0,3.07,0,5.11l5.2-.65v2.64c-4.51.58-6.77,0.85-11.29,1.4v-2.64Z"/><path d="M578.56,309.05a1.88,1.88,0,0,1,.54-1.37,2.24,2.24,0,0,1,1.35-.66,2.09,2.09,0,0,1,2,.6,3,3,0,0,1,.67,2,4.94,4.94,0,0,1-.42,2,6.25,6.25,0,0,1-1.09,1.68,7.17,7.17,0,0,1-1.5,1.26,7,7,0,0,1-1.64.77l-0.65-1.23a8.05,8.05,0,0,0,1.16-.56,5.66,5.66,0,0,0,1.07-.8,4.47,4.47,0,0,0,.8-1,2.87,2.87,0,0,0,.37-1.2,3.14,3.14,0,0,1-1.22.2,1.62,1.62,0,0,1-.83-0.27,1.31,1.31,0,0,1-.47-0.61A2.34,2.34,0,0,1,578.56,309.05Z"/><path d="M590.25,306.37l3.66-.51c0-4.2,0-6.29,0-10.49l-3.16,2.87-1.44-1.72,5.46-4.94,2.11-.3c0,5.66,0,8.5,0,14.16l3.59-.52c0,1.06,0,1.58,0,2.64-4.09.6-6.13,0.89-10.22,1.46v-2.64Z"/><path d="M614.57,305.43c-4.26.66-6.39,1-10.66,1.61v-2.33l0.72-.74,1-1q0.54-.58,1.14-1.27t1.17-1.42q0.81-1,1.42-1.87a14.3,14.3,0,0,0,1-1.56,6.82,6.82,0,0,0,.59-1.38,4.82,4.82,0,0,0,.19-1.34,2,2,0,0,0-.21-0.9,2.05,2.05,0,0,0-.6-0.71,2.38,2.38,0,0,0-.92-0.41,3.19,3.19,0,0,0-1.18,0,4.93,4.93,0,0,0-1.57.5,6.58,6.58,0,0,0-1.47,1.11l-1.24-2a12.84,12.84,0,0,1,2.24-1.55,8.47,8.47,0,0,1,2.83-.92,6.51,6.51,0,0,1,2,0,4.41,4.41,0,0,1,1.67.6,3.3,3.3,0,0,1,1.16,1.23,3.8,3.8,0,0,1,.43,1.88,7.64,7.64,0,0,1-.13,1.45,7.89,7.89,0,0,1-.41,1.38,10.86,10.86,0,0,1-.72,1.47q-0.44.77-1.06,1.67c-0.32.46-.67,0.94-1,1.42s-0.74.94-1.11,1.38-0.73.85-1.09,1.24-0.68.72-1,1l6.88-1v2.64Z"/><path d="M617.32,296.58a15.24,15.24,0,0,1,.45-3.9,9.47,9.47,0,0,1,1.28-2.93,6.72,6.72,0,0,1,2-1.93,6.79,6.79,0,0,1,2.56-.95,4.76,4.76,0,0,1,4.65,1.37q1.63,1.86,1.63,6.32a15.36,15.36,0,0,1-.46,3.93,9.67,9.67,0,0,1-1.28,2.95,6.65,6.65,0,0,1-2,2,6.83,6.83,0,0,1-2.58,1,4.6,4.6,0,0,1-4.65-1.51Q617.32,300.86,617.32,296.58Zm3.11-.49c0,0.24,0,.47,0,0.68s0,0.43,0,.65l5.78-6.28a2.22,2.22,0,0,0-2.68-1.63,3.13,3.13,0,0,0-2.33,1.85A10.74,10.74,0,0,0,620.42,296.09Zm6.35-1q0-.38,0-0.73c0-.23,0-0.46,0-0.68l-5.8,6.28a2.26,2.26,0,0,0,2.68,1.76,3.16,3.16,0,0,0,2.35-1.84A10.77,10.77,0,0,0,626.77,295.08Z"/><path d="M635.94,300.45a2,2,0,0,1,.54-1.39,2.33,2.33,0,0,1,1.35-.71,2,2,0,0,1,2,.53,2.94,2.94,0,0,1,.67,2,5.07,5.07,0,0,1-.42,2,6.55,6.55,0,0,1-1.08,1.72,7.54,7.54,0,0,1-1.49,1.31,7.21,7.21,0,0,1-1.63.83l-0.64-1.21a8.39,8.39,0,0,0,1.16-.6,5.92,5.92,0,0,0,1.06-.84,4.7,4.7,0,0,0,.8-1.06,3,3,0,0,0,.37-1.22,3.18,3.18,0,0,1-1.22.24,1.56,1.56,0,0,1-.82-0.24,1.24,1.24,0,0,1-.46-0.59A2.3,2.3,0,0,1,635.94,300.45Z"/><path d="M647.57,297.35l3.65-.64c0-4.2,0-6.29,0-10.49l-3.15,3-1.43-1.67,5.43-5.14,2.1-.38c0,5.66,0,8.5,0,14.16l3.57-.65c0,1.06,0,1.58,0,2.64-4.07.74-6.1,1.1-10.17,1.82C647.57,298.93,647.57,298.4,647.57,297.35Z"/><path d="M671.41,301.14c-3.76.72-5.64,1.07-9.4,1.76,0-1.06,0-1.58,0-2.64l6.45-1.2c0-6.82,0-10.22,0-17l-6.45,1.2c0-1.06,0-1.58,0-2.64,3.76-.69,5.64-1,9.4-1.76C671.4,287.75,671.4,292.22,671.41,301.14Z"/><path d="M52.53,447.61V445l2.81,0.53v-6.72l-2.83-.54v-2.64l2.83,0.54v-0.67a4,4,0,0,1,.39-1.87,3,3,0,0,1,1-1.15,3.45,3.45,0,0,1,1.49-.5A5.94,5.94,0,0,1,60,432a12.29,12.29,0,0,1,2.7.78,8.54,8.54,0,0,1,1.75,1L63.55,436a13.35,13.35,0,0,0-1.18-.7,5.78,5.78,0,0,0-1.63-.52,2,2,0,0,0-1.8.25,2.25,2.25,0,0,0-.51,1.67l5,0.93v2.64l-5-.93v6.72l5,0.93v2.64C59.08,448.86,56.9,448.45,52.53,447.61Z"/><path d="M67.26,439.17a11.46,11.46,0,0,1,2.2-.35,12.34,12.34,0,0,1,3,.22,7.37,7.37,0,0,1,2.11.67,4.51,4.51,0,0,1,1.41,1.1,4,4,0,0,1,.77,1.46A6.26,6.26,0,0,1,77,444q0,1.22-.08,2.07t-0.08,1.52a10.69,10.69,0,0,0,0,1.14c0,0.22.06,0.45,0.07,0.66l1.55,0.27v2.64l-4-.7L74.15,450l-0.12,0a3.19,3.19,0,0,1-1.35,1,4.16,4.16,0,0,1-2.37.12,4.82,4.82,0,0,1-2.82-1.47,3.93,3.93,0,0,1-1-2.73,3.43,3.43,0,0,1,.37-1.67,2.37,2.37,0,0,1,1.07-1,4.31,4.31,0,0,1,1.68-.39,9.7,9.7,0,0,1,2.19.16q0.43,0.08.9,0.21l1.16,0.3a2.34,2.34,0,0,0,0-.47v-0.46a1.83,1.83,0,0,0-.52-1.4,3,3,0,0,0-1.54-.67,6.93,6.93,0,0,0-2.18-.08,12.13,12.13,0,0,0-1.63.33Zm4.05,9.54a2.59,2.59,0,0,0,1.7-.12,2.18,2.18,0,0,0,.82-0.75V446.4l-0.71-.23a8.76,8.76,0,0,0-1-.24,4.9,4.9,0,0,0-.9-0.08,2.61,2.61,0,0,0-.8.12,1.23,1.23,0,0,0-.57.37,1,1,0,0,0-.21.66,1.62,1.62,0,0,0,.39,1.11A2.17,2.17,0,0,0,71.32,448.71Z"/><path d="M92.44,453.57a5.72,5.72,0,0,1-2.29.74,9.7,9.7,0,0,1-2.74-.09,8.69,8.69,0,0,1-2.75-.92,7.1,7.1,0,0,1-2-1.63,6.81,6.81,0,0,1-1.25-2.22,8.16,8.16,0,0,1-.43-2.67,6.19,6.19,0,0,1,.5-2.6,4.45,4.45,0,0,1,1.39-1.75,4.91,4.91,0,0,1,2.11-.88,7.81,7.81,0,0,1,2.65,0,10.76,10.76,0,0,1,2.5.73,13.86,13.86,0,0,1,1.79.9v4.22L89.26,447v-2.21a7.38,7.38,0,0,0-1.48-.42,4.3,4.3,0,0,0-1.32,0,2.59,2.59,0,0,0-2,1.42,3.34,3.34,0,0,0-.32,1.55,4.08,4.08,0,0,0,.26,1.46A4.18,4.18,0,0,0,86.32,451a4.77,4.77,0,0,0,1.56.54,5.3,5.3,0,0,0,2.23,0,7.37,7.37,0,0,0,1.3-.46Z"/><path d="M96.49,446l-2.36-.39V443l2.36,0.39v-2.74l3.1-.38v3.62l6.26,1v2.64l-6.26-1V450a4.67,4.67,0,0,0,.69,2.79,2.86,2.86,0,0,0,1.93,1.14,4,4,0,0,0,1.17,0,3.79,3.79,0,0,0,.94-0.25,4.36,4.36,0,0,0,.76-0.41l0.63-.43,1.43,2.39a3.66,3.66,0,0,1-1,.72,7.21,7.21,0,0,1-1.31.49,7.41,7.41,0,0,1-1.47.24,6.91,6.91,0,0,1-1.5-.07,6.1,6.1,0,0,1-4-2.15,7.93,7.93,0,0,1-1.35-5V446Z"/><path d="M108.89,451.36a6.87,6.87,0,0,1,.45-2.62,4.46,4.46,0,0,1,1.29-1.79,4.56,4.56,0,0,1,2-.93,7.32,7.32,0,0,1,2.59,0,8.29,8.29,0,0,1,2.69.86,6.84,6.84,0,0,1,2,1.58,6.54,6.54,0,0,1,1.23,2.19,8.24,8.24,0,0,1,.42,2.65,6.9,6.9,0,0,1-.45,2.62,4.5,4.5,0,0,1-1.29,1.8,4.56,4.56,0,0,1-2,.94,7.27,7.27,0,0,1-2.59,0,8.23,8.23,0,0,1-2.69-.87,6.86,6.86,0,0,1-2-1.59,6.59,6.59,0,0,1-1.23-2.19A8.26,8.26,0,0,1,108.89,451.36Zm3.2,0.49a5.1,5.1,0,0,0,.21,1.5,4.31,4.31,0,0,0,.62,1.27,3.5,3.5,0,0,0,1,.93,3.36,3.36,0,0,0,1.31.48,2.67,2.67,0,0,0,2.26-.55,3.41,3.41,0,0,0,.87-2.68,4.7,4.7,0,0,0-.81-2.8,3.32,3.32,0,0,0-2.32-1.37,3.55,3.55,0,0,0-1.24,0,2,2,0,0,0-1,.51,2.64,2.64,0,0,0-.66,1.05A4.86,4.86,0,0,0,112.09,451.85Z"/><path d="M123.33,456.9l3,0.43v-6.72l-3-.43v-2.64l5.38,0.78,0.36,1.64h0.1a5.16,5.16,0,0,1,1.53-1.1,3.5,3.5,0,0,1,2-.24A3.2,3.2,0,0,1,135,450a6.39,6.39,0,0,1,.83,3.64l-2.8-.39a2.64,2.64,0,0,0-.25-1.3,1,1,0,0,0-.8-0.51,2.15,2.15,0,0,0-1.54.26,3.91,3.91,0,0,0-1,1v5.11l5.19,0.73c0,1.06,0,1.58,0,2.64-4.51-.63-6.76-0.95-11.27-1.61V456.9Z"/><path d="M138.16,459l4.21,0.57v-6.72l-4.21-.57v-2.64l7.33,1V460l4.43,0.58v2.64c-4.71-.61-7.06-0.92-11.76-1.57V459Zm3.64-12.13a1.48,1.48,0,0,1,.55-1.2,1.92,1.92,0,0,1,1.53-.32,2.67,2.67,0,0,1,1.6.74,1.89,1.89,0,0,1,.6,1.35,1.35,1.35,0,0,1-.6,1.18,2.24,2.24,0,0,1-1.6.28,2.53,2.53,0,0,1-1.53-.7A1.85,1.85,0,0,1,141.8,446.87Z"/><path d="M153.27,452.46a11.92,11.92,0,0,1,2.22-.46,12.41,12.41,0,0,1,3,.06,7.11,7.11,0,0,1,2.12.56,4.2,4.2,0,0,1,1.41,1,3.78,3.78,0,0,1,.78,1.42,6.09,6.09,0,0,1,.24,1.76q0,1.22-.08,2.08t-0.08,1.53a10.52,10.52,0,0,0,0,1.13c0,0.22.06,0.45,0.07,0.66l1.56,0.19V465l-4-.49-0.31-1.67h-0.12a3.46,3.46,0,0,1-1.36,1.12,4.26,4.26,0,0,1-2.38.24,4.57,4.57,0,0,1-2.83-1.32,3.73,3.73,0,0,1-1-2.68,3.53,3.53,0,0,1,.37-1.69,2.57,2.57,0,0,1,1.07-1.06,4.52,4.52,0,0,1,1.69-.48,9.75,9.75,0,0,1,2.2,0q0.43,0.05.91,0.16l1.17,0.24a2.37,2.37,0,0,0,0-.47v-0.46a1.73,1.73,0,0,0-.52-1.37,2.84,2.84,0,0,0-1.55-.59,7,7,0,0,0-2.19,0A12.72,12.72,0,0,0,154,455Zm4.08,9.32a2.67,2.67,0,0,0,1.71-.21,2.36,2.36,0,0,0,.83-0.8v-1.44l-0.71-.2a8.54,8.54,0,0,0-1-.19,4.89,4.89,0,0,0-.9,0,2.71,2.71,0,0,0-.81.16,1.33,1.33,0,0,0-.57.4,1,1,0,0,0-.21.67,1.54,1.54,0,0,0,.39,1.09A2.06,2.06,0,0,0,157.35,461.78Z"/><path d="M167.58,448.61l5.11,0.6c0,4.44,0,6.65,0,11.09a5.49,5.49,0,0,0,.46,2.62,1.83,1.83,0,0,0,1.46.89,3.91,3.91,0,0,0,1.22,0,4.13,4.13,0,0,0,1-.34l1.18,2.29q-0.41.22-.82,0.4a4.66,4.66,0,0,1-.86.29,5.5,5.5,0,0,1-1,.13,7.91,7.91,0,0,1-1.21-.05A5.08,5.08,0,0,1,170.7,465a5,5,0,0,1-1.13-3.4V451.48l-2-.24v-2.64Z"/><path d="M190.81,473.09a12.28,12.28,0,0,1-3.27-1.4,11.15,11.15,0,0,1-2.81-2.44,11.69,11.69,0,0,1-2-3.48,13.15,13.15,0,0,1-.73-4.54,11.86,11.86,0,0,1,.73-4.37,9,9,0,0,1,2-3.09,8.37,8.37,0,0,1,2.81-1.88,10.94,10.94,0,0,1,3.27-.78l0.58,2.63a9.15,9.15,0,0,0-1.91.48,6,6,0,0,0-2,1.25,6.94,6.94,0,0,0-1.62,2.33,9.22,9.22,0,0,0-.66,3.77,9.4,9.4,0,0,0,.7,3.79,9.51,9.51,0,0,0,1.69,2.67,8.71,8.71,0,0,0,2.05,1.68,9.09,9.09,0,0,0,1.78.82Z"/><path d="M200,466.51a5.14,5.14,0,0,0,1.47,0,3.28,3.28,0,0,0,1.17-.44,2.23,2.23,0,0,0,.77-0.81,2.4,2.4,0,0,0,.28-1.17,2.7,2.7,0,0,0-1-2.18,5.8,5.8,0,0,0-3.13-1.06l-0.61,0-0.66,0-0.74-.05c0-3.51,0-5.27,0-8.78l8.7,0.85c0,1.17,0,1.76,0,2.93l-6-.58v3.24h0.38l0.32,0,0.28,0a7.44,7.44,0,0,1,2.23.57,5.77,5.77,0,0,1,1.8,1.22,5.41,5.41,0,0,1,1.19,1.81,5.89,5.89,0,0,1,.42,2.24,5.23,5.23,0,0,1-.53,2.43,4.5,4.5,0,0,1-1.44,1.65,5.79,5.79,0,0,1-2.11.89,8.36,8.36,0,0,1-2.57.12,6.62,6.62,0,0,1-1.13-.22q-0.6-.17-1.18-0.38a11.36,11.36,0,0,1-1.07-.46q-0.49-.24-0.83-0.44l1-2.39a8.05,8.05,0,0,0,1.26.66A5.86,5.86,0,0,0,200,466.51Z"/><path d="M211.59,472.52a7.57,7.57,0,0,0,1.78-.47,6.64,6.64,0,0,0,2.06-1.28,7.28,7.28,0,0,0,1.69-2.33,8.44,8.44,0,0,0,.7-3.66,10.19,10.19,0,0,0-.66-3.9,9.08,9.08,0,0,0-1.62-2.65,8,8,0,0,0-2-1.65,11,11,0,0,0-1.91-.86l0.58-2.52a13.09,13.09,0,0,1,3.27,1.43,11.1,11.1,0,0,1,2.81,2.43,11.69,11.69,0,0,1,2,3.47,13,13,0,0,1,.73,4.52,12,12,0,0,1-.73,4.4,9,9,0,0,1-2,3.09,8.44,8.44,0,0,1-2.81,1.89,10.36,10.36,0,0,1-3.27.76Z"/><path d="M376.58,477v-2.64l2.84,0V467.6l-2.87,0V465l2.87,0v-0.67a4.43,4.43,0,0,1,.4-1.95,4,4,0,0,1,1-1.35,4.35,4.35,0,0,1,1.51-.8,6.3,6.3,0,0,1,1.77-.27,11.3,11.3,0,0,1,2.74.24,6.91,6.91,0,0,1,1.77.66l-0.92,2.39a10.85,10.85,0,0,0-1.19-.46,5.23,5.23,0,0,0-1.65-.19,2.37,2.37,0,0,0-1.82.61,2.63,2.63,0,0,0-.52,1.77l5.06-.07v2.64l-5.06.06v6.72l5.09-.07v2.64C383.22,476.92,381,476.95,376.58,477Z"/><path d="M391.5,465.62a13.47,13.47,0,0,1,2.23-.78,12.84,12.84,0,0,1,3-.37,6.65,6.65,0,0,1,2.13.26,3.47,3.47,0,0,1,1.42.82,3.15,3.15,0,0,1,.78,1.3,5.73,5.73,0,0,1,.24,1.72q0,1.22-.08,2.09t-0.08,1.54a10.14,10.14,0,0,0,0,1.13c0,0.22.06,0.44,0.07,0.65l1.57,0v2.64l-4,.09L398.47,475h-0.12a4.28,4.28,0,0,1-1.37,1.31,4.64,4.64,0,0,1-2.4.59,4,4,0,0,1-2.85-.91,3.22,3.22,0,0,1-1.05-2.53,3.84,3.84,0,0,1,.37-1.75,3.19,3.19,0,0,1,1.08-1.22,5.24,5.24,0,0,1,1.7-.73,10.08,10.08,0,0,1,2.22-.27,9.09,9.09,0,0,1,.91,0l1.17,0.07a2.49,2.49,0,0,0,0-.48v-0.46a1.5,1.5,0,0,0-.53-1.3,2.54,2.54,0,0,0-1.56-.36,7.36,7.36,0,0,0-2.2.35,14.64,14.64,0,0,0-1.65.65Zm4.1,8.73a2.67,2.67,0,0,0,2.55-1.37v-1.44l-0.71-.09a8.24,8.24,0,0,0-1,0,5.07,5.07,0,0,0-.91.1,3.06,3.06,0,0,0-.81.28,1.64,1.64,0,0,0-.57.48,1.15,1.15,0,0,0-.21.7,1.34,1.34,0,0,0,.39,1A1.83,1.83,0,0,0,395.61,474.35Z"/><path d="M417,475a7.14,7.14,0,0,1-2.31,1.19,10.27,10.27,0,0,1-2.77.45,7.78,7.78,0,0,1-2.78-.38,5.47,5.47,0,0,1-2-1.23,5.26,5.26,0,0,1-1.27-2,7.34,7.34,0,0,1-.43-2.58,6.84,6.84,0,0,1,.51-2.7,5.86,5.86,0,0,1,1.41-2,6.3,6.3,0,0,1,2.13-1.29,8.4,8.4,0,0,1,2.68-.5,9.85,9.85,0,0,1,2.53.24,11.41,11.41,0,0,1,1.81.54V469l-2.65.08v-2.21a6.81,6.81,0,0,0-1.49-.12,4.61,4.61,0,0,0-1.34.24,3.38,3.38,0,0,0-1.18.68,3.52,3.52,0,0,0-.84,1.14,3.72,3.72,0,0,0-.33,1.62,3.65,3.65,0,0,0,.26,1.41,3.24,3.24,0,0,0,.75,1.11,3.29,3.29,0,0,0,1.19.72,4.27,4.27,0,0,0,1.58.23,5.75,5.75,0,0,0,2.25-.45,9.34,9.34,0,0,0,1.31-.71Z"/><path d="M421,466.68l-2.39.08v-2.64L421,464v-2.74l3.13-1v3.62l6.31-.24v2.64l-6.31.24V470a4,4,0,0,0,.7,2.65,2.33,2.33,0,0,0,2,.76,4.22,4.22,0,0,0,1.18-.2,4.64,4.64,0,0,0,1-.43,5.72,5.72,0,0,0,.77-0.56l0.64-.55,1.44,2.1a4.86,4.86,0,0,1-1,.92,9.11,9.11,0,0,1-1.33.75A8.65,8.65,0,0,1,428,476a7.23,7.23,0,0,1-1.52.23,5,5,0,0,1-4.06-1.35q-1.36-1.45-1.36-4.72v-3.43Z"/><path d="M433.55,469.56a7.54,7.54,0,0,1,.46-2.71,5.84,5.84,0,0,1,1.3-2,5.91,5.91,0,0,1,2-1.32,7.93,7.93,0,0,1,2.61-.54,7.43,7.43,0,0,1,2.71.33,5.25,5.25,0,0,1,2,1.19,5.05,5.05,0,0,1,1.24,1.94,7.44,7.44,0,0,1,.42,2.57,7.54,7.54,0,0,1-.46,2.71,5.79,5.79,0,0,1-3.31,3.39,7.86,7.86,0,0,1-2.61.54,7.38,7.38,0,0,1-2.71-.33,5.26,5.26,0,0,1-2-1.2,5.1,5.1,0,0,1-1.24-2A7.47,7.47,0,0,1,433.55,469.56Zm3.23-.14a4.66,4.66,0,0,0,.22,1.45,3.39,3.39,0,0,0,.63,1.15,2.65,2.65,0,0,0,1,.74,3,3,0,0,0,1.33.22,3.2,3.2,0,0,0,2.28-1,4.86,4.86,0,0,0,.06-5.49,2.7,2.7,0,0,0-2.34-.91,3.85,3.85,0,0,0-1.25.26,2.62,2.62,0,0,0-1,.71,3.41,3.41,0,0,0-.66,1.18A5.25,5.25,0,0,0,436.78,469.43Z"/><path d="M448.1,472.25l3-.15v-6.72l-3,.15v-2.64l5.42-.28,0.36,1.56H454a6.92,6.92,0,0,1,1.54-1.4,4,4,0,0,1,2-.64,2.59,2.59,0,0,1,2.28.93,5.56,5.56,0,0,1,.83,3.48l-2.82.16a2.34,2.34,0,0,0-.25-1.25,0.84,0.84,0,0,0-.81-0.35,2.51,2.51,0,0,0-1.55.57,5.23,5.23,0,0,0-1,1.16v5.11l5.23-.29v2.64c-4.54.26-6.8,0.38-11.34,0.62v-2.64Z"/><path d="M463,471.42l4.24-.26v-6.72l-4.24.26v-2.64l7.37-.46V471l4.45-.29v2.64c-4.73.32-7.09,0.47-11.82,0.75v-2.64Zm3.66-12.85a1.81,1.81,0,0,1,.55-1.31,2.28,2.28,0,0,1,1.54-.62,2.24,2.24,0,0,1,1.61.43,1.53,1.53,0,0,1,.6,1.23,1.67,1.67,0,0,1-.6,1.3,2.61,2.61,0,0,1-1.61.6,2.13,2.13,0,0,1-1.54-.4A1.51,1.51,0,0,1,466.69,458.58Z"/><path d="M478.22,461.9a14.15,14.15,0,0,1,2.23-.9,13.09,13.09,0,0,1,3-.53,6.52,6.52,0,0,1,2.13.14,3.24,3.24,0,0,1,1.42.75,3,3,0,0,1,.78,1.26,5.62,5.62,0,0,1,.24,1.71q0,1.22-.08,2.09T487.84,468a10.14,10.14,0,0,0,0,1.12c0,0.22.06,0.44,0.07,0.64l1.56-.12v2.64l-4,.3L485.17,471h-0.12a4.61,4.61,0,0,1-1.36,1.38,4.8,4.8,0,0,1-2.39.71,3.83,3.83,0,0,1-2.85-.76,3.06,3.06,0,0,1-1.05-2.47,4,4,0,0,1,.37-1.77,3.43,3.43,0,0,1,1.08-1.27,5.53,5.53,0,0,1,1.7-.81,10.29,10.29,0,0,1,2.21-.39,9.05,9.05,0,0,1,.91,0h1.17a2.54,2.54,0,0,0,0-.48v-0.46a1.43,1.43,0,0,0-.52-1.27,2.45,2.45,0,0,0-1.55-.28,7.55,7.55,0,0,0-2.2.47,15.49,15.49,0,0,0-1.65.74Zm4.1,8.52a3,3,0,0,0,1.71-.54,3.15,3.15,0,0,0,.83-1v-1.44l-0.71-.06a8.2,8.2,0,0,0-1,0,5.13,5.13,0,0,0-.9.15,3.2,3.2,0,0,0-.81.32,1.77,1.77,0,0,0-.57.51,1.2,1.2,0,0,0-.21.71,1.28,1.28,0,0,0,.39,1A1.76,1.76,0,0,0,482.31,470.42Z"/><path d="M492.58,455.23l5.12-.41c0,4.44,0,6.65,0,11.09a4.91,4.91,0,0,0,.46,2.53,1.48,1.48,0,0,0,1.47.6,4.19,4.19,0,0,0,1.23-.26,5.11,5.11,0,0,0,1-.52l1.18,2.06q-0.41.3-.82,0.56a5.74,5.74,0,0,1-.87.46,6.24,6.24,0,0,1-1,.32,8.18,8.18,0,0,1-1.21.18,4.25,4.25,0,0,1-3.39-.88,4.15,4.15,0,0,1-1.13-3.17V457.71l-2,.16C492.58,456.81,492.58,456.29,492.58,455.23Z"/><path d="M506.79,473.67c4.27-.37,6.4-0.56,10.67-1v2.57c-4.27.4-6.4,0.59-10.67,1v-2.57Z"/><path d="M519.34,452.93l4.85-.46c0,2.46,0,3.69,0,6.14h0.1a4.66,4.66,0,0,1,1.54-1.37,5.61,5.61,0,0,1,2.26-.68,5.47,5.47,0,0,1,1.68.07,2.81,2.81,0,0,1,1.32.66,3.28,3.28,0,0,1,.86,1.41,7.25,7.25,0,0,1,.31,2.31v7.46l-3.12.32V462a2.74,2.74,0,0,0-.62-2,2,2,0,0,0-1.63-.49,3,3,0,0,0-1.63.7,3.37,3.37,0,0,0-1.06,1.48v7.66l-3.12.3V455.41l-1.73.16v-2.64Z"/><path d="M546.57,465.67a5,5,0,0,1-.8.65,8.74,8.74,0,0,1-1.15.64,9.8,9.8,0,0,1-3.13.87,7.84,7.84,0,0,1-2.75-.14,4.65,4.65,0,0,1-3.34-2.9,7,7,0,0,1-.44-2.61,7.45,7.45,0,0,1,.5-2.82,6.4,6.4,0,0,1,1.38-2.12,6.66,6.66,0,0,1,2.05-1.4,8.5,8.5,0,0,1,2.54-.67,7.71,7.71,0,0,1,1.89,0,4.6,4.6,0,0,1,1.79.63,3.78,3.78,0,0,1,1.33,1.42,5,5,0,0,1,.52,2.44,11.82,11.82,0,0,1-.24,2.26l-8.64.93a2.56,2.56,0,0,0,.32,1.26,2.21,2.21,0,0,0,.79.78,3.09,3.09,0,0,0,1.13.37,5.57,5.57,0,0,0,1.36,0,7.43,7.43,0,0,0,2.36-.59,5.77,5.77,0,0,0,1.5-1Zm-5.18-8a4.24,4.24,0,0,0-1.18.3,3.76,3.76,0,0,0-1,.61,3.21,3.21,0,0,0-.73.9,2.76,2.76,0,0,0-.34,1.14L544,460a2.39,2.39,0,0,0-.66-1.82A2.42,2.42,0,0,0,541.38,457.67Z"/><path d="M550.24,449.73l5.11-.59v11.09a4.82,4.82,0,0,0,.46,2.52,1.42,1.42,0,0,0,1.46.55,4.26,4.26,0,0,0,1.22-.3,5.35,5.35,0,0,0,1-.56l1.18,2q-0.41.31-.82,0.59a6,6,0,0,1-.86.49,6.41,6.41,0,0,1-1,.36,8.23,8.23,0,0,1-1.21.23,4.13,4.13,0,0,1-3.38-.76,4,4,0,0,1-1.13-3.13V452.15l-2,.23v-2.64Z"/><path d="M562.54,453.1l4.08-.5L567,454h0.1a5.27,5.27,0,0,1,4-2.28,5.49,5.49,0,0,1,2,.09,3.34,3.34,0,0,1,1.58.89,4.38,4.38,0,0,1,1,1.74,8.55,8.55,0,0,1,.36,2.67,9.35,9.35,0,0,1-.41,2.82,6.9,6.9,0,0,1-1.17,2.25,6,6,0,0,1-1.87,1.56,7.09,7.09,0,0,1-2.52.77,9.73,9.73,0,0,1-1.46.07,3.7,3.7,0,0,1-1.2-.2v4.92l-3.12.38V455.52l-1.8.22V453.1Zm7.62,1.37a3.53,3.53,0,0,0-1.67.66,2.81,2.81,0,0,0-1,1.5v5a2.26,2.26,0,0,0,1,.3,5.21,5.21,0,0,0,1.28,0,3.63,3.63,0,0,0,1.25-.38,3,3,0,0,0,1-.86,4.14,4.14,0,0,0,.67-1.36,6.58,6.58,0,0,0,.24-1.88,3.2,3.2,0,0,0-.77-2.35A2.21,2.21,0,0,0,570.16,454.46Z"/><path d="M589.71,460.32a5.15,5.15,0,0,1-.8.67,9.08,9.08,0,0,1-1.15.67,10,10,0,0,1-1.45.58,9.88,9.88,0,0,1-1.68.37,7.78,7.78,0,0,1-2.74-.07,4.48,4.48,0,0,1-3.33-2.81,7,7,0,0,1-.44-2.59,7.57,7.57,0,0,1,.5-2.84,6.63,6.63,0,0,1,1.38-2.16,6.89,6.89,0,0,1,2-1.46,8.63,8.63,0,0,1,2.54-.73,7.67,7.67,0,0,1,1.88,0,4.47,4.47,0,0,1,1.78.59,3.63,3.63,0,0,1,1.33,1.39,4.92,4.92,0,0,1,.52,2.43,11.94,11.94,0,0,1-.24,2.27l-8.62,1.16a2.52,2.52,0,0,0,.32,1.25,2.12,2.12,0,0,0,.79.76,3,3,0,0,0,1.13.34,5.52,5.52,0,0,0,1.35,0,7.54,7.54,0,0,0,2.36-.65,6,6,0,0,0,1.5-1Zm-5.17-7.87a4.3,4.3,0,0,0-1.17.33,3.87,3.87,0,0,0-1,.63,3.33,3.33,0,0,0-.73.92,2.83,2.83,0,0,0-.34,1.15l5.89-.79a2.33,2.33,0,0,0-.66-1.81A2.37,2.37,0,0,0,584.54,452.46Z"/><path d="M592.22,458.61l3-.41v-6.72l-3,.41c0-1.06,0-1.58,0-2.64l5.38-.76L598,450h0.1a7.85,7.85,0,0,1,1.53-1.54,4.29,4.29,0,0,1,2-.82,2.37,2.37,0,0,1,2.26.73,5.26,5.26,0,0,1,.83,3.41l-2.8.41a2.22,2.22,0,0,0-.25-1.22,0.76,0.76,0,0,0-.8-0.28,2.72,2.72,0,0,0-1.54.7,5.93,5.93,0,0,0-1,1.25v5.11l5.19-.75v2.64c-4.51.66-6.76,1-11.27,1.6C592.22,460.19,592.22,459.66,592.22,458.61Z"/><path d="M616.52,462.78a9.9,9.9,0,0,1-3.25-.56,7.72,7.72,0,0,1-2.8-1.71,8.34,8.34,0,0,1-1.95-3,11.65,11.65,0,0,1-.73-4.36,13.48,13.48,0,0,1,.73-4.56,12.68,12.68,0,0,1,1.95-3.59,12.11,12.11,0,0,1,2.8-2.61,13.91,13.91,0,0,1,3.25-1.63l0.57,2.48a11.71,11.71,0,0,0-1.9,1,8.66,8.66,0,0,0-2,1.77,9.83,9.83,0,0,0-1.61,2.75,10.55,10.55,0,0,0-.66,3.94,8.19,8.19,0,0,0,.69,3.62,6.65,6.65,0,0,0,1.69,2.23,6.08,6.08,0,0,0,2,1.15,7.2,7.2,0,0,0,1.77.36Z"/><path d="M622.51,454.12l3.65-.58V443L623,446l-1.43-1.69,5.44-5,2.1-.34v14.16l3.58-.58v2.64c-4.08.67-6.12,1-10.2,1.64v-2.64Z"/><path d="M639.51,452.45a2,2,0,0,1,.54-1.39,2.33,2.33,0,0,1,1.35-.71,2,2,0,0,1,2,.53,2.93,2.93,0,0,1,.67,2,5.06,5.06,0,0,1-.42,2,6.58,6.58,0,0,1-1.08,1.72A7.51,7.51,0,0,1,641,458a7.23,7.23,0,0,1-1.63.83l-0.64-1.21a8.39,8.39,0,0,0,1.16-.6,5.93,5.93,0,0,0,1.06-.84,4.71,4.71,0,0,0,.8-1.06,3,3,0,0,0,.37-1.22,3.18,3.18,0,0,1-1.22.24,1.56,1.56,0,0,1-.82-0.24,1.24,1.24,0,0,1-.46-0.59A2.3,2.3,0,0,1,639.51,452.45Z"/><path d="M654.27,449a5.8,5.8,0,0,0,1.45-.45,4.52,4.52,0,0,0,1.16-.76,3.32,3.32,0,0,0,.76-1,2.88,2.88,0,0,0,.27-1.25,2,2,0,0,0-1-1.89,4.86,4.86,0,0,0-3.11-.2l-0.61.12-0.66.15-0.74.15v-8.78l8.62-1.54v2.93l-6,1.07v3.24l0.38-.09,0.32-.07,0.27-.06a6.63,6.63,0,0,1,2.22,0,4.07,4.07,0,0,1,1.79.72,3.66,3.66,0,0,1,1.18,1.48,5.08,5.08,0,0,1,.42,2.12,6.22,6.22,0,0,1-.52,2.58,6.66,6.66,0,0,1-1.43,2,8.09,8.09,0,0,1-2.1,1.47,9.53,9.53,0,0,1-2.55.83,6.27,6.27,0,0,1-1.12.09c-0.4,0-.79,0-1.17-0.06a9.1,9.1,0,0,1-1.06-.16,8.2,8.2,0,0,1-.82-0.22l1-2.67a6.05,6.05,0,0,0,1.25.31A5.23,5.23,0,0,0,654.27,449Z"/><path d="M665.77,451.82a9.88,9.88,0,0,0,1.76-1,9.75,9.75,0,0,0,2-1.84,10.61,10.61,0,0,0,1.68-2.8,9.88,9.88,0,0,0,.69-3.85,8.92,8.92,0,0,0-.65-3.72,6.21,6.21,0,0,0-1.61-2.21,5.4,5.4,0,0,0-2-1.09,8.62,8.62,0,0,0-1.89-.33l0.57-2.67a10.3,10.3,0,0,1,3.24.53,7.46,7.46,0,0,1,2.78,1.66,8.14,8.14,0,0,1,1.94,2.93,11.5,11.5,0,0,1,.72,4.31,13.79,13.79,0,0,1-.72,4.6,13,13,0,0,1-1.94,3.63,12.45,12.45,0,0,1-2.78,2.66,13.28,13.28,0,0,1-3.24,1.66Z"/><path d="M52.53,395.75v-2.64l2.81,0.53v-6.72l-2.83-.54v-2.64l2.83,0.54v-0.67a4,4,0,0,1,.39-1.87,3,3,0,0,1,1-1.15,3.45,3.45,0,0,1,1.49-.5,5.94,5.94,0,0,1,1.75.07,12.29,12.29,0,0,1,2.7.78,8.53,8.53,0,0,1,1.75,1l-0.9,2.21a13.3,13.3,0,0,0-1.18-.7,5.78,5.78,0,0,0-1.63-.52,2,2,0,0,0-1.8.25,2.25,2.25,0,0,0-.51,1.67l5,0.93v2.64l-5-.93v6.72l5,0.93v2.64C59.08,397,56.9,396.58,52.53,395.75Z"/><path d="M67.26,387.31a11.46,11.46,0,0,1,2.2-.35,12.35,12.35,0,0,1,3,.22,7.36,7.36,0,0,1,2.11.67,4.5,4.5,0,0,1,1.41,1.1,4,4,0,0,1,.77,1.46,6.26,6.26,0,0,1,.24,1.77q0,1.22-.08,2.07t-0.08,1.52a10.66,10.66,0,0,0,0,1.14c0,0.22.06,0.45,0.07,0.66l1.55,0.27v2.64l-4-.7-0.31-1.69-0.12,0a3.19,3.19,0,0,1-1.35,1,4.16,4.16,0,0,1-2.37.12,4.82,4.82,0,0,1-2.82-1.47,3.93,3.93,0,0,1-1-2.73,3.43,3.43,0,0,1,.37-1.67,2.37,2.37,0,0,1,1.07-1,4.3,4.3,0,0,1,1.68-.39,9.69,9.69,0,0,1,2.19.17q0.43,0.08.9,0.21l1.16,0.3a2.34,2.34,0,0,0,0-.47v-0.46a1.83,1.83,0,0,0-.52-1.4,3,3,0,0,0-1.54-.67,6.93,6.93,0,0,0-2.18-.08,12.13,12.13,0,0,0-1.63.33Zm4.05,9.54a2.59,2.59,0,0,0,1.7-.12,2.17,2.17,0,0,0,.82-0.75v-1.44l-0.71-.23a8.76,8.76,0,0,0-1-.24,4.9,4.9,0,0,0-.9-0.08,2.61,2.61,0,0,0-.8.12,1.23,1.23,0,0,0-.57.37,1,1,0,0,0-.21.66,1.62,1.62,0,0,0,.39,1.11A2.17,2.17,0,0,0,71.32,396.84Z"/><path d="M92.44,401.71a5.72,5.72,0,0,1-2.29.74,9.69,9.69,0,0,1-2.74-.09,8.68,8.68,0,0,1-2.75-.92,7.1,7.1,0,0,1-2-1.63,6.81,6.81,0,0,1-1.25-2.22,8.16,8.16,0,0,1-.43-2.67,6.19,6.19,0,0,1,.5-2.6,4.45,4.45,0,0,1,1.39-1.75,4.92,4.92,0,0,1,2.11-.88,7.82,7.82,0,0,1,2.65,0,10.77,10.77,0,0,1,2.5.73,13.79,13.79,0,0,1,1.79.9v4.22l-2.62-.44v-2.21a7.38,7.38,0,0,0-1.48-.42,4.3,4.3,0,0,0-1.32,0,2.59,2.59,0,0,0-2,1.42,3.34,3.34,0,0,0-.32,1.55,4.08,4.08,0,0,0,.26,1.46,4.18,4.18,0,0,0,1.92,2.21,4.77,4.77,0,0,0,1.56.54,5.3,5.3,0,0,0,2.23,0,7.38,7.38,0,0,0,1.3-.46Z"/><path d="M96.49,394.16l-2.36-.39v-2.64l2.36,0.39v-2.74l3.1-.38V392l6.26,1v2.64l-6.26-1v3.43a4.67,4.67,0,0,0,.69,2.79,2.86,2.86,0,0,0,1.93,1.14,4,4,0,0,0,1.17,0,3.78,3.78,0,0,0,.94-0.25,4.34,4.34,0,0,0,.76-0.41l0.63-.43,1.43,2.38a3.66,3.66,0,0,1-1,.72,7.21,7.21,0,0,1-1.31.49,7.41,7.41,0,0,1-1.47.24,6.91,6.91,0,0,1-1.5-.07,6.1,6.1,0,0,1-4-2.15,7.93,7.93,0,0,1-1.35-5v-3.43Z"/><path d="M108.89,399.5a6.87,6.87,0,0,1,.45-2.62,4.46,4.46,0,0,1,1.29-1.79,4.56,4.56,0,0,1,2-.93,7.32,7.32,0,0,1,2.59,0,8.29,8.29,0,0,1,2.69.86,6.84,6.84,0,0,1,2,1.58,6.55,6.55,0,0,1,1.23,2.19,8.24,8.24,0,0,1,.42,2.65,6.9,6.9,0,0,1-.45,2.62,4.5,4.5,0,0,1-1.29,1.8,4.56,4.56,0,0,1-2,.94,7.27,7.27,0,0,1-2.59,0,8.23,8.23,0,0,1-2.69-.87,6.86,6.86,0,0,1-2-1.59,6.59,6.59,0,0,1-1.23-2.19A8.27,8.27,0,0,1,108.89,399.5Zm3.2,0.49a5.1,5.1,0,0,0,.21,1.5,4.32,4.32,0,0,0,.62,1.27,3.51,3.51,0,0,0,1,.93,3.36,3.36,0,0,0,1.31.48,2.67,2.67,0,0,0,2.26-.55,3.41,3.41,0,0,0,.87-2.68,4.7,4.7,0,0,0-.81-2.8,3.32,3.32,0,0,0-2.32-1.37,3.55,3.55,0,0,0-1.24,0,2,2,0,0,0-1,.51,2.64,2.64,0,0,0-.66,1.05A4.86,4.86,0,0,0,112.09,400Z"/><path d="M123.33,405l3,0.43v-6.72l-3-.43v-2.64l5.38,0.78,0.36,1.64h0.1a5.16,5.16,0,0,1,1.53-1.1,3.5,3.5,0,0,1,2-.24,3.2,3.2,0,0,1,2.26,1.37,6.39,6.39,0,0,1,.83,3.64l-2.8-.39a2.64,2.64,0,0,0-.25-1.3,1,1,0,0,0-.8-0.51,2.15,2.15,0,0,0-1.54.26,3.91,3.91,0,0,0-1,1v5.11l5.19,0.73v2.64c-4.51-.63-6.76-0.95-11.27-1.61V405Z"/><path d="M138.16,407.14l4.21,0.57V401l-4.21-.57v-2.64l7.33,1v9.36l4.43,0.58v2.64c-4.71-.61-7.06-0.92-11.76-1.57v-2.64ZM141.8,395a1.48,1.48,0,0,1,.55-1.2,1.92,1.92,0,0,1,1.53-.32,2.67,2.67,0,0,1,1.6.74,1.89,1.89,0,0,1,.6,1.35,1.35,1.35,0,0,1-.6,1.18,2.24,2.24,0,0,1-1.6.28,2.53,2.53,0,0,1-1.53-.7A1.85,1.85,0,0,1,141.8,395Z"/><path d="M153.27,400.59a11.92,11.92,0,0,1,2.22-.46,12.4,12.4,0,0,1,3,.06,7.13,7.13,0,0,1,2.12.56,4.2,4.2,0,0,1,1.41,1,3.78,3.78,0,0,1,.78,1.42A6.09,6.09,0,0,1,163,405q0,1.22-.08,2.08t-0.08,1.53a10.52,10.52,0,0,0,0,1.13c0,0.22.06,0.45,0.07,0.66l1.56,0.19v2.64l-4-.49L160.2,411h-0.12a3.45,3.45,0,0,1-1.36,1.12,4.26,4.26,0,0,1-2.38.24,4.57,4.57,0,0,1-2.83-1.32,3.73,3.73,0,0,1-1-2.68,3.53,3.53,0,0,1,.37-1.69,2.57,2.57,0,0,1,1.07-1.06,4.52,4.52,0,0,1,1.69-.48,9.73,9.73,0,0,1,2.2,0q0.43,0.05.91,0.16l1.17,0.24a2.37,2.37,0,0,0,0-.47v-0.46a1.73,1.73,0,0,0-.52-1.37,2.84,2.84,0,0,0-1.55-.59,7,7,0,0,0-2.19,0,12.72,12.72,0,0,0-1.64.42Zm4.08,9.32a2.67,2.67,0,0,0,1.71-.21,2.36,2.36,0,0,0,.83-0.8v-1.44l-0.71-.2a8.59,8.59,0,0,0-1-.19,4.89,4.89,0,0,0-.9,0,2.71,2.71,0,0,0-.81.16,1.33,1.33,0,0,0-.57.4,1,1,0,0,0-.21.67,1.54,1.54,0,0,0,.39,1.09A2.06,2.06,0,0,0,157.35,409.92Z"/><path d="M167.58,396.74l5.11,0.6v11.09a5.49,5.49,0,0,0,.46,2.62,1.83,1.83,0,0,0,1.46.89,3.91,3.91,0,0,0,1.22,0,4.13,4.13,0,0,0,1-.34l1.18,2.29q-0.41.22-.82,0.4a4.64,4.64,0,0,1-.86.29,5.46,5.46,0,0,1-1,.13,7.82,7.82,0,0,1-1.21-.05,5.08,5.08,0,0,1-3.38-1.54,5,5,0,0,1-1.13-3.4V399.62l-2-.24v-2.64Z"/><path d="M181.76,418c4.26,0.47,6.39.7,10.66,1.14,0,1,0,1.54,0,2.57-4.26-.44-6.4-0.67-10.66-1.14V418Z"/><path d="M194.29,399.7l4.85,0.49v6.14h0.1a3.53,3.53,0,0,1,1.54-1.07A5,5,0,0,1,203,405a6,6,0,0,1,1.68.4,3.62,3.62,0,0,1,1.32.92,4.21,4.21,0,0,1,.87,1.58,7.87,7.87,0,0,1,.31,2.37v7.46l-3.12-.3v-6.82a3.21,3.21,0,0,0-.62-2.17,2.4,2.4,0,0,0-1.63-.81,2.53,2.53,0,0,0-1.63.38,2.55,2.55,0,0,0-1.06,1.28V417l-3.12-.31V402.52l-1.73-.18V399.7Z"/><path d="M221.54,417.79a3.75,3.75,0,0,1-.81.5,7.11,7.11,0,0,1-1.15.42,8.52,8.52,0,0,1-1.45.26,9.3,9.3,0,0,1-1.68,0,8.57,8.57,0,0,1-2.75-.68,6.13,6.13,0,0,1-3.34-3.56,7.73,7.73,0,0,1-.44-2.69,6.71,6.71,0,0,1,.5-2.73,4.87,4.87,0,0,1,1.38-1.85,5.17,5.17,0,0,1,2.05-1,7.76,7.76,0,0,1,2.55-.17,8.25,8.25,0,0,1,1.89.41,5.72,5.72,0,0,1,1.79,1,5,5,0,0,1,1.33,1.69,5.63,5.63,0,0,1,.52,2.54,11.13,11.13,0,0,1-.24,2.21l-8.65-.77a2.83,2.83,0,0,0,1.12,2.26,3.79,3.79,0,0,0,1.13.59,5.89,5.89,0,0,0,1.36.28,6.81,6.81,0,0,0,2.37-.13,4.52,4.52,0,0,0,1.5-.68Zm-5.19-9a3.88,3.88,0,0,0-1.18.07,3,3,0,0,0-1,.41,2.4,2.4,0,0,0-.73.75,2.34,2.34,0,0,0-.34,1.07L219,411.6a2.86,2.86,0,0,0-.66-2A2.89,2.89,0,0,0,216.35,408.77Z"/><path d="M225.22,402.58l5.12,0.42v11.09a5.36,5.36,0,0,0,.46,2.61,1.76,1.76,0,0,0,1.47.84,3.94,3.94,0,0,0,1.23-.06,4.27,4.27,0,0,0,1-.37l1.18,2.25q-0.41.23-.82,0.43a4.87,4.87,0,0,1-.87.32,5.64,5.64,0,0,1-1,.16,7.91,7.91,0,0,1-1.21,0,4.91,4.91,0,0,1-3.39-1.43,4.8,4.8,0,0,1-1.13-3.36V405.38l-2-.17v-2.64Z"/><path d="M237.55,408.37l4.09,0.31,0.36,1.47h0.1a4.29,4.29,0,0,1,4-1.48,6,6,0,0,1,2,.49,4.38,4.38,0,0,1,1.59,1.2,5.6,5.6,0,0,1,1,1.94,9.2,9.2,0,0,1,.36,2.74,8.55,8.55,0,0,1-.41,2.74,5.4,5.4,0,0,1-1.18,2,4.59,4.59,0,0,1-1.88,1.19,6.36,6.36,0,0,1-2.53.28,10.06,10.06,0,0,1-1.47-.21,4.28,4.28,0,0,1-1.2-.44v4.92l-3.13-.23c0-5.66,0-8.5,0-14.16l-1.8-.14v-2.64Zm7.65,2.87a3,3,0,0,0-1.67.34,2.14,2.14,0,0,0-1,1.29v5a2.79,2.79,0,0,0,1,.49,5.54,5.54,0,0,0,1.29.25,3.26,3.26,0,0,0,1.25-.14,2.32,2.32,0,0,0,1-.66,3.25,3.25,0,0,0,.67-1.23,6.07,6.07,0,0,0,.24-1.83,3.77,3.77,0,0,0-.77-2.5A2.7,2.7,0,0,0,245.2,411.23Z"/><path d="M264.84,420.95a3.92,3.92,0,0,1-.81.52,7.24,7.24,0,0,1-1.15.45,8.64,8.64,0,0,1-1.46.3,9.32,9.32,0,0,1-1.69,0,8.44,8.44,0,0,1-2.76-.61,5.91,5.91,0,0,1-3.35-3.47,7.63,7.63,0,0,1-.44-2.68,6.8,6.8,0,0,1,.51-2.74,5.06,5.06,0,0,1,1.38-1.89,5.35,5.35,0,0,1,2.06-1.05,7.82,7.82,0,0,1,2.55-.23,8.16,8.16,0,0,1,1.89.36,5.55,5.55,0,0,1,1.79.94,4.85,4.85,0,0,1,1.34,1.65,5.52,5.52,0,0,1,.52,2.53,11.17,11.17,0,0,1-.24,2.22l-8.67-.54a2.88,2.88,0,0,0,.32,1.32,2.83,2.83,0,0,0,.79.92,3.7,3.7,0,0,0,1.13.56,5.86,5.86,0,0,0,1.36.24,6.87,6.87,0,0,0,2.37-.19,4.66,4.66,0,0,0,1.5-.72Zm-5.2-8.89a3.92,3.92,0,0,0-1.18.1,3.06,3.06,0,0,0-1,.44,2.5,2.5,0,0,0-.73.77,2.4,2.4,0,0,0-.34,1.08l5.92,0.37a2.78,2.78,0,0,0-.66-1.94A2.81,2.81,0,0,0,259.64,412.06Z"/><path d="M267.37,419.73l3,0.17v-6.72l-3-.17v-2.64l5.42,0.31,0.36,1.6h0.1a5.89,5.89,0,0,1,1.54-1.24,3.69,3.69,0,0,1,2-.42,2.9,2.9,0,0,1,2.28,1.17,6,6,0,0,1,.83,3.57l-2.82-.15a2.49,2.49,0,0,0-.25-1.27,0.94,0.94,0,0,0-.81-0.44,2.29,2.29,0,0,0-1.55.4,4.46,4.46,0,0,0-1,1.05v5.11l5.23,0.28V423c-4.54-.23-6.81-0.36-11.34-0.62v-2.64Z"/><path d="M291.84,428.7a11.6,11.6,0,0,1-3.28-1.2,10.21,10.21,0,0,1-2.82-2.27,10.8,10.8,0,0,1-2-3.36,12.74,12.74,0,0,1-.73-4.5,12.18,12.18,0,0,1,.73-4.42,9.83,9.83,0,0,1,2-3.21,9.15,9.15,0,0,1,2.82-2.05,11.53,11.53,0,0,1,3.28-1l0.58,2.59a9.67,9.67,0,0,0-1.92.6,6.58,6.58,0,0,0-2,1.37,7.54,7.54,0,0,0-1.63,2.43,9.49,9.49,0,0,0-.66,3.81,9.07,9.07,0,0,0,.7,3.75,8.76,8.76,0,0,0,1.7,2.56,8,8,0,0,0,2.06,1.56,8.57,8.57,0,0,0,1.78.71Z"/><path d="M297.88,421.22l3.69,0.14V410.87l-3.18,2.3-1.44-2,5.49-4,2.12,0.08c0,5.66,0,8.5,0,14.16l3.61,0.13v2.64c-4.12-.14-6.17-0.21-10.29-0.38v-2.64Z"/><path d="M315,422.92a1.6,1.6,0,0,1,.54-1.28,1.93,1.93,0,0,1,1.36-.44,2.45,2.45,0,0,1,2,.92,3.45,3.45,0,0,1,.67,2.15,4.46,4.46,0,0,1-.42,2,5,5,0,0,1-1.1,1.51,5.71,5.71,0,0,1-1.51,1,6,6,0,0,1-1.65.5l-0.65-1.34a6.85,6.85,0,0,0,1.17-.37,4.56,4.56,0,0,0,1.07-.63,3.55,3.55,0,0,0,.81-0.9,2.49,2.49,0,0,0,.37-1.14,3.08,3.08,0,0,1-1.23,0,1.93,1.93,0,0,1-.83-0.41,1.64,1.64,0,0,1-.47-0.69A2.51,2.51,0,0,1,315,422.92Z"/><path d="M330,422.4a5.27,5.27,0,0,0,1.47-.16,3.59,3.59,0,0,0,1.17-.53,2.44,2.44,0,0,0,1-2.07,2.47,2.47,0,0,0-1-2.1,5.47,5.47,0,0,0-3.15-.82h-0.61l-0.66,0h-0.75V408l8.73,0.17v2.93l-6-.11v3.24l0.39,0h0.6a7.09,7.09,0,0,1,2.24.39,5.21,5.21,0,0,1,1.81,1.08,4.84,4.84,0,0,1,1.19,1.71,5.62,5.62,0,0,1,.42,2.2,5.47,5.47,0,0,1-.53,2.48,5,5,0,0,1-1.45,1.76,6.36,6.36,0,0,1-2.12,1.05,8.6,8.6,0,0,1-2.58.32A6.48,6.48,0,0,1,329,425c-0.4-.08-0.8-0.18-1.18-0.29a10.74,10.74,0,0,1-1.07-.37q-0.49-.2-0.83-0.38l1-2.47a7.39,7.39,0,0,0,1.27.56A5.62,5.62,0,0,0,330,422.4Z"/><path d="M341.6,427.49a8.13,8.13,0,0,0,1.78-.61,7.41,7.41,0,0,0,2.06-1.44,8.12,8.12,0,0,0,1.7-2.47,8.79,8.79,0,0,0,.7-3.71,9.76,9.76,0,0,0-.66-3.85,8.15,8.15,0,0,0-1.63-2.52,7.13,7.13,0,0,0-2-1.49,10.19,10.19,0,0,0-1.92-.71l0.58-2.56a12.12,12.12,0,0,1,3.28,1.17,9.92,9.92,0,0,1,2.82,2.21,10.56,10.56,0,0,1,2,3.32,13.89,13.89,0,0,1,0,8.92,10,10,0,0,1-2,3.25,9.43,9.43,0,0,1-2.82,2.11,11,11,0,0,1-3.28,1Z"/><path d="M534.68,413.71l3-.31v-6.72l-3,.31v-2.64l5.4-.57,0.36,1.55h0.1a7.46,7.46,0,0,1,1.54-1.49,4.16,4.16,0,0,1,2-.75,2.45,2.45,0,0,1,2.27.81,5.38,5.38,0,0,1,.83,3.44l-2.81.31a2.27,2.27,0,0,0-.25-1.23,0.79,0.79,0,0,0-.8-0.31,2.63,2.63,0,0,0-1.55.65,5.65,5.65,0,0,0-1,1.21v5.11l5.21-.57v2.64c-4.52.5-6.78,0.74-11.31,1.21v-2.64Z"/><path d="M561,412.15a5,5,0,0,1-.8.66,8.86,8.86,0,0,1-1.15.65,9.86,9.86,0,0,1-3.13.9,7.83,7.83,0,0,1-2.75-.11,4.6,4.6,0,0,1-3.34-2.87,7,7,0,0,1-.44-2.6,7.49,7.49,0,0,1,.5-2.83,6.47,6.47,0,0,1,1.38-2.14,6.73,6.73,0,0,1,2.05-1.42,8.55,8.55,0,0,1,2.54-.69,7.69,7.69,0,0,1,1.88,0,4.55,4.55,0,0,1,1.79.62,3.73,3.73,0,0,1,1.33,1.41,5,5,0,0,1,.52,2.43,11.86,11.86,0,0,1-.24,2.26l-8.63,1a2.54,2.54,0,0,0,.32,1.26,2.17,2.17,0,0,0,.79.77,3.07,3.07,0,0,0,1.13.36,5.55,5.55,0,0,0,1.35,0,7.47,7.47,0,0,0,2.36-.61,5.84,5.84,0,0,0,1.5-1Zm-5.18-8a4.25,4.25,0,0,0-1.18.31,3.79,3.79,0,0,0-1,.62,3.25,3.25,0,0,0-.73.9,2.78,2.78,0,0,0-.34,1.14l5.9-.69a2.37,2.37,0,0,0-.66-1.82A2.4,2.4,0,0,0,555.78,404.19Z"/><path d="M575.63,410.45a8,8,0,0,1-2.3,1.41,10.78,10.78,0,0,1-2.76.72,7.5,7.5,0,0,1-2.77-.11,4.82,4.82,0,0,1-2-1,4.62,4.62,0,0,1-1.26-1.85,7,7,0,0,1-.43-2.54,7.24,7.24,0,0,1,.5-2.75,6.69,6.69,0,0,1,1.4-2.16,7.14,7.14,0,0,1,2.12-1.5,8.86,8.86,0,0,1,2.66-.75,9.6,9.6,0,0,1,2.52,0,10.55,10.55,0,0,1,1.8.37v4.22l-2.64.34V402.6a6.66,6.66,0,0,0-1.49,0,4.86,4.86,0,0,0-1.33.37,3.83,3.83,0,0,0-1.17.79,4,4,0,0,0-.84,1.22,4,4,0,0,0-.32,1.65,3.48,3.48,0,0,0,.26,1.38,2.84,2.84,0,0,0,.74,1,2.89,2.89,0,0,0,1.19.61,4.1,4.1,0,0,0,1.57.08,6.09,6.09,0,0,0,2.24-.67,10.49,10.49,0,0,0,1.31-.84Z"/><path d="M584.82,398.39l4.45-.6v9.36l1.82-.25v2.64l-3.78.52-0.55-1.7h-0.1A5.16,5.16,0,0,1,585,410.1a5.61,5.61,0,0,1-2.44.93,5.28,5.28,0,0,1-1.66,0,2.53,2.53,0,0,1-1.28-.62,3.11,3.11,0,0,1-.81-1.38,7.75,7.75,0,0,1-.29-2.32v-4.82l-1.37.18c0-1.06,0-1.58,0-2.64l4.48-.59v6.82a3.37,3.37,0,0,0,.47,2,1.49,1.49,0,0,0,1.47.45,3,3,0,0,0,1.59-.74,3.41,3.41,0,0,0,1-1.43v-5.11l-1.34.18v-2.64Z"/><path d="M592.22,406.74l3-.41v-6.72l-3,.42v-2.64l5.38-.76,0.36,1.53h0.1a7.84,7.84,0,0,1,1.53-1.54,4.29,4.29,0,0,1,2-.82,2.37,2.37,0,0,1,2.26.73,5.26,5.26,0,0,1,.83,3.41l-2.8.41a2.22,2.22,0,0,0-.25-1.22,0.76,0.76,0,0,0-.8-0.28,2.72,2.72,0,0,0-1.54.7,5.94,5.94,0,0,0-1,1.25c0,2,0,3.07,0,5.11l5.19-.75v2.64c-4.51.66-6.76,1-11.27,1.6v-2.64Z"/><path d="M616.52,410.91a9.89,9.89,0,0,1-3.25-.56,7.72,7.72,0,0,1-2.8-1.71,8.34,8.34,0,0,1-1.95-3,11.65,11.65,0,0,1-.73-4.36,13.48,13.48,0,0,1,.73-4.56,12.68,12.68,0,0,1,1.95-3.59,12.12,12.12,0,0,1,2.8-2.61,13.93,13.93,0,0,1,3.25-1.63l0.57,2.48a11.73,11.73,0,0,0-1.9,1,8.67,8.67,0,0,0-2,1.77,9.83,9.83,0,0,0-1.61,2.75,10.55,10.55,0,0,0-.66,3.94,8.19,8.19,0,0,0,.69,3.62,6.65,6.65,0,0,0,1.69,2.23,6.08,6.08,0,0,0,2,1.15,7.19,7.19,0,0,0,1.77.36Z"/><path d="M625.64,402a5.74,5.74,0,0,0,1.46-.43,4.43,4.43,0,0,0,1.16-.74,3.23,3.23,0,0,0,.76-1,2.84,2.84,0,0,0,.27-1.24,2,2,0,0,0-1-1.91,4.9,4.9,0,0,0-3.12-.26l-0.61.11-0.66.14-0.74.14c0-3.51,0-5.27,0-8.78l8.64-1.39v2.93l-6,1v3.24l0.38-.09,0.32-.06,0.27-.06a6.65,6.65,0,0,1,2.22,0,4.16,4.16,0,0,1,1.79.75,3.75,3.75,0,0,1,1.18,1.5,5.13,5.13,0,0,1,.42,2.13,6.14,6.14,0,0,1-.53,2.57,6.5,6.5,0,0,1-1.43,2,7.91,7.91,0,0,1-2.1,1.43,9.43,9.43,0,0,1-2.56.78,6.23,6.23,0,0,1-1.12.07q-0.6,0-1.17-.08a9.28,9.28,0,0,1-1.06-.18,8.45,8.45,0,0,1-.82-0.23l1-2.65a6.14,6.14,0,0,0,1.25.33A5.25,5.25,0,0,0,625.64,402Z"/><path d="M639.51,400.58a2,2,0,0,1,.54-1.39,2.33,2.33,0,0,1,1.35-.71,2,2,0,0,1,2,.53,2.93,2.93,0,0,1,.67,2,5.06,5.06,0,0,1-.42,2,6.59,6.59,0,0,1-1.08,1.72,7.53,7.53,0,0,1-1.49,1.31,7.24,7.24,0,0,1-1.63.83l-0.64-1.21a8.35,8.35,0,0,0,1.16-.6,5.92,5.92,0,0,0,1.06-.84,4.73,4.73,0,0,0,.8-1.06,3,3,0,0,0,.37-1.22,3.18,3.18,0,0,1-1.22.24,1.56,1.56,0,0,1-.82-0.24,1.25,1.25,0,0,1-.46-0.59A2.3,2.3,0,0,1,639.51,400.58Z"/><path d="M662.37,393.43l-2.86.52v4.68l-2.88.52v-4.68l-7.22,1.28v-2.14L657,382.17l2.55-.46c0,3.9,0,5.85,0,9.74l2.86-.52v2.5Zm-5.74-6.79-4.15,6.07,4.15-.74v-5.33Z"/><path d="M665.77,400a9.88,9.88,0,0,0,1.76-1,9.74,9.74,0,0,0,2-1.84,10.62,10.62,0,0,0,1.68-2.8,9.88,9.88,0,0,0,.69-3.85,8.92,8.92,0,0,0-.65-3.72,6.2,6.2,0,0,0-1.61-2.21,5.4,5.4,0,0,0-2-1.09,8.62,8.62,0,0,0-1.89-.33l0.57-2.67a10.29,10.29,0,0,1,3.24.53,7.46,7.46,0,0,1,2.78,1.66,8.14,8.14,0,0,1,1.94,2.93,11.5,11.5,0,0,1,.72,4.31,13.79,13.79,0,0,1-.72,4.6,13,13,0,0,1-1.94,3.63,12.46,12.46,0,0,1-2.78,2.66,13.27,13.27,0,0,1-3.24,1.66Z"/><path d="M52.13,338l2.95,0.56c0-2.69,0-4,0-6.72l-2.95-.56c0-1.06,0-1.58,0-2.64l5.35,1,0.36,1.65,0.09,0a4.8,4.8,0,0,1,1.52-1,3.42,3.42,0,0,1,2-.16,3.36,3.36,0,0,1,2.25,1.47,6.61,6.61,0,0,1,.82,3.68l-2.79-.51a2.73,2.73,0,0,0-.25-1.31,1.09,1.09,0,0,0-.8-0.54,2.09,2.09,0,0,0-1.54.19,3.65,3.65,0,0,0-1,.92c0,2,0,3.07,0,5.11l5.17,1v2.64c-4.49-.82-6.73-1.24-11.21-2.1C52.13,339.63,52.13,339.1,52.13,338Z"/><path d="M78.21,344.17a3.34,3.34,0,0,1-.8.43,6.41,6.41,0,0,1-1.14.32,8.06,8.06,0,0,1-1.44.13,9.24,9.24,0,0,1-1.67-.15,9.06,9.06,0,0,1-2.73-.92,6.92,6.92,0,0,1-3.31-3.85,8.12,8.12,0,0,1-.44-2.73,6.45,6.45,0,0,1,.5-2.68A4.31,4.31,0,0,1,68.54,333a4.65,4.65,0,0,1,2-.82,7.56,7.56,0,0,1,2.53.06,8.65,8.65,0,0,1,1.87.57,6.36,6.36,0,0,1,1.78,1.14,5.7,5.7,0,0,1,1.32,1.8,6,6,0,0,1,.51,2.59,10.93,10.93,0,0,1-.24,2.19L69.77,339a3.15,3.15,0,0,0,.32,1.35,3.31,3.31,0,0,0,.79,1A4.18,4.18,0,0,0,72,342a6.22,6.22,0,0,0,1.35.4,6.67,6.67,0,0,0,2.35.08,4.07,4.07,0,0,0,1.49-.56Zm-5.15-9.47a3.79,3.79,0,0,0-1.17,0,2.68,2.68,0,0,0-1,.33,2.11,2.11,0,0,0-.73.69,2.19,2.19,0,0,0-.33,1l5.86,1a3.1,3.1,0,0,0-.66-2A3.15,3.15,0,0,0,73.06,334.7Z"/><path d="M92.8,346.77a5.72,5.72,0,0,1-2.29.74,9.68,9.68,0,0,1-2.74-.09A8.68,8.68,0,0,1,85,346.5a7.07,7.07,0,0,1-2-1.63,6.82,6.82,0,0,1-1.25-2.22,8.15,8.15,0,0,1-.43-2.67,6.2,6.2,0,0,1,.5-2.6,4.44,4.44,0,0,1,1.39-1.75,4.9,4.9,0,0,1,2.11-.88,7.81,7.81,0,0,1,2.65,0,10.76,10.76,0,0,1,2.5.73,13.7,13.7,0,0,1,1.79.9v4.22l-2.62-.44V338a7.4,7.4,0,0,0-1.48-.42,4.31,4.31,0,0,0-1.32,0,2.59,2.59,0,0,0-2,1.42,3.33,3.33,0,0,0-.32,1.55,4.09,4.09,0,0,0,.26,1.46,4.23,4.23,0,0,0,.74,1.25,4.32,4.32,0,0,0,1.18,1,4.77,4.77,0,0,0,1.56.54,5.29,5.29,0,0,0,2.23,0,7.5,7.5,0,0,0,1.3-.46Z"/><path d="M102,337.41l4.44,0.7c0,3.34,0,5,0,8.35v1l1.82,0.28v2.64l-3.77-.59-0.55-1.86-0.1,0a3.35,3.35,0,0,1-1.65,1.25,4.62,4.62,0,0,1-2.43.21,6,6,0,0,1-1.66-.51,3.73,3.73,0,0,1-1.28-1,4.5,4.5,0,0,1-.81-1.62,8.67,8.67,0,0,1-.29-2.4V339l-1.36-.22v-2.64l4.46,0.73v6.82a4.09,4.09,0,0,0,.47,2.19,2,2,0,0,0,1.47.88,2.3,2.3,0,0,0,1.59-.28,2.27,2.27,0,0,0,1-1.14v-5.11L102,340v-2.64Z"/><path d="M109.35,347.93l3,0.46v-6.72l-3-.46v-2.64l5.38,0.82,0.36,1.64h0.1a5.06,5.06,0,0,1,1.53-1.09,3.48,3.48,0,0,1,2-.23,3.23,3.23,0,0,1,2.26,1.39,6.43,6.43,0,0,1,.83,3.65l-2.8-.41a2.66,2.66,0,0,0-.25-1.3,1,1,0,0,0-.8-0.51,2.14,2.14,0,0,0-1.54.25,3.85,3.85,0,0,0-1,1c0,2,0,3.07,0,5.11l5.19,0.78c0,1.06,0,1.58,0,2.64-4.5-.67-6.76-1-11.26-1.7v-2.64Z"/><path d="M133.65,359.23a12.72,12.72,0,0,1-3.25-1.51,11.69,11.69,0,0,1-2.8-2.53,12.24,12.24,0,0,1-1.95-3.55,13.41,13.41,0,0,1-.73-4.57,11.7,11.7,0,0,1,.73-4.35,8.64,8.64,0,0,1,1.95-3,8,8,0,0,1,2.8-1.78,10.66,10.66,0,0,1,3.25-.67l0.57,2.65a8.86,8.86,0,0,0-1.9.42,5.77,5.77,0,0,0-2,1.18,6.62,6.62,0,0,0-1.62,2.28,9.08,9.08,0,0,0-.66,3.75,9.6,9.6,0,0,0,.69,3.82,10,10,0,0,0,1.69,2.72,9.12,9.12,0,0,0,2,1.75,9.4,9.4,0,0,0,1.77.88Z"/><path d="M142.79,353a5.13,5.13,0,0,0,1.46,0,3.17,3.17,0,0,0,1.16-.4,2.11,2.11,0,0,0,.77-0.79,2.35,2.35,0,0,0,.27-1.16,2.8,2.8,0,0,0-1-2.21,6,6,0,0,0-3.13-1.17l-0.61-.07-0.66-.05-0.74-.08c0-3.51,0-5.27,0-8.79l8.67,1.15c0,1.17,0,1.76,0,2.93l-6-.79c0,1.3,0,1.94,0,3.24l0.38,0,0.32,0,0.27,0a7.54,7.54,0,0,1,2.23.64,6,6,0,0,1,1.8,1.28,5.67,5.67,0,0,1,1.19,1.85,6,6,0,0,1,.42,2.25,5.12,5.12,0,0,1-.53,2.42,4.27,4.27,0,0,1-1.44,1.6,5.54,5.54,0,0,1-2.11.81,8.28,8.28,0,0,1-2.56,0,6.82,6.82,0,0,1-1.13-.26c-0.4-.12-0.79-0.27-1.17-0.42s-0.74-.32-1.06-0.49-0.6-.33-0.83-0.47l1-2.36a8.37,8.37,0,0,0,1.26.7A6,6,0,0,0,142.79,353Z"/><path d="M156.71,355.67a1.45,1.45,0,0,1,.54-1.23,1.78,1.78,0,0,1,1.35-.31,2.72,2.72,0,0,1,2,1.11,3.74,3.74,0,0,1,.67,2.22,4.22,4.22,0,0,1-.42,1.92,4.36,4.36,0,0,1-1.09,1.4,5,5,0,0,1-1.5.87,5.53,5.53,0,0,1-1.64.35l-0.65-1.4a6.37,6.37,0,0,0,1.16-.26,4,4,0,0,0,1.07-.53A3.08,3.08,0,0,0,159,359a2.29,2.29,0,0,0,.37-1.11,3.09,3.09,0,0,1-1.22-.12,2.15,2.15,0,0,1-.83-0.49,1.86,1.86,0,0,1-.47-0.73A2.64,2.64,0,0,1,156.71,355.67Z"/><path d="M179.71,355.25l-2.88-.32c0,1.87,0,2.81,0,4.68l-2.9-.33c0-1.87,0-2.81,0-4.68l-7.27-.85v-2.14l7.6-9.21,2.57,0.29c0,3.9,0,5.85,0,9.74l2.88,0.32v2.5Zm-5.78-8.48-4.17,4.84,4.17,0.48C173.93,350,173.93,348.9,173.93,346.77Z"/><path d="M183.14,362.78a7.46,7.46,0,0,0,1.78-.44,6.47,6.47,0,0,0,2.05-1.24,7.1,7.1,0,0,0,1.69-2.3,8.36,8.36,0,0,0,.7-3.65,10.27,10.27,0,0,0-.66-3.91,9.27,9.27,0,0,0-1.62-2.68,8.17,8.17,0,0,0-2-1.68,11.17,11.17,0,0,0-1.91-.89l0.58-2.51A13.31,13.31,0,0,1,187,345a11.37,11.37,0,0,1,2.81,2.48,12,12,0,0,1,2,3.5,13.16,13.16,0,0,1,.73,4.53,11.86,11.86,0,0,1-.73,4.39,8.84,8.84,0,0,1-2,3.06,8.22,8.22,0,0,1-2.81,1.84,10.23,10.23,0,0,1-3.26.7Z"/><path d="M362.49,370.14c0-1.06,0-1.58,0-2.64h2.84c0-2.69,0-4,0-6.72h-2.87c0-1.06,0-1.58,0-2.64h2.87v-0.67a4.4,4.4,0,0,1,.4-1.95,3.93,3.93,0,0,1,1-1.35,4.31,4.31,0,0,1,1.51-.78,6.28,6.28,0,0,1,1.77-.26,11.32,11.32,0,0,1,2.74.26,7,7,0,0,1,1.77.67l-0.92,2.38a11.15,11.15,0,0,0-1.19-.47,5.26,5.26,0,0,0-1.65-.21,2.35,2.35,0,0,0-1.82.59,2.6,2.6,0,0,0-.52,1.77l5.06,0v2.64l-5.06,0c0,2.69,0,4,0,6.72l5.09,0v2.64C369.13,370.14,366.92,370.15,362.49,370.14Z"/><path d="M377.41,358.9a13.32,13.32,0,0,1,2.23-.76,12.8,12.8,0,0,1,3-.34,6.65,6.65,0,0,1,2.13.27,3.51,3.51,0,0,1,1.42.83,3.17,3.17,0,0,1,.78,1.31,5.75,5.75,0,0,1,.24,1.72q0,1.22-.08,2.09c-0.06.58-.08,1.09-0.08,1.54a10.13,10.13,0,0,0,0,1.13c0,0.22.06,0.44,0.07,0.65l1.57,0c0,1.06,0,1.58,0,2.64l-4,.06-0.32-1.63h-0.12a4.23,4.23,0,0,1-1.37,1.3,4.6,4.6,0,0,1-2.4.56,4,4,0,0,1-2.85-.93,3.25,3.25,0,0,1-1.05-2.54A3.83,3.83,0,0,1,377,365a3.15,3.15,0,0,1,1.08-1.21,5.19,5.19,0,0,1,1.7-.71,10.07,10.07,0,0,1,2.22-.25,9.08,9.08,0,0,1,.91,0L384,363a2.46,2.46,0,0,0,0-.48v-0.46a1.52,1.52,0,0,0-.53-1.3,2.55,2.55,0,0,0-1.56-.38,7.31,7.31,0,0,0-2.2.33,14.61,14.61,0,0,0-1.65.64Zm4.1,8.77a2.64,2.64,0,0,0,2.55-1.35v-1.44l-0.71-.1a8.21,8.21,0,0,0-1,0,5,5,0,0,0-.91.09,3,3,0,0,0-.81.27,1.62,1.62,0,0,0-.57.47,1.14,1.14,0,0,0-.21.7,1.36,1.36,0,0,0,.39,1A1.84,1.84,0,0,0,381.52,367.67Z"/><path d="M402.87,368.53a7.07,7.07,0,0,1-2.31,1.17,10.24,10.24,0,0,1-2.77.43,7.81,7.81,0,0,1-2.78-.4,5.54,5.54,0,0,1-2-1.25,5.33,5.33,0,0,1-1.27-2,7.37,7.37,0,0,1-.43-2.58,6.82,6.82,0,0,1,.51-2.7,5.8,5.8,0,0,1,1.41-2,6.22,6.22,0,0,1,2.13-1.28,8.36,8.36,0,0,1,2.68-.47,9.89,9.89,0,0,1,2.53.26,11.37,11.37,0,0,1,1.81.56c0,1.69,0,2.53,0,4.22l-2.65.06v-2.21a6.82,6.82,0,0,0-1.49-.14,4.59,4.59,0,0,0-1.34.23,3.37,3.37,0,0,0-1.18.67,3.49,3.49,0,0,0-.84,1.13,3.71,3.71,0,0,0-.33,1.62,3.67,3.67,0,0,0,.26,1.41,3.27,3.27,0,0,0,.75,1.11,3.34,3.34,0,0,0,1.19.73,4.27,4.27,0,0,0,1.58.25,5.72,5.72,0,0,0,2.25-.43,9.35,9.35,0,0,0,1.31-.7Z"/><path d="M407,360.22l-2.39.06c0-1.06,0-1.58,0-2.64l2.39-.06c0-1.09,0-1.64,0-2.74l3.13-1c0,1.45,0,2.18,0,3.63l6.31-.19c0,1.06,0,1.58,0,2.64l-6.31.19v3.43a4,4,0,0,0,.7,2.66,2.35,2.35,0,0,0,2,.77,4.24,4.24,0,0,0,1.18-.19,4.59,4.59,0,0,0,1-.43,5.73,5.73,0,0,0,.77-0.55l0.64-.55,1.45,2.11a4.81,4.81,0,0,1-1,.91,9.08,9.08,0,0,1-1.33.74,8.59,8.59,0,0,1-1.48.51,7.16,7.16,0,0,1-1.52.21,5.07,5.07,0,0,1-4.06-1.39q-1.36-1.46-1.36-4.73v-3.43Z"/><path d="M419.47,363.21a7.51,7.51,0,0,1,.46-2.7,5.7,5.7,0,0,1,3.31-3.34,7.89,7.89,0,0,1,2.61-.52,7.47,7.47,0,0,1,2.71.35,5.31,5.31,0,0,1,2,1.21,5.11,5.11,0,0,1,1.24,2,8.15,8.15,0,0,1,0,5.28,5.72,5.72,0,0,1-3.31,3.36,7.83,7.83,0,0,1-2.61.52,7.4,7.4,0,0,1-2.71-.36,5.32,5.32,0,0,1-2-1.21,5.17,5.17,0,0,1-1.24-2A7.5,7.5,0,0,1,419.47,363.21Zm3.23-.11a4.67,4.67,0,0,0,.22,1.46,3.43,3.43,0,0,0,.63,1.15,2.68,2.68,0,0,0,1,.75,3,3,0,0,0,1.33.23,3.17,3.17,0,0,0,2.28-1,4.85,4.85,0,0,0,.06-5.48,2.72,2.72,0,0,0-2.34-.93,3.8,3.8,0,0,0-1.25.25,2.6,2.6,0,0,0-1,.7,3.38,3.38,0,0,0-.66,1.18A5.23,5.23,0,0,0,422.7,363.1Z"/><path d="M434,366l3-.13c0-2.69,0-4,0-6.72l-3,.13c0-1.06,0-1.58,0-2.64l5.42-.24,0.36,1.57h0.1a6.78,6.78,0,0,1,1.54-1.39,4,4,0,0,1,2-.62,2.61,2.61,0,0,1,2.28.94,5.6,5.6,0,0,1,.83,3.49l-2.82.14a2.35,2.35,0,0,0-.25-1.25,0.84,0.84,0,0,0-.81-0.36,2.5,2.5,0,0,0-1.55.55,5.17,5.17,0,0,0-1,1.15v5.11l5.23-.25c0,1.06,0,1.58,0,2.64-4.54.22-6.81,0.33-11.35,0.52C434,367.6,434,367.07,434,366Z"/><path d="M449,365.32l4.24-.22v-6.72l-4.24.22c0-1.06,0-1.58,0-2.64l7.37-.39c0,3.74,0,5.62,0,9.36l4.45-.25c0,1.06,0,1.58,0,2.64-4.73.28-7.09,0.41-11.82,0.65C449,366.9,449,366.38,449,365.32Zm3.66-12.81a1.8,1.8,0,0,1,.55-1.3,2.63,2.63,0,0,1,3.15-.17,1.54,1.54,0,0,1,.6,1.24,1.65,1.65,0,0,1-.6,1.29,2.59,2.59,0,0,1-1.61.58,2.14,2.14,0,0,1-1.54-.41A1.52,1.52,0,0,1,452.62,352.5Z"/><path d="M464.15,355.93a14,14,0,0,1,2.23-.88,13,13,0,0,1,3-.5,6.52,6.52,0,0,1,2.13.16,3.28,3.28,0,0,1,1.42.76,3,3,0,0,1,.78,1.27,5.63,5.63,0,0,1,.24,1.71q0,1.22-.08,2.09c-0.06.58-.08,1.1-0.08,1.54a10.1,10.1,0,0,0,0,1.12c0,0.22.06,0.44,0.07,0.64l1.56-.1c0,1.06,0,1.58,0,2.64l-4,.27L471.11,365H471a4.56,4.56,0,0,1-1.36,1.37,4.78,4.78,0,0,1-2.39.69,3.86,3.86,0,0,1-2.85-.78,3.08,3.08,0,0,1-1.05-2.48,4,4,0,0,1,.37-1.76,3.4,3.4,0,0,1,1.08-1.26,5.49,5.49,0,0,1,1.7-.8,10.28,10.28,0,0,1,2.21-.36c0.29,0,.59,0,0.91,0l1.17,0a2.51,2.51,0,0,0,0-.48v-0.46a1.44,1.44,0,0,0-.52-1.27,2.46,2.46,0,0,0-1.55-.3,7.5,7.5,0,0,0-2.2.45,15.34,15.34,0,0,0-1.65.73Zm4.1,8.55A3,3,0,0,0,470,364a3.11,3.11,0,0,0,.83-1v-1.44l-0.71-.06a8.21,8.21,0,0,0-1,0,5.1,5.1,0,0,0-.91.14,3.2,3.2,0,0,0-.81.31,1.75,1.75,0,0,0-.57.5,1.19,1.19,0,0,0-.21.71,1.29,1.29,0,0,0,.39,1A1.77,1.77,0,0,0,468.25,364.48Z"/><path d="M478.52,349.38l5.13-.36c0,4.44,0,6.65,0,11.09a4.93,4.93,0,0,0,.46,2.54,1.49,1.49,0,0,0,1.47.61,4.21,4.21,0,0,0,1.23-.25,5,5,0,0,0,1-.52l1.18,2.07c-0.27.2-.55,0.38-0.82,0.55a5.79,5.79,0,0,1-.87.45,6.22,6.22,0,0,1-1,.31,8.18,8.18,0,0,1-1.21.17,4.29,4.29,0,0,1-3.39-.91,4.18,4.18,0,0,1-1.13-3.18c0-4,0-6,0-10.08l-2,.14C478.52,351,478.52,350.44,478.52,349.38Z"/><path d="M492.74,367.94c4.27-.33,6.41-0.51,10.68-0.86,0,1,0,1.54,0,2.57-4.27.36-6.41,0.53-10.68,0.86C492.74,369.48,492.74,369,492.74,367.94Z"/><path d="M505.29,347.31l4.86-.42c0,2.46,0,3.69,0,6.14h0.1a4.61,4.61,0,0,1,1.54-1.36A5.59,5.59,0,0,1,514,351a5.49,5.49,0,0,1,1.68.09,2.85,2.85,0,0,1,1.32.67,3.32,3.32,0,0,1,.86,1.42,7.28,7.28,0,0,1,.31,2.31c0,3,0,4.48,0,7.46l-3.12.29c0-2.73,0-4.09,0-6.82a2.75,2.75,0,0,0-.62-2.05,2,2,0,0,0-1.63-.5,3,3,0,0,0-1.63.69,3.34,3.34,0,0,0-1.06,1.47c0,3.06,0,4.59,0,7.66L507,364c0-5.66,0-8.5,0-14.16l-1.73.15C505.29,348.89,505.29,348.37,505.29,347.31Z"/><path d="M532.54,360.28a4.93,4.93,0,0,1-.81.65,8.71,8.71,0,0,1-1.15.63,9.78,9.78,0,0,1-3.14.84,7.88,7.88,0,0,1-2.75-.16,4.72,4.72,0,0,1-3.34-2.93,7.07,7.07,0,0,1-.44-2.61,7.42,7.42,0,0,1,.5-2.82,6.32,6.32,0,0,1,1.38-2.11,6.57,6.57,0,0,1,2.05-1.39,8.44,8.44,0,0,1,2.55-.64,7.73,7.73,0,0,1,1.89.05,4.65,4.65,0,0,1,1.79.65,3.83,3.83,0,0,1,1.33,1.44,5,5,0,0,1,.52,2.44,11.77,11.77,0,0,1-.24,2.26l-8.65.86a2.58,2.58,0,0,0,.32,1.27,2.23,2.23,0,0,0,.79.79,3.09,3.09,0,0,0,1.13.38,5.57,5.57,0,0,0,1.36,0,7.39,7.39,0,0,0,2.37-.57,5.71,5.71,0,0,0,1.5-1Zm-5.19-8a4.19,4.19,0,0,0-1.18.29,3.72,3.72,0,0,0-1,.6,3.19,3.19,0,0,0-.73.89,2.74,2.74,0,0,0-.34,1.13l5.91-.58a2.41,2.41,0,0,0-.66-1.83A2.44,2.44,0,0,0,527.35,352.24Z"/><path d="M536.21,344.38l5.11-.54c0,4.44,0,6.65,0,11.09a4.84,4.84,0,0,0,.46,2.52,1.44,1.44,0,0,0,1.46.56,4.28,4.28,0,0,0,1.22-.29,5.23,5.23,0,0,0,1-.55l1.18,2q-0.41.31-.82,0.58a6,6,0,0,1-.86.48,6.39,6.39,0,0,1-1,.35,8.28,8.28,0,0,1-1.21.22,4.17,4.17,0,0,1-3.38-.79,4.06,4.06,0,0,1-1.13-3.14c0-4,0-6,0-10.08l-2,.21C536.21,346,536.21,345.43,536.21,344.38Z"/><path d="M548.52,347.85l4.08-.46,0.36,1.4h0.1a5.22,5.22,0,0,1,4-2.24,5.49,5.49,0,0,1,2,.11,3.38,3.38,0,0,1,1.58.9,4.41,4.41,0,0,1,1,1.75,8.56,8.56,0,0,1,.36,2.67,9.31,9.31,0,0,1-.41,2.82,6.84,6.84,0,0,1-1.18,2.24,6,6,0,0,1-1.87,1.54,7.06,7.06,0,0,1-2.52.75,9.84,9.84,0,0,1-1.46.06,3.71,3.71,0,0,1-1.2-.21c0,2,0,3,0,4.92l-3.12.35c0-5.66,0-8.5,0-14.16l-1.8.2v-2.64Zm7.63,1.43a3.5,3.5,0,0,0-1.67.65,2.77,2.77,0,0,0-1,1.49v5a2.3,2.3,0,0,0,1,.31,5.22,5.22,0,0,0,1.28,0,3.64,3.64,0,0,0,1.25-.37,3,3,0,0,0,1-.85,4.09,4.09,0,0,0,.67-1.35,6.56,6.56,0,0,0,.24-1.88,3.22,3.22,0,0,0-.77-2.36A2.23,2.23,0,0,0,556.15,349.28Z"/><path d="M575.71,355.31a5.11,5.11,0,0,1-.8.67,8.93,8.93,0,0,1-1.15.66,9.95,9.95,0,0,1-3.13.92,7.82,7.82,0,0,1-2.74-.09,4.71,4.71,0,0,1-2.05-1,4.66,4.66,0,0,1-1.28-1.83,7,7,0,0,1-.44-2.6,7.54,7.54,0,0,1,.5-2.83,6.55,6.55,0,0,1,1.38-2.15,6.79,6.79,0,0,1,2-1.44,8.57,8.57,0,0,1,2.54-.71,7.67,7.67,0,0,1,1.88,0,4.53,4.53,0,0,1,1.78.6,3.69,3.69,0,0,1,1.33,1.4,5,5,0,0,1,.52,2.43,11.89,11.89,0,0,1-.24,2.26l-8.63,1.09a2.53,2.53,0,0,0,.32,1.26,2.14,2.14,0,0,0,.79.77,3,3,0,0,0,1.13.35,5.54,5.54,0,0,0,1.35,0,7.51,7.51,0,0,0,2.36-.63,5.9,5.9,0,0,0,1.5-1Zm-5.18-7.91a4.25,4.25,0,0,0-1.17.32,3.84,3.84,0,0,0-1,.63,3.31,3.31,0,0,0-.73.91,2.8,2.8,0,0,0-.34,1.14l5.9-.74a2.35,2.35,0,0,0-.66-1.81A2.39,2.39,0,0,0,570.53,347.4Z"/><path d="M578.23,353.62l3-.39v-6.72l-3,.39c0-1.06,0-1.58,0-2.64l5.39-.71,0.36,1.54h0.1a7.7,7.7,0,0,1,1.53-1.53,4.26,4.26,0,0,1,2-.8,2.39,2.39,0,0,1,2.26.75,5.29,5.29,0,0,1,.83,3.42l-2.8.38a2.24,2.24,0,0,0-.25-1.23,0.77,0.77,0,0,0-.8-0.29,2.7,2.7,0,0,0-1.54.69,5.88,5.88,0,0,0-1,1.24v5.11l5.2-.7c0,1.06,0,1.58,0,2.64-4.51.62-6.77,0.92-11.28,1.51C578.23,355.2,578.23,354.67,578.23,353.62Z"/><path d="M602.55,358a10,10,0,0,1-3.25-.59,7.8,7.8,0,0,1-2.8-1.74,8.42,8.42,0,0,1-2-3,11.69,11.69,0,0,1-.73-4.36,13.42,13.42,0,0,1,.73-4.56,12.53,12.53,0,0,1,2-3.57,12,12,0,0,1,2.8-2.58,13.8,13.8,0,0,1,3.25-1.6l0.57,2.49a11.52,11.52,0,0,0-1.9,1,8.57,8.57,0,0,0-2,1.76,9.7,9.7,0,0,0-1.61,2.74,10.49,10.49,0,0,0-.66,3.93,8.22,8.22,0,0,0,.69,3.62,6.72,6.72,0,0,0,1.69,2.24,6.15,6.15,0,0,0,2,1.17,7.25,7.25,0,0,0,1.77.38Z"/><path d="M619.06,345.22a5.87,5.87,0,0,1-.44,2.25,6.79,6.79,0,0,1-1.21,1.94,7,7,0,0,1-1.83,1.46,6.7,6.7,0,0,1-2.28.78,6.46,6.46,0,0,1-2.33,0,4.37,4.37,0,0,1-1.9-.9,4.6,4.6,0,0,1-1.29-1.8,6.94,6.94,0,0,1-.48-2.71,11.86,11.86,0,0,1,.83-4.44,14.51,14.51,0,0,1,2.12-3.69,13.8,13.8,0,0,1,2.89-2.74,11.41,11.41,0,0,1,3.18-1.6l0.69,2.37a10.9,10.9,0,0,0-2.37,1.14,10.77,10.77,0,0,0-2,1.61,9.83,9.83,0,0,0-1.45,1.92,7,7,0,0,0-.8,2.07,4.58,4.58,0,0,1,1.43-1.24,5.82,5.82,0,0,1,2.1-.74,5.48,5.48,0,0,1,2,0,3.67,3.67,0,0,1,2.69,2.21A5.26,5.26,0,0,1,619.06,345.22Zm-3,.59a2.12,2.12,0,0,0-.78-1.85,2.79,2.79,0,0,0-2.09-.35,3.93,3.93,0,0,0-1.72.69,3.82,3.82,0,0,0-1.12,1.18,4.34,4.34,0,0,0-.06.6c0,0.22,0,.39,0,0.52a3,3,0,0,0,.19,1.07,2.13,2.13,0,0,0,1.46,1.33,2.9,2.9,0,0,0,1.22,0,3.31,3.31,0,0,0,1.08-.37,3.77,3.77,0,0,0,.93-0.71,3.44,3.44,0,0,0,.66-1A2.82,2.82,0,0,0,616.05,345.81Z"/><path d="M621.26,341.66a15.24,15.24,0,0,1,.45-3.9,9.48,9.48,0,0,1,1.28-2.93,6.62,6.62,0,0,1,4.54-2.88,4.76,4.76,0,0,1,4.65,1.37q1.63,1.86,1.63,6.32a15.37,15.37,0,0,1-.46,3.93,9.67,9.67,0,0,1-1.28,2.95,6.64,6.64,0,0,1-2,2,6.82,6.82,0,0,1-2.58,1,4.6,4.6,0,0,1-4.65-1.5Q621.26,345.94,621.26,341.66Zm3.11-.49c0,0.24,0,.47,0,0.68s0,0.43,0,.65l5.78-6.28a2.22,2.22,0,0,0-2.68-1.63,3.13,3.13,0,0,0-2.33,1.85A10.74,10.74,0,0,0,624.37,341.18Zm6.35-1q0-.38,0-0.73c0-.23,0-0.46,0-0.68l-5.8,6.28a2.26,2.26,0,0,0,2.68,1.76,3.17,3.17,0,0,0,2.35-1.84A10.78,10.78,0,0,0,630.72,340.15Z"/><path d="M639.88,345.53a2,2,0,0,1,.54-1.39,2.33,2.33,0,0,1,1.35-.71,2,2,0,0,1,2,.53,2.94,2.94,0,0,1,.67,2,5.07,5.07,0,0,1-.42,2,6.56,6.56,0,0,1-1.08,1.72,7.54,7.54,0,0,1-1.49,1.31,7.2,7.2,0,0,1-1.63.83l-0.64-1.21a8.36,8.36,0,0,0,1.16-.6,6,6,0,0,0,1.06-.84,4.71,4.71,0,0,0,.8-1.06,3,3,0,0,0,.37-1.22,3.18,3.18,0,0,1-1.22.24,1.56,1.56,0,0,1-.82-0.24,1.24,1.24,0,0,1-.46-0.59A2.31,2.31,0,0,1,639.88,345.53Z"/><path d="M661.45,343.28c-4.25.77-6.37,1.15-10.63,1.9v-2.33l0.72-.76,1-1.07q0.54-.6,1.13-1.3t1.17-1.46q0.81-1.05,1.42-1.91a14.89,14.89,0,0,0,1-1.58,7,7,0,0,0,.58-1.4A4.88,4.88,0,0,0,658,332a1.94,1.94,0,0,0-.21-0.9,2,2,0,0,0-.6-0.7,2.31,2.31,0,0,0-.92-0.39,3.16,3.16,0,0,0-1.18,0,5,5,0,0,0-1.56.54,6.82,6.82,0,0,0-1.47,1.15l-1.24-2a13.3,13.3,0,0,1,2.23-1.6,8.63,8.63,0,0,1,2.82-1,6.5,6.5,0,0,1,2-.06,4.28,4.28,0,0,1,1.67.55,3.17,3.17,0,0,1,1.16,1.2,3.75,3.75,0,0,1,.43,1.87,7.71,7.71,0,0,1-.13,1.45,8.08,8.08,0,0,1-.4,1.39,11.24,11.24,0,0,1-.72,1.49q-0.44.78-1.06,1.7c-0.32.47-.67,1-1,1.45s-0.74,1-1.11,1.41-0.73.87-1.08,1.27-0.68.74-1,1l6.86-1.23v2.64Z"/><path d="M666.14,344.89a9.86,9.86,0,0,0,1.76-1,9.73,9.73,0,0,0,2-1.84,10.6,10.6,0,0,0,1.68-2.8,9.88,9.88,0,0,0,.69-3.85,8.91,8.91,0,0,0-.65-3.72,6.2,6.2,0,0,0-1.61-2.21,5.4,5.4,0,0,0-2-1.09,8.56,8.56,0,0,0-1.89-.33l0.57-2.67a10.29,10.29,0,0,1,3.24.53,7.46,7.46,0,0,1,2.78,1.66,8.13,8.13,0,0,1,1.94,2.93,11.51,11.51,0,0,1,.72,4.31,13.78,13.78,0,0,1-.72,4.6,12.94,12.94,0,0,1-1.94,3.63,12.43,12.43,0,0,1-2.78,2.66,13.27,13.27,0,0,1-3.24,1.66Z"/></svg>