<svg id="Layer_1" data-name="Layer 1" xmlns="http://www.w3.org/2000/svg" viewBox="0 0 720 576"><defs><style>.cls-1,.cls-2,.cls-4,.cls-6{fill:#231f20;}.cls-1,.cls-3{stroke:#231f20;}.cls-1,.cls-6{stroke-miterlimit:10;}.cls-1,.cls-2,.cls-3{stroke-width:2px;}.cls-2{stroke:#000;}.cls-2,.cls-3{stroke-linecap:round;stroke-linejoin:round;}.cls-3,.cls-5{fill:#fff;}.cls-6{stroke:#fff;}</style></defs><title>Hanoi_Tower_Set_5_Final</title><path class="cls-1" d="M685,506.49c0-.14,0-0.29,0-0.43s0-.29,0-0.43V453.84H39.16s-0.25,51.74-.25,52.22c0,2.67,2.32,5.24,6.64,7.71,15.13,8.61,55.2,16.11,111,21.48s127.37,8.59,205.39,8.59c89.16,0,169.88-4.21,228.32-11,29.22-3.41,52.87-7.46,69.23-12,8.18-2.25,14.54-4.62,18.86-7.08,3.69-2.1,5.91-4.29,6.48-6.55H685v-0.73Z"/><ellipse class="cls-2" cx="361.96" cy="454.92" rx="322.86" ry="37.63"/><path class="cls-3" d="M685,455c0-.14,0-0.29,0-0.43s0-.29,0-0.43V402.36H39.16s-0.25,51.74-.25,52.22c0,2.67,2.32,5.24,6.64,7.71,15.13,8.61,55.2,16.11,111,21.48s127.37,8.59,205.39,8.59c89.16,0,169.88-4.21,228.32-11,29.22-3.41,52.87-7.46,69.23-12,8.18-2.25,14.54-4.62,18.86-7.08,3.69-2.1,5.91-4.29,6.48-6.55H685V455Z"/><ellipse class="cls-3" cx="361.96" cy="403.44" rx="322.86" ry="37.63"/><path class="cls-3" d="M685,403.53c0-.14,0-0.29,0-0.43s0-.29,0-0.43V350.88H39.16s-0.25,51.74-.25,52.22c0,2.67,2.32,5.24,6.64,7.71,15.13,8.61,55.2,16.11,111,21.48s127.37,8.59,205.39,8.59c89.16,0,169.88-4.21,228.32-11,29.22-3.41,52.87-7.46,69.23-12,8.18-2.25,14.54-4.62,18.86-7.08,3.69-2.1,5.91-4.29,6.48-6.55H685v-0.73Z"/><ellipse class="cls-3" cx="361.96" cy="351.97" rx="322.86" ry="37.63"/><path class="cls-3" d="M685,352.06c0-.14,0-0.29,0-0.43s0-.29,0-0.43V299.4H39.16s-0.25,51.74-.25,52.22c0,2.67,2.32,5.24,6.64,7.71,15.13,8.61,55.2,16.11,111,21.48S283.94,389.4,362,389.4c89.16,0,169.88-4.21,228.32-11,29.22-3.41,52.87-7.46,69.23-12,8.18-2.25,14.54-4.62,18.86-7.08,3.69-2.1,5.91-4.29,6.48-6.55H685v-0.73Z"/><ellipse class="cls-3" cx="361.96" cy="300.49" rx="322.86" ry="37.63"/><path class="cls-3" d="M685,302.06c0-.14,0-0.29,0-0.43s0-.29,0-0.43V249.4H39.16s-0.25,51.74-.25,52.22c0,2.67,2.32,5.24,6.64,7.71,15.13,8.61,55.2,16.11,111,21.48S283.94,339.4,362,339.4c89.16,0,169.88-4.21,228.32-11,29.22-3.41,52.87-7.46,69.23-12,8.18-2.25,14.54-4.62,18.86-7.08,3.69-2.1,5.91-4.29,6.48-6.55H685v-0.73Z"/><ellipse class="cls-3" cx="361.96" cy="250.49" rx="322.86" ry="37.63"/><path class="cls-3" d="M685,251.06c0-.14,0-0.29,0-0.43s0-.29,0-0.43V198.4H39.16s-0.25,51.74-.25,52.22c0,2.67,2.32,5.24,6.64,7.71,15.13,8.61,55.2,16.11,111,21.48S283.94,288.4,362,288.4c89.16,0,169.88-4.21,228.32-11,29.22-3.41,52.87-7.46,69.23-12,8.18-2.25,14.54-4.62,18.86-7.08,3.69-2.1,5.91-4.29,6.48-6.55H685v-0.73Z"/><ellipse class="cls-3" cx="361.96" cy="199.49" rx="322.86" ry="37.63"/><path class="cls-4" d="M362,208.64c-16,0-29-3.75-30.2-8.61h-0.08l0-.5V8.27h60.63V200h-0.12C390.93,204.89,377.93,208.64,362,208.64Z"/><path class="cls-5" d="M391.78,8.77V199.53h0c-0.49,4.78-13.63,8.61-29.79,8.61s-29.3-3.83-29.79-8.61h0v-0.21s0,0,0-.06,0,0,0-.06V8.77h59.63m1-1H331.15V199.15s0,0.07,0,.11v1.27h0.22c1.05,3,5.66,4.94,9.53,6.06a88,88,0,0,0,42.09,0c3.87-1.12,8.48-3.05,9.53-6.06h0.21l0-1V7.77h0Z"/><ellipse class="cls-6" cx="361.95" cy="8.89" rx="29.81" ry="8.89"/><path class="cls-4" d="M53,243.38l2.83,0.45v-6.44L53,236.94v-2.53l5.14,0.81,0.34,1.57h0.09a4.86,4.86,0,0,1,1.46-1,3.32,3.32,0,0,1,1.92-.21,3.1,3.1,0,0,1,2.16,1.34,6.19,6.19,0,0,1,.79,3.5L62.22,240a2.55,2.55,0,0,0-.24-1.24,1,1,0,0,0-.77-0.5,2,2,0,0,0-1.47.23,3.69,3.69,0,0,0-.95.91v4.9l5,0.76v2.53c-4.31-.66-6.46-1-10.77-1.68v-2.53Z"/><path class="cls-4" d="M78,248.49a3.35,3.35,0,0,1-.77.43,6.42,6.42,0,0,1-1.1.33,7.79,7.79,0,0,1-1.38.16,8.76,8.76,0,0,1-1.6-.1,8.51,8.51,0,0,1-2.62-.8,6.35,6.35,0,0,1-3.18-3.59,7.67,7.67,0,0,1-.42-2.6,6.27,6.27,0,0,1,.48-2.58,4.3,4.3,0,0,1,1.32-1.7,4.6,4.6,0,0,1,2-.85,7.28,7.28,0,0,1,2.43,0,8.14,8.14,0,0,1,1.8.5,5.88,5.88,0,0,1,1.71,1,5.24,5.24,0,0,1,1.27,1.69,5.61,5.61,0,0,1,.49,2.46,10.51,10.51,0,0,1-.23,2.11l-8.24-1.21a3,3,0,0,0,.31,1.29A3,3,0,0,0,71,246a3.88,3.88,0,0,0,1.08.63,5.77,5.77,0,0,0,1.29.34,6.43,6.43,0,0,0,2.25,0,4,4,0,0,0,1.43-.57Zm-4.94-8.94a3.63,3.63,0,0,0-1.12,0,2.66,2.66,0,0,0-.95.34,2.11,2.11,0,0,0-.7.68,2.15,2.15,0,0,0-.32,1l5.63,0.83A2.89,2.89,0,0,0,75,240.5,2.93,2.93,0,0,0,73.09,239.55Z"/><path class="cls-4" d="M92,250.59a5.66,5.66,0,0,1-2.2.76,9.32,9.32,0,0,1-2.63,0,8.17,8.17,0,0,1-2.65-.81A6.55,6.55,0,0,1,82.62,249a6.29,6.29,0,0,1-1.2-2.09,7.69,7.69,0,0,1-.41-2.54,6,6,0,0,1,.48-2.51,4.44,4.44,0,0,1,1.34-1.72,4.88,4.88,0,0,1,2-.9,7.52,7.52,0,0,1,2.54,0,10.13,10.13,0,0,1,2.4.63,12.93,12.93,0,0,1,1.72.81v4L89,244.37v-2.12a6.92,6.92,0,0,0-1.42-.36,4.13,4.13,0,0,0-1.27,0,2.58,2.58,0,0,0-1.92,1.42,3.26,3.26,0,0,0-.31,1.5,3.85,3.85,0,0,0,.25,1.39A3.9,3.9,0,0,0,85,247.4a4,4,0,0,0,1.13.88,4.49,4.49,0,0,0,1.5.48,5.09,5.09,0,0,0,2.14-.07,7.35,7.35,0,0,0,1.25-.47Z"/><path class="cls-4" d="M100.84,241.39l4.26,0.56v9l1.74,0.23v2.53l-3.62-.48-0.53-1.77h-0.09a3.34,3.34,0,0,1-1.58,1.24,4.48,4.48,0,0,1-2.34.26,5.66,5.66,0,0,1-1.59-.45,3.45,3.45,0,0,1-1.23-.93,4.17,4.17,0,0,1-.78-1.53,8.22,8.22,0,0,1-.27-2.29V243.1l-1.31-.18v-2.53L97.79,241v6.53a3.86,3.86,0,0,0,.45,2.08,1.88,1.88,0,0,0,1.41.81,2.3,2.3,0,0,0,2.48-1.42v-4.9l-1.28-.17v-2.53Z"/><path class="cls-4" d="M107.93,251.29l2.84,0.37v-6.44l-2.84-.37v-2.53l5.16,0.66,0.34,1.56h0.09a5.07,5.07,0,0,1,1.47-1.08,3.37,3.37,0,0,1,1.93-.26,3,3,0,0,1,2.17,1.28,6.06,6.06,0,0,1,.79,3.48l-2.68-.33a2.5,2.5,0,0,0-.24-1.24,1,1,0,0,0-.77-0.48,2.07,2.07,0,0,0-1.48.27,3.86,3.86,0,0,0-1,.94V252l5,0.62v2.53c-4.32-.54-6.48-0.81-10.8-1.37v-2.53Z"/><path class="cls-4" d="M131.23,261.58a11.91,11.91,0,0,1-3.12-1.38,10.86,10.86,0,0,1-2.68-2.37,11.38,11.38,0,0,1-1.87-3.35,12.72,12.72,0,0,1-.7-4.36,11.33,11.33,0,0,1,.7-4.18,8.52,8.52,0,0,1,1.87-2.94,7.87,7.87,0,0,1,2.68-1.77,10.36,10.36,0,0,1,3.12-.71l0.55,2.53a8.68,8.68,0,0,0-1.82.44,5.66,5.66,0,0,0-1.94,1.17,6.54,6.54,0,0,0-1.55,2.22,8.8,8.8,0,0,0-.63,3.6,9.09,9.09,0,0,0,.67,3.64,9.26,9.26,0,0,0,1.62,2.57,8.48,8.48,0,0,0,2,1.64,8.89,8.89,0,0,0,1.7.81Z"/><path class="cls-4" d="M136.9,257.36l6.61-12.64-7.49-.85v-2.71c4.19,0.48,6.28.72,10.47,1.18v2.25l-6.68,13.1Z"/><path class="cls-4" d="M149.58,247.71a5.36,5.36,0,0,1,.4-2.12,4.21,4.21,0,0,1,1.13-1.57,4.56,4.56,0,0,1,1.75-.92,6,6,0,0,1,2.29-.16,7.19,7.19,0,0,1,2.34.64,5.66,5.66,0,0,1,1.82,1.35,6,6,0,0,1,1.17,2,8,8,0,0,1,.41,2.65,13.1,13.1,0,0,1-.69,4.53,8.33,8.33,0,0,1-1.85,3,6.93,6.93,0,0,1-2.7,1.7,10,10,0,0,1-3.22.53L151.78,257a7.44,7.44,0,0,0,2.29-.38,6,6,0,0,0,1.78-1,5.12,5.12,0,0,0,1.24-1.41,4.77,4.77,0,0,0,.62-1.79,3,3,0,0,1-1.24.64,5,5,0,0,1-1.82.1h0a5.93,5.93,0,0,1-1.77-.49,5.52,5.52,0,0,1-1.62-1.09,5.61,5.61,0,0,1-1.18-1.68A5.18,5.18,0,0,1,149.58,247.71Zm2.89,0.15a2.74,2.74,0,0,0,.24,1.16,2.92,2.92,0,0,0,.63.9,3.08,3.08,0,0,0,.91.6,3.56,3.56,0,0,0,1.07.29,3.9,3.9,0,0,0,1.63-.13,2.09,2.09,0,0,0,1-.63,6.37,6.37,0,0,0,.07-0.91,4.64,4.64,0,0,0-.18-1.28,3.85,3.85,0,0,0-.55-1.16,3.19,3.19,0,0,0-.92-0.87,2.93,2.93,0,0,0-1.26-.42A2.26,2.26,0,0,0,152.47,247.86Z"/><path class="cls-4" d="M174.15,261.27c-4.1-.39-6.15-0.59-10.25-1V258c0.18-.13.41-0.31,0.69-0.54l0.93-.77q0.52-.43,1.09-0.95t1.13-1.08q0.78-.8,1.37-1.45a9.79,9.79,0,0,0,1-1.25,4.92,4.92,0,0,0,.56-1.19,4.13,4.13,0,0,0,.18-1.24,2.21,2.21,0,0,0-.21-0.92,2.81,2.81,0,0,0-.57-0.83,3.15,3.15,0,0,0-.89-0.61,3.39,3.39,0,0,0-1.14-.31,4.16,4.16,0,0,0-1.51.1,4.55,4.55,0,0,0-1.41.71l-1.19-2.24a9,9,0,0,1,2.15-.95,7.09,7.09,0,0,1,2.72-.2,6.88,6.88,0,0,1,1.9.46,5.66,5.66,0,0,1,1.61,1,4.55,4.55,0,0,1,1.12,1.45,4.27,4.27,0,0,1,.41,1.9,6.81,6.81,0,0,1-.13,1.36,6.16,6.16,0,0,1-.39,1.23,7.58,7.58,0,0,1-.69,1.23q-0.43.63-1,1.35-0.46.55-1,1.11t-1.07,1.06q-0.53.5-1,.93a11.61,11.61,0,0,1-.93.71l6.62,0.64v2.53Z"/><path class="cls-4" d="M176.79,253.45a13.28,13.28,0,0,1,.44-3.63,6.77,6.77,0,0,1,1.24-2.49,4.49,4.49,0,0,1,1.9-1.38,5.54,5.54,0,0,1,2.47-.29,5.9,5.9,0,0,1,4.48,2.44q1.57,2.18,1.57,6.45a13.4,13.4,0,0,1-.44,3.65,6.93,6.93,0,0,1-1.24,2.51,4.44,4.44,0,0,1-1.92,1.39,5.59,5.59,0,0,1-2.48.29,5.74,5.74,0,0,1-4.48-2.56A11.34,11.34,0,0,1,176.79,253.45Zm3,0.28c0,0.23,0,.45,0,0.66s0,0.42,0,.64l5.57-4.62a2.89,2.89,0,0,0-2.58-2.21,2.21,2.21,0,0,0-2.25,1.21A9,9,0,0,0,179.78,253.73Zm6.12,0.56q0-.37,0-0.7c0-.22,0-0.44,0-0.66l-5.59,4.62a3,3,0,0,0,2.58,2.33,2.24,2.24,0,0,0,2.26-1.2A9,9,0,0,0,185.9,254.29Z"/><path class="cls-4" d="M194.73,261.66a1.45,1.45,0,0,1,.52-1.2,1.76,1.76,0,0,1,1.3-.35,2.49,2.49,0,0,1,1.91,1,3.46,3.46,0,0,1,.64,2.1,4.14,4.14,0,0,1-.4,1.85,4.43,4.43,0,0,1-1,1.38,5.07,5.07,0,0,1-1.44.89,5.47,5.47,0,0,1-1.58.39L194,266.4a6.22,6.22,0,0,0,1.12-.3,4,4,0,0,0,1-.55,3.13,3.13,0,0,0,.77-0.82,2.26,2.26,0,0,0,.36-1.07,2.94,2.94,0,0,1-1.17-.06,2,2,0,0,1-.79-0.44,1.69,1.69,0,0,1-.45-0.68A2.48,2.48,0,0,1,194.73,261.66Z"/><path class="cls-4" d="M205.87,264l6.63-12.87-7.5-.58v-2.71c4.2,0.33,6.3.5,10.5,0.81,0,0.9,0,1.35,0,2.25l-6.7,13.34Z"/><path class="cls-4" d="M220.1,267.49a7.43,7.43,0,0,0,1.7-.49,6.52,6.52,0,0,0,2-1.26,7.16,7.16,0,0,0,1.62-2.27,8.17,8.17,0,0,0,.67-3.52,9.68,9.68,0,0,0-.63-3.72,8.48,8.48,0,0,0-1.55-2.51,7.41,7.41,0,0,0-1.95-1.54,10.34,10.34,0,0,0-1.83-.79l0.55-2.42a12.28,12.28,0,0,1,3.13,1.3,10.34,10.34,0,0,1,2.69,2.28,10.92,10.92,0,0,1,1.88,3.29,12.39,12.39,0,0,1,.7,4.31,11.58,11.58,0,0,1-.7,4.23,8.89,8.89,0,0,1-1.88,3,8.29,8.29,0,0,1-2.69,1.86,10.07,10.07,0,0,1-3.13.79Z"/><path class="cls-4" d="M440.82,252.55l9.11-.39c0,1,0,1.52,0,2.53l-6.25.27c0,6.53,0,9.8,0,16.33l6.25-.27v2.53l-9.11.39C440.82,265.38,440.82,261.1,440.82,252.55Z"/><path class="cls-4" d="M457.58,258.06a1.74,1.74,0,0,1,.51-1.3,2,2,0,0,1,1.34-.54,1.87,1.87,0,0,1,1.38.4,1.58,1.58,0,0,1,.51,1.25,1.78,1.78,0,0,1-.51,1.31,2,2,0,0,1-1.38.55,1.78,1.78,0,0,1-1.34-.42A1.61,1.61,0,0,1,457.58,258.06Zm0,8.33a1.74,1.74,0,0,1,.51-1.3,2,2,0,0,1,1.34-.54,1.88,1.88,0,0,1,1.38.4,1.58,1.58,0,0,1,.51,1.25,1.78,1.78,0,0,1-.51,1.31,2,2,0,0,1-1.38.55,1.78,1.78,0,0,1-1.34-.42A1.62,1.62,0,0,1,457.58,266.39Z"/><path class="cls-4" d="M467.26,264.88l2.86-.15v-6.44l-2.86.15v-2.53l5.18-.28,0.35,1.5h0.09a6.64,6.64,0,0,1,1.48-1.35,3.82,3.82,0,0,1,1.94-.62,2.47,2.47,0,0,1,2.18.88,5.34,5.34,0,0,1,.79,3.33l-2.7.16a2.23,2.23,0,0,0-.24-1.19,0.8,0.8,0,0,0-.77-0.34,2.4,2.4,0,0,0-1.49.55,5.06,5.06,0,0,0-1,1.11v4.9l5-.29v2.53c-4.34.26-6.51,0.38-10.85,0.61v-2.53Z"/><path class="cls-4" d="M492.49,264.69a4.51,4.51,0,0,1-.77.59,8.05,8.05,0,0,1-1.11.57,9,9,0,0,1-1.39.46,9.17,9.17,0,0,1-1.61.24,7.63,7.63,0,0,1-2.64-.25,4.74,4.74,0,0,1-3.2-2.92,6.88,6.88,0,0,1-.43-2.52,7,7,0,0,1,.48-2.69,5.79,5.79,0,0,1,1.32-2,6,6,0,0,1,2-1.26,7.91,7.91,0,0,1,2.44-.53,7.44,7.44,0,0,1,1.81.11,4.62,4.62,0,0,1,1.72.68,3.87,3.87,0,0,1,1.28,1.42,4.91,4.91,0,0,1,.5,2.36,11.17,11.17,0,0,1-.23,2.16l-8.29.53a2.54,2.54,0,0,0,.31,1.22,2.24,2.24,0,0,0,.76.78,3.07,3.07,0,0,0,1.08.4,5.32,5.32,0,0,0,1.3.07,7,7,0,0,0,2.27-.47,5.22,5.22,0,0,0,1.44-.88Zm-5-7.89a3.93,3.93,0,0,0-1.13.24,3.41,3.41,0,0,0-1,.54,2.87,2.87,0,0,0-.7.83,2.53,2.53,0,0,0-.32,1.07l5.67-.36A2.12,2.12,0,0,0,487.52,256.8Z"/><path class="cls-4" d="M506.59,263.82a7.2,7.2,0,0,1-2.21,1.23,10,10,0,0,1-2.65.55,7.3,7.3,0,0,1-2.66-.25,4.94,4.94,0,0,1-2-1.1,4.75,4.75,0,0,1-1.21-1.84,6.92,6.92,0,0,1-.41-2.46,6.72,6.72,0,0,1,.48-2.61,6,6,0,0,1,1.35-2,6.38,6.38,0,0,1,2-1.33,8.21,8.21,0,0,1,2.56-.58,9.29,9.29,0,0,1,2.42.13,10.65,10.65,0,0,1,1.73.45c0,1.62,0,2.43,0,4l-2.53.18v-2.12a6.38,6.38,0,0,0-1.43-.06,4.5,4.5,0,0,0-1.28.29,3.42,3.42,0,0,0-1.13.7,3.6,3.6,0,0,0-.81,1.13,3.66,3.66,0,0,0-.31,1.56,3.42,3.42,0,0,0,.25,1.34,2.86,2.86,0,0,0,1.85,1.68,4,4,0,0,0,1.51.16,5.61,5.61,0,0,0,2.15-.52,9.51,9.51,0,0,0,1.26-.73Z"/><path class="cls-4" d="M515.43,252.75l4.28-.34c0,3.2,0,4.8,0,8v1l1.75-.14c0,1,0,1.52,0,2.53l-3.64.29-0.53-1.66H517.2a4.56,4.56,0,0,1-1.59,1.57,5.4,5.4,0,0,1-3.95.65,2.62,2.62,0,0,1-1.23-.67,3.21,3.21,0,0,1-.78-1.37,7.55,7.55,0,0,1-.28-2.23v-4.62l-1.31.1v-2.53l4.3-.32c0,2.61,0,3.92,0,6.53a3.35,3.35,0,0,0,.45,2,1.51,1.51,0,0,0,1.42.51,2.68,2.68,0,0,0,1.53-.62,3,3,0,0,0,1-1.32c0-2,0-2.94,0-4.9l-1.29.1v-2.53Z"/><path class="cls-4" d="M522.54,261.15l2.85-.23v-6.44l-2.85.23c0-1,0-1.52,0-2.53l5.18-.43,0.34,1.49h0.09a6.92,6.92,0,0,1,1.47-1.39,3.9,3.9,0,0,1,1.93-.67,2.4,2.4,0,0,1,2.17.82,5.24,5.24,0,0,1,.79,3.31l-2.69.23a2.2,2.2,0,0,0-.24-1.19,0.78,0.78,0,0,0-.77-0.31,2.46,2.46,0,0,0-1.48.59,5.27,5.27,0,0,0-1,1.14v4.9l5-.43v2.53c-4.33.38-6.5,0.56-10.84,0.91v-2.53Z"/><path class="cls-4" d="M540.46,260.67a1.73,1.73,0,0,1,.52-1.29,2.36,2.36,0,0,1,3.21.07,3,3,0,0,1,.64,2,4.6,4.6,0,0,1-.4,1.92,5.66,5.66,0,0,1-1,1.57,6.61,6.61,0,0,1-3,1.82l-0.62-1.21a7.31,7.31,0,0,0,1.12-.49,5.11,5.11,0,0,0,1-.73,4.08,4.08,0,0,0,.77-1,2.64,2.64,0,0,0,.36-1.14,3,3,0,0,1-1.17.14,1.61,1.61,0,0,1-.79-0.3,1.33,1.33,0,0,1-.45-0.6A2.25,2.25,0,0,1,540.46,260.67Z"/><path class="cls-4" d="M551.36,245l9.08-.9v2.53l-6.23.62c0,6.53,0,9.8,0,16.33l6.23-.62v2.53l-9.08.9C551.36,257.85,551.36,253.58,551.36,245Z"/><path class="cls-4" d="M565.38,259.72L572,245.64l-7.49.79c0-1.09,0-1.63,0-2.71,4.19-.43,6.29-0.65,10.48-1.11v2.25l-6.69,14.56Z"/><path class="cls-4" d="M578.06,247.3a6,6,0,0,1,.4-2.21,5.65,5.65,0,0,1,1.13-1.81,6.11,6.11,0,0,1,1.75-1.3,6.7,6.7,0,0,1,2.28-.66,6.48,6.48,0,0,1,2.34.12,4.23,4.23,0,0,1,1.81,1,4.47,4.47,0,0,1,1.17,1.77,7.22,7.22,0,0,1,.41,2.56,14.45,14.45,0,0,1-.69,4.68,11,11,0,0,1-1.85,3.43,9.41,9.41,0,0,1-2.7,2.29,11.72,11.72,0,0,1-3.22,1.24l-0.64-2.27a8.79,8.79,0,0,0,2.28-.88,8.05,8.05,0,0,0,1.78-1.34,7,7,0,0,0,1.24-1.68,5.79,5.79,0,0,0,.62-1.92,4,4,0,0,1-1.24.91,5.48,5.48,0,0,1-1.81.49h0a5.35,5.35,0,0,1-1.77-.1,4.18,4.18,0,0,1-1.62-.74,4.11,4.11,0,0,1-1.18-1.42A4.54,4.54,0,0,1,578.06,247.3Zm2.89-.48a2.39,2.39,0,0,0,.24,1.11,2.15,2.15,0,0,0,.63.76,2.35,2.35,0,0,0,.91.4,3.24,3.24,0,0,0,1.07.05,4.39,4.39,0,0,0,1.63-.48,2.83,2.83,0,0,0,1-.85,6.7,6.7,0,0,0,.07-0.93,4.25,4.25,0,0,0-.18-1.24,3,3,0,0,0-.55-1,2.32,2.32,0,0,0-.92-0.67,2.55,2.55,0,0,0-1.26-.14A2.91,2.91,0,0,0,581,246.82Z"/><path class="cls-4" d="M602.6,255.51c-4.09.5-6.14,0.75-10.23,1.23v-2.23c0.18-.17.41-0.41,0.69-0.69l0.93-1q0.52-.54,1.09-1.19t1.12-1.33q0.78-1,1.37-1.75a13.39,13.39,0,0,0,1-1.46,6.33,6.33,0,0,0,.56-1.31,4.53,4.53,0,0,0,.18-1.28,1.92,1.92,0,0,0-.21-0.87,2.07,2.07,0,0,0-.57-0.7,2.37,2.37,0,0,0-.88-0.42,3.06,3.06,0,0,0-1.14-.06,4.63,4.63,0,0,0-1.5.43,6,6,0,0,0-1.41,1l-1.19-2a11.8,11.8,0,0,1,2.15-1.41,7.91,7.91,0,0,1,2.72-.8,6.29,6.29,0,0,1,1.89,0,4.35,4.35,0,0,1,1.61.62,3.31,3.31,0,0,1,1.11,1.21,3.72,3.72,0,0,1,.41,1.81,7.25,7.25,0,0,1-.13,1.38,7.41,7.41,0,0,1-.39,1.31,9.92,9.92,0,0,1-.69,1.38q-0.43.72-1,1.57-0.46.65-1,1.33T598,251.7q-0.53.62-1,1.16t-0.93.92l6.61-.8v2.53Z"/><path class="cls-4" d="M605.24,247.11a14.4,14.4,0,0,1,.44-3.72,8.72,8.72,0,0,1,1.23-2.76,6.14,6.14,0,0,1,1.9-1.79,6.33,6.33,0,0,1,2.46-.83,4.7,4.7,0,0,1,4.47,1.46q1.56,1.83,1.56,6.11a14.51,14.51,0,0,1-.44,3.75,8.91,8.91,0,0,1-1.23,2.78,6.08,6.08,0,0,1-1.91,1.81,6.39,6.39,0,0,1-2.47.83,4.55,4.55,0,0,1-4.47-1.59Q605.24,251.21,605.24,247.11Zm3-.37c0,0.23,0,.45,0,0.65s0,0.42,0,.63l5.55-5.83a2.21,2.21,0,0,0-2.57-1.65,2.88,2.88,0,0,0-2.24,1.7A10.09,10.09,0,0,0,608.22,246.74Zm6.1-.78q0-.37,0-0.7c0-.22,0-0.44,0-0.65l-5.57,5.84a2.25,2.25,0,0,0,2.57,1.77,2.91,2.91,0,0,0,2.25-1.69A10.11,10.11,0,0,0,614.32,246Z"/><path class="cls-4" d="M623.12,251.41a1.81,1.81,0,0,1,.52-1.31,2.16,2.16,0,0,1,1.3-.63,2,2,0,0,1,1.9.57,2.89,2.89,0,0,1,.64,2,4.73,4.73,0,0,1-.4,1.94,6,6,0,0,1-1,1.61,6.83,6.83,0,0,1-1.43,1.21,6.65,6.65,0,0,1-1.57.74l-0.62-1.18a7.63,7.63,0,0,0,1.11-.54,5.42,5.42,0,0,0,1-.77,4.34,4.34,0,0,0,.77-1,2.74,2.74,0,0,0,.36-1.15,3,3,0,0,1-1.17.19,1.54,1.54,0,0,1-.79-0.26,1.25,1.25,0,0,1-.45-0.58A2.21,2.21,0,0,1,623.12,251.41Z"/><path class="cls-4" d="M634.21,251.37l6.6-14.31-7.47,1.05v-2.71c4.18-.58,6.27-0.87,10.44-1.48v2.25L637.12,251Z"/><path class="cls-4" d="M657.22,253.32l-9,1.35c0-1,0-1.52,0-2.53l6.2-.92c0-6.53,0-9.8,0-16.33l-6.2.92c0-1,0-1.52,0-2.53l9-1.35C657.22,240.49,657.22,244.76,657.22,253.32Z"/><path class="cls-4" d="M670.94,251.2l-9,1.41v-2.53l6.2-1c0-6.53,0-9.8,0-16.33l-6.2,1v-2.53l9-1.41C670.94,238.36,670.94,242.64,670.94,251.2Z"/><path class="cls-4" d="M53.34,297v-2.53l2.7,0.43V288.5l-2.72-.43v-2.53L56,286v-0.64a3.88,3.88,0,0,1,.38-1.8,3,3,0,0,1,1-1.13,3.42,3.42,0,0,1,1.43-.53,5.72,5.72,0,0,1,1.68,0,11.53,11.53,0,0,1,2.6.66,7.87,7.87,0,0,1,1.68.91l-0.87,2.14a12.23,12.23,0,0,0-1.13-.63,5.44,5.44,0,0,0-1.57-.45,2,2,0,0,0-1.73.3,2.21,2.21,0,0,0-.49,1.61l4.8,0.74v2.53L59,289v6.44l4.83,0.74v2.53C59.63,298,57.53,297.71,53.34,297Z"/><path class="cls-4" d="M67.49,288.52a11.16,11.16,0,0,1,2.12-.39,11.82,11.82,0,0,1,2.85.13,6.89,6.89,0,0,1,2,.59,4.15,4.15,0,0,1,1.35,1,3.74,3.74,0,0,1,.74,1.37,5.91,5.91,0,0,1,.23,1.69q0,1.17-.08,2t-0.08,1.46a10.13,10.13,0,0,0,0,1.09c0,0.21.05,0.43,0.07,0.63l1.49,0.22v2.53l-3.84-.56-0.3-1.61-0.11,0a3.19,3.19,0,0,1-1.3,1,4,4,0,0,1-2.27.18,4.47,4.47,0,0,1-2.71-1.33,3.65,3.65,0,0,1-1-2.59,3.35,3.35,0,0,1,.35-1.61,2.37,2.37,0,0,1,1-1,4.23,4.23,0,0,1,1.61-.42,9.26,9.26,0,0,1,2.1.09c0.27,0,.56.1,0.86,0.17l1.11,0.26a2.28,2.28,0,0,0,0-.45v-0.44a1.7,1.7,0,0,0-.5-1.33,2.76,2.76,0,0,0-1.48-.6,6.63,6.63,0,0,0-2.09,0,11.74,11.74,0,0,0-1.57.36Zm3.89,9a2.52,2.52,0,0,0,1.63-.16,2.16,2.16,0,0,0,.79-0.75v-1.38l-0.68-.2a8.25,8.25,0,0,0-1-.2,4.64,4.64,0,0,0-.86,0,2.57,2.57,0,0,0-.77.14,1.23,1.23,0,0,0-.54.37,1,1,0,0,0-.2.64,1.51,1.51,0,0,0,.37,1.06A2,2,0,0,0,71.39,297.54Z"/><path class="cls-4" d="M91.67,301.63a5.66,5.66,0,0,1-2.2.76,9.35,9.35,0,0,1-2.63,0,8.16,8.16,0,0,1-2.64-.81,6.56,6.56,0,0,1-1.95-1.51A6.27,6.27,0,0,1,81,298a7.69,7.69,0,0,1-.41-2.54,6,6,0,0,1,.48-2.51,4.44,4.44,0,0,1,1.34-1.72,4.87,4.87,0,0,1,2-.9,7.51,7.51,0,0,1,2.54,0,10.12,10.12,0,0,1,2.4.64,13,13,0,0,1,1.72.81v4l-2.52-.35v-2.12a6.9,6.9,0,0,0-1.42-.36,4.14,4.14,0,0,0-1.27,0A2.58,2.58,0,0,0,84,294.37a3.26,3.26,0,0,0-.31,1.5,3.88,3.88,0,0,0,1,2.58,4,4,0,0,0,1.13.88,4.5,4.5,0,0,0,1.5.48,5.11,5.11,0,0,0,2.14-.07,7.4,7.4,0,0,0,1.25-.47Z"/><path class="cls-4" d="M95.56,294.3L93.29,294v-2.53l2.27,0.31v-2.62l3-.45v3.47l6,0.8v2.53l-6-.8V298a4.39,4.39,0,0,0,.66,2.65,2.66,2.66,0,0,0,1.86,1,3.84,3.84,0,0,0,1.12,0,3.73,3.73,0,0,0,.91-0.26,4.28,4.28,0,0,0,.73-0.41l0.61-.43,1.38,2.25a3.66,3.66,0,0,1-1,.71,7,7,0,0,1-1.26.5,7.22,7.22,0,0,1-1.41.26,6.58,6.58,0,0,1-1.44,0,5.68,5.68,0,0,1-3.86-2,7.45,7.45,0,0,1-1.29-4.74V294.3Z"/><path class="cls-4" d="M107.46,299.1a6.67,6.67,0,0,1,.44-2.52,4.42,4.42,0,0,1,1.24-1.75,4.5,4.5,0,0,1,1.91-.94,7,7,0,0,1,2.49-.08,7.8,7.8,0,0,1,2.58.76A6.33,6.33,0,0,1,118,296a6.07,6.07,0,0,1,1.18,2.07,7.81,7.81,0,0,1,.4,2.53,6.68,6.68,0,0,1-.44,2.52,4.35,4.35,0,0,1-3.15,2.7,7,7,0,0,1-2.49.09,7.75,7.75,0,0,1-2.58-.77,6.34,6.34,0,0,1-1.91-1.48,6.1,6.1,0,0,1-1.18-2.07A7.82,7.82,0,0,1,107.46,299.1Zm3.07,0.4a4.82,4.82,0,0,0,.21,1.43,4,4,0,0,0,.6,1.2,3.25,3.25,0,0,0,.94.87,3.16,3.16,0,0,0,1.26.43,2.61,2.61,0,0,0,2.17-.58,3.34,3.34,0,0,0,.84-2.59,4.42,4.42,0,0,0-.78-2.66,3.1,3.1,0,0,0-2.22-1.26,3.42,3.42,0,0,0-1.19,0,2,2,0,0,0-1,.51,2.62,2.62,0,0,0-.63,1A4.72,4.72,0,0,0,110.53,299.5Z"/><path class="cls-4" d="M121.31,304.07l2.84,0.35c0-2.58,0-3.86,0-6.44l-2.84-.35V295.1l5.16,0.63,0.34,1.56h0.09a5.13,5.13,0,0,1,1.47-1.09,3.38,3.38,0,0,1,1.93-.28,3,3,0,0,1,2.17,1.27,6,6,0,0,1,.79,3.47l-2.68-.32a2.49,2.49,0,0,0-.24-1.24,1,1,0,0,0-.77-0.47,2.09,2.09,0,0,0-1.48.28,3.9,3.9,0,0,0-1,.94c0,2,0,2.94,0,4.9l5,0.59c0,1,0,1.52,0,2.53-4.32-.51-6.49-0.77-10.81-1.3v-2.53Z"/><path class="cls-4" d="M135.54,305.77l4,0.46v-6.44l-4-.46V296.8l7,0.8c0,3.59,0,5.38,0,9l4.25,0.47c0,1,0,1.52,0,2.53-4.51-.49-6.77-0.75-11.27-1.27C135.54,307.29,135.54,306.78,135.54,305.77Zm3.49-11.7a1.44,1.44,0,0,1,.53-1.16,1.87,1.87,0,0,1,1.47-.34,2.5,2.5,0,0,1,1.54.68,1.77,1.77,0,0,1,.57,1.28,1.32,1.32,0,0,1-.57,1.14,2.17,2.17,0,0,1-1.54.3,2.37,2.37,0,0,1-1.47-.64A1.73,1.73,0,0,1,139,294.07Z"/><path class="cls-4" d="M150,299.2a11.54,11.54,0,0,1,2.12-.48,11.88,11.88,0,0,1,2.86,0,6.72,6.72,0,0,1,2,.5,3.92,3.92,0,0,1,1.36,1,3.54,3.54,0,0,1,.75,1.34,5.79,5.79,0,0,1,.23,1.68q0,1.17-.08,2t-0.08,1.46a10,10,0,0,0,0,1.09c0,0.21.05,0.43,0.07,0.63l1.49,0.15v2.53l-3.86-.4-0.3-1.6h-0.11a3.4,3.4,0,0,1-1.3,1.09,4.1,4.1,0,0,1-2.28.28,4.29,4.29,0,0,1-2.72-1.21,3.5,3.5,0,0,1-1-2.55,3.43,3.43,0,0,1,.35-1.63,2.53,2.53,0,0,1,1-1,4.41,4.41,0,0,1,1.62-.49,9.31,9.31,0,0,1,2.11,0q0.41,0,.87.14l1.12,0.21a2.3,2.3,0,0,0,0-.46V303a1.63,1.63,0,0,0-.5-1.31,2.66,2.66,0,0,0-1.48-.54,6.69,6.69,0,0,0-2.1.08,12.22,12.22,0,0,0-1.57.43Zm3.91,8.86a2.58,2.58,0,0,0,1.63-.23,2.3,2.3,0,0,0,.8-0.78v-1.38l-0.68-.18a8.17,8.17,0,0,0-1-.16,4.66,4.66,0,0,0-.86,0,2.66,2.66,0,0,0-.77.17,1.3,1.3,0,0,0-.55.39,1,1,0,0,0-.2.65,1.45,1.45,0,0,0,.37,1A1.94,1.94,0,0,0,153.94,308.06Z"/><path class="cls-4" d="M163.74,295.25l4.9,0.49c0,4.25,0,6.38,0,10.63a5.21,5.21,0,0,0,.44,2.5,1.72,1.72,0,0,0,1.4.83,3.76,3.76,0,0,0,1.17,0,4,4,0,0,0,.92-0.34l1.13,2.18q-0.39.22-.78,0.4a4.61,4.61,0,0,1-.83.29,5.34,5.34,0,0,1-1,.14,7.52,7.52,0,0,1-1.16,0,4.78,4.78,0,0,1-3.24-1.42,4.68,4.68,0,0,1-1.08-3.24c0-3.86,0-5.8,0-9.66l-1.91-.19v-2.53Z"/><path class="cls-4" d="M177.33,315.37c4.08,0.38,6.13.57,10.21,0.93v2.46c-4.09-.36-6.13-0.55-10.21-0.93v-2.46Z"/><path class="cls-4" d="M189.34,297.67l4.65,0.4c0,2.36,0,3.53,0,5.89h0.09a3.45,3.45,0,0,1,1.47-1,4.82,4.82,0,0,1,2.16-.26,5.64,5.64,0,0,1,1.61.36,3.4,3.4,0,0,1,1.27.86,4,4,0,0,1,.83,1.51,7.49,7.49,0,0,1,.3,2.27c0,2.86,0,4.29,0,7.15l-3-.25c0-2.61,0-3.92,0-6.53a3,3,0,0,0-.6-2.07,2.27,2.27,0,0,0-1.56-.75,2.44,2.44,0,0,0-1.57.39,2.49,2.49,0,0,0-1,1.24c0,2.93,0,4.4,0,7.34l-3-.26c0-5.43,0-8.14,0-13.57l-1.66-.14C189.34,299.19,189.34,298.68,189.34,297.67Z"/><path class="cls-4" d="M215.43,314.67a3.66,3.66,0,0,1-.77.48,6.91,6.91,0,0,1-1.1.41,8.14,8.14,0,0,1-1.39.26,8.81,8.81,0,0,1-1.61,0,8.16,8.16,0,0,1-2.64-.62,5.77,5.77,0,0,1-3.2-3.37,7.37,7.37,0,0,1-.43-2.58,6.48,6.48,0,0,1,.48-2.62,4.75,4.75,0,0,1,1.32-1.79,5,5,0,0,1,2-1,7.43,7.43,0,0,1,2.44-.19,7.85,7.85,0,0,1,1.81.37A5.41,5.41,0,0,1,214,305a4.73,4.73,0,0,1,1.28,1.6,5.35,5.35,0,0,1,.5,2.43,10.69,10.69,0,0,1-.23,2.12l-8.29-.63a2.79,2.79,0,0,0,.31,1.27,2.75,2.75,0,0,0,.76.89,3.59,3.59,0,0,0,1.08.56,5.6,5.6,0,0,0,1.3.25,6.56,6.56,0,0,0,2.27-.15,4.37,4.37,0,0,0,1.44-.67Zm-5-8.59a3.7,3.7,0,0,0-1.13.08,2.89,2.89,0,0,0-1,.41,2.34,2.34,0,0,0-.7.73,2.28,2.28,0,0,0-.32,1l5.66,0.44A2.48,2.48,0,0,0,210.46,306.08Z"/><path class="cls-4" d="M219,300l4.91,0.35c0,4.25,0,6.38,0,10.63a5.12,5.12,0,0,0,.44,2.49,1.67,1.67,0,0,0,1.41.79,3.79,3.79,0,0,0,1.17-.07,4.15,4.15,0,0,0,.92-0.36l1.13,2.15q-0.39.23-.78,0.42a4.76,4.76,0,0,1-.83.31,5.4,5.4,0,0,1-1,.16,7.52,7.52,0,0,1-1.16,0,4.65,4.65,0,0,1-3.25-1.33,4.56,4.56,0,0,1-1.08-3.21c0-3.86,0-5.8,0-9.66l-1.91-.14V300Z"/><path class="cls-4" d="M230.77,305.47l3.92,0.26,0.35,1.4h0.09a4.14,4.14,0,0,1,3.87-1.46,5.69,5.69,0,0,1,1.95.45,4.14,4.14,0,0,1,1.52,1.14,5.3,5.3,0,0,1,1,1.85,8.81,8.81,0,0,1,.35,2.62,8.21,8.21,0,0,1-.39,2.63,5.22,5.22,0,0,1-1.13,1.94,4.45,4.45,0,0,1-1.8,1.15,6.12,6.12,0,0,1-2.42.29,9.69,9.69,0,0,1-1.4-.19,4.11,4.11,0,0,1-1.15-.41c0,1.89,0,2.83,0,4.71l-3-.19c0-5.43,0-8.14,0-13.57l-1.73-.11v-2.53Zm7.33,2.68a2.92,2.92,0,0,0-1.6.34,2.08,2.08,0,0,0-1,1.25c0,1.91,0,2.87,0,4.78a2.65,2.65,0,0,0,.93.46,5.3,5.3,0,0,0,1.23.23,3.13,3.13,0,0,0,1.2-.14,2.25,2.25,0,0,0,1-.64,3.16,3.16,0,0,0,.64-1.18,5.83,5.83,0,0,0,.23-1.76,3.59,3.59,0,0,0-.74-2.39A2.56,2.56,0,0,0,238.1,308.15Z"/><path class="cls-4" d="M256.9,317.32a3.81,3.81,0,0,1-.77.5,7.06,7.06,0,0,1-1.11.44,8.21,8.21,0,0,1-1.39.29,8.82,8.82,0,0,1-1.61,0,8.07,8.07,0,0,1-2.64-.56,5.6,5.6,0,0,1-3.2-3.3,7.29,7.29,0,0,1-.43-2.57,6.54,6.54,0,0,1,.48-2.63,4.9,4.9,0,0,1,1.32-1.82,5.16,5.16,0,0,1,2-1,7.49,7.49,0,0,1,2.44-.24,7.76,7.76,0,0,1,1.81.33,5.29,5.29,0,0,1,1.72.89,4.6,4.6,0,0,1,1.28,1.58,5.28,5.28,0,0,1,.5,2.42,10.75,10.75,0,0,1-.23,2.13l-8.3-.46a2.77,2.77,0,0,0,.31,1.26,2.67,2.67,0,0,0,.76.87,3.49,3.49,0,0,0,1.08.53,5.53,5.53,0,0,0,1.3.22,6.61,6.61,0,0,0,2.27-.2,4.49,4.49,0,0,0,1.44-.7Zm-5-8.48a3.74,3.74,0,0,0-1.13.1,3,3,0,0,0-1,.43,2.41,2.41,0,0,0-.7.75,2.29,2.29,0,0,0-.32,1l5.67,0.32A2.42,2.42,0,0,0,251.92,308.84Z"/><path class="cls-4" d="M259.32,316.13l2.86,0.15c0-2.58,0-3.86,0-6.44l-2.86-.15c0-1,0-1.52,0-2.53l5.19,0.26,0.35,1.53h0.09a5.69,5.69,0,0,1,1.48-1.19,3.54,3.54,0,0,1,1.94-.41,2.76,2.76,0,0,1,2.18,1.11,5.74,5.74,0,0,1,.79,3.42l-2.7-.13a2.38,2.38,0,0,0-.24-1.22,0.9,0.9,0,0,0-.77-0.42,2.2,2.2,0,0,0-1.49.39,4.33,4.33,0,0,0-1,1c0,2,0,2.94,0,4.9l5,0.24c0,1,0,1.52,0,2.53-4.34-.2-6.51-0.31-10.86-0.54C259.32,317.65,259.32,317.15,259.32,316.13Z"/><path class="cls-4" d="M282.74,324.62a11.07,11.07,0,0,1-3.14-1.14,9.71,9.71,0,0,1-2.7-2.16,10.3,10.3,0,0,1-1.88-3.21,12.2,12.2,0,0,1-.7-4.31,11.71,11.71,0,0,1,.7-4.24,9.44,9.44,0,0,1,1.88-3.08,8.8,8.8,0,0,1,2.7-2,11.06,11.06,0,0,1,3.14-1l0.55,2.48a9.29,9.29,0,0,0-1.83.58,6.31,6.31,0,0,0-1.95,1.32,7.28,7.28,0,0,0-1.56,2.34,9.12,9.12,0,0,0-.63,3.65,8.69,8.69,0,0,0,.67,3.59,8.35,8.35,0,0,0,1.63,2.45,7.61,7.61,0,0,0,2,1.48,8.22,8.22,0,0,0,1.71.68Z"/><path class="cls-4" d="M287.33,308.86a5.55,5.55,0,0,1,.4-2.15,4.62,4.62,0,0,1,1.13-1.65,5,5,0,0,1,1.75-1,6.17,6.17,0,0,1,2.29-.32,6.91,6.91,0,0,1,2.35.47,5.14,5.14,0,0,1,1.82,1.22,5.43,5.43,0,0,1,1.18,1.95,7.71,7.71,0,0,1,.42,2.62,13.48,13.48,0,0,1-.69,4.58,9.11,9.11,0,0,1-1.86,3.16,7.65,7.65,0,0,1-2.71,1.89,10.43,10.43,0,0,1-3.23.76L289.54,318a7.81,7.81,0,0,0,2.29-.54,6.6,6.6,0,0,0,1.79-1.08,5.66,5.66,0,0,0,1.24-1.5,5.06,5.06,0,0,0,.62-1.83,3.3,3.3,0,0,1-1.25.73,5.08,5.08,0,0,1-1.82.22h0a5.7,5.7,0,0,1-1.78-.36,5,5,0,0,1-1.63-1,5.09,5.09,0,0,1-1.19-1.6A5,5,0,0,1,287.33,308.86Zm2.9-.05a2.61,2.61,0,0,0,.24,1.15,2.66,2.66,0,0,0,.63.85,2.83,2.83,0,0,0,.91.54,3.45,3.45,0,0,0,1.07.21,4,4,0,0,0,1.64-.24,2.3,2.3,0,0,0,1-.7,6.45,6.45,0,0,0,.07-0.92,4.5,4.5,0,0,0-.18-1.27,3.55,3.55,0,0,0-.55-1.12,2.88,2.88,0,0,0-.92-0.8,2.78,2.78,0,0,0-1.27-.33A2.45,2.45,0,0,0,290.23,308.81Z"/><path class="cls-4" d="M301.16,309.34a5.57,5.57,0,0,1,.4-2.15,4.67,4.67,0,0,1,1.13-1.66,5.06,5.06,0,0,1,1.75-1.05,6.19,6.19,0,0,1,2.29-.34,6.88,6.88,0,0,1,2.35.46,5.09,5.09,0,0,1,1.82,1.21,5.39,5.39,0,0,1,1.18,1.94,7.68,7.68,0,0,1,.42,2.62,13.52,13.52,0,0,1-.69,4.58,9.2,9.2,0,0,1-1.86,3.17,7.73,7.73,0,0,1-2.71,1.91,10.48,10.48,0,0,1-3.23.78l-0.65-2.37a7.85,7.85,0,0,0,2.29-.55,6.66,6.66,0,0,0,1.79-1.09,5.72,5.72,0,0,0,1.24-1.51,5.1,5.1,0,0,0,.62-1.83,3.33,3.33,0,0,1-1.25.74,5.09,5.09,0,0,1-1.82.24h0a5.68,5.68,0,0,1-1.78-.35,5,5,0,0,1-2.81-2.56A4.93,4.93,0,0,1,301.16,309.34Zm2.91-.07a2.6,2.6,0,0,0,.24,1.14,2.63,2.63,0,0,0,.63.85,2.8,2.8,0,0,0,.91.53,3.43,3.43,0,0,0,1.07.2,4.05,4.05,0,0,0,1.64-.25,2.32,2.32,0,0,0,1-.71,6.46,6.46,0,0,0,.07-0.92,4.49,4.49,0,0,0-.18-1.27,3.52,3.52,0,0,0-.55-1.12,2.85,2.85,0,0,0-.92-0.8,2.77,2.77,0,0,0-1.27-.32A2.47,2.47,0,0,0,304.07,309.26Z"/><path class="cls-4" d="M314.63,312.69a13.59,13.59,0,0,1,.44-3.66,7.35,7.35,0,0,1,1.24-2.58,5,5,0,0,1,1.91-1.51,5.74,5.74,0,0,1,2.48-.46,5.47,5.47,0,0,1,4.49,2.12q1.57,2.06,1.57,6.34a13.69,13.69,0,0,1-.44,3.68,7.52,7.52,0,0,1-1.24,2.6,4.92,4.92,0,0,1-1.92,1.53,5.8,5.8,0,0,1-2.49.47,5.32,5.32,0,0,1-4.49-2.25A10.77,10.77,0,0,1,314.63,312.69Zm3,0.07c0,0.23,0,.45,0,0.66s0,0.42,0,.63l5.58-5a2.65,2.65,0,0,0-2.58-2,2.4,2.4,0,0,0-2.25,1.37A9.27,9.27,0,0,0,317.63,312.76Zm6.14,0.13c0-.25,0-0.48,0-0.7s0-.44,0-0.66l-5.61,5a2.7,2.7,0,0,0,2.59,2.15,2.43,2.43,0,0,0,2.27-1.36A9.29,9.29,0,0,0,323.77,312.89Z"/><path class="cls-4" d="M332.63,319.65a1.55,1.55,0,0,1,.52-1.23,1.87,1.87,0,0,1,1.3-.44,2.31,2.31,0,0,1,1.91.85,3.26,3.26,0,0,1,.65,2.06,4.31,4.31,0,0,1-.4,1.88,4.88,4.88,0,0,1-1.05,1.46,5.55,5.55,0,0,1-1.44,1,5.78,5.78,0,0,1-1.58.51l-0.62-1.27a6.61,6.61,0,0,0,1.12-.37,4.44,4.44,0,0,0,1-.62,3.5,3.5,0,0,0,.77-0.87,2.41,2.41,0,0,0,.36-1.1,2.94,2.94,0,0,1-1.18,0,1.81,1.81,0,0,1-.8-0.38,1.53,1.53,0,0,1-.45-0.65A2.37,2.37,0,0,1,332.63,319.65Z"/><path class="cls-4" d="M342.82,317.31a3.92,3.92,0,0,1,.27-1.47,4.51,4.51,0,0,1,.69-1.19,5.74,5.74,0,0,1,1-.95,9.25,9.25,0,0,1,1.13-.74,7.15,7.15,0,0,1-1.92-1.59,3.47,3.47,0,0,1-.76-2.3,3.67,3.67,0,0,1,.39-1.68,4.07,4.07,0,0,1,1.1-1.35,5.17,5.17,0,0,1,1.67-.88,6.62,6.62,0,0,1,2.1-.31,6.74,6.74,0,0,1,2,.29,5.34,5.34,0,0,1,1.6.79,3.72,3.72,0,0,1,1.08,1.24,3.32,3.32,0,0,1,.39,1.6,4,4,0,0,1-.7,2.37,6.12,6.12,0,0,1-1.93,1.74,7.18,7.18,0,0,1,2.2,1.69,3.72,3.72,0,0,1,.82,2.49,3.89,3.89,0,0,1-.45,1.87,4.49,4.49,0,0,1-1.21,1.43,5.67,5.67,0,0,1-1.79.92,7,7,0,0,1-2.18.32,7.14,7.14,0,0,1-2.15-.33,5.77,5.77,0,0,1-1.73-.88,4,4,0,0,1-1.15-1.34A3.69,3.69,0,0,1,342.82,317.31ZM351,317a1.65,1.65,0,0,0-.3-1,3.3,3.3,0,0,0-.75-0.74,7,7,0,0,0-1-.59q-0.54-.27-1-0.55a4.45,4.45,0,0,0-1.78,1.29,2.47,2.47,0,0,0-.62,1.5,1.91,1.91,0,0,0,.74,1.6,3.33,3.33,0,0,0,2.05.58,3.25,3.25,0,0,0,1.94-.53A1.8,1.8,0,0,0,351,317Zm-5-7.74a1.71,1.71,0,0,0,.24.93,2.59,2.59,0,0,0,.62.67,5,5,0,0,0,.86.52l1,0.47a4.28,4.28,0,0,0,.73-0.46,3.88,3.88,0,0,0,.63-0.61,3.34,3.34,0,0,0,.45-0.69,1.7,1.7,0,0,0,0-1.56,2.09,2.09,0,0,0-.54-0.61,2.41,2.41,0,0,0-.75-0.38,2.93,2.93,0,0,0-.85-0.13,2.63,2.63,0,0,0-1.67.56,1.79,1.79,0,0,0-.48.59A1.52,1.52,0,0,0,346.08,309.24Z"/><path class="cls-4" d="M358,323.7a7.91,7.91,0,0,0,1.71-.61,7.2,7.2,0,0,0,2-1.4,7.89,7.89,0,0,0,1.63-2.38,8.49,8.49,0,0,0,.67-3.57,9.32,9.32,0,0,0-.63-3.68,7.71,7.71,0,0,0-1.56-2.4,6.71,6.71,0,0,0-1.95-1.4,9.67,9.67,0,0,0-1.83-.66l0.55-2.46a11.5,11.5,0,0,1,3.14,1.08,9.35,9.35,0,0,1,2.7,2.09,10,10,0,0,1,1.88,3.16,13.33,13.33,0,0,1,0,8.55,9.76,9.76,0,0,1-1.88,3.13,9.17,9.17,0,0,1-2.7,2,10.69,10.69,0,0,1-3.14,1Z"/><path class="cls-4" d="M494.53,314.35l2.86-.19v-6.44l-2.86.19v-2.53l5.18-.36,0.35,1.49h0.09a6.77,6.77,0,0,1,1.47-1.37,3.86,3.86,0,0,1,1.93-.64,2.43,2.43,0,0,1,2.18.85,5.29,5.29,0,0,1,.79,3.32l-2.69.2a2.21,2.21,0,0,0-.24-1.19,0.79,0.79,0,0,0-.77-0.32,2.43,2.43,0,0,0-1.49.57,5.17,5.17,0,0,0-1,1.13v4.9l5-.36c0,1,0,1.52,0,2.53-4.34.32-6.51,0.47-10.85,0.76v-2.53Z"/><path class="cls-4" d="M519.74,313.8a4.59,4.59,0,0,1-.77.6,8.18,8.18,0,0,1-1.11.58,9.3,9.3,0,0,1-3,.74,7.6,7.6,0,0,1-2.64-.21,4.64,4.64,0,0,1-3.2-2.88,6.84,6.84,0,0,1-.43-2.51,7,7,0,0,1,.48-2.69,5.9,5.9,0,0,1,1.32-2,6.13,6.13,0,0,1,2-1.29,8,8,0,0,1,2.44-.57,7.41,7.41,0,0,1,1.81.09,4.55,4.55,0,0,1,1.72.66,3.79,3.79,0,0,1,1.28,1.41,4.87,4.87,0,0,1,.5,2.35,11.22,11.22,0,0,1-.23,2.16l-8.29.65a2.52,2.52,0,0,0,.31,1.22,2.2,2.2,0,0,0,.76.77,3.05,3.05,0,0,0,1.08.39,5.32,5.32,0,0,0,1.3,0,7,7,0,0,0,2.27-.5,5.32,5.32,0,0,0,1.44-.9Zm-5-7.82a4,4,0,0,0-1.13.25,3.47,3.47,0,0,0-1,.55,2.93,2.93,0,0,0-.7.84,2.56,2.56,0,0,0-.32,1.08l5.66-.44A2.09,2.09,0,0,0,514.77,306Z"/><path class="cls-4" d="M533.82,312.73a7.33,7.33,0,0,1-2.21,1.26,10.12,10.12,0,0,1-2.65.58,7.26,7.26,0,0,1-2.66-.21,4.85,4.85,0,0,1-2-1.07,4.66,4.66,0,0,1-1.21-1.82,6.88,6.88,0,0,1-.41-2.45,6.77,6.77,0,0,1,.48-2.62,6.09,6.09,0,0,1,1.35-2,6.5,6.5,0,0,1,2-1.35,8.27,8.27,0,0,1,2.55-.62,9.26,9.26,0,0,1,2.42.09,10.5,10.5,0,0,1,1.73.43c0,1.62,0,2.43,0,4l-2.53.22v-2.12a6.37,6.37,0,0,0-1.43,0,4.53,4.53,0,0,0-1.28.3,3.48,3.48,0,0,0-1.13.72,3.58,3.58,0,0,0-1.12,2.7,3.4,3.4,0,0,0,.25,1.34,2.81,2.81,0,0,0,1.85,1.65,4,4,0,0,0,1.51.14,5.66,5.66,0,0,0,2.15-.55,9.7,9.7,0,0,0,1.25-.75Z"/><path class="cls-4" d="M542.66,301.54l4.28-.4c0,3.2,0,4.8,0,8v1l1.75-.17v2.53l-3.63.34-0.53-1.65h-0.09a4.65,4.65,0,0,1-1.59,1.6,5.2,5.2,0,0,1-2.35.79,5.11,5.11,0,0,1-1.6-.09,2.57,2.57,0,0,1-1.23-.65,3.15,3.15,0,0,1-.78-1.36,7.52,7.52,0,0,1-.28-2.23c0-1.85,0-2.77,0-4.62l-1.31.12v-2.53l4.3-.38c0,2.61,0,3.92,0,6.53a3.32,3.32,0,0,0,.45,2,1.49,1.49,0,0,0,1.41.49,2.72,2.72,0,0,0,1.53-.65,3.1,3.1,0,0,0,1-1.33V304l-1.29.12v-2.53Z"/><path class="cls-4" d="M549.76,309.85l2.85-.27v-6.44l-2.85.27v-2.53l5.17-.5,0.34,1.48h0.09a7.06,7.06,0,0,1,1.47-1.41,4,4,0,0,1,1.93-.7,2.37,2.37,0,0,1,2.17.79,5.19,5.19,0,0,1,.79,3.3l-2.69.27a2.18,2.18,0,0,0-.24-1.18,0.76,0.76,0,0,0-.77-0.3,2.5,2.5,0,0,0-1.48.61,5.39,5.39,0,0,0-1,1.15c0,2,0,2.94,0,4.9l5-.5c0,1,0,1.52,0,2.53-4.33.44-6.5,0.65-10.83,1.07v-2.53Z"/><path class="cls-4" d="M573.11,314.88a9.8,9.8,0,0,1-3.12-.68,7.87,7.87,0,0,1-2.69-1.76,8.49,8.49,0,0,1-1.87-2.93,11.39,11.39,0,0,1-.7-4.21,12.61,12.61,0,0,1,.7-4.34,11.43,11.43,0,0,1,1.87-3.36,10.87,10.87,0,0,1,2.69-2.38,12.71,12.71,0,0,1,3.12-1.41l0.55,2.4a10.72,10.72,0,0,0-1.83.85,7.77,7.77,0,0,0-1.94,1.61,8.88,8.88,0,0,0-1.55,2.57,9.86,9.86,0,0,0-.63,3.75,8,8,0,0,0,.67,3.49,6.8,6.8,0,0,0,1.62,2.21,6.18,6.18,0,0,0,2,1.19,7.19,7.19,0,0,0,1.7.43Z"/><path class="cls-4" d="M578.78,309.39l6.61-14.13-7.49.84c0-1.09,0-1.63,0-2.71,4.19-.46,6.28-0.7,10.47-1.18,0,0.9,0,1.35,0,2.25l-6.68,14.61Z"/><path class="cls-4" d="M591.46,296.88a6.05,6.05,0,0,1,.4-2.21,5.71,5.71,0,0,1,1.12-1.82,6.16,6.16,0,0,1,1.74-1.31,6.72,6.72,0,0,1,2.28-.68,6.46,6.46,0,0,1,2.34.11,4.18,4.18,0,0,1,1.81.94,4.42,4.42,0,0,1,1.17,1.76,7.2,7.2,0,0,1,.41,2.56,14.5,14.5,0,0,1-.69,4.68,11.11,11.11,0,0,1-1.85,3.45,9.51,9.51,0,0,1-2.7,2.3,11.8,11.8,0,0,1-3.21,1.26l-0.64-2.27a8.83,8.83,0,0,0,2.28-.89,8.12,8.12,0,0,0,1.78-1.35,7.06,7.06,0,0,0,1.24-1.69,5.83,5.83,0,0,0,.62-1.93,4.06,4.06,0,0,1-1.24.92,5.5,5.5,0,0,1-1.81.51h0a5.34,5.34,0,0,1-1.77-.09,4.15,4.15,0,0,1-1.62-.73,4.07,4.07,0,0,1-1.18-1.41A4.53,4.53,0,0,1,591.46,296.88Zm2.89-.5a2.38,2.38,0,0,0,.24,1.11,2.12,2.12,0,0,0,.63.75,2.33,2.33,0,0,0,.91.4,3.23,3.23,0,0,0,1.07,0,4.41,4.41,0,0,0,1.63-.5,2.85,2.85,0,0,0,1-.86,6.71,6.71,0,0,0,.07-0.93,4.24,4.24,0,0,0-.18-1.24,3,3,0,0,0-.55-1,2.3,2.3,0,0,0-.92-0.66,2.54,2.54,0,0,0-1.26-.14A2.94,2.94,0,0,0,594.35,296.38Z"/><path class="cls-4" d="M616,304.91c-4.09.53-6.14,0.79-10.23,1.3,0-.89,0-1.34,0-2.23,0.18-.18.41-0.41,0.69-0.7l0.93-1q0.52-.55,1.09-1.19t1.12-1.34q0.78-1,1.36-1.76a13.52,13.52,0,0,0,1-1.47,6.39,6.39,0,0,0,.56-1.31,4.54,4.54,0,0,0,.18-1.28,1.91,1.91,0,0,0-.21-0.87,2,2,0,0,0-.57-0.7A2.35,2.35,0,0,0,611,292a3,3,0,0,0-1.14-.05,4.66,4.66,0,0,0-1.5.44,6.09,6.09,0,0,0-1.41,1l-1.19-2A11.91,11.91,0,0,1,607.9,290a8,8,0,0,1,2.72-.82,6.29,6.29,0,0,1,1.89,0,4.32,4.32,0,0,1,1.6.61,3.28,3.28,0,0,1,1.11,1.2,3.71,3.71,0,0,1,.41,1.81,7.26,7.26,0,0,1-.13,1.38,7.45,7.45,0,0,1-.39,1.32,10,10,0,0,1-.69,1.39q-0.42.72-1,1.58-0.46.66-1,1.34t-1.07,1.3q-0.53.62-1,1.17t-0.93.92l6.6-.85C616,303.4,616,303.9,616,304.91Z"/><path class="cls-4" d="M618.62,296.5a14.45,14.45,0,0,1,.44-3.73,8.78,8.78,0,0,1,1.23-2.77,6.2,6.2,0,0,1,1.9-1.8,6.36,6.36,0,0,1,2.46-.85,4.67,4.67,0,0,1,4.46,1.43q1.56,1.82,1.56,6.1a14.55,14.55,0,0,1-.44,3.75,9,9,0,0,1-1.23,2.79,6.14,6.14,0,0,1-1.91,1.82,6.43,6.43,0,0,1-2.47.85,4.52,4.52,0,0,1-4.46-1.56Q618.62,300.59,618.62,296.5Zm3-.39c0,0.23,0,.45,0,0.65s0,0.42,0,.63l5.55-5.87a2.19,2.19,0,0,0-2.57-1.63,2.9,2.9,0,0,0-2.24,1.71A10.13,10.13,0,0,0,621.6,296.1Zm6.1-.82q0-.37,0-0.7c0-.22,0-0.44,0-0.65l-5.57,5.88a2.23,2.23,0,0,0,2.57,1.75,2.93,2.93,0,0,0,2.25-1.71A10.16,10.16,0,0,0,627.69,295.29Z"/><path class="cls-4" d="M636.49,300.67a1.82,1.82,0,0,1,.52-1.31,2.17,2.17,0,0,1,1.29-.64,2,2,0,0,1,1.9.56,2.88,2.88,0,0,1,.64,2,4.76,4.76,0,0,1-.4,1.94,6.06,6.06,0,0,1-1,1.62A6.9,6.9,0,0,1,638,306a6.71,6.71,0,0,1-1.57.75l-0.62-1.18a7.69,7.69,0,0,0,1.11-.55,5.47,5.47,0,0,0,1-.78,4.38,4.38,0,0,0,.77-1,2.76,2.76,0,0,0,.35-1.15,3,3,0,0,1-1.17.2,1.53,1.53,0,0,1-.79-0.26,1.24,1.24,0,0,1-.45-0.58A2.2,2.2,0,0,1,636.49,300.67Z"/><path class="cls-4" d="M647.57,300.55l6.59-14.36-7.46,1.1c0-1.09,0-1.63,0-2.71,4.18-.61,6.26-0.92,10.43-1.55,0,0.9,0,1.35,0,2.25l-6.66,14.84Z"/><path class="cls-4" d="M661.71,300.8a9.23,9.23,0,0,0,1.69-.87,8.93,8.93,0,0,0,2-1.71,9.73,9.73,0,0,0,1.61-2.63,9.3,9.3,0,0,0,.66-3.67,8.67,8.67,0,0,0-.63-3.58,6.23,6.23,0,0,0-1.54-2.16,5.4,5.4,0,0,0-1.93-1.1,8.46,8.46,0,0,0-1.82-.38l0.55-2.55a10.08,10.08,0,0,1,3.11.6,7.47,7.47,0,0,1,2.67,1.68,8.12,8.12,0,0,1,1.86,2.87,11.17,11.17,0,0,1,.7,4.16,13,13,0,0,1-.7,4.39,11.93,11.93,0,0,1-1.86,3.42,11.41,11.41,0,0,1-2.67,2.47,12.34,12.34,0,0,1-3.11,1.49Z"/><path class="cls-4" d="M53,449.93V447.4l2.7,0.43v-6.44L53,441v-2.53l2.72,0.43v-0.64a3.87,3.87,0,0,1,.38-1.8,3,3,0,0,1,1-1.13,3.43,3.43,0,0,1,1.43-.53,5.72,5.72,0,0,1,1.68,0,11.54,11.54,0,0,1,2.6.66,7.9,7.9,0,0,1,1.68.91l-0.87,2.14a12.3,12.3,0,0,0-1.13-.63,5.46,5.46,0,0,0-1.57-.45,2,2,0,0,0-1.73.3,2.21,2.21,0,0,0-.49,1.61l4.8,0.74v2.53l-4.8-.74v6.44L63.53,449v2.53C59.33,450.93,57.23,450.6,53,449.93Z"/><path class="cls-4" d="M67.19,441.41a11.15,11.15,0,0,1,2.12-.39,11.81,11.81,0,0,1,2.85.12,6.9,6.9,0,0,1,2,.59,4.14,4.14,0,0,1,1.35,1,3.74,3.74,0,0,1,.74,1.37,5.91,5.91,0,0,1,.23,1.69q0,1.17-.08,2c-0.05.54-.08,1-0.08,1.46a10.1,10.1,0,0,0,0,1.09c0,0.21.05,0.43,0.07,0.63l1.49,0.22v2.53l-3.84-.56-0.3-1.61-0.11,0a3.19,3.19,0,0,1-1.3,1,4,4,0,0,1-2.27.18,4.47,4.47,0,0,1-2.71-1.33,3.65,3.65,0,0,1-1-2.59,3.35,3.35,0,0,1,.35-1.61,2.38,2.38,0,0,1,1-1,4.24,4.24,0,0,1,1.61-.42,9.26,9.26,0,0,1,2.1.1q0.41,0.06.86,0.17l1.11,0.26a2.28,2.28,0,0,0,0-.45v-0.44a1.7,1.7,0,0,0-.5-1.33,2.76,2.76,0,0,0-1.48-.6,6.64,6.64,0,0,0-2.09,0,11.75,11.75,0,0,0-1.57.36Zm3.89,9a2.52,2.52,0,0,0,1.63-.16,2.16,2.16,0,0,0,.79-0.75v-1.38l-0.68-.2a8.27,8.27,0,0,0-1-.2,4.65,4.65,0,0,0-.86,0,2.57,2.57,0,0,0-.77.14,1.22,1.22,0,0,0-.54.37,1,1,0,0,0-.2.64,1.51,1.51,0,0,0,.37,1.06A2,2,0,0,0,71.09,450.43Z"/><path class="cls-4" d="M91.37,454.52a5.66,5.66,0,0,1-2.2.76,9.32,9.32,0,0,1-2.63,0,8.17,8.17,0,0,1-2.65-.81,6.56,6.56,0,0,1-1.95-1.51,6.29,6.29,0,0,1-1.2-2.09,7.69,7.69,0,0,1-.41-2.54,6,6,0,0,1,.48-2.51,4.43,4.43,0,0,1,1.34-1.72,4.87,4.87,0,0,1,2-.9,7.52,7.52,0,0,1,2.54,0,10.12,10.12,0,0,1,2.4.64,12.91,12.91,0,0,1,1.72.81v4l-2.52-.35v-2.12a6.93,6.93,0,0,0-1.42-.36,4.15,4.15,0,0,0-1.27,0,2.58,2.58,0,0,0-1.92,1.42,3.26,3.26,0,0,0-.31,1.5,3.85,3.85,0,0,0,.25,1.39,3.85,3.85,0,0,0,1.84,2.07,4.48,4.48,0,0,0,1.5.48,5.09,5.09,0,0,0,2.14-.07,7.33,7.33,0,0,0,1.25-.47Z"/><path class="cls-4" d="M95.26,447.19L93,446.87v-2.53l2.27,0.31V442l3-.45v3.47l6,0.8v2.53l-6-.8v3.29a4.39,4.39,0,0,0,.66,2.65,2.66,2.66,0,0,0,1.86,1,3.83,3.83,0,0,0,1.12,0,3.76,3.76,0,0,0,.91-0.26,4.33,4.33,0,0,0,.73-0.41l0.61-.43,1.38,2.25a3.66,3.66,0,0,1-1,.71,7.11,7.11,0,0,1-1.26.5,7.25,7.25,0,0,1-1.41.26,6.58,6.58,0,0,1-1.44,0,5.68,5.68,0,0,1-3.86-2,7.45,7.45,0,0,1-1.29-4.74v-3.29Z"/><path class="cls-4" d="M107.16,452a6.66,6.66,0,0,1,.44-2.52,4.43,4.43,0,0,1,1.24-1.75,4.51,4.51,0,0,1,1.91-.94,7,7,0,0,1,2.49-.08,7.8,7.8,0,0,1,2.58.76,6.34,6.34,0,0,1,1.92,1.47,6.08,6.08,0,0,1,1.18,2.07,7.81,7.81,0,0,1,.4,2.53,6.68,6.68,0,0,1-.44,2.52,4.35,4.35,0,0,1-3.15,2.7,7,7,0,0,1-2.49.09,7.75,7.75,0,0,1-2.58-.77,6.34,6.34,0,0,1-1.91-1.48,6.11,6.11,0,0,1-1.18-2.07A7.82,7.82,0,0,1,107.16,452Zm3.07,0.4a4.83,4.83,0,0,0,.21,1.43,4,4,0,0,0,.6,1.2,3.25,3.25,0,0,0,.94.87,3.16,3.16,0,0,0,1.26.43,2.61,2.61,0,0,0,2.17-.58,3.34,3.34,0,0,0,.84-2.59,4.42,4.42,0,0,0-.78-2.66,3.1,3.1,0,0,0-2.22-1.26,3.42,3.42,0,0,0-1.19,0,2,2,0,0,0-1,.51,2.61,2.61,0,0,0-.63,1A4.7,4.7,0,0,0,110.23,452.39Z"/><path class="cls-4" d="M121,457l2.85,0.35v-6.44l-2.85-.35V448l5.16,0.63,0.34,1.56h0.09a5.13,5.13,0,0,1,1.47-1.09,3.39,3.39,0,0,1,1.93-.28,3,3,0,0,1,2.17,1.27,6,6,0,0,1,.79,3.47l-2.69-.32A2.49,2.49,0,0,0,130,452a1,1,0,0,0-.77-0.47,2.08,2.08,0,0,0-1.48.28,3.9,3.9,0,0,0-1,.94v4.9l5,0.59v2.53c-4.32-.51-6.49-0.77-10.81-1.3V457Z"/><path class="cls-4" d="M135.24,458.66l4,0.46v-6.44l-4-.46v-2.53l7,0.8v9l4.25,0.47v2.53c-4.51-.5-6.77-0.75-11.27-1.27v-2.53Zm3.49-11.7a1.44,1.44,0,0,1,.53-1.16,1.86,1.86,0,0,1,1.47-.34,2.5,2.5,0,0,1,1.54.68,1.77,1.77,0,0,1,.57,1.28,1.32,1.32,0,0,1-.57,1.14,2.17,2.17,0,0,1-1.54.3,2.37,2.37,0,0,1-1.47-.64A1.73,1.73,0,0,1,138.73,447Z"/><path class="cls-4" d="M149.73,452.09a11.54,11.54,0,0,1,2.12-.48,11.87,11.87,0,0,1,2.86,0,6.72,6.72,0,0,1,2,.5,3.91,3.91,0,0,1,1.36,1,3.55,3.55,0,0,1,.75,1.34,5.79,5.79,0,0,1,.23,1.68q0,1.17-.08,2t-0.08,1.46a10,10,0,0,0,0,1.09c0,0.21.05,0.43,0.07,0.63l1.49,0.15v2.53l-3.86-.4-0.3-1.6h-0.11a3.4,3.4,0,0,1-1.3,1.09,4.1,4.1,0,0,1-2.28.28,4.29,4.29,0,0,1-2.72-1.21,3.5,3.5,0,0,1-1-2.55,3.42,3.42,0,0,1,.35-1.63,2.54,2.54,0,0,1,1-1,4.41,4.41,0,0,1,1.62-.49,9.32,9.32,0,0,1,2.11,0q0.41,0,.87.14l1.12,0.21a2.3,2.3,0,0,0,0-.46v-0.44a1.63,1.63,0,0,0-.5-1.31,2.66,2.66,0,0,0-1.48-.54,6.7,6.7,0,0,0-2.1.08,12.23,12.23,0,0,0-1.57.43Zm3.91,8.86a2.58,2.58,0,0,0,1.64-.23,2.31,2.31,0,0,0,.8-0.78v-1.38l-0.68-.18a8.14,8.14,0,0,0-1-.16,4.66,4.66,0,0,0-.86,0,2.63,2.63,0,0,0-.77.17,1.29,1.29,0,0,0-.55.39,1,1,0,0,0-.2.65,1.45,1.45,0,0,0,.37,1A1.94,1.94,0,0,0,153.64,460.95Z"/><path class="cls-4" d="M163.44,448.14l4.9,0.49v10.63a5.2,5.2,0,0,0,.44,2.5,1.72,1.72,0,0,0,1.4.83,3.76,3.76,0,0,0,1.17,0,4,4,0,0,0,.92-0.34l1.13,2.18q-0.39.22-.78,0.4a4.59,4.59,0,0,1-.83.29,5.31,5.31,0,0,1-1,.14,7.49,7.49,0,0,1-1.16,0,4.78,4.78,0,0,1-3.24-1.42,4.68,4.68,0,0,1-1.08-3.24v-9.66l-1.91-.19v-2.53Z"/><path class="cls-4" d="M185.7,471.24a11.6,11.6,0,0,1-3.13-1.29,10.44,10.44,0,0,1-2.69-2.29,11,11,0,0,1-1.87-3.3,12.52,12.52,0,0,1-.7-4.34,11.46,11.46,0,0,1,.7-4.2,8.84,8.84,0,0,1,1.87-3,8.19,8.19,0,0,1,2.69-1.85,10.6,10.6,0,0,1,3.13-.8l0.55,2.51a8.9,8.9,0,0,0-1.83.49,5.88,5.88,0,0,0-1.94,1.23,6.8,6.8,0,0,0-1.55,2.26,9.26,9.26,0,0,0,1.66,9.78,8.15,8.15,0,0,0,2,1.58,8.63,8.63,0,0,0,1.7.76Z"/><path class="cls-4" d="M191.47,464.34l3.52,0.3V454.59l-3,2.06-1.38-2,5.25-3.55,2,0.17v13.57l3.45,0.28v2.53l-9.83-.83v-2.53Z"/><path class="cls-4" d="M205.28,465.49l3.52,0.28V455.72l-3,2.08-1.38-1.95,5.25-3.59,2,0.16V466l3.45,0.26v2.53l-9.83-.76v-2.53Z"/><path class="cls-4" d="M219.41,471.46a7.42,7.42,0,0,0,1.7-.49,6.52,6.52,0,0,0,2-1.26,7.16,7.16,0,0,0,1.62-2.27,8.17,8.17,0,0,0,.67-3.52,9.68,9.68,0,0,0-.63-3.72,8.48,8.48,0,0,0-1.55-2.51,7.41,7.41,0,0,0-1.95-1.54,10.35,10.35,0,0,0-1.83-.79l0.55-2.42a12.29,12.29,0,0,1,3.13,1.3,10.34,10.34,0,0,1,2.69,2.28,10.92,10.92,0,0,1,1.88,3.29,12.39,12.39,0,0,1,.7,4.31,11.58,11.58,0,0,1-.7,4.23,8.89,8.89,0,0,1-1.88,3,8.28,8.28,0,0,1-2.69,1.86A10.06,10.06,0,0,1,220,474Z"/><path class="cls-4" d="M371.06,474.22c0-1,0-1.52,0-2.53h2.72c0-2.58,0-3.86,0-6.44H371v-2.53h2.74v-0.64a4.24,4.24,0,0,1,.38-1.87,3.78,3.78,0,0,1,1-1.29,4.14,4.14,0,0,1,1.44-.76,6,6,0,0,1,1.7-.25,10.8,10.8,0,0,1,2.62.24,6.66,6.66,0,0,1,1.7.64l-0.88,2.29a10.37,10.37,0,0,0-1.14-.45,5,5,0,0,0-1.58-.19,2.26,2.26,0,0,0-1.74.58,2.51,2.51,0,0,0-.5,1.69l4.84,0c0,1,0,1.52,0,2.53l-4.84,0v6.44l4.87,0v2.53C377.42,474.19,375.3,474.21,371.06,474.22Z"/><path class="cls-4" d="M385.34,463.39a12.74,12.74,0,0,1,2.13-.74,12.23,12.23,0,0,1,2.87-.34,6.35,6.35,0,0,1,2,.26,3.34,3.34,0,0,1,1.36.79,3,3,0,0,1,.75,1.25,5.49,5.49,0,0,1,.23,1.65q0,1.17-.08,2t-0.08,1.47a9.83,9.83,0,0,0,0,1.08c0,0.21.05,0.42,0.07,0.62l1.5,0c0,1,0,1.52,0,2.53l-3.87.06-0.3-1.56H391.9a4.06,4.06,0,0,1-1.31,1.25,4.41,4.41,0,0,1-2.29.55,3.85,3.85,0,0,1-2.73-.89,3.11,3.11,0,0,1-1-2.43,3.68,3.68,0,0,1,.35-1.67,3,3,0,0,1,1-1.16,5,5,0,0,1,1.63-.69,9.58,9.58,0,0,1,2.12-.25c0.27,0,.57,0,0.87,0l1.12,0.08a2.37,2.37,0,0,0,0-.46v-0.44a1.45,1.45,0,0,0-.5-1.25,2.43,2.43,0,0,0-1.49-.36,7,7,0,0,0-2.11.33,13.73,13.73,0,0,0-1.58.62Zm3.93,8.39a2.53,2.53,0,0,0,2.44-1.3V469.1L391,469a7.91,7.91,0,0,0-1,0,4.79,4.79,0,0,0-.87.09,2.91,2.91,0,0,0-.78.26,1.54,1.54,0,0,0-.55.46,1.09,1.09,0,0,0-.2.67,1.29,1.29,0,0,0,.38,1A1.75,1.75,0,0,0,389.27,471.78Z"/><path class="cls-4" d="M409.7,472.56a6.8,6.8,0,0,1-2.21,1.12,9.81,9.81,0,0,1-2.65.42,7.46,7.46,0,0,1-2.66-.38,5.28,5.28,0,0,1-2-1.19,5.07,5.07,0,0,1-1.21-1.9,7.08,7.08,0,0,1-.42-2.48,6.53,6.53,0,0,1,.48-2.59,5.58,5.58,0,0,1,1.35-1.94,6,6,0,0,1,2-1.23A8,8,0,0,1,405,462a9.42,9.42,0,0,1,2.42.24,11.11,11.11,0,0,1,1.73.53v4l-2.54.06v-2.12a6.48,6.48,0,0,0-1.43-.13,4.4,4.4,0,0,0-1.28.22,3.22,3.22,0,0,0-1.13.65,3.36,3.36,0,0,0-.81,1.09,3.55,3.55,0,0,0-.31,1.55,3.51,3.51,0,0,0,.25,1.35,3.07,3.07,0,0,0,1.86,1.77,4.08,4.08,0,0,0,1.51.23,5.46,5.46,0,0,0,2.16-.42,9,9,0,0,0,1.26-.67Z"/><path class="cls-4" d="M413.62,464.6l-2.28.06v-2.53l2.28-.06c0-1,0-1.57,0-2.62l3-.93V462l6-.18v2.53l-6,.18v3.29a3.88,3.88,0,0,0,.67,2.55,2.24,2.24,0,0,0,1.87.74,4,4,0,0,0,1.13-.18,4.41,4.41,0,0,0,.91-0.41,5.42,5.42,0,0,0,.74-0.53l0.61-.52,1.38,2a4.65,4.65,0,0,1-1,.87,8.72,8.72,0,0,1-1.27.71,8.25,8.25,0,0,1-1.42.49,6.84,6.84,0,0,1-1.45.2,4.85,4.85,0,0,1-3.89-1.33q-1.3-1.4-1.3-4.53V464.6Z"/><path class="cls-4" d="M425.59,467.47a7.17,7.17,0,0,1,.44-2.59,5.44,5.44,0,0,1,3.17-3.2,7.53,7.53,0,0,1,2.5-.49,7.13,7.13,0,0,1,2.59.34,5.11,5.11,0,0,1,1.93,1.16,4.92,4.92,0,0,1,1.19,1.88,7.82,7.82,0,0,1,0,5.06,5.46,5.46,0,0,1-3.17,3.21,7.46,7.46,0,0,1-2.5.49,7.08,7.08,0,0,1-2.59-.35,5.11,5.11,0,0,1-1.93-1.17,4.94,4.94,0,0,1-1.19-1.88A7.22,7.22,0,0,1,425.59,467.47Zm3.09-.1a4.48,4.48,0,0,0,.21,1.4,3.29,3.29,0,0,0,.6,1.11,2.57,2.57,0,0,0,.94.71,2.85,2.85,0,0,0,1.27.22,3,3,0,0,0,2.18-.93,4.66,4.66,0,0,0,.06-5.26,2.61,2.61,0,0,0-2.24-.9,3.66,3.66,0,0,0-1.2.24,2.48,2.48,0,0,0-1,.67,3.24,3.24,0,0,0-.63,1.13A5,5,0,0,0,428.68,467.37Z"/><path class="cls-4" d="M439.52,470.19l2.86-.11c0-2.58,0-3.86,0-6.44l-2.86.11v-2.53l5.19-.21,0.35,1.5h0.09a6.51,6.51,0,0,1,1.48-1.33,3.78,3.78,0,0,1,1.94-.59,2.51,2.51,0,0,1,2.18.91,5.39,5.39,0,0,1,.79,3.34l-2.7.12a2.25,2.25,0,0,0-.24-1.2,0.81,0.81,0,0,0-.77-0.35,2.37,2.37,0,0,0-1.49.52,5,5,0,0,0-1,1.1c0,2,0,2.94,0,4.9l5-.22c0,1,0,1.52,0,2.53-4.34.19-6.52,0.29-10.86,0.46v-2.53Z"/><path class="cls-4" d="M453.82,469.58l4.06-.19v-6.44l-4.06.19c0-1,0-1.52,0-2.53l7.05-.34c0,3.59,0,5.38,0,9l4.26-.22v2.53c-4.53.24-6.79,0.35-11.32,0.56v-2.53Zm3.5-12.26a1.71,1.71,0,0,1,.53-1.24,2.52,2.52,0,0,1,3-.15,1.48,1.48,0,0,1,.58,1.19,1.57,1.57,0,0,1-.58,1.24,2.47,2.47,0,0,1-1.54.55,2.06,2.06,0,0,1-1.47-.4A1.47,1.47,0,0,1,457.32,457.31Z"/><path class="cls-4" d="M468.36,460.66a13.27,13.27,0,0,1,2.13-.83,12.43,12.43,0,0,1,2.87-.46,6.25,6.25,0,0,1,2,.17,3.16,3.16,0,0,1,1.36.74,2.87,2.87,0,0,1,.75,1.22,5.41,5.41,0,0,1,.23,1.64q0,1.17-.08,2t-0.08,1.48a9.78,9.78,0,0,0,0,1.08c0,0.21.05,0.42,0.07,0.62l1.5-.09c0,1,0,1.52,0,2.53l-3.87.23-0.3-1.55h-0.11a4.31,4.31,0,0,1-1.31,1.3,4.54,4.54,0,0,1-2.29.65,3.71,3.71,0,0,1-2.73-.77,3,3,0,0,1-1-2.38,3.78,3.78,0,0,1,.35-1.69,3.22,3.22,0,0,1,1-1.21,5.2,5.2,0,0,1,1.63-.76,9.72,9.72,0,0,1,2.12-.34,8.65,8.65,0,0,1,.87,0l1.12,0a2.41,2.41,0,0,0,0-.46v-0.44a1.39,1.39,0,0,0-.5-1.23,2.36,2.36,0,0,0-1.49-.29,7.13,7.13,0,0,0-2.1.42,14.28,14.28,0,0,0-1.58.68Zm3.92,8.22a2.88,2.88,0,0,0,1.64-.49,3,3,0,0,0,.8-0.91V466.1L474,466a7.91,7.91,0,0,0-1,0,4.85,4.85,0,0,0-.87.13,3,3,0,0,0-.77.3,1.63,1.63,0,0,0-.55.48,1.13,1.13,0,0,0-.2.68,1.24,1.24,0,0,0,.38,1A1.69,1.69,0,0,0,472.28,468.88Z"/><path class="cls-4" d="M482.12,454.49l4.91-.31c0,4.25,0,6.38,0,10.63a4.76,4.76,0,0,0,.44,2.43,1.44,1.44,0,0,0,1.41.6,4,4,0,0,0,1.17-.23,4.82,4.82,0,0,0,.92-0.49l1.13,2q-0.39.28-.78,0.52a5.47,5.47,0,0,1-.83.42,5.89,5.89,0,0,1-1,.29,7.7,7.7,0,0,1-1.16.16,4.13,4.13,0,0,1-3.25-.9,4,4,0,0,1-1.08-3.06c0-3.86,0-5.8,0-9.66l-1.91.12C482.12,456,482.12,455.5,482.12,454.49Z"/><path class="cls-4" d="M495.73,472.4c4.09-.28,6.14-0.42,10.22-0.72,0,1,0,1.48,0,2.46-4.09.3-6.13,0.44-10.22,0.72V472.4Z"/><path class="cls-4" d="M507.75,452.76l4.65-.35c0,2.36,0,3.53,0,5.89h0.09A4.34,4.34,0,0,1,514,457a5.76,5.76,0,0,1,3.78-.5,2.76,2.76,0,0,1,1.27.66,3.22,3.22,0,0,1,.83,1.37,7,7,0,0,1,.3,2.22v7.15l-3,.24v-6.53a2.67,2.67,0,0,0-.6-2,1.94,1.94,0,0,0-1.57-.5,2.8,2.8,0,0,0-1.56.64,3.12,3.12,0,0,0-1,1.4v7.34l-3,.23c0-5.43,0-8.14,0-13.57l-1.66.12C507.75,454.27,507.75,453.77,507.75,452.76Z"/><path class="cls-4" d="M533.85,465.53a4.62,4.62,0,0,1-.77.61,8.27,8.27,0,0,1-1.1.59,9.34,9.34,0,0,1-3,.76,7.59,7.59,0,0,1-2.63-.19,4.6,4.6,0,0,1-3.2-2.85,6.81,6.81,0,0,1-.43-2.51,7,7,0,0,1,.48-2.7,6,6,0,0,1,1.32-2,6.19,6.19,0,0,1,2-1.3,8,8,0,0,1,2.44-.59,7.38,7.38,0,0,1,1.81.08,4.52,4.52,0,0,1,1.71.65,3.75,3.75,0,0,1,1.28,1.4,4.85,4.85,0,0,1,.5,2.35A11.25,11.25,0,0,1,534,462l-8.28.71a2.51,2.51,0,0,0,.31,1.22,2.17,2.17,0,0,0,.76.76,3,3,0,0,0,1.08.38,5.3,5.3,0,0,0,1.3,0,7,7,0,0,0,2.27-.52,5.36,5.36,0,0,0,1.44-.91Zm-5-7.78a4,4,0,0,0-1.13.26,3.5,3.5,0,0,0-1,.56,3,3,0,0,0-.7.84,2.58,2.58,0,0,0-.32,1.08l5.66-.48A2.07,2.07,0,0,0,528.88,457.75Z"/><path class="cls-4" d="M537.37,450.34l4.9-.44c0,4.25,0,6.38,0,10.63a4.69,4.69,0,0,0,.44,2.42,1.4,1.4,0,0,0,1.4.56,4,4,0,0,0,1.17-.26,5,5,0,0,0,.92-0.51l1.13,2q-0.39.29-.78,0.55a5.66,5.66,0,0,1-.83.45,6,6,0,0,1-1,.32,7.81,7.81,0,0,1-1.16.19,4,4,0,0,1-3.24-.81,3.94,3.94,0,0,1-1.08-3c0-3.86,0-5.8,0-9.66l-1.91.17v-2.53Z"/><path class="cls-4" d="M549.17,453.85l3.91-.38,0.34,1.35h0.09a4.9,4.9,0,0,1,3.86-2.08,5.28,5.28,0,0,1,1.94.14,3.32,3.32,0,0,1,1.52.89,4.33,4.33,0,0,1,1,1.69,8.27,8.27,0,0,1,.34,2.56,8.83,8.83,0,0,1-.39,2.7,6.4,6.4,0,0,1-1.13,2.13,5.56,5.56,0,0,1-1.79,1.45,6.68,6.68,0,0,1-2.41.68,9.41,9.41,0,0,1-1.4,0,3.61,3.61,0,0,1-1.15-.22v4.71l-3,.29c0-5.43,0-8.14,0-13.57l-1.72.17v-2.53Zm7.31,1.5a3.3,3.3,0,0,0-1.6.59,2.59,2.59,0,0,0-1,1.41v4.78a2.22,2.22,0,0,0,.93.31,5,5,0,0,0,1.23,0,3.41,3.41,0,0,0,1.2-.34,2.82,2.82,0,0,0,1-.8,3.85,3.85,0,0,0,.64-1.28,6.23,6.23,0,0,0,.23-1.79,3.13,3.13,0,0,0-.74-2.27A2.17,2.17,0,0,0,556.48,455.35Z"/><path class="cls-4" d="M575.23,461.48a4.77,4.77,0,0,1-.77.62,8.44,8.44,0,0,1-1.1.61,9.45,9.45,0,0,1-3,.83,7.53,7.53,0,0,1-2.63-.14,4.46,4.46,0,0,1-3.19-2.79,6.75,6.75,0,0,1-.42-2.5,7.14,7.14,0,0,1,.48-2.71,6.13,6.13,0,0,1,1.32-2,6.36,6.36,0,0,1,2-1.34,8.1,8.1,0,0,1,2.44-.64,7.36,7.36,0,0,1,1.8,0,4.42,4.42,0,0,1,1.71.61,3.63,3.63,0,0,1,1.27,1.37,4.8,4.8,0,0,1,.49,2.34,11.34,11.34,0,0,1-.23,2.16l-8.27.88a2.47,2.47,0,0,0,.31,1.21,2.11,2.11,0,0,0,.76.75,3,3,0,0,0,1.08.36,5.28,5.28,0,0,0,1.3,0,7.12,7.12,0,0,0,2.26-.56,5.51,5.51,0,0,0,1.44-.94Zm-5-7.68a4,4,0,0,0-1.13.28,3.59,3.59,0,0,0-1,.58,3,3,0,0,0-.7.86,2.63,2.63,0,0,0-.32,1.09l5.65-.6A2,2,0,0,0,570.27,453.8Z"/><path class="cls-4" d="M577.64,459.9l2.85-.31c0-2.58,0-3.86,0-6.44l-2.85.31c0-1,0-1.52,0-2.53l5.17-.57,0.34,1.48h0.09a7.21,7.21,0,0,1,1.47-1.43,4,4,0,0,1,1.93-.73,2.33,2.33,0,0,1,2.17.76,5.15,5.15,0,0,1,.79,3.29l-2.69.31a2.16,2.16,0,0,0-.24-1.18,0.75,0.75,0,0,0-.77-0.29,2.53,2.53,0,0,0-1.48.63,5.49,5.49,0,0,0-1,1.17v4.9l5-.57v2.53c-4.33.5-6.49,0.74-10.82,1.22V459.9Z"/><path class="cls-4" d="M601,464.61a9.68,9.68,0,0,1-3.12-.63,7.71,7.71,0,0,1-2.68-1.73,8.33,8.33,0,0,1-1.87-2.91,11.33,11.33,0,0,1-.7-4.2,12.71,12.71,0,0,1,.7-4.35,11.65,11.65,0,0,1,1.87-3.38,11.09,11.09,0,0,1,2.68-2.42,12.91,12.91,0,0,1,3.12-1.46l0.55,2.39a10.89,10.89,0,0,0-1.82.88,7.92,7.92,0,0,0-1.94,1.64A9.05,9.05,0,0,0,596.2,451a9.94,9.94,0,0,0-.63,3.76,8,8,0,0,0,.67,3.49,6.67,6.67,0,0,0,1.62,2.19,6.06,6.06,0,0,0,2,1.17,7.1,7.1,0,0,0,1.7.4Z"/><path class="cls-4" d="M606.72,456.49l3.51-.44V446l-3,2.7L605.83,447l5.23-4.66,2-.26v13.57l3.44-.44v2.53L606.72,459v-2.53Z"/><path class="cls-4" d="M623,455.44a1.81,1.81,0,0,1,.52-1.31,2.16,2.16,0,0,1,1.3-.63,2,2,0,0,1,1.9.57,2.89,2.89,0,0,1,.64,2A4.73,4.73,0,0,1,627,458a6,6,0,0,1-1,1.61,6.83,6.83,0,0,1-1.43,1.21,6.65,6.65,0,0,1-1.57.74l-0.62-1.18a7.63,7.63,0,0,0,1.11-.54,5.42,5.42,0,0,0,1-.77,4.34,4.34,0,0,0,.77-1,2.74,2.74,0,0,0,.36-1.15,3,3,0,0,1-1.17.19,1.54,1.54,0,0,1-.79-0.26,1.25,1.25,0,0,1-.45-0.58A2.21,2.21,0,0,1,623,455.44Z"/><path class="cls-4" d="M634.23,452.86l3.5-.49V442.32l-3,2.75-1.37-1.65,5.22-4.73,2-.29c0,5.43,0,8.14,0,13.57l3.43-.49V454l-9.78,1.39v-2.53Z"/><path class="cls-4" d="M648,450.9l3.5-.52V440.33l-3,2.77-1.37-1.64,5.22-4.77,2-.3V450l3.43-.52V452c-3.91.59-5.86,0.88-9.77,1.45V450.9Z"/><path class="cls-4" d="M662,453.69a9.23,9.23,0,0,0,1.69-.87,8.94,8.94,0,0,0,2-1.71,9.74,9.74,0,0,0,1.61-2.63,9.3,9.3,0,0,0,.66-3.67,8.68,8.68,0,0,0-.63-3.58,6.23,6.23,0,0,0-1.54-2.16,5.39,5.39,0,0,0-1.93-1.1,8.46,8.46,0,0,0-1.82-.38l0.55-2.55a10.08,10.08,0,0,1,3.11.6,7.47,7.47,0,0,1,2.67,1.68,8.12,8.12,0,0,1,1.86,2.87,11.17,11.17,0,0,1,.7,4.16,13,13,0,0,1-.7,4.39,11.93,11.93,0,0,1-1.86,3.42,11.42,11.42,0,0,1-2.67,2.46,12.34,12.34,0,0,1-3.11,1.49Z"/><path class="cls-4" d="M53.34,399V396.5l2.7,0.43c0-2.58,0-3.86,0-6.44l-2.72-.43v-2.53L56,388v-0.64a3.87,3.87,0,0,1,.38-1.8,3,3,0,0,1,1-1.13,3.43,3.43,0,0,1,1.43-.53,5.72,5.72,0,0,1,1.68,0,11.54,11.54,0,0,1,2.6.66,7.87,7.87,0,0,1,1.68.91l-0.87,2.15a12.25,12.25,0,0,0-1.13-.63,5.46,5.46,0,0,0-1.57-.45,2,2,0,0,0-1.73.3,2.21,2.21,0,0,0-.49,1.61l4.8,0.74v2.53l-4.8-.74c0,2.58,0,3.86,0,6.44l4.82,0.74v2.53C59.63,400,57.53,399.69,53.34,399Z"/><path class="cls-4" d="M67.49,390.5a11.18,11.18,0,0,1,2.12-.39,11.82,11.82,0,0,1,2.85.13,6.91,6.91,0,0,1,2,.59,4.14,4.14,0,0,1,1.35,1,3.74,3.74,0,0,1,.74,1.37,5.92,5.92,0,0,1,.23,1.69q0,1.17-.08,2c-0.05.54-.08,1-0.08,1.46a10.07,10.07,0,0,0,0,1.09c0,0.21.05,0.43,0.07,0.63l1.49,0.22v2.53l-3.84-.56-0.3-1.61-0.11,0a3.19,3.19,0,0,1-1.3,1,4,4,0,0,1-2.27.18,4.47,4.47,0,0,1-2.71-1.33,3.66,3.66,0,0,1-1-2.59,3.35,3.35,0,0,1,.35-1.61,2.39,2.39,0,0,1,1-1,4.24,4.24,0,0,1,1.61-.42,9.24,9.24,0,0,1,2.1.09q0.41,0.06.86,0.17l1.11,0.26a2.28,2.28,0,0,0,0-.45v-0.44a1.7,1.7,0,0,0-.5-1.33,2.76,2.76,0,0,0-1.48-.6,6.64,6.64,0,0,0-2.09,0,11.76,11.76,0,0,0-1.57.36Zm3.89,9a2.52,2.52,0,0,0,1.63-.16,2.17,2.17,0,0,0,.79-0.75v-1.38l-0.68-.2a8.29,8.29,0,0,0-1-.2,4.65,4.65,0,0,0-.86,0,2.54,2.54,0,0,0-.77.14,1.21,1.21,0,0,0-.54.37,1,1,0,0,0-.2.64,1.51,1.51,0,0,0,.37,1.06A2,2,0,0,0,71.39,399.52Z"/><path class="cls-4" d="M91.67,403.61a5.66,5.66,0,0,1-2.2.76,9.34,9.34,0,0,1-2.63,0,8.17,8.17,0,0,1-2.65-.81A6.56,6.56,0,0,1,82.24,402a6.3,6.3,0,0,1-1.2-2.09,7.69,7.69,0,0,1-.41-2.54,6,6,0,0,1,.48-2.51,4.43,4.43,0,0,1,1.34-1.72,4.87,4.87,0,0,1,2-.9,7.52,7.52,0,0,1,2.54,0,10.14,10.14,0,0,1,2.4.64,13,13,0,0,1,1.72.81c0,1.62,0,2.43,0,4l-2.52-.35v-2.12a6.9,6.9,0,0,0-1.42-.36,4.15,4.15,0,0,0-1.27,0A2.58,2.58,0,0,0,84,396.35a3.25,3.25,0,0,0-.31,1.5,3.85,3.85,0,0,0,.25,1.39,3.85,3.85,0,0,0,1.84,2.07,4.48,4.48,0,0,0,1.5.48,5.09,5.09,0,0,0,2.14-.07,7.32,7.32,0,0,0,1.25-.47Z"/><path class="cls-4" d="M95.56,396.28L93.29,396v-2.53l2.27,0.31v-2.62l3-.45c0,1.39,0,2.08,0,3.47l6,0.8v2.53l-6-.8c0,1.32,0,2,0,3.29a4.39,4.39,0,0,0,.66,2.65,2.66,2.66,0,0,0,1.86,1,3.83,3.83,0,0,0,1.12,0,3.75,3.75,0,0,0,.91-0.26,4.34,4.34,0,0,0,.73-0.41l0.61-.43,1.38,2.25a3.67,3.67,0,0,1-1,.71,7.13,7.13,0,0,1-1.26.5,7.26,7.26,0,0,1-1.41.26,6.61,6.61,0,0,1-1.44,0,5.68,5.68,0,0,1-3.86-2,7.45,7.45,0,0,1-1.29-4.74C95.56,398.25,95.56,397.59,95.56,396.28Z"/><path class="cls-4" d="M107.46,401.08a6.65,6.65,0,0,1,.44-2.52,4.43,4.43,0,0,1,1.24-1.75,4.51,4.51,0,0,1,1.92-.94,7,7,0,0,1,2.49-.08,7.79,7.79,0,0,1,2.58.76A6.34,6.34,0,0,1,118,398a6.07,6.07,0,0,1,1.18,2.07,7.8,7.8,0,0,1,.4,2.53,6.68,6.68,0,0,1-.44,2.52,4.45,4.45,0,0,1-1.24,1.76,4.5,4.5,0,0,1-1.91.95,7,7,0,0,1-2.49.09,7.75,7.75,0,0,1-2.58-.77,6.36,6.36,0,0,1-1.92-1.48,6.12,6.12,0,0,1-1.18-2.07A7.82,7.82,0,0,1,107.46,401.08Zm3.07,0.4a4.85,4.85,0,0,0,.21,1.43,4,4,0,0,0,.6,1.2,3.25,3.25,0,0,0,.94.87,3.16,3.16,0,0,0,1.26.43,2.61,2.61,0,0,0,2.17-.58,3.34,3.34,0,0,0,.84-2.59,4.42,4.42,0,0,0-.78-2.66,3.1,3.1,0,0,0-2.23-1.26,3.42,3.42,0,0,0-1.19,0,2,2,0,0,0-1,.51,2.62,2.62,0,0,0-.63,1A4.71,4.71,0,0,0,110.53,401.48Z"/><path class="cls-4" d="M121.31,406.05l2.85,0.35c0-2.58,0-3.86,0-6.44l-2.85-.35v-2.53l5.16,0.63,0.34,1.56h0.09a5.1,5.1,0,0,1,1.47-1.09,3.38,3.38,0,0,1,1.93-.28,3,3,0,0,1,2.17,1.27,6,6,0,0,1,.79,3.47l-2.69-.32a2.49,2.49,0,0,0-.24-1.24,1,1,0,0,0-.77-0.47,2.08,2.08,0,0,0-1.48.28,3.9,3.9,0,0,0-1,.94c0,2,0,2.94,0,4.9l5,0.59c0,1,0,1.52,0,2.53-4.32-.51-6.49-0.77-10.81-1.3v-2.53Z"/><path class="cls-4" d="M135.54,407.75l4,0.46c0-2.58,0-3.86,0-6.44l-4-.46c0-1,0-1.52,0-2.53l7,0.8c0,3.59,0,5.38,0,9l4.25,0.47v2.53c-4.51-.49-6.77-0.75-11.27-1.27v-2.53Zm3.49-11.7a1.44,1.44,0,0,1,.53-1.16,1.86,1.86,0,0,1,1.47-.34,2.5,2.5,0,0,1,1.54.68,1.76,1.76,0,0,1,.57,1.28,1.32,1.32,0,0,1-.57,1.14,2.17,2.17,0,0,1-1.54.3,2.37,2.37,0,0,1-1.47-.64A1.73,1.73,0,0,1,139,396.05Z"/><path class="cls-4" d="M150,401.18a11.55,11.55,0,0,1,2.13-.48,11.87,11.87,0,0,1,2.86,0,6.73,6.73,0,0,1,2,.5,3.91,3.91,0,0,1,1.36,1,3.55,3.55,0,0,1,.75,1.34,5.79,5.79,0,0,1,.23,1.68q0,1.17-.08,2c-0.05.55-.08,1-0.08,1.46a10,10,0,0,0,0,1.09c0,0.21.05,0.43,0.07,0.63l1.49,0.15c0,1,0,1.52,0,2.53l-3.86-.4-0.3-1.6h-0.11a3.4,3.4,0,0,1-1.3,1.09,4.1,4.1,0,0,1-2.28.28,4.29,4.29,0,0,1-2.72-1.21,3.5,3.5,0,0,1-1-2.55,3.42,3.42,0,0,1,.35-1.63,2.55,2.55,0,0,1,1-1,4.41,4.41,0,0,1,1.62-.49,9.3,9.3,0,0,1,2.11,0q0.41,0,.87.14l1.12,0.21a2.3,2.3,0,0,0,0-.46v-0.44a1.63,1.63,0,0,0-.5-1.31,2.67,2.67,0,0,0-1.48-.54,6.7,6.7,0,0,0-2.1.08,12.23,12.23,0,0,0-1.57.43Zm3.91,8.86a2.58,2.58,0,0,0,1.64-.23,2.32,2.32,0,0,0,.8-0.78v-1.38l-0.68-.18a8.15,8.15,0,0,0-1-.16,4.64,4.64,0,0,0-.86,0,2.64,2.64,0,0,0-.77.17,1.29,1.29,0,0,0-.55.39,1,1,0,0,0-.2.65,1.45,1.45,0,0,0,.37,1A1.94,1.94,0,0,0,153.94,410Z"/><path class="cls-4" d="M163.74,397.23l4.9,0.49c0,4.25,0,6.38,0,10.63a5.2,5.2,0,0,0,.44,2.5,1.72,1.72,0,0,0,1.4.83,3.77,3.77,0,0,0,1.17,0,4,4,0,0,0,.92-0.34l1.13,2.18q-0.39.22-.78,0.4a4.58,4.58,0,0,1-.83.29,5.3,5.3,0,0,1-1,.14,7.5,7.5,0,0,1-1.16,0,4.78,4.78,0,0,1-3.24-1.42,4.68,4.68,0,0,1-1.08-3.24c0-3.86,0-5.8,0-9.66l-1.91-.19v-2.53Z"/><path class="cls-4" d="M177.33,417.35c4.08,0.38,6.13.57,10.21,0.93v2.46c-4.09-.36-6.13-0.55-10.21-0.93C177.33,418.83,177.33,418.33,177.33,417.35Z"/><path class="cls-4" d="M189.34,399.65l4.65,0.4c0,2.35,0,3.53,0,5.89h0.09a3.45,3.45,0,0,1,1.47-1,4.82,4.82,0,0,1,2.16-.26,5.64,5.64,0,0,1,1.61.36,3.41,3.41,0,0,1,1.27.86,4,4,0,0,1,.83,1.51,7.5,7.5,0,0,1,.3,2.27c0,2.86,0,4.29,0,7.15l-3-.25c0-2.61,0-3.92,0-6.53a3,3,0,0,0-.6-2.07,2.27,2.27,0,0,0-1.57-.75,2.44,2.44,0,0,0-1.56.39,2.5,2.5,0,0,0-1,1.24c0,2.93,0,4.4,0,7.34l-3-.26c0-5.43,0-8.14,0-13.57l-1.66-.14v-2.53Z"/><path class="cls-4" d="M215.43,416.65a3.72,3.72,0,0,1-.77.48,6.89,6.89,0,0,1-1.11.41,8.15,8.15,0,0,1-1.39.26,8.81,8.81,0,0,1-1.61,0,8.16,8.16,0,0,1-2.64-.62,5.76,5.76,0,0,1-3.2-3.37,7.37,7.37,0,0,1-.43-2.58,6.47,6.47,0,0,1,.48-2.62,4.76,4.76,0,0,1,1.32-1.79,5,5,0,0,1,2-1,7.43,7.43,0,0,1,2.44-.19,7.84,7.84,0,0,1,1.81.37A5.42,5.42,0,0,1,214,407a4.75,4.75,0,0,1,1.28,1.6,5.36,5.36,0,0,1,.49,2.43,10.68,10.68,0,0,1-.23,2.12l-8.29-.63a2.81,2.81,0,0,0,.31,1.27,2.75,2.75,0,0,0,.76.89,3.59,3.59,0,0,0,1.08.56,5.58,5.58,0,0,0,1.3.25,6.55,6.55,0,0,0,2.27-.15,4.38,4.38,0,0,0,1.44-.67Zm-5-8.59a3.7,3.7,0,0,0-1.13.08,2.88,2.88,0,0,0-1,.41,2.35,2.35,0,0,0-.7.73,2.27,2.27,0,0,0-.32,1l5.66,0.44A2.48,2.48,0,0,0,210.46,408.06Z"/><path class="cls-4" d="M219,402l4.9,0.35c0,4.25,0,6.38,0,10.63a5.11,5.11,0,0,0,.44,2.49,1.66,1.66,0,0,0,1.41.79,3.8,3.8,0,0,0,1.17-.07,4.16,4.16,0,0,0,.92-0.36l1.13,2.15q-0.39.23-.78,0.42a4.73,4.73,0,0,1-.83.31,5.41,5.41,0,0,1-1,.16,7.53,7.53,0,0,1-1.16,0,4.66,4.66,0,0,1-3.25-1.33,4.56,4.56,0,0,1-1.08-3.21c0-3.86,0-5.8,0-9.66l-1.91-.14C219,403.54,219,403,219,402Z"/><path class="cls-4" d="M230.77,407.45l3.92,0.26,0.35,1.4h0.09a4.14,4.14,0,0,1,3.87-1.46,5.7,5.7,0,0,1,1.95.45,4.14,4.14,0,0,1,1.52,1.14,5.3,5.3,0,0,1,1,1.85,8.81,8.81,0,0,1,.35,2.62,8.21,8.21,0,0,1-.39,2.63,5.22,5.22,0,0,1-1.13,1.94,4.45,4.45,0,0,1-1.8,1.15,6.11,6.11,0,0,1-2.42.29,9.69,9.69,0,0,1-1.4-.19,4.11,4.11,0,0,1-1.15-.41c0,1.89,0,2.83,0,4.71l-3-.19c0-5.43,0-8.14,0-13.57l-1.73-.11v-2.53Zm7.33,2.68a2.92,2.92,0,0,0-1.6.33,2.08,2.08,0,0,0-1,1.25c0,1.91,0,2.87,0,4.78a2.65,2.65,0,0,0,.93.46,5.3,5.3,0,0,0,1.23.23,3.12,3.12,0,0,0,1.2-.14,2.25,2.25,0,0,0,1-.64,3.16,3.16,0,0,0,.64-1.18,5.83,5.83,0,0,0,.23-1.76,3.59,3.59,0,0,0-.74-2.39A2.56,2.56,0,0,0,238.1,410.13Z"/><path class="cls-4" d="M256.9,419.3a3.81,3.81,0,0,1-.77.5,7.06,7.06,0,0,1-1.11.44,8.21,8.21,0,0,1-1.39.29,8.82,8.82,0,0,1-1.61,0,8.07,8.07,0,0,1-2.64-.56,5.6,5.6,0,0,1-3.2-3.3,7.29,7.29,0,0,1-.43-2.57,6.54,6.54,0,0,1,.48-2.63,4.9,4.9,0,0,1,1.32-1.82,5.17,5.17,0,0,1,2-1,7.49,7.49,0,0,1,2.44-.24,7.77,7.77,0,0,1,1.81.33,5.29,5.29,0,0,1,1.72.89,4.6,4.6,0,0,1,1.28,1.58,5.28,5.28,0,0,1,.5,2.42,10.75,10.75,0,0,1-.23,2.13l-8.3-.46a2.77,2.77,0,0,0,.31,1.26,2.67,2.67,0,0,0,.76.87,3.49,3.49,0,0,0,1.08.53,5.53,5.53,0,0,0,1.3.22,6.61,6.61,0,0,0,2.27-.2,4.49,4.49,0,0,0,1.44-.7Zm-5-8.48a3.73,3.73,0,0,0-1.13.1,3,3,0,0,0-1,.43,2.41,2.41,0,0,0-.7.75,2.29,2.29,0,0,0-.32,1l5.67,0.32A2.42,2.42,0,0,0,251.92,410.81Z"/><path class="cls-4" d="M259.32,418.11l2.86,0.15c0-2.58,0-3.86,0-6.44l-2.86-.15c0-1,0-1.52,0-2.53l5.19,0.26,0.35,1.53h0.09a5.69,5.69,0,0,1,1.48-1.19,3.54,3.54,0,0,1,1.94-.41,2.76,2.76,0,0,1,2.18,1.11,5.74,5.74,0,0,1,.79,3.42l-2.7-.13a2.38,2.38,0,0,0-.24-1.22,0.9,0.9,0,0,0-.77-0.42,2.2,2.2,0,0,0-1.49.39,4.33,4.33,0,0,0-1,1c0,2,0,2.94,0,4.9l5,0.24c0,1,0,1.52,0,2.53-4.34-.2-6.51-0.31-10.86-0.54v-2.53Z"/><path class="cls-4" d="M282.74,426.6a11.08,11.08,0,0,1-3.14-1.14,9.72,9.72,0,0,1-2.7-2.16,10.3,10.3,0,0,1-1.88-3.21,12.2,12.2,0,0,1-.7-4.31,11.71,11.71,0,0,1,.7-4.24,9.44,9.44,0,0,1,1.88-3.08,8.8,8.8,0,0,1,2.7-2,11.07,11.07,0,0,1,3.14-1l0.55,2.48a9.29,9.29,0,0,0-1.83.58,6.32,6.32,0,0,0-1.95,1.32,7.28,7.28,0,0,0-1.56,2.34,9.12,9.12,0,0,0-.63,3.65,8.69,8.69,0,0,0,.67,3.59,8.36,8.36,0,0,0,1.63,2.45,7.6,7.6,0,0,0,2,1.48,8.21,8.21,0,0,0,1.71.68Z"/><path class="cls-4" d="M288.53,419.42l3.53,0.13c0-4,0-6,0-10.05l-3,2.21-1.38-1.89,5.26-3.81,2,0.07c0,5.43,0,8.14,0,13.57l3.46,0.11v2.53l-9.85-.34C288.53,420.94,288.53,420.43,288.53,419.42Z"/><path class="cls-4" d="M304.95,421a1.53,1.53,0,0,1,.52-1.23,1.85,1.85,0,0,1,1.3-.42,2.35,2.35,0,0,1,1.91.88,3.3,3.3,0,0,1,.65,2.06,4.27,4.27,0,0,1-.4,1.87,4.79,4.79,0,0,1-1,1.44,5.46,5.46,0,0,1-1.44,1,5.72,5.72,0,0,1-1.58.48l-0.62-1.28a6.54,6.54,0,0,0,1.12-.36,4.34,4.34,0,0,0,1-.6,3.41,3.41,0,0,0,.77-0.86,2.38,2.38,0,0,0,.36-1.09,2.94,2.94,0,0,1-1.18,0,1.84,1.84,0,0,1-.8-0.39,1.56,1.56,0,0,1-.45-0.66A2.38,2.38,0,0,1,304.95,421Z"/><path class="cls-4" d="M316.2,420.25l3.53,0.08c0-4,0-6,0-10.05l-3,2.26-1.38-1.87,5.26-3.88,2,0c0,5.43,0,8.14,0,13.57l3.46,0.07V423l-9.85-.2C316.2,421.77,316.2,421.27,316.2,420.25Z"/><path class="cls-4" d="M330,420.53l3.53,0.05V410.53l-3,2.28-1.38-1.86L334.4,407l2,0c0,5.43,0,8.14,0,13.57l3.46,0v2.53l-9.85-.13v-2.53Z"/><path class="cls-4" d="M344.21,425.6a7.86,7.86,0,0,0,1.71-.59,7.13,7.13,0,0,0,2-1.39,7.81,7.81,0,0,0,1.63-2.37,8.45,8.45,0,0,0,.67-3.56,9.36,9.36,0,0,0-.63-3.68,7.79,7.79,0,0,0-1.56-2.41,6.78,6.78,0,0,0-1.95-1.42,9.74,9.74,0,0,0-1.83-.67l0.55-2.46a11.57,11.57,0,0,1,3.14,1.11,9.44,9.44,0,0,1,2.7,2.11,10.06,10.06,0,0,1,1.88,3.17,13.33,13.33,0,0,1,0,8.54,9.67,9.67,0,0,1-1.88,3.12,9.08,9.08,0,0,1-2.7,2,10.62,10.62,0,0,1-3.14,1Z"/><path class="cls-4" d="M508.35,415.35l2.85-.21c0-2.58,0-3.86,0-6.44l-2.85.21c0-1,0-1.52,0-2.53l5.18-.39,0.35,1.49H514a6.84,6.84,0,0,1,1.47-1.38,3.88,3.88,0,0,1,1.93-.66,2.42,2.42,0,0,1,2.18.84,5.26,5.26,0,0,1,.79,3.32l-2.69.21a2.2,2.2,0,0,0-.24-1.19,0.78,0.78,0,0,0-.77-0.32,2.45,2.45,0,0,0-1.48.58,5.22,5.22,0,0,0-1,1.13v4.9l5-.39c0,1,0,1.52,0,2.53-4.34.35-6.5,0.51-10.84,0.84v-2.53Z"/><path class="cls-4" d="M533.55,414.62a4.64,4.64,0,0,1-.77.61,8.27,8.27,0,0,1-1.1.59,9.33,9.33,0,0,1-3,.76,7.59,7.59,0,0,1-2.63-.19,4.6,4.6,0,0,1-3.2-2.85,6.81,6.81,0,0,1-.43-2.51,7,7,0,0,1,.48-2.7,6,6,0,0,1,1.32-2,6.19,6.19,0,0,1,2-1.3,8,8,0,0,1,2.44-.59,7.4,7.4,0,0,1,1.81.08,4.52,4.52,0,0,1,1.71.65,3.75,3.75,0,0,1,1.28,1.4,4.85,4.85,0,0,1,.5,2.35,11.26,11.26,0,0,1-.23,2.16l-8.28.71a2.51,2.51,0,0,0,.31,1.22,2.17,2.17,0,0,0,.76.76,3,3,0,0,0,1.08.38,5.32,5.32,0,0,0,1.3,0,7,7,0,0,0,2.27-.51,5.37,5.37,0,0,0,1.44-.91Zm-5-7.78a4,4,0,0,0-1.13.26,3.5,3.5,0,0,0-1,.56,3,3,0,0,0-.7.84,2.58,2.58,0,0,0-.32,1.08l5.66-.48A2.07,2.07,0,0,0,528.58,406.84Z"/><path class="cls-4" d="M547.62,413.46a7.39,7.39,0,0,1-2.21,1.28,10.15,10.15,0,0,1-2.64.6,7.24,7.24,0,0,1-2.66-.19,4.81,4.81,0,0,1-2-1.05,4.63,4.63,0,0,1-1.21-1.81,7.39,7.39,0,0,1,.07-5.07,6.15,6.15,0,0,1,1.35-2,6.56,6.56,0,0,1,2-1.37,8.3,8.3,0,0,1,2.55-.64,9.24,9.24,0,0,1,2.41.07,10.47,10.47,0,0,1,1.73.41v4l-2.53.24v-2.12a6.35,6.35,0,0,0-1.43,0,4.54,4.54,0,0,0-1.28.31,3.51,3.51,0,0,0-1.13.72,3.61,3.61,0,0,0-1.12,2.71,3.39,3.39,0,0,0,.25,1.33,2.78,2.78,0,0,0,1.85,1.64,4,4,0,0,0,1.51.13,5.69,5.69,0,0,0,2.15-.57,9.76,9.76,0,0,0,1.25-.76Z"/><path class="cls-4" d="M556.45,402.21l4.28-.43c0,3.2,0,4.8,0,8v1l1.75-.18c0,1,0,1.52,0,2.53l-3.63.37-0.53-1.65h-0.09a4.7,4.7,0,0,1-1.59,1.61,5.22,5.22,0,0,1-2.35.81,5.1,5.1,0,0,1-1.6-.07,2.55,2.55,0,0,1-1.23-.64,3.12,3.12,0,0,1-.78-1.35,7.5,7.5,0,0,1-.28-2.23c0-1.85,0-2.77,0-4.62l-1.31.13v-2.53l4.3-.41c0,2.61,0,3.92,0,6.53a3.31,3.31,0,0,0,.45,2,1.48,1.48,0,0,0,1.41.48,2.74,2.74,0,0,0,1.53-.66,3.12,3.12,0,0,0,1-1.34v-4.9l-1.29.13v-2.53Z"/><path class="cls-4" d="M563.55,410.46l2.85-.29v-6.44l-2.85.29v-2.53l5.17-.54,0.34,1.48h0.09a7.13,7.13,0,0,1,1.47-1.42,4,4,0,0,1,1.93-.71,2.35,2.35,0,0,1,2.17.78,5.17,5.17,0,0,1,.79,3.29l-2.69.29a2.17,2.17,0,0,0-.24-1.18,0.76,0.76,0,0,0-.77-0.3,2.51,2.51,0,0,0-1.48.62,5.43,5.43,0,0,0-1,1.16v4.9l5-.53c0,1,0,1.52,0,2.53-4.33.47-6.49,0.7-10.82,1.14v-2.53Z"/><path class="cls-4" d="M586.89,415.33a9.74,9.74,0,0,1-3.12-.66,7.79,7.79,0,0,1-2.69-1.74,8.4,8.4,0,0,1-1.87-2.92,11.36,11.36,0,0,1-.7-4.2,12.66,12.66,0,0,1,.7-4.34,11.54,11.54,0,0,1,1.87-3.37,11,11,0,0,1,2.69-2.4,12.81,12.81,0,0,1,3.12-1.44l0.55,2.4a10.8,10.8,0,0,0-1.82.87,7.85,7.85,0,0,0-1.94,1.62,9,9,0,0,0-1.55,2.58,9.9,9.9,0,0,0-.63,3.75,8,8,0,0,0,.67,3.49,6.74,6.74,0,0,0,1.62,2.2,6.12,6.12,0,0,0,2,1.18,7.16,7.16,0,0,0,1.7.41Z"/><path class="cls-4" d="M592.65,407.25l3.51-.42c0-4,0-6,0-10.05l-3,2.68-1.38-1.68,5.23-4.62,2-.24c0,5.43,0,8.14,0,13.57l3.44-.42v2.53c-3.92.48-5.88,0.72-9.8,1.18v-2.53Z"/><path class="cls-4" d="M606.42,405.58l3.51-.44c0-4,0-6,0-10.05l-3,2.7-1.38-1.67,5.23-4.66,2-.26c0,5.43,0,8.14,0,13.57l3.44-.44v2.53c-3.92.51-5.87,0.76-9.79,1.25v-2.53Z"/><path class="cls-4" d="M622.74,404.53a1.81,1.81,0,0,1,.52-1.31,2.15,2.15,0,0,1,1.3-.63,2,2,0,0,1,1.9.57,2.89,2.89,0,0,1,.64,2,4.73,4.73,0,0,1-.4,1.94,6,6,0,0,1-1,1.61,6.83,6.83,0,0,1-1.43,1.21,6.65,6.65,0,0,1-1.57.74L622,409.43a7.63,7.63,0,0,0,1.11-.54,5.42,5.42,0,0,0,1-.77,4.34,4.34,0,0,0,.77-1,2.74,2.74,0,0,0,.36-1.15,3,3,0,0,1-1.17.19,1.54,1.54,0,0,1-.79-0.26,1.25,1.25,0,0,1-.45-0.58A2.21,2.21,0,0,1,622.74,404.53Z"/><path class="cls-4" d="M633.93,402l3.5-.49c0-4,0-6,0-10.05l-3,2.75L633,392.51l5.22-4.73,2-.29c0,5.43,0,8.14,0,13.57l3.43-.49c0,1,0,1.52,0,2.53l-9.78,1.39C633.93,403.47,633.93,403,633.93,402Z"/><path class="cls-4" d="M646.11,394.67a14.54,14.54,0,0,1,.44-3.73,8.93,8.93,0,0,1,1.23-2.79,6.33,6.33,0,0,1,1.9-1.83,6.43,6.43,0,0,1,2.46-.88,4.61,4.61,0,0,1,4.46,1.37q1.56,1.8,1.56,6.08a14.65,14.65,0,0,1-.44,3.76,9.13,9.13,0,0,1-1.23,2.81,6.26,6.26,0,0,1-1.91,1.85,6.49,6.49,0,0,1-2.47.89,4.45,4.45,0,0,1-4.46-1.49Q646.11,398.77,646.11,394.67Zm3-.44c0,0.23,0,.45,0,0.65s0,0.42,0,.63l5.54-6A2.16,2.16,0,0,0,652.1,388a3,3,0,0,0-2.24,1.75A10.22,10.22,0,0,0,649.08,394.24Zm6.09-.91q0-.37,0-0.7c0-.22,0-0.44,0-0.65l-5.56,6a2.2,2.2,0,0,0,2.57,1.71,3,3,0,0,0,2.25-1.74A10.25,10.25,0,0,0,655.17,393.33Z"/><path class="cls-4" d="M661.71,402.78a9.23,9.23,0,0,0,1.69-.87,8.93,8.93,0,0,0,2-1.71,9.74,9.74,0,0,0,1.61-2.63,9.3,9.3,0,0,0,.66-3.67,8.67,8.67,0,0,0-.63-3.58,6.23,6.23,0,0,0-1.54-2.16,5.4,5.4,0,0,0-1.93-1.1,8.45,8.45,0,0,0-1.82-.38l0.55-2.55a10.08,10.08,0,0,1,3.11.6,7.47,7.47,0,0,1,2.67,1.68,8.13,8.13,0,0,1,1.86,2.87,11.17,11.17,0,0,1,.7,4.16,13,13,0,0,1-.7,4.39,11.93,11.93,0,0,1-1.86,3.42,11.42,11.42,0,0,1-2.67,2.47,12.34,12.34,0,0,1-3.11,1.49Z"/><path class="cls-4" d="M53,345.49l2.83,0.45c0-2.58,0-3.86,0-6.44L53,339.05c0-1,0-1.52,0-2.53l5.14,0.81,0.34,1.57h0.09a4.86,4.86,0,0,1,1.46-1,3.32,3.32,0,0,1,1.92-.21A3.11,3.11,0,0,1,64.08,339a6.19,6.19,0,0,1,.79,3.5l-2.68-.41a2.55,2.55,0,0,0-.24-1.24,1,1,0,0,0-.77-0.5,2,2,0,0,0-1.47.23,3.67,3.67,0,0,0-.95.91c0,2,0,2.94,0,4.9l5,0.76c0,1,0,1.52,0,2.53-4.31-.66-6.46-1-10.77-1.68C53,347,53,346.5,53,345.49Z"/><path class="cls-4" d="M78,350.6a3.35,3.35,0,0,1-.77.43,6.43,6.43,0,0,1-1.1.33,7.81,7.81,0,0,1-1.39.16,8.75,8.75,0,0,1-1.6-.1,8.51,8.51,0,0,1-2.62-.8A6.36,6.36,0,0,1,67.35,347a7.65,7.65,0,0,1-.42-2.6,6.26,6.26,0,0,1,.48-2.58,4.3,4.3,0,0,1,1.32-1.7,4.6,4.6,0,0,1,2-.85,7.28,7.28,0,0,1,2.43,0,8.17,8.17,0,0,1,1.8.5,5.88,5.88,0,0,1,1.7,1,5.23,5.23,0,0,1,1.27,1.69,5.61,5.61,0,0,1,.49,2.46,10.51,10.51,0,0,1-.23,2.11l-8.24-1.21a2.94,2.94,0,0,0,.31,1.29,3,3,0,0,0,.75.94,3.9,3.9,0,0,0,1.08.63,5.77,5.77,0,0,0,1.29.34,6.43,6.43,0,0,0,2.25,0,4,4,0,0,0,1.43-.57Zm-4.94-8.94a3.63,3.63,0,0,0-1.12,0,2.66,2.66,0,0,0-1,.34,2.11,2.11,0,0,0-.7.68,2.16,2.16,0,0,0-.32,1l5.63,0.83a2.89,2.89,0,0,0-.63-1.91A2.93,2.93,0,0,0,73.06,341.67Z"/><path class="cls-4" d="M92,352.7a5.67,5.67,0,0,1-2.2.76,9.32,9.32,0,0,1-2.63,0,8.17,8.17,0,0,1-2.65-.81,6.57,6.57,0,0,1-1.95-1.51,6.3,6.3,0,0,1-1.2-2.09A7.7,7.7,0,0,1,81,346.5a6,6,0,0,1,.48-2.51,4.43,4.43,0,0,1,1.34-1.72,4.87,4.87,0,0,1,2-.9,7.52,7.52,0,0,1,2.54,0,10.13,10.13,0,0,1,2.4.63,12.92,12.92,0,0,1,1.72.81c0,1.62,0,2.43,0,4L89,346.49v-2.12a6.92,6.92,0,0,0-1.42-.36,4.15,4.15,0,0,0-1.27,0,2.58,2.58,0,0,0-1.92,1.42,3.25,3.25,0,0,0-.31,1.5,3.85,3.85,0,0,0,.25,1.39,3.91,3.91,0,0,0,.71,1.18,4,4,0,0,0,1.13.88,4.49,4.49,0,0,0,1.5.48,5.09,5.09,0,0,0,2.14-.07,7.37,7.37,0,0,0,1.25-.47Z"/><path class="cls-4" d="M100.82,343.5l4.26,0.56c0,3.2,0,4.8,0,8v1l1.74,0.23c0,1,0,1.52,0,2.53l-3.62-.48-0.53-1.77h-0.09a3.35,3.35,0,0,1-1.58,1.24,4.47,4.47,0,0,1-2.34.26,5.65,5.65,0,0,1-1.59-.45,3.44,3.44,0,0,1-1.23-.93,4.16,4.16,0,0,1-.78-1.53,8.22,8.22,0,0,1-.27-2.29c0-1.85,0-2.77,0-4.62L93.49,345c0-1,0-1.52,0-2.53l4.28,0.58c0,2.61,0,3.92,0,6.53a3.86,3.86,0,0,0,.45,2.08,1.88,1.88,0,0,0,1.41.81,2.3,2.3,0,0,0,2.47-1.42c0-2,0-2.94,0-4.9l-1.28-.17C100.82,345,100.82,344.51,100.82,343.5Z"/><path class="cls-4" d="M107.9,353.4l2.84,0.37c0-2.58,0-3.86,0-6.44L107.9,347c0-1,0-1.52,0-2.53l5.16,0.66,0.34,1.56h0.09a5.07,5.07,0,0,1,1.47-1.08,3.37,3.37,0,0,1,1.93-.26,3,3,0,0,1,2.17,1.28,6.06,6.06,0,0,1,.79,3.48l-2.68-.33a2.5,2.5,0,0,0-.24-1.24,1,1,0,0,0-.77-0.48,2.08,2.08,0,0,0-1.48.27,3.84,3.84,0,0,0-1,.94c0,2,0,2.94,0,4.9l5,0.62c0,1,0,1.52,0,2.53-4.32-.54-6.48-0.81-10.8-1.37C107.9,354.92,107.9,354.42,107.9,353.4Z"/><path class="cls-4" d="M131.21,363.69a11.92,11.92,0,0,1-3.12-1.38,10.84,10.84,0,0,1-2.68-2.37,11.37,11.37,0,0,1-1.87-3.35,12.71,12.71,0,0,1-.7-4.36,11.32,11.32,0,0,1,.7-4.18,8.52,8.52,0,0,1,1.87-2.94,7.87,7.87,0,0,1,2.68-1.77,10.36,10.36,0,0,1,3.12-.71l0.55,2.53a8.71,8.71,0,0,0-1.83.44,5.68,5.68,0,0,0-1.94,1.17,6.55,6.55,0,0,0-1.55,2.22,8.8,8.8,0,0,0-.63,3.6,9.09,9.09,0,0,0,.66,3.64,9.28,9.28,0,0,0,1.62,2.57,8.47,8.47,0,0,0,2,1.64,8.85,8.85,0,0,0,1.7.81Z"/><path class="cls-4" d="M137,357l3.51,0.4c0-4,0-6,0-10.05l-3,2-1.38-2,5.24-3.41,2,0.23c0,5.43,0,8.14,0,13.57l3.44,0.38v2.53c-3.92-.43-5.88-0.65-9.8-1.1C137,358.47,137,358,137,357Z"/><path class="cls-4" d="M150.75,358.49l3.52,0.37c0-4,0-6,0-10.05l-3,2-1.38-2,5.24-3.44,2,0.21c0,5.43,0,8.14,0,13.57l3.45,0.36c0,1,0,1.52,0,2.53l-9.81-1C150.75,360,150.75,359.5,150.75,358.49Z"/><path class="cls-4" d="M167.11,361.23a1.43,1.43,0,0,1,.52-1.19,1.74,1.74,0,0,1,1.3-.33,2.53,2.53,0,0,1,1.91,1,3.51,3.51,0,0,1,.64,2.11,4.12,4.12,0,0,1-.4,1.85,4.34,4.34,0,0,1-1,1.37,5,5,0,0,1-1.44.87,5.41,5.41,0,0,1-1.57.37L166.4,366a6.13,6.13,0,0,0,1.12-.28,4,4,0,0,0,1-.53,3.06,3.06,0,0,0,.77-0.81,2.24,2.24,0,0,0,.36-1.07,2.94,2.94,0,0,1-1.17-.08,2,2,0,0,1-.79-0.45,1.73,1.73,0,0,1-.45-0.69A2.49,2.49,0,0,1,167.11,361.23Z"/><path class="cls-4" d="M178.33,361.26l3.52,0.33c0-4,0-6,0-10.05l-3,2-1.38-2,5.24-3.52,2,0.18c0,5.43,0,8.14,0,13.57l3.45,0.31c0,1,0,1.52,0,2.53l-9.82-.89C178.33,362.77,178.33,362.27,178.33,361.26Z"/><path class="cls-4" d="M190.57,356.82a13.33,13.33,0,0,1,.44-3.63,6.82,6.82,0,0,1,1.24-2.5,4.54,4.54,0,0,1,1.9-1.39,5.56,5.56,0,0,1,2.47-.31,5.85,5.85,0,0,1,4.48,2.41q1.57,2.16,1.57,6.44a13.45,13.45,0,0,1-.44,3.66A7,7,0,0,1,201,364a4.49,4.49,0,0,1-1.92,1.41,5.61,5.61,0,0,1-2.48.31,5.7,5.7,0,0,1-4.48-2.53A11.28,11.28,0,0,1,190.57,356.82Zm3,0.26q0,0.35,0,.66c0,0.21,0,.42,0,0.64l5.57-4.66a2.86,2.86,0,0,0-2.58-2.19,2.23,2.23,0,0,0-2.25,1.22A9,9,0,0,0,193.56,357.08Zm6.12,0.51q0-.37,0-0.7c0-.22,0-0.44,0-0.66L194,360.89a2.92,2.92,0,0,0,2.58,2.31,2.26,2.26,0,0,0,2.26-1.21A9,9,0,0,0,199.68,357.59Z"/><path class="cls-4" d="M206.26,368.56a7.38,7.38,0,0,0,1.7-.48,6.47,6.47,0,0,0,2-1.25,7.08,7.08,0,0,0,1.62-2.26,8.15,8.15,0,0,0,.67-3.51,9.71,9.71,0,0,0-.63-3.73,8.57,8.57,0,0,0-1.55-2.52,7.48,7.48,0,0,0-1.95-1.55,10.4,10.4,0,0,0-1.83-.8l0.55-2.42a12.37,12.37,0,0,1,3.13,1.33,10.43,10.43,0,0,1,2.69,2.3,11,11,0,0,1,1.88,3.3,12.43,12.43,0,0,1,.7,4.32,11.54,11.54,0,0,1-.7,4.23,8.82,8.82,0,0,1-1.88,3,8.19,8.19,0,0,1-2.69,1.84,10,10,0,0,1-3.13.77Z"/><path class="cls-4" d="M357.28,372.33c0-1,0-1.52,0-2.53H360c0-2.58,0-3.86,0-6.44h-2.74v-2.53H360V360.2a4.22,4.22,0,0,1,.38-1.86,3.74,3.74,0,0,1,1-1.29,4.11,4.11,0,0,1,1.44-.75,6,6,0,0,1,1.7-.24,10.83,10.83,0,0,1,2.62.26,6.71,6.71,0,0,1,1.7.65L368,359.24a10.37,10.37,0,0,0-1.14-.46,5,5,0,0,0-1.58-.2,2.24,2.24,0,0,0-1.74.57,2.5,2.5,0,0,0-.5,1.69h4.85v2.53H363c0,2.58,0,3.86,0,6.44h4.87c0,1,0,1.52,0,2.53C363.63,372.34,361.51,372.34,357.28,372.33Z"/><path class="cls-4" d="M371.56,361.6a12.69,12.69,0,0,1,2.13-.72,12.21,12.21,0,0,1,2.87-.32,6.37,6.37,0,0,1,2,.27,3.37,3.37,0,0,1,1.36.8,3.06,3.06,0,0,1,.75,1.26,5.51,5.51,0,0,1,.23,1.65q0,1.17-.08,2T380.79,368a9.85,9.85,0,0,0,0,1.08c0,0.21.05,0.42,0.07,0.62l1.5,0v2.53l-3.87,0-0.3-1.56h-0.11a4,4,0,0,1-1.31,1.24,4.39,4.39,0,0,1-2.29.53,3.87,3.87,0,0,1-2.73-.9,3.13,3.13,0,0,1-1-2.43,3.66,3.66,0,0,1,.35-1.67,3,3,0,0,1,1-1.15,4.93,4.93,0,0,1,1.63-.68,9.56,9.56,0,0,1,2.12-.23c0.27,0,.57,0,0.87,0l1.12,0.08a2.37,2.37,0,0,0,0-.46v-0.44a1.46,1.46,0,0,0-.5-1.25A2.44,2.44,0,0,0,376,363a7,7,0,0,0-2.11.31,13.58,13.58,0,0,0-1.58.61Zm3.93,8.42a2.77,2.77,0,0,0,1.64-.41,2.74,2.74,0,0,0,.8-0.87v-1.38l-0.68-.1a7.86,7.86,0,0,0-1-.05,4.76,4.76,0,0,0-.87.09,2.9,2.9,0,0,0-.78.26,1.52,1.52,0,0,0-.55.45,1.09,1.09,0,0,0-.2.67,1.3,1.3,0,0,0,.38,1A1.76,1.76,0,0,0,375.48,370Z"/><path class="cls-4" d="M395.92,370.94a6.75,6.75,0,0,1-2.21,1.11,9.8,9.8,0,0,1-2.65.4,7.48,7.48,0,0,1-2.66-.4,5.32,5.32,0,0,1-2-1.21,5.12,5.12,0,0,1-1.21-1.91,7.1,7.1,0,0,1-.42-2.48,6.51,6.51,0,0,1,.48-2.58,5.52,5.52,0,0,1,1.35-1.93,5.93,5.93,0,0,1,2-1.21,8,8,0,0,1,2.56-.44,9.45,9.45,0,0,1,2.42.26,11.21,11.21,0,0,1,1.73.55c0,1.62,0,2.43,0,4l-2.54,0v-2.12a6.49,6.49,0,0,0-1.43-.14,4.37,4.37,0,0,0-1.28.21,3.19,3.19,0,0,0-1.13.64,3.32,3.32,0,0,0-.81,1.08,3.87,3.87,0,0,0-.06,2.9,3.1,3.1,0,0,0,1.86,1.78,4.09,4.09,0,0,0,1.51.24,5.44,5.44,0,0,0,2.16-.4,8.88,8.88,0,0,0,1.26-.66Z"/><path class="cls-4" d="M399.84,363l-2.28,0c0-1,0-1.52,0-2.53l2.28,0c0-1,0-1.57,0-2.62l3-.91c0,1.39,0,2.08,0,3.47l6-.13v2.53l-6,.13c0,1.32,0,2,0,3.29a3.9,3.9,0,0,0,.67,2.55,2.26,2.26,0,0,0,1.87.75,4,4,0,0,0,1.13-.17,4.38,4.38,0,0,0,.91-0.4,5.39,5.39,0,0,0,.74-0.52l0.61-.52,1.38,2a4.59,4.59,0,0,1-1,.86,8.6,8.6,0,0,1-1.27.7,8.2,8.2,0,0,1-1.42.48,6.83,6.83,0,0,1-1.45.19,4.88,4.88,0,0,1-3.89-1.36,6.56,6.56,0,0,1-1.3-4.54V363Z"/><path class="cls-4" d="M411.81,366a7.15,7.15,0,0,1,.44-2.59,5.39,5.39,0,0,1,3.17-3.18,7.51,7.51,0,0,1,2.5-.47,7.15,7.15,0,0,1,2.59.36,5.15,5.15,0,0,1,1.93,1.17,5,5,0,0,1,1.19,1.88,7.82,7.82,0,0,1,0,5.06,5.4,5.4,0,0,1-3.17,3.19,7.44,7.44,0,0,1-2.5.47,7.11,7.11,0,0,1-2.6-.37,5.16,5.16,0,0,1-1.93-1.18,5,5,0,0,1-1.19-1.89A7.24,7.24,0,0,1,411.81,366Zm3.09-.08a4.5,4.5,0,0,0,.21,1.4,3.32,3.32,0,0,0,.6,1.11,2.59,2.59,0,0,0,.95.72,2.85,2.85,0,0,0,1.27.23,3,3,0,0,0,2.18-.91,3.8,3.8,0,0,0,.84-2.72,3.88,3.88,0,0,0-.78-2.54,2.63,2.63,0,0,0-2.24-.91,3.65,3.65,0,0,0-1.2.23,2.46,2.46,0,0,0-1,.66,3.21,3.21,0,0,0-.63,1.12A5,5,0,0,0,414.9,365.88Z"/><path class="cls-4" d="M425.74,368.78l2.86-.09c0-2.58,0-3.86,0-6.44l-2.86.09c0-1,0-1.52,0-2.53l5.19-.17,0.35,1.51h0.09a6.44,6.44,0,0,1,1.48-1.32,3.76,3.76,0,0,1,1.94-.58,2.52,2.52,0,0,1,2.18.93,5.41,5.41,0,0,1,.79,3.35l-2.7.1a2.26,2.26,0,0,0-.24-1.2,0.82,0.82,0,0,0-.77-0.35,2.36,2.36,0,0,0-1.49.51,4.91,4.91,0,0,0-1,1.09v4.9l5-.18v2.53c-4.34.16-6.52,0.24-10.86,0.38C425.74,370.3,425.74,369.79,425.74,368.78Z"/><path class="cls-4" d="M440,368.27l4.06-.16v-6.44l-4.06.16c0-1,0-1.52,0-2.53l7.05-.29c0,3.59,0,5.38,0,9l4.27-.19v2.53c-4.53.21-6.79,0.3-11.32,0.48C440,369.78,440,369.28,440,368.27Zm3.5-12.24a1.69,1.69,0,0,1,.53-1.24,2.13,2.13,0,0,1,1.48-.57,2.18,2.18,0,0,1,1.54.44,1.49,1.49,0,0,1,.58,1.19,1.56,1.56,0,0,1-.58,1.23,2.45,2.45,0,0,1-1.54.54,2.07,2.07,0,0,1-1.48-.41A1.48,1.48,0,0,1,443.54,356Z"/><path class="cls-4" d="M454.59,359.45a13.17,13.17,0,0,1,2.13-.81,12.4,12.4,0,0,1,2.87-.44,6.27,6.27,0,0,1,2,.19,3.19,3.19,0,0,1,1.36.75,2.9,2.9,0,0,1,.75,1.23A5.42,5.42,0,0,1,464,362q0,1.17-.08,2t-0.08,1.48a9.79,9.79,0,0,0,0,1.08c0,0.21.05,0.42,0.07,0.62l1.5-.08c0,1,0,1.52,0,2.53l-3.87.2-0.3-1.55h-0.11a4.27,4.27,0,0,1-1.31,1.3,4.52,4.52,0,0,1-2.29.63,3.73,3.73,0,0,1-2.73-.79,3,3,0,0,1-1-2.39,3.76,3.76,0,0,1,.35-1.68,3.18,3.18,0,0,1,1-1.2,5.16,5.16,0,0,1,1.63-.74,9.7,9.7,0,0,1,2.12-.32c0.27,0,.56,0,0.87,0l1.12,0a2.4,2.4,0,0,0,0-.46v-0.44a1.4,1.4,0,0,0-.5-1.23,2.37,2.37,0,0,0-1.49-.31,7.11,7.11,0,0,0-2.11.4,14.21,14.21,0,0,0-1.58.67Zm3.92,8.25a2.86,2.86,0,0,0,1.64-.48,2.91,2.91,0,0,0,.8-0.9v-1.38l-0.68-.07a7.9,7.9,0,0,0-1,0,4.83,4.83,0,0,0-.87.12,3,3,0,0,0-.78.29,1.62,1.62,0,0,0-.55.47,1.13,1.13,0,0,0-.2.68,1.25,1.25,0,0,0,.38,1A1.71,1.71,0,0,0,458.51,367.7Z"/><path class="cls-4" d="M468.35,353.37l4.91-.27c0,4.25,0,6.38,0,10.63a4.78,4.78,0,0,0,.44,2.44,1.45,1.45,0,0,0,1.41.61,4,4,0,0,0,1.17-.22,4.77,4.77,0,0,0,.92-0.48l1.13,2q-0.39.28-.78,0.52a5.42,5.42,0,0,1-.83.42,5.89,5.89,0,0,1-1,.28,7.72,7.72,0,0,1-1.16.15,4.15,4.15,0,0,1-3.25-.92,4.07,4.07,0,0,1-1.08-3.07c0-3.86,0-5.8,0-9.66l-1.91.1C468.35,354.89,468.35,354.39,468.35,353.37Z"/><path class="cls-4" d="M482,371.38c4.09-.25,6.14-0.38,10.23-0.65v2.46c-4.09.27-6.14,0.4-10.23,0.65C482,372.86,482,372.37,482,371.38Z"/><path class="cls-4" d="M494,351.82l4.65-.32c0,2.35,0,3.53,0,5.89h0.09a4.3,4.3,0,0,1,1.47-1.28,5.75,5.75,0,0,1,3.78-.48,2.79,2.79,0,0,1,1.27.67,3.25,3.25,0,0,1,.83,1.38,7,7,0,0,1,.3,2.22c0,2.86,0,4.29,0,7.15l-3,.22c0-2.61,0-3.92,0-6.53a2.69,2.69,0,0,0-.6-2,2,2,0,0,0-1.57-.51,2.78,2.78,0,0,0-1.57.63,3.09,3.09,0,0,0-1,1.39c0,2.93,0,4.4,0,7.34l-3,.21c0-5.43,0-8.14,0-13.57l-1.66.11C494,353.34,494,352.83,494,351.82Z"/><path class="cls-4" d="M520.1,364.78a4.58,4.58,0,0,1-.77.6,8.17,8.17,0,0,1-1.11.58,9.29,9.29,0,0,1-3,.74,7.6,7.6,0,0,1-2.64-.21,4.64,4.64,0,0,1-3.2-2.87,6.84,6.84,0,0,1-.43-2.51,7,7,0,0,1,.48-2.69,5.9,5.9,0,0,1,1.32-2,6.13,6.13,0,0,1,2-1.29,8,8,0,0,1,2.44-.57,7.42,7.42,0,0,1,1.81.09,4.55,4.55,0,0,1,1.72.66,3.79,3.79,0,0,1,1.28,1.4,4.87,4.87,0,0,1,.5,2.35,11.23,11.23,0,0,1-.23,2.16l-8.29.65a2.52,2.52,0,0,0,.31,1.22,2.2,2.2,0,0,0,.76.77,3,3,0,0,0,1.08.39,5.3,5.3,0,0,0,1.3,0,7,7,0,0,0,2.27-.5,5.31,5.31,0,0,0,1.44-.9Zm-5-7.82a4,4,0,0,0-1.13.25,3.47,3.47,0,0,0-1,.55,2.93,2.93,0,0,0-.7.84,2.56,2.56,0,0,0-.32,1.08l5.66-.44A2.09,2.09,0,0,0,515.13,357Z"/><path class="cls-4" d="M523.62,349.61l4.9-.41c0,4.25,0,6.38,0,10.63a4.71,4.71,0,0,0,.44,2.42,1.41,1.41,0,0,0,1.4.57,4,4,0,0,0,1.17-.25,4.93,4.93,0,0,0,.92-0.51l1.13,2q-0.39.29-.78,0.54a5.59,5.59,0,0,1-.83.44,6,6,0,0,1-1,.31,7.77,7.77,0,0,1-1.16.18,4.06,4.06,0,0,1-3.24-.83,4,4,0,0,1-1.08-3c0-3.86,0-5.8,0-9.66l-1.91.16v-2.53Z"/><path class="cls-4" d="M535.42,353.21l3.91-.35,0.34,1.35h0.09a4.86,4.86,0,0,1,3.86-2.06,5.29,5.29,0,0,1,1.94.15,3.35,3.35,0,0,1,1.52.9,4.38,4.38,0,0,1,1,1.7,8.29,8.29,0,0,1,.34,2.57,8.79,8.79,0,0,1-.39,2.69,6.34,6.34,0,0,1-1.13,2.12,5.5,5.5,0,0,1-1.79,1.43,6.65,6.65,0,0,1-2.41.66,9.41,9.41,0,0,1-1.4,0,3.63,3.63,0,0,1-1.15-.23v4.71l-3,.27c0-5.43,0-8.14,0-13.57l-1.72.15v-2.53Zm7.31,1.55a3.28,3.28,0,0,0-1.6.58,2.57,2.57,0,0,0-1,1.4c0,1.91,0,2.87,0,4.78a2.24,2.24,0,0,0,.93.32,5,5,0,0,0,1.23,0,3.39,3.39,0,0,0,1.2-.33,2.79,2.79,0,0,0,1-.79,3.81,3.81,0,0,0,.64-1.28,6.21,6.21,0,0,0,.23-1.79,3.15,3.15,0,0,0-.74-2.28A2.18,2.18,0,0,0,542.74,354.76Z"/><path class="cls-4" d="M561.5,361a4.72,4.72,0,0,1-.77.62,8.38,8.38,0,0,1-1.1.61,9.41,9.41,0,0,1-3,.81,7.55,7.55,0,0,1-2.63-.16,4.51,4.51,0,0,1-3.2-2.81,6.77,6.77,0,0,1-.42-2.5,7.11,7.11,0,0,1,.48-2.7,6.07,6.07,0,0,1,1.32-2,6.3,6.3,0,0,1,2-1.33,8.07,8.07,0,0,1,2.44-.62,7.37,7.37,0,0,1,1.8.05,4.45,4.45,0,0,1,1.71.62,3.67,3.67,0,0,1,1.28,1.38,4.82,4.82,0,0,1,.49,2.34,11.31,11.31,0,0,1-.23,2.16l-8.28.82a2.49,2.49,0,0,0,.31,1.21,2.13,2.13,0,0,0,.76.75,3,3,0,0,0,1.08.37,5.27,5.27,0,0,0,1.3,0,7.09,7.09,0,0,0,2.26-.55,5.46,5.46,0,0,0,1.44-.93Zm-5-7.71a4,4,0,0,0-1.13.28,3.56,3.56,0,0,0-1,.57,3,3,0,0,0-.7.85,2.61,2.61,0,0,0-.32,1.09l5.66-.56A2,2,0,0,0,556.53,353.3Z"/><path class="cls-4" d="M563.91,359.46l2.85-.29v-6.44l-2.85.29v-2.53l5.17-.54,0.34,1.48h0.09A7.13,7.13,0,0,1,571,350a4,4,0,0,1,1.93-.71,2.35,2.35,0,0,1,2.17.78,5.17,5.17,0,0,1,.79,3.29l-2.69.29a2.17,2.17,0,0,0-.24-1.18,0.76,0.76,0,0,0-.77-0.3,2.51,2.51,0,0,0-1.48.62,5.44,5.44,0,0,0-1,1.16v4.9l5-.53v2.53c-4.33.47-6.49,0.7-10.82,1.14v-2.53Z"/><path class="cls-4" d="M587.25,364.33a9.74,9.74,0,0,1-3.12-.66,7.79,7.79,0,0,1-2.69-1.74,8.4,8.4,0,0,1-1.87-2.92,11.36,11.36,0,0,1-.7-4.2,12.66,12.66,0,0,1,.7-4.34,11.54,11.54,0,0,1,1.87-3.37,11,11,0,0,1,2.69-2.4,12.81,12.81,0,0,1,3.12-1.44l0.55,2.4a10.83,10.83,0,0,0-1.82.87,7.85,7.85,0,0,0-1.94,1.62,9,9,0,0,0-1.55,2.58,9.9,9.9,0,0,0-.63,3.75,8,8,0,0,0,.67,3.49,6.73,6.73,0,0,0,1.62,2.2,6.12,6.12,0,0,0,2,1.18,7.14,7.14,0,0,0,1.7.41Z"/><path class="cls-4" d="M591.82,347.86a6.05,6.05,0,0,1,.4-2.21,5.71,5.71,0,0,1,1.12-1.82,6.16,6.16,0,0,1,1.74-1.31,6.73,6.73,0,0,1,2.28-.68,6.46,6.46,0,0,1,2.34.11,4.18,4.18,0,0,1,1.81.94,4.42,4.42,0,0,1,1.17,1.76,7.2,7.2,0,0,1,.41,2.56,14.5,14.5,0,0,1-.69,4.68,11.11,11.11,0,0,1-1.85,3.45,9.5,9.5,0,0,1-2.7,2.3,11.79,11.79,0,0,1-3.21,1.26L594,356.64a8.84,8.84,0,0,0,2.28-.89,8.13,8.13,0,0,0,1.78-1.35,7.07,7.07,0,0,0,1.24-1.69,5.83,5.83,0,0,0,.62-1.93,4.06,4.06,0,0,1-1.24.92,5.51,5.51,0,0,1-1.81.5h0a5.34,5.34,0,0,1-1.77-.09,4.15,4.15,0,0,1-1.62-.73,4.07,4.07,0,0,1-1.18-1.41A4.53,4.53,0,0,1,591.82,347.86Zm2.89-.5a2.38,2.38,0,0,0,.24,1.11,2.12,2.12,0,0,0,.63.75,2.33,2.33,0,0,0,.91.4,3.24,3.24,0,0,0,1.07,0,4.42,4.42,0,0,0,1.63-.5,2.85,2.85,0,0,0,1-.86,6.71,6.71,0,0,0,.07-0.93,4.24,4.24,0,0,0-.18-1.24,3,3,0,0,0-.55-1,2.29,2.29,0,0,0-.92-0.66,2.54,2.54,0,0,0-1.26-.14A2.94,2.94,0,0,0,594.71,347.36Z"/><path class="cls-4" d="M605.58,346.2A6.08,6.08,0,0,1,606,344a5.76,5.76,0,0,1,1.12-1.83,6.23,6.23,0,0,1,1.74-1.32,6.76,6.76,0,0,1,2.28-.69,6.45,6.45,0,0,1,2.34.09,4.15,4.15,0,0,1,1.81.93,4.38,4.38,0,0,1,1.17,1.76,7.18,7.18,0,0,1,.41,2.56,14.55,14.55,0,0,1-.69,4.69,11.21,11.21,0,0,1-1.85,3.46,9.6,9.6,0,0,1-2.69,2.32,11.87,11.87,0,0,1-3.21,1.28L607.78,355a8.89,8.89,0,0,0,2.28-.91,8.21,8.21,0,0,0,1.78-1.36,7.14,7.14,0,0,0,1.24-1.7,5.86,5.86,0,0,0,.62-1.93,4.1,4.1,0,0,1-1.24.93,5.52,5.52,0,0,1-1.81.52h0a5.33,5.33,0,0,1-1.77-.08,4.11,4.11,0,0,1-1.62-.72,4,4,0,0,1-1.18-1.41A4.51,4.51,0,0,1,605.58,346.2Zm2.89-.52a2.37,2.37,0,0,0,.24,1.11,2.1,2.1,0,0,0,.63.75,2.31,2.31,0,0,0,.91.39,3.22,3.22,0,0,0,1.07,0,4.43,4.43,0,0,0,1.63-.51,2.88,2.88,0,0,0,1-.87,6.72,6.72,0,0,0,.07-0.93,4.23,4.23,0,0,0-.18-1.24,2.93,2.93,0,0,0-.55-1,2.27,2.27,0,0,0-.92-0.65,2.53,2.53,0,0,0-1.26-.13A3,3,0,0,0,608.47,345.67Z"/><path class="cls-4" d="M619,347.47a14.45,14.45,0,0,1,.44-3.73,8.79,8.79,0,0,1,1.23-2.77,6.2,6.2,0,0,1,1.9-1.8,6.36,6.36,0,0,1,2.46-.85,4.67,4.67,0,0,1,4.46,1.43q1.56,1.82,1.56,6.1a14.55,14.55,0,0,1-.44,3.75,9,9,0,0,1-1.23,2.79,6.14,6.14,0,0,1-1.91,1.82,6.42,6.42,0,0,1-2.47.85,4.52,4.52,0,0,1-4.46-1.56Q619,351.57,619,347.47Zm3-.39c0,0.23,0,.45,0,0.65s0,0.42,0,.63l5.55-5.87a2.19,2.19,0,0,0-2.57-1.63,2.9,2.9,0,0,0-2.24,1.71A10.13,10.13,0,0,0,622,347.08Zm6.1-.82c0-.25,0-0.48,0-0.7s0-.44,0-0.65l-5.57,5.88a2.23,2.23,0,0,0,2.57,1.75,2.93,2.93,0,0,0,2.25-1.71A10.16,10.16,0,0,0,628.05,346.26Z"/><path class="cls-4" d="M636.85,351.65a1.82,1.82,0,0,1,.52-1.31,2.17,2.17,0,0,1,1.29-.64,2,2,0,0,1,1.9.56,2.88,2.88,0,0,1,.64,2,4.76,4.76,0,0,1-.4,1.94,6.06,6.06,0,0,1-1,1.62,6.9,6.9,0,0,1-1.43,1.22,6.71,6.71,0,0,1-1.57.75l-0.62-1.18a7.72,7.72,0,0,0,1.11-.55,5.47,5.47,0,0,0,1-.78,4.38,4.38,0,0,0,.77-1,2.76,2.76,0,0,0,.35-1.15,3,3,0,0,1-1.17.2,1.53,1.53,0,0,1-.79-0.26,1.24,1.24,0,0,1-.45-0.58A2.2,2.2,0,0,1,636.85,351.65Z"/><path class="cls-4" d="M647,347.74a4.28,4.28,0,0,1,.26-1.51,5.5,5.5,0,0,1,.69-1.3,7.21,7.21,0,0,1,1-1.1,11.49,11.49,0,0,1,1.12-.91,5.69,5.69,0,0,1-1.9-1.3,3,3,0,0,1-.76-2.18,4.08,4.08,0,0,1,.39-1.74,5.07,5.07,0,0,1,1.09-1.52,6.28,6.28,0,0,1,1.66-1.14,7.2,7.2,0,0,1,2.08-.63,6.41,6.41,0,0,1,1.93,0,4.48,4.48,0,0,1,1.59.54,3,3,0,0,1,1.08,1.07,3,3,0,0,1,.39,1.54,4.58,4.58,0,0,1-.7,2.47,7.66,7.66,0,0,1-1.91,2,5.74,5.74,0,0,1,2.18,1.35,3.27,3.27,0,0,1,.81,2.36,4.34,4.34,0,0,1-.45,1.94,5.6,5.6,0,0,1-1.2,1.62,6.84,6.84,0,0,1-1.77,1.2,7.57,7.57,0,0,1-2.16.66,6.79,6.79,0,0,1-2.13,0,4.82,4.82,0,0,1-1.72-.61,3.21,3.21,0,0,1-1.14-1.17A3.35,3.35,0,0,1,647,347.74Zm8.15-1.6a1.46,1.46,0,0,0-.3-0.94,2.61,2.61,0,0,0-.74-0.62,5.71,5.71,0,0,0-1-.44q-0.54-.18-1-0.39a5.52,5.52,0,0,0-1.76,1.56,2.89,2.89,0,0,0-.62,1.6,1.62,1.62,0,0,0,.73,1.49,3,3,0,0,0,2,.26,3.69,3.69,0,0,0,1.92-.83A2.13,2.13,0,0,0,655.11,346.14Zm-4.92-7a1.53,1.53,0,0,0,.24.9,2,2,0,0,0,.62.58,4.07,4.07,0,0,0,.86.39l1,0.32a5.35,5.35,0,0,0,.72-0.57,5,5,0,0,0,.63-0.7,4.12,4.12,0,0,0,.45-0.76,1.82,1.82,0,0,0,.17-0.75,1.49,1.49,0,0,0-.21-0.81,1.65,1.65,0,0,0-.54-0.53,2,2,0,0,0-.74-0.27,2.79,2.79,0,0,0-.85,0,2.89,2.89,0,0,0-.93.3,3.2,3.2,0,0,0-.73.52,2.24,2.24,0,0,0-.48.67A1.7,1.7,0,0,0,650.19,339.17Z"/><path class="cls-4" d="M662.07,351.78a9.23,9.23,0,0,0,1.69-.87,8.94,8.94,0,0,0,2-1.71,9.74,9.74,0,0,0,1.61-2.63,9.3,9.3,0,0,0,.66-3.67,8.68,8.68,0,0,0-.63-3.58,6.23,6.23,0,0,0-1.54-2.16,5.4,5.4,0,0,0-1.93-1.1,8.45,8.45,0,0,0-1.82-.38l0.55-2.55a10.08,10.08,0,0,1,3.11.6,7.47,7.47,0,0,1,2.67,1.68,8.13,8.13,0,0,1,1.86,2.87,11.17,11.17,0,0,1,.7,4.16,13,13,0,0,1-.7,4.39,11.93,11.93,0,0,1-1.86,3.42,11.42,11.42,0,0,1-2.67,2.46,12.34,12.34,0,0,1-3.11,1.49Z"/></svg>