<svg id="Layer_1" data-name="Layer 1" xmlns="http://www.w3.org/2000/svg" viewBox="0 0 720 576"><defs><style>.cls-1,.cls-2,.cls-4,.cls-6{fill:#231f20;}.cls-1,.cls-3{stroke:#231f20;}.cls-1,.cls-6{stroke-miterlimit:10;}.cls-1,.cls-2,.cls-3{stroke-width:2px;}.cls-2{stroke:#000;}.cls-2,.cls-3{stroke-linecap:round;stroke-linejoin:round;}.cls-3,.cls-5{fill:#fff;}.cls-6{stroke:#fff;}</style></defs><title>Hanoi_Tower_Set_5</title><path class="cls-1" d="M690.39,506.49c0-.14,0-0.29,0-0.43s0-.29,0-0.43V453.84H44.59s-0.25,51.74-.25,52.22c0,2.67,2.32,5.24,6.64,7.71,15.13,8.61,55.2,16.11,111,21.48s127.37,8.59,205.39,8.59c89.16,0,169.88-4.21,228.32-11,29.22-3.41,52.87-7.46,69.23-12,8.18-2.25,14.54-4.62,18.86-7.08,3.69-2.1,5.91-4.29,6.48-6.55h0.11v-0.73Z"/><ellipse class="cls-2" cx="367.39" cy="454.92" rx="322.86" ry="37.63"/><path class="cls-3" d="M690.39,455c0-.14,0-0.29,0-0.43s0-.29,0-0.43V402.36H44.59s-0.25,51.74-.25,52.22c0,2.67,2.32,5.24,6.64,7.71,15.13,8.61,55.2,16.11,111,21.48s127.37,8.59,205.39,8.59c89.16,0,169.88-4.21,228.32-11,29.22-3.41,52.87-7.46,69.23-12,8.18-2.25,14.54-4.62,18.86-7.08,3.69-2.1,5.91-4.29,6.48-6.55h0.11V455Z"/><ellipse class="cls-3" cx="367.39" cy="403.44" rx="322.86" ry="37.63"/><path class="cls-3" d="M690.39,403.53c0-.14,0-0.29,0-0.43s0-.29,0-0.43V350.88H44.59s-0.25,51.74-.25,52.22c0,2.67,2.32,5.24,6.64,7.71,15.13,8.61,55.2,16.11,111,21.48s127.37,8.59,205.39,8.59c89.16,0,169.88-4.21,228.32-11,29.22-3.41,52.87-7.46,69.23-12,8.18-2.25,14.54-4.62,18.86-7.08,3.69-2.1,5.91-4.29,6.48-6.55h0.11v-0.73Z"/><ellipse class="cls-3" cx="367.39" cy="351.97" rx="322.86" ry="37.63"/><path class="cls-3" d="M690.39,352.06c0-.14,0-0.29,0-0.43s0-.29,0-0.43V299.4H44.59s-0.25,51.74-.25,52.22c0,2.67,2.32,5.24,6.64,7.71,15.13,8.61,55.2,16.11,111,21.48s127.37,8.59,205.39,8.59c89.16,0,169.88-4.21,228.32-11,29.22-3.41,52.87-7.46,69.23-12,8.18-2.25,14.54-4.62,18.86-7.08,3.69-2.1,5.91-4.29,6.48-6.55h0.11v-0.73Z"/><ellipse class="cls-3" cx="367.39" cy="300.49" rx="322.86" ry="37.63"/><path class="cls-4" d="M367.38,309.88c-16,0-29-3.75-30.2-8.61H337.1l0-.5V8.27h60.63v293h-0.12C396.36,306.14,383.36,309.88,367.38,309.88Z"/><path class="cls-5" d="M397.21,8.77v292h0c-0.49,4.78-13.63,8.61-29.79,8.61s-29.3-3.83-29.79-8.61h0v-0.21s0,0,0-.06,0,0,0-.06V8.77h59.63m1-1H336.58V300.39s0,0.07,0,.11v1.27h0.23c2,5.6,16.84,8.61,30.58,8.61s28.6-3,30.58-8.61h0.21l0-1V7.77h0Z"/><ellipse class="cls-6" cx="367.38" cy="8.89" rx="29.81" ry="8.89"/><path class="cls-1" d="M690.39,506.49c0-.14,0-0.29,0-0.43s0-.29,0-0.43V453.84H44.59s-0.25,51.74-.25,52.22c0,2.67,2.32,5.24,6.64,7.71,15.13,8.61,55.2,16.11,111,21.48s127.37,8.59,205.39,8.59c89.16,0,169.88-4.21,228.32-11,29.22-3.41,52.87-7.46,69.23-12,8.18-2.25,14.54-4.62,18.86-7.08,3.69-2.1,5.91-4.29,6.48-6.55h0.11v-0.73Z"/><ellipse class="cls-2" cx="367.39" cy="454.92" rx="322.86" ry="37.63"/><path class="cls-3" d="M690.39,455c0-.14,0-0.29,0-0.43s0-.29,0-0.43V402.36H44.59s-0.25,51.74-.25,52.22c0,2.67,2.32,5.24,6.64,7.71,15.13,8.61,55.2,16.11,111,21.48s127.37,8.59,205.39,8.59c89.16,0,169.88-4.21,228.32-11,29.22-3.41,52.87-7.46,69.23-12,8.18-2.25,14.54-4.62,18.86-7.08,3.69-2.1,5.91-4.29,6.48-6.55h0.11V455Z"/><ellipse class="cls-3" cx="367.39" cy="403.44" rx="322.86" ry="37.63"/><path class="cls-3" d="M690.39,403.53c0-.14,0-0.29,0-0.43s0-.29,0-0.43V350.88H44.59s-0.25,51.74-.25,52.22c0,2.67,2.32,5.24,6.64,7.71,15.13,8.61,55.2,16.11,111,21.48s127.37,8.59,205.39,8.59c89.16,0,169.88-4.21,228.32-11,29.22-3.41,52.87-7.46,69.23-12,8.18-2.25,14.54-4.62,18.86-7.08,3.69-2.1,5.91-4.29,6.48-6.55h0.11v-0.73Z"/><ellipse class="cls-3" cx="367.39" cy="351.97" rx="322.86" ry="37.63"/><path class="cls-3" d="M690.39,352.06c0-.14,0-0.29,0-0.43s0-.29,0-0.43V299.4H44.59s-0.25,51.74-.25,52.22c0,2.67,2.32,5.24,6.64,7.71,15.13,8.61,55.2,16.11,111,21.48s127.37,8.59,205.39,8.59c89.16,0,169.88-4.21,228.32-11,29.22-3.41,52.87-7.46,69.23-12,8.18-2.25,14.54-4.62,18.86-7.08,3.69-2.1,5.91-4.29,6.48-6.55h0.11v-0.73Z"/><ellipse class="cls-3" cx="367.39" cy="300.49" rx="322.86" ry="37.63"/><path class="cls-4" d="M367.38,309.88c-16,0-29-3.75-30.2-8.61H337.1l0-.5V8.27h60.63v293h-0.12C396.36,306.14,383.36,309.88,367.38,309.88Z"/><path class="cls-5" d="M397.21,8.77v292h0c-0.49,4.78-13.63,8.61-29.79,8.61s-29.3-3.83-29.79-8.61h0v-0.21s0,0,0-.06,0,0,0-.06V8.77h59.63m1-1H336.58V300.39s0,0.07,0,.11v1.27h0.23c2,5.6,16.84,8.61,30.58,8.61s28.6-3,30.58-8.61h0.21l0-1V7.77h0Z"/><ellipse class="cls-6" cx="367.38" cy="8.89" rx="29.81" ry="8.89"/><path d="M63,342.46L65.91,343V336.3L63,335.74V333.1l5.35,1,0.36,1.65,0.1,0a4.83,4.83,0,0,1,1.52-1,3.42,3.42,0,0,1,2-.16,3.36,3.36,0,0,1,2.25,1.47,6.6,6.6,0,0,1,.82,3.68l-2.79-.51a2.72,2.72,0,0,0-.25-1.31,1.09,1.09,0,0,0-.8-0.54,2.09,2.09,0,0,0-1.54.19,3.65,3.65,0,0,0-1,.92v5.11l5.17,1v2.64c-4.49-.82-6.73-1.24-11.21-2.1v-2.64Z"/><path d="M89,348.58a3.32,3.32,0,0,1-.8.43,6.43,6.43,0,0,1-1.14.32,8,8,0,0,1-1.44.13,9.2,9.2,0,0,1-1.67-.15,9,9,0,0,1-2.73-.92,6.91,6.91,0,0,1-3.31-3.85,8.12,8.12,0,0,1-.44-2.73,6.45,6.45,0,0,1,.5-2.68,4.3,4.3,0,0,1,1.37-1.73,4.64,4.64,0,0,1,2-.82,7.58,7.58,0,0,1,2.53.05,8.65,8.65,0,0,1,1.87.57,6.35,6.35,0,0,1,1.78,1.14,5.7,5.7,0,0,1,1.32,1.8,6,6,0,0,1,.51,2.59,10.91,10.91,0,0,1-.24,2.19L80.6,343.4a3.15,3.15,0,0,0,.32,1.35,3.33,3.33,0,0,0,.79,1,4.19,4.19,0,0,0,1.12.69,6.16,6.16,0,0,0,1.35.4,6.67,6.67,0,0,0,2.35.08,4.06,4.06,0,0,0,1.49-.55Zm-5.15-9.47a3.81,3.81,0,0,0-1.17,0,2.71,2.71,0,0,0-1,.33,2.11,2.11,0,0,0-.73.69,2.19,2.19,0,0,0-.33,1l5.86,1a3.1,3.1,0,0,0-.66-2A3.15,3.15,0,0,0,83.88,339.11Z"/><path d="M103.63,351.17a5.73,5.73,0,0,1-2.29.74,9.69,9.69,0,0,1-2.74-.09,8.68,8.68,0,0,1-2.76-.92,7.09,7.09,0,0,1-2-1.63,6.8,6.8,0,0,1-1.25-2.22,8.15,8.15,0,0,1-.43-2.67,6.2,6.2,0,0,1,.5-2.6A4.45,4.45,0,0,1,94,340a4.92,4.92,0,0,1,2.11-.88,7.82,7.82,0,0,1,2.65,0,10.76,10.76,0,0,1,2.51.73,13.8,13.8,0,0,1,1.79.9V345l-2.62-.43v-2.21A7.39,7.39,0,0,0,99,342a4.3,4.3,0,0,0-1.32,0,2.59,2.59,0,0,0-2,1.43,3.34,3.34,0,0,0-.32,1.55,4.08,4.08,0,0,0,.26,1.46,4.18,4.18,0,0,0,1.92,2.21,4.77,4.77,0,0,0,1.56.54,5.3,5.3,0,0,0,2.23,0,7.37,7.37,0,0,0,1.3-.46Z"/><path d="M112.8,341.81l4.44,0.7v9.36l1.82,0.28v2.64l-3.77-.59-0.55-1.86h-0.1a3.37,3.37,0,0,1-1.65,1.25,4.62,4.62,0,0,1-2.44.21,6,6,0,0,1-1.66-.51,3.71,3.71,0,0,1-1.28-1,4.48,4.48,0,0,1-.81-1.62,8.68,8.68,0,0,1-.29-2.4v-4.82l-1.36-.22v-2.64l4.46,0.72v6.82a4.09,4.09,0,0,0,.47,2.19,2,2,0,0,0,1.47.88,2.31,2.31,0,0,0,1.59-.28,2.27,2.27,0,0,0,1-1.14v-5.11l-1.34-.21v-2.64Z"/><path d="M120.18,352.32l3,0.45v-6.72l-3-.45V343l5.38,0.82,0.36,1.64H126a5.1,5.1,0,0,1,1.53-1.09,3.48,3.48,0,0,1,2-.23,3.22,3.22,0,0,1,2.26,1.39,6.42,6.42,0,0,1,.83,3.65l-2.8-.41a2.65,2.65,0,0,0-.25-1.3,1,1,0,0,0-.8-0.51,2.14,2.14,0,0,0-1.54.25,3.86,3.86,0,0,0-1,1v5.11l5.19,0.77v2.64c-4.51-.66-6.76-1-11.26-1.69v-2.64Z"/><path d="M144.48,363.6a12.69,12.69,0,0,1-3.26-1.51,11.69,11.69,0,0,1-2.8-2.53,12.21,12.21,0,0,1-1.95-3.54,13.4,13.4,0,0,1-.73-4.57,11.7,11.7,0,0,1,.73-4.35,8.65,8.65,0,0,1,1.95-3,8,8,0,0,1,2.8-1.79,10.66,10.66,0,0,1,3.26-.67l0.57,2.65a8.92,8.92,0,0,0-1.9.42,5.75,5.75,0,0,0-2,1.18,6.62,6.62,0,0,0-1.62,2.28,9.09,9.09,0,0,0-.66,3.75,9.59,9.59,0,0,0,.69,3.82,10,10,0,0,0,1.69,2.72,9.13,9.13,0,0,0,2,1.75,9.41,9.41,0,0,0,1.77.88Z"/><path d="M153.62,357.33a5.1,5.1,0,0,0,1.46,0,3.17,3.17,0,0,0,1.16-.4,2.12,2.12,0,0,0,.77-0.79,2.35,2.35,0,0,0,.28-1.16,2.8,2.8,0,0,0-1-2.21,6,6,0,0,0-3.13-1.17l-0.61-.07-0.66-.05-0.74-.08v-8.78l8.67,1.14v2.93l-6-.78c0,1.3,0,1.94,0,3.24l0.38,0,0.32,0,0.28,0a7.56,7.56,0,0,1,2.23.64,6,6,0,0,1,1.8,1.28A5.66,5.66,0,0,1,160,353a6,6,0,0,1,.42,2.25,5.13,5.13,0,0,1-.53,2.42,4.28,4.28,0,0,1-1.44,1.6,5.57,5.57,0,0,1-2.11.82,8.29,8.29,0,0,1-2.56,0,6.78,6.78,0,0,1-1.13-.26q-0.6-.19-1.17-0.42t-1.07-.49q-0.49-.26-0.83-0.47l1-2.36a8.35,8.35,0,0,0,1.26.7A6,6,0,0,0,153.62,357.33Z"/><path d="M167.54,360a1.45,1.45,0,0,1,.54-1.23,1.78,1.78,0,0,1,1.35-.31,2.71,2.71,0,0,1,2,1.11,3.73,3.73,0,0,1,.67,2.22,4.23,4.23,0,0,1-.42,1.92,4.39,4.39,0,0,1-1.09,1.4,5,5,0,0,1-1.5.87,5.56,5.56,0,0,1-1.64.35l-0.65-1.4a6.36,6.36,0,0,0,1.16-.26,4,4,0,0,0,1.07-.53,3.08,3.08,0,0,0,.8-0.83,2.29,2.29,0,0,0,.37-1.11,3.09,3.09,0,0,1-1.22-.11,2.15,2.15,0,0,1-.83-0.49,1.86,1.86,0,0,1-.47-0.73A2.63,2.63,0,0,1,167.54,360Z"/><path d="M190.55,359.55l-2.88-.32v4.68l-2.9-.33V358.9l-7.27-.84v-2.14l7.6-9.23,2.57,0.29v9.74l2.88,0.32v2.5Zm-5.78-8.47-4.17,4.85,4.17,0.48v-5.33Z"/><path d="M194,367.07a7.48,7.48,0,0,0,1.78-.45,6.5,6.5,0,0,0,2.05-1.25,7.12,7.12,0,0,0,1.69-2.31,8.37,8.37,0,0,0,.7-3.65,10.28,10.28,0,0,0-.66-3.91,9.26,9.26,0,0,0-1.62-2.68,8.13,8.13,0,0,0-2-1.68,11.2,11.2,0,0,0-1.91-.89l0.58-2.51a13.3,13.3,0,0,1,3.27,1.47,11.34,11.34,0,0,1,2.81,2.48,11.92,11.92,0,0,1,2,3.5,13.14,13.14,0,0,1,.73,4.53,11.88,11.88,0,0,1-.73,4.39,8.86,8.86,0,0,1-2,3.06,8.24,8.24,0,0,1-2.81,1.84,10.23,10.23,0,0,1-3.27.71Z"/><path d="M358.89,373.86v-2.64h2.84v-6.72h-2.87v-2.64h2.87V361.2a4.39,4.39,0,0,1,.4-1.94,3.9,3.9,0,0,1,1-1.34,4.29,4.29,0,0,1,1.51-.78,6.27,6.27,0,0,1,1.77-.25,11.35,11.35,0,0,1,2.74.28,7,7,0,0,1,1.77.68L370,360.22a11,11,0,0,0-1.19-.48,5.25,5.25,0,0,0-1.65-.22,2.34,2.34,0,0,0-1.82.59,2.6,2.6,0,0,0-.52,1.76h5.06v2.64h-5.06v6.72h5.09v2.64C365.52,373.89,363.31,373.88,358.89,373.86Z"/><path d="M373.81,362.68a13.32,13.32,0,0,1,2.23-.75,12.78,12.78,0,0,1,3-.33,6.68,6.68,0,0,1,2.13.28,3.53,3.53,0,0,1,1.42.84,3.2,3.2,0,0,1,.78,1.31,5.76,5.76,0,0,1,.24,1.73q0,1.22-.08,2.09t-0.08,1.54a10.19,10.19,0,0,0,0,1.13c0,0.22.06,0.44,0.07,0.65l1.57,0v2.64l-4,0-0.32-1.63h-0.12a4.19,4.19,0,0,1-1.37,1.29,4.6,4.6,0,0,1-2.4.56,4,4,0,0,1-2.85-.95,3.26,3.26,0,0,1-1.05-2.54,3.82,3.82,0,0,1,.37-1.74,3.13,3.13,0,0,1,1.08-1.2,5.18,5.18,0,0,1,1.7-.7,10.05,10.05,0,0,1,2.22-.24q0.43,0,.91,0l1.17,0.09a2.48,2.48,0,0,0,0-.48v-0.46a1.52,1.52,0,0,0-.53-1.3,2.56,2.56,0,0,0-1.56-.38,7.32,7.32,0,0,0-2.2.32,14.48,14.48,0,0,0-1.65.63Zm4.1,8.79a2.9,2.9,0,0,0,1.72-.43,2.86,2.86,0,0,0,.83-0.91v-1.44l-0.72-.1a8.25,8.25,0,0,0-1-.05,5,5,0,0,0-.91.09,3,3,0,0,0-.81.27,1.61,1.61,0,0,0-.57.47,1.14,1.14,0,0,0-.21.7,1.36,1.36,0,0,0,.39,1A1.85,1.85,0,0,0,377.91,371.47Z"/><path d="M399.26,372.42a7,7,0,0,1-2.31,1.16,10.22,10.22,0,0,1-2.77.42,7.82,7.82,0,0,1-2.78-.41,5.56,5.56,0,0,1-2-1.26,5.35,5.35,0,0,1-1.27-2,7.38,7.38,0,0,1-.43-2.59,6.79,6.79,0,0,1,.51-2.69,5.76,5.76,0,0,1,1.41-2,6.2,6.2,0,0,1,2.13-1.27,8.35,8.35,0,0,1,2.68-.46,9.89,9.89,0,0,1,2.53.27,11.55,11.55,0,0,1,1.81.57v4.22l-2.65,0v-2.21a6.83,6.83,0,0,0-1.49-.14,4.58,4.58,0,0,0-1.34.23A3.34,3.34,0,0,0,392,365a3.46,3.46,0,0,0-.84,1.13,4,4,0,0,0-.06,3,3.3,3.3,0,0,0,.75,1.12,3.34,3.34,0,0,0,1.19.74,4.29,4.29,0,0,0,1.58.25,5.71,5.71,0,0,0,2.25-.42,9.19,9.19,0,0,0,1.31-.7Z"/><path d="M403.36,364.12l-2.39.05v-2.64l2.39-.05v-2.74l3.13-1c0,1.45,0,2.17,0,3.62l6.31-.16v2.64l-6.31.16v3.43a4.05,4.05,0,0,0,.7,2.66,2.35,2.35,0,0,0,2,.78,4.19,4.19,0,0,0,1.18-.19,4.58,4.58,0,0,0,1-.42,5.63,5.63,0,0,0,.77-0.55l0.64-.55,1.45,2.12a4.78,4.78,0,0,1-1,.91,9,9,0,0,1-1.33.73,8.53,8.53,0,0,1-1.48.51,7.18,7.18,0,0,1-1.52.21,5.08,5.08,0,0,1-4.06-1.4q-1.36-1.47-1.36-4.73v-3.43Z"/><path d="M415.87,367.16a7.49,7.49,0,0,1,.46-2.7,5.75,5.75,0,0,1,1.3-2,5.81,5.81,0,0,1,2-1.3,7.88,7.88,0,0,1,2.62-.51A7.47,7.47,0,0,1,425,361a5.33,5.33,0,0,1,2,1.21,5.14,5.14,0,0,1,1.24,2,8.15,8.15,0,0,1,0,5.28,5.7,5.7,0,0,1-3.31,3.35,7.81,7.81,0,0,1-2.61.51,7.42,7.42,0,0,1-2.71-.37,5.35,5.35,0,0,1-2-1.22,5.18,5.18,0,0,1-1.24-2A7.51,7.51,0,0,1,415.87,367.16Zm3.23-.1a4.67,4.67,0,0,0,.22,1.46,3.45,3.45,0,0,0,.63,1.16,2.69,2.69,0,0,0,1,.75,3,3,0,0,0,1.33.23,3.17,3.17,0,0,0,2.28-1,4,4,0,0,0,.88-2.84,4,4,0,0,0-.82-2.65,2.73,2.73,0,0,0-2.34-.94,3.82,3.82,0,0,0-1.25.25,2.58,2.58,0,0,0-1,.69,3.36,3.36,0,0,0-.66,1.17A5.23,5.23,0,0,0,419.1,367.06Z"/><path d="M430.42,370l3-.12v-6.72l-3,.12v-2.64l5.42-.22L436.2,362h0.1a6.8,6.8,0,0,1,1.54-1.39,4,4,0,0,1,2-.62,2.62,2.62,0,0,1,2.28,1,5.61,5.61,0,0,1,.83,3.49l-2.82.13a2.35,2.35,0,0,0-.25-1.25,0.85,0.85,0,0,0-.81-0.36,2.48,2.48,0,0,0-1.55.55,5.14,5.14,0,0,0-1,1.15v5.11l5.23-.23v2.64c-4.54.21-6.81,0.3-11.35,0.48V370Z"/><path d="M445.36,369.37l4.24-.21v-6.72l-4.24.21V360l7.37-.37V369l4.46-.24v2.64c-4.73.26-7.09,0.38-11.82,0.61v-2.64Zm3.66-12.8a1.78,1.78,0,0,1,.55-1.3,2.63,2.63,0,0,1,3.15-.16,1.54,1.54,0,0,1,.6,1.24,1.65,1.65,0,0,1-.6,1.29,2.58,2.58,0,0,1-1.61.58,2.15,2.15,0,0,1-1.54-.41A1.53,1.53,0,0,1,449,356.57Z"/><path d="M460.55,360a14,14,0,0,1,2.23-.87,13,13,0,0,1,3-.49,6.55,6.55,0,0,1,2.13.17,3.3,3.3,0,0,1,1.42.76,3,3,0,0,1,.78,1.27,5.64,5.64,0,0,1,.24,1.71q0,1.22-.08,2.09t-0.08,1.54a10.09,10.09,0,0,0,0,1.12c0,0.22.06,0.44,0.07,0.64l1.57-.1v2.64l-4,.26-0.32-1.61h-0.12a4.53,4.53,0,0,1-1.36,1.37,4.77,4.77,0,0,1-2.39.68,3.87,3.87,0,0,1-2.85-.79,3.09,3.09,0,0,1-1.05-2.48,4,4,0,0,1,.37-1.76,3.38,3.38,0,0,1,1.08-1.26,5.48,5.48,0,0,1,1.7-.8,10.24,10.24,0,0,1,2.21-.36,9.06,9.06,0,0,1,.91,0l1.17,0a2.52,2.52,0,0,0,0-.48v-0.46a1.44,1.44,0,0,0-.53-1.28,2.46,2.46,0,0,0-1.55-.3,7.51,7.51,0,0,0-2.2.44,15.31,15.31,0,0,0-1.65.72Zm4.1,8.57a3,3,0,0,0,1.71-.52,3.09,3.09,0,0,0,.83-1v-1.44l-0.71-.06a8.21,8.21,0,0,0-1,0,5.11,5.11,0,0,0-.91.14,3.17,3.17,0,0,0-.81.31,1.74,1.74,0,0,0-.57.5,1.19,1.19,0,0,0-.21.71,1.29,1.29,0,0,0,.39,1A1.77,1.77,0,0,0,464.65,368.59Z"/><path d="M474.92,353.52l5.13-.35v11.09a4.93,4.93,0,0,0,.46,2.54,1.5,1.5,0,0,0,1.47.62,4.16,4.16,0,0,0,1.23-.24,5.05,5.05,0,0,0,1-.51l1.18,2.07q-0.41.29-.82,0.55a5.68,5.68,0,0,1-.87.45,6.19,6.19,0,0,1-1,.31,8.14,8.14,0,0,1-1.21.17,4.29,4.29,0,0,1-3.39-.92,4.19,4.19,0,0,1-1.13-3.19V356l-2,.13v-2.64Z"/><path d="M489.14,372.12c4.27-.32,6.41-0.49,10.68-0.84v2.57c-4.27.35-6.41,0.52-10.68,0.84v-2.57Z"/><path d="M501.7,351.52l4.86-.41v6.14h0.1a4.6,4.6,0,0,1,1.54-1.36,5.57,5.57,0,0,1,2.26-.65,5.5,5.5,0,0,1,1.68.09,2.85,2.85,0,0,1,1.32.67,3.33,3.33,0,0,1,.86,1.42,7.27,7.27,0,0,1,.31,2.31v7.46l-3.12.28v-6.82a2.76,2.76,0,0,0-.62-2.06,2,2,0,0,0-1.63-.5,3,3,0,0,0-1.63.68,3.32,3.32,0,0,0-1.06,1.47v7.66l-3.13.27V354l-1.73.14v-2.64Z"/><path d="M528.95,364.56a4.91,4.91,0,0,1-.81.64,8.67,8.67,0,0,1-1.15.63,9.73,9.73,0,0,1-3.14.83,7.87,7.87,0,0,1-2.75-.17,4.73,4.73,0,0,1-3.34-2.94,7.06,7.06,0,0,1-.44-2.61,7.4,7.4,0,0,1,.5-2.82,6.31,6.31,0,0,1,1.38-2.11,6.56,6.56,0,0,1,2.05-1.38,8.44,8.44,0,0,1,2.55-.64,7.72,7.72,0,0,1,1.89.06,4.65,4.65,0,0,1,1.79.65,3.84,3.84,0,0,1,1.33,1.44,5,5,0,0,1,.52,2.44,11.76,11.76,0,0,1-.24,2.26l-8.65.84a2.58,2.58,0,0,0,.32,1.27,2.24,2.24,0,0,0,.79.79,3.13,3.13,0,0,0,1.13.38,5.57,5.57,0,0,0,1.36,0,7.38,7.38,0,0,0,2.37-.57,5.69,5.69,0,0,0,1.5-1Zm-5.19-8.06a4.21,4.21,0,0,0-1.18.28,3.71,3.71,0,0,0-1,.6,3.16,3.16,0,0,0-.73.89,2.74,2.74,0,0,0-.34,1.13l5.91-.57a2.41,2.41,0,0,0-.66-1.83A2.44,2.44,0,0,0,523.76,356.5Z"/><path d="M532.62,348.66l5.11-.53v11.09a4.85,4.85,0,0,0,.46,2.52,1.44,1.44,0,0,0,1.46.56,4.24,4.24,0,0,0,1.22-.29,5.28,5.28,0,0,0,1-.55l1.18,2q-0.41.31-.82,0.58a5.9,5.9,0,0,1-.86.48,6.37,6.37,0,0,1-1,.35,8.24,8.24,0,0,1-1.21.21,4.17,4.17,0,0,1-3.38-.8,4.06,4.06,0,0,1-1.13-3.15V351.09l-2,.21v-2.64Z"/><path d="M544.93,352.15l4.08-.45,0.36,1.4h0.1a5.21,5.21,0,0,1,4-2.24,5.51,5.51,0,0,1,2,.11,3.39,3.39,0,0,1,1.58.91,4.43,4.43,0,0,1,1,1.75,8.57,8.57,0,0,1,.36,2.67,9.3,9.3,0,0,1-.41,2.82,6.84,6.84,0,0,1-1.18,2.24,5.94,5.94,0,0,1-1.87,1.54,7,7,0,0,1-2.52.75,9.77,9.77,0,0,1-1.46.06,3.72,3.72,0,0,1-1.2-.21v4.92l-3.12.35V354.59l-1.8.2v-2.64Zm7.63,1.45a3.51,3.51,0,0,0-1.67.65,2.77,2.77,0,0,0-1,1.49v5a2.29,2.29,0,0,0,1,.31,5.21,5.21,0,0,0,1.28,0,3.61,3.61,0,0,0,1.25-.37,3,3,0,0,0,1-.85,4.09,4.09,0,0,0,.67-1.35,6.55,6.55,0,0,0,.24-1.88,3.23,3.23,0,0,0-.77-2.36A2.23,2.23,0,0,0,552.56,353.6Z"/><path d="M572.13,359.66a5.1,5.1,0,0,1-.8.67,8.94,8.94,0,0,1-1.15.66,10,10,0,0,1-1.45.57,9.86,9.86,0,0,1-1.68.35,7.81,7.81,0,0,1-2.74-.09A4.55,4.55,0,0,1,561,359a7,7,0,0,1-.44-2.6,7.53,7.53,0,0,1,.5-2.83,6.54,6.54,0,0,1,1.38-2.15,6.79,6.79,0,0,1,2-1.44,8.58,8.58,0,0,1,2.54-.71,7.68,7.68,0,0,1,1.88,0,4.52,4.52,0,0,1,1.78.6,3.69,3.69,0,0,1,1.33,1.4,5,5,0,0,1,.52,2.43,11.89,11.89,0,0,1-.24,2.26L563.64,357a2.53,2.53,0,0,0,.32,1.26,2.15,2.15,0,0,0,.79.77,3,3,0,0,0,1.13.35,5.54,5.54,0,0,0,1.35,0,7.49,7.49,0,0,0,2.36-.63,5.88,5.88,0,0,0,1.5-1ZM567,351.74a4.28,4.28,0,0,0-1.17.32,3.83,3.83,0,0,0-1,.62,3.28,3.28,0,0,0-.73.91,2.8,2.8,0,0,0-.34,1.14l5.9-.73a2.36,2.36,0,0,0-.66-1.81A2.39,2.39,0,0,0,567,351.74Z"/><path d="M574.64,358l3-.38v-6.72l-3,.38v-2.64l5.39-.7,0.36,1.54h0.1A7.74,7.74,0,0,1,582,347.9a4.25,4.25,0,0,1,2-.8,2.39,2.39,0,0,1,2.26.75,5.29,5.29,0,0,1,.83,3.42l-2.8.38a2.24,2.24,0,0,0-.25-1.23,0.77,0.77,0,0,0-.8-0.29,2.69,2.69,0,0,0-1.54.69,5.85,5.85,0,0,0-1,1.24v5.11l5.2-.7v2.64c-4.51.61-6.77,0.91-11.28,1.49V358Z"/><path d="M599,362.38a10,10,0,0,1-3.25-.59,7.83,7.83,0,0,1-2.8-1.74,8.45,8.45,0,0,1-2-3,11.7,11.7,0,0,1-.73-4.36,13.4,13.4,0,0,1,.73-4.55,12.52,12.52,0,0,1,2-3.57,11.94,11.94,0,0,1,2.8-2.58A13.78,13.78,0,0,1,599,340.4l0.57,2.49a11.61,11.61,0,0,0-1.9,1,8.55,8.55,0,0,0-2,1.75,9.7,9.7,0,0,0-1.61,2.74,10.49,10.49,0,0,0-.66,3.93,8.23,8.23,0,0,0,.69,3.62,6.75,6.75,0,0,0,1.69,2.25,6.17,6.17,0,0,0,2,1.17,7.25,7.25,0,0,0,1.77.38Z"/><path d="M614.94,354.91c-4.26.66-6.4,1-10.66,1.61v-2.33c0.19-.19.43-0.44,0.72-0.74l1-1q0.54-.58,1.14-1.27t1.17-1.42q0.81-1,1.42-1.87a14.39,14.39,0,0,0,1-1.56,6.8,6.8,0,0,0,.59-1.38,4.81,4.81,0,0,0,.19-1.34,2,2,0,0,0-.21-0.9,2.06,2.06,0,0,0-.6-0.71,2.38,2.38,0,0,0-.92-0.41,3.18,3.18,0,0,0-1.18,0,4.93,4.93,0,0,0-1.57.5,6.57,6.57,0,0,0-1.47,1.11l-1.24-2a12.83,12.83,0,0,1,2.24-1.54,8.47,8.47,0,0,1,2.83-.92,6.52,6.52,0,0,1,2,0,4.39,4.39,0,0,1,1.67.6,3.3,3.3,0,0,1,1.16,1.23,3.81,3.81,0,0,1,.43,1.88,7.63,7.63,0,0,1-.13,1.45,7.91,7.91,0,0,1-.41,1.38,10.86,10.86,0,0,1-.72,1.47c-0.29.51-.65,1.07-1.06,1.67s-0.67.94-1,1.42-0.74.94-1.11,1.38-0.73.85-1.09,1.24-0.68.72-1,1l6.88-1v2.64Z"/><path d="M617.68,346.06a15.23,15.23,0,0,1,.46-3.9,9.45,9.45,0,0,1,1.28-2.92,6.7,6.7,0,0,1,2-1.93,6.78,6.78,0,0,1,2.56-.95,4.76,4.76,0,0,1,4.65,1.37q1.63,1.86,1.63,6.32a15.35,15.35,0,0,1-.46,3.93,9.64,9.64,0,0,1-1.28,2.95,6.65,6.65,0,0,1-2,2,6.83,6.83,0,0,1-2.58,1,4.6,4.6,0,0,1-4.65-1.51Q617.68,350.33,617.68,346.06Zm3.11-.49q0,0.36,0,.68c0,0.21,0,.43,0,0.65l5.78-6.27a2.22,2.22,0,0,0-2.68-1.63,3.13,3.13,0,0,0-2.33,1.85A10.73,10.73,0,0,0,620.79,345.57Zm6.35-1q0-.38,0-0.73c0-.23,0-0.46,0-0.68l-5.8,6.28a2.26,2.26,0,0,0,2.68,1.76,3.16,3.16,0,0,0,2.35-1.84A10.77,10.77,0,0,0,627.14,344.56Z"/><path d="M636.31,349.93a2,2,0,0,1,.54-1.39,2.33,2.33,0,0,1,1.35-.71,2,2,0,0,1,2,.53,2.93,2.93,0,0,1,.67,2,5.06,5.06,0,0,1-.42,2,6.57,6.57,0,0,1-1.08,1.72,7.54,7.54,0,0,1-1.49,1.31,7.24,7.24,0,0,1-1.63.83l-0.64-1.21a8.33,8.33,0,0,0,1.16-.6,5.91,5.91,0,0,0,1.06-.84,4.72,4.72,0,0,0,.8-1.06,3,3,0,0,0,.37-1.22,3.19,3.19,0,0,1-1.22.24,1.56,1.56,0,0,1-.82-0.25,1.25,1.25,0,0,1-.47-0.59A2.3,2.3,0,0,1,636.31,349.93Z"/><path d="M651.33,346.57a5.42,5.42,0,0,0,1.44-.46,4.3,4.3,0,0,0,1.12-.77,3.58,3.58,0,0,0,.73-1,2.5,2.5,0,0,0,.26-1.11,2,2,0,0,0-.3-1.15,1.66,1.66,0,0,0-.82-0.63,3.5,3.5,0,0,0-1.26-.18,10.16,10.16,0,0,0-1.6.16l-1.33.24V340l4-5.64-6,1.07v-2.64c3.89-.68,5.83-1,9.72-1.73v2.18l-4.19,5.58,0.55-.1a4.46,4.46,0,0,1,1.62,0,3.22,3.22,0,0,1,1.39.61,3.3,3.3,0,0,1,1,1.26,4.56,4.56,0,0,1,.37,1.93,5.58,5.58,0,0,1-.56,2.5,7.08,7.08,0,0,1-1.48,2,7.94,7.94,0,0,1-2.11,1.44,9.74,9.74,0,0,1-2.45.79,12,12,0,0,1-2.14.19,9.2,9.2,0,0,1-2.07-.24l0.83-2.74a2.87,2.87,0,0,0,.58.14l0.83,0.09a8.53,8.53,0,0,0,1,0A6.63,6.63,0,0,0,651.33,346.57Z"/><path d="M662.57,349.31a9.88,9.88,0,0,0,1.76-1,9.74,9.74,0,0,0,2-1.84,10.62,10.62,0,0,0,1.68-2.8,9.89,9.89,0,0,0,.69-3.85,8.91,8.91,0,0,0-.65-3.72,6.2,6.2,0,0,0-1.61-2.21,5.4,5.4,0,0,0-2-1.09,8.61,8.61,0,0,0-1.89-.33l0.57-2.67a10.29,10.29,0,0,1,3.24.53,7.46,7.46,0,0,1,2.78,1.66A8.14,8.14,0,0,1,671.1,335a11.51,11.51,0,0,1,.73,4.31,13.78,13.78,0,0,1-.73,4.6,13,13,0,0,1-1.94,3.63,12.46,12.46,0,0,1-2.78,2.66,13.27,13.27,0,0,1-3.24,1.66Z"/><path d="M56.15,447.61V445L59,445.51v-6.72l-2.83-.54v-2.64L59,436.15v-0.67a4,4,0,0,1,.39-1.87,3,3,0,0,1,1-1.15,3.45,3.45,0,0,1,1.49-.5,5.94,5.94,0,0,1,1.75.07,12.29,12.29,0,0,1,2.7.78,8.54,8.54,0,0,1,1.75,1L67.17,436a13.36,13.36,0,0,0-1.18-.7,5.79,5.79,0,0,0-1.63-.52,2,2,0,0,0-1.8.25,2.25,2.25,0,0,0-.51,1.67l5,0.93v2.64l-5-.93v6.72l5,0.93v2.64C62.71,448.86,60.52,448.45,56.15,447.61Z"/><path d="M70.89,439.17a11.47,11.47,0,0,1,2.2-.35,12.34,12.34,0,0,1,3,.22,7.37,7.37,0,0,1,2.11.67,4.51,4.51,0,0,1,1.41,1.1,4,4,0,0,1,.77,1.46,6.26,6.26,0,0,1,.24,1.77q0,1.22-.08,2.07c-0.06.57-.08,1.07-0.08,1.52a10.7,10.7,0,0,0,0,1.14c0,0.22.06,0.45,0.07,0.66l1.55,0.27v2.64l-4-.7L77.77,450l-0.12,0a3.19,3.19,0,0,1-1.35,1,4.16,4.16,0,0,1-2.37.12,4.82,4.82,0,0,1-2.82-1.47,3.93,3.93,0,0,1-1-2.73,3.43,3.43,0,0,1,.37-1.67,2.37,2.37,0,0,1,1.07-1,4.31,4.31,0,0,1,1.68-.39,9.71,9.71,0,0,1,2.19.16q0.43,0.08.9,0.21l1.16,0.3a2.34,2.34,0,0,0,0-.47v-0.46a1.83,1.83,0,0,0-.52-1.4,3,3,0,0,0-1.54-.67,6.93,6.93,0,0,0-2.18-.08,12.15,12.15,0,0,0-1.63.33Zm4.05,9.54a2.59,2.59,0,0,0,1.7-.12,2.18,2.18,0,0,0,.82-0.75V446.4l-0.71-.23a8.72,8.72,0,0,0-1-.24,4.87,4.87,0,0,0-.9-0.08,2.61,2.61,0,0,0-.8.12,1.23,1.23,0,0,0-.57.37,1,1,0,0,0-.21.66,1.62,1.62,0,0,0,.39,1.11A2.17,2.17,0,0,0,74.94,448.71Z"/><path d="M96.06,453.57a5.72,5.72,0,0,1-2.29.74,9.69,9.69,0,0,1-2.74-.09,8.68,8.68,0,0,1-2.75-.92,7.1,7.1,0,0,1-2-1.63A6.81,6.81,0,0,1,85,449.44a8.16,8.16,0,0,1-.43-2.67,6.19,6.19,0,0,1,.5-2.6,4.45,4.45,0,0,1,1.39-1.75,4.92,4.92,0,0,1,2.11-.88,7.82,7.82,0,0,1,2.65,0,10.77,10.77,0,0,1,2.51.73,13.81,13.81,0,0,1,1.79.9v4.22L92.89,447v-2.21a7.4,7.4,0,0,0-1.48-.42,4.31,4.31,0,0,0-1.32,0,2.59,2.59,0,0,0-2,1.42,3.34,3.34,0,0,0-.32,1.55,4.08,4.08,0,0,0,.26,1.46A4.18,4.18,0,0,0,89.94,451a4.77,4.77,0,0,0,1.56.54,5.3,5.3,0,0,0,2.23,0,7.37,7.37,0,0,0,1.3-.46Z"/><path d="M100.12,446l-2.36-.39V443l2.36,0.39v-2.74l3.1-.38v3.62l6.26,1v2.64l-6.26-1V450a4.67,4.67,0,0,0,.69,2.79,2.86,2.86,0,0,0,1.93,1.14,4,4,0,0,0,1.17,0,3.79,3.79,0,0,0,.94-0.25,4.35,4.35,0,0,0,.76-0.41l0.63-.43,1.43,2.39a3.67,3.67,0,0,1-1,.72,7.2,7.2,0,0,1-1.31.49,7.41,7.41,0,0,1-1.47.24,6.91,6.91,0,0,1-1.5-.07,6.1,6.1,0,0,1-4-2.15,7.93,7.93,0,0,1-1.35-5V446Z"/><path d="M112.51,451.36a6.87,6.87,0,0,1,.45-2.62,4.46,4.46,0,0,1,1.29-1.79,4.56,4.56,0,0,1,2-.93,7.33,7.33,0,0,1,2.59,0,8.29,8.29,0,0,1,2.69.86,6.83,6.83,0,0,1,2,1.58,6.54,6.54,0,0,1,1.23,2.19,8.24,8.24,0,0,1,.42,2.65,6.9,6.9,0,0,1-.45,2.62,4.5,4.5,0,0,1-1.29,1.8,4.55,4.55,0,0,1-2,.94,7.27,7.27,0,0,1-2.59,0,8.22,8.22,0,0,1-2.69-.87,6.86,6.86,0,0,1-2-1.59,6.59,6.59,0,0,1-1.23-2.19A8.27,8.27,0,0,1,112.51,451.36Zm3.2,0.49a5.1,5.1,0,0,0,.21,1.5,4.32,4.32,0,0,0,.62,1.27,3.51,3.51,0,0,0,1,.93,3.36,3.36,0,0,0,1.31.48,2.67,2.67,0,0,0,2.26-.55,3.41,3.41,0,0,0,.87-2.68,4.7,4.7,0,0,0-.81-2.8,3.32,3.32,0,0,0-2.32-1.37,3.55,3.55,0,0,0-1.24,0,2,2,0,0,0-1,.51,2.64,2.64,0,0,0-.66,1.05A4.86,4.86,0,0,0,115.71,451.85Z"/><path d="M127,456.9l3,0.43v-6.72l-3-.43v-2.64l5.38,0.78,0.36,1.64h0.1a5.16,5.16,0,0,1,1.53-1.1,3.5,3.5,0,0,1,2-.24,3.2,3.2,0,0,1,2.26,1.37,6.39,6.39,0,0,1,.83,3.64l-2.8-.39a2.64,2.64,0,0,0-.25-1.3,1,1,0,0,0-.8-0.51,2.15,2.15,0,0,0-1.54.26,3.91,3.91,0,0,0-1,1v5.11l5.19,0.73v2.64c-4.51-.63-6.76-0.95-11.27-1.61V456.9Z"/><path d="M141.79,459l4.21,0.57v-6.72l-4.21-.57v-2.64l7.33,1V460l4.43,0.58v2.64c-4.71-.61-7.06-0.92-11.76-1.57V459Zm3.64-12.13a1.48,1.48,0,0,1,.55-1.2,1.92,1.92,0,0,1,1.53-.32,2.67,2.67,0,0,1,1.6.74,1.89,1.89,0,0,1,.6,1.35,1.35,1.35,0,0,1-.6,1.18,2.23,2.23,0,0,1-1.6.28,2.53,2.53,0,0,1-1.53-.7A1.85,1.85,0,0,1,145.42,446.87Z"/><path d="M156.9,452.46a11.91,11.91,0,0,1,2.22-.46,12.4,12.4,0,0,1,3,.06,7.12,7.12,0,0,1,2.12.56,4.2,4.2,0,0,1,1.41,1,3.78,3.78,0,0,1,.78,1.42,6.09,6.09,0,0,1,.24,1.76q0,1.22-.08,2.08c-0.06.57-.08,1.08-0.08,1.53a10.53,10.53,0,0,0,0,1.13c0,0.22.06,0.45,0.07,0.66l1.56,0.19V465l-4-.49-0.31-1.67H163.7a3.45,3.45,0,0,1-1.36,1.12,4.26,4.26,0,0,1-2.38.24,4.58,4.58,0,0,1-2.83-1.32,3.73,3.73,0,0,1-1-2.68,3.53,3.53,0,0,1,.37-1.69,2.58,2.58,0,0,1,1.07-1.06,4.54,4.54,0,0,1,1.69-.48,9.75,9.75,0,0,1,2.2,0q0.43,0.05.91,0.16l1.17,0.24a2.36,2.36,0,0,0,0-.47v-0.46a1.73,1.73,0,0,0-.52-1.37,2.83,2.83,0,0,0-1.55-.59,7,7,0,0,0-2.19,0,12.7,12.7,0,0,0-1.64.42Zm4.08,9.32a2.67,2.67,0,0,0,1.71-.21,2.36,2.36,0,0,0,.83-0.8v-1.44l-0.71-.2a8.54,8.54,0,0,0-1-.19,4.9,4.9,0,0,0-.9,0,2.71,2.71,0,0,0-.81.16,1.33,1.33,0,0,0-.57.4,1,1,0,0,0-.21.67,1.54,1.54,0,0,0,.39,1.09A2.06,2.06,0,0,0,161,461.78Z"/><path d="M171.21,448.61l5.11,0.6c0,4.44,0,6.65,0,11.09a5.49,5.49,0,0,0,.46,2.62,1.83,1.83,0,0,0,1.46.89,3.9,3.9,0,0,0,1.22,0,4.12,4.12,0,0,0,1-.34l1.18,2.29q-0.41.22-.82,0.4a4.68,4.68,0,0,1-.86.29,5.51,5.51,0,0,1-1,.13,7.84,7.84,0,0,1-1.21-.05,5.08,5.08,0,0,1-3.38-1.54,5,5,0,0,1-1.13-3.4V451.48l-2-.24v-2.64Z"/><path d="M194.43,473.09a12.29,12.29,0,0,1-3.27-1.4,11.15,11.15,0,0,1-2.81-2.44,11.69,11.69,0,0,1-2-3.48,13.16,13.16,0,0,1-.73-4.54,11.86,11.86,0,0,1,.73-4.37,9,9,0,0,1,2-3.09,8.37,8.37,0,0,1,2.81-1.88,11,11,0,0,1,3.27-.78l0.58,2.63a9.16,9.16,0,0,0-1.91.48,6,6,0,0,0-2,1.25,6.94,6.94,0,0,0-1.62,2.33,9.22,9.22,0,0,0-.66,3.77,9.4,9.4,0,0,0,.7,3.79,9.52,9.52,0,0,0,1.69,2.67,8.71,8.71,0,0,0,2.05,1.68,9.08,9.08,0,0,0,1.78.82Z"/><path d="M203.61,466.51a5.16,5.16,0,0,0,1.46,0,3.3,3.3,0,0,0,1.17-.44,2.22,2.22,0,0,0,.77-0.81,2.4,2.4,0,0,0,.28-1.17,2.7,2.7,0,0,0-1-2.18,5.8,5.8,0,0,0-3.13-1.06l-0.61,0-0.66,0-0.74-.05v-8.78l8.7,0.85v2.93l-6-.58v3.24h0.38l0.32,0,0.28,0a7.41,7.41,0,0,1,2.23.57,5.77,5.77,0,0,1,1.8,1.22A5.41,5.41,0,0,1,210,462a5.89,5.89,0,0,1,.42,2.24,5.22,5.22,0,0,1-.53,2.43,4.49,4.49,0,0,1-1.44,1.65,5.79,5.79,0,0,1-2.11.89,8.36,8.36,0,0,1-2.57.12,6.67,6.67,0,0,1-1.13-.22q-0.6-.17-1.18-0.38a11.41,11.41,0,0,1-1.07-.46q-0.49-.24-0.83-0.44l1-2.39a8,8,0,0,0,1.26.66A5.86,5.86,0,0,0,203.61,466.51Z"/><path d="M215.21,472.52A7.58,7.58,0,0,0,217,472a6.64,6.64,0,0,0,2.06-1.28,7.27,7.27,0,0,0,1.69-2.33,8.43,8.43,0,0,0,.7-3.66,10.19,10.19,0,0,0-.66-3.9,9.08,9.08,0,0,0-1.62-2.65,8,8,0,0,0-2-1.65,11,11,0,0,0-1.91-.86l0.58-2.52a13.09,13.09,0,0,1,3.27,1.43,11.1,11.1,0,0,1,2.81,2.43,11.69,11.69,0,0,1,2,3.47,13,13,0,0,1,.73,4.52,12,12,0,0,1-.73,4.4,9,9,0,0,1-2,3.09,8.43,8.43,0,0,1-2.81,1.89,10.37,10.37,0,0,1-3.27.76Z"/><path d="M380.21,477v-2.64l2.84,0V467.6l-2.87,0V465l2.87,0v-0.67a4.43,4.43,0,0,1,.4-1.95,4,4,0,0,1,1-1.35,4.36,4.36,0,0,1,1.51-.8,6.3,6.3,0,0,1,1.77-.27,11.3,11.3,0,0,1,2.74.24,6.91,6.91,0,0,1,1.77.66l-0.92,2.39a10.83,10.83,0,0,0-1.19-.46,5.23,5.23,0,0,0-1.65-.19,2.37,2.37,0,0,0-1.82.61,2.62,2.62,0,0,0-.52,1.77l5.06-.06v2.64l-5.06.07v6.72l5.09-.07v2.64C386.85,476.92,384.63,476.95,380.21,477Z"/><path d="M395.13,465.62a13.48,13.48,0,0,1,2.23-.78,12.84,12.84,0,0,1,3-.37,6.65,6.65,0,0,1,2.13.26,3.48,3.48,0,0,1,1.42.82,3.15,3.15,0,0,1,.78,1.3,5.73,5.73,0,0,1,.24,1.72q0,1.22-.08,2.09t-0.08,1.54a10.17,10.17,0,0,0,0,1.13c0,0.22.06,0.44,0.07,0.65l1.57,0v2.64l-4,.09L402.09,475H402a4.27,4.27,0,0,1-1.37,1.31,4.63,4.63,0,0,1-2.4.59,4,4,0,0,1-2.85-.91,3.22,3.22,0,0,1-1.05-2.53,3.85,3.85,0,0,1,.37-1.75,3.19,3.19,0,0,1,1.08-1.22,5.25,5.25,0,0,1,1.7-.73,10.1,10.1,0,0,1,2.22-.27q0.43,0,.91,0l1.17,0.07a2.49,2.49,0,0,0,0-.48v-0.46a1.5,1.5,0,0,0-.53-1.3,2.53,2.53,0,0,0-1.56-.36,7.37,7.37,0,0,0-2.2.35,14.67,14.67,0,0,0-1.65.65Zm4.1,8.73a2.67,2.67,0,0,0,2.55-1.37v-1.44l-0.71-.09a8.24,8.24,0,0,0-1,0,5,5,0,0,0-.91.1,3,3,0,0,0-.81.28,1.64,1.64,0,0,0-.57.48,1.15,1.15,0,0,0-.21.7,1.35,1.35,0,0,0,.39,1A1.83,1.83,0,0,0,399.23,474.35Z"/><path d="M420.58,475a7.15,7.15,0,0,1-2.31,1.19,10.28,10.28,0,0,1-2.77.45,7.78,7.78,0,0,1-2.78-.38,5.47,5.47,0,0,1-2-1.23,5.26,5.26,0,0,1-1.27-2,7.34,7.34,0,0,1-.43-2.58,6.84,6.84,0,0,1,.51-2.7,5.86,5.86,0,0,1,1.41-2,6.3,6.3,0,0,1,2.13-1.29,8.4,8.4,0,0,1,2.68-.5,9.85,9.85,0,0,1,2.53.24,11.43,11.43,0,0,1,1.81.54V469l-2.65.08v-2.21a6.81,6.81,0,0,0-1.49-.12,4.61,4.61,0,0,0-1.34.24,3.39,3.39,0,0,0-1.18.68,3.52,3.52,0,0,0-.84,1.14,3.72,3.72,0,0,0-.33,1.62,3.65,3.65,0,0,0,.26,1.41,3.24,3.24,0,0,0,.75,1.11,3.29,3.29,0,0,0,1.19.72,4.26,4.26,0,0,0,1.58.23,5.75,5.75,0,0,0,2.25-.45,9.35,9.35,0,0,0,1.31-.71Z"/><path d="M424.67,466.68l-2.39.08v-2.64l2.39-.08v-2.74l3.13-1v3.62l6.31-.24v2.64l-6.31.24c0,1.37,0,2.06,0,3.43a4,4,0,0,0,.7,2.65,2.33,2.33,0,0,0,2,.76,4.22,4.22,0,0,0,1.18-.2,4.63,4.63,0,0,0,1-.43,5.71,5.71,0,0,0,.77-0.56l0.64-.55,1.45,2.1a4.88,4.88,0,0,1-1,.92,9.14,9.14,0,0,1-1.33.75,8.62,8.62,0,0,1-1.48.53,7.21,7.21,0,0,1-1.52.23,5,5,0,0,1-4.06-1.35q-1.36-1.45-1.36-4.72v-3.43Z"/><path d="M437.18,469.56a7.54,7.54,0,0,1,.46-2.71,5.85,5.85,0,0,1,1.3-2,5.91,5.91,0,0,1,2-1.32,7.93,7.93,0,0,1,2.61-.54,7.43,7.43,0,0,1,2.71.33,5.25,5.25,0,0,1,2,1.19,5.05,5.05,0,0,1,1.24,1.94,7.45,7.45,0,0,1,.42,2.57,7.54,7.54,0,0,1-.46,2.71,5.79,5.79,0,0,1-3.31,3.39,7.86,7.86,0,0,1-2.61.54,7.38,7.38,0,0,1-2.71-.33,5.26,5.26,0,0,1-2-1.2,5.09,5.09,0,0,1-1.24-2A7.47,7.47,0,0,1,437.18,469.56Zm3.23-.14a4.66,4.66,0,0,0,.22,1.45,3.39,3.39,0,0,0,.63,1.15,2.65,2.65,0,0,0,1,.74,3,3,0,0,0,1.33.22,3.2,3.2,0,0,0,2.28-1,4.86,4.86,0,0,0,.06-5.49,2.7,2.7,0,0,0-2.34-.91,3.84,3.84,0,0,0-1.25.26,2.62,2.62,0,0,0-1,.7,3.41,3.41,0,0,0-.66,1.18A5.25,5.25,0,0,0,440.41,469.43Z"/><path d="M451.73,472.25l3-.15v-6.72l-3,.15v-2.64l5.42-.28,0.36,1.56h0.1a6.91,6.91,0,0,1,1.54-1.4,4,4,0,0,1,2-.64,2.59,2.59,0,0,1,2.28.93,5.56,5.56,0,0,1,.83,3.48l-2.82.16a2.33,2.33,0,0,0-.25-1.25,0.84,0.84,0,0,0-.81-0.35,2.51,2.51,0,0,0-1.55.57,5.23,5.23,0,0,0-1,1.16v5.11l5.23-.29v2.64c-4.54.26-6.8,0.38-11.34,0.62v-2.64Z"/><path d="M466.66,471.42l4.24-.26v-6.72l-4.24.26v-2.64l7.37-.46c0,3.74,0,5.62,0,9.36l4.45-.29v2.64c-4.73.32-7.09,0.47-11.82,0.75v-2.64Zm3.66-12.85a1.81,1.81,0,0,1,.55-1.31,2.28,2.28,0,0,1,1.54-.63,2.24,2.24,0,0,1,1.61.43,1.53,1.53,0,0,1,.6,1.23,1.67,1.67,0,0,1-.6,1.3,2.61,2.61,0,0,1-1.61.6,2.13,2.13,0,0,1-1.54-.4A1.51,1.51,0,0,1,470.32,458.58Z"/><path d="M481.84,461.9a14.16,14.16,0,0,1,2.23-.9,13.09,13.09,0,0,1,3-.53,6.52,6.52,0,0,1,2.13.14,3.25,3.25,0,0,1,1.42.75,2.94,2.94,0,0,1,.78,1.26,5.62,5.62,0,0,1,.24,1.71q0,1.22-.08,2.09T491.47,468a10.08,10.08,0,0,0,0,1.12c0,0.22.06,0.44,0.07,0.64l1.56-.12v2.64l-4,.3L488.8,471h-0.12a4.61,4.61,0,0,1-1.36,1.38,4.81,4.81,0,0,1-2.39.71,3.83,3.83,0,0,1-2.85-.76,3.06,3.06,0,0,1-1.05-2.47,4,4,0,0,1,.37-1.77,3.44,3.44,0,0,1,1.08-1.27,5.54,5.54,0,0,1,1.7-.82,10.29,10.29,0,0,1,2.21-.38,9.05,9.05,0,0,1,.91,0h1.17a2.53,2.53,0,0,0,0-.48v-0.46a1.43,1.43,0,0,0-.52-1.27,2.45,2.45,0,0,0-1.55-.28,7.55,7.55,0,0,0-2.2.47,15.48,15.48,0,0,0-1.65.74Zm4.1,8.52a3,3,0,0,0,1.71-.54,3.14,3.14,0,0,0,.83-1v-1.44l-0.71-.06a8.2,8.2,0,0,0-1,0,5.12,5.12,0,0,0-.9.15,3.21,3.21,0,0,0-.81.32,1.77,1.77,0,0,0-.57.51,1.2,1.2,0,0,0-.21.71,1.28,1.28,0,0,0,.39,1A1.76,1.76,0,0,0,485.94,470.42Z"/><path d="M496.21,455.23l5.12-.41v11.09a4.9,4.9,0,0,0,.46,2.53,1.48,1.48,0,0,0,1.47.6,4.19,4.19,0,0,0,1.23-.26,5.13,5.13,0,0,0,1-.52l1.18,2.06q-0.41.3-.82,0.56a5.74,5.74,0,0,1-.87.46,6.24,6.24,0,0,1-1,.32,8.17,8.17,0,0,1-1.21.18,4.25,4.25,0,0,1-3.39-.88,4.15,4.15,0,0,1-1.13-3.17V457.71l-2,.16v-2.64Z"/><path d="M510.42,473.67c4.27-.37,6.4-0.56,10.67-1v2.57c-4.27.4-6.4,0.59-10.67,1v-2.57Z"/><path d="M523,452.93l4.85-.46v6.14h0.1a4.67,4.67,0,0,1,1.54-1.37,5.61,5.61,0,0,1,2.26-.68,5.48,5.48,0,0,1,1.68.07,2.81,2.81,0,0,1,1.32.66,3.28,3.28,0,0,1,.86,1.41,7.26,7.26,0,0,1,.31,2.31v7.46l-3.12.32V462a2.74,2.74,0,0,0-.62-2,2,2,0,0,0-1.63-.49,3,3,0,0,0-1.63.7,3.37,3.37,0,0,0-1.06,1.48c0,3.06,0,4.59,0,7.66l-3.12.3V455.41l-1.73.16v-2.64Z"/><path d="M550.19,465.67a5,5,0,0,1-.8.65,8.77,8.77,0,0,1-1.15.64,9.79,9.79,0,0,1-3.13.87,7.84,7.84,0,0,1-2.75-.14,4.66,4.66,0,0,1-3.34-2.9,7,7,0,0,1-.44-2.61,7.45,7.45,0,0,1,.5-2.82,6.4,6.4,0,0,1,1.38-2.12,6.66,6.66,0,0,1,2.05-1.4,8.5,8.5,0,0,1,2.54-.67,7.71,7.71,0,0,1,1.89,0,4.59,4.59,0,0,1,1.79.63,3.77,3.77,0,0,1,1.33,1.42,5,5,0,0,1,.52,2.44,11.81,11.81,0,0,1-.24,2.26l-8.64.93a2.56,2.56,0,0,0,.32,1.26,2.2,2.2,0,0,0,.79.78,3.09,3.09,0,0,0,1.13.37,5.56,5.56,0,0,0,1.36,0,7.43,7.43,0,0,0,2.36-.59,5.77,5.77,0,0,0,1.5-1Zm-5.18-8a4.23,4.23,0,0,0-1.18.3,3.75,3.75,0,0,0-1,.61,3.2,3.2,0,0,0-.73.9,2.76,2.76,0,0,0-.34,1.14l5.91-.63a2.39,2.39,0,0,0-.66-1.82A2.42,2.42,0,0,0,545,457.67Z"/><path d="M553.86,449.73l5.11-.59v11.09a4.82,4.82,0,0,0,.46,2.52,1.42,1.42,0,0,0,1.46.55,4.27,4.27,0,0,0,1.22-.3,5.35,5.35,0,0,0,1-.56l1.18,2q-0.41.31-.82,0.59a6,6,0,0,1-.86.49,6.42,6.42,0,0,1-1,.36,8.28,8.28,0,0,1-1.21.23,4.13,4.13,0,0,1-3.38-.76,4,4,0,0,1-1.13-3.13V452.15l-2,.23v-2.64Z"/><path d="M566.16,453.1l4.08-.5,0.36,1.4h0.1a5.27,5.27,0,0,1,4-2.28,5.5,5.5,0,0,1,2,.09,3.34,3.34,0,0,1,1.58.89,4.37,4.37,0,0,1,1,1.74,8.54,8.54,0,0,1,.36,2.67,9.35,9.35,0,0,1-.41,2.82,6.9,6.9,0,0,1-1.17,2.25,6,6,0,0,1-1.87,1.56,7.1,7.1,0,0,1-2.52.77,9.69,9.69,0,0,1-1.46.07,3.68,3.68,0,0,1-1.2-.2c0,2,0,3,0,4.92l-3.12.38V455.52l-1.8.22V453.1Zm7.62,1.37a3.54,3.54,0,0,0-1.67.66,2.81,2.81,0,0,0-1,1.5v5a2.26,2.26,0,0,0,1,.3,5.2,5.2,0,0,0,1.28,0,3.64,3.64,0,0,0,1.25-.38,3,3,0,0,0,1-.86,4.12,4.12,0,0,0,.67-1.36,6.56,6.56,0,0,0,.24-1.88,3.2,3.2,0,0,0-.77-2.35A2.21,2.21,0,0,0,573.79,454.46Z"/><path d="M593.33,460.32a5.17,5.17,0,0,1-.8.67,9.06,9.06,0,0,1-1.15.67,10.06,10.06,0,0,1-1.45.58,9.91,9.91,0,0,1-1.68.37,7.78,7.78,0,0,1-2.74-.07,4.48,4.48,0,0,1-3.33-2.81,7,7,0,0,1-.44-2.59,7.57,7.57,0,0,1,.5-2.84,6.63,6.63,0,0,1,1.38-2.16,6.89,6.89,0,0,1,2-1.46,8.63,8.63,0,0,1,2.54-.73,7.67,7.67,0,0,1,1.88,0,4.47,4.47,0,0,1,1.78.59,3.63,3.63,0,0,1,1.33,1.39,4.92,4.92,0,0,1,.52,2.43,11.93,11.93,0,0,1-.24,2.27l-8.62,1.16a2.52,2.52,0,0,0,.32,1.25,2.12,2.12,0,0,0,.79.76,3,3,0,0,0,1.13.34,5.53,5.53,0,0,0,1.35,0,7.54,7.54,0,0,0,2.36-.65,6,6,0,0,0,1.5-1Zm-5.17-7.87a4.31,4.31,0,0,0-1.17.33,3.88,3.88,0,0,0-1,.63,3.34,3.34,0,0,0-.73.92,2.82,2.82,0,0,0-.34,1.14l5.89-.79a2.33,2.33,0,0,0-.66-1.81A2.37,2.37,0,0,0,588.16,452.46Z"/><path d="M595.84,458.61l3-.41v-6.72l-3,.41v-2.64l5.38-.76,0.36,1.53h0.1a7.84,7.84,0,0,1,1.53-1.54,4.29,4.29,0,0,1,2-.82,2.37,2.37,0,0,1,2.26.73,5.26,5.26,0,0,1,.83,3.41l-2.8.41a2.22,2.22,0,0,0-.25-1.22,0.76,0.76,0,0,0-.8-0.28,2.72,2.72,0,0,0-1.54.7,5.94,5.94,0,0,0-1,1.25v5.11l5.19-.75v2.64c-4.51.66-6.76,1-11.27,1.6v-2.64Z"/><path d="M620.14,462.78a9.89,9.89,0,0,1-3.25-.56,7.71,7.71,0,0,1-2.8-1.71,8.34,8.34,0,0,1-1.95-3,11.65,11.65,0,0,1-.73-4.36,13.47,13.47,0,0,1,.73-4.56A12.67,12.67,0,0,1,614.1,445a12.11,12.11,0,0,1,2.8-2.61,13.92,13.92,0,0,1,3.25-1.63l0.57,2.48a11.74,11.74,0,0,0-1.9,1,8.67,8.67,0,0,0-2,1.77,9.83,9.83,0,0,0-1.61,2.75,10.55,10.55,0,0,0-.66,3.94,8.19,8.19,0,0,0,.69,3.62,6.65,6.65,0,0,0,1.69,2.23,6.08,6.08,0,0,0,2,1.15,7.2,7.2,0,0,0,1.77.36Z"/><path d="M626.14,454.12l3.65-.58V443L626.64,446l-1.43-1.69,5.45-5,2.1-.34v14.16l3.58-.58c0,1.06,0,1.58,0,2.64-4.08.67-6.12,1-10.2,1.64v-2.64Z"/><path d="M643.13,452.45a2,2,0,0,1,.54-1.39,2.33,2.33,0,0,1,1.35-.71,2,2,0,0,1,2,.53,2.93,2.93,0,0,1,.67,2,5.06,5.06,0,0,1-.42,2,6.58,6.58,0,0,1-1.08,1.72,7.52,7.52,0,0,1-1.49,1.31,7.25,7.25,0,0,1-1.63.83l-0.64-1.21a8.39,8.39,0,0,0,1.16-.6,6,6,0,0,0,1.06-.84,4.74,4.74,0,0,0,.8-1.06,3,3,0,0,0,.37-1.22,3.19,3.19,0,0,1-1.22.24,1.56,1.56,0,0,1-.82-0.24,1.25,1.25,0,0,1-.47-0.59A2.3,2.3,0,0,1,643.13,452.45Z"/><path d="M657.89,449a5.81,5.81,0,0,0,1.45-.45,4.53,4.53,0,0,0,1.16-.76,3.32,3.32,0,0,0,.76-1,2.88,2.88,0,0,0,.27-1.25,2,2,0,0,0-1-1.89,4.86,4.86,0,0,0-3.11-.2l-0.61.12-0.66.15-0.74.15v-8.78l8.62-1.54v2.93l-6,1.07v3.24l0.38-.09,0.32-.07,0.27-.06a6.63,6.63,0,0,1,2.22,0,4.07,4.07,0,0,1,1.79.72,3.66,3.66,0,0,1,1.18,1.48,5.08,5.08,0,0,1,.42,2.12,6.22,6.22,0,0,1-.52,2.58,6.66,6.66,0,0,1-1.43,2,8.1,8.1,0,0,1-2.1,1.47,9.53,9.53,0,0,1-2.55.83,6.27,6.27,0,0,1-1.12.09c-0.4,0-.79,0-1.17-0.06a9.18,9.18,0,0,1-1.06-.16,8.23,8.23,0,0,1-.82-0.22l1-2.67a6,6,0,0,0,1.25.31A5.23,5.23,0,0,0,657.89,449Z"/><path d="M669.39,451.82a9.89,9.89,0,0,0,1.76-1,9.75,9.75,0,0,0,2-1.84,10.62,10.62,0,0,0,1.68-2.8,9.88,9.88,0,0,0,.69-3.85,8.92,8.92,0,0,0-.65-3.72,6.21,6.21,0,0,0-1.61-2.21,5.4,5.4,0,0,0-2-1.09,8.62,8.62,0,0,0-1.89-.33l0.57-2.67a10.29,10.29,0,0,1,3.24.53,7.46,7.46,0,0,1,2.78,1.66,8.14,8.14,0,0,1,1.94,2.93,11.51,11.51,0,0,1,.73,4.31,13.78,13.78,0,0,1-.73,4.6A13,13,0,0,1,676,450a12.47,12.47,0,0,1-2.78,2.66,13.28,13.28,0,0,1-3.24,1.66Z"/><path d="M56.15,395.75v-2.64L59,393.64v-6.72l-2.83-.54v-2.64L59,384.28v-0.67a4,4,0,0,1,.39-1.87,3,3,0,0,1,1-1.15,3.45,3.45,0,0,1,1.49-.5,5.94,5.94,0,0,1,1.75.07,12.29,12.29,0,0,1,2.7.78,8.54,8.54,0,0,1,1.75,1l-0.9,2.21a13.36,13.36,0,0,0-1.18-.7,5.78,5.78,0,0,0-1.63-.52,2,2,0,0,0-1.8.25,2.25,2.25,0,0,0-.51,1.67l5,0.93v2.64l-5-.93v6.72l5,0.93v2.64C62.7,397,60.52,396.58,56.15,395.75Z"/><path d="M70.89,387.31a11.45,11.45,0,0,1,2.2-.35,12.34,12.34,0,0,1,3,.22,7.37,7.37,0,0,1,2.11.67,4.51,4.51,0,0,1,1.41,1.1,4,4,0,0,1,.77,1.46,6.26,6.26,0,0,1,.24,1.77q0,1.22-.08,2.07t-0.08,1.52a10.69,10.69,0,0,0,0,1.14c0,0.22.06,0.45,0.07,0.66l1.55,0.27v2.64l-4-.7-0.31-1.69-0.12,0a3.19,3.19,0,0,1-1.35,1,4.16,4.16,0,0,1-2.37.12,4.82,4.82,0,0,1-2.82-1.47,3.93,3.93,0,0,1-1-2.73,3.43,3.43,0,0,1,.37-1.67,2.37,2.37,0,0,1,1.06-1,4.31,4.31,0,0,1,1.68-.39,9.7,9.7,0,0,1,2.19.16q0.43,0.08.9,0.21l1.16,0.3a2.34,2.34,0,0,0,0-.47v-0.46a1.83,1.83,0,0,0-.52-1.4,3,3,0,0,0-1.54-.67,6.93,6.93,0,0,0-2.18-.08,12.15,12.15,0,0,0-1.63.33Zm4.05,9.54a2.59,2.59,0,0,0,1.7-.12,2.18,2.18,0,0,0,.82-0.75v-1.44l-0.71-.23a8.71,8.71,0,0,0-1-.24,4.88,4.88,0,0,0-.9-0.08,2.61,2.61,0,0,0-.8.12,1.23,1.23,0,0,0-.57.37,1,1,0,0,0-.21.66,1.62,1.62,0,0,0,.39,1.11A2.17,2.17,0,0,0,74.94,396.84Z"/><path d="M96.06,401.71a5.73,5.73,0,0,1-2.29.74,9.69,9.69,0,0,1-2.74-.09,8.69,8.69,0,0,1-2.75-.92,7.1,7.1,0,0,1-2-1.63A6.81,6.81,0,0,1,85,397.58a8.16,8.16,0,0,1-.43-2.67,6.2,6.2,0,0,1,.5-2.6,4.45,4.45,0,0,1,1.39-1.75,4.91,4.91,0,0,1,2.11-.88,7.82,7.82,0,0,1,2.65,0,10.77,10.77,0,0,1,2.51.73,13.82,13.82,0,0,1,1.79.9v4.22l-2.62-.44v-2.21a7.4,7.4,0,0,0-1.48-.42,4.31,4.31,0,0,0-1.32,0,2.59,2.59,0,0,0-2,1.42,3.34,3.34,0,0,0-.32,1.55,4.08,4.08,0,0,0,.26,1.46,4.18,4.18,0,0,0,1.92,2.21,4.77,4.77,0,0,0,1.56.54,5.3,5.3,0,0,0,2.23,0,7.36,7.36,0,0,0,1.3-.46Z"/><path d="M100.12,394.16l-2.36-.39v-2.64l2.36,0.39v-2.74l3.1-.38c0,1.45,0,2.17,0,3.62l6.26,1v2.64l-6.26-1v3.43a4.67,4.67,0,0,0,.69,2.79,2.86,2.86,0,0,0,1.93,1.14,4,4,0,0,0,1.17,0,3.79,3.79,0,0,0,.94-0.25,4.36,4.36,0,0,0,.76-0.41l0.63-.43,1.43,2.39a3.66,3.66,0,0,1-1,.72,7.21,7.21,0,0,1-1.31.49,7.41,7.41,0,0,1-1.47.24,6.9,6.9,0,0,1-1.5-.07,6.1,6.1,0,0,1-4-2.15,7.93,7.93,0,0,1-1.35-5v-3.43Z"/><path d="M112.51,399.5a6.87,6.87,0,0,1,.45-2.62,4.46,4.46,0,0,1,1.29-1.79,4.56,4.56,0,0,1,2-.93,7.33,7.33,0,0,1,2.59,0,8.29,8.29,0,0,1,2.69.86,6.83,6.83,0,0,1,2,1.58,6.55,6.55,0,0,1,1.23,2.19,8.24,8.24,0,0,1,.42,2.65,6.9,6.9,0,0,1-.45,2.62,4.5,4.5,0,0,1-1.29,1.8,4.55,4.55,0,0,1-2,.94,7.27,7.27,0,0,1-2.59,0,8.23,8.23,0,0,1-2.69-.87,6.84,6.84,0,0,1-2-1.59,6.58,6.58,0,0,1-1.23-2.19A8.26,8.26,0,0,1,112.51,399.5Zm3.2,0.49a5.1,5.1,0,0,0,.21,1.5,4.31,4.31,0,0,0,.62,1.27,3.51,3.51,0,0,0,1,.93,3.36,3.36,0,0,0,1.31.48,2.67,2.67,0,0,0,2.26-.55,3.41,3.41,0,0,0,.87-2.68,4.7,4.7,0,0,0-.81-2.8,3.32,3.32,0,0,0-2.32-1.37,3.55,3.55,0,0,0-1.24,0,2,2,0,0,0-1,.51,2.64,2.64,0,0,0-.66,1.05A4.86,4.86,0,0,0,115.71,400Z"/><path d="M126.95,405l3,0.43v-6.72l-3-.43v-2.64l5.38,0.78,0.36,1.64h0.1a5.16,5.16,0,0,1,1.53-1.1,3.5,3.5,0,0,1,2-.24,3.2,3.2,0,0,1,2.26,1.37,6.39,6.39,0,0,1,.83,3.64l-2.8-.39a2.64,2.64,0,0,0-.25-1.3,1,1,0,0,0-.8-0.51,2.15,2.15,0,0,0-1.54.26,3.91,3.91,0,0,0-1,1v5.11l5.19,0.73v2.64c-4.51-.63-6.76-0.95-11.27-1.61V405Z"/><path d="M141.78,407.14l4.21,0.57V401l-4.21-.57v-2.64l7.33,1v9.36l4.43,0.58v2.64c-4.71-.61-7.06-0.92-11.76-1.57v-2.64ZM145.42,395a1.48,1.48,0,0,1,.55-1.2,1.92,1.92,0,0,1,1.53-.32,2.67,2.67,0,0,1,1.6.74,1.89,1.89,0,0,1,.6,1.35,1.35,1.35,0,0,1-.6,1.18,2.24,2.24,0,0,1-1.6.28,2.53,2.53,0,0,1-1.53-.7A1.85,1.85,0,0,1,145.42,395Z"/><path d="M156.9,400.59a11.93,11.93,0,0,1,2.22-.46,12.41,12.41,0,0,1,3,.06,7.13,7.13,0,0,1,2.12.56,4.2,4.2,0,0,1,1.41,1,3.78,3.78,0,0,1,.78,1.42,6.09,6.09,0,0,1,.24,1.76q0,1.22-.08,2.08c-0.06.57-.08,1.08-0.08,1.53a10.54,10.54,0,0,0,0,1.13c0,0.22.06,0.45,0.07,0.66l1.56,0.19v2.64l-4-.49L163.82,411H163.7a3.45,3.45,0,0,1-1.36,1.12,4.26,4.26,0,0,1-2.38.24,4.57,4.57,0,0,1-2.83-1.32,3.73,3.73,0,0,1-1-2.68,3.53,3.53,0,0,1,.37-1.69,2.58,2.58,0,0,1,1.07-1.06,4.54,4.54,0,0,1,1.69-.48,9.75,9.75,0,0,1,2.2,0q0.43,0.05.91,0.16l1.17,0.24a2.36,2.36,0,0,0,0-.47v-0.46a1.73,1.73,0,0,0-.52-1.37,2.83,2.83,0,0,0-1.55-.59,7,7,0,0,0-2.19,0,12.7,12.7,0,0,0-1.64.42Zm4.08,9.32a2.67,2.67,0,0,0,1.71-.21,2.36,2.36,0,0,0,.83-0.8v-1.44l-0.71-.2a8.52,8.52,0,0,0-1-.19,4.88,4.88,0,0,0-.9,0,2.71,2.71,0,0,0-.81.16,1.33,1.33,0,0,0-.57.4,1,1,0,0,0-.21.67,1.54,1.54,0,0,0,.39,1.09A2.06,2.06,0,0,0,161,409.92Z"/><path d="M171.21,396.74l5.11,0.6c0,4.44,0,6.65,0,11.09a5.49,5.49,0,0,0,.46,2.62,1.83,1.83,0,0,0,1.46.89,3.9,3.9,0,0,0,1.22,0,4.12,4.12,0,0,0,1-.34l1.18,2.29q-0.41.22-.82,0.4a4.7,4.7,0,0,1-.86.29,5.51,5.51,0,0,1-1,.13,7.84,7.84,0,0,1-1.21-.05,5.08,5.08,0,0,1-3.38-1.54,5,5,0,0,1-1.13-3.4V399.62l-2-.24C171.21,398.33,171.21,397.8,171.21,396.74Z"/><path d="M185.38,418c4.26,0.47,6.39.7,10.66,1.14v2.57c-4.26-.44-6.4-0.67-10.66-1.14V418Z"/><path d="M197.92,399.7l4.85,0.49c0,2.46,0,3.69,0,6.14h0.1a3.53,3.53,0,0,1,1.54-1.07,5,5,0,0,1,2.26-.24,6,6,0,0,1,1.68.4,3.62,3.62,0,0,1,1.32.92,4.21,4.21,0,0,1,.87,1.58,7.87,7.87,0,0,1,.31,2.37v7.46l-3.12-.3v-6.82a3.21,3.21,0,0,0-.62-2.17,2.4,2.4,0,0,0-1.63-.81,2.53,2.53,0,0,0-1.63.38,2.56,2.56,0,0,0-1.06,1.28V417l-3.12-.31V402.52l-1.73-.18V399.7Z"/><path d="M225.16,417.79a3.75,3.75,0,0,1-.81.49,7,7,0,0,1-1.15.42,8.43,8.43,0,0,1-1.45.26,9.25,9.25,0,0,1-1.68,0,8.57,8.57,0,0,1-2.75-.68,6.13,6.13,0,0,1-3.34-3.56,7.73,7.73,0,0,1-.44-2.69,6.71,6.71,0,0,1,.5-2.73,4.87,4.87,0,0,1,1.38-1.85,5.18,5.18,0,0,1,2.06-1,7.75,7.75,0,0,1,2.55-.17,8.25,8.25,0,0,1,1.89.41,5.72,5.72,0,0,1,1.79,1,5,5,0,0,1,1.33,1.69,5.63,5.63,0,0,1,.52,2.54,11.13,11.13,0,0,1-.24,2.21l-8.65-.77a2.83,2.83,0,0,0,1.12,2.26,3.8,3.8,0,0,0,1.13.59,5.89,5.89,0,0,0,1.36.28,6.82,6.82,0,0,0,2.37-.13,4.51,4.51,0,0,0,1.5-.68Zm-5.19-9a3.89,3.89,0,0,0-1.18.07,3,3,0,0,0-1,.41,2.4,2.4,0,0,0-.73.75,2.34,2.34,0,0,0-.34,1.07l5.91,0.53a2.86,2.86,0,0,0-.66-2A2.89,2.89,0,0,0,220,408.77Z"/><path d="M228.84,402.58L234,403v11.09a5.36,5.36,0,0,0,.46,2.61,1.76,1.76,0,0,0,1.47.84,3.93,3.93,0,0,0,1.23-.06,4.27,4.27,0,0,0,1-.37l1.18,2.25q-0.41.23-.82,0.43a4.81,4.81,0,0,1-.87.32,5.61,5.61,0,0,1-1,.16,7.91,7.91,0,0,1-1.21,0,4.91,4.91,0,0,1-3.39-1.43,4.8,4.8,0,0,1-1.13-3.36V405.38l-2-.17v-2.64Z"/><path d="M241.18,408.37l4.09,0.31,0.36,1.47h0.1a4.29,4.29,0,0,1,4-1.48,6,6,0,0,1,2,.49,4.37,4.37,0,0,1,1.59,1.2,5.59,5.59,0,0,1,1,1.94,9.2,9.2,0,0,1,.36,2.74,8.55,8.55,0,0,1-.41,2.74,5.4,5.4,0,0,1-1.18,2,4.6,4.6,0,0,1-1.88,1.19,6.37,6.37,0,0,1-2.53.28,10.12,10.12,0,0,1-1.47-.21,4.31,4.31,0,0,1-1.2-.44v4.92L243,425.3V411.14l-1.8-.14v-2.64Zm7.65,2.87a3,3,0,0,0-1.67.34,2.14,2.14,0,0,0-1,1.29v5a2.79,2.79,0,0,0,1,.49,5.54,5.54,0,0,0,1.29.25,3.26,3.26,0,0,0,1.25-.14,2.32,2.32,0,0,0,1-.66,3.25,3.25,0,0,0,.67-1.23,6.07,6.07,0,0,0,.24-1.83,3.77,3.77,0,0,0-.77-2.5A2.7,2.7,0,0,0,248.83,411.23Z"/><path d="M268.47,420.95a3.92,3.92,0,0,1-.81.52,7.25,7.25,0,0,1-1.15.45,8.59,8.59,0,0,1-1.46.3,9.29,9.29,0,0,1-1.69,0,8.44,8.44,0,0,1-2.76-.61,5.91,5.91,0,0,1-3.35-3.47,7.63,7.63,0,0,1-.44-2.68,6.8,6.8,0,0,1,.51-2.74,5.06,5.06,0,0,1,1.38-1.89,5.35,5.35,0,0,1,2.06-1.05,7.83,7.83,0,0,1,2.55-.23,8.16,8.16,0,0,1,1.89.36,5.55,5.55,0,0,1,1.79.94,4.85,4.85,0,0,1,1.34,1.65,5.52,5.52,0,0,1,.52,2.53,11.17,11.17,0,0,1-.24,2.22l-8.67-.54a2.88,2.88,0,0,0,.32,1.32,2.83,2.83,0,0,0,.79.92,3.71,3.71,0,0,0,1.13.56,5.85,5.85,0,0,0,1.36.24,6.87,6.87,0,0,0,2.37-.19,4.66,4.66,0,0,0,1.5-.72Zm-5.2-8.89a3.92,3.92,0,0,0-1.18.1,3.06,3.06,0,0,0-1,.44,2.5,2.5,0,0,0-.73.77,2.4,2.4,0,0,0-.34,1.08l5.92,0.37a2.78,2.78,0,0,0-.66-1.94A2.82,2.82,0,0,0,263.27,412.06Z"/><path d="M271,419.73l3,0.17v-6.72l-3-.17v-2.64l5.42,0.31,0.36,1.6h0.1a5.89,5.89,0,0,1,1.54-1.24,3.69,3.69,0,0,1,2-.42,2.9,2.9,0,0,1,2.28,1.17,6,6,0,0,1,.83,3.57l-2.82-.14a2.49,2.49,0,0,0-.25-1.27,0.94,0.94,0,0,0-.81-0.44,2.29,2.29,0,0,0-1.55.4,4.45,4.45,0,0,0-1,1.05v5.11l5.23,0.28V423c-4.54-.23-6.81-0.36-11.34-0.62v-2.64Z"/><path d="M295.46,428.7a11.6,11.6,0,0,1-3.28-1.2,10.22,10.22,0,0,1-2.82-2.27,10.81,10.81,0,0,1-2-3.36,12.73,12.73,0,0,1-.73-4.5,12.18,12.18,0,0,1,.73-4.42,9.82,9.82,0,0,1,2-3.21,9.15,9.15,0,0,1,2.82-2.05,11.53,11.53,0,0,1,3.28-1l0.58,2.59a9.67,9.67,0,0,0-1.92.6,6.58,6.58,0,0,0-2,1.37,7.55,7.55,0,0,0-1.63,2.43,9.49,9.49,0,0,0-.66,3.81,9.07,9.07,0,0,0,.7,3.75,8.76,8.76,0,0,0,1.7,2.56,8,8,0,0,0,2.06,1.56,8.56,8.56,0,0,0,1.78.71Z"/><path d="M301.51,421.22l3.69,0.14V410.87l-3.18,2.3-1.45-2,5.49-4,2.12,0.08v14.16l3.61,0.13v2.64c-4.12-.14-6.17-0.21-10.29-0.38v-2.64Z"/><path d="M318.67,422.92a1.59,1.59,0,0,1,.54-1.28,1.93,1.93,0,0,1,1.36-.44,2.46,2.46,0,0,1,2,.92,3.45,3.45,0,0,1,.67,2.15,4.46,4.46,0,0,1-.42,2,5,5,0,0,1-1.1,1.51,5.7,5.7,0,0,1-1.51,1,6,6,0,0,1-1.65.5l-0.65-1.34a6.86,6.86,0,0,0,1.17-.37,4.55,4.55,0,0,0,1.07-.63A3.55,3.55,0,0,0,321,426a2.49,2.49,0,0,0,.37-1.14,3.08,3.08,0,0,1-1.23,0,1.93,1.93,0,0,1-.83-0.41,1.64,1.64,0,0,1-.47-0.69A2.51,2.51,0,0,1,318.67,422.92Z"/><path d="M333.58,422.4a5.27,5.27,0,0,0,1.47-.16,3.59,3.59,0,0,0,1.17-.53,2.44,2.44,0,0,0,1-2.07,2.47,2.47,0,0,0-1-2.1,5.47,5.47,0,0,0-3.15-.82h-0.61l-0.66,0h-0.75V408l8.73,0.17v2.93l-6-.11v3.24l0.39,0h0.6a7.1,7.1,0,0,1,2.24.39,5.21,5.21,0,0,1,1.81,1.08,4.84,4.84,0,0,1,1.19,1.71,5.62,5.62,0,0,1,.42,2.2,5.47,5.47,0,0,1-.53,2.48,5,5,0,0,1-1.45,1.76,6.35,6.35,0,0,1-2.12,1.05,8.6,8.6,0,0,1-2.58.32,6.43,6.43,0,0,1-1.13-.13q-0.6-.12-1.18-0.29a10.7,10.7,0,0,1-1.07-.37q-0.49-.2-0.83-0.38l1-2.47a7.39,7.39,0,0,0,1.27.56A5.62,5.62,0,0,0,333.58,422.4Z"/><path d="M345.22,427.49a8.12,8.12,0,0,0,1.78-.61,7.41,7.41,0,0,0,2.06-1.44,8.12,8.12,0,0,0,1.7-2.47,8.79,8.79,0,0,0,.7-3.71,9.76,9.76,0,0,0-.66-3.85,8.15,8.15,0,0,0-1.63-2.52,7.13,7.13,0,0,0-2-1.49,10.21,10.21,0,0,0-1.92-.71l0.58-2.56a12.13,12.13,0,0,1,3.28,1.17,9.92,9.92,0,0,1,2.82,2.21,10.57,10.57,0,0,1,2,3.32,13.89,13.89,0,0,1,0,8.92,10,10,0,0,1-2,3.25,9.42,9.42,0,0,1-2.82,2.11,11,11,0,0,1-3.28,1Z"/><path d="M538.31,413.71l3-.31v-6.72l-3,.31v-2.64l5.4-.57,0.36,1.55h0.1a7.47,7.47,0,0,1,1.54-1.49,4.17,4.17,0,0,1,2-.75,2.45,2.45,0,0,1,2.27.81,5.38,5.38,0,0,1,.83,3.44l-2.81.31a2.27,2.27,0,0,0-.25-1.23,0.79,0.79,0,0,0-.8-0.31,2.63,2.63,0,0,0-1.55.65,5.65,5.65,0,0,0-1,1.21v5.11l5.21-.57v2.64c-4.52.5-6.78,0.74-11.31,1.21v-2.64Z"/><path d="M564.58,412.15a5,5,0,0,1-.8.66,8.84,8.84,0,0,1-1.15.65,9.85,9.85,0,0,1-3.13.9,7.83,7.83,0,0,1-2.75-.11,4.6,4.6,0,0,1-3.34-2.87,7,7,0,0,1-.44-2.6,7.49,7.49,0,0,1,.5-2.83,6.48,6.48,0,0,1,1.38-2.14,6.73,6.73,0,0,1,2.05-1.42,8.54,8.54,0,0,1,2.54-.69,7.7,7.7,0,0,1,1.88,0,4.55,4.55,0,0,1,1.79.62,3.73,3.73,0,0,1,1.33,1.41,5,5,0,0,1,.52,2.43,11.86,11.86,0,0,1-.24,2.26l-8.63,1a2.54,2.54,0,0,0,.32,1.26,2.18,2.18,0,0,0,.79.77,3.07,3.07,0,0,0,1.13.36,5.54,5.54,0,0,0,1.35,0,7.46,7.46,0,0,0,2.36-.61,5.83,5.83,0,0,0,1.5-1Zm-5.18-8a4.26,4.26,0,0,0-1.18.31,3.79,3.79,0,0,0-1,.62,3.26,3.26,0,0,0-.73.9,2.79,2.79,0,0,0-.34,1.14l5.9-.69a2.37,2.37,0,0,0-.66-1.82A2.41,2.41,0,0,0,559.4,404.19Z"/><path d="M579.25,410.45a8,8,0,0,1-2.3,1.41,10.78,10.78,0,0,1-2.76.72,7.5,7.5,0,0,1-2.77-.11,4.82,4.82,0,0,1-2-1,4.62,4.62,0,0,1-1.26-1.85,7,7,0,0,1-.43-2.54,7.23,7.23,0,0,1,.5-2.75,6.69,6.69,0,0,1,1.4-2.16,7.13,7.13,0,0,1,2.12-1.5,8.86,8.86,0,0,1,2.66-.75,9.6,9.6,0,0,1,2.52,0,10.55,10.55,0,0,1,1.8.37v4.22l-2.64.34V402.6a6.66,6.66,0,0,0-1.49,0,4.86,4.86,0,0,0-1.33.37,3.83,3.83,0,0,0-1.17.79,4,4,0,0,0-.84,1.22,4,4,0,0,0-.32,1.65,3.48,3.48,0,0,0,.26,1.38,2.84,2.84,0,0,0,.74,1,2.89,2.89,0,0,0,1.19.61,4.1,4.1,0,0,0,1.57.08,6.09,6.09,0,0,0,2.24-.67,10.52,10.52,0,0,0,1.31-.84Z"/><path d="M588.45,398.39l4.45-.6v9.36l1.82-.25v2.64l-3.78.52-0.55-1.7h-0.1a5.16,5.16,0,0,1-1.65,1.74,5.6,5.6,0,0,1-2.44.93,5.28,5.28,0,0,1-1.66,0,2.53,2.53,0,0,1-1.28-.62,3.11,3.11,0,0,1-.81-1.38,7.77,7.77,0,0,1-.29-2.31v-4.82l-1.37.18V399.4l4.48-.59v6.82a3.37,3.37,0,0,0,.47,2,1.49,1.49,0,0,0,1.47.45,3,3,0,0,0,1.59-.74,3.42,3.42,0,0,0,1-1.43v-5.11l-1.34.18C588.45,400,588.45,399.45,588.45,398.39Z"/><path d="M595.85,406.74l3-.41v-6.72l-3,.41v-2.64l5.38-.76,0.36,1.53h0.1a7.85,7.85,0,0,1,1.53-1.54,4.29,4.29,0,0,1,2-.82,2.37,2.37,0,0,1,2.26.73,5.26,5.26,0,0,1,.83,3.41l-2.8.41a2.23,2.23,0,0,0-.25-1.22,0.76,0.76,0,0,0-.8-0.28,2.72,2.72,0,0,0-1.54.7,5.94,5.94,0,0,0-1,1.25v5.11l5.19-.75v2.64c-4.51.66-6.76,1-11.27,1.6v-2.64Z"/><path d="M620.14,410.91a9.89,9.89,0,0,1-3.25-.56,7.71,7.71,0,0,1-2.8-1.71,8.33,8.33,0,0,1-1.95-3,11.65,11.65,0,0,1-.73-4.36,13.48,13.48,0,0,1,.73-4.56,12.67,12.67,0,0,1,1.95-3.59,12.11,12.11,0,0,1,2.8-2.61,13.93,13.93,0,0,1,3.25-1.63l0.57,2.48a11.73,11.73,0,0,0-1.9,1,8.67,8.67,0,0,0-2,1.77,9.83,9.83,0,0,0-1.61,2.75,10.55,10.55,0,0,0-.66,3.94,8.19,8.19,0,0,0,.69,3.62,6.65,6.65,0,0,0,1.69,2.23,6.08,6.08,0,0,0,2,1.15,7.2,7.2,0,0,0,1.77.36Z"/><path d="M629.27,402a5.75,5.75,0,0,0,1.46-.43,4.44,4.44,0,0,0,1.16-.74,3.24,3.24,0,0,0,.76-1,2.84,2.84,0,0,0,.27-1.24,2,2,0,0,0-1-1.91,4.9,4.9,0,0,0-3.12-.26l-0.61.11-0.66.14-0.74.14c0-3.51,0-5.27,0-8.78l8.64-1.39v2.93l-6,1v3.24l0.38-.09,0.32-.06,0.27-.06a6.66,6.66,0,0,1,2.22,0,4.16,4.16,0,0,1,1.79.75,3.75,3.75,0,0,1,1.18,1.5,5.12,5.12,0,0,1,.42,2.13,6.14,6.14,0,0,1-.53,2.57,6.5,6.5,0,0,1-1.43,2,7.92,7.92,0,0,1-2.1,1.43,9.43,9.43,0,0,1-2.56.78,6.28,6.28,0,0,1-1.12.07c-0.4,0-.79,0-1.17-0.08a9.29,9.29,0,0,1-1.06-.18,8.42,8.42,0,0,1-.82-0.23l1-2.65a6.15,6.15,0,0,0,1.25.33A5.26,5.26,0,0,0,629.27,402Z"/><path d="M643.14,400.58a2,2,0,0,1,.54-1.39,2.33,2.33,0,0,1,1.35-.71,2,2,0,0,1,2,.53,2.93,2.93,0,0,1,.67,2,5.07,5.07,0,0,1-.42,2,6.6,6.6,0,0,1-1.08,1.72,7.53,7.53,0,0,1-1.49,1.31,7.22,7.22,0,0,1-1.63.83l-0.64-1.21a8.32,8.32,0,0,0,1.16-.6,5.91,5.91,0,0,0,1.06-.84,4.71,4.71,0,0,0,.8-1.06,3,3,0,0,0,.37-1.22,3.19,3.19,0,0,1-1.22.24,1.56,1.56,0,0,1-.82-0.24,1.24,1.24,0,0,1-.46-0.59A2.3,2.3,0,0,1,643.14,400.58Z"/><path d="M666,393.43l-2.86.52v4.68l-2.88.52v-4.68L653,395.74v-2.14l7.55-11.44,2.55-.46v9.74l2.86-.52v2.5Zm-5.74-6.79-4.15,6.07,4.15-.74v-5.33Z"/><path d="M669.39,400a9.88,9.88,0,0,0,1.76-1,9.74,9.74,0,0,0,2-1.84,10.62,10.62,0,0,0,1.68-2.8,9.88,9.88,0,0,0,.69-3.85,8.92,8.92,0,0,0-.65-3.72,6.21,6.21,0,0,0-1.61-2.21,5.4,5.4,0,0,0-2-1.09,8.62,8.62,0,0,0-1.89-.33l0.57-2.67a10.29,10.29,0,0,1,3.24.53,7.46,7.46,0,0,1,2.78,1.66,8.14,8.14,0,0,1,1.94,2.93,11.5,11.5,0,0,1,.72,4.31,13.79,13.79,0,0,1-.72,4.6,13,13,0,0,1-1.94,3.63,12.46,12.46,0,0,1-2.78,2.66,13.28,13.28,0,0,1-3.24,1.66Z"/></svg>