<svg id="Layer_1" data-name="Layer 1" xmlns="http://www.w3.org/2000/svg" viewBox="0 0 720 576"><defs><style>.cls-1,.cls-2,.cls-4,.cls-6{fill:#231f20;}.cls-1,.cls-3{stroke:#231f20;}.cls-1,.cls-6{stroke-miterlimit:10;}.cls-1,.cls-2,.cls-3{stroke-width:2px;}.cls-2{stroke:#000;}.cls-2,.cls-3{stroke-linecap:round;stroke-linejoin:round;}.cls-3,.cls-5{fill:#fff;}.cls-6{stroke:#fff;}</style></defs><title>Hanoi_Tower_Set_5_Final</title><path class="cls-1" d="M687.77,506.49c0-.14,0-0.29,0-0.43s0-.29,0-0.43V453.84H41.89s-0.25,51.74-.25,52.22c0,2.67,2.32,5.24,6.64,7.71,15.13,8.61,55.2,16.11,111,21.48s127.39,8.59,205.41,8.59c89.17,0,169.9-4.21,228.35-11,29.22-3.41,52.88-7.46,69.24-12,8.18-2.25,14.54-4.62,18.86-7.08,3.69-2.1,5.91-4.29,6.48-6.55h0.11v-0.73Z"/><ellipse class="cls-2" cx="364.72" cy="454.92" rx="322.89" ry="37.63"/><path class="cls-3" d="M687.77,455c0-.14,0-0.29,0-0.43s0-.29,0-0.43V402.36H41.89s-0.25,51.74-.25,52.22c0,2.67,2.32,5.24,6.64,7.71,15.13,8.61,55.2,16.11,111,21.48s127.39,8.59,205.41,8.59c89.17,0,169.9-4.21,228.35-11,29.22-3.41,52.88-7.46,69.24-12,8.18-2.25,14.54-4.62,18.86-7.08,3.69-2.1,5.91-4.29,6.48-6.55h0.11V455Z"/><ellipse class="cls-3" cx="364.72" cy="403.44" rx="322.89" ry="37.63"/><path class="cls-3" d="M687.77,403.53c0-.14,0-0.29,0-0.43s0-.29,0-0.43V350.88H41.89s-0.25,51.74-.25,52.22c0,2.67,2.32,5.24,6.64,7.71,15.13,8.61,55.2,16.11,111,21.48s127.39,8.59,205.41,8.59c89.17,0,169.9-4.21,228.35-11,29.22-3.41,52.88-7.46,69.24-12,8.18-2.25,14.54-4.62,18.86-7.08,3.69-2.1,5.91-4.29,6.48-6.55h0.11v-0.73Z"/><ellipse class="cls-3" cx="364.72" cy="351.97" rx="322.89" ry="37.63"/><path class="cls-3" d="M687.77,352.06c0-.14,0-0.29,0-0.43s0-.29,0-0.43V299.4H41.89s-0.25,51.74-.25,52.22c0,2.67,2.32,5.24,6.64,7.71,15.13,8.61,55.2,16.11,111,21.48s127.39,8.59,205.41,8.59c89.17,0,169.9-4.21,228.35-11,29.22-3.41,52.88-7.46,69.24-12,8.18-2.25,14.54-4.62,18.86-7.08,3.69-2.1,5.91-4.29,6.48-6.55h0.11v-0.73Z"/><ellipse class="cls-3" cx="364.72" cy="300.49" rx="322.89" ry="37.63"/><path class="cls-3" d="M687.77,302.06c0-.14,0-0.29,0-0.43s0-.29,0-0.43V249.4H41.89s-0.25,51.74-.25,52.22c0,2.67,2.32,5.24,6.64,7.71,15.13,8.61,55.2,16.11,111,21.48s127.39,8.59,205.41,8.59c89.17,0,169.9-4.21,228.35-11,29.22-3.41,52.88-7.46,69.24-12,8.18-2.25,14.54-4.62,18.86-7.08,3.69-2.1,5.91-4.29,6.48-6.55h0.11v-0.73Z"/><ellipse class="cls-3" cx="364.72" cy="250.49" rx="322.89" ry="37.63"/><path class="cls-4" d="M365.75,259.78c-16,0-29-3.75-30.2-8.61h-0.08l0-.5V8.27h60.63V251.17H396C394.73,256,381.73,259.78,365.75,259.78Z"/><path class="cls-5" d="M395.58,8.77v241.9h0c-0.49,4.78-13.63,8.61-29.79,8.61s-29.3-3.83-29.79-8.61h0v-0.21s0,0,0-.06,0,0,0-.06V8.77h59.63m1-1H335V250.29s0,0.07,0,.11v1.27h0.23c2,5.6,16.84,8.61,30.58,8.61s28.6-3,30.58-8.61h0.21l0-1V7.77h0Z"/><ellipse class="cls-6" cx="365.75" cy="8.89" rx="29.81" ry="8.89"/><path class="cls-4" d="M56.1,297.91v-2.53l2.7,0.43v-6.44l-2.72-.43v-2.53l2.72,0.43v-0.64a3.87,3.87,0,0,1,.38-1.8,3,3,0,0,1,1-1.13,3.43,3.43,0,0,1,1.43-.53,5.72,5.72,0,0,1,1.68,0,11.55,11.55,0,0,1,2.6.66,7.89,7.89,0,0,1,1.68.91l-0.87,2.15a12.33,12.33,0,0,0-1.13-.63,5.45,5.45,0,0,0-1.57-.45,2,2,0,0,0-1.73.3,2.21,2.21,0,0,0-.49,1.61l4.8,0.74v2.53l-4.8-.74v6.44L66.6,297v2.53C62.4,298.9,60.3,298.58,56.1,297.91Z"/><path class="cls-4" d="M70.26,289.38a11.18,11.18,0,0,1,2.12-.39,11.8,11.8,0,0,1,2.85.13,6.9,6.9,0,0,1,2,.59,4.14,4.14,0,0,1,1.35,1,3.74,3.74,0,0,1,.74,1.37,5.91,5.91,0,0,1,.23,1.69q0,1.17-.08,2c-0.05.54-.08,1-0.08,1.46a10.13,10.13,0,0,0,0,1.09c0,0.21.05,0.43,0.07,0.63L81,299.16v2.53l-3.84-.56-0.3-1.61-0.11,0a3.19,3.19,0,0,1-1.3,1,4,4,0,0,1-2.27.18,4.47,4.47,0,0,1-2.71-1.33,3.66,3.66,0,0,1-1-2.59,3.35,3.35,0,0,1,.35-1.61,2.39,2.39,0,0,1,1-1,4.24,4.24,0,0,1,1.61-.42,9.25,9.25,0,0,1,2.1.1q0.41,0.06.86,0.17l1.11,0.26a2.29,2.29,0,0,0,0-.45v-0.44a1.7,1.7,0,0,0-.5-1.33,2.76,2.76,0,0,0-1.48-.6,6.63,6.63,0,0,0-2.09,0,11.79,11.79,0,0,0-1.57.36Zm3.89,9a2.52,2.52,0,0,0,1.63-.16,2.17,2.17,0,0,0,.79-0.75v-1.38l-0.68-.2a8.29,8.29,0,0,0-1-.2,4.63,4.63,0,0,0-.86,0,2.56,2.56,0,0,0-.77.14,1.22,1.22,0,0,0-.54.37,1,1,0,0,0-.2.64,1.51,1.51,0,0,0,.37,1.06A2,2,0,0,0,74.15,298.41Z"/><path class="cls-4" d="M94.43,302.49a5.66,5.66,0,0,1-2.2.76,9.31,9.31,0,0,1-2.63,0,8.17,8.17,0,0,1-2.65-.81A6.56,6.56,0,0,1,85,300.92a6.31,6.31,0,0,1-1.2-2.09,7.69,7.69,0,0,1-.41-2.54,6,6,0,0,1,.48-2.51,4.43,4.43,0,0,1,1.34-1.72,4.87,4.87,0,0,1,2-.9,7.52,7.52,0,0,1,2.54,0,10.14,10.14,0,0,1,2.41.64,12.89,12.89,0,0,1,1.72.81v4l-2.52-.35v-2.12A6.9,6.9,0,0,0,90,293.8a4.15,4.15,0,0,0-1.27,0,2.57,2.57,0,0,0-1.92,1.42,3.25,3.25,0,0,0-.31,1.5,3.85,3.85,0,0,0,.25,1.39,3.85,3.85,0,0,0,1.84,2.07,4.48,4.48,0,0,0,1.5.48,5.09,5.09,0,0,0,2.14-.07,7.3,7.3,0,0,0,1.25-.47Z"/><path class="cls-4" d="M98.33,295.16l-2.27-.31v-2.53l2.27,0.31V290l3-.45V293l6,0.8v2.53l-6-.8v3.29a4.39,4.39,0,0,0,.66,2.65,2.66,2.66,0,0,0,1.86,1,3.83,3.83,0,0,0,1.12,0,3.75,3.75,0,0,0,.91-0.26,4.35,4.35,0,0,0,.73-0.41l0.61-.43,1.38,2.25a3.67,3.67,0,0,1-1,.71,7.14,7.14,0,0,1-1.26.5,7.24,7.24,0,0,1-1.41.26,6.58,6.58,0,0,1-1.44,0,5.68,5.68,0,0,1-3.86-2,7.45,7.45,0,0,1-1.29-4.74v-3.29Z"/><path class="cls-4" d="M110.22,300a6.65,6.65,0,0,1,.44-2.52,4.42,4.42,0,0,1,1.24-1.75,4.51,4.51,0,0,1,1.92-.94,7,7,0,0,1,2.49-.08,7.79,7.79,0,0,1,2.58.76,6.35,6.35,0,0,1,1.92,1.47A6.07,6.07,0,0,1,122,299a7.8,7.8,0,0,1,.4,2.53,6.68,6.68,0,0,1-.44,2.52,4.45,4.45,0,0,1-1.24,1.76,4.5,4.5,0,0,1-1.91.95,7,7,0,0,1-2.49.09,7.74,7.74,0,0,1-2.58-.77,6.35,6.35,0,0,1-1.92-1.48,6.12,6.12,0,0,1-1.18-2.07A7.81,7.81,0,0,1,110.22,300Zm3.07,0.4a4.84,4.84,0,0,0,.21,1.43,4,4,0,0,0,.6,1.2,3.25,3.25,0,0,0,.94.87,3.15,3.15,0,0,0,1.26.43,2.61,2.61,0,0,0,2.17-.58,3.34,3.34,0,0,0,.84-2.59,4.42,4.42,0,0,0-.78-2.66,3.1,3.1,0,0,0-2.22-1.26,3.42,3.42,0,0,0-1.19,0,2,2,0,0,0-1,.51,2.62,2.62,0,0,0-.63,1A4.71,4.71,0,0,0,113.29,300.36Z"/><path class="cls-4" d="M124.07,304.94l2.85,0.35v-6.44l-2.85-.35V296l5.16,0.63,0.34,1.56h0.09a5.1,5.1,0,0,1,1.47-1.09,3.38,3.38,0,0,1,1.93-.28,3,3,0,0,1,2.17,1.27,6,6,0,0,1,.79,3.47l-2.69-.32a2.49,2.49,0,0,0-.24-1.24,1,1,0,0,0-.77-0.47,2.08,2.08,0,0,0-1.48.28,3.9,3.9,0,0,0-1,.94v4.9l5,0.59v2.53c-4.32-.51-6.49-0.77-10.81-1.3v-2.53Z"/><path class="cls-4" d="M138.3,306.63l4,0.46v-6.44l-4-.46v-2.53l7,0.8v9l4.25,0.47v2.53c-4.51-.49-6.77-0.75-11.27-1.27v-2.53Zm3.49-11.7a1.44,1.44,0,0,1,.53-1.16,1.86,1.86,0,0,1,1.47-.34,2.5,2.5,0,0,1,1.54.68,1.77,1.77,0,0,1,.57,1.28,1.32,1.32,0,0,1-.57,1.14,2.17,2.17,0,0,1-1.54.3,2.37,2.37,0,0,1-1.47-.64A1.73,1.73,0,0,1,141.79,294.93Z"/><path class="cls-4" d="M152.79,300.06a11.55,11.55,0,0,1,2.13-.48,11.87,11.87,0,0,1,2.86,0,6.74,6.74,0,0,1,2,.5,3.91,3.91,0,0,1,1.36,1,3.55,3.55,0,0,1,.75,1.34,5.8,5.8,0,0,1,.23,1.68q0,1.17-.08,2c-0.05.54-.08,1-0.08,1.46a10,10,0,0,0,0,1.09c0,0.21.05,0.43,0.07,0.63l1.49,0.15v2.53l-3.86-.4-0.3-1.6h-0.11A3.4,3.4,0,0,1,158,311a4.11,4.11,0,0,1-2.28.28,4.29,4.29,0,0,1-2.72-1.21,3.5,3.5,0,0,1-1-2.55,3.42,3.42,0,0,1,.35-1.63,2.55,2.55,0,0,1,1-1,4.41,4.41,0,0,1,1.62-.49,9.3,9.3,0,0,1,2.11,0q0.41,0,.87.14l1.12,0.21a2.3,2.3,0,0,0,0-.46v-0.44a1.63,1.63,0,0,0-.5-1.31,2.67,2.67,0,0,0-1.48-.54,6.7,6.7,0,0,0-2.1.08,12.24,12.24,0,0,0-1.57.43Zm3.91,8.86a2.58,2.58,0,0,0,1.64-.23,2.32,2.32,0,0,0,.8-0.78v-1.38l-0.68-.18a8.11,8.11,0,0,0-1-.16,4.64,4.64,0,0,0-.86,0,2.64,2.64,0,0,0-.77.17,1.29,1.29,0,0,0-.55.39,1,1,0,0,0-.2.65,1.45,1.45,0,0,0,.37,1A1.94,1.94,0,0,0,156.7,308.92Z"/><path class="cls-4" d="M166.51,296.12l4.9,0.49v10.63a5.2,5.2,0,0,0,.44,2.5,1.72,1.72,0,0,0,1.4.83,3.76,3.76,0,0,0,1.17,0,4,4,0,0,0,.92-0.34l1.13,2.18q-0.39.22-.78,0.4a4.58,4.58,0,0,1-.83.29,5.33,5.33,0,0,1-1,.14,7.53,7.53,0,0,1-1.16,0,4.78,4.78,0,0,1-3.24-1.42,4.68,4.68,0,0,1-1.08-3.24v-9.66l-1.91-.19v-2.53Z"/><path class="cls-4" d="M180.1,316.23c4.08,0.38,6.13.57,10.21,0.93v2.46c-4.09-.36-6.13-0.55-10.21-0.93v-2.46Z"/><path class="cls-4" d="M192.1,298.53l4.65,0.4c0,2.36,0,3.53,0,5.89h0.09a3.45,3.45,0,0,1,1.47-1,4.82,4.82,0,0,1,2.16-.26,5.64,5.64,0,0,1,1.61.36,3.41,3.41,0,0,1,1.27.86,4,4,0,0,1,.83,1.51,7.5,7.5,0,0,1,.3,2.27v7.15l-3-.25V308.9a3,3,0,0,0-.6-2.07,2.27,2.27,0,0,0-1.57-.75,2.45,2.45,0,0,0-1.56.39,2.5,2.5,0,0,0-1,1.24c0,2.94,0,4.4,0,7.34l-3-.26V301.21l-1.66-.14v-2.53Z"/><path class="cls-4" d="M218.2,315.53a3.71,3.71,0,0,1-.77.48,6.89,6.89,0,0,1-1.11.41,8.1,8.1,0,0,1-1.39.26,8.8,8.8,0,0,1-1.61,0,8.14,8.14,0,0,1-2.64-.62,5.76,5.76,0,0,1-3.2-3.37,7.37,7.37,0,0,1-.43-2.58,6.47,6.47,0,0,1,.48-2.62,4.76,4.76,0,0,1,1.32-1.79,5,5,0,0,1,2-1,7.43,7.43,0,0,1,2.44-.19,7.86,7.86,0,0,1,1.81.37,5.42,5.42,0,0,1,1.72.92,4.76,4.76,0,0,1,1.28,1.6,5.36,5.36,0,0,1,.49,2.43,10.68,10.68,0,0,1-.23,2.12l-8.29-.63a2.81,2.81,0,0,0,.31,1.27,2.74,2.74,0,0,0,.76.89,3.59,3.59,0,0,0,1.08.56,5.58,5.58,0,0,0,1.3.25,6.56,6.56,0,0,0,2.27-.15,4.38,4.38,0,0,0,1.44-.67Zm-5-8.59a3.7,3.7,0,0,0-1.13.08,2.89,2.89,0,0,0-1,.41,2.35,2.35,0,0,0-.7.73,2.27,2.27,0,0,0-.32,1l5.66,0.44A2.48,2.48,0,0,0,213.23,306.94Z"/><path class="cls-4" d="M221.72,300.91l4.9,0.35v10.63a5.11,5.11,0,0,0,.44,2.49,1.66,1.66,0,0,0,1.41.79,3.8,3.8,0,0,0,1.17-.07,4.16,4.16,0,0,0,.92-0.36l1.13,2.15q-0.39.23-.78,0.42a4.71,4.71,0,0,1-.83.31,5.39,5.39,0,0,1-1,.16,7.5,7.5,0,0,1-1.16,0,4.65,4.65,0,0,1-3.25-1.33,4.56,4.56,0,0,1-1.08-3.21c0-3.86,0-5.8,0-9.66l-1.91-.14C221.72,302.43,221.72,301.92,221.72,300.91Z"/><path class="cls-4" d="M233.54,306.33l3.92,0.26,0.35,1.4h0.09a4.14,4.14,0,0,1,3.87-1.46,5.69,5.69,0,0,1,1.95.45,4.15,4.15,0,0,1,1.52,1.14,5.31,5.31,0,0,1,1,1.85,8.8,8.8,0,0,1,.35,2.62,8.21,8.21,0,0,1-.39,2.63,5.22,5.22,0,0,1-1.13,1.94,4.45,4.45,0,0,1-1.8,1.15,6.11,6.11,0,0,1-2.42.29,9.72,9.72,0,0,1-1.4-.19,4.1,4.1,0,0,1-1.15-.41c0,1.89,0,2.83,0,4.71l-3-.19c0-5.43,0-8.14,0-13.57l-1.73-.11v-2.53Zm7.33,2.68a2.92,2.92,0,0,0-1.6.34,2.08,2.08,0,0,0-1,1.25v4.78a2.65,2.65,0,0,0,.93.46,5.3,5.3,0,0,0,1.23.23,3.12,3.12,0,0,0,1.2-.14,2.25,2.25,0,0,0,1-.64,3.15,3.15,0,0,0,.64-1.18,5.82,5.82,0,0,0,.23-1.76,3.59,3.59,0,0,0-.74-2.39A2.56,2.56,0,0,0,240.86,309Z"/><path class="cls-4" d="M259.66,318.18a3.79,3.79,0,0,1-.77.5,7.07,7.07,0,0,1-1.11.44,8.21,8.21,0,0,1-1.39.29,8.87,8.87,0,0,1-1.61,0,8.07,8.07,0,0,1-2.64-.56,5.6,5.6,0,0,1-3.2-3.3,7.29,7.29,0,0,1-.43-2.57,6.54,6.54,0,0,1,.48-2.63,4.91,4.91,0,0,1,1.32-1.82,5.16,5.16,0,0,1,2-1,7.49,7.49,0,0,1,2.44-.24,7.76,7.76,0,0,1,1.81.33,5.29,5.29,0,0,1,1.72.89,4.6,4.6,0,0,1,1.28,1.58,5.28,5.28,0,0,1,.5,2.42,10.76,10.76,0,0,1-.23,2.13l-8.3-.46a2.77,2.77,0,0,0,.31,1.26,2.68,2.68,0,0,0,.76.87,3.51,3.51,0,0,0,1.08.53,5.53,5.53,0,0,0,1.3.22,6.6,6.6,0,0,0,2.27-.2,4.5,4.5,0,0,0,1.44-.7Zm-5-8.48a3.74,3.74,0,0,0-1.13.1,3,3,0,0,0-1,.43,2.4,2.4,0,0,0-.7.74,2.3,2.3,0,0,0-.32,1l5.67,0.32A2.42,2.42,0,0,0,254.69,309.7Z"/><path class="cls-4" d="M262.08,317l2.86,0.15V310.7l-2.86-.15V308l5.19,0.26,0.35,1.53h0.09a5.68,5.68,0,0,1,1.48-1.19,3.53,3.53,0,0,1,1.94-.41,2.76,2.76,0,0,1,2.18,1.11,5.74,5.74,0,0,1,.79,3.42l-2.7-.13a2.37,2.37,0,0,0-.24-1.22,0.9,0.9,0,0,0-.77-0.42,2.2,2.2,0,0,0-1.49.39,4.33,4.33,0,0,0-1,1v4.9l5,0.24v2.53c-4.34-.2-6.51-0.31-10.86-0.54V317Z"/><path class="cls-4" d="M285.5,325.48a11.08,11.08,0,0,1-3.14-1.14,9.72,9.72,0,0,1-2.7-2.16,10.3,10.3,0,0,1-1.88-3.21,12.2,12.2,0,0,1-.7-4.31,11.71,11.71,0,0,1,.7-4.24,9.44,9.44,0,0,1,1.88-3.08,8.8,8.8,0,0,1,2.7-2,11.07,11.07,0,0,1,3.14-1l0.55,2.48a9.29,9.29,0,0,0-1.83.58,6.32,6.32,0,0,0-1.95,1.32,7.29,7.29,0,0,0-1.56,2.34,9.12,9.12,0,0,0-.63,3.65,8.68,8.68,0,0,0,.67,3.59,8.35,8.35,0,0,0,1.63,2.45,7.6,7.6,0,0,0,2,1.48,8.2,8.2,0,0,0,1.71.68Z"/><path class="cls-4" d="M291.2,320.83l6.64-13.15-7.52-.27v-2.71c4.21,0.16,6.31.23,10.52,0.37v2.25l-6.71,13.62Z"/><path class="cls-4" d="M303.93,310.2a5.57,5.57,0,0,1,.4-2.15,4.67,4.67,0,0,1,1.13-1.66,5.06,5.06,0,0,1,1.75-1.05,6.18,6.18,0,0,1,2.29-.34,6.88,6.88,0,0,1,2.35.46,5.1,5.1,0,0,1,1.82,1.21,5.38,5.38,0,0,1,1.18,1.94,7.68,7.68,0,0,1,.42,2.62,13.51,13.51,0,0,1-.69,4.58,9.19,9.19,0,0,1-1.86,3.17,7.73,7.73,0,0,1-2.71,1.91,10.49,10.49,0,0,1-3.23.78l-0.65-2.37a7.84,7.84,0,0,0,2.29-.55,6.66,6.66,0,0,0,1.79-1.09,5.71,5.71,0,0,0,1.24-1.51,5.09,5.09,0,0,0,.62-1.83,3.33,3.33,0,0,1-1.25.74,5.09,5.09,0,0,1-1.82.24h0a5.68,5.68,0,0,1-1.78-.35,5,5,0,0,1-2.81-2.56A4.94,4.94,0,0,1,303.93,310.2Zm2.91-.07a2.6,2.6,0,0,0,.24,1.15,2.63,2.63,0,0,0,.63.85,2.79,2.79,0,0,0,.91.53,3.42,3.42,0,0,0,1.07.2,4,4,0,0,0,1.64-.25,2.32,2.32,0,0,0,1-.71,6.44,6.44,0,0,0,.07-0.92,4.49,4.49,0,0,0-.18-1.27,3.52,3.52,0,0,0-.55-1.12,2.85,2.85,0,0,0-.92-0.8,2.77,2.77,0,0,0-1.27-.32A2.47,2.47,0,0,0,306.83,310.13Z"/><path class="cls-4" d="M328.59,321.87c-4.12-.08-6.17-0.12-10.29-0.22v-2.23c0.18-.15.41-0.35,0.69-0.59l0.93-.84q0.52-.47,1.1-1t1.13-1.17q0.78-.86,1.37-1.56a11,11,0,0,0,1-1.33,5.4,5.4,0,0,0,.57-1.23,4.24,4.24,0,0,0,.19-1.25,2.1,2.1,0,0,0-.21-0.9,2.53,2.53,0,0,0-.58-0.78,2.84,2.84,0,0,0-.89-0.55,3.24,3.24,0,0,0-1.14-.22,4.28,4.28,0,0,0-1.51.22,5,5,0,0,0-1.42.82l-1.2-2.14a9.89,9.89,0,0,1,2.16-1.11,7.31,7.31,0,0,1,2.73-.41,6.63,6.63,0,0,1,1.9.31,5.15,5.15,0,0,1,1.61.85,4,4,0,0,1,1.53,3.24,6.94,6.94,0,0,1-.13,1.37,6.57,6.57,0,0,1-.39,1.26,8.35,8.35,0,0,1-.69,1.29q-0.43.66-1,1.43-0.46.59-1,1.19t-1.07,1.14q-0.53.54-1,1t-0.93.78l6.64,0.13v2.53Z"/><path class="cls-4" d="M331.24,313.84a13.6,13.6,0,0,1,.44-3.66,7.4,7.4,0,0,1,1.24-2.59,5,5,0,0,1,1.91-1.52,5.76,5.76,0,0,1,2.48-.48,5.43,5.43,0,0,1,4.49,2.09q1.57,2.05,1.57,6.33a13.72,13.72,0,0,1-.44,3.69,7.58,7.58,0,0,1-1.24,2.61,5,5,0,0,1-1.92,1.54,5.83,5.83,0,0,1-2.49.48,5.28,5.28,0,0,1-4.49-2.22A10.72,10.72,0,0,1,331.24,313.84Zm3,0c0,0.23,0,.45,0,0.66s0,0.42,0,.63l5.58-5.05a2.63,2.63,0,0,0-2.58-2A2.42,2.42,0,0,0,335,309.5,9.31,9.31,0,0,0,334.24,313.89Zm6.14,0.09q0-.37,0-0.7c0-.22,0-0.44,0-0.66l-5.61,5.05a2.68,2.68,0,0,0,2.59,2.13,2.45,2.45,0,0,0,2.27-1.37A9.32,9.32,0,0,0,340.37,314Z"/><path class="cls-4" d="M349.23,320.67a1.57,1.57,0,0,1,.52-1.24,1.88,1.88,0,0,1,1.3-.45,2.3,2.3,0,0,1,1.92.84,3.24,3.24,0,0,1,.65,2.05,4.32,4.32,0,0,1-.4,1.88,4.93,4.93,0,0,1-1.05,1.47,5.62,5.62,0,0,1-1.44,1,5.83,5.83,0,0,1-1.58.52l-0.62-1.27a6.67,6.67,0,0,0,1.12-.38,4.47,4.47,0,0,0,1-.62,3.53,3.53,0,0,0,.77-0.88,2.42,2.42,0,0,0,.36-1.1,3,3,0,0,1-1.18,0,1.8,1.8,0,0,1-.8-0.37,1.52,1.52,0,0,1-.45-0.65A2.36,2.36,0,0,1,349.23,320.67Z"/><path class="cls-4" d="M360.4,322.19L367,308.81h-7.52v-2.71c4.21,0,6.31,0,10.52,0v2.25l-6.71,13.85H360.4Z"/><path class="cls-4" d="M374.66,324.54a8,8,0,0,0,1.71-.62,7.27,7.27,0,0,0,2-1.42,8,8,0,0,0,1.63-2.39,8.52,8.52,0,0,0,.67-3.57,9.29,9.29,0,0,0-.63-3.68,7.64,7.64,0,0,0-1.56-2.39,6.65,6.65,0,0,0-1.95-1.39,9.61,9.61,0,0,0-1.83-.65l0.55-2.46a11.43,11.43,0,0,1,3.14,1.06,9.25,9.25,0,0,1,2.7,2.07,9.88,9.88,0,0,1,1.88,3.15,13.33,13.33,0,0,1,0,8.55,9.84,9.84,0,0,1-1.88,3.14,9.26,9.26,0,0,1-2.7,2.07,10.76,10.76,0,0,1-3.14,1Z"/><path class="cls-4" d="M483.48,316.09l2.86-.17v-6.44l-2.86.17v-2.53l5.18-.32,0.35,1.5h0.09a6.7,6.7,0,0,1,1.47-1.36,3.84,3.84,0,0,1,1.93-.63,2.45,2.45,0,0,1,2.18.87,5.31,5.31,0,0,1,.79,3.33l-2.69.18a2.22,2.22,0,0,0-.24-1.19,0.79,0.79,0,0,0-.77-0.33,2.42,2.42,0,0,0-1.49.56,5.12,5.12,0,0,0-1,1.12v4.9l5-.32v2.53c-4.34.29-6.51,0.42-10.85,0.68v-2.53Z"/><path class="cls-4" d="M508.7,315.72a4.53,4.53,0,0,1-.77.6,8.08,8.08,0,0,1-1.11.58,9.25,9.25,0,0,1-3,.72,7.62,7.62,0,0,1-2.64-.23,4.69,4.69,0,0,1-3.2-2.9,6.85,6.85,0,0,1-.43-2.51,7,7,0,0,1,.48-2.69,5.84,5.84,0,0,1,1.32-2,6.08,6.08,0,0,1,2-1.27,8,8,0,0,1,2.44-.55,7.42,7.42,0,0,1,1.81.1,4.59,4.59,0,0,1,1.72.67,3.83,3.83,0,0,1,1.28,1.41,4.89,4.89,0,0,1,.5,2.36,11.19,11.19,0,0,1-.23,2.16l-8.29.59a2.53,2.53,0,0,0,.31,1.22,2.22,2.22,0,0,0,.76.77,3,3,0,0,0,1.08.4,5.31,5.31,0,0,0,1.3.06,7,7,0,0,0,2.27-.48,5.26,5.26,0,0,0,1.44-.89Zm-5-7.85a3.94,3.94,0,0,0-1.13.24,3.43,3.43,0,0,0-1,.55,2.9,2.9,0,0,0-.7.83,2.55,2.55,0,0,0-.32,1.08l5.67-.4A2.1,2.1,0,0,0,503.72,307.87Z"/><path class="cls-4" d="M522.78,314.75a7.26,7.26,0,0,1-2.21,1.25,10.07,10.07,0,0,1-2.65.56,7.29,7.29,0,0,1-2.66-.23,4.9,4.9,0,0,1-2-1.08,4.7,4.7,0,0,1-1.21-1.83,6.9,6.9,0,0,1-.41-2.45,6.74,6.74,0,0,1,.48-2.61,6,6,0,0,1,1.35-2,6.44,6.44,0,0,1,2-1.34,8.23,8.23,0,0,1,2.55-.6,9.26,9.26,0,0,1,2.42.11,10.61,10.61,0,0,1,1.73.44v4l-2.53.2v-2.12a6.38,6.38,0,0,0-1.43,0,4.52,4.52,0,0,0-1.28.29,3.45,3.45,0,0,0-1.13.71,3.63,3.63,0,0,0-.81,1.13,3.68,3.68,0,0,0-.31,1.56,3.41,3.41,0,0,0,.25,1.34,2.83,2.83,0,0,0,1.85,1.66,4,4,0,0,0,1.51.15,5.64,5.64,0,0,0,2.15-.54,9.62,9.62,0,0,0,1.25-.74Z"/><path class="cls-4" d="M531.62,303.63l4.28-.37v9l1.75-.15v2.53l-3.63.32-0.53-1.66h-0.09a4.6,4.6,0,0,1-1.59,1.58,5.41,5.41,0,0,1-3.95.68,2.6,2.6,0,0,1-1.23-.66,3.18,3.18,0,0,1-.78-1.36,7.54,7.54,0,0,1-.28-2.23v-4.62l-1.31.11v-2.53l4.3-.35v6.53a3.33,3.33,0,0,0,.45,2,1.5,1.5,0,0,0,1.41.5,2.7,2.7,0,0,0,1.53-.64,3.06,3.06,0,0,0,1-1.32V306l-1.29.11v-2.53Z"/><path class="cls-4" d="M538.73,312l2.85-.25v-6.44l-2.85.25V303l5.18-.47,0.34,1.49h0.09a7,7,0,0,1,1.47-1.4,3.92,3.92,0,0,1,1.93-.68,2.38,2.38,0,0,1,2.17.81,5.22,5.22,0,0,1,.79,3.31l-2.69.25a2.19,2.19,0,0,0-.24-1.18,0.77,0.77,0,0,0-.77-0.31,2.48,2.48,0,0,0-1.48.6,5.33,5.33,0,0,0-1,1.15v4.9l5-.46v2.53c-4.33.41-6.5,0.61-10.83,1V312Z"/><path class="cls-4" d="M562.09,317.18a9.84,9.84,0,0,1-3.13-.7,8,8,0,0,1-2.69-1.78,8.56,8.56,0,0,1-1.87-2.95,11.43,11.43,0,0,1-.7-4.21,12.57,12.57,0,0,1,.7-4.33,11.33,11.33,0,0,1,1.87-3.34A10.75,10.75,0,0,1,559,297.5a12.63,12.63,0,0,1,3.13-1.39l0.55,2.41a10.65,10.65,0,0,0-1.83.84,7.69,7.69,0,0,0-1.94,1.6,8.81,8.81,0,0,0-1.55,2.56,9.83,9.83,0,0,0-.63,3.74,8.06,8.06,0,0,0,.67,3.5A6.87,6.87,0,0,0,559,313a6.24,6.24,0,0,0,2,1.21,7.22,7.22,0,0,0,1.7.44Z"/><path class="cls-4" d="M570.87,309.08a5.34,5.34,0,0,0,1.4-.33,4,4,0,0,0,1.11-.65,2.86,2.86,0,0,0,.73-0.93,2.61,2.61,0,0,0,.26-1.18,2.06,2.06,0,0,0-1-1.88,4.81,4.81,0,0,0-3-.41l-0.59.07-0.63.1-0.71.1v-8.42l8.32-.88v2.81l-5.74.61v3.1l0.37-.06,0.31,0,0.26,0a6.45,6.45,0,0,1,2.14.11,4.25,4.25,0,0,1,1.72.82,3.91,3.91,0,0,1,1.14,1.5,5.07,5.07,0,0,1,.4,2.06,5.67,5.67,0,0,1-.51,2.43,5.78,5.78,0,0,1-1.38,1.86,7.09,7.09,0,0,1-2,1.26,8.73,8.73,0,0,1-2.46.62,6.07,6.07,0,0,1-1.08,0q-0.57,0-1.13-.14a9.15,9.15,0,0,1-1-.23,8.31,8.31,0,0,1-.79-0.26l1-2.49a6.15,6.15,0,0,0,1.21.38A5.11,5.11,0,0,0,570.87,309.08Z"/><path class="cls-4" d="M584.65,307.58a5.36,5.36,0,0,0,1.4-.34,4,4,0,0,0,1.11-.66,2.89,2.89,0,0,0,.73-0.93,2.63,2.63,0,0,0,.26-1.18,2,2,0,0,0-1-1.88,4.8,4.8,0,0,0-3-.39l-0.58.08-0.63.1-0.71.1v-8.42l8.31-.94v2.81l-5.74.65v3.1l0.37-.06,0.31,0,0.26,0a6.43,6.43,0,0,1,2.14.09,4.21,4.21,0,0,1,1.72.8,3.86,3.86,0,0,1,1.14,1.49,5.05,5.05,0,0,1,.4,2.06,5.7,5.7,0,0,1-.5,2.44,5.83,5.83,0,0,1-1.38,1.87,7.15,7.15,0,0,1-2,1.28,8.77,8.77,0,0,1-2.46.63,6.06,6.06,0,0,1-1.08,0q-0.57,0-1.13-.13a9.11,9.11,0,0,1-1-.22q-0.47-.13-0.79-0.26l1-2.5a6.09,6.09,0,0,0,1.21.37A5.11,5.11,0,0,0,584.65,307.58Z"/><path class="cls-4" d="M606.22,302.88l-2.75.34v4.49l-2.78.34v-4.49l-7,.83v-2L601,291.78l2.46-.3v9.34l2.75-.34v2.39Zm-5.53-6.82-4,5.58,4-.48v-5.11Z"/><path class="cls-4" d="M620,301.13l-2.75.36V306l-2.77.36v-4.49l-6.95.87v-2l7.27-10.6,2.45-.32v9.34l2.75-.36v2.39Zm-5.53-6.78-4,5.61,4-.51v-5.11Z"/><path class="cls-4" d="M621.38,297.36a14.42,14.42,0,0,1,.44-3.73,8.77,8.77,0,0,1,1.23-2.77,6.2,6.2,0,0,1,1.9-1.8,6.36,6.36,0,0,1,2.46-.85,4.67,4.67,0,0,1,4.46,1.43q1.56,1.82,1.56,6.1a14.55,14.55,0,0,1-.44,3.75,9,9,0,0,1-1.23,2.79,6.14,6.14,0,0,1-1.91,1.82,6.42,6.42,0,0,1-2.47.85,4.52,4.52,0,0,1-4.46-1.56Q621.38,301.46,621.38,297.36Zm3-.39c0,0.23,0,.45,0,0.65s0,0.42,0,.63l5.55-5.87a2.19,2.19,0,0,0-2.57-1.63,2.9,2.9,0,0,0-2.24,1.71A10.14,10.14,0,0,0,624.36,297Zm6.1-.82q0-.37,0-0.7c0-.22,0-0.44,0-0.65l-5.57,5.88a2.23,2.23,0,0,0,2.57,1.75,2.93,2.93,0,0,0,2.25-1.71A10.16,10.16,0,0,0,630.46,296.15Z"/><path class="cls-4" d="M639.25,301.53a1.82,1.82,0,0,1,.52-1.31,2.17,2.17,0,0,1,1.29-.64,2,2,0,0,1,1.9.56,2.87,2.87,0,0,1,.64,2,4.76,4.76,0,0,1-.4,1.94,6.06,6.06,0,0,1-1,1.62,6.9,6.9,0,0,1-1.43,1.22,6.7,6.7,0,0,1-1.57.75l-0.62-1.18a7.72,7.72,0,0,0,1.11-.55,5.48,5.48,0,0,0,1-.78,4.38,4.38,0,0,0,.77-1,2.76,2.76,0,0,0,.35-1.15,3,3,0,0,1-1.17.2,1.53,1.53,0,0,1-.79-0.26,1.24,1.24,0,0,1-.45-0.58A2.2,2.2,0,0,1,639.25,301.53Z"/><path class="cls-4" d="M660.49,294.91a5.62,5.62,0,0,1-.42,2.16,6.47,6.47,0,0,1-1.16,1.85,6.64,6.64,0,0,1-1.75,1.39,6.4,6.4,0,0,1-2.19.74,6.18,6.18,0,0,1-2.23,0,4.19,4.19,0,0,1-1.82-.87,4.42,4.42,0,0,1-1.24-1.73,6.66,6.66,0,0,1-.46-2.6,11.38,11.38,0,0,1,.79-4.25,13.86,13.86,0,0,1,2-3.53,13.14,13.14,0,0,1,2.77-2.62,10.87,10.87,0,0,1,3-1.52l0.66,2.27a10.38,10.38,0,0,0-2.27,1.09,10.23,10.23,0,0,0-1.88,1.53A9.38,9.38,0,0,0,653,290.6a6.69,6.69,0,0,0-.77,2,4.36,4.36,0,0,1,1.37-1.18,5.54,5.54,0,0,1,2-.7,5.24,5.24,0,0,1,1.92,0,3.53,3.53,0,0,1,2.57,2.13A5,5,0,0,1,660.49,294.91Zm-2.88.55a2,2,0,0,0-.74-1.77,2.66,2.66,0,0,0-2-.35,3.75,3.75,0,0,0-1.65.66,3.62,3.62,0,0,0-1.08,1.12,4.14,4.14,0,0,0-.06.57q0,0.31,0,.5a2.87,2.87,0,0,0,.18,1,2,2,0,0,0,1.4,1.28,2.75,2.75,0,0,0,1.17,0,3.15,3.15,0,0,0,1-.35,3.58,3.58,0,0,0,.89-0.67,3.27,3.27,0,0,0,.63-0.93A2.72,2.72,0,0,0,657.61,295.46Z"/><path class="cls-4" d="M664.47,301.66a9.23,9.23,0,0,0,1.69-.87,8.94,8.94,0,0,0,2-1.71,9.74,9.74,0,0,0,1.61-2.63,9.3,9.3,0,0,0,.66-3.67,8.67,8.67,0,0,0-.63-3.58,6.23,6.23,0,0,0-1.54-2.16,5.4,5.4,0,0,0-1.93-1.1,8.45,8.45,0,0,0-1.82-.38L665,283a10.08,10.08,0,0,1,3.11.6,7.47,7.47,0,0,1,2.67,1.68,8.12,8.12,0,0,1,1.86,2.87,11.17,11.17,0,0,1,.7,4.16,13,13,0,0,1-.7,4.39,11.93,11.93,0,0,1-1.86,3.42,11.41,11.41,0,0,1-2.67,2.47,12.34,12.34,0,0,1-3.11,1.49Z"/><path class="cls-4" d="M55.72,346.07l2.83,0.45v-6.44l-2.83-.45V337.1l5.14,0.81,0.34,1.57H61.3a4.85,4.85,0,0,1,1.46-1,3.32,3.32,0,0,1,1.92-.21,3.1,3.1,0,0,1,2.16,1.34,6.19,6.19,0,0,1,.79,3.5L65,342.68a2.55,2.55,0,0,0-.24-1.24,1,1,0,0,0-.77-0.5,2,2,0,0,0-1.47.23,3.71,3.71,0,0,0-.95.91V347l5,0.76v2.53c-4.31-.66-6.46-1-10.77-1.68v-2.53Z"/><path class="cls-4" d="M80.77,351.18a3.34,3.34,0,0,1-.77.43,6.39,6.39,0,0,1-1.1.33,7.75,7.75,0,0,1-1.38.16,8.77,8.77,0,0,1-1.6-.1,8.51,8.51,0,0,1-2.62-.8,6.35,6.35,0,0,1-3.18-3.59,7.68,7.68,0,0,1-.42-2.6,6.28,6.28,0,0,1,.48-2.58,4.3,4.3,0,0,1,1.32-1.7,4.59,4.59,0,0,1,2-.85,7.28,7.28,0,0,1,2.43,0,8.13,8.13,0,0,1,1.8.5,5.88,5.88,0,0,1,1.71,1,5.25,5.25,0,0,1,1.27,1.69,5.6,5.6,0,0,1,.49,2.46,10.51,10.51,0,0,1-.23,2.11l-8.24-1.21a3,3,0,0,0,.31,1.29,3,3,0,0,0,.76.94,3.9,3.9,0,0,0,1.07.63,5.8,5.8,0,0,0,1.29.34,6.43,6.43,0,0,0,2.25,0,4,4,0,0,0,1.43-.57Zm-4.94-8.94a3.64,3.64,0,0,0-1.12,0,2.67,2.67,0,0,0-.95.34,2.11,2.11,0,0,0-.7.68,2.14,2.14,0,0,0-.32,1l5.63,0.83a2.89,2.89,0,0,0-.63-1.91A2.93,2.93,0,0,0,75.83,342.24Z"/><path class="cls-4" d="M94.79,353.28a5.66,5.66,0,0,1-2.2.76A9.34,9.34,0,0,1,90,354a8.16,8.16,0,0,1-2.64-.81,6.54,6.54,0,0,1-1.95-1.51,6.29,6.29,0,0,1-1.2-2.09,7.69,7.69,0,0,1-.41-2.54,6,6,0,0,1,.48-2.51,4.44,4.44,0,0,1,1.34-1.72,4.87,4.87,0,0,1,2-.9,7.51,7.51,0,0,1,2.54,0,10.13,10.13,0,0,1,2.41.64,13,13,0,0,1,1.72.81v4l-2.52-.35v-2.12a6.92,6.92,0,0,0-1.42-.36,4.13,4.13,0,0,0-1.27,0A2.58,2.58,0,0,0,87.12,346a3.26,3.26,0,0,0-.31,1.5,3.87,3.87,0,0,0,.25,1.39A3.85,3.85,0,0,0,88.91,351a4.48,4.48,0,0,0,1.5.48,5.09,5.09,0,0,0,2.14-.07,7.33,7.33,0,0,0,1.25-.47Z"/><path class="cls-4" d="M103.58,344.08l4.26,0.56v9l1.74,0.23v2.53l-3.62-.48-0.53-1.77h-0.09a3.33,3.33,0,0,1-1.58,1.24,4.48,4.48,0,0,1-2.34.26,5.66,5.66,0,0,1-1.59-.45,3.45,3.45,0,0,1-1.23-.93,4.17,4.17,0,0,1-.78-1.53,8.2,8.2,0,0,1-.28-2.29v-4.62l-1.31-.18v-2.53l4.28,0.58v6.53a3.86,3.86,0,0,0,.45,2.08,1.88,1.88,0,0,0,1.41.81,2.3,2.3,0,0,0,2.48-1.42v-4.9l-1.28-.17v-2.53Z"/><path class="cls-4" d="M110.67,354l2.84,0.37v-6.44l-2.84-.37V345l5.16,0.66,0.34,1.56h0.09a5.06,5.06,0,0,1,1.47-1.08,3.37,3.37,0,0,1,1.93-.26,3,3,0,0,1,2.17,1.28,6.06,6.06,0,0,1,.79,3.48l-2.68-.33a2.5,2.5,0,0,0-.24-1.24,1,1,0,0,0-.77-0.48,2.07,2.07,0,0,0-1.48.27,3.88,3.88,0,0,0-1,.94v4.9l5,0.62v2.53c-4.32-.54-6.48-0.81-10.8-1.37C110.67,355.5,110.67,355,110.67,354Z"/><path class="cls-4" d="M134,364.27a11.9,11.9,0,0,1-3.12-1.38,10.85,10.85,0,0,1-2.69-2.37,11.38,11.38,0,0,1-1.87-3.35,12.72,12.72,0,0,1-.7-4.36,11.33,11.33,0,0,1,.7-4.18,8.54,8.54,0,0,1,1.87-2.94,7.89,7.89,0,0,1,2.69-1.77,10.37,10.37,0,0,1,3.12-.71l0.55,2.53a8.67,8.67,0,0,0-1.82.44,5.67,5.67,0,0,0-1.94,1.17,6.55,6.55,0,0,0-1.55,2.22,8.8,8.8,0,0,0-.63,3.6,9.1,9.1,0,0,0,.67,3.64,9.26,9.26,0,0,0,1.62,2.57,8.47,8.47,0,0,0,2,1.64,8.89,8.89,0,0,0,1.7.81Z"/><path class="cls-4" d="M139.74,357.53l3.51,0.4c0-4,0-6,0-10.05l-3,2-1.38-2,5.24-3.41,2,0.23c0,5.43,0,8.14,0,13.57l3.45,0.38v2.53l-9.81-1.1v-2.53Z"/><path class="cls-4" d="M153.52,359.06l3.51,0.37V349.38l-3,2-1.38-2,5.24-3.44,2,0.21v13.57l3.45,0.36v2.53c-3.92-.4-5.89-0.61-9.81-1v-2.53Z"/><path class="cls-4" d="M169.88,361.81a1.43,1.43,0,0,1,.52-1.19,1.74,1.74,0,0,1,1.3-.33,2.53,2.53,0,0,1,1.91,1,3.51,3.51,0,0,1,.64,2.11,4.1,4.1,0,0,1-.4,1.85,4.35,4.35,0,0,1-1,1.37,5,5,0,0,1-1.44.87,5.41,5.41,0,0,1-1.58.37l-0.62-1.33a6.15,6.15,0,0,0,1.11-.28,4,4,0,0,0,1-.53,3.07,3.07,0,0,0,.77-0.81,2.23,2.23,0,0,0,.36-1.07,2.94,2.94,0,0,1-1.17-.08,2,2,0,0,1-.79-0.45,1.72,1.72,0,0,1-.45-0.69A2.49,2.49,0,0,1,169.88,361.81Z"/><path class="cls-4" d="M181.1,361.83l3.52,0.33c0-4,0-6,0-10.05l-3,2-1.38-2,5.24-3.52,2,0.18c0,5.43,0,8.14,0,13.57l3.45,0.31v2.53l-9.82-.89v-2.53Z"/><path class="cls-4" d="M193.33,357.39a13.28,13.28,0,0,1,.44-3.63,6.83,6.83,0,0,1,1.24-2.5,4.53,4.53,0,0,1,1.91-1.39,5.55,5.55,0,0,1,2.47-.31,5.85,5.85,0,0,1,4.48,2.41q1.57,2.16,1.57,6.44a13.4,13.4,0,0,1-.44,3.66,7,7,0,0,1-1.24,2.52,4.48,4.48,0,0,1-1.92,1.41,5.61,5.61,0,0,1-2.48.31,5.7,5.7,0,0,1-4.48-2.53A11.27,11.27,0,0,1,193.33,357.39Zm3,0.26q0,0.35,0,.66t0,0.64l5.57-4.66a2.86,2.86,0,0,0-2.58-2.19,2.23,2.23,0,0,0-2.25,1.22A9,9,0,0,0,196.32,357.65Zm6.12,0.51c0-.25,0-0.48,0-0.7s0-.44,0-0.66l-5.59,4.66a2.92,2.92,0,0,0,2.58,2.31,2.26,2.26,0,0,0,2.26-1.21A9,9,0,0,0,202.44,358.16Z"/><path class="cls-4" d="M209,369.14a7.38,7.38,0,0,0,1.7-.48,6.46,6.46,0,0,0,2-1.25,7.1,7.1,0,0,0,1.62-2.26,8.13,8.13,0,0,0,.67-3.51,9.73,9.73,0,0,0-.63-3.73,8.56,8.56,0,0,0-1.55-2.52,7.47,7.47,0,0,0-1.95-1.55A10.45,10.45,0,0,0,209,353l0.55-2.42a12.36,12.36,0,0,1,3.13,1.33,10.45,10.45,0,0,1,2.69,2.3,11,11,0,0,1,1.88,3.3,12.42,12.42,0,0,1,.7,4.32,11.53,11.53,0,0,1-.7,4.23,8.81,8.81,0,0,1-1.88,3,8.21,8.21,0,0,1-2.69,1.84,10,10,0,0,1-3.13.77Z"/><path class="cls-4" d="M346.2,372.83V370.3l2.72,0c0-2.58,0-3.86,0-6.44l-2.74,0v-2.53l2.74,0v-0.64a4.2,4.2,0,0,1,.38-1.86,3.71,3.71,0,0,1,1-1.28,4.07,4.07,0,0,1,1.44-.74,6,6,0,0,1,1.7-.23,10.84,10.84,0,0,1,2.62.28,6.72,6.72,0,0,1,1.7.66l-0.88,2.27a10.49,10.49,0,0,0-1.14-.46,5.05,5.05,0,0,0-1.58-.21,2.23,2.23,0,0,0-1.74.55,2.49,2.49,0,0,0-.5,1.69l4.84,0v2.53l-4.84,0v6.44l4.87,0v2.53C352.55,372.88,350.43,372.87,346.2,372.83Z"/><path class="cls-4" d="M360.48,362.19a12.62,12.62,0,0,1,2.13-.71,12.19,12.19,0,0,1,2.87-.3,6.39,6.39,0,0,1,2,.29,3.4,3.4,0,0,1,1.36.81,3.09,3.09,0,0,1,.75,1.26,5.53,5.53,0,0,1,.23,1.66q0,1.17-.08,2t-0.08,1.47a9.87,9.87,0,0,0,0,1.08c0,0.21.05,0.42,0.07,0.62h1.5v2.53h-3.87l-0.3-1.56H367a4,4,0,0,1-1.31,1.23,4.37,4.37,0,0,1-2.29.52,3.9,3.9,0,0,1-2.73-.92,3.15,3.15,0,0,1-1-2.44,3.65,3.65,0,0,1,.35-1.67,3,3,0,0,1,1-1.15,4.9,4.9,0,0,1,1.63-.66,9.54,9.54,0,0,1,2.12-.22q0.41,0,.87,0l1.12,0.09a2.36,2.36,0,0,0,0-.46v-0.44a1.47,1.47,0,0,0-.5-1.25,2.45,2.45,0,0,0-1.49-.38,7,7,0,0,0-2.11.3,13.47,13.47,0,0,0-1.58.6Zm3.93,8.45a2.76,2.76,0,0,0,1.64-.4,2.71,2.71,0,0,0,.8-0.86c0-.55,0-0.83,0-1.38l-0.68-.1a8,8,0,0,0-1-.06,4.74,4.74,0,0,0-.87.08,2.88,2.88,0,0,0-.78.25,1.51,1.51,0,0,0-.55.45,1.08,1.08,0,0,0-.2.67,1.31,1.31,0,0,0,.38,1A1.77,1.77,0,0,0,364.41,370.64Z"/><path class="cls-4" d="M384.84,371.71a6.69,6.69,0,0,1-2.21,1.09,9.75,9.75,0,0,1-2.65.38,7.5,7.5,0,0,1-2.66-.42,5.39,5.39,0,0,1-2-1.22,5.18,5.18,0,0,1-1.21-1.91,7.12,7.12,0,0,1-.42-2.48,6.48,6.48,0,0,1,.48-2.58,5.47,5.47,0,0,1,1.35-1.92,5.88,5.88,0,0,1,2-1.2,7.94,7.94,0,0,1,2.56-.42,9.47,9.47,0,0,1,2.42.28,11.25,11.25,0,0,1,1.73.56v4l-2.54,0c0-.85,0-1.27,0-2.12a6.49,6.49,0,0,0-1.43-.15,4.36,4.36,0,0,0-1.28.2,3.16,3.16,0,0,0-1.13.63,3.29,3.29,0,0,0-.81,1.07,3.87,3.87,0,0,0-.06,2.9,3.13,3.13,0,0,0,1.86,1.79,4.11,4.11,0,0,0,1.51.25,5.42,5.42,0,0,0,2.16-.39,8.8,8.8,0,0,0,1.26-.66Z"/><path class="cls-4" d="M388.76,363.8l-2.28,0V361.3l2.28,0v-2.62l3-.89v3.47l6-.09v2.53l-6,.09V367a3.92,3.92,0,0,0,.67,2.56,2.28,2.28,0,0,0,1.87.77,4,4,0,0,0,1.13-.17,4.35,4.35,0,0,0,.91-0.39,5.35,5.35,0,0,0,.74-0.52l0.61-.52,1.38,2a4.55,4.55,0,0,1-1,.86,8.52,8.52,0,0,1-1.27.69,8.15,8.15,0,0,1-1.42.47A6.81,6.81,0,0,1,394,373a4.91,4.91,0,0,1-3.89-1.38,6.6,6.6,0,0,1-1.3-4.55V363.8Z"/><path class="cls-4" d="M400.74,366.84a7.12,7.12,0,0,1,.44-2.58,5.34,5.34,0,0,1,3.17-3.16,7.48,7.48,0,0,1,2.5-.45,7.18,7.18,0,0,1,2.59.38,5.2,5.2,0,0,1,1.93,1.19,5,5,0,0,1,1.19,1.89,7.25,7.25,0,0,1,.4,2.47,7.16,7.16,0,0,1-.44,2.59,5.35,5.35,0,0,1-3.17,3.17,7.42,7.42,0,0,1-2.5.46,7.13,7.13,0,0,1-2.6-.38,5.21,5.21,0,0,1-1.93-1.19,5,5,0,0,1-1.19-1.9A7.26,7.26,0,0,1,400.74,366.84Zm3.09-.06a4.51,4.51,0,0,0,.21,1.4,3.35,3.35,0,0,0,.6,1.11,2.62,2.62,0,0,0,.95.73,2.86,2.86,0,0,0,1.27.24,3,3,0,0,0,2.18-.9,3.78,3.78,0,0,0,.84-2.71,3.9,3.9,0,0,0-.78-2.55,2.65,2.65,0,0,0-2.24-.93,3.63,3.63,0,0,0-1.2.22,2.43,2.43,0,0,0-1,.65,3.18,3.18,0,0,0-.63,1.12A5,5,0,0,0,403.83,366.78Z"/><path class="cls-4" d="M414.67,369.75l2.86-.07v-6.44l-2.86.07v-2.53l5.19-.14,0.35,1.51h0.09a6.37,6.37,0,0,1,1.48-1.31,3.74,3.74,0,0,1,1.94-.56,2.54,2.54,0,0,1,2.18.95,5.44,5.44,0,0,1,.8,3.36l-2.7.08a2.27,2.27,0,0,0-.24-1.2,0.82,0.82,0,0,0-.77-0.36,2.34,2.34,0,0,0-1.49.5,4.86,4.86,0,0,0-1,1.09v4.9l5-.15V372c-4.35.13-6.52,0.19-10.86,0.3C414.67,371.27,414.67,370.77,414.67,369.75Z"/><path class="cls-4" d="M429,369.34l4.06-.14v-6.44l-4.06.14v-2.53l7.06-.24v9l4.27-.16v2.53c-4.53.17-6.79,0.25-11.32,0.4v-2.53Zm3.5-12.22a1.68,1.68,0,0,1,.53-1.24,2.12,2.12,0,0,1,1.48-.56,2.19,2.19,0,0,1,1.54.45,1.5,1.5,0,0,1,.58,1.2,1.55,1.55,0,0,1-.58,1.23,2.44,2.44,0,0,1-1.54.53,2.08,2.08,0,0,1-1.48-.42A1.49,1.49,0,0,1,432.47,357.12Z"/><path class="cls-4" d="M443.52,360.63a13.1,13.1,0,0,1,2.13-.8,12.35,12.35,0,0,1,2.87-.42,6.28,6.28,0,0,1,2,.2,3.22,3.22,0,0,1,1.36.76,2.92,2.92,0,0,1,.75,1.23,5.43,5.43,0,0,1,.23,1.65q0,1.17-.08,2t-0.08,1.48a9.82,9.82,0,0,0,0,1.08c0,0.21.05,0.42,0.07,0.62l1.5-.07v2.53l-3.87.17-0.3-1.55h-0.11a4.23,4.23,0,0,1-1.31,1.29,4.49,4.49,0,0,1-2.29.61,3.76,3.76,0,0,1-2.73-.81,3,3,0,0,1-1-2.4,3.75,3.75,0,0,1,.35-1.68,3.15,3.15,0,0,1,1-1.19,5.12,5.12,0,0,1,1.63-.73,9.69,9.69,0,0,1,2.12-.31c0.27,0,.57,0,0.87,0l1.12,0a2.4,2.4,0,0,0,0-.46v-0.44a1.41,1.41,0,0,0-.5-1.23,2.38,2.38,0,0,0-1.49-.32,7.08,7.08,0,0,0-2.11.39,14.07,14.07,0,0,0-1.58.66Zm3.92,8.28a2.85,2.85,0,0,0,1.64-.47,2.88,2.88,0,0,0,.8-0.9v-1.38l-0.68-.07a7.85,7.85,0,0,0-1,0,4.8,4.8,0,0,0-.87.12,3,3,0,0,0-.78.29,1.6,1.6,0,0,0-.55.47,1.12,1.12,0,0,0-.2.68,1.26,1.26,0,0,0,.38,1A1.71,1.71,0,0,0,447.44,368.91Z"/><path class="cls-4" d="M457.28,354.65l4.91-.24c0,4.25,0,6.38,0,10.63a4.79,4.79,0,0,0,.44,2.44,1.46,1.46,0,0,0,1.41.62,4,4,0,0,0,1.18-.21,4.73,4.73,0,0,0,.92-0.47l1.13,2q-0.39.27-.78,0.51a5.36,5.36,0,0,1-.83.41,5.83,5.83,0,0,1-1,.28,7.69,7.69,0,0,1-1.16.14,4.18,4.18,0,0,1-3.25-.94,4.09,4.09,0,0,1-1.08-3.08v-9.66l-1.91.09v-2.53Z"/><path class="cls-4" d="M470.9,372.75c4.09-.22,6.14-0.34,10.23-0.58v2.46c-4.09.24-6.14,0.36-10.23,0.58v-2.46Z"/><path class="cls-4" d="M482.93,353.27l4.65-.28v5.89h0.09a4.25,4.25,0,0,1,1.47-1.27,5.24,5.24,0,0,1,2.17-.58,5.29,5.29,0,0,1,1.61.13,2.81,2.81,0,0,1,1.27.68,3.28,3.28,0,0,1,.83,1.38,7.05,7.05,0,0,1,.3,2.22v7.15l-3,.2v-6.53a2.7,2.7,0,0,0-.6-2,2,2,0,0,0-1.57-.52,2.77,2.77,0,0,0-1.57.62,3.07,3.07,0,0,0-1,1.39v7.34l-3,.18c0-5.43,0-8.14,0-13.57l-1.66.1v-2.53Z"/><path class="cls-4" d="M509.05,366.42a4.54,4.54,0,0,1-.77.6,8.14,8.14,0,0,1-1.11.58,9,9,0,0,1-1.39.47,9.14,9.14,0,0,1-1.61.25,7.62,7.62,0,0,1-2.64-.23,4.69,4.69,0,0,1-3.2-2.9,6.85,6.85,0,0,1-.43-2.51,7,7,0,0,1,.48-2.69,5.84,5.84,0,0,1,1.32-2,6.07,6.07,0,0,1,2-1.27,7.94,7.94,0,0,1,2.44-.55,7.41,7.41,0,0,1,1.81.1,4.58,4.58,0,0,1,1.72.67,3.83,3.83,0,0,1,1.28,1.41,4.89,4.89,0,0,1,.5,2.36,11.19,11.19,0,0,1-.23,2.16l-8.29.59a2.53,2.53,0,0,0,.31,1.22,2.22,2.22,0,0,0,.76.77,3.06,3.06,0,0,0,1.08.4,5.3,5.3,0,0,0,1.3.06,7,7,0,0,0,2.27-.48,5.27,5.27,0,0,0,1.44-.89Zm-5-7.85a4,4,0,0,0-1.13.24,3.44,3.44,0,0,0-1,.55,2.89,2.89,0,0,0-.7.83,2.55,2.55,0,0,0-.32,1.08l5.67-.4A2.1,2.1,0,0,0,504.08,358.56Z"/><path class="cls-4" d="M512.57,351.27l4.9-.37c0,4.25,0,6.38,0,10.63a4.72,4.72,0,0,0,.44,2.43,1.42,1.42,0,0,0,1.4.58,4,4,0,0,0,1.17-.24,4.89,4.89,0,0,0,.92-0.5l1.13,2q-0.39.28-.78,0.53a5.56,5.56,0,0,1-.83.43,6,6,0,0,1-1,.3,7.8,7.8,0,0,1-1.16.17,4.08,4.08,0,0,1-3.25-.85,4,4,0,0,1-1.08-3v-9.66l-1.91.14v-2.53Z"/><path class="cls-4" d="M524.38,355l3.91-.32,0.34,1.35h0.09a4.83,4.83,0,0,1,3.87-2,5.31,5.31,0,0,1,1.94.17,3.39,3.39,0,0,1,1.52.91,4.42,4.42,0,0,1,1,1.71,8.32,8.32,0,0,1,.34,2.57A8.76,8.76,0,0,1,537,362a6.28,6.28,0,0,1-1.13,2.11,5.45,5.45,0,0,1-1.79,1.42,6.62,6.62,0,0,1-2.42.64,9.37,9.37,0,0,1-1.4,0,3.64,3.64,0,0,1-1.15-.24v4.71l-3,.25c0-5.43,0-8.14,0-13.57l-1.73.14V355Zm7.32,1.6a3.27,3.27,0,0,0-1.6.57,2.54,2.54,0,0,0-1,1.4v4.78a2.26,2.26,0,0,0,.93.32,5,5,0,0,0,1.23,0,3.39,3.39,0,0,0,1.2-.32,2.76,2.76,0,0,0,1-.78,3.78,3.78,0,0,0,.64-1.27,6.19,6.19,0,0,0,.23-1.79,3.17,3.17,0,0,0-.74-2.28A2.2,2.2,0,0,0,531.7,356.55Z"/><path class="cls-4" d="M550.47,362.94a4.67,4.67,0,0,1-.77.61,8.32,8.32,0,0,1-1.1.6,9.38,9.38,0,0,1-3,.78,7.56,7.56,0,0,1-2.63-.17,4.55,4.55,0,0,1-3.2-2.83,6.79,6.79,0,0,1-.42-2.5,7.08,7.08,0,0,1,.48-2.7,6,6,0,0,1,1.32-2,6.24,6.24,0,0,1,2-1.32,8,8,0,0,1,2.44-.6,7.38,7.38,0,0,1,1.8.06,4.48,4.48,0,0,1,1.71.63,3.71,3.71,0,0,1,1.28,1.39,4.84,4.84,0,0,1,.49,2.34,11.28,11.28,0,0,1-.23,2.16l-8.28.77a2.5,2.5,0,0,0,.31,1.21,2.16,2.16,0,0,0,.76.76,3,3,0,0,0,1.08.37,5.28,5.28,0,0,0,1.3,0A7.05,7.05,0,0,0,548,362a5.41,5.41,0,0,0,1.44-.92Zm-5-7.75a4,4,0,0,0-1.13.27,3.53,3.53,0,0,0-1,.57,3,3,0,0,0-.7.85,2.6,2.6,0,0,0-.32,1.08l5.66-.52A2.05,2.05,0,0,0,545.5,355.2Z"/><path class="cls-4" d="M552.88,361.4l2.85-.27v-6.44l-2.85.27v-2.53l5.17-.5,0.34,1.48h0.09A7.06,7.06,0,0,1,560,352a4,4,0,0,1,1.93-.7,2.36,2.36,0,0,1,2.17.79,5.19,5.19,0,0,1,.79,3.3l-2.69.27a2.18,2.18,0,0,0-.24-1.18,0.76,0.76,0,0,0-.77-0.3,2.5,2.5,0,0,0-1.48.61,5.38,5.38,0,0,0-1,1.15v4.9l5-.5v2.53c-4.33.44-6.5,0.65-10.83,1.07V361.4Z"/><path class="cls-4" d="M576.23,366.43a9.79,9.79,0,0,1-3.12-.68,7.87,7.87,0,0,1-2.69-1.76,8.48,8.48,0,0,1-1.87-2.93,11.39,11.39,0,0,1-.7-4.21,12.62,12.62,0,0,1,.7-4.34,11.43,11.43,0,0,1,1.87-3.36,10.87,10.87,0,0,1,2.69-2.38,12.72,12.72,0,0,1,3.12-1.42l0.55,2.4a10.72,10.72,0,0,0-1.83.85,7.77,7.77,0,0,0-1.94,1.61,8.88,8.88,0,0,0-1.55,2.57,9.86,9.86,0,0,0-.63,3.75,8,8,0,0,0,.67,3.49,6.8,6.8,0,0,0,1.62,2.21,6.18,6.18,0,0,0,2,1.19,7.2,7.2,0,0,0,1.7.43Z"/><path class="cls-4" d="M581.91,360.94l6.61-14.13-7.49.84v-2.71c4.19-.46,6.28-0.7,10.47-1.18,0,0.9,0,1.35,0,2.25l-6.68,14.61Z"/><path class="cls-4" d="M594.58,348.43a6,6,0,0,1,.4-2.21,5.71,5.71,0,0,1,1.12-1.82,6.17,6.17,0,0,1,1.74-1.31,6.73,6.73,0,0,1,2.28-.68,6.46,6.46,0,0,1,2.34.11,4.19,4.19,0,0,1,1.81.94,4.42,4.42,0,0,1,1.17,1.76,7.2,7.2,0,0,1,.41,2.56,14.5,14.5,0,0,1-.69,4.68,11.1,11.1,0,0,1-1.85,3.45,9.51,9.51,0,0,1-2.7,2.3,11.8,11.8,0,0,1-3.21,1.26l-0.64-2.27a8.82,8.82,0,0,0,2.28-.89,8.12,8.12,0,0,0,1.78-1.35,7.06,7.06,0,0,0,1.24-1.69,5.83,5.83,0,0,0,.62-1.93,4.06,4.06,0,0,1-1.24.92,5.5,5.5,0,0,1-1.81.51h0a5.34,5.34,0,0,1-1.77-.09,4.15,4.15,0,0,1-1.62-.73,4.07,4.07,0,0,1-1.18-1.41A4.53,4.53,0,0,1,594.58,348.43Zm2.89-.5a2.38,2.38,0,0,0,.24,1.11,2.13,2.13,0,0,0,.63.75,2.33,2.33,0,0,0,.91.4,3.23,3.23,0,0,0,1.07,0,4.42,4.42,0,0,0,1.63-.5,2.85,2.85,0,0,0,1-.86A6.72,6.72,0,0,0,603,348a4.23,4.23,0,0,0-.18-1.24,3,3,0,0,0-.55-1,2.29,2.29,0,0,0-.92-0.66,2.54,2.54,0,0,0-1.26-.14A2.94,2.94,0,0,0,597.47,347.93Z"/><path class="cls-4" d="M619.1,356.47c-4.09.53-6.14,0.79-10.23,1.3v-2.23c0.18-.18.41-0.41,0.69-0.7l0.93-1q0.52-.55,1.09-1.19t1.12-1.34q0.78-1,1.36-1.76a13.53,13.53,0,0,0,1-1.47,6.37,6.37,0,0,0,.56-1.31,4.54,4.54,0,0,0,.18-1.28,1.92,1.92,0,0,0-.21-0.87,2,2,0,0,0-.57-0.7,2.35,2.35,0,0,0-.88-0.42,3.05,3.05,0,0,0-1.14-.05,4.65,4.65,0,0,0-1.5.44,6.09,6.09,0,0,0-1.41,1l-1.19-2a11.93,11.93,0,0,1,2.14-1.43,8,8,0,0,1,2.72-.82,6.28,6.28,0,0,1,1.89,0,4.32,4.32,0,0,1,1.6.61,3.28,3.28,0,0,1,1.11,1.2,3.71,3.71,0,0,1,.41,1.81,7.27,7.27,0,0,1-.13,1.38,7.47,7.47,0,0,1-.39,1.32,10,10,0,0,1-.69,1.39q-0.42.72-1,1.58-0.46.66-1,1.34t-1.07,1.3q-0.53.62-1,1.17t-0.93.92l6.6-.85C619.1,354.95,619.1,355.45,619.1,356.47Z"/><path class="cls-4" d="M621.74,348a14.42,14.42,0,0,1,.44-3.73,8.77,8.77,0,0,1,1.23-2.77,6.2,6.2,0,0,1,1.9-1.8,6.36,6.36,0,0,1,2.46-.85,4.67,4.67,0,0,1,4.46,1.43q1.56,1.82,1.56,6.1a14.55,14.55,0,0,1-.44,3.75,9,9,0,0,1-1.23,2.79,6.13,6.13,0,0,1-1.91,1.82,6.43,6.43,0,0,1-2.47.85,4.52,4.52,0,0,1-4.46-1.56Q621.74,352.14,621.74,348Zm3-.39c0,0.23,0,.45,0,0.65s0,0.42,0,.63l5.55-5.87a2.19,2.19,0,0,0-2.57-1.63,2.9,2.9,0,0,0-2.24,1.71A10.13,10.13,0,0,0,624.72,347.66Zm6.1-.82q0-.37,0-0.7c0-.22,0-0.44,0-0.65l-5.57,5.88a2.23,2.23,0,0,0,2.57,1.75,2.93,2.93,0,0,0,2.25-1.71A10.16,10.16,0,0,0,630.81,346.84Z"/><path class="cls-4" d="M639.61,352.22a1.82,1.82,0,0,1,.52-1.31,2.17,2.17,0,0,1,1.29-.64,2,2,0,0,1,1.9.56,2.87,2.87,0,0,1,.64,2,4.76,4.76,0,0,1-.4,1.94,6.05,6.05,0,0,1-1,1.62,6.9,6.9,0,0,1-1.43,1.22,6.71,6.71,0,0,1-1.57.75l-0.62-1.18a7.69,7.69,0,0,0,1.11-.55,5.45,5.45,0,0,0,1-.78,4.37,4.37,0,0,0,.77-1,2.76,2.76,0,0,0,.35-1.15,3,3,0,0,1-1.17.2,1.53,1.53,0,0,1-.79-0.26,1.24,1.24,0,0,1-.45-0.58A2.2,2.2,0,0,1,639.61,352.22Z"/><path class="cls-4" d="M650.69,352.1l6.59-14.36-7.46,1.1c0-1.09,0-1.63,0-2.71,4.18-.61,6.26-0.92,10.43-1.55,0,0.9,0,1.35,0,2.25l-6.66,14.84Z"/><path class="cls-4" d="M664.83,352.35a9.23,9.23,0,0,0,1.69-.87,8.94,8.94,0,0,0,2-1.71,9.73,9.73,0,0,0,1.61-2.63,9.3,9.3,0,0,0,.66-3.67,8.67,8.67,0,0,0-.63-3.58,6.23,6.23,0,0,0-1.54-2.16,5.39,5.39,0,0,0-1.93-1.1,8.44,8.44,0,0,0-1.82-.38l0.55-2.55a10.08,10.08,0,0,1,3.11.6,7.47,7.47,0,0,1,2.67,1.68,8.13,8.13,0,0,1,1.86,2.87,11.17,11.17,0,0,1,.7,4.16,13,13,0,0,1-.7,4.39,11.92,11.92,0,0,1-1.86,3.42,11.41,11.41,0,0,1-2.67,2.47,12.34,12.34,0,0,1-3.11,1.49Z"/><path class="cls-4" d="M55.8,449.93V447.4l2.7,0.43v-6.44L55.78,441v-2.53l2.72,0.43v-0.64a3.87,3.87,0,0,1,.38-1.8,3,3,0,0,1,1-1.13,3.42,3.42,0,0,1,1.43-.53,5.73,5.73,0,0,1,1.68,0,11.54,11.54,0,0,1,2.6.66,7.89,7.89,0,0,1,1.68.91l-0.87,2.14a12.32,12.32,0,0,0-1.13-.63,5.46,5.46,0,0,0-1.57-.45,2,2,0,0,0-1.73.3,2.21,2.21,0,0,0-.49,1.61l4.8,0.74v2.53l-4.8-.74v6.44L66.3,449v2.53C62.1,450.93,60,450.6,55.8,449.93Z"/><path class="cls-4" d="M70,441.41a11.15,11.15,0,0,1,2.12-.39,11.81,11.81,0,0,1,2.85.12,6.9,6.9,0,0,1,2,.59,4.15,4.15,0,0,1,1.35,1,3.75,3.75,0,0,1,.74,1.37,5.93,5.93,0,0,1,.23,1.69q0,1.17-.08,2c-0.05.54-.08,1-0.08,1.46a10,10,0,0,0,0,1.09c0,0.21.05,0.43,0.07,0.63l1.49,0.22v2.53l-3.84-.56-0.3-1.61-0.11,0a3.19,3.19,0,0,1-1.3,1,4,4,0,0,1-2.27.18,4.47,4.47,0,0,1-2.71-1.33,3.65,3.65,0,0,1-1-2.59,3.35,3.35,0,0,1,.35-1.61,2.38,2.38,0,0,1,1-1,4.24,4.24,0,0,1,1.61-.42,9.26,9.26,0,0,1,2.1.1q0.41,0.06.86,0.17l1.11,0.26a2.27,2.27,0,0,0,0-.45v-0.44a1.7,1.7,0,0,0-.5-1.33,2.76,2.76,0,0,0-1.48-.6,6.64,6.64,0,0,0-2.09,0,11.75,11.75,0,0,0-1.57.36Zm3.89,9a2.52,2.52,0,0,0,1.63-.16,2.16,2.16,0,0,0,.79-0.75v-1.38l-0.68-.2a8.27,8.27,0,0,0-1-.2,4.65,4.65,0,0,0-.86,0,2.57,2.57,0,0,0-.77.14,1.22,1.22,0,0,0-.54.37,1,1,0,0,0-.2.64,1.51,1.51,0,0,0,.37,1.06A2,2,0,0,0,73.85,450.43Z"/><path class="cls-4" d="M94.13,454.52a5.66,5.66,0,0,1-2.2.76,9.32,9.32,0,0,1-2.63,0,8.17,8.17,0,0,1-2.65-.81,6.56,6.56,0,0,1-1.95-1.51,6.29,6.29,0,0,1-1.2-2.09,7.69,7.69,0,0,1-.41-2.54,6,6,0,0,1,.48-2.51,4.43,4.43,0,0,1,1.34-1.72,4.87,4.87,0,0,1,2-.9,7.52,7.52,0,0,1,2.54,0,10.12,10.12,0,0,1,2.4.64,13,13,0,0,1,1.72.81v4l-2.52-.35v-2.12a6.93,6.93,0,0,0-1.42-.36,4.15,4.15,0,0,0-1.27,0,2.58,2.58,0,0,0-1.92,1.42,3.26,3.26,0,0,0-.31,1.5,3.85,3.85,0,0,0,.25,1.39,3.85,3.85,0,0,0,1.84,2.07,4.48,4.48,0,0,0,1.5.48,5.09,5.09,0,0,0,2.14-.07,7.32,7.32,0,0,0,1.25-.47Z"/><path class="cls-4" d="M98,447.19l-2.27-.31v-2.53L98,444.65V442l3-.45v3.47l6,0.8v2.53l-6-.8v3.29a4.39,4.39,0,0,0,.66,2.65,2.66,2.66,0,0,0,1.86,1,3.83,3.83,0,0,0,1.12,0,3.76,3.76,0,0,0,.91-0.26,4.33,4.33,0,0,0,.73-0.41l0.61-.43,1.38,2.25a3.66,3.66,0,0,1-1,.71,7.11,7.11,0,0,1-1.26.5,7.24,7.24,0,0,1-1.41.26,6.58,6.58,0,0,1-1.44,0,5.68,5.68,0,0,1-3.86-2A7.45,7.45,0,0,1,98,450.47v-3.29Z"/><path class="cls-4" d="M109.92,452a6.66,6.66,0,0,1,.44-2.52,4.42,4.42,0,0,1,1.24-1.75,4.51,4.51,0,0,1,1.91-.94,7,7,0,0,1,2.49-.08,7.8,7.8,0,0,1,2.58.76,6.34,6.34,0,0,1,1.92,1.47,6.08,6.08,0,0,1,1.18,2.07,7.81,7.81,0,0,1,.4,2.53,6.68,6.68,0,0,1-.44,2.52,4.35,4.35,0,0,1-3.15,2.7,7,7,0,0,1-2.49.09,7.75,7.75,0,0,1-2.58-.77,6.34,6.34,0,0,1-1.91-1.48,6.1,6.1,0,0,1-1.18-2.07A7.82,7.82,0,0,1,109.92,452Zm3.07,0.4a4.84,4.84,0,0,0,.21,1.43,4,4,0,0,0,.6,1.2,3.25,3.25,0,0,0,.94.87,3.16,3.16,0,0,0,1.26.43,2.61,2.61,0,0,0,2.17-.58,3.34,3.34,0,0,0,.84-2.59,4.42,4.42,0,0,0-.78-2.66,3.1,3.1,0,0,0-2.22-1.26,3.42,3.42,0,0,0-1.19,0,2,2,0,0,0-1,.51,2.61,2.61,0,0,0-.63,1A4.7,4.7,0,0,0,113,452.39Z"/><path class="cls-4" d="M123.77,457l2.84,0.35v-6.44l-2.84-.35V448l5.16,0.63,0.34,1.56h0.09a5.13,5.13,0,0,1,1.47-1.09,3.39,3.39,0,0,1,1.93-.28,3,3,0,0,1,2.17,1.27,6,6,0,0,1,.79,3.47l-2.69-.32a2.49,2.49,0,0,0-.24-1.24,1,1,0,0,0-.77-0.47,2.08,2.08,0,0,0-1.48.28,3.9,3.9,0,0,0-1,.94v4.9l5,0.59v2.53c-4.32-.51-6.49-0.77-10.81-1.3V457Z"/><path class="cls-4" d="M138,458.66l4,0.46v-6.44l-4-.46v-2.53l7,0.8v9l4.25,0.47v2.53c-4.51-.5-6.77-0.75-11.27-1.27v-2.53Zm3.49-11.7a1.44,1.44,0,0,1,.53-1.16,1.86,1.86,0,0,1,1.47-.34,2.5,2.5,0,0,1,1.54.68,1.77,1.77,0,0,1,.57,1.28,1.32,1.32,0,0,1-.57,1.14,2.17,2.17,0,0,1-1.54.3,2.37,2.37,0,0,1-1.47-.64A1.73,1.73,0,0,1,141.49,447Z"/><path class="cls-4" d="M152.49,452.09a11.54,11.54,0,0,1,2.12-.48,11.87,11.87,0,0,1,2.86,0,6.72,6.72,0,0,1,2,.5,3.92,3.92,0,0,1,1.36,1,3.55,3.55,0,0,1,.75,1.34,5.8,5.8,0,0,1,.23,1.68q0,1.17-.08,2c-0.05.55-.08,1-0.08,1.46a10,10,0,0,0,0,1.09c0,0.21.05,0.43,0.07,0.63l1.49,0.15v2.53l-3.86-.4-0.3-1.6H159a3.4,3.4,0,0,1-1.3,1.09,4.1,4.1,0,0,1-2.28.28,4.29,4.29,0,0,1-2.72-1.21,3.5,3.5,0,0,1-1-2.55,3.42,3.42,0,0,1,.35-1.63,2.54,2.54,0,0,1,1-1,4.41,4.41,0,0,1,1.62-.49,9.32,9.32,0,0,1,2.11,0q0.41,0,.87.14l1.12,0.21a2.3,2.3,0,0,0,0-.46v-0.44a1.63,1.63,0,0,0-.5-1.31,2.66,2.66,0,0,0-1.48-.54,6.7,6.7,0,0,0-2.1.08,12.23,12.23,0,0,0-1.57.43Zm3.91,8.86a2.58,2.58,0,0,0,1.64-.23,2.31,2.31,0,0,0,.79-0.78v-1.38l-0.68-.18a8.14,8.14,0,0,0-1-.16,4.66,4.66,0,0,0-.86,0,2.63,2.63,0,0,0-.77.17,1.29,1.29,0,0,0-.55.39,1,1,0,0,0-.2.65,1.45,1.45,0,0,0,.37,1A1.94,1.94,0,0,0,156.4,460.95Z"/><path class="cls-4" d="M166.21,448.14l4.9,0.49v10.63a5.2,5.2,0,0,0,.44,2.5,1.72,1.72,0,0,0,1.4.83,3.76,3.76,0,0,0,1.17,0,4,4,0,0,0,.92-0.34l1.13,2.18q-0.39.22-.78,0.4a4.59,4.59,0,0,1-.83.29,5.31,5.31,0,0,1-1,.14,7.49,7.49,0,0,1-1.16,0,4.78,4.78,0,0,1-3.24-1.42,4.68,4.68,0,0,1-1.08-3.24v-9.66l-1.91-.19v-2.53Z"/><path class="cls-4" d="M188.46,471.24a11.6,11.6,0,0,1-3.13-1.29,10.44,10.44,0,0,1-2.69-2.29,11,11,0,0,1-1.87-3.3,12.52,12.52,0,0,1-.7-4.34,11.46,11.46,0,0,1,.7-4.2,8.84,8.84,0,0,1,1.87-3,8.19,8.19,0,0,1,2.69-1.85,10.61,10.61,0,0,1,3.13-.8l0.55,2.51a8.9,8.9,0,0,0-1.83.49,5.88,5.88,0,0,0-1.94,1.23,6.8,6.8,0,0,0-1.55,2.26,9.26,9.26,0,0,0,1.66,9.78,8.15,8.15,0,0,0,2,1.58,8.64,8.64,0,0,0,1.7.76Z"/><path class="cls-4" d="M194.24,464.34l3.52,0.3V454.59l-3,2.06-1.38-2,5.25-3.55,2,0.17v13.57l3.45,0.28v2.53l-9.83-.83v-2.53Z"/><path class="cls-4" d="M208,465.49l3.52,0.28V455.72l-3,2.08-1.38-1.95,5.25-3.59,2,0.16V466l3.45,0.26v2.53L208,468v-2.53Z"/><path class="cls-4" d="M222.18,471.46a7.42,7.42,0,0,0,1.7-.49,6.53,6.53,0,0,0,2-1.26,7.16,7.16,0,0,0,1.62-2.27,8.17,8.17,0,0,0,.67-3.52,9.68,9.68,0,0,0-.63-3.72,8.48,8.48,0,0,0-1.55-2.51,7.41,7.41,0,0,0-1.95-1.54,10.36,10.36,0,0,0-1.83-.79l0.55-2.42a12.28,12.28,0,0,1,3.13,1.3,10.35,10.35,0,0,1,2.69,2.28,10.93,10.93,0,0,1,1.88,3.29,12.39,12.39,0,0,1,.7,4.31,11.58,11.58,0,0,1-.7,4.23,8.89,8.89,0,0,1-1.88,3,8.28,8.28,0,0,1-2.69,1.86,10.06,10.06,0,0,1-3.13.79Z"/><path class="cls-4" d="M373.83,474.22v-2.53h2.72v-6.44h-2.74v-2.53h2.74v-0.64a4.24,4.24,0,0,1,.38-1.87,3.78,3.78,0,0,1,1-1.29,4.15,4.15,0,0,1,1.44-.76,6,6,0,0,1,1.7-.25,10.8,10.8,0,0,1,2.62.24,6.67,6.67,0,0,1,1.7.64l-0.88,2.29a10.37,10.37,0,0,0-1.14-.45,5,5,0,0,0-1.58-.19A2.26,2.26,0,0,0,380,461a2.51,2.51,0,0,0-.5,1.69l4.84,0v2.53l-4.84,0v6.44l4.87,0v2.53C380.18,474.19,378.06,474.21,373.83,474.22Z"/><path class="cls-4" d="M388.11,463.39a12.73,12.73,0,0,1,2.13-.74,12.23,12.23,0,0,1,2.87-.34,6.35,6.35,0,0,1,2,.26,3.34,3.34,0,0,1,1.36.79,3,3,0,0,1,.75,1.25,5.49,5.49,0,0,1,.23,1.65q0,1.17-.08,2t-0.08,1.47a9.8,9.8,0,0,0,0,1.08c0,0.21.05,0.42,0.07,0.62l1.5,0v2.53l-3.87.06-0.3-1.56h-0.11a4.06,4.06,0,0,1-1.31,1.25,4.41,4.41,0,0,1-2.29.55,3.85,3.85,0,0,1-2.73-.89,3.11,3.11,0,0,1-1-2.43,3.69,3.69,0,0,1,.35-1.67,3,3,0,0,1,1-1.16,5,5,0,0,1,1.63-.69,9.58,9.58,0,0,1,2.12-.25c0.27,0,.57,0,0.87,0l1.12,0.08a2.38,2.38,0,0,0,0-.46v-0.44a1.45,1.45,0,0,0-.5-1.25,2.43,2.43,0,0,0-1.49-.36,7,7,0,0,0-2.11.33,13.74,13.74,0,0,0-1.58.62Zm3.93,8.39a2.53,2.53,0,0,0,2.44-1.3V469.1l-0.68-.09a7.91,7.91,0,0,0-1,0,4.79,4.79,0,0,0-.87.09,2.91,2.91,0,0,0-.78.26,1.54,1.54,0,0,0-.55.46,1.09,1.09,0,0,0-.2.67,1.29,1.29,0,0,0,.38,1A1.75,1.75,0,0,0,392,471.78Z"/><path class="cls-4" d="M412.47,472.56a6.8,6.8,0,0,1-2.21,1.12,9.81,9.81,0,0,1-2.65.42,7.46,7.46,0,0,1-2.66-.38,5.29,5.29,0,0,1-2-1.19,5.08,5.08,0,0,1-1.21-1.9,7.07,7.07,0,0,1-.42-2.48,6.53,6.53,0,0,1,.48-2.59,5.58,5.58,0,0,1,1.35-1.94,6,6,0,0,1,2-1.23,8,8,0,0,1,2.56-.46,9.42,9.42,0,0,1,2.42.24,11.12,11.12,0,0,1,1.73.53v4l-2.54.06v-2.12a6.48,6.48,0,0,0-1.43-.13,4.39,4.39,0,0,0-1.28.22,3.22,3.22,0,0,0-1.13.65,3.36,3.36,0,0,0-.81,1.09,3.56,3.56,0,0,0-.31,1.55,3.51,3.51,0,0,0,.25,1.35,3.07,3.07,0,0,0,1.86,1.77,4.09,4.09,0,0,0,1.51.23,5.46,5.46,0,0,0,2.16-.42,9,9,0,0,0,1.26-.67Z"/><path class="cls-4" d="M416.39,464.6l-2.28.06v-2.53l2.28-.06v-2.62l3-.93V462l6-.18v2.53l-6,.18v3.29a3.88,3.88,0,0,0,.67,2.55,2.24,2.24,0,0,0,1.87.74,4,4,0,0,0,1.13-.18,4.4,4.4,0,0,0,.91-0.41,5.41,5.41,0,0,0,.74-0.53l0.61-.52,1.38,2a4.66,4.66,0,0,1-1,.87,8.73,8.73,0,0,1-1.27.71,8.25,8.25,0,0,1-1.42.49,6.84,6.84,0,0,1-1.45.2,4.85,4.85,0,0,1-3.89-1.33q-1.3-1.4-1.3-4.53V464.6Z"/><path class="cls-4" d="M428.36,467.47a7.18,7.18,0,0,1,.44-2.59,5.44,5.44,0,0,1,3.17-3.2,7.53,7.53,0,0,1,2.5-.49,7.13,7.13,0,0,1,2.59.34,5.11,5.11,0,0,1,1.93,1.16,4.92,4.92,0,0,1,1.19,1.88,7.82,7.82,0,0,1,0,5.06,5.46,5.46,0,0,1-3.17,3.21,7.48,7.48,0,0,1-2.5.49,7.08,7.08,0,0,1-2.59-.35,5.11,5.11,0,0,1-1.93-1.17,4.94,4.94,0,0,1-1.19-1.88A7.21,7.21,0,0,1,428.36,467.47Zm3.09-.1a4.48,4.48,0,0,0,.21,1.4,3.29,3.29,0,0,0,.6,1.11,2.57,2.57,0,0,0,.94.71,2.85,2.85,0,0,0,1.27.22,3,3,0,0,0,2.18-.93,4.66,4.66,0,0,0,.06-5.26,2.61,2.61,0,0,0-2.24-.9,3.66,3.66,0,0,0-1.2.24,2.48,2.48,0,0,0-1,.67,3.23,3.23,0,0,0-.63,1.13A5,5,0,0,0,431.45,467.37Z"/><path class="cls-4" d="M442.29,470.19l2.86-.11v-6.44l-2.86.11v-2.53l5.19-.21,0.35,1.5h0.09a6.51,6.51,0,0,1,1.48-1.33,3.78,3.78,0,0,1,1.94-.59,2.51,2.51,0,0,1,2.18.91,5.39,5.39,0,0,1,.79,3.34l-2.7.12a2.25,2.25,0,0,0-.24-1.2,0.81,0.81,0,0,0-.77-0.35,2.37,2.37,0,0,0-1.49.52,5,5,0,0,0-1,1.1V470l5-.22v2.53c-4.34.19-6.52,0.29-10.86,0.46v-2.53Z"/><path class="cls-4" d="M456.58,469.58l4.06-.19v-6.44l-4.06.19v-2.53l7.05-.34v9l4.26-.22v2.53c-4.53.24-6.79,0.35-11.32,0.56v-2.53Zm3.5-12.26a1.71,1.71,0,0,1,.53-1.24,2.52,2.52,0,0,1,3-.15,1.48,1.48,0,0,1,.58,1.19,1.57,1.57,0,0,1-.58,1.24,2.47,2.47,0,0,1-1.54.55,2.06,2.06,0,0,1-1.47-.4A1.47,1.47,0,0,1,460.08,457.31Z"/><path class="cls-4" d="M471.13,460.66a13.26,13.26,0,0,1,2.13-.83,12.43,12.43,0,0,1,2.87-.46,6.25,6.25,0,0,1,2,.17,3.16,3.16,0,0,1,1.36.74,2.87,2.87,0,0,1,.75,1.22,5.41,5.41,0,0,1,.23,1.64q0,1.17-.08,2t-0.08,1.48a9.75,9.75,0,0,0,0,1.08c0,0.21.05,0.42,0.07,0.62l1.5-.09v2.53l-3.87.23-0.3-1.55h-0.11a4.31,4.31,0,0,1-1.31,1.3,4.54,4.54,0,0,1-2.29.65,3.71,3.71,0,0,1-2.73-.77,3,3,0,0,1-1-2.38,3.78,3.78,0,0,1,.35-1.69,3.22,3.22,0,0,1,1-1.21,5.2,5.2,0,0,1,1.63-.76,9.72,9.72,0,0,1,2.12-.34,8.65,8.65,0,0,1,.87,0l1.12,0a2.41,2.41,0,0,0,0-.46v-0.44a1.39,1.39,0,0,0-.5-1.23,2.36,2.36,0,0,0-1.49-.29,7.13,7.13,0,0,0-2.1.42,14.29,14.29,0,0,0-1.58.68Zm3.92,8.22a2.88,2.88,0,0,0,1.64-.49,3,3,0,0,0,.8-0.91V466.1L476.8,466a7.91,7.91,0,0,0-1,0,4.85,4.85,0,0,0-.87.13,3,3,0,0,0-.77.3,1.63,1.63,0,0,0-.55.48,1.13,1.13,0,0,0-.2.68,1.24,1.24,0,0,0,.38,1A1.69,1.69,0,0,0,475,468.88Z"/><path class="cls-4" d="M484.88,454.49l4.91-.31v10.63a4.76,4.76,0,0,0,.44,2.43,1.44,1.44,0,0,0,1.41.6,4,4,0,0,0,1.17-.23,4.82,4.82,0,0,0,.92-0.49l1.13,2q-0.39.28-.78,0.52a5.47,5.47,0,0,1-.83.42,5.88,5.88,0,0,1-1,.29,7.7,7.7,0,0,1-1.16.16,4.13,4.13,0,0,1-3.25-.9,4,4,0,0,1-1.08-3.06V456.9l-1.91.12v-2.53Z"/><path class="cls-4" d="M498.5,472.4c4.09-.28,6.14-0.42,10.22-0.72v2.46c-4.09.3-6.13,0.44-10.22,0.72V472.4Z"/><path class="cls-4" d="M510.52,452.76l4.65-.35v5.89h0.09a4.34,4.34,0,0,1,1.47-1.29,5.76,5.76,0,0,1,3.78-.5,2.76,2.76,0,0,1,1.27.66,3.22,3.22,0,0,1,.83,1.37,7,7,0,0,1,.3,2.22v7.15l-3,.24v-6.53a2.67,2.67,0,0,0-.6-2,1.94,1.94,0,0,0-1.57-.5,2.81,2.81,0,0,0-1.56.64,3.13,3.13,0,0,0-1,1.4v7.34l-3,.23V455.16l-1.66.12C510.52,454.27,510.52,453.77,510.52,452.76Z"/><path class="cls-4" d="M536.61,465.53a4.63,4.63,0,0,1-.77.61,8.27,8.27,0,0,1-1.1.59,9.34,9.34,0,0,1-3,.76,7.58,7.58,0,0,1-2.63-.19,4.6,4.6,0,0,1-3.2-2.85,6.81,6.81,0,0,1-.43-2.51,7,7,0,0,1,.48-2.7,6,6,0,0,1,1.32-2,6.19,6.19,0,0,1,2-1.3,8,8,0,0,1,2.44-.59,7.38,7.38,0,0,1,1.81.08,4.52,4.52,0,0,1,1.71.65,3.75,3.75,0,0,1,1.28,1.4,4.85,4.85,0,0,1,.5,2.35,11.26,11.26,0,0,1-.23,2.16l-8.28.71a2.51,2.51,0,0,0,.31,1.22,2.17,2.17,0,0,0,.76.76,3,3,0,0,0,1.08.38,5.3,5.3,0,0,0,1.3,0,7,7,0,0,0,2.27-.52,5.36,5.36,0,0,0,1.44-.91Zm-5-7.78a4,4,0,0,0-1.13.26,3.5,3.5,0,0,0-1,.56,3,3,0,0,0-.7.84,2.58,2.58,0,0,0-.32,1.08l5.66-.48A2.07,2.07,0,0,0,531.65,457.75Z"/><path class="cls-4" d="M540.13,450.34l4.9-.44v10.63a4.69,4.69,0,0,0,.44,2.42,1.4,1.4,0,0,0,1.4.56,4,4,0,0,0,1.17-.26,5,5,0,0,0,.92-0.51l1.13,2q-0.39.29-.78,0.55a5.66,5.66,0,0,1-.83.45,6,6,0,0,1-1,.32,7.81,7.81,0,0,1-1.16.19,4,4,0,0,1-3.24-.81,3.94,3.94,0,0,1-1.08-3V452.7l-1.91.17v-2.53Z"/><path class="cls-4" d="M551.93,453.85l3.91-.38,0.34,1.35h0.09a4.9,4.9,0,0,1,3.86-2.08,5.28,5.28,0,0,1,1.94.14,3.32,3.32,0,0,1,1.52.89,4.33,4.33,0,0,1,1,1.69,8.28,8.28,0,0,1,.34,2.56,8.83,8.83,0,0,1-.39,2.7,6.4,6.4,0,0,1-1.13,2.13,5.56,5.56,0,0,1-1.79,1.45,6.68,6.68,0,0,1-2.41.68,9.42,9.42,0,0,1-1.4,0,3.61,3.61,0,0,1-1.15-.22c0,1.89,0,2.83,0,4.71l-3,.29c0-5.43,0-8.14,0-13.57l-1.72.17v-2.53Zm7.31,1.5a3.3,3.3,0,0,0-1.6.59,2.59,2.59,0,0,0-1,1.41v4.78a2.23,2.23,0,0,0,.93.31,5,5,0,0,0,1.23,0,3.41,3.41,0,0,0,1.2-.34,2.82,2.82,0,0,0,1-.8,3.85,3.85,0,0,0,.64-1.28,6.23,6.23,0,0,0,.23-1.79,3.13,3.13,0,0,0-.74-2.27A2.17,2.17,0,0,0,559.24,455.35Z"/><path class="cls-4" d="M578,461.48a4.77,4.77,0,0,1-.77.62,8.43,8.43,0,0,1-1.1.61,9.45,9.45,0,0,1-3,.83,7.53,7.53,0,0,1-2.63-.14,4.46,4.46,0,0,1-3.19-2.79,6.75,6.75,0,0,1-.42-2.5,7.13,7.13,0,0,1,.48-2.71,6.13,6.13,0,0,1,1.32-2,6.36,6.36,0,0,1,2-1.34,8.1,8.1,0,0,1,2.44-.64,7.36,7.36,0,0,1,1.8,0,4.41,4.41,0,0,1,1.71.61,3.63,3.63,0,0,1,1.27,1.37,4.8,4.8,0,0,1,.49,2.34,11.35,11.35,0,0,1-.23,2.16l-8.27.88a2.47,2.47,0,0,0,.31,1.21,2.11,2.11,0,0,0,.76.75,3,3,0,0,0,1.08.36,5.28,5.28,0,0,0,1.3,0,7.12,7.12,0,0,0,2.26-.56,5.51,5.51,0,0,0,1.44-.94Zm-5-7.68a4,4,0,0,0-1.13.28,3.58,3.58,0,0,0-1,.58,3.05,3.05,0,0,0-.7.86,2.63,2.63,0,0,0-.32,1.09l5.65-.6A2,2,0,0,0,573,453.8Z"/><path class="cls-4" d="M580.4,459.9l2.85-.31v-6.44l-2.85.31v-2.53l5.17-.57,0.34,1.48H586a7.21,7.21,0,0,1,1.47-1.43,4,4,0,0,1,1.93-.73,2.33,2.33,0,0,1,2.17.76,5.15,5.15,0,0,1,.79,3.29l-2.69.31a2.16,2.16,0,0,0-.24-1.18,0.75,0.75,0,0,0-.77-0.29,2.53,2.53,0,0,0-1.48.63,5.5,5.5,0,0,0-1,1.17c0,2,0,2.94,0,4.9l5-.57v2.53c-4.32.5-6.49,0.74-10.82,1.22V459.9Z"/><path class="cls-4" d="M603.73,464.61a9.68,9.68,0,0,1-3.12-.63,7.71,7.71,0,0,1-2.68-1.73,8.33,8.33,0,0,1-1.87-2.91,11.33,11.33,0,0,1-.7-4.2,12.71,12.71,0,0,1,.7-4.35,11.65,11.65,0,0,1,1.87-3.38,11.09,11.09,0,0,1,2.68-2.42,12.91,12.91,0,0,1,3.12-1.46l0.55,2.39a10.89,10.89,0,0,0-1.82.88,7.92,7.92,0,0,0-1.94,1.64A9,9,0,0,0,599,451a10,10,0,0,0-.63,3.76,8,8,0,0,0,.67,3.49,6.67,6.67,0,0,0,1.62,2.19,6.06,6.06,0,0,0,2,1.17,7.1,7.1,0,0,0,1.7.4Z"/><path class="cls-4" d="M609.49,456.49L613,456V446l-3,2.7L608.59,447l5.23-4.66,2-.26v13.57l3.44-.44v2.53L609.49,459v-2.53Z"/><path class="cls-4" d="M625.81,455.44a1.81,1.81,0,0,1,.52-1.31,2.16,2.16,0,0,1,1.3-.63,2,2,0,0,1,1.9.57,2.89,2.89,0,0,1,.64,2,4.73,4.73,0,0,1-.4,1.94,6,6,0,0,1-1,1.61,6.82,6.82,0,0,1-1.43,1.21,6.64,6.64,0,0,1-1.57.74l-0.62-1.18a7.62,7.62,0,0,0,1.11-.54,5.41,5.41,0,0,0,1-.77,4.34,4.34,0,0,0,.77-1,2.74,2.74,0,0,0,.35-1.15,3,3,0,0,1-1.17.19,1.54,1.54,0,0,1-.79-0.26,1.25,1.25,0,0,1-.45-0.58A2.21,2.21,0,0,1,625.81,455.44Z"/><path class="cls-4" d="M637,452.86l3.5-.49V442.32l-3,2.75-1.37-1.65,5.22-4.73,2-.29V452l3.43-.49V454L637,455.39C637,454.38,637,453.87,637,452.86Z"/><path class="cls-4" d="M650.73,450.9l3.5-.52V440.33l-3,2.77-1.37-1.64,5.22-4.77,2-.3V450l3.43-.52V452c-3.91.59-5.86,0.88-9.77,1.45V450.9Z"/><path class="cls-4" d="M664.78,453.69a9.23,9.23,0,0,0,1.69-.87,8.94,8.94,0,0,0,2-1.71,9.74,9.74,0,0,0,1.61-2.63,9.3,9.3,0,0,0,.66-3.67,8.67,8.67,0,0,0-.63-3.58,6.23,6.23,0,0,0-1.54-2.16,5.4,5.4,0,0,0-1.93-1.1,8.46,8.46,0,0,0-1.82-.38l0.55-2.55a10.08,10.08,0,0,1,3.11.6,7.47,7.47,0,0,1,2.67,1.68,8.13,8.13,0,0,1,1.86,2.87,11.17,11.17,0,0,1,.7,4.16,13,13,0,0,1-.7,4.39,11.93,11.93,0,0,1-1.86,3.42,11.42,11.42,0,0,1-2.67,2.46,12.34,12.34,0,0,1-3.11,1.49Z"/><path class="cls-4" d="M56.1,399.32c0-1,0-1.52,0-2.53l2.7,0.43v-6.44l-2.72-.43v-2.53l2.72,0.43V387.6a3.87,3.87,0,0,1,.38-1.8,3,3,0,0,1,1-1.13,3.43,3.43,0,0,1,1.43-.53,5.73,5.73,0,0,1,1.68,0,11.54,11.54,0,0,1,2.6.66,7.87,7.87,0,0,1,1.68.91l-0.87,2.15a12.32,12.32,0,0,0-1.13-.63,5.46,5.46,0,0,0-1.57-.45,2,2,0,0,0-1.73.3,2.21,2.21,0,0,0-.49,1.61l4.8,0.74V392l-4.8-.74v6.44l4.82,0.74v2.53C62.4,400.31,60.3,400,56.1,399.32Z"/><path class="cls-4" d="M70.26,390.79a11.18,11.18,0,0,1,2.12-.39,11.82,11.82,0,0,1,2.85.13,6.91,6.91,0,0,1,2,.59,4.14,4.14,0,0,1,1.35,1,3.75,3.75,0,0,1,.74,1.37,5.91,5.91,0,0,1,.23,1.69q0,1.17-.08,2c-0.05.54-.08,1-0.08,1.46a10.13,10.13,0,0,0,0,1.09c0,0.21.05,0.43,0.07,0.63L81,400.57v2.53l-3.84-.56-0.3-1.61-0.11,0a3.19,3.19,0,0,1-1.3,1,4,4,0,0,1-2.27.18,4.47,4.47,0,0,1-2.71-1.33,3.66,3.66,0,0,1-1-2.59,3.35,3.35,0,0,1,.35-1.61,2.39,2.39,0,0,1,1-1,4.23,4.23,0,0,1,1.61-.42,9.24,9.24,0,0,1,2.1.09q0.41,0.06.86,0.17l1.11,0.26a2.29,2.29,0,0,0,0-.45v-0.44a1.7,1.7,0,0,0-.5-1.33,2.76,2.76,0,0,0-1.48-.6,6.64,6.64,0,0,0-2.09,0,11.77,11.77,0,0,0-1.57.36Zm3.89,9a2.52,2.52,0,0,0,1.63-.16,2.17,2.17,0,0,0,.79-0.75v-1.38l-0.68-.2a8.29,8.29,0,0,0-1-.2,4.65,4.65,0,0,0-.86,0,2.54,2.54,0,0,0-.77.14,1.21,1.21,0,0,0-.54.37,1,1,0,0,0-.2.64,1.51,1.51,0,0,0,.37,1.06A2,2,0,0,0,74.15,399.81Z"/><path class="cls-4" d="M94.43,403.9a5.66,5.66,0,0,1-2.2.76,9.32,9.32,0,0,1-2.63,0,8.17,8.17,0,0,1-2.65-.81A6.55,6.55,0,0,1,85,402.33a6.3,6.3,0,0,1-1.2-2.09,7.69,7.69,0,0,1-.41-2.54,6,6,0,0,1,.48-2.51,4.43,4.43,0,0,1,1.34-1.72,4.87,4.87,0,0,1,2-.9,7.52,7.52,0,0,1,2.54,0,10.14,10.14,0,0,1,2.4.64,12.89,12.89,0,0,1,1.72.81v4l-2.52-.35v-2.12A6.91,6.91,0,0,0,90,395.2a4.15,4.15,0,0,0-1.27,0,2.57,2.57,0,0,0-1.92,1.42,3.25,3.25,0,0,0-.31,1.5,3.85,3.85,0,0,0,.25,1.39,3.85,3.85,0,0,0,1.84,2.07,4.48,4.48,0,0,0,1.5.48A5.09,5.09,0,0,0,92.2,402a7.33,7.33,0,0,0,1.25-.47Z"/><path class="cls-4" d="M98.33,396.57l-2.27-.31v-2.53L98.33,394v-2.62l3-.45c0,1.39,0,2.08,0,3.47l6,0.8v2.53l-6-.8v3.29a4.39,4.39,0,0,0,.66,2.65,2.66,2.66,0,0,0,1.86,1,3.83,3.83,0,0,0,1.12,0,3.75,3.75,0,0,0,.91-0.26,4.33,4.33,0,0,0,.73-0.41l0.61-.43,1.38,2.25a3.67,3.67,0,0,1-1,.71,7.13,7.13,0,0,1-1.26.5,7.26,7.26,0,0,1-1.41.26,6.61,6.61,0,0,1-1.44,0,5.68,5.68,0,0,1-3.86-2,7.45,7.45,0,0,1-1.29-4.74v-3.29Z"/><path class="cls-4" d="M110.22,401.37a6.64,6.64,0,0,1,.44-2.52,4.43,4.43,0,0,1,1.24-1.75,4.52,4.52,0,0,1,1.91-.94,7,7,0,0,1,2.49-.08,7.79,7.79,0,0,1,2.58.76,6.34,6.34,0,0,1,1.92,1.47,6.07,6.07,0,0,1,1.18,2.07,7.8,7.8,0,0,1,.4,2.53,6.68,6.68,0,0,1-.44,2.52,4.45,4.45,0,0,1-1.24,1.76,4.5,4.5,0,0,1-1.91.95,7,7,0,0,1-2.49.09,7.75,7.75,0,0,1-2.58-.77A6.35,6.35,0,0,1,111.8,406a6.12,6.12,0,0,1-1.18-2.07A7.82,7.82,0,0,1,110.22,401.37Zm3.07,0.4a4.85,4.85,0,0,0,.21,1.43,4,4,0,0,0,.6,1.2,3.25,3.25,0,0,0,.94.87,3.16,3.16,0,0,0,1.26.43,2.61,2.61,0,0,0,2.17-.58,3.34,3.34,0,0,0,.84-2.59,4.42,4.42,0,0,0-.78-2.66,3.1,3.1,0,0,0-2.23-1.26,3.41,3.41,0,0,0-1.19,0,2,2,0,0,0-1,.51,2.62,2.62,0,0,0-.63,1A4.71,4.71,0,0,0,113.29,401.77Z"/><path class="cls-4" d="M124.07,406.34l2.85,0.35v-6.44l-2.85-.35v-2.53l5.16,0.63,0.34,1.56h0.09a5.1,5.1,0,0,1,1.47-1.09,3.38,3.38,0,0,1,1.93-.28,3,3,0,0,1,2.17,1.27,6,6,0,0,1,.79,3.47l-2.69-.32a2.49,2.49,0,0,0-.24-1.24,1,1,0,0,0-.77-0.47,2.08,2.08,0,0,0-1.48.28,3.9,3.9,0,0,0-1,.94c0,2,0,2.94,0,4.9l5,0.59v2.53c-4.32-.51-6.49-0.77-10.81-1.3v-2.53Z"/><path class="cls-4" d="M138.3,408l4,0.46v-6.44l-4-.46v-2.53l7,0.8v9l4.25,0.47v2.53c-4.51-.49-6.77-0.75-11.27-1.27V408Zm3.49-11.7a1.45,1.45,0,0,1,.53-1.16,1.86,1.86,0,0,1,1.47-.34,2.5,2.5,0,0,1,1.54.68,1.76,1.76,0,0,1,.57,1.28,1.32,1.32,0,0,1-.57,1.14,2.17,2.17,0,0,1-1.54.3,2.37,2.37,0,0,1-1.47-.64A1.73,1.73,0,0,1,141.79,396.34Z"/><path class="cls-4" d="M152.79,401.47a11.55,11.55,0,0,1,2.13-.48,11.87,11.87,0,0,1,2.86,0,6.73,6.73,0,0,1,2,.5,3.91,3.91,0,0,1,1.36,1,3.55,3.55,0,0,1,.75,1.34,5.8,5.8,0,0,1,.23,1.68q0,1.17-.08,2c-0.05.55-.08,1-0.08,1.46a10,10,0,0,0,0,1.09c0,0.21.05,0.43,0.07,0.63l1.49,0.15v2.53l-3.86-.4-0.3-1.6h-0.11a3.4,3.4,0,0,1-1.3,1.09,4.11,4.11,0,0,1-2.28.28,4.29,4.29,0,0,1-2.72-1.21,3.5,3.5,0,0,1-1-2.55,3.42,3.42,0,0,1,.35-1.63,2.54,2.54,0,0,1,1-1,4.41,4.41,0,0,1,1.62-.49,9.3,9.3,0,0,1,2.11,0q0.41,0,.87.14l1.12,0.21a2.3,2.3,0,0,0,0-.46v-0.44a1.63,1.63,0,0,0-.5-1.31,2.67,2.67,0,0,0-1.48-.54,6.7,6.7,0,0,0-2.1.08,12.24,12.24,0,0,0-1.57.43Zm3.91,8.86a2.58,2.58,0,0,0,1.64-.23,2.32,2.32,0,0,0,.8-0.78v-1.38l-0.68-.18a8.16,8.16,0,0,0-1-.16,4.68,4.68,0,0,0-.86,0,2.64,2.64,0,0,0-.77.17,1.29,1.29,0,0,0-.55.39,1,1,0,0,0-.2.65,1.45,1.45,0,0,0,.37,1A1.94,1.94,0,0,0,156.7,410.33Z"/><path class="cls-4" d="M166.51,397.52l4.9,0.49c0,4.25,0,6.38,0,10.63a5.2,5.2,0,0,0,.44,2.5,1.72,1.72,0,0,0,1.4.83,3.77,3.77,0,0,0,1.17,0,4,4,0,0,0,.92-0.34l1.13,2.18q-0.39.22-.78,0.4a4.58,4.58,0,0,1-.83.29,5.31,5.31,0,0,1-1,.14,7.5,7.5,0,0,1-1.16,0,4.78,4.78,0,0,1-3.24-1.42,4.68,4.68,0,0,1-1.08-3.24c0-3.86,0-5.8,0-9.66l-1.91-.19v-2.53Z"/><path class="cls-4" d="M180.1,417.64c4.08,0.38,6.13.57,10.21,0.93V421c-4.09-.36-6.13-0.55-10.21-0.93v-2.46Z"/><path class="cls-4" d="M192.1,399.94l4.65,0.4c0,2.35,0,3.53,0,5.89h0.09a3.45,3.45,0,0,1,1.47-1,4.82,4.82,0,0,1,2.16-.26,5.64,5.64,0,0,1,1.61.36,3.41,3.41,0,0,1,1.27.86,4,4,0,0,1,.83,1.51,7.5,7.5,0,0,1,.3,2.27v7.15l-3-.25c0-2.61,0-3.92,0-6.53a3,3,0,0,0-.6-2.07,2.27,2.27,0,0,0-1.57-.75,2.44,2.44,0,0,0-1.56.39,2.49,2.49,0,0,0-1,1.24v7.34l-3-.26c0-5.43,0-8.14,0-13.57l-1.66-.14v-2.53Z"/><path class="cls-4" d="M218.2,416.94a3.73,3.73,0,0,1-.77.48,6.89,6.89,0,0,1-1.11.41,8.14,8.14,0,0,1-1.39.26,8.81,8.81,0,0,1-1.61,0,8.15,8.15,0,0,1-2.64-.62,5.77,5.77,0,0,1-3.2-3.37,7.37,7.37,0,0,1-.43-2.58,6.47,6.47,0,0,1,.48-2.62,4.76,4.76,0,0,1,1.32-1.79,5,5,0,0,1,2-1,7.43,7.43,0,0,1,2.44-.19,7.85,7.85,0,0,1,1.81.37,5.42,5.42,0,0,1,1.72.92,4.75,4.75,0,0,1,1.28,1.6,5.36,5.36,0,0,1,.49,2.43,10.68,10.68,0,0,1-.23,2.12l-8.29-.63a2.81,2.81,0,0,0,.31,1.27,2.75,2.75,0,0,0,.76.89,3.59,3.59,0,0,0,1.08.56,5.58,5.58,0,0,0,1.3.25,6.55,6.55,0,0,0,2.27-.15,4.38,4.38,0,0,0,1.44-.67Zm-5-8.59a3.7,3.7,0,0,0-1.13.08,2.88,2.88,0,0,0-1,.41,2.35,2.35,0,0,0-.7.73,2.27,2.27,0,0,0-.32,1l5.66,0.44A2.48,2.48,0,0,0,213.23,408.35Z"/><path class="cls-4" d="M221.72,402.31l4.9,0.35v10.63a5.11,5.11,0,0,0,.44,2.49,1.66,1.66,0,0,0,1.41.79,3.8,3.8,0,0,0,1.17-.07,4.17,4.17,0,0,0,.92-0.36l1.13,2.15q-0.39.23-.78,0.42a4.71,4.71,0,0,1-.83.31,5.41,5.41,0,0,1-1,.16,7.53,7.53,0,0,1-1.16,0,4.66,4.66,0,0,1-3.25-1.33,4.56,4.56,0,0,1-1.08-3.21V405l-1.91-.14C221.72,403.83,221.72,403.33,221.72,402.31Z"/><path class="cls-4" d="M233.54,407.74l3.92,0.26,0.35,1.4h0.09a4.14,4.14,0,0,1,3.87-1.46,5.7,5.7,0,0,1,1.95.45,4.15,4.15,0,0,1,1.52,1.14,5.31,5.31,0,0,1,1,1.85,8.81,8.81,0,0,1,.35,2.62,8.21,8.21,0,0,1-.39,2.63,5.22,5.22,0,0,1-1.13,1.94,4.45,4.45,0,0,1-1.8,1.15,6.12,6.12,0,0,1-2.42.29,9.69,9.69,0,0,1-1.4-.19,4.1,4.1,0,0,1-1.15-.41c0,1.89,0,2.83,0,4.71l-3-.19V410.38l-1.73-.11v-2.53Zm7.33,2.68a2.92,2.92,0,0,0-1.6.33,2.08,2.08,0,0,0-1,1.25v4.78a2.65,2.65,0,0,0,.93.46,5.3,5.3,0,0,0,1.23.23,3.13,3.13,0,0,0,1.2-.14,2.25,2.25,0,0,0,1-.64,3.16,3.16,0,0,0,.64-1.18,5.83,5.83,0,0,0,.23-1.76,3.59,3.59,0,0,0-.74-2.39A2.56,2.56,0,0,0,240.86,410.42Z"/><path class="cls-4" d="M259.66,419.58a3.8,3.8,0,0,1-.77.5,7.07,7.07,0,0,1-1.11.44,8.21,8.21,0,0,1-1.39.29,8.82,8.82,0,0,1-1.61,0,8.07,8.07,0,0,1-2.64-.56,5.6,5.6,0,0,1-3.2-3.3,7.29,7.29,0,0,1-.43-2.57,6.53,6.53,0,0,1,.48-2.63,4.9,4.9,0,0,1,1.32-1.82,5.16,5.16,0,0,1,2-1,7.48,7.48,0,0,1,2.44-.24,7.76,7.76,0,0,1,1.81.33,5.28,5.28,0,0,1,1.72.89,4.6,4.6,0,0,1,1.28,1.58,5.28,5.28,0,0,1,.5,2.42,10.74,10.74,0,0,1-.23,2.13l-8.3-.46a2.77,2.77,0,0,0,.31,1.26,2.66,2.66,0,0,0,.76.87,3.49,3.49,0,0,0,1.08.53,5.53,5.53,0,0,0,1.3.22,6.61,6.61,0,0,0,2.27-.2,4.5,4.5,0,0,0,1.44-.7Zm-5-8.48a3.73,3.73,0,0,0-1.13.1,3,3,0,0,0-1,.43,2.41,2.41,0,0,0-.7.75,2.29,2.29,0,0,0-.32,1l5.67,0.32A2.42,2.42,0,0,0,254.69,411.1Z"/><path class="cls-4" d="M262.08,418.4l2.86,0.15v-6.44l-2.86-.15v-2.53l5.19,0.26,0.35,1.53h0.09a5.69,5.69,0,0,1,1.48-1.19,3.54,3.54,0,0,1,1.94-.41,2.76,2.76,0,0,1,2.18,1.11,5.74,5.74,0,0,1,.79,3.42l-2.7-.13a2.38,2.38,0,0,0-.24-1.22,0.9,0.9,0,0,0-.77-0.42,2.2,2.2,0,0,0-1.49.39,4.33,4.33,0,0,0-1,1v4.9l5,0.24v2.53c-4.34-.2-6.51-0.31-10.86-0.54V418.4Z"/><path class="cls-4" d="M285.5,426.89a11.08,11.08,0,0,1-3.14-1.14,9.72,9.72,0,0,1-2.7-2.16,10.3,10.3,0,0,1-1.88-3.21,12.2,12.2,0,0,1-.7-4.31,11.71,11.71,0,0,1,.7-4.24,9.44,9.44,0,0,1,1.88-3.08,8.8,8.8,0,0,1,2.7-2,11.06,11.06,0,0,1,3.14-1l0.55,2.48a9.31,9.31,0,0,0-1.83.58,6.32,6.32,0,0,0-1.95,1.32,7.29,7.29,0,0,0-1.56,2.34,9.12,9.12,0,0,0-.63,3.65,8.68,8.68,0,0,0,.67,3.59,8.35,8.35,0,0,0,1.63,2.45,7.61,7.61,0,0,0,2,1.48,8.22,8.22,0,0,0,1.71.68Z"/><path class="cls-4" d="M291.29,419.71l3.53,0.13V409.78l-3,2.21-1.38-1.89,5.26-3.81,2,0.07v13.57l3.46,0.11v2.53l-9.85-.34v-2.53Z"/><path class="cls-4" d="M307.71,421.31a1.53,1.53,0,0,1,.52-1.23,1.85,1.85,0,0,1,1.3-.42,2.35,2.35,0,0,1,1.91.88,3.3,3.3,0,0,1,.65,2.06,4.27,4.27,0,0,1-.4,1.88,4.79,4.79,0,0,1-1,1.44,5.46,5.46,0,0,1-1.44,1,5.72,5.72,0,0,1-1.58.48L307,426.09a6.53,6.53,0,0,0,1.12-.36,4.36,4.36,0,0,0,1-.6,3.43,3.43,0,0,0,.77-0.86,2.38,2.38,0,0,0,.36-1.09,2.94,2.94,0,0,1-1.18,0,1.84,1.84,0,0,1-.8-0.39,1.56,1.56,0,0,1-.45-0.66A2.38,2.38,0,0,1,307.71,421.31Z"/><path class="cls-4" d="M319,420.54l3.53,0.08V410.57l-3,2.26L318.07,411l5.26-3.88,2,0v13.57l3.46,0.07v2.53l-9.85-.2v-2.53Z"/><path class="cls-4" d="M332.81,420.81l3.53,0.05V410.82l-3,2.28-1.38-1.86,5.26-3.92,2,0v13.57l3.46,0v2.53l-9.85-.13v-2.53Z"/><path class="cls-4" d="M347,425.89a7.86,7.86,0,0,0,1.71-.59,7.13,7.13,0,0,0,2-1.39,7.81,7.81,0,0,0,1.63-2.37,8.45,8.45,0,0,0,.67-3.56,9.35,9.35,0,0,0-.63-3.68,7.79,7.79,0,0,0-1.56-2.41,6.78,6.78,0,0,0-1.95-1.42,9.73,9.73,0,0,0-1.83-.67l0.55-2.46a11.55,11.55,0,0,1,3.14,1.11,9.44,9.44,0,0,1,2.7,2.11,10.07,10.07,0,0,1,1.88,3.17,13.33,13.33,0,0,1,0,8.54,9.67,9.67,0,0,1-1.88,3.12,9.08,9.08,0,0,1-2.7,2,10.62,10.62,0,0,1-3.14,1Z"/><path class="cls-4" d="M511.11,415.63l2.85-.21V409l-2.85.21v-2.53l5.18-.39,0.34,1.49h0.09a6.84,6.84,0,0,1,1.47-1.38,3.88,3.88,0,0,1,1.93-.66,2.42,2.42,0,0,1,2.18.84,5.26,5.26,0,0,1,.79,3.32l-2.69.21a2.21,2.21,0,0,0-.24-1.19,0.78,0.78,0,0,0-.77-0.32,2.45,2.45,0,0,0-1.48.58,5.23,5.23,0,0,0-1,1.13v4.9l5-.39v2.53c-4.34.35-6.5,0.51-10.84,0.84v-2.53Z"/><path class="cls-4" d="M536.31,414.91a4.65,4.65,0,0,1-.77.61,8.28,8.28,0,0,1-1.1.59,9.33,9.33,0,0,1-3,.76,7.59,7.59,0,0,1-2.64-.19,4.6,4.6,0,0,1-3.2-2.85,6.81,6.81,0,0,1-.43-2.51,7,7,0,0,1,.48-2.7,6,6,0,0,1,1.32-2,6.18,6.18,0,0,1,2-1.3,8,8,0,0,1,2.44-.59,7.4,7.4,0,0,1,1.81.08,4.52,4.52,0,0,1,1.71.65,3.75,3.75,0,0,1,1.28,1.4,4.85,4.85,0,0,1,.5,2.35,11.26,11.26,0,0,1-.23,2.16l-8.28.71a2.51,2.51,0,0,0,.31,1.22,2.18,2.18,0,0,0,.76.76,3,3,0,0,0,1.08.38,5.32,5.32,0,0,0,1.3,0,7,7,0,0,0,2.27-.51,5.37,5.37,0,0,0,1.44-.91Zm-5-7.78a4,4,0,0,0-1.13.26,3.5,3.5,0,0,0-1,.56,3,3,0,0,0-.7.84,2.58,2.58,0,0,0-.32,1.08l5.66-.48A2.07,2.07,0,0,0,531.34,407.13Z"/><path class="cls-4" d="M550.39,413.74a7.39,7.39,0,0,1-2.21,1.28,10.14,10.14,0,0,1-2.64.6,7.24,7.24,0,0,1-2.66-.19,4.82,4.82,0,0,1-2-1.05,4.63,4.63,0,0,1-1.21-1.81,7.39,7.39,0,0,1,.07-5.07,6.15,6.15,0,0,1,1.35-2,6.56,6.56,0,0,1,2-1.37,8.3,8.3,0,0,1,2.55-.64,9.25,9.25,0,0,1,2.41.07,10.47,10.47,0,0,1,1.73.41v4l-2.53.24v-2.12a6.35,6.35,0,0,0-1.43,0,4.54,4.54,0,0,0-1.28.31,3.51,3.51,0,0,0-1.13.72,3.61,3.61,0,0,0-1.12,2.71,3.39,3.39,0,0,0,.25,1.33,2.78,2.78,0,0,0,1.85,1.64,4,4,0,0,0,1.51.13,5.69,5.69,0,0,0,2.15-.57,9.73,9.73,0,0,0,1.25-.76Z"/><path class="cls-4" d="M559.22,402.49l4.28-.43v9l1.75-.18v2.53l-3.63.37-0.53-1.65H561a4.7,4.7,0,0,1-1.59,1.61,5.22,5.22,0,0,1-2.35.81,5.1,5.1,0,0,1-1.6-.07,2.55,2.55,0,0,1-1.23-.64,3.12,3.12,0,0,1-.78-1.35,7.5,7.5,0,0,1-.28-2.23v-4.62l-1.31.13v-2.53l4.3-.41v6.53a3.31,3.31,0,0,0,.45,2,1.48,1.48,0,0,0,1.41.48,2.74,2.74,0,0,0,1.53-.66,3.12,3.12,0,0,0,1-1.34v-4.9l-1.29.13C559.22,404,559.22,403.51,559.22,402.49Z"/><path class="cls-4" d="M566.32,410.75l2.85-.29V404l-2.85.29v-2.53l5.17-.54,0.34,1.48h0.09a7.12,7.12,0,0,1,1.47-1.42,4,4,0,0,1,1.93-.71,2.35,2.35,0,0,1,2.17.78,5.17,5.17,0,0,1,.79,3.29l-2.69.29a2.17,2.17,0,0,0-.24-1.18,0.76,0.76,0,0,0-.77-0.3,2.51,2.51,0,0,0-1.48.62,5.43,5.43,0,0,0-1,1.16v4.9l5-.53v2.53c-4.33.47-6.49,0.7-10.82,1.14v-2.53Z"/><path class="cls-4" d="M589.66,415.62a9.74,9.74,0,0,1-3.12-.66,7.79,7.79,0,0,1-2.69-1.74A8.4,8.4,0,0,1,582,410.3a11.36,11.36,0,0,1-.7-4.2,12.66,12.66,0,0,1,.7-4.34,11.54,11.54,0,0,1,1.87-3.37,11,11,0,0,1,2.69-2.4,12.81,12.81,0,0,1,3.12-1.44l0.55,2.4a10.8,10.8,0,0,0-1.82.87,7.85,7.85,0,0,0-1.94,1.62,9,9,0,0,0-1.55,2.58,9.9,9.9,0,0,0-.63,3.75,8,8,0,0,0,.67,3.49,6.73,6.73,0,0,0,1.62,2.2,6.12,6.12,0,0,0,2,1.18,7.16,7.16,0,0,0,1.7.41Z"/><path class="cls-4" d="M595.42,407.54l3.51-.42V397.07l-3,2.68-1.38-1.68,5.23-4.62,2-.24c0,5.43,0,8.14,0,13.57l3.44-.42v2.53c-3.92.48-5.88,0.72-9.8,1.18v-2.53Z"/><path class="cls-4" d="M609.18,405.87l3.51-.44c0-4,0-6,0-10.05l-3,2.7-1.38-1.67,5.23-4.66,2-.26v13.57l3.44-.44v2.53l-9.79,1.25v-2.53Z"/><path class="cls-4" d="M625.51,404.82a1.81,1.81,0,0,1,.52-1.31,2.16,2.16,0,0,1,1.3-.63,2,2,0,0,1,1.9.57,2.89,2.89,0,0,1,.64,2,4.73,4.73,0,0,1-.4,1.94,6,6,0,0,1-1,1.61,6.83,6.83,0,0,1-1.43,1.21,6.65,6.65,0,0,1-1.57.74l-0.62-1.18a7.65,7.65,0,0,0,1.11-.54,5.43,5.43,0,0,0,1-.77,4.34,4.34,0,0,0,.77-1,2.74,2.74,0,0,0,.36-1.15,3,3,0,0,1-1.17.19,1.54,1.54,0,0,1-.79-0.26,1.25,1.25,0,0,1-.45-0.58A2.21,2.21,0,0,1,625.51,404.82Z"/><path class="cls-4" d="M636.69,402.24l3.5-.49V391.7l-3,2.75-1.37-1.65,5.22-4.73,2-.29c0,5.43,0,8.14,0,13.57l3.43-.49v2.53c-3.91.56-5.87,0.84-9.78,1.39v-2.53Z"/><path class="cls-4" d="M648.87,395a14.55,14.55,0,0,1,.44-3.73,8.92,8.92,0,0,1,1.23-2.79,6.33,6.33,0,0,1,1.9-1.83,6.43,6.43,0,0,1,2.46-.88,4.61,4.61,0,0,1,4.46,1.37q1.56,1.8,1.56,6.08a14.64,14.64,0,0,1-.44,3.76,9.12,9.12,0,0,1-1.23,2.81,6.26,6.26,0,0,1-1.91,1.85,6.49,6.49,0,0,1-2.47.89,4.45,4.45,0,0,1-4.46-1.49Q648.87,399.06,648.87,395Zm3-.44c0,0.23,0,.45,0,0.65s0,0.42,0,.63l5.54-6a2.16,2.16,0,0,0-2.56-1.59,3,3,0,0,0-2.24,1.75A10.22,10.22,0,0,0,651.85,394.53Zm6.09-.91q0-.37,0-0.7c0-.22,0-0.44,0-0.65l-5.56,6a2.19,2.19,0,0,0,2.56,1.71,3,3,0,0,0,2.25-1.74A10.25,10.25,0,0,0,657.93,393.62Z"/><path class="cls-4" d="M664.47,403.07a9.23,9.23,0,0,0,1.69-.87,8.94,8.94,0,0,0,2-1.71,9.74,9.74,0,0,0,1.61-2.63,9.3,9.3,0,0,0,.66-3.67,8.67,8.67,0,0,0-.63-3.58,6.23,6.23,0,0,0-1.54-2.16,5.4,5.4,0,0,0-1.93-1.1,8.45,8.45,0,0,0-1.82-.38l0.55-2.55a10.08,10.08,0,0,1,3.11.6,7.47,7.47,0,0,1,2.67,1.68,8.13,8.13,0,0,1,1.86,2.87,11.17,11.17,0,0,1,.7,4.16,13,13,0,0,1-.7,4.39,11.93,11.93,0,0,1-1.86,3.42,11.41,11.41,0,0,1-2.67,2.47,12.34,12.34,0,0,1-3.11,1.49Z"/></svg>