<svg id="Layer_1" data-name="Layer 1" xmlns="http://www.w3.org/2000/svg" viewBox="0 0 720 576"><defs><style>.cls-1,.cls-2,.cls-4,.cls-6{fill:#231f20;}.cls-1,.cls-3{stroke:#231f20;}.cls-1,.cls-6{stroke-miterlimit:10;}.cls-1,.cls-2,.cls-3{stroke-width:2px;}.cls-2{stroke:#000;}.cls-2,.cls-3{stroke-linecap:round;stroke-linejoin:round;}.cls-3,.cls-5{fill:#fff;}.cls-6{stroke:#fff;}</style></defs><title>Hanoi_Tower_Set_5_Final</title><path class="cls-1" d="M699.75,506.49c0-.14,0-0.29,0-0.43s0-.29,0-0.43V453.84H53.95s-0.25,51.74-.25,52.22c0,2.67,2.32,5.24,6.64,7.71,15.13,8.61,55.2,16.11,111,21.48s127.37,8.59,205.39,8.59c89.16,0,169.88-4.21,228.32-11,29.22-3.41,52.87-7.46,69.23-12,8.18-2.25,14.54-4.62,18.86-7.08,3.69-2.1,5.91-4.29,6.48-6.55h0.11v-0.73Z"/><ellipse class="cls-2" cx="376.75" cy="454.92" rx="322.86" ry="37.63"/><path class="cls-3" d="M699.75,455c0-.14,0-0.29,0-0.43s0-.29,0-0.43V402.36H53.95s-0.25,51.74-.25,52.22c0,2.67,2.32,5.24,6.64,7.71,15.13,8.61,55.2,16.11,111,21.48s127.37,8.59,205.39,8.59c89.16,0,169.88-4.21,228.32-11,29.22-3.41,52.87-7.46,69.23-12,8.18-2.25,14.54-4.62,18.86-7.08,3.69-2.1,5.91-4.29,6.48-6.55h0.11V455Z"/><ellipse class="cls-3" cx="376.75" cy="403.44" rx="322.86" ry="37.63"/><path class="cls-3" d="M699.75,403.53c0-.14,0-0.29,0-0.43s0-.29,0-0.43V350.88H53.95s-0.25,51.74-.25,52.22c0,2.67,2.32,5.24,6.64,7.71,15.13,8.61,55.2,16.11,111,21.48s127.37,8.59,205.39,8.59c89.16,0,169.88-4.21,228.32-11,29.22-3.41,52.87-7.46,69.23-12,8.18-2.25,14.54-4.62,18.86-7.08,3.69-2.1,5.91-4.29,6.48-6.55h0.11v-0.73Z"/><ellipse class="cls-3" cx="376.75" cy="351.97" rx="322.86" ry="37.63"/><path class="cls-3" d="M699.75,352.06c0-.14,0-0.29,0-0.43s0-.29,0-0.43V299.4H53.95s-0.25,51.74-.25,52.22c0,2.67,2.32,5.24,6.64,7.71,15.13,8.61,55.2,16.11,111,21.48s127.37,8.59,205.39,8.59c89.16,0,169.88-4.21,228.32-11,29.22-3.41,52.87-7.46,69.23-12,8.18-2.25,14.54-4.62,18.86-7.08,3.69-2.1,5.91-4.29,6.48-6.55h0.11v-0.73Z"/><ellipse class="cls-3" cx="376.75" cy="300.49" rx="322.86" ry="37.63"/><path class="cls-3" d="M699.75,302.06c0-.14,0-0.29,0-0.43s0-.29,0-0.43V249.4H53.95s-0.25,51.74-.25,52.22c0,2.67,2.32,5.24,6.64,7.71,15.13,8.61,55.2,16.11,111,21.48s127.37,8.59,205.39,8.59c89.16,0,169.88-4.21,228.32-11,29.22-3.41,52.87-7.46,69.23-12,8.18-2.25,14.54-4.62,18.86-7.08,3.69-2.1,5.91-4.29,6.48-6.55h0.11v-0.73Z"/><ellipse class="cls-3" cx="376.75" cy="250.49" rx="322.86" ry="37.63"/><path class="cls-3" d="M699.75,251.06c0-.14,0-0.29,0-0.43s0-.29,0-0.43V198.4H53.95s-0.25,51.74-.25,52.22c0,2.67,2.32,5.24,6.64,7.71,15.13,8.61,55.2,16.11,111,21.48s127.37,8.59,205.39,8.59c89.16,0,169.88-4.21,228.32-11,29.22-3.41,52.87-7.46,69.23-12,8.18-2.25,14.54-4.62,18.86-7.08,3.69-2.1,5.91-4.29,6.48-6.55h0.11v-0.73Z"/><ellipse class="cls-3" cx="376.75" cy="199.49" rx="322.86" ry="37.63"/><path class="cls-4" d="M376.74,208.64c-16,0-29-3.75-30.2-8.61h-0.08l0-.5V8.27h60.63V200h-0.12C405.71,204.89,392.72,208.64,376.74,208.64Z"/><path class="cls-5" d="M406.56,8.77V199.53h0c-0.49,4.78-13.63,8.61-29.79,8.61s-29.3-3.83-29.79-8.61h0v-0.21s0,0,0-.06,0,0,0-.06V8.77h59.63m1-1H345.94V199.15s0,0.07,0,.11v1.27h0.22c1.05,3,5.66,4.94,9.53,6.06a88,88,0,0,0,42.09,0c3.87-1.12,8.48-3.05,9.53-6.06h0.21l0-1V7.77h0Z"/><ellipse class="cls-6" cx="376.74" cy="8.89" rx="29.81" ry="8.89"/><path class="cls-4" d="M63.08,292.14v-2.31l2.46,0.39v-5.88l-2.48-.39v-2.31L65.54,282v-0.59a3.54,3.54,0,0,1,.34-1.65,2.72,2.72,0,0,1,.91-1,3.12,3.12,0,0,1,1.3-.48,5.2,5.2,0,0,1,1.53,0,10.57,10.57,0,0,1,2.37.61,7.22,7.22,0,0,1,1.54.83l-0.79,2a11.44,11.44,0,0,0-1-.58,5,5,0,0,0-1.43-.41,1.81,1.81,0,0,0-1.58.27,2,2,0,0,0-.45,1.47l4.38,0.68v2.31l-4.38-.68c0,2.35,0,3.53,0,5.88l4.41,0.68v2.31Z"/><path class="cls-4" d="M76,284.36a10.21,10.21,0,0,1,1.93-.36,10.77,10.77,0,0,1,2.6.12,6.3,6.3,0,0,1,1.85.54,3.8,3.8,0,0,1,1.23.93,3.43,3.43,0,0,1,.68,1.26,5.41,5.41,0,0,1,.21,1.54q0,1.07-.07,1.82t-0.07,1.33a9.15,9.15,0,0,0,0,1c0,0.19,0,.39.06,0.58l1.36,0.2v2.31l-3.51-.52L82,293.62l-0.1,0a2.91,2.91,0,0,1-1.18.95,3.66,3.66,0,0,1-2.08.16,4.09,4.09,0,0,1-2.47-1.21,3.34,3.34,0,0,1-.91-2.36,3.06,3.06,0,0,1,.32-1.47,2.18,2.18,0,0,1,.93-0.91,3.87,3.87,0,0,1,1.47-.39,8.44,8.44,0,0,1,1.92.09c0.25,0,.51.09,0.79,0.16l1,0.24a2.09,2.09,0,0,0,0-.41V288a1.55,1.55,0,0,0-.46-1.21,2.52,2.52,0,0,0-1.35-.55,6.06,6.06,0,0,0-1.91,0,10.68,10.68,0,0,0-1.43.33Zm3.56,8.24a2.29,2.29,0,0,0,1.49-.15,2,2,0,0,0,.72-0.68v-1.26l-0.62-.19a7.68,7.68,0,0,0-.89-0.18,4.25,4.25,0,0,0-.78,0,2.33,2.33,0,0,0-.7.13,1.12,1.12,0,0,0-.5.34,0.88,0.88,0,0,0-.19.58,1.38,1.38,0,0,0,.34,1A1.84,1.84,0,0,0,79.56,292.6Z"/><path class="cls-4" d="M98.07,296.36a5.14,5.14,0,0,1-2,.69,8.53,8.53,0,0,1-2.4,0,7.45,7.45,0,0,1-2.41-.75,6,6,0,0,1-1.78-1.38,5.76,5.76,0,0,1-1.1-1.91,7,7,0,0,1-.38-2.32,5.49,5.49,0,0,1,.44-2.29,4,4,0,0,1,1.22-1.57,4.43,4.43,0,0,1,1.85-.82,6.86,6.86,0,0,1,2.32,0,9.24,9.24,0,0,1,2.2.58,11.84,11.84,0,0,1,1.57.75V291l-2.3-.32v-1.93a6.36,6.36,0,0,0-1.3-.33,3.77,3.77,0,0,0-1.16,0,2.34,2.34,0,0,0-1.76,1.29,3,3,0,0,0-.28,1.37,3.52,3.52,0,0,0,.23,1.27,3.54,3.54,0,0,0,1.68,1.89,4.11,4.11,0,0,0,1.37.44,4.65,4.65,0,0,0,2-.06,6.66,6.66,0,0,0,1.14-.43Z"/><path class="cls-4" d="M101.63,289.67l-2.07-.29v-2.31l2.07,0.29V285l2.72-.4c0,1.27,0,1.9,0,3.17l5.48,0.74v2.31l-5.48-.74v3a4,4,0,0,0,.61,2.42,2.43,2.43,0,0,0,1.69,1,3.47,3.47,0,0,0,1,0,3.41,3.41,0,0,0,.83-0.23,4,4,0,0,0,.67-0.37l0.55-.39L111,297.5a3.32,3.32,0,0,1-.89.65,6.39,6.39,0,0,1-1.15.45,6.55,6.55,0,0,1-1.29.24,6,6,0,0,1-1.32,0,5.2,5.2,0,0,1-3.53-1.8,6.81,6.81,0,0,1-1.18-4.33v-3Z"/><path class="cls-4" d="M112.49,294.09a6.08,6.08,0,0,1,.4-2.3,4,4,0,0,1,1.13-1.59,4.09,4.09,0,0,1,1.75-.85,6.42,6.42,0,0,1,2.27-.07,7.11,7.11,0,0,1,2.36.7,5.81,5.81,0,0,1,1.75,1.35,5.59,5.59,0,0,1,1.08,1.89,7.15,7.15,0,0,1,.37,2.31,6.08,6.08,0,0,1-.4,2.3,4,4,0,0,1-1.13,1.6,4.09,4.09,0,0,1-1.75.86,6.38,6.38,0,0,1-2.27.07,7.07,7.07,0,0,1-2.35-.71,5.81,5.81,0,0,1-1.75-1.35,5.61,5.61,0,0,1-1.08-1.9A7.15,7.15,0,0,1,112.49,294.09Zm2.8,0.37a4.41,4.41,0,0,0,.19,1.31,3.68,3.68,0,0,0,.54,1.1,3,3,0,0,0,.86.79,2.89,2.89,0,0,0,1.15.39,2.38,2.38,0,0,0,2-.52,3,3,0,0,0,.76-2.36,4,4,0,0,0-.71-2.43,2.84,2.84,0,0,0-2-1.16,3.13,3.13,0,0,0-1.09,0,1.8,1.8,0,0,0-.87.46,2.4,2.4,0,0,0-.58.93A4.3,4.3,0,0,0,115.29,294.46Z"/><path class="cls-4" d="M125.13,298.67l2.6,0.33v-5.88l-2.6-.33v-2.31l4.71,0.59,0.31,1.42h0.08a4.63,4.63,0,0,1,1.34-1,3.07,3.07,0,0,1,1.76-.25,2.74,2.74,0,0,1,2,1.17,5.53,5.53,0,0,1,.72,3.17l-2.45-.3a2.28,2.28,0,0,0-.22-1.13,0.89,0.89,0,0,0-.7-0.43,1.9,1.9,0,0,0-1.35.25,3.54,3.54,0,0,0-.87.86v4.47l4.55,0.56v2.31c-3.95-.48-5.92-0.72-9.86-1.22v-2.31Z"/><path class="cls-4" d="M138.12,300.27l3.69,0.44v-5.88l-3.69-.44v-2.31l6.41,0.76V301l3.88,0.45v2.31c-4.12-.47-6.17-0.71-10.29-1.21v-2.31Zm3.19-10.67a1.31,1.31,0,0,1,.48-1.06,1.7,1.7,0,0,1,1.34-.3,2.3,2.3,0,0,1,1.4.63,1.62,1.62,0,0,1,.52,1.17,1.2,1.2,0,0,1-.52,1,2,2,0,0,1-1.4.27,2.18,2.18,0,0,1-1.34-.59A1.59,1.59,0,0,1,141.3,289.6Z"/><path class="cls-4" d="M151.34,294.33a10.48,10.48,0,0,1,1.94-.43,10.79,10.79,0,0,1,2.61,0,6.16,6.16,0,0,1,1.86.47,3.6,3.6,0,0,1,1.24.88,3.25,3.25,0,0,1,.68,1.23,5.31,5.31,0,0,1,.21,1.53q0,1.07-.07,1.82t-0.07,1.34a9.39,9.39,0,0,0,0,1c0,0.19,0,.39.06,0.57l1.36,0.15v2.31l-3.52-.38-0.28-1.46h-0.1a3.08,3.08,0,0,1-1.19,1,3.74,3.74,0,0,1-2.08.24,3.94,3.94,0,0,1-2.48-1.12,3.21,3.21,0,0,1-.92-2.33,3.12,3.12,0,0,1,.32-1.49,2.3,2.3,0,0,1,.94-0.94,4,4,0,0,1,1.48-.44,8.48,8.48,0,0,1,1.93,0c0.25,0,.51.07,0.79,0.13l1,0.2a2.11,2.11,0,0,0,0-.42v-0.4a1.5,1.5,0,0,0-.46-1.2,2.44,2.44,0,0,0-1.35-.5,6.12,6.12,0,0,0-1.92.06,11,11,0,0,0-1.44.39Zm3.57,8.11a2.35,2.35,0,0,0,1.49-.2,2.1,2.1,0,0,0,.73-0.71v-1.26l-0.62-.16a7.59,7.59,0,0,0-.89-0.15,4.25,4.25,0,0,0-.79,0,2.4,2.4,0,0,0-.71.15,1.18,1.18,0,0,0-.5.35,0.9,0.9,0,0,0-.19.59,1.33,1.33,0,0,0,.34,1A1.78,1.78,0,0,0,154.91,302.44Z"/><path class="cls-4" d="M163.86,290.79l4.47,0.47c0,3.88,0,5.82,0,9.7a4.76,4.76,0,0,0,.4,2.29A1.58,1.58,0,0,0,170,304a3.44,3.44,0,0,0,1.07,0,3.63,3.63,0,0,0,.84-0.3l1,2q-0.36.19-.71,0.36a4.17,4.17,0,0,1-.76.26,5,5,0,0,1-.87.12,6.87,6.87,0,0,1-1.06,0,4.39,4.39,0,0,1-3-1.32,4.3,4.3,0,0,1-1-3c0-3.53,0-5.29,0-8.82l-1.74-.19C163.86,292.18,163.86,291.72,163.86,290.79Z"/><path class="cls-4" d="M176.26,309.23l9.32,0.91c0,0.9,0,1.35,0,2.25l-9.32-.91v-2.25Z"/><path class="cls-4" d="M187.22,293.14l4.24,0.4c0,2.15,0,3.23,0,5.38h0.08a3.12,3.12,0,0,1,1.34-.95,4.38,4.38,0,0,1,2-.22,5.18,5.18,0,0,1,1.47.34,3.13,3.13,0,0,1,1.16.8,3.67,3.67,0,0,1,.76,1.38,6.87,6.87,0,0,1,.27,2.07v6.53l-2.73-.25v-6a2.8,2.8,0,0,0-.55-1.9,2.08,2.08,0,0,0-1.43-.7,2.22,2.22,0,0,0-1.43.34,2.26,2.26,0,0,0-.92,1.12v6.7l-2.73-.25c0-5,0-7.43,0-12.39l-1.51-.14C187.22,294.53,187.22,294.07,187.22,293.14Z"/><path class="cls-4" d="M211,308.85a3.31,3.31,0,0,1-.7.44,6.23,6.23,0,0,1-1,.37,7.41,7.41,0,0,1-1.27.23,8.11,8.11,0,0,1-1.47,0,7.48,7.48,0,0,1-2.41-.58,5.32,5.32,0,0,1-2.92-3.1,6.76,6.76,0,0,1-.39-2.35,5.89,5.89,0,0,1,.44-2.39,4.29,4.29,0,0,1,1.21-1.63,4.53,4.53,0,0,1,1.8-.88,6.75,6.75,0,0,1,2.23-.16,7.21,7.21,0,0,1,1.65.35,5,5,0,0,1,1.57.86,4.38,4.38,0,0,1,1.17,1.47,4.92,4.92,0,0,1,.45,2.22,9.7,9.7,0,0,1-.21,1.94L203.6,305a2.46,2.46,0,0,0,1,2,3.3,3.3,0,0,0,1,.52,5.14,5.14,0,0,0,1.19.24,6,6,0,0,0,2.07-.12,4,4,0,0,0,1.31-.6ZM206.49,301a3.38,3.38,0,0,0-1,.06,2.62,2.62,0,0,0-.87.36,2.12,2.12,0,0,0-.64.66,2.06,2.06,0,0,0-.3.94l5.17,0.44A2.29,2.29,0,0,0,206.49,301Z"/><path class="cls-4" d="M214.25,295.52l4.48,0.36c0,3.88,0,5.82,0,9.7a4.69,4.69,0,0,0,.4,2.28,1.53,1.53,0,0,0,1.28.73,3.43,3.43,0,0,0,1.07-.05,3.72,3.72,0,0,0,.84-0.32l1,2q-0.36.2-.71,0.38a4.26,4.26,0,0,1-.76.28,5,5,0,0,1-.87.14,6.85,6.85,0,0,1-1.06,0,4.28,4.28,0,0,1-3-1.24,4.2,4.2,0,0,1-1-2.94c0-3.53,0-5.29,0-8.82l-1.74-.14v-2.31Z"/><path class="cls-4" d="M225,300.57l3.57,0.27,0.32,1.28H229a3.74,3.74,0,0,1,3.53-1.3,5.24,5.24,0,0,1,1.78.43,3.83,3.83,0,0,1,1.39,1.05,4.91,4.91,0,0,1,.89,1.7,8.08,8.08,0,0,1,.32,2.4,7.46,7.46,0,0,1-.36,2.4,4.71,4.71,0,0,1-1,1.77,4,4,0,0,1-1.64,1,5.55,5.55,0,0,1-2.21.24,8.79,8.79,0,0,1-1.28-.19,3.76,3.76,0,0,1-1.05-.38c0,1.72,0,2.58,0,4.31l-2.73-.2c0-5,0-7.44,0-12.39l-1.58-.12v-2.31Zm6.68,2.51a2.66,2.66,0,0,0-1.46.29,1.87,1.87,0,0,0-.91,1.13v4.37a2.45,2.45,0,0,0,.85.43,4.85,4.85,0,0,0,1.12.22,2.84,2.84,0,0,0,1.09-.12,2,2,0,0,0,.88-0.58,2.85,2.85,0,0,0,.59-1.07,5.32,5.32,0,0,0,.21-1.6,3.31,3.31,0,0,0-.67-2.19A2.36,2.36,0,0,0,231.71,303.08Z"/><path class="cls-4" d="M248.87,311.62a3.42,3.42,0,0,1-.7.45,6.38,6.38,0,0,1-1,.39,7.51,7.51,0,0,1-1.27.25,8.12,8.12,0,0,1-1.47,0,7.4,7.4,0,0,1-2.41-.54,5.18,5.18,0,0,1-2.92-3,6.69,6.69,0,0,1-.39-2.35,6,6,0,0,1,.44-2.4,4.41,4.41,0,0,1,1.21-1.65,4.66,4.66,0,0,1,1.8-.92,6.81,6.81,0,0,1,2.23-.2A7.13,7.13,0,0,1,246,302a4.86,4.86,0,0,1,1.57.83,4.27,4.27,0,0,1,1.17,1.45,4.86,4.86,0,0,1,.45,2.21,9.81,9.81,0,0,1-.21,1.94l-7.57-.5a2.53,2.53,0,0,0,.28,1.15,2.48,2.48,0,0,0,.69.8,3.21,3.21,0,0,0,1,.5,5.12,5.12,0,0,0,1.19.22,6,6,0,0,0,2.07-.16,4,4,0,0,0,1.31-.63Zm-4.54-7.79a3.39,3.39,0,0,0-1,.08,2.67,2.67,0,0,0-.87.38,2.18,2.18,0,0,0-.64.67,2.1,2.1,0,0,0-.29.94l5.17,0.34A2.24,2.24,0,0,0,244.33,303.83Z"/><path class="cls-4" d="M251.08,310.56l2.61,0.16v-5.88l-2.61-.16v-2.31l4.73,0.29,0.32,1.4h0.08a5.09,5.09,0,0,1,1.35-1.07,3.2,3.2,0,0,1,1.77-.36,2.55,2.55,0,0,1,2,1,5.27,5.27,0,0,1,.73,3.13l-2.46-.14a2.19,2.19,0,0,0-.22-1.12,0.83,0.83,0,0,0-.7-0.39,2,2,0,0,0-1.36.34,3.89,3.89,0,0,0-.87.91v4.47l4.56,0.27v2.31c-4-.23-5.95-0.35-9.91-0.6v-2.31Z"/><path class="cls-4" d="M272.46,318.55a10.23,10.23,0,0,1-2.86-1.07,9,9,0,0,1-2.46-2,9.54,9.54,0,0,1-1.72-3,11.21,11.21,0,0,1-.64-3.94,10.64,10.64,0,0,1,.64-3.86,8.49,8.49,0,0,1,1.72-2.79,7.9,7.9,0,0,1,2.46-1.78,10,10,0,0,1,2.86-.84l0.5,2.27a8.4,8.4,0,0,0-1.67.51,5.67,5.67,0,0,0-1.78,1.19,6.52,6.52,0,0,0-1.42,2.12,8.29,8.29,0,0,0-.58,3.33,8,8,0,0,0,.61,3.29,7.75,7.75,0,0,0,1.48,2.25,7.09,7.09,0,0,0,1.8,1.38,7.59,7.59,0,0,0,1.56.64Z"/><path class="cls-4" d="M277.74,312.06l3.22,0.16c0-3.67,0-5.51,0-9.18l-2.78,2-1.26-1.74,4.8-3.42,1.85,0.09c0,5,0,7.43,0,12.39l3.16,0.14v2.31l-9-.42C277.74,313.44,277.74,313,277.74,312.06Z"/><path class="cls-4" d="M289.78,317.38l9.35,0.38c0,0.9,0,1.35,0,2.25l-9.35-.38v-2.25Z"/><path class="cls-4" d="M312.26,311.21a4.58,4.58,0,0,1-1.45,3.4,4.73,4.73,0,0,1-1.61,1,5.22,5.22,0,0,1-2,.31,6.08,6.08,0,0,1-2.05-.42,4.86,4.86,0,0,1-1.67-1.1,5.19,5.19,0,0,1-1.14-1.78,6.63,6.63,0,0,1-.42-2.45,9.34,9.34,0,0,1,.73-3.75,10,10,0,0,1,1.86-2.88,9.25,9.25,0,0,1,2.55-1.93,8.33,8.33,0,0,1,2.8-.88l0.61,2.18a8,8,0,0,0-2.08.61,7.28,7.28,0,0,0-1.73,1.08,6.58,6.58,0,0,0-1.27,1.45,5,5,0,0,0-.71,1.68,3.09,3.09,0,0,1,1.26-.85,4.52,4.52,0,0,1,1.85-.3,5.16,5.16,0,0,1,1.77.36,4.25,4.25,0,0,1,1.42.93,4.32,4.32,0,0,1,.95,1.45A5,5,0,0,1,312.26,311.21Zm-2.65,0a2.22,2.22,0,0,0-.68-1.74,2.82,2.82,0,0,0-1.84-.65,3,3,0,0,0-1.52.32,2.54,2.54,0,0,0-1,.85,3.67,3.67,0,0,0-.05.51c0,0.19,0,.34,0,0.45a2.84,2.84,0,0,0,.17,1,2.42,2.42,0,0,0,.49.83,2.45,2.45,0,0,0,.79.57,2.74,2.74,0,0,0,1.07.24,2.63,2.63,0,0,0,1.77-.61,2.33,2.33,0,0,0,.58-0.75A2.2,2.2,0,0,0,309.61,311.23Z"/><path class="cls-4" d="M324.9,311.58a4.62,4.62,0,0,1-1.45,3.41,4.77,4.77,0,0,1-1.61,1,5.24,5.24,0,0,1-2,.32,6.06,6.06,0,0,1-2.05-.41,4.83,4.83,0,0,1-1.67-1.09A5.15,5.15,0,0,1,315,313a6.61,6.61,0,0,1-.42-2.45,9.37,9.37,0,0,1,.73-3.76,10,10,0,0,1,1.86-2.9,9.34,9.34,0,0,1,2.55-1.94,8.38,8.38,0,0,1,2.8-.9l0.61,2.18a8,8,0,0,0-2.08.63,7.31,7.31,0,0,0-1.73,1.1,6.63,6.63,0,0,0-1.27,1.45,5.06,5.06,0,0,0-.71,1.68,3.12,3.12,0,0,1,1.26-.86,4.53,4.53,0,0,1,1.85-.32,5.14,5.14,0,0,1,1.77.35,4.22,4.22,0,0,1,1.42.92,4.29,4.29,0,0,1,.95,1.44A5,5,0,0,1,324.9,311.58Zm-2.65,0a2.2,2.2,0,0,0-.68-1.74,2.81,2.81,0,0,0-1.84-.64,3,3,0,0,0-1.52.33,2.56,2.56,0,0,0-1,.85,3.65,3.65,0,0,0-.05.51c0,0.19,0,.34,0,0.45a2.85,2.85,0,0,0,.17,1,2.4,2.4,0,0,0,1.28,1.39,2.72,2.72,0,0,0,1.07.23,2.65,2.65,0,0,0,1.77-.62,2.35,2.35,0,0,0,.58-0.75A2.2,2.2,0,0,0,322.24,311.61Z"/><path class="cls-4" d="M331.26,314.27a4.29,4.29,0,0,0,1.27-.15,2.93,2.93,0,0,0,1-.48,2.36,2.36,0,0,0,.64-0.74,1.9,1.9,0,0,0,.23-0.92,2,2,0,0,0-.26-1.06,2,2,0,0,0-.73-0.7,3.58,3.58,0,0,0-1.12-.38,9,9,0,0,0-1.41-.14l-1.18,0v-1.51l3.54-4.23-5.33-.12c0-.92,0-1.39,0-2.31l8.59,0.19v1.91l-3.71,4.14h0.48a4.22,4.22,0,0,1,1.43.28,3.64,3.64,0,0,1,1.23.78,3.83,3.83,0,0,1,.86,1.28,4.41,4.41,0,0,1,.33,1.75,4.24,4.24,0,0,1-.5,2.09,4.65,4.65,0,0,1-1.31,1.5,5.44,5.44,0,0,1-1.86.88,7.67,7.67,0,0,1-2.17.26,10.81,10.81,0,0,1-1.9-.21,9.3,9.3,0,0,1-1.83-.57l0.74-2.25a3.06,3.06,0,0,0,.52.22l0.74,0.23a8.11,8.11,0,0,0,.84.19A5.92,5.92,0,0,0,331.26,314.27Z"/><path class="cls-4" d="M340.31,318.93l9.35,0.15v2.25l-9.35-.15v-2.25Z"/><path class="cls-4" d="M362.33,316.75l-9.39-.09c0-.81,0-1.22,0-2l0.63-.55,0.85-.78q0.47-.44,1-1t1-1.08q0.72-.79,1.25-1.44a10.27,10.27,0,0,0,.89-1.22,5,5,0,0,0,.52-1.13,3.92,3.92,0,0,0,.17-1.14,1.9,1.9,0,0,0-.19-0.82,2.26,2.26,0,0,0-.53-0.71,2.56,2.56,0,0,0-.81-0.49,3,3,0,0,0-1-.19,3.91,3.91,0,0,0-1.38.22,4.66,4.66,0,0,0-1.3.76l-1.1-1.94a9.2,9.2,0,0,1,2-1,6.72,6.72,0,0,1,2.5-.41,6,6,0,0,1,1.74.27,4.62,4.62,0,0,1,1.47.76,3.58,3.58,0,0,1,1.4,2.94,6.41,6.41,0,0,1-.12,1.25,6.06,6.06,0,0,1-.36,1.15,7.81,7.81,0,0,1-.63,1.18q-0.39.61-.94,1.31-0.42.54-.92,1.09t-1,1.05q-0.48.5-1,.94t-0.85.73l6.07,0.05v2.31Z"/><path class="cls-4" d="M364.75,309.39a12.49,12.49,0,0,1,.4-3.35,6.85,6.85,0,0,1,1.13-2.38,4.66,4.66,0,0,1,1.74-1.41,5.29,5.29,0,0,1,2.26-.46,4.9,4.9,0,0,1,4.1,1.87q1.44,1.86,1.44,5.76a12.57,12.57,0,0,1-.4,3.37,7,7,0,0,1-1.13,2.39,4.61,4.61,0,0,1-1.75,1.43,5.35,5.35,0,0,1-2.27.47,4.76,4.76,0,0,1-4.1-2A9.7,9.7,0,0,1,364.75,309.39Zm2.74,0q0,0.31,0,.6c0,0.19,0,.38,0,0.58l5.1-4.67a2.37,2.37,0,0,0-2.36-1.81,2.24,2.24,0,0,0-2.06,1.28A8.55,8.55,0,0,0,367.49,309.41Zm5.6,0q0-.34,0-0.64c0-.2,0-0.4,0-0.6l-5.12,4.67a2.41,2.41,0,0,0,2.36,1.92,2.27,2.27,0,0,0,2.07-1.28A8.56,8.56,0,0,0,373.09,309.42Z"/><path class="cls-4" d="M377.39,309.42a12.52,12.52,0,0,1,.4-3.35,6.9,6.9,0,0,1,1.13-2.38,4.71,4.71,0,0,1,1.74-1.42,5.31,5.31,0,0,1,2.26-.48,4.87,4.87,0,0,1,4.1,1.84q1.44,1.85,1.44,5.76a12.59,12.59,0,0,1-.4,3.37,7,7,0,0,1-1.13,2.4,4.65,4.65,0,0,1-1.75,1.44,5.37,5.37,0,0,1-2.27.48,4.73,4.73,0,0,1-4.1-2A9.66,9.66,0,0,1,377.39,309.42Zm2.74,0q0,0.31,0,.6c0,0.19,0,.38,0,0.58l5.1-4.7a2.35,2.35,0,0,0-2.36-1.8,2.26,2.26,0,0,0-2.06,1.3A8.58,8.58,0,0,0,380.13,309.42Zm5.6,0q0-.34,0-0.64c0-.2,0-0.4,0-0.6l-5.12,4.7a2.39,2.39,0,0,0,2.36,1.9,2.29,2.29,0,0,0,2.07-1.29A8.59,8.59,0,0,0,385.73,309.4Z"/><path class="cls-4" d="M393.82,315.38a1.45,1.45,0,0,1,.47-1.14,1.74,1.74,0,0,1,1.19-.43,2.06,2.06,0,0,1,1.75.74,2.92,2.92,0,0,1,.59,1.86,4,4,0,0,1-.37,1.73,4.62,4.62,0,0,1-1,1.35,5.28,5.28,0,0,1-1.32.94,5.42,5.42,0,0,1-1.44.5l-0.57-1.15a6.22,6.22,0,0,0,1-.37,4.17,4.17,0,0,0,.94-0.59,3.29,3.29,0,0,0,.71-0.82,2.24,2.24,0,0,0,.33-1,2.68,2.68,0,0,1-1.07,0,1.6,1.6,0,0,1-.73-0.33,1.36,1.36,0,0,1-.41-0.58A2.15,2.15,0,0,1,393.82,315.38Z"/><path class="cls-4" d="M414,312.35l-2.53,0v4.09l-2.55,0v-4.09l-6.38.09v-1.87l6.68-8.94,2.25,0c0,3.41,0,5.11,0,8.52l2.53,0v2.18Zm-5.08-6.76-3.66,4.72,3.66-.06v-4.66Z"/><path class="cls-4" d="M417,318.55a7.34,7.34,0,0,0,1.56-.59,6.77,6.77,0,0,0,1.8-1.32,7.42,7.42,0,0,0,1.48-2.21,7.84,7.84,0,0,0,.61-3.27,8.41,8.41,0,0,0-.58-3.35,6.83,6.83,0,0,0-1.42-2.16,5.93,5.93,0,0,0-1.78-1.24,8.65,8.65,0,0,0-1.67-.56l0.51-2.26a10.26,10.26,0,0,1,2.86.93,8.26,8.26,0,0,1,2.46,1.86,8.87,8.87,0,0,1,1.72,2.85,10.8,10.8,0,0,1,.64,3.88,11,11,0,0,1-.64,3.92,9.18,9.18,0,0,1-1.72,2.9,8.63,8.63,0,0,1-2.46,1.93,9.94,9.94,0,0,1-2.86,1Z"/><path class="cls-4" d="M465.86,312.49l2.61-.12v-5.88l-2.61.12V304.3l4.74-.22,0.32,1.37H471a6,6,0,0,1,1.35-1.22,3.45,3.45,0,0,1,1.77-.55,2.27,2.27,0,0,1,2,.83,4.89,4.89,0,0,1,.73,3.05l-2.46.12a2,2,0,0,0-.22-1.09,0.73,0.73,0,0,0-.7-0.31,2.17,2.17,0,0,0-1.36.49,4.55,4.55,0,0,0-.87,1v4.47l4.57-.22v2.31l-9.91.47v-2.31Z"/><path class="cls-4" d="M488.9,312.52a4.07,4.07,0,0,1-.7.53,7.26,7.26,0,0,1-1,.51,8.21,8.21,0,0,1-1.27.41,8.39,8.39,0,0,1-1.47.21,7,7,0,0,1-2.41-.25,4.38,4.38,0,0,1-2.93-2.69,7,7,0,0,1,.05-4.75,5.22,5.22,0,0,1,1.21-1.79,5.42,5.42,0,0,1,1.8-1.13,7.19,7.19,0,0,1,2.23-.47,6.83,6.83,0,0,1,1.65.12,4.24,4.24,0,0,1,1.57.64,3.58,3.58,0,0,1,1.17,1.31,4.52,4.52,0,0,1,.45,2.16,10.19,10.19,0,0,1-.21,2l-7.57.41a2.33,2.33,0,0,0,.28,1.12,2.09,2.09,0,0,0,.69.72,2.82,2.82,0,0,0,1,.38,4.93,4.93,0,0,0,1.19.07,6.31,6.31,0,0,0,2.07-.41,4.7,4.7,0,0,0,1.32-.79Zm-4.55-7.25a3.56,3.56,0,0,0-1,.21,3.08,3.08,0,0,0-.87.48,2.6,2.6,0,0,0-.64.75,2.31,2.31,0,0,0-.29,1l5.18-.28A2,2,0,0,0,484.36,305.27Z"/><path class="cls-4" d="M501.78,311.86a6.48,6.48,0,0,1-2,1.1,9.13,9.13,0,0,1-2.42.47,6.69,6.69,0,0,1-2.43-.25,4.58,4.58,0,0,1-1.79-1,4.41,4.41,0,0,1-1.1-1.69,6.34,6.34,0,0,1-.38-2.25,6.1,6.1,0,0,1,.44-2.38,5.35,5.35,0,0,1,1.23-1.81,5.74,5.74,0,0,1,1.86-1.19,7.45,7.45,0,0,1,2.34-.51,8.49,8.49,0,0,1,2.21.14,9.73,9.73,0,0,1,1.58.43v3.7l-2.31.14v-1.93a5.86,5.86,0,0,0-1.3-.07,4.08,4.08,0,0,0-1.17.25,3.09,3.09,0,0,0-1,.63,3.24,3.24,0,0,0-.74,1,3.33,3.33,0,0,0-.28,1.42,3.14,3.14,0,0,0,.23,1.23,2.72,2.72,0,0,0,.65.95,2.75,2.75,0,0,0,1,.6,3.67,3.67,0,0,0,1.38.16,5.1,5.1,0,0,0,2-.46,8.54,8.54,0,0,0,1.15-.66Z"/><path class="cls-4" d="M509.85,301.84l3.91-.27v8.19l1.6-.11V312l-3.32.23-0.48-1.52h-0.08A4.1,4.1,0,0,1,510,312.1a4.64,4.64,0,0,1-2.14.67,4.72,4.72,0,0,1-1.46-.11,2.43,2.43,0,0,1-1.12-.62,3,3,0,0,1-.72-1.26,6.93,6.93,0,0,1-.25-2v-4.22l-1.2.08v-2.31l3.93-.25v6a3.08,3.08,0,0,0,.41,1.82,1.39,1.39,0,0,0,1.29.48,2.42,2.42,0,0,0,1.4-.55,2.73,2.73,0,0,0,.87-1.19v-4.47l-1.18.08v-2.31Z"/><path class="cls-4" d="M516.35,309.59l2.61-.18c0-2.35,0-3.53,0-5.88l-2.61.18V301.4l4.73-.34,0.32,1.36h0.08a6.18,6.18,0,0,1,1.35-1.25,3.52,3.52,0,0,1,1.77-.59,2.21,2.21,0,0,1,2,.78,4.81,4.81,0,0,1,.73,3l-2.46.18a2,2,0,0,0-.22-1.09,0.71,0.71,0,0,0-.7-0.29,2.22,2.22,0,0,0-1.36.52,4.71,4.71,0,0,0-.87,1v4.47l4.56-.34v2.31l-9.9.72v-2.31Z"/><path class="cls-4" d="M537.7,314.74a9.13,9.13,0,0,1-2.86-.7,7.47,7.47,0,0,1-2.46-1.68,8,8,0,0,1-1.71-2.72,10.52,10.52,0,0,1-.64-3.86,11.36,11.36,0,0,1,.64-3.94,10.09,10.09,0,0,1,1.71-3,9.56,9.56,0,0,1,2.46-2.1,11.31,11.31,0,0,1,2.86-1.22l0.5,2.21a9.53,9.53,0,0,0-1.67.73,6.83,6.83,0,0,0-1.78,1.42,7.8,7.8,0,0,0-1.42,2.31,8.88,8.88,0,0,0-.58,3.41,7.44,7.44,0,0,0,.61,3.21,6.44,6.44,0,0,0,1.48,2.06,5.88,5.88,0,0,0,1.8,1.14,6.7,6.7,0,0,0,1.55.43Z"/><path class="cls-4" d="M552.22,304.5a4.93,4.93,0,0,1-.39,1.94,5.4,5.4,0,0,1-1.06,1.63,5.66,5.66,0,0,1-3.61,1.72,5.75,5.75,0,0,1-2-.17,4.15,4.15,0,0,1-1.67-.9,4.41,4.41,0,0,1-1.14-1.65,6.25,6.25,0,0,1-.42-2.4,10,10,0,0,1,.72-3.84,11.7,11.7,0,0,1,1.86-3.11A11,11,0,0,1,547,295.5a9.32,9.32,0,0,1,2.79-1.22l0.61,2.11a8.91,8.91,0,0,0-2.08.86,8.56,8.56,0,0,0-1.72,1.29,7.85,7.85,0,0,0-1.27,1.6,5.71,5.71,0,0,0-.7,1.76,3.65,3.65,0,0,1,1.26-1,5.11,5.11,0,0,1,3.61-.37,3.53,3.53,0,0,1,2.36,2.09A4.73,4.73,0,0,1,552.22,304.5Zm-2.65.34a2,2,0,0,0-.68-1.66,2.55,2.55,0,0,0-1.84-.43,3.25,3.25,0,0,0-1.51.51,3,3,0,0,0-1,1,3.81,3.81,0,0,0-.05.52c0,0.19,0,.34,0,0.45a2.69,2.69,0,0,0,.17,1,2,2,0,0,0,1.28,1.25,2.58,2.58,0,0,0,1.07.11,2.75,2.75,0,0,0,.95-0.26,3,3,0,0,0,.82-0.56,2.75,2.75,0,0,0,.58-0.82A2.37,2.37,0,0,0,549.57,304.84Z"/><path class="cls-4" d="M555,311.27l9.32-.86v2.25l-9.32.86v-2.25Z"/><path class="cls-4" d="M577.41,302.12a5,5,0,0,1-.39,1.95,5.5,5.5,0,0,1-1.06,1.64,5.74,5.74,0,0,1-3.61,1.77,5.74,5.74,0,0,1-2-.15,4.09,4.09,0,0,1-1.67-.88,4.33,4.33,0,0,1-1.13-1.63,6.22,6.22,0,0,1-.42-2.4,10.08,10.08,0,0,1,.72-3.85,11.89,11.89,0,0,1,1.86-3.13,11.22,11.22,0,0,1,2.54-2.26,9.45,9.45,0,0,1,2.79-1.25l0.61,2.1a9,9,0,0,0-2.08.89,8.71,8.71,0,0,0-1.72,1.31,8,8,0,0,0-1.27,1.62,5.78,5.78,0,0,0-.7,1.77,3.72,3.72,0,0,1,1.26-1,5.12,5.12,0,0,1,3.61-.42,3.46,3.46,0,0,1,2.36,2.06A4.71,4.71,0,0,1,577.41,302.12Zm-2.64.37a2,2,0,0,0-.68-1.65,2.53,2.53,0,0,0-1.84-.41,3.28,3.28,0,0,0-1.51.53,3.08,3.08,0,0,0-1,1,3.83,3.83,0,0,0-.05.52c0,0.19,0,.34,0,0.45a2.66,2.66,0,0,0,.17.95,2,2,0,0,0,1.28,1.23,2.56,2.56,0,0,0,1.07.1,2.77,2.77,0,0,0,.94-0.27,3.07,3.07,0,0,0,.82-0.58,2.81,2.81,0,0,0,.58-0.82A2.39,2.39,0,0,0,574.77,302.49Z"/><path class="cls-4" d="M583.52,303.93a4.87,4.87,0,0,0,1.28-.3,3.62,3.62,0,0,0,1-.59,2.61,2.61,0,0,0,.67-0.85,2.39,2.39,0,0,0,.24-1.08,1.88,1.88,0,0,0-.91-1.72,4.4,4.4,0,0,0-2.74-.38l-0.53.07-0.58.09-0.65.09c0-3.07,0-4.61,0-7.69l7.59-.8c0,1,0,1.54,0,2.56l-5.24.55v2.83l0.34-.06,0.28,0,0.24,0a5.89,5.89,0,0,1,2,.1,3.88,3.88,0,0,1,1.57.75,3.57,3.57,0,0,1,1,1.37,4.63,4.63,0,0,1,.37,1.88,5.17,5.17,0,0,1-.46,2.22,5.26,5.26,0,0,1-1.26,1.7,6.44,6.44,0,0,1-1.85,1.15,8,8,0,0,1-2.24.56,5.48,5.48,0,0,1-1,0q-0.52,0-1-.12a8.33,8.33,0,0,1-.93-0.21c-0.29-.08-0.53-0.16-0.72-0.24l0.88-2.27a5.67,5.67,0,0,0,1.1.35A4.68,4.68,0,0,0,583.52,303.93Z"/><path class="cls-4" d="M602.1,304l-9.35,1v-2l0.63-.63,0.85-.88q0.47-.49,1-1.08t1-1.21q0.71-.88,1.25-1.59a12.09,12.09,0,0,0,.88-1.33,5.71,5.71,0,0,0,.51-1.19,4.15,4.15,0,0,0,.17-1.16,1.76,1.76,0,0,0-.19-0.8,1.9,1.9,0,0,0-.52-0.65,2.19,2.19,0,0,0-.81-0.39,2.8,2.8,0,0,0-1-.06,4.18,4.18,0,0,0-1.37.38,5.45,5.45,0,0,0-1.29.92l-1.09-1.81a10.68,10.68,0,0,1,2-1.27,7.2,7.2,0,0,1,2.49-.71,5.76,5.76,0,0,1,1.73.06,4,4,0,0,1,1.47.58,3.07,3.07,0,0,1,1,1.11,3.42,3.42,0,0,1,.38,1.66,6.66,6.66,0,0,1-.12,1.26,6.73,6.73,0,0,1-.36,1.2,9.07,9.07,0,0,1-.63,1.26q-0.39.65-.93,1.43-0.42.59-.91,1.2t-1,1.17q-0.48.56-1,1.05t-0.85.83l6-.68C602.1,302.65,602.1,303.11,602.1,304Z"/><path class="cls-4" d="M605.35,306.12l9.31-1.09v2.25l-9.31,1.09v-2.25Z"/><path class="cls-4" d="M617.55,298.63a3.85,3.85,0,0,1,.24-1.37,4.86,4.86,0,0,1,.63-1.17,6.32,6.32,0,0,1,.89-1,10.16,10.16,0,0,1,1-.81,5.41,5.41,0,0,1-1.74-1.23,2.83,2.83,0,0,1-.69-2,3.65,3.65,0,0,1,.36-1.58,4.47,4.47,0,0,1,1-1.36,5.57,5.57,0,0,1,1.52-1,6.49,6.49,0,0,1,1.91-.53,5.88,5.88,0,0,1,1.77,0,4.2,4.2,0,0,1,1.45.53,2.73,2.73,0,0,1,1.34,2.41,4.09,4.09,0,0,1-.64,2.24,6.77,6.77,0,0,1-1.75,1.82,5.43,5.43,0,0,1,2,1.28,3,3,0,0,1,.74,2.17,3.9,3.9,0,0,1-.41,1.76,4.94,4.94,0,0,1-1.1,1.45,6.07,6.07,0,0,1-1.62,1.05,6.81,6.81,0,0,1-2,.55,6.24,6.24,0,0,1-1.95,0,4.51,4.51,0,0,1-1.57-.6,3,3,0,0,1-1-1.09A3.1,3.1,0,0,1,617.55,298.63Zm7.46-1.28a1.36,1.36,0,0,0-.27-0.87,2.46,2.46,0,0,0-.68-0.59,5.43,5.43,0,0,0-.9-0.42l-1-.37a4.87,4.87,0,0,0-1.61,1.39,2.56,2.56,0,0,0-.56,1.44,1.52,1.52,0,0,0,.67,1.38,2.77,2.77,0,0,0,1.86.28,3.3,3.3,0,0,0,1.76-.71A1.89,1.89,0,0,0,625,297.35Zm-4.5-6.48a1.43,1.43,0,0,0,.22.82,1.94,1.94,0,0,0,.57.54,3.82,3.82,0,0,0,.79.38l0.88,0.31a4.84,4.84,0,0,0,.66-0.5,4.35,4.35,0,0,0,.58-0.63,3.67,3.67,0,0,0,.41-0.68,1.63,1.63,0,0,0,.16-0.68,1.37,1.37,0,0,0-.19-0.74,1.56,1.56,0,0,0-.49-0.5,1.88,1.88,0,0,0-.68-0.26,2.55,2.55,0,0,0-.78,0,2.58,2.58,0,0,0-.85.25,2.87,2.87,0,0,0-.67.46,2,2,0,0,0-.44.6A1.52,1.52,0,0,0,620.5,290.88Z"/><path class="cls-4" d="M629.65,293.34a13.19,13.19,0,0,1,.4-3.4,8,8,0,0,1,1.12-2.53,5.64,5.64,0,0,1,1.73-1.64,5.79,5.79,0,0,1,2.25-.76,4.28,4.28,0,0,1,4.07,1.32q1.43,1.67,1.43,5.57a13.26,13.26,0,0,1-.4,3.42,8.15,8.15,0,0,1-1.12,2.54,5.57,5.57,0,0,1-1.74,1.66,5.84,5.84,0,0,1-2.26.77,4.14,4.14,0,0,1-4.08-1.44Q629.65,297.08,629.65,293.34Zm2.72-.35q0,0.31,0,.6c0,0.19,0,.38,0,0.57l5.07-5.34a2,2,0,0,0-2.35-1.5,2.63,2.63,0,0,0-2,1.56A9.23,9.23,0,0,0,632.37,293Zm5.57-.73q0-.34,0-0.64c0-.2,0-0.4,0-0.59l-5.09,5.35a2,2,0,0,0,2.35,1.61,2.67,2.67,0,0,0,2.06-1.55A9.25,9.25,0,0,0,637.94,292.27Z"/><path class="cls-4" d="M642.21,291.7a13.23,13.23,0,0,1,.4-3.4,8,8,0,0,1,1.12-2.53,5.69,5.69,0,0,1,1.73-1.65,5.81,5.81,0,0,1,2.25-.78,4.25,4.25,0,0,1,4.07,1.3q1.43,1.66,1.43,5.57a13.29,13.29,0,0,1-.4,3.43,8.21,8.21,0,0,1-1.12,2.55,5.62,5.62,0,0,1-1.74,1.67,5.87,5.87,0,0,1-2.26.78,4.11,4.11,0,0,1-4.07-1.41Q642.21,295.44,642.21,291.7Zm2.72-.37q0,0.31,0,.6c0,0.19,0,.38,0,0.57l5.06-5.37a2,2,0,0,0-2.34-1.48,2.66,2.66,0,0,0-2,1.57A9.27,9.27,0,0,0,644.93,291.34Zm5.56-.76q0-.34,0-0.64c0-.2,0-0.4,0-0.59l-5.08,5.38a2,2,0,0,0,2.34,1.59,2.69,2.69,0,0,0,2.05-1.56A9.29,9.29,0,0,0,650.49,290.58Z"/><path class="cls-4" d="M658.52,295.48a1.66,1.66,0,0,1,.47-1.2,2,2,0,0,1,1.18-.59,1.81,1.81,0,0,1,1.74.51,2.62,2.62,0,0,1,.59,1.78,4.35,4.35,0,0,1-.37,1.78,5.56,5.56,0,0,1-1,1.48,6.37,6.37,0,0,1-1.31,1.11,6.15,6.15,0,0,1-1.43.69L657.88,300a7.1,7.1,0,0,0,1-.5,5,5,0,0,0,.93-0.71,4,4,0,0,0,.7-0.91,2.53,2.53,0,0,0,.32-1.05,2.75,2.75,0,0,1-1.07.18,1.39,1.39,0,0,1-.72-0.23,1.13,1.13,0,0,1-.41-0.53A2,2,0,0,1,658.52,295.48Z"/><path class="cls-4" d="M671.69,292.89a4.67,4.67,0,0,0,1.26-.37,3.61,3.61,0,0,0,1-.65,3,3,0,0,0,.64-0.85,2.15,2.15,0,0,0,.23-1,1.79,1.79,0,0,0-.26-1,1.52,1.52,0,0,0-.72-0.57,3.12,3.12,0,0,0-1.11-.19,8.83,8.83,0,0,0-1.4.1l-1.17.17v-1.51l3.51-4.83-5.29.79c0-.92,0-1.39,0-2.31l8.52-1.27c0,0.76,0,1.15,0,1.91l-3.68,4.78,0.48-.07a3.94,3.94,0,0,1,1.42,0,2.91,2.91,0,0,1,1.22.57,3,3,0,0,1,.86,1.13,4,4,0,0,1,.32,1.69,4.77,4.77,0,0,1-.49,2.17,5.94,5.94,0,0,1-1.29,1.72,6.68,6.68,0,0,1-1.85,1.2,8.36,8.36,0,0,1-2.15.63,10.52,10.52,0,0,1-1.88.11A8.22,8.22,0,0,1,668,295l0.73-2.38a2.57,2.57,0,0,0,.51.13l0.73,0.1a7.58,7.58,0,0,0,.84,0A5.77,5.77,0,0,0,671.69,292.89Z"/><path class="cls-4" d="M681.55,295.57a8.39,8.39,0,0,0,1.55-.8,8.16,8.16,0,0,0,1.78-1.56,8.89,8.89,0,0,0,1.47-2.4,8.49,8.49,0,0,0,.61-3.35,7.92,7.92,0,0,0-.57-3.27,5.68,5.68,0,0,0-1.41-2,4.91,4.91,0,0,0-1.76-1,7.71,7.71,0,0,0-1.66-.34l0.5-2.32a9.19,9.19,0,0,1,2.84.55,6.81,6.81,0,0,1,2.44,1.53,7.43,7.43,0,0,1,1.7,2.62,10.19,10.19,0,0,1,.64,3.79,11.84,11.84,0,0,1-.64,4,10.91,10.91,0,0,1-1.7,3.12,10.41,10.41,0,0,1-2.44,2.25,11.27,11.27,0,0,1-2.84,1.36Z"/><path class="cls-4" d="M72.91,239.68l2.59,0.41V234.2l-2.59-.41v-2.31l4.7,0.74,0.31,1.43H78a4.41,4.41,0,0,1,1.34-.95,3,3,0,0,1,1.75-.19,2.84,2.84,0,0,1,2,1.23,5.66,5.66,0,0,1,.72,3.2l-2.44-.37a2.34,2.34,0,0,0-.22-1.14,0.92,0.92,0,0,0-.7-0.45,1.86,1.86,0,0,0-1.35.21,3.38,3.38,0,0,0-.87.83v4.47l4.53,0.7v2.31c-3.93-.6-5.9-0.91-9.83-1.53v-2.31Z"/><path class="cls-4" d="M95.78,244.36a3,3,0,0,1-.7.39,5.84,5.84,0,0,1-1,.3,7.17,7.17,0,0,1-1.26.15,8.08,8.08,0,0,1-1.46-.09,7.77,7.77,0,0,1-2.39-.74,5.81,5.81,0,0,1-2.9-3.28,7,7,0,0,1-.39-2.38,5.73,5.73,0,0,1,.44-2.36,3.92,3.92,0,0,1,1.2-1.55,4.2,4.2,0,0,1,1.79-.77,6.64,6.64,0,0,1,2.22,0,7.45,7.45,0,0,1,1.64.45,5.37,5.37,0,0,1,1.56,1A4.8,4.8,0,0,1,95.66,237a5.13,5.13,0,0,1,.45,2.25,9.56,9.56,0,0,1-.21,1.92L88.38,240a2.69,2.69,0,0,0,.28,1.18,2.79,2.79,0,0,0,.69.86,3.55,3.55,0,0,0,1,.58,5.32,5.32,0,0,0,1.18.31,5.87,5.87,0,0,0,2.06,0,3.67,3.67,0,0,0,1.31-.52Zm-4.51-8.16a3.33,3.33,0,0,0-1,0,2.44,2.44,0,0,0-.87.31,1.92,1.92,0,0,0-.64.62,2,2,0,0,0-.29.92l5.14,0.76a2.64,2.64,0,0,0-.57-1.74A2.67,2.67,0,0,0,91.26,236.19Z"/><path class="cls-4" d="M108.57,246.29a5.15,5.15,0,0,1-2,.7,8.53,8.53,0,0,1-2.4,0,7.44,7.44,0,0,1-2.42-.74,6,6,0,0,1-1.78-1.38,5.75,5.75,0,0,1-1.1-1.91,7,7,0,0,1-.38-2.32,5.49,5.49,0,0,1,.44-2.29,4,4,0,0,1,1.22-1.57,4.44,4.44,0,0,1,1.85-.82,6.86,6.86,0,0,1,2.32,0,9.25,9.25,0,0,1,2.2.58,11.91,11.91,0,0,1,1.57.75c0,1.48,0,2.22,0,3.7l-2.3-.32v-1.93a6.34,6.34,0,0,0-1.3-.33,3.77,3.77,0,0,0-1.16,0,2.41,2.41,0,0,0-1,.42,2.44,2.44,0,0,0-.73.87,3,3,0,0,0-.28,1.37,3.55,3.55,0,0,0,.88,2.35,3.62,3.62,0,0,0,1,.81,4.09,4.09,0,0,0,1.37.44,4.66,4.66,0,0,0,2-.06,6.67,6.67,0,0,0,1.14-.43Z"/><path class="cls-4" d="M116.6,237.9l3.89,0.52c0,2.92,0,4.38,0,7.31v0.88l1.59,0.21v2.31l-3.31-.44-0.48-1.62h-0.08a3,3,0,0,1-1.44,1.13,4.08,4.08,0,0,1-2.13.24,5.18,5.18,0,0,1-1.45-.41,3.14,3.14,0,0,1-1.12-.85,3.81,3.81,0,0,1-.71-1.4,7.51,7.51,0,0,1-.25-2.09v-4.22l-1.19-.17c0-.92,0-1.39,0-2.31l3.91,0.54v6a3.53,3.53,0,0,0,.41,1.9,1.72,1.72,0,0,0,1.29.74,2.1,2.1,0,0,0,2.26-1.29v-4.47l-1.17-.16C116.6,239.29,116.6,238.82,116.6,237.9Z"/><path class="cls-4" d="M123.07,247l2.59,0.34c0-2.35,0-3.53,0-5.88l-2.59-.34c0-.92,0-1.39,0-2.31l4.71,0.62,0.31,1.43h0.08a4.59,4.59,0,0,1,1.34-1,3.06,3.06,0,0,1,1.76-.24,2.76,2.76,0,0,1,2,1.18A5.55,5.55,0,0,1,134,244l-2.45-.31a2.29,2.29,0,0,0-.22-1.13,0.89,0.89,0,0,0-.7-0.44,1.89,1.89,0,0,0-1.35.25,3.52,3.52,0,0,0-.87.85v4.47l4.54,0.58c0,0.92,0,1.39,0,2.31-3.94-.5-5.92-0.75-9.86-1.27C123.07,248.34,123.07,247.88,123.07,247Z"/><path class="cls-4" d="M144.34,256.4a10.9,10.9,0,0,1-2.85-1.27A9.94,9.94,0,0,1,139,253a10.45,10.45,0,0,1-1.71-3.07,11.63,11.63,0,0,1-.64-4,10.34,10.34,0,0,1,.64-3.82,7.77,7.77,0,0,1,1.71-2.68,7.15,7.15,0,0,1,2.45-1.61,9.42,9.42,0,0,1,2.85-.64l0.5,2.31a7.91,7.91,0,0,0-1.67.4,5.15,5.15,0,0,0-1.77,1.07,5.94,5.94,0,0,0-1.41,2,8,8,0,0,0-.58,3.29,8.31,8.31,0,0,0,.61,3.33,8.48,8.48,0,0,0,1.48,2.35,7.76,7.76,0,0,0,1.79,1.5,8.12,8.12,0,0,0,1.55.74Z"/><path class="cls-4" d="M158.83,249.09a4.39,4.39,0,0,1-.39,1.87,4.11,4.11,0,0,1-1.06,1.41,4.25,4.25,0,0,1-1.6.85,5,5,0,0,1-2,.15,6.37,6.37,0,0,1-2-.58,5.41,5.41,0,0,1-1.67-1.23,5.77,5.77,0,0,1-1.13-1.88,6.94,6.94,0,0,1-.42-2.49,8.83,8.83,0,0,1,2.58-6.43,8.22,8.22,0,0,1,2.54-1.72,7.77,7.77,0,0,1,2.79-.66l0.61,2.23a7.47,7.47,0,0,0-2.08.44,6.51,6.51,0,0,0-1.72.95,5.83,5.83,0,0,0-1.27,1.34,4.65,4.65,0,0,0-.7,1.62,2.76,2.76,0,0,1,1.26-.75,4.33,4.33,0,0,1,1.84-.15,5.4,5.4,0,0,1,1.76.51,4.73,4.73,0,0,1,1.42,1,4.83,4.83,0,0,1,.94,1.53A5.29,5.29,0,0,1,158.83,249.09Zm-2.64-.2a2.4,2.4,0,0,0-.68-1.8,3,3,0,0,0-1.83-.8,2.84,2.84,0,0,0-1.51.2,2.26,2.26,0,0,0-1,.77,3.6,3.6,0,0,0-.05.51c0,0.19,0,.34,0,0.45a3,3,0,0,0,.17,1,2.71,2.71,0,0,0,1.28,1.5,2.87,2.87,0,0,0,1.07.32,2.47,2.47,0,0,0,.94-0.07,2.32,2.32,0,0,0,.82-0.4,2.06,2.06,0,0,0,.58-0.7A2.09,2.09,0,0,0,156.18,248.89Z"/><path class="cls-4" d="M161.59,256.41l9.31,1c0,0.9,0,1.35,0,2.25l-9.31-1C161.59,257.76,161.59,257.31,161.59,256.41Z"/><path class="cls-4" d="M184,251.77a4.42,4.42,0,0,1-.39,1.87,4.18,4.18,0,0,1-1.06,1.43,4.33,4.33,0,0,1-1.61.87,5.07,5.07,0,0,1-2,.17,6.32,6.32,0,0,1-2-.56,5.33,5.33,0,0,1-1.67-1.21,5.67,5.67,0,0,1-1.13-1.86,6.88,6.88,0,0,1-.42-2.48,8.94,8.94,0,0,1,2.58-6.46,8.38,8.38,0,0,1,2.54-1.75,7.85,7.85,0,0,1,2.79-.69l0.61,2.22a7.55,7.55,0,0,0-2.08.47,6.64,6.64,0,0,0-1.72,1,5.94,5.94,0,0,0-1.27,1.36,4.71,4.71,0,0,0-.7,1.63,2.81,2.81,0,0,1,1.26-.76,4.36,4.36,0,0,1,1.85-.18,5.36,5.36,0,0,1,1.76.48,4.65,4.65,0,0,1,1.42,1,4.74,4.74,0,0,1,.94,1.51A5.25,5.25,0,0,1,184,251.77Zm-2.64-.16a2.37,2.37,0,0,0-.68-1.79,3,3,0,0,0-1.84-.78,2.86,2.86,0,0,0-1.51.22,2.3,2.3,0,0,0-1,.78,3.6,3.6,0,0,0-.05.51c0,0.19,0,.34,0,0.45a3,3,0,0,0,.17,1,2.66,2.66,0,0,0,.49.86,2.7,2.7,0,0,0,.79.63,2.87,2.87,0,0,0,1.07.31,2.49,2.49,0,0,0,.94-0.08,2.36,2.36,0,0,0,.82-0.41A2.09,2.09,0,0,0,181.35,251.61Z"/><path class="cls-4" d="M190.1,254.81a4.51,4.51,0,0,0,1.28,0,2.86,2.86,0,0,0,1-.39,1.94,1.94,0,0,0,.67-0.71,2.11,2.11,0,0,0,.24-1,2.35,2.35,0,0,0-.91-1.9,5,5,0,0,0-2.74-.93l-0.53,0-0.58,0-0.65,0c0-3.07,0-4.61,0-7.69l7.6,0.73c0,1,0,1.54,0,2.56l-5.25-.5c0,1.13,0,1.7,0,2.83h0.34l0.28,0h0.24a6.44,6.44,0,0,1,2,.49,5,5,0,0,1,1.57,1.06,4.73,4.73,0,0,1,1,1.58,5.16,5.16,0,0,1,.37,2,4.57,4.57,0,0,1-.46,2.13,3.93,3.93,0,0,1-1.26,1.45,5.07,5.07,0,0,1-1.85.78,7.33,7.33,0,0,1-2.25.11,5.74,5.74,0,0,1-1-.19q-0.52-.14-1-0.33a9.9,9.9,0,0,1-.93-0.4c-0.29-.14-0.53-0.27-0.72-0.39l0.88-2.1a7,7,0,0,0,1.1.57A5.12,5.12,0,0,0,190.1,254.81Z"/><path class="cls-4" d="M208.71,258.64l-9.37-.84c0-.81,0-1.22,0-2l0.63-.5,0.85-.71q0.47-.4,1-0.87t1-1q0.71-.73,1.25-1.34a9.21,9.21,0,0,0,.88-1.15,4.58,4.58,0,0,0,.51-1.09,3.8,3.8,0,0,0,.17-1.13,2,2,0,0,0-.19-0.84,2.55,2.55,0,0,0-.52-0.75,2.86,2.86,0,0,0-.81-0.55,3.09,3.09,0,0,0-1-.27,3.78,3.78,0,0,0-1.37.11,4.2,4.2,0,0,0-1.29.66l-1.09-2a8.3,8.3,0,0,1,2-.88,6.48,6.48,0,0,1,2.49-.21,6.25,6.25,0,0,1,1.73.41,5.09,5.09,0,0,1,1.47.88,4.11,4.11,0,0,1,1,1.32,3.87,3.87,0,0,1,.38,1.73,6.21,6.21,0,0,1-.12,1.24,5.67,5.67,0,0,1-.36,1.12,7.07,7.07,0,0,1-.63,1.13q-0.39.58-.93,1.24-0.42.51-.91,1t-1,1q-0.48.46-1,.86t-0.85.66l6,0.54C208.71,257.26,208.71,257.72,208.71,258.64Z"/><path class="cls-4" d="M212,261.38l9.33,0.78c0,0.9,0,1.35,0,2.25l-9.33-.78C212,262.73,212,262.28,212,261.38Z"/><path class="cls-4" d="M224.19,256.34a3.46,3.46,0,0,1,.24-1.32,3.75,3.75,0,0,1,.63-1,4.71,4.71,0,0,1,.89-0.8,7.64,7.64,0,0,1,1-.6,7.23,7.23,0,0,1-1.74-1.57,3.37,3.37,0,0,1-.69-2.14,3.21,3.21,0,0,1,.36-1.5,3.37,3.37,0,0,1,1-1.16,4.34,4.34,0,0,1,1.52-.7,5.89,5.89,0,0,1,1.91-.15,6.35,6.35,0,0,1,1.78.39,5.3,5.3,0,0,1,1.46.82,3.76,3.76,0,0,1,1,1.2,3.17,3.17,0,0,1,.36,1.49,3.48,3.48,0,0,1-.64,2.12,5,5,0,0,1-1.76,1.47,7.21,7.21,0,0,1,2,1.68,3.61,3.61,0,0,1,.75,2.32,3.4,3.4,0,0,1-.41,1.68,3.7,3.7,0,0,1-1.1,1.23,4.76,4.76,0,0,1-1.63.73,6.19,6.19,0,0,1-2,.15,6.75,6.75,0,0,1-2-.43,5.72,5.72,0,0,1-1.58-.91,4.07,4.07,0,0,1-1.05-1.3A3.54,3.54,0,0,1,224.19,256.34Zm7.48,0.22a1.59,1.59,0,0,0-.27-0.92,3.31,3.31,0,0,0-.68-0.72,7,7,0,0,0-.9-0.6l-1-.57a3.68,3.68,0,0,0-1.62,1.06,2.1,2.1,0,0,0-.57,1.33,1.88,1.88,0,0,0,.67,1.51,3.22,3.22,0,0,0,1.87.66,2.82,2.82,0,0,0,1.77-.36A1.52,1.52,0,0,0,231.67,256.56Zm-4.52-7.38a1.64,1.64,0,0,0,.22.87,2.6,2.6,0,0,0,.57.65,5,5,0,0,0,.79.53l0.88,0.49a3.7,3.7,0,0,0,.66-0.37,3.26,3.26,0,0,0,.58-0.51,2.85,2.85,0,0,0,.41-0.6,1.44,1.44,0,0,0,.16-0.65,1.57,1.57,0,0,0-.19-0.78,2.08,2.08,0,0,0-.49-0.59,2.39,2.39,0,0,0-.68-0.4,2.76,2.76,0,0,0-.78-0.17,2.33,2.33,0,0,0-.85.08,2.2,2.2,0,0,0-.67.33,1.47,1.47,0,0,0-.44.51A1.32,1.32,0,0,0,227.15,249.18Z"/><path class="cls-4" d="M236.34,253.48a12.23,12.23,0,0,1,.4-3.32,6.36,6.36,0,0,1,1.13-2.3,4.23,4.23,0,0,1,1.74-1.29,5.1,5.1,0,0,1,2.26-.31,5.27,5.27,0,0,1,4.1,2.14,9.88,9.88,0,0,1,1.44,5.86,12.32,12.32,0,0,1-.4,3.34,6.48,6.48,0,0,1-1.13,2.32,4.18,4.18,0,0,1-1.75,1.31,5.56,5.56,0,0,1-6.36-1.94A10.18,10.18,0,0,1,236.34,253.48Zm2.73,0.2q0,0.31,0,.6c0,0.19,0,.38,0,0.58l5.09-4.33a2.57,2.57,0,0,0-2.36-2,2.07,2.07,0,0,0-2.05,1.15A8.26,8.26,0,0,0,239.07,253.68Zm5.59,0.39q0-.34,0-0.64c0-.2,0-0.4,0-0.6l-5.11,4.33a2.62,2.62,0,0,0,2.36,2.08,2.1,2.1,0,0,0,2.06-1.14A8.26,8.26,0,0,0,244.67,254.07Z"/><path class="cls-4" d="M249,254.36a12.25,12.25,0,0,1,.4-3.32,6.39,6.39,0,0,1,1.13-2.31,4.27,4.27,0,0,1,1.74-1.3,5.12,5.12,0,0,1,2.26-.33,5.23,5.23,0,0,1,4.1,2.11q1.44,1.95,1.44,5.85a12.31,12.31,0,0,1-.4,3.35,6.53,6.53,0,0,1-1.13,2.33,4.23,4.23,0,0,1-1.75,1.32,5.17,5.17,0,0,1-2.27.33,5.09,5.09,0,0,1-4.1-2.23A10.14,10.14,0,0,1,249,254.36Zm2.73,0.18q0,0.31,0,.6c0,0.19,0,.38,0,0.58l5.09-4.36a2.55,2.55,0,0,0-2.36-2,2.08,2.08,0,0,0-2.05,1.16A8.29,8.29,0,0,0,251.69,254.54Zm5.59,0.36c0-.22,0-0.44,0-0.64s0-.4,0-0.6L252.13,258a2.6,2.6,0,0,0,2.36,2.06,2.11,2.11,0,0,0,2.07-1.15A8.29,8.29,0,0,0,257.28,254.9Z"/><path class="cls-4" d="M265.36,261.41a1.36,1.36,0,0,1,.47-1.11A1.64,1.64,0,0,1,267,260a2.21,2.21,0,0,1,1.75.86,3.09,3.09,0,0,1,.59,1.9,3.83,3.83,0,0,1-.37,1.7,4.21,4.21,0,0,1-1,1.29,4.82,4.82,0,0,1-1.32.85,5.11,5.11,0,0,1-1.44.4l-0.57-1.19a5.82,5.82,0,0,0,1-.3,3.8,3.8,0,0,0,.94-0.52,3,3,0,0,0,.71-0.77,2.13,2.13,0,0,0,.33-1,2.68,2.68,0,0,1-1.07,0,1.73,1.73,0,0,1-.73-0.38,1.49,1.49,0,0,1-.41-0.61A2.22,2.22,0,0,1,265.36,261.41Z"/><path class="cls-4" d="M278.62,261.46a4.25,4.25,0,0,0,1.27-.11,2.83,2.83,0,0,0,1-.45,2.26,2.26,0,0,0,.64-0.72,1.87,1.87,0,0,0,.23-0.92,1.95,1.95,0,0,0-1-1.78,3.68,3.68,0,0,0-1.11-.41,9.12,9.12,0,0,0-1.41-.18l-1.18-.06v-1.51l3.53-4.13-5.32-.27c0-.92,0-1.39,0-2.31l8.59,0.44c0,0.76,0,1.15,0,1.91l-3.7,4,0.48,0a4.29,4.29,0,0,1,1.43.32,3.79,3.79,0,0,1,1.23.82,4,4,0,0,1,.86,1.3,4.48,4.48,0,0,1,.33,1.76,4.16,4.16,0,0,1-.5,2.08,4.45,4.45,0,0,1-1.3,1.46,5.27,5.27,0,0,1-1.86.83,7.6,7.6,0,0,1-2.17.2,10.93,10.93,0,0,1-1.89-.27,9.52,9.52,0,0,1-1.83-.62l0.74-2.23a3.17,3.17,0,0,0,.52.24l0.74,0.25a8.26,8.26,0,0,0,.84.21A6,6,0,0,0,278.62,261.46Z"/><path class="cls-4" d="M288.55,266.12a6.89,6.89,0,0,0,1.56-.49,6.18,6.18,0,0,0,1.8-1.2,6.77,6.77,0,0,0,1.48-2.11,7.56,7.56,0,0,0,.61-3.23,8.71,8.71,0,0,0-.58-3.39,7.47,7.47,0,0,0-1.42-2.26,6.51,6.51,0,0,0-1.78-1.36,9.22,9.22,0,0,0-1.67-.68l0.51-2.22a10.92,10.92,0,0,1,2.86,1.12,9.09,9.09,0,0,1,2.46,2,9.67,9.67,0,0,1,1.72,3,11.16,11.16,0,0,1,.64,3.92,10.69,10.69,0,0,1-.64,3.88,8.42,8.42,0,0,1-1.72,2.78,7.86,7.86,0,0,1-2.46,1.76,9.4,9.4,0,0,1-2.86.79Z"/><path class="cls-4" d="M410.72,251.06l8.32-.16v2.31l-5.71.11v14.91l5.71-.11v2.31l-8.32.16C410.72,262.78,410.72,258.87,410.72,251.06Z"/><path class="cls-4" d="M426,256.46a1.55,1.55,0,0,1,.46-1.18,1.77,1.77,0,0,1,1.22-.46,1.75,1.75,0,0,1,1.26.4,1.48,1.48,0,0,1,.46,1.15,1.59,1.59,0,0,1-.46,1.19,1.8,1.8,0,0,1-1.26.47,1.66,1.66,0,0,1-1.22-.41A1.51,1.51,0,0,1,426,256.46Zm0,7.6a1.55,1.55,0,0,1,.46-1.18,1.77,1.77,0,0,1,1.22-.46,1.75,1.75,0,0,1,1.26.4,1.48,1.48,0,0,1,.46,1.15,1.59,1.59,0,0,1-.46,1.19,1.8,1.8,0,0,1-1.26.47,1.66,1.66,0,0,1-1.22-.41A1.51,1.51,0,0,1,426,264.06Z"/><path class="cls-4" d="M434.87,262.9l2.61-.08v-5.88l-2.61.08v-2.31l4.74-.14,0.32,1.38H440a5.82,5.82,0,0,1,1.35-1.2,3.41,3.41,0,0,1,1.77-.52,2.31,2.31,0,0,1,2,.86,5,5,0,0,1,.73,3.06l-2.46.08a2.08,2.08,0,0,0-.22-1.09,0.75,0.75,0,0,0-.71-0.32,2.14,2.14,0,0,0-1.36.46,4.45,4.45,0,0,0-.87,1c0,1.79,0,2.68,0,4.47l4.57-.15v2.31c-4,.14-6,0.2-9.92.31V262.9Z"/><path class="cls-4" d="M457.93,263.3a4,4,0,0,1-.7.52,7.17,7.17,0,0,1-1,.49,8.14,8.14,0,0,1-1.27.39,8.34,8.34,0,0,1-1.47.18,7,7,0,0,1-2.41-.29,4.48,4.48,0,0,1-2.93-2.74,6.35,6.35,0,0,1-.39-2.31,6.28,6.28,0,0,1,.44-2.44,5.1,5.1,0,0,1,1.21-1.78,5.31,5.31,0,0,1,1.8-1.11,7.11,7.11,0,0,1,2.23-.43,6.86,6.86,0,0,1,1.65.15,4.32,4.32,0,0,1,1.57.66,3.67,3.67,0,0,1,1.17,1.33,4.56,4.56,0,0,1,.45,2.17,10.14,10.14,0,0,1-.21,2l-7.58.29a2.35,2.35,0,0,0,.28,1.12,2.13,2.13,0,0,0,.7.73,2.87,2.87,0,0,0,1,.39,4.94,4.94,0,0,0,1.19.09,6.26,6.26,0,0,0,2.07-.37,4.59,4.59,0,0,0,1.32-.77ZM453.38,256a3.55,3.55,0,0,0-1,.19,3,3,0,0,0-.87.47,2.54,2.54,0,0,0-.64.74,2.28,2.28,0,0,0-.29,1l5.18-.2A2,2,0,0,0,453.38,256Z"/><path class="cls-4" d="M470.81,262.83a6.37,6.37,0,0,1-2,1.07,9.07,9.07,0,0,1-2.42.44,6.73,6.73,0,0,1-2.43-.29,4.68,4.68,0,0,1-1.79-1A4.51,4.51,0,0,1,461,261.3a6.39,6.39,0,0,1-.38-2.25,6,6,0,0,1,.44-2.37,5.24,5.24,0,0,1,1.23-1.8,5.63,5.63,0,0,1,1.86-1.16,7.39,7.39,0,0,1,2.34-.47,8.53,8.53,0,0,1,2.21.17,9.9,9.9,0,0,1,1.58.45v3.7l-2.32.11v-1.93a5.88,5.88,0,0,0-1.3-.09,4,4,0,0,0-1.17.23,3,3,0,0,0-1,.61,3.16,3.16,0,0,0-.74,1,3.29,3.29,0,0,0-.28,1.42,3.17,3.17,0,0,0,.23,1.23,2.78,2.78,0,0,0,.65,1,2.81,2.81,0,0,0,1,.62,3.69,3.69,0,0,0,1.38.18,5.06,5.06,0,0,0,2-.43,8.39,8.39,0,0,0,1.15-.64Z"/><path class="cls-4" d="M478.89,252.94l3.91-.21c0,2.92,0,4.38,0,7.31v0.88l1.6-.09c0,0.92,0,1.39,0,2.31l-3.32.18-0.48-1.53h-0.08a4,4,0,0,1-1.45,1.4,4.58,4.58,0,0,1-2.15.63,4.75,4.75,0,0,1-1.46-.14,2.47,2.47,0,0,1-1.13-.64,3,3,0,0,1-.72-1.27,7,7,0,0,1-.25-2v-4.22l-1.2.06c0-.92,0-1.39,0-2.31l3.94-.19c0,2.39,0,3.58,0,6a3.11,3.11,0,0,0,.41,1.83,1.42,1.42,0,0,0,1.29.5,2.39,2.39,0,0,0,1.4-.53,2.68,2.68,0,0,0,.87-1.18v-4.47l-1.18.06C478.89,254.33,478.89,253.87,478.89,252.94Z"/><path class="cls-4" d="M485.39,260.79l2.61-.14v-5.88l-2.61.14c0-.92,0-1.39,0-2.31l4.73-.27,0.32,1.37h0.08a6.05,6.05,0,0,1,1.35-1.23,3.48,3.48,0,0,1,1.77-.57,2.25,2.25,0,0,1,2,.81,4.86,4.86,0,0,1,.73,3l-2.46.15a2,2,0,0,0-.22-1.09,0.73,0.73,0,0,0-.7-0.31,2.19,2.19,0,0,0-1.36.5,4.62,4.62,0,0,0-.87,1v4.47l4.56-.27v2.31c-4,.24-5.94.35-9.91,0.57C485.39,262.17,485.39,261.71,485.39,260.79Z"/><path class="cls-4" d="M501.78,260.79a1.53,1.53,0,0,1,.47-1.16,1.83,1.83,0,0,1,1.19-.5,2,2,0,0,1,1.75.64,2.79,2.79,0,0,1,.59,1.83,4.13,4.13,0,0,1-.37,1.75,5,5,0,0,1-1,1.41,5.86,5.86,0,0,1-2.76,1.58l-0.57-1.12a6.56,6.56,0,0,0,1-.42,4.49,4.49,0,0,0,.94-0.64,3.56,3.56,0,0,0,.71-0.85,2.36,2.36,0,0,0,.33-1,2.7,2.7,0,0,1-1.07.1,1.51,1.51,0,0,1-.73-0.29,1.26,1.26,0,0,1-.41-0.56A2.09,2.09,0,0,1,501.78,260.79Z"/><path class="cls-4" d="M511.75,246.77l8.3-.59c0,0.92,0,1.39,0,2.31l-5.7.41c0,6,0,8.95,0,14.91l5.7-.41c0,0.92,0,1.39,0,2.31l-8.31.59C511.75,258.49,511.75,254.59,511.75,246.77Z"/><path class="cls-4" d="M533.9,255.27a4.9,4.9,0,0,1-.39,1.94,5.34,5.34,0,0,1-1.06,1.62,5.5,5.5,0,0,1-1.61,1.16,5.56,5.56,0,0,1-2,.53,5.77,5.77,0,0,1-2-.19,4.2,4.2,0,0,1-1.67-.91,4.46,4.46,0,0,1-1.14-1.66,6.28,6.28,0,0,1-.42-2.41,10,10,0,0,1,.73-3.83,11.57,11.57,0,0,1,1.86-3.09,10.89,10.89,0,0,1,2.54-2.21,9.25,9.25,0,0,1,2.8-1.19l0.61,2.11A8.83,8.83,0,0,0,530,248a8.45,8.45,0,0,0-1.72,1.28,7.75,7.75,0,0,0-1.27,1.59,5.65,5.65,0,0,0-.7,1.75,3.61,3.61,0,0,1,1.26-1,4.82,4.82,0,0,1,1.85-.51,4.88,4.88,0,0,1,1.77.17,3.66,3.66,0,0,1,1.42.77,3.7,3.7,0,0,1,.95,1.34A4.75,4.75,0,0,1,533.9,255.27Zm-2.65.31a2,2,0,0,0-.68-1.67,2.57,2.57,0,0,0-1.84-.45,3.23,3.23,0,0,0-1.51.49,3,3,0,0,0-1,1,3.8,3.8,0,0,0-.05.52c0,0.19,0,.34,0,0.45a2.69,2.69,0,0,0,.17,1,2.07,2.07,0,0,0,1.28,1.26,2.58,2.58,0,0,0,1.07.12,2.73,2.73,0,0,0,.95-0.25,3,3,0,0,0,.82-0.56,2.73,2.73,0,0,0,.58-0.81A2.36,2.36,0,0,0,531.26,255.59Z"/><path class="cls-4" d="M536.68,262.06l9.33-.78c0,0.9,0,1.35,0,2.25l-9.33.78C536.68,263.41,536.68,263,536.68,262.06Z"/><path class="cls-4" d="M559.11,253.1a4.94,4.94,0,0,1-.39,1.95,5.43,5.43,0,0,1-1.06,1.63,5.69,5.69,0,0,1-3.61,1.74,5.73,5.73,0,0,1-2-.16,4.13,4.13,0,0,1-1.67-.89,4.38,4.38,0,0,1-1.14-1.64,6.24,6.24,0,0,1-.42-2.4,10,10,0,0,1,.72-3.84,11.76,11.76,0,0,1,1.86-3.12,11.07,11.07,0,0,1,2.54-2.24,9.37,9.37,0,0,1,2.79-1.23l0.61,2.11a9,9,0,0,0-2.08.87,8.65,8.65,0,0,0-1.72,1.3,7.9,7.9,0,0,0-1.27,1.61,5.73,5.73,0,0,0-.7,1.76,3.67,3.67,0,0,1,1.26-1,5.11,5.11,0,0,1,3.61-.39,3.5,3.5,0,0,1,2.36,2.08A4.72,4.72,0,0,1,559.11,253.1Zm-2.65.35a2,2,0,0,0-.68-1.66,2.55,2.55,0,0,0-1.84-.42,3.26,3.26,0,0,0-1.51.51,3,3,0,0,0-1,1,3.82,3.82,0,0,0-.05.52c0,0.19,0,.34,0,0.45a2.69,2.69,0,0,0,.17,1,2,2,0,0,0,1.28,1.24,2.57,2.57,0,0,0,1.07.1,2.76,2.76,0,0,0,.95-0.26,3,3,0,0,0,.82-0.57,2.78,2.78,0,0,0,.58-0.82A2.38,2.38,0,0,0,556.47,253.44Z"/><path class="cls-4" d="M565.22,255a4.85,4.85,0,0,0,1.28-.29,3.58,3.58,0,0,0,1-.58,2.58,2.58,0,0,0,.67-0.84,2.38,2.38,0,0,0,.24-1.07,1.9,1.9,0,0,0-.91-1.73,4.42,4.42,0,0,0-2.74-.4l-0.53.06-0.58.09-0.65.08c0-3.07,0-4.61,0-7.69l7.6-.74c0,1,0,1.54,0,2.56l-5.25.51c0,1.13,0,1.7,0,2.83l0.34-.05,0.28,0,0.24,0a5.9,5.9,0,0,1,2,.11,3.92,3.92,0,0,1,1.57.76,3.61,3.61,0,0,1,1,1.38,4.65,4.65,0,0,1,.37,1.89,5.14,5.14,0,0,1-.46,2.22,5.2,5.2,0,0,1-1.26,1.69,6.38,6.38,0,0,1-1.85,1.14,7.94,7.94,0,0,1-2.25.54,5.52,5.52,0,0,1-1,0q-0.52,0-1-.13a8.42,8.42,0,0,1-.93-0.22c-0.29-.09-0.53-0.17-0.72-0.25l0.88-2.27a5.73,5.73,0,0,0,1.1.36A4.68,4.68,0,0,0,565.22,255Z"/><path class="cls-4" d="M583.81,255.2l-9.36,1c0-.81,0-1.22,0-2l0.63-.62,0.85-.87q0.47-.49,1-1.07t1-1.2q0.71-.87,1.25-1.58a12,12,0,0,0,.88-1.32,5.67,5.67,0,0,0,.51-1.19,4.13,4.13,0,0,0,.17-1.16,1.77,1.77,0,0,0-.19-0.8,1.92,1.92,0,0,0-.52-0.65,2.21,2.21,0,0,0-.81-0.4,2.81,2.81,0,0,0-1-.07,4.16,4.16,0,0,0-1.37.37,5.39,5.39,0,0,0-1.29.91l-1.09-1.82a10.58,10.58,0,0,1,2-1.26,7.17,7.17,0,0,1,2.49-.69,5.77,5.77,0,0,1,1.73.07,4,4,0,0,1,1.47.59,3.11,3.11,0,0,1,1,1.12,3.43,3.43,0,0,1,.38,1.66,6.3,6.3,0,0,1-.47,2.46,9,9,0,0,1-.63,1.25q-0.39.65-.93,1.42-0.42.59-.91,1.2t-1,1.16q-0.48.55-1,1t-0.85.82l6-.63v2.31Z"/><path class="cls-4" d="M587.06,257.31l9.31-1c0,0.9,0,1.35,0,2.25l-9.31,1C587.06,258.66,587.06,258.21,587.06,257.31Z"/><path class="cls-4" d="M599.27,249.91a3.83,3.83,0,0,1,.24-1.37,4.8,4.8,0,0,1,.63-1.16,6.24,6.24,0,0,1,.89-1,10,10,0,0,1,1-.8,5.48,5.48,0,0,1-1.74-1.24,2.85,2.85,0,0,1-.69-2,3.63,3.63,0,0,1,.36-1.57,4.43,4.43,0,0,1,1-1.35,5.52,5.52,0,0,1,1.52-1,6.46,6.46,0,0,1,1.91-.52,5.89,5.89,0,0,1,1.77,0,4.23,4.23,0,0,1,1.46.54,2.83,2.83,0,0,1,1,1,2.79,2.79,0,0,1,.36,1.42,4.07,4.07,0,0,1-.64,2.24,6.69,6.69,0,0,1-1.75,1.8,5.48,5.48,0,0,1,2,1.3,3.07,3.07,0,0,1,.74,2.18,3.88,3.88,0,0,1-.41,1.76,4.9,4.9,0,0,1-1.1,1.44,6,6,0,0,1-1.62,1,6.78,6.78,0,0,1-2,.54,6.26,6.26,0,0,1-1.95-.06,4.55,4.55,0,0,1-1.57-.61,3.07,3.07,0,0,1-1-1.1A3.11,3.11,0,0,1,599.27,249.91Zm7.46-1.22a1.37,1.37,0,0,0-.27-0.87,2.49,2.49,0,0,0-.68-0.59,5.49,5.49,0,0,0-.9-0.43l-1-.38a4.82,4.82,0,0,0-1.61,1.37,2.54,2.54,0,0,0-.57,1.44,1.53,1.53,0,0,0,.67,1.38,2.79,2.79,0,0,0,1.87.3,3.28,3.28,0,0,0,1.76-.7A1.88,1.88,0,0,0,606.73,248.69Zm-4.51-6.51a1.43,1.43,0,0,0,.22.83,2,2,0,0,0,.57.54,3.87,3.87,0,0,0,.79.38l0.88,0.32a4.81,4.81,0,0,0,.66-0.5,4.34,4.34,0,0,0,.58-0.62,3.64,3.64,0,0,0,.41-0.68,1.62,1.62,0,0,0,.16-0.68,1.38,1.38,0,0,0-.19-0.74,1.58,1.58,0,0,0-.49-0.5,1.9,1.9,0,0,0-.68-0.27,2.66,2.66,0,0,0-1.62.22,2.84,2.84,0,0,0-.67.46,2,2,0,0,0-.44.6A1.51,1.51,0,0,0,602.22,242.18Z"/><path class="cls-4" d="M611.38,244.71a13.14,13.14,0,0,1,.4-3.4,7.92,7.92,0,0,1,1.13-2.52,5.58,5.58,0,0,1,1.74-1.63,5.76,5.76,0,0,1,2.25-.75,4.31,4.31,0,0,1,4.08,1.35q1.43,1.68,1.43,5.59a13.21,13.21,0,0,1-.4,3.42,8.08,8.08,0,0,1-1.12,2.54,5.52,5.52,0,0,1-1.74,1.65,5.81,5.81,0,0,1-2.26.75,4.17,4.17,0,0,1-4.08-1.47Q611.38,248.45,611.38,244.71Zm2.72-.33c0,0.21,0,.41,0,0.6s0,0.38,0,.57l5.07-5.31a2,2,0,0,0-2.35-1.52,2.61,2.61,0,0,0-2,1.54A9.19,9.19,0,0,0,614.1,244.39Zm5.57-.69q0-.34,0-0.64c0-.2,0-0.4,0-0.59l-5.09,5.31a2.07,2.07,0,0,0,2.35,1.62,2.64,2.64,0,0,0,2.06-1.54A9.21,9.21,0,0,0,619.68,243.7Z"/><path class="cls-4" d="M623.95,243.16a13.18,13.18,0,0,1,.4-3.4,8,8,0,0,1,1.12-2.53,5.63,5.63,0,0,1,1.73-1.64,5.78,5.78,0,0,1,2.25-.76,4.28,4.28,0,0,1,4.08,1.33q1.43,1.67,1.43,5.58a13.26,13.26,0,0,1-.4,3.42,8.15,8.15,0,0,1-1.12,2.54,5.57,5.57,0,0,1-1.74,1.66,5.84,5.84,0,0,1-2.26.77,4.14,4.14,0,0,1-4.08-1.44Q623.95,246.9,623.95,243.16Zm2.72-.35c0,0.21,0,.41,0,0.6s0,0.38,0,.57l5.07-5.34a2,2,0,0,0-2.35-1.5,2.63,2.63,0,0,0-2,1.55A9.23,9.23,0,0,0,626.67,242.82Zm5.57-.72q0-.34,0-0.64c0-.2,0-0.4,0-0.59l-5.09,5.34a2.05,2.05,0,0,0,2.35,1.61,2.66,2.66,0,0,0,2.06-1.55A9.24,9.24,0,0,0,632.24,242.09Z"/><path class="cls-4" d="M640.27,247.05a1.65,1.65,0,0,1,.47-1.2,2,2,0,0,1,1.18-.58,1.82,1.82,0,0,1,1.74.52,2.63,2.63,0,0,1,.59,1.79,4.33,4.33,0,0,1-.37,1.77,5.51,5.51,0,0,1-1,1.47,6.3,6.3,0,0,1-1.31,1.1,6.11,6.11,0,0,1-1.43.68l-0.57-1.08a7,7,0,0,0,1-.49,4.93,4.93,0,0,0,.93-0.7,3.93,3.93,0,0,0,.7-0.9,2.51,2.51,0,0,0,.32-1.05,2.74,2.74,0,0,1-1.07.18,1.4,1.4,0,0,1-.72-0.24,1.14,1.14,0,0,1-.41-0.53A2,2,0,0,1,640.27,247.05Z"/><path class="cls-4" d="M653.45,244.55a4.65,4.65,0,0,0,1.26-.36,3.58,3.58,0,0,0,1-.64,3,3,0,0,0,.64-0.84,2.14,2.14,0,0,0,.23-1,1.8,1.8,0,0,0-.26-1,1.53,1.53,0,0,0-.72-0.58,3.14,3.14,0,0,0-1.11-.2,8.88,8.88,0,0,0-1.4.09l-1.17.17v-1.51l3.51-4.81-5.29.75v-2.31l8.53-1.22V233L655,237.78l0.48-.07a3.94,3.94,0,0,1,1.42,0,2.94,2.94,0,0,1,1.22.58,3,3,0,0,1,.86,1.14,4.06,4.06,0,0,1,.32,1.7,4.75,4.75,0,0,1-.49,2.17,5.88,5.88,0,0,1-1.3,1.71,6.61,6.61,0,0,1-1.85,1.19,8.32,8.32,0,0,1-2.15.61,10.52,10.52,0,0,1-1.88.1,8.25,8.25,0,0,1-1.82-.27l0.73-2.37a2.58,2.58,0,0,0,.51.14l0.73,0.11a7.64,7.64,0,0,0,.84,0A5.78,5.78,0,0,0,653.45,244.55Z"/><path class="cls-4" d="M671.4,248.76L663.15,250v-2.31l5.66-.84V231.93l-5.66.84v-2.31l8.25-1.23C671.4,237,671.4,240.95,671.4,248.76Z"/><path class="cls-4" d="M683.92,246.82l-8.25,1.29v-2.31l5.66-.88c0-6,0-8.94,0-14.91l-5.66.88v-2.31l8.25-1.29C683.92,235.1,683.92,239,683.92,246.82Z"/><path class="cls-4" d="M62.33,341.07L65,341.5v-6.16l-2.71-.43v-2.42l4.92,0.77,0.33,1.5h0.09a4.6,4.6,0,0,1,1.4-1,3.17,3.17,0,0,1,1.84-.2A3,3,0,0,1,73,334.88a5.92,5.92,0,0,1,.75,3.35l-2.56-.39a2.44,2.44,0,0,0-.23-1.19,1,1,0,0,0-.73-0.48,2,2,0,0,0-1.41.22,3.54,3.54,0,0,0-.91.87c0,1.87,0,2.81,0,4.69l4.75,0.73v2.42c-4.12-.63-6.18-1-10.3-1.6v-2.42Z"/><path class="cls-4" d="M86.29,346a3.18,3.18,0,0,1-.73.41,6.14,6.14,0,0,1-1.05.32,7.44,7.44,0,0,1-1.32.16,8.4,8.4,0,0,1-1.53-.09,8.14,8.14,0,0,1-2.51-.77,6.09,6.09,0,0,1-3-3.44,7.33,7.33,0,0,1-.4-2.49,6,6,0,0,1,.46-2.47A4.12,4.12,0,0,1,77.41,336a4.4,4.4,0,0,1,1.87-.81,7,7,0,0,1,2.32,0,7.81,7.81,0,0,1,1.72.47,5.61,5.61,0,0,1,1.63,1,5,5,0,0,1,1.21,1.62,5.36,5.36,0,0,1,.47,2.36,10.07,10.07,0,0,1-.22,2l-7.88-1.17a2.82,2.82,0,0,0,.3,1.23,2.91,2.91,0,0,0,.72.9,3.7,3.7,0,0,0,1,.6,5.59,5.59,0,0,0,1.24.33,6.13,6.13,0,0,0,2.16,0,3.82,3.82,0,0,0,1.37-.55Zm-4.73-8.55a3.48,3.48,0,0,0-1.07,0,2.54,2.54,0,0,0-.91.32,2,2,0,0,0-.67.65,2.05,2.05,0,0,0-.31,1l5.38,0.8a2.77,2.77,0,0,0-.6-1.83A2.8,2.8,0,0,0,81.56,337.42Z"/><path class="cls-4" d="M99.69,348a5.4,5.4,0,0,1-2.1.73,8.93,8.93,0,0,1-2.52,0,7.81,7.81,0,0,1-2.53-.78,6.27,6.27,0,0,1-1.86-1.44,6,6,0,0,1-1.15-2,7.38,7.38,0,0,1-.39-2.43,5.75,5.75,0,0,1,.46-2.4A4.22,4.22,0,0,1,90.88,338a4.65,4.65,0,0,1,1.94-.86,7.17,7.17,0,0,1,2.43,0,9.66,9.66,0,0,1,2.3.61,12.32,12.32,0,0,1,1.64.78v3.87L96.78,342v-2a6.64,6.64,0,0,0-1.36-.35,3.93,3.93,0,0,0-1.22,0A2.46,2.46,0,0,0,92.37,341a3.11,3.11,0,0,0-.3,1.43,3.69,3.69,0,0,0,.24,1.33,3.69,3.69,0,0,0,1.76,2,4.31,4.31,0,0,0,1.43.46,4.88,4.88,0,0,0,2-.06,6.88,6.88,0,0,0,1.19-.45Z"/><path class="cls-4" d="M108.11,339.21l4.08,0.55v8.58l1.67,0.22V351l-3.46-.46-0.5-1.7H109.8a3.19,3.19,0,0,1-1.51,1.18,4.28,4.28,0,0,1-2.24.25,5.41,5.41,0,0,1-1.52-.43,3.31,3.31,0,0,1-1.17-.89,4,4,0,0,1-.75-1.47,7.88,7.88,0,0,1-.26-2.19v-4.42l-1.25-.17v-2.42l4.1,0.56v6.25a3.69,3.69,0,0,0,.43,2,1.8,1.8,0,0,0,1.35.78,2.2,2.2,0,0,0,2.37-1.35v-4.69l-1.23-.17v-2.42Z"/><path class="cls-4" d="M114.88,348.69L117.6,349v-6.16l-2.72-.36v-2.42l4.93,0.64,0.33,1.49h0.09a4.81,4.81,0,0,1,1.4-1,3.23,3.23,0,0,1,1.84-.25,2.89,2.89,0,0,1,2.07,1.23,5.81,5.81,0,0,1,.76,3.33l-2.57-.32a2.4,2.4,0,0,0-.23-1.18,0.94,0.94,0,0,0-.74-0.46,2,2,0,0,0-1.41.26,3.67,3.67,0,0,0-.91.89v4.69l4.76,0.61v2.42c-4.13-.52-6.2-0.79-10.33-1.33v-2.42Z"/><path class="cls-4" d="M137.17,358.58a11.45,11.45,0,0,1-3-1.33,10.43,10.43,0,0,1-2.57-2.27,10.92,10.92,0,0,1-1.79-3.21,12.18,12.18,0,0,1-.67-4.18,10.83,10.83,0,0,1,.67-4,8.13,8.13,0,0,1,1.79-2.8,7.51,7.51,0,0,1,2.57-1.69,9.89,9.89,0,0,1,3-.67l0.53,2.42a8.24,8.24,0,0,0-1.74.42,5.41,5.41,0,0,0-1.85,1.12,6.23,6.23,0,0,0-1.48,2.12,8.42,8.42,0,0,0-.6,3.45,8.71,8.71,0,0,0,.64,3.49,8.92,8.92,0,0,0,1.55,2.47,8.16,8.16,0,0,0,1.88,1.57,8.47,8.47,0,0,0,1.62.78Z"/><path class="cls-4" d="M142.68,352.15l3.36,0.39v-9.61l-2.9,1.89-1.32-1.92,5-3.24,1.93,0.22v13l3.3,0.37v2.42l-9.38-1.08v-2.42Z"/><path class="cls-4" d="M155.86,353.65l3.36,0.37v-9.61l-2.9,1.9L155,344.4l5-3.28,1.93,0.21v13l3.3,0.35v2.42l-9.38-1v-2.42Z"/><path class="cls-4" d="M171.5,356.33a1.36,1.36,0,0,1,.49-1.14,1.66,1.66,0,0,1,1.24-.31,2.43,2.43,0,0,1,1.82,1,3.36,3.36,0,0,1,.62,2,3.91,3.91,0,0,1-.38,1.76,4.14,4.14,0,0,1-1,1.31,4.72,4.72,0,0,1-1.37.83,5.2,5.2,0,0,1-1.51.35l-0.59-1.27a5.93,5.93,0,0,0,1.07-.26,3.79,3.79,0,0,0,1-.51,2.92,2.92,0,0,0,.74-0.77,2.14,2.14,0,0,0,.34-1,2.8,2.8,0,0,1-1.12-.08,1.92,1.92,0,0,1-.76-0.43,1.67,1.67,0,0,1-.43-0.66A2.39,2.39,0,0,1,171.5,356.33Z"/><path class="cls-4" d="M182.23,356.4l3.36,0.32c0-3.85,0-5.77,0-9.61l-2.9,1.94-1.32-1.89,5-3.34,1.94,0.18c0,5.19,0,7.79,0,13l3.3,0.31v2.42l-9.39-.89V356.4Z"/><path class="cls-4" d="M193.93,352.2a12.74,12.74,0,0,1,.42-3.47,6.51,6.51,0,0,1,1.18-2.39,4.31,4.31,0,0,1,1.82-1.32,5.3,5.3,0,0,1,2.36-.28,5.63,5.63,0,0,1,4.29,2.32q1.5,2.08,1.5,6.17a12.84,12.84,0,0,1-.42,3.49,6.67,6.67,0,0,1-1.18,2.41,4.28,4.28,0,0,1-1.83,1.34,5.36,5.36,0,0,1-2.37.28,5.48,5.48,0,0,1-4.28-2.44A10.82,10.82,0,0,1,193.93,352.2Zm2.86,0.26q0,0.33,0,.63c0,0.2,0,.4,0,0.61l5.32-4.43a2.75,2.75,0,0,0-2.47-2.11,2.12,2.12,0,0,0-2.15,1.16A8.57,8.57,0,0,0,196.79,352.46Zm5.85,0.52c0-.23,0-0.46,0-0.67s0-.42,0-0.63l-5.35,4.43a2.81,2.81,0,0,0,2.47,2.22,2.15,2.15,0,0,0,2.16-1.15A8.59,8.59,0,0,0,202.65,353Z"/><path class="cls-4" d="M208.94,363.5a7,7,0,0,0,1.63-.45,6.16,6.16,0,0,0,1.88-1.19,6.73,6.73,0,0,0,1.55-2.15,7.78,7.78,0,0,0,.64-3.36,9.32,9.32,0,0,0-.6-3.57,8.22,8.22,0,0,0-1.49-2.42,7.21,7.21,0,0,0-1.86-1.5,10,10,0,0,0-1.75-.77l0.53-2.31a11.88,11.88,0,0,1,3,1.28,10.07,10.07,0,0,1,2.58,2.21,10.62,10.62,0,0,1,1.79,3.17,11.92,11.92,0,0,1,.67,4.13,11,11,0,0,1-.67,4,8.37,8.37,0,0,1-1.79,2.85,7.8,7.8,0,0,1-2.58,1.75,9.55,9.55,0,0,1-3,.72Z"/><path class="cls-4" d="M313.64,367.3v-2.42l2.6,0.08V358.8l-2.63-.08V356.3l2.63,0.08v-0.62a4,4,0,0,1,.36-1.77,3.42,3.42,0,0,1,1-1.2,3.79,3.79,0,0,1,1.38-.67,5.64,5.64,0,0,1,1.62-.18,10.47,10.47,0,0,1,2.5.32,6.62,6.62,0,0,1,1.62.67l-0.84,2.16a10.16,10.16,0,0,0-1.09-.47,4.88,4.88,0,0,0-1.51-.24,2.09,2.09,0,0,0-1.67.49,2.33,2.33,0,0,0-.48,1.6l4.63,0.13V359l-4.63-.13c0,2.46,0,3.7,0,6.16l4.66,0.13v2.42C319.72,367.48,317.69,367.43,313.64,367.3Z"/><path class="cls-4" d="M327.3,357.43a11.87,11.87,0,0,1,2-.63,11.57,11.57,0,0,1,2.75-.22,6.17,6.17,0,0,1,2,.32,3.36,3.36,0,0,1,1.3.81,3.05,3.05,0,0,1,.72,1.23,5.34,5.34,0,0,1,.22,1.59q0,1.12-.08,1.91t-0.08,1.41a9.43,9.43,0,0,0,0,1c0,0.2.05,0.4,0.07,0.59l1.43,0c0,1,0,1.45,0,2.42l-3.7-.08-0.29-1.5h-0.11a3.67,3.67,0,0,1-1.25,1.15,4.12,4.12,0,0,1-2.19.44,3.8,3.8,0,0,1-2.61-.94,3.08,3.08,0,0,1-1-2.36,3.44,3.44,0,0,1,.34-1.59,2.75,2.75,0,0,1,1-1.08,4.59,4.59,0,0,1,1.56-.6,9.08,9.08,0,0,1,2-.16q0.4,0,.83.06l1.07,0.11a2.22,2.22,0,0,0,0-.44v-0.42a1.44,1.44,0,0,0-.48-1.21,2.39,2.39,0,0,0-1.42-.4,6.59,6.59,0,0,0-2,.24,12.69,12.69,0,0,0-1.51.54Zm3.75,8.17a2.6,2.6,0,0,0,1.57-.35,2.5,2.5,0,0,0,.76-0.81v-1.32l-0.65-.11a7.6,7.6,0,0,0-.94-0.08,4.52,4.52,0,0,0-.83.06,2.7,2.7,0,0,0-.74.22,1.4,1.4,0,0,0-.52.42,1,1,0,0,0-.2.63,1.28,1.28,0,0,0,.36,1A1.73,1.73,0,0,0,331.05,365.6Z"/><path class="cls-4" d="M350.6,367.08a6.21,6.21,0,0,1-2.12,1,9.24,9.24,0,0,1-2.54.3,7.26,7.26,0,0,1-2.55-.46,5.31,5.31,0,0,1-1.88-1.21,5.12,5.12,0,0,1-1.16-1.86,6.9,6.9,0,0,1-.4-2.38,6.11,6.11,0,0,1,.46-2.46,5.06,5.06,0,0,1,1.29-1.8,5.46,5.46,0,0,1,2-1.1,7.49,7.49,0,0,1,2.45-.34,9.11,9.11,0,0,1,2.32.32,10.9,10.9,0,0,1,1.65.57v3.87l-2.43,0v-2a6.27,6.27,0,0,0-1.37-.18,4.11,4.11,0,0,0-1.22.17A2.94,2.94,0,0,0,344,360a3,3,0,0,0-.77,1,3.32,3.32,0,0,0-.3,1.47,3.43,3.43,0,0,0,.24,1.3,3.15,3.15,0,0,0,.68,1,3.19,3.19,0,0,0,1.09.71,4,4,0,0,0,1.44.28,5.13,5.13,0,0,0,2.06-.32,8.08,8.08,0,0,0,1.2-.6Z"/><path class="cls-4" d="M354.35,359.6l-2.18,0v-2.42l2.18,0v-2.51l2.87-.78v3.32l5.78,0.05v2.42l-5.78-.05c0,1.26,0,1.89,0,3.15a3.81,3.81,0,0,0,.64,2.46,2.23,2.23,0,0,0,1.79.78,3.8,3.8,0,0,0,1.08-.13,4,4,0,0,0,.87-0.36,5,5,0,0,0,.71-0.48l0.58-.48,1.32,2a4.2,4.2,0,0,1-.94.8,7.82,7.82,0,0,1-2.57,1,6.48,6.48,0,0,1-1.39.14,4.81,4.81,0,0,1-3.72-1.41,6.44,6.44,0,0,1-1.25-4.38V359.6Z"/><path class="cls-4" d="M365.8,362.78a6.73,6.73,0,0,1,.42-2.46,5,5,0,0,1,1.19-1.82,5.07,5.07,0,0,1,1.84-1.12,7,7,0,0,1,2.39-.38,7,7,0,0,1,2.48.42A5.15,5.15,0,0,1,376,358.6a5,5,0,0,1,1.14,1.84,7,7,0,0,1,.39,2.38,6.77,6.77,0,0,1-.42,2.46,4.95,4.95,0,0,1-3,3,7,7,0,0,1-2.4.38,6.9,6.9,0,0,1-2.48-.43,5.15,5.15,0,0,1-1.84-1.19,5,5,0,0,1-1.14-1.84A7,7,0,0,1,365.8,362.78Zm3,0a4.36,4.36,0,0,0,.2,1.34,3.29,3.29,0,0,0,.57,1.08,2.6,2.6,0,0,0,.9.72,3.06,3.06,0,0,0,3.3-.55,3.54,3.54,0,0,0,.81-2.57,3.81,3.81,0,0,0-.75-2.45,2.6,2.6,0,0,0-2.14-.94,3.44,3.44,0,0,0-1.15.18,2.25,2.25,0,0,0-.92.6,2.94,2.94,0,0,0-.61,1.05A4.73,4.73,0,0,0,368.76,362.8Z"/><path class="cls-4" d="M379.13,365.89h2.74v-6.16h-2.74c0-1,0-1.45,0-2.42h5l0.33,1.45h0.09a5.87,5.87,0,0,1,1.41-1.22,3.51,3.51,0,0,1,1.85-.49,2.5,2.5,0,0,1,2.08,1,5.28,5.28,0,0,1,.76,3.23H388a2.2,2.2,0,0,0-.23-1.15,0.81,0.81,0,0,0-.74-0.36,2.19,2.19,0,0,0-1.42.45,4.45,4.45,0,0,0-.92,1v4.69l4.79,0v2.42c-4.16,0-6.24,0-10.39,0v-2.42Z"/><path class="cls-4" d="M392.81,365.84l3.88,0c0-2.46,0-3.7,0-6.16l-3.88,0v-2.42l6.75-.06c0,3.43,0,5.15,0,8.58l4.08,0v2.42c-4.33.06-6.5,0.08-10.83,0.11v-2.42Zm3.35-11.6a1.57,1.57,0,0,1,.51-1.17,2,2,0,0,1,1.41-.5,2.15,2.15,0,0,1,1.48.47,1.48,1.48,0,0,1,.55,1.16,1.44,1.44,0,0,1-.55,1.16,2.29,2.29,0,0,1-1.48.47,2,2,0,0,1-1.41-.44A1.46,1.46,0,0,1,396.17,354.24Z"/><path class="cls-4" d="M406.74,357.85a12.29,12.29,0,0,1,2-.71,11.71,11.71,0,0,1,2.75-.33,6.06,6.06,0,0,1,2,.24,3.2,3.2,0,0,1,1.3.76,2.9,2.9,0,0,1,.72,1.2,5.26,5.26,0,0,1,.22,1.58q0,1.12-.08,1.92t-0.08,1.41a9.46,9.46,0,0,0,0,1c0,0.2.05,0.4,0.07,0.59l1.44,0v2.42l-3.7.07-0.29-1.49H413a3.89,3.89,0,0,1-1.25,1.2,4.23,4.23,0,0,1-2.19.53,3.67,3.67,0,0,1-2.61-.84,3,3,0,0,1-1-2.32,3.52,3.52,0,0,1,.34-1.6,2.91,2.91,0,0,1,1-1.11,4.8,4.8,0,0,1,1.56-.66,9.2,9.2,0,0,1,2-.24c0.26,0,.54,0,0.83,0l1.07,0.07a2.23,2.23,0,0,0,0-.44V360.7a1.38,1.38,0,0,0-.48-1.19,2.32,2.32,0,0,0-1.42-.34,6.7,6.7,0,0,0-2,.32,13.12,13.12,0,0,0-1.51.6Zm3.76,8a2.43,2.43,0,0,0,2.33-1.25V363.3l-0.65-.09a7.51,7.51,0,0,0-.94,0,4.59,4.59,0,0,0-.83.09,2.79,2.79,0,0,0-.74.25,1.48,1.48,0,0,0-.52.44,1,1,0,0,0-.2.64,1.24,1.24,0,0,0,.36,1A1.67,1.67,0,0,0,410.49,365.87Z"/><path class="cls-4" d="M419.91,352.47l4.7-.1c0,4.07,0,6.1,0,10.17a4.65,4.65,0,0,0,.42,2.34,1.44,1.44,0,0,0,1.35.63,3.74,3.74,0,0,0,1.13-.17,4.39,4.39,0,0,0,.88-0.43l1.08,2q-0.38.25-.75,0.47a4.93,4.93,0,0,1-.79.37,5.5,5.5,0,0,1-.92.24,7.42,7.42,0,0,1-1.11.1,4.09,4.09,0,0,1-3.11-1,4,4,0,0,1-1-3c0-3.7,0-5.54,0-9.24l-1.83,0v-2.42Z"/><path class="cls-4" d="M433,370.13l9.8-.29c0,0.94,0,1.41,0,2.35l-9.8.29v-2.35Z"/><path class="cls-4" d="M444.47,351.81l4.46-.15c0,2.25,0,3.38,0,5.63H449a3.91,3.91,0,0,1,1.41-1.17,4.92,4.92,0,0,1,2.07-.49,5.11,5.11,0,0,1,1.54.16,2.78,2.78,0,0,1,1.21.68,3.25,3.25,0,0,1,.79,1.34,6.83,6.83,0,0,1,.29,2.13v6.84l-2.87.11v-6.25a2.64,2.64,0,0,0-.57-1.91,1.92,1.92,0,0,0-1.5-.54,2.58,2.58,0,0,0-1.5.55,2.83,2.83,0,0,0-1,1.3v7l-2.87.1c0-5.19,0-7.79,0-13l-1.59.05C444.47,353.26,444.47,352.78,444.47,351.81Z"/><path class="cls-4" d="M469.48,365.06a4.14,4.14,0,0,1-.74.55,7.52,7.52,0,0,1-1.06.52,8.48,8.48,0,0,1-1.33.41,8.78,8.78,0,0,1-1.54.2,7.37,7.37,0,0,1-2.52-.29,4.66,4.66,0,0,1-3.07-2.85,7.32,7.32,0,0,1,.05-5,5.39,5.39,0,0,1,1.27-1.87,5.61,5.61,0,0,1,1.89-1.17,7.5,7.5,0,0,1,2.34-.46,7.15,7.15,0,0,1,1.73.14,4.5,4.5,0,0,1,1.64.69,3.81,3.81,0,0,1,1.22,1.39,4.76,4.76,0,0,1,.47,2.27,10.62,10.62,0,0,1-.22,2.06l-7.94.35a2.45,2.45,0,0,0,.3,1.18,2.22,2.22,0,0,0,.73.76,3,3,0,0,0,1,.41,5.14,5.14,0,0,0,1.25.09,6.56,6.56,0,0,0,2.17-.4,4.83,4.83,0,0,0,1.38-.81Zm-4.76-7.64a3.72,3.72,0,0,0-1.08.2,3.17,3.17,0,0,0-.92.5,2.68,2.68,0,0,0-.67.78,2.4,2.4,0,0,0-.31,1l5.43-.23A2.07,2.07,0,0,0,464.71,357.42Z"/><path class="cls-4" d="M472.85,350.67l4.7-.23c0,4.07,0,6.1,0,10.17a4.58,4.58,0,0,0,.42,2.33,1.4,1.4,0,0,0,1.35.59,3.78,3.78,0,0,0,1.12-.2,4.51,4.51,0,0,0,.88-0.45l1.08,1.92q-0.38.26-.75,0.49a5.09,5.09,0,0,1-.79.39,5.6,5.6,0,0,1-.92.27,7.43,7.43,0,0,1-1.11.13,4,4,0,0,1-3.11-.9,3.91,3.91,0,0,1-1-2.94V353l-1.83.09C472.85,352.12,472.85,351.63,472.85,350.67Z"/><path class="cls-4" d="M484.16,354.5l3.75-.2,0.33,1.3h0.09a4.48,4.48,0,0,1,3.7-1.83,5.16,5.16,0,0,1,1.86.21,3.37,3.37,0,0,1,1.45.92,4.37,4.37,0,0,1,.94,1.66,8,8,0,0,1,.33,2.47,8.28,8.28,0,0,1-.37,2.56,5.81,5.81,0,0,1-1.08,2,5,5,0,0,1-1.72,1.31,6.23,6.23,0,0,1-2.31.55,8.86,8.86,0,0,1-1.34,0,3.57,3.57,0,0,1-1.1-.26v4.51l-2.86.16c0-5.19,0-7.79,0-13l-1.65.09C484.16,356,484.16,355.47,484.16,354.5Zm7,1.73a3.06,3.06,0,0,0-1.53.5,2.34,2.34,0,0,0-1,1.31v4.58a2.24,2.24,0,0,0,.89.34,4.84,4.84,0,0,0,1.18.08,3.19,3.19,0,0,0,1.15-.27,2.53,2.53,0,0,0,.93-0.72,3.49,3.49,0,0,0,.62-1.2,5.84,5.84,0,0,0,.22-1.71,3.11,3.11,0,0,0-.71-2.2A2.16,2.16,0,0,0,491.17,356.23Z"/><path class="cls-4" d="M509.15,362.86a4.24,4.24,0,0,1-.74.56,7.67,7.67,0,0,1-1.06.54,8.58,8.58,0,0,1-1.33.44,8.8,8.8,0,0,1-1.54.23,7.3,7.3,0,0,1-2.52-.24,4.53,4.53,0,0,1-3.06-2.79,6.57,6.57,0,0,1-.41-2.41,6.67,6.67,0,0,1,.46-2.57,5.53,5.53,0,0,1,1.27-1.89,5.76,5.76,0,0,1,1.88-1.2,7.59,7.59,0,0,1,2.34-.51,7.11,7.11,0,0,1,1.73.11,4.41,4.41,0,0,1,1.64.65,3.71,3.71,0,0,1,1.22,1.36,4.7,4.7,0,0,1,.47,2.26,10.7,10.7,0,0,1-.22,2.06l-7.93.5a2.42,2.42,0,0,0,.3,1.17,2.15,2.15,0,0,0,.73.75,2.92,2.92,0,0,0,1,.39,5.12,5.12,0,0,0,1.25.06,6.63,6.63,0,0,0,2.17-.45,5,5,0,0,0,1.38-.84Zm-4.76-7.55a3.75,3.75,0,0,0-1.08.22,3.25,3.25,0,0,0-.91.52,2.76,2.76,0,0,0-.67.79,2.43,2.43,0,0,0-.31,1l5.42-.34A2,2,0,0,0,504.39,355.31Z"/><path class="cls-4" d="M511.46,361.45l2.73-.18v-6.16l-2.73.18c0-1,0-1.45,0-2.42l5-.34,0.33,1.43h0.09a6.47,6.47,0,0,1,1.41-1.31,3.69,3.69,0,0,1,1.85-.61,2.33,2.33,0,0,1,2.08.82,5.05,5.05,0,0,1,.76,3.18l-2.58.18a2.12,2.12,0,0,0-.23-1.14,0.75,0.75,0,0,0-.74-0.31,2.32,2.32,0,0,0-1.42.54,4.9,4.9,0,0,0-.91,1.08v4.69l4.78-.34v2.42c-4.15.3-6.22,0.44-10.37,0.72v-2.42Z"/><path class="cls-4" d="M533.84,366.92a9.62,9.62,0,0,1-3-.74,7.86,7.86,0,0,1-2.58-1.76,8.45,8.45,0,0,1-1.79-2.86,11,11,0,0,1-.67-4,11.86,11.86,0,0,1,.67-4.13,10.53,10.53,0,0,1,1.79-3.16,10,10,0,0,1,2.58-2.2,11.8,11.8,0,0,1,3-1.26l0.53,2.31a9.91,9.91,0,0,0-1.75.76,7.14,7.14,0,0,0-1.86,1.48,8.14,8.14,0,0,0-1.49,2.41,9.27,9.27,0,0,0-.61,3.57,7.8,7.8,0,0,0,.64,3.36,6.77,6.77,0,0,0,1.55,2.16,6.18,6.18,0,0,0,1.88,1.2,7,7,0,0,0,1.63.46Z"/><path class="cls-4" d="M539.37,359.4l3.37-.27v-9.61L539.83,352l-1.32-1.65,5-4.24,1.94-.16c0,5.19,0,7.79,0,13l3.3-.28V361l-9.4.78V359.4Z"/><path class="cls-4" d="M552,363.34l9.77-.87v2.35l-9.77.87C552,364.75,552,364.28,552,363.34Z"/><path class="cls-4" d="M575.45,353.82a5.2,5.2,0,0,1-.41,2,5.78,5.78,0,0,1-1.11,1.72,6,6,0,0,1-3.78,1.84,6,6,0,0,1-2.14-.16,4.3,4.3,0,0,1-1.75-.92,4.56,4.56,0,0,1-1.19-1.71,6.51,6.51,0,0,1-.44-2.51,10.54,10.54,0,0,1,.76-4,12.39,12.39,0,0,1,1.95-3.27,11.67,11.67,0,0,1,2.66-2.36,9.82,9.82,0,0,1,2.93-1.31l0.64,2.2a9.47,9.47,0,0,0-2.18.93,9.17,9.17,0,0,0-1.8,1.37,8.35,8.35,0,0,0-1.33,1.69,6.07,6.07,0,0,0-.74,1.85,3.87,3.87,0,0,1,1.32-1.06,5.37,5.37,0,0,1,3.78-.43,3.65,3.65,0,0,1,2.47,2.17A5,5,0,0,1,575.45,353.82Zm-2.77.38a2,2,0,0,0-.71-1.73A2.65,2.65,0,0,0,570,352a3.44,3.44,0,0,0-1.58.55,3.22,3.22,0,0,0-1,1,3.85,3.85,0,0,0-.06.54c0,0.2,0,.36,0,0.47a2.8,2.8,0,0,0,.18,1,2.11,2.11,0,0,0,1.34,1.29,2.69,2.69,0,0,0,1.12.1,2.88,2.88,0,0,0,1-.28,3.22,3.22,0,0,0,.86-0.6,2.91,2.91,0,0,0,.6-0.86A2.49,2.49,0,0,0,572.68,354.2Z"/><path class="cls-4" d="M588.64,352.47a5.22,5.22,0,0,1-.41,2,5.82,5.82,0,0,1-1.11,1.72,6,6,0,0,1-3.78,1.86,6,6,0,0,1-2.14-.14,4.26,4.26,0,0,1-1.75-.91,4.51,4.51,0,0,1-1.19-1.71,6.49,6.49,0,0,1-.44-2.51,10.58,10.58,0,0,1,.76-4,12.5,12.5,0,0,1,1.94-3.29,11.79,11.79,0,0,1,2.66-2.38,9.89,9.89,0,0,1,2.92-1.33l0.64,2.2a9.51,9.51,0,0,0-2.18.94,9.26,9.26,0,0,0-1.8,1.38,8.43,8.43,0,0,0-1.33,1.7,6.11,6.11,0,0,0-.74,1.86,3.91,3.91,0,0,1,1.32-1.07,5.15,5.15,0,0,1,1.93-.58,5.07,5.07,0,0,1,1.85.13,3.7,3.7,0,0,1,1.48.77,3.74,3.74,0,0,1,1,1.38A4.94,4.94,0,0,1,588.64,352.47Zm-2.77.4a2,2,0,0,0-.71-1.73,2.64,2.64,0,0,0-1.92-.42,3.45,3.45,0,0,0-1.58.56,3.25,3.25,0,0,0-1,1,3.9,3.9,0,0,0-.06.54c0,0.2,0,.36,0,0.47a2.79,2.79,0,0,0,.18,1,2.09,2.09,0,0,0,1.34,1.28,2.69,2.69,0,0,0,1.12.09,2.9,2.9,0,0,0,1-.29,3.26,3.26,0,0,0,.86-0.61,2.93,2.93,0,0,0,.6-0.87A2.5,2.5,0,0,0,585.87,352.87Z"/><path class="cls-4" d="M595.28,354.43a4.78,4.78,0,0,0,1.33-.33,3.6,3.6,0,0,0,1-.64,3,3,0,0,0,.67-0.86,2.18,2.18,0,0,0,.24-1,1.92,1.92,0,0,0-.28-1.08,1.69,1.69,0,0,0-.76-0.63,3.37,3.37,0,0,0-1.16-.24,9.25,9.25,0,0,0-1.47.05l-1.23.13c0-.63,0-0.95,0-1.58l3.69-4.92-5.56.6v-2.42l9-1c0,0.8,0,1.2,0,2l-3.87,4.85,0.51-.06a4.19,4.19,0,0,1,1.49.1,3.22,3.22,0,0,1,1.28.65,3.34,3.34,0,0,1,.9,1.22,4.31,4.31,0,0,1,.34,1.79,4.86,4.86,0,0,1-.52,2.26,5.9,5.9,0,0,1-1.36,1.75,6.69,6.69,0,0,1-1.94,1.18,8.57,8.57,0,0,1-2.26.57,11.11,11.11,0,0,1-2,0,8.77,8.77,0,0,1-1.91-.35l0.77-2.46a2.78,2.78,0,0,0,.54.16l0.77,0.14a8.08,8.08,0,0,0,.88.08A6.09,6.09,0,0,0,595.28,354.43Z"/><path class="cls-4" d="M604.72,358.06l9.75-1.13c0,0.94,0,1.41,0,2.35l-9.75,1.13v-2.35Z"/><path class="cls-4" d="M627.66,352.76l-9.79,1.2c0-.85,0-1.28,0-2.13l0.66-.66,0.89-.93q0.49-.52,1-1.14t1.08-1.28q0.75-.93,1.31-1.68a12.7,12.7,0,0,0,.92-1.4,6,6,0,0,0,.54-1.25,4.36,4.36,0,0,0,.18-1.22,1.84,1.84,0,0,0-.2-0.83,2,2,0,0,0-.55-0.67,2.27,2.27,0,0,0-.85-0.4,2.94,2.94,0,0,0-1.09-.05,4.41,4.41,0,0,0-1.44.42,5.82,5.82,0,0,0-1.35,1l-1.14-1.89a11.35,11.35,0,0,1,2.05-1.36,7.59,7.59,0,0,1,2.6-.77,6,6,0,0,1,1.81,0,4.16,4.16,0,0,1,1.54.59,3.17,3.17,0,0,1,1.06,1.15,3.57,3.57,0,0,1,.39,1.73,6.89,6.89,0,0,1-.12,1.32,7,7,0,0,1-.37,1.26,9.54,9.54,0,0,1-.66,1.32q-0.41.69-1,1.51-0.44.63-1,1.27t-1,1.24q-0.5.59-1,1.11t-0.89.88l6.32-.78v2.42Z"/><path class="cls-4" d="M630.18,344.72a13.77,13.77,0,0,1,.42-3.56,8.35,8.35,0,0,1,1.18-2.65,5.91,5.91,0,0,1,1.82-1.72A6.06,6.06,0,0,1,636,336a4.49,4.49,0,0,1,4.27,1.39q1.5,1.75,1.5,5.84a13.88,13.88,0,0,1-.42,3.59,8.57,8.57,0,0,1-1.18,2.66,5.84,5.84,0,0,1-1.83,1.74,6.13,6.13,0,0,1-2.37.8,4.34,4.34,0,0,1-4.27-1.51Q630.18,348.64,630.18,344.72Zm2.85-.36c0,0.22,0,.43,0,0.63s0,0.4,0,.6l5.31-5.59a2.11,2.11,0,0,0-2.46-1.57,2.76,2.76,0,0,0-2.14,1.63A9.66,9.66,0,0,0,633,344.36Zm5.83-.75c0-.23,0-0.46,0-0.67s0-.42,0-0.62l-5.33,5.59a2.15,2.15,0,0,0,2.46,1.69,2.79,2.79,0,0,0,2.15-1.62A9.69,9.69,0,0,0,638.87,343.6Z"/><path class="cls-4" d="M643.34,343a13.81,13.81,0,0,1,.42-3.57,8.41,8.41,0,0,1,1.18-2.65,6,6,0,0,1,1.82-1.73,6.09,6.09,0,0,1,2.35-.81,4.46,4.46,0,0,1,4.27,1.36q1.5,1.74,1.5,5.83a13.93,13.93,0,0,1-.42,3.59,8.64,8.64,0,0,1-1.18,2.67,5.89,5.89,0,0,1-1.83,1.75,6.15,6.15,0,0,1-2.36.82,4.31,4.31,0,0,1-4.27-1.48Q643.34,346.93,643.34,343Zm2.85-.38c0,0.22,0,.43,0,0.63s0,0.4,0,.6l5.3-5.63a2.1,2.1,0,0,0-2.46-1.56,2.78,2.78,0,0,0-2.14,1.64A9.7,9.7,0,0,0,646.19,342.63Zm5.83-.79c0-.23,0-0.46,0-0.67s0-.42,0-0.62l-5.33,5.63a2.13,2.13,0,0,0,2.46,1.67,2.81,2.81,0,0,0,2.15-1.64A9.73,9.73,0,0,0,652,341.84Z"/><path class="cls-4" d="M660.43,347a1.74,1.74,0,0,1,.49-1.26,2.07,2.07,0,0,1,1.24-.62,1.9,1.9,0,0,1,1.82.53,2.75,2.75,0,0,1,.61,1.87,4.55,4.55,0,0,1-.38,1.86,5.81,5.81,0,0,1-1,1.55,6.59,6.59,0,0,1-1.37,1.16,6.46,6.46,0,0,1-1.5.72l-0.59-1.13a7.5,7.5,0,0,0,1.06-.52,5.25,5.25,0,0,0,1-.74,4.18,4.18,0,0,0,.73-1,2.66,2.66,0,0,0,.34-1.11,2.87,2.87,0,0,1-1.12.19,1.46,1.46,0,0,1-.76-0.24,1.19,1.19,0,0,1-.43-0.56A2.12,2.12,0,0,1,660.43,347Z"/><path class="cls-4" d="M681.43,341l-2.63.4v4.29l-2.65.4c0-1.72,0-2.57,0-4.29l-6.63,1v-2l6.94-10.29,2.34-.35c0,3.57,0,5.36,0,8.93l2.63-.4V341Zm-5.27-6.38-3.81,5.45,3.81-.57C676.15,337.57,676.15,336.59,676.15,334.64Z"/><path class="cls-4" d="M684.56,347.09a8.79,8.79,0,0,0,1.62-.83,8.57,8.57,0,0,0,1.87-1.63,9.33,9.33,0,0,0,1.54-2.52,8.9,8.9,0,0,0,.63-3.51,8.3,8.3,0,0,0-.6-3.43,6,6,0,0,0-1.48-2.07,5.17,5.17,0,0,0-1.85-1.05,8,8,0,0,0-1.74-.36l0.52-2.44a9.64,9.64,0,0,1,3,.57,7.15,7.15,0,0,1,2.56,1.6,7.78,7.78,0,0,1,1.78,2.74,10.68,10.68,0,0,1,.67,4,12.41,12.41,0,0,1-.67,4.2,11.42,11.42,0,0,1-1.78,3.27,10.93,10.93,0,0,1-2.56,2.36,11.84,11.84,0,0,1-3,1.43Z"/><path class="cls-4" d="M67.75,448V445.5l2.7,0.43v-6.44l-2.72-.43v-2.53L70.45,437v-0.64a3.88,3.88,0,0,1,.38-1.8,3,3,0,0,1,1-1.13,3.42,3.42,0,0,1,1.43-.53,5.73,5.73,0,0,1,1.68,0,11.54,11.54,0,0,1,2.6.66,7.9,7.9,0,0,1,1.68.91l-0.87,2.14A12.29,12.29,0,0,0,77.2,436a5.45,5.45,0,0,0-1.57-.45,2,2,0,0,0-1.73.3,2.21,2.21,0,0,0-.49,1.61l4.8,0.74v2.53l-4.8-.74v6.44l4.83,0.74v2.53C74,449,71.95,448.7,67.75,448Z"/><path class="cls-4" d="M81.9,439.51a11.15,11.15,0,0,1,2.12-.39,11.81,11.81,0,0,1,2.85.12,6.9,6.9,0,0,1,2,.59,4.14,4.14,0,0,1,1.35,1,3.75,3.75,0,0,1,.74,1.37,5.93,5.93,0,0,1,.23,1.69q0,1.17-.08,2c-0.05.54-.08,1-0.08,1.46a10,10,0,0,0,0,1.09c0,0.21.05,0.43,0.07,0.63l1.49,0.22v2.53l-3.84-.56-0.3-1.61-0.11,0a3.19,3.19,0,0,1-1.3,1,4,4,0,0,1-2.27.18,4.47,4.47,0,0,1-2.71-1.33,3.65,3.65,0,0,1-1-2.59,3.35,3.35,0,0,1,.35-1.61,2.38,2.38,0,0,1,1-1,4.24,4.24,0,0,1,1.61-.42,9.26,9.26,0,0,1,2.1.1q0.41,0.06.86,0.17l1.11,0.26a2.28,2.28,0,0,0,0-.45v-0.44a1.7,1.7,0,0,0-.5-1.33,2.76,2.76,0,0,0-1.48-.6,6.64,6.64,0,0,0-2.09,0,11.74,11.74,0,0,0-1.57.36Zm3.89,9a2.52,2.52,0,0,0,1.63-.16,2.17,2.17,0,0,0,.79-0.75v-1.38l-0.68-.2a8.27,8.27,0,0,0-1-.2,4.65,4.65,0,0,0-.86,0,2.58,2.58,0,0,0-.77.14,1.22,1.22,0,0,0-.54.37,1,1,0,0,0-.2.64,1.51,1.51,0,0,0,.37,1.06A2,2,0,0,0,85.8,448.53Z"/><path class="cls-4" d="M106.08,452.62a5.66,5.66,0,0,1-2.2.76,9.32,9.32,0,0,1-2.63,0,8.17,8.17,0,0,1-2.65-.81A6.56,6.56,0,0,1,96.65,451a6.29,6.29,0,0,1-1.2-2.09,7.69,7.69,0,0,1-.41-2.54,6,6,0,0,1,.48-2.51,4.43,4.43,0,0,1,1.34-1.72,4.87,4.87,0,0,1,2-.9,7.52,7.52,0,0,1,2.54,0,10.12,10.12,0,0,1,2.4.64,12.92,12.92,0,0,1,1.72.81v4L103,446.4v-2.12a6.94,6.94,0,0,0-1.42-.36,4.15,4.15,0,0,0-1.27,0,2.58,2.58,0,0,0-1.92,1.42,3.26,3.26,0,0,0-.31,1.5,3.85,3.85,0,0,0,.25,1.39,3.85,3.85,0,0,0,1.84,2.07,4.48,4.48,0,0,0,1.5.48,5.09,5.09,0,0,0,2.14-.07,7.32,7.32,0,0,0,1.25-.47Z"/><path class="cls-4" d="M110,445.28L107.7,445v-2.53l2.27,0.31v-2.62l3-.45v3.47l6,0.8v2.53l-6-.8V449a4.39,4.39,0,0,0,.66,2.65,2.66,2.66,0,0,0,1.86,1,3.83,3.83,0,0,0,1.12,0,3.76,3.76,0,0,0,.91-0.26,4.33,4.33,0,0,0,.73-0.41l0.61-.43,1.38,2.25a3.66,3.66,0,0,1-1,.71,7.11,7.11,0,0,1-1.26.5,7.25,7.25,0,0,1-1.41.26,6.58,6.58,0,0,1-1.44,0,5.68,5.68,0,0,1-3.86-2,7.45,7.45,0,0,1-1.29-4.74v-3.29Z"/><path class="cls-4" d="M121.87,450.09a6.66,6.66,0,0,1,.44-2.52,4.43,4.43,0,0,1,1.24-1.75,4.51,4.51,0,0,1,1.91-.94,7,7,0,0,1,2.49-.08,7.8,7.8,0,0,1,2.58.76,6.34,6.34,0,0,1,1.92,1.47,6.08,6.08,0,0,1,1.18,2.07,7.81,7.81,0,0,1,.4,2.53,6.68,6.68,0,0,1-.44,2.52,4.46,4.46,0,0,1-1.24,1.76,4.51,4.51,0,0,1-1.92.94,7,7,0,0,1-2.49.09,7.75,7.75,0,0,1-2.58-.77,6.34,6.34,0,0,1-1.91-1.48,6.1,6.1,0,0,1-1.18-2.07A7.82,7.82,0,0,1,121.87,450.09Zm3.07,0.4a4.84,4.84,0,0,0,.21,1.43,4,4,0,0,0,.6,1.2,3.25,3.25,0,0,0,.94.87,3.16,3.16,0,0,0,1.26.43,2.61,2.61,0,0,0,2.17-.58,3.34,3.34,0,0,0,.84-2.59,4.42,4.42,0,0,0-.78-2.66,3.1,3.1,0,0,0-2.22-1.26,3.42,3.42,0,0,0-1.19,0,2,2,0,0,0-1,.51,2.61,2.61,0,0,0-.63,1A4.7,4.7,0,0,0,124.94,450.49Z"/><path class="cls-4" d="M135.72,455.06l2.84,0.35V449l-2.84-.35v-2.53l5.16,0.63,0.34,1.56h0.09a5.13,5.13,0,0,1,1.47-1.09,3.39,3.39,0,0,1,1.93-.28,3,3,0,0,1,2.17,1.27,6,6,0,0,1,.79,3.47l-2.69-.32a2.49,2.49,0,0,0-.24-1.24,1,1,0,0,0-.77-0.47,2.08,2.08,0,0,0-1.48.28,3.9,3.9,0,0,0-1,.94v4.9l5,0.59v2.53c-4.32-.51-6.49-0.77-10.81-1.3v-2.53Z"/><path class="cls-4" d="M149.95,456.76l4,0.46v-6.44l-4-.46v-2.53l7,0.8v9l4.25,0.47v2.53c-4.51-.5-6.77-0.75-11.27-1.27v-2.53Zm3.49-11.7a1.44,1.44,0,0,1,.53-1.16,1.86,1.86,0,0,1,1.47-.34,2.5,2.5,0,0,1,1.54.68,1.77,1.77,0,0,1,.57,1.28,1.32,1.32,0,0,1-.57,1.14,2.17,2.17,0,0,1-1.54.3,2.37,2.37,0,0,1-1.47-.64A1.73,1.73,0,0,1,153.44,445.06Z"/><path class="cls-4" d="M164.44,450.19a11.54,11.54,0,0,1,2.12-.48,11.87,11.87,0,0,1,2.86,0,6.72,6.72,0,0,1,2,.5,3.92,3.92,0,0,1,1.36,1,3.55,3.55,0,0,1,.75,1.34,5.81,5.81,0,0,1,.23,1.68q0,1.17-.08,2t-0.08,1.46a10,10,0,0,0,0,1.09c0,0.21.05,0.43,0.07,0.63l1.49,0.15V462l-3.86-.4-0.3-1.6H171a3.4,3.4,0,0,1-1.3,1.09,4.1,4.1,0,0,1-2.28.28,4.29,4.29,0,0,1-2.72-1.21,3.5,3.5,0,0,1-1-2.55A3.42,3.42,0,0,1,164,456a2.54,2.54,0,0,1,1-1,4.41,4.41,0,0,1,1.62-.49,9.32,9.32,0,0,1,2.11,0q0.41,0,.87.14l1.12,0.21a2.3,2.3,0,0,0,0-.46V454a1.63,1.63,0,0,0-.5-1.31,2.66,2.66,0,0,0-1.48-.54,6.7,6.7,0,0,0-2.1.08,12.23,12.23,0,0,0-1.57.43Zm3.91,8.86a2.58,2.58,0,0,0,1.64-.23,2.31,2.31,0,0,0,.8-0.78v-1.38l-0.68-.18a8.14,8.14,0,0,0-1-.16,4.64,4.64,0,0,0-.86,0,2.63,2.63,0,0,0-.77.17,1.29,1.29,0,0,0-.55.39,1,1,0,0,0-.2.65,1.45,1.45,0,0,0,.37,1A1.94,1.94,0,0,0,168.35,459Z"/><path class="cls-4" d="M178.15,446.24l4.9,0.49v10.63a5.2,5.2,0,0,0,.44,2.5,1.72,1.72,0,0,0,1.4.83,3.76,3.76,0,0,0,1.17,0,4,4,0,0,0,.92-0.34l1.13,2.18q-0.39.22-.78,0.4a4.59,4.59,0,0,1-.83.29,5.31,5.31,0,0,1-1,.14,7.49,7.49,0,0,1-1.16,0,4.78,4.78,0,0,1-3.24-1.42,4.68,4.68,0,0,1-1.08-3.24V449l-1.91-.19v-2.53Z"/><path class="cls-4" d="M200.41,469.34a11.6,11.6,0,0,1-3.13-1.29,10.44,10.44,0,0,1-2.69-2.29,11,11,0,0,1-1.87-3.3,12.52,12.52,0,0,1-.7-4.34,11.46,11.46,0,0,1,.7-4.2,8.84,8.84,0,0,1,1.87-3,8.19,8.19,0,0,1,2.69-1.85,10.6,10.6,0,0,1,3.13-.8l0.55,2.51a8.9,8.9,0,0,0-1.83.49,5.88,5.88,0,0,0-1.94,1.23,6.8,6.8,0,0,0-1.55,2.26,9.26,9.26,0,0,0,1.66,9.78,8.16,8.16,0,0,0,2,1.58,8.63,8.63,0,0,0,1.7.76Z"/><path class="cls-4" d="M206.19,462.44l3.52,0.3V452.69l-3,2.06-1.38-2,5.25-3.55,2,0.17V463l3.45,0.28v2.53l-9.82-.83v-2.53Z"/><path class="cls-4" d="M220,463.59l3.52,0.28V453.82l-3,2.08L219.09,454l5.25-3.59,2,0.16v13.57l3.45,0.26v2.53l-9.83-.76v-2.53Z"/><path class="cls-4" d="M234.13,469.56a7.42,7.42,0,0,0,1.7-.49,6.52,6.52,0,0,0,2-1.26,7.16,7.16,0,0,0,1.62-2.27,8.17,8.17,0,0,0,.67-3.52,9.68,9.68,0,0,0-.63-3.72,8.48,8.48,0,0,0-1.55-2.51,7.41,7.41,0,0,0-1.95-1.54,10.35,10.35,0,0,0-1.83-.79l0.55-2.42a12.29,12.29,0,0,1,3.13,1.3,10.34,10.34,0,0,1,2.69,2.28,10.92,10.92,0,0,1,1.88,3.29,12.39,12.39,0,0,1,.7,4.31,11.58,11.58,0,0,1-.7,4.23,8.89,8.89,0,0,1-1.88,3,8.28,8.28,0,0,1-2.69,1.86,10.07,10.07,0,0,1-3.13.79Z"/><path class="cls-4" d="M385.78,472.32v-2.53h2.72v-6.44h-2.74v-2.53h2.74v-0.64a4.23,4.23,0,0,1,.38-1.87,3.78,3.78,0,0,1,1-1.29,4.14,4.14,0,0,1,1.44-.76A6,6,0,0,1,393,456a10.8,10.8,0,0,1,2.62.24,6.66,6.66,0,0,1,1.7.64l-0.88,2.29a10.34,10.34,0,0,0-1.14-.45,5,5,0,0,0-1.58-.19,2.26,2.26,0,0,0-1.74.58,2.51,2.51,0,0,0-.5,1.69l4.84,0v2.53l-4.84,0v6.44l4.87,0v2.53C392.13,472.29,390,472.3,385.78,472.32Z"/><path class="cls-4" d="M400.06,461.49a12.74,12.74,0,0,1,2.13-.74,12.23,12.23,0,0,1,2.87-.34,6.35,6.35,0,0,1,2,.26,3.34,3.34,0,0,1,1.36.79,3,3,0,0,1,.75,1.25,5.49,5.49,0,0,1,.23,1.65q0,1.17-.08,2t-0.08,1.47a9.8,9.8,0,0,0,0,1.08c0,0.21.05,0.42,0.07,0.62l1.5,0V472l-3.87.06-0.3-1.56h-0.11a4.06,4.06,0,0,1-1.31,1.25,4.41,4.41,0,0,1-2.29.55,3.85,3.85,0,0,1-2.73-.89,3.11,3.11,0,0,1-1-2.43,3.69,3.69,0,0,1,.35-1.67,3,3,0,0,1,1-1.16,5,5,0,0,1,1.63-.69,9.58,9.58,0,0,1,2.12-.25c0.27,0,.57,0,0.87,0l1.12,0.08a2.38,2.38,0,0,0,0-.46v-0.44a1.45,1.45,0,0,0-.5-1.25,2.43,2.43,0,0,0-1.49-.36,7,7,0,0,0-2.11.33,13.73,13.73,0,0,0-1.58.62Zm3.93,8.39a2.53,2.53,0,0,0,2.44-1.3V467.2l-0.68-.09a7.91,7.91,0,0,0-1,0,4.76,4.76,0,0,0-.87.09,2.92,2.92,0,0,0-.78.26,1.54,1.54,0,0,0-.55.46,1.09,1.09,0,0,0-.2.67,1.29,1.29,0,0,0,.38,1A1.75,1.75,0,0,0,404,469.88Z"/><path class="cls-4" d="M424.42,470.66a6.8,6.8,0,0,1-2.21,1.12,9.81,9.81,0,0,1-2.65.42,7.46,7.46,0,0,1-2.66-.38,5.29,5.29,0,0,1-2-1.19,5.09,5.09,0,0,1-1.21-1.9,7.07,7.07,0,0,1-.42-2.48,6.53,6.53,0,0,1,.48-2.59,5.58,5.58,0,0,1,1.35-1.94,6,6,0,0,1,2-1.23,8,8,0,0,1,2.56-.46,9.42,9.42,0,0,1,2.42.24,11.1,11.1,0,0,1,1.73.53v4l-2.54.06v-2.12a6.48,6.48,0,0,0-1.43-.13,4.39,4.39,0,0,0-1.28.22,3.22,3.22,0,0,0-1.13.65,3.36,3.36,0,0,0-.81,1.09,3.55,3.55,0,0,0-.31,1.55,3.51,3.51,0,0,0,.25,1.35,3.07,3.07,0,0,0,1.86,1.77,4.1,4.1,0,0,0,1.51.23,5.46,5.46,0,0,0,2.16-.42,9,9,0,0,0,1.26-.67Z"/><path class="cls-4" d="M428.34,462.7l-2.28.06v-2.53l2.28-.06v-2.62l3-.93v3.47l6-.18v2.53l-6,.18v3.29a3.87,3.87,0,0,0,.67,2.55,2.24,2.24,0,0,0,1.87.74A4,4,0,0,0,435,469a4.4,4.4,0,0,0,.91-0.41,5.41,5.41,0,0,0,.74-0.53l0.61-.52,1.38,2a4.66,4.66,0,0,1-1,.87,8.72,8.72,0,0,1-1.27.71,8.24,8.24,0,0,1-1.42.49,6.84,6.84,0,0,1-1.45.2,4.85,4.85,0,0,1-3.89-1.33q-1.3-1.4-1.3-4.53V462.7Z"/><path class="cls-4" d="M440.31,465.57a7.18,7.18,0,0,1,.44-2.59,5.44,5.44,0,0,1,3.17-3.2,7.53,7.53,0,0,1,2.5-.49,7.13,7.13,0,0,1,2.59.34,5.1,5.1,0,0,1,1.93,1.16,4.92,4.92,0,0,1,1.19,1.88,7.82,7.82,0,0,1,0,5.06,5.46,5.46,0,0,1-3.17,3.21,7.47,7.47,0,0,1-2.5.49,7.08,7.08,0,0,1-2.59-.35,5.11,5.11,0,0,1-1.93-1.17,4.94,4.94,0,0,1-1.19-1.88A7.22,7.22,0,0,1,440.31,465.57Zm3.09-.1a4.48,4.48,0,0,0,.21,1.4,3.29,3.29,0,0,0,.6,1.11,2.57,2.57,0,0,0,.94.71,2.85,2.85,0,0,0,1.27.22,3,3,0,0,0,2.18-.93,4.66,4.66,0,0,0,.06-5.26,2.61,2.61,0,0,0-2.24-.9,3.65,3.65,0,0,0-1.2.24,2.48,2.48,0,0,0-1,.67,3.24,3.24,0,0,0-.63,1.13A5,5,0,0,0,443.4,465.47Z"/><path class="cls-4" d="M454.24,468.29l2.86-.11v-6.44l-2.86.11v-2.53l5.19-.21,0.35,1.5h0.09a6.52,6.52,0,0,1,1.48-1.33,3.78,3.78,0,0,1,1.94-.59,2.51,2.51,0,0,1,2.18.91,5.39,5.39,0,0,1,.79,3.34l-2.7.12a2.25,2.25,0,0,0-.24-1.2,0.81,0.81,0,0,0-.77-0.35,2.37,2.37,0,0,0-1.49.52,5,5,0,0,0-1,1.1v4.9l5-.22v2.53c-4.34.19-6.52,0.29-10.86,0.46v-2.53Z"/><path class="cls-4" d="M468.53,467.68l4.06-.19V461l-4.06.19v-2.53l7.05-.34v9l4.26-.22c0,1,0,1.52,0,2.53-4.53.24-6.79,0.35-11.32,0.56v-2.53Zm3.5-12.26a1.71,1.71,0,0,1,.53-1.24,2.52,2.52,0,0,1,3-.15,1.48,1.48,0,0,1,.58,1.19,1.57,1.57,0,0,1-.58,1.24A2.47,2.47,0,0,1,474,457a2.06,2.06,0,0,1-1.47-.4A1.47,1.47,0,0,1,472,455.41Z"/><path class="cls-4" d="M483.07,458.76a13.26,13.26,0,0,1,2.13-.83,12.43,12.43,0,0,1,2.87-.46,6.25,6.25,0,0,1,2,.17,3.17,3.17,0,0,1,1.36.74,2.87,2.87,0,0,1,.75,1.22,5.4,5.4,0,0,1,.23,1.64q0,1.17-.08,2t-0.08,1.48a9.8,9.8,0,0,0,0,1.08c0,0.21.05,0.42,0.07,0.62l1.5-.09v2.53l-3.87.23-0.3-1.55h-0.11a4.31,4.31,0,0,1-1.31,1.3,4.54,4.54,0,0,1-2.29.65,3.71,3.71,0,0,1-2.73-.77,3,3,0,0,1-1-2.38,3.78,3.78,0,0,1,.35-1.69,3.22,3.22,0,0,1,1-1.21,5.2,5.2,0,0,1,1.63-.76,9.72,9.72,0,0,1,2.12-.34c0.27,0,.56,0,0.87,0l1.12,0a2.39,2.39,0,0,0,0-.46v-0.44a1.39,1.39,0,0,0-.5-1.23,2.36,2.36,0,0,0-1.49-.29,7.13,7.13,0,0,0-2.1.42,14.27,14.27,0,0,0-1.58.68ZM487,467a2.88,2.88,0,0,0,1.64-.49,3,3,0,0,0,.8-0.91V464.2l-0.68-.06a7.91,7.91,0,0,0-1,0,4.84,4.84,0,0,0-.87.13,3,3,0,0,0-.77.3,1.63,1.63,0,0,0-.55.48,1.13,1.13,0,0,0-.2.68,1.24,1.24,0,0,0,.38,1A1.69,1.69,0,0,0,487,467Z"/><path class="cls-4" d="M496.83,452.59l4.91-.31c0,4.25,0,6.38,0,10.63a4.76,4.76,0,0,0,.44,2.43,1.44,1.44,0,0,0,1.41.6,4,4,0,0,0,1.17-.23,4.83,4.83,0,0,0,.92-0.49l1.13,2q-0.39.28-.78,0.52a5.46,5.46,0,0,1-.83.42,5.88,5.88,0,0,1-1,.29,7.69,7.69,0,0,1-1.16.16,4.13,4.13,0,0,1-3.25-.9,4,4,0,0,1-1.08-3.06V455l-1.91.12v-2.53Z"/><path class="cls-4" d="M510.44,470.5c4.09-.28,6.14-0.42,10.22-0.72v2.46c-4.09.3-6.13,0.44-10.22,0.72V470.5Z"/><path class="cls-4" d="M522.46,450.86l4.65-.35v5.89h0.09a4.34,4.34,0,0,1,1.47-1.29,5.76,5.76,0,0,1,3.78-.5,2.76,2.76,0,0,1,1.27.66,3.22,3.22,0,0,1,.83,1.37,7,7,0,0,1,.3,2.22V466l-3,.24v-6.53a2.67,2.67,0,0,0-.6-2,1.94,1.94,0,0,0-1.57-.5,2.8,2.8,0,0,0-1.56.64,3.12,3.12,0,0,0-1,1.4v7.34l-3,.23V453.26l-1.66.12v-2.53Z"/><path class="cls-4" d="M548.56,463.63a4.61,4.61,0,0,1-.77.61,8.28,8.28,0,0,1-1.1.59,9.34,9.34,0,0,1-3,.76,7.59,7.59,0,0,1-2.64-.19,4.6,4.6,0,0,1-3.2-2.85,6.82,6.82,0,0,1-.43-2.51,7,7,0,0,1,.48-2.7,6,6,0,0,1,1.32-2,6.19,6.19,0,0,1,2-1.3,8,8,0,0,1,2.44-.59,7.38,7.38,0,0,1,1.81.08,4.52,4.52,0,0,1,1.71.65,3.75,3.75,0,0,1,1.28,1.4,4.85,4.85,0,0,1,.5,2.35,11.26,11.26,0,0,1-.23,2.16l-8.28.71a2.51,2.51,0,0,0,.31,1.22,2.17,2.17,0,0,0,.76.76,3,3,0,0,0,1.08.38,5.3,5.3,0,0,0,1.3,0,7,7,0,0,0,2.27-.52,5.36,5.36,0,0,0,1.44-.91Zm-5-7.78a4,4,0,0,0-1.13.26,3.5,3.5,0,0,0-1,.56,3,3,0,0,0-.7.84,2.58,2.58,0,0,0-.32,1.08l5.66-.48A2.07,2.07,0,0,0,543.59,455.85Z"/><path class="cls-4" d="M552.08,448.44L557,448v10.63a4.69,4.69,0,0,0,.44,2.42,1.4,1.4,0,0,0,1.4.56,4,4,0,0,0,1.17-.26,5,5,0,0,0,.92-0.51l1.13,2q-0.39.29-.78,0.55a5.64,5.64,0,0,1-.83.45,6,6,0,0,1-1,.32,7.81,7.81,0,0,1-1.16.19,4,4,0,0,1-3.24-.81,3.94,3.94,0,0,1-1.08-3V450.8l-1.91.17v-2.53Z"/><path class="cls-4" d="M563.88,452l3.91-.38,0.34,1.35h0.09a4.9,4.9,0,0,1,3.86-2.08A5.27,5.27,0,0,1,574,451a3.32,3.32,0,0,1,1.52.89,4.33,4.33,0,0,1,1,1.69,8.28,8.28,0,0,1,.34,2.56,8.83,8.83,0,0,1-.39,2.7,6.4,6.4,0,0,1-1.13,2.13,5.56,5.56,0,0,1-1.79,1.45,6.68,6.68,0,0,1-2.41.68,9.42,9.42,0,0,1-1.4,0,3.61,3.61,0,0,1-1.15-.22v4.71l-3,.29V454.32l-1.72.17V452Zm7.31,1.5a3.3,3.3,0,0,0-1.6.59,2.59,2.59,0,0,0-1,1.41v4.78a2.23,2.23,0,0,0,.93.31,5,5,0,0,0,1.23,0,3.41,3.41,0,0,0,1.2-.34,2.82,2.82,0,0,0,1-.8,3.84,3.84,0,0,0,.64-1.28,6.23,6.23,0,0,0,.23-1.79,3.13,3.13,0,0,0-.74-2.27A2.17,2.17,0,0,0,571.19,453.45Z"/><path class="cls-4" d="M589.94,459.58a4.77,4.77,0,0,1-.77.62,8.45,8.45,0,0,1-1.1.61,9.45,9.45,0,0,1-3,.83,7.53,7.53,0,0,1-2.63-.14,4.46,4.46,0,0,1-3.19-2.79,6.75,6.75,0,0,1-.42-2.5,7.14,7.14,0,0,1,.48-2.71,6.13,6.13,0,0,1,1.32-2,6.35,6.35,0,0,1,2-1.34,8.1,8.1,0,0,1,2.44-.64,7.36,7.36,0,0,1,1.8,0,4.41,4.41,0,0,1,1.71.61,3.63,3.63,0,0,1,1.27,1.37,4.8,4.8,0,0,1,.49,2.34,11.35,11.35,0,0,1-.23,2.16l-8.27.88a2.47,2.47,0,0,0,.31,1.21,2.11,2.11,0,0,0,.76.75,3,3,0,0,0,1.08.36,5.28,5.28,0,0,0,1.3,0,7.12,7.12,0,0,0,2.26-.56,5.51,5.51,0,0,0,1.44-.94Zm-5-7.68a4,4,0,0,0-1.13.28,3.59,3.59,0,0,0-1,.58,3.05,3.05,0,0,0-.7.86,2.62,2.62,0,0,0-.32,1.09l5.65-.6A2,2,0,0,0,585,451.9Z"/><path class="cls-4" d="M592.35,458l2.85-.31v-6.44l-2.85.31V449l5.17-.57,0.34,1.48H598a7.21,7.21,0,0,1,1.47-1.43,4,4,0,0,1,1.93-.73,2.33,2.33,0,0,1,2.17.76,5.15,5.15,0,0,1,.79,3.29l-2.69.31a2.16,2.16,0,0,0-.24-1.18,0.75,0.75,0,0,0-.77-0.29,2.53,2.53,0,0,0-1.48.63,5.49,5.49,0,0,0-1,1.17v4.9l5-.57v2.53c-4.32.5-6.49,0.74-10.82,1.22V458Z"/><path class="cls-4" d="M615.67,462.71a9.68,9.68,0,0,1-3.12-.63,7.71,7.71,0,0,1-2.68-1.73,8.33,8.33,0,0,1-1.87-2.91,11.33,11.33,0,0,1-.7-4.2,12.71,12.71,0,0,1,.7-4.35,11.65,11.65,0,0,1,1.87-3.38,11.09,11.09,0,0,1,2.68-2.42,12.91,12.91,0,0,1,3.12-1.46l0.55,2.39a10.89,10.89,0,0,0-1.82.88,7.92,7.92,0,0,0-1.94,1.64,9.05,9.05,0,0,0-1.55,2.59,10,10,0,0,0-.63,3.76,8,8,0,0,0,.67,3.49,6.67,6.67,0,0,0,1.62,2.19,6.06,6.06,0,0,0,2,1.17,7.1,7.1,0,0,0,1.7.4Z"/><path class="cls-4" d="M621.43,454.59l3.51-.44V444.1l-3,2.7-1.38-1.67,5.23-4.66,2-.26v13.57l3.44-.44v2.53l-9.79,1.25v-2.53Z"/><path class="cls-4" d="M637.76,453.54a1.81,1.81,0,0,1,.52-1.31,2.16,2.16,0,0,1,1.3-.63,2,2,0,0,1,1.9.57,2.89,2.89,0,0,1,.64,2,4.73,4.73,0,0,1-.4,1.94,6,6,0,0,1-1,1.61,6.83,6.83,0,0,1-1.43,1.21,6.64,6.64,0,0,1-1.57.74L637,458.44a7.64,7.64,0,0,0,1.11-.54,5.43,5.43,0,0,0,1-.77,4.34,4.34,0,0,0,.77-1,2.74,2.74,0,0,0,.35-1.15,3,3,0,0,1-1.17.19,1.54,1.54,0,0,1-.79-0.26,1.25,1.25,0,0,1-.45-0.58A2.21,2.21,0,0,1,637.76,453.54Z"/><path class="cls-4" d="M648.94,451l3.5-.49V440.42l-3,2.75L648,441.51l5.22-4.73,2-.29v13.57l3.43-.49v2.53l-9.78,1.39V451Z"/><path class="cls-4" d="M662.68,449l3.5-.52V438.43l-3,2.77-1.37-1.64,5.22-4.77,2-.3c0,5.43,0,8.14,0,13.57l3.43-.52v2.53c-3.91.59-5.86,0.88-9.77,1.45V449Z"/><path class="cls-4" d="M676.72,451.79a9.23,9.23,0,0,0,1.69-.87,8.94,8.94,0,0,0,2-1.71,9.74,9.74,0,0,0,1.61-2.63,9.3,9.3,0,0,0,.66-3.67,8.68,8.68,0,0,0-.63-3.58,6.22,6.22,0,0,0-1.54-2.16,5.39,5.39,0,0,0-1.93-1.1,8.46,8.46,0,0,0-1.82-.38l0.55-2.55a10.07,10.07,0,0,1,3.11.6,7.47,7.47,0,0,1,2.67,1.68,8.13,8.13,0,0,1,1.86,2.87,11.17,11.17,0,0,1,.7,4.16,13,13,0,0,1-.7,4.39,11.93,11.93,0,0,1-1.86,3.42,11.42,11.42,0,0,1-2.67,2.46,12.34,12.34,0,0,1-3.11,1.49Z"/><path class="cls-4" d="M68.05,396v-2.53l2.7,0.43v-6.44L68,387v-2.53l2.72,0.43c0-.26,0-0.39,0-0.64a3.87,3.87,0,0,1,.38-1.8,3,3,0,0,1,1-1.13,3.43,3.43,0,0,1,1.43-.53,5.73,5.73,0,0,1,1.68,0,11.54,11.54,0,0,1,2.6.66,7.87,7.87,0,0,1,1.68.91l-0.87,2.15a12.29,12.29,0,0,0-1.13-.63,5.46,5.46,0,0,0-1.57-.45,2,2,0,0,0-1.73.3,2.21,2.21,0,0,0-.49,1.61l4.8,0.74v2.53l-4.8-.74c0,2.58,0,3.86,0,6.44l4.82,0.74v2.53C74.35,396.94,72.25,396.62,68.05,396Z"/><path class="cls-4" d="M82.2,387.42a11.17,11.17,0,0,1,2.12-.39,11.82,11.82,0,0,1,2.85.13,6.91,6.91,0,0,1,2,.59,4.14,4.14,0,0,1,1.35,1,3.75,3.75,0,0,1,.74,1.37,5.91,5.91,0,0,1,.23,1.69q0,1.17-.08,2c-0.05.54-.08,1-0.08,1.46a10.13,10.13,0,0,0,0,1.09c0,0.21.05,0.43,0.07,0.63L93,397.2v2.53l-3.84-.56-0.3-1.61-0.11,0a3.18,3.18,0,0,1-1.3,1,4,4,0,0,1-2.27.18,4.47,4.47,0,0,1-2.71-1.33,3.66,3.66,0,0,1-1-2.59,3.35,3.35,0,0,1,.35-1.61,2.39,2.39,0,0,1,1-1,4.24,4.24,0,0,1,1.61-.42,9.24,9.24,0,0,1,2.1.09q0.41,0.06.86,0.17l1.11,0.26a2.29,2.29,0,0,0,0-.45v-0.44a1.7,1.7,0,0,0-.5-1.33,2.76,2.76,0,0,0-1.48-.6,6.64,6.64,0,0,0-2.09,0,11.77,11.77,0,0,0-1.57.36Zm3.89,9a2.52,2.52,0,0,0,1.63-.16,2.17,2.17,0,0,0,.79-0.75v-1.38l-0.68-.2a8.29,8.29,0,0,0-1-.2,4.65,4.65,0,0,0-.86,0,2.54,2.54,0,0,0-.77.14,1.22,1.22,0,0,0-.54.37,1,1,0,0,0-.2.64,1.51,1.51,0,0,0,.37,1.06A2,2,0,0,0,86.1,396.45Z"/><path class="cls-4" d="M106.38,400.53a5.66,5.66,0,0,1-2.2.76,9.34,9.34,0,0,1-2.63,0,8.17,8.17,0,0,1-2.65-.81A6.56,6.56,0,0,1,97,399a6.31,6.31,0,0,1-1.2-2.09,7.7,7.7,0,0,1-.41-2.54,6,6,0,0,1,.48-2.51,4.43,4.43,0,0,1,1.34-1.72,4.87,4.87,0,0,1,2-.9,7.52,7.52,0,0,1,2.54,0,10.13,10.13,0,0,1,2.4.64,12.94,12.94,0,0,1,1.72.81v4l-2.52-.35V392.2a6.9,6.9,0,0,0-1.42-.36,4.15,4.15,0,0,0-1.27,0,2.58,2.58,0,0,0-1.92,1.42,3.25,3.25,0,0,0-.31,1.5,3.85,3.85,0,0,0,.25,1.39,3.85,3.85,0,0,0,1.84,2.07,4.48,4.48,0,0,0,1.5.48,5.09,5.09,0,0,0,2.14-.07,7.33,7.33,0,0,0,1.25-.47Z"/><path class="cls-4" d="M110.27,393.2l-2.27-.31v-2.53l2.27,0.31v-2.62l3-.45v3.47l6,0.8c0,1,0,1.52,0,2.53l-6-.8v3.29a4.39,4.39,0,0,0,.66,2.65,2.66,2.66,0,0,0,1.86,1,3.83,3.83,0,0,0,1.12,0,3.76,3.76,0,0,0,.91-0.26,4.34,4.34,0,0,0,.73-0.41l0.61-.43,1.38,2.25a3.66,3.66,0,0,1-1,.71,7.12,7.12,0,0,1-1.26.5,7.26,7.26,0,0,1-1.41.26,6.61,6.61,0,0,1-1.44,0,5.68,5.68,0,0,1-3.86-2,7.45,7.45,0,0,1-1.29-4.74V393.2Z"/><path class="cls-4" d="M122.17,398a6.65,6.65,0,0,1,.44-2.52,4.43,4.43,0,0,1,1.24-1.75,4.51,4.51,0,0,1,1.92-.94,7,7,0,0,1,2.49-.08,7.8,7.8,0,0,1,2.58.76,6.34,6.34,0,0,1,1.92,1.47,6.07,6.07,0,0,1,1.18,2.07,7.8,7.8,0,0,1,.4,2.53,6.68,6.68,0,0,1-.44,2.52,4.45,4.45,0,0,1-1.24,1.76,4.5,4.5,0,0,1-1.91.95,7,7,0,0,1-2.49.09,7.75,7.75,0,0,1-2.58-.77,6.36,6.36,0,0,1-1.91-1.48,6.11,6.11,0,0,1-1.18-2.07A7.82,7.82,0,0,1,122.17,398Zm3.07,0.4a4.85,4.85,0,0,0,.21,1.43,4,4,0,0,0,.6,1.2,3.24,3.24,0,0,0,.94.87,3.16,3.16,0,0,0,1.26.43,2.61,2.61,0,0,0,2.17-.58,3.34,3.34,0,0,0,.84-2.59,4.42,4.42,0,0,0-.78-2.66,3.1,3.1,0,0,0-2.23-1.26,3.42,3.42,0,0,0-1.19,0,2,2,0,0,0-1,.51,2.62,2.62,0,0,0-.63,1A4.71,4.71,0,0,0,125.24,398.4Z"/><path class="cls-4" d="M136,403l2.85,0.35v-6.44l-2.85-.35V394l5.16,0.63,0.34,1.56h0.09a5.1,5.1,0,0,1,1.47-1.09,3.38,3.38,0,0,1,1.93-.28,3,3,0,0,1,2.17,1.27,6,6,0,0,1,.79,3.47l-2.69-.32a2.49,2.49,0,0,0-.24-1.24,1,1,0,0,0-.77-0.47,2.08,2.08,0,0,0-1.48.28,3.9,3.9,0,0,0-1,.94v4.9l5,0.59v2.53c-4.32-.51-6.49-0.77-10.81-1.3V403Z"/><path class="cls-4" d="M150.25,404.67l4,0.46V398.7l-4-.46V395.7l7,0.8v9l4.25,0.47v2.53c-4.51-.49-6.77-0.75-11.27-1.27v-2.53Zm3.49-11.7a1.44,1.44,0,0,1,.53-1.16,1.86,1.86,0,0,1,1.47-.34,2.5,2.5,0,0,1,1.54.68,1.76,1.76,0,0,1,.57,1.28,1.32,1.32,0,0,1-.57,1.14,2.17,2.17,0,0,1-1.54.3,2.37,2.37,0,0,1-1.47-.64A1.73,1.73,0,0,1,153.74,393Z"/><path class="cls-4" d="M164.74,398.11a11.55,11.55,0,0,1,2.13-.48,11.87,11.87,0,0,1,2.86,0,6.73,6.73,0,0,1,2,.5,3.91,3.91,0,0,1,1.36,1,3.55,3.55,0,0,1,.75,1.34,5.8,5.8,0,0,1,.23,1.68q0,1.17-.08,2c-0.05.55-.08,1-0.08,1.46a10,10,0,0,0,0,1.09c0,0.21.05,0.43,0.07,0.63l1.49,0.15V410l-3.86-.4-0.3-1.6h-0.11A3.4,3.4,0,0,1,170,409a4.1,4.1,0,0,1-2.28.28,4.29,4.29,0,0,1-2.72-1.21,3.5,3.5,0,0,1-1-2.55,3.43,3.43,0,0,1,.35-1.63,2.55,2.55,0,0,1,1-1,4.41,4.41,0,0,1,1.62-.49,9.3,9.3,0,0,1,2.11,0q0.41,0,.87.14l1.12,0.21a2.31,2.31,0,0,0,0-.46v-0.44a1.63,1.63,0,0,0-.5-1.31,2.67,2.67,0,0,0-1.48-.54,6.7,6.7,0,0,0-2.1.08,12.24,12.24,0,0,0-1.57.43Zm3.91,8.86a2.58,2.58,0,0,0,1.64-.23,2.32,2.32,0,0,0,.79-0.78v-1.38l-0.68-.18a8.15,8.15,0,0,0-1-.16,4.64,4.64,0,0,0-.86,0,2.64,2.64,0,0,0-.77.17,1.29,1.29,0,0,0-.55.39,1,1,0,0,0-.2.65,1.45,1.45,0,0,0,.37,1A1.94,1.94,0,0,0,168.65,407Z"/><path class="cls-4" d="M178.46,394.16l4.9,0.49v10.63a5.19,5.19,0,0,0,.44,2.5,1.72,1.72,0,0,0,1.4.83,3.77,3.77,0,0,0,1.17,0,4,4,0,0,0,.92-0.34l1.13,2.18q-0.39.22-.78,0.4a4.58,4.58,0,0,1-.83.29,5.3,5.3,0,0,1-1,.14,7.5,7.5,0,0,1-1.16,0,4.78,4.78,0,0,1-3.24-1.42,4.68,4.68,0,0,1-1.08-3.24v-9.66l-1.91-.19v-2.53Z"/><path class="cls-4" d="M192,414.27c4.08,0.38,6.13.57,10.21,0.93v2.46c-4.09-.36-6.13-0.55-10.21-0.93v-2.46Z"/><path class="cls-4" d="M204,396.57l4.65,0.4v5.89h0.09a3.45,3.45,0,0,1,1.47-1,4.82,4.82,0,0,1,2.16-.26,5.64,5.64,0,0,1,1.61.36,3.41,3.41,0,0,1,1.27.86,4,4,0,0,1,.83,1.51,7.5,7.5,0,0,1,.3,2.27v7.15l-3-.25v-6.53a3,3,0,0,0-.6-2.07,2.27,2.27,0,0,0-1.57-.75,2.44,2.44,0,0,0-1.56.39,2.49,2.49,0,0,0-1,1.24v7.34l-3-.26V399.25L204,399.1v-2.53Z"/><path class="cls-4" d="M230.15,413.57a3.73,3.73,0,0,1-.77.48,6.89,6.89,0,0,1-1.11.41,8.14,8.14,0,0,1-1.39.26,8.81,8.81,0,0,1-1.61,0,8.16,8.16,0,0,1-2.64-.62,5.77,5.77,0,0,1-3.2-3.37,7.37,7.37,0,0,1-.43-2.58,6.47,6.47,0,0,1,.48-2.62,4.76,4.76,0,0,1,1.32-1.79,5,5,0,0,1,2-1,7.43,7.43,0,0,1,2.44-.19A7.84,7.84,0,0,1,227,403a5.42,5.42,0,0,1,1.72.92,4.75,4.75,0,0,1,1.28,1.6,5.36,5.36,0,0,1,.49,2.43,10.68,10.68,0,0,1-.23,2.12l-8.29-.63a2.81,2.81,0,0,0,.31,1.27,2.75,2.75,0,0,0,.76.89,3.59,3.59,0,0,0,1.08.56,5.58,5.58,0,0,0,1.3.25,6.55,6.55,0,0,0,2.27-.15,4.38,4.38,0,0,0,1.44-.67Zm-5-8.59a3.7,3.7,0,0,0-1.13.08,2.88,2.88,0,0,0-1,.41,2.35,2.35,0,0,0-.7.73,2.27,2.27,0,0,0-.32,1l5.66,0.44A2.48,2.48,0,0,0,225.17,405Z"/><path class="cls-4" d="M233.67,399l4.9,0.35v10.63a5.11,5.11,0,0,0,.44,2.49,1.66,1.66,0,0,0,1.41.79,3.8,3.8,0,0,0,1.17-.07,4.17,4.17,0,0,0,.92-0.36l1.13,2.15q-0.39.23-.78,0.42a4.73,4.73,0,0,1-.83.31,5.41,5.41,0,0,1-1,.16,7.53,7.53,0,0,1-1.16,0,4.66,4.66,0,0,1-3.25-1.33,4.56,4.56,0,0,1-1.08-3.21v-9.66l-1.91-.14C233.67,400.47,233.67,400,233.67,399Z"/><path class="cls-4" d="M245.48,404.37l3.92,0.26,0.35,1.4h0.09a4.14,4.14,0,0,1,3.87-1.46,5.7,5.7,0,0,1,1.95.45,4.15,4.15,0,0,1,1.52,1.14,5.31,5.31,0,0,1,1,1.85,8.8,8.8,0,0,1,.35,2.62,8.21,8.21,0,0,1-.39,2.63,5.22,5.22,0,0,1-1.13,1.94,4.45,4.45,0,0,1-1.8,1.15,6.12,6.12,0,0,1-2.42.29,9.69,9.69,0,0,1-1.4-.19,4.11,4.11,0,0,1-1.15-.41c0,1.89,0,2.83,0,4.71l-3-.19c0-5.43,0-8.14,0-13.57l-1.73-.11C245.48,405.89,245.48,405.39,245.48,404.37Zm7.33,2.68a2.92,2.92,0,0,0-1.6.33,2.08,2.08,0,0,0-1,1.25v4.78a2.65,2.65,0,0,0,.93.46,5.3,5.3,0,0,0,1.23.23,3.12,3.12,0,0,0,1.2-.14,2.25,2.25,0,0,0,1-.64,3.16,3.16,0,0,0,.64-1.18,5.83,5.83,0,0,0,.23-1.76,3.59,3.59,0,0,0-.74-2.39A2.56,2.56,0,0,0,252.81,407.06Z"/><path class="cls-4" d="M271.61,416.22a3.81,3.81,0,0,1-.77.5,7.07,7.07,0,0,1-1.11.44,8.21,8.21,0,0,1-1.39.29,8.82,8.82,0,0,1-1.61,0,8.07,8.07,0,0,1-2.64-.56,5.6,5.6,0,0,1-3.2-3.3,7.29,7.29,0,0,1-.43-2.57,6.53,6.53,0,0,1,.48-2.63,4.9,4.9,0,0,1,1.32-1.82,5.16,5.16,0,0,1,2-1,7.49,7.49,0,0,1,2.44-.24,7.77,7.77,0,0,1,1.81.33,5.29,5.29,0,0,1,1.72.89,4.6,4.6,0,0,1,1.28,1.58,5.28,5.28,0,0,1,.5,2.42,10.75,10.75,0,0,1-.23,2.13l-8.3-.46a2.77,2.77,0,0,0,.31,1.26,2.66,2.66,0,0,0,.76.87,3.49,3.49,0,0,0,1.08.53,5.53,5.53,0,0,0,1.3.22,6.61,6.61,0,0,0,2.27-.2,4.49,4.49,0,0,0,1.44-.7Zm-5-8.48a3.73,3.73,0,0,0-1.13.1,3,3,0,0,0-1,.43,2.41,2.41,0,0,0-.7.75,2.29,2.29,0,0,0-.32,1l5.67,0.32A2.42,2.42,0,0,0,266.63,407.74Z"/><path class="cls-4" d="M274,415l2.86,0.15v-6.44L274,408.6c0-1,0-1.52,0-2.53l5.19,0.26,0.35,1.53h0.09a5.68,5.68,0,0,1,1.48-1.19,3.54,3.54,0,0,1,1.94-.41,2.76,2.76,0,0,1,2.18,1.11,5.74,5.74,0,0,1,.79,3.42l-2.7-.13a2.38,2.38,0,0,0-.24-1.22,0.9,0.9,0,0,0-.77-0.42,2.2,2.2,0,0,0-1.49.39,4.33,4.33,0,0,0-1,1v4.9l5,0.24c0,1,0,1.52,0,2.53-4.34-.2-6.51-0.31-10.86-0.54C274,416.56,274,416.05,274,415Z"/><path class="cls-4" d="M297.45,423.53a11.08,11.08,0,0,1-3.14-1.14,9.72,9.72,0,0,1-2.7-2.16,10.3,10.3,0,0,1-1.88-3.21,12.2,12.2,0,0,1-.7-4.31,11.71,11.71,0,0,1,.7-4.24,9.43,9.43,0,0,1,1.88-3.08,8.8,8.8,0,0,1,2.7-2,11.07,11.07,0,0,1,3.14-1l0.55,2.48a9.3,9.3,0,0,0-1.83.58,6.32,6.32,0,0,0-1.95,1.32,7.28,7.28,0,0,0-1.56,2.34,9.12,9.12,0,0,0-.63,3.65,8.68,8.68,0,0,0,.67,3.59,8.35,8.35,0,0,0,1.63,2.45,7.6,7.6,0,0,0,2,1.48A8.21,8.21,0,0,0,298,421Z"/><path class="cls-4" d="M303.24,416.34l3.53,0.13V406.42l-3,2.21-1.38-1.89,5.26-3.81,2,0.07c0,5.43,0,8.14,0,13.57l3.46,0.11c0,1,0,1.52,0,2.53l-9.85-.34v-2.53Z"/><path class="cls-4" d="M319.66,417.94a1.53,1.53,0,0,1,.52-1.23,1.85,1.85,0,0,1,1.3-.42,2.35,2.35,0,0,1,1.91.88,3.3,3.3,0,0,1,.65,2.06,4.27,4.27,0,0,1-.4,1.87,4.79,4.79,0,0,1-1,1.44,5.46,5.46,0,0,1-1.44,1,5.72,5.72,0,0,1-1.58.48l-0.62-1.28a6.54,6.54,0,0,0,1.12-.36,4.34,4.34,0,0,0,1-.6,3.41,3.41,0,0,0,.77-0.86,2.38,2.38,0,0,0,.36-1.09,2.94,2.94,0,0,1-1.18,0,1.84,1.84,0,0,1-.8-0.39,1.56,1.56,0,0,1-.45-0.66A2.38,2.38,0,0,1,319.66,417.94Z"/><path class="cls-4" d="M330.91,417.18l3.53,0.08V407.21l-3,2.26L330,407.59l5.26-3.88,2,0v13.57l3.46,0.07v2.53l-9.85-.2v-2.53Z"/><path class="cls-4" d="M344.75,417.45l3.53,0.05V407.45l-3,2.28-1.38-1.86,5.26-3.92,2,0v13.57l3.46,0v2.53l-9.85-.13C344.75,419,344.75,418.46,344.75,417.45Z"/><path class="cls-4" d="M358.92,422.53a7.85,7.85,0,0,0,1.71-.59,7.13,7.13,0,0,0,2-1.39,7.81,7.81,0,0,0,1.63-2.37,8.45,8.45,0,0,0,.67-3.56,9.36,9.36,0,0,0-.63-3.68,7.78,7.78,0,0,0-1.56-2.41,6.77,6.77,0,0,0-1.95-1.42,9.74,9.74,0,0,0-1.83-.67l0.55-2.46a11.56,11.56,0,0,1,3.14,1.11,9.45,9.45,0,0,1,2.7,2.11,10.07,10.07,0,0,1,1.88,3.17,13.33,13.33,0,0,1,0,8.54,9.67,9.67,0,0,1-1.88,3.12,9.08,9.08,0,0,1-2.7,2,10.62,10.62,0,0,1-3.14,1Z"/><path class="cls-4" d="M523.06,412.27l2.85-.21v-6.44l-2.85.21c0-1,0-1.52,0-2.53l5.18-.39,0.35,1.49h0.09a6.83,6.83,0,0,1,1.47-1.38,3.88,3.88,0,0,1,1.93-.66,2.42,2.42,0,0,1,2.18.84,5.26,5.26,0,0,1,.79,3.32l-2.69.21a2.2,2.2,0,0,0-.24-1.19,0.78,0.78,0,0,0-.77-0.32,2.45,2.45,0,0,0-1.48.58,5.23,5.23,0,0,0-1,1.13v4.9l5-.39V414c-4.34.35-6.5,0.51-10.84,0.84C523.06,413.79,523.06,413.28,523.06,412.27Z"/><path class="cls-4" d="M548.26,411.55a4.64,4.64,0,0,1-.77.61,8.28,8.28,0,0,1-1.1.59,9.33,9.33,0,0,1-3,.76,7.59,7.59,0,0,1-2.64-.19,4.6,4.6,0,0,1-3.2-2.85,6.82,6.82,0,0,1-.43-2.51,7.05,7.05,0,0,1,.48-2.7,6,6,0,0,1,1.32-2,6.19,6.19,0,0,1,2-1.3,8,8,0,0,1,2.44-.59,7.4,7.4,0,0,1,1.81.08,4.52,4.52,0,0,1,1.71.65,3.75,3.75,0,0,1,1.28,1.4,4.85,4.85,0,0,1,.5,2.35,11.26,11.26,0,0,1-.23,2.16l-8.28.71a2.51,2.51,0,0,0,.31,1.22,2.17,2.17,0,0,0,.76.76,3,3,0,0,0,1.08.38,5.32,5.32,0,0,0,1.3,0,7,7,0,0,0,2.27-.51,5.37,5.37,0,0,0,1.44-.91Zm-5-7.78a4,4,0,0,0-1.13.26,3.5,3.5,0,0,0-1,.56,3,3,0,0,0-.7.84,2.58,2.58,0,0,0-.32,1.08l5.66-.48A2.07,2.07,0,0,0,543.29,403.76Z"/><path class="cls-4" d="M562.34,410.38a7.39,7.39,0,0,1-2.21,1.28,10.15,10.15,0,0,1-2.64.6,7.24,7.24,0,0,1-2.66-.19,4.81,4.81,0,0,1-2-1.05,4.62,4.62,0,0,1-1.21-1.81,7.39,7.39,0,0,1,.07-5.07,6.15,6.15,0,0,1,1.35-2,6.56,6.56,0,0,1,2-1.37,8.3,8.3,0,0,1,2.55-.64,9.24,9.24,0,0,1,2.41.07,10.47,10.47,0,0,1,1.73.41v4l-2.53.24v-2.12a6.35,6.35,0,0,0-1.43,0,4.55,4.55,0,0,0-1.28.31,3.51,3.51,0,0,0-1.13.72,3.61,3.61,0,0,0-1.12,2.71,3.39,3.39,0,0,0,.25,1.33,2.78,2.78,0,0,0,1.85,1.64,4,4,0,0,0,1.51.13,5.69,5.69,0,0,0,2.15-.57,9.73,9.73,0,0,0,1.25-.76Z"/><path class="cls-4" d="M571.16,399.13l4.28-.43v9l1.75-.18V410l-3.63.37L573,408.74h-0.09a4.7,4.7,0,0,1-1.59,1.61,5.23,5.23,0,0,1-2.35.81,5.1,5.1,0,0,1-1.6-.07,2.55,2.55,0,0,1-1.23-.64,3.12,3.12,0,0,1-.78-1.35,7.51,7.51,0,0,1-.28-2.23v-4.62l-1.31.13c0-1,0-1.52,0-2.53l4.3-.41V406a3.31,3.31,0,0,0,.45,2,1.48,1.48,0,0,0,1.41.48,2.74,2.74,0,0,0,1.53-.66,3.12,3.12,0,0,0,1-1.34v-4.9l-1.29.13v-2.53Z"/><path class="cls-4" d="M578.27,407.38l2.85-.29v-6.44l-2.85.29c0-1,0-1.52,0-2.53l5.17-.54,0.34,1.48h0.09a7.13,7.13,0,0,1,1.47-1.42,4,4,0,0,1,1.93-.71,2.35,2.35,0,0,1,2.17.78,5.17,5.17,0,0,1,.79,3.29l-2.69.29a2.17,2.17,0,0,0-.24-1.18,0.76,0.76,0,0,0-.77-0.3,2.51,2.51,0,0,0-1.48.62,5.44,5.44,0,0,0-1,1.16c0,2,0,2.94,0,4.9l5-.53v2.53c-4.33.47-6.49,0.7-10.82,1.14C578.27,408.9,578.27,408.4,578.27,407.38Z"/><path class="cls-4" d="M601.6,412.25a9.74,9.74,0,0,1-3.12-.66,7.79,7.79,0,0,1-2.69-1.74,8.4,8.4,0,0,1-1.87-2.92,11.35,11.35,0,0,1-.7-4.2,12.66,12.66,0,0,1,.7-4.34,11.54,11.54,0,0,1,1.87-3.37,11,11,0,0,1,2.69-2.4,12.81,12.81,0,0,1,3.12-1.44l0.55,2.4a10.8,10.8,0,0,0-1.82.87,7.85,7.85,0,0,0-1.94,1.62,9,9,0,0,0-1.55,2.58,9.9,9.9,0,0,0-.63,3.75,8,8,0,0,0,.67,3.49,6.73,6.73,0,0,0,1.62,2.2,6.12,6.12,0,0,0,2,1.18,7.15,7.15,0,0,0,1.7.41Z"/><path class="cls-4" d="M607.37,404.18l3.51-.42V393.71l-3,2.68-1.38-1.68,5.23-4.62,2-.24v13.57l3.44-.42c0,1,0,1.52,0,2.53-3.92.48-5.88,0.72-9.8,1.18v-2.53Z"/><path class="cls-4" d="M621.13,402.51l3.51-.44c0-4,0-6,0-10.05l-3,2.7-1.38-1.67,5.23-4.66,2-.26c0,5.43,0,8.14,0,13.57l3.44-.44v2.53L621.13,405v-2.53Z"/><path class="cls-4" d="M637.46,401.46a1.81,1.81,0,0,1,.52-1.31,2.15,2.15,0,0,1,1.3-.63,2,2,0,0,1,1.9.57,2.89,2.89,0,0,1,.64,2,4.73,4.73,0,0,1-.4,1.94,6,6,0,0,1-1,1.61,6.83,6.83,0,0,1-1.43,1.21,6.65,6.65,0,0,1-1.57.74l-0.62-1.18a7.65,7.65,0,0,0,1.11-.54,5.43,5.43,0,0,0,1-.77,4.34,4.34,0,0,0,.77-1,2.74,2.74,0,0,0,.36-1.15,3,3,0,0,1-1.17.19,1.54,1.54,0,0,1-.79-0.26,1.25,1.25,0,0,1-.45-0.58A2.21,2.21,0,0,1,637.46,401.46Z"/><path class="cls-4" d="M648.64,398.88l3.5-.49c0-4,0-6,0-10.05l-3,2.75-1.37-1.65L653,384.7l2-.29c0,5.43,0,8.14,0,13.57l3.43-.49V400l-9.78,1.39v-2.53Z"/><path class="cls-4" d="M660.82,391.6a14.55,14.55,0,0,1,.44-3.73,8.92,8.92,0,0,1,1.23-2.79,6.33,6.33,0,0,1,1.9-1.83,6.43,6.43,0,0,1,2.46-.88,4.61,4.61,0,0,1,4.46,1.37q1.56,1.8,1.56,6.08a14.65,14.65,0,0,1-.44,3.76,9.13,9.13,0,0,1-1.23,2.81,6.26,6.26,0,0,1-1.91,1.85,6.49,6.49,0,0,1-2.47.89,4.45,4.45,0,0,1-4.46-1.49Q660.82,395.69,660.82,391.6Zm3-.44c0,0.23,0,.45,0,0.65s0,0.42,0,.63l5.54-6a2.16,2.16,0,0,0-2.56-1.59,3,3,0,0,0-2.24,1.75A10.22,10.22,0,0,0,663.79,391.16Zm6.09-.91q0-.37,0-0.7c0-.22,0-0.44,0-0.65l-5.56,6a2.2,2.2,0,0,0,2.57,1.71,3,3,0,0,0,2.25-1.74A10.25,10.25,0,0,0,669.88,390.26Z"/><path class="cls-4" d="M676.42,399.71a9.23,9.23,0,0,0,1.69-.87,8.93,8.93,0,0,0,2-1.71,9.74,9.74,0,0,0,1.61-2.63,9.3,9.3,0,0,0,.66-3.67,8.67,8.67,0,0,0-.63-3.58,6.23,6.23,0,0,0-1.54-2.16,5.4,5.4,0,0,0-1.93-1.1,8.45,8.45,0,0,0-1.82-.38l0.55-2.55a10.08,10.08,0,0,1,3.11.6,7.47,7.47,0,0,1,2.67,1.68,8.13,8.13,0,0,1,1.86,2.87,11.17,11.17,0,0,1,.7,4.16,13,13,0,0,1-.7,4.39,11.93,11.93,0,0,1-1.86,3.42,11.41,11.41,0,0,1-2.67,2.47,12.34,12.34,0,0,1-3.11,1.49Z"/></svg>