<svg id="Layer_1" data-name="Layer 1" xmlns="http://www.w3.org/2000/svg" viewBox="0 0 720 576"><defs><style>.cls-1,.cls-2,.cls-4,.cls-6{fill:#231f20;}.cls-1,.cls-3{stroke:#231f20;}.cls-1,.cls-6{stroke-miterlimit:10;}.cls-1,.cls-2,.cls-3{stroke-width:2px;}.cls-2{stroke:#000;}.cls-2,.cls-3{stroke-linecap:round;stroke-linejoin:round;}.cls-3,.cls-5{fill:#fff;}.cls-6{stroke:#fff;}</style></defs><title>Hanoi_Tower_Set_5_Final</title><path class="cls-1" d="M685.87,506.49c0-.14,0-0.29,0-0.43s0-.29,0-0.43V453.84H40.07s-0.25,51.74-.25,52.22c0,2.67,2.32,5.24,6.64,7.71,15.13,8.61,55.2,16.11,111,21.48s127.37,8.59,205.39,8.59c89.16,0,169.88-4.21,228.32-11,29.22-3.41,52.87-7.46,69.23-12,8.18-2.25,14.54-4.62,18.86-7.08,3.69-2.1,5.91-4.29,6.48-6.55h0.11v-0.73Z"/><ellipse class="cls-2" cx="362.87" cy="454.92" rx="322.86" ry="37.63"/><path class="cls-3" d="M685.87,455c0-.14,0-0.29,0-0.43s0-.29,0-0.43V402.36H40.07s-0.25,51.74-.25,52.22c0,2.67,2.32,5.24,6.64,7.71,15.13,8.61,55.2,16.11,111,21.48s127.37,8.59,205.39,8.59c89.16,0,169.88-4.21,228.32-11,29.22-3.41,52.87-7.46,69.23-12,8.18-2.25,14.54-4.62,18.86-7.08,3.69-2.1,5.91-4.29,6.48-6.55h0.11V455Z"/><ellipse class="cls-3" cx="362.87" cy="403.44" rx="322.86" ry="37.63"/><path class="cls-3" d="M685.87,403.53c0-.14,0-0.29,0-0.43s0-.29,0-0.43V350.88H40.07s-0.25,51.74-.25,52.22c0,2.67,2.32,5.24,6.64,7.71,15.13,8.61,55.2,16.11,111,21.48s127.37,8.59,205.39,8.59c89.16,0,169.88-4.21,228.32-11,29.22-3.41,52.87-7.46,69.23-12,8.18-2.25,14.54-4.62,18.86-7.08,3.69-2.1,5.91-4.29,6.48-6.55h0.11v-0.73Z"/><ellipse class="cls-3" cx="362.87" cy="351.97" rx="322.86" ry="37.63"/><path class="cls-3" d="M685.87,352.06c0-.14,0-0.29,0-0.43s0-.29,0-0.43V299.4H40.07s-0.25,51.74-.25,52.22c0,2.67,2.32,5.24,6.64,7.71,15.13,8.61,55.2,16.11,111,21.48s127.37,8.59,205.39,8.59c89.16,0,169.88-4.21,228.32-11,29.22-3.41,52.87-7.46,69.23-12,8.18-2.25,14.54-4.62,18.86-7.08,3.69-2.1,5.91-4.29,6.48-6.55h0.11v-0.73Z"/><ellipse class="cls-3" cx="362.87" cy="300.49" rx="322.86" ry="37.63"/><path class="cls-3" d="M685.87,302.06c0-.14,0-0.29,0-0.43s0-.29,0-0.43V249.4H40.07s-0.25,51.74-.25,52.22c0,2.67,2.32,5.24,6.64,7.71,15.13,8.61,55.2,16.11,111,21.48s127.37,8.59,205.39,8.59c89.16,0,169.88-4.21,228.32-11,29.22-3.41,52.87-7.46,69.23-12,8.18-2.25,14.54-4.62,18.86-7.08,3.69-2.1,5.91-4.29,6.48-6.55h0.11v-0.73Z"/><ellipse class="cls-3" cx="362.87" cy="250.49" rx="322.86" ry="37.63"/><path class="cls-3" d="M685.87,251.06c0-.14,0-0.29,0-0.43s0-.29,0-0.43V198.4H40.07s-0.25,51.74-.25,52.22c0,2.67,2.32,5.24,6.64,7.71,15.13,8.61,55.2,16.11,111,21.48s127.37,8.59,205.39,8.59c89.16,0,169.88-4.21,228.32-11,29.22-3.41,52.87-7.46,69.23-12,8.18-2.25,14.54-4.62,18.86-7.08,3.69-2.1,5.91-4.29,6.48-6.55h0.11v-0.73Z"/><ellipse class="cls-3" cx="362.87" cy="199.49" rx="322.86" ry="37.63"/><path class="cls-4" d="M362.86,208.64c-16,0-29-3.75-30.2-8.61h-0.08l0-.5V8.27h60.63V200h-0.12C391.83,204.89,378.83,208.64,362.86,208.64Z"/><path class="cls-5" d="M392.68,8.77V199.53h0c-0.49,4.78-13.63,8.61-29.79,8.61s-29.3-3.83-29.79-8.61h0v-0.21s0,0,0-.06,0,0,0-.06V8.77h59.63m1-1H332.05V199.15s0,0.07,0,.11v1.27h0.22c1.05,3,5.66,4.94,9.53,6.06a88,88,0,0,0,42.09,0c3.87-1.12,8.48-3.05,9.53-6.06h0.21l0-1V7.77h0Z"/><ellipse class="cls-6" cx="362.86" cy="8.89" rx="29.81" ry="8.89"/><path class="cls-4" d="M47.86,296.75c0-1,0-1.45,0-2.42l2.58,0.41v-6.16l-2.6-.41c0-1,0-1.45,0-2.42l2.6,0.41v-0.61a3.71,3.71,0,0,1,.36-1.73,2.85,2.85,0,0,1,1-1.08,3.27,3.27,0,0,1,1.37-.5,5.48,5.48,0,0,1,1.61,0,11.06,11.06,0,0,1,2.48.64,7.49,7.49,0,0,1,1.61.87L58,285.81a11.5,11.5,0,0,0-1.08-.61,5.19,5.19,0,0,0-1.5-.43,1.89,1.89,0,0,0-1.65.28,2.11,2.11,0,0,0-.47,1.54l4.59,0.71v2.42L53.29,289v6.16l4.62,0.71v2.42C53.88,297.7,51.88,297.39,47.86,296.75Z"/><path class="cls-4" d="M61.4,288.59a10.69,10.69,0,0,1,2-.38,11.3,11.3,0,0,1,2.72.12,6.61,6.61,0,0,1,1.94.56,4,4,0,0,1,1.29,1,3.59,3.59,0,0,1,.71,1.32,5.66,5.66,0,0,1,.22,1.62q0,1.12-.08,1.9c-0.05.52-.08,1-0.08,1.4a9.68,9.68,0,0,0,0,1c0,0.2.05,0.41,0.07,0.6L71.69,298c0,1,0,1.45,0,2.42L68,299.84l-0.29-1.54-0.11,0a3,3,0,0,1-1.24,1,3.85,3.85,0,0,1-2.18.17,4.29,4.29,0,0,1-2.59-1.27,3.5,3.5,0,0,1-1-2.48,3.19,3.19,0,0,1,.34-1.54,2.27,2.27,0,0,1,1-1,4.07,4.07,0,0,1,1.54-.41,8.83,8.83,0,0,1,2,.09c0.26,0,.54.1,0.83,0.17l1.07,0.25a2.15,2.15,0,0,0,0-.43v-0.42a1.63,1.63,0,0,0-.48-1.27,2.64,2.64,0,0,0-1.41-.57,6.35,6.35,0,0,0-2,0,11.45,11.45,0,0,0-1.5.35Zm3.72,8.63a2.41,2.41,0,0,0,1.56-.15,2.07,2.07,0,0,0,.76-0.71V295l-0.65-.2a7.77,7.77,0,0,0-.93-0.19,4.41,4.41,0,0,0-.82,0,2.45,2.45,0,0,0-.74.13,1.18,1.18,0,0,0-.52.35,0.92,0.92,0,0,0-.19.61,1.45,1.45,0,0,0,.36,1A1.93,1.93,0,0,0,65.13,297.23Z"/><path class="cls-4" d="M84.52,301.16a5.42,5.42,0,0,1-2.1.73,8.91,8.91,0,0,1-2.52,0,7.82,7.82,0,0,1-2.53-.78,6.29,6.29,0,0,1-1.86-1.45,6,6,0,0,1-1.15-2,7.38,7.38,0,0,1-.39-2.43,5.74,5.74,0,0,1,.46-2.4,4.22,4.22,0,0,1,1.28-1.64,4.65,4.65,0,0,1,1.94-.85,7.18,7.18,0,0,1,2.43,0,9.65,9.65,0,0,1,2.3.61,12.2,12.2,0,0,1,1.64.78c0,1.55,0,2.32,0,3.87l-2.41-.34c0-.81,0-1.21,0-2a6.58,6.58,0,0,0-1.36-.35,3.94,3.94,0,0,0-1.22,0,2.46,2.46,0,0,0-1.84,1.35,3.11,3.11,0,0,0-.3,1.43,3.7,3.7,0,0,0,.24,1.33,3.7,3.7,0,0,0,1.76,2,4.31,4.31,0,0,0,1.43.46,4.87,4.87,0,0,0,2-.06,7,7,0,0,0,1.19-.45Z"/><path class="cls-4" d="M88.25,294.15l-2.17-.3c0-1,0-1.45,0-2.42l2.17,0.3v-2.51l2.85-.42c0,1.33,0,2,0,3.32l5.74,0.77c0,1,0,1.45,0,2.42l-5.74-.77c0,1.26,0,1.89,0,3.15a4.2,4.2,0,0,0,.64,2.54,2.55,2.55,0,0,0,1.78,1,3.67,3.67,0,0,0,1.07,0,3.52,3.52,0,0,0,.87-0.25,4.12,4.12,0,0,0,.7-0.39l0.58-.41L98,302.34a3.5,3.5,0,0,1-.93.68,6.68,6.68,0,0,1-1.21.48,7,7,0,0,1-1.35.25,6.26,6.26,0,0,1-1.38,0,5.44,5.44,0,0,1-3.69-1.88,7.13,7.13,0,0,1-1.24-4.54v-3.15Z"/><path class="cls-4" d="M99.62,298.76a6.35,6.35,0,0,1,.42-2.41,4.21,4.21,0,0,1,1.18-1.67,4.31,4.31,0,0,1,1.83-.89,6.71,6.71,0,0,1,2.38-.08,7.47,7.47,0,0,1,2.47.73,6.09,6.09,0,0,1,1.83,1.41,5.83,5.83,0,0,1,1.13,2,7.46,7.46,0,0,1,.38,2.42,6.39,6.39,0,0,1-.42,2.41,4.25,4.25,0,0,1-1.19,1.68,4.3,4.3,0,0,1-1.83.9,6.7,6.7,0,0,1-2.38.08,7.43,7.43,0,0,1-2.47-.74,6.1,6.1,0,0,1-1.83-1.42,5.86,5.86,0,0,1-1.13-2A7.49,7.49,0,0,1,99.62,298.76Zm2.94,0.39a4.63,4.63,0,0,0,.2,1.37,3.85,3.85,0,0,0,.57,1.15,3.13,3.13,0,0,0,.9.83,3,3,0,0,0,1.21.41,2.49,2.49,0,0,0,2.07-.55,3.19,3.19,0,0,0,.8-2.47,4.24,4.24,0,0,0-.75-2.55,3,3,0,0,0-2.13-1.21,3.29,3.29,0,0,0-1.14,0,1.9,1.9,0,0,0-.91.49,2.5,2.5,0,0,0-.6,1A4.48,4.48,0,0,0,102.56,299.14Z"/><path class="cls-4" d="M112.87,303.54l2.72,0.34v-6.16l-2.72-.34c0-1,0-1.45,0-2.42l4.94,0.61,0.33,1.49h0.09a4.85,4.85,0,0,1,1.4-1,3.23,3.23,0,0,1,1.84-.26,2.87,2.87,0,0,1,2.07,1.22,5.78,5.78,0,0,1,.76,3.32l-2.57-.31a2.38,2.38,0,0,0-.23-1.18,0.93,0.93,0,0,0-.74-0.45,2,2,0,0,0-1.42.27,3.71,3.71,0,0,0-.91.9v4.69l4.76,0.58v2.42c-4.14-.5-6.2-0.75-10.34-1.27C112.87,305,112.87,304.51,112.87,303.54Z"/><path class="cls-4" d="M126.48,305.2l3.86,0.45c0-2.46,0-3.7,0-6.16l-3.86-.45v-2.42l6.72,0.78c0,3.43,0,5.15,0,8.58l4.06,0.46c0,1,0,1.45,0,2.42-4.31-.49-6.47-0.74-10.78-1.24V305.2ZM129.81,294a1.38,1.38,0,0,1,.5-1.11,1.78,1.78,0,0,1,1.41-.32,2.4,2.4,0,0,1,1.47.65,1.7,1.7,0,0,1,.55,1.23,1.26,1.26,0,0,1-.55,1.09,2.07,2.07,0,0,1-1.47.28,2.27,2.27,0,0,1-1.41-.61A1.66,1.66,0,0,1,129.81,294Z"/><path class="cls-4" d="M140.33,299a11.07,11.07,0,0,1,2-.46,11.38,11.38,0,0,1,2.74,0A6.47,6.47,0,0,1,147,299a3.77,3.77,0,0,1,1.3.92,3.41,3.41,0,0,1,.71,1.29,5.55,5.55,0,0,1,.22,1.61c0,0.75,0,1.38-.08,1.91s-0.08,1-.08,1.4a9.69,9.69,0,0,0,0,1c0,0.2.05,0.41,0.07,0.6l1.43,0.15v2.42l-3.69-.39-0.29-1.53h-0.11a3.24,3.24,0,0,1-1.24,1,3.93,3.93,0,0,1-2.18.26,4.12,4.12,0,0,1-2.6-1.17,3.36,3.36,0,0,1-1-2.44,3.28,3.28,0,0,1,.34-1.56,2.41,2.41,0,0,1,1-1,4.23,4.23,0,0,1,1.55-.47,8.87,8.87,0,0,1,2,0c0.26,0,.54.07,0.83,0.14l1.07,0.2a2.25,2.25,0,0,0,0-.43v-0.42a1.56,1.56,0,0,0-.48-1.25,2.55,2.55,0,0,0-1.42-.52,6.42,6.42,0,0,0-2,.07,11.75,11.75,0,0,0-1.5.41Zm3.74,8.49a2.47,2.47,0,0,0,1.56-.21,2.19,2.19,0,0,0,.76-0.74v-1.32l-0.65-.17a7.68,7.68,0,0,0-.93-0.16,4.41,4.41,0,0,0-.83,0,2.54,2.54,0,0,0-.74.16,1.25,1.25,0,0,0-.52.37,1,1,0,0,0-.2.62,1.4,1.4,0,0,0,.36,1A1.86,1.86,0,0,0,144.07,307.44Z"/><path class="cls-4" d="M153.45,295.22l4.68,0.48c0,4.07,0,6.1,0,10.16a5,5,0,0,0,.42,2.4,1.65,1.65,0,0,0,1.34.8,3.62,3.62,0,0,0,1.12,0,3.83,3.83,0,0,0,.88-0.32L163,310.8q-0.37.2-.75,0.38a4.4,4.4,0,0,1-.79.27,5.07,5.07,0,0,1-.91.13,7.12,7.12,0,0,1-1.11,0,4.59,4.59,0,0,1-3.1-1.37,4.49,4.49,0,0,1-1-3.1c0-3.7,0-5.54,0-9.24l-1.82-.19C153.45,296.67,153.45,296.19,153.45,295.22Z"/><path class="cls-4" d="M166.44,314.51l9.77,0.93c0,0.94,0,1.41,0,2.35l-9.77-.93C166.44,315.92,166.44,315.45,166.44,314.51Z"/><path class="cls-4" d="M177.92,297.63l4.44,0.41c0,2.25,0,3.38,0,5.63h0.09a3.27,3.27,0,0,1,1.41-1,4.6,4.6,0,0,1,2.07-.23,5.41,5.41,0,0,1,1.54.35,3.28,3.28,0,0,1,1.21.83,3.82,3.82,0,0,1,.79,1.44,7.19,7.19,0,0,1,.29,2.17c0,2.74,0,4.1,0,6.84l-2.86-.25c0-2.5,0-3.75,0-6.25a2.92,2.92,0,0,0-.57-2,2.17,2.17,0,0,0-1.5-.73,2.33,2.33,0,0,0-1.5.36,2.37,2.37,0,0,0-1,1.18c0,2.81,0,4.21,0,7l-2.86-.26c0-5.19,0-7.79,0-13l-1.58-.15C177.92,299.08,177.92,298.6,177.92,297.63Z"/><path class="cls-4" d="M202.88,314a3.48,3.48,0,0,1-.74.46,6.67,6.67,0,0,1-1.06.39,7.74,7.74,0,0,1-1.33.24,8.47,8.47,0,0,1-1.54,0,7.82,7.82,0,0,1-2.52-.6,5.55,5.55,0,0,1-3.06-3.24,7.07,7.07,0,0,1-.41-2.47,6.18,6.18,0,0,1,.46-2.5,4.53,4.53,0,0,1,1.27-1.71,4.76,4.76,0,0,1,1.88-.93,7.12,7.12,0,0,1,2.33-.17,7.54,7.54,0,0,1,1.73.36,5.2,5.2,0,0,1,1.64.89,4.58,4.58,0,0,1,1.22,1.54,5.13,5.13,0,0,1,.47,2.32,10.24,10.24,0,0,1-.22,2l-7.92-.65a2.56,2.56,0,0,0,1,2.06,3.43,3.43,0,0,0,1,.54,5.43,5.43,0,0,0,1.24.24,6.26,6.26,0,0,0,2.17-.13,4.16,4.16,0,0,0,1.38-.64Zm-4.76-8.24a3.54,3.54,0,0,0-1.08.07,2.75,2.75,0,0,0-.91.39,2.23,2.23,0,0,0-.67.69,2.16,2.16,0,0,0-.31,1l5.42,0.45A2.39,2.39,0,0,0,198.12,305.77Z"/><path class="cls-4" d="M206.25,300l4.69,0.36c0,4.07,0,6.1,0,10.16a4.92,4.92,0,0,0,.42,2.39,1.6,1.6,0,0,0,1.34.76,3.64,3.64,0,0,0,1.12-.06,3.92,3.92,0,0,0,.88-0.34l1.08,2.06q-0.37.21-.75,0.4a4.54,4.54,0,0,1-.79.29,5.16,5.16,0,0,1-.91.15,7.17,7.17,0,0,1-1.11,0,4.47,4.47,0,0,1-3.11-1.29,4.39,4.39,0,0,1-1-3.07c0-3.7,0-5.54,0-9.24l-1.83-.14C206.25,301.49,206.25,301,206.25,300Z"/><path class="cls-4" d="M217.54,305.29l3.74,0.27,0.33,1.34h0.09a3.94,3.94,0,0,1,3.7-1.37,5.48,5.48,0,0,1,1.86.44,4,4,0,0,1,1.45,1.1,5.11,5.11,0,0,1,.94,1.78,8.41,8.41,0,0,1,.33,2.51,7.86,7.86,0,0,1-.38,2.52,5,5,0,0,1-1.08,1.85,4.22,4.22,0,0,1-1.72,1.1,5.85,5.85,0,0,1-2.31.26,9.18,9.18,0,0,1-1.34-.19,4,4,0,0,1-1.1-.4c0,1.8,0,2.71,0,4.51l-2.86-.2c0-5.19,0-7.79,0-13l-1.65-.12v-2.42Zm7,2.61a2.79,2.79,0,0,0-1.53.31,2,2,0,0,0-1,1.19V314a2.59,2.59,0,0,0,.89.45,5.06,5.06,0,0,0,1.18.22,3,3,0,0,0,1.14-.13,2.13,2.13,0,0,0,.93-0.61,3,3,0,0,0,.62-1.12,5.56,5.56,0,0,0,.22-1.68,3.45,3.45,0,0,0-.71-2.29A2.46,2.46,0,0,0,224.55,307.9Z"/><path class="cls-4" d="M242.53,316.78a3.56,3.56,0,0,1-.74.47,6.79,6.79,0,0,1-1.06.41,7.85,7.85,0,0,1-1.33.27,8.51,8.51,0,0,1-1.54,0,7.73,7.73,0,0,1-2.52-.55,5.39,5.39,0,0,1-3.06-3.18,7,7,0,0,1-.41-2.46,6.24,6.24,0,0,1,.46-2.51,4.65,4.65,0,0,1,1.27-1.73,4.88,4.88,0,0,1,1.88-1,7.17,7.17,0,0,1,2.34-.21,7.46,7.46,0,0,1,1.73.33,5.08,5.08,0,0,1,1.64.86,4.45,4.45,0,0,1,1.22,1.52,5.07,5.07,0,0,1,.47,2.32,10.29,10.29,0,0,1-.22,2l-7.93-.49a2.64,2.64,0,0,0,.3,1.21,2.61,2.61,0,0,0,.73.84,3.35,3.35,0,0,0,1,.52,5.39,5.39,0,0,0,1.25.22,6.32,6.32,0,0,0,2.17-.17,4.26,4.26,0,0,0,1.38-.66Zm-4.76-8.14a3.56,3.56,0,0,0-1.08.09,2.81,2.81,0,0,0-.91.4,2.29,2.29,0,0,0-.67.71,2.2,2.2,0,0,0-.31,1l5.42,0.34A2.33,2.33,0,0,0,237.77,308.63Z"/><path class="cls-4" d="M244.84,315.66l2.73,0.16v-6.16l-2.73-.16v-2.42l5,0.29,0.33,1.47h0.09a5.38,5.38,0,0,1,1.41-1.13,3.37,3.37,0,0,1,1.85-.38,2.66,2.66,0,0,1,2.08,1.08,5.5,5.5,0,0,1,.76,3.27l-2.58-.14a2.28,2.28,0,0,0-.23-1.17,0.86,0.86,0,0,0-.74-0.4,2.09,2.09,0,0,0-1.42.36,4.06,4.06,0,0,0-.91,1V316l4.78,0.26v2.42c-4.15-.22-6.23-0.34-10.38-0.58v-2.42Z"/><path class="cls-4" d="M267.24,323.93a10.72,10.72,0,0,1-3-1.11,9.37,9.37,0,0,1-2.58-2.09,10,10,0,0,1-1.8-3.08,11.71,11.71,0,0,1-.67-4.13,11.16,11.16,0,0,1,.67-4,9,9,0,0,1,1.8-2.93,8.33,8.33,0,0,1,2.58-1.87,10.52,10.52,0,0,1,3-.89l0.53,2.38a8.78,8.78,0,0,0-1.75.54,6,6,0,0,0-1.86,1.25,6.87,6.87,0,0,0-1.49,2.23,8.68,8.68,0,0,0-.61,3.49,8.35,8.35,0,0,0,.64,3.44,8.07,8.07,0,0,0,1.56,2.35,7.37,7.37,0,0,0,1.89,1.43,7.87,7.87,0,0,0,1.63.66Z"/><path class="cls-4" d="M275.9,317.55a4.46,4.46,0,0,0,1.33-.13,3,3,0,0,0,1-.48,2.4,2.4,0,0,0,.67-0.76,2,2,0,0,0,.24-1,2,2,0,0,0-1-1.86,3.83,3.83,0,0,0-1.17-.42,9.51,9.51,0,0,0-1.48-.17l-1.23-.05v-1.58l3.71-4.36-5.58-.24v-2.42l9,0.38v2l-3.88,4.26,0.51,0a4.49,4.49,0,0,1,1.5.33,3.94,3.94,0,0,1,1.29.84,4.14,4.14,0,0,1,.9,1.36,4.67,4.67,0,0,1,.34,1.84,4.38,4.38,0,0,1-.52,2.18,4.74,4.74,0,0,1-1.37,1.54,5.57,5.57,0,0,1-2,.89,8,8,0,0,1-2.27.22,11.45,11.45,0,0,1-2-.26,9.85,9.85,0,0,1-1.92-.64l0.77-2.34a3.35,3.35,0,0,0,.54.24l0.77,0.25a8.73,8.73,0,0,0,.88.21A6.23,6.23,0,0,0,275.9,317.55Z"/><path class="cls-4" d="M289.14,318.08a4.47,4.47,0,0,0,1.33-.14,3,3,0,0,0,1-.49,2.41,2.41,0,0,0,.67-0.77,2,2,0,0,0,.24-1,2.12,2.12,0,0,0-.28-1.12,2.09,2.09,0,0,0-.76-0.74,3.81,3.81,0,0,0-1.17-.41,9.49,9.49,0,0,0-1.48-.16l-1.23,0v-1.58l3.71-4.38-5.58-.21v-2.42l9,0.33v2l-3.88,4.29,0.51,0a4.47,4.47,0,0,1,1.5.32,3.9,3.9,0,0,1,1.29.84,4.1,4.1,0,0,1,.9,1.35,4.65,4.65,0,0,1,.34,1.84,4.4,4.4,0,0,1-.52,2.18,4.78,4.78,0,0,1-1.37,1.55,5.62,5.62,0,0,1-2,.9,8,8,0,0,1-2.27.24,11.43,11.43,0,0,1-2-.25,9.78,9.78,0,0,1-1.92-.62l0.77-2.34a3.35,3.35,0,0,0,.54.24l0.77,0.25a8.73,8.73,0,0,0,.88.21A6.22,6.22,0,0,0,289.14,318.08Z"/><path class="cls-4" d="M308.44,320.8l-9.84-.29v-2.13l0.66-.56,0.89-.8c0.33-.3.68-0.63,1-1s0.73-.73,1.08-1.11q0.75-.81,1.31-1.48a10.37,10.37,0,0,0,.93-1.26,5.12,5.12,0,0,0,.54-1.17,4.07,4.07,0,0,0,.18-1.19A2,2,0,0,0,305,309a2.45,2.45,0,0,0-.55-0.75,2.76,2.76,0,0,0-.85-0.53,3.12,3.12,0,0,0-1.09-.22,4,4,0,0,0-1.44.2,4.76,4.76,0,0,0-1.36.77l-1.15-2.06a9.36,9.36,0,0,1,2.06-1,7,7,0,0,1,2.61-.37,6.35,6.35,0,0,1,1.82.32,5,5,0,0,1,1.54.83,4,4,0,0,1,1.07,1.32,3.91,3.91,0,0,1,.4,1.79,6.61,6.61,0,0,1-.12,1.31,6.22,6.22,0,0,1-.37,1.2,7.91,7.91,0,0,1-.66,1.22c-0.27.42-.6,0.87-1,1.36s-0.61.75-1,1.13-0.69.74-1,1.08-0.67.66-1,1-0.63.55-.89,0.74l6.35,0.18v2.42Z"/><path class="cls-4" d="M322.18,316.36a4.84,4.84,0,0,1-.41,2,4.9,4.9,0,0,1-1.11,1.58,5,5,0,0,1-1.69,1,5.51,5.51,0,0,1-2.11.35,6.33,6.33,0,0,1-2.15-.41,5,5,0,0,1-1.75-1.13,5.37,5.37,0,0,1-1.19-1.86,6.9,6.9,0,0,1-.44-2.56,9.86,9.86,0,0,1,.76-3.94,10.57,10.57,0,0,1,2-3,9.85,9.85,0,0,1,2.67-2,8.78,8.78,0,0,1,2.94-1l0.64,2.28a8.41,8.41,0,0,0-2.18.67,7.8,7.8,0,0,0-1.81,1.16A7,7,0,0,0,315,311a5.36,5.36,0,0,0-.74,1.76,3.28,3.28,0,0,1,1.32-.9,4.76,4.76,0,0,1,1.94-.34,5.38,5.38,0,0,1,1.85.36,4.36,4.36,0,0,1,1.49,1,4.45,4.45,0,0,1,1,1.5A5.26,5.26,0,0,1,322.18,316.36Zm-2.78.05a2.3,2.3,0,0,0-.72-1.82,2.92,2.92,0,0,0-1.93-.66,3.15,3.15,0,0,0-1.59.36,2.71,2.71,0,0,0-1,.9,3.74,3.74,0,0,0-.06.54c0,0.2,0,.36,0,0.47a3,3,0,0,0,.18,1,2.5,2.5,0,0,0,1.35,1.45,2.88,2.88,0,0,0,1.13.23,2.7,2.7,0,0,0,1-.16,2.75,2.75,0,0,0,.86-0.5,2.46,2.46,0,0,0,.61-0.79A2.31,2.31,0,0,0,319.41,316.41Z"/><path class="cls-4" d="M336.11,317.07l-2.65,0v4.29l-2.67,0V317l-6.69-.12v-2l7-9.14,2.36,0v8.93l2.65,0v2.29Zm-5.32-7.25L327,314.64l3.84,0.06v-4.88Z"/><path class="cls-4" d="M337.45,313.66a13,13,0,0,1,.42-3.5,7.11,7.11,0,0,1,1.18-2.48,4.85,4.85,0,0,1,1.83-1.47,5.53,5.53,0,0,1,2.37-.47,5.17,5.17,0,0,1,4.3,2q1.5,2,1.51,6.05a13.12,13.12,0,0,1-.42,3.53,7.3,7.3,0,0,1-1.19,2.5,4.79,4.79,0,0,1-1.84,1.48,5.6,5.6,0,0,1-2.38.47,5,5,0,0,1-4.3-2.1A10.22,10.22,0,0,1,337.45,313.66Zm2.87,0c0,0.22,0,.43,0,0.63s0,0.4,0,.6l5.34-4.85a2.5,2.5,0,0,0-2.47-1.91,2.33,2.33,0,0,0-2.16,1.33A8.92,8.92,0,0,0,340.32,313.69Zm5.87,0.06c0-.23,0-0.46,0-0.67s0-.42,0-0.63l-5.36,4.85a2.55,2.55,0,0,0,2.47,2,2.36,2.36,0,0,0,2.17-1.32A9,9,0,0,0,346.19,313.75Z"/><path class="cls-4" d="M354.67,320.11a1.5,1.5,0,0,1,.5-1.19,1.81,1.81,0,0,1,1.25-.44,2.19,2.19,0,0,1,1.83.8,3.1,3.1,0,0,1,.62,2,4.13,4.13,0,0,1-.39,1.8,4.73,4.73,0,0,1-1,1.41,5.41,5.41,0,0,1-1.38,1,5.59,5.59,0,0,1-1.51.5l-0.6-1.21a6.46,6.46,0,0,0,1.07-.37,4.32,4.32,0,0,0,1-.6,3.37,3.37,0,0,0,.74-0.84,2.34,2.34,0,0,0,.34-1.06,2.81,2.81,0,0,1-1.13,0,1.71,1.71,0,0,1-.76-0.35,1.46,1.46,0,0,1-.43-0.62A2.27,2.27,0,0,1,354.67,320.11Z"/><path class="cls-4" d="M368.33,319.31a4.86,4.86,0,0,0,1.35-.18,3.4,3.4,0,0,0,1.07-.51,2.29,2.29,0,0,0,1-1.92,2.21,2.21,0,0,0-1-1.9,4.92,4.92,0,0,0-2.88-.68H367.3l-0.61,0-0.68,0v-8.05l8,0v2.69l-5.52,0c0,1.19,0,1.78,0,3l0.35,0h0.55a6.41,6.41,0,0,1,2.05.31,4.63,4.63,0,0,1,1.65.95,4.32,4.32,0,0,1,1.09,1.54,5.51,5.51,0,0,1-.1,4.29,4.77,4.77,0,0,1-1.32,1.65,6,6,0,0,1-1.94,1,7.94,7.94,0,0,1-2.36.35,5.85,5.85,0,0,1-1-.1c-0.37-.07-0.73-0.15-1.08-0.24a9.57,9.57,0,0,1-1-.32c-0.3-.12-0.56-0.23-0.76-0.33l0.93-2.29a6.68,6.68,0,0,0,1.16.48A5.07,5.07,0,0,0,368.33,319.31Z"/><path class="cls-4" d="M379,323.74a7.57,7.57,0,0,0,1.63-.6,7,7,0,0,0,1.89-1.36,7.66,7.66,0,0,0,1.56-2.29,8.17,8.17,0,0,0,.64-3.42,8.88,8.88,0,0,0-.61-3.51,7.27,7.27,0,0,0-1.49-2.28,6.34,6.34,0,0,0-1.87-1.32,9.11,9.11,0,0,0-1.75-.61l0.53-2.36a10.89,10.89,0,0,1,3,1,8.81,8.81,0,0,1,2.58,2,9.43,9.43,0,0,1,1.8,3,12.74,12.74,0,0,1,0,8.17,9.46,9.46,0,0,1-1.8,3,8.87,8.87,0,0,1-2.58,2,10.35,10.35,0,0,1-3,1Z"/><path class="cls-4" d="M443.39,317.51l2.73-.11v-6.16l-2.73.11v-2.42l5-.2,0.33,1.44h0.09a6.23,6.23,0,0,1,1.41-1.27,3.62,3.62,0,0,1,1.85-.57,2.4,2.4,0,0,1,2.08.88,5.14,5.14,0,0,1,.76,3.2l-2.58.12a2.15,2.15,0,0,0-.23-1.15,0.78,0.78,0,0,0-.74-0.33,2.27,2.27,0,0,0-1.42.5,4.7,4.7,0,0,0-.92,1.05v4.69l4.78-.21v2.42c-4.15.19-6.23,0.28-10.39,0.44v-2.42Z"/><path class="cls-4" d="M467.53,317.65a4.17,4.17,0,0,1-.74.56,7.69,7.69,0,0,1-1.06.53,8.52,8.52,0,0,1-1.33.42,8.76,8.76,0,0,1-1.54.21,7.34,7.34,0,0,1-2.52-.27,4.61,4.61,0,0,1-3.07-2.83,7.33,7.33,0,0,1,.05-5,5.43,5.43,0,0,1,1.27-1.87,5.64,5.64,0,0,1,1.89-1.18,7.54,7.54,0,0,1,2.34-.48,7.14,7.14,0,0,1,1.73.13,4.47,4.47,0,0,1,1.64.68,3.78,3.78,0,0,1,1.22,1.38,4.74,4.74,0,0,1,.47,2.26,10.65,10.65,0,0,1-.22,2.06l-7.94.4a2.44,2.44,0,0,0,.3,1.17,2.21,2.21,0,0,0,.73.76,3,3,0,0,0,1,.4,5.19,5.19,0,0,0,1.25.08,6.61,6.61,0,0,0,2.17-.42,4.9,4.9,0,0,0,1.38-.82ZM462.77,310a3.74,3.74,0,0,0-1.08.21,3.21,3.21,0,0,0-.92.51,2.7,2.7,0,0,0-.67.78,2.41,2.41,0,0,0-.31,1l5.42-.27A2.06,2.06,0,0,0,462.77,310Z"/><path class="cls-4" d="M481,317a6.8,6.8,0,0,1-2.12,1.14,9.52,9.52,0,0,1-2.54.49,7,7,0,0,1-2.55-.28,4.83,4.83,0,0,1-1.87-1.07,4.64,4.64,0,0,1-1.16-1.77,6.66,6.66,0,0,1-.4-2.36,6.36,6.36,0,0,1,.46-2.49,5.59,5.59,0,0,1,1.29-1.9,6,6,0,0,1,2-1.24,7.76,7.76,0,0,1,2.45-.52,8.88,8.88,0,0,1,2.31.15,10.2,10.2,0,0,1,1.65.45v3.87l-2.42.14v-2a6.08,6.08,0,0,0-1.37-.08,4.25,4.25,0,0,0-1.22.26,3.22,3.22,0,0,0-1.08.65,3.35,3.35,0,0,0-.77,1.07,3.47,3.47,0,0,0-.3,1.49,3.31,3.31,0,0,0,.24,1.29,2.81,2.81,0,0,0,1.77,1.63,3.86,3.86,0,0,0,1.44.17,5.31,5.31,0,0,0,2.06-.47,8.93,8.93,0,0,0,1.2-.69Z"/><path class="cls-4" d="M489.48,306.56l4.1-.26v8.58l1.68-.11v2.42l-3.48.23-0.51-1.59h-0.09a4.28,4.28,0,0,1-1.52,1.48,4.85,4.85,0,0,1-2.25.69,5,5,0,0,1-1.53-.13,2.55,2.55,0,0,1-1.18-.65,3.13,3.13,0,0,1-.75-1.32,7.26,7.26,0,0,1-.27-2.14v-4.42l-1.26.08V307l4.12-.25V313a3.23,3.23,0,0,0,.43,1.91,1.47,1.47,0,0,0,1.36.51,2.54,2.54,0,0,0,1.47-.58,2.85,2.85,0,0,0,.91-1.25V308.9l-1.23.08v-2.42Z"/><path class="cls-4" d="M496.29,314.7l2.73-.18v-6.16l-2.73.18v-2.42l5-.34,0.33,1.43h0.09a6.47,6.47,0,0,1,1.41-1.31,3.7,3.7,0,0,1,1.85-.61,2.33,2.33,0,0,1,2.08.82,5,5,0,0,1,.76,3.18l-2.58.18a2.12,2.12,0,0,0-.23-1.14,0.75,0.75,0,0,0-.74-0.31,2.32,2.32,0,0,0-1.42.54,4.88,4.88,0,0,0-.91,1.08v4.69l4.78-.34v2.42c-4.15.3-6.22,0.44-10.37,0.72V314.7Z"/><path class="cls-4" d="M518.67,320.17a9.63,9.63,0,0,1-3-.74,7.85,7.85,0,0,1-2.58-1.76,8.46,8.46,0,0,1-1.79-2.86,11,11,0,0,1-.67-4,11.87,11.87,0,0,1,.67-4.13,10.54,10.54,0,0,1,1.79-3.16,10,10,0,0,1,2.58-2.2,11.82,11.82,0,0,1,3-1.27l0.53,2.31a9.9,9.9,0,0,0-1.75.76,7.14,7.14,0,0,0-1.86,1.48A8.14,8.14,0,0,0,514.1,307a9.26,9.26,0,0,0-.61,3.56,7.8,7.8,0,0,0,.64,3.36,6.79,6.79,0,0,0,1.55,2.16,6.19,6.19,0,0,0,1.88,1.2,7,7,0,0,0,1.63.46Z"/><path class="cls-4" d="M524.19,312.65l3.37-.27v-9.61l-2.91,2.46-1.32-1.66,5-4.24,1.94-.16v13l3.3-.28v2.42l-9.4.78v-2.42Z"/><path class="cls-4" d="M536.78,316.59l9.77-.87v2.35l-9.77.87v-2.35Z"/><path class="cls-4" d="M560.28,307.07a5.2,5.2,0,0,1-.41,2,5.76,5.76,0,0,1-1.11,1.71,6,6,0,0,1-3.78,1.84,6,6,0,0,1-2.14-.16,4.31,4.31,0,0,1-1.75-.92,4.57,4.57,0,0,1-1.19-1.72,6.52,6.52,0,0,1-.44-2.51,10.55,10.55,0,0,1,.76-4,12.38,12.38,0,0,1,1.95-3.27,11.68,11.68,0,0,1,2.66-2.36,9.83,9.83,0,0,1,2.93-1.31l0.64,2.2a9.38,9.38,0,0,0-2.18.93,9.18,9.18,0,0,0-1.8,1.37,8.32,8.32,0,0,0-1.33,1.69,6.07,6.07,0,0,0-.74,1.85,3.87,3.87,0,0,1,1.32-1.06,5.36,5.36,0,0,1,3.78-.43,3.73,3.73,0,0,1,1.48.78,3.79,3.79,0,0,1,1,1.39A5,5,0,0,1,560.28,307.07Zm-2.77.38a2,2,0,0,0-.71-1.73,2.65,2.65,0,0,0-1.93-.43,3.44,3.44,0,0,0-1.58.55,3.21,3.21,0,0,0-1,1,3.9,3.9,0,0,0-.06.54c0,0.2,0,.36,0,0.47a2.8,2.8,0,0,0,.18,1,2.12,2.12,0,0,0,1.34,1.29,2.71,2.71,0,0,0,1.12.1,2.89,2.89,0,0,0,1-.28,3.22,3.22,0,0,0,.86-0.6,2.9,2.9,0,0,0,.6-0.86A2.5,2.5,0,0,0,557.51,307.45Z"/><path class="cls-4" d="M573.47,305.72a5.22,5.22,0,0,1-.41,2,5.82,5.82,0,0,1-1.11,1.72,6.14,6.14,0,0,1-5.92,1.72,4.27,4.27,0,0,1-1.75-.91,4.52,4.52,0,0,1-1.19-1.71,6.49,6.49,0,0,1-.44-2.51,10.59,10.59,0,0,1,.76-4,12.49,12.49,0,0,1,1.94-3.29,11.79,11.79,0,0,1,2.66-2.38,9.89,9.89,0,0,1,2.92-1.33l0.64,2.2a9.44,9.44,0,0,0-2.18.94,9.25,9.25,0,0,0-1.8,1.38,8.41,8.41,0,0,0-1.33,1.7,6.11,6.11,0,0,0-.74,1.86,3.91,3.91,0,0,1,1.32-1.07,5.37,5.37,0,0,1,3.78-.45,3.7,3.7,0,0,1,1.48.77,3.76,3.76,0,0,1,1,1.38A4.94,4.94,0,0,1,573.47,305.72Zm-2.77.4a2,2,0,0,0-.71-1.73,2.64,2.64,0,0,0-1.92-.42,3.46,3.46,0,0,0-1.58.56,3.25,3.25,0,0,0-1,1,3.91,3.91,0,0,0-.06.54c0,0.2,0,.36,0,0.47a2.79,2.79,0,0,0,.18,1,2.1,2.1,0,0,0,1.34,1.28A2.71,2.71,0,0,0,568,309a2.9,2.9,0,0,0,1-.29,3.25,3.25,0,0,0,.86-0.61,2.93,2.93,0,0,0,.6-0.87A2.51,2.51,0,0,0,570.7,306.12Z"/><path class="cls-4" d="M580.1,307.68a4.78,4.78,0,0,0,1.33-.33,3.62,3.62,0,0,0,1-.64,3,3,0,0,0,.67-0.86,2.18,2.18,0,0,0,.24-1,1.92,1.92,0,0,0-.28-1.08,1.69,1.69,0,0,0-.76-0.63,3.39,3.39,0,0,0-1.16-.24,9.25,9.25,0,0,0-1.47.05l-1.23.13V301.5l3.69-4.92-5.56.6v-2.42l9-1v2l-3.87,4.85,0.51-.06a4.19,4.19,0,0,1,1.49.1,3.23,3.23,0,0,1,1.28.65,3.35,3.35,0,0,1,.9,1.22,4.31,4.31,0,0,1,.34,1.79,4.85,4.85,0,0,1-.52,2.26,5.89,5.89,0,0,1-1.36,1.75,6.67,6.67,0,0,1-1.94,1.18,8.58,8.58,0,0,1-2.26.57,11.09,11.09,0,0,1-2,0,8.77,8.77,0,0,1-1.91-.35l0.77-2.46a2.9,2.9,0,0,0,.54.16l0.77,0.14a8.15,8.15,0,0,0,.88.08A6.06,6.06,0,0,0,580.1,307.68Z"/><path class="cls-4" d="M589.55,311.32l9.75-1.13v2.35l-9.75,1.13v-2.35Z"/><path class="cls-4" d="M612.49,306l-9.79,1.2v-2.13l0.66-.66,0.89-.93q0.49-.52,1-1.14t1.08-1.28q0.75-.93,1.31-1.68a12.84,12.84,0,0,0,.92-1.4,6,6,0,0,0,.54-1.26,4.35,4.35,0,0,0,.18-1.22,1.84,1.84,0,0,0-.2-0.83,2,2,0,0,0-.55-0.67,2.26,2.26,0,0,0-.85-0.4,2.92,2.92,0,0,0-1.09-.05,4.4,4.4,0,0,0-1.44.42,5.81,5.81,0,0,0-1.35,1l-1.14-1.89a11.34,11.34,0,0,1,2.05-1.36,7.59,7.59,0,0,1,2.6-.77,6,6,0,0,1,1.81,0,4.15,4.15,0,0,1,1.54.59,3.17,3.17,0,0,1,1.06,1.15,3.56,3.56,0,0,1,.39,1.73,6.93,6.93,0,0,1-.12,1.32,7.08,7.08,0,0,1-.37,1.26,9.52,9.52,0,0,1-.66,1.32c-0.27.46-.6,1-1,1.51s-0.61.84-1,1.27-0.68.84-1,1.24-0.67.76-1,1.11-0.63.64-.89,0.88l6.32-.78V306Z"/><path class="cls-4" d="M615,298a13.76,13.76,0,0,1,.42-3.56,8.33,8.33,0,0,1,1.18-2.65,5.91,5.91,0,0,1,1.82-1.72,6.06,6.06,0,0,1,2.36-.8,4.49,4.49,0,0,1,4.27,1.39q1.5,1.75,1.5,5.84a13.87,13.87,0,0,1-.42,3.58,8.56,8.56,0,0,1-1.18,2.66,5.84,5.84,0,0,1-1.83,1.74,6.13,6.13,0,0,1-2.37.8,4.34,4.34,0,0,1-4.27-1.51Q615,301.89,615,298Zm2.85-.36c0,0.22,0,.43,0,0.63s0,0.4,0,.6l5.31-5.59a2.11,2.11,0,0,0-2.46-1.57,2.76,2.76,0,0,0-2.14,1.63A9.66,9.66,0,0,0,617.86,297.61Zm5.83-.75c0-.23,0-0.46,0-0.67s0-.42,0-0.62l-5.33,5.59a2.15,2.15,0,0,0,2.46,1.69,2.79,2.79,0,0,0,2.15-1.62A9.69,9.69,0,0,0,623.69,296.86Z"/><path class="cls-4" d="M628.17,296.27a13.8,13.8,0,0,1,.42-3.57,8.4,8.4,0,0,1,1.18-2.65,6,6,0,0,1,1.82-1.73,6.09,6.09,0,0,1,2.35-.81,4.46,4.46,0,0,1,4.27,1.36q1.5,1.74,1.5,5.83a13.91,13.91,0,0,1-.42,3.59A8.62,8.62,0,0,1,638.1,301a5.89,5.89,0,0,1-1.83,1.75,6.16,6.16,0,0,1-2.36.82,4.31,4.31,0,0,1-4.27-1.48Q628.17,300.18,628.17,296.27Zm2.85-.38c0,0.22,0,.43,0,0.63s0,0.4,0,.6l5.31-5.63a2.1,2.1,0,0,0-2.46-1.56,2.78,2.78,0,0,0-2.14,1.64A9.7,9.7,0,0,0,631,295.89Zm5.83-.79c0-.23,0-0.46,0-0.67s0-.42,0-0.62l-5.33,5.63a2.13,2.13,0,0,0,2.46,1.67,2.81,2.81,0,0,0,2.15-1.64A9.73,9.73,0,0,0,636.85,295.09Z"/><path class="cls-4" d="M645.26,300.23a1.74,1.74,0,0,1,.49-1.26,2.08,2.08,0,0,1,1.24-.62,1.9,1.9,0,0,1,1.82.53,2.75,2.75,0,0,1,.61,1.87,4.54,4.54,0,0,1-.38,1.86,5.79,5.79,0,0,1-1,1.55,6.63,6.63,0,0,1-1.37,1.16,6.42,6.42,0,0,1-1.5.72l-0.59-1.13a7.5,7.5,0,0,0,1.06-.53,5.25,5.25,0,0,0,1-.74,4.16,4.16,0,0,0,.73-1,2.66,2.66,0,0,0,.34-1.1,2.88,2.88,0,0,1-1.12.19,1.46,1.46,0,0,1-.76-0.24,1.19,1.19,0,0,1-.43-0.56A2.12,2.12,0,0,1,645.26,300.23Z"/><path class="cls-4" d="M666.25,294.26l-2.63.4V299l-2.65.4v-4.29l-6.63,1v-2l6.94-10.29,2.34-.35v8.93l2.63-.4v2.29ZM661,287.89l-3.81,5.45,3.81-.57v-4.88Z"/><path class="cls-4" d="M669.38,300.34a8.75,8.75,0,0,0,1.62-.83,8.56,8.56,0,0,0,1.87-1.63,9.34,9.34,0,0,0,1.54-2.52,8.9,8.9,0,0,0,.63-3.51,8.3,8.3,0,0,0-.6-3.43,6,6,0,0,0-1.48-2.07,5.17,5.17,0,0,0-1.85-1.05,8,8,0,0,0-1.74-.36l0.53-2.44a9.63,9.63,0,0,1,3,.57,7.14,7.14,0,0,1,2.56,1.6,7.78,7.78,0,0,1,1.78,2.74,10.68,10.68,0,0,1,.67,4,12.41,12.41,0,0,1-.67,4.2,11.42,11.42,0,0,1-1.78,3.27,10.89,10.89,0,0,1-2.56,2.36,11.84,11.84,0,0,1-3,1.43Z"/><path class="cls-4" d="M49.26,241.94l2.59,0.41c0-2.35,0-3.53,0-5.88l-2.59-.41v-2.31l4.7,0.74,0.31,1.43h0.08a4.43,4.43,0,0,1,1.34-.95,3,3,0,0,1,1.75-.19,2.84,2.84,0,0,1,2,1.23,5.65,5.65,0,0,1,.72,3.2l-2.44-.37a2.33,2.33,0,0,0-.22-1.14,0.92,0.92,0,0,0-.7-0.45,1.85,1.85,0,0,0-1.35.21,3.36,3.36,0,0,0-.87.83v4.47l4.53,0.7v2.31c-3.93-.6-5.9-0.91-9.83-1.53v-2.31Z"/><path class="cls-4" d="M72.12,246.62a3.07,3.07,0,0,1-.7.39,5.82,5.82,0,0,1-1,.3,7.12,7.12,0,0,1-1.26.15,8,8,0,0,1-1.46-.09,7.77,7.77,0,0,1-2.39-.74,5.8,5.8,0,0,1-2.9-3.28A7,7,0,0,1,62,241a5.71,5.71,0,0,1,.44-2.36,3.93,3.93,0,0,1,1.2-1.55,4.19,4.19,0,0,1,1.79-.77,6.65,6.65,0,0,1,2.21,0,7.46,7.46,0,0,1,1.64.45,5.35,5.35,0,0,1,1.56,1A4.8,4.8,0,0,1,72,239.23a5.12,5.12,0,0,1,.45,2.25,9.63,9.63,0,0,1-.21,1.92l-7.52-1.12a2.69,2.69,0,0,0,.28,1.18,2.79,2.79,0,0,0,.69.86,3.55,3.55,0,0,0,1,.58,5.32,5.32,0,0,0,1.18.31,5.86,5.86,0,0,0,2.06,0,3.66,3.66,0,0,0,1.31-.52Zm-4.51-8.16a3.33,3.33,0,0,0-1,0,2.43,2.43,0,0,0-.87.31,1.92,1.92,0,0,0-.64.62,2,2,0,0,0-.29.92l5.14,0.77a2.64,2.64,0,0,0-.57-1.74A2.68,2.68,0,0,0,67.61,238.45Z"/><path class="cls-4" d="M84.92,248.56a5.15,5.15,0,0,1-2,.69,8.53,8.53,0,0,1-2.4,0,7.44,7.44,0,0,1-2.41-.74,6,6,0,0,1-1.78-1.38,5.75,5.75,0,0,1-1.1-1.91,7,7,0,0,1-.38-2.32,5.49,5.49,0,0,1,.44-2.29A4,4,0,0,1,76.5,239a4.44,4.44,0,0,1,1.85-.82,6.86,6.86,0,0,1,2.32,0,9.23,9.23,0,0,1,2.2.58,11.77,11.77,0,0,1,1.57.75c0,1.48,0,2.22,0,3.7l-2.3-.32v-1.93a6.33,6.33,0,0,0-1.3-.33,3.76,3.76,0,0,0-1.16,0,2.35,2.35,0,0,0-1.76,1.29,3,3,0,0,0-.28,1.37,3.55,3.55,0,0,0,.88,2.35,3.61,3.61,0,0,0,1,.81,4.1,4.1,0,0,0,1.37.44,4.65,4.65,0,0,0,2-.06,6.65,6.65,0,0,0,1.14-.43Z"/><path class="cls-4" d="M92.95,240.17l3.89,0.52c0,2.92,0,4.39,0,7.31v0.88l1.59,0.21c0,0.92,0,1.39,0,2.31L95.12,251l-0.48-1.62H94.56a3,3,0,0,1-1.44,1.13,4.08,4.08,0,0,1-2.13.23,5.19,5.19,0,0,1-1.45-.41,3.15,3.15,0,0,1-1.12-.85,3.82,3.82,0,0,1-.71-1.4,7.51,7.51,0,0,1-.25-2.09v-4.22l-1.19-.17c0-.92,0-1.39,0-2.31l3.91,0.54v6a3.53,3.53,0,0,0,.41,1.9,1.72,1.72,0,0,0,1.29.74,2.1,2.1,0,0,0,2.26-1.29v-4.47l-1.17-.16v-2.31Z"/><path class="cls-4" d="M99.41,249.23l2.6,0.34v-5.88l-2.6-.34V241l4.71,0.62,0.31,1.43h0.08a4.6,4.6,0,0,1,1.34-1,3.06,3.06,0,0,1,1.76-.24,2.76,2.76,0,0,1,2,1.18,5.55,5.55,0,0,1,.72,3.18l-2.45-.31a2.29,2.29,0,0,0-.22-1.13,0.9,0.9,0,0,0-.7-0.44,1.89,1.89,0,0,0-1.35.25,3.5,3.5,0,0,0-.87.85c0,1.79,0,2.68,0,4.47l4.54,0.58v2.31c-3.94-.5-5.92-0.76-9.86-1.28v-2.31Z"/><path class="cls-4" d="M120.69,258.7a10.9,10.9,0,0,1-2.85-1.27,9.94,9.94,0,0,1-2.45-2.17,10.42,10.42,0,0,1-1.71-3.07,11.64,11.64,0,0,1-.64-4,10.33,10.33,0,0,1,.64-3.82,7.73,7.73,0,0,1,1.71-2.67,7.13,7.13,0,0,1,2.45-1.61,9.41,9.41,0,0,1,2.85-.64l0.5,2.31a7.89,7.89,0,0,0-1.66.4,5.15,5.15,0,0,0-1.77,1.06,5.94,5.94,0,0,0-1.41,2,8,8,0,0,0-.58,3.29,8.32,8.32,0,0,0,.61,3.33,8.52,8.52,0,0,0,1.48,2.36,7.79,7.79,0,0,0,1.79,1.5,8.11,8.11,0,0,0,1.55.75Z"/><path class="cls-4" d="M125.95,252.57l3.21,0.38c0-3.67,0-5.51,0-9.18l-2.77,1.79-1.26-1.83,4.78-3.09,1.85,0.22c0,5,0,7.43,0,12.39l3.14,0.36c0,0.92,0,1.39,0,2.31l-8.95-1C125.95,254,125.95,253.49,125.95,252.57Z"/><path class="cls-4" d="M137.93,258.72l9.31,1V262l-9.31-1v-2.25Z"/><path class="cls-4" d="M160.33,254.11a4.42,4.42,0,0,1-.39,1.87,4.18,4.18,0,0,1-1.06,1.43,4.32,4.32,0,0,1-1.61.86,5.07,5.07,0,0,1-2,.17,6.32,6.32,0,0,1-2-.56,5.33,5.33,0,0,1-1.67-1.22,5.68,5.68,0,0,1-1.13-1.86,6.89,6.89,0,0,1-.42-2.48,8.93,8.93,0,0,1,2.58-6.46,8.36,8.36,0,0,1,2.54-1.75,7.84,7.84,0,0,1,2.79-.69l0.61,2.23a7.54,7.54,0,0,0-2.08.47,6.61,6.61,0,0,0-1.72,1,5.93,5.93,0,0,0-1.27,1.36,4.7,4.7,0,0,0-.7,1.63,2.8,2.8,0,0,1,1.26-.76,4.36,4.36,0,0,1,1.85-.18,5.36,5.36,0,0,1,1.76.49,4.66,4.66,0,0,1,1.42,1,4.75,4.75,0,0,1,.94,1.51A5.26,5.26,0,0,1,160.33,254.11Zm-2.64-.17a2.37,2.37,0,0,0-.68-1.79,3,3,0,0,0-1.84-.78,2.85,2.85,0,0,0-1.51.22,2.3,2.3,0,0,0-1,.78,3.71,3.71,0,0,0-.05.51c0,0.19,0,.34,0,0.45a3,3,0,0,0,.17,1,2.67,2.67,0,0,0,.49.86,2.71,2.71,0,0,0,.79.63,2.86,2.86,0,0,0,1.07.31,2.48,2.48,0,0,0,.94-0.08,2.36,2.36,0,0,0,.82-0.41A2.09,2.09,0,0,0,157.69,253.95Z"/><path class="cls-4" d="M172.93,255.35a4.43,4.43,0,0,1-.39,1.87,4.19,4.19,0,0,1-1.06,1.43,4.35,4.35,0,0,1-1.61.87,5.07,5.07,0,0,1-2,.18,6.3,6.3,0,0,1-2-.55,5.29,5.29,0,0,1-1.67-1.2,5.66,5.66,0,0,1-1.13-1.86,6.86,6.86,0,0,1-.42-2.48,9,9,0,0,1,2.58-6.47,8.44,8.44,0,0,1,2.54-1.77,7.89,7.89,0,0,1,2.79-.71l0.61,2.22a7.6,7.6,0,0,0-2.08.48,6.69,6.69,0,0,0-1.72,1,6,6,0,0,0-1.27,1.37,4.73,4.73,0,0,0-.7,1.63,2.83,2.83,0,0,1,1.26-.77,4.38,4.38,0,0,1,1.85-.19,5.34,5.34,0,0,1,1.76.48,4.62,4.62,0,0,1,1.42,1,4.7,4.7,0,0,1,.95,1.51A5.22,5.22,0,0,1,172.93,255.35Zm-2.65-.15a2.36,2.36,0,0,0-.68-1.79,3,3,0,0,0-1.84-.77,2.86,2.86,0,0,0-1.51.23,2.31,2.31,0,0,0-1,.78,3.48,3.48,0,0,0-.05.51c0,0.19,0,.34,0,0.45a3,3,0,0,0,.17,1,2.65,2.65,0,0,0,.49.86,2.69,2.69,0,0,0,.79.62,2.84,2.84,0,0,0,1.07.31,2.5,2.5,0,0,0,.94-0.09,2.37,2.37,0,0,0,.82-0.41A2.09,2.09,0,0,0,170.28,255.2Z"/><path class="cls-4" d="M179.27,258.49a4.2,4.2,0,0,0,1.27-.06,2.68,2.68,0,0,0,1-.41,2.11,2.11,0,0,0,.64-0.69,1.81,1.81,0,0,0,.23-0.91,2.12,2.12,0,0,0-.26-1.08,2.17,2.17,0,0,0-.72-0.75,3.82,3.82,0,0,0-1.11-.46,9.23,9.23,0,0,0-1.41-.23l-1.18-.11c0-.6,0-0.9,0-1.51l3.53-4-5.31-.49v-2.31l8.57,0.78v1.91l-3.7,3.89,0.48,0a4.4,4.4,0,0,1,1.43.38,4,4,0,0,1,1.23.87,4.22,4.22,0,0,1,.86,1.34,4.59,4.59,0,0,1,.33,1.77,4.06,4.06,0,0,1-.49,2.06,4.21,4.21,0,0,1-1.3,1.41,5,5,0,0,1-1.86.76,7.51,7.51,0,0,1-2.16.11,11.1,11.1,0,0,1-1.89-.34,9.84,9.84,0,0,1-1.83-.7l0.73-2.2a3.29,3.29,0,0,0,.51.26l0.74,0.28a8.72,8.72,0,0,0,.84.25A6,6,0,0,0,179.27,258.49Z"/><path class="cls-4" d="M188.3,263.77l9.33,0.79c0,0.9,0,1.35,0,2.25L188.3,266C188.3,265.12,188.3,264.67,188.3,263.77Z"/><path class="cls-4" d="M210.26,263.11l-9.37-.74v-2l0.63-.51,0.85-.72q0.47-.4,1-0.89t1-1q0.71-.74,1.25-1.35a9.36,9.36,0,0,0,.88-1.16,4.63,4.63,0,0,0,.52-1.09,3.82,3.82,0,0,0,.17-1.13,2,2,0,0,0-.19-0.83,2.5,2.5,0,0,0-.52-0.75,2.82,2.82,0,0,0-.81-0.55,3.07,3.07,0,0,0-1-.26,3.8,3.8,0,0,0-1.38.12,4.27,4.27,0,0,0-1.29.67l-1.09-2a8.42,8.42,0,0,1,2-.9,6.51,6.51,0,0,1,2.49-.23,6.21,6.21,0,0,1,1.73.39,5,5,0,0,1,1.47.86,4,4,0,0,1,1,1.31,3.85,3.85,0,0,1,.38,1.73,6.23,6.23,0,0,1-.12,1.24,5.72,5.72,0,0,1-.36,1.13,7.18,7.18,0,0,1-.63,1.14q-0.39.58-.94,1.25-0.42.51-.91,1t-1,1q-0.48.47-1,.87t-0.85.67l6.05,0.47v2.31Z"/><path class="cls-4" d="M212.67,255.92a12.22,12.22,0,0,1,.4-3.32,6.34,6.34,0,0,1,1.13-2.3,4.22,4.22,0,0,1,1.74-1.29,5.09,5.09,0,0,1,2.26-.31,5.28,5.28,0,0,1,4.09,2.15,9.9,9.9,0,0,1,1.44,5.87,12.31,12.31,0,0,1-.4,3.34,6.46,6.46,0,0,1-1.13,2.32,4.17,4.17,0,0,1-1.75,1.3,5.57,5.57,0,0,1-6.36-2A10.21,10.21,0,0,1,212.67,255.92Zm2.73,0.2q0,0.31,0,.6c0,0.19,0,.38,0,0.58l5.09-4.31a2.58,2.58,0,0,0-2.36-2,2.06,2.06,0,0,0-2.05,1.14A8.25,8.25,0,0,0,215.41,256.13Zm5.59,0.4q0-.34,0-0.64c0-.2,0-0.4,0-0.6l-5.11,4.31a2.63,2.63,0,0,0,2.36,2.08,2.09,2.09,0,0,0,2.06-1.13A8.25,8.25,0,0,0,221,256.53Z"/><path class="cls-4" d="M225.29,256.83a12.21,12.21,0,0,1,.4-3.32,6.37,6.37,0,0,1,1.13-2.31,4.25,4.25,0,0,1,1.74-1.3,5.11,5.11,0,0,1,2.26-.32,5.24,5.24,0,0,1,4.09,2.12q1.44,2,1.44,5.86a12.3,12.3,0,0,1-.4,3.34,6.51,6.51,0,0,1-1.13,2.32,4.21,4.21,0,0,1-1.75,1.31,5.17,5.17,0,0,1-2.27.32,5.1,5.1,0,0,1-4.1-2.24A10.16,10.16,0,0,1,225.29,256.83ZM228,257q0,0.31,0,.6c0,0.19,0,.38,0,0.58l5.09-4.35a2.56,2.56,0,0,0-2.36-2,2.08,2.08,0,0,0-2.05,1.15A8.27,8.27,0,0,0,228,257Zm5.59,0.37q0-.34,0-0.64c0-.2,0-0.4,0-0.6l-5.11,4.35a2.61,2.61,0,0,0,2.36,2.07,2.11,2.11,0,0,0,2.07-1.15A8.28,8.28,0,0,0,233.62,257.38Z"/><path class="cls-4" d="M241.69,263.92a1.35,1.35,0,0,1,.47-1.1,1.64,1.64,0,0,1,1.19-.35,2.22,2.22,0,0,1,1.75.86,3.1,3.1,0,0,1,.59,1.9,3.83,3.83,0,0,1-.37,1.7,4.19,4.19,0,0,1-1,1.29,4.79,4.79,0,0,1-1.31.85,5.11,5.11,0,0,1-1.44.4L241,268.27a5.84,5.84,0,0,0,1-.29,3.8,3.8,0,0,0,.94-0.52,3,3,0,0,0,.71-0.77,2.12,2.12,0,0,0,.33-1,2.69,2.69,0,0,1-1.07,0,1.75,1.75,0,0,1-.73-0.38,1.5,1.5,0,0,1-.41-0.61A2.22,2.22,0,0,1,241.69,263.92Z"/><path class="cls-4" d="M261.87,262.29l-2.53-.13c0,1.64,0,2.46,0,4.09l-2.55-.13c0-1.64,0-2.46,0-4.09l-6.37-.35v-1.87l6.67-8.48,2.25,0.12V260l2.53,0.13v2.18Zm-5.07-7.11-3.66,4.47,3.66,0.2v-4.66Z"/><path class="cls-4" d="M264.88,268.69a6.88,6.88,0,0,0,1.56-.48,6.15,6.15,0,0,0,1.8-1.2,6.74,6.74,0,0,0,1.48-2.1,7.55,7.55,0,0,0,.61-3.23,8.72,8.72,0,0,0-.58-3.39,7.5,7.5,0,0,0-1.42-2.26,6.53,6.53,0,0,0-1.78-1.37,9.24,9.24,0,0,0-1.67-.68l0.51-2.22a11,11,0,0,1,2.86,1.12,9.13,9.13,0,0,1,2.46,2,9.7,9.7,0,0,1,1.72,3,11.17,11.17,0,0,1,.64,3.92,10.67,10.67,0,0,1-.64,3.88,8.38,8.38,0,0,1-1.72,2.78,7.82,7.82,0,0,1-2.46,1.75,9.38,9.38,0,0,1-2.86.79Z"/><path class="cls-4" d="M403.29,253.82l8.32-.19v2.31l-5.71.13c0,6,0,8.95,0,14.91l5.71-.13v2.31l-8.32.19C403.29,265.54,403.29,261.63,403.29,253.82Z"/><path class="cls-4" d="M418.6,259.16a1.56,1.56,0,0,1,.46-1.18,1.77,1.77,0,0,1,1.22-.47,1.74,1.74,0,0,1,1.26.39,1.47,1.47,0,0,1,.46,1.15,1.6,1.6,0,0,1-.46,1.19,1.81,1.81,0,0,1-1.26.48,1.66,1.66,0,0,1-1.22-.41A1.51,1.51,0,0,1,418.6,259.16Zm0,7.6a1.56,1.56,0,0,1,.46-1.18,1.78,1.78,0,0,1,1.22-.47,1.75,1.75,0,0,1,1.26.39,1.47,1.47,0,0,1,.46,1.15,1.59,1.59,0,0,1-.46,1.19,1.81,1.81,0,0,1-1.26.48,1.66,1.66,0,0,1-1.22-.41A1.51,1.51,0,0,1,418.6,266.77Z"/><path class="cls-4" d="M427.44,265.58l2.61-.09v-5.88l-2.61.09v-2.31l4.74-.16,0.32,1.37h0.08a5.85,5.85,0,0,1,1.35-1.2,3.42,3.42,0,0,1,1.77-.53,2.3,2.3,0,0,1,2,.85,4.94,4.94,0,0,1,.73,3.06l-2.46.09a2.07,2.07,0,0,0-.22-1.09,0.75,0.75,0,0,0-.7-0.32,2.15,2.15,0,0,0-1.36.47,4.46,4.46,0,0,0-.87,1c0,1.79,0,2.68,0,4.47l4.57-.16v2.31l-9.92.34v-2.31Z"/><path class="cls-4" d="M450.49,265.9a4,4,0,0,1-.7.52,7.16,7.16,0,0,1-1,.49,8.13,8.13,0,0,1-1.27.39,8.35,8.35,0,0,1-1.47.19,7,7,0,0,1-2.41-.28,4.46,4.46,0,0,1-2.93-2.73,7,7,0,0,1,.05-4.75A5.13,5.13,0,0,1,442,258a5.32,5.32,0,0,1,1.8-1.11,7.12,7.12,0,0,1,2.23-.44,6.85,6.85,0,0,1,1.65.14,4.3,4.3,0,0,1,1.57.66,3.65,3.65,0,0,1,1.17,1.32,4.55,4.55,0,0,1,.45,2.16,10.14,10.14,0,0,1-.21,2L443,263a2.35,2.35,0,0,0,.28,1.12,2.12,2.12,0,0,0,.7.73,2.87,2.87,0,0,0,1,.39,5,5,0,0,0,1.19.09,6.28,6.28,0,0,0,2.07-.38,4.62,4.62,0,0,0,1.32-.77Zm-4.55-7.3a3.55,3.55,0,0,0-1,.19,3,3,0,0,0-.87.47,2.55,2.55,0,0,0-.64.74,2.29,2.29,0,0,0-.29,1l5.18-.21A2,2,0,0,0,445.95,258.59Z"/><path class="cls-4" d="M463.37,265.4a6.39,6.39,0,0,1-2,1.08,9.07,9.07,0,0,1-2.42.44,6.72,6.72,0,0,1-2.43-.28,4.65,4.65,0,0,1-1.79-1,4.49,4.49,0,0,1-1.11-1.7,6.38,6.38,0,0,1-.38-2.25,6.06,6.06,0,0,1,.44-2.37,5.26,5.26,0,0,1,1.23-1.8,5.65,5.65,0,0,1,1.86-1.17,7.4,7.4,0,0,1,2.34-.48,8.51,8.51,0,0,1,2.21.17,9.84,9.84,0,0,1,1.58.45c0,1.48,0,2.22,0,3.7l-2.32.11v-1.93a5.89,5.89,0,0,0-1.3-.08,4.05,4.05,0,0,0-1.17.23,3,3,0,0,0-1,.62,3.18,3.18,0,0,0-.74,1,3.3,3.3,0,0,0-.28,1.42,3.16,3.16,0,0,0,.23,1.23,2.76,2.76,0,0,0,.65,1,2.8,2.8,0,0,0,1,.61,3.69,3.69,0,0,0,1.38.18,5.06,5.06,0,0,0,2-.43,8.44,8.44,0,0,0,1.15-.64Z"/><path class="cls-4" d="M471.45,255.48l3.91-.22c0,2.92,0,4.38,0,7.31v0.88l1.6-.09v2.31l-3.32.19-0.48-1.53h-0.08a4,4,0,0,1-1.45,1.4,4.6,4.6,0,0,1-2.15.64,4.73,4.73,0,0,1-1.46-.13,2.46,2.46,0,0,1-1.13-.63,3,3,0,0,1-.72-1.26,7,7,0,0,1-.25-2v-4.22l-1.2.06c0-.92,0-1.39,0-2.31l3.93-.2c0,2.39,0,3.58,0,6a3.1,3.1,0,0,0,.41,1.83,1.41,1.41,0,0,0,1.29.5,2.4,2.4,0,0,0,1.4-.54,2.69,2.69,0,0,0,.87-1.18v-4.47l-1.18.06C471.45,256.87,471.45,256.41,471.45,255.48Z"/><path class="cls-4" d="M478,263.31l2.61-.15c0-2.35,0-3.53,0-5.88l-2.61.15v-2.31l4.73-.28,0.32,1.37h0.08a6.06,6.06,0,0,1,1.35-1.24,3.49,3.49,0,0,1,1.77-.57,2.24,2.24,0,0,1,2,.8,4.85,4.85,0,0,1,.73,3l-2.46.15a2,2,0,0,0-.22-1.09,0.72,0.72,0,0,0-.7-0.3,2.2,2.2,0,0,0-1.36.5,4.63,4.63,0,0,0-.87,1V263l4.56-.28V265l-9.91.59v-2.31Z"/><path class="cls-4" d="M494.34,263.27a1.54,1.54,0,0,1,.47-1.17,1.84,1.84,0,0,1,1.19-.5,2,2,0,0,1,1.75.64,2.79,2.79,0,0,1,.59,1.83,4.14,4.14,0,0,1-.37,1.75,5,5,0,0,1-1,1.41,5.88,5.88,0,0,1-2.75,1.59l-0.57-1.12a6.56,6.56,0,0,0,1-.42,4.49,4.49,0,0,0,.94-0.64,3.57,3.57,0,0,0,.71-0.86,2.36,2.36,0,0,0,.33-1,2.7,2.7,0,0,1-1.07.1,1.51,1.51,0,0,1-.73-0.29,1.26,1.26,0,0,1-.41-0.56A2.09,2.09,0,0,1,494.34,263.27Z"/><path class="cls-4" d="M504.31,249.23l8.3-.6c0,0.92,0,1.39,0,2.31l-5.7.42c0,6,0,8.95,0,14.91l5.7-.42c0,0.92,0,1.39,0,2.31l-8.3.6C504.31,260.95,504.31,257,504.31,249.23Z"/><path class="cls-4" d="M517.22,260.67l3.22-.25c0-3.67,0-5.51,0-9.18l-2.77,2.34L516.4,252l4.79-4,1.85-.15c0,5,0,7.43,0,12.39l3.15-.26v2.31l-9,.71v-2.31Z"/><path class="cls-4" d="M529.24,264.47l9.33-.8c0,0.9,0,1.35,0,2.25l-9.33.8C529.24,265.82,529.24,265.37,529.24,264.47Z"/><path class="cls-4" d="M551.67,255.46a5,5,0,0,1-.39,1.95,5.45,5.45,0,0,1-1.06,1.63,5.7,5.7,0,0,1-3.61,1.74,5.75,5.75,0,0,1-2-.16,4.13,4.13,0,0,1-1.67-.89,4.37,4.37,0,0,1-1.13-1.64,6.23,6.23,0,0,1-.42-2.4,10,10,0,0,1,.72-3.84,11.79,11.79,0,0,1,1.86-3.12,11.12,11.12,0,0,1,2.54-2.25,9.38,9.38,0,0,1,2.79-1.24l0.61,2.11a9,9,0,0,0-2.08.88,8.63,8.63,0,0,0-1.72,1.3,7.91,7.91,0,0,0-1.27,1.61,5.75,5.75,0,0,0-.7,1.77,3.69,3.69,0,0,1,1.26-1,5.12,5.12,0,0,1,3.61-.4,3.49,3.49,0,0,1,2.36,2.08A4.72,4.72,0,0,1,551.67,255.46Zm-2.64.35a2,2,0,0,0-.68-1.66,2.54,2.54,0,0,0-1.84-.42,3.27,3.27,0,0,0-1.51.52,3.05,3.05,0,0,0-1,1,3.82,3.82,0,0,0-.05.52c0,0.19,0,.34,0,0.45a2.69,2.69,0,0,0,.17,1,2,2,0,0,0,1.28,1.24,2.57,2.57,0,0,0,1.07.1,2.76,2.76,0,0,0,.95-0.27,3,3,0,0,0,.82-0.57,2.78,2.78,0,0,0,.58-0.82A2.38,2.38,0,0,0,549,255.81Z"/><path class="cls-4" d="M564.26,254.23a5,5,0,0,1-.39,1.95,5.49,5.49,0,0,1-1.06,1.64,5.74,5.74,0,0,1-3.61,1.77,5.72,5.72,0,0,1-2-.15,4.08,4.08,0,0,1-1.67-.88,4.34,4.34,0,0,1-1.13-1.63,6.21,6.21,0,0,1-.42-2.4,10.08,10.08,0,0,1,.72-3.85,11.89,11.89,0,0,1,1.86-3.13,11.22,11.22,0,0,1,2.54-2.26,9.44,9.44,0,0,1,2.79-1.25l0.61,2.1a9,9,0,0,0-2.08.89,8.74,8.74,0,0,0-1.72,1.31,8,8,0,0,0-1.27,1.62,5.79,5.79,0,0,0-.7,1.77,3.72,3.72,0,0,1,1.26-1,4.89,4.89,0,0,1,1.85-.55,4.84,4.84,0,0,1,1.76.13,3.46,3.46,0,0,1,2.36,2.06A4.71,4.71,0,0,1,564.26,254.23Zm-2.64.37a2,2,0,0,0-.68-1.65,2.53,2.53,0,0,0-1.84-.41,3.28,3.28,0,0,0-1.51.53,3.08,3.08,0,0,0-1,1,3.83,3.83,0,0,0-.05.52c0,0.19,0,.34,0,0.45a2.68,2.68,0,0,0,.17.95,2,2,0,0,0,1.28,1.23,2.56,2.56,0,0,0,1.07.09A2.77,2.77,0,0,0,560,257a3.06,3.06,0,0,0,.82-0.58,2.8,2.8,0,0,0,.58-0.82A2.39,2.39,0,0,0,561.62,254.6Z"/><path class="cls-4" d="M570.6,256.12a4.55,4.55,0,0,0,1.27-.31,3.41,3.41,0,0,0,1-.61,2.83,2.83,0,0,0,.64-0.82,2.08,2.08,0,0,0,.23-1,1.85,1.85,0,0,0-.26-1,1.62,1.62,0,0,0-.72-0.6,3.22,3.22,0,0,0-1.11-.24,8.82,8.82,0,0,0-1.41,0l-1.17.12v-1.51l3.52-4.68-5.31.55c0-.92,0-1.39,0-2.31l8.56-.9v1.91l-3.69,4.61,0.48-.05a4,4,0,0,1,1.43.1,3.09,3.09,0,0,1,1.23.63,3.22,3.22,0,0,1,.86,1.17,4.13,4.13,0,0,1,.33,1.71,4.62,4.62,0,0,1-.49,2.15,5.58,5.58,0,0,1-1.3,1.66,6.32,6.32,0,0,1-1.86,1.12,8.15,8.15,0,0,1-2.16.53,10.56,10.56,0,0,1-1.89,0,8.47,8.47,0,0,1-1.83-.34l0.73-2.34a2.67,2.67,0,0,0,.51.16l0.73,0.13a7.63,7.63,0,0,0,.84.08A5.82,5.82,0,0,0,570.6,256.12Z"/><path class="cls-4" d="M579.62,259.63l9.31-1v2.25l-9.31,1v-2.25Z"/><path class="cls-4" d="M601.52,254.67l-9.35,1.1v-2l0.63-.63,0.85-.89q0.47-.5,1-1.08t1-1.21q0.71-.88,1.25-1.59a12.21,12.21,0,0,0,.88-1.33,5.76,5.76,0,0,0,.51-1.2,4.16,4.16,0,0,0,.17-1.16,1.76,1.76,0,0,0-.19-0.8,1.88,1.88,0,0,0-.52-0.64,2.17,2.17,0,0,0-.81-0.39,2.79,2.79,0,0,0-1-.06,4.19,4.19,0,0,0-1.37.39,5.5,5.5,0,0,0-1.29.93l-1.09-1.81a10.79,10.79,0,0,1,2-1.29,7.23,7.23,0,0,1,2.48-.72,5.75,5.75,0,0,1,1.73,0,4,4,0,0,1,1.47.57,3,3,0,0,1,1,1.11,3.4,3.4,0,0,1,.38,1.66,6.67,6.67,0,0,1-.11,1.26,6.75,6.75,0,0,1-.36,1.2,9.14,9.14,0,0,1-.63,1.26q-0.39.66-.93,1.43-0.42.6-.91,1.21t-1,1.18q-0.48.56-1,1.06t-0.85.83l6-.71v2.31Z"/><path class="cls-4" d="M603.93,247a13.15,13.15,0,0,1,.4-3.4,7.93,7.93,0,0,1,1.13-2.52,5.58,5.58,0,0,1,1.73-1.63,5.76,5.76,0,0,1,2.25-.75,4.31,4.31,0,0,1,4.08,1.35q1.43,1.68,1.43,5.58a13.23,13.23,0,0,1-.4,3.42,8.1,8.1,0,0,1-1.12,2.54,5.53,5.53,0,0,1-1.74,1.65,5.81,5.81,0,0,1-2.26.75,4.17,4.17,0,0,1-4.08-1.46Q603.93,250.75,603.93,247Zm2.72-.33c0,0.21,0,.41,0,0.6s0,0.38,0,.57l5.07-5.31a2,2,0,0,0-2.35-1.51,2.61,2.61,0,0,0-2,1.54A9.2,9.2,0,0,0,606.66,246.68Zm5.57-.69q0-.34,0-0.64c0-.2,0-0.4,0-0.59l-5.09,5.32a2.07,2.07,0,0,0,2.35,1.62,2.65,2.65,0,0,0,2.06-1.54A9.21,9.21,0,0,0,612.23,246Z"/><path class="cls-4" d="M616.5,245.45a13.19,13.19,0,0,1,.4-3.4,8,8,0,0,1,1.12-2.53,5.64,5.64,0,0,1,1.73-1.64,5.79,5.79,0,0,1,2.25-.76,4.28,4.28,0,0,1,4.08,1.32q1.43,1.67,1.43,5.57a13.26,13.26,0,0,1-.4,3.42A8.16,8.16,0,0,1,626,250a5.57,5.57,0,0,1-1.74,1.66,5.84,5.84,0,0,1-2.26.77,4.14,4.14,0,0,1-4.08-1.44Q616.5,249.19,616.5,245.45Zm2.72-.35q0,0.31,0,.6c0,0.19,0,.38,0,0.57l5.07-5.34a2,2,0,0,0-2.35-1.5,2.63,2.63,0,0,0-2,1.56A9.23,9.23,0,0,0,619.22,245.1Zm5.57-.73q0-.34,0-0.64c0-.2,0-0.4,0-0.59l-5.09,5.35a2,2,0,0,0,2.35,1.61,2.67,2.67,0,0,0,2.06-1.55A9.25,9.25,0,0,0,624.79,244.37Z"/><path class="cls-4" d="M632.82,249.32a1.65,1.65,0,0,1,.47-1.2,2,2,0,0,1,1.18-.58,1.82,1.82,0,0,1,1.74.52,2.63,2.63,0,0,1,.59,1.79,4.33,4.33,0,0,1-.37,1.77,5.51,5.51,0,0,1-1,1.47,6.31,6.31,0,0,1-1.31,1.1,6.12,6.12,0,0,1-1.43.68l-0.57-1.08a7,7,0,0,0,1-.49,4.93,4.93,0,0,0,.93-0.7,3.94,3.94,0,0,0,.7-0.9,2.51,2.51,0,0,0,.32-1.05,2.76,2.76,0,0,1-1.07.18,1.41,1.41,0,0,1-.72-0.24,1.14,1.14,0,0,1-.41-0.53A2,2,0,0,1,632.82,249.32Z"/><path class="cls-4" d="M652.87,243.74l-2.51.37v4.09l-2.53.36v-4.09l-6.33.9V243.5l6.63-9.78,2.24-.32v8.53l2.51-.36v2.18Zm-5-6.12-3.64,5.18,3.64-.52v-4.66Z"/><path class="cls-4" d="M663.95,251l-8.25,1.24v-2.31l5.66-.84V234.19l-5.66.84v-2.31l8.25-1.24V251Z"/><path class="cls-4" d="M676.47,249.07l-8.25,1.29v-2.31l5.66-.88V232.26l-5.66.88v-2.31l8.25-1.29v19.53Z"/><path class="cls-4" d="M53.86,345.22l2.83,0.45v-6.44l-2.83-.45v-2.53L59,337.06l0.34,1.57h0.09a4.86,4.86,0,0,1,1.46-1,3.32,3.32,0,0,1,1.92-.21A3.1,3.1,0,0,1,65,338.74a6.19,6.19,0,0,1,.79,3.5l-2.68-.41a2.55,2.55,0,0,0-.24-1.24,1,1,0,0,0-.77-0.5,2,2,0,0,0-1.47.23,3.69,3.69,0,0,0-.95.91v4.9l5,0.76v2.53c-4.31-.66-6.46-1-10.77-1.68v-2.53Z"/><path class="cls-4" d="M78.91,350.34a3.34,3.34,0,0,1-.77.43,6.42,6.42,0,0,1-1.1.33,7.77,7.77,0,0,1-1.38.16,8.76,8.76,0,0,1-1.6-.1,8.51,8.51,0,0,1-2.62-.8,6.35,6.35,0,0,1-3.18-3.59,7.66,7.66,0,0,1-.42-2.6,6.27,6.27,0,0,1,.48-2.58,4.3,4.3,0,0,1,1.32-1.7,4.6,4.6,0,0,1,2-.85A7.28,7.28,0,0,1,74,339a8.14,8.14,0,0,1,1.8.5,5.88,5.88,0,0,1,1.71,1,5.24,5.24,0,0,1,1.27,1.69,5.61,5.61,0,0,1,.49,2.46,10.51,10.51,0,0,1-.23,2.11l-8.24-1.21a3,3,0,0,0,.31,1.29,3,3,0,0,0,.75.94,3.88,3.88,0,0,0,1.08.63,5.77,5.77,0,0,0,1.29.34,6.43,6.43,0,0,0,2.25,0,4,4,0,0,0,1.43-.57ZM74,341.4a3.63,3.63,0,0,0-1.12,0,2.66,2.66,0,0,0-.95.34,2.11,2.11,0,0,0-.7.68,2.15,2.15,0,0,0-.32,1l5.63,0.83a2.89,2.89,0,0,0-.63-1.91A2.93,2.93,0,0,0,74,341.4Z"/><path class="cls-4" d="M92.93,352.44a5.66,5.66,0,0,1-2.2.76,9.32,9.32,0,0,1-2.63,0,8.16,8.16,0,0,1-2.65-.81,6.55,6.55,0,0,1-1.95-1.51,6.29,6.29,0,0,1-1.2-2.09,7.69,7.69,0,0,1-.41-2.54,6,6,0,0,1,.48-2.51A4.44,4.44,0,0,1,83.71,342a4.88,4.88,0,0,1,2-.9,7.51,7.51,0,0,1,2.54,0,10.13,10.13,0,0,1,2.4.64,12.93,12.93,0,0,1,1.72.81v4l-2.52-.35V344.1a6.92,6.92,0,0,0-1.42-.36,4.13,4.13,0,0,0-1.27,0,2.58,2.58,0,0,0-1.92,1.42,3.26,3.26,0,0,0-.31,1.5,3.85,3.85,0,0,0,.25,1.39,3.9,3.9,0,0,0,.71,1.18,4,4,0,0,0,1.13.88,4.49,4.49,0,0,0,1.5.48,5.09,5.09,0,0,0,2.14-.07,7.37,7.37,0,0,0,1.25-.47Z"/><path class="cls-4" d="M101.72,343.23L106,343.8v9l1.74,0.23v2.53l-3.62-.48-0.53-1.77h-0.09a3.34,3.34,0,0,1-1.58,1.24,4.48,4.48,0,0,1-2.34.26,5.66,5.66,0,0,1-1.59-.45,3.45,3.45,0,0,1-1.23-.93,4.17,4.17,0,0,1-.78-1.53,8.22,8.22,0,0,1-.27-2.29V345l-1.31-.18v-2.53l4.28,0.58v6.53a3.86,3.86,0,0,0,.45,2.08,1.88,1.88,0,0,0,1.41.81,2.3,2.3,0,0,0,2.48-1.42v-4.9l-1.28-.17v-2.53Z"/><path class="cls-4" d="M108.81,353.13l2.84,0.37v-6.44l-2.84-.37v-2.53l5.16,0.66,0.34,1.56h0.09a5.06,5.06,0,0,1,1.47-1.08,3.37,3.37,0,0,1,1.93-.26,3,3,0,0,1,2.17,1.28,6.06,6.06,0,0,1,.79,3.48l-2.68-.33a2.5,2.5,0,0,0-.24-1.24,1,1,0,0,0-.77-0.48,2.07,2.07,0,0,0-1.48.27,3.86,3.86,0,0,0-1,.94v4.9l5,0.62V357c-4.32-.54-6.48-0.81-10.8-1.37v-2.53Z"/><path class="cls-4" d="M132.11,363.42A11.92,11.92,0,0,1,129,362a10.86,10.86,0,0,1-2.68-2.37,11.39,11.39,0,0,1-1.87-3.35,12.71,12.71,0,0,1-.7-4.36,11.33,11.33,0,0,1,.7-4.18,8.52,8.52,0,0,1,1.87-2.94,7.88,7.88,0,0,1,2.68-1.77,10.37,10.37,0,0,1,3.12-.71l0.55,2.53a8.68,8.68,0,0,0-1.82.44,5.66,5.66,0,0,0-1.94,1.17,6.54,6.54,0,0,0-1.55,2.22,8.8,8.8,0,0,0-.63,3.6,9.08,9.08,0,0,0,.67,3.64,9.26,9.26,0,0,0,1.62,2.57,8.48,8.48,0,0,0,2,1.64,8.87,8.87,0,0,0,1.7.81Z"/><path class="cls-4" d="M137.88,356.69l3.51,0.4V347l-3,2L137,347l5.24-3.41,2,0.23c0,5.43,0,8.14,0,13.57l3.44,0.38v2.53c-3.92-.43-5.88-0.65-9.81-1.1v-2.53Z"/><path class="cls-4" d="M151.65,358.22l3.51,0.37V348.54l-3,2-1.38-2,5.24-3.44,2,0.21v13.57l3.45,0.36v2.53l-9.81-1v-2.53Z"/><path class="cls-4" d="M168,361a1.43,1.43,0,0,1,.52-1.19,1.74,1.74,0,0,1,1.3-.33,2.53,2.53,0,0,1,1.91,1,3.51,3.51,0,0,1,.64,2.11,4.11,4.11,0,0,1-.4,1.85,4.34,4.34,0,0,1-1,1.37,5,5,0,0,1-1.44.87,5.42,5.42,0,0,1-1.57.37l-0.62-1.33a6.17,6.17,0,0,0,1.12-.28,4,4,0,0,0,1-.53,3.07,3.07,0,0,0,.77-0.81,2.24,2.24,0,0,0,.36-1.07,2.94,2.94,0,0,1-1.17-.08,2,2,0,0,1-.79-0.45,1.73,1.73,0,0,1-.45-0.69A2.5,2.5,0,0,1,168,361Z"/><path class="cls-4" d="M179.24,361l3.52,0.33V351.26l-3,2-1.38-2,5.24-3.52,2,0.18v13.57l3.45,0.31v2.53l-9.82-.89V361Z"/><path class="cls-4" d="M191.47,356.55a13.31,13.31,0,0,1,.44-3.63,6.83,6.83,0,0,1,1.24-2.5,4.53,4.53,0,0,1,1.91-1.39,5.56,5.56,0,0,1,2.47-.31,5.85,5.85,0,0,1,4.48,2.41q1.57,2.16,1.57,6.44a13.43,13.43,0,0,1-.44,3.66,7,7,0,0,1-1.24,2.52,4.49,4.49,0,0,1-1.92,1.41,5.61,5.61,0,0,1-2.48.31,5.7,5.7,0,0,1-4.48-2.53A11.28,11.28,0,0,1,191.47,356.55Zm3,0.26c0,0.23,0,.45,0,0.66s0,0.42,0,.64l5.57-4.66a2.86,2.86,0,0,0-2.58-2.19,2.23,2.23,0,0,0-2.25,1.22A9,9,0,0,0,194.46,356.81Zm6.12,0.51q0-.37,0-0.7c0-.22,0-0.44,0-0.66l-5.59,4.66a2.92,2.92,0,0,0,2.58,2.31,2.26,2.26,0,0,0,2.26-1.21A9,9,0,0,0,200.58,357.32Z"/><path class="cls-4" d="M207.17,368.3a7.38,7.38,0,0,0,1.7-.48,6.46,6.46,0,0,0,2-1.25,7.09,7.09,0,0,0,1.62-2.26,8.14,8.14,0,0,0,.67-3.51,9.71,9.71,0,0,0-.63-3.73,8.56,8.56,0,0,0-1.55-2.52A7.49,7.49,0,0,0,209,353a10.44,10.44,0,0,0-1.83-.8l0.55-2.42a12.36,12.36,0,0,1,3.13,1.33,10.44,10.44,0,0,1,2.69,2.3,11,11,0,0,1,1.88,3.3,12.42,12.42,0,0,1,.7,4.32,11.53,11.53,0,0,1-.7,4.23,8.81,8.81,0,0,1-1.88,3,8.21,8.21,0,0,1-2.69,1.84,10,10,0,0,1-3.13.77Z"/><path class="cls-4" d="M316.66,371.53V369l2.72,0.06v-6.44l-2.74-.06V360l2.74,0.06v-0.64a4.17,4.17,0,0,1,.38-1.85,3.63,3.63,0,0,1,1-1.27,4,4,0,0,1,1.44-.72,6,6,0,0,1,1.7-.21,10.91,10.91,0,0,1,2.62.31,6.85,6.85,0,0,1,1.7.69l-0.88,2.26a10.63,10.63,0,0,0-1.14-.48,5.08,5.08,0,0,0-1.58-.24,2.2,2.2,0,0,0-1.74.53,2.46,2.46,0,0,0-.5,1.68l4.84,0.09v2.53l-4.84-.09v6.44l4.87,0.09v2.53C323,371.67,320.89,371.63,316.66,371.53Z"/><path class="cls-4" d="M330.94,361.1a12.44,12.44,0,0,1,2.13-.68,12.13,12.13,0,0,1,2.87-.26,6.42,6.42,0,0,1,2,.31,3.47,3.47,0,0,1,1.36.83,3.14,3.14,0,0,1,.75,1.27,5.56,5.56,0,0,1,.23,1.66q0,1.17-.08,2t-0.08,1.47a9.89,9.89,0,0,0,0,1.08c0,0.21.05,0.42,0.07,0.62l1.5,0V372l-3.87,0-0.3-1.57h-0.11a3.89,3.89,0,0,1-1.31,1.21,4.33,4.33,0,0,1-2.29.49,3.94,3.94,0,0,1-2.73-1,3.19,3.19,0,0,1-1-2.45,3.62,3.62,0,0,1,.35-1.66,2.91,2.91,0,0,1,1-1.13,4.83,4.83,0,0,1,1.63-.64,9.52,9.52,0,0,1,2.12-.19c0.27,0,.57,0,0.87.06l1.12,0.11a2.36,2.36,0,0,0,0-.46v-0.44a1.49,1.49,0,0,0-.5-1.26,2.48,2.48,0,0,0-1.49-.4,6.92,6.92,0,0,0-2.11.27,13.3,13.3,0,0,0-1.58.57Zm3.93,8.5a2.74,2.74,0,0,0,1.64-.38,2.66,2.66,0,0,0,.8-0.85V367l-0.68-.11a7.89,7.89,0,0,0-1-.07,4.73,4.73,0,0,0-.87.07,2.85,2.85,0,0,0-.78.24,1.48,1.48,0,0,0-.55.44,1.07,1.07,0,0,0-.2.66,1.33,1.33,0,0,0,.38,1A1.79,1.79,0,0,0,334.86,369.6Z"/><path class="cls-4" d="M355.3,371a6.58,6.58,0,0,1-2.21,1.06,9.71,9.71,0,0,1-2.65.34,7.56,7.56,0,0,1-2.66-.46,5.47,5.47,0,0,1-2-1.25,5.27,5.27,0,0,1-1.21-1.93,7.17,7.17,0,0,1-.42-2.49,6.43,6.43,0,0,1,.48-2.57,5.37,5.37,0,0,1,1.35-1.9,5.77,5.77,0,0,1,2-1.17,7.89,7.89,0,0,1,2.56-.38,9.53,9.53,0,0,1,2.42.31,11.42,11.42,0,0,1,1.73.58v4h-2.54V363a6.52,6.52,0,0,0-1.43-.17,4.33,4.33,0,0,0-1.28.19,3.1,3.1,0,0,0-1.13.61,3.23,3.23,0,0,0-.81,1.06,3.49,3.49,0,0,0-.31,1.54,3.56,3.56,0,0,0,.25,1.36,3.19,3.19,0,0,0,1.86,1.82,4.14,4.14,0,0,0,1.51.27,5.38,5.38,0,0,0,2.16-.36,8.65,8.65,0,0,0,1.26-.64Z"/><path class="cls-4" d="M359.22,363.1h-2.28v-2.53h2.28v-2.62l3-.85v3.47h6v2.53h-6v3.29a4,4,0,0,0,.67,2.56,2.31,2.31,0,0,0,1.87.79,4,4,0,0,0,1.13-.15,4.29,4.29,0,0,0,.91-0.38,5.23,5.23,0,0,0,.74-0.51l0.61-.51,1.38,2.07a4.46,4.46,0,0,1-1,.84,8.38,8.38,0,0,1-1.27.67,8.06,8.06,0,0,1-1.42.45,6.79,6.79,0,0,1-1.45.16,5,5,0,0,1-3.89-1.44,6.67,6.67,0,0,1-1.3-4.57V363.1Z"/><path class="cls-4" d="M371.19,366.3a7.07,7.07,0,0,1,.44-2.58,5.31,5.31,0,0,1,1.25-1.92,5.37,5.37,0,0,1,1.93-1.2,7.44,7.44,0,0,1,2.5-.42,7.22,7.22,0,0,1,2.59.42,5.3,5.3,0,0,1,1.93,1.21,5.11,5.11,0,0,1,1.19,1.91,7.3,7.3,0,0,1,.4,2.48,7.11,7.11,0,0,1-.44,2.58,5.25,5.25,0,0,1-3.17,3.12,7.37,7.37,0,0,1-2.5.42,7.18,7.18,0,0,1-2.6-.42,5.31,5.31,0,0,1-1.93-1.22,5.12,5.12,0,0,1-1.19-1.91A7.31,7.31,0,0,1,371.19,366.3Zm3.09,0a4.54,4.54,0,0,0,.21,1.4,3.4,3.4,0,0,0,.6,1.12,2.67,2.67,0,0,0,.95.74,2.89,2.89,0,0,0,1.27.26,3,3,0,0,0,2.18-.87,3.73,3.73,0,0,0,.84-2.7,4,4,0,0,0-.78-2.56,2.68,2.68,0,0,0-2.24-1,3.61,3.61,0,0,0-1.2.2,2.39,2.39,0,0,0-1,.64,3.12,3.12,0,0,0-.63,1.11A5,5,0,0,0,374.29,366.29Z"/><path class="cls-4" d="M385.13,369.42l2.86,0v-6.44l-2.86,0v-2.53l5.19-.07,0.35,1.51h0.09a6.25,6.25,0,0,1,1.48-1.29,3.7,3.7,0,0,1,1.94-.54,2.58,2.58,0,0,1,2.18,1,5.49,5.49,0,0,1,.8,3.37l-2.7,0a2.29,2.29,0,0,0-.24-1.2,0.84,0.84,0,0,0-.77-0.37,2.32,2.32,0,0,0-1.49.48,4.77,4.77,0,0,0-1,1.07v4.9l5-.08v2.53c-4.35.07-6.52,0.1-10.87,0.15v-2.53Z"/><path class="cls-4" d="M399.43,369.2l4.06-.08v-6.44l-4.06.08v-2.53l7.06-.14v9l4.27-.1v2.53c-4.53.11-6.8,0.16-11.33,0.24V369.2ZM402.94,357a1.66,1.66,0,0,1,.53-1.23,2.09,2.09,0,0,1,1.48-.54,2.22,2.22,0,0,1,1.55.47,1.56,1.56,0,0,1,0,2.43,2.41,2.41,0,0,1-1.55.51,2.11,2.11,0,0,1-1.48-.44A1.51,1.51,0,0,1,402.94,357Z"/><path class="cls-4" d="M414,360.69a12.92,12.92,0,0,1,2.13-.77,12.29,12.29,0,0,1,2.87-.38,6.31,6.31,0,0,1,2,.23,3.28,3.28,0,0,1,1.36.78,3,3,0,0,1,.75,1.24,5.47,5.47,0,0,1,.23,1.65q0,1.17-.08,2c-0.05.55-.08,1-0.08,1.47a9.81,9.81,0,0,0,0,1.08c0,0.21.05,0.42,0.07,0.62l1.5,0v2.53l-3.87.12-0.3-1.56h-0.11a4.14,4.14,0,0,1-1.31,1.27,4.45,4.45,0,0,1-2.29.58,3.8,3.8,0,0,1-2.73-.85,3.06,3.06,0,0,1-1-2.41,3.72,3.72,0,0,1,.35-1.68,3.09,3.09,0,0,1,1-1.18,5,5,0,0,1,1.63-.71,9.62,9.62,0,0,1,2.12-.28c0.27,0,.57,0,0.87,0l1.12,0.06a2.38,2.38,0,0,0,0-.46V363.6a1.43,1.43,0,0,0-.5-1.24,2.41,2.41,0,0,0-1.49-.34,7,7,0,0,0-2.11.36,13.87,13.87,0,0,0-1.58.64Zm3.93,8.33a2.58,2.58,0,0,0,2.44-1.33v-1.38l-0.68-.08a7.88,7.88,0,0,0-1,0,4.81,4.81,0,0,0-.87.1,3,3,0,0,0-.78.28,1.57,1.57,0,0,0-.55.46,1.11,1.11,0,0,0-.2.67,1.28,1.28,0,0,0,.38,1A1.73,1.73,0,0,0,417.91,369Z"/><path class="cls-4" d="M427.75,354.91l4.91-.17v10.63a4.83,4.83,0,0,0,.44,2.45,1.48,1.48,0,0,0,1.41.64,3.93,3.93,0,0,0,1.18-.19,4.65,4.65,0,0,0,.92-0.46l1.13,2q-0.39.27-.78,0.5a5.28,5.28,0,0,1-.83.4,5.8,5.8,0,0,1-1,.26,7.72,7.72,0,0,1-1.16.12,4.23,4.23,0,0,1-3.25-1,4.14,4.14,0,0,1-1.08-3.09v-9.66l-1.91.06v-2.53Z"/><path class="cls-4" d="M441.38,373.2c4.09-.16,6.14-0.25,10.24-0.43v2.46c-4.09.18-6.14,0.27-10.24,0.43V373.2Z"/><path class="cls-4" d="M453.42,353.9l4.66-.22v5.89h0.09a4.18,4.18,0,0,1,1.47-1.24,5.19,5.19,0,0,1,2.17-.54,5.32,5.32,0,0,1,1.61.15,2.86,2.86,0,0,1,1.27.69,3.34,3.34,0,0,1,.83,1.39,7.09,7.09,0,0,1,.3,2.23v7.15l-3,.15V363a2.73,2.73,0,0,0-.6-2,2,2,0,0,0-1.57-.54,2.74,2.74,0,0,0-1.57.59,3,3,0,0,0-1,1.37v7.34l-3,.14V356.35l-1.66.08V353.9Z"/><path class="cls-4" d="M479.55,367.4a4.46,4.46,0,0,1-.77.59,8,8,0,0,1-1.11.56,9,9,0,0,1-1.39.45,9.17,9.17,0,0,1-1.61.23A7.66,7.66,0,0,1,472,369a4.79,4.79,0,0,1-3.2-2.94,7.67,7.67,0,0,1,.06-5.2,5.73,5.73,0,0,1,1.32-2,6,6,0,0,1,2-1.25,7.89,7.89,0,0,1,2.44-.52,7.46,7.46,0,0,1,1.81.13,4.67,4.67,0,0,1,1.72.69,3.91,3.91,0,0,1,1.28,1.43,4.93,4.93,0,0,1,.5,2.36,11.13,11.13,0,0,1-.23,2.15l-8.3.47a2.56,2.56,0,0,0,.31,1.23,2.26,2.26,0,0,0,.76.78,3.09,3.09,0,0,0,1.08.41,5.33,5.33,0,0,0,1.3.08,6.93,6.93,0,0,0,2.27-.45,5.17,5.17,0,0,0,1.44-.87Zm-5-7.92a3.91,3.91,0,0,0-1.13.23,3.38,3.38,0,0,0-1,.53,2.84,2.84,0,0,0-.7.82,2.52,2.52,0,0,0-.32,1.07l5.67-.32A2.14,2.14,0,0,0,474.58,359.48Z"/><path class="cls-4" d="M483.08,352.31L488,352v10.63a4.76,4.76,0,0,0,.44,2.43,1.44,1.44,0,0,0,1.41.6,4,4,0,0,0,1.17-.23,4.81,4.81,0,0,0,.92-0.49l1.13,2q-0.39.28-.78,0.52a5.47,5.47,0,0,1-.83.42,5.91,5.91,0,0,1-1,.29,7.73,7.73,0,0,1-1.16.16,4.13,4.13,0,0,1-3.25-.9,4,4,0,0,1-1.08-3.06v-9.66l-1.91.12v-2.53Z"/><path class="cls-4" d="M494.9,356.16l3.92-.27,0.35,1.36h0.09a4.76,4.76,0,0,1,3.87-2,5.33,5.33,0,0,1,1.95.19,3.45,3.45,0,0,1,1.52.94,4.5,4.5,0,0,1,1,1.72,8.35,8.35,0,0,1,.35,2.57,8.7,8.7,0,0,1-.39,2.68,6.18,6.18,0,0,1-1.13,2.09,5.35,5.35,0,0,1-1.8,1.39,6.56,6.56,0,0,1-2.42.61,9.45,9.45,0,0,1-1.4,0,3.69,3.69,0,0,1-1.15-.25v4.72l-3,.21V358.57l-1.73.12v-2.53Zm7.32,1.7a3.23,3.23,0,0,0-1.6.55,2.5,2.5,0,0,0-1,1.38v4.78a2.29,2.29,0,0,0,.93.34,5.06,5.06,0,0,0,1.23.06,3.35,3.35,0,0,0,1.2-.3,2.71,2.71,0,0,0,1-.77,3.72,3.72,0,0,0,.64-1.26,6.15,6.15,0,0,0,.23-1.79,3.21,3.21,0,0,0-.74-2.29A2.23,2.23,0,0,0,502.22,357.86Z"/><path class="cls-4" d="M521,364.51a4.6,4.6,0,0,1-.77.6,8.18,8.18,0,0,1-1.11.58,9.29,9.29,0,0,1-3,.74,7.6,7.6,0,0,1-2.64-.21,4.64,4.64,0,0,1-3.2-2.87,6.84,6.84,0,0,1-.43-2.51,7,7,0,0,1,.48-2.69,5.9,5.9,0,0,1,1.32-2,6.13,6.13,0,0,1,2-1.29,8,8,0,0,1,2.44-.57,7.4,7.4,0,0,1,1.81.09,4.55,4.55,0,0,1,1.72.66,3.79,3.79,0,0,1,1.28,1.4,4.87,4.87,0,0,1,.5,2.35,11.22,11.22,0,0,1-.23,2.16l-8.29.65a2.52,2.52,0,0,0,.31,1.22,2.2,2.2,0,0,0,.76.77A3,3,0,0,0,515,364a5.32,5.32,0,0,0,1.3,0,7,7,0,0,0,2.27-.5,5.32,5.32,0,0,0,1.44-.9Zm-5-7.82a4,4,0,0,0-1.13.25,3.46,3.46,0,0,0-1,.55,2.93,2.93,0,0,0-.7.84,2.56,2.56,0,0,0-.32,1.08l5.66-.44A2.09,2.09,0,0,0,516,356.7Z"/><path class="cls-4" d="M523.42,363l2.85-.23v-6.44l-2.85.23V354l5.18-.43,0.34,1.49H529a6.91,6.91,0,0,1,1.47-1.39,3.91,3.91,0,0,1,1.93-.67,2.4,2.4,0,0,1,2.17.82,5.24,5.24,0,0,1,.79,3.31l-2.69.23a2.2,2.2,0,0,0-.24-1.19,0.78,0.78,0,0,0-.77-0.31,2.46,2.46,0,0,0-1.48.59,5.28,5.28,0,0,0-1,1.14v4.9l5-.43v2.53c-4.33.38-6.5,0.56-10.84,0.91V363Z"/><path class="cls-4" d="M546.79,368.37a9.89,9.89,0,0,1-3.13-.72,8,8,0,0,1-2.69-1.8,8.65,8.65,0,0,1-1.88-3,11.46,11.46,0,0,1-.7-4.22,12.52,12.52,0,0,1,.7-4.33A11.23,11.23,0,0,1,541,351a10.65,10.65,0,0,1,2.69-2.34,12.55,12.55,0,0,1,3.13-1.37l0.55,2.41a10.58,10.58,0,0,0-1.83.83,7.62,7.62,0,0,0-1.94,1.58,8.72,8.72,0,0,0-1.55,2.55,9.78,9.78,0,0,0-.63,3.74,8.09,8.09,0,0,0,.67,3.5,6.94,6.94,0,0,0,1.62,2.23,6.3,6.3,0,0,0,2,1.22,7.26,7.26,0,0,0,1.7.45Z"/><path class="cls-4" d="M555.83,360.42a5,5,0,0,0,1.39-.33,3.72,3.72,0,0,0,1.08-.66,3.06,3.06,0,0,0,.7-0.89,2.26,2.26,0,0,0,.25-1,2,2,0,0,0-.29-1.13,1.8,1.8,0,0,0-.79-0.67,3.53,3.53,0,0,0-1.22-.27,9.69,9.69,0,0,0-1.54,0l-1.29.13v-1.65l3.86-5.1-5.82.57v-2.53l9.38-.93V348l-4,5L558,353a4.39,4.39,0,0,1,1.56.12,3.41,3.41,0,0,1,1.34.69,3.54,3.54,0,0,1,.94,1.28,4.53,4.53,0,0,1,.36,1.87,5,5,0,0,1-.54,2.35,6.06,6.06,0,0,1-1.42,1.81,6.88,6.88,0,0,1-2,1.21,8.88,8.88,0,0,1-2.37.57,11.56,11.56,0,0,1-2.07,0,9.34,9.34,0,0,1-2-.38l0.81-2.56a2.89,2.89,0,0,0,.56.18l0.8,0.15a8.35,8.35,0,0,0,.92.09A6.39,6.39,0,0,0,555.83,360.42Z"/><path class="cls-4" d="M569.62,359a5,5,0,0,0,1.39-.34,3.76,3.76,0,0,0,1.08-.66,3.09,3.09,0,0,0,.7-0.9,2.27,2.27,0,0,0,.25-1,2,2,0,0,0-.29-1.13,1.78,1.78,0,0,0-.79-0.66,3.51,3.51,0,0,0-1.22-.26,9.71,9.71,0,0,0-1.54,0l-1.29.13v-1.65l3.86-5.13L566,348V345.5l9.37-1v2.09l-4,5.06,0.53-.06a4.38,4.38,0,0,1,1.56.11,3.38,3.38,0,0,1,1.34.68,3.51,3.51,0,0,1,.94,1.28,4.52,4.52,0,0,1,.36,1.87,5.07,5.07,0,0,1-.54,2.36,6.13,6.13,0,0,1-1.42,1.82,6.94,6.94,0,0,1-2,1.23,8.91,8.91,0,0,1-2.37.58,11.55,11.55,0,0,1-2.07,0,9.28,9.28,0,0,1-2-.37l0.8-2.57a2.89,2.89,0,0,0,.56.17l0.8,0.15a8.46,8.46,0,0,0,.92.09A6.38,6.38,0,0,0,569.62,359Z"/><path class="cls-4" d="M589.71,359c-4.1.47-6.14,0.7-10.24,1.16v-2.23l0.69-.69,0.93-1q0.52-.54,1.09-1.18t1.13-1.32q0.78-1,1.37-1.74a13.27,13.27,0,0,0,1-1.45,6.29,6.29,0,0,0,.56-1.31,4.51,4.51,0,0,0,.18-1.27,1.93,1.93,0,0,0-.21-0.87,2.09,2.09,0,0,0-.57-0.71,2.39,2.39,0,0,0-.88-0.43,3.05,3.05,0,0,0-1.14-.07,4.61,4.61,0,0,0-1.5.42,6,6,0,0,0-1.41,1l-1.19-2a11.71,11.71,0,0,1,2.15-1.4,7.88,7.88,0,0,1,2.72-.78,6.3,6.3,0,0,1,1.89.06,4.39,4.39,0,0,1,1.61.63,3.35,3.35,0,0,1,1.11,1.22,3.74,3.74,0,0,1,.41,1.82,7.23,7.23,0,0,1-.13,1.38,7.38,7.38,0,0,1-.39,1.31,9.82,9.82,0,0,1-.69,1.38q-0.43.72-1,1.57-0.46.65-1,1.32t-1.07,1.28q-0.53.61-1,1.15t-0.93.91l6.61-.75V359Z"/><path class="cls-4" d="M604,352.31a5.52,5.52,0,0,1-.42,2.14,6.23,6.23,0,0,1-1.16,1.82,6.39,6.39,0,0,1-1.75,1.34,6.5,6.5,0,0,1-4.43.57,4.35,4.35,0,0,1-1.82-.92,4.6,4.6,0,0,1-1.24-1.76,6.74,6.74,0,0,1-.46-2.61,11.19,11.19,0,0,1,.79-4.23,13.36,13.36,0,0,1,2-3.47,12.63,12.63,0,0,1,2.78-2.54,10.56,10.56,0,0,1,3.05-1.44l0.67,2.29a10.09,10.09,0,0,0-2.27,1,9.84,9.84,0,0,0-1.88,1.48,9,9,0,0,0-1.39,1.8,6.49,6.49,0,0,0-.77,2,4.19,4.19,0,0,1,1.38-1.14,5.43,5.43,0,0,1,2-.64,5.29,5.29,0,0,1,1.93.1,3.68,3.68,0,0,1,2.58,2.2A5.11,5.11,0,0,1,604,352.31Zm-2.89.47a2.09,2.09,0,0,0-.75-1.8,2.72,2.72,0,0,0-2-.4,3.66,3.66,0,0,0-1.65.61,3.48,3.48,0,0,0-1.08,1.09,4.09,4.09,0,0,0-.06.57q0,0.31,0,.5a2.9,2.9,0,0,0,.18,1,2.13,2.13,0,0,0,1.4,1.32,2.78,2.78,0,0,0,1.17.08,3.08,3.08,0,0,0,1-.32,3.44,3.44,0,0,0,.9-0.65,3.15,3.15,0,0,0,.63-0.92A2.67,2.67,0,0,0,601.12,352.77Z"/><path class="cls-4" d="M618.48,351l-2.75.36v4.49l-2.77.36v-4.49l-6.95.87v-2l7.27-10.6,2.45-.31v9.34l2.75-.36V351ZM613,344.19l-4,5.61,4-.51v-5.11Z"/><path class="cls-4" d="M619.88,347.21a14.45,14.45,0,0,1,.44-3.73,8.78,8.78,0,0,1,1.23-2.77,6.2,6.2,0,0,1,1.9-1.8,6.36,6.36,0,0,1,2.46-.85,4.67,4.67,0,0,1,4.46,1.43q1.56,1.82,1.56,6.1a14.56,14.56,0,0,1-.44,3.75,9,9,0,0,1-1.23,2.79,6.14,6.14,0,0,1-1.91,1.82,6.43,6.43,0,0,1-2.47.85,4.52,4.52,0,0,1-4.46-1.56Q619.88,351.3,619.88,347.21Zm3-.39c0,0.23,0,.45,0,0.65s0,0.42,0,.63l5.55-5.87a2.19,2.19,0,0,0-2.57-1.63,2.9,2.9,0,0,0-2.24,1.71A10.13,10.13,0,0,0,622.86,346.81ZM629,346q0-.37,0-0.7c0-.22,0-0.44,0-0.65l-5.57,5.88a2.23,2.23,0,0,0,2.57,1.75,2.93,2.93,0,0,0,2.25-1.71A10.16,10.16,0,0,0,629,346Z"/><path class="cls-4" d="M637.75,351.38a1.82,1.82,0,0,1,.52-1.31,2.17,2.17,0,0,1,1.29-.64,2,2,0,0,1,1.9.56,2.87,2.87,0,0,1,.64,2,4.76,4.76,0,0,1-.4,1.94,6.05,6.05,0,0,1-1,1.62,6.9,6.9,0,0,1-1.43,1.22,6.7,6.7,0,0,1-1.57.75L637,356.29a7.7,7.7,0,0,0,1.11-.55,5.46,5.46,0,0,0,1-.78,4.38,4.38,0,0,0,.77-1,2.76,2.76,0,0,0,.35-1.15,3,3,0,0,1-1.17.2,1.53,1.53,0,0,1-.79-0.26,1.24,1.24,0,0,1-.45-0.58A2.2,2.2,0,0,1,637.75,351.38Z"/><path class="cls-4" d="M651.92,348.48a5.47,5.47,0,0,0,1.4-.39,4.18,4.18,0,0,0,1.11-.69,3,3,0,0,0,.73-1,2.69,2.69,0,0,0,.26-1.19,2,2,0,0,0-1-1.84,4.7,4.7,0,0,0-3-.28l-0.58.1-0.63.13-0.71.13v-8.42l8.28-1.23v2.81l-5.72.85v3.1l0.37-.08,0.31-.06,0.26-.05a6.37,6.37,0,0,1,2.13,0,4,4,0,0,1,1.72.74,3.67,3.67,0,0,1,1.13,1.45,5,5,0,0,1,.4,2,5.84,5.84,0,0,1-.5,2.46,6.13,6.13,0,0,1-1.37,1.92,7.48,7.48,0,0,1-2,1.35,9,9,0,0,1-2.45.72,6,6,0,0,1-1.08.06q-0.57,0-1.12-.09a9,9,0,0,1-1-.18,8.13,8.13,0,0,1-.79-0.23l1-2.53a5.9,5.9,0,0,0,1.2.33A5.06,5.06,0,0,0,651.92,348.48Z"/><path class="cls-4" d="M663,351.51a9.23,9.23,0,0,0,1.69-.87,8.94,8.94,0,0,0,2-1.71,9.74,9.74,0,0,0,1.61-2.63,9.3,9.3,0,0,0,.66-3.67,8.67,8.67,0,0,0-.63-3.58,6.23,6.23,0,0,0-1.54-2.16,5.4,5.4,0,0,0-1.93-1.1,8.44,8.44,0,0,0-1.82-.38l0.55-2.55a10.08,10.08,0,0,1,3.11.6,7.47,7.47,0,0,1,2.67,1.68,8.12,8.12,0,0,1,1.86,2.87,11.17,11.17,0,0,1,.7,4.16,13,13,0,0,1-.7,4.39,11.93,11.93,0,0,1-1.86,3.42,11.42,11.42,0,0,1-2.67,2.47,12.34,12.34,0,0,1-3.11,1.49Z"/><path class="cls-4" d="M53.94,450.54V448l2.7,0.43V442l-2.72-.43V439l2.72,0.43v-0.64A3.87,3.87,0,0,1,57,437a3,3,0,0,1,1-1.13,3.42,3.42,0,0,1,1.43-.53,5.71,5.71,0,0,1,1.68,0,11.54,11.54,0,0,1,2.6.66,7.9,7.9,0,0,1,1.68.91l-0.87,2.14a12.3,12.3,0,0,0-1.13-.63,5.46,5.46,0,0,0-1.57-.45,2,2,0,0,0-1.73.3,2.21,2.21,0,0,0-.49,1.61l4.8,0.74v2.53l-4.8-.74v6.44l4.83,0.74v2.53C60.24,451.53,58.14,451.2,53.94,450.54Z"/><path class="cls-4" d="M68.1,442a11.15,11.15,0,0,1,2.12-.39,11.81,11.81,0,0,1,2.85.12,6.9,6.9,0,0,1,2,.59,4.14,4.14,0,0,1,1.35,1,3.74,3.74,0,0,1,.74,1.37,5.91,5.91,0,0,1,.23,1.69q0,1.17-.08,2c-0.05.54-.08,1-0.08,1.46a10.09,10.09,0,0,0,0,1.09c0,0.21.05,0.43,0.07,0.63l1.49,0.22v2.53L75,453.76l-0.3-1.61-0.11,0a3.19,3.19,0,0,1-1.3,1,4,4,0,0,1-2.27.18A4.47,4.47,0,0,1,68.32,452a3.65,3.65,0,0,1-1-2.59,3.35,3.35,0,0,1,.35-1.61,2.38,2.38,0,0,1,1-1,4.24,4.24,0,0,1,1.61-.42,9.27,9.27,0,0,1,2.1.09q0.41,0.06.86,0.17l1.11,0.26a2.28,2.28,0,0,0,0-.45V446a1.7,1.7,0,0,0-.5-1.33,2.76,2.76,0,0,0-1.48-.6,6.64,6.64,0,0,0-2.09,0,11.75,11.75,0,0,0-1.57.36ZM72,451a2.52,2.52,0,0,0,1.63-.16,2.16,2.16,0,0,0,.79-0.75v-1.38l-0.68-.2a8.27,8.27,0,0,0-1-.2,4.63,4.63,0,0,0-.86,0,2.57,2.57,0,0,0-.77.14,1.22,1.22,0,0,0-.54.37,1,1,0,0,0-.2.64,1.51,1.51,0,0,0,.37,1.06A2,2,0,0,0,72,451Z"/><path class="cls-4" d="M92.27,455.12a5.66,5.66,0,0,1-2.2.76,9.32,9.32,0,0,1-2.63,0,8.17,8.17,0,0,1-2.65-.81,6.56,6.56,0,0,1-1.95-1.51,6.29,6.29,0,0,1-1.2-2.09,7.69,7.69,0,0,1-.41-2.54,6,6,0,0,1,.48-2.51,4.44,4.44,0,0,1,1.34-1.72,4.88,4.88,0,0,1,2-.9,7.51,7.51,0,0,1,2.54,0,10.12,10.12,0,0,1,2.4.64,12.91,12.91,0,0,1,1.72.81v4l-2.52-.35v-2.12a6.92,6.92,0,0,0-1.42-.36,4.15,4.15,0,0,0-1.27,0,2.58,2.58,0,0,0-1.92,1.42,3.26,3.26,0,0,0-.31,1.5,3.85,3.85,0,0,0,.25,1.39,3.85,3.85,0,0,0,1.84,2.07,4.48,4.48,0,0,0,1.5.48,5.09,5.09,0,0,0,2.14-.07,7.33,7.33,0,0,0,1.25-.47Z"/><path class="cls-4" d="M96.17,447.79l-2.27-.31v-2.53l2.27,0.31v-2.62l3-.45v3.47l6,0.8V449l-6-.8v3.29a4.39,4.39,0,0,0,.66,2.65,2.66,2.66,0,0,0,1.86,1,3.83,3.83,0,0,0,1.12,0,3.76,3.76,0,0,0,.91-0.26,4.33,4.33,0,0,0,.73-0.41l0.61-.43,1.38,2.25a3.66,3.66,0,0,1-1,.71,7.11,7.11,0,0,1-1.26.5,7.25,7.25,0,0,1-1.41.26,6.58,6.58,0,0,1-1.44,0,5.68,5.68,0,0,1-3.86-2,7.45,7.45,0,0,1-1.29-4.74v-3.29Z"/><path class="cls-4" d="M108.06,452.59a6.66,6.66,0,0,1,.44-2.52,4.43,4.43,0,0,1,1.24-1.75,4.51,4.51,0,0,1,1.91-.94,7,7,0,0,1,2.49-.08,7.8,7.8,0,0,1,2.58.76,6.34,6.34,0,0,1,1.92,1.47,6.08,6.08,0,0,1,1.18,2.07,7.81,7.81,0,0,1,.4,2.53,6.68,6.68,0,0,1-.44,2.52,4.35,4.35,0,0,1-3.15,2.7,7,7,0,0,1-2.49.09,7.75,7.75,0,0,1-2.58-.77,6.35,6.35,0,0,1-1.91-1.48,6.11,6.11,0,0,1-1.18-2.07A7.82,7.82,0,0,1,108.06,452.59Zm3.07,0.4a4.83,4.83,0,0,0,.21,1.43,4,4,0,0,0,.6,1.2,3.25,3.25,0,0,0,.94.87,3.16,3.16,0,0,0,1.26.43,2.61,2.61,0,0,0,2.17-.58,3.34,3.34,0,0,0,.84-2.59,4.42,4.42,0,0,0-.78-2.66,3.1,3.1,0,0,0-2.22-1.26,3.42,3.42,0,0,0-1.19,0,2,2,0,0,0-1,.51,2.61,2.61,0,0,0-.63,1A4.7,4.7,0,0,0,111.13,453Z"/><path class="cls-4" d="M121.91,457.56l2.85,0.35v-6.44l-2.85-.35v-2.53l5.16,0.63,0.34,1.56h0.09A5.13,5.13,0,0,1,129,449.7a3.39,3.39,0,0,1,1.93-.28,3,3,0,0,1,2.17,1.27,6,6,0,0,1,.79,3.47l-2.69-.32a2.49,2.49,0,0,0-.24-1.24,1,1,0,0,0-.77-0.47,2.08,2.08,0,0,0-1.48.28,3.89,3.89,0,0,0-1,.94v4.9l5,0.59v2.53c-4.32-.51-6.49-0.77-10.81-1.3v-2.53Z"/><path class="cls-4" d="M136.14,459.26l4,0.46v-6.44l-4-.46v-2.53l7,0.8v9l4.25,0.47v2.53c-4.51-.5-6.77-0.75-11.27-1.27v-2.53Zm3.49-11.7a1.44,1.44,0,0,1,.53-1.16,1.86,1.86,0,0,1,1.47-.34,2.5,2.5,0,0,1,1.54.68,1.77,1.77,0,0,1,.57,1.28,1.32,1.32,0,0,1-.57,1.14,2.17,2.17,0,0,1-1.54.3,2.37,2.37,0,0,1-1.47-.64A1.73,1.73,0,0,1,139.63,447.56Z"/><path class="cls-4" d="M150.63,452.69a11.54,11.54,0,0,1,2.12-.48,11.87,11.87,0,0,1,2.86,0,6.72,6.72,0,0,1,2,.5,3.91,3.91,0,0,1,1.36,1,3.55,3.55,0,0,1,.75,1.34,5.79,5.79,0,0,1,.23,1.68q0,1.17-.08,2t-0.08,1.46a10,10,0,0,0,0,1.09c0,0.21.05,0.43,0.07,0.63l1.49,0.15v2.53l-3.86-.4-0.3-1.6h-0.11a3.4,3.4,0,0,1-1.3,1.09,4.1,4.1,0,0,1-2.28.28,4.29,4.29,0,0,1-2.72-1.21,3.5,3.5,0,0,1-1-2.55,3.42,3.42,0,0,1,.35-1.63,2.54,2.54,0,0,1,1-1,4.41,4.41,0,0,1,1.62-.49,9.32,9.32,0,0,1,2.11,0q0.41,0,.87.14l1.12,0.21a2.3,2.3,0,0,0,0-.46v-0.44a1.63,1.63,0,0,0-.5-1.31,2.66,2.66,0,0,0-1.48-.54,6.7,6.7,0,0,0-2.1.08,12.19,12.19,0,0,0-1.57.43Zm3.91,8.86a2.58,2.58,0,0,0,1.64-.23,2.31,2.31,0,0,0,.8-0.78v-1.38l-0.68-.18a8.13,8.13,0,0,0-1-.16,4.66,4.66,0,0,0-.86,0,2.63,2.63,0,0,0-.77.17,1.29,1.29,0,0,0-.55.39,1,1,0,0,0-.2.65,1.45,1.45,0,0,0,.37,1A1.94,1.94,0,0,0,154.54,461.55Z"/><path class="cls-4" d="M164.35,448.75l4.9,0.49v10.63a5.2,5.2,0,0,0,.44,2.5,1.72,1.72,0,0,0,1.4.83,3.76,3.76,0,0,0,1.17,0,4,4,0,0,0,.92-0.34L174.3,465q-0.39.22-.78,0.4a4.59,4.59,0,0,1-.83.29,5.31,5.31,0,0,1-1,.14,7.49,7.49,0,0,1-1.16,0,4.78,4.78,0,0,1-3.24-1.42,4.68,4.68,0,0,1-1.08-3.24v-9.66l-1.91-.19v-2.53Z"/><path class="cls-4" d="M186.6,471.84a11.6,11.6,0,0,1-3.13-1.29,10.44,10.44,0,0,1-2.69-2.29,11,11,0,0,1-1.87-3.3,12.52,12.52,0,0,1-.7-4.34,11.46,11.46,0,0,1,.7-4.2,8.84,8.84,0,0,1,1.87-3,8.2,8.2,0,0,1,2.69-1.85,10.61,10.61,0,0,1,3.13-.8l0.55,2.51a8.9,8.9,0,0,0-1.83.49,5.88,5.88,0,0,0-1.94,1.23,6.8,6.8,0,0,0-1.55,2.26,9.26,9.26,0,0,0,1.66,9.78,8.16,8.16,0,0,0,2,1.58,8.63,8.63,0,0,0,1.7.76Z"/><path class="cls-4" d="M192.38,464.95l3.52,0.3V455.2l-3,2.06-1.38-2,5.25-3.55,2,0.17v13.57l3.45,0.28v2.53l-9.83-.83v-2.53Z"/><path class="cls-4" d="M206.19,466.09l3.52,0.28V456.32l-3,2.08-1.38-1.95,5.25-3.59,2,0.16v13.57l3.45,0.26v2.53l-9.83-.76v-2.53Z"/><path class="cls-4" d="M220.32,472.07a7.42,7.42,0,0,0,1.7-.49,6.52,6.52,0,0,0,2-1.26,7.16,7.16,0,0,0,1.62-2.27,8.17,8.17,0,0,0,.67-3.52,9.68,9.68,0,0,0-.63-3.72,8.48,8.48,0,0,0-1.55-2.51,7.41,7.41,0,0,0-1.95-1.54,10.35,10.35,0,0,0-1.83-.79l0.55-2.42a12.29,12.29,0,0,1,3.13,1.3,10.34,10.34,0,0,1,2.69,2.28,10.92,10.92,0,0,1,1.88,3.29,12.39,12.39,0,0,1,.7,4.31,11.58,11.58,0,0,1-.7,4.23,8.89,8.89,0,0,1-1.88,3,8.28,8.28,0,0,1-2.69,1.86,10.07,10.07,0,0,1-3.13.79Z"/><path class="cls-4" d="M372,474.83V472.3h2.72v-6.44h-2.74v-2.53h2.74v-0.64a4.24,4.24,0,0,1,.38-1.87,3.78,3.78,0,0,1,1-1.29,4.14,4.14,0,0,1,1.44-.76,6,6,0,0,1,1.7-.25,10.78,10.78,0,0,1,2.62.24,6.65,6.65,0,0,1,1.7.64l-0.88,2.29a10.32,10.32,0,0,0-1.14-.45,5,5,0,0,0-1.58-.19,2.26,2.26,0,0,0-1.74.58,2.51,2.51,0,0,0-.5,1.69l4.84,0v2.53l-4.84,0v6.44l4.87,0v2.53C378.32,474.79,376.2,474.81,372,474.83Z"/><path class="cls-4" d="M386.25,464a12.74,12.74,0,0,1,2.13-.74,12.23,12.23,0,0,1,2.87-.34,6.35,6.35,0,0,1,2,.26,3.34,3.34,0,0,1,1.36.79,3,3,0,0,1,.75,1.25,5.49,5.49,0,0,1,.23,1.65q0,1.17-.08,2t-0.08,1.47a9.83,9.83,0,0,0,0,1.08c0,0.21.05,0.42,0.07,0.62l1.5,0v2.53l-3.87.06-0.3-1.56H392.8a4.06,4.06,0,0,1-1.31,1.25,4.41,4.41,0,0,1-2.29.55,3.85,3.85,0,0,1-2.73-.89,3.11,3.11,0,0,1-1-2.43,3.68,3.68,0,0,1,.35-1.67,3,3,0,0,1,1-1.16,5,5,0,0,1,1.63-.69,9.58,9.58,0,0,1,2.12-.25c0.27,0,.57,0,0.87,0l1.12,0.08a2.37,2.37,0,0,0,0-.46V467a1.45,1.45,0,0,0-.5-1.25,2.43,2.43,0,0,0-1.49-.36,7,7,0,0,0-2.11.33,13.72,13.72,0,0,0-1.58.62Zm3.93,8.39a2.53,2.53,0,0,0,2.44-1.3c0-.55,0-0.83,0-1.38l-0.68-.09a7.91,7.91,0,0,0-1,0,4.79,4.79,0,0,0-.87.09,2.91,2.91,0,0,0-.78.26,1.54,1.54,0,0,0-.55.46,1.1,1.1,0,0,0-.2.67,1.29,1.29,0,0,0,.38,1A1.75,1.75,0,0,0,390.18,472.38Z"/><path class="cls-4" d="M410.61,473.17a6.8,6.8,0,0,1-2.21,1.12,9.81,9.81,0,0,1-2.65.42,7.46,7.46,0,0,1-2.66-.38,5.28,5.28,0,0,1-2-1.19,5.07,5.07,0,0,1-1.21-1.9,7.08,7.08,0,0,1-.42-2.48,6.53,6.53,0,0,1,.48-2.59,5.58,5.58,0,0,1,1.35-1.94,6,6,0,0,1,2-1.23,8,8,0,0,1,2.56-.46,9.42,9.42,0,0,1,2.42.24,11.14,11.14,0,0,1,1.73.53v4l-2.54.06v-2.12a6.48,6.48,0,0,0-1.43-.13,4.39,4.39,0,0,0-1.28.22,3.22,3.22,0,0,0-1.13.65,3.36,3.36,0,0,0-.81,1.09,3.55,3.55,0,0,0-.31,1.55,3.51,3.51,0,0,0,.25,1.35,3.07,3.07,0,0,0,1.86,1.77,4.09,4.09,0,0,0,1.51.23,5.46,5.46,0,0,0,2.16-.42,9,9,0,0,0,1.26-.67Z"/><path class="cls-4" d="M414.53,465.2l-2.28.06v-2.53l2.28-.06v-2.62l3-.93c0,1.39,0,2.08,0,3.47l6-.18v2.53l-6,.18v3.29a3.87,3.87,0,0,0,.67,2.55,2.24,2.24,0,0,0,1.87.74,4,4,0,0,0,1.13-.18,4.39,4.39,0,0,0,.91-0.41,5.44,5.44,0,0,0,.74-0.53l0.61-.52,1.38,2a4.65,4.65,0,0,1-1,.87,8.72,8.72,0,0,1-1.27.71,8.24,8.24,0,0,1-1.42.49,6.84,6.84,0,0,1-1.45.2,4.85,4.85,0,0,1-3.89-1.33q-1.3-1.4-1.3-4.53V465.2Z"/><path class="cls-4" d="M426.5,468.07a7.18,7.18,0,0,1,.44-2.59,5.52,5.52,0,0,1,1.25-2,5.57,5.57,0,0,1,1.93-1.25,7.53,7.53,0,0,1,2.5-.49,7.13,7.13,0,0,1,2.59.34,5.1,5.1,0,0,1,1.93,1.16,4.92,4.92,0,0,1,1.19,1.88,7.82,7.82,0,0,1,0,5.06,5.46,5.46,0,0,1-3.17,3.21,7.46,7.46,0,0,1-2.5.49,7.08,7.08,0,0,1-2.59-.35,5.11,5.11,0,0,1-1.93-1.17,4.94,4.94,0,0,1-1.19-1.88A7.22,7.22,0,0,1,426.5,468.07Zm3.09-.1a4.48,4.48,0,0,0,.21,1.4,3.29,3.29,0,0,0,.6,1.11,2.57,2.57,0,0,0,.94.71,2.84,2.84,0,0,0,1.27.22,3,3,0,0,0,2.18-.93,4.66,4.66,0,0,0,.06-5.26,2.61,2.61,0,0,0-2.24-.9,3.65,3.65,0,0,0-1.2.24,2.48,2.48,0,0,0-1,.67,3.24,3.24,0,0,0-.63,1.13A5,5,0,0,0,429.59,468Z"/><path class="cls-4" d="M440.43,470.79l2.86-.11v-6.44l-2.86.11v-2.53l5.19-.21,0.35,1.5h0.09a6.51,6.51,0,0,1,1.48-1.33,3.78,3.78,0,0,1,1.94-.59,2.51,2.51,0,0,1,2.18.91,5.39,5.39,0,0,1,.79,3.34l-2.7.12a2.25,2.25,0,0,0-.24-1.2,0.81,0.81,0,0,0-.77-0.35,2.37,2.37,0,0,0-1.49.52,5,5,0,0,0-1,1.1v4.9l5-.22v2.53c-4.34.19-6.52,0.29-10.86,0.46v-2.53Z"/><path class="cls-4" d="M454.72,470.18l4.06-.19c0-2.58,0-3.86,0-6.44l-4.06.19v-2.53l7.05-.34v9l4.26-.22c0,1,0,1.52,0,2.53-4.53.24-6.79,0.35-11.32,0.56v-2.53Zm3.5-12.26a1.71,1.71,0,0,1,.53-1.24,2.14,2.14,0,0,1,1.47-.58,2.17,2.17,0,0,1,1.54.43,1.49,1.49,0,0,1,.58,1.19,1.57,1.57,0,0,1-.58,1.24,2.47,2.47,0,0,1-1.54.55,2.06,2.06,0,0,1-1.47-.4A1.47,1.47,0,0,1,458.23,457.92Z"/><path class="cls-4" d="M469.27,461.26a13.27,13.27,0,0,1,2.13-.83,12.43,12.43,0,0,1,2.87-.46,6.25,6.25,0,0,1,2,.17,3.16,3.16,0,0,1,1.36.74,2.87,2.87,0,0,1,.75,1.22,5.4,5.4,0,0,1,.23,1.64q0,1.17-.08,2t-0.08,1.48a9.74,9.74,0,0,0,0,1.08c0,0.21.05,0.42,0.07,0.62l1.5-.09v2.53l-3.87.23-0.3-1.55h-0.11a4.31,4.31,0,0,1-1.31,1.3,4.54,4.54,0,0,1-2.29.65,3.71,3.71,0,0,1-2.73-.77,3,3,0,0,1-1-2.38,3.78,3.78,0,0,1,.35-1.69,3.21,3.21,0,0,1,1-1.21,5.2,5.2,0,0,1,1.63-.76,9.72,9.72,0,0,1,2.12-.34,8.65,8.65,0,0,1,.87,0l1.12,0a2.4,2.4,0,0,0,0-.46V464a1.39,1.39,0,0,0-.5-1.23,2.36,2.36,0,0,0-1.49-.29,7.14,7.14,0,0,0-2.1.42,14.27,14.27,0,0,0-1.58.68Zm3.92,8.22a2.88,2.88,0,0,0,1.64-.49,3,3,0,0,0,.8-0.91V466.7l-0.68-.06a7.91,7.91,0,0,0-1,0,4.85,4.85,0,0,0-.87.13,3,3,0,0,0-.77.3,1.64,1.64,0,0,0-.55.48,1.13,1.13,0,0,0-.2.68,1.24,1.24,0,0,0,.38,1A1.69,1.69,0,0,0,473.19,469.49Z"/><path class="cls-4" d="M483,455.09l4.91-.31c0,4.25,0,6.38,0,10.63a4.76,4.76,0,0,0,.44,2.43,1.44,1.44,0,0,0,1.41.6,4,4,0,0,0,1.17-.23,4.83,4.83,0,0,0,.92-0.49l1.13,2q-0.39.28-.78,0.52a5.46,5.46,0,0,1-.83.42,5.89,5.89,0,0,1-1,.29,7.73,7.73,0,0,1-1.16.16,4.13,4.13,0,0,1-3.25-.9,4,4,0,0,1-1.08-3.06V457.5l-1.91.12v-2.53Z"/><path class="cls-4" d="M496.64,473c4.09-.28,6.14-0.42,10.22-0.72,0,1,0,1.48,0,2.46-4.09.3-6.13,0.44-10.22,0.72V473Z"/><path class="cls-4" d="M508.66,453.36l4.65-.35v5.89h0.09a4.34,4.34,0,0,1,1.47-1.29,5.76,5.76,0,0,1,3.78-.5,2.76,2.76,0,0,1,1.27.66,3.22,3.22,0,0,1,.83,1.37,7,7,0,0,1,.3,2.22v7.15l-3,.24v-6.53a2.67,2.67,0,0,0-.6-2,1.94,1.94,0,0,0-1.57-.5,2.81,2.81,0,0,0-1.56.64,3.13,3.13,0,0,0-1,1.4v7.34l-3,.23c0-5.43,0-8.14,0-13.57l-1.66.12v-2.53Z"/><path class="cls-4" d="M534.76,466.13a4.61,4.61,0,0,1-.77.61,8.28,8.28,0,0,1-1.1.59,9.34,9.34,0,0,1-3,.76,7.59,7.59,0,0,1-2.64-.19,4.6,4.6,0,0,1-3.2-2.85,6.81,6.81,0,0,1-.43-2.51,7,7,0,0,1,.48-2.7,6,6,0,0,1,1.32-2,6.19,6.19,0,0,1,2-1.3,8,8,0,0,1,2.44-.59,7.38,7.38,0,0,1,1.81.08,4.52,4.52,0,0,1,1.71.65,3.75,3.75,0,0,1,1.28,1.4,4.85,4.85,0,0,1,.5,2.35,11.26,11.26,0,0,1-.23,2.16l-8.28.71a2.51,2.51,0,0,0,.31,1.22,2.18,2.18,0,0,0,.76.76,3,3,0,0,0,1.08.38,5.3,5.3,0,0,0,1.3,0,7,7,0,0,0,2.27-.52,5.36,5.36,0,0,0,1.44-.91Zm-5-7.78a4,4,0,0,0-1.13.26,3.5,3.5,0,0,0-1,.56,3,3,0,0,0-.7.84,2.58,2.58,0,0,0-.32,1.08l5.66-.48A2.07,2.07,0,0,0,529.79,458.35Z"/><path class="cls-4" d="M538.27,450.94l4.9-.44v10.63a4.69,4.69,0,0,0,.44,2.42,1.4,1.4,0,0,0,1.4.56,4,4,0,0,0,1.17-.26,5,5,0,0,0,.92-0.51l1.13,2q-0.39.29-.78,0.55a5.66,5.66,0,0,1-.83.45,6,6,0,0,1-1,.32,7.81,7.81,0,0,1-1.16.19,4,4,0,0,1-3.24-.81,3.94,3.94,0,0,1-1.08-3V453.3l-1.91.17v-2.53Z"/><path class="cls-4" d="M550.07,454.46l3.91-.38,0.34,1.35h0.09a4.9,4.9,0,0,1,3.86-2.08,5.27,5.27,0,0,1,1.94.14,3.32,3.32,0,0,1,1.52.89,4.33,4.33,0,0,1,1,1.69,8.27,8.27,0,0,1,.34,2.56,8.83,8.83,0,0,1-.39,2.7,6.4,6.4,0,0,1-1.13,2.13,5.56,5.56,0,0,1-1.79,1.45,6.68,6.68,0,0,1-2.41.68,9.42,9.42,0,0,1-1.4,0,3.61,3.61,0,0,1-1.15-.22v4.71l-3,.29V456.82l-1.72.17v-2.53Zm7.31,1.5a3.3,3.3,0,0,0-1.6.59,2.59,2.59,0,0,0-1,1.41v4.78a2.22,2.22,0,0,0,.93.31,5,5,0,0,0,1.23,0,3.41,3.41,0,0,0,1.2-.34,2.82,2.82,0,0,0,1-.8,3.84,3.84,0,0,0,.64-1.28,6.23,6.23,0,0,0,.23-1.79,3.13,3.13,0,0,0-.74-2.27A2.17,2.17,0,0,0,557.38,456Z"/><path class="cls-4" d="M576.13,462.08a4.77,4.77,0,0,1-.77.62,8.44,8.44,0,0,1-1.1.61,9.45,9.45,0,0,1-3,.83,7.53,7.53,0,0,1-2.63-.14,4.46,4.46,0,0,1-3.19-2.79,6.75,6.75,0,0,1-.42-2.5,7.14,7.14,0,0,1,.48-2.71,6.13,6.13,0,0,1,1.32-2,6.36,6.36,0,0,1,2-1.34,8.1,8.1,0,0,1,2.44-.64,7.36,7.36,0,0,1,1.8,0,4.42,4.42,0,0,1,1.71.61A3.63,3.63,0,0,1,576,454a4.8,4.8,0,0,1,.49,2.34,11.34,11.34,0,0,1-.23,2.16l-8.27.88a2.47,2.47,0,0,0,.31,1.21,2.11,2.11,0,0,0,.76.75,3,3,0,0,0,1.08.36,5.28,5.28,0,0,0,1.3,0,7.12,7.12,0,0,0,2.26-.56,5.51,5.51,0,0,0,1.44-.94Zm-5-7.68a4,4,0,0,0-1.13.28,3.59,3.59,0,0,0-1,.58,3.05,3.05,0,0,0-.7.86,2.63,2.63,0,0,0-.32,1.09l5.65-.6A2,2,0,0,0,571.17,454.4Z"/><path class="cls-4" d="M578.55,460.51l2.85-.31v-6.44l-2.85.31v-2.53l5.17-.57,0.34,1.48h0.09a7.21,7.21,0,0,1,1.47-1.43,4,4,0,0,1,1.93-.73,2.33,2.33,0,0,1,2.17.76,5.14,5.14,0,0,1,.79,3.29l-2.69.31a2.16,2.16,0,0,0-.24-1.18,0.75,0.75,0,0,0-.77-0.29,2.53,2.53,0,0,0-1.48.63,5.5,5.5,0,0,0-1,1.17v4.9l5-.57v2.53c-4.33.5-6.49,0.74-10.82,1.22v-2.53Z"/><path class="cls-4" d="M601.87,465.21a9.68,9.68,0,0,1-3.12-.63,7.71,7.71,0,0,1-2.68-1.73,8.33,8.33,0,0,1-1.87-2.91,11.33,11.33,0,0,1-.7-4.2,12.71,12.71,0,0,1,.7-4.35,11.65,11.65,0,0,1,1.87-3.38,11.09,11.09,0,0,1,2.68-2.42,12.91,12.91,0,0,1,3.12-1.46l0.55,2.39a10.89,10.89,0,0,0-1.82.88,7.92,7.92,0,0,0-1.94,1.64,9.05,9.05,0,0,0-1.55,2.59,10,10,0,0,0-.63,3.76,8,8,0,0,0,.67,3.49,6.67,6.67,0,0,0,1.62,2.19,6.06,6.06,0,0,0,2,1.17,7.1,7.1,0,0,0,1.7.4Z"/><path class="cls-4" d="M607.63,457.09l3.51-.44c0-4,0-6,0-10.05l-3,2.7-1.38-1.67L612,443l2-.26c0,5.43,0,8.14,0,13.57l3.44-.44c0,1,0,1.52,0,2.53l-9.79,1.25v-2.53Z"/><path class="cls-4" d="M623.95,456a1.81,1.81,0,0,1,.52-1.31,2.16,2.16,0,0,1,1.3-.63,2,2,0,0,1,1.9.57,2.89,2.89,0,0,1,.64,2,4.73,4.73,0,0,1-.4,1.94,6,6,0,0,1-1,1.61,6.83,6.83,0,0,1-1.43,1.21,6.65,6.65,0,0,1-1.57.74l-0.62-1.18a7.63,7.63,0,0,0,1.11-.54,5.41,5.41,0,0,0,1-.77,4.33,4.33,0,0,0,.77-1,2.75,2.75,0,0,0,.36-1.15,3,3,0,0,1-1.17.19,1.54,1.54,0,0,1-.79-0.26,1.25,1.25,0,0,1-.45-0.58A2.21,2.21,0,0,1,623.95,456Z"/><path class="cls-4" d="M635.13,453.46l3.5-.49V442.92l-3,2.75L634.24,444l5.22-4.73,2-.29v13.57l3.43-.49v2.53c-3.91.56-5.87,0.84-9.78,1.39v-2.53Z"/><path class="cls-4" d="M648.87,451.5l3.5-.52c0-4,0-6,0-10.05l-3,2.77L648,442.06l5.22-4.77,2-.3c0,5.43,0,8.14,0,13.57l3.43-.52v2.53c-3.91.59-5.86,0.88-9.77,1.45V451.5Z"/><path class="cls-4" d="M662.92,454.29a9.23,9.23,0,0,0,1.69-.87,8.94,8.94,0,0,0,2-1.71,9.74,9.74,0,0,0,1.61-2.63,9.3,9.3,0,0,0,.66-3.67,8.68,8.68,0,0,0-.63-3.58,6.23,6.23,0,0,0-1.54-2.16,5.39,5.39,0,0,0-1.93-1.1,8.45,8.45,0,0,0-1.82-.38l0.55-2.55a10.07,10.07,0,0,1,3.11.6,7.47,7.47,0,0,1,2.67,1.68,8.12,8.12,0,0,1,1.86,2.87,11.17,11.17,0,0,1,.7,4.16,13,13,0,0,1-.7,4.39,11.93,11.93,0,0,1-1.86,3.42,11.42,11.42,0,0,1-2.67,2.46,12.34,12.34,0,0,1-3.11,1.49Z"/><path class="cls-4" d="M54.24,400.08v-2.53l2.7,0.43v-6.44l-2.72-.43c0-1,0-1.52,0-2.53L56.94,389v-0.64a3.87,3.87,0,0,1,.38-1.8,3,3,0,0,1,1-1.13,3.43,3.43,0,0,1,1.43-.53,5.72,5.72,0,0,1,1.68,0,11.56,11.56,0,0,1,2.6.66,7.88,7.88,0,0,1,1.68.91l-0.87,2.14A12.3,12.3,0,0,0,63.7,388a5.45,5.45,0,0,0-1.57-.45,2,2,0,0,0-1.73.3,2.21,2.21,0,0,0-.49,1.61l4.8,0.74c0,1,0,1.52,0,2.53l-4.8-.74v6.44l4.82,0.74c0,1,0,1.52,0,2.53C60.54,401.07,58.44,400.75,54.24,400.08Z"/><path class="cls-4" d="M68.4,391.55a11.18,11.18,0,0,1,2.12-.39,11.8,11.8,0,0,1,2.85.12,6.9,6.9,0,0,1,2,.59,4.14,4.14,0,0,1,1.35,1,3.74,3.74,0,0,1,.74,1.37,5.92,5.92,0,0,1,.23,1.69q0,1.17-.08,2c-0.05.54-.08,1-0.08,1.46a10.07,10.07,0,0,0,0,1.09c0,0.21.05,0.43,0.07,0.63l1.49,0.22c0,1,0,1.52,0,2.53l-3.84-.56L75,401.69l-0.11,0a3.19,3.19,0,0,1-1.3,1,4,4,0,0,1-2.27.18,4.47,4.47,0,0,1-2.71-1.33,3.66,3.66,0,0,1-1-2.59,3.35,3.35,0,0,1,.35-1.61,2.39,2.39,0,0,1,1-1,4.24,4.24,0,0,1,1.61-.42,9.27,9.27,0,0,1,2.1.09q0.41,0.06.86,0.17l1.11,0.26a2.28,2.28,0,0,0,0-.45v-0.44a1.7,1.7,0,0,0-.5-1.33,2.76,2.76,0,0,0-1.48-.6,6.64,6.64,0,0,0-2.09,0,11.79,11.79,0,0,0-1.57.36Zm3.89,9a2.52,2.52,0,0,0,1.63-.16,2.18,2.18,0,0,0,.79-0.75v-1.38l-0.68-.2a8.24,8.24,0,0,0-1-.2,4.63,4.63,0,0,0-.86,0,2.56,2.56,0,0,0-.77.14,1.21,1.21,0,0,0-.54.37,1,1,0,0,0-.2.64,1.51,1.51,0,0,0,.37,1.06A2,2,0,0,0,72.29,400.58Z"/><path class="cls-4" d="M92.57,404.66a5.66,5.66,0,0,1-2.2.76,9.31,9.31,0,0,1-2.63,0,8.16,8.16,0,0,1-2.65-.81,6.56,6.56,0,0,1-1.95-1.51,6.31,6.31,0,0,1-1.2-2.09,7.69,7.69,0,0,1-.41-2.54A6,6,0,0,1,82,396a4.43,4.43,0,0,1,1.34-1.72,4.87,4.87,0,0,1,2-.9,7.52,7.52,0,0,1,2.54,0,10.12,10.12,0,0,1,2.4.64,12.91,12.91,0,0,1,1.72.81c0,1.62,0,2.43,0,4l-2.52-.35v-2.12a6.94,6.94,0,0,0-1.42-.36,4.15,4.15,0,0,0-1.27,0,2.58,2.58,0,0,0-1.92,1.42,3.25,3.25,0,0,0-.31,1.5,3.85,3.85,0,0,0,.25,1.39,3.85,3.85,0,0,0,1.84,2.07,4.48,4.48,0,0,0,1.5.48,5.09,5.09,0,0,0,2.14-.07,7.33,7.33,0,0,0,1.25-.47Z"/><path class="cls-4" d="M96.47,397.33L94.2,397c0-1,0-1.52,0-2.53l2.27,0.31c0-1,0-1.57,0-2.62l3-.45c0,1.39,0,2.08,0,3.47l6,0.8c0,1,0,1.52,0,2.53l-6-.8V401a4.38,4.38,0,0,0,.66,2.65,2.66,2.66,0,0,0,1.86,1,3.84,3.84,0,0,0,1.12,0,3.74,3.74,0,0,0,.91-0.26,4.32,4.32,0,0,0,.73-0.41l0.61-.43,1.38,2.25a3.67,3.67,0,0,1-1,.71,7.13,7.13,0,0,1-1.26.5,7.22,7.22,0,0,1-1.41.26,6.58,6.58,0,0,1-1.44,0,5.68,5.68,0,0,1-3.86-2,7.45,7.45,0,0,1-1.29-4.74C96.47,399.3,96.47,398.65,96.47,397.33Z"/><path class="cls-4" d="M108.36,402.14a6.65,6.65,0,0,1,.44-2.52,4.42,4.42,0,0,1,1.24-1.75,4.51,4.51,0,0,1,1.91-.94,7,7,0,0,1,2.49-.08,7.79,7.79,0,0,1,2.58.76,6.35,6.35,0,0,1,1.92,1.47,6.07,6.07,0,0,1,1.18,2.07,7.8,7.8,0,0,1,.4,2.53,6.68,6.68,0,0,1-.44,2.52,4.45,4.45,0,0,1-1.24,1.76,4.5,4.5,0,0,1-1.91.94,7,7,0,0,1-2.49.09,7.75,7.75,0,0,1-2.58-.77,6.35,6.35,0,0,1-1.92-1.48,6.11,6.11,0,0,1-1.18-2.07A7.82,7.82,0,0,1,108.36,402.14Zm3.07,0.4a4.85,4.85,0,0,0,.21,1.43,4,4,0,0,0,.6,1.2,3.25,3.25,0,0,0,.94.87,3.16,3.16,0,0,0,1.26.43,2.61,2.61,0,0,0,2.17-.58,3.34,3.34,0,0,0,.84-2.59,4.42,4.42,0,0,0-.78-2.66,3.1,3.1,0,0,0-2.23-1.26,3.42,3.42,0,0,0-1.19,0,2,2,0,0,0-1,.51,2.62,2.62,0,0,0-.63,1A4.71,4.71,0,0,0,111.43,402.53Z"/><path class="cls-4" d="M122.21,407.11l2.85,0.35c0-2.58,0-3.86,0-6.44l-2.85-.35c0-1,0-1.52,0-2.53l5.16,0.63,0.34,1.56h0.09a5.11,5.11,0,0,1,1.47-1.09,3.38,3.38,0,0,1,1.93-.28,3,3,0,0,1,2.17,1.27,6,6,0,0,1,.79,3.47l-2.69-.32a2.49,2.49,0,0,0-.24-1.24,1,1,0,0,0-.77-0.47A2.08,2.08,0,0,0,129,402a3.9,3.9,0,0,0-1,.94v4.9l5,0.59c0,1,0,1.52,0,2.53-4.32-.51-6.49-0.77-10.81-1.3C122.21,408.63,122.21,408.12,122.21,407.11Z"/><path class="cls-4" d="M136.44,408.8l4,0.46c0-2.58,0-3.86,0-6.44l-4-.46c0-1,0-1.52,0-2.53l7,0.8c0,3.59,0,5.38,0,9l4.25,0.47c0,1,0,1.52,0,2.53-4.51-.49-6.77-0.75-11.27-1.27C136.44,410.32,136.44,409.82,136.44,408.8Zm3.49-11.7a1.44,1.44,0,0,1,.53-1.16,1.86,1.86,0,0,1,1.47-.34,2.5,2.5,0,0,1,1.54.68,1.77,1.77,0,0,1,.57,1.28,1.32,1.32,0,0,1-.57,1.14,2.17,2.17,0,0,1-1.54.3,2.37,2.37,0,0,1-1.47-.64A1.73,1.73,0,0,1,139.93,397.11Z"/><path class="cls-4" d="M150.93,402.24a11.55,11.55,0,0,1,2.13-.48,11.86,11.86,0,0,1,2.86,0,6.72,6.72,0,0,1,2,.5,3.91,3.91,0,0,1,1.36,1,3.55,3.55,0,0,1,.75,1.34,5.8,5.8,0,0,1,.23,1.68q0,1.17-.08,2c-0.05.55-.08,1-0.08,1.46a10,10,0,0,0,0,1.09c0,0.21.05,0.43,0.07,0.63l1.49,0.15v2.53l-3.86-.4-0.3-1.6h-0.11a3.4,3.4,0,0,1-1.3,1.09,4.11,4.11,0,0,1-2.28.28,4.29,4.29,0,0,1-2.72-1.21,3.5,3.5,0,0,1-1-2.55,3.43,3.43,0,0,1,.35-1.63,2.55,2.55,0,0,1,1-1,4.41,4.41,0,0,1,1.62-.49,9.32,9.32,0,0,1,2.11,0c0.27,0,.56.07,0.87,0.14l1.12,0.21a2.3,2.3,0,0,0,0-.46V406a1.63,1.63,0,0,0-.5-1.31,2.67,2.67,0,0,0-1.48-.54,6.7,6.7,0,0,0-2.1.08,12.2,12.2,0,0,0-1.57.43Zm3.91,8.86a2.58,2.58,0,0,0,1.64-.23,2.32,2.32,0,0,0,.8-0.78v-1.38l-0.68-.18a8.15,8.15,0,0,0-1-.16,4.66,4.66,0,0,0-.86,0,2.63,2.63,0,0,0-.77.17,1.29,1.29,0,0,0-.55.39,1,1,0,0,0-.2.65,1.45,1.45,0,0,0,.37,1A1.94,1.94,0,0,0,154.84,411.09Z"/><path class="cls-4" d="M164.65,398.29l4.9,0.49c0,4.25,0,6.38,0,10.63a5.2,5.2,0,0,0,.44,2.5,1.72,1.72,0,0,0,1.4.83,3.77,3.77,0,0,0,1.17,0,4,4,0,0,0,.92-0.34l1.13,2.18q-0.39.22-.78,0.4a4.54,4.54,0,0,1-.83.29,5.3,5.3,0,0,1-1,.14,7.53,7.53,0,0,1-1.16,0,4.78,4.78,0,0,1-3.24-1.42,4.68,4.68,0,0,1-1.08-3.24c0-3.86,0-5.8,0-9.66l-1.91-.19C164.65,399.8,164.65,399.3,164.65,398.29Z"/><path class="cls-4" d="M178.24,418.4c4.08,0.38,6.13.57,10.21,0.93,0,1,0,1.48,0,2.46-4.09-.36-6.13-0.55-10.21-0.93C178.24,419.88,178.24,419.39,178.24,418.4Z"/><path class="cls-4" d="M190.24,400.7l4.65,0.4c0,2.35,0,3.53,0,5.89H195a3.45,3.45,0,0,1,1.47-1,4.82,4.82,0,0,1,2.16-.26,5.64,5.64,0,0,1,1.61.36,3.41,3.41,0,0,1,1.27.86,4,4,0,0,1,.83,1.51,7.5,7.5,0,0,1,.3,2.27c0,2.86,0,4.29,0,7.15l-3-.25c0-2.61,0-3.92,0-6.53A3,3,0,0,0,199,409a2.27,2.27,0,0,0-1.57-.75,2.44,2.44,0,0,0-1.56.39,2.5,2.5,0,0,0-1,1.24c0,2.93,0,4.4,0,7.34l-3-.26c0-5.43,0-8.14,0-13.57l-1.66-.14C190.24,402.22,190.24,401.71,190.24,400.7Z"/><path class="cls-4" d="M216.34,417.7a3.72,3.72,0,0,1-.77.48,6.89,6.89,0,0,1-1.11.41,8.1,8.1,0,0,1-1.39.26,8.8,8.8,0,0,1-1.61,0,8.16,8.16,0,0,1-2.64-.62,5.77,5.77,0,0,1-3.2-3.37,7.37,7.37,0,0,1-.43-2.57,6.47,6.47,0,0,1,.48-2.62A4.76,4.76,0,0,1,207,407.9a5,5,0,0,1,2-1,7.43,7.43,0,0,1,2.44-.19,7.84,7.84,0,0,1,1.81.37,5.41,5.41,0,0,1,1.72.92,4.76,4.76,0,0,1,1.28,1.6,5.36,5.36,0,0,1,.49,2.43,10.68,10.68,0,0,1-.23,2.12l-8.29-.63a2.81,2.81,0,0,0,.31,1.27,2.74,2.74,0,0,0,.76.89,3.59,3.59,0,0,0,1.08.56,5.58,5.58,0,0,0,1.3.25,6.55,6.55,0,0,0,2.27-.15,4.38,4.38,0,0,0,1.44-.67Zm-5-8.59a3.71,3.71,0,0,0-1.13.08,2.89,2.89,0,0,0-1,.41,2.35,2.35,0,0,0-.7.73,2.27,2.27,0,0,0-.32,1l5.66,0.44A2.48,2.48,0,0,0,211.37,409.11Z"/><path class="cls-4" d="M219.86,403.08l4.9,0.35c0,4.25,0,6.38,0,10.63a5.11,5.11,0,0,0,.44,2.49,1.66,1.66,0,0,0,1.41.79,3.8,3.8,0,0,0,1.17-.07,4.15,4.15,0,0,0,.92-0.36l1.13,2.15q-0.39.23-.78,0.42a4.71,4.71,0,0,1-.83.31,5.39,5.39,0,0,1-1,.16,7.53,7.53,0,0,1-1.16,0,4.65,4.65,0,0,1-3.25-1.33,4.56,4.56,0,0,1-1.08-3.21c0-3.86,0-5.8,0-9.66l-1.91-.14C219.86,404.6,219.86,404.09,219.86,403.08Z"/><path class="cls-4" d="M231.68,408.5l3.92,0.26,0.35,1.4H236a4.14,4.14,0,0,1,3.87-1.46,5.7,5.7,0,0,1,1.95.45,4.14,4.14,0,0,1,1.52,1.14,5.3,5.3,0,0,1,1,1.85,8.81,8.81,0,0,1,.35,2.62,8.21,8.21,0,0,1-.39,2.63,5.22,5.22,0,0,1-1.13,1.94,4.44,4.44,0,0,1-1.8,1.15,6.11,6.11,0,0,1-2.42.29,9.72,9.72,0,0,1-1.4-.19,4.1,4.1,0,0,1-1.15-.41c0,1.89,0,2.83,0,4.71l-3-.19c0-5.43,0-8.14,0-13.57l-1.73-.11V408.5Zm7.33,2.68a2.92,2.92,0,0,0-1.6.34,2.08,2.08,0,0,0-1,1.25c0,1.91,0,2.87,0,4.78a2.65,2.65,0,0,0,.93.46,5.3,5.3,0,0,0,1.23.23,3.12,3.12,0,0,0,1.2-.14,2.25,2.25,0,0,0,1-.64,3.16,3.16,0,0,0,.64-1.18,5.83,5.83,0,0,0,.23-1.76,3.59,3.59,0,0,0-.74-2.39A2.56,2.56,0,0,0,239,411.18Z"/><path class="cls-4" d="M257.8,420.35a3.8,3.8,0,0,1-.77.5,7,7,0,0,1-1.11.44,8.28,8.28,0,0,1-1.39.29,8.86,8.86,0,0,1-1.61,0,8.06,8.06,0,0,1-2.64-.56,5.6,5.6,0,0,1-3.2-3.3,7.29,7.29,0,0,1-.43-2.57,6.54,6.54,0,0,1,.48-2.63,4.9,4.9,0,0,1,1.32-1.82,5.17,5.17,0,0,1,2-1,7.49,7.49,0,0,1,2.44-.24,7.76,7.76,0,0,1,1.81.33,5.29,5.29,0,0,1,1.72.89,4.61,4.61,0,0,1,1.28,1.58,5.28,5.28,0,0,1,.5,2.42,10.75,10.75,0,0,1-.23,2.13l-8.3-.46a2.77,2.77,0,0,0,.31,1.26,2.68,2.68,0,0,0,.76.87,3.51,3.51,0,0,0,1.08.53,5.53,5.53,0,0,0,1.3.22,6.6,6.6,0,0,0,2.27-.2,4.49,4.49,0,0,0,1.44-.7Zm-5-8.48a3.74,3.74,0,0,0-1.13.1,3,3,0,0,0-1,.43,2.4,2.4,0,0,0-.7.74,2.3,2.3,0,0,0-.32,1l5.67,0.32A2.42,2.42,0,0,0,252.83,411.87Z"/><path class="cls-4" d="M260.22,419.17l2.86,0.15c0-2.58,0-3.86,0-6.44l-2.86-.15c0-1,0-1.52,0-2.53l5.19,0.26,0.35,1.53h0.09a5.69,5.69,0,0,1,1.48-1.19,3.54,3.54,0,0,1,1.94-.41,2.76,2.76,0,0,1,2.18,1.11,5.74,5.74,0,0,1,.79,3.42l-2.7-.13a2.38,2.38,0,0,0-.24-1.22,0.9,0.9,0,0,0-.77-0.42,2.2,2.2,0,0,0-1.49.39,4.33,4.33,0,0,0-1,1v4.9l5,0.24c0,1,0,1.52,0,2.53-4.34-.2-6.51-0.31-10.86-0.54C260.22,420.68,260.22,420.18,260.22,419.17Z"/><path class="cls-4" d="M283.64,427.65a11.08,11.08,0,0,1-3.14-1.14,9.72,9.72,0,0,1-2.7-2.16,10.3,10.3,0,0,1-1.88-3.21,12.2,12.2,0,0,1-.7-4.31,11.71,11.71,0,0,1,.7-4.24,9.44,9.44,0,0,1,1.88-3.08,8.8,8.8,0,0,1,2.7-2,11.06,11.06,0,0,1,3.14-1l0.55,2.48a9.3,9.3,0,0,0-1.83.58,6.31,6.31,0,0,0-1.95,1.32,7.28,7.28,0,0,0-1.56,2.34,9.12,9.12,0,0,0-.63,3.65,8.69,8.69,0,0,0,.67,3.59,8.36,8.36,0,0,0,1.63,2.45,7.6,7.6,0,0,0,2,1.48,8.22,8.22,0,0,0,1.71.68Z"/><path class="cls-4" d="M289.43,420.47L293,420.6c0-4,0-6,0-10.05l-3,2.21-1.38-1.89,5.26-3.81,2,0.07c0,5.43,0,8.14,0,13.57l3.46,0.11c0,1,0,1.52,0,2.53l-9.85-.34v-2.53Z"/><path class="cls-4" d="M305.85,422.07a1.53,1.53,0,0,1,.52-1.23,1.85,1.85,0,0,1,1.3-.42,2.35,2.35,0,0,1,1.91.88,3.3,3.3,0,0,1,.65,2.06,4.27,4.27,0,0,1-.4,1.88,4.79,4.79,0,0,1-1,1.44,5.45,5.45,0,0,1-1.44,1,5.72,5.72,0,0,1-1.58.48l-0.62-1.28a6.53,6.53,0,0,0,1.12-.36,4.36,4.36,0,0,0,1-.6,3.42,3.42,0,0,0,.77-0.86,2.38,2.38,0,0,0,.36-1.09,3,3,0,0,1-1.18,0,1.84,1.84,0,0,1-.8-0.39,1.57,1.57,0,0,1-.45-0.66A2.38,2.38,0,0,1,305.85,422.07Z"/><path class="cls-4" d="M317.11,421.31l3.53,0.08V411.34l-3,2.26-1.38-1.87,5.26-3.88,2,0c0,5.43,0,8.14,0,13.57l3.46,0.07V424c-3.94-.07-5.91-0.11-9.85-0.2v-2.53Z"/><path class="cls-4" d="M330.95,421.58l3.53,0.05V411.58l-3,2.28L330,412l5.26-3.92,2,0v13.57l3.46,0v2.53l-9.85-.13v-2.53Z"/><path class="cls-4" d="M345.11,426.66a7.87,7.87,0,0,0,1.71-.59,7.13,7.13,0,0,0,2-1.39,7.81,7.81,0,0,0,1.63-2.37,8.45,8.45,0,0,0,.67-3.56,9.35,9.35,0,0,0-.63-3.68,7.78,7.78,0,0,0-1.56-2.41,6.78,6.78,0,0,0-1.95-1.42,9.74,9.74,0,0,0-1.83-.67l0.55-2.46a11.58,11.58,0,0,1,3.14,1.11,9.45,9.45,0,0,1,2.7,2.11,10.06,10.06,0,0,1,1.88,3.17,13.33,13.33,0,0,1,0,8.54,9.67,9.67,0,0,1-1.88,3.12,9.08,9.08,0,0,1-2.7,2,10.63,10.63,0,0,1-3.14,1Z"/><path class="cls-4" d="M509.25,416.4l2.85-.21c0-2.58,0-3.86,0-6.44l-2.85.21c0-1,0-1.52,0-2.53l5.18-.39,0.35,1.49h0.09a6.84,6.84,0,0,1,1.47-1.38,3.89,3.89,0,0,1,1.93-.66,2.42,2.42,0,0,1,2.18.84,5.26,5.26,0,0,1,.79,3.32l-2.69.22a2.2,2.2,0,0,0-.24-1.19,0.78,0.78,0,0,0-.77-0.32,2.45,2.45,0,0,0-1.48.58,5.22,5.22,0,0,0-1,1.13c0,2,0,2.94,0,4.9l5-.39v2.53c-4.34.35-6.5,0.51-10.84,0.84C509.25,417.92,509.25,417.41,509.25,416.4Z"/><path class="cls-4" d="M534.45,415.67a4.64,4.64,0,0,1-.77.61,8.25,8.25,0,0,1-1.1.59,9.33,9.33,0,0,1-3,.76,7.59,7.59,0,0,1-2.63-.19,4.6,4.6,0,0,1-3.2-2.85,6.81,6.81,0,0,1-.43-2.51,7,7,0,0,1,.48-2.7,6,6,0,0,1,1.32-2,6.19,6.19,0,0,1,2-1.3,8,8,0,0,1,2.44-.59,7.4,7.4,0,0,1,1.81.08,4.52,4.52,0,0,1,1.71.65,3.75,3.75,0,0,1,1.28,1.4,4.85,4.85,0,0,1,.5,2.35,11.26,11.26,0,0,1-.23,2.16l-8.28.71a2.51,2.51,0,0,0,.31,1.22,2.18,2.18,0,0,0,.76.76,3,3,0,0,0,1.08.38,5.29,5.29,0,0,0,1.3,0,7,7,0,0,0,2.27-.51,5.36,5.36,0,0,0,1.44-.91Zm-5-7.78a4,4,0,0,0-1.13.26,3.49,3.49,0,0,0-1,.56,3,3,0,0,0-.7.84,2.58,2.58,0,0,0-.32,1.08l5.66-.48A2.07,2.07,0,0,0,529.48,407.89Z"/><path class="cls-4" d="M548.53,414.51a7.4,7.4,0,0,1-2.21,1.28,10.15,10.15,0,0,1-2.64.6,7.25,7.25,0,0,1-2.66-.2,4.81,4.81,0,0,1-2-1.05,4.62,4.62,0,0,1-1.21-1.81,7.39,7.39,0,0,1,.07-5.07,6.14,6.14,0,0,1,1.35-2,6.56,6.56,0,0,1,2-1.37,8.3,8.3,0,0,1,2.55-.64,9.25,9.25,0,0,1,2.41.07,10.47,10.47,0,0,1,1.73.41v4l-2.53.24v-2.12a6.36,6.36,0,0,0-1.43,0,4.54,4.54,0,0,0-1.28.31,3.51,3.51,0,0,0-1.13.72,3.6,3.6,0,0,0-1.12,2.71,3.39,3.39,0,0,0,.25,1.33,2.86,2.86,0,0,0,.71,1,2.89,2.89,0,0,0,1.14.62,4,4,0,0,0,1.51.13,5.68,5.68,0,0,0,2.15-.57,9.79,9.79,0,0,0,1.25-.76Z"/><path class="cls-4" d="M557.36,403.26l4.28-.43v9l1.75-.18v2.53l-3.63.37-0.53-1.65h-0.09a4.7,4.7,0,0,1-1.59,1.61,5.22,5.22,0,0,1-2.35.81,5.1,5.1,0,0,1-1.6-.07,2.55,2.55,0,0,1-1.23-.64,3.12,3.12,0,0,1-.78-1.35,7.5,7.5,0,0,1-.28-2.23v-4.62l-1.31.13c0-1,0-1.52,0-2.53l4.3-.41v6.53a3.31,3.31,0,0,0,.45,2,1.48,1.48,0,0,0,1.41.48,2.74,2.74,0,0,0,1.53-.66,3.12,3.12,0,0,0,1-1.34v-4.9l-1.29.13v-2.53Z"/><path class="cls-4" d="M564.46,411.51l2.85-.29c0-2.58,0-3.86,0-6.44l-2.85.29c0-1,0-1.52,0-2.53l5.17-.54,0.34,1.48h0.09a7.13,7.13,0,0,1,1.47-1.42,4,4,0,0,1,1.93-.71,2.35,2.35,0,0,1,2.17.78,5.17,5.17,0,0,1,.79,3.29l-2.69.29a2.17,2.17,0,0,0-.24-1.18,0.76,0.76,0,0,0-.77-0.3,2.51,2.51,0,0,0-1.48.62,5.44,5.44,0,0,0-1,1.16v4.9l5-.53v2.53c-4.33.47-6.49,0.7-10.82,1.14C564.46,413,564.46,412.52,564.46,411.51Z"/><path class="cls-4" d="M587.8,416.38a9.74,9.74,0,0,1-3.12-.66A7.79,7.79,0,0,1,582,414a8.41,8.41,0,0,1-1.87-2.92,11.36,11.36,0,0,1-.7-4.2,12.66,12.66,0,0,1,.7-4.34,11.54,11.54,0,0,1,1.87-3.37,11,11,0,0,1,2.69-2.4,12.81,12.81,0,0,1,3.12-1.44l0.55,2.4a10.83,10.83,0,0,0-1.82.87,7.85,7.85,0,0,0-1.94,1.62,9,9,0,0,0-1.55,2.58,9.9,9.9,0,0,0-.63,3.75,8,8,0,0,0,.67,3.49,6.74,6.74,0,0,0,1.62,2.2,6.12,6.12,0,0,0,2,1.18,7.14,7.14,0,0,0,1.7.41Z"/><path class="cls-4" d="M593.56,408.31l3.51-.42c0-4,0-6,0-10.05l-3,2.68-1.38-1.68,5.23-4.62,2-.24c0,5.43,0,8.14,0,13.57l3.44-.42c0,1,0,1.52,0,2.53l-9.8,1.18v-2.53Z"/><path class="cls-4" d="M607.33,406.64l3.51-.44c0-4,0-6,0-10.05l-3,2.7-1.38-1.67,5.23-4.66,2-.26c0,5.43,0,8.14,0,13.57l3.44-.44v2.53l-9.79,1.25v-2.53Z"/><path class="cls-4" d="M623.65,405.59a1.81,1.81,0,0,1,.52-1.31,2.15,2.15,0,0,1,1.3-.63,2,2,0,0,1,1.9.57,2.89,2.89,0,0,1,.64,2,4.73,4.73,0,0,1-.4,1.94,6,6,0,0,1-1,1.61,6.83,6.83,0,0,1-1.43,1.21,6.66,6.66,0,0,1-1.57.74l-0.62-1.18a7.66,7.66,0,0,0,1.11-.54,5.42,5.42,0,0,0,1-.77,4.34,4.34,0,0,0,.77-1,2.74,2.74,0,0,0,.36-1.15,3,3,0,0,1-1.17.19,1.54,1.54,0,0,1-.79-0.26,1.25,1.25,0,0,1-.45-0.58A2.22,2.22,0,0,1,623.65,405.59Z"/><path class="cls-4" d="M634.83,403l3.5-.49c0-4,0-6,0-10.05l-3,2.75-1.37-1.65,5.22-4.73,2-.29c0,5.43,0,8.14,0,13.57l3.43-.49v2.53c-3.91.56-5.87,0.84-9.78,1.39V403Z"/><path class="cls-4" d="M647,395.73a14.51,14.51,0,0,1,.44-3.73,8.91,8.91,0,0,1,1.23-2.79,6.32,6.32,0,0,1,1.9-1.83,6.43,6.43,0,0,1,2.46-.88,4.61,4.61,0,0,1,4.46,1.37q1.56,1.8,1.56,6.08a14.65,14.65,0,0,1-.44,3.76,9.13,9.13,0,0,1-1.23,2.81,6.26,6.26,0,0,1-1.91,1.85,6.49,6.49,0,0,1-2.47.89,4.45,4.45,0,0,1-4.46-1.49Q647,399.82,647,395.73Zm3-.44c0,0.23,0,.45,0,0.65s0,0.42,0,.63l5.54-6A2.16,2.16,0,0,0,653,389a3,3,0,0,0-2.24,1.75A10.22,10.22,0,0,0,650,395.29Zm6.09-.91q0-.37,0-0.7c0-.22,0-0.44,0-0.65l-5.56,6a2.2,2.2,0,0,0,2.57,1.71,3,3,0,0,0,2.25-1.74A10.25,10.25,0,0,0,656.07,394.39Z"/><path class="cls-4" d="M662.62,403.83a9.23,9.23,0,0,0,1.69-.87,8.94,8.94,0,0,0,2-1.71,9.74,9.74,0,0,0,1.61-2.63,9.3,9.3,0,0,0,.66-3.67,8.68,8.68,0,0,0-.63-3.58,6.23,6.23,0,0,0-1.54-2.16,5.4,5.4,0,0,0-1.93-1.1,8.45,8.45,0,0,0-1.82-.38l0.55-2.55a10.08,10.08,0,0,1,3.11.6,7.47,7.47,0,0,1,2.67,1.68,8.12,8.12,0,0,1,1.86,2.87,11.17,11.17,0,0,1,.7,4.16,13,13,0,0,1-.7,4.39,11.93,11.93,0,0,1-1.86,3.42,11.42,11.42,0,0,1-2.67,2.46,12.34,12.34,0,0,1-3.11,1.49Z"/></svg>