<svg id="Layer_1" data-name="Layer 1" xmlns="http://www.w3.org/2000/svg" viewBox="0 0 720 576"><defs><style>.cls-1,.cls-2,.cls-4,.cls-6{fill:#231f20;}.cls-1,.cls-3{stroke:#231f20;}.cls-1,.cls-6{stroke-miterlimit:10;}.cls-1,.cls-2,.cls-3{stroke-width:2px;}.cls-2{stroke:#000;}.cls-2,.cls-3{stroke-linecap:round;stroke-linejoin:round;}.cls-3,.cls-5{fill:#fff;}.cls-6{stroke:#fff;}</style></defs><title>Hanoi_Tower_Set_5</title><path class="cls-1" d="M685.94,506.49c0-.14,0-0.29,0-0.43s0-.29,0-0.43V453.84H40.06s-0.25,51.74-.25,52.22c0,2.67,2.32,5.24,6.64,7.71,15.13,8.61,55.2,16.11,111,21.48s127.39,8.59,205.41,8.59c89.17,0,169.9-4.21,228.35-11,29.22-3.41,52.88-7.46,69.24-12,8.18-2.25,14.54-4.62,18.86-7.08,3.69-2.1,5.91-4.29,6.48-6.55h0.11v-0.73Z"/><ellipse class="cls-2" cx="362.9" cy="454.92" rx="322.89" ry="37.63"/><path class="cls-3" d="M685.94,455c0-.14,0-0.29,0-0.43s0-.29,0-0.43V402.36H40.06s-0.25,51.74-.25,52.22c0,2.67,2.32,5.24,6.64,7.71,15.13,8.61,55.2,16.11,111,21.48s127.39,8.59,205.41,8.59c89.17,0,169.9-4.21,228.35-11,29.22-3.41,52.88-7.46,69.24-12,8.18-2.25,14.54-4.62,18.86-7.08,3.69-2.1,5.91-4.29,6.48-6.55h0.11V455Z"/><ellipse class="cls-3" cx="362.9" cy="403.44" rx="322.89" ry="37.63"/><path class="cls-4" d="M363.93,412.22c-16,0-29-3.75-30.2-8.61h-0.08l0-.5V8.27h60.63V403.6h-0.12C392.91,408.47,379.91,412.22,363.93,412.22Z"/><path class="cls-5" d="M393.75,8.77V403.1h0c-0.49,4.78-13.63,8.61-29.79,8.61s-29.3-3.83-29.79-8.61h0v-0.21s0,0,0-.06,0,0,0-.06V8.77h59.63m1-1H333.13v395s0,0.07,0,.11v1.27h0.23c2,5.6,16.84,8.61,30.58,8.61s28.6-3,30.58-8.61h0.21l0-1V7.77h0Z"/><ellipse class="cls-6" cx="363.93" cy="8.89" rx="29.81" ry="8.89"/><path d="M50.79,447.62V445l2.81,0.53c0-2.69,0-4,0-6.72l-2.83-.54v-2.64l2.83,0.54v-0.67a4,4,0,0,1,.39-1.87,3,3,0,0,1,1-1.15,3.45,3.45,0,0,1,1.49-.5,5.94,5.94,0,0,1,1.75.07,12.29,12.29,0,0,1,2.7.78,8.53,8.53,0,0,1,1.75,1L61.81,436a13.34,13.34,0,0,0-1.18-.7,5.78,5.78,0,0,0-1.63-.52,2,2,0,0,0-1.8.25,2.25,2.25,0,0,0-.51,1.67l5,0.93v2.64l-5-.93c0,2.69,0,4,0,6.72l5,0.93v2.64C57.35,448.86,55.16,448.45,50.79,447.62Z"/><path d="M65.53,439.17a11.46,11.46,0,0,1,2.2-.35,12.34,12.34,0,0,1,3,.22,7.35,7.35,0,0,1,2.11.67,4.5,4.5,0,0,1,1.41,1.1,4,4,0,0,1,.77,1.46,6.26,6.26,0,0,1,.24,1.77q0,1.22-.08,2.07t-0.08,1.52a10.69,10.69,0,0,0,0,1.14c0,0.22.06,0.45,0.07,0.66l1.55,0.27v2.64l-4-.7L72.41,450l-0.12,0a3.19,3.19,0,0,1-1.35,1,4.16,4.16,0,0,1-2.37.12,4.82,4.82,0,0,1-2.82-1.47,3.93,3.93,0,0,1-1-2.73,3.43,3.43,0,0,1,.37-1.67,2.38,2.38,0,0,1,1.07-1,4.32,4.32,0,0,1,1.68-.39A9.7,9.7,0,0,1,70,444q0.43,0.08.9,0.21l1.16,0.3a2.34,2.34,0,0,0,0-.47v-0.46a1.83,1.83,0,0,0-.52-1.4,3,3,0,0,0-1.54-.67,6.93,6.93,0,0,0-2.18-.08,12.15,12.15,0,0,0-1.63.33Zm4.05,9.54a2.59,2.59,0,0,0,1.7-.12,2.18,2.18,0,0,0,.82-0.75V446.4l-0.71-.23a8.73,8.73,0,0,0-1-.24,4.88,4.88,0,0,0-.9-0.08,2.61,2.61,0,0,0-.8.12,1.23,1.23,0,0,0-.57.37,1,1,0,0,0-.21.66,1.62,1.62,0,0,0,.39,1.11A2.17,2.17,0,0,0,69.58,448.71Z"/><path d="M90.7,453.57a5.73,5.73,0,0,1-2.29.74,9.69,9.69,0,0,1-2.74-.09,8.69,8.69,0,0,1-2.75-.92,7.1,7.1,0,0,1-2-1.63,6.81,6.81,0,0,1-1.25-2.22,8.16,8.16,0,0,1-.43-2.67,6.2,6.2,0,0,1,.5-2.6,4.45,4.45,0,0,1,1.39-1.75,4.91,4.91,0,0,1,2.11-.88,7.82,7.82,0,0,1,2.65,0,10.77,10.77,0,0,1,2.5.73,13.82,13.82,0,0,1,1.79.9v4.22L87.53,447v-2.21a7.4,7.4,0,0,0-1.48-.42,4.3,4.3,0,0,0-1.32,0,2.59,2.59,0,0,0-2,1.42,3.34,3.34,0,0,0-.32,1.55,4.08,4.08,0,0,0,.26,1.46A4.18,4.18,0,0,0,84.58,451a4.77,4.77,0,0,0,1.56.54,5.3,5.3,0,0,0,2.23,0,7.36,7.36,0,0,0,1.3-.46Z"/><path d="M94.76,446l-2.36-.39V443l2.36,0.39v-2.74l3.1-.38v3.62l6.26,1v2.64l-6.26-1V450a4.67,4.67,0,0,0,.69,2.79,2.86,2.86,0,0,0,1.93,1.14,4,4,0,0,0,1.17,0,3.79,3.79,0,0,0,.94-0.25,4.35,4.35,0,0,0,.76-0.41l0.63-.43,1.43,2.38a3.66,3.66,0,0,1-1,.72,7.2,7.2,0,0,1-1.31.49,7.41,7.41,0,0,1-1.47.24,6.9,6.9,0,0,1-1.5-.07,6.09,6.09,0,0,1-4-2.15,7.93,7.93,0,0,1-1.35-5V446Z"/><path d="M107.15,451.36a6.87,6.87,0,0,1,.45-2.62A4.46,4.46,0,0,1,108.9,447a4.56,4.56,0,0,1,2-.93,7.33,7.33,0,0,1,2.59,0,8.29,8.29,0,0,1,2.69.86,6.83,6.83,0,0,1,2,1.58,6.54,6.54,0,0,1,1.23,2.19,8.24,8.24,0,0,1,.42,2.65,6.9,6.9,0,0,1-.45,2.62,4.5,4.5,0,0,1-1.29,1.8,4.56,4.56,0,0,1-2,.94,7.27,7.27,0,0,1-2.59,0,8.23,8.23,0,0,1-2.69-.87,6.84,6.84,0,0,1-2-1.59,6.58,6.58,0,0,1-1.23-2.19A8.27,8.27,0,0,1,107.15,451.36Zm3.2,0.49a5.1,5.1,0,0,0,.21,1.5,4.31,4.31,0,0,0,.62,1.27,3.51,3.51,0,0,0,1,.93,3.36,3.36,0,0,0,1.31.48,2.67,2.67,0,0,0,2.26-.55,3.41,3.41,0,0,0,.87-2.68,4.7,4.7,0,0,0-.81-2.8,3.32,3.32,0,0,0-2.32-1.37,3.55,3.55,0,0,0-1.24,0,2,2,0,0,0-1,.51,2.64,2.64,0,0,0-.66,1.05A4.86,4.86,0,0,0,110.36,451.86Z"/><path d="M121.59,456.9l3,0.43c0-2.69,0-4,0-6.72l-3-.43v-2.64l5.38,0.78,0.36,1.64h0.1a5.16,5.16,0,0,1,1.53-1.1,3.5,3.5,0,0,1,2-.24,3.2,3.2,0,0,1,2.26,1.37,6.39,6.39,0,0,1,.83,3.64l-2.8-.39A2.64,2.64,0,0,0,131,452a1,1,0,0,0-.8-0.51,2.15,2.15,0,0,0-1.54.26,3.91,3.91,0,0,0-1,1c0,2,0,3.07,0,5.11l5.19,0.73v2.64c-4.51-.63-6.76-0.95-11.27-1.61V456.9Z"/><path d="M136.43,459l4.21,0.57v-6.72l-4.21-.57v-2.64l7.33,1c0,3.74,0,5.62,0,9.36l4.43,0.58v2.64c-4.71-.61-7.06-0.92-11.76-1.57V459Zm3.64-12.13a1.48,1.48,0,0,1,.55-1.2,1.92,1.92,0,0,1,1.53-.32,2.67,2.67,0,0,1,1.6.74,1.89,1.89,0,0,1,.6,1.35,1.35,1.35,0,0,1-.6,1.18,2.24,2.24,0,0,1-1.6.28,2.53,2.53,0,0,1-1.53-.7A1.85,1.85,0,0,1,140.07,446.87Z"/><path d="M151.54,452.46a11.92,11.92,0,0,1,2.22-.46,12.4,12.4,0,0,1,3,.06,7.12,7.12,0,0,1,2.12.56,4.2,4.2,0,0,1,1.41,1,3.78,3.78,0,0,1,.78,1.42,6.09,6.09,0,0,1,.24,1.76q0,1.22-.08,2.08t-0.08,1.53a10.54,10.54,0,0,0,0,1.13c0,0.22.06,0.45,0.07,0.66l1.56,0.19V465l-4-.49-0.31-1.67h-0.12A3.45,3.45,0,0,1,157,464a4.26,4.26,0,0,1-2.38.24,4.57,4.57,0,0,1-2.83-1.32,3.73,3.73,0,0,1-1-2.68,3.53,3.53,0,0,1,.37-1.69,2.58,2.58,0,0,1,1.07-1.06,4.54,4.54,0,0,1,1.69-.48,9.75,9.75,0,0,1,2.2,0q0.43,0.05.91,0.16l1.17,0.24a2.36,2.36,0,0,0,0-.47v-0.46a1.73,1.73,0,0,0-.52-1.37,2.83,2.83,0,0,0-1.55-.59,7,7,0,0,0-2.19,0,12.71,12.71,0,0,0-1.64.42Zm4.08,9.32a2.67,2.67,0,0,0,1.71-.21,2.36,2.36,0,0,0,.83-0.8v-1.44l-0.71-.2a8.54,8.54,0,0,0-1-.19,4.9,4.9,0,0,0-.9,0,2.71,2.71,0,0,0-.81.16,1.33,1.33,0,0,0-.57.4,1,1,0,0,0-.21.67,1.54,1.54,0,0,0,.39,1.09A2.06,2.06,0,0,0,155.62,461.78Z"/><path d="M165.85,448.61l5.11,0.6c0,4.44,0,6.65,0,11.09a5.49,5.49,0,0,0,.46,2.62,1.83,1.83,0,0,0,1.46.89,3.91,3.91,0,0,0,1.22,0,4.12,4.12,0,0,0,1-.34l1.18,2.29q-0.41.22-.82,0.4a4.64,4.64,0,0,1-.86.29,5.45,5.45,0,0,1-1,.13,7.85,7.85,0,0,1-1.21-.05A5.08,5.08,0,0,1,169,465a5,5,0,0,1-1.13-3.4c0-4,0-6,0-10.08l-2-.24C165.85,450.19,165.85,449.67,165.85,448.61Z"/><path d="M189.08,473.09a12.29,12.29,0,0,1-3.27-1.4,11.15,11.15,0,0,1-2.81-2.44,11.69,11.69,0,0,1-2-3.48,13.16,13.16,0,0,1-.73-4.54,11.86,11.86,0,0,1,.73-4.37,9,9,0,0,1,2-3.09,8.37,8.37,0,0,1,2.81-1.88,11,11,0,0,1,3.27-.78l0.58,2.63a9.17,9.17,0,0,0-1.91.48,6,6,0,0,0-2,1.25,6.94,6.94,0,0,0-1.62,2.33,9.22,9.22,0,0,0-.66,3.77,9.4,9.4,0,0,0,.7,3.79,9.52,9.52,0,0,0,1.69,2.67,8.71,8.71,0,0,0,2.05,1.68,9.09,9.09,0,0,0,1.78.82Z"/><path d="M198.25,466.52a5.14,5.14,0,0,0,1.47,0,3.28,3.28,0,0,0,1.17-.44,2.23,2.23,0,0,0,.77-0.81,2.4,2.4,0,0,0,.28-1.17,2.7,2.7,0,0,0-1-2.18,5.8,5.8,0,0,0-3.13-1.06l-0.61,0-0.66,0-0.74-.05c0-3.51,0-5.27,0-8.78l8.7,0.85v2.93l-6-.58v3.24h0.38l0.32,0,0.28,0a7.41,7.41,0,0,1,2.23.57,5.77,5.77,0,0,1,1.8,1.22,5.41,5.41,0,0,1,1.19,1.81,5.89,5.89,0,0,1,.42,2.24,5.23,5.23,0,0,1-.53,2.43,4.49,4.49,0,0,1-1.44,1.65,5.79,5.79,0,0,1-2.11.89,8.36,8.36,0,0,1-2.57.12,6.67,6.67,0,0,1-1.13-.22q-0.6-.17-1.18-0.38a11.38,11.38,0,0,1-1.07-.46q-0.49-.24-0.83-0.44l1-2.39a8,8,0,0,0,1.26.66A5.87,5.87,0,0,0,198.25,466.52Z"/><path d="M209.85,472.52a7.58,7.58,0,0,0,1.78-.47,6.64,6.64,0,0,0,2.06-1.28,7.27,7.27,0,0,0,1.69-2.33,8.44,8.44,0,0,0,.7-3.66,10.19,10.19,0,0,0-.66-3.9,9.08,9.08,0,0,0-1.62-2.65,8,8,0,0,0-2-1.65,11,11,0,0,0-1.91-.86l0.58-2.52a13.09,13.09,0,0,1,3.27,1.43,11.1,11.1,0,0,1,2.81,2.43,11.69,11.69,0,0,1,2,3.47,13,13,0,0,1,.73,4.52,12,12,0,0,1-.73,4.4,9,9,0,0,1-2,3.09,8.43,8.43,0,0,1-2.81,1.89,10.35,10.35,0,0,1-3.27.76Z"/><path d="M374.85,477v-2.64l2.84,0V467.6l-2.87,0V465l2.87,0v-0.67a4.43,4.43,0,0,1,.4-1.95,4,4,0,0,1,1-1.35,4.35,4.35,0,0,1,1.51-.8,6.3,6.3,0,0,1,1.77-.27,11.3,11.3,0,0,1,2.74.24,6.91,6.91,0,0,1,1.77.66L386,463.21a10.85,10.85,0,0,0-1.19-.46,5.23,5.23,0,0,0-1.65-.19,2.37,2.37,0,0,0-1.82.61,2.62,2.62,0,0,0-.52,1.77l5.06-.06v2.64l-5.06.07v6.72l5.09-.07v2.64C381.49,476.93,379.27,477,374.85,477Z"/><path d="M389.77,465.62a13.48,13.48,0,0,1,2.23-.78,12.84,12.84,0,0,1,3-.37,6.65,6.65,0,0,1,2.13.26,3.48,3.48,0,0,1,1.42.82,3.15,3.15,0,0,1,.78,1.3,5.73,5.73,0,0,1,.24,1.72q0,1.22-.08,2.09t-0.08,1.54a10.16,10.16,0,0,0,0,1.13c0,0.22.06,0.44,0.07,0.65l1.57,0v2.64l-4,.09L396.73,475h-0.12a4.27,4.27,0,0,1-1.37,1.31,4.63,4.63,0,0,1-2.4.59A4,4,0,0,1,390,476a3.22,3.22,0,0,1-1.05-2.53,3.85,3.85,0,0,1,.37-1.75,3.19,3.19,0,0,1,1.08-1.22,5.25,5.25,0,0,1,1.7-.73,10.1,10.1,0,0,1,2.22-.27q0.43,0,.91,0l1.17,0.07a2.49,2.49,0,0,0,0-.48v-0.46a1.5,1.5,0,0,0-.53-1.3,2.53,2.53,0,0,0-1.56-.36,7.37,7.37,0,0,0-2.2.35,14.67,14.67,0,0,0-1.65.65Zm4.1,8.73a2.67,2.67,0,0,0,2.55-1.37v-1.44l-0.71-.09a8.24,8.24,0,0,0-1,0,5,5,0,0,0-.91.1,3.06,3.06,0,0,0-.81.28,1.64,1.64,0,0,0-.57.48,1.15,1.15,0,0,0-.21.7,1.34,1.34,0,0,0,.39,1A1.83,1.83,0,0,0,393.87,474.35Z"/><path d="M415.22,475a7.15,7.15,0,0,1-2.31,1.19,10.28,10.28,0,0,1-2.77.45,7.78,7.78,0,0,1-2.78-.38,5.47,5.47,0,0,1-2-1.23,5.26,5.26,0,0,1-1.27-2,7.34,7.34,0,0,1-.43-2.58,6.84,6.84,0,0,1,.51-2.7,5.86,5.86,0,0,1,1.41-2,6.3,6.3,0,0,1,2.13-1.29,8.4,8.4,0,0,1,2.68-.5,9.84,9.84,0,0,1,2.53.24,11.43,11.43,0,0,1,1.81.54V469l-2.65.08v-2.21a6.81,6.81,0,0,0-1.49-.12,4.61,4.61,0,0,0-1.34.24,3.39,3.39,0,0,0-1.18.68,3.52,3.52,0,0,0-.84,1.14,3.72,3.72,0,0,0-.33,1.62,3.65,3.65,0,0,0,.26,1.41,3.24,3.24,0,0,0,.75,1.11,3.29,3.29,0,0,0,1.19.72,4.26,4.26,0,0,0,1.58.23,5.75,5.75,0,0,0,2.25-.45,9.33,9.33,0,0,0,1.31-.71Z"/><path d="M419.31,466.69l-2.39.08v-2.64l2.39-.08v-2.74l3.13-1v3.62l6.31-.24c0,1.06,0,1.58,0,2.64l-6.31.24c0,1.37,0,2.06,0,3.43a4,4,0,0,0,.7,2.65,2.33,2.33,0,0,0,2,.76,4.22,4.22,0,0,0,1.18-.2,4.64,4.64,0,0,0,1-.43,5.72,5.72,0,0,0,.77-0.56l0.64-.55,1.44,2.1a4.87,4.87,0,0,1-1,.92,9.13,9.13,0,0,1-1.33.75,8.62,8.62,0,0,1-1.48.53,7.21,7.21,0,0,1-1.52.23,5,5,0,0,1-4.06-1.35q-1.36-1.45-1.36-4.72v-3.43Z"/><path d="M431.82,469.57a7.54,7.54,0,0,1,.46-2.71,5.84,5.84,0,0,1,1.3-2,5.91,5.91,0,0,1,2-1.32,7.93,7.93,0,0,1,2.61-.54,7.43,7.43,0,0,1,2.71.33,5.25,5.25,0,0,1,2,1.19,5.05,5.05,0,0,1,1.24,1.94,7.45,7.45,0,0,1,.42,2.57,7.55,7.55,0,0,1-.46,2.71,5.79,5.79,0,0,1-3.31,3.39,7.86,7.86,0,0,1-2.61.54,7.38,7.38,0,0,1-2.71-.33,5.26,5.26,0,0,1-2-1.2,5.09,5.09,0,0,1-1.24-2A7.47,7.47,0,0,1,431.82,469.57Zm3.23-.14a4.65,4.65,0,0,0,.22,1.45,3.4,3.4,0,0,0,.63,1.15,2.65,2.65,0,0,0,1,.74,3,3,0,0,0,1.33.22,3.2,3.2,0,0,0,2.28-1,4.86,4.86,0,0,0,.06-5.49,2.7,2.7,0,0,0-2.34-.91,3.84,3.84,0,0,0-1.25.26,2.62,2.62,0,0,0-1,.71,3.41,3.41,0,0,0-.66,1.18A5.25,5.25,0,0,0,435,469.43Z"/><path d="M446.37,472.25l3-.15v-6.72l-3,.15c0-1.06,0-1.58,0-2.64l5.42-.28,0.36,1.56h0.1a6.92,6.92,0,0,1,1.54-1.4,4,4,0,0,1,2-.64,2.59,2.59,0,0,1,2.28.93,5.56,5.56,0,0,1,.83,3.48l-2.82.16a2.34,2.34,0,0,0-.25-1.25,0.84,0.84,0,0,0-.81-0.35,2.51,2.51,0,0,0-1.55.57,5.23,5.23,0,0,0-1,1.16v5.11l5.23-.29v2.64c-4.54.26-6.8,0.38-11.34,0.62C446.37,473.84,446.37,473.31,446.37,472.25Z"/><path d="M461.3,471.43l4.24-.26v-6.72l-4.24.26c0-1.06,0-1.58,0-2.64l7.37-.46c0,3.74,0,5.62,0,9.36l4.45-.29c0,1.06,0,1.58,0,2.64-4.73.32-7.09,0.47-11.82,0.75C461.3,473,461.3,472.48,461.3,471.43ZM465,458.58a1.81,1.81,0,0,1,.55-1.31,2.28,2.28,0,0,1,1.54-.63,2.24,2.24,0,0,1,1.61.43,1.53,1.53,0,0,1,.6,1.23,1.67,1.67,0,0,1-.6,1.3,2.61,2.61,0,0,1-1.61.6,2.13,2.13,0,0,1-1.54-.4A1.51,1.51,0,0,1,465,458.58Z"/><path d="M476.48,461.9a14.16,14.16,0,0,1,2.23-.9,13.09,13.09,0,0,1,3-.53,6.52,6.52,0,0,1,2.13.14,3.25,3.25,0,0,1,1.42.75,2.94,2.94,0,0,1,.78,1.26,5.62,5.62,0,0,1,.24,1.71q0,1.22-.08,2.09T486.11,468a10.08,10.08,0,0,0,0,1.12c0,0.22.06,0.44,0.07,0.64l1.56-.12v2.64l-4,.3L483.44,471h-0.12a4.61,4.61,0,0,1-1.36,1.38,4.81,4.81,0,0,1-2.39.71,3.83,3.83,0,0,1-2.85-.76,3.06,3.06,0,0,1-1.05-2.47,4,4,0,0,1,.37-1.77,3.44,3.44,0,0,1,1.08-1.27,5.55,5.55,0,0,1,1.7-.82,10.29,10.29,0,0,1,2.21-.38,9.07,9.07,0,0,1,.91,0h1.17a2.53,2.53,0,0,0,0-.48v-0.46a1.43,1.43,0,0,0-.52-1.27,2.45,2.45,0,0,0-1.55-.28,7.55,7.55,0,0,0-2.2.47,15.48,15.48,0,0,0-1.65.74Zm4.1,8.52a3,3,0,0,0,1.71-.54,3.14,3.14,0,0,0,.83-1v-1.44l-0.71-.06a8.2,8.2,0,0,0-1,0,5.13,5.13,0,0,0-.9.15,3.21,3.21,0,0,0-.81.32,1.77,1.77,0,0,0-.57.51,1.2,1.2,0,0,0-.21.71,1.28,1.28,0,0,0,.39,1A1.76,1.76,0,0,0,480.58,470.42Z"/><path d="M490.85,455.23l5.12-.41c0,4.44,0,6.65,0,11.09a4.9,4.9,0,0,0,.46,2.53,1.48,1.48,0,0,0,1.47.6,4.19,4.19,0,0,0,1.23-.26,5.13,5.13,0,0,0,1-.52l1.18,2.06q-0.41.3-.82,0.56a5.75,5.75,0,0,1-.87.46,6.25,6.25,0,0,1-1,.32,8.18,8.18,0,0,1-1.21.18A4.25,4.25,0,0,1,494,471a4.15,4.15,0,0,1-1.13-3.17c0-4,0-6,0-10.08l-2,.16v-2.64Z"/><path d="M505.06,473.67c4.27-.37,6.4-0.56,10.67-1,0,1,0,1.54,0,2.57-4.27.4-6.4,0.59-10.67,1C505.06,475.21,505.06,474.7,505.06,473.67Z"/><path d="M517.6,452.93l4.85-.46c0,2.46,0,3.69,0,6.14h0.1a4.67,4.67,0,0,1,1.54-1.37,5.61,5.61,0,0,1,2.26-.68,5.48,5.48,0,0,1,1.68.07,2.81,2.81,0,0,1,1.32.66,3.28,3.28,0,0,1,.86,1.41,7.25,7.25,0,0,1,.31,2.31v7.46l-3.12.32V462a2.74,2.74,0,0,0-.62-2,2,2,0,0,0-1.63-.49,3,3,0,0,0-1.63.7,3.37,3.37,0,0,0-1.06,1.48v7.66l-3.12.3c0-5.66,0-8.5,0-14.16l-1.73.16v-2.64Z"/><path d="M544.83,465.67a5,5,0,0,1-.8.65,8.77,8.77,0,0,1-1.15.64,9.79,9.79,0,0,1-3.13.87,7.85,7.85,0,0,1-2.75-.14,4.65,4.65,0,0,1-3.34-2.9,7,7,0,0,1-.44-2.61,7.45,7.45,0,0,1,.5-2.82,6.4,6.4,0,0,1,1.38-2.12,6.66,6.66,0,0,1,2.05-1.4,8.5,8.5,0,0,1,2.54-.67,7.7,7.7,0,0,1,1.88,0,4.59,4.59,0,0,1,1.79.63,3.78,3.78,0,0,1,1.33,1.42,5,5,0,0,1,.52,2.44A11.82,11.82,0,0,1,545,462l-8.64.93a2.56,2.56,0,0,0,.32,1.26,2.2,2.2,0,0,0,.79.78,3.09,3.09,0,0,0,1.13.37,5.55,5.55,0,0,0,1.36,0,7.43,7.43,0,0,0,2.36-.59,5.77,5.77,0,0,0,1.5-1Zm-5.18-8a4.24,4.24,0,0,0-1.18.3,3.75,3.75,0,0,0-1,.61,3.21,3.21,0,0,0-.73.9,2.76,2.76,0,0,0-.34,1.14l5.91-.63a2.39,2.39,0,0,0-.66-1.82A2.42,2.42,0,0,0,539.65,457.67Z"/><path d="M548.5,449.74l5.11-.59c0,4.44,0,6.65,0,11.09a4.82,4.82,0,0,0,.46,2.52,1.42,1.42,0,0,0,1.46.55,4.26,4.26,0,0,0,1.22-.3,5.34,5.34,0,0,0,1-.56l1.18,2q-0.41.31-.82,0.59a6,6,0,0,1-.86.49,6.43,6.43,0,0,1-1,.36,8.28,8.28,0,0,1-1.21.23,4.13,4.13,0,0,1-3.38-.76,4,4,0,0,1-1.13-3.13V452.15l-2,.23v-2.64Z"/><path d="M560.8,453.1l4.08-.5,0.36,1.4h0.1a5.27,5.27,0,0,1,4-2.28,5.5,5.5,0,0,1,2,.09,3.34,3.34,0,0,1,1.58.89,4.37,4.37,0,0,1,1,1.74,8.54,8.54,0,0,1,.36,2.67,9.35,9.35,0,0,1-.41,2.82,6.92,6.92,0,0,1-1.17,2.25,6,6,0,0,1-1.87,1.56,7.1,7.1,0,0,1-2.52.77,9.77,9.77,0,0,1-1.46.07,3.7,3.7,0,0,1-1.2-.2v4.92l-3.12.38c0-5.66,0-8.5,0-14.16l-1.8.22V453.1Zm7.62,1.37a3.54,3.54,0,0,0-1.67.66,2.81,2.81,0,0,0-1,1.5v5a2.26,2.26,0,0,0,1,.3,5.2,5.2,0,0,0,1.28,0,3.64,3.64,0,0,0,1.25-.38,3,3,0,0,0,1-.86,4.14,4.14,0,0,0,.67-1.36,6.58,6.58,0,0,0,.24-1.88,3.2,3.2,0,0,0-.77-2.35A2.21,2.21,0,0,0,568.43,454.47Z"/><path d="M588,460.32a5.16,5.16,0,0,1-.8.67,9,9,0,0,1-1.15.67,10,10,0,0,1-1.45.58,9.86,9.86,0,0,1-1.68.37,7.78,7.78,0,0,1-2.74-.07,4.48,4.48,0,0,1-3.33-2.81,7,7,0,0,1-.44-2.59,7.57,7.57,0,0,1,.5-2.84,6.63,6.63,0,0,1,1.38-2.16,6.89,6.89,0,0,1,2-1.46,8.63,8.63,0,0,1,2.54-.73,7.67,7.67,0,0,1,1.88,0,4.47,4.47,0,0,1,1.78.59,3.63,3.63,0,0,1,1.33,1.39,4.92,4.92,0,0,1,.52,2.43,11.94,11.94,0,0,1-.24,2.27l-8.62,1.16a2.52,2.52,0,0,0,.32,1.25,2.12,2.12,0,0,0,.79.76,3,3,0,0,0,1.13.34,5.53,5.53,0,0,0,1.35,0,7.54,7.54,0,0,0,2.36-.65,6,6,0,0,0,1.5-1Zm-5.17-7.87a4.3,4.3,0,0,0-1.17.33,3.87,3.87,0,0,0-1,.63,3.33,3.33,0,0,0-.73.92,2.83,2.83,0,0,0-.34,1.14l5.89-.79a2.33,2.33,0,0,0-.66-1.81A2.37,2.37,0,0,0,582.8,452.46Z"/><path d="M590.49,458.61l3-.41v-6.72l-3,.41v-2.64l5.38-.76,0.36,1.53h0.1a7.85,7.85,0,0,1,1.53-1.54,4.29,4.29,0,0,1,2-.82,2.37,2.37,0,0,1,2.26.73,5.26,5.26,0,0,1,.83,3.41l-2.8.41a2.23,2.23,0,0,0-.25-1.22,0.76,0.76,0,0,0-.8-0.28,2.72,2.72,0,0,0-1.54.7,5.94,5.94,0,0,0-1,1.25v5.11l5.19-.75v2.64c-4.51.66-6.76,1-11.27,1.6v-2.64Z"/><path d="M614.78,462.78a9.89,9.89,0,0,1-3.25-.56,7.71,7.71,0,0,1-2.8-1.71,8.33,8.33,0,0,1-1.95-3,11.65,11.65,0,0,1-.73-4.36,13.48,13.48,0,0,1,.73-4.56,12.68,12.68,0,0,1,1.95-3.59,12.11,12.11,0,0,1,2.8-2.61,13.92,13.92,0,0,1,3.25-1.63l0.57,2.48a11.73,11.73,0,0,0-1.9,1,8.67,8.67,0,0,0-2,1.77,9.83,9.83,0,0,0-1.61,2.75,10.55,10.55,0,0,0-.66,3.94,8.19,8.19,0,0,0,.69,3.62,6.65,6.65,0,0,0,1.69,2.23,6.09,6.09,0,0,0,2,1.15,7.2,7.2,0,0,0,1.77.36Z"/><path d="M620.78,454.12l3.65-.58V443.05L621.28,446l-1.43-1.69,5.44-5,2.1-.34v14.16l3.58-.58v2.64c-4.08.67-6.12,1-10.2,1.64v-2.64Z"/><path d="M637.78,452.45a2,2,0,0,1,.54-1.39,2.33,2.33,0,0,1,1.35-.71,2,2,0,0,1,2,.53,2.93,2.93,0,0,1,.67,2,5.06,5.06,0,0,1-.42,2,6.58,6.58,0,0,1-1.08,1.72,7.52,7.52,0,0,1-1.49,1.31,7.23,7.23,0,0,1-1.63.83L637,457.59a8.32,8.32,0,0,0,1.16-.6,5.91,5.91,0,0,0,1.06-.84,4.71,4.71,0,0,0,.8-1.06,3,3,0,0,0,.37-1.22,3.19,3.19,0,0,1-1.22.24,1.56,1.56,0,0,1-.82-0.24,1.25,1.25,0,0,1-.46-0.59A2.3,2.3,0,0,1,637.78,452.45Z"/><path d="M652.53,449a5.81,5.81,0,0,0,1.45-.45,4.53,4.53,0,0,0,1.16-.76,3.32,3.32,0,0,0,.76-1,2.88,2.88,0,0,0,.27-1.25,2,2,0,0,0-1-1.89,4.86,4.86,0,0,0-3.11-.2l-0.61.12-0.66.15-0.74.15v-8.78l8.62-1.54v2.93l-6,1.07v3.24l0.38-.09,0.32-.07,0.27-.06a6.63,6.63,0,0,1,2.22,0,4.07,4.07,0,0,1,1.79.72,3.66,3.66,0,0,1,1.18,1.48,5.08,5.08,0,0,1,.42,2.12,6.22,6.22,0,0,1-.52,2.58,6.66,6.66,0,0,1-1.43,2,8.09,8.09,0,0,1-2.1,1.47,9.53,9.53,0,0,1-2.55.83,6.27,6.27,0,0,1-1.12.09c-0.4,0-.79,0-1.17-0.06a9.15,9.15,0,0,1-1.06-.16,8.26,8.26,0,0,1-.82-0.22l1-2.67a6,6,0,0,0,1.25.31A5.23,5.23,0,0,0,652.53,449Z"/><path d="M664,451.82a9.88,9.88,0,0,0,1.76-1,9.75,9.75,0,0,0,2-1.84,10.61,10.61,0,0,0,1.68-2.8,9.88,9.88,0,0,0,.69-3.85,8.92,8.92,0,0,0-.65-3.72,6.21,6.21,0,0,0-1.61-2.21,5.4,5.4,0,0,0-2-1.09A8.61,8.61,0,0,0,664,435l0.57-2.67a10.29,10.29,0,0,1,3.24.53,7.46,7.46,0,0,1,2.78,1.66,8.14,8.14,0,0,1,1.94,2.93,11.51,11.51,0,0,1,.72,4.31,13.79,13.79,0,0,1-.72,4.6,13,13,0,0,1-1.94,3.63,12.46,12.46,0,0,1-2.78,2.66,13.28,13.28,0,0,1-3.24,1.66Z"/></svg>