<svg id="Layer_1" data-name="Layer 1" xmlns="http://www.w3.org/2000/svg" viewBox="0 0 720 576"><defs><style>.cls-1,.cls-2,.cls-4,.cls-6{fill:#231f20;}.cls-1,.cls-3{stroke:#231f20;}.cls-1,.cls-6{stroke-miterlimit:10;}.cls-1,.cls-2,.cls-3{stroke-width:2px;}.cls-2{stroke:#000;}.cls-2,.cls-3{stroke-linecap:round;stroke-linejoin:round;}.cls-3,.cls-5{fill:#fff;}.cls-6{stroke:#fff;}</style></defs><title>Hanoi_Tower_Set_5_Final</title><path class="cls-1" d="M700,506.49c0-.14,0-0.29,0-0.43s0-.29,0-0.43V453.84H54.21S54,505.57,54,506.06c0,2.67,2.32,5.24,6.64,7.71,15.13,8.61,55.2,16.11,111,21.48S299,543.84,377,543.84c89.16,0,169.88-4.21,228.32-11,29.22-3.41,52.87-7.46,69.23-12,8.18-2.25,14.54-4.62,18.86-7.08,3.69-2.1,5.91-4.29,6.48-6.55H700v-0.73Z"/><ellipse class="cls-2" cx="377.01" cy="454.92" rx="322.86" ry="37.63"/><path class="cls-3" d="M700,455c0-.14,0-0.29,0-0.43s0-.29,0-0.43V402.36H54.21S54,454.1,54,454.58c0,2.67,2.32,5.24,6.64,7.71,15.13,8.61,55.2,16.11,111,21.48S299,492.36,377,492.36c89.16,0,169.88-4.21,228.32-11,29.22-3.41,52.87-7.46,69.23-12,8.18-2.25,14.54-4.62,18.86-7.08,3.69-2.1,5.91-4.29,6.48-6.55H700V455Z"/><ellipse class="cls-3" cx="377.01" cy="403.44" rx="322.86" ry="37.63"/><path class="cls-3" d="M700,403.53c0-.14,0-0.29,0-0.43s0-.29,0-0.43V350.88H54.21S54,402.62,54,403.1c0,2.67,2.32,5.24,6.64,7.71,15.13,8.61,55.2,16.11,111,21.48S299,440.88,377,440.88c89.16,0,169.88-4.21,228.32-11,29.22-3.41,52.87-7.46,69.23-12,8.18-2.25,14.54-4.62,18.86-7.08,3.69-2.1,5.91-4.29,6.48-6.55H700v-0.73Z"/><ellipse class="cls-3" cx="377.01" cy="351.97" rx="322.86" ry="37.63"/><path class="cls-3" d="M700,352.06c0-.14,0-0.29,0-0.43s0-.29,0-0.43V299.4H54.21S54,351.14,54,351.62c0,2.67,2.32,5.24,6.64,7.71,15.13,8.61,55.2,16.11,111,21.48S299,389.4,377,389.4c89.16,0,169.88-4.21,228.32-11,29.22-3.41,52.87-7.46,69.23-12,8.18-2.25,14.54-4.62,18.86-7.08,3.69-2.1,5.91-4.29,6.48-6.55H700v-0.73Z"/><ellipse class="cls-3" cx="377.01" cy="300.49" rx="322.86" ry="37.63"/><path class="cls-3" d="M700,302.06c0-.14,0-0.29,0-0.43s0-.29,0-0.43V249.4H54.21S54,301.14,54,301.62c0,2.67,2.32,5.24,6.64,7.71,15.13,8.61,55.2,16.11,111,21.48S299,339.4,377,339.4c89.16,0,169.88-4.21,228.32-11,29.22-3.41,52.87-7.46,69.23-12,8.18-2.25,14.54-4.62,18.86-7.08,3.69-2.1,5.91-4.29,6.48-6.55H700v-0.73Z"/><ellipse class="cls-3" cx="377.01" cy="250.49" rx="322.86" ry="37.63"/><path class="cls-3" d="M700,251.06c0-.14,0-0.29,0-0.43s0-.29,0-0.43V198.4H54.21S54,250.14,54,250.62c0,2.67,2.32,5.24,6.64,7.71,15.13,8.61,55.2,16.11,111,21.48S299,288.4,377,288.4c89.16,0,169.88-4.21,228.32-11,29.22-3.41,52.87-7.46,69.23-12,8.18-2.25,14.54-4.62,18.86-7.08,3.69-2.1,5.91-4.29,6.48-6.55H700v-0.73Z"/><ellipse class="cls-3" cx="377.01" cy="199.49" rx="322.86" ry="37.63"/><path class="cls-4" d="M377,208.64c-16,0-29-3.75-30.2-8.61h-0.08l0-.5V8.27h60.63V200H407.2C406,204.89,393,208.64,377,208.64Z"/><path class="cls-5" d="M406.82,8.77V199.53h0c-0.49,4.78-13.63,8.61-29.79,8.61s-29.3-3.83-29.79-8.61h0v-0.21s0,0,0-.06,0,0,0-.06V8.77h59.63m1-1H346.2V199.15s0,0.07,0,.11v1.27h0.22c1.05,3,5.66,4.94,9.53,6.06a88,88,0,0,0,42.09,0c3.87-1.12,8.48-3.05,9.53-6.06h0.21l0-1V7.77h0Z"/><ellipse class="cls-6" cx="377" cy="8.89" rx="29.81" ry="8.89"/><path class="cls-4" d="M72.64,296.42c0-.88,0-1.32,0-2.2L75,294.59c0-2.24,0-3.36,0-5.6l-2.37-.37c0-.88,0-1.32,0-2.2L75,286.79v-0.56a3.37,3.37,0,0,1,.33-1.57,2.6,2.6,0,0,1,.86-1,3,3,0,0,1,1.24-.46,5,5,0,0,1,1.46,0,10,10,0,0,1,2.26.58,6.87,6.87,0,0,1,1.46.79l-0.76,1.86a10.78,10.78,0,0,0-1-.55,4.72,4.72,0,0,0-1.36-.39,1.72,1.72,0,0,0-1.5.26,1.92,1.92,0,0,0-.43,1.4l4.18,0.65V290l-4.18-.65V295l4.2,0.65v2.2Z"/><path class="cls-4" d="M84.95,289a9.84,9.84,0,0,1,1.84-.34,10.28,10.28,0,0,1,2.48.11,6,6,0,0,1,1.76.51,3.61,3.61,0,0,1,1.17.88,3.27,3.27,0,0,1,.65,1.2,5.16,5.16,0,0,1,.2,1.47q0,1-.07,1.73c0,0.47-.07.9-0.07,1.27a8.83,8.83,0,0,0,0,.95c0,0.19,0,.37.06,0.55l1.29,0.19c0,0.88,0,1.32,0,2.2L91,299.23l-0.26-1.4H90.6a2.76,2.76,0,0,1-1.13.9,3.5,3.5,0,0,1-2,.15,3.89,3.89,0,0,1-2.35-1.16,3.18,3.18,0,0,1-.87-2.25,2.91,2.91,0,0,1,.31-1.4,2.07,2.07,0,0,1,.89-0.86,3.68,3.68,0,0,1,1.4-.37,8,8,0,0,1,1.83.08q0.36,0.05.75,0.15l1,0.22a2,2,0,0,0,0-.39v-0.38a1.48,1.48,0,0,0-.43-1.16,2.41,2.41,0,0,0-1.28-.52,5.79,5.79,0,0,0-1.82,0,10.26,10.26,0,0,0-1.36.31Zm3.39,7.85a2.19,2.19,0,0,0,1.42-.14,1.89,1.89,0,0,0,.69-0.65c0-.48,0-0.72,0-1.2l-0.59-.18a7.13,7.13,0,0,0-.85-0.18,4,4,0,0,0-.75,0,2.21,2.21,0,0,0-.67.12,1.06,1.06,0,0,0-.47.32,0.84,0.84,0,0,0-.18.55,1.31,1.31,0,0,0,.32.92A1.75,1.75,0,0,0,88.33,296.86Z"/><path class="cls-4" d="M106,300.44a4.89,4.89,0,0,1-1.91.66,8.1,8.1,0,0,1-2.29,0,7.11,7.11,0,0,1-2.3-.71,5.73,5.73,0,0,1-1.69-1.31,5.48,5.48,0,0,1-1-1.82,6.69,6.69,0,0,1-.36-2.21,5.23,5.23,0,0,1,.42-2.18A3.85,3.85,0,0,1,98,291.36a4.21,4.21,0,0,1,1.76-.77,6.51,6.51,0,0,1,2.21,0,8.79,8.79,0,0,1,2.09.56,11.16,11.16,0,0,1,1.49.71v3.52l-2.19-.31v-1.84a6,6,0,0,0-1.23-.32,3.58,3.58,0,0,0-1.11,0,2.24,2.24,0,0,0-1.67,1.23,2.81,2.81,0,0,0-.27,1.3,3.35,3.35,0,0,0,.22,1.21,3.36,3.36,0,0,0,1.6,1.8,3.92,3.92,0,0,0,1.3.42,4.44,4.44,0,0,0,1.86-.06,6.32,6.32,0,0,0,1.09-.41Z"/><path class="cls-4" d="M109.35,294.08l-2-.28c0-.88,0-1.32,0-2.2l2,0.28V289.6l2.59-.38c0,1.21,0,1.81,0,3l5.22,0.71v2.2l-5.22-.71v2.86a3.82,3.82,0,0,0,.58,2.31,2.32,2.32,0,0,0,1.61.91,3.32,3.32,0,0,0,1,0,3.2,3.2,0,0,0,.79-0.22,3.72,3.72,0,0,0,.64-0.35l0.53-.37,1.19,2a3.16,3.16,0,0,1-.85.62,6.22,6.22,0,0,1-2.32.66,5.69,5.69,0,0,1-1.26,0,5,5,0,0,1-3.36-1.71,6.49,6.49,0,0,1-1.13-4.13v-2.86Z"/><path class="cls-4" d="M119.69,298.29a5.77,5.77,0,0,1,.38-2.19,3.83,3.83,0,0,1,1.08-1.52,3.89,3.89,0,0,1,1.66-.81,6.1,6.1,0,0,1,2.16-.07,6.8,6.8,0,0,1,2.24.67,5.55,5.55,0,0,1,1.66,1.29,5.32,5.32,0,0,1,1,1.8,6.82,6.82,0,0,1,.35,2.2,5.81,5.81,0,0,1-.38,2.19,3.76,3.76,0,0,1-2.74,2.34,6.07,6.07,0,0,1-2.16.07,6.76,6.76,0,0,1-2.24-.67,5.56,5.56,0,0,1-1.66-1.29,5.33,5.33,0,0,1-1-1.81A6.81,6.81,0,0,1,119.69,298.29Zm2.67,0.35a4.2,4.2,0,0,0,.18,1.24,3.5,3.5,0,0,0,.52,1,2.84,2.84,0,0,0,.82.76,2.76,2.76,0,0,0,1.1.37,2.26,2.26,0,0,0,1.88-.5,2.9,2.9,0,0,0,.73-2.25,3.86,3.86,0,0,0-.68-2.32,2.7,2.7,0,0,0-1.93-1.1,3,3,0,0,0-1,0,1.72,1.72,0,0,0-.83.44,2.27,2.27,0,0,0-.55.89A4.08,4.08,0,0,0,122.36,298.64Z"/><path class="cls-4" d="M131.73,302.65l2.47,0.31v-5.6l-2.47-.31v-2.2l4.49,0.56,0.3,1.36h0.08a4.41,4.41,0,0,1,1.28-.94,2.93,2.93,0,0,1,1.68-.23,2.61,2.61,0,0,1,1.88,1.11,5.26,5.26,0,0,1,.69,3l-2.34-.29a2.17,2.17,0,0,0-.21-1.08,0.85,0.85,0,0,0-.67-0.41,1.81,1.81,0,0,0-1.29.24,3.35,3.35,0,0,0-.83.82v4.26l4.33,0.53V306l-9.4-1.17v-2.2Z"/><path class="cls-4" d="M144.1,304.19l3.51,0.42V299l-3.51-.42v-2.2l6.11,0.73v7.8l3.69,0.43v2.2c-3.92-.45-5.88-0.68-9.8-1.16v-2.2Zm3-10.16a1.25,1.25,0,0,1,.46-1,1.62,1.62,0,0,1,1.28-.29,2.19,2.19,0,0,1,1.34.6,1.55,1.55,0,0,1,.5,1.12,1.14,1.14,0,0,1-.5,1,1.88,1.88,0,0,1-1.34.25,2.07,2.07,0,0,1-1.28-.56A1.52,1.52,0,0,1,147.13,294Z"/><path class="cls-4" d="M156.69,298.54a10.08,10.08,0,0,1,1.85-.41,10.31,10.31,0,0,1,2.49,0,5.88,5.88,0,0,1,1.77.45,3.44,3.44,0,0,1,1.18.84,3.1,3.1,0,0,1,.65,1.17,5.06,5.06,0,0,1,.2,1.46c0,0.68,0,1.26-.07,1.73s-0.07.9-.07,1.27a8.68,8.68,0,0,0,0,.94c0,0.18,0,.37.06,0.55l1.3,0.14v2.2l-3.35-.37-0.26-1.39h-0.1a2.92,2.92,0,0,1-1.13.94,3.56,3.56,0,0,1-2,.23,3.76,3.76,0,0,1-2.36-1.07A3.06,3.06,0,0,1,156,305a3,3,0,0,1,.31-1.42,2.19,2.19,0,0,1,.89-0.9,3.82,3.82,0,0,1,1.41-.42,8,8,0,0,1,1.83,0q0.36,0,.75.12l1,0.19a2,2,0,0,0,0-.4v-0.38a1.43,1.43,0,0,0-.44-1.14,2.33,2.33,0,0,0-1.29-.47,5.82,5.82,0,0,0-1.82.05,10.52,10.52,0,0,0-1.37.36Zm3.4,7.72a2.23,2.23,0,0,0,1.42-.19,2,2,0,0,0,.69-0.67v-1.2l-0.59-.16a7.11,7.11,0,0,0-.85-0.14,4,4,0,0,0-.75,0,2.29,2.29,0,0,0-.67.14,1.12,1.12,0,0,0-.47.34,0.86,0.86,0,0,0-.18.56,1.27,1.27,0,0,0,.33.91A1.69,1.69,0,0,0,160.09,306.27Z"/><path class="cls-4" d="M168.62,295.18l4.25,0.45v9.24a4.55,4.55,0,0,0,.38,2.18,1.51,1.51,0,0,0,1.22.73,3.26,3.26,0,0,0,1,0,3.52,3.52,0,0,0,.8-0.29l1,1.9c-0.23.12-.45,0.24-0.68,0.34a4,4,0,0,1-.72.24,4.62,4.62,0,0,1-.83.11,6.54,6.54,0,0,1-1,0,4.19,4.19,0,0,1-2.82-1.26,4.1,4.1,0,0,1-.94-2.82c0-3.36,0-5,0-8.4l-1.66-.18v-2.2Z"/><path class="cls-4" d="M180.42,312.76l8.87,0.88v2.14l-8.87-.88v-2.14Z"/><path class="cls-4" d="M190.86,297.45l4,0.38c0,2,0,3.07,0,5.12H195a3,3,0,0,1,1.28-.9,4.17,4.17,0,0,1,1.88-.21,4.94,4.94,0,0,1,1.4.33,3,3,0,0,1,1.1.76,3.5,3.5,0,0,1,.72,1.32,6.55,6.55,0,0,1,.26,2c0,2.49,0,3.73,0,6.22l-2.6-.24v-5.68a2.67,2.67,0,0,0-.52-1.81,2,2,0,0,0-1.36-.67,2.11,2.11,0,0,0-1.36.32,2.14,2.14,0,0,0-.88,1.07c0,2.55,0,3.83,0,6.38l-2.6-.25c0-4.72,0-7.08,0-11.8l-1.44-.14v-2.2Z"/><path class="cls-4" d="M213.54,312.44a3.19,3.19,0,0,1-.67.41,5.94,5.94,0,0,1-1,.35,7,7,0,0,1-1.21.22,7.71,7.71,0,0,1-1.4,0,7.12,7.12,0,0,1-2.29-.56,5.07,5.07,0,0,1-2.78-3,6.43,6.43,0,0,1-.37-2.24,5.6,5.6,0,0,1,.42-2.27,4.09,4.09,0,0,1,1.15-1.55,4.31,4.31,0,0,1,1.71-.84,6.45,6.45,0,0,1,2.12-.15,6.88,6.88,0,0,1,1.57.34,4.76,4.76,0,0,1,1.49.82,4.17,4.17,0,0,1,1.11,1.4,4.68,4.68,0,0,1,.43,2.12,9.32,9.32,0,0,1-.2,1.84l-7.2-.62a2.45,2.45,0,0,0,.27,1.1,2.42,2.42,0,0,0,.66.78,3.17,3.17,0,0,0,.94.49,4.9,4.9,0,0,0,1.13.23,5.69,5.69,0,0,0,2-.11,3.75,3.75,0,0,0,1.25-.57Zm-4.32-7.51a3.22,3.22,0,0,0-1,.06,2.49,2.49,0,0,0-.83.35,2,2,0,0,0-.61.63,2,2,0,0,0-.28.89l4.92,0.43A2.18,2.18,0,0,0,209.22,304.93Z"/><path class="cls-4" d="M216.6,299.75l4.26,0.35c0,3.7,0,5.55,0,9.24a4.48,4.48,0,0,0,.38,2.17,1.47,1.47,0,0,0,1.22.7,3.29,3.29,0,0,0,1,0,3.58,3.58,0,0,0,.8-0.31l1,1.88-0.68.36a4,4,0,0,1-.72.26,4.66,4.66,0,0,1-.83.13,6.48,6.48,0,0,1-1,0,4.09,4.09,0,0,1-2.82-1.19,4,4,0,0,1-.94-2.8c0-3.36,0-5,0-8.4L216.6,302C216.6,301.07,216.6,300.63,216.6,299.75Z"/><path class="cls-4" d="M226.87,304.57l3.4,0.26,0.3,1.22h0.08a3.56,3.56,0,0,1,3.36-1.23,5,5,0,0,1,1.69.41,3.65,3.65,0,0,1,1.32,1,4.68,4.68,0,0,1,.85,1.62,7.68,7.68,0,0,1,.3,2.28,7.11,7.11,0,0,1-.34,2.29,4.47,4.47,0,0,1-1,1.68,3.81,3.81,0,0,1-1.56,1,5.3,5.3,0,0,1-2.1.23,8.44,8.44,0,0,1-1.22-.18,3.63,3.63,0,0,1-1-.36c0,1.64,0,2.46,0,4.1l-2.6-.2c0-4.72,0-7.08,0-11.8l-1.5-.12C226.87,305.89,226.87,305.45,226.87,304.57Zm6.37,2.4a2.52,2.52,0,0,0-1.39.28,1.77,1.77,0,0,0-.87,1.08v4.16a2.32,2.32,0,0,0,.81.41,4.62,4.62,0,0,0,1.07.21,2.72,2.72,0,0,0,1-.11,1.93,1.93,0,0,0,.84-0.55,2.71,2.71,0,0,0,.56-1,5.05,5.05,0,0,0,.2-1.53,3.16,3.16,0,0,0-.64-2.09A2.26,2.26,0,0,0,233.23,307Z"/><path class="cls-4" d="M249.57,315.14a3.28,3.28,0,0,1-.67.43,6,6,0,0,1-1,.37,7,7,0,0,1-1.21.24,7.72,7.72,0,0,1-1.4,0,7,7,0,0,1-2.29-.52,4.95,4.95,0,0,1-2.78-2.9,6.37,6.37,0,0,1-.37-2.24,5.66,5.66,0,0,1,.42-2.28,4.19,4.19,0,0,1,1.15-1.57,4.41,4.41,0,0,1,1.71-.87,6.49,6.49,0,0,1,2.12-.18,6.81,6.81,0,0,1,1.57.31,4.65,4.65,0,0,1,1.49.79,4.06,4.06,0,0,1,1.11,1.38,4.64,4.64,0,0,1,.43,2.11,9.22,9.22,0,0,1-.2,1.85l-7.21-.49a2.41,2.41,0,0,0,.27,1.1,2.37,2.37,0,0,0,.66.77,3.1,3.1,0,0,0,.94.47,4.86,4.86,0,0,0,1.13.21,5.73,5.73,0,0,0,2-.15,3.84,3.84,0,0,0,1.25-.6Zm-4.33-7.43a3.24,3.24,0,0,0-1,.08,2.55,2.55,0,0,0-.83.36,2.08,2.08,0,0,0-.61.64,2,2,0,0,0-.28.9l4.93,0.33A2.14,2.14,0,0,0,245.25,307.71Z"/><path class="cls-4" d="M251.68,314.13l2.48,0.16v-5.6l-2.48-.16v-2.2l4.51,0.29,0.3,1.34h0.08a4.84,4.84,0,0,1,1.28-1,3,3,0,0,1,1.68-.34,2.43,2.43,0,0,1,1.89,1,5,5,0,0,1,.69,3l-2.34-.14a2.09,2.09,0,0,0-.21-1.06,0.79,0.79,0,0,0-.67-0.37,1.89,1.89,0,0,0-1.29.32,3.66,3.66,0,0,0-.83.87v4.26l4.35,0.26v2.2l-9.44-.59v-2.2Z"/><path class="cls-4" d="M272,321.78a9.79,9.79,0,0,1-2.73-1,8.64,8.64,0,0,1-2.34-1.91,9.11,9.11,0,0,1-1.63-2.81,10.67,10.67,0,0,1-.61-3.76,10.12,10.12,0,0,1,.61-3.68,8.07,8.07,0,0,1,1.63-2.66,7.5,7.5,0,0,1,2.34-1.69,9.49,9.49,0,0,1,2.73-.79l0.48,2.17a8,8,0,0,0-1.59.48,5.39,5.39,0,0,0-1.69,1.13,6.22,6.22,0,0,0-1.35,2,7.89,7.89,0,0,0-.55,3.17,7.62,7.62,0,0,0,.58,3.13,7.41,7.41,0,0,0,1.41,2.15A6.76,6.76,0,0,0,271,319a7.2,7.2,0,0,0,1.48.61Z"/><path class="cls-4" d="M285.88,313.9a4.3,4.3,0,0,1-1.38,3.21A4.43,4.43,0,0,1,283,318a4.93,4.93,0,0,1-1.91.27,5.84,5.84,0,0,1-2-.43,4.72,4.72,0,0,1-1.59-1.07,5.06,5.06,0,0,1-1.08-1.72,6.37,6.37,0,0,1-.4-2.34,8.83,8.83,0,0,1,.69-3.56,9.29,9.29,0,0,1,1.77-2.72,8.59,8.59,0,0,1,2.43-1.8,7.82,7.82,0,0,1,2.67-.8l0.58,2.09a7.49,7.49,0,0,0-2,.55,6.85,6.85,0,0,0-1.64,1,6.14,6.14,0,0,0-1.21,1.36,4.74,4.74,0,0,0-.67,1.59,2.88,2.88,0,0,1,1.2-.79,4.26,4.26,0,0,1,1.76-.26,4.94,4.94,0,0,1,1.68.37,4.12,4.12,0,0,1,1.35.9,4.18,4.18,0,0,1,.9,1.39A4.85,4.85,0,0,1,285.88,313.9Zm-2.53,0a2.14,2.14,0,0,0-.65-1.67,2.72,2.72,0,0,0-1.75-.65,2.81,2.81,0,0,0-1.44.29,2.37,2.37,0,0,0-.94.79,3.22,3.22,0,0,0,0,.49c0,0.18,0,.32,0,0.43a2.74,2.74,0,0,0,.16.93,2.36,2.36,0,0,0,.47.79,2.38,2.38,0,0,0,.75.56,2.66,2.66,0,0,0,1,.24,2.47,2.47,0,0,0,1.68-.56,2.17,2.17,0,0,0,.55-0.7A2.07,2.07,0,0,0,283.36,313.88Z"/><path class="cls-4" d="M288.53,320.7l8.9,0.38v2.14l-8.9-.38V320.7Z"/><path class="cls-4" d="M309.94,314.88a4.36,4.36,0,0,1-1.38,3.23A4.5,4.5,0,0,1,307,319a5,5,0,0,1-1.92.29,5.79,5.79,0,0,1-2-.4,4.64,4.64,0,0,1-1.59-1.05,5,5,0,0,1-1.08-1.7,6.33,6.33,0,0,1-.4-2.34,8.89,8.89,0,0,1,.69-3.57,9.45,9.45,0,0,1,1.78-2.74,8.75,8.75,0,0,1,2.43-1.83,7.9,7.9,0,0,1,2.67-.83l0.58,2.08a7.58,7.58,0,0,0-2,.58,7,7,0,0,0-1.64,1,6.23,6.23,0,0,0-1.21,1.38,4.79,4.79,0,0,0-.67,1.59,2.93,2.93,0,0,1,1.2-.8,4.28,4.28,0,0,1,1.76-.28,4.91,4.91,0,0,1,1.68.35,4.06,4.06,0,0,1,1.35.89,4.11,4.11,0,0,1,.9,1.38A4.82,4.82,0,0,1,309.94,314.88Zm-2.53,0a2.12,2.12,0,0,0-.65-1.66,2.69,2.69,0,0,0-1.75-.62,2.84,2.84,0,0,0-1.44.31,2.42,2.42,0,0,0-.94.8,3.24,3.24,0,0,0-.05.49c0,0.18,0,.32,0,0.43a2.72,2.72,0,0,0,.16.93,2.32,2.32,0,0,0,1.22,1.34,2.62,2.62,0,0,0,1,.23,2.5,2.5,0,0,0,1.68-.58,2.21,2.21,0,0,0,.55-0.71A2.09,2.09,0,0,0,307.41,314.89Z"/><path class="cls-4" d="M315.78,317.39a4.38,4.38,0,0,0,1.22-.12,3,3,0,0,0,1-.43,2,2,0,0,0,.64-0.72,2.22,2.22,0,0,0-.64-2.75,4.58,4.58,0,0,0-2.62-.71h-1.69c0-2.93,0-4.39,0-7.32l7.26,0.22V308l-5-.15c0,1.08,0,1.62,0,2.7h0.82a5.94,5.94,0,0,1,1.86.35,4.4,4.4,0,0,1,1.5.91,4.11,4.11,0,0,1,1,1.44,4.72,4.72,0,0,1,.35,1.84,4.53,4.53,0,0,1-.44,2.06,4.12,4.12,0,0,1-1.2,1.45,5.19,5.19,0,0,1-1.76.86,7.11,7.11,0,0,1-2.15.24,5.42,5.42,0,0,1-.94-0.12c-0.33-.07-0.66-0.16-1-0.25a8.62,8.62,0,0,1-.89-0.32c-0.27-.12-0.5-0.22-0.69-0.32l0.84-2.05a6.19,6.19,0,0,0,1.05.47A4.7,4.7,0,0,0,315.78,317.39Z"/><path class="cls-4" d="M333.55,319.89l-8.95-.22v-1.94l0.6-.51,0.81-.73q0.45-.41,1-0.9t1-1q0.68-.74,1.19-1.35a9.43,9.43,0,0,0,.84-1.15,4.7,4.7,0,0,0,.49-1.07,3.7,3.7,0,0,0,.16-1.09,1.82,1.82,0,0,0-.18-0.78,2.2,2.2,0,0,0-.5-0.68,2.47,2.47,0,0,0-.77-0.48,2.84,2.84,0,0,0-1-.2,3.71,3.71,0,0,0-1.31.19,4.35,4.35,0,0,0-1.23.71l-1-1.87a8.58,8.58,0,0,1,1.88-1,6.35,6.35,0,0,1,2.38-.35,5.74,5.74,0,0,1,1.65.28,4.49,4.49,0,0,1,1.4.74,3.57,3.57,0,0,1,1,1.19,3.53,3.53,0,0,1,.36,1.63,6,6,0,0,1-.11,1.19,5.66,5.66,0,0,1-.34,1.09,7.28,7.28,0,0,1-.6,1.12q-0.37.57-.89,1.24-0.4.51-.87,1t-0.93,1c-0.31.31-.61,0.61-0.91,0.88s-0.57.5-.81,0.68l5.78,0.14C333.55,318.57,333.55,319,333.55,319.89Z"/><path class="cls-4" d="M336.65,322.3l8.91,0.16v2.14l-8.91-.16V322.3Z"/><path class="cls-4" d="M348.33,316.74a3.41,3.41,0,0,1,.23-1.28,3.92,3.92,0,0,1,.6-1,4.91,4.91,0,0,1,.85-0.82,8,8,0,0,1,1-.64,6.29,6.29,0,0,1-1.67-1.39,3,3,0,0,1-.66-2,3.18,3.18,0,0,1,.34-1.46,3.51,3.51,0,0,1,1-1.17,4.46,4.46,0,0,1,1.45-.76,5.74,5.74,0,0,1,1.82-.26,5.86,5.86,0,0,1,1.7.26,4.67,4.67,0,0,1,1.39.7,3.26,3.26,0,0,1,.94,1.08,2.9,2.9,0,0,1,.34,1.39,3.49,3.49,0,0,1-.61,2.05,5.26,5.26,0,0,1-1.68,1.5,6.3,6.3,0,0,1,1.92,1.48,3.25,3.25,0,0,1,.71,2.17,3.37,3.37,0,0,1-.39,1.63,3.89,3.89,0,0,1-1.05,1.24,4.9,4.9,0,0,1-1.56.79,6,6,0,0,1-1.9.27,6.21,6.21,0,0,1-1.87-.29,5,5,0,0,1-1.5-.77,3.53,3.53,0,0,1-1-1.17A3.23,3.23,0,0,1,348.33,316.74Zm7.14-.25a1.44,1.44,0,0,0-.26-0.86,2.86,2.86,0,0,0-.65-0.65,6.12,6.12,0,0,0-.86-0.52l-0.91-.48a3.85,3.85,0,0,0-1.54,1.11,2.14,2.14,0,0,0-.54,1.3,1.67,1.67,0,0,0,.64,1.4,2.91,2.91,0,0,0,1.79.51,2.81,2.81,0,0,0,1.68-.45A1.56,1.56,0,0,0,355.47,316.5Zm-4.31-6.75a1.48,1.48,0,0,0,.21.81,2.25,2.25,0,0,0,.54.59,4.37,4.37,0,0,0,.75.46l0.84,0.41a3.8,3.8,0,0,0,.63-0.39,3.45,3.45,0,0,0,.55-0.52,2.86,2.86,0,0,0,.39-0.6,1.41,1.41,0,0,0,.15-0.63,1.44,1.44,0,0,0-.18-0.73,1.82,1.82,0,0,0-.47-0.53,2.11,2.11,0,0,0-.65-0.34,2.56,2.56,0,0,0-.74-0.12,2.28,2.28,0,0,0-1.45.48,1.54,1.54,0,0,0-.42.52A1.32,1.32,0,0,0,351.16,309.74Z"/><path class="cls-4" d="M359.92,313.28a11.85,11.85,0,0,1,.38-3.19,6.52,6.52,0,0,1,1.08-2.26,4.42,4.42,0,0,1,1.66-1.34,5,5,0,0,1,2.15-.44,4.68,4.68,0,0,1,3.91,1.79q1.37,1.78,1.37,5.5a12,12,0,0,1-.38,3.21,6.64,6.64,0,0,1-1.08,2.28,4.36,4.36,0,0,1-1.67,1.35,5.08,5.08,0,0,1-2.16.44,4.55,4.55,0,0,1-3.91-1.9A9.26,9.26,0,0,1,359.92,313.28Zm2.61,0c0,0.2,0,.39,0,0.57s0,0.36,0,.55l4.86-4.43a2.26,2.26,0,0,0-2.25-1.73,2.13,2.13,0,0,0-2,1.22A8.14,8.14,0,0,0,362.53,313.3Zm5.34,0c0-.21,0-0.42,0-0.61s0-.38,0-0.57L363,316.58a2.31,2.31,0,0,0,2.25,1.84,2.15,2.15,0,0,0,2-1.21A8.15,8.15,0,0,0,367.87,313.33Z"/><path class="cls-4" d="M372,313.35a11.88,11.88,0,0,1,.38-3.19,6.56,6.56,0,0,1,1.08-2.27,4.46,4.46,0,0,1,1.66-1.35,5.06,5.06,0,0,1,2.15-.45,4.65,4.65,0,0,1,3.91,1.77q1.37,1.77,1.37,5.49a12,12,0,0,1-.38,3.21,6.68,6.68,0,0,1-1.08,2.28,4.41,4.41,0,0,1-1.67,1.36,5.12,5.12,0,0,1-2.16.45,4.52,4.52,0,0,1-3.91-1.87A9.22,9.22,0,0,1,372,313.35Zm2.61,0c0,0.2,0,.39,0,0.57s0,0.36,0,.55l4.86-4.46a2.25,2.25,0,0,0-2.25-1.72,2.15,2.15,0,0,0-2,1.23A8.17,8.17,0,0,0,374.57,313.35Zm5.34,0q0-.32,0-0.61c0-.19,0-0.38,0-0.57L375,316.63a2.29,2.29,0,0,0,2.25,1.82,2.17,2.17,0,0,0,2-1.22A8.17,8.17,0,0,0,379.9,313.35Z"/><path class="cls-4" d="M387.61,319.07a1.38,1.38,0,0,1,.45-1.08,1.66,1.66,0,0,1,1.13-.41,2,2,0,0,1,1.66.71,2.79,2.79,0,0,1,.56,1.78,3.8,3.8,0,0,1-.35,1.64,4.38,4.38,0,0,1-.91,1.29,5,5,0,0,1-1.25.89,5.15,5.15,0,0,1-1.37.47l-0.54-1.1a5.8,5.8,0,0,0,1-.35,3.91,3.91,0,0,0,.89-0.55,3.1,3.1,0,0,0,.67-0.77,2.13,2.13,0,0,0,.31-1,2.55,2.55,0,0,1-1,0,1.53,1.53,0,0,1-.69-0.31,1.31,1.31,0,0,1-.39-0.56A2.06,2.06,0,0,1,387.61,319.07Z"/><path class="cls-4" d="M400.25,318.32a4.14,4.14,0,0,0,1.21-.18,2.93,2.93,0,0,0,.94-0.49,2.35,2.35,0,0,0,.61-0.73,1.85,1.85,0,0,0,.22-0.89,1.88,1.88,0,0,0-.25-1,1.78,1.78,0,0,0-.69-0.64,3.3,3.3,0,0,0-1.06-.32,8.54,8.54,0,0,0-1.34-.08h-1.12v-1.44l3.37-4.15-5.07.06v-2.2l8.19-.1c0,0.73,0,1.09,0,1.82l-3.53,4.07h0.46a4,4,0,0,1,1.36.22,3.34,3.34,0,0,1,1.17.7,3.48,3.48,0,0,1,.82,1.19,4.54,4.54,0,0,1-.16,3.66,4.67,4.67,0,0,1-1.24,1.47,5.41,5.41,0,0,1-1.78.9,7.41,7.41,0,0,1-2.07.32,10.27,10.27,0,0,1-1.81-.14,8.65,8.65,0,0,1-1.75-.48l0.7-2.17a2.72,2.72,0,0,0,.49.19l0.7,0.19a7.62,7.62,0,0,0,.8.15A5.58,5.58,0,0,0,400.25,318.32Z"/><path class="cls-4" d="M409.72,322.16a7,7,0,0,0,1.48-.56,6.42,6.42,0,0,0,1.71-1.25,7,7,0,0,0,1.41-2.1,7.45,7.45,0,0,0,.58-3.11,8,8,0,0,0-.55-3.19,6.54,6.54,0,0,0-1.35-2.07,5.68,5.68,0,0,0-1.69-1.19,8.3,8.3,0,0,0-1.59-.54L410.2,306a9.79,9.79,0,0,1,2.73.89,7.9,7.9,0,0,1,2.35,1.77,8.47,8.47,0,0,1,1.63,2.72,10.31,10.31,0,0,1,.61,3.7,10.5,10.5,0,0,1-.61,3.73,8.68,8.68,0,0,1-1.63,2.75,8.2,8.2,0,0,1-2.35,1.83,9.47,9.47,0,0,1-2.73.93Z"/><path class="cls-4" d="M456.22,316.56l2.49-.1c0-2.24,0-3.36,0-5.6l-2.49.1c0-.88,0-1.32,0-2.2l4.51-.19,0.3,1.31h0.08a5.65,5.65,0,0,1,1.28-1.16,3.28,3.28,0,0,1,1.68-.51A2.17,2.17,0,0,1,466,309a4.68,4.68,0,0,1,.69,2.91l-2.35.11a2,2,0,0,0-.21-1,0.71,0.71,0,0,0-.67-0.3,2.06,2.06,0,0,0-1.29.46,4.28,4.28,0,0,0-.83,1v4.26l4.35-.19c0,0.88,0,1.32,0,2.2l-9.44.41C456.22,317.88,456.22,317.44,456.22,316.56Z"/><path class="cls-4" d="M478.17,316.68a3.82,3.82,0,0,1-.67.5,6.88,6.88,0,0,1-1,.48,7.66,7.66,0,0,1-1.21.38,7.94,7.94,0,0,1-1.4.19,6.66,6.66,0,0,1-2.3-.25,4.2,4.2,0,0,1-2.79-2.58,6.66,6.66,0,0,1,.05-4.52,4.93,4.93,0,0,1,1.15-1.71,5.12,5.12,0,0,1,1.71-1.07,6.83,6.83,0,0,1,2.12-.43,6.51,6.51,0,0,1,1.57.12,4.07,4.07,0,0,1,1.49.61,3.43,3.43,0,0,1,1.11,1.25,4.32,4.32,0,0,1,.43,2.06,9.63,9.63,0,0,1-.2,1.87l-7.22.36a2.23,2.23,0,0,0,.27,1.07,2,2,0,0,0,.66.69,2.72,2.72,0,0,0,.94.36,4.67,4.67,0,0,0,1.13.07,6,6,0,0,0,2-.38,4.46,4.46,0,0,0,1.25-.74Zm-4.33-6.92a3.4,3.4,0,0,0-1,.19,2.94,2.94,0,0,0-.83.46,2.44,2.44,0,0,0-.61.71,2.19,2.19,0,0,0-.28.93l4.93-.25A1.87,1.87,0,0,0,473.84,309.76Z"/><path class="cls-4" d="M490.44,316.11a6.13,6.13,0,0,1-1.92,1,8.65,8.65,0,0,1-2.3.44,6.4,6.4,0,0,1-2.32-.25,4.4,4.4,0,0,1-1.7-1,4.22,4.22,0,0,1-1.05-1.61,6.07,6.07,0,0,1-.36-2.14,5.8,5.8,0,0,1,.42-2.26,5.09,5.09,0,0,1,1.17-1.72,5.43,5.43,0,0,1,1.77-1.13,7.06,7.06,0,0,1,2.22-.47,8.08,8.08,0,0,1,2.1.14,9.22,9.22,0,0,1,1.5.41c0,1.41,0,2.11,0,3.52l-2.2.13c0-.74,0-1.1,0-1.84a5.54,5.54,0,0,0-1.24-.07,3.87,3.87,0,0,0-1.11.23,2.92,2.92,0,0,0-1,.59,3.06,3.06,0,0,0-.7,1,3.14,3.14,0,0,0-.27,1.35,3,3,0,0,0,.22,1.17,2.61,2.61,0,0,0,.62.91,2.64,2.64,0,0,0,1,.57,3.5,3.5,0,0,0,1.31.16,4.86,4.86,0,0,0,1.87-.43,7.92,7.92,0,0,0,1.09-.62Z"/><path class="cls-4" d="M498.13,306.6l3.73-.24c0,2.78,0,4.18,0,7v0.84l1.52-.1v2.2l-3.17.2L499.75,315h-0.08a3.86,3.86,0,0,1-1.38,1.35,4.41,4.41,0,0,1-2,.63,4.49,4.49,0,0,1-1.39-.12,2.31,2.31,0,0,1-1.07-.6,2.84,2.84,0,0,1-.68-1.2,6.6,6.6,0,0,1-.24-1.95c0-1.61,0-2.41,0-4l-1.14.07c0-.88,0-1.32,0-2.2l3.75-.22c0,2.27,0,3.41,0,5.68a3,3,0,0,0,.39,1.74,1.33,1.33,0,0,0,1.23.46,2.31,2.31,0,0,0,1.33-.52,2.59,2.59,0,0,0,.83-1.13c0-1.7,0-2.56,0-4.26l-1.12.07C498.13,307.92,498.13,307.48,498.13,306.6Z"/><path class="cls-4" d="M504.32,314l2.48-.16c0-2.24,0-3.36,0-5.6l-2.48.16c0-.88,0-1.32,0-2.2l4.51-.3,0.3,1.3h0.08a5.85,5.85,0,0,1,1.28-1.19,3.35,3.35,0,0,1,1.68-.56,2.12,2.12,0,0,1,1.89.75,4.6,4.6,0,0,1,.69,2.89l-2.34.16a1.93,1.93,0,0,0-.21-1,0.69,0.69,0,0,0-.67-0.28,2.11,2.11,0,0,0-1.29.49,4.45,4.45,0,0,0-.83,1v4.26l4.35-.3v2.2l-9.43.64C504.32,315.33,504.32,314.89,504.32,314Z"/><path class="cls-4" d="M524.66,319a8.77,8.77,0,0,1-2.72-.67,7.17,7.17,0,0,1-2.34-1.61,7.68,7.68,0,0,1-1.63-2.6,10,10,0,0,1-.61-3.68,10.78,10.78,0,0,1,.61-3.75,9.57,9.57,0,0,1,1.63-2.87,9,9,0,0,1,2.34-2,10.7,10.7,0,0,1,2.72-1.15l0.48,2.1a9,9,0,0,0-1.59.69,6.47,6.47,0,0,0-1.69,1.35,7.42,7.42,0,0,0-1.35,2.19,8.43,8.43,0,0,0-.55,3.24,7.1,7.1,0,0,0,.58,3.06,6.2,6.2,0,0,0,1.41,2,5.64,5.64,0,0,0,1.71,1.09,6.39,6.39,0,0,0,1.48.42Z"/><path class="cls-4" d="M529.69,312.18l3.06-.24c0-3.5,0-5.24,0-8.74l-2.64,2.23-1.2-1.51,4.56-3.84,1.76-.14c0,4.72,0,7.08,0,11.8l3-.25v2.2l-8.55.69v-2.2Z"/><path class="cls-4" d="M540.65,303.86A5.17,5.17,0,0,1,541,302a4.76,4.76,0,0,1,1-1.55,5.12,5.12,0,0,1,1.52-1.09,6.14,6.14,0,0,1,4-.36,3.81,3.81,0,0,1,1.58.87,4,4,0,0,1,1,1.57,6.36,6.36,0,0,1,.36,2.24,12.42,12.42,0,0,1-.6,4.05,9.27,9.27,0,0,1-1.61,2.94,7.89,7.89,0,0,1-2.35,1.93,10,10,0,0,1-2.8,1l-0.56-2a7.52,7.52,0,0,0,2-.71,6.75,6.75,0,0,0,1.55-1.12,5.88,5.88,0,0,0,1.08-1.43,4.92,4.92,0,0,0,.54-1.66,3.38,3.38,0,0,1-1.08.76,4.69,4.69,0,0,1-1.58.39h0a4.68,4.68,0,0,1-1.54-.13,3.68,3.68,0,0,1-2.44-1.94A4,4,0,0,1,540.65,303.86Zm2.52-.35a2.12,2.12,0,0,0,.21,1,1.94,1.94,0,0,0,.55.67,2.11,2.11,0,0,0,.79.37,2.84,2.84,0,0,0,.93.07,3.76,3.76,0,0,0,1.42-.38,2.37,2.37,0,0,0,.88-0.72,5.76,5.76,0,0,0,.06-0.81,3.71,3.71,0,0,0-.16-1.09,2.67,2.67,0,0,0-.48-0.92,2.08,2.08,0,0,0-.8-0.6,2.24,2.24,0,0,0-1.1-.15A2.46,2.46,0,0,0,543.17,303.51Z"/><path class="cls-4" d="M553.14,314.73l8.88-.83c0,0.86,0,1.28,0,2.14l-8.88.83C553.14,316,553.14,315.58,553.14,314.73Z"/><path class="cls-4" d="M564.65,301.68a5.2,5.2,0,0,1,.35-1.91,4.84,4.84,0,0,1,1-1.57,5.21,5.21,0,0,1,1.52-1.11,5.77,5.77,0,0,1,2-.55,5.66,5.66,0,0,1,2,.14,3.75,3.75,0,0,1,1.58.85,4,4,0,0,1,1,1.56,6.32,6.32,0,0,1,.36,2.23,12.49,12.49,0,0,1-.6,4.06,9.42,9.42,0,0,1-1.61,3,8,8,0,0,1-2.35,2,10.07,10.07,0,0,1-2.8,1l-0.56-2a7.59,7.59,0,0,0,2-.74,6.87,6.87,0,0,0,1.55-1.14,6,6,0,0,0,1.08-1.45,5,5,0,0,0,.54-1.66,3.44,3.44,0,0,1-1.08.78,4.72,4.72,0,0,1-1.58.41h0a4.66,4.66,0,0,1-1.54-.11,3.61,3.61,0,0,1-2.44-1.91A4,4,0,0,1,564.65,301.68Zm2.52-.39a2.1,2.1,0,0,0,.21,1,1.91,1.91,0,0,0,.55.67,2.08,2.08,0,0,0,.79.36,2.82,2.82,0,0,0,.93.06,3.79,3.79,0,0,0,1.42-.4,2.41,2.41,0,0,0,.88-0.73,5.8,5.8,0,0,0,.06-0.81,3.7,3.7,0,0,0-.16-1.08,2.63,2.63,0,0,0-.48-0.91,2,2,0,0,0-.8-0.59,2.23,2.23,0,0,0-1.1-.14A2.49,2.49,0,0,0,567.17,301.3Z"/><path class="cls-4" d="M580.3,307.71a4.67,4.67,0,0,0,1.22-.29,3.47,3.47,0,0,0,1-.56,2.49,2.49,0,0,0,.64-0.81,2.29,2.29,0,0,0,.23-1,1.8,1.8,0,0,0-.87-1.64,4.19,4.19,0,0,0-2.61-.35l-0.51.06-0.55.09-0.62.08c0-2.93,0-4.39,0-7.32l7.23-.77c0,1,0,1.46,0,2.44l-5,.53c0,1.08,0,1.62,0,2.7l0.32-.05,0.27,0,0.23,0a5.61,5.61,0,0,1,1.86.09,3.69,3.69,0,0,1,1.5.71,3.4,3.4,0,0,1,1,1.3,4.4,4.4,0,0,1,.35,1.79,4.94,4.94,0,0,1-.44,2.12,5,5,0,0,1-1.2,1.62,6.12,6.12,0,0,1-1.76,1.1,7.58,7.58,0,0,1-2.14.54,5.19,5.19,0,0,1-.94,0c-0.33,0-.66-0.07-1-0.12a7.85,7.85,0,0,1-.89-0.2q-0.41-.12-0.69-0.23l0.84-2.17a5.34,5.34,0,0,0,1,.33A4.44,4.44,0,0,0,580.3,307.71Z"/><path class="cls-4" d="M588.75,305.4a3.65,3.65,0,0,1,.23-1.31,4.59,4.59,0,0,1,.6-1.11,5.89,5.89,0,0,1,.85-0.92,9.46,9.46,0,0,1,1-.76,5.25,5.25,0,0,1-1.66-1.19,2.72,2.72,0,0,1-.66-1.92,3.46,3.46,0,0,1,.34-1.5,4.19,4.19,0,0,1,.95-1.28,5.21,5.21,0,0,1,1.45-.94,6.11,6.11,0,0,1,1.82-.48,5.62,5.62,0,0,1,1.69.05,4.06,4.06,0,0,1,1.39.52,2.72,2.72,0,0,1,.94,1,2.67,2.67,0,0,1,.34,1.35,3.86,3.86,0,0,1-.61,2.13,6.29,6.29,0,0,1-1.67,1.71,5.26,5.26,0,0,1,1.91,1.24,2.93,2.93,0,0,1,.71,2.08,3.68,3.68,0,0,1-.39,1.67,4.64,4.64,0,0,1-1,1.37,5.7,5.7,0,0,1-1.55,1,6.44,6.44,0,0,1-1.89.5,5.94,5.94,0,0,1-1.86-.06,4.35,4.35,0,0,1-1.5-.58,2.94,2.94,0,0,1-1-1.05A3,3,0,0,1,588.75,305.4Zm7.11-1.13a1.3,1.3,0,0,0-.26-0.83,2.38,2.38,0,0,0-.65-0.57,5.17,5.17,0,0,0-.86-0.41l-0.91-.37a4.58,4.58,0,0,0-1.54,1.3,2.42,2.42,0,0,0-.54,1.37,1.46,1.46,0,0,0,.64,1.32,2.66,2.66,0,0,0,1.78.29,3.11,3.11,0,0,0,1.68-.66A1.78,1.78,0,0,0,595.86,304.27ZM591.57,298a1.37,1.37,0,0,0,.21.79,1.88,1.88,0,0,0,.54.52,3.73,3.73,0,0,0,.75.37L593.9,300a4.48,4.48,0,0,0,.63-0.47,4.14,4.14,0,0,0,.55-0.59,3.38,3.38,0,0,0,.39-0.64,1.54,1.54,0,0,0,.15-0.65,1.33,1.33,0,0,0-.18-0.71,1.51,1.51,0,0,0-.47-0.48,1.83,1.83,0,0,0-.65-0.26,2.53,2.53,0,0,0-1.55.2,2.66,2.66,0,0,0-.64.43,1.84,1.84,0,0,0-.42.57A1.44,1.44,0,0,0,591.57,298Z"/><path class="cls-4" d="M601.09,309.77l8.86-1c0,0.86,0,1.28,0,2.14l-8.86,1C601.09,311.05,601.09,310.63,601.09,309.77Z"/><path class="cls-4" d="M623,300.86l-2.39.3v3.9l-2.41.3v-3.9l-6,.75v-1.78l6.32-9.2,2.13-.27c0,3.25,0,4.87,0,8.12l2.39-.3v2.08Zm-4.81-5.91-3.47,4.87,3.47-.43C618.21,297.61,618.21,296.72,618.21,294.95Z"/><path class="cls-4" d="M624.23,297.59a12.53,12.53,0,0,1,.38-3.24,7.64,7.64,0,0,1,1.07-2.41,5.37,5.37,0,0,1,1.65-1.56,5.52,5.52,0,0,1,2.14-.73,4.07,4.07,0,0,1,3.88,1.26q1.36,1.59,1.36,5.31a12.68,12.68,0,0,1-.38,3.26,7.77,7.77,0,0,1-1.07,2.42,5.3,5.3,0,0,1-1.66,1.58,5.57,5.57,0,0,1-2.15.73,3.94,3.94,0,0,1-3.88-1.37Q624.23,301.15,624.23,297.59Zm2.59-.33c0,0.2,0,.39,0,0.57s0,0.36,0,.55l4.82-5.09a1.92,1.92,0,0,0-2.23-1.43,2.52,2.52,0,0,0-1.95,1.48A8.81,8.81,0,0,0,626.83,297.25Zm5.3-.69q0-.32,0-0.61c0-.19,0-0.38,0-0.57l-4.84,5.09a2,2,0,0,0,2.23,1.53,2.54,2.54,0,0,0,2-1.48A8.82,8.82,0,0,0,632.13,296.56Z"/><path class="cls-4" d="M636.19,296a12.56,12.56,0,0,1,.38-3.24,7.68,7.68,0,0,1,1.07-2.42,5.41,5.41,0,0,1,1.65-1.57,5.55,5.55,0,0,1,2.14-.74,4,4,0,0,1,3.88,1.23q1.36,1.58,1.36,5.3a12.71,12.71,0,0,1-.38,3.26,7.82,7.82,0,0,1-1.07,2.43,5.35,5.35,0,0,1-1.66,1.59,5.59,5.59,0,0,1-2.15.75,3.91,3.91,0,0,1-3.88-1.34Q636.19,299.58,636.19,296Zm2.59-.35c0,0.2,0,.39,0,0.57s0,0.36,0,.55l4.82-5.12a1.9,1.9,0,0,0-2.23-1.41,2.53,2.53,0,0,0-1.95,1.5A8.84,8.84,0,0,0,638.78,295.67Zm5.3-.73q0-.32,0-0.61c0-.19,0-0.38,0-0.57l-4.84,5.13a1.94,1.94,0,0,0,2.23,1.52,2.56,2.56,0,0,0,2-1.49A8.85,8.85,0,0,0,644.08,294.94Z"/><path class="cls-4" d="M651.73,299.6a1.59,1.59,0,0,1,.45-1.14,1.89,1.89,0,0,1,1.13-.56,1.72,1.72,0,0,1,1.65.48,2.5,2.5,0,0,1,.56,1.7,4.14,4.14,0,0,1-.35,1.69,5.3,5.3,0,0,1-.9,1.41,6.07,6.07,0,0,1-1.24,1.06,5.87,5.87,0,0,1-1.36.66l-0.54-1a6.68,6.68,0,0,0,1-.48,4.71,4.71,0,0,0,.89-0.68,3.78,3.78,0,0,0,.67-0.87,2.41,2.41,0,0,0,.31-1,2.61,2.61,0,0,1-1,.18,1.32,1.32,0,0,1-.69-0.22,1.08,1.08,0,0,1-.39-0.51A1.94,1.94,0,0,1,651.73,299.6Z"/><path class="cls-4" d="M669.74,298.23l-8.87,1.33c0-.78,0-1.16,0-1.94l0.6-.62,0.81-.87q0.45-.49.95-1.06t1-1.19q0.68-.86,1.18-1.56a12,12,0,0,0,.84-1.3,5.72,5.72,0,0,0,.49-1.15,4,4,0,0,0,.16-1.11,1.64,1.64,0,0,0-.18-0.75,1.71,1.71,0,0,0-.5-0.6,2,2,0,0,0-.77-0.35,2.65,2.65,0,0,0-1,0,4.09,4.09,0,0,0-1.3.42,5.46,5.46,0,0,0-1.22.92l-1-1.69a10.67,10.67,0,0,1,1.86-1.29,7,7,0,0,1,2.36-.76,5.42,5.42,0,0,1,1.64,0,3.66,3.66,0,0,1,1.39.5,2.77,2.77,0,0,1,1,1,3.18,3.18,0,0,1,.36,1.57,6.38,6.38,0,0,1-.11,1.21,6.58,6.58,0,0,1-.34,1.15,9,9,0,0,1-.6,1.22q-0.37.64-.89,1.39-0.4.58-.87,1.18T665.72,295q-0.46.55-.91,1t-0.81.82l5.73-.86v2.2Z"/><path class="cls-4" d="M673.66,299.69a8,8,0,0,0,1.47-.76,7.78,7.78,0,0,0,1.7-1.49,8.47,8.47,0,0,0,1.4-2.29,8.09,8.09,0,0,0,.58-3.19,7.54,7.54,0,0,0-.55-3.11,5.42,5.42,0,0,0-1.34-1.88,4.68,4.68,0,0,0-1.68-1,7.38,7.38,0,0,0-1.58-.33l0.48-2.21a8.74,8.74,0,0,1,2.7.52,6.49,6.49,0,0,1,2.33,1.46,7.07,7.07,0,0,1,1.62,2.49,9.71,9.71,0,0,1,.61,3.61,11.29,11.29,0,0,1-.61,3.82,10.38,10.38,0,0,1-1.62,3,10,10,0,0,1-2.33,2.14,10.76,10.76,0,0,1-2.7,1.3Z"/><path class="cls-4" d="M69.7,245l2.59,0.41v-5.88l-2.59-.41c0-.92,0-1.39,0-2.31l4.7,0.74,0.31,1.43h0.08a4.43,4.43,0,0,1,1.34-.95,3,3,0,0,1,1.75-.19,2.84,2.84,0,0,1,2,1.23,5.65,5.65,0,0,1,.72,3.2l-2.44-.37a2.33,2.33,0,0,0-.22-1.14,0.92,0.92,0,0,0-.7-0.45,1.85,1.85,0,0,0-1.35.21,3.36,3.36,0,0,0-.87.83v4.47l4.53,0.7v2.31c-3.93-.6-5.9-0.91-9.83-1.53C69.7,246.34,69.7,245.88,69.7,245Z"/><path class="cls-4" d="M92.56,249.63a3.08,3.08,0,0,1-.7.39,5.88,5.88,0,0,1-1,.3,7.14,7.14,0,0,1-1.26.15,8.08,8.08,0,0,1-1.46-.09,7.77,7.77,0,0,1-2.39-.74,5.8,5.8,0,0,1-2.9-3.28,7,7,0,0,1-.39-2.38,5.71,5.71,0,0,1,.44-2.36,3.93,3.93,0,0,1,1.2-1.55,4.19,4.19,0,0,1,1.79-.77,6.64,6.64,0,0,1,2.21,0,7.45,7.45,0,0,1,1.64.45,5.35,5.35,0,0,1,1.56,1,4.8,4.8,0,0,1,1.16,1.55,5.12,5.12,0,0,1,.45,2.25,9.62,9.62,0,0,1-.21,1.92l-7.52-1.11a2.69,2.69,0,0,0,.28,1.18,2.79,2.79,0,0,0,.69.86,3.55,3.55,0,0,0,1,.58,5.32,5.32,0,0,0,1.18.31,5.86,5.86,0,0,0,2.06,0,3.66,3.66,0,0,0,1.31-.52Zm-4.51-8.16a3.33,3.33,0,0,0-1,0,2.43,2.43,0,0,0-.87.31,1.91,1.91,0,0,0-.64.62,2,2,0,0,0-.29.92l5.14,0.76a2.64,2.64,0,0,0-.57-1.74A2.68,2.68,0,0,0,88.05,241.47Z"/><path class="cls-4" d="M105.36,251.57a5.15,5.15,0,0,1-2,.7,8.53,8.53,0,0,1-2.4,0,7.44,7.44,0,0,1-2.41-.74,6,6,0,0,1-1.78-1.38,5.75,5.75,0,0,1-1.1-1.91,7,7,0,0,1-.38-2.32,5.49,5.49,0,0,1,.44-2.29A4,4,0,0,1,96.94,242a4.44,4.44,0,0,1,1.85-.82,6.86,6.86,0,0,1,2.32,0,9.26,9.26,0,0,1,2.2.58,11.87,11.87,0,0,1,1.57.75v3.7l-2.3-.32V244a6.33,6.33,0,0,0-1.3-.33,3.75,3.75,0,0,0-1.16,0,2.35,2.35,0,0,0-1.76,1.29,3,3,0,0,0-.28,1.37,3.55,3.55,0,0,0,.88,2.35,3.61,3.61,0,0,0,1,.81,4.09,4.09,0,0,0,1.37.44,4.66,4.66,0,0,0,2-.06,6.67,6.67,0,0,0,1.14-.43Z"/><path class="cls-4" d="M113.39,243.18l3.89,0.52v8.19l1.59,0.21v2.31l-3.31-.44-0.48-1.62H115a3,3,0,0,1-1.44,1.13,4.08,4.08,0,0,1-2.13.24,5.18,5.18,0,0,1-1.45-.41,3.15,3.15,0,0,1-1.12-.85,3.81,3.81,0,0,1-.71-1.4,7.51,7.51,0,0,1-.25-2.09v-4.22l-1.19-.17v-2.31l3.91,0.54v6a3.53,3.53,0,0,0,.41,1.9,1.72,1.72,0,0,0,1.29.74,2.1,2.1,0,0,0,2.26-1.29v-4.47l-1.17-.16v-2.31Z"/><path class="cls-4" d="M119.86,252.23l2.6,0.34c0-2.35,0-3.53,0-5.88l-2.6-.34c0-.92,0-1.39,0-2.31l4.71,0.62,0.31,1.43H125a4.61,4.61,0,0,1,1.34-1,3.06,3.06,0,0,1,1.76-.24,2.75,2.75,0,0,1,2,1.18,5.54,5.54,0,0,1,.72,3.18l-2.45-.31a2.28,2.28,0,0,0-.22-1.13,0.89,0.89,0,0,0-.7-0.44,1.89,1.89,0,0,0-1.35.25,3.5,3.5,0,0,0-.87.85c0,1.79,0,2.68,0,4.47l4.54,0.58v2.31c-3.95-.5-5.92-0.76-9.86-1.28C119.86,253.62,119.86,253.16,119.86,252.23Z"/><path class="cls-4" d="M141.13,261.69a10.89,10.89,0,0,1-2.85-1.27,9.93,9.93,0,0,1-2.45-2.17,10.41,10.41,0,0,1-1.71-3.07,11.63,11.63,0,0,1-.64-4,10.33,10.33,0,0,1,.64-3.82,7.73,7.73,0,0,1,1.71-2.68,7.14,7.14,0,0,1,2.45-1.61,9.42,9.42,0,0,1,2.85-.64l0.5,2.31a7.88,7.88,0,0,0-1.66.4,5.17,5.17,0,0,0-1.77,1.07,5.94,5.94,0,0,0-1.41,2,8,8,0,0,0-.58,3.29,8.32,8.32,0,0,0,.61,3.33,8.51,8.51,0,0,0,1.48,2.35,7.79,7.79,0,0,0,1.79,1.5,8.12,8.12,0,0,0,1.55.74Z"/><path class="cls-4" d="M146.39,255.55l3.21,0.38c0-3.67,0-5.51,0-9.18l-2.77,1.8-1.26-1.83,4.78-3.09,1.85,0.21c0,5,0,7.43,0,12.39l3.14,0.36v2.31l-8.95-1v-2.31Z"/><path class="cls-4" d="M157.88,249.09a4.89,4.89,0,0,1,.37-1.93,3.82,3.82,0,0,1,1-1.43,4.15,4.15,0,0,1,1.59-.83,5.46,5.46,0,0,1,2.09-.14,6.57,6.57,0,0,1,2.14.59,5.21,5.21,0,0,1,1.66,1.24,5.48,5.48,0,0,1,1.07,1.86,7.32,7.32,0,0,1,.38,2.42,11.94,11.94,0,0,1-.63,4.13,7.56,7.56,0,0,1-1.69,2.76,6.29,6.29,0,0,1-2.46,1.54,9.07,9.07,0,0,1-2.94.47l-0.59-2.21a6.78,6.78,0,0,0,2.09-.34,5.44,5.44,0,0,0,1.63-.86,4.65,4.65,0,0,0,1.13-1.28,4.34,4.34,0,0,0,.57-1.63,2.74,2.74,0,0,1-1.13.58,4.49,4.49,0,0,1-1.66.08h0a5.41,5.41,0,0,1-1.61-.45,5.07,5.07,0,0,1-1.48-1,5.14,5.14,0,0,1-1.08-1.54A4.74,4.74,0,0,1,157.88,249.09Zm2.64,0.15a2.5,2.5,0,0,0,.22,1.06,2.7,2.7,0,0,0,.58.82,2.85,2.85,0,0,0,.83.55,3.27,3.27,0,0,0,1,.26,3.55,3.55,0,0,0,1.49-.11,1.89,1.89,0,0,0,.92-0.57,5.8,5.8,0,0,0,.06-0.83,4.25,4.25,0,0,0-.17-1.17,3.52,3.52,0,0,0-.5-1.06,2.92,2.92,0,0,0-.84-0.79,2.68,2.68,0,0,0-1.15-.39A2.05,2.05,0,0,0,160.52,249.23Z"/><path class="cls-4" d="M171,263.07l9.32,1v2.25l-9.32-1v-2.25Z"/><path class="cls-4" d="M183,251.75a4.92,4.92,0,0,1,.37-1.94,3.89,3.89,0,0,1,1-1.44,4.21,4.21,0,0,1,1.59-.85,5.49,5.49,0,0,1,2.09-.16,6.52,6.52,0,0,1,2.14.56,5.1,5.1,0,0,1,1.66,1.22A5.39,5.39,0,0,1,193,251a7.27,7.27,0,0,1,.38,2.42,12,12,0,0,1-.63,4.14,7.7,7.7,0,0,1-1.69,2.78,6.41,6.41,0,0,1-2.47,1.57,9.13,9.13,0,0,1-2.94.51l-0.59-2.2a6.84,6.84,0,0,0,2.09-.36,5.56,5.56,0,0,0,1.63-.88,4.75,4.75,0,0,0,1.13-1.3,4.39,4.39,0,0,0,.57-1.64,2.79,2.79,0,0,1-1.13.59,4.51,4.51,0,0,1-1.66.1h0a5.37,5.37,0,0,1-1.62-.43,5,5,0,0,1-1.48-1,5.07,5.07,0,0,1-1.08-1.52A4.7,4.7,0,0,1,183,251.75Zm2.64,0.11a2.48,2.48,0,0,0,.22,1.06,2.65,2.65,0,0,0,.58.81,2.78,2.78,0,0,0,.83.54,3.26,3.26,0,0,0,1,.25,3.57,3.57,0,0,0,1.49-.13,1.93,1.93,0,0,0,.92-0.58,5.81,5.81,0,0,0,.06-0.83,4.21,4.21,0,0,0-.17-1.17,3.48,3.48,0,0,0-.5-1.06,2.85,2.85,0,0,0-.84-0.78,2.65,2.65,0,0,0-1.15-.37A2.08,2.08,0,0,0,185.69,251.86Z"/><path class="cls-4" d="M199.49,261.29a4.52,4.52,0,0,0,1.28-.05,2.89,2.89,0,0,0,1-.39,2,2,0,0,0,.67-0.72,2.1,2.1,0,0,0,.24-1,2.34,2.34,0,0,0-.91-1.9,5,5,0,0,0-2.74-.91l-0.54,0-0.58,0-0.65,0v-7.69l7.6,0.68v2.56l-5.25-.47v2.83h0.86a6.41,6.41,0,0,1,2,.48,5,5,0,0,1,1.58,1.05,4.68,4.68,0,0,1,1,1.57,5.15,5.15,0,0,1,.37,2,4.59,4.59,0,0,1-.46,2.13,4,4,0,0,1-1.26,1.45,5.09,5.09,0,0,1-1.85.79,7.34,7.34,0,0,1-2.25.12,5.82,5.82,0,0,1-1-.18q-0.52-.14-1-0.32a9.94,9.94,0,0,1-.93-0.39c-0.29-.14-0.53-0.27-0.72-0.38l0.88-2.1a7,7,0,0,0,1.1.56A5.1,5.1,0,0,0,199.49,261.29Z"/><path class="cls-4" d="M208.37,260.6a3.45,3.45,0,0,1,.24-1.32,3.75,3.75,0,0,1,.63-1,4.64,4.64,0,0,1,.89-0.79,7.64,7.64,0,0,1,1-.6,7.31,7.31,0,0,1-1.74-1.59,3.39,3.39,0,0,1-.69-2.15,3.19,3.19,0,0,1,.36-1.5,3.32,3.32,0,0,1,1-1.15,4.29,4.29,0,0,1,1.52-.69,5.88,5.88,0,0,1,1.91-.13,6.37,6.37,0,0,1,1.78.4,5.34,5.34,0,0,1,1.46.83,3.8,3.8,0,0,1,1,1.2,3.2,3.2,0,0,1,.36,1.49,3.47,3.47,0,0,1-.64,2.11,5,5,0,0,1-1.75,1.45,7.3,7.3,0,0,1,2,1.7,3.64,3.64,0,0,1,.75,2.33,3.38,3.38,0,0,1-.41,1.68,3.66,3.66,0,0,1-1.1,1.22,4.71,4.71,0,0,1-1.63.72,6.18,6.18,0,0,1-2,.14,6.79,6.79,0,0,1-2-.45,5.79,5.79,0,0,1-1.58-.92,4.11,4.11,0,0,1-1.05-1.31A3.55,3.55,0,0,1,208.37,260.6Zm7.48,0.27a1.6,1.6,0,0,0-.27-0.92,3.38,3.38,0,0,0-.68-0.73,7.15,7.15,0,0,0-.9-0.61l-1-.57a3.64,3.64,0,0,0-1.62,1.05,2.09,2.09,0,0,0-.57,1.33,1.89,1.89,0,0,0,.67,1.52,3.23,3.23,0,0,0,1.87.67,2.8,2.8,0,0,0,1.77-.35A1.51,1.51,0,0,0,215.85,260.88Zm-4.52-7.41a1.65,1.65,0,0,0,.22.87,2.65,2.65,0,0,0,.57.66,5.07,5.07,0,0,0,.79.54l0.88,0.49a3.62,3.62,0,0,0,.66-0.36,3.21,3.21,0,0,0,.58-0.51,2.77,2.77,0,0,0,.41-0.6,1.42,1.42,0,0,0,.16-0.65,1.58,1.58,0,0,0-.19-0.78,2.1,2.1,0,0,0-.49-0.6,2.39,2.39,0,0,0-.68-0.4,2.77,2.77,0,0,0-.78-0.18,2.32,2.32,0,0,0-.85.08,2.17,2.17,0,0,0-.67.32,1.46,1.46,0,0,0-.44.51A1.32,1.32,0,0,0,211.33,253.47Z"/><path class="cls-4" d="M221.36,267.73l9.33,0.72v2.25l-9.33-.72v-2.25Z"/><path class="cls-4" d="M244.46,262.88l-2.52-.17v4.09l-2.54-.18v-4.09l-6.37-.46V260.2l6.66-8.36,2.25,0.16v8.52l2.52,0.17v2.18Zm-5.07-7.2-3.66,4.4,3.66,0.26v-4.66Z"/><path class="cls-4" d="M245.74,259.69a12.21,12.21,0,0,1,.4-3.32,6.38,6.38,0,0,1,1.13-2.31,4.27,4.27,0,0,1,1.74-1.3,5.12,5.12,0,0,1,2.26-.33,5.23,5.23,0,0,1,4.1,2.12q1.44,1.95,1.44,5.85a12.31,12.31,0,0,1-.4,3.35,6.53,6.53,0,0,1-1.13,2.32,4.22,4.22,0,0,1-1.75,1.32,5.16,5.16,0,0,1-2.27.33,5.09,5.09,0,0,1-4.1-2.23A10.15,10.15,0,0,1,245.74,259.69Zm2.73,0.18q0,0.31,0,.6c0,0.19,0,.38,0,0.58l5.09-4.36a2.55,2.55,0,0,0-2.36-2,2.08,2.08,0,0,0-2.05,1.16A8.28,8.28,0,0,0,248.48,259.87Zm5.59,0.36c0-.22,0-0.44,0-0.64s0-.4,0-0.6l-5.11,4.36a2.6,2.6,0,0,0,2.36,2.06,2.11,2.11,0,0,0,2.07-1.15A8.29,8.29,0,0,0,254.07,260.23Z"/><path class="cls-4" d="M258.36,260.49a12.27,12.27,0,0,1,.4-3.33,6.43,6.43,0,0,1,1.13-2.31,4.31,4.31,0,0,1,1.74-1.31,5.14,5.14,0,0,1,2.26-.34,5.19,5.19,0,0,1,4.1,2.09q1.44,1.94,1.44,5.84a12.34,12.34,0,0,1-.4,3.35,6.58,6.58,0,0,1-1.13,2.33,4.27,4.27,0,0,1-1.75,1.33,5.19,5.19,0,0,1-2.27.34,5.05,5.05,0,0,1-4.1-2.2A10.1,10.1,0,0,1,258.36,260.49Zm2.74,0.16q0,0.31,0,.6c0,0.19,0,.38,0,0.58l5.09-4.39a2.53,2.53,0,0,0-2.36-1.94,2.1,2.1,0,0,0-2.06,1.17A8.31,8.31,0,0,0,261.1,260.65Zm5.6,0.32c0-.22,0-0.44,0-0.64s0-.4,0-0.6l-5.11,4.39a2.58,2.58,0,0,0,2.36,2A2.13,2.13,0,0,0,266,265,8.32,8.32,0,0,0,266.69,261Z"/><path class="cls-4" d="M274.77,267.44a1.36,1.36,0,0,1,.47-1.11,1.65,1.65,0,0,1,1.19-.36,2.2,2.2,0,0,1,1.75.85,3.08,3.08,0,0,1,.59,1.9,3.85,3.85,0,0,1-.37,1.7,4.24,4.24,0,0,1-1,1.3,4.86,4.86,0,0,1-1.32.86,5.14,5.14,0,0,1-1.44.41l-0.57-1.19a5.89,5.89,0,0,0,1-.3,3.84,3.84,0,0,0,.94-0.53,3,3,0,0,0,.71-0.77,2.13,2.13,0,0,0,.33-1,2.68,2.68,0,0,1-1.07,0,1.72,1.72,0,0,1-.73-0.37,1.48,1.48,0,0,1-.41-0.61A2.22,2.22,0,0,1,274.77,267.44Z"/><path class="cls-4" d="M293.82,269.68l-9.39-.42v-2l0.63-.53,0.85-.75q0.47-.42,1-0.92t1-1q0.72-.76,1.25-1.39a9.74,9.74,0,0,0,.88-1.19,4.81,4.81,0,0,0,.51-1.11,3.87,3.87,0,0,0,.17-1.14,1.94,1.94,0,0,0-.19-0.83,2.37,2.37,0,0,0-.53-0.73,2.68,2.68,0,0,0-.81-0.52,3,3,0,0,0-1-.23,3.85,3.85,0,0,0-1.38.17,4.44,4.44,0,0,0-1.3.72l-1.09-2a8.79,8.79,0,0,1,2-1,6.61,6.61,0,0,1,2.49-.32,6.11,6.11,0,0,1,1.74.33,4.82,4.82,0,0,1,1.47.81,3.85,3.85,0,0,1,1,1.27,3.76,3.76,0,0,1,.38,1.72,6.34,6.34,0,0,1-.12,1.25A5.88,5.88,0,0,1,293,261a7.48,7.48,0,0,1-.63,1.16q-0.39.59-.94,1.28-0.42.53-.92,1.06t-1,1q-0.48.48-1,.9t-0.85.7l6.06,0.27v2.31Z"/><path class="cls-4" d="M298,272a6.93,6.93,0,0,0,1.56-.49,6.23,6.23,0,0,0,1.8-1.21,6.83,6.83,0,0,0,1.48-2.12,7.59,7.59,0,0,0,.61-3.23,8.68,8.68,0,0,0-.58-3.38,7.41,7.41,0,0,0-1.42-2.25,6.45,6.45,0,0,0-1.78-1.35,9.15,9.15,0,0,0-1.67-.67l0.51-2.23a10.86,10.86,0,0,1,2.86,1.1,9,9,0,0,1,2.46,2,9.59,9.59,0,0,1,1.72,3,11.12,11.12,0,0,1,.64,3.92,10.72,10.72,0,0,1-.64,3.88,8.48,8.48,0,0,1-1.72,2.79,7.92,7.92,0,0,1-2.46,1.78,9.44,9.44,0,0,1-2.86.81Z"/><path class="cls-4" d="M398.47,256.63l8.32-.11v2.31l-5.71.08c0,6,0,8.94,0,14.91l5.71-.08v2.31l-8.32.11C398.47,268.35,398.47,264.44,398.47,256.63Z"/><path class="cls-4" d="M413.78,262.11a1.54,1.54,0,0,1,.46-1.17,2,2,0,0,1,2.49,0,1.48,1.48,0,0,1,.46,1.16,1.58,1.58,0,0,1-.46,1.19,1.79,1.79,0,0,1-1.26.47,1.67,1.67,0,0,1-1.22-.42A1.52,1.52,0,0,1,413.78,262.11Zm0,7.6a1.54,1.54,0,0,1,.46-1.17,2,2,0,0,1,2.49,0,1.49,1.49,0,0,1,.46,1.16,1.58,1.58,0,0,1-.46,1.19,1.79,1.79,0,0,1-1.26.47,1.67,1.67,0,0,1-1.22-.42A1.52,1.52,0,0,1,413.78,269.72Z"/><path class="cls-4" d="M422.63,268.61l2.61-.06c0-2.35,0-3.53,0-5.88l-2.61.06v-2.31l4.74-.12,0.32,1.38h0.08a5.78,5.78,0,0,1,1.35-1.19,3.4,3.4,0,0,1,1.77-.51,2.33,2.33,0,0,1,2,.87,5,5,0,0,1,.73,3.07l-2.46.07a2.08,2.08,0,0,0-.22-1.1,0.75,0.75,0,0,0-.71-0.33,2.13,2.13,0,0,0-1.36.46,4.41,4.41,0,0,0-.87,1v4.47l4.57-.12v2.31c-4,.11-6,0.16-9.92.26v-2.31Z"/><path class="cls-4" d="M445.69,269.13a3.93,3.93,0,0,1-.7.52,7.08,7.08,0,0,1-1,.49,8.07,8.07,0,0,1-1.27.38,8.35,8.35,0,0,1-1.47.17,7.05,7.05,0,0,1-2.41-.3,4.51,4.51,0,0,1-2.93-2.76,6.37,6.37,0,0,1-.39-2.31,6.26,6.26,0,0,1,.44-2.44,5.07,5.07,0,0,1,1.21-1.77A5.28,5.28,0,0,1,439,260a7.11,7.11,0,0,1,2.23-.42,6.87,6.87,0,0,1,1.65.16,4.35,4.35,0,0,1,1.57.67,3.69,3.69,0,0,1,1.17,1.33,4.57,4.57,0,0,1,.45,2.17,10.11,10.11,0,0,1-.21,2l-7.58.25a2.36,2.36,0,0,0,.28,1.12,2.15,2.15,0,0,0,.7.73,2.89,2.89,0,0,0,1,.4,5,5,0,0,0,1.19.1,6.24,6.24,0,0,0,2.07-.36,4.58,4.58,0,0,0,1.32-.76Zm-4.55-7.34a3.54,3.54,0,0,0-1,.18,3,3,0,0,0-.87.47,2.52,2.52,0,0,0-.64.74,2.27,2.27,0,0,0-.29,1l5.18-.17A2,2,0,0,0,441.14,261.79Z"/><path class="cls-4" d="M458.57,268.74a6.32,6.32,0,0,1-2,1.06,9,9,0,0,1-2.42.42,6.74,6.74,0,0,1-2.43-.31,4.71,4.71,0,0,1-1.79-1.06,4.54,4.54,0,0,1-1.11-1.71,6.4,6.4,0,0,1-.38-2.25,6,6,0,0,1,.44-2.37,5.2,5.2,0,0,1,1.23-1.79,5.58,5.58,0,0,1,1.86-1.15,7.37,7.37,0,0,1,2.34-.46,8.53,8.53,0,0,1,2.21.18,10,10,0,0,1,1.58.46c0,1.48,0,2.22,0,3.7l-2.32.09v-1.93a5.88,5.88,0,0,0-1.31-.09,4,4,0,0,0-1.17.22,3,3,0,0,0-1,.61,3.13,3.13,0,0,0-.74,1,3.28,3.28,0,0,0-.28,1.42,3.18,3.18,0,0,0,.23,1.23,2.8,2.8,0,0,0,.65,1,2.83,2.83,0,0,0,1,.62,3.71,3.71,0,0,0,1.38.19,5,5,0,0,0,2-.41,8.32,8.32,0,0,0,1.15-.63Z"/><path class="cls-4" d="M466.66,258.9l3.92-.18c0,2.92,0,4.38,0,7.31v0.88l1.6-.08c0,0.92,0,1.39,0,2.31l-3.32.16-0.48-1.53h-0.08a4,4,0,0,1-1.45,1.39,4.57,4.57,0,0,1-2.15.62,4.75,4.75,0,0,1-1.46-.15,2.48,2.48,0,0,1-1.13-.64,3,3,0,0,1-.72-1.27,7,7,0,0,1-.25-2v-4.22l-1.2.05V259.2l3.94-.17v6a3.12,3.12,0,0,0,.41,1.83,1.42,1.42,0,0,0,1.29.51,2.38,2.38,0,0,0,1.4-.53,2.65,2.65,0,0,0,.87-1.17c0-1.79,0-2.68,0-4.47l-1.18.05V258.9Z"/><path class="cls-4" d="M473.16,266.78l2.61-.13c0-2.35,0-3.53,0-5.88l-2.61.13v-2.31l4.73-.24,0.32,1.37h0.08a6,6,0,0,1,1.35-1.22,3.47,3.47,0,0,1,1.77-.56,2.26,2.26,0,0,1,2,.82,4.88,4.88,0,0,1,.73,3l-2.46.13a2,2,0,0,0-.22-1.09,0.73,0.73,0,0,0-.7-0.31,2.18,2.18,0,0,0-1.36.49,4.58,4.58,0,0,0-.87,1v4.47l4.57-.24c0,0.92,0,1.39,0,2.31-4,.21-5.95.32-9.91,0.51v-2.31Z"/><path class="cls-4" d="M489.55,266.88a1.53,1.53,0,0,1,.47-1.16,1.83,1.83,0,0,1,1.19-.49,2,2,0,0,1,1.75.65,2.81,2.81,0,0,1,.59,1.83,4.12,4.12,0,0,1-.37,1.74,5,5,0,0,1-1,1.4,5.82,5.82,0,0,1-2.76,1.57l-0.57-1.12a6.52,6.52,0,0,0,1-.42,4.44,4.44,0,0,0,.94-0.63,3.53,3.53,0,0,0,.71-0.85,2.34,2.34,0,0,0,.33-1,2.7,2.7,0,0,1-1.07.09,1.52,1.52,0,0,1-.73-0.29,1.27,1.27,0,0,1-.41-0.56A2.1,2.1,0,0,1,489.55,266.88Z"/><path class="cls-4" d="M499.52,252.92l8.31-.54c0,0.92,0,1.39,0,2.31l-5.7.37c0,6,0,8.94,0,14.91l5.7-.37c0,0.92,0,1.39,0,2.31l-8.31.54C499.52,264.64,499.52,260.73,499.52,252.92Z"/><path class="cls-4" d="M512.43,264.46l3.22-.23c0-3.67,0-5.51,0-9.18l-2.78,2.32-1.26-1.59,4.79-4,1.85-.13c0,5,0,7.43,0,12.39l3.15-.23c0,0.92,0,1.39,0,2.31l-9,.64v-2.31Z"/><path class="cls-4" d="M524,255.84a5.39,5.39,0,0,1,.37-2,4.93,4.93,0,0,1,1-1.62,5.32,5.32,0,0,1,1.6-1.13,6.45,6.45,0,0,1,4.23-.34,4,4,0,0,1,1.66.93,4.28,4.28,0,0,1,1.07,1.66,6.7,6.7,0,0,1,.38,2.35,13,13,0,0,1-.63,4.25A9.62,9.62,0,0,1,532,263a8.18,8.18,0,0,1-2.47,2,10.38,10.38,0,0,1-2.94,1l-0.59-2.1a7.79,7.79,0,0,0,2.09-.73,7,7,0,0,0,1.63-1.17,6.12,6.12,0,0,0,1.13-1.5,5.13,5.13,0,0,0,.57-1.74,3.52,3.52,0,0,1-1.14.79,4.9,4.9,0,0,1-1.66.39h0a4.93,4.93,0,0,1-1.62-.15,3.92,3.92,0,0,1-2.56-2.06A4.23,4.23,0,0,1,524,255.84Zm2.65-.35a2.23,2.23,0,0,0,.22,1,2.07,2.07,0,0,0,.58.71,2.24,2.24,0,0,0,.83.4,3,3,0,0,0,1,.08,3.91,3.91,0,0,0,1.49-.39,2.45,2.45,0,0,0,.92-0.74,6.05,6.05,0,0,0,.06-0.84,3.92,3.92,0,0,0-.17-1.14,2.82,2.82,0,0,0-.5-1,2.23,2.23,0,0,0-.84-0.64,2.37,2.37,0,0,0-1.16-.17A2.55,2.55,0,0,0,526.6,255.49Z"/><path class="cls-4" d="M537.07,267.37l9.33-.79c0,0.9,0,1.35,0,2.25l-9.33.79C537.07,268.72,537.07,268.27,537.07,267.37Z"/><path class="cls-4" d="M549.17,253.79a5.44,5.44,0,0,1,.37-2,5,5,0,0,1,1-1.63,5.41,5.41,0,0,1,1.6-1.15,6,6,0,0,1,2.09-.56,6,6,0,0,1,2.14.16,4,4,0,0,1,1.66.91,4.21,4.21,0,0,1,1.07,1.64,6.66,6.66,0,0,1,.38,2.35,13,13,0,0,1-.63,4.26,9.78,9.78,0,0,1-1.69,3.1,8.32,8.32,0,0,1-2.47,2,10.49,10.49,0,0,1-2.94,1.06l-0.59-2.09a7.87,7.87,0,0,0,2.09-.75,7.12,7.12,0,0,0,1.63-1.19,6.22,6.22,0,0,0,1.13-1.51,5.19,5.19,0,0,0,.57-1.74,3.57,3.57,0,0,1-1.13.81,4.92,4.92,0,0,1-1.66.41h0a4.9,4.9,0,0,1-1.62-.13,3.92,3.92,0,0,1-1.48-.71,3.88,3.88,0,0,1-1.08-1.32A4.19,4.19,0,0,1,549.17,253.79Zm2.65-.38a2.22,2.22,0,0,0,.22,1,2,2,0,0,0,.58.71,2.2,2.2,0,0,0,.83.39,3,3,0,0,0,1,.07,3.94,3.94,0,0,0,1.49-.41,2.5,2.5,0,0,0,.92-0.76,6.07,6.07,0,0,0,.06-0.85,3.9,3.9,0,0,0-.17-1.14,2.78,2.78,0,0,0-.5-1,2.18,2.18,0,0,0-.84-0.63,2.35,2.35,0,0,0-1.15-.16A2.59,2.59,0,0,0,551.82,253.41Z"/><path class="cls-4" d="M565.61,260.25a4.86,4.86,0,0,0,1.28-.29,3.58,3.58,0,0,0,1-.58,2.58,2.58,0,0,0,.67-0.84,2.38,2.38,0,0,0,.24-1.07,1.9,1.9,0,0,0-.91-1.73,4.42,4.42,0,0,0-2.74-.4l-0.53.06-0.58.09-0.65.08c0-3.07,0-4.61,0-7.69l7.6-.74v2.56l-5.25.51v2.83l0.34-.05,0.28,0,0.24,0a5.9,5.9,0,0,1,2,.11,3.92,3.92,0,0,1,1.57.76,3.61,3.61,0,0,1,1,1.38,4.65,4.65,0,0,1,.37,1.89,5.15,5.15,0,0,1-.46,2.22,5.21,5.21,0,0,1-1.26,1.69,6.39,6.39,0,0,1-1.85,1.14,7.94,7.94,0,0,1-2.25.54,5.49,5.49,0,0,1-1,0q-0.52,0-1-.13a8.42,8.42,0,0,1-.93-0.22q-0.43-.13-0.72-0.25l0.88-2.27a5.72,5.72,0,0,0,1.1.36A4.69,4.69,0,0,0,565.61,260.25Z"/><path class="cls-4" d="M574.49,257.9a3.81,3.81,0,0,1,.24-1.37,4.73,4.73,0,0,1,.63-1.16,6.14,6.14,0,0,1,.89-1,9.88,9.88,0,0,1,1-.79,5.58,5.58,0,0,1-1.74-1.26,2.88,2.88,0,0,1-.69-2,3.6,3.6,0,0,1,.36-1.57,4.34,4.34,0,0,1,1-1.34,5.43,5.43,0,0,1,1.52-1,6.41,6.41,0,0,1,1.91-.49,5.93,5.93,0,0,1,1.77.07,4.3,4.3,0,0,1,1.46.56,2.89,2.89,0,0,1,1,1,2.81,2.81,0,0,1,.36,1.42,4,4,0,0,1-.64,2.23,6.57,6.57,0,0,1-1.75,1.78,5.58,5.58,0,0,1,2,1.32,3.1,3.1,0,0,1,.74,2.19,3.84,3.84,0,0,1-.41,1.75,4.81,4.81,0,0,1-1.1,1.43,5.92,5.92,0,0,1-1.63,1,6.72,6.72,0,0,1-2,.51,6.27,6.27,0,0,1-2-.08,4.61,4.61,0,0,1-1.57-.63A3,3,0,0,1,574.49,257.9Zm7.47-1.13a1.38,1.38,0,0,0-.27-0.87,2.53,2.53,0,0,0-.68-0.6,5.58,5.58,0,0,0-.9-0.44l-1-.39a4.74,4.74,0,0,0-1.62,1.35,2.51,2.51,0,0,0-.57,1.43,1.55,1.55,0,0,0,.67,1.39,2.81,2.81,0,0,0,1.87.32,3.24,3.24,0,0,0,1.76-.68A1.85,1.85,0,0,0,582,256.78Zm-4.51-6.57a1.45,1.45,0,0,0,.22.83,2,2,0,0,0,.57.55,3.91,3.91,0,0,0,.79.39l0.88,0.33a4.73,4.73,0,0,0,.66-0.49,4.24,4.24,0,0,0,.58-0.62,3.57,3.57,0,0,0,.41-0.67,1.61,1.61,0,0,0,.16-0.68,1.39,1.39,0,0,0-.19-0.75,1.61,1.61,0,0,0-.49-0.51,1.92,1.92,0,0,0-.68-0.28,2.66,2.66,0,0,0-1.63.2,2.78,2.78,0,0,0-.67.45,1.9,1.9,0,0,0-.44.59A1.5,1.5,0,0,0,577.45,250.21Z"/><path class="cls-4" d="M587.45,262.6l9.31-1c0,0.9,0,1.35,0,2.25l-9.31,1V262.6Z"/><path class="cls-4" d="M610.49,253.43l-2.52.3v4.09l-2.54.3V254l-6.35.73v-1.87l6.64-9.61L608,243v8.52l2.52-.3v2.18Zm-5.05-6.25-3.65,5.09,3.65-.42v-4.66Z"/><path class="cls-4" d="M611.77,250a13.14,13.14,0,0,1,.4-3.4,7.92,7.92,0,0,1,1.13-2.52,5.58,5.58,0,0,1,1.74-1.63,5.76,5.76,0,0,1,2.25-.75,4.31,4.31,0,0,1,4.08,1.35q1.43,1.68,1.43,5.58a13.22,13.22,0,0,1-.4,3.42,8.09,8.09,0,0,1-1.12,2.54,5.52,5.52,0,0,1-1.74,1.65,5.81,5.81,0,0,1-2.26.75,4.17,4.17,0,0,1-4.08-1.47Q611.77,253.74,611.77,250Zm2.72-.33q0,0.31,0,.6c0,0.19,0,.38,0,0.57l5.07-5.31a2,2,0,0,0-2.35-1.51,2.61,2.61,0,0,0-2,1.54A9.19,9.19,0,0,0,614.49,249.67Zm5.57-.69c0-.22,0-0.44,0-0.64s0-.4,0-0.59l-5.09,5.31a2.07,2.07,0,0,0,2.35,1.62,2.64,2.64,0,0,0,2.06-1.54A9.21,9.21,0,0,0,620.07,249Z"/><path class="cls-4" d="M624.34,248.44a13.19,13.19,0,0,1,.4-3.4,8,8,0,0,1,1.12-2.53,5.63,5.63,0,0,1,1.73-1.64,5.78,5.78,0,0,1,2.25-.76,4.28,4.28,0,0,1,4.08,1.32q1.43,1.67,1.43,5.58a13.25,13.25,0,0,1-.4,3.42,8.15,8.15,0,0,1-1.12,2.54,5.57,5.57,0,0,1-1.74,1.66,5.84,5.84,0,0,1-2.26.77,4.14,4.14,0,0,1-4.08-1.44Q624.34,252.18,624.34,248.44Zm2.72-.35c0,0.21,0,.41,0,0.6s0,0.38,0,.57l5.07-5.34a2,2,0,0,0-2.35-1.5,2.63,2.63,0,0,0-2,1.56A9.23,9.23,0,0,0,627.06,248.1Zm5.57-.72q0-.34,0-0.64c0-.2,0-0.4,0-0.59l-5.09,5.34a2.05,2.05,0,0,0,2.35,1.61,2.66,2.66,0,0,0,2.06-1.55A9.25,9.25,0,0,0,632.63,247.37Z"/><path class="cls-4" d="M640.66,252.33a1.65,1.65,0,0,1,.47-1.2,2,2,0,0,1,1.18-.58,1.82,1.82,0,0,1,1.74.52,2.64,2.64,0,0,1,.59,1.79,4.33,4.33,0,0,1-.37,1.77,5.51,5.51,0,0,1-1,1.47,6.3,6.3,0,0,1-1.31,1.1,6.1,6.1,0,0,1-1.43.68L640,256.81a7,7,0,0,0,1-.49,4.92,4.92,0,0,0,.93-0.7,3.94,3.94,0,0,0,.7-0.9,2.51,2.51,0,0,0,.32-1.05,2.74,2.74,0,0,1-1.07.18,1.4,1.4,0,0,1-.72-0.24,1.14,1.14,0,0,1-.41-0.53A2,2,0,0,1,640.66,252.33Z"/><path class="cls-4" d="M659.59,251l-9.32,1.33v-2l0.63-.64,0.85-.91q0.47-.51,1-1.11t1-1.24q0.71-.9,1.24-1.63a12.66,12.66,0,0,0,.88-1.35,5.93,5.93,0,0,0,.51-1.21,4.22,4.22,0,0,0,.17-1.17,1.73,1.73,0,0,0-.19-0.79,1.81,1.81,0,0,0-.52-0.63,2.1,2.1,0,0,0-.81-0.37,2.77,2.77,0,0,0-1,0,4.27,4.27,0,0,0-1.37.43,5.68,5.68,0,0,0-1.29,1l-1.09-1.78a11.11,11.11,0,0,1,2-1.34,7.34,7.34,0,0,1,2.48-.78,5.71,5.71,0,0,1,1.72,0,3.87,3.87,0,0,1,1.46.54,2.93,2.93,0,0,1,1,1.08,3.35,3.35,0,0,1,.38,1.65,6.73,6.73,0,0,1-.11,1.27,6.9,6.9,0,0,1-.36,1.21,9.43,9.43,0,0,1-.63,1.28q-0.39.67-.93,1.46-0.42.61-.91,1.23t-1,1.2q-0.48.57-1,1.08t-0.85.86l6-.87V251Z"/><path class="cls-4" d="M671.79,254l-8.25,1.23V253l5.66-.84V237.21l-5.66.84v-2.31l8.25-1.23C671.79,242.32,671.79,246.22,671.79,254Z"/><path class="cls-4" d="M684.32,252.09l-8.25,1.29v-2.31l5.66-.88V235.28l-5.66.88v-2.31l8.25-1.29v19.53Z"/><path class="cls-4" d="M63.38,343.4L66,343.81v-5.88l-2.59-.41v-2.31l4.7,0.74,0.31,1.43h0.08a4.42,4.42,0,0,1,1.34-.95,3,3,0,0,1,1.75-.19,2.84,2.84,0,0,1,2,1.23,5.66,5.66,0,0,1,.72,3.2l-2.44-.37a2.33,2.33,0,0,0-.22-1.14,0.92,0.92,0,0,0-.7-0.45,1.86,1.86,0,0,0-1.35.21,3.38,3.38,0,0,0-.87.83v4.47l4.53,0.7v2.31c-3.93-.6-5.9-0.91-9.83-1.53V343.4Z"/><path class="cls-4" d="M86.24,348.08a3.06,3.06,0,0,1-.7.39,5.83,5.83,0,0,1-1,.3,7.12,7.12,0,0,1-1.26.15,8,8,0,0,1-1.46-.09,7.76,7.76,0,0,1-2.39-.74,5.8,5.8,0,0,1-2.9-3.28,7,7,0,0,1-.39-2.38,5.72,5.72,0,0,1,.44-2.36,3.93,3.93,0,0,1,1.2-1.55,4.19,4.19,0,0,1,1.79-.77,6.63,6.63,0,0,1,2.21,0,7.42,7.42,0,0,1,1.64.45,5.37,5.37,0,0,1,1.56,1,4.8,4.8,0,0,1,1.16,1.55,5.13,5.13,0,0,1,.45,2.25,9.59,9.59,0,0,1-.21,1.92l-7.52-1.12a2.69,2.69,0,0,0,.28,1.18,2.8,2.8,0,0,0,.69.86,3.56,3.56,0,0,0,1,.58,5.34,5.34,0,0,0,1.18.31,5.87,5.87,0,0,0,2.06,0,3.67,3.67,0,0,0,1.31-.52Zm-4.51-8.16a3.32,3.32,0,0,0-1,0,2.43,2.43,0,0,0-.87.31,1.92,1.92,0,0,0-.64.62,2,2,0,0,0-.29.92L84,342.53a2.64,2.64,0,0,0-.57-1.74A2.67,2.67,0,0,0,81.73,339.92Z"/><path class="cls-4" d="M99,350a5.15,5.15,0,0,1-2,.69,8.53,8.53,0,0,1-2.4,0,7.44,7.44,0,0,1-2.41-.74,6,6,0,0,1-1.78-1.38,5.75,5.75,0,0,1-1.1-1.91,7,7,0,0,1-.38-2.32,5.49,5.49,0,0,1,.44-2.29,4,4,0,0,1,1.22-1.57,4.44,4.44,0,0,1,1.85-.82,6.86,6.86,0,0,1,2.32,0,9.24,9.24,0,0,1,2.2.58,11.77,11.77,0,0,1,1.57.75v3.7l-2.3-.32v-1.93a6.33,6.33,0,0,0-1.3-.33,3.76,3.76,0,0,0-1.16,0A2.34,2.34,0,0,0,92,343.38a3,3,0,0,0-.28,1.37A3.52,3.52,0,0,0,92,346a3.56,3.56,0,0,0,.65,1.08,3.62,3.62,0,0,0,1,.81,4.1,4.1,0,0,0,1.37.44,4.65,4.65,0,0,0,2-.06,6.65,6.65,0,0,0,1.14-.43Z"/><path class="cls-4" d="M107.07,341.64l3.89,0.52v8.19l1.59,0.21v2.31l-3.31-.44-0.48-1.62h-0.08a3,3,0,0,1-1.44,1.13,4.08,4.08,0,0,1-2.13.23,5.19,5.19,0,0,1-1.45-.41,3.14,3.14,0,0,1-1.12-.85,3.81,3.81,0,0,1-.71-1.4,7.51,7.51,0,0,1-.25-2.09v-4.22l-1.19-.17v-2.31l3.91,0.54v6a3.53,3.53,0,0,0,.41,1.9,1.72,1.72,0,0,0,1.29.74,2.09,2.09,0,0,0,2.26-1.29v-4.47l-1.17-.16v-2.31Z"/><path class="cls-4" d="M113.53,350.7l2.6,0.34v-5.88l-2.6-.34v-2.31l4.71,0.62,0.31,1.43h0.08a4.59,4.59,0,0,1,1.34-1,3.06,3.06,0,0,1,1.76-.24,2.76,2.76,0,0,1,2,1.18,5.55,5.55,0,0,1,.72,3.18l-2.45-.31a2.29,2.29,0,0,0-.22-1.13,0.89,0.89,0,0,0-.7-0.44,1.89,1.89,0,0,0-1.35.25,3.5,3.5,0,0,0-.87.85v4.47l4.54,0.58v2.31c-3.94-.5-5.92-0.76-9.86-1.28V350.7Z"/><path class="cls-4" d="M134.81,360.16a10.92,10.92,0,0,1-2.85-1.27,10,10,0,0,1-2.45-2.17,10.45,10.45,0,0,1-1.71-3.07,11.63,11.63,0,0,1-.64-4,10.33,10.33,0,0,1,.64-3.82,7.75,7.75,0,0,1,1.71-2.67,7.14,7.14,0,0,1,2.45-1.61,9.4,9.4,0,0,1,2.85-.64l0.5,2.31a7.89,7.89,0,0,0-1.67.4,5.17,5.17,0,0,0-1.77,1.06,6,6,0,0,0-1.41,2,8,8,0,0,0-.58,3.29,8.32,8.32,0,0,0,.61,3.33,8.5,8.5,0,0,0,1.48,2.35,7.78,7.78,0,0,0,1.79,1.5,8.11,8.11,0,0,0,1.55.75Z"/><path class="cls-4" d="M140.07,354l3.21,0.38v-9.18L140.51,347l-1.26-1.83,4.78-3.09,1.84,0.22v12.39l3.14,0.36v2.31l-8.95-1V354Z"/><path class="cls-4" d="M152.64,355.49l3.21,0.36v-9.18l-2.77,1.81-1.26-1.82,4.78-3.12,1.85,0.2v12.39l3.15,0.34v2.31l-9-1v-2.31Z"/><path class="cls-4" d="M167.57,358.08A1.3,1.3,0,0,1,168,357a1.58,1.58,0,0,1,1.19-.3,2.32,2.32,0,0,1,1.74.94,3.22,3.22,0,0,1,.59,1.93,3.74,3.74,0,0,1-.37,1.68,3.93,3.93,0,0,1-1,1.25,4.49,4.49,0,0,1-1.31.79,4.9,4.9,0,0,1-1.44.33l-0.57-1.21a5.58,5.58,0,0,0,1-.25,3.57,3.57,0,0,0,.93-0.48,2.78,2.78,0,0,0,.7-0.74,2,2,0,0,0,.33-1,2.69,2.69,0,0,1-1.07-.08,1.83,1.83,0,0,1-.72-0.41,1.58,1.58,0,0,1-.41-0.63A2.28,2.28,0,0,1,167.57,358.08Z"/><path class="cls-4" d="M177.81,358.17l3.21,0.32v-9.18l-2.77,1.85L177,349.35l4.78-3.18,1.85,0.18v12.39l3.15,0.3v2.31l-9-.87v-2.31Z"/><path class="cls-4" d="M189,354.19a12.13,12.13,0,0,1,.4-3.31,6.19,6.19,0,0,1,1.13-2.28,4.1,4.1,0,0,1,1.74-1.26,5,5,0,0,1,2.26-.27,5.39,5.39,0,0,1,4.09,2.23A10,10,0,0,1,200,355.2a12.23,12.23,0,0,1-.4,3.33,6.32,6.32,0,0,1-1.13,2.29,4.06,4.06,0,0,1-1.75,1.27,5.09,5.09,0,0,1-2.27.27,5.24,5.24,0,0,1-4.09-2.34A10.35,10.35,0,0,1,189,354.19Zm2.73,0.26q0,0.31,0,.6c0,0.19,0,.38,0,0.58l5.08-4.22a2.64,2.64,0,0,0-2.35-2,2,2,0,0,0-2.05,1.1A8.17,8.17,0,0,0,191.71,354.44Zm5.59,0.51c0-.22,0-0.44,0-0.64s0-.4,0-0.6l-5.1,4.22a2.69,2.69,0,0,0,2.35,2.13,2,2,0,0,0,2.06-1.09A8.18,8.18,0,0,0,197.29,355Z"/><path class="cls-4" d="M203.3,365a6.67,6.67,0,0,0,1.55-.42,5.82,5.82,0,0,0,1.8-1.13,6.39,6.39,0,0,0,1.48-2,7.41,7.41,0,0,0,.61-3.2,8.9,8.9,0,0,0-.58-3.41,7.89,7.89,0,0,0-1.42-2.31,6.89,6.89,0,0,0-1.78-1.43,9.62,9.62,0,0,0-1.67-.74l0.5-2.2a11.36,11.36,0,0,1,2.86,1.23,9.63,9.63,0,0,1,2.46,2.12,10.18,10.18,0,0,1,1.71,3,11.39,11.39,0,0,1,.64,3.95,10.48,10.48,0,0,1-.64,3.85,8,8,0,0,1-1.71,2.71,7.4,7.4,0,0,1-2.46,1.66,9.09,9.09,0,0,1-2.86.68Z"/><path class="cls-4" d="M328.5,369.81V367.5l2.48,0.06v-5.88l-2.51-.06v-2.31l2.51,0.06v-0.59a3.8,3.8,0,0,1,.35-1.69,3.3,3.3,0,0,1,.92-1.15,3.65,3.65,0,0,1,1.32-.65,5.41,5.41,0,0,1,1.55-.19,10,10,0,0,1,2.39.29A6.28,6.28,0,0,1,339,356l-0.8,2.06a9.94,9.94,0,0,0-1-.44,4.64,4.64,0,0,0-1.44-.22,2,2,0,0,0-1.59.48,2.24,2.24,0,0,0-.45,1.53l4.42,0.09v2.31l-4.42-.09v5.88l4.44,0.09V370Z"/><path class="cls-4" d="M341.53,360.29a11.45,11.45,0,0,1,1.95-.62,11,11,0,0,1,2.62-.23,5.87,5.87,0,0,1,1.86.29,3.19,3.19,0,0,1,1.24.76,2.89,2.89,0,0,1,.68,1.16,5.05,5.05,0,0,1,.21,1.51q0,1.07-.07,1.83T350,366.35a8.9,8.9,0,0,0,0,1c0,0.19,0,.39.06,0.57l1.37,0v2.31l-3.54,0-0.28-1.43h-0.1a3.55,3.55,0,0,1-1.19,1.1,4,4,0,0,1-2.09.44,3.61,3.61,0,0,1-2.49-.88,2.92,2.92,0,0,1-.92-2.24,3.3,3.3,0,0,1,.32-1.52,2.65,2.65,0,0,1,.94-1,4.42,4.42,0,0,1,1.49-.58,8.67,8.67,0,0,1,1.94-.17c0.25,0,.52,0,0.8.05l1,0.1a2.1,2.1,0,0,0,0-.42v-0.4a1.36,1.36,0,0,0-.46-1.15,2.27,2.27,0,0,0-1.36-.37,6.31,6.31,0,0,0-1.92.24,12.17,12.17,0,0,0-1.44.52Zm3.58,7.77a2.5,2.5,0,0,0,1.5-.34,2.41,2.41,0,0,0,.73-0.78v-1.26l-0.62-.1a7.32,7.32,0,0,0-.9-0.07,4.33,4.33,0,0,0-.79.06,2.63,2.63,0,0,0-.71.22,1.37,1.37,0,0,0-.5.4,1,1,0,0,0-.19.6,1.22,1.22,0,0,0,.34.92A1.64,1.64,0,0,0,345.12,368.06Z"/><path class="cls-4" d="M363.78,369.34a6,6,0,0,1-2,1,8.86,8.86,0,0,1-2.42.31,6.89,6.89,0,0,1-2.43-.42,5,5,0,0,1-1.79-1.14,4.84,4.84,0,0,1-1.11-1.77,6.55,6.55,0,0,1-.38-2.27,5.86,5.86,0,0,1,.44-2.35,4.87,4.87,0,0,1,1.23-1.73,5.25,5.25,0,0,1,1.86-1.06,7.18,7.18,0,0,1,2.34-.35,8.7,8.7,0,0,1,2.21.29,10.42,10.42,0,0,1,1.58.54V364L361,364V362.1a6,6,0,0,0-1.31-.16,3.94,3.94,0,0,0-1.17.17,2.83,2.83,0,0,0-1,.56,2.93,2.93,0,0,0-.74,1,3.19,3.19,0,0,0-.28,1.4,3.26,3.26,0,0,0,.23,1.24,3,3,0,0,0,.65,1,3,3,0,0,0,1,.67,3.79,3.79,0,0,0,1.38.25,4.92,4.92,0,0,0,2-.32,7.88,7.88,0,0,0,1.15-.58Z"/><path class="cls-4" d="M367.36,362.18h-2.08v-2.31h2.08v-2.39l2.74-.77v3.17h5.52v2.31H370.1v3a3.62,3.62,0,0,0,.61,2.34,2.11,2.11,0,0,0,1.71.73,3.6,3.6,0,0,0,1-.13,3.9,3.9,0,0,0,.83-0.34,4.82,4.82,0,0,0,.67-0.46l0.56-.46,1.26,1.89a4.06,4.06,0,0,1-.9.77,7.56,7.56,0,0,1-1.16.61,7.3,7.3,0,0,1-1.3.41,6.21,6.21,0,0,1-1.33.14,4.56,4.56,0,0,1-3.55-1.32,6.11,6.11,0,0,1-1.19-4.17v-3Z"/><path class="cls-4" d="M378.29,365.14a6.46,6.46,0,0,1,.4-2.35,4.81,4.81,0,0,1,1.14-1.74,4.89,4.89,0,0,1,1.76-1.09,6.77,6.77,0,0,1,2.29-.37,6.59,6.59,0,0,1,2.37.39,4.88,4.88,0,0,1,1.76,1.11,4.69,4.69,0,0,1,1.08,1.75,6.66,6.66,0,0,1,.37,2.27,6.48,6.48,0,0,1-.4,2.35,4.77,4.77,0,0,1-2.9,2.84,6.72,6.72,0,0,1-2.29.38,6.56,6.56,0,0,1-2.37-.39,4.87,4.87,0,0,1-1.76-1.12,4.71,4.71,0,0,1-1.08-1.75A6.67,6.67,0,0,1,378.29,365.14Zm2.82,0a4.15,4.15,0,0,0,.19,1.28,3.13,3.13,0,0,0,.55,1,2.45,2.45,0,0,0,.86.68,2.65,2.65,0,0,0,1.16.24,2.68,2.68,0,0,0,2-.79,3.39,3.39,0,0,0,.77-2.46,3.62,3.62,0,0,0-.72-2.34,2.46,2.46,0,0,0-2-.88,3.3,3.3,0,0,0-1.1.18,2.16,2.16,0,0,0-.87.58,2.84,2.84,0,0,0-.58,1A4.54,4.54,0,0,0,381.11,365.14Z"/><path class="cls-4" d="M391,368l2.61,0v-5.88l-2.61,0v-2.31l4.74,0,0.32,1.38h0.08A5.62,5.62,0,0,1,397.5,360a3.36,3.36,0,0,1,1.77-.48,2.37,2.37,0,0,1,2,.9,5,5,0,0,1,.73,3.08l-2.46,0a2.1,2.1,0,0,0-.22-1.1,0.77,0.77,0,0,0-.71-0.34,2.1,2.1,0,0,0-1.36.43,4.31,4.31,0,0,0-.87,1V368l4.57,0v2.31l-9.92.09V368Z"/><path class="cls-4" d="M404.07,367.9l3.71-.05V362l-3.71.05c0-.92,0-1.39,0-2.31l6.45-.1v8.19l3.9-.07V370c-4.14.08-6.2,0.11-10.34,0.17C404.07,369.29,404.07,368.83,404.07,367.9Zm3.2-11.09a1.5,1.5,0,0,1,.48-1.12,1.9,1.9,0,0,1,1.35-.48,2,2,0,0,1,1.41.44,1.41,1.41,0,0,1,.53,1.1,1.39,1.39,0,0,1-.53,1.11,2.19,2.19,0,0,1-1.41.45,1.93,1.93,0,0,1-1.35-.41A1.38,1.38,0,0,1,407.27,356.81Z"/><path class="cls-4" d="M417.36,360.2a11.82,11.82,0,0,1,1.95-.69,11.15,11.15,0,0,1,2.62-.33,5.78,5.78,0,0,1,1.86.22,3,3,0,0,1,1.24.72,2.74,2.74,0,0,1,.68,1.14,5,5,0,0,1,.21,1.51q0,1.07-.07,1.83t-0.07,1.35a8.86,8.86,0,0,0,0,1c0,0.19,0,.38.06,0.57l1.37,0c0,0.92,0,1.39,0,2.31l-3.53.09-0.28-1.42h-0.1a3.75,3.75,0,0,1-1.19,1.15,4,4,0,0,1-2.09.52,3.49,3.49,0,0,1-2.49-.79,2.81,2.81,0,0,1-.92-2.21,3.37,3.37,0,0,1,.32-1.53,2.8,2.8,0,0,1,.94-1.07,4.59,4.59,0,0,1,1.49-.64,8.74,8.74,0,0,1,1.94-.24,7.81,7.81,0,0,1,.8,0l1,0.06a2.11,2.11,0,0,0,0-.42v-0.4a1.31,1.31,0,0,0-.46-1.13,2.21,2.21,0,0,0-1.36-.32,6.41,6.41,0,0,0-1.92.31,12.49,12.49,0,0,0-1.44.58Zm3.58,7.63a2.33,2.33,0,0,0,2.23-1.21v-1.26l-0.62-.08a7.3,7.3,0,0,0-.9,0,4.38,4.38,0,0,0-.79.09,2.72,2.72,0,0,0-.71.25,1.45,1.45,0,0,0-.5.42,1,1,0,0,0-.19.61,1.17,1.17,0,0,0,.34.91A1.59,1.59,0,0,0,420.95,367.83Z"/><path class="cls-4" d="M429.94,355l4.49-.12c0,3.88,0,5.82,0,9.7a4.41,4.41,0,0,0,.4,2.24,1.36,1.36,0,0,0,1.28.59,3.57,3.57,0,0,0,1.07-.17,4.23,4.23,0,0,0,.84-0.41l1,1.86c-0.24.16-.48,0.31-0.72,0.45a4.77,4.77,0,0,1-.76.36,5.32,5.32,0,0,1-.87.24,7,7,0,0,1-1.06.1,3.89,3.89,0,0,1-3-.92,3.81,3.81,0,0,1-1-2.83v-8.82l-1.75,0V355Z"/><path class="cls-4" d="M442.38,371.78l9.35-.33v2.25l-9.35.33C442.38,373.13,442.38,372.68,442.38,371.78Z"/><path class="cls-4" d="M453.37,354.24l4.25-.17c0,2.15,0,3.23,0,5.38h0.08a3.77,3.77,0,0,1,1.35-1.12,4.69,4.69,0,0,1,2-.48,4.88,4.88,0,0,1,1.47.15,2.63,2.63,0,0,1,1.16.64,3.08,3.08,0,0,1,.76,1.28,6.5,6.5,0,0,1,.27,2c0,2.61,0,3.92,0,6.53l-2.74.12v-6a2.51,2.51,0,0,0-.55-1.82,1.83,1.83,0,0,0-1.43-.51,2.48,2.48,0,0,0-1.43.53,2.73,2.73,0,0,0-.93,1.24v6.7l-2.74.11c0-5,0-7.43,0-12.39l-1.52.06v-2.31Z"/><path class="cls-4" d="M477.24,366.77a4,4,0,0,1-.7.53,7.25,7.25,0,0,1-1,.5,8.17,8.17,0,0,1-1.27.4,8.38,8.38,0,0,1-1.47.2,7,7,0,0,1-2.41-.26,4.42,4.42,0,0,1-2.93-2.71,7,7,0,0,1,.05-4.75,5.17,5.17,0,0,1,1.21-1.79,5.38,5.38,0,0,1,1.8-1.12,7.18,7.18,0,0,1,2.23-.45,6.8,6.8,0,0,1,1.65.13,4.27,4.27,0,0,1,1.57.65,3.62,3.62,0,0,1,1.17,1.32,4.53,4.53,0,0,1,.45,2.16,10.18,10.18,0,0,1-.21,2l-7.58.37a2.33,2.33,0,0,0,.28,1.12,2.1,2.1,0,0,0,.69.72,2.85,2.85,0,0,0,1,.38,4.93,4.93,0,0,0,1.19.08,6.3,6.3,0,0,0,2.07-.39,4.65,4.65,0,0,0,1.32-.78Zm-4.55-7.27a3.55,3.55,0,0,0-1,.2,3,3,0,0,0-.87.48,2.58,2.58,0,0,0-.64.75,2.3,2.3,0,0,0-.29,1l5.18-.25A2,2,0,0,0,472.7,359.5Z"/><path class="cls-4" d="M480.46,353l4.48-.24c0,3.88,0,5.82,0,9.7a4.36,4.36,0,0,0,.4,2.23,1.33,1.33,0,0,0,1.28.56,3.6,3.6,0,0,0,1.07-.2,4.32,4.32,0,0,0,.84-0.44l1,1.83q-0.36.25-.72,0.47a4.94,4.94,0,0,1-.76.38,5.4,5.4,0,0,1-.87.26,7,7,0,0,1-1.06.13,3.8,3.8,0,0,1-3-.85,3.72,3.72,0,0,1-1-2.8c0-3.53,0-5.29,0-8.82l-1.75.09C480.46,354.41,480.46,353.95,480.46,353Z"/><path class="cls-4" d="M491.26,356.64l3.58-.21,0.31,1.24h0.08a4.29,4.29,0,0,1,3.53-1.77,4.89,4.89,0,0,1,1.78.2,3.18,3.18,0,0,1,1.39.87,4.16,4.16,0,0,1,.89,1.58,7.66,7.66,0,0,1,.32,2.35,7.9,7.9,0,0,1-.36,2.45,5.57,5.57,0,0,1-1,1.9,4.81,4.81,0,0,1-1.64,1.26,6,6,0,0,1-2.21.53,8.5,8.5,0,0,1-1.28,0,3.36,3.36,0,0,1-1.05-.24c0,1.72,0,2.58,0,4.31l-2.73.16c0-5,0-7.43,0-12.39l-1.58.09v-2.31Zm6.69,1.62a2.92,2.92,0,0,0-1.46.49,2.24,2.24,0,0,0-.92,1.25v4.37a2.12,2.12,0,0,0,.85.32,4.63,4.63,0,0,0,1.13.07,3,3,0,0,0,1.09-.27,2.43,2.43,0,0,0,.88-0.69,3.34,3.34,0,0,0,.59-1.15,5.6,5.6,0,0,0,.21-1.63,3,3,0,0,0-.67-2.1A2.05,2.05,0,0,0,497.95,358.26Z"/><path class="cls-4" d="M515.11,364.52a4.14,4.14,0,0,1-.7.54,7.37,7.37,0,0,1-1,.52,8.3,8.3,0,0,1-1.27.42,8.43,8.43,0,0,1-1.47.23,7,7,0,0,1-2.41-.22,4.3,4.3,0,0,1-2.92-2.66,6.27,6.27,0,0,1-.39-2.3,6.38,6.38,0,0,1,.44-2.45,5.31,5.31,0,0,1,1.21-1.81,5.49,5.49,0,0,1,1.8-1.16,7.22,7.22,0,0,1,2.23-.49,6.78,6.78,0,0,1,1.65.1,4.19,4.19,0,0,1,1.57.62,3.52,3.52,0,0,1,1.17,1.29,4.48,4.48,0,0,1,.45,2.15,10.23,10.23,0,0,1-.21,2l-7.57.51a2.3,2.3,0,0,0,.28,1.12,2,2,0,0,0,.69.71,2.79,2.79,0,0,0,1,.37,4.88,4.88,0,0,0,1.19.06,6.35,6.35,0,0,0,2.07-.43,4.76,4.76,0,0,0,1.31-.8Zm-4.54-7.19a3.59,3.59,0,0,0-1,.22,3.12,3.12,0,0,0-.87.5,2.64,2.64,0,0,0-.64.76,2.33,2.33,0,0,0-.29,1l5.17-.34A1.93,1.93,0,0,0,510.57,357.33Z"/><path class="cls-4" d="M517.32,363.17l2.61-.18V357.1l-2.61.18V355l4.73-.34,0.32,1.36h0.08a6.16,6.16,0,0,1,1.35-1.25,3.52,3.52,0,0,1,1.77-.59,2.22,2.22,0,0,1,2,.78,4.81,4.81,0,0,1,.73,3l-2.46.18a2,2,0,0,0-.22-1.09,0.72,0.72,0,0,0-.7-0.29,2.22,2.22,0,0,0-1.36.52,4.72,4.72,0,0,0-.87,1v4.47l4.56-.34v2.31l-9.9.72v-2.31Z"/><path class="cls-4" d="M538.67,368.32a9.14,9.14,0,0,1-2.86-.69,7.47,7.47,0,0,1-2.46-1.68,8,8,0,0,1-1.71-2.72,10.52,10.52,0,0,1-.64-3.86,11.36,11.36,0,0,1,.64-3.94,10.09,10.09,0,0,1,1.71-3,9.57,9.57,0,0,1,2.46-2.1,11.29,11.29,0,0,1,2.86-1.22l0.5,2.21a9.56,9.56,0,0,0-1.67.73,6.84,6.84,0,0,0-1.78,1.42,7.81,7.81,0,0,0-1.42,2.31,8.88,8.88,0,0,0-.58,3.41,7.43,7.43,0,0,0,.61,3.21,6.44,6.44,0,0,0,1.48,2.06,5.88,5.88,0,0,0,1.8,1.14,6.68,6.68,0,0,0,1.55.43Z"/><path class="cls-4" d="M553.19,358.08a4.93,4.93,0,0,1-.39,1.94,5.4,5.4,0,0,1-1.06,1.63,5.66,5.66,0,0,1-3.61,1.72,5.75,5.75,0,0,1-2-.17,4.16,4.16,0,0,1-1.67-.9,4.41,4.41,0,0,1-1.14-1.65,6.25,6.25,0,0,1-.42-2.4,10,10,0,0,1,.72-3.84,11.69,11.69,0,0,1,1.86-3.11,11,11,0,0,1,2.54-2.23,9.32,9.32,0,0,1,2.79-1.22l0.61,2.11a9,9,0,0,0-2.08.86,8.57,8.57,0,0,0-1.72,1.29,7.84,7.84,0,0,0-1.27,1.6,5.71,5.71,0,0,0-.7,1.76,3.65,3.65,0,0,1,1.26-1,5.11,5.11,0,0,1,3.61-.37,3.52,3.52,0,0,1,2.36,2.09A4.74,4.74,0,0,1,553.19,358.08Zm-2.65.34a2,2,0,0,0-.68-1.66,2.56,2.56,0,0,0-1.84-.43,3.25,3.25,0,0,0-1.51.51,3,3,0,0,0-1,1,3.82,3.82,0,0,0-.05.52c0,0.19,0,.34,0,0.45a2.69,2.69,0,0,0,.17,1,2,2,0,0,0,1.28,1.25,2.57,2.57,0,0,0,1.07.11,2.75,2.75,0,0,0,.95-0.26,3,3,0,0,0,.82-0.56,2.75,2.75,0,0,0,.58-0.82A2.37,2.37,0,0,0,550.54,358.42Z"/><path class="cls-4" d="M556,364.85l9.32-.86c0,0.9,0,1.35,0,2.25l-9.32.86v-2.25Z"/><path class="cls-4" d="M578.38,355.7a5,5,0,0,1-.39,1.95,5.49,5.49,0,0,1-1.06,1.64,5.74,5.74,0,0,1-3.61,1.77,5.74,5.74,0,0,1-2-.15,4.09,4.09,0,0,1-1.67-.88,4.34,4.34,0,0,1-1.13-1.63,6.21,6.21,0,0,1-.42-2.4,10.08,10.08,0,0,1,.72-3.85,11.89,11.89,0,0,1,1.86-3.13,11.21,11.21,0,0,1,2.54-2.26A9.46,9.46,0,0,1,576,345.5l0.61,2.1a9,9,0,0,0-2.08.89,8.69,8.69,0,0,0-1.72,1.31,8,8,0,0,0-1.27,1.62,5.79,5.79,0,0,0-.7,1.77,3.72,3.72,0,0,1,1.26-1,5.12,5.12,0,0,1,3.61-.42,3.46,3.46,0,0,1,2.36,2.06A4.72,4.72,0,0,1,578.38,355.7Zm-2.64.37a2,2,0,0,0-.68-1.65,2.53,2.53,0,0,0-1.84-.41,3.28,3.28,0,0,0-1.51.53,3.08,3.08,0,0,0-1,1,3.83,3.83,0,0,0-.05.52c0,0.19,0,.34,0,0.45a2.68,2.68,0,0,0,.17.95,2,2,0,0,0,1.28,1.23,2.55,2.55,0,0,0,1.07.1,2.78,2.78,0,0,0,.94-0.27,3.09,3.09,0,0,0,.82-0.58,2.81,2.81,0,0,0,.58-0.82A2.39,2.39,0,0,0,575.74,356.07Z"/><path class="cls-4" d="M584.49,357.51a4.88,4.88,0,0,0,1.28-.3,3.62,3.62,0,0,0,1-.59,2.61,2.61,0,0,0,.67-0.85,2.39,2.39,0,0,0,.24-1.08,1.88,1.88,0,0,0-.91-1.72,4.4,4.4,0,0,0-2.74-.38l-0.53.07-0.58.09-0.65.09v-7.69l7.59-.8v2.56l-5.24.55c0,1.13,0,1.7,0,2.83l0.34-.06,0.28,0,0.24,0a5.88,5.88,0,0,1,2,.1A3.88,3.88,0,0,1,589,351a3.56,3.56,0,0,1,1,1.37,4.63,4.63,0,0,1,.37,1.88,5.17,5.17,0,0,1-.46,2.22,5.27,5.27,0,0,1-1.26,1.7,6.44,6.44,0,0,1-1.85,1.15,8,8,0,0,1-2.24.56,5.41,5.41,0,0,1-1,0q-0.53,0-1-.12a8.39,8.39,0,0,1-.93-0.21q-0.43-.12-0.72-0.24l0.88-2.27a5.68,5.68,0,0,0,1.1.35A4.68,4.68,0,0,0,584.49,357.51Z"/><path class="cls-4" d="M603.07,357.61l-9.35,1v-2l0.63-.62,0.85-.88q0.47-.49,1-1.08t1-1.21q0.71-.88,1.25-1.59a12.15,12.15,0,0,0,.88-1.33,5.73,5.73,0,0,0,.51-1.19,4.14,4.14,0,0,0,.17-1.16,1.76,1.76,0,0,0-.19-0.8,1.9,1.9,0,0,0-.52-0.65,2.19,2.19,0,0,0-.81-0.39,2.8,2.8,0,0,0-1-.06,4.17,4.17,0,0,0-1.37.38,5.44,5.44,0,0,0-1.29.92l-1.09-1.81a10.69,10.69,0,0,1,2-1.27,7.2,7.2,0,0,1,2.49-.71,5.76,5.76,0,0,1,1.73.06,4,4,0,0,1,1.47.58,3.07,3.07,0,0,1,1,1.11,3.42,3.42,0,0,1,.38,1.66,6.33,6.33,0,0,1-.47,2.46,9.06,9.06,0,0,1-.63,1.26q-0.39.65-.93,1.43-0.42.59-.91,1.2t-1,1.17q-0.48.56-1,1.05T597,356l6-.68v2.31Z"/><path class="cls-4" d="M606.32,359.69l9.3-1.09c0,0.9,0,1.35,0,2.25l-9.31,1.09v-2.25Z"/><path class="cls-4" d="M618.51,352.21a3.85,3.85,0,0,1,.24-1.37,4.86,4.86,0,0,1,.63-1.17,6.34,6.34,0,0,1,.89-1,10.09,10.09,0,0,1,1-.81,5.42,5.42,0,0,1-1.74-1.23,2.83,2.83,0,0,1-.69-2,3.65,3.65,0,0,1,.36-1.58,4.47,4.47,0,0,1,1-1.36,5.57,5.57,0,0,1,1.52-1,6.5,6.5,0,0,1,1.91-.53,5.89,5.89,0,0,1,1.77,0,4.2,4.2,0,0,1,1.45.53,2.8,2.8,0,0,1,1,1,2.77,2.77,0,0,1,.36,1.41,4.09,4.09,0,0,1-.64,2.24,6.76,6.76,0,0,1-1.75,1.82,5.43,5.43,0,0,1,2,1.28,3,3,0,0,1,.74,2.17,3.9,3.9,0,0,1-.41,1.76,4.94,4.94,0,0,1-1.1,1.45,6.05,6.05,0,0,1-1.62,1.05,6.81,6.81,0,0,1-2,.55,6.24,6.24,0,0,1-1.95,0,4.51,4.51,0,0,1-1.57-.6,3,3,0,0,1-1-1.09A3.1,3.1,0,0,1,618.51,352.21Zm7.46-1.28a1.36,1.36,0,0,0-.27-0.87,2.47,2.47,0,0,0-.68-0.59,5.43,5.43,0,0,0-.9-0.42l-1-.37a4.87,4.87,0,0,0-1.61,1.39,2.56,2.56,0,0,0-.56,1.44,1.52,1.52,0,0,0,.67,1.38,2.77,2.77,0,0,0,1.86.28,3.3,3.3,0,0,0,1.76-.71A1.89,1.89,0,0,0,626,350.93Zm-4.5-6.48a1.43,1.43,0,0,0,.22.82,1.93,1.93,0,0,0,.57.54,3.83,3.83,0,0,0,.79.38l0.88,0.31a4.88,4.88,0,0,0,.66-0.5,4.36,4.36,0,0,0,.58-0.63,3.68,3.68,0,0,0,.41-0.68,1.63,1.63,0,0,0,.16-0.68,1.37,1.37,0,0,0-.19-0.74,1.57,1.57,0,0,0-.49-0.5,1.89,1.89,0,0,0-.68-0.26,2.54,2.54,0,0,0-.78,0,2.58,2.58,0,0,0-.85.25,2.86,2.86,0,0,0-.67.46,2,2,0,0,0-.44.6A1.51,1.51,0,0,0,621.47,344.45Z"/><path class="cls-4" d="M630.62,346.92a13.18,13.18,0,0,1,.4-3.4,8,8,0,0,1,1.12-2.53,5.63,5.63,0,0,1,1.73-1.64,5.79,5.79,0,0,1,2.25-.76,4.28,4.28,0,0,1,4.08,1.32q1.43,1.67,1.43,5.58a13.25,13.25,0,0,1-.4,3.42,8.15,8.15,0,0,1-1.12,2.54,5.57,5.57,0,0,1-1.74,1.66,5.85,5.85,0,0,1-2.26.77,4.14,4.14,0,0,1-4.08-1.44Q630.62,350.66,630.62,346.92Zm2.72-.35c0,0.21,0,.41,0,0.6s0,0.38,0,.57l5.07-5.34a2,2,0,0,0-2.35-1.5,2.64,2.64,0,0,0-2,1.56A9.24,9.24,0,0,0,633.34,346.57Zm5.57-.73q0-.34,0-0.64c0-.2,0-0.4,0-0.59L633.78,350a2,2,0,0,0,2.35,1.61,2.67,2.67,0,0,0,2.06-1.55A9.25,9.25,0,0,0,638.91,345.84Z"/><path class="cls-4" d="M643.18,345.28a13.23,13.23,0,0,1,.4-3.4,8.05,8.05,0,0,1,1.12-2.53,5.69,5.69,0,0,1,1.73-1.65,5.81,5.81,0,0,1,2.25-.78,4.25,4.25,0,0,1,4.07,1.3q1.43,1.66,1.43,5.57a13.29,13.29,0,0,1-.4,3.43,8.22,8.22,0,0,1-1.12,2.55,5.62,5.62,0,0,1-1.74,1.67,5.87,5.87,0,0,1-2.26.78,4.11,4.11,0,0,1-4.07-1.41Q643.18,349,643.18,345.28Zm2.72-.37c0,0.21,0,.41,0,0.6s0,0.38,0,.57l5.06-5.37a2,2,0,0,0-2.34-1.48,2.66,2.66,0,0,0-2,1.57A9.27,9.27,0,0,0,645.9,344.91Zm5.56-.76q0-.34,0-0.64c0-.2,0-0.4,0-0.59l-5.08,5.38a2,2,0,0,0,2.34,1.59,2.69,2.69,0,0,0,2.05-1.56A9.28,9.28,0,0,0,651.46,344.15Z"/><path class="cls-4" d="M659.49,349.05a1.66,1.66,0,0,1,.47-1.2,2,2,0,0,1,1.18-.59,1.81,1.81,0,0,1,1.74.51,2.62,2.62,0,0,1,.59,1.78,4.35,4.35,0,0,1-.37,1.78,5.55,5.55,0,0,1-1,1.48,6.37,6.37,0,0,1-1.31,1.11,6.18,6.18,0,0,1-1.43.69l-0.56-1.08a7.05,7.05,0,0,0,1-.5,5,5,0,0,0,.93-0.71,4,4,0,0,0,.7-0.91,2.53,2.53,0,0,0,.32-1.05,2.75,2.75,0,0,1-1.07.18,1.39,1.39,0,0,1-.72-0.23,1.13,1.13,0,0,1-.41-0.53A2,2,0,0,1,659.49,349.05Z"/><path class="cls-4" d="M672.66,346.46a4.67,4.67,0,0,0,1.26-.37,3.61,3.61,0,0,0,1-.65,3,3,0,0,0,.64-0.85,2.15,2.15,0,0,0,.23-1,1.79,1.79,0,0,0-.26-1,1.52,1.52,0,0,0-.72-0.57,3.12,3.12,0,0,0-1.11-.19,8.85,8.85,0,0,0-1.4.1l-1.17.17c0-.6,0-0.9,0-1.51l3.51-4.83-5.29.79v-2.31l8.52-1.27v1.91l-3.68,4.78,0.48-.07a3.94,3.94,0,0,1,1.42,0,2.91,2.91,0,0,1,1.22.57,3,3,0,0,1,.86,1.13,4,4,0,0,1,.32,1.69,4.78,4.78,0,0,1-.49,2.17,5.94,5.94,0,0,1-1.29,1.72,6.67,6.67,0,0,1-1.85,1.2,8.34,8.34,0,0,1-2.15.63,10.48,10.48,0,0,1-1.88.11,8.24,8.24,0,0,1-1.82-.26l0.73-2.38a2.52,2.52,0,0,0,.51.13l0.73,0.1a7.53,7.53,0,0,0,.84,0A5.74,5.74,0,0,0,672.66,346.46Z"/><path class="cls-4" d="M682.52,349.14a8.38,8.38,0,0,0,1.55-.8,8.17,8.17,0,0,0,1.78-1.56,8.89,8.89,0,0,0,1.47-2.4,8.49,8.49,0,0,0,.61-3.35,7.92,7.92,0,0,0-.57-3.27,5.69,5.69,0,0,0-1.41-2,4.91,4.91,0,0,0-1.76-1,7.71,7.71,0,0,0-1.66-.34l0.5-2.32a9.18,9.18,0,0,1,2.84.55,6.81,6.81,0,0,1,2.44,1.53,7.43,7.43,0,0,1,1.7,2.62,10.2,10.2,0,0,1,.64,3.79,11.85,11.85,0,0,1-.64,4,10.9,10.9,0,0,1-1.7,3.12,10.42,10.42,0,0,1-2.44,2.25,11.27,11.27,0,0,1-2.84,1.36Z"/><path class="cls-4" d="M68.08,449v-2.53l2.7,0.43V440.5l-2.72-.43v-2.53L70.78,438v-0.64a3.87,3.87,0,0,1,.38-1.8,3,3,0,0,1,1-1.13,3.42,3.42,0,0,1,1.43-.52,5.73,5.73,0,0,1,1.68,0,11.53,11.53,0,0,1,2.6.66,7.86,7.86,0,0,1,1.68.91l-0.87,2.14a12.24,12.24,0,0,0-1.13-.63,5.46,5.46,0,0,0-1.57-.45,2,2,0,0,0-1.73.3,2.21,2.21,0,0,0-.49,1.61l4.8,0.74v2.53l-4.8-.74v6.44l4.83,0.74v2.53C74.38,450,72.28,449.71,68.08,449Z"/><path class="cls-4" d="M82.24,440.51a11.13,11.13,0,0,1,2.12-.39,11.78,11.78,0,0,1,2.85.13,6.89,6.89,0,0,1,2,.59,4.14,4.14,0,0,1,1.35,1,3.74,3.74,0,0,1,.74,1.37,5.92,5.92,0,0,1,.23,1.69q0,1.17-.08,2t-0.08,1.46a10.13,10.13,0,0,0,0,1.09c0,0.21.05,0.43,0.07,0.63L93,450.29v2.53l-3.84-.56-0.3-1.61-0.11,0a3.19,3.19,0,0,1-1.3,1,4,4,0,0,1-2.27.18,4.47,4.47,0,0,1-2.71-1.33,3.65,3.65,0,0,1-1-2.59,3.35,3.35,0,0,1,.35-1.61,2.38,2.38,0,0,1,1-1,4.24,4.24,0,0,1,1.61-.42,9.24,9.24,0,0,1,2.1.1q0.41,0.06.86,0.17l1.11,0.26a2.28,2.28,0,0,0,0-.45v-0.44a1.7,1.7,0,0,0-.5-1.33,2.76,2.76,0,0,0-1.48-.6,6.65,6.65,0,0,0-2.09,0,11.83,11.83,0,0,0-1.57.36Zm3.89,9a2.52,2.52,0,0,0,1.63-.16,2.16,2.16,0,0,0,.79-0.75v-1.38l-0.68-.2a8.27,8.27,0,0,0-1-.2,4.67,4.67,0,0,0-.86,0,2.54,2.54,0,0,0-.77.14,1.21,1.21,0,0,0-.54.37,1,1,0,0,0-.2.64A1.51,1.51,0,0,0,84.9,449,2,2,0,0,0,86.13,449.54Z"/><path class="cls-4" d="M106.41,453.62a5.66,5.66,0,0,1-2.2.76,9.34,9.34,0,0,1-2.63,0,8.17,8.17,0,0,1-2.65-.81A6.55,6.55,0,0,1,97,452.06a6.29,6.29,0,0,1-1.2-2.09,7.69,7.69,0,0,1-.41-2.54,6,6,0,0,1,.48-2.51,4.43,4.43,0,0,1,1.34-1.72,4.87,4.87,0,0,1,2-.9,7.5,7.5,0,0,1,2.54,0,10.12,10.12,0,0,1,2.4.64,12.91,12.91,0,0,1,1.72.81v4l-2.52-.35v-2.12a6.93,6.93,0,0,0-1.42-.36,4.12,4.12,0,0,0-1.27,0,2.63,2.63,0,0,0-1.12.46,2.66,2.66,0,0,0-.8,1,3.26,3.26,0,0,0-.31,1.5,3.85,3.85,0,0,0,.25,1.39,3.85,3.85,0,0,0,1.84,2.07,4.48,4.48,0,0,0,1.5.48,5.09,5.09,0,0,0,2.14-.07,7.35,7.35,0,0,0,1.25-.47Z"/><path class="cls-4" d="M110.31,446.29L108,446v-2.53l2.27,0.31c0-1,0-1.57,0-2.62l3-.45v3.47l6,0.8v2.53l-6-.8V450a4.38,4.38,0,0,0,.66,2.65,2.66,2.66,0,0,0,1.86,1,3.84,3.84,0,0,0,1.12,0,3.76,3.76,0,0,0,.91-0.26,4.33,4.33,0,0,0,.73-0.41l0.61-.43,1.38,2.25a3.66,3.66,0,0,1-1,.71,7.11,7.11,0,0,1-1.26.5,7.21,7.21,0,0,1-1.41.26,6.56,6.56,0,0,1-1.44,0,5.68,5.68,0,0,1-3.86-2,7.45,7.45,0,0,1-1.29-4.74v-3.29Z"/><path class="cls-4" d="M122.2,451.1a6.66,6.66,0,0,1,.44-2.52,4.42,4.42,0,0,1,1.24-1.75,4.51,4.51,0,0,1,1.91-.94,7,7,0,0,1,2.49-.08,7.78,7.78,0,0,1,2.58.76,6.34,6.34,0,0,1,1.92,1.47,6.08,6.08,0,0,1,1.18,2.07,7.81,7.81,0,0,1,.4,2.53,6.68,6.68,0,0,1-.44,2.52,4.35,4.35,0,0,1-3.15,2.7,7,7,0,0,1-2.49.09,7.75,7.75,0,0,1-2.58-.77,6.34,6.34,0,0,1-1.91-1.48,6.11,6.11,0,0,1-1.18-2.07A7.82,7.82,0,0,1,122.2,451.1Zm3.07,0.4a4.83,4.83,0,0,0,.21,1.43,4,4,0,0,0,.6,1.2,3.25,3.25,0,0,0,.94.87,3.16,3.16,0,0,0,1.26.43,2.61,2.61,0,0,0,2.17-.58,3.34,3.34,0,0,0,.84-2.59,4.42,4.42,0,0,0-.78-2.66,3.09,3.09,0,0,0-2.22-1.26,3.41,3.41,0,0,0-1.19,0,2,2,0,0,0-1,.51,2.61,2.61,0,0,0-.63,1A4.7,4.7,0,0,0,125.27,451.49Z"/><path class="cls-4" d="M136.05,456.07l2.85,0.35V450l-2.85-.35V447.1l5.16,0.63,0.34,1.56h0.09a5.11,5.11,0,0,1,1.47-1.09,3.39,3.39,0,0,1,1.93-.28,3,3,0,0,1,2.17,1.27,6,6,0,0,1,.79,3.47l-2.69-.31a2.49,2.49,0,0,0-.24-1.24,1,1,0,0,0-.77-0.47,2.08,2.08,0,0,0-1.48.28,3.89,3.89,0,0,0-1,.94v4.9l5,0.59v2.53c-4.32-.51-6.49-0.77-10.81-1.3v-2.53Z"/><path class="cls-4" d="M150.28,457.77l4,0.46v-6.44l-4-.46V448.8l7,0.8v9l4.25,0.47v2.53c-4.51-.5-6.77-0.75-11.27-1.27v-2.53Zm3.49-11.7a1.44,1.44,0,0,1,.53-1.16,1.87,1.87,0,0,1,1.47-.34,2.5,2.5,0,0,1,1.54.68,1.77,1.77,0,0,1,.57,1.28,1.32,1.32,0,0,1-.57,1.14,2.17,2.17,0,0,1-1.54.3,2.37,2.37,0,0,1-1.47-.64A1.73,1.73,0,0,1,153.77,446.07Z"/><path class="cls-4" d="M164.77,451.2a11.56,11.56,0,0,1,2.12-.48,11.9,11.9,0,0,1,2.86,0,6.72,6.72,0,0,1,2,.5,3.92,3.92,0,0,1,1.36,1,3.55,3.55,0,0,1,.75,1.34,5.79,5.79,0,0,1,.23,1.68q0,1.17-.08,2T174,458.66a10,10,0,0,0,0,1.09c0,0.21.05,0.43,0.07,0.63l1.49,0.15v2.53l-3.86-.4-0.3-1.6H171.3a3.4,3.4,0,0,1-1.3,1.09,4.1,4.1,0,0,1-2.28.28A4.29,4.29,0,0,1,165,461.2a3.5,3.5,0,0,1-1-2.55,3.42,3.42,0,0,1,.35-1.63,2.54,2.54,0,0,1,1-1,4.41,4.41,0,0,1,1.62-.49,9.34,9.34,0,0,1,2.11,0q0.41,0,.87.14l1.12,0.21a2.29,2.29,0,0,0,0-.46V455a1.63,1.63,0,0,0-.5-1.31,2.66,2.66,0,0,0-1.48-.54,6.7,6.7,0,0,0-2.1.08,12.19,12.19,0,0,0-1.57.43Zm3.91,8.86a2.58,2.58,0,0,0,1.64-.23,2.31,2.31,0,0,0,.8-0.78v-1.38l-0.68-.18a8.23,8.23,0,0,0-1-.16,4.64,4.64,0,0,0-.86,0,2.65,2.65,0,0,0-.77.17,1.29,1.29,0,0,0-.55.39,1,1,0,0,0-.2.65,1.45,1.45,0,0,0,.37,1A1.94,1.94,0,0,0,168.68,460.06Z"/><path class="cls-4" d="M178.49,447.25l4.9,0.49v10.63a5.2,5.2,0,0,0,.44,2.5,1.72,1.72,0,0,0,1.4.83,3.76,3.76,0,0,0,1.17,0,4,4,0,0,0,.92-0.34l1.13,2.18q-0.39.22-.78,0.4a4.59,4.59,0,0,1-.83.29,5.31,5.31,0,0,1-1,.14,7.53,7.53,0,0,1-1.16,0,4.78,4.78,0,0,1-3.24-1.42,4.68,4.68,0,0,1-1.08-3.24V450l-1.91-.19v-2.53Z"/><path class="cls-4" d="M200.75,470.35a11.6,11.6,0,0,1-3.13-1.29,10.44,10.44,0,0,1-2.69-2.29,11,11,0,0,1-1.87-3.3,12.53,12.53,0,0,1-.7-4.34,11.46,11.46,0,0,1,.7-4.2,8.84,8.84,0,0,1,1.87-3,8.2,8.2,0,0,1,2.69-1.85,10.61,10.61,0,0,1,3.13-.8l0.55,2.51a8.9,8.9,0,0,0-1.83.49,5.89,5.89,0,0,0-1.94,1.23,6.79,6.79,0,0,0-1.55,2.26,9.26,9.26,0,0,0,1.66,9.78,8.16,8.16,0,0,0,2,1.58,8.69,8.69,0,0,0,1.7.76Z"/><path class="cls-4" d="M206.52,463.45l3.52,0.3V453.7l-3,2.06-1.38-2,5.25-3.55,2,0.17V464l3.45,0.28v2.53c-3.93-.32-5.9-0.49-9.83-0.83v-2.53Z"/><path class="cls-4" d="M220.33,464.6l3.52,0.28V454.82l-3,2.08L219.43,455l5.25-3.59,2,0.16V465.1l3.45,0.26v2.53c-3.93-.29-5.9-0.44-9.83-0.76V464.6Z"/><path class="cls-4" d="M234.46,470.57a7.43,7.43,0,0,0,1.7-.49,6.52,6.52,0,0,0,2-1.26,7.15,7.15,0,0,0,1.62-2.27,8.17,8.17,0,0,0,.67-3.52,9.68,9.68,0,0,0-.63-3.72,8.49,8.49,0,0,0-1.55-2.51,7.42,7.42,0,0,0-1.95-1.54,10.4,10.4,0,0,0-1.83-.79L235,452a12.28,12.28,0,0,1,3.13,1.3,10.33,10.33,0,0,1,2.69,2.28,10.93,10.93,0,0,1,1.88,3.29,12.39,12.39,0,0,1,.7,4.31,11.58,11.58,0,0,1-.7,4.23,8.89,8.89,0,0,1-1.88,3,8.29,8.29,0,0,1-2.69,1.86,10.07,10.07,0,0,1-3.13.79Z"/><path class="cls-4" d="M386.11,473.33V470.8h2.72v-6.44h-2.74v-2.53h2.74v-0.64a4.23,4.23,0,0,1,.38-1.87,3.78,3.78,0,0,1,1-1.29,4.15,4.15,0,0,1,1.44-.76,6,6,0,0,1,1.7-.25,10.8,10.8,0,0,1,2.62.24,6.65,6.65,0,0,1,1.7.64l-0.88,2.29a10.37,10.37,0,0,0-1.14-.45,5,5,0,0,0-1.58-.19,2.26,2.26,0,0,0-1.74.58,2.51,2.51,0,0,0-.5,1.69l4.84,0v2.53l-4.84,0v6.44l4.87,0v2.53C392.46,473.3,390.35,473.31,386.11,473.33Z"/><path class="cls-4" d="M400.39,462.5a12.74,12.74,0,0,1,2.13-.74,12.23,12.23,0,0,1,2.87-.34,6.36,6.36,0,0,1,2,.26,3.35,3.35,0,0,1,1.36.79,3,3,0,0,1,.75,1.25,5.49,5.49,0,0,1,.23,1.65q0,1.17-.08,2t-0.08,1.47a9.82,9.82,0,0,0,0,1.08c0,0.21.05,0.42,0.07,0.62l1.5,0v2.53l-3.87.06-0.3-1.56h-0.11a4.06,4.06,0,0,1-1.31,1.25,4.41,4.41,0,0,1-2.29.55,3.85,3.85,0,0,1-2.73-.89,3.11,3.11,0,0,1-1-2.43,3.68,3.68,0,0,1,.35-1.67,3,3,0,0,1,1-1.16,5,5,0,0,1,1.63-.69,9.57,9.57,0,0,1,2.12-.25c0.27,0,.57,0,0.87,0l1.12,0.08a2.37,2.37,0,0,0,0-.46v-0.44a1.45,1.45,0,0,0-.5-1.25,2.43,2.43,0,0,0-1.49-.36,7,7,0,0,0-2.11.33,13.69,13.69,0,0,0-1.58.62Zm3.93,8.39a2.53,2.53,0,0,0,2.44-1.3v-1.38l-0.68-.09a7.91,7.91,0,0,0-1,0,4.79,4.79,0,0,0-.87.09,2.93,2.93,0,0,0-.78.26,1.54,1.54,0,0,0-.55.46,1.09,1.09,0,0,0-.2.67,1.29,1.29,0,0,0,.38,1A1.75,1.75,0,0,0,404.32,470.89Z"/><path class="cls-4" d="M424.75,471.67a6.8,6.8,0,0,1-2.21,1.12,9.81,9.81,0,0,1-2.65.42,7.47,7.47,0,0,1-2.66-.38,5.29,5.29,0,0,1-2-1.19,5.09,5.09,0,0,1-1.21-1.9,7.08,7.08,0,0,1-.42-2.48,6.54,6.54,0,0,1,.48-2.59,5.58,5.58,0,0,1,1.35-1.94,6,6,0,0,1,2-1.23,8,8,0,0,1,2.56-.46,9.39,9.39,0,0,1,2.42.24,11.2,11.2,0,0,1,1.73.53v4l-2.54.06v-2.12a6.45,6.45,0,0,0-1.43-.13,4.39,4.39,0,0,0-1.28.22,3.22,3.22,0,0,0-1.13.65,3.36,3.36,0,0,0-.81,1.09,3.55,3.55,0,0,0-.31,1.55,3.51,3.51,0,0,0,.25,1.35,3.07,3.07,0,0,0,1.86,1.77,4.08,4.08,0,0,0,1.51.23,5.46,5.46,0,0,0,2.16-.42,9,9,0,0,0,1.26-.67Z"/><path class="cls-4" d="M428.67,463.71l-2.28.06v-2.53l2.28-.06v-2.62l3-.93c0,1.39,0,2.08,0,3.47l6-.18v2.53l-6,.18v3.29a3.87,3.87,0,0,0,.67,2.55,2.24,2.24,0,0,0,1.87.74,4,4,0,0,0,1.13-.18,4.42,4.42,0,0,0,.91-0.41,5.42,5.42,0,0,0,.74-0.53l0.61-.52,1.38,2a4.65,4.65,0,0,1-1,.87,8.67,8.67,0,0,1-1.27.71,8.27,8.27,0,0,1-1.42.49,6.84,6.84,0,0,1-1.45.2,4.85,4.85,0,0,1-3.89-1.33q-1.3-1.4-1.3-4.53v-3.29Z"/><path class="cls-4" d="M440.64,466.58a7.18,7.18,0,0,1,.44-2.59,5.44,5.44,0,0,1,3.17-3.2,7.54,7.54,0,0,1,2.5-.49,7.13,7.13,0,0,1,2.59.34,5.1,5.1,0,0,1,1.93,1.16,4.92,4.92,0,0,1,1.19,1.87,7.82,7.82,0,0,1,0,5.06,5.46,5.46,0,0,1-3.17,3.21,7.48,7.48,0,0,1-2.5.49,7.09,7.09,0,0,1-2.59-.35,5.12,5.12,0,0,1-1.93-1.17A4.94,4.94,0,0,1,441,469,7.22,7.22,0,0,1,440.64,466.58Zm3.09-.1a4.49,4.49,0,0,0,.21,1.4,3.3,3.3,0,0,0,.6,1.11,2.57,2.57,0,0,0,.94.71,2.84,2.84,0,0,0,1.27.22,3,3,0,0,0,2.18-.93,4.66,4.66,0,0,0,.06-5.26,2.61,2.61,0,0,0-2.24-.9,3.64,3.64,0,0,0-1.2.24,2.48,2.48,0,0,0-1,.67,3.24,3.24,0,0,0-.63,1.13A5,5,0,0,0,443.73,466.48Z"/><path class="cls-4" d="M454.57,469.3l2.86-.11v-6.44l-2.86.11v-2.53l5.19-.21,0.35,1.5h0.09a6.5,6.5,0,0,1,1.48-1.33,3.77,3.77,0,0,1,1.94-.59,2.5,2.5,0,0,1,2.18.92,5.39,5.39,0,0,1,.79,3.34l-2.7.12a2.25,2.25,0,0,0-.24-1.2,0.81,0.81,0,0,0-.77-0.35,2.37,2.37,0,0,0-1.49.52,5,5,0,0,0-1,1.1v4.9l5-.22v2.53c-4.34.19-6.52,0.29-10.86,0.46V469.3Z"/><path class="cls-4" d="M468.86,468.69l4.06-.19c0-2.58,0-3.86,0-6.44l-4.06.19v-2.53l7.05-.34v9l4.26-.22c0,1,0,1.52,0,2.53-4.53.24-6.79,0.35-11.32,0.56v-2.53Zm3.5-12.26a1.71,1.71,0,0,1,.53-1.24,2.14,2.14,0,0,1,1.47-.58,2.16,2.16,0,0,1,1.54.43,1.48,1.48,0,0,1,.58,1.19,1.57,1.57,0,0,1-.58,1.24,2.47,2.47,0,0,1-1.54.55,2.06,2.06,0,0,1-1.47-.4A1.47,1.47,0,0,1,472.37,456.42Z"/><path class="cls-4" d="M483.41,459.77a13.26,13.26,0,0,1,2.13-.83,12.43,12.43,0,0,1,2.87-.46,6.26,6.26,0,0,1,2,.17,3.16,3.16,0,0,1,1.36.74,2.87,2.87,0,0,1,.75,1.22,5.4,5.4,0,0,1,.23,1.64q0,1.17-.08,2t-0.08,1.48a9.79,9.79,0,0,0,0,1.08c0,0.21.05,0.42,0.07,0.62l1.5-.09v2.53l-3.87.23-0.3-1.55H490a4.32,4.32,0,0,1-1.31,1.31,4.54,4.54,0,0,1-2.29.65,3.71,3.71,0,0,1-2.73-.77,3,3,0,0,1-1-2.38,3.78,3.78,0,0,1,.35-1.69,3.22,3.22,0,0,1,1-1.21,5.21,5.21,0,0,1,1.63-.76,9.75,9.75,0,0,1,2.12-.34c0.27,0,.56,0,0.87,0l1.12,0a2.41,2.41,0,0,0,0-.46v-0.44a1.39,1.39,0,0,0-.5-1.23,2.36,2.36,0,0,0-1.49-.29,7.12,7.12,0,0,0-2.1.42,14.27,14.27,0,0,0-1.58.68Zm3.92,8.23a2.88,2.88,0,0,0,1.64-.5,2.94,2.94,0,0,0,.8-0.91v-1.38l-0.68-.06a7.78,7.78,0,0,0-1,0,4.8,4.8,0,0,0-.87.13,3.06,3.06,0,0,0-.77.3,1.64,1.64,0,0,0-.55.48,1.13,1.13,0,0,0-.2.68,1.24,1.24,0,0,0,.38,1A1.7,1.7,0,0,0,487.33,468Z"/><path class="cls-4" d="M497.16,453.59l4.91-.31c0,4.25,0,6.38,0,10.63a4.76,4.76,0,0,0,.44,2.43,1.44,1.44,0,0,0,1.41.6,4,4,0,0,0,1.17-.23,4.83,4.83,0,0,0,.92-0.49l1.13,2q-0.39.28-.78,0.52a5.46,5.46,0,0,1-.83.42,5.91,5.91,0,0,1-1,.29,7.76,7.76,0,0,1-1.16.16,4.13,4.13,0,0,1-3.25-.9,4,4,0,0,1-1.08-3.06V456l-1.91.12v-2.53Z"/><path class="cls-4" d="M510.78,471.51c4.09-.28,6.14-0.42,10.22-0.72,0,1,0,1.48,0,2.46-4.09.3-6.13,0.44-10.22,0.72v-2.46Z"/><path class="cls-4" d="M522.8,451.86l4.65-.35v5.89h0.09a4.34,4.34,0,0,1,1.47-1.29,5.75,5.75,0,0,1,3.78-.5,2.76,2.76,0,0,1,1.27.66,3.22,3.22,0,0,1,.83,1.37,7,7,0,0,1,.3,2.22V467l-3,.24v-6.53a2.67,2.67,0,0,0-.6-2,1.94,1.94,0,0,0-1.57-.5,2.8,2.8,0,0,0-1.56.64,3.12,3.12,0,0,0-1,1.4v7.34l-3,.23c0-5.43,0-8.14,0-13.57l-1.66.12v-2.53Z"/><path class="cls-4" d="M548.9,464.64a4.62,4.62,0,0,1-.77.61,8.22,8.22,0,0,1-1.1.59,9.1,9.1,0,0,1-1.39.49,9.24,9.24,0,0,1-1.61.28,7.59,7.59,0,0,1-2.64-.19,4.6,4.6,0,0,1-3.2-2.85,6.82,6.82,0,0,1-.43-2.51,7,7,0,0,1,.48-2.7,6,6,0,0,1,1.32-2,6.19,6.19,0,0,1,2-1.3,8,8,0,0,1,2.44-.58,7.39,7.39,0,0,1,1.81.08,4.51,4.51,0,0,1,1.71.65,3.75,3.75,0,0,1,1.28,1.4,4.85,4.85,0,0,1,.5,2.35,11.26,11.26,0,0,1-.23,2.16l-8.28.71a2.51,2.51,0,0,0,.31,1.22,2.17,2.17,0,0,0,.76.76,3,3,0,0,0,1.08.38,5.29,5.29,0,0,0,1.3,0,7,7,0,0,0,2.27-.52,5.35,5.35,0,0,0,1.44-.91Zm-5-7.78a4,4,0,0,0-1.13.26,3.5,3.5,0,0,0-1,.56,3,3,0,0,0-.7.84,2.58,2.58,0,0,0-.32,1.08l5.66-.48A2.07,2.07,0,0,0,543.93,456.86Z"/><path class="cls-4" d="M552.42,449.45l4.9-.44v10.63a4.69,4.69,0,0,0,.44,2.42,1.4,1.4,0,0,0,1.4.56,4.06,4.06,0,0,0,1.17-.26,5,5,0,0,0,.92-0.51l1.13,2q-0.39.29-.78,0.54a5.66,5.66,0,0,1-.83.45,6,6,0,0,1-1,.32,7.77,7.77,0,0,1-1.16.19,4,4,0,0,1-3.24-.81,3.94,3.94,0,0,1-1.08-3v-9.66l-1.91.17v-2.53Z"/><path class="cls-4" d="M564.21,453l3.91-.38,0.34,1.35h0.09a4.9,4.9,0,0,1,3.86-2.08,5.28,5.28,0,0,1,1.94.14,3.32,3.32,0,0,1,1.52.89,4.34,4.34,0,0,1,1,1.69,8.27,8.27,0,0,1,.34,2.56,8.83,8.83,0,0,1-.39,2.7,6.4,6.4,0,0,1-1.13,2.13,5.56,5.56,0,0,1-1.79,1.44,6.67,6.67,0,0,1-2.41.68,9.32,9.32,0,0,1-1.4,0,3.6,3.6,0,0,1-1.15-.22v4.71l-3,.29V455.33l-1.72.17V453Zm7.31,1.5a3.3,3.3,0,0,0-1.6.59,2.6,2.6,0,0,0-1,1.41v4.78a2.22,2.22,0,0,0,.93.31,5,5,0,0,0,1.23,0,3.41,3.41,0,0,0,1.2-.34,2.82,2.82,0,0,0,1-.8,3.84,3.84,0,0,0,.64-1.28,6.23,6.23,0,0,0,.23-1.79,3.13,3.13,0,0,0-.74-2.27A2.17,2.17,0,0,0,571.52,454.46Z"/><path class="cls-4" d="M590.27,460.59a4.77,4.77,0,0,1-.77.62,8.44,8.44,0,0,1-1.1.61,9.46,9.46,0,0,1-3,.83,7.53,7.53,0,0,1-2.63-.14,4.46,4.46,0,0,1-3.19-2.79,6.75,6.75,0,0,1-.42-2.5,7.14,7.14,0,0,1,.48-2.71,6.13,6.13,0,0,1,1.32-2,6.36,6.36,0,0,1,2-1.34,8.11,8.11,0,0,1,2.44-.64,7.37,7.37,0,0,1,1.8,0,4.42,4.42,0,0,1,1.71.61,3.64,3.64,0,0,1,1.27,1.37,4.8,4.8,0,0,1,.49,2.34,11.35,11.35,0,0,1-.23,2.17l-8.27.88a2.47,2.47,0,0,0,.31,1.21,2.11,2.11,0,0,0,.76.75,3,3,0,0,0,1.08.36,5.27,5.27,0,0,0,1.3,0,7.11,7.11,0,0,0,2.26-.56,5.49,5.49,0,0,0,1.44-.94Zm-5-7.68a4,4,0,0,0-1.13.28,3.6,3.6,0,0,0-1,.58,3,3,0,0,0-.7.86,2.62,2.62,0,0,0-.32,1.09l5.65-.6A2,2,0,0,0,585.31,452.91Z"/><path class="cls-4" d="M592.69,459l2.85-.31v-6.44l-2.85.31V450l5.17-.57,0.34,1.48h0.09a7.2,7.2,0,0,1,1.47-1.43,4,4,0,0,1,1.93-.73,2.33,2.33,0,0,1,2.17.76,5.14,5.14,0,0,1,.79,3.29l-2.69.31a2.16,2.16,0,0,0-.24-1.18,0.75,0.75,0,0,0-.77-0.29,2.53,2.53,0,0,0-1.48.63,5.51,5.51,0,0,0-1,1.17v4.9l5-.57v2.53c-4.33.5-6.49,0.74-10.82,1.22V459Z"/><path class="cls-4" d="M616,463.71a9.67,9.67,0,0,1-3.12-.63,7.71,7.71,0,0,1-2.68-1.73,8.33,8.33,0,0,1-1.87-2.91,11.33,11.33,0,0,1-.7-4.2,12.71,12.71,0,0,1,.7-4.35,11.64,11.64,0,0,1,1.87-3.38,11.09,11.09,0,0,1,2.68-2.42,12.89,12.89,0,0,1,3.12-1.46l0.55,2.39a10.84,10.84,0,0,0-1.82.88,7.92,7.92,0,0,0-1.94,1.64,9.05,9.05,0,0,0-1.55,2.59,9.94,9.94,0,0,0-.63,3.75,8,8,0,0,0,.67,3.49,6.67,6.67,0,0,0,1.62,2.19,6.06,6.06,0,0,0,2,1.17,7.1,7.1,0,0,0,1.7.4Z"/><path class="cls-4" d="M621.77,455.6l3.51-.44V445.1l-3,2.7-1.38-1.67,5.23-4.66,2-.26c0,5.43,0,8.14,0,13.57l3.44-.44c0,1,0,1.52,0,2.53l-9.79,1.25V455.6Z"/><path class="cls-4" d="M638.09,454.55a1.81,1.81,0,0,1,.52-1.31,2.16,2.16,0,0,1,1.3-.63,2,2,0,0,1,1.9.57,2.89,2.89,0,0,1,.64,2,4.73,4.73,0,0,1-.4,1.94,6,6,0,0,1-1,1.61,6.83,6.83,0,0,1-1.43,1.21,6.65,6.65,0,0,1-1.57.74l-0.62-1.18a7.61,7.61,0,0,0,1.11-.54,5.41,5.41,0,0,0,1-.77,4.34,4.34,0,0,0,.77-1,2.74,2.74,0,0,0,.36-1.15,3,3,0,0,1-1.17.19,1.54,1.54,0,0,1-.79-0.26,1.25,1.25,0,0,1-.45-0.58A2.21,2.21,0,0,1,638.09,454.55Z"/><path class="cls-4" d="M649.27,452l3.5-.49V441.42l-3,2.75-1.37-1.65,5.22-4.73,2-.29v13.57l3.43-.49v2.53c-3.91.56-5.87,0.84-9.78,1.39V452Z"/><path class="cls-4" d="M663,450l3.5-.52V439.44l-3,2.77-1.37-1.64,5.22-4.77,2-.3c0,5.43,0,8.14,0,13.57l3.43-.52v2.53L663,452.53V450Z"/><path class="cls-4" d="M677.06,452.8a9.22,9.22,0,0,0,1.69-.87,8.92,8.92,0,0,0,2-1.71,9.73,9.73,0,0,0,1.61-2.63,9.3,9.3,0,0,0,.66-3.67,8.67,8.67,0,0,0-.63-3.58,6.23,6.23,0,0,0-1.54-2.16,5.4,5.4,0,0,0-1.93-1.1,8.42,8.42,0,0,0-1.82-.38l0.55-2.55a10.07,10.07,0,0,1,3.11.6,7.46,7.46,0,0,1,2.67,1.68,8.12,8.12,0,0,1,1.86,2.87,11.17,11.17,0,0,1,.7,4.16,13,13,0,0,1-.7,4.39,11.92,11.92,0,0,1-1.86,3.42,11.41,11.41,0,0,1-2.67,2.46,12.35,12.35,0,0,1-3.11,1.49Z"/><path class="cls-4" d="M68.38,397.39v-2.53l2.7,0.42v-6.44l-2.72-.43c0-1,0-1.52,0-2.53l2.72,0.43v-0.64a3.87,3.87,0,0,1,.38-1.8,3,3,0,0,1,1-1.13,3.42,3.42,0,0,1,1.43-.52,5.73,5.73,0,0,1,1.68,0,11.56,11.56,0,0,1,2.6.66,7.9,7.9,0,0,1,1.68.91L79,385.95a12.3,12.3,0,0,0-1.13-.63,5.47,5.47,0,0,0-1.57-.45,2,2,0,0,0-1.73.3,2.21,2.21,0,0,0-.49,1.61l4.8,0.74c0,1,0,1.52,0,2.53l-4.8-.74v6.44l4.82,0.74c0,1,0,1.52,0,2.53C74.68,398.38,72.58,398,68.38,397.39Z"/><path class="cls-4" d="M82.54,388.86a11.14,11.14,0,0,1,2.12-.39,11.8,11.8,0,0,1,2.85.12,6.89,6.89,0,0,1,2,.59,4.14,4.14,0,0,1,1.35,1,3.74,3.74,0,0,1,.74,1.37,5.91,5.91,0,0,1,.23,1.69q0,1.17-.08,2c-0.05.54-.08,1-0.08,1.46a10,10,0,0,0,0,1.09c0,0.21.05,0.43,0.07,0.63l1.49,0.22c0,1,0,1.52,0,2.53l-3.84-.56L89.15,399,89,399a3.19,3.19,0,0,1-1.3,1,4,4,0,0,1-2.27.18,4.47,4.47,0,0,1-2.71-1.33,3.65,3.65,0,0,1-1-2.59,3.35,3.35,0,0,1,.35-1.61,2.39,2.39,0,0,1,1-1,4.24,4.24,0,0,1,1.61-.42,9.27,9.27,0,0,1,2.1.09q0.41,0.06.86,0.17l1.11,0.26a2.28,2.28,0,0,0,0-.45v-0.44a1.7,1.7,0,0,0-.5-1.33,2.76,2.76,0,0,0-1.48-.6,6.65,6.65,0,0,0-2.09,0,11.83,11.83,0,0,0-1.57.36Zm3.89,9a2.52,2.52,0,0,0,1.63-.16,2.18,2.18,0,0,0,.79-0.75V395.6l-0.68-.2a8.19,8.19,0,0,0-1-.2,4.63,4.63,0,0,0-.86,0,2.54,2.54,0,0,0-.77.14,1.21,1.21,0,0,0-.54.37,1,1,0,0,0-.2.64,1.51,1.51,0,0,0,.37,1.06A2,2,0,0,0,86.43,397.88Z"/><path class="cls-4" d="M106.71,402a5.66,5.66,0,0,1-2.2.76,9.34,9.34,0,0,1-2.63,0,8.16,8.16,0,0,1-2.65-.81,6.56,6.56,0,0,1-1.95-1.51,6.31,6.31,0,0,1-1.2-2.09,7.69,7.69,0,0,1-.41-2.54,6,6,0,0,1,.48-2.51,4.43,4.43,0,0,1,1.34-1.72,4.87,4.87,0,0,1,2-.9,7.52,7.52,0,0,1,2.54,0,10.11,10.11,0,0,1,2.4.64,13,13,0,0,1,1.72.81c0,1.62,0,2.43,0,4l-2.52-.35v-2.12a6.9,6.9,0,0,0-1.42-.36,4.14,4.14,0,0,0-1.27,0,2.57,2.57,0,0,0-1.92,1.42,3.25,3.25,0,0,0-.31,1.5,3.85,3.85,0,0,0,.25,1.39,3.85,3.85,0,0,0,1.84,2.07,4.48,4.48,0,0,0,1.5.48,5.09,5.09,0,0,0,2.14-.07,7.33,7.33,0,0,0,1.25-.47Z"/><path class="cls-4" d="M110.61,394.63l-2.27-.31c0-1,0-1.52,0-2.53l2.27,0.31c0-1,0-1.57,0-2.62l3-.45c0,1.39,0,2.08,0,3.47l6,0.8c0,1,0,1.52,0,2.53l-6-.8c0,1.32,0,2,0,3.29a4.38,4.38,0,0,0,.66,2.65,2.66,2.66,0,0,0,1.86,1,3.82,3.82,0,0,0,1.12,0,3.72,3.72,0,0,0,.91-0.26,4.34,4.34,0,0,0,.73-0.41l0.61-.43,1.38,2.25a3.67,3.67,0,0,1-1,.71,7.13,7.13,0,0,1-1.26.5,7.21,7.21,0,0,1-1.41.26,6.56,6.56,0,0,1-1.44,0,5.68,5.68,0,0,1-3.86-2,7.45,7.45,0,0,1-1.29-4.74C110.61,396.61,110.61,396,110.61,394.63Z"/><path class="cls-4" d="M122.5,399.44a6.65,6.65,0,0,1,.44-2.52,4.43,4.43,0,0,1,1.24-1.75,4.52,4.52,0,0,1,1.91-.94,7,7,0,0,1,2.49-.08,7.78,7.78,0,0,1,2.58.76,6.34,6.34,0,0,1,1.92,1.47,6.07,6.07,0,0,1,1.18,2.07,7.8,7.8,0,0,1,.4,2.53,6.68,6.68,0,0,1-.44,2.52,4.45,4.45,0,0,1-1.24,1.76,4.5,4.5,0,0,1-1.91.94,7,7,0,0,1-2.49.09,7.76,7.76,0,0,1-2.58-.77,6.36,6.36,0,0,1-1.92-1.48A6.11,6.11,0,0,1,122.9,402,7.82,7.82,0,0,1,122.5,399.44Zm3.07,0.4a4.85,4.85,0,0,0,.21,1.43,4,4,0,0,0,.6,1.2,3.25,3.25,0,0,0,.94.87,3.16,3.16,0,0,0,1.26.43,2.61,2.61,0,0,0,2.17-.58,3.34,3.34,0,0,0,.84-2.59,4.42,4.42,0,0,0-.78-2.66,3.09,3.09,0,0,0-2.23-1.26,3.42,3.42,0,0,0-1.19,0,2,2,0,0,0-1,.51,2.62,2.62,0,0,0-.63,1A4.71,4.71,0,0,0,125.58,399.84Z"/><path class="cls-4" d="M136.35,404.41l2.85,0.35c0-2.58,0-3.86,0-6.44l-2.85-.35c0-1,0-1.52,0-2.53l5.16,0.63,0.34,1.56H142a5.11,5.11,0,0,1,1.47-1.09,3.39,3.39,0,0,1,1.93-.28,3,3,0,0,1,2.17,1.27,6,6,0,0,1,.79,3.47l-2.69-.32a2.49,2.49,0,0,0-.24-1.24,1,1,0,0,0-.77-0.47,2.08,2.08,0,0,0-1.48.28,3.9,3.9,0,0,0-1,.94v4.9l5,0.59c0,1,0,1.52,0,2.53-4.32-.51-6.49-0.77-10.81-1.3C136.35,405.93,136.35,405.42,136.35,404.41Z"/><path class="cls-4" d="M150.58,406.11l4,0.46c0-2.58,0-3.86,0-6.44l-4-.46c0-1,0-1.52,0-2.53l7,0.8c0,3.59,0,5.38,0,9l4.25,0.47c0,1,0,1.52,0,2.53-4.51-.5-6.77-0.75-11.27-1.27C150.58,407.62,150.58,407.12,150.58,406.11Zm3.49-11.7a1.45,1.45,0,0,1,.53-1.16,1.86,1.86,0,0,1,1.47-.34,2.5,2.5,0,0,1,1.54.68,1.77,1.77,0,0,1,.57,1.28,1.32,1.32,0,0,1-.57,1.14,2.17,2.17,0,0,1-1.54.3,2.37,2.37,0,0,1-1.47-.64A1.73,1.73,0,0,1,154.07,394.41Z"/><path class="cls-4" d="M165.07,399.54a11.57,11.57,0,0,1,2.13-.48,11.87,11.87,0,0,1,2.86,0,6.73,6.73,0,0,1,2,.5,3.91,3.91,0,0,1,1.36,1,3.55,3.55,0,0,1,.75,1.34,5.8,5.8,0,0,1,.23,1.68q0,1.17-.08,2c-0.05.54-.08,1-0.08,1.46a10,10,0,0,0,0,1.09c0,0.21.05,0.43,0.07,0.63l1.49,0.15v2.53L172,411l-0.3-1.6H171.6a3.4,3.4,0,0,1-1.3,1.09,4.11,4.11,0,0,1-2.28.28,4.29,4.29,0,0,1-2.72-1.21,3.5,3.5,0,0,1-1-2.55,3.42,3.42,0,0,1,.35-1.63,2.54,2.54,0,0,1,1-1,4.41,4.41,0,0,1,1.62-.49,9.3,9.3,0,0,1,2.11,0q0.41,0,.87.14l1.12,0.21a2.3,2.3,0,0,0,0-.46V403.3a1.63,1.63,0,0,0-.5-1.31,2.67,2.67,0,0,0-1.48-.54,6.7,6.7,0,0,0-2.1.08,12.2,12.2,0,0,0-1.57.43ZM169,408.4a2.58,2.58,0,0,0,1.64-.23,2.31,2.31,0,0,0,.8-0.78V406l-0.68-.17a8.06,8.06,0,0,0-1-.16,4.68,4.68,0,0,0-.86,0,2.67,2.67,0,0,0-.77.17,1.3,1.3,0,0,0-.55.39,1,1,0,0,0-.2.65,1.45,1.45,0,0,0,.37,1A1.94,1.94,0,0,0,169,408.4Z"/><path class="cls-4" d="M178.79,395.59l4.9,0.49c0,4.25,0,6.38,0,10.63a5.19,5.19,0,0,0,.44,2.5,1.72,1.72,0,0,0,1.4.83,3.77,3.77,0,0,0,1.17,0,4,4,0,0,0,.92-0.34l1.13,2.18q-0.39.22-.78,0.4a4.58,4.58,0,0,1-.83.29,5.26,5.26,0,0,1-1,.14,7.53,7.53,0,0,1-1.16,0,4.78,4.78,0,0,1-3.24-1.42A4.68,4.68,0,0,1,180.7,408c0-3.86,0-5.8,0-9.66l-1.91-.19C178.79,397.11,178.79,396.6,178.79,395.59Z"/><path class="cls-4" d="M192.38,415.71c4.08,0.38,6.13.57,10.21,0.93,0,1,0,1.48,0,2.46-4.09-.36-6.13-0.55-10.21-0.93C192.38,417.18,192.38,416.69,192.38,415.71Z"/><path class="cls-4" d="M204.38,398l4.65,0.4c0,2.35,0,3.53,0,5.89h0.09a3.45,3.45,0,0,1,1.47-1,4.82,4.82,0,0,1,2.16-.26,5.63,5.63,0,0,1,1.61.36,3.41,3.41,0,0,1,1.27.86,4,4,0,0,1,.83,1.51,7.49,7.49,0,0,1,.3,2.27c0,2.86,0,4.29,0,7.15l-3-.25c0-2.61,0-3.92,0-6.53a3,3,0,0,0-.6-2.07,2.27,2.27,0,0,0-1.57-.75,2.44,2.44,0,0,0-1.56.39,2.5,2.5,0,0,0-1,1.24c0,2.93,0,4.4,0,7.34l-3-.26c0-5.43,0-8.14,0-13.57l-1.66-.15C204.38,399.52,204.38,399,204.38,398Z"/><path class="cls-4" d="M230.48,415a3.69,3.69,0,0,1-.77.48,6.84,6.84,0,0,1-1.11.41,8.1,8.1,0,0,1-1.39.26,8.78,8.78,0,0,1-1.61,0,8.13,8.13,0,0,1-2.64-.62,5.76,5.76,0,0,1-3.2-3.37,7.37,7.37,0,0,1-.43-2.58,6.47,6.47,0,0,1,.48-2.62,4.76,4.76,0,0,1,1.32-1.79,5,5,0,0,1,2-1,7.43,7.43,0,0,1,2.44-.19,7.87,7.87,0,0,1,1.81.37,5.42,5.42,0,0,1,1.72.92,4.76,4.76,0,0,1,1.28,1.6,5.36,5.36,0,0,1,.49,2.43,10.68,10.68,0,0,1-.23,2.12l-8.29-.63a2.81,2.81,0,0,0,.31,1.27,2.75,2.75,0,0,0,.76.89,3.59,3.59,0,0,0,1.08.56,5.61,5.61,0,0,0,1.3.25,6.57,6.57,0,0,0,2.27-.15,4.39,4.39,0,0,0,1.44-.67Zm-5-8.59a3.7,3.7,0,0,0-1.13.08,2.88,2.88,0,0,0-1,.41,2.35,2.35,0,0,0-.7.73,2.27,2.27,0,0,0-.32,1l5.66,0.44A2.48,2.48,0,0,0,225.51,406.42Z"/><path class="cls-4" d="M234,400.38l4.9,0.35c0,4.25,0,6.38,0,10.63a5.11,5.11,0,0,0,.44,2.49,1.66,1.66,0,0,0,1.41.79,3.8,3.8,0,0,0,1.17-.07,4.16,4.16,0,0,0,.92-0.36l1.13,2.15q-0.39.23-.78,0.42a4.73,4.73,0,0,1-.83.31,5.39,5.39,0,0,1-1,.16,7.5,7.5,0,0,1-1.16,0,4.66,4.66,0,0,1-3.25-1.33,4.56,4.56,0,0,1-1.08-3.21c0-3.86,0-5.8,0-9.66l-1.91-.14C234,401.9,234,401.4,234,400.38Z"/><path class="cls-4" d="M245.82,405.81l3.92,0.26,0.35,1.4h0.09A4.14,4.14,0,0,1,254,406a5.71,5.71,0,0,1,1.95.45,4.15,4.15,0,0,1,1.52,1.14,5.31,5.31,0,0,1,1,1.85,8.81,8.81,0,0,1,.35,2.62,8.21,8.21,0,0,1-.39,2.63,5.22,5.22,0,0,1-1.13,1.94,4.45,4.45,0,0,1-1.8,1.15,6.11,6.11,0,0,1-2.42.29,9.69,9.69,0,0,1-1.4-.19,4.09,4.09,0,0,1-1.15-.41c0,1.89,0,2.83,0,4.71l-3-.19c0-5.43,0-8.14,0-13.57l-1.73-.11v-2.53Zm7.33,2.68a2.92,2.92,0,0,0-1.6.34,2.07,2.07,0,0,0-1,1.25c0,1.91,0,2.87,0,4.78a2.65,2.65,0,0,0,.93.46,5.29,5.29,0,0,0,1.23.23,3.13,3.13,0,0,0,1.2-.14,2.25,2.25,0,0,0,1-.64,3.16,3.16,0,0,0,.64-1.18,5.83,5.83,0,0,0,.23-1.76,3.59,3.59,0,0,0-.74-2.39A2.56,2.56,0,0,0,253.14,408.49Z"/><path class="cls-4" d="M271.94,417.65a3.8,3.8,0,0,1-.77.5,7,7,0,0,1-1.11.44,8.21,8.21,0,0,1-1.39.29,8.82,8.82,0,0,1-1.61,0,8.07,8.07,0,0,1-2.64-.56,5.6,5.6,0,0,1-3.2-3.3,7.29,7.29,0,0,1-.43-2.57,6.54,6.54,0,0,1,.48-2.63A4.9,4.9,0,0,1,262.6,408a5.16,5.16,0,0,1,2-1,7.48,7.48,0,0,1,2.44-.24,7.74,7.74,0,0,1,1.81.33,5.29,5.29,0,0,1,1.72.89,4.61,4.61,0,0,1,1.28,1.58,5.28,5.28,0,0,1,.5,2.42,10.75,10.75,0,0,1-.23,2.13l-8.3-.46a2.77,2.77,0,0,0,.31,1.26,2.67,2.67,0,0,0,.76.87,3.5,3.5,0,0,0,1.08.53,5.54,5.54,0,0,0,1.3.22,6.6,6.6,0,0,0,2.27-.2,4.5,4.5,0,0,0,1.44-.7Zm-5-8.48a3.75,3.75,0,0,0-1.13.1,3,3,0,0,0-1,.43,2.41,2.41,0,0,0-.7.75,2.3,2.3,0,0,0-.32,1l5.67,0.32A2.42,2.42,0,0,0,267,409.17Z"/><path class="cls-4" d="M274.36,416.47l2.86,0.15c0-2.58,0-3.86,0-6.44l-2.86-.15c0-1,0-1.52,0-2.53l5.19,0.26,0.35,1.53H280a5.68,5.68,0,0,1,1.48-1.19,3.54,3.54,0,0,1,1.94-.41,2.76,2.76,0,0,1,2.18,1.11,5.74,5.74,0,0,1,.79,3.42l-2.7-.13a2.38,2.38,0,0,0-.24-1.22,0.9,0.9,0,0,0-.77-0.42,2.2,2.2,0,0,0-1.49.39,4.32,4.32,0,0,0-1,1v4.9l5,0.24c0,1,0,1.52,0,2.53-4.34-.2-6.51-0.31-10.86-0.54C274.36,418,274.36,417.48,274.36,416.47Z"/><path class="cls-4" d="M297.79,425a11.07,11.07,0,0,1-3.14-1.14,9.72,9.72,0,0,1-2.7-2.16,10.3,10.3,0,0,1-1.88-3.21,12.2,12.2,0,0,1-.7-4.31,11.71,11.71,0,0,1,.7-4.24,9.44,9.44,0,0,1,1.88-3.08,8.8,8.8,0,0,1,2.7-2,11.08,11.08,0,0,1,3.14-1l0.55,2.48a9.33,9.33,0,0,0-1.83.58,6.32,6.32,0,0,0-1.95,1.32,7.28,7.28,0,0,0-1.56,2.34,9.13,9.13,0,0,0-.63,3.65,8.68,8.68,0,0,0,.67,3.59,8.36,8.36,0,0,0,1.63,2.45,7.61,7.61,0,0,0,2,1.48,8.2,8.2,0,0,0,1.71.68Z"/><path class="cls-4" d="M303.57,417.77l3.53,0.13V407.85l-3,2.21-1.38-1.89,5.26-3.81,2,0.07c0,5.43,0,8.14,0,13.57l3.46,0.11c0,1,0,1.52,0,2.53l-9.85-.34v-2.53Z"/><path class="cls-4" d="M320,419.38a1.53,1.53,0,0,1,.52-1.23,1.85,1.85,0,0,1,1.3-.42,2.35,2.35,0,0,1,1.91.88,3.3,3.3,0,0,1,.65,2.06,4.27,4.27,0,0,1-.4,1.88,4.79,4.79,0,0,1-1,1.44,5.44,5.44,0,0,1-1.44,1,5.71,5.71,0,0,1-1.58.48l-0.62-1.28a6.54,6.54,0,0,0,1.12-.36,4.37,4.37,0,0,0,1-.6,3.43,3.43,0,0,0,.77-0.86,2.38,2.38,0,0,0,.36-1.09,2.94,2.94,0,0,1-1.18,0,1.84,1.84,0,0,1-.8-0.39,1.56,1.56,0,0,1-.45-0.66A2.38,2.38,0,0,1,320,419.38Z"/><path class="cls-4" d="M331.25,418.61l3.53,0.08V408.64l-3,2.26L330.35,409l5.26-3.88,2,0c0,5.43,0,8.14,0,13.57l3.46,0.07v2.53c-3.94-.07-5.91-0.11-9.85-0.2v-2.53Z"/><path class="cls-4" d="M345.09,418.88l3.53,0.05V408.89l-3,2.28-1.38-1.86,5.26-3.92,2,0V419l3.46,0v2.53l-9.85-.13v-2.53Z"/><path class="cls-4" d="M359.25,424a7.85,7.85,0,0,0,1.71-.59,7.13,7.13,0,0,0,2-1.39,7.81,7.81,0,0,0,1.63-2.37,8.45,8.45,0,0,0,.67-3.56,9.36,9.36,0,0,0-.63-3.68,7.79,7.79,0,0,0-1.56-2.42,6.78,6.78,0,0,0-1.95-1.42,9.76,9.76,0,0,0-1.83-.67l0.55-2.46a11.58,11.58,0,0,1,3.14,1.11,9.45,9.45,0,0,1,2.7,2.11,10.06,10.06,0,0,1,1.88,3.17,13.33,13.33,0,0,1,0,8.54,9.67,9.67,0,0,1-1.88,3.12,9.08,9.08,0,0,1-2.7,2,10.63,10.63,0,0,1-3.14,1Z"/><path class="cls-4" d="M523.39,413.7l2.85-.21c0-2.58,0-3.86,0-6.44l-2.85.21c0-1,0-1.52,0-2.53l5.18-.39,0.35,1.49H529a6.84,6.84,0,0,1,1.47-1.38,3.88,3.88,0,0,1,1.93-.66,2.42,2.42,0,0,1,2.18.84,5.27,5.27,0,0,1,.79,3.32l-2.69.21a2.2,2.2,0,0,0-.24-1.19,0.78,0.78,0,0,0-.77-0.32,2.45,2.45,0,0,0-1.48.58,5.22,5.22,0,0,0-1,1.13c0,2,0,2.94,0,4.9l5-.39v2.53c-4.34.35-6.5,0.51-10.84,0.84C523.39,415.22,523.39,414.72,523.39,413.7Z"/><path class="cls-4" d="M548.6,413a4.65,4.65,0,0,1-.77.61,8.22,8.22,0,0,1-1.1.59,9.33,9.33,0,0,1-3,.76,7.57,7.57,0,0,1-2.63-.19,4.6,4.6,0,0,1-3.2-2.85,6.82,6.82,0,0,1-.43-2.51,7.05,7.05,0,0,1,.48-2.7,6,6,0,0,1,1.32-2,6.19,6.19,0,0,1,2-1.3,8,8,0,0,1,2.44-.59,7.4,7.4,0,0,1,1.81.08,4.52,4.52,0,0,1,1.71.65,3.75,3.75,0,0,1,1.28,1.4,4.85,4.85,0,0,1,.5,2.35,11.25,11.25,0,0,1-.23,2.16l-8.28.71a2.51,2.51,0,0,0,.31,1.22,2.17,2.17,0,0,0,.76.76,3,3,0,0,0,1.08.38,5.31,5.31,0,0,0,1.3,0,7,7,0,0,0,2.27-.51,5.35,5.35,0,0,0,1.44-.91Zm-5-7.78a4,4,0,0,0-1.13.26,3.48,3.48,0,0,0-1,.56,3,3,0,0,0-.7.84,2.58,2.58,0,0,0-.32,1.08l5.66-.48A2.07,2.07,0,0,0,543.63,405.19Z"/><path class="cls-4" d="M562.67,411.81a7.39,7.39,0,0,1-2.21,1.28,10.14,10.14,0,0,1-2.64.6,7.25,7.25,0,0,1-2.66-.19,4.8,4.8,0,0,1-2-1.05,4.62,4.62,0,0,1-1.21-1.81,7.39,7.39,0,0,1,.07-5.07,6.15,6.15,0,0,1,1.35-2,6.55,6.55,0,0,1,2-1.37,8.28,8.28,0,0,1,2.55-.64,9.24,9.24,0,0,1,2.41.07,10.52,10.52,0,0,1,1.73.41v4l-2.53.24v-2.12a6.36,6.36,0,0,0-1.43,0,4.54,4.54,0,0,0-1.28.31,3.51,3.51,0,0,0-1.13.72,3.61,3.61,0,0,0-1.12,2.71,3.39,3.39,0,0,0,.25,1.33,2.86,2.86,0,0,0,.71,1,2.89,2.89,0,0,0,1.14.62,4,4,0,0,0,1.51.13,5.68,5.68,0,0,0,2.15-.57,9.73,9.73,0,0,0,1.25-.76Z"/><path class="cls-4" d="M571.5,400.56l4.28-.43v9l1.75-.18v2.53l-3.63.37-0.53-1.65h-0.09a4.69,4.69,0,0,1-1.59,1.61,5.22,5.22,0,0,1-2.35.81,5.1,5.1,0,0,1-1.6-.07,2.55,2.55,0,0,1-1.23-.64,3.12,3.12,0,0,1-.78-1.35,7.5,7.5,0,0,1-.28-2.23v-4.62l-1.31.13c0-1,0-1.52,0-2.53l4.3-.41v6.53a3.31,3.31,0,0,0,.45,2,1.48,1.48,0,0,0,1.41.48,2.74,2.74,0,0,0,1.53-.66,3.12,3.12,0,0,0,1-1.34V403l-1.29.13v-2.53Z"/><path class="cls-4" d="M578.6,408.82l2.85-.29c0-2.58,0-3.86,0-6.44l-2.85.29c0-1,0-1.52,0-2.53l5.17-.54,0.34,1.48h0.09a7.12,7.12,0,0,1,1.47-1.42,4,4,0,0,1,1.93-.71,2.35,2.35,0,0,1,2.17.78,5.17,5.17,0,0,1,.79,3.29l-2.69.29a2.17,2.17,0,0,0-.24-1.18,0.76,0.76,0,0,0-.77-0.3,2.51,2.51,0,0,0-1.48.62,5.45,5.45,0,0,0-1,1.16c0,2,0,2.94,0,4.9l5-.53v2.53c-4.33.47-6.49,0.7-10.82,1.14C578.6,410.33,578.6,409.83,578.6,408.82Z"/><path class="cls-4" d="M601.94,413.68a9.74,9.74,0,0,1-3.12-.66,7.79,7.79,0,0,1-2.69-1.75,8.4,8.4,0,0,1-1.87-2.92,11.36,11.36,0,0,1-.7-4.2,12.66,12.66,0,0,1,.7-4.34,11.53,11.53,0,0,1,1.87-3.37,11,11,0,0,1,2.69-2.4,12.82,12.82,0,0,1,3.12-1.44l0.55,2.4a10.8,10.8,0,0,0-1.82.87,7.85,7.85,0,0,0-1.94,1.62,9,9,0,0,0-1.55,2.58,9.9,9.9,0,0,0-.63,3.75,8,8,0,0,0,.67,3.49,6.74,6.74,0,0,0,1.62,2.2,6.12,6.12,0,0,0,2,1.18,7.14,7.14,0,0,0,1.7.42Z"/><path class="cls-4" d="M607.7,405.61l3.51-.42c0-4,0-6,0-10.05l-3,2.68-1.38-1.68,5.23-4.62,2-.24c0,5.43,0,8.14,0,13.57l3.44-.42c0,1,0,1.52,0,2.53-3.92.48-5.88,0.72-9.8,1.18v-2.53Z"/><path class="cls-4" d="M621.47,403.94l3.51-.44c0-4,0-6,0-10.05l-3,2.7-1.38-1.67,5.23-4.66,2-.26c0,5.43,0,8.14,0,13.57l3.44-.44v2.53l-9.79,1.25v-2.53Z"/><path class="cls-4" d="M637.79,402.89a1.81,1.81,0,0,1,.52-1.31,2.16,2.16,0,0,1,1.3-.63,2,2,0,0,1,1.9.57,2.89,2.89,0,0,1,.64,2,4.74,4.74,0,0,1-.4,1.94,6,6,0,0,1-1,1.61,6.83,6.83,0,0,1-1.43,1.21,6.67,6.67,0,0,1-1.57.74l-0.62-1.18a7.66,7.66,0,0,0,1.11-.54,5.43,5.43,0,0,0,1-.77,4.33,4.33,0,0,0,.77-1,2.74,2.74,0,0,0,.36-1.15,3,3,0,0,1-1.17.19,1.54,1.54,0,0,1-.79-0.26,1.25,1.25,0,0,1-.45-0.58A2.21,2.21,0,0,1,637.79,402.89Z"/><path class="cls-4" d="M649,400.31l3.5-.49c0-4,0-6,0-10.05l-3,2.75-1.37-1.65,5.22-4.73,2-.29c0,5.43,0,8.14,0,13.57l3.43-.49v2.53c-3.91.56-5.87,0.84-9.78,1.39v-2.53Z"/><path class="cls-4" d="M661.15,393a14.54,14.54,0,0,1,.44-3.73,8.93,8.93,0,0,1,1.23-2.79,6.32,6.32,0,0,1,1.9-1.83,6.43,6.43,0,0,1,2.46-.88,4.6,4.6,0,0,1,4.46,1.37q1.56,1.8,1.56,6.08a14.64,14.64,0,0,1-.44,3.76,9.13,9.13,0,0,1-1.23,2.81,6.26,6.26,0,0,1-1.91,1.85,6.49,6.49,0,0,1-2.47.89,4.45,4.45,0,0,1-4.46-1.49Q661.15,397.13,661.15,393Zm3-.44c0,0.23,0,.45,0,0.65s0,0.42,0,.63l5.54-6a2.16,2.16,0,0,0-2.56-1.59,3,3,0,0,0-2.24,1.75A10.22,10.22,0,0,0,664.13,392.6Zm6.09-.9q0-.37,0-0.7t0-.65l-5.56,6a2.2,2.2,0,0,0,2.57,1.71,3,3,0,0,0,2.25-1.74A10.25,10.25,0,0,0,670.22,391.69Z"/><path class="cls-4" d="M676.76,401.14a9.22,9.22,0,0,0,1.69-.87,8.92,8.92,0,0,0,2-1.71,9.73,9.73,0,0,0,1.61-2.63,9.3,9.3,0,0,0,.66-3.67,8.67,8.67,0,0,0-.63-3.58,6.23,6.23,0,0,0-1.54-2.16,5.4,5.4,0,0,0-1.93-1.1,8.42,8.42,0,0,0-1.82-.38l0.55-2.55a10.07,10.07,0,0,1,3.11.6,7.47,7.47,0,0,1,2.67,1.68,8.13,8.13,0,0,1,1.86,2.87,11.17,11.17,0,0,1,.7,4.16,13,13,0,0,1-.7,4.39,11.93,11.93,0,0,1-1.86,3.42,11.41,11.41,0,0,1-2.67,2.46,12.35,12.35,0,0,1-3.11,1.49Z"/></svg>