<svg id="Layer_1" data-name="Layer 1" xmlns="http://www.w3.org/2000/svg" viewBox="0 0 720 576"><defs><style>.cls-1,.cls-2,.cls-4,.cls-6{fill:#231f20;}.cls-1,.cls-3{stroke:#231f20;}.cls-1,.cls-6{stroke-miterlimit:10;}.cls-1,.cls-2,.cls-3{stroke-width:2px;}.cls-2{stroke:#000;}.cls-2,.cls-3{stroke-linecap:round;stroke-linejoin:round;}.cls-3,.cls-5{fill:#fff;}.cls-6{stroke:#fff;}</style></defs><title>Hanoi_Tower_Set_5</title><path class="cls-1" d="M685.9,506.49c0-.14,0-0.29,0-0.43s0-.29,0-0.43V453.84H40.1s-0.25,51.74-.25,52.22c0,2.67,2.32,5.24,6.64,7.71,15.13,8.61,55.2,16.11,111,21.48s127.37,8.59,205.39,8.59c89.16,0,169.88-4.21,228.32-11,29.22-3.41,52.87-7.46,69.23-12,8.18-2.25,14.54-4.62,18.86-7.08,3.69-2.1,5.91-4.29,6.48-6.55h0.11v-0.73Z"/><ellipse class="cls-2" cx="362.9" cy="454.92" rx="322.86" ry="37.63"/><path class="cls-3" d="M685.9,455c0-.14,0-0.29,0-0.43s0-.29,0-0.43V402.36H40.1s-0.25,51.74-.25,52.22c0,2.67,2.32,5.24,6.64,7.71,15.13,8.61,55.2,16.11,111,21.48s127.37,8.59,205.39,8.59c89.16,0,169.88-4.21,228.32-11,29.22-3.41,52.87-7.46,69.23-12,8.18-2.25,14.54-4.62,18.86-7.08,3.69-2.1,5.91-4.29,6.48-6.55h0.11V455Z"/><ellipse class="cls-3" cx="362.9" cy="403.44" rx="322.86" ry="37.63"/><path class="cls-3" d="M685.9,403.53c0-.14,0-0.29,0-0.43s0-.29,0-0.43V350.88H40.1s-0.25,51.74-.25,52.22c0,2.67,2.32,5.24,6.64,7.71,15.13,8.61,55.2,16.11,111,21.48s127.37,8.59,205.39,8.59c89.16,0,169.88-4.21,228.32-11,29.22-3.41,52.87-7.46,69.23-12,8.18-2.25,14.54-4.62,18.86-7.08,3.69-2.1,5.91-4.29,6.48-6.55h0.11v-0.73Z"/><ellipse class="cls-3" cx="362.9" cy="351.97" rx="322.86" ry="37.63"/><path class="cls-3" d="M685.9,352.06c0-.14,0-0.29,0-0.43s0-.29,0-0.43V299.4H40.1s-0.25,51.74-.25,52.22c0,2.67,2.32,5.24,6.64,7.71,15.13,8.61,55.2,16.11,111,21.48s127.37,8.59,205.39,8.59c89.16,0,169.88-4.21,228.32-11,29.22-3.41,52.87-7.46,69.23-12,8.18-2.25,14.54-4.62,18.86-7.08,3.69-2.1,5.91-4.29,6.48-6.55h0.11v-0.73Z"/><ellipse class="cls-3" cx="362.9" cy="300.49" rx="322.86" ry="37.63"/><path class="cls-3" d="M685.9,302.06c0-.14,0-0.29,0-0.43s0-.29,0-0.43V249.4H40.1s-0.25,51.74-.25,52.22c0,2.67,2.32,5.24,6.64,7.71,15.13,8.61,55.2,16.11,111,21.48s127.37,8.59,205.39,8.59c89.16,0,169.88-4.21,228.32-11,29.22-3.41,52.87-7.46,69.23-12,8.18-2.25,14.54-4.62,18.86-7.08,3.69-2.1,5.91-4.29,6.48-6.55h0.11v-0.73Z"/><ellipse class="cls-3" cx="362.9" cy="250.49" rx="322.86" ry="37.63"/><path class="cls-3" d="M685.9,251.06c0-.14,0-0.29,0-0.43s0-.29,0-0.43V198.4H40.1s-0.25,51.74-.25,52.22c0,2.67,2.32,5.24,6.64,7.71,15.13,8.61,55.2,16.11,111,21.48s127.37,8.59,205.39,8.59c89.16,0,169.88-4.21,228.32-11,29.22-3.41,52.87-7.46,69.23-12,8.18-2.25,14.54-4.62,18.86-7.08,3.69-2.1,5.91-4.29,6.48-6.55h0.11v-0.73Z"/><ellipse class="cls-3" cx="362.9" cy="199.49" rx="322.86" ry="37.63"/><path class="cls-4" d="M362.89,208.64c-16,0-29-3.75-30.2-8.61h-0.08l0-.5V8.27h60.63V200H393.1C391.87,204.89,378.87,208.64,362.89,208.64Z"/><path class="cls-5" d="M392.72,8.77V199.53h0c-0.49,4.78-13.63,8.61-29.79,8.61s-29.3-3.83-29.79-8.61h0v-0.21s0,0,0-.06,0,0,0-.06V8.77h59.63m1-1H332.09V199.15s0,0.07,0,.11v1.27h0.22c1.05,3,5.66,4.94,9.53,6.06a88,88,0,0,0,42.09,0c3.87-1.12,8.48-3.05,9.53-6.06h0.21l0-1V7.77h0Z"/><ellipse class="cls-6" cx="362.89" cy="8.89" rx="29.81" ry="8.89"/><path d="M51.66,447.61V445l2.81,0.53v-6.72l-2.83-.54v-2.64l2.83,0.54v-0.67a4,4,0,0,1,.39-1.87,3,3,0,0,1,1-1.15,3.45,3.45,0,0,1,1.49-.5,5.94,5.94,0,0,1,1.75.07,12.29,12.29,0,0,1,2.7.78,8.54,8.54,0,0,1,1.75,1L62.68,436a13.35,13.35,0,0,0-1.18-.7,5.78,5.78,0,0,0-1.63-.52,2,2,0,0,0-1.8.25,2.25,2.25,0,0,0-.51,1.67l5,0.93v2.64l-5-.93v6.72l5,0.93v2.64C58.22,448.86,56,448.45,51.66,447.61Z"/><path d="M66.4,439.17a11.46,11.46,0,0,1,2.2-.35,12.34,12.34,0,0,1,3,.22,7.37,7.37,0,0,1,2.11.67,4.51,4.51,0,0,1,1.41,1.1,4,4,0,0,1,.77,1.46,6.26,6.26,0,0,1,.24,1.77q0,1.22-.08,2.07c-0.06.57-.08,1.07-0.08,1.52a10.69,10.69,0,0,0,0,1.14c0,0.22.06,0.45,0.07,0.66l1.55,0.27v2.64l-4-.7L73.28,450l-0.12,0a3.19,3.19,0,0,1-1.35,1,4.16,4.16,0,0,1-2.37.12,4.82,4.82,0,0,1-2.82-1.47,3.93,3.93,0,0,1-1-2.73,3.43,3.43,0,0,1,.37-1.67,2.37,2.37,0,0,1,1.07-1,4.31,4.31,0,0,1,1.68-.39,9.7,9.7,0,0,1,2.19.16q0.43,0.08.9,0.21l1.16,0.3a2.34,2.34,0,0,0,0-.47v-0.46a1.83,1.83,0,0,0-.52-1.4,3,3,0,0,0-1.54-.67,6.93,6.93,0,0,0-2.18-.08,12.13,12.13,0,0,0-1.63.33Zm4.05,9.54a2.59,2.59,0,0,0,1.7-.12,2.18,2.18,0,0,0,.82-0.75V446.4l-0.71-.23a8.76,8.76,0,0,0-1-.24,4.9,4.9,0,0,0-.9-0.08,2.61,2.61,0,0,0-.8.12,1.23,1.23,0,0,0-.57.37,1,1,0,0,0-.21.66,1.62,1.62,0,0,0,.39,1.11A2.17,2.17,0,0,0,70.45,448.71Z"/><path d="M91.57,453.57a5.72,5.72,0,0,1-2.29.74,9.7,9.7,0,0,1-2.74-.09,8.69,8.69,0,0,1-2.75-.92,7.1,7.1,0,0,1-2-1.63,6.81,6.81,0,0,1-1.25-2.22,8.16,8.16,0,0,1-.43-2.67,6.19,6.19,0,0,1,.5-2.6A4.45,4.45,0,0,1,82,442.42a4.91,4.91,0,0,1,2.11-.88,7.81,7.81,0,0,1,2.65,0,10.76,10.76,0,0,1,2.5.73,13.82,13.82,0,0,1,1.79.9v4.22L88.4,447v-2.21a7.38,7.38,0,0,0-1.48-.42,4.3,4.3,0,0,0-1.32,0,2.59,2.59,0,0,0-2,1.42,3.34,3.34,0,0,0-.32,1.55,4.08,4.08,0,0,0,.26,1.46A4.18,4.18,0,0,0,85.45,451a4.77,4.77,0,0,0,1.56.54,5.3,5.3,0,0,0,2.23,0,7.37,7.37,0,0,0,1.3-.46Z"/><path d="M95.63,446l-2.36-.39V443l2.36,0.39v-2.74l3.1-.38v3.62l6.26,1v2.64l-6.26-1V450a4.67,4.67,0,0,0,.69,2.79,2.86,2.86,0,0,0,1.93,1.14,4,4,0,0,0,1.17,0,3.79,3.79,0,0,0,.94-0.25,4.36,4.36,0,0,0,.76-0.41l0.63-.43,1.43,2.39a3.66,3.66,0,0,1-1,.72,7.21,7.21,0,0,1-1.31.49,7.41,7.41,0,0,1-1.47.24,6.91,6.91,0,0,1-1.5-.07,6.1,6.1,0,0,1-4-2.15,7.93,7.93,0,0,1-1.35-5V446Z"/><path d="M108,451.36a6.87,6.87,0,0,1,.45-2.62,4.46,4.46,0,0,1,1.29-1.79,4.56,4.56,0,0,1,2-.93,7.32,7.32,0,0,1,2.59,0,8.29,8.29,0,0,1,2.69.86,6.84,6.84,0,0,1,2,1.58,6.55,6.55,0,0,1,1.23,2.19,8.24,8.24,0,0,1,.42,2.65,6.9,6.9,0,0,1-.45,2.62,4.5,4.5,0,0,1-1.29,1.8,4.56,4.56,0,0,1-2,.94,7.27,7.27,0,0,1-2.59,0,8.23,8.23,0,0,1-2.69-.87,6.86,6.86,0,0,1-2-1.59,6.59,6.59,0,0,1-1.23-2.19A8.27,8.27,0,0,1,108,451.36Zm3.2,0.49a5.1,5.1,0,0,0,.21,1.5,4.31,4.31,0,0,0,.62,1.27,3.51,3.51,0,0,0,1,.93,3.36,3.36,0,0,0,1.31.48,2.67,2.67,0,0,0,2.26-.55,3.41,3.41,0,0,0,.87-2.68,4.7,4.7,0,0,0-.81-2.8,3.32,3.32,0,0,0-2.32-1.37,3.55,3.55,0,0,0-1.24,0,2,2,0,0,0-1,.51,2.64,2.64,0,0,0-.66,1.05A4.86,4.86,0,0,0,111.22,451.85Z"/><path d="M122.46,456.9l3,0.43v-6.72l-3-.43v-2.64l5.38,0.78L128.2,450h0.1a5.16,5.16,0,0,1,1.53-1.1,3.5,3.5,0,0,1,2-.24A3.2,3.2,0,0,1,134.1,450a6.39,6.39,0,0,1,.83,3.64l-2.8-.39a2.64,2.64,0,0,0-.25-1.3,1,1,0,0,0-.8-0.51,2.15,2.15,0,0,0-1.54.26,3.91,3.91,0,0,0-1,1v5.11l5.19,0.73c0,1.06,0,1.58,0,2.64-4.51-.63-6.76-0.95-11.27-1.61V456.9Z"/><path d="M137.3,459l4.21,0.57v-6.72l-4.21-.57v-2.64l7.33,1c0,3.74,0,5.62,0,9.36l4.43,0.58v2.64c-4.71-.61-7.06-0.92-11.76-1.57V459Zm3.64-12.13a1.48,1.48,0,0,1,.55-1.2,1.92,1.92,0,0,1,1.53-.32,2.67,2.67,0,0,1,1.6.74,1.89,1.89,0,0,1,.6,1.35,1.35,1.35,0,0,1-.6,1.18,2.24,2.24,0,0,1-1.6.28,2.53,2.53,0,0,1-1.53-.7A1.85,1.85,0,0,1,140.94,446.87Z"/><path d="M152.41,452.46a11.92,11.92,0,0,1,2.22-.46,12.41,12.41,0,0,1,3,.06,7.11,7.11,0,0,1,2.12.56,4.2,4.2,0,0,1,1.41,1,3.78,3.78,0,0,1,.78,1.42,6.09,6.09,0,0,1,.24,1.76q0,1.22-.08,2.08T162,460.42a10.54,10.54,0,0,0,0,1.13c0,0.22.06,0.45,0.07,0.66l1.56,0.19V465l-4-.49-0.31-1.67h-0.12a3.45,3.45,0,0,1-1.36,1.12,4.26,4.26,0,0,1-2.38.24,4.57,4.57,0,0,1-2.83-1.32,3.73,3.73,0,0,1-1-2.68,3.53,3.53,0,0,1,.37-1.69,2.57,2.57,0,0,1,1.07-1.06,4.52,4.52,0,0,1,1.69-.48,9.75,9.75,0,0,1,2.2,0q0.43,0.05.91,0.16l1.17,0.24a2.36,2.36,0,0,0,0-.47v-0.46a1.73,1.73,0,0,0-.52-1.37,2.83,2.83,0,0,0-1.55-.59,7,7,0,0,0-2.19,0,12.72,12.72,0,0,0-1.64.42Zm4.08,9.32a2.67,2.67,0,0,0,1.71-.21,2.36,2.36,0,0,0,.83-0.8v-1.44l-0.71-.2a8.54,8.54,0,0,0-1-.19,4.89,4.89,0,0,0-.9,0,2.71,2.71,0,0,0-.81.16,1.33,1.33,0,0,0-.57.4,1,1,0,0,0-.21.67,1.54,1.54,0,0,0,.39,1.09A2.06,2.06,0,0,0,156.49,461.78Z"/><path d="M166.72,448.61l5.11,0.6c0,4.44,0,6.65,0,11.09a5.49,5.49,0,0,0,.46,2.62,1.83,1.83,0,0,0,1.46.89,3.91,3.91,0,0,0,1.22,0,4.13,4.13,0,0,0,1-.34l1.18,2.29q-0.41.22-.82,0.4a4.66,4.66,0,0,1-.86.29,5.5,5.5,0,0,1-1,.13,7.91,7.91,0,0,1-1.21-.05,5.08,5.08,0,0,1-3.38-1.54,5,5,0,0,1-1.13-3.4c0-4,0-6,0-10.08l-2-.24C166.72,450.19,166.72,449.66,166.72,448.61Z"/><path d="M189.95,473.09a12.28,12.28,0,0,1-3.27-1.4,11.15,11.15,0,0,1-2.81-2.44,11.69,11.69,0,0,1-2-3.48,13.15,13.15,0,0,1-.73-4.54,11.86,11.86,0,0,1,.73-4.37,9,9,0,0,1,2-3.09,8.37,8.37,0,0,1,2.81-1.88,11,11,0,0,1,3.27-.78l0.58,2.63a9.15,9.15,0,0,0-1.91.48,6,6,0,0,0-2,1.25A6.94,6.94,0,0,0,185,457.8a9.22,9.22,0,0,0-.66,3.77,9.4,9.4,0,0,0,.7,3.79,9.51,9.51,0,0,0,1.69,2.67,8.71,8.71,0,0,0,2.05,1.68,9.09,9.09,0,0,0,1.78.82Z"/><path d="M199.12,466.51a5.13,5.13,0,0,0,1.47,0,3.28,3.28,0,0,0,1.17-.44,2.23,2.23,0,0,0,.77-0.81,2.4,2.4,0,0,0,.28-1.17,2.7,2.7,0,0,0-1-2.18,5.8,5.8,0,0,0-3.13-1.06l-0.61,0-0.66,0-0.74-.05c0-3.51,0-5.27,0-8.78l8.7,0.85v2.93l-6-.58v3.24h0.38l0.32,0,0.28,0a7.44,7.44,0,0,1,2.23.57,5.77,5.77,0,0,1,1.8,1.22A5.41,5.41,0,0,1,205.5,462a5.89,5.89,0,0,1,.42,2.24,5.23,5.23,0,0,1-.53,2.43,4.5,4.5,0,0,1-1.44,1.65,5.79,5.79,0,0,1-2.11.89,8.36,8.36,0,0,1-2.57.12,6.62,6.62,0,0,1-1.13-.22q-0.6-.17-1.18-0.38a11.37,11.37,0,0,1-1.07-.46q-0.49-.24-0.83-0.44l1-2.39a8.05,8.05,0,0,0,1.26.66A5.86,5.86,0,0,0,199.12,466.51Z"/><path d="M210.72,472.52a7.57,7.57,0,0,0,1.78-.47,6.64,6.64,0,0,0,2.06-1.28,7.28,7.28,0,0,0,1.69-2.33,8.43,8.43,0,0,0,.7-3.66,10.19,10.19,0,0,0-.66-3.9,9.08,9.08,0,0,0-1.62-2.65,8,8,0,0,0-2-1.65,11,11,0,0,0-1.91-.86l0.58-2.52a13.09,13.09,0,0,1,3.27,1.43,11.1,11.1,0,0,1,2.81,2.43,11.69,11.69,0,0,1,2,3.47,13,13,0,0,1,.73,4.52,12,12,0,0,1-.73,4.4,9,9,0,0,1-2,3.09,8.44,8.44,0,0,1-2.81,1.89,10.36,10.36,0,0,1-3.27.76Z"/><path d="M375.72,477v-2.64l2.84,0c0-2.69,0-4,0-6.72l-2.87,0V465l2.87,0v-0.67a4.43,4.43,0,0,1,.4-1.95,4,4,0,0,1,1-1.35,4.35,4.35,0,0,1,1.51-.8,6.29,6.29,0,0,1,1.77-.27,11.3,11.3,0,0,1,2.74.24,6.91,6.91,0,0,1,1.77.66l-0.92,2.39a10.85,10.85,0,0,0-1.19-.46,5.23,5.23,0,0,0-1.65-.19,2.37,2.37,0,0,0-1.82.61,2.63,2.63,0,0,0-.52,1.77l5.06-.07v2.64l-5.06.06v6.72l5.09-.07v2.64C382.36,476.92,380.14,476.95,375.72,477Z"/><path d="M390.64,465.62a13.47,13.47,0,0,1,2.23-.78,12.84,12.84,0,0,1,3-.37,6.65,6.65,0,0,1,2.13.26,3.48,3.48,0,0,1,1.42.82,3.15,3.15,0,0,1,.78,1.3,5.73,5.73,0,0,1,.24,1.72q0,1.22-.08,2.09t-0.08,1.54a10.16,10.16,0,0,0,0,1.13c0,0.22.06,0.44,0.07,0.65l1.57,0v2.64l-4,.09L397.6,475h-0.12a4.28,4.28,0,0,1-1.37,1.31,4.64,4.64,0,0,1-2.4.59,4,4,0,0,1-2.85-.91,3.22,3.22,0,0,1-1.05-2.53,3.85,3.85,0,0,1,.37-1.75,3.19,3.19,0,0,1,1.08-1.22,5.24,5.24,0,0,1,1.7-.73,10.08,10.08,0,0,1,2.22-.27,9.09,9.09,0,0,1,.91,0l1.17,0.07a2.49,2.49,0,0,0,0-.48v-0.46a1.5,1.5,0,0,0-.53-1.3,2.54,2.54,0,0,0-1.56-.36,7.36,7.36,0,0,0-2.2.35,14.65,14.65,0,0,0-1.65.65Zm4.1,8.73a2.67,2.67,0,0,0,2.55-1.37v-1.44l-0.71-.09a8.24,8.24,0,0,0-1,0,5.07,5.07,0,0,0-.91.1,3.06,3.06,0,0,0-.81.28,1.64,1.64,0,0,0-.57.48,1.15,1.15,0,0,0-.21.7,1.35,1.35,0,0,0,.39,1A1.83,1.83,0,0,0,394.74,474.35Z"/><path d="M416.09,475a7.14,7.14,0,0,1-2.31,1.19,10.27,10.27,0,0,1-2.77.45,7.78,7.78,0,0,1-2.78-.38,5.47,5.47,0,0,1-2-1.23,5.26,5.26,0,0,1-1.27-2,7.34,7.34,0,0,1-.43-2.58,6.84,6.84,0,0,1,.51-2.7,5.86,5.86,0,0,1,1.41-2,6.3,6.3,0,0,1,2.13-1.29,8.4,8.4,0,0,1,2.68-.5,9.85,9.85,0,0,1,2.53.24,11.41,11.41,0,0,1,1.81.54V469l-2.65.08v-2.21a6.81,6.81,0,0,0-1.49-.12,4.61,4.61,0,0,0-1.34.24,3.39,3.39,0,0,0-1.18.68,3.52,3.52,0,0,0-.84,1.14,3.72,3.72,0,0,0-.33,1.62,3.65,3.65,0,0,0,.26,1.41,3.24,3.24,0,0,0,.75,1.11,3.29,3.29,0,0,0,1.19.72,4.27,4.27,0,0,0,1.58.23,5.75,5.75,0,0,0,2.25-.45,9.35,9.35,0,0,0,1.31-.71Z"/><path d="M420.18,466.68l-2.39.08v-2.64l2.39-.08c0-1.09,0-1.64,0-2.74l3.13-1c0,1.45,0,2.17,0,3.62l6.31-.24v2.64l-6.31.24V470a4,4,0,0,0,.7,2.65,2.33,2.33,0,0,0,2,.76,4.22,4.22,0,0,0,1.18-.2,4.64,4.64,0,0,0,1-.43,5.72,5.72,0,0,0,.77-0.56l0.64-.55,1.45,2.1a4.86,4.86,0,0,1-1,.92,9.11,9.11,0,0,1-1.33.75,8.66,8.66,0,0,1-1.48.53,7.24,7.24,0,0,1-1.52.23,5,5,0,0,1-4.06-1.35q-1.36-1.45-1.36-4.72v-3.43Z"/><path d="M432.69,469.56a7.54,7.54,0,0,1,.46-2.71,5.84,5.84,0,0,1,1.3-2,5.91,5.91,0,0,1,2-1.32,7.93,7.93,0,0,1,2.61-.54,7.43,7.43,0,0,1,2.71.33,5.25,5.25,0,0,1,2,1.19,5.05,5.05,0,0,1,1.24,1.94,7.45,7.45,0,0,1,.42,2.57,7.55,7.55,0,0,1-.46,2.71,5.79,5.79,0,0,1-3.31,3.39,7.86,7.86,0,0,1-2.61.54,7.38,7.38,0,0,1-2.71-.33,5.26,5.26,0,0,1-2-1.2,5.1,5.1,0,0,1-1.24-2A7.47,7.47,0,0,1,432.69,469.56Zm3.23-.14a4.65,4.65,0,0,0,.22,1.45,3.39,3.39,0,0,0,.63,1.15,2.65,2.65,0,0,0,1,.74,3,3,0,0,0,1.33.22,3.2,3.2,0,0,0,2.28-1,4.86,4.86,0,0,0,.06-5.49,2.7,2.7,0,0,0-2.34-.91,3.85,3.85,0,0,0-1.25.26,2.62,2.62,0,0,0-1,.71,3.41,3.41,0,0,0-.66,1.18A5.25,5.25,0,0,0,435.92,469.43Z"/><path d="M447.24,472.25l3-.15v-6.72l-3,.15c0-1.06,0-1.58,0-2.64l5.42-.28,0.36,1.56h0.1a6.92,6.92,0,0,1,1.54-1.4,4,4,0,0,1,2-.64A2.59,2.59,0,0,1,459,463a5.56,5.56,0,0,1,.83,3.48l-2.82.16a2.34,2.34,0,0,0-.25-1.25,0.84,0.84,0,0,0-.81-0.35,2.51,2.51,0,0,0-1.55.57,5.23,5.23,0,0,0-1,1.16v5.11l5.23-.29v2.64c-4.54.26-6.8,0.38-11.34,0.62C447.24,473.83,447.24,473.31,447.24,472.25Z"/><path d="M462.17,471.42l4.24-.26c0-2.69,0-4,0-6.72l-4.24.26c0-1.06,0-1.58,0-2.64l7.37-.46c0,3.74,0,5.62,0,9.36l4.45-.29c0,1.06,0,1.58,0,2.64-4.73.32-7.09,0.47-11.82,0.75C462.17,473,462.17,472.48,462.17,471.42Zm3.66-12.85a1.81,1.81,0,0,1,.55-1.31,2.28,2.28,0,0,1,1.54-.62,2.24,2.24,0,0,1,1.61.43,1.52,1.52,0,0,1,.6,1.23,1.67,1.67,0,0,1-.6,1.3,2.61,2.61,0,0,1-1.61.6,2.13,2.13,0,0,1-1.54-.4A1.51,1.51,0,0,1,465.83,458.58Z"/><path d="M477.35,461.9a14.15,14.15,0,0,1,2.23-.9,13.09,13.09,0,0,1,3-.53,6.52,6.52,0,0,1,2.13.14,3.24,3.24,0,0,1,1.42.75,3,3,0,0,1,.78,1.26,5.62,5.62,0,0,1,.24,1.71q0,1.22-.08,2.09T487,468a10.09,10.09,0,0,0,0,1.12c0,0.22.06,0.44,0.07,0.64l1.56-.12c0,1.06,0,1.58,0,2.64l-4,.3L484.31,471h-0.12a4.61,4.61,0,0,1-1.36,1.38,4.8,4.8,0,0,1-2.39.71,3.83,3.83,0,0,1-2.85-.76,3.06,3.06,0,0,1-1.05-2.47,4,4,0,0,1,.37-1.77,3.44,3.44,0,0,1,1.08-1.27,5.55,5.55,0,0,1,1.7-.81,10.29,10.29,0,0,1,2.21-.39,9.05,9.05,0,0,1,.91,0H484a2.53,2.53,0,0,0,0-.48v-0.46a1.43,1.43,0,0,0-.52-1.27,2.45,2.45,0,0,0-1.55-.28,7.55,7.55,0,0,0-2.2.47,15.5,15.5,0,0,0-1.65.74Zm4.1,8.52a3,3,0,0,0,1.71-.54,3.15,3.15,0,0,0,.83-1v-1.44l-0.71-.06a8.2,8.2,0,0,0-1,0,5.13,5.13,0,0,0-.9.15,3.2,3.2,0,0,0-.81.32,1.77,1.77,0,0,0-.57.51,1.2,1.2,0,0,0-.21.71,1.28,1.28,0,0,0,.39,1A1.76,1.76,0,0,0,481.45,470.42Z"/><path d="M491.72,455.23l5.12-.41c0,4.44,0,6.65,0,11.09a4.91,4.91,0,0,0,.46,2.53,1.48,1.48,0,0,0,1.47.6,4.19,4.19,0,0,0,1.23-.26,5.11,5.11,0,0,0,1-.52l1.18,2.06q-0.41.3-.82,0.56a5.75,5.75,0,0,1-.87.46,6.24,6.24,0,0,1-1,.32,8.19,8.19,0,0,1-1.21.18,4.25,4.25,0,0,1-3.39-.88,4.15,4.15,0,0,1-1.13-3.17c0-4,0-6,0-10.08l-2,.16C491.72,456.81,491.72,456.29,491.72,455.23Z"/><path d="M505.93,473.67c4.27-.37,6.4-0.56,10.67-1v2.57c-4.27.4-6.4,0.59-10.67,1v-2.57Z"/><path d="M518.47,452.93l4.85-.46c0,2.46,0,3.69,0,6.14h0.1a4.66,4.66,0,0,1,1.54-1.37,5.61,5.61,0,0,1,2.26-.68,5.47,5.47,0,0,1,1.68.07,2.81,2.81,0,0,1,1.32.66,3.28,3.28,0,0,1,.86,1.41,7.25,7.25,0,0,1,.31,2.31v7.46l-3.12.32V462a2.74,2.74,0,0,0-.62-2,2,2,0,0,0-1.63-.49,3,3,0,0,0-1.63.7,3.37,3.37,0,0,0-1.06,1.48v7.66l-3.12.3c0-5.66,0-8.5,0-14.16l-1.73.16C518.47,454.51,518.47,454,518.47,452.93Z"/><path d="M545.7,465.67a5,5,0,0,1-.8.65,8.74,8.74,0,0,1-1.15.64,9.8,9.8,0,0,1-3.13.87,7.84,7.84,0,0,1-2.75-.14,4.65,4.65,0,0,1-3.34-2.9,7,7,0,0,1-.44-2.61,7.45,7.45,0,0,1,.5-2.82,6.4,6.4,0,0,1,1.38-2.12,6.66,6.66,0,0,1,2.05-1.4,8.49,8.49,0,0,1,2.54-.67,7.71,7.71,0,0,1,1.88,0,4.59,4.59,0,0,1,1.79.63,3.78,3.78,0,0,1,1.33,1.42,5,5,0,0,1,.52,2.44,11.82,11.82,0,0,1-.24,2.26l-8.64.93a2.56,2.56,0,0,0,.32,1.26,2.2,2.2,0,0,0,.79.78,3.09,3.09,0,0,0,1.13.37,5.57,5.57,0,0,0,1.36,0,7.43,7.43,0,0,0,2.36-.59,5.77,5.77,0,0,0,1.5-1Zm-5.18-8a4.24,4.24,0,0,0-1.18.3,3.76,3.76,0,0,0-1,.61,3.21,3.21,0,0,0-.73.9,2.76,2.76,0,0,0-.34,1.14l5.91-.63a2.39,2.39,0,0,0-.66-1.82A2.42,2.42,0,0,0,540.52,457.67Z"/><path d="M549.37,449.73l5.11-.59c0,4.44,0,6.65,0,11.09a4.82,4.82,0,0,0,.46,2.52,1.42,1.42,0,0,0,1.46.55,4.26,4.26,0,0,0,1.22-.3,5.35,5.35,0,0,0,1-.56l1.18,2q-0.41.31-.82,0.59a6,6,0,0,1-.86.49,6.42,6.42,0,0,1-1,.36,8.23,8.23,0,0,1-1.21.23,4.13,4.13,0,0,1-3.38-.76,4,4,0,0,1-1.13-3.13V452.15l-2,.23C549.37,451.32,549.37,450.79,549.37,449.73Z"/><path d="M561.67,453.1l4.08-.5,0.36,1.4h0.1a5.27,5.27,0,0,1,4-2.28,5.49,5.49,0,0,1,2,.09,3.34,3.34,0,0,1,1.58.89,4.37,4.37,0,0,1,1,1.74,8.54,8.54,0,0,1,.36,2.67,9.35,9.35,0,0,1-.41,2.82,6.9,6.9,0,0,1-1.17,2.25,6,6,0,0,1-1.87,1.56,7.09,7.09,0,0,1-2.52.77,9.73,9.73,0,0,1-1.46.07,3.7,3.7,0,0,1-1.2-.2v4.92l-3.12.38V455.52l-1.8.22V453.1Zm7.62,1.37a3.53,3.53,0,0,0-1.67.66,2.81,2.81,0,0,0-1,1.5v5a2.26,2.26,0,0,0,1,.3,5.21,5.21,0,0,0,1.28,0,3.63,3.63,0,0,0,1.25-.38,3,3,0,0,0,1-.86,4.14,4.14,0,0,0,.67-1.36,6.58,6.58,0,0,0,.24-1.88,3.2,3.2,0,0,0-.77-2.35A2.21,2.21,0,0,0,569.3,454.46Z"/><path d="M588.84,460.32a5.15,5.15,0,0,1-.8.67,9.08,9.08,0,0,1-1.15.67,10,10,0,0,1-1.45.58,9.88,9.88,0,0,1-1.68.37,7.78,7.78,0,0,1-2.74-.07,4.48,4.48,0,0,1-3.33-2.81,7,7,0,0,1-.44-2.59,7.57,7.57,0,0,1,.5-2.84,6.63,6.63,0,0,1,1.38-2.16,6.89,6.89,0,0,1,2-1.46,8.63,8.63,0,0,1,2.54-.73,7.66,7.66,0,0,1,1.88,0,4.47,4.47,0,0,1,1.78.59,3.63,3.63,0,0,1,1.33,1.39,4.92,4.92,0,0,1,.52,2.43,11.94,11.94,0,0,1-.24,2.27l-8.62,1.16a2.52,2.52,0,0,0,.32,1.25,2.12,2.12,0,0,0,.79.76,3,3,0,0,0,1.13.34,5.52,5.52,0,0,0,1.35,0,7.54,7.54,0,0,0,2.36-.65,6,6,0,0,0,1.5-1Zm-5.17-7.87a4.3,4.3,0,0,0-1.17.33,3.87,3.87,0,0,0-1,.63,3.33,3.33,0,0,0-.73.92,2.83,2.83,0,0,0-.34,1.15l5.89-.79a2.33,2.33,0,0,0-.66-1.81A2.37,2.37,0,0,0,583.67,452.46Z"/><path d="M591.35,458.61l3-.41v-6.72l-3,.41v-2.64l5.38-.76L597.1,450h0.1a7.85,7.85,0,0,1,1.53-1.54,4.29,4.29,0,0,1,2-.82,2.37,2.37,0,0,1,2.26.73,5.26,5.26,0,0,1,.83,3.41l-2.8.41a2.22,2.22,0,0,0-.25-1.22,0.76,0.76,0,0,0-.8-0.28,2.72,2.72,0,0,0-1.54.7,5.94,5.94,0,0,0-1,1.25v5.11l5.19-.75v2.64c-4.51.66-6.76,1-11.27,1.6C591.35,460.19,591.35,459.66,591.35,458.61Z"/><path d="M615.65,462.78a9.9,9.9,0,0,1-3.25-.56,7.72,7.72,0,0,1-2.8-1.71,8.34,8.34,0,0,1-1.95-3,11.65,11.65,0,0,1-.73-4.36,13.48,13.48,0,0,1,.73-4.56,12.68,12.68,0,0,1,1.95-3.59,12.11,12.11,0,0,1,2.8-2.61,13.91,13.91,0,0,1,3.25-1.63l0.57,2.48a11.71,11.71,0,0,0-1.9,1,8.66,8.66,0,0,0-2,1.77,9.83,9.83,0,0,0-1.61,2.75,10.55,10.55,0,0,0-.66,3.94,8.19,8.19,0,0,0,.69,3.62,6.65,6.65,0,0,0,1.69,2.23,6.08,6.08,0,0,0,2,1.15,7.2,7.2,0,0,0,1.77.36Z"/><path d="M621.65,454.12l3.65-.58V443L622.15,446l-1.43-1.69,5.44-5,2.1-.34v14.16l3.58-.58v2.64c-4.08.67-6.12,1-10.2,1.64v-2.64Z"/><path d="M638.64,452.45a2,2,0,0,1,.54-1.39,2.33,2.33,0,0,1,1.35-.71,2,2,0,0,1,2,.53,2.93,2.93,0,0,1,.67,2,5.06,5.06,0,0,1-.42,2,6.58,6.58,0,0,1-1.08,1.72,7.51,7.51,0,0,1-1.49,1.31,7.24,7.24,0,0,1-1.63.83l-0.64-1.21a8.4,8.4,0,0,0,1.16-.6,5.93,5.93,0,0,0,1.06-.84,4.73,4.73,0,0,0,.8-1.06,3,3,0,0,0,.37-1.22,3.18,3.18,0,0,1-1.22.24,1.56,1.56,0,0,1-.82-0.24,1.24,1.24,0,0,1-.46-0.59A2.3,2.3,0,0,1,638.64,452.45Z"/><path d="M653.4,449a5.8,5.8,0,0,0,1.45-.45,4.52,4.52,0,0,0,1.16-.76,3.32,3.32,0,0,0,.76-1,2.88,2.88,0,0,0,.27-1.25,2,2,0,0,0-1-1.89,4.86,4.86,0,0,0-3.11-.2l-0.61.12-0.66.15-0.74.15v-8.78l8.62-1.54v2.93l-6,1.07v3.24l0.38-.09,0.32-.07,0.27-.06a6.63,6.63,0,0,1,2.22,0,4.07,4.07,0,0,1,1.79.72,3.66,3.66,0,0,1,1.18,1.48,5.08,5.08,0,0,1,.42,2.12,6.22,6.22,0,0,1-.52,2.58,6.66,6.66,0,0,1-1.43,2,8.09,8.09,0,0,1-2.1,1.47,9.53,9.53,0,0,1-2.55.83,6.27,6.27,0,0,1-1.12.09c-0.4,0-.79,0-1.17-0.06a9.11,9.11,0,0,1-1.06-.16,8.2,8.2,0,0,1-.82-0.22l1-2.67a6.05,6.05,0,0,0,1.25.31A5.23,5.23,0,0,0,653.4,449Z"/><path d="M664.9,451.82a9.88,9.88,0,0,0,1.76-1,9.75,9.75,0,0,0,2-1.84,10.61,10.61,0,0,0,1.68-2.8,9.88,9.88,0,0,0,.69-3.85,8.92,8.92,0,0,0-.65-3.72,6.21,6.21,0,0,0-1.61-2.21,5.4,5.4,0,0,0-2-1.09,8.62,8.62,0,0,0-1.89-.33l0.57-2.67a10.3,10.3,0,0,1,3.24.53,7.46,7.46,0,0,1,2.78,1.66,8.14,8.14,0,0,1,1.94,2.93,11.51,11.51,0,0,1,.72,4.31,13.79,13.79,0,0,1-.72,4.6A13,13,0,0,1,671.5,450a12.46,12.46,0,0,1-2.78,2.66,13.28,13.28,0,0,1-3.24,1.66Z"/><path d="M51.66,395.75v-2.64l2.81,0.53v-6.72l-2.83-.54v-2.64l2.83,0.54v-0.67a4,4,0,0,1,.39-1.87,3,3,0,0,1,1-1.15,3.45,3.45,0,0,1,1.49-.5,5.94,5.94,0,0,1,1.75.07,12.29,12.29,0,0,1,2.7.78,8.53,8.53,0,0,1,1.75,1l-0.9,2.21a13.3,13.3,0,0,0-1.18-.7,5.78,5.78,0,0,0-1.63-.52,2,2,0,0,0-1.8.25,2.25,2.25,0,0,0-.51,1.67l5,0.93v2.64l-5-.93v6.72l5,0.93v2.64C58.21,397,56,396.58,51.66,395.75Z"/><path d="M66.4,387.31a11.46,11.46,0,0,1,2.2-.35,12.35,12.35,0,0,1,3,.22,7.36,7.36,0,0,1,2.11.67,4.5,4.5,0,0,1,1.41,1.1,4,4,0,0,1,.77,1.46,6.26,6.26,0,0,1,.24,1.77q0,1.22-.08,2.07c-0.06.57-.08,1.07-0.08,1.52a10.69,10.69,0,0,0,0,1.14c0,0.22.06,0.45,0.07,0.66l1.55,0.27v2.64l-4-.7-0.31-1.69-0.12,0a3.19,3.19,0,0,1-1.35,1,4.16,4.16,0,0,1-2.37.12,4.82,4.82,0,0,1-2.82-1.47,3.93,3.93,0,0,1-1-2.73,3.43,3.43,0,0,1,.37-1.67,2.37,2.37,0,0,1,1.07-1A4.3,4.3,0,0,1,68.7,392a9.69,9.69,0,0,1,2.19.17q0.43,0.08.9,0.21l1.16,0.3a2.34,2.34,0,0,0,0-.47v-0.46a1.83,1.83,0,0,0-.52-1.4,3,3,0,0,0-1.54-.67,6.93,6.93,0,0,0-2.18-.08,12.13,12.13,0,0,0-1.63.33Zm4.05,9.54a2.59,2.59,0,0,0,1.7-.12A2.18,2.18,0,0,0,73,396v-1.44l-0.71-.23a8.76,8.76,0,0,0-1-.24,4.9,4.9,0,0,0-.9-0.08,2.61,2.61,0,0,0-.8.12,1.23,1.23,0,0,0-.57.37,1,1,0,0,0-.21.66,1.62,1.62,0,0,0,.39,1.11A2.17,2.17,0,0,0,70.45,396.84Z"/><path d="M91.57,401.71a5.72,5.72,0,0,1-2.29.74,9.69,9.69,0,0,1-2.74-.09,8.68,8.68,0,0,1-2.75-.92,7.1,7.1,0,0,1-2-1.63,6.81,6.81,0,0,1-1.25-2.22,8.16,8.16,0,0,1-.43-2.67,6.19,6.19,0,0,1,.5-2.6A4.45,4.45,0,0,1,82,390.56a4.92,4.92,0,0,1,2.11-.88,7.82,7.82,0,0,1,2.65,0,10.77,10.77,0,0,1,2.5.73,13.79,13.79,0,0,1,1.79.9v4.22l-2.62-.44v-2.21a7.38,7.38,0,0,0-1.48-.42,4.3,4.3,0,0,0-1.32,0,2.59,2.59,0,0,0-2,1.42,3.33,3.33,0,0,0-.32,1.55,4.08,4.08,0,0,0,.26,1.46,4.18,4.18,0,0,0,1.92,2.21,4.77,4.77,0,0,0,1.56.54,5.3,5.3,0,0,0,2.23,0,7.39,7.39,0,0,0,1.3-.46Z"/><path d="M95.63,394.16l-2.36-.39v-2.64l2.36,0.39v-2.74l3.1-.38V392l6.26,1v2.64l-6.26-1v3.43a4.67,4.67,0,0,0,.69,2.79,2.86,2.86,0,0,0,1.93,1.14,4,4,0,0,0,1.17,0,3.78,3.78,0,0,0,.94-0.25,4.34,4.34,0,0,0,.76-0.41l0.63-.43,1.43,2.38a3.66,3.66,0,0,1-1,.72,7.21,7.21,0,0,1-1.31.49,7.41,7.41,0,0,1-1.47.24,6.91,6.91,0,0,1-1.5-.07,6.1,6.1,0,0,1-4-2.15,7.93,7.93,0,0,1-1.35-5v-3.43Z"/><path d="M108,399.5a6.87,6.87,0,0,1,.45-2.62,4.46,4.46,0,0,1,1.29-1.79,4.56,4.56,0,0,1,2-.93,7.32,7.32,0,0,1,2.59,0A8.29,8.29,0,0,1,117,395a6.84,6.84,0,0,1,2,1.58,6.55,6.55,0,0,1,1.23,2.19,8.24,8.24,0,0,1,.42,2.65,6.9,6.9,0,0,1-.45,2.62,4.5,4.5,0,0,1-1.29,1.8,4.56,4.56,0,0,1-2,.94,7.27,7.27,0,0,1-2.59,0,8.23,8.23,0,0,1-2.69-.87,6.86,6.86,0,0,1-2-1.59,6.59,6.59,0,0,1-1.23-2.19A8.27,8.27,0,0,1,108,399.5Zm3.2,0.49a5.1,5.1,0,0,0,.21,1.5,4.32,4.32,0,0,0,.62,1.27,3.51,3.51,0,0,0,1,.93,3.36,3.36,0,0,0,1.31.48,2.67,2.67,0,0,0,2.26-.55,3.41,3.41,0,0,0,.87-2.68,4.7,4.7,0,0,0-.81-2.8,3.32,3.32,0,0,0-2.32-1.37,3.55,3.55,0,0,0-1.24,0,2,2,0,0,0-1,.51,2.64,2.64,0,0,0-.66,1.05A4.86,4.86,0,0,0,111.22,400Z"/><path d="M122.46,405l3,0.43c0-2.69,0-4,0-6.72l-3-.43v-2.64l5.38,0.78,0.36,1.64h0.1a5.16,5.16,0,0,1,1.53-1.1,3.5,3.5,0,0,1,2-.24,3.2,3.2,0,0,1,2.26,1.37,6.39,6.39,0,0,1,.83,3.64l-2.8-.39a2.64,2.64,0,0,0-.25-1.3,1,1,0,0,0-.8-0.51,2.15,2.15,0,0,0-1.54.26,3.91,3.91,0,0,0-1,1v5.11l5.19,0.73c0,1.06,0,1.58,0,2.64-4.51-.63-6.76-0.95-11.27-1.61V405Z"/><path d="M137.29,407.14l4.21,0.57V401l-4.21-.57v-2.64l7.33,1v9.36l4.43,0.58v2.64c-4.71-.61-7.06-0.92-11.76-1.57v-2.64ZM140.93,395a1.48,1.48,0,0,1,.55-1.2,1.92,1.92,0,0,1,1.53-.32,2.67,2.67,0,0,1,1.6.74,1.89,1.89,0,0,1,.6,1.35,1.35,1.35,0,0,1-.6,1.18,2.24,2.24,0,0,1-1.6.28,2.53,2.53,0,0,1-1.53-.7A1.85,1.85,0,0,1,140.93,395Z"/><path d="M152.41,400.59a11.92,11.92,0,0,1,2.22-.46,12.4,12.4,0,0,1,3,.06,7.14,7.14,0,0,1,2.12.56,4.2,4.2,0,0,1,1.41,1,3.78,3.78,0,0,1,.78,1.42,6.09,6.09,0,0,1,.24,1.76q0,1.22-.08,2.08T162,408.56a10.54,10.54,0,0,0,0,1.13c0,0.22.06,0.45,0.07,0.66l1.56,0.19v2.64l-4-.49L159.33,411h-0.12a3.45,3.45,0,0,1-1.36,1.12,4.26,4.26,0,0,1-2.38.24,4.57,4.57,0,0,1-2.83-1.32,3.73,3.73,0,0,1-1-2.68,3.53,3.53,0,0,1,.37-1.69A2.57,2.57,0,0,1,153,405.6a4.52,4.52,0,0,1,1.69-.48,9.73,9.73,0,0,1,2.2,0q0.43,0.05.91,0.16l1.17,0.24a2.36,2.36,0,0,0,0-.47v-0.46a1.73,1.73,0,0,0-.52-1.37,2.83,2.83,0,0,0-1.55-.59,7,7,0,0,0-2.19,0,12.72,12.72,0,0,0-1.64.42Zm4.08,9.32a2.67,2.67,0,0,0,1.71-.21,2.36,2.36,0,0,0,.83-0.8v-1.44l-0.71-.2a8.59,8.59,0,0,0-1-.19,4.9,4.9,0,0,0-.9,0,2.71,2.71,0,0,0-.81.16,1.33,1.33,0,0,0-.57.4,1,1,0,0,0-.21.67,1.54,1.54,0,0,0,.39,1.09A2.06,2.06,0,0,0,156.49,409.92Z"/><path d="M166.72,396.74l5.11,0.6c0,4.44,0,6.65,0,11.09a5.49,5.49,0,0,0,.46,2.62,1.83,1.83,0,0,0,1.46.89,3.91,3.91,0,0,0,1.22,0,4.13,4.13,0,0,0,1-.34l1.18,2.29q-0.41.22-.82,0.4a4.64,4.64,0,0,1-.86.29,5.46,5.46,0,0,1-1,.13,7.82,7.82,0,0,1-1.21-.05,5.08,5.08,0,0,1-3.38-1.54,5,5,0,0,1-1.13-3.4c0-4,0-6,0-10.08l-2-.24v-2.64Z"/><path d="M180.9,418c4.26,0.47,6.39.7,10.66,1.14v2.57c-4.26-.44-6.4-0.67-10.66-1.14C180.9,419.52,180.9,419,180.9,418Z"/><path d="M193.43,399.7l4.85,0.49c0,2.46,0,3.69,0,6.14h0.1a3.53,3.53,0,0,1,1.54-1.07,5,5,0,0,1,2.26-.24,6,6,0,0,1,1.68.4,3.62,3.62,0,0,1,1.32.92,4.21,4.21,0,0,1,.87,1.58,7.87,7.87,0,0,1,.31,2.37c0,3,0,4.48,0,7.46l-3.12-.3c0-2.73,0-4.09,0-6.82a3.21,3.21,0,0,0-.62-2.17,2.4,2.4,0,0,0-1.63-.81,2.53,2.53,0,0,0-1.63.38,2.55,2.55,0,0,0-1.06,1.28V417l-3.12-.31c0-5.66,0-8.5,0-14.16l-1.73-.18V399.7Z"/><path d="M220.67,417.79a3.75,3.75,0,0,1-.81.5,7.11,7.11,0,0,1-1.15.42,8.52,8.52,0,0,1-1.45.26,9.3,9.3,0,0,1-1.68,0,8.57,8.57,0,0,1-2.75-.68,6.13,6.13,0,0,1-3.34-3.56A7.73,7.73,0,0,1,209,412a6.71,6.71,0,0,1,.5-2.73,4.87,4.87,0,0,1,1.38-1.85,5.17,5.17,0,0,1,2.05-1,7.76,7.76,0,0,1,2.55-.17,8.25,8.25,0,0,1,1.89.41,5.72,5.72,0,0,1,1.79,1,5,5,0,0,1,1.33,1.69,5.63,5.63,0,0,1,.52,2.54,11.13,11.13,0,0,1-.24,2.21l-8.65-.77a2.83,2.83,0,0,0,1.12,2.26,3.79,3.79,0,0,0,1.13.59,5.89,5.89,0,0,0,1.36.28,6.81,6.81,0,0,0,2.37-.13,4.51,4.51,0,0,0,1.5-.68Zm-5.19-9a3.88,3.88,0,0,0-1.18.07,3,3,0,0,0-1,.41,2.4,2.4,0,0,0-.73.75,2.34,2.34,0,0,0-.34,1.07l5.91,0.53a2.86,2.86,0,0,0-.66-2A2.89,2.89,0,0,0,215.48,408.77Z"/><path d="M224.35,402.58l5.12,0.42c0,4.44,0,6.65,0,11.09a5.36,5.36,0,0,0,.46,2.61,1.76,1.76,0,0,0,1.47.84,3.94,3.94,0,0,0,1.23-.06,4.27,4.27,0,0,0,1-.37l1.18,2.25q-0.41.23-.82,0.43a4.87,4.87,0,0,1-.87.32,5.64,5.64,0,0,1-1,.16,7.91,7.91,0,0,1-1.21,0,4.91,4.91,0,0,1-3.39-1.43,4.8,4.8,0,0,1-1.13-3.36c0-4,0-6,0-10.08l-2-.17v-2.64Z"/><path d="M236.69,408.37l4.09,0.31,0.36,1.47h0.1a4.29,4.29,0,0,1,4-1.48,6,6,0,0,1,2,.49,4.38,4.38,0,0,1,1.59,1.2,5.59,5.59,0,0,1,1,1.94,9.21,9.21,0,0,1,.36,2.74,8.55,8.55,0,0,1-.41,2.74,5.4,5.4,0,0,1-1.18,2,4.59,4.59,0,0,1-1.88,1.19,6.36,6.36,0,0,1-2.53.28,10.06,10.06,0,0,1-1.47-.21,4.28,4.28,0,0,1-1.2-.44c0,2,0,3,0,4.92l-3.13-.23c0-5.66,0-8.5,0-14.16l-1.8-.14v-2.64Zm7.65,2.87a3,3,0,0,0-1.67.34,2.14,2.14,0,0,0-1,1.29c0,2,0,3,0,5a2.79,2.79,0,0,0,1,.49,5.54,5.54,0,0,0,1.29.25,3.26,3.26,0,0,0,1.25-.14,2.32,2.32,0,0,0,1-.66,3.25,3.25,0,0,0,.67-1.23,6.07,6.07,0,0,0,.24-1.83,3.77,3.77,0,0,0-.77-2.5A2.7,2.7,0,0,0,244.34,411.23Z"/><path d="M264,420.95a3.92,3.92,0,0,1-.81.52,7.24,7.24,0,0,1-1.15.45,8.64,8.64,0,0,1-1.46.3,9.32,9.32,0,0,1-1.69,0,8.44,8.44,0,0,1-2.76-.61,5.91,5.91,0,0,1-3.35-3.47,7.63,7.63,0,0,1-.44-2.68,6.8,6.8,0,0,1,.51-2.74,5.06,5.06,0,0,1,1.38-1.89,5.35,5.35,0,0,1,2.06-1.05,7.82,7.82,0,0,1,2.55-.23,8.16,8.16,0,0,1,1.89.36,5.55,5.55,0,0,1,1.79.94,4.85,4.85,0,0,1,1.34,1.65,5.52,5.52,0,0,1,.52,2.53,11.17,11.17,0,0,1-.24,2.22l-8.67-.54a2.88,2.88,0,0,0,.32,1.32,2.83,2.83,0,0,0,.79.92,3.7,3.7,0,0,0,1.13.56,5.86,5.86,0,0,0,1.36.24,6.87,6.87,0,0,0,2.37-.19,4.66,4.66,0,0,0,1.5-.72Zm-5.2-8.89a3.92,3.92,0,0,0-1.18.1,3.06,3.06,0,0,0-1,.44,2.5,2.5,0,0,0-.73.77,2.4,2.4,0,0,0-.34,1.08l5.92,0.37a2.78,2.78,0,0,0-.66-1.94A2.81,2.81,0,0,0,258.78,412.06Z"/><path d="M266.5,419.73l3,0.17v-6.72l-3-.17v-2.64l5.42,0.31,0.36,1.6h0.1a5.9,5.9,0,0,1,1.54-1.24,3.69,3.69,0,0,1,2-.42,2.9,2.9,0,0,1,2.28,1.17,6,6,0,0,1,.83,3.57l-2.82-.15A2.49,2.49,0,0,0,276,414a0.94,0.94,0,0,0-.81-0.44,2.29,2.29,0,0,0-1.55.4,4.45,4.45,0,0,0-1,1.05v5.11l5.23,0.28V423c-4.54-.23-6.81-0.36-11.34-0.62v-2.64Z"/><path d="M291,428.7a11.6,11.6,0,0,1-3.28-1.2,10.21,10.21,0,0,1-2.82-2.27,10.81,10.81,0,0,1-2-3.36,12.73,12.73,0,0,1-.73-4.5,12.18,12.18,0,0,1,.73-4.42,9.83,9.83,0,0,1,2-3.21,9.15,9.15,0,0,1,2.82-2.05,11.53,11.53,0,0,1,3.28-1l0.58,2.59a9.67,9.67,0,0,0-1.92.6,6.58,6.58,0,0,0-2,1.37,7.54,7.54,0,0,0-1.63,2.43,9.49,9.49,0,0,0-.66,3.81,9.07,9.07,0,0,0,.7,3.75,8.76,8.76,0,0,0,1.7,2.56,8,8,0,0,0,2.06,1.56,8.57,8.57,0,0,0,1.78.71Z"/><path d="M297,421.22l3.69,0.14c0-4.2,0-6.29,0-10.49l-3.18,2.3-1.45-2,5.49-4,2.12,0.08v14.16l3.61,0.13v2.64c-4.12-.14-6.17-0.21-10.29-0.38C297,422.8,297,422.28,297,421.22Z"/><path d="M314.18,422.92a1.59,1.59,0,0,1,.54-1.28,1.93,1.93,0,0,1,1.36-.44,2.45,2.45,0,0,1,2,.92,3.45,3.45,0,0,1,.67,2.15,4.46,4.46,0,0,1-.42,2,5,5,0,0,1-1.1,1.51,5.71,5.71,0,0,1-1.51,1,6,6,0,0,1-1.65.5l-0.65-1.34a6.85,6.85,0,0,0,1.17-.37,4.56,4.56,0,0,0,1.07-.63,3.55,3.55,0,0,0,.81-0.9,2.49,2.49,0,0,0,.37-1.14,3.08,3.08,0,0,1-1.23,0,1.93,1.93,0,0,1-.83-0.41,1.64,1.64,0,0,1-.47-0.69A2.51,2.51,0,0,1,314.18,422.92Z"/><path d="M329.09,422.4a5.27,5.27,0,0,0,1.47-.16,3.59,3.59,0,0,0,1.17-.53,2.44,2.44,0,0,0,1-2.07,2.47,2.47,0,0,0-1-2.1,5.47,5.47,0,0,0-3.15-.82H328l-0.66,0h-0.75V408l8.73,0.17v2.93l-6-.11v3.24l0.39,0h0.6a7.09,7.09,0,0,1,2.24.39,5.21,5.21,0,0,1,1.81,1.08,4.84,4.84,0,0,1,1.19,1.71,5.62,5.62,0,0,1,.42,2.2,5.47,5.47,0,0,1-.53,2.48,5,5,0,0,1-1.45,1.76,6.36,6.36,0,0,1-2.12,1.05,8.6,8.6,0,0,1-2.58.32,6.49,6.49,0,0,1-1.13-.13c-0.4-.08-0.8-0.18-1.18-0.29a10.74,10.74,0,0,1-1.07-.37q-0.49-.2-0.83-0.38l1-2.47a7.39,7.39,0,0,0,1.27.56A5.62,5.62,0,0,0,329.09,422.4Z"/><path d="M340.74,427.49a8.13,8.13,0,0,0,1.78-.61,7.41,7.41,0,0,0,2.06-1.44,8.12,8.12,0,0,0,1.7-2.47,8.79,8.79,0,0,0,.7-3.71,9.76,9.76,0,0,0-.66-3.85,8.15,8.15,0,0,0-1.63-2.52,7.13,7.13,0,0,0-2-1.49,10.19,10.19,0,0,0-1.92-.71l0.58-2.56a12.12,12.12,0,0,1,3.28,1.17,9.92,9.92,0,0,1,2.82,2.21,10.57,10.57,0,0,1,2,3.32,13.89,13.89,0,0,1,0,8.92,10,10,0,0,1-2,3.25,9.43,9.43,0,0,1-2.82,2.11,11,11,0,0,1-3.28,1Z"/><path d="M533.82,413.71l3-.31c0-2.69,0-4,0-6.72l-3,.31v-2.64l5.4-.57,0.36,1.55h0.1a7.46,7.46,0,0,1,1.54-1.49,4.16,4.16,0,0,1,2-.75,2.45,2.45,0,0,1,2.27.81,5.38,5.38,0,0,1,.83,3.44l-2.81.31a2.27,2.27,0,0,0-.25-1.23,0.79,0.79,0,0,0-.8-0.31,2.63,2.63,0,0,0-1.55.65,5.65,5.65,0,0,0-1,1.21v5.11l5.21-.57v2.64c-4.52.5-6.78,0.74-11.31,1.21v-2.64Z"/><path d="M560.09,412.15a5,5,0,0,1-.8.66,8.87,8.87,0,0,1-1.15.65,9.86,9.86,0,0,1-3.13.9,7.83,7.83,0,0,1-2.75-.11,4.6,4.6,0,0,1-3.34-2.87,7,7,0,0,1-.44-2.6,7.49,7.49,0,0,1,.5-2.83,6.47,6.47,0,0,1,1.38-2.14,6.73,6.73,0,0,1,2.05-1.42,8.55,8.55,0,0,1,2.54-.69,7.69,7.69,0,0,1,1.88,0,4.55,4.55,0,0,1,1.79.62,3.73,3.73,0,0,1,1.33,1.41,5,5,0,0,1,.52,2.43,11.86,11.86,0,0,1-.24,2.26l-8.63,1a2.54,2.54,0,0,0,.32,1.26,2.17,2.17,0,0,0,.79.77,3.07,3.07,0,0,0,1.13.36,5.55,5.55,0,0,0,1.35,0,7.47,7.47,0,0,0,2.36-.61,5.84,5.84,0,0,0,1.5-1Zm-5.18-8a4.25,4.25,0,0,0-1.18.31,3.79,3.79,0,0,0-1,.62,3.25,3.25,0,0,0-.73.9,2.78,2.78,0,0,0-.34,1.14l5.9-.69a2.37,2.37,0,0,0-.66-1.82A2.4,2.4,0,0,0,554.91,404.19Z"/><path d="M574.76,410.45a8,8,0,0,1-2.3,1.41,10.78,10.78,0,0,1-2.76.72,7.5,7.5,0,0,1-2.77-.11,4.82,4.82,0,0,1-2-1,4.62,4.62,0,0,1-1.26-1.85,7,7,0,0,1-.43-2.54,7.24,7.24,0,0,1,.5-2.75,6.69,6.69,0,0,1,1.4-2.16,7.13,7.13,0,0,1,2.12-1.5,8.86,8.86,0,0,1,2.66-.75,9.6,9.6,0,0,1,2.52,0,10.55,10.55,0,0,1,1.8.37v4.22l-2.64.34V402.6a6.66,6.66,0,0,0-1.49,0,4.86,4.86,0,0,0-1.33.37,3.83,3.83,0,0,0-1.17.79,4,4,0,0,0-.84,1.22,4,4,0,0,0-.32,1.65,3.48,3.48,0,0,0,.26,1.38,2.84,2.84,0,0,0,.74,1,2.89,2.89,0,0,0,1.19.61,4.1,4.1,0,0,0,1.57.08,6.09,6.09,0,0,0,2.24-.67,10.49,10.49,0,0,0,1.31-.84Z"/><path d="M584,398.39l4.45-.6v9.36l1.82-.25c0,1.06,0,1.58,0,2.64l-3.78.52-0.55-1.7h-0.1a5.16,5.16,0,0,1-1.65,1.74,5.61,5.61,0,0,1-2.44.93,5.28,5.28,0,0,1-1.66,0,2.53,2.53,0,0,1-1.28-.62,3.11,3.11,0,0,1-.81-1.38,7.75,7.75,0,0,1-.29-2.32v-4.82l-1.37.18c0-1.06,0-1.58,0-2.64l4.48-.59v6.82a3.38,3.38,0,0,0,.47,2,1.5,1.5,0,0,0,1.47.45,3,3,0,0,0,1.59-.74,3.41,3.41,0,0,0,1-1.43v-5.11L584,401v-2.64Z"/><path d="M591.36,406.74l3-.41c0-2.69,0-4,0-6.72l-3,.42v-2.64l5.38-.76,0.36,1.53h0.1a7.84,7.84,0,0,1,1.53-1.54,4.29,4.29,0,0,1,2-.82,2.37,2.37,0,0,1,2.26.73,5.26,5.26,0,0,1,.83,3.41l-2.8.41a2.23,2.23,0,0,0-.25-1.22,0.76,0.76,0,0,0-.8-0.28,2.72,2.72,0,0,0-1.54.7,6,6,0,0,0-1,1.25c0,2,0,3.07,0,5.11l5.19-.75v2.64c-4.51.66-6.76,1-11.27,1.6v-2.64Z"/><path d="M615.65,410.91a9.89,9.89,0,0,1-3.25-.56,7.71,7.71,0,0,1-2.8-1.71,8.34,8.34,0,0,1-1.95-3,11.65,11.65,0,0,1-.73-4.36,13.48,13.48,0,0,1,.73-4.56,12.68,12.68,0,0,1,1.95-3.59,12.12,12.12,0,0,1,2.8-2.61,13.93,13.93,0,0,1,3.25-1.63l0.57,2.48a11.73,11.73,0,0,0-1.9,1,8.66,8.66,0,0,0-2,1.77,9.83,9.83,0,0,0-1.61,2.75,10.55,10.55,0,0,0-.66,3.94,8.19,8.19,0,0,0,.69,3.62,6.65,6.65,0,0,0,1.69,2.23,6.08,6.08,0,0,0,2,1.15,7.19,7.19,0,0,0,1.77.36Z"/><path d="M624.78,402a5.75,5.75,0,0,0,1.46-.43,4.43,4.43,0,0,0,1.16-.74,3.23,3.23,0,0,0,.76-1,2.84,2.84,0,0,0,.27-1.24,2,2,0,0,0-1-1.91,4.9,4.9,0,0,0-3.12-.26l-0.61.11-0.66.14-0.74.14c0-3.51,0-5.27,0-8.78l8.64-1.39c0,1.17,0,1.76,0,2.93l-6,1v3.24l0.38-.09,0.32-.06,0.27-.06a6.65,6.65,0,0,1,2.22,0,4.15,4.15,0,0,1,1.79.75,3.75,3.75,0,0,1,1.18,1.5,5.13,5.13,0,0,1,.42,2.13,6.14,6.14,0,0,1-.53,2.57,6.5,6.5,0,0,1-1.43,2,7.91,7.91,0,0,1-2.1,1.43,9.43,9.43,0,0,1-2.56.78,6.23,6.23,0,0,1-1.12.07q-0.6,0-1.17-.08a9.28,9.28,0,0,1-1.06-.18,8.45,8.45,0,0,1-.82-0.23l1-2.65A6.14,6.14,0,0,0,623,402,5.25,5.25,0,0,0,624.78,402Z"/><path d="M638.65,400.58a2,2,0,0,1,.54-1.39,2.33,2.33,0,0,1,1.35-.71,2,2,0,0,1,2,.53,2.93,2.93,0,0,1,.67,2,5.06,5.06,0,0,1-.42,2,6.59,6.59,0,0,1-1.08,1.72,7.54,7.54,0,0,1-1.49,1.31,7.25,7.25,0,0,1-1.63.83l-0.64-1.21a8.35,8.35,0,0,0,1.16-.6,5.92,5.92,0,0,0,1.06-.84,4.72,4.72,0,0,0,.8-1.06,3,3,0,0,0,.37-1.22,3.18,3.18,0,0,1-1.22.24,1.56,1.56,0,0,1-.82-0.24,1.25,1.25,0,0,1-.46-0.59A2.3,2.3,0,0,1,638.65,400.58Z"/><path d="M661.5,393.43l-2.86.52v4.68l-2.88.52v-4.68l-7.22,1.28v-2.14l7.55-11.44,2.55-.46c0,3.9,0,5.85,0,9.74l2.86-.52v2.5Zm-5.74-6.79-4.15,6.07,4.15-.74C655.76,389.84,655.76,388.77,655.76,386.64Z"/><path d="M664.91,400a9.88,9.88,0,0,0,1.76-1,9.75,9.75,0,0,0,2-1.84,10.62,10.62,0,0,0,1.68-2.8,9.88,9.88,0,0,0,.69-3.85,8.92,8.92,0,0,0-.65-3.72,6.21,6.21,0,0,0-1.61-2.21,5.4,5.4,0,0,0-2-1.09,8.62,8.62,0,0,0-1.89-.33l0.57-2.67a10.29,10.29,0,0,1,3.24.53,7.46,7.46,0,0,1,2.78,1.66,8.14,8.14,0,0,1,1.94,2.93,11.5,11.5,0,0,1,.72,4.31,13.79,13.79,0,0,1-.72,4.6,13,13,0,0,1-1.94,3.63,12.46,12.46,0,0,1-2.78,2.66,13.28,13.28,0,0,1-3.24,1.66Z"/><path d="M47.69,242l2.95,0.56v-6.72l-2.95-.56v-2.64l5.35,1,0.36,1.65,0.1,0a4.83,4.83,0,0,1,1.52-1,3.42,3.42,0,0,1,2-.16,3.36,3.36,0,0,1,2.25,1.47,6.6,6.6,0,0,1,.82,3.68l-2.79-.51a2.72,2.72,0,0,0-.25-1.31,1.09,1.09,0,0,0-.8-0.54,2.09,2.09,0,0,0-1.54.19,3.66,3.66,0,0,0-1,.92v5.11l5.17,1v2.64c-4.49-.82-6.73-1.24-11.21-2.1V242Z"/><path d="M73.76,248.12a3.32,3.32,0,0,1-.8.43,6.44,6.44,0,0,1-1.14.31,8,8,0,0,1-1.44.13,9.21,9.21,0,0,1-1.67-.15,9.05,9.05,0,0,1-2.73-.92,6.92,6.92,0,0,1-3.31-3.85,8.12,8.12,0,0,1-.44-2.73,6.45,6.45,0,0,1,.5-2.68,4.29,4.29,0,0,1,1.37-1.73,4.64,4.64,0,0,1,2-.82,7.58,7.58,0,0,1,2.53.06,8.66,8.66,0,0,1,1.87.57,6.35,6.35,0,0,1,1.78,1.14,5.71,5.71,0,0,1,1.32,1.8,6,6,0,0,1,.51,2.59,10.91,10.91,0,0,1-.24,2.19l-8.58-1.52a3.15,3.15,0,0,0,.32,1.35,3.33,3.33,0,0,0,.79,1,4.23,4.23,0,0,0,1.12.69,6.19,6.19,0,0,0,1.35.4,6.67,6.67,0,0,0,2.35.08,4.06,4.06,0,0,0,1.49-.55Zm-5.15-9.47a3.81,3.81,0,0,0-1.17,0,2.69,2.69,0,0,0-1,.33,2.1,2.1,0,0,0-.73.69,2.18,2.18,0,0,0-.33,1l5.86,1a3.1,3.1,0,0,0-.66-2A3.15,3.15,0,0,0,68.61,238.64Z"/><path d="M88.36,250.72a5.73,5.73,0,0,1-2.29.74,9.69,9.69,0,0,1-2.74-.09,8.69,8.69,0,0,1-2.75-.92,7.1,7.1,0,0,1-2-1.63,6.81,6.81,0,0,1-1.25-2.22,8.16,8.16,0,0,1-.43-2.67,6.19,6.19,0,0,1,.5-2.6,4.45,4.45,0,0,1,1.39-1.75,4.92,4.92,0,0,1,2.11-.88,7.8,7.8,0,0,1,2.65,0,10.76,10.76,0,0,1,2.51.73,13.83,13.83,0,0,1,1.79.9v4.22l-2.62-.44v-2.21a7.4,7.4,0,0,0-1.48-.42,4.31,4.31,0,0,0-1.32,0,2.59,2.59,0,0,0-2,1.42,3.34,3.34,0,0,0-.32,1.55,4.08,4.08,0,0,0,.26,1.46,4.18,4.18,0,0,0,1.92,2.21,4.77,4.77,0,0,0,1.56.54,5.3,5.3,0,0,0,2.23,0,7.36,7.36,0,0,0,1.3-.46Z"/><path d="M97.53,241.36l4.44,0.7c0,3.34,0,5,0,8.35v1l1.82,0.28v2.64l-3.77-.59-0.55-1.86h-0.1a3.36,3.36,0,0,1-1.65,1.25,4.62,4.62,0,0,1-2.44.21,6,6,0,0,1-1.66-.51,3.72,3.72,0,0,1-1.28-1,4.48,4.48,0,0,1-.81-1.62,8.68,8.68,0,0,1-.29-2.4V243l-1.36-.22v-2.64l4.46,0.73v6.82a4.1,4.1,0,0,0,.47,2.19,2,2,0,0,0,1.47.88,2.31,2.31,0,0,0,1.59-.27,2.27,2.27,0,0,0,1-1.14v-5.11L97.53,244v-2.64Z"/><path d="M104.91,251.88l3,0.46c0-2.69,0-4,0-6.72l-3-.46v-2.64l5.38,0.83,0.36,1.64h0.1a5.1,5.1,0,0,1,1.53-1.09,3.48,3.48,0,0,1,2-.23,3.23,3.23,0,0,1,2.26,1.39,6.43,6.43,0,0,1,.83,3.65l-2.8-.42a2.66,2.66,0,0,0-.25-1.3,1,1,0,0,0-.8-0.52,2.14,2.14,0,0,0-1.54.25,3.85,3.85,0,0,0-1,1c0,2,0,3.07,0,5.11l5.19,0.78v2.64c-4.5-.67-6.76-1-11.26-1.71v-2.64Z"/><path d="M129.2,263.2a12.71,12.71,0,0,1-3.25-1.52,11.71,11.71,0,0,1-2.8-2.54,12.23,12.23,0,0,1-1.95-3.55,13.41,13.41,0,0,1-.73-4.57,11.69,11.69,0,0,1,.73-4.35,8.63,8.63,0,0,1,1.95-3,8,8,0,0,1,2.8-1.78,10.64,10.64,0,0,1,3.25-.67l0.57,2.65a8.92,8.92,0,0,0-1.9.42,5.74,5.74,0,0,0-2,1.18,6.61,6.61,0,0,0-1.62,2.28,9.08,9.08,0,0,0-.66,3.75,9.6,9.6,0,0,0,.69,3.82A10,10,0,0,0,126,258a9.15,9.15,0,0,0,2,1.75,9.43,9.43,0,0,0,1.77.88Z"/><path d="M135.21,256.3l3.66,0.5c0-4.2,0-6.29,0-10.49l-3.16,2-1.44-2.12,5.46-3.44,2.11,0.28c0,5.66,0,8.5,0,14.16l3.59,0.47v2.64c-4.09-.53-6.14-0.81-10.23-1.36C135.21,257.89,135.21,257.36,135.21,256.3Z"/><path d="M159.57,262.09c-4.28-.52-6.41-0.79-10.69-1.34,0-.93,0-1.4,0-2.33,0.19-.13.43-0.32,0.72-0.54l1-.78q0.54-.44,1.14-1t1.17-1.1q0.81-.81,1.43-1.48a9.86,9.86,0,0,0,1-1.28,5,5,0,0,0,.59-1.22,4.27,4.27,0,0,0,.19-1.28,2.35,2.35,0,0,0-.22-1,3.05,3.05,0,0,0-.6-0.88,3.4,3.4,0,0,0-.92-0.67,3.63,3.63,0,0,0-1.19-.35,4.29,4.29,0,0,0-1.57.07,4.58,4.58,0,0,0-1.47.7l-1.25-2.37a9.1,9.1,0,0,1,2.24-.93,7.89,7.89,0,0,1,4.82.4,6.08,6.08,0,0,1,1.68,1.06,4.92,4.92,0,0,1,1.16,1.55,4.53,4.53,0,0,1,.43,2,7.06,7.06,0,0,1-.13,1.41,6.26,6.26,0,0,1-.41,1.27,7.67,7.67,0,0,1-.72,1.27q-0.44.64-1.07,1.38-0.48.57-1,1.13t-1.11,1.07q-0.55.51-1.09,0.94a11.94,11.94,0,0,1-1,.72l6.9,0.85C159.57,260.51,159.57,261,159.57,262.09Z"/><path d="M162.33,254a13.74,13.74,0,0,1,.46-3.77,6.86,6.86,0,0,1,1.29-2.57,4.52,4.52,0,0,1,2-1.39,5.72,5.72,0,0,1,2.58-.24,6.34,6.34,0,0,1,4.67,2.66q1.64,2.31,1.64,6.77a13.87,13.87,0,0,1-.46,3.8,7,7,0,0,1-1.29,2.59,4.48,4.48,0,0,1-2,1.4,5.77,5.77,0,0,1-2.59.24,6.18,6.18,0,0,1-4.67-2.79A12,12,0,0,1,162.33,254Zm3.12,0.37c0,0.24,0,.47,0,0.68s0,0.44,0,.66L171.3,251a3.11,3.11,0,0,0-2.69-2.37,2.25,2.25,0,0,0-2.34,1.2A9.22,9.22,0,0,0,165.45,254.37Zm6.38,0.74q0-.38,0-0.73c0-.23,0-0.46,0-0.69L166,258.37a3.18,3.18,0,0,0,2.69,2.5,2.27,2.27,0,0,0,2.36-1.19A9.23,9.23,0,0,0,171.83,255.11Z"/><path d="M181,263a1.47,1.47,0,0,1,.54-1.24,1.8,1.8,0,0,1,1.36-.33,2.67,2.67,0,0,1,2,1.08,3.68,3.68,0,0,1,.67,2.21,4.26,4.26,0,0,1-.42,1.92,4.49,4.49,0,0,1-1.09,1.42,5.12,5.12,0,0,1-1.5.89,5.63,5.63,0,0,1-1.64.37L180.3,268a6.42,6.42,0,0,0,1.16-.28,4.11,4.11,0,0,0,1.07-.54,3.15,3.15,0,0,0,.8-0.84,2.32,2.32,0,0,0,.37-1.11,3.08,3.08,0,0,1-1.22-.1,2.11,2.11,0,0,1-.83-0.47,1.83,1.83,0,0,1-.47-0.72A2.61,2.61,0,0,1,181,263Z"/><path d="M192.76,263.16l3.67,0.37c0-4.2,0-6.29,0-10.49l-3.17,2.11-1.44-2.07,5.48-3.63,2.11,0.21c0,5.66,0,8.5,0,14.16l3.6,0.35c0,1.06,0,1.58,0,2.64-4.1-.39-6.15-0.59-10.26-1v-2.64Z"/><path d="M207.51,269.7a7.57,7.57,0,0,0,1.78-.47,6.63,6.63,0,0,0,2.06-1.28,7.27,7.27,0,0,0,1.69-2.33,8.43,8.43,0,0,0,.7-3.66,10.2,10.2,0,0,0-.66-3.9,9.09,9.09,0,0,0-1.62-2.65,8,8,0,0,0-2-1.65,11.05,11.05,0,0,0-1.91-.86l0.58-2.52a13.11,13.11,0,0,1,3.27,1.43,11.11,11.11,0,0,1,2.81,2.44,11.7,11.7,0,0,1,2,3.47,13,13,0,0,1,.73,4.52,12,12,0,0,1-.73,4.4,9,9,0,0,1-2,3.09,8.42,8.42,0,0,1-2.81,1.88,10.36,10.36,0,0,1-3.27.76Z"/><path d="M481.41,253.45c3.8-.27,5.7-0.41,9.5-0.7,0,1.06,0,1.58,0,2.64l-6.52.49c0,6.82,0,10.22,0,17l6.52-.48c0,1.06,0,1.58,0,2.64-3.8.29-5.7,0.43-9.5,0.7C481.41,266.84,481.41,262.37,481.41,253.45Z"/><path d="M498.9,258.65a1.87,1.87,0,0,1,.53-1.37,2.13,2.13,0,0,1,1.39-.61,1.91,1.91,0,0,1,1.44.37,1.59,1.59,0,0,1,.53,1.29,1.92,1.92,0,0,1-.53,1.39,2.18,2.18,0,0,1-1.44.62,1.81,1.81,0,0,1-1.39-.39A1.63,1.63,0,0,1,498.9,258.65Zm0,8.69a1.87,1.87,0,0,1,.53-1.37,2.13,2.13,0,0,1,1.39-.61,1.91,1.91,0,0,1,1.44.37,1.6,1.6,0,0,1,.53,1.29,1.92,1.92,0,0,1-.53,1.39,2.18,2.18,0,0,1-1.44.62,1.81,1.81,0,0,1-1.39-.39A1.63,1.63,0,0,1,498.9,267.33Z"/><path d="M509,265.43l3-.26c0-2.69,0-4,0-6.72l-3,.26c0-1.06,0-1.58,0-2.64l5.41-.48,0.36,1.55h0.1a7.29,7.29,0,0,1,1.54-1.46,4.11,4.11,0,0,1,2-.71,2.49,2.49,0,0,1,2.27.84,5.43,5.43,0,0,1,.83,3.45l-2.81.26a2.29,2.29,0,0,0-.25-1.24,0.8,0.8,0,0,0-.8-0.32,2.59,2.59,0,0,0-1.55.62,5.52,5.52,0,0,0-1,1.2v5.11l5.21-.48V267c-4.53.43-6.79,0.63-11.32,1v-2.64Z"/><path d="M535.3,264.29a4.93,4.93,0,0,1-.81.65,8.71,8.71,0,0,1-1.15.63,9.75,9.75,0,0,1-3.13.84,7.86,7.86,0,0,1-2.75-.16,4.71,4.71,0,0,1-3.34-2.93,7.06,7.06,0,0,1-.44-2.61,7.42,7.42,0,0,1,.5-2.82,6.33,6.33,0,0,1,1.38-2.11,6.59,6.59,0,0,1,2.05-1.39,8.46,8.46,0,0,1,2.55-.65,7.71,7.71,0,0,1,1.89.05,4.63,4.63,0,0,1,1.79.65,3.82,3.82,0,0,1,1.33,1.43,5,5,0,0,1,.52,2.44,11.78,11.78,0,0,1-.24,2.26l-8.65.87a2.57,2.57,0,0,0,.32,1.26,2.23,2.23,0,0,0,.79.79,3.11,3.11,0,0,0,1.13.38,5.56,5.56,0,0,0,1.36,0,7.39,7.39,0,0,0,2.37-.57,5.71,5.71,0,0,0,1.5-1Zm-5.19-8a4.22,4.22,0,0,0-1.18.29,3.72,3.72,0,0,0-1,.6,3.17,3.17,0,0,0-.73.89,2.74,2.74,0,0,0-.34,1.13l5.91-.59a2.4,2.4,0,0,0-.66-1.83A2.44,2.44,0,0,0,530.11,256.25Z"/><path d="M550,262.84a7.86,7.86,0,0,1-2.3,1.37,10.69,10.69,0,0,1-2.76.67,7.54,7.54,0,0,1-2.77-.16,4.92,4.92,0,0,1-2-1.07,4.72,4.72,0,0,1-1.26-1.87,7.08,7.08,0,0,1-.43-2.55,7.16,7.16,0,0,1,.5-2.74,6.54,6.54,0,0,1,1.4-2.14,7,7,0,0,1,2.12-1.46,8.77,8.77,0,0,1,2.66-.71,9.65,9.65,0,0,1,2.52,0,10.67,10.67,0,0,1,1.8.4c0,1.69,0,2.53,0,4.22l-2.64.29v-2.21a6.68,6.68,0,0,0-1.49,0,4.81,4.81,0,0,0-1.33.35,3.75,3.75,0,0,0-1.18.78,3.83,3.83,0,0,0-1.16,2.85,3.51,3.51,0,0,0,.26,1.39,2.91,2.91,0,0,0,.74,1,3,3,0,0,0,1.19.63,4.13,4.13,0,0,0,1.57.11,6,6,0,0,0,2.24-.63,10.3,10.3,0,0,0,1.31-.82Z"/><path d="M559.2,250.93l4.46-.53v9.36l1.82-.22v2.64l-3.79.46-0.55-1.71H561a5,5,0,0,1-1.65,1.71,5.53,5.53,0,0,1-2.45.89,5.3,5.3,0,0,1-1.67,0,2.59,2.59,0,0,1-1.28-.64,3.17,3.17,0,0,1-.82-1.39,7.78,7.78,0,0,1-.29-2.32c0-1.93,0-2.89,0-4.82l-1.37.15c0-1.06,0-1.58,0-2.64l4.49-.51c0,2.73,0,4.09,0,6.82a3.41,3.41,0,0,0,.47,2.06,1.52,1.52,0,0,0,1.47.48,2.91,2.91,0,0,0,1.59-.72,3.34,3.34,0,0,0,1-1.41v-5.11l-1.34.16C559.2,252.52,559.2,252,559.2,250.93Z"/><path d="M566.61,259.41l3-.37c0-2.69,0-4,0-6.72l-3,.37c0-1.06,0-1.58,0-2.64l5.39-.67,0.36,1.54h0.1a7.66,7.66,0,0,1,1.53-1.51,4.23,4.23,0,0,1,2-.78,2.41,2.41,0,0,1,2.26.76,5.31,5.31,0,0,1,.83,3.42l-2.8.36a2.25,2.25,0,0,0-.25-1.23,0.78,0.78,0,0,0-.8-0.29,2.68,2.68,0,0,0-1.55.68,5.8,5.8,0,0,0-1,1.23c0,2,0,3.07,0,5.11l5.2-.66v2.64c-4.51.58-6.77,0.86-11.29,1.42v-2.64Z"/><path d="M585.28,258.13a1.88,1.88,0,0,1,.54-1.37,2.25,2.25,0,0,1,1.35-.66,2.09,2.09,0,0,1,2,.59,3,3,0,0,1,.67,2,4.94,4.94,0,0,1-.42,2,6.27,6.27,0,0,1-1.09,1.68,7.15,7.15,0,0,1-1.5,1.26,7,7,0,0,1-1.64.77l-0.65-1.23a8.07,8.07,0,0,0,1.16-.56,5.69,5.69,0,0,0,1.07-.8,4.49,4.49,0,0,0,.8-1,2.87,2.87,0,0,0,.37-1.2,3.16,3.16,0,0,1-1.22.2,1.62,1.62,0,0,1-.83-0.27,1.31,1.31,0,0,1-.47-0.61A2.33,2.33,0,0,1,585.28,258.13Z"/><path d="M597,255.42l3.66-.52c0-4.2,0-6.29,0-10.49l-3.16,2.87L596,245.57l5.46-4.95,2.11-.3c0,5.67,0,8.5,0,14.16l3.59-.52v2.64c-4.08.6-6.13,0.89-10.22,1.47C597,257,597,256.48,597,255.42Z"/><path d="M621.28,254.46c-4.26.66-6.39,1-10.66,1.62,0-.93,0-1.4,0-2.33,0.19-.19.43-0.44,0.72-0.74l1-1q0.54-.58,1.14-1.27t1.17-1.43q0.81-1,1.42-1.87a14.45,14.45,0,0,0,1-1.56,6.82,6.82,0,0,0,.59-1.39,4.82,4.82,0,0,0,.19-1.34,2,2,0,0,0-.21-0.9,2.05,2.05,0,0,0-.6-0.71,2.37,2.37,0,0,0-.92-0.41,3.18,3.18,0,0,0-1.18,0,4.94,4.94,0,0,0-1.56.5,6.58,6.58,0,0,0-1.47,1.11l-1.24-2a12.87,12.87,0,0,1,2.24-1.55,8.48,8.48,0,0,1,2.83-.92,6.53,6.53,0,0,1,2,0,4.38,4.38,0,0,1,1.67.59,3.3,3.3,0,0,1,1.16,1.23,3.81,3.81,0,0,1,.43,1.88,7.65,7.65,0,0,1-.13,1.45,7.92,7.92,0,0,1-.41,1.38,10.88,10.88,0,0,1-.72,1.47q-0.44.76-1.06,1.68c-0.32.46-.67,0.94-1,1.42s-0.74.94-1.11,1.38-0.73.85-1.09,1.24-0.68.72-1,1l6.88-1.06v2.64Z"/><path d="M624,245.61a15.25,15.25,0,0,1,.45-3.9,9.47,9.47,0,0,1,1.28-2.93,6.61,6.61,0,0,1,4.54-2.89,4.76,4.76,0,0,1,4.65,1.37q1.63,1.86,1.63,6.32a15.36,15.36,0,0,1-.46,3.93,9.67,9.67,0,0,1-1.28,2.95,6.67,6.67,0,0,1-2,2,6.84,6.84,0,0,1-2.58,1,4.6,4.6,0,0,1-4.65-1.5Q624,249.88,624,245.61Zm3.11-.49c0,0.24,0,.47,0,0.68s0,0.43,0,.65l5.78-6.28a2.22,2.22,0,0,0-2.68-1.63,3.13,3.13,0,0,0-2.33,1.85A10.75,10.75,0,0,0,627.13,245.12Zm6.35-1q0-.38,0-0.73c0-.23,0-0.46,0-0.68l-5.8,6.29a2.26,2.26,0,0,0,2.68,1.76,3.17,3.17,0,0,0,2.35-1.84A10.78,10.78,0,0,0,633.48,244.1Z"/><path d="M642.64,249.47a2,2,0,0,1,.54-1.39,2.33,2.33,0,0,1,1.35-.71,2,2,0,0,1,2,.53,2.93,2.93,0,0,1,.67,2,5.07,5.07,0,0,1-.42,2,6.6,6.6,0,0,1-1.08,1.72,7.54,7.54,0,0,1-1.49,1.31,7.25,7.25,0,0,1-1.63.83l-0.64-1.21a8.34,8.34,0,0,0,1.16-.6,6,6,0,0,0,1.06-.84,4.73,4.73,0,0,0,.8-1.06,3,3,0,0,0,.37-1.22,3.19,3.19,0,0,1-1.22.24,1.56,1.56,0,0,1-.82-0.24,1.24,1.24,0,0,1-.46-0.59A2.3,2.3,0,0,1,642.64,249.47Z"/><path d="M654.28,246.36l3.65-.65c0-4.2,0-6.29,0-10.49l-3.15,3-1.43-1.67,5.43-5.14,2.1-.38c0,5.67,0,8.5,0,14.16l3.57-.65v2.64c-4.07.74-6.1,1.11-10.17,1.82v-2.64Z"/><path d="M678.11,250.15c-3.76.72-5.64,1.07-9.4,1.77,0-1.06,0-1.58,0-2.64l6.45-1.21c0-6.82,0-10.22,0-17l-6.45,1.21c0-1.06,0-1.58,0-2.64,3.76-.7,5.64-1,9.4-1.77C678.11,236.76,678.11,241.22,678.11,250.15Z"/><path d="M51.27,338l2.95,0.56c0-2.69,0-4,0-6.72l-2.95-.56v-2.64l5.35,1L57,331.35l0.09,0a4.8,4.8,0,0,1,1.52-1,3.42,3.42,0,0,1,2-.16,3.36,3.36,0,0,1,2.25,1.47,6.61,6.61,0,0,1,.82,3.68l-2.79-.51a2.72,2.72,0,0,0-.25-1.31,1.09,1.09,0,0,0-.8-0.54,2.09,2.09,0,0,0-1.54.19,3.65,3.65,0,0,0-1,.92c0,2,0,3.07,0,5.11l5.17,1v2.64c-4.49-.82-6.73-1.24-11.21-2.1V338Z"/><path d="M77.34,344.17a3.34,3.34,0,0,1-.8.43,6.41,6.41,0,0,1-1.14.32A8.06,8.06,0,0,1,74,345a9.24,9.24,0,0,1-1.67-.15,9.06,9.06,0,0,1-2.73-.92,6.92,6.92,0,0,1-3.31-3.85,8.12,8.12,0,0,1-.44-2.73,6.45,6.45,0,0,1,.5-2.68A4.31,4.31,0,0,1,67.68,333a4.65,4.65,0,0,1,2-.82,7.56,7.56,0,0,1,2.53.06,8.65,8.65,0,0,1,1.87.57,6.36,6.36,0,0,1,1.78,1.14,5.71,5.71,0,0,1,1.32,1.8,6,6,0,0,1,.51,2.59,10.93,10.93,0,0,1-.24,2.19L68.91,339a3.14,3.14,0,0,0,.32,1.35,3.31,3.31,0,0,0,.79,1,4.18,4.18,0,0,0,1.12.69,6.22,6.22,0,0,0,1.35.4,6.67,6.67,0,0,0,2.35.08,4.07,4.07,0,0,0,1.49-.56Zm-5.15-9.47a3.79,3.79,0,0,0-1.17,0,2.68,2.68,0,0,0-1,.33,2.11,2.11,0,0,0-.73.69,2.19,2.19,0,0,0-.33,1l5.86,1a3.1,3.1,0,0,0-.66-2A3.15,3.15,0,0,0,72.19,334.7Z"/><path d="M91.94,346.77a5.72,5.72,0,0,1-2.29.74,9.68,9.68,0,0,1-2.74-.09,8.68,8.68,0,0,1-2.76-.92,7.07,7.07,0,0,1-2-1.63,6.82,6.82,0,0,1-1.25-2.22,8.15,8.15,0,0,1-.43-2.67,6.2,6.2,0,0,1,.5-2.6,4.44,4.44,0,0,1,1.39-1.75,4.9,4.9,0,0,1,2.11-.88,7.81,7.81,0,0,1,2.65,0,10.76,10.76,0,0,1,2.5.73,13.7,13.7,0,0,1,1.79.9v4.22l-2.62-.44V338a7.4,7.4,0,0,0-1.48-.42,4.31,4.31,0,0,0-1.32,0A2.59,2.59,0,0,0,84,339a3.33,3.33,0,0,0-.32,1.55A4.09,4.09,0,0,0,83.9,342a4.23,4.23,0,0,0,.74,1.25,4.32,4.32,0,0,0,1.18,1,4.77,4.77,0,0,0,1.56.54,5.29,5.29,0,0,0,2.23,0,7.49,7.49,0,0,0,1.3-.46Z"/><path d="M101.11,337.41l4.44,0.7c0,3.34,0,5,0,8.35v1l1.82,0.28v2.64l-3.77-.59L103,347.94l-0.1,0a3.35,3.35,0,0,1-1.65,1.25,4.62,4.62,0,0,1-2.43.21,6,6,0,0,1-1.66-.51,3.73,3.73,0,0,1-1.28-1,4.5,4.5,0,0,1-.81-1.62,8.67,8.67,0,0,1-.29-2.4c0-1.93,0-2.89,0-4.82l-1.36-.22v-2.64l4.46,0.73c0,2.73,0,4.09,0,6.82a4.09,4.09,0,0,0,.47,2.19,2,2,0,0,0,1.47.88,2.3,2.3,0,0,0,1.59-.28,2.27,2.27,0,0,0,1-1.14c0-2,0-3.07,0-5.11l-1.34-.21v-2.64Z"/><path d="M108.49,347.93l3,0.46c0-2.69,0-4,0-6.72l-3-.46v-2.64l5.38,0.82,0.36,1.64h0.1a5.06,5.06,0,0,1,1.53-1.09,3.48,3.48,0,0,1,2-.23,3.23,3.23,0,0,1,2.26,1.39,6.43,6.43,0,0,1,.83,3.65l-2.8-.41a2.66,2.66,0,0,0-.25-1.3,1,1,0,0,0-.8-0.51,2.14,2.14,0,0,0-1.54.25,3.85,3.85,0,0,0-1,1c0,2,0,3.07,0,5.11l5.19,0.78v2.64c-4.5-.67-6.76-1-11.26-1.7v-2.64Z"/><path d="M132.78,359.23a12.72,12.72,0,0,1-3.25-1.51,11.69,11.69,0,0,1-2.8-2.53,12.24,12.24,0,0,1-1.95-3.55,13.41,13.41,0,0,1-.73-4.57,11.7,11.7,0,0,1,.73-4.35,8.64,8.64,0,0,1,1.95-3,8,8,0,0,1,2.8-1.78,10.66,10.66,0,0,1,3.25-.67l0.57,2.65a8.86,8.86,0,0,0-1.9.42,5.77,5.77,0,0,0-2,1.18,6.62,6.62,0,0,0-1.62,2.28,9.08,9.08,0,0,0-.66,3.75,9.6,9.6,0,0,0,.69,3.82,10,10,0,0,0,1.69,2.72,9.12,9.12,0,0,0,2,1.75,9.4,9.4,0,0,0,1.77.88Z"/><path d="M141.93,353a5.13,5.13,0,0,0,1.46,0,3.17,3.17,0,0,0,1.16-.4,2.11,2.11,0,0,0,.77-0.79,2.35,2.35,0,0,0,.27-1.16,2.8,2.8,0,0,0-1-2.21,6,6,0,0,0-3.13-1.17l-0.61-.07-0.66-.05-0.74-.08c0-3.51,0-5.27,0-8.79l8.67,1.15v2.93l-6-.79c0,1.3,0,1.94,0,3.24l0.38,0,0.32,0,0.27,0a7.54,7.54,0,0,1,2.23.64,6,6,0,0,1,1.8,1.28,5.67,5.67,0,0,1,1.19,1.85,6,6,0,0,1,.42,2.25,5.12,5.12,0,0,1-.53,2.42,4.27,4.27,0,0,1-1.44,1.6,5.54,5.54,0,0,1-2.11.81,8.28,8.28,0,0,1-2.56,0,6.82,6.82,0,0,1-1.13-.26c-0.4-.12-0.79-0.27-1.17-0.42s-0.74-.32-1.06-0.49-0.6-.33-0.83-0.47l1-2.36a8.37,8.37,0,0,0,1.26.7A6,6,0,0,0,141.93,353Z"/><path d="M155.85,355.67a1.45,1.45,0,0,1,.54-1.23,1.78,1.78,0,0,1,1.35-.31,2.72,2.72,0,0,1,2,1.11,3.74,3.74,0,0,1,.67,2.22,4.22,4.22,0,0,1-.42,1.92,4.36,4.36,0,0,1-1.09,1.4,5,5,0,0,1-1.5.87,5.53,5.53,0,0,1-1.64.35l-0.65-1.4a6.37,6.37,0,0,0,1.16-.26,4,4,0,0,0,1.07-.53,3.08,3.08,0,0,0,.8-0.82,2.29,2.29,0,0,0,.37-1.11,3.09,3.09,0,0,1-1.22-.12,2.15,2.15,0,0,1-.83-0.49,1.86,1.86,0,0,1-.47-0.73A2.64,2.64,0,0,1,155.85,355.67Z"/><path d="M178.84,355.25l-2.88-.32c0,1.87,0,2.81,0,4.68l-2.9-.33c0-1.87,0-2.81,0-4.68l-7.27-.85v-2.14l7.6-9.21,2.57,0.29c0,3.9,0,5.85,0,9.74l2.88,0.32v2.5Zm-5.78-8.48-4.17,4.84,4.17,0.48C173.06,350,173.06,348.9,173.06,346.77Z"/><path d="M182.28,362.78a7.46,7.46,0,0,0,1.78-.44,6.47,6.47,0,0,0,2.05-1.24,7.1,7.1,0,0,0,1.69-2.3,8.36,8.36,0,0,0,.7-3.65,10.27,10.27,0,0,0-.66-3.91,9.27,9.27,0,0,0-1.62-2.68,8.17,8.17,0,0,0-2-1.68,11.17,11.17,0,0,0-1.91-.89l0.58-2.51a13.31,13.31,0,0,1,3.26,1.48,11.37,11.37,0,0,1,2.81,2.48,12,12,0,0,1,2,3.5,13.16,13.16,0,0,1,.73,4.53,11.86,11.86,0,0,1-.73,4.39,8.84,8.84,0,0,1-2,3.06,8.22,8.22,0,0,1-2.81,1.84,10.23,10.23,0,0,1-3.26.7Z"/><path d="M361.63,370.14c0-1.06,0-1.58,0-2.64h2.84c0-2.69,0-4,0-6.72H361.6c0-1.06,0-1.58,0-2.64h2.87v-0.67a4.4,4.4,0,0,1,.4-1.95,3.93,3.93,0,0,1,1-1.35,4.31,4.31,0,0,1,1.51-.78,6.28,6.28,0,0,1,1.77-.26,11.32,11.32,0,0,1,2.74.26,7,7,0,0,1,1.77.67l-0.92,2.38a11.15,11.15,0,0,0-1.19-.47,5.26,5.26,0,0,0-1.65-.21,2.35,2.35,0,0,0-1.82.59,2.61,2.61,0,0,0-.52,1.77l5.06,0v2.64l-5.06,0c0,2.69,0,4,0,6.72l5.09,0v2.64C368.27,370.14,366.05,370.15,361.63,370.14Z"/><path d="M376.55,358.9a13.32,13.32,0,0,1,2.23-.76,12.8,12.8,0,0,1,3-.34,6.65,6.65,0,0,1,2.13.27,3.51,3.51,0,0,1,1.42.83,3.17,3.17,0,0,1,.78,1.31,5.75,5.75,0,0,1,.24,1.72q0,1.22-.08,2.09c-0.06.58-.08,1.09-0.08,1.54a10.16,10.16,0,0,0,0,1.13c0,0.22.06,0.44,0.07,0.65l1.57,0V370l-4,.06-0.32-1.63H383.4a4.23,4.23,0,0,1-1.37,1.3,4.61,4.61,0,0,1-2.4.56,4,4,0,0,1-2.85-.93,3.25,3.25,0,0,1-1.05-2.54,3.83,3.83,0,0,1,.37-1.74,3.15,3.15,0,0,1,1.08-1.21,5.19,5.19,0,0,1,1.7-.71,10.07,10.07,0,0,1,2.22-.25,9.08,9.08,0,0,1,.91,0l1.17,0.08a2.47,2.47,0,0,0,0-.48v-0.46a1.52,1.52,0,0,0-.53-1.3,2.55,2.55,0,0,0-1.56-.38,7.31,7.31,0,0,0-2.2.33,14.61,14.61,0,0,0-1.65.64Zm4.1,8.77a2.64,2.64,0,0,0,2.55-1.35v-1.44l-0.72-.1a8.21,8.21,0,0,0-1,0,5,5,0,0,0-.91.09,3,3,0,0,0-.81.27,1.62,1.62,0,0,0-.57.47,1.14,1.14,0,0,0-.21.7,1.36,1.36,0,0,0,.39,1A1.84,1.84,0,0,0,380.65,367.67Z"/><path d="M402,368.53a7.07,7.07,0,0,1-2.31,1.17,10.24,10.24,0,0,1-2.77.43,7.81,7.81,0,0,1-2.78-.4,5.54,5.54,0,0,1-2-1.25,5.33,5.33,0,0,1-1.27-2,7.37,7.37,0,0,1-.43-2.58,6.82,6.82,0,0,1,.51-2.7,5.8,5.8,0,0,1,1.41-2,6.22,6.22,0,0,1,2.13-1.28,8.36,8.36,0,0,1,2.68-.47,9.88,9.88,0,0,1,2.53.26,11.38,11.38,0,0,1,1.81.56c0,1.69,0,2.53,0,4.22l-2.65.06c0-.88,0-1.32,0-2.21a6.82,6.82,0,0,0-1.49-.14,4.59,4.59,0,0,0-1.34.23,3.37,3.37,0,0,0-1.18.67,3.49,3.49,0,0,0-.84,1.13,3.71,3.71,0,0,0-.33,1.62,3.67,3.67,0,0,0,.26,1.41,3.27,3.27,0,0,0,.75,1.11,3.34,3.34,0,0,0,1.19.73,4.27,4.27,0,0,0,1.58.25,5.72,5.72,0,0,0,2.25-.43,9.35,9.35,0,0,0,1.31-.7Z"/><path d="M406.1,360.22l-2.39.06v-2.64l2.39-.06v-2.74l3.13-1c0,1.45,0,2.18,0,3.63l6.31-.19c0,1.06,0,1.58,0,2.64l-6.31.19c0,1.37,0,2.06,0,3.43a4,4,0,0,0,.7,2.66,2.35,2.35,0,0,0,2,.77,4.24,4.24,0,0,0,1.18-.19,4.59,4.59,0,0,0,1-.43,5.72,5.72,0,0,0,.77-0.55l0.64-.55,1.45,2.11a4.81,4.81,0,0,1-1,.91,9.07,9.07,0,0,1-1.33.74,8.59,8.59,0,0,1-1.48.51,7.16,7.16,0,0,1-1.52.21,5.07,5.07,0,0,1-4.06-1.39q-1.36-1.46-1.36-4.73C406.1,362.28,406.1,361.59,406.1,360.22Z"/><path d="M418.61,363.21a7.51,7.51,0,0,1,.46-2.7,5.7,5.7,0,0,1,3.31-3.34,7.89,7.89,0,0,1,2.61-.52,7.47,7.47,0,0,1,2.71.35,5.31,5.31,0,0,1,2,1.21,5.11,5.11,0,0,1,1.24,2,8.15,8.15,0,0,1,0,5.28,5.72,5.72,0,0,1-3.31,3.36,7.83,7.83,0,0,1-2.61.52,7.41,7.41,0,0,1-2.71-.36,5.32,5.32,0,0,1-2-1.21,5.17,5.17,0,0,1-1.24-2A7.5,7.5,0,0,1,418.61,363.21Zm3.23-.11a4.67,4.67,0,0,0,.22,1.46,3.43,3.43,0,0,0,.63,1.15,2.68,2.68,0,0,0,1,.75,3,3,0,0,0,1.33.23,3.17,3.17,0,0,0,2.28-1,4.85,4.85,0,0,0,.06-5.48,2.72,2.72,0,0,0-2.34-.93,3.8,3.8,0,0,0-1.25.25,2.6,2.6,0,0,0-1,.7,3.38,3.38,0,0,0-.66,1.18A5.23,5.23,0,0,0,421.83,363.1Z"/><path d="M433.16,366l3-.13c0-2.69,0-4,0-6.72l-3,.13c0-1.06,0-1.58,0-2.64l5.42-.24,0.36,1.57H439a6.78,6.78,0,0,1,1.54-1.39,4,4,0,0,1,2-.62,2.61,2.61,0,0,1,2.28.94,5.6,5.6,0,0,1,.83,3.49l-2.82.14a2.35,2.35,0,0,0-.25-1.25,0.84,0.84,0,0,0-.81-0.36,2.5,2.5,0,0,0-1.55.55,5.17,5.17,0,0,0-1,1.15c0,2,0,3.07,0,5.11l5.23-.25c0,1.06,0,1.58,0,2.64-4.54.22-6.81,0.33-11.35,0.52C433.16,367.6,433.16,367.07,433.16,366Z"/><path d="M448.09,365.32l4.24-.22c0-2.69,0-4,0-6.72l-4.24.22c0-1.06,0-1.58,0-2.64l7.37-.39c0,3.74,0,5.62,0,9.36l4.45-.25v2.64c-4.73.28-7.09,0.41-11.82,0.65C448.09,366.9,448.09,366.38,448.09,365.32Zm3.66-12.81a1.8,1.8,0,0,1,.55-1.3,2.63,2.63,0,0,1,3.15-.17,1.54,1.54,0,0,1,.6,1.24,1.65,1.65,0,0,1-.6,1.29,2.59,2.59,0,0,1-1.61.58,2.14,2.14,0,0,1-1.54-.41A1.52,1.52,0,0,1,451.75,352.5Z"/><path d="M463.28,355.93a14,14,0,0,1,2.23-.88,13,13,0,0,1,3-.5,6.52,6.52,0,0,1,2.13.16,3.28,3.28,0,0,1,1.42.76,3,3,0,0,1,.78,1.27,5.63,5.63,0,0,1,.24,1.71q0,1.22-.08,2.09c-0.06.58-.08,1.1-0.08,1.54a10.08,10.08,0,0,0,0,1.12c0,0.22.06,0.44,0.07,0.64l1.56-.1c0,1.06,0,1.58,0,2.64l-4,.27L470.24,365h-0.12a4.56,4.56,0,0,1-1.36,1.37,4.78,4.78,0,0,1-2.39.69,3.86,3.86,0,0,1-2.85-.78,3.08,3.08,0,0,1-1.05-2.48,4,4,0,0,1,.37-1.76,3.4,3.4,0,0,1,1.08-1.26,5.49,5.49,0,0,1,1.7-.8,10.28,10.28,0,0,1,2.21-.36c0.29,0,.59,0,0.91,0l1.17,0a2.51,2.51,0,0,0,0-.48v-0.46a1.44,1.44,0,0,0-.52-1.27,2.46,2.46,0,0,0-1.55-.3,7.5,7.5,0,0,0-2.2.45,15.35,15.35,0,0,0-1.65.73Zm4.1,8.55a3,3,0,0,0,1.71-.53,3.11,3.11,0,0,0,.83-1v-1.44l-0.71-.06a8.21,8.21,0,0,0-1,0,5.1,5.1,0,0,0-.9.14,3.19,3.19,0,0,0-.81.31,1.75,1.75,0,0,0-.57.5,1.19,1.19,0,0,0-.21.71,1.29,1.29,0,0,0,.39,1A1.77,1.77,0,0,0,467.38,364.48Z"/><path d="M477.65,349.38l5.13-.36c0,4.44,0,6.65,0,11.09a4.93,4.93,0,0,0,.46,2.54,1.49,1.49,0,0,0,1.47.61,4.21,4.21,0,0,0,1.23-.25,5,5,0,0,0,1-.52l1.18,2.07c-0.27.2-.55,0.38-0.82,0.55a5.78,5.78,0,0,1-.87.45,6.22,6.22,0,0,1-1,.31,8.18,8.18,0,0,1-1.21.17,4.29,4.29,0,0,1-3.39-.91,4.18,4.18,0,0,1-1.13-3.18c0-4,0-6,0-10.08l-2,.14C477.65,351,477.65,350.44,477.65,349.38Z"/><path d="M491.87,367.94c4.27-.33,6.41-0.51,10.68-0.86,0,1,0,1.54,0,2.57-4.27.36-6.41,0.53-10.68,0.86C491.87,369.48,491.87,369,491.87,367.94Z"/><path d="M504.42,347.31l4.86-.42c0,2.46,0,3.69,0,6.14h0.1a4.61,4.61,0,0,1,1.54-1.36,5.59,5.59,0,0,1,2.26-.66,5.49,5.49,0,0,1,1.68.09,2.85,2.85,0,0,1,1.32.67,3.32,3.32,0,0,1,.86,1.42,7.28,7.28,0,0,1,.31,2.31c0,3,0,4.48,0,7.46l-3.12.29c0-2.73,0-4.09,0-6.82a2.75,2.75,0,0,0-.62-2.05,2,2,0,0,0-1.63-.5,3,3,0,0,0-1.63.69,3.34,3.34,0,0,0-1.06,1.47c0,3.06,0,4.59,0,7.66l-3.13.27c0-5.66,0-8.5,0-14.16l-1.73.15C504.42,348.89,504.42,348.37,504.42,347.31Z"/><path d="M531.67,360.28a4.93,4.93,0,0,1-.81.65,8.7,8.7,0,0,1-1.15.63,9.78,9.78,0,0,1-3.14.84,7.88,7.88,0,0,1-2.75-.16,4.72,4.72,0,0,1-3.34-2.93,7.06,7.06,0,0,1-.44-2.61,7.42,7.42,0,0,1,.5-2.82,6.32,6.32,0,0,1,1.38-2.11,6.57,6.57,0,0,1,2.05-1.39,8.44,8.44,0,0,1,2.55-.64,7.73,7.73,0,0,1,1.89.05,4.65,4.65,0,0,1,1.79.65,3.84,3.84,0,0,1,1.33,1.44,5,5,0,0,1,.52,2.44,11.76,11.76,0,0,1-.24,2.26l-8.65.86a2.58,2.58,0,0,0,.32,1.27,2.23,2.23,0,0,0,.79.79,3.09,3.09,0,0,0,1.13.38,5.57,5.57,0,0,0,1.36,0,7.39,7.39,0,0,0,2.37-.57,5.71,5.71,0,0,0,1.5-1Zm-5.19-8a4.19,4.19,0,0,0-1.18.29,3.72,3.72,0,0,0-1,.6,3.19,3.19,0,0,0-.73.89,2.74,2.74,0,0,0-.34,1.13l5.91-.58a2.41,2.41,0,0,0-.66-1.83A2.44,2.44,0,0,0,526.48,352.24Z"/><path d="M535.34,344.38l5.11-.54c0,4.44,0,6.65,0,11.09a4.84,4.84,0,0,0,.46,2.52,1.44,1.44,0,0,0,1.46.56,4.28,4.28,0,0,0,1.22-.29,5.23,5.23,0,0,0,1-.55l1.18,2q-0.41.31-.82,0.58a5.94,5.94,0,0,1-.86.48,6.39,6.39,0,0,1-1,.35,8.28,8.28,0,0,1-1.21.22,4.17,4.17,0,0,1-3.38-.79,4.06,4.06,0,0,1-1.13-3.14c0-4,0-6,0-10.08l-2,.21C535.34,346,535.34,345.43,535.34,344.38Z"/><path d="M547.66,347.85l4.08-.46,0.36,1.4h0.1a5.22,5.22,0,0,1,4-2.24,5.49,5.49,0,0,1,2,.11,3.38,3.38,0,0,1,1.58.9,4.41,4.41,0,0,1,1,1.75,8.56,8.56,0,0,1,.36,2.67,9.31,9.31,0,0,1-.41,2.82,6.84,6.84,0,0,1-1.18,2.24,6,6,0,0,1-1.87,1.54,7.06,7.06,0,0,1-2.52.75,9.84,9.84,0,0,1-1.46.06,3.71,3.71,0,0,1-1.2-.21c0,2,0,3,0,4.92l-3.12.35c0-5.66,0-8.5,0-14.16l-1.8.2C547.66,349.43,547.66,348.9,547.66,347.85Zm7.63,1.43a3.5,3.5,0,0,0-1.67.65,2.77,2.77,0,0,0-1,1.49c0,2,0,3,0,5a2.3,2.3,0,0,0,1,.31,5.22,5.22,0,0,0,1.28,0,3.64,3.64,0,0,0,1.25-.37,3,3,0,0,0,1-.85,4.1,4.1,0,0,0,.67-1.35,6.56,6.56,0,0,0,.24-1.88,3.22,3.22,0,0,0-.77-2.36A2.23,2.23,0,0,0,555.28,349.28Z"/><path d="M574.85,355.31a5.11,5.11,0,0,1-.8.67,8.94,8.94,0,0,1-1.15.66,9.95,9.95,0,0,1-3.13.92,7.82,7.82,0,0,1-2.74-.09,4.71,4.71,0,0,1-2.05-1,4.66,4.66,0,0,1-1.28-1.83,7,7,0,0,1-.44-2.6,7.53,7.53,0,0,1,.5-2.83,6.56,6.56,0,0,1,1.38-2.15,6.81,6.81,0,0,1,2-1.44,8.57,8.57,0,0,1,2.54-.71,7.67,7.67,0,0,1,1.88,0,4.53,4.53,0,0,1,1.78.6,3.69,3.69,0,0,1,1.33,1.4,5,5,0,0,1,.52,2.43,11.88,11.88,0,0,1-.24,2.26l-8.63,1.09a2.53,2.53,0,0,0,.32,1.26,2.14,2.14,0,0,0,.79.77,3,3,0,0,0,1.13.35,5.54,5.54,0,0,0,1.35,0,7.5,7.5,0,0,0,2.36-.63,5.9,5.9,0,0,0,1.5-1Zm-5.18-7.91a4.25,4.25,0,0,0-1.17.32,3.84,3.84,0,0,0-1,.63,3.31,3.31,0,0,0-.73.91,2.8,2.8,0,0,0-.34,1.14l5.9-.74a2.35,2.35,0,0,0-.66-1.81A2.39,2.39,0,0,0,569.67,347.4Z"/><path d="M577.36,353.62l3-.39c0-2.69,0-4,0-6.72l-3,.39c0-1.06,0-1.58,0-2.64l5.39-.71,0.36,1.54h0.1a7.7,7.7,0,0,1,1.53-1.53,4.26,4.26,0,0,1,2-.8,2.39,2.39,0,0,1,2.26.75,5.29,5.29,0,0,1,.83,3.42l-2.8.38a2.24,2.24,0,0,0-.25-1.23,0.77,0.77,0,0,0-.8-0.29,2.7,2.7,0,0,0-1.54.69,5.88,5.88,0,0,0-1,1.24c0,2,0,3.07,0,5.11l5.2-.7c0,1.06,0,1.58,0,2.64-4.51.62-6.77,0.92-11.28,1.51C577.36,355.2,577.36,354.67,577.36,353.62Z"/><path d="M601.68,358a10,10,0,0,1-3.25-.59,7.8,7.8,0,0,1-2.8-1.74,8.42,8.42,0,0,1-2-3,11.69,11.69,0,0,1-.73-4.36,13.42,13.42,0,0,1,.73-4.56,12.53,12.53,0,0,1,2-3.57,12,12,0,0,1,2.8-2.58,13.8,13.8,0,0,1,3.25-1.6l0.57,2.49a11.52,11.52,0,0,0-1.9,1,8.57,8.57,0,0,0-2,1.76,9.7,9.7,0,0,0-1.61,2.74,10.49,10.49,0,0,0-.66,3.93,8.22,8.22,0,0,0,.69,3.62,6.72,6.72,0,0,0,1.69,2.24,6.15,6.15,0,0,0,2,1.17,7.24,7.24,0,0,0,1.77.38Z"/><path d="M618.2,345.22a5.87,5.87,0,0,1-.44,2.25,6.79,6.79,0,0,1-1.21,1.94,7,7,0,0,1-1.83,1.46,6.7,6.7,0,0,1-2.28.78,6.46,6.46,0,0,1-2.33,0,4.37,4.37,0,0,1-1.9-.9,4.6,4.6,0,0,1-1.29-1.8,6.94,6.94,0,0,1-.48-2.71,11.86,11.86,0,0,1,.83-4.44,14.51,14.51,0,0,1,2.12-3.69,13.8,13.8,0,0,1,2.89-2.74,11.41,11.41,0,0,1,3.18-1.6l0.69,2.37a10.9,10.9,0,0,0-2.37,1.14,10.77,10.77,0,0,0-2,1.61,9.83,9.83,0,0,0-1.45,1.92,7,7,0,0,0-.8,2.07,4.58,4.58,0,0,1,1.43-1.24,5.82,5.82,0,0,1,2.1-.74,5.48,5.48,0,0,1,2,0,3.67,3.67,0,0,1,2.69,2.21A5.26,5.26,0,0,1,618.2,345.22Zm-3,.59a2.11,2.11,0,0,0-.78-1.85,2.79,2.79,0,0,0-2.09-.35,3.93,3.93,0,0,0-1.72.69,3.82,3.82,0,0,0-1.12,1.18,4.35,4.35,0,0,0-.06.6c0,0.22,0,.39,0,0.52a3,3,0,0,0,.19,1.07,2.13,2.13,0,0,0,1.46,1.33,2.9,2.9,0,0,0,1.22,0,3.31,3.31,0,0,0,1.08-.37,3.77,3.77,0,0,0,.93-0.71,3.43,3.43,0,0,0,.66-1A2.82,2.82,0,0,0,615.19,345.81Z"/><path d="M620.4,341.66a15.24,15.24,0,0,1,.45-3.9,9.48,9.48,0,0,1,1.28-2.93,6.62,6.62,0,0,1,4.54-2.88,4.76,4.76,0,0,1,4.65,1.37q1.63,1.86,1.63,6.32a15.37,15.37,0,0,1-.46,3.93,9.67,9.67,0,0,1-1.28,2.95,6.64,6.64,0,0,1-2,2,6.82,6.82,0,0,1-2.58,1,4.6,4.6,0,0,1-4.65-1.5Q620.4,345.94,620.4,341.66Zm3.11-.49c0,0.24,0,.47,0,0.68s0,0.43,0,.65l5.78-6.28a2.22,2.22,0,0,0-2.68-1.63,3.13,3.13,0,0,0-2.33,1.85A10.74,10.74,0,0,0,623.5,341.18Zm6.35-1q0-.38,0-0.73c0-.23,0-0.46,0-0.68L624,345a2.26,2.26,0,0,0,2.68,1.76,3.17,3.17,0,0,0,2.35-1.84A10.78,10.78,0,0,0,629.85,340.15Z"/><path d="M639,345.53a2,2,0,0,1,.54-1.39,2.33,2.33,0,0,1,1.35-.71,2,2,0,0,1,2,.53,2.94,2.94,0,0,1,.67,2,5.07,5.07,0,0,1-.42,2,6.56,6.56,0,0,1-1.08,1.72,7.54,7.54,0,0,1-1.49,1.31,7.19,7.19,0,0,1-1.63.83l-0.64-1.21a8.39,8.39,0,0,0,1.16-.6,6,6,0,0,0,1.06-.84,4.71,4.71,0,0,0,.8-1.06,3,3,0,0,0,.37-1.22,3.18,3.18,0,0,1-1.22.24,1.56,1.56,0,0,1-.82-0.24,1.24,1.24,0,0,1-.46-0.59A2.31,2.31,0,0,1,639,345.53Z"/><path d="M660.59,343.28c-4.25.77-6.37,1.15-10.63,1.9v-2.33l0.72-.76,1-1.07q0.54-.6,1.13-1.3t1.17-1.46q0.81-1.05,1.42-1.91a14.88,14.88,0,0,0,1-1.58,7,7,0,0,0,.58-1.4,4.88,4.88,0,0,0,.19-1.34,1.94,1.94,0,0,0-.21-0.9,2,2,0,0,0-.6-0.7,2.3,2.3,0,0,0-.92-0.39,3.16,3.16,0,0,0-1.18,0,5,5,0,0,0-1.56.54,6.82,6.82,0,0,0-1.47,1.15l-1.24-2a13.29,13.29,0,0,1,2.23-1.6,8.63,8.63,0,0,1,2.82-1,6.5,6.5,0,0,1,2-.06,4.28,4.28,0,0,1,1.67.55,3.17,3.17,0,0,1,1.16,1.2,3.75,3.75,0,0,1,.43,1.87,7.71,7.71,0,0,1-.13,1.45,8.08,8.08,0,0,1-.4,1.39A11.22,11.22,0,0,1,659,335q-0.44.78-1.06,1.7c-0.32.47-.66,1-1,1.45s-0.74,1-1.11,1.41-0.73.87-1.08,1.27-0.68.74-1,1l6.86-1.23v2.64Z"/><path d="M665.28,344.89a9.86,9.86,0,0,0,1.76-1,9.73,9.73,0,0,0,2-1.84,10.6,10.6,0,0,0,1.68-2.8,9.88,9.88,0,0,0,.69-3.85,8.91,8.91,0,0,0-.65-3.72,6.2,6.2,0,0,0-1.61-2.21,5.4,5.4,0,0,0-2-1.09,8.56,8.56,0,0,0-1.89-.33l0.57-2.67a10.29,10.29,0,0,1,3.24.53,7.47,7.47,0,0,1,2.78,1.66,8.13,8.13,0,0,1,1.94,2.93,11.51,11.51,0,0,1,.72,4.31,13.78,13.78,0,0,1-.72,4.6,12.94,12.94,0,0,1-1.94,3.63,12.43,12.43,0,0,1-2.78,2.66,13.27,13.27,0,0,1-3.24,1.66Z"/><path d="M48.06,292.7v-2.64l2.81,0.53v-6.72L48,283.33v-2.64l2.83,0.54v-0.67a4,4,0,0,1,.39-1.87,3,3,0,0,1,1-1.15,3.45,3.45,0,0,1,1.49-.5,5.94,5.94,0,0,1,1.75.07,12.28,12.28,0,0,1,2.7.78,8.52,8.52,0,0,1,1.75,1l-0.9,2.21a13.51,13.51,0,0,0-1.18-.7,5.78,5.78,0,0,0-1.63-.52,2,2,0,0,0-1.8.25,2.25,2.25,0,0,0-.51,1.67l5,0.93v2.64l-5-.93v6.72l5,0.93v2.64C54.61,293.94,52.43,293.53,48.06,292.7Z"/><path d="M62.79,284.25a11.44,11.44,0,0,1,2.2-.35,12.34,12.34,0,0,1,3,.22,7.33,7.33,0,0,1,2.11.67,4.51,4.51,0,0,1,1.41,1.1,4,4,0,0,1,.77,1.46,6.27,6.27,0,0,1,.24,1.77q0,1.22-.08,2.07c-0.06.57-.08,1.07-0.08,1.52a10.78,10.78,0,0,0,0,1.14c0,0.22.06,0.45,0.07,0.66L74,294.79v2.64l-4-.7L69.68,295l-0.12,0a3.19,3.19,0,0,1-1.35,1,4.15,4.15,0,0,1-2.37.12A4.83,4.83,0,0,1,63,294.71,3.93,3.93,0,0,1,62,292a3.43,3.43,0,0,1,.37-1.67,2.38,2.38,0,0,1,1.06-1,4.31,4.31,0,0,1,1.68-.39,9.72,9.72,0,0,1,2.19.17c0.29,0.05.59,0.12,0.9,0.21l1.16,0.3a2.29,2.29,0,0,0,0-.47v-0.46a1.83,1.83,0,0,0-.52-1.4,3,3,0,0,0-1.54-.67,6.92,6.92,0,0,0-2.18-.08,12.17,12.17,0,0,0-1.63.33Zm4.06,9.54a2.6,2.6,0,0,0,1.7-.12,2.18,2.18,0,0,0,.83-0.75v-1.44l-0.71-.23a8.7,8.7,0,0,0-1-.24,4.9,4.9,0,0,0-.89-0.08,2.64,2.64,0,0,0-.8.12,1.24,1.24,0,0,0-.57.37,1,1,0,0,0-.21.66,1.63,1.63,0,0,0,.39,1.11A2.17,2.17,0,0,0,66.85,293.79Z"/><path d="M88,298.66a5.73,5.73,0,0,1-2.29.73,9.69,9.69,0,0,1-2.74-.09,8.68,8.68,0,0,1-2.76-.92,7.08,7.08,0,0,1-2-1.63,6.82,6.82,0,0,1-1.25-2.22,8.15,8.15,0,0,1-.43-2.67,6.2,6.2,0,0,1,.5-2.6,4.43,4.43,0,0,1,1.39-1.75,4.89,4.89,0,0,1,2.11-.87,7.81,7.81,0,0,1,2.65,0,10.76,10.76,0,0,1,2.5.73,13.71,13.71,0,0,1,1.79.9v4.22l-2.62-.44v-2.21a7.4,7.4,0,0,0-1.48-.42,4.31,4.31,0,0,0-1.32,0,2.59,2.59,0,0,0-2,1.42,3.33,3.33,0,0,0-.32,1.55,4.1,4.1,0,0,0,.26,1.46,4.21,4.21,0,0,0,.74,1.25,4.3,4.3,0,0,0,1.18,1,4.77,4.77,0,0,0,1.56.54,5.3,5.3,0,0,0,2.23,0,7.48,7.48,0,0,0,1.3-.45Z"/><path d="M92,291.12l-2.36-.39v-2.64L92,288.48v-2.74l3.1-.39c0,1.45,0,2.18,0,3.63l6.26,1v2.64l-6.26-1v3.43a4.67,4.67,0,0,0,.69,2.79A2.86,2.86,0,0,0,97.75,299a4,4,0,0,0,1.17,0,3.79,3.79,0,0,0,.94-0.25,4.35,4.35,0,0,0,.76-0.41l0.63-.43,1.43,2.39a3.69,3.69,0,0,1-1,.72,7.22,7.22,0,0,1-1.31.49,7.41,7.41,0,0,1-1.47.24,6.85,6.85,0,0,1-1.5-.07,6.1,6.1,0,0,1-4-2.15,7.94,7.94,0,0,1-1.35-5v-3.43Z"/><path d="M104.42,296.45a6.88,6.88,0,0,1,.45-2.62,4.45,4.45,0,0,1,1.29-1.79,4.54,4.54,0,0,1,2-.93,7.32,7.32,0,0,1,2.59,0,8.3,8.3,0,0,1,2.69.86,6.84,6.84,0,0,1,2,1.58,6.53,6.53,0,0,1,1.23,2.19,8.24,8.24,0,0,1,.42,2.65,6.89,6.89,0,0,1-.45,2.62,4.5,4.5,0,0,1-1.29,1.8,4.56,4.56,0,0,1-2,.94,7.27,7.27,0,0,1-2.59,0,8.21,8.21,0,0,1-2.69-.87,6.84,6.84,0,0,1-2-1.59,6.61,6.61,0,0,1-1.23-2.19A8.28,8.28,0,0,1,104.42,296.45Zm3.2,0.5a5.11,5.11,0,0,0,.21,1.5,4.29,4.29,0,0,0,.62,1.27,3.5,3.5,0,0,0,1,.93,3.37,3.37,0,0,0,1.31.48,2.67,2.67,0,0,0,2.26-.55,3.41,3.41,0,0,0,.87-2.68,4.7,4.7,0,0,0-.81-2.8,3.33,3.33,0,0,0-2.32-1.37,3.51,3.51,0,0,0-1.24,0,2,2,0,0,0-1,.51,2.64,2.64,0,0,0-.66,1.05A4.88,4.88,0,0,0,107.62,297Z"/><path d="M118.86,302l3,0.43c0-2.69,0-4,0-6.72l-3-.43v-2.64l5.38,0.78,0.36,1.64h0.1a5.13,5.13,0,0,1,1.53-1.1,3.5,3.5,0,0,1,2-.24,3.2,3.2,0,0,1,2.26,1.37,6.39,6.39,0,0,1,.83,3.64l-2.8-.39a2.65,2.65,0,0,0-.25-1.3,1,1,0,0,0-.8-0.51,2.15,2.15,0,0,0-1.54.26,3.89,3.89,0,0,0-1,1c0,2,0,3.07,0,5.11l5.19,0.73c0,1.06,0,1.58,0,2.64-4.51-.63-6.76-1-11.27-1.62V302Z"/><path d="M133.69,304.11l4.21,0.57V298l-4.21-.57c0-1.06,0-1.58,0-2.64l7.33,1c0,3.74,0,5.62,0,9.36l4.43,0.58c0,1.06,0,1.58,0,2.64-4.7-.61-7.06-0.93-11.76-1.58v-2.64ZM137.33,292a1.48,1.48,0,0,1,.55-1.2,1.92,1.92,0,0,1,1.53-.32,2.67,2.67,0,0,1,1.6.74,1.89,1.89,0,0,1,.6,1.35,1.35,1.35,0,0,1-.6,1.18,2.23,2.23,0,0,1-1.6.28,2.53,2.53,0,0,1-1.53-.7A1.85,1.85,0,0,1,137.33,292Z"/><path d="M148.8,297.58a11.9,11.9,0,0,1,2.22-.46,12.42,12.42,0,0,1,3,.06,7.1,7.1,0,0,1,2.12.56,4.21,4.21,0,0,1,1.41,1,3.79,3.79,0,0,1,.78,1.42,6.11,6.11,0,0,1,.24,1.76q0,1.22-.08,2.08c-0.06.57-.08,1.08-0.08,1.53a10.64,10.64,0,0,0,0,1.13c0,0.22.06,0.45,0.07,0.66l1.56,0.19c0,1.06,0,1.58,0,2.64l-4-.49L155.73,308h-0.12a3.45,3.45,0,0,1-1.36,1.12,4.26,4.26,0,0,1-2.38.24A4.58,4.58,0,0,1,149,308a3.73,3.73,0,0,1-1-2.68,3.53,3.53,0,0,1,.37-1.69,2.57,2.57,0,0,1,1.07-1.06,4.53,4.53,0,0,1,1.69-.48,9.75,9.75,0,0,1,2.2.05c0.29,0,.59.09,0.9,0.16l1.17,0.24a2.31,2.31,0,0,0,0-.47v-0.46a1.74,1.74,0,0,0-.52-1.37,2.84,2.84,0,0,0-1.55-.59,7,7,0,0,0-2.19,0,12.7,12.7,0,0,0-1.64.42Zm4.08,9.33a2.67,2.67,0,0,0,1.71-.21,2.36,2.36,0,0,0,.83-0.8v-1.44l-0.71-.2a8.54,8.54,0,0,0-1-.19,4.89,4.89,0,0,0-.9,0,2.73,2.73,0,0,0-.81.16,1.34,1.34,0,0,0-.57.4,1,1,0,0,0-.21.67,1.55,1.55,0,0,0,.39,1.09A2.07,2.07,0,0,0,152.88,306.9Z"/><path d="M163.11,293.73l5.11,0.6c0,4.44,0,6.65,0,11.09a5.48,5.48,0,0,0,.46,2.62,1.83,1.83,0,0,0,1.46.89,3.93,3.93,0,0,0,1.22,0,4.07,4.07,0,0,0,1-.34l1.18,2.29q-0.41.22-.82,0.4a4.64,4.64,0,0,1-.86.29,5.51,5.51,0,0,1-1,.13,7.89,7.89,0,0,1-1.21-.06,5.09,5.09,0,0,1-3.38-1.55,5,5,0,0,1-1.13-3.4c0-4,0-6,0-10.08l-2-.24C163.11,295.32,163.11,294.79,163.11,293.73Z"/><path d="M177.29,315c4.26,0.47,6.39.7,10.66,1.15,0,1,0,1.54,0,2.57-4.26-.45-6.4-0.68-10.66-1.15V315Z"/><path d="M189.82,296.72l4.85,0.5c0,2.46,0,3.69,0,6.14h0.1a3.52,3.52,0,0,1,1.54-1.07,5,5,0,0,1,2.26-.23,6,6,0,0,1,1.68.4,3.63,3.63,0,0,1,1.32.92,4.22,4.22,0,0,1,.87,1.58,7.86,7.86,0,0,1,.31,2.37c0,3,0,4.48,0,7.47l-3.12-.3c0-2.73,0-4.09,0-6.82a3.21,3.21,0,0,0-.62-2.17,2.4,2.4,0,0,0-1.63-.81,2.6,2.6,0,0,0-2.69,1.65c0,3.06,0,4.59,0,7.66l-3.12-.32c0-5.66,0-8.5,0-14.16l-1.73-.18C189.82,298.3,189.82,297.77,189.82,296.72Z"/><path d="M217.06,314.84a3.79,3.79,0,0,1-.81.49,7,7,0,0,1-1.15.41,8.48,8.48,0,0,1-1.45.26,9.3,9.3,0,0,1-1.68,0,8.58,8.58,0,0,1-2.75-.68,6.14,6.14,0,0,1-3.34-3.56,7.74,7.74,0,0,1-.44-2.69,6.71,6.71,0,0,1,.5-2.73,4.86,4.86,0,0,1,1.38-1.85,5.16,5.16,0,0,1,2.06-1,7.74,7.74,0,0,1,2.55-.16,8.26,8.26,0,0,1,1.89.41,5.75,5.75,0,0,1,1.79,1,5.06,5.06,0,0,1,1.33,1.69,5.63,5.63,0,0,1,.52,2.54,11.15,11.15,0,0,1-.24,2.21l-8.65-.78a2.83,2.83,0,0,0,1.12,2.26,3.79,3.79,0,0,0,1.13.6,5.93,5.93,0,0,0,1.36.28,6.81,6.81,0,0,0,2.37-.12,4.5,4.5,0,0,0,1.5-.68Zm-5.19-9a3.87,3.87,0,0,0-1.18.06,3,3,0,0,0-1,.41,2.41,2.41,0,0,0-.73.75,2.33,2.33,0,0,0-.34,1.07l5.91,0.53a2.86,2.86,0,0,0-.66-2A2.9,2.9,0,0,0,211.87,305.81Z"/><path d="M220.74,299.63l5.12,0.43c0,4.44,0,6.65,0,11.09a5.37,5.37,0,0,0,.46,2.61,1.77,1.77,0,0,0,1.47.84,4,4,0,0,0,1.23-.06,4.24,4.24,0,0,0,1-.37l1.18,2.25c-0.27.16-.55,0.3-0.82,0.43a4.87,4.87,0,0,1-.87.32,5.65,5.65,0,0,1-1,.16,7.91,7.91,0,0,1-1.22,0,4.92,4.92,0,0,1-3.39-1.43,4.8,4.8,0,0,1-1.13-3.36c0-4,0-6,0-10.08l-2-.17v-2.64Z"/><path d="M233.07,305.43l4.09,0.31,0.36,1.47h0.1a4.29,4.29,0,0,1,4-1.48,6,6,0,0,1,2,.49,4.37,4.37,0,0,1,1.59,1.2,5.59,5.59,0,0,1,1,1.94,9.2,9.2,0,0,1,.36,2.74,8.55,8.55,0,0,1-.41,2.74,5.39,5.39,0,0,1-1.18,2,4.6,4.6,0,0,1-1.88,1.19,6.36,6.36,0,0,1-2.53.27,10.18,10.18,0,0,1-1.47-.22,4.29,4.29,0,0,1-1.2-.44c0,2,0,3,0,4.92l-3.13-.24c0-5.66,0-8.5,0-14.16l-1.8-.14v-2.64Zm7.65,2.88a3,3,0,0,0-1.67.33,2.14,2.14,0,0,0-1,1.29c0,2,0,3,0,5a2.81,2.81,0,0,0,1,.49,5.55,5.55,0,0,0,1.29.25,3.28,3.28,0,0,0,1.25-.14,2.32,2.32,0,0,0,1-.66,3.25,3.25,0,0,0,.67-1.23,6.07,6.07,0,0,0,.24-1.83,3.77,3.77,0,0,0-.77-2.5A2.71,2.71,0,0,0,240.72,308.31Z"/><path d="M260.36,318.05a3.93,3.93,0,0,1-.81.51,7.24,7.24,0,0,1-1.15.44,8.63,8.63,0,0,1-1.46.29,9.35,9.35,0,0,1-1.69,0,8.47,8.47,0,0,1-2.75-.61,5.93,5.93,0,0,1-3.35-3.48,7.64,7.64,0,0,1-.44-2.68,6.8,6.8,0,0,1,.51-2.74,5.06,5.06,0,0,1,1.38-1.89,5.34,5.34,0,0,1,2.06-1.05,7.82,7.82,0,0,1,2.55-.23,8.17,8.17,0,0,1,1.89.36,5.56,5.56,0,0,1,1.79.94,4.85,4.85,0,0,1,1.34,1.65,5.53,5.53,0,0,1,.52,2.53,11.15,11.15,0,0,1-.24,2.22l-8.66-.55a2.89,2.89,0,0,0,.32,1.32,2.84,2.84,0,0,0,.79.92,3.68,3.68,0,0,0,1.13.57,5.86,5.86,0,0,0,1.36.24,6.87,6.87,0,0,0,2.37-.19,4.65,4.65,0,0,0,1.5-.72Zm-5.2-8.89a3.91,3.91,0,0,0-1.18.09,3.05,3.05,0,0,0-1,.44,2.52,2.52,0,0,0-.73.77,2.39,2.39,0,0,0-.34,1.08l5.92,0.38a2.79,2.79,0,0,0-.66-1.94A2.82,2.82,0,0,0,255.16,309.16Z"/><path d="M262.89,316.84l3,0.18c0-2.69,0-4,0-6.72l-3-.18c0-1.06,0-1.58,0-2.64l5.42,0.31,0.36,1.6h0.1a5.84,5.84,0,0,1,1.54-1.23,3.69,3.69,0,0,1,2-.42,2.91,2.91,0,0,1,2.28,1.18,6,6,0,0,1,.83,3.57l-2.82-.15a2.5,2.5,0,0,0-.25-1.28,0.94,0.94,0,0,0-.81-0.44A2.3,2.3,0,0,0,270,311a4.45,4.45,0,0,0-1,1.05c0,2,0,3.07,0,5.11l5.23,0.28c0,1.06,0,1.58,0,2.64-4.54-.24-6.81-0.37-11.34-0.64v-2.64Z"/><path d="M287.36,325.84a11.63,11.63,0,0,1-3.28-1.21,10.23,10.23,0,0,1-2.82-2.27,10.81,10.81,0,0,1-2-3.36,12.75,12.75,0,0,1-.73-4.5,12.18,12.18,0,0,1,.73-4.42,9.8,9.8,0,0,1,2-3.2,9.13,9.13,0,0,1,2.82-2,11.53,11.53,0,0,1,3.28-1l0.58,2.59a9.58,9.58,0,0,0-1.92.6,6.57,6.57,0,0,0-2,1.37,7.52,7.52,0,0,0-1.62,2.43,9.48,9.48,0,0,0-.66,3.81,9.08,9.08,0,0,0,.7,3.75,8.76,8.76,0,0,0,1.7,2.56,8,8,0,0,0,2.06,1.56,8.55,8.55,0,0,0,1.78.72Z"/><path d="M304,316.21a5.22,5.22,0,0,1-1.66,3.88,5.4,5.4,0,0,1-1.84,1.11,6,6,0,0,1-2.3.34,7,7,0,0,1-2.35-.49,5.61,5.61,0,0,1-1.92-1.27,6,6,0,0,1-1.3-2,7.6,7.6,0,0,1-.48-2.81,10.62,10.62,0,0,1,.83-4.28,11.27,11.27,0,0,1,2.13-3.29,10.51,10.51,0,0,1,2.92-2.19,9.51,9.51,0,0,1,3.2-1l0.7,2.5a9.13,9.13,0,0,0-2.39.69,8.29,8.29,0,0,0-2,1.23,7.46,7.46,0,0,0-1.46,1.65,5.74,5.74,0,0,0-.81,1.91,3.52,3.52,0,0,1,1.45-1,5.15,5.15,0,0,1,2.12-.34,5.94,5.94,0,0,1,2,.43,4.87,4.87,0,0,1,1.63,1.07,5,5,0,0,1,1.08,1.66A5.78,5.78,0,0,1,304,316.21Zm-3,0a2.54,2.54,0,0,0-.78-2,3.24,3.24,0,0,0-2.11-.75,3.41,3.41,0,0,0-1.74.36,2.9,2.9,0,0,0-1.13,1,4.08,4.08,0,0,0-.06.59c0,0.22,0,.39,0,0.52a3.26,3.26,0,0,0,.19,1.11,2.79,2.79,0,0,0,.57.95,2.83,2.83,0,0,0,.9.66,3.17,3.17,0,0,0,1.23.28,3,3,0,0,0,2-.69,2.63,2.63,0,0,0,.66-0.85A2.49,2.49,0,0,0,301,316.23Z"/><path d="M306.22,313.07a14.13,14.13,0,0,1,.46-3.81,7.61,7.61,0,0,1,1.29-2.68,5.13,5.13,0,0,1,2-1.56,6,6,0,0,1,2.59-.46,5.77,5.77,0,0,1,4.69,2.26q1.64,2.17,1.65,6.63a14.23,14.23,0,0,1-.46,3.84,7.77,7.77,0,0,1-1.29,2.7,5.08,5.08,0,0,1-2,1.58,6,6,0,0,1-2.6.47,5.61,5.61,0,0,1-4.69-2.39A11.31,11.31,0,0,1,306.22,313.07Zm3.13,0.1c0,0.24,0,.47,0,0.68s0,0.44,0,.66l5.83-5.18a2.8,2.8,0,0,0-2.7-2.14,2.49,2.49,0,0,0-2.35,1.4A9.63,9.63,0,0,0,309.35,313.18Zm6.41,0.19q0-.38,0-0.73c0-.23,0-0.46,0-0.68l-5.86,5.18a2.86,2.86,0,0,0,2.7,2.27,2.52,2.52,0,0,0,2.37-1.39A9.65,9.65,0,0,0,315.76,313.37Z"/><path d="M325,320.49a1.61,1.61,0,0,1,.54-1.28,1.94,1.94,0,0,1,1.36-.45,2.44,2.44,0,0,1,2,.91,3.43,3.43,0,0,1,.67,2.15,4.48,4.48,0,0,1-.42,2,5,5,0,0,1-1.1,1.51,5.79,5.79,0,0,1-1.51,1,6,6,0,0,1-1.65.51l-0.65-1.33a7,7,0,0,0,1.17-.38,4.61,4.61,0,0,0,1.07-.64,3.58,3.58,0,0,0,.81-0.91,2.51,2.51,0,0,0,.37-1.14,3.08,3.08,0,0,1-1.23,0,1.91,1.91,0,0,1-.83-0.4,1.62,1.62,0,0,1-.47-0.68A2.51,2.51,0,0,1,325,320.49Z"/><path d="M346.83,322.38c-4.3,0-6.45-.07-10.75-0.14,0-.93,0-1.4,0-2.33l0.72-.63,1-.89q0.54-.5,1.14-1.09t1.18-1.23q0.82-.9,1.43-1.64a11.39,11.39,0,0,0,1-1.39,5.68,5.68,0,0,0,.59-1.29,4.46,4.46,0,0,0,.19-1.31,2.18,2.18,0,0,0-.22-0.94,2.61,2.61,0,0,0-.6-0.81,3,3,0,0,0-.93-0.56,3.4,3.4,0,0,0-1.19-.22,4.47,4.47,0,0,0-1.58.24,5.32,5.32,0,0,0-1.48.87l-1.25-2.23a10.44,10.44,0,0,1,2.25-1.18,7.69,7.69,0,0,1,2.86-.45,6.89,6.89,0,0,1,2,.31,5.32,5.32,0,0,1,1.69.87,4.11,4.11,0,0,1,1.6,3.36,7.24,7.24,0,0,1-.13,1.43,6.85,6.85,0,0,1-.41,1.32,8.87,8.87,0,0,1-.72,1.35c-0.3.46-.65,1-1.07,1.5s-0.67.83-1,1.25-0.75.82-1.12,1.2-0.74.73-1.1,1.07-0.69.61-1,.83l6.94,0.08C346.83,320.79,346.83,321.32,346.83,322.38Z"/><path d="M351.58,324.89a8.17,8.17,0,0,0,1.78-.62,7.46,7.46,0,0,0,2.06-1.45,8.18,8.18,0,0,0,1.7-2.48,8.82,8.82,0,0,0,.7-3.72,9.72,9.72,0,0,0-.66-3.84,8.07,8.07,0,0,0-1.63-2.51,7.06,7.06,0,0,0-2-1.47,10.07,10.07,0,0,0-1.92-.7l0.58-2.56a12.06,12.06,0,0,1,3.28,1.15,9.85,9.85,0,0,1,2.82,2.19,10.47,10.47,0,0,1,2,3.3,13.89,13.89,0,0,1,0,8.92,10.12,10.12,0,0,1-2,3.26,9.5,9.5,0,0,1-2.82,2.12,11.11,11.11,0,0,1-3.28,1Z"/><path d="M508.6,313.49l3-.26c0-2.69,0-4,0-6.72l-3,.26c0-1.06,0-1.58,0-2.64l5.41-.48,0.36,1.55h0.1a7.24,7.24,0,0,1,1.54-1.46,4.11,4.11,0,0,1,2-.71,2.49,2.49,0,0,1,2.27.84,5.43,5.43,0,0,1,.83,3.45l-2.81.26a2.29,2.29,0,0,0-.25-1.24,0.8,0.8,0,0,0-.8-0.32,2.6,2.6,0,0,0-1.55.62,5.52,5.52,0,0,0-1,1.2c0,2,0,3.07,0,5.11l5.21-.48c0,1.06,0,1.58,0,2.64-4.53.42-6.79,0.63-11.32,1C508.6,315.07,508.6,314.54,508.6,313.49Z"/><path d="M534.9,312.35a4.94,4.94,0,0,1-.81.65,8.7,8.7,0,0,1-1.15.63,9.78,9.78,0,0,1-3.13.85,7.87,7.87,0,0,1-2.75-.16,4.71,4.71,0,0,1-3.34-2.93,7.06,7.06,0,0,1-.44-2.61,7.43,7.43,0,0,1,.5-2.82,6.33,6.33,0,0,1,1.38-2.11,6.58,6.58,0,0,1,2.05-1.39,8.43,8.43,0,0,1,2.55-.65,7.71,7.71,0,0,1,1.89.05,4.65,4.65,0,0,1,1.79.65,3.83,3.83,0,0,1,1.33,1.43,5,5,0,0,1,.52,2.44,11.76,11.76,0,0,1-.24,2.26l-8.65.87a2.58,2.58,0,0,0,.32,1.27,2.23,2.23,0,0,0,.79.79,3.08,3.08,0,0,0,1.13.38,5.56,5.56,0,0,0,1.36,0,7.39,7.39,0,0,0,2.37-.57,5.71,5.71,0,0,0,1.5-1Zm-5.19-8a4.19,4.19,0,0,0-1.18.29,3.71,3.71,0,0,0-1,.6,3.19,3.19,0,0,0-.73.89,2.74,2.74,0,0,0-.34,1.13l5.91-.59a2.4,2.4,0,0,0-.66-1.83A2.44,2.44,0,0,0,529.72,304.31Z"/><path d="M549.59,310.9a7.86,7.86,0,0,1-2.3,1.37,10.69,10.69,0,0,1-2.76.68,7.54,7.54,0,0,1-2.77-.16,4.92,4.92,0,0,1-2-1.07,4.73,4.73,0,0,1-1.26-1.87,7.09,7.09,0,0,1-.43-2.55,7.17,7.17,0,0,1,.5-2.74,6.55,6.55,0,0,1,1.4-2.14,7,7,0,0,1,2.12-1.46,8.77,8.77,0,0,1,2.66-.71,9.64,9.64,0,0,1,2.52,0,10.56,10.56,0,0,1,1.8.4c0,1.69,0,2.53,0,4.22l-2.64.29c0-.88,0-1.32,0-2.21a6.67,6.67,0,0,0-1.49,0,4.81,4.81,0,0,0-1.33.35,3.77,3.77,0,0,0-1.18.78,3.83,3.83,0,0,0-1.16,2.85,3.51,3.51,0,0,0,.26,1.39,2.9,2.9,0,0,0,.74,1,3,3,0,0,0,1.19.63,4.12,4.12,0,0,0,1.57.11,6,6,0,0,0,2.24-.63,10.44,10.44,0,0,0,1.31-.82Z"/><path d="M558.81,299l4.46-.53c0,3.34,0,5,0,8.35q0,0.5,0,1l1.82-.22c0,1.06,0,1.58,0,2.64l-3.79.45L560.75,309h-0.1a5,5,0,0,1-1.65,1.71,5.54,5.54,0,0,1-2.45.89,5.3,5.3,0,0,1-1.67,0,2.6,2.6,0,0,1-1.28-.65,3.19,3.19,0,0,1-.82-1.39,7.79,7.79,0,0,1-.29-2.32c0-1.93,0-2.89,0-4.82l-1.37.15c0-1.06,0-1.58,0-2.64l4.49-.51c0,2.73,0,4.09,0,6.82a3.41,3.41,0,0,0,.47,2.06,1.52,1.52,0,0,0,1.47.48,2.91,2.91,0,0,0,1.59-.72,3.35,3.35,0,0,0,1-1.41c0-2,0-3.07,0-5.11l-1.34.16C558.81,300.58,558.81,300.05,558.81,299Z"/><path d="M566.22,307.47l3-.36c0-2.69,0-4,0-6.72l-3,.36c0-1.06,0-1.58,0-2.64l5.39-.67L572,299h0.1a7.61,7.61,0,0,1,1.53-1.51,4.23,4.23,0,0,1,2-.78,2.41,2.41,0,0,1,2.26.76,5.31,5.31,0,0,1,.83,3.42l-2.8.36a2.25,2.25,0,0,0-.25-1.23,0.77,0.77,0,0,0-.8-0.29,2.68,2.68,0,0,0-1.55.67,5.8,5.8,0,0,0-1,1.23c0,2,0,3.07,0,5.11l5.2-.66c0,1.06,0,1.58,0,2.64-4.51.58-6.77,0.86-11.29,1.41C566.22,309.05,566.22,308.52,566.22,307.47Z"/><path d="M590.56,312a10,10,0,0,1-3.26-.61,7.89,7.89,0,0,1-2.8-1.76,8.51,8.51,0,0,1-2-3,11.73,11.73,0,0,1-.73-4.37,13.36,13.36,0,0,1,.73-4.55,12.4,12.4,0,0,1,2-3.56,11.83,11.83,0,0,1,2.8-2.56,13.7,13.7,0,0,1,3.26-1.57l0.57,2.49a11.43,11.43,0,0,0-1.9.94,8.47,8.47,0,0,0-2,1.74,9.6,9.6,0,0,0-1.62,2.72,10.44,10.44,0,0,0-.66,3.93,8.25,8.25,0,0,0,.69,3.63,6.8,6.8,0,0,0,1.69,2.26,6.22,6.22,0,0,0,2,1.19,7.29,7.29,0,0,0,1.77.39Z"/><path d="M596.56,303.49l3.66-.52c0-4.2,0-6.29,0-10.49l-3.16,2.87-1.44-1.72,5.46-4.95,2.11-.3c0,5.66,0,8.5,0,14.16l3.59-.52c0,1.06,0,1.58,0,2.64-4.08.6-6.13,0.89-10.22,1.47C596.56,305.07,596.56,304.54,596.56,303.49Z"/><path d="M620.88,302.53c-4.26.66-6.39,1-10.66,1.62,0-.93,0-1.4,0-2.33q0.29-.28.72-0.74l1-1q0.54-.58,1.14-1.27t1.17-1.42q0.81-1,1.42-1.87a14.34,14.34,0,0,0,1-1.56,6.83,6.83,0,0,0,.59-1.38,4.82,4.82,0,0,0,.19-1.34,2,2,0,0,0-.21-0.9,2.05,2.05,0,0,0-.6-0.71,2.39,2.39,0,0,0-.92-0.41,3.18,3.18,0,0,0-1.18,0,4.92,4.92,0,0,0-1.57.5,6.58,6.58,0,0,0-1.47,1.11l-1.24-2a12.86,12.86,0,0,1,2.24-1.55,8.47,8.47,0,0,1,2.83-.92,6.53,6.53,0,0,1,2,0,4.4,4.4,0,0,1,1.67.59,3.3,3.3,0,0,1,1.16,1.23,3.8,3.8,0,0,1,.43,1.88,7.63,7.63,0,0,1-.13,1.45,7.89,7.89,0,0,1-.41,1.38,10.87,10.87,0,0,1-.72,1.47q-0.44.77-1.06,1.68c-0.32.47-.67,0.94-1,1.42s-0.74.94-1.11,1.38-0.73.86-1.09,1.25-0.68.72-1,1l6.88-1.05C620.88,300.95,620.88,301.48,620.88,302.53Z"/><path d="M623.63,293.68a15.24,15.24,0,0,1,.45-3.9,9.48,9.48,0,0,1,1.28-2.93,6.62,6.62,0,0,1,4.54-2.88,4.76,4.76,0,0,1,4.65,1.37q1.63,1.86,1.63,6.32a15.37,15.37,0,0,1-.46,3.93,9.67,9.67,0,0,1-1.28,2.95,6.65,6.65,0,0,1-2,2,6.84,6.84,0,0,1-2.58,1,4.6,4.6,0,0,1-4.65-1.5Q623.63,298,623.63,293.68Zm3.11-.49c0,0.24,0,.47,0,0.68s0,0.43,0,.65l5.78-6.28a2.22,2.22,0,0,0-2.68-1.63,3.14,3.14,0,0,0-2.33,1.85A10.74,10.74,0,0,0,626.73,293.19Zm6.35-1q0-.38,0-0.73c0-.23,0-0.46,0-0.68l-5.8,6.29a2.26,2.26,0,0,0,2.68,1.75,3.17,3.17,0,0,0,2.35-1.84A10.78,10.78,0,0,0,633.08,292.17Z"/><path d="M642.25,297.54a2,2,0,0,1,.54-1.39,2.33,2.33,0,0,1,1.35-.71,2,2,0,0,1,2,.53,2.94,2.94,0,0,1,.67,2,5.07,5.07,0,0,1-.42,2,6.56,6.56,0,0,1-1.08,1.72,7.55,7.55,0,0,1-1.49,1.31,7.19,7.19,0,0,1-1.63.83l-0.64-1.21a8.41,8.41,0,0,0,1.16-.6,5.93,5.93,0,0,0,1.06-.84,4.7,4.7,0,0,0,.8-1.06,3,3,0,0,0,.37-1.22,3.18,3.18,0,0,1-1.22.24,1.56,1.56,0,0,1-.82-0.24,1.25,1.25,0,0,1-.46-0.59A2.31,2.31,0,0,1,642.25,297.54Z"/><path d="M653.88,294.43l3.65-.65c0-4.2,0-6.29,0-10.49l-3.15,3L653,284.61l5.43-5.14,2.1-.38c0,5.66,0,8.5,0,14.16l3.57-.65c0,1.06,0,1.58,0,2.64-4.07.74-6.1,1.1-10.17,1.82v-2.64Z"/><path d="M668.51,296.9a9.87,9.87,0,0,0,1.76-1,9.72,9.72,0,0,0,2-1.84,10.6,10.6,0,0,0,1.68-2.8,9.88,9.88,0,0,0,.69-3.85,8.91,8.91,0,0,0-.65-3.72,6.2,6.2,0,0,0-1.61-2.21,5.4,5.4,0,0,0-2-1.09,8.55,8.55,0,0,0-1.89-.33l0.57-2.67a10.29,10.29,0,0,1,3.24.53,7.47,7.47,0,0,1,2.78,1.66,8.13,8.13,0,0,1,1.94,2.93,11.51,11.51,0,0,1,.72,4.31,13.79,13.79,0,0,1-.72,4.6,12.94,12.94,0,0,1-1.94,3.63,12.44,12.44,0,0,1-2.78,2.66,13.28,13.28,0,0,1-3.24,1.66Z"/></svg>