<svg id="Layer_1" data-name="Layer 1" xmlns="http://www.w3.org/2000/svg" viewBox="0 0 720 576"><defs><style>.cls-1,.cls-2,.cls-4,.cls-6{fill:#231f20;}.cls-1,.cls-3{stroke:#231f20;}.cls-1,.cls-6{stroke-miterlimit:10;}.cls-1,.cls-2,.cls-3{stroke-width:2px;}.cls-2{stroke:#000;}.cls-2,.cls-3{stroke-linecap:round;stroke-linejoin:round;}.cls-3,.cls-5{fill:#fff;}.cls-6{stroke:#fff;}</style></defs><title>Hanoi_Tower_Set_5_Final</title><path class="cls-1" d="M683,506.49c0-.14,0-0.29,0-0.43s0-.29,0-0.43V453.84H37.2s-0.25,51.74-.25,52.22c0,2.67,2.32,5.24,6.64,7.71,15.13,8.61,55.2,16.11,111,21.48S282,543.84,360,543.84c89.16,0,169.88-4.21,228.32-11,29.22-3.41,52.87-7.46,69.23-12,8.18-2.25,14.54-4.62,18.86-7.08,3.69-2.1,5.91-4.29,6.48-6.55H683v-0.73Z"/><ellipse class="cls-2" cx="360" cy="454.92" rx="322.86" ry="37.63"/><path class="cls-3" d="M683,455c0-.14,0-0.29,0-0.43s0-.29,0-0.43V402.36H37.2S37,454.1,36.95,454.58c0,2.67,2.32,5.24,6.64,7.71,15.13,8.61,55.2,16.11,111,21.48S282,492.36,360,492.36c89.16,0,169.88-4.21,228.32-11,29.22-3.41,52.87-7.46,69.23-12,8.18-2.25,14.54-4.62,18.86-7.08,3.69-2.1,5.91-4.29,6.48-6.55H683V455Z"/><ellipse class="cls-3" cx="360" cy="403.44" rx="322.86" ry="37.63"/><path class="cls-3" d="M683,403.53c0-.14,0-0.29,0-0.43s0-.29,0-0.43V350.88H37.2S37,402.62,36.95,403.1c0,2.67,2.32,5.24,6.64,7.71,15.13,8.61,55.2,16.11,111,21.48S282,440.88,360,440.88c89.16,0,169.88-4.21,228.32-11,29.22-3.41,52.87-7.46,69.23-12,8.18-2.25,14.54-4.62,18.86-7.08,3.69-2.1,5.91-4.29,6.48-6.55H683v-0.73Z"/><ellipse class="cls-3" cx="360" cy="351.97" rx="322.86" ry="37.63"/><path class="cls-3" d="M683,352.06c0-.14,0-0.29,0-0.43s0-.29,0-0.43V299.4H37.2s-0.25,51.74-.25,52.22c0,2.67,2.32,5.24,6.64,7.71,15.13,8.61,55.2,16.11,111,21.48S282,389.4,360,389.4c89.16,0,169.88-4.21,228.32-11,29.22-3.41,52.87-7.46,69.23-12,8.18-2.25,14.54-4.62,18.86-7.08,3.69-2.1,5.91-4.29,6.48-6.55H683v-0.73Z"/><ellipse class="cls-3" cx="360" cy="300.49" rx="322.86" ry="37.63"/><path class="cls-3" d="M683,302.06c0-.14,0-0.29,0-0.43s0-.29,0-0.43V249.4H37.2s-0.25,51.74-.25,52.22c0,2.67,2.32,5.24,6.64,7.71,15.13,8.61,55.2,16.11,111,21.48S282,339.4,360,339.4c89.16,0,169.88-4.21,228.32-11,29.22-3.41,52.87-7.46,69.23-12,8.18-2.25,14.54-4.62,18.86-7.08,3.69-2.1,5.91-4.29,6.48-6.55H683v-0.73Z"/><ellipse class="cls-3" cx="360" cy="250.49" rx="322.86" ry="37.63"/><path class="cls-3" d="M683,251.06c0-.14,0-0.29,0-0.43s0-.29,0-0.43V198.4H37.2s-0.25,51.74-.25,52.22c0,2.67,2.32,5.24,6.64,7.71,15.13,8.61,55.2,16.11,111,21.48S282,288.4,360,288.4c89.16,0,169.88-4.21,228.32-11,29.22-3.41,52.87-7.46,69.23-12,8.18-2.25,14.54-4.62,18.86-7.08,3.69-2.1,5.91-4.29,6.48-6.55H683v-0.73Z"/><ellipse class="cls-3" cx="360" cy="199.49" rx="322.86" ry="37.63"/><path class="cls-4" d="M360,208.64c-16,0-29-3.75-30.2-8.61h-0.08l0-.5V8.27h60.63V200H390.2C389,204.89,376,208.64,360,208.64Z"/><path class="cls-5" d="M389.82,8.77V199.53h0c-0.49,4.78-13.63,8.61-29.79,8.61s-29.3-3.83-29.79-8.61h0v-0.21s0,0,0-.06,0,0,0-.06V8.77h59.63m1-1H329.19V199.15s0,0.07,0,.11v1.27h0.22c1.05,3,5.66,4.94,9.53,6.06a88,88,0,0,0,42.09,0c3.87-1.12,8.48-3.05,9.53-6.06h0.21l0-1V7.77h0Z"/><ellipse class="cls-6" cx="359.99" cy="8.89" rx="29.81" ry="8.89"/><path class="cls-4" d="M51.38,299.67v-2.53l2.7,0.43v-6.44l-2.72-.43c0-1,0-1.52,0-2.53l2.72,0.43V288a3.87,3.87,0,0,1,.38-1.8,3,3,0,0,1,1-1.13,3.42,3.42,0,0,1,1.43-.53,5.72,5.72,0,0,1,1.68,0,11.55,11.55,0,0,1,2.6.66,7.88,7.88,0,0,1,1.68.91L62,288.23a12.24,12.24,0,0,0-1.13-.63,5.45,5.45,0,0,0-1.57-.45,2,2,0,0,0-1.73.3,2.21,2.21,0,0,0-.49,1.61l4.8,0.74c0,1,0,1.52,0,2.53l-4.8-.74V298l4.83,0.74v2.53C57.67,300.66,55.58,300.34,51.38,299.67Z"/><path class="cls-4" d="M65.53,291.14a11.16,11.16,0,0,1,2.12-.39,11.8,11.8,0,0,1,2.85.12,6.9,6.9,0,0,1,2,.59,4.14,4.14,0,0,1,1.35,1,3.73,3.73,0,0,1,.74,1.37,5.92,5.92,0,0,1,.23,1.69q0,1.17-.08,2T74.69,299a10.1,10.1,0,0,0,0,1.09c0,0.21.05,0.43,0.07,0.63l1.49,0.22v2.53l-3.84-.56-0.3-1.61-0.11,0a3.19,3.19,0,0,1-1.3,1,4,4,0,0,1-2.27.18,4.47,4.47,0,0,1-2.71-1.33,3.65,3.65,0,0,1-1-2.59,3.35,3.35,0,0,1,.35-1.61,2.38,2.38,0,0,1,1-1,4.24,4.24,0,0,1,1.61-.42,9.28,9.28,0,0,1,2.1.09c0.27,0,.56.1,0.86,0.17l1.11,0.26a2.28,2.28,0,0,0,0-.45v-0.44a1.7,1.7,0,0,0-.5-1.33,2.76,2.76,0,0,0-1.48-.6,6.64,6.64,0,0,0-2.09,0,11.8,11.8,0,0,0-1.57.36Zm3.89,9a2.52,2.52,0,0,0,1.63-.16,2.16,2.16,0,0,0,.79-0.75v-1.38l-0.68-.2a8.29,8.29,0,0,0-1-.2,4.63,4.63,0,0,0-.86,0,2.57,2.57,0,0,0-.77.14,1.22,1.22,0,0,0-.54.37,1,1,0,0,0-.2.64,1.51,1.51,0,0,0,.37,1.06A2,2,0,0,0,69.43,300.17Z"/><path class="cls-4" d="M89.71,304.25a5.66,5.66,0,0,1-2.2.76,9.32,9.32,0,0,1-2.63,0,8.17,8.17,0,0,1-2.65-.81,6.56,6.56,0,0,1-1.95-1.51,6.3,6.3,0,0,1-1.2-2.09,7.7,7.7,0,0,1-.41-2.54,6,6,0,0,1,.48-2.51,4.43,4.43,0,0,1,1.34-1.72,4.87,4.87,0,0,1,2-.9,7.52,7.52,0,0,1,2.54,0,10.13,10.13,0,0,1,2.4.64,12.86,12.86,0,0,1,1.72.81v4L86.66,298v-2.12a6.9,6.9,0,0,0-1.42-.36,4.15,4.15,0,0,0-1.27,0A2.58,2.58,0,0,0,82,297a3.25,3.25,0,0,0-.31,1.5,3.85,3.85,0,0,0,.25,1.39,3.9,3.9,0,0,0,.71,1.18,4,4,0,0,0,1.13.88,4.49,4.49,0,0,0,1.5.48,5.09,5.09,0,0,0,2.14-.07,7.37,7.37,0,0,0,1.25-.47Z"/><path class="cls-4" d="M93.6,296.92l-2.27-.31v-2.53l2.27,0.31v-2.62l3-.45c0,1.39,0,2.08,0,3.47l6,0.8c0,1,0,1.52,0,2.53l-6-.8v3.29a4.38,4.38,0,0,0,.66,2.65,2.66,2.66,0,0,0,1.86,1,3.83,3.83,0,0,0,1.12,0,3.72,3.72,0,0,0,.91-0.26,4.29,4.29,0,0,0,.73-0.41l0.61-.43,1.38,2.25a3.67,3.67,0,0,1-1,.71,7.1,7.1,0,0,1-1.26.5,7.18,7.18,0,0,1-1.41.26,6.58,6.58,0,0,1-1.44,0,5.68,5.68,0,0,1-3.86-2,7.45,7.45,0,0,1-1.29-4.74v-3.29Z"/><path class="cls-4" d="M105.5,301.73a6.65,6.65,0,0,1,.44-2.52,4.43,4.43,0,0,1,1.24-1.75,4.52,4.52,0,0,1,1.92-.94,7,7,0,0,1,2.49-.08,7.8,7.8,0,0,1,2.58.76,6.33,6.33,0,0,1,1.92,1.47,6.08,6.08,0,0,1,1.18,2.07,7.82,7.82,0,0,1,.4,2.53,6.68,6.68,0,0,1-.44,2.52,4.45,4.45,0,0,1-1.24,1.76,4.5,4.5,0,0,1-1.91.94,7,7,0,0,1-2.49.09,7.75,7.75,0,0,1-2.58-.77,6.36,6.36,0,0,1-1.92-1.48,6.11,6.11,0,0,1-1.18-2.07A7.82,7.82,0,0,1,105.5,301.73Zm3.07,0.4a4.84,4.84,0,0,0,.21,1.43,4,4,0,0,0,.6,1.2,3.23,3.23,0,0,0,.94.87,3.16,3.16,0,0,0,1.26.43,2.61,2.61,0,0,0,2.17-.58,3.34,3.34,0,0,0,.84-2.59,4.42,4.42,0,0,0-.78-2.66,3.1,3.1,0,0,0-2.22-1.26,3.42,3.42,0,0,0-1.19,0,2,2,0,0,0-1,.51,2.63,2.63,0,0,0-.63,1A4.72,4.72,0,0,0,108.57,302.12Z"/><path class="cls-4" d="M119.35,306.7l2.85,0.35v-6.44l-2.85-.35c0-1,0-1.52,0-2.53l5.16,0.63,0.34,1.56h0.09a5.12,5.12,0,0,1,1.47-1.09,3.38,3.38,0,0,1,1.93-.28,3,3,0,0,1,2.17,1.27,6,6,0,0,1,.79,3.47l-2.68-.32a2.49,2.49,0,0,0-.24-1.24,1,1,0,0,0-.77-0.47,2.08,2.08,0,0,0-1.48.28,3.91,3.91,0,0,0-1,.94v4.9l5,0.59v2.53c-4.32-.51-6.49-0.77-10.81-1.3C119.35,308.22,119.35,307.71,119.35,306.7Z"/><path class="cls-4" d="M133.58,308.39l4,0.46v-6.44l-4-.46v-2.53l7,0.8c0,3.59,0,5.38,0,9l4.25,0.47v2.53c-4.51-.49-6.77-0.75-11.27-1.27v-2.53Zm3.49-11.7a1.45,1.45,0,0,1,.53-1.16,1.87,1.87,0,0,1,1.47-.34,2.5,2.5,0,0,1,1.54.68,1.77,1.77,0,0,1,.57,1.28,1.32,1.32,0,0,1-.57,1.14,2.17,2.17,0,0,1-1.54.3,2.37,2.37,0,0,1-1.47-.64A1.73,1.73,0,0,1,137.07,296.7Z"/><path class="cls-4" d="M148.07,301.83a11.54,11.54,0,0,1,2.12-.48,11.87,11.87,0,0,1,2.86,0,6.72,6.72,0,0,1,2,.5,3.91,3.91,0,0,1,1.36,1,3.53,3.53,0,0,1,.75,1.34,5.79,5.79,0,0,1,.23,1.68q0,1.17-.08,2t-0.08,1.46a10,10,0,0,0,0,1.09c0,0.21.05,0.43,0.07,0.63l1.49,0.15v2.53l-3.86-.4-0.3-1.6h-0.11a3.4,3.4,0,0,1-1.3,1.09A4.1,4.1,0,0,1,151,313a4.29,4.29,0,0,1-2.72-1.21,3.5,3.5,0,0,1-1-2.55,3.42,3.42,0,0,1,.35-1.63,2.54,2.54,0,0,1,1-1,4.41,4.41,0,0,1,1.62-.49,9.32,9.32,0,0,1,2.11,0q0.41,0,.87.14l1.12,0.21a2.3,2.3,0,0,0,0-.46v-0.44a1.63,1.63,0,0,0-.5-1.31,2.66,2.66,0,0,0-1.48-.54,6.71,6.71,0,0,0-2.1.08,12.24,12.24,0,0,0-1.57.43Zm3.91,8.86a2.58,2.58,0,0,0,1.64-.23,2.3,2.3,0,0,0,.8-0.78V308.3l-0.68-.18a8.15,8.15,0,0,0-1-.16,4.64,4.64,0,0,0-.86,0,2.67,2.67,0,0,0-.77.17,1.3,1.3,0,0,0-.55.39,1,1,0,0,0-.2.65,1.45,1.45,0,0,0,.37,1A1.94,1.94,0,0,0,152,310.68Z"/><path class="cls-4" d="M161.78,297.88l4.9,0.49c0,4.25,0,6.38,0,10.63a5.21,5.21,0,0,0,.44,2.5,1.72,1.72,0,0,0,1.4.83,3.76,3.76,0,0,0,1.17,0,4,4,0,0,0,.92-0.34l1.13,2.18q-0.39.22-.78,0.4a4.6,4.6,0,0,1-.83.29,5.32,5.32,0,0,1-1,.14,7.53,7.53,0,0,1-1.16,0,4.78,4.78,0,0,1-3.24-1.42,4.68,4.68,0,0,1-1.08-3.24c0-3.86,0-5.8,0-9.66l-1.91-.19C161.78,299.39,161.78,298.89,161.78,297.88Z"/><path class="cls-4" d="M175.37,318c4.08,0.38,6.13.57,10.21,0.93v2.46c-4.09-.36-6.13-0.55-10.21-0.93C175.37,319.47,175.37,319,175.37,318Z"/><path class="cls-4" d="M187.38,300.29l4.65,0.4c0,2.36,0,3.53,0,5.89h0.09a3.46,3.46,0,0,1,1.47-1,4.82,4.82,0,0,1,2.16-.26,5.63,5.63,0,0,1,1.61.36,3.41,3.41,0,0,1,1.27.86,4,4,0,0,1,.83,1.51,7.49,7.49,0,0,1,.3,2.27v7.15l-3-.25v-6.53a3,3,0,0,0-.6-2.07,2.27,2.27,0,0,0-1.57-.75,2.44,2.44,0,0,0-1.56.39,2.49,2.49,0,0,0-1,1.24v7.34l-3-.26V303l-1.66-.14v-2.53Z"/><path class="cls-4" d="M213.47,317.29a3.69,3.69,0,0,1-.77.48,6.91,6.91,0,0,1-1.1.41,8.15,8.15,0,0,1-1.39.26,8.8,8.8,0,0,1-1.61,0,8.16,8.16,0,0,1-2.64-.62,5.77,5.77,0,0,1-3.2-3.37,7.36,7.36,0,0,1-.43-2.58,6.47,6.47,0,0,1,.48-2.62,4.76,4.76,0,0,1,1.32-1.79,5,5,0,0,1,2-1,7.43,7.43,0,0,1,2.44-.19,7.85,7.85,0,0,1,1.81.37,5.41,5.41,0,0,1,1.71.92,4.73,4.73,0,0,1,1.28,1.6,5.36,5.36,0,0,1,.5,2.43,10.68,10.68,0,0,1-.23,2.12l-8.29-.63a2.79,2.79,0,0,0,.31,1.27,2.74,2.74,0,0,0,.76.89,3.59,3.59,0,0,0,1.08.56,5.57,5.57,0,0,0,1.3.25,6.55,6.55,0,0,0,2.27-.15,4.38,4.38,0,0,0,1.44-.67Zm-5-8.59a3.69,3.69,0,0,0-1.13.08,2.88,2.88,0,0,0-1,.41,2.34,2.34,0,0,0-.7.73,2.28,2.28,0,0,0-.32,1l5.66,0.44A2.48,2.48,0,0,0,208.5,308.7Z"/><path class="cls-4" d="M217,302.67l4.9,0.35c0,4.25,0,6.38,0,10.63a5.12,5.12,0,0,0,.44,2.49,1.67,1.67,0,0,0,1.41.79,3.79,3.79,0,0,0,1.17-.07,4.15,4.15,0,0,0,.92-0.36l1.13,2.15q-0.39.23-.78,0.42a4.76,4.76,0,0,1-.83.31,5.43,5.43,0,0,1-1,.16,7.56,7.56,0,0,1-1.16,0A4.65,4.65,0,0,1,220,318.2a4.56,4.56,0,0,1-1.08-3.21c0-3.86,0-5.8,0-9.66L217,305.2v-2.53Z"/><path class="cls-4" d="M228.81,308.09l3.92,0.26,0.35,1.4h0.09A4.14,4.14,0,0,1,237,308.3a5.7,5.7,0,0,1,1.95.45,4.15,4.15,0,0,1,1.52,1.14,5.31,5.31,0,0,1,1,1.85,8.8,8.8,0,0,1,.35,2.62,8.21,8.21,0,0,1-.39,2.63,5.22,5.22,0,0,1-1.13,1.94,4.45,4.45,0,0,1-1.8,1.15,6.11,6.11,0,0,1-2.42.29,9.69,9.69,0,0,1-1.4-.19,4.11,4.11,0,0,1-1.15-.41c0,1.89,0,2.83,0,4.71l-3-.19c0-5.43,0-8.14,0-13.57l-1.73-.11v-2.53Zm7.33,2.68a2.92,2.92,0,0,0-1.6.33,2.08,2.08,0,0,0-1,1.25v4.78a2.65,2.65,0,0,0,.93.46,5.3,5.3,0,0,0,1.23.23,3.14,3.14,0,0,0,1.2-.14,2.25,2.25,0,0,0,1-.64,3.15,3.15,0,0,0,.64-1.18,5.83,5.83,0,0,0,.23-1.76,3.59,3.59,0,0,0-.74-2.39A2.56,2.56,0,0,0,236.14,310.78Z"/><path class="cls-4" d="M254.94,319.94a3.8,3.8,0,0,1-.77.5,7,7,0,0,1-1.11.44,8.21,8.21,0,0,1-1.39.29,8.82,8.82,0,0,1-1.61,0,8.07,8.07,0,0,1-2.64-.56,5.6,5.6,0,0,1-3.2-3.3,7.29,7.29,0,0,1-.43-2.57,6.54,6.54,0,0,1,.48-2.63,4.9,4.9,0,0,1,1.32-1.82,5.17,5.17,0,0,1,2-1,7.49,7.49,0,0,1,2.44-.24,7.76,7.76,0,0,1,1.81.33,5.29,5.29,0,0,1,1.72.89,4.6,4.6,0,0,1,1.28,1.58,5.28,5.28,0,0,1,.5,2.42,10.76,10.76,0,0,1-.23,2.13l-8.3-.46a2.77,2.77,0,0,0,.31,1.26,2.68,2.68,0,0,0,.76.87,3.51,3.51,0,0,0,1.08.53,5.53,5.53,0,0,0,1.3.22,6.6,6.6,0,0,0,2.27-.2,4.49,4.49,0,0,0,1.44-.7Zm-5-8.48a3.74,3.74,0,0,0-1.13.1,3,3,0,0,0-1,.43,2.41,2.41,0,0,0-.7.75,2.3,2.3,0,0,0-.32,1l5.67,0.32A2.42,2.42,0,0,0,250,311.46Z"/><path class="cls-4" d="M257.36,318.76l2.86,0.15v-6.44l-2.86-.15c0-1,0-1.52,0-2.53l5.19,0.26,0.35,1.53H263a5.68,5.68,0,0,1,1.48-1.19,3.54,3.54,0,0,1,1.94-.41,2.76,2.76,0,0,1,2.18,1.11,5.74,5.74,0,0,1,.79,3.42l-2.7-.13a2.38,2.38,0,0,0-.24-1.22,0.9,0.9,0,0,0-.77-0.42,2.2,2.2,0,0,0-1.49.39,4.33,4.33,0,0,0-1,1v4.9l5,0.24c0,1,0,1.52,0,2.53-4.34-.2-6.51-0.31-10.86-0.54C257.36,320.28,257.36,319.77,257.36,318.76Z"/><path class="cls-4" d="M280.78,327.24a11.07,11.07,0,0,1-3.14-1.14,9.72,9.72,0,0,1-2.7-2.16,10.3,10.3,0,0,1-1.88-3.21,12.2,12.2,0,0,1-.7-4.31,11.71,11.71,0,0,1,.7-4.24,9.43,9.43,0,0,1,1.88-3.08,8.8,8.8,0,0,1,2.7-2,11.07,11.07,0,0,1,3.14-1l0.55,2.48a9.3,9.3,0,0,0-1.83.58,6.32,6.32,0,0,0-1.95,1.32A7.29,7.29,0,0,0,276,312.9a9.13,9.13,0,0,0-.63,3.65,8.68,8.68,0,0,0,.67,3.59,8.35,8.35,0,0,0,1.63,2.45,7.6,7.6,0,0,0,2,1.48,8.22,8.22,0,0,0,1.71.68Z"/><path class="cls-4" d="M289.59,320.38a5,5,0,0,0,1.41-.13,3.37,3.37,0,0,0,1.12-.49,2.33,2.33,0,0,0,.74-0.83,2.38,2.38,0,0,0,.27-1.14,2.41,2.41,0,0,0-1-2,5.28,5.28,0,0,0-3-.83h-1.94v-8.42l8.35,0.29v2.81l-5.77-.2c0,1.24,0,1.86,0,3.1h0.95a6.82,6.82,0,0,1,2.15.41,5.08,5.08,0,0,1,1.73,1.06,4.75,4.75,0,0,1,1.14,1.66,5.46,5.46,0,0,1,.4,2.12,5.19,5.19,0,0,1-.51,2.36,4.72,4.72,0,0,1-1.38,1.67,6,6,0,0,1-2,1,8.18,8.18,0,0,1-2.47.27,6.28,6.28,0,0,1-1.08-.14q-0.58-.12-1.13-0.29a10.29,10.29,0,0,1-1-.37q-0.47-.2-0.8-0.37l1-2.36a7.13,7.13,0,0,0,1.21.55A5.44,5.44,0,0,0,289.59,320.38Z"/><path class="cls-4" d="M303.42,320.82a5,5,0,0,0,1.41-.14,3.4,3.4,0,0,0,1.12-.5,2.36,2.36,0,0,0,.74-0.83,2.55,2.55,0,0,0-.74-3.16,5.26,5.26,0,0,0-3-.81h-0.59l-0.63,0H301V307l8.35,0.23V310l-5.77-.16V313h0.95a6.8,6.8,0,0,1,2.15.39,5,5,0,0,1,1.73,1,4.72,4.72,0,0,1,1.14,1.65,5.44,5.44,0,0,1,.4,2.11,5.21,5.21,0,0,1-.51,2.37,4.77,4.77,0,0,1-1.38,1.68,6,6,0,0,1-2,1,8.2,8.2,0,0,1-2.47.29,6.26,6.26,0,0,1-1.08-.13q-0.58-.12-1.13-0.29a10.29,10.29,0,0,1-1-.36c-0.31-.13-0.58-0.25-0.8-0.37l1-2.36a7.05,7.05,0,0,0,1.21.54A5.41,5.41,0,0,0,303.42,320.82Z"/><path class="cls-4" d="M325.11,319.17l-2.77-.05v4.49l-2.79-.06v-4.49l-7-.16v-2l7.31-9.52,2.47,0v9.34l2.77,0.05v2.39Zm-5.56-7.6-4,5,4,0.09v-5.11Z"/><path class="cls-4" d="M338.95,319.36l-2.77,0v4.49l-2.79,0v-4.49l-7-.11v-2l7.31-9.57,2.47,0v9.34l2.77,0v2.39Zm-5.56-7.57-4,5,4,0.06V311.8Z"/><path class="cls-4" d="M340.36,315.79a13.67,13.67,0,0,1,.44-3.66,7.46,7.46,0,0,1,1.24-2.6,5.07,5.07,0,0,1,1.91-1.54,5.79,5.79,0,0,1,2.48-.5,5.39,5.39,0,0,1,4.49,2.06q1.57,2,1.57,6.32a13.75,13.75,0,0,1-.44,3.69,7.64,7.64,0,0,1-1.24,2.62,5,5,0,0,1-1.92,1.55,5.85,5.85,0,0,1-2.49.5,5.24,5.24,0,0,1-4.49-2.19A10.67,10.67,0,0,1,340.36,315.79Zm3,0c0,0.23,0,.45,0,0.66s0,0.42,0,.63L349,312a2.6,2.6,0,0,0-2.59-2,2.44,2.44,0,0,0-2.25,1.4A9.34,9.34,0,0,0,343.36,315.82Zm6.14,0q0-.37,0-0.7c0-.22,0-0.44,0-0.66l-5.61,5.09a2.66,2.66,0,0,0,2.59,2.11,2.47,2.47,0,0,0,2.27-1.39A9.36,9.36,0,0,0,349.49,315.86Z"/><path class="cls-4" d="M358.35,322.49a1.58,1.58,0,0,1,.52-1.24,1.9,1.9,0,0,1,1.3-.46,2.28,2.28,0,0,1,1.92.83,3.23,3.23,0,0,1,.65,2,4.35,4.35,0,0,1-.4,1.89,5,5,0,0,1-1.05,1.47,5.66,5.66,0,0,1-1.44,1,5.86,5.86,0,0,1-1.58.53l-0.62-1.27a6.7,6.7,0,0,0,1.12-.39,4.53,4.53,0,0,0,1-.63,3.58,3.58,0,0,0,.77-0.89,2.44,2.44,0,0,0,.36-1.1,3,3,0,0,1-1.18,0,1.78,1.78,0,0,1-.8-0.37,1.51,1.51,0,0,1-.45-0.64A2.35,2.35,0,0,1,358.35,322.49Z"/><path class="cls-4" d="M379.76,318.87a5.15,5.15,0,0,1-.43,2.1,5.33,5.33,0,0,1-1.17,1.69,5.49,5.49,0,0,1-1.76,1.14,5.86,5.86,0,0,1-2.2.43,6.52,6.52,0,0,1-2.25-.36,5,5,0,0,1-1.83-1.13,5.37,5.37,0,0,1-1.25-1.9,7.11,7.11,0,0,1-.46-2.67,10.47,10.47,0,0,1,.8-4.14,11.5,11.5,0,0,1,2-3.24,10.75,10.75,0,0,1,2.79-2.23,9.47,9.47,0,0,1,3.07-1.09l0.67,2.36a9.08,9.08,0,0,0-2.28.77,8.43,8.43,0,0,0-1.89,1.27,7.66,7.66,0,0,0-1.4,1.64,5.76,5.76,0,0,0-.77,1.87,3.59,3.59,0,0,1,1.38-1,5.06,5.06,0,0,1,2-.42,5.54,5.54,0,0,1,1.94.32,4.41,4.41,0,0,1,1.56,1,4.47,4.47,0,0,1,1,1.54A5.41,5.41,0,0,1,379.76,318.87Zm-2.91.14a2.33,2.33,0,0,0-.75-1.88,3,3,0,0,0-2-.63,3.36,3.36,0,0,0-1.66.43,3,3,0,0,0-1.08,1,3.9,3.9,0,0,0-.06.56q0,0.31,0,.5a3,3,0,0,0,.19,1.06,2.5,2.5,0,0,0,1.41,1.47,2.93,2.93,0,0,0,1.18.21,2.88,2.88,0,0,0,1-.2A3,3,0,0,0,376,321a2.68,2.68,0,0,0,.63-0.84A2.48,2.48,0,0,0,376.85,319Z"/><path class="cls-4" d="M383.77,326.19a8,8,0,0,0,1.71-.63,7.34,7.34,0,0,0,2-1.43,8,8,0,0,0,1.63-2.4,8.55,8.55,0,0,0,.67-3.57,9.25,9.25,0,0,0-.63-3.67,7.57,7.57,0,0,0-1.56-2.38,6.59,6.59,0,0,0-1.95-1.38,9.54,9.54,0,0,0-1.83-.63l0.55-2.47a11.35,11.35,0,0,1,3.14,1,9.17,9.17,0,0,1,2.7,2.05,9.79,9.79,0,0,1,1.88,3.13,11.87,11.87,0,0,1,.7,4.26,12,12,0,0,1-.7,4.29,9.93,9.93,0,0,1-1.88,3.16,9.36,9.36,0,0,1-2.7,2.09,10.81,10.81,0,0,1-3.14,1.05Z"/><path class="cls-4" d="M464.92,318.64l2.86-.15V312l-2.86.15c0-1,0-1.52,0-2.53l5.19-.28,0.35,1.5h0.09a6.64,6.64,0,0,1,1.48-1.35,3.82,3.82,0,0,1,1.94-.62,2.47,2.47,0,0,1,2.18.88,5.34,5.34,0,0,1,.79,3.33l-2.7.16a2.23,2.23,0,0,0-.24-1.19,0.8,0.8,0,0,0-.77-0.34,2.4,2.4,0,0,0-1.49.54,5.07,5.07,0,0,0-1,1.11v4.9l5-.29v2.53c-4.34.26-6.51,0.38-10.85,0.61C464.92,320.16,464.92,319.65,464.92,318.64Z"/><path class="cls-4" d="M490.15,318.44a4.49,4.49,0,0,1-.77.59,8,8,0,0,1-1.11.57,9,9,0,0,1-1.39.46,9.17,9.17,0,0,1-1.61.24,7.64,7.64,0,0,1-2.64-.25,4.74,4.74,0,0,1-3.2-2.92,6.88,6.88,0,0,1-.43-2.52,7,7,0,0,1,.48-2.69,5.78,5.78,0,0,1,1.32-2,6,6,0,0,1,2-1.26,7.91,7.91,0,0,1,2.44-.53,7.43,7.43,0,0,1,1.81.11,4.62,4.62,0,0,1,1.72.68,3.87,3.87,0,0,1,1.28,1.42,4.91,4.91,0,0,1,.5,2.36,11.17,11.17,0,0,1-.23,2.16l-8.29.53a2.54,2.54,0,0,0,.31,1.22,2.25,2.25,0,0,0,.76.78,3.08,3.08,0,0,0,1.08.4,5.31,5.31,0,0,0,1.3.07,7,7,0,0,0,2.27-.47,5.21,5.21,0,0,0,1.44-.88Zm-5-7.89a3.93,3.93,0,0,0-1.13.24,3.4,3.4,0,0,0-1,.54,2.87,2.87,0,0,0-.7.83,2.53,2.53,0,0,0-.32,1.07l5.67-.36A2.12,2.12,0,0,0,485.18,310.55Z"/><path class="cls-4" d="M504.25,317.58a7.21,7.21,0,0,1-2.21,1.23,10,10,0,0,1-2.65.55,7.3,7.3,0,0,1-2.66-.25,4.94,4.94,0,0,1-2-1.1,4.75,4.75,0,0,1-1.21-1.84,6.92,6.92,0,0,1-.41-2.46,6.72,6.72,0,0,1,.48-2.61,6,6,0,0,1,1.35-2,6.37,6.37,0,0,1,2-1.33,8.19,8.19,0,0,1,2.56-.58,9.28,9.28,0,0,1,2.42.13,10.67,10.67,0,0,1,1.73.45c0,1.62,0,2.43,0,4l-2.53.18v-2.12a6.38,6.38,0,0,0-1.43-.06,4.49,4.49,0,0,0-1.28.29,3.41,3.41,0,0,0-1.13.7,3.6,3.6,0,0,0-.81,1.13,3.66,3.66,0,0,0-.31,1.56,3.42,3.42,0,0,0,.25,1.34,2.86,2.86,0,0,0,1.85,1.68,4,4,0,0,0,1.51.16,5.62,5.62,0,0,0,2.15-.52,9.54,9.54,0,0,0,1.26-.73Z"/><path class="cls-4" d="M513.09,306.51l4.28-.34c0,3.2,0,4.8,0,8v1l1.75-.14c0,1,0,1.52,0,2.53l-3.64.29L515,316.16h-0.09a4.56,4.56,0,0,1-1.59,1.57,5.4,5.4,0,0,1-3.95.65,2.62,2.62,0,0,1-1.23-.67,3.21,3.21,0,0,1-.78-1.37,7.55,7.55,0,0,1-.28-2.23V309.5l-1.31.1v-2.53l4.3-.32c0,2.61,0,3.92,0,6.53a3.35,3.35,0,0,0,.45,2,1.51,1.51,0,0,0,1.42.51,2.69,2.69,0,0,0,1.53-.62,3,3,0,0,0,1-1.32v-4.9l-1.29.1v-2.53Z"/><path class="cls-4" d="M520.2,314.92l2.85-.23v-6.44l-2.85.23v-2.53l5.18-.43,0.34,1.49h0.09a6.92,6.92,0,0,1,1.47-1.39,3.91,3.91,0,0,1,1.93-.67,2.4,2.4,0,0,1,2.17.82,5.24,5.24,0,0,1,.79,3.31l-2.69.23a2.2,2.2,0,0,0-.24-1.19,0.78,0.78,0,0,0-.77-0.31,2.46,2.46,0,0,0-1.48.59,5.28,5.28,0,0,0-1,1.14v4.9l5-.43c0,1,0,1.52,0,2.53-4.33.38-6.5,0.56-10.84,0.91v-2.53Z"/><path class="cls-4" d="M543.57,320.28a9.9,9.9,0,0,1-3.13-.72,8,8,0,0,1-2.69-1.8,8.64,8.64,0,0,1-1.87-3,11.46,11.46,0,0,1-.7-4.22,12.52,12.52,0,0,1,.7-4.33,11.23,11.23,0,0,1,1.88-3.33,10.66,10.66,0,0,1,2.69-2.34,12.55,12.55,0,0,1,3.13-1.37l0.55,2.41a10.58,10.58,0,0,0-1.83.83,7.62,7.62,0,0,0-1.94,1.58,8.72,8.72,0,0,0-1.55,2.55,9.78,9.78,0,0,0-.63,3.74,8.09,8.09,0,0,0,.67,3.5,6.94,6.94,0,0,0,1.62,2.23,6.3,6.3,0,0,0,2,1.22,7.27,7.27,0,0,0,1.7.45Z"/><path class="cls-4" d="M552.61,312.33A5,5,0,0,0,554,312a3.72,3.72,0,0,0,1.08-.66,3.06,3.06,0,0,0,.7-0.89,2.26,2.26,0,0,0,.25-1,2,2,0,0,0-.29-1.13,1.8,1.8,0,0,0-.79-0.67,3.53,3.53,0,0,0-1.22-.27,9.72,9.72,0,0,0-1.54,0l-1.29.13v-1.65l3.86-5.1-5.82.57c0-1,0-1.52,0-2.53l9.38-.93c0,0.84,0,1.26,0,2.09l-4,5,0.53-.05a4.39,4.39,0,0,1,1.56.12,3.42,3.42,0,0,1,1.34.69,3.54,3.54,0,0,1,.94,1.28,4.53,4.53,0,0,1,.36,1.87,5,5,0,0,1-.54,2.35,6.06,6.06,0,0,1-1.42,1.81,6.88,6.88,0,0,1-2,1.21,8.88,8.88,0,0,1-2.37.57,11.56,11.56,0,0,1-2.07,0,9.32,9.32,0,0,1-2-.38l0.81-2.56a2.88,2.88,0,0,0,.56.18l0.8,0.15a8.45,8.45,0,0,0,.92.09A6.35,6.35,0,0,0,552.61,312.33Z"/><path class="cls-4" d="M566.4,310.93a5,5,0,0,0,1.39-.34,3.75,3.75,0,0,0,1.08-.66,3.09,3.09,0,0,0,.7-0.9,2.27,2.27,0,0,0,.25-1,2,2,0,0,0-.29-1.13,1.78,1.78,0,0,0-.79-0.66,3.5,3.5,0,0,0-1.22-.26,9.69,9.69,0,0,0-1.54,0l-1.29.13v-1.65l3.86-5.13-5.81.61v-2.53l9.37-1v2.09l-4,5.06,0.53-.06a4.38,4.38,0,0,1,1.56.11,3.38,3.38,0,0,1,1.34.68,3.51,3.51,0,0,1,.94,1.28,4.52,4.52,0,0,1,.36,1.87,5.07,5.07,0,0,1-.54,2.36,6.13,6.13,0,0,1-1.42,1.82,7,7,0,0,1-2,1.23,8.93,8.93,0,0,1-2.37.58,11.55,11.55,0,0,1-2.07,0,9.28,9.28,0,0,1-2-.37l0.81-2.57a2.89,2.89,0,0,0,.56.17l0.8,0.15a8.4,8.4,0,0,0,.92.09A6.38,6.38,0,0,0,566.4,310.93Z"/><path class="cls-4" d="M586.49,310.92c-4.1.47-6.14,0.7-10.24,1.16v-2.23l0.69-.69,0.93-1q0.52-.54,1.09-1.18t1.13-1.32q0.78-1,1.37-1.74a13.28,13.28,0,0,0,1-1.45,6.29,6.29,0,0,0,.56-1.31,4.51,4.51,0,0,0,.18-1.27A1.93,1.93,0,0,0,583,299a2.09,2.09,0,0,0-.57-0.71,2.39,2.39,0,0,0-.88-0.43,3.07,3.07,0,0,0-1.14-.07,4.61,4.61,0,0,0-1.5.42,6,6,0,0,0-1.41,1l-1.19-2a11.72,11.72,0,0,1,2.15-1.4,7.88,7.88,0,0,1,2.72-.78,6.32,6.32,0,0,1,1.89.06,4.4,4.4,0,0,1,1.61.63,3.35,3.35,0,0,1,1.11,1.22,3.74,3.74,0,0,1,.41,1.82,7.22,7.22,0,0,1-.13,1.38,7.35,7.35,0,0,1-.39,1.31,9.81,9.81,0,0,1-.69,1.38q-0.43.72-1,1.57-0.46.65-1,1.32t-1.07,1.28q-0.53.61-1,1.15t-0.93.91l6.61-.75v2.53Z"/><path class="cls-4" d="M600.79,304.22a5.52,5.52,0,0,1-.42,2.14,6.22,6.22,0,0,1-1.16,1.82,6.38,6.38,0,0,1-1.75,1.34,6.51,6.51,0,0,1-4.43.57,4.35,4.35,0,0,1-1.82-.92,4.61,4.61,0,0,1-1.24-1.76,6.74,6.74,0,0,1-.46-2.61,11.19,11.19,0,0,1,.79-4.23,13.36,13.36,0,0,1,2-3.47,12.63,12.63,0,0,1,2.78-2.54,10.55,10.55,0,0,1,3.05-1.44l0.67,2.29a10.09,10.09,0,0,0-2.27,1,9.83,9.83,0,0,0-1.88,1.48,9,9,0,0,0-1.39,1.8,6.49,6.49,0,0,0-.77,2,4.19,4.19,0,0,1,1.38-1.14,5.44,5.44,0,0,1,2-.64,5.29,5.29,0,0,1,1.93.1,3.68,3.68,0,0,1,2.58,2.2A5.12,5.12,0,0,1,600.79,304.22Zm-2.89.47a2.09,2.09,0,0,0-.75-1.8,2.72,2.72,0,0,0-2-.4,3.66,3.66,0,0,0-1.65.61,3.48,3.48,0,0,0-1.08,1.09,4.07,4.07,0,0,0-.06.57q0,0.31,0,.5a2.9,2.9,0,0,0,.18,1,2.13,2.13,0,0,0,1.4,1.32,2.78,2.78,0,0,0,1.17.08,3.09,3.09,0,0,0,1-.32,3.45,3.45,0,0,0,.9-0.65,3.15,3.15,0,0,0,.63-0.92A2.67,2.67,0,0,0,597.9,304.69Z"/><path class="cls-4" d="M615.26,302.89l-2.75.36c0,1.79,0,2.69,0,4.48l-2.77.36v-4.49l-6.95.87v-2l7.27-10.6,2.45-.32c0,3.74,0,5.6,0,9.34l2.75-.36v2.39Zm-5.53-6.78-4,5.61,4-.5v-5.11Z"/><path class="cls-4" d="M616.66,299.12a14.45,14.45,0,0,1,.44-3.73,8.78,8.78,0,0,1,1.23-2.77,6.2,6.2,0,0,1,1.9-1.8,6.36,6.36,0,0,1,2.46-.85,4.67,4.67,0,0,1,4.46,1.43q1.56,1.82,1.56,6.1a14.56,14.56,0,0,1-.44,3.75A9,9,0,0,1,627,304a6.14,6.14,0,0,1-1.91,1.82,6.42,6.42,0,0,1-2.47.85,4.52,4.52,0,0,1-4.46-1.56Q616.66,303.22,616.66,299.12Zm3-.39c0,0.23,0,.45,0,0.65s0,0.42,0,.63l5.55-5.87a2.19,2.19,0,0,0-2.57-1.63,2.9,2.9,0,0,0-2.24,1.71A10.13,10.13,0,0,0,619.64,298.73Zm6.1-.82q0-.37,0-0.7c0-.22,0-0.44,0-0.65l-5.57,5.88a2.23,2.23,0,0,0,2.57,1.75,2.93,2.93,0,0,0,2.25-1.71A10.16,10.16,0,0,0,625.73,297.91Z"/><path class="cls-4" d="M634.53,303.29A1.82,1.82,0,0,1,635,302a2.17,2.17,0,0,1,1.29-.64,2,2,0,0,1,1.9.56,2.87,2.87,0,0,1,.64,2,4.76,4.76,0,0,1-.4,1.94,6.06,6.06,0,0,1-1,1.62,6.9,6.9,0,0,1-1.43,1.22,6.71,6.71,0,0,1-1.57.75l-0.62-1.18a7.71,7.71,0,0,0,1.11-.55,5.45,5.45,0,0,0,1-.78,4.38,4.38,0,0,0,.77-1,2.76,2.76,0,0,0,.35-1.15,3,3,0,0,1-1.17.2,1.53,1.53,0,0,1-.79-0.26,1.24,1.24,0,0,1-.45-0.58A2.2,2.2,0,0,1,634.53,303.29Z"/><path class="cls-4" d="M648.7,300.4a5.46,5.46,0,0,0,1.4-.39,4.18,4.18,0,0,0,1.11-.69,3,3,0,0,0,.73-1,2.69,2.69,0,0,0,.26-1.19,2,2,0,0,0-1-1.84,4.7,4.7,0,0,0-3-.28l-0.58.1-0.63.13-0.71.13c0-3.37,0-5.05,0-8.42l8.28-1.23c0,1.12,0,1.68,0,2.81l-5.72.86v3.1l0.37-.08,0.31-.06,0.26-.05a6.36,6.36,0,0,1,2.13,0,4,4,0,0,1,1.72.74,3.68,3.68,0,0,1,1.13,1.45,5,5,0,0,1,.4,2,5.84,5.84,0,0,1-.5,2.46A6.13,6.13,0,0,1,653.3,301a7.47,7.47,0,0,1-2,1.35,9,9,0,0,1-2.45.72,6,6,0,0,1-1.08.06q-0.57,0-1.12-.09a8.91,8.91,0,0,1-1-.18,8.12,8.12,0,0,1-.79-0.23l1-2.53a5.9,5.9,0,0,0,1.2.33A5.06,5.06,0,0,0,648.7,300.4Z"/><path class="cls-4" d="M659.75,303.43a9.23,9.23,0,0,0,1.69-.87,8.93,8.93,0,0,0,2-1.71,9.74,9.74,0,0,0,1.61-2.63,9.3,9.3,0,0,0,.66-3.67A8.67,8.67,0,0,0,665,291a6.23,6.23,0,0,0-1.54-2.16,5.39,5.39,0,0,0-1.93-1.1,8.44,8.44,0,0,0-1.82-.38l0.55-2.55a10.07,10.07,0,0,1,3.11.6,7.47,7.47,0,0,1,2.67,1.68,8.12,8.12,0,0,1,1.86,2.87,11.17,11.17,0,0,1,.7,4.16,13,13,0,0,1-.7,4.39,11.92,11.92,0,0,1-1.86,3.42,11.42,11.42,0,0,1-2.67,2.46,12.35,12.35,0,0,1-3.11,1.49Z"/><path class="cls-4" d="M51,246.45l2.83,0.45v-6.44L51,240v-2.53l5.14,0.81,0.34,1.57H56.6a4.85,4.85,0,0,1,1.46-1,3.32,3.32,0,0,1,1.92-.21A3.11,3.11,0,0,1,62.15,240a6.19,6.19,0,0,1,.79,3.5l-2.68-.41a2.55,2.55,0,0,0-.24-1.24,1,1,0,0,0-.77-0.5,2,2,0,0,0-1.47.23,3.67,3.67,0,0,0-.95.91v4.9l5,0.76v2.53c-4.31-.66-6.46-1-10.77-1.68v-2.53Z"/><path class="cls-4" d="M76.07,251.56a3.34,3.34,0,0,1-.77.43,6.41,6.41,0,0,1-1.1.33,7.81,7.81,0,0,1-1.39.16,8.75,8.75,0,0,1-1.6-.1,8.51,8.51,0,0,1-2.62-.8A6.35,6.35,0,0,1,65.42,248a7.65,7.65,0,0,1-.42-2.6,6.26,6.26,0,0,1,.48-2.58,4.3,4.3,0,0,1,1.32-1.7,4.6,4.6,0,0,1,2-.85,7.28,7.28,0,0,1,2.43,0,8.17,8.17,0,0,1,1.8.5,5.88,5.88,0,0,1,1.7,1,5.23,5.23,0,0,1,1.27,1.69,5.61,5.61,0,0,1,.49,2.46,10.51,10.51,0,0,1-.23,2.11L68,246.83a2.94,2.94,0,0,0,.31,1.29,3,3,0,0,0,.75.94,3.9,3.9,0,0,0,1.08.63,5.77,5.77,0,0,0,1.29.34,6.43,6.43,0,0,0,2.25,0,4,4,0,0,0,1.43-.57Zm-4.94-8.94a3.62,3.62,0,0,0-1.12,0,2.66,2.66,0,0,0-1,.34,2.11,2.11,0,0,0-.7.68,2.16,2.16,0,0,0-.32,1l5.63,0.83a2.89,2.89,0,0,0-.63-1.91A2.93,2.93,0,0,0,71.13,242.63Z"/><path class="cls-4" d="M90.08,253.66a5.66,5.66,0,0,1-2.2.76,9.32,9.32,0,0,1-2.63,0,8.17,8.17,0,0,1-2.65-.81,6.56,6.56,0,0,1-1.95-1.51,6.29,6.29,0,0,1-1.2-2.09,7.7,7.7,0,0,1-.41-2.54,6,6,0,0,1,.48-2.51,4.43,4.43,0,0,1,1.34-1.72,4.88,4.88,0,0,1,2-.9,7.52,7.52,0,0,1,2.54,0,10.14,10.14,0,0,1,2.4.63,12.86,12.86,0,0,1,1.72.81v4L87,247.44v-2.12a6.91,6.91,0,0,0-1.42-.36,4.13,4.13,0,0,0-1.27,0,2.58,2.58,0,0,0-1.92,1.42,3.25,3.25,0,0,0-.31,1.5,3.85,3.85,0,0,0,.25,1.39,3.9,3.9,0,0,0,.71,1.18,4,4,0,0,0,1.13.88,4.49,4.49,0,0,0,1.5.48,5.09,5.09,0,0,0,2.14-.07,7.38,7.38,0,0,0,1.25-.47Z"/><path class="cls-4" d="M98.88,244.46l4.26,0.56v9l1.74,0.23v2.53l-3.62-.48-0.53-1.77h-0.09a3.35,3.35,0,0,1-1.58,1.24,4.47,4.47,0,0,1-2.34.26,5.66,5.66,0,0,1-1.59-.45,3.44,3.44,0,0,1-1.23-.93,4.19,4.19,0,0,1-.78-1.53,8.24,8.24,0,0,1-.27-2.29v-4.62L91.55,246v-2.53l4.28,0.58v6.53a3.86,3.86,0,0,0,.45,2.08,1.88,1.88,0,0,0,1.41.81,2.3,2.3,0,0,0,2.47-1.42c0-2,0-2.94,0-4.9L98.88,247v-2.53Z"/><path class="cls-4" d="M106,254.36l2.84,0.37c0-2.58,0-3.86,0-6.44l-2.84-.37c0-1,0-1.52,0-2.53l5.16,0.66,0.34,1.56h0.09a5.06,5.06,0,0,1,1.47-1.08,3.37,3.37,0,0,1,1.93-.26,3,3,0,0,1,2.17,1.28,6.06,6.06,0,0,1,.79,3.48l-2.68-.33a2.5,2.5,0,0,0-.24-1.24,1,1,0,0,0-.77-0.48,2.08,2.08,0,0,0-1.48.27,3.84,3.84,0,0,0-1,.94v4.9l5,0.62v2.53c-4.32-.54-6.48-0.81-10.8-1.37v-2.53Z"/><path class="cls-4" d="M129.27,264.65a11.92,11.92,0,0,1-3.12-1.38,10.84,10.84,0,0,1-2.68-2.37,11.36,11.36,0,0,1-1.87-3.35,12.72,12.72,0,0,1-.7-4.36,11.32,11.32,0,0,1,.7-4.18,8.51,8.51,0,0,1,1.87-2.94,7.86,7.86,0,0,1,2.68-1.77,10.36,10.36,0,0,1,3.12-.71l0.55,2.53a8.7,8.7,0,0,0-1.83.44,5.66,5.66,0,0,0-1.94,1.17,6.53,6.53,0,0,0-1.55,2.22,8.81,8.81,0,0,0-.63,3.6,9.09,9.09,0,0,0,.66,3.64,9.27,9.27,0,0,0,1.62,2.57,8.48,8.48,0,0,0,2,1.64,8.83,8.83,0,0,0,1.7.81Z"/><path class="cls-4" d="M138.29,258.61a4.56,4.56,0,0,0,1.39,0,2.89,2.89,0,0,0,1.08-.43,2.25,2.25,0,0,0,.7-0.75,2,2,0,0,0,.25-1,2.34,2.34,0,0,0-.29-1.19,2.43,2.43,0,0,0-.79-0.83,4.25,4.25,0,0,0-1.22-.52,10.18,10.18,0,0,0-1.54-.29l-1.29-.15v-1.65l3.86-4.29-5.81-.66V244.3l9.37,1.05v2.09l-4,4.17,0.53,0.06a4.89,4.89,0,0,1,1.56.45,4.51,4.51,0,0,1,1.34,1,4.76,4.76,0,0,1,.94,1.48,5.1,5.1,0,0,1,.36,1.95,4.39,4.39,0,0,1-.54,2.24,4.46,4.46,0,0,1-1.42,1.51,5.38,5.38,0,0,1-2,.79,8.16,8.16,0,0,1-2.37.07,12.19,12.19,0,0,1-2.07-.42,11,11,0,0,1-2-.8l0.8-2.39a3.63,3.63,0,0,0,.56.29l0.8,0.32a9.4,9.4,0,0,0,.92.29A6.7,6.7,0,0,0,138.29,258.61Z"/><path class="cls-4" d="M152.08,260.11a4.56,4.56,0,0,0,1.39,0,2.9,2.9,0,0,0,1.08-.44,2.27,2.27,0,0,0,.7-0.75,2,2,0,0,0,.25-1,2.34,2.34,0,0,0-.29-1.19,2.42,2.42,0,0,0-.79-0.83,4.2,4.2,0,0,0-1.22-.52,10.16,10.16,0,0,0-1.54-.28l-1.29-.14v-1.65l3.86-4.31-5.81-.62v-2.53l9.38,1v2.09l-4,4.2,0.53,0.06a4.86,4.86,0,0,1,1.56.44,4.46,4.46,0,0,1,1.34,1,4.7,4.7,0,0,1,.94,1.48,5.08,5.08,0,0,1,.36,1.95,4.42,4.42,0,0,1-.54,2.24,4.51,4.51,0,0,1-1.42,1.52,5.41,5.41,0,0,1-2,.8,8.18,8.18,0,0,1-2.37.08,12.23,12.23,0,0,1-2.07-.4,11,11,0,0,1-2-.79l0.8-2.4a3.56,3.56,0,0,0,.56.29l0.8,0.32a9.32,9.32,0,0,0,.92.28A6.66,6.66,0,0,0,152.08,260.11Z"/><path class="cls-4" d="M172.19,264.35c-4.1-.39-6.15-0.59-10.25-1v-2.23c0.18-.13.41-0.31,0.69-0.54l0.93-.77q0.52-.43,1.09-0.95t1.13-1.08q0.78-.8,1.37-1.45a9.74,9.74,0,0,0,1-1.25,4.88,4.88,0,0,0,.56-1.19,4.15,4.15,0,0,0,.18-1.24,2.21,2.21,0,0,0-.21-0.92,2.83,2.83,0,0,0-.57-0.83,3.16,3.16,0,0,0-.89-0.61A3.4,3.4,0,0,0,166,250a4.15,4.15,0,0,0-1.5.1,4.55,4.55,0,0,0-1.41.71l-1.2-2.24a9.05,9.05,0,0,1,2.15-.95,7.09,7.09,0,0,1,2.72-.2,6.88,6.88,0,0,1,1.9.46,5.66,5.66,0,0,1,1.61,1,4.56,4.56,0,0,1,1.12,1.45,4.28,4.28,0,0,1,.41,1.9,6.81,6.81,0,0,1-.13,1.36,6.15,6.15,0,0,1-.39,1.23,7.6,7.6,0,0,1-.69,1.23c-0.28.42-.62,0.87-1,1.35s-0.64.74-1,1.11-0.72.72-1.07,1.06-0.7.64-1,.93-0.66.53-.93,0.71l6.62,0.64v2.53Z"/><path class="cls-4" d="M186.51,260.67a4.88,4.88,0,0,1-.43,2.06,4.67,4.67,0,0,1-1.16,1.58,4.81,4.81,0,0,1-1.76,1,5.58,5.58,0,0,1-2.2.22,6.89,6.89,0,0,1-2.24-.59,5.75,5.75,0,0,1-1.83-1.31,6.15,6.15,0,0,1-1.24-2,7.49,7.49,0,0,1-.46-2.71,9.93,9.93,0,0,1,.79-4.07,10.08,10.08,0,0,1,2-3,9.32,9.32,0,0,1,2.78-2,8.67,8.67,0,0,1,3.06-.79l0.67,2.43a8.36,8.36,0,0,0-2.28.54,7.37,7.37,0,0,0-1.89,1.08,6.6,6.6,0,0,0-1.39,1.51,5.2,5.2,0,0,0-.77,1.79,3.13,3.13,0,0,1,1.38-.85,4.8,4.8,0,0,1,2-.22,5.84,5.84,0,0,1,1.93.51,5,5,0,0,1,1.55,1.1,5.1,5.1,0,0,1,1,1.64A5.71,5.71,0,0,1,186.51,260.67Zm-2.9-.14a2.57,2.57,0,0,0-.75-2,3.24,3.24,0,0,0-2-.83,3.16,3.16,0,0,0-1.66.26,2.56,2.56,0,0,0-1.08.87,4,4,0,0,0-.06.56q0,0.31,0,.49a3.23,3.23,0,0,0,.18,1.07,2.87,2.87,0,0,0,.54.94,2.94,2.94,0,0,0,.86.68,3.1,3.1,0,0,0,1.17.33,2.74,2.74,0,0,0,1-.1,2.62,2.62,0,0,0,.9-0.46A2.32,2.32,0,0,0,183.62,260.53Z"/><path class="cls-4" d="M201,262.4l-2.76-.23v4.49l-2.78-.23v-4.49l-7-.59v-2l7.29-9.06,2.46,0.2c0,3.74,0,5.6,0,9.34L201,260C201,261,201,261.45,201,262.4Zm-5.55-8-4,4.77,4,0.34C195.49,257.51,195.49,256.49,195.49,254.45Z"/><path class="cls-4" d="M202.44,258.93a13.32,13.32,0,0,1,.44-3.63,6.89,6.89,0,0,1,1.24-2.51,4.58,4.58,0,0,1,1.91-1.4,5.58,5.58,0,0,1,2.47-.33,5.81,5.81,0,0,1,4.48,2.38q1.57,2.15,1.57,6.43a13.43,13.43,0,0,1-.44,3.66,7.05,7.05,0,0,1-1.24,2.53,4.53,4.53,0,0,1-1.92,1.42,6.11,6.11,0,0,1-7-2.17A11.22,11.22,0,0,1,202.44,258.93Zm3,0.24q0,0.35,0,.66t0,0.64l5.57-4.7a2.84,2.84,0,0,0-2.58-2.17,2.25,2.25,0,0,0-2.25,1.24A9,9,0,0,0,205.43,259.16Zm6.12,0.47c0-.25,0-0.48,0-0.7s0-.44,0-0.66l-5.59,4.7a2.9,2.9,0,0,0,2.58,2.29,2.28,2.28,0,0,0,2.26-1.23A9,9,0,0,0,211.55,259.64Z"/><path class="cls-4" d="M220.39,266.88a1.47,1.47,0,0,1,.52-1.21,1.78,1.78,0,0,1,1.3-.37,2.45,2.45,0,0,1,1.91,1,3.42,3.42,0,0,1,.64,2.09,4.18,4.18,0,0,1-.4,1.86,4.52,4.52,0,0,1-1,1.4,5.15,5.15,0,0,1-1.44.91,5.54,5.54,0,0,1-1.58.42l-0.62-1.31a6.29,6.29,0,0,0,1.12-.31,4.08,4.08,0,0,0,1-.56,3.2,3.2,0,0,0,.77-0.83,2.3,2.3,0,0,0,.36-1.08,2.94,2.94,0,0,1-1.18,0,1.93,1.93,0,0,1-.79-0.42,1.67,1.67,0,0,1-.45-0.68A2.46,2.46,0,0,1,220.39,266.88Z"/><path class="cls-4" d="M234.65,267a5,5,0,0,0,1.4-.09,3.27,3.27,0,0,0,1.12-.46,2.24,2.24,0,0,0,.74-0.8,2.34,2.34,0,0,0,.27-1.13,2.49,2.49,0,0,0-1-2.05,5.39,5.39,0,0,0-3-.91l-0.59,0h-0.63l-0.71,0c0-3.37,0-5.05,0-8.42l8.34,0.52v2.81l-5.76-.36v3.1h0.94a6.92,6.92,0,0,1,2.14.47,5.27,5.27,0,0,1,1.73,1.11,4.94,4.94,0,0,1,1.14,1.69,5.55,5.55,0,0,1,.4,2.13,5.11,5.11,0,0,1-.51,2.35,4.54,4.54,0,0,1-1.38,1.63,5.77,5.77,0,0,1-2,.92,8.09,8.09,0,0,1-2.47.2,6.32,6.32,0,0,1-1.08-.17q-0.58-.14-1.13-0.33a10.48,10.48,0,0,1-1-.4q-0.47-.21-0.79-0.4l1-2.33a7.36,7.36,0,0,0,1.21.59A5.51,5.51,0,0,0,234.65,267Z"/><path class="cls-4" d="M245.78,272.36a7.53,7.53,0,0,0,1.71-.51,6.65,6.65,0,0,0,2-1.29,7.3,7.3,0,0,0,1.62-2.29,8.24,8.24,0,0,0,.67-3.53,9.6,9.6,0,0,0-.63-3.71,8.32,8.32,0,0,0-1.56-2.49,7.26,7.26,0,0,0-1.95-1.51,10.21,10.21,0,0,0-1.83-.76l0.55-2.43a12.11,12.11,0,0,1,3.13,1.26,10.12,10.12,0,0,1,2.7,2.24A10.72,10.72,0,0,1,254,260.6a12.29,12.29,0,0,1,.7,4.3,11.65,11.65,0,0,1-.7,4.24,9.06,9.06,0,0,1-1.88,3,8.47,8.47,0,0,1-2.7,1.9,10.2,10.2,0,0,1-3.13.83Z"/><path class="cls-4" d="M411.19,256.53l9.11-.26c0,1,0,1.52,0,2.53l-6.25.18c0,6.53,0,9.8,0,16.33l6.25-.18c0,1,0,1.52,0,2.53l-9.11.26C411.19,269.37,411.19,265.09,411.19,256.53Z"/><path class="cls-4" d="M428,262.28a1.71,1.71,0,0,1,.51-1.29,2,2,0,0,1,1.34-.52,1.89,1.89,0,0,1,1.38.42,1.6,1.6,0,0,1,.51,1.26,1.76,1.76,0,0,1-.51,1.31,2,2,0,0,1-1.38.53,1.8,1.8,0,0,1-1.34-.44A1.64,1.64,0,0,1,428,262.28Zm0,8.33a1.71,1.71,0,0,1,.51-1.29,2,2,0,0,1,1.34-.52,1.9,1.9,0,0,1,1.38.42,1.6,1.6,0,0,1,.51,1.26,1.75,1.75,0,0,1-.51,1.31,2,2,0,0,1-1.38.53,1.8,1.8,0,0,1-1.34-.44A1.64,1.64,0,0,1,428,270.61Z"/><path class="cls-4" d="M437.64,269.24l2.86-.11v-6.44l-2.86.11v-2.53l5.19-.21,0.35,1.5h0.09a6.5,6.5,0,0,1,1.48-1.33,3.78,3.78,0,0,1,1.94-.59,2.51,2.51,0,0,1,2.18.91,5.39,5.39,0,0,1,.79,3.34L447,264a2.25,2.25,0,0,0-.24-1.2,0.81,0.81,0,0,0-.77-0.35,2.37,2.37,0,0,0-1.49.52,5,5,0,0,0-1,1.1V269l5-.22v2.53c-4.34.19-6.52,0.29-10.86,0.46v-2.53Z"/><path class="cls-4" d="M462.88,269.4a4.41,4.41,0,0,1-.77.58,8,8,0,0,1-1.11.55,8.87,8.87,0,0,1-1.39.44,9.07,9.07,0,0,1-1.61.22,7.67,7.67,0,0,1-2.64-.28,4.83,4.83,0,0,1-3.2-3,7.67,7.67,0,0,1,.06-5.2,5.68,5.68,0,0,1,1.33-2,5.91,5.91,0,0,1,2-1.23A7.85,7.85,0,0,1,458,259a7.46,7.46,0,0,1,1.81.14,4.7,4.7,0,0,1,1.72.71,4,4,0,0,1,1.28,1.44,5,5,0,0,1,.5,2.37,11.12,11.12,0,0,1-.23,2.15l-8.3.42a2.57,2.57,0,0,0,.31,1.23,2.3,2.3,0,0,0,.76.79,3.13,3.13,0,0,0,1.08.42,5.33,5.33,0,0,0,1.3.08,6.91,6.91,0,0,0,2.27-.44,5.13,5.13,0,0,0,1.44-.86Zm-5-8a3.91,3.91,0,0,0-1.13.22,3.35,3.35,0,0,0-1,.53,2.82,2.82,0,0,0-.7.82,2.51,2.51,0,0,0-.32,1.07l5.67-.28A2.15,2.15,0,0,0,457.91,261.44Z"/><path class="cls-4" d="M477,268.73a7.09,7.09,0,0,1-2.21,1.2,10,10,0,0,1-2.65.51,7.34,7.34,0,0,1-2.66-.29,5,5,0,0,1-2-1.12,4.85,4.85,0,0,1-1.21-1.85,7,7,0,0,1-.42-2.46,6.67,6.67,0,0,1,.48-2.6,5.86,5.86,0,0,1,1.35-2,6.27,6.27,0,0,1,2-1.3,8.14,8.14,0,0,1,2.56-.55,9.33,9.33,0,0,1,2.42.16,10.78,10.78,0,0,1,1.73.47v4l-2.53.15V261a6.41,6.41,0,0,0-1.43-.08,4.47,4.47,0,0,0-1.28.27,3.36,3.36,0,0,0-1.13.68,3.52,3.52,0,0,0-.81,1.11,3.63,3.63,0,0,0-.31,1.56,3.45,3.45,0,0,0,.25,1.34,3,3,0,0,0,.71,1,3,3,0,0,0,1.14.66,4,4,0,0,0,1.51.18,5.56,5.56,0,0,0,2.15-.49,9.36,9.36,0,0,0,1.26-.72Z"/><path class="cls-4" d="M485.83,257.78l4.28-.28v9l1.75-.12v2.53l-3.64.24-0.53-1.67h-0.09A4.47,4.47,0,0,1,486,269a5.09,5.09,0,0,1-2.35.72,5.16,5.16,0,0,1-1.6-.13,2.67,2.67,0,0,1-1.23-.68,3.26,3.26,0,0,1-.78-1.38,7.59,7.59,0,0,1-.28-2.24c0-1.85,0-2.77,0-4.62l-1.31.08v-2.53l4.31-.26v6.53a3.38,3.38,0,0,0,.45,2,1.53,1.53,0,0,0,1.42.53,2.65,2.65,0,0,0,1.53-.6,3,3,0,0,0,1-1.3v-4.9l-1.29.08C485.83,259.3,485.83,258.8,485.83,257.78Z"/><path class="cls-4" d="M493,266.29l2.86-.19v-6.44l-2.86.19c0-1,0-1.52,0-2.53l5.18-.36,0.35,1.49h0.09a6.78,6.78,0,0,1,1.47-1.37,3.86,3.86,0,0,1,1.93-.64,2.43,2.43,0,0,1,2.18.85,5.29,5.29,0,0,1,.79,3.32l-2.69.2a2.21,2.21,0,0,0-.24-1.19,0.79,0.79,0,0,0-.77-0.32,2.43,2.43,0,0,0-1.49.57,5.16,5.16,0,0,0-1,1.13v4.9l5-.36c0,1,0,1.52,0,2.53-4.34.32-6.51,0.47-10.85,0.76C493,267.8,493,267.3,493,266.29Z"/><path class="cls-4" d="M510.89,266.05a1.7,1.7,0,0,1,.52-1.28,2,2,0,0,1,1.3-.56,2.11,2.11,0,0,1,1.91.68,3,3,0,0,1,.64,2,4.56,4.56,0,0,1-.4,1.92,5.55,5.55,0,0,1-1,1.55,6.5,6.5,0,0,1-3,1.77l-0.62-1.22a7.21,7.21,0,0,0,1.12-.48,5,5,0,0,0,1-.71,4,4,0,0,0,.77-0.95,2.61,2.61,0,0,0,.36-1.13,3,3,0,0,1-1.17.13,1.63,1.63,0,0,1-.79-0.31,1.35,1.35,0,0,1-.45-0.61A2.26,2.26,0,0,1,510.89,266.05Z"/><path class="cls-4" d="M521.8,250.56l9.09-.77v2.53l-6.24.53v16.33l6.24-.53v2.53l-9.09.77C521.8,263.39,521.8,259.11,521.8,250.56Z"/><path class="cls-4" d="M539.19,262.94a4.93,4.93,0,0,0,1.39-.32,3.68,3.68,0,0,0,1.08-.65,3,3,0,0,0,.7-0.89,2.25,2.25,0,0,0,.25-1,2,2,0,0,0-.29-1.13,1.82,1.82,0,0,0-.79-0.67,3.55,3.55,0,0,0-1.22-.28,9.75,9.75,0,0,0-1.54,0l-1.29.12v-1.65l3.86-5.07-5.82.53v-2.53l9.38-.86v2.09l-4,5,0.53,0a4.4,4.4,0,0,1,1.56.13,3.44,3.44,0,0,1,1.35.7,3.58,3.58,0,0,1,.94,1.29,4.55,4.55,0,0,1,.36,1.88,5,5,0,0,1-.54,2.35,6,6,0,0,1-1.43,1.8,6.82,6.82,0,0,1-2,1.2,8.84,8.84,0,0,1-2.37.55,11.54,11.54,0,0,1-2.07,0,9.36,9.36,0,0,1-2-.4l0.81-2.56a2.94,2.94,0,0,0,.56.18l0.8,0.16a8.35,8.35,0,0,0,.92.1A6.36,6.36,0,0,0,539.19,262.94Z"/><path class="cls-4" d="M553,261.64a5,5,0,0,0,1.39-.33,3.72,3.72,0,0,0,1.08-.66,3.06,3.06,0,0,0,.7-0.89,2.26,2.26,0,0,0,.25-1,2,2,0,0,0-.29-1.13,1.8,1.8,0,0,0-.79-0.67,3.53,3.53,0,0,0-1.22-.27,9.69,9.69,0,0,0-1.54,0l-1.29.13v-1.65l3.86-5.1-5.82.57V248.1l9.38-.93v2.09l-4,5,0.53-.05a4.39,4.39,0,0,1,1.56.12,3.41,3.41,0,0,1,1.34.69,3.54,3.54,0,0,1,.94,1.28,4.54,4.54,0,0,1,.36,1.87,5,5,0,0,1-.54,2.35,6.06,6.06,0,0,1-1.42,1.81,6.88,6.88,0,0,1-2,1.22,8.87,8.87,0,0,1-2.37.57,11.56,11.56,0,0,1-2.07,0,9.34,9.34,0,0,1-2-.38l0.81-2.56a2.89,2.89,0,0,0,.56.18l0.8,0.15a8.29,8.29,0,0,0,.92.09A6.36,6.36,0,0,0,553,261.64Z"/><path class="cls-4" d="M573.09,261.77c-4.1.44-6.15,0.66-10.25,1.08v-2.23c0.18-.17.41-0.4,0.69-0.68l0.93-1q0.52-.54,1.09-1.17t1.13-1.31q0.78-1,1.37-1.73a13.11,13.11,0,0,0,1-1.45,6.22,6.22,0,0,0,.56-1.3,4.49,4.49,0,0,0,.18-1.27,1.94,1.94,0,0,0-.21-0.88,2.12,2.12,0,0,0-.57-0.71,2.41,2.41,0,0,0-.88-0.43,3.06,3.06,0,0,0-1.14-.08,4.59,4.59,0,0,0-1.5.41,5.92,5.92,0,0,0-1.41,1l-1.19-2a11.62,11.62,0,0,1,2.15-1.38,7.85,7.85,0,0,1,2.72-.76,6.32,6.32,0,0,1,1.9.07,4.42,4.42,0,0,1,1.61.65,3.38,3.38,0,0,1,1.11,1.22,3.75,3.75,0,0,1,.41,1.82,7.23,7.23,0,0,1-.13,1.38,7.33,7.33,0,0,1-.39,1.31,9.76,9.76,0,0,1-.69,1.37q-0.43.71-1,1.56-0.46.65-1,1.31t-1.07,1.27q-0.53.61-1,1.15t-0.93.9l6.62-.71v2.53Z"/><path class="cls-4" d="M587.4,255.17a5.5,5.5,0,0,1-.42,2.14,6.16,6.16,0,0,1-1.16,1.81,6.32,6.32,0,0,1-1.76,1.33,6.49,6.49,0,0,1-4.43.54,4.38,4.38,0,0,1-1.83-.94,4.65,4.65,0,0,1-1.24-1.77,6.76,6.76,0,0,1-.46-2.62,11.14,11.14,0,0,1,.79-4.23,13.24,13.24,0,0,1,2-3.46,12.5,12.5,0,0,1,2.78-2.52,10.49,10.49,0,0,1,3.05-1.42l0.67,2.29a10,10,0,0,0-2.27,1,9.75,9.75,0,0,0-1.88,1.47,9,9,0,0,0-1.39,1.79,6.44,6.44,0,0,0-.77,1.95,4.15,4.15,0,0,1,1.38-1.13,5.41,5.41,0,0,1,2-.63,5.3,5.3,0,0,1,1.93.11,3.72,3.72,0,0,1,2.58,2.22A5.13,5.13,0,0,1,587.4,255.17Zm-2.89.45a2.1,2.1,0,0,0-.75-1.8,2.73,2.73,0,0,0-2-.42,3.64,3.64,0,0,0-1.65.6,3.44,3.44,0,0,0-1.08,1.09,4.06,4.06,0,0,0-.06.57q0,0.31,0,.5a2.92,2.92,0,0,0,.18,1,2.15,2.15,0,0,0,1.4,1.33,2.79,2.79,0,0,0,1.17.09,3.07,3.07,0,0,0,1-.31,3.41,3.41,0,0,0,.9-0.64,3.11,3.11,0,0,0,.63-0.91A2.65,2.65,0,0,0,584.51,255.62Z"/><path class="cls-4" d="M601.88,253.94l-2.75.34v4.49l-2.78.34v-4.49l-7,.83v-2l7.28-10.55,2.46-.3v9.34l2.75-.34v2.39Zm-5.53-6.82-4,5.58,4-.48v-5.11Z"/><path class="cls-4" d="M603.28,250.18a14.37,14.37,0,0,1,.44-3.72,8.7,8.7,0,0,1,1.23-2.76,6.14,6.14,0,0,1,1.9-1.79,6.33,6.33,0,0,1,2.46-.83,4.7,4.7,0,0,1,4.47,1.46q1.56,1.83,1.56,6.11a14.51,14.51,0,0,1-.44,3.75,8.91,8.91,0,0,1-1.23,2.78,6.07,6.07,0,0,1-1.91,1.81,6.39,6.39,0,0,1-2.47.83,4.55,4.55,0,0,1-4.47-1.59Q603.28,254.28,603.28,250.18Zm3-.37c0,0.23,0,.45,0,0.65s0,0.42,0,.63l5.55-5.83a2.21,2.21,0,0,0-2.57-1.65,2.88,2.88,0,0,0-2.24,1.7A10.09,10.09,0,0,0,606.26,249.81Zm6.1-.78q0-.37,0-0.7c0-.22,0-0.44,0-0.65l-5.57,5.84a2.25,2.25,0,0,0,2.57,1.77,2.91,2.91,0,0,0,2.25-1.69A10.11,10.11,0,0,0,612.36,249Z"/><path class="cls-4" d="M621.16,254.48a1.81,1.81,0,0,1,.52-1.31,2.15,2.15,0,0,1,1.3-.63,2,2,0,0,1,1.9.57,2.89,2.89,0,0,1,.64,2,4.73,4.73,0,0,1-.4,1.94,6,6,0,0,1-1,1.61,6.83,6.83,0,0,1-1.43,1.21,6.64,6.64,0,0,1-1.57.74l-0.62-1.18a7.62,7.62,0,0,0,1.11-.54,5.41,5.41,0,0,0,1-.77,4.34,4.34,0,0,0,.77-1,2.74,2.74,0,0,0,.35-1.15,3,3,0,0,1-1.17.19,1.54,1.54,0,0,1-.79-0.26,1.25,1.25,0,0,1-.45-0.58A2.21,2.21,0,0,1,621.16,254.48Z"/><path class="cls-4" d="M635.34,251.69a5.44,5.44,0,0,0,1.4-.38,4.14,4.14,0,0,0,1.11-.69,3,3,0,0,0,.73-1,2.68,2.68,0,0,0,.26-1.19,2,2,0,0,0-1-1.85,4.72,4.72,0,0,0-3-.3l-0.58.09-0.63.12-0.71.12v-8.42l8.29-1.17v2.81l-5.72.81v3.1l0.37-.07,0.31-.06,0.26,0a6.38,6.38,0,0,1,2.13,0,4.07,4.07,0,0,1,1.72.75,3.71,3.71,0,0,1,1.13,1.46,5,5,0,0,1,.4,2,5.81,5.81,0,0,1-.5,2.45,6.07,6.07,0,0,1-1.37,1.91,7.41,7.41,0,0,1-2,1.33,8.92,8.92,0,0,1-2.45.7,6,6,0,0,1-1.08,0q-0.57,0-1.12-.1a8.88,8.88,0,0,1-1-.19,8,8,0,0,1-.79-0.24l1-2.53a5.92,5.92,0,0,0,1.2.34A5.07,5.07,0,0,0,635.34,251.69Z"/><path class="cls-4" d="M655.26,256.39l-9,1.35v-2.53l6.2-.92c0-6.53,0-9.8,0-16.33l-6.2.92v-2.53l9-1.35C655.26,243.56,655.26,247.84,655.26,256.39Z"/><path class="cls-4" d="M669,254.27l-9,1.41v-2.53l6.2-1c0-6.53,0-9.8,0-16.33l-6.2,1v-2.53l9-1.41C669,241.44,669,245.71,669,254.27Z"/><path class="cls-4" d="M51,347.66l2.83,0.45v-6.44L51,341.22v-2.53l5.14,0.81,0.34,1.57h0.09A4.84,4.84,0,0,1,58,340a3.32,3.32,0,0,1,1.92-.21,3.1,3.1,0,0,1,2.16,1.34,6.19,6.19,0,0,1,.79,3.5l-2.68-.41A2.55,2.55,0,0,0,60,343a1,1,0,0,0-.77-0.5,2,2,0,0,0-1.47.23,3.69,3.69,0,0,0-.95.91v4.9l5,0.76c0,1,0,1.52,0,2.53-4.31-.66-6.46-1-10.77-1.68v-2.53Z"/><path class="cls-4" d="M76,352.78a3.38,3.38,0,0,1-.77.43,6.41,6.41,0,0,1-1.1.33,7.79,7.79,0,0,1-1.38.16,8.74,8.74,0,0,1-1.6-.1,8.5,8.5,0,0,1-2.62-.8,6.35,6.35,0,0,1-3.18-3.59,7.67,7.67,0,0,1-.42-2.6,6.26,6.26,0,0,1,.48-2.58,4.3,4.3,0,0,1,1.32-1.7,4.6,4.6,0,0,1,2-.85,7.27,7.27,0,0,1,2.43,0,8.13,8.13,0,0,1,1.8.5,5.88,5.88,0,0,1,1.71,1,5.25,5.25,0,0,1,1.27,1.69,5.61,5.61,0,0,1,.49,2.46,10.51,10.51,0,0,1-.23,2.11L67.94,348a3,3,0,0,0,.31,1.29,3,3,0,0,0,.75.94,3.89,3.89,0,0,0,1.08.63,5.76,5.76,0,0,0,1.29.34,6.43,6.43,0,0,0,2.25,0,4,4,0,0,0,1.43-.57Zm-4.94-8.94a3.64,3.64,0,0,0-1.12,0,2.66,2.66,0,0,0-.95.34,2.11,2.11,0,0,0-.7.68,2.14,2.14,0,0,0-.32,1l5.63,0.83a2.89,2.89,0,0,0-.63-1.91A2.93,2.93,0,0,0,71.1,343.84Z"/><path class="cls-4" d="M90.06,354.88a5.66,5.66,0,0,1-2.2.76,9.31,9.31,0,0,1-2.63,0,8.16,8.16,0,0,1-2.65-.81,6.56,6.56,0,0,1-1.95-1.51,6.3,6.3,0,0,1-1.2-2.09,7.69,7.69,0,0,1-.41-2.54,6,6,0,0,1,.48-2.51,4.43,4.43,0,0,1,1.34-1.72,4.87,4.87,0,0,1,2-.9,7.52,7.52,0,0,1,2.54,0,10.14,10.14,0,0,1,2.4.63,12.86,12.86,0,0,1,1.72.81c0,1.62,0,2.43,0,4L87,348.66v-2.12a6.92,6.92,0,0,0-1.42-.36,4.14,4.14,0,0,0-1.27,0,2.58,2.58,0,0,0-1.92,1.42,3.25,3.25,0,0,0-.31,1.5,3.85,3.85,0,0,0,.25,1.39,3.85,3.85,0,0,0,1.84,2.07,4.48,4.48,0,0,0,1.5.48,5.09,5.09,0,0,0,2.14-.07,7.29,7.29,0,0,0,1.25-.47Z"/><path class="cls-4" d="M98.86,345.67l4.26,0.56v9l1.74,0.23V358l-3.62-.48-0.53-1.77h-0.09A3.34,3.34,0,0,1,99,356.95a4.48,4.48,0,0,1-2.34.26,5.66,5.66,0,0,1-1.59-.45,3.45,3.45,0,0,1-1.23-.93,4.18,4.18,0,0,1-.78-1.53,8.22,8.22,0,0,1-.27-2.29v-4.62l-1.31-.18v-2.53l4.28,0.58v6.53a3.86,3.86,0,0,0,.45,2.08,1.88,1.88,0,0,0,1.41.81,2.3,2.3,0,0,0,2.48-1.42v-4.9l-1.28-.17v-2.53Z"/><path class="cls-4" d="M105.94,355.58l2.84,0.37V349.5l-2.84-.37v-2.53l5.16,0.66,0.34,1.56h0.09a5.05,5.05,0,0,1,1.47-1.08,3.37,3.37,0,0,1,1.93-.26,3,3,0,0,1,2.17,1.28,6.06,6.06,0,0,1,.79,3.48l-2.68-.33a2.5,2.5,0,0,0-.24-1.24,1,1,0,0,0-.77-0.48,2.07,2.07,0,0,0-1.48.27,3.86,3.86,0,0,0-1,.94v4.9l5,0.62v2.53c-4.32-.54-6.48-0.81-10.8-1.37v-2.53Z"/><path class="cls-4" d="M129.25,365.86a11.9,11.9,0,0,1-3.12-1.38,10.86,10.86,0,0,1-2.69-2.37,11.39,11.39,0,0,1-1.87-3.35,12.72,12.72,0,0,1-.7-4.36,11.33,11.33,0,0,1,.7-4.18,8.53,8.53,0,0,1,1.87-2.94,7.88,7.88,0,0,1,2.69-1.77,10.37,10.37,0,0,1,3.12-.71l0.55,2.53a8.66,8.66,0,0,0-1.82.44,5.66,5.66,0,0,0-1.94,1.17,6.54,6.54,0,0,0-1.55,2.22,8.8,8.8,0,0,0-.63,3.6,9.09,9.09,0,0,0,.67,3.64,9.27,9.27,0,0,0,1.62,2.57,8.49,8.49,0,0,0,2,1.64,8.9,8.9,0,0,0,1.7.81Z"/><path class="cls-4" d="M135,359.13l3.51,0.4c0-4,0-6,0-10.05l-3,2-1.38-2,5.24-3.41,2,0.23c0,5.43,0,8.14,0,13.57l3.45,0.38v2.53l-9.81-1.1v-2.53Z"/><path class="cls-4" d="M148.79,360.66l3.52,0.38V351l-3,2-1.38-2,5.24-3.44,2,0.21c0,5.43,0,8.14,0,13.57l3.45,0.36v2.53l-9.81-1v-2.53Z"/><path class="cls-4" d="M165.15,363.41a1.43,1.43,0,0,1,.52-1.19,1.74,1.74,0,0,1,1.3-.33,2.53,2.53,0,0,1,1.91,1,3.51,3.51,0,0,1,.64,2.11,4.12,4.12,0,0,1-.4,1.85,4.33,4.33,0,0,1-1,1.37,5,5,0,0,1-1.44.87,5.41,5.41,0,0,1-1.57.37l-0.62-1.33a6.17,6.17,0,0,0,1.11-.28,4,4,0,0,0,1-.53,3.07,3.07,0,0,0,.77-0.81,2.23,2.23,0,0,0,.36-1.07,2.94,2.94,0,0,1-1.17-.08,2,2,0,0,1-.79-0.45,1.73,1.73,0,0,1-.45-0.69A2.49,2.49,0,0,1,165.15,363.41Z"/><path class="cls-4" d="M176.37,363.43l3.52,0.33V353.7l-3,2-1.38-2,5.24-3.52,2,0.18c0,5.43,0,8.14,0,13.57l3.45,0.31v2.53l-9.82-.89v-2.53Z"/><path class="cls-4" d="M188.61,359a13.29,13.29,0,0,1,.44-3.63,6.83,6.83,0,0,1,1.24-2.5,4.55,4.55,0,0,1,1.91-1.39,5.56,5.56,0,0,1,2.47-.31,5.85,5.85,0,0,1,4.48,2.41q1.57,2.16,1.57,6.44a13.45,13.45,0,0,1-.44,3.66,7,7,0,0,1-1.24,2.52,4.49,4.49,0,0,1-1.92,1.41,5.61,5.61,0,0,1-2.48.31,5.7,5.7,0,0,1-4.48-2.53A11.27,11.27,0,0,1,188.61,359Zm3,0.26c0,0.23,0,.45,0,0.66s0,0.42,0,.64l5.57-4.66a2.86,2.86,0,0,0-2.58-2.19,2.23,2.23,0,0,0-2.25,1.22A9,9,0,0,0,191.6,359.25Zm6.12,0.51q0-.37,0-0.7c0-.22,0-0.44,0-0.66l-5.59,4.66a2.92,2.92,0,0,0,2.58,2.31,2.26,2.26,0,0,0,2.26-1.21A9,9,0,0,0,197.72,359.76Z"/><path class="cls-4" d="M204.3,370.74a7.39,7.39,0,0,0,1.7-.48,6.46,6.46,0,0,0,2-1.25,7.1,7.1,0,0,0,1.62-2.26,8.15,8.15,0,0,0,.67-3.51,9.7,9.7,0,0,0-.63-3.73,8.57,8.57,0,0,0-1.55-2.52,7.48,7.48,0,0,0-1.95-1.55,10.44,10.44,0,0,0-1.83-.8l0.55-2.42a12.36,12.36,0,0,1,3.13,1.33,10.43,10.43,0,0,1,2.69,2.3,11,11,0,0,1,1.88,3.3,12.42,12.42,0,0,1,.7,4.32,11.53,11.53,0,0,1-.7,4.23,8.81,8.81,0,0,1-1.88,3,8.21,8.21,0,0,1-2.69,1.84,10,10,0,0,1-3.13.77Z"/><path class="cls-4" d="M327.63,374.25v-2.53l2.72,0v-6.44l-2.74,0v-2.53l2.74,0v-0.64a4.18,4.18,0,0,1,.38-1.86,3.67,3.67,0,0,1,1-1.27,4,4,0,0,1,1.44-.73,6,6,0,0,1,1.7-.22,10.89,10.89,0,0,1,2.62.3,6.81,6.81,0,0,1,1.7.67l-0.88,2.27a10.51,10.51,0,0,0-1.14-.47,5.07,5.07,0,0,0-1.58-.23,2.21,2.21,0,0,0-1.74.54,2.47,2.47,0,0,0-.5,1.68l4.84,0.06v2.53l-4.84-.06c0,2.58,0,3.86,0,6.44l4.87,0.06v2.53C334,374.35,331.87,374.32,327.63,374.25Z"/><path class="cls-4" d="M341.91,363.71A12.51,12.51,0,0,1,344,363a12.16,12.16,0,0,1,2.87-.28,6.41,6.41,0,0,1,2,.3,3.43,3.43,0,0,1,1.36.82,3.12,3.12,0,0,1,.75,1.27,5.54,5.54,0,0,1,.23,1.66q0,1.17-.08,2t-0.08,1.47a9.82,9.82,0,0,0,0,1.08c0,0.21.05,0.42,0.07,0.62h1.5v2.53l-3.87,0-0.3-1.57h-0.11a3.94,3.94,0,0,1-1.31,1.22,4.35,4.35,0,0,1-2.29.5,3.92,3.92,0,0,1-2.73-.94,3.17,3.17,0,0,1-1-2.45,3.63,3.63,0,0,1,.35-1.66,2.94,2.94,0,0,1,1-1.14,4.86,4.86,0,0,1,1.63-.65,9.5,9.5,0,0,1,2.12-.2c0.27,0,.57,0,0.87.05l1.12,0.1a2.37,2.37,0,0,0,0-.46v-0.44a1.48,1.48,0,0,0-.5-1.26,2.47,2.47,0,0,0-1.49-.39,6.94,6.94,0,0,0-2.11.28,13.45,13.45,0,0,0-1.58.58Zm3.93,8.47a2.75,2.75,0,0,0,1.64-.39,2.69,2.69,0,0,0,.8-0.86v-1.38l-0.68-.11a7.89,7.89,0,0,0-1-.06,4.74,4.74,0,0,0-.87.07,2.86,2.86,0,0,0-.78.25,1.49,1.49,0,0,0-.55.44,1.08,1.08,0,0,0-.2.67,1.32,1.32,0,0,0,.38,1A1.78,1.78,0,0,0,345.84,372.18Z"/><path class="cls-4" d="M366.28,373.4a6.64,6.64,0,0,1-2.21,1.08,9.74,9.74,0,0,1-2.65.36,7.53,7.53,0,0,1-2.66-.44,5.43,5.43,0,0,1-2-1.23,5.24,5.24,0,0,1-1.21-1.92,7.15,7.15,0,0,1-.42-2.49,6.46,6.46,0,0,1,.48-2.58,5.42,5.42,0,0,1,1.35-1.91,5.82,5.82,0,0,1,2-1.18,7.91,7.91,0,0,1,2.56-.4,9.5,9.5,0,0,1,2.42.3,11.3,11.3,0,0,1,1.73.57v4h-2.54v-2.12a6.52,6.52,0,0,0-1.43-.16,4.34,4.34,0,0,0-1.28.2,3.13,3.13,0,0,0-1.13.62,3.26,3.26,0,0,0-.81,1.07,3.51,3.51,0,0,0-.31,1.54,3.55,3.55,0,0,0,.25,1.36,3.16,3.16,0,0,0,1.86,1.81,4.12,4.12,0,0,0,1.51.26,5.4,5.4,0,0,0,2.16-.37,8.71,8.71,0,0,0,1.26-.65Z"/><path class="cls-4" d="M370.2,365.52h-2.28V363h2.28v-2.62l3-.87V363l6,0v2.53l-6,0v3.29a3.94,3.94,0,0,0,.67,2.56,2.29,2.29,0,0,0,1.87.78,4,4,0,0,0,1.13-.16,4.34,4.34,0,0,0,.91-0.39,5.31,5.31,0,0,0,.74-0.51l0.61-.51,1.38,2.06a4.52,4.52,0,0,1-1,.85,8.49,8.49,0,0,1-1.27.68,8.11,8.11,0,0,1-1.42.46,6.8,6.8,0,0,1-1.45.17,5,5,0,0,1-3.89-1.41,6.63,6.63,0,0,1-1.3-4.56v-3.29Z"/><path class="cls-4" d="M382.17,368.64a7.1,7.1,0,0,1,.44-2.58,5.36,5.36,0,0,1,1.25-1.92,5.42,5.42,0,0,1,1.93-1.21,7.46,7.46,0,0,1,2.5-.44,7.2,7.2,0,0,1,2.59.4,5.25,5.25,0,0,1,1.93,1.2A5.07,5.07,0,0,1,394,366a7.28,7.28,0,0,1,.4,2.48A7.14,7.14,0,0,1,394,371a5.3,5.3,0,0,1-3.17,3.15,7.4,7.4,0,0,1-2.5.44,7.16,7.16,0,0,1-2.6-.4,5.26,5.26,0,0,1-1.93-1.21,5.08,5.08,0,0,1-1.19-1.91A7.29,7.29,0,0,1,382.17,368.64Zm3.09,0a4.52,4.52,0,0,0,.21,1.4,3.38,3.38,0,0,0,.6,1.12,2.65,2.65,0,0,0,.95.73,2.88,2.88,0,0,0,1.27.25,3,3,0,0,0,2.18-.88,3.75,3.75,0,0,0,.84-2.7,3.92,3.92,0,0,0-.78-2.55,2.66,2.66,0,0,0-2.24-.94,3.62,3.62,0,0,0-1.2.21,2.41,2.41,0,0,0-1,.65,3.15,3.15,0,0,0-.63,1.11A5,5,0,0,0,385.26,368.6Z"/><path class="cls-4" d="M396.11,371.65l2.86-.05v-6.44l-2.86.05v-2.53l5.19-.1,0.35,1.51h0.09a6.31,6.31,0,0,1,1.48-1.3,3.72,3.72,0,0,1,1.94-.55,2.56,2.56,0,0,1,2.18,1,5.47,5.47,0,0,1,.8,3.36l-2.7.06a2.28,2.28,0,0,0-.24-1.2,0.83,0.83,0,0,0-.77-0.36,2.33,2.33,0,0,0-1.49.49,4.81,4.81,0,0,0-1,1.08v4.9l5-.11V374c-4.35.1-6.52,0.15-10.86,0.23v-2.53Z"/><path class="cls-4" d="M410.41,371.34l4.06-.11v-6.44l-4.06.11v-2.53l7.06-.19v9l4.27-.13v2.53c-4.53.14-6.79,0.21-11.32,0.32v-2.53Zm3.51-12.19a1.67,1.67,0,0,1,.53-1.23,2.1,2.1,0,0,1,1.48-.55,2.21,2.21,0,0,1,1.55.46A1.52,1.52,0,0,1,418,359a1.54,1.54,0,0,1-.58,1.22,2.43,2.43,0,0,1-1.55.52,2.09,2.09,0,0,1-1.48-.43A1.5,1.5,0,0,1,413.91,359.15Z"/><path class="cls-4" d="M425,362.73a13,13,0,0,1,2.13-.78,12.33,12.33,0,0,1,2.87-.4,6.3,6.3,0,0,1,2,.21,3.25,3.25,0,0,1,1.36.77,3,3,0,0,1,.75,1.24,5.45,5.45,0,0,1,.23,1.65q0,1.17-.08,2t-0.08,1.47a9.77,9.77,0,0,0,0,1.08c0,0.21.05,0.42,0.07,0.62l1.5-.06v2.53l-3.87.14-0.3-1.55h-0.11a4.19,4.19,0,0,1-1.31,1.28,4.47,4.47,0,0,1-2.29.6,3.78,3.78,0,0,1-2.73-.83,3,3,0,0,1-1-2.4,3.73,3.73,0,0,1,.35-1.68,3.12,3.12,0,0,1,1-1.18,5.08,5.08,0,0,1,1.63-.72,9.64,9.64,0,0,1,2.12-.29c0.27,0,.57,0,0.87,0l1.12,0.05a2.4,2.4,0,0,0,0-.46v-0.44a1.42,1.42,0,0,0-.5-1.24,2.4,2.4,0,0,0-1.49-.33,7.07,7.07,0,0,0-2.11.37,14,14,0,0,0-1.58.65Zm3.92,8.31a2.6,2.6,0,0,0,2.44-1.35V368.3l-0.68-.08a7.89,7.89,0,0,0-1,0,4.79,4.79,0,0,0-.87.11,3,3,0,0,0-.78.28,1.58,1.58,0,0,0-.55.47,1.11,1.11,0,0,0-.2.67,1.27,1.27,0,0,0,.38,1A1.72,1.72,0,0,0,428.88,371Z"/><path class="cls-4" d="M438.73,356.84l4.91-.2v10.63a4.81,4.81,0,0,0,.44,2.44,1.47,1.47,0,0,0,1.41.63,4,4,0,0,0,1.18-.2,4.71,4.71,0,0,0,.92-0.47l1.13,2q-0.39.27-.78,0.51a5.32,5.32,0,0,1-.83.4,5.79,5.79,0,0,1-1,.27A7.69,7.69,0,0,1,445,373a4.2,4.2,0,0,1-3.25-1,4.12,4.12,0,0,1-1.08-3.08V359.3l-1.91.08v-2.53Z"/><path class="cls-4" d="M452.35,375c4.09-.19,6.14-0.29,10.23-0.51V377c-4.09.21-6.14,0.31-10.23,0.51V375Z"/><path class="cls-4" d="M464.38,355.65l4.66-.25v5.89h0.09a4.22,4.22,0,0,1,1.47-1.25,5.22,5.22,0,0,1,2.17-.56,5.32,5.32,0,0,1,1.61.14,2.84,2.84,0,0,1,1.27.68,3.31,3.31,0,0,1,.83,1.39,7.07,7.07,0,0,1,.3,2.22v7.15l-3,.18V364.7a2.72,2.72,0,0,0-.6-2,2,2,0,0,0-1.57-.53,2.75,2.75,0,0,0-1.57.61,3,3,0,0,0-1,1.38v7.34l-3,.16V358.09l-1.66.09v-2.53Z"/><path class="cls-4" d="M490.51,369a4.51,4.51,0,0,1-.77.59,8.06,8.06,0,0,1-1.11.57,9.22,9.22,0,0,1-3,.7,7.64,7.64,0,0,1-2.64-.25,4.74,4.74,0,0,1-3.2-2.92,6.88,6.88,0,0,1-.43-2.52,7,7,0,0,1,.48-2.69,5.78,5.78,0,0,1,1.32-2,6,6,0,0,1,2-1.26,7.92,7.92,0,0,1,2.44-.53,7.44,7.44,0,0,1,1.81.11,4.62,4.62,0,0,1,1.72.68,3.87,3.87,0,0,1,1.28,1.42,4.91,4.91,0,0,1,.5,2.36,11.17,11.17,0,0,1-.23,2.16l-8.29.53a2.55,2.55,0,0,0,.31,1.22,2.25,2.25,0,0,0,.76.78,3.08,3.08,0,0,0,1.08.4,5.3,5.3,0,0,0,1.3.07,7,7,0,0,0,2.27-.47,5.22,5.22,0,0,0,1.44-.88Zm-5-7.89a3.93,3.93,0,0,0-1.13.24,3.41,3.41,0,0,0-1,.54,2.87,2.87,0,0,0-.7.83,2.53,2.53,0,0,0-.32,1.07l5.67-.36A2.12,2.12,0,0,0,485.54,361.09Z"/><path class="cls-4" d="M494,353.86l4.91-.34v10.63a4.74,4.74,0,0,0,.44,2.43,1.43,1.43,0,0,0,1.4.59,4,4,0,0,0,1.17-.23,4.85,4.85,0,0,0,.92-0.49l1.13,2q-0.39.28-.78,0.53a5.49,5.49,0,0,1-.83.43,6,6,0,0,1-1,.3,7.76,7.76,0,0,1-1.16.16A4.1,4.1,0,0,1,497,369a4,4,0,0,1-1.08-3.05v-9.66l-1.91.13v-2.53Z"/><path class="cls-4" d="M505.85,357.62l3.91-.29,0.34,1.35h0.09a4.79,4.79,0,0,1,3.87-2,5.32,5.32,0,0,1,1.94.18,3.42,3.42,0,0,1,1.52.93,4.45,4.45,0,0,1,1,1.72,8.34,8.34,0,0,1,.34,2.57,8.73,8.73,0,0,1-.39,2.69,6.24,6.24,0,0,1-1.13,2.1,5.4,5.4,0,0,1-1.8,1.41,6.6,6.6,0,0,1-2.42.63,9.36,9.36,0,0,1-1.4,0,3.67,3.67,0,0,1-1.15-.25v4.71l-3,.23V360l-1.73.13v-2.53Zm7.32,1.65a3.25,3.25,0,0,0-1.6.56,2.52,2.52,0,0,0-1,1.39V366a2.28,2.28,0,0,0,.93.33,5,5,0,0,0,1.23.05,3.37,3.37,0,0,0,1.2-.31,2.74,2.74,0,0,0,1-.78,3.75,3.75,0,0,0,.64-1.27,6.17,6.17,0,0,0,.23-1.79A3.19,3.19,0,0,0,515,360,2.21,2.21,0,0,0,513.17,359.27Z"/><path class="cls-4" d="M531.95,365.8a4.65,4.65,0,0,1-.77.61,8.27,8.27,0,0,1-1.1.59,9.34,9.34,0,0,1-3,.76,7.59,7.59,0,0,1-2.64-.19,4.6,4.6,0,0,1-3.2-2.85,6.81,6.81,0,0,1-.43-2.51,7,7,0,0,1,.48-2.7,6,6,0,0,1,1.32-2,6.19,6.19,0,0,1,2-1.3,8,8,0,0,1,2.44-.59,7.4,7.4,0,0,1,1.81.08,4.52,4.52,0,0,1,1.71.65,3.75,3.75,0,0,1,1.28,1.4,4.86,4.86,0,0,1,.5,2.35,11.26,11.26,0,0,1-.23,2.16l-8.28.71a2.51,2.51,0,0,0,.31,1.22,2.18,2.18,0,0,0,.76.76,3,3,0,0,0,1.08.38,5.29,5.29,0,0,0,1.3,0,7,7,0,0,0,2.27-.52,5.36,5.36,0,0,0,1.44-.91ZM527,358a4,4,0,0,0-1.13.26,3.5,3.5,0,0,0-1,.56,3,3,0,0,0-.7.84,2.58,2.58,0,0,0-.32,1.08l5.66-.48A2.07,2.07,0,0,0,527,358Z"/><path class="cls-4" d="M534.36,364.27l2.85-.25v-6.44l-2.85.25V355.3l5.18-.47,0.34,1.49H540a7,7,0,0,1,1.47-1.4,3.93,3.93,0,0,1,1.93-.69,2.38,2.38,0,0,1,2.17.81,5.21,5.21,0,0,1,.79,3.31l-2.69.25a2.19,2.19,0,0,0-.24-1.18,0.77,0.77,0,0,0-.77-0.31,2.48,2.48,0,0,0-1.48.6,5.32,5.32,0,0,0-1,1.15v4.9l5-.46c0,1,0,1.52,0,2.53-4.33.41-6.5,0.61-10.83,1v-2.53Z"/><path class="cls-4" d="M557.72,369.47a9.85,9.85,0,0,1-3.13-.7,8,8,0,0,1-2.69-1.78A8.56,8.56,0,0,1,550,364a11.43,11.43,0,0,1-.7-4.21,12.57,12.57,0,0,1,.7-4.33,11.33,11.33,0,0,1,1.87-3.34,10.76,10.76,0,0,1,2.69-2.36,12.63,12.63,0,0,1,3.13-1.39l0.55,2.41a10.66,10.66,0,0,0-1.83.84,7.69,7.69,0,0,0-1.94,1.6A8.8,8.8,0,0,0,553,355.8a9.82,9.82,0,0,0-.63,3.74A8.06,8.06,0,0,0,553,363a6.87,6.87,0,0,0,1.62,2.22,6.25,6.25,0,0,0,2,1.21,7.23,7.23,0,0,0,1.7.44Z"/><path class="cls-4" d="M566.5,361.37a5.35,5.35,0,0,0,1.4-.33,4,4,0,0,0,1.11-.65,2.86,2.86,0,0,0,.73-0.93,2.61,2.61,0,0,0,.26-1.18,2.06,2.06,0,0,0-1-1.88,4.81,4.81,0,0,0-3-.41l-0.59.07-0.63.1-0.71.1v-8.42l8.32-.88v2.81l-5.74.61v3.1l0.37-.06,0.31,0,0.26,0a6.45,6.45,0,0,1,2.14.11,4.25,4.25,0,0,1,1.72.82,3.9,3.9,0,0,1,1.14,1.5,5.07,5.07,0,0,1,.4,2.06,5.67,5.67,0,0,1-.51,2.43,5.78,5.78,0,0,1-1.38,1.86,7.09,7.09,0,0,1-2,1.26,8.73,8.73,0,0,1-2.46.62,6.07,6.07,0,0,1-1.08,0q-0.57,0-1.13-.14a9.12,9.12,0,0,1-1-.23,8.31,8.31,0,0,1-.79-0.26l1-2.49a6.16,6.16,0,0,0,1.21.38A5.12,5.12,0,0,0,566.5,361.37Z"/><path class="cls-4" d="M580.28,359.87a5.36,5.36,0,0,0,1.4-.34,4,4,0,0,0,1.11-.66,2.89,2.89,0,0,0,.73-0.93,2.63,2.63,0,0,0,.26-1.18,2,2,0,0,0-1-1.88,4.8,4.8,0,0,0-3-.39l-0.58.08-0.63.1-0.71.1c0-3.37,0-5.05,0-8.42l8.31-.94v2.81l-5.74.65V352l0.37-.06,0.31,0,0.26,0a6.43,6.43,0,0,1,2.14.09,4.21,4.21,0,0,1,1.72.8,3.86,3.86,0,0,1,1.14,1.49,5.05,5.05,0,0,1,.4,2.06,5.7,5.7,0,0,1-.5,2.44,5.83,5.83,0,0,1-1.38,1.87,7.15,7.15,0,0,1-2,1.28,8.77,8.77,0,0,1-2.46.63,6.06,6.06,0,0,1-1.08,0q-0.57,0-1.13-.13a9.07,9.07,0,0,1-1-.22,8.31,8.31,0,0,1-.79-0.26l1-2.5a6.06,6.06,0,0,0,1.21.37A5.1,5.1,0,0,0,580.28,359.87Z"/><path class="cls-4" d="M601.86,355.16l-2.75.34V360l-2.78.34c0-1.79,0-2.69,0-4.49l-7,.83v-2l7.27-10.55,2.46-.3v9.34l2.75-.34v2.39Zm-5.53-6.82-4,5.58,4-.48C596.33,351.4,596.33,350.38,596.33,348.34Z"/><path class="cls-4" d="M615.62,353.42l-2.75.36v4.49l-2.77.36v-4.49l-6.95.87v-2l7.27-10.6,2.45-.32v9.34l2.75-.36v2.39Zm-5.53-6.78-4,5.61,4-.51v-5.11Z"/><path class="cls-4" d="M617,349.65a14.46,14.46,0,0,1,.44-3.73,8.78,8.78,0,0,1,1.23-2.77,6.2,6.2,0,0,1,1.9-1.8,6.36,6.36,0,0,1,2.46-.85,4.67,4.67,0,0,1,4.46,1.43q1.56,1.82,1.56,6.1a14.56,14.56,0,0,1-.44,3.75,9,9,0,0,1-1.23,2.79,6.14,6.14,0,0,1-1.91,1.82,6.42,6.42,0,0,1-2.47.85,4.52,4.52,0,0,1-4.46-1.56Q617,353.74,617,349.65Zm3-.39c0,0.23,0,.45,0,0.65s0,0.42,0,.63l5.55-5.87A2.19,2.19,0,0,0,623,343a2.9,2.9,0,0,0-2.24,1.71A10.13,10.13,0,0,0,620,349.25Zm6.1-.82q0-.37,0-0.7c0-.22,0-0.44,0-0.65L620.48,353a2.23,2.23,0,0,0,2.57,1.75,2.93,2.93,0,0,0,2.25-1.71A10.16,10.16,0,0,0,626.09,348.43Z"/><path class="cls-4" d="M634.89,353.82a1.82,1.82,0,0,1,.52-1.31,2.17,2.17,0,0,1,1.29-.64,2,2,0,0,1,1.9.56,2.88,2.88,0,0,1,.64,2,4.76,4.76,0,0,1-.4,1.94,6.05,6.05,0,0,1-1,1.62,6.9,6.9,0,0,1-1.43,1.22,6.71,6.71,0,0,1-1.57.75l-0.62-1.18a7.7,7.7,0,0,0,1.11-.55,5.48,5.48,0,0,0,1-.78,4.38,4.38,0,0,0,.77-1,2.76,2.76,0,0,0,.35-1.15,3,3,0,0,1-1.17.2,1.53,1.53,0,0,1-.79-0.26,1.24,1.24,0,0,1-.45-0.58A2.2,2.2,0,0,1,634.89,353.82Z"/><path class="cls-4" d="M656.13,347.2a5.62,5.62,0,0,1-.42,2.16,6.47,6.47,0,0,1-1.16,1.85,6.63,6.63,0,0,1-1.75,1.39,6.4,6.4,0,0,1-2.19.74,6.18,6.18,0,0,1-2.23,0,4.19,4.19,0,0,1-1.82-.87,4.43,4.43,0,0,1-1.24-1.73,6.66,6.66,0,0,1-.46-2.6,11.39,11.39,0,0,1,.79-4.25,13.87,13.87,0,0,1,2-3.53,13.15,13.15,0,0,1,2.77-2.62,10.87,10.87,0,0,1,3-1.52l0.66,2.27a10.36,10.36,0,0,0-2.27,1.09,10.23,10.23,0,0,0-1.88,1.53,9.4,9.4,0,0,0-1.38,1.84,6.69,6.69,0,0,0-.77,2,4.36,4.36,0,0,1,1.37-1.18,5.54,5.54,0,0,1,2-.7,5.24,5.24,0,0,1,1.92,0,3.53,3.53,0,0,1,2.57,2.13A5,5,0,0,1,656.13,347.2Zm-2.88.55a2,2,0,0,0-.74-1.77,2.67,2.67,0,0,0-2-.35,3.75,3.75,0,0,0-1.65.66,3.62,3.62,0,0,0-1.08,1.12,4.1,4.1,0,0,0-.06.57q0,0.31,0,.5a2.87,2.87,0,0,0,.18,1,2,2,0,0,0,1.4,1.28,2.75,2.75,0,0,0,1.17,0,3.15,3.15,0,0,0,1-.35,3.57,3.57,0,0,0,.89-0.67,3.27,3.27,0,0,0,.63-0.93A2.72,2.72,0,0,0,653.24,347.75Z"/><path class="cls-4" d="M660.11,353.95a9.23,9.23,0,0,0,1.69-.87,8.94,8.94,0,0,0,2-1.71,9.75,9.75,0,0,0,1.61-2.63,9.3,9.3,0,0,0,.66-3.67,8.68,8.68,0,0,0-.63-3.58,6.23,6.23,0,0,0-1.54-2.16,5.4,5.4,0,0,0-1.93-1.1,8.46,8.46,0,0,0-1.82-.38l0.55-2.55a10.08,10.08,0,0,1,3.11.6,7.47,7.47,0,0,1,2.67,1.68,8.12,8.12,0,0,1,1.86,2.87,11.17,11.17,0,0,1,.7,4.16,13,13,0,0,1-.7,4.39,11.93,11.93,0,0,1-1.86,3.42,11.42,11.42,0,0,1-2.67,2.47,12.35,12.35,0,0,1-3.11,1.49Z"/><path class="cls-4" d="M51.08,451.21v-2.53l2.7,0.43v-6.44l-2.72-.43V439.7l2.72,0.43v-0.64a3.87,3.87,0,0,1,.38-1.8,3,3,0,0,1,1-1.13,3.43,3.43,0,0,1,1.43-.53,5.73,5.73,0,0,1,1.68,0,11.56,11.56,0,0,1,2.6.66,7.88,7.88,0,0,1,1.68.91l-0.87,2.14a12.26,12.26,0,0,0-1.13-.63,5.46,5.46,0,0,0-1.57-.45,2,2,0,0,0-1.73.3,2.21,2.21,0,0,0-.49,1.61l4.8,0.74v2.53l-4.8-.74v6.44l4.83,0.74v2.53C57.37,452.2,55.27,451.87,51.08,451.21Z"/><path class="cls-4" d="M65.23,442.68a11.16,11.16,0,0,1,2.12-.39,11.8,11.8,0,0,1,2.85.13,6.89,6.89,0,0,1,2,.59,4.14,4.14,0,0,1,1.35,1,3.75,3.75,0,0,1,.74,1.37,5.93,5.93,0,0,1,.23,1.69q0,1.17-.08,2t-0.08,1.46a10.08,10.08,0,0,0,0,1.09c0,0.21.05,0.43,0.07,0.63L76,452.46V455l-3.84-.56-0.3-1.61-0.11,0a3.19,3.19,0,0,1-1.3,1,4,4,0,0,1-2.27.18,4.47,4.47,0,0,1-2.71-1.33,3.65,3.65,0,0,1-1-2.59,3.35,3.35,0,0,1,.35-1.61,2.38,2.38,0,0,1,1-1,4.24,4.24,0,0,1,1.61-.42,9.26,9.26,0,0,1,2.1.1q0.41,0.06.86,0.17l1.11,0.26a2.27,2.27,0,0,0,0-.45v-0.44a1.7,1.7,0,0,0-.5-1.33,2.76,2.76,0,0,0-1.48-.6,6.63,6.63,0,0,0-2.09,0,11.79,11.79,0,0,0-1.57.36Zm3.89,9a2.52,2.52,0,0,0,1.63-.16,2.17,2.17,0,0,0,.79-0.75v-1.38l-0.68-.2a8.27,8.27,0,0,0-1-.2,4.65,4.65,0,0,0-.86,0,2.57,2.57,0,0,0-.77.14,1.22,1.22,0,0,0-.54.37,1,1,0,0,0-.2.64,1.51,1.51,0,0,0,.37,1.06A2,2,0,0,0,69.13,451.7Z"/><path class="cls-4" d="M89.41,455.79a5.66,5.66,0,0,1-2.2.76,9.33,9.33,0,0,1-2.63,0,8.17,8.17,0,0,1-2.65-.81A6.56,6.56,0,0,1,80,454.22a6.29,6.29,0,0,1-1.2-2.09,7.69,7.69,0,0,1-.41-2.54,6,6,0,0,1,.48-2.51,4.43,4.43,0,0,1,1.34-1.72,4.86,4.86,0,0,1,2-.9,7.52,7.52,0,0,1,2.54,0,10.14,10.14,0,0,1,2.41.64,13,13,0,0,1,1.72.81v4l-2.52-.35v-2.12a6.93,6.93,0,0,0-1.42-.36,4.15,4.15,0,0,0-1.27,0,2.58,2.58,0,0,0-1.92,1.42,3.26,3.26,0,0,0-.31,1.5,3.85,3.85,0,0,0,.25,1.39,3.85,3.85,0,0,0,1.84,2.07A4.48,4.48,0,0,0,85,454a5.09,5.09,0,0,0,2.14-.07,7.32,7.32,0,0,0,1.25-.47Z"/><path class="cls-4" d="M93.3,448.46L91,448.15v-2.53l2.27,0.31V443.3l3-.45v3.47l6,0.8v2.53l-6-.8v3.29a4.39,4.39,0,0,0,.66,2.65,2.66,2.66,0,0,0,1.86,1,3.83,3.83,0,0,0,1.12,0,3.74,3.74,0,0,0,.91-0.26,4.31,4.31,0,0,0,.73-0.41l0.61-.43,1.38,2.25a3.66,3.66,0,0,1-1,.71,7.11,7.11,0,0,1-1.26.5,7.24,7.24,0,0,1-1.41.26,6.58,6.58,0,0,1-1.44,0,5.68,5.68,0,0,1-3.86-2,7.45,7.45,0,0,1-1.29-4.74v-3.29Z"/><path class="cls-4" d="M105.2,453.26a6.66,6.66,0,0,1,.44-2.52,4.43,4.43,0,0,1,1.24-1.75,4.5,4.5,0,0,1,1.91-.94,7,7,0,0,1,2.49-.08,7.79,7.79,0,0,1,2.58.76,6.34,6.34,0,0,1,1.92,1.47,6.07,6.07,0,0,1,1.18,2.07,7.8,7.8,0,0,1,.4,2.53,6.68,6.68,0,0,1-.44,2.52,4.46,4.46,0,0,1-1.24,1.76,4.51,4.51,0,0,1-1.92.94,7,7,0,0,1-2.49.09,7.75,7.75,0,0,1-2.58-.77,6.34,6.34,0,0,1-1.91-1.48,6.11,6.11,0,0,1-1.18-2.07A7.82,7.82,0,0,1,105.2,453.26Zm3.07,0.4a4.84,4.84,0,0,0,.21,1.43,4,4,0,0,0,.6,1.2,3.25,3.25,0,0,0,.94.87,3.16,3.16,0,0,0,1.26.43,2.61,2.61,0,0,0,2.17-.58,3.34,3.34,0,0,0,.84-2.59,4.42,4.42,0,0,0-.78-2.66,3.1,3.1,0,0,0-2.22-1.26,3.42,3.42,0,0,0-1.19,0,2,2,0,0,0-1,.51,2.61,2.61,0,0,0-.63,1A4.7,4.7,0,0,0,108.27,453.66Z"/><path class="cls-4" d="M119,458.23l2.84,0.35v-6.44l-2.84-.35v-2.53l5.16,0.63,0.34,1.56h0.09a5.11,5.11,0,0,1,1.47-1.09,3.38,3.38,0,0,1,1.93-.28,3,3,0,0,1,2.17,1.27,6,6,0,0,1,.79,3.47l-2.69-.32a2.49,2.49,0,0,0-.24-1.24,1,1,0,0,0-.77-0.47,2.08,2.08,0,0,0-1.48.28,3.89,3.89,0,0,0-1,.94v4.9l5,0.59v2.53c-4.32-.51-6.49-0.77-10.81-1.3v-2.53Z"/><path class="cls-4" d="M133.28,459.93l4,0.46V454l-4-.46V451l7,0.8v9l4.25,0.47v2.53c-4.51-.5-6.77-0.75-11.27-1.27v-2.53Zm3.49-11.7a1.44,1.44,0,0,1,.53-1.16,1.86,1.86,0,0,1,1.47-.34,2.5,2.5,0,0,1,1.54.68,1.77,1.77,0,0,1,.57,1.28,1.32,1.32,0,0,1-.57,1.14,2.17,2.17,0,0,1-1.54.3,2.37,2.37,0,0,1-1.47-.64A1.73,1.73,0,0,1,136.77,448.23Z"/><path class="cls-4" d="M147.77,453.36a11.54,11.54,0,0,1,2.12-.48,11.89,11.89,0,0,1,2.86,0,6.72,6.72,0,0,1,2,.5,3.91,3.91,0,0,1,1.36,1,3.55,3.55,0,0,1,.75,1.34,5.8,5.8,0,0,1,.23,1.68q0,1.17-.08,2T157,460.82a10,10,0,0,0,0,1.09c0,0.21.05,0.43,0.07,0.63l1.49,0.15v2.53l-3.86-.4-0.3-1.6h-0.11a3.4,3.4,0,0,1-1.3,1.09,4.1,4.1,0,0,1-2.28.28,4.29,4.29,0,0,1-2.72-1.21,3.5,3.5,0,0,1-1-2.55,3.43,3.43,0,0,1,.35-1.63,2.54,2.54,0,0,1,1-1,4.42,4.42,0,0,1,1.62-.49,9.32,9.32,0,0,1,2.11,0q0.41,0,.87.14l1.12,0.21a2.3,2.3,0,0,0,0-.46v-0.44a1.63,1.63,0,0,0-.5-1.31,2.66,2.66,0,0,0-1.48-.54,6.71,6.71,0,0,0-2.1.08,12.2,12.2,0,0,0-1.57.43Zm3.91,8.86a2.58,2.58,0,0,0,1.64-.23,2.31,2.31,0,0,0,.79-0.78v-1.38l-0.68-.18a8.14,8.14,0,0,0-1-.16,4.64,4.64,0,0,0-.86,0,2.67,2.67,0,0,0-.77.17,1.29,1.29,0,0,0-.55.39,1,1,0,0,0-.2.65,1.45,1.45,0,0,0,.37,1A1.94,1.94,0,0,0,151.68,462.22Z"/><path class="cls-4" d="M161.48,449.41l4.9,0.49v10.63a5.2,5.2,0,0,0,.44,2.5,1.72,1.72,0,0,0,1.4.83,3.76,3.76,0,0,0,1.17,0,4,4,0,0,0,.92-0.34l1.13,2.18q-0.39.22-.78,0.4a4.59,4.59,0,0,1-.83.29,5.33,5.33,0,0,1-1,.14,7.52,7.52,0,0,1-1.16,0,4.78,4.78,0,0,1-3.24-1.42,4.68,4.68,0,0,1-1.08-3.24v-9.66l-1.91-.19v-2.53Z"/><path class="cls-4" d="M183.74,472.51a11.6,11.6,0,0,1-3.13-1.29,10.44,10.44,0,0,1-2.69-2.29,11,11,0,0,1-1.87-3.3,12.53,12.53,0,0,1-.7-4.34,11.46,11.46,0,0,1,.7-4.2,8.84,8.84,0,0,1,1.87-3,8.2,8.2,0,0,1,2.69-1.85,10.61,10.61,0,0,1,3.13-.8l0.55,2.51a8.9,8.9,0,0,0-1.83.49,5.88,5.88,0,0,0-1.94,1.23,6.79,6.79,0,0,0-1.55,2.26,9.26,9.26,0,0,0,1.66,9.78,8.16,8.16,0,0,0,2,1.58,8.65,8.65,0,0,0,1.7.76Z"/><path class="cls-4" d="M189.51,465.61l3.52,0.3V455.86l-3,2.06-1.38-2,5.25-3.55,2,0.17v13.57l3.45,0.28V469l-9.83-.83v-2.53Z"/><path class="cls-4" d="M203.32,466.76l3.52,0.28V457l-3,2.08-1.38-1.95,5.25-3.59,2,0.16v13.57l3.45,0.26V470l-9.83-.76v-2.53Z"/><path class="cls-4" d="M217.45,472.73a7.42,7.42,0,0,0,1.7-.49,6.52,6.52,0,0,0,2-1.26,7.16,7.16,0,0,0,1.62-2.27,8.17,8.17,0,0,0,.67-3.52,9.68,9.68,0,0,0-.63-3.72,8.48,8.48,0,0,0-1.55-2.51,7.41,7.41,0,0,0-1.95-1.54,10.37,10.37,0,0,0-1.83-.79l0.55-2.42a12.28,12.28,0,0,1,3.13,1.3,10.34,10.34,0,0,1,2.69,2.28,10.93,10.93,0,0,1,1.88,3.29,12.39,12.39,0,0,1,.7,4.31,11.58,11.58,0,0,1-.7,4.23,8.9,8.9,0,0,1-1.88,3,8.28,8.28,0,0,1-2.69,1.86,10.06,10.06,0,0,1-3.13.79Z"/><path class="cls-4" d="M369.1,475.5V473h2.72v-6.44h-2.74V464h2.74v-0.64a4.24,4.24,0,0,1,.38-1.87,3.78,3.78,0,0,1,1-1.29,4.14,4.14,0,0,1,1.44-.76,6,6,0,0,1,1.7-.25,10.78,10.78,0,0,1,2.62.24,6.66,6.66,0,0,1,1.7.64l-0.88,2.29a10.33,10.33,0,0,0-1.14-.45,5,5,0,0,0-1.58-.19,2.26,2.26,0,0,0-1.74.58,2.51,2.51,0,0,0-.5,1.69l4.84,0v2.53l-4.84,0v6.44l4.87,0v2.53C375.46,475.46,373.34,475.48,369.1,475.5Z"/><path class="cls-4" d="M383.38,464.66a12.75,12.75,0,0,1,2.13-.74,12.23,12.23,0,0,1,2.87-.34,6.35,6.35,0,0,1,2,.26,3.34,3.34,0,0,1,1.36.79,3,3,0,0,1,.75,1.25,5.5,5.5,0,0,1,.23,1.65q0,1.17-.08,2T392.61,471a9.86,9.86,0,0,0,0,1.08c0,0.21.05,0.42,0.07,0.62l1.5,0v2.53l-3.87.06-0.3-1.56h-0.11a4.06,4.06,0,0,1-1.31,1.25,4.41,4.41,0,0,1-2.29.55,3.85,3.85,0,0,1-2.73-.89,3.11,3.11,0,0,1-1-2.43,3.69,3.69,0,0,1,.35-1.67,3,3,0,0,1,1-1.16,5,5,0,0,1,1.63-.69,9.57,9.57,0,0,1,2.12-.25c0.27,0,.56,0,0.87,0l1.12,0.08a2.38,2.38,0,0,0,0-.46v-0.44a1.45,1.45,0,0,0-.5-1.25,2.43,2.43,0,0,0-1.49-.36,7,7,0,0,0-2.11.33,13.7,13.7,0,0,0-1.58.62Zm3.93,8.39a2.53,2.53,0,0,0,2.44-1.3v-1.38l-0.68-.09a7.91,7.91,0,0,0-1,0,4.79,4.79,0,0,0-.87.09,2.91,2.91,0,0,0-.78.26,1.53,1.53,0,0,0-.55.46,1.09,1.09,0,0,0-.2.67,1.29,1.29,0,0,0,.38,1A1.75,1.75,0,0,0,387.31,473.05Z"/><path class="cls-4" d="M407.74,473.84a6.8,6.8,0,0,1-2.21,1.12,9.81,9.81,0,0,1-2.65.42,7.46,7.46,0,0,1-2.66-.38,5.28,5.28,0,0,1-2-1.19,5.09,5.09,0,0,1-1.21-1.9,7.07,7.07,0,0,1-.42-2.48,6.53,6.53,0,0,1,.48-2.59,5.58,5.58,0,0,1,1.35-1.94,6,6,0,0,1,2-1.23,8,8,0,0,1,2.56-.46,9.42,9.42,0,0,1,2.42.24,11.12,11.12,0,0,1,1.73.53v4l-2.54.06V466a6.46,6.46,0,0,0-1.43-.13,4.38,4.38,0,0,0-1.28.22,3.21,3.21,0,0,0-1.13.64,3.36,3.36,0,0,0-.81,1.09,3.56,3.56,0,0,0-.31,1.55,3.51,3.51,0,0,0,.25,1.35,3.07,3.07,0,0,0,1.86,1.77,4.08,4.08,0,0,0,1.51.23,5.46,5.46,0,0,0,2.16-.42,9,9,0,0,0,1.26-.67Z"/><path class="cls-4" d="M411.67,465.87l-2.28.06V463.4l2.28-.06v-2.62l3-.93v3.47l6-.18v2.53l-6,.18v3.29a3.88,3.88,0,0,0,.67,2.55,2.24,2.24,0,0,0,1.87.74,4,4,0,0,0,1.13-.18,4.42,4.42,0,0,0,.91-0.41,5.45,5.45,0,0,0,.74-0.53l0.61-.52,1.38,2a4.66,4.66,0,0,1-1,.87,8.67,8.67,0,0,1-1.27.71,8.25,8.25,0,0,1-1.42.49,6.84,6.84,0,0,1-1.45.2,4.85,4.85,0,0,1-3.89-1.33q-1.3-1.4-1.3-4.53v-3.29Z"/><path class="cls-4" d="M423.63,468.74a7.18,7.18,0,0,1,.44-2.59,5.44,5.44,0,0,1,3.17-3.2,7.53,7.53,0,0,1,2.5-.49,7.13,7.13,0,0,1,2.59.34,5.1,5.1,0,0,1,1.93,1.16,4.92,4.92,0,0,1,1.19,1.87,7.82,7.82,0,0,1,0,5.06,5.46,5.46,0,0,1-3.17,3.21,7.47,7.47,0,0,1-2.5.49,7.09,7.09,0,0,1-2.59-.35,5.11,5.11,0,0,1-1.93-1.17,4.94,4.94,0,0,1-1.19-1.88A7.21,7.21,0,0,1,423.63,468.74Zm3.09-.1a4.48,4.48,0,0,0,.21,1.4,3.29,3.29,0,0,0,.6,1.11,2.57,2.57,0,0,0,.94.71,2.85,2.85,0,0,0,1.27.22,3,3,0,0,0,2.18-.93,4.66,4.66,0,0,0,.06-5.26,2.61,2.61,0,0,0-2.24-.9,3.66,3.66,0,0,0-1.2.24,2.48,2.48,0,0,0-1,.67A3.23,3.23,0,0,0,427,467,5,5,0,0,0,426.72,468.64Z"/><path class="cls-4" d="M437.56,471.46l2.86-.11v-6.44l-2.86.11v-2.53l5.19-.21,0.35,1.5h0.09a6.5,6.5,0,0,1,1.48-1.33,3.78,3.78,0,0,1,1.94-.59,2.51,2.51,0,0,1,2.18.91,5.39,5.39,0,0,1,.79,3.34l-2.7.12a2.25,2.25,0,0,0-.24-1.2,0.81,0.81,0,0,0-.77-0.35,2.37,2.37,0,0,0-1.49.52,5,5,0,0,0-1,1.1v4.9l5-.22v2.53c-4.34.19-6.52,0.29-10.86,0.46v-2.53Z"/><path class="cls-4" d="M451.86,470.85l4.06-.19v-6.44l-4.06.19v-2.53l7.05-.34v9l4.26-.22v2.53c-4.53.24-6.79,0.35-11.32,0.56v-2.53Zm3.5-12.26a1.71,1.71,0,0,1,.53-1.24,2.14,2.14,0,0,1,1.48-.58,2.17,2.17,0,0,1,1.54.43,1.49,1.49,0,0,1,.58,1.19,1.57,1.57,0,0,1-.58,1.24,2.47,2.47,0,0,1-1.54.55,2.06,2.06,0,0,1-1.47-.4A1.47,1.47,0,0,1,455.36,458.58Z"/><path class="cls-4" d="M466.4,461.93a13.28,13.28,0,0,1,2.13-.83,12.43,12.43,0,0,1,2.87-.46,6.25,6.25,0,0,1,2,.17,3.16,3.16,0,0,1,1.36.74,2.87,2.87,0,0,1,.75,1.22,5.41,5.41,0,0,1,.23,1.64q0,1.17-.08,2t-0.08,1.48a9.75,9.75,0,0,0,0,1.08c0,0.21.05,0.42,0.07,0.62l1.5-.09V472l-3.87.23-0.3-1.55h-0.11a4.31,4.31,0,0,1-1.31,1.3,4.54,4.54,0,0,1-2.29.65,3.71,3.71,0,0,1-2.72-.77,3,3,0,0,1-1-2.38,3.78,3.78,0,0,1,.35-1.69,3.22,3.22,0,0,1,1-1.21,5.2,5.2,0,0,1,1.63-.76,9.74,9.74,0,0,1,2.12-.34c0.27,0,.56,0,0.87,0l1.12,0a2.41,2.41,0,0,0,0-.46v-0.44a1.39,1.39,0,0,0-.5-1.23,2.36,2.36,0,0,0-1.49-.29,7.14,7.14,0,0,0-2.1.42,14.34,14.34,0,0,0-1.58.68Zm3.92,8.23a2.88,2.88,0,0,0,1.64-.49,3,3,0,0,0,.8-0.91v-1.38l-0.68-.06a7.92,7.92,0,0,0-1,0,4.85,4.85,0,0,0-.87.13,3,3,0,0,0-.77.3,1.63,1.63,0,0,0-.55.48,1.13,1.13,0,0,0-.2.68,1.24,1.24,0,0,0,.38,1A1.7,1.7,0,0,0,470.32,470.16Z"/><path class="cls-4" d="M480.16,455.76l4.91-.31v10.63a4.76,4.76,0,0,0,.44,2.43,1.44,1.44,0,0,0,1.41.6,4,4,0,0,0,1.17-.23,4.82,4.82,0,0,0,.92-0.49l1.13,2q-0.39.28-.78,0.52a5.48,5.48,0,0,1-.83.42,5.91,5.91,0,0,1-1,.29,7.73,7.73,0,0,1-1.16.16,4.13,4.13,0,0,1-3.25-.9,4,4,0,0,1-1.08-3.06v-9.66l-1.91.12v-2.53Z"/><path class="cls-4" d="M493.77,473.67c4.09-.28,6.14-0.42,10.22-0.72v2.46c-4.09.3-6.13,0.44-10.22,0.72C493.77,475.15,493.77,474.66,493.77,473.67Z"/><path class="cls-4" d="M505.79,454l4.65-.35v5.89h0.09a4.35,4.35,0,0,1,1.47-1.29,5.76,5.76,0,0,1,3.78-.5,2.76,2.76,0,0,1,1.27.66,3.22,3.22,0,0,1,.83,1.37,7,7,0,0,1,.3,2.22v7.15l-3,.24v-6.53a2.67,2.67,0,0,0-.6-2,1.94,1.94,0,0,0-1.57-.5,2.81,2.81,0,0,0-1.56.64,3.13,3.13,0,0,0-1,1.4v7.34l-3,.23V456.43l-1.66.12V454Z"/><path class="cls-4" d="M531.89,466.8a4.63,4.63,0,0,1-.77.61,8.25,8.25,0,0,1-1.1.59,9.34,9.34,0,0,1-3,.76,7.59,7.59,0,0,1-2.64-.19,4.6,4.6,0,0,1-3.2-2.85,6.81,6.81,0,0,1-.43-2.51,7,7,0,0,1,.48-2.7,6,6,0,0,1,1.32-2,6.19,6.19,0,0,1,2-1.3,8,8,0,0,1,2.44-.59,7.38,7.38,0,0,1,1.81.08,4.52,4.52,0,0,1,1.71.65,3.75,3.75,0,0,1,1.28,1.4,4.86,4.86,0,0,1,.5,2.35,11.25,11.25,0,0,1-.23,2.16l-8.28.71a2.51,2.51,0,0,0,.31,1.22,2.18,2.18,0,0,0,.76.76,3,3,0,0,0,1.08.38,5.3,5.3,0,0,0,1.3,0,7,7,0,0,0,2.27-.52,5.36,5.36,0,0,0,1.44-.91Zm-5-7.78a4,4,0,0,0-1.13.26,3.49,3.49,0,0,0-1,.56,3,3,0,0,0-.7.84,2.58,2.58,0,0,0-.32,1.08l5.66-.48A2.07,2.07,0,0,0,526.92,459Z"/><path class="cls-4" d="M535.41,451.61l4.9-.44v10.63a4.69,4.69,0,0,0,.44,2.42,1.4,1.4,0,0,0,1.4.56,4,4,0,0,0,1.17-.26,5,5,0,0,0,.92-0.51l1.13,2q-0.39.29-.78,0.55a5.66,5.66,0,0,1-.83.45,6,6,0,0,1-1,.32,7.84,7.84,0,0,1-1.16.19,4,4,0,0,1-3.24-.81,3.94,3.94,0,0,1-1.08-3V454l-1.91.17v-2.53Z"/><path class="cls-4" d="M547.21,455.12l3.91-.38,0.34,1.35h0.09a4.9,4.9,0,0,1,3.86-2.08,5.28,5.28,0,0,1,1.94.14,3.32,3.32,0,0,1,1.52.89,4.34,4.34,0,0,1,1,1.69,8.28,8.28,0,0,1,.34,2.56,8.82,8.82,0,0,1-.39,2.7,6.4,6.4,0,0,1-1.13,2.13,5.56,5.56,0,0,1-1.79,1.45,6.68,6.68,0,0,1-2.41.68,9.42,9.42,0,0,1-1.4,0,3.61,3.61,0,0,1-1.15-.22v4.71l-3,.29V457.49l-1.72.17v-2.53Zm7.31,1.5a3.3,3.3,0,0,0-1.6.59,2.59,2.59,0,0,0-1,1.41v4.78a2.22,2.22,0,0,0,.93.31,5,5,0,0,0,1.23,0,3.41,3.41,0,0,0,1.2-.34,2.82,2.82,0,0,0,1-.8,3.85,3.85,0,0,0,.64-1.28,6.22,6.22,0,0,0,.23-1.79,3.13,3.13,0,0,0-.74-2.27A2.17,2.17,0,0,0,554.52,456.62Z"/><path class="cls-4" d="M573.27,462.75a4.79,4.79,0,0,1-.77.62,8.46,8.46,0,0,1-1.1.61,9.45,9.45,0,0,1-3,.83,7.53,7.53,0,0,1-2.63-.14,4.46,4.46,0,0,1-3.19-2.79,6.75,6.75,0,0,1-.42-2.5,7.14,7.14,0,0,1,.48-2.71,6.13,6.13,0,0,1,1.32-2,6.36,6.36,0,0,1,2-1.34,8.11,8.11,0,0,1,2.44-.64,7.36,7.36,0,0,1,1.8,0,4.41,4.41,0,0,1,1.71.61,3.64,3.64,0,0,1,1.27,1.37,4.8,4.8,0,0,1,.49,2.34,11.35,11.35,0,0,1-.23,2.16l-8.27.88a2.47,2.47,0,0,0,.31,1.21,2.11,2.11,0,0,0,.76.75,3,3,0,0,0,1.08.36,5.27,5.27,0,0,0,1.3,0,7.12,7.12,0,0,0,2.26-.56,5.51,5.51,0,0,0,1.44-.94Zm-5-7.68a4,4,0,0,0-1.13.28,3.59,3.59,0,0,0-1,.58,3,3,0,0,0-.7.86,2.62,2.62,0,0,0-.32,1.09l5.65-.6A2,2,0,0,0,568.31,455.07Z"/><path class="cls-4" d="M575.68,461.17l2.85-.31v-6.44l-2.85.31V452.2l5.17-.57,0.34,1.48h0.09a7.2,7.2,0,0,1,1.47-1.43,4,4,0,0,1,1.93-.73,2.33,2.33,0,0,1,2.17.76,5.15,5.15,0,0,1,.79,3.29l-2.69.31a2.16,2.16,0,0,0-.24-1.18,0.75,0.75,0,0,0-.77-0.29,2.53,2.53,0,0,0-1.48.63,5.5,5.5,0,0,0-1,1.17v4.9l5-.57v2.53c-4.32.5-6.49,0.74-10.81,1.22C575.68,462.69,575.68,462.19,575.68,461.17Z"/><path class="cls-4" d="M599,465.88a9.68,9.68,0,0,1-3.12-.63,7.71,7.71,0,0,1-2.68-1.73,8.32,8.32,0,0,1-1.87-2.91,11.33,11.33,0,0,1-.7-4.2,12.71,12.71,0,0,1,.7-4.35,11.64,11.64,0,0,1,1.87-3.38,11.08,11.08,0,0,1,2.68-2.41,12.89,12.89,0,0,1,3.12-1.46l0.55,2.39a10.86,10.86,0,0,0-1.82.88,7.93,7.93,0,0,0-1.94,1.64,9,9,0,0,0-1.55,2.59,9.94,9.94,0,0,0-.63,3.75,8,8,0,0,0,.67,3.49,6.67,6.67,0,0,0,1.62,2.19,6.06,6.06,0,0,0,2,1.17,7.11,7.11,0,0,0,1.7.4Z"/><path class="cls-4" d="M604.76,457.76l3.51-.44V447.27l-3,2.7-1.38-1.67,5.23-4.66,2-.26V457l3.44-.44V459l-9.79,1.25v-2.53Z"/><path class="cls-4" d="M621.08,456.71a1.81,1.81,0,0,1,.52-1.31,2.15,2.15,0,0,1,1.29-.63,2,2,0,0,1,1.9.57,2.89,2.89,0,0,1,.64,2,4.73,4.73,0,0,1-.4,1.94,6,6,0,0,1-1,1.61,6.82,6.82,0,0,1-1.43,1.21,6.64,6.64,0,0,1-1.57.74l-0.62-1.18a7.62,7.62,0,0,0,1.11-.54,5.41,5.41,0,0,0,1-.77,4.34,4.34,0,0,0,.77-1,2.74,2.74,0,0,0,.36-1.15,3,3,0,0,1-1.17.19,1.54,1.54,0,0,1-.79-0.26,1.25,1.25,0,0,1-.45-0.58A2.21,2.21,0,0,1,621.08,456.71Z"/><path class="cls-4" d="M632.27,454.13l3.5-.49V443.59l-3,2.75-1.37-1.65,5.22-4.73,2-.29v13.57l3.43-.49v2.53l-9.78,1.39v-2.53Z"/><path class="cls-4" d="M646,452.17l3.5-.52V441.6l-3,2.77-1.37-1.64,5.22-4.77,2-.3v13.57l3.43-.52v2.53L646,454.7v-2.53Z"/><path class="cls-4" d="M660.05,455a9.23,9.23,0,0,0,1.69-.87,8.93,8.93,0,0,0,2-1.71,9.74,9.74,0,0,0,1.61-2.63,9.3,9.3,0,0,0,.66-3.67,8.67,8.67,0,0,0-.63-3.58,6.23,6.23,0,0,0-1.54-2.16,5.4,5.4,0,0,0-1.93-1.1,8.44,8.44,0,0,0-1.82-.38l0.55-2.55a10.08,10.08,0,0,1,3.11.6,7.47,7.47,0,0,1,2.67,1.68,8.12,8.12,0,0,1,1.86,2.87,11.17,11.17,0,0,1,.7,4.16,13,13,0,0,1-.7,4.39,11.93,11.93,0,0,1-1.86,3.42,11.41,11.41,0,0,1-2.67,2.46,12.34,12.34,0,0,1-3.11,1.49Z"/><path class="cls-4" d="M51.38,400.75v-2.53l2.7,0.43v-6.44l-2.72-.43v-2.53l2.72,0.43V389a3.87,3.87,0,0,1,.38-1.8,3,3,0,0,1,1-1.13,3.42,3.42,0,0,1,1.43-.53,5.71,5.71,0,0,1,1.68,0,11.55,11.55,0,0,1,2.6.66,7.87,7.87,0,0,1,1.68.91L62,389.31a12.33,12.33,0,0,0-1.13-.63,5.45,5.45,0,0,0-1.57-.45,2,2,0,0,0-1.73.3,2.21,2.21,0,0,0-.49,1.61l4.8,0.74v2.53l-4.8-.74v6.44l4.82,0.74v2.53C57.67,401.74,55.58,401.41,51.38,400.75Z"/><path class="cls-4" d="M65.53,392.22a11.18,11.18,0,0,1,2.12-.39,11.8,11.8,0,0,1,2.85.12,6.91,6.91,0,0,1,2,.59,4.14,4.14,0,0,1,1.35,1,3.74,3.74,0,0,1,.74,1.37,5.91,5.91,0,0,1,.23,1.69q0,1.17-.08,2c-0.05.54-.08,1-0.08,1.46a10.13,10.13,0,0,0,0,1.09c0,0.21.05,0.43,0.07,0.63L76.29,402c0,1,0,1.52,0,2.53L72.45,404l-0.3-1.61-0.11,0a3.19,3.19,0,0,1-1.3,1,4,4,0,0,1-2.27.18,4.47,4.47,0,0,1-2.71-1.33,3.66,3.66,0,0,1-1-2.59,3.35,3.35,0,0,1,.35-1.61,2.39,2.39,0,0,1,1-1,4.24,4.24,0,0,1,1.61-.42,9.27,9.27,0,0,1,2.1.09q0.41,0.06.86,0.17l1.11,0.26a2.29,2.29,0,0,0,0-.45v-0.44a1.7,1.7,0,0,0-.5-1.33,2.76,2.76,0,0,0-1.48-.6,6.64,6.64,0,0,0-2.09,0,11.79,11.79,0,0,0-1.57.36Zm3.89,9a2.52,2.52,0,0,0,1.63-.16,2.17,2.17,0,0,0,.79-0.75V399l-0.68-.2a8.29,8.29,0,0,0-1-.2,4.63,4.63,0,0,0-.86,0,2.56,2.56,0,0,0-.77.14A1.22,1.22,0,0,0,68,399a1,1,0,0,0-.2.64,1.51,1.51,0,0,0,.37,1.06A2,2,0,0,0,69.43,401.25Z"/><path class="cls-4" d="M89.71,405.33a5.66,5.66,0,0,1-2.2.76,9.3,9.3,0,0,1-2.63,0,8.16,8.16,0,0,1-2.65-.81,6.56,6.56,0,0,1-1.95-1.51,6.31,6.31,0,0,1-1.2-2.09,7.69,7.69,0,0,1-.41-2.54,6,6,0,0,1,.48-2.51,4.43,4.43,0,0,1,1.34-1.72,4.87,4.87,0,0,1,2-.9,7.52,7.52,0,0,1,2.54,0,10.12,10.12,0,0,1,2.41.64,12.92,12.92,0,0,1,1.72.81c0,1.62,0,2.43,0,4l-2.52-.35V397a6.92,6.92,0,0,0-1.42-.36,4.14,4.14,0,0,0-1.27,0A2.57,2.57,0,0,0,82,398.07a3.25,3.25,0,0,0-.31,1.5A3.85,3.85,0,0,0,82,401,3.85,3.85,0,0,0,83.83,403a4.48,4.48,0,0,0,1.5.48,5.09,5.09,0,0,0,2.14-.07,7.3,7.3,0,0,0,1.25-.47Z"/><path class="cls-4" d="M93.6,398l-2.27-.31v-2.53l2.27,0.31v-2.62l3-.45c0,1.39,0,2.08,0,3.47l6,0.8v2.53l-6-.8v3.29a4.39,4.39,0,0,0,.66,2.65,2.66,2.66,0,0,0,1.86,1,3.83,3.83,0,0,0,1.12,0,3.74,3.74,0,0,0,.91-0.26,4.33,4.33,0,0,0,.73-0.41l0.61-.43,1.38,2.25a3.68,3.68,0,0,1-1,.71,7.15,7.15,0,0,1-1.26.5,7.24,7.24,0,0,1-1.41.26,6.58,6.58,0,0,1-1.44,0,5.68,5.68,0,0,1-3.86-2,7.45,7.45,0,0,1-1.29-4.74V398Z"/><path class="cls-4" d="M105.5,402.8a6.65,6.65,0,0,1,.44-2.52,4.43,4.43,0,0,1,1.24-1.75,4.52,4.52,0,0,1,1.92-.94,7,7,0,0,1,2.49-.08,7.79,7.79,0,0,1,2.58.76,6.34,6.34,0,0,1,1.92,1.47,6.07,6.07,0,0,1,1.18,2.07,7.79,7.79,0,0,1,.4,2.53,6.68,6.68,0,0,1-.44,2.52,4.45,4.45,0,0,1-1.24,1.76,4.5,4.5,0,0,1-1.91.95,7,7,0,0,1-2.49.09,7.74,7.74,0,0,1-2.58-.77,6.35,6.35,0,0,1-1.92-1.48,6.12,6.12,0,0,1-1.18-2.07A7.82,7.82,0,0,1,105.5,402.8Zm3.07,0.4a4.85,4.85,0,0,0,.21,1.43,4,4,0,0,0,.6,1.2,3.25,3.25,0,0,0,.94.87,3.15,3.15,0,0,0,1.26.43,2.61,2.61,0,0,0,2.17-.58,3.34,3.34,0,0,0,.84-2.59,4.42,4.42,0,0,0-.78-2.66,3.1,3.1,0,0,0-2.23-1.26,3.42,3.42,0,0,0-1.19,0,2,2,0,0,0-1,.51,2.61,2.61,0,0,0-.63,1A4.71,4.71,0,0,0,108.57,403.2Z"/><path class="cls-4" d="M119.35,407.78l2.85,0.35v-6.44l-2.85-.35v-2.53l5.16,0.63,0.34,1.56h0.09a5.1,5.1,0,0,1,1.47-1.09,3.39,3.39,0,0,1,1.93-.28,3,3,0,0,1,2.17,1.27,6,6,0,0,1,.79,3.47l-2.69-.32a2.49,2.49,0,0,0-.24-1.24,1,1,0,0,0-.77-0.47,2.08,2.08,0,0,0-1.48.28,3.89,3.89,0,0,0-1,.94v4.9l5,0.59v2.53c-4.32-.51-6.49-0.77-10.81-1.3v-2.53Z"/><path class="cls-4" d="M133.58,409.47l4,0.46v-6.44l-4-.46V400.5l7,0.8v9l4.25,0.47v2.53c-4.51-.49-6.77-0.75-11.27-1.27v-2.53Zm3.49-11.7a1.44,1.44,0,0,1,.53-1.16,1.86,1.86,0,0,1,1.47-.34,2.5,2.5,0,0,1,1.54.68,1.76,1.76,0,0,1,.57,1.28,1.32,1.32,0,0,1-.57,1.14,2.17,2.17,0,0,1-1.54.3,2.37,2.37,0,0,1-1.47-.64A1.73,1.73,0,0,1,137.07,397.77Z"/><path class="cls-4" d="M148.07,402.9a11.53,11.53,0,0,1,2.13-.48,11.87,11.87,0,0,1,2.86,0,6.74,6.74,0,0,1,2,.5,3.91,3.91,0,0,1,1.36,1,3.55,3.55,0,0,1,.75,1.34,5.8,5.8,0,0,1,.23,1.68q0,1.17-.08,2c-0.05.55-.08,1-0.08,1.46a10,10,0,0,0,0,1.09c0,0.21.05,0.43,0.07,0.63l1.49,0.15v2.53l-3.86-.4-0.3-1.6h-0.11a3.4,3.4,0,0,1-1.3,1.09,4.11,4.11,0,0,1-2.28.28,4.29,4.29,0,0,1-2.72-1.21,3.5,3.5,0,0,1-1-2.55,3.42,3.42,0,0,1,.35-1.63,2.54,2.54,0,0,1,1-1,4.41,4.41,0,0,1,1.62-.49,9.32,9.32,0,0,1,2.11,0c0.27,0,.56.07,0.87,0.14l1.12,0.21a2.3,2.3,0,0,0,0-.46v-0.44a1.63,1.63,0,0,0-.5-1.31,2.67,2.67,0,0,0-1.48-.54,6.7,6.7,0,0,0-2.1.08,12.24,12.24,0,0,0-1.57.43Zm3.91,8.86a2.58,2.58,0,0,0,1.64-.23,2.32,2.32,0,0,0,.8-0.78v-1.38l-0.68-.18a8.21,8.21,0,0,0-1-.16,4.66,4.66,0,0,0-.86,0,2.65,2.65,0,0,0-.77.17,1.29,1.29,0,0,0-.55.39,1,1,0,0,0-.2.65,1.45,1.45,0,0,0,.37,1A1.94,1.94,0,0,0,152,411.76Z"/><path class="cls-4" d="M161.78,399l4.9,0.49c0,4.25,0,6.38,0,10.63a5.2,5.2,0,0,0,.44,2.5,1.72,1.72,0,0,0,1.4.83,3.78,3.78,0,0,0,1.17,0,4,4,0,0,0,.92-0.34l1.13,2.18q-0.39.22-.78,0.4a4.58,4.58,0,0,1-.83.29,5.33,5.33,0,0,1-1,.14,7.53,7.53,0,0,1-1.16,0,4.78,4.78,0,0,1-3.24-1.42,4.68,4.68,0,0,1-1.08-3.24c0-3.86,0-5.8,0-9.66l-1.91-.19V399Z"/><path class="cls-4" d="M175.37,419.07c4.08,0.38,6.13.57,10.21,0.93v2.46c-4.09-.36-6.13-0.55-10.21-0.93C175.37,420.55,175.37,420.06,175.37,419.07Z"/><path class="cls-4" d="M187.38,401.37l4.65,0.4c0,2.36,0,3.53,0,5.89h0.09a3.45,3.45,0,0,1,1.47-1,4.82,4.82,0,0,1,2.16-.26,5.64,5.64,0,0,1,1.61.36,3.41,3.41,0,0,1,1.27.86,4,4,0,0,1,.83,1.51,7.5,7.5,0,0,1,.3,2.27v7.15l-3-.25c0-2.61,0-3.92,0-6.53a3,3,0,0,0-.6-2.07,2.27,2.27,0,0,0-1.57-.75,2.44,2.44,0,0,0-1.56.39,2.5,2.5,0,0,0-1,1.24v7.34l-3-.26c0-5.43,0-8.14,0-13.57l-1.66-.14v-2.53Z"/><path class="cls-4" d="M213.47,418.37a3.73,3.73,0,0,1-.77.48,6.91,6.91,0,0,1-1.11.41,8.13,8.13,0,0,1-1.39.26,8.81,8.81,0,0,1-1.61,0,8.16,8.16,0,0,1-2.64-.62,5.77,5.77,0,0,1-3.2-3.37,7.35,7.35,0,0,1-.43-2.58,6.47,6.47,0,0,1,.48-2.62,4.76,4.76,0,0,1,1.32-1.79,5,5,0,0,1,2-1,7.43,7.43,0,0,1,2.44-.19,7.85,7.85,0,0,1,1.81.37,5.41,5.41,0,0,1,1.72.92,4.76,4.76,0,0,1,1.28,1.6,5.36,5.36,0,0,1,.49,2.43,10.68,10.68,0,0,1-.23,2.12l-8.29-.63a2.81,2.81,0,0,0,.31,1.27,2.75,2.75,0,0,0,.76.89,3.6,3.6,0,0,0,1.08.56,5.59,5.59,0,0,0,1.3.25A6.56,6.56,0,0,0,211,417a4.38,4.38,0,0,0,1.44-.67Zm-5-8.59a3.7,3.7,0,0,0-1.13.08,2.88,2.88,0,0,0-1,.41,2.35,2.35,0,0,0-.7.73,2.27,2.27,0,0,0-.32,1l5.66,0.44A2.48,2.48,0,0,0,208.5,409.78Z"/><path class="cls-4" d="M217,403.75l4.9,0.35c0,4.25,0,6.38,0,10.63a5.11,5.11,0,0,0,.44,2.49,1.66,1.66,0,0,0,1.41.79,3.79,3.79,0,0,0,1.17-.07,4.15,4.15,0,0,0,.92-0.36l1.13,2.15q-0.39.23-.78,0.42a4.71,4.71,0,0,1-.83.31,5.38,5.38,0,0,1-1,.16,7.56,7.56,0,0,1-1.16,0,4.65,4.65,0,0,1-3.25-1.33,4.56,4.56,0,0,1-1.08-3.21c0-3.86,0-5.8,0-9.66l-1.91-.14v-2.53Z"/><path class="cls-4" d="M228.81,409.17l3.92,0.26,0.35,1.4h0.09a4.14,4.14,0,0,1,3.87-1.46,5.69,5.69,0,0,1,1.95.45A4.15,4.15,0,0,1,240.5,411a5.31,5.31,0,0,1,1,1.85,8.81,8.81,0,0,1,.35,2.62,8.21,8.21,0,0,1-.39,2.63,5.22,5.22,0,0,1-1.13,1.94,4.44,4.44,0,0,1-1.8,1.15,6.11,6.11,0,0,1-2.42.29,9.69,9.69,0,0,1-1.4-.19,4.1,4.1,0,0,1-1.15-.41v4.71l-3-.19c0-5.43,0-8.14,0-13.57l-1.73-.11v-2.53Zm7.33,2.68a2.92,2.92,0,0,0-1.6.34,2.08,2.08,0,0,0-1,1.25v4.78a2.65,2.65,0,0,0,.93.46,5.3,5.3,0,0,0,1.23.23,3.14,3.14,0,0,0,1.2-.14,2.26,2.26,0,0,0,1-.64,3.15,3.15,0,0,0,.64-1.18,5.83,5.83,0,0,0,.23-1.76,3.59,3.59,0,0,0-.74-2.39A2.56,2.56,0,0,0,236.14,411.85Z"/><path class="cls-4" d="M254.94,421a3.81,3.81,0,0,1-.77.5,7,7,0,0,1-1.11.44,8.21,8.21,0,0,1-1.39.29,8.86,8.86,0,0,1-1.61,0,8.07,8.07,0,0,1-2.64-.56,5.6,5.6,0,0,1-3.2-3.3,7.29,7.29,0,0,1-.43-2.57,6.54,6.54,0,0,1,.48-2.63,4.9,4.9,0,0,1,1.32-1.82,5.17,5.17,0,0,1,2-1,7.49,7.49,0,0,1,2.44-.24,7.76,7.76,0,0,1,1.81.33,5.29,5.29,0,0,1,1.72.89,4.6,4.6,0,0,1,1.28,1.58,5.28,5.28,0,0,1,.5,2.42,10.75,10.75,0,0,1-.23,2.13l-8.3-.46a2.77,2.77,0,0,0,.31,1.26,2.68,2.68,0,0,0,.76.87,3.51,3.51,0,0,0,1.08.53,5.54,5.54,0,0,0,1.3.22,6.6,6.6,0,0,0,2.27-.2,4.5,4.5,0,0,0,1.44-.7Zm-5-8.48a3.73,3.73,0,0,0-1.13.1,3,3,0,0,0-1,.43,2.41,2.41,0,0,0-.7.74,2.29,2.29,0,0,0-.32,1l5.67,0.32A2.42,2.42,0,0,0,250,412.54Z"/><path class="cls-4" d="M257.36,419.84l2.86,0.15v-6.44l-2.86-.15v-2.53l5.19,0.26,0.35,1.53H263a5.69,5.69,0,0,1,1.48-1.19,3.54,3.54,0,0,1,1.94-.41,2.76,2.76,0,0,1,2.18,1.11,5.74,5.74,0,0,1,.79,3.42l-2.7-.13a2.37,2.37,0,0,0-.24-1.22,0.9,0.9,0,0,0-.77-0.42,2.2,2.2,0,0,0-1.49.39,4.33,4.33,0,0,0-1,1v4.9l5,0.24v2.53c-4.34-.2-6.51-0.31-10.86-0.54v-2.53Z"/><path class="cls-4" d="M280.78,428.32a11.08,11.08,0,0,1-3.14-1.14,9.73,9.73,0,0,1-2.7-2.16,10.31,10.31,0,0,1-1.88-3.21,12.2,12.2,0,0,1-.7-4.31,11.71,11.71,0,0,1,.7-4.24,9.44,9.44,0,0,1,1.88-3.08,8.8,8.8,0,0,1,2.7-2,11.06,11.06,0,0,1,3.14-1l0.55,2.48a9.3,9.3,0,0,0-1.83.58,6.31,6.31,0,0,0-1.95,1.32A7.28,7.28,0,0,0,276,414a9.12,9.12,0,0,0-.63,3.65,8.68,8.68,0,0,0,.67,3.59,8.35,8.35,0,0,0,1.63,2.45,7.6,7.6,0,0,0,2,1.48,8.23,8.23,0,0,0,1.71.68Z"/><path class="cls-4" d="M286.57,421.14l3.53,0.13V411.22l-3,2.21-1.38-1.89,5.26-3.81,2,0.07v13.57l3.46,0.11V424l-9.85-.34C286.57,422.66,286.57,422.15,286.57,421.14Z"/><path class="cls-4" d="M303,422.74a1.53,1.53,0,0,1,.52-1.23,1.85,1.85,0,0,1,1.3-.42,2.35,2.35,0,0,1,1.91.88,3.3,3.3,0,0,1,.65,2.06,4.27,4.27,0,0,1-.4,1.88,4.79,4.79,0,0,1-1,1.44,5.45,5.45,0,0,1-1.44,1,5.72,5.72,0,0,1-1.58.48l-0.62-1.28a6.53,6.53,0,0,0,1.12-.36,4.33,4.33,0,0,0,1-.6,3.42,3.42,0,0,0,.77-0.86,2.38,2.38,0,0,0,.36-1.09,2.94,2.94,0,0,1-1.18,0,1.84,1.84,0,0,1-.8-0.39,1.57,1.57,0,0,1-.45-0.66A2.38,2.38,0,0,1,303,422.74Z"/><path class="cls-4" d="M314.24,422l3.53,0.08V412l-3,2.26-1.38-1.87,5.26-3.88,2,0v13.57l3.46,0.07v2.53l-9.85-.2V422Z"/><path class="cls-4" d="M328.08,422.25l3.53,0.05V412.25l-3,2.28-1.38-1.86,5.26-3.92,2,0v13.57l3.46,0v2.53l-9.85-.13v-2.53Z"/><path class="cls-4" d="M342.25,427.33a7.87,7.87,0,0,0,1.71-.59,7.13,7.13,0,0,0,2-1.39,7.81,7.81,0,0,0,1.63-2.37,8.45,8.45,0,0,0,.67-3.56,9.35,9.35,0,0,0-.63-3.68,7.78,7.78,0,0,0-1.56-2.41,6.78,6.78,0,0,0-1.95-1.42,9.73,9.73,0,0,0-1.83-.67l0.55-2.46a11.57,11.57,0,0,1,3.14,1.11,9.45,9.45,0,0,1,2.7,2.11,10.07,10.07,0,0,1,1.88,3.17,13.33,13.33,0,0,1,0,8.54,9.66,9.66,0,0,1-1.88,3.12,9.08,9.08,0,0,1-2.7,2,10.62,10.62,0,0,1-3.14,1Z"/><path class="cls-4" d="M506.39,417.07l2.85-.21v-6.44l-2.85.21V408.1l5.18-.39,0.34,1.49H512a6.85,6.85,0,0,1,1.47-1.38,3.88,3.88,0,0,1,1.93-.66,2.42,2.42,0,0,1,2.18.84,5.26,5.26,0,0,1,.79,3.32l-2.69.22a2.21,2.21,0,0,0-.24-1.19,0.78,0.78,0,0,0-.77-0.32,2.45,2.45,0,0,0-1.48.58,5.22,5.22,0,0,0-1,1.13v4.9l5-.39v2.53c-4.34.35-6.5,0.51-10.84,0.84v-2.53Z"/><path class="cls-4" d="M531.59,416.34a4.62,4.62,0,0,1-.77.61,8.25,8.25,0,0,1-1.1.59,9.33,9.33,0,0,1-3,.76,7.59,7.59,0,0,1-2.64-.19,4.6,4.6,0,0,1-3.2-2.85,6.81,6.81,0,0,1-.43-2.51,7,7,0,0,1,.48-2.7,6,6,0,0,1,1.32-2,6.18,6.18,0,0,1,2-1.3,8,8,0,0,1,2.44-.59,7.38,7.38,0,0,1,1.81.08,4.52,4.52,0,0,1,1.71.65,3.75,3.75,0,0,1,1.28,1.4,4.86,4.86,0,0,1,.5,2.35,11.25,11.25,0,0,1-.23,2.16l-8.28.71a2.51,2.51,0,0,0,.31,1.22,2.17,2.17,0,0,0,.76.76,3,3,0,0,0,1.08.38,5.29,5.29,0,0,0,1.3,0,7,7,0,0,0,2.27-.52,5.36,5.36,0,0,0,1.44-.91Zm-5-7.78a4,4,0,0,0-1.13.26,3.49,3.49,0,0,0-1,.56,3,3,0,0,0-.7.84,2.58,2.58,0,0,0-.32,1.08l5.66-.48A2.07,2.07,0,0,0,526.62,408.56Z"/><path class="cls-4" d="M545.66,415.18a7.39,7.39,0,0,1-2.21,1.28,10.15,10.15,0,0,1-2.64.6,7.25,7.25,0,0,1-2.66-.19,4.81,4.81,0,0,1-2-1.05A4.62,4.62,0,0,1,535,414a7.39,7.39,0,0,1,.07-5.07,6.15,6.15,0,0,1,1.35-2,6.55,6.55,0,0,1,2-1.37,8.3,8.3,0,0,1,2.55-.64,9.24,9.24,0,0,1,2.41.07,10.47,10.47,0,0,1,1.73.41v4l-2.53.24v-2.11a6.36,6.36,0,0,0-1.43,0,4.55,4.55,0,0,0-1.28.31,3.51,3.51,0,0,0-1.13.72,3.6,3.6,0,0,0-1.12,2.71,3.39,3.39,0,0,0,.25,1.33,2.86,2.86,0,0,0,.71,1,2.89,2.89,0,0,0,1.14.62,4,4,0,0,0,1.51.13,5.68,5.68,0,0,0,2.15-.57,9.8,9.8,0,0,0,1.25-.76Z"/><path class="cls-4" d="M554.49,403.93l4.28-.43v9l1.75-.18c0,1,0,1.52,0,2.53l-3.63.37-0.53-1.65h-0.09a4.7,4.7,0,0,1-1.59,1.61,5.22,5.22,0,0,1-2.35.81,5.1,5.1,0,0,1-1.6-.07,2.55,2.55,0,0,1-1.23-.64,3.12,3.12,0,0,1-.78-1.35,7.5,7.5,0,0,1-.28-2.23V407l-1.31.13v-2.53l4.3-.41v6.53a3.31,3.31,0,0,0,.45,2,1.48,1.48,0,0,0,1.41.48,2.74,2.74,0,0,0,1.53-.66,3.13,3.13,0,0,0,1-1.34v-4.9l-1.29.13v-2.53Z"/><path class="cls-4" d="M561.6,412.18l2.85-.29v-6.44l-2.85.29v-2.53l5.17-.54,0.34,1.48h0.09a7.13,7.13,0,0,1,1.47-1.42,4,4,0,0,1,1.93-.71,2.35,2.35,0,0,1,2.17.78,5.17,5.17,0,0,1,.79,3.29l-2.69.29a2.17,2.17,0,0,0-.24-1.18,0.76,0.76,0,0,0-.77-0.3,2.51,2.51,0,0,0-1.48.62,5.44,5.44,0,0,0-1,1.16v4.9l5-.53c0,1,0,1.52,0,2.53-4.33.47-6.49,0.7-10.82,1.14v-2.53Z"/><path class="cls-4" d="M584.93,417a9.73,9.73,0,0,1-3.12-.66,7.79,7.79,0,0,1-2.69-1.74,8.41,8.41,0,0,1-1.87-2.92,11.36,11.36,0,0,1-.7-4.2,12.66,12.66,0,0,1,.7-4.34,11.54,11.54,0,0,1,1.87-3.37,11,11,0,0,1,2.69-2.4,12.8,12.8,0,0,1,3.12-1.44l0.55,2.4a10.8,10.8,0,0,0-1.82.87,7.84,7.84,0,0,0-1.94,1.62,9,9,0,0,0-1.55,2.58,9.9,9.9,0,0,0-.63,3.75,8,8,0,0,0,.67,3.49,6.73,6.73,0,0,0,1.62,2.2,6.12,6.12,0,0,0,2,1.18,7.13,7.13,0,0,0,1.7.41Z"/><path class="cls-4" d="M590.69,409l3.51-.42c0-4,0-6,0-10.05l-3,2.68-1.38-1.68,5.23-4.62,2-.24c0,5.43,0,8.14,0,13.57l3.44-.42v2.53c-3.92.48-5.88,0.72-9.8,1.18C590.69,410.49,590.69,410,590.69,409Z"/><path class="cls-4" d="M604.46,407.3l3.51-.44V396.81l-3,2.7-1.38-1.67,5.23-4.66,2-.26V406.5l3.44-.44v2.53c-3.92.51-5.87,0.76-9.79,1.25V407.3Z"/><path class="cls-4" d="M620.78,406.25a1.81,1.81,0,0,1,.52-1.31,2.15,2.15,0,0,1,1.3-.63,2,2,0,0,1,1.9.57,2.89,2.89,0,0,1,.64,2,4.73,4.73,0,0,1-.4,1.94,6,6,0,0,1-1,1.61,6.83,6.83,0,0,1-1.43,1.21,6.66,6.66,0,0,1-1.57.74l-0.62-1.18a7.63,7.63,0,0,0,1.11-.54,5.42,5.42,0,0,0,1-.77,4.34,4.34,0,0,0,.77-1,2.75,2.75,0,0,0,.35-1.15,3,3,0,0,1-1.17.19,1.54,1.54,0,0,1-.79-0.26,1.25,1.25,0,0,1-.45-0.58A2.21,2.21,0,0,1,620.78,406.25Z"/><path class="cls-4" d="M632,403.67l3.5-.49V393.13l-3,2.75-1.37-1.65,5.22-4.73,2-.29c0,5.43,0,8.14,0,13.57l3.43-.49c0,1,0,1.52,0,2.53-3.91.56-5.87,0.84-9.78,1.39v-2.53Z"/><path class="cls-4" d="M644.15,396.4a14.51,14.51,0,0,1,.44-3.73,8.91,8.91,0,0,1,1.23-2.79,6.32,6.32,0,0,1,1.9-1.83,6.43,6.43,0,0,1,2.46-.88,4.61,4.61,0,0,1,4.46,1.37q1.56,1.8,1.56,6.08a14.63,14.63,0,0,1-.44,3.76,9.13,9.13,0,0,1-1.23,2.81,6.26,6.26,0,0,1-1.91,1.85,6.49,6.49,0,0,1-2.47.89,4.45,4.45,0,0,1-4.46-1.49Q644.15,400.49,644.15,396.4Zm3-.44c0,0.23,0,.45,0,0.65s0,0.42,0,.63l5.54-6a2.16,2.16,0,0,0-2.56-1.59,3,3,0,0,0-2.24,1.75A10.22,10.22,0,0,0,647.12,396Zm6.09-.91c0-.25,0-0.48,0-0.7s0-.44,0-0.65l-5.56,6a2.2,2.2,0,0,0,2.56,1.71,3,3,0,0,0,2.25-1.74A10.25,10.25,0,0,0,653.21,395.06Z"/><path class="cls-4" d="M659.75,404.5a9.23,9.23,0,0,0,1.69-.87,8.94,8.94,0,0,0,2-1.71,9.74,9.74,0,0,0,1.61-2.63,9.3,9.3,0,0,0,.66-3.67A8.68,8.68,0,0,0,665,392a6.23,6.23,0,0,0-1.54-2.16,5.4,5.4,0,0,0-1.93-1.1,8.45,8.45,0,0,0-1.82-.38l0.55-2.55a10.09,10.09,0,0,1,3.11.6,7.48,7.48,0,0,1,2.67,1.68,8.13,8.13,0,0,1,1.86,2.87,11.17,11.17,0,0,1,.7,4.16,13,13,0,0,1-.7,4.39,11.93,11.93,0,0,1-1.86,3.42,11.42,11.42,0,0,1-2.67,2.47,12.35,12.35,0,0,1-3.11,1.49Z"/></svg>