<svg id="Layer_1" data-name="Layer 1" xmlns="http://www.w3.org/2000/svg" viewBox="0 0 720 576"><defs><style>.cls-1,.cls-2,.cls-4,.cls-6{fill:#231f20;}.cls-1,.cls-3{stroke:#231f20;}.cls-1,.cls-6{stroke-miterlimit:10;}.cls-1,.cls-2,.cls-3{stroke-width:2px;}.cls-2{stroke:#000;}.cls-2,.cls-3{stroke-linecap:round;stroke-linejoin:round;}.cls-3,.cls-5{fill:#fff;}.cls-6{stroke:#fff;}</style></defs><title>Hanoi_Tower_Set_5_Final</title><path class="cls-1" d="M686.81,506.49c0-.14,0-0.29,0-0.43s0-.29,0-0.43V453.84H40.93s-0.25,51.74-.25,52.22c0,2.67,2.32,5.24,6.64,7.71,15.13,8.61,55.2,16.11,111,21.48s127.39,8.59,205.41,8.59c89.17,0,169.9-4.21,228.35-11,29.22-3.41,52.88-7.46,69.24-12,8.18-2.25,14.54-4.62,18.86-7.08,3.69-2.1,5.91-4.29,6.48-6.55h0.11v-0.73Z"/><ellipse class="cls-2" cx="363.77" cy="454.92" rx="322.89" ry="37.63"/><path class="cls-3" d="M686.81,455c0-.14,0-0.29,0-0.43s0-.29,0-0.43V402.36H40.93s-0.25,51.74-.25,52.22c0,2.67,2.32,5.24,6.64,7.71,15.13,8.61,55.2,16.11,111,21.48s127.39,8.59,205.41,8.59c89.17,0,169.9-4.21,228.35-11,29.22-3.41,52.88-7.46,69.24-12,8.18-2.25,14.54-4.62,18.86-7.08,3.69-2.1,5.91-4.29,6.48-6.55h0.11V455Z"/><ellipse class="cls-3" cx="363.77" cy="403.44" rx="322.89" ry="37.63"/><path class="cls-3" d="M686.81,403.53c0-.14,0-0.29,0-0.43s0-.29,0-0.43V350.88H40.93s-0.25,51.74-.25,52.22c0,2.67,2.32,5.24,6.64,7.71,15.13,8.61,55.2,16.11,111,21.48s127.39,8.59,205.41,8.59c89.17,0,169.9-4.21,228.35-11,29.22-3.41,52.88-7.46,69.24-12,8.18-2.25,14.54-4.62,18.86-7.08,3.69-2.1,5.91-4.29,6.48-6.55h0.11v-0.73Z"/><ellipse class="cls-3" cx="363.77" cy="351.97" rx="322.89" ry="37.63"/><path class="cls-3" d="M686.81,352.06c0-.14,0-0.29,0-0.43s0-.29,0-0.43V299.4H40.93s-0.25,51.74-.25,52.22c0,2.67,2.32,5.24,6.64,7.71,15.13,8.61,55.2,16.11,111,21.48s127.39,8.59,205.41,8.59c89.17,0,169.9-4.21,228.35-11,29.22-3.41,52.88-7.46,69.24-12,8.18-2.25,14.54-4.62,18.86-7.08,3.69-2.1,5.91-4.29,6.48-6.55h0.11v-0.73Z"/><ellipse class="cls-3" cx="363.77" cy="300.49" rx="322.89" ry="37.63"/><path class="cls-3" d="M686.81,302.06c0-.14,0-0.29,0-0.43s0-.29,0-0.43V249.4H40.93s-0.25,51.74-.25,52.22c0,2.67,2.32,5.24,6.64,7.71,15.13,8.61,55.2,16.11,111,21.48s127.39,8.59,205.41,8.59c89.17,0,169.9-4.21,228.35-11,29.22-3.41,52.88-7.46,69.24-12,8.18-2.25,14.54-4.62,18.86-7.08,3.69-2.1,5.91-4.29,6.48-6.55h0.11v-0.73Z"/><ellipse class="cls-3" cx="363.77" cy="250.49" rx="322.89" ry="37.63"/><path class="cls-4" d="M364.8,259.78c-16,0-29-3.75-30.2-8.61h-0.08l0-.5V8.27h60.63V251.17H395C393.77,256,380.77,259.78,364.8,259.78Z"/><path class="cls-5" d="M394.62,8.77v241.9h0c-0.49,4.78-13.63,8.61-29.79,8.61s-29.3-3.83-29.79-8.61h0v-0.21s0,0,0-.06,0,0,0-.06V8.77h59.63m1-1H334V250.29s0,0.07,0,.11v1.27h0.23c2,5.6,16.84,8.61,30.58,8.61s28.6-3,30.58-8.61h0.21l0-1V7.77h0Z"/><ellipse class="cls-6" cx="364.8" cy="8.89" rx="29.81" ry="8.89"/><path class="cls-4" d="M54.88,296v-2.53l2.7,0.43v-6.44L54.86,287v-2.53l2.72,0.43v-0.64a3.88,3.88,0,0,1,.38-1.8,3,3,0,0,1,1-1.13,3.41,3.41,0,0,1,1.43-.53,5.73,5.73,0,0,1,1.68,0,11.55,11.55,0,0,1,2.6.67,7.92,7.92,0,0,1,1.68.91l-0.87,2.14a12.5,12.5,0,0,0-1.13-.63,5.45,5.45,0,0,0-1.57-.45,2,2,0,0,0-1.73.3,2.21,2.21,0,0,0-.49,1.61l4.8,0.74v2.53l-4.8-.74v6.44l4.83,0.74v2.53C61.18,297,59.08,296.64,54.88,296Z"/><path class="cls-4" d="M69,287.45a11.24,11.24,0,0,1,2.12-.39,11.83,11.83,0,0,1,2.85.13,6.89,6.89,0,0,1,2,.59,4.15,4.15,0,0,1,1.35,1,3.74,3.74,0,0,1,.74,1.37,5.91,5.91,0,0,1,.23,1.69q0,1.17-.08,2t-0.08,1.46a10.13,10.13,0,0,0,0,1.09c0,0.21.05,0.43,0.07,0.63l1.49,0.22v2.53l-3.84-.56-0.3-1.61-0.11,0a3.2,3.2,0,0,1-1.3,1,4,4,0,0,1-2.27.18,4.48,4.48,0,0,1-2.71-1.33,3.65,3.65,0,0,1-1-2.59,3.35,3.35,0,0,1,.35-1.61,2.38,2.38,0,0,1,1-1,4.24,4.24,0,0,1,1.61-.42,9.26,9.26,0,0,1,2.1.1c0.27,0,.56.1,0.86,0.17l1.11,0.26a2.27,2.27,0,0,0,0-.45v-0.44a1.7,1.7,0,0,0-.5-1.33,2.76,2.76,0,0,0-1.48-.6,6.64,6.64,0,0,0-2.09,0,11.77,11.77,0,0,0-1.57.36Zm3.89,9a2.52,2.52,0,0,0,1.63-.16,2.16,2.16,0,0,0,.79-0.75v-1.38l-0.68-.2a8.26,8.26,0,0,0-1-.2,4.65,4.65,0,0,0-.86,0,2.55,2.55,0,0,0-.77.14,1.22,1.22,0,0,0-.54.37,1,1,0,0,0-.2.64,1.51,1.51,0,0,0,.37,1.06A2,2,0,0,0,72.93,296.47Z"/><path class="cls-4" d="M93.21,300.56a5.67,5.67,0,0,1-2.2.76,9.31,9.31,0,0,1-2.63,0,8.16,8.16,0,0,1-2.64-.81A6.56,6.56,0,0,1,83.79,299a6.3,6.3,0,0,1-1.2-2.09,7.69,7.69,0,0,1-.41-2.54,6,6,0,0,1,.48-2.51A4.43,4.43,0,0,1,84,290.13a4.87,4.87,0,0,1,2-.89,7.52,7.52,0,0,1,2.54,0,10.13,10.13,0,0,1,2.4.64,13,13,0,0,1,1.72.81v4l-2.52-.35v-2.12a6.92,6.92,0,0,0-1.42-.36,4.14,4.14,0,0,0-1.27,0,2.58,2.58,0,0,0-1.92,1.42,3.26,3.26,0,0,0-.31,1.5,3.88,3.88,0,0,0,1,2.57,3.93,3.93,0,0,0,1.13.89,4.5,4.5,0,0,0,1.5.48,5.09,5.09,0,0,0,2.14-.07,7.47,7.47,0,0,0,1.25-.47Z"/><path class="cls-4" d="M97.1,293.22l-2.27-.31v-2.53l2.27,0.31v-2.62l3-.45v3.47l6,0.8v2.53l-6-.8v3.29a4.38,4.38,0,0,0,.66,2.65,2.65,2.65,0,0,0,1.86,1,3.83,3.83,0,0,0,1.12,0,3.74,3.74,0,0,0,.91-0.26,4.24,4.24,0,0,0,.73-0.41l0.61-.43,1.38,2.25a3.66,3.66,0,0,1-1,.71,7.12,7.12,0,0,1-2.67.76,6.58,6.58,0,0,1-1.44,0,5.68,5.68,0,0,1-3.86-2,7.45,7.45,0,0,1-1.29-4.74v-3.29Z"/><path class="cls-4" d="M109,298a6.67,6.67,0,0,1,.44-2.52,4.42,4.42,0,0,1,1.24-1.75,4.51,4.51,0,0,1,1.91-.94,7.05,7.05,0,0,1,2.49-.08,7.79,7.79,0,0,1,2.58.76,6.35,6.35,0,0,1,1.92,1.47,6.08,6.08,0,0,1,1.18,2.07,7.83,7.83,0,0,1,.4,2.53,6.68,6.68,0,0,1-.44,2.52,4.35,4.35,0,0,1-3.15,2.7,7,7,0,0,1-2.49.09,7.75,7.75,0,0,1-2.58-.77,6.34,6.34,0,0,1-1.91-1.48,6.12,6.12,0,0,1-1.18-2.07A7.82,7.82,0,0,1,109,298Zm3.07,0.4a4.81,4.81,0,0,0,.21,1.43,4,4,0,0,0,.6,1.2,3.25,3.25,0,0,0,.94.87,3.17,3.17,0,0,0,1.26.42,2.61,2.61,0,0,0,2.17-.58,3.34,3.34,0,0,0,.84-2.59,4.41,4.41,0,0,0-.78-2.66,3.09,3.09,0,0,0-2.22-1.26,3.43,3.43,0,0,0-1.19,0,2,2,0,0,0-1,.51,2.62,2.62,0,0,0-.63,1A4.72,4.72,0,0,0,112.07,298.43Z"/><path class="cls-4" d="M122.85,303l2.84,0.35v-6.44l-2.84-.35c0-1,0-1.52,0-2.53l5.16,0.63,0.34,1.56h0.09a5.12,5.12,0,0,1,1.47-1.09,3.39,3.39,0,0,1,1.93-.28,3,3,0,0,1,2.17,1.27,6,6,0,0,1,.79,3.47l-2.68-.32a2.49,2.49,0,0,0-.24-1.24,1,1,0,0,0-.77-0.47,2.08,2.08,0,0,0-1.48.28,3.89,3.89,0,0,0-1,.94v4.9l5,0.59v2.53c-4.32-.51-6.49-0.77-10.81-1.3C122.85,304.52,122.85,304,122.85,303Z"/><path class="cls-4" d="M137.08,304.7l4,0.46v-6.44l-4-.46c0-1,0-1.52,0-2.53l7,0.8v9l4.25,0.47v2.53c-4.51-.49-6.77-0.75-11.27-1.27C137.08,306.21,137.08,305.71,137.08,304.7Zm3.49-11.7a1.45,1.45,0,0,1,.53-1.16,1.87,1.87,0,0,1,1.47-.34,2.5,2.5,0,0,1,1.54.68,1.77,1.77,0,0,1,.57,1.28,1.32,1.32,0,0,1-.57,1.14,2.17,2.17,0,0,1-1.54.3,2.37,2.37,0,0,1-1.47-.64A1.73,1.73,0,0,1,140.57,293Z"/><path class="cls-4" d="M151.57,298.13a11.62,11.62,0,0,1,2.12-.48,11.89,11.89,0,0,1,2.86,0,6.72,6.72,0,0,1,2,.5,3.92,3.92,0,0,1,1.36,1,3.55,3.55,0,0,1,.75,1.34,5.79,5.79,0,0,1,.23,1.68q0,1.17-.08,2t-0.08,1.46a10,10,0,0,0,0,1.08c0,0.21.05,0.43,0.07,0.63l1.49,0.15c0,1,0,1.52,0,2.53l-3.86-.4-0.3-1.6h-0.11a3.41,3.41,0,0,1-1.3,1.09,4.1,4.1,0,0,1-2.28.28,4.29,4.29,0,0,1-2.72-1.21,3.5,3.5,0,0,1-1-2.55,3.42,3.42,0,0,1,.35-1.63,2.54,2.54,0,0,1,1-1,4.41,4.41,0,0,1,1.62-.49,9.31,9.31,0,0,1,2.11,0c0.27,0,.56.07,0.87,0.14l1.12,0.21a2.29,2.29,0,0,0,0-.45v-0.44a1.63,1.63,0,0,0-.5-1.31,2.67,2.67,0,0,0-1.48-.54,6.71,6.71,0,0,0-2.1.08,12.26,12.26,0,0,0-1.57.43Zm3.91,8.86a2.59,2.59,0,0,0,1.63-.23,2.3,2.3,0,0,0,.8-0.78V304.6l-0.68-.18a8.19,8.19,0,0,0-1-.16,4.66,4.66,0,0,0-.86,0,2.63,2.63,0,0,0-.77.17,1.3,1.3,0,0,0-.55.39,1,1,0,0,0-.2.64,1.45,1.45,0,0,0,.37,1A1.94,1.94,0,0,0,155.48,307Z"/><path class="cls-4" d="M165.29,294.18l4.9,0.49c0,4.25,0,6.38,0,10.63a5.2,5.2,0,0,0,.44,2.5,1.72,1.72,0,0,0,1.4.83,3.77,3.77,0,0,0,1.17,0,4.07,4.07,0,0,0,.92-0.34l1.13,2.18c-0.26.14-.52,0.28-0.78,0.4a4.53,4.53,0,0,1-.83.29,5.35,5.35,0,0,1-1,.14,7.48,7.48,0,0,1-1.16,0,4.78,4.78,0,0,1-3.24-1.43,4.68,4.68,0,0,1-1.08-3.23c0-3.86,0-5.8,0-9.66l-1.91-.19C165.29,295.7,165.29,295.19,165.29,294.18Z"/><path class="cls-4" d="M178.87,314.3c4.08,0.38,6.13.57,10.21,0.93,0,1,0,1.48,0,2.46-4.09-.36-6.13-0.55-10.21-0.93C178.87,315.77,178.87,315.28,178.87,314.3Z"/><path class="cls-4" d="M190.88,296.6l4.65,0.4c0,2.35,0,3.53,0,5.89h0.09a3.44,3.44,0,0,1,1.47-1,4.81,4.81,0,0,1,2.16-.26,5.63,5.63,0,0,1,1.61.36,3.41,3.41,0,0,1,1.27.86,4,4,0,0,1,.83,1.51,7.49,7.49,0,0,1,.3,2.27c0,2.86,0,4.29,0,7.15l-3-.25c0-2.61,0-3.92,0-6.53a3.05,3.05,0,0,0-.6-2.07,2.27,2.27,0,0,0-1.56-.75,2.44,2.44,0,0,0-1.57.39,2.5,2.5,0,0,0-1,1.24c0,2.94,0,4.4,0,7.34l-3-.26c0-5.43,0-8.14,0-13.57l-1.66-.14C190.88,298.11,190.88,297.61,190.88,296.6Z"/><path class="cls-4" d="M217,313.59a3.72,3.72,0,0,1-.77.48,6.89,6.89,0,0,1-1.1.41,8.11,8.11,0,0,1-1.39.26,8.89,8.89,0,0,1-1.61,0,8.14,8.14,0,0,1-2.64-.62,5.77,5.77,0,0,1-3.2-3.37,7.36,7.36,0,0,1-.43-2.58,6.48,6.48,0,0,1,.48-2.62,4.75,4.75,0,0,1,1.32-1.79,5,5,0,0,1,2-1,7.44,7.44,0,0,1,2.44-.19,7.86,7.86,0,0,1,1.81.37,5.42,5.42,0,0,1,1.71.92,4.72,4.72,0,0,1,1.28,1.6,5.35,5.35,0,0,1,.5,2.43,10.67,10.67,0,0,1-.23,2.12l-8.29-.63a2.79,2.79,0,0,0,.31,1.27,2.75,2.75,0,0,0,.76.89,3.61,3.61,0,0,0,1.08.55,5.57,5.57,0,0,0,1.3.25,6.55,6.55,0,0,0,2.27-.15,4.37,4.37,0,0,0,1.44-.67ZM212,305a3.7,3.7,0,0,0-1.13.08,2.89,2.89,0,0,0-1,.41,2.34,2.34,0,0,0-.7.73,2.28,2.28,0,0,0-.32,1l5.66,0.44A2.48,2.48,0,0,0,212,305Z"/><path class="cls-4" d="M220.5,299l4.91,0.35c0,4.25,0,6.38,0,10.63a5.12,5.12,0,0,0,.44,2.49,1.66,1.66,0,0,0,1.41.79,3.79,3.79,0,0,0,1.17-.07,4.19,4.19,0,0,0,.92-0.36l1.13,2.15c-0.26.15-.52,0.29-0.78,0.42a4.68,4.68,0,0,1-.83.31,5.44,5.44,0,0,1-1,.16,7.51,7.51,0,0,1-1.16,0,4.65,4.65,0,0,1-3.25-1.33,4.56,4.56,0,0,1-1.08-3.2c0-3.86,0-5.8,0-9.66l-1.91-.14C220.5,300.49,220.5,300,220.5,299Z"/><path class="cls-4" d="M232.31,304.39l3.92,0.26,0.35,1.4h0.09a4.14,4.14,0,0,1,3.87-1.46,5.7,5.7,0,0,1,1.95.45A4.14,4.14,0,0,1,244,306.2a5.31,5.31,0,0,1,1,1.85,8.82,8.82,0,0,1,.35,2.62,8.21,8.21,0,0,1-.39,2.63,5.24,5.24,0,0,1-1.13,1.94,4.45,4.45,0,0,1-1.8,1.16,6.11,6.11,0,0,1-2.42.29,9.57,9.57,0,0,1-1.4-.19,4.13,4.13,0,0,1-1.15-.41c0,1.89,0,2.83,0,4.71l-3-.19c0-5.43,0-8.14,0-13.57l-1.73-.11v-2.53Zm7.33,2.68a2.92,2.92,0,0,0-1.6.34,2.07,2.07,0,0,0-1,1.25v4.79a2.67,2.67,0,0,0,.93.46,5.3,5.3,0,0,0,1.23.23,3.15,3.15,0,0,0,1.2-.14,2.25,2.25,0,0,0,1-.64,3.16,3.16,0,0,0,.64-1.18,5.82,5.82,0,0,0,.23-1.76,3.59,3.59,0,0,0-.74-2.39A2.56,2.56,0,0,0,239.64,307.08Z"/><path class="cls-4" d="M258.44,316.24a3.81,3.81,0,0,1-.77.5,7,7,0,0,1-1.11.44,8.24,8.24,0,0,1-1.39.29,8.91,8.91,0,0,1-1.61,0,8.06,8.06,0,0,1-2.64-.56,5.61,5.61,0,0,1-3.2-3.3,7.3,7.3,0,0,1-.43-2.57,6.53,6.53,0,0,1,.48-2.63,4.9,4.9,0,0,1,1.32-1.82,5.17,5.17,0,0,1,2-1,7.5,7.5,0,0,1,2.44-.24,7.76,7.76,0,0,1,1.81.33,5.29,5.29,0,0,1,1.72.89,4.59,4.59,0,0,1,1.28,1.57,5.28,5.28,0,0,1,.5,2.42,10.74,10.74,0,0,1-.23,2.13l-8.3-.46a2.77,2.77,0,0,0,.31,1.26,2.67,2.67,0,0,0,.76.87,3.51,3.51,0,0,0,1.08.53,5.54,5.54,0,0,0,1.3.22,6.6,6.6,0,0,0,2.27-.2,4.49,4.49,0,0,0,1.44-.7Zm-5-8.48a3.73,3.73,0,0,0-1.13.1,3,3,0,0,0-1,.43,2.41,2.41,0,0,0-.7.75,2.29,2.29,0,0,0-.32,1l5.67,0.32A2.42,2.42,0,0,0,253.46,307.76Z"/><path class="cls-4" d="M260.86,315.06l2.86,0.15c0-2.58,0-3.86,0-6.44l-2.86-.15c0-1,0-1.52,0-2.53l5.19,0.26,0.35,1.53h0.09A5.69,5.69,0,0,1,268,306.7a3.55,3.55,0,0,1,1.94-.41,2.76,2.76,0,0,1,2.18,1.11,5.74,5.74,0,0,1,.79,3.42l-2.7-.13a2.38,2.38,0,0,0-.24-1.22,0.9,0.9,0,0,0-.77-0.42,2.2,2.2,0,0,0-1.49.39,4.33,4.33,0,0,0-1,1v4.9l5,0.24v2.53c-4.34-.2-6.51-0.31-10.86-0.54C260.86,316.58,260.86,316.07,260.86,315.06Z"/><path class="cls-4" d="M284.28,323.54a11.05,11.05,0,0,1-3.14-1.14,9.7,9.7,0,0,1-2.7-2.16,10.3,10.3,0,0,1-1.88-3.21,12.21,12.21,0,0,1-.7-4.31,11.71,11.71,0,0,1,.7-4.23,9.45,9.45,0,0,1,1.88-3.08,8.8,8.8,0,0,1,2.7-2,11.07,11.07,0,0,1,3.14-1l0.55,2.48a9.33,9.33,0,0,0-1.83.58,6.32,6.32,0,0,0-1.95,1.32,7.3,7.3,0,0,0-1.56,2.34,9.13,9.13,0,0,0-.63,3.65,8.68,8.68,0,0,0,.67,3.59,8.35,8.35,0,0,0,1.63,2.45,7.61,7.61,0,0,0,2,1.49,8.28,8.28,0,0,0,1.71.68Z"/><path class="cls-4" d="M290,318.89l6.64-13.15-7.52-.27c0-1.08,0-1.63,0-2.71,4.21,0.16,6.31.23,10.52,0.37,0,0.9,0,1.35,0,2.25L292.9,319Z"/><path class="cls-4" d="M302.71,308.26a5.58,5.58,0,0,1,.4-2.15,4.69,4.69,0,0,1,1.13-1.66A5.05,5.05,0,0,1,306,303.4a6.19,6.19,0,0,1,2.29-.34,6.87,6.87,0,0,1,2.35.45,5.1,5.1,0,0,1,1.82,1.21,5.37,5.37,0,0,1,1.18,1.94,7.68,7.68,0,0,1,.42,2.62,13.52,13.52,0,0,1-.69,4.58A9.19,9.19,0,0,1,311.5,317a7.72,7.72,0,0,1-2.71,1.91,10.46,10.46,0,0,1-3.23.78l-0.65-2.37a7.82,7.82,0,0,0,2.29-.55,6.65,6.65,0,0,0,1.79-1.09,5.73,5.73,0,0,0,1.24-1.51,5.11,5.11,0,0,0,.62-1.83,3.34,3.34,0,0,1-1.25.74,5.09,5.09,0,0,1-1.82.24h0A5.68,5.68,0,0,1,306,313a5,5,0,0,1-1.63-1,5,5,0,0,1-1.19-1.59A4.94,4.94,0,0,1,302.71,308.26Zm2.91-.07a2.6,2.6,0,0,0,.24,1.15,2.64,2.64,0,0,0,.63.85,2.8,2.8,0,0,0,.91.53,3.41,3.41,0,0,0,1.07.2,4,4,0,0,0,1.64-.25,2.31,2.31,0,0,0,1-.71,6.44,6.44,0,0,0,.07-0.92,4.48,4.48,0,0,0-.18-1.27,3.52,3.52,0,0,0-.55-1.12,2.85,2.85,0,0,0-.92-0.79,2.77,2.77,0,0,0-1.27-.32A2.47,2.47,0,0,0,305.61,308.19Z"/><path class="cls-4" d="M327.36,319.93c-4.12-.08-6.17-0.12-10.29-0.22v-2.23q0.28-.22.69-0.59l0.93-.84q0.52-.47,1.1-1t1.13-1.17q0.78-.86,1.37-1.56a10.91,10.91,0,0,0,1-1.33,5.39,5.39,0,0,0,.57-1.23,4.24,4.24,0,0,0,.19-1.25,2.1,2.1,0,0,0-.21-0.9,2.52,2.52,0,0,0-.58-0.78,2.85,2.85,0,0,0-.89-0.55,3.24,3.24,0,0,0-1.14-.22,4.27,4.27,0,0,0-1.51.22,5,5,0,0,0-1.42.82l-1.2-2.14a9.85,9.85,0,0,1,2.16-1.11,7.31,7.31,0,0,1,2.73-.41,6.64,6.64,0,0,1,1.9.31,5.13,5.13,0,0,1,1.61.85A4,4,0,0,1,327,307.8a6.93,6.93,0,0,1-.13,1.36,6.58,6.58,0,0,1-.39,1.26,8.3,8.3,0,0,1-.69,1.29q-0.43.66-1,1.43-0.46.59-1,1.19t-1.07,1.14q-0.53.54-1,1c-0.35.31-.66,0.58-0.93,0.78l6.64,0.13v2.53Z"/><path class="cls-4" d="M330,311.9a13.6,13.6,0,0,1,.44-3.66,7.4,7.4,0,0,1,1.24-2.59,5,5,0,0,1,1.91-1.52,5.77,5.77,0,0,1,2.48-.48,5.43,5.43,0,0,1,4.49,2.09q1.57,2.05,1.57,6.33a13.71,13.71,0,0,1-.44,3.69,7.59,7.59,0,0,1-1.24,2.61,5,5,0,0,1-1.92,1.54,5.83,5.83,0,0,1-2.49.48,5.28,5.28,0,0,1-4.49-2.22A10.72,10.72,0,0,1,330,311.9Zm3,0c0,0.23,0,.45,0,0.66s0,0.42,0,.63l5.58-5.05a2.63,2.63,0,0,0-2.58-2,2.42,2.42,0,0,0-2.25,1.38A9.31,9.31,0,0,0,333,312Zm6.14,0.09c0-.24,0-0.48,0-0.7s0-.44,0-0.65l-5.61,5.05a2.68,2.68,0,0,0,2.59,2.13,2.45,2.45,0,0,0,2.27-1.37A9.33,9.33,0,0,0,339.15,312Z"/><path class="cls-4" d="M348,318.73a1.57,1.57,0,0,1,.52-1.24,1.88,1.88,0,0,1,1.3-.45,2.3,2.3,0,0,1,1.92.84,3.24,3.24,0,0,1,.65,2.05,4.32,4.32,0,0,1-.4,1.88,4.93,4.93,0,0,1-1.05,1.47,5.62,5.62,0,0,1-1.44,1,5.85,5.85,0,0,1-1.58.52l-0.62-1.27a6.65,6.65,0,0,0,1.12-.38,4.42,4.42,0,0,0,1-.63,3.53,3.53,0,0,0,.77-0.88,2.43,2.43,0,0,0,.36-1.1,2.94,2.94,0,0,1-1.18,0,1.81,1.81,0,0,1-.8-0.37,1.53,1.53,0,0,1-.45-0.65A2.37,2.37,0,0,1,348,318.73Z"/><path class="cls-4" d="M359.18,320.26l6.64-13.38H358.3c0-1.08,0-1.63,0-2.71,4.21,0,6.31,0,10.52,0,0,0.9,0,1.35,0,2.25l-6.71,13.85h-2.93Z"/><path class="cls-4" d="M373.43,322.6a8,8,0,0,0,1.71-.62,7.25,7.25,0,0,0,2-1.42,8,8,0,0,0,1.63-2.39,8.51,8.51,0,0,0,.67-3.57,9.29,9.29,0,0,0-.63-3.67,7.64,7.64,0,0,0-1.56-2.39,6.64,6.64,0,0,0-1.95-1.39,9.62,9.62,0,0,0-1.83-.65L374,304a11.44,11.44,0,0,1,3.14,1.06,9.26,9.26,0,0,1,2.7,2.07,9.89,9.89,0,0,1,1.88,3.15,13.33,13.33,0,0,1,0,8.55,9.84,9.84,0,0,1-1.88,3.14,9.25,9.25,0,0,1-2.7,2.07,10.73,10.73,0,0,1-3.14,1Z"/><path class="cls-4" d="M428.15,303.1l9.11-.32c0,1,0,1.52,0,2.53l-6.25.22c0,6.53,0,9.8,0,16.33l6.25-.22c0,1,0,1.52,0,2.53l-9.11.32C428.15,315.93,428.15,311.65,428.15,303.1Z"/><path class="cls-4" d="M444.91,308.73a1.73,1.73,0,0,1,.51-1.3,2,2,0,0,1,1.34-.53,1.88,1.88,0,0,1,1.38.41,1.59,1.59,0,0,1,.51,1.26,1.77,1.77,0,0,1-.51,1.31,2,2,0,0,1-1.38.54,1.79,1.79,0,0,1-1.34-.43A1.62,1.62,0,0,1,444.91,308.73Zm0,8.33a1.73,1.73,0,0,1,.51-1.3,2,2,0,0,1,1.34-.53,1.88,1.88,0,0,1,1.38.41,1.59,1.59,0,0,1,.51,1.26,1.77,1.77,0,0,1-.51,1.31,2,2,0,0,1-1.38.54,1.79,1.79,0,0,1-1.34-.43A1.63,1.63,0,0,1,444.91,317.06Z"/><path class="cls-4" d="M454.6,315.62l2.86-.13V309l-2.86.13c0-1,0-1.52,0-2.53l5.19-.25,0.35,1.5h0.09a6.57,6.57,0,0,1,1.48-1.34,3.81,3.81,0,0,1,1.94-.6,2.49,2.49,0,0,1,2.18.9,5.36,5.36,0,0,1,.79,3.34l-2.7.14a2.24,2.24,0,0,0-.24-1.19,0.81,0.81,0,0,0-.77-0.34,2.38,2.38,0,0,0-1.49.53,5,5,0,0,0-1,1.11v4.9l5-.25v2.53c-4.34.22-6.51,0.33-10.86,0.53C454.6,317.14,454.6,316.64,454.6,315.62Z"/><path class="cls-4" d="M479.83,315.61a4.46,4.46,0,0,1-.77.58,7.86,7.86,0,0,1-1.11.56,9,9,0,0,1-1.39.45,9.17,9.17,0,0,1-1.61.23,7.64,7.64,0,0,1-2.64-.27,4.79,4.79,0,0,1-3.2-2.94,7.67,7.67,0,0,1,.06-5.2,5.72,5.72,0,0,1,1.32-2,6,6,0,0,1,2-1.25,7.89,7.89,0,0,1,2.44-.52,7.47,7.47,0,0,1,1.81.13,4.66,4.66,0,0,1,1.72.69,3.9,3.9,0,0,1,1.28,1.43,4.94,4.94,0,0,1,.5,2.36,11.12,11.12,0,0,1-.23,2.15l-8.3.47a2.56,2.56,0,0,0,.31,1.23,2.26,2.26,0,0,0,.76.79,3.11,3.11,0,0,0,1.08.41,5.33,5.33,0,0,0,1.3.08,6.93,6.93,0,0,0,2.27-.45,5.17,5.17,0,0,0,1.44-.87Zm-5-7.92a3.92,3.92,0,0,0-1.13.23,3.38,3.38,0,0,0-1,.53,2.84,2.84,0,0,0-.7.82,2.52,2.52,0,0,0-.32,1.07l5.67-.32A2.14,2.14,0,0,0,474.86,307.68Z"/><path class="cls-4" d="M493.93,314.84a7.14,7.14,0,0,1-2.21,1.21,10,10,0,0,1-2.65.53,7.33,7.33,0,0,1-2.66-.27,5,5,0,0,1-2-1.11,4.81,4.81,0,0,1-1.21-1.85,6.94,6.94,0,0,1-.41-2.46,6.69,6.69,0,0,1,.48-2.61,5.91,5.91,0,0,1,1.35-2,6.32,6.32,0,0,1,2-1.31,8.17,8.17,0,0,1,2.56-.56,9.3,9.3,0,0,1,2.42.14,10.75,10.75,0,0,1,1.73.46c0,1.62,0,2.43,0,4l-2.53.17v-2.12a6.4,6.4,0,0,0-1.43-.07,4.5,4.5,0,0,0-1.28.28A3.39,3.39,0,0,0,487,308a3.57,3.57,0,0,0-.81,1.12,3.65,3.65,0,0,0-.31,1.56,3.44,3.44,0,0,0,.25,1.34,2.9,2.9,0,0,0,1.85,1.69,4,4,0,0,0,1.51.17,5.59,5.59,0,0,0,2.15-.51,9.52,9.52,0,0,0,1.26-.73Z"/><path class="cls-4" d="M502.77,303.84l4.28-.31c0,3.2,0,4.8,0,8v1l1.75-.13v2.53l-3.64.27-0.53-1.67h-0.09a4.5,4.5,0,0,1-1.59,1.56,5.39,5.39,0,0,1-4,.62,2.64,2.64,0,0,1-1.23-.68,3.23,3.23,0,0,1-.78-1.37,7.56,7.56,0,0,1-.28-2.24v-4.62l-1.31.09c0-1,0-1.52,0-2.53l4.31-.29v6.53a3.37,3.37,0,0,0,.45,2,1.52,1.52,0,0,0,1.42.52,2.67,2.67,0,0,0,1.53-.61,3,3,0,0,0,1-1.31v-4.9l-1.29.09C502.77,305.35,502.77,304.85,502.77,303.84Z"/><path class="cls-4" d="M509.89,312.29l2.85-.21v-6.44l-2.85.21c0-1,0-1.52,0-2.53l5.18-.39,0.34,1.49h0.09A6.85,6.85,0,0,1,517,303a3.89,3.89,0,0,1,1.93-.66,2.42,2.42,0,0,1,2.18.84,5.26,5.26,0,0,1,.79,3.32l-2.69.22a2.21,2.21,0,0,0-.24-1.19,0.78,0.78,0,0,0-.77-0.32,2.44,2.44,0,0,0-1.48.58,5.23,5.23,0,0,0-1,1.13v4.9l5-.39c0,1,0,1.52,0,2.53-4.34.35-6.5,0.51-10.84,0.84C509.89,313.81,509.89,313.3,509.89,312.29Z"/><path class="cls-4" d="M527.82,311.93a1.72,1.72,0,0,1,.52-1.29,2.05,2.05,0,0,1,1.3-.57,2.1,2.1,0,0,1,1.91.67,3,3,0,0,1,.64,2,4.57,4.57,0,0,1-.4,1.92,5.59,5.59,0,0,1-1,1.56,6.57,6.57,0,0,1-3,1.79l-0.62-1.21a7.28,7.28,0,0,0,1.12-.48,5,5,0,0,0,1-.72,4,4,0,0,0,.77-0.95,2.63,2.63,0,0,0,.36-1.13,3,3,0,0,1-1.17.13,1.63,1.63,0,0,1-.79-0.3,1.34,1.34,0,0,1-.45-0.61A2.27,2.27,0,0,1,527.82,311.93Z"/><path class="cls-4" d="M538.72,296.36l9.08-.83v2.53l-6.23.57c0,6.53,0,9.8,0,16.33l6.23-.57v2.53l-9.08.83C538.72,309.2,538.72,304.92,538.72,296.36Z"/><path class="cls-4" d="M555.86,308.53a5.31,5.31,0,0,0,1.4-.32,3.93,3.93,0,0,0,1.12-.64,2.82,2.82,0,0,0,.73-0.92,2.61,2.61,0,0,0,.26-1.18,2.08,2.08,0,0,0-1-1.89,4.84,4.84,0,0,0-3-.43l-0.59.07-0.63.1-0.71.09c0-3.37,0-5.05,0-8.42l8.32-.82c0,1.12,0,1.68,0,2.8l-5.75.57c0,1.24,0,1.86,0,3.11l0.37-.06,0.31,0,0.26,0a6.48,6.48,0,0,1,2.14.12,4.29,4.29,0,0,1,1.72.83A3.94,3.94,0,0,1,562,303a5.08,5.08,0,0,1,.4,2.06,5.65,5.65,0,0,1-.51,2.43,5.71,5.71,0,0,1-1.38,1.85,7,7,0,0,1-2,1.25,8.68,8.68,0,0,1-2.46.6,6,6,0,0,1-1.08,0c-0.38,0-.76-0.08-1.13-0.14a9.4,9.4,0,0,1-1-.24c-0.31-.09-0.58-0.18-0.79-0.27l1-2.49a6.12,6.12,0,0,0,1.21.39A5.14,5.14,0,0,0,555.86,308.53Z"/><path class="cls-4" d="M569.65,307.13a5.35,5.35,0,0,0,1.4-.33,4,4,0,0,0,1.11-.65,2.85,2.85,0,0,0,.73-0.93,2.62,2.62,0,0,0,.26-1.18,2.06,2.06,0,0,0-1-1.88,4.82,4.82,0,0,0-3-.41l-0.59.07-0.63.1-0.71.1c0-3.37,0-5.05,0-8.42l8.32-.88v2.8l-5.74.61v3.11l0.37-.06,0.31,0,0.26,0a6.44,6.44,0,0,1,2.14.11,4.25,4.25,0,0,1,1.72.82,3.9,3.9,0,0,1,1.14,1.5,5.07,5.07,0,0,1,.4,2.06,5.68,5.68,0,0,1-.51,2.44,5.77,5.77,0,0,1-1.38,1.86,7.07,7.07,0,0,1-2,1.26,8.71,8.71,0,0,1-2.46.62,6,6,0,0,1-1.08,0c-0.38,0-.76-0.08-1.13-0.14a9.37,9.37,0,0,1-1-.23c-0.31-.09-0.58-0.18-0.79-0.26l1-2.49a6.12,6.12,0,0,0,1.21.38A5.13,5.13,0,0,0,569.65,307.13Z"/><path class="cls-4" d="M591.23,302.58l-2.76.32v4.49l-2.78.32v-4.49l-7,.78v-2L586,291.45l2.46-.28c0,3.73,0,5.6,0,9.34l2.76-.32v2.39Zm-5.53-6.86-4,5.56,4-.45C585.7,298.78,585.7,297.76,585.7,295.72Z"/><path class="cls-4" d="M605,300.93l-2.75.34v4.49l-2.78.34v-4.49l-7,.83v-2l7.28-10.55,2.46-.3c0,3.74,0,5.6,0,9.34l2.75-.34v2.39Zm-5.53-6.82-4,5.58,4-.48v-5.11Z"/><path class="cls-4" d="M606.4,297.17a14.38,14.38,0,0,1,.44-3.72,8.69,8.69,0,0,1,1.23-2.76,6.14,6.14,0,0,1,1.9-1.79,6.33,6.33,0,0,1,2.46-.83,4.7,4.7,0,0,1,4.47,1.46q1.56,1.83,1.56,6.11a14.5,14.5,0,0,1-.44,3.75,8.92,8.92,0,0,1-1.23,2.78,6.09,6.09,0,0,1-1.91,1.81,6.39,6.39,0,0,1-2.47.83,4.55,4.55,0,0,1-4.47-1.59Q606.4,301.27,606.4,297.17Zm3-.37c0,0.23,0,.45,0,0.65s0,0.42,0,.63l5.55-5.83a2.21,2.21,0,0,0-2.57-1.65,2.88,2.88,0,0,0-2.24,1.7A10.09,10.09,0,0,0,609.38,296.8Zm6.1-.78c0-.24,0-0.48,0-0.7s0-.44,0-0.65l-5.57,5.84a2.25,2.25,0,0,0,2.57,1.77,2.91,2.91,0,0,0,2.25-1.69A10.12,10.12,0,0,0,615.48,296Z"/><path class="cls-4" d="M624.29,301.47a1.81,1.81,0,0,1,.52-1.31,2.15,2.15,0,0,1,1.3-.63,2,2,0,0,1,1.9.57,2.89,2.89,0,0,1,.64,2,4.73,4.73,0,0,1-.4,1.94,6,6,0,0,1-1,1.61,6.84,6.84,0,0,1-1.43,1.2,6.67,6.67,0,0,1-1.57.74l-0.62-1.18a7.63,7.63,0,0,0,1.11-.54,5.34,5.34,0,0,0,1-.77,4.33,4.33,0,0,0,.77-1,2.75,2.75,0,0,0,.36-1.15,3,3,0,0,1-1.17.19,1.55,1.55,0,0,1-.79-0.26,1.26,1.26,0,0,1-.45-0.58A2.23,2.23,0,0,1,624.29,301.47Z"/><path class="cls-4" d="M645.54,295a5.61,5.61,0,0,1-.42,2.15A6.42,6.42,0,0,1,644,299a6.6,6.6,0,0,1-1.75,1.38,6.35,6.35,0,0,1-2.19.72,6.2,6.2,0,0,1-2.23-.07,4.23,4.23,0,0,1-1.82-.88,4.47,4.47,0,0,1-1.24-1.74,6.68,6.68,0,0,1-.46-2.6,11.34,11.34,0,0,1,.79-4.25,13.73,13.73,0,0,1,2-3.51,13,13,0,0,1,2.77-2.6,10.77,10.77,0,0,1,3-1.5l0.66,2.27a10.29,10.29,0,0,0-4.14,2.59,9.3,9.3,0,0,0-1.39,1.83,6.64,6.64,0,0,0-.77,2,4.33,4.33,0,0,1,1.37-1.17,5.52,5.52,0,0,1,2-.69,5.26,5.26,0,0,1,1.92.06,3.57,3.57,0,0,1,2.58,2.15A5.06,5.06,0,0,1,645.54,295Zm-2.88.53a2,2,0,0,0-.74-1.78,2.68,2.68,0,0,0-2-.36,3.72,3.72,0,0,0-1.65.65,3.58,3.58,0,0,0-1.08,1.12,4.15,4.15,0,0,0-.06.57c0,0.21,0,.37,0,0.5a2.87,2.87,0,0,0,.18,1,2.07,2.07,0,0,0,1.4,1.29,2.77,2.77,0,0,0,1.17.05,3.13,3.13,0,0,0,1-.34,3.55,3.55,0,0,0,.89-0.67,3.22,3.22,0,0,0,.63-0.93A2.71,2.71,0,0,0,642.66,295.53Z"/><path class="cls-4" d="M658.38,303.38l-9,1.34V302.2l6.2-.92V285l-6.2.92v-2.53l9-1.34v21.39Z"/><path class="cls-4" d="M672.1,301.26l-9,1.41v-2.53l6.2-1V282.85l-6.2,1v-2.53l9-1.41v21.39Z"/><path class="cls-4" d="M51.36,344.79l2.84,0.45V338.8l-2.84-.45v-2.53l5.14,0.81,0.34,1.57h0.09a4.85,4.85,0,0,1,1.46-1,3.32,3.32,0,0,1,1.92-.21,3.1,3.1,0,0,1,2.16,1.34,6.19,6.19,0,0,1,.79,3.5l-2.68-.41a2.55,2.55,0,0,0-.24-1.24,1,1,0,0,0-.77-0.5,2,2,0,0,0-1.47.23,3.71,3.71,0,0,0-.95.91v4.9l5,0.76V349c-4.31-.66-6.46-1-10.77-1.68v-2.53Z"/><path class="cls-4" d="M76.41,349.9a3.34,3.34,0,0,1-.77.43,6.37,6.37,0,0,1-1.1.33,7.75,7.75,0,0,1-1.38.16,8.75,8.75,0,0,1-1.6-.1,8.51,8.51,0,0,1-2.62-.8,6.35,6.35,0,0,1-3.18-3.59,7.67,7.67,0,0,1-.42-2.6,6.28,6.28,0,0,1,.48-2.58,4.3,4.3,0,0,1,1.32-1.7,4.6,4.6,0,0,1,2-.85,7.28,7.28,0,0,1,2.43,0,8.14,8.14,0,0,1,1.8.49,5.88,5.88,0,0,1,1.71,1,5.25,5.25,0,0,1,1.27,1.69,5.6,5.6,0,0,1,.49,2.46,10.51,10.51,0,0,1-.23,2.11l-8.24-1.21a3,3,0,0,0,.31,1.29,3,3,0,0,0,.76.94,3.87,3.87,0,0,0,1.07.63,5.78,5.78,0,0,0,1.29.34,6.44,6.44,0,0,0,2.25,0,4,4,0,0,0,1.43-.57ZM71.47,341a3.64,3.64,0,0,0-1.12,0,2.68,2.68,0,0,0-.95.34,2.11,2.11,0,0,0-.7.68,2.14,2.14,0,0,0-.32,1L74,343.82a2.89,2.89,0,0,0-.63-1.91A2.92,2.92,0,0,0,71.47,341Z"/><path class="cls-4" d="M90.43,352a5.66,5.66,0,0,1-2.2.76,9.34,9.34,0,0,1-2.63,0,8.16,8.16,0,0,1-2.64-.81A6.55,6.55,0,0,1,81,350.44a6.29,6.29,0,0,1-1.2-2.09,7.68,7.68,0,0,1-.41-2.54,6,6,0,0,1,.48-2.51,4.44,4.44,0,0,1,1.34-1.72,4.87,4.87,0,0,1,2-.9,7.51,7.51,0,0,1,2.54,0,10.13,10.13,0,0,1,2.41.64,13,13,0,0,1,1.72.81c0,1.62,0,2.43,0,4l-2.52-.35v-2.12a6.92,6.92,0,0,0-1.42-.36,4.13,4.13,0,0,0-1.27,0,2.58,2.58,0,0,0-1.92,1.42,3.26,3.26,0,0,0-.31,1.5,3.87,3.87,0,0,0,.25,1.39,3.85,3.85,0,0,0,1.84,2.07,4.48,4.48,0,0,0,1.5.48,5.09,5.09,0,0,0,2.14-.07,7.34,7.34,0,0,0,1.25-.47Z"/><path class="cls-4" d="M99.22,342.8l4.26,0.56v9l1.74,0.23v2.53l-3.62-.48-0.53-1.77H101a3.33,3.33,0,0,1-1.58,1.24,4.48,4.48,0,0,1-2.34.26,5.66,5.66,0,0,1-1.59-.45,3.45,3.45,0,0,1-1.23-.93,4.17,4.17,0,0,1-.78-1.53,8.2,8.2,0,0,1-.28-2.29c0-1.85,0-2.77,0-4.62l-1.31-.18v-2.53l4.28,0.58v6.53a3.86,3.86,0,0,0,.45,2.08,1.88,1.88,0,0,0,1.41.81,2.3,2.3,0,0,0,2.48-1.42v-4.9l-1.28-.17V342.8Z"/><path class="cls-4" d="M106.31,352.7l2.84,0.37c0-2.58,0-3.86,0-6.44l-2.84-.37v-2.53l5.16,0.66,0.34,1.56h0.09a5.06,5.06,0,0,1,1.47-1.08,3.37,3.37,0,0,1,1.93-.26,3,3,0,0,1,2.17,1.28,6.06,6.06,0,0,1,.79,3.48l-2.68-.33a2.5,2.5,0,0,0-.24-1.24,1,1,0,0,0-.77-0.48,2.07,2.07,0,0,0-1.48.27,3.87,3.87,0,0,0-1,.94c0,2,0,2.94,0,4.9l5,0.62v2.53c-4.32-.54-6.48-0.81-10.8-1.37V352.7Z"/><path class="cls-4" d="M129.61,363a11.9,11.9,0,0,1-3.12-1.38,10.86,10.86,0,0,1-2.69-2.37,11.38,11.38,0,0,1-1.87-3.35,12.71,12.71,0,0,1-.7-4.36,11.33,11.33,0,0,1,.7-4.18,8.53,8.53,0,0,1,1.87-2.94,7.88,7.88,0,0,1,2.69-1.77,10.37,10.37,0,0,1,3.12-.71l0.55,2.53a8.67,8.67,0,0,0-1.82.44,5.67,5.67,0,0,0-1.94,1.17,6.55,6.55,0,0,0-1.55,2.22,8.8,8.8,0,0,0-.63,3.6,9.1,9.1,0,0,0,.67,3.64,9.27,9.27,0,0,0,1.62,2.57,8.47,8.47,0,0,0,2,1.64,8.91,8.91,0,0,0,1.7.81Z"/><path class="cls-4" d="M135.38,356.25l3.51,0.4c0-4,0-6,0-10.05l-3,2-1.38-2,5.23-3.41,2,0.23c0,5.43,0,8.14,0,13.57l3.45,0.38v2.53l-9.81-1.1v-2.53Z"/><path class="cls-4" d="M149.16,357.78l3.51,0.37c0-4,0-6,0-10.05l-3,2-1.38-2,5.24-3.44,2,0.21c0,5.43,0,8.14,0,13.57l3.45,0.36c0,1,0,1.52,0,2.53-3.92-.4-5.89-0.61-9.81-1C149.16,359.3,149.16,358.8,149.16,357.78Z"/><path class="cls-4" d="M165.52,360.53a1.43,1.43,0,0,1,.52-1.19,1.74,1.74,0,0,1,1.3-.33,2.53,2.53,0,0,1,1.91,1,3.51,3.51,0,0,1,.64,2.11,4.1,4.1,0,0,1-.4,1.85,4.35,4.35,0,0,1-1,1.37,5,5,0,0,1-1.44.87,5.41,5.41,0,0,1-1.58.37l-0.62-1.33a6.15,6.15,0,0,0,1.11-.28,4,4,0,0,0,1-.53,3.07,3.07,0,0,0,.77-0.81,2.23,2.23,0,0,0,.36-1.07,2.94,2.94,0,0,1-1.17-.08,2,2,0,0,1-.79-0.45,1.72,1.72,0,0,1-.45-0.69A2.5,2.5,0,0,1,165.52,360.53Z"/><path class="cls-4" d="M176.74,360.55l3.52,0.33c0-4,0-6,0-10.05l-3,2-1.38-2,5.24-3.52,2,0.18c0,5.43,0,8.14,0,13.57l3.45,0.31V364l-9.82-.89C176.74,362.07,176.74,361.57,176.74,360.55Z"/><path class="cls-4" d="M189,356.12a13.29,13.29,0,0,1,.44-3.63,6.85,6.85,0,0,1,1.24-2.5,4.54,4.54,0,0,1,1.91-1.39,5.56,5.56,0,0,1,2.47-.31,5.85,5.85,0,0,1,4.48,2.41q1.57,2.16,1.57,6.44a13.4,13.4,0,0,1-.44,3.66,7,7,0,0,1-1.24,2.52,4.49,4.49,0,0,1-1.92,1.41A5.61,5.61,0,0,1,195,365a5.7,5.7,0,0,1-4.48-2.53A11.27,11.27,0,0,1,189,356.12Zm3,0.26q0,0.35,0,.66t0,0.64l5.57-4.66a2.86,2.86,0,0,0-2.58-2.19,2.23,2.23,0,0,0-2.25,1.22A9,9,0,0,0,192,356.37Zm6.12,0.51c0-.25,0-0.48,0-0.7s0-.44,0-0.66l-5.59,4.66A2.92,2.92,0,0,0,195,362.5a2.26,2.26,0,0,0,2.26-1.21A9,9,0,0,0,198.08,356.89Z"/><path class="cls-4" d="M204.67,367.86a7.38,7.38,0,0,0,1.7-.48,6.46,6.46,0,0,0,2-1.25,7.1,7.1,0,0,0,1.62-2.26,8.13,8.13,0,0,0,.67-3.51,9.72,9.72,0,0,0-.63-3.73,8.55,8.55,0,0,0-1.55-2.52,7.48,7.48,0,0,0-1.95-1.55,10.46,10.46,0,0,0-1.83-.8l0.55-2.42a12.36,12.36,0,0,1,3.13,1.33A10.46,10.46,0,0,1,211,353a11,11,0,0,1,1.88,3.3,12.42,12.42,0,0,1,.7,4.32,11.54,11.54,0,0,1-.7,4.23,8.81,8.81,0,0,1-1.88,3,8.21,8.21,0,0,1-2.69,1.84,10,10,0,0,1-3.13.77Z"/><path class="cls-4" d="M341.84,371.55V369l2.72,0v-6.44l-2.74,0v-2.53l2.74,0v-0.64a4.2,4.2,0,0,1,.38-1.86,3.7,3.7,0,0,1,1-1.28,4.07,4.07,0,0,1,1.44-.74,6,6,0,0,1,1.7-.23,10.84,10.84,0,0,1,2.62.28,6.75,6.75,0,0,1,1.7.66l-0.88,2.27a10.42,10.42,0,0,0-1.14-.46,5.05,5.05,0,0,0-1.58-.21,2.23,2.23,0,0,0-1.74.55,2.49,2.49,0,0,0-.5,1.69l4.84,0v2.53l-4.84,0v6.44l4.87,0v2.53C348.19,371.61,346.08,371.59,341.84,371.55Z"/><path class="cls-4" d="M356.12,360.92a12.62,12.62,0,0,1,2.13-.71,12.18,12.18,0,0,1,2.87-.3,6.4,6.4,0,0,1,2,.29,3.41,3.41,0,0,1,1.36.81,3.09,3.09,0,0,1,.75,1.26,5.53,5.53,0,0,1,.23,1.66q0,1.17-.08,2t-0.08,1.47a9.85,9.85,0,0,0,0,1.08c0,0.21.05,0.42,0.07,0.62H367c0,1,0,1.52,0,2.53h-3.87l-0.3-1.56h-0.11a4,4,0,0,1-1.31,1.23,4.37,4.37,0,0,1-2.29.52,3.9,3.9,0,0,1-2.73-.92,3.15,3.15,0,0,1-1-2.44,3.65,3.65,0,0,1,.35-1.67,3,3,0,0,1,1-1.15,4.9,4.9,0,0,1,1.63-.66,9.53,9.53,0,0,1,2.12-.22c0.27,0,.57,0,0.87,0l1.12,0.09a2.36,2.36,0,0,0,0-.46V364a1.47,1.47,0,0,0-.5-1.25,2.46,2.46,0,0,0-1.49-.38,7,7,0,0,0-2.11.3,13.47,13.47,0,0,0-1.58.6Zm3.93,8.45a2.76,2.76,0,0,0,1.64-.4,2.71,2.71,0,0,0,.8-0.86v-1.38l-0.68-.1a8,8,0,0,0-1-.06,4.75,4.75,0,0,0-.87.08,2.88,2.88,0,0,0-.78.25,1.51,1.51,0,0,0-.55.45,1.08,1.08,0,0,0-.2.67,1.31,1.31,0,0,0,.38,1A1.77,1.77,0,0,0,360,369.36Z"/><path class="cls-4" d="M380.48,370.43a6.69,6.69,0,0,1-2.21,1.09,9.75,9.75,0,0,1-2.65.38,7.5,7.5,0,0,1-2.66-.42,5.37,5.37,0,0,1-2-1.22,5.17,5.17,0,0,1-1.21-1.91,7.12,7.12,0,0,1-.42-2.48,6.49,6.49,0,0,1,.48-2.58,5.47,5.47,0,0,1,1.35-1.92,5.88,5.88,0,0,1,2-1.2,7.94,7.94,0,0,1,2.56-.42,9.48,9.48,0,0,1,2.42.28,11.25,11.25,0,0,1,1.73.56v4l-2.54,0v-2.12a6.49,6.49,0,0,0-1.43-.15,4.36,4.36,0,0,0-1.28.2,3.16,3.16,0,0,0-1.13.63,3.29,3.29,0,0,0-.81,1.07,3.87,3.87,0,0,0-.06,2.9,3.13,3.13,0,0,0,1.86,1.79,4.11,4.11,0,0,0,1.51.25,5.42,5.42,0,0,0,2.16-.39,8.8,8.8,0,0,0,1.26-.66Z"/><path class="cls-4" d="M384.4,362.52l-2.28,0V360l2.28,0v-2.62l3-.89V360l6-.09v2.53l-6,.09v3.29a3.92,3.92,0,0,0,.67,2.56,2.28,2.28,0,0,0,1.87.77,4,4,0,0,0,1.13-.17,4.34,4.34,0,0,0,.91-0.39,5.35,5.35,0,0,0,.74-0.52l0.61-.52,1.38,2a4.55,4.55,0,0,1-1,.86,8.54,8.54,0,0,1-1.27.69,8.15,8.15,0,0,1-1.42.47,6.81,6.81,0,0,1-1.45.18,4.91,4.91,0,0,1-3.89-1.38,6.6,6.6,0,0,1-1.3-4.55v-3.29Z"/><path class="cls-4" d="M396.38,365.56a7.12,7.12,0,0,1,.44-2.58,5.34,5.34,0,0,1,3.17-3.16,7.47,7.47,0,0,1,2.5-.45,7.18,7.18,0,0,1,2.59.38,5.2,5.2,0,0,1,1.93,1.19,5,5,0,0,1,1.19,1.89,7.25,7.25,0,0,1,.4,2.47,7.16,7.16,0,0,1-.44,2.59,5.35,5.35,0,0,1-3.17,3.17,7.42,7.42,0,0,1-2.5.46,7.13,7.13,0,0,1-2.6-.38,5.21,5.21,0,0,1-1.93-1.19,5,5,0,0,1-1.19-1.9A7.26,7.26,0,0,1,396.38,365.56Zm3.09-.06a4.51,4.51,0,0,0,.21,1.4,3.35,3.35,0,0,0,.6,1.11,2.62,2.62,0,0,0,.95.73,2.86,2.86,0,0,0,1.27.24,3,3,0,0,0,2.18-.9,3.78,3.78,0,0,0,.84-2.71,3.9,3.9,0,0,0-.78-2.55,2.65,2.65,0,0,0-2.24-.93,3.64,3.64,0,0,0-1.2.22,2.43,2.43,0,0,0-1,.65,3.18,3.18,0,0,0-.63,1.12A5,5,0,0,0,399.47,365.5Z"/><path class="cls-4" d="M410.31,368.48l2.86-.07V362l-2.86.07v-2.53l5.19-.14,0.35,1.51h0.09a6.37,6.37,0,0,1,1.48-1.31,3.74,3.74,0,0,1,1.94-.56,2.54,2.54,0,0,1,2.18.95,5.44,5.44,0,0,1,.8,3.36l-2.7.08a2.27,2.27,0,0,0-.24-1.2,0.82,0.82,0,0,0-.77-0.36,2.35,2.35,0,0,0-1.49.5,4.86,4.86,0,0,0-1,1.09v4.9l5-.15v2.53c-4.35.13-6.52,0.19-10.86,0.3v-2.53Z"/><path class="cls-4" d="M424.61,368.06l4.06-.14v-6.44l-4.06.14v-2.53l7.06-.24v9l4.27-.16v2.53c-4.53.17-6.79,0.25-11.32,0.4v-2.53Zm3.5-12.22a1.68,1.68,0,0,1,.53-1.24,2.12,2.12,0,0,1,1.48-.56,2.19,2.19,0,0,1,1.55.45,1.5,1.5,0,0,1,.58,1.2,1.55,1.55,0,0,1-.58,1.23,2.44,2.44,0,0,1-1.55.53,2.08,2.08,0,0,1-1.48-.42A1.49,1.49,0,0,1,428.11,355.85Z"/><path class="cls-4" d="M439.16,359.35a13.11,13.11,0,0,1,2.13-.8,12.36,12.36,0,0,1,2.87-.42,6.28,6.28,0,0,1,2,.2,3.22,3.22,0,0,1,1.36.76,2.92,2.92,0,0,1,.75,1.23,5.43,5.43,0,0,1,.23,1.65q0,1.17-.08,2t-0.08,1.48a9.76,9.76,0,0,0,0,1.08c0,0.21.05,0.42,0.07,0.62l1.5-.07v2.53l-3.87.17-0.3-1.55h-0.11a4.23,4.23,0,0,1-1.31,1.29,4.49,4.49,0,0,1-2.29.61,3.76,3.76,0,0,1-2.73-.81,3,3,0,0,1-1-2.4,3.74,3.74,0,0,1,.35-1.68,3.15,3.15,0,0,1,1-1.19,5.13,5.13,0,0,1,1.63-.73,9.69,9.69,0,0,1,2.12-.31c0.27,0,.57,0,0.87,0l1.12,0a2.39,2.39,0,0,0,0-.46v-0.44a1.41,1.41,0,0,0-.5-1.23,2.39,2.39,0,0,0-1.49-.32,7.09,7.09,0,0,0-2.11.39,14.09,14.09,0,0,0-1.58.66Zm3.92,8.28a2.85,2.85,0,0,0,1.64-.47,2.88,2.88,0,0,0,.8-0.9v-1.38l-0.68-.07a7.89,7.89,0,0,0-1,0,4.8,4.8,0,0,0-.87.12,3,3,0,0,0-.78.29,1.6,1.6,0,0,0-.55.47,1.12,1.12,0,0,0-.2.68,1.26,1.26,0,0,0,.38,1A1.72,1.72,0,0,0,443.08,367.63Z"/><path class="cls-4" d="M452.92,353.37l4.91-.24c0,4.25,0,6.38,0,10.63a4.79,4.79,0,0,0,.44,2.44,1.46,1.46,0,0,0,1.41.62,4,4,0,0,0,1.18-.21,4.73,4.73,0,0,0,.92-0.47l1.13,2q-0.39.27-.78,0.51a5.37,5.37,0,0,1-.83.41,5.85,5.85,0,0,1-1,.28,7.69,7.69,0,0,1-1.16.14,4.18,4.18,0,0,1-3.25-.94,4.09,4.09,0,0,1-1.08-3.08c0-3.86,0-5.8,0-9.66l-1.91.09C452.92,354.89,452.92,354.38,452.92,353.37Z"/><path class="cls-4" d="M466.55,371.47c4.09-.22,6.14-0.34,10.23-0.58v2.46c-4.09.24-6.14,0.36-10.23,0.58v-2.46Z"/><path class="cls-4" d="M478.57,352l4.65-.28c0,2.36,0,3.53,0,5.89h0.09a4.26,4.26,0,0,1,1.47-1.27,5.74,5.74,0,0,1,3.78-.45,2.81,2.81,0,0,1,1.27.68,3.28,3.28,0,0,1,.83,1.38,7.05,7.05,0,0,1,.3,2.22v7.15l-3,.2V361a2.7,2.7,0,0,0-.6-2,2,2,0,0,0-1.57-.52,2.76,2.76,0,0,0-1.57.62,3.06,3.06,0,0,0-1,1.39v7.34l-3,.18V354.43l-1.66.1V352Z"/><path class="cls-4" d="M504.69,365.14a4.55,4.55,0,0,1-.77.6,8.12,8.12,0,0,1-1.11.58,9,9,0,0,1-1.39.47,9.16,9.16,0,0,1-1.61.25,7.62,7.62,0,0,1-2.64-.23,4.69,4.69,0,0,1-3.2-2.9,6.86,6.86,0,0,1-.43-2.51,7,7,0,0,1,.48-2.69,5.84,5.84,0,0,1,1.32-2,6.08,6.08,0,0,1,2-1.27,7.94,7.94,0,0,1,2.44-.55,7.41,7.41,0,0,1,1.81.1,4.58,4.58,0,0,1,1.72.67,3.83,3.83,0,0,1,1.28,1.41,4.89,4.89,0,0,1,.5,2.36,11.2,11.2,0,0,1-.23,2.16l-8.29.59a2.53,2.53,0,0,0,.31,1.22,2.22,2.22,0,0,0,.76.77,3.06,3.06,0,0,0,1.08.4,5.3,5.3,0,0,0,1.3.06,7,7,0,0,0,2.27-.48,5.27,5.27,0,0,0,1.44-.89Zm-5-7.85a4,4,0,0,0-1.13.24,3.44,3.44,0,0,0-1,.55,2.9,2.9,0,0,0-.7.83,2.55,2.55,0,0,0-.32,1.08l5.67-.4A2.1,2.1,0,0,0,499.72,357.29Z"/><path class="cls-4" d="M508.21,350l4.9-.37c0,4.25,0,6.38,0,10.63a4.72,4.72,0,0,0,.44,2.43,1.42,1.42,0,0,0,1.4.58,4,4,0,0,0,1.17-.24,4.89,4.89,0,0,0,.92-0.5l1.13,2q-0.39.28-.78,0.53a5.54,5.54,0,0,1-.83.43,6,6,0,0,1-1,.31,7.8,7.8,0,0,1-1.16.17,4.08,4.08,0,0,1-3.25-.85,4,4,0,0,1-1.08-3c0-3.86,0-5.8,0-9.66l-1.91.14V350Z"/><path class="cls-4" d="M520,353.68l3.91-.32,0.34,1.35h0.09a4.83,4.83,0,0,1,3.87-2,5.3,5.3,0,0,1,1.94.17,3.39,3.39,0,0,1,1.52.91,4.42,4.42,0,0,1,1,1.71A8.31,8.31,0,0,1,533,358a8.76,8.76,0,0,1-.39,2.69,6.29,6.29,0,0,1-1.13,2.11,5.45,5.45,0,0,1-1.79,1.42,6.62,6.62,0,0,1-2.42.64,9.37,9.37,0,0,1-1.4,0,3.64,3.64,0,0,1-1.15-.24c0,1.89,0,2.83,0,4.71l-3,.25c0-5.43,0-8.14,0-13.57l-1.73.14v-2.53Zm7.32,1.6a3.27,3.27,0,0,0-1.6.57,2.54,2.54,0,0,0-1,1.4V362a2.26,2.26,0,0,0,.93.32,5,5,0,0,0,1.23,0,3.38,3.38,0,0,0,1.2-.32,2.76,2.76,0,0,0,1-.78,3.78,3.78,0,0,0,.64-1.27,6.18,6.18,0,0,0,.23-1.79,3.17,3.17,0,0,0-.74-2.28A2.2,2.2,0,0,0,527.34,355.28Z"/><path class="cls-4" d="M546.11,361.67a4.68,4.68,0,0,1-.77.61,8.34,8.34,0,0,1-1.1.6,9.38,9.38,0,0,1-3,.78,7.56,7.56,0,0,1-2.63-.17,4.55,4.55,0,0,1-3.2-2.83,6.79,6.79,0,0,1-.42-2.5,7.08,7.08,0,0,1,.48-2.7,6,6,0,0,1,1.32-2,6.24,6.24,0,0,1,2-1.32,8,8,0,0,1,2.44-.6,7.38,7.38,0,0,1,1.8.06,4.49,4.49,0,0,1,1.71.63,3.71,3.71,0,0,1,1.28,1.39,4.83,4.83,0,0,1,.49,2.34,11.28,11.28,0,0,1-.23,2.16l-8.28.77a2.5,2.5,0,0,0,.31,1.21,2.16,2.16,0,0,0,.76.76,3,3,0,0,0,1.08.37,5.28,5.28,0,0,0,1.3,0,7.05,7.05,0,0,0,2.27-.53,5.41,5.41,0,0,0,1.44-.92Zm-5-7.75a4,4,0,0,0-1.13.27,3.52,3.52,0,0,0-1,.57,3,3,0,0,0-.7.85,2.6,2.6,0,0,0-.32,1.08l5.66-.52A2.05,2.05,0,0,0,541.14,353.92Z"/><path class="cls-4" d="M548.52,360.13l2.85-.27c0-2.58,0-3.86,0-6.44l-2.85.27v-2.53l5.17-.5,0.34,1.48h0.09a7.06,7.06,0,0,1,1.47-1.41,4,4,0,0,1,1.93-.7,2.36,2.36,0,0,1,2.17.79,5.19,5.19,0,0,1,.79,3.3l-2.69.27a2.18,2.18,0,0,0-.24-1.18,0.76,0.76,0,0,0-.77-0.3,2.5,2.5,0,0,0-1.48.61,5.38,5.38,0,0,0-1,1.15v4.9l5-.5v2.53c-4.33.44-6.5,0.65-10.83,1.07v-2.53Z"/><path class="cls-4" d="M571.87,365.16a9.8,9.8,0,0,1-3.12-.68,7.87,7.87,0,0,1-2.69-1.76,8.48,8.48,0,0,1-1.87-2.93,11.39,11.39,0,0,1-.7-4.21,12.61,12.61,0,0,1,.7-4.34,11.44,11.44,0,0,1,1.87-3.36,10.87,10.87,0,0,1,2.69-2.38,12.72,12.72,0,0,1,3.12-1.42l0.55,2.4a10.72,10.72,0,0,0-1.83.85,7.77,7.77,0,0,0-1.94,1.61,8.89,8.89,0,0,0-1.55,2.57,9.86,9.86,0,0,0-.63,3.75,8,8,0,0,0,.67,3.49,6.8,6.8,0,0,0,1.62,2.21,6.18,6.18,0,0,0,2,1.19,7.2,7.2,0,0,0,1.7.43Z"/><path class="cls-4" d="M577.55,359.66l6.61-14.13-7.49.84c0-1.09,0-1.63,0-2.71,4.19-.46,6.28-0.7,10.47-1.18,0,0.9,0,1.35,0,2.25l-6.68,14.61Z"/><path class="cls-4" d="M590.22,347.16a6,6,0,0,1,.4-2.21,5.71,5.71,0,0,1,1.12-1.82,6.16,6.16,0,0,1,1.74-1.31,6.73,6.73,0,0,1,2.28-.68,6.46,6.46,0,0,1,2.34.11,4.18,4.18,0,0,1,1.81.94A4.42,4.42,0,0,1,601.1,344a7.2,7.2,0,0,1,.41,2.56,14.5,14.5,0,0,1-.69,4.68,11.11,11.11,0,0,1-1.85,3.45,9.51,9.51,0,0,1-2.7,2.3,11.8,11.8,0,0,1-3.21,1.26l-0.64-2.27a8.82,8.82,0,0,0,2.28-.89,8.12,8.12,0,0,0,1.78-1.35,7.06,7.06,0,0,0,1.24-1.69,5.83,5.83,0,0,0,.62-1.93,4.06,4.06,0,0,1-1.24.92,5.5,5.5,0,0,1-1.81.51h0a5.34,5.34,0,0,1-1.77-.09,4.15,4.15,0,0,1-1.62-.73,4.07,4.07,0,0,1-1.18-1.41A4.53,4.53,0,0,1,590.22,347.16Zm2.89-.5a2.38,2.38,0,0,0,.24,1.11,2.12,2.12,0,0,0,.63.75,2.33,2.33,0,0,0,.91.4,3.23,3.23,0,0,0,1.07,0,4.41,4.41,0,0,0,1.63-.5,2.85,2.85,0,0,0,1-.86,6.71,6.71,0,0,0,.07-0.93,4.24,4.24,0,0,0-.18-1.24,3,3,0,0,0-.55-1,2.3,2.3,0,0,0-.92-0.66,2.54,2.54,0,0,0-1.26-.14A2.94,2.94,0,0,0,593.11,346.65Z"/><path class="cls-4" d="M614.74,355.19c-4.09.53-6.14,0.79-10.23,1.3,0-.89,0-1.34,0-2.23l0.69-.7,0.93-1q0.52-.55,1.09-1.19t1.12-1.34q0.78-1,1.36-1.76a13.52,13.52,0,0,0,1-1.47,6.38,6.38,0,0,0,.56-1.31,4.54,4.54,0,0,0,.18-1.28,1.92,1.92,0,0,0-.21-0.87,2,2,0,0,0-.57-0.7,2.35,2.35,0,0,0-.88-0.42,3.05,3.05,0,0,0-1.14-.05,4.65,4.65,0,0,0-1.5.44,6.1,6.1,0,0,0-1.41,1l-1.19-2a11.91,11.91,0,0,1,2.14-1.43,8,8,0,0,1,2.72-.82,6.28,6.28,0,0,1,1.89,0,4.32,4.32,0,0,1,1.6.61,3.28,3.28,0,0,1,1.11,1.2,3.71,3.71,0,0,1,.41,1.81,7.27,7.27,0,0,1-.13,1.38,7.46,7.46,0,0,1-.39,1.32,10,10,0,0,1-.69,1.39q-0.42.72-1,1.58-0.46.66-1,1.34t-1.07,1.3q-0.53.62-1,1.17t-0.93.92l6.6-.85C614.74,353.67,614.74,354.18,614.74,355.19Z"/><path class="cls-4" d="M617.38,346.77a14.42,14.42,0,0,1,.44-3.73,8.77,8.77,0,0,1,1.23-2.77,6.2,6.2,0,0,1,1.9-1.8,6.36,6.36,0,0,1,2.46-.85,4.67,4.67,0,0,1,4.46,1.43q1.56,1.82,1.56,6.1a14.56,14.56,0,0,1-.44,3.75,9,9,0,0,1-1.23,2.79,6.14,6.14,0,0,1-1.91,1.82,6.43,6.43,0,0,1-2.47.85,4.52,4.52,0,0,1-4.46-1.56Q617.38,350.87,617.38,346.77Zm3-.39c0,0.23,0,.45,0,0.65s0,0.42,0,.63l5.55-5.87a2.19,2.19,0,0,0-2.57-1.63,2.9,2.9,0,0,0-2.24,1.71A10.13,10.13,0,0,0,620.36,346.38Zm6.1-.82q0-.37,0-0.7c0-.22,0-0.44,0-0.65l-5.57,5.88a2.23,2.23,0,0,0,2.57,1.75,2.93,2.93,0,0,0,2.25-1.71A10.16,10.16,0,0,0,626.46,345.56Z"/><path class="cls-4" d="M635.25,350.95a1.82,1.82,0,0,1,.52-1.31,2.17,2.17,0,0,1,1.29-.64,2,2,0,0,1,1.9.56,2.88,2.88,0,0,1,.64,2,4.76,4.76,0,0,1-.4,1.94,6.05,6.05,0,0,1-1,1.62,6.9,6.9,0,0,1-1.43,1.22,6.71,6.71,0,0,1-1.57.75l-0.62-1.18a7.67,7.67,0,0,0,1.11-.55,5.45,5.45,0,0,0,1-.78,4.38,4.38,0,0,0,.77-1,2.76,2.76,0,0,0,.35-1.15,3,3,0,0,1-1.17.2,1.53,1.53,0,0,1-.79-0.26,1.24,1.24,0,0,1-.45-0.58A2.2,2.2,0,0,1,635.25,350.95Z"/><path class="cls-4" d="M646.33,350.83l6.59-14.36-7.46,1.1c0-1.09,0-1.63,0-2.71,4.18-.61,6.26-0.92,10.43-1.55,0,0.9,0,1.35,0,2.25l-6.66,14.84Z"/><path class="cls-4" d="M660.47,351.08a9.25,9.25,0,0,0,1.69-.87,8.94,8.94,0,0,0,2-1.71,9.74,9.74,0,0,0,1.61-2.63,9.3,9.3,0,0,0,.66-3.67,8.68,8.68,0,0,0-.63-3.58,6.23,6.23,0,0,0-1.54-2.16,5.4,5.4,0,0,0-1.93-1.1,8.45,8.45,0,0,0-1.82-.38l0.55-2.55a10.07,10.07,0,0,1,3.11.6,7.47,7.47,0,0,1,2.67,1.68,8.12,8.12,0,0,1,1.86,2.87,11.17,11.17,0,0,1,.7,4.16,13,13,0,0,1-.7,4.39,11.93,11.93,0,0,1-1.86,3.42,11.42,11.42,0,0,1-2.67,2.47A12.35,12.35,0,0,1,661,353.5Z"/><path class="cls-4" d="M51.44,449.71v-2.53l2.7,0.43v-6.44l-2.72-.43V438.2l2.72,0.43V438a3.87,3.87,0,0,1,.38-1.8,3,3,0,0,1,1-1.13,3.42,3.42,0,0,1,1.43-.53,5.72,5.72,0,0,1,1.68,0,11.54,11.54,0,0,1,2.6.66,7.9,7.9,0,0,1,1.68.91L62,438.27a12.3,12.3,0,0,0-1.13-.63,5.46,5.46,0,0,0-1.57-.45,2,2,0,0,0-1.73.3,2.21,2.21,0,0,0-.49,1.61l4.8,0.74v2.53l-4.8-.74v6.44l4.83,0.74v2.53C57.74,450.7,55.64,450.37,51.44,449.71Z"/><path class="cls-4" d="M65.6,441.18a11.17,11.17,0,0,1,2.12-.39,11.82,11.82,0,0,1,2.85.13,6.9,6.9,0,0,1,2,.59,4.14,4.14,0,0,1,1.35,1,3.74,3.74,0,0,1,.74,1.37,5.91,5.91,0,0,1,.23,1.69q0,1.17-.08,2c-0.05.54-.08,1-0.08,1.46a10.09,10.09,0,0,0,0,1.09c0,0.21.05,0.43,0.07,0.63L76.35,451v2.53l-3.84-.56-0.3-1.61-0.11,0a3.19,3.19,0,0,1-1.3,1,4,4,0,0,1-2.27.18,4.47,4.47,0,0,1-2.71-1.33,3.65,3.65,0,0,1-1-2.59,3.35,3.35,0,0,1,.35-1.61,2.38,2.38,0,0,1,1-1,4.24,4.24,0,0,1,1.61-.42,9.27,9.27,0,0,1,2.1.09q0.41,0.06.86,0.17l1.11,0.26a2.28,2.28,0,0,0,0-.45v-0.44a1.7,1.7,0,0,0-.5-1.33,2.76,2.76,0,0,0-1.48-.6,6.64,6.64,0,0,0-2.09,0,11.75,11.75,0,0,0-1.57.36Zm3.89,9a2.52,2.52,0,0,0,1.63-.16,2.16,2.16,0,0,0,.79-0.75v-1.38l-0.68-.2a8.27,8.27,0,0,0-1-.2,4.63,4.63,0,0,0-.86,0,2.56,2.56,0,0,0-.77.14,1.21,1.21,0,0,0-.54.37,1,1,0,0,0-.2.64,1.51,1.51,0,0,0,.37,1.06A2,2,0,0,0,69.49,450.2Z"/><path class="cls-4" d="M89.77,454.29a5.66,5.66,0,0,1-2.2.76,9.32,9.32,0,0,1-2.63,0,8.16,8.16,0,0,1-2.65-.81,6.56,6.56,0,0,1-1.95-1.51,6.29,6.29,0,0,1-1.2-2.09,7.69,7.69,0,0,1-.41-2.54,6,6,0,0,1,.48-2.51,4.44,4.44,0,0,1,1.34-1.72,4.88,4.88,0,0,1,2-.9,7.51,7.51,0,0,1,2.54,0,10.12,10.12,0,0,1,2.4.64,12.91,12.91,0,0,1,1.72.81v4l-2.52-.35V446a6.92,6.92,0,0,0-1.42-.36,4.15,4.15,0,0,0-1.27,0A2.58,2.58,0,0,0,82.11,447a3.26,3.26,0,0,0-.31,1.5,3.85,3.85,0,0,0,.25,1.39A3.85,3.85,0,0,0,83.9,452a4.48,4.48,0,0,0,1.5.48,5.09,5.09,0,0,0,2.14-.07,7.35,7.35,0,0,0,1.25-.47Z"/><path class="cls-4" d="M93.67,447l-2.27-.31v-2.53l2.27,0.31v-2.62l3-.45v3.47l6,0.8v2.53l-6-.8v3.29a4.38,4.38,0,0,0,.66,2.65,2.66,2.66,0,0,0,1.86,1,3.83,3.83,0,0,0,1.12,0,3.75,3.75,0,0,0,.91-0.26,4.31,4.31,0,0,0,.73-0.41l0.61-.43,1.38,2.25a3.66,3.66,0,0,1-1,.71,7.11,7.11,0,0,1-1.26.5,7.25,7.25,0,0,1-1.41.26,6.58,6.58,0,0,1-1.44,0A5.68,5.68,0,0,1,95,455a7.45,7.45,0,0,1-1.29-4.74V447Z"/><path class="cls-4" d="M105.56,451.76a6.66,6.66,0,0,1,.44-2.52,4.42,4.42,0,0,1,1.24-1.75,4.51,4.51,0,0,1,1.91-.94,7,7,0,0,1,2.49-.08,7.8,7.8,0,0,1,2.58.76,6.34,6.34,0,0,1,1.92,1.47,6.08,6.08,0,0,1,1.18,2.07,7.81,7.81,0,0,1,.4,2.53,6.68,6.68,0,0,1-.44,2.52,4.35,4.35,0,0,1-3.15,2.7,7,7,0,0,1-2.49.09,7.75,7.75,0,0,1-2.58-.77,6.35,6.35,0,0,1-1.91-1.48A6.1,6.1,0,0,1,106,454.3,7.82,7.82,0,0,1,105.56,451.76Zm3.07,0.4a4.83,4.83,0,0,0,.21,1.43,4,4,0,0,0,.6,1.2,3.25,3.25,0,0,0,.94.87,3.16,3.16,0,0,0,1.26.43,2.61,2.61,0,0,0,2.17-.58,3.34,3.34,0,0,0,.84-2.59,4.42,4.42,0,0,0-.78-2.66,3.1,3.1,0,0,0-2.22-1.26,3.42,3.42,0,0,0-1.19,0,2,2,0,0,0-1,.51,2.61,2.61,0,0,0-.63,1A4.7,4.7,0,0,0,108.63,452.16Z"/><path class="cls-4" d="M119.41,456.74l2.85,0.35v-6.44l-2.85-.35v-2.53l5.16,0.63,0.34,1.56H125a5.13,5.13,0,0,1,1.47-1.09,3.39,3.39,0,0,1,1.93-.28,3,3,0,0,1,2.17,1.27,6,6,0,0,1,.79,3.47l-2.69-.32a2.49,2.49,0,0,0-.24-1.24,1,1,0,0,0-.77-0.47,2.08,2.08,0,0,0-1.48.28,3.89,3.89,0,0,0-1,.94v4.9l5,0.59v2.53c-4.32-.51-6.49-0.77-10.81-1.3v-2.53Z"/><path class="cls-4" d="M133.64,458.43l4,0.46v-6.44l-4-.46v-2.53l7,0.8v9l4.25,0.47v2.53c-4.51-.5-6.77-0.75-11.27-1.27v-2.53Zm3.49-11.7a1.44,1.44,0,0,1,.53-1.16,1.86,1.86,0,0,1,1.47-.34,2.5,2.5,0,0,1,1.54.68,1.77,1.77,0,0,1,.57,1.28,1.32,1.32,0,0,1-.57,1.14,2.17,2.17,0,0,1-1.54.3,2.37,2.37,0,0,1-1.47-.64A1.73,1.73,0,0,1,137.13,446.73Z"/><path class="cls-4" d="M148.13,451.86a11.54,11.54,0,0,1,2.12-.48,11.87,11.87,0,0,1,2.86,0,6.72,6.72,0,0,1,2,.5,3.91,3.91,0,0,1,1.36,1,3.55,3.55,0,0,1,.75,1.34,5.79,5.79,0,0,1,.23,1.68q0,1.17-.08,2t-0.08,1.46a10,10,0,0,0,0,1.09c0,0.21.05,0.43,0.07,0.63l1.49,0.15v2.53l-3.86-.4-0.3-1.6h-0.11a3.4,3.4,0,0,1-1.3,1.09,4.1,4.1,0,0,1-2.28.28,4.29,4.29,0,0,1-2.72-1.21,3.5,3.5,0,0,1-1-2.55,3.42,3.42,0,0,1,.35-1.63,2.54,2.54,0,0,1,1-1,4.41,4.41,0,0,1,1.62-.49,9.32,9.32,0,0,1,2.11,0q0.41,0,.87.14l1.12,0.21a2.3,2.3,0,0,0,0-.46v-0.44a1.63,1.63,0,0,0-.5-1.31,2.66,2.66,0,0,0-1.48-.54,6.7,6.7,0,0,0-2.1.08,12.19,12.19,0,0,0-1.57.43Zm3.91,8.86a2.58,2.58,0,0,0,1.64-.23,2.31,2.31,0,0,0,.8-0.78v-1.38l-0.68-.18a8.13,8.13,0,0,0-1-.16,4.64,4.64,0,0,0-.86,0,2.64,2.64,0,0,0-.77.17,1.29,1.29,0,0,0-.55.39,1,1,0,0,0-.2.65,1.45,1.45,0,0,0,.37,1A1.94,1.94,0,0,0,152,460.72Z"/><path class="cls-4" d="M161.85,447.92l4.9,0.49V459a5.2,5.2,0,0,0,.44,2.5,1.72,1.72,0,0,0,1.4.83,3.76,3.76,0,0,0,1.17,0,4,4,0,0,0,.92-0.34l1.13,2.18q-0.39.22-.78,0.4a4.57,4.57,0,0,1-.83.29,5.29,5.29,0,0,1-1,.14,7.52,7.52,0,0,1-1.16,0,4.78,4.78,0,0,1-3.24-1.42,4.68,4.68,0,0,1-1.08-3.24v-9.66l-1.91-.19v-2.53Z"/><path class="cls-4" d="M184.1,471a11.59,11.59,0,0,1-3.13-1.29,10.44,10.44,0,0,1-2.69-2.29,11,11,0,0,1-1.87-3.3,12.52,12.52,0,0,1-.7-4.34,11.46,11.46,0,0,1,.7-4.2,8.84,8.84,0,0,1,1.87-3,8.2,8.2,0,0,1,2.69-1.85,10.61,10.61,0,0,1,3.13-.8l0.55,2.51a8.9,8.9,0,0,0-1.83.49,5.88,5.88,0,0,0-1.94,1.23,6.8,6.8,0,0,0-1.55,2.26,9.26,9.26,0,0,0,1.66,9.78,8.16,8.16,0,0,0,2,1.58,8.63,8.63,0,0,0,1.7.76Z"/><path class="cls-4" d="M189.88,464.12l3.52,0.3V454.37l-3,2.06-1.38-2,5.25-3.55,2,0.17v13.57l3.45,0.28v2.53l-9.83-.83v-2.53Z"/><path class="cls-4" d="M203.69,465.26l3.52,0.28V455.49l-3,2.08-1.38-1.95L208,452l2,0.16v13.57l3.45,0.26v2.53l-9.83-.76v-2.53Z"/><path class="cls-4" d="M217.82,471.24a7.42,7.42,0,0,0,1.7-.49,6.52,6.52,0,0,0,2-1.26,7.16,7.16,0,0,0,1.62-2.27,8.17,8.17,0,0,0,.67-3.52,9.68,9.68,0,0,0-.63-3.72,8.48,8.48,0,0,0-1.55-2.51,7.41,7.41,0,0,0-1.95-1.54,10.35,10.35,0,0,0-1.83-.79l0.55-2.42a12.29,12.29,0,0,1,3.13,1.3,10.34,10.34,0,0,1,2.69,2.28,10.93,10.93,0,0,1,1.88,3.29,12.39,12.39,0,0,1,.7,4.31,11.58,11.58,0,0,1-.7,4.23,8.89,8.89,0,0,1-1.88,3A8.28,8.28,0,0,1,221.5,473a10.07,10.07,0,0,1-3.13.79Z"/><path class="cls-4" d="M369.47,474v-2.53h2.72V465h-2.74V462.5h2.74v-0.64a4.24,4.24,0,0,1,.38-1.87,3.78,3.78,0,0,1,1-1.29,4.15,4.15,0,0,1,1.44-.76,6,6,0,0,1,1.7-.25,10.78,10.78,0,0,1,2.62.24,6.64,6.64,0,0,1,1.7.64l-0.88,2.29a10.32,10.32,0,0,0-1.14-.45,5,5,0,0,0-1.58-.19,2.26,2.26,0,0,0-1.74.58,2.52,2.52,0,0,0-.5,1.69l4.84,0V465l-4.84,0v6.44l4.87,0v2.53C375.82,474,373.7,474,369.47,474Z"/><path class="cls-4" d="M383.75,463.16a12.74,12.74,0,0,1,2.13-.74,12.23,12.23,0,0,1,2.87-.34,6.36,6.36,0,0,1,2,.26,3.34,3.34,0,0,1,1.36.8,3,3,0,0,1,.75,1.25,5.49,5.49,0,0,1,.23,1.65q0,1.17-.08,2T393,469.52a9.83,9.83,0,0,0,0,1.08c0,0.21.05,0.42,0.07,0.62l1.5,0v2.53l-3.87.06-0.3-1.56H390.3a4.06,4.06,0,0,1-1.31,1.25,4.41,4.41,0,0,1-2.29.55,3.85,3.85,0,0,1-2.73-.89,3.11,3.11,0,0,1-1-2.43,3.68,3.68,0,0,1,.35-1.67,3,3,0,0,1,1-1.16,5,5,0,0,1,1.63-.69,9.58,9.58,0,0,1,2.12-.25,8.7,8.7,0,0,1,.87,0l1.12,0.08a2.37,2.37,0,0,0,0-.46v-0.44a1.45,1.45,0,0,0-.5-1.25,2.43,2.43,0,0,0-1.49-.36,7,7,0,0,0-2.11.33,13.74,13.74,0,0,0-1.58.62Zm3.93,8.39a2.53,2.53,0,0,0,2.44-1.3v-1.38l-0.68-.09a7.86,7.86,0,0,0-1,0,4.76,4.76,0,0,0-.87.09,2.92,2.92,0,0,0-.78.26,1.54,1.54,0,0,0-.55.46,1.1,1.1,0,0,0-.2.67,1.29,1.29,0,0,0,.38,1A1.75,1.75,0,0,0,387.68,471.55Z"/><path class="cls-4" d="M408.11,472.34a6.8,6.8,0,0,1-2.21,1.12,9.82,9.82,0,0,1-2.65.42,7.45,7.45,0,0,1-2.66-.38,5.27,5.27,0,0,1-2-1.19,5.07,5.07,0,0,1-1.21-1.9,7.08,7.08,0,0,1-.42-2.48,6.53,6.53,0,0,1,.48-2.59,5.58,5.58,0,0,1,1.35-1.94,6,6,0,0,1,2-1.23,8,8,0,0,1,2.56-.46,9.42,9.42,0,0,1,2.42.24,11.12,11.12,0,0,1,1.73.53v4l-2.54.06V464.5a6.48,6.48,0,0,0-1.43-.13,4.4,4.4,0,0,0-1.28.22,3.22,3.22,0,0,0-1.13.64,3.36,3.36,0,0,0-.81,1.09,3.55,3.55,0,0,0-.31,1.55,3.51,3.51,0,0,0,.25,1.35,3.07,3.07,0,0,0,1.86,1.77,4.08,4.08,0,0,0,1.51.23,5.46,5.46,0,0,0,2.16-.42,9,9,0,0,0,1.26-.67Z"/><path class="cls-4" d="M412,464.37l-2.28.06V461.9l2.28-.06v-2.62l3-.93v3.47l6-.18v2.53l-6,.18v3.29a3.88,3.88,0,0,0,.67,2.55,2.24,2.24,0,0,0,1.87.74,4,4,0,0,0,1.13-.18,4.4,4.4,0,0,0,.91-0.41,5.44,5.44,0,0,0,.74-0.53l0.61-.52,1.38,2a4.65,4.65,0,0,1-1,.87,8.72,8.72,0,0,1-1.27.71,8.25,8.25,0,0,1-1.42.49,6.84,6.84,0,0,1-1.45.2,4.85,4.85,0,0,1-3.89-1.33q-1.3-1.4-1.3-4.53v-3.29Z"/><path class="cls-4" d="M424,467.24a7.17,7.17,0,0,1,.44-2.59,5.52,5.52,0,0,1,1.25-1.95,5.57,5.57,0,0,1,1.93-1.25,7.53,7.53,0,0,1,2.5-.49,7.13,7.13,0,0,1,2.59.34,5.11,5.11,0,0,1,1.93,1.16,4.92,4.92,0,0,1,1.19,1.88,7.82,7.82,0,0,1,0,5.06,5.46,5.46,0,0,1-3.17,3.21,7.47,7.47,0,0,1-2.5.49,7.08,7.08,0,0,1-2.59-.35,5.11,5.11,0,0,1-1.93-1.17,4.94,4.94,0,0,1-1.19-1.88A7.22,7.22,0,0,1,424,467.24Zm3.09-.1a4.48,4.48,0,0,0,.21,1.4,3.3,3.3,0,0,0,.6,1.11,2.57,2.57,0,0,0,.94.71,2.84,2.84,0,0,0,1.27.22,3,3,0,0,0,2.18-.93,4.66,4.66,0,0,0,.06-5.26,2.61,2.61,0,0,0-2.24-.9,3.66,3.66,0,0,0-1.2.24,2.48,2.48,0,0,0-1,.67,3.24,3.24,0,0,0-.63,1.13A5,5,0,0,0,427.09,467.14Z"/><path class="cls-4" d="M437.93,470l2.86-.11v-6.44l-2.86.11V461l5.19-.21,0.35,1.5h0.09A6.5,6.5,0,0,1,445,461a3.78,3.78,0,0,1,1.94-.59,2.51,2.51,0,0,1,2.18.91,5.39,5.39,0,0,1,.79,3.34l-2.7.12a2.25,2.25,0,0,0-.24-1.2,0.81,0.81,0,0,0-.77-0.35,2.37,2.37,0,0,0-1.49.52,5,5,0,0,0-1,1.1v4.9l5-.22V472c-4.34.19-6.52,0.29-10.86,0.46V470Z"/><path class="cls-4" d="M452.22,469.35l4.06-.19v-6.44l-4.06.19v-2.53l7.05-.34v9l4.26-.22v2.53c-4.53.24-6.79,0.35-11.32,0.56v-2.53Zm3.5-12.26a1.71,1.71,0,0,1,.53-1.24,2.52,2.52,0,0,1,3-.15,1.48,1.48,0,0,1,.58,1.19,1.57,1.57,0,0,1-.58,1.24,2.47,2.47,0,0,1-1.54.55,2.06,2.06,0,0,1-1.47-.4A1.46,1.46,0,0,1,455.73,457.09Z"/><path class="cls-4" d="M466.77,460.43a13.29,13.29,0,0,1,2.13-.83,12.43,12.43,0,0,1,2.87-.46,6.25,6.25,0,0,1,2,.17,3.16,3.16,0,0,1,1.36.74,2.87,2.87,0,0,1,.75,1.22,5.41,5.41,0,0,1,.23,1.64q0,1.17-.08,2T476,466.4a9.74,9.74,0,0,0,0,1.08c0,0.21.05,0.42,0.07,0.62l1.5-.09v2.53l-3.87.23-0.3-1.55h-0.11a4.32,4.32,0,0,1-1.31,1.3,4.54,4.54,0,0,1-2.29.65,3.71,3.71,0,0,1-2.73-.77,3,3,0,0,1-1-2.38,3.78,3.78,0,0,1,.35-1.69,3.22,3.22,0,0,1,1-1.21,5.2,5.2,0,0,1,1.63-.76,9.72,9.72,0,0,1,2.12-.34c0.27,0,.57,0,0.87,0l1.12,0a2.41,2.41,0,0,0,0-.46v-0.44a1.39,1.39,0,0,0-.5-1.23,2.36,2.36,0,0,0-1.49-.29,7.14,7.14,0,0,0-2.1.42,14.29,14.29,0,0,0-1.58.68Zm3.92,8.22a2.88,2.88,0,0,0,1.64-.49,2.94,2.94,0,0,0,.8-0.91v-1.38l-0.68-.06a7.92,7.92,0,0,0-1,0,4.87,4.87,0,0,0-.87.13,3,3,0,0,0-.77.3,1.63,1.63,0,0,0-.55.48,1.13,1.13,0,0,0-.2.68,1.24,1.24,0,0,0,.38,1A1.69,1.69,0,0,0,470.69,468.66Z"/><path class="cls-4" d="M480.52,454.26l4.91-.31v10.63a4.76,4.76,0,0,0,.44,2.43,1.44,1.44,0,0,0,1.41.6,4,4,0,0,0,1.17-.23,4.82,4.82,0,0,0,.92-0.49l1.13,2q-0.39.28-.78,0.52a5.47,5.47,0,0,1-.83.42,5.89,5.89,0,0,1-1,.29,7.73,7.73,0,0,1-1.16.16,4.13,4.13,0,0,1-3.25-.9,4,4,0,0,1-1.08-3.06v-9.66l-1.91.12v-2.53Z"/><path class="cls-4" d="M494.14,472.17c4.09-.28,6.14-0.42,10.22-0.72v2.46c-4.09.3-6.13,0.44-10.22,0.72v-2.46Z"/><path class="cls-4" d="M506.16,452.53l4.65-.35c0,2.36,0,3.53,0,5.89h0.09a4.34,4.34,0,0,1,1.47-1.29,5.76,5.76,0,0,1,3.78-.5,2.76,2.76,0,0,1,1.27.66,3.22,3.22,0,0,1,.83,1.37,7,7,0,0,1,.3,2.22c0,2.86,0,4.29,0,7.15l-3,.24v-6.53a2.67,2.67,0,0,0-.6-2,1.94,1.94,0,0,0-1.57-.5,2.8,2.8,0,0,0-1.56.64,3.12,3.12,0,0,0-1,1.4c0,2.93,0,4.4,0,7.34l-3,.23V454.94l-1.66.12v-2.53Z"/><path class="cls-4" d="M532.26,465.31a4.62,4.62,0,0,1-.77.61,8.27,8.27,0,0,1-1.1.59,9.34,9.34,0,0,1-3,.76,7.59,7.59,0,0,1-2.63-.19,4.6,4.6,0,0,1-3.2-2.85,6.81,6.81,0,0,1-.43-2.51,7,7,0,0,1,.48-2.7,6,6,0,0,1,1.32-2,6.19,6.19,0,0,1,2-1.3,8,8,0,0,1,2.44-.59,7.38,7.38,0,0,1,1.81.08,4.51,4.51,0,0,1,1.71.65,3.75,3.75,0,0,1,1.28,1.4,4.85,4.85,0,0,1,.5,2.35,11.26,11.26,0,0,1-.23,2.16l-8.28.71a2.51,2.51,0,0,0,.31,1.22,2.18,2.18,0,0,0,.76.76,3,3,0,0,0,1.08.38,5.3,5.3,0,0,0,1.3,0,7,7,0,0,0,2.27-.52,5.36,5.36,0,0,0,1.44-.91Zm-5-7.78a4,4,0,0,0-1.13.26,3.5,3.5,0,0,0-1,.56,3,3,0,0,0-.7.84,2.58,2.58,0,0,0-.32,1.08l5.66-.48A2.07,2.07,0,0,0,527.29,457.52Z"/><path class="cls-4" d="M535.77,450.11l4.9-.44c0,4.25,0,6.38,0,10.63a4.69,4.69,0,0,0,.44,2.42,1.4,1.4,0,0,0,1.4.56,4,4,0,0,0,1.17-.26,5,5,0,0,0,.92-0.51l1.13,2q-0.39.29-.78,0.55a5.66,5.66,0,0,1-.83.45,6.06,6.06,0,0,1-1,.32A7.81,7.81,0,0,1,542,466a4,4,0,0,1-3.24-.81,3.94,3.94,0,0,1-1.08-3v-9.66l-1.91.17v-2.53Z"/><path class="cls-4" d="M547.57,453.63l3.91-.38,0.34,1.35h0.09a4.9,4.9,0,0,1,3.86-2.08,5.28,5.28,0,0,1,1.94.14,3.32,3.32,0,0,1,1.52.89,4.33,4.33,0,0,1,1,1.69,8.27,8.27,0,0,1,.34,2.56,8.82,8.82,0,0,1-.39,2.7,6.4,6.4,0,0,1-1.13,2.13,5.56,5.56,0,0,1-1.79,1.45,6.68,6.68,0,0,1-2.41.68,9.42,9.42,0,0,1-1.4,0,3.61,3.61,0,0,1-1.15-.22c0,1.89,0,2.83,0,4.71l-3,.29V456l-1.72.17v-2.53Zm7.31,1.5a3.3,3.3,0,0,0-1.6.59,2.59,2.59,0,0,0-1,1.41v4.78a2.23,2.23,0,0,0,.93.31,5,5,0,0,0,1.23,0,3.41,3.41,0,0,0,1.2-.34,2.82,2.82,0,0,0,1-.8,3.85,3.85,0,0,0,.64-1.28,6.22,6.22,0,0,0,.23-1.79,3.13,3.13,0,0,0-.74-2.27A2.17,2.17,0,0,0,554.88,455.12Z"/><path class="cls-4" d="M573.63,461.25a4.78,4.78,0,0,1-.77.62,8.47,8.47,0,0,1-1.1.61,9.45,9.45,0,0,1-3,.83,7.52,7.52,0,0,1-2.63-.14,4.46,4.46,0,0,1-3.19-2.79,6.75,6.75,0,0,1-.42-2.5,7.13,7.13,0,0,1,.48-2.71,6.13,6.13,0,0,1,1.32-2,6.36,6.36,0,0,1,2-1.34,8.1,8.1,0,0,1,2.44-.64,7.36,7.36,0,0,1,1.8,0,4.42,4.42,0,0,1,1.71.61,3.63,3.63,0,0,1,1.27,1.37,4.8,4.8,0,0,1,.49,2.34,11.35,11.35,0,0,1-.23,2.16l-8.27.88a2.48,2.48,0,0,0,.31,1.21,2.11,2.11,0,0,0,.76.75,3,3,0,0,0,1.08.36,5.28,5.28,0,0,0,1.3,0,7.12,7.12,0,0,0,2.26-.56,5.5,5.5,0,0,0,1.44-.94Zm-5-7.68a4,4,0,0,0-1.13.28,3.58,3.58,0,0,0-1,.58,3,3,0,0,0-.7.86,2.63,2.63,0,0,0-.32,1.09l5.65-.6A2,2,0,0,0,568.67,453.57Z"/><path class="cls-4" d="M576,459.68l2.85-.31v-6.44l-2.85.31v-2.53l5.17-.57,0.34,1.48h0.09a7.21,7.21,0,0,1,1.47-1.43,4,4,0,0,1,1.93-.73,2.33,2.33,0,0,1,2.17.76,5.15,5.15,0,0,1,.79,3.29l-2.69.31a2.16,2.16,0,0,0-.24-1.18,0.75,0.75,0,0,0-.77-0.29,2.53,2.53,0,0,0-1.48.63,5.5,5.5,0,0,0-1,1.17V459l5-.57V461c-4.32.5-6.49,0.74-10.82,1.22v-2.53Z"/><path class="cls-4" d="M599.37,464.38a9.68,9.68,0,0,1-3.12-.63,7.71,7.71,0,0,1-2.68-1.73,8.33,8.33,0,0,1-1.87-2.91,11.33,11.33,0,0,1-.7-4.2,12.71,12.71,0,0,1,.7-4.35,11.64,11.64,0,0,1,1.87-3.38,11.09,11.09,0,0,1,2.68-2.42,12.91,12.91,0,0,1,3.12-1.46l0.55,2.39a10.89,10.89,0,0,0-1.82.88,7.92,7.92,0,0,0-1.94,1.64,9.05,9.05,0,0,0-1.55,2.59,9.94,9.94,0,0,0-.63,3.76,8,8,0,0,0,.67,3.49,6.67,6.67,0,0,0,1.62,2.19,6.06,6.06,0,0,0,2,1.17,7.1,7.1,0,0,0,1.7.4Z"/><path class="cls-4" d="M605.13,456.26l3.51-.44V445.77l-3,2.7-1.38-1.67,5.23-4.66,2-.26v13.57l3.44-.44v2.53l-9.79,1.25v-2.53Z"/><path class="cls-4" d="M621.45,455.21a1.81,1.81,0,0,1,.52-1.31,2.16,2.16,0,0,1,1.3-.63,2,2,0,0,1,1.9.57,2.89,2.89,0,0,1,.64,2,4.74,4.74,0,0,1-.4,1.94,6,6,0,0,1-1,1.61,6.82,6.82,0,0,1-1.43,1.21,6.65,6.65,0,0,1-1.57.74l-0.62-1.18a7.66,7.66,0,0,0,1.11-.54,5.41,5.41,0,0,0,1-.77,4.33,4.33,0,0,0,.77-1,2.74,2.74,0,0,0,.36-1.15,3,3,0,0,1-1.17.19,1.54,1.54,0,0,1-.79-0.26,1.25,1.25,0,0,1-.45-0.58A2.21,2.21,0,0,1,621.45,455.21Z"/><path class="cls-4" d="M632.63,452.63l3.5-.49V442.09l-3,2.75-1.37-1.65,5.22-4.73,2-.29v13.57l3.43-.49v2.53c-3.91.56-5.87,0.84-9.78,1.39v-2.53Z"/><path class="cls-4" d="M646.37,450.67l3.5-.52V440.1l-3,2.77-1.37-1.64,5.22-4.77,2-.3v13.57l3.43-.52v2.53c-3.91.59-5.86,0.88-9.77,1.45v-2.53Z"/><path class="cls-4" d="M660.42,453.46a9.23,9.23,0,0,0,1.69-.87,8.94,8.94,0,0,0,2-1.71,9.74,9.74,0,0,0,1.61-2.63,9.3,9.3,0,0,0,.66-3.67,8.67,8.67,0,0,0-.63-3.58,6.23,6.23,0,0,0-1.54-2.16,5.39,5.39,0,0,0-1.93-1.1,8.45,8.45,0,0,0-1.82-.38l0.55-2.55a10.07,10.07,0,0,1,3.11.6,7.47,7.47,0,0,1,2.67,1.68,8.13,8.13,0,0,1,1.86,2.87,11.17,11.17,0,0,1,.7,4.16,13,13,0,0,1-.7,4.39,11.93,11.93,0,0,1-1.86,3.42,11.42,11.42,0,0,1-2.67,2.46,12.34,12.34,0,0,1-3.11,1.49Z"/><path class="cls-4" d="M51.74,398.56V396l2.7,0.43V390l-2.72-.43c0-1,0-1.52,0-2.53l2.72,0.43v-0.64a3.87,3.87,0,0,1,.38-1.8,3,3,0,0,1,1-1.13,3.43,3.43,0,0,1,1.43-.53,5.72,5.72,0,0,1,1.68,0,11.54,11.54,0,0,1,2.6.66,7.87,7.87,0,0,1,1.68.91l-0.87,2.14a12.3,12.3,0,0,0-1.13-.63,5.44,5.44,0,0,0-1.57-.45,2,2,0,0,0-1.73.3,2.21,2.21,0,0,0-.49,1.61l4.8,0.74c0,1,0,1.52,0,2.53l-4.8-.74v6.44l4.82,0.74c0,1,0,1.52,0,2.53C58,399.56,55.94,399.23,51.74,398.56Z"/><path class="cls-4" d="M65.9,390a11.18,11.18,0,0,1,2.12-.39,11.8,11.8,0,0,1,2.85.12,6.9,6.9,0,0,1,2,.59,4.14,4.14,0,0,1,1.35,1,3.74,3.74,0,0,1,.74,1.37,5.92,5.92,0,0,1,.23,1.69q0,1.17-.08,2c-0.05.54-.08,1-0.08,1.46a10,10,0,0,0,0,1.09c0,0.21.05,0.43,0.07,0.63l1.49,0.22c0,1,0,1.52,0,2.53l-3.84-.56-0.3-1.61-0.11,0a3.19,3.19,0,0,1-1.3,1,4,4,0,0,1-2.27.18,4.47,4.47,0,0,1-2.71-1.33,3.65,3.65,0,0,1-1-2.59,3.35,3.35,0,0,1,.35-1.61,2.39,2.39,0,0,1,1-1,4.24,4.24,0,0,1,1.61-.42,9.27,9.27,0,0,1,2.1.09q0.41,0.06.86,0.17L72.19,395a2.28,2.28,0,0,0,0-.45v-0.44a1.7,1.7,0,0,0-.5-1.33,2.76,2.76,0,0,0-1.48-.6,6.64,6.64,0,0,0-2.09,0,11.79,11.79,0,0,0-1.57.36Zm3.89,9a2.52,2.52,0,0,0,1.63-.16,2.17,2.17,0,0,0,.79-0.75v-1.38l-0.68-.2a8.29,8.29,0,0,0-1-.2,4.63,4.63,0,0,0-.86,0,2.56,2.56,0,0,0-.77.14,1.22,1.22,0,0,0-.54.37,1,1,0,0,0-.2.64,1.51,1.51,0,0,0,.37,1.06A2,2,0,0,0,69.79,399.06Z"/><path class="cls-4" d="M90.07,403.15a5.66,5.66,0,0,1-2.2.76,9.32,9.32,0,0,1-2.63,0,8.17,8.17,0,0,1-2.65-.81,6.56,6.56,0,0,1-1.95-1.51,6.3,6.3,0,0,1-1.2-2.09,7.69,7.69,0,0,1-.41-2.54,6,6,0,0,1,.48-2.51,4.44,4.44,0,0,1,1.34-1.72,4.87,4.87,0,0,1,2-.9,7.52,7.52,0,0,1,2.54,0,10.12,10.12,0,0,1,2.4.64,12.91,12.91,0,0,1,1.72.81c0,1.62,0,2.43,0,4L87,396.93v-2.12a6.94,6.94,0,0,0-1.42-.36,4.15,4.15,0,0,0-1.27,0,2.58,2.58,0,0,0-1.92,1.42,3.25,3.25,0,0,0-.31,1.5,3.85,3.85,0,0,0,.25,1.39,3.85,3.85,0,0,0,1.84,2.07,4.48,4.48,0,0,0,1.5.48,5.09,5.09,0,0,0,2.14-.07,7.33,7.33,0,0,0,1.25-.47Z"/><path class="cls-4" d="M94,395.81l-2.27-.31c0-1,0-1.52,0-2.53L94,393.28c0-1,0-1.57,0-2.62l3-.45c0,1.39,0,2.08,0,3.47l6,0.8c0,1,0,1.52,0,2.53l-6-.8c0,1.32,0,2,0,3.29a4.38,4.38,0,0,0,.66,2.65,2.66,2.66,0,0,0,1.86,1,3.84,3.84,0,0,0,1.12,0,3.74,3.74,0,0,0,.91-0.26,4.32,4.32,0,0,0,.73-0.41l0.61-.43,1.38,2.25a3.67,3.67,0,0,1-1,.71,7.11,7.11,0,0,1-1.26.5,7.19,7.19,0,0,1-1.41.26,6.58,6.58,0,0,1-1.44,0,5.68,5.68,0,0,1-3.86-2A7.45,7.45,0,0,1,94,399.1C94,397.79,94,397.13,94,395.81Z"/><path class="cls-4" d="M105.86,400.62a6.65,6.65,0,0,1,.44-2.52,4.43,4.43,0,0,1,1.24-1.75,4.52,4.52,0,0,1,1.91-.94,7,7,0,0,1,2.49-.08,7.79,7.79,0,0,1,2.58.76,6.34,6.34,0,0,1,1.92,1.47,6.07,6.07,0,0,1,1.18,2.07,7.8,7.8,0,0,1,.4,2.53,6.68,6.68,0,0,1-.44,2.52,4.45,4.45,0,0,1-1.24,1.76,4.51,4.51,0,0,1-1.91.94,7,7,0,0,1-2.49.09,7.75,7.75,0,0,1-2.58-.77,6.35,6.35,0,0,1-1.92-1.48,6.11,6.11,0,0,1-1.18-2.07A7.82,7.82,0,0,1,105.86,400.62Zm3.07,0.4a4.85,4.85,0,0,0,.21,1.43,4,4,0,0,0,.6,1.2,3.25,3.25,0,0,0,.94.87,3.16,3.16,0,0,0,1.26.43,2.61,2.61,0,0,0,2.17-.58,3.34,3.34,0,0,0,.84-2.59,4.42,4.42,0,0,0-.78-2.66,3.1,3.1,0,0,0-2.23-1.26,3.42,3.42,0,0,0-1.19,0,2,2,0,0,0-1,.51,2.62,2.62,0,0,0-.63,1A4.71,4.71,0,0,0,108.93,401Z"/><path class="cls-4" d="M119.71,405.59l2.85,0.35c0-2.58,0-3.86,0-6.44l-2.85-.35c0-1,0-1.52,0-2.53l5.16,0.63,0.34,1.56h0.09a5.1,5.1,0,0,1,1.47-1.09,3.38,3.38,0,0,1,1.93-.28,3,3,0,0,1,2.17,1.27,6,6,0,0,1,.79,3.47l-2.69-.32a2.49,2.49,0,0,0-.24-1.24,1,1,0,0,0-.77-0.47,2.08,2.08,0,0,0-1.48.28,3.89,3.89,0,0,0-1,.94c0,2,0,2.94,0,4.9l5,0.59c0,1,0,1.52,0,2.53-4.32-.51-6.49-0.77-10.81-1.3C119.71,407.11,119.71,406.6,119.71,405.59Z"/><path class="cls-4" d="M133.94,407.29l4,0.46c0-2.58,0-3.86,0-6.44l-4-.46c0-1,0-1.52,0-2.53l7,0.8c0,3.59,0,5.38,0,9l4.25,0.47c0,1,0,1.52,0,2.53-4.51-.49-6.77-0.75-11.27-1.27C133.94,408.8,133.94,408.3,133.94,407.29Zm3.49-11.7a1.44,1.44,0,0,1,.53-1.16,1.86,1.86,0,0,1,1.47-.34,2.5,2.5,0,0,1,1.54.68,1.76,1.76,0,0,1,.57,1.28,1.32,1.32,0,0,1-.57,1.14,2.17,2.17,0,0,1-1.54.3,2.37,2.37,0,0,1-1.47-.64A1.73,1.73,0,0,1,137.43,395.59Z"/><path class="cls-4" d="M148.43,400.72a11.55,11.55,0,0,1,2.13-.48,11.87,11.87,0,0,1,2.86,0,6.73,6.73,0,0,1,2,.5,3.91,3.91,0,0,1,1.36,1,3.55,3.55,0,0,1,.75,1.34,5.8,5.8,0,0,1,.23,1.68q0,1.17-.08,2c-0.05.55-.08,1-0.08,1.46a10,10,0,0,0,0,1.09c0,0.21.05,0.43,0.07,0.63l1.49,0.15v2.53l-3.86-.4-0.3-1.6H155a3.4,3.4,0,0,1-1.3,1.09,4.1,4.1,0,0,1-2.28.28,4.29,4.29,0,0,1-2.72-1.21,3.5,3.5,0,0,1-1-2.55,3.43,3.43,0,0,1,.35-1.63,2.55,2.55,0,0,1,1-1,4.41,4.41,0,0,1,1.62-.49,9.32,9.32,0,0,1,2.11,0c0.27,0,.56.07,0.87,0.14l1.12,0.21a2.3,2.3,0,0,0,0-.46v-0.44a1.63,1.63,0,0,0-.5-1.31,2.67,2.67,0,0,0-1.48-.54,6.7,6.7,0,0,0-2.1.08,12.2,12.2,0,0,0-1.57.43Zm3.91,8.86a2.58,2.58,0,0,0,1.64-.23,2.32,2.32,0,0,0,.8-0.78v-1.38l-0.68-.18a8.2,8.2,0,0,0-1-.16,4.66,4.66,0,0,0-.86,0,2.63,2.63,0,0,0-.77.17,1.29,1.29,0,0,0-.55.39,1,1,0,0,0-.2.65,1.45,1.45,0,0,0,.37,1A1.94,1.94,0,0,0,152.34,409.58Z"/><path class="cls-4" d="M162.15,396.77l4.9,0.49c0,4.25,0,6.38,0,10.63a5.2,5.2,0,0,0,.44,2.5,1.72,1.72,0,0,0,1.4.83,3.77,3.77,0,0,0,1.17,0,4,4,0,0,0,.92-0.34L172.1,413q-0.39.22-.78,0.4a4.54,4.54,0,0,1-.83.29,5.3,5.3,0,0,1-1,.14,7.53,7.53,0,0,1-1.16,0,4.78,4.78,0,0,1-3.24-1.42,4.68,4.68,0,0,1-1.08-3.24c0-3.86,0-5.8,0-9.66l-1.91-.19C162.15,398.29,162.15,397.78,162.15,396.77Z"/><path class="cls-4" d="M175.74,416.89c4.08,0.38,6.13.57,10.21,0.93,0,1,0,1.48,0,2.46-4.09-.36-6.13-0.55-10.21-0.93C175.74,418.36,175.74,417.87,175.74,416.89Z"/><path class="cls-4" d="M187.74,399.19l4.65,0.4c0,2.36,0,3.53,0,5.89h0.09a3.45,3.45,0,0,1,1.47-1,4.82,4.82,0,0,1,2.16-.26,5.64,5.64,0,0,1,1.61.36,3.41,3.41,0,0,1,1.27.86,4,4,0,0,1,.83,1.51,7.5,7.5,0,0,1,.3,2.27c0,2.86,0,4.29,0,7.15l-3-.25c0-2.61,0-3.92,0-6.53a3,3,0,0,0-.6-2.07,2.27,2.27,0,0,0-1.57-.75,2.44,2.44,0,0,0-1.56.39,2.5,2.5,0,0,0-1,1.24c0,2.93,0,4.4,0,7.34l-3-.26c0-5.43,0-8.14,0-13.57l-1.66-.14C187.74,400.7,187.74,400.2,187.74,399.19Z"/><path class="cls-4" d="M213.84,416.18a3.73,3.73,0,0,1-.77.48,6.89,6.89,0,0,1-1.11.41,8.1,8.1,0,0,1-1.39.26,8.8,8.8,0,0,1-1.61,0,8.16,8.16,0,0,1-2.64-.62,5.77,5.77,0,0,1-3.2-3.37,7.37,7.37,0,0,1-.43-2.58,6.47,6.47,0,0,1,.48-2.62,4.76,4.76,0,0,1,1.32-1.79,5,5,0,0,1,2-1,7.42,7.42,0,0,1,2.44-.19,7.84,7.84,0,0,1,1.81.37,5.41,5.41,0,0,1,1.72.92,4.76,4.76,0,0,1,1.28,1.6,5.36,5.36,0,0,1,.49,2.43,10.69,10.69,0,0,1-.23,2.12l-8.29-.63a2.81,2.81,0,0,0,.31,1.27,2.75,2.75,0,0,0,.76.89,3.61,3.61,0,0,0,1.08.56,5.62,5.62,0,0,0,1.3.25,6.55,6.55,0,0,0,2.27-.15,4.37,4.37,0,0,0,1.44-.67Zm-5-8.59a3.71,3.71,0,0,0-1.13.08,2.89,2.89,0,0,0-1,.41,2.35,2.35,0,0,0-.7.73,2.27,2.27,0,0,0-.32,1l5.66,0.44A2.48,2.48,0,0,0,208.87,407.6Z"/><path class="cls-4" d="M217.36,401.56l4.9,0.35c0,4.25,0,6.38,0,10.63a5.11,5.11,0,0,0,.44,2.49,1.66,1.66,0,0,0,1.41.79,3.79,3.79,0,0,0,1.17-.07,4.15,4.15,0,0,0,.92-0.36l1.13,2.15q-0.39.23-.78,0.42a4.71,4.71,0,0,1-.83.31,5.39,5.39,0,0,1-1,.16,7.53,7.53,0,0,1-1.16,0,4.66,4.66,0,0,1-3.25-1.33,4.56,4.56,0,0,1-1.08-3.21c0-3.86,0-5.8,0-9.66l-1.91-.14C217.36,403.08,217.36,402.57,217.36,401.56Z"/><path class="cls-4" d="M229.18,407l3.92,0.26,0.35,1.4h0.09a4.14,4.14,0,0,1,3.87-1.46,5.7,5.7,0,0,1,1.95.45,4.14,4.14,0,0,1,1.52,1.14,5.3,5.3,0,0,1,1,1.85,8.81,8.81,0,0,1,.35,2.62,8.21,8.21,0,0,1-.39,2.63,5.22,5.22,0,0,1-1.13,1.94,4.44,4.44,0,0,1-1.8,1.15,6.11,6.11,0,0,1-2.42.29,9.72,9.72,0,0,1-1.4-.19,4.1,4.1,0,0,1-1.15-.41c0,1.89,0,2.83,0,4.71l-3-.19c0-5.43,0-8.14,0-13.57l-1.73-.11V407Zm7.33,2.68a2.92,2.92,0,0,0-1.6.34,2.08,2.08,0,0,0-1,1.25c0,1.91,0,2.87,0,4.78a2.65,2.65,0,0,0,.93.46,5.3,5.3,0,0,0,1.23.23,3.12,3.12,0,0,0,1.2-.14,2.25,2.25,0,0,0,1-.64,3.15,3.15,0,0,0,.64-1.18,5.83,5.83,0,0,0,.23-1.76,3.59,3.59,0,0,0-.74-2.39A2.56,2.56,0,0,0,236.5,409.67Z"/><path class="cls-4" d="M255.3,418.83a3.8,3.8,0,0,1-.77.5,7,7,0,0,1-1.11.44,8.25,8.25,0,0,1-1.39.29,8.88,8.88,0,0,1-1.61,0,8.06,8.06,0,0,1-2.64-.56,5.6,5.6,0,0,1-3.2-3.3,7.29,7.29,0,0,1-.43-2.57,6.54,6.54,0,0,1,.48-2.63,4.9,4.9,0,0,1,1.32-1.82,5.17,5.17,0,0,1,2-1,7.49,7.49,0,0,1,2.44-.24,7.76,7.76,0,0,1,1.81.33,5.29,5.29,0,0,1,1.72.89,4.6,4.6,0,0,1,1.28,1.58,5.28,5.28,0,0,1,.5,2.42,10.75,10.75,0,0,1-.23,2.13l-8.3-.46a2.77,2.77,0,0,0,.31,1.26,2.68,2.68,0,0,0,.76.87,3.51,3.51,0,0,0,1.08.53,5.53,5.53,0,0,0,1.3.22,6.6,6.6,0,0,0,2.27-.2,4.49,4.49,0,0,0,1.44-.7Zm-5-8.48a3.73,3.73,0,0,0-1.13.1,3,3,0,0,0-1,.43,2.4,2.4,0,0,0-.7.74,2.3,2.3,0,0,0-.32,1l5.67,0.32A2.42,2.42,0,0,0,250.33,410.35Z"/><path class="cls-4" d="M257.72,417.65l2.86,0.15v-6.44l-2.86-.15v-2.53l5.19,0.26,0.35,1.53h0.09a5.69,5.69,0,0,1,1.48-1.19,3.54,3.54,0,0,1,1.94-.41,2.76,2.76,0,0,1,2.18,1.11,5.74,5.74,0,0,1,.79,3.42l-2.7-.13a2.38,2.38,0,0,0-.24-1.22,0.9,0.9,0,0,0-.77-0.42,2.2,2.2,0,0,0-1.49.39,4.34,4.34,0,0,0-1,1v4.9l5,0.24v2.53c-4.34-.2-6.51-0.31-10.86-0.54v-2.53Z"/><path class="cls-4" d="M281.14,426.14A11.08,11.08,0,0,1,278,425a9.73,9.73,0,0,1-2.7-2.16,10.31,10.31,0,0,1-1.88-3.21,12.21,12.21,0,0,1-.7-4.31,11.71,11.71,0,0,1,.7-4.24,9.44,9.44,0,0,1,1.88-3.08,8.8,8.8,0,0,1,2.7-2,11.06,11.06,0,0,1,3.14-1l0.55,2.48a9.29,9.29,0,0,0-1.83.58,6.31,6.31,0,0,0-1.95,1.32,7.28,7.28,0,0,0-1.56,2.34,9.12,9.12,0,0,0-.63,3.65,8.69,8.69,0,0,0,.67,3.59,8.36,8.36,0,0,0,1.63,2.45,7.6,7.6,0,0,0,2,1.48,8.22,8.22,0,0,0,1.71.68Z"/><path class="cls-4" d="M286.93,419l3.53,0.13c0-4,0-6,0-10.05l-3,2.21L286,409.35l5.26-3.81,2,0.07c0,5.43,0,8.14,0,13.57l3.46,0.11v2.53l-9.85-.34V419Z"/><path class="cls-4" d="M303.35,420.56a1.53,1.53,0,0,1,.52-1.23,1.85,1.85,0,0,1,1.3-.42,2.35,2.35,0,0,1,1.91.88,3.3,3.3,0,0,1,.65,2.06,4.27,4.27,0,0,1-.4,1.88,4.79,4.79,0,0,1-1,1.44,5.45,5.45,0,0,1-1.44,1,5.72,5.72,0,0,1-1.58.48l-0.62-1.28a6.54,6.54,0,0,0,1.12-.36,4.35,4.35,0,0,0,1-.6,3.42,3.42,0,0,0,.77-0.86,2.38,2.38,0,0,0,.36-1.09,3,3,0,0,1-1.18,0,1.84,1.84,0,0,1-.8-0.39,1.57,1.57,0,0,1-.45-0.66A2.38,2.38,0,0,1,303.35,420.56Z"/><path class="cls-4" d="M314.61,419.79l3.53,0.08c0-4,0-6,0-10.05l-3,2.26-1.38-1.87,5.26-3.88,2,0v13.57l3.46,0.07v2.53l-9.85-.2v-2.53Z"/><path class="cls-4" d="M328.45,420.06l3.53,0.05V410.07l-3,2.28-1.38-1.86,5.26-3.92,2,0v13.57l3.46,0v2.53l-9.85-.13v-2.53Z"/><path class="cls-4" d="M342.61,425.14a7.87,7.87,0,0,0,1.71-.59,7.13,7.13,0,0,0,2-1.39,7.81,7.81,0,0,0,1.63-2.37,8.45,8.45,0,0,0,.67-3.56,9.36,9.36,0,0,0-.63-3.68,7.79,7.79,0,0,0-1.56-2.41,6.78,6.78,0,0,0-1.95-1.42,9.73,9.73,0,0,0-1.83-.67l0.55-2.46a11.58,11.58,0,0,1,3.14,1.11,9.45,9.45,0,0,1,2.7,2.11,10.07,10.07,0,0,1,1.88,3.17,13.33,13.33,0,0,1,0,8.54,9.67,9.67,0,0,1-1.88,3.12,9.08,9.08,0,0,1-2.7,2,10.63,10.63,0,0,1-3.14,1Z"/><path class="cls-4" d="M506.75,414.88l2.85-.21v-6.44l-2.85.21v-2.53l5.18-.39,0.34,1.49h0.09a6.84,6.84,0,0,1,1.47-1.38,3.89,3.89,0,0,1,1.93-.66,2.42,2.42,0,0,1,2.18.84,5.26,5.26,0,0,1,.79,3.32l-2.69.22a2.2,2.2,0,0,0-.24-1.19,0.78,0.78,0,0,0-.77-0.32,2.45,2.45,0,0,0-1.48.58,5.22,5.22,0,0,0-1,1.13v4.9l5-.39v2.53c-4.34.35-6.5,0.51-10.84,0.84v-2.53Z"/><path class="cls-4" d="M532,414.16a4.64,4.64,0,0,1-.77.61,8.24,8.24,0,0,1-1.1.59,9.33,9.33,0,0,1-3,.76,7.59,7.59,0,0,1-2.64-.19,4.6,4.6,0,0,1-3.2-2.85,6.81,6.81,0,0,1-.43-2.51,7,7,0,0,1,.48-2.7,6,6,0,0,1,1.32-2,6.18,6.18,0,0,1,2-1.3A8,8,0,0,1,527,404a7.38,7.38,0,0,1,1.81.08,4.52,4.52,0,0,1,1.71.65,3.75,3.75,0,0,1,1.28,1.4,4.86,4.86,0,0,1,.5,2.35,11.25,11.25,0,0,1-.23,2.16l-8.28.71a2.51,2.51,0,0,0,.31,1.22,2.18,2.18,0,0,0,.76.76,3,3,0,0,0,1.08.38,5.29,5.29,0,0,0,1.3,0,7,7,0,0,0,2.27-.51,5.36,5.36,0,0,0,1.44-.91Zm-5-7.78a4,4,0,0,0-1.13.26,3.49,3.49,0,0,0-1,.56,3,3,0,0,0-.7.84,2.58,2.58,0,0,0-.32,1.08l5.66-.48A2.07,2.07,0,0,0,527,406.37Z"/><path class="cls-4" d="M546,413a7.39,7.39,0,0,1-2.21,1.28,10.15,10.15,0,0,1-2.64.6,7.25,7.25,0,0,1-2.66-.19,4.81,4.81,0,0,1-2-1.05,4.62,4.62,0,0,1-1.21-1.81,7.39,7.39,0,0,1,.07-5.07,6.14,6.14,0,0,1,1.35-2,6.55,6.55,0,0,1,2-1.37,8.3,8.3,0,0,1,2.55-.64,9.24,9.24,0,0,1,2.41.07,10.47,10.47,0,0,1,1.73.41c0,1.62,0,2.43,0,4l-2.53.24c0-.85,0-1.27,0-2.12a6.36,6.36,0,0,0-1.43,0,4.55,4.55,0,0,0-1.28.31,3.51,3.51,0,0,0-1.13.72,3.6,3.6,0,0,0-1.12,2.71,3.39,3.39,0,0,0,.25,1.33,2.86,2.86,0,0,0,.71,1,2.9,2.9,0,0,0,1.14.62,4,4,0,0,0,1.51.13,5.68,5.68,0,0,0,2.15-.57,9.78,9.78,0,0,0,1.25-.76Z"/><path class="cls-4" d="M554.86,401.74l4.28-.43c0,3.2,0,4.8,0,8v1l1.75-.18c0,1,0,1.52,0,2.53l-3.63.37-0.53-1.65h-0.09A4.7,4.7,0,0,1,555,413a5.22,5.22,0,0,1-2.35.81,5.1,5.1,0,0,1-1.6-.07,2.55,2.55,0,0,1-1.23-.64,3.12,3.12,0,0,1-.78-1.35,7.5,7.5,0,0,1-.28-2.23v-4.62l-1.31.13v-2.53l4.3-.41c0,2.61,0,3.92,0,6.53a3.31,3.31,0,0,0,.45,2,1.48,1.48,0,0,0,1.41.48,2.74,2.74,0,0,0,1.53-.66,3.12,3.12,0,0,0,1-1.34c0-2,0-2.94,0-4.9l-1.29.13C554.86,403.26,554.86,402.75,554.86,401.74Z"/><path class="cls-4" d="M562,410l2.85-.29v-6.44l-2.85.29V401l5.17-.54,0.34,1.48h0.09a7.13,7.13,0,0,1,1.47-1.42,4,4,0,0,1,1.93-.71,2.35,2.35,0,0,1,2.17.78,5.17,5.17,0,0,1,.79,3.29l-2.69.29A2.17,2.17,0,0,0,571,403a0.76,0.76,0,0,0-.77-0.3,2.51,2.51,0,0,0-1.48.62,5.44,5.44,0,0,0-1,1.16v4.9l5-.53v2.53c-4.33.47-6.49,0.7-10.82,1.14V410Z"/><path class="cls-4" d="M585.3,414.86a9.74,9.74,0,0,1-3.12-.66,7.79,7.79,0,0,1-2.69-1.74,8.41,8.41,0,0,1-1.87-2.92,11.36,11.36,0,0,1-.7-4.2,12.66,12.66,0,0,1,.7-4.34,11.54,11.54,0,0,1,1.87-3.37,11,11,0,0,1,2.69-2.4,12.81,12.81,0,0,1,3.12-1.44l0.55,2.4a10.83,10.83,0,0,0-1.82.87,7.85,7.85,0,0,0-1.94,1.62,9,9,0,0,0-1.55,2.58,9.9,9.9,0,0,0-.63,3.75,8,8,0,0,0,.67,3.49,6.73,6.73,0,0,0,1.62,2.2,6.12,6.12,0,0,0,2,1.18,7.14,7.14,0,0,0,1.7.41Z"/><path class="cls-4" d="M591.06,406.79l3.51-.42c0-4,0-6,0-10.05l-3,2.68-1.38-1.68,5.23-4.62,2-.24c0,5.43,0,8.14,0,13.57l3.44-.42v2.53l-9.8,1.18C591.06,408.31,591.06,407.8,591.06,406.79Z"/><path class="cls-4" d="M604.83,405.12l3.51-.44c0-4,0-6,0-10.05l-3,2.7-1.38-1.67,5.23-4.66,2-.26c0,5.43,0,8.14,0,13.57l3.44-.44v2.53l-9.79,1.25C604.83,406.64,604.83,406.13,604.83,405.12Z"/><path class="cls-4" d="M621.15,404.07a1.81,1.81,0,0,1,.52-1.31,2.15,2.15,0,0,1,1.3-.63,2,2,0,0,1,1.9.57,2.89,2.89,0,0,1,.64,2,4.73,4.73,0,0,1-.4,1.94,6,6,0,0,1-1,1.61,6.83,6.83,0,0,1-1.43,1.21,6.66,6.66,0,0,1-1.57.74L620.44,409a7.65,7.65,0,0,0,1.11-.54,5.42,5.42,0,0,0,1-.77,4.33,4.33,0,0,0,.77-1,2.74,2.74,0,0,0,.36-1.15,3,3,0,0,1-1.17.19,1.54,1.54,0,0,1-.79-0.26,1.25,1.25,0,0,1-.45-0.58A2.21,2.21,0,0,1,621.15,404.07Z"/><path class="cls-4" d="M632.33,401.49l3.5-.49V390.95l-3,2.75L631.44,392l5.22-4.73,2-.29c0,5.43,0,8.14,0,13.57l3.43-.49v2.53c-3.91.56-5.87,0.84-9.78,1.39v-2.53Z"/><path class="cls-4" d="M644.51,394.21a14.54,14.54,0,0,1,.44-3.73,8.93,8.93,0,0,1,1.23-2.79,6.32,6.32,0,0,1,1.9-1.83,6.42,6.42,0,0,1,2.46-.88,4.61,4.61,0,0,1,4.46,1.37q1.56,1.8,1.56,6.08a14.65,14.65,0,0,1-.44,3.76,9.13,9.13,0,0,1-1.23,2.81,6.26,6.26,0,0,1-1.91,1.85,6.49,6.49,0,0,1-2.47.89,4.45,4.45,0,0,1-4.46-1.49Q644.51,398.31,644.51,394.21Zm3-.44c0,0.23,0,.45,0,0.65s0,0.42,0,.63l5.54-6a2.16,2.16,0,0,0-2.56-1.59,3,3,0,0,0-2.24,1.75A10.22,10.22,0,0,0,647.49,393.77Zm6.09-.91c0-.25,0-0.48,0-0.7s0-.44,0-0.65l-5.56,6a2.2,2.2,0,0,0,2.57,1.71,3,3,0,0,0,2.25-1.74A10.25,10.25,0,0,0,653.57,392.87Z"/><path class="cls-4" d="M660.12,402.32a9.23,9.23,0,0,0,1.69-.87,8.94,8.94,0,0,0,2-1.71,9.74,9.74,0,0,0,1.61-2.63,9.3,9.3,0,0,0,.66-3.67,8.67,8.67,0,0,0-.63-3.58,6.23,6.23,0,0,0-1.54-2.16,5.4,5.4,0,0,0-1.93-1.1,8.45,8.45,0,0,0-1.82-.38l0.55-2.55a10.09,10.09,0,0,1,3.11.6,7.47,7.47,0,0,1,2.67,1.68,8.12,8.12,0,0,1,1.86,2.87A11.17,11.17,0,0,1,669,393a13,13,0,0,1-.7,4.39,11.93,11.93,0,0,1-1.86,3.42,11.42,11.42,0,0,1-2.67,2.46,12.34,12.34,0,0,1-3.11,1.49Z"/></svg>