<svg id="Layer_1" data-name="Layer 1" xmlns="http://www.w3.org/2000/svg" viewBox="0 0 720 576"><defs><style>.cls-1,.cls-2,.cls-4,.cls-6{fill:#231f20;}.cls-1,.cls-3{stroke:#231f20;}.cls-1,.cls-6{stroke-miterlimit:10;}.cls-1,.cls-2,.cls-3{stroke-width:2px;}.cls-2{stroke:#000;}.cls-2,.cls-3{stroke-linecap:round;stroke-linejoin:round;}.cls-3,.cls-5{fill:#fff;}.cls-6{stroke:#fff;}</style></defs><title>Hanoi_Tower_Set_5_Final</title><path class="cls-1" d="M685.9,506.49c0-.14,0-0.29,0-0.43s0-.29,0-0.43V453.84H40.1s-0.25,51.74-.25,52.22c0,2.67,2.32,5.24,6.64,7.71,15.13,8.61,55.2,16.11,111,21.48s127.37,8.59,205.39,8.59c89.16,0,169.88-4.21,228.32-11,29.22-3.41,52.87-7.46,69.23-12,8.18-2.25,14.54-4.62,18.86-7.08,3.69-2.1,5.91-4.29,6.48-6.55h0.11v-0.73Z"/><ellipse class="cls-2" cx="362.9" cy="454.92" rx="322.86" ry="37.63"/><path class="cls-3" d="M685.9,455c0-.14,0-0.29,0-0.43s0-.29,0-0.43V402.36H40.1s-0.25,51.74-.25,52.22c0,2.67,2.32,5.24,6.64,7.71,15.13,8.61,55.2,16.11,111,21.48s127.37,8.59,205.39,8.59c89.16,0,169.88-4.21,228.32-11,29.22-3.41,52.87-7.46,69.23-12,8.18-2.25,14.54-4.62,18.86-7.08,3.69-2.1,5.91-4.29,6.48-6.55h0.11V455Z"/><ellipse class="cls-3" cx="362.9" cy="403.44" rx="322.86" ry="37.63"/><path class="cls-3" d="M685.9,403.53c0-.14,0-0.29,0-0.43s0-.29,0-0.43V350.88H40.1s-0.25,51.74-.25,52.22c0,2.67,2.32,5.24,6.64,7.71,15.13,8.61,55.2,16.11,111,21.48s127.37,8.59,205.39,8.59c89.16,0,169.88-4.21,228.32-11,29.22-3.41,52.87-7.46,69.23-12,8.18-2.25,14.54-4.62,18.86-7.08,3.69-2.1,5.91-4.29,6.48-6.55h0.11v-0.73Z"/><ellipse class="cls-3" cx="362.9" cy="351.97" rx="322.86" ry="37.63"/><path class="cls-3" d="M685.9,352.06c0-.14,0-0.29,0-0.43s0-.29,0-0.43V299.4H40.1s-0.25,51.74-.25,52.22c0,2.67,2.32,5.24,6.64,7.71,15.13,8.61,55.2,16.11,111,21.48s127.37,8.59,205.39,8.59c89.16,0,169.88-4.21,228.32-11,29.22-3.41,52.87-7.46,69.23-12,8.18-2.25,14.54-4.62,18.86-7.08,3.69-2.1,5.91-4.29,6.48-6.55h0.11v-0.73Z"/><ellipse class="cls-3" cx="362.9" cy="300.49" rx="322.86" ry="37.63"/><path class="cls-3" d="M685.9,302.06c0-.14,0-0.29,0-0.43s0-.29,0-0.43V249.4H40.1s-0.25,51.74-.25,52.22c0,2.67,2.32,5.24,6.64,7.71,15.13,8.61,55.2,16.11,111,21.48s127.37,8.59,205.39,8.59c89.16,0,169.88-4.21,228.32-11,29.22-3.41,52.87-7.46,69.23-12,8.18-2.25,14.54-4.62,18.86-7.08,3.69-2.1,5.91-4.29,6.48-6.55h0.11v-0.73Z"/><ellipse class="cls-3" cx="362.9" cy="250.49" rx="322.86" ry="37.63"/><path class="cls-4" d="M362.89,260.64c-16,0-29-3.75-30.2-8.61h-0.08l0-.5V8.27h60.63V252H393.1C391.87,256.89,378.87,260.64,362.89,260.64Z"/><path class="cls-5" d="M392.72,8.77V251.53h0c-0.49,4.78-13.63,8.61-29.79,8.61s-29.3-3.83-29.79-8.61h0v-0.21s0,0,0-.06,0,0,0-.06V8.77h59.63m1-1H332.09V251.15s0,0.07,0,.11v1.27h0.23c2,5.6,16.84,8.61,30.58,8.61s28.6-3,30.58-8.61h0.21l0-1V7.77h0Z"/><ellipse class="cls-6" cx="362.89" cy="8.89" rx="29.81" ry="8.89"/><path class="cls-4" d="M49.5,297.76c0-.92,0-1.39,0-2.31L52,295.84c0-2.35,0-3.53,0-5.88l-2.48-.39v-2.31L52,287.65v-0.59a3.54,3.54,0,0,1,.34-1.65,2.72,2.72,0,0,1,.91-1,3.14,3.14,0,0,1,1.3-.48,5.19,5.19,0,0,1,1.53,0,10.55,10.55,0,0,1,2.37.61,7.22,7.22,0,0,1,1.54.83l-0.79,2a11.35,11.35,0,0,0-1-.58,5,5,0,0,0-1.43-.41,1.81,1.81,0,0,0-1.58.27,2,2,0,0,0-.45,1.47l4.38,0.68c0,0.92,0,1.39,0,2.31l-4.38-.68c0,2.35,0,3.53,0,5.88l4.41,0.68c0,0.92,0,1.39,0,2.31Z"/><path class="cls-4" d="M62.43,290a10.21,10.21,0,0,1,1.93-.36,10.76,10.76,0,0,1,2.6.12,6.29,6.29,0,0,1,1.85.54,3.8,3.8,0,0,1,1.23.93,3.43,3.43,0,0,1,.68,1.26,5.41,5.41,0,0,1,.21,1.54q0,1.07-.07,1.82t-0.07,1.33a9.15,9.15,0,0,0,0,1c0,0.2,0,.39.06,0.58l1.36,0.2v2.31l-3.51-.52-0.28-1.47-0.1,0a2.91,2.91,0,0,1-1.18.95,3.67,3.67,0,0,1-2.08.16,4.09,4.09,0,0,1-2.47-1.21,3.34,3.34,0,0,1-.91-2.37,3.07,3.07,0,0,1,.32-1.47,2.18,2.18,0,0,1,.93-0.91,3.87,3.87,0,0,1,1.47-.39,8.45,8.45,0,0,1,1.92.09q0.37,0.06.79,0.16l1,0.24a2.09,2.09,0,0,0,0-.41v-0.4a1.55,1.55,0,0,0-.46-1.21,2.52,2.52,0,0,0-1.35-.55,6.05,6.05,0,0,0-1.91,0,10.69,10.69,0,0,0-1.43.33ZM66,298.22a2.3,2.3,0,0,0,1.49-.15,2,2,0,0,0,.72-0.68c0-.5,0-0.76,0-1.26l-0.62-.19a7.73,7.73,0,0,0-.89-0.18,4.27,4.27,0,0,0-.78,0,2.34,2.34,0,0,0-.7.13,1.12,1.12,0,0,0-.5.34,0.88,0.88,0,0,0-.19.58,1.38,1.38,0,0,0,.34,1A1.85,1.85,0,0,0,66,298.22Z"/><path class="cls-4" d="M84.5,302a5.14,5.14,0,0,1-2,.69,8.52,8.52,0,0,1-2.4,0,7.45,7.45,0,0,1-2.41-.75,6,6,0,0,1-1.78-1.38,5.75,5.75,0,0,1-1.1-1.91,7,7,0,0,1-.38-2.32,5.49,5.49,0,0,1,.44-2.29,4,4,0,0,1,1.22-1.57,4.43,4.43,0,0,1,1.85-.82,6.85,6.85,0,0,1,2.32,0,9.24,9.24,0,0,1,2.2.58,11.76,11.76,0,0,1,1.57.75c0,1.48,0,2.22,0,3.7l-2.3-.32c0-.77,0-1.16,0-1.93a6.37,6.37,0,0,0-1.3-.33,3.79,3.79,0,0,0-1.16,0,2.34,2.34,0,0,0-1.76,1.29,3,3,0,0,0-.28,1.37,3.52,3.52,0,0,0,.23,1.27,3.54,3.54,0,0,0,1.68,1.89,4.11,4.11,0,0,0,1.37.44,4.65,4.65,0,0,0,2-.06,6.65,6.65,0,0,0,1.14-.43Z"/><path class="cls-4" d="M88,295.28L86,295v-2.31L88,293c0-1,0-1.44,0-2.39l2.72-.4c0,1.27,0,1.9,0,3.17l5.48,0.74v2.31l-5.48-.74c0,1.2,0,1.8,0,3a4,4,0,0,0,.61,2.42,2.43,2.43,0,0,0,1.69,1,3.48,3.48,0,0,0,1,0,3.4,3.4,0,0,0,.83-0.23,4,4,0,0,0,.67-0.37l0.55-.39,1.26,2.06a3.32,3.32,0,0,1-.89.65,6.42,6.42,0,0,1-1.15.45,6.61,6.61,0,0,1-1.29.24,6,6,0,0,1-1.32,0,5.2,5.2,0,0,1-3.53-1.79,6.81,6.81,0,0,1-1.18-4.33C88.05,297.09,88,296.49,88,295.28Z"/><path class="cls-4" d="M98.91,299.7a6.08,6.08,0,0,1,.4-2.3,4,4,0,0,1,1.13-1.59,4.09,4.09,0,0,1,1.75-.85,6.42,6.42,0,0,1,2.27-.07,7.11,7.11,0,0,1,2.36.7,5.81,5.81,0,0,1,1.75,1.35,5.59,5.59,0,0,1,1.08,1.89,7.15,7.15,0,0,1,.37,2.31,6.08,6.08,0,0,1-.4,2.3,4,4,0,0,1-1.13,1.6,4.09,4.09,0,0,1-1.75.86,6.39,6.39,0,0,1-2.27.07,7.06,7.06,0,0,1-2.35-.71,5.81,5.81,0,0,1-1.75-1.35,5.6,5.6,0,0,1-1.08-1.9A7.14,7.14,0,0,1,98.91,299.7Zm2.8,0.37a4.42,4.42,0,0,0,.19,1.31,3.69,3.69,0,0,0,.54,1.1,3,3,0,0,0,.86.79,2.9,2.9,0,0,0,1.15.39,2.38,2.38,0,0,0,2-.52,3,3,0,0,0,.76-2.36,4,4,0,0,0-.71-2.43,2.83,2.83,0,0,0-2-1.15,3.12,3.12,0,0,0-1.09,0,1.79,1.79,0,0,0-.87.46,2.39,2.39,0,0,0-.58.93A4.3,4.3,0,0,0,101.71,300.07Z"/><path class="cls-4" d="M111.55,304.27l2.6,0.33c0-2.35,0-3.53,0-5.88l-2.6-.33v-2.31l4.71,0.59,0.31,1.42h0.08a4.62,4.62,0,0,1,1.34-1,3.07,3.07,0,0,1,1.76-.25,2.74,2.74,0,0,1,2,1.17,5.52,5.52,0,0,1,.72,3.17l-2.45-.3a2.28,2.28,0,0,0-.22-1.13,0.89,0.89,0,0,0-.7-0.43,1.9,1.9,0,0,0-1.35.25,3.55,3.55,0,0,0-.87.86c0,1.79,0,2.68,0,4.47l4.55,0.56c0,0.92,0,1.39,0,2.31l-9.86-1.22C111.55,305.66,111.55,305.2,111.55,304.27Z"/><path class="cls-4" d="M124.54,305.87l3.69,0.44c0-2.35,0-3.53,0-5.88l-3.69-.44v-2.31l6.41,0.76c0,3.28,0,4.91,0,8.19l3.88,0.45c0,0.92,0,1.39,0,2.31-4.12-.47-6.17-0.71-10.29-1.2C124.54,307.25,124.54,306.79,124.54,305.87Zm3.19-10.67a1.31,1.31,0,0,1,.48-1.06,1.7,1.7,0,0,1,1.34-.3,2.3,2.3,0,0,1,1.4.63,1.62,1.62,0,0,1,.52,1.17,1.2,1.2,0,0,1-.52,1,2,2,0,0,1-1.4.27,2.17,2.17,0,0,1-1.34-.59A1.59,1.59,0,0,1,127.72,295.2Z"/><path class="cls-4" d="M137.76,299.93a10.54,10.54,0,0,1,1.94-.43,10.78,10.78,0,0,1,2.61,0,6.16,6.16,0,0,1,1.86.47,3.6,3.6,0,0,1,1.24.88,3.25,3.25,0,0,1,.68,1.23,5.31,5.31,0,0,1,.21,1.53q0,1.07-.07,1.82t-0.07,1.34a9.29,9.29,0,0,0,0,1c0,0.19,0,.39.06,0.57l1.36,0.15c0,0.92,0,1.39,0,2.31l-3.52-.38L143.82,309h-0.1a3.08,3.08,0,0,1-1.19,1,3.74,3.74,0,0,1-2.08.24,3.94,3.94,0,0,1-2.48-1.12,3.21,3.21,0,0,1-.92-2.33,3.12,3.12,0,0,1,.32-1.49,2.3,2.3,0,0,1,.94-0.94,4,4,0,0,1,1.48-.44,8.51,8.51,0,0,1,1.93,0c0.25,0,.51.07,0.79,0.13l1,0.2a2.1,2.1,0,0,0,0-.42v-0.4a1.5,1.5,0,0,0-.46-1.19,2.44,2.44,0,0,0-1.35-.5,6.12,6.12,0,0,0-1.92.06,11.16,11.16,0,0,0-1.44.39Zm3.57,8.11a2.35,2.35,0,0,0,1.49-.2,2.1,2.1,0,0,0,.73-0.71c0-.5,0-0.76,0-1.26l-0.62-.16a7.6,7.6,0,0,0-.89-0.15,4.25,4.25,0,0,0-.79,0,2.4,2.4,0,0,0-.7.15,1.18,1.18,0,0,0-.5.35,0.91,0.91,0,0,0-.19.59,1.33,1.33,0,0,0,.34,1A1.78,1.78,0,0,0,141.33,308Z"/><path class="cls-4" d="M150.28,296.38l4.47,0.47c0,3.88,0,5.82,0,9.7a4.76,4.76,0,0,0,.4,2.29,1.58,1.58,0,0,0,1.28.76,3.41,3.41,0,0,0,1.07,0,3.62,3.62,0,0,0,.84-0.3l1,2q-0.36.2-.71,0.36a4.11,4.11,0,0,1-.76.26,4.86,4.86,0,0,1-.87.12,6.86,6.86,0,0,1-1.06,0,4.39,4.39,0,0,1-3-1.32,4.3,4.3,0,0,1-1-3c0-3.53,0-5.29,0-8.82l-1.74-.18C150.28,297.77,150.28,297.31,150.28,296.38Z"/><path class="cls-4" d="M162.68,314.82l9.32,0.91V318l-9.32-.91C162.68,316.16,162.68,315.72,162.68,314.82Z"/><path class="cls-4" d="M173.64,298.72l4.24,0.4c0,2.15,0,3.23,0,5.38H178a3.12,3.12,0,0,1,1.34-.95,4.38,4.38,0,0,1,2-.22,5.18,5.18,0,0,1,1.47.34,3.13,3.13,0,0,1,1.16.8,3.67,3.67,0,0,1,.76,1.38,6.87,6.87,0,0,1,.27,2.07c0,2.61,0,3.92,0,6.53l-2.73-.24c0-2.39,0-3.58,0-6a2.8,2.8,0,0,0-.55-1.9,2.08,2.08,0,0,0-1.43-.7,2.22,2.22,0,0,0-1.43.34,2.26,2.26,0,0,0-.92,1.12c0,2.68,0,4,0,6.7l-2.73-.25c0-5,0-7.43,0-12.39l-1.51-.14C173.64,300.11,173.64,299.65,173.64,298.72Z"/><path class="cls-4" d="M197.46,314.41a3.31,3.31,0,0,1-.7.44,6.19,6.19,0,0,1-1,.37,7.37,7.37,0,0,1-1.27.23,8.11,8.11,0,0,1-1.47,0,7.48,7.48,0,0,1-2.41-.58,5.32,5.32,0,0,1-2.92-3.1,6.76,6.76,0,0,1-.39-2.35,5.9,5.9,0,0,1,.44-2.39,4.29,4.29,0,0,1,1.21-1.63,4.54,4.54,0,0,1,1.8-.88,6.75,6.75,0,0,1,2.23-.16,7.22,7.22,0,0,1,1.65.35,5,5,0,0,1,1.57.85,4.38,4.38,0,0,1,1.17,1.47,4.92,4.92,0,0,1,.45,2.22,9.7,9.7,0,0,1-.21,1.94l-7.56-.64a2.45,2.45,0,0,0,1,2,3.3,3.3,0,0,0,1,.52,5.15,5.15,0,0,0,1.19.24,6,6,0,0,0,2.07-.12,4,4,0,0,0,1.31-.61Zm-4.54-7.87a3.38,3.38,0,0,0-1,.06,2.62,2.62,0,0,0-.87.36,2.11,2.11,0,0,0-.64.66,2.06,2.06,0,0,0-.29.94l5.17,0.44A2.28,2.28,0,0,0,192.92,306.53Z"/><path class="cls-4" d="M200.67,301.08l4.48,0.35c0,3.88,0,5.82,0,9.7a4.69,4.69,0,0,0,.4,2.28,1.53,1.53,0,0,0,1.28.73,3.44,3.44,0,0,0,1.07-.05,3.73,3.73,0,0,0,.84-0.32l1,2q-0.36.2-.71,0.38a4.25,4.25,0,0,1-.76.28,5,5,0,0,1-.87.14,6.94,6.94,0,0,1-1.06,0,4.28,4.28,0,0,1-3-1.24,4.2,4.2,0,0,1-1-2.94c0-3.53,0-5.29,0-8.82l-1.74-.14C200.67,302.47,200.67,302,200.67,301.08Z"/><path class="cls-4" d="M211.46,306.12l3.57,0.26,0.32,1.28h0.08a3.74,3.74,0,0,1,3.53-1.3,5.23,5.23,0,0,1,1.78.43,3.83,3.83,0,0,1,1.39,1.05,4.9,4.9,0,0,1,.89,1.7,8.07,8.07,0,0,1,.32,2.39,7.46,7.46,0,0,1-.36,2.4,4.72,4.72,0,0,1-1,1.77,4,4,0,0,1-1.64,1,5.54,5.54,0,0,1-2.21.24,8.76,8.76,0,0,1-1.28-.19,3.76,3.76,0,0,1-1.05-.38v4.31l-2.73-.2c0-5,0-7.44,0-12.39l-1.58-.12v-2.31Zm6.68,2.51a2.66,2.66,0,0,0-1.46.29,1.87,1.87,0,0,0-.91,1.13v4.37a2.46,2.46,0,0,0,.85.43,4.82,4.82,0,0,0,1.12.22,2.84,2.84,0,0,0,1.09-.12,2,2,0,0,0,.88-0.58,2.85,2.85,0,0,0,.59-1.07,5.32,5.32,0,0,0,.21-1.6,3.31,3.31,0,0,0-.67-2.19A2.36,2.36,0,0,0,218.14,308.63Z"/><path class="cls-4" d="M235.3,317.15a3.42,3.42,0,0,1-.7.45,6.38,6.38,0,0,1-1,.39,7.51,7.51,0,0,1-1.27.25,8.14,8.14,0,0,1-1.47,0,7.39,7.39,0,0,1-2.41-.54,5.17,5.17,0,0,1-2.92-3,6.69,6.69,0,0,1-.39-2.35,6,6,0,0,1,.44-2.4,4.42,4.42,0,0,1,1.21-1.65,4.65,4.65,0,0,1,1.8-.92,6.81,6.81,0,0,1,2.23-.2,7.12,7.12,0,0,1,1.65.32,4.86,4.86,0,0,1,1.57.82,4.26,4.26,0,0,1,1.17,1.45,4.85,4.85,0,0,1,.45,2.21,9.82,9.82,0,0,1-.21,1.94l-7.57-.49a2.53,2.53,0,0,0,.28,1.15,2.48,2.48,0,0,0,.69.8,3.21,3.21,0,0,0,1,.5,5.12,5.12,0,0,0,1.19.21,6,6,0,0,0,2.07-.16,4,4,0,0,0,1.31-.63Zm-4.54-7.79a3.39,3.39,0,0,0-1,.08,2.66,2.66,0,0,0-.87.38,2.18,2.18,0,0,0-.64.67,2.09,2.09,0,0,0-.29.94l5.17,0.34A2.24,2.24,0,0,0,230.76,309.36Z"/><path class="cls-4" d="M237.51,316.09l2.61,0.16c0-2.35,0-3.53,0-5.88l-2.61-.16V307.9l4.73,0.29,0.32,1.4h0.08a5.08,5.08,0,0,1,1.35-1.08,3.2,3.2,0,0,1,1.77-.36,2.55,2.55,0,0,1,2,1,5.27,5.27,0,0,1,.73,3.13l-2.46-.14a2.18,2.18,0,0,0-.22-1.12,0.82,0.82,0,0,0-.7-0.39,2,2,0,0,0-1.36.34,3.89,3.89,0,0,0-.87.91v4.47l4.57,0.26c0,0.92,0,1.39,0,2.31l-9.91-.59C237.51,317.48,237.51,317,237.51,316.09Z"/><path class="cls-4" d="M258.88,324.06A10.22,10.22,0,0,1,256,323a9,9,0,0,1-2.46-2,9.54,9.54,0,0,1-1.72-2.95,11.2,11.2,0,0,1-.64-3.94,10.65,10.65,0,0,1,.64-3.86,8.5,8.5,0,0,1,1.72-2.79,7.91,7.91,0,0,1,2.46-1.78,10,10,0,0,1,2.86-.84l0.5,2.27a8.4,8.4,0,0,0-1.67.51,5.68,5.68,0,0,0-1.78,1.19,6.53,6.53,0,0,0-1.42,2.12,8.3,8.3,0,0,0-.58,3.33,8,8,0,0,0,.61,3.29,7.74,7.74,0,0,0,1.48,2.25,7.08,7.08,0,0,0,1.8,1.38,7.58,7.58,0,0,0,1.56.64Z"/><path class="cls-4" d="M266.91,318.08a4.05,4.05,0,0,0,1.21-.11,2.72,2.72,0,0,0,.94-0.43,2.16,2.16,0,0,0,.61-0.69,1.77,1.77,0,0,0,.22-0.88,2,2,0,0,0-.25-1,1.93,1.93,0,0,0-.69-0.68,3.48,3.48,0,0,0-1.06-.39,8.67,8.67,0,0,0-1.34-.16l-1.12-.05v-1.44l3.37-3.95-5.07-.24v-2.2l8.18,0.38V308l-3.53,3.86,0.46,0a4.08,4.08,0,0,1,1.36.3,3.61,3.61,0,0,1,1.17.77,3.78,3.78,0,0,1,.82,1.24,4.27,4.27,0,0,1,.31,1.67,4,4,0,0,1-.47,2,4.29,4.29,0,0,1-1.24,1.39,5,5,0,0,1-1.77.8,7.25,7.25,0,0,1-2.06.19,10.45,10.45,0,0,1-1.8-.25,9.07,9.07,0,0,1-1.74-.58l0.7-2.13a2.87,2.87,0,0,0,.49.22l0.7,0.23a7.76,7.76,0,0,0,.8.2A5.64,5.64,0,0,0,266.91,318.08Z"/><path class="cls-4" d="M275,310.74a4.82,4.82,0,0,1,.35-1.86,4,4,0,0,1,1-1.43,4.32,4.32,0,0,1,1.52-.9,5.33,5.33,0,0,1,2-.27,6,6,0,0,1,2,.42,4.51,4.51,0,0,1,1.58,1.07,4.75,4.75,0,0,1,1,1.7,6.73,6.73,0,0,1,.36,2.28,11.7,11.7,0,0,1-.6,4,7.88,7.88,0,0,1-1.61,2.74,6.6,6.6,0,0,1-2.36,1.63,9,9,0,0,1-2.81.65L277,318.69a6.81,6.81,0,0,0,2-.46,5.68,5.68,0,0,0,1.55-.93,4.9,4.9,0,0,0,1.08-1.3,4.39,4.39,0,0,0,.54-1.59,2.86,2.86,0,0,1-1.08.63,4.4,4.4,0,0,1-1.58.19h0a5,5,0,0,1-1.54-.32,4.4,4.4,0,0,1-1.41-.86,4.47,4.47,0,0,1-1-1.39A4.32,4.32,0,0,1,275,310.74Zm2.53,0a2.28,2.28,0,0,0,.21,1,2.34,2.34,0,0,0,.55.74,2.46,2.46,0,0,0,.79.47,3,3,0,0,0,.93.19,3.5,3.5,0,0,0,1.42-.2,2,2,0,0,0,.88-0.61,5.59,5.59,0,0,0,.06-0.8,3.9,3.9,0,0,0-.16-1.11,3.1,3.1,0,0,0-.48-1,2.5,2.5,0,0,0-.8-0.7,2.42,2.42,0,0,0-1.1-.29A2.12,2.12,0,0,0,277.57,310.71Z"/><path class="cls-4" d="M287.56,323.2l8.9,0.3c0,0.86,0,1.28,0,2.14l-8.9-.3V323.2Z"/><path class="cls-4" d="M299.11,311.63a4.85,4.85,0,0,1,.35-1.87,4.07,4.07,0,0,1,1-1.44,4.39,4.39,0,0,1,1.52-.92,5.38,5.38,0,0,1,2-.29,6,6,0,0,1,2,.4,4.44,4.44,0,0,1,1.58,1.05,4.69,4.69,0,0,1,1,1.69,6.69,6.69,0,0,1,.36,2.28,11.77,11.77,0,0,1-.6,4,8,8,0,0,1-1.61,2.76,6.72,6.72,0,0,1-2.36,1.66,9.11,9.11,0,0,1-2.81.68L301,319.55a6.86,6.86,0,0,0,2-.48,5.78,5.78,0,0,0,1.55-.95,5,5,0,0,0,1.08-1.31,4.43,4.43,0,0,0,.54-1.6,2.9,2.9,0,0,1-1.08.64,4.42,4.42,0,0,1-1.58.21h0a4.93,4.93,0,0,1-1.54-.3,4.34,4.34,0,0,1-1.41-.84,4.39,4.39,0,0,1-1-1.38A4.29,4.29,0,0,1,299.11,311.63Zm2.53-.06a2.27,2.27,0,0,0,.21,1,2.29,2.29,0,0,0,.55.74,2.42,2.42,0,0,0,.79.46,3,3,0,0,0,.93.18,3.52,3.52,0,0,0,1.42-.22,2,2,0,0,0,.88-0.62,5.6,5.6,0,0,0,.06-0.8,3.89,3.89,0,0,0-.16-1.1,3.06,3.06,0,0,0-.48-1,2.46,2.46,0,0,0-.8-0.69,2.4,2.4,0,0,0-1.1-.28A2.15,2.15,0,0,0,301.63,311.56Z"/><path class="cls-4" d="M312.18,319.4l3.07,0.07v-8.74l-2.65,2-1.2-1.63,4.57-3.37,1.76,0c0,4.72,0,7.08,0,11.8l3,0.06v2.2l-8.56-.19v-2.2Z"/><path class="cls-4" d="M333,317.66a4.42,4.42,0,0,1-.37,1.82,4.5,4.5,0,0,1-1,1.45,4.62,4.62,0,0,1-1.53,1,5,5,0,0,1-1.92.33,5.75,5.75,0,0,1-2-.36,4.51,4.51,0,0,1-1.6-1,4.84,4.84,0,0,1-1.08-1.68,6.26,6.26,0,0,1-.4-2.33,9,9,0,0,1,.69-3.59,9.72,9.72,0,0,1,1.78-2.78,9,9,0,0,1,2.43-1.88,8.05,8.05,0,0,1,2.67-.89l0.58,2.07a7.72,7.72,0,0,0-2,.62,7.17,7.17,0,0,0-1.64,1.06,6.45,6.45,0,0,0-1.21,1.4,4.91,4.91,0,0,0-.67,1.61,3,3,0,0,1,1.2-.83,4.34,4.34,0,0,1,1.77-.32,4.86,4.86,0,0,1,1.68.32,3.94,3.94,0,0,1,1.35.86,4,4,0,0,1,.9,1.36A4.77,4.77,0,0,1,333,317.66Zm-2.53.06a2.07,2.07,0,0,0-.65-1.65,2.64,2.64,0,0,0-1.76-.59,2.87,2.87,0,0,0-1.44.34,2.49,2.49,0,0,0-.94.82,3.25,3.25,0,0,0,0,.49c0,0.18,0,.32,0,0.43a2.69,2.69,0,0,0,.16.92A2.25,2.25,0,0,0,327,319.8a2.58,2.58,0,0,0,1,.21,2.47,2.47,0,0,0,.9-0.16,2.54,2.54,0,0,0,.78-0.46,2.28,2.28,0,0,0,.55-0.72A2.11,2.11,0,0,0,330.52,317.72Z"/><path class="cls-4" d="M335.69,324.37l8.91,0.09v2.14l-8.91-.09v-2.14Z"/><path class="cls-4" d="M347.37,318.72a3.43,3.43,0,0,1,.23-1.28,4,4,0,0,1,.6-1,5,5,0,0,1,.85-0.83,8,8,0,0,1,1-.64,6.22,6.22,0,0,1-1.67-1.38,3,3,0,0,1-.66-2,3.2,3.2,0,0,1,.34-1.46,3.55,3.55,0,0,1,1-1.17,4.49,4.49,0,0,1,1.45-.77,5.75,5.75,0,0,1,1.82-.27,5.85,5.85,0,0,1,1.7.25,4.62,4.62,0,0,1,1.39.68,3.22,3.22,0,0,1,.94,1.07,2.88,2.88,0,0,1,.34,1.39,3.51,3.51,0,0,1-.61,2.06,5.33,5.33,0,0,1-1.68,1.52,6.22,6.22,0,0,1,1.92,1.46,3.23,3.23,0,0,1,.71,2.16,3.39,3.39,0,0,1-.39,1.63,3.92,3.92,0,0,1-1.05,1.25,4.94,4.94,0,0,1-1.56.81,6.06,6.06,0,0,1-1.9.28,6.18,6.18,0,0,1-1.87-.28,5,5,0,0,1-1.5-.76,3.48,3.48,0,0,1-1-1.17A3.21,3.21,0,0,1,347.37,318.72Zm7.14-.31a1.43,1.43,0,0,0-.26-0.86,2.82,2.82,0,0,0-.65-0.64,6,6,0,0,0-.86-0.51l-0.91-.47a3.89,3.89,0,0,0-1.54,1.12,2.16,2.16,0,0,0-.54,1.31,1.65,1.65,0,0,0,.64,1.39,2.89,2.89,0,0,0,1.79.5,2.83,2.83,0,0,0,1.68-.46A1.57,1.57,0,0,0,354.51,318.41Zm-4.31-6.72a1.47,1.47,0,0,0,.21.81,2.22,2.22,0,0,0,.54.58,4.32,4.32,0,0,0,.75.45l0.84,0.4a3.83,3.83,0,0,0,.63-0.4,3.5,3.5,0,0,0,.55-0.53,2.9,2.9,0,0,0,.39-0.6,1.48,1.48,0,0,0,0-1.36,1.8,1.8,0,0,0-.47-0.53,2.09,2.09,0,0,0-.65-0.33,2.54,2.54,0,0,0-.74-0.11,2.3,2.3,0,0,0-1.45.49,1.56,1.56,0,0,0-.42.52A1.32,1.32,0,0,0,350.2,311.69Z"/><path class="cls-4" d="M359,315.16a11.89,11.89,0,0,1,.38-3.19,6.59,6.59,0,0,1,1.08-2.27,4.47,4.47,0,0,1,1.66-1.35,5.06,5.06,0,0,1,2.15-.45,4.64,4.64,0,0,1,3.91,1.76q1.37,1.76,1.37,5.48a12,12,0,0,1-.38,3.21,6.7,6.7,0,0,1-1.08,2.28,4.42,4.42,0,0,1-1.67,1.37,5.11,5.11,0,0,1-2.16.46,4.5,4.5,0,0,1-3.91-1.87A9.21,9.21,0,0,1,359,315.16Zm2.61,0c0,0.2,0,.39,0,0.57s0,0.36,0,.55l4.86-4.47a2.24,2.24,0,0,0-2.25-1.71,2.15,2.15,0,0,0-2,1.23A8.17,8.17,0,0,0,361.57,315.16Zm5.34,0q0-.32,0-0.61c0-.19,0-0.38,0-0.57L362,318.43a2.28,2.28,0,0,0,2.25,1.82,2.17,2.17,0,0,0,2-1.23A8.18,8.18,0,0,0,366.91,315.14Z"/><path class="cls-4" d="M371,315.12a11.91,11.91,0,0,1,.38-3.19,6.62,6.62,0,0,1,1.08-2.28,4.51,4.51,0,0,1,1.66-1.36,5.08,5.08,0,0,1,2.15-.47,4.61,4.61,0,0,1,3.91,1.73q1.37,1.76,1.37,5.48a12.06,12.06,0,0,1-.38,3.21,6.74,6.74,0,0,1-1.08,2.29,4.45,4.45,0,0,1-1.67,1.38,5.13,5.13,0,0,1-2.16.47,4.48,4.48,0,0,1-3.91-1.84A9.17,9.17,0,0,1,371,315.12Zm2.61,0c0,0.2,0,.39,0,0.57s0,0.36,0,.55l4.86-4.5a2.22,2.22,0,0,0-2.25-1.7,2.17,2.17,0,0,0-2,1.25A8.2,8.2,0,0,0,373.61,315.11Zm5.34,0q0-.32,0-0.61c0-.19,0-0.38,0-0.57l-4.88,4.5a2.27,2.27,0,0,0,2.25,1.8,2.19,2.19,0,0,0,2-1.24A8.21,8.21,0,0,0,378.95,315.06Z"/><path class="cls-4" d="M386.65,320.71a1.39,1.39,0,0,1,.45-1.09,1.67,1.67,0,0,1,1.13-.42,2,2,0,0,1,1.66.7,2.77,2.77,0,0,1,.56,1.77,3.81,3.81,0,0,1-.35,1.65,4.42,4.42,0,0,1-.91,1.29,5,5,0,0,1-1.25.9,5.2,5.2,0,0,1-1.37.48L386,324.9a5.9,5.9,0,0,0,1-.35,4,4,0,0,0,.89-0.56,3.14,3.14,0,0,0,.67-0.78,2.14,2.14,0,0,0,.31-1,2.55,2.55,0,0,1-1,0,1.52,1.52,0,0,1-.69-0.31,1.29,1.29,0,0,1-.39-0.56A2.06,2.06,0,0,1,386.65,320.71Z"/><path class="cls-4" d="M396.44,319.64l3.07-.06v-8.74l-2.65,2.07-1.2-1.58,4.57-3.57,1.76,0v11.8l3-.07v2.2l-8.57.18v-2.2Z"/><path class="cls-4" d="M408.87,323.73a7.36,7.36,0,0,0,1.56-.6,6.83,6.83,0,0,0,1.8-1.33,7.47,7.47,0,0,0,1.48-2.21,7.86,7.86,0,0,0,.61-3.27,8.4,8.4,0,0,0-.58-3.34,6.8,6.8,0,0,0-1.42-2.16,5.88,5.88,0,0,0-1.78-1.23,8.61,8.61,0,0,0-1.67-.56l0.51-2.26a10.23,10.23,0,0,1,2.86.91,8.21,8.21,0,0,1,2.46,1.84,8.81,8.81,0,0,1,1.72,2.84,10.78,10.78,0,0,1,.64,3.88,11.06,11.06,0,0,1-.64,3.92,9.24,9.24,0,0,1-1.72,2.91,8.69,8.69,0,0,1-2.46,1.94,10,10,0,0,1-2.86,1Z"/><path class="cls-4" d="M556.13,310.51a4.31,4.31,0,0,0,1.21-.29,3.26,3.26,0,0,0,.94-0.57,2.67,2.67,0,0,0,.61-0.78,2,2,0,0,0,.22-0.91,1.77,1.77,0,0,0-.25-1,1.56,1.56,0,0,0-.69-0.58,3.07,3.07,0,0,0-1.06-.23,8.37,8.37,0,0,0-1.34,0l-1.12.11v-1.44l3.36-4.44-5.06.5v-2.2l8.15-.81v1.82l-3.52,4.38,0.46,0a3.82,3.82,0,0,1,1.36.1,3,3,0,0,1,1.17.6,3.09,3.09,0,0,1,.82,1.12,4,4,0,0,1,.31,1.63,4.4,4.4,0,0,1-.47,2,5.3,5.3,0,0,1-1.24,1.58,6,6,0,0,1-1.77,1.06,7.73,7.73,0,0,1-2.06.5,10.11,10.11,0,0,1-1.8,0,8.12,8.12,0,0,1-1.74-.33l0.7-2.23a2.47,2.47,0,0,0,.49.15l0.7,0.13a7.08,7.08,0,0,0,.8.08A5.44,5.44,0,0,0,556.13,310.51Z"/><path class="cls-4" d="M564.24,302a5.22,5.22,0,0,1,.35-1.92,4.88,4.88,0,0,1,1-1.57,5.25,5.25,0,0,1,1.52-1.12,5.78,5.78,0,0,1,2-.56,5.64,5.64,0,0,1,2,.12,3.71,3.71,0,0,1,1.58.84,3.91,3.91,0,0,1,1,1.55,6.31,6.31,0,0,1,.36,2.23,12.53,12.53,0,0,1-.6,4.06,9.5,9.5,0,0,1-1.61,3,8.11,8.11,0,0,1-2.35,2,10.14,10.14,0,0,1-2.8,1.06l-0.56-2a7.64,7.64,0,0,0,2-.75,6.93,6.93,0,0,0,1.55-1.15,6.05,6.05,0,0,0,1.08-1.46,5,5,0,0,0,.54-1.67,3.47,3.47,0,0,1-1.08.79,4.74,4.74,0,0,1-1.58.42h0a4.65,4.65,0,0,1-1.54-.1,3.67,3.67,0,0,1-1.41-.65,3.63,3.63,0,0,1-1-1.24A4,4,0,0,1,564.24,302Zm2.52-.4a2.09,2.09,0,0,0,.21,1,1.89,1.89,0,0,0,.55.66,2.05,2.05,0,0,0,.79.36,2.79,2.79,0,0,0,.93.05,3.82,3.82,0,0,0,1.42-.41,2.44,2.44,0,0,0,.88-0.73,5.78,5.78,0,0,0,.06-0.81,3.69,3.69,0,0,0-.16-1.08,2.61,2.61,0,0,0-.48-0.91,2,2,0,0,0-.8-0.58,2.22,2.22,0,0,0-1.1-.13A2.51,2.51,0,0,0,566.76,301.59Z"/><path class="cls-4" d="M576.71,312.62l8.87-1c0,0.86,0,1.28,0,2.14l-8.87,1C576.71,313.9,576.71,313.47,576.71,312.62Z"/><path class="cls-4" d="M588.21,299.36a5.27,5.27,0,0,1,.35-1.92,5,5,0,0,1,1-1.58,5.34,5.34,0,0,1,1.52-1.14,5.83,5.83,0,0,1,2-.58,5.61,5.61,0,0,1,2,.1,3.66,3.66,0,0,1,1.58.82,3.85,3.85,0,0,1,1,1.54,6.28,6.28,0,0,1,.36,2.23,12.61,12.61,0,0,1-.6,4.07,9.65,9.65,0,0,1-1.61,3,8.25,8.25,0,0,1-2.34,2,10.25,10.25,0,0,1-2.79,1.09l-0.56-2a7.72,7.72,0,0,0,2-.77,7,7,0,0,0,1.55-1.17,6.15,6.15,0,0,0,1.08-1.47,5.07,5.07,0,0,0,.54-1.67,3.52,3.52,0,0,1-1.08.8,4.77,4.77,0,0,1-1.58.44h0a4.64,4.64,0,0,1-1.54-.08,3.61,3.61,0,0,1-1.41-.64,3.56,3.56,0,0,1-1-1.23A3.94,3.94,0,0,1,588.21,299.36Zm2.51-.43a2.08,2.08,0,0,0,.21,1,1.86,1.86,0,0,0,.55.66,2,2,0,0,0,.79.35,2.77,2.77,0,0,0,.93,0,3.83,3.83,0,0,0,1.42-.43,2.48,2.48,0,0,0,.88-0.75,5.82,5.82,0,0,0,.06-0.81,3.67,3.67,0,0,0-.16-1.08,2.57,2.57,0,0,0-.48-0.9,2,2,0,0,0-.8-0.57,2.2,2.2,0,0,0-1.1-.12A2.55,2.55,0,0,0,590.72,298.93Z"/><path class="cls-4" d="M601.22,305.23l3.05-.38c0-3.5,0-5.24,0-8.74l-2.63,2.35-1.2-1.45,4.55-4,1.75-.22c0,4.72,0,7.08,0,11.8l3-.38v2.2l-8.52,1.06v-2.2Z"/><path class="cls-4" d="M622,300.43a4.83,4.83,0,0,1-.37,1.87,5.49,5.49,0,0,1-1,1.59,5.63,5.63,0,0,1-1.53,1.18,5.47,5.47,0,0,1-1.9.61,5.4,5.4,0,0,1-1.94-.08,3.73,3.73,0,0,1-1.59-.78,4,4,0,0,1-1.08-1.52,5.84,5.84,0,0,1-.4-2.27,9.78,9.78,0,0,1,.69-3.69,11.81,11.81,0,0,1,1.77-3,11.14,11.14,0,0,1,2.41-2.23,9.27,9.27,0,0,1,2.65-1.28l0.58,2a8.84,8.84,0,0,0-3.61,2.21,8,8,0,0,0-1.21,1.58,5.72,5.72,0,0,0-.67,1.71,3.71,3.71,0,0,1,1.2-1,4.77,4.77,0,0,1,1.75-.58,4.56,4.56,0,0,1,1.67.07,3.15,3.15,0,0,1,2.24,1.89A4.43,4.43,0,0,1,622,300.43Zm-2.51.43a1.8,1.8,0,0,0-.65-1.55,2.35,2.35,0,0,0-1.74-.33,3.21,3.21,0,0,0-1.44.55,3.08,3.08,0,0,0-.94,1,3.49,3.49,0,0,0,0,.5c0,0.18,0,.32,0,0.43a2.51,2.51,0,0,0,.16.9,1.82,1.82,0,0,0,1.22,1.13,2.43,2.43,0,0,0,1,.06,2.7,2.7,0,0,0,.9-0.29,3.08,3.08,0,0,0,.78-0.57,2.8,2.8,0,0,0,.55-0.8A2.33,2.33,0,0,0,619.44,300.87Z"/><path class="cls-4" d="M624.59,306.76l8.85-1.21c0,0.86,0,1.28,0,2.14l-8.85,1.21C624.59,308,624.59,307.62,624.59,306.76Z"/><path class="cls-4" d="M636.18,299.4a3.72,3.72,0,0,1,.23-1.31A4.77,4.77,0,0,1,637,297a6.17,6.17,0,0,1,.85-0.95,9.84,9.84,0,0,1,1-.79,5,5,0,0,1-1.65-1.14,2.65,2.65,0,0,1-.66-1.9,3.54,3.54,0,0,1,.34-1.51,4.38,4.38,0,0,1,.95-1.31,5.42,5.42,0,0,1,1.44-1,6.24,6.24,0,0,1,1.81-.54,5.57,5.57,0,0,1,1.68,0,3.91,3.91,0,0,1,1.38.48,2.59,2.59,0,0,1,.94.93,2.62,2.62,0,0,1,.34,1.34,4,4,0,0,1-.61,2.15,6.58,6.58,0,0,1-1.66,1.76,5,5,0,0,1,1.9,1.18,2.85,2.85,0,0,1,.71,2.06,3.76,3.76,0,0,1-.39,1.69,4.84,4.84,0,0,1-1,1.4,5.91,5.91,0,0,1-1.54,1,6.55,6.55,0,0,1-1.88.56,5.9,5.9,0,0,1-1.85,0,4.2,4.2,0,0,1-1.49-.54,2.8,2.8,0,0,1-1-1A2.93,2.93,0,0,1,636.18,299.4Zm7.09-1.35a1.27,1.27,0,0,0-.26-0.82,2.27,2.27,0,0,0-.65-0.55,5,5,0,0,0-.86-0.39L640.6,296a4.78,4.78,0,0,0-1.53,1.35,2.5,2.5,0,0,0-.54,1.39,1.42,1.42,0,0,0,.64,1.3,2.61,2.61,0,0,0,1.77.24,3.19,3.19,0,0,0,1.67-.71A1.84,1.84,0,0,0,643.27,298.05ZM639,292a1.34,1.34,0,0,0,.21.78,1.79,1.79,0,0,0,.54.5,3.58,3.58,0,0,0,.75.34l0.84,0.28a4.64,4.64,0,0,0,.63-0.49,4.31,4.31,0,0,0,.55-0.61,3.52,3.52,0,0,0,.39-0.66,1.57,1.57,0,0,0,.15-0.65,1.3,1.3,0,0,0-.18-0.7,1.45,1.45,0,0,0-.47-0.46,1.76,1.76,0,0,0-.65-0.24,2.42,2.42,0,0,0-.74,0,2.5,2.5,0,0,0-.81.25,2.75,2.75,0,0,0-.64.45,1.92,1.92,0,0,0-.42.58A1.47,1.47,0,0,0,639,292Z"/><path class="cls-4" d="M647.69,294.15a12.62,12.62,0,0,1,.38-3.25,7.79,7.79,0,0,1,1.07-2.43,5.51,5.51,0,0,1,1.65-1.59,5.59,5.59,0,0,1,2.14-.77,4,4,0,0,1,3.87,1.19q1.36,1.56,1.36,5.28a12.79,12.79,0,0,1-.38,3.27,7.94,7.94,0,0,1-1.07,2.44,5.44,5.44,0,0,1-1.66,1.61,5.65,5.65,0,0,1-2.15.77,3.87,3.87,0,0,1-3.87-1.29Q647.69,297.71,647.69,294.15Zm2.59-.38c0,0.2,0,.39,0,0.57s0,0.36,0,.55l4.82-5.18a1.88,1.88,0,0,0-2.23-1.39,2.57,2.57,0,0,0-1.94,1.52A8.9,8.9,0,0,0,650.27,293.77Zm5.29-.79q0-.32,0-0.61c0-.19,0-0.38,0-0.57L650.69,297a1.91,1.91,0,0,0,2.23,1.49,2.6,2.6,0,0,0,2-1.51A8.92,8.92,0,0,0,655.57,293Z"/><path class="cls-4" d="M659.62,292.36a12.66,12.66,0,0,1,.38-3.25,7.85,7.85,0,0,1,1.07-2.43,5.56,5.56,0,0,1,1.65-1.6,5.62,5.62,0,0,1,2.14-.78,4,4,0,0,1,3.87,1.16q1.36,1.56,1.36,5.28a12.82,12.82,0,0,1-.38,3.27,8,8,0,0,1-1.07,2.45,5.49,5.49,0,0,1-1.66,1.62,5.68,5.68,0,0,1-2.15.79,3.84,3.84,0,0,1-3.87-1.27Q659.62,295.92,659.62,292.36Zm2.59-.4c0,0.2,0,.39,0,0.57s0,0.36,0,.55l4.81-5.21a1.86,1.86,0,0,0-2.23-1.37,2.59,2.59,0,0,0-1.94,1.53A8.93,8.93,0,0,0,662.21,292Zm5.29-.82q0-.32,0-0.61c0-.19,0-0.38,0-0.57l-4.83,5.21a1.89,1.89,0,0,0,2.23,1.48,2.62,2.62,0,0,0,2-1.52A9,9,0,0,0,667.5,291.14Z"/><path class="cls-4" d="M46.31,343.69l2.59,0.41v-5.88l-2.59-.41V335.5l4.7,0.74,0.31,1.43H51.4a4.42,4.42,0,0,1,1.34-.95,3,3,0,0,1,1.75-.19,2.84,2.84,0,0,1,2,1.23,5.66,5.66,0,0,1,.72,3.2l-2.44-.37a2.33,2.33,0,0,0-.22-1.14,0.92,0.92,0,0,0-.7-0.45,1.86,1.86,0,0,0-1.35.21,3.37,3.37,0,0,0-.87.83v4.47l4.53,0.7v2.31c-3.93-.6-5.9-0.91-9.83-1.53v-2.31Z"/><path class="cls-4" d="M69.18,348.37a3,3,0,0,1-.7.39,5.88,5.88,0,0,1-1,.3,7.17,7.17,0,0,1-1.26.15,8.08,8.08,0,0,1-1.46-.09,7.76,7.76,0,0,1-2.39-.74,5.81,5.81,0,0,1-2.9-3.28,7,7,0,0,1-.39-2.38,5.71,5.71,0,0,1,.44-2.36,3.92,3.92,0,0,1,1.2-1.55,4.19,4.19,0,0,1,1.79-.77,6.65,6.65,0,0,1,2.21,0,7.42,7.42,0,0,1,1.64.45,5.36,5.36,0,0,1,1.56,1A4.8,4.8,0,0,1,69.06,341a5.13,5.13,0,0,1,.45,2.25,9.59,9.59,0,0,1-.21,1.92L61.78,344a2.7,2.7,0,0,0,.28,1.18,2.8,2.8,0,0,0,.69.86,3.55,3.55,0,0,0,1,.58,5.34,5.34,0,0,0,1.18.31A5.88,5.88,0,0,0,67,347a3.67,3.67,0,0,0,1.31-.52Zm-4.51-8.16a3.32,3.32,0,0,0-1,0,2.43,2.43,0,0,0-.87.31,1.92,1.92,0,0,0-.64.62,2,2,0,0,0-.29.92L67,342.82a2.64,2.64,0,0,0-.57-1.74A2.68,2.68,0,0,0,64.67,340.21Z"/><path class="cls-4" d="M82,350.31a5.15,5.15,0,0,1-2,.69,8.52,8.52,0,0,1-2.4,0,7.45,7.45,0,0,1-2.41-.75,6,6,0,0,1-1.78-1.38,5.75,5.75,0,0,1-1.1-1.91,7,7,0,0,1-.38-2.32,5.49,5.49,0,0,1,.44-2.29,4,4,0,0,1,1.22-1.57,4.44,4.44,0,0,1,1.85-.82,6.86,6.86,0,0,1,2.32,0,9.27,9.27,0,0,1,2.2.58,11.81,11.81,0,0,1,1.57.75V345l-2.3-.32v-1.93a6.33,6.33,0,0,0-1.3-.33,3.76,3.76,0,0,0-1.16,0A2.34,2.34,0,0,0,75,343.67,3,3,0,0,0,74.7,345a3.52,3.52,0,0,0,.23,1.27,3.56,3.56,0,0,0,.65,1.08,3.61,3.61,0,0,0,1,.81,4.1,4.1,0,0,0,1.37.44,4.65,4.65,0,0,0,2-.06,6.65,6.65,0,0,0,1.14-.43Z"/><path class="cls-4" d="M90,341.93l3.89,0.53v8.19l1.59,0.21v2.31l-3.31-.44L91.7,351.1H91.61a3,3,0,0,1-1.44,1.13,4.07,4.07,0,0,1-2.13.23,5.2,5.2,0,0,1-1.45-.41,3.15,3.15,0,0,1-1.12-.85,3.81,3.81,0,0,1-.71-1.4,7.51,7.51,0,0,1-.25-2.09v-4.22l-1.19-.17V341l3.91,0.54v6a3.53,3.53,0,0,0,.41,1.9,1.72,1.72,0,0,0,1.29.74,2.09,2.09,0,0,0,2.26-1.29V344.4L90,344.24v-2.31Z"/><path class="cls-4" d="M96.47,351l2.6,0.34v-5.88l-2.6-.34V342.8l4.71,0.62,0.31,1.43h0.08a4.6,4.6,0,0,1,1.34-1,3.06,3.06,0,0,1,1.76-.24,2.76,2.76,0,0,1,2,1.18,5.55,5.55,0,0,1,.72,3.18l-2.45-.31a2.29,2.29,0,0,0-.22-1.13,0.89,0.89,0,0,0-.7-0.44,1.89,1.89,0,0,0-1.35.25,3.5,3.5,0,0,0-.87.85v4.47l4.54,0.59v2.31l-9.86-1.28V351Z"/><path class="cls-4" d="M117.74,360.46a10.92,10.92,0,0,1-2.85-1.27,10,10,0,0,1-2.45-2.17,10.45,10.45,0,0,1-1.71-3.07,11.63,11.63,0,0,1-.64-4,10.33,10.33,0,0,1,.64-3.82,7.74,7.74,0,0,1,1.71-2.67,7.13,7.13,0,0,1,2.45-1.61,9.42,9.42,0,0,1,2.85-.64l0.5,2.31a7.89,7.89,0,0,0-1.67.4,5.14,5.14,0,0,0-1.77,1.06,5.93,5.93,0,0,0-1.41,2,8,8,0,0,0-.58,3.29,8.32,8.32,0,0,0,.61,3.33A8.5,8.5,0,0,0,114.9,356a7.77,7.77,0,0,0,1.79,1.5,8.15,8.15,0,0,0,1.55.75Z"/><path class="cls-4" d="M123,354.33l3.21,0.38v-9.18l-2.77,1.79-1.26-1.83,4.78-3.09,1.84,0.22c0,5,0,7.43,0,12.39l3.14,0.36v2.31l-8.95-1C123,355.72,123,355.26,123,354.33Z"/><path class="cls-4" d="M135.58,355.79l3.21,0.36V347L136,348.79,134.76,347l4.78-3.12,1.85,0.2c0,5,0,7.43,0,12.39l3.15,0.34v2.31l-9-1v-2.31Z"/><path class="cls-4" d="M150.51,358.39a1.29,1.29,0,0,1,.47-1.08,1.58,1.58,0,0,1,1.19-.3,2.32,2.32,0,0,1,1.74.94,3.22,3.22,0,0,1,.59,1.93,3.74,3.74,0,0,1-.37,1.68,3.94,3.94,0,0,1-1,1.24,4.5,4.5,0,0,1-1.31.79,4.92,4.92,0,0,1-1.44.33l-0.57-1.21a5.62,5.62,0,0,0,1-.25,3.57,3.57,0,0,0,.93-0.48,2.77,2.77,0,0,0,.7-0.73,2,2,0,0,0,.33-1,2.68,2.68,0,0,1-1.07-.08,1.83,1.83,0,0,1-.72-0.41,1.59,1.59,0,0,1-.41-0.63A2.28,2.28,0,0,1,150.51,358.39Z"/><path class="cls-4" d="M160.75,358.48L164,358.8v-9.18l-2.77,1.85-1.26-1.81,4.78-3.18,1.85,0.18c0,5,0,7.43,0,12.39l3.15,0.3v2.31l-9-.88C160.75,359.86,160.75,359.4,160.75,358.48Z"/><path class="cls-4" d="M171.91,354.51a12.13,12.13,0,0,1,.4-3.31,6.19,6.19,0,0,1,1.13-2.28,4.1,4.1,0,0,1,1.74-1.25,5,5,0,0,1,2.26-.26,5.39,5.39,0,0,1,4.09,2.23,10,10,0,0,1,1.43,5.89,12.23,12.23,0,0,1-.4,3.33,6.32,6.32,0,0,1-1.13,2.29,4.06,4.06,0,0,1-1.75,1.27,5.09,5.09,0,0,1-2.27.27,5.25,5.25,0,0,1-4.09-2.34A10.36,10.36,0,0,1,171.91,354.51Zm2.73,0.26q0,0.31,0,.6c0,0.19,0,.38,0,0.58l5.08-4.21a2.64,2.64,0,0,0-2.35-2,2,2,0,0,0-2.05,1.1A8.17,8.17,0,0,0,174.64,354.76Zm5.59,0.51q0-.34,0-0.64c0-.2,0-0.4,0-0.6l-5.1,4.21a2.7,2.7,0,0,0,2.35,2.13,2,2,0,0,0,2.06-1.09A8.18,8.18,0,0,0,180.23,355.28Z"/><path class="cls-4" d="M186.23,365.35a6.68,6.68,0,0,0,1.55-.42,5.84,5.84,0,0,0,1.8-1.13,6.4,6.4,0,0,0,1.48-2,7.41,7.41,0,0,0,.61-3.2,8.91,8.91,0,0,0-.58-3.41,7.89,7.89,0,0,0-1.42-2.32,6.9,6.9,0,0,0-1.77-1.43,9.63,9.63,0,0,0-1.67-.74l0.5-2.2a11.36,11.36,0,0,1,2.86,1.23,9.64,9.64,0,0,1,2.46,2.12,10.19,10.19,0,0,1,1.71,3,11.39,11.39,0,0,1,.64,3.95,10.48,10.48,0,0,1-.64,3.85,8,8,0,0,1-1.71,2.71,7.4,7.4,0,0,1-2.46,1.66,9.09,9.09,0,0,1-2.86.68Z"/><path class="cls-4" d="M311.42,370.25v-2.31l2.48,0.06v-5.88l-2.51-.06v-2.31l2.51,0.06v-0.59a3.8,3.8,0,0,1,.35-1.69,3.3,3.3,0,0,1,.92-1.15,3.65,3.65,0,0,1,1.32-.65,5.43,5.43,0,0,1,1.55-.19,10,10,0,0,1,2.39.29,6.29,6.29,0,0,1,1.55.63l-0.8,2.06a10,10,0,0,0-1-.44,4.64,4.64,0,0,0-1.44-.22,2,2,0,0,0-1.59.48,2.24,2.24,0,0,0-.45,1.53l4.42,0.1v2.31l-4.42-.1v5.88l4.44,0.1v2.31Z"/><path class="cls-4" d="M324.46,360.75a11.41,11.41,0,0,1,1.95-.61,11,11,0,0,1,2.62-.23,5.87,5.87,0,0,1,1.86.29,3.19,3.19,0,0,1,1.24.76,2.89,2.89,0,0,1,.68,1.17,5.06,5.06,0,0,1,.21,1.52q0,1.07-.07,1.83t-0.07,1.34a8.91,8.91,0,0,0,0,1c0,0.19,0,.39.06,0.57l1.37,0v2.31l-3.54-.05-0.28-1.43h-0.1a3.55,3.55,0,0,1-1.19,1.1,4,4,0,0,1-2.09.44,3.61,3.61,0,0,1-2.49-.89,2.92,2.92,0,0,1-.92-2.24,3.3,3.3,0,0,1,.32-1.52,2.64,2.64,0,0,1,.94-1,4.41,4.41,0,0,1,1.49-.58,8.71,8.71,0,0,1,1.94-.17c0.25,0,.52,0,0.8.06l1,0.1a2.09,2.09,0,0,0,0-.42v-0.4a1.36,1.36,0,0,0-.46-1.15,2.27,2.27,0,0,0-1.36-.37,6.33,6.33,0,0,0-1.92.24,12.19,12.19,0,0,0-1.44.52Zm3.58,7.77a2.49,2.49,0,0,0,1.5-.34,2.4,2.4,0,0,0,.73-0.78v-1.26l-0.62-.1a7.3,7.3,0,0,0-.9-0.07,4.37,4.37,0,0,0-.79.06,2.6,2.6,0,0,0-.71.22,1.36,1.36,0,0,0-.5.4,1,1,0,0,0-.19.6,1.22,1.22,0,0,0,.34.92A1.64,1.64,0,0,0,328,368.52Z"/><path class="cls-4" d="M346.7,369.82a6,6,0,0,1-2,1,8.86,8.86,0,0,1-2.42.3,6.9,6.9,0,0,1-2.43-.43,5,5,0,0,1-1.79-1.14,4.85,4.85,0,0,1-1.11-1.77,6.55,6.55,0,0,1-.38-2.27,5.87,5.87,0,0,1,.44-2.35,4.86,4.86,0,0,1,1.23-1.73,5.23,5.23,0,0,1,1.86-1.06,7.19,7.19,0,0,1,2.34-.34,8.7,8.7,0,0,1,2.21.29,10.44,10.44,0,0,1,1.58.54v3.7l-2.32,0v-1.93a6,6,0,0,0-1.31-.16,4,4,0,0,0-1.17.17,2.83,2.83,0,0,0-1,.56,2.92,2.92,0,0,0-.74,1,3.19,3.19,0,0,0-.28,1.4,3.26,3.26,0,0,0,.23,1.24,3,3,0,0,0,.65,1,3,3,0,0,0,1,.67,3.79,3.79,0,0,0,1.38.26,4.9,4.9,0,0,0,2-.32,7.84,7.84,0,0,0,1.15-.58Z"/><path class="cls-4" d="M350.28,362.66H348.2v-2.31h2.08V358l2.74-.76v3.17l5.52,0v2.31l-5.52,0v3a3.63,3.63,0,0,0,.61,2.34,2.12,2.12,0,0,0,1.71.73,3.61,3.61,0,0,0,1-.13,3.9,3.9,0,0,0,.83-0.34,4.85,4.85,0,0,0,.67-0.46l0.56-.46,1.26,1.89a4,4,0,0,1-.9.77,7.54,7.54,0,0,1-1.16.61,7.34,7.34,0,0,1-1.3.41,6.24,6.24,0,0,1-1.33.14,4.56,4.56,0,0,1-3.55-1.33,6.12,6.12,0,0,1-1.19-4.18v-3Z"/><path class="cls-4" d="M361.22,365.64a6.46,6.46,0,0,1,.4-2.35,4.81,4.81,0,0,1,1.14-1.74,4.88,4.88,0,0,1,1.76-1.08,6.77,6.77,0,0,1,2.29-.37,6.6,6.6,0,0,1,2.37.39,4.87,4.87,0,0,1,1.76,1.12,4.7,4.7,0,0,1,1.08,1.75,6.66,6.66,0,0,1,.37,2.27A6.47,6.47,0,0,1,372,368a4.76,4.76,0,0,1-2.9,2.84,6.71,6.71,0,0,1-2.29.37,6.56,6.56,0,0,1-2.37-.4,4.88,4.88,0,0,1-1.76-1.12,4.72,4.72,0,0,1-1.08-1.75A6.68,6.68,0,0,1,361.22,365.64Zm2.82,0a4.16,4.16,0,0,0,.19,1.28,3.14,3.14,0,0,0,.55,1,2.45,2.45,0,0,0,.86.68,2.65,2.65,0,0,0,1.16.24,2.68,2.68,0,0,0,2-.78,3.39,3.39,0,0,0,.77-2.46,3.62,3.62,0,0,0-.72-2.34,2.46,2.46,0,0,0-2-.89,3.29,3.29,0,0,0-1.1.18,2.14,2.14,0,0,0-.87.58,2.82,2.82,0,0,0-.58,1A4.53,4.53,0,0,0,364,365.64Z"/><path class="cls-4" d="M373.94,368.55l2.61,0v-5.88l-2.61,0v-2.31l4.74,0,0.32,1.38h0.08a5.63,5.63,0,0,1,1.35-1.17,3.36,3.36,0,0,1,1.77-.48,2.37,2.37,0,0,1,2,.9,5,5,0,0,1,.73,3.08l-2.46,0a2.1,2.1,0,0,0-.22-1.1,0.77,0.77,0,0,0-.71-0.34,2.1,2.1,0,0,0-1.36.43,4.29,4.29,0,0,0-.87,1v4.47l4.57,0v2.31l-9.92.08v-2.31Z"/><path class="cls-4" d="M387,368.44l3.71,0v-5.88l-3.71,0c0-.92,0-1.39,0-2.31l6.45-.09v8.19l3.9-.06v2.31c-4.14.07-6.2,0.1-10.34,0.15C387,369.82,387,369.36,387,368.44Zm3.2-11.09a1.5,1.5,0,0,1,.48-1.12,1.9,1.9,0,0,1,1.35-.48,2,2,0,0,1,1.41.44,1.41,1.41,0,0,1,.53,1.1,1.38,1.38,0,0,1-.53,1.11,2.19,2.19,0,0,1-1.41.45,1.93,1.93,0,0,1-1.35-.41A1.39,1.39,0,0,1,390.2,357.35Z"/><path class="cls-4" d="M400.29,360.76a11.78,11.78,0,0,1,1.95-.69,11.14,11.14,0,0,1,2.62-.33,5.79,5.79,0,0,1,1.86.22,3,3,0,0,1,1.24.72,2.75,2.75,0,0,1,.68,1.14,5,5,0,0,1,.21,1.51q0,1.07-.07,1.83t-0.07,1.35a8.9,8.9,0,0,0,0,1c0,0.19,0,.38.06,0.57l1.37,0v2.31l-3.53.08L406.38,369h-0.1a3.74,3.74,0,0,1-1.19,1.15,4,4,0,0,1-2.09.52,3.5,3.5,0,0,1-2.49-.79,2.81,2.81,0,0,1-.92-2.21,3.37,3.37,0,0,1,.32-1.53,2.79,2.79,0,0,1,.94-1.07,4.58,4.58,0,0,1,1.49-.64,8.78,8.78,0,0,1,1.94-.24c0.25,0,.52,0,0.8,0l1,0.06a2.11,2.11,0,0,0,0-.42v-0.4a1.31,1.31,0,0,0-.46-1.13,2.2,2.2,0,0,0-1.36-.32,6.4,6.4,0,0,0-1.92.31,12.43,12.43,0,0,0-1.44.58Zm3.58,7.64a2.33,2.33,0,0,0,2.23-1.2v-1.26l-0.62-.08a7.29,7.29,0,0,0-.9,0,4.38,4.38,0,0,0-.79.09,2.71,2.71,0,0,0-.71.24,1.43,1.43,0,0,0-.5.42,1,1,0,0,0-.19.61,1.18,1.18,0,0,0,.34.91A1.59,1.59,0,0,0,403.88,368.39Z"/><path class="cls-4" d="M412.87,355.57l4.49-.12v9.7a4.42,4.42,0,0,0,.4,2.24A1.37,1.37,0,0,0,419,368a3.56,3.56,0,0,0,1.07-.17,4.19,4.19,0,0,0,.84-0.41l1,1.86c-0.24.16-.48,0.31-0.72,0.45a4.76,4.76,0,0,1-.76.36,5.33,5.33,0,0,1-.87.23,7,7,0,0,1-1.06.1,3.89,3.89,0,0,1-3-.93,3.81,3.81,0,0,1-1-2.83v-8.82l-1.75,0v-2.31Z"/><path class="cls-4" d="M425.31,372.38l9.35-.31v2.25l-9.35.31v-2.25Z"/><path class="cls-4" d="M436.3,354.85l4.25-.16v5.38h0.08a3.76,3.76,0,0,1,1.35-1.12,4.69,4.69,0,0,1,2-.48,4.89,4.89,0,0,1,1.47.15,2.63,2.63,0,0,1,1.16.65,3.09,3.09,0,0,1,.76,1.28,6.5,6.5,0,0,1,.27,2v6.53l-2.74.11v-6a2.52,2.52,0,0,0-.55-1.83,1.83,1.83,0,0,0-1.43-.51,2.47,2.47,0,0,0-1.43.53,2.71,2.71,0,0,0-.93,1.24v6.7l-2.74.1V357.1l-1.52.06v-2.31Z"/><path class="cls-4" d="M460.17,367.43a4,4,0,0,1-.7.53,7.2,7.2,0,0,1-1,.5,8.12,8.12,0,0,1-1.27.4,8.34,8.34,0,0,1-1.47.19,7,7,0,0,1-2.41-.27,4.43,4.43,0,0,1-2.93-2.72,7,7,0,0,1,.05-4.75,5.16,5.16,0,0,1,1.21-1.79,5.35,5.35,0,0,1,1.8-1.12,7.15,7.15,0,0,1,2.23-.45,6.83,6.83,0,0,1,1.65.13,4.28,4.28,0,0,1,1.57.65,3.63,3.63,0,0,1,1.17,1.32,4.54,4.54,0,0,1,.45,2.16,10.16,10.16,0,0,1-.21,2l-7.58.35a2.34,2.34,0,0,0,.28,1.12,2.11,2.11,0,0,0,.69.73,2.85,2.85,0,0,0,1,.39,4.93,4.93,0,0,0,1.19.08,6.28,6.28,0,0,0,2.07-.39,4.65,4.65,0,0,0,1.32-.78Zm-4.55-7.28a3.55,3.55,0,0,0-1,.2,3,3,0,0,0-.87.48,2.57,2.57,0,0,0-.64.75,2.3,2.3,0,0,0-.29,1l5.18-.24A2,2,0,0,0,455.63,360.14Z"/><path class="cls-4" d="M463.39,353.68l4.48-.23v9.7a4.36,4.36,0,0,0,.4,2.23,1.33,1.33,0,0,0,1.28.56,3.59,3.59,0,0,0,1.07-.19,4.28,4.28,0,0,0,.84-0.43l1,1.83q-0.36.25-.72,0.47a5,5,0,0,1-.76.38,5.45,5.45,0,0,1-.87.26,7.06,7.06,0,0,1-1.06.13,3.81,3.81,0,0,1-3-.85,3.73,3.73,0,0,1-1-2.81V355.9l-1.75.09v-2.31Z"/><path class="cls-4" d="M474.19,357.31l3.58-.2,0.32,1.24h0.08a4.28,4.28,0,0,1,3.53-1.76,4.91,4.91,0,0,1,1.78.2,3.2,3.2,0,0,1,1.39.87,4.17,4.17,0,0,1,.89,1.58,7.66,7.66,0,0,1,.32,2.35,7.9,7.9,0,0,1-.36,2.45,5.57,5.57,0,0,1-1,1.9A4.8,4.8,0,0,1,483,367.2a5.93,5.93,0,0,1-2.21.53,8.49,8.49,0,0,1-1.28,0,3.36,3.36,0,0,1-1.05-.24v4.3l-2.73.16V359.54l-1.58.09v-2.31Zm6.69,1.63a2.92,2.92,0,0,0-1.46.48,2.24,2.24,0,0,0-.92,1.25v4.37a2.13,2.13,0,0,0,.85.32,4.65,4.65,0,0,0,1.13.07,3,3,0,0,0,1.09-.26,2.42,2.42,0,0,0,.88-0.69,3.34,3.34,0,0,0,.59-1.15,5.6,5.6,0,0,0,.21-1.63,3,3,0,0,0-.67-2.1A2.06,2.06,0,0,0,480.88,358.95Z"/><path class="cls-4" d="M498,365.24a4.12,4.12,0,0,1-.7.54,7.42,7.42,0,0,1-1,.52,8.35,8.35,0,0,1-1.27.42,8.43,8.43,0,0,1-1.47.22,7,7,0,0,1-2.41-.22,4.31,4.31,0,0,1-2.92-2.66,6.28,6.28,0,0,1-.39-2.3,6.38,6.38,0,0,1,.44-2.45,5.3,5.3,0,0,1,1.21-1.81,5.49,5.49,0,0,1,1.8-1.15,7.22,7.22,0,0,1,2.23-.49,6.79,6.79,0,0,1,1.65.1,4.19,4.19,0,0,1,1.57.62,3.52,3.52,0,0,1,1.17,1.3,4.49,4.49,0,0,1,.45,2.15,10.24,10.24,0,0,1-.21,2l-7.57.49a2.31,2.31,0,0,0,.28,1.12,2,2,0,0,0,.69.71,2.79,2.79,0,0,0,1,.37,4.9,4.9,0,0,0,1.19.06,6.35,6.35,0,0,0,2.07-.43,4.76,4.76,0,0,0,1.31-.8ZM493.5,358a3.59,3.59,0,0,0-1,.22,3.12,3.12,0,0,0-.87.49,2.64,2.64,0,0,0-.64.76,2.33,2.33,0,0,0-.29,1l5.17-.33A1.93,1.93,0,0,0,493.5,358Z"/><path class="cls-4" d="M500.25,363.9l2.61-.18v-5.88l-2.61.18V355.7l4.73-.33,0.32,1.36h0.08a6.16,6.16,0,0,1,1.35-1.25,3.52,3.52,0,0,1,1.77-.59,2.22,2.22,0,0,1,2,.78,4.82,4.82,0,0,1,.73,3l-2.46.18a2,2,0,0,0-.22-1.09,0.72,0.72,0,0,0-.7-0.3,2.22,2.22,0,0,0-1.36.52,4.7,4.7,0,0,0-.87,1v4.47l4.56-.33v2.31l-9.9.7V363.9Z"/><path class="cls-4" d="M521.61,369.09a9.14,9.14,0,0,1-2.86-.7,7.49,7.49,0,0,1-2.46-1.68,8,8,0,0,1-1.71-2.73,10.53,10.53,0,0,1-.64-3.86,11.35,11.35,0,0,1,.64-3.94,10.07,10.07,0,0,1,1.71-3,9.53,9.53,0,0,1,2.46-2.1,11.27,11.27,0,0,1,2.86-1.21l0.5,2.21a9.48,9.48,0,0,0-1.67.73,6.81,6.81,0,0,0-1.78,1.42,7.79,7.79,0,0,0-1.42,2.3,8.88,8.88,0,0,0-.58,3.41,7.44,7.44,0,0,0,.61,3.21,6.46,6.46,0,0,0,1.48,2.06,5.91,5.91,0,0,0,1.8,1.14,6.72,6.72,0,0,0,1.55.43Z"/><path class="cls-4" d="M529.62,362.07a4.28,4.28,0,0,0,1.21-.27,3.19,3.19,0,0,0,.94-0.56,2.61,2.61,0,0,0,.61-0.77,2,2,0,0,0,.22-0.9,1.79,1.79,0,0,0-.25-1,1.6,1.6,0,0,0-.69-0.59,3.11,3.11,0,0,0-1.06-.25,8.49,8.49,0,0,0-1.34,0l-1.12.09v-1.44L531.5,352l-5.06.42v-2.2l8.16-.68v1.82l-3.52,4.32,0.46,0a3.83,3.83,0,0,1,1.36.13,3,3,0,0,1,1.17.62,3.16,3.16,0,0,1,.82,1.13,4,4,0,0,1,.31,1.63,4.35,4.35,0,0,1-.47,2,5.18,5.18,0,0,1-1.24,1.56,5.89,5.89,0,0,1-1.77,1,7.65,7.65,0,0,1-2.06.46,10.13,10.13,0,0,1-1.8,0,8.2,8.2,0,0,1-1.74-.36l0.7-2.22a2.55,2.55,0,0,0,.49.16L528,362a7.08,7.08,0,0,0,.8.09A5.46,5.46,0,0,0,529.62,362.07Z"/><path class="cls-4" d="M537.74,353.68a5.17,5.17,0,0,1,.35-1.91,4.78,4.78,0,0,1,1-1.56,5.14,5.14,0,0,1,1.52-1.09,6.15,6.15,0,0,1,4-.37,3.79,3.79,0,0,1,1.58.87,4,4,0,0,1,1,1.57,6.34,6.34,0,0,1,.36,2.24,12.43,12.43,0,0,1-.6,4.06,9.31,9.31,0,0,1-1.61,2.95,7.92,7.92,0,0,1-2.35,1.93,10,10,0,0,1-2.8,1l-0.56-2a7.53,7.53,0,0,0,2-.72,6.77,6.77,0,0,0,1.55-1.13,5.9,5.9,0,0,0,1.08-1.44,4.93,4.93,0,0,0,.54-1.66,3.39,3.39,0,0,1-1.08.77,4.69,4.69,0,0,1-1.58.39h0a4.67,4.67,0,0,1-1.54-.12,3.66,3.66,0,0,1-2.44-1.94A4,4,0,0,1,537.74,353.68Zm2.52-.36a2.11,2.11,0,0,0,.21,1,1.93,1.93,0,0,0,.55.67,2.09,2.09,0,0,0,.79.37,2.81,2.81,0,0,0,.93.07,3.77,3.77,0,0,0,1.42-.39,2.38,2.38,0,0,0,.88-0.72,5.77,5.77,0,0,0,.06-0.81,3.71,3.71,0,0,0-.16-1.08,2.66,2.66,0,0,0-.48-0.92,2.07,2.07,0,0,0-.8-0.6,2.24,2.24,0,0,0-1.1-.15A2.46,2.46,0,0,0,540.26,353.32Z"/><path class="cls-4" d="M550.22,364.51l8.88-.85v2.14l-8.88.85v-2.14Z"/><path class="cls-4" d="M561.74,351.45a5.21,5.21,0,0,1,.35-1.91,4.85,4.85,0,0,1,1-1.57,5.22,5.22,0,0,1,1.52-1.11,5.78,5.78,0,0,1,2-.55,5.66,5.66,0,0,1,2,.13,3.74,3.74,0,0,1,1.58.85,3.94,3.94,0,0,1,1,1.55,6.32,6.32,0,0,1,.36,2.23,12.51,12.51,0,0,1-.6,4.06,9.45,9.45,0,0,1-1.61,3,8.05,8.05,0,0,1-2.35,2,10.1,10.1,0,0,1-2.8,1l-0.56-2a7.62,7.62,0,0,0,2-.74,6.89,6.89,0,0,0,1.55-1.15,6,6,0,0,0,1.08-1.45,5,5,0,0,0,.54-1.67,3.45,3.45,0,0,1-1.08.78,4.72,4.72,0,0,1-1.58.41h0a4.66,4.66,0,0,1-1.54-.1,3.6,3.6,0,0,1-2.44-1.91A4,4,0,0,1,561.74,351.45Zm2.52-.39a2.1,2.1,0,0,0,.21,1,1.91,1.91,0,0,0,.55.66,2.07,2.07,0,0,0,.79.36,2.81,2.81,0,0,0,.93.06,3.8,3.8,0,0,0,1.42-.4A2.42,2.42,0,0,0,569,352a5.78,5.78,0,0,0,.06-0.81,3.69,3.69,0,0,0-.16-1.08,2.62,2.62,0,0,0-.48-0.91,2,2,0,0,0-.8-0.59,2.22,2.22,0,0,0-1.1-.14A2.5,2.5,0,0,0,564.26,351.06Z"/><path class="cls-4" d="M574.77,357.54l3.06-.32v-8.74l-2.64,2.3L574,349.3l4.56-4,1.76-.19v11.8l3-.33v2.2l-8.53.92v-2.2Z"/><path class="cls-4" d="M595.53,353.1a4.77,4.77,0,0,1-.37,1.86,5.37,5.37,0,0,1-1,1.58,5.51,5.51,0,0,1-1.53,1.16,5.65,5.65,0,0,1-3.85.47,3.81,3.81,0,0,1-1.59-.81,4.06,4.06,0,0,1-1.08-1.54,5.89,5.89,0,0,1-.4-2.28,9.69,9.69,0,0,1,.69-3.68,11.54,11.54,0,0,1,1.77-3,10.86,10.86,0,0,1,2.42-2.19,9.11,9.11,0,0,1,2.66-1.23l0.58,2a8.68,8.68,0,0,0-2,.88,8.56,8.56,0,0,0-1.64,1.28,7.8,7.8,0,0,0-1.21,1.56,5.63,5.63,0,0,0-.67,1.69,3.61,3.61,0,0,1,1.2-1,4.7,4.7,0,0,1,1.76-.55,4.58,4.58,0,0,1,1.68.1,3.23,3.23,0,0,1,2.25,1.93A4.47,4.47,0,0,1,595.53,353.1Zm-2.51.39a1.83,1.83,0,0,0-.65-1.57,2.38,2.38,0,0,0-1.75-.36,3.15,3.15,0,0,0-1.44.52,3,3,0,0,0-.94.95,3.41,3.41,0,0,0,0,.5c0,0.18,0,.32,0,0.43a2.53,2.53,0,0,0,.16.9,1.87,1.87,0,0,0,1.22,1.15,2.43,2.43,0,0,0,1,.08,2.68,2.68,0,0,0,.9-0.27,3,3,0,0,0,.78-0.56,2.73,2.73,0,0,0,.55-0.79A2.3,2.3,0,0,0,593,353.49Z"/><path class="cls-4" d="M598.17,359.47l8.86-1.06v2.14l-8.86,1.06v-2.14Z"/><path class="cls-4" d="M609.78,352.31A3.68,3.68,0,0,1,610,351a4.66,4.66,0,0,1,.6-1.11,6,6,0,0,1,.85-0.94,9.64,9.64,0,0,1,1-.77,5.15,5.15,0,0,1-1.66-1.17,2.69,2.69,0,0,1-.66-1.91,3.5,3.5,0,0,1,.34-1.5,4.27,4.27,0,0,1,.95-1.3,5.28,5.28,0,0,1,1.45-1,6.15,6.15,0,0,1,1.81-.51,5.6,5.6,0,0,1,1.69,0,4,4,0,0,1,1.39.5,2.59,2.59,0,0,1,1.28,2.3,3.9,3.9,0,0,1-.61,2.14,6.43,6.43,0,0,1-1.67,1.73,5.17,5.17,0,0,1,1.9,1.22,2.89,2.89,0,0,1,.71,2.07,3.71,3.71,0,0,1-.39,1.68,4.72,4.72,0,0,1-1,1.38,5.79,5.79,0,0,1-1.55,1,6.49,6.49,0,0,1-1.88.53,5.92,5.92,0,0,1-1.86,0,4.29,4.29,0,0,1-1.5-.56,2.88,2.88,0,0,1-1-1A3,3,0,0,1,609.78,352.31Zm7.1-1.23a1.29,1.29,0,0,0-.26-0.83,2.32,2.32,0,0,0-.65-0.56,5.08,5.08,0,0,0-.86-0.4l-0.91-.36a4.67,4.67,0,0,0-1.54,1.32,2.46,2.46,0,0,0-.54,1.38,1.44,1.44,0,0,0,.64,1.31,2.63,2.63,0,0,0,1.78.27,3.15,3.15,0,0,0,1.67-.68A1.81,1.81,0,0,0,616.88,351.09Zm-4.29-6.16a1.35,1.35,0,0,0,.21.78,1.84,1.84,0,0,0,.54.51,3.64,3.64,0,0,0,.75.36l0.84,0.3a4.59,4.59,0,0,0,.63-0.48,4.2,4.2,0,0,0,.55-0.6,3.46,3.46,0,0,0,.39-0.65,1.55,1.55,0,0,0,.15-0.65,1.32,1.32,0,0,0-.18-0.71,1.48,1.48,0,0,0-.47-0.47,1.8,1.8,0,0,0-.65-0.25,2.44,2.44,0,0,0-.74,0,2.47,2.47,0,0,0-.81.24,2.7,2.7,0,0,0-.64.44,1.88,1.88,0,0,0-.42.57A1.45,1.45,0,0,0,612.59,344.92Z"/><path class="cls-4" d="M621.31,347.26a12.52,12.52,0,0,1,.38-3.24,7.62,7.62,0,0,1,1.07-2.41,5.37,5.37,0,0,1,1.65-1.56,5.52,5.52,0,0,1,2.14-.73,4.07,4.07,0,0,1,3.88,1.26q1.36,1.59,1.36,5.31a12.68,12.68,0,0,1-.38,3.26,7.77,7.77,0,0,1-1.07,2.42,5.31,5.31,0,0,1-1.66,1.58,5.57,5.57,0,0,1-2.15.73,3.94,3.94,0,0,1-3.88-1.36Q621.31,350.82,621.31,347.26Zm2.59-.34c0,0.2,0,.39,0,0.57s0,0.36,0,.55l4.82-5.09a1.91,1.91,0,0,0-2.23-1.42,2.52,2.52,0,0,0-1.95,1.49A8.8,8.8,0,0,0,623.9,346.92Zm5.3-.7q0-.32,0-0.61c0-.19,0-0.38,0-0.57l-4.84,5.1a2,2,0,0,0,2.23,1.53,2.54,2.54,0,0,0,2-1.48A8.82,8.82,0,0,0,629.2,346.23Z"/><path class="cls-4" d="M633.27,345.68a12.56,12.56,0,0,1,.38-3.24,7.68,7.68,0,0,1,1.07-2.42,5.42,5.42,0,0,1,1.65-1.57,5.55,5.55,0,0,1,2.14-.74,4,4,0,0,1,3.88,1.23q1.36,1.58,1.36,5.3a12.71,12.71,0,0,1-.38,3.26,7.83,7.83,0,0,1-1.07,2.43,5.35,5.35,0,0,1-1.66,1.59,5.6,5.6,0,0,1-2.15.75,3.91,3.91,0,0,1-3.88-1.34Q633.27,349.24,633.27,345.68Zm2.59-.35c0,0.2,0,.39,0,0.57s0,0.36,0,.55l4.82-5.12a1.9,1.9,0,0,0-2.23-1.41,2.54,2.54,0,0,0-1.95,1.5A8.84,8.84,0,0,0,635.86,345.33Zm5.3-.73q0-.32,0-0.61c0-.19,0-0.38,0-0.57l-4.84,5.13a1.93,1.93,0,0,0,2.23,1.51,2.56,2.56,0,0,0,2-1.49A8.85,8.85,0,0,0,641.16,344.6Z"/><path class="cls-4" d="M648.81,349.26a1.59,1.59,0,0,1,.45-1.14,1.89,1.89,0,0,1,1.13-.56A1.72,1.72,0,0,1,652,348a2.5,2.5,0,0,1,.56,1.7,4.14,4.14,0,0,1-.35,1.69,5.3,5.3,0,0,1-.91,1.41,6.07,6.07,0,0,1-1.24,1.06,5.89,5.89,0,0,1-1.36.66l-0.54-1a6.7,6.7,0,0,0,1-.48,4.72,4.72,0,0,0,.89-0.68,3.79,3.79,0,0,0,.67-0.87,2.41,2.41,0,0,0,.31-1,2.62,2.62,0,0,1-1,.18,1.32,1.32,0,0,1-.69-0.22,1.08,1.08,0,0,1-.39-0.51A1.94,1.94,0,0,1,648.81,349.26Z"/><path class="cls-4" d="M658.52,346.93l3-.45v-8.74l-2.63,2.41-1.19-1.42,4.54-4.15,1.75-.26v11.8l3-.45v2.2l-8.49,1.27v-2.2Z"/><path class="cls-4" d="M670.85,349.43a8.36,8.36,0,0,0,1.55-.8,8.15,8.15,0,0,0,1.78-1.56,8.9,8.9,0,0,0,1.47-2.4,8.49,8.49,0,0,0,.61-3.35,7.92,7.92,0,0,0-.57-3.27,5.68,5.68,0,0,0-1.41-2,4.91,4.91,0,0,0-1.76-1,7.71,7.71,0,0,0-1.66-.34l0.5-2.32a9.18,9.18,0,0,1,2.84.55,6.81,6.81,0,0,1,2.44,1.53,7.43,7.43,0,0,1,1.7,2.62,10.2,10.2,0,0,1,.64,3.79,11.85,11.85,0,0,1-.64,4,10.91,10.91,0,0,1-1.7,3.13,10.42,10.42,0,0,1-2.44,2.25,11.27,11.27,0,0,1-2.84,1.36Z"/><path class="cls-4" d="M53.72,446.06v-2.53l2.7,0.43v-6.44l-2.72-.43v-2.53L56.42,435v-0.64a3.87,3.87,0,0,1,.38-1.8,3,3,0,0,1,1-1.13,3.42,3.42,0,0,1,1.43-.53,5.72,5.72,0,0,1,1.68,0,11.54,11.54,0,0,1,2.6.66,7.9,7.9,0,0,1,1.68.91l-0.87,2.14a12.35,12.35,0,0,0-1.13-.63,5.45,5.45,0,0,0-1.57-.45,2,2,0,0,0-1.73.3,2.21,2.21,0,0,0-.49,1.61l4.8,0.74v2.53l-4.8-.74v6.44l4.83,0.74v2.53C60,447.05,57.92,446.73,53.72,446.06Z"/><path class="cls-4" d="M67.87,437.53a11.17,11.17,0,0,1,2.12-.39,11.81,11.81,0,0,1,2.85.13,6.9,6.9,0,0,1,2,.59,4.14,4.14,0,0,1,1.35,1,3.75,3.75,0,0,1,.74,1.37,5.91,5.91,0,0,1,.23,1.69q0,1.17-.08,2T77,445.38a10.08,10.08,0,0,0,0,1.09c0,0.21.05,0.43,0.07,0.63l1.49,0.22v2.53l-3.84-.56-0.3-1.61-0.11,0a3.19,3.19,0,0,1-1.3,1,4,4,0,0,1-2.27.18,4.47,4.47,0,0,1-2.71-1.33,3.65,3.65,0,0,1-1-2.59,3.35,3.35,0,0,1,.35-1.61,2.38,2.38,0,0,1,1-1,4.24,4.24,0,0,1,1.61-.42,9.27,9.27,0,0,1,2.1.1q0.41,0.06.86,0.17l1.11,0.26a2.27,2.27,0,0,0,0-.45v-0.44a1.7,1.7,0,0,0-.5-1.33,2.76,2.76,0,0,0-1.48-.6,6.63,6.63,0,0,0-2.09,0,11.67,11.67,0,0,0-1.57.36Zm3.89,9a2.51,2.51,0,0,0,1.63-.16,2.16,2.16,0,0,0,.79-0.75v-1.38l-0.68-.2a8.27,8.27,0,0,0-1-.2,4.63,4.63,0,0,0-.86,0,2.57,2.57,0,0,0-.77.14,1.21,1.21,0,0,0-.54.37,1,1,0,0,0-.2.64,1.51,1.51,0,0,0,.37,1.06A2,2,0,0,0,71.77,446.56Z"/><path class="cls-4" d="M92,450.64a5.67,5.67,0,0,1-2.2.76,9.34,9.34,0,0,1-2.63,0,8.16,8.16,0,0,1-2.65-.81,6.56,6.56,0,0,1-1.95-1.51,6.3,6.3,0,0,1-1.2-2.09,7.69,7.69,0,0,1-.41-2.54,6,6,0,0,1,.48-2.51,4.44,4.44,0,0,1,1.34-1.72,4.87,4.87,0,0,1,2-.9,7.51,7.51,0,0,1,2.54,0,10.12,10.12,0,0,1,2.4.64,12.92,12.92,0,0,1,1.72.81v4L89,444.42v-2.12a6.9,6.9,0,0,0-1.42-.36,4.14,4.14,0,0,0-1.27,0,2.58,2.58,0,0,0-1.92,1.42,3.26,3.26,0,0,0-.31,1.5,3.86,3.86,0,0,0,.25,1.39,3.85,3.85,0,0,0,1.84,2.07,4.48,4.48,0,0,0,1.5.48,5.09,5.09,0,0,0,2.14-.07,7.31,7.31,0,0,0,1.25-.47Z"/><path class="cls-4" d="M95.94,443.31L93.67,443v-2.53l2.27,0.31v-2.62l3-.45v3.47l6,0.8v2.53l-6-.8V447a4.39,4.39,0,0,0,.66,2.65,2.66,2.66,0,0,0,1.86,1,3.82,3.82,0,0,0,1.12,0,3.76,3.76,0,0,0,.91-0.26,4.29,4.29,0,0,0,.73-0.41l0.61-.43,1.38,2.25a3.66,3.66,0,0,1-1,.71,7.11,7.11,0,0,1-1.26.5,7.25,7.25,0,0,1-1.41.26,6.59,6.59,0,0,1-1.44,0,5.68,5.68,0,0,1-3.86-2,7.44,7.44,0,0,1-1.29-4.74v-3.29Z"/><path class="cls-4" d="M107.84,448.12a6.66,6.66,0,0,1,.44-2.52,4.43,4.43,0,0,1,1.24-1.75,4.51,4.51,0,0,1,1.91-.94,7.06,7.06,0,0,1,2.49-.08,7.81,7.81,0,0,1,2.58.76,6.34,6.34,0,0,1,1.92,1.47,6.08,6.08,0,0,1,1.18,2.07,7.81,7.81,0,0,1,.4,2.53,6.68,6.68,0,0,1-.44,2.52,4.35,4.35,0,0,1-3.15,2.7,7,7,0,0,1-2.49.09,7.74,7.74,0,0,1-2.58-.77,6.35,6.35,0,0,1-1.91-1.48,6.11,6.11,0,0,1-1.18-2.07A7.82,7.82,0,0,1,107.84,448.12Zm3.07,0.4a4.84,4.84,0,0,0,.21,1.43,4,4,0,0,0,.6,1.2,3.25,3.25,0,0,0,.94.87,3.15,3.15,0,0,0,1.26.43,2.61,2.61,0,0,0,2.17-.58,3.34,3.34,0,0,0,.84-2.59,4.42,4.42,0,0,0-.78-2.66,3.1,3.1,0,0,0-2.22-1.26,3.43,3.43,0,0,0-1.19,0,2,2,0,0,0-1,.51,2.61,2.61,0,0,0-.63,1A4.7,4.7,0,0,0,110.91,448.51Z"/><path class="cls-4" d="M121.69,453.09l2.84,0.35V447l-2.84-.35v-2.53l5.16,0.63,0.34,1.56h0.09a5.13,5.13,0,0,1,1.47-1.09,3.38,3.38,0,0,1,1.93-.28,3,3,0,0,1,2.17,1.27,6,6,0,0,1,.79,3.47l-2.69-.32a2.49,2.49,0,0,0-.24-1.24,1,1,0,0,0-.77-0.47,2.09,2.09,0,0,0-1.48.28,3.9,3.9,0,0,0-1,.94v4.9l5,0.59v2.53c-4.32-.51-6.49-0.77-10.81-1.3v-2.53Z"/><path class="cls-4" d="M135.92,454.78l4,0.46v-6.44l-4-.46v-2.53l7,0.8v9l4.25,0.47v2.53c-4.51-.49-6.77-0.75-11.27-1.27v-2.53Zm3.49-11.7a1.44,1.44,0,0,1,.53-1.16,1.86,1.86,0,0,1,1.47-.34,2.5,2.5,0,0,1,1.54.68,1.77,1.77,0,0,1,.57,1.28,1.32,1.32,0,0,1-.57,1.14,2.17,2.17,0,0,1-1.54.3,2.37,2.37,0,0,1-1.47-.64A1.73,1.73,0,0,1,139.41,443.09Z"/><path class="cls-4" d="M150.41,448.22a11.52,11.52,0,0,1,2.12-.48,11.88,11.88,0,0,1,2.86,0,6.74,6.74,0,0,1,2,.5,3.92,3.92,0,0,1,1.36,1,3.55,3.55,0,0,1,.75,1.34,5.79,5.79,0,0,1,.23,1.68q0,1.17-.08,2c-0.05.55-.08,1-0.08,1.46a10,10,0,0,0,0,1.09c0,0.21.05,0.43,0.07,0.63l1.49,0.15v2.53l-3.86-.4-0.3-1.6h-0.11a3.4,3.4,0,0,1-1.3,1.09,4.1,4.1,0,0,1-2.28.28,4.29,4.29,0,0,1-2.72-1.21,3.5,3.5,0,0,1-1-2.55A3.43,3.43,0,0,1,150,454a2.54,2.54,0,0,1,1-1,4.4,4.4,0,0,1,1.62-.49,9.31,9.31,0,0,1,2.11,0q0.41,0,.87.14l1.12,0.21a2.3,2.3,0,0,0,0-.46V452a1.63,1.63,0,0,0-.5-1.31,2.67,2.67,0,0,0-1.48-.54,6.7,6.7,0,0,0-2.1.08,12.19,12.19,0,0,0-1.57.43Zm3.91,8.86a2.58,2.58,0,0,0,1.64-.23,2.3,2.3,0,0,0,.8-0.78v-1.38l-0.68-.17a8,8,0,0,0-1-.16,4.6,4.6,0,0,0-.86,0,2.65,2.65,0,0,0-.77.17,1.29,1.29,0,0,0-.55.39,1,1,0,0,0-.2.65,1.45,1.45,0,0,0,.37,1A1.94,1.94,0,0,0,154.32,457.08Z"/><path class="cls-4" d="M164.12,444.27l4.9,0.49v10.63a5.2,5.2,0,0,0,.44,2.5,1.72,1.72,0,0,0,1.4.83,3.76,3.76,0,0,0,1.17,0,4,4,0,0,0,.92-0.34l1.13,2.18q-0.39.22-.78,0.4a4.59,4.59,0,0,1-.83.29,5.31,5.31,0,0,1-1,.14,7.52,7.52,0,0,1-1.16,0,4.78,4.78,0,0,1-3.24-1.42,4.68,4.68,0,0,1-1.08-3.24V447l-1.91-.19v-2.53Z"/><path class="cls-4" d="M186.38,467.37a11.58,11.58,0,0,1-3.13-1.29,10.44,10.44,0,0,1-2.69-2.29,11,11,0,0,1-1.87-3.3,12.53,12.53,0,0,1-.7-4.34,11.46,11.46,0,0,1,.7-4.2,8.84,8.84,0,0,1,1.87-3,8.2,8.2,0,0,1,2.69-1.85,10.61,10.61,0,0,1,3.13-.8l0.55,2.51a8.9,8.9,0,0,0-1.83.49,5.88,5.88,0,0,0-1.94,1.23,6.8,6.8,0,0,0-1.55,2.26,9.26,9.26,0,0,0,1.66,9.78,8.17,8.17,0,0,0,2,1.58,8.64,8.64,0,0,0,1.7.76Z"/><path class="cls-4" d="M192.15,460.47l3.52,0.3V450.72l-3,2.06-1.38-2,5.25-3.55,2,0.17V461L202,461.3v2.53l-9.83-.83v-2.53Z"/><path class="cls-4" d="M206,461.62l3.52,0.28V451.84l-3,2.08-1.38-2,5.25-3.59,2,0.16v13.57l3.45,0.26v2.53l-9.83-.76v-2.53Z"/><path class="cls-4" d="M220.1,467.59a7.41,7.41,0,0,0,1.7-.49,6.52,6.52,0,0,0,2-1.26,7.16,7.16,0,0,0,1.62-2.27,8.17,8.17,0,0,0,.67-3.52,9.68,9.68,0,0,0-.63-3.72,8.48,8.48,0,0,0-1.55-2.51,7.41,7.41,0,0,0-1.95-1.54,10.37,10.37,0,0,0-1.83-.79l0.55-2.42a12.29,12.29,0,0,1,3.13,1.3,10.34,10.34,0,0,1,2.69,2.28,10.93,10.93,0,0,1,1.88,3.29,12.39,12.39,0,0,1,.7,4.31,11.58,11.58,0,0,1-.7,4.23,8.89,8.89,0,0,1-1.88,3,8.28,8.28,0,0,1-2.69,1.86,10.06,10.06,0,0,1-3.13.79Z"/><path class="cls-4" d="M371.74,470.35v-2.53h2.72c0-2.58,0-3.86,0-6.44h-2.74v-2.53h2.74v-0.64a4.24,4.24,0,0,1,.38-1.87,3.78,3.78,0,0,1,1-1.29,4.15,4.15,0,0,1,1.44-.76A6,6,0,0,1,379,454a10.8,10.8,0,0,1,2.62.24,6.68,6.68,0,0,1,1.7.64l-0.88,2.29a10.37,10.37,0,0,0-1.14-.45,5,5,0,0,0-1.58-.19,2.26,2.26,0,0,0-1.74.58,2.51,2.51,0,0,0-.5,1.69l4.84,0v2.53l-4.84,0v6.44l4.87,0v2.53C378.1,470.32,376,470.33,371.74,470.35Z"/><path class="cls-4" d="M386,459.52a12.74,12.74,0,0,1,2.13-.74,12.23,12.23,0,0,1,2.87-.34,6.35,6.35,0,0,1,2,.26,3.34,3.34,0,0,1,1.36.8,3,3,0,0,1,.75,1.25,5.49,5.49,0,0,1,.23,1.65q0,1.17-.08,2t-0.08,1.47a9.83,9.83,0,0,0,0,1.08c0,0.21.05,0.42,0.07,0.62l1.5,0v2.53l-3.87.06-0.3-1.56h-0.11a4.06,4.06,0,0,1-1.31,1.25,4.41,4.41,0,0,1-2.29.55,3.85,3.85,0,0,1-2.73-.89,3.11,3.11,0,0,1-1-2.43,3.68,3.68,0,0,1,.35-1.67,3,3,0,0,1,1-1.16,5,5,0,0,1,1.63-.69,9.57,9.57,0,0,1,2.12-.25c0.27,0,.57,0,0.87,0l1.12,0.08a2.38,2.38,0,0,0,0-.46v-0.44a1.45,1.45,0,0,0-.5-1.25,2.43,2.43,0,0,0-1.49-.36,7,7,0,0,0-2.11.33,13.69,13.69,0,0,0-1.58.62Zm3.93,8.39a2.53,2.53,0,0,0,2.44-1.3v-1.38l-0.68-.09a7.82,7.82,0,0,0-1,0,4.7,4.7,0,0,0-.87.09,3,3,0,0,0-.78.26,1.54,1.54,0,0,0-.55.46,1.09,1.09,0,0,0-.2.67,1.29,1.29,0,0,0,.38,1A1.75,1.75,0,0,0,390,467.91Z"/><path class="cls-4" d="M410.38,468.69a6.79,6.79,0,0,1-2.21,1.12,9.83,9.83,0,0,1-2.65.42,7.44,7.44,0,0,1-2.66-.38,5.28,5.28,0,0,1-2-1.19,5.08,5.08,0,0,1-1.21-1.9,7.09,7.09,0,0,1-.42-2.48,6.53,6.53,0,0,1,.48-2.58,5.58,5.58,0,0,1,1.35-1.94,6,6,0,0,1,2-1.23,8,8,0,0,1,2.56-.46,9.44,9.44,0,0,1,2.42.24,11.08,11.08,0,0,1,1.73.53v4l-2.54.06v-2.12a6.48,6.48,0,0,0-1.43-.13,4.39,4.39,0,0,0-1.28.22,3.22,3.22,0,0,0-1.13.65,3.35,3.35,0,0,0-.81,1.09,3.55,3.55,0,0,0-.31,1.55,3.51,3.51,0,0,0,.25,1.35,3.07,3.07,0,0,0,1.86,1.77,4.1,4.1,0,0,0,1.51.23,5.48,5.48,0,0,0,2.16-.42,9,9,0,0,0,1.26-.67Z"/><path class="cls-4" d="M414.31,460.73l-2.28.06v-2.53l2.28-.06v-2.62l3-.93v3.47l6-.18v2.53l-6,.18v3.29a3.88,3.88,0,0,0,.67,2.55,2.25,2.25,0,0,0,1.87.74A4.06,4.06,0,0,0,421,467a4.39,4.39,0,0,0,.91-0.41,5.42,5.42,0,0,0,.74-0.53l0.61-.52,1.38,2a4.66,4.66,0,0,1-1,.87,8.67,8.67,0,0,1-1.27.71,8.19,8.19,0,0,1-1.42.49,6.84,6.84,0,0,1-1.45.2,4.85,4.85,0,0,1-3.89-1.33q-1.3-1.4-1.3-4.53v-3.29Z"/><path class="cls-4" d="M426.28,463.6a7.18,7.18,0,0,1,.44-2.59,5.44,5.44,0,0,1,3.17-3.2,7.52,7.52,0,0,1,2.5-.49,7.13,7.13,0,0,1,2.59.34,5.1,5.1,0,0,1,1.93,1.16,4.92,4.92,0,0,1,1.19,1.88,7.82,7.82,0,0,1,0,5.06,5.46,5.46,0,0,1-3.17,3.21,7.47,7.47,0,0,1-2.5.49,7.08,7.08,0,0,1-2.59-.35,5.11,5.11,0,0,1-1.93-1.17,4.94,4.94,0,0,1-1.19-1.88A7.22,7.22,0,0,1,426.28,463.6Zm3.09-.1a4.49,4.49,0,0,0,.21,1.4,3.29,3.29,0,0,0,.6,1.11,2.57,2.57,0,0,0,.94.71,2.85,2.85,0,0,0,1.27.22,3,3,0,0,0,2.18-.93,4.66,4.66,0,0,0,.06-5.26,2.61,2.61,0,0,0-2.24-.9,3.65,3.65,0,0,0-1.2.24,2.47,2.47,0,0,0-1,.67,3.24,3.24,0,0,0-.63,1.13A5,5,0,0,0,429.37,463.5Z"/><path class="cls-4" d="M440.2,466.32l2.86-.11c0-2.58,0-3.86,0-6.44l-2.86.11v-2.53l5.19-.21,0.35,1.5h0.09a6.51,6.51,0,0,1,1.48-1.33,3.78,3.78,0,0,1,1.94-.59,2.51,2.51,0,0,1,2.18.92,5.39,5.39,0,0,1,.79,3.34l-2.7.12a2.25,2.25,0,0,0-.24-1.2,0.81,0.81,0,0,0-.77-0.35,2.37,2.37,0,0,0-1.49.52,5,5,0,0,0-1,1.1c0,2,0,2.94,0,4.9l5-.22v2.53c-4.34.19-6.52,0.29-10.86,0.46v-2.53Z"/><path class="cls-4" d="M454.5,465.7l4.06-.19v-6.44l-4.06.19v-2.53l7.05-.34c0,3.59,0,5.38,0,9l4.26-.22v2.53c-4.53.24-6.79,0.35-11.32,0.56V465.7Zm3.5-12.26a1.71,1.71,0,0,1,.53-1.24,2.15,2.15,0,0,1,1.47-.58,2.17,2.17,0,0,1,1.54.43,1.48,1.48,0,0,1,.58,1.19,1.57,1.57,0,0,1-.58,1.24A2.47,2.47,0,0,1,460,455a2.06,2.06,0,0,1-1.47-.4A1.46,1.46,0,0,1,458,453.44Z"/><path class="cls-4" d="M469,456.79a13.31,13.31,0,0,1,2.13-.83,12.43,12.43,0,0,1,2.87-.46,6.24,6.24,0,0,1,2,.17,3.16,3.16,0,0,1,1.36.74,2.87,2.87,0,0,1,.75,1.22,5.4,5.4,0,0,1,.23,1.64q0,1.17-.08,2c-0.05.55-.08,1-0.08,1.48a9.81,9.81,0,0,0,0,1.08c0,0.21.05,0.42,0.07,0.62l1.5-.09v2.53l-3.87.23-0.3-1.55h-0.11a4.32,4.32,0,0,1-1.31,1.3,4.54,4.54,0,0,1-2.29.65,3.71,3.71,0,0,1-2.73-.77,3,3,0,0,1-1-2.38,3.78,3.78,0,0,1,.35-1.69,3.22,3.22,0,0,1,1-1.21,5.2,5.2,0,0,1,1.63-.76,9.72,9.72,0,0,1,2.12-.34c0.27,0,.56,0,0.87,0l1.12,0a2.41,2.41,0,0,0,0-.46v-0.44a1.39,1.39,0,0,0-.5-1.23,2.36,2.36,0,0,0-1.49-.29,7.12,7.12,0,0,0-2.1.42,14.19,14.19,0,0,0-1.58.68ZM473,465a2.88,2.88,0,0,0,1.64-.5,2.94,2.94,0,0,0,.8-0.91v-1.38l-0.68-.06a8,8,0,0,0-1,0,4.8,4.8,0,0,0-.87.13,3,3,0,0,0-.77.3,1.63,1.63,0,0,0-.55.48,1.13,1.13,0,0,0-.2.68,1.24,1.24,0,0,0,.38,1A1.7,1.7,0,0,0,473,465Z"/><path class="cls-4" d="M482.8,450.61l4.91-.31v10.63a4.76,4.76,0,0,0,.44,2.43,1.44,1.44,0,0,0,1.41.6,4,4,0,0,0,1.17-.23,4.82,4.82,0,0,0,.92-0.49l1.13,2q-0.39.28-.78,0.52a5.47,5.47,0,0,1-.83.42,5.87,5.87,0,0,1-1,.29,7.75,7.75,0,0,1-1.16.16,4.13,4.13,0,0,1-3.25-.9,4,4,0,0,1-1.08-3.06c0-3.86,0-5.8,0-9.66l-1.91.12C482.8,452.13,482.8,451.63,482.8,450.61Z"/><path class="cls-4" d="M496.41,468.53c4.09-.28,6.14-0.42,10.22-0.72v2.46c-4.09.3-6.13,0.44-10.22,0.72C496.41,470,496.41,469.51,496.41,468.53Z"/><path class="cls-4" d="M508.43,448.88l4.65-.35v5.89h0.09a4.34,4.34,0,0,1,1.47-1.29,5.76,5.76,0,0,1,3.78-.5,2.76,2.76,0,0,1,1.27.66,3.22,3.22,0,0,1,.83,1.37,7,7,0,0,1,.3,2.22V464l-3,.24v-6.53a2.67,2.67,0,0,0-.6-2,1.94,1.94,0,0,0-1.57-.5,2.8,2.8,0,0,0-1.56.64,3.12,3.12,0,0,0-1,1.4c0,2.94,0,4.4,0,7.34l-3,.23V451.29l-1.66.12v-2.53Z"/><path class="cls-4" d="M534.53,461.66a4.63,4.63,0,0,1-.77.61,8.27,8.27,0,0,1-1.1.59,9.33,9.33,0,0,1-3,.76,7.57,7.57,0,0,1-2.64-.19,4.6,4.6,0,0,1-3.2-2.85,6.81,6.81,0,0,1-.43-2.51,7,7,0,0,1,.48-2.7,6,6,0,0,1,1.32-2,6.18,6.18,0,0,1,2-1.3,8,8,0,0,1,2.44-.59,7.4,7.4,0,0,1,1.81.08,4.51,4.51,0,0,1,1.71.65,3.75,3.75,0,0,1,1.28,1.4,4.85,4.85,0,0,1,.5,2.35,11.24,11.24,0,0,1-.23,2.16l-8.28.71a2.51,2.51,0,0,0,.31,1.22,2.17,2.17,0,0,0,.76.76,3,3,0,0,0,1.08.38,5.31,5.31,0,0,0,1.3,0,7,7,0,0,0,2.27-.52,5.36,5.36,0,0,0,1.44-.91Zm-5-7.78a4,4,0,0,0-1.13.26,3.5,3.5,0,0,0-1,.56,3,3,0,0,0-.7.84,2.58,2.58,0,0,0-.32,1.08l5.66-.48A2.07,2.07,0,0,0,529.56,453.88Z"/><path class="cls-4" d="M538.05,446.47L543,446c0,4.25,0,6.38,0,10.63a4.69,4.69,0,0,0,.44,2.42,1.4,1.4,0,0,0,1.4.56,4.06,4.06,0,0,0,1.17-.26,5,5,0,0,0,.92-0.51l1.13,2q-0.39.29-.78,0.55a5.66,5.66,0,0,1-.83.45,6.08,6.08,0,0,1-1,.32,7.84,7.84,0,0,1-1.16.19,4,4,0,0,1-3.24-.81,3.94,3.94,0,0,1-1.08-3c0-3.86,0-5.8,0-9.66l-1.91.17v-2.53Z"/><path class="cls-4" d="M549.85,450l3.91-.38,0.34,1.35h0.09a4.9,4.9,0,0,1,3.86-2.08A5.28,5.28,0,0,1,560,449a3.32,3.32,0,0,1,1.52.89,4.34,4.34,0,0,1,1,1.69,8.27,8.27,0,0,1,.34,2.56,8.82,8.82,0,0,1-.39,2.7,6.4,6.4,0,0,1-1.13,2.13,5.57,5.57,0,0,1-1.79,1.45,6.69,6.69,0,0,1-2.41.68,9.32,9.32,0,0,1-1.4,0,3.61,3.61,0,0,1-1.15-.22v4.71l-3,.29V452.34l-1.72.17V450Zm7.31,1.5a3.3,3.3,0,0,0-1.6.59,2.59,2.59,0,0,0-1,1.41v4.78a2.23,2.23,0,0,0,.93.31,5,5,0,0,0,1.23,0,3.42,3.42,0,0,0,1.2-.34,2.81,2.81,0,0,0,1-.8,3.85,3.85,0,0,0,.64-1.28,6.23,6.23,0,0,0,.23-1.79,3.13,3.13,0,0,0-.74-2.27A2.17,2.17,0,0,0,557.16,451.48Z"/><path class="cls-4" d="M575.91,457.6a4.77,4.77,0,0,1-.77.62,8.44,8.44,0,0,1-1.1.61,9.43,9.43,0,0,1-3,.83,7.52,7.52,0,0,1-2.63-.14,4.46,4.46,0,0,1-3.19-2.79,6.75,6.75,0,0,1-.42-2.5,7.14,7.14,0,0,1,.48-2.71,6.13,6.13,0,0,1,1.32-2,6.36,6.36,0,0,1,2-1.34,8.11,8.11,0,0,1,2.44-.64,7.37,7.37,0,0,1,1.8,0,4.42,4.42,0,0,1,1.71.61,3.63,3.63,0,0,1,1.27,1.37,4.8,4.8,0,0,1,.49,2.34A11.35,11.35,0,0,1,576,454l-8.27.88a2.47,2.47,0,0,0,.31,1.21,2.1,2.1,0,0,0,.76.75,2.94,2.94,0,0,0,1.08.36,5.27,5.27,0,0,0,1.3,0,7.11,7.11,0,0,0,2.26-.56,5.52,5.52,0,0,0,1.44-.94Zm-5-7.68a4,4,0,0,0-1.13.28,3.59,3.59,0,0,0-1,.58,3,3,0,0,0-.7.86,2.63,2.63,0,0,0-.32,1.09l5.65-.6A2,2,0,0,0,570.95,449.93Z"/><path class="cls-4" d="M578.32,456l2.85-.31v-6.44l-2.85.31v-2.53l5.17-.57,0.34,1.48h0.09a7.18,7.18,0,0,1,1.47-1.43,4,4,0,0,1,1.93-.73,2.33,2.33,0,0,1,2.17.76,5.15,5.15,0,0,1,.79,3.29l-2.69.31a2.16,2.16,0,0,0-.24-1.18,0.75,0.75,0,0,0-.77-0.29,2.53,2.53,0,0,0-1.48.63,5.49,5.49,0,0,0-1,1.17v4.9l5-.57v2.53c-4.32.5-6.49,0.74-10.82,1.22V456Z"/><path class="cls-4" d="M601.64,460.73a9.7,9.7,0,0,1-3.12-.63,7.72,7.72,0,0,1-2.68-1.73,8.33,8.33,0,0,1-1.87-2.91,11.33,11.33,0,0,1-.7-4.2,12.71,12.71,0,0,1,.7-4.35,11.64,11.64,0,0,1,1.87-3.38,11.09,11.09,0,0,1,2.68-2.42,12.93,12.93,0,0,1,3.12-1.46l0.55,2.39a10.89,10.89,0,0,0-1.82.88,7.92,7.92,0,0,0-1.94,1.64,9.05,9.05,0,0,0-1.55,2.59,9.94,9.94,0,0,0-.63,3.76,8,8,0,0,0,.67,3.48,6.67,6.67,0,0,0,1.62,2.19,6.05,6.05,0,0,0,2,1.17,7.1,7.1,0,0,0,1.7.4Z"/><path class="cls-4" d="M607.4,452.62l3.51-.44V442.12l-3,2.7-1.38-1.67,5.23-4.66,2-.26v13.57l3.44-.44v2.53l-9.79,1.25v-2.53Z"/><path class="cls-4" d="M623.73,451.57a1.81,1.81,0,0,1,.52-1.31,2.16,2.16,0,0,1,1.3-.63,2,2,0,0,1,1.9.57,2.89,2.89,0,0,1,.64,2,4.73,4.73,0,0,1-.4,1.94,6,6,0,0,1-1,1.61,6.82,6.82,0,0,1-1.43,1.21,6.65,6.65,0,0,1-1.57.74L623,456.47a7.65,7.65,0,0,0,1.11-.54,5.43,5.43,0,0,0,1-.77,4.34,4.34,0,0,0,.77-1,2.75,2.75,0,0,0,.36-1.15,3,3,0,0,1-1.17.19,1.54,1.54,0,0,1-.79-0.26,1.25,1.25,0,0,1-.45-0.58A2.21,2.21,0,0,1,623.73,451.57Z"/><path class="cls-4" d="M634.91,449l3.5-.49V438.44l-3,2.75L634,439.54l5.22-4.73,2-.29v13.57l3.43-.49v2.53c-3.91.56-5.87,0.84-9.78,1.39V449Z"/><path class="cls-4" d="M648.65,447l3.5-.52V436.46l-3,2.77-1.37-1.64,5.22-4.77,2-.3v13.57l3.43-.52v2.53c-3.91.59-5.86,0.88-9.77,1.45V447Z"/><path class="cls-4" d="M662.69,449.81a9.25,9.25,0,0,0,1.69-.87,9,9,0,0,0,2-1.71,9.74,9.74,0,0,0,1.61-2.63,9.29,9.29,0,0,0,.66-3.67,8.68,8.68,0,0,0-.63-3.58,6.22,6.22,0,0,0-1.54-2.16,5.39,5.39,0,0,0-1.93-1.1,8.46,8.46,0,0,0-1.82-.38l0.55-2.55a10.09,10.09,0,0,1,3.11.6,7.47,7.47,0,0,1,2.67,1.68,8.12,8.12,0,0,1,1.86,2.87,11.17,11.17,0,0,1,.7,4.16,13,13,0,0,1-.7,4.39,11.93,11.93,0,0,1-1.86,3.42,11.42,11.42,0,0,1-2.67,2.46,12.34,12.34,0,0,1-3.11,1.49Z"/><path class="cls-4" d="M54,396.14c0-1,0-1.52,0-2.53l2.7,0.43V387.6L54,387.17v-2.53l2.72,0.43v-0.64a3.87,3.87,0,0,1,.38-1.8,3,3,0,0,1,1-1.13,3.43,3.43,0,0,1,1.43-.53,5.72,5.72,0,0,1,1.68,0,11.56,11.56,0,0,1,2.6.66,7.87,7.87,0,0,1,1.68.91l-0.87,2.15a12.31,12.31,0,0,0-1.13-.63,5.47,5.47,0,0,0-1.57-.45,2,2,0,0,0-1.73.3,2.21,2.21,0,0,0-.49,1.61l4.8,0.74c0,1,0,1.52,0,2.53l-4.8-.74v6.44l4.82,0.74c0,1,0,1.52,0,2.53C60.32,397.13,58.22,396.81,54,396.14Z"/><path class="cls-4" d="M68.17,387.61a11.22,11.22,0,0,1,2.12-.39,11.83,11.83,0,0,1,2.85.13,6.91,6.91,0,0,1,2,.59,4.14,4.14,0,0,1,1.35,1,3.74,3.74,0,0,1,.74,1.37,5.91,5.91,0,0,1,.23,1.69q0,1.17-.08,2c-0.05.54-.08,1-0.08,1.46a10,10,0,0,0,0,1.09c0,0.21.05,0.43,0.07,0.63l1.49,0.22v2.53l-3.84-.56-0.3-1.61-0.11,0a3.19,3.19,0,0,1-1.3,1,4,4,0,0,1-2.27.18,4.47,4.47,0,0,1-2.71-1.33,3.66,3.66,0,0,1-1-2.59,3.35,3.35,0,0,1,.35-1.61,2.39,2.39,0,0,1,1-1,4.23,4.23,0,0,1,1.61-.42,9.24,9.24,0,0,1,2.1.09q0.41,0.06.86,0.17l1.11,0.26a2.28,2.28,0,0,0,0-.45v-0.44a1.7,1.7,0,0,0-.5-1.33,2.76,2.76,0,0,0-1.48-.6,6.62,6.62,0,0,0-2.09,0,11.76,11.76,0,0,0-1.57.36Zm3.89,9a2.52,2.52,0,0,0,1.63-.16,2.18,2.18,0,0,0,.79-0.75v-1.38l-0.68-.2a8.19,8.19,0,0,0-1-.2,4.63,4.63,0,0,0-.86,0,2.59,2.59,0,0,0-.77.14,1.22,1.22,0,0,0-.54.37,1,1,0,0,0-.2.64,1.51,1.51,0,0,0,.37,1.06A2,2,0,0,0,72.07,396.64Z"/><path class="cls-4" d="M92.35,400.73a5.66,5.66,0,0,1-2.2.76,9.3,9.3,0,0,1-2.63,0,8.16,8.16,0,0,1-2.65-.81,6.55,6.55,0,0,1-1.95-1.51,6.3,6.3,0,0,1-1.2-2.09,7.69,7.69,0,0,1-.41-2.54,6,6,0,0,1,.48-2.51,4.43,4.43,0,0,1,1.34-1.72,4.87,4.87,0,0,1,2-.9,7.51,7.51,0,0,1,2.54,0,10.12,10.12,0,0,1,2.4.64,12.87,12.87,0,0,1,1.72.81c0,1.62,0,2.43,0,4l-2.52-.35v-2.12a6.93,6.93,0,0,0-1.42-.36,4.11,4.11,0,0,0-1.27,0,2.58,2.58,0,0,0-1.92,1.42,3.25,3.25,0,0,0-.31,1.5,3.85,3.85,0,0,0,.25,1.39,3.85,3.85,0,0,0,1.84,2.07,4.49,4.49,0,0,0,1.5.48,5.09,5.09,0,0,0,2.14-.07,7.32,7.32,0,0,0,1.25-.47Z"/><path class="cls-4" d="M96.24,393.39L94,393.08c0-1,0-1.52,0-2.53l2.27,0.31c0-1,0-1.57,0-2.62l3-.45c0,1.39,0,2.08,0,3.47l6,0.8v2.53l-6-.8v3.29a4.39,4.39,0,0,0,.66,2.65,2.66,2.66,0,0,0,1.86,1,3.82,3.82,0,0,0,1.12,0,3.77,3.77,0,0,0,.91-0.26,4.34,4.34,0,0,0,.73-0.41l0.61-.43,1.38,2.25a3.68,3.68,0,0,1-1,.71,7.13,7.13,0,0,1-1.26.5,7.24,7.24,0,0,1-1.41.26,6.59,6.59,0,0,1-1.44,0,5.68,5.68,0,0,1-3.86-2,7.45,7.45,0,0,1-1.29-4.74v-3.29Z"/><path class="cls-4" d="M108.14,398.2a6.65,6.65,0,0,1,.44-2.52,4.43,4.43,0,0,1,1.24-1.75,4.51,4.51,0,0,1,1.91-.94,7,7,0,0,1,2.49-.09,7.79,7.79,0,0,1,2.58.76,6.34,6.34,0,0,1,1.92,1.47,6.08,6.08,0,0,1,1.18,2.07,7.8,7.8,0,0,1,.4,2.53,6.68,6.68,0,0,1-.44,2.52,4.45,4.45,0,0,1-1.24,1.76,4.51,4.51,0,0,1-1.91.94,7,7,0,0,1-2.49.09,7.74,7.74,0,0,1-2.58-.77,6.35,6.35,0,0,1-1.91-1.48,6.11,6.11,0,0,1-1.18-2.07A7.82,7.82,0,0,1,108.14,398.2Zm3.07,0.4a4.85,4.85,0,0,0,.21,1.43,4,4,0,0,0,.6,1.2,3.25,3.25,0,0,0,.94.87,3.15,3.15,0,0,0,1.26.42,2.61,2.61,0,0,0,2.17-.58,3.34,3.34,0,0,0,.84-2.59,4.42,4.42,0,0,0-.78-2.66,3.09,3.09,0,0,0-2.23-1.26,3.42,3.42,0,0,0-1.19,0,2,2,0,0,0-1,.51,2.62,2.62,0,0,0-.63,1A4.71,4.71,0,0,0,111.21,398.59Z"/><path class="cls-4" d="M122,403.17l2.85,0.35v-6.44l-2.85-.35V394.2l5.16,0.63,0.34,1.56h0.09a5.11,5.11,0,0,1,1.47-1.09A3.39,3.39,0,0,1,131,395a3,3,0,0,1,2.17,1.27,6,6,0,0,1,.79,3.47l-2.69-.32a2.49,2.49,0,0,0-.24-1.24,1,1,0,0,0-.77-0.47,2.08,2.08,0,0,0-1.48.28,3.89,3.89,0,0,0-1,.94c0,2,0,2.94,0,4.9l5,0.59V407c-4.32-.51-6.49-0.77-10.81-1.3v-2.53Z"/><path class="cls-4" d="M136.22,404.87l4,0.46v-6.44l-4-.46c0-1,0-1.52,0-2.53l7,0.8c0,3.59,0,5.38,0,9l4.25,0.47c0,1,0,1.52,0,2.53-4.51-.49-6.77-0.75-11.27-1.27C136.22,406.38,136.22,405.88,136.22,404.87Zm3.49-11.7a1.45,1.45,0,0,1,.53-1.16,1.87,1.87,0,0,1,1.47-.34,2.5,2.5,0,0,1,1.54.68,1.76,1.76,0,0,1,.57,1.28,1.32,1.32,0,0,1-.57,1.14,2.17,2.17,0,0,1-1.54.3,2.37,2.37,0,0,1-1.47-.64A1.73,1.73,0,0,1,139.71,393.17Z"/><path class="cls-4" d="M150.71,398.3a11.57,11.57,0,0,1,2.13-.48,11.87,11.87,0,0,1,2.86,0,6.75,6.75,0,0,1,2,.5,3.91,3.91,0,0,1,1.36,1,3.55,3.55,0,0,1,.75,1.34,5.79,5.79,0,0,1,.23,1.68q0,1.17-.08,2c-0.05.55-.08,1-0.08,1.46a10,10,0,0,0,0,1.09c0,0.21.05,0.43,0.07,0.63l1.49,0.15c0,1,0,1.52,0,2.53l-3.86-.4-0.3-1.6h-0.11a3.4,3.4,0,0,1-1.3,1.09,4.1,4.1,0,0,1-2.28.28,4.29,4.29,0,0,1-2.72-1.21,3.5,3.5,0,0,1-1-2.55,3.42,3.42,0,0,1,.35-1.63,2.54,2.54,0,0,1,1-1,4.41,4.41,0,0,1,1.62-.49,9.3,9.3,0,0,1,2.11,0q0.41,0,.87.14l1.12,0.21a2.3,2.3,0,0,0,0-.46v-0.44a1.63,1.63,0,0,0-.5-1.31,2.67,2.67,0,0,0-1.48-.54,6.71,6.71,0,0,0-2.1.08,12.28,12.28,0,0,0-1.57.43Zm3.91,8.86a2.58,2.58,0,0,0,1.64-.23,2.32,2.32,0,0,0,.8-0.78v-1.38l-0.68-.17a8.06,8.06,0,0,0-1-.16,4.64,4.64,0,0,0-.86,0,2.67,2.67,0,0,0-.77.17,1.29,1.29,0,0,0-.55.39,1,1,0,0,0-.2.65,1.45,1.45,0,0,0,.37,1A1.94,1.94,0,0,0,154.62,407.16Z"/><path class="cls-4" d="M164.43,394.35l4.9,0.49c0,4.25,0,6.38,0,10.63a5.19,5.19,0,0,0,.44,2.5,1.72,1.72,0,0,0,1.4.83,3.77,3.77,0,0,0,1.17,0,4.06,4.06,0,0,0,.92-0.34l1.13,2.18q-0.39.22-.78,0.4a4.58,4.58,0,0,1-.83.29,5.3,5.3,0,0,1-1,.14,7.53,7.53,0,0,1-1.16,0,4.78,4.78,0,0,1-3.24-1.42,4.68,4.68,0,0,1-1.08-3.24c0-3.86,0-5.8,0-9.66l-1.91-.19C164.43,395.87,164.43,395.36,164.43,394.35Z"/><path class="cls-4" d="M178,414.46c4.08,0.38,6.13.57,10.21,0.93,0,1,0,1.48,0,2.46-4.09-.36-6.13-0.55-10.21-0.93C178,415.94,178,415.45,178,414.46Z"/><path class="cls-4" d="M190,396.77l4.65,0.4c0,2.35,0,3.53,0,5.89h0.09a3.45,3.45,0,0,1,1.47-1,4.81,4.81,0,0,1,2.16-.26,5.63,5.63,0,0,1,1.61.36,3.41,3.41,0,0,1,1.27.86,4,4,0,0,1,.83,1.51,7.5,7.5,0,0,1,.3,2.27c0,2.86,0,4.29,0,7.15l-3-.25c0-2.61,0-3.92,0-6.53a3,3,0,0,0-.6-2.07,2.27,2.27,0,0,0-1.57-.75,2.44,2.44,0,0,0-1.56.39,2.49,2.49,0,0,0-1,1.24c0,2.93,0,4.4,0,7.34l-3-.26c0-5.43,0-8.14,0-13.57l-1.66-.14C190,398.28,190,397.78,190,396.77Z"/><path class="cls-4" d="M216.12,413.76a3.71,3.71,0,0,1-.77.48,6.88,6.88,0,0,1-1.11.41,8.1,8.1,0,0,1-1.39.26,8.78,8.78,0,0,1-1.61,0,8.16,8.16,0,0,1-2.64-.62,5.76,5.76,0,0,1-3.2-3.37,7.36,7.36,0,0,1-.43-2.58,6.47,6.47,0,0,1,.48-2.62,4.76,4.76,0,0,1,1.32-1.79,5,5,0,0,1,2-1,7.43,7.43,0,0,1,2.44-.19,7.84,7.84,0,0,1,1.81.37,5.42,5.42,0,0,1,1.72.92,4.75,4.75,0,0,1,1.28,1.6,5.36,5.36,0,0,1,.49,2.43,10.68,10.68,0,0,1-.23,2.12L208,409.6a2.81,2.81,0,0,0,.31,1.27,2.74,2.74,0,0,0,.76.89,3.59,3.59,0,0,0,1.08.56,5.58,5.58,0,0,0,1.3.25,6.56,6.56,0,0,0,2.27-.15,4.39,4.39,0,0,0,1.44-.67Zm-5-8.59a3.7,3.7,0,0,0-1.13.08,2.88,2.88,0,0,0-1,.41,2.35,2.35,0,0,0-.7.73,2.27,2.27,0,0,0-.32,1l5.66,0.44A2.48,2.48,0,0,0,211.14,405.18Z"/><path class="cls-4" d="M219.64,399.14l4.9,0.35c0,4.25,0,6.38,0,10.63a5.11,5.11,0,0,0,.44,2.49,1.66,1.66,0,0,0,1.41.79,3.78,3.78,0,0,0,1.17-.07,4.16,4.16,0,0,0,.92-0.36l1.13,2.15q-0.39.23-.78,0.42a4.69,4.69,0,0,1-.83.31,5.34,5.34,0,0,1-1,.16,7.56,7.56,0,0,1-1.16,0,4.66,4.66,0,0,1-3.25-1.33,4.56,4.56,0,0,1-1.08-3.21c0-3.86,0-5.8,0-9.66l-1.91-.14C219.64,400.66,219.64,400.15,219.64,399.14Z"/><path class="cls-4" d="M231.45,404.56l3.92,0.26,0.35,1.4h0.09a4.14,4.14,0,0,1,3.87-1.46,5.71,5.71,0,0,1,1.95.45,4.15,4.15,0,0,1,1.52,1.14,5.31,5.31,0,0,1,1,1.85,8.81,8.81,0,0,1,.35,2.62,8.21,8.21,0,0,1-.39,2.63,5.22,5.22,0,0,1-1.13,1.94,4.44,4.44,0,0,1-1.8,1.15,6.12,6.12,0,0,1-2.42.29,9.69,9.69,0,0,1-1.4-.19,4.11,4.11,0,0,1-1.15-.41c0,1.89,0,2.83,0,4.71l-3-.19c0-5.43,0-8.14,0-13.57l-1.73-.11C231.45,406.08,231.45,405.58,231.45,404.56Zm7.33,2.68a2.92,2.92,0,0,0-1.6.33,2.08,2.08,0,0,0-1,1.25v4.78a2.65,2.65,0,0,0,.93.46,5.29,5.29,0,0,0,1.23.23,3.13,3.13,0,0,0,1.2-.14,2.25,2.25,0,0,0,1-.64,3.16,3.16,0,0,0,.64-1.18,5.83,5.83,0,0,0,.23-1.76,3.59,3.59,0,0,0-.74-2.39A2.56,2.56,0,0,0,238.78,407.25Z"/><path class="cls-4" d="M257.58,416.41a3.8,3.8,0,0,1-.77.5,7.06,7.06,0,0,1-1.11.44,8.21,8.21,0,0,1-1.39.29,8.82,8.82,0,0,1-1.61,0,8.08,8.08,0,0,1-2.64-.56,5.6,5.6,0,0,1-3.2-3.3,7.29,7.29,0,0,1-.43-2.57,6.54,6.54,0,0,1,.48-2.63,4.9,4.9,0,0,1,1.32-1.82,5.16,5.16,0,0,1,2-1,7.49,7.49,0,0,1,2.44-.24,7.79,7.79,0,0,1,1.81.33,5.28,5.28,0,0,1,1.72.89,4.61,4.61,0,0,1,1.28,1.58,5.28,5.28,0,0,1,.5,2.42,10.76,10.76,0,0,1-.23,2.13l-8.3-.46a2.77,2.77,0,0,0,.31,1.26,2.67,2.67,0,0,0,.76.87,3.5,3.5,0,0,0,1.08.53,5.54,5.54,0,0,0,1.3.22,6.6,6.6,0,0,0,2.27-.2,4.5,4.5,0,0,0,1.44-.7Zm-5-8.48a3.73,3.73,0,0,0-1.13.1,3,3,0,0,0-1,.43,2.41,2.41,0,0,0-.7.75,2.29,2.29,0,0,0-.32,1l5.67,0.32A2.42,2.42,0,0,0,252.6,407.93Z"/><path class="cls-4" d="M260,415.23l2.86,0.15v-6.44l-2.86-.15v-2.53l5.19,0.26,0.35,1.53h0.09a5.69,5.69,0,0,1,1.48-1.19,3.54,3.54,0,0,1,1.94-.41,2.76,2.76,0,0,1,2.18,1.11A5.74,5.74,0,0,1,272,411l-2.7-.13a2.37,2.37,0,0,0-.24-1.22,0.9,0.9,0,0,0-.77-0.42,2.2,2.2,0,0,0-1.49.39,4.34,4.34,0,0,0-1,1v4.9l5,0.24v2.53c-4.34-.2-6.51-0.31-10.86-0.54v-2.53Z"/><path class="cls-4" d="M283.42,423.72a11.08,11.08,0,0,1-3.14-1.14,9.73,9.73,0,0,1-2.7-2.16,10.3,10.3,0,0,1-1.88-3.21,12.2,12.2,0,0,1-.7-4.31,11.72,11.72,0,0,1,.7-4.24,9.45,9.45,0,0,1,1.88-3.08,8.8,8.8,0,0,1,2.7-2,11.06,11.06,0,0,1,3.14-1l0.55,2.48a9.3,9.3,0,0,0-1.83.58,6.32,6.32,0,0,0-1.95,1.32,7.28,7.28,0,0,0-1.56,2.34A9.12,9.12,0,0,0,278,413a8.69,8.69,0,0,0,.67,3.59,8.36,8.36,0,0,0,1.63,2.45,7.6,7.6,0,0,0,2,1.48,8.18,8.18,0,0,0,1.71.68Z"/><path class="cls-4" d="M289.21,416.53l3.53,0.13c0-4,0-6,0-10.05l-3,2.21-1.38-1.89,5.26-3.81,2,0.07c0,5.43,0,8.14,0,13.57l3.46,0.11v2.53l-9.85-.34C289.21,418.05,289.21,417.55,289.21,416.53Z"/><path class="cls-4" d="M305.63,418.14a1.53,1.53,0,0,1,.52-1.23,1.85,1.85,0,0,1,1.3-.42,2.35,2.35,0,0,1,1.91.88,3.3,3.3,0,0,1,.65,2.06,4.27,4.27,0,0,1-.4,1.87,4.79,4.79,0,0,1-1,1.44,5.44,5.44,0,0,1-1.44,1,5.73,5.73,0,0,1-1.58.48l-0.62-1.28a6.49,6.49,0,0,0,1.12-.36,4.35,4.35,0,0,0,1-.6,3.41,3.41,0,0,0,.77-0.86,2.38,2.38,0,0,0,.36-1.09,2.94,2.94,0,0,1-1.18,0,1.84,1.84,0,0,1-.8-0.39,1.56,1.56,0,0,1-.45-0.66A2.38,2.38,0,0,1,305.63,418.14Z"/><path class="cls-4" d="M316.88,417.37l3.53,0.08c0-4,0-6,0-10.05l-3,2.26L316,407.78l5.26-3.88,2,0v13.57l3.46,0.07v2.53l-9.85-.2v-2.53Z"/><path class="cls-4" d="M330.72,417.64l3.53,0.05V407.65l-3,2.28-1.38-1.86,5.26-3.92,2,0c0,5.43,0,8.14,0,13.57l3.46,0v2.53l-9.85-.13v-2.53Z"/><path class="cls-4" d="M344.89,422.72a7.87,7.87,0,0,0,1.71-.59,7.14,7.14,0,0,0,2-1.39,7.81,7.81,0,0,0,1.63-2.37,8.45,8.45,0,0,0,.67-3.56,9.35,9.35,0,0,0-.63-3.68,7.78,7.78,0,0,0-1.56-2.42,6.78,6.78,0,0,0-1.95-1.42,9.75,9.75,0,0,0-1.83-.67l0.55-2.46a11.58,11.58,0,0,1,3.14,1.11,9.46,9.46,0,0,1,2.7,2.11,10.07,10.07,0,0,1,1.88,3.17,13.33,13.33,0,0,1,0,8.54,9.66,9.66,0,0,1-1.88,3.12,9.08,9.08,0,0,1-2.7,2,10.63,10.63,0,0,1-3.14,1Z"/><path class="cls-4" d="M509,412.46l2.85-.21v-6.44L509,406v-2.53l5.18-.39,0.35,1.49h0.09a6.84,6.84,0,0,1,1.47-1.38,3.88,3.88,0,0,1,1.93-.66,2.42,2.42,0,0,1,2.18.84,5.26,5.26,0,0,1,.79,3.32l-2.69.21a2.2,2.2,0,0,0-.24-1.19,0.78,0.78,0,0,0-.77-0.32,2.44,2.44,0,0,0-1.48.58,5.24,5.24,0,0,0-1,1.13V412l5-.39c0,1,0,1.52,0,2.53-4.34.35-6.5,0.51-10.84,0.84v-2.53Z"/><path class="cls-4" d="M534.23,411.74a4.66,4.66,0,0,1-.77.61,8.27,8.27,0,0,1-1.1.59,9.33,9.33,0,0,1-3,.76,7.57,7.57,0,0,1-2.64-.19,4.6,4.6,0,0,1-3.2-2.85,6.81,6.81,0,0,1-.43-2.51,7.05,7.05,0,0,1,.48-2.7,6,6,0,0,1,1.32-2,6.18,6.18,0,0,1,2-1.3,8,8,0,0,1,2.44-.59,7.4,7.4,0,0,1,1.81.08,4.52,4.52,0,0,1,1.71.65,3.75,3.75,0,0,1,1.28,1.4,4.86,4.86,0,0,1,.5,2.35,11.25,11.25,0,0,1-.23,2.16l-8.28.71a2.51,2.51,0,0,0,.31,1.22,2.17,2.17,0,0,0,.76.76,3,3,0,0,0,1.08.38,5.29,5.29,0,0,0,1.3,0,7,7,0,0,0,2.27-.52,5.37,5.37,0,0,0,1.44-.91Zm-5-7.78a4,4,0,0,0-1.13.26,3.51,3.51,0,0,0-1,.56,3,3,0,0,0-.7.84,2.58,2.58,0,0,0-.32,1.08l5.66-.48A2.07,2.07,0,0,0,529.26,404Z"/><path class="cls-4" d="M548.31,410.57a7.39,7.39,0,0,1-2.21,1.28,10.16,10.16,0,0,1-2.64.6,7.25,7.25,0,0,1-2.66-.19,4.8,4.8,0,0,1-2-1.05,4.62,4.62,0,0,1-1.21-1.81,7.39,7.39,0,0,1,.07-5.07,6.15,6.15,0,0,1,1.35-2,6.55,6.55,0,0,1,2-1.37,8.3,8.3,0,0,1,2.55-.64,9.24,9.24,0,0,1,2.41.08,10.47,10.47,0,0,1,1.73.41v4l-2.53.24v-2.12a6.39,6.39,0,0,0-1.43,0,4.56,4.56,0,0,0-1.28.31,3.51,3.51,0,0,0-1.13.72,3.61,3.61,0,0,0-1.12,2.71,3.39,3.39,0,0,0,.25,1.33,2.78,2.78,0,0,0,1.85,1.64,4,4,0,0,0,1.51.13,5.68,5.68,0,0,0,2.15-.57,9.79,9.79,0,0,0,1.25-.76Z"/><path class="cls-4" d="M557.13,399.32l4.28-.43c0,3.2,0,4.8,0,8v1l1.75-.18c0,1,0,1.52,0,2.53l-3.63.37L559,408.93H558.9a4.7,4.7,0,0,1-1.59,1.61,5.22,5.22,0,0,1-2.35.81,5.1,5.1,0,0,1-1.6-.07,2.55,2.55,0,0,1-1.23-.64,3.12,3.12,0,0,1-.78-1.35,7.5,7.5,0,0,1-.28-2.23v-4.62l-1.31.13V400l4.3-.41v6.53a3.31,3.31,0,0,0,.45,2,1.48,1.48,0,0,0,1.41.48,2.74,2.74,0,0,0,1.53-.66,3.13,3.13,0,0,0,1-1.34c0-2,0-2.94,0-4.9l-1.29.13v-2.53Z"/><path class="cls-4" d="M564.24,407.57l2.85-.29v-6.44l-2.85.29V398.6l5.17-.54,0.34,1.48h0.09a7.12,7.12,0,0,1,1.47-1.42,4,4,0,0,1,1.93-.71,2.35,2.35,0,0,1,2.17.78,5.17,5.17,0,0,1,.79,3.29l-2.69.29a2.17,2.17,0,0,0-.24-1.18,0.76,0.76,0,0,0-.77-0.3,2.51,2.51,0,0,0-1.48.62,5.45,5.45,0,0,0-1,1.16V407l5-.53V409c-4.33.47-6.49,0.7-10.82,1.14v-2.53Z"/><path class="cls-4" d="M587.57,412.44a9.74,9.74,0,0,1-3.12-.66,7.79,7.79,0,0,1-2.69-1.75,8.4,8.4,0,0,1-1.87-2.92,11.36,11.36,0,0,1-.7-4.2,12.66,12.66,0,0,1,.7-4.34,11.54,11.54,0,0,1,1.87-3.37,11,11,0,0,1,2.69-2.4,12.82,12.82,0,0,1,3.12-1.44l0.55,2.4a10.8,10.8,0,0,0-1.82.87,7.84,7.84,0,0,0-1.94,1.62,9,9,0,0,0-1.55,2.58,9.9,9.9,0,0,0-.63,3.75,8,8,0,0,0,.67,3.49,6.73,6.73,0,0,0,1.62,2.2,6.12,6.12,0,0,0,2,1.18,7.12,7.12,0,0,0,1.7.41Z"/><path class="cls-4" d="M593.33,404.37l3.51-.42c0-4,0-6,0-10.05l-3,2.68-1.38-1.68,5.23-4.62,2-.24c0,5.43,0,8.14,0,13.57l3.44-.42v2.53l-9.8,1.18C593.33,405.89,593.33,405.38,593.33,404.37Z"/><path class="cls-4" d="M607.1,402.7l3.51-.44V392.21l-3,2.7-1.38-1.67,5.23-4.66,2-.26c0,5.43,0,8.14,0,13.57l3.44-.44V404c-3.92.51-5.87,0.76-9.79,1.25V402.7Z"/><path class="cls-4" d="M623.43,401.65a1.81,1.81,0,0,1,.52-1.31,2.16,2.16,0,0,1,1.3-.63,2,2,0,0,1,1.9.57,2.89,2.89,0,0,1,.64,2,4.73,4.73,0,0,1-.4,1.94,6,6,0,0,1-1,1.61A6.83,6.83,0,0,1,624.9,407a6.66,6.66,0,0,1-1.57.74l-0.62-1.18a7.65,7.65,0,0,0,1.11-.54,5.43,5.43,0,0,0,1-.77,4.34,4.34,0,0,0,.77-1,2.74,2.74,0,0,0,.36-1.15,3,3,0,0,1-1.17.19A1.54,1.54,0,0,1,624,403a1.25,1.25,0,0,1-.45-0.58A2.21,2.21,0,0,1,623.43,401.65Z"/><path class="cls-4" d="M634.61,399.07l3.5-.49V388.52l-3,2.75-1.37-1.65,5.22-4.73,2-.29c0,5.43,0,8.14,0,13.57l3.43-.49c0,1,0,1.52,0,2.53-3.91.56-5.87,0.84-9.78,1.39v-2.53Z"/><path class="cls-4" d="M646.79,391.79a14.55,14.55,0,0,1,.44-3.73,8.92,8.92,0,0,1,1.23-2.79,6.32,6.32,0,0,1,1.9-1.83,6.44,6.44,0,0,1,2.46-.88,4.61,4.61,0,0,1,4.46,1.37q1.56,1.8,1.56,6.08a14.64,14.64,0,0,1-.44,3.76,9.13,9.13,0,0,1-1.23,2.81,6.26,6.26,0,0,1-1.91,1.85,6.49,6.49,0,0,1-2.47.89,4.45,4.45,0,0,1-4.46-1.49Q646.79,395.88,646.79,391.79Zm3-.44c0,0.23,0,.45,0,0.65s0,0.42,0,.63l5.54-6a2.16,2.16,0,0,0-2.56-1.59,3,3,0,0,0-2.24,1.75A10.22,10.22,0,0,0,649.76,391.35Zm6.09-.9q0-.37,0-0.7c0-.22,0-0.44,0-0.65l-5.56,6a2.2,2.2,0,0,0,2.57,1.71,3,3,0,0,0,2.25-1.74A10.25,10.25,0,0,0,655.85,390.45Z"/><path class="cls-4" d="M662.39,399.9a9.24,9.24,0,0,0,1.69-.87,8.92,8.92,0,0,0,2-1.71,9.75,9.75,0,0,0,1.61-2.63,9.3,9.3,0,0,0,.66-3.67,8.67,8.67,0,0,0-.63-3.58,6.23,6.23,0,0,0-1.54-2.16,5.39,5.39,0,0,0-1.93-1.1,8.45,8.45,0,0,0-1.82-.38l0.55-2.54a10.07,10.07,0,0,1,3.11.6,7.46,7.46,0,0,1,2.67,1.68,8.12,8.12,0,0,1,1.86,2.87,11.17,11.17,0,0,1,.7,4.16,13,13,0,0,1-.7,4.39,11.93,11.93,0,0,1-1.86,3.42,11.42,11.42,0,0,1-2.67,2.46,12.35,12.35,0,0,1-3.11,1.49Z"/></svg>