<svg id="Layer_1" data-name="Layer 1" xmlns="http://www.w3.org/2000/svg" viewBox="0 0 720 576"><defs><style>.cls-1,.cls-2,.cls-4,.cls-6{fill:#231f20;}.cls-1,.cls-3{stroke:#231f20;}.cls-1,.cls-6{stroke-miterlimit:10;}.cls-2{stroke:#000;}.cls-2,.cls-3{stroke-linecap:round;stroke-linejoin:round;stroke-width:2px;}.cls-3,.cls-5{fill:#fff;}.cls-6{stroke:#fff;}</style></defs><title>Hanoi_Tower_Set_2</title><path class="cls-1" d="M654.44,529.72c0-.14,0-0.29,0-0.43s0-.29,0-0.43V477.06H62.61s-0.23,51.74-.23,52.22c0,2.67,2.12,5.24,6.08,7.71,13.87,8.61,50.58,16.11,101.74,21.48s116.73,8.59,188.22,8.59c81.71,0,155.68-4.21,209.24-11,26.78-3.41,48.45-7.46,63.44-12,7.5-2.25,13.32-4.62,17.29-7.08,3.38-2.1,5.41-4.29,5.94-6.55h0.1v-0.73Z"/><ellipse class="cls-2" cx="358.44" cy="478.15" rx="295.87" ry="37.63"/><path class="cls-3" d="M654.44,478.24c0-.14,0-0.29,0-0.43s0-.29,0-0.43V425.59H62.61s-0.23,51.74-.23,52.22c0,2.67,2.12,5.24,6.08,7.71,13.87,8.61,50.58,16.11,101.74,21.48s116.73,8.59,188.22,8.59c81.71,0,155.68-4.21,209.24-11,26.78-3.41,48.45-7.46,63.44-12,7.5-2.25,13.32-4.62,17.29-7.08,3.38-2.1,5.41-4.29,5.94-6.55h0.1v-0.73Z"/><ellipse class="cls-3" cx="358.44" cy="426.67" rx="295.87" ry="37.63"/><path class="cls-4" d="M358.43,435.45c-16,0-29-3.75-30.2-8.61h-0.08l0-.5V31.5h60.63V426.83h-0.12C387.4,431.7,374.4,435.45,358.43,435.45Z"/><path class="cls-5" d="M388.25,32V426.33h0c-0.49,4.78-13.63,8.61-29.79,8.61s-29.3-3.83-29.79-8.61h0v-0.21s0,0,0-.06,0,0,0-.06V32h59.63m1-1H327.62V426s0,0.07,0,.11v1.27h0.23c2,5.6,16.84,8.61,30.58,8.61s28.6-3,30.58-8.61h0.21l0-1V31h0Z"/><ellipse class="cls-6" cx="358.43" cy="32.11" rx="29.81" ry="8.89"/><path d="M112.81,482v-2.86l3.05,0.43c0-2.91,0-4.37,0-7.28l-3.08-.44V469l3.08,0.44v-0.73a4.42,4.42,0,0,1,.43-2,3.46,3.46,0,0,1,1.13-1.3,3.94,3.94,0,0,1,1.62-.62,6.46,6.46,0,0,1,1.9,0,12.93,12.93,0,0,1,2.94.7,8.77,8.77,0,0,1,1.9,1l-1,2.44a13.85,13.85,0,0,0-1.28-.69,6.11,6.11,0,0,0-1.77-.48,2.26,2.26,0,0,0-2,.37,2.53,2.53,0,0,0-.56,1.83l5.44,0.74v2.86l-5.44-.74c0,2.91,0,4.37,0,7.28l5.46,0.75v2.86C119.94,483,117.56,482.65,112.81,482Z"/><path d="M128.83,472.06a12.9,12.9,0,0,1,2.4-.49,13.36,13.36,0,0,1,3.22.08,7.69,7.69,0,0,1,2.29.62,4.57,4.57,0,0,1,1.53,1.12,4.12,4.12,0,0,1,.84,1.54,6.63,6.63,0,0,1,.26,1.9q0,1.33-.09,2.25t-0.09,1.65a11.32,11.32,0,0,0,.05,1.23c0,0.24.06,0.48,0.08,0.71l1.68,0.21v2.86l-4.35-.55-0.34-1.81-0.13,0a3.7,3.7,0,0,1-1.47,1.2,4.58,4.58,0,0,1-2.57.25,5,5,0,0,1-3.06-1.44,4.06,4.06,0,0,1-1.13-2.91,3.82,3.82,0,0,1,.4-1.83,2.77,2.77,0,0,1,1.16-1.15,4.87,4.87,0,0,1,1.83-.51,10.52,10.52,0,0,1,2.38.06q0.46,0.06,1,.18l1.26,0.27A2.59,2.59,0,0,0,136,477v-0.49a1.89,1.89,0,0,0-.57-1.49,3.07,3.07,0,0,0-1.67-.65,7.52,7.52,0,0,0-2.37,0,13.54,13.54,0,0,0-1.77.44Zm4.41,10.12a2.87,2.87,0,0,0,1.84-.22,2.52,2.52,0,0,0,.9-0.86v-1.56l-0.77-.22a9.32,9.32,0,0,0-1.1-.21,5.25,5.25,0,0,0-1,0,3,3,0,0,0-.87.17,1.42,1.42,0,0,0-.61.43,1.1,1.1,0,0,0-.23.72,1.68,1.68,0,0,0,.42,1.19A2.24,2.24,0,0,0,133.24,482.18Z"/><path d="M156.2,486.35a6.52,6.52,0,0,1-2.49.92,10.57,10.57,0,0,1-3,0,9.08,9.08,0,0,1-3-.86,7.2,7.2,0,0,1-2.2-1.66,6.93,6.93,0,0,1-1.36-2.34,8.6,8.6,0,0,1-.47-2.87,6.87,6.87,0,0,1,.54-2.84,5.17,5.17,0,0,1,1.52-2,5.64,5.64,0,0,1,2.29-1.06,8.54,8.54,0,0,1,2.88-.11,11.35,11.35,0,0,1,2.72.66,14.32,14.32,0,0,1,1.94.88v4.58l-2.85-.34V477a7.75,7.75,0,0,0-1.61-.37,4.71,4.71,0,0,0-1.44,0,3,3,0,0,0-2.18,1.65,3.71,3.71,0,0,0-.35,1.7,4.26,4.26,0,0,0,2.37,3.86,5,5,0,0,0,1.7.5,5.8,5.8,0,0,0,2.42-.13,8.5,8.5,0,0,0,1.41-.56Z"/><path d="M160.6,478l-2.57-.3v-2.86l2.57,0.3v-3l3.37-.58v3.93l6.8,0.75v2.86l-6.8-.75v3.72a4.87,4.87,0,0,0,.75,3,2.93,2.93,0,0,0,2.1,1.13,4.25,4.25,0,0,0,2.3-.35,5.06,5.06,0,0,0,.83-0.48l0.69-.5,1.56,2.51a4.25,4.25,0,0,1-1.1.83,8.29,8.29,0,0,1-3,.93,7.47,7.47,0,0,1-1.63,0,6.27,6.27,0,0,1-4.37-2.12,8.27,8.27,0,0,1-1.47-5.33C160.6,480.19,160.6,479.45,160.6,478Z"/><path d="M174.07,483.09a7.62,7.62,0,0,1,.49-2.86,5.18,5.18,0,0,1,1.4-2,5.25,5.25,0,0,1,2.17-1.11,8,8,0,0,1,2.82-.16,8.68,8.68,0,0,1,2.92.79,6.94,6.94,0,0,1,2.17,1.61,6.66,6.66,0,0,1,1.34,2.3,8.71,8.71,0,0,1,.45,2.85,7.64,7.64,0,0,1-.49,2.86,5.09,5.09,0,0,1-3.57,3.14,8,8,0,0,1-2.82.17,8.61,8.61,0,0,1-2.92-.8,6.94,6.94,0,0,1-2.17-1.62,6.71,6.71,0,0,1-1.34-2.31A8.74,8.74,0,0,1,174.07,483.09Zm3.48,0.37a5.42,5.42,0,0,0,.23,1.61,4.43,4.43,0,0,0,.68,1.34,3.44,3.44,0,0,0,2.49,1.4,3,3,0,0,0,2.45-.71,3.85,3.85,0,0,0,.95-2.95,4.89,4.89,0,0,0-.88-3,3.4,3.4,0,0,0-2.52-1.36,3.9,3.9,0,0,0-1.35.08,2.31,2.31,0,0,0-1.08.6,3.06,3.06,0,0,0-.71,1.17A5.36,5.36,0,0,0,177.55,483.46Z"/><path d="M189.75,488.33l3.22,0.31v-7.28l-3.22-.31c0-1.14,0-1.72,0-2.86l5.84,0.56L196,480.5h0.1a6,6,0,0,1,1.66-1.27,3.89,3.89,0,0,1,2.18-.37,3.27,3.27,0,0,1,2.46,1.37,6.68,6.68,0,0,1,.9,3.9l-3-.27a2.77,2.77,0,0,0-.27-1.39,1.06,1.06,0,0,0-.87-0.51,2.4,2.4,0,0,0-1.68.37,4.57,4.57,0,0,0-1.08,1.09V489l5.64,0.52v2.86c-4.9-.44-7.34-0.67-12.24-1.15C189.75,490,189.75,489.47,189.75,488.33Z"/><path d="M205.86,489.82l4.57,0.4v-7.28l-4.57-.4v-2.86l8,0.68c0,4.06,0,6.08,0,10.14l4.81,0.39c0,1.14,0,1.72,0,2.86-5.11-.41-7.66-0.63-12.76-1.08v-2.86Zm4-13.33a1.68,1.68,0,0,1,.6-1.33,2.16,2.16,0,0,1,1.66-.43,2.76,2.76,0,0,1,1.74.72,1.94,1.94,0,0,1,.65,1.43,1.54,1.54,0,0,1-.65,1.31,2.5,2.5,0,0,1-1.74.39,2.61,2.61,0,0,1-1.66-.67A1.91,1.91,0,0,1,209.81,476.49Z"/><path d="M222.26,481.93a12.83,12.83,0,0,1,5.64-.71,7.46,7.46,0,0,1,2.3.5,4.26,4.26,0,0,1,1.53,1,3.85,3.85,0,0,1,.85,1.49,6.47,6.47,0,0,1,.26,1.89q0,1.33-.09,2.26T232.67,490a11.09,11.09,0,0,0,.05,1.23c0,0.24.06,0.48,0.08,0.71l1.69,0.12V495l-4.37-.32-0.34-1.79h-0.13a4,4,0,0,1-1.47,1.28,5.54,5.54,0,0,1-5.66-.89,3.84,3.84,0,0,1-1.14-2.85,3.94,3.94,0,0,1,.4-1.85,3,3,0,0,1,1.16-1.21,5.14,5.14,0,0,1,1.83-.61,10.6,10.6,0,0,1,2.39-.06q0.46,0,1,.13l1.27,0.2a2.62,2.62,0,0,0,.05-0.52V486a1.79,1.79,0,0,0-.57-1.46,2.94,2.94,0,0,0-1.68-.55,7.63,7.63,0,0,0-2.38.16,14.16,14.16,0,0,0-1.78.54Zm4.43,9.88a3,3,0,0,0,1.85-.32,2.74,2.74,0,0,0,.9-0.91V489l-0.77-.17a9.15,9.15,0,0,0-1.11-.15,5.25,5.25,0,0,0-1,0,3.08,3.08,0,0,0-.87.22,1.54,1.54,0,0,0-.62.46,1.15,1.15,0,0,0-.23.74,1.6,1.6,0,0,0,.42,1.16A2.14,2.14,0,0,0,226.69,491.81Z"/><path d="M237.79,477l5.54,0.38c0,4.8,0,7.21,0,12a5.78,5.78,0,0,0,.49,2.82,1.87,1.87,0,0,0,1.59.88,4.27,4.27,0,0,0,1.33-.08,4.71,4.71,0,0,0,1-.41l1.28,2.42q-0.44.26-.88,0.48a5.31,5.31,0,0,1-.94.36,6.1,6.1,0,0,1-1.08.19,8.52,8.52,0,0,1-1.31,0,5.23,5.23,0,0,1-3.67-1.49,5.14,5.14,0,0,1-1.22-3.62c0-4.37,0-6.55,0-10.92l-2.16-.15V477Z"/><path d="M263,502.28a12.65,12.65,0,0,1-3.54-1.34,11.25,11.25,0,0,1-3-2.49,11.88,11.88,0,0,1-2.12-3.66,13.92,13.92,0,0,1-.79-4.88,13.16,13.16,0,0,1,.79-4.77,10.47,10.47,0,0,1,2.12-3.45,9.74,9.74,0,0,1,3-2.19,12.31,12.31,0,0,1,3.54-1l0.62,2.82a10.46,10.46,0,0,0-2.07.63,7,7,0,0,0-2.2,1.46,8.05,8.05,0,0,0-1.76,2.62,10.23,10.23,0,0,0-.72,4.12,9.91,9.91,0,0,0,.75,4.07,9.63,9.63,0,0,0,1.84,2.8,8.78,8.78,0,0,0,2.23,1.71,9.41,9.41,0,0,0,1.93.79Z"/><path d="M273.22,494.8a5.25,5.25,0,0,0,1.58-.14,3.49,3.49,0,0,0,1.22-.56,2.8,2.8,0,0,0,.79-0.89,2.31,2.31,0,0,0,.29-1.14,2.4,2.4,0,0,0-1.22-2.21,4.53,4.53,0,0,0-1.38-.51,11.26,11.26,0,0,0-1.74-.21l-1.46-.07V487.2l4.38-5.12-6.59-.33c0-1.14,0-1.72,0-2.86,4.25,0.22,6.37.32,10.62,0.52v2.37l-4.58,5,0.6,0a5.3,5.3,0,0,1,1.77.4,4.68,4.68,0,0,1,1.52,1,4.92,4.92,0,0,1,1.07,1.61,5.54,5.54,0,0,1,.4,2.18,5.17,5.17,0,0,1-.61,2.57,5.54,5.54,0,0,1-1.61,1.81,6.53,6.53,0,0,1-2.3,1,9.41,9.41,0,0,1-2.68.25,13.52,13.52,0,0,1-2.34-.32,11.77,11.77,0,0,1-2.27-.77l0.91-2.76a3.86,3.86,0,0,0,.64.29q0.4,0.15.91,0.31a10.19,10.19,0,0,0,1,.26A7.39,7.39,0,0,0,273.22,494.8Z"/><path d="M285.51,500.54a8.57,8.57,0,0,0,1.93-.61,7.67,7.67,0,0,0,2.23-1.5,8.44,8.44,0,0,0,1.84-2.62,9.39,9.39,0,0,0,.76-4,10.76,10.76,0,0,0-.72-4.19,9.19,9.19,0,0,0-1.76-2.79,8,8,0,0,0-2.2-1.67,11.44,11.44,0,0,0-2.07-.83l0.63-2.76a13.44,13.44,0,0,1,3.54,1.37,11.18,11.18,0,0,1,3,2.48,11.89,11.89,0,0,1,2.12,3.65,13.78,13.78,0,0,1,.79,4.85,13.27,13.27,0,0,1-.79,4.81,10.47,10.47,0,0,1-2.12,3.46,9.79,9.79,0,0,1-3,2.2,11.62,11.62,0,0,1-3.54,1Z"/><path d="M364.62,496.9a5.36,5.36,0,0,0,1.58-.23,3.73,3.73,0,0,0,1.22-.63,3,3,0,0,0,.79-0.94,2.4,2.4,0,0,0,.29-1.15,2.44,2.44,0,0,0-.33-1.3,2.32,2.32,0,0,0-.9-0.84,4.33,4.33,0,0,0-1.38-.43,11.16,11.16,0,0,0-1.75-.12h-1.46V489.4l4.38-5.35-6.59,0v-2.86c4.25,0,6.38,0,10.63,0v2.37l-4.59,5.25h0.6a5.16,5.16,0,0,1,1.77.3,4.37,4.37,0,0,1,1.53.93,4.58,4.58,0,0,1,1.07,1.55,5.89,5.89,0,0,1-.21,4.76,6,6,0,0,1-1.62,1.9,7,7,0,0,1-2.31,1.16,9.59,9.59,0,0,1-2.68.39,13.3,13.3,0,0,1-2.35-.2,11.27,11.27,0,0,1-2.27-.65l0.91-2.81a3.66,3.66,0,0,0,.64.26q0.4,0.13.91,0.26a10,10,0,0,0,1,.21A7.3,7.3,0,0,0,364.62,496.9Z"/><path d="M394.93,492.33l-4.54-6.2,4-.08,2.94,4.28,3.08-4.41,3.67-.09-4.46,6.35,4.72,6.64-3.93.1-3.31-4.71-3.36,4.85-3.7.07Z"/><path d="M422.55,498.26V495.4l3.07-.11V488l-3.1.12v-2.86l3.1-.12v-0.73a4.88,4.88,0,0,1,.43-2.12,4.47,4.47,0,0,1,1.13-1.5,4.86,4.86,0,0,1,1.63-.91,6.86,6.86,0,0,1,1.91-.35,12.1,12.1,0,0,1,3,.18,7.28,7.28,0,0,1,1.91.66l-1,2.62a11.41,11.41,0,0,0-1.29-.47,5.62,5.62,0,0,0-1.78-.16,2.62,2.62,0,0,0-2,.72A2.92,2.92,0,0,0,429,485l5.47-.23v2.86l-5.47.23v7.28l5.5-.23v2.86C429.73,498,427.34,498.08,422.55,498.26Z"/><path d="M438.68,485.48a15,15,0,0,1,2.41-.92,14,14,0,0,1,3.24-.49,7.07,7.07,0,0,1,2.3.21,3.62,3.62,0,0,1,1.54.85,3.29,3.29,0,0,1,.85,1.39,6.14,6.14,0,0,1,.26,1.86q0,1.33-.09,2.27t-0.09,1.67a11.07,11.07,0,0,0,.05,1.22c0,0.23.06,0.47,0.08,0.7l1.69-.09V497l-4.37.22-0.34-1.75h-0.13a4.83,4.83,0,0,1-1.47,1.46,5.1,5.1,0,0,1-2.59.71,4.22,4.22,0,0,1-3.08-.9,3.39,3.39,0,0,1-1.14-2.7,4.24,4.24,0,0,1,.4-1.9,3.61,3.61,0,0,1,1.16-1.35,5.84,5.84,0,0,1,1.84-.84,11,11,0,0,1,2.39-.36,9.74,9.74,0,0,1,1,0l1.27,0a2.71,2.71,0,0,0,.05-0.52v-0.49a1.58,1.58,0,0,0-.57-1.39,2.68,2.68,0,0,0-1.68-.35,8,8,0,0,0-2.38.45,16,16,0,0,0-1.78.76Zm4.43,9.33a3.23,3.23,0,0,0,1.85-.55,3.28,3.28,0,0,0,.9-1v-1.56l-0.77-.08a8.92,8.92,0,0,0-1.11,0,5.46,5.46,0,0,0-1,.14,3.43,3.43,0,0,0-.88.33,1.84,1.84,0,0,0-.62.54,1.28,1.28,0,0,0-.23.76,1.42,1.42,0,0,0,.42,1.11A1.93,1.93,0,0,0,443.11,494.81Z"/><path d="M466.17,494.88a8,8,0,0,1-2.5,1.36,11.25,11.25,0,0,1-3,.58,8.28,8.28,0,0,1-3-.32,5.67,5.67,0,0,1-2.21-1.27,5.48,5.48,0,0,1-1.37-2.1,7.87,7.87,0,0,1-.47-2.78,7.54,7.54,0,0,1,.55-2.94,6.63,6.63,0,0,1,1.52-2.24,7.08,7.08,0,0,1,2.3-1.47,9.2,9.2,0,0,1,2.89-.62,10.54,10.54,0,0,1,2.73.18,12,12,0,0,1,2,.53v4.58l-2.86.17v-2.39a7.26,7.26,0,0,0-1.61-.09,5.07,5.07,0,0,0-1.45.3,3.81,3.81,0,0,0-1.28.78,4,4,0,0,0-.91,1.26,4.1,4.1,0,0,0-.35,1.76,3.91,3.91,0,0,0,.29,1.52,3.31,3.31,0,0,0,2.1,1.92,4.54,4.54,0,0,0,1.71.2,6.3,6.3,0,0,0,2.43-.56,10.53,10.53,0,0,0,1.42-.81Z"/><path d="M470.6,485.71l-2.58.16V483l2.58-.16c0-1.19,0-1.78,0-3L474,478.7c0,1.57,0,2.36,0,3.93l6.82-.46V485l-6.82.46v3.72a4.27,4.27,0,0,0,.75,2.85,2.44,2.44,0,0,0,2.11.76,4.62,4.62,0,0,0,1.28-.26,5.19,5.19,0,0,0,1-.5,6.46,6.46,0,0,0,.83-0.63l0.69-.62,1.56,2.23a5.54,5.54,0,0,1-1.11,1,10.16,10.16,0,0,1-1.43.85,9.55,9.55,0,0,1-1.6.62,7.87,7.87,0,0,1-1.64.29,5.29,5.29,0,0,1-4.38-1.34q-1.47-1.53-1.47-5.07v-3.72Z"/><path d="M484.1,488.43a8.28,8.28,0,0,1,.49-2.95,6.49,6.49,0,0,1,3.58-3.76,8.69,8.69,0,0,1,2.82-.67,7.92,7.92,0,0,1,2.93.27,5.46,5.46,0,0,1,2.17,1.22,5.27,5.27,0,0,1,1.34,2.07,8,8,0,0,1,.46,2.77,8.34,8.34,0,0,1-.49,3,6.53,6.53,0,0,1-3.58,3.78,8.62,8.62,0,0,1-2.82.67,7.86,7.86,0,0,1-2.93-.28,5.47,5.47,0,0,1-2.17-1.23,5.31,5.31,0,0,1-1.34-2.07A8,8,0,0,1,484.1,488.43Zm3.49-.25a5,5,0,0,0,.23,1.57,3.56,3.56,0,0,0,.68,1.22,2.76,2.76,0,0,0,1.07.77,3.15,3.15,0,0,0,1.43.19,3.57,3.57,0,0,0,2.46-1.15,4.47,4.47,0,0,0,.95-3.12,4.22,4.22,0,0,0-.88-2.83,2.83,2.83,0,0,0-2.52-.91,4.23,4.23,0,0,0-1.35.32,2.94,2.94,0,0,0-1.08.8,3.84,3.84,0,0,0-.72,1.3A5.78,5.78,0,0,0,487.59,488.18Z"/><path d="M499.81,490.88l3.22-.26c0-2.91,0-4.37,0-7.28l-3.22.26c0-1.14,0-1.72,0-2.86l5.85-.48,0.39,1.68h0.1a7.76,7.76,0,0,1,1.66-1.57,4.42,4.42,0,0,1,2.18-.76,2.71,2.71,0,0,1,2.46.93,5.92,5.92,0,0,1,.9,3.74l-3,.27a2.49,2.49,0,0,0-.27-1.34,0.87,0.87,0,0,0-.87-0.35,2.78,2.78,0,0,0-1.68.66,5.92,5.92,0,0,0-1.08,1.29c0,2.22,0,3.32,0,5.54l5.64-.49c0,1.14,0,1.72,0,2.86-4.9.43-7.35,0.64-12.24,1C499.81,492.59,499.81,492,499.81,490.88Z"/><path d="M515.93,489.5l4.57-.42V481.8l-4.57.42v-2.86l8-.73c0,4.06,0,6.08,0,10.14l4.8-.46c0,1.14,0,1.72,0,2.86-5.1.5-7.65,0.74-12.76,1.2C515.93,491.21,515.93,490.64,515.93,489.5Zm3.95-14a2,2,0,0,1,.6-1.43,2.53,2.53,0,0,1,1.66-.73,2.37,2.37,0,0,1,1.74.41,1.6,1.6,0,0,1,.65,1.32,1.87,1.87,0,0,1-.65,1.43,2.9,2.9,0,0,1-1.74.7,2.24,2.24,0,0,1-1.66-.38A1.59,1.59,0,0,1,519.87,475.46Z"/><path d="M532.32,478.69a15.85,15.85,0,0,1,2.4-1A14.32,14.32,0,0,1,538,477a7,7,0,0,1,2.3.09,3.38,3.38,0,0,1,1.53.76,3.06,3.06,0,0,1,.84,1.34,6,6,0,0,1,.26,1.84q0,1.33-.09,2.27T542.7,485a11,11,0,0,0,.05,1.22c0,0.23.06,0.47,0.08,0.69l1.69-.18c0,1.14,0,1.72,0,2.86l-4.36.46-0.34-1.73h-0.13a5.23,5.23,0,0,1-1.47,1.54,5.31,5.31,0,0,1-2.58.85,4,4,0,0,1-3.07-.73,3.22,3.22,0,0,1-1.14-2.64,4.39,4.39,0,0,1,.4-1.92A3.9,3.9,0,0,1,533,484a6.19,6.19,0,0,1,1.83-.94,11.23,11.23,0,0,1,2.39-.49,9.72,9.72,0,0,1,1,0l1.26,0a2.77,2.77,0,0,0,.05-0.52v-0.49a1.5,1.5,0,0,0-.57-1.36,2.59,2.59,0,0,0-1.68-.26,8.25,8.25,0,0,0-2.37.58,17,17,0,0,0-1.78.85Zm4.42,9.1a3.36,3.36,0,0,0,1.85-.64,3.55,3.55,0,0,0,.9-1.07v-1.56l-0.77,0a8.89,8.89,0,0,0-1.1,0,5.57,5.57,0,0,0-1,.19,3.61,3.61,0,0,0-.87.38,2,2,0,0,0-.62.57,1.53,1.53,0,0,0,.19,1.87A1.86,1.86,0,0,0,536.74,487.78Z"/><path d="M547.81,471l5.53-.61c0,4.8,0,7.21,0,12a5.25,5.25,0,0,0,.49,2.73,1.54,1.54,0,0,0,1.58.6,4.59,4.59,0,0,0,1.32-.32,5.77,5.77,0,0,0,1-.6L559,487q-0.44.34-.88,0.63a6.43,6.43,0,0,1-.93.52,7,7,0,0,1-1.08.38,8.9,8.9,0,0,1-1.31.24,4.48,4.48,0,0,1-3.66-.84,4.39,4.39,0,0,1-1.22-3.4c0-4.37,0-6.55,0-10.92l-2.15.24C547.81,472.71,547.81,472.14,547.81,471Z"/><path d="M572.92,491.79a10.89,10.89,0,0,1-3.53-.71,8.71,8.71,0,0,1-3-1.95,9.39,9.39,0,0,1-2.11-3.29,12.81,12.81,0,0,1-.79-4.74,14.39,14.39,0,0,1,.79-4.92,13.18,13.18,0,0,1,2.11-3.83,12.55,12.55,0,0,1,3-2.73,14.54,14.54,0,0,1,3.53-1.65l0.62,2.7a12.44,12.44,0,0,0-2.06,1,9,9,0,0,0-2.19,1.85,10.22,10.22,0,0,0-1.75,2.93,11.25,11.25,0,0,0-.71,4.24,9,9,0,0,0,.75,3.94,7.55,7.55,0,0,0,1.83,2.47,6.85,6.85,0,0,0,2.22,1.32,8,8,0,0,0,1.92.45Z"/><path d="M590.22,484.06c-4.62.62-6.93,0.92-11.55,1.5,0-1,0-1.51,0-2.52q0.31-.3.78-0.79l1-1.11q0.58-.62,1.23-1.35t1.27-1.52q0.88-1.1,1.54-2a15.39,15.39,0,0,0,1.09-1.66,7.26,7.26,0,0,0,.63-1.49,5.17,5.17,0,0,0,.21-1.44,2.15,2.15,0,0,0-.23-1,2.29,2.29,0,0,0-.65-0.79,2.65,2.65,0,0,0-1-.47,3.45,3.45,0,0,0-1.28-.06,5.25,5.25,0,0,0-1.7.5,6.93,6.93,0,0,0-1.59,1.17l-1.35-2.22a13.54,13.54,0,0,1,2.42-1.62,9,9,0,0,1,3.07-.93,7.1,7.1,0,0,1,2.14,0,4.86,4.86,0,0,1,1.81.68,3.69,3.69,0,0,1,1.26,1.35,4.19,4.19,0,0,1,.47,2,8.27,8.27,0,0,1-.14,1.57,8.46,8.46,0,0,1-.44,1.49,11.46,11.46,0,0,1-.78,1.57q-0.48.82-1.15,1.79-0.52.74-1.13,1.51t-1.2,1.47q-0.6.7-1.18,1.32t-1,1l7.46-1C590.22,482.34,590.22,482.92,590.22,484.06Z"/><path d="M595.32,486.05a10.21,10.21,0,0,0,1.92-1,9.83,9.83,0,0,0,2.21-1.89,10.78,10.78,0,0,0,1.82-2.95,10.4,10.4,0,0,0,.75-4.14,9.88,9.88,0,0,0-.71-4.06,7.2,7.2,0,0,0-1.75-2.47,6.24,6.24,0,0,0-2.19-1.28,9.76,9.76,0,0,0-2.06-.46l0.62-2.87a11.51,11.51,0,0,1,3.52.74,8.65,8.65,0,0,1,3,1.94,9.4,9.4,0,0,1,2.11,3.28,12.72,12.72,0,0,1,.79,4.71,14.55,14.55,0,0,1-.79,4.95,13.2,13.2,0,0,1-2.11,3.83,12.6,12.6,0,0,1-3,2.74,13.66,13.66,0,0,1-3.52,1.63Z"/></svg>