<svg id="Layer_1" data-name="Layer 1" xmlns="http://www.w3.org/2000/svg" viewBox="0 0 720 576"><defs><style>.cls-1,.cls-2,.cls-4,.cls-6{fill:#231f20;}.cls-1,.cls-3{stroke:#231f20;}.cls-1,.cls-6{stroke-miterlimit:10;}.cls-1,.cls-2,.cls-3{stroke-width:2px;}.cls-2{stroke:#000;}.cls-2,.cls-3{stroke-linecap:round;stroke-linejoin:round;}.cls-3,.cls-5{fill:#fff;}.cls-6{stroke:#fff;}</style></defs><title>Hanoi_Tower_Set_5_Final</title><path class="cls-1" d="M682.68,506.49c0-.14,0-0.29,0-0.43s0-.29,0-0.43V453.84H37.88s-0.25,51.74-.25,52.22c0,2.67,2.31,5.24,6.63,7.71,15.11,8.61,55.11,16.11,110.85,21.48s127.18,8.59,205.07,8.59c89,0,169.62-4.21,228-11,29.17-3.41,52.79-7.46,69.12-12,8.17-2.25,14.51-4.62,18.83-7.08,3.69-2.1,5.9-4.29,6.47-6.55h0.11v-0.73Z"/><ellipse class="cls-2" cx="360.18" cy="454.92" rx="322.35" ry="37.63"/><path class="cls-3" d="M682.68,455c0-.14,0-0.29,0-0.43s0-.29,0-0.43V402.36H37.88s-0.25,51.74-.25,52.22c0,2.67,2.31,5.24,6.63,7.71,15.11,8.61,55.11,16.11,110.85,21.48s127.18,8.59,205.07,8.59c89,0,169.62-4.21,228-11,29.17-3.41,52.79-7.46,69.12-12,8.17-2.25,14.51-4.62,18.83-7.08,3.69-2.1,5.9-4.29,6.47-6.55h0.11V455Z"/><ellipse class="cls-3" cx="360.18" cy="403.44" rx="322.35" ry="37.63"/><path class="cls-3" d="M682.68,403.53c0-.14,0-0.29,0-0.43s0-.29,0-0.43V350.88H37.88s-0.25,51.74-.25,52.22c0,2.67,2.31,5.24,6.63,7.71,15.11,8.61,55.11,16.11,110.85,21.48s127.18,8.59,205.07,8.59c89,0,169.62-4.21,228-11,29.17-3.41,52.79-7.46,69.12-12,8.17-2.25,14.51-4.62,18.83-7.08,3.69-2.1,5.9-4.29,6.47-6.55h0.11v-0.73Z"/><ellipse class="cls-3" cx="360.18" cy="351.97" rx="322.35" ry="37.63"/><path class="cls-3" d="M682.68,352.06c0-.14,0-0.29,0-0.43s0-.29,0-0.43V299.4H37.88s-0.25,51.74-.25,52.22c0,2.67,2.31,5.24,6.63,7.71,15.11,8.61,55.11,16.11,110.85,21.48s127.18,8.59,205.07,8.59c89,0,169.62-4.21,228-11,29.17-3.41,52.79-7.46,69.12-12,8.17-2.25,14.51-4.62,18.83-7.08,3.69-2.1,5.9-4.29,6.47-6.55h0.11v-0.73Z"/><ellipse class="cls-3" cx="360.18" cy="300.49" rx="322.35" ry="37.63"/><path class="cls-3" d="M682.68,302.06c0-.14,0-0.29,0-0.43s0-.29,0-0.43V249.4H37.88s-0.25,51.74-.25,52.22c0,2.67,2.31,5.24,6.63,7.71,15.11,8.61,55.11,16.11,110.85,21.48s127.18,8.59,205.07,8.59c89,0,169.62-4.21,228-11,29.17-3.41,52.79-7.46,69.12-12,8.17-2.25,14.51-4.62,18.83-7.08,3.69-2.1,5.9-4.29,6.47-6.55h0.11v-0.73Z"/><ellipse class="cls-3" cx="360.18" cy="250.49" rx="322.35" ry="37.63"/><path class="cls-3" d="M682.68,251.06c0-.14,0-0.29,0-0.43s0-.29,0-0.43V198.4H37.88s-0.25,51.74-.25,52.22c0,2.67,2.31,5.24,6.63,7.71,15.11,8.61,55.11,16.11,110.85,21.48s127.18,8.59,205.07,8.59c89,0,169.62-4.21,228-11,29.17-3.41,52.79-7.46,69.12-12,8.17-2.25,14.51-4.62,18.83-7.08,3.69-2.1,5.9-4.29,6.47-6.55h0.11v-0.73Z"/><ellipse class="cls-3" cx="360.18" cy="199.49" rx="322.35" ry="37.63"/><path class="cls-4" d="M360.17,208.64c-16,0-29-3.75-30.2-8.61h-0.08l0-.5V8.27h60.63V200h-0.12C389.14,204.89,376.14,208.64,360.17,208.64Z"/><path class="cls-5" d="M390,8.77V199.53h0c-0.49,4.78-13.63,8.61-29.79,8.61s-29.3-3.83-29.79-8.61h0v-0.21s0,0,0-.06,0,0,0-.06V8.77H390m1-1H329.36V199.15s0,0.07,0,.11v1.27h0.22c1.05,3,5.66,4.94,9.53,6.06a88,88,0,0,0,42.09,0c3.87-1.12,8.48-3.05,9.53-6.06H391l0-1V7.77h0Z"/><ellipse class="cls-6" cx="360.17" cy="8.89" rx="29.81" ry="8.89"/><path class="cls-4" d="M51.25,450.44v-2.53l2.7,0.43V441.9l-2.72-.43v-2.53L54,439.37v-0.64a3.87,3.87,0,0,1,.38-1.8,3,3,0,0,1,1-1.13,3.43,3.43,0,0,1,1.43-.53,5.73,5.73,0,0,1,1.68,0,11.54,11.54,0,0,1,2.6.66,7.89,7.89,0,0,1,1.68.91L61.84,439a12.27,12.27,0,0,0-1.13-.63,5.45,5.45,0,0,0-1.57-.45,2,2,0,0,0-1.73.3,2.21,2.21,0,0,0-.49,1.61l4.8,0.74v2.53l-4.8-.74v6.44l4.83,0.74v2.53C57.55,451.43,55.45,451.11,51.25,450.44Z"/><path class="cls-4" d="M65.41,441.91a11.17,11.17,0,0,1,2.12-.39,11.81,11.81,0,0,1,2.85.12,6.9,6.9,0,0,1,2,.59,4.14,4.14,0,0,1,1.35,1,3.74,3.74,0,0,1,.74,1.37,5.91,5.91,0,0,1,.23,1.69q0,1.17-.08,2t-0.08,1.46a10.1,10.1,0,0,0,0,1.09c0,0.21.05,0.43,0.07,0.63l1.49,0.22v2.53l-3.84-.56L72,452.05l-0.11,0a3.19,3.19,0,0,1-1.3,1,4,4,0,0,1-2.27.18,4.47,4.47,0,0,1-2.71-1.33,3.65,3.65,0,0,1-1-2.59,3.35,3.35,0,0,1,.35-1.61,2.38,2.38,0,0,1,1-1,4.23,4.23,0,0,1,1.61-.42,9.26,9.26,0,0,1,2.1.09q0.41,0.06.86,0.17l1.11,0.26a2.28,2.28,0,0,0,0-.45v-0.44a1.7,1.7,0,0,0-.5-1.33,2.76,2.76,0,0,0-1.48-.6,6.64,6.64,0,0,0-2.09,0,11.77,11.77,0,0,0-1.57.36Zm3.89,9a2.52,2.52,0,0,0,1.63-.16,2.17,2.17,0,0,0,.79-0.75v-1.38l-0.68-.2a8.27,8.27,0,0,0-1-.2,4.63,4.63,0,0,0-.86,0,2.57,2.57,0,0,0-.77.14,1.22,1.22,0,0,0-.54.37,1,1,0,0,0-.2.64,1.51,1.51,0,0,0,.37,1.06A2,2,0,0,0,69.3,450.94Z"/><path class="cls-4" d="M89.58,455a5.66,5.66,0,0,1-2.2.76,9.32,9.32,0,0,1-2.63,0A8.16,8.16,0,0,1,82.1,455a6.56,6.56,0,0,1-1.95-1.51,6.29,6.29,0,0,1-1.2-2.09,7.69,7.69,0,0,1-.41-2.54,6,6,0,0,1,.48-2.51,4.44,4.44,0,0,1,1.34-1.72,4.88,4.88,0,0,1,2-.9,7.52,7.52,0,0,1,2.54,0,10.13,10.13,0,0,1,2.4.64,12.93,12.93,0,0,1,1.72.81v4l-2.52-.35v-2.12a6.92,6.92,0,0,0-1.42-.36,4.14,4.14,0,0,0-1.27,0,2.58,2.58,0,0,0-1.92,1.42,3.26,3.26,0,0,0-.31,1.5,3.85,3.85,0,0,0,.25,1.39,3.9,3.9,0,0,0,.71,1.18,4,4,0,0,0,1.13.88,4.49,4.49,0,0,0,1.5.48,5.09,5.09,0,0,0,2.14-.07,7.34,7.34,0,0,0,1.25-.47Z"/><path class="cls-4" d="M93.48,447.69l-2.27-.31v-2.53l2.27,0.31v-2.62l3-.45v3.47l6,0.8v2.53l-6-.8v3.29a4.39,4.39,0,0,0,.66,2.65,2.66,2.66,0,0,0,1.86,1,3.83,3.83,0,0,0,1.12,0,3.75,3.75,0,0,0,.91-0.26,4.32,4.32,0,0,0,.73-0.41l0.61-.43,1.38,2.25a3.66,3.66,0,0,1-1,.71,7.11,7.11,0,0,1-1.26.5,7.25,7.25,0,0,1-1.41.26,6.58,6.58,0,0,1-1.44,0,5.68,5.68,0,0,1-3.86-2A7.45,7.45,0,0,1,93.48,451v-3.29Z"/><path class="cls-4" d="M105.37,452.5a6.66,6.66,0,0,1,.44-2.52,4.43,4.43,0,0,1,1.24-1.75,4.51,4.51,0,0,1,1.91-.94,7,7,0,0,1,2.49-.08A7.79,7.79,0,0,1,114,448a6.34,6.34,0,0,1,1.92,1.47,6.08,6.08,0,0,1,1.18,2.07,7.81,7.81,0,0,1,.4,2.53,6.68,6.68,0,0,1-.44,2.52,4.35,4.35,0,0,1-3.15,2.7,7,7,0,0,1-2.49.09,7.75,7.75,0,0,1-2.58-.77,6.35,6.35,0,0,1-1.91-1.48,6.11,6.11,0,0,1-1.18-2.07A7.82,7.82,0,0,1,105.37,452.5Zm3.07,0.4a4.83,4.83,0,0,0,.21,1.43,4,4,0,0,0,.6,1.2,3.25,3.25,0,0,0,.94.87,3.16,3.16,0,0,0,1.26.43,2.61,2.61,0,0,0,2.17-.58,3.34,3.34,0,0,0,.84-2.59,4.42,4.42,0,0,0-.78-2.66,3.1,3.1,0,0,0-2.22-1.26,3.42,3.42,0,0,0-1.19,0,2,2,0,0,0-1,.51,2.61,2.61,0,0,0-.63,1A4.7,4.7,0,0,0,108.44,452.9Z"/><path class="cls-4" d="M119.22,457.47l2.84,0.35v-6.44l-2.84-.35V448.5l5.16,0.63,0.34,1.56h0.09a5.12,5.12,0,0,1,1.47-1.09,3.39,3.39,0,0,1,1.93-.28,3,3,0,0,1,2.17,1.27,6,6,0,0,1,.79,3.47l-2.69-.32a2.49,2.49,0,0,0-.24-1.24,1,1,0,0,0-.77-0.47,2.09,2.09,0,0,0-1.48.28,3.89,3.89,0,0,0-1,.94v4.9l5,0.59v2.53c-4.32-.51-6.49-0.77-10.81-1.3v-2.53Z"/><path class="cls-4" d="M133.45,459.17l4,0.46v-6.44l-4-.46V450.2l7,0.8v9l4.25,0.47V463c-4.51-.5-6.77-0.75-11.27-1.27v-2.53Zm3.49-11.7a1.44,1.44,0,0,1,.53-1.16,1.86,1.86,0,0,1,1.47-.34,2.5,2.5,0,0,1,1.54.68,1.77,1.77,0,0,1,.57,1.28,1.32,1.32,0,0,1-.57,1.14,2.17,2.17,0,0,1-1.54.3,2.37,2.37,0,0,1-1.47-.64A1.73,1.73,0,0,1,136.94,447.47Z"/><path class="cls-4" d="M147.94,452.6a11.54,11.54,0,0,1,2.12-.48,11.88,11.88,0,0,1,2.86,0,6.73,6.73,0,0,1,2,.5,3.92,3.92,0,0,1,1.36,1,3.55,3.55,0,0,1,.75,1.34,5.79,5.79,0,0,1,.23,1.68q0,1.17-.08,2t-0.08,1.46a10,10,0,0,0,0,1.09c0,0.21.05,0.43,0.07,0.63l1.49,0.15v2.53l-3.86-.4-0.3-1.6h-0.11a3.4,3.4,0,0,1-1.3,1.09,4.1,4.1,0,0,1-2.28.28,4.29,4.29,0,0,1-2.72-1.21,3.5,3.5,0,0,1-1-2.55,3.43,3.43,0,0,1,.35-1.63,2.54,2.54,0,0,1,1-1,4.41,4.41,0,0,1,1.62-.49,9.31,9.31,0,0,1,2.11,0q0.41,0,.87.14l1.12,0.21a2.3,2.3,0,0,0,0-.46v-0.44a1.63,1.63,0,0,0-.5-1.31,2.66,2.66,0,0,0-1.48-.54,6.7,6.7,0,0,0-2.1.08,12.21,12.21,0,0,0-1.57.43Zm3.91,8.86a2.58,2.58,0,0,0,1.64-.23,2.31,2.31,0,0,0,.8-0.78v-1.38l-0.68-.18a8.14,8.14,0,0,0-1-.16,4.66,4.66,0,0,0-.86,0,2.63,2.63,0,0,0-.77.17,1.29,1.29,0,0,0-.55.39,1,1,0,0,0-.2.65,1.45,1.45,0,0,0,.37,1A1.94,1.94,0,0,0,151.85,461.46Z"/><path class="cls-4" d="M161.66,448.65l4.9,0.49v10.63a5.2,5.2,0,0,0,.44,2.5,1.72,1.72,0,0,0,1.4.83,3.77,3.77,0,0,0,1.17,0,4,4,0,0,0,.92-0.34l1.13,2.18q-0.39.22-.78,0.4a4.59,4.59,0,0,1-.83.29,5.31,5.31,0,0,1-1,.14,7.49,7.49,0,0,1-1.16,0,4.78,4.78,0,0,1-3.24-1.42,4.68,4.68,0,0,1-1.08-3.24v-9.66l-1.91-.19v-2.53Z"/><path class="cls-4" d="M183.91,471.75a11.6,11.6,0,0,1-3.13-1.29,10.44,10.44,0,0,1-2.69-2.29,11,11,0,0,1-1.87-3.3,12.52,12.52,0,0,1-.7-4.34,11.46,11.46,0,0,1,.7-4.2,8.84,8.84,0,0,1,1.87-3,8.21,8.21,0,0,1,2.69-1.85,10.61,10.61,0,0,1,3.13-.8l0.55,2.51a8.89,8.89,0,0,0-1.83.49,5.89,5.89,0,0,0-1.94,1.23,6.8,6.8,0,0,0-1.55,2.26,9.26,9.26,0,0,0,1.66,9.78,8.16,8.16,0,0,0,2,1.58,8.65,8.65,0,0,0,1.7.76Z"/><path class="cls-4" d="M189.69,464.85l3.52,0.3V455.1l-3,2.06-1.38-2,5.25-3.55,2,0.17v13.57l3.45,0.28v2.53l-9.83-.83v-2.53Z"/><path class="cls-4" d="M203.5,466l3.52,0.28V456.23l-3,2.08-1.38-1.95,5.25-3.59,2,0.16V466.5l3.45,0.26v2.53l-9.83-.76V466Z"/><path class="cls-4" d="M217.63,472a7.43,7.43,0,0,0,1.7-.49,6.52,6.52,0,0,0,2-1.26,7.16,7.16,0,0,0,1.62-2.27,8.17,8.17,0,0,0,.67-3.52,9.68,9.68,0,0,0-.63-3.72,8.48,8.48,0,0,0-1.55-2.51,7.41,7.41,0,0,0-1.95-1.54,10.35,10.35,0,0,0-1.83-.79l0.55-2.42a12.28,12.28,0,0,1,3.13,1.3A10.34,10.34,0,0,1,224,457a10.92,10.92,0,0,1,1.88,3.29,12.39,12.39,0,0,1,.7,4.31,11.58,11.58,0,0,1-.7,4.23,8.89,8.89,0,0,1-1.88,3,8.28,8.28,0,0,1-2.69,1.86,10.06,10.06,0,0,1-3.13.79Z"/><path class="cls-4" d="M369.28,474.73V472.2H372v-6.44h-2.74c0-1,0-1.52,0-2.53H372v-0.64a4.24,4.24,0,0,1,.38-1.87,3.78,3.78,0,0,1,1-1.29,4.14,4.14,0,0,1,1.44-.76,6,6,0,0,1,1.7-.25,10.78,10.78,0,0,1,2.62.24,6.65,6.65,0,0,1,1.7.64L380,461.57a10.32,10.32,0,0,0-1.14-.45,5,5,0,0,0-1.58-.19,2.26,2.26,0,0,0-1.74.58,2.51,2.51,0,0,0-.5,1.69l4.84,0v2.53l-4.84,0v6.44l4.87,0v2.53C375.63,474.7,373.52,474.71,369.28,474.73Z"/><path class="cls-4" d="M383.56,463.9a12.76,12.76,0,0,1,2.13-.74,12.23,12.23,0,0,1,2.87-.34,6.35,6.35,0,0,1,2,.26,3.34,3.34,0,0,1,1.36.79,3,3,0,0,1,.75,1.25,5.49,5.49,0,0,1,.23,1.65q0,1.17-.08,2t-0.08,1.47a9.83,9.83,0,0,0,0,1.08c0,0.21.05,0.42,0.07,0.62l1.5,0v2.53l-3.87.06-0.3-1.56h-0.11a4.06,4.06,0,0,1-1.31,1.25,4.41,4.41,0,0,1-2.29.55,3.85,3.85,0,0,1-2.73-.89,3.11,3.11,0,0,1-1-2.43,3.68,3.68,0,0,1,.35-1.67,3,3,0,0,1,1-1.16,5,5,0,0,1,1.63-.69,9.58,9.58,0,0,1,2.12-.25c0.27,0,.57,0,0.87,0l1.12,0.08a2.37,2.37,0,0,0,0-.46v-0.44a1.45,1.45,0,0,0-.5-1.25,2.43,2.43,0,0,0-1.49-.36,7,7,0,0,0-2.11.33,13.71,13.71,0,0,0-1.58.62Zm3.93,8.39a2.53,2.53,0,0,0,2.44-1.3v-1.38l-0.68-.09a7.94,7.94,0,0,0-1,0,4.78,4.78,0,0,0-.87.09,2.93,2.93,0,0,0-.78.26,1.54,1.54,0,0,0-.55.46,1.09,1.09,0,0,0-.2.67,1.29,1.29,0,0,0,.38,1A1.75,1.75,0,0,0,387.49,472.29Z"/><path class="cls-4" d="M407.92,473.07a6.8,6.8,0,0,1-2.21,1.12,9.81,9.81,0,0,1-2.65.42,7.46,7.46,0,0,1-2.66-.38,5.27,5.27,0,0,1-2-1.19,5.07,5.07,0,0,1-1.21-1.9,7.08,7.08,0,0,1-.42-2.48,6.53,6.53,0,0,1,.48-2.59,5.58,5.58,0,0,1,1.35-1.94,6,6,0,0,1,2-1.23,8,8,0,0,1,2.56-.46,9.43,9.43,0,0,1,2.42.24,11.11,11.11,0,0,1,1.73.53c0,1.62,0,2.43,0,4l-2.54.06v-2.12a6.48,6.48,0,0,0-1.43-.13,4.39,4.39,0,0,0-1.28.22A3.22,3.22,0,0,0,401,466a3.36,3.36,0,0,0-.81,1.09,3.55,3.55,0,0,0-.31,1.55,3.51,3.51,0,0,0,.25,1.35,3.07,3.07,0,0,0,1.86,1.77,4.08,4.08,0,0,0,1.51.23,5.46,5.46,0,0,0,2.16-.42,9,9,0,0,0,1.26-.67Z"/><path class="cls-4" d="M411.84,465.11l-2.28.06v-2.53l2.28-.06V460l3-.93c0,1.39,0,2.08,0,3.47l6-.18v2.53l-6,.18v3.29a3.88,3.88,0,0,0,.67,2.55,2.25,2.25,0,0,0,1.87.74,4,4,0,0,0,1.13-.18,4.41,4.41,0,0,0,.91-0.41,5.45,5.45,0,0,0,.74-0.53l0.61-.52,1.38,2a4.65,4.65,0,0,1-1,.87,8.7,8.7,0,0,1-1.27.71,8.26,8.26,0,0,1-1.42.49,6.85,6.85,0,0,1-1.45.2,4.85,4.85,0,0,1-3.89-1.33q-1.3-1.4-1.3-4.53v-3.29Z"/><path class="cls-4" d="M423.81,468a7.17,7.17,0,0,1,.44-2.59,5.44,5.44,0,0,1,3.17-3.2,7.53,7.53,0,0,1,2.5-.49,7.13,7.13,0,0,1,2.59.34,5.1,5.1,0,0,1,1.93,1.16,4.92,4.92,0,0,1,1.19,1.87,7.82,7.82,0,0,1,0,5.06,5.46,5.46,0,0,1-3.17,3.21,7.47,7.47,0,0,1-2.5.49,7.09,7.09,0,0,1-2.59-.35,5.11,5.11,0,0,1-1.93-1.17,4.94,4.94,0,0,1-1.19-1.88A7.22,7.22,0,0,1,423.81,468Zm3.09-.1a4.48,4.48,0,0,0,.21,1.4,3.29,3.29,0,0,0,.6,1.11,2.57,2.57,0,0,0,.94.71,2.84,2.84,0,0,0,1.27.22,3,3,0,0,0,2.18-.93,4.66,4.66,0,0,0,.06-5.26,2.61,2.61,0,0,0-2.24-.9,3.66,3.66,0,0,0-1.2.24,2.48,2.48,0,0,0-1,.67,3.24,3.24,0,0,0-.63,1.13A5,5,0,0,0,426.9,467.88Z"/><path class="cls-4" d="M437.74,470.7l2.86-.11v-6.44l-2.86.11c0-1,0-1.52,0-2.53l5.19-.21,0.35,1.5h0.09a6.5,6.5,0,0,1,1.48-1.33,3.78,3.78,0,0,1,1.94-.59A2.51,2.51,0,0,1,449,462a5.39,5.39,0,0,1,.79,3.34l-2.7.12a2.25,2.25,0,0,0-.24-1.2,0.81,0.81,0,0,0-.77-0.35,2.37,2.37,0,0,0-1.49.52,5,5,0,0,0-1,1.1v4.9l5-.22v2.53c-4.34.19-6.52,0.29-10.86,0.46V470.7Z"/><path class="cls-4" d="M452,470.09l4.06-.19c0-2.58,0-3.86,0-6.44l-4.06.19v-2.53l7.05-.34v9l4.26-.22c0,1,0,1.52,0,2.53-4.53.24-6.79,0.35-11.32,0.56C452,471.6,452,471.1,452,470.09Zm3.5-12.26a1.71,1.71,0,0,1,.53-1.24,2.52,2.52,0,0,1,3-.15,1.48,1.48,0,0,1,.58,1.19,1.57,1.57,0,0,1-.58,1.24,2.47,2.47,0,0,1-1.54.55,2.06,2.06,0,0,1-1.47-.4A1.46,1.46,0,0,1,455.54,457.82Z"/><path class="cls-4" d="M466.58,461.17a13.26,13.26,0,0,1,2.13-.83,12.43,12.43,0,0,1,2.87-.46,6.25,6.25,0,0,1,2,.17,3.16,3.16,0,0,1,1.36.74,2.87,2.87,0,0,1,.75,1.22,5.41,5.41,0,0,1,.23,1.64q0,1.17-.08,2t-0.08,1.48a9.79,9.79,0,0,0,0,1.08c0,0.21.05,0.42,0.07,0.62l1.5-.09v2.53l-3.87.23-0.3-1.55h-0.11a4.32,4.32,0,0,1-1.31,1.3,4.54,4.54,0,0,1-2.29.65,3.71,3.71,0,0,1-2.73-.77,3,3,0,0,1-1-2.38,3.78,3.78,0,0,1,.35-1.69,3.22,3.22,0,0,1,1-1.21,5.2,5.2,0,0,1,1.63-.76,9.73,9.73,0,0,1,2.12-.34c0.27,0,.57,0,0.87,0l1.12,0a2.4,2.4,0,0,0,0-.46V463.9a1.39,1.39,0,0,0-.5-1.23,2.36,2.36,0,0,0-1.49-.29,7.14,7.14,0,0,0-2.1.42,14.28,14.28,0,0,0-1.58.68Zm3.92,8.22a2.88,2.88,0,0,0,1.64-.49,3,3,0,0,0,.8-0.91v-1.38l-0.68-.06a7.87,7.87,0,0,0-1,0,4.85,4.85,0,0,0-.87.13,3,3,0,0,0-.77.3,1.63,1.63,0,0,0-.55.48,1.13,1.13,0,0,0-.2.68,1.24,1.24,0,0,0,.38,1A1.7,1.7,0,0,0,470.5,469.39Z"/><path class="cls-4" d="M480.33,455l4.91-.31c0,4.25,0,6.38,0,10.63a4.76,4.76,0,0,0,.44,2.43,1.44,1.44,0,0,0,1.41.6,4,4,0,0,0,1.17-.23,4.81,4.81,0,0,0,.92-0.49l1.13,2q-0.39.28-.78,0.52a5.45,5.45,0,0,1-.83.42,5.91,5.91,0,0,1-1,.29,7.74,7.74,0,0,1-1.16.16,4.13,4.13,0,0,1-3.25-.9,4,4,0,0,1-1.08-3.06c0-3.86,0-5.8,0-9.66l-1.91.12C480.33,456.51,480.33,456,480.33,455Z"/><path class="cls-4" d="M493.95,472.91c4.09-.28,6.14-0.42,10.22-0.72v2.46c-4.09.3-6.13,0.44-10.22,0.72C493.95,474.39,493.95,473.89,493.95,472.91Z"/><path class="cls-4" d="M506,453.27l4.65-.35c0,2.36,0,3.53,0,5.89h0.09a4.34,4.34,0,0,1,1.47-1.29A5.76,5.76,0,0,1,516,457a2.76,2.76,0,0,1,1.27.66,3.22,3.22,0,0,1,.83,1.37,7,7,0,0,1,.3,2.22v7.15l-3,.24c0-2.61,0-3.92,0-6.53a2.67,2.67,0,0,0-.6-2,1.94,1.94,0,0,0-1.57-.5,2.81,2.81,0,0,0-1.56.64,3.13,3.13,0,0,0-1,1.4c0,2.93,0,4.4,0,7.34l-3,.23c0-5.43,0-8.14,0-13.57l-1.66.12C506,454.78,506,454.28,506,453.27Z"/><path class="cls-4" d="M532.07,466a4.63,4.63,0,0,1-.77.61,8.26,8.26,0,0,1-1.1.59,9.33,9.33,0,0,1-3,.76,7.59,7.59,0,0,1-2.63-.19,4.6,4.6,0,0,1-3.2-2.85,6.81,6.81,0,0,1-.43-2.51,7,7,0,0,1,.48-2.7,6,6,0,0,1,1.32-2,6.19,6.19,0,0,1,2-1.3,8,8,0,0,1,2.44-.59,7.39,7.39,0,0,1,1.81.08,4.52,4.52,0,0,1,1.71.65,3.75,3.75,0,0,1,1.28,1.4,4.85,4.85,0,0,1,.5,2.35,11.25,11.25,0,0,1-.23,2.16l-8.28.71a2.51,2.51,0,0,0,.31,1.22,2.18,2.18,0,0,0,.76.76,3,3,0,0,0,1.08.38,5.29,5.29,0,0,0,1.3,0,7,7,0,0,0,2.27-.52,5.36,5.36,0,0,0,1.44-.91Zm-5-7.78a4,4,0,0,0-1.13.26,3.5,3.5,0,0,0-1,.56,3,3,0,0,0-.7.84A2.58,2.58,0,0,0,524,461l5.66-.48A2.07,2.07,0,0,0,527.1,458.26Z"/><path class="cls-4" d="M535.58,450.85l4.9-.44c0,4.25,0,6.38,0,10.63a4.69,4.69,0,0,0,.44,2.42,1.4,1.4,0,0,0,1.4.56,4,4,0,0,0,1.17-.26,5,5,0,0,0,.92-0.51l1.13,2q-0.39.29-.78,0.55a5.63,5.63,0,0,1-.83.45,6,6,0,0,1-1,.32,7.79,7.79,0,0,1-1.16.19,4,4,0,0,1-3.24-.81,3.94,3.94,0,0,1-1.08-3c0-3.86,0-5.8,0-9.66l-1.91.17v-2.53Z"/><path class="cls-4" d="M547.38,454.36l3.91-.38,0.34,1.35h0.09a4.9,4.9,0,0,1,3.86-2.08,5.28,5.28,0,0,1,1.94.14,3.32,3.32,0,0,1,1.52.89,4.34,4.34,0,0,1,1,1.69,8.28,8.28,0,0,1,.34,2.56,8.82,8.82,0,0,1-.39,2.7,6.4,6.4,0,0,1-1.13,2.13,5.56,5.56,0,0,1-1.79,1.45,6.68,6.68,0,0,1-2.41.68,9.35,9.35,0,0,1-1.4,0,3.6,3.6,0,0,1-1.15-.22V470l-3,.29c0-5.43,0-8.14,0-13.57l-1.72.16v-2.53Zm7.31,1.5a3.31,3.31,0,0,0-1.6.59,2.59,2.59,0,0,0-1,1.41v4.78a2.22,2.22,0,0,0,.93.31,5,5,0,0,0,1.23,0,3.42,3.42,0,0,0,1.2-.34,2.82,2.82,0,0,0,1-.8,3.85,3.85,0,0,0,.64-1.28,6.23,6.23,0,0,0,.23-1.79,3.13,3.13,0,0,0-.74-2.27A2.17,2.17,0,0,0,554.69,455.86Z"/><path class="cls-4" d="M573.44,462a4.77,4.77,0,0,1-.77.62,8.46,8.46,0,0,1-1.1.61,9.46,9.46,0,0,1-3,.83,7.53,7.53,0,0,1-2.63-.14,4.46,4.46,0,0,1-3.19-2.79,6.75,6.75,0,0,1-.42-2.5,7.14,7.14,0,0,1,.48-2.71,6.13,6.13,0,0,1,1.32-2,6.36,6.36,0,0,1,2-1.34,8.11,8.11,0,0,1,2.44-.64,7.36,7.36,0,0,1,1.8,0,4.42,4.42,0,0,1,1.71.61,3.63,3.63,0,0,1,1.27,1.37,4.8,4.8,0,0,1,.49,2.34,11.34,11.34,0,0,1-.23,2.16l-8.27.88a2.48,2.48,0,0,0,.31,1.21,2.11,2.11,0,0,0,.76.75,3,3,0,0,0,1.08.36,5.27,5.27,0,0,0,1.3,0,7.11,7.11,0,0,0,2.26-.56,5.51,5.51,0,0,0,1.44-.94Zm-5-7.68a4,4,0,0,0-1.13.28,3.59,3.59,0,0,0-1,.58,3,3,0,0,0-.7.86,2.63,2.63,0,0,0-.32,1.09l5.65-.6A2,2,0,0,0,568.48,454.31Z"/><path class="cls-4" d="M575.86,460.41l2.85-.31v-6.44l-2.85.31v-2.53l5.17-.57,0.34,1.48h0.09a7.2,7.2,0,0,1,1.47-1.43,4,4,0,0,1,1.93-.73,2.33,2.33,0,0,1,2.17.76,5.14,5.14,0,0,1,.79,3.29l-2.69.31a2.16,2.16,0,0,0-.24-1.18,0.75,0.75,0,0,0-.77-0.29,2.53,2.53,0,0,0-1.48.63,5.49,5.49,0,0,0-1,1.17v4.9l5-.57v2.53c-4.33.5-6.49,0.74-10.82,1.22v-2.53Z"/><path class="cls-4" d="M599.18,465.11a9.69,9.69,0,0,1-3.12-.63,7.71,7.71,0,0,1-2.68-1.73,8.33,8.33,0,0,1-1.87-2.91,11.33,11.33,0,0,1-.7-4.2,12.71,12.71,0,0,1,.7-4.35,11.64,11.64,0,0,1,1.87-3.38,11.09,11.09,0,0,1,2.68-2.41,12.91,12.91,0,0,1,3.12-1.46l0.55,2.39a10.89,10.89,0,0,0-1.82.88A7.92,7.92,0,0,0,596,449a9.06,9.06,0,0,0-1.55,2.59,9.94,9.94,0,0,0-.63,3.76,8,8,0,0,0,.67,3.48,6.67,6.67,0,0,0,1.62,2.19,6.06,6.06,0,0,0,2,1.17,7.1,7.1,0,0,0,1.7.4Z"/><path class="cls-4" d="M604.94,457l3.51-.44V446.51l-3,2.7L604,447.54l5.23-4.66,2-.26v13.57l3.44-.44v2.53l-9.79,1.25V457Z"/><path class="cls-4" d="M621.26,455.95a1.81,1.81,0,0,1,.52-1.31,2.15,2.15,0,0,1,1.3-.63,2,2,0,0,1,1.9.57,2.89,2.89,0,0,1,.64,2,4.73,4.73,0,0,1-.4,1.94,6,6,0,0,1-1,1.61,6.83,6.83,0,0,1-1.43,1.21,6.65,6.65,0,0,1-1.57.74l-0.62-1.18a7.65,7.65,0,0,0,1.11-.54,5.41,5.41,0,0,0,1-.77,4.34,4.34,0,0,0,.77-1,2.74,2.74,0,0,0,.36-1.15,3,3,0,0,1-1.17.19,1.54,1.54,0,0,1-.79-0.26,1.25,1.25,0,0,1-.45-0.58A2.21,2.21,0,0,1,621.26,455.95Z"/><path class="cls-4" d="M632.44,453.37l3.5-.49V442.82l-3,2.75-1.37-1.65,5.22-4.73,2-.29v13.57l3.43-.49v2.53l-9.78,1.39v-2.53Z"/><path class="cls-4" d="M646.18,451.4l3.5-.52V440.84l-3,2.77L645.29,442l5.22-4.77,2-.3v13.57l3.43-.52v2.53l-9.77,1.45V451.4Z"/><path class="cls-4" d="M660.23,454.2a9.24,9.24,0,0,0,1.69-.87,8.94,8.94,0,0,0,2-1.71,9.74,9.74,0,0,0,1.61-2.63,9.3,9.3,0,0,0,.66-3.67,8.68,8.68,0,0,0-.63-3.58,6.23,6.23,0,0,0-1.54-2.16,5.39,5.39,0,0,0-1.93-1.1,8.45,8.45,0,0,0-1.82-.38l0.55-2.55a10.07,10.07,0,0,1,3.11.6,7.47,7.47,0,0,1,2.67,1.68,8.12,8.12,0,0,1,1.86,2.87,11.17,11.17,0,0,1,.7,4.16,13,13,0,0,1-.7,4.39,11.93,11.93,0,0,1-1.86,3.42,11.42,11.42,0,0,1-2.67,2.46,12.35,12.35,0,0,1-3.11,1.49Z"/><path class="cls-4" d="M51.55,398.94v-2.53l2.7,0.43c0-2.58,0-3.86,0-6.44L51.53,390v-2.53l2.72,0.43v-0.64a3.87,3.87,0,0,1,.38-1.8,3,3,0,0,1,1-1.13,3.43,3.43,0,0,1,1.43-.53,5.73,5.73,0,0,1,1.68,0,11.54,11.54,0,0,1,2.6.66,7.88,7.88,0,0,1,1.68.91l-0.87,2.14a12.3,12.3,0,0,0-1.13-.63,5.45,5.45,0,0,0-1.57-.45,2,2,0,0,0-1.73.3,2.21,2.21,0,0,0-.49,1.61l4.8,0.74v2.53l-4.8-.74c0,2.58,0,3.86,0,6.44L62,398v2.53C57.85,399.93,55.75,399.6,51.55,398.94Z"/><path class="cls-4" d="M65.71,390.41a11.18,11.18,0,0,1,2.12-.39,11.81,11.81,0,0,1,2.85.12,6.9,6.9,0,0,1,2,.59,4.14,4.14,0,0,1,1.35,1,3.74,3.74,0,0,1,.74,1.37A5.91,5.91,0,0,1,75,394.8q0,1.17-.08,2c-0.05.54-.08,1-0.08,1.46a10.07,10.07,0,0,0,0,1.09c0,0.21.05,0.43,0.07,0.63l1.49,0.22v2.53l-3.84-.56-0.3-1.61-0.11,0a3.19,3.19,0,0,1-1.3,1,4,4,0,0,1-2.27.18,4.47,4.47,0,0,1-2.71-1.33,3.66,3.66,0,0,1-1-2.59,3.35,3.35,0,0,1,.35-1.61,2.39,2.39,0,0,1,1-1,4.23,4.23,0,0,1,1.61-.42,9.25,9.25,0,0,1,2.1.09q0.41,0.06.86,0.17L72,395.32a2.28,2.28,0,0,0,0-.45v-0.44a1.7,1.7,0,0,0-.5-1.33,2.76,2.76,0,0,0-1.48-.6,6.63,6.63,0,0,0-2.09,0,11.78,11.78,0,0,0-1.57.36Zm3.89,9a2.52,2.52,0,0,0,1.63-.16,2.17,2.17,0,0,0,.79-0.75v-1.38l-0.68-.2a8.28,8.28,0,0,0-1-.2,4.64,4.64,0,0,0-.86,0,2.55,2.55,0,0,0-.77.14,1.21,1.21,0,0,0-.54.37,1,1,0,0,0-.2.64,1.51,1.51,0,0,0,.37,1.06A2,2,0,0,0,69.6,399.43Z"/><path class="cls-4" d="M89.88,403.52a5.66,5.66,0,0,1-2.2.76,9.32,9.32,0,0,1-2.63,0,8.17,8.17,0,0,1-2.65-.81,6.56,6.56,0,0,1-1.95-1.51,6.31,6.31,0,0,1-1.2-2.09,7.69,7.69,0,0,1-.41-2.54,6,6,0,0,1,.48-2.51,4.43,4.43,0,0,1,1.34-1.72,4.87,4.87,0,0,1,2-.9,7.52,7.52,0,0,1,2.54,0,10.13,10.13,0,0,1,2.4.64,12.91,12.91,0,0,1,1.72.81c0,1.62,0,2.43,0,4l-2.52-.35v-2.12a6.91,6.91,0,0,0-1.42-.36,4.14,4.14,0,0,0-1.27,0,2.58,2.58,0,0,0-1.92,1.42,3.25,3.25,0,0,0-.31,1.5,3.85,3.85,0,0,0,.25,1.39A3.85,3.85,0,0,0,84,401.21a4.48,4.48,0,0,0,1.5.48,5.09,5.09,0,0,0,2.14-.07,7.32,7.32,0,0,0,1.25-.47Z"/><path class="cls-4" d="M93.78,396.19l-2.27-.31v-2.53l2.27,0.31V391l3-.45c0,1.39,0,2.08,0,3.47l6,0.8v2.53l-6-.8c0,1.32,0,2,0,3.29a4.39,4.39,0,0,0,.66,2.65,2.66,2.66,0,0,0,1.86,1,3.83,3.83,0,0,0,1.12,0,3.75,3.75,0,0,0,.91-0.26,4.33,4.33,0,0,0,.73-0.41l0.61-.43,1.38,2.25a3.67,3.67,0,0,1-1,.71,7.14,7.14,0,0,1-1.26.5,7.24,7.24,0,0,1-1.41.26,6.58,6.58,0,0,1-1.44,0,5.68,5.68,0,0,1-3.86-2,7.45,7.45,0,0,1-1.29-4.74C93.78,398.16,93.78,397.5,93.78,396.19Z"/><path class="cls-4" d="M105.67,401a6.65,6.65,0,0,1,.44-2.52,4.43,4.43,0,0,1,1.24-1.75,4.51,4.51,0,0,1,1.92-.94,7,7,0,0,1,2.49-.09,7.79,7.79,0,0,1,2.58.76,6.34,6.34,0,0,1,1.92,1.47,6.07,6.07,0,0,1,1.18,2.07,7.8,7.8,0,0,1,.4,2.53,6.68,6.68,0,0,1-.44,2.52,4.45,4.45,0,0,1-1.24,1.76,4.5,4.5,0,0,1-1.91.94,7,7,0,0,1-2.49.09,7.75,7.75,0,0,1-2.58-.77,6.35,6.35,0,0,1-1.91-1.48,6.11,6.11,0,0,1-1.18-2.07A7.82,7.82,0,0,1,105.67,401Zm3.07,0.4a4.85,4.85,0,0,0,.21,1.43,4,4,0,0,0,.6,1.2,3.25,3.25,0,0,0,.94.87,3.15,3.15,0,0,0,1.26.43,2.61,2.61,0,0,0,2.17-.58,3.34,3.34,0,0,0,.84-2.59,4.42,4.42,0,0,0-.78-2.66,3.09,3.09,0,0,0-2.23-1.26,3.42,3.42,0,0,0-1.19,0,2,2,0,0,0-1,.51,2.62,2.62,0,0,0-.63,1A4.71,4.71,0,0,0,108.74,401.39Z"/><path class="cls-4" d="M119.52,406l2.85,0.35c0-2.58,0-3.86,0-6.44l-2.85-.35V397l5.16,0.63,0.34,1.56h0.09a5.1,5.1,0,0,1,1.47-1.09,3.39,3.39,0,0,1,1.93-.28,3,3,0,0,1,2.17,1.27,6,6,0,0,1,.79,3.47l-2.69-.32a2.49,2.49,0,0,0-.24-1.24,1,1,0,0,0-.77-0.47,2.08,2.08,0,0,0-1.48.28,3.9,3.9,0,0,0-1,.94c0,2,0,2.94,0,4.9l5,0.59v2.53c-4.32-.51-6.49-0.77-10.81-1.3V406Z"/><path class="cls-4" d="M133.75,407.66l4,0.46c0-2.58,0-3.86,0-6.44l-4-.46v-2.53l7,0.8c0,3.59,0,5.38,0,9l4.25,0.47c0,1,0,1.52,0,2.53-4.51-.49-6.77-0.75-11.27-1.27C133.75,409.18,133.75,408.67,133.75,407.66Zm3.49-11.7a1.44,1.44,0,0,1,.53-1.16,1.86,1.86,0,0,1,1.47-.34,2.5,2.5,0,0,1,1.54.68,1.76,1.76,0,0,1,.57,1.28,1.32,1.32,0,0,1-.57,1.14,2.17,2.17,0,0,1-1.54.3,2.37,2.37,0,0,1-1.47-.64A1.73,1.73,0,0,1,137.24,396Z"/><path class="cls-4" d="M148.24,401.09a11.55,11.55,0,0,1,2.13-.48,11.87,11.87,0,0,1,2.86,0,6.73,6.73,0,0,1,2,.5,3.91,3.91,0,0,1,1.36,1,3.55,3.55,0,0,1,.75,1.34,5.79,5.79,0,0,1,.23,1.68q0,1.17-.08,2c-0.05.55-.08,1-0.08,1.46a10,10,0,0,0,0,1.09c0,0.21.05,0.43,0.07,0.63l1.49,0.15v2.53l-3.86-.4-0.3-1.6h-0.11a3.4,3.4,0,0,1-1.3,1.09,4.1,4.1,0,0,1-2.28.28,4.29,4.29,0,0,1-2.72-1.21,3.5,3.5,0,0,1-1-2.55,3.43,3.43,0,0,1,.35-1.63,2.55,2.55,0,0,1,1-1,4.41,4.41,0,0,1,1.62-.49,9.31,9.31,0,0,1,2.11,0q0.41,0,.87.14l1.12,0.21a2.3,2.3,0,0,0,0-.46v-0.44a1.63,1.63,0,0,0-.5-1.31,2.67,2.67,0,0,0-1.48-.54,6.7,6.7,0,0,0-2.1.08,12.22,12.22,0,0,0-1.57.43Zm3.91,8.86a2.58,2.58,0,0,0,1.64-.23,2.32,2.32,0,0,0,.8-0.78v-1.38l-0.68-.18a8.15,8.15,0,0,0-1-.16,4.66,4.66,0,0,0-.86,0,2.64,2.64,0,0,0-.77.17,1.29,1.29,0,0,0-.55.39,1,1,0,0,0-.2.65,1.45,1.45,0,0,0,.37,1A1.94,1.94,0,0,0,152.15,409.95Z"/><path class="cls-4" d="M162,397.14l4.9,0.49c0,4.25,0,6.38,0,10.63a5.19,5.19,0,0,0,.44,2.5,1.72,1.72,0,0,0,1.4.83,3.77,3.77,0,0,0,1.17,0,4,4,0,0,0,.92-0.34l1.13,2.18q-0.39.22-.78,0.4a4.56,4.56,0,0,1-.83.29,5.3,5.3,0,0,1-1,.14,7.52,7.52,0,0,1-1.16,0,4.78,4.78,0,0,1-3.24-1.42,4.68,4.68,0,0,1-1.08-3.24c0-3.86,0-5.8,0-9.66l-1.91-.19C162,398.66,162,398.15,162,397.14Z"/><path class="cls-4" d="M175.55,417.26c4.08,0.38,6.13.57,10.21,0.93v2.46c-4.09-.36-6.13-0.55-10.21-0.93v-2.46Z"/><path class="cls-4" d="M187.55,399.56l4.65,0.4c0,2.36,0,3.53,0,5.89h0.09a3.45,3.45,0,0,1,1.47-1,4.82,4.82,0,0,1,2.16-.26,5.64,5.64,0,0,1,1.61.36,3.41,3.41,0,0,1,1.27.86,4,4,0,0,1,.83,1.51,7.5,7.5,0,0,1,.3,2.27c0,2.86,0,4.29,0,7.15l-3-.25c0-2.61,0-3.92,0-6.53a3,3,0,0,0-.6-2.07,2.27,2.27,0,0,0-1.57-.75,2.44,2.44,0,0,0-1.56.39,2.5,2.5,0,0,0-1,1.24c0,2.93,0,4.4,0,7.34l-3-.26c0-5.43,0-8.14,0-13.57l-1.66-.14v-2.53Z"/><path class="cls-4" d="M213.65,416.56a3.73,3.73,0,0,1-.77.48,6.89,6.89,0,0,1-1.11.41,8.17,8.17,0,0,1-1.39.26,8.85,8.85,0,0,1-1.61,0,8.16,8.16,0,0,1-2.64-.62,5.77,5.77,0,0,1-3.2-3.37,7.37,7.37,0,0,1-.43-2.58,6.47,6.47,0,0,1,.48-2.62,4.76,4.76,0,0,1,1.32-1.79,5,5,0,0,1,2-1,7.43,7.43,0,0,1,2.44-.19,7.84,7.84,0,0,1,1.81.37,5.41,5.41,0,0,1,1.72.92,4.75,4.75,0,0,1,1.28,1.6,5.36,5.36,0,0,1,.49,2.43,10.69,10.69,0,0,1-.23,2.12l-8.29-.63a2.81,2.81,0,0,0,.31,1.27,2.74,2.74,0,0,0,.76.89,3.59,3.59,0,0,0,1.08.56,5.58,5.58,0,0,0,1.3.25,6.55,6.55,0,0,0,2.27-.15,4.38,4.38,0,0,0,1.44-.67Zm-5-8.59a3.71,3.71,0,0,0-1.13.08,2.89,2.89,0,0,0-1,.41,2.35,2.35,0,0,0-.7.73,2.27,2.27,0,0,0-.32,1l5.66,0.44A2.48,2.48,0,0,0,208.68,408Z"/><path class="cls-4" d="M217.17,401.93l4.9,0.35c0,4.25,0,6.38,0,10.63a5.11,5.11,0,0,0,.44,2.49,1.66,1.66,0,0,0,1.41.79,3.8,3.8,0,0,0,1.17-.07,4.16,4.16,0,0,0,.92-0.36l1.13,2.15q-0.39.23-.78,0.42a4.71,4.71,0,0,1-.83.31,5.39,5.39,0,0,1-1,.16,7.53,7.53,0,0,1-1.16,0,4.66,4.66,0,0,1-3.25-1.33,4.56,4.56,0,0,1-1.08-3.21c0-3.86,0-5.8,0-9.66l-1.91-.14C217.17,403.45,217.17,402.95,217.17,401.93Z"/><path class="cls-4" d="M229,407.36l3.92,0.26,0.35,1.4h0.09a4.14,4.14,0,0,1,3.87-1.46,5.7,5.7,0,0,1,1.95.45,4.14,4.14,0,0,1,1.52,1.14,5.3,5.3,0,0,1,1,1.85,8.81,8.81,0,0,1,.35,2.62,8.21,8.21,0,0,1-.39,2.63,5.22,5.22,0,0,1-1.13,1.94,4.44,4.44,0,0,1-1.8,1.15,6.11,6.11,0,0,1-2.42.29,9.71,9.71,0,0,1-1.4-.19,4.11,4.11,0,0,1-1.15-.41c0,1.89,0,2.83,0,4.71l-3-.19c0-5.43,0-8.14,0-13.57l-1.73-.11v-2.53Zm7.33,2.68a2.92,2.92,0,0,0-1.6.34,2.08,2.08,0,0,0-1,1.25c0,1.91,0,2.87,0,4.78a2.65,2.65,0,0,0,.93.46,5.3,5.3,0,0,0,1.23.23,3.13,3.13,0,0,0,1.2-.14,2.25,2.25,0,0,0,1-.64,3.15,3.15,0,0,0,.64-1.18,5.83,5.83,0,0,0,.23-1.76,3.59,3.59,0,0,0-.74-2.39A2.56,2.56,0,0,0,236.31,410Z"/><path class="cls-4" d="M255.11,419.2a3.8,3.8,0,0,1-.77.5,7,7,0,0,1-1.11.44,8.26,8.26,0,0,1-1.39.29,8.88,8.88,0,0,1-1.61,0,8.07,8.07,0,0,1-2.64-.56,5.6,5.6,0,0,1-3.2-3.3A7.29,7.29,0,0,1,244,414a6.54,6.54,0,0,1,.48-2.63,4.9,4.9,0,0,1,1.32-1.82,5.17,5.17,0,0,1,2-1,7.49,7.49,0,0,1,2.44-.24,7.76,7.76,0,0,1,1.81.33,5.29,5.29,0,0,1,1.72.89,4.6,4.6,0,0,1,1.28,1.58,5.28,5.28,0,0,1,.5,2.42,10.75,10.75,0,0,1-.23,2.13l-8.3-.46a2.77,2.77,0,0,0,.31,1.26,2.68,2.68,0,0,0,.76.87,3.51,3.51,0,0,0,1.08.53,5.53,5.53,0,0,0,1.3.22,6.6,6.6,0,0,0,2.27-.2,4.49,4.49,0,0,0,1.44-.7Zm-5-8.48a3.74,3.74,0,0,0-1.13.1,3,3,0,0,0-1,.43,2.41,2.41,0,0,0-.7.74,2.29,2.29,0,0,0-.32,1l5.67,0.32A2.42,2.42,0,0,0,250.14,410.72Z"/><path class="cls-4" d="M257.53,418l2.86,0.15c0-2.58,0-3.86,0-6.44l-2.86-.15c0-1,0-1.52,0-2.53l5.19,0.26,0.35,1.53h0.09a5.69,5.69,0,0,1,1.48-1.19,3.54,3.54,0,0,1,1.94-.41,2.76,2.76,0,0,1,2.18,1.11,5.74,5.74,0,0,1,.79,3.42l-2.7-.13a2.38,2.38,0,0,0-.24-1.22,0.9,0.9,0,0,0-.77-0.42,2.2,2.2,0,0,0-1.49.39,4.33,4.33,0,0,0-1,1v4.9l5,0.24c0,1,0,1.52,0,2.53-4.34-.2-6.51-0.31-10.86-0.54C257.53,419.54,257.53,419,257.53,418Z"/><path class="cls-4" d="M281,426.51a11.08,11.08,0,0,1-3.14-1.14,9.72,9.72,0,0,1-2.7-2.16,10.3,10.3,0,0,1-1.88-3.21,12.21,12.21,0,0,1-.7-4.31,11.71,11.71,0,0,1,.7-4.24,9.44,9.44,0,0,1,1.88-3.08,8.8,8.8,0,0,1,2.7-2,11.07,11.07,0,0,1,3.14-1l0.55,2.48a9.29,9.29,0,0,0-1.83.58,6.32,6.32,0,0,0-1.95,1.32,7.28,7.28,0,0,0-1.56,2.34,9.12,9.12,0,0,0-.63,3.65,8.69,8.69,0,0,0,.67,3.59,8.36,8.36,0,0,0,1.63,2.45,7.6,7.6,0,0,0,2,1.48,8.21,8.21,0,0,0,1.71.68Z"/><path class="cls-4" d="M286.74,419.33l3.53,0.13c0-4,0-6,0-10.05l-3,2.21-1.38-1.89,5.26-3.81,2,0.07c0,5.43,0,8.14,0,13.57l3.46,0.11c0,1,0,1.52,0,2.53l-9.85-.34v-2.53Z"/><path class="cls-4" d="M303.16,420.93a1.53,1.53,0,0,1,.52-1.23,1.85,1.85,0,0,1,1.3-.42,2.35,2.35,0,0,1,1.91.88,3.3,3.3,0,0,1,.65,2.06,4.27,4.27,0,0,1-.4,1.87,4.79,4.79,0,0,1-1,1.44,5.45,5.45,0,0,1-1.44,1,5.72,5.72,0,0,1-1.58.48l-0.62-1.28a6.54,6.54,0,0,0,1.12-.36,4.36,4.36,0,0,0,1-.6,3.43,3.43,0,0,0,.77-0.86,2.38,2.38,0,0,0,.36-1.09,3,3,0,0,1-1.18,0,1.84,1.84,0,0,1-.8-0.39,1.56,1.56,0,0,1-.45-0.66A2.38,2.38,0,0,1,303.16,420.93Z"/><path class="cls-4" d="M314.42,420.16l3.53,0.08c0-4,0-6,0-10.05l-3,2.26-1.38-1.87,5.26-3.88,2,0c0,5.43,0,8.14,0,13.57l3.46,0.07v2.53l-9.85-.2v-2.53Z"/><path class="cls-4" d="M328.26,420.43l3.53,0.05c0-4,0-6,0-10.05l-3,2.28-1.38-1.86,5.26-3.92,2,0v13.57l3.46,0v2.53l-9.85-.13C328.26,422,328.26,421.45,328.26,420.43Z"/><path class="cls-4" d="M342.42,425.51a7.87,7.87,0,0,0,1.71-.59,7.13,7.13,0,0,0,2-1.39,7.81,7.81,0,0,0,1.63-2.37,8.45,8.45,0,0,0,.67-3.56,9.36,9.36,0,0,0-.63-3.68,7.79,7.79,0,0,0-1.56-2.41,6.78,6.78,0,0,0-1.95-1.42,9.75,9.75,0,0,0-1.83-.67L343,407a11.57,11.57,0,0,1,3.14,1.11,9.44,9.44,0,0,1,2.7,2.11,10.06,10.06,0,0,1,1.88,3.17,13.33,13.33,0,0,1,0,8.54,9.67,9.67,0,0,1-1.88,3.12,9.08,9.08,0,0,1-2.7,2,10.62,10.62,0,0,1-3.14,1Z"/><path class="cls-4" d="M506.56,415.25l2.85-.21c0-2.58,0-3.86,0-6.44l-2.85.21c0-1,0-1.52,0-2.53l5.18-.39,0.35,1.49h0.09a6.84,6.84,0,0,1,1.47-1.38,3.88,3.88,0,0,1,1.93-.66,2.42,2.42,0,0,1,2.18.84,5.26,5.26,0,0,1,.79,3.32l-2.69.21a2.2,2.2,0,0,0-.24-1.19,0.78,0.78,0,0,0-.77-0.32,2.45,2.45,0,0,0-1.48.58,5.22,5.22,0,0,0-1,1.13c0,2,0,2.94,0,4.9l5-.39c0,1,0,1.52,0,2.53-4.34.35-6.5,0.51-10.84,0.84C506.56,416.77,506.56,416.27,506.56,415.25Z"/><path class="cls-4" d="M531.76,414.53a4.64,4.64,0,0,1-.77.61,8.26,8.26,0,0,1-1.1.59,9.33,9.33,0,0,1-3,.76,7.59,7.59,0,0,1-2.63-.19,4.6,4.6,0,0,1-3.2-2.85,6.81,6.81,0,0,1-.43-2.51,7,7,0,0,1,.48-2.7,6,6,0,0,1,1.32-2,6.19,6.19,0,0,1,2-1.3,8,8,0,0,1,2.44-.59,7.39,7.39,0,0,1,1.81.08,4.52,4.52,0,0,1,1.71.65,3.75,3.75,0,0,1,1.28,1.4,4.85,4.85,0,0,1,.5,2.35,11.25,11.25,0,0,1-.23,2.16l-8.28.71a2.51,2.51,0,0,0,.31,1.22,2.18,2.18,0,0,0,.76.76,3,3,0,0,0,1.08.38,5.32,5.32,0,0,0,1.3,0,7,7,0,0,0,2.27-.52,5.36,5.36,0,0,0,1.44-.91Zm-5-7.78a4,4,0,0,0-1.13.26,3.5,3.5,0,0,0-1,.56,3,3,0,0,0-.7.84,2.58,2.58,0,0,0-.32,1.08l5.66-.48A2.07,2.07,0,0,0,526.8,406.74Z"/><path class="cls-4" d="M545.84,413.36a7.39,7.39,0,0,1-2.21,1.28,10.15,10.15,0,0,1-2.64.6,7.24,7.24,0,0,1-2.66-.19,4.81,4.81,0,0,1-2-1.05,4.63,4.63,0,0,1-1.21-1.81,7.39,7.39,0,0,1,.07-5.07,6.14,6.14,0,0,1,1.35-2,6.56,6.56,0,0,1,2-1.37,8.3,8.3,0,0,1,2.55-.64,9.24,9.24,0,0,1,2.41.07,10.47,10.47,0,0,1,1.73.41v4l-2.53.24v-2.12a6.36,6.36,0,0,0-1.43,0,4.55,4.55,0,0,0-1.28.31,3.51,3.51,0,0,0-1.13.72,3.61,3.61,0,0,0-1.12,2.71,3.39,3.39,0,0,0,.25,1.33,2.78,2.78,0,0,0,1.85,1.64,4,4,0,0,0,1.51.13,5.69,5.69,0,0,0,2.15-.57,9.78,9.78,0,0,0,1.25-.76Z"/><path class="cls-4" d="M554.67,402.11l4.28-.43c0,3.2,0,4.8,0,8v1l1.75-.18c0,1,0,1.52,0,2.53l-3.63.37-0.53-1.65h-0.09a4.7,4.7,0,0,1-1.59,1.61,5.22,5.22,0,0,1-2.35.81,5.1,5.1,0,0,1-1.6-.07,2.55,2.55,0,0,1-1.23-.64,3.12,3.12,0,0,1-.78-1.35,7.5,7.5,0,0,1-.28-2.23c0-1.85,0-2.77,0-4.62l-1.31.13v-2.53l4.3-.41c0,2.61,0,3.92,0,6.53a3.31,3.31,0,0,0,.45,2,1.48,1.48,0,0,0,1.41.48,2.74,2.74,0,0,0,1.53-.66,3.12,3.12,0,0,0,1-1.34c0-2,0-2.94,0-4.9l-1.29.13v-2.53Z"/><path class="cls-4" d="M561.77,410.37l2.85-.29v-6.44l-2.85.29c0-1,0-1.52,0-2.53l5.17-.54,0.34,1.48h0.09a7.13,7.13,0,0,1,1.47-1.42,4,4,0,0,1,1.93-.71,2.35,2.35,0,0,1,2.17.78,5.17,5.17,0,0,1,.79,3.29l-2.69.29a2.17,2.17,0,0,0-.24-1.18,0.76,0.76,0,0,0-.77-0.3,2.51,2.51,0,0,0-1.48.62,5.44,5.44,0,0,0-1,1.16c0,2,0,2.94,0,4.9l5-.53v2.53c-4.33.47-6.49,0.7-10.82,1.14v-2.53Z"/><path class="cls-4" d="M585.11,415.24a9.74,9.74,0,0,1-3.12-.66,7.79,7.79,0,0,1-2.69-1.74,8.4,8.4,0,0,1-1.87-2.92,11.36,11.36,0,0,1-.7-4.2,12.66,12.66,0,0,1,.7-4.34A11.54,11.54,0,0,1,579.3,398a11,11,0,0,1,2.69-2.4,12.81,12.81,0,0,1,3.12-1.44l0.55,2.4a10.8,10.8,0,0,0-1.82.87,7.85,7.85,0,0,0-1.94,1.62,9,9,0,0,0-1.55,2.58,9.9,9.9,0,0,0-.63,3.75,8,8,0,0,0,.67,3.49,6.74,6.74,0,0,0,1.62,2.2,6.12,6.12,0,0,0,2,1.18,7.15,7.15,0,0,0,1.7.41Z"/><path class="cls-4" d="M590.87,407.16l3.51-.42c0-4,0-6,0-10.05l-3,2.68L590,397.7l5.23-4.62,2-.24c0,5.43,0,8.14,0,13.57l3.44-.42v2.53l-9.8,1.18C590.87,408.68,590.87,408.17,590.87,407.16Z"/><path class="cls-4" d="M604.64,405.49l3.51-.44c0-4,0-6,0-10.05l-3,2.7L603.74,396l5.23-4.66,2-.26c0,5.43,0,8.14,0,13.57l3.44-.44v2.53L604.64,408v-2.53Z"/><path class="cls-4" d="M621,404.44a1.81,1.81,0,0,1,.52-1.31,2.15,2.15,0,0,1,1.3-.63,2,2,0,0,1,1.9.57,2.89,2.89,0,0,1,.64,2,4.73,4.73,0,0,1-.4,1.94,6,6,0,0,1-1,1.61,6.83,6.83,0,0,1-1.43,1.21,6.65,6.65,0,0,1-1.57.74l-0.62-1.18a7.66,7.66,0,0,0,1.11-.54,5.42,5.42,0,0,0,1-.77,4.34,4.34,0,0,0,.77-1,2.74,2.74,0,0,0,.36-1.15,3,3,0,0,1-1.17.19,1.54,1.54,0,0,1-.79-0.26,1.25,1.25,0,0,1-.45-0.58A2.21,2.21,0,0,1,621,404.44Z"/><path class="cls-4" d="M632.14,401.86l3.5-.49c0-4,0-6,0-10.05l-3,2.75-1.37-1.65,5.22-4.73,2-.29c0,5.43,0,8.14,0,13.57l3.43-.49c0,1,0,1.52,0,2.53l-9.78,1.39v-2.53Z"/><path class="cls-4" d="M644.32,394.58a14.54,14.54,0,0,1,.44-3.73,8.93,8.93,0,0,1,1.23-2.79,6.32,6.32,0,0,1,1.9-1.83,6.43,6.43,0,0,1,2.46-.88,4.61,4.61,0,0,1,4.46,1.37q1.56,1.8,1.56,6.08a14.64,14.64,0,0,1-.44,3.76,9.13,9.13,0,0,1-1.23,2.81,6.26,6.26,0,0,1-1.91,1.85,6.49,6.49,0,0,1-2.47.89,4.45,4.45,0,0,1-4.46-1.49Q644.32,398.68,644.32,394.58Zm3-.44c0,0.23,0,.45,0,0.65s0,0.42,0,.63l5.54-6a2.16,2.16,0,0,0-2.56-1.59,3,3,0,0,0-2.24,1.75A10.22,10.22,0,0,0,647.3,394.15Zm6.09-.91q0-.37,0-0.7c0-.22,0-0.44,0-0.65l-5.56,6a2.2,2.2,0,0,0,2.57,1.71,3,3,0,0,0,2.25-1.74A10.25,10.25,0,0,0,653.38,393.24Z"/><path class="cls-4" d="M659.93,402.69a9.24,9.24,0,0,0,1.69-.87,8.94,8.94,0,0,0,2-1.71,9.74,9.74,0,0,0,1.61-2.63,9.3,9.3,0,0,0,.66-3.67,8.68,8.68,0,0,0-.63-3.58,6.23,6.23,0,0,0-1.54-2.16,5.4,5.4,0,0,0-1.93-1.1,8.45,8.45,0,0,0-1.82-.38l0.55-2.55a10.08,10.08,0,0,1,3.11.6,7.47,7.47,0,0,1,2.67,1.68,8.12,8.12,0,0,1,1.86,2.87,11.17,11.17,0,0,1,.7,4.16,13,13,0,0,1-.7,4.39,11.93,11.93,0,0,1-1.86,3.42,11.42,11.42,0,0,1-2.67,2.46,12.35,12.35,0,0,1-3.11,1.49Z"/><path class="cls-4" d="M51.18,344.8L54,345.24c0-2.58,0-3.86,0-6.44l-2.84-.45c0-1,0-1.52,0-2.53l5.14,0.81,0.34,1.57h0.09a4.85,4.85,0,0,1,1.46-1,3.32,3.32,0,0,1,1.92-.21,3.1,3.1,0,0,1,2.16,1.34,6.19,6.19,0,0,1,.79,3.5l-2.68-.41a2.55,2.55,0,0,0-.24-1.24,1,1,0,0,0-.77-0.5,2,2,0,0,0-1.48.23,3.69,3.69,0,0,0-.95.91c0,2,0,2.94,0,4.9l5,0.76c0,1,0,1.52,0,2.53-4.31-.66-6.46-1-10.77-1.68C51.18,346.31,51.18,345.81,51.18,344.8Z"/><path class="cls-4" d="M76.22,349.91a3.34,3.34,0,0,1-.77.43,6.44,6.44,0,0,1-1.1.33,7.8,7.8,0,0,1-1.38.16,8.75,8.75,0,0,1-1.6-.1,8.5,8.5,0,0,1-2.62-.8,6.35,6.35,0,0,1-3.18-3.59,7.66,7.66,0,0,1-.42-2.6,6.26,6.26,0,0,1,.48-2.58,4.3,4.3,0,0,1,1.32-1.7,4.6,4.6,0,0,1,2-.85,7.27,7.27,0,0,1,2.43,0,8.15,8.15,0,0,1,1.8.5,5.89,5.89,0,0,1,1.71,1,5.24,5.24,0,0,1,1.27,1.69,5.6,5.6,0,0,1,.49,2.46,10.58,10.58,0,0,1-.23,2.11l-8.24-1.21a2.94,2.94,0,0,0,.31,1.29,3,3,0,0,0,.75.94,3.89,3.89,0,0,0,1.08.63,5.77,5.77,0,0,0,1.29.34,6.43,6.43,0,0,0,2.25,0,4,4,0,0,0,1.43-.57ZM71.28,341a3.63,3.63,0,0,0-1.12,0,2.66,2.66,0,0,0-.95.34,2.11,2.11,0,0,0-.7.68,2.15,2.15,0,0,0-.32,1l5.63,0.83a2.89,2.89,0,0,0-.63-1.91A2.93,2.93,0,0,0,71.28,341Z"/><path class="cls-4" d="M90.24,352a5.66,5.66,0,0,1-2.2.76,9.32,9.32,0,0,1-2.63,0,8.16,8.16,0,0,1-2.64-.81,6.55,6.55,0,0,1-1.95-1.51,6.27,6.27,0,0,1-1.2-2.09,7.69,7.69,0,0,1-.41-2.54,6,6,0,0,1,.48-2.51A4.44,4.44,0,0,1,81,341.58a4.86,4.86,0,0,1,2-.9,7.51,7.51,0,0,1,2.54,0,10.13,10.13,0,0,1,2.41.63,12.9,12.9,0,0,1,1.72.81c0,1.62,0,2.43,0,4l-2.52-.35v-2.12a6.93,6.93,0,0,0-1.42-.36,4.15,4.15,0,0,0-1.27,0,2.58,2.58,0,0,0-1.92,1.42,3.25,3.25,0,0,0-.31,1.5,3.85,3.85,0,0,0,.25,1.39,3.85,3.85,0,0,0,1.84,2.07,4.48,4.48,0,0,0,1.5.48,5.1,5.1,0,0,0,2.14-.07,7.41,7.41,0,0,0,1.25-.47Z"/><path class="cls-4" d="M99,342.81l4.26,0.56c0,3.2,0,4.8,0,8v1l1.74,0.23c0,1,0,1.52,0,2.53l-3.62-.48-0.53-1.77H100.8a3.34,3.34,0,0,1-1.58,1.24,4.48,4.48,0,0,1-2.34.26,5.66,5.66,0,0,1-1.59-.45,3.44,3.44,0,0,1-1.23-.93,4.17,4.17,0,0,1-.78-1.53,8.24,8.24,0,0,1-.27-2.29c0-1.85,0-2.77,0-4.62l-1.31-.18c0-1,0-1.52,0-2.53L96,342.4c0,2.61,0,3.92,0,6.53a3.86,3.86,0,0,0,.45,2.08,1.88,1.88,0,0,0,1.41.81,2.3,2.3,0,0,0,2.47-1.42c0-2,0-2.94,0-4.9L99,345.34v-2.53Z"/><path class="cls-4" d="M106.12,352.71l2.84,0.37c0-2.58,0-3.86,0-6.44l-2.84-.37c0-1,0-1.52,0-2.53l5.16,0.66,0.34,1.56h0.09a5.06,5.06,0,0,1,1.47-1.08,3.37,3.37,0,0,1,1.93-.26,3,3,0,0,1,2.17,1.28,6.06,6.06,0,0,1,.79,3.48l-2.68-.33a2.5,2.5,0,0,0-.24-1.24,1,1,0,0,0-.77-0.48,2.08,2.08,0,0,0-1.48.27,3.86,3.86,0,0,0-1,.94c0,2,0,2.94,0,4.9l5,0.62c0,1,0,1.52,0,2.53-4.32-.54-6.48-0.81-10.8-1.37C106.12,354.23,106.12,353.72,106.12,352.71Z"/><path class="cls-4" d="M129.43,363a11.91,11.91,0,0,1-3.12-1.38,10.85,10.85,0,0,1-2.68-2.37,11.39,11.39,0,0,1-1.87-3.35,12.72,12.72,0,0,1-.7-4.36,11.33,11.33,0,0,1,.7-4.18,8.52,8.52,0,0,1,1.87-2.94,7.87,7.87,0,0,1,2.68-1.77,10.36,10.36,0,0,1,3.12-.71l0.55,2.53a8.7,8.7,0,0,0-1.83.44,5.68,5.68,0,0,0-1.94,1.17,6.55,6.55,0,0,0-1.55,2.22,8.81,8.81,0,0,0-.63,3.6,9.09,9.09,0,0,0,.67,3.64,9.28,9.28,0,0,0,1.62,2.57,8.5,8.5,0,0,0,2,1.64,8.89,8.89,0,0,0,1.7.81Z"/><path class="cls-4" d="M135.19,356.26l3.51,0.4c0-4,0-6,0-10.05l-3,2-1.38-2,5.23-3.41,2,0.23c0,5.43,0,8.14,0,13.57l3.45,0.38c0,1,0,1.52,0,2.53l-9.81-1.1C135.19,357.78,135.19,357.27,135.19,356.26Z"/><path class="cls-4" d="M149,357.79l3.52,0.37c0-4,0-6,0-10.05l-3,2-1.38-2,5.24-3.44,2,0.21c0,5.43,0,8.14,0,13.57l3.45,0.36c0,1,0,1.52,0,2.53l-9.81-1C149,359.31,149,358.8,149,357.79Z"/><path class="cls-4" d="M165.33,360.54a1.43,1.43,0,0,1,.52-1.19,1.74,1.74,0,0,1,1.3-.33,2.53,2.53,0,0,1,1.91,1,3.5,3.5,0,0,1,.64,2.11,4.11,4.11,0,0,1-.4,1.85,4.34,4.34,0,0,1-1,1.37,5,5,0,0,1-1.44.87,5.41,5.41,0,0,1-1.58.37l-0.62-1.33a6.16,6.16,0,0,0,1.12-.28,4,4,0,0,0,1-.53,3.07,3.07,0,0,0,.77-0.81,2.23,2.23,0,0,0,.36-1.07,2.94,2.94,0,0,1-1.17-.08,2,2,0,0,1-.79-0.45,1.72,1.72,0,0,1-.45-0.69A2.49,2.49,0,0,1,165.33,360.54Z"/><path class="cls-4" d="M176.55,360.56l3.52,0.33c0-4,0-6,0-10.05l-3,2-1.38-2,5.24-3.52,2,0.18c0,5.43,0,8.14,0,13.57l3.45,0.31c0,1,0,1.52,0,2.53l-9.82-.89C176.55,362.08,176.55,361.57,176.55,360.56Z"/><path class="cls-4" d="M188.78,356.12a13.33,13.33,0,0,1,.44-3.63,6.85,6.85,0,0,1,1.24-2.5,4.54,4.54,0,0,1,1.9-1.39,5.56,5.56,0,0,1,2.47-.31,5.85,5.85,0,0,1,4.48,2.41q1.57,2.16,1.57,6.44a13.43,13.43,0,0,1-.44,3.66,7,7,0,0,1-1.24,2.52,4.49,4.49,0,0,1-1.92,1.41,5.61,5.61,0,0,1-2.48.31,5.7,5.7,0,0,1-4.48-2.53A11.27,11.27,0,0,1,188.78,356.12Zm3,0.26c0,0.23,0,.45,0,0.66s0,0.42,0,.64l5.57-4.66a2.86,2.86,0,0,0-2.58-2.19,2.23,2.23,0,0,0-2.25,1.22A9,9,0,0,0,191.77,356.38Zm6.12,0.51q0-.37,0-0.7c0-.22,0-0.44,0-0.66l-5.59,4.66a2.92,2.92,0,0,0,2.58,2.31,2.26,2.26,0,0,0,2.26-1.21A9,9,0,0,0,197.89,356.9Z"/><path class="cls-4" d="M204.48,367.87a7.36,7.36,0,0,0,1.7-.48,6.45,6.45,0,0,0,2-1.25,7.08,7.08,0,0,0,1.62-2.26,8.14,8.14,0,0,0,.67-3.51,9.7,9.7,0,0,0-.63-3.73,8.55,8.55,0,0,0-1.55-2.52,7.48,7.48,0,0,0-1.95-1.55,10.42,10.42,0,0,0-1.83-.8l0.55-2.42a12.37,12.37,0,0,1,3.13,1.33,10.46,10.46,0,0,1,2.69,2.3,11,11,0,0,1,1.88,3.3,12.42,12.42,0,0,1,.7,4.32,11.53,11.53,0,0,1-.7,4.23,8.82,8.82,0,0,1-1.88,3,8.21,8.21,0,0,1-2.69,1.84,10,10,0,0,1-3.13.77Z"/><path class="cls-4" d="M355.49,371.64c0-1,0-1.52,0-2.53h2.72c0-2.58,0-3.86,0-6.44h-2.74c0-1,0-1.52,0-2.53h2.74V359.5a4.22,4.22,0,0,1,.38-1.86,3.76,3.76,0,0,1,1-1.29,4.12,4.12,0,0,1,1.44-.75,6,6,0,0,1,1.7-.24,10.81,10.81,0,0,1,2.62.26,6.68,6.68,0,0,1,1.69.65l-0.88,2.28a10.38,10.38,0,0,0-1.14-.46,5,5,0,0,0-1.58-.2,2.24,2.24,0,0,0-1.74.57,2.5,2.5,0,0,0-.5,1.69h4.85c0,1,0,1.52,0,2.53h-4.85c0,2.58,0,3.86,0,6.44h4.87c0,1,0,1.52,0,2.53C361.85,371.65,359.73,371.65,355.49,371.64Z"/><path class="cls-4" d="M369.77,360.9a12.65,12.65,0,0,1,2.13-.72,12.21,12.21,0,0,1,2.87-.32,6.37,6.37,0,0,1,2,.27,3.38,3.38,0,0,1,1.36.8,3.06,3.06,0,0,1,.75,1.26,5.51,5.51,0,0,1,.23,1.65q0,1.17-.08,2c-0.05.55-.08,1-0.08,1.47a10,10,0,0,0,0,1.08c0,0.21.05,0.42,0.07,0.62h1.5c0,1,0,1.52,0,2.53l-3.87,0-0.3-1.56h-0.12a4,4,0,0,1-1.31,1.24,4.39,4.39,0,0,1-2.29.53,3.87,3.87,0,0,1-2.73-.9,3.13,3.13,0,0,1-1-2.43,3.67,3.67,0,0,1,.35-1.67,3,3,0,0,1,1-1.15A4.94,4.94,0,0,1,372,365a9.55,9.55,0,0,1,2.12-.23c0.27,0,.57,0,0.87,0l1.12,0.08a2.29,2.29,0,0,0,0-.46v-0.44a1.46,1.46,0,0,0-.51-1.25,2.44,2.44,0,0,0-1.49-.37,7,7,0,0,0-2.11.31,13.55,13.55,0,0,0-1.58.61Zm3.93,8.42a2.52,2.52,0,0,0,2.44-1.28v-1.38l-0.69-.1a7.91,7.91,0,0,0-1-.05,4.76,4.76,0,0,0-.87.09,2.92,2.92,0,0,0-.78.26,1.53,1.53,0,0,0-.55.45,1.09,1.09,0,0,0-.21.67,1.3,1.3,0,0,0,.38,1A1.76,1.76,0,0,0,373.7,369.32Z"/><path class="cls-4" d="M394.14,370.25a6.75,6.75,0,0,1-2.22,1.11,9.78,9.78,0,0,1-2.65.4,7.48,7.48,0,0,1-2.66-.4,5.34,5.34,0,0,1-2-1.21,5.11,5.11,0,0,1-1.21-1.91,7.11,7.11,0,0,1-.42-2.48,6.51,6.51,0,0,1,.48-2.58,5.52,5.52,0,0,1,1.35-1.93,5.92,5.92,0,0,1,2-1.21,8,8,0,0,1,2.56-.44,9.45,9.45,0,0,1,2.42.26,11.15,11.15,0,0,1,1.73.55c0,1.62,0,2.43,0,4l-2.54,0c0-.85,0-1.27,0-2.12a6.49,6.49,0,0,0-1.43-.14,4.38,4.38,0,0,0-1.28.21,3.2,3.2,0,0,0-1.13.64,3.32,3.32,0,0,0-.81,1.08,3.88,3.88,0,0,0-.06,2.9,3.1,3.1,0,0,0,1.86,1.78,4.1,4.1,0,0,0,1.51.24,5.45,5.45,0,0,0,2.16-.4,9,9,0,0,0,1.26-.66Z"/><path class="cls-4" d="M398.06,362.31l-2.28,0v-2.53l2.28,0c0-1,0-1.57,0-2.62l3-.91c0,1.39,0,2.08,0,3.47l6-.13v2.53l-6,.13v3.29a3.9,3.9,0,0,0,.67,2.55,2.26,2.26,0,0,0,1.87.75,4,4,0,0,0,1.13-.17,4.34,4.34,0,0,0,.91-0.4,5.39,5.39,0,0,0,.74-0.52l0.61-.52,1.38,2a4.63,4.63,0,0,1-1,.86,8.52,8.52,0,0,1-1.27.7,8.18,8.18,0,0,1-1.42.48,6.82,6.82,0,0,1-1.45.19,4.88,4.88,0,0,1-3.89-1.36q-1.3-1.41-1.3-4.54C398.06,364.29,398.06,363.63,398.06,362.31Z"/><path class="cls-4" d="M410,365.27a7.17,7.17,0,0,1,.44-2.59,5.47,5.47,0,0,1,1.25-1.94,5.53,5.53,0,0,1,1.93-1.24,7.51,7.51,0,0,1,2.5-.47,7.16,7.16,0,0,1,2.6.36,5.16,5.16,0,0,1,1.93,1.17,5,5,0,0,1,1.19,1.88,7.82,7.82,0,0,1,0,5.06,5.41,5.41,0,0,1-3.17,3.19,7.45,7.45,0,0,1-2.5.47,7.11,7.11,0,0,1-2.6-.37,5.16,5.16,0,0,1-1.93-1.18,5,5,0,0,1-1.19-1.89A7.23,7.23,0,0,1,410,365.27Zm3.09-.08a4.51,4.51,0,0,0,.21,1.4,3.32,3.32,0,0,0,.6,1.11,2.6,2.6,0,0,0,.94.72,2.86,2.86,0,0,0,1.27.23,3,3,0,0,0,2.18-.91,3.8,3.8,0,0,0,.84-2.72,3.88,3.88,0,0,0-.79-2.54,2.63,2.63,0,0,0-2.24-.91,3.64,3.64,0,0,0-1.2.23,2.44,2.44,0,0,0-1,.66,3.21,3.21,0,0,0-.63,1.12A5,5,0,0,0,413.12,365.19Z"/><path class="cls-4" d="M424,368.09l2.86-.09v-6.44l-2.86.09v-2.53l5.19-.17,0.34,1.51h0.09a6.44,6.44,0,0,1,1.48-1.32,3.76,3.76,0,0,1,1.94-.58,2.52,2.52,0,0,1,2.18.93,5.41,5.41,0,0,1,.79,3.35l-2.7.1a2.26,2.26,0,0,0-.24-1.2,0.82,0.82,0,0,0-.77-0.35,2.35,2.35,0,0,0-1.49.51,4.92,4.92,0,0,0-1,1.09v4.9l5-.18v2.53c-4.34.16-6.52,0.24-10.86,0.38v-2.53Z"/><path class="cls-4" d="M438.26,367.57l4.06-.16V361l-4.06.16V358.6l7.05-.29v9l4.27-.19v2.53c-4.53.21-6.79,0.3-11.32,0.48v-2.53Zm3.5-12.24a1.7,1.7,0,0,1,.53-1.24,2.13,2.13,0,0,1,1.47-.57,2.18,2.18,0,0,1,1.54.44,1.49,1.49,0,0,1,.58,1.19,1.56,1.56,0,0,1-.58,1.23,2.46,2.46,0,0,1-1.54.54,2.07,2.07,0,0,1-1.47-.41A1.48,1.48,0,0,1,441.76,355.33Z"/><path class="cls-4" d="M452.8,358.76a13.15,13.15,0,0,1,2.13-.81,12.39,12.39,0,0,1,2.87-.44,6.27,6.27,0,0,1,2,.19,3.2,3.2,0,0,1,1.36.75,2.9,2.9,0,0,1,.75,1.23,5.42,5.42,0,0,1,.23,1.64q0,1.17-.08,2c-0.05.55-.08,1-0.08,1.48a10,10,0,0,0,0,1.08c0,0.21.05,0.42,0.07,0.62l1.5-.08c0,1,0,1.52,0,2.53l-3.87.2-0.3-1.55h-0.12a4.26,4.26,0,0,1-1.31,1.3,4.52,4.52,0,0,1-2.29.63,3.73,3.73,0,0,1-2.73-.79,3,3,0,0,1-1-2.39,3.77,3.77,0,0,1,.35-1.68,3.19,3.19,0,0,1,1-1.2,5.17,5.17,0,0,1,1.63-.74,9.69,9.69,0,0,1,2.12-.32c0.27,0,.57,0,0.87,0l1.12,0a2.33,2.33,0,0,0,0-.46v-0.44a1.4,1.4,0,0,0-.5-1.23,2.37,2.37,0,0,0-1.49-.31,7.1,7.1,0,0,0-2.1.4,14.14,14.14,0,0,0-1.58.67Zm3.92,8.25a2.86,2.86,0,0,0,1.64-.48,2.93,2.93,0,0,0,.8-0.9v-1.38l-0.69-.07a7.87,7.87,0,0,0-1,0,4.82,4.82,0,0,0-.87.12,3,3,0,0,0-.78.29,1.62,1.62,0,0,0-.55.47,1.13,1.13,0,0,0-.21.68,1.25,1.25,0,0,0,.38,1A1.71,1.71,0,0,0,456.73,367Z"/><path class="cls-4" d="M466.56,352.68l4.91-.27c0,4.25,0,6.38,0,10.63a4.77,4.77,0,0,0,.44,2.44,1.45,1.45,0,0,0,1.4.61,4,4,0,0,0,1.18-.22,4.77,4.77,0,0,0,.92-0.48l1.13,2c-0.26.18-.52,0.36-0.78,0.52a5.37,5.37,0,0,1-.83.42,5.89,5.89,0,0,1-1,.28,7.74,7.74,0,0,1-1.16.15,4.15,4.15,0,0,1-3.25-.92,4.07,4.07,0,0,1-1.08-3.07c0-3.86,0-5.8,0-9.66l-1.91.1C466.56,354.2,466.56,353.69,466.56,352.68Z"/><path class="cls-4" d="M480.18,370.69c4.09-.25,6.14-0.38,10.23-0.65,0,1,0,1.48,0,2.46-4.09.27-6.14,0.4-10.23,0.65C480.18,372.17,480.18,371.67,480.18,370.69Z"/><path class="cls-4" d="M492.2,351.13l4.65-.32c0,2.36,0,3.53,0,5.89h0.09a4.31,4.31,0,0,1,1.47-1.28,5.75,5.75,0,0,1,3.78-.48,2.79,2.79,0,0,1,1.27.67,3.26,3.26,0,0,1,.83,1.38,7,7,0,0,1,.3,2.22v7.15l-3,.22c0-2.61,0-3.92,0-6.53a2.69,2.69,0,0,0-.6-2,2,2,0,0,0-1.57-.51,2.78,2.78,0,0,0-1.57.63,3.11,3.11,0,0,0-1,1.39v7.34l-3,.21c0-5.43,0-8.14,0-13.57l-1.66.11v-2.53Z"/><path class="cls-4" d="M518.31,364.09a4.61,4.61,0,0,1-.77.6,8.19,8.19,0,0,1-1.11.58,9.28,9.28,0,0,1-3,.74,7.59,7.59,0,0,1-2.64-.21,4.64,4.64,0,0,1-3.2-2.88,6.82,6.82,0,0,1-.42-2.51,7,7,0,0,1,.48-2.69,5.89,5.89,0,0,1,1.32-2,6.11,6.11,0,0,1,2-1.29,8,8,0,0,1,2.44-.57,7.4,7.4,0,0,1,1.81.09,4.56,4.56,0,0,1,1.72.66,3.79,3.79,0,0,1,1.28,1.4,4.87,4.87,0,0,1,.5,2.35,11.3,11.3,0,0,1-.23,2.16l-8.29.65a2.52,2.52,0,0,0,.31,1.22,2.19,2.19,0,0,0,.76.77,3,3,0,0,0,1.08.39,5.3,5.3,0,0,0,1.3,0,7,7,0,0,0,2.27-.5,5.33,5.33,0,0,0,1.44-.9Zm-5-7.82a4,4,0,0,0-1.13.25,3.47,3.47,0,0,0-1,.55,2.93,2.93,0,0,0-.7.84,2.55,2.55,0,0,0-.32,1.08l5.66-.44A2.09,2.09,0,0,0,513.34,356.27Z"/><path class="cls-4" d="M521.84,348.92l4.9-.41v10.63a4.7,4.7,0,0,0,.44,2.42,1.41,1.41,0,0,0,1.4.57,4,4,0,0,0,1.17-.25,4.93,4.93,0,0,0,.92-0.51l1.13,2c-0.26.19-.52,0.37-0.78,0.54a5.56,5.56,0,0,1-.83.44,6,6,0,0,1-1,.31,7.79,7.79,0,0,1-1.16.18,4.06,4.06,0,0,1-3.24-.83,4,4,0,0,1-1.08-3v-9.66l-1.91.16v-2.53Z"/><path class="cls-4" d="M533.64,352.51l3.91-.35,0.34,1.35H538a4.87,4.87,0,0,1,3.87-2.06,5.29,5.29,0,0,1,1.94.15,3.35,3.35,0,0,1,1.52.9,4.36,4.36,0,0,1,1,1.7,8.31,8.31,0,0,1,.34,2.57,8.8,8.8,0,0,1-.39,2.69,6.36,6.36,0,0,1-1.13,2.12,5.51,5.51,0,0,1-1.79,1.43,6.65,6.65,0,0,1-2.41.66,9.4,9.4,0,0,1-1.4,0,3.62,3.62,0,0,1-1.15-.23v4.71l-3,.27V354.89l-1.72.15v-2.53Zm7.31,1.55a3.29,3.29,0,0,0-1.6.58,2.57,2.57,0,0,0-1,1.4v4.78a2.24,2.24,0,0,0,.93.32,5,5,0,0,0,1.23,0,3.41,3.41,0,0,0,1.2-.33,2.8,2.8,0,0,0,1-.79,3.82,3.82,0,0,0,.64-1.28,6.2,6.2,0,0,0,.23-1.79,3.15,3.15,0,0,0-.74-2.28A2.18,2.18,0,0,0,541,354.06Z"/><path class="cls-4" d="M559.71,360.32a4.7,4.7,0,0,1-.77.62,8.37,8.37,0,0,1-1.1.61,9.42,9.42,0,0,1-3,.81,7.54,7.54,0,0,1-2.63-.16,4.51,4.51,0,0,1-3.2-2.81,6.77,6.77,0,0,1-.43-2.5,7.11,7.11,0,0,1,.48-2.7,6.08,6.08,0,0,1,1.32-2,6.32,6.32,0,0,1,2-1.33,8.08,8.08,0,0,1,2.44-.62,7.37,7.37,0,0,1,1.8.05,4.45,4.45,0,0,1,1.71.62,3.67,3.67,0,0,1,1.28,1.38,4.82,4.82,0,0,1,.49,2.34,11.24,11.24,0,0,1-.23,2.16l-8.27.82a2.48,2.48,0,0,0,.31,1.21,2.14,2.14,0,0,0,.76.75,3,3,0,0,0,1.08.37,5.27,5.27,0,0,0,1.3,0,7.08,7.08,0,0,0,2.26-.55,5.45,5.45,0,0,0,1.44-.93Zm-5-7.71a4,4,0,0,0-1.13.28,3.55,3.55,0,0,0-1,.57,3,3,0,0,0-.7.85,2.64,2.64,0,0,0-.32,1.09l5.66-.56A2,2,0,0,0,554.75,352.61Z"/><path class="cls-4" d="M562.13,358.76l2.85-.29c0-2.58,0-3.86,0-6.44l-2.85.29V349.8l5.17-.54,0.34,1.48h0.09a7.13,7.13,0,0,1,1.47-1.42,4,4,0,0,1,1.93-.71,2.35,2.35,0,0,1,2.17.78,5.16,5.16,0,0,1,.79,3.29l-2.69.29a2.17,2.17,0,0,0-.24-1.18,0.76,0.76,0,0,0-.77-0.3,2.51,2.51,0,0,0-1.48.62,5.45,5.45,0,0,0-1,1.16v4.9l5-.53v2.53c-4.33.47-6.49,0.7-10.82,1.14v-2.53Z"/><path class="cls-4" d="M585.46,363.63a9.74,9.74,0,0,1-3.12-.66,7.79,7.79,0,0,1-2.69-1.74,8.42,8.42,0,0,1-1.87-2.92,11.36,11.36,0,0,1-.7-4.2,12.67,12.67,0,0,1,.7-4.34,11.56,11.56,0,0,1,1.87-3.37,11,11,0,0,1,2.69-2.4,12.82,12.82,0,0,1,3.12-1.44L586,345a10.78,10.78,0,0,0-1.82.87,7.83,7.83,0,0,0-1.94,1.62A9,9,0,0,0,580.7,350a9.9,9.9,0,0,0-.63,3.75,8,8,0,0,0,.66,3.49,6.74,6.74,0,0,0,1.62,2.2,6.13,6.13,0,0,0,2,1.18,7.13,7.13,0,0,0,1.7.41Z"/><path class="cls-4" d="M591.22,355.56l3.51-.42c0-4,0-6,0-10.05l-3,2.68-1.38-1.68,5.23-4.62,2-.24c0,5.43,0,8.14,0,13.57l3.44-.42v2.53l-9.8,1.18v-2.53Z"/><path class="cls-4" d="M605,353.89l3.51-.44c0-4,0-6,0-10.05l-3,2.7-1.38-1.67,5.23-4.66,2-.26c0,5.43,0,8.14,0,13.57l3.44-.44c0,1,0,1.52,0,2.53L605,356.42C605,355.4,605,354.9,605,353.89Z"/><path class="cls-4" d="M621.32,352.84a1.8,1.8,0,0,1,.52-1.31,2.15,2.15,0,0,1,1.29-.63,2,2,0,0,1,1.9.57,2.9,2.9,0,0,1,.64,2,4.74,4.74,0,0,1-.4,1.94,6,6,0,0,1-1,1.61,6.81,6.81,0,0,1-1.43,1.21,6.63,6.63,0,0,1-1.57.74l-0.62-1.18a7.67,7.67,0,0,0,1.11-.54,5.41,5.41,0,0,0,1-.77,4.32,4.32,0,0,0,.77-1,2.74,2.74,0,0,0,.35-1.15,3,3,0,0,1-1.17.19,1.54,1.54,0,0,1-.79-0.26,1.26,1.26,0,0,1-.45-0.58A2.21,2.21,0,0,1,621.32,352.84Z"/><path class="cls-4" d="M632.5,350.25l3.5-.49c0-4,0-6,0-10.05l-3,2.75-1.38-1.65,5.22-4.73,2-.29c0,5.43,0,8.14,0,13.57l3.44-.49v2.53l-9.78,1.39v-2.53Z"/><path class="cls-4" d="M644.68,343a14.56,14.56,0,0,1,.44-3.73,8.92,8.92,0,0,1,1.23-2.79,6.32,6.32,0,0,1,1.9-1.83,6.43,6.43,0,0,1,2.46-.88,4.61,4.61,0,0,1,4.46,1.37q1.56,1.8,1.56,6.08a14.65,14.65,0,0,1-.44,3.76,9.13,9.13,0,0,1-1.23,2.81,6.26,6.26,0,0,1-1.91,1.85,6.49,6.49,0,0,1-2.47.89,4.45,4.45,0,0,1-4.46-1.49Q644.68,347.07,644.68,343Zm3-.44q0,0.35,0,.65c0,0.21,0,.42,0,0.63l5.54-6a2.15,2.15,0,0,0-2.56-1.59,3,3,0,0,0-2.24,1.75A10.22,10.22,0,0,0,647.65,342.54Zm6.09-.91q0-.37,0-0.7c0-.22,0-0.44,0-0.65l-5.56,6A2.2,2.2,0,0,0,650.7,348a3,3,0,0,0,2.25-1.74A10.26,10.26,0,0,0,653.74,341.64Z"/><path class="cls-4" d="M660.28,351.08a9.19,9.19,0,0,0,1.69-.87,8.93,8.93,0,0,0,2-1.71,9.77,9.77,0,0,0,1.61-2.63,9.31,9.31,0,0,0,.66-3.67,8.68,8.68,0,0,0-.63-3.58,6.23,6.23,0,0,0-1.54-2.16,5.4,5.4,0,0,0-1.93-1.1,8.48,8.48,0,0,0-1.82-.38l0.55-2.55a10.09,10.09,0,0,1,3.11.6,7.47,7.47,0,0,1,2.67,1.68,8.13,8.13,0,0,1,1.86,2.87,11.17,11.17,0,0,1,.7,4.16,13,13,0,0,1-.7,4.39,11.91,11.91,0,0,1-1.86,3.42,11.4,11.4,0,0,1-2.67,2.46,12.37,12.37,0,0,1-3.11,1.49Z"/><path class="cls-4" d="M51.55,298.19v-2.53l2.7,0.38c0-2.58,0-3.86,0-6.44l-2.72-.39v-2.53l2.72,0.39v-0.64a3.91,3.91,0,0,1,.38-1.81,3,3,0,0,1,1-1.15,3.48,3.48,0,0,1,1.43-.55,5.72,5.72,0,0,1,1.68,0,11.43,11.43,0,0,1,2.6.62,7.74,7.74,0,0,1,1.68.89l-0.87,2.16A12.09,12.09,0,0,0,61,286a5.4,5.4,0,0,0-1.57-.42,2,2,0,0,0-1.73.32,2.24,2.24,0,0,0-.49,1.62L62,288.16v2.53L57.23,290c0,2.58,0,3.86,0,6.44l4.83,0.67v2.53C57.86,299.08,55.76,298.79,51.55,298.19Z"/><path class="cls-4" d="M65.72,289.44a11.28,11.28,0,0,1,2.12-.43,11.8,11.8,0,0,1,2.85.08,6.83,6.83,0,0,1,2,.56,4.05,4.05,0,0,1,1.35,1,3.68,3.68,0,0,1,.75,1.36A5.88,5.88,0,0,1,75,293.7q0,1.17-.08,2c-0.05.54-.08,1-0.08,1.46a10,10,0,0,0,0,1.09c0,0.21.05,0.43,0.07,0.63l1.49,0.2v2.53l-3.85-.51-0.3-1.6-0.11,0a3.26,3.26,0,0,1-1.3,1.06,4,4,0,0,1-2.28.21,4.4,4.4,0,0,1-2.71-1.29,3.6,3.6,0,0,1-1-2.57,3.38,3.38,0,0,1,.35-1.62,2.44,2.44,0,0,1,1-1,4.29,4.29,0,0,1,1.62-.45,9.25,9.25,0,0,1,2.1.06q0.41,0.05.87,0.16L72,294.27a2.29,2.29,0,0,0,0-.45v-0.44a1.68,1.68,0,0,0-.5-1.32,2.73,2.73,0,0,0-1.48-.58,6.65,6.65,0,0,0-2.09,0,11.91,11.91,0,0,0-1.57.39Zm3.9,9a2.54,2.54,0,0,0,1.63-.18,2.22,2.22,0,0,0,.79-0.76v-1.38l-0.68-.19a8.22,8.22,0,0,0-1-.19,4.64,4.64,0,0,0-.86,0,2.58,2.58,0,0,0-.77.15,1.24,1.24,0,0,0-.54.38,1,1,0,0,0-.2.64,1.49,1.49,0,0,0,.37,1.05A2,2,0,0,0,69.62,298.41Z"/><path class="cls-4" d="M89.92,302.2a5.74,5.74,0,0,1-2.2.79,9.34,9.34,0,0,1-2.64,0,8.09,8.09,0,0,1-2.65-.77,6.43,6.43,0,0,1-1.95-1.48,6.2,6.2,0,0,1-1.2-2.08,7.63,7.63,0,0,1-.41-2.54,6.06,6.06,0,0,1,.48-2.51,4.52,4.52,0,0,1,1.34-1.74,5,5,0,0,1,2-.92,7.54,7.54,0,0,1,2.54-.08,10,10,0,0,1,2.41.6,12.73,12.73,0,0,1,1.72.79v4L86.87,296v-2.12a6.86,6.86,0,0,0-1.42-.34,4.16,4.16,0,0,0-1.27,0A2.63,2.63,0,0,0,82.25,295a3.28,3.28,0,0,0-.31,1.5,3.83,3.83,0,0,0,1,2.56A3.86,3.86,0,0,0,84,300a4.43,4.43,0,0,0,1.5.45,5.11,5.11,0,0,0,2.14-.1,7.43,7.43,0,0,0,1.25-.49Z"/><path class="cls-4" d="M93.82,294.82l-2.27-.28V292l2.27,0.28v-2.62l3-.49v3.47l6,0.72v2.53l-6-.72v3.29a4.34,4.34,0,0,0,.67,2.64,2.62,2.62,0,0,0,1.86,1,3.84,3.84,0,0,0,1.12,0,3.79,3.79,0,0,0,.91-0.27,4.41,4.41,0,0,0,.73-0.42l0.61-.43,1.38,2.23a3.75,3.75,0,0,1-1,.73,7.27,7.27,0,0,1-2.67.8,6.59,6.59,0,0,1-1.45,0,5.6,5.6,0,0,1-3.86-1.91,7.37,7.37,0,0,1-1.29-4.72v-3.29Z"/><path class="cls-4" d="M105.72,299.46a6.69,6.69,0,0,1,.44-2.53,4.51,4.51,0,0,1,1.24-1.77,4.58,4.58,0,0,1,1.92-1,7.06,7.06,0,0,1,2.49-.12,7.72,7.72,0,0,1,2.58.73,6.23,6.23,0,0,1,1.92,1.45,6,6,0,0,1,1.18,2.05,7.75,7.75,0,0,1,.4,2.53,6.72,6.72,0,0,1-.44,2.53,4.42,4.42,0,0,1-3.16,2.74,7,7,0,0,1-2.49.12,7.68,7.68,0,0,1-2.58-.73,6.24,6.24,0,0,1-1.92-1.45,6,6,0,0,1-1.18-2.06A7.77,7.77,0,0,1,105.72,299.46Zm3.07,0.36a4.82,4.82,0,0,0,.21,1.43,4,4,0,0,0,.6,1.2,3.19,3.19,0,0,0,.94.86,3.12,3.12,0,0,0,1.26.41,2.64,2.64,0,0,0,2.17-.6,3.38,3.38,0,0,0,.84-2.6,4.37,4.37,0,0,0-.78-2.65,3,3,0,0,0-2.23-1.23,3.43,3.43,0,0,0-1.19.06,2,2,0,0,0-1,.52,2.66,2.66,0,0,0-.63,1A4.74,4.74,0,0,0,108.79,299.82Z"/><path class="cls-4" d="M119.58,304.26l2.85,0.31c0-2.58,0-3.86,0-6.44l-2.85-.31v-2.53l5.16,0.56,0.35,1.55h0.09a5.19,5.19,0,0,1,1.47-1.11,3.41,3.41,0,0,1,1.93-.3,2.94,2.94,0,0,1,2.17,1.24,6,6,0,0,1,.79,3.46l-2.69-.28a2.47,2.47,0,0,0-.24-1.23,1,1,0,0,0-.77-0.46,2.1,2.1,0,0,0-1.48.3,4,4,0,0,0-1,1c0,2,0,2.94,0,4.9l5,0.53c0,1,0,1.52,0,2.53-4.33-.46-6.49-0.69-10.81-1.17v-2.53Z"/><path class="cls-4" d="M133.81,305.78l4,0.42c0-2.58,0-3.86,0-6.44l-4-.42v-2.53l7,0.72c0,3.59,0,5.38,0,9l4.25,0.42c0,1,0,1.52,0,2.53-4.51-.45-6.77-0.67-11.28-1.14v-2.53ZM137.3,294a1.46,1.46,0,0,1,.53-1.16,1.88,1.88,0,0,1,1.47-.36,2.47,2.47,0,0,1,1.54.66,1.74,1.74,0,0,1,.57,1.28,1.34,1.34,0,0,1-.57,1.15,2.19,2.19,0,0,1-1.54.32,2.34,2.34,0,0,1-1.47-.62A1.71,1.71,0,0,1,137.3,294Z"/><path class="cls-4" d="M148.31,299.05a11.63,11.63,0,0,1,2.13-.51,11.87,11.87,0,0,1,2.86,0,6.69,6.69,0,0,1,2,.48,3.85,3.85,0,0,1,1.36.94,3.5,3.5,0,0,1,.75,1.33,5.77,5.77,0,0,1,.23,1.68q0,1.17-.08,2c-0.05.55-.08,1-0.08,1.46a10,10,0,0,0,0,1.09c0,0.21.05,0.43,0.07,0.63l1.49,0.14v2.53l-3.86-.36-0.3-1.59h-0.11a3.45,3.45,0,0,1-1.3,1.11,4.12,4.12,0,0,1-2.28.3,4.24,4.24,0,0,1-2.72-1.18,3.79,3.79,0,0,1-.65-4.17,2.59,2.59,0,0,1,1-1,4.45,4.45,0,0,1,1.62-.51,9.31,9.31,0,0,1,2.11,0q0.41,0,.87.13l1.12,0.2a2.31,2.31,0,0,0,0-.46v-0.44a1.61,1.61,0,0,0-.5-1.3,2.64,2.64,0,0,0-1.48-.52,6.71,6.71,0,0,0-2.1.1,12.33,12.33,0,0,0-1.57.45Zm3.91,8.82a2.59,2.59,0,0,0,1.64-.25,2.36,2.36,0,0,0,.8-0.79v-1.38l-0.68-.17a8.1,8.1,0,0,0-1-.15,4.65,4.65,0,0,0-.86,0,2.66,2.66,0,0,0-.77.18,1.31,1.31,0,0,0-.55.4,1,1,0,0,0-.2.65,1.44,1.44,0,0,0,.37,1A1.92,1.92,0,0,0,152.22,307.87Z"/><path class="cls-4" d="M162,295l4.9,0.44c0,4.25,0,6.38,0,10.63a5.17,5.17,0,0,0,.44,2.5,1.7,1.7,0,0,0,1.4.81,3.77,3.77,0,0,0,1.17,0,4.07,4.07,0,0,0,.92-0.35l1.13,2.17q-0.39.22-.78,0.4a4.61,4.61,0,0,1-.83.3,5.33,5.33,0,0,1-1,.15,7.52,7.52,0,0,1-1.16,0,4.73,4.73,0,0,1-3.24-1.39,4.64,4.64,0,0,1-1.08-3.23c0-3.86,0-5.8,0-9.66l-1.91-.17C162,296.48,162,296,162,295Z"/><path class="cls-4" d="M175.62,314.94l10.21,0.84c0,1,0,1.48,0,2.46l-10.21-.84C175.62,316.42,175.62,315.93,175.62,314.94Z"/><path class="cls-4" d="M187.62,297.13l4.65,0.36c0,2.36,0,3.53,0,5.89h0.09a3.49,3.49,0,0,1,1.47-1.06,4.83,4.83,0,0,1,2.16-.27,5.6,5.6,0,0,1,1.61.35,3.37,3.37,0,0,1,1.27.85,3.93,3.93,0,0,1,.83,1.5A7.47,7.47,0,0,1,200,307c0,2.86,0,4.29,0,7.15l-3-.22c0-2.61,0-3.92,0-6.53a3,3,0,0,0-.6-2.07,2.25,2.25,0,0,0-1.57-.74,2.46,2.46,0,0,0-1.56.4,2.53,2.53,0,0,0-1,1.24c0,2.93,0,4.4,0,7.34l-3-.23c0-5.43,0-8.14,0-13.57l-1.66-.13C187.62,298.65,187.62,298.15,187.62,297.13Z"/><path class="cls-4" d="M213.72,313.92a3.76,3.76,0,0,1-.77.49,6.94,6.94,0,0,1-1.11.42,8.15,8.15,0,0,1-1.39.27,8.81,8.81,0,0,1-1.61,0,8.11,8.11,0,0,1-2.63-.6,5.7,5.7,0,0,1-3.2-3.35,7.34,7.34,0,0,1-.43-2.57,6.5,6.5,0,0,1,.48-2.62,4.81,4.81,0,0,1,1.32-1.8,5.07,5.07,0,0,1,2-1,7.44,7.44,0,0,1,2.44-.21,7.81,7.81,0,0,1,1.81.35,5.36,5.36,0,0,1,1.72.91,4.7,4.7,0,0,1,1.28,1.59,5.34,5.34,0,0,1,.49,2.42,10.71,10.71,0,0,1-.23,2.12l-8.29-.57a2.8,2.8,0,0,0,.31,1.26,2.71,2.71,0,0,0,.76.88,3.56,3.56,0,0,0,1.08.55,5.56,5.56,0,0,0,1.3.24,6.57,6.57,0,0,0,2.27-.17,4.42,4.42,0,0,0,1.44-.68Zm-5-8.55a3.71,3.71,0,0,0-1.13.09,2.91,2.91,0,0,0-1,.41,2.37,2.37,0,0,0-.7.74,2.28,2.28,0,0,0-.32,1L211.3,308A2.46,2.46,0,0,0,208.74,305.37Z"/><path class="cls-4" d="M217.24,299.27l4.9,0.32c0,4.25,0,6.38,0,10.63a5.09,5.09,0,0,0,.44,2.49,1.65,1.65,0,0,0,1.4.78,3.8,3.8,0,0,0,1.17-.08,4.19,4.19,0,0,0,.92-0.37l1.13,2.14q-0.39.23-.78,0.42a4.74,4.74,0,0,1-.83.32,5.41,5.41,0,0,1-1,.17,7.54,7.54,0,0,1-1.16,0,4.62,4.62,0,0,1-3.25-1.31,4.54,4.54,0,0,1-1.08-3.2c0-3.86,0-5.8,0-9.66l-1.91-.12C217.24,300.79,217.24,300.28,217.24,299.27Z"/><path class="cls-4" d="M229,304.61l3.91,0.23,0.35,1.4h0.09a4.16,4.16,0,0,1,3.87-1.48,5.67,5.67,0,0,1,1.95.44,4.1,4.1,0,0,1,1.52,1.13,5.27,5.27,0,0,1,1,1.85,8.79,8.79,0,0,1,.35,2.62,8.23,8.23,0,0,1-.39,2.64,5.26,5.26,0,0,1-1.13,2,4.48,4.48,0,0,1-1.8,1.17,6.13,6.13,0,0,1-2.42.3,9.68,9.68,0,0,1-1.4-.18,4.08,4.08,0,0,1-1.15-.4c0,1.89,0,2.83,0,4.71l-3-.18c0-5.43,0-8.14,0-13.57l-1.73-.1C229,306.13,229,305.62,229,304.61Zm7.32,2.63a2.93,2.93,0,0,0-1.6.35,2.09,2.09,0,0,0-1,1.25c0,1.91,0,2.87,0,4.78a2.63,2.63,0,0,0,.93.46,5.28,5.28,0,0,0,1.23.22,3.13,3.13,0,0,0,1.2-.15,2.27,2.27,0,0,0,1-.65,3.18,3.18,0,0,0,.64-1.18,5.85,5.85,0,0,0,.23-1.76,3.57,3.57,0,0,0-.74-2.39A2.54,2.54,0,0,0,236.37,307.25Z"/><path class="cls-4" d="M255.17,316.3a3.83,3.83,0,0,1-.77.5,7.09,7.09,0,0,1-1.11.44,8.29,8.29,0,0,1-1.39.3,8.89,8.89,0,0,1-1.61.06,8,8,0,0,1-2.64-.55,5.55,5.55,0,0,1-3.2-3.28,7.27,7.27,0,0,1-.43-2.56,6.56,6.56,0,0,1,.48-2.63,4.94,4.94,0,0,1,1.32-1.83,5.2,5.2,0,0,1,2-1,7.5,7.5,0,0,1,2.44-.26,7.73,7.73,0,0,1,1.81.32,5.25,5.25,0,0,1,1.72.88,4.57,4.57,0,0,1,1.28,1.57,5.26,5.26,0,0,1,.5,2.42,10.77,10.77,0,0,1-.23,2.13l-8.29-.41a2.76,2.76,0,0,0,.31,1.26,2.66,2.66,0,0,0,.76.87,3.48,3.48,0,0,0,1.08.53,5.51,5.51,0,0,0,1.3.22,6.61,6.61,0,0,0,2.27-.21,4.52,4.52,0,0,0,1.44-.71Zm-5-8.46a3.74,3.74,0,0,0-1.13.11,3,3,0,0,0-1,.43,2.43,2.43,0,0,0-.7.75,2.31,2.31,0,0,0-.32,1l5.67,0.29A2.41,2.41,0,0,0,250.19,307.85Z"/><path class="cls-4" d="M257.59,315.11l2.86,0.13c0-2.58,0-3.86,0-6.44l-2.86-.13c0-1,0-1.52,0-2.53l5.18,0.24,0.35,1.53h0.09a5.72,5.72,0,0,1,1.48-1.2,3.54,3.54,0,0,1,1.94-.42,2.75,2.75,0,0,1,2.18,1.1,5.72,5.72,0,0,1,.79,3.41l-2.7-.11a2.37,2.37,0,0,0-.24-1.22,0.89,0.89,0,0,0-.77-0.41,2.21,2.21,0,0,0-1.49.4,4.36,4.36,0,0,0-1,1c0,2,0,2.94,0,4.9l5,0.22c0,1,0,1.52,0,2.53-4.34-.18-6.51-0.28-10.85-0.48v-2.53Z"/><path class="cls-4" d="M281,323.49a11,11,0,0,1-3.13-1.13,9.66,9.66,0,0,1-2.7-2.15,10.25,10.25,0,0,1-1.88-3.2,12.19,12.19,0,0,1-.7-4.31,11.74,11.74,0,0,1,.7-4.24,9.49,9.49,0,0,1,1.88-3.09,8.85,8.85,0,0,1,2.7-2,11.09,11.09,0,0,1,3.13-1l0.55,2.48a9.32,9.32,0,0,0-1.83.59,6.35,6.35,0,0,0-1.95,1.33,7.32,7.32,0,0,0-1.56,2.35,9.15,9.15,0,0,0-.63,3.66,8.67,8.67,0,0,0,.67,3.59,8.3,8.3,0,0,0,1.63,2.44,7.56,7.56,0,0,0,2,1.48,8.18,8.18,0,0,0,1.7.67Z"/><path class="cls-4" d="M286.78,316.28l3.53,0.12c0-4,0-6,0-10.05l-3,2.22-1.38-1.89,5.26-3.83,2,0.06c0,5.43,0,8.14,0,13.57l3.46,0.1v2.53l-9.84-.31v-2.53Z"/><path class="cls-4" d="M300.61,316.7l3.53,0.09c0-4,0-6,0-10.05l-3,2.24-1.38-1.88,5.26-3.86,2,0.05c0,5.43,0,8.14,0,13.57l3.46,0.08c0,1,0,1.52,0,2.53l-9.84-.25V316.7Z"/><path class="cls-4" d="M317,318.14a1.55,1.55,0,0,1,.52-1.23,1.86,1.86,0,0,1,1.3-.43,2.32,2.32,0,0,1,1.91.86,3.28,3.28,0,0,1,.65,2.06,4.3,4.3,0,0,1-.4,1.88,4.85,4.85,0,0,1-1,1.45,5.52,5.52,0,0,1-1.44,1,5.76,5.76,0,0,1-1.58.5l-0.62-1.28a6.58,6.58,0,0,0,1.12-.37,4.41,4.41,0,0,0,1-.61,3.47,3.47,0,0,0,.77-0.87,2.4,2.4,0,0,0,.36-1.1,2.94,2.94,0,0,1-1.18,0,1.82,1.82,0,0,1-.79-0.38,1.55,1.55,0,0,1-.45-0.65A2.37,2.37,0,0,1,317,318.14Z"/><path class="cls-4" d="M328.28,317.28l3.53,0c0-4,0-6,0-10.05l-3,2.28-1.38-1.86,5.26-3.93,2,0c0,5.43,0,8.14,0,13.57l3.46,0c0,1,0,1.52,0,2.53l-9.84-.12v-2.53Z"/><path class="cls-4" d="M340.54,311.88a13.67,13.67,0,0,1,.44-3.66,7.48,7.48,0,0,1,1.24-2.6,5.07,5.07,0,0,1,1.91-1.54,5.78,5.78,0,0,1,2.48-.5,5.38,5.38,0,0,1,4.49,2.06q1.57,2,1.57,6.32a13.77,13.77,0,0,1-.44,3.69,7.65,7.65,0,0,1-1.24,2.62,5,5,0,0,1-1.92,1.56,5.85,5.85,0,0,1-2.49.5,5.23,5.23,0,0,1-4.49-2.18A10.66,10.66,0,0,1,340.54,311.88Zm3,0c0,0.23,0,.45,0,0.66s0,0.42,0,.63l5.58-5.09a2.6,2.6,0,0,0-2.58-2,2.45,2.45,0,0,0-2.25,1.4A9.35,9.35,0,0,0,343.54,311.9Zm6.13,0q0-.37,0-0.7c0-.22,0-0.44,0-0.66l-5.6,5.09a2.65,2.65,0,0,0,2.58,2.11,2.47,2.47,0,0,0,2.26-1.39A9.37,9.37,0,0,0,349.67,311.94Z"/><path class="cls-4" d="M356.27,322.41a7.91,7.91,0,0,0,1.71-.61,7.2,7.2,0,0,0,2-1.4,7.88,7.88,0,0,0,1.63-2.38,8.49,8.49,0,0,0,.67-3.57,9.33,9.33,0,0,0-.63-3.68,7.71,7.71,0,0,0-1.56-2.4,6.71,6.71,0,0,0-1.95-1.4,9.66,9.66,0,0,0-1.83-.66l0.55-2.46a11.47,11.47,0,0,1,3.14,1.08,9.34,9.34,0,0,1,2.7,2.09,10,10,0,0,1,1.88,3.16,13.34,13.34,0,0,1,0,8.55,9.75,9.75,0,0,1-1.88,3.13,9.17,9.17,0,0,1-2.7,2,10.68,10.68,0,0,1-3.14,1Z"/><path class="cls-4" d="M506.5,312.62l2.85-.19c0-2.58,0-3.86,0-6.44l-2.85.19c0-1,0-1.52,0-2.53l5.18-.35,0.34,1.49h0.09a6.76,6.76,0,0,1,1.47-1.37,3.85,3.85,0,0,1,1.93-.64,2.43,2.43,0,0,1,2.18.86,5.29,5.29,0,0,1,.79,3.32l-2.69.19a2.21,2.21,0,0,0-.24-1.19,0.79,0.79,0,0,0-.77-0.33,2.43,2.43,0,0,0-1.48.56,5.16,5.16,0,0,0-1,1.13c0,2,0,2.94,0,4.9l5-.35c0,1,0,1.52,0,2.53-4.34.31-6.5,0.46-10.84,0.75C506.5,314.14,506.5,313.63,506.5,312.62Z"/><path class="cls-4" d="M531.69,312.1a4.58,4.58,0,0,1-.77.6,8.17,8.17,0,0,1-1.1.58,9.28,9.28,0,0,1-3,.74,7.6,7.6,0,0,1-2.63-.21,4.65,4.65,0,0,1-3.2-2.88,6.84,6.84,0,0,1-.43-2.51,7,7,0,0,1,.48-2.69,5.89,5.89,0,0,1,1.32-2,6.11,6.11,0,0,1,2-1.29,8,8,0,0,1,2.44-.56,7.39,7.39,0,0,1,1.81.09,4.56,4.56,0,0,1,1.71.66,3.8,3.8,0,0,1,1.28,1.41,4.88,4.88,0,0,1,.5,2.35,11.22,11.22,0,0,1-.23,2.16l-8.28.64a2.52,2.52,0,0,0,.31,1.22,2.21,2.21,0,0,0,.76.77,3,3,0,0,0,1.08.39,5.29,5.29,0,0,0,1.3.05,7,7,0,0,0,2.27-.5,5.3,5.3,0,0,0,1.44-.89Zm-5-7.83a4,4,0,0,0-1.13.25,3.46,3.46,0,0,0-1,.55,2.92,2.92,0,0,0-.7.84,2.56,2.56,0,0,0-.32,1.08l5.66-.43A2.09,2.09,0,0,0,526.73,304.27Z"/><path class="cls-4" d="M545.77,311.06a7.3,7.3,0,0,1-2.21,1.26,10.09,10.09,0,0,1-2.64.58,7.26,7.26,0,0,1-2.66-.22,4.86,4.86,0,0,1-2-1.07,4.68,4.68,0,0,1-1.21-1.82,6.88,6.88,0,0,1-.41-2.45,6.77,6.77,0,0,1,.48-2.61,6.07,6.07,0,0,1,1.35-2,6.47,6.47,0,0,1,2-1.35,8.24,8.24,0,0,1,2.55-.61,9.24,9.24,0,0,1,2.41.1,10.55,10.55,0,0,1,1.73.43v4l-2.53.21v-2.12a6.36,6.36,0,0,0-1.43,0,4.52,4.52,0,0,0-1.28.3,3.47,3.47,0,0,0-1.13.71,3.57,3.57,0,0,0-1.12,2.7,3.4,3.4,0,0,0,.25,1.34,2.81,2.81,0,0,0,1.85,1.65,4,4,0,0,0,1.51.14,5.65,5.65,0,0,0,2.15-.55,9.65,9.65,0,0,0,1.25-.75Z"/><path class="cls-4" d="M554.6,299.9l4.28-.39c0,3.2,0,4.8,0,8v1l1.75-.16v2.53l-3.63.33-0.53-1.65h-0.09a4.63,4.63,0,0,1-1.59,1.59,5.18,5.18,0,0,1-2.35.78,5.11,5.11,0,0,1-1.6-.09,2.58,2.58,0,0,1-1.23-.65,3.16,3.16,0,0,1-.78-1.36,7.53,7.53,0,0,1-.28-2.23c0-1.85,0-2.77,0-4.62l-1.31.11v-2.53l4.3-.37c0,2.61,0,3.92,0,6.53a3.33,3.33,0,0,0,.45,2,1.49,1.49,0,0,0,1.41.5,2.71,2.71,0,0,0,1.53-.64,3.08,3.08,0,0,0,1-1.33c0-2,0-2.94,0-4.9l-1.29.12V299.9Z"/><path class="cls-4" d="M561.7,308.22l2.85-.27c0-2.58,0-3.86,0-6.44l-2.85.27v-2.53l5.17-.48,0.34,1.48h0.09a7,7,0,0,1,1.47-1.4,3.93,3.93,0,0,1,1.93-.69,2.37,2.37,0,0,1,2.17.8,5.21,5.21,0,0,1,.79,3.3l-2.69.26a2.18,2.18,0,0,0-.24-1.18A0.77,0.77,0,0,0,570,301a2.48,2.48,0,0,0-1.48.6,5.35,5.35,0,0,0-1,1.15c0,2,0,2.94,0,4.9l5-.48v2.53c-4.33.42-6.49,0.63-10.82,1v-2.53Z"/><path class="cls-4" d="M585,313.34a9.82,9.82,0,0,1-3.12-.69,7.91,7.91,0,0,1-2.69-1.78,8.53,8.53,0,0,1-1.87-2.94,11.42,11.42,0,0,1-.7-4.21,12.59,12.59,0,0,1,.7-4.34,11.38,11.38,0,0,1,1.87-3.35,10.8,10.8,0,0,1,2.69-2.37,12.64,12.64,0,0,1,3.12-1.4l0.55,2.4a10.67,10.67,0,0,0-1.83.84,7.72,7.72,0,0,0-1.94,1.6,8.84,8.84,0,0,0-1.55,2.56,9.85,9.85,0,0,0-.63,3.74,8.05,8.05,0,0,0,.67,3.5,6.84,6.84,0,0,0,1.62,2.22,6.22,6.22,0,0,0,2,1.2,7.21,7.21,0,0,0,1.7.43Z"/><path class="cls-4" d="M590.81,305.34l3.51-.37c0-4,0-6,0-10.05l-3,2.65-1.38-1.69,5.23-4.56,2-.22c0,5.43,0,8.14,0,13.57l3.44-.38c0,1,0,1.52,0,2.53l-9.8,1.06C590.81,306.85,590.81,306.35,590.81,305.34Z"/><path class="cls-4" d="M604.58,303.83l3.51-.4c0-4,0-6,0-10.05l-3,2.67-1.38-1.69,5.23-4.59,2-.23c0,5.43,0,8.14,0,13.57l3.44-.4c0,1,0,1.52,0,2.53l-9.8,1.12C604.58,305.35,604.58,304.85,604.58,303.83Z"/><path class="cls-4" d="M616.79,296.88a14.37,14.37,0,0,1,.44-3.72,8.65,8.65,0,0,1,1.23-2.76,6.08,6.08,0,0,1,1.9-1.78,6.29,6.29,0,0,1,2.46-.81,4.73,4.73,0,0,1,4.47,1.49q1.56,1.84,1.56,6.12a14.47,14.47,0,0,1-.44,3.75,8.85,8.85,0,0,1-1.23,2.77,6,6,0,0,1-1.91,1.8,6.35,6.35,0,0,1-2.47.82,4.57,4.57,0,0,1-4.47-1.62Q616.79,301,616.79,296.88Zm3-.35c0,0.23,0,.45,0,0.65s0,0.42,0,.63l5.55-5.8a2.23,2.23,0,0,0-2.57-1.67,2.85,2.85,0,0,0-2.24,1.68A10.06,10.06,0,0,0,619.77,296.53Zm6.1-.74q0-.37,0-0.7c0-.22,0-0.44,0-0.65l-5.57,5.8a2.27,2.27,0,0,0,2.57,1.78,2.88,2.88,0,0,0,2.25-1.68A10.08,10.08,0,0,0,625.87,295.79Z"/><path class="cls-4" d="M634.67,301.3a1.79,1.79,0,0,1,.52-1.31,2.14,2.14,0,0,1,1.3-.62,2,2,0,0,1,1.9.59,2.91,2.91,0,0,1,.64,2,4.71,4.71,0,0,1-.4,1.94,5.94,5.94,0,0,1-1,1.61,6.76,6.76,0,0,1-1.43,1.2,6.6,6.6,0,0,1-1.57.73L634,306.2a7.59,7.59,0,0,0,1.11-.53,5.36,5.36,0,0,0,1-.76,4.29,4.29,0,0,0,.77-1,2.73,2.73,0,0,0,.36-1.15A3,3,0,0,1,636,303a1.55,1.55,0,0,1-.79-0.27,1.26,1.26,0,0,1-.45-0.59A2.22,2.22,0,0,1,634.67,301.3Z"/><path class="cls-4" d="M644.66,290.42a6.1,6.1,0,0,1,.4-2.21,5.81,5.81,0,0,1,1.12-1.84,6.27,6.27,0,0,1,1.74-1.33,6.78,6.78,0,0,1,2.28-.71,6.43,6.43,0,0,1,2.34.08,4.11,4.11,0,0,1,1.81.92,4.34,4.34,0,0,1,1.17,1.75,7.17,7.17,0,0,1,.41,2.56,14.61,14.61,0,0,1-.69,4.69,11.29,11.29,0,0,1-1.84,3.47,9.69,9.69,0,0,1-2.69,2.34,11.93,11.93,0,0,1-3.21,1.3l-0.64-2.26a8.93,8.93,0,0,0,2.28-.92,8.28,8.28,0,0,0,1.78-1.38,7.2,7.2,0,0,0,1.24-1.71,5.9,5.9,0,0,0,.62-1.93,4.13,4.13,0,0,1-1.24.94,5.54,5.54,0,0,1-1.81.53h0a5.31,5.31,0,0,1-1.76-.06,4.08,4.08,0,0,1-1.61-.71,4,4,0,0,1-1.18-1.4A4.49,4.49,0,0,1,644.66,290.42Zm2.89-.54a2.37,2.37,0,0,0,.24,1.11,2.08,2.08,0,0,0,.63.74,2.29,2.29,0,0,0,.91.39,3.22,3.22,0,0,0,1.06,0,4.45,4.45,0,0,0,1.63-.52,2.9,2.9,0,0,0,1-.87,6.75,6.75,0,0,0,.07-0.93,4.22,4.22,0,0,0-.18-1.24,2.9,2.9,0,0,0-.55-1,2.25,2.25,0,0,0-.92-0.65,2.52,2.52,0,0,0-1.26-.12A3,3,0,0,0,647.55,289.88Z"/><path class="cls-4" d="M659.92,301.81a9.08,9.08,0,0,0,1.69-.84,8.74,8.74,0,0,0,2-1.68,9.53,9.53,0,0,0,1.61-2.61,9.21,9.21,0,0,0,.66-3.66,8.74,8.74,0,0,0-.63-3.59,6.37,6.37,0,0,0-1.55-2.19,5.51,5.51,0,0,0-1.93-1.13,8.55,8.55,0,0,0-1.82-.4l0.55-2.54a10.19,10.19,0,0,1,3.11.65,7.64,7.64,0,0,1,2.68,1.72,8.3,8.3,0,0,1,1.87,2.9,11.24,11.24,0,0,1,.7,4.17,12.87,12.87,0,0,1-.7,4.38,11.69,11.69,0,0,1-1.87,3.39,11.17,11.17,0,0,1-2.68,2.42,12.16,12.16,0,0,1-3.11,1.45Z"/><path class="cls-4" d="M51.2,243.92L54,244.36v-6.44l-2.83-.45v-2.53l5.14,0.81,0.34,1.57h0.09a4.85,4.85,0,0,1,1.46-1,3.32,3.32,0,0,1,1.92-.21,3.1,3.1,0,0,1,2.16,1.34,6.19,6.19,0,0,1,.79,3.5l-2.68-.41a2.55,2.55,0,0,0-.24-1.24,1,1,0,0,0-.77-0.5A2,2,0,0,0,58,239a3.69,3.69,0,0,0-.95.91v4.9l5,0.76v2.53c-4.31-.66-6.46-1-10.77-1.68v-2.53Z"/><path class="cls-4" d="M76.25,249a3.34,3.34,0,0,1-.77.43,6.41,6.41,0,0,1-1.1.33A7.79,7.79,0,0,1,73,250a8.75,8.75,0,0,1-1.6-.1,8.51,8.51,0,0,1-2.62-.8,6.35,6.35,0,0,1-3.18-3.59,7.66,7.66,0,0,1-.42-2.6,6.27,6.27,0,0,1,.48-2.58,4.3,4.3,0,0,1,1.32-1.7,4.6,4.6,0,0,1,2-.85,7.28,7.28,0,0,1,2.43,0,8.14,8.14,0,0,1,1.8.5,5.88,5.88,0,0,1,1.71,1,5.24,5.24,0,0,1,1.27,1.69,5.61,5.61,0,0,1,.49,2.46,10.51,10.51,0,0,1-.23,2.11l-8.24-1.21a3,3,0,0,0,.31,1.29,3,3,0,0,0,.75.94,3.89,3.89,0,0,0,1.08.63,5.77,5.77,0,0,0,1.29.34,6.43,6.43,0,0,0,2.25,0,4,4,0,0,0,1.43-.57Zm-4.94-8.94a3.63,3.63,0,0,0-1.12,0,2.66,2.66,0,0,0-.95.34,2.11,2.11,0,0,0-.7.68,2.15,2.15,0,0,0-.32,1L73.84,243a2.89,2.89,0,0,0-.63-1.91A2.93,2.93,0,0,0,71.3,240.09Z"/><path class="cls-4" d="M90.26,251.13a5.66,5.66,0,0,1-2.2.76,9.32,9.32,0,0,1-2.63,0,8.16,8.16,0,0,1-2.65-.81,6.55,6.55,0,0,1-1.95-1.51,6.29,6.29,0,0,1-1.2-2.09,7.69,7.69,0,0,1-.41-2.54,6,6,0,0,1,.48-2.51A4.44,4.44,0,0,1,81,240.7a4.87,4.87,0,0,1,2-.9,7.51,7.51,0,0,1,2.54,0,10.13,10.13,0,0,1,2.4.63,12.92,12.92,0,0,1,1.72.81v4l-2.52-.35V242.8a6.91,6.91,0,0,0-1.42-.36,4.15,4.15,0,0,0-1.27,0,2.58,2.58,0,0,0-1.92,1.42,3.26,3.26,0,0,0-.31,1.5,3.85,3.85,0,0,0,.25,1.39,3.9,3.9,0,0,0,.71,1.18,4,4,0,0,0,1.13.88,4.49,4.49,0,0,0,1.5.48,5.09,5.09,0,0,0,2.14-.07,7.34,7.34,0,0,0,1.25-.47Z"/><path class="cls-4" d="M99.06,241.93l4.26,0.56c0,3.2,0,4.8,0,8v1l1.74,0.23v2.53l-3.62-.48L100.91,252h-0.09a3.34,3.34,0,0,1-1.58,1.24,4.48,4.48,0,0,1-2.34.26,5.65,5.65,0,0,1-1.59-.45,3.44,3.44,0,0,1-1.23-.93,4.17,4.17,0,0,1-.78-1.53,8.22,8.22,0,0,1-.27-2.29v-4.62l-1.31-.18v-2.53L96,241.52c0,2.61,0,3.92,0,6.53a3.86,3.86,0,0,0,.45,2.08,1.88,1.88,0,0,0,1.41.81,2.3,2.3,0,0,0,2.48-1.42v-4.9l-1.28-.17v-2.53Z"/><path class="cls-4" d="M106.14,251.83L109,252.2v-6.44l-2.84-.37v-2.53l5.16,0.66,0.34,1.56h0.09A5.06,5.06,0,0,1,113.2,244a3.37,3.37,0,0,1,1.93-.26A3,3,0,0,1,117.3,245a6.06,6.06,0,0,1,.79,3.48l-2.68-.33a2.5,2.5,0,0,0-.24-1.24,1,1,0,0,0-.77-0.48,2.08,2.08,0,0,0-1.48.27,3.86,3.86,0,0,0-1,.94c0,2,0,2.94,0,4.9l5,0.62v2.53c-4.32-.54-6.48-0.81-10.8-1.37v-2.53Z"/><path class="cls-4" d="M129.45,262.12a11.91,11.91,0,0,1-3.12-1.38,10.86,10.86,0,0,1-2.68-2.37,11.38,11.38,0,0,1-1.87-3.35,12.72,12.72,0,0,1-.7-4.36,11.33,11.33,0,0,1,.7-4.18,8.52,8.52,0,0,1,1.87-2.94,7.87,7.87,0,0,1,2.68-1.77,10.36,10.36,0,0,1,3.12-.71l0.55,2.53a8.69,8.69,0,0,0-1.82.44,5.66,5.66,0,0,0-1.94,1.17,6.54,6.54,0,0,0-1.55,2.22,8.8,8.8,0,0,0-.63,3.6,9.08,9.08,0,0,0,.67,3.64,9.26,9.26,0,0,0,1.62,2.57,8.48,8.48,0,0,0,2,1.64,8.9,8.9,0,0,0,1.7.81Z"/><path class="cls-4" d="M135.21,255.38l3.51,0.4c0-4,0-6,0-10.05l-3,2-1.38-2,5.24-3.41,2,0.23c0,5.43,0,8.14,0,13.57l3.44,0.38V259l-9.81-1.1C135.21,256.9,135.21,256.39,135.21,255.38Z"/><path class="cls-4" d="M149,256.91l3.51,0.37c0-4,0-6,0-10.05l-3,2-1.38-2,5.24-3.44,2,0.21c0,5.43,0,8.14,0,13.57l3.45,0.36v2.53l-9.81-1v-2.53Z"/><path class="cls-4" d="M161.21,252.64a13.25,13.25,0,0,1,.44-3.62,6.72,6.72,0,0,1,1.23-2.49,4.44,4.44,0,0,1,1.9-1.36,5.52,5.52,0,0,1,2.47-.27,5.94,5.94,0,0,1,4.48,2.47q1.57,2.19,1.57,6.46a13.37,13.37,0,0,1-.44,3.65,6.87,6.87,0,0,1-1.23,2.5,4.4,4.4,0,0,1-1.92,1.38,5.57,5.57,0,0,1-2.48.28,5.79,5.79,0,0,1-4.48-2.59A11.4,11.4,0,0,1,161.21,252.64Zm3,0.3q0,0.35,0,.66t0,0.64l5.56-4.58a2.91,2.91,0,0,0-2.58-2.23,2.19,2.19,0,0,0-2.25,1.19A8.92,8.92,0,0,0,164.2,252.94Zm6.12,0.6q0-.37,0-0.7c0-.22,0-0.44,0-0.66l-5.59,4.58a3,3,0,0,0,2.58,2.35,2.22,2.22,0,0,0,2.26-1.18A8.93,8.93,0,0,0,170.32,253.54Z"/><path class="cls-4" d="M179.15,261a1.44,1.44,0,0,1,.52-1.19,1.75,1.75,0,0,1,1.3-.34,2.51,2.51,0,0,1,1.91,1,3.49,3.49,0,0,1,.64,2.1,4.13,4.13,0,0,1-.4,1.85,4.39,4.39,0,0,1-1,1.38,5,5,0,0,1-1.44.88,5.45,5.45,0,0,1-1.58.38l-0.62-1.32a6.17,6.17,0,0,0,1.12-.29,4,4,0,0,0,1-.54,3.1,3.1,0,0,0,.77-0.82,2.25,2.25,0,0,0,.36-1.07,2.94,2.94,0,0,1-1.17-.07,2,2,0,0,1-.79-0.44,1.71,1.71,0,0,1-.45-0.68A2.49,2.49,0,0,1,179.15,261Z"/><path class="cls-4" d="M189.17,252.28a5.41,5.41,0,0,1,.4-2.13,4.33,4.33,0,0,1,1.13-1.59,4.69,4.69,0,0,1,1.75-1,6,6,0,0,1,2.29-.21,7.09,7.09,0,0,1,2.35.59,5.5,5.5,0,0,1,1.82,1.31,5.8,5.8,0,0,1,1.17,2,7.91,7.91,0,0,1,.41,2.65,13.21,13.21,0,0,1-.69,4.54,8.56,8.56,0,0,1-1.85,3.07,7.14,7.14,0,0,1-2.7,1.75,10.09,10.09,0,0,1-3.22.6l-0.64-2.4a7.55,7.55,0,0,0,2.29-.43,6.17,6.17,0,0,0,1.78-1,5.28,5.28,0,0,0,1.24-1.44,4.86,4.86,0,0,0,.62-1.8,3.1,3.1,0,0,1-1.24.67,5,5,0,0,1-1.82.13h0a5.86,5.86,0,0,1-1.77-.45,5.37,5.37,0,0,1-1.62-1.06,5.45,5.45,0,0,1-1.18-1.66A5.11,5.11,0,0,1,189.17,252.28Zm2.9,0.09a2.7,2.7,0,0,0,.24,1.16,2.84,2.84,0,0,0,.63.88,3,3,0,0,0,.91.58,3.52,3.52,0,0,0,1.07.26,3.94,3.94,0,0,0,1.63-.16,2.15,2.15,0,0,0,1-.65,6.39,6.39,0,0,0,.07-0.91,4.59,4.59,0,0,0-.18-1.28,3.76,3.76,0,0,0-.55-1.15,3.1,3.1,0,0,0-.92-0.85,2.88,2.88,0,0,0-1.27-.39A2.31,2.31,0,0,0,192.07,252.37Z"/><path class="cls-4" d="M204.5,267a7.38,7.38,0,0,0,1.7-.48,6.46,6.46,0,0,0,2-1.25,7.09,7.09,0,0,0,1.62-2.26,8.14,8.14,0,0,0,.67-3.51,9.72,9.72,0,0,0-.63-3.73,8.56,8.56,0,0,0-1.55-2.52,7.48,7.48,0,0,0-1.95-1.55,10.42,10.42,0,0,0-1.83-.8l0.55-2.42a12.36,12.36,0,0,1,3.13,1.33,10.44,10.44,0,0,1,2.69,2.3,11,11,0,0,1,1.88,3.3,12.42,12.42,0,0,1,.7,4.32,11.53,11.53,0,0,1-.7,4.23,8.81,8.81,0,0,1-1.88,3,8.2,8.2,0,0,1-2.69,1.84,10,10,0,0,1-3.13.77Z"/><path class="cls-4" d="M452.87,252.49L462,252c0,1,0,1.52,0,2.53l-6.25.31c0,6.53,0,9.8,0,16.33l6.25-.31c0,1,0,1.52,0,2.53l-9.1.45C452.87,265.32,452.87,261,452.87,252.49Z"/><path class="cls-4" d="M469.63,257.88a1.75,1.75,0,0,1,.51-1.3,2,2,0,0,1,1.34-.55,1.86,1.86,0,0,1,1.38.39,1.57,1.57,0,0,1,.51,1.25,1.79,1.79,0,0,1-.51,1.32,2,2,0,0,1-1.38.56,1.77,1.77,0,0,1-1.34-.41A1.6,1.6,0,0,1,469.63,257.88Zm0,8.33a1.75,1.75,0,0,1,.51-1.31,2,2,0,0,1,1.34-.55,1.86,1.86,0,0,1,1.38.39,1.57,1.57,0,0,1,.51,1.25,1.79,1.79,0,0,1-.51,1.32,2,2,0,0,1-1.38.56,1.77,1.77,0,0,1-1.34-.41A1.6,1.6,0,0,1,469.63,266.21Z"/><path class="cls-4" d="M479.31,264.64l2.86-.17V258l-2.86.17v-2.53l5.18-.32,0.35,1.5h0.09a6.71,6.71,0,0,1,1.47-1.36,3.84,3.84,0,0,1,1.93-.63,2.45,2.45,0,0,1,2.18.87,5.31,5.31,0,0,1,.79,3.33l-2.69.18a2.22,2.22,0,0,0-.24-1.19,0.79,0.79,0,0,0-.77-0.33,2.42,2.42,0,0,0-1.49.56,5.12,5.12,0,0,0-1,1.12v4.9l5-.32v2.53c-4.34.29-6.51,0.42-10.85,0.69v-2.53Z"/><path class="cls-4" d="M504.53,264.26a4.54,4.54,0,0,1-.77.6,8.12,8.12,0,0,1-1.11.58,9.08,9.08,0,0,1-1.39.47,9.19,9.19,0,0,1-1.61.25,7.62,7.62,0,0,1-2.64-.23,4.69,4.69,0,0,1-3.2-2.9,6.86,6.86,0,0,1-.43-2.51,7,7,0,0,1,.48-2.69,5.84,5.84,0,0,1,1.32-2,6.08,6.08,0,0,1,2-1.27,8,8,0,0,1,2.44-.55,7.42,7.42,0,0,1,1.81.1,4.59,4.59,0,0,1,1.72.67,3.83,3.83,0,0,1,1.28,1.41,4.89,4.89,0,0,1,.5,2.36,11.2,11.2,0,0,1-.23,2.16l-8.29.59a2.53,2.53,0,0,0,.31,1.22,2.22,2.22,0,0,0,.76.77,3.06,3.06,0,0,0,1.08.4,5.3,5.3,0,0,0,1.3.06,7,7,0,0,0,2.27-.48,5.27,5.27,0,0,0,1.44-.89Zm-5-7.85a3.94,3.94,0,0,0-1.13.24,3.44,3.44,0,0,0-1,.55,2.9,2.9,0,0,0-.7.83,2.55,2.55,0,0,0-.32,1.08l5.67-.4A2.1,2.1,0,0,0,499.55,256.41Z"/><path class="cls-4" d="M518.61,263.3a7.27,7.27,0,0,1-2.21,1.25,10.07,10.07,0,0,1-2.65.56,7.28,7.28,0,0,1-2.66-.23,4.9,4.9,0,0,1-2-1.08,4.71,4.71,0,0,1-1.21-1.83,6.9,6.9,0,0,1-.41-2.45,6.75,6.75,0,0,1,.48-2.61,6,6,0,0,1,1.35-2,6.44,6.44,0,0,1,2-1.34,8.23,8.23,0,0,1,2.55-.6,9.27,9.27,0,0,1,2.42.11,10.6,10.6,0,0,1,1.73.44v4l-2.53.2c0-.85,0-1.27,0-2.12a6.37,6.37,0,0,0-1.43,0,4.51,4.51,0,0,0-1.28.29,3.45,3.45,0,0,0-1.13.71,3.63,3.63,0,0,0-.81,1.13,3.68,3.68,0,0,0-.31,1.56,3.41,3.41,0,0,0,.25,1.34,2.84,2.84,0,0,0,1.85,1.66,4,4,0,0,0,1.51.15,5.64,5.64,0,0,0,2.15-.54,9.6,9.6,0,0,0,1.25-.74Z"/><path class="cls-4" d="M527.45,252.17l4.28-.37v9l1.75-.15c0,1,0,1.52,0,2.53l-3.63.32-0.53-1.66h-0.09a4.6,4.6,0,0,1-1.59,1.58,5.41,5.41,0,0,1-3.95.68,2.6,2.6,0,0,1-1.23-.66,3.18,3.18,0,0,1-.78-1.36,7.53,7.53,0,0,1-.28-2.23V255.2l-1.31.11v-2.53l4.3-.35c0,2.61,0,3.92,0,6.53a3.34,3.34,0,0,0,.45,2,1.5,1.5,0,0,0,1.41.5,2.7,2.7,0,0,0,1.53-.64,3.06,3.06,0,0,0,1-1.32v-4.9l-1.29.11v-2.53Z"/><path class="cls-4" d="M534.56,260.52l2.85-.25v-6.44l-2.85.25c0-1,0-1.52,0-2.53l5.18-.47,0.34,1.49h0.09a7,7,0,0,1,1.47-1.4,3.93,3.93,0,0,1,1.93-.68,2.38,2.38,0,0,1,2.17.81,5.22,5.22,0,0,1,.79,3.31l-2.69.25a2.19,2.19,0,0,0-.24-1.18,0.77,0.77,0,0,0-.77-0.31,2.48,2.48,0,0,0-1.48.6,5.33,5.33,0,0,0-1,1.15V260l5-.46v2.53c-4.33.41-6.5,0.61-10.83,1C534.56,262,534.56,261.53,534.56,260.52Z"/><path class="cls-4" d="M552.47,259.91a1.74,1.74,0,0,1,.52-1.29,2.36,2.36,0,0,1,3.21.05,3,3,0,0,1,.64,2,4.62,4.62,0,0,1-.4,1.93,5.71,5.71,0,0,1-1,1.58,6.5,6.5,0,0,1-1.44,1.15,6.43,6.43,0,0,1-1.57.68l-0.62-1.2a7.38,7.38,0,0,0,1.11-.5,5.17,5.17,0,0,0,1-.73,4.12,4.12,0,0,0,.77-1,2.66,2.66,0,0,0,.36-1.14,3,3,0,0,1-1.17.15,1.6,1.6,0,0,1-.79-0.29,1.31,1.31,0,0,1-.45-0.6A2.24,2.24,0,0,1,552.47,259.91Z"/><path class="cls-4" d="M563.37,244.18l9.08-1v2.53l-6.23.66c0,6.53,0,9.8,0,16.33l6.23-.66v2.53l-9.08,1C563.37,257,563.37,252.74,563.37,244.18Z"/><path class="cls-4" d="M577.47,256.24l3.51-.39V245.8l-3,2.66-1.38-1.69,5.24-4.59,2-.23v13.57l3.44-.4v2.53l-9.8,1.11v-2.53Z"/><path class="cls-4" d="M591.25,254.67l3.51-.42V244.2l-3,2.68-1.38-1.68,5.23-4.62,2-.24c0,5.43,0,8.14,0,13.57l3.44-.42V256l-9.8,1.18v-2.53Z"/><path class="cls-4" d="M603.45,247.65a14.4,14.4,0,0,1,.44-3.72,8.71,8.71,0,0,1,1.23-2.76,6.14,6.14,0,0,1,1.9-1.79,6.33,6.33,0,0,1,2.46-.83A4.7,4.7,0,0,1,614,240q1.56,1.83,1.56,6.11a14.51,14.51,0,0,1-.44,3.75,8.91,8.91,0,0,1-1.23,2.78,6.08,6.08,0,0,1-1.91,1.81,6.39,6.39,0,0,1-2.47.83A4.55,4.55,0,0,1,605,253.7Q603.45,251.75,603.45,247.65Zm3-.37c0,0.23,0,.45,0,0.65s0,0.42,0,.63l5.55-5.83a2.21,2.21,0,0,0-2.57-1.65,2.88,2.88,0,0,0-2.24,1.7A10.09,10.09,0,0,0,606.44,247.28Zm6.1-.78q0-.37,0-0.7c0-.22,0-0.44,0-0.65L606.92,251a2.25,2.25,0,0,0,2.57,1.77,2.91,2.91,0,0,0,2.25-1.69A10.11,10.11,0,0,0,612.54,246.5Z"/><path class="cls-4" d="M621.34,251.95a1.81,1.81,0,0,1,.52-1.31,2.15,2.15,0,0,1,1.3-.63,2,2,0,0,1,1.9.57,2.89,2.89,0,0,1,.64,2,4.73,4.73,0,0,1-.4,1.94,6,6,0,0,1-1,1.61,6.83,6.83,0,0,1-1.43,1.21,6.65,6.65,0,0,1-1.57.74l-0.62-1.18a7.64,7.64,0,0,0,1.11-.54,5.41,5.41,0,0,0,1-.77,4.34,4.34,0,0,0,.77-1,2.74,2.74,0,0,0,.36-1.15,3,3,0,0,1-1.17.19,1.54,1.54,0,0,1-.79-0.26,1.25,1.25,0,0,1-.45-0.58A2.21,2.21,0,0,1,621.34,251.95Z"/><path class="cls-4" d="M631.33,241a6.13,6.13,0,0,1,.4-2.22,5.87,5.87,0,0,1,1.12-1.85,6.34,6.34,0,0,1,1.74-1.35,6.82,6.82,0,0,1,2.28-.72,6.42,6.42,0,0,1,2.34.06,4.07,4.07,0,0,1,1.81.9,4.3,4.3,0,0,1,1.17,1.74,7.14,7.14,0,0,1,.41,2.55,14.66,14.66,0,0,1-.69,4.7,11.41,11.41,0,0,1-1.84,3.48,9.79,9.79,0,0,1-2.69,2.36,12,12,0,0,1-3.21,1.33l-0.64-2.26a9,9,0,0,0,2.28-.94,8.36,8.36,0,0,0,1.78-1.39,7.28,7.28,0,0,0,1.24-1.72,5.94,5.94,0,0,0,.62-1.94,4.18,4.18,0,0,1-1.24.95,5.58,5.58,0,0,1-1.81.54h0a5.3,5.3,0,0,1-1.76-.05,4,4,0,0,1-1.61-.69,3.94,3.94,0,0,1-1.18-1.39A4.47,4.47,0,0,1,631.33,241Zm2.89-.56a2.35,2.35,0,0,0,.24,1.1,2.06,2.06,0,0,0,.63.74,2.27,2.27,0,0,0,.91.38,3.21,3.21,0,0,0,1.06,0,4.48,4.48,0,0,0,1.63-.53,2.94,2.94,0,0,0,1-.88,6.76,6.76,0,0,0,.07-0.93,4.21,4.21,0,0,0-.18-1.24,2.88,2.88,0,0,0-.55-1,2.23,2.23,0,0,0-.92-0.64,2.52,2.52,0,0,0-1.26-.11A3,3,0,0,0,634.21,240.44Z"/><path class="cls-4" d="M655.43,253.86l-9,1.35v-2.53l6.2-.92V235.43l-6.2.92v-2.53l9-1.35v21.39Z"/><path class="cls-4" d="M669.15,251.74l-9,1.41v-2.53l6.2-1V233.32l-6.2,1v-2.53l9-1.41v21.39Z"/></svg>