<svg id="Layer_1" data-name="Layer 1" xmlns="http://www.w3.org/2000/svg" viewBox="0 0 720 576"><defs><style>.cls-1,.cls-2,.cls-4,.cls-6{fill:#231f20;}.cls-1,.cls-3{stroke:#231f20;}.cls-1,.cls-6{stroke-miterlimit:10;}.cls-2{stroke:#000;}.cls-2,.cls-3{stroke-linecap:round;stroke-linejoin:round;stroke-width:2px;}.cls-3,.cls-5{fill:#fff;}.cls-6{stroke:#fff;}</style></defs><title>Hanoi_Tower_Set_3</title><path class="cls-1" d="M624.31,529.72c0-.14,0-0.29,0-0.43s0-.29,0-0.43V477.06H32.48s-0.23,51.74-.23,52.22c0,2.67,2.12,5.24,6.08,7.71,13.87,8.61,50.58,16.11,101.74,21.48s116.73,8.59,188.22,8.59c81.71,0,155.68-4.21,209.24-11,26.78-3.41,48.45-7.46,63.44-12,7.5-2.25,13.32-4.62,17.29-7.08,3.38-2.1,5.41-4.29,5.94-6.55h0.1v-0.73Z"/><ellipse class="cls-2" cx="328.3" cy="478.15" rx="295.87" ry="37.63"/><path class="cls-3" d="M624.31,478.24c0-.14,0-0.29,0-0.43s0-.29,0-0.43V425.59H32.48s-0.23,51.74-.23,52.22c0,2.67,2.12,5.24,6.08,7.71C52.2,494.12,88.92,501.62,140.08,507s116.73,8.59,188.22,8.59c81.71,0,155.68-4.21,209.24-11,26.78-3.41,48.45-7.46,63.44-12,7.5-2.25,13.32-4.62,17.29-7.08,3.38-2.1,5.41-4.29,5.94-6.55h0.1v-0.73Z"/><ellipse class="cls-3" cx="328.3" cy="426.67" rx="295.87" ry="37.63"/><path class="cls-3" d="M624.31,426.76c0-.14,0-0.29,0-0.43s0-.29,0-0.43V374.11H32.48s-0.23,51.74-.23,52.22c0,2.67,2.12,5.24,6.08,7.71,13.87,8.61,50.58,16.11,101.74,21.48s116.73,8.59,188.22,8.59c81.71,0,155.68-4.21,209.24-11,26.78-3.41,48.45-7.46,63.44-12,7.5-2.25,13.32-4.62,17.29-7.08,3.38-2.1,5.41-4.29,5.94-6.55h0.1v-0.73Z"/><ellipse class="cls-3" cx="328.3" cy="375.19" rx="295.87" ry="37.63"/><path class="cls-3" d="M624.31,375.28c0-.14,0-0.29,0-0.43s0-.29,0-0.43V322.63H32.48s-0.23,51.74-.23,52.22c0,2.67,2.12,5.24,6.08,7.71C52.2,391.17,88.92,398.67,140.08,404s116.73,8.59,188.22,8.59c81.71,0,155.68-4.21,209.24-11,26.78-3.41,48.45-7.46,63.44-12,7.5-2.25,13.32-4.62,17.29-7.08,3.38-2.1,5.41-4.29,5.94-6.55h0.1v-0.73Z"/><ellipse class="cls-3" cx="328.3" cy="323.72" rx="295.87" ry="37.63"/><path class="cls-4" d="M328.3,333.11c-16,0-29-3.75-30.2-8.61H298l0-.5V31.5h60.63v293H358.5C357.27,329.36,344.27,333.11,328.3,333.11Z"/><path class="cls-5" d="M358.12,32V324h0c-0.49,4.78-13.63,8.61-29.79,8.61S299,328.78,298.51,324h0v-0.21s0,0,0-.06,0,0,0-.06V32h59.63m1-1H297.49V323.62s0,0.07,0,.11V325h0.23c2,5.6,16.84,8.61,30.58,8.61s28.6-3,30.58-8.61h0.21l0-1V31h0Z"/><ellipse class="cls-6" cx="328.3" cy="32.11" rx="29.81" ry="8.89"/><path d="M41.93,469.46v-2.2l2.34,0.37V462l-2.37-.37v-2.2l2.37,0.37v-0.56a3.37,3.37,0,0,1,.33-1.57,2.6,2.6,0,0,1,.86-1,3,3,0,0,1,1.24-.46,5,5,0,0,1,1.46,0,10,10,0,0,1,2.26.58,6.86,6.86,0,0,1,1.46.79l-0.76,1.86a10.8,10.8,0,0,0-1-.55,4.73,4.73,0,0,0-1.36-.39,1.72,1.72,0,0,0-1.5.26,1.92,1.92,0,0,0-.43,1.4L51,460.87v2.2l-4.18-.64V468l4.2,0.65v2.2Z"/><path d="M54.24,462a9.8,9.8,0,0,1,1.84-.34,10.26,10.26,0,0,1,2.48.11,6,6,0,0,1,1.76.51,3.6,3.6,0,0,1,1.17.88,3.27,3.27,0,0,1,.65,1.2,5.16,5.16,0,0,1,.2,1.47q0,1-.07,1.73c0,0.47-.07.9-0.07,1.27a8.84,8.84,0,0,0,0,.95c0,0.19,0,.37.06,0.55l1.29,0.19v2.2l-3.34-.49L60,470.86h-0.1a2.76,2.76,0,0,1-1.13.9,3.5,3.5,0,0,1-2,.15,3.89,3.89,0,0,1-2.35-1.15,3.18,3.18,0,0,1-.87-2.25,2.92,2.92,0,0,1,.31-1.4,2.07,2.07,0,0,1,.89-0.87,3.69,3.69,0,0,1,1.4-.37,8,8,0,0,1,1.83.08q0.36,0.05.75,0.15l1,0.22a2,2,0,0,0,0-.39v-0.38a1.48,1.48,0,0,0-.43-1.16,2.41,2.41,0,0,0-1.28-.52,5.78,5.78,0,0,0-1.82,0,10.26,10.26,0,0,0-1.36.31Zm3.39,7.85a2.19,2.19,0,0,0,1.42-.14,1.89,1.89,0,0,0,.69-0.65c0-.48,0-0.72,0-1.2l-0.59-.18a7.19,7.19,0,0,0-.85-0.18,4,4,0,0,0-.75,0,2.21,2.21,0,0,0-.67.12,1.07,1.07,0,0,0-.47.32,0.84,0.84,0,0,0-.18.55,1.31,1.31,0,0,0,.32.92A1.75,1.75,0,0,0,57.63,469.89Z"/><path d="M75.26,473.46a4.9,4.9,0,0,1-1.91.66,8.09,8.09,0,0,1-2.29,0,7.11,7.11,0,0,1-2.3-.71,5.73,5.73,0,0,1-1.69-1.31,5.48,5.48,0,0,1-1-1.82,6.69,6.69,0,0,1-.36-2.21,5.23,5.23,0,0,1,.42-2.18,3.85,3.85,0,0,1,1.16-1.49,4.22,4.22,0,0,1,1.76-.78,6.51,6.51,0,0,1,2.21,0,8.78,8.78,0,0,1,2.09.56,11.13,11.13,0,0,1,1.49.71v3.52L72.61,468v-1.84a6,6,0,0,0-1.23-.32,3.59,3.59,0,0,0-1.1,0,2.24,2.24,0,0,0-1.67,1.23,2.83,2.83,0,0,0-.27,1.3,3.35,3.35,0,0,0,.22,1.21,3.36,3.36,0,0,0,1.6,1.8,3.91,3.91,0,0,0,1.3.42,4.45,4.45,0,0,0,1.86-.06,6.33,6.33,0,0,0,1.09-.41Z"/><path d="M78.64,467.09l-2-.27c0-.88,0-1.32,0-2.2l2,0.27v-2.28l2.59-.38v3l5.22,0.7v2.2l-5.22-.7v2.86a3.82,3.82,0,0,0,.58,2.31,2.32,2.32,0,0,0,1.61.91,3.32,3.32,0,0,0,1,0,3.2,3.2,0,0,0,.79-0.22,3.7,3.7,0,0,0,.64-0.35l0.53-.37,1.2,2a3.15,3.15,0,0,1-.85.62,6.24,6.24,0,0,1-2.32.66,5.71,5.71,0,0,1-1.26,0,4.94,4.94,0,0,1-3.36-1.71,6.48,6.48,0,0,1-1.13-4.13v-2.86Z"/><path d="M89,471.28a5.78,5.78,0,0,1,.38-2.19,3.84,3.84,0,0,1,1.08-1.52,3.89,3.89,0,0,1,1.66-.81,6.1,6.1,0,0,1,2.16-.07,6.79,6.79,0,0,1,2.24.67,5.54,5.54,0,0,1,1.67,1.28,5.31,5.31,0,0,1,1,1.8,6.81,6.81,0,0,1,.35,2.2,5.81,5.81,0,0,1-.38,2.19,3.77,3.77,0,0,1-2.74,2.34,6.07,6.07,0,0,1-2.16.07,6.75,6.75,0,0,1-2.24-.67,5.55,5.55,0,0,1-1.66-1.29,5.32,5.32,0,0,1-1-1.8A6.81,6.81,0,0,1,89,471.28Zm2.67,0.35a4.2,4.2,0,0,0,.18,1.24,3.49,3.49,0,0,0,.52,1,2.83,2.83,0,0,0,.82.76,2.75,2.75,0,0,0,1.1.37,2.27,2.27,0,0,0,1.88-.5,2.9,2.9,0,0,0,.73-2.25A3.85,3.85,0,0,0,96.2,470a2.7,2.7,0,0,0-1.93-1.1,3,3,0,0,0-1,0,1.72,1.72,0,0,0-.83.44,2.28,2.28,0,0,0-.55.89A4.09,4.09,0,0,0,91.66,471.63Z"/><path d="M101,475.63l2.47,0.31v-5.6L101,470v-2.2l4.49,0.56,0.3,1.36h0.08a4.42,4.42,0,0,1,1.28-.94,2.94,2.94,0,0,1,1.68-.24,2.6,2.6,0,0,1,1.89,1.11,5.25,5.25,0,0,1,.69,3l-2.34-.28a2.16,2.16,0,0,0-.21-1.08,0.84,0.84,0,0,0-.67-0.41,1.81,1.81,0,0,0-1.29.24,3.36,3.36,0,0,0-.83.82c0,1.7,0,2.56,0,4.26l4.33,0.52V479l-9.4-1.15v-2.2Z"/><path d="M113.4,477.13l3.51,0.41v-5.6l-3.51-.41v-2.2l6.11,0.71v7.8l3.69,0.42v2.2c-3.92-.44-5.88-0.67-9.8-1.13v-2.2Zm3-10.16a1.26,1.26,0,0,1,.46-1,1.62,1.62,0,0,1,1.28-.29,2.19,2.19,0,0,1,1.34.59,1.55,1.55,0,0,1,.5,1.12,1.15,1.15,0,0,1-.5,1,1.88,1.88,0,0,1-1.34.26,2.07,2.07,0,0,1-1.28-.56A1.51,1.51,0,0,1,116.43,467Z"/><path d="M126,471.46a10.1,10.1,0,0,1,1.85-.42,10.32,10.32,0,0,1,2.49,0,5.86,5.86,0,0,1,1.77.44,3.42,3.42,0,0,1,1.18.84,3.1,3.1,0,0,1,.65,1.17,5.05,5.05,0,0,1,.2,1.46q0,1-.07,1.73c0,0.47-.07.9-0.07,1.27a8.71,8.71,0,0,0,0,.94c0,0.19,0,.37.06,0.55l1.3,0.14v2.2l-3.35-.36-0.26-1.39h-0.1a2.93,2.93,0,0,1-1.13.95,3.57,3.57,0,0,1-2,.23,3.74,3.74,0,0,1-2.36-1.06,3.05,3.05,0,0,1-.87-2.22,3,3,0,0,1,.31-1.42,2.19,2.19,0,0,1,.89-0.9,3.83,3.83,0,0,1,1.41-.42,8.07,8.07,0,0,1,1.84,0q0.36,0,.75.12l1,0.19a2,2,0,0,0,0-.4v-0.38a1.43,1.43,0,0,0-.44-1.14,2.33,2.33,0,0,0-1.29-.47,5.84,5.84,0,0,0-1.82.06,10.61,10.61,0,0,0-1.37.37Zm3.4,7.71a2.24,2.24,0,0,0,1.42-.19,2,2,0,0,0,.69-0.68v-1.2l-0.59-.15a7.1,7.1,0,0,0-.85-0.14,4,4,0,0,0-.75,0,2.28,2.28,0,0,0-.67.15,1.13,1.13,0,0,0-.47.34,0.86,0.86,0,0,0-.18.56,1.26,1.26,0,0,0,.33.91A1.69,1.69,0,0,0,129.4,479.17Z"/><path d="M137.92,468.07l4.26,0.44v9.24a4.54,4.54,0,0,0,.38,2.18,1.5,1.5,0,0,0,1.22.72,3.26,3.26,0,0,0,1,0,3.5,3.5,0,0,0,.8-0.29l1,1.9-0.68.34a3.94,3.94,0,0,1-.72.25,4.61,4.61,0,0,1-.83.12,6.51,6.51,0,0,1-1,0,4.17,4.17,0,0,1-2.82-1.25,4.09,4.09,0,0,1-.94-2.82v-8.4l-1.66-.17v-2.2Z"/><path d="M157.27,488.23a10.15,10.15,0,0,1-2.72-1.14,9.14,9.14,0,0,1-2.34-2,9.58,9.58,0,0,1-1.63-2.88,10.91,10.91,0,0,1-.61-3.78,9.94,9.94,0,0,1,.61-3.65,7.64,7.64,0,0,1,1.63-2.59,7.08,7.08,0,0,1,2.34-1.59,9.16,9.16,0,0,1,2.72-.68l0.48,2.18a7.73,7.73,0,0,0-1.59.42,5.1,5.1,0,0,0-1.69,1.06,5.89,5.89,0,0,0-1.35,2,8.07,8.07,0,0,0,1.44,8.51,7.15,7.15,0,0,0,1.71,1.38,7.51,7.51,0,0,0,1.48.67Z"/><path d="M165.13,482.79a4,4,0,0,0,1.21-.06,2.58,2.58,0,0,0,.94-0.39,2,2,0,0,0,.61-0.66,1.73,1.73,0,0,0,.22-0.87,2,2,0,0,0-.25-1,2,2,0,0,0-.69-0.71,3.62,3.62,0,0,0-1.06-.43,8.77,8.77,0,0,0-1.34-.22l-1.12-.1v-1.44l3.36-3.8-5.06-.45v-2.2l8.16,0.73V473l-3.52,3.71,0.46,0a4.18,4.18,0,0,1,1.36.36,3.83,3.83,0,0,1,1.17.82,4,4,0,0,1,.82,1.27,4.36,4.36,0,0,1,.31,1.69,3.87,3.87,0,0,1-.47,2,4,4,0,0,1-1.24,1.34,4.81,4.81,0,0,1-1.77.72,7.15,7.15,0,0,1-2.06.11,10.58,10.58,0,0,1-1.8-.32,9.41,9.41,0,0,1-1.74-.66l0.7-2.1a3,3,0,0,0,.49.24l0.7,0.26a8,8,0,0,0,.8.23A5.76,5.76,0,0,0,165.13,482.79Z"/><path d="M174.57,487.59a6.36,6.36,0,0,0,1.48-.41,5.58,5.58,0,0,0,1.71-1.08,6.12,6.12,0,0,0,1.41-2,7.06,7.06,0,0,0,.58-3.05,8.47,8.47,0,0,0-.55-3.24,7.49,7.49,0,0,0-1.35-2.2,6.55,6.55,0,0,0-1.69-1.36,9.15,9.15,0,0,0-1.59-.7l0.48-2.1a10.78,10.78,0,0,1,2.72,1.17,9.14,9.14,0,0,1,2.34,2,9.64,9.64,0,0,1,1.63,2.88,10.83,10.83,0,0,1,.61,3.76,10,10,0,0,1-.61,3.67,7.59,7.59,0,0,1-1.63,2.59,7.1,7.1,0,0,1-2.34,1.59,8.71,8.71,0,0,1-2.72.65Z"/><path d="M366,491.6c0-.88,0-1.32,0-2.2l2.37-.05v-5.6l-2.39.05v-2.2l2.39-.05V481a3.71,3.71,0,0,1,.33-1.63,3.35,3.35,0,0,1,.87-1.14,3.68,3.68,0,0,1,1.25-.68,5.26,5.26,0,0,1,1.47-.24,9.32,9.32,0,0,1,2.28.17,5.7,5.7,0,0,1,1.47.53l-0.76,2a9,9,0,0,0-1-.38,4.34,4.34,0,0,0-1.37-.15,2,2,0,0,0-1.52.53,2.21,2.21,0,0,0-.43,1.48l4.21-.1v2.2l-4.21.1v5.6l4.23-.1v2.2Z"/><path d="M378.46,482a11.43,11.43,0,0,1,1.86-.67,10.7,10.7,0,0,1,2.5-.33,5.49,5.49,0,0,1,1.78.2,2.85,2.85,0,0,1,1.18.67,2.6,2.6,0,0,1,.65,1.08,4.76,4.76,0,0,1,.2,1.43q0,1-.07,1.74c0,0.48-.07.91-0.07,1.28a8.66,8.66,0,0,0,0,.94c0,0.18,0,.37.06,0.54l1.3,0V491l-3.37.11-0.26-1.35h-0.1a3.6,3.6,0,0,1-1.14,1.1,3.88,3.88,0,0,1-2,.51,3.3,3.3,0,0,1-2.37-.73,2.66,2.66,0,0,1-.88-2.1,3.23,3.23,0,0,1,.31-1.46,2.7,2.7,0,0,1,.9-1,4.41,4.41,0,0,1,1.42-.62,8.35,8.35,0,0,1,1.84-.24q0.36,0,.76,0l1,0.05a2.14,2.14,0,0,0,0-.4V484.5a1.24,1.24,0,0,0-.44-1.08,2.09,2.09,0,0,0-1.29-.29,6.14,6.14,0,0,0-1.83.31,12.11,12.11,0,0,0-1.37.56Zm3.41,7.24a2.24,2.24,0,0,0,2.12-1.16v-1.2l-0.6-.07a6.85,6.85,0,0,0-.85,0,4.14,4.14,0,0,0-.75.09,2.57,2.57,0,0,0-.67.24,1.38,1.38,0,0,0-.48.4,1,1,0,0,0-.18.59,1.11,1.11,0,0,0,.33.86A1.51,1.51,0,0,0,381.88,489.23Z"/><path d="M399.64,489.64a6,6,0,0,1-1.92,1,8.57,8.57,0,0,1-2.31.4,6.44,6.44,0,0,1-2.32-.3,4.51,4.51,0,0,1-1.7-1,4.34,4.34,0,0,1-1.05-1.63A6.12,6.12,0,0,1,390,486a5.73,5.73,0,0,1,.42-2.25,5,5,0,0,1,1.17-1.7,5.3,5.3,0,0,1,1.77-1.09,7,7,0,0,1,2.23-.43,8.12,8.12,0,0,1,2.1.18,9.41,9.41,0,0,1,1.5.44c0,1.41,0,2.11,0,3.52l-2.21.08c0-.74,0-1.1,0-1.84a5.57,5.57,0,0,0-1.24-.09,3.83,3.83,0,0,0-1.11.21,2.85,2.85,0,0,0-1,.58,3,3,0,0,0-.7,1,3.11,3.11,0,0,0-.27,1.35,3,3,0,0,0,.22,1.17,2.68,2.68,0,0,0,.62.92,2.71,2.71,0,0,0,1,.59,3.53,3.53,0,0,0,1.31.18,4.8,4.8,0,0,0,1.87-.39,7.72,7.72,0,0,0,1.09-.6Z"/><path d="M403,482.66l-2,.08v-2.2l2-.08v-2.28l2.61-.85v3l5.25-.23v2.2l-5.25.23v2.86a3.34,3.34,0,0,0,.58,2.21,1.92,1.92,0,0,0,1.62.62,3.54,3.54,0,0,0,1-.17,3.85,3.85,0,0,0,.79-0.37,4.75,4.75,0,0,0,.64-0.47l0.53-.46,1.2,1.75a4.11,4.11,0,0,1-.85.77,7.63,7.63,0,0,1-1.1.63,7.14,7.14,0,0,1-1.23.44,6,6,0,0,1-1.26.2,4.16,4.16,0,0,1-3.38-1.11,5.61,5.61,0,0,1-1.13-3.92v-2.86Z"/><path d="M413.45,485a6.28,6.28,0,0,1,.38-2.26,4.82,4.82,0,0,1,2.76-2.82,6.58,6.58,0,0,1,2.17-.46,6.17,6.17,0,0,1,2.25.27,4.36,4.36,0,0,1,1.67,1,4.2,4.2,0,0,1,1,1.62,6.22,6.22,0,0,1,.35,2.14,6.32,6.32,0,0,1-.38,2.26,4.84,4.84,0,0,1-2.76,2.83,6.54,6.54,0,0,1-2.17.46,6.13,6.13,0,0,1-2.25-.27,4.37,4.37,0,0,1-1.67-1,4.23,4.23,0,0,1-1-1.62A6.23,6.23,0,0,1,413.45,485Zm2.69-.13a3.9,3.9,0,0,0,.18,1.21,2.82,2.82,0,0,0,.52,1,2.2,2.2,0,0,0,.82.61,2.46,2.46,0,0,0,1.1.18,2.68,2.68,0,0,0,1.89-.83,3.36,3.36,0,0,0,.73-2.38,3.32,3.32,0,0,0-.68-2.2,2.24,2.24,0,0,0-1.94-.75,3.2,3.2,0,0,0-1,.22,2.19,2.19,0,0,0-.83.59,2.86,2.86,0,0,0-.55,1A4.39,4.39,0,0,0,416.14,484.88Z"/><path d="M425.56,487.21l2.48-.13v-5.6l-2.48.13c0-.88,0-1.32,0-2.2l4.51-.25,0.3,1.3h0.08a5.75,5.75,0,0,1,1.28-1.17,3.32,3.32,0,0,1,1.68-.54,2.15,2.15,0,0,1,1.89.77,4.64,4.64,0,0,1,.69,2.9l-2.34.14a2,2,0,0,0-.21-1,0.7,0.7,0,0,0-.67-0.29,2.08,2.08,0,0,0-1.29.47,4.36,4.36,0,0,0-.83,1v4.26l4.35-.25v2.2l-9.44.53C425.56,488.53,425.56,488.09,425.56,487.21Z"/><path d="M438,486.5l3.53-.22c0-2.24,0-3.36,0-5.6l-3.53.21c0-.88,0-1.32,0-2.2l6.13-.38v7.8l3.71-.24c0,0.88,0,1.32,0,2.2-3.93.26-5.9,0.38-9.84,0.62C438,487.82,438,487.38,438,486.5Zm3-10.7a1.51,1.51,0,0,1,.46-1.09,1.89,1.89,0,0,1,1.28-.52,1.87,1.87,0,0,1,1.34.35,1.28,1.28,0,0,1,.5,1,1.39,1.39,0,0,1-.5,1.08,2.17,2.17,0,0,1-1.34.49,1.77,1.77,0,0,1-1.28-.33A1.26,1.26,0,0,1,441,475.8Z"/><path d="M450.62,478.58a11.86,11.86,0,0,1,1.85-.75,10.87,10.87,0,0,1,2.49-.43,5.41,5.41,0,0,1,1.77.13,2.71,2.71,0,0,1,1.18.63,2.47,2.47,0,0,1,.65,1.05,4.68,4.68,0,0,1,.2,1.43q0,1-.07,1.75c0,0.48-.07.91-0.07,1.29a8.59,8.59,0,0,0,0,.94c0,0.18,0,.36.06,0.54L460,485v2.2l-3.36.24-0.26-1.34h-0.1a3.81,3.81,0,0,1-1.13,1.15,4,4,0,0,1-2,.59,3.19,3.19,0,0,1-2.37-.64,2.55,2.55,0,0,1-.88-2.06,3.31,3.31,0,0,1,.31-1.47,2.85,2.85,0,0,1,.9-1.06,4.61,4.61,0,0,1,1.41-.68,8.47,8.47,0,0,1,1.84-.32q0.36,0,.76,0h1a2.17,2.17,0,0,0,0-.4v-0.38a1.19,1.19,0,0,0-.44-1.06,2,2,0,0,0-1.29-.24,6.26,6.26,0,0,0-1.83.39,12.61,12.61,0,0,0-1.37.61Zm3.41,7.11a2.53,2.53,0,0,0,1.43-.45,2.62,2.62,0,0,0,.69-0.8v-1.2l-0.59,0a6.82,6.82,0,0,0-.85,0,4.2,4.2,0,0,0-.75.12,2.66,2.66,0,0,0-.67.27,1.46,1.46,0,0,0-.48.42,1,1,0,0,0-.18.59,1.07,1.07,0,0,0,.33.85A1.46,1.46,0,0,0,454,485.69Z"/><path d="M462.58,473.06l4.26-.32c0,3.7,0,5.54,0,9.24a4.11,4.11,0,0,0,.38,2.11,1.23,1.23,0,0,0,1.22.51,3.48,3.48,0,0,0,1-.21,4.28,4.28,0,0,0,.8-0.43l1,1.72-0.68.46a4.8,4.8,0,0,1-.72.38,5.2,5.2,0,0,1-.83.26,6.73,6.73,0,0,1-1,.15,3.56,3.56,0,0,1-2.82-.75,3.48,3.48,0,0,1-.94-2.65c0-3.36,0-5,0-8.4l-1.66.12C462.58,474.38,462.58,473.94,462.58,473.06Z"/><path d="M474.41,488.49l8.89-.73v2.14l-8.89.73C474.41,489.78,474.41,489.35,474.41,488.49Z"/><path d="M484.85,471.29l4-.35c0,2,0,3.07,0,5.12H489a3.84,3.84,0,0,1,1.28-1.13,4.63,4.63,0,0,1,1.88-.55,4.58,4.58,0,0,1,1.4.07,2.38,2.38,0,0,1,1.1.56,2.77,2.77,0,0,1,.72,1.18,6.09,6.09,0,0,1,.26,1.93v6.22l-2.6.24v-5.68a2.3,2.3,0,0,0-.52-1.71,1.67,1.67,0,0,0-1.36-.42,2.47,2.47,0,0,0-1.36.57,2.77,2.77,0,0,0-.88,1.23v6.38l-2.6.23c0-4.72,0-7.08,0-11.8l-1.44.12C484.85,472.61,484.85,472.17,484.85,471.29Z"/><path d="M507.53,482.14a4.09,4.09,0,0,1-.67.54,7.32,7.32,0,0,1-1,.52,8.12,8.12,0,0,1-2.61.69,6.55,6.55,0,0,1-2.29-.14,3.93,3.93,0,0,1-2.78-2.45,5.88,5.88,0,0,1-.37-2.18,6.17,6.17,0,0,1,.42-2.35,5.25,5.25,0,0,1,1.15-1.76,5.44,5.44,0,0,1,1.71-1.15,7,7,0,0,1,2.12-.53,6.44,6.44,0,0,1,1.57,0,3.87,3.87,0,0,1,1.49.55,3.21,3.21,0,0,1,1.11,1.2,4.21,4.21,0,0,1,.43,2,9.8,9.8,0,0,1-.2,1.88l-7.2.69a2.16,2.16,0,0,0,.27,1.05,1.85,1.85,0,0,0,.66.66,2.59,2.59,0,0,0,.94.32,4.62,4.62,0,0,0,1.13,0,6.16,6.16,0,0,0,2-.47,4.73,4.73,0,0,0,1.25-.8Zm-4.32-6.72a3.48,3.48,0,0,0-1,.24,3.1,3.1,0,0,0-.83.5,2.61,2.61,0,0,0-.61.74,2.28,2.28,0,0,0-.28.94l4.92-.47A1.78,1.78,0,0,0,503.21,475.42Z"/><path d="M510.59,468.89l4.26-.43c0,3.7,0,5.54,0,9.24a4.06,4.06,0,0,0,.38,2.1,1.2,1.2,0,0,0,1.22.48,3.53,3.53,0,0,0,1-.24,4.41,4.41,0,0,0,.8-0.45l1,1.7-0.68.48a4.93,4.93,0,0,1-.72.39,5.3,5.3,0,0,1-.83.29,6.79,6.79,0,0,1-1,.17,3.48,3.48,0,0,1-2.82-.67,3.4,3.4,0,0,1-.94-2.63v-8.4l-1.66.17C510.59,470.21,510.59,469.77,510.59,468.89Z"/><path d="M520.84,471.84l3.4-.36,0.3,1.17h0.08a4.31,4.31,0,0,1,3.35-1.85,4.58,4.58,0,0,1,1.69.1,2.85,2.85,0,0,1,1.32.76,3.72,3.72,0,0,1,.85,1.47,7.15,7.15,0,0,1,.3,2.23,7.72,7.72,0,0,1-.34,2.35,5.65,5.65,0,0,1-1,1.86,4.92,4.92,0,0,1-1.56,1.27,5.85,5.85,0,0,1-2.1.61,8.09,8.09,0,0,1-1.22,0,3.13,3.13,0,0,1-1-.18v4.1l-2.6.28c0-4.72,0-7.08,0-11.8l-1.5.16C520.84,473.16,520.84,472.72,520.84,471.84Zm6.35,1.24a2.9,2.9,0,0,0-1.39.53,2.29,2.29,0,0,0-.87,1.23V479a1.91,1.91,0,0,0,.81.26,4.34,4.34,0,0,0,1.07,0,3,3,0,0,0,1-.3,2.49,2.49,0,0,0,.84-0.7,3.41,3.41,0,0,0,.56-1.12,5.45,5.45,0,0,0,.2-1.56,2.71,2.71,0,0,0-.64-2A1.87,1.87,0,0,0,527.19,473.08Z"/><path d="M543.48,478.24a4.21,4.21,0,0,1-.67.55,7.49,7.49,0,0,1-1,.54,8.22,8.22,0,0,1-2.6.74A6.51,6.51,0,0,1,537,480a3.83,3.83,0,0,1-2.78-2.39,5.83,5.83,0,0,1-.37-2.17,6.24,6.24,0,0,1,.42-2.36,5.4,5.4,0,0,1,1.15-1.78,5.58,5.58,0,0,1,1.71-1.19,7.09,7.09,0,0,1,2.12-.57,6.41,6.41,0,0,1,1.57,0,3.79,3.79,0,0,1,1.49.52,3.11,3.11,0,0,1,1.11,1.18,4.16,4.16,0,0,1,.43,2,9.89,9.89,0,0,1-.2,1.88l-7.19.84a2.13,2.13,0,0,0,.27,1,1.8,1.8,0,0,0,.66.64,2.54,2.54,0,0,0,.94.3,4.6,4.6,0,0,0,1.13,0,6.23,6.23,0,0,0,2-.51,4.85,4.85,0,0,0,1.25-.83Zm-4.31-6.64a3.52,3.52,0,0,0-1,.26,3.19,3.19,0,0,0-.83.51,2.69,2.69,0,0,0-.61.75,2.32,2.32,0,0,0-.28.95l4.91-.57a2,2,0,0,0-.55-1.51A2,2,0,0,0,539.17,471.61Z"/><path d="M545.58,476.85l2.47-.3c0-2.24,0-3.36,0-5.6l-2.47.3v-2.2l4.49-.54,0.3,1.28h0.08a6.33,6.33,0,0,1,1.28-1.26,3.5,3.5,0,0,1,1.68-.65,2,2,0,0,1,1.88.65,4.44,4.44,0,0,1,.69,2.85l-2.33.29a1.88,1.88,0,0,0-.21-1,0.65,0.65,0,0,0-.67-0.25,2.21,2.21,0,0,0-1.29.56,4.8,4.8,0,0,0-.83,1v4.26l4.33-.53v2.2l-9.4,1.15v-2.2Z"/><path d="M565.84,480.76a8.4,8.4,0,0,1-2.71-.53,6.63,6.63,0,0,1-2.33-1.48,7.15,7.15,0,0,1-1.62-2.51,9.81,9.81,0,0,1-.61-3.64,11.11,11.11,0,0,1,.61-3.79,10.25,10.25,0,0,1,1.63-3,9.76,9.76,0,0,1,2.33-2.12,11.3,11.3,0,0,1,2.71-1.29l0.48,2.08a9.56,9.56,0,0,0-1.58.78,7,7,0,0,0-1.69,1.44,8,8,0,0,0-1.35,2.26,8.7,8.7,0,0,0-.55,3.27,6.9,6.9,0,0,0,.58,3,5.74,5.74,0,0,0,1.4,1.89,5.23,5.23,0,0,0,1.7,1,6.11,6.11,0,0,0,1.48.34Z"/><path d="M570.85,473.65l3-.41V464.5l-2.63,2.37-1.2-1.44,4.54-4.09,1.75-.24c0,4.72,0,7.08,0,11.8l3-.41v2.2l-8.51,1.16v-2.2Z"/><path d="M585,472.62a1.58,1.58,0,0,1,.45-1.14,1.89,1.89,0,0,1,1.13-.56,1.72,1.72,0,0,1,1.65.48,2.5,2.5,0,0,1,.56,1.7,4.14,4.14,0,0,1-.35,1.69,5.28,5.28,0,0,1-.91,1.41,6,6,0,0,1-1.24,1.06,5.87,5.87,0,0,1-1.36.65l-0.54-1a6.65,6.65,0,0,0,1-.48,4.7,4.7,0,0,0,.89-0.68,3.78,3.78,0,0,0,.67-0.86,2.4,2.4,0,0,0,.31-1,2.61,2.61,0,0,1-1,.17,1.32,1.32,0,0,1-.69-0.22,1.08,1.08,0,0,1-.39-0.51A1.94,1.94,0,0,1,585,472.62Z"/><path d="M597.57,470.16a4.44,4.44,0,0,0,1.2-.35,3.45,3.45,0,0,0,.94-0.62,2.86,2.86,0,0,0,.61-0.81,2,2,0,0,0,.22-0.92,1.71,1.71,0,0,0-.25-1,1.45,1.45,0,0,0-.69-0.54,3,3,0,0,0-1.05-.18,8.42,8.42,0,0,0-1.33.1l-1.11.17V464.6l3.34-4.6-5,.75c0-.88,0-1.32,0-2.2l8.12-1.21v1.82L599,463.7l0.46-.07a3.75,3.75,0,0,1,1.35,0,2.8,2.8,0,0,1,1.16.54,2.88,2.88,0,0,1,.82,1.08,3.87,3.87,0,0,1,.31,1.61,4.56,4.56,0,0,1-.47,2.07,5.68,5.68,0,0,1-1.23,1.64,6.38,6.38,0,0,1-1.76,1.14,7.94,7.94,0,0,1-2,.6,10.06,10.06,0,0,1-1.79.11,7.86,7.86,0,0,1-1.73-.25l0.7-2.26a2.38,2.38,0,0,0,.49.13l0.7,0.1a7.09,7.09,0,0,0,.8,0A5.58,5.58,0,0,0,597.57,470.16Z"/><path d="M607,472.72a8,8,0,0,0,1.47-.76,7.77,7.77,0,0,0,1.7-1.48,8.47,8.47,0,0,0,1.4-2.29,8.09,8.09,0,0,0,.58-3.19,7.55,7.55,0,0,0-.55-3.11,5.42,5.42,0,0,0-1.34-1.88,4.69,4.69,0,0,0-1.68-1,7.39,7.39,0,0,0-1.58-.33l0.48-2.21a8.74,8.74,0,0,1,2.7.52,6.48,6.48,0,0,1,2.33,1.46,7.07,7.07,0,0,1,1.62,2.49,9.72,9.72,0,0,1,.61,3.61,11.29,11.29,0,0,1-.61,3.82,10.37,10.37,0,0,1-1.62,3,10,10,0,0,1-2.33,2.14,10.76,10.76,0,0,1-2.7,1.3Z"/><path d="M41.93,421v-2.2l2.34,0.37v-5.6l-2.37-.37v-2.2l2.37,0.37v-0.56a3.37,3.37,0,0,1,.33-1.57,2.6,2.6,0,0,1,.86-1,3,3,0,0,1,1.24-.46,5,5,0,0,1,1.46,0,10,10,0,0,1,2.26.58,6.86,6.86,0,0,1,1.46.79L51.14,411a10.79,10.79,0,0,0-1-.55,4.73,4.73,0,0,0-1.36-.39,1.72,1.72,0,0,0-1.5.26,1.92,1.92,0,0,0-.43,1.4L51,412.37v2.2l-4.18-.64v5.6l4.2,0.65v2.2Z"/><path d="M54.24,413.54a9.8,9.8,0,0,1,1.84-.34,10.26,10.26,0,0,1,2.48.11,6,6,0,0,1,1.76.51,3.6,3.6,0,0,1,1.17.88,3.27,3.27,0,0,1,.65,1.2,5.16,5.16,0,0,1,.2,1.47q0,1-.07,1.73c0,0.47-.07.9-0.07,1.27a8.78,8.78,0,0,0,0,.95c0,0.19,0,.37.06,0.55l1.29,0.19v2.2l-3.34-.49L60,422.36h-0.1a2.76,2.76,0,0,1-1.13.9,3.5,3.5,0,0,1-2,.15,3.89,3.89,0,0,1-2.35-1.15,3.18,3.18,0,0,1-.87-2.25,2.92,2.92,0,0,1,.31-1.4,2.07,2.07,0,0,1,.89-0.87,3.69,3.69,0,0,1,1.4-.37,8,8,0,0,1,1.83.08q0.36,0.05.75,0.15l1,0.22a2,2,0,0,0,0-.39V417a1.48,1.48,0,0,0-.43-1.16,2.41,2.41,0,0,0-1.28-.52,5.78,5.78,0,0,0-1.82,0,10.25,10.25,0,0,0-1.36.31Zm3.39,7.85a2.19,2.19,0,0,0,1.42-.14,1.89,1.89,0,0,0,.69-0.65v-1.2l-0.59-.18a7.2,7.2,0,0,0-.85-0.18,4,4,0,0,0-.75,0,2.21,2.21,0,0,0-.67.12,1.07,1.07,0,0,0-.47.32,0.84,0.84,0,0,0-.18.55,1.31,1.31,0,0,0,.32.92A1.75,1.75,0,0,0,57.63,421.39Z"/><path d="M75.26,425a4.9,4.9,0,0,1-1.91.66,8.09,8.09,0,0,1-2.29,0,7.11,7.11,0,0,1-2.3-.71,5.73,5.73,0,0,1-1.69-1.31,5.48,5.48,0,0,1-1-1.82,6.69,6.69,0,0,1-.36-2.21,5.23,5.23,0,0,1,.42-2.18,3.85,3.85,0,0,1,1.16-1.49A4.22,4.22,0,0,1,69,415.1a6.51,6.51,0,0,1,2.21,0,8.78,8.78,0,0,1,2.09.56,11.13,11.13,0,0,1,1.49.71v3.52l-2.19-.31v-1.84a6,6,0,0,0-1.23-.32,3.59,3.59,0,0,0-1.1,0,2.24,2.24,0,0,0-1.67,1.23,2.83,2.83,0,0,0-.27,1.3,3.36,3.36,0,0,0,.22,1.21,3.36,3.36,0,0,0,1.6,1.8,3.91,3.91,0,0,0,1.3.42,4.45,4.45,0,0,0,1.86-.06,6.33,6.33,0,0,0,1.09-.41Z"/><path d="M78.64,418.59l-2-.27v-2.2l2,0.27v-2.28l2.59-.38c0,1.21,0,1.81,0,3l5.22,0.7v2.2l-5.22-.7v2.86a3.82,3.82,0,0,0,.58,2.31,2.32,2.32,0,0,0,1.61.91,3.32,3.32,0,0,0,1,0,3.2,3.2,0,0,0,.79-0.22,3.7,3.7,0,0,0,.64-0.35l0.53-.37,1.2,2a3.16,3.16,0,0,1-.85.62,6.24,6.24,0,0,1-2.32.66,5.71,5.71,0,0,1-1.26,0,4.94,4.94,0,0,1-3.36-1.71,6.48,6.48,0,0,1-1.13-4.13C78.64,420.3,78.64,419.73,78.64,418.59Z"/><path d="M89,422.78a5.78,5.78,0,0,1,.38-2.19,3.84,3.84,0,0,1,1.08-1.52,3.89,3.89,0,0,1,1.66-.81,6.1,6.1,0,0,1,2.16-.07,6.79,6.79,0,0,1,2.24.67,5.54,5.54,0,0,1,1.67,1.28,5.31,5.31,0,0,1,1,1.8,6.81,6.81,0,0,1,.35,2.2,5.81,5.81,0,0,1-.38,2.19,3.77,3.77,0,0,1-2.74,2.34,6.07,6.07,0,0,1-2.16.07,6.75,6.75,0,0,1-2.24-.67,5.55,5.55,0,0,1-1.66-1.29,5.32,5.32,0,0,1-1-1.8A6.81,6.81,0,0,1,89,422.78Zm2.67,0.35a4.2,4.2,0,0,0,.18,1.24,3.49,3.49,0,0,0,.52,1,2.83,2.83,0,0,0,.82.76,2.75,2.75,0,0,0,1.1.37,2.27,2.27,0,0,0,1.88-.5,2.9,2.9,0,0,0,.73-2.25,3.85,3.85,0,0,0-.68-2.32,2.7,2.7,0,0,0-1.93-1.1,3,3,0,0,0-1,0,1.72,1.72,0,0,0-.83.44,2.28,2.28,0,0,0-.55.89A4.09,4.09,0,0,0,91.66,423.13Z"/><path d="M101,427.13l2.47,0.31v-5.6l-2.47-.31v-2.2l4.49,0.56,0.3,1.36h0.08a4.42,4.42,0,0,1,1.28-.94,2.94,2.94,0,0,1,1.68-.24,2.6,2.6,0,0,1,1.89,1.11,5.25,5.25,0,0,1,.69,3l-2.34-.28a2.16,2.16,0,0,0-.21-1.08,0.84,0.84,0,0,0-.67-0.41,1.81,1.81,0,0,0-1.29.24,3.37,3.37,0,0,0-.83.82v4.26l4.33,0.52v2.2l-9.4-1.15v-2.2Z"/><path d="M113.4,428.63l3.51,0.41v-5.6L113.4,423v-2.2l6.11,0.71v7.8l3.69,0.42V432c-3.92-.44-5.88-0.67-9.8-1.13v-2.2Zm3-10.16a1.26,1.26,0,0,1,.46-1,1.62,1.62,0,0,1,1.28-.29,2.19,2.19,0,0,1,1.34.59,1.55,1.55,0,0,1,.5,1.12,1.15,1.15,0,0,1-.5,1,1.88,1.88,0,0,1-1.34.26,2.07,2.07,0,0,1-1.28-.56A1.51,1.51,0,0,1,116.43,418.47Z"/><path d="M126,423a10.1,10.1,0,0,1,1.85-.42,10.32,10.32,0,0,1,2.49,0,5.86,5.86,0,0,1,1.77.44,3.42,3.42,0,0,1,1.18.84,3.1,3.1,0,0,1,.65,1.17,5.06,5.06,0,0,1,.2,1.46c0,0.68,0,1.26-.07,1.73s-0.07.9-.07,1.27a8.71,8.71,0,0,0,0,.94c0,0.19,0,.37.06,0.55l1.3,0.14v2.2l-3.35-.36-0.26-1.39h-0.1a2.93,2.93,0,0,1-1.13.95,3.57,3.57,0,0,1-2,.23,3.74,3.74,0,0,1-2.36-1.06,3.05,3.05,0,0,1-.87-2.22,3,3,0,0,1,.31-1.42,2.19,2.19,0,0,1,.89-0.9,3.83,3.83,0,0,1,1.41-.42,8.07,8.07,0,0,1,1.84,0q0.36,0,.75.12l1,0.19a2,2,0,0,0,0-.4v-0.38a1.43,1.43,0,0,0-.44-1.14,2.33,2.33,0,0,0-1.29-.47,5.84,5.84,0,0,0-1.82.06,10.62,10.62,0,0,0-1.37.37Zm3.4,7.72a2.24,2.24,0,0,0,1.42-.19,2,2,0,0,0,.69-0.68v-1.2l-0.59-.15a7.09,7.09,0,0,0-.85-0.14,4,4,0,0,0-.75,0,2.28,2.28,0,0,0-.67.15,1.13,1.13,0,0,0-.47.34,0.86,0.86,0,0,0-.18.56,1.26,1.26,0,0,0,.33.91A1.69,1.69,0,0,0,129.4,430.67Z"/><path d="M137.92,419.56l4.26,0.44c0,3.7,0,5.54,0,9.24a4.54,4.54,0,0,0,.38,2.18,1.5,1.5,0,0,0,1.22.72,3.26,3.26,0,0,0,1,0,3.5,3.5,0,0,0,.8-0.29l1,1.9-0.68.34a3.94,3.94,0,0,1-.72.25,4.61,4.61,0,0,1-.83.12,6.51,6.51,0,0,1-1,0,4.17,4.17,0,0,1-2.82-1.25,4.09,4.09,0,0,1-.94-2.82v-8.4l-1.66-.17v-2.2Z"/><path d="M149.73,437.1l8.88,0.85v2.14l-8.88-.85V437.1Z"/><path d="M160.17,421.75l4,0.37v5.12h0.08a3,3,0,0,1,1.28-.91,4.18,4.18,0,0,1,1.88-.21,4.94,4.94,0,0,1,1.4.32,3,3,0,0,1,1.1.76,3.48,3.48,0,0,1,.72,1.31,6.54,6.54,0,0,1,.26,2v6.22l-2.6-.23v-5.68a2.66,2.66,0,0,0-.52-1.81,2,2,0,0,0-1.36-.66,2.12,2.12,0,0,0-1.36.33,2.15,2.15,0,0,0-.88,1.07v6.38l-2.6-.24v-11.8l-1.44-.13C160.17,423.07,160.17,422.63,160.17,421.75Z"/><path d="M182.86,436.64a3.22,3.22,0,0,1-.67.42,6,6,0,0,1-1,.35,7,7,0,0,1-1.21.22,7.71,7.71,0,0,1-1.4,0,7.1,7.1,0,0,1-2.29-.55,5,5,0,0,1-2.78-2.94,6.42,6.42,0,0,1-.37-2.24,5.61,5.61,0,0,1,.42-2.27,4.11,4.11,0,0,1,1.15-1.55,4.34,4.34,0,0,1,1.71-.85,6.46,6.46,0,0,1,2.12-.15,6.87,6.87,0,0,1,1.57.33,4.74,4.74,0,0,1,1.49.81,4.14,4.14,0,0,1,1.11,1.4,4.67,4.67,0,0,1,.43,2.11,9.33,9.33,0,0,1-.2,1.84l-7.2-.59a2.45,2.45,0,0,0,.27,1.1,2.4,2.4,0,0,0,.66.77,3.15,3.15,0,0,0,.94.49,4.89,4.89,0,0,0,1.13.22,5.69,5.69,0,0,0,2-.12,3.76,3.76,0,0,0,1.25-.58Zm-4.32-7.49a3.22,3.22,0,0,0-1,.06,2.5,2.5,0,0,0-.83.35,2,2,0,0,0-.61.63,2,2,0,0,0-.28.89l4.92,0.4A2.17,2.17,0,0,0,178.53,429.15Z"/><path d="M185.92,423.94l4.26,0.33v9.24a4.46,4.46,0,0,0,.38,2.17,1.46,1.46,0,0,0,1.22.69,3.29,3.29,0,0,0,1-.05,3.6,3.6,0,0,0,.8-0.31l1,1.87-0.68.36a4.06,4.06,0,0,1-.72.27,4.68,4.68,0,0,1-.83.14,6.52,6.52,0,0,1-1,0,4.07,4.07,0,0,1-2.82-1.17,4,4,0,0,1-.94-2.79v-8.4l-1.66-.13v-2.2Z"/><path d="M196.19,428.72l3.4,0.24,0.3,1.22H200a3.58,3.58,0,0,1,3.36-1.25,5,5,0,0,1,1.69.41,3.63,3.63,0,0,1,1.32,1,4.63,4.63,0,0,1,.85,1.62,7.66,7.66,0,0,1,.3,2.28,7.12,7.12,0,0,1-.34,2.29,4.51,4.51,0,0,1-1,1.68,3.84,3.84,0,0,1-1.56,1,5.31,5.31,0,0,1-2.1.24,8.38,8.38,0,0,1-1.22-.17,3.6,3.6,0,0,1-1-.36V443l-2.6-.18V431l-1.5-.11v-2.2Zm6.37,2.37a2.53,2.53,0,0,0-1.39.28,1.79,1.79,0,0,0-.87,1.08v4.16a2.31,2.31,0,0,0,.81.41,4.6,4.6,0,0,0,1.07.2,2.73,2.73,0,0,0,1-.12,1.94,1.94,0,0,0,.84-0.55,2.73,2.73,0,0,0,.56-1,5.08,5.08,0,0,0,.2-1.53,3.14,3.14,0,0,0-.64-2.08A2.24,2.24,0,0,0,202.56,431.09Z"/><path d="M218.9,439.16a3.28,3.28,0,0,1-.67.43,6.06,6.06,0,0,1-1,.37,7.13,7.13,0,0,1-1.21.25,7.74,7.74,0,0,1-1.4,0,7,7,0,0,1-2.29-.5,4.91,4.91,0,0,1-2.78-2.89,6.35,6.35,0,0,1-.37-2.23,5.66,5.66,0,0,1,.42-2.28,4.23,4.23,0,0,1,1.15-1.58,4.45,4.45,0,0,1,1.71-.88,6.5,6.5,0,0,1,2.12-.2,6.8,6.8,0,0,1,1.57.3,4.62,4.62,0,0,1,1.49.78,4,4,0,0,1,1.11,1.38,4.62,4.62,0,0,1,.43,2.11,9.3,9.3,0,0,1-.2,1.85l-7.21-.45a2.41,2.41,0,0,0,.27,1.1,2.34,2.34,0,0,0,.66.76,3.09,3.09,0,0,0,.94.47,4.85,4.85,0,0,0,1.13.2,5.73,5.73,0,0,0,2-.16,3.87,3.87,0,0,0,1.25-.6Zm-4.33-7.4a3.25,3.25,0,0,0-1,.08,2.56,2.56,0,0,0-.83.37,2.09,2.09,0,0,0-.61.64,2,2,0,0,0-.28.9l4.93,0.31A2.12,2.12,0,0,0,214.57,431.75Z"/><path d="M221,438.14l2.48,0.14v-5.6l-2.48-.14v-2.2l4.51,0.26,0.3,1.34h0.08a4.88,4.88,0,0,1,1.28-1,3.06,3.06,0,0,1,1.68-.35,2.42,2.42,0,0,1,1.89,1,5,5,0,0,1,.69,3l-2.34-.13a2.08,2.08,0,0,0-.21-1.06,0.79,0.79,0,0,0-.67-0.37,1.9,1.9,0,0,0-1.29.33,3.7,3.7,0,0,0-.83.87v4.26l4.35,0.24c0,0.88,0,1.32,0,2.2l-9.44-.53v-2.2Z"/><path d="M241.37,445.66a9.73,9.73,0,0,1-2.73-1,8.56,8.56,0,0,1-2.34-1.9,9,9,0,0,1-1.63-2.8,10.64,10.64,0,0,1-.61-3.75,10.15,10.15,0,0,1,.61-3.68,8.14,8.14,0,0,1,1.63-2.67,7.57,7.57,0,0,1,2.34-1.7,9.54,9.54,0,0,1,2.73-.81l0.48,2.16a8,8,0,0,0-1.59.49,5.44,5.44,0,0,0-1.69,1.14,6.27,6.27,0,0,0-1.35,2,7.91,7.91,0,0,0-.55,3.17,7.58,7.58,0,0,0,.58,3.13,7.36,7.36,0,0,0,1.41,2.14,6.71,6.71,0,0,0,1.71,1.3,7.17,7.17,0,0,0,1.48.6Z"/><path d="M246.4,439.46l3.07,0.13c0-3.5,0-5.24,0-8.74l-2.65,1.9-1.2-1.65,4.57-3.28L252,427.9v11.8l3,0.12V442l-8.56-.36v-2.2Z"/><path d="M260.67,441a1.32,1.32,0,0,1,.45-1.06,1.6,1.6,0,0,1,1.13-.36,2.06,2.06,0,0,1,1.66.78,2.89,2.89,0,0,1,.56,1.8,3.7,3.7,0,0,1-.35,1.63,4.12,4.12,0,0,1-.91,1.25,4.71,4.71,0,0,1-1.25.83,5,5,0,0,1-1.37.41l-0.54-1.12a5.61,5.61,0,0,0,1-.3,3.7,3.7,0,0,0,.89-0.52,2.92,2.92,0,0,0,.67-0.75,2.05,2.05,0,0,0,.31-0.95,2.55,2.55,0,0,1-1,0,1.61,1.61,0,0,1-.69-0.34,1.38,1.38,0,0,1-.39-0.57A2.11,2.11,0,0,1,260.67,441Z"/><path d="M273.31,440.74a4.07,4.07,0,0,0,1.21-.13,2.77,2.77,0,0,0,.94-0.45,2.21,2.21,0,0,0,.61-0.7,1.8,1.8,0,0,0,.22-0.88,1.93,1.93,0,0,0-.25-1,1.89,1.89,0,0,0-.69-0.67,3.42,3.42,0,0,0-1.06-.37,8.63,8.63,0,0,0-1.34-.14l-1.12,0v-1.44l3.37-4-5.07-.15v-2.2l8.18,0.24v1.82l-3.53,3.92h0.46a4,4,0,0,1,1.36.28,3.53,3.53,0,0,1,1.17.75,3.7,3.7,0,0,1,.82,1.22,4.23,4.23,0,0,1,.31,1.67,4,4,0,0,1-.47,2,4.39,4.39,0,0,1-1.24,1.42,5.15,5.15,0,0,1-1.78.83,7.28,7.28,0,0,1-2.07.23,10.38,10.38,0,0,1-1.8-.22,8.94,8.94,0,0,1-1.74-.55l0.7-2.14a2.85,2.85,0,0,0,.49.22l0.7,0.22a7.75,7.75,0,0,0,.8.18A5.71,5.71,0,0,0,273.31,440.74Z"/><path d="M282.77,445a6.71,6.71,0,0,0,1.48-.49,6.06,6.06,0,0,0,1.71-1.18,6.64,6.64,0,0,0,1.41-2,7.28,7.28,0,0,0,.58-3.09,8.21,8.21,0,0,0-.55-3.21,6.92,6.92,0,0,0-1.35-2.12,6,6,0,0,0-1.69-1.26,8.65,8.65,0,0,0-1.59-.61l0.48-2.13a10.18,10.18,0,0,1,2.73,1,8.4,8.4,0,0,1,2.35,1.87,9,9,0,0,1,1.63,2.79,10.51,10.51,0,0,1,.61,3.72,10.28,10.28,0,0,1-.61,3.71,8.22,8.22,0,0,1-1.63,2.68,7.72,7.72,0,0,1-2.35,1.73,9.13,9.13,0,0,1-2.73.81Z"/><path d="M366,443.1v-2.2l2.37-.05v-5.6l-2.39.05v-2.2l2.39-.05v-0.56a3.71,3.71,0,0,1,.33-1.63,3.35,3.35,0,0,1,.87-1.14,3.68,3.68,0,0,1,1.25-.68,5.26,5.26,0,0,1,1.47-.24,9.32,9.32,0,0,1,2.28.17,5.7,5.7,0,0,1,1.47.53l-0.76,2a9,9,0,0,0-1-.38A4.34,4.34,0,0,0,373,431a2,2,0,0,0-1.52.53A2.21,2.21,0,0,0,371,433l4.21-.1v2.2l-4.21.1v5.6l4.23-.1v2.2Z"/><path d="M378.47,433.48a11.43,11.43,0,0,1,1.86-.67,10.7,10.7,0,0,1,2.5-.33,5.49,5.49,0,0,1,1.78.2,2.85,2.85,0,0,1,1.18.67,2.6,2.6,0,0,1,.65,1.08,4.76,4.76,0,0,1,.2,1.43q0,1-.07,1.74c0,0.48-.07.91-0.07,1.28a8.66,8.66,0,0,0,0,.94c0,0.18,0,.37.06,0.54l1.3,0v2.2l-3.37.11-0.26-1.35h-0.1a3.6,3.6,0,0,1-1.14,1.1,3.88,3.88,0,0,1-2,.51,3.3,3.3,0,0,1-2.37-.73,2.66,2.66,0,0,1-.88-2.1,3.23,3.23,0,0,1,.31-1.46,2.7,2.7,0,0,1,.9-1,4.41,4.41,0,0,1,1.42-.62,8.35,8.35,0,0,1,1.84-.24q0.36,0,.76,0l1,0.05a2.14,2.14,0,0,0,0-.4V436a1.24,1.24,0,0,0-.44-1.08,2.09,2.09,0,0,0-1.29-.29,6.14,6.14,0,0,0-1.83.31,12.12,12.12,0,0,0-1.37.56Zm3.41,7.24a2.24,2.24,0,0,0,2.12-1.16v-1.2l-0.6-.07a6.86,6.86,0,0,0-.85,0,4.14,4.14,0,0,0-.75.09,2.57,2.57,0,0,0-.67.24,1.38,1.38,0,0,0-.48.4,1,1,0,0,0-.18.59,1.11,1.11,0,0,0,.33.86A1.51,1.51,0,0,0,381.88,440.72Z"/><path d="M399.64,441.14a6,6,0,0,1-1.92,1,8.57,8.57,0,0,1-2.31.4,6.44,6.44,0,0,1-2.32-.3,4.51,4.51,0,0,1-1.7-1,4.34,4.34,0,0,1-1.05-1.63,6.12,6.12,0,0,1-.36-2.15,5.73,5.73,0,0,1,.42-2.25,5,5,0,0,1,1.17-1.7,5.3,5.3,0,0,1,1.77-1.09,7,7,0,0,1,2.23-.43,8.12,8.12,0,0,1,2.11.18,9.41,9.41,0,0,1,1.5.44v3.52l-2.21.08v-1.84a5.57,5.57,0,0,0-1.24-.09,3.83,3.83,0,0,0-1.11.21,2.85,2.85,0,0,0-1,.58,3,3,0,0,0-.7,1,3.11,3.11,0,0,0-.27,1.35,3,3,0,0,0,.22,1.17,2.68,2.68,0,0,0,.62.92,2.71,2.71,0,0,0,1,.59,3.53,3.53,0,0,0,1.31.18,4.8,4.8,0,0,0,1.88-.39,7.73,7.73,0,0,0,1.09-.6Z"/><path d="M403.05,434.16l-2,.08V432l2-.08v-2.28l2.61-.85v3l5.25-.23v2.2l-5.25.23v2.86a3.34,3.34,0,0,0,.58,2.21,1.92,1.92,0,0,0,1.62.62,3.54,3.54,0,0,0,1-.17,3.86,3.86,0,0,0,.79-0.37,4.74,4.74,0,0,0,.64-0.47l0.53-.46L412,440a4.11,4.11,0,0,1-.85.77,7.63,7.63,0,0,1-1.1.63,7.14,7.14,0,0,1-1.23.44,6,6,0,0,1-1.26.2,4.16,4.16,0,0,1-3.38-1.11,5.61,5.61,0,0,1-1.13-3.92v-2.86Z"/><path d="M413.46,436.51a6.28,6.28,0,0,1,.38-2.26,4.82,4.82,0,0,1,2.76-2.82,6.58,6.58,0,0,1,2.17-.46,6.17,6.17,0,0,1,2.25.27,4.36,4.36,0,0,1,1.67,1,4.2,4.2,0,0,1,1,1.62,6.22,6.22,0,0,1,.35,2.14,6.32,6.32,0,0,1-.38,2.26,4.84,4.84,0,0,1-2.76,2.83,6.54,6.54,0,0,1-2.17.46,6.13,6.13,0,0,1-2.25-.27,4.37,4.37,0,0,1-1.67-1,4.22,4.22,0,0,1-1-1.62A6.23,6.23,0,0,1,413.46,436.51Zm2.69-.13a3.9,3.9,0,0,0,.18,1.21,2.83,2.83,0,0,0,.52,1,2.2,2.2,0,0,0,.82.61,2.46,2.46,0,0,0,1.1.18,2.68,2.68,0,0,0,1.89-.83,3.36,3.36,0,0,0,.73-2.38,3.32,3.32,0,0,0-.68-2.2,2.24,2.24,0,0,0-1.94-.75,3.2,3.2,0,0,0-1,.22,2.19,2.19,0,0,0-.83.59,2.86,2.86,0,0,0-.55,1A4.39,4.39,0,0,0,416.14,436.38Z"/><path d="M425.56,438.7l2.48-.13V433l-2.48.13v-2.2l4.51-.25,0.3,1.3h0.08a5.75,5.75,0,0,1,1.28-1.17,3.32,3.32,0,0,1,1.68-.54,2.15,2.15,0,0,1,1.89.77,4.64,4.64,0,0,1,.69,2.9l-2.34.14a2,2,0,0,0-.21-1,0.7,0.7,0,0,0-.67-0.29,2.08,2.08,0,0,0-1.29.47,4.36,4.36,0,0,0-.83,1v4.26l4.35-.25v2.2l-9.44.53C425.56,440,425.56,439.58,425.56,438.7Z"/><path d="M438,438l3.53-.22v-5.6l-3.53.22v-2.2l6.13-.38v7.8l3.71-.24v2.2c-3.93.26-5.9,0.38-9.84,0.62V438Zm3-10.71a1.51,1.51,0,0,1,.46-1.09,1.89,1.89,0,0,1,1.28-.52,1.87,1.87,0,0,1,1.34.35,1.28,1.28,0,0,1,.5,1,1.39,1.39,0,0,1-.5,1.08,2.17,2.17,0,0,1-1.34.49,1.77,1.77,0,0,1-1.28-.33A1.26,1.26,0,0,1,441,427.3Z"/><path d="M450.62,430.08a11.87,11.87,0,0,1,1.85-.75,10.87,10.87,0,0,1,2.49-.43,5.41,5.41,0,0,1,1.77.13,2.71,2.71,0,0,1,1.18.63,2.47,2.47,0,0,1,.65,1.05,4.69,4.69,0,0,1,.2,1.43q0,1-.07,1.75c0,0.48-.07.91-0.07,1.29a8.59,8.59,0,0,0,0,.94c0,0.18,0,.36.06,0.54l1.3-.09v2.2l-3.36.24-0.26-1.34h-0.1a3.81,3.81,0,0,1-1.13,1.15,4,4,0,0,1-2,.59,3.19,3.19,0,0,1-2.37-.64,2.55,2.55,0,0,1-.88-2.06,3.31,3.31,0,0,1,.31-1.47,2.85,2.85,0,0,1,.9-1.06,4.6,4.6,0,0,1,1.41-.68,8.47,8.47,0,0,1,1.84-.32q0.36,0,.76,0h1a2.17,2.17,0,0,0,0-.4v-0.38a1.2,1.2,0,0,0-.44-1.06,2,2,0,0,0-1.29-.24,6.26,6.26,0,0,0-1.83.39,12.61,12.61,0,0,0-1.37.61Zm3.41,7.11a2.53,2.53,0,0,0,1.43-.45,2.62,2.62,0,0,0,.69-0.8v-1.2l-0.59,0a6.83,6.83,0,0,0-.85,0,4.2,4.2,0,0,0-.75.12,2.66,2.66,0,0,0-.67.27,1.46,1.46,0,0,0-.48.42,1,1,0,0,0-.18.59,1.07,1.07,0,0,0,.33.85A1.46,1.46,0,0,0,454,437.19Z"/><path d="M462.58,424.56l4.26-.32c0,3.7,0,5.54,0,9.24a4.11,4.11,0,0,0,.38,2.11,1.23,1.23,0,0,0,1.22.51,3.48,3.48,0,0,0,1-.21,4.28,4.28,0,0,0,.8-0.43l1,1.72-0.68.46a4.79,4.79,0,0,1-.72.38,5.2,5.2,0,0,1-.83.26,6.73,6.73,0,0,1-1,.15,3.56,3.56,0,0,1-2.82-.75,3.48,3.48,0,0,1-.94-2.65v-8.4l-1.66.12v-2.2Z"/><path d="M474.41,440l8.89-.73v2.14l-8.89.73C474.41,441.27,474.41,440.85,474.41,440Z"/><path d="M484.85,422.78l4-.35v5.12H489a3.84,3.84,0,0,1,1.28-1.13,4.63,4.63,0,0,1,1.88-.55,4.58,4.58,0,0,1,1.4.07,2.38,2.38,0,0,1,1.1.56,2.77,2.77,0,0,1,.72,1.18,6.09,6.09,0,0,1,.26,1.93v6.22l-2.6.24v-5.68a2.3,2.3,0,0,0-.52-1.71,1.67,1.67,0,0,0-1.36-.42,2.47,2.47,0,0,0-1.36.57,2.77,2.77,0,0,0-.88,1.23v6.38l-2.6.23c0-4.72,0-7.08,0-11.8l-1.44.12v-2.2Z"/><path d="M507.53,433.64a4.09,4.09,0,0,1-.67.54,7.32,7.32,0,0,1-1,.52,8.12,8.12,0,0,1-2.61.69,6.55,6.55,0,0,1-2.29-.14,3.93,3.93,0,0,1-2.78-2.45,5.88,5.88,0,0,1-.37-2.18,6.17,6.17,0,0,1,.42-2.35,5.25,5.25,0,0,1,1.15-1.76,5.44,5.44,0,0,1,1.71-1.15,7,7,0,0,1,2.12-.53,6.44,6.44,0,0,1,1.57,0,3.87,3.87,0,0,1,1.49.55,3.21,3.21,0,0,1,1.11,1.2,4.21,4.21,0,0,1,.43,2,9.8,9.8,0,0,1-.2,1.88l-7.2.69a2.16,2.16,0,0,0,.27,1.05,1.85,1.85,0,0,0,.66.66,2.59,2.59,0,0,0,.94.32,4.62,4.62,0,0,0,1.13,0,6.16,6.16,0,0,0,2-.47,4.73,4.73,0,0,0,1.25-.8Zm-4.32-6.72a3.48,3.48,0,0,0-1,.24,3.1,3.1,0,0,0-.83.5,2.61,2.61,0,0,0-.61.74,2.28,2.28,0,0,0-.28.94l4.92-.47A1.78,1.78,0,0,0,503.22,426.91Z"/><path d="M510.59,420.39l4.26-.43c0,3.7,0,5.54,0,9.24a4.06,4.06,0,0,0,.38,2.1,1.2,1.2,0,0,0,1.22.48,3.53,3.53,0,0,0,1-.24,4.41,4.41,0,0,0,.8-0.45l1,1.7-0.68.48a5,5,0,0,1-.72.39,5.31,5.31,0,0,1-.83.29,6.79,6.79,0,0,1-1,.17,3.48,3.48,0,0,1-2.82-.67,3.4,3.4,0,0,1-.94-2.63v-8.4l-1.66.17v-2.2Z"/><path d="M520.84,423.34l3.4-.36,0.3,1.17h0.08a4.31,4.31,0,0,1,3.35-1.85,4.58,4.58,0,0,1,1.69.1,2.85,2.85,0,0,1,1.32.76,3.72,3.72,0,0,1,.85,1.47,7.16,7.16,0,0,1,.3,2.23,7.72,7.72,0,0,1-.34,2.35,5.65,5.65,0,0,1-1,1.86,4.92,4.92,0,0,1-1.56,1.27,5.85,5.85,0,0,1-2.1.61,8.1,8.1,0,0,1-1.22,0,3.13,3.13,0,0,1-1-.18v4.1l-2.6.28v-11.8l-1.5.16v-2.2Zm6.35,1.24a2.9,2.9,0,0,0-1.39.53,2.29,2.29,0,0,0-.87,1.23v4.16a1.91,1.91,0,0,0,.81.26,4.34,4.34,0,0,0,1.07,0,3,3,0,0,0,1-.3,2.5,2.5,0,0,0,.84-0.7,3.41,3.41,0,0,0,.56-1.12,5.45,5.45,0,0,0,.2-1.56,2.71,2.71,0,0,0-.64-2A1.87,1.87,0,0,0,527.19,424.57Z"/><path d="M543.49,429.74a4.22,4.22,0,0,1-.67.55,7.49,7.49,0,0,1-1,.54,8.22,8.22,0,0,1-2.6.74,6.51,6.51,0,0,1-2.29-.1,3.82,3.82,0,0,1-2.78-2.39,5.83,5.83,0,0,1-.37-2.17,6.24,6.24,0,0,1,.42-2.36,5.4,5.4,0,0,1,1.15-1.78,5.58,5.58,0,0,1,1.71-1.19,7.09,7.09,0,0,1,2.12-.57,6.39,6.39,0,0,1,1.57,0,3.78,3.78,0,0,1,1.49.52,3.11,3.11,0,0,1,1.11,1.18,4.16,4.16,0,0,1,.43,2,9.87,9.87,0,0,1-.2,1.88l-7.19.84a2.13,2.13,0,0,0,.27,1,1.8,1.8,0,0,0,.66.64,2.54,2.54,0,0,0,.94.3,4.6,4.6,0,0,0,1.13,0,6.23,6.23,0,0,0,2-.51,4.85,4.85,0,0,0,1.25-.83Zm-4.31-6.64a3.53,3.53,0,0,0-1,.26,3.18,3.18,0,0,0-.83.51,2.69,2.69,0,0,0-.61.75,2.32,2.32,0,0,0-.28.95l4.91-.57a2,2,0,0,0-.55-1.51A2,2,0,0,0,539.18,423.1Z"/><path d="M545.58,428.35l2.47-.3v-5.6l-2.47.3v-2.2l4.49-.54,0.3,1.28h0.08a6.33,6.33,0,0,1,1.28-1.26,3.5,3.5,0,0,1,1.68-.65,2,2,0,0,1,1.88.65,4.44,4.44,0,0,1,.69,2.85l-2.33.29a1.88,1.88,0,0,0-.21-1,0.65,0.65,0,0,0-.67-0.25,2.21,2.21,0,0,0-1.29.56,4.81,4.81,0,0,0-.83,1v4.26l4.33-.53v2.2l-9.4,1.15v-2.2Z"/><path d="M565.85,432.25a8.4,8.4,0,0,1-2.71-.53,6.64,6.64,0,0,1-2.33-1.48,7.15,7.15,0,0,1-1.62-2.51,9.8,9.8,0,0,1-.61-3.64,11.11,11.11,0,0,1,.61-3.79,10.26,10.26,0,0,1,1.63-3,9.76,9.76,0,0,1,2.33-2.12,11.29,11.29,0,0,1,2.71-1.29l0.48,2.08a9.56,9.56,0,0,0-1.58.78,7,7,0,0,0-1.69,1.44,8,8,0,0,0-1.35,2.26,8.7,8.7,0,0,0-.55,3.27,6.9,6.9,0,0,0,.58,3,5.74,5.74,0,0,0,1.41,1.89,5.22,5.22,0,0,0,1.7,1,6.11,6.11,0,0,0,1.48.34Z"/><path d="M573.68,425.05a4.4,4.4,0,0,0,1.21-.33,3.4,3.4,0,0,0,.94-0.61,2.81,2.81,0,0,0,.61-0.8,2,2,0,0,0,.22-0.92,1.73,1.73,0,0,0-.25-1,1.48,1.48,0,0,0-.69-0.55,3,3,0,0,0-1.06-.19,8.43,8.43,0,0,0-1.34.08l-1.11.15v-1.44l3.35-4.56-5,.68v-2.2l8.13-1.1v1.82l-3.51,4.5,0.46-.06a3.76,3.76,0,0,1,1.35.05,2.84,2.84,0,0,1,1.17.56,2.93,2.93,0,0,1,.82,1.09,3.89,3.89,0,0,1,.31,1.62,4.52,4.52,0,0,1-.47,2.06,5.57,5.57,0,0,1-1.24,1.62,6.27,6.27,0,0,1-1.76,1.12,7.88,7.88,0,0,1-2.05.57,10.06,10.06,0,0,1-1.79.08,7.92,7.92,0,0,1-1.73-.27l0.7-2.25a2.41,2.41,0,0,0,.49.13l0.7,0.11a7.13,7.13,0,0,0,.8.05A5.58,5.58,0,0,0,573.68,425.05Z"/><path d="M585,424.12a1.58,1.58,0,0,1,.45-1.14,1.89,1.89,0,0,1,1.13-.56,1.72,1.72,0,0,1,1.65.48,2.5,2.5,0,0,1,.56,1.7,4.14,4.14,0,0,1-.35,1.69,5.29,5.29,0,0,1-.91,1.41,6.06,6.06,0,0,1-1.24,1.06,5.87,5.87,0,0,1-1.36.65l-0.54-1a6.66,6.66,0,0,0,1-.48,4.7,4.7,0,0,0,.89-0.68,3.77,3.77,0,0,0,.67-0.86,2.4,2.4,0,0,0,.31-1,2.61,2.61,0,0,1-1,.17,1.32,1.32,0,0,1-.69-0.22,1.08,1.08,0,0,1-.39-0.51A1.94,1.94,0,0,1,585,424.12Z"/><path d="M603,422.76l-8.87,1.32v-1.94l0.6-.62,0.81-.87q0.45-.49.95-1.06t1-1.18q0.68-.86,1.18-1.56a12,12,0,0,0,.84-1.3,5.7,5.7,0,0,0,.49-1.15,4,4,0,0,0,.16-1.11,1.64,1.64,0,0,0-.18-0.75,1.71,1.71,0,0,0-.5-0.6,2,2,0,0,0-.77-0.35,2.64,2.64,0,0,0-1,0,4.1,4.1,0,0,0-1.3.41,5.45,5.45,0,0,0-1.22.92l-1-1.69a10.68,10.68,0,0,1,1.86-1.28,7,7,0,0,1,2.36-.76,5.42,5.42,0,0,1,1.64,0,3.66,3.66,0,0,1,1.39.5,2.77,2.77,0,0,1,1,1,3.19,3.19,0,0,1,.36,1.57,6.38,6.38,0,0,1-.11,1.21,6.58,6.58,0,0,1-.34,1.15,9,9,0,0,1-.6,1.22q-0.37.64-.89,1.39-0.4.58-.87,1.18T599,419.56q-0.46.55-.91,1t-0.81.82l5.73-.86v2.2Z"/><path d="M607,424.22a8,8,0,0,0,1.47-.76,7.78,7.78,0,0,0,1.7-1.48,8.47,8.47,0,0,0,1.4-2.29,8.09,8.09,0,0,0,.58-3.19,7.55,7.55,0,0,0-.55-3.11,5.42,5.42,0,0,0-1.34-1.88,4.69,4.69,0,0,0-1.68-1,7.4,7.4,0,0,0-1.58-.33l0.48-2.21a8.74,8.74,0,0,1,2.7.52,6.48,6.48,0,0,1,2.33,1.46,7.07,7.07,0,0,1,1.62,2.49,9.71,9.71,0,0,1,.61,3.61,11.29,11.29,0,0,1-.61,3.82,10.35,10.35,0,0,1-1.62,3,9.94,9.94,0,0,1-2.33,2.14,10.76,10.76,0,0,1-2.7,1.3Z"/><path d="M41.93,369.94v-2.2l2.34,0.37v-5.6l-2.37-.37v-2.2l2.37,0.37v-0.56a3.37,3.37,0,0,1,.33-1.57,2.6,2.6,0,0,1,.86-1,3,3,0,0,1,1.24-.46,5,5,0,0,1,1.46,0,10,10,0,0,1,2.26.58,6.86,6.86,0,0,1,1.46.79L51.14,360a10.8,10.8,0,0,0-1-.55,4.73,4.73,0,0,0-1.36-.39,1.72,1.72,0,0,0-1.5.26,1.92,1.92,0,0,0-.43,1.4L51,361.36v2.2l-4.18-.64v5.6l4.2,0.65v2.2Z"/><path d="M54.24,362.53a9.8,9.8,0,0,1,1.84-.34,10.27,10.27,0,0,1,2.48.11,6,6,0,0,1,1.76.51,3.6,3.6,0,0,1,1.17.88,3.27,3.27,0,0,1,.65,1.2,5.16,5.16,0,0,1,.2,1.47q0,1-.07,1.73c0,0.47-.07.9-0.07,1.27a8.78,8.78,0,0,0,0,.95c0,0.19,0,.37.06,0.55L63.59,371v2.2l-3.34-.49L60,371.35h-0.1a2.76,2.76,0,0,1-1.13.9,3.5,3.5,0,0,1-2,.15,3.89,3.89,0,0,1-2.35-1.15,3.18,3.18,0,0,1-.87-2.25,2.91,2.91,0,0,1,.31-1.4,2.07,2.07,0,0,1,.89-0.87,3.69,3.69,0,0,1,1.4-.37,8,8,0,0,1,1.83.08q0.36,0.05.75,0.15l1,0.22a2,2,0,0,0,0-.39V366a1.48,1.48,0,0,0-.43-1.16,2.41,2.41,0,0,0-1.28-.52,5.78,5.78,0,0,0-1.82,0,10.25,10.25,0,0,0-1.36.31Zm3.39,7.85a2.19,2.19,0,0,0,1.42-.14,1.89,1.89,0,0,0,.69-0.65v-1.2l-0.59-.18a7.19,7.19,0,0,0-.85-0.18,4,4,0,0,0-.75,0,2.21,2.21,0,0,0-.67.12,1.07,1.07,0,0,0-.47.32,0.84,0.84,0,0,0-.18.55,1.31,1.31,0,0,0,.32.92A1.75,1.75,0,0,0,57.63,370.38Z"/><path d="M75.26,373.95a4.9,4.9,0,0,1-1.91.66,8.09,8.09,0,0,1-2.29,0,7.11,7.11,0,0,1-2.3-.71,5.73,5.73,0,0,1-1.69-1.31,5.48,5.48,0,0,1-1-1.82,6.69,6.69,0,0,1-.36-2.21,5.23,5.23,0,0,1,.42-2.18,3.85,3.85,0,0,1,1.16-1.49A4.22,4.22,0,0,1,69,364.1a6.51,6.51,0,0,1,2.21,0,8.78,8.78,0,0,1,2.09.56,11.13,11.13,0,0,1,1.49.71v3.52l-2.19-.31V366.7a6,6,0,0,0-1.23-.32,3.59,3.59,0,0,0-1.1,0,2.24,2.24,0,0,0-1.67,1.23,2.83,2.83,0,0,0-.27,1.3,3.36,3.36,0,0,0,.22,1.21,3.36,3.36,0,0,0,1.6,1.8,3.91,3.91,0,0,0,1.3.42,4.45,4.45,0,0,0,1.86-.06,6.33,6.33,0,0,0,1.09-.41Z"/><path d="M78.64,367.58l-2-.27v-2.2l2,0.27V363.1l2.59-.38c0,1.21,0,1.81,0,3l5.22,0.7v2.2l-5.22-.7v2.86a3.82,3.82,0,0,0,.58,2.31,2.32,2.32,0,0,0,1.61.91,3.32,3.32,0,0,0,1,0,3.2,3.2,0,0,0,.79-0.22,3.7,3.7,0,0,0,.64-0.35l0.53-.37,1.2,2a3.16,3.16,0,0,1-.85.62,6.24,6.24,0,0,1-2.32.66,5.71,5.71,0,0,1-1.26,0,4.94,4.94,0,0,1-3.36-1.71,6.48,6.48,0,0,1-1.13-4.13C78.64,369.29,78.64,368.72,78.64,367.58Z"/><path d="M89,371.77a5.78,5.78,0,0,1,.38-2.19,3.84,3.84,0,0,1,1.08-1.52,3.89,3.89,0,0,1,1.66-.81,6.1,6.1,0,0,1,2.16-.07,6.79,6.79,0,0,1,2.24.67,5.54,5.54,0,0,1,1.67,1.28,5.31,5.31,0,0,1,1,1.8,6.81,6.81,0,0,1,.35,2.2,5.81,5.81,0,0,1-.38,2.19,3.77,3.77,0,0,1-2.74,2.34,6.07,6.07,0,0,1-2.16.07,6.75,6.75,0,0,1-2.24-.67,5.55,5.55,0,0,1-1.66-1.29,5.32,5.32,0,0,1-1-1.8A6.81,6.81,0,0,1,89,371.77Zm2.67,0.35a4.2,4.2,0,0,0,.18,1.24,3.49,3.49,0,0,0,.52,1,2.83,2.83,0,0,0,.82.76,2.75,2.75,0,0,0,1.1.37,2.27,2.27,0,0,0,1.88-.5,2.9,2.9,0,0,0,.73-2.25,3.85,3.85,0,0,0-.68-2.32,2.7,2.7,0,0,0-1.93-1.1,3,3,0,0,0-1,0,1.72,1.72,0,0,0-.83.44,2.28,2.28,0,0,0-.55.89A4.08,4.08,0,0,0,91.66,372.12Z"/><path d="M101,376.12l2.47,0.31v-5.6l-2.47-.31v-2.2l4.49,0.56,0.3,1.36h0.08a4.42,4.42,0,0,1,1.28-.94,2.94,2.94,0,0,1,1.68-.24,2.6,2.6,0,0,1,1.89,1.11,5.25,5.25,0,0,1,.69,3l-2.34-.28a2.16,2.16,0,0,0-.21-1.07,0.84,0.84,0,0,0-.67-0.41,1.81,1.81,0,0,0-1.29.24,3.37,3.37,0,0,0-.83.82v4.26l4.33,0.52v2.2l-9.4-1.15v-2.2Z"/><path d="M113.4,377.62l3.51,0.41v-5.6L113.4,372v-2.2l6.11,0.71v7.8l3.69,0.42V381c-3.92-.44-5.88-0.67-9.8-1.13v-2.2Zm3-10.16a1.26,1.26,0,0,1,.46-1,1.62,1.62,0,0,1,1.28-.29,2.19,2.19,0,0,1,1.34.59,1.55,1.55,0,0,1,.5,1.12,1.15,1.15,0,0,1-.5,1,1.88,1.88,0,0,1-1.34.26,2.07,2.07,0,0,1-1.28-.56A1.51,1.51,0,0,1,116.43,367.46Z"/><path d="M126,371.95a10.1,10.1,0,0,1,1.85-.42,10.32,10.32,0,0,1,2.49,0,5.86,5.86,0,0,1,1.77.44,3.42,3.42,0,0,1,1.18.84,3.1,3.1,0,0,1,.65,1.17,5.06,5.06,0,0,1,.2,1.46c0,0.68,0,1.26-.07,1.73s-0.07.9-.07,1.27a8.71,8.71,0,0,0,0,.94c0,0.19,0,.37.06,0.55l1.3,0.14v2.2l-3.35-.36-0.26-1.39h-0.1a2.93,2.93,0,0,1-1.13.95,3.57,3.57,0,0,1-2,.23,3.74,3.74,0,0,1-2.36-1.06,3.05,3.05,0,0,1-.87-2.22,3,3,0,0,1,.31-1.42,2.19,2.19,0,0,1,.89-0.9,3.83,3.83,0,0,1,1.41-.42,8.07,8.07,0,0,1,1.84,0q0.36,0,.75.12l1,0.19a2,2,0,0,0,0-.4v-0.38a1.42,1.42,0,0,0-.44-1.14,2.32,2.32,0,0,0-1.29-.47,5.84,5.84,0,0,0-1.82.06,10.62,10.62,0,0,0-1.37.37Zm3.4,7.71a2.24,2.24,0,0,0,1.42-.19,2,2,0,0,0,.69-0.68v-1.2l-0.59-.15a7.09,7.09,0,0,0-.85-0.14,4,4,0,0,0-.75,0,2.28,2.28,0,0,0-.67.15,1.13,1.13,0,0,0-.47.34,0.86,0.86,0,0,0-.18.56,1.26,1.26,0,0,0,.33.91A1.69,1.69,0,0,0,129.4,379.66Z"/><path d="M137.92,368.56l4.26,0.44c0,3.7,0,5.54,0,9.24a4.54,4.54,0,0,0,.38,2.18,1.5,1.5,0,0,0,1.22.72,3.27,3.27,0,0,0,1,0,3.5,3.5,0,0,0,.8-0.29l1,1.9-0.68.34a3.94,3.94,0,0,1-.72.25,4.61,4.61,0,0,1-.83.12,6.51,6.51,0,0,1-1,0,4.17,4.17,0,0,1-2.82-1.25,4.09,4.09,0,0,1-.94-2.82v-8.4l-1.66-.17v-2.2Z"/><path d="M149.73,386.09l8.88,0.85v2.14l-8.88-.85v-2.14Z"/><path d="M160.17,370.74l4,0.37v5.12h0.08a3,3,0,0,1,1.28-.91,4.18,4.18,0,0,1,1.88-.21,4.94,4.94,0,0,1,1.4.32,3,3,0,0,1,1.1.76,3.48,3.48,0,0,1,.72,1.31,6.54,6.54,0,0,1,.26,2v6.22l-2.6-.23V379.8a2.66,2.66,0,0,0-.52-1.81,2,2,0,0,0-1.36-.66,2.12,2.12,0,0,0-1.36.33,2.15,2.15,0,0,0-.88,1.07v6.38l-2.6-.24v-11.8l-1.44-.13C160.17,372.06,160.17,371.62,160.17,370.74Z"/><path d="M182.86,385.63a3.22,3.22,0,0,1-.67.42,6,6,0,0,1-1,.35,7,7,0,0,1-1.21.22,7.71,7.71,0,0,1-1.4,0,7.1,7.1,0,0,1-2.29-.55,5,5,0,0,1-2.78-2.94,6.41,6.41,0,0,1-.37-2.24,5.61,5.61,0,0,1,.42-2.27,4.11,4.11,0,0,1,1.15-1.55,4.34,4.34,0,0,1,1.71-.85,6.46,6.46,0,0,1,2.12-.15,6.87,6.87,0,0,1,1.57.33,4.74,4.74,0,0,1,1.49.81,4.14,4.14,0,0,1,1.11,1.4,4.67,4.67,0,0,1,.43,2.11,9.33,9.33,0,0,1-.2,1.84l-7.2-.59a2.45,2.45,0,0,0,.27,1.1,2.4,2.4,0,0,0,.66.77,3.15,3.15,0,0,0,.94.49,4.9,4.9,0,0,0,1.13.22,5.69,5.69,0,0,0,2-.12,3.76,3.76,0,0,0,1.25-.58Zm-4.32-7.49a3.22,3.22,0,0,0-1,.06,2.5,2.5,0,0,0-.83.35,2,2,0,0,0-.61.63,2,2,0,0,0-.28.89l4.92,0.4A2.17,2.17,0,0,0,178.53,378.14Z"/><path d="M185.92,372.94l4.26,0.33v9.24a4.46,4.46,0,0,0,.38,2.17,1.46,1.46,0,0,0,1.22.69,3.29,3.29,0,0,0,1-.05,3.61,3.61,0,0,0,.8-0.31l1,1.87-0.68.36a4.05,4.05,0,0,1-.72.27,4.69,4.69,0,0,1-.83.14,6.52,6.52,0,0,1-1,0,4.07,4.07,0,0,1-2.82-1.17,4,4,0,0,1-.94-2.79v-8.4l-1.66-.13v-2.2Z"/><path d="M196.19,377.71l3.4,0.24,0.3,1.22H200a3.58,3.58,0,0,1,3.36-1.25,5,5,0,0,1,1.69.41,3.63,3.63,0,0,1,1.32,1,4.63,4.63,0,0,1,.85,1.62,7.66,7.66,0,0,1,.3,2.28,7.12,7.12,0,0,1-.34,2.29,4.51,4.51,0,0,1-1,1.68,3.84,3.84,0,0,1-1.56,1,5.31,5.31,0,0,1-2.1.24,8.38,8.38,0,0,1-1.22-.17,3.6,3.6,0,0,1-1-.36V392l-2.6-.18V380l-1.5-.11v-2.2Zm6.37,2.37a2.53,2.53,0,0,0-1.39.28,1.79,1.79,0,0,0-.87,1.08v4.16a2.31,2.31,0,0,0,.81.41,4.6,4.6,0,0,0,1.07.2,2.73,2.73,0,0,0,1-.12,1.94,1.94,0,0,0,.84-0.55,2.73,2.73,0,0,0,.56-1,5.07,5.07,0,0,0,.2-1.53,3.14,3.14,0,0,0-.64-2.08A2.24,2.24,0,0,0,202.56,380.08Z"/><path d="M218.9,388.15a3.28,3.28,0,0,1-.67.43,6.05,6.05,0,0,1-1,.37,7.13,7.13,0,0,1-1.21.25,7.74,7.74,0,0,1-1.4,0,7,7,0,0,1-2.29-.5,4.91,4.91,0,0,1-2.78-2.89,6.35,6.35,0,0,1-.37-2.23,5.66,5.66,0,0,1,.42-2.28,4.23,4.23,0,0,1,1.15-1.58,4.45,4.45,0,0,1,1.71-.88,6.5,6.5,0,0,1,2.12-.2,6.8,6.8,0,0,1,1.57.3,4.62,4.62,0,0,1,1.49.78,4,4,0,0,1,1.11,1.38,4.62,4.62,0,0,1,.43,2.11,9.3,9.3,0,0,1-.2,1.85l-7.21-.45a2.41,2.41,0,0,0,.27,1.1,2.34,2.34,0,0,0,.66.76,3.09,3.09,0,0,0,.94.47,4.86,4.86,0,0,0,1.13.2,5.73,5.73,0,0,0,2-.16,3.87,3.87,0,0,0,1.25-.6Zm-4.33-7.4a3.25,3.25,0,0,0-1,.08,2.56,2.56,0,0,0-.83.37,2.09,2.09,0,0,0-.61.64,2,2,0,0,0-.28.9L216.8,383A2.12,2.12,0,0,0,214.57,380.74Z"/><path d="M221,387.13l2.48,0.14v-5.6l-2.48-.14v-2.2l4.51,0.26,0.3,1.34h0.08a4.88,4.88,0,0,1,1.28-1,3.06,3.06,0,0,1,1.68-.35,2.42,2.42,0,0,1,1.89,1,5,5,0,0,1,.69,3l-2.34-.13a2.08,2.08,0,0,0-.21-1.06,0.79,0.79,0,0,0-.67-0.37,1.9,1.9,0,0,0-1.29.33,3.7,3.7,0,0,0-.83.87v4.26l4.35,0.24c0,0.88,0,1.32,0,2.2l-9.44-.53v-2.2Z"/><path d="M241.37,394.66a9.73,9.73,0,0,1-2.73-1,8.56,8.56,0,0,1-2.34-1.9,9,9,0,0,1-1.63-2.8,10.64,10.64,0,0,1-.61-3.75,10.15,10.15,0,0,1,.61-3.68,8.14,8.14,0,0,1,1.63-2.67,7.57,7.57,0,0,1,2.34-1.7,9.54,9.54,0,0,1,2.73-.81l0.48,2.16a8,8,0,0,0-1.59.49,5.44,5.44,0,0,0-1.69,1.14,6.27,6.27,0,0,0-1.35,2,7.91,7.91,0,0,0-.55,3.17,7.58,7.58,0,0,0,.58,3.13,7.36,7.36,0,0,0,1.41,2.14,6.71,6.71,0,0,0,1.71,1.3,7.17,7.17,0,0,0,1.48.6Z"/><path d="M249.25,388.85a4,4,0,0,0,1.21-.12,2.73,2.73,0,0,0,.94-0.44,2.16,2.16,0,0,0,.61-0.69,1.78,1.78,0,0,0,.22-0.88,2,2,0,0,0-.25-1,1.93,1.93,0,0,0-.69-0.68,3.46,3.46,0,0,0-1.06-.38,8.66,8.66,0,0,0-1.34-.16l-1.12,0V383l3.37-4-5.07-.22v-2.2l8.18,0.35v1.82l-3.53,3.87,0.46,0a4.07,4.07,0,0,1,1.36.3,3.59,3.59,0,0,1,1.17.77,3.76,3.76,0,0,1,.82,1.23,4.26,4.26,0,0,1,.31,1.67,4,4,0,0,1-.47,2,4.31,4.31,0,0,1-1.24,1.4,5.07,5.07,0,0,1-1.77.81,7.25,7.25,0,0,1-2.06.2,10.42,10.42,0,0,1-1.8-.24,9,9,0,0,1-1.74-.58l0.7-2.13a2.88,2.88,0,0,0,.49.22l0.7,0.23a7.8,7.8,0,0,0,.8.19A5.73,5.73,0,0,0,249.25,388.85Z"/><path d="M260.67,390a1.32,1.32,0,0,1,.45-1.06,1.6,1.6,0,0,1,1.13-.36,2.06,2.06,0,0,1,1.66.78,2.89,2.89,0,0,1,.56,1.8,3.7,3.7,0,0,1-.35,1.63,4.12,4.12,0,0,1-.91,1.25,4.71,4.71,0,0,1-1.25.83,5,5,0,0,1-1.37.41l-0.54-1.12a5.61,5.61,0,0,0,1-.3,3.7,3.7,0,0,0,.89-0.52,2.92,2.92,0,0,0,.67-0.75,2.05,2.05,0,0,0,.31-0.95,2.55,2.55,0,0,1-1,0,1.61,1.61,0,0,1-.69-0.34,1.38,1.38,0,0,1-.39-0.57A2.11,2.11,0,0,1,260.67,390Z"/><path d="M278.82,391.81l-8.94-.26v-1.94l0.6-.51,0.81-.72q0.45-.41,1-0.89t1-1q0.68-.74,1.19-1.34a9.34,9.34,0,0,0,.84-1.15,4.67,4.67,0,0,0,.49-1.06,3.69,3.69,0,0,0,.16-1.09,1.83,1.83,0,0,0-.18-0.78,2.22,2.22,0,0,0-.5-0.68,2.49,2.49,0,0,0-.77-0.48,2.85,2.85,0,0,0-1-.2,3.71,3.71,0,0,0-1.31.18,4.31,4.31,0,0,0-1.23.7l-1-1.87a8.53,8.53,0,0,1,1.88-1,6.34,6.34,0,0,1,2.38-.34,5.76,5.76,0,0,1,1.65.29,4.51,4.51,0,0,1,1.4.75,3.6,3.6,0,0,1,1,1.2,3.55,3.55,0,0,1,.36,1.63,6,6,0,0,1-.11,1.19,5.64,5.64,0,0,1-.34,1.09,7.24,7.24,0,0,1-.6,1.11q-0.37.57-.89,1.23-0.4.51-.87,1t-0.93,1q-0.46.47-.91,0.87t-0.81.68l5.78,0.17v2.2Z"/><path d="M282.77,394a6.71,6.71,0,0,0,1.48-.49A6.06,6.06,0,0,0,286,392.3a6.64,6.64,0,0,0,1.41-2,7.28,7.28,0,0,0,.58-3.09,8.21,8.21,0,0,0-.55-3.21,6.92,6.92,0,0,0-1.35-2.12,6,6,0,0,0-1.69-1.26,8.66,8.66,0,0,0-1.59-.61l0.48-2.13a10.17,10.17,0,0,1,2.73,1,8.39,8.39,0,0,1,2.35,1.87,8.94,8.94,0,0,1,1.63,2.78,10.51,10.51,0,0,1,.61,3.72,10.28,10.28,0,0,1-.61,3.71,8.22,8.22,0,0,1-1.63,2.68,7.72,7.72,0,0,1-2.35,1.73,9.13,9.13,0,0,1-2.73.81Z"/><path d="M366,392.09v-2.2l2.37-.05v-5.6l-2.39.05v-2.2l2.39-.05v-0.56a3.71,3.71,0,0,1,.33-1.63,3.35,3.35,0,0,1,.87-1.14,3.68,3.68,0,0,1,1.25-.68,5.26,5.26,0,0,1,1.47-.24,9.32,9.32,0,0,1,2.28.17,5.69,5.69,0,0,1,1.47.53l-0.76,2a9,9,0,0,0-1-.38A4.34,4.34,0,0,0,373,380a2,2,0,0,0-1.52.53A2.21,2.21,0,0,0,371,382l4.21-.1v2.2l-4.21.1v5.6l4.23-.1v2.2Z"/><path d="M378.47,382.47a11.43,11.43,0,0,1,1.86-.67,10.7,10.7,0,0,1,2.5-.33,5.49,5.49,0,0,1,1.78.2,2.85,2.85,0,0,1,1.18.67,2.6,2.6,0,0,1,.65,1.08,4.76,4.76,0,0,1,.2,1.43q0,1-.07,1.74c0,0.48-.07.91-0.07,1.28a8.66,8.66,0,0,0,0,.94c0,0.18,0,.37.06,0.54l1.3,0v2.2l-3.37.11-0.26-1.35h-0.1a3.6,3.6,0,0,1-1.14,1.1,3.88,3.88,0,0,1-2,.51,3.3,3.3,0,0,1-2.37-.73,2.66,2.66,0,0,1-.88-2.1,3.23,3.23,0,0,1,.31-1.46,2.7,2.7,0,0,1,.9-1,4.42,4.42,0,0,1,1.42-.62,8.35,8.35,0,0,1,1.84-.24q0.36,0,.76,0l1,0.05a2.14,2.14,0,0,0,0-.4V385a1.24,1.24,0,0,0-.44-1.08,2.09,2.09,0,0,0-1.29-.29,6.14,6.14,0,0,0-1.83.31,12.12,12.12,0,0,0-1.37.56Zm3.41,7.24a2.24,2.24,0,0,0,2.12-1.16v-1.2l-0.6-.07a6.86,6.86,0,0,0-.85,0,4.14,4.14,0,0,0-.75.09,2.57,2.57,0,0,0-.67.24,1.38,1.38,0,0,0-.48.4,1,1,0,0,0-.18.59,1.11,1.11,0,0,0,.33.86A1.51,1.51,0,0,0,381.88,389.72Z"/><path d="M399.64,390.13a6,6,0,0,1-1.92,1,8.57,8.57,0,0,1-2.31.4,6.44,6.44,0,0,1-2.32-.3,4.51,4.51,0,0,1-1.7-1,4.34,4.34,0,0,1-1.05-1.63,6.12,6.12,0,0,1-.36-2.15,5.73,5.73,0,0,1,.42-2.25,5,5,0,0,1,1.17-1.7,5.3,5.3,0,0,1,1.77-1.09,7,7,0,0,1,2.23-.43,8.12,8.12,0,0,1,2.11.18,9.41,9.41,0,0,1,1.5.44v3.52l-2.21.08v-1.84a5.57,5.57,0,0,0-1.24-.09,3.83,3.83,0,0,0-1.11.21,2.85,2.85,0,0,0-1,.58,3,3,0,0,0-.7,1,3.11,3.11,0,0,0-.27,1.35,3,3,0,0,0,.22,1.17A2.62,2.62,0,0,0,394.5,389a3.53,3.53,0,0,0,1.31.18,4.8,4.8,0,0,0,1.88-.39,7.74,7.74,0,0,0,1.09-.6Z"/><path d="M403.05,383.15l-2,.08V381l2-.08v-2.28l2.61-.85v3l5.25-.23v2.2l-5.25.23v2.86a3.34,3.34,0,0,0,.58,2.21,1.92,1.92,0,0,0,1.62.62,3.54,3.54,0,0,0,1-.17,3.86,3.86,0,0,0,.79-0.37,4.74,4.74,0,0,0,.64-0.47l0.53-.46L412,389a4.1,4.1,0,0,1-.85.77,7.63,7.63,0,0,1-1.1.63,7.14,7.14,0,0,1-1.23.44,6,6,0,0,1-1.26.2,4.16,4.16,0,0,1-3.38-1.11,5.61,5.61,0,0,1-1.13-3.92v-2.86Z"/><path d="M413.46,385.5a6.28,6.28,0,0,1,.38-2.26,4.82,4.82,0,0,1,2.76-2.82,6.58,6.58,0,0,1,2.17-.46,6.17,6.17,0,0,1,2.25.27,4.36,4.36,0,0,1,1.67,1,4.2,4.2,0,0,1,1,1.62,6.22,6.22,0,0,1,.35,2.14,6.32,6.32,0,0,1-.38,2.26,4.84,4.84,0,0,1-2.76,2.83,6.54,6.54,0,0,1-2.17.46,6.13,6.13,0,0,1-2.25-.27,4.37,4.37,0,0,1-1.67-1,4.22,4.22,0,0,1-1-1.62A6.23,6.23,0,0,1,413.46,385.5Zm2.69-.13a3.9,3.9,0,0,0,.18,1.21,2.83,2.83,0,0,0,.52,1,2.2,2.2,0,0,0,.82.61,2.46,2.46,0,0,0,1.1.18,2.68,2.68,0,0,0,1.89-.83,3.36,3.36,0,0,0,.73-2.38,3.32,3.32,0,0,0-.68-2.2,2.24,2.24,0,0,0-1.94-.75,3.2,3.2,0,0,0-1,.22,2.19,2.19,0,0,0-.83.59,2.86,2.86,0,0,0-.55,1A4.39,4.39,0,0,0,416.14,385.37Z"/><path d="M425.56,387.7l2.48-.13V382l-2.48.13v-2.2l4.51-.25,0.3,1.3h0.08a5.75,5.75,0,0,1,1.28-1.17,3.32,3.32,0,0,1,1.68-.54,2.15,2.15,0,0,1,1.89.77,4.64,4.64,0,0,1,.69,2.9l-2.34.14a2,2,0,0,0-.21-1,0.7,0.7,0,0,0-.67-0.29,2.08,2.08,0,0,0-1.29.47,4.36,4.36,0,0,0-.83,1v4.26l4.35-.25v2.2l-9.44.53C425.56,389,425.56,388.58,425.56,387.7Z"/><path d="M438,387l3.53-.22v-5.6l-3.53.22v-2.2l6.13-.38v7.8l3.71-.24v2.2c-3.93.26-5.9,0.38-9.84,0.62V387Zm3-10.7a1.51,1.51,0,0,1,.46-1.09,1.89,1.89,0,0,1,1.28-.52,1.87,1.87,0,0,1,1.34.35,1.28,1.28,0,0,1,.5,1,1.39,1.39,0,0,1-.5,1.08,2.17,2.17,0,0,1-1.34.49,1.77,1.77,0,0,1-1.28-.33A1.26,1.26,0,0,1,441,376.29Z"/><path d="M450.62,379.07a11.87,11.87,0,0,1,1.85-.75,10.87,10.87,0,0,1,2.49-.43,5.41,5.41,0,0,1,1.77.13,2.71,2.71,0,0,1,1.18.63,2.47,2.47,0,0,1,.65,1.05,4.69,4.69,0,0,1,.2,1.43q0,1-.07,1.75c0,0.48-.07.91-0.07,1.29a8.59,8.59,0,0,0,0,.94c0,0.18,0,.36.06,0.54l1.3-.09v2.2l-3.36.24-0.26-1.34h-0.1a3.81,3.81,0,0,1-1.13,1.15,4,4,0,0,1-2,.59,3.19,3.19,0,0,1-2.37-.64,2.55,2.55,0,0,1-.88-2.06,3.31,3.31,0,0,1,.31-1.47,2.85,2.85,0,0,1,.9-1.06,4.6,4.6,0,0,1,1.41-.68,8.47,8.47,0,0,1,1.84-.32q0.36,0,.76,0h1a2.17,2.17,0,0,0,0-.4v-0.38a1.19,1.19,0,0,0-.44-1.06,2,2,0,0,0-1.29-.24,6.26,6.26,0,0,0-1.83.39,12.61,12.61,0,0,0-1.37.61Zm3.41,7.11a2.53,2.53,0,0,0,1.43-.45,2.62,2.62,0,0,0,.69-0.8v-1.2l-0.59,0a6.82,6.82,0,0,0-.85,0,4.2,4.2,0,0,0-.75.12,2.66,2.66,0,0,0-.67.27,1.46,1.46,0,0,0-.48.42,1,1,0,0,0-.18.59,1.07,1.07,0,0,0,.33.85A1.46,1.46,0,0,0,454,386.18Z"/><path d="M462.58,373.55l4.26-.32c0,3.7,0,5.54,0,9.24a4.11,4.11,0,0,0,.38,2.11,1.23,1.23,0,0,0,1.22.51,3.49,3.49,0,0,0,1-.21,4.28,4.28,0,0,0,.8-0.43l1,1.72-0.68.46a4.79,4.79,0,0,1-.72.38,5.2,5.2,0,0,1-.83.26,6.73,6.73,0,0,1-1,.15,3.56,3.56,0,0,1-2.82-.75,3.48,3.48,0,0,1-.94-2.65v-8.4l-1.66.12v-2.2Z"/><path d="M474.41,389l8.89-.73v2.14l-8.89.73C474.41,390.26,474.41,389.84,474.41,389Z"/><path d="M484.85,371.78l4-.35v5.12H489a3.84,3.84,0,0,1,1.28-1.13,4.63,4.63,0,0,1,1.88-.55,4.58,4.58,0,0,1,1.4.07,2.38,2.38,0,0,1,1.1.56,2.77,2.77,0,0,1,.72,1.18,6.09,6.09,0,0,1,.26,1.93v6.22l-2.6.24v-5.68a2.3,2.3,0,0,0-.52-1.71,1.67,1.67,0,0,0-1.36-.42,2.47,2.47,0,0,0-1.36.57,2.77,2.77,0,0,0-.88,1.23v6.38l-2.6.23c0-4.72,0-7.08,0-11.8l-1.44.12v-2.2Z"/><path d="M507.53,382.63a4.09,4.09,0,0,1-.67.54,7.31,7.31,0,0,1-1,.52,8.12,8.12,0,0,1-2.61.69,6.55,6.55,0,0,1-2.29-.14,3.93,3.93,0,0,1-2.78-2.45,5.88,5.88,0,0,1-.37-2.18,6.17,6.17,0,0,1,.42-2.35,5.25,5.25,0,0,1,1.15-1.76,5.44,5.44,0,0,1,1.71-1.15,7,7,0,0,1,2.12-.53,6.44,6.44,0,0,1,1.57,0,3.87,3.87,0,0,1,1.49.55,3.2,3.2,0,0,1,1.11,1.2,4.21,4.21,0,0,1,.43,2,9.8,9.8,0,0,1-.2,1.88l-7.2.69a2.16,2.16,0,0,0,.27,1.05,1.85,1.85,0,0,0,.66.66,2.59,2.59,0,0,0,.94.32,4.62,4.62,0,0,0,1.13,0,6.16,6.16,0,0,0,2-.47,4.73,4.73,0,0,0,1.25-.8Zm-4.32-6.72a3.49,3.49,0,0,0-1,.24,3.1,3.1,0,0,0-.83.5,2.61,2.61,0,0,0-.61.74,2.28,2.28,0,0,0-.28.94l4.92-.47A1.78,1.78,0,0,0,503.22,375.91Z"/><path d="M510.59,369.38l4.26-.43c0,3.7,0,5.54,0,9.24a4.06,4.06,0,0,0,.38,2.1,1.2,1.2,0,0,0,1.22.48,3.53,3.53,0,0,0,1-.24,4.41,4.41,0,0,0,.8-0.45l1,1.7-0.68.48a4.94,4.94,0,0,1-.72.39,5.31,5.31,0,0,1-.83.29,6.79,6.79,0,0,1-1,.17,3.48,3.48,0,0,1-2.82-.67,3.4,3.4,0,0,1-.94-2.63v-8.4l-1.66.17v-2.2Z"/><path d="M520.84,372.33l3.4-.36,0.3,1.17h0.08a4.31,4.31,0,0,1,3.35-1.85,4.58,4.58,0,0,1,1.69.1,2.85,2.85,0,0,1,1.32.76,3.72,3.72,0,0,1,.85,1.47,7.16,7.16,0,0,1,.3,2.23,7.72,7.72,0,0,1-.34,2.35,5.65,5.65,0,0,1-1,1.86,4.92,4.92,0,0,1-1.56,1.27,5.85,5.85,0,0,1-2.1.61,8.1,8.1,0,0,1-1.22,0,3.13,3.13,0,0,1-1-.18v4.1l-2.6.28v-11.8l-1.5.16v-2.2Zm6.35,1.24a2.9,2.9,0,0,0-1.39.53,2.29,2.29,0,0,0-.87,1.23v4.16a1.91,1.91,0,0,0,.81.26,4.34,4.34,0,0,0,1.07,0,3,3,0,0,0,1-.3,2.5,2.5,0,0,0,.84-0.7,3.41,3.41,0,0,0,.56-1.12,5.45,5.45,0,0,0,.2-1.56,2.71,2.71,0,0,0-.64-2A1.87,1.87,0,0,0,527.19,373.56Z"/><path d="M543.49,378.73a4.22,4.22,0,0,1-.67.55,7.49,7.49,0,0,1-1,.54,8.22,8.22,0,0,1-2.6.74,6.51,6.51,0,0,1-2.29-.1,3.82,3.82,0,0,1-2.78-2.39,5.83,5.83,0,0,1-.37-2.17,6.24,6.24,0,0,1,.42-2.36,5.4,5.4,0,0,1,1.15-1.78,5.58,5.58,0,0,1,1.71-1.19,7.09,7.09,0,0,1,2.12-.57,6.41,6.41,0,0,1,1.57,0,3.79,3.79,0,0,1,1.49.52,3.11,3.11,0,0,1,1.11,1.18,4.16,4.16,0,0,1,.43,2,9.87,9.87,0,0,1-.2,1.88l-7.19.84a2.13,2.13,0,0,0,.27,1,1.8,1.8,0,0,0,.66.64,2.54,2.54,0,0,0,.94.3,4.6,4.6,0,0,0,1.13,0,6.23,6.23,0,0,0,2-.51,4.85,4.85,0,0,0,1.25-.83Zm-4.31-6.63a3.53,3.53,0,0,0-1,.26,3.18,3.18,0,0,0-.83.51,2.69,2.69,0,0,0-.61.75,2.32,2.32,0,0,0-.28.95l4.91-.57a2,2,0,0,0-.55-1.51A2,2,0,0,0,539.18,372.1Z"/><path d="M545.58,377.34l2.47-.3v-5.6l-2.47.3v-2.2l4.49-.54,0.3,1.28h0.08a6.33,6.33,0,0,1,1.28-1.26,3.5,3.5,0,0,1,1.68-.65,2,2,0,0,1,1.88.65,4.44,4.44,0,0,1,.69,2.85l-2.33.29a1.88,1.88,0,0,0-.21-1,0.65,0.65,0,0,0-.67-0.25,2.21,2.21,0,0,0-1.29.56,4.81,4.81,0,0,0-.83,1v4.26l4.33-.53v2.2l-9.4,1.15v-2.2Z"/><path d="M565.85,381.24a8.4,8.4,0,0,1-2.71-.53,6.64,6.64,0,0,1-2.33-1.48,7.15,7.15,0,0,1-1.62-2.51,9.8,9.8,0,0,1-.61-3.64,11.1,11.1,0,0,1,.61-3.79,10.26,10.26,0,0,1,1.63-3,9.76,9.76,0,0,1,2.33-2.12,11.29,11.29,0,0,1,2.71-1.29l0.48,2.08a9.56,9.56,0,0,0-1.58.78,7,7,0,0,0-1.69,1.44,8,8,0,0,0-1.35,2.26,8.69,8.69,0,0,0-.55,3.27,6.9,6.9,0,0,0,.58,3,5.74,5.74,0,0,0,1.41,1.89,5.22,5.22,0,0,0,1.7,1,6.11,6.11,0,0,0,1.48.34Z"/><path d="M579.61,370.81a4.84,4.84,0,0,1-.37,1.87,5.54,5.54,0,0,1-1,1.6,5.68,5.68,0,0,1-1.52,1.19,5.5,5.5,0,0,1-1.9.62,5.4,5.4,0,0,1-1.94-.07,3.7,3.7,0,0,1-1.59-.78,3.94,3.94,0,0,1-1.08-1.52,5.83,5.83,0,0,1-.4-2.27,9.81,9.81,0,0,1,.69-3.69,11.88,11.88,0,0,1,1.76-3,11.21,11.21,0,0,1,2.41-2.25,9.32,9.32,0,0,1,2.65-1.29l0.58,2a8.91,8.91,0,0,0-3.61,2.23,8,8,0,0,0-1.21,1.58,5.77,5.77,0,0,0-.67,1.71,3.73,3.73,0,0,1,1.2-1,4.77,4.77,0,0,1,1.75-.59,4.56,4.56,0,0,1,1.67.06,3.13,3.13,0,0,1,2.24,1.88A4.42,4.42,0,0,1,579.61,370.81Zm-2.51.45a1.79,1.79,0,0,0-.65-1.55,2.34,2.34,0,0,0-1.74-.32,3.22,3.22,0,0,0-1.44.55,3.1,3.1,0,0,0-.94,1,3.42,3.42,0,0,0,0,.5c0,0.18,0,.32,0,0.43a2.51,2.51,0,0,0,.16.9,1.81,1.81,0,0,0,1.22,1.13,2.42,2.42,0,0,0,1,.05,2.71,2.71,0,0,0,.9-0.29,3.1,3.1,0,0,0,.78-0.58,2.82,2.82,0,0,0,.55-0.81A2.33,2.33,0,0,0,577.11,371.26Z"/><path d="M585,373.11a1.58,1.58,0,0,1,.45-1.14,1.89,1.89,0,0,1,1.13-.56,1.72,1.72,0,0,1,1.65.48,2.5,2.5,0,0,1,.56,1.7,4.14,4.14,0,0,1-.35,1.69,5.29,5.29,0,0,1-.91,1.41,6.06,6.06,0,0,1-1.24,1.06,5.87,5.87,0,0,1-1.36.65l-0.54-1a6.67,6.67,0,0,0,1-.48,4.7,4.7,0,0,0,.89-0.68,3.77,3.77,0,0,0,.67-0.86,2.4,2.4,0,0,0,.31-1,2.61,2.61,0,0,1-1,.17,1.32,1.32,0,0,1-.69-0.22,1.08,1.08,0,0,1-.39-0.51A1.94,1.94,0,0,1,585,373.11Z"/><path d="M594.75,370.79l3-.45V361.6L595.16,364,594,362.58l4.54-4.15,1.75-.26c0,4.72,0,7.08,0,11.8l3-.45v2.2l-8.5,1.27v-2.2Z"/><path d="M607,373.21a8,8,0,0,0,1.47-.76,7.78,7.78,0,0,0,1.7-1.48,8.47,8.47,0,0,0,1.4-2.29,8.09,8.09,0,0,0,.58-3.19,7.54,7.54,0,0,0-.55-3.11,5.42,5.42,0,0,0-1.34-1.88,4.69,4.69,0,0,0-1.68-1,7.4,7.4,0,0,0-1.58-.33l0.48-2.21a8.74,8.74,0,0,1,2.7.52,6.48,6.48,0,0,1,2.33,1.46,7.07,7.07,0,0,1,1.62,2.49,9.71,9.71,0,0,1,.61,3.61,11.29,11.29,0,0,1-.61,3.82,10.35,10.35,0,0,1-1.62,3,9.94,9.94,0,0,1-2.33,2.14,10.76,10.76,0,0,1-2.7,1.3Z"/></svg>