<svg id="Layer_1" data-name="Layer 1" xmlns="http://www.w3.org/2000/svg" viewBox="0 0 720 576"><defs><style>.cls-1,.cls-2,.cls-4,.cls-6{fill:#231f20;}.cls-1,.cls-3{stroke:#231f20;}.cls-1,.cls-6{stroke-miterlimit:10;}.cls-1,.cls-2,.cls-3{stroke-width:2px;}.cls-2{stroke:#000;}.cls-2,.cls-3{stroke-linecap:round;stroke-linejoin:round;}.cls-3,.cls-5{fill:#fff;}.cls-6{stroke:#fff;}</style></defs><title>Hanoi_Tower_Set_5_Final</title><path class="cls-1" d="M689.9,506.49c0-.14,0-0.29,0-0.43s0-.29,0-0.43V453.84H44.1s-0.25,51.74-.25,52.22c0,2.67,2.32,5.24,6.64,7.71,15.13,8.61,55.2,16.11,111,21.48s127.37,8.59,205.39,8.59c89.16,0,169.88-4.21,228.32-11,29.22-3.41,52.87-7.46,69.23-12,8.18-2.25,14.54-4.62,18.86-7.08,3.69-2.1,5.91-4.29,6.48-6.55h0.11v-0.73Z"/><ellipse class="cls-2" cx="366.9" cy="454.92" rx="322.86" ry="37.63"/><path class="cls-3" d="M689.9,455c0-.14,0-0.29,0-0.43s0-.29,0-0.43V402.36H44.1s-0.25,51.74-.25,52.22c0,2.67,2.32,5.24,6.64,7.71,15.13,8.61,55.2,16.11,111,21.48s127.37,8.59,205.39,8.59c89.16,0,169.88-4.21,228.32-11,29.22-3.41,52.87-7.46,69.23-12,8.18-2.25,14.54-4.62,18.86-7.08,3.69-2.1,5.91-4.29,6.48-6.55h0.11V455Z"/><ellipse class="cls-3" cx="366.9" cy="403.44" rx="322.86" ry="37.63"/><path class="cls-3" d="M689.9,403.53c0-.14,0-0.29,0-0.43s0-.29,0-0.43V350.88H44.1s-0.25,51.74-.25,52.22c0,2.67,2.32,5.24,6.64,7.71,15.13,8.61,55.2,16.11,111,21.48s127.37,8.59,205.39,8.59c89.16,0,169.88-4.21,228.32-11,29.22-3.41,52.87-7.46,69.23-12,8.18-2.25,14.54-4.62,18.86-7.08,3.69-2.1,5.91-4.29,6.48-6.55h0.11v-0.73Z"/><ellipse class="cls-3" cx="366.9" cy="351.97" rx="322.86" ry="37.63"/><path class="cls-3" d="M689.9,352.06c0-.14,0-0.29,0-0.43s0-.29,0-0.43V299.4H44.1s-0.25,51.74-.25,52.22c0,2.67,2.32,5.24,6.64,7.71,15.13,8.61,55.2,16.11,111,21.48s127.37,8.59,205.39,8.59c89.16,0,169.88-4.21,228.32-11,29.22-3.41,52.87-7.46,69.23-12,8.18-2.25,14.54-4.62,18.86-7.08,3.69-2.1,5.91-4.29,6.48-6.55h0.11v-0.73Z"/><ellipse class="cls-3" cx="366.9" cy="300.49" rx="322.86" ry="37.63"/><path class="cls-4" d="M366.89,309.88c-16,0-29-3.75-30.2-8.61h-0.08l0-.5V8.27h60.63v293H397.1C395.87,306.14,382.87,309.88,366.89,309.88Z"/><path class="cls-5" d="M396.72,8.77v292h0c-0.49,4.78-13.63,8.61-29.79,8.61s-29.3-3.83-29.79-8.61h0v-0.21s0,0,0-.06,0,0,0-.06V8.77h59.63m1-1H336.09V300.39s0,0.07,0,.11v1.27h0.23c2,5.6,16.84,8.61,30.58,8.61s28.6-3,30.58-8.61h0.21l0-1V7.77h0Z"/><ellipse class="cls-6" cx="366.89" cy="8.89" rx="29.81" ry="8.89"/><path class="cls-4" d="M70,347.45l2.83,0.45c0-2.58,0-3.86,0-6.44L70,341v-2.53l5.14,0.81,0.34,1.57h0.09a4.87,4.87,0,0,1,1.46-1,3.31,3.31,0,0,1,1.92-.21A3.1,3.1,0,0,1,81.11,341a6.19,6.19,0,0,1,.79,3.5l-2.68-.41a2.55,2.55,0,0,0-.24-1.24,1,1,0,0,0-.77-0.5,2,2,0,0,0-1.47.23,3.69,3.69,0,0,0-.95.91v4.9l5,0.76v2.53c-4.31-.66-6.46-1-10.77-1.67v-2.53Z"/><path class="cls-4" d="M95,352.56a3.33,3.33,0,0,1-.77.43,6.43,6.43,0,0,1-1.1.34,7.82,7.82,0,0,1-1.38.17,8.8,8.8,0,0,1-1.6-.1,8.51,8.51,0,0,1-2.62-.8A6.35,6.35,0,0,1,84.38,349a7.66,7.66,0,0,1-.42-2.6,6.28,6.28,0,0,1,.48-2.58,4.3,4.3,0,0,1,1.32-1.7,4.6,4.6,0,0,1,2-.85,7.28,7.28,0,0,1,2.43,0,8.14,8.14,0,0,1,1.8.49,5.88,5.88,0,0,1,1.7,1,5.23,5.23,0,0,1,1.27,1.69,5.6,5.6,0,0,1,.49,2.46,10.51,10.51,0,0,1-.23,2.11l-8.24-1.21a2.94,2.94,0,0,0,.31,1.29,3,3,0,0,0,.75.94,3.88,3.88,0,0,0,1.08.63,5.78,5.78,0,0,0,1.29.34,6.43,6.43,0,0,0,2.25,0,4,4,0,0,0,1.43-.57Zm-4.94-8.93a3.64,3.64,0,0,0-1.12,0,2.67,2.67,0,0,0-1,.34,2.11,2.11,0,0,0-.7.68,2.16,2.16,0,0,0-.32,1l5.63,0.83a2.89,2.89,0,0,0-.63-1.91A2.92,2.92,0,0,0,90.09,343.63Z"/><path class="cls-4" d="M109,354.65a5.67,5.67,0,0,1-2.2.77,9.31,9.31,0,0,1-2.63,0,8.15,8.15,0,0,1-2.65-.81,6.54,6.54,0,0,1-1.95-1.51,6.26,6.26,0,0,1-1.2-2.09,7.68,7.68,0,0,1-.41-2.54,6,6,0,0,1,.48-2.51,4.44,4.44,0,0,1,1.34-1.72,4.88,4.88,0,0,1,2-.9,7.5,7.5,0,0,1,2.54,0,10.13,10.13,0,0,1,2.41.63,12.93,12.93,0,0,1,1.72.81v4l-2.52-.35c0-.85,0-1.27,0-2.12a6.9,6.9,0,0,0-1.42-.36,4.15,4.15,0,0,0-1.27,0,2.58,2.58,0,0,0-1.92,1.42,3.26,3.26,0,0,0-.31,1.5,3.88,3.88,0,0,0,1,2.57,3.93,3.93,0,0,0,1.13.88,4.47,4.47,0,0,0,1.5.47,5.1,5.1,0,0,0,2.14-.07,7.39,7.39,0,0,0,1.25-.47Z"/><path class="cls-4" d="M117.85,345.44l4.26,0.56v9l1.74,0.23v2.53l-3.62-.47-0.53-1.77h-0.09a3.34,3.34,0,0,1-1.58,1.24,4.48,4.48,0,0,1-2.34.27,5.66,5.66,0,0,1-1.59-.44,3.44,3.44,0,0,1-1.23-.92,4.15,4.15,0,0,1-.78-1.53,8.2,8.2,0,0,1-.28-2.29v-4.62l-1.31-.18v-2.53L114.8,345v6.53a3.86,3.86,0,0,0,.45,2.08,1.88,1.88,0,0,0,1.41.81,2.3,2.3,0,0,0,2.47-1.42v-4.9l-1.28-.17v-2.53Z"/><path class="cls-4" d="M124.93,355.33l2.84,0.36v-6.44l-2.84-.36v-2.53l5.16,0.66,0.34,1.56h0.09a5.09,5.09,0,0,1,1.47-1.08,3.37,3.37,0,0,1,1.93-.27,3,3,0,0,1,2.17,1.28,6.05,6.05,0,0,1,.79,3.48l-2.68-.33a2.5,2.5,0,0,0-.24-1.24,1,1,0,0,0-.77-0.48,2.08,2.08,0,0,0-1.48.28,3.87,3.87,0,0,0-1,.94v4.9l5,0.62c0,1,0,1.52,0,2.53-4.32-.53-6.48-0.8-10.8-1.36C124.93,356.85,124.93,356.34,124.93,355.33Z"/><path class="cls-4" d="M148.24,365.58a11.89,11.89,0,0,1-3.12-1.38,10.82,10.82,0,0,1-2.68-2.36,11.36,11.36,0,0,1-1.87-3.35,12.7,12.7,0,0,1-.7-4.36,11.33,11.33,0,0,1,.7-4.18,8.54,8.54,0,0,1,1.87-2.94,7.9,7.9,0,0,1,2.68-1.78,10.39,10.39,0,0,1,3.12-.72l0.55,2.52a8.69,8.69,0,0,0-1.83.44,5.67,5.67,0,0,0-1.94,1.18,6.56,6.56,0,0,0-1.55,2.22,8.81,8.81,0,0,0-.63,3.6,9.08,9.08,0,0,0,.67,3.64,9.25,9.25,0,0,0,1.62,2.57,8.46,8.46,0,0,0,2,1.63,8.88,8.88,0,0,0,1.7.81Z"/><path class="cls-4" d="M154,358.84l3.51,0.39V349.18l-3,2-1.38-2,5.24-3.42,2,0.22v13.57l3.44,0.37v2.53c-3.92-.42-5.88-0.64-9.81-1.08v-2.53Z"/><path class="cls-4" d="M167.79,360.34l3.52,0.37V350.65l-3,2-1.38-2,5.24-3.46,2,0.21c0,5.43,0,8.14,0,13.57l3.45,0.35v2.53c-3.93-.39-5.89-0.59-9.81-1v-2.53Z"/><path class="cls-4" d="M184.15,363a1.43,1.43,0,0,1,.52-1.19,1.74,1.74,0,0,1,1.3-.34,2.52,2.52,0,0,1,1.91,1,3.5,3.5,0,0,1,.64,2.11,4.11,4.11,0,0,1-.4,1.85,4.36,4.36,0,0,1-1,1.37,5,5,0,0,1-1.44.88,5.41,5.41,0,0,1-1.58.38l-0.62-1.32a6.19,6.19,0,0,0,1.12-.28,4,4,0,0,0,1-.53,3.09,3.09,0,0,0,.77-0.81,2.25,2.25,0,0,0,.36-1.07,3,3,0,0,1-1.17-.08,2,2,0,0,1-.79-0.44,1.72,1.72,0,0,1-.45-0.69A2.49,2.49,0,0,1,184.15,363Z"/><path class="cls-4" d="M195.37,363l3.52,0.31V353.3l-3,2.05-1.38-2,5.24-3.53,2,0.18c0,5.43,0,8.14,0,13.57l3.45,0.3c0,1,0,1.52,0,2.53-3.93-.33-5.89-0.51-9.82-0.86V363Z"/><path class="cls-4" d="M207.61,358.56a13.34,13.34,0,0,1,.44-3.63,6.86,6.86,0,0,1,1.24-2.51,4.56,4.56,0,0,1,1.91-1.4,5.56,5.56,0,0,1,2.47-.32,5.83,5.83,0,0,1,4.48,2.39q1.57,2.16,1.57,6.44a13.45,13.45,0,0,1-.44,3.66,7,7,0,0,1-1.24,2.53,4.51,4.51,0,0,1-1.92,1.41,5.61,5.61,0,0,1-2.48.32,5.68,5.68,0,0,1-4.48-2.52A11.26,11.26,0,0,1,207.61,358.56Zm3,0.25c0,0.23,0,.45,0,0.66s0,0.42,0,.64l5.57-4.68a2.85,2.85,0,0,0-2.58-2.18,2.24,2.24,0,0,0-2.25,1.23A9,9,0,0,0,210.6,358.81Zm6.12,0.49c0-.25,0-0.48,0-0.7s0-.44,0-0.66l-5.59,4.68a2.91,2.91,0,0,0,2.58,2.3,2.27,2.27,0,0,0,2.26-1.22A9,9,0,0,0,216.72,359.3Z"/><path class="cls-4" d="M223.31,370.26a7.37,7.37,0,0,0,1.7-.48,6.49,6.49,0,0,0,2-1.26,7.13,7.13,0,0,0,1.62-2.26,8.16,8.16,0,0,0,.67-3.52,9.71,9.71,0,0,0-.63-3.73,8.51,8.51,0,0,0-1.55-2.52,7.43,7.43,0,0,0-1.95-1.55,10.37,10.37,0,0,0-1.83-.79l0.55-2.42a12.32,12.32,0,0,1,3.13,1.31,10.37,10.37,0,0,1,2.69,2.29,11,11,0,0,1,1.88,3.3,12.39,12.39,0,0,1,.7,4.32,11.55,11.55,0,0,1-.7,4.23,8.86,8.86,0,0,1-1.88,3A8.24,8.24,0,0,1,227,372a10.05,10.05,0,0,1-3.13.78Z"/><path class="cls-4" d="M530.54,363.87a4.94,4.94,0,0,0,1.39-.32,3.66,3.66,0,0,0,1.08-.65,3,3,0,0,0,.7-0.89,2.24,2.24,0,0,0,.25-1,2,2,0,0,0-.29-1.13,1.83,1.83,0,0,0-.79-0.67,3.56,3.56,0,0,0-1.22-.28,9.72,9.72,0,0,0-1.54,0l-1.29.11v-1.65l3.86-5.06-5.82.51v-2.53l9.39-.83v2.09l-4,5,0.53,0a4.39,4.39,0,0,1,1.56.14,3.46,3.46,0,0,1,1.35.71,3.6,3.6,0,0,1,.94,1.29,4.56,4.56,0,0,1,.36,1.88,5,5,0,0,1-.54,2.35,6,6,0,0,1-1.43,1.8,6.8,6.8,0,0,1-2,1.19,8.82,8.82,0,0,1-2.37.54,11.55,11.55,0,0,1-2.07,0,9.41,9.41,0,0,1-2-.4l0.81-2.55a3,3,0,0,0,.56.18l0.8,0.16a8.35,8.35,0,0,0,.92.1A6.44,6.44,0,0,0,530.54,363.87Z"/><path class="cls-4" d="M539.88,354.17a6,6,0,0,1,.4-2.2,5.52,5.52,0,0,1,1.13-1.8,6,6,0,0,1,1.75-1.27,6.61,6.61,0,0,1,2.29-.62,6.52,6.52,0,0,1,2.35.17,4.33,4.33,0,0,1,1.82,1,4.57,4.57,0,0,1,1.17,1.79,7.27,7.27,0,0,1,.41,2.57,14.32,14.32,0,0,1-.69,4.67,10.77,10.77,0,0,1-1.85,3.4,9.19,9.19,0,0,1-2.7,2.24,11.55,11.55,0,0,1-3.22,1.18L542.08,363a8.65,8.65,0,0,0,2.29-.84,7.86,7.86,0,0,0,1.78-1.31,6.83,6.83,0,0,0,1.24-1.66,5.7,5.7,0,0,0,.62-1.91,3.94,3.94,0,0,1-1.24.89,5.43,5.43,0,0,1-1.82.46h0a5.38,5.38,0,0,1-1.77-.13,4.28,4.28,0,0,1-1.62-.77,4.23,4.23,0,0,1-1.18-1.44A4.59,4.59,0,0,1,539.88,354.17Zm2.9-.43a2.41,2.41,0,0,0,.24,1.11,2.2,2.2,0,0,0,.63.77,2.38,2.38,0,0,0,.91.42,3.24,3.24,0,0,0,1.07.07,4.34,4.34,0,0,0,1.63-.46,2.76,2.76,0,0,0,1-.83,6.65,6.65,0,0,0,.07-0.93,4.27,4.27,0,0,0-.18-1.25,3,3,0,0,0-.55-1.05,2.38,2.38,0,0,0-.92-0.68,2.57,2.57,0,0,0-1.26-.17A2.85,2.85,0,0,0,542.77,353.74Z"/><path class="cls-4" d="M554.22,366.55c4.08-.41,6.12-0.62,10.2-1V368c-4.08.43-6.12,0.64-10.2,1v-2.46Z"/><path class="cls-4" d="M567.46,351.42a6,6,0,0,1,.4-2.2A5.63,5.63,0,0,1,569,347.4a6.08,6.08,0,0,1,1.75-1.29,6.68,6.68,0,0,1,2.28-.65,6.49,6.49,0,0,1,2.34.13,4.24,4.24,0,0,1,1.81,1,4.48,4.48,0,0,1,1.17,1.78,7.23,7.23,0,0,1,.41,2.56,14.43,14.43,0,0,1-.69,4.68,11,11,0,0,1-1.85,3.43,9.38,9.38,0,0,1-2.7,2.28,11.68,11.68,0,0,1-3.22,1.23l-0.64-2.28a8.74,8.74,0,0,0,2.28-.87,8,8,0,0,0,1.78-1.33,7,7,0,0,0,1.24-1.68,5.77,5.77,0,0,0,.62-1.92,4,4,0,0,1-1.24.91,5.46,5.46,0,0,1-1.81.49h0a5.35,5.35,0,0,1-1.77-.11,4.19,4.19,0,0,1-1.62-.74,4.13,4.13,0,0,1-1.18-1.42A4.55,4.55,0,0,1,567.46,351.42Zm2.89-.47a2.39,2.39,0,0,0,.24,1.11,2.16,2.16,0,0,0,.63.76,2.36,2.36,0,0,0,.91.41,3.24,3.24,0,0,0,1.07.06,4.39,4.39,0,0,0,1.63-.48,2.82,2.82,0,0,0,1-.85,6.68,6.68,0,0,0,.07-0.93,4.25,4.25,0,0,0-.18-1.24,3,3,0,0,0-.55-1,2.32,2.32,0,0,0-.92-0.67,2.56,2.56,0,0,0-1.26-.15A2.9,2.9,0,0,0,570.35,350.95Z"/><path class="cls-4" d="M582.43,358.29l3.51-.41V347.83l-3,2.68-1.38-1.68,5.23-4.61,2-.24v13.57l3.44-.41v2.53c-3.92.47-5.88,0.7-9.8,1.16v-2.53Z"/><path class="cls-4" d="M606.29,352.92a5.54,5.54,0,0,1-.42,2.15,6.26,6.26,0,0,1-1.16,1.83,6.43,6.43,0,0,1-1.75,1.35,6.3,6.3,0,0,1-2.19.69,6.22,6.22,0,0,1-2.24-.1,4.32,4.32,0,0,1-1.82-.91,4.57,4.57,0,0,1-1.24-1.76,6.73,6.73,0,0,1-.46-2.61,11.22,11.22,0,0,1,.79-4.24,13.45,13.45,0,0,1,2-3.48,12.72,12.72,0,0,1,2.77-2.55,10.63,10.63,0,0,1,3.05-1.45l0.67,2.28a10.13,10.13,0,0,0-2.27,1,9.92,9.92,0,0,0-1.88,1.49,9.1,9.1,0,0,0-1.39,1.81,6.53,6.53,0,0,0-.77,2,4.22,4.22,0,0,1,1.38-1.15,5.45,5.45,0,0,1,2-.65,5.28,5.28,0,0,1,1.93.09,3.66,3.66,0,0,1,2.58,2.19A5.1,5.1,0,0,1,606.29,352.92Zm-2.89.48a2.08,2.08,0,0,0-.75-1.79,2.71,2.71,0,0,0-2-.39,3.67,3.67,0,0,0-1.65.62,3.5,3.5,0,0,0-1.08,1.1,4.08,4.08,0,0,0-.06.57q0,0.31,0,.5a2.89,2.89,0,0,0,.18,1,2.11,2.11,0,0,0,1.4,1.31,2.78,2.78,0,0,0,1.17.07,3.11,3.11,0,0,0,1-.32,3.47,3.47,0,0,0,.89-0.65,3.17,3.17,0,0,0,.63-0.92A2.68,2.68,0,0,0,603.4,353.4Z"/><path class="cls-4" d="M609.32,360.21c4.07-.53,6.11-0.8,10.18-1.35,0,1,0,1.48,0,2.46-4.07.55-6.1,0.82-10.18,1.35v-2.46Z"/><path class="cls-4" d="M622.66,351.81a4.26,4.26,0,0,1,.26-1.51,5.43,5.43,0,0,1,.69-1.29,7.09,7.09,0,0,1,1-1.09,11.28,11.28,0,0,1,1.12-.9,5.76,5.76,0,0,1-1.9-1.31,3.06,3.06,0,0,1-.76-2.18,4.06,4.06,0,0,1,.39-1.73,5,5,0,0,1,1.09-1.51,6.23,6.23,0,0,1,1.66-1.13,7.16,7.16,0,0,1,2.08-.61,6.44,6.44,0,0,1,1.94,0,4.53,4.53,0,0,1,1.59.56,2.93,2.93,0,0,1,1.47,2.62,4.55,4.55,0,0,1-.7,2.47,7.56,7.56,0,0,1-1.91,2,5.81,5.81,0,0,1,2.19,1.37,3.29,3.29,0,0,1,.81,2.37,4.31,4.31,0,0,1-.45,1.94,5.54,5.54,0,0,1-1.2,1.61,6.77,6.77,0,0,1-1.77,1.18,7.54,7.54,0,0,1-2.16.64,6.79,6.79,0,0,1-2.13,0,4.87,4.87,0,0,1-1.72-.62,3.25,3.25,0,0,1-1.15-1.18A3.36,3.36,0,0,1,622.66,351.81Zm8.15-1.53a1.47,1.47,0,0,0-.3-0.95,2.64,2.64,0,0,0-.74-0.63,5.78,5.78,0,0,0-1-.45q-0.54-.19-1-0.39a5.46,5.46,0,0,0-1.76,1.54,2.86,2.86,0,0,0-.62,1.59,1.63,1.63,0,0,0,.73,1.5,3,3,0,0,0,2,.28,3.66,3.66,0,0,0,1.92-.81A2.11,2.11,0,0,0,630.81,350.28Zm-4.92-7a1.54,1.54,0,0,0,.24.9,2.07,2.07,0,0,0,.62.58,4.12,4.12,0,0,0,.86.4l1,0.33a5.26,5.26,0,0,0,.72-0.56,4.79,4.79,0,0,0,.63-0.7,4.06,4.06,0,0,0,.45-0.75,1.82,1.82,0,0,0,.17-0.75,1.5,1.5,0,0,0-.21-0.81,1.67,1.67,0,0,0-.54-0.53,2,2,0,0,0-.74-0.28,2.79,2.79,0,0,0-.85,0,2.86,2.86,0,0,0-.93.29,3.17,3.17,0,0,0-.73.52,2.21,2.21,0,0,0-.48.67A1.69,1.69,0,0,0,625.89,343.27Z"/><path class="cls-4" d="M635.89,345.81a14.51,14.51,0,0,1,.44-3.73,8.9,8.9,0,0,1,1.23-2.79,6.32,6.32,0,0,1,1.9-1.83,6.42,6.42,0,0,1,2.46-.88,4.61,4.61,0,0,1,4.46,1.37q1.56,1.8,1.56,6.08a14.63,14.63,0,0,1-.44,3.76,9.11,9.11,0,0,1-1.23,2.81,6.25,6.25,0,0,1-1.91,1.85,6.49,6.49,0,0,1-2.47.88,4.46,4.46,0,0,1-4.46-1.5Q635.89,349.9,635.89,345.81Zm3-.43c0,0.23,0,.45,0,0.65s0,0.42,0,.63l5.54-5.95a2.16,2.16,0,0,0-2.56-1.6,3,3,0,0,0-2.24,1.74A10.22,10.22,0,0,0,638.87,345.37Zm6.09-.9q0-.37,0-0.7c0-.22,0-0.44,0-0.65l-5.56,6a2.2,2.2,0,0,0,2.57,1.72,3,3,0,0,0,2.25-1.74A10.24,10.24,0,0,0,645,344.48Z"/><path class="cls-4" d="M649.62,343.77a14.56,14.56,0,0,1,.44-3.73,9,9,0,0,1,1.23-2.8,6.39,6.39,0,0,1,1.89-1.84,6.46,6.46,0,0,1,2.46-.9,4.58,4.58,0,0,1,4.45,1.34q1.56,1.79,1.56,6.07a14.68,14.68,0,0,1-.44,3.76,9.19,9.19,0,0,1-1.23,2.82,6.32,6.32,0,0,1-1.9,1.86,6.52,6.52,0,0,1-2.47.9,4.42,4.42,0,0,1-4.45-1.47Q649.62,347.87,649.62,343.77Zm3-.45c0,0.23,0,.45,0,0.65s0,0.42,0,.63l5.53-6a2.14,2.14,0,0,0-2.56-1.58,3,3,0,0,0-2.23,1.76A10.26,10.26,0,0,0,652.6,343.32Zm6.08-.94q0-.37,0-0.7c0-.22,0-0.44,0-0.65l-5.56,6a2.18,2.18,0,0,0,2.56,1.7,3,3,0,0,0,2.25-1.75A10.29,10.29,0,0,0,658.68,342.38Z"/><path class="cls-4" d="M59.72,449.29v-2.53l2.7,0.43v-6.44l-2.72-.43v-2.53l2.72,0.43v-0.64a3.88,3.88,0,0,1,.38-1.8,3,3,0,0,1,1-1.13,3.42,3.42,0,0,1,1.43-.53,5.72,5.72,0,0,1,1.68,0,11.54,11.54,0,0,1,2.6.66,7.9,7.9,0,0,1,1.68.91l-0.87,2.15a12.25,12.25,0,0,0-1.13-.63,5.45,5.45,0,0,0-1.57-.45,2,2,0,0,0-1.73.3,2.21,2.21,0,0,0-.49,1.61l4.8,0.74V442l-4.8-.74v6.44l4.83,0.74v2.53C66,450.28,63.92,450,59.72,449.29Z"/><path class="cls-4" d="M73.87,440.76a11.17,11.17,0,0,1,2.12-.4,11.83,11.83,0,0,1,2.85.13,6.88,6.88,0,0,1,2,.59,4.14,4.14,0,0,1,1.35,1,3.75,3.75,0,0,1,.74,1.37,5.93,5.93,0,0,1,.23,1.69q0,1.17-.08,2T83,448.61a10.07,10.07,0,0,0,0,1.09c0,0.21.05,0.43,0.07,0.63l1.49,0.22v2.53l-3.84-.56-0.3-1.61-0.11,0a3.19,3.19,0,0,1-1.3,1,4,4,0,0,1-2.27.18,4.47,4.47,0,0,1-2.71-1.33,3.65,3.65,0,0,1-1-2.59,3.35,3.35,0,0,1,.35-1.61,2.38,2.38,0,0,1,1-1,4.24,4.24,0,0,1,1.61-.42,9.27,9.27,0,0,1,2.1.09q0.41,0.06.86,0.17l1.11,0.26a2.28,2.28,0,0,0,0-.45v-0.44a1.7,1.7,0,0,0-.5-1.33,2.76,2.76,0,0,0-1.48-.6,6.65,6.65,0,0,0-2.09,0,11.83,11.83,0,0,0-1.57.36Zm3.89,9a2.52,2.52,0,0,0,1.63-.16,2.16,2.16,0,0,0,.79-0.75V447.5l-0.68-.2a8.27,8.27,0,0,0-1-.2,4.62,4.62,0,0,0-.86,0,2.54,2.54,0,0,0-.77.14,1.21,1.21,0,0,0-.54.37,1,1,0,0,0-.2.64,1.51,1.51,0,0,0,.37,1.06A2,2,0,0,0,77.77,449.79Z"/><path class="cls-4" d="M98,453.87a5.66,5.66,0,0,1-2.2.76,9.32,9.32,0,0,1-2.63,0,8.18,8.18,0,0,1-2.65-.81,6.56,6.56,0,0,1-1.95-1.51,6.28,6.28,0,0,1-1.2-2.09,7.69,7.69,0,0,1-.41-2.54,6,6,0,0,1,.48-2.51,4.44,4.44,0,0,1,1.34-1.72,4.88,4.88,0,0,1,2-.9,7.5,7.5,0,0,1,2.54,0,10.14,10.14,0,0,1,2.4.64,12.92,12.92,0,0,1,1.72.81v4L95,447.65v-2.12a6.9,6.9,0,0,0-1.42-.36,4.14,4.14,0,0,0-1.27,0,2.58,2.58,0,0,0-1.92,1.42,3.26,3.26,0,0,0-.31,1.5,3.85,3.85,0,0,0,.25,1.39,3.9,3.9,0,0,0,.71,1.18,3.94,3.94,0,0,0,1.13.88,4.49,4.49,0,0,0,1.5.48,5.1,5.1,0,0,0,2.14-.07,7.4,7.4,0,0,0,1.25-.47Z"/><path class="cls-4" d="M101.94,446.54l-2.27-.31V443.7l2.27,0.31v-2.62l3-.45v3.47l6,0.8v2.53l-6-.8v3.29a4.39,4.39,0,0,0,.66,2.65,2.66,2.66,0,0,0,1.86,1,3.82,3.82,0,0,0,1.12,0,3.72,3.72,0,0,0,.91-0.26,4.3,4.3,0,0,0,.73-0.41l0.61-.43,1.38,2.25a3.66,3.66,0,0,1-1,.71,7.11,7.11,0,0,1-1.26.5,7.25,7.25,0,0,1-1.41.26,6.56,6.56,0,0,1-1.44,0,5.68,5.68,0,0,1-3.86-2,7.45,7.45,0,0,1-1.29-4.74v-3.29Z"/><path class="cls-4" d="M113.84,451.34a6.66,6.66,0,0,1,.44-2.52,4.43,4.43,0,0,1,1.24-1.75,4.51,4.51,0,0,1,1.91-.94,7,7,0,0,1,2.49-.08,7.78,7.78,0,0,1,2.58.76,6.34,6.34,0,0,1,1.92,1.47,6.07,6.07,0,0,1,1.18,2.07,7.81,7.81,0,0,1,.4,2.53,6.69,6.69,0,0,1-.44,2.52,4.35,4.35,0,0,1-3.15,2.7,7,7,0,0,1-2.49.09,7.75,7.75,0,0,1-2.58-.77,6.34,6.34,0,0,1-1.91-1.48,6.1,6.1,0,0,1-1.18-2.07A7.82,7.82,0,0,1,113.84,451.34Zm3.07,0.4a4.83,4.83,0,0,0,.21,1.43,4,4,0,0,0,.6,1.2,3.25,3.25,0,0,0,.94.87,3.16,3.16,0,0,0,1.26.43,2.61,2.61,0,0,0,2.17-.58,3.34,3.34,0,0,0,.84-2.59,4.42,4.42,0,0,0-.78-2.66,3.09,3.09,0,0,0-2.22-1.26,3.41,3.41,0,0,0-1.19,0,2,2,0,0,0-1,.51,2.61,2.61,0,0,0-.63,1A4.7,4.7,0,0,0,116.91,451.74Z"/><path class="cls-4" d="M127.69,456.32l2.84,0.35v-6.44l-2.84-.35v-2.53l5.16,0.63,0.34,1.56h0.09a5.12,5.12,0,0,1,1.47-1.09,3.38,3.38,0,0,1,1.93-.28,3,3,0,0,1,2.17,1.27,6,6,0,0,1,.79,3.47L137,452.6a2.49,2.49,0,0,0-.24-1.24,1,1,0,0,0-.77-0.47,2.09,2.09,0,0,0-1.48.28,3.89,3.89,0,0,0-1,.94V457l5,0.59c0,1,0,1.52,0,2.53-4.32-.51-6.49-0.77-10.81-1.3v-2.53Z"/><path class="cls-4" d="M141.92,458l4,0.46V452l-4-.46V449l7,0.8v9l4.25,0.47v2.53c-4.51-.5-6.77-0.75-11.27-1.27V458Zm3.49-11.7a1.44,1.44,0,0,1,.53-1.16,1.87,1.87,0,0,1,1.47-.34,2.51,2.51,0,0,1,1.54.68,1.77,1.77,0,0,1,.57,1.28,1.32,1.32,0,0,1-.57,1.14,2.17,2.17,0,0,1-1.54.3,2.37,2.37,0,0,1-1.47-.64A1.73,1.73,0,0,1,145.41,446.32Z"/><path class="cls-4" d="M156.41,451.45a11.56,11.56,0,0,1,2.12-.48,11.85,11.85,0,0,1,2.86,0,6.72,6.72,0,0,1,2,.5,3.92,3.92,0,0,1,1.36,1,3.55,3.55,0,0,1,.75,1.34,5.8,5.8,0,0,1,.23,1.68q0,1.17-.08,2t-0.08,1.46a10,10,0,0,0,0,1.09c0,0.21.05,0.43,0.07,0.63l1.49,0.15v2.53l-3.86-.4-0.3-1.6h-0.11a3.4,3.4,0,0,1-1.3,1.09,4.1,4.1,0,0,1-2.28.28,4.29,4.29,0,0,1-2.72-1.21,3.5,3.5,0,0,1-1-2.55,3.42,3.42,0,0,1,.35-1.63,2.54,2.54,0,0,1,1-1,4.41,4.41,0,0,1,1.62-.49,9.31,9.31,0,0,1,2.11,0q0.41,0,.87.14l1.12,0.21a2.3,2.3,0,0,0,0-.46v-0.44a1.63,1.63,0,0,0-.5-1.31,2.66,2.66,0,0,0-1.48-.54,6.7,6.7,0,0,0-2.1.08,12.27,12.27,0,0,0-1.57.43Zm3.91,8.86a2.58,2.58,0,0,0,1.64-.23,2.31,2.31,0,0,0,.8-0.78v-1.38l-0.68-.18a8.24,8.24,0,0,0-1-.16,4.68,4.68,0,0,0-.86,0,2.63,2.63,0,0,0-.77.17,1.3,1.3,0,0,0-.55.39,1,1,0,0,0-.2.65,1.45,1.45,0,0,0,.37,1A1.94,1.94,0,0,0,160.32,460.31Z"/><path class="cls-4" d="M170.12,447.5L175,448v10.63a5.2,5.2,0,0,0,.44,2.5,1.72,1.72,0,0,0,1.4.83,3.76,3.76,0,0,0,1.17,0,4,4,0,0,0,.92-0.34l1.13,2.18q-0.39.22-.78,0.4a4.55,4.55,0,0,1-.83.29,5.27,5.27,0,0,1-1,.14,7.53,7.53,0,0,1-1.16,0,4.78,4.78,0,0,1-3.24-1.42,4.68,4.68,0,0,1-1.08-3.24v-9.66l-1.91-.19V447.5Z"/><path class="cls-4" d="M192.38,470.6a11.6,11.6,0,0,1-3.13-1.29,10.44,10.44,0,0,1-2.69-2.29,11,11,0,0,1-1.87-3.3,12.52,12.52,0,0,1-.7-4.34,11.46,11.46,0,0,1,.7-4.2,8.84,8.84,0,0,1,1.87-3,8.2,8.2,0,0,1,2.69-1.85,10.61,10.61,0,0,1,3.13-.8l0.55,2.51a8.9,8.9,0,0,0-1.83.49,5.89,5.89,0,0,0-1.94,1.23,6.79,6.79,0,0,0-1.55,2.26,9.26,9.26,0,0,0,1.66,9.78,8.15,8.15,0,0,0,2,1.58,8.63,8.63,0,0,0,1.7.76Z"/><path class="cls-4" d="M198.15,463.7l3.52,0.3V453.95l-3,2.06-1.38-2,5.25-3.55,2,0.17v13.57l3.45,0.28v2.53c-3.93-.32-5.9-0.49-9.83-0.83V463.7Z"/><path class="cls-4" d="M212,464.85l3.52,0.28V455.07l-3,2.08-1.38-1.95,5.25-3.59,2,0.16v13.57l3.45,0.26v2.53l-9.83-.76v-2.53Z"/><path class="cls-4" d="M226.1,470.82a7.43,7.43,0,0,0,1.7-.49,6.52,6.52,0,0,0,2-1.26,7.16,7.16,0,0,0,1.62-2.27,8.17,8.17,0,0,0,.67-3.52,9.68,9.68,0,0,0-.63-3.72,8.49,8.49,0,0,0-1.55-2.51,7.41,7.41,0,0,0-1.95-1.54,10.33,10.33,0,0,0-1.83-.79l0.55-2.42a12.28,12.28,0,0,1,3.13,1.3,10.33,10.33,0,0,1,2.69,2.28,10.92,10.92,0,0,1,1.88,3.29,12.39,12.39,0,0,1,.7,4.31,11.58,11.58,0,0,1-.7,4.23,8.89,8.89,0,0,1-1.88,3,8.29,8.29,0,0,1-2.69,1.86,10.07,10.07,0,0,1-3.13.79Z"/><path class="cls-4" d="M377.74,473.58V471h2.72c0-2.58,0-3.86,0-6.44h-2.74v-2.53h2.74v-0.64a4.24,4.24,0,0,1,.38-1.87,3.78,3.78,0,0,1,1-1.29,4.15,4.15,0,0,1,1.44-.76,6,6,0,0,1,1.7-.25,10.77,10.77,0,0,1,2.62.24,6.65,6.65,0,0,1,1.7.64l-0.88,2.29a10.27,10.27,0,0,0-1.14-.45,5,5,0,0,0-1.58-.19,2.26,2.26,0,0,0-1.74.58,2.52,2.52,0,0,0-.5,1.69l4.84,0v2.53l-4.84,0V471l4.87,0v2.53C384.1,473.54,382,473.56,377.74,473.58Z"/><path class="cls-4" d="M392,462.75a12.74,12.74,0,0,1,2.13-.74,12.23,12.23,0,0,1,2.87-.34,6.36,6.36,0,0,1,2,.26,3.34,3.34,0,0,1,1.36.79,3,3,0,0,1,.75,1.25,5.5,5.5,0,0,1,.23,1.65q0,1.17-.08,2t-0.08,1.47a9.82,9.82,0,0,0,0,1.08c0,0.21.05,0.42,0.07,0.62l1.5,0v2.53l-3.87.06-0.3-1.56h-0.11a4.06,4.06,0,0,1-1.31,1.25,4.41,4.41,0,0,1-2.29.55,3.85,3.85,0,0,1-2.73-.89,3.11,3.11,0,0,1-1-2.43,3.68,3.68,0,0,1,.35-1.67,3,3,0,0,1,1-1.16,5,5,0,0,1,1.63-.69,9.59,9.59,0,0,1,2.12-.25c0.27,0,.57,0,0.87,0l1.12,0.08a2.38,2.38,0,0,0,0-.46v-0.44a1.45,1.45,0,0,0-.5-1.25,2.43,2.43,0,0,0-1.49-.36,7,7,0,0,0-2.11.33,13.69,13.69,0,0,0-1.58.62Zm3.93,8.39a2.53,2.53,0,0,0,2.44-1.3v-1.38l-0.68-.09a7.91,7.91,0,0,0-1,0,4.79,4.79,0,0,0-.87.09,2.91,2.91,0,0,0-.78.26,1.54,1.54,0,0,0-.55.46,1.1,1.1,0,0,0-.2.67,1.29,1.29,0,0,0,.38,1A1.75,1.75,0,0,0,396,471.13Z"/><path class="cls-4" d="M416.38,471.92a6.8,6.8,0,0,1-2.21,1.12,9.81,9.81,0,0,1-2.65.42,7.46,7.46,0,0,1-2.66-.38,5.27,5.27,0,0,1-2-1.19,5.07,5.07,0,0,1-1.21-1.9,7.08,7.08,0,0,1-.42-2.48,6.53,6.53,0,0,1,.48-2.59A5.58,5.58,0,0,1,407.1,463a6,6,0,0,1,2-1.23,8,8,0,0,1,2.56-.46,9.41,9.41,0,0,1,2.42.24,11.09,11.09,0,0,1,1.73.53v4l-2.54.06v-2.12a6.48,6.48,0,0,0-1.43-.13,4.4,4.4,0,0,0-1.28.22,3.21,3.21,0,0,0-1.13.64,3.36,3.36,0,0,0-.81,1.09,3.55,3.55,0,0,0-.31,1.55,3.51,3.51,0,0,0,.25,1.35,3.07,3.07,0,0,0,1.86,1.77,4.08,4.08,0,0,0,1.51.23,5.46,5.46,0,0,0,2.16-.42,9,9,0,0,0,1.26-.67Z"/><path class="cls-4" d="M420.31,464L418,464v-2.53l2.28-.06V458.8l3-.93v3.47l6-.18v2.53l-6,.18v3.29a3.88,3.88,0,0,0,.67,2.55,2.24,2.24,0,0,0,1.87.74,4,4,0,0,0,1.13-.18,4.42,4.42,0,0,0,.91-0.41,5.46,5.46,0,0,0,.74-0.53l0.61-.52,1.38,2a4.65,4.65,0,0,1-1,.87,8.72,8.72,0,0,1-1.27.71,8.27,8.27,0,0,1-1.42.49,6.87,6.87,0,0,1-1.45.2,4.85,4.85,0,0,1-3.89-1.33q-1.3-1.4-1.3-4.53V464Z"/><path class="cls-4" d="M432.28,466.83a7.17,7.17,0,0,1,.44-2.59,5.44,5.44,0,0,1,3.17-3.2,7.54,7.54,0,0,1,2.5-.49,7.13,7.13,0,0,1,2.59.34,5.11,5.11,0,0,1,1.93,1.16,4.92,4.92,0,0,1,1.19,1.88,7.82,7.82,0,0,1,0,5.06,5.46,5.46,0,0,1-3.17,3.21,7.48,7.48,0,0,1-2.5.49,7.09,7.09,0,0,1-2.59-.35,5.11,5.11,0,0,1-1.93-1.17,4.94,4.94,0,0,1-1.19-1.88A7.22,7.22,0,0,1,432.28,466.83Zm3.09-.1a4.48,4.48,0,0,0,.21,1.4,3.3,3.3,0,0,0,.6,1.11,2.57,2.57,0,0,0,.94.71,2.85,2.85,0,0,0,1.27.22,3,3,0,0,0,2.18-.93,4.66,4.66,0,0,0,.06-5.26,2.61,2.61,0,0,0-2.24-.9,3.66,3.66,0,0,0-1.2.24,2.48,2.48,0,0,0-1,.67,3.24,3.24,0,0,0-.63,1.13A5,5,0,0,0,435.37,466.72Z"/><path class="cls-4" d="M446.2,469.55l2.86-.11c0-2.58,0-3.86,0-6.44l-2.86.11v-2.53l5.19-.21,0.35,1.5h0.09a6.49,6.49,0,0,1,1.48-1.33,3.77,3.77,0,0,1,1.94-.59,2.51,2.51,0,0,1,2.18.91,5.39,5.39,0,0,1,.79,3.35l-2.7.12a2.25,2.25,0,0,0-.24-1.2,0.81,0.81,0,0,0-.77-0.35,2.37,2.37,0,0,0-1.49.52,5,5,0,0,0-1,1.1c0,2,0,2.94,0,4.9l5-.22v2.53c-4.34.19-6.52,0.29-10.86,0.46v-2.53Z"/><path class="cls-4" d="M460.5,468.93l4.06-.19V462.3l-4.06.19V460l7.05-.34c0,3.59,0,5.38,0,9l4.26-.22v2.53c-4.53.24-6.79,0.35-11.32,0.56v-2.53Zm3.5-12.26a1.71,1.71,0,0,1,.53-1.24,2.52,2.52,0,0,1,3-.15,1.48,1.48,0,0,1,.58,1.19,1.57,1.57,0,0,1-.58,1.24,2.47,2.47,0,0,1-1.54.55,2.06,2.06,0,0,1-1.47-.4A1.47,1.47,0,0,1,464,456.67Z"/><path class="cls-4" d="M475,460a13.26,13.26,0,0,1,2.13-.83,12.43,12.43,0,0,1,2.87-.46,6.26,6.26,0,0,1,2,.17,3.16,3.16,0,0,1,1.36.74,2.87,2.87,0,0,1,.75,1.22,5.41,5.41,0,0,1,.23,1.64q0,1.17-.08,2T484.26,466a9.81,9.81,0,0,0,0,1.08c0,0.21.05,0.42,0.07,0.62l1.5-.09v2.53l-3.87.23-0.3-1.55h-0.11a4.31,4.31,0,0,1-1.31,1.3,4.54,4.54,0,0,1-2.29.65,3.71,3.71,0,0,1-2.73-.77,3,3,0,0,1-1-2.38,3.78,3.78,0,0,1,.35-1.69,3.22,3.22,0,0,1,1-1.21,5.21,5.21,0,0,1,1.63-.76,9.72,9.72,0,0,1,2.12-.34,8.57,8.57,0,0,1,.87,0l1.12,0a2.42,2.42,0,0,0,0-.46v-0.44a1.39,1.39,0,0,0-.5-1.23,2.36,2.36,0,0,0-1.49-.29,7.15,7.15,0,0,0-2.1.42,14.37,14.37,0,0,0-1.58.68Zm3.92,8.22a2.88,2.88,0,0,0,1.64-.49,3,3,0,0,0,.8-0.91v-1.38l-0.68-.06a7.86,7.86,0,0,0-1,0,4.85,4.85,0,0,0-.87.13,3,3,0,0,0-.77.3,1.64,1.64,0,0,0-.55.48,1.13,1.13,0,0,0-.2.68,1.24,1.24,0,0,0,.38,1A1.7,1.7,0,0,0,479,468.24Z"/><path class="cls-4" d="M488.8,453.84l4.91-.31v10.63a4.76,4.76,0,0,0,.44,2.43,1.44,1.44,0,0,0,1.41.6,4,4,0,0,0,1.17-.23,4.82,4.82,0,0,0,.92-0.49l1.13,2q-0.39.28-.78,0.52a5.47,5.47,0,0,1-.83.42,5.91,5.91,0,0,1-1,.29,7.7,7.7,0,0,1-1.16.16,4.13,4.13,0,0,1-3.25-.9,4,4,0,0,1-1.08-3.06c0-3.86,0-5.8,0-9.66l-1.91.12C488.8,455.36,488.8,454.85,488.8,453.84Z"/><path class="cls-4" d="M502.41,471.76c4.09-.28,6.14-0.42,10.22-0.72v2.46c-4.09.3-6.13,0.44-10.22,0.72C502.41,473.23,502.41,472.74,502.41,471.76Z"/><path class="cls-4" d="M514.43,452.11l4.65-.35v5.89h0.09a4.34,4.34,0,0,1,1.47-1.29,5.76,5.76,0,0,1,3.78-.5,2.77,2.77,0,0,1,1.27.66,3.23,3.23,0,0,1,.83,1.37,7,7,0,0,1,.3,2.22v7.15l-3,.24V461a2.67,2.67,0,0,0-.6-2,1.94,1.94,0,0,0-1.57-.5,2.8,2.8,0,0,0-1.56.64,3.12,3.12,0,0,0-1,1.4v7.34l-3,.23V454.52l-1.66.12v-2.53Z"/><path class="cls-4" d="M540.53,464.89a4.64,4.64,0,0,1-.77.61,8.29,8.29,0,0,1-1.1.59,9.35,9.35,0,0,1-3,.76,7.58,7.58,0,0,1-2.63-.19,4.6,4.6,0,0,1-3.2-2.85,6.81,6.81,0,0,1-.43-2.51,7,7,0,0,1,.48-2.7,6,6,0,0,1,1.32-2,6.18,6.18,0,0,1,2-1.3,8,8,0,0,1,2.44-.59,7.4,7.4,0,0,1,1.81.08,4.52,4.52,0,0,1,1.71.65,3.75,3.75,0,0,1,1.28,1.4,4.85,4.85,0,0,1,.5,2.35,11.26,11.26,0,0,1-.23,2.16l-8.28.71a2.51,2.51,0,0,0,.31,1.22,2.17,2.17,0,0,0,.76.76,3,3,0,0,0,1.08.38,5.29,5.29,0,0,0,1.3,0,7,7,0,0,0,2.27-.52,5.38,5.38,0,0,0,1.44-.91Zm-5-7.78a4,4,0,0,0-1.13.26,3.49,3.49,0,0,0-1,.56,3,3,0,0,0-.7.84,2.58,2.58,0,0,0-.32,1.08l5.66-.48A2.07,2.07,0,0,0,535.56,457.1Z"/><path class="cls-4" d="M544.05,449.7l4.9-.44v10.63a4.69,4.69,0,0,0,.44,2.42,1.4,1.4,0,0,0,1.4.56,4,4,0,0,0,1.17-.26,5,5,0,0,0,.92-0.51l1.13,2q-0.39.29-.78,0.55a5.64,5.64,0,0,1-.83.45,6,6,0,0,1-1,.32,7.78,7.78,0,0,1-1.16.19,4,4,0,0,1-3.24-.81,3.94,3.94,0,0,1-1.08-3v-9.66l-1.91.17V449.7Z"/><path class="cls-4" d="M555.85,453.21l3.91-.38,0.34,1.35h0.09a4.9,4.9,0,0,1,3.86-2.08,5.27,5.27,0,0,1,1.94.14,3.32,3.32,0,0,1,1.52.89,4.34,4.34,0,0,1,1,1.69,8.28,8.28,0,0,1,.34,2.56,8.83,8.83,0,0,1-.39,2.7,6.4,6.4,0,0,1-1.13,2.13,5.56,5.56,0,0,1-1.79,1.45,6.67,6.67,0,0,1-2.41.68,9.38,9.38,0,0,1-1.4,0,3.61,3.61,0,0,1-1.15-.22v4.71l-3,.29c0-5.43,0-8.14,0-13.57l-1.72.17v-2.53Zm7.31,1.5a3.3,3.3,0,0,0-1.6.59,2.6,2.6,0,0,0-1,1.41v4.78a2.22,2.22,0,0,0,.93.31,5,5,0,0,0,1.23,0,3.41,3.41,0,0,0,1.2-.34,2.82,2.82,0,0,0,1-.8,3.85,3.85,0,0,0,.64-1.28,6.23,6.23,0,0,0,.23-1.79,3.13,3.13,0,0,0-.74-2.27A2.17,2.17,0,0,0,563.16,454.71Z"/><path class="cls-4" d="M581.91,460.83a4.8,4.8,0,0,1-.77.62,8.52,8.52,0,0,1-1.1.61,9.47,9.47,0,0,1-3,.83,7.53,7.53,0,0,1-2.63-.14,4.46,4.46,0,0,1-3.19-2.79,6.75,6.75,0,0,1-.42-2.5,7.13,7.13,0,0,1,.48-2.71,6.13,6.13,0,0,1,1.32-2,6.35,6.35,0,0,1,2-1.34,8.09,8.09,0,0,1,2.44-.64,7.34,7.34,0,0,1,1.8,0,4.42,4.42,0,0,1,1.71.61,3.63,3.63,0,0,1,1.27,1.37,4.8,4.8,0,0,1,.49,2.34,11.35,11.35,0,0,1-.23,2.16l-8.27.88a2.47,2.47,0,0,0,.31,1.21,2.11,2.11,0,0,0,.76.75,3,3,0,0,0,1.08.36,5.29,5.29,0,0,0,1.3,0,7.11,7.11,0,0,0,2.26-.56,5.51,5.51,0,0,0,1.44-.94Zm-5-7.68a4,4,0,0,0-1.13.28,3.59,3.59,0,0,0-1,.58,3.05,3.05,0,0,0-.7.86,2.63,2.63,0,0,0-.32,1.09l5.65-.6A2,2,0,0,0,576.95,453.16Z"/><path class="cls-4" d="M584.32,459.26l2.85-.31V452.5l-2.85.31v-2.53l5.17-.57,0.34,1.48h0.09a7.21,7.21,0,0,1,1.47-1.43,4,4,0,0,1,1.93-.73,2.33,2.33,0,0,1,2.17.76,5.14,5.14,0,0,1,.79,3.29l-2.69.31a2.16,2.16,0,0,0-.24-1.18,0.75,0.75,0,0,0-.77-0.29,2.53,2.53,0,0,0-1.48.63,5.5,5.5,0,0,0-1,1.17v4.9l5-.57v2.53c-4.32.5-6.49,0.74-10.82,1.22v-2.53Z"/><path class="cls-4" d="M607.64,464a9.67,9.67,0,0,1-3.12-.63,7.71,7.71,0,0,1-2.68-1.73A8.33,8.33,0,0,1,600,458.7a11.33,11.33,0,0,1-.7-4.2,12.71,12.71,0,0,1,.7-4.35,11.66,11.66,0,0,1,1.87-3.38,11.1,11.1,0,0,1,2.68-2.41,12.89,12.89,0,0,1,3.12-1.46l0.55,2.39a10.89,10.89,0,0,0-1.82.88,7.92,7.92,0,0,0-1.94,1.64,9,9,0,0,0-1.55,2.59,9.94,9.94,0,0,0-.63,3.75,8,8,0,0,0,.67,3.49,6.66,6.66,0,0,0,1.62,2.19,6.06,6.06,0,0,0,2,1.17,7.12,7.12,0,0,0,1.7.4Z"/><path class="cls-4" d="M613.4,455.85l3.51-.44V445.35l-3,2.7-1.38-1.67,5.23-4.66,2-.26V455l3.44-.44v2.53c-3.92.51-5.87,0.76-9.79,1.25v-2.53Z"/><path class="cls-4" d="M629.73,454.8a1.81,1.81,0,0,1,.52-1.31,2.15,2.15,0,0,1,1.3-.63,2,2,0,0,1,1.9.57,2.89,2.89,0,0,1,.64,2,4.74,4.74,0,0,1-.4,1.94,6,6,0,0,1-1,1.61,6.84,6.84,0,0,1-1.43,1.21,6.64,6.64,0,0,1-1.57.74L629,459.7a7.66,7.66,0,0,0,1.11-.54,5.38,5.38,0,0,0,1-.77,4.32,4.32,0,0,0,.77-1,2.74,2.74,0,0,0,.35-1.15,3,3,0,0,1-1.17.19,1.54,1.54,0,0,1-.79-0.26,1.25,1.25,0,0,1-.45-0.58A2.21,2.21,0,0,1,629.73,454.8Z"/><path class="cls-4" d="M640.91,452.21l3.5-.49V441.67l-3,2.75L640,442.77l5.22-4.73,2-.29v13.57l3.43-.49v2.53c-3.91.56-5.87,0.84-9.78,1.39v-2.53Z"/><path class="cls-4" d="M654.65,450.25l3.5-.52V439.69l-3,2.77-1.37-1.64L659,436l2-.3v13.57l3.43-.52v2.53l-9.77,1.46v-2.53Z"/><path class="cls-4" d="M668.69,453a9.22,9.22,0,0,0,1.69-.87,8.93,8.93,0,0,0,2-1.71,9.73,9.73,0,0,0,1.61-2.63,9.3,9.3,0,0,0,.66-3.67,8.68,8.68,0,0,0-.63-3.58,6.23,6.23,0,0,0-1.54-2.16,5.39,5.39,0,0,0-1.93-1.1,8.46,8.46,0,0,0-1.82-.38l0.55-2.55a10.08,10.08,0,0,1,3.11.6,7.47,7.47,0,0,1,2.67,1.68,8.12,8.12,0,0,1,1.86,2.87,11.18,11.18,0,0,1,.7,4.16,13,13,0,0,1-.7,4.39,11.92,11.92,0,0,1-1.86,3.42,11.42,11.42,0,0,1-2.67,2.46,12.35,12.35,0,0,1-3.11,1.49Z"/><path class="cls-4" d="M60,399.17v-2.53l2.7,0.43v-6.44L60,390.2v-2.53l2.72,0.43v-0.64a3.87,3.87,0,0,1,.38-1.8,3,3,0,0,1,1-1.13,3.43,3.43,0,0,1,1.43-.53,5.7,5.7,0,0,1,1.68,0,11.53,11.53,0,0,1,2.6.66,7.87,7.87,0,0,1,1.68.91l-0.87,2.15a12.31,12.31,0,0,0-1.13-.63,5.47,5.47,0,0,0-1.57-.45,2,2,0,0,0-1.73.3,2.21,2.21,0,0,0-.49,1.61l4.8,0.74c0,1,0,1.52,0,2.53l-4.8-.74v6.44l4.82,0.74v2.53C66.32,400.16,64.22,399.83,60,399.17Z"/><path class="cls-4" d="M74.17,390.64a11.22,11.22,0,0,1,2.12-.39,11.8,11.8,0,0,1,2.85.13,6.91,6.91,0,0,1,2,.59,4.14,4.14,0,0,1,1.35,1,3.75,3.75,0,0,1,.74,1.37,5.91,5.91,0,0,1,.23,1.69q0,1.17-.08,2c-0.05.54-.08,1-0.08,1.46a10.11,10.11,0,0,0,0,1.09c0,0.21.05,0.43,0.07,0.63l1.49,0.22c0,1,0,1.52,0,2.53l-3.84-.56-0.3-1.61-0.11,0a3.19,3.19,0,0,1-1.3,1,4,4,0,0,1-2.27.18,4.47,4.47,0,0,1-2.71-1.33,3.66,3.66,0,0,1-1-2.59,3.35,3.35,0,0,1,.35-1.61,2.39,2.39,0,0,1,1-1,4.24,4.24,0,0,1,1.61-.42,9.27,9.27,0,0,1,2.1.1q0.41,0.06.86,0.17l1.11,0.26a2.28,2.28,0,0,0,0-.45v-0.44a1.7,1.7,0,0,0-.5-1.33,2.77,2.77,0,0,0-1.48-.6,6.63,6.63,0,0,0-2.09,0,11.75,11.75,0,0,0-1.57.36Zm3.89,9a2.52,2.52,0,0,0,1.63-.16,2.17,2.17,0,0,0,.79-0.75v-1.38l-0.68-.2a8.29,8.29,0,0,0-1-.2,4.67,4.67,0,0,0-.86,0,2.56,2.56,0,0,0-.77.14,1.22,1.22,0,0,0-.54.37,1,1,0,0,0-.2.64,1.51,1.51,0,0,0,.37,1.06A2,2,0,0,0,78.07,399.66Z"/><path class="cls-4" d="M98.35,403.75a5.66,5.66,0,0,1-2.2.76,9.3,9.3,0,0,1-2.63,0,8.16,8.16,0,0,1-2.65-.81,6.55,6.55,0,0,1-1.95-1.51,6.31,6.31,0,0,1-1.2-2.09,7.69,7.69,0,0,1-.41-2.54,6,6,0,0,1,.48-2.51,4.44,4.44,0,0,1,1.34-1.72,4.87,4.87,0,0,1,2-.9,7.51,7.51,0,0,1,2.54,0,10.15,10.15,0,0,1,2.4.64,13,13,0,0,1,1.72.81c0,1.62,0,2.43,0,4l-2.52-.35c0-.85,0-1.27,0-2.12a6.93,6.93,0,0,0-1.42-.36,4.11,4.11,0,0,0-1.27,0,2.58,2.58,0,0,0-1.92,1.42,3.25,3.25,0,0,0-.31,1.5,3.85,3.85,0,0,0,.25,1.39,3.85,3.85,0,0,0,1.84,2.07,4.49,4.49,0,0,0,1.5.48,5.1,5.1,0,0,0,2.14-.07,7.28,7.28,0,0,0,1.25-.47Z"/><path class="cls-4" d="M102.24,396.42l-2.27-.31v-2.53l2.27,0.31v-2.62l3-.45c0,1.39,0,2.08,0,3.47l6,0.8v2.53l-6-.8v3.29a4.39,4.39,0,0,0,.66,2.65,2.66,2.66,0,0,0,1.86,1,3.84,3.84,0,0,0,1.12,0,3.76,3.76,0,0,0,.91-0.26,4.34,4.34,0,0,0,.73-0.41l0.61-.43,1.38,2.25a3.68,3.68,0,0,1-1,.71,7.17,7.17,0,0,1-1.26.5,7.24,7.24,0,0,1-1.41.26,6.59,6.59,0,0,1-1.44,0,5.68,5.68,0,0,1-3.86-2,7.45,7.45,0,0,1-1.29-4.74v-3.29Z"/><path class="cls-4" d="M114.14,401.22a6.65,6.65,0,0,1,.44-2.52,4.43,4.43,0,0,1,1.24-1.75,4.52,4.52,0,0,1,1.92-.94,7.05,7.05,0,0,1,2.49-.08,7.8,7.8,0,0,1,2.58.76,6.34,6.34,0,0,1,1.92,1.47,6.08,6.08,0,0,1,1.18,2.07,7.8,7.8,0,0,1,.4,2.53,6.68,6.68,0,0,1-.44,2.52,4.46,4.46,0,0,1-1.24,1.76,4.51,4.51,0,0,1-1.91.94,7,7,0,0,1-2.49.09,7.74,7.74,0,0,1-2.58-.77,6.35,6.35,0,0,1-1.92-1.48,6.11,6.11,0,0,1-1.18-2.07A7.82,7.82,0,0,1,114.14,401.22Zm3.07,0.4a4.85,4.85,0,0,0,.21,1.43,4,4,0,0,0,.6,1.2,3.25,3.25,0,0,0,.94.87,3.15,3.15,0,0,0,1.26.42,2.61,2.61,0,0,0,2.17-.58,3.34,3.34,0,0,0,.84-2.59,4.42,4.42,0,0,0-.78-2.66,3.09,3.09,0,0,0-2.22-1.26,3.41,3.41,0,0,0-1.19,0,2,2,0,0,0-1,.51,2.61,2.61,0,0,0-.63,1A4.71,4.71,0,0,0,117.21,401.62Z"/><path class="cls-4" d="M128,406.19l2.85,0.35V400.1l-2.85-.35v-2.53l5.16,0.63,0.34,1.56h0.09a5.11,5.11,0,0,1,1.47-1.09,3.39,3.39,0,0,1,1.93-.28,3,3,0,0,1,2.17,1.27,6,6,0,0,1,.79,3.47l-2.69-.32a2.49,2.49,0,0,0-.24-1.24,1,1,0,0,0-.77-0.47,2.09,2.09,0,0,0-1.48.28,3.9,3.9,0,0,0-1,.94v4.9l5,0.59V410c-4.32-.51-6.49-0.77-10.81-1.3v-2.53Z"/><path class="cls-4" d="M142.22,407.89l4,0.46v-6.44l-4-.46v-2.53l7,0.8c0,3.59,0,5.38,0,9l4.25,0.47v2.53c-4.51-.49-6.77-0.75-11.27-1.27v-2.53Zm3.49-11.7a1.44,1.44,0,0,1,.53-1.16,1.86,1.86,0,0,1,1.47-.34,2.5,2.5,0,0,1,1.54.68,1.76,1.76,0,0,1,.57,1.28,1.32,1.32,0,0,1-.57,1.14,2.17,2.17,0,0,1-1.54.3,2.37,2.37,0,0,1-1.47-.64A1.73,1.73,0,0,1,145.71,396.19Z"/><path class="cls-4" d="M156.71,401.32a11.57,11.57,0,0,1,2.13-.48,11.87,11.87,0,0,1,2.86,0,6.74,6.74,0,0,1,2,.5,3.91,3.91,0,0,1,1.36,1,3.55,3.55,0,0,1,.75,1.34,5.8,5.8,0,0,1,.23,1.68q0,1.17-.08,2c-0.05.55-.08,1-0.08,1.46a10,10,0,0,0,0,1.09c0,0.21.05,0.43,0.07,0.63l1.49,0.15c0,1,0,1.52,0,2.53l-3.86-.4-0.3-1.6h-0.11a3.4,3.4,0,0,1-1.3,1.09,4.11,4.11,0,0,1-2.28.28,4.29,4.29,0,0,1-2.72-1.21,3.5,3.5,0,0,1-1-2.55,3.42,3.42,0,0,1,.35-1.63,2.54,2.54,0,0,1,1-1,4.41,4.41,0,0,1,1.62-.49,9.3,9.3,0,0,1,2.11,0c0.27,0,.57.07,0.87,0.14L163,406a2.29,2.29,0,0,0,0-.46v-0.44a1.63,1.63,0,0,0-.5-1.31,2.67,2.67,0,0,0-1.48-.54,6.71,6.71,0,0,0-2.1.08,12.28,12.28,0,0,0-1.57.43Zm3.91,8.86a2.58,2.58,0,0,0,1.64-.23,2.32,2.32,0,0,0,.8-0.78v-1.38l-0.68-.17a8.06,8.06,0,0,0-1-.16,4.64,4.64,0,0,0-.86,0,2.64,2.64,0,0,0-.77.17,1.3,1.3,0,0,0-.55.39,1,1,0,0,0-.2.65,1.45,1.45,0,0,0,.37,1A1.94,1.94,0,0,0,160.62,410.18Z"/><path class="cls-4" d="M170.43,397.37l4.9,0.49c0,4.25,0,6.38,0,10.63a5.2,5.2,0,0,0,.44,2.5,1.72,1.72,0,0,0,1.4.83,3.78,3.78,0,0,0,1.17,0,4.06,4.06,0,0,0,.92-0.34l1.13,2.18q-0.39.22-.78,0.4a4.58,4.58,0,0,1-.83.29,5.35,5.35,0,0,1-1,.14,7.53,7.53,0,0,1-1.16,0,4.78,4.78,0,0,1-3.24-1.42,4.68,4.68,0,0,1-1.08-3.24c0-3.86,0-5.8,0-9.66l-1.91-.19v-2.53Z"/><path class="cls-4" d="M184,417.49c4.08,0.38,6.13.57,10.21,0.93,0,1,0,1.48,0,2.46-4.09-.36-6.13-0.55-10.21-0.93C184,419,184,418.47,184,417.49Z"/><path class="cls-4" d="M196,399.79l4.65,0.4c0,2.36,0,3.53,0,5.89h0.09a3.45,3.45,0,0,1,1.47-1,4.81,4.81,0,0,1,2.16-.26,5.63,5.63,0,0,1,1.61.36,3.41,3.41,0,0,1,1.27.86,4,4,0,0,1,.83,1.51,7.5,7.5,0,0,1,.3,2.27v7.15l-3-.25c0-2.61,0-3.92,0-6.53a3,3,0,0,0-.6-2.07,2.27,2.27,0,0,0-1.57-.75,2.44,2.44,0,0,0-1.56.39,2.49,2.49,0,0,0-1,1.24c0,2.94,0,4.4,0,7.34l-3-.26c0-5.43,0-8.14,0-13.57l-1.66-.14v-2.53Z"/><path class="cls-4" d="M222.12,416.79a3.71,3.71,0,0,1-.77.48,6.88,6.88,0,0,1-1.11.41,8.1,8.1,0,0,1-1.39.26,8.78,8.78,0,0,1-1.61,0,8.16,8.16,0,0,1-2.64-.62,5.77,5.77,0,0,1-3.2-3.37,7.35,7.35,0,0,1-.43-2.58,6.47,6.47,0,0,1,.48-2.62,4.76,4.76,0,0,1,1.32-1.79,5,5,0,0,1,2-1,7.43,7.43,0,0,1,2.44-.19,7.84,7.84,0,0,1,1.81.37,5.41,5.41,0,0,1,1.72.92,4.75,4.75,0,0,1,1.28,1.6,5.36,5.36,0,0,1,.49,2.43,10.67,10.67,0,0,1-.23,2.12l-8.29-.63a2.81,2.81,0,0,0,.31,1.27,2.74,2.74,0,0,0,.76.89,3.6,3.6,0,0,0,1.08.56,5.58,5.58,0,0,0,1.3.25,6.56,6.56,0,0,0,2.27-.15,4.39,4.39,0,0,0,1.44-.67Zm-5-8.59a3.7,3.7,0,0,0-1.13.08,2.88,2.88,0,0,0-1,.41,2.34,2.34,0,0,0-.7.73,2.27,2.27,0,0,0-.32,1l5.66,0.44A2.48,2.48,0,0,0,217.14,408.2Z"/><path class="cls-4" d="M225.64,402.17l4.9,0.35c0,4.25,0,6.38,0,10.63a5.11,5.11,0,0,0,.44,2.49,1.66,1.66,0,0,0,1.41.79,3.78,3.78,0,0,0,1.17-.07,4.16,4.16,0,0,0,.92-0.36l1.13,2.15q-0.39.23-.78,0.42a4.69,4.69,0,0,1-.83.31,5.34,5.34,0,0,1-1,.16,7.56,7.56,0,0,1-1.16,0,4.65,4.65,0,0,1-3.25-1.33,4.56,4.56,0,0,1-1.08-3.21c0-3.86,0-5.8,0-9.66l-1.91-.14v-2.53Z"/><path class="cls-4" d="M237.45,407.59l3.92,0.26,0.35,1.4h0.09a4.14,4.14,0,0,1,3.87-1.46,5.7,5.7,0,0,1,1.95.45,4.14,4.14,0,0,1,1.52,1.14,5.3,5.3,0,0,1,1,1.85,8.82,8.82,0,0,1,.35,2.62,8.21,8.21,0,0,1-.39,2.63,5.22,5.22,0,0,1-1.13,1.94,4.44,4.44,0,0,1-1.8,1.15,6.11,6.11,0,0,1-2.42.29,9.69,9.69,0,0,1-1.4-.19,4.11,4.11,0,0,1-1.15-.41c0,1.89,0,2.83,0,4.71l-3-.19c0-5.43,0-8.14,0-13.57l-1.73-.11v-2.53Zm7.33,2.68a2.92,2.92,0,0,0-1.6.33,2.08,2.08,0,0,0-1,1.25v4.78a2.65,2.65,0,0,0,.93.46,5.29,5.29,0,0,0,1.23.23,3.15,3.15,0,0,0,1.2-.14,2.25,2.25,0,0,0,1-.64,3.15,3.15,0,0,0,.64-1.18,5.83,5.83,0,0,0,.23-1.76,3.59,3.59,0,0,0-.74-2.39A2.56,2.56,0,0,0,244.78,410.27Z"/><path class="cls-4" d="M263.58,419.44a3.82,3.82,0,0,1-.77.5,7.06,7.06,0,0,1-1.11.44,8.21,8.21,0,0,1-1.39.29,8.91,8.91,0,0,1-1.61,0,8.08,8.08,0,0,1-2.64-.56,5.6,5.6,0,0,1-3.2-3.3,7.29,7.29,0,0,1-.43-2.57,6.54,6.54,0,0,1,.48-2.63,4.91,4.91,0,0,1,1.32-1.82,5.17,5.17,0,0,1,2-1,7.49,7.49,0,0,1,2.44-.24,7.77,7.77,0,0,1,1.81.33,5.28,5.28,0,0,1,1.72.89,4.6,4.6,0,0,1,1.28,1.58,5.28,5.28,0,0,1,.5,2.42,10.76,10.76,0,0,1-.23,2.13l-8.3-.46a2.77,2.77,0,0,0,.31,1.26,2.67,2.67,0,0,0,.76.87,3.5,3.5,0,0,0,1.08.53,5.54,5.54,0,0,0,1.3.22,6.6,6.6,0,0,0,2.27-.2,4.5,4.5,0,0,0,1.44-.7Zm-5-8.48a3.73,3.73,0,0,0-1.13.1,3,3,0,0,0-1,.43,2.41,2.41,0,0,0-.7.75,2.29,2.29,0,0,0-.32,1l5.67,0.32A2.42,2.42,0,0,0,258.6,411Z"/><path class="cls-4" d="M266,418.25l2.86,0.15V412l-2.86-.15v-2.53l5.19,0.26,0.35,1.53h0.09a5.69,5.69,0,0,1,1.48-1.19,3.54,3.54,0,0,1,1.94-.41,2.76,2.76,0,0,1,2.18,1.11A5.74,5.74,0,0,1,278,414l-2.7-.13a2.37,2.37,0,0,0-.24-1.22,0.9,0.9,0,0,0-.77-0.42,2.2,2.2,0,0,0-1.49.39,4.34,4.34,0,0,0-1,1v4.9l5,0.24v2.53c-4.34-.2-6.51-0.31-10.86-0.54v-2.53Z"/><path class="cls-4" d="M289.42,426.74a11.09,11.09,0,0,1-3.14-1.14,9.73,9.73,0,0,1-2.7-2.16,10.3,10.3,0,0,1-1.88-3.21,12.21,12.21,0,0,1-.7-4.31,11.71,11.71,0,0,1,.7-4.24,9.45,9.45,0,0,1,1.88-3.08,8.8,8.8,0,0,1,2.7-2,11,11,0,0,1,3.14-1l0.55,2.48a9.3,9.3,0,0,0-1.83.58,6.3,6.3,0,0,0-1.95,1.32,7.28,7.28,0,0,0-1.56,2.34,9.12,9.12,0,0,0-.63,3.65,8.69,8.69,0,0,0,.67,3.59,8.36,8.36,0,0,0,1.63,2.45,7.6,7.6,0,0,0,2,1.48,8.21,8.21,0,0,0,1.71.68Z"/><path class="cls-4" d="M295.21,419.56l3.53,0.13c0-4,0-6,0-10.05l-3,2.21L294.31,410l5.26-3.81,2,0.07c0,5.43,0,8.14,0,13.57l3.46,0.11v2.53l-9.85-.34C295.21,421.08,295.21,420.57,295.21,419.56Z"/><path class="cls-4" d="M311.63,421.16a1.53,1.53,0,0,1,.52-1.23,1.85,1.85,0,0,1,1.3-.42,2.35,2.35,0,0,1,1.91.88,3.3,3.3,0,0,1,.65,2.06,4.27,4.27,0,0,1-.4,1.88,4.79,4.79,0,0,1-1,1.44,5.46,5.46,0,0,1-1.44,1,5.73,5.73,0,0,1-1.58.48l-0.62-1.28a6.49,6.49,0,0,0,1.12-.36,4.35,4.35,0,0,0,1-.6,3.41,3.41,0,0,0,.77-0.86,2.38,2.38,0,0,0,.36-1.09,2.94,2.94,0,0,1-1.18,0,1.84,1.84,0,0,1-.8-0.39,1.57,1.57,0,0,1-.45-0.66A2.38,2.38,0,0,1,311.63,421.16Z"/><path class="cls-4" d="M322.88,420.4l3.53,0.08c0-4,0-6,0-10.05l-3,2.26L322,410.81l5.26-3.88,2,0v13.57l3.46,0.07v2.53l-9.85-.2V420.4Z"/><path class="cls-4" d="M336.72,420.67l3.53,0.05V410.67l-3,2.28-1.38-1.86,5.26-3.92,2,0c0,5.43,0,8.14,0,13.57l3.46,0v2.53l-9.85-.13v-2.53Z"/><path class="cls-4" d="M350.89,425.75a7.9,7.9,0,0,0,1.71-.59,7.14,7.14,0,0,0,2-1.39,7.81,7.81,0,0,0,1.63-2.37,8.45,8.45,0,0,0,.67-3.56,9.36,9.36,0,0,0-.63-3.68,7.78,7.78,0,0,0-1.56-2.41,6.78,6.78,0,0,0-1.95-1.42,9.75,9.75,0,0,0-1.83-.67l0.55-2.46a11.58,11.58,0,0,1,3.14,1.11,9.46,9.46,0,0,1,2.7,2.11,10.07,10.07,0,0,1,1.88,3.17,13.33,13.33,0,0,1,0,8.54,9.66,9.66,0,0,1-1.88,3.12,9.08,9.08,0,0,1-2.7,2,10.63,10.63,0,0,1-3.14,1Z"/><path class="cls-4" d="M515,415.49l2.85-.21v-6.44L515,409c0-1,0-1.52,0-2.53l5.18-.39,0.35,1.49h0.09a6.86,6.86,0,0,1,1.47-1.38,3.88,3.88,0,0,1,1.93-.66,2.42,2.42,0,0,1,2.18.84,5.26,5.26,0,0,1,.79,3.32l-2.69.22a2.21,2.21,0,0,0-.24-1.19,0.78,0.78,0,0,0-.77-0.32,2.45,2.45,0,0,0-1.48.58,5.23,5.23,0,0,0-1,1.13V415l5-.39v2.53c-4.34.35-6.5,0.51-10.84,0.84C515,417,515,416.5,515,415.49Z"/><path class="cls-4" d="M540.23,414.76a4.63,4.63,0,0,1-.77.61,8.28,8.28,0,0,1-1.1.59,9.33,9.33,0,0,1-3,.76,7.58,7.58,0,0,1-2.64-.19,4.6,4.6,0,0,1-3.2-2.85,6.82,6.82,0,0,1-.43-2.51,7,7,0,0,1,.48-2.7,6,6,0,0,1,1.32-2,6.18,6.18,0,0,1,2-1.3,8,8,0,0,1,2.44-.59,7.4,7.4,0,0,1,1.81.08,4.52,4.52,0,0,1,1.71.65,3.75,3.75,0,0,1,1.28,1.4,4.85,4.85,0,0,1,.5,2.35,11.26,11.26,0,0,1-.23,2.16l-8.28.71a2.51,2.51,0,0,0,.31,1.22,2.17,2.17,0,0,0,.76.76,3,3,0,0,0,1.08.38,5.29,5.29,0,0,0,1.3,0,7,7,0,0,0,2.27-.52,5.37,5.37,0,0,0,1.44-.91Zm-5-7.78a4,4,0,0,0-1.13.26,3.51,3.51,0,0,0-1,.56,3,3,0,0,0-.7.84,2.58,2.58,0,0,0-.32,1.08l5.66-.48A2.07,2.07,0,0,0,535.26,407Z"/><path class="cls-4" d="M554.31,413.6a7.39,7.39,0,0,1-2.21,1.28,10.16,10.16,0,0,1-2.64.6,7.25,7.25,0,0,1-2.66-.19,4.81,4.81,0,0,1-2-1.05,4.61,4.61,0,0,1-1.21-1.81,7.39,7.39,0,0,1,.07-5.07,6.13,6.13,0,0,1,1.35-2,6.54,6.54,0,0,1,2-1.37,8.31,8.31,0,0,1,2.55-.64,9.24,9.24,0,0,1,2.41.08,10.47,10.47,0,0,1,1.73.41v4l-2.53.24V406a6.39,6.39,0,0,0-1.43,0,4.56,4.56,0,0,0-1.28.31,3.51,3.51,0,0,0-1.13.72,3.61,3.61,0,0,0-1.12,2.71,3.39,3.39,0,0,0,.25,1.33,2.86,2.86,0,0,0,.71,1,2.9,2.9,0,0,0,1.14.62,4,4,0,0,0,1.51.13,5.68,5.68,0,0,0,2.15-.57,9.77,9.77,0,0,0,1.25-.76Z"/><path class="cls-4" d="M563.13,402.35l4.28-.43v9l1.75-.18v2.53l-3.63.37L565,412H564.9a4.7,4.7,0,0,1-1.59,1.61,5.22,5.22,0,0,1-2.35.81,5.1,5.1,0,0,1-1.6-.07,2.55,2.55,0,0,1-1.23-.64,3.12,3.12,0,0,1-.78-1.35,7.5,7.5,0,0,1-.28-2.23v-4.62l-1.31.13v-2.53l4.3-.41v6.53a3.31,3.31,0,0,0,.45,2,1.48,1.48,0,0,0,1.41.48,2.74,2.74,0,0,0,1.53-.66,3.12,3.12,0,0,0,1-1.34v-4.9l-1.29.13v-2.53Z"/><path class="cls-4" d="M570.24,410.6l2.85-.29v-6.44l-2.85.29c0-1,0-1.52,0-2.53l5.17-.54,0.34,1.48h0.09a7.14,7.14,0,0,1,1.47-1.42,4,4,0,0,1,1.93-.71,2.35,2.35,0,0,1,2.17.78,5.17,5.17,0,0,1,.79,3.29l-2.69.29a2.17,2.17,0,0,0-.24-1.18,0.76,0.76,0,0,0-.77-0.3,2.51,2.51,0,0,0-1.48.62,5.43,5.43,0,0,0-1,1.16c0,2,0,2.94,0,4.9l5-.53V412c-4.33.47-6.49,0.7-10.82,1.14V410.6Z"/><path class="cls-4" d="M593.57,415.47a9.74,9.74,0,0,1-3.12-.66,7.79,7.79,0,0,1-2.69-1.75,8.4,8.4,0,0,1-1.87-2.92,11.36,11.36,0,0,1-.7-4.2,12.66,12.66,0,0,1,.7-4.34,11.54,11.54,0,0,1,1.87-3.37,11,11,0,0,1,2.69-2.4,12.82,12.82,0,0,1,3.12-1.44l0.55,2.4a10.8,10.8,0,0,0-1.82.87,7.84,7.84,0,0,0-1.94,1.62,9,9,0,0,0-1.55,2.58,9.9,9.9,0,0,0-.63,3.75,8,8,0,0,0,.67,3.49,6.73,6.73,0,0,0,1.62,2.2,6.12,6.12,0,0,0,2,1.18,7.12,7.12,0,0,0,1.7.41Z"/><path class="cls-4" d="M599.33,407.39l3.51-.42V396.93l-3,2.68-1.38-1.68,5.23-4.62,2-.24v13.57l3.44-.42v2.53l-9.8,1.18v-2.53Z"/><path class="cls-4" d="M613.1,405.72l3.51-.44c0-4,0-6,0-10.05l-3,2.7-1.38-1.67,5.23-4.66,2-.26c0,5.43,0,8.14,0,13.57l3.44-.44V407c-3.92.51-5.87,0.76-9.79,1.25v-2.53Z"/><path class="cls-4" d="M629.43,404.67a1.81,1.81,0,0,1,.52-1.31,2.16,2.16,0,0,1,1.3-.63,2,2,0,0,1,1.9.57,2.89,2.89,0,0,1,.64,2,4.74,4.74,0,0,1-.4,1.94,6,6,0,0,1-1,1.61A6.81,6.81,0,0,1,630.9,410a6.65,6.65,0,0,1-1.57.74l-0.62-1.18a7.67,7.67,0,0,0,1.11-.54,5.44,5.44,0,0,0,1-.77,4.34,4.34,0,0,0,.77-1,2.75,2.75,0,0,0,.36-1.15,3,3,0,0,1-1.17.19,1.54,1.54,0,0,1-.79-0.26,1.25,1.25,0,0,1-.45-0.58A2.22,2.22,0,0,1,629.43,404.67Z"/><path class="cls-4" d="M640.61,402.09l3.5-.49c0-4,0-6,0-10.05l-3,2.75-1.37-1.65,5.22-4.73,2-.29c0,5.43,0,8.14,0,13.57l3.43-.49v2.53c-3.91.56-5.87,0.84-9.78,1.39v-2.53Z"/><path class="cls-4" d="M652.79,394.81a14.52,14.52,0,0,1,.44-3.73,8.91,8.91,0,0,1,1.23-2.79,6.32,6.32,0,0,1,1.9-1.83,6.43,6.43,0,0,1,2.46-.88,4.61,4.61,0,0,1,4.46,1.37q1.56,1.8,1.56,6.08a14.64,14.64,0,0,1-.44,3.76,9.13,9.13,0,0,1-1.23,2.81,6.26,6.26,0,0,1-1.91,1.85,6.49,6.49,0,0,1-2.47.89,4.45,4.45,0,0,1-4.46-1.49Q652.79,398.91,652.79,394.81Zm3-.44c0,0.23,0,.45,0,0.65s0,0.42,0,.63l5.54-6a2.16,2.16,0,0,0-2.56-1.59,3,3,0,0,0-2.24,1.75A10.22,10.22,0,0,0,655.76,394.38Zm6.09-.91c0-.25,0-0.48,0-0.7s0-.44,0-0.65l-5.56,6a2.2,2.2,0,0,0,2.57,1.71,3,3,0,0,0,2.25-1.74A10.25,10.25,0,0,0,661.85,393.47Z"/><path class="cls-4" d="M668.39,402.92a9.24,9.24,0,0,0,1.69-.87,9,9,0,0,0,2-1.71,9.75,9.75,0,0,0,1.61-2.63,9.3,9.3,0,0,0,.66-3.67,8.67,8.67,0,0,0-.63-3.58,6.23,6.23,0,0,0-1.54-2.16,5.39,5.39,0,0,0-1.93-1.1,8.45,8.45,0,0,0-1.82-.38l0.55-2.55a10.09,10.09,0,0,1,3.11.6,7.47,7.47,0,0,1,2.67,1.68,8.12,8.12,0,0,1,1.86,2.87,11.18,11.18,0,0,1,.7,4.16,13,13,0,0,1-.7,4.39,11.93,11.93,0,0,1-1.86,3.42,11.42,11.42,0,0,1-2.67,2.46,12.34,12.34,0,0,1-3.11,1.49Z"/></svg>