<svg id="Layer_1" data-name="Layer 1" xmlns="http://www.w3.org/2000/svg" viewBox="0 0 720 576"><defs><style>.cls-1,.cls-2,.cls-4,.cls-6{fill:#231f20;}.cls-1,.cls-3{stroke:#231f20;}.cls-1,.cls-6{stroke-miterlimit:10;}.cls-1,.cls-2,.cls-3{stroke-width:2px;}.cls-2{stroke:#000;}.cls-2,.cls-3{stroke-linecap:round;stroke-linejoin:round;}.cls-3,.cls-5{fill:#fff;}.cls-6{stroke:#fff;}</style></defs><title>Hanoi_Tower_Set_5_Final</title><path class="cls-1" d="M688.35,506.49c0-.14,0-0.29,0-0.43s0-.29,0-0.43V453.84H42.47s-0.25,51.74-.25,52.22c0,2.67,2.32,5.24,6.64,7.71,15.13,8.61,55.2,16.11,111,21.48s127.39,8.59,205.41,8.59c89.17,0,169.9-4.21,228.35-11,29.22-3.41,52.88-7.46,69.24-12,8.18-2.25,14.54-4.62,18.86-7.08,3.69-2.1,5.91-4.29,6.48-6.55h0.11v-0.73Z"/><ellipse class="cls-2" cx="365.31" cy="454.92" rx="322.89" ry="37.63"/><path class="cls-3" d="M688.35,455c0-.14,0-0.29,0-0.43s0-.29,0-0.43V402.36H42.47s-0.25,51.74-.25,52.22c0,2.67,2.32,5.24,6.64,7.71,15.13,8.61,55.2,16.11,111,21.48s127.39,8.59,205.41,8.59c89.17,0,169.9-4.21,228.35-11,29.22-3.41,52.88-7.46,69.24-12,8.18-2.25,14.54-4.62,18.86-7.08,3.69-2.1,5.91-4.29,6.48-6.55h0.11V455Z"/><ellipse class="cls-3" cx="365.31" cy="403.44" rx="322.89" ry="37.63"/><path class="cls-3" d="M688.35,403.53c0-.14,0-0.29,0-0.43s0-.29,0-0.43V350.88H42.47s-0.25,51.74-.25,52.22c0,2.67,2.32,5.24,6.64,7.71,15.13,8.61,55.2,16.11,111,21.48s127.39,8.59,205.41,8.59c89.17,0,169.9-4.21,228.35-11,29.22-3.41,52.88-7.46,69.24-12,8.18-2.25,14.54-4.62,18.86-7.08,3.69-2.1,5.91-4.29,6.48-6.55h0.11v-0.73Z"/><ellipse class="cls-3" cx="365.31" cy="351.97" rx="322.89" ry="37.63"/><path class="cls-3" d="M688.35,352.06c0-.14,0-0.29,0-0.43s0-.29,0-0.43V299.4H42.47s-0.25,51.74-.25,52.22c0,2.67,2.32,5.24,6.64,7.71,15.13,8.61,55.2,16.11,111,21.48s127.39,8.59,205.41,8.59c89.17,0,169.9-4.21,228.35-11,29.22-3.41,52.88-7.46,69.24-12,8.18-2.25,14.54-4.62,18.86-7.08,3.69-2.1,5.91-4.29,6.48-6.55h0.11v-0.73Z"/><ellipse class="cls-3" cx="365.31" cy="300.49" rx="322.89" ry="37.63"/><path class="cls-3" d="M688.35,302.06c0-.14,0-0.29,0-0.43s0-.29,0-0.43V249.4H42.47s-0.25,51.74-.25,52.22c0,2.67,2.32,5.24,6.64,7.71,15.13,8.61,55.2,16.11,111,21.48s127.39,8.59,205.41,8.59c89.17,0,169.9-4.21,228.35-11,29.22-3.41,52.88-7.46,69.24-12,8.18-2.25,14.54-4.62,18.86-7.08,3.69-2.1,5.91-4.29,6.48-6.55h0.11v-0.73Z"/><ellipse class="cls-3" cx="365.31" cy="250.49" rx="322.89" ry="37.63"/><path class="cls-4" d="M366.34,259.78c-16,0-29-3.75-30.2-8.61h-0.08l0-.5V8.27h60.63V251.17h-0.12C395.31,256,382.31,259.78,366.34,259.78Z"/><path class="cls-5" d="M396.16,8.77v241.9h0c-0.49,4.78-13.63,8.61-29.79,8.61s-29.3-3.83-29.79-8.61h0v-0.21s0,0,0-.06,0,0,0-.06V8.77h59.63m1-1H335.53V250.29s0,0.07,0,.11v1.27h0.23c2,5.6,16.84,8.61,30.58,8.61s28.6-3,30.58-8.61h0.21l0-1V7.77h0Z"/><ellipse class="cls-6" cx="366.34" cy="8.89" rx="29.81" ry="8.89"/><path class="cls-4" d="M56.39,450.44v-2.53l2.7,0.43V441.9l-2.72-.43v-2.53l2.72,0.43v-0.64a3.87,3.87,0,0,1,.38-1.8,3,3,0,0,1,1-1.13,3.43,3.43,0,0,1,1.43-.53,5.73,5.73,0,0,1,1.68,0,11.54,11.54,0,0,1,2.6.66,7.89,7.89,0,0,1,1.68.91L67,439a12.29,12.29,0,0,0-1.13-.63,5.45,5.45,0,0,0-1.57-.45,2,2,0,0,0-1.73.3,2.21,2.21,0,0,0-.49,1.61l4.8,0.74v2.53l-4.8-.74v6.44l4.83,0.74v2.53C62.68,451.43,60.58,451.11,56.39,450.44Z"/><path class="cls-4" d="M70.54,441.91a11.17,11.17,0,0,1,2.12-.39,11.81,11.81,0,0,1,2.85.12,6.9,6.9,0,0,1,2,.59,4.15,4.15,0,0,1,1.35,1,3.75,3.75,0,0,1,.74,1.37,5.93,5.93,0,0,1,.23,1.69q0,1.17-.08,2t-0.08,1.46a10.14,10.14,0,0,0,0,1.09c0,0.21.05,0.43,0.07,0.63l1.49,0.22v2.53l-3.84-.56-0.3-1.61L77,452a3.19,3.19,0,0,1-1.3,1,4,4,0,0,1-2.27.18,4.47,4.47,0,0,1-2.71-1.33,3.65,3.65,0,0,1-1-2.59,3.35,3.35,0,0,1,.35-1.61,2.38,2.38,0,0,1,1-1,4.23,4.23,0,0,1,1.61-.42,9.26,9.26,0,0,1,2.1.09q0.41,0.06.86,0.17l1.11,0.26a2.27,2.27,0,0,0,0-.45v-0.44a1.7,1.7,0,0,0-.5-1.33,2.76,2.76,0,0,0-1.48-.6,6.64,6.64,0,0,0-2.09,0,11.77,11.77,0,0,0-1.57.36Zm3.89,9a2.52,2.52,0,0,0,1.63-.16,2.17,2.17,0,0,0,.79-0.75v-1.38l-0.68-.2a8.27,8.27,0,0,0-1-.2,4.63,4.63,0,0,0-.86,0,2.57,2.57,0,0,0-.77.14,1.22,1.22,0,0,0-.54.37,1,1,0,0,0-.2.64,1.51,1.51,0,0,0,.37,1.06A2,2,0,0,0,74.43,450.94Z"/><path class="cls-4" d="M94.71,455a5.66,5.66,0,0,1-2.2.76,9.32,9.32,0,0,1-2.63,0,8.16,8.16,0,0,1-2.65-.81,6.56,6.56,0,0,1-1.95-1.51,6.29,6.29,0,0,1-1.2-2.09,7.69,7.69,0,0,1-.41-2.54,6,6,0,0,1,.48-2.51,4.44,4.44,0,0,1,1.34-1.72,4.87,4.87,0,0,1,2-.9,7.51,7.51,0,0,1,2.54,0,10.13,10.13,0,0,1,2.4.64,13,13,0,0,1,1.72.81v4l-2.52-.35v-2.12a6.92,6.92,0,0,0-1.42-.36,4.14,4.14,0,0,0-1.27,0,2.58,2.58,0,0,0-1.92,1.42,3.26,3.26,0,0,0-.31,1.5,3.85,3.85,0,0,0,.25,1.39,3.91,3.91,0,0,0,.71,1.18,4,4,0,0,0,1.13.88,4.49,4.49,0,0,0,1.5.48,5.09,5.09,0,0,0,2.14-.07,7.33,7.33,0,0,0,1.25-.47Z"/><path class="cls-4" d="M98.61,447.69l-2.27-.31v-2.53l2.27,0.31v-2.62l3-.45v3.47l6,0.8v2.53l-6-.8v3.29a4.39,4.39,0,0,0,.66,2.65,2.66,2.66,0,0,0,1.86,1,3.83,3.83,0,0,0,1.12,0,3.75,3.75,0,0,0,.91-0.26,4.32,4.32,0,0,0,.73-0.41l0.61-.43,1.38,2.25a3.66,3.66,0,0,1-1,.71,7.11,7.11,0,0,1-1.26.5,7.24,7.24,0,0,1-1.41.26,6.58,6.58,0,0,1-1.44,0,5.68,5.68,0,0,1-3.86-2A7.45,7.45,0,0,1,98.61,451v-3.29Z"/><path class="cls-4" d="M110.5,452.5a6.66,6.66,0,0,1,.44-2.52,4.43,4.43,0,0,1,1.24-1.75,4.51,4.51,0,0,1,1.91-.94,7,7,0,0,1,2.49-.08,7.79,7.79,0,0,1,2.58.76,6.34,6.34,0,0,1,1.92,1.47,6.07,6.07,0,0,1,1.18,2.07,7.81,7.81,0,0,1,.4,2.53,6.68,6.68,0,0,1-.44,2.52,4.35,4.35,0,0,1-3.15,2.7,7,7,0,0,1-2.49.09,7.75,7.75,0,0,1-2.58-.77,6.34,6.34,0,0,1-1.91-1.48A6.11,6.11,0,0,1,110.9,455,7.82,7.82,0,0,1,110.5,452.5Zm3.07,0.4a4.83,4.83,0,0,0,.21,1.43,4,4,0,0,0,.6,1.2,3.25,3.25,0,0,0,.94.87,3.16,3.16,0,0,0,1.26.43,2.61,2.61,0,0,0,2.17-.58,3.34,3.34,0,0,0,.84-2.59,4.42,4.42,0,0,0-.78-2.66,3.1,3.1,0,0,0-2.22-1.26,3.42,3.42,0,0,0-1.19,0,2,2,0,0,0-1,.51,2.61,2.61,0,0,0-.63,1A4.7,4.7,0,0,0,113.58,452.9Z"/><path class="cls-4" d="M124.36,457.47l2.84,0.35v-6.44l-2.84-.35V448.5l5.16,0.63,0.34,1.56H130a5.12,5.12,0,0,1,1.47-1.09,3.39,3.39,0,0,1,1.93-.28,3,3,0,0,1,2.17,1.27,6,6,0,0,1,.79,3.47l-2.69-.32a2.49,2.49,0,0,0-.24-1.24,1,1,0,0,0-.77-0.47,2.08,2.08,0,0,0-1.48.28,3.9,3.9,0,0,0-1,.94v4.9l5,0.59v2.53c-4.32-.51-6.49-0.77-10.81-1.3v-2.53Z"/><path class="cls-4" d="M138.58,459.17l4,0.46v-6.44l-4-.46V450.2l7,0.8v9l4.25,0.47V463c-4.51-.5-6.77-0.75-11.27-1.27v-2.53Zm3.49-11.7a1.44,1.44,0,0,1,.53-1.16,1.86,1.86,0,0,1,1.47-.34,2.5,2.5,0,0,1,1.54.68,1.77,1.77,0,0,1,.57,1.28,1.32,1.32,0,0,1-.57,1.14,2.17,2.17,0,0,1-1.54.3,2.37,2.37,0,0,1-1.47-.64A1.73,1.73,0,0,1,142.07,447.47Z"/><path class="cls-4" d="M153.07,452.6a11.54,11.54,0,0,1,2.12-.48,11.88,11.88,0,0,1,2.86,0,6.73,6.73,0,0,1,2,.5,3.92,3.92,0,0,1,1.36,1,3.55,3.55,0,0,1,.75,1.34,5.8,5.8,0,0,1,.23,1.68q0,1.17-.08,2c-0.05.55-.08,1-0.08,1.46a10,10,0,0,0,0,1.09c0,0.21.05,0.43,0.07,0.63l1.49,0.15v2.53l-3.86-.4-0.3-1.6H159.6a3.4,3.4,0,0,1-1.3,1.09,4.1,4.1,0,0,1-2.28.28,4.29,4.29,0,0,1-2.72-1.21,3.5,3.5,0,0,1-1-2.55,3.42,3.42,0,0,1,.35-1.63,2.54,2.54,0,0,1,1-1,4.41,4.41,0,0,1,1.62-.49,9.31,9.31,0,0,1,2.11,0q0.41,0,.87.14l1.12,0.21a2.3,2.3,0,0,0,0-.46v-0.44a1.63,1.63,0,0,0-.5-1.31,2.66,2.66,0,0,0-1.48-.54,6.7,6.7,0,0,0-2.1.08,12.21,12.21,0,0,0-1.57.43Zm3.91,8.86a2.58,2.58,0,0,0,1.64-.23,2.31,2.31,0,0,0,.79-0.78v-1.38l-0.68-.18a8.14,8.14,0,0,0-1-.16,4.66,4.66,0,0,0-.86,0,2.63,2.63,0,0,0-.77.17,1.29,1.29,0,0,0-.55.39,1,1,0,0,0-.2.65,1.45,1.45,0,0,0,.37,1A1.94,1.94,0,0,0,157,461.46Z"/><path class="cls-4" d="M166.79,448.65l4.9,0.49v10.63a5.2,5.2,0,0,0,.44,2.5,1.72,1.72,0,0,0,1.4.83,3.77,3.77,0,0,0,1.17,0,4,4,0,0,0,.92-0.34l1.13,2.18q-0.39.22-.78,0.4a4.59,4.59,0,0,1-.83.29,5.31,5.31,0,0,1-1,.14,7.5,7.5,0,0,1-1.16,0,4.78,4.78,0,0,1-3.24-1.42A4.68,4.68,0,0,1,168.7,461v-9.66l-1.91-.19v-2.53Z"/><path class="cls-4" d="M189,471.75a11.6,11.6,0,0,1-3.13-1.29,10.44,10.44,0,0,1-2.69-2.29,11,11,0,0,1-1.87-3.3,12.52,12.52,0,0,1-.7-4.34,11.46,11.46,0,0,1,.7-4.2,8.84,8.84,0,0,1,1.87-3,8.21,8.21,0,0,1,2.69-1.85,10.61,10.61,0,0,1,3.13-.8l0.55,2.51a8.89,8.89,0,0,0-1.83.49,5.89,5.89,0,0,0-1.94,1.23,6.8,6.8,0,0,0-1.55,2.26,9.26,9.26,0,0,0,1.66,9.78,8.16,8.16,0,0,0,2,1.58,8.65,8.65,0,0,0,1.7.76Z"/><path class="cls-4" d="M194.82,464.85l3.52,0.3V455.1l-3,2.06-1.38-2,5.25-3.55,2,0.17v13.57l3.45,0.28v2.53l-9.83-.83v-2.53Z"/><path class="cls-4" d="M208.63,466l3.52,0.28V456.23l-3,2.08-1.38-1.95,5.25-3.59,2,0.16V466.5l3.45,0.26v2.53l-9.83-.76V466Z"/><path class="cls-4" d="M222.76,472a7.42,7.42,0,0,0,1.7-.49,6.53,6.53,0,0,0,2-1.26,7.16,7.16,0,0,0,1.62-2.27,8.17,8.17,0,0,0,.67-3.52,9.68,9.68,0,0,0-.63-3.72,8.48,8.48,0,0,0-1.55-2.51,7.41,7.41,0,0,0-1.95-1.54,10.36,10.36,0,0,0-1.83-.79l0.55-2.42a12.28,12.28,0,0,1,3.13,1.3,10.34,10.34,0,0,1,2.69,2.28,10.93,10.93,0,0,1,1.88,3.29,12.39,12.39,0,0,1,.7,4.31,11.58,11.58,0,0,1-.7,4.23,8.89,8.89,0,0,1-1.88,3,8.28,8.28,0,0,1-2.69,1.86,10.06,10.06,0,0,1-3.13.79Z"/><path class="cls-4" d="M374.41,474.73V472.2h2.72v-6.44h-2.74v-2.53h2.74v-0.64a4.24,4.24,0,0,1,.38-1.87,3.78,3.78,0,0,1,1-1.29,4.15,4.15,0,0,1,1.44-.76,6,6,0,0,1,1.7-.25,10.78,10.78,0,0,1,2.62.24,6.65,6.65,0,0,1,1.7.64l-0.88,2.29a10.32,10.32,0,0,0-1.14-.45,5,5,0,0,0-1.58-.19,2.26,2.26,0,0,0-1.74.58,2.52,2.52,0,0,0-.5,1.69l4.84,0v2.53l-4.84,0v6.44l4.87,0v2.53C380.77,474.7,378.65,474.71,374.41,474.73Z"/><path class="cls-4" d="M388.69,463.9a12.75,12.75,0,0,1,2.13-.74,12.23,12.23,0,0,1,2.87-.34,6.35,6.35,0,0,1,2,.26,3.34,3.34,0,0,1,1.36.79,3,3,0,0,1,.75,1.25,5.49,5.49,0,0,1,.23,1.65q0,1.17-.08,2t-0.08,1.47a9.86,9.86,0,0,0,0,1.08c0,0.21.05,0.42,0.07,0.62l1.5,0v2.53l-3.87.06-0.3-1.56h-0.11a4.06,4.06,0,0,1-1.31,1.25,4.41,4.41,0,0,1-2.29.55,3.85,3.85,0,0,1-2.73-.89,3.1,3.1,0,0,1-1-2.43,3.68,3.68,0,0,1,.35-1.67,3,3,0,0,1,1-1.16,5,5,0,0,1,1.63-.69,9.58,9.58,0,0,1,2.12-.25c0.27,0,.57,0,0.87,0l1.12,0.08a2.38,2.38,0,0,0,0-.46v-0.44a1.45,1.45,0,0,0-.5-1.25,2.43,2.43,0,0,0-1.49-.36,7,7,0,0,0-2.11.33,13.72,13.72,0,0,0-1.58.62Zm3.93,8.39a2.53,2.53,0,0,0,2.44-1.3v-1.38l-0.68-.09a7.94,7.94,0,0,0-1,0,4.78,4.78,0,0,0-.87.09,2.93,2.93,0,0,0-.78.26,1.54,1.54,0,0,0-.55.46,1.09,1.09,0,0,0-.2.67,1.29,1.29,0,0,0,.38,1A1.75,1.75,0,0,0,392.62,472.29Z"/><path class="cls-4" d="M413.05,473.07a6.8,6.8,0,0,1-2.21,1.12,9.81,9.81,0,0,1-2.65.42,7.46,7.46,0,0,1-2.66-.38,5.29,5.29,0,0,1-2-1.19,5.09,5.09,0,0,1-1.21-1.9,7.07,7.07,0,0,1-.42-2.48,6.53,6.53,0,0,1,.48-2.59,5.58,5.58,0,0,1,1.35-1.94,6,6,0,0,1,2-1.23,8,8,0,0,1,2.56-.46,9.43,9.43,0,0,1,2.42.24,11.12,11.12,0,0,1,1.73.53v4l-2.54.06v-2.12a6.48,6.48,0,0,0-1.43-.13,4.39,4.39,0,0,0-1.28.22,3.22,3.22,0,0,0-1.13.64,3.36,3.36,0,0,0-.81,1.09,3.56,3.56,0,0,0-.31,1.55,3.51,3.51,0,0,0,.25,1.35,3.07,3.07,0,0,0,1.86,1.77,4.08,4.08,0,0,0,1.51.23,5.46,5.46,0,0,0,2.16-.42,9,9,0,0,0,1.26-.67Z"/><path class="cls-4" d="M417,465.11l-2.28.06v-2.53l2.28-.06V460l3-.93v3.47l6-.18v2.53l-6,.18v3.29a3.88,3.88,0,0,0,.67,2.55,2.24,2.24,0,0,0,1.87.74,4,4,0,0,0,1.13-.18,4.41,4.41,0,0,0,.91-0.41,5.44,5.44,0,0,0,.74-0.53l0.61-.52,1.38,2a4.65,4.65,0,0,1-1,.87,8.71,8.71,0,0,1-1.27.71,8.26,8.26,0,0,1-1.42.49,6.85,6.85,0,0,1-1.45.2,4.85,4.85,0,0,1-3.89-1.33q-1.3-1.4-1.3-4.53v-3.29Z"/><path class="cls-4" d="M428.94,468a7.18,7.18,0,0,1,.44-2.59,5.44,5.44,0,0,1,3.17-3.2,7.53,7.53,0,0,1,2.5-.49,7.13,7.13,0,0,1,2.59.34,5.11,5.11,0,0,1,1.93,1.16,4.92,4.92,0,0,1,1.19,1.87,7.82,7.82,0,0,1,0,5.06,5.46,5.46,0,0,1-3.17,3.21,7.48,7.48,0,0,1-2.5.49,7.08,7.08,0,0,1-2.59-.35,5.11,5.11,0,0,1-1.93-1.17,4.94,4.94,0,0,1-1.19-1.88A7.22,7.22,0,0,1,428.94,468Zm3.09-.1a4.48,4.48,0,0,0,.21,1.4,3.29,3.29,0,0,0,.6,1.11,2.57,2.57,0,0,0,.94.71,2.85,2.85,0,0,0,1.27.22,3,3,0,0,0,2.18-.93,4.66,4.66,0,0,0,.06-5.26,2.61,2.61,0,0,0-2.24-.9,3.66,3.66,0,0,0-1.2.24,2.48,2.48,0,0,0-1,.67,3.23,3.23,0,0,0-.63,1.13A5,5,0,0,0,432,467.88Z"/><path class="cls-4" d="M442.87,470.7l2.86-.11v-6.44l-2.86.11v-2.53l5.19-.21,0.35,1.5h0.09a6.5,6.5,0,0,1,1.48-1.33,3.78,3.78,0,0,1,1.94-.59,2.51,2.51,0,0,1,2.18.91,5.39,5.39,0,0,1,.79,3.34l-2.7.12a2.25,2.25,0,0,0-.24-1.2,0.81,0.81,0,0,0-.77-0.35,2.37,2.37,0,0,0-1.49.52,5,5,0,0,0-1,1.1v4.9l5-.22v2.53c-4.34.19-6.52,0.29-10.86,0.46V470.7Z"/><path class="cls-4" d="M457.17,470.09l4.06-.19v-6.44l-4.06.19v-2.53l7.05-.34v9l4.26-.22v2.53c-4.53.24-6.79,0.35-11.32,0.56v-2.53Zm3.5-12.26a1.71,1.71,0,0,1,.53-1.24,2.52,2.52,0,0,1,3-.15,1.48,1.48,0,0,1,.58,1.19,1.57,1.57,0,0,1-.58,1.24,2.47,2.47,0,0,1-1.54.55,2.06,2.06,0,0,1-1.47-.4A1.46,1.46,0,0,1,460.67,457.82Z"/><path class="cls-4" d="M471.71,461.17a13.27,13.27,0,0,1,2.13-.83,12.43,12.43,0,0,1,2.87-.46,6.25,6.25,0,0,1,2,.17,3.16,3.16,0,0,1,1.36.74,2.87,2.87,0,0,1,.75,1.22,5.41,5.41,0,0,1,.23,1.64q0,1.17-.08,2t-0.08,1.48a9.75,9.75,0,0,0,0,1.08c0,0.21.05,0.42,0.07,0.62l1.5-.09v2.53l-3.87.23-0.3-1.55h-0.11a4.31,4.31,0,0,1-1.31,1.3,4.54,4.54,0,0,1-2.29.65,3.71,3.71,0,0,1-2.73-.77,3,3,0,0,1-1-2.38,3.78,3.78,0,0,1,.35-1.69,3.22,3.22,0,0,1,1-1.21,5.2,5.2,0,0,1,1.63-.76,9.73,9.73,0,0,1,2.12-.34c0.27,0,.57,0,0.87,0l1.12,0a2.41,2.41,0,0,0,0-.46V463.9a1.39,1.39,0,0,0-.5-1.23,2.36,2.36,0,0,0-1.49-.29,7.14,7.14,0,0,0-2.1.42,14.29,14.29,0,0,0-1.58.68Zm3.92,8.22a2.88,2.88,0,0,0,1.64-.49,3,3,0,0,0,.8-0.91v-1.38l-0.68-.06a7.87,7.87,0,0,0-1,0,4.85,4.85,0,0,0-.87.13,3,3,0,0,0-.77.3,1.63,1.63,0,0,0-.55.48,1.13,1.13,0,0,0-.2.68,1.24,1.24,0,0,0,.38,1A1.7,1.7,0,0,0,475.63,469.39Z"/><path class="cls-4" d="M485.47,455l4.91-.31v10.63a4.76,4.76,0,0,0,.44,2.43,1.44,1.44,0,0,0,1.41.6,4,4,0,0,0,1.17-.23,4.8,4.8,0,0,0,.92-0.49l1.13,2q-0.39.28-.78,0.52a5.46,5.46,0,0,1-.83.42,5.9,5.9,0,0,1-1,.29,7.75,7.75,0,0,1-1.16.16,4.13,4.13,0,0,1-3.25-.9,4,4,0,0,1-1.08-3.06v-9.66l-1.91.12V455Z"/><path class="cls-4" d="M499.08,472.91c4.09-.28,6.14-0.42,10.22-0.72v2.46c-4.09.3-6.13,0.44-10.22,0.72v-2.46Z"/><path class="cls-4" d="M511.1,453.27l4.65-.35v5.89h0.09a4.34,4.34,0,0,1,1.47-1.29,5.76,5.76,0,0,1,3.78-.5,2.76,2.76,0,0,1,1.27.66,3.22,3.22,0,0,1,.83,1.37,7,7,0,0,1,.3,2.22v7.15l-3,.24v-6.53a2.67,2.67,0,0,0-.6-2,1.94,1.94,0,0,0-1.57-.5,2.81,2.81,0,0,0-1.56.64,3.13,3.13,0,0,0-1,1.4V469l-3,.23V455.67l-1.66.12C511.1,454.78,511.1,454.28,511.1,453.27Z"/><path class="cls-4" d="M537.2,466a4.64,4.64,0,0,1-.77.61,8.26,8.26,0,0,1-1.1.59,9.33,9.33,0,0,1-3,.76,7.58,7.58,0,0,1-2.63-.19,4.6,4.6,0,0,1-3.2-2.85,6.81,6.81,0,0,1-.43-2.51,7,7,0,0,1,.48-2.7,6,6,0,0,1,1.32-2,6.18,6.18,0,0,1,2-1.3,8,8,0,0,1,2.44-.59,7.39,7.39,0,0,1,1.81.08,4.52,4.52,0,0,1,1.71.65,3.75,3.75,0,0,1,1.28,1.4,4.85,4.85,0,0,1,.5,2.35,11.25,11.25,0,0,1-.23,2.16l-8.28.71a2.51,2.51,0,0,0,.31,1.22,2.18,2.18,0,0,0,.76.76,3,3,0,0,0,1.08.38,5.29,5.29,0,0,0,1.3,0,7,7,0,0,0,2.27-.52,5.36,5.36,0,0,0,1.44-.91Zm-5-7.78a4,4,0,0,0-1.13.26,3.5,3.5,0,0,0-1,.56,3,3,0,0,0-.7.84,2.59,2.59,0,0,0-.32,1.08l5.66-.48A2.07,2.07,0,0,0,532.23,458.26Z"/><path class="cls-4" d="M540.72,450.85l4.9-.44V461a4.69,4.69,0,0,0,.44,2.42,1.4,1.4,0,0,0,1.4.56,4,4,0,0,0,1.17-.26,5,5,0,0,0,.92-0.51l1.13,2q-0.39.29-.78,0.55a5.64,5.64,0,0,1-.83.45,6,6,0,0,1-1,.32,7.79,7.79,0,0,1-1.16.19,4,4,0,0,1-3.24-.81,3.94,3.94,0,0,1-1.08-3v-9.66l-1.91.17v-2.53Z"/><path class="cls-4" d="M552.51,454.36l3.91-.38,0.34,1.35h0.09a4.9,4.9,0,0,1,3.86-2.08,5.28,5.28,0,0,1,1.94.14,3.32,3.32,0,0,1,1.52.89,4.34,4.34,0,0,1,1,1.69,8.28,8.28,0,0,1,.34,2.56,8.83,8.83,0,0,1-.39,2.7,6.4,6.4,0,0,1-1.13,2.13,5.56,5.56,0,0,1-1.79,1.45,6.68,6.68,0,0,1-2.41.68,9.35,9.35,0,0,1-1.4,0,3.6,3.6,0,0,1-1.15-.22c0,1.89,0,2.83,0,4.71l-3,.29c0-5.43,0-8.14,0-13.57l-1.72.16v-2.53Zm7.31,1.5a3.31,3.31,0,0,0-1.6.59,2.59,2.59,0,0,0-1,1.41v4.78a2.22,2.22,0,0,0,.93.31,5,5,0,0,0,1.23,0,3.42,3.42,0,0,0,1.2-.34,2.82,2.82,0,0,0,1-.8,3.85,3.85,0,0,0,.64-1.28,6.23,6.23,0,0,0,.23-1.79,3.13,3.13,0,0,0-.74-2.27A2.17,2.17,0,0,0,559.83,455.86Z"/><path class="cls-4" d="M578.58,462a4.77,4.77,0,0,1-.77.62,8.45,8.45,0,0,1-1.1.61,9.45,9.45,0,0,1-3,.83,7.53,7.53,0,0,1-2.63-.14,4.46,4.46,0,0,1-3.19-2.79,6.75,6.75,0,0,1-.42-2.5,7.14,7.14,0,0,1,.48-2.71,6.13,6.13,0,0,1,1.32-2,6.36,6.36,0,0,1,2-1.34,8.11,8.11,0,0,1,2.44-.64,7.36,7.36,0,0,1,1.8,0,4.41,4.41,0,0,1,1.71.61,3.63,3.63,0,0,1,1.27,1.37,4.8,4.8,0,0,1,.49,2.34,11.35,11.35,0,0,1-.23,2.16l-8.27.88a2.48,2.48,0,0,0,.31,1.21,2.11,2.11,0,0,0,.76.75,3,3,0,0,0,1.08.36,5.27,5.27,0,0,0,1.3,0,7.11,7.11,0,0,0,2.26-.56,5.51,5.51,0,0,0,1.44-.94Zm-5-7.68a4,4,0,0,0-1.13.28,3.58,3.58,0,0,0-1,.58,3,3,0,0,0-.7.86,2.62,2.62,0,0,0-.32,1.09l5.65-.6A2,2,0,0,0,573.61,454.31Z"/><path class="cls-4" d="M581,460.41l2.85-.31v-6.44L581,454v-2.53l5.17-.57,0.34,1.48h0.09a7.2,7.2,0,0,1,1.47-1.43,4,4,0,0,1,1.93-.73,2.33,2.33,0,0,1,2.17.76,5.15,5.15,0,0,1,.79,3.29l-2.69.31a2.16,2.16,0,0,0-.24-1.18,0.75,0.75,0,0,0-.77-0.29,2.53,2.53,0,0,0-1.48.63,5.5,5.5,0,0,0-1,1.17c0,2,0,2.94,0,4.9l5-.57v2.53c-4.32.5-6.49,0.74-10.82,1.22v-2.53Z"/><path class="cls-4" d="M604.31,465.11a9.69,9.69,0,0,1-3.12-.63,7.72,7.72,0,0,1-2.68-1.73,8.33,8.33,0,0,1-1.87-2.91,11.33,11.33,0,0,1-.7-4.2,12.71,12.71,0,0,1,.7-4.35,11.64,11.64,0,0,1,1.87-3.38,11.09,11.09,0,0,1,2.68-2.41,12.91,12.91,0,0,1,3.12-1.46l0.55,2.39a10.88,10.88,0,0,0-1.82.88A7.92,7.92,0,0,0,601.1,449a9.05,9.05,0,0,0-1.55,2.59,10,10,0,0,0-.63,3.76,8,8,0,0,0,.67,3.48A6.67,6.67,0,0,0,601.2,461a6.06,6.06,0,0,0,2,1.17,7.1,7.1,0,0,0,1.7.4Z"/><path class="cls-4" d="M610.07,457l3.51-.44V446.51l-3,2.7-1.38-1.67,5.23-4.66,2-.26v13.57l3.44-.44v2.53l-9.79,1.25V457Z"/><path class="cls-4" d="M626.39,455.95a1.81,1.81,0,0,1,.52-1.31,2.16,2.16,0,0,1,1.3-.63,2,2,0,0,1,1.9.57,2.89,2.89,0,0,1,.64,2,4.73,4.73,0,0,1-.4,1.94,6,6,0,0,1-1,1.61,6.83,6.83,0,0,1-1.43,1.21,6.65,6.65,0,0,1-1.57.74l-0.62-1.18a7.64,7.64,0,0,0,1.11-.54,5.41,5.41,0,0,0,1-.77,4.33,4.33,0,0,0,.77-1,2.74,2.74,0,0,0,.35-1.15,3,3,0,0,1-1.17.19,1.54,1.54,0,0,1-.79-0.26,1.25,1.25,0,0,1-.45-0.58A2.21,2.21,0,0,1,626.39,455.95Z"/><path class="cls-4" d="M637.57,453.37l3.5-.49V442.82l-3,2.75-1.37-1.65,5.22-4.73,2-.29v13.57l3.43-.49v2.53l-9.78,1.39C637.57,454.88,637.57,454.38,637.57,453.37Z"/><path class="cls-4" d="M651.31,451.4l3.5-.52V440.84l-3,2.77L650.42,442l5.22-4.77,2-.3v13.57l3.43-.52v2.53l-9.77,1.45V451.4Z"/><path class="cls-4" d="M665.36,454.2a9.24,9.24,0,0,0,1.69-.87,8.93,8.93,0,0,0,2-1.71,9.74,9.74,0,0,0,1.61-2.63,9.3,9.3,0,0,0,.66-3.67,8.68,8.68,0,0,0-.63-3.58,6.23,6.23,0,0,0-1.54-2.16,5.4,5.4,0,0,0-1.93-1.1,8.46,8.46,0,0,0-1.82-.38l0.55-2.55a10.07,10.07,0,0,1,3.11.6,7.47,7.47,0,0,1,2.67,1.68,8.13,8.13,0,0,1,1.86,2.87,11.16,11.16,0,0,1,.7,4.16,13,13,0,0,1-.7,4.39,11.93,11.93,0,0,1-1.86,3.42,11.42,11.42,0,0,1-2.67,2.46,12.35,12.35,0,0,1-3.11,1.49Z"/><path class="cls-4" d="M56.69,398.15c0-1,0-1.52,0-2.53l2.7,0.43v-6.44l-2.72-.43v-2.53l2.72,0.43v-0.64a3.87,3.87,0,0,1,.38-1.8,3,3,0,0,1,1-1.13,3.43,3.43,0,0,1,1.43-.53,5.73,5.73,0,0,1,1.68,0,11.54,11.54,0,0,1,2.6.66,7.87,7.87,0,0,1,1.68.91l-0.87,2.14a12.32,12.32,0,0,0-1.13-.63,5.46,5.46,0,0,0-1.57-.45,2,2,0,0,0-1.73.3,2.21,2.21,0,0,0-.49,1.61l4.8,0.74v2.53l-4.8-.74v6.44l4.82,0.74v2.53C63,399.15,60.88,398.82,56.69,398.15Z"/><path class="cls-4" d="M70.84,389.63a11.18,11.18,0,0,1,2.12-.39,11.8,11.8,0,0,1,2.85.12,6.91,6.91,0,0,1,2,.59,4.14,4.14,0,0,1,1.35,1,3.74,3.74,0,0,1,.74,1.37,5.91,5.91,0,0,1,.23,1.69q0,1.17-.08,2c-0.05.54-.08,1-0.08,1.46a10.13,10.13,0,0,0,0,1.09c0,0.21.05,0.43,0.07,0.63l1.49,0.22v2.53l-3.84-.56-0.3-1.61-0.11,0a3.19,3.19,0,0,1-1.3,1,4,4,0,0,1-2.27.18,4.47,4.47,0,0,1-2.71-1.33,3.66,3.66,0,0,1-1-2.59,3.35,3.35,0,0,1,.35-1.61,2.39,2.39,0,0,1,1-1,4.23,4.23,0,0,1,1.61-.42,9.25,9.25,0,0,1,2.1.09q0.41,0.06.86,0.17l1.11,0.26a2.29,2.29,0,0,0,0-.45v-0.44a1.7,1.7,0,0,0-.5-1.33,2.76,2.76,0,0,0-1.48-.6,6.64,6.64,0,0,0-2.09,0,11.79,11.79,0,0,0-1.57.36Zm3.89,9a2.52,2.52,0,0,0,1.63-.16,2.17,2.17,0,0,0,.79-0.75v-1.38l-0.68-.2a8.27,8.27,0,0,0-1-.2,4.65,4.65,0,0,0-.86,0,2.55,2.55,0,0,0-.77.14,1.21,1.21,0,0,0-.54.37,1,1,0,0,0-.2.64,1.51,1.51,0,0,0,.37,1.06A2,2,0,0,0,74.74,398.65Z"/><path class="cls-4" d="M95,402.74a5.66,5.66,0,0,1-2.2.76,9.32,9.32,0,0,1-2.63,0,8.17,8.17,0,0,1-2.65-.81,6.56,6.56,0,0,1-1.95-1.51,6.3,6.3,0,0,1-1.2-2.09,7.69,7.69,0,0,1-.41-2.54,6,6,0,0,1,.48-2.51,4.43,4.43,0,0,1,1.34-1.72,4.87,4.87,0,0,1,2-.9,7.52,7.52,0,0,1,2.54,0,10.13,10.13,0,0,1,2.4.64,12.91,12.91,0,0,1,1.72.81v4L92,396.52V394.4a6.92,6.92,0,0,0-1.42-.36,4.14,4.14,0,0,0-1.27,0,2.58,2.58,0,0,0-1.92,1.42A3.25,3.25,0,0,0,87,397a3.85,3.85,0,0,0,.25,1.39,3.85,3.85,0,0,0,1.84,2.07,4.48,4.48,0,0,0,1.5.48,5.09,5.09,0,0,0,2.14-.07,7.31,7.31,0,0,0,1.25-.47Z"/><path class="cls-4" d="M98.91,395.4l-2.27-.31v-2.53l2.27,0.31v-2.62l3-.45c0,1.39,0,2.08,0,3.47l6,0.8v2.53l-6-.8v3.29a4.39,4.39,0,0,0,.66,2.65,2.66,2.66,0,0,0,1.86,1,3.83,3.83,0,0,0,1.12,0,3.75,3.75,0,0,0,.91-0.26,4.34,4.34,0,0,0,.73-0.41l0.61-.43,1.38,2.25a3.67,3.67,0,0,1-1,.71,7.14,7.14,0,0,1-1.26.5,7.25,7.25,0,0,1-1.41.26,6.59,6.59,0,0,1-1.44,0,5.68,5.68,0,0,1-3.86-2,7.45,7.45,0,0,1-1.29-4.74V395.4Z"/><path class="cls-4" d="M110.8,400.21a6.65,6.65,0,0,1,.44-2.52,4.42,4.42,0,0,1,1.24-1.75,4.51,4.51,0,0,1,1.91-.94,7,7,0,0,1,2.49-.09,7.79,7.79,0,0,1,2.58.76,6.34,6.34,0,0,1,1.92,1.47,6.07,6.07,0,0,1,1.18,2.07,7.8,7.8,0,0,1,.4,2.53,6.68,6.68,0,0,1-.44,2.52,4.45,4.45,0,0,1-1.24,1.76,4.5,4.5,0,0,1-1.91.95,7,7,0,0,1-2.49.09,7.74,7.74,0,0,1-2.58-.77,6.35,6.35,0,0,1-1.92-1.48,6.11,6.11,0,0,1-1.18-2.07A7.82,7.82,0,0,1,110.8,400.21Zm3.07,0.4a4.85,4.85,0,0,0,.21,1.43,4,4,0,0,0,.6,1.2,3.25,3.25,0,0,0,.94.87,3.16,3.16,0,0,0,1.26.43A2.61,2.61,0,0,0,119,404a3.34,3.34,0,0,0,.84-2.59,4.42,4.42,0,0,0-.78-2.66,3.1,3.1,0,0,0-2.23-1.26,3.42,3.42,0,0,0-1.19,0,2,2,0,0,0-1,.51,2.61,2.61,0,0,0-.63,1A4.71,4.71,0,0,0,113.88,400.61Z"/><path class="cls-4" d="M124.66,405.18l2.85,0.35v-6.44l-2.85-.35v-2.53l5.16,0.63,0.34,1.56h0.09a5.1,5.1,0,0,1,1.47-1.09,3.38,3.38,0,0,1,1.93-.28,3,3,0,0,1,2.17,1.27,6,6,0,0,1,.79,3.47l-2.69-.32a2.49,2.49,0,0,0-.24-1.24,1,1,0,0,0-.77-0.47,2.08,2.08,0,0,0-1.48.28,3.89,3.89,0,0,0-1,.94c0,2,0,2.94,0,4.9l5,0.59V409c-4.32-.51-6.49-0.77-10.81-1.3v-2.53Z"/><path class="cls-4" d="M138.88,406.88l4,0.46V400.9l-4-.46v-2.53l7,0.8v9l4.25,0.47v2.53c-4.51-.49-6.77-0.75-11.27-1.27v-2.53Zm3.49-11.7a1.45,1.45,0,0,1,.53-1.16,1.86,1.86,0,0,1,1.47-.34,2.5,2.5,0,0,1,1.54.68,1.76,1.76,0,0,1,.57,1.28,1.32,1.32,0,0,1-.57,1.14,2.17,2.17,0,0,1-1.54.3,2.37,2.37,0,0,1-1.47-.64A1.73,1.73,0,0,1,142.37,395.18Z"/><path class="cls-4" d="M153.37,400.31a11.55,11.55,0,0,1,2.13-.48,11.87,11.87,0,0,1,2.86,0,6.73,6.73,0,0,1,2,.5,3.91,3.91,0,0,1,1.36,1,3.55,3.55,0,0,1,.75,1.34,5.8,5.8,0,0,1,.23,1.68q0,1.17-.08,2c-0.05.55-.08,1-0.08,1.46a10,10,0,0,0,0,1.09c0,0.21.05,0.43,0.07,0.63l1.49,0.15v2.53l-3.86-.4-0.3-1.6H159.9a3.4,3.4,0,0,1-1.3,1.09,4.11,4.11,0,0,1-2.28.28,4.29,4.29,0,0,1-2.72-1.21,3.5,3.5,0,0,1-1-2.55,3.42,3.42,0,0,1,.35-1.63,2.54,2.54,0,0,1,1-1,4.41,4.41,0,0,1,1.62-.49,9.3,9.3,0,0,1,2.11,0q0.41,0,.87.14l1.12,0.21a2.3,2.3,0,0,0,0-.46v-0.44a1.63,1.63,0,0,0-.5-1.31,2.67,2.67,0,0,0-1.48-.54,6.7,6.7,0,0,0-2.1.08,12.24,12.24,0,0,0-1.57.43Zm3.91,8.86a2.58,2.58,0,0,0,1.64-.23,2.32,2.32,0,0,0,.8-0.78v-1.38L159,406.6a8.14,8.14,0,0,0-1-.16,4.66,4.66,0,0,0-.86,0,2.64,2.64,0,0,0-.77.17,1.29,1.29,0,0,0-.55.39,1,1,0,0,0-.2.65,1.45,1.45,0,0,0,.37,1A1.94,1.94,0,0,0,157.28,409.17Z"/><path class="cls-4" d="M167.09,396.36l4.9,0.49c0,4.25,0,6.38,0,10.63a5.2,5.2,0,0,0,.44,2.5,1.72,1.72,0,0,0,1.4.83,3.77,3.77,0,0,0,1.17,0,4,4,0,0,0,.92-0.34l1.13,2.18q-0.39.22-.78,0.4a4.58,4.58,0,0,1-.83.29,5.31,5.31,0,0,1-1,.14,7.52,7.52,0,0,1-1.16,0,4.78,4.78,0,0,1-3.24-1.42,4.68,4.68,0,0,1-1.08-3.24c0-3.86,0-5.8,0-9.66l-1.91-.19v-2.53Z"/><path class="cls-4" d="M180.68,416.48c4.08,0.38,6.13.57,10.21,0.93v2.46c-4.09-.36-6.13-0.55-10.21-0.93v-2.46Z"/><path class="cls-4" d="M192.68,398.78l4.65,0.4c0,2.36,0,3.53,0,5.89h0.09a3.45,3.45,0,0,1,1.47-1,4.82,4.82,0,0,1,2.16-.26,5.64,5.64,0,0,1,1.61.36,3.41,3.41,0,0,1,1.27.86,4,4,0,0,1,.83,1.51,7.5,7.5,0,0,1,.3,2.27v7.15l-3-.25c0-2.61,0-3.92,0-6.53a3,3,0,0,0-.6-2.07,2.27,2.27,0,0,0-1.57-.75,2.44,2.44,0,0,0-1.56.39,2.49,2.49,0,0,0-1,1.24v7.34l-3-.26c0-5.43,0-8.14,0-13.57l-1.66-.14v-2.53Z"/><path class="cls-4" d="M218.78,415.77a3.72,3.72,0,0,1-.77.48,6.89,6.89,0,0,1-1.11.41,8.11,8.11,0,0,1-1.39.26,8.81,8.81,0,0,1-1.61,0,8.15,8.15,0,0,1-2.64-.62,5.77,5.77,0,0,1-3.2-3.37,7.37,7.37,0,0,1-.43-2.58,6.47,6.47,0,0,1,.48-2.62,4.76,4.76,0,0,1,1.32-1.79,5,5,0,0,1,2-1,7.43,7.43,0,0,1,2.44-.19,7.85,7.85,0,0,1,1.81.37,5.42,5.42,0,0,1,1.72.92,4.76,4.76,0,0,1,1.28,1.6,5.36,5.36,0,0,1,.49,2.43,10.68,10.68,0,0,1-.23,2.12l-8.29-.63a2.81,2.81,0,0,0,.31,1.27,2.75,2.75,0,0,0,.76.89,3.6,3.6,0,0,0,1.08.56,5.58,5.58,0,0,0,1.3.25,6.55,6.55,0,0,0,2.27-.15,4.38,4.38,0,0,0,1.44-.67Zm-5-8.59a3.71,3.71,0,0,0-1.13.08,2.89,2.89,0,0,0-1,.41,2.35,2.35,0,0,0-.7.73,2.27,2.27,0,0,0-.32,1l5.66,0.44A2.48,2.48,0,0,0,213.81,407.19Z"/><path class="cls-4" d="M222.31,401.15l4.9,0.35v10.63a5.11,5.11,0,0,0,.44,2.49,1.66,1.66,0,0,0,1.41.79,3.8,3.8,0,0,0,1.17-.07,4.17,4.17,0,0,0,.92-0.36l1.13,2.15q-0.39.23-.78,0.42a4.71,4.71,0,0,1-.83.31,5.38,5.38,0,0,1-1,.16,7.55,7.55,0,0,1-1.16,0,4.65,4.65,0,0,1-3.25-1.33,4.56,4.56,0,0,1-1.08-3.21v-9.66l-1.91-.14C222.31,402.67,222.31,402.16,222.31,401.15Z"/><path class="cls-4" d="M234.12,406.58l3.92,0.26,0.35,1.4h0.09a4.14,4.14,0,0,1,3.87-1.46,5.69,5.69,0,0,1,1.95.45,4.15,4.15,0,0,1,1.52,1.14,5.31,5.31,0,0,1,1,1.85,8.8,8.8,0,0,1,.35,2.62,8.21,8.21,0,0,1-.39,2.63,5.21,5.21,0,0,1-1.13,1.94,4.44,4.44,0,0,1-1.8,1.15,6.11,6.11,0,0,1-2.42.29,9.65,9.65,0,0,1-1.4-.19,4.09,4.09,0,0,1-1.15-.41c0,1.89,0,2.83,0,4.71l-3-.19V409.22l-1.73-.11v-2.53Zm7.33,2.68a2.92,2.92,0,0,0-1.6.34,2.08,2.08,0,0,0-1,1.25v4.78a2.65,2.65,0,0,0,.93.46,5.3,5.3,0,0,0,1.23.23,3.14,3.14,0,0,0,1.2-.14,2.26,2.26,0,0,0,1-.64,3.16,3.16,0,0,0,.64-1.18,5.83,5.83,0,0,0,.23-1.76,3.59,3.59,0,0,0-.74-2.39A2.56,2.56,0,0,0,241.44,409.26Z"/><path class="cls-4" d="M260.25,418.42a3.79,3.79,0,0,1-.77.5,7,7,0,0,1-1.11.44,8.21,8.21,0,0,1-1.39.29,8.84,8.84,0,0,1-1.61,0,8.07,8.07,0,0,1-2.64-.56,5.6,5.6,0,0,1-3.2-3.3,7.29,7.29,0,0,1-.43-2.57,6.53,6.53,0,0,1,.48-2.63,4.9,4.9,0,0,1,1.32-1.82,5.16,5.16,0,0,1,2-1,7.49,7.49,0,0,1,2.44-.24,7.77,7.77,0,0,1,1.81.33,5.29,5.29,0,0,1,1.72.89,4.6,4.6,0,0,1,1.28,1.58,5.28,5.28,0,0,1,.5,2.42,10.74,10.74,0,0,1-.23,2.13l-8.3-.46a2.77,2.77,0,0,0,.31,1.26,2.68,2.68,0,0,0,.76.87,3.51,3.51,0,0,0,1.08.53,5.53,5.53,0,0,0,1.3.22,6.6,6.6,0,0,0,2.27-.2,4.5,4.5,0,0,0,1.44-.7Zm-5-8.48a3.73,3.73,0,0,0-1.13.1,3,3,0,0,0-1,.43,2.41,2.41,0,0,0-.7.75,2.29,2.29,0,0,0-.32,1l5.67,0.32A2.42,2.42,0,0,0,255.27,409.94Z"/><path class="cls-4" d="M262.67,417.24l2.86,0.15v-6.44l-2.86-.15v-2.53l5.19,0.26,0.35,1.53h0.09a5.68,5.68,0,0,1,1.48-1.19,3.54,3.54,0,0,1,1.94-.41,2.76,2.76,0,0,1,2.18,1.11,5.74,5.74,0,0,1,.79,3.42l-2.7-.13a2.38,2.38,0,0,0-.24-1.22,0.9,0.9,0,0,0-.77-0.42,2.2,2.2,0,0,0-1.49.39,4.33,4.33,0,0,0-1,1v4.9l5,0.24v2.53c-4.34-.2-6.51-0.31-10.86-0.54v-2.53Z"/><path class="cls-4" d="M286.09,425.73a11.08,11.08,0,0,1-3.14-1.14,9.72,9.72,0,0,1-2.7-2.16,10.3,10.3,0,0,1-1.88-3.21,12.2,12.2,0,0,1-.7-4.31,11.71,11.71,0,0,1,.7-4.24,9.44,9.44,0,0,1,1.88-3.08,8.8,8.8,0,0,1,2.7-2,11.07,11.07,0,0,1,3.14-1l0.55,2.48a9.31,9.31,0,0,0-1.83.58,6.32,6.32,0,0,0-1.95,1.32,7.29,7.29,0,0,0-1.56,2.34,9.13,9.13,0,0,0-.63,3.65,8.68,8.68,0,0,0,.67,3.59,8.35,8.35,0,0,0,1.63,2.45,7.6,7.6,0,0,0,2,1.48,8.22,8.22,0,0,0,1.71.68Z"/><path class="cls-4" d="M291.88,418.54l3.53,0.13V408.62l-3,2.21L291,408.94l5.26-3.81,2,0.07v13.57l3.46,0.11v2.53l-9.85-.34v-2.53Z"/><path class="cls-4" d="M308.29,420.15a1.53,1.53,0,0,1,.52-1.23,1.85,1.85,0,0,1,1.3-.42,2.35,2.35,0,0,1,1.91.88,3.3,3.3,0,0,1,.65,2.06,4.27,4.27,0,0,1-.4,1.88,4.79,4.79,0,0,1-1,1.44,5.45,5.45,0,0,1-1.44,1,5.72,5.72,0,0,1-1.58.48l-0.62-1.28a6.53,6.53,0,0,0,1.12-.36,4.34,4.34,0,0,0,1-.6,3.42,3.42,0,0,0,.77-0.86,2.38,2.38,0,0,0,.36-1.09,2.94,2.94,0,0,1-1.18,0,1.84,1.84,0,0,1-.8-0.39,1.57,1.57,0,0,1-.45-0.66A2.38,2.38,0,0,1,308.29,420.15Z"/><path class="cls-4" d="M319.55,419.38l3.53,0.08V409.41l-3,2.26-1.38-1.87,5.26-3.88,2,0v13.57l3.46,0.07v2.53l-9.85-.2v-2.53Z"/><path class="cls-4" d="M333.39,419.65l3.53,0.05V409.66l-3,2.28-1.38-1.86,5.26-3.92,2,0v13.57l3.46,0v2.53l-9.85-.13v-2.53Z"/><path class="cls-4" d="M347.55,424.73a7.87,7.87,0,0,0,1.71-.59,7.13,7.13,0,0,0,2-1.39,7.81,7.81,0,0,0,1.63-2.37,8.45,8.45,0,0,0,.67-3.56,9.35,9.35,0,0,0-.63-3.68,7.79,7.79,0,0,0-1.56-2.41,6.78,6.78,0,0,0-1.95-1.42,9.73,9.73,0,0,0-1.83-.67l0.55-2.46a11.58,11.58,0,0,1,3.14,1.11,9.45,9.45,0,0,1,2.7,2.11,10.06,10.06,0,0,1,1.88,3.17,13.33,13.33,0,0,1,0,8.54,9.67,9.67,0,0,1-1.88,3.12,9.08,9.08,0,0,1-2.7,2,10.62,10.62,0,0,1-3.14,1Z"/><path class="cls-4" d="M511.7,414.47l2.85-.21v-6.44l-2.85.21V405.5l5.18-.39,0.34,1.49h0.09a6.84,6.84,0,0,1,1.47-1.38,3.88,3.88,0,0,1,1.93-.66,2.42,2.42,0,0,1,2.18.84,5.26,5.26,0,0,1,.79,3.32l-2.69.21a2.21,2.21,0,0,0-.24-1.19,0.78,0.78,0,0,0-.77-0.32,2.45,2.45,0,0,0-1.48.58,5.22,5.22,0,0,0-1,1.13V414l5-.39v2.53c-4.34.35-6.5,0.51-10.84,0.84v-2.53Z"/><path class="cls-4" d="M536.9,413.75a4.64,4.64,0,0,1-.77.61,8.25,8.25,0,0,1-1.1.59,9.32,9.32,0,0,1-3,.76,7.58,7.58,0,0,1-2.64-.19,4.6,4.6,0,0,1-3.2-2.85,6.81,6.81,0,0,1-.43-2.51,7,7,0,0,1,.48-2.7,6,6,0,0,1,1.32-2,6.18,6.18,0,0,1,2-1.3,8,8,0,0,1,2.44-.59,7.4,7.4,0,0,1,1.81.08,4.52,4.52,0,0,1,1.71.65,3.75,3.75,0,0,1,1.28,1.4,4.85,4.85,0,0,1,.5,2.35,11.26,11.26,0,0,1-.23,2.16l-8.28.71a2.51,2.51,0,0,0,.31,1.22,2.18,2.18,0,0,0,.76.76,3,3,0,0,0,1.08.38,5.29,5.29,0,0,0,1.3,0,7,7,0,0,0,2.27-.52,5.36,5.36,0,0,0,1.44-.91Zm-5-7.78a4,4,0,0,0-1.13.26,3.5,3.5,0,0,0-1,.56,3,3,0,0,0-.7.84,2.58,2.58,0,0,0-.32,1.08l5.66-.48A2.07,2.07,0,0,0,531.93,406Z"/><path class="cls-4" d="M551,412.58a7.39,7.39,0,0,1-2.21,1.28,10.14,10.14,0,0,1-2.64.6,7.24,7.24,0,0,1-2.66-.19,4.82,4.82,0,0,1-2-1.05,4.63,4.63,0,0,1-1.21-1.81,7.39,7.39,0,0,1,.07-5.07,6.14,6.14,0,0,1,1.35-2,6.56,6.56,0,0,1,2-1.37,8.3,8.3,0,0,1,2.55-.64,9.23,9.23,0,0,1,2.41.07,10.5,10.5,0,0,1,1.73.41v4l-2.53.24V405a6.36,6.36,0,0,0-1.43,0,4.55,4.55,0,0,0-1.28.31,3.51,3.51,0,0,0-1.13.72,3.61,3.61,0,0,0-1.12,2.71,3.39,3.39,0,0,0,.25,1.33,2.78,2.78,0,0,0,1.85,1.64,4,4,0,0,0,1.51.13,5.68,5.68,0,0,0,2.15-.57,9.75,9.75,0,0,0,1.25-.76Z"/><path class="cls-4" d="M559.8,401.33l4.28-.43v9l1.75-.18v2.53l-3.63.37-0.53-1.65h-0.09a4.7,4.7,0,0,1-1.59,1.61,5.22,5.22,0,0,1-2.35.81,5.11,5.11,0,0,1-1.6-.07,2.55,2.55,0,0,1-1.23-.64,3.12,3.12,0,0,1-.78-1.35,7.5,7.5,0,0,1-.28-2.23v-4.62l-1.31.13V402l4.3-.41v6.53a3.31,3.31,0,0,0,.45,2,1.48,1.48,0,0,0,1.41.48,2.74,2.74,0,0,0,1.53-.66,3.12,3.12,0,0,0,1-1.34v-4.9l-1.29.13C559.8,402.85,559.8,402.34,559.8,401.33Z"/><path class="cls-4" d="M566.9,409.59l2.85-.29v-6.44l-2.85.29v-2.53l5.17-.54,0.34,1.48h0.09a7.12,7.12,0,0,1,1.47-1.42,4,4,0,0,1,1.93-.71,2.35,2.35,0,0,1,2.17.78,5.17,5.17,0,0,1,.79,3.29l-2.69.29a2.17,2.17,0,0,0-.24-1.18,0.76,0.76,0,0,0-.77-0.3,2.51,2.51,0,0,0-1.48.62,5.43,5.43,0,0,0-1,1.16V409l5-.53V411c-4.33.47-6.49,0.7-10.82,1.14v-2.53Z"/><path class="cls-4" d="M590.24,414.45a9.74,9.74,0,0,1-3.12-.66,7.79,7.79,0,0,1-2.69-1.74,8.4,8.4,0,0,1-1.87-2.92,11.36,11.36,0,0,1-.7-4.2,12.66,12.66,0,0,1,.7-4.34,11.54,11.54,0,0,1,1.87-3.37,11,11,0,0,1,2.69-2.4,12.81,12.81,0,0,1,3.12-1.44l0.55,2.4a10.8,10.8,0,0,0-1.82.87,7.84,7.84,0,0,0-1.94,1.62,9,9,0,0,0-1.55,2.58,9.9,9.9,0,0,0-.63,3.75,8,8,0,0,0,.67,3.49,6.73,6.73,0,0,0,1.62,2.2,6.12,6.12,0,0,0,2,1.18,7.14,7.14,0,0,0,1.7.41Z"/><path class="cls-4" d="M596,406.38l3.51-.42V395.91l-3,2.68-1.38-1.68,5.23-4.62,2-.24c0,5.43,0,8.14,0,13.57l3.44-.42v2.53c-3.92.48-5.88,0.72-9.8,1.18v-2.53Z"/><path class="cls-4" d="M609.77,404.71l3.51-.44c0-4,0-6,0-10.05l-3,2.7-1.38-1.67,5.23-4.66,2-.26V403.9l3.44-.44V406l-9.79,1.25v-2.53Z"/><path class="cls-4" d="M626.09,403.66a1.81,1.81,0,0,1,.52-1.31,2.15,2.15,0,0,1,1.3-.63,2,2,0,0,1,1.9.57,2.89,2.89,0,0,1,.64,2,4.73,4.73,0,0,1-.4,1.94,6,6,0,0,1-1,1.61,6.83,6.83,0,0,1-1.43,1.21,6.65,6.65,0,0,1-1.57.74l-0.62-1.18a7.65,7.65,0,0,0,1.11-.54,5.42,5.42,0,0,0,1-.77,4.34,4.34,0,0,0,.77-1,2.74,2.74,0,0,0,.36-1.15,3,3,0,0,1-1.17.19,1.54,1.54,0,0,1-.79-0.26,1.25,1.25,0,0,1-.45-0.58A2.23,2.23,0,0,1,626.09,403.66Z"/><path class="cls-4" d="M637.27,401.08l3.5-.49V390.54l-3,2.75-1.37-1.65,5.22-4.73,2-.29c0,5.43,0,8.14,0,13.57l3.43-.49v2.53c-3.91.56-5.87,0.84-9.78,1.39v-2.53Z"/><path class="cls-4" d="M649.45,393.8a14.54,14.54,0,0,1,.44-3.73,8.93,8.93,0,0,1,1.23-2.79,6.32,6.32,0,0,1,1.9-1.83,6.43,6.43,0,0,1,2.46-.88,4.61,4.61,0,0,1,4.46,1.37q1.56,1.8,1.56,6.08a14.64,14.64,0,0,1-.44,3.76,9.13,9.13,0,0,1-1.23,2.81,6.26,6.26,0,0,1-1.91,1.85,6.49,6.49,0,0,1-2.47.89,4.45,4.45,0,0,1-4.46-1.49Q649.45,397.9,649.45,393.8Zm3-.44c0,0.23,0,.45,0,0.65s0,0.42,0,.63l5.54-6a2.16,2.16,0,0,0-2.56-1.59,3,3,0,0,0-2.24,1.75A10.22,10.22,0,0,0,652.43,393.37Zm6.09-.91q0-.37,0-0.7c0-.22,0-0.44,0-0.65l-5.56,6a2.2,2.2,0,0,0,2.56,1.71,3,3,0,0,0,2.25-1.74A10.25,10.25,0,0,0,658.52,392.46Z"/><path class="cls-4" d="M665.06,401.91a9.22,9.22,0,0,0,1.69-.87,8.94,8.94,0,0,0,2-1.71,9.74,9.74,0,0,0,1.61-2.63A9.3,9.3,0,0,0,671,393a8.67,8.67,0,0,0-.63-3.58,6.23,6.23,0,0,0-1.54-2.16,5.4,5.4,0,0,0-1.93-1.1,8.45,8.45,0,0,0-1.82-.38l0.55-2.55a10.08,10.08,0,0,1,3.11.6,7.47,7.47,0,0,1,2.67,1.68,8.12,8.12,0,0,1,1.86,2.87,11.17,11.17,0,0,1,.7,4.16,13,13,0,0,1-.7,4.39,11.93,11.93,0,0,1-1.86,3.42,11.42,11.42,0,0,1-2.67,2.46,12.34,12.34,0,0,1-3.11,1.49Z"/><path class="cls-4" d="M56.31,345.68l2.84,0.4v-6.44l-2.84-.4v-2.53l5.15,0.73L61.8,339h0.09A5,5,0,0,1,63.36,338a3.34,3.34,0,0,1,1.92-.24A3,3,0,0,1,67.44,339a6.12,6.12,0,0,1,.79,3.49l-2.68-.37a2.52,2.52,0,0,0-.24-1.24,1,1,0,0,0-.77-0.49,2.05,2.05,0,0,0-1.48.26,3.78,3.78,0,0,0-1,.93v4.9l5,0.69v2.53c-4.31-.59-6.47-0.89-10.78-1.51v-2.53Z"/><path class="cls-4" d="M81.38,350.41a3.44,3.44,0,0,1-.77.44,6.49,6.49,0,0,1-1.1.35,7.84,7.84,0,0,1-1.39.18,8.74,8.74,0,0,1-1.6-.07,8.42,8.42,0,0,1-2.62-.76A6.22,6.22,0,0,1,70.72,347a7.61,7.61,0,0,1-.42-2.6,6.31,6.31,0,0,1,.48-2.59,4.4,4.4,0,0,1,1.32-1.72,4.68,4.68,0,0,1,2-.88,7.29,7.29,0,0,1,2.43-.06,8.06,8.06,0,0,1,1.8.47,5.78,5.78,0,0,1,1.71,1,5.15,5.15,0,0,1,1.27,1.67,5.56,5.56,0,0,1,.49,2.46,10.54,10.54,0,0,1-.23,2.11l-8.25-1.09a2.93,2.93,0,0,0,.31,1.28,3,3,0,0,0,.76.93,3.82,3.82,0,0,0,1.08.62,5.72,5.72,0,0,0,1.29.32,6.45,6.45,0,0,0,2.26,0,4.09,4.09,0,0,0,1.43-.59Zm-4.95-8.86a3.64,3.64,0,0,0-1.12,0,2.71,2.71,0,0,0-1,.35,2.13,2.13,0,0,0-1,1.7L79,344.37a2.85,2.85,0,0,0-.63-1.9A2.88,2.88,0,0,0,76.43,341.55Z"/><path class="cls-4" d="M95.41,352.31a5.74,5.74,0,0,1-2.2.8,9.33,9.33,0,0,1-2.64,0,8.09,8.09,0,0,1-2.65-.77A6.43,6.43,0,0,1,86,350.88a6.18,6.18,0,0,1-1.2-2.07,7.63,7.63,0,0,1-.41-2.54,6.06,6.06,0,0,1,.48-2.51A4.52,4.52,0,0,1,86.18,342a5,5,0,0,1,2-.93,7.53,7.53,0,0,1,2.54-.08,10,10,0,0,1,2.41.6,12.71,12.71,0,0,1,1.72.79v4l-2.52-.31V344a6.85,6.85,0,0,0-1.42-.34,4.16,4.16,0,0,0-1.27,0,2.68,2.68,0,0,0-1.12.48,2.71,2.71,0,0,0-.8,1,3.28,3.28,0,0,0-.31,1.5,3.82,3.82,0,0,0,1,2.56,3.86,3.86,0,0,0,1.13.87,4.43,4.43,0,0,0,1.5.45,5.11,5.11,0,0,0,2.14-.1,7.43,7.43,0,0,0,1.25-.49Z"/><path class="cls-4" d="M104.21,343l4.27,0.51v9l1.74,0.2v2.53l-3.62-.43L106.07,353H106a3.41,3.41,0,0,1-1.58,1.26,4.51,4.51,0,0,1-2.34.29,5.61,5.61,0,0,1-1.59-.42,3.38,3.38,0,0,1-1.23-.91,4.11,4.11,0,0,1-.78-1.52,8.18,8.18,0,0,1-.27-2.29v-4.62l-1.31-.16v-2.53l4.29,0.52v6.53a3.82,3.82,0,0,0,.45,2.08A1.85,1.85,0,0,0,103,352a2.27,2.27,0,0,0,1.52-.32,2.3,2.3,0,0,0,1-1.13v-4.9l-1.28-.15V343Z"/><path class="cls-4" d="M111.3,352.79l2.85,0.33v-6.44l-2.85-.33v-2.53l5.16,0.6,0.34,1.56h0.09a5.15,5.15,0,0,1,1.47-1.1,3.39,3.39,0,0,1,1.93-.29,3,3,0,0,1,2.17,1.25,6,6,0,0,1,.79,3.47l-2.69-.3a2.48,2.48,0,0,0-.24-1.23,1,1,0,0,0-.77-0.47,2.09,2.09,0,0,0-1.48.29,3.93,3.93,0,0,0-1,1v4.9l5,0.56v2.53c-4.32-.48-6.49-0.73-10.81-1.23v-2.53Z"/><path class="cls-4" d="M134.62,362.79a11.76,11.76,0,0,1-3.12-1.34,10.67,10.67,0,0,1-2.69-2.34,11.21,11.21,0,0,1-1.87-3.33,12.63,12.63,0,0,1-.7-4.36,11.39,11.39,0,0,1,.7-4.19,8.66,8.66,0,0,1,1.87-3,8,8,0,0,1,2.69-1.8,10.45,10.45,0,0,1,3.12-.75l0.55,2.52a8.75,8.75,0,0,0-1.83.46,5.75,5.75,0,0,0-1.94,1.2,6.64,6.64,0,0,0-1.55,2.24,8.85,8.85,0,0,0-.63,3.61,8.81,8.81,0,0,0,2.28,6.19,8.34,8.34,0,0,0,2,1.61,8.79,8.79,0,0,0,1.7.79Z"/><path class="cls-4" d="M140.38,356l3.51,0.36V346.3l-3,2-1.38-2,5.24-3.47,2,0.2v13.57l3.45,0.34v2.53l-9.81-1V356Z"/><path class="cls-4" d="M154.16,357.37l3.52,0.34V347.65l-3,2-1.38-2,5.24-3.5,2,0.19V358l3.45,0.32v2.53l-9.81-.93v-2.53Z"/><path class="cls-4" d="M170.53,359.95a1.44,1.44,0,0,1,.52-1.2,1.75,1.75,0,0,1,1.3-.34,2.5,2.5,0,0,1,1.91,1,3.48,3.48,0,0,1,.64,2.1,4.14,4.14,0,0,1-.4,1.85,4.4,4.4,0,0,1-1,1.38,5,5,0,0,1-1.44.89,5.46,5.46,0,0,1-1.57.39l-0.62-1.32a6.22,6.22,0,0,0,1.11-.29,4,4,0,0,0,1-.54,3.11,3.11,0,0,0,.77-0.82,2.25,2.25,0,0,0,.36-1.07,2.94,2.94,0,0,1-1.17-.07,2,2,0,0,1-.79-0.44,1.71,1.71,0,0,1-.45-0.68A2.48,2.48,0,0,1,170.53,359.95Z"/><path class="cls-4" d="M181.75,359.86l3.52,0.29V350.1l-3,2.07-1.38-2,5.24-3.57,2,0.16v13.57l3.45,0.28v2.53l-9.82-.8v-2.53Z"/><path class="cls-4" d="M194,355.31a13.34,13.34,0,0,1,.44-3.63,6.91,6.91,0,0,1,1.24-2.51,4.6,4.6,0,0,1,1.9-1.41,5.58,5.58,0,0,1,2.47-.33,5.79,5.79,0,0,1,4.48,2.37q1.57,2.15,1.57,6.43a13.48,13.48,0,0,1-.44,3.66,7.06,7.06,0,0,1-1.24,2.53,4.55,4.55,0,0,1-1.92,1.42,6.1,6.1,0,0,1-7-2.16A11.21,11.21,0,0,1,194,355.31Zm3,0.23q0,0.35,0,.66c0,0.21,0,.42,0,0.64l5.57-4.71A2.83,2.83,0,0,0,200,350a2.25,2.25,0,0,0-2.25,1.24A9,9,0,0,0,197,355.54ZM203.1,356q0-.37,0-0.7c0-.22,0-0.44,0-0.66l-5.59,4.71a2.89,2.89,0,0,0,2.58,2.29,2.28,2.28,0,0,0,2.26-1.23A9,9,0,0,0,203.1,356Z"/><path class="cls-4" d="M209.68,366.92a7.44,7.44,0,0,0,1.7-.49,6.53,6.53,0,0,0,2-1.27A7.18,7.18,0,0,0,215,362.9a8.18,8.18,0,0,0,.67-3.52,9.67,9.67,0,0,0-.63-3.72,8.48,8.48,0,0,0-1.55-2.51,7.4,7.4,0,0,0-1.95-1.54,10.32,10.32,0,0,0-1.83-.79l0.55-2.42a12.25,12.25,0,0,1,3.13,1.3,10.32,10.32,0,0,1,2.69,2.28,10.92,10.92,0,0,1,1.88,3.29,12.38,12.38,0,0,1,.7,4.31,11.58,11.58,0,0,1-.7,4.23,8.91,8.91,0,0,1-1.88,3,8.29,8.29,0,0,1-2.69,1.86,10.07,10.07,0,0,1-3.13.79Z"/><path class="cls-4" d="M360.63,370.08v-2.53h2.72v-6.44H360.6v-2.53h2.74v-0.64a4.22,4.22,0,0,1,.38-1.86,3.74,3.74,0,0,1,1-1.29,4.1,4.1,0,0,1,1.44-.75,6,6,0,0,1,1.7-.24,10.79,10.79,0,0,1,2.62.26,6.69,6.69,0,0,1,1.69.65L371.3,357a10.36,10.36,0,0,0-1.14-.46,5,5,0,0,0-1.58-.2,2.24,2.24,0,0,0-1.74.57,2.5,2.5,0,0,0-.5,1.69h4.84v2.53h-4.84v6.44h4.87v2.53C367,370.09,364.86,370.09,360.63,370.08Z"/><path class="cls-4" d="M374.9,359.35a12.65,12.65,0,0,1,2.13-.72,12.18,12.18,0,0,1,2.87-.32,6.36,6.36,0,0,1,2,.27,3.37,3.37,0,0,1,1.36.81,3.06,3.06,0,0,1,.75,1.26,5.51,5.51,0,0,1,.23,1.65q0,1.17-.08,2t-0.08,1.47a9.86,9.86,0,0,0,0,1.08c0,0.21.05,0.42,0.07,0.62h1.5V370l-3.87,0-0.3-1.56h-0.11a4,4,0,0,1-1.31,1.24,4.38,4.38,0,0,1-2.29.53,3.87,3.87,0,0,1-2.73-.91,3.13,3.13,0,0,1-1-2.43,3.67,3.67,0,0,1,.35-1.67,3,3,0,0,1,1-1.15,4.93,4.93,0,0,1,1.63-.68,9.54,9.54,0,0,1,2.12-.23c0.27,0,.56,0,0.87,0l1.12,0.08a2.37,2.37,0,0,0,0-.46v-0.44a1.46,1.46,0,0,0-.5-1.25,2.44,2.44,0,0,0-1.49-.37,7,7,0,0,0-2.11.31,13.59,13.59,0,0,0-1.58.61Zm3.92,8.42a2.77,2.77,0,0,0,1.64-.41,2.74,2.74,0,0,0,.8-0.87V365.1l-0.68-.1a7.92,7.92,0,0,0-1-.05,4.75,4.75,0,0,0-.87.09,2.91,2.91,0,0,0-.78.26,1.52,1.52,0,0,0-.55.45,1.09,1.09,0,0,0-.2.67,1.3,1.3,0,0,0,.38,1A1.76,1.76,0,0,0,378.82,367.77Z"/><path class="cls-4" d="M399.25,368.72a6.73,6.73,0,0,1-2.21,1.1,9.77,9.77,0,0,1-2.65.39,7.48,7.48,0,0,1-2.66-.4,5.34,5.34,0,0,1-2-1.21,5.15,5.15,0,0,1-1.21-1.91,7.12,7.12,0,0,1-.42-2.48,6.51,6.51,0,0,1,.48-2.58,5.52,5.52,0,0,1,1.35-1.92,5.92,5.92,0,0,1,2-1.21,8,8,0,0,1,2.56-.43,9.44,9.44,0,0,1,2.42.27,11.19,11.19,0,0,1,1.73.55v4l-2.54,0v-2.12a6.48,6.48,0,0,0-1.43-.14,4.36,4.36,0,0,0-1.28.21,3.18,3.18,0,0,0-1.13.64,3.31,3.31,0,0,0-.81,1.08,3.87,3.87,0,0,0-.06,2.9,3.11,3.11,0,0,0,1.86,1.78,4.09,4.09,0,0,0,1.51.24,5.43,5.43,0,0,0,2.16-.4,8.86,8.86,0,0,0,1.26-.66Z"/><path class="cls-4" d="M403.17,360.79l-2.28,0V358.3l2.28,0v-2.62l3-.9v3.47l6-.12v2.53l-6,.12V364a3.9,3.9,0,0,0,.67,2.55,2.26,2.26,0,0,0,1.87.76,4,4,0,0,0,1.13-.17,4.36,4.36,0,0,0,.91-0.4,5.36,5.36,0,0,0,.74-0.52l0.61-.52,1.38,2a4.58,4.58,0,0,1-1,.86,8.59,8.59,0,0,1-1.27.69,8.18,8.18,0,0,1-1.42.48,6.82,6.82,0,0,1-1.45.19,4.89,4.89,0,0,1-3.88-1.36,6.57,6.57,0,0,1-1.3-4.54v-3.29Z"/><path class="cls-4" d="M415.13,363.77a7.14,7.14,0,0,1,.44-2.59,5.37,5.37,0,0,1,3.17-3.17,7.49,7.49,0,0,1,2.5-.46,7.15,7.15,0,0,1,2.59.37,5.17,5.17,0,0,1,1.93,1.18,5,5,0,0,1,1.19,1.89,7.82,7.82,0,0,1,0,5.06,5.38,5.38,0,0,1-3.17,3.18,7.43,7.43,0,0,1-2.5.47,7.11,7.11,0,0,1-2.59-.37,5.18,5.18,0,0,1-1.93-1.18,5,5,0,0,1-1.19-1.89A7.26,7.26,0,0,1,415.13,363.77Zm3.09-.07a4.51,4.51,0,0,0,.21,1.4,3.33,3.33,0,0,0,.6,1.11,2.6,2.6,0,0,0,.94.72,2.86,2.86,0,0,0,1.27.23,3,3,0,0,0,2.18-.91,3.79,3.79,0,0,0,.84-2.71,3.89,3.89,0,0,0-.78-2.54,2.63,2.63,0,0,0-2.24-.92,3.64,3.64,0,0,0-1.2.23,2.44,2.44,0,0,0-1,.66,3.19,3.19,0,0,0-.63,1.12A5,5,0,0,0,418.22,363.7Z"/><path class="cls-4" d="M429.05,366.63l2.86-.08V360.1l-2.86.08v-2.53l5.19-.16,0.35,1.51h0.09a6.4,6.4,0,0,1,1.48-1.31,3.74,3.74,0,0,1,1.94-.57,2.53,2.53,0,0,1,2.18.94,5.43,5.43,0,0,1,.79,3.35l-2.7.09a2.27,2.27,0,0,0-.24-1.2,0.82,0.82,0,0,0-.77-0.35,2.35,2.35,0,0,0-1.49.51,4.88,4.88,0,0,0-1,1.09v4.9l5-.16v2.53c-4.34.15-6.51,0.22-10.86,0.34v-2.53Z"/><path class="cls-4" d="M443.34,366.17l4.06-.15v-6.44l-4.06.15V357.2l7.05-.26v9l4.26-.17v2.53c-4.53.18-6.79,0.27-11.31,0.43v-2.53Zm3.5-12.23a1.69,1.69,0,0,1,.53-1.24,2.12,2.12,0,0,1,1.47-.56,2.19,2.19,0,0,1,1.54.45,1.5,1.5,0,0,1,.58,1.2,1.55,1.55,0,0,1-.58,1.23,2.44,2.44,0,0,1-1.54.53,2.07,2.07,0,0,1-1.47-.42A1.48,1.48,0,0,1,446.85,353.94Z"/><path class="cls-4" d="M457.89,357.41a13.11,13.11,0,0,1,2.13-.8,12.35,12.35,0,0,1,2.87-.43,6.27,6.27,0,0,1,2,.2,3.21,3.21,0,0,1,1.36.75,2.92,2.92,0,0,1,.75,1.23,5.43,5.43,0,0,1,.23,1.65q0,1.17-.08,2t-0.08,1.48a9.82,9.82,0,0,0,0,1.08c0,0.21.05,0.42,0.07,0.62l1.5-.07v2.53l-3.87.18-0.3-1.55h-0.11a4.24,4.24,0,0,1-1.3,1.29,4.5,4.5,0,0,1-2.29.62,3.75,3.75,0,0,1-2.72-.8,3,3,0,0,1-1-2.4,3.75,3.75,0,0,1,.35-1.68,3.16,3.16,0,0,1,1-1.19,5.13,5.13,0,0,1,1.63-.74,9.67,9.67,0,0,1,2.12-.31c0.27,0,.56,0,0.87,0l1.12,0a2.4,2.4,0,0,0,0-.46v-0.44a1.41,1.41,0,0,0-.5-1.23,2.38,2.38,0,0,0-1.49-.31,7.08,7.08,0,0,0-2.1.39,14.11,14.11,0,0,0-1.58.67Zm3.92,8.27a2.85,2.85,0,0,0,1.64-.48,2.9,2.9,0,0,0,.8-0.9v-1.38l-0.68-.07a7.87,7.87,0,0,0-1,0,4.81,4.81,0,0,0-.87.12,3,3,0,0,0-.77.29,1.61,1.61,0,0,0-.55.47,1.12,1.12,0,0,0-.2.68,1.26,1.26,0,0,0,.38,1A1.71,1.71,0,0,0,461.81,365.68Z"/><path class="cls-4" d="M471.64,351.41l4.91-.24c0,4.25,0,6.38,0,10.63a4.79,4.79,0,0,0,.44,2.44,1.46,1.46,0,0,0,1.41.62,4,4,0,0,0,1.17-.21,4.73,4.73,0,0,0,.92-0.47l1.13,2q-0.39.27-.78,0.51a5.39,5.39,0,0,1-.83.41,5.85,5.85,0,0,1-1,.28,7.71,7.71,0,0,1-1.16.14,4.17,4.17,0,0,1-3.25-.94,4.09,4.09,0,0,1-1.08-3.07v-9.66l-1.91.09C471.64,352.92,471.64,352.42,471.64,351.41Z"/><path class="cls-4" d="M485.25,369.49l10.22-.58v2.46l-10.22.58v-2.46Z"/><path class="cls-4" d="M497.27,350l4.65-.29v5.89H502a4.26,4.26,0,0,1,1.47-1.27,5.23,5.23,0,0,1,2.16-.58,5.29,5.29,0,0,1,1.61.13,2.81,2.81,0,0,1,1.27.68,3.28,3.28,0,0,1,.83,1.38,7.06,7.06,0,0,1,.3,2.22v7.15l-3,.2V359a2.7,2.7,0,0,0-.6-2,2,2,0,0,0-1.57-.52,2.76,2.76,0,0,0-1.57.62,3.06,3.06,0,0,0-1,1.39v7.34l-3,.18V352.44l-1.66.1V350Z"/><path class="cls-4" d="M523.38,363.16a4.54,4.54,0,0,1-.77.6,8.09,8.09,0,0,1-1.11.57,9.07,9.07,0,0,1-1.39.47,9.18,9.18,0,0,1-1.61.25,7.62,7.62,0,0,1-2.64-.23,4.69,4.69,0,0,1-3.2-2.9,6.86,6.86,0,0,1-.43-2.51,7,7,0,0,1,.48-2.69,5.84,5.84,0,0,1,1.32-2,6.07,6.07,0,0,1,2-1.27,7.93,7.93,0,0,1,2.44-.55,7.41,7.41,0,0,1,1.81.1,4.59,4.59,0,0,1,1.72.67,3.83,3.83,0,0,1,1.28,1.41,4.9,4.9,0,0,1,.5,2.36,11.19,11.19,0,0,1-.23,2.16l-8.29.58a2.54,2.54,0,0,0,.31,1.22,2.22,2.22,0,0,0,.76.77,3.06,3.06,0,0,0,1.08.4,5.3,5.3,0,0,0,1.3.06,7,7,0,0,0,2.27-.48,5.26,5.26,0,0,0,1.44-.89Zm-5-7.86a3.94,3.94,0,0,0-1.13.24,3.43,3.43,0,0,0-1,.55,2.9,2.9,0,0,0-.7.83,2.55,2.55,0,0,0-.32,1.08l5.66-.4A2.1,2.1,0,0,0,518.41,355.3Z"/><path class="cls-4" d="M526.9,348l4.9-.37v10.63a4.73,4.73,0,0,0,.44,2.43,1.42,1.42,0,0,0,1.4.58,4,4,0,0,0,1.17-.24,4.88,4.88,0,0,0,.92-0.5l1.13,2q-0.39.28-.78,0.53a5.52,5.52,0,0,1-.83.43,6,6,0,0,1-1,.3,7.76,7.76,0,0,1-1.16.17,4.08,4.08,0,0,1-3.24-.86,4,4,0,0,1-1.08-3v-9.66l-1.91.14V348Z"/><path class="cls-4" d="M538.7,351.72l3.91-.31,0.34,1.35H543a4.81,4.81,0,0,1,3.86-2,5.3,5.3,0,0,1,1.94.17,3.39,3.39,0,0,1,1.52.92,4.42,4.42,0,0,1,1,1.71,8.32,8.32,0,0,1,.34,2.57,8.76,8.76,0,0,1-.39,2.69,6.26,6.26,0,0,1-1.13,2.11,5.43,5.43,0,0,1-1.79,1.42A6.6,6.6,0,0,1,546,363a9.42,9.42,0,0,1-1.4,0,3.65,3.65,0,0,1-1.15-.24c0,1.89,0,2.83,0,4.71l-3,.24c0-5.43,0-8.14,0-13.57l-1.72.14v-2.53Zm7.31,1.62a3.26,3.26,0,0,0-1.6.57,2.54,2.54,0,0,0-1,1.39v4.78a2.26,2.26,0,0,0,.93.33,5,5,0,0,0,1.23,0,3.38,3.38,0,0,0,1.2-.32,2.75,2.75,0,0,0,1-.78,3.78,3.78,0,0,0,.64-1.27,6.18,6.18,0,0,0,.23-1.79,3.18,3.18,0,0,0-.74-2.28A2.2,2.2,0,0,0,546,353.33Z"/><path class="cls-4" d="M564.78,359.78a4.66,4.66,0,0,1-.77.61,8.3,8.3,0,0,1-1.1.6,9.35,9.35,0,0,1-3,.78,7.57,7.57,0,0,1-2.63-.18,4.57,4.57,0,0,1-3.2-2.84,6.8,6.8,0,0,1-.42-2.5,7.07,7.07,0,0,1,.48-2.7,6,6,0,0,1,1.32-2,6.21,6.21,0,0,1,2-1.31,8,8,0,0,1,2.44-.6,7.37,7.37,0,0,1,1.8.07,4.49,4.49,0,0,1,1.71.64,3.73,3.73,0,0,1,1.28,1.39,4.85,4.85,0,0,1,.49,2.35,11.29,11.29,0,0,1-.23,2.16l-8.28.74a2.5,2.5,0,0,0,.31,1.21,2.16,2.16,0,0,0,.76.76,3,3,0,0,0,1.08.38,5.28,5.28,0,0,0,1.3,0,7,7,0,0,0,2.26-.52,5.39,5.39,0,0,0,1.44-.91Zm-5-7.76a4,4,0,0,0-1.13.26,3.51,3.51,0,0,0-1,.56,3,3,0,0,0-.7.85,2.59,2.59,0,0,0-.32,1.08l5.66-.5A2.06,2.06,0,0,0,559.81,352Z"/><path class="cls-4" d="M567.19,358.24L570,358v-6.44l-2.85.27v-2.53l5.17-.48,0.34,1.48h0.09a7,7,0,0,1,1.47-1.41,3.93,3.93,0,0,1,1.93-.69,2.37,2.37,0,0,1,2.17.8,5.21,5.21,0,0,1,.79,3.3l-2.69.26a2.18,2.18,0,0,0-.24-1.18,0.77,0.77,0,0,0-.77-0.31,2.48,2.48,0,0,0-1.48.6,5.36,5.36,0,0,0-1,1.15v4.9l5-.48v2.53c-4.33.42-6.49,0.63-10.82,1C567.19,359.76,567.19,359.25,567.19,358.24Z"/><path class="cls-4" d="M590.53,363.36a9.82,9.82,0,0,1-3.12-.69,7.91,7.91,0,0,1-2.69-1.78,8.53,8.53,0,0,1-1.87-2.94,11.42,11.42,0,0,1-.7-4.21,12.59,12.59,0,0,1,.7-4.34,11.37,11.37,0,0,1,1.87-3.35,10.79,10.79,0,0,1,2.69-2.37,12.65,12.65,0,0,1,3.12-1.4l0.55,2.4a10.68,10.68,0,0,0-1.83.84,7.72,7.72,0,0,0-1.94,1.6,8.83,8.83,0,0,0-1.55,2.56,9.84,9.84,0,0,0-.63,3.74,8,8,0,0,0,.67,3.5,6.84,6.84,0,0,0,1.62,2.22,6.22,6.22,0,0,0,2,1.2,7.21,7.21,0,0,0,1.7.43Z"/><path class="cls-4" d="M596.3,355.36l3.51-.37c0-4,0-6,0-10.05l-3,2.65-1.38-1.69,5.23-4.56,2-.22c0,5.43,0,8.14,0,13.57l3.44-.38v2.53l-9.8,1.06v-2.53Z"/><path class="cls-4" d="M610.07,353.85l3.51-.4c0-4,0-6,0-10.05l-3,2.67-1.38-1.69,5.23-4.59,2-.23c0,5.43,0,8.14,0,13.57l3.44-.4v2.53l-9.8,1.12C610.07,355.37,610.07,354.86,610.07,353.85Z"/><path class="cls-4" d="M622.28,346.9a14.38,14.38,0,0,1,.44-3.72,8.65,8.65,0,0,1,1.23-2.76,6.08,6.08,0,0,1,1.9-1.78,6.29,6.29,0,0,1,2.46-.81,4.73,4.73,0,0,1,4.47,1.49q1.56,1.84,1.56,6.12a14.48,14.48,0,0,1-.44,3.75,8.84,8.84,0,0,1-1.23,2.77,6,6,0,0,1-1.91,1.8,6.35,6.35,0,0,1-2.47.82,4.57,4.57,0,0,1-4.47-1.62Q622.28,351,622.28,346.9Zm3-.35c0,0.23,0,.45,0,0.65s0,0.42,0,.63l5.55-5.8a2.23,2.23,0,0,0-2.57-1.67,2.85,2.85,0,0,0-2.24,1.68A10.06,10.06,0,0,0,625.26,346.55Zm6.1-.74q0-.37,0-0.7c0-.22,0-0.44,0-0.65l-5.57,5.8a2.27,2.27,0,0,0,2.57,1.78,2.88,2.88,0,0,0,2.25-1.68A10.07,10.07,0,0,0,631.36,345.81Z"/><path class="cls-4" d="M640.16,351.32a1.79,1.79,0,0,1,.52-1.31,2.14,2.14,0,0,1,1.3-.62,2,2,0,0,1,1.9.59,2.91,2.91,0,0,1,.64,2,4.71,4.71,0,0,1-.4,1.94,5.93,5.93,0,0,1-1,1.61,6.76,6.76,0,0,1-1.43,1.2,6.6,6.6,0,0,1-1.57.73l-0.62-1.19a7.57,7.57,0,0,0,1.11-.53,5.36,5.36,0,0,0,1-.76,4.29,4.29,0,0,0,.77-1,2.73,2.73,0,0,0,.36-1.15,3,3,0,0,1-1.17.18,1.55,1.55,0,0,1-.79-0.27,1.26,1.26,0,0,1-.45-0.59A2.22,2.22,0,0,1,640.16,351.32Z"/><path class="cls-4" d="M650.15,340.44a6.1,6.1,0,0,1,.4-2.21,5.81,5.81,0,0,1,1.12-1.84,6.27,6.27,0,0,1,1.74-1.33,6.77,6.77,0,0,1,2.28-.71,6.43,6.43,0,0,1,2.34.08,4.11,4.11,0,0,1,1.81.92A4.35,4.35,0,0,1,661,337.1a7.17,7.17,0,0,1,.41,2.56,14.6,14.6,0,0,1-.69,4.69,11.29,11.29,0,0,1-1.84,3.47,9.68,9.68,0,0,1-2.69,2.34,11.93,11.93,0,0,1-3.21,1.3l-0.64-2.26a8.93,8.93,0,0,0,2.28-.92,8.27,8.27,0,0,0,1.78-1.38,7.19,7.19,0,0,0,1.24-1.71,5.9,5.9,0,0,0,.62-1.93,4.13,4.13,0,0,1-1.24.94,5.55,5.55,0,0,1-1.81.53h0a5.31,5.31,0,0,1-1.76-.06,4.08,4.08,0,0,1-1.61-.71,4,4,0,0,1-1.18-1.4A4.49,4.49,0,0,1,650.15,340.44Zm2.89-.54a2.37,2.37,0,0,0,.24,1.11,2.08,2.08,0,0,0,.63.74,2.29,2.29,0,0,0,.91.39,3.22,3.22,0,0,0,1.06,0,4.45,4.45,0,0,0,1.63-.52,2.9,2.9,0,0,0,1-.87,6.75,6.75,0,0,0,.07-0.93,4.22,4.22,0,0,0-.18-1.24,2.9,2.9,0,0,0-.55-1,2.25,2.25,0,0,0-.92-0.65,2.52,2.52,0,0,0-1.26-.12A3,3,0,0,0,653,339.9Z"/><path class="cls-4" d="M665.4,351.82a9.07,9.07,0,0,0,1.69-.84,8.74,8.74,0,0,0,2-1.68,9.54,9.54,0,0,0,1.61-2.61,9.21,9.21,0,0,0,.66-3.66,8.73,8.73,0,0,0-.63-3.59,6.37,6.37,0,0,0-1.55-2.19,5.51,5.51,0,0,0-1.93-1.13,8.54,8.54,0,0,0-1.82-.4l0.55-2.54a10.18,10.18,0,0,1,3.11.65,7.64,7.64,0,0,1,2.68,1.72,8.3,8.3,0,0,1,1.87,2.9,11.24,11.24,0,0,1,.7,4.17,12.86,12.86,0,0,1-.7,4.38,11.69,11.69,0,0,1-1.87,3.39,11.17,11.17,0,0,1-2.68,2.42,12.15,12.15,0,0,1-3.11,1.45Z"/><path class="cls-4" d="M56.69,295.85c0-1,0-1.52,0-2.53l2.7,0.43v-6.44l-2.72-.43v-2.53l2.72,0.43v-0.64a3.87,3.87,0,0,1,.38-1.8,3,3,0,0,1,1-1.13,3.42,3.42,0,0,1,1.43-.53,5.72,5.72,0,0,1,1.68,0,11.55,11.55,0,0,1,2.6.66,7.88,7.88,0,0,1,1.68.91l-0.87,2.14a12.27,12.27,0,0,0-1.13-.63,5.45,5.45,0,0,0-1.57-.45,2,2,0,0,0-1.73.3,2.21,2.21,0,0,0-.49,1.61l4.8,0.74v2.53l-4.8-.74c0,2.58,0,3.86,0,6.44L67.18,295v2.53C63,296.84,60.88,296.52,56.69,295.85Z"/><path class="cls-4" d="M70.84,287.32a11.17,11.17,0,0,1,2.12-.39,11.81,11.81,0,0,1,2.85.12,6.9,6.9,0,0,1,2,.59,4.14,4.14,0,0,1,1.35,1,3.73,3.73,0,0,1,.74,1.37,5.91,5.91,0,0,1,.23,1.69q0,1.17-.08,2T80,295.17a10.23,10.23,0,0,0,0,1.09c0,0.21.05,0.43,0.07,0.63l1.49,0.22c0,1,0,1.52,0,2.53l-3.84-.56-0.3-1.61-0.11,0a3.19,3.19,0,0,1-1.3,1,4,4,0,0,1-2.27.18,4.47,4.47,0,0,1-2.71-1.33,3.66,3.66,0,0,1-1-2.59,3.35,3.35,0,0,1,.35-1.61,2.38,2.38,0,0,1,1-1,4.23,4.23,0,0,1,1.61-.42,9.26,9.26,0,0,1,2.1.09c0.27,0,.56.1,0.86,0.17l1.11,0.26a2.29,2.29,0,0,0,0-.45v-0.44a1.7,1.7,0,0,0-.5-1.33,2.76,2.76,0,0,0-1.48-.6,6.64,6.64,0,0,0-2.09,0,11.79,11.79,0,0,0-1.57.36Zm3.89,9a2.52,2.52,0,0,0,1.63-.16,2.16,2.16,0,0,0,.79-0.75v-1.38l-0.68-.2a8.29,8.29,0,0,0-1-.2,4.63,4.63,0,0,0-.86,0,2.58,2.58,0,0,0-.77.14,1.22,1.22,0,0,0-.54.37,1,1,0,0,0-.2.64,1.51,1.51,0,0,0,.37,1.06A2,2,0,0,0,74.73,296.35Z"/><path class="cls-4" d="M95,300.43a5.66,5.66,0,0,1-2.2.76,9.32,9.32,0,0,1-2.63,0,8.17,8.17,0,0,1-2.65-.81,6.57,6.57,0,0,1-1.95-1.51,6.3,6.3,0,0,1-1.2-2.09,7.7,7.7,0,0,1-.41-2.54,6,6,0,0,1,.48-2.51A4.43,4.43,0,0,1,85.8,290a4.87,4.87,0,0,1,2-.9,7.51,7.51,0,0,1,2.54,0,10.14,10.14,0,0,1,2.4.64,12.9,12.9,0,0,1,1.72.81v4L92,294.21V292.1a6.92,6.92,0,0,0-1.42-.36,4.14,4.14,0,0,0-1.27,0,2.58,2.58,0,0,0-1.92,1.42,3.25,3.25,0,0,0-.31,1.5,3.86,3.86,0,0,0,.25,1.39,3.91,3.91,0,0,0,.71,1.18,4,4,0,0,0,1.13.88,4.49,4.49,0,0,0,1.5.48,5.09,5.09,0,0,0,2.14-.07,7.37,7.37,0,0,0,1.25-.47Z"/><path class="cls-4" d="M98.91,293.1l-2.27-.31c0-1,0-1.52,0-2.53l2.27,0.31v-2.62l3-.45V291l6,0.8c0,1,0,1.52,0,2.53l-6-.8v3.29a4.38,4.38,0,0,0,.66,2.65,2.66,2.66,0,0,0,1.86,1,3.83,3.83,0,0,0,1.12,0,3.73,3.73,0,0,0,.91-0.26,4.29,4.29,0,0,0,.73-0.41l0.61-.43,1.38,2.25a3.67,3.67,0,0,1-1,.71,7.09,7.09,0,0,1-1.26.5,7.19,7.19,0,0,1-1.41.26,6.58,6.58,0,0,1-1.44,0,5.68,5.68,0,0,1-3.86-2,7.45,7.45,0,0,1-1.29-4.74V293.1Z"/><path class="cls-4" d="M110.81,297.91a6.65,6.65,0,0,1,.44-2.52,4.43,4.43,0,0,1,1.24-1.75,4.52,4.52,0,0,1,1.92-.94,7,7,0,0,1,2.49-.09,7.79,7.79,0,0,1,2.58.76,6.33,6.33,0,0,1,1.92,1.47,6.08,6.08,0,0,1,1.18,2.07,7.81,7.81,0,0,1,.4,2.53,6.68,6.68,0,0,1-.44,2.52,4.45,4.45,0,0,1-1.24,1.76,4.5,4.5,0,0,1-1.91.95,7,7,0,0,1-2.49.09,7.75,7.75,0,0,1-2.58-.77,6.35,6.35,0,0,1-1.92-1.48,6.11,6.11,0,0,1-1.18-2.07A7.81,7.81,0,0,1,110.81,297.91Zm3.07,0.4a4.85,4.85,0,0,0,.21,1.43,4,4,0,0,0,.6,1.2,3.24,3.24,0,0,0,.94.87,3.16,3.16,0,0,0,1.26.43,2.61,2.61,0,0,0,2.17-.58,3.34,3.34,0,0,0,.84-2.59,4.42,4.42,0,0,0-.78-2.66,3.1,3.1,0,0,0-2.23-1.26,3.42,3.42,0,0,0-1.19,0,2,2,0,0,0-1,.51,2.63,2.63,0,0,0-.63,1A4.72,4.72,0,0,0,113.88,298.3Z"/><path class="cls-4" d="M124.66,302.88l2.85,0.35v-6.44l-2.85-.35v-2.53l5.16,0.63,0.34,1.56h0.09a5.11,5.11,0,0,1,1.47-1.09,3.38,3.38,0,0,1,1.93-.28,3,3,0,0,1,2.17,1.27,6,6,0,0,1,.79,3.47l-2.69-.32a2.49,2.49,0,0,0-.24-1.24,1,1,0,0,0-.77-0.47,2.08,2.08,0,0,0-1.48.28,3.92,3.92,0,0,0-1,.94v4.9l5,0.59v2.53c-4.32-.51-6.49-0.77-10.81-1.3v-2.53Z"/><path class="cls-4" d="M138.88,304.57l4,0.46V298.6l-4-.46V295.6l7,0.8c0,3.59,0,5.38,0,9l4.25,0.47v2.53c-4.51-.49-6.77-0.75-11.27-1.27v-2.53Zm3.49-11.7a1.45,1.45,0,0,1,.53-1.16,1.87,1.87,0,0,1,1.47-.34,2.5,2.5,0,0,1,1.54.68,1.77,1.77,0,0,1,.57,1.28,1.32,1.32,0,0,1-.57,1.14,2.17,2.17,0,0,1-1.54.3,2.37,2.37,0,0,1-1.47-.64A1.73,1.73,0,0,1,142.37,292.88Z"/><path class="cls-4" d="M153.38,298a11.54,11.54,0,0,1,2.12-.48,11.87,11.87,0,0,1,2.86,0,6.73,6.73,0,0,1,2,.5,3.91,3.91,0,0,1,1.36,1,3.53,3.53,0,0,1,.75,1.34,5.8,5.8,0,0,1,.23,1.68q0,1.17-.08,2t-0.08,1.46a10.12,10.12,0,0,0,0,1.09c0,0.21.05,0.43,0.07,0.63l1.49,0.15v2.53l-3.86-.4-0.3-1.6H159.9a3.4,3.4,0,0,1-1.3,1.09,4.1,4.1,0,0,1-2.28.28A4.29,4.29,0,0,1,153.6,308a3.5,3.5,0,0,1-1-2.55,3.43,3.43,0,0,1,.35-1.63,2.54,2.54,0,0,1,1-1,4.41,4.41,0,0,1,1.62-.49,9.31,9.31,0,0,1,2.11,0c0.28,0,.56.08,0.87,0.14l1.12,0.21a2.3,2.3,0,0,0,0-.46v-0.44a1.63,1.63,0,0,0-.5-1.31,2.66,2.66,0,0,0-1.48-.54,6.7,6.7,0,0,0-2.1.08,12.22,12.22,0,0,0-1.57.43Zm3.91,8.86a2.58,2.58,0,0,0,1.64-.23,2.3,2.3,0,0,0,.8-0.78v-1.38L159,304.3a8.16,8.16,0,0,0-1-.16,4.64,4.64,0,0,0-.86,0,2.66,2.66,0,0,0-.77.17,1.3,1.3,0,0,0-.55.39,1,1,0,0,0-.2.65,1.45,1.45,0,0,0,.37,1A1.94,1.94,0,0,0,157.28,306.86Z"/><path class="cls-4" d="M167.09,294.06l4.9,0.49c0,4.25,0,6.38,0,10.63a5.2,5.2,0,0,0,.44,2.5,1.72,1.72,0,0,0,1.4.83,3.76,3.76,0,0,0,1.17,0,4,4,0,0,0,.92-0.34l1.13,2.18c-0.26.14-.52,0.28-0.78,0.4a4.57,4.57,0,0,1-.83.29,5.31,5.31,0,0,1-1,.14,7.52,7.52,0,0,1-1.16,0,4.78,4.78,0,0,1-3.24-1.42,4.68,4.68,0,0,1-1.08-3.24v-9.66l-1.91-.19C167.09,295.57,167.09,295.07,167.09,294.06Z"/><path class="cls-4" d="M180.68,314.17c4.08,0.38,6.13.57,10.21,0.93v2.46c-4.09-.36-6.13-0.55-10.21-0.93v-2.46Z"/><path class="cls-4" d="M192.69,296.47l4.65,0.4c0,2.36,0,3.53,0,5.89h0.09a3.46,3.46,0,0,1,1.47-1,4.82,4.82,0,0,1,2.16-.26,5.64,5.64,0,0,1,1.61.36,3.41,3.41,0,0,1,1.27.86,4,4,0,0,1,.83,1.51,7.5,7.5,0,0,1,.3,2.27c0,2.86,0,4.29,0,7.15l-3-.25v-6.53a3,3,0,0,0-.6-2.07,2.27,2.27,0,0,0-1.57-.75,2.44,2.44,0,0,0-1.56.39,2.49,2.49,0,0,0-1,1.24V313l-3-.26c0-5.43,0-8.14,0-13.57l-1.66-.14v-2.53Z"/><path class="cls-4" d="M218.78,313.47a3.7,3.7,0,0,1-.77.48,6.92,6.92,0,0,1-1.1.41,8.16,8.16,0,0,1-1.39.26,8.8,8.8,0,0,1-1.61,0,8.16,8.16,0,0,1-2.64-.62,5.77,5.77,0,0,1-3.2-3.37,7.36,7.36,0,0,1-.43-2.58,6.47,6.47,0,0,1,.48-2.62,4.76,4.76,0,0,1,1.32-1.79,5,5,0,0,1,2-1,7.43,7.43,0,0,1,2.44-.19,7.86,7.86,0,0,1,1.81.37,5.41,5.41,0,0,1,1.71.92,4.74,4.74,0,0,1,1.28,1.6,5.36,5.36,0,0,1,.5,2.43,10.7,10.7,0,0,1-.23,2.12l-8.29-.63a2.79,2.79,0,0,0,.31,1.27,2.74,2.74,0,0,0,.76.89,3.6,3.6,0,0,0,1.08.56,5.57,5.57,0,0,0,1.3.25,6.55,6.55,0,0,0,2.27-.15,4.38,4.38,0,0,0,1.44-.67Zm-5-8.59a3.7,3.7,0,0,0-1.13.08,2.88,2.88,0,0,0-1,.41,2.35,2.35,0,0,0-.7.73,2.28,2.28,0,0,0-.32,1l5.66,0.44A2.48,2.48,0,0,0,213.81,304.88Z"/><path class="cls-4" d="M222.31,298.85l4.9,0.35v10.63a5.12,5.12,0,0,0,.44,2.49,1.67,1.67,0,0,0,1.41.79,3.79,3.79,0,0,0,1.17-.07,4.14,4.14,0,0,0,.92-0.36l1.13,2.15q-0.39.23-.78,0.42a4.75,4.75,0,0,1-.83.31,5.4,5.4,0,0,1-1,.16,7.54,7.54,0,0,1-1.16,0,4.65,4.65,0,0,1-3.25-1.33,4.56,4.56,0,0,1-1.08-3.21v-9.66l-1.91-.14C222.31,300.37,222.31,299.86,222.31,298.85Z"/><path class="cls-4" d="M234.12,304.27l3.92,0.26,0.35,1.4h0.09a4.14,4.14,0,0,1,3.87-1.46,5.7,5.7,0,0,1,1.95.45,4.15,4.15,0,0,1,1.52,1.14,5.31,5.31,0,0,1,1,1.85,8.8,8.8,0,0,1,.35,2.62,8.21,8.21,0,0,1-.39,2.63,5.22,5.22,0,0,1-1.13,1.94,4.45,4.45,0,0,1-1.8,1.15,6.11,6.11,0,0,1-2.42.29,9.71,9.71,0,0,1-1.4-.19,4.1,4.1,0,0,1-1.15-.41v4.71l-3-.19V306.92l-1.73-.11C234.12,305.79,234.12,305.28,234.12,304.27Zm7.33,2.68a2.92,2.92,0,0,0-1.6.34,2.08,2.08,0,0,0-1,1.25v4.78a2.65,2.65,0,0,0,.93.46A5.3,5.3,0,0,0,241,314a3.13,3.13,0,0,0,1.2-.14,2.25,2.25,0,0,0,1-.64,3.15,3.15,0,0,0,.64-1.18,5.83,5.83,0,0,0,.23-1.76,3.59,3.59,0,0,0-.74-2.39A2.56,2.56,0,0,0,241.44,307Z"/><path class="cls-4" d="M260.25,316.12a3.8,3.8,0,0,1-.77.5,7,7,0,0,1-1.11.44,8.26,8.26,0,0,1-1.39.29,8.89,8.89,0,0,1-1.61,0,8.07,8.07,0,0,1-2.64-.56,5.6,5.6,0,0,1-3.2-3.3,7.29,7.29,0,0,1-.43-2.57,6.54,6.54,0,0,1,.48-2.63,4.9,4.9,0,0,1,1.32-1.82,5.17,5.17,0,0,1,2-1,7.49,7.49,0,0,1,2.44-.24,7.76,7.76,0,0,1,1.81.33,5.29,5.29,0,0,1,1.72.89,4.61,4.61,0,0,1,1.28,1.58,5.28,5.28,0,0,1,.5,2.42,10.75,10.75,0,0,1-.23,2.13l-8.3-.46a2.77,2.77,0,0,0,.31,1.26,2.68,2.68,0,0,0,.76.87,3.51,3.51,0,0,0,1.08.53,5.53,5.53,0,0,0,1.3.22,6.6,6.6,0,0,0,2.27-.2,4.49,4.49,0,0,0,1.44-.7Zm-5-8.48a3.73,3.73,0,0,0-1.13.1,3,3,0,0,0-1,.43,2.41,2.41,0,0,0-.7.75,2.29,2.29,0,0,0-.32,1l5.67,0.32A2.42,2.42,0,0,0,255.27,307.64Z"/><path class="cls-4" d="M262.67,314.94l2.86,0.15v-6.44l-2.86-.15V306l5.19,0.26,0.35,1.53h0.09a5.68,5.68,0,0,1,1.48-1.19,3.54,3.54,0,0,1,1.94-.41,2.76,2.76,0,0,1,2.18,1.11,5.74,5.74,0,0,1,.79,3.42l-2.7-.13a2.38,2.38,0,0,0-.24-1.22,0.9,0.9,0,0,0-.77-0.42,2.2,2.2,0,0,0-1.49.39,4.33,4.33,0,0,0-1,1v4.9l5,0.24V318c-4.34-.2-6.51-0.31-10.86-0.54v-2.53Z"/><path class="cls-4" d="M286.09,323.42a11.08,11.08,0,0,1-3.14-1.14,9.72,9.72,0,0,1-2.7-2.16,10.31,10.31,0,0,1-1.88-3.21,12.21,12.21,0,0,1-.7-4.31,11.72,11.72,0,0,1,.7-4.24,9.44,9.44,0,0,1,1.88-3.08,8.8,8.8,0,0,1,2.7-2,11.07,11.07,0,0,1,3.14-1l0.55,2.48a9.3,9.3,0,0,0-1.83.58,6.32,6.32,0,0,0-1.95,1.32,7.28,7.28,0,0,0-1.56,2.34,9.12,9.12,0,0,0-.63,3.65,8.69,8.69,0,0,0,.67,3.59,8.36,8.36,0,0,0,1.63,2.45,7.6,7.6,0,0,0,2,1.48,8.22,8.22,0,0,0,1.71.68Z"/><path class="cls-4" d="M291.88,316.24l3.53,0.13V306.32l-3,2.21L291,306.64l5.26-3.81,2,0.07v13.57l3.46,0.11v2.53l-9.85-.34v-2.53Z"/><path class="cls-4" d="M305.71,316.71l3.53,0.1V306.76l-3,2.23-1.38-1.88,5.26-3.85,2,0.06v13.57l3.46,0.09v2.53l-9.85-.27v-2.53Z"/><path class="cls-4" d="M318,311.5a13.59,13.59,0,0,1,.44-3.66,7.35,7.35,0,0,1,1.24-2.58,5,5,0,0,1,1.91-1.51,5.74,5.74,0,0,1,2.48-.46,5.47,5.47,0,0,1,4.49,2.12q1.57,2.07,1.57,6.34a13.68,13.68,0,0,1-.44,3.68,7.51,7.51,0,0,1-1.24,2.6,4.92,4.92,0,0,1-1.92,1.53A5.8,5.8,0,0,1,324,320a5.32,5.32,0,0,1-4.49-2.25A10.77,10.77,0,0,1,318,311.5Zm3,0.07c0,0.23,0,.45,0,0.66s0,0.42,0,.63l5.58-5a2.65,2.65,0,0,0-2.58-2,2.4,2.4,0,0,0-2.25,1.37A9.27,9.27,0,0,0,321,311.57Zm6.14,0.13q0-.37,0-0.7c0-.22,0-0.44,0-0.66l-5.61,5A2.7,2.7,0,0,0,324,317.5a2.43,2.43,0,0,0,2.27-1.36A9.29,9.29,0,0,0,327.12,311.7Z"/><path class="cls-4" d="M336,318.45a1.55,1.55,0,0,1,.52-1.23,1.87,1.87,0,0,1,1.3-.44,2.31,2.31,0,0,1,1.91.85,3.26,3.26,0,0,1,.65,2.06,4.31,4.31,0,0,1-.4,1.88A4.89,4.89,0,0,1,338.9,323a5.56,5.56,0,0,1-1.44,1,5.79,5.79,0,0,1-1.58.51l-0.62-1.27a6.62,6.62,0,0,0,1.12-.37,4.42,4.42,0,0,0,1-.62,3.48,3.48,0,0,0,.77-0.87,2.41,2.41,0,0,0,.36-1.1,2.94,2.94,0,0,1-1.18,0,1.81,1.81,0,0,1-.8-0.38,1.54,1.54,0,0,1-.45-0.65A2.37,2.37,0,0,1,336,318.45Z"/><path class="cls-4" d="M346,309a5.63,5.63,0,0,1,.4-2.16,4.81,4.81,0,0,1,1.13-1.68,5.2,5.2,0,0,1,1.75-1.09,6.25,6.25,0,0,1,2.3-.39,6.81,6.81,0,0,1,2.35.41,5,5,0,0,1,1.82,1.17,5.23,5.23,0,0,1,1.18,1.91,7.6,7.6,0,0,1,.42,2.61,13.63,13.63,0,0,1-.69,4.6,9.45,9.45,0,0,1-1.86,3.21,8,8,0,0,1-2.71,2,10.65,10.65,0,0,1-3.23.85L348.25,318a8,8,0,0,0,2.29-.6,6.85,6.85,0,0,0,1.79-1.13,5.9,5.9,0,0,0,1.25-1.53,5.19,5.19,0,0,0,.62-1.85,3.43,3.43,0,0,1-1.25.76,5.14,5.14,0,0,1-1.82.27h0a5.62,5.62,0,0,1-1.78-.31A4.8,4.8,0,0,1,346,309Zm2.91-.13a2.53,2.53,0,0,0,.88,2,2.73,2.73,0,0,0,.91.51,3.4,3.4,0,0,0,1.07.18,4.09,4.09,0,0,0,1.64-.29,2.39,2.39,0,0,0,1-.73,6.51,6.51,0,0,0,.07-0.92,4.45,4.45,0,0,0-.18-1.27,3.43,3.43,0,0,0-.55-1.11,2.76,2.76,0,0,0-.92-0.78,2.73,2.73,0,0,0-1.27-.3A2.53,2.53,0,0,0,348.94,308.85Z"/><path class="cls-4" d="M361.4,322.5a7.92,7.92,0,0,0,1.71-.61,7.2,7.2,0,0,0,2-1.4,7.88,7.88,0,0,0,1.63-2.38,8.48,8.48,0,0,0,.67-3.57,9.32,9.32,0,0,0-.63-3.68,7.71,7.71,0,0,0-1.56-2.4,6.71,6.71,0,0,0-1.95-1.4,9.67,9.67,0,0,0-1.83-.66l0.55-2.46a11.49,11.49,0,0,1,3.14,1.08,9.35,9.35,0,0,1,2.7,2.09,10,10,0,0,1,1.88,3.16,13.33,13.33,0,0,1,0,8.54,9.76,9.76,0,0,1-1.88,3.13,9.17,9.17,0,0,1-2.7,2,10.69,10.69,0,0,1-3.14,1Z"/><path class="cls-4" d="M511.7,312.17l2.85-.21v-6.44l-2.85.21c0-1,0-1.52,0-2.53l5.18-.39,0.35,1.49h0.09a6.84,6.84,0,0,1,1.47-1.38,3.88,3.88,0,0,1,1.93-.66,2.42,2.42,0,0,1,2.18.84,5.26,5.26,0,0,1,.79,3.32l-2.69.21a2.2,2.2,0,0,0-.24-1.19,0.78,0.78,0,0,0-.77-0.32,2.45,2.45,0,0,0-1.48.58,5.22,5.22,0,0,0-1,1.13v4.9l5-.39c0,1,0,1.52,0,2.53-4.34.35-6.5,0.51-10.84,0.84v-2.53Z"/><path class="cls-4" d="M536.9,311.44a4.63,4.63,0,0,1-.77.61,8.25,8.25,0,0,1-1.1.59,9.33,9.33,0,0,1-3,.76,7.58,7.58,0,0,1-2.64-.19,4.6,4.6,0,0,1-3.2-2.85,6.81,6.81,0,0,1-.43-2.51,7,7,0,0,1,.48-2.7,6,6,0,0,1,1.32-2,6.19,6.19,0,0,1,2-1.3,8,8,0,0,1,2.44-.59,7.39,7.39,0,0,1,1.81.08,4.52,4.52,0,0,1,1.71.65,3.75,3.75,0,0,1,1.28,1.4,4.86,4.86,0,0,1,.5,2.35,11.26,11.26,0,0,1-.23,2.16l-8.28.71a2.51,2.51,0,0,0,.31,1.22,2.18,2.18,0,0,0,.76.76,3,3,0,0,0,1.08.38,5.29,5.29,0,0,0,1.3,0,7,7,0,0,0,2.27-.51,5.36,5.36,0,0,0,1.44-.91Zm-5-7.78a4,4,0,0,0-1.13.26,3.49,3.49,0,0,0-1,.56,3,3,0,0,0-.7.84,2.58,2.58,0,0,0-.32,1.08l5.66-.48A2.07,2.07,0,0,0,531.93,303.66Z"/><path class="cls-4" d="M551,310.28a7.39,7.39,0,0,1-2.21,1.28,10.14,10.14,0,0,1-2.64.6,7.24,7.24,0,0,1-2.66-.19,4.82,4.82,0,0,1-2-1.05,4.63,4.63,0,0,1-1.21-1.81,7.39,7.39,0,0,1,.07-5.07,6.15,6.15,0,0,1,1.35-2,6.56,6.56,0,0,1,2-1.37,8.3,8.3,0,0,1,2.55-.64,9.24,9.24,0,0,1,2.41.07,10.49,10.49,0,0,1,1.73.41v4l-2.53.24v-2.12a6.36,6.36,0,0,0-1.43,0,4.55,4.55,0,0,0-1.28.31,3.51,3.51,0,0,0-1.13.72,3.61,3.61,0,0,0-1.12,2.71,3.39,3.39,0,0,0,.25,1.33,2.78,2.78,0,0,0,1.85,1.64,4,4,0,0,0,1.51.13,5.69,5.69,0,0,0,2.15-.57,9.78,9.78,0,0,0,1.25-.76Z"/><path class="cls-4" d="M559.8,299l4.28-.43v9l1.75-.18v2.53l-3.63.37-0.53-1.65h-0.09a4.7,4.7,0,0,1-1.59,1.61,5.22,5.22,0,0,1-2.35.81A5.1,5.1,0,0,1,556,311a2.55,2.55,0,0,1-1.23-.64A3.12,3.12,0,0,1,554,309a7.5,7.5,0,0,1-.28-2.23v-4.62l-1.31.13v-2.53l4.3-.41v6.53a3.31,3.31,0,0,0,.45,2,1.48,1.48,0,0,0,1.41.48,2.74,2.74,0,0,0,1.53-.66,3.12,3.12,0,0,0,1-1.34v-4.9l-1.29.13C559.8,300.55,559.8,300,559.8,299Z"/><path class="cls-4" d="M566.9,307.28l2.85-.29v-6.44l-2.85.29v-2.53l5.17-.54,0.34,1.48h0.09a7.12,7.12,0,0,1,1.47-1.42,4,4,0,0,1,1.93-.71,2.35,2.35,0,0,1,2.17.78,5.17,5.17,0,0,1,.79,3.29l-2.69.29a2.17,2.17,0,0,0-.24-1.18,0.76,0.76,0,0,0-.77-0.3,2.51,2.51,0,0,0-1.48.62,5.43,5.43,0,0,0-1,1.16v4.9l5-.53v2.53c-4.33.47-6.49,0.7-10.82,1.14v-2.53Z"/><path class="cls-4" d="M590.24,312.15a9.74,9.74,0,0,1-3.12-.66,7.79,7.79,0,0,1-2.69-1.74,8.4,8.4,0,0,1-1.87-2.92,11.36,11.36,0,0,1-.7-4.2,12.66,12.66,0,0,1,.7-4.34,11.54,11.54,0,0,1,1.87-3.37,11,11,0,0,1,2.69-2.4,12.81,12.81,0,0,1,3.12-1.44l0.55,2.4a10.81,10.81,0,0,0-1.82.87A7.84,7.84,0,0,0,587,296a9,9,0,0,0-1.55,2.58,9.9,9.9,0,0,0-.63,3.75,8,8,0,0,0,.67,3.49,6.73,6.73,0,0,0,1.62,2.2,6.12,6.12,0,0,0,2,1.18,7.14,7.14,0,0,0,1.7.41Z"/><path class="cls-4" d="M594.81,295.68a6,6,0,0,1,.4-2.21,5.71,5.71,0,0,1,1.12-1.82,6.16,6.16,0,0,1,1.74-1.31,6.73,6.73,0,0,1,2.28-.67,6.47,6.47,0,0,1,2.34.11,4.19,4.19,0,0,1,1.81.94,4.42,4.42,0,0,1,1.17,1.77,7.2,7.2,0,0,1,.41,2.56,14.5,14.5,0,0,1-.69,4.68,11.1,11.1,0,0,1-1.85,3.45,9.51,9.51,0,0,1-2.7,2.3,11.8,11.8,0,0,1-3.21,1.26L597,304.46a8.83,8.83,0,0,0,2.28-.89,8.13,8.13,0,0,0,1.78-1.35,7.07,7.07,0,0,0,1.24-1.69,5.83,5.83,0,0,0,.62-1.93,4.06,4.06,0,0,1-1.24.92,5.5,5.5,0,0,1-1.81.5h0a5.34,5.34,0,0,1-1.77-.09,4.15,4.15,0,0,1-1.62-.73,4.07,4.07,0,0,1-1.18-1.41A4.52,4.52,0,0,1,594.81,295.68Zm2.89-.5a2.38,2.38,0,0,0,.24,1.11,2.12,2.12,0,0,0,.63.75,2.33,2.33,0,0,0,.91.4,3.23,3.23,0,0,0,1.07,0,4.41,4.41,0,0,0,1.63-.5,2.85,2.85,0,0,0,1-.86,6.69,6.69,0,0,0,.07-0.93,4.24,4.24,0,0,0-.18-1.24,3,3,0,0,0-.55-1,2.3,2.3,0,0,0-.92-0.66,2.54,2.54,0,0,0-1.26-.14A2.94,2.94,0,0,0,597.7,295.18Z"/><path class="cls-4" d="M608.57,294a6.08,6.08,0,0,1,.4-2.21A5.76,5.76,0,0,1,610.1,290a6.22,6.22,0,0,1,1.74-1.32,6.76,6.76,0,0,1,2.28-.69,6.45,6.45,0,0,1,2.34.09,4.15,4.15,0,0,1,1.81.93,4.38,4.38,0,0,1,1.17,1.76,7.18,7.18,0,0,1,.41,2.56,14.56,14.56,0,0,1-.69,4.69,11.2,11.2,0,0,1-1.85,3.46,9.6,9.6,0,0,1-2.69,2.32,11.87,11.87,0,0,1-3.21,1.28l-0.64-2.27a8.88,8.88,0,0,0,2.28-.91,8.21,8.21,0,0,0,1.78-1.36,7.13,7.13,0,0,0,1.24-1.7,5.87,5.87,0,0,0,.62-1.93,4.1,4.1,0,0,1-1.24.93,5.53,5.53,0,0,1-1.81.52h0a5.33,5.33,0,0,1-1.77-.08,4.11,4.11,0,0,1-1.62-.72,4,4,0,0,1-1.18-1.41A4.51,4.51,0,0,1,608.57,294Zm2.89-.52a2.37,2.37,0,0,0,.24,1.11,2.1,2.1,0,0,0,.63.75,2.31,2.31,0,0,0,.91.39,3.23,3.23,0,0,0,1.07,0,4.44,4.44,0,0,0,1.63-.51,2.88,2.88,0,0,0,1-.87,6.74,6.74,0,0,0,.07-0.93,4.22,4.22,0,0,0-.18-1.24,2.92,2.92,0,0,0-.55-1,2.27,2.27,0,0,0-.92-0.65,2.53,2.53,0,0,0-1.26-.13A3,3,0,0,0,611.46,293.5Z"/><path class="cls-4" d="M622,295.3a14.45,14.45,0,0,1,.44-3.73,8.79,8.79,0,0,1,1.23-2.77,6.2,6.2,0,0,1,1.9-1.8,6.36,6.36,0,0,1,2.46-.85,4.67,4.67,0,0,1,4.46,1.43q1.56,1.82,1.56,6.1a14.56,14.56,0,0,1-.44,3.75,9,9,0,0,1-1.23,2.79,6.14,6.14,0,0,1-1.91,1.82,6.42,6.42,0,0,1-2.47.85,4.52,4.52,0,0,1-4.46-1.56Q622,299.4,622,295.3Zm3-.39c0,0.23,0,.45,0,0.65s0,0.42,0,.63l5.55-5.87a2.19,2.19,0,0,0-2.57-1.63,2.9,2.9,0,0,0-2.24,1.71A10.13,10.13,0,0,0,624.95,294.91Zm6.1-.82q0-.37,0-0.7c0-.22,0-0.44,0-0.65l-5.57,5.88a2.23,2.23,0,0,0,2.57,1.75,2.93,2.93,0,0,0,2.25-1.71A10.16,10.16,0,0,0,631,294.09Z"/><path class="cls-4" d="M639.84,299.47a1.82,1.82,0,0,1,.52-1.31,2.17,2.17,0,0,1,1.29-.64,2,2,0,0,1,1.9.56,2.88,2.88,0,0,1,.64,2,4.76,4.76,0,0,1-.4,1.94,6.06,6.06,0,0,1-1,1.62,6.9,6.9,0,0,1-1.43,1.22,6.7,6.7,0,0,1-1.57.75l-0.62-1.18a7.69,7.69,0,0,0,1.11-.55,5.46,5.46,0,0,0,1-.78,4.38,4.38,0,0,0,.77-1,2.76,2.76,0,0,0,.35-1.15,3,3,0,0,1-1.17.2,1.53,1.53,0,0,1-.79-0.26,1.24,1.24,0,0,1-.45-0.58A2.21,2.21,0,0,1,639.84,299.47Z"/><path class="cls-4" d="M650,295.56a4.28,4.28,0,0,1,.26-1.51,5.5,5.5,0,0,1,.69-1.3,7.16,7.16,0,0,1,1-1.1,11.35,11.35,0,0,1,1.12-.91,5.69,5.69,0,0,1-1.9-1.3,3,3,0,0,1-.76-2.18,4.08,4.08,0,0,1,.39-1.74,5.08,5.08,0,0,1,1.09-1.52,6.28,6.28,0,0,1,1.66-1.14,7.19,7.19,0,0,1,2.08-.63,6.41,6.41,0,0,1,1.93,0,4.48,4.48,0,0,1,1.59.54,3,3,0,0,1,1.08,1.07,3,3,0,0,1,.39,1.54,4.58,4.58,0,0,1-.7,2.47,7.66,7.66,0,0,1-1.91,2,5.74,5.74,0,0,1,2.18,1.35,3.27,3.27,0,0,1,.81,2.36,4.34,4.34,0,0,1-.45,1.94,5.61,5.61,0,0,1-1.2,1.62,6.84,6.84,0,0,1-1.77,1.2,7.57,7.57,0,0,1-2.16.66,6.79,6.79,0,0,1-2.13,0,4.82,4.82,0,0,1-1.72-.61,3.21,3.21,0,0,1-1.15-1.17A3.35,3.35,0,0,1,650,295.56Zm8.15-1.6a1.46,1.46,0,0,0-.3-0.94,2.61,2.61,0,0,0-.74-0.62,5.71,5.71,0,0,0-1-.44q-0.54-.18-1-0.39a5.52,5.52,0,0,0-1.76,1.56,2.89,2.89,0,0,0-.62,1.6,1.62,1.62,0,0,0,.73,1.49,3,3,0,0,0,2,.26,3.69,3.69,0,0,0,1.92-.83A2.13,2.13,0,0,0,658.1,294Zm-4.92-7a1.53,1.53,0,0,0,.24.9,2,2,0,0,0,.62.58,4.07,4.07,0,0,0,.86.39l1,0.32a5.28,5.28,0,0,0,.72-0.57,4.86,4.86,0,0,0,.63-0.7,4.08,4.08,0,0,0,.45-0.76,1.82,1.82,0,0,0,.17-0.75,1.49,1.49,0,0,0-.21-0.81,1.65,1.65,0,0,0-.54-0.53,2,2,0,0,0-.74-0.27,2.79,2.79,0,0,0-.85,0,2.89,2.89,0,0,0-.93.3,3.21,3.21,0,0,0-.73.52,2.24,2.24,0,0,0-.48.67A1.7,1.7,0,0,0,653.18,287Z"/><path class="cls-4" d="M665.06,299.61a9.23,9.23,0,0,0,1.69-.87,8.94,8.94,0,0,0,2-1.71,9.74,9.74,0,0,0,1.61-2.63,9.3,9.3,0,0,0,.66-3.67,8.67,8.67,0,0,0-.63-3.58,6.23,6.23,0,0,0-1.54-2.16,5.4,5.4,0,0,0-1.93-1.1,8.45,8.45,0,0,0-1.82-.38l0.55-2.55a10.08,10.08,0,0,1,3.11.6,7.47,7.47,0,0,1,2.67,1.68,8.12,8.12,0,0,1,1.86,2.87,11.17,11.17,0,0,1,.7,4.16,13,13,0,0,1-.7,4.39,11.93,11.93,0,0,1-1.86,3.42,11.42,11.42,0,0,1-2.67,2.46,12.34,12.34,0,0,1-3.11,1.49Z"/></svg>